<svg width="24" height="24" viewBox="0 0 24 24" fill="none" xmlns="http://www.w3.org/2000/svg">
<path d="M11.9839 9V18M10.8472 9.5L11.9841 10.5L13.1208 9.5M10.8472 17.5L11.9841 16.5L13.1208 17.5M7.56789 11.25L16.4293 15.75M8.89728 11.925L7.49953 12.2545M8.89554 11.925L8.52101 10.6956M15.4756 16.3044L15.1011 15.075L16.4988 14.7457M16.4293 11.25L7.56789 15.75M8.89945 15.075L8.52492 16.3044M8.89728 15.0751L7.49953 14.7457M16.4988 12.2545L15.1011 11.925L15.4756 10.6956M14.9995 6C14.9995 5.06812 14.9995 4.60218 14.8473 4.23463C14.6443 3.74458 14.255 3.35523 13.7649 3.15224C13.3974 3 12.9314 3 11.9995 3C11.0676 3 10.6017 3 10.2342 3.15224C9.74411 3.35523 9.35476 3.74458 9.15177 4.23463C8.99953 4.60218 8.99953 5.06812 8.99953 6M3.99953 6H19.9995L20.772 17.5871C20.8511 18.7738 20.8907 19.3672 20.6841 19.824C20.5026 20.2254 20.1936 20.5557 19.8051 20.7635C19.3631 21 18.7684 21 17.5791 21H6.41997C5.23064 21 4.63597 21 4.19392 20.7635C3.80543 20.5557 3.49644 20.2254 3.31493 19.824C3.10838 19.3672 3.14794 18.7738 3.22705 17.5871L3.99953 6Z" stroke="#0000CC" stroke-width="2" stroke-linecap="round" stroke-linejoin="round"/>
</svg>
