<svg width="24" height="24" viewBox="0 0 24 24" fill="none" xmlns="http://www.w3.org/2000/svg">
<path d="M13.6446 13.8615L14.4663 13.2916L14.4663 13.2916L13.6446 13.8615ZM10.3554 13.8615L9.53373 13.2916L10.3554 13.8615ZM10.6718 16.0077L11.5038 15.453L10.6718 16.0077ZM12 18L11.1679 18.5547C11.3534 18.8329 11.6656 19 12 19C12.3344 19 12.6466 18.8329 12.8321 18.5547L12 18ZM13.3282 16.0077L12.4962 15.453L13.3282 16.0077ZM8.7423 8.84169C8.97793 8.34219 8.76403 7.74625 8.26453 7.51062C7.76504 7.27498 7.1691 7.48889 6.93346 7.98838L8.7423 8.84169ZM5.92476 12.4704L5.50214 13.3768L5.92476 12.4704ZM7.05209 13.9463L8.03767 13.777V13.777L7.05209 13.9463ZM4.07113 12.5562L3.56727 11.6924L3.56727 11.6924L4.07113 12.5562ZM3.45084 14.635L4.43936 14.4839L3.45084 14.635ZM3.81262 17.002L2.8241 17.1531C2.87461 17.4836 3.08697 17.767 3.39 17.9083C3.69302 18.0496 4.04662 18.0301 4.33228 17.8563L3.81262 17.002ZM5.85836 15.7577L5.33869 14.9033H5.33869L5.85836 15.7577ZM17.0651 7.98534C16.8278 7.48664 16.2311 7.27475 15.7324 7.51206C15.2337 7.74937 15.0218 8.34603 15.2591 8.84473L17.0651 7.98534ZM18.0919 12.4704L18.5146 13.3768L18.0919 12.4704ZM16.9646 13.9463L15.979 13.777V13.777L16.9646 13.9463ZM19.9456 12.5562L20.4494 11.6924V11.6924L19.9456 12.5562ZM20.5659 14.635L21.5544 14.7861L20.5659 14.635ZM20.2041 17.002L19.6844 17.8563C19.9701 18.0301 20.3237 18.0496 20.6267 17.9083C20.9297 17.767 21.1421 17.4836 21.1926 17.1531L20.2041 17.002ZM18.1584 15.7577L18.678 14.9033L18.1584 15.7577ZM21.6006 6.80067C22.0422 6.46898 22.1313 5.84211 21.7996 5.40052C21.4679 4.95893 20.841 4.86984 20.3994 5.20153L21.6006 6.80067ZM3.60058 5.20153C3.15899 4.86984 2.53212 4.95893 2.20043 5.40052C1.86874 5.84211 1.95783 6.46898 2.39942 6.80067L3.60058 5.20153ZM11 9V13H13V9H11ZM14.4663 13.2916C13.9264 12.5132 13.0232 12 12 12V14C12.3399 14 12.6406 14.1687 12.8229 14.4314L14.4663 13.2916ZM12 12C10.9768 12 10.0736 12.5132 9.53373 13.2916L11.1771 14.4314C11.3594 14.1687 11.6601 14 12 14V12ZM9.83975 16.5624L11.1679 18.5547L12.8321 17.4453L11.5038 15.453L9.83975 16.5624ZM12.8321 18.5547L14.1603 16.5624L12.4962 15.453L11.1679 17.4453L12.8321 18.5547ZM9.53373 13.2916C9.10788 13.9056 9.08218 14.5825 9.2031 15.1426C9.32035 15.6857 9.58409 16.1789 9.83975 16.5624L11.5038 15.453C11.3215 15.1794 11.202 14.924 11.1581 14.7205C11.1178 14.534 11.1529 14.4663 11.1771 14.4314L9.53373 13.2916ZM12.8229 14.4314C12.8471 14.4663 12.8822 14.534 12.8419 14.7205C12.798 14.924 12.6785 15.1794 12.4962 15.453L14.1603 16.5624C14.4159 16.1789 14.6797 15.6857 14.7969 15.1426C14.9178 14.5825 14.8921 13.9056 14.4663 13.2916L12.8229 14.4314ZM6.93346 7.98838L5.02035 12.0438L6.82918 12.8971L8.7423 8.84169L6.93346 7.98838ZM8.03767 13.777C7.87717 12.8424 7.27391 11.9962 6.34738 11.5641L5.50214 13.3768C5.81101 13.5208 6.01255 13.8013 6.06652 14.1155L8.03767 13.777ZM6.34738 11.5641C5.42 11.1317 4.38554 11.2151 3.56727 11.6924L4.57499 13.42C4.85125 13.2589 5.19412 13.2331 5.50214 13.3768L6.34738 11.5641ZM2.46232 14.7861L2.8241 17.1531L4.80114 16.8509L4.43936 14.4839L2.46232 14.7861ZM4.33228 17.8563L6.37803 16.612L5.33869 14.9033L3.29295 16.1476L4.33228 17.8563ZM3.56727 11.6924C2.92183 12.0689 2.61247 12.6715 2.48536 13.2303C2.36211 13.772 2.39268 14.3305 2.46232 14.7861L4.43936 14.4839C4.38968 14.1589 4.38934 13.8769 4.43552 13.6739C4.47785 13.4879 4.5383 13.4414 4.57499 13.42L3.56727 11.6924ZM6.06652 14.1155C6.07371 14.1574 6.07696 14.2336 5.96165 14.3856C5.83582 14.5515 5.61961 14.7324 5.33869 14.9033L6.37803 16.612C6.7718 16.3725 7.21929 16.0369 7.55507 15.5943C7.90136 15.1378 8.16413 14.5135 8.03767 13.777L6.06652 14.1155ZM15.2591 8.84473L17.189 12.9001L18.9949 12.0408L17.0651 7.98534L15.2591 8.84473ZM17.9502 14.1155C18.0042 13.8013 18.2057 13.5208 18.5146 13.3768L17.6693 11.5641C16.7428 11.9962 16.1395 12.8424 15.979 13.777L17.9502 14.1155ZM18.5146 13.3768C18.8226 13.2331 19.1655 13.2589 19.4417 13.42L20.4494 11.6924C19.6312 11.2151 18.5967 11.1317 17.6693 11.5641L18.5146 13.3768ZM19.5774 14.4839L19.2156 16.8509L21.1926 17.1531L21.5544 14.7861L19.5774 14.4839ZM20.7238 16.1476L18.678 14.9033L17.6387 16.612L19.6844 17.8563L20.7238 16.1476ZM19.4417 13.42C19.4784 13.4414 19.5389 13.4879 19.5812 13.6739C19.6274 13.8769 19.627 14.1589 19.5774 14.4839L21.5544 14.7861C21.624 14.3305 21.6546 13.772 21.5314 13.2303C21.4042 12.6715 21.0949 12.0689 20.4494 11.6924L19.4417 13.42ZM15.979 13.777C15.8526 14.5135 16.1153 15.1378 16.4616 15.5943C16.7974 16.0369 17.2449 16.3725 17.6387 16.612L18.678 14.9033C18.3971 14.7324 18.1809 14.5515 18.0551 14.3856C17.9398 14.2336 17.943 14.1574 17.9502 14.1155L15.979 13.777ZM20.3994 5.20153C18.0597 6.95899 15.1528 8 12 8V10C15.6008 10 18.9264 8.80934 21.6006 6.80067L20.3994 5.20153ZM12 8C8.84715 8 5.94033 6.95899 3.60058 5.20153L2.39942 6.80067C5.07363 8.80934 8.39921 10 12 10V8Z" fill="#0000CC"/>
</svg>
