<svg width="24" height="24" viewBox="0 0 24 24" fill="none" xmlns="http://www.w3.org/2000/svg">
<path fill-rule="evenodd" clip-rule="evenodd" d="M17.3013 2.28456C17.3502 2.23683 17.4035 2.19457 17.4603 2.15819C17.6268 2.05122 17.8149 1.99959 18.0015 2.00001C18.3048 2.00068 18.6041 2.13876 18.8001 2.40006C19.5027 3.33698 20.2047 4.03844 20.7269 4.50265C20.9916 4.73788 21.265 4.96542 21.5554 5.16847C22.0147 5.4749 22.1384 6.09535 21.8321 6.55476C21.5258 7.01429 20.9049 7.13846 20.4454 6.83211C20.3395 6.76139 20.2374 6.68513 20.1362 6.60799C19.954 6.46916 19.7 6.26571 19.3982 5.99747C19.2733 5.88643 19.14 5.7641 19 5.63046V12.0001H21C21.5523 12.0001 22 12.4478 22 13.0001V16.0001C22 16.5524 21.5523 17.0001 21 17.0001C19.8954 17.0001 19 17.8955 19 19.0001V20.0001C19 21.1047 18.1046 22.0001 17 22.0001H16C14.8954 22.0001 14 21.1047 14 20.0001V19.0001C14 17.8955 13.1046 17.0001 12 17.0001C10.8954 17.0001 10 17.8955 10 19.0001V20.0001C10 21.1047 9.10457 22.0001 8 22.0001H7C5.89543 22.0001 5 21.1047 5 20.0001V19.0001C5 17.8955 4.10457 17.0001 3 17.0001C2.44772 17.0001 2 16.5524 2 16.0001V13.0001C2 12.4478 2.44772 12.0001 3 12.0001H5V5.63093C4.86022 5.76438 4.72707 5.88656 4.60229 5.99747C4.30052 6.26571 4.0465 6.46916 3.86429 6.60799C3.76305 6.68513 3.66099 6.76139 3.55513 6.83211C3.0956 7.13846 2.47473 7.01429 2.16838 6.55476C1.86211 6.09535 1.98581 5.4749 2.44505 5.16847C2.73545 4.96542 3.00893 4.73788 3.27357 4.50265C3.79209 4.04174 4.48776 3.34695 5.18543 2.42003C5.31728 2.23492 5.51171 2.09511 5.74333 2.03359C5.82857 2.01096 5.91469 2.00003 5.99979 2C6.20904 1.99971 6.42014 2.06484 6.60043 2.20006C6.7229 2.29192 6.81831 2.40648 6.88518 2.5335C7.74462 4.02735 8.66955 4.86547 9.49853 5.3422C10.4383 5.88266 11.3275 6.00009 12 6.00009C12.6725 6.00009 13.5617 5.88269 14.5015 5.34227C15.3328 4.86422 16.2606 4.02275 17.122 2.52095C17.1688 2.43516 17.2287 2.35529 17.3013 2.28456ZM8 12.0003H7V5.94287C7.32878 6.25765 7.66328 6.52827 8 6.75996V12.0003ZM10 12.0003V7.71843C10.3494 7.82108 10.6849 7.88918 11 7.93268V12.0003H10ZM13 12.0003V7.9327C13.3151 7.8892 13.6506 7.82112 14 7.71847V12.0003H13ZM16 12.0003V6.76005C16.3367 6.52835 16.6712 6.25773 17 5.94295V12.0003H16Z" fill="#0000CC"/>
</svg>
