<svg width="24" height="24" viewBox="0 0 24 24" fill="none" xmlns="http://www.w3.org/2000/svg">
<path fill-rule="evenodd" clip-rule="evenodd" d="M15.9831 3.86178C15.9984 4.04976 15.9999 4.26843 16 4.49493V22H3.00001C2.44772 22 2.00001 21.5523 2.00001 21L2 4.56809C1.99997 4.31572 1.99994 4.06993 2.01695 3.86178C2.03563 3.63318 2.07969 3.36345 2.21799 3.09202C2.40974 2.7157 2.7157 2.40974 3.09202 2.21799C3.36345 2.07969 3.63318 2.03563 3.86178 2.01695C4.06993 1.99994 4.31573 1.99997 4.56811 2L13.4319 2C13.6843 1.99997 13.9301 1.99994 14.1382 2.01695C14.3668 2.03563 14.6366 2.07969 14.908 2.21799C15.2843 2.40974 15.5903 2.7157 15.782 3.09202C15.9203 3.36345 15.9644 3.63318 15.9831 3.86178ZM5 6C5 5.44772 5.44772 5 6 5H7C7.55228 5 8 5.44772 8 6C8 6.55228 7.55228 7 7 7H6C5.44772 7 5 6.55228 5 6ZM6 8C5.44772 8 5 8.44772 5 9C5 9.55228 5.44772 10 6 10H7C7.55228 10 8 9.55228 8 9C8 8.44772 7.55228 8 7 8H6ZM6 11C5.44772 11 5 11.4477 5 12C5 12.5523 5.44772 13 6 13H7C7.55228 13 8 12.5523 8 12C8 11.4477 7.55228 11 7 11H6ZM11 5C10.4477 5 10 5.44772 10 6C10 6.55228 10.4477 7 11 7H12C12.5523 7 13 6.55228 13 6C13 5.44772 12.5523 5 12 5H11ZM11 8C10.4477 8 10 8.44772 10 9C10 9.55228 10.4477 10 11 10H12C12.5523 10 13 9.55228 13 9C13 8.44772 12.5523 8 12 8H11ZM11 11C10.4477 11 10 11.4477 10 12C10 12.5523 10.4477 13 11 13H12C12.5523 13 13 12.5523 13 12C13 11.4477 12.5523 11 12 11H11ZM9 15C7.89543 15 7 15.8954 7 17V20H11V17C11 15.8954 10.1046 15 9 15Z" fill="#0000CC"/>
<path fill-rule="evenodd" clip-rule="evenodd" d="M21 22H17V6L19.4319 6C19.6843 5.99997 19.9301 5.99994 20.1382 6.01695C20.3668 6.03563 20.6366 6.07969 20.908 6.21799C21.2843 6.40974 21.5903 6.7157 21.782 7.09202C21.9203 7.36345 21.9644 7.63318 21.9831 7.86178C22.0001 8.06987 22 8.31569 22 8.56799L22 21C22 21.5523 21.5523 22 21 22ZM20 10C20 10.5523 19.5523 11 19 11C18.4477 11 18 10.5523 18 10C18 9.44772 18.4477 9 19 9C19.5523 9 20 9.44772 20 10ZM20 13C20 13.5523 19.5523 14 19 14C18.4477 14 18 13.5523 18 13C18 12.4477 18.4477 12 19 12C19.5523 12 20 12.4477 20 13ZM20 16C20 16.5523 19.5523 17 19 17C18.4477 17 18 16.5523 18 16C18 15.4477 18.4477 15 19 15C19.5523 15 20 15.4477 20 16Z" fill="#0000CC"/>
</svg>
