<svg width="24" height="24" viewBox="0 0 24 24" fill="none" xmlns="http://www.w3.org/2000/svg">
<path fill-rule="evenodd" clip-rule="evenodd" d="M3.86178 2.01695C4.06993 1.99994 4.31573 1.99997 4.56811 2L13.4319 2C13.6843 1.99997 13.9301 1.99994 14.1382 2.01695C14.3668 2.03563 14.6366 2.07969 14.908 2.21799C15.2843 2.40974 15.5903 2.7157 15.782 3.09202C15.9203 3.36345 15.9644 3.63318 15.9831 3.86178C16.0001 4.06994 16 4.31574 16 4.56812L16 9H13C13 8.44772 12.5523 8 12 8H11C10.4477 8 10 8.44772 10 9C10 9.20265 10.0603 9.39122 10.1639 9.54876C9.22833 10.0278 8.45333 10.7967 7.97105 11.7601C7.8636 11.3237 7.4696 11 7 11H6C5.44772 11 5 11.4477 5 12C5 12.5523 5.44772 13 6 13H7C7.21134 13 7.40736 12.9344 7.56885 12.8226L7.3129 13.6228C7.00997 13.9536 6.75108 14.3256 6.54498 14.73C6.18477 15.437 6.07968 16.1224 6.03722 16.6421C5.99987 17.0993 5.99994 17.6244 6.00001 18.1092L6.00001 21C6.00001 21.3506 6.06017 21.6872 6.17072 22H3.00001C2.44772 22 2.00001 21.5523 2.00001 21L2 4.56809C1.99997 4.31572 1.99994 4.06993 2.01695 3.86178C2.03563 3.63318 2.07969 3.36345 2.21799 3.09202C2.40974 2.7157 2.7157 2.40974 3.09202 2.21799C3.36345 2.07969 3.63318 2.03563 3.86178 2.01695ZM6 5C5.44772 5 5 5.44772 5 6C5 6.55228 5.44772 7 6 7H7C7.55228 7 8 6.55228 8 6C8 5.44772 7.55228 5 7 5H6ZM11 5C10.4477 5 10 5.44772 10 6C10 6.55228 10.4477 7 11 7H12C12.5523 7 13 6.55228 13 6C13 5.44772 12.5523 5 12 5H11ZM6 8C5.44772 8 5 8.44772 5 9C5 9.55228 5.44772 10 6 10H7C7.55228 10 8 9.55228 8 9C8 8.44772 7.55228 8 7 8H6Z" fill="#0000CC"/>
<path fill-rule="evenodd" clip-rule="evenodd" d="M16.8386 10.9999H13.1614C12.4779 10.9988 11.878 10.9979 11.3435 11.2082C10.8761 11.392 10.4624 11.6902 10.1402 12.0755C9.77171 12.5161 9.58286 13.0855 9.3677 13.7342L9.05132 14.6838C9.04601 14.6997 9.04112 14.7157 9.03665 14.7317C8.7455 14.9837 8.50385 15.2909 8.32698 15.638C8.13419 16.0164 8.06287 16.4096 8.03057 16.805C7.99997 17.1795 7.99998 17.6343 8 18.1615V21C8 21.5523 8.44772 22 9 22C9.55229 22 10 21.5523 10 21H20C20 21.5523 20.4477 22 21 22C21.5523 22 22 21.5523 22 21V18.1615C22 17.6343 22 17.1795 21.9694 16.805C21.9371 16.4096 21.8658 16.0164 21.673 15.638C21.4962 15.2909 21.2545 14.9837 20.9634 14.7317C20.9589 14.7157 20.954 14.6997 20.9487 14.6838L20.6323 13.7342C20.4171 13.0855 20.2283 12.5161 19.8598 12.0755C19.5376 11.6902 19.1239 11.392 18.6565 11.2082C18.122 10.9979 17.5221 10.9988 16.8386 10.9999ZM12.1615 14C11.8835 14 11.6256 14 11.3891 14.0045C11.5438 13.5616 11.6037 13.4431 11.6744 13.3585C11.7818 13.2301 11.9197 13.1307 12.0755 13.0694C12.2092 13.0168 12.3917 13 13.3064 13H16.6936C17.6083 13 17.7908 13.0168 17.9245 13.0694C18.0803 13.1307 18.2182 13.2301 18.3256 13.3585C18.3963 13.4431 18.4562 13.5616 18.6109 14.0045C18.3744 14 18.1165 14 17.8385 14H12.1615ZM12 18.5C12.5523 18.5 13 18.0523 13 17.5C13 16.9477 12.5523 16.5 12 16.5C11.4477 16.5 11 16.9477 11 17.5C11 18.0523 11.4477 18.5 12 18.5ZM19 17.5C19 18.0523 18.5523 18.5 18 18.5C17.4477 18.5 17 18.0523 17 17.5C17 16.9477 17.4477 16.5 18 16.5C18.5523 16.5 19 16.9477 19 17.5Z" fill="#0000CC"/>
</svg>
