<svg width="24" height="24" viewBox="0 0 24 24" fill="none" xmlns="http://www.w3.org/2000/svg">
<path fill-rule="evenodd" clip-rule="evenodd" d="M6.56811 2C6.31573 1.99997 6.06993 1.99994 5.86178 2.01695C5.63318 2.03563 5.36345 2.07969 5.09202 2.21799C4.7157 2.40974 4.40974 2.7157 4.21799 3.09202C4.07969 3.36345 4.03563 3.63318 4.01695 3.86178C3.99994 4.06993 3.99997 4.31572 4 4.56809L4.00001 21C4.00001 21.5523 4.44772 22 5.00001 22H16.1707C16.0602 21.6872 16 21.3506 16 21V15C16 13.6938 16.8348 12.5825 18 12.1707L18 4.56812C18 4.31574 18.0001 4.06994 17.9831 3.86178C17.9644 3.63318 17.9203 3.36345 17.782 3.09202C17.5903 2.7157 17.2843 2.40974 16.908 2.21799C16.6366 2.07969 16.3668 2.03563 16.1382 2.01695C15.9301 1.99994 15.6843 1.99997 15.4319 2L6.56811 2ZM7 6C7 5.44772 7.44772 5 8 5H9C9.55228 5 10 5.44772 10 6C10 6.55228 9.55228 7 9 7H8C7.44772 7 7 6.55228 7 6ZM12 6C12 5.44772 12.4477 5 13 5H14C14.5523 5 15 5.44772 15 6C15 6.55228 14.5523 7 14 7H13C12.4477 7 12 6.55228 12 6ZM7 9C7 8.44772 7.44772 8 8 8H9C9.55228 8 10 8.44772 10 9C10 9.55228 9.55228 10 9 10H8C7.44772 10 7 9.55228 7 9ZM12 9C12 8.44772 12.4477 8 13 8H14C14.5523 8 15 8.44772 15 9C15 9.55228 14.5523 10 14 10H13C12.4477 10 12 9.55228 12 9ZM7 12C7 11.4477 7.44772 11 8 11H9C9.55228 11 10 11.4477 10 12C10 12.5523 9.55228 13 9 13H8C7.44772 13 7 12.5523 7 12ZM12 12C12 11.4477 12.4477 11 13 11H14C14.5523 11 15 11.4477 15 12C15 12.5523 14.5523 13 14 13H13C12.4477 13 12 12.5523 12 12ZM11 15C9.89543 15 9 15.8954 9 17V20H13V17C13 15.8954 12.1046 15 11 15Z" fill="#0000CC"/>
<path d="M18 15C18 14.4477 18.4477 14 19 14C19.5523 14 20 14.4477 20 15V18C20 18.5523 19.5523 19 19 19C18.4477 19 18 18.5523 18 18V15Z" fill="#0000CC"/>
<path d="M20 21C20 21.5523 19.5523 22 19 22C18.4477 22 18 21.5523 18 21C18 20.4477 18.4477 20 19 20C19.5523 20 20 20.4477 20 21Z" fill="#0000CC"/>
</svg>
