<svg width="24" height="24" viewBox="0 0 24 24" fill="none" xmlns="http://www.w3.org/2000/svg">
<path d="M13.0004 3C13.0004 2.44772 12.5527 2 12.0004 2C11.4481 2 11.0004 2.44772 11.0004 3V4H10.0004C9.44813 4 9.00041 4.44772 9.00041 5C9.00041 5.55228 9.44813 6 10.0004 6H11.0004V7.375L8.24686 8.71723C7.70742 8.97932 7.23308 9.20978 6.87198 9.57332C6.55573 9.89169 6.31494 10.277 6.16734 10.7007C5.9988 11.1846 5.9995 11.712 6.0003 12.3117L6.00038 12.382L6 22H10V17C10 15.8954 10.8954 15 12 15C13.1046 15 14 15.8954 14 17V22H18V11.9999C17.9963 11.5267 17.9722 11.099 17.8335 10.7007C17.6859 10.277 17.4451 9.89169 17.1288 9.57332C16.7677 9.20978 16.2934 8.97932 15.754 8.71723L13.0004 7.375V6H14.0004C14.5527 6 15.0004 5.55228 15.0004 5C15.0004 4.44772 14.5527 4 14.0004 4H13.0004V3Z" fill="#0000CC"/>
<path d="M5 12.8821V22H3.00022C2.44793 22 2.00022 21.5523 2.00022 21L2.00011 16.8534C1.99932 16.2598 1.99863 15.7378 2.16419 15.2579C2.30919 14.8375 2.54583 14.4546 2.85699 14.1369C3.21224 13.7742 3.67943 13.5414 4.21069 13.2766L5 12.8821Z" fill="#0000CC"/>
<path d="M19 12.8818V22H21.0002C21.5525 22 22.0002 21.5523 22.0002 21L22.0003 16.8533C22.0011 16.2598 22.0018 15.7378 21.8363 15.2578C21.6913 14.8375 21.4546 14.4546 21.1435 14.1369C20.7883 13.7742 20.3211 13.5414 19.7899 13.2766L19 12.8818Z" fill="#0000CC"/>
</svg>
