<svg width="24" height="24" viewBox="0 0 24 24" fill="none" xmlns="http://www.w3.org/2000/svg">
<path d="M6 2C3.79086 2 2 3.79086 2 6V7H7.64819L8.03186 5.96088C8.30133 5.23107 8.84376 4.63449 9.54471 4.297L9.60628 4.26735C8.96059 2.92586 7.58842 2 6 2Z" fill="#0000CC"/>
<path d="M2 9H6.90973L6.18571 10.9609C6.06288 11.2936 6 11.6454 6 12V21C6 21.3506 6.06015 21.6872 6.17071 22H3.6C3.03995 22 2.75992 22 2.54601 21.891C2.35785 21.7951 2.20487 21.6422 2.10899 21.454C2 21.2401 2 20.9601 2 20.4V9Z" fill="#0000CC"/>
<path fill-rule="evenodd" clip-rule="evenodd" d="M15.4338 4.099C15.1597 3.967 14.8403 3.967 14.5662 4.099L10.4123 6.099C10.1787 6.2115 9.99788 6.41036 9.90806 6.65363L8.0619 11.6536C8.02096 11.7645 8 11.8818 8 12V21C8 21.5523 8.44772 22 9 22H13V17C13 15.8954 13.8954 15 15 15C16.1046 15 17 15.8954 17 17V22H21C21.5523 22 22 21.5523 22 21V12C22 11.8818 21.979 11.7645 21.9381 11.6536L20.0919 6.65363C20.0021 6.41036 19.8213 6.2115 19.5877 6.099L15.4338 4.099ZM13.5 9C13.5 8.44772 13.9477 8 14.5 8H15.5C16.0523 8 16.5 8.44772 16.5 9V10C16.5 10.5523 16.0523 11 15.5 11H14.5C13.9477 11 13.5 10.5523 13.5 10V9Z" fill="#0000CC"/>
</svg>
