<svg width="24" height="24" viewBox="0 0 24 24" fill="none" xmlns="http://www.w3.org/2000/svg">
<path d="M10.7642 3H12.0002C14.2094 3 16.0002 4.79086 16.0002 7V20C16.0002 20.7286 15.8054 21.4117 15.4651 22H17.2002C18.8804 22 19.7205 22 20.3622 21.673C20.9267 21.3854 21.3856 20.9265 21.6732 20.362C22.0002 19.7202 22.0002 18.8802 22.0002 17.2V13H20C19.4477 13 19 12.5523 19 12C19 11.4477 19.4477 11 20 11H22.0002V9H20C19.4477 9 19 8.55228 19 8C19 7.44772 19.4477 7 20 7H22.0002V6.8C22.0002 5.11984 22.0002 4.27976 21.6732 3.63803C21.3856 3.07354 20.9267 2.6146 20.3622 2.32698C19.7205 2 18.8804 2 17.2002 2H14.8002C13.1201 2 12.28 2 11.6383 2.32698C11.3058 2.49637 11.01 2.72519 10.7642 3Z" fill="#0000CC"/>
<path fill-rule="evenodd" clip-rule="evenodd" d="M2.32698 6.63803C2 7.27976 2 8.11984 2 9.8V17H14V9.8C14 8.11984 14 7.27976 13.673 6.63803C13.3854 6.07354 12.9265 5.6146 12.362 5.32698C11.7202 5 10.8802 5 9.2 5H6.8C5.11984 5 4.27976 5 3.63803 5.32698C3.07354 5.6146 2.6146 6.07354 2.32698 6.63803ZM8 9C8.55228 9 9 9.44772 9 10V11H10C10.5523 11 11 11.4477 11 12C11 12.5523 10.5523 13 10 13H9V14C9 14.5523 8.55228 15 8 15C7.44772 15 7 14.5523 7 14V13H6C5.44772 13 5 12.5523 5 12C5 11.4477 5.44772 11 6 11H7V10C7 9.44772 7.44772 9 8 9Z" fill="#0000CC"/>
<path d="M2.32698 20.362C2.14546 20.0057 2.06471 19.5883 2.02878 19H13.9712C13.9353 19.5883 13.8545 20.0057 13.673 20.362C13.3854 20.9265 12.9265 21.3854 12.362 21.673C11.7202 22 10.8802 22 9.2 22H6.8C5.11984 22 4.27976 22 3.63803 21.673C3.07354 21.3854 2.6146 20.9265 2.32698 20.362Z" fill="#0000CC"/>
</svg>
