<svg width="24" height="24" viewBox="0 0 24 24" fill="none" xmlns="http://www.w3.org/2000/svg">
<path d="M10.6829 2.70708C11.535 2.41021 12.4624 2.41014 13.3145 2.70689C13.8677 2.89952 14.3239 3.24039 14.7696 3.65822C15.2006 4.06229 15.6878 4.60354 16.2808 5.2623L21.7433 11.3308C22.1127 11.7413 22.0795 12.3736 21.669 12.7431C21.2585 13.1126 20.6263 13.0793 20.2568 12.6689L20 12.3836V16.2412C20 17.0461 20 17.7105 19.9558 18.2517C19.9099 18.8138 19.8113 19.3305 19.564 19.8158C19.1805 20.5684 18.5686 21.1804 17.816 21.5639C17.3306 21.8112 16.8139 21.9097 16.2518 21.9556C15.731 21.9982 15.0961 21.9998 14.3315 21.9998L11.4188 17.7926L14.5301 15.8481C14.8097 15.6733 14.9852 15.3719 14.9992 15.0425C15.0132 14.7131 14.8638 14.3979 14.6001 14.2001L10.6001 11.2001C10.1582 10.8687 9.53143 10.9582 9.20006 11.4001C8.86869 11.8419 8.95823 12.4687 9.40006 12.8001L12.2333 14.925L9.47006 16.6521C9.23825 16.7969 9.07586 17.0304 9.02066 17.2981C8.96546 17.5659 9.02227 17.8445 9.17787 18.0693L11.899 21.9998H9.75869C8.95373 21.9998 8.28937 21.9999 7.74818 21.9556C7.18609 21.9097 6.66938 21.8112 6.18405 21.5639C5.4314 21.1804 4.81948 20.5684 4.43598 19.8158C4.18869 19.3305 4.09013 18.8138 4.0442 18.2517C3.99998 17.7105 4 17.0461 4.00001 16.2411L4.00001 12.3835L3.74335 12.6687C3.37392 13.0793 2.74164 13.1126 2.3311 12.7432C1.92056 12.3737 1.88724 11.7415 2.25667 11.3309L7.71707 5.26291C8.30993 4.60406 8.79701 4.06276 9.22797 3.65863C9.67361 3.24074 10.1298 2.8998 10.6829 2.70708Z" fill="#0000CC"/>
</svg>
