<svg width="24" height="24" viewBox="0 0 24 24" fill="none" xmlns="http://www.w3.org/2000/svg">
<path fill-rule="evenodd" clip-rule="evenodd" d="M8 2C8.55228 2 9 2.44772 9 3V3.41667C9 3.96895 8.55228 4.41667 8 4.41667C7.44772 4.41667 7 3.96895 7 3.41667V3C7 2.44772 7.44772 2 8 2ZM3.54289 3.54289C3.93342 3.15237 4.56658 3.15237 4.95711 3.54289L5.37377 3.95956C5.7643 4.35008 5.7643 4.98325 5.37377 5.37377C4.98325 5.7643 4.35008 5.7643 3.95956 5.37377L3.54289 4.95711C3.15237 4.56658 3.15237 3.93342 3.54289 3.54289ZM12.4571 3.54289C12.8476 3.93342 12.8476 4.56658 12.4571 4.95711L12.0404 5.37377C11.6499 5.7643 11.0168 5.7643 10.6262 5.37377C10.2357 4.98325 10.2357 4.35008 10.6262 3.95956L11.0429 3.54289C11.4334 3.15237 12.0666 3.15237 12.4571 3.54289ZM2 8C2 7.44772 2.44772 7 3 7H3.41667C3.96895 7 4.41667 7.44772 4.41667 8C4.41667 8.55228 3.96895 9 3.41667 9H3C2.44772 9 2 8.55228 2 8ZM12.9082 7.45743C13.2937 7.33804 13.7063 7.33804 14.0918 7.45743C14.368 7.543 14.5827 7.68769 14.754 7.8239C14.9091 7.94723 15.0788 8.10561 15.2518 8.2671L21.6823 14.2689C22.0861 14.6458 22.1079 15.2786 21.7311 15.6823C21.3542 16.0861 20.7214 16.1079 20.3177 15.7311L20 15.4346L20 19.4319C20 19.6843 20.0001 19.9301 19.9831 20.1382C19.9644 20.3668 19.9203 20.6366 19.782 20.908C19.5903 21.2843 19.2843 21.5903 18.908 21.782C18.6366 21.9203 18.3668 21.9644 18.1382 21.9831C17.9301 22.0001 17.6843 22 17.4319 22H9.56808C9.31571 22 9.06992 22.0001 8.86177 21.9831C8.63318 21.9644 8.36344 21.9203 8.09202 21.782C7.7157 21.5903 7.40973 21.2843 7.21799 20.908C7.07969 20.6366 7.03562 20.3668 7.01695 20.1382C6.99994 19.9301 6.99997 19.6843 7 19.4319L7 15.4346L6.68232 15.7311C6.27857 16.1079 5.64578 16.0861 5.26894 15.6823C4.89211 15.2786 4.91393 14.6458 5.31768 14.2689L11.7482 8.26709C11.9212 8.1056 12.0909 7.94723 12.246 7.8239C12.4173 7.68769 12.632 7.543 12.9082 7.45743ZM5.37377 10.6262C5.7643 11.0168 5.7643 11.6499 5.37377 12.0404L4.95711 12.4571C4.56658 12.8476 3.93342 12.8476 3.54289 12.4571C3.15237 12.0666 3.15237 11.4334 3.54289 11.0429L3.95956 10.6262C4.35008 10.2357 4.98325 10.2357 5.37377 10.6262Z" fill="#0000CC"/>
<path d="M10.7077 6.70674L6.70674 10.7077C5.69726 10.2247 5 9.19377 5 8C5 6.34315 6.34315 5 8 5C9.19377 5 10.2247 5.69726 10.7077 6.70674Z" fill="#0000CC"/>
</svg>
