<svg width="24" height="24" viewBox="0 0 24 24" fill="none" xmlns="http://www.w3.org/2000/svg">
<path fill-rule="evenodd" clip-rule="evenodd" d="M10.6829 2.74273C11.535 2.44585 12.4624 2.44578 13.3145 2.74253C13.8677 2.93517 14.3239 3.27604 14.7696 3.69387C15.2006 4.09793 15.6878 4.63917 16.2808 5.29792L21.7433 11.3665C22.1127 11.7769 22.0795 12.4092 21.669 12.7787C21.2585 13.1482 20.6263 13.115 20.2568 12.7045L20 12.4193V14.1708C19.6078 14.3092 19.2382 14.5317 18.9191 14.839L16.8335 16.8474C15.6378 15.9219 13.9118 16.0273 12.839 17.1413C11.6898 18.3348 11.7256 20.2339 12.9191 21.3832L13.5965 22.0355H9.75869C8.95373 22.0355 8.28937 22.0355 7.74818 21.9913C7.18609 21.9454 6.66938 21.8468 6.18405 21.5995C5.4314 21.216 4.81948 20.6041 4.43598 19.8514C4.18869 19.3661 4.09013 18.8494 4.0442 18.2873C3.99998 17.7461 4 17.0817 4.00001 16.2768L4.00001 12.4192L3.74335 12.7044C3.37392 13.1149 2.74164 13.1482 2.3311 12.7788C1.92056 12.4094 1.88724 11.7771 2.25667 11.3666L7.71707 5.29855C8.30993 4.6397 8.79701 4.09841 9.22797 3.69428C9.67361 3.27638 10.1298 2.93544 10.6829 2.74273ZM13 11C13 10.4477 12.5523 10 12 10C11.4477 10 11 10.4477 11 11V12H10C9.44772 12 9 12.4477 9 13C9 13.5523 9.44772 14 10 14H11V15C11 15.5523 11.4477 16 12 16C12.5523 16 13 15.5523 13 15V14H14C14.5523 14 15 13.5523 15 13C15 12.4477 14.5523 12 14 12H13V11Z" fill="#0000CC"/>
<path d="M21.6936 17.7203C22.0915 17.3372 22.1034 16.7042 21.7203 16.3064C21.3372 15.9085 20.7042 15.8966 20.3064 16.2797L16.8462 19.6117L15.6936 18.5019C15.2958 18.1188 14.6628 18.1308 14.2797 18.5286C13.8966 18.9264 13.9085 19.5595 14.3064 19.9425L16.1525 21.7203C16.5398 22.0932 17.1525 22.0932 17.5398 21.7203L21.6936 17.7203Z" fill="#0000CC"/>
</svg>
