<svg width="24" height="24" viewBox="0 0 24 24" fill="none" xmlns="http://www.w3.org/2000/svg">
<path d="M16 3C16 2.44772 15.5523 2 15 2C14.4477 2 14 2.44772 14 3V21C14 21.5523 14.4477 22 15 22C15.5523 22 16 21.5523 16 21V10C16.3789 10 16.7579 9.99998 17.1368 9.99997C17.9018 9.99993 18.6669 9.9999 19.4319 10C19.6843 10 19.9301 10.0001 20.1382 9.98305C20.3668 9.96438 20.6366 9.92031 20.908 9.78201C21.2843 9.59027 21.5903 9.2843 21.782 8.90798C21.9203 8.63656 21.9644 8.36682 21.9831 8.13823C22.0001 7.93008 22 7.6843 22 7.43193V6.5681C22 6.31573 22.0001 6.06992 21.9831 5.86177C21.9644 5.63318 21.9203 5.36344 21.782 5.09202C21.5903 4.7157 21.2843 4.40973 20.908 4.21799C20.6366 4.07969 20.3668 4.03562 20.1382 4.01695C19.9301 3.99994 19.6843 3.99997 19.4319 4C18.6669 4.00009 17.9018 4.00006 17.1368 4.00003C16.7579 4.00001 16.3789 4 16 4V3Z" fill="#0000CC"/>
<path d="M10.6829 2.70708C11.1094 2.5585 11.5547 2.48426 12 2.48438V21.9998H9.75869C8.95373 21.9998 8.28937 21.9999 7.74818 21.9556C7.18609 21.9097 6.66938 21.8112 6.18405 21.5639C5.4314 21.1804 4.81948 20.5684 4.43598 19.8158C4.18869 19.3305 4.09013 18.8138 4.0442 18.2517C3.99998 17.7105 4 17.0461 4.00001 16.2411L4.00001 12.3835L3.74335 12.6687C3.37392 13.0793 2.74164 13.1126 2.3311 12.7432C1.92056 12.3737 1.88724 11.7415 2.25667 11.3309L7.71708 5.2629C8.30993 4.60405 8.79701 4.06276 9.22797 3.65863C9.67361 3.24074 10.1298 2.8998 10.6829 2.70708Z" fill="#0000CC"/>
</svg>
