<svg width="24" height="24" viewBox="0 0 24 24" fill="none" xmlns="http://www.w3.org/2000/svg">
<path d="M13.3145 2.7025C12.4624 2.40574 11.535 2.40581 10.6829 2.70269C10.1298 2.8954 9.67361 3.23634 9.22797 3.65424C8.79701 4.05837 8.30993 4.59966 7.71707 5.25851L2.25667 11.3265C1.88724 11.7371 1.92056 12.3694 2.3311 12.7388C2.74164 13.1082 3.37392 13.0749 3.74335 12.6643L4.00001 12.3791L4.00001 16.2367C4 17.0417 3.99998 17.7061 4.0442 18.2473C4.09013 18.8094 4.18869 19.3261 4.43598 19.8114C4.81948 20.564 5.4314 21.176 6.18405 21.5595C6.66938 21.8068 7.18609 21.9053 7.74818 21.9512C8.28937 21.9955 8.95373 21.9955 9.75869 21.9954H12.185C11.4456 20.209 11.8034 17.6967 13.0001 16.5C13.0001 14 15.5148 12 18.0001 12C18.6252 12 19.3257 12.1353 20 12.3922V12.3792L20.0179 12.3991C20.4157 12.552 20.804 12.7474 21.162 12.9824C21.3447 12.9525 21.5212 12.8717 21.669 12.7387C22.0795 12.3692 22.1127 11.7369 21.7433 11.3264L16.2808 5.25788C15.6878 4.59913 15.2006 4.05789 14.7696 3.65383C14.3239 3.236 13.8677 2.89513 13.3145 2.7025Z" fill="#0000CC"/>
<path fill-rule="evenodd" clip-rule="evenodd" d="M18 14C16.3431 14 15 15.3431 15 17V17.2679C14.6208 17.4869 14.3216 17.8257 14.1522 18.2346C14.0553 18.4687 14.0248 18.6944 14.0118 18.8848C13.9999 19.0599 13.9999 19.2665 14 19.4773C14 19.4937 14 19.5101 14 19.5265C14 19.7365 14 19.9412 14.0118 20.1152C14.0248 20.3056 14.0553 20.5313 14.1522 20.7654C14.3552 21.2554 14.7446 21.6448 15.2346 21.8478C15.4687 21.9447 15.6944 21.9752 15.8848 21.9882C16.0589 22 16.2635 22 16.4735 22H19.5265C19.7365 22 19.9411 22 20.1152 21.9882C20.3056 21.9752 20.5313 21.9447 20.7654 21.8478C21.2554 21.6448 21.6448 21.2554 21.8478 20.7654C21.9447 20.5313 21.9752 20.3056 21.9882 20.1152C22.0007 19.9308 22.0004 19.7458 22.0001 19.5609C22.0001 19.5318 22 19.5026 22 19.4735C22 19.2635 22 19.0589 21.9882 18.8848C21.9752 18.6944 21.9447 18.4687 21.8478 18.2346C21.6784 17.8257 21.3792 17.4869 21 17.2679V17C21 15.3431 19.6569 14 18 14ZM18 16C18.5523 16 19 16.4477 19 17L17 17C17 16.4477 17.4477 16 18 16Z" fill="#0000CC"/>
</svg>
