<svg width="24" height="24" viewBox="0 0 24 24" fill="none" xmlns="http://www.w3.org/2000/svg">
<path fill-rule="evenodd" clip-rule="evenodd" d="M10.6829 2.74273C11.535 2.44585 12.4624 2.44578 13.3145 2.74253C13.8677 2.93517 14.3239 3.27604 14.7696 3.69387C15.2006 4.09793 15.6878 4.63917 16.2808 5.29792L21.7433 11.3665C22.1127 11.7769 22.0795 12.4092 21.669 12.7787C21.2585 13.1482 20.6263 13.115 20.2568 12.7045L20 12.4193V14.1708C19.6401 14.2978 19.2996 14.4954 19 14.7638C17.8221 13.7084 16.0106 13.7467 14.8787 14.8787C13.7467 16.0106 13.7084 17.8221 14.7638 19C14.005 19.847 13.8115 21.0215 14.1836 22.0355H9.75869C8.95373 22.0355 8.28937 22.0355 7.74818 21.9913C7.18609 21.9454 6.66938 21.8468 6.18405 21.5995C5.4314 21.216 4.81948 20.6041 4.43598 19.8514C4.18869 19.3661 4.09013 18.8494 4.0442 18.2873C3.99998 17.7461 4 17.0817 4.00001 16.2768L4.00001 12.4192L3.74335 12.7044C3.37392 13.1149 2.74164 13.1482 2.3311 12.7788C1.92056 12.4094 1.88724 11.7771 2.25667 11.3666L7.71707 5.29855C8.30993 4.6397 8.79701 4.09841 9.22797 3.69428C9.67361 3.27638 10.1298 2.93544 10.6829 2.74273ZM13 12C13 11.4477 12.5523 11 12 11C11.4477 11 11 11.4477 11 12V13H10C9.44772 13 9 13.4477 9 14C9 14.5523 9.44772 15 10 15H11V16C11 16.5523 11.4477 17 12 17C12.5523 17 13 16.5523 13 16V15H14C14.5523 15 15 14.5523 15 14C15 13.4477 14.5523 13 14 13H13V12Z" fill="#0000CC"/>
<path d="M17.7071 16.2929C17.3166 15.9024 16.6834 15.9024 16.2929 16.2929C15.9024 16.6834 15.9024 17.3166 16.2929 17.7071L17.5858 19L16.2929 20.2929C15.9024 20.6834 15.9024 21.3166 16.2929 21.7071C16.6834 22.0976 17.3166 22.0976 17.7071 21.7071L19 20.4142L20.2929 21.7071C20.6834 22.0976 21.3166 22.0976 21.7071 21.7071C22.0976 21.3166 22.0976 20.6834 21.7071 20.2929L20.4142 19L21.7071 17.7071C22.0976 17.3166 22.0976 16.6834 21.7071 16.2929C21.3166 15.9024 20.6834 15.9024 20.2929 16.2929L19 17.5858L17.7071 16.2929Z" fill="#0000CC"/>
</svg>
