<svg width="24" height="24" viewBox="0 0 24 24" fill="none" xmlns="http://www.w3.org/2000/svg">
<path d="M13.3145 2.70689C12.4624 2.41014 11.535 2.41021 10.6829 2.70708C10.1298 2.8998 9.67361 3.24074 9.22797 3.65863C8.79701 4.06276 8.30993 4.60405 7.71707 5.2629L2.25667 11.3309C1.88724 11.7415 1.92056 12.3737 2.3311 12.7432C2.74164 13.1126 3.37392 13.0793 3.74335 12.6687L4.00001 12.3835L4.00001 16.2411C4 17.0461 3.99998 17.7105 4.0442 18.2517C4.09013 18.8138 4.18869 19.3305 4.43598 19.8158C4.81948 20.5684 5.4314 21.1804 6.18405 21.5639C6.66938 21.8112 7.18609 21.9097 7.74818 21.9556C8.28937 21.9999 8.95373 21.9998 9.75869 21.9998H14.2734C13.4223 20.9694 13 19.7017 13 18.4445C13 17.0356 13.5302 15.6139 14.5998 14.5273C14.9684 14.1528 15.4645 13.9429 15.9782 13.9308C16.2751 13.4087 16.6795 12.8999 17.2282 12.4514C18.026 11.7993 19.1887 11.8602 19.9142 12.592C19.9426 12.6207 19.9712 12.6486 20 12.6759V12.3836L20.2568 12.6689C20.6263 13.0793 21.2585 13.1126 21.669 12.7431C22.0795 12.3736 22.1127 11.7413 21.7433 11.3308L16.2808 5.2623C15.6878 4.60354 15.2006 4.06229 14.7696 3.65822C14.3239 3.24039 13.8677 2.89952 13.3145 2.70689Z" fill="#0000CC"/>
<path d="M16.0251 20.9586C17.392 22.3471 19.608 22.3471 20.9749 20.9586C21.6583 20.2643 22 19.3544 22 18.4444C22 17.5345 21.6583 16.6246 20.9749 15.9303C20.6521 15.6024 20.2784 15.3523 19.8812 15.0866C19.4353 14.7882 18.9598 14.4701 18.4938 14C17.4063 14.8889 17.1875 16.2222 17.1875 17.1111C16.3125 16.6666 16.0251 15.9303 16.0251 15.9303C15.3417 16.6246 15 17.5345 15 18.4444C15 19.3544 15.3417 20.2643 16.0251 20.9586Z" fill="#0000CC"/>
</svg>
