<svg width="24" height="24" viewBox="0 0 24 24" fill="none" xmlns="http://www.w3.org/2000/svg">
<path fill-rule="evenodd" clip-rule="evenodd" d="M9.32698 3.63803C9 4.27976 9 5.11984 9 6.8V8.38293C9.22377 8.41112 9.44573 8.45831 9.66346 8.5245C10.2612 8.70621 10.6941 9.00455 10.9603 9.21101C11.1771 9.37917 11.3958 9.57811 11.5494 9.71784C12.033 10.1579 12.5168 10.5979 13.0007 11.0377C13.0002 11.0252 13 11.0126 13 11C13 10.4477 13.4477 10 14 10H17C17.5523 10 18 10.4477 18 11C18 11.5523 17.5523 12 17 12H14.0593L16.018 13.7803C17.244 14.8948 17.3344 16.7921 16.2198 18.0181C15.8741 18.3984 15.453 18.6695 15 18.8291L15 19.4655C15.0001 19.6924 15.0003 20.0097 14.9764 20.3012C14.9476 20.6544 14.8697 21.2162 14.564 21.8161C14.5323 21.8784 14.499 21.9397 14.4642 22H17.2C18.8802 22 19.7202 22 20.362 21.673C20.9265 21.3854 21.3854 20.9265 21.673 20.362C22 19.7202 22 18.8802 22 17.2V6.8C22 5.11984 22 4.27976 21.673 3.63803C21.3854 3.07354 20.9265 2.6146 20.362 2.32698C19.7202 2 18.8802 2 17.2 2H13.8C12.1198 2 11.2798 2 10.638 2.32698C10.0735 2.6146 9.6146 3.07354 9.32698 3.63803ZM13 7C13 6.44772 13.4477 6 14 6H17C17.5523 6 18 6.44772 18 7C18 7.55228 17.5523 8 17 8H14C13.4477 8 13 7.55228 13 7Z" fill="#0000CC"/>
<path d="M9.08173 10.438C8.70248 10.3227 8.29753 10.3227 7.91829 10.438C7.6471 10.5205 7.43519 10.6597 7.26539 10.7914C7.11198 10.9104 6.94403 11.0631 6.7732 11.2185C5.78408 12.1179 4.7948 13.0172 3.80553 13.9164C3.31279 14.3643 2.82005 14.8122 2.32733 15.2602C1.91868 15.6317 1.88856 16.2641 2.26007 16.6728C2.63157 17.0814 3.26402 17.1115 3.67268 16.74L4.00001 16.4425L4 19.432C3.99997 19.6844 3.99995 19.9302 4.01695 20.1383C4.03563 20.3669 4.0797 20.6367 4.21799 20.9081C4.40974 21.2844 4.7157 21.5904 5.09203 21.7821C5.36345 21.9204 5.63318 21.9645 5.86178 21.9832C6.06993 22.0002 6.31571 22.0001 6.56809 22.0001H10.4319C10.6843 22.0001 10.9301 22.0002 11.1382 21.9832C11.3668 21.9645 11.6366 21.9204 11.908 21.7821C12.2843 21.5904 12.5903 21.2844 12.782 20.9081C12.9203 20.6367 12.9644 20.3669 12.9831 20.1383C13.0001 19.9302 13 19.6844 13 19.432L13 16.4425L13.3273 16.74C13.736 17.1115 14.3684 17.0814 14.7399 16.6728C15.1115 16.2641 15.0813 15.6317 14.6727 15.2602L10.2268 11.2185C10.056 11.0631 9.88805 10.9104 9.73462 10.7914C9.56482 10.6597 9.35291 10.5205 9.08173 10.438Z" fill="#0000CC"/>
</svg>
