<svg width="24" height="24" viewBox="0 0 24 24" fill="none" xmlns="http://www.w3.org/2000/svg">
<path fill-rule="evenodd" clip-rule="evenodd" d="M10.6829 2.74273C11.535 2.44585 12.4624 2.44578 13.3145 2.74253C13.8677 2.93517 14.3239 3.27604 14.7696 3.69387C15.2006 4.09793 15.6878 4.63917 16.2808 5.29792L21.7433 11.3665C22.1127 11.7769 22.0795 12.4092 21.669 12.7787C21.5428 12.8923 21.3956 12.9679 21.2415 13.0061C20.692 12.3888 19.8914 12 19 12C17.3431 12 16 13.3431 16 15V21C16 21.3497 16.0598 21.6855 16.1699 21.9976C15.644 22.0355 15.0061 22.0355 14.2413 22.0355H9.75869C8.95373 22.0355 8.28937 22.0355 7.74818 21.9913C7.18609 21.9454 6.66938 21.8468 6.18405 21.5995C5.4314 21.216 4.81948 20.6041 4.43598 19.8514C4.18869 19.3661 4.09013 18.8494 4.0442 18.2873C3.99998 17.7461 4 17.0817 4.00001 16.2768L4.00001 12.4192L3.74335 12.7044C3.37392 13.1149 2.74164 13.1482 2.3311 12.7788C1.92056 12.4094 1.88724 11.7771 2.25667 11.3666L7.71707 5.29855C8.30993 4.6397 8.79701 4.09841 9.22797 3.69428C9.67361 3.27638 10.1298 2.93544 10.6829 2.74273ZM13 12C13 11.4477 12.5523 11 12 11C11.4477 11 11 11.4477 11 12V13H10C9.44772 13 9 13.4477 9 14C9 14.5523 9.44772 15 10 15H11V16C11 16.5523 11.4477 17 12 17C12.5523 17 13 16.5523 13 16V15H14C14.5523 15 15 14.5523 15 14C15 13.4477 14.5523 13 14 13H13V12Z" fill="#0000CC"/>
<path d="M19 14C18.4477 14 18 14.4477 18 15V18C18 18.5523 18.4477 19 19 19C19.5523 19 20 18.5523 20 18V15C20 14.4477 19.5523 14 19 14Z" fill="#0000CC"/>
<path d="M19 22C19.5523 22 20 21.5523 20 21C20 20.4477 19.5523 20 19 20C18.4477 20 18 20.4477 18 21C18 21.5523 18.4477 22 19 22Z" fill="#0000CC"/>
</svg>
