<svg width="24" height="24" viewBox="0 0 24 24" fill="none" xmlns="http://www.w3.org/2000/svg">
<path fill-rule="evenodd" clip-rule="evenodd" d="M13.3145 2.74253C12.4624 2.44578 11.535 2.44585 10.6829 2.74273C10.1298 2.93544 9.67361 3.27638 9.22797 3.69428C8.79701 4.09841 8.30993 4.6397 7.71707 5.29855L2.25667 11.3666C1.88724 11.7771 1.92056 12.4094 2.3311 12.7788C2.74164 13.1482 3.37392 13.1149 3.74335 12.7044L4.00001 12.4192L4.00001 15.7494C4.32311 15.6838 4.65753 15.6494 4.99999 15.6494C6.36272 15.6494 7.59812 16.1946 8.5 17.0787C9.40187 16.1946 10.6373 15.6494 12 15.6494C13.3627 15.6494 14.5981 16.1946 15.5 17.0787C16.4019 16.1946 17.6373 15.6494 19 15.6494C19.3425 15.6494 19.6769 15.6838 20 15.7494V12.4193L20.2568 12.7045C20.6263 13.115 21.2585 13.1482 21.669 12.7787C22.0795 12.4092 22.1127 11.7769 21.7433 11.3665L16.2808 5.29792C15.6878 4.63917 15.2006 4.09793 14.7696 3.69387C14.3239 3.27604 13.8677 2.93517 13.3145 2.74253ZM10.109 9.54601C10 9.75992 10 10.0399 10 10.6V11.4C10 11.9601 10 12.2401 10.109 12.454C10.2049 12.6422 10.3578 12.7951 10.546 12.891C10.7599 13 11.0399 13 11.6 13H12.4C12.9601 13 13.2401 13 13.454 12.891C13.6422 12.7951 13.7951 12.6422 13.891 12.454C14 12.2401 14 11.9601 14 11.4V10.6C14 10.0399 14 9.75992 13.891 9.54601C13.7951 9.35785 13.6422 9.20487 13.454 9.10899C13.2401 9 12.9601 9 12.4 9H11.6C11.0399 9 10.7599 9 10.546 9.10899C10.3578 9.20487 10.2049 9.35785 10.109 9.54601Z" fill="#0000CC"/>
<path d="M19.3116 19.653C19.2162 19.6637 19.0652 19.715 18.8285 19.8686C18.6029 20.0151 18.375 20.2025 18.0911 20.436L18.0649 20.4575C17.7734 20.6973 17.4148 20.9923 17.027 21.2204C16.6467 21.4442 16.1633 21.6496 15.6001 21.6496C15.0187 21.6496 14.5264 21.4216 14.1504 21.1861C13.7894 20.96 13.4501 20.6704 13.1757 20.4362L13.1511 20.4152C12.8464 20.1552 12.6121 19.958 12.3882 19.8177C12.1684 19.68 12.0523 19.6592 12.0001 19.6592C11.948 19.6592 11.8318 19.68 11.6121 19.8177C11.3881 19.958 11.1539 20.1552 10.8492 20.4152L10.8245 20.4362C10.5502 20.6704 10.2109 20.96 9.8499 21.1861C9.47386 21.4216 8.98159 21.6496 8.40014 21.6496C7.83696 21.6496 7.35356 21.4442 6.97325 21.2204C6.58552 20.9923 6.22692 20.6973 5.93541 20.4575L5.90916 20.436C5.6253 20.2025 5.39738 20.0151 5.17174 19.8686C4.93512 19.715 4.7841 19.6637 4.68866 19.653C4.5163 19.6337 4.33294 19.7029 4.13212 19.8731C4.02365 19.9651 3.92498 20.0719 3.84482 20.1897C3.55166 20.6525 2.93964 20.7937 2.47304 20.5042C2.0037 20.2131 1.85922 19.5967 2.15033 19.1273C2.19961 19.048 2.25146 18.9738 2.3449 18.8569C2.45656 18.7173 2.62205 18.5313 2.83882 18.3475C3.26156 17.9892 3.9782 17.5608 4.91162 17.6655C5.44656 17.7255 5.90233 17.9584 6.2609 18.1912C6.58604 18.4023 6.89932 18.6604 7.16074 18.8757C7.4956 19.1516 7.74879 19.3563 7.98737 19.4966C8.20387 19.624 8.32969 19.6496 8.40014 19.6496C8.4523 19.6496 8.56845 19.6288 8.78821 19.4912C9.01213 19.3509 9.24641 19.1537 9.55106 18.8937L9.57574 18.8726C9.85008 18.6385 10.1894 18.3489 10.5504 18.1228C10.9264 17.8872 11.4187 17.6592 12.0001 17.6592C12.5816 17.6592 13.0739 17.8872 13.4499 18.1228C13.8108 18.3489 14.1502 18.6385 14.4245 18.8726L14.4492 18.8937C14.7539 19.1537 14.9881 19.3509 15.2121 19.4912C15.4318 19.6288 15.548 19.6496 15.6001 19.6496C15.6706 19.6496 15.7964 19.624 16.0129 19.4966C16.2515 19.3563 16.5047 19.1516 16.8395 18.8757C17.101 18.6604 17.4142 18.4023 17.7394 18.1912C18.0979 17.9584 18.5537 17.7255 19.0887 17.6655C20.0221 17.5608 20.7387 17.9892 21.1614 18.3475C21.4242 18.5703 21.6672 18.8337 21.8499 19.1273C22.1411 19.5967 21.9966 20.2131 21.5272 20.5042C21.0606 20.7937 20.4486 20.6525 20.1554 20.1897C19.9756 19.9256 19.6567 19.6143 19.3116 19.653Z" fill="#0000CC"/>
</svg>
