<svg width="24" height="24" viewBox="0 0 24 24" fill="none" xmlns="http://www.w3.org/2000/svg">
<path d="M11 12C11 11.4477 11.4477 11 12 11C12.5523 11 13 11.4477 13 12H11Z" fill="#0000CC"/>
<path fill-rule="evenodd" clip-rule="evenodd" d="M10.6933 2.24116C11.5491 2.00946 12.451 2.00946 13.3068 2.24116C14.2801 2.50468 15.1341 3.16958 16.3731 4.13421L19.2496 6.37159C20.054 6.99674 20.6104 7.42922 21.02 7.98303C21.3816 8.472 21.6511 9.02285 21.815 9.60852C22.0007 10.2719 22.0004 10.9766 22.0001 11.9953L22.0001 14.6429C22.0001 15.7266 22.0001 16.6007 21.9422 17.3086C21.8827 18.0374 21.7569 18.6776 21.4551 19.2699C20.9757 20.2107 20.2108 20.9756 19.27 21.455C18.6777 21.7568 18.0375 21.8826 17.3087 21.9421C16.6008 22 15.7266 21.9999 14.6429 21.9999H9.35712C8.2734 21.9999 7.39929 22 6.69143 21.9421C5.96259 21.8826 5.3224 21.7568 4.73011 21.455C3.7893 20.9756 3.02439 20.2107 2.54503 19.2699C2.24324 18.6776 2.11743 18.0374 2.05788 17.3086C2.00004 16.6007 2.00005 15.7265 2.00006 14.6427L2.00003 11.9953C1.99969 10.9766 1.99945 10.2719 2.18513 9.60852C2.34906 9.02285 2.61847 8.472 2.98013 7.98303C3.38974 7.42921 3.94617 6.99674 4.75051 6.37158L7.62707 4.1342C8.86605 3.16957 9.72004 2.50468 10.6933 2.24116ZM12 9C10.3431 9 9 10.3431 9 12V12.2676C8.4022 12.6134 8 13.2597 8 14V15C8 16.1046 8.89543 17 10 17H14C15.1046 17 16 16.1046 16 15V14C16 13.2597 15.5978 12.6134 15 12.2676V12C15 10.3431 13.6569 9 12 9Z" fill="#0000CC"/>
</svg>
