<svg width="24" height="24" viewBox="0 0 24 24" fill="none" xmlns="http://www.w3.org/2000/svg">
<path fill-rule="evenodd" clip-rule="evenodd" d="M4.39018 3.01015C4.5155 2.99991 4.65776 2.99996 4.77687 3.00001H6.77871C6.89782 2.99996 7.04008 2.99991 7.1654 3.01015C7.31062 3.02201 7.51861 3.05245 7.73655 3.1635C8.0188 3.30731 8.24827 3.53678 8.39208 3.81903C8.50313 4.03697 8.53357 4.24496 8.54543 4.39018C8.55567 4.5155 8.55562 4.65776 8.55557 4.77687L8.55557 8.64654L11.644 5.66844C12.8186 4.53572 14.7778 5.36818 14.7778 7.00001V8.84786L16.6885 7.23572C16.7031 7.22339 16.7181 7.21148 16.7333 7.20001L17.8 6.40001C19.1185 5.41116 21 6.35192 21 8.00001L21 18.4321C21 18.6844 21.0001 18.9302 20.9831 19.1382C20.9644 19.3668 20.9203 19.6366 20.782 19.908C20.5903 20.2843 20.2843 20.5903 19.908 20.782C19.6366 20.9203 19.3668 20.9644 19.1382 20.9831C18.9302 21.0001 18.6843 21 18.4321 21H5.56795C5.31567 21 5.06986 21.0001 4.86178 20.9831C4.63319 20.9644 4.36345 20.9203 4.09203 20.782C3.71571 20.5903 3.40975 20.2843 3.218 19.908C3.0797 19.6366 3.03563 19.3668 3.01696 19.1382C2.99995 18.9301 2.99998 18.6843 3.00001 18.4319L3.00001 4.77687C2.99996 4.65776 2.99991 4.5155 3.01015 4.39018C3.02201 4.24496 3.05245 4.03697 3.1635 3.81903C3.30731 3.53678 3.53678 3.30731 3.81903 3.1635C4.03697 3.05245 4.24496 3.02201 4.39018 3.01015ZM6.5 15C5.94772 15 5.5 15.4477 5.5 16C5.5 16.5523 5.94772 17 6.5 17H7.5C8.05228 17 8.5 16.5523 8.5 16C8.5 15.4477 8.05228 15 7.5 15H6.5ZM11.5 15C10.9477 15 10.5 15.4477 10.5 16C10.5 16.5523 10.9477 17 11.5 17H12.5C13.0523 17 13.5 16.5523 13.5 16C13.5 15.4477 13.0523 15 12.5 15H11.5ZM15.5 16C15.5 15.4477 15.9477 15 16.5 15H17.5C18.0523 15 18.5 15.4477 18.5 16C18.5 16.5523 18.0523 17 17.5 17H16.5C15.9477 17 15.5 16.5523 15.5 16Z" fill="#0000CC"/>
</svg>
