<svg width="24" height="24" viewBox="0 0 24 24" fill="none" xmlns="http://www.w3.org/2000/svg">
<path d="M3 17.8V5.4C3 4.55992 3 4.13988 3.16349 3.81901C3.3073 3.53677 3.53677 3.3073 3.81901 3.16349C4.13988 3 4.55992 3 5.4 3H6.6C7.44008 3 7.86012 3 8.18099 3.16349C8.46323 3.3073 8.6927 3.53677 8.83651 3.81901C9 4.13988 9 4.55992 9 5.4V8.5L10.9029 6.59706C12.1881 5.31193 12.8306 4.66936 13.3823 4.62594C13.861 4.58827 14.3288 4.78203 14.6406 5.14715C15 5.56794 15 6.47667 15 8.29411V8.5L16.9029 6.59706C18.1881 5.31193 18.8306 4.66936 19.3823 4.62594C19.861 4.58827 20.3288 4.78203 20.6406 5.14715C21 5.56794 21 6.47667 21 8.29411V17.8C21 18.9201 21 19.4802 20.782 19.908C20.5903 20.2843 20.2843 20.5903 19.908 20.782C19.4802 21 18.9201 21 17.8 21H6.2C5.0799 21 4.51984 21 4.09202 20.782C3.71569 20.5903 3.40973 20.2843 3.21799 19.908C3 19.4802 3 18.9201 3 17.8Z" fill="#0000CC"/>
</svg>
