<svg width="24" height="24" viewBox="0 0 24 24" fill="none" xmlns="http://www.w3.org/2000/svg">
<path fill-rule="evenodd" clip-rule="evenodd" d="M11 2C10.4477 2 10 2.44772 10 3V7.5188C10.3111 7.56368 10.6175 7.65067 10.9106 7.77977C11.7273 8.13942 12.178 8.7348 12.3479 8.97023C12.5058 9.189 12.6526 9.43786 12.7406 9.58715L13.2118 10.3845C13.3948 10.1504 13.6798 10 14 10C14.5523 10 15 10.4477 15 11C15 11.4982 14.6357 11.9113 14.159 11.9874L17.2936 17.2922C17.4745 17.1116 17.7242 17 18 17C18.5523 17 19 17.4477 19 18C19 18.4553 18.6957 18.8396 18.2794 18.9604L18.5828 19.4739C19.0389 20.2457 19.1214 21.1717 18.8285 22H21C21.5523 22 22 21.5523 22 21V7C22 6.44772 21.5523 6 21 6C20.4477 6 20 6.44772 20 7V10H18V3C18 2.44772 17.5523 2 17 2H11ZM14 8C14.5523 8 15 7.55228 15 7C15 6.44772 14.5523 6 14 6C13.4477 6 13 6.44772 13 7C13 7.55228 13.4477 8 14 8ZM19 14C19 14.5523 18.5523 15 18 15C17.4477 15 17 14.5523 17 14C17 13.4477 17.4477 13 18 13C18.5523 13 19 13.4477 19 14Z" fill="#0000CC"/>
<path d="M10.1046 9.61014C9.71937 9.4405 9.28063 9.4405 8.89544 9.61014C8.57359 9.75188 8.37985 9.99378 8.27384 10.1407C8.17128 10.2828 8.06551 10.4619 7.96679 10.629L5.76662 14.3524L7.89185 16.4776L8.70004 15.4C8.8889 15.1482 9.18529 15 9.50004 15H13.616L11.0332 10.6291C10.9345 10.4619 10.8287 10.2828 10.7262 10.1407C10.6201 9.99378 10.4264 9.75188 10.1046 9.61014Z" fill="#0000CC"/>
<path d="M2.13907 20.4913L4.71607 16.1303L7.29294 18.7071C7.49793 18.9121 7.78178 19.018 8.07094 18.9975C8.3601 18.9769 8.62611 18.8319 8.80005 18.6L10 17H14.7979L16.8609 20.4913C17.0436 20.8005 17.0465 21.1838 16.8685 21.4957C16.6906 21.8076 16.3591 22.0001 16 22.0001H3C2.64093 22.0001 2.30942 21.8076 2.13146 21.4957C1.9535 21.1838 1.9564 20.8005 2.13907 20.4913Z" fill="#0000CC"/>
</svg>
