<svg width="24" height="24" viewBox="0 0 24 24" fill="none" xmlns="http://www.w3.org/2000/svg">
<path d="M8 3C8 2.44772 7.55228 2 7 2C6.44772 2 6 2.44772 6 3V6.58579L5.70711 6.29289C5.31658 5.90237 4.68342 5.90237 4.29289 6.29289C3.90237 6.68342 3.90237 7.31658 4.29289 7.70711L6.29289 9.70711C6.68342 10.0976 7.31658 10.0976 7.70711 9.70711L9.70711 7.70711C10.0976 7.31658 10.0976 6.68342 9.70711 6.29289C9.31658 5.90237 8.68342 5.90237 8.29289 6.29289L8 6.58579V3Z" fill="#0000CC"/>
<path d="M18 3C18 2.44772 17.5523 2 17 2C16.4477 2 16 2.44772 16 3V6.58579L15.7071 6.29289C15.3166 5.90237 14.6834 5.90237 14.2929 6.29289C13.9024 6.68342 13.9024 7.31658 14.2929 7.70711L16.2929 9.70711C16.6834 10.0976 17.3166 10.0976 17.7071 9.70711L19.7071 7.70711C20.0976 7.31658 20.0976 6.68342 19.7071 6.29289C19.3166 5.90237 18.6834 5.90237 18.2929 6.29289L18 6.58579V3Z" fill="#0000CC"/>
<path fill-rule="evenodd" clip-rule="evenodd" d="M12.6057 9.07901C12.2111 8.97366 11.7889 8.97366 11.3943 9.07901C11.1116 9.15447 10.8916 9.28204 10.716 9.40225C10.5571 9.51103 10.3832 9.65071 10.206 9.79308L5.92133 13.2342C5.80485 13.3274 5.65813 13.4447 5.5383 13.5872C5.43426 13.7108 5.34913 13.8456 5.28501 13.9882C5.21116 14.1524 5.17629 14.3225 5.1486 14.4576L4.14097 19.3136C4.08691 19.574 4.03531 19.8225 4.0131 20.0332C3.98917 20.2603 3.98647 20.5383 4.10735 20.8275C4.27183 21.221 4.5916 21.5516 5.01032 21.7612C5.31807 21.9152 5.63485 21.962 5.89756 21.9817C6.14127 22.0001 6.43318 22 6.73899 22H17.261C17.5668 22 17.8587 22.0001 18.1024 21.9817C18.3652 21.962 18.6819 21.9152 18.9897 21.7612C19.4084 21.5516 19.7282 21.221 19.8926 20.8275C20.0135 20.5383 20.0108 20.2603 19.9869 20.0332C19.9647 19.8225 19.9131 19.574 19.859 19.3137L18.8514 14.4576C18.8237 14.3225 18.7888 14.1523 18.715 13.9882C18.6509 13.8456 18.5657 13.7108 18.4617 13.5872C18.3419 13.4447 18.1952 13.3274 18.0787 13.2342L13.794 9.79308C13.6168 9.65071 13.4429 9.51103 13.284 9.40225C13.1084 9.28204 12.8884 9.15447 12.6057 9.07901ZM12 15V20H15.5L12 15Z" fill="#0000CC"/>
</svg>
