<svg width="24" height="24" viewBox="0 0 24 24" fill="none" xmlns="http://www.w3.org/2000/svg">
<path d="M8.70711 2.70711C9.09763 2.31658 9.09763 1.68342 8.70711 1.29289C8.31658 0.902369 7.68342 0.902369 7.29289 1.29289L4.29289 4.29289C4.10536 4.48043 4 4.73478 4 5C4 5.26522 4.10536 5.51957 4.29289 5.70711L7.29289 8.70711C7.68342 9.09763 8.31658 9.09763 8.70711 8.70711C9.09763 8.31658 9.09763 7.68342 8.70711 7.29289L7.41421 6H15.8C16.3766 6 16.7488 6.00078 17.0322 6.02393C17.3038 6.04612 17.4045 6.0838 17.454 6.10899C17.6422 6.20487 17.7951 6.35785 17.891 6.54601C17.9162 6.59545 17.9539 6.69617 17.9761 6.96784C17.9992 7.25117 18 7.62345 18 8.2V9C18 9.55229 18.4477 10 19 10C19.5523 10 20 9.55229 20 9V8.16143C20 7.63429 20 7.17954 19.9694 6.80497C19.9371 6.40963 19.8658 6.01641 19.673 5.63803C19.3854 5.07354 18.9265 4.6146 18.362 4.32698C17.9836 4.13419 17.5904 4.06287 17.195 4.03057C16.8205 3.99997 16.3657 3.99998 15.8385 4L7.41421 4L8.70711 2.70711Z" fill="#0000CC"/>
<path fill-rule="evenodd" clip-rule="evenodd" d="M11.3943 9.07901C11.7889 8.97366 12.2111 8.97366 12.6057 9.07901C12.8884 9.15447 13.1084 9.28204 13.284 9.40225C13.4429 9.51103 13.6168 9.65071 13.794 9.79308L18.0787 13.2342C18.1952 13.3274 18.3419 13.4447 18.4617 13.5872C18.5657 13.7108 18.6509 13.8456 18.715 13.9882C18.7888 14.1523 18.8237 14.3225 18.8514 14.4576L19.859 19.3137C19.9131 19.574 19.9647 19.8225 19.9869 20.0332C20.0108 20.2603 20.0135 20.5383 19.8926 20.8275C19.7282 21.221 19.4084 21.5516 18.9897 21.7612C18.6819 21.9152 18.3652 21.962 18.1024 21.9817C17.8587 22.0001 17.5668 22 17.261 22H6.73899C6.43318 22 6.14127 22.0001 5.89756 21.9817C5.63485 21.962 5.31807 21.9152 5.01032 21.7612C4.5916 21.5516 4.27183 21.221 4.10735 20.8275C3.98647 20.5383 3.98916 20.2603 4.0131 20.0332C4.03531 19.8225 4.08691 19.574 4.14097 19.3136L5.1486 14.4576C5.17629 14.3225 5.21116 14.1524 5.28501 13.9882C5.34913 13.8456 5.43426 13.7108 5.5383 13.5872C5.65813 13.4447 5.80485 13.3274 5.92133 13.2342L10.206 9.79308C10.3832 9.65071 10.5571 9.51103 10.716 9.40225C10.8916 9.28204 11.1116 9.15447 11.3943 9.07901ZM12 20V15L15.5 20H12Z" fill="#0000CC"/>
</svg>
