<svg width="24" height="24" viewBox="0 0 24 24" fill="none" xmlns="http://www.w3.org/2000/svg">
<path fill-rule="evenodd" clip-rule="evenodd" d="M3.44683 2.10538L3.45174 2.10779L3.47889 2.12094C3.50441 2.13319 3.54463 2.15223 3.59882 2.17711C3.70724 2.22687 3.8714 2.29989 4.08549 2.38848C4.51399 2.56579 5.14062 2.80469 5.9191 3.04422C7.48064 3.52469 9.62827 4 12 4C14.3718 4 16.5194 3.52469 18.0809 3.04422C18.8594 2.80469 19.486 2.56579 19.9145 2.38848C20.1286 2.29989 20.2928 2.22687 20.4012 2.17711C20.4554 2.15223 20.4956 2.13319 20.5211 2.12094L20.5483 2.10779L20.5528 2.10557C20.8627 1.95079 21.2311 1.96722 21.5257 2.14935C21.8206 2.33156 22 2.65342 22 3L22 8.22325C22.0001 8.34234 22.0001 8.48455 21.9899 8.60983C21.978 8.75505 21.9476 8.96304 21.8365 9.18099C21.6927 9.46323 21.4632 9.6927 21.181 9.83651C20.9631 9.94756 20.7551 9.978 20.6098 9.98987C20.4845 10.0001 20.3423 10.0001 20.2232 10H20V12H21C21.5523 12 22 12.4477 22 13C22 13.5523 21.5523 14 21 14H20V21C20 21.5523 19.5523 22 19 22C18.4477 22 18 21.5523 18 21V14H6V21C6 21.5523 5.55228 22 5 22C4.44772 22 4 21.5523 4 21V14H3C2.44772 14 2 13.5523 2 13C2 12.4477 2.44772 12 3 12H4V10H3.77687C3.65776 10.0001 3.5155 10.0001 3.39018 9.98987C3.24496 9.978 3.03697 9.94756 2.81903 9.83651C2.53678 9.6927 2.30731 9.46323 2.1635 9.18099C2.05245 8.96304 2.02201 8.75505 2.01015 8.60983C1.99991 8.48451 1.99996 8.34225 2.00001 8.22314L2.00001 3C2.00001 2.65342 2.17946 2.33156 2.47428 2.14935C2.76897 1.96722 3.13693 1.95059 3.44683 2.10538ZM6 10V12H11V10H6ZM13 10V12H18V10H13Z" fill="#0000CC"/>
</svg>
