<svg width="24" height="24" viewBox="0 0 24 24" fill="none" xmlns="http://www.w3.org/2000/svg">
<path fill-rule="evenodd" clip-rule="evenodd" d="M12.3688 2.15246C12.1251 2.10673 11.8749 2.10673 11.6312 2.15246C11.3497 2.20527 11.0948 2.33377 10.8922 2.43587L10.8372 2.46347C9.07571 3.34424 7.31434 4.22493 5.55279 5.1057C5.05881 5.35269 4.85858 5.95337 5.10557 6.44734C5.35256 6.94132 5.95324 7.14155 6.44721 6.89456L7 6.61816L7 9.43203C6.99997 9.6844 6.99994 9.93021 7.01695 10.1384C7.03562 10.367 7.07969 10.6367 7.21799 10.9081C7.40973 11.2844 7.7157 11.5904 8.09202 11.7821C8.28991 11.883 8.48689 11.9337 8.6677 11.961C7.86379 14.6407 7.05988 17.3204 6.25597 20.0001H5C4.44772 20.0001 4 20.4478 4 21.0001C4 21.5524 4.44772 22.0001 5 22.0001C9.66666 22.0001 14.3333 22.0001 19 22.0001C19.5523 22.0001 20 21.5524 20 21.0001C20 20.4478 19.5523 20.0001 19 20.0001H17.744C16.9401 17.3204 16.1362 14.6407 15.3323 11.961C15.5131 11.9337 15.7101 11.883 15.908 11.7821C16.2843 11.5904 16.5903 11.2844 16.782 10.9081C16.9203 10.6367 16.9644 10.367 16.9831 10.1384C17.0001 9.9302 17 9.6844 17 9.43201L17 6.61816L17.5528 6.89456C18.0468 7.14155 18.6474 6.94132 18.8944 6.44734C19.1414 5.95337 18.9412 5.35269 18.4472 5.1057C16.6857 4.22496 14.9243 3.34424 13.1628 2.46347L13.1078 2.43587C12.9052 2.33377 12.6503 2.20527 12.3688 2.15246ZM10.744 12.0001H13.256L13.7666 13.7022L11.9941 15.175L10.2211 13.7432L10.744 12.0001ZM13.5811 16.4567L14.391 15.7837L14.9165 17.5352L13.5811 16.4567ZM12.0121 17.7604L14.7854 20.0001H9.3165L12.0121 17.7604ZM10.4251 16.4787L9.06025 17.6127L9.60029 15.8126L10.4251 16.4787ZM10 7C9.44772 7 9 7.44772 9 8C9 8.55228 9.44772 9 10 9H14C14.5523 9 15 8.55228 15 8C15 7.44772 14.5523 7 14 7H10Z" fill="#0000CC"/>
</svg>
