<svg width="24" height="24" viewBox="0 0 24 24" fill="none" xmlns="http://www.w3.org/2000/svg">
<path fill-rule="evenodd" clip-rule="evenodd" d="M7 7.69078V8.72198L6.97477 8.75891C6.86436 8.9184 6.68344 9.15244 6.41798 9.41789C5.88966 9.94622 5.01996 10.6059 3.68386 11.0513C3.21858 11.2064 2.93444 11.6761 3.013 12.1602C3.09157 12.6443 3.50963 13 4.00009 13H5V14.722L4.97477 14.7589C4.86436 14.9184 4.68344 15.1524 4.41798 15.4179C3.88966 15.9462 3.01996 16.6059 1.68386 17.0513C1.21858 17.2064 0.934441 17.6761 1.013 18.1602C1.09157 18.6443 1.50963 19 2.00009 19H4V21C4 21.5523 4.44772 22 5 22C5.55228 22 6 21.5523 6 21V19H11V21C11 21.5523 11.4477 22 12 22C12.5523 22 13 21.5523 13 21V19H18V21C18 21.5523 18.4477 22 19 22C19.5523 22 20 21.5523 20 21V19H22.0001C22.4905 19 22.9086 18.6443 22.9872 18.1602C23.0657 17.6761 22.7816 17.2064 22.3163 17.0513C20.9802 16.6059 20.1105 15.9462 19.5822 15.4179C19.3167 15.1524 19.1358 14.9184 19.0254 14.7589L19 14.7217V13H20.0001C20.4905 13 20.9086 12.6443 20.9872 12.1602C21.0657 11.6761 20.7816 11.2064 20.3163 11.0513C18.9802 10.6059 18.1105 9.94622 17.5822 9.41789C17.3167 9.15244 17.1358 8.9184 17.0254 8.75891L17 8.72171V7.69096C17.2261 7.78563 17.4543 7.87211 17.6836 7.94853C18.2075 8.12317 18.7738 7.84001 18.9485 7.31607C19.1231 6.79213 18.84 6.22581 18.316 6.05116C17.718 5.85181 17.109 5.55836 16.5205 5.21872C16.5073 5.21069 16.494 5.20295 16.4805 5.19552C15.7663 4.78016 15.0836 4.29815 14.4887 3.83549C13.9498 3.41633 13.5002 3.02671 13.1863 2.74268C13.0296 2.6009 12.9074 2.48603 12.8254 2.40771C12.7844 2.36857 12.7536 2.3386 12.7336 2.31903C12.3355 1.927 11.6955 1.89314 11.2878 2.29762L11.266 2.31903C11.246 2.3386 11.2151 2.36857 11.1742 2.40771C11.0922 2.48603 10.97 2.6009 10.8132 2.74268C10.4993 3.02671 10.0498 3.41633 9.51084 3.83549C8.86704 4.33623 8.19557 4.80357 7.48957 5.21265C6.89785 5.55487 6.28516 5.85062 5.68356 6.05116C5.15961 6.22581 4.87645 6.79213 5.0511 7.31607C5.22575 7.84001 5.79207 8.12317 6.31601 7.94853C6.5454 7.87206 6.77375 7.78552 7 7.69078ZM7 15V13H17V15H7ZM15 7H9V9H15V7Z" fill="#0000CC"/>
</svg>
