<svg width="24" height="24" viewBox="0 0 24 24" fill="none" xmlns="http://www.w3.org/2000/svg">
<path d="M15.9566 2.001C16.2371 1.98846 16.5099 2.09438 16.7084 2.29289L17.1417 2.72617C17.7711 3.35562 18.2748 4.09936 18.6255 4.91751L18.7631 5.23842L19.0834 5.37572C19.9018 5.72651 20.6457 6.23021 21.2753 6.85981L21.7084 7.29289C21.9071 7.4916 22.0131 7.76474 22.0003 8.04546C21.9875 8.32618 21.8572 8.58857 21.6413 8.7684L20.7878 9.47925C19.8907 10.2264 18.7794 10.5642 17.6898 10.5031C18.1983 12.8749 17.093 15.4733 14.6676 16.6147L11.5132 18.0991L9.20494 15.7927C8.81426 15.4023 8.18109 15.4026 7.79072 15.7933C7.40035 16.184 7.40061 16.8171 7.79129 17.2075L9.58956 19.0043L3.42583 21.9049C3.04428 22.0845 2.5911 22.0054 2.29292 21.7072C1.99475 21.409 1.91566 20.9558 2.09521 20.5743L6.91581 10.3305L8.79072 12.2069C9.18109 12.5976 9.81426 12.5979 10.2049 12.2075C10.5956 11.8171 10.5959 11.184 10.2055 10.7933L7.88721 8.47314C9.18304 6.65239 11.4266 5.86628 13.4973 6.31038C13.4359 5.21846 13.7751 4.10492 14.5253 3.20698L15.2339 2.35884C15.4139 2.1434 15.6762 2.01354 15.9566 2.001Z" fill="#0000CC"/>
</svg>
