<svg width="24" height="24" viewBox="0 0 24 24" fill="none" xmlns="http://www.w3.org/2000/svg">
<path d="M14.3582 5.71506C13.9058 5.26272 13.3144 5.13543 12.7949 5.14992C12.2783 5.16434 11.7385 5.31703 11.2216 5.53856C10.1824 5.98396 9.03746 6.79314 7.99422 7.83638C6.95098 8.87962 6.1418 10.0245 5.69639 11.0638C5.47487 11.5807 5.32217 12.1204 5.30776 12.637C5.29326 13.1565 5.42056 13.748 5.8729 14.2003C6.32524 14.6527 6.91673 14.78 7.43622 14.7655C7.9528 14.7511 8.49257 14.5984 9.00946 14.3768C10.0487 13.9314 11.1936 13.1223 12.2369 12.079C13.2801 11.0358 14.0893 9.89089 14.5347 8.85162C14.7562 8.33473 14.9089 7.79496 14.9233 7.27838C14.9378 6.75889 14.8105 6.16741 14.3582 5.71506Z" fill="#0000CC"/>
<path fill-rule="evenodd" clip-rule="evenodd" d="M17.4177 3.65952C16.2035 2.3022 14.2845 1.98794 12.3911 2.30595C10.4265 2.63592 8.27875 3.66465 6.36835 5.26767C4.45793 6.8707 3.07193 8.80721 2.4059 10.6846C1.75396 12.5223 1.73974 14.4992 2.91976 15.9365C3.80483 17.1829 5.12557 18.5443 6.6485 19.6051C8.17292 20.667 10.0012 21.4974 11.8664 21.4974C17.4174 21.4974 21.9998 17.1955 21.9998 11.7896C21.9998 8.57128 19.7476 5.38348 17.4177 3.65952ZM12.7224 4.27833C11.167 4.53956 9.33965 5.38526 7.65392 6.79976C5.9682 8.21424 4.81809 9.86699 4.2908 11.3533C3.75455 12.8649 3.91328 14.0095 4.47997 14.6848C5.04665 15.3602 6.14621 15.7152 7.7279 15.4495C9.28316 15.1883 11.1105 14.3426 12.7962 12.9281C14.4819 11.5136 15.6321 9.86085 16.1595 8.37452C16.6958 6.86291 16.5371 5.71835 15.9704 5.04302C15.4037 4.36769 14.3041 4.01265 12.7224 4.27833ZM19.0557 10.166C18.5966 9.85903 17.9756 9.98244 17.6686 10.4416C17.3617 10.9007 17.4851 11.5218 17.9443 11.8287L19.4443 12.8314C19.9034 13.1383 20.5244 13.0149 20.8314 12.5557C21.1383 12.0966 21.0149 11.4756 20.5557 11.1686L19.0557 10.166ZM16.2077 14.7908C15.8176 14.4 15.1844 14.3994 14.7935 14.7896C14.4027 15.1798 14.4021 15.8129 14.7923 16.2038L16.2923 17.7065C16.6824 18.0973 17.3156 18.0979 17.7065 17.7077C18.0973 17.3176 18.0979 16.6844 17.7077 16.2935L16.2077 14.7908ZM11.7081 17.2912C11.3181 16.9001 10.6849 16.8993 10.2938 17.2893C9.90279 17.6793 9.90195 18.3124 10.2919 18.7035L11.2919 19.7062C11.6819 20.0972 12.3151 20.0981 12.7062 19.7081C13.0972 19.3181 13.0981 18.6849 12.7081 18.2938L11.7081 17.2912Z" fill="#0000CC"/>
</svg>
