<svg width="24" height="24" viewBox="0 0 24 24" fill="none" xmlns="http://www.w3.org/2000/svg">
<path fill-rule="evenodd" clip-rule="evenodd" d="M5.10498 6.21485C8.58173 2.07142 14.5373 1.0754 18.4273 4.3395C22.3173 7.6036 22.3705 13.6416 18.8938 17.785C15.417 21.9285 9.4615 22.9245 5.5715 19.6604C1.6815 16.3963 1.62822 10.3583 5.10498 6.21485ZM13.9645 5.49485C14.8349 5.5911 15.7342 5.99586 16.4989 6.63756C17.2637 7.27927 17.8185 8.09457 18.0644 8.93507C18.308 9.76751 18.2715 10.748 17.6348 11.5068C16.998 12.2657 16.0387 12.4719 15.1767 12.3765C14.3062 12.2803 13.407 11.8755 12.6422 11.2338C11.8775 10.5921 11.3227 9.77683 11.0768 8.93632C10.8332 8.10388 10.8696 7.12344 11.5064 6.36455C12.1432 5.60565 13.1024 5.39952 13.9645 5.49485Z" fill="#0000CC"/>
</svg>
