<svg width="24" height="24" viewBox="0 0 24 24" fill="none" xmlns="http://www.w3.org/2000/svg">
<path fill-rule="evenodd" clip-rule="evenodd" d="M10.4859 3.19723C13.2207 1.45059 16.7886 1.72656 19.2353 3.84757C21.8648 6.12705 22.5608 9.95273 20.871 13.0038L20.329 13.9826L20.0639 14.5656C19.0056 16.894 17.1395 18.7601 14.8111 19.8185L14.6493 19.892C14.3878 20.0109 14.1351 20.1482 13.893 20.3028L13.3241 20.6661C10.2941 22.6014 6.30555 22.0383 3.92968 19.3399C1.49524 16.5749 1.5065 12.4282 3.95593 9.67648L5.19221 8.28764C5.49939 7.94255 5.76759 7.56465 5.99196 7.16078L6.54491 6.16548C7.19611 4.99332 8.26304 4.10784 9.53514 3.68381C9.79746 3.59637 10.048 3.47687 10.281 3.32804L10.4859 3.19723ZM12.0727 8.99507C11.6822 8.60453 11.0491 8.60451 10.6585 8.99502C10.268 9.38552 10.268 10.0187 10.6585 10.4092L10.6648 10.4156C11.0554 10.8061 11.6885 10.8062 12.0791 10.4156C12.4696 10.0251 12.4696 9.39197 12.0791 9.00143L12.0727 8.99507ZM17.7296 8.99507C17.3391 8.60453 16.7059 8.60451 16.3154 8.99502C15.9248 9.38552 15.9248 10.0187 16.3153 10.4092L16.3217 10.4156C16.7122 10.8061 17.3454 10.8062 17.7359 10.4156C18.1264 10.0251 18.1265 9.39197 17.736 9.00143L17.7296 8.99507ZM12.7798 12.5306C12.3893 12.1401 11.7561 12.1401 11.3656 12.5306C10.9751 12.9211 10.9751 13.5543 11.3656 13.9448L11.372 13.9512C11.7625 14.3417 12.3957 14.3417 12.7862 13.9512C13.1767 13.5606 13.1767 12.9275 12.7862 12.5369L12.7798 12.5306ZM8.53716 13.9448C8.14662 13.5543 7.51345 13.5543 7.12294 13.9448C6.73244 14.3354 6.73246 14.9685 7.123 15.359L7.12936 15.3654C7.5199 15.7559 8.15307 15.7559 8.54358 15.3653C8.93409 14.9748 8.93406 14.3416 8.54352 13.9511L8.53716 13.9448Z" fill="#0000CC"/>
</svg>
