<svg width="24" height="24" viewBox="0 0 24 24" fill="none" xmlns="http://www.w3.org/2000/svg">
<path d="M9.66997 5.66739C7.63863 4.4946 5.13986 4.47797 3.09309 5.62362L2.85142 5.75889C2.53135 5.93804 2.33505 6.27804 2.33993 6.6448L2.34362 6.92174C2.37484 9.26711 3.63863 11.4228 5.66997 12.5956C7.30283 13.5383 9.23772 13.734 10.9971 13.1795L11 20.9966C11.0002 21.5489 11.4481 21.9964 12.0004 21.9962C12.5527 21.996 13.0002 21.5481 13 20.9958L12.9965 11.7159C12.9993 11.6836 13.0004 11.651 13 11.6182L12.9963 11.3412C12.9651 8.99587 11.7013 6.84018 9.66997 5.66739Z" fill="#0000CC"/>
<path d="M13.303 3.62682C15.0998 2.1191 17.5578 1.66881 19.7724 2.44164L20.0339 2.53289C20.3802 2.65375 20.6326 2.9545 20.6914 3.31654L20.7359 3.5899C21.1124 5.90507 20.2421 8.24746 18.4453 9.75518C17.4479 10.5921 16.2468 11.1032 14.9967 11.2601L14.9965 10.7159C14.9992 10.6836 15.0004 10.651 14.9999 10.6182L14.9962 10.3412C14.9673 8.16838 13.8805 6.15832 12.1055 4.94181C12.4397 4.45801 12.8407 4.01478 13.303 3.62682Z" fill="#0000CC"/>
</svg>
