<svg width="24" height="24" viewBox="0 0 24 24" fill="none" xmlns="http://www.w3.org/2000/svg">
<path d="M18.2067 2.29289C17.8161 1.90237 17.183 1.90237 16.7925 2.29289C16.4019 2.68342 16.4019 3.31658 16.7925 3.70711C20.7626 7.67728 20.9524 13.6893 17.4996 17.1421C14.0467 20.5949 8.0347 20.4052 4.06453 16.435C3.674 16.0445 3.04084 16.0445 2.65032 16.435C2.25979 16.8256 2.25979 17.4587 2.65032 17.8492C7.27168 22.4706 14.5561 22.914 18.9138 18.5563C23.2715 14.1987 22.828 6.91426 18.2067 2.29289Z" fill="#0000CC"/>
<path fill-rule="evenodd" clip-rule="evenodd" d="M16.0851 4.71428C15.6946 4.32376 15.0614 4.32376 14.6709 4.71428L4.77141 14.6138C4.38088 15.0043 4.38088 15.6375 4.77141 16.028C8.19448 19.4511 13.5823 19.945 16.7922 16.7351C20.0022 13.5252 19.5082 8.13735 16.0851 4.71428ZM13.5507 9.24968C13.9412 8.85916 14.5744 8.85916 14.9649 9.24968L15.672 9.95679C16.0626 10.3473 16.0626 10.9805 15.672 11.371C15.2815 11.7615 14.6483 11.7615 14.2578 11.371L13.5507 10.6639C13.1602 10.2734 13.1602 9.6402 13.5507 9.24968ZM11.4296 11.371C11.8201 10.9805 12.4533 10.9805 12.8438 11.371L13.5509 12.0781C13.9415 12.4686 13.9415 13.1018 13.5509 13.4923C13.1604 13.8829 12.5272 13.8829 12.1367 13.4923L11.4296 12.7852C11.0391 12.3947 11.0391 11.7615 11.4296 11.371ZM9.30852 13.4924C9.69904 13.1018 10.3322 13.1018 10.7227 13.4924L11.4298 14.1995C11.8204 14.59 11.8204 15.2232 11.4298 15.6137C11.0393 16.0042 10.4061 16.0042 10.0156 15.6137L9.30852 14.9066C8.91799 14.516 8.91799 13.8829 9.30852 13.4924Z" fill="#0000CC"/>
</svg>
