<svg width="24" height="24" viewBox="0 0 24 24" fill="none" xmlns="http://www.w3.org/2000/svg">
<path d="M21.8191 3.35726C21.8847 3.0294 21.782 2.69047 21.5456 2.45404C21.3092 2.21762 20.9702 2.115 20.6424 2.18057L18.0874 2.69156C17.2545 2.85815 16.4894 3.26759 15.8888 3.86826C15.6462 4.11083 15.4348 4.3802 15.258 4.67003C15.0607 4.45383 14.8317 4.2251 14.5719 3.9655L14.4745 3.86826C13.7076 3.10135 12.414 3.05812 11.6286 3.89939C11.3861 4.15915 11.1762 4.40958 11.0104 4.69668C10.7511 5.14589 10.5859 5.63292 10.5148 6.13033C9.90831 6.04171 9.26518 6.22975 8.80018 6.72782C8.55767 6.98758 8.34777 7.23801 8.18202 7.52511C7.92267 7.97431 7.75745 8.46135 7.68637 8.95876C7.07988 8.87014 6.43675 9.05818 5.97176 9.55625C5.72925 9.816 5.51935 10.0664 5.35359 10.3535C4.63906 11.5911 4.63906 13.1159 5.35359 14.3535C5.61844 14.8123 6.03632 15.2297 6.59905 15.7918L6.69615 15.8889L2.45307 20.1317C2.06253 20.5222 2.06252 21.1554 2.45303 21.5459C2.84354 21.9364 3.47671 21.9365 3.86724 21.546L8.11037 17.3031L8.20784 17.4006C8.76994 17.9633 9.18739 18.3812 9.64612 18.6461C10.8837 19.3606 12.4085 19.3606 13.6461 18.6461C13.9332 18.4803 14.1837 18.2704 14.4434 18.0279C14.9415 17.5629 15.1295 16.9198 15.0409 16.3133C15.5383 16.2422 16.0253 16.077 16.4745 15.8176C16.7616 15.6519 17.0121 15.442 17.2718 15.1995C17.7699 14.7345 17.9579 14.0913 17.8693 13.4849C18.3667 13.4138 18.8538 13.2486 19.303 12.9892C19.5901 12.8235 19.8405 12.6136 20.1003 12.371C20.9415 11.5856 20.8983 10.292 20.1314 9.52511L20.0342 9.4278C19.7746 9.16792 19.5458 8.93894 19.3296 8.74165C19.6195 8.56485 19.8888 8.35347 20.1314 8.1109C20.7321 7.51023 21.1415 6.7452 21.3081 5.91222L21.8191 3.35726Z" fill="#0000CC"/>
</svg>
