<svg width="24" height="24" viewBox="0 0 24 24" fill="none" xmlns="http://www.w3.org/2000/svg">
<path opacity="0.14" d="M21 10.8V18H11V10C11 7.79086 9.20914 6 7 6H16.2C17.8802 6 18.7202 6 19.362 6.32698C19.9265 6.6146 20.3854 7.07354 20.673 7.63803C21 8.27976 21 9.11984 21 10.8Z" fill="#0000CC"/>
<path d="M7 6H16.2C17.8802 6 18.7202 6 19.362 6.32698C19.9265 6.6146 20.3854 7.07354 20.673 7.63803C21 8.27976 21 9.11984 21 10.8V18H11M7 6C9.20914 6 11 7.79086 11 10V18M7 6C4.79086 6 3 7.79086 3 10V18H11M17 3H14V12M10 18V21H14V18M7 12H7.01" stroke="#0000CC" stroke-width="2" stroke-linecap="round" stroke-linejoin="round"/>
</svg>
