<svg width="24" height="24" viewBox="0 0 24 24" fill="none" xmlns="http://www.w3.org/2000/svg">
<path opacity="0.14" d="M21 12.5L16 8L10.4737 13L6.63259 10L3 13.2C3 14.8802 3 15.7202 3.32698 16.362C3.6146 16.9265 4.07354 17.3854 4.63803 17.673C4.78567 17.7482 4.94381 17.8062 5.12027 17.8508C5.71078 18 6.50639 18 7.8 18H16.2446C16.5263 18 16.6672 18 16.8052 18.0193C16.9277 18.0365 17.0484 18.065 17.1656 18.1044C17.2977 18.1488 17.4237 18.2118 17.6756 18.3378L17.6757 18.3378L21 20V12.5Z" fill="#0000CC"/>
<path d="M5.12012 17.8508L15.9999 8L20.9999 12.5M3 13.2L6.63259 10L10.4737 13M21 20L17.6757 18.3378C17.4237 18.2118 17.2977 18.1488 17.1656 18.1044C17.0484 18.065 16.9277 18.0365 16.8052 18.0193C16.6672 18 16.5263 18 16.2446 18H6.2C5.07989 18 4.51984 18 4.09202 17.782C3.71569 17.5903 3.40973 17.2843 3.21799 16.908C3 16.4802 3 15.9201 3 14.8V7.2C3 6.07989 3 5.51984 3.21799 5.09202C3.40973 4.71569 3.71569 4.40973 4.09202 4.21799C4.51984 4 5.0799 4 6.2 4H17.8C18.9201 4 19.4802 4 19.908 4.21799C20.2843 4.40973 20.5903 4.71569 20.782 5.09202C21 5.51984 21 6.0799 21 7.2V20Z" stroke="#0000CC" stroke-width="2" stroke-linecap="round" stroke-linejoin="round"/>
</svg>
