<svg width="24" height="24" viewBox="0 0 24 24" fill="none" xmlns="http://www.w3.org/2000/svg">
<path opacity="0.14" d="M12.0039 21C16.9745 21 21.0039 16.9706 21.0039 12C21.0039 10.6095 20.6886 9.29268 20.1255 8.1171C18.9539 9.28867 17.0503 9.29312 15.8787 8.12155C14.7071 6.94997 14.7129 5.04882 15.8844 3.87725C14.7095 3.31491 13.3935 3 12.0039 3C7.03334 3 3.00391 7.02944 3.00391 12C3.00391 13.4372 3.34076 14.7956 3.93982 16.0008C4.56382 17.2561 3.00463 21 3.00463 21H12.0039Z" fill="#0000CC"/>
<path d="M21.0039 12C21.0039 16.9706 16.9745 21 12.0039 21H3.00463C3.00463 21 4.56382 17.2561 3.93982 16.0008C3.34076 14.7956 3.00391 13.4372 3.00391 12C3.00391 7.02944 7.03334 3 12.0039 3M20.1213 3.87868C21.2929 5.05025 21.2929 6.94975 20.1213 8.12132C18.9497 9.29289 17.0503 9.29289 15.8787 8.12132C14.7071 6.94975 14.7071 5.05025 15.8787 3.87868C17.0503 2.70711 18.9497 2.70711 20.1213 3.87868Z" stroke="#0000CC" stroke-width="2" stroke-linecap="round" stroke-linejoin="round"/>
</svg>
