<svg width="24" height="24" viewBox="0 0 24 24" fill="none" xmlns="http://www.w3.org/2000/svg">
<path opacity="0.14" d="M10.9998 13.0018L7.49977 10L3.26519 14.17C3.42372 14.8127 3.65129 15.4208 3.93958 16.0008C4.56359 17.2561 3.00439 21 3.00439 21H12.0037C16.9174 21 20.9114 17.0622 21.0021 12.1701L15.9998 8L10.9998 13.0018Z" fill="#0000CC"/>
<path d="M3.00463 21L16 8L21.0023 12.1701M3.00463 21C3.00463 21 9.9675 21 12.0039 21C16.9176 21 20.9117 17.0622 21.0023 12.1701M3.00463 21C3.00463 21 4.56382 17.2561 3.93982 16.0008C3.34076 14.7956 3.00391 13.4372 3.00391 12C3.00391 7.02944 7.03334 3 12.0039 3C16.9745 3 21.0039 7.02944 21.0039 12C21.0039 12.0568 21.0034 12.1135 21.0023 12.1701M11 13.0018L7.5 10L3.26826 14.1741" stroke="#0000CC" stroke-width="2" stroke-linecap="round" stroke-linejoin="round"/>
</svg>
