<svg width="24" height="24" viewBox="0 0 24 24" fill="none" xmlns="http://www.w3.org/2000/svg">
<path opacity="0.14" fill-rule="evenodd" clip-rule="evenodd" d="M12.0039 21C16.9745 21 21.0039 16.9706 21.0039 12C21.0039 7.02944 16.9745 3 12.0039 3C7.03334 3 3.00391 7.02944 3.00391 12C3.00391 13.4372 3.34076 14.7956 3.93982 16.0008C4.56382 17.2561 3.00463 21 3.00463 21H12.0039ZM14.625 10.1667H15V11.3979C15 13.6121 13.7252 15.4725 12 16C10.2748 15.4725 9 13.6121 9 11.3979L9.00004 10.1667H9.37504C10.3995 10.1667 11.2923 9.75241 12 9C12.7077 9.75244 13.6006 10.1667 14.625 10.1667Z" fill="#0000CC"/>
<path d="M15 10.1667C15 10.1667 14.6941 10.1667 14.625 10.1667C13.6006 10.1667 12.7077 9.75244 12 9C11.2923 9.75241 10.3995 10.1667 9.37504 10.1667C9.30596 10.1667 9.00004 10.1667 9.00004 10.1667C9.00004 10.1667 9 10.9444 9 11.3979C9 13.6121 10.2748 15.4725 12 16C13.7252 15.4725 15 13.6121 15 11.3979C15 10.9444 15 10.1667 15 10.1667Z" stroke="#0000CC" stroke-width="2" stroke-linecap="round" stroke-linejoin="round"/>
</svg>
