<svg width="24" height="24" viewBox="0 0 24 24" fill="none" xmlns="http://www.w3.org/2000/svg">
<path opacity="0.14" d="M20.6215 16.65C15.8855 11.8704 8.17161 11.835 3.39199 16.571C3.24627 16.7154 3.10495 16.8625 2.96804 17.0123C2.68224 17.3249 2.53934 17.4813 2.47422 17.7042C2.42117 17.8859 2.42596 18.1239 2.48628 18.3033C2.56031 18.5234 2.72866 18.6933 3.06537 19.0331L4.25018 20.2289C4.53437 20.5157 4.67646 20.6591 4.84548 20.7352C4.99477 20.8025 5.1583 20.8321 5.32171 20.8214C5.50669 20.8093 5.69005 20.7247 6.05668 20.5557L8.01817 19.6512C8.44477 19.4545 8.65807 19.3562 8.79725 19.1991C8.91997 19.0606 9.00184 18.8907 9.03377 18.7084C9.06996 18.5017 9.01404 18.2736 8.9022 17.8173L8.67073 16.8731C10.8142 16.0771 13.2037 16.0896 15.3402 16.9037L15.1001 17.8458C14.9841 18.301 14.9261 18.5286 14.9604 18.7356C14.9906 18.9182 15.0709 19.0888 15.1924 19.2284C15.3301 19.3868 15.5425 19.4871 15.9673 19.6877L17.9204 20.6101C18.2855 20.7825 18.468 20.8687 18.6529 20.8825C18.8162 20.8947 18.98 20.8666 19.1299 20.8007C19.2996 20.7261 19.443 20.584 19.7298 20.2999L20.9255 19.115C21.2653 18.7783 21.4352 18.61 21.5113 18.3905C21.5733 18.2117 21.5802 17.9737 21.5288 17.7916C21.4658 17.5681 21.3243 17.4104 21.0414 17.0952C20.9059 16.9442 20.7659 16.7957 20.6215 16.65Z" fill="#0000CC"/>
<path d="M19.9999 3L16.2143 6.31238C14.7211 7.61894 13.9745 8.27223 13.1343 8.52071C12.3939 8.73967 11.6059 8.73967 10.8656 8.52071C10.0253 8.27223 9.2787 7.61894 7.78548 6.31237L3.99991 3M3.99991 3H7.99991M3.99991 3V7M3.3915 16.571C8.17112 11.8351 15.885 11.8704 20.621 16.6501C20.7654 16.7958 20.9054 16.9442 21.0409 17.0952C21.3238 17.4105 21.4653 17.5681 21.5284 17.7917C21.5797 17.9738 21.5728 18.2118 21.5108 18.3906C21.4348 18.6101 21.2649 18.7784 20.925 19.1151L19.7293 20.2999C19.4425 20.5841 19.2991 20.7262 19.1294 20.8008C18.9795 20.8667 18.8157 20.8948 18.6524 20.8826C18.4675 20.8688 18.285 20.7826 17.9199 20.6102L15.9668 19.6878C15.542 19.4872 15.3296 19.3869 15.1919 19.2285C15.0704 19.0889 14.9901 18.9183 14.9599 18.7357C14.9256 18.5286 14.9836 18.301 15.0996 17.8458L15.3397 16.9037C13.2032 16.0897 10.8137 16.0772 8.67024 16.8732L8.90171 17.8174C9.01356 18.2737 9.06948 18.5018 9.03328 18.7085C9.00136 18.8908 8.91948 19.0607 8.79676 19.1992C8.65758 19.3563 8.44428 19.4546 8.01768 19.6513L6.0562 20.5558C5.68956 20.7248 5.5062 20.8094 5.32122 20.8215C5.15781 20.8322 4.99428 20.8026 4.84499 20.7353C4.67597 20.6592 4.53388 20.5158 4.24969 20.2289L3.06488 19.0332C2.72818 18.6934 2.55982 18.5235 2.48579 18.3034C2.42547 18.124 2.42068 17.886 2.47374 17.7043C2.53885 17.4813 2.68175 17.325 2.96756 17.0124C3.10446 16.8626 3.24578 16.7154 3.3915 16.571Z" stroke="#0000CC" stroke-width="2" stroke-linecap="round" stroke-linejoin="round"/>
</svg>
