<svg width="24" height="24" viewBox="0 0 24 24" fill="none" xmlns="http://www.w3.org/2000/svg">
<g opacity="0.14">
<path d="M18.7524 3.50812L20.7197 4.00002C20.7197 7.27022 19.9712 10.2196 18.6139 12.7083C18.609 12.7172 18.5967 12.7184 18.5902 12.7106L15.5652 9.08666C15.2572 8.69067 15.1032 8.49267 15.0225 8.27061C14.9511 8.07411 14.9215 7.86486 14.9357 7.65628C14.9518 7.42055 15.045 7.18766 15.2313 6.72187L15.942 4.94513C16.2177 4.25581 16.3556 3.91116 16.5934 3.68525C16.8029 3.48618 17.0656 3.3519 17.3496 3.29856C17.672 3.23803 18.0321 3.32806 18.7524 3.50812Z" fill="#0000CC"/>
<path d="M3.2281 19.0324L3.71973 21C6.76304 21 9.52847 20.3517 11.9033 19.1679C11.9141 19.1625 11.9164 19.148 11.9078 19.1395L8.83904 16.1191C8.43434 15.7144 8.23199 15.512 7.99171 15.4002C7.77934 15.3013 7.54678 15.2536 7.31264 15.2608C7.04773 15.2689 6.78204 15.3752 6.25064 15.5878L4.66511 16.222C3.97579 16.4977 3.63113 16.6356 3.40522 16.8734C3.20616 17.083 3.07188 17.3456 3.01854 17.6297C2.95801 17.952 3.04804 18.3122 3.2281 19.0324Z" fill="#0000CC"/>
</g>
<path d="M18.6043 12.7268L15.5657 9.08666C15.2577 8.69067 15.1037 8.49267 15.023 8.27061C14.9515 8.07411 14.922 7.86486 14.9362 7.65628C14.9523 7.42055 15.0454 7.18766 15.2318 6.72187L15.9425 4.94513C16.2182 4.25581 16.356 3.91116 16.5939 3.68525C16.8034 3.48618 17.066 3.3519 17.3501 3.29856C17.6725 3.23803 18.0326 3.32806 18.7529 3.50812L20.7202 4.00002C20.7202 14 13.7205 21 3.72021 21L3.22859 19.0324C3.04853 18.3122 2.9585 17.952 3.01903 17.6297C3.07237 17.3456 3.20665 17.083 3.40571 16.8734C3.63162 16.6356 3.97628 16.4977 4.66559 16.222L6.25113 15.5878C6.78253 15.3752 7.04822 15.2689 7.31313 15.2608C7.54727 15.2536 7.77983 15.3013 7.9922 15.4002C8.23248 15.512 8.43483 15.7144 8.83953 16.1191L11.9259 19.1569" stroke="#0000CC" stroke-width="2" stroke-linecap="round" stroke-linejoin="round"/>
</svg>
