<svg width="24" height="24" viewBox="0 0 24 24" fill="none" xmlns="http://www.w3.org/2000/svg">
<g opacity="0.14">
<path d="M4.96733 3.50812L3 4.00002C3 7.27022 3.74856 10.2196 5.10583 12.7083C5.11069 12.7172 5.123 12.7184 5.1295 12.7106L8.15456 9.08666C8.46255 8.69067 8.61655 8.49267 8.69726 8.27061C8.76867 8.07411 8.79821 7.86486 8.784 7.65628C8.76793 7.42055 8.67477 7.18766 8.48846 6.72187L7.77776 4.94513C7.50204 4.25581 7.36417 3.91116 7.12635 3.68525C6.91678 3.48618 6.65417 3.3519 6.37009 3.29856C6.0477 3.23803 5.68758 3.32806 4.96733 3.50812Z" fill="#0000CC"/>
<path d="M20.4916 19.0324L20 21C16.9567 21 14.1913 20.3517 11.8164 19.1679C11.8056 19.1625 11.8033 19.148 11.8119 19.1395L14.8807 16.1191C15.2854 15.7144 15.4877 15.512 15.728 15.4002C15.9404 15.3013 16.1729 15.2536 16.4071 15.2608C16.672 15.2689 16.9377 15.3752 17.4691 15.5878L19.0546 16.222C19.7439 16.4977 20.0886 16.6356 20.3145 16.8734C20.5136 17.083 20.6478 17.3456 20.7012 17.6297C20.7617 17.952 20.6717 18.3122 20.4916 19.0324Z" fill="#0000CC"/>
</g>
<path d="M10.927 18.6888C13.4904 20.1757 16.5687 21 20.0003 21L20.4919 19.0324C20.672 18.3121 20.762 17.952 20.7015 17.6296C20.6481 17.3456 20.5138 17.0829 20.3148 16.8734C20.0889 16.6355 19.7442 16.4977 19.0549 16.222L17.4694 15.5877C16.938 15.3752 16.6723 15.2689 16.4074 15.2608C16.1732 15.2536 15.9407 15.3013 15.7283 15.4001C15.488 15.512 15.2857 15.7143 14.881 16.119L11.7993 19.1592M7.74746 16.2473C4.74915 13.2474 3.00028 8.9985 3.00028 4L4.96761 3.5081C5.68786 3.32804 6.04798 3.238 6.37037 3.29854C6.65444 3.35188 6.91706 3.48615 7.12663 3.68522C7.36445 3.91113 7.50232 4.25579 7.77804 4.9451L8.48874 6.72184C8.67505 7.18763 8.76821 7.42053 8.78427 7.65625C8.79849 7.86484 8.76894 8.07409 8.69753 8.27058C8.61683 8.49264 8.46283 8.69065 8.15484 9.08664L5.17746 12.8376M21 3L3 21" stroke="#0000CC" stroke-width="2" stroke-linecap="round" stroke-linejoin="round"/>
</svg>
