<svg width="24" height="24" viewBox="0 0 24 24" fill="none" xmlns="http://www.w3.org/2000/svg">
<g opacity="0.14">
<path d="M20.8592 19.2086L21.4406 18.223C19.6151 16.4243 17.5576 15.2184 15.4222 14.6041C15.3361 14.5801 15.2536 14.6521 15.2657 14.7406L15.7126 18.0103C15.7785 18.5076 15.8114 18.7563 15.913 18.9696C16.0028 19.1584 16.1311 19.3263 16.2897 19.4626C16.4689 19.6166 16.7002 19.7137 17.1627 19.9079L17.863 20.2019C18.5476 20.4893 18.8898 20.633 19.2177 20.6222C19.5065 20.6126 19.7865 20.5198 20.0239 20.3549C20.2933 20.1677 20.4819 19.848 20.8592 19.2086Z" fill="#0000CC"/>
<path d="M3.14797 19.3396L2.55176 18.3626C4.20446 16.6853 6.06042 15.5055 8 14.8241C8.03346 14.8125 8.06849 14.8371 8.06891 14.8725L8.10392 17.8501V17.8501C8.10815 18.4224 8.11026 18.7085 8.02128 18.9582C7.94264 19.1788 7.81341 19.378 7.64396 19.5397C7.45223 19.7227 7.19004 19.8374 6.66568 20.0667L6.66567 20.0667L6.15845 20.2885L6.15844 20.2885C5.47824 20.586 5.13814 20.7348 4.81018 20.7288C4.52119 20.7235 4.23987 20.6348 4.00009 20.4734C3.72796 20.2903 3.53463 19.9734 3.14797 19.3396Z" fill="#0000CC"/>
</g>
<path d="M19.9999 4L16.2144 7.31238C14.7211 8.61894 13.9745 9.27223 13.1343 9.52071C12.3939 9.73967 11.606 9.73967 10.8656 9.52071C10.0253 9.27223 9.27873 8.61894 7.7855 7.31237L3.99993 4M3.99993 4H7.99993M3.99993 4V8M15.2396 14.5536L15.7121 18.0107C15.778 18.508 15.811 18.7567 15.9125 18.97C16.0023 19.1588 16.1307 19.3267 16.2892 19.463C16.4684 19.617 16.6997 19.7141 17.1622 19.9083L17.8625 20.2023C18.5471 20.4897 18.8893 20.6334 19.2172 20.6226C19.5061 20.613 19.786 20.5202 20.0234 20.3553C20.2928 20.1681 20.4814 19.8484 20.8587 19.209L21.4401 18.2234C15.8435 12.7089 8.06592 12.7662 2.55127 18.363L3.14748 19.34C3.53414 19.9738 3.72747 20.2907 3.9996 20.4738C4.23939 20.6352 4.5207 20.7239 4.80969 20.7292C5.13765 20.7352 5.47776 20.5864 6.15796 20.2889L6.66518 20.0671C7.18955 19.8378 7.45174 19.7231 7.64347 19.5401C7.81293 19.3784 7.94215 19.1792 8.02079 18.9586C8.10977 18.7089 8.10766 18.4228 8.10343 17.8505L8.06757 14.8008" stroke="#0000CC" stroke-width="2" stroke-linecap="round" stroke-linejoin="round"/>
</svg>
