<svg width="24" height="24" viewBox="0 0 24 24" fill="none" xmlns="http://www.w3.org/2000/svg">
<path opacity="0.14" d="M4.22215 8.18767C3.67772 6.54741 3.40551 5.72728 3.60365 5.22209C3.77572 4.78336 4.14397 4.45101 4.59799 4.32468C5.12078 4.17921 5.90879 4.53382 7.48483 5.24303L17.6367 9.81135C19.1797 10.5057 19.9512 10.8529 20.1896 11.3351C20.3968 11.7541 20.3968 12.2458 20.1896 12.6648C19.9512 13.1471 19.1797 13.4942 17.6367 14.1886L7.50231 18.7491C5.92151 19.4604 5.13111 19.8161 4.6078 19.6701C4.15335 19.5432 3.78506 19.21 3.61359 18.7704C3.41613 18.2643 3.69128 17.4424 4.24158 15.7986L5.24634 12.7972C5.34057 12.5157 5.38768 12.375 5.40651 12.231C5.42321 12.1032 5.42338 11.9738 5.407 11.8459C5.38855 11.7019 5.34179 11.561 5.24829 11.2793L4.22215 8.18767Z" fill="#0000CC"/>
<path d="M11.4998 12H5.41823M5.24585 12.7972L4.24109 15.7986C3.69079 17.4424 3.41564 18.2643 3.6131 18.7704C3.78458 19.21 4.15287 19.5432 4.60731 19.6701C5.13062 19.8161 5.92102 19.4604 7.50182 18.7491L17.6362 14.1886C19.1792 13.4942 19.9507 13.1471 20.1891 12.6648C20.3963 12.2458 20.3963 11.7541 20.1891 11.3351C19.9507 10.8529 19.1792 10.5057 17.6362 9.81135L7.48434 5.24303C5.90831 4.53382 5.12029 4.17921 4.5975 4.32468C4.14348 4.45101 3.77523 4.78336 3.60316 5.22209C3.40503 5.72728 3.67724 6.54741 4.22166 8.18767L5.2478 11.2793C5.34131 11.561 5.38806 11.7019 5.40651 11.8459C5.42289 11.9738 5.42273 12.1032 5.40602 12.231C5.38719 12.375 5.34008 12.5157 5.24585 12.7972Z" stroke="#0000CC" stroke-width="2" stroke-linecap="round" stroke-linejoin="round"/>
</svg>
