<svg width="24" height="24" viewBox="0 0 24 24" fill="none" xmlns="http://www.w3.org/2000/svg">
<path opacity="0.14" d="M9.05827 8.54246C8.72435 7.42461 8.55739 6.86569 8.70136 6.53184C8.82636 6.24198 9.08088 6.02815 9.38797 5.95502C9.74164 5.87081 10.2634 6.13168 11.3069 6.65342L19.1379 10.5689C20.0591 11.0295 20.5197 11.2598 20.6675 11.5715C20.7962 11.8427 20.7962 12.1573 20.6675 12.4285C20.5197 12.7402 20.0591 12.9705 19.1379 13.4311L11.3176 17.3413C10.2712 17.8645 9.748 18.1261 9.39399 18.0415C9.08664 17.9681 8.83207 17.7537 8.70742 17.4633C8.56384 17.1289 8.7326 16.5688 9.0701 15.4486L9.96161 12.4896C10.0131 12.3188 10.0388 12.2334 10.0491 12.1463C10.0583 12.069 10.0584 11.991 10.0494 11.9137C10.0393 11.8266 10.0138 11.7411 9.96269 11.5701L9.05827 8.54246Z" fill="#0000CC"/>
<path d="M20.7639 12H10.0556M3 8.00003H5.5M4 12H5.5M4.5 16H5.5M9.96153 12.4896L9.07002 15.4486C8.73252 16.5688 8.56376 17.1289 8.70734 17.4633C8.83199 17.7537 9.08656 17.9681 9.39391 18.0415C9.74792 18.1261 10.2711 17.8645 11.3175 17.3413L19.1378 13.4311C20.059 12.9705 20.5197 12.7402 20.6675 12.4285C20.7961 12.1573 20.7961 11.8427 20.6675 11.5715C20.5197 11.2598 20.059 11.0295 19.1378 10.5689L11.3068 6.65342C10.2633 6.13168 9.74156 5.87081 9.38789 5.95502C9.0808 6.02815 8.82627 6.24198 8.70128 6.53184C8.55731 6.86569 8.72427 7.42461 9.05819 8.54246L9.96261 11.5701C10.0137 11.7411 10.0392 11.8266 10.0493 11.9137C10.0583 11.991 10.0582 12.069 10.049 12.1463C10.0387 12.2334 10.013 12.3188 9.96153 12.4896Z" stroke="#0000CC" stroke-width="2" stroke-linecap="round" stroke-linejoin="round"/>
</svg>
