<svg width="24" height="24" viewBox="0 0 24 24" fill="none" xmlns="http://www.w3.org/2000/svg">
<path opacity="0.14" d="M14.9421 15.4576C15.276 16.5754 15.4429 17.1343 15.299 17.4682C15.174 17.758 14.9195 17.9719 14.6124 18.045C14.2587 18.1292 13.737 17.8683 12.6935 17.3466L4.86243 13.4311C3.94121 12.9705 3.48061 12.7402 3.3328 12.4285C3.20417 12.1573 3.20417 11.8427 3.3328 11.5715C3.48061 11.2598 3.94121 11.0295 4.86243 10.5689L12.6827 6.65877C13.7291 6.13556 14.2523 5.87396 14.6063 5.95852C14.9137 6.03194 15.1683 6.24631 15.2929 6.53669C15.4365 6.87115 15.2677 7.43124 14.9302 8.55143L14.0387 11.5104C13.9873 11.6812 13.9615 11.7667 13.9512 11.8537C13.9421 11.931 13.942 12.0091 13.9509 12.0864C13.961 12.1734 13.9866 12.2589 14.0376 12.4299L14.9421 15.4576Z" fill="#0000CC"/>
<path d="M3.23584 12H13.9442M20.9998 16H18.4998M19.9998 12H18.4998M19.4998 8H18.4998M14.0382 11.5104L14.9298 8.55143C15.2673 7.43124 15.436 6.87115 15.2924 6.53669C15.1678 6.24631 14.9132 6.03194 14.6059 5.95852C14.2519 5.87396 13.7286 6.13556 12.6822 6.65877L4.86194 10.5689C3.94072 11.0295 3.48012 11.2598 3.33231 11.5715C3.20368 11.8427 3.20368 12.1573 3.33231 12.4285C3.48012 12.7402 3.94073 12.9705 4.86194 13.4311L12.693 17.3466C13.7365 17.8683 14.2582 18.1292 14.6119 18.045C14.919 17.9719 15.1735 17.758 15.2985 17.4682C15.4425 17.1343 15.2755 16.5754 14.9416 15.4576L14.0372 12.4299C13.9861 12.2589 13.9605 12.1734 13.9505 12.0864C13.9415 12.0091 13.9416 11.931 13.9507 11.8537C13.961 11.7667 13.9868 11.6812 14.0382 11.5104Z" stroke="#0000CC" stroke-width="2" stroke-linecap="round" stroke-linejoin="round"/>
</svg>
