<svg width="24" height="24" viewBox="0 0 24 24" fill="none" xmlns="http://www.w3.org/2000/svg">
<path opacity="0.3" fill-rule="evenodd" clip-rule="evenodd" d="M10.8772 7.50758C11.183 7.46974 11.4892 7.575 11.7071 7.7929L16.2071 12.2929C16.425 12.5108 16.5303 12.817 16.4924 13.1228C16.4546 13.4286 16.2779 13.6999 16.0134 13.8581L13.9981 15.0639C13.9286 17.8524 11.9367 20.2325 9.1885 20.7821L3.19613 21.9806C2.86827 22.0462 2.52933 21.9435 2.29291 21.7071C2.05649 21.4707 1.95386 21.1318 2.01944 20.8039L3.21791 14.8115C3.76756 12.0633 6.14767 10.0714 8.9361 10.0019L10.1419 7.98658C10.3001 7.72214 10.5714 7.54542 10.8772 7.50758ZM13.1531 13.2389L10.7611 10.8469L11.1997 10.1139L13.8861 12.8003L13.1531 13.2389Z" fill="#0000CC"/>
<path d="M21.7071 2.29289C22.0976 2.68342 22.0976 3.31658 21.7071 3.70711L14.6642 10.75L13.25 9.33578L20.2929 2.29289C20.6834 1.90237 21.3166 1.90237 21.7071 2.29289Z" fill="#0000CC"/>
<path d="M10.7617 10.8469L13.1537 13.2388L13.8867 12.8003L11.2003 10.1139L10.7617 10.8469Z" fill="#0000CC"/>
</svg>
