<svg width="24" height="24" viewBox="0 0 24 24" fill="none" xmlns="http://www.w3.org/2000/svg">
<path opacity="0.3" fill-rule="evenodd" clip-rule="evenodd" d="M6 9C6 8.44772 6.44772 8 7 8H17C17.5523 8 18 8.44772 18 9V15C18 15.5523 17.5523 16 17 16H7C6.44772 16 6 15.5523 6 15V9Z" fill="#0000CC"/>
<path fill-rule="evenodd" clip-rule="evenodd" d="M3.6 8.20001C3.29698 7.97274 2.89157 7.93619 2.55279 8.10558C2.214 8.27497 2 8.62123 2 9.00001V15C2 15.3788 2.214 15.725 2.55279 15.8944C2.89157 16.0638 3.29698 16.0273 3.6 15.8L6 14V10L3.6 8.20001Z" fill="#0000CC"/>
<path fill-rule="evenodd" clip-rule="evenodd" d="M18 14V10L20.4 8.20001C20.703 7.97274 21.1084 7.93619 21.4472 8.10558C21.786 8.27497 22 8.62123 22 9.00001V15C22 15.3788 21.786 15.725 21.4472 15.8944C21.1084 16.0638 20.703 16.0273 20.4 15.8L18 14Z" fill="#0000CC"/>
</svg>
