<svg width="24" height="24" viewBox="0 0 24 24" fill="none" xmlns="http://www.w3.org/2000/svg">
<g opacity="0.3">
<path fill-rule="evenodd" clip-rule="evenodd" d="M4.41529 2.18877C4.67606 2.00081 5.01128 1.94967 5.31623 2.05132L8.16228 3.00001H10.8377L13.6838 2.05132C13.9887 1.94967 14.3239 2.00081 14.5847 2.18877C14.8455 2.37672 15 2.67856 15 3.00001V9.00001C15 9.3952 14.7673 9.75332 14.4061 9.91382L9.90614 11.9138C9.64757 12.0287 9.35243 12.0287 9.09386 11.9138L4.59386 9.91382C4.23273 9.75332 4 9.3952 4 9.00001V3.00001C4 2.67856 4.15452 2.37672 4.41529 2.18877ZM8 8C8.55229 8 9 7.55228 9 7C9 6.44772 8.55229 6 8 6C7.44772 6 7 6.44772 7 7C7 7.55228 7.44772 8 8 8ZM11 8C11.5523 8 12 7.55228 12 7C12 6.44772 11.5523 6 11 6C10.4477 6 10 6.44772 10 7C10 7.55228 10.4477 8 11 8Z" fill="#0000CC"/>
<path d="M6 11.6331V20H4.41421L3.41422 19L4.70711 17.7071C5.09763 17.3166 5.09763 16.6834 4.70711 16.2929L3.41421 15L4.70711 13.7071C5.09763 13.3166 5.09763 12.6834 4.70711 12.2929C4.31658 11.9023 3.68342 11.9023 3.29289 12.2929L1.29289 14.2929C0.902369 14.6834 0.902369 15.3166 1.29289 15.7071L2.58579 17L1.29289 18.2929C1.10536 18.4804 1 18.7348 1 19C1 19.2652 1.10536 19.5196 1.2929 19.7071L3.2929 21.7071C3.48043 21.8946 3.73479 22 4 22H6.99074L7 22L7.00926 22H11V20C11 19.7348 11.1054 19.4804 11.2929 19.2929L15.2929 15.2929C15.4804 15.1054 15.7348 15 16 15H18C18.5523 15 19 15.4477 19 16C19 16.5523 18.5523 17 18 17H16.4142L13 20.4142V22H20C20.3344 22 20.6466 21.8329 20.832 21.5547L22.832 18.5547C23.0032 18.2979 23.0463 17.9765 22.9487 17.6838L20.9487 11.6838C20.8648 11.4322 20.6844 11.2242 20.4472 11.1056L16 8.88196V9.00001C16 9.79038 15.5345 10.5066 14.8123 10.8276L10.3123 12.8276C9.79515 13.0575 9.20485 13.0575 8.68772 12.8276L6 11.6331Z" fill="#0000CC"/>
</g>
<path d="M9 7C9 7.55228 8.55228 8 8 8C7.44772 8 7 7.55228 7 7C7 6.44772 7.44772 6 8 6C8.55228 6 9 6.44772 9 7Z" fill="#0000CC"/>
<path d="M12 7C12 7.55228 11.5523 8 11 8C10.4477 8 10 7.55228 10 7C10 6.44772 10.4477 6 11 6C11.5523 6 12 6.44772 12 7Z" fill="#0000CC"/>
<path d="M15.2929 15.2929C15.4804 15.1054 15.7348 15 16 15H18C18.5523 15 19 15.4477 19 16C19 16.5523 18.5523 17 18 17H16.4142L13 20.4142V22H11V20C11 19.7348 11.1054 19.4804 11.2929 19.2929L15.2929 15.2929Z" fill="#0000CC"/>
</svg>
