<svg width="24" height="24" viewBox="0 0 24 24" fill="none" xmlns="http://www.w3.org/2000/svg">
<path opacity="0.3" fill-rule="evenodd" clip-rule="evenodd" d="M16.7647 1.9917C17.0299 1.9917 17.2842 2.09705 17.4718 2.28459L21.7144 6.52723C21.902 6.71477 22.0073 6.96912 22.0073 7.23434C22.0073 7.49956 21.902 7.75391 21.7144 7.94145L14.2075 15.4484C13.817 15.8389 13.1838 15.8389 12.7933 15.4484L11.3792 14.0343L6.25996 19.1538C5.28365 20.1301 3.70073 20.1301 2.72442 19.1538C1.74811 18.1774 1.74811 16.5945 2.72442 15.6182L16.0575 2.28461C16.2451 2.09707 16.4994 1.9917 16.7647 1.9917ZM7.75685 13.4142L4.13863 17.0324C3.94337 17.2277 3.94337 17.5443 4.13863 17.7395C4.3339 17.9348 4.65048 17.9348 4.84574 17.7395L8.46396 14.1213L7.75685 13.4142Z" fill="#0000CC"/>
<path d="M12 19.5V14.6552L12.7933 15.4484C13.1838 15.839 13.817 15.839 14.2075 15.4484L21.7144 7.94151C21.902 7.75397 22.0073 7.49962 22.0073 7.2344C22.0073 6.96918 21.902 6.71483 21.7144 6.52729L21.6874 6.50024C21.8883 6.68624 22.0084 6.9508 22.0083 7.23494L22.0007 19.751C22 20.9933 20.9927 22 19.7504 22C18.5075 22 17.5 20.9925 17.5 19.7496V18.7045C17.5 18.5665 17.3881 18.4545 17.25 18.4545C17.1119 18.4545 17 18.5665 17 18.7045V19.5C17 20.8807 15.8807 22 14.5 22C13.1193 22 12 20.8807 12 19.5Z" fill="#0000CC"/>
</svg>
