<svg width="24" height="24" viewBox="0 0 24 24" fill="none" xmlns="http://www.w3.org/2000/svg">
<path opacity="0.3" fill-rule="evenodd" clip-rule="evenodd" d="M10.8466 2.46784C10.5614 2.01409 9.9692 1.86586 9.50386 2.13177L2.50386 6.13177C2.27039 6.26518 2.10049 6.487 2.0325 6.74717C1.96451 7.00734 2.00416 7.28392 2.14251 7.51451L8.14251 17.5145C8.42237 17.9809 9.02375 18.1381 9.49606 17.8683L16.7067 13.7489C16.9433 13.6137 17.1145 13.3878 17.1807 13.1234C17.2469 12.859 17.2023 12.5791 17.0573 12.3484L10.8466 2.46784ZM9 8C9.55228 8 10 7.55228 10 7C10 6.44772 9.55228 6 9 6C8.44772 6 8 6.44772 8 7C8 7.55228 8.44772 8 9 8Z" fill="#0000CC"/>
<path fill-rule="evenodd" clip-rule="evenodd" d="M14.6787 14.9072L16.7063 13.7488C16.9429 13.6136 17.1141 13.3877 17.1803 13.1234C17.2465 12.859 17.2019 12.5791 17.0569 12.3483L17.0349 12.3135C17.0428 12.3249 17.0494 12.3365 17.0569 12.3483L21.2278 18.9823C21.8548 19.9798 21.612 21.2914 20.6694 21.9983C19.6297 22.7781 18.1483 22.5243 17.4274 21.4429L15.1685 18.0546C14.9973 17.7979 14.9543 17.4764 15.0519 17.1837L15.4064 16.12L14.6787 14.9072ZM17.1039 17.3522L17.3593 16.586L19.5345 20.0467C19.6076 20.163 19.5793 20.3159 19.4694 20.3983C19.3482 20.4892 19.1755 20.4596 19.0915 20.3335L17.1039 17.3522Z" fill="#0000CC"/>
</svg>
