<svg width="24" height="24" viewBox="0 0 24 24" fill="none" xmlns="http://www.w3.org/2000/svg">
<path opacity="0.3" fill-rule="evenodd" clip-rule="evenodd" d="M12 2C11.6962 2 11.4089 2.13809 11.2191 2.3753L7.21914 7.37531C7.01239 7.63375 6.9469 7.97775 7.04423 8.29409L11.0442 21.2941C11.1733 21.7137 11.561 22 12 22H18C18.439 22 18.8267 21.7137 18.9558 21.2941L22.9558 8.29409C23.0531 7.97775 22.9876 7.63375 22.7809 7.37531L18.7809 2.37531C18.5911 2.13809 18.3038 2 18 2H12ZM16 6C16 5.44772 15.5523 5 15 5C14.4477 5 14 5.44772 14 6V8H12C11.4477 8 11 8.44772 11 9C11 9.55228 11.4477 10 12 10H14V16C14 16.5523 14.4477 17 15 17C15.5523 17 16 16.5523 16 16V10H18C18.5523 10 19 9.55228 19 9C19 8.44772 18.5523 8 18 8H16V6Z" fill="#0000CC"/>
<path d="M7.21914 7.37531L10.3481 3.46412L10.3 3.4C10.1112 3.14819 9.81476 3 9.50001 3H5.20001C4.87839 3 4.5764 3.15469 4.38847 3.4157L1.18847 7.86014C1.01136 8.10614 0.955379 8.41919 1.03628 8.71132L4.23628 20.2669C4.35624 20.7001 4.7505 21 5.20001 21H9.5077C9.94375 21 10.3295 20.7175 10.4611 20.3017L10.6019 19.8567L7.04423 8.29409C6.9469 7.97775 7.01239 7.63375 7.21914 7.37531Z" fill="#0000CC"/>
<path d="M15 5C15.5523 5 16 5.44772 16 6V8H18C18.5523 8 19 8.44772 19 9C19 9.55228 18.5523 10 18 10H16V16C16 16.5523 15.5523 17 15 17C14.4477 17 14 16.5523 14 16V10H12C11.4477 10 11 9.55228 11 9C11 8.44772 11.4477 8 12 8H14V6C14 5.44772 14.4477 5 15 5Z" fill="#0000CC"/>
</svg>
