<svg width="24" height="24" viewBox="0 0 24 24" fill="none" xmlns="http://www.w3.org/2000/svg">
<path opacity="0.3" fill-rule="evenodd" clip-rule="evenodd" d="M8 3C8 2.44772 7.55229 2 7 2C6.44772 2 6 2.44772 6 3V4.00003C5.54097 4.00031 5.14075 4.00314 4.80498 4.03057C4.40963 4.06287 4.01641 4.13419 3.63803 4.32698C3.07355 4.6146 2.6146 5.07354 2.32698 5.63803C2.13419 6.01641 2.06287 6.40963 2.03057 6.80497C1.99997 7.17953 1.99998 7.6343 2 8.16142V17H16V14.6C16 14.0399 16 13.7599 16.109 13.546C16.2049 13.3578 16.3578 13.2049 16.546 13.109C16.7599 13 17.0399 13 17.6 13H22L16 19H2.01762C2.02118 19.0672 2.02544 19.1323 2.03057 19.195C2.06287 19.5904 2.13419 19.9836 2.32698 20.362C2.6146 20.9265 3.07355 21.3854 3.63803 21.673C4.01641 21.8658 4.40963 21.9371 4.80498 21.9694C5.17954 22 5.6343 22 6.16144 22H17.8386C18.3657 22 18.8205 22 19.195 21.9694C19.5904 21.9371 19.9836 21.8658 20.362 21.673C20.9265 21.3854 21.3854 20.9265 21.673 20.362C21.8658 19.9836 21.9371 19.5904 21.9694 19.195C22 18.8205 22 18.3657 22 17.8386L22 13L22 8.16144C22 7.6343 22 7.17954 21.9694 6.80497C21.9371 6.40963 21.8658 6.01641 21.673 5.63803C21.3854 5.07354 20.9265 4.6146 20.362 4.32698C19.9836 4.13419 19.5904 4.06287 19.195 4.03057C18.8593 4.00314 18.459 4.00031 18 4.00003V3C18 2.44772 17.5523 2 17 2C16.4477 2 16 2.44772 16 3V4H8V3ZM7 7C6.44772 7 6 7.44772 6 8C6 8.55228 6.44772 9 7 9H17C17.5523 9 18 8.55228 18 8C18 7.44772 17.5523 7 17 7H7ZM10.7071 11.2929C10.3166 10.9024 9.68342 10.9024 9.29289 11.2929L8 12.5858L7.70711 12.2929C7.31658 11.9024 6.68342 11.9024 6.29289 12.2929C5.90237 12.6834 5.90237 13.3166 6.29289 13.7071L7.29289 14.7071C7.68342 15.0976 8.31658 15.0976 8.70711 14.7071L10.7071 12.7071C11.0976 12.3166 11.0976 11.6834 10.7071 11.2929Z" fill="#0000CC"/>
<path d="M6 8C6 7.44772 6.44772 7 7 7H17C17.5523 7 18 7.44772 18 8C18 8.55228 17.5523 9 17 9H7C6.44772 9 6 8.55228 6 8Z" fill="#0000CC"/>
<path d="M9.29289 11.2929C9.68342 10.9024 10.3166 10.9024 10.7071 11.2929C11.0976 11.6834 11.0976 12.3166 10.7071 12.7071L8.70711 14.7071C8.31658 15.0976 7.68342 15.0976 7.29289 14.7071L6.29289 13.7071C5.90237 13.3166 5.90237 12.6834 6.29289 12.2929C6.68342 11.9024 7.31658 11.9024 7.70711 12.2929L8 12.5858L9.29289 11.2929Z" fill="#0000CC"/>
<path d="M16 17H2L2.01762 19H16L22 13H17.6C17.0399 13 16.7599 13 16.546 13.109C16.3578 13.2049 16.2049 13.3578 16.109 13.546C16 13.7599 16 14.0399 16 14.6V17Z" fill="#0000CC"/>
</svg>
