<svg width="24" height="24" viewBox="0 0 24 24" fill="none" xmlns="http://www.w3.org/2000/svg">
<path opacity="0.3" fill-rule="evenodd" clip-rule="evenodd" d="M7 2C7.55229 2 8 2.44772 8 3V4H16V3C16 2.44772 16.4477 2 17 2C17.5523 2 18 2.44772 18 3V4.00003C18.459 4.00031 18.8593 4.00314 19.195 4.03057C19.5904 4.06287 19.9836 4.13419 20.362 4.32698C20.9265 4.6146 21.3854 5.07354 21.673 5.63803C21.8658 6.01641 21.9371 6.40963 21.9694 6.80497C22 7.17954 22 7.6343 22 8.16144V17.8386C22 18.3657 22 18.8205 21.9694 19.195C21.9371 19.5904 21.8658 19.9836 21.673 20.362C21.3854 20.9265 20.9265 21.3854 20.362 21.673C19.9836 21.8658 19.5904 21.9371 19.195 21.9694C18.8205 22 18.3657 22 17.8386 22H6.16144C5.6343 22 5.17954 22 4.80498 21.9694C4.40963 21.9371 4.01641 21.8658 3.63803 21.673C3.07355 21.3854 2.6146 20.9265 2.32698 20.362C2.13419 19.9836 2.06287 19.5904 2.03057 19.195C1.99997 18.8205 1.99999 18.3657 2 17.8386V8.16142C1.99999 7.63432 1.99997 7.17952 2.03057 6.80497C2.06287 6.40963 2.13419 6.01641 2.32698 5.63803C2.6146 5.07354 3.07355 4.6146 3.63803 4.32698C4.01641 4.13419 4.40963 4.06287 4.80498 4.03057C5.14075 4.00314 5.54097 4.00031 6 4.00003V3C6 2.44772 6.44772 2 7 2Z" fill="#0000CC"/>
<path fill-rule="evenodd" clip-rule="evenodd" d="M8.63803 8.56185C8.79785 8.64971 8.89715 8.81762 8.89715 9C8.89715 9.80717 9.47862 10.5158 10.299 10.7242V9.00042C10.299 8.77041 10.456 8.57007 10.6793 8.51498C10.9026 8.45988 11.1347 8.56424 11.2417 8.76785L11.7016 9.64322H12.2984L12.7583 8.76785C12.8653 8.56424 13.0974 8.45988 13.3207 8.51498C13.544 8.57007 13.701 8.77041 13.701 9.00042V10.7242C14.5217 10.5159 15.1034 9.80741 15.1034 9.00042C15.1034 8.81804 15.2027 8.65013 15.3626 8.56227C15.5224 8.47441 15.7174 8.48053 15.8713 8.57825C16.8948 9.22772 17.5487 10.2643 17.9457 11.3332C18.3436 12.4044 18.5 13.5501 18.5 14.4849C18.5 14.634 18.4335 14.7753 18.3186 14.8703C18.2037 14.9653 18.0524 15.0041 17.9059 14.976C17.7443 14.945 17.5766 14.9287 17.4043 14.9287C16.5392 14.9287 15.784 15.341 15.3362 15.9585C15.257 16.0677 15.1369 16.1403 15.0034 16.1597C14.8698 16.1792 14.7341 16.1438 14.627 16.0616C14.404 15.8904 14.1176 15.7858 13.8014 15.7858C13.059 15.7858 12.5 16.3525 12.5 17C12.5 17.2761 12.2761 17.5 12 17.5C11.7239 17.5 11.5 17.2761 11.5 17C11.5 16.3525 10.941 15.7858 10.1986 15.7858C9.88241 15.7858 9.596 15.8904 9.37295 16.0616C9.26589 16.1438 9.13016 16.1792 8.9966 16.1597C8.86305 16.1403 8.74302 16.0677 8.66379 15.9585C8.216 15.341 7.46077 14.9287 6.59572 14.9287C6.42344 14.9287 6.25572 14.945 6.09407 14.976C5.94764 15.0041 5.79634 14.9653 5.68144 14.8703C5.56653 14.7753 5.5 14.634 5.5 14.4849C5.5 13.5501 5.65637 12.4044 6.05434 11.3331C6.45147 10.2641 7.10554 9.22749 8.12924 8.57784C8.28322 8.48011 8.47821 8.47399 8.63803 8.56185Z" fill="#0000CC"/>
</svg>
