<svg width="24" height="24" viewBox="0 0 24 24" fill="none" xmlns="http://www.w3.org/2000/svg">
<g opacity="0.3">
<path fill-rule="evenodd" clip-rule="evenodd" d="M13.1123 2.09558C12.3856 1.88513 11.614 1.88513 10.8872 2.09558C10.4227 2.23009 10.0231 2.46433 9.62184 2.75627C9.23765 3.0358 8.79921 3.40859 8.27129 3.85746L3.95609 7.52635C3.4183 7.98311 3.01213 8.32809 2.71277 8.75978C2.57818 8.95387 2.46129 9.15913 2.36328 9.37306L9.45267 14.0989L9.64881 13.9612L9.6687 13.9476L9.78026 13.873C10.3093 13.5193 10.7742 13.2084 11.2993 13.0826C11.7589 12.9724 12.238 12.9724 12.6976 13.0826C13.2227 13.2084 13.6875 13.5193 14.2166 13.873L14.3282 13.9476L14.3479 13.9611L14.5443 14.0989L21.6359 9.37229C21.538 9.15864 21.4212 8.95364 21.2868 8.75978C20.9874 8.32809 20.5813 7.98311 20.0435 7.52636L15.7283 3.85747C15.2004 3.4086 14.7619 3.0358 14.3777 2.75627C13.9765 2.46433 13.5769 2.23009 13.1123 2.09558ZM10.9474 9.10555C11.4414 9.35254 11.6416 9.95321 11.3946 10.4472C11.1477 10.9412 10.547 11.1414 10.053 10.8944L9.05301 10.3944C8.55903 10.1474 8.3588 9.54674 8.60579 9.05276C8.85278 8.55878 9.45345 8.35856 9.94743 8.60555L10.9474 9.10555ZM12.6054 10.4472C12.3584 9.95321 12.5586 9.35254 13.0526 9.10555L14.0526 8.60555C14.5465 8.35856 15.1472 8.55878 15.3942 9.05276C15.6412 9.54674 15.441 10.1474 14.947 10.3944L13.947 10.8944C13.453 11.1414 12.8523 10.9412 12.6054 10.4472Z" fill="#0000CC"/>
<path d="M18.6061 13.7954L22.0001 11.5333C22.0002 11.604 22.0002 11.6764 22.0001 11.7508L22.0001 16.2413C22.0001 17.0463 22.0001 17.7106 21.9559 18.2518C21.927 18.6048 21.8775 18.9398 21.7833 19.2605L16.2907 15.3387L18.4995 13.8665C18.5366 13.8451 18.5722 13.8213 18.6061 13.7954Z" fill="#0000CC"/>
<path d="M20.7042 20.9475L13.9676 16.1375C13.9571 16.1304 13.9468 16.1231 13.9367 16.1156L13.2091 15.6051C12.5108 15.1397 12.3628 15.0589 12.2318 15.0275C12.0786 14.9908 11.9189 14.9908 11.7657 15.0275C11.6346 15.0589 11.4867 15.1397 10.7884 15.605L10.0624 16.1147C10.0514 16.1229 10.0403 16.1307 10.029 16.1384L3.29551 20.9471C3.56082 21.1905 3.85937 21.3985 4.18412 21.564C4.66945 21.8113 5.18615 21.9099 5.74825 21.9558C6.28944 22 6.95379 22 7.75875 22H16.2414C17.0464 22 17.7107 22 18.2519 21.9558C18.814 21.9099 19.3307 21.8113 19.816 21.564C20.1406 21.3986 20.439 21.1908 20.7042 20.9475Z" fill="#0000CC"/>
<path d="M2.21667 19.2599L7.70719 15.3388L5.48313 13.8562C5.45801 13.841 5.43361 13.8247 5.41 13.8075L2.00009 11.5344C1.99996 11.6069 2 11.6812 2.00004 11.7576L2.00008 16.2413C2.00006 17.0462 2.00005 17.7106 2.04427 18.2518C2.07309 18.6045 2.12264 18.9394 2.21667 19.2599Z" fill="#0000CC"/>
</g>
<path fill-rule="evenodd" clip-rule="evenodd" d="M19 11.1291L14.5443 14.0989L14.3479 13.9611L14.3282 13.9476L14.2166 13.873C13.6875 13.5192 13.2227 13.2084 12.6976 13.0825C12.238 12.9724 11.7589 12.9724 11.2993 13.0825C10.7742 13.2084 10.3093 13.5192 9.78026 13.873L9.6687 13.9476L9.64881 13.9612L9.45267 14.0989L5 11.1307V6C5 5.44772 5.44772 5 6 5H18C18.5523 5 19 5.44772 19 6V11.1291ZM11.3946 10.4472C11.6416 9.95321 11.4414 9.35254 10.9474 9.10555L9.94743 8.60555C9.45345 8.35856 8.85278 8.55878 8.60579 9.05276C8.3588 9.54674 8.55903 10.1474 9.05301 10.3944L10.053 10.8944C10.547 11.1414 11.1477 10.9412 11.3946 10.4472ZM13.0526 9.10555C12.5586 9.35254 12.3584 9.95321 12.6054 10.4472C12.8523 10.9412 13.453 11.1414 13.947 10.8944L14.947 10.3944C15.441 10.1474 15.6412 9.54674 15.3942 9.05276C15.1472 8.55878 14.5465 8.35856 14.0526 8.60555L13.0526 9.10555Z" fill="#0000CC"/>
</svg>
