<svg width="24" height="24" viewBox="0 0 24 24" fill="none" xmlns="http://www.w3.org/2000/svg">
<path opacity="0.3" fill-rule="evenodd" clip-rule="evenodd" d="M2 19.5C2 18.1193 3.11929 17 4.5 17H19.5C20.8807 17 22 18.1193 22 19.5C22 20.8807 20.8807 22 19.5 22H4.5C3.11929 22 2 20.8807 2 19.5Z" fill="#0000CC"/>
<path d="M16.6067 2.2053C16.9102 2.43713 17.0552 2.82161 16.9803 3.19612L16.1668 7.26333C16.0908 7.64326 16.0793 7.71831 16.0777 7.78522C16.0759 7.86234 16.0829 7.93941 16.0988 8.0149C16.1126 8.08039 16.1375 8.1521 16.2814 8.51184L19.6767 17H14.9997V14.6C14.9997 14.0399 14.9997 13.7599 14.8907 13.546C14.7948 13.3578 14.6418 13.2049 14.4537 13.109C14.2397 13 13.9597 13 13.3997 13H10.5997C10.0396 13 9.75959 13 9.54568 13.109C9.35752 13.2049 9.20454 13.3578 9.10866 13.546C8.99967 13.7599 8.99967 14.0399 8.99967 14.6V17H4.33301L8.20012 7.71888C8.5011 6.99601 8.70952 6.49544 9.01706 6.054C9.289 5.66367 9.61524 5.31416 9.98593 5.01601C10.4052 4.67881 10.8902 4.43646 11.5907 4.08644L15.5525 2.10558C15.8941 1.93477 16.3031 1.97347 16.6067 2.2053Z" fill="#0000CC"/>
<path d="M10.9997 17H12.9997V15H10.9997V17Z" fill="#0000CC"/>
</svg>
