<svg width="24" height="24" viewBox="0 0 24 24" fill="none" xmlns="http://www.w3.org/2000/svg">
<path opacity="0.3" fill-rule="evenodd" clip-rule="evenodd" d="M12.6972 2C11.9273 2 11.2083 2.3848 10.7812 3.02543L9.35862 5.15929C8.9197 5.05498 8.46533 5 8 5C3.93731 5 1 9.02534 1 13.5C1 17.9747 3.93731 22 8 22C8.69622 22 9.36791 21.8769 10 21.6497C10.6321 21.8769 11.3038 22 12 22C12.6962 22 13.3679 21.8769 14 21.6497C14.6321 21.8769 15.3038 22 16 22C20.0627 22 23 17.9747 23 13.5C23 9.02534 20.0627 5 16 5C15.6602 5 15.3263 5.02931 15 5.08573V4.30278C15 3.03099 13.969 2 12.6972 2ZM12 5C11.9557 5 11.9116 5.0005 11.8675 5.00149L12.4453 4.13483C12.5015 4.05059 12.596 4 12.6972 4C12.8644 4 13 4.13556 13 4.30278V5.08573C12.6737 5.02931 12.3398 5 12 5ZM7.37166 9.07154C6.85887 8.86643 6.2769 9.11585 6.07179 9.62863C5.86668 10.1414 6.11609 10.7234 6.62888 10.9285L7.72581 11.3673C7.4041 11.7601 7.42655 12.3405 7.79316 12.7071C8.18368 13.0977 8.81685 13.0977 9.20737 12.7071L10.2074 11.7071C10.4451 11.4694 10.5474 11.1282 10.4798 10.799C10.4123 10.4697 10.1838 10.1964 9.87166 10.0715L7.37166 9.07154ZM16.1283 9.07154C16.6411 8.86643 17.2231 9.11585 17.4282 9.62863C17.6333 10.1414 17.3839 10.7234 16.8711 10.9285L15.7742 11.3673C16.0959 11.7601 16.0735 12.3405 15.7068 12.7071C15.3163 13.0977 14.6832 13.0977 14.2926 12.7071L13.2926 11.7071C13.0549 11.4694 12.9526 11.1282 13.0202 10.799C13.0877 10.4697 13.3162 10.1964 13.6283 10.0715L16.1283 9.07154ZM6.44541 14.1679C6.90493 13.8616 7.5258 13.9858 7.83216 14.4453L8.27746 15.1132L8.94541 14.6679C9.40493 14.3616 10.0258 14.4858 10.3322 14.9453L10.6555 15.4303L11.293 14.7929C11.6835 14.4024 12.3167 14.4024 12.7072 14.7929L13.3447 15.4303L13.6681 14.9453C13.9744 14.4858 14.5953 14.3616 15.0548 14.6679L15.7228 15.1132L16.1681 14.4453C16.4744 13.9858 17.0953 13.8616 17.5548 14.1679C18.0143 14.4743 18.1385 15.0952 17.8322 15.5547L16.8322 17.0547C16.5258 17.5142 15.9049 17.6384 15.4454 17.332L14.7775 16.8867L14.3322 17.5547C14.166 17.804 13.8968 17.9656 13.5986 17.9951C13.3005 18.0246 13.0048 17.9189 12.793 17.7071L12.0001 16.9142L11.2072 17.7071C10.9954 17.9189 10.6997 18.0246 10.4016 17.9951C10.1034 17.9656 9.83424 17.804 9.66806 17.5547L9.22276 16.8867L8.55481 17.332C8.09528 17.6384 7.47441 17.5142 7.16806 17.0547L6.16806 15.5547C5.8617 15.0952 5.98588 14.4743 6.44541 14.1679Z" fill="#0000CC"/>
<path fill-rule="evenodd" clip-rule="evenodd" d="M7.37166 9.07155C6.85887 8.86643 6.2769 9.11585 6.07179 9.62863C5.86668 10.1414 6.11609 10.7234 6.62888 10.9285L7.72581 11.3673C7.4041 11.7601 7.42655 12.3405 7.79316 12.7071C8.18368 13.0977 8.81685 13.0977 9.20737 12.7071L10.2074 11.7071C10.4451 11.4694 10.5474 11.1282 10.4798 10.799C10.4123 10.4697 10.1838 10.1964 9.87166 10.0715L7.37166 9.07155ZM16.1283 9.07155C16.6411 8.86643 17.2231 9.11585 17.4282 9.62863C17.6333 10.1414 17.3839 10.7234 16.8711 10.9285L15.7742 11.3673C16.0959 11.7601 16.0735 12.3405 15.7068 12.7071C15.3163 13.0977 14.6832 13.0977 14.2926 12.7071L13.2926 11.7071C13.0549 11.4694 12.9526 11.1282 13.0202 10.799C13.0877 10.4697 13.3162 10.1964 13.6283 10.0715L16.1283 9.07155ZM6.44541 14.1679C6.90493 13.8616 7.5258 13.9858 7.83216 14.4453L8.27746 15.1132L8.94541 14.6679C9.40493 14.3616 10.0258 14.4858 10.3322 14.9453L10.6555 15.4303L11.293 14.7929C11.6835 14.4024 12.3167 14.4024 12.7072 14.7929L13.3447 15.4303L13.6681 14.9453C13.9744 14.4858 14.5953 14.3616 15.0548 14.6679L15.7228 15.1132L16.1681 14.4453C16.4744 13.9858 17.0953 13.8616 17.5548 14.1679C18.0143 14.4743 18.1385 15.0952 17.8322 15.5547L16.8322 17.0547C16.5258 17.5142 15.9049 17.6384 15.4454 17.332L14.7775 16.8867L14.3322 17.5547C14.166 17.804 13.8968 17.9656 13.5986 17.9951C13.3005 18.0246 13.0048 17.9189 12.793 17.7071L12.0001 16.9142L11.2072 17.7071C10.9954 17.9189 10.6997 18.0246 10.4016 17.9951C10.1034 17.9656 9.83424 17.804 9.66806 17.5547L9.22276 16.8867L8.55481 17.332C8.09528 17.6384 7.47441 17.5142 7.16806 17.0547L6.16806 15.5547C5.8617 15.0952 5.98588 14.4743 6.44541 14.1679Z" fill="#0000CC"/>
</svg>
