<svg width="24" height="24" viewBox="0 0 24 24" fill="none" xmlns="http://www.w3.org/2000/svg">
<g opacity="0.3">
<path d="M10 2C9.56957 2 9.18743 2.27543 9.05132 2.68377L8.27924 5H7C6.44772 5 6 5.44772 6 6C6 6.55228 6.44772 7 7 7H8.97694C8.99245 7.00036 9.00792 7.00036 9.02334 7H14.9767C14.9921 7.00036 15.0076 7.00036 15.0231 7H17C17.5523 7 18 6.55228 18 6C18 5.44772 17.5523 5 17 5H15.7208L14.9487 2.68377C14.8126 2.27543 14.4304 2 14 2H10Z" fill="#0000CC"/>
<path d="M8.83682 9C9.39855 10.1825 10.6038 11 12 11C13.3962 11 14.6015 10.1825 15.1632 9H18C18.5523 9 19 9.44772 19 10V14C19 14.5523 18.5523 15 18 15H15.605L15.995 18.9005C16.0231 19.1816 15.931 19.4615 15.7415 19.671C15.5519 19.8805 15.2825 20 15 20H9C8.71747 20 8.44813 19.8805 8.25855 19.671C8.06897 19.4615 7.97685 19.1816 8.00496 18.9005L8.39501 15H6C5.44772 15 5 14.5523 5 14V10C5 9.44772 5.44772 9 6 9H8.83682Z" fill="#0000CC"/>
</g>
<path d="M8.5 7.5C8.5 7.33034 8.51213 7.16339 8.53557 7H8.97694C8.99244 7.00036 9.00792 7.00036 9.02334 7H14.9767C14.9921 7.00036 15.0076 7.00036 15.0231 7H15.4644C15.4879 7.1634 15.5 7.33035 15.5 7.5C15.5 9.433 13.933 11 12 11C10.067 11 8.5 9.433 8.5 7.5Z" fill="#0000CC"/>
<path d="M5 11H3C2.44772 11 2 11.4477 2 12C2 12.5523 2.44772 13 3 13H5V11Z" fill="#0000CC"/>
<path d="M11 20V21C11 21.5523 11.4477 22 12 22C12.5523 22 13 21.5523 13 21V20H11Z" fill="#0000CC"/>
<path d="M21 13H19V11H21C21.5523 11 22 11.4477 22 12C22 12.5523 21.5523 13 21 13Z" fill="#0000CC"/>
</svg>
