<svg width="24" height="24" viewBox="0 0 24 24" fill="none" xmlns="http://www.w3.org/2000/svg">
<path opacity="0.3" d="M3.47168 5.61813C3.5831 5.67763 3.68502 5.75937 3.77054 5.8627L7.32649 10.1595C11.2492 6.86412 16.1904 5.40388 21.0187 5.78062C21.4948 5.81777 21.9307 5.51317 22.0595 5.05338C22.1883 4.59359 21.974 4.10688 21.5479 3.89134C15.7881 0.977458 8.71541 1.55142 3.47168 5.61813Z" fill="#0000CC"/>
<path fill-rule="evenodd" clip-rule="evenodd" d="M2.36246 5.72988C2.78794 5.37776 3.4183 5.43723 3.77042 5.8627L15.7704 20.3627C16.1225 20.7882 16.0631 21.4185 15.6376 21.7707C15.2121 22.1228 14.5818 22.0633 14.2296 21.6378L2.22963 7.13784C1.87751 6.71236 1.93698 6.082 2.36246 5.72988Z" fill="#0000CC"/>
</svg>
