<svg width="24" height="24" viewBox="0 0 24 24" fill="none" xmlns="http://www.w3.org/2000/svg">
<path opacity="0.3" fill-rule="evenodd" clip-rule="evenodd" d="M9.06794 4.66251L10.1443 6.59992C11.3738 6.79665 12.6268 6.79665 13.8564 6.59991L14.9327 4.66251C15.3699 4.57199 15.8039 4.46102 16.2332 4.32959C16.3368 4.81245 16.4638 5.28833 16.6133 5.75569L15.593 7.5923C16.0451 8.81786 16.6816 9.96693 17.48 10.9999H19.5573C19.8574 11.3467 20.174 11.6804 20.5065 12C20.174 12.3195 19.8574 12.6532 19.5573 13H17.48C16.6815 14.033 16.0451 15.182 15.593 16.4075L16.6133 18.2442C16.4638 18.7115 16.3368 19.1874 16.2332 19.6703C15.8039 19.5389 15.3699 19.4279 14.9327 19.3374L13.8564 17.3999C12.6268 17.2032 11.3738 17.2032 10.1443 17.3999L9.06793 19.3374C8.63077 19.4279 8.19679 19.5389 7.76744 19.6703C7.66389 19.1874 7.53689 18.7115 7.38734 18.2442L8.40769 16.4075C7.95553 15.182 7.31911 14.033 6.52069 13H4.44336C4.1433 12.6532 3.82665 12.3195 3.49414 12C3.82665 11.6804 4.1433 11.3467 4.44337 10.9999H6.52066C7.31909 9.96693 7.95552 8.81786 8.40769 7.5923L7.38735 5.7557C7.5369 5.28833 7.66389 4.81245 7.76744 4.32959C8.1968 4.46102 8.63078 4.57199 9.06794 4.66251ZM8.95389 10.9999C9.19802 10.6084 9.42377 10.2057 9.63039 9.79316L10.3008 10.9999H8.95389ZM8.95392 13H10.3008L9.63039 14.2067C9.42378 13.7941 9.19804 13.3915 8.95392 13ZM12.0003 14.0591L12.6724 15.2688C12.2246 15.2469 11.776 15.2469 11.3282 15.2688L12.0003 14.0591ZM14.3703 14.2067L13.6999 13H15.0467C14.8026 13.3915 14.5769 13.7941 14.3703 14.2067ZM14.3703 9.79316C14.5769 10.2057 14.8026 10.6084 15.0468 10.9999H13.6998L14.3703 9.79316ZM12.6724 8.73102L12.0003 9.9408L11.3282 8.73102C11.776 8.75294 12.2246 8.75294 12.6724 8.73102Z" fill="#0000CC"/>
<path fill-rule="evenodd" clip-rule="evenodd" d="M17.484 2.12493C17.7467 2.27021 17.9302 2.52579 17.9839 2.82112L18.0331 3.09176C18.1091 3.51008 18.1437 3.69975 18.1824 3.8821C18.7387 6.50426 20.0919 8.89037 22.0569 10.7136C22.1935 10.8404 22.3385 10.9675 22.6585 11.2474C22.8755 11.4373 23 11.7117 23 12C23 12.2884 22.8755 12.5627 22.6585 12.7526C22.3386 13.0326 22.1935 13.1596 22.0569 13.2864C20.092 15.1097 18.7387 17.4958 18.1824 20.118C18.1437 20.3003 18.1091 20.49 18.0331 20.9083L17.9839 21.1789C17.9302 21.4742 17.7467 21.7298 17.484 21.8751C17.2213 22.0203 16.9073 22.04 16.6286 21.9285C13.6573 20.74 10.3427 20.74 7.37139 21.9285C7.09269 22.04 6.77866 22.0203 6.516 21.8751C6.25334 21.7298 6.06982 21.4742 6.01613 21.1789L5.96692 20.9083C5.89087 20.49 5.85629 20.3003 5.81761 20.118C5.26132 17.4958 3.90804 15.1097 1.94309 13.2864C1.80647 13.1596 1.66145 13.0326 1.3415 12.7526C1.12448 12.5627 1 12.2884 1 12C1 11.7117 1.12448 11.4373 1.3415 11.2474C1.66144 10.9675 1.80645 10.8405 1.94308 10.7137C3.90804 8.89041 5.26132 6.50426 5.81761 3.88205C5.85628 3.69972 5.89087 3.51007 5.96692 3.0918L6.01613 2.82112C6.06982 2.52579 6.25334 2.27021 6.516 2.12493C6.77867 1.97965 7.0927 1.96005 7.37139 2.07153C10.3427 3.26006 13.6573 3.26006 16.6286 2.07153C16.9073 1.96005 17.2213 1.97965 17.484 2.12493ZM7.76712 4.32966C7.13929 7.25711 5.65017 9.92796 3.49382 12C5.65016 14.0721 7.13928 16.7429 7.76712 19.6704C10.5254 18.826 13.4746 18.826 16.2329 19.6704C16.8607 16.7429 18.3498 14.0721 20.5062 12C18.3498 9.92796 16.8607 7.25711 16.2329 4.32966C13.4746 5.17401 10.5254 5.17401 7.76712 4.32966Z" fill="#0000CC"/>
</svg>
