<svg width="24" height="24" viewBox="0 0 24 24" fill="none" xmlns="http://www.w3.org/2000/svg">
<path opacity="0.3" fill-rule="evenodd" clip-rule="evenodd" d="M9.85248 6.2681C10.2085 5.9276 10.7089 5.78359 11.1914 5.88282C11.5864 5.96404 11.8564 6.22066 12.0002 6.37598C12.1441 6.22066 12.4141 5.96404 12.809 5.88282C13.2916 5.78359 13.792 5.9276 14.148 6.2681C14.4724 6.57841 14.55 6.99054 14.5825 7.18022C14.6207 7.40267 14.6441 7.68387 14.6684 7.97592C14.6694 7.98854 14.6705 8.00118 14.6715 8.01384L14.9217 11.0187C14.9309 11.1285 14.9361 11.1907 14.9412 11.2361C14.9415 11.2394 14.9419 11.2424 14.9422 11.2452C14.9511 11.2581 14.9629 11.2751 14.9786 11.297C15.0318 11.3717 15.1077 11.4745 15.2192 11.6255C15.7097 12.2896 16 13.1124 16 14C16 16.2091 14.2091 18 12 18C9.79086 18 8 16.2091 8 14C8 13.1123 8.29034 12.2895 8.78091 11.6253C8.89238 11.4744 8.96825 11.3716 9.0215 11.2969C9.03713 11.275 9.04897 11.2581 9.05784 11.2452C9.05816 11.2424 9.05851 11.2393 9.05888 11.236C9.06392 11.1906 9.0692 11.1284 9.07835 11.0187L9.32895 8.01384C9.33001 8.0012 9.33106 7.98852 9.33211 7.97592C9.35641 7.68387 9.37981 7.40267 9.41793 7.18022C9.45044 6.99054 9.52805 6.57841 9.85248 6.2681Z" fill="#0000CC"/>
<path d="M8.1581 3.28737C8.31679 2.75837 8.01661 2.20089 7.48762 2.04219C6.95863 1.8835 6.40114 2.18368 6.24244 2.71267L5.04244 6.71267C4.95122 7.01674 5.0098 7.34606 5.20027 7.60002L6.77951 9.70567L5.26909 9.2022L3.9366 5.6489C3.74268 5.13178 3.16627 4.86977 2.64915 5.06369C2.13203 5.25761 1.87002 5.83402 2.06394 6.35114L3.56394 10.3511C3.6699 10.6337 3.89777 10.8533 4.18404 10.9487L7.26639 11.9762L3.71292 13.0422C3.34769 13.1518 3.07656 13.4595 3.01388 13.8356L2.51388 16.8356C2.42308 17.3804 2.7911 17.8956 3.33587 17.9864C3.88064 18.0772 4.39587 17.7092 4.48667 17.1644L4.88426 14.7789L6.59955 14.2643L5.24101 15.8492C4.98989 16.1422 4.92974 16.5535 5.08646 16.9062L7.08646 21.4062C7.31076 21.9108 7.90173 22.1381 8.40641 21.9138C8.91109 21.6895 9.13839 21.0986 8.91408 20.5939L7.17065 16.6712L8.25439 15.4068C8.08995 14.9692 8 14.4951 8 14C8 13.1123 8.29034 12.2895 8.78091 11.6253C8.89238 11.4744 8.96825 11.3716 9.0215 11.2969C9.03713 11.275 9.04897 11.2581 9.05784 11.2452L9.05888 11.236C9.06392 11.1906 9.0692 11.1284 9.07835 11.0187L9.19703 9.59569L7.10315 6.80386L8.1581 3.28737Z" fill="#0000CC"/>
<path d="M15.7458 15.4064C15.9101 14.9689 16 14.4949 16 14C16 13.1124 15.7097 12.2896 15.2192 11.6255C15.1077 11.4745 15.0318 11.3717 14.9786 11.297C14.9629 11.2751 14.9511 11.2581 14.9422 11.2452L14.9412 11.2361C14.9361 11.1907 14.9309 11.1285 14.9217 11.0187L14.8033 9.59602L16.8974 6.80386L15.8424 3.28737C15.6837 2.75837 15.9839 2.20089 16.5129 2.04219C17.0419 1.8835 17.5994 2.18368 17.7581 2.71267L18.9581 6.71267C19.0493 7.01674 18.9907 7.34606 18.8003 7.60002L17.221 9.70567L18.7315 9.2022L20.0639 5.6489C20.2579 5.13178 20.8343 4.86977 21.3514 5.06369C21.8685 5.25761 22.1305 5.83402 21.9366 6.35114L20.4366 10.3511C20.3306 10.6337 20.1028 10.8533 19.8165 10.9487L16.7342 11.9762L20.2876 13.0422C20.6528 13.1518 20.924 13.4595 20.9867 13.8356L21.4867 16.8356C21.5775 17.3804 21.2094 17.8956 20.6647 17.9864C20.1199 18.0772 19.6047 17.7092 19.5139 17.1644L19.1163 14.7789L17.401 14.2643L18.7595 15.8492C19.0107 16.1422 19.0708 16.5535 18.9141 16.9062L16.9141 21.4062C16.6898 21.9108 16.0988 22.1381 15.5941 21.9138C15.0894 21.6895 14.8622 21.0986 15.0865 20.5939L16.8299 16.6712L15.7458 15.4064Z" fill="#0000CC"/>
</svg>
