<svg width="24" height="24" viewBox="0 0 24 24" fill="none" xmlns="http://www.w3.org/2000/svg">
<path opacity="0.3" fill-rule="evenodd" clip-rule="evenodd" d="M19.472 2.27487C19.8297 2.14616 20.2229 2.15807 20.5721 2.30818C20.7516 2.38531 20.8833 2.48894 20.9717 2.56621C21.0478 2.6328 21.1281 2.71317 21.1947 2.77978L21.2208 2.8059C21.2874 2.87247 21.3678 2.95279 21.4344 3.02891C21.5116 3.11724 21.6153 3.24897 21.6924 3.42842C21.8425 3.77767 21.8544 4.17089 21.7257 4.52859C21.6596 4.71238 21.5641 4.85013 21.4923 4.94298C21.4304 5.023 21.3551 5.10805 21.2926 5.17853L7.35431 20.9153C7.17731 21.1152 7.00604 21.3086 6.84801 21.4595C6.67545 21.6244 6.45297 21.8047 6.15452 21.9158C5.7432 22.069 5.29291 22.0826 4.87307 21.9546C4.56845 21.8617 4.33547 21.6952 4.15325 21.5411C3.98638 21.4 3.80374 21.2173 3.61497 21.0285L2.97206 20.3856C2.78325 20.1968 2.60056 20.0142 2.45945 19.8473C2.30536 19.6651 2.13886 19.4321 2.04596 19.1275C1.91793 18.7077 1.93156 18.2574 2.08476 17.8461C2.19591 17.5476 2.3762 17.3251 2.54103 17.1526C2.69198 16.9945 2.88539 16.8233 3.08527 16.6463L18.8221 2.70796C18.8925 2.64549 18.9776 2.57013 19.0576 2.50826C19.1504 2.43647 19.2882 2.341 19.472 2.27487Z" fill="#0000CC"/>
<path d="M6 3C6.55229 3 7 3.44772 7 4V5H8C8.55228 5 9 5.44772 9 6C9 6.55228 8.55228 7 8 7H7V8C7 8.55228 6.55229 9 6 9C5.44772 9 5 8.55228 5 8V7H4C3.44772 7 3 6.55228 3 6C3 5.44772 3.44772 5 4 5H5V4C5 3.44772 5.44772 3 6 3Z" fill="#0000CC"/>
<path d="M19 16C19 15.4477 18.5523 15 18 15C17.4477 15 17 15.4477 17 16V17H16C15.4477 17 15 17.4477 15 18C15 18.5523 15.4477 19 16 19H17V20C17 20.5523 17.4477 21 18 21C18.5523 21 19 20.5523 19 20V19H20C20.5523 19 21 18.5523 21 18C21 17.4477 20.5523 17 20 17H19V16Z" fill="#0000CC"/>
<path d="M18 11H16.1364L19 7.76697V10C19 10.5523 18.5523 11 18 11Z" fill="#0000CC"/>
<path d="M7 11H9.4601L6.01324 14.053L6.00002 12.0065C5.9983 11.7401 6.1029 11.4841 6.29061 11.2952C6.47833 11.1063 6.73366 11 7 11Z" fill="#0000CC"/>
</svg>
