<svg width="24" height="24" viewBox="0 0 24 24" fill="none" xmlns="http://www.w3.org/2000/svg">
<path opacity="0.14" d="M12 21C16.9706 21 21 16.9706 21 12C21 10.5353 20.6501 9.15225 20.0293 7.93L18.7169 9.76731L14.758 9.35151L14.4248 5.47517L16.3349 4.11083C15.0491 3.40282 13.5716 3 12 3C7.02944 3 3 7.02944 3 12C3 16.9706 7.02944 21 12 21Z" fill="#0000CC"/>
<path d="M21 12C21 16.9706 16.9706 21 12 21C7.02944 21 3 16.9706 3 12C3 7.02944 7.02944 3 12 3M17 12C17 14.7614 14.7614 17 12 17C9.23858 17 7 14.7614 7 12C7 9.23858 9.23858 7 12 7M14.7579 9.35162L18.7169 9.76742L20.8629 6.76292L18.2876 5.9045L17.4292 3.32921L14.4247 5.47528L14.7579 9.35162ZM14.7579 9.35162L12 11.9999" stroke="#0000CC" stroke-width="2" stroke-linecap="round" stroke-linejoin="round"/>
</svg>
