<svg width="24" height="24" viewBox="0 0 24 24" fill="none" xmlns="http://www.w3.org/2000/svg">
<path opacity="0.14" d="M16.0003 6.0003L21.0003 6.0003L12.0003 15.0003L12.0003 10.0003L10.0003 8.0003C8.89573 6.89573 8.89573 5.10487 10.0003 4.0003C11.1049 2.89573 12.8957 2.89573 14.0003 4.0003L16.0003 6.0003Z" fill="#0000CC"/>
<path d="M18.1962 8.80437C18.9732 9.22841 19.5003 10.0528 19.5003 11.0003C19.5003 12.381 18.381 13.5003 17.0003 13.5003C16.0528 13.5003 15.2284 12.9732 14.8044 12.1962M18.1962 8.80437L21.0003 6.0003L16.0003 6.0003L14.0003 4.0003C12.8957 2.89573 11.1049 2.89573 10.0003 4.0003C8.89573 5.10487 8.89573 6.89573 10.0003 8.0003L12.0003 10.0003L12.0003 15.0003L14.8044 12.1962M18.1962 8.80437L14.8044 12.1962M9 21L7 12L10.5 8.5M3 21L15 21" stroke="#0000CC" stroke-width="2" stroke-linecap="round" stroke-linejoin="round"/>
</svg>
