<svg width="24" height="24" viewBox="0 0 24 24" fill="none" xmlns="http://www.w3.org/2000/svg">
<path opacity="0.14" d="M4.21799 4.09202C4 4.51984 4 5.0799 4 6.2V17.8C4 18.9201 4 19.4802 4.21799 19.908C4.40973 20.2843 4.71569 20.5903 5.09202 20.782C5.51984 21 6.0799 21 7.2 21H16.8C17.9201 21 18.4802 21 18.908 20.782C19.2843 20.5903 19.5903 20.2843 19.782 19.908C20 19.4802 20 18.9201 20 17.8V14.6767L15.795 18.8816C15.2837 19.393 15.028 19.6487 14.7366 19.8516C14.4779 20.0318 14.1989 20.1807 13.9053 20.2953C13.5745 20.4244 13.2198 20.4945 12.5104 20.6347L11.1956 20.8946L11.5136 19.5417C11.6687 18.8821 11.7462 18.5522 11.8752 18.2447C11.9898 17.9717 12.1342 17.7123 12.306 17.4712C12.4995 17.1996 12.7391 16.96 13.2183 16.4809L18.4547 11.2444C18.8752 10.824 19.4555 10.6608 20 10.7548V6.2C20 5.0799 20 4.51984 19.782 4.09202C19.5903 3.71569 19.2843 3.40973 18.908 3.21799C18.4802 3 17.9201 3 16.8 3H7.2C6.0799 3 5.51984 3 5.09202 3.21799C4.71569 3.40973 4.40973 3.71569 4.21799 4.09202Z" fill="#0000CC"/>
<path d="M7.2 21C6.07989 21 5.51984 21 5.09202 20.782C4.71569 20.5903 4.40973 20.2843 4.21799 19.908C4 19.4802 4 18.9201 4 17.8V6.2C4 5.07989 4 4.51984 4.21799 4.09202C4.40973 3.71569 4.71569 3.40973 5.09202 3.21799C5.51984 3 6.0799 3 7.2 3H16.8C17.9201 3 18.4802 3 18.908 3.21799C19.2843 3.40973 19.5903 3.71569 19.782 4.09202C20 4.51984 20 5.0799 20 6.2V7M8 7H14M8 15H9M8 11H12M11.1954 20.8945L12.5102 20.6347C13.2197 20.4945 13.5744 20.4244 13.9052 20.2952C14.1988 20.1806 14.4778 20.0317 14.7365 19.8516C15.0279 19.6486 15.2836 19.393 15.7949 18.8816L20.9434 13.7332C21.6306 13.0459 21.6306 11.9316 20.9434 11.2444C20.2561 10.5571 19.1418 10.5571 18.4546 11.2444L13.2182 16.4808C12.739 16.96 12.4994 17.1996 12.3059 17.4712C12.1341 17.7123 11.9896 17.9717 11.8751 18.2447C11.7461 18.5522 11.6686 18.882 11.5135 19.5417L11.1954 20.8945Z" stroke="#0000CC" stroke-width="2" stroke-linecap="round" stroke-linejoin="round"/>
</svg>
