<svg width="24" height="24" viewBox="0 0 24 24" fill="none" xmlns="http://www.w3.org/2000/svg">
<path d="M19.8201 14H15.6001C15.04 14 14.76 14 14.5461 14.109C14.3579 14.2049 14.2049 14.3578 14.1091 14.546C14.0001 14.7599 14.0001 15.0399 14.0001 15.6V19.82M20 12.7269V7.2C20 6.0799 20 5.51984 19.782 5.09202C19.5903 4.71569 19.2843 4.40973 18.908 4.21799C18.4802 4 17.9201 4 16.8 4H7.2C6.0799 4 5.51984 4 5.09202 4.21799C4.71569 4.40973 4.40973 4.71569 4.21799 5.09202C4 5.51984 4 6.0799 4 7.2V16.8C4 17.9201 4 18.4802 4.21799 18.908C4.40973 19.2843 4.71569 19.5903 5.09202 19.782C5.51984 20 6.0799 20 7.2 20H12.9496C13.4578 20 13.7118 20 13.9498 19.9407C14.1608 19.8882 14.3618 19.8016 14.5449 19.6844C14.7515 19.5522 14.926 19.3675 15.2751 18.9983L19.1254 14.9252C19.4486 14.5833 19.6101 14.4124 19.7255 14.2156C19.8278 14.041 19.903 13.8519 19.9486 13.6548C20 13.4325 20 13.1973 20 12.7269Z" stroke="#0000CC" stroke-width="2" stroke-linecap="round" stroke-linejoin="round"/>
<path opacity="0.14" d="M20 7.2V12.7269C20 13.1973 20 13.4325 19.9486 13.6548C19.9212 13.7732 19.8831 13.8888 19.8349 14H19.4297H15.6001C15.04 14 14.76 14 14.5461 14.109C14.3579 14.2049 14.2049 14.3578 14.1091 14.546C14.0001 14.7599 14.0001 15.0399 14.0001 15.6V19.82V19.9275C13.9834 19.9321 13.9667 19.9365 13.9498 19.9407C13.7118 20 13.4578 20 12.9496 20H7.2C6.0799 20 5.51984 20 5.09202 19.782C4.71569 19.5903 4.40973 19.2843 4.21799 18.908C4 18.4802 4 17.9201 4 16.8V7.2C4 6.0799 4 5.51984 4.21799 5.09202C4.40973 4.71569 4.71569 4.40973 5.09202 4.21799C5.51984 4 6.0799 4 7.2 4H16.8C17.9201 4 18.4802 4 18.908 4.21799C19.2843 4.40973 19.5903 4.71569 19.782 5.09202C20 5.51984 20 6.0799 20 7.2Z" fill="#0000CC"/>
</svg>
