<svg width="24" height="24" viewBox="0 0 24 24" fill="none" xmlns="http://www.w3.org/2000/svg">
<path opacity="0.14" fill-rule="evenodd" clip-rule="evenodd" d="M20 7.2C20 6.0799 20 5.51984 19.782 5.09202C19.5903 4.71569 19.2843 4.40973 18.908 4.21799C18.4802 4 17.9201 4 16.8 4H7.2C6.0799 4 5.51984 4 5.09202 4.21799C4.71569 4.40973 4.40973 4.71569 4.21799 5.09202C4 5.51984 4 6.0799 4 7.2V16.8C4 17.9201 4 18.4802 4.21799 18.908C4.40973 19.2843 4.71569 19.5903 5.09202 19.782C5.51984 20 6.0799 20 7.2 20H16.8C17.9201 20 18.4802 20 18.908 19.782C19.2843 19.5903 19.5903 19.2843 19.782 18.908C20 18.4802 20 17.9201 20 16.8V7.2ZM7.80005 8.14864C7.80005 9.72895 8.16464 11.153 8.82517 12.3521L10.4237 10.3922C10.5805 10.1905 10.6186 9.92072 10.5237 9.68349L9.95114 8.25202C9.81756 7.91808 9.45784 7.73415 9.10892 7.82138L7.80005 8.14864ZM13.698 13.7583L12.0411 15.4281C13.1767 15.9914 14.498 16.2998 15.9514 16.2998L16.2785 14.9909C16.3657 14.642 16.1818 14.2823 15.8478 14.1487L14.4737 13.5991C14.2065 13.4922 13.9014 13.5548 13.698 13.7583Z" fill="#0000CC"/>
<path d="M8.8259 12.3531C8.16537 11.154 7.80078 9.72993 7.80078 8.14962L9.10965 7.82236C9.45858 7.73513 9.8183 7.91906 9.95187 8.253L10.5245 9.68446C10.6194 9.92169 10.5813 10.1915 10.4244 10.3931L8.8259 12.3531ZM8.8259 12.3531C9.56201 13.6894 10.6657 14.7464 12.0418 15.4291M12.0418 15.4291C13.1775 15.9924 14.4987 16.3007 15.9521 16.3007L16.2792 14.9919C16.3664 14.643 16.1825 14.2833 15.8486 14.1497L14.4744 13.6C14.2073 13.4932 13.9021 13.5558 13.6987 13.7592L12.0418 15.4291ZM7.2 4H16.8C17.9201 4 18.4802 4 18.908 4.21799C19.2843 4.40973 19.5903 4.71569 19.782 5.09202C20 5.51984 20 6.0799 20 7.2V16.8C20 17.9201 20 18.4802 19.782 18.908C19.5903 19.2843 19.2843 19.5903 18.908 19.782C18.4802 20 17.9201 20 16.8 20H7.2C6.0799 20 5.51984 20 5.09202 19.782C4.71569 19.5903 4.40973 19.2843 4.21799 18.908C4 18.4802 4 17.9201 4 16.8V7.2C4 6.0799 4 5.51984 4.21799 5.09202C4.40973 4.71569 4.71569 4.40973 5.09202 4.21799C5.51984 4 6.0799 4 7.2 4Z" stroke="#0000CC" stroke-width="2" stroke-linecap="round" stroke-linejoin="round"/>
</svg>
