<svg width="24" height="24" viewBox="0 0 24 24" fill="none" xmlns="http://www.w3.org/2000/svg">
<path opacity="0.3" d="M6 3C6 2.44772 5.55228 2 5 2C4.44772 2 4 2.44772 4 3V5C4 5.55228 4.44772 6 5 6H6V9C5.44772 9 5 9.44772 5 10V12H4V9C4 8.44772 3.55228 8 3 8C2.44772 8 2 8.44772 2 9V13C2 13.5523 2.44772 14 3 14H4V18C4 18.5523 4.44772 19 5 19H7V21C7 21.5523 7.44772 22 8 22H10C10.5523 22 11 21.5523 11 21C11 20.4477 10.5523 20 10 20H9V19H15V20H14C13.4477 20 13 20.4477 13 21C13 21.5523 13.4477 22 14 22H16C16.5523 22 17 21.5523 17 21V19H19C19.5523 19 20 18.5523 20 18V14H21C21.5523 14 22 13.5523 22 13V9C22 8.44772 21.5523 8 21 8C20.4477 8 20 8.44772 20 9V12H19V10C19 9.44772 18.5523 9 18 9V6H19C19.5523 6 20 5.55228 20 5V3C20 2.44772 19.5523 2 19 2C18.4477 2 18 2.44772 18 3V4H17C16.4477 4 16 4.44772 16 5V7H8V5C8 4.44772 7.55228 4 7 4H6V3Z" fill="#0000CC"/>
<path fill-rule="evenodd" clip-rule="evenodd" d="M8 13C8 12.4477 8.44772 12 9 12H9.5C10.0523 12 10.5 12.4477 10.5 13V13.5C10.5 14.0523 10.0523 14.5 9.5 14.5H9C8.44772 14.5 8 14.0523 8 13.5V13ZM13.5 13C13.5 12.4477 13.9477 12 14.5 12H15C15.5523 12 16 12.4477 16 13V13.5C16 14.0523 15.5523 14.5 15 14.5H14.5C13.9477 14.5 13.5 14.0523 13.5 13.5V13Z" fill="#0000CC"/>
</svg>
