<svg width="24" height="24" viewBox="0 0 24 24" fill="none" xmlns="http://www.w3.org/2000/svg">
<path opacity="0.3" d="M3 2C2.44772 2 2 2.44772 2 3V21C2 21.5523 2.44772 22 3 22H21C21.5523 22 22 21.5523 22 21V3C22 2.44772 21.5523 2 21 2H3Z" fill="#0000CC"/>
<path d="M7 6C6.44772 6 6 6.44772 6 7C6 7.55228 6.44772 8 7 8H7.009C7.56128 8 8.009 7.55228 8.009 7C8.009 6.44772 7.56128 6 7.009 6H7Z" fill="#0000CC"/>
<path d="M17 6C16.4477 6 16 6.44772 16 7C16 7.55228 16.4477 8 17 8H17.009C17.5613 8 18.009 7.55228 18.009 7C18.009 6.44772 17.5613 6 17.009 6H17Z" fill="#0000CC"/>
<path d="M7 16C6.44772 16 6 16.4477 6 17C6 17.5523 6.44772 18 7 18H7.009C7.56128 18 8.009 17.5523 8.009 17C8.009 16.4477 7.56128 16 7.009 16H7Z" fill="#0000CC"/>
<path d="M17 16C16.4477 16 16 16.4477 16 17C16 17.5523 16.4477 18 17 18H17.009C17.5613 18 18.009 17.5523 18.009 17C18.009 16.4477 17.5613 16 17.009 16H17Z" fill="#0000CC"/>
<path d="M12.0036 9C11.539 9 11.1462 9.31774 11.0351 9.74926C10.8974 10.2841 10.3522 10.6061 9.81739 10.4684C9.28254 10.3308 8.96055 9.78559 9.09821 9.25074C9.43119 7.95704 10.6044 7 12.0036 7C13.6605 7 15.0036 8.34315 15.0036 10C15.0036 10.9314 14.5491 11.5493 14.0731 12.0087C13.8803 12.1949 13.6607 12.3769 13.4633 12.5405L13.3775 12.6116C13.2491 12.7184 13.1238 12.8241 13.0007 12.934L13.0002 13.0068C12.9964 13.5591 12.5457 14.0038 11.9934 14C11.4411 13.9962 10.9965 13.5454 11.0003 12.9932L11.0037 12.4932C11.0055 12.2303 11.1107 11.9788 11.2966 11.7929C11.5807 11.5087 11.8602 11.2723 12.0985 11.074L12.19 10.998C12.3946 10.8282 12.5498 10.6994 12.6842 10.5697C12.9581 10.3053 13.0036 10.1732 13.0036 10C13.0036 9.44772 12.5559 9 12.0036 9Z" fill="#0000CC"/>
<path d="M11 16C11 15.4477 11.4477 15 12 15H12.01C12.5623 15 13.01 15.4477 13.01 16C13.01 16.5523 12.5623 17 12.01 17H12C11.4477 17 11 16.5523 11 16Z" fill="#0000CC"/>
</svg>
