<svg width="24" height="24" viewBox="0 0 24 24" fill="none" xmlns="http://www.w3.org/2000/svg">
<path opacity="0.3" fill-rule="evenodd" clip-rule="evenodd" d="M8.16146 2H15.8385C16.3657 1.99998 16.8205 1.99997 17.195 2.03057C17.5904 2.06287 17.9836 2.13419 18.362 2.32698C18.9265 2.6146 19.3854 3.07355 19.673 3.63803C19.8658 4.01641 19.9371 4.40963 19.9694 4.80498C20 5.17952 20 5.63436 20 6.16146V17C20 17.5523 19.5523 18 19 18V20C19.5523 20 20 20.4477 20 21C20 21.5523 19.5523 22 19 22H7C5.34315 22 4 20.6569 4 19V6.16142C3.99998 5.6343 3.99997 5.17953 4.03057 4.80498C4.06287 4.40963 4.13419 4.01641 4.32698 3.63803C4.6146 3.07355 5.07355 2.6146 5.63803 2.32698C6.01641 2.13419 6.40963 2.06287 6.80498 2.03057C7.17953 1.99997 7.63434 1.99998 8.16146 2ZM6 19C6 19.5523 6.44772 20 7 20H17V18H7C6.44772 18 6 18.4477 6 19ZM9.00027 8C9.00027 6.34315 10.3434 5 12.0003 5C13.6571 5 15.0003 6.34315 15.0003 8V8.78842L13.9096 9.44281C13.8969 9.45043 13.8892 9.46414 13.8892 9.47894C13.8892 10.319 13.2082 11 12.3681 11H11.6324C10.7924 11 10.1114 10.319 10.1114 9.47894C10.1114 9.46414 10.1036 9.45043 10.0909 9.44281L9.00027 8.78842V8ZM8.05159 11.6838C8.22624 11.1598 8.79256 10.8767 9.3165 11.0513L12.0003 11.9459L14.684 11.0513C15.208 10.8767 15.7743 11.1598 15.949 11.6838C16.1236 12.2077 15.8404 12.774 15.3165 12.9487L15.1625 13L15.3165 13.0513C15.8404 13.226 16.1236 13.7923 15.949 14.3162C15.7743 14.8402 15.208 15.1233 14.684 14.9487L12.0003 14.0541L9.3165 14.9487C8.79256 15.1233 8.22624 14.8402 8.05159 14.3162C7.87694 13.7923 8.1601 13.226 8.68404 13.0513L8.83799 13L8.68404 12.9487C8.1601 12.774 7.87694 12.2077 8.05159 11.6838Z" fill="#0000CC"/>
<path fill-rule="evenodd" clip-rule="evenodd" d="M6 19C6 19.5523 6.44772 20 7 20H17V18H7C6.44772 18 6 18.4477 6 19ZM9.00027 8C9.00027 6.34315 10.3434 5 12.0003 5C13.6571 5 15.0003 6.34315 15.0003 8V8.78842L13.9096 9.44281C13.8969 9.45043 13.8892 9.46414 13.8892 9.47894C13.8892 10.319 13.2082 11 12.3681 11H11.6324C10.7924 11 10.1114 10.319 10.1114 9.47894C10.1114 9.46414 10.1036 9.45043 10.0909 9.44281L9.00027 8.78842V8ZM8.05159 11.6838C8.22623 11.1598 8.79255 10.8767 9.3165 11.0513L12.0003 11.9459L14.684 11.0513C15.208 10.8767 15.7743 11.1598 15.949 11.6838C16.1236 12.2077 15.8404 12.774 15.3165 12.9487L15.1625 13L15.3165 13.0513C15.8404 13.226 16.1236 13.7923 15.949 14.3162C15.7743 14.8402 15.208 15.1233 14.684 14.9487L12.0003 14.0541L9.3165 14.9487C8.79255 15.1233 8.22623 14.8402 8.05159 14.3162C7.87694 13.7923 8.1601 13.226 8.68404 13.0513L8.83799 13L8.68404 12.9487C8.1601 12.774 7.87694 12.2077 8.05159 11.6838Z" fill="#0000CC"/>
</svg>
