<svg width="24" height="24" viewBox="0 0 24 24" fill="none" xmlns="http://www.w3.org/2000/svg">
<path opacity="0.3" d="M12.6529 2.25028C12.3038 1.94214 11.7882 1.91574 11.4095 2.1866C10.275 2.99789 9.68461 4.04418 9.39081 5.02619C9.38076 5.00907 9.37443 4.99726 9.37155 4.99172L9.37072 4.99011C9.23859 4.70684 8.98136 4.50131 8.67517 4.43531C8.36347 4.36812 8.03842 4.45361 7.8001 4.66545C6.61682 5.71726 6 7.12389 6 8.55557C6 9.98724 6.61682 11.3939 7.8001 12.4457C10.1316 14.5181 13.8684 14.5181 16.1999 12.4457C17.3832 11.3939 18 9.98724 18 8.55557C18 7.12389 17.3832 5.71726 16.1999 4.66545C15.6618 4.18712 15.0462 3.82719 14.4968 3.50597L14.3743 3.43428C13.7712 3.08062 13.2036 2.73633 12.6529 2.25028Z" fill="#0000CC"/>
<path d="M3.3165 14.0513C2.79256 13.8767 2.22624 14.1599 2.05159 14.6838C1.87694 15.2077 2.1601 15.7741 2.68404 15.9487L8.83799 18L2.68404 20.0513C2.1601 20.226 1.87694 20.7923 2.05159 21.3163C2.22624 21.8402 2.79256 22.1234 3.3165 21.9487L12.0003 19.0541L20.684 21.9487C21.208 22.1234 21.7743 21.8402 21.949 21.3163C22.1236 20.7923 21.8404 20.226 21.3165 20.0513L15.1625 18L21.3165 15.9487C21.8404 15.7741 22.1236 15.2077 21.949 14.6838C21.7743 14.1599 21.208 13.8767 20.684 14.0513L12.0003 16.9459L3.3165 14.0513Z" fill="#0000CC"/>
</svg>
