<svg width="24" height="24" viewBox="0 0 24 24" fill="none" xmlns="http://www.w3.org/2000/svg">
<path opacity="0.3" fill-rule="evenodd" clip-rule="evenodd" d="M5 2C4.44772 2 4 2.44772 4 3V21C4 21.5523 4.44772 22 5 22H19C19.5523 22 20 21.5523 20 21V3C20 2.44772 19.5523 2 19 2H5ZM8.29289 11.1213C7.90237 11.5118 7.90237 12.145 8.29289 12.5355L11.1213 15.364C11.5118 15.7545 12.145 15.7545 12.5355 15.364L15.364 12.5355C15.7545 12.145 15.7545 11.5118 15.364 11.1213L12.5355 8.29289C12.145 7.90237 11.5118 7.90237 11.1213 8.29289L8.29289 11.1213Z" fill="#0000CC"/>
<path d="M8.29289 11.1213C7.90237 11.5118 7.90237 12.145 8.29289 12.5355L11.1213 15.364C11.5118 15.7545 12.145 15.7545 12.5355 15.364L15.364 12.5355C15.7545 12.145 15.7545 11.5118 15.364 11.1213L12.5355 8.29289C12.145 7.90237 11.5118 7.90237 11.1213 8.29289L8.29289 11.1213Z" fill="#0000CC"/>
</svg>
