<svg width="24" height="24" viewBox="0 0 24 24" fill="none" xmlns="http://www.w3.org/2000/svg">
<path opacity="0.3" fill-rule="evenodd" clip-rule="evenodd" d="M5 2C4.44772 2 4 2.44772 4 3V21C4 21.5523 4.44772 22 5 22H19C19.5523 22 20 21.5523 20 21V3C20 2.44772 19.5523 2 19 2H5ZM14.9598 13.4286C14.3504 13.8975 13.6559 14.058 13 13.9792V14.9999H14C14.5523 14.9999 15 15.4477 15 15.9999C15 16.5522 14.5523 16.9999 14 16.9999H10C9.44772 16.9999 9 16.5522 9 15.9999C9 15.4477 9.44772 14.9999 10 14.9999H11V13.9805C10.3383 14.0632 9.63667 13.9032 9.02638 13.4203C7.85005 12.4897 7.64726 10.8529 8.61371 9.70144C8.97162 9.275 9.69388 8.63432 10.2593 8.14938C10.5556 7.89528 10.8325 7.66413 11.035 7.49668C11.1364 7.41285 11.2195 7.34474 11.2774 7.2974L11.3447 7.24255L11.3693 7.22261C11.7361 6.92585 12.2611 6.92626 12.6279 7.22302L12.652 7.24255L12.7193 7.2974C12.7772 7.34474 12.8603 7.41285 12.9617 7.49668C13.1643 7.66413 13.4411 7.89528 13.7374 8.14938C14.3029 8.63432 15.0251 9.275 15.383 9.70144C16.3397 10.8413 16.1741 12.494 14.9598 13.4286Z" fill="#0000CC"/>
<path d="M14.9598 13.4286C14.3504 13.8975 13.6559 14.058 13 13.9792V14.9999H14C14.5523 14.9999 15 15.4477 15 15.9999C15 16.5522 14.5523 16.9999 14 16.9999H10C9.44772 16.9999 9 16.5522 9 15.9999C9 15.4477 9.44772 14.9999 10 14.9999H11V13.9805C10.3383 14.0632 9.63667 13.9032 9.02638 13.4203C7.85005 12.4897 7.64726 10.8529 8.61371 9.70144C8.97162 9.275 9.69388 8.63432 10.2593 8.14938C10.5556 7.89528 10.8325 7.66413 11.035 7.49668C11.1364 7.41285 11.2195 7.34474 11.2774 7.2974L11.3447 7.24255L11.3693 7.22261C11.7361 6.92585 12.2611 6.92626 12.6279 7.22302L12.652 7.24255L12.7193 7.2974C12.7772 7.34474 12.8603 7.41285 12.9617 7.49668C13.1643 7.66413 13.4411 7.89528 13.7374 8.14938C14.3029 8.63432 15.0251 9.275 15.383 9.70144C16.3397 10.8413 16.1741 12.494 14.9598 13.4286Z" fill="#0000CC"/>
</svg>
