<svg width="24" height="24" viewBox="0 0 24 24" fill="none" xmlns="http://www.w3.org/2000/svg">
<path opacity="0.3" d="M10 2C9.44772 2 9 2.44772 9 3C9 3.34653 9.17627 3.6519 9.44403 3.83133C9.10624 4.15631 8.78601 4.49669 8.49602 4.85285C7.67296 5.86372 7.03805 7.07 6.99816 8.47155C6.9726 9.36974 7.1832 10.2483 7.67585 11.0537C7.28266 11.1884 7 11.5612 7 12C7 12.5523 7.44772 13 8 13H8.7177L8.02973 15.758C7.95522 16.0567 8.02244 16.373 8.21196 16.6156C8.40147 16.8582 8.69216 17 9 17H15C15.3138 17 15.6094 16.8527 15.7983 16.6022C15.9873 16.3517 16.0477 16.027 15.9615 15.7253L15.1829 13H16C16.5523 13 17 12.5523 17 12C17 11.6061 16.7723 11.2654 16.4413 11.1024C16.858 10.2021 17.0164 9.25802 16.994 8.47155C16.9541 7.07033 16.3201 5.86416 15.4975 4.85314C15.2084 4.49775 14.8891 4.15809 14.5524 3.83374C14.8221 3.65465 15 3.34809 15 3C15 2.44772 14.5523 2 14 2H10Z" fill="#0000CC"/>
<path d="M14.6536 3.93225L12.2929 6.29305C11.9024 6.68358 11.9024 7.31674 12.2929 7.70727C12.6834 8.09779 13.3166 8.09779 13.7071 7.70727L15.9515 5.46282C15.8092 5.25225 15.6569 5.04902 15.4975 4.85311C15.2375 4.53354 14.9532 4.22669 14.6536 3.93225Z" fill="#0000CC"/>
<path d="M9.14286 18C8.784 18 8.45266 18.1923 8.27461 18.5039L7.13176 20.5039C6.9549 20.8134 6.95617 21.1936 7.13509 21.5019C7.31401 21.8102 7.64353 22 8 22H16C16.3565 22 16.686 21.8102 16.8649 21.5019C17.0438 21.1936 17.0451 20.8134 16.8682 20.5039L15.7254 18.5039C15.5473 18.1923 15.216 18 14.8571 18H9.14286Z" fill="#0000CC"/>
</svg>
