<svg width="24" height="24" viewBox="0 0 24 24" fill="none" xmlns="http://www.w3.org/2000/svg">
<path fill-rule="evenodd" clip-rule="evenodd" d="M9 7C9 6.44772 9.44772 6 10 6H10.009C10.5613 6 11.009 6.44772 11.009 7C11.009 7.55228 10.5613 8 10.009 8H10C9.44772 8 9 7.55228 9 7Z" fill="#0000CC"/>
<path d="M9.14286 18C8.784 18 8.45266 18.1923 8.27461 18.5039L7.13176 20.5039C6.9549 20.8134 6.95617 21.1936 7.13509 21.5019C7.31401 21.8102 7.64353 22 8 22H16C16.3565 22 16.686 21.8102 16.8649 21.5019C17.0438 21.1936 17.0451 20.8134 16.8682 20.5039L15.7254 18.5039C15.5473 18.1923 15.216 18 14.8571 18H9.14286Z" fill="#0000CC"/>
<path opacity="0.3" fill-rule="evenodd" clip-rule="evenodd" d="M6.00003 2C5.59557 2 5.23093 2.24364 5.07615 2.61732C4.92137 2.99099 5.00692 3.42111 5.29292 3.70711L6.34732 4.76151C6.3221 4.77821 6.29731 4.79502 6.27297 4.81193C5.88124 5.08426 5.5525 5.41995 5.33577 5.90902C5.13688 6.35786 5.06639 6.86334 5.03315 7.40534C5.00002 7.94577 5.00002 8.62986 5.00003 9.47962L5 10.2319C5 11.1164 5.28644 11.8822 5.68026 12.45C6.0593 12.8517 6.69019 12.8672 7.09187 12.4882C7.35094 12.2437 7.67196 11.9648 8.018 11.6641L8.17373 11.5287C8.29724 11.4212 8.42333 11.3112 8.54832 11.2006C8.74566 11.0083 8.95631 10.8181 9.16664 10.6338C9.31666 10.5024 9.46653 10.374 9.61129 10.2499L9.63766 10.2273C10.0273 9.8933 10.3803 9.58959 10.6776 9.29256C11.068 8.90248 11.7007 8.90248 12.0911 9.29256C12.4816 9.68264 12.4822 10.3153 12.0924 10.7061C11.7658 11.0337 11.3486 11.4003 10.957 11.7409L10.8013 11.8763C10.4553 12.177 10.1343 12.456 9.87518 12.7004L9.86532 12.7096C9.54345 13.0293 9.13981 13.3839 8.76036 13.7141L8.60462 13.8495C7.5 15.5 8.56975 16.6783 9 17L15 17C15.4001 17 15.7616 16.7616 15.9192 16.3939C16.2766 15.5599 16.635 14.8722 16.9783 14.2467C17.0756 14.0694 17.1744 13.8924 17.2728 13.7161C17.5124 13.2868 17.7497 12.8618 17.957 12.4472C18.5769 11.2074 19 9.93004 19 7.99997C19 6.14524 18.07 4.63871 16.9085 3.6224C15.7659 2.62263 14.2903 1.99999 13 2H6.00003ZM9 7C9 6.44772 9.44772 6 10 6H10.009C10.5613 6 11.009 6.44772 11.009 7C11.009 7.55228 10.5613 8 10.009 8H10C9.44772 8 9 7.55228 9 7Z" fill="#0000CC"/>
</svg>
