<svg width="24" height="24" viewBox="0 0 24 24" fill="none" xmlns="http://www.w3.org/2000/svg">
<g opacity="0.3">
<path d="M10.9118 2.95103C10.8762 2.85604 10.7543 2.82964 10.6826 2.90138L3.6209 9.96304C3.27695 10.307 3.57685 10.8898 4.05665 10.8098L7.97984 10.1559C8.15598 10.1266 8.3031 10.0055 8.3658 9.83829L10.9118 3.04898C10.9236 3.0174 10.9236 2.9826 10.9118 2.95103Z" fill="#0000CC"/>
<path d="M19.9397 10.8098C20.4195 10.8898 20.7194 10.307 20.3754 9.96305L13.3138 2.90138C13.242 2.82964 13.1201 2.85604 13.0845 2.95103C13.0727 2.9826 13.0727 3.0174 13.0845 3.04898L15.6305 9.83829C15.6932 10.0055 15.8403 10.1266 16.0165 10.1559L19.9397 10.8098Z" fill="#0000CC"/>
<path d="M10.2912 11.0573C10.1888 10.9208 10.1631 10.7415 10.223 10.5818L11.53 7.09644C11.6922 6.66386 12.3041 6.66386 12.4663 7.09644L13.7733 10.5818C13.8332 10.7415 13.8075 10.9208 13.7052 11.0573L12.3982 12.8C12.1982 13.0667 11.7982 13.0667 11.5982 12.8L10.2912 11.0573Z" fill="#0000CC"/>
</g>
<path d="M3.61361 12.9113C3.21246 12.9782 3.05469 13.4705 3.34226 13.758L10.1449 20.5607C10.4599 20.8757 10.9984 20.6526 10.9984 20.2071V15.5C10.9984 15.3918 10.9634 15.2866 10.8984 15.2L8.74557 12.3295C8.63353 12.1801 8.44757 12.1056 8.26337 12.1363L3.61361 12.9113Z" fill="#0000CC"/>
<path d="M12.9984 20.2071C12.9984 20.6526 13.537 20.8757 13.852 20.5607L20.6546 13.758C20.9422 13.4705 20.7844 12.9782 20.3833 12.9113L15.7335 12.1363C15.5493 12.1056 15.3634 12.1801 15.2513 12.3295L13.0984 15.2C13.0335 15.2866 12.9984 15.3918 12.9984 15.5V20.2071Z" fill="#0000CC"/>
</svg>
