<svg width="24" height="24" viewBox="0 0 24 24" fill="none" xmlns="http://www.w3.org/2000/svg">
<g opacity="0.3">
<path d="M7.20813 8.32496C7.44886 8.47542 7.76641 8.39551 7.90725 8.14903L10.7707 3.138C10.8196 3.05247 10.8196 2.94746 10.7707 2.86192C10.6948 2.72914 10.526 2.68248 10.3927 2.75746L4.76268 5.92435C4.43181 6.11047 4.42089 6.58294 4.74282 6.78414L7.20813 8.32496Z" fill="#0000CC"/>
<path d="M19.2598 6.78414C19.5818 6.58294 19.5709 6.11047 19.24 5.92435L13.6099 2.75746C13.4767 2.68248 13.3078 2.72914 13.232 2.86192C13.1831 2.94746 13.1831 3.05247 13.232 3.138L16.0954 8.14903C16.2363 8.39551 16.5538 8.47542 16.7945 8.32496L19.2598 6.78414Z" fill="#0000CC"/>
<path d="M12.4355 5.77524C12.2435 5.43933 11.7592 5.43933 11.5672 5.77524L10.152 8.25189C9.96151 8.58522 10.2022 8.99996 10.5861 8.99996H13.4166C13.8005 8.99996 14.0412 8.58522 13.8507 8.25189L12.4355 5.77524Z" fill="#0000CC"/>
<path d="M13.317 11C13.7081 11 13.9478 11.4289 13.7428 11.762L12.4272 13.8999C12.2319 14.2172 11.7707 14.2172 11.5755 13.8999L10.2598 11.762C10.0548 11.4289 10.2945 11 10.6857 11H13.317Z" fill="#0000CC"/>
</g>
<path d="M3.765 8.53237C3.43198 8.32423 3 8.56365 3 8.95637V15.217C3 15.3733 3.12672 15.5 3.28304 15.5C3.38133 15.5 3.47258 15.449 3.5241 15.3653L6.36764 10.7445C6.51165 10.5105 6.43983 10.2041 6.20681 10.0585L3.765 8.53237Z" fill="#0000CC"/>
<path d="M4.48503 17.6199C4.4101 17.7416 4.45144 17.9013 4.57606 17.9714L10.2549 21.1657C10.5882 21.3532 11 21.1123 11 20.7299V18C11 17.7239 10.7761 17.5 10.5 17.5H4.69954C4.61207 17.5 4.53087 17.5454 4.48503 17.6199Z" fill="#0000CC"/>
<path d="M13 20.7299C13 21.1123 13.4118 21.3532 13.7451 21.1657L19.4239 17.9714C19.5486 17.9013 19.5899 17.7416 19.515 17.6199C19.4691 17.5454 19.3879 17.5 19.3005 17.5H13.5C13.2239 17.5 13 17.7239 13 18V20.7299Z" fill="#0000CC"/>
<path d="M20.717 15.5C20.8733 15.5 21 15.3733 21 15.217V8.95637C21 8.56365 20.568 8.32423 20.235 8.53237L17.7932 10.0585C17.5602 10.2041 17.4883 10.5105 17.6324 10.7445L20.4759 15.3653C20.5274 15.449 20.6187 15.5 20.717 15.5Z" fill="#0000CC"/>
<path d="M9.31565 15.5C9.70681 15.5 9.94649 15.0711 9.74148 14.7379L8.42583 12.6C8.23059 12.2827 7.76941 12.2827 7.57417 12.6L6.25852 14.7379C6.05351 15.0711 6.29319 15.5 6.68435 15.5H9.31565Z" fill="#0000CC"/>
<path d="M16.4258 12.6C16.2306 12.2827 15.7694 12.2827 15.5742 12.6L14.2585 14.7379C14.0535 15.0711 14.2932 15.5 14.6843 15.5H17.3157C17.7068 15.5 17.9465 15.0711 17.7415 14.7379L16.4258 12.6Z" fill="#0000CC"/>
</svg>
