<svg width="24" height="24" viewBox="0 0 24 24" fill="none" xmlns="http://www.w3.org/2000/svg">
<path opacity="0.3" d="M13 20.6009C13 21.0002 13.4451 21.2384 13.7774 21.0169L21.5547 15.832C21.7834 15.6796 21.9392 15.4397 21.9857 15.1688C22.0321 14.8979 21.9649 14.6198 21.8 14.4L13.9 3.86662C13.6117 3.48221 13 3.68611 13 4.16662V20.6009Z" fill="#0000CC"/>
<path d="M11 4.16662C11 3.68611 10.3883 3.48221 10.1 3.86662L2.20001 14.3999C2.0351 14.6198 1.96796 14.8979 2.01436 15.1688C2.06076 15.4397 2.21662 15.6795 2.44531 15.832L10.2226 21.0169C10.5549 21.2384 11 21.0002 11 20.6009V4.16662Z" fill="#0000CC"/>
</svg>
