<svg width="24" height="24" viewBox="0 0 24 24" fill="none" xmlns="http://www.w3.org/2000/svg">
<path opacity="0.3" d="M11.3405 3.98589C10.5564 3.21346 9.29553 3.21972 8.51917 3.99992L2.99246 9.55394C2.21608 10.3342 2.21605 11.5951 2.99238 12.3753L8.58168 17.9928C9.36354 18.7786 10.6354 18.7786 11.4172 17.9928L16.9995 12.3824C17.7813 11.5966 17.775 10.3249 16.9853 9.54696L11.3405 3.98589Z" fill="#0000CC"/>
<path fill-rule="evenodd" clip-rule="evenodd" d="M11.4172 17.9928C11.0264 18.3856 10.5132 18.5821 10 18.5822V19C10 20.1046 10.8954 21 12 21H20C21.1046 21 22 20.1046 22 19V11C22 9.89543 21.1046 9 20 9H16.4301L16.9853 9.54696C17.775 10.3249 17.7813 11.5966 16.9995 12.3824L11.4172 17.9928ZM18 16C17.4477 16 17 16.4477 17 17C17 17.5523 17.4477 18 18 18H18.009C18.5613 18 19.009 17.5523 19.009 17C19.009 16.4477 18.5613 16 18.009 16H18Z" fill="#0000CC"/>
<path fill-rule="evenodd" clip-rule="evenodd" d="M6 11C6 10.4477 6.44772 10 7 10H7.009C7.56128 10 8.009 10.4477 8.009 11C8.009 11.5523 7.56128 12 7.009 12H7C6.44772 12 6 11.5523 6 11Z" fill="#0000CC"/>
<path fill-rule="evenodd" clip-rule="evenodd" d="M12 11C12 10.4477 12.4477 10 13 10H13.009C13.5613 10 14.009 10.4477 14.009 11C14.009 11.5523 13.5613 12 13.009 12H13C12.4477 12 12 11.5523 12 11Z" fill="#0000CC"/>
</svg>
