<svg width="24" height="24" viewBox="0 0 24 24" fill="none" xmlns="http://www.w3.org/2000/svg">
<path d="M13.8399 6.32006C13.5198 6.61669 13 6.38971 13 5.95335V2.62391C13 2.32328 13.2637 2.08977 13.5592 2.14468C14.6184 2.34144 15.6767 2.72039 16.5524 3.2348C16.7512 3.35155 16.7509 3.62204 16.5818 3.77874L13.8399 6.32006Z" fill="#0000CC"/>
<path d="M20.7407 8.84306C20.6903 8.63831 20.4547 8.56353 20.2711 8.66717L17.0347 10.4938L17.0194 10.5023L15.1339 11.5232C15.052 11.5675 15.001 11.6532 15.001 11.7463C15.001 11.8864 15.1146 12 15.2547 12L20.501 12C20.7772 12 21.001 11.7761 21.001 11.5V11C21.001 10.2577 20.9109 9.53511 20.7407 8.84306Z" fill="#0000CC"/>
<path d="M21 14.5C21 14.2239 20.7761 14 20.5 14L15.5 14C15.2239 14 15 14.2238 15 14.5V15.5C15 15.7761 15.2239 16 15.5 16L20.5 16C20.7761 16 21 15.7761 21 15.5V14.5Z" fill="#0000CC"/>
<path d="M21 18.5C21 18.2239 20.7761 18 20.5 18L15.5 18C15.2239 18 15 18.2239 15 18.5V20C15 21.1046 15.8954 22 17 22H19C20.1046 22 21 21.1046 21 20V18.5Z" fill="#0000CC"/>
<path d="M14.3168 8.60499C14.19 8.72248 14.1655 8.91668 14.278 9.04785C14.3629 9.14679 14.4415 9.25125 14.513 9.36058C14.5759 9.45681 14.7031 9.48213 14.8042 9.42737L16.0595 8.7477L19.4215 6.85017C19.6615 6.71472 19.7478 6.40978 19.5999 6.17724C19.3615 5.8022 19.0961 5.44611 18.8066 5.11167C18.6284 4.90589 18.3163 4.89814 18.1167 5.08316L14.3168 8.60499Z" fill="#0000CC"/>
<g opacity="0.3">
<path d="M8.5 16C8.77614 16 9 15.7761 9 15.5V14.5C9 14.2239 8.77614 14 8.5 14L3.5 14C3.22386 14 3 14.2238 3 14.5L3 15.5C3 15.7761 3.22386 16 3.5 16H8.5Z" fill="#0000CC"/>
<path d="M3 18.5C3 18.2238 3.22386 18 3.5 18H8.5C8.77614 18 9 18.2238 9 18.5V20C9 21.1046 8.10457 22 7 22H5C3.89543 22 3 21.1046 3 20L3 18.5Z" fill="#0000CC"/>
<path d="M3 11.5C3 11.7761 3.22386 12 3.5 12H8.77375C8.8987 12 9 11.8987 9 11.7737C9 11.6921 8.95603 11.6168 8.88495 11.5767L3.72961 8.66726C3.5461 8.56369 3.31071 8.63844 3.26036 8.84306C3.09007 9.53511 3 10.2577 3 11V11.5Z" fill="#0000CC"/>
<path d="M4.40072 6.177C4.25286 6.40956 4.3392 6.71451 4.57919 6.84996L9.15545 9.43262C9.26977 9.49714 9.41568 9.47044 9.48754 9.36058C9.55906 9.25125 9.63757 9.14679 9.72247 9.04785C9.83519 8.91647 9.80937 8.7219 9.68241 8.60423L7.17079 6.27637L6.95318 6.07422L5.88386 5.08314C5.68423 4.89812 5.3721 4.90586 5.19394 5.11164C4.90445 5.44602 4.63912 5.80204 4.40072 6.177Z" fill="#0000CC"/>
<path d="M7.44756 3.2348C7.24893 3.35147 7.24929 3.62177 7.41824 3.77837L10.1601 6.31994C10.4801 6.61659 11 6.38962 11 5.95325V2.62391C11 2.32328 10.7363 2.08977 10.4408 2.14468C9.38163 2.34144 8.32332 2.72039 7.44756 3.2348Z" fill="#0000CC"/>
<path d="M10.9764 8.15175C10.9668 8.16211 10.9769 8.17843 10.9903 8.1738C10.9905 8.17373 10.9907 8.17365 10.9909 8.17358C10.9964 8.17169 11 8.16657 11 8.16082C11 8.1485 10.9848 8.14272 10.9764 8.15175Z" fill="#0000CC"/>
</g>
</svg>
