<svg width="24" height="24" viewBox="0 0 24 24" fill="none" xmlns="http://www.w3.org/2000/svg">
<path opacity="0.3" d="M2 15C2 16.6645 2.93838 17.938 4.09485 18.7544C4.95453 19.3613 5.98646 19.7586 7 19.9192V21C7 21.5523 7.44772 22 8 22H19C19.5523 22 20 21.5523 20 21V19.8293C21.1652 19.4174 22 18.3062 22 17V14.4891C21.4949 14.8125 20.8943 15 20.25 15C18.6921 15 17.3901 13.9038 17.0735 12.4406C16.5536 12.7937 15.9259 13 15.25 13C14.6057 13 14.0051 12.8125 13.5 12.4891V13C13.5 13.0787 13.4879 13.1545 13.4654 13.2258C13.2352 14.7952 11.8833 16 10.25 16H8C7.58579 16 7.25 15.6642 7.25 15.25C7.25 14.8358 7.58579 14.5 8 14.5H10.25C11.2165 14.5 12 13.7165 12 12.75C12 11.7839 11.2172 11.0007 10.2513 11H2.87667C2.34488 11.6712 2 12.5316 2 13.6V15Z" fill="#0000CC"/>
<path d="M17 9.75V5.75C17 4.82164 16.2772 4.06155 15.3636 4.00305L15.3582 4.00329C15.3224 4.00111 15.2863 4 15.25 4C14.9744 4 14.7137 4.06371 14.4818 4.17721C13.9004 4.46172 13.5 5.05911 13.5 5.75V9.75C13.5 10.7165 14.2835 11.5 15.25 11.5C16.2165 11.5 17 10.7165 17 9.75Z" fill="#0000CC"/>
<path d="M18.5 9.75V11.75C18.5 12.7165 19.2835 13.5 20.25 13.5C21.2165 13.5 22 12.7165 22 11.75V9.75C22 8.7835 21.2165 8 20.25 8C19.2835 8 18.5 8.7835 18.5 9.75Z" fill="#0000CC"/>
<path d="M11.9081 4.18882C11.9677 4.36498 12 4.55371 12 4.75V9.5H8.5V4.75C8.5 4.5606 8.53009 4.37824 8.58574 4.20741C8.8141 3.50652 9.4729 3 10.25 3C11.0202 3 11.6742 3.49758 11.9081 4.18882Z" fill="#0000CC"/>
<path d="M7 5.74331C7 4.965 6.49191 4.30536 5.78931 4.07799C5.61944 4.02302 5.43819 3.99331 5.25 3.99331C4.2835 3.99331 3.5 4.77682 3.5 5.74331V9.5L7 9.5V5.74331Z" fill="#0000CC"/>
</svg>
