<svg width="24" height="24" viewBox="0 0 24 24" fill="none" xmlns="http://www.w3.org/2000/svg">
<g opacity="0.3">
<path d="M6.23229 19.695C6.76947 19.5667 7.10094 19.0272 6.97265 18.49C6.64574 17.4335 6.61727 14.8775 7 13.0474C7.50404 10.6372 8.34281 8.32985 9.30052 6.45597C9.46225 6.13953 9.44977 5.74671 9.23426 5.43335C7.99194 3.62692 5.91214 2 3 2C2.44772 2 2 2.44772 2 3V3.03223C1.99998 4.51771 1.99995 6.72062 2.39322 8.75252C2.68992 10.2854 3.2487 11.9283 4.37778 13.0474C3.77139 13.6125 3.25904 14.2331 2.86765 14.9669C2.26947 16.0885 2 17.387 2 19C2 19.5523 2.44772 20 3 20C4.24979 20 5.30392 19.9167 6.23229 19.695Z" fill="#0000CC"/>
<path d="M12 2C10.8954 2 10 2.89543 10 4C10 5.10457 10.8954 6 12 6C13.1046 6 14 5.10457 14 4C14 2.89543 13.1046 2 12 2Z" fill="#0000CC"/>
<path d="M17.768 19.695C17.2308 19.5667 16.8993 19.0272 17.0276 18.49C17.3545 17.4335 17.383 14.8775 17.0002 13.0474C16.4962 10.6372 15.6574 8.32985 14.6997 6.45597C14.538 6.13953 14.5505 5.74671 14.766 5.43335C16.0083 3.62692 18.0881 2 21.0002 2C21.5525 2 22.0002 2.44772 22.0002 3V3.03223C22.0003 4.51771 22.0003 6.72062 21.607 8.75252C21.3103 10.2854 20.7515 11.9283 19.6225 13.0474C20.2289 13.6125 20.7412 14.2331 21.1326 14.9669C21.7308 16.0885 22.0002 17.387 22.0002 19C22.0002 19.5523 21.5525 20 21.0002 20C19.7505 20 18.6963 19.9167 17.768 19.695Z" fill="#0000CC"/>
</g>
<path d="M9.99852 8C9.53965 8 9.13967 8.3123 9.02838 8.75746L7.64964 14.2724C7.3165 15.605 7.92715 16.9082 8.99852 17.5633V21C8.99852 21.5523 9.44623 22 9.99852 22C10.5508 22 10.9985 21.5523 10.9985 21V18H12.9985V21C12.9985 21.5523 13.4462 22 13.9985 22C14.5508 22 14.9985 21.5523 14.9985 21V17.5633C16.0699 16.9082 16.6805 15.605 16.3474 14.2724L14.9687 8.75746C14.8574 8.3123 14.4574 8 13.9985 8H9.99852Z" fill="#0000CC"/>
</svg>
