<svg width="24" height="24" viewBox="0 0 24 24" fill="none" xmlns="http://www.w3.org/2000/svg">
<g opacity="0.3">
<path d="M18.7073 2.29289C18.3168 1.90237 17.6836 1.90237 17.2931 2.29289C16.9025 2.68342 16.9025 3.31658 17.2931 3.70711L20.2931 6.70711C20.6836 7.09763 21.3168 7.09763 21.7073 6.70711C22.0978 6.31658 22.0978 5.68342 21.7073 5.29289L18.7073 2.29289Z" fill="#0000CC"/>
<path d="M11.7073 9.29289C11.5125 9.09815 11.2461 8.99234 10.9708 9.00043C10.6955 9.00852 10.4357 9.12979 10.2528 9.33564L2.74994 17.7763C2.11899 18.4861 2.15069 19.5647 2.82223 20.2363C3.43767 20.8517 4.40612 20.9365 5.11914 20.4374L14.5736 13.8192C14.8158 13.6497 14.9706 13.3817 14.9964 13.0872C15.0222 12.7927 14.9163 12.5019 14.7073 12.2929L11.7073 9.29289Z" fill="#0000CC"/>
</g>
<path d="M8.00008 2C7.55941 2 7.17068 2.28846 7.04299 2.71022C6.91529 3.13197 7.07872 3.58761 7.44538 3.83205C10.355 5.77183 12.2941 7.70821 14.293 9.70711C16.2919 11.706 18.2282 13.645 20.168 16.5547C20.4125 16.9214 20.8681 17.0848 21.2899 16.9571C21.7116 16.8294 22.0001 16.4407 22.0001 16C22.0001 13.9222 21.741 11.8281 21.2116 9.97528C20.6861 8.13598 19.8721 6.45781 18.7072 5.2929C17.5423 4.12799 15.8641 3.31399 14.0248 2.78847C12.172 2.2591 10.0779 2 8.00008 2Z" fill="#0000CC"/>
</svg>
