<svg width="24" height="24" viewBox="0 0 24 24" fill="none" xmlns="http://www.w3.org/2000/svg">
<path opacity="0.3" d="M11 2C9.89543 2 9 2.89543 9 4H5.74755C3.67784 4 2 5.67783 2 7.74755C2 9.53393 3.2609 11.072 5.01259 11.4223L7 11.8198V21C7 21.5523 7.44772 22 8 22H11C11.5523 22 12 21.5523 12 21V19H17V21C17 21.5523 17.4477 22 18 22H21C21.5523 22 22 21.5523 22 21V14C22 13.595 21.9516 13.2 21.8599 12.8209C21.3296 10.6289 19.3563 9 17 9H13V4C13 2.89543 12.1046 2 11 2Z" fill="#0000CC"/>
<path fill-rule="evenodd" clip-rule="evenodd" d="M8.00013 8C8.00013 7.44772 8.44784 7 9.00013 7H9.00913C9.56141 7 10.0091 7.44772 10.0091 8C10.0091 8.55228 9.56141 9 9.00913 9H9.00013C8.44784 9 8.00013 8.55228 8.00013 8Z" fill="#0000CC"/>
<path d="M10.8144 15.5358L8.47314 16.4723L7 16.0514V17.0914L8.36277 17.4808C8.46931 17.5112 8.58294 17.5054 8.68582 17.4642L11.0001 16.5385L13.3144 17.4642C13.4336 17.5119 13.5666 17.5119 13.6858 17.4642L15.9774 16.5476L17.7765 17.4472C17.9137 17.5158 18.0748 17.5176 18.2135 17.4522L20.1166 16.5539L22 16.5188V15.5186L19.9908 15.5561C19.9202 15.5574 19.8506 15.5737 19.7867 15.6039L18.0064 16.4441L16.2237 15.5528C16.096 15.4889 15.947 15.4827 15.8144 15.5358L13.5001 16.4615L11.1858 15.5358C11.0666 15.4881 10.9336 15.4881 10.8144 15.5358Z" fill="#0000CC"/>
<path d="M10.8144 12.5358L8.47314 13.4723L7 13.0514V14.0914L8.36277 14.4808C8.46931 14.5112 8.58294 14.5054 8.68582 14.4642L11.0001 13.5385L13.3144 14.4642C13.4336 14.5119 13.5666 14.5119 13.6858 14.4642L15.9774 13.5476L17.7765 14.4472C17.9137 14.5158 18.0748 14.5176 18.2135 14.4522L20.1166 13.5539L21.9771 13.5192C21.9544 13.2815 21.915 13.0483 21.8599 12.8209C21.8356 12.7203 21.8082 12.6209 21.7779 12.5227L19.9908 12.5561C19.9202 12.5574 19.8506 12.5737 19.7867 12.6039L18.0064 13.4441L16.2237 12.5528C16.096 12.4889 15.947 12.4827 15.8144 12.5358L13.5001 13.4615L11.1858 12.5358C11.0666 12.4881 10.9336 12.4881 10.8144 12.5358Z" fill="#0000CC"/>
</svg>
