<svg width="24" height="24" viewBox="0 0 24 24" fill="none" xmlns="http://www.w3.org/2000/svg">
<path opacity="0.3" d="M3 22C2.44772 22 2 21.5523 2 21V12H6.5V11.5C6.5 11 7 10.5 7.5 10.5C8 10.5 8.5 11 8.5 11.5V12H12V8.5H12.5C13 8.5 13.5 8 13.5 7.5C13.5 7 13 6.5 12.5 6.5H12V2H21C21.5523 2 22 2.44772 22 3V12H17.5V12.5C17.5 13 17 13.5 16.5 13.5C16 13.5 15.5 13 15.5 12.5V12H12V15.5H11.5C11 15.5 10.5 16 10.5 16.5C10.5 17 11 17.5 11.5 17.5H12V22H3Z" fill="#0000CC"/>
<path d="M3 2C2.44772 2 2 2.44772 2 3V12H6.5V11.5C6.5 11 7 10.5 7.5 10.5C8 10.5 8.5 11 8.5 11.5V12H12V8.5H12.5C13 8.5 13.5 8 13.5 7.5C13.5 7 13 6.5 12.5 6.5H12V2H3Z" fill="#0000CC"/>
<path d="M21 22C21.5523 22 22 21.5523 22 21V12H17.5V12.5C17.5 13 17 13.5 16.5 13.5C16 13.5 15.5 13 15.5 12.5V12H12V15.5H11.5C11 15.5 10.5 16 10.5 16.5C10.5 17 11 17.5 11.5 17.5H12V22H21Z" fill="#0000CC"/>
</svg>
