<svg width="24" height="24" viewBox="0 0 24 24" fill="none" xmlns="http://www.w3.org/2000/svg">
<path opacity="0.3" d="M2 15V9H4C4 9.69652 4.41319 10.4706 5.39399 11.196C6.81959 12.2504 9.20711 13 12 13C14.793 13 17.1819 12.2504 18.6074 11.196C19.5875 10.4711 20 9.69717 20 9H22V15C22 16.9088 20.6192 18.4266 18.8496 19.4097C17.0462 20.4116 14.6225 21 12 21C9.37749 21 6.95383 20.4116 5.1504 19.4097C3.38084 18.4266 2 16.9088 2 15Z" fill="#0000CC"/>
<path fill-rule="evenodd" clip-rule="evenodd" d="M20 12.6482C19.9333 12.7012 19.8656 12.7531 19.7967 12.804C17.9383 14.1785 15.0959 15 12 15C8.90395 15 6.06304 14.1785 4.20469 12.804C4.13539 12.7527 4.06713 12.7004 4 12.6471V15C4 15.8526 4.63388 16.8348 6.12168 17.6614C7.57561 18.4691 9.65195 19 12 19C14.3481 19 16.4244 18.4691 17.8783 17.6614C19.3661 16.8348 20 15.8526 20 15V12.6482ZM2 9V15C2 16.9088 3.38084 18.4266 5.1504 19.4097C6.95383 20.4116 9.37749 21 12 21C14.6225 21 17.0462 20.4116 18.8496 19.4097C20.6192 18.4266 22 16.9088 22 15V9C22 7.09122 20.6192 5.5734 18.8496 4.59031C17.0462 3.5884 14.6225 3 12 3C9.37749 3 6.95383 3.5884 5.1504 4.59031C3.38084 5.5734 2 7.09122 2 9ZM17.1964 11.9999C15.8134 11.3887 14.0125 11 12.0014 11C9.99015 11 8.1884 11.3887 6.80507 12.0001C8.18799 12.6113 9.9889 13 12 13C14.0113 13 15.813 12.6113 17.1964 11.9999Z" fill="#0000CC"/>
</svg>
