<svg width="24" height="24" viewBox="0 0 24 24" fill="none" xmlns="http://www.w3.org/2000/svg">
<path opacity="0.14" d="M19 17C19 19.2091 17.433 21 15.5 21C13.567 21 12 19.2091 12 17C12 14.7909 13.567 13 15.5 13C17.433 13 19 14.7909 19 17Z" fill="#0000CC"/>
<path d="M8 21V3M11 3V8C11 9.65685 9.65685 11 8 11C6.34315 11 5 9.65685 5 8V3M15.5 13V3M15.5 13C13.567 13 12 14.7909 12 17C12 19.2091 13.567 21 15.5 21C17.433 21 19 19.2091 19 17C19 14.7909 17.433 13 15.5 13Z" stroke="#0000CC" stroke-width="2" stroke-linecap="round" stroke-linejoin="round"/>
</svg>
