<svg width="24" height="24" viewBox="0 0 24 24" fill="none" xmlns="http://www.w3.org/2000/svg">
<path d="M12.6893 2C10.1141 2 7.90376 3.51707 6.80892 5.62107C3.91761 6.33361 2 8.87702 2 11.6493C2 13.6028 2.88717 15.3459 4.28042 16.5095L5.58952 11.2722C5.99131 9.66483 7.62008 8.68749 9.22748 9.08928C10.0021 9.28291 10.6304 9.76151 11.0286 10.3853C11.6734 10.0223 12.4529 9.89567 13.2275 10.0893C13.4939 10.1559 13.7429 10.2561 13.9713 10.3844C14.6464 9.32764 15.9438 8.76889 17.2275 9.08977C18.8349 9.49155 19.8122 11.1203 19.4104 12.7277L18.156 17.7462C20.3846 17.043 22 14.9583 22 12.4969C22 10.4783 20.9071 8.58575 19.2384 7.60789C18.7677 4.42894 16.0089 2 12.6893 2Z" fill="#0000CC"/>
<path d="M9.47014 12.2422C9.60407 11.7064 9.27829 11.1635 8.74249 11.0296C8.20669 10.8957 7.66377 11.2214 7.52984 11.7572L5.52984 19.7585C5.39591 20.2943 5.72169 20.8372 6.25749 20.9712C6.79329 21.1051 7.33622 20.7793 7.47014 20.2435L9.47014 12.2422Z" fill="#0000CC"/>
<path d="M17.4701 12.2427C17.6041 11.7069 17.2783 11.164 16.7425 11.0301C16.2067 10.8962 15.6638 11.2219 15.5298 11.7577L13.5298 19.759C13.3959 20.2948 13.7217 20.8377 14.2575 20.9717C14.7933 21.1056 15.3362 20.7798 15.4701 20.244L17.4701 12.2427Z" fill="#0000CC"/>
<path d="M13.4701 13.2422C13.6041 12.7064 13.2783 12.1635 12.7425 12.0296C12.2067 11.8957 11.6638 12.2214 11.5298 12.7572L9.52984 20.7585C9.39591 21.2943 9.72169 21.8372 10.2575 21.9712C10.7933 22.1051 11.3362 21.7793 11.4701 21.2435L13.4701 13.2422Z" fill="#0000CC"/>
</svg>
