<svg width="24" height="24" viewBox="0 0 24 24" fill="none" xmlns="http://www.w3.org/2000/svg">
<path d="M8 1.5C8.55228 1.5 9 1.94772 9 2.5V3.5C9 4.05228 8.55228 4.5 8 4.5C7.44772 4.5 7 4.05228 7 3.5V2.5C7 1.94772 7.44772 1.5 8 1.5Z" fill="#0000CC"/>
<path d="M3.40422 3.40373C3.79475 3.01321 4.42791 3.01321 4.81843 3.40373L5.52554 4.11084C5.91607 4.50136 5.91607 5.13453 5.52554 5.52505C5.13502 5.91558 4.50185 5.91558 4.11133 5.52505L3.40422 4.81795C3.0137 4.42742 3.0137 3.79426 3.40422 3.40373Z" fill="#0000CC"/>
<path d="M12.5958 4.81795L11.8887 5.52505C11.4981 5.91558 10.865 5.91558 10.4745 5.52505C10.0839 5.13453 10.0839 4.50136 10.4745 4.11084L11.1816 3.40373C11.5721 3.01321 12.2053 3.01321 12.5958 3.40373C12.9863 3.79426 12.9863 4.42742 12.5958 4.81795Z" fill="#0000CC"/>
<path d="M1.5 8C1.5 7.44772 1.94772 7 2.5 7H3.5C4.05228 7 4.5 7.44772 4.5 8C4.5 8.55228 4.05228 9 3.5 9H2.5C1.94772 9 1.5 8.55228 1.5 8Z" fill="#0000CC"/>
<path d="M4.11125 10.475C4.50178 10.0845 5.13494 10.0845 5.52547 10.475C5.91599 10.8655 5.91599 11.4987 5.52547 11.8892L4.81836 12.5963C4.42783 12.9869 3.79467 12.9869 3.40415 12.5963C3.01362 12.2058 3.01362 11.5727 3.40415 11.1821L4.11125 10.475Z" fill="#0000CC"/>
<path d="M10.9879 7.67843C9.7017 8.26557 8.61329 9.1991 7.84519 10.341C7.51546 10.4528 7.19767 10.5862 6.89343 10.7393C5.78424 10.2989 5 9.21605 5 7.95001C5 6.29316 6.34315 4.95001 8 4.95001C9.56531 4.95001 10.8506 6.14884 10.9879 7.67843Z" fill="#0000CC"/>
<path d="M9.15671 12.054C10.0425 10.2793 11.928 9 14.1127 9C16.9157 9 19.2569 11.0239 19.5722 13.6687C21.0192 14.4076 22 15.9616 22 17.6402C22 20.0647 19.9683 22 17.5 22L10.3 22C7.39459 22 5 19.744 5 16.9137C5 14.6357 6.67206 12.5631 9.15671 12.054Z" fill="#0000CC"/>
</svg>
