<svg width="24" height="24" viewBox="0 0 24 24" fill="none" xmlns="http://www.w3.org/2000/svg">
<path d="M18.5 2C14.8398 2 11.7919 4.62202 11.1323 8.09023C13.7789 8.5151 15.9673 10.402 16.7491 12.9333C17.9501 13.9486 18.7464 15.4068 18.9491 16.9868C19.8066 16.936 20.6269 16.7409 21.3849 16.4248C21.7574 16.2695 22 15.9054 22 15.5018C22 15.0982 21.7574 14.7342 21.3849 14.5789C19.3954 13.7492 18 11.7864 18 9.5C18 7.21618 19.397 5.2537 21.3856 4.42268C21.7579 4.26711 22.0002 3.90309 22 3.49963C21.9999 3.09617 21.7573 2.73233 21.3849 2.57704C20.4969 2.20671 19.5218 2 18.5 2Z" fill="#0000CC"/>
<path d="M5.56694 12.625C6.42354 11.0914 8.07836 10 9.9978 10C12.4765 10 14.5614 11.7624 14.9802 14.1123C16.206 14.8787 17 16.2843 17 17.7835C17 20.1219 15.0874 22 12.75 22L6.9 22C4.21296 22 2 19.8601 2 17.1781C2 15.0963 3.42714 13.2024 5.56694 12.625Z" fill="#0000CC"/>
</svg>
