<svg width="24" height="24" viewBox="0 0 24 24" fill="none" xmlns="http://www.w3.org/2000/svg">
<path fill-rule="evenodd" clip-rule="evenodd" d="M7.32159 5.1171C8.32966 3.29155 10.3194 2 12.6127 2C15.5626 2 18.0685 4.06975 18.5317 6.85019C20.0163 7.71575 21 9.36366 21 11.1402C21 13.8575 18.7275 16 16 16L8.8 16C5.64015 16 3 13.5413 3 10.4137C3 7.95928 4.74492 5.75122 7.32159 5.1171ZM8.44721 17.1056C8.94119 17.3526 9.14142 17.9532 8.89443 18.4472L7.39443 21.4472C7.14744 21.9412 6.54676 22.1414 6.05279 21.8944C5.55881 21.6474 5.35858 21.0468 5.60557 20.5528L7.10557 17.5528C7.35256 17.0588 7.95324 16.8586 8.44721 17.1056ZM12.4472 17.1056C12.9412 17.3526 13.1414 17.9532 12.8944 18.4472L11.3944 21.4472C11.1474 21.9412 10.5468 22.1414 10.0528 21.8944C9.55881 21.6474 9.35858 21.0468 9.60557 20.5528L11.1056 17.5528C11.3526 17.0588 11.9532 16.8586 12.4472 17.1056ZM16.4472 17.1056C16.9412 17.3526 17.1414 17.9532 16.8944 18.4472L15.3944 21.4472C15.1474 21.9412 14.5468 22.1414 14.0528 21.8944C13.5588 21.6474 13.3586 21.0468 13.6056 20.5528L15.1056 17.5528C15.3526 17.0588 15.9532 16.8586 16.4472 17.1056Z" fill="#0000CC"/>
</svg>
