<svg width="24" height="24" viewBox="0 0 24 24" fill="none" xmlns="http://www.w3.org/2000/svg">
<path d="M12.6893 2C10.1141 2 7.90376 3.51707 6.80892 5.62107C3.91761 6.33361 2 8.87702 2 11.6493C2 13.921 3.19979 15.9083 5 17.0304V13C5 11.3431 6.34315 10 8 10C9.06226 10 9.99556 10.5521 10.5286 11.385C10.9634 11.1399 11.4653 11 12 11C12.5347 11 13.0366 11.1399 13.4714 11.385C14.0044 10.5521 14.9377 10 16 10C17.6569 10 19 11.3431 19 13V17.4C20.781 16.489 22 14.6351 22 12.4969C22 10.4783 20.9071 8.58575 19.2384 7.60789C18.7677 4.42894 16.0089 2 12.6893 2Z" fill="#0000CC"/>
<path d="M9 13C9 12.4477 8.55229 12 8 12C7.44771 12 7 12.4477 7 13V20C7 20.5523 7.44771 21 8 21C8.55229 21 9 20.5523 9 20V13Z" fill="#0000CC"/>
<path d="M16 12C16.5523 12 17 12.4477 17 13V20C17 20.5523 16.5523 21 16 21C15.4477 21 15 20.5523 15 20V13C15 12.4477 15.4477 12 16 12Z" fill="#0000CC"/>
<path d="M12 13C12.5523 13 13 13.4477 13 14V21C13 21.5523 12.5523 22 12 22C11.4477 22 11 21.5523 11 21V14C11 13.4477 11.4477 13 12 13Z" fill="#0000CC"/>
</svg>
