<svg width="24" height="24" viewBox="0 0 24 24" fill="none" xmlns="http://www.w3.org/2000/svg">
<path d="M12.6893 2C10.1141 2 7.90376 3.51707 6.80892 5.62107C3.91761 6.33361 2 8.87702 2 11.6493C2 14.9411 4.51913 17.6356 7.73388 17.966C7.6045 17.8168 7.48885 17.6537 7.3894 17.4781C6.85688 16.5375 6.87145 15.3833 7.42752 14.4565L10.4275 9.45648C11.28 8.03574 13.1227 7.57504 14.5435 8.42749C15.9642 9.27993 16.4249 11.1227 15.5725 12.5435L15.2902 13.014C16.2569 13.1078 17.1261 13.6662 17.6106 14.5219C18.1431 15.4624 18.1286 16.6167 17.5725 17.5435L17.3365 17.9368C19.9775 17.5336 22 15.2511 22 12.4969C22 10.4783 20.9071 8.58575 19.2384 7.60789C18.7677 4.42894 16.0089 2 12.6893 2Z" fill="#0000CC"/>
<path d="M13.8575 11.5146C14.1416 11.0411 13.9881 10.4268 13.5145 10.1427C13.0409 9.85851 12.4267 10.0121 12.1425 10.4857L9.14251 15.4857C8.95715 15.7946 8.95229 16.1793 9.1298 16.4928C9.30731 16.8064 9.63973 17.0002 10 17.0002H13.2338L11.1425 20.4857C10.8584 20.9592 11.0119 21.5735 11.4855 21.8576C11.9591 22.1418 12.5733 21.9882 12.8575 21.5146L15.8575 16.5146C16.0429 16.2057 16.0477 15.821 15.8702 15.5075C15.6927 15.1939 15.3603 15.0002 15 15.0002H11.7662L13.8575 11.5146Z" fill="#0000CC"/>
</svg>
