<svg width="24" height="24" viewBox="0 0 24 24" fill="none" xmlns="http://www.w3.org/2000/svg">
<path d="M20 13.8C20 14.4153 19.9336 15.0155 19.8076 15.5934L8.96881 4.75461C9.51075 4.15469 10.0117 3.62019 10.408 3.20454C10.675 2.92445 10.8951 2.6977 11.0488 2.54053C11.1257 2.46193 11.1861 2.4007 11.2274 2.35885L11.275 2.31086L11.2923 2.29345C11.4799 2.10557 11.7345 2 12 2C12.2655 2 12.5201 2.10557 12.7077 2.29345L12.725 2.31086L12.7726 2.35885C12.8139 2.4007 12.8743 2.46193 12.9512 2.54053C13.1049 2.6977 13.325 2.92445 13.592 3.20454C14.1256 3.76422 14.849 4.53937 15.6066 5.39957C16.3627 6.25805 17.1612 7.21073 17.841 8.12415C18.5073 9.01936 19.1108 9.9439 19.4217 10.7338C19.7951 11.6827 20 12.7182 20 13.8Z" fill="#0000CC"/>
<path d="M6.396 7.81022C6.3156 7.91524 6.2365 8.01995 6.15895 8.12415C5.49269 9.01936 4.88915 9.9439 4.57829 10.7338C4.20485 11.6827 4 12.7182 4 13.8C4 18.302 7.55535 22 12 22C14.3505 22 16.4523 20.9658 17.9111 19.3253L20.2929 21.7071C20.6834 22.0976 21.3166 22.0976 21.7071 21.7071C22.0976 21.3166 22.0976 20.6834 21.7071 20.2929L3.70711 2.29289C3.31658 1.90237 2.68342 1.90237 2.29289 2.29289C1.90237 2.68342 1.90237 3.31658 2.29289 3.70711L6.396 7.81022Z" fill="#0000CC"/>
</svg>
