<svg width="24" height="24" viewBox="0 0 24 24" fill="none" xmlns="http://www.w3.org/2000/svg">
<path fill-rule="evenodd" clip-rule="evenodd" d="M13 2C13.5523 2 14 2.44772 14 3V3.5H14.5C15.0523 3.5 15.5 3.94772 15.5 4.5C15.5 5.05228 15.0523 5.5 14.5 5.5H14V6C14 6.55228 13.5523 7 13 7C12.4477 7 12 6.55228 12 6V5.5H11.5C10.9477 5.5 10.5 5.05228 10.5 4.5C10.5 3.94772 10.9477 3.5 11.5 3.5H12V3C12 2.44772 12.4477 2 13 2ZM8.63173 4.29289C8.92598 4.58715 9.00725 5.03289 8.83578 5.41206C8.418 6.33586 8.18492 7.36198 8.18492 8.44523C8.18492 12.5155 11.4845 15.8151 15.5548 15.8151C16.638 15.8151 17.6641 15.582 18.5879 15.1642C18.9671 14.9927 19.4128 15.074 19.7071 15.3683C20.0014 15.6625 20.0826 16.1083 19.9112 16.4874C18.4419 19.7362 15.1713 22 11.3698 22C6.19502 22 2 17.805 2 12.6302C2 8.82867 4.26378 5.55807 7.51256 4.08884C7.89173 3.91737 8.33747 3.99863 8.63173 4.29289ZM18.5 6C19.0523 6 19.5 6.44772 19.5 7V8.5H21C21.5523 8.5 22 8.94772 22 9.5C22 10.0523 21.5523 10.5 21 10.5H19.5V12C19.5 12.5523 19.0523 13 18.5 13C17.9477 13 17.5 12.5523 17.5 12V10.5H16C15.4477 10.5 15 10.0523 15 9.5C15 8.94772 15.4477 8.5 16 8.5H17.5V7C17.5 6.44772 17.9477 6 18.5 6Z" fill="#0000CC"/>
</svg>
