<svg width="24" height="24" viewBox="0 0 24 24" fill="none" xmlns="http://www.w3.org/2000/svg">
<path fill-rule="evenodd" clip-rule="evenodd" d="M11.9997 2C12.552 2 12.9997 2.44772 12.9997 3V4.58579L14.2926 3.29289C14.6831 2.90237 15.3163 2.90237 15.7068 3.29289C16.0973 3.68342 16.0973 4.31658 15.7068 4.70711L12.9997 7.41421V10.2688L15.4726 8.84107L16.4635 5.1431C16.6064 4.60963 17.1547 4.29305 17.6882 4.43599C18.2217 4.57893 18.5383 5.12727 18.3953 5.66074L17.9221 7.42686L19.2954 6.63397C19.7737 6.35783 20.3853 6.5217 20.6614 6.99999C20.9376 7.47829 20.7737 8.08988 20.2954 8.36602L18.9221 9.15891L20.6882 9.63214C21.2217 9.77508 21.5382 10.3234 21.3953 10.8569C21.2524 11.3904 20.704 11.7069 20.1706 11.564L16.4726 10.5731L14.001 12.0001L16.4721 13.4269L20.1701 12.436C20.7036 12.293 21.2519 12.6096 21.3948 13.1431C21.5378 13.6766 21.2212 14.2249 20.6877 14.3678L18.9216 14.8411L20.2949 15.634C20.7732 15.9101 20.9371 16.5217 20.661 17C20.3848 17.4783 19.7732 17.6422 19.2949 17.366L17.9216 16.5731L18.3948 18.3392C18.5378 18.8727 18.2212 19.421 17.6877 19.564C17.1543 19.7069 16.6059 19.3903 16.463 18.8569L15.4721 15.1589L12.9997 13.7314V16.5858L15.7068 19.2929C16.0973 19.6834 16.0973 20.3166 15.7068 20.7071C15.3163 21.0976 14.6831 21.0976 14.2926 20.7071L12.9997 19.4142V21C12.9997 21.5523 12.552 22 11.9997 22C11.4474 22 10.9997 21.5523 10.9997 21V19.4142L9.70678 20.7071C9.31626 21.0976 8.68309 21.0976 8.29257 20.7071C7.90205 20.3166 7.90205 19.6834 8.29257 19.2929L10.9997 16.5858V13.7329L8.52977 15.1589L7.5389 18.8569C7.39596 19.3904 6.84762 19.7069 6.31416 19.564C5.78069 19.4211 5.46411 18.8727 5.60705 18.3393L6.08028 16.5731L4.70695 17.366C4.22866 17.6422 3.61707 17.4783 3.34093 17C3.06478 16.5217 3.22866 15.9101 3.70695 15.634L5.08028 14.8411L3.31416 14.3678C2.78069 14.2249 2.46411 13.6766 2.60705 13.1431C2.74999 12.6096 3.29833 12.293 3.8318 12.436L7.52977 13.4269L10.001 12.0001L7.52931 10.5731L3.83133 11.564C3.29787 11.7069 2.74953 11.3903 2.60659 10.8569C2.46365 10.3234 2.78023 9.77508 3.31369 9.63214L5.07982 9.1589L3.70649 8.36601C3.2282 8.08987 3.06432 7.47828 3.34046 6.99999C3.61661 6.52169 4.2282 6.35782 4.70649 6.63396L6.07982 7.42685L5.60659 5.66073C5.46365 5.12726 5.78023 4.57893 6.31369 4.43598C6.84716 4.29304 7.3955 4.60962 7.53844 5.14309L8.52931 8.84107L10.9997 10.2673V7.41421L8.29257 4.70711C7.90205 4.31658 7.90205 3.68342 8.29257 3.29289C8.68309 2.90237 9.31626 2.90237 9.70678 3.29289L10.9997 4.58579V3C10.9997 2.44772 11.4474 2 11.9997 2Z" fill="#0000CC"/>
</svg>
