<svg width="24" height="24" viewBox="0 0 24 24" fill="none" xmlns="http://www.w3.org/2000/svg">
<path fill-rule="evenodd" clip-rule="evenodd" d="M17.5 6C17.5 5.44772 17.9477 5 18.5 5H19.5C21.433 5 23 6.567 23 8.5C23 10.433 21.433 12 19.5 12H15C14.4477 12 14 11.5523 14 11C14 10.4477 14.4477 10 15 10H19.5C20.3284 10 21 9.32843 21 8.5C21 7.67157 20.3284 7 19.5 7H18.5C17.9477 7 17.5 6.55228 17.5 6ZM5.86715 6.55901C5.55352 6.50007 5.21713 6.59194 4.97445 6.83463C4.58393 7.22515 4.58393 7.85831 4.97445 8.24884L5.76492 9.0393V10.6857L4.33944 9.86269L4.04994 8.78247C3.90697 8.24901 3.35862 7.93246 2.82516 8.07543C2.4936 8.16429 2.24583 8.40975 2.1401 8.7109C1.7718 8.68642 1.40402 8.86762 1.207 9.20887C1.00997 9.55015 1.03695 9.95928 1.24233 10.266C1.03446 10.5081 0.945821 10.8454 1.03465 11.1769C1.17759 11.7104 1.72593 12.027 2.2594 11.884L3.33934 11.5947L4.76471 12.4176L3.33907 13.2407L2.25907 12.9513C1.7256 12.8084 1.17726 13.125 1.03432 13.6584C0.945489 13.99 1.03413 14.3272 1.24202 14.5694C1.0366 14.8761 1.0096 15.2853 1.20665 15.6266C1.40375 15.968 1.77176 16.1492 2.1402 16.1245C2.24597 16.4257 2.49384 16.6712 2.82551 16.76C3.359 16.9028 3.90727 16.5861 4.0501 16.0526L4.33923 14.9727L5.76492 14.1495V15.796L4.97445 16.5865C4.58393 16.977 4.58393 17.6101 4.97445 18.0007C5.21713 18.2433 5.5535 18.3352 5.86712 18.2763C6.03008 18.6075 6.37088 18.8354 6.76492 18.8354C7.15896 18.8354 7.49978 18.6075 7.66272 18.2763C7.97636 18.3352 8.31278 18.2434 8.5555 18.0007C8.94606 17.6102 8.94611 16.9771 8.55562 16.5865L7.76492 15.7957V14.1498L9.19 14.9726L9.47946 16.0528C9.6224 16.5863 10.1707 16.9029 10.7042 16.7599C11.0358 16.6711 11.2835 16.4257 11.3893 16.1245C11.7577 16.1491 12.1257 15.9679 12.3228 15.6266C12.5198 15.2853 12.4928 14.8762 12.2874 14.5695C12.4953 14.3273 12.584 13.9901 12.4952 13.6585C12.3523 13.125 11.804 12.8084 11.2705 12.9513L10.1903 13.2407L8.76471 12.4176L10.1903 11.5946L11.2705 11.884C11.804 12.027 12.3523 11.7104 12.4953 11.1769C12.5841 10.8452 12.4954 10.5078 12.2873 10.2657C12.4925 9.95897 12.5194 9.55001 12.3224 9.20887C12.1255 8.86777 11.7579 8.68659 11.3898 8.71087C11.2841 8.40972 11.0363 8.16427 10.7047 8.07543C10.1712 7.93249 9.62291 8.24907 9.47997 8.78254L9.19065 9.86229L7.76492 10.6854V9.03961L8.55562 8.24878C8.94611 7.85822 8.94606 7.22506 8.5555 6.83457C8.31278 6.59188 7.97634 6.50004 7.66269 6.55904C7.49973 6.22788 7.15894 6 6.76492 6C6.37091 6 6.03012 6.22787 5.86715 6.55901ZM14 15C14 14.4477 14.4477 14 15 14H19.5C21.433 14 23 15.567 23 17.5C23 19.433 21.433 21 19.5 21H18.5C17.9477 21 17.5 20.5523 17.5 20C17.5 19.4477 17.9477 19 18.5 19H19.5C20.3284 19 21 18.3284 21 17.5C21 16.6716 20.3284 16 19.5 16H15C14.4477 16 14 15.5523 14 15Z" fill="#0000CC"/>
</svg>
