<svg width="24" height="24" viewBox="0 0 24 24" fill="none" xmlns="http://www.w3.org/2000/svg">
<path d="M13.4774 2.91909C13.3582 2.70493 13.1414 2.35197 12.7429 2.15402C11.8826 1.72668 10.9664 2.12164 10.5227 2.91909L10.1066 3.79796C10.1066 3.79796 9.69794 4.79761 9.44373 5.26827L9.43861 5.27766L9.42814 5.27543C9.32783 5.25358 9.19147 5.21339 8.93777 5.13728L7.22848 4.62449C6.9407 4.53811 6.66269 4.45467 6.43051 4.40755C6.2005 4.36087 5.83179 4.30642 5.44966 4.45189C4.98781 4.62771 4.62754 4.99905 4.46579 5.46602C4.33196 5.85238 4.39755 6.21927 4.45118 6.44776C4.50531 6.6784 4.59714 6.95375 4.69219 7.23878L5.26036 8.9433L4.54879 9.24825C4.26181 9.3712 3.98679 9.48903 3.77301 9.60466C3.56399 9.71771 3.23646 9.91708 3.03558 10.2842C2.79461 10.7246 2.76456 11.2501 2.95374 11.7151C2.99686 11.8211 3.05081 11.9157 3.11042 12H8.12602C8.04375 11.6804 8 11.3453 8 11C8 8.79086 9.79086 7 12 7C14.2091 7 16 8.79086 16 11C16 11.3453 15.9562 11.6804 15.874 12H20.8896C20.9492 11.9157 21.0032 11.8211 21.0463 11.7151C21.2355 11.2501 21.2054 10.7246 20.9645 10.2842C20.7636 9.91708 20.436 9.71771 20.227 9.60466C20.0132 9.48903 19.7383 9.37122 19.4513 9.24827L18.7397 8.9433L19.3078 7.23879C19.4029 6.95376 19.4947 6.6784 19.5489 6.44776C19.6025 6.21927 19.6681 5.85238 19.5342 5.46602C19.3725 4.99906 19.0122 4.62771 18.5504 4.45189C18.1682 4.30642 17.7995 4.36087 17.5695 4.40755C17.3373 4.45467 17.0593 4.53811 16.7716 4.62449L15.0623 5.13728C14.8086 5.21339 14.6722 5.25358 14.5719 5.27543L14.5614 5.27766L14.5563 5.26827C14.5075 5.17793 14.4491 5.04831 14.3416 4.80627L13.877 3.76099C13.7361 3.44396 13.6041 3.14689 13.4774 2.91909Z" fill="#0000CC"/>
<path d="M10 11C10 11.3643 10.0974 11.7058 10.2676 12H13.7324C13.9026 11.7058 14 11.3643 14 11C14 9.89543 13.1046 9 12 9C10.8954 9 10 9.89543 10 11Z" fill="#0000CC"/>
<path d="M5 14C4.44772 14 4 14.4477 4 15C4 15.5523 4.44772 16 5 16H13C13.5523 16 14 15.5523 14 15C14 14.4477 13.5523 14 13 14H5Z" fill="#0000CC"/>
<path d="M17 14C16.4477 14 16 14.4477 16 15C16 15.5523 16.4477 16 17 16H21C21.5523 16 22 15.5523 22 15C22 14.4477 21.5523 14 21 14H17Z" fill="#0000CC"/>
<path d="M3 17C2.44772 17 2 17.4477 2 18C2 18.5523 2.44772 19 3 19H19C19.5523 19 20 18.5523 20 18C20 17.4477 19.5523 17 19 17H3Z" fill="#0000CC"/>
<path d="M5 20C4.44772 20 4 20.4477 4 21C4 21.5523 4.44772 22 5 22H9C9.55228 22 10 21.5523 10 21C10 20.4477 9.55228 20 9 20H5Z" fill="#0000CC"/>
<path d="M13 20C12.4477 20 12 20.4477 12 21C12 21.5523 12.4477 22 13 22H21C21.5523 22 22 21.5523 22 21C22 20.4477 21.5523 20 21 20H13Z" fill="#0000CC"/>
</svg>
