<svg width="24" height="24" viewBox="0 0 24 24" fill="none" xmlns="http://www.w3.org/2000/svg">
<path fill-rule="evenodd" clip-rule="evenodd" d="M7 2C4.79086 2 3 3.79086 3 6V13.9995C2.37256 14.835 2 15.8748 2 16.9998C2 19.7613 4.23858 21.9998 7 21.9998C9.76142 21.9998 12 19.7613 12 16.9998C12 15.8748 11.6274 14.835 11 13.9995V6C11 3.79086 9.20914 2 7 2ZM8 11.9998C8 11.4475 7.55228 10.9998 7 10.9998C6.44772 10.9998 6 11.4475 6 11.9998V15.2674C5.4022 15.6132 5 16.2595 5 16.9998C5 18.1044 5.89543 18.9998 7 18.9998C8.10457 18.9998 9 18.1044 9 16.9998C9 16.2595 8.5978 15.6132 8 15.2674V11.9998Z" fill="#0000CC"/>
<path d="M18.7071 2.29289C18.3166 1.90237 17.6834 1.90237 17.2929 2.29289L14.2929 5.29289C13.9024 5.68342 13.9024 6.31658 14.2929 6.70711C14.6834 7.09763 15.3166 7.09763 15.7071 6.70711L17 5.41421V21C17 21.5523 17.4477 22 18 22C18.5523 22 19 21.5523 19 21V5.41421L20.2929 6.70711C20.6834 7.09763 21.3166 7.09763 21.7071 6.70711C22.0976 6.31658 22.0976 5.68342 21.7071 5.29289L18.7071 2.29289Z" fill="#0000CC"/>
</svg>
