<svg width="24" height="24" viewBox="0 0 24 24" fill="none" xmlns="http://www.w3.org/2000/svg">
<path fill-rule="evenodd" clip-rule="evenodd" d="M12 2C9.79086 2 8 3.79086 8 6V13.9995C7.37256 14.835 7 15.8748 7 16.9998C7 19.7613 9.23858 21.9998 12 21.9998C14.7614 21.9998 17 19.7613 17 16.9998C17 15.8748 16.6274 14.835 16 13.9995V6C16 3.79086 14.2091 2 12 2ZM13.0071 10.5013C13.0078 9.949 12.5606 9.50071 12.0084 9.5C11.4561 9.49929 11.0078 9.94643 11.0071 10.4987L11.0009 15.2668C10.4026 15.6125 10 16.2592 10 16.9998C10 18.1044 10.8954 18.9998 12 18.9998C13.1046 18.9998 14 18.1044 14 16.9998C14 16.2599 13.5982 15.6139 13.0009 15.2679L13.0071 10.5013Z" fill="#0000CC"/>
</svg>
