<svg width="24" height="24" viewBox="0 0 24 24" fill="none" xmlns="http://www.w3.org/2000/svg">
<path fill-rule="evenodd" clip-rule="evenodd" d="M8 2C5.79086 2 4 3.79086 4 6V13.9995C3.37256 14.835 3 15.8748 3 16.9998C3 19.7613 5.23858 21.9998 8 21.9998C10.7614 21.9998 13 19.7613 13 16.9998C13 15.8748 12.6274 14.835 12 13.9995V6C12 3.79086 10.2091 2 8 2ZM9 9C9 8.44772 8.55228 8 8 8C7.44772 8 7 8.44772 7 9V15.2674C6.4022 15.6132 6 16.2595 6 16.9998C6 18.1044 6.89543 18.9998 8 18.9998C9.10457 18.9998 10 18.1044 10 16.9998C10 16.2595 9.5978 15.6132 9 15.2674V9Z" fill="#0000CC"/>
<path d="M15 3C14.4477 3 14 3.44772 14 4C14 4.55228 14.4477 5 15 5H20C20.5523 5 21 4.55228 21 4C21 3.44772 20.5523 3 20 3H15Z" fill="#0000CC"/>
<path d="M15 7C14.4477 7 14 7.44772 14 8C14 8.55228 14.4477 9 15 9H20C20.5523 9 21 8.55228 21 8C21 7.44772 20.5523 7 20 7H15Z" fill="#0000CC"/>
<path d="M17 11C16.4477 11 16 11.4477 16 12C16 12.5523 16.4477 13 17 13H20C20.5523 13 21 12.5523 21 12C21 11.4477 20.5523 11 20 11H17Z" fill="#0000CC"/>
</svg>
