<svg width="24" height="24" viewBox="0 0 24 24" fill="none" xmlns="http://www.w3.org/2000/svg">
<path d="M6 9C6 6.23858 8.23858 4 11 4H17C17.5523 4 18 3.55228 18 3C18 2.44772 17.5523 2 17 2H11C7.13401 2 4 5.13401 4 9V11H3C2.44772 11 2 11.4477 2 12V21C2 21.5523 2.44772 22 3 22H7C7.55228 22 8 21.5523 8 21V12C8 11.4477 7.55228 11 7 11H6V9Z" fill="#0000CC"/>
<path fill-rule="evenodd" clip-rule="evenodd" d="M16.4108 6.19199C16.7619 5.936 17.2381 5.936 17.5892 6.19199C18.1714 6.61652 19.2548 7.42544 20.1944 8.54447C21.1309 9.65978 22 11.173 22 13C22 14.9688 21.5278 16.2964 20.8991 17.2237C20.6416 17.6036 20.3509 17.915 20.0913 18.1572L21.7954 20.394C22.0258 20.6963 22.0648 21.1032 21.8961 21.4438C21.7274 21.7845 21.3801 22 21 22H13C12.6199 22 12.2726 21.7845 12.1039 21.4438C11.9352 21.1032 11.9742 20.6963 12.2046 20.394L13.9087 18.1572C13.6491 17.915 13.3584 17.6036 13.1009 17.2237C12.4722 16.2964 12 14.9688 12 13C12 11.173 12.8691 9.65978 13.8056 8.54447C14.7452 7.42544 15.8286 6.61652 16.4108 6.19199ZM17 10C16.4477 10 16 10.4477 16 11C16 11.5523 16.4477 12 17 12H17.009C17.5613 12 18.009 11.5523 18.009 11C18.009 10.4477 17.5613 10 17.009 10H17Z" fill="#0000CC"/>
</svg>
