<svg width="24" height="24" viewBox="0 0 24 24" fill="none" xmlns="http://www.w3.org/2000/svg">
<path d="M18.6394 2.03434C19.5559 1.92573 20.5401 2.05464 21.2425 2.75701C21.9449 3.45938 22.0738 4.44366 21.9652 5.3601C21.8549 6.2908 21.484 7.33864 20.9417 8.42333C19.8521 10.6026 17.9639 13.1404 15.552 15.5523C13.14 17.9643 10.6022 19.8524 8.42297 20.942C7.33827 21.4844 6.29044 21.8553 5.35974 21.9656C4.44329 22.0742 3.45902 21.9453 2.75664 21.2429C2.05427 20.5405 1.92537 19.5562 2.03398 18.6398C2.14428 17.7091 2.51515 16.6613 3.0575 15.5766C3.94855 13.7945 5.37359 11.7726 7.18242 9.7758C5.38177 11.9525 4.53473 14.019 5.25787 14.7421C6.13087 15.6151 8.9617 14.1997 11.5807 11.5807C14.1997 8.9617 15.6151 6.13087 14.7421 5.25787C14.019 4.53478 11.9528 5.38166 9.77624 7.18206C11.7727 5.37358 13.7943 3.94879 15.5762 3.05786C16.6609 2.51552 17.7087 2.14464 18.6394 2.03434Z" fill="#0000CC"/>
</svg>
