<svg width="24" height="24" viewBox="0 0 24 24" fill="none" xmlns="http://www.w3.org/2000/svg">
<path d="M20.9829 22C20.7332 21.9955 20.4849 21.8978 20.2942 21.7071L16.1105 17.5234C15.4116 18.5044 15.0013 19.7037 15.0013 21V22H20.9829Z" fill="#0000CC"/>
<path d="M13.0013 21C13.0013 19.1518 13.629 17.4487 14.6815 16.0944L12.0012 13.4141L6.25249 19.163C8.10428 20.7304 10.4391 21.7474 13.0013 21.9589V21Z" fill="#0000CC"/>
<path d="M18.4866 6.92893L13.4155 11.9999L16.0957 14.6802C17.45 13.6277 19.153 13 21.0013 13H21.9602C21.7487 10.4377 20.7317 8.10297 19.1643 6.25118L18.4866 6.92893Z" fill="#0000CC"/>
<path d="M21.0013 15C19.7051 15 18.5058 15.4102 17.5247 16.1092L21.7084 20.2929C21.8931 20.4776 21.9902 20.7166 22 20.9586L22.0013 15H21.0013Z" fill="#0000CC"/>
<path d="M11.0013 3C11.0013 4.84829 10.3736 6.55131 9.32113 7.90559L12.0012 10.5857L17.0724 5.51471L17.7501 4.83697C15.8984 3.26963 13.5636 2.25265 11.0013 2.04111V3Z" fill="#0000CC"/>
<path d="M5.51579 17.0709L10.587 11.9999L7.90691 9.3198C6.55263 10.3723 4.84962 11 3.00133 11H2.04243C2.25396 13.5622 3.2709 15.8969 4.83818 17.7487L5.51579 17.0709Z" fill="#0000CC"/>
<path d="M2.00133 3V9L3.00133 9C4.29759 9 5.49687 8.58974 6.47795 7.89083L2.29422 3.70711C2.09904 3.51193 2.00141 3.25581 2.00133 3Z" fill="#0000CC"/>
<path d="M3.00133 2C3.25725 2 3.51317 2.09763 3.70843 2.29289L7.89216 6.47662C8.59107 5.49554 9.00133 4.29626 9.00133 3V2H3.00133Z" fill="#0000CC"/>
</svg>
