<svg width="24" height="24" viewBox="0 0 24 24" fill="none" xmlns="http://www.w3.org/2000/svg">
<path d="M11.5011 2.01233C9.11154 2.13096 6.75404 3.10302 4.92818 4.92888C3.10279 6.75428 2.13075 9.11103 2.01172 11.4999H3.01489C3.03333 11.4999 3.05178 11.5005 3.0702 11.5015C5.26588 11.6231 7.49941 10.8466 9.17441 9.17157C10.8492 7.49677 11.6243 5.26505 11.5026 3.06907C11.5016 3.05065 11.5011 3.0322 11.5011 3.01376V2.01233Z" fill="#0000CC"/>
<path d="M2.11181 13.4999C2.41962 15.5385 3.35874 17.5016 4.92818 19.071C6.49803 20.6409 8.46177 21.5801 10.5009 21.8876L10.4993 21.0018L10.4994 20.981C10.3652 18.2606 11.3398 15.4927 13.4183 13.4142C15.5053 11.3272 18.284 10.3564 21.0142 10.4999H21.8867C21.5789 8.46143 20.6397 6.49832 19.0703 4.92888C17.5013 3.35992 15.5389 2.42089 13.5011 2.11279V2.9868C13.6445 5.71622 12.6762 8.49823 10.5886 10.5858C8.50127 12.6731 5.71766 13.6434 2.98793 13.4999H2.11181Z" fill="#0000CC"/>
<path d="M21.9868 12.4999H20.9873C20.9688 12.4999 20.9504 12.4994 20.9319 12.4984C18.7368 12.3768 16.5079 13.1531 14.8325 14.8284C13.1568 16.5042 12.378 18.7362 12.4995 20.9308C12.5017 20.9698 12.5016 21.0084 12.4993 21.0464L12.5011 21.9874C14.8893 21.868 17.2454 20.896 19.0703 19.071C20.8957 17.2456 21.8678 14.8889 21.9868 12.4999Z" fill="#0000CC"/>
</svg>
