<svg width="24" height="24" viewBox="0 0 24 24" fill="none" xmlns="http://www.w3.org/2000/svg">
<path d="M9.82244 2.23791C8.72395 2.48198 7.69305 2.90674 6.76318 3.47933L10.3086 6.20744C10.437 6.30628 10.5395 6.43484 10.6073 6.58208L12.6654 11.0565L15.9188 11.3522L13.6554 6.07092L9.82244 2.23791Z" fill="#0000CC"/>
<path d="M5.12255 4.74046C3.20067 6.56196 2 9.14076 2 11.9999C2 13.7359 2.44314 15.3709 3.22293 16.7954L4.01751 12.8047C4.04811 12.651 4.11441 12.5067 4.21106 12.3833L8.28949 7.17734L5.12255 4.74046Z" fill="#0000CC"/>
<path d="M4.82927 18.9698C5.58685 19.749 6.47058 20.4054 7.44759 20.9058L7.48559 20.2383L7.48597 20.2312L7.50029 19.9432L7.69953 16.4432C7.71052 16.2501 7.77722 16.0644 7.89158 15.9085L10.8442 11.8831L9.4752 8.90688L5.93246 13.429L4.82927 18.9698Z" fill="#0000CC"/>
<path d="M9.40784 21.6606C10.2345 21.8819 11.1034 21.9999 12 21.9999C15.8027 21.9999 19.1097 19.8774 20.8007 16.7524L17.4375 18.3982C17.2641 18.483 17.0699 18.5159 16.8783 18.4928L9.63577 17.6202L9.49746 20.0497L9.49708 20.0568L9.48276 20.3448L9.40784 21.6606Z" fill="#0000CC"/>
<path d="M21.7916 14.0409C21.9282 13.382 22 12.6993 22 11.9999C22 11.9038 21.9986 11.8081 21.996 11.7126L21.3347 11.9876L17.8827 13.4233C17.7328 13.4857 17.5699 13.5106 17.4082 13.4959L12.4709 13.047L10.5162 15.7118L16.824 16.4718L21.7916 14.0409Z" fill="#0000CC"/>
<path d="M21.7246 9.65939C20.7025 5.39721 16.951 2.19652 12.4216 2.00867L15.2058 4.79288C15.2958 4.88284 15.3677 4.98913 15.4178 5.10607L18.0281 11.1968L21.7246 9.65939Z" fill="#0000CC"/>
</svg>
