<svg width="24" height="24" viewBox="0 0 24 24" fill="none" xmlns="http://www.w3.org/2000/svg">
<path fill-rule="evenodd" clip-rule="evenodd" d="M15 6C15 6.35064 14.9399 6.68722 14.8293 7H18C18.4589 7 18.8589 7.3123 18.9702 7.75746L21.9702 19.7575C22.0448 20.0562 21.9777 20.3727 21.7882 20.6154C21.5987 20.8581 21.3079 21 21 21H3.00001C2.69207 21 2.40131 20.8581 2.2118 20.6154C2.0223 20.3727 1.95518 20.0562 2.02987 19.7575L5.02987 7.75746C5.14116 7.3123 5.54114 7 6.00001 7H9.17071C9.06016 6.68722 9.00001 6.35064 9.00001 6C9.00001 4.34315 10.3432 3 12 3C13.6569 3 15 4.34315 15 6ZM11 6C11 5.44772 11.4477 5 12 5C12.5523 5 13 5.44772 13 6C13 6.55228 12.5523 7 12 7C11.4477 7 11 6.55228 11 6Z" fill="#0000CC"/>
</svg>
