<svg width="24" height="24" viewBox="0 0 24 24" fill="none" xmlns="http://www.w3.org/2000/svg">
<path fill-rule="evenodd" clip-rule="evenodd" d="M10 19C6.13401 19 3 15.866 3 12C3 11.2076 3.13201 10.4449 3.37541 9.73338C2.55954 9.32175 2 8.47622 2 7.5C2 6.11929 3.11929 5 4.5 5C5.29806 5 6.00877 5.37394 6.4665 5.95616C7.50336 5.34863 8.71082 5 10 5C11.2733 5 12.4701 5.3409 13.5007 5.93709C13.5396 5.95957 13.5769 5.98465 13.6124 6.01215L14.9076 7.01552L13.6103 9.54341C13.3582 10.0348 13.5521 10.6375 14.0434 10.8897C14.5348 11.1418 15.1375 10.9479 15.3897 10.4566L16.5162 8.26158L21.6124 12.2095C22.0128 12.5196 22.1181 13.0802 21.8575 13.5145L18.8575 18.5145C18.7184 18.7463 18.4914 18.9119 18.2281 18.9736C17.9649 19.0353 17.6879 18.9878 17.4603 18.8419L14.7737 17.1197C13.524 18.2852 11.8452 19 10 19ZM4.5 7C4.22386 7 4 7.22386 4 7.5C4 7.70033 4.11782 7.87315 4.28795 7.95294C4.47539 7.68884 4.68075 7.43826 4.90225 7.20297C4.81118 7.07984 4.66491 7 4.5 7ZM7.5 12C7.5 10.8954 8.39543 9.99996 9.5 9.99996C10.6046 9.99996 11.5 10.8954 11.5 12C11.5 13.1045 10.6046 14 9.5 14C8.39543 14 7.5 13.1045 7.5 12Z" fill="#0000CC"/>
</svg>
