<svg width="24" height="24" viewBox="0 0 24 24" fill="none" xmlns="http://www.w3.org/2000/svg">
<path d="M13 2C13 1.44772 12.5523 1 12 1C11.4477 1 11 1.44772 11 2V4.58579L10.7071 4.29289C10.3166 3.90237 9.68342 3.90237 9.29289 4.29289C8.90237 4.68342 8.90237 5.31658 9.29289 5.70711L11.2929 7.70711C11.6834 8.09763 12.3166 8.09763 12.7071 7.70711L14.7071 5.70711C15.0976 5.31658 15.0976 4.68342 14.7071 4.29289C14.3166 3.90237 13.6834 3.90237 13.2929 4.29289L13 4.58579V2Z" fill="#0000CC"/>
<path fill-rule="evenodd" clip-rule="evenodd" d="M4.43773 5.66358L7.07162 4.34674C6.91608 5.04701 7.01388 5.79221 7.36504 6.43595L6.23633 7.00026L8.00019 7.88218L8.42635 7.6691L9.87868 9.12143C11.0503 10.293 12.9497 10.293 14.1213 9.12143L14.7209 8.52182L17.7642 7.00018L16.6351 6.43561C16.9863 5.7917 17.084 5.04632 16.9282 4.34595L19.5632 5.66358L19.631 5.69726C19.8784 5.81977 20.1892 5.97374 20.4293 6.21884C20.5256 6.31715 20.6111 6.42482 20.6849 6.54C20.77 6.67297 20.8393 6.81596 20.8911 6.96612C21.003 7.29044 21.0016 7.63735 21.0006 7.91336L21.0004 7.98905V16.0114L21.0006 16.0871C21.0016 16.3631 21.003 16.71 20.8911 17.0343C20.7944 17.3146 20.6367 17.5698 20.4293 17.7816C20.1892 18.0267 19.8784 18.1807 19.631 18.3032L19.5632 18.3369L13.1639 21.5368L13.109 21.5644C12.9064 21.6666 12.6514 21.7951 12.3699 21.8479C12.2476 21.8708 12.1237 21.8823 11.9998 21.8822C11.8768 21.8821 11.7538 21.8707 11.6323 21.8479C11.3509 21.7951 11.0959 21.6666 10.8933 21.5645L10.8384 21.5369L4.43773 18.3369L4.36992 18.3032C4.12256 18.1807 3.81167 18.0267 3.5716 17.7817C3.36416 17.5699 3.20639 17.3146 3.10972 17.0343C2.99784 16.71 2.99916 16.3631 3.00021 16.087L3.0004 16.0113V7.98913L3.00021 7.91343C2.99916 7.6374 2.99784 7.29047 3.10972 6.96613C3.16152 6.81595 3.23087 6.67295 3.316 6.53997C3.38973 6.42479 3.47532 6.31712 3.5716 6.21882C3.81167 5.97372 4.12257 5.81975 4.36994 5.69725L4.43773 5.66358ZM7.94739 11.8558C7.45341 11.6088 6.85274 11.809 6.60575 12.303C6.35876 12.797 6.55899 13.3977 7.05297 13.6446L8.05297 14.1446C8.54694 14.3916 9.14762 14.1914 9.39461 13.6974C9.6416 13.2035 9.44137 12.6028 8.94739 12.3558L7.94739 11.8558Z" fill="#0000CC"/>
</svg>
