<svg width="24" height="24" viewBox="0 0 24 24" fill="none" xmlns="http://www.w3.org/2000/svg">
<path fill-rule="evenodd" clip-rule="evenodd" d="M12.3699 2.15235C12.1262 2.10661 11.8761 2.10661 11.6323 2.15233C11.3509 2.20512 11.0959 2.33361 10.8933 2.43571L10.8384 2.46331L4.43773 5.66335L4.36994 5.69703C4.12257 5.81953 3.81167 5.97349 3.5716 6.21859C3.47532 6.31689 3.38973 6.42456 3.316 6.53975C3.23087 6.67272 3.16152 6.81573 3.10972 6.9659C2.99784 7.29024 2.99916 7.63717 3.00021 7.91321L3.0004 7.9889V16.0111L3.00021 16.0868C2.99916 16.3628 2.99784 16.7098 3.10972 17.0341C3.20639 17.3144 3.36416 17.5696 3.5716 17.7814C3.81167 18.0265 4.12257 18.1805 4.36994 18.303L4.43773 18.3367L10.8384 21.5367L10.8933 21.5643C11.0959 21.6664 11.3509 21.7949 11.6323 21.8477C11.7538 21.8705 11.8768 21.8819 11.9998 21.882C12.1237 21.8821 12.2476 21.8706 12.3699 21.8477C12.6514 21.7948 12.9064 21.6663 13.109 21.5642L13.1639 21.5366L14.3659 20.9356C14.0748 20.4025 13.9424 19.7764 14.0235 19.1278C14.0866 18.623 14.2716 18.1633 14.5454 17.7745C14.2051 17.1868 13.9989 16.485 14.0003 15.6822C14.0028 14.2255 14.6831 12.9808 15.7962 12.214C15.9224 12.1271 16.0502 12.0489 16.1787 11.9786C16.5965 10.8246 17.7021 10 19.0003 10C19.7687 10 20.4696 10.2889 21.0004 10.764V7.98882L21.0006 7.91314C21.0016 7.63712 21.003 7.29022 20.8911 6.9659C20.8393 6.81573 20.77 6.67274 20.6849 6.53977C20.6111 6.42459 20.5256 6.31692 20.4293 6.21862C20.1892 5.97352 19.8784 5.81954 19.631 5.69703L19.5632 5.66335L13.1639 2.46339L13.109 2.43579C12.9064 2.33368 12.6514 2.20517 12.3699 2.15235ZM11.9966 4.12392C11.9439 4.14688 11.8728 4.18202 11.7325 4.25218L6.23633 7.00003L8.00019 7.88196L13.7644 4.99987L12.2692 4.2522C12.1288 4.18203 12.0578 4.14688 12.005 4.12392L12.0008 4.1221L11.9966 4.12392ZM16.0003 6.11795L10.2363 8.99999L12.0002 9.88196L17.7642 6.99996L16.0003 6.11795ZM7.94739 11.8556C7.45341 11.6086 6.85274 11.8088 6.60575 12.3028C6.35876 12.7968 6.55899 13.3974 7.05297 13.6444L8.05297 14.1444C8.54694 14.3914 9.14762 14.1912 9.39461 13.6972C9.6416 13.2032 9.44137 12.6026 8.94739 12.3556L7.94739 11.8556Z" fill="#0000CC"/>
<path d="M20.0001 13C20.0001 12.4477 19.5524 12 19.0001 12C18.4478 12 18.0001 12.4477 18.0001 13V13.436C17.6395 13.5024 17.2647 13.6309 16.9306 13.8611C16.3604 14.2539 16.0015 14.8832 16.0001 15.6857C15.9985 16.6092 16.4959 17.2524 17.1513 17.6045C17.7371 17.9191 18.4295 17.9999 19.0001 17.9999C19.4588 17.9999 19.7609 18.0593 19.9176 18.1399C19.9492 18.1561 19.9663 18.1691 19.9742 18.176C19.9781 18.1794 19.9801 18.1817 19.9809 18.1826L19.982 18.1839C19.982 18.184 19.9826 18.185 19.9837 18.1874C19.9847 18.1898 19.9867 18.1949 19.989 18.2034C19.9934 18.2201 20.0001 18.2545 20.0001 18.3124C20.0001 18.3169 20 18.3204 19.9998 18.3232C19.9912 18.3319 19.9731 18.3478 19.9396 18.3688C19.8016 18.4553 19.5369 18.5459 19.1247 18.599C19.0193 18.5992 18.9222 18.5997 18.8308 18.6002C18.2535 18.6032 17.9034 18.605 17.1241 18.5076C16.5761 18.4391 16.0763 18.8279 16.0078 19.3759C15.9393 19.9239 16.3281 20.4237 16.8761 20.4922C17.3417 20.5504 17.6905 20.5782 18.0001 20.591V21C18.0001 21.5523 18.4478 22 19.0001 22C19.5524 22 20.0001 21.5523 20.0001 21V20.469C20.3495 20.383 20.6958 20.2551 21.0015 20.0636C21.5628 19.7119 22.0001 19.1266 22.0001 18.3124C22.0001 17.8826 21.8987 17.4746 21.6745 17.1184C21.4519 16.7647 21.1464 16.523 20.8326 16.3615C20.2393 16.0562 19.5414 15.9999 19.0001 15.9999C18.5707 15.9999 18.2622 15.9309 18.0976 15.8425C18.0624 15.8236 18.0409 15.8075 18.0289 15.7969C18.0175 15.7869 18.0138 15.7812 18.0132 15.7802C18.0127 15.7795 18.0106 15.7763 18.0081 15.7672C18.0053 15.757 18 15.7327 18.0001 15.6891C18.0003 15.5935 18.0191 15.5565 18.0225 15.5501C18.0259 15.5436 18.0339 15.5297 18.0652 15.5081C18.1464 15.4522 18.3308 15.3851 18.6292 15.3755C18.7029 15.3735 18.7442 15.3728 18.7687 15.3726L18.7893 15.3726L18.793 15.3727L18.8131 15.3735C18.8258 15.3741 18.8414 15.3746 18.8608 15.3751C18.8985 15.376 18.9437 15.3763 19.0068 15.3759C19.7341 15.371 20.4075 15.3832 20.7594 15.4705C21.2954 15.6035 21.8377 15.2767 21.9707 14.7406C22.1037 14.2046 21.7769 13.6623 21.2408 13.5293C20.8857 13.4412 20.438 13.4023 20.0001 13.3859V13Z" fill="#0000CC"/>
</svg>
