<svg width="24" height="24" viewBox="0 0 24 24" fill="none" xmlns="http://www.w3.org/2000/svg">
<path d="M12.7071 1.29289C12.3166 0.902369 11.6834 0.902369 11.2929 1.29289L9.29289 3.29289C8.90237 3.68342 8.90237 4.31658 9.29289 4.70711C9.68342 5.09763 10.3166 5.09763 10.7071 4.70711L11 4.41421V7C11 7.55228 11.4477 8 12 8C12.5523 8 13 7.55228 13 7V4.41421L13.2929 4.70711C13.6834 5.09763 14.3166 5.09763 14.7071 4.70711C15.0976 4.31658 15.0976 3.68342 14.7071 3.29289L12.7071 1.29289Z" fill="#0000CC"/>
<path fill-rule="evenodd" clip-rule="evenodd" d="M4.43773 5.66336L7.02288 4.3709C7.10215 5.01081 7.38741 5.63007 7.87868 6.12134C7.89155 6.1342 7.9045 6.14693 7.91754 6.15951L6.23633 7.00005L8.00019 7.88197L9.02268 7.37072C9.20531 8.85267 10.4687 10 12 10C13.0605 10 13.9926 9.4497 14.5261 8.61905L17.7642 6.99997L16.0828 6.1592C16.0957 6.14671 16.1086 6.13409 16.1213 6.12134C16.6128 5.6299 16.8981 5.01038 16.9772 4.37024L19.5632 5.66337L19.631 5.69705C19.8784 5.81956 20.1892 5.97353 20.4293 6.21863C20.5256 6.31693 20.6111 6.42461 20.6849 6.53979C20.77 6.67276 20.8393 6.81575 20.8911 6.96591C21.003 7.29023 21.0016 7.63714 21.0006 7.91315L21.0004 7.98884V16.0112L21.0006 16.0869C21.0016 16.3629 21.003 16.7098 20.8911 17.0341C20.7944 17.3144 20.6367 17.5696 20.4293 17.7814C20.1892 18.0265 19.8784 18.1805 19.631 18.303L19.5632 18.3367L13.1639 21.5366L13.109 21.5642C12.9064 21.6663 12.6514 21.7949 12.3699 21.8477C12.2476 21.8706 12.1237 21.8821 11.9998 21.882C11.8768 21.8819 11.7538 21.8705 11.6323 21.8477C11.3509 21.7949 11.0959 21.6664 10.8933 21.5643L10.8384 21.5367L4.43773 18.3367L4.36993 18.303C4.12257 18.1805 3.81166 18.0265 3.5716 17.7814C3.36416 17.5696 3.20639 17.3144 3.10972 17.0341C2.99784 16.7098 2.99916 16.3629 3.00021 16.0868L3.0004 16.0111V7.98892L3.00021 7.91322C2.99916 7.63719 2.99784 7.29026 3.10972 6.96592C3.16152 6.81574 3.23087 6.67274 3.316 6.53976C3.38973 6.42458 3.47532 6.31691 3.5716 6.21861C3.81167 5.97351 4.12257 5.81954 4.36994 5.69704L4.43773 5.66336ZM7.94739 11.8556C7.45341 11.6086 6.85274 11.8088 6.60575 12.3028C6.35876 12.7968 6.55899 13.3974 7.05297 13.6444L8.05297 14.1444C8.54694 14.3914 9.14762 14.1912 9.39461 13.6972C9.6416 13.2032 9.44137 12.6026 8.94739 12.3556L7.94739 11.8556Z" fill="#0000CC"/>
</svg>
