<svg width="24" height="24" viewBox="0 0 24 24" fill="none" xmlns="http://www.w3.org/2000/svg">
<path d="M7.9313 8.99992H16.0686C16.6744 8.99992 16.9773 8.99992 17.1175 8.88013C17.2393 8.77618 17.3038 8.62025 17.2913 8.4607C17.2768 8.2768 17.0626 8.06262 16.6342 7.63424L12.5656 3.56561C12.3676 3.3676 12.2686 3.2686 12.1544 3.2315C12.054 3.19887 11.9458 3.19887 11.8454 3.2315C11.7313 3.2686 11.6323 3.3676 11.4342 3.56561L7.36561 7.63424C6.93724 8.06261 6.72305 8.2768 6.70858 8.4607C6.69602 8.62025 6.76061 8.77618 6.88231 8.88013C7.02257 8.99992 7.32548 8.99992 7.9313 8.99992Z" stroke="#0000CC" stroke-width="2" stroke-linecap="round" stroke-linejoin="round"/>
</svg>
