<svg width="24" height="24" viewBox="0 0 24 24" fill="none" xmlns="http://www.w3.org/2000/svg">
<g opacity="0.14">
<path d="M11 11C13.2091 11 15 9.20914 15 7C15 4.79086 13.2091 3 11 3C8.79086 3 7 4.79086 7 7C7 9.20914 8.79086 11 11 11Z" fill="#0000CC"/>
<path d="M4 21C4 17.134 7.13401 14 11 14C12.5643 14 14.0087 14.5131 15.1741 15.3802C14.4689 15.8222 14 16.6063 14 17.5C14 18.8807 15.1193 20 16.5 20C17.0014 20 17.4683 19.8524 17.8596 19.5983C17.9517 20.0512 18 20.5199 18 21H4Z" fill="#0000CC"/>
</g>
<path d="M18.5 19.5L20 21M4 21C4 17.134 7.13401 14 11 14M19 17.5C19 18.8807 17.8807 20 16.5 20C15.1193 20 14 18.8807 14 17.5C14 16.1193 15.1193 15 16.5 15C17.8807 15 19 16.1193 19 17.5ZM15 7C15 9.20914 13.2091 11 11 11C8.79086 11 7 9.20914 7 7C7 4.79086 8.79086 3 11 3C13.2091 3 15 4.79086 15 7Z" stroke="#0000CC" stroke-width="2" stroke-linecap="round" stroke-linejoin="round"/>
</svg>
