<svg width="24" height="24" viewBox="0 0 24 24" fill="none" xmlns="http://www.w3.org/2000/svg">
<g opacity="0.14">
<path d="M12 11C14.2091 11 16 9.20914 16 7C16 4.79086 14.2091 3 12 3C9.79086 3 8 4.79086 8 7C8 9.20914 9.79086 11 12 11Z" fill="#0000CC"/>
<path d="M12 15C11.1183 15 10.2809 14.8098 9.52682 14.4682C9.00431 14.2315 8.74302 14.1131 8.59797 14.0722C8.4472 14.0297 8.35983 14.0142 8.20361 14.0026C8.05331 13.9914 7.94079 14 7.71575 14.0171C7.6237 14.0241 7.5425 14.034 7.46558 14.048C6.23442 14.2708 5.27087 15.2344 5.04798 16.4656C5 16.7306 5 17.0484 5 17.6841V19.4C5 19.96 5 20.2401 5.10899 20.454C5.20487 20.6421 5.35785 20.7951 5.54601 20.891C5.75992 21 6.03995 21 6.6 21H17.4C17.9601 21 18.2401 21 18.454 20.891C18.6422 20.7951 18.7951 20.6421 18.891 20.454C19 20.2401 19 19.96 19 19.4V17.6787C19 17.0481 19 16.7327 18.9528 16.4697C18.7311 15.2352 17.7648 14.2689 16.5303 14.0472C16.4548 14.0337 16.3748 14.024 16.2842 14.0171C16.059 14 15.9464 13.9914 15.7961 14.0026C15.6399 14.0143 15.5527 14.0297 15.4019 14.0722C15.2569 14.1131 14.9957 14.2315 14.4732 14.4681C13.7191 14.8098 12.8817 15 12 15Z" fill="#0000CC"/>
</g>
<path d="M16 7C16 9.20914 14.2091 11 12 11C9.79086 11 8 9.20914 8 7C8 4.79086 9.79086 3 12 3C14.2091 3 16 4.79086 16 7Z" stroke="#0000CC" stroke-width="2" stroke-linejoin="round"/>
<path d="M5 17.23C5 17.0164 5 16.9097 5.00544 16.8195C5.09675 15.3048 6.30476 14.0967 7.81948 14.0054C7.90966 14 8.01643 14 8.22998 14C8.25761 14 8.27142 14 8.27996 14.0001C8.43185 14.0027 8.54021 14.0273 8.67839 14.0904C8.68616 14.094 8.70456 14.1028 8.74137 14.1203C9.29791 14.3861 10.7215 15 12 15C13.2785 15 14.7021 14.3861 15.2586 14.1203C15.2954 14.1028 15.3138 14.094 15.3216 14.0904C15.4598 14.0273 15.5682 14.0027 15.72 14.0001C15.7286 14 15.7424 14 15.77 14C15.9836 14 16.0903 14 16.1805 14.0054C17.6952 14.0967 18.9033 15.3048 18.9946 16.8195C19 16.9097 19 17.0164 19 17.23V19.4C19 19.9601 19 20.2401 18.891 20.454C18.7951 20.6422 18.6422 20.7951 18.454 20.891C18.2401 21 17.9601 21 17.4 21H6.6C6.03995 21 5.75992 21 5.54601 20.891C5.35785 20.7951 5.20487 20.6422 5.10899 20.454C5 20.2401 5 19.9601 5 19.4V17.23Z" stroke="#0000CC" stroke-width="2" stroke-linejoin="round"/>
</svg>
