<svg width="24" height="24" viewBox="0 0 24 24" fill="none" xmlns="http://www.w3.org/2000/svg">
<g opacity="0.14">
<path d="M15 7C15 9.20914 13.2091 11 11 11C8.79086 11 7 9.20914 7 7C7 4.79086 8.79086 3 11 3C13.2091 3 15 4.79086 15 7Z" fill="#0000CC"/>
<path d="M14.8716 15.1673C13.7628 14.4297 12.4316 14 11 14C7.13401 14 4 17.134 4 21H17H18C18 20.8403 17.9947 20.6819 17.9841 20.5248C17.679 20.7323 17.3487 20.8934 17 21C15.2748 20.4725 14 18.6121 14 16.3979C14 15.9855 14.0442 15.5853 14.1274 15.2037C14.1956 15.2078 14.2643 15.2099 14.3333 15.2099C14.5159 15.2099 14.6956 15.1954 14.8716 15.1673Z" fill="#0000CC"/>
</g>
<path d="M11 21H4C4 17.4735 6.60771 14.5561 10 14.0709M19.8726 15.2038C19.8044 15.2079 19.7357 15.21 19.6667 15.21C18.6422 15.21 17.7077 14.7524 17 14C16.2923 14.7524 15.3578 15.2099 14.3333 15.2099C14.2643 15.2099 14.1956 15.2078 14.1274 15.2037C14.0442 15.5853 14 15.9855 14 16.3979C14 18.6121 15.2748 20.4725 17 21C18.7252 20.4725 20 18.6121 20 16.3979C20 15.9855 19.9558 15.5853 19.8726 15.2038ZM15 7C15 9.20914 13.2091 11 11 11C8.79086 11 7 9.20914 7 7C7 4.79086 8.79086 3 11 3C13.2091 3 15 4.79086 15 7Z" stroke="#0000CC" stroke-width="2" stroke-linecap="round" stroke-linejoin="round"/>
</svg>
