<svg width="24" height="24" viewBox="0 0 24 24" fill="none" xmlns="http://www.w3.org/2000/svg">
<g opacity="0.14">
<path d="M15 7C15 9.20914 13.2091 11 11 11C8.79086 11 7 9.20914 7 7C7 4.79086 8.79086 3 11 3C13.2091 3 15 4.79086 15 7Z" fill="#0000CC"/>
<path d="M8.52682 14.4682C9.28093 14.8098 10.1183 15 11 15C11.8817 15 12.7191 14.8098 13.4732 14.4681C13.9957 14.2315 14.2569 14.1131 14.4019 14.0722C14.5527 14.0297 14.6399 14.0143 14.7961 14.0026C14.9464 13.9914 15.059 14 15.2842 14.0171C15.3748 14.024 15.4548 14.0337 15.5303 14.0472C15.8933 14.1124 16.2332 14.242 16.5377 14.4239C15.9057 14.9207 15.1479 15.2099 14.3333 15.2099C14.2643 15.2099 14.1956 15.2078 14.1274 15.2037C14.0442 15.5853 14 15.9855 14 16.3979C14 18.6008 15.2619 20.4536 16.9738 20.9919C16.8214 21 16.6355 21 16.4 21H5.6C5.03995 21 4.75992 21 4.54601 20.891C4.35785 20.7951 4.20487 20.6421 4.10899 20.454C4 20.2401 4 19.96 4 19.4V17.6841C4 17.0484 4 16.7306 4.04798 16.4656C4.27087 15.2344 5.23442 14.2708 6.46558 14.048C6.5425 14.034 6.6237 14.0241 6.71575 14.0171C6.94079 14 7.05331 13.9914 7.20361 14.0026C7.35983 14.0142 7.4472 14.0297 7.59797 14.0722C7.743 14.1131 8.00441 14.2315 8.52682 14.4682Z" fill="#0000CC"/>
<path d="M17.0393 20.9877C17.215 20.9746 17.3433 20.9474 17.454 20.891C17.5579 20.838 17.6511 20.7677 17.7298 20.6836C17.5101 20.809 17.2791 20.9113 17.0393 20.9877Z" fill="#0000CC"/>
</g>
<path d="M11 21H5.6C5.03995 21 4.75992 21 4.54601 20.891C4.35785 20.7951 4.20487 20.6422 4.10899 20.454C4 20.2401 4 19.9601 4 19.4V17.6841C4 17.0485 4 16.7306 4.04798 16.4656C4.27087 15.2344 5.23442 14.2709 6.46558 14.048C6.5425 14.0341 6.6237 14.0242 6.71575 14.0172C6.94079 14 7.05331 13.9914 7.20361 14.0026C7.35983 14.0143 7.4472 14.0297 7.59797 14.0722C7.74302 14.1131 8.00429 14.2315 8.52682 14.4682C8.98953 14.6778 9.48358 14.8304 10 14.917M19.8726 15.2038C19.8044 15.2079 19.7357 15.21 19.6667 15.21C18.6422 15.21 17.7077 14.7524 17 14C16.2923 14.7524 15.3578 15.2099 14.3333 15.2099C14.2643 15.2099 14.1956 15.2078 14.1274 15.2037C14.0442 15.5853 14 15.9855 14 16.3979C14 18.6121 15.2748 20.4725 17 21C18.7252 20.4725 20 18.6121 20 16.3979C20 15.9855 19.9558 15.5853 19.8726 15.2038ZM15 7C15 9.20914 13.2091 11 11 11C8.79086 11 7 9.20914 7 7C7 4.79086 8.79086 3 11 3C13.2091 3 15 4.79086 15 7Z" stroke="#0000CC" stroke-width="2" stroke-linecap="round" stroke-linejoin="round"/>
</svg>
