<svg width="24" height="24" viewBox="0 0 24 24" fill="none" xmlns="http://www.w3.org/2000/svg">
<g opacity="0.14">
<path d="M15 7C15 9.20914 13.2091 11 11 11C8.79086 11 7 9.20914 7 7C7 4.79086 8.79086 3 11 3C13.2091 3 15 4.79086 15 7Z" fill="#0000CC"/>
<path d="M8.52682 14.4682C9.28093 14.8098 10.1183 15 11 15C11.8817 15 12.7191 14.8098 13.4732 14.4681C13.9957 14.2315 14.2569 14.1131 14.4019 14.0722C14.5527 14.0297 14.6399 14.0143 14.7961 14.0026C14.9464 13.9914 15.059 14 15.2842 14.0171C15.3748 14.024 15.4548 14.0337 15.5303 14.0472C16.2736 14.1807 16.9196 14.5841 17.3645 15.1535C17.0951 15.0542 16.8039 15 16.5 15C15.1193 15 14 16.1193 14 17.5C14 18.8807 15.1193 20 16.5 20C17.0628 20 17.5821 19.814 18 19.5002C17.9996 19.9942 17.9933 20.2532 17.891 20.454C17.7951 20.6421 17.6422 20.7951 17.454 20.891C17.2401 21 16.9601 21 16.4 21H5.6C5.03995 21 4.75992 21 4.54601 20.891C4.35785 20.7951 4.20487 20.6421 4.10899 20.454C4 20.2401 4 19.96 4 19.4V17.6841C4 17.0484 4 16.7306 4.04798 16.4656C4.27087 15.2344 5.23442 14.2708 6.46558 14.048C6.5425 14.034 6.6237 14.0241 6.71575 14.0171C6.94079 14 7.05331 13.9914 7.20361 14.0026C7.35983 14.0142 7.4472 14.0297 7.59797 14.0722C7.743 14.1131 8.00441 14.2315 8.52682 14.4682Z" fill="#0000CC"/>
</g>
<path d="M18.5 19.5L20 21M11 21H5.6C5.03995 21 4.75992 21 4.54601 20.891C4.35785 20.7951 4.20487 20.6422 4.10899 20.454C4 20.2401 4 19.9601 4 19.4V17.6841C4 17.0485 4 16.7306 4.04798 16.4656C4.27087 15.2344 5.23442 14.2709 6.46558 14.048C6.5425 14.0341 6.6237 14.0242 6.71575 14.0172C6.94079 14 7.05331 13.9914 7.20361 14.0026C7.35983 14.0143 7.4472 14.0297 7.59797 14.0722C7.74302 14.1131 8.00429 14.2315 8.52682 14.4682C9.13692 14.7446 9.8015 14.9218 10.5 14.9795M19 17.5C19 18.8807 17.8807 20 16.5 20C15.1193 20 14 18.8807 14 17.5C14 16.1193 15.1193 15 16.5 15C17.8807 15 19 16.1193 19 17.5ZM15 7C15 9.20914 13.2091 11 11 11C8.79086 11 7 9.20914 7 7C7 4.79086 8.79086 3 11 3C13.2091 3 15 4.79086 15 7Z" stroke="#0000CC" stroke-width="2" stroke-linecap="round" stroke-linejoin="round"/>
</svg>
