<svg width="24" height="24" viewBox="0 0 24 24" fill="none" xmlns="http://www.w3.org/2000/svg">
<g opacity="0.14">
<path d="M11 11C13.2091 11 15 9.20914 15 7C15 4.79086 13.2091 3 11 3C8.79086 3 7 4.79086 7 7C7 9.20914 8.79086 11 11 11Z" fill="#0000CC"/>
<path d="M4 21C4 17.134 7.13401 14 11 14C12.664 14 14.1925 14.5806 15.3937 15.5504C14.8463 15.4235 14.2532 15.5306 13.7541 15.9367C12.8774 16.6501 12.7539 17.843 13.4425 18.6868C13.8312 19.1632 14.7548 19.9983 15.4854 20.6353C15.6708 20.797 15.8066 20.9154 15.9249 21H4Z" fill="#0000CC"/>
<path d="M17.0703 21H18C18 20.743 17.9862 20.4893 17.9592 20.2395C17.8056 20.3763 17.654 20.5096 17.5098 20.6353C17.3244 20.797 17.1886 20.9154 17.0703 21Z" fill="#0000CC"/>
</g>
<path d="M10.5 21H4C4 17.4735 6.60771 14.5561 10 14.0709M16.4976 16.2119C15.7978 15.4328 14.6309 15.2232 13.7541 15.9367C12.8774 16.6501 12.7539 17.843 13.4425 18.6868C13.8312 19.1632 14.7548 19.9983 15.4854 20.6353C15.8319 20.9374 16.0051 21.0885 16.2147 21.1503C16.3934 21.203 16.6018 21.203 16.7805 21.1503C16.9901 21.0885 17.1633 20.9374 17.5098 20.6353C18.2404 19.9983 19.164 19.1632 19.5527 18.6868C20.2413 17.843 20.1329 16.6426 19.2411 15.9367C18.3492 15.2307 17.1974 15.4328 16.4976 16.2119ZM15 7C15 9.20914 13.2091 11 11 11C8.79086 11 7 9.20914 7 7C7 4.79086 8.79086 3 11 3C13.2091 3 15 4.79086 15 7Z" stroke="#0000CC" stroke-width="2" stroke-linecap="round" stroke-linejoin="round"/>
</svg>
