<svg width="24" height="24" viewBox="0 0 24 24" fill="none" xmlns="http://www.w3.org/2000/svg">
<g opacity="0.14">
<path d="M15 7C15 9.20914 13.2091 11 11 11C8.79086 11 7 9.20914 7 7C7 4.79086 8.79086 3 11 3C13.2091 3 15 4.79086 15 7Z" fill="#0000CC"/>
<path d="M8.52682 14.4682C9.28093 14.8098 10.1183 15 11 15C11.8817 15 12.7191 14.8098 13.4732 14.4681C13.9957 14.2315 14.2569 14.1131 14.4019 14.0722C14.5527 14.0297 14.6399 14.0143 14.7961 14.0026C14.9464 13.9914 15.059 14 15.2842 14.0171C15.3748 14.024 15.4548 14.0337 15.5303 14.0472C16.0478 14.1401 16.5182 14.3639 16.9063 14.6835L13.4324 18.1574C13.3051 18.2848 13.2414 18.3484 13.1908 18.421C13.1459 18.4853 13.1088 18.5548 13.0801 18.6279C13.0478 18.7102 13.0302 18.7985 12.9948 18.975L12.5898 21H5.6C5.03995 21 4.75992 21 4.54601 20.891C4.35785 20.7951 4.20487 20.6421 4.10899 20.454C4 20.2401 4 19.96 4 19.4V17.6841C4 17.0484 4 16.7306 4.04798 16.4656C4.27087 15.2344 5.23442 14.2708 6.46558 14.048C6.5425 14.034 6.6237 14.0241 6.71575 14.0171C6.94079 14 7.05331 13.9914 7.20361 14.0026C7.35983 14.0142 7.4472 14.0297 7.59797 14.0722C7.743 14.1131 8.00441 14.2315 8.52682 14.4682Z" fill="#0000CC"/>
<path d="M12.5898 21H16.4C16.9601 21 17.2401 21 17.454 20.891C17.6422 20.7951 17.7951 20.6421 17.891 20.454C18 20.2401 18 19.96 18 19.4V17.6787C18 17.6484 18 17.6188 18 17.5898L15.4324 20.1574C15.3051 20.2848 15.2414 20.3484 15.1689 20.399C15.1045 20.4439 15.0351 20.4811 14.962 20.5097C14.8797 20.542 14.7914 20.5597 14.6148 20.595L12.5898 21Z" fill="#0000CC"/>
</g>
<path d="M11 15C10.1183 15 9.28093 14.8098 8.52682 14.4682C8.00429 14.2315 7.74302 14.1131 7.59797 14.0722C7.4472 14.0297 7.35983 14.0143 7.20361 14.0026C7.05331 13.9914 6.94079 14 6.71575 14.0172C6.6237 14.0242 6.5425 14.0341 6.46558 14.048C5.23442 14.2709 4.27087 15.2344 4.04798 16.4656C4 16.7306 4 17.0485 4 17.6841V19.4C4 19.9601 4 20.2401 4.10899 20.454C4.20487 20.6422 4.35785 20.7951 4.54601 20.891C4.75992 21 5.03995 21 5.6 21H8.4M15 7C15 9.20914 13.2091 11 11 11C8.79086 11 7 9.20914 7 7C7 4.79086 8.79086 3 11 3C13.2091 3 15 4.79086 15 7ZM12.5898 21L14.6148 20.595C14.7914 20.5597 14.8797 20.542 14.962 20.5097C15.0351 20.4811 15.1045 20.4439 15.1689 20.399C15.2414 20.3484 15.3051 20.2848 15.4324 20.1574L19.5898 16C20.1421 15.4477 20.1421 14.5523 19.5898 14C19.0376 13.4477 18.1421 13.4477 17.5898 14L13.4324 18.1574C13.3051 18.2848 13.2414 18.3484 13.1908 18.421C13.1459 18.4853 13.1088 18.5548 13.0801 18.6279C13.0478 18.7102 13.0302 18.7985 12.9948 18.975L12.5898 21Z" stroke="#0000CC" stroke-width="2" stroke-linecap="round" stroke-linejoin="round"/>
</svg>
