<svg width="24" height="24" viewBox="0 0 24 24" fill="none" xmlns="http://www.w3.org/2000/svg">
<g opacity="0.14">
<path d="M11 11C13.2091 11 15 9.20914 15 7C15 4.79086 13.2091 3 11 3C8.79086 3 7 4.79086 7 7C7 9.20914 8.79086 11 11 11Z" fill="#0000CC"/>
<path d="M15.3354 15.5038C14.1432 14.5621 12.6372 14 11 14C7.13401 14 4 17.134 4 21H17H18C18 20.9432 17.9993 20.8865 17.998 20.83C17.6858 20.9401 17.3499 21 17 21C15.3431 21 14 19.6569 14 18C14 16.959 14.5303 16.0418 15.3354 15.5038Z" fill="#0000CC"/>
</g>
<path d="M14.8086 19.7053L19.127 16.3467M4 21C4 17.134 7.13401 14 11 14M20 18C20 19.6569 18.6569 21 17 21C15.3431 21 14 19.6569 14 18C14 16.3431 15.3431 15 17 15C18.6569 15 20 16.3431 20 18ZM15 7C15 9.20914 13.2091 11 11 11C8.79086 11 7 9.20914 7 7C7 4.79086 8.79086 3 11 3C13.2091 3 15 4.79086 15 7Z" stroke="#0000CC" stroke-width="2" stroke-linecap="round" stroke-linejoin="round"/>
</svg>
