<svg width="24" height="24" viewBox="0 0 24 24" fill="none" xmlns="http://www.w3.org/2000/svg">
<path opacity="0.14" fill-rule="evenodd" clip-rule="evenodd" d="M3 9.2V16.8C3 17.9201 3 18.4802 3.21799 18.908C3.40973 19.2843 3.71569 19.5903 4.09202 19.782C4.51984 20 5.0799 20 6.2 20H17.8C18.9201 20 19.4802 20 19.908 19.782C20.2843 19.5903 20.5903 19.2843 20.782 18.908C21 18.4802 21 17.9201 21 16.8V9.2C21 8.0799 21 7.51984 20.782 7.09202C20.5903 6.71569 20.2843 6.40973 19.908 6.21799C19.4802 6 18.9201 6 17.8 6H16.7454C16.6224 6 16.561 6 16.5042 5.9935C16.2083 5.95961 15.943 5.79559 15.7803 5.54609C15.7491 5.49827 15.7216 5.44329 15.6667 5.33333C15.5567 5.11345 15.5017 5.00345 15.4394 4.90782C15.1141 4.40882 14.5833 4.08078 13.9915 4.01299C13.8781 4 13.7552 4 13.5093 4H10.4907C10.2448 4 10.1219 4 10.0085 4.01299C9.41668 4.08078 8.8859 4.40882 8.56062 4.90782C8.49827 5.00346 8.44329 5.11342 8.33333 5.33333C8.27836 5.44328 8.25086 5.49827 8.21969 5.54609C8.05705 5.79559 7.79166 5.95961 7.49576 5.9935C7.43905 6 7.37758 6 7.25464 6H6.2C5.0799 6 4.51984 6 4.09202 6.21799C3.71569 6.40973 3.40973 6.71569 3.21799 7.09202C3 7.51984 3 8.0799 3 9.2ZM12 16C13.6569 16 15 14.6569 15 13C15 11.3431 13.6569 10 12 10C10.3431 10 9 11.3431 9 13C9 14.6569 10.3431 16 12 16Z" fill="#0000CC"/>
<path d="M12 16C13.6569 16 15 14.6569 15 13C15 11.3431 13.6569 10 12 10C10.3431 10 9 11.3431 9 13C9 14.6569 10.3431 16 12 16Z" stroke="#0000CC" stroke-width="2" stroke-linecap="round" stroke-linejoin="round"/>
<path d="M3 16.8V9.2C3 8.0799 3 7.51984 3.21799 7.09202C3.40973 6.71569 3.71569 6.40973 4.09202 6.21799C4.51984 6 5.0799 6 6.2 6H7.25464C7.37758 6 7.43905 6 7.49576 5.9935C7.79166 5.95961 8.05705 5.79559 8.21969 5.54609C8.25086 5.49827 8.27836 5.44328 8.33333 5.33333C8.44329 5.11342 8.49827 5.00346 8.56062 4.90782C8.8859 4.40882 9.41668 4.08078 10.0085 4.01299C10.1219 4 10.2448 4 10.4907 4H13.5093C13.7552 4 13.8781 4 13.9915 4.01299C14.5833 4.08078 15.1141 4.40882 15.4394 4.90782C15.5017 5.00345 15.5567 5.11345 15.6667 5.33333C15.7216 5.44329 15.7491 5.49827 15.7803 5.54609C15.943 5.79559 16.2083 5.95961 16.5042 5.9935C16.561 6 16.6224 6 16.7454 6H17.8C18.9201 6 19.4802 6 19.908 6.21799C20.2843 6.40973 20.5903 6.71569 20.782 7.09202C21 7.51984 21 8.0799 21 9.2V16.8C21 17.9201 21 18.4802 20.782 18.908C20.5903 19.2843 20.2843 19.5903 19.908 19.782C19.4802 20 18.9201 20 17.8 20H6.2C5.0799 20 4.51984 20 4.09202 19.782C3.71569 19.5903 3.40973 19.2843 3.21799 18.908C3 18.4802 3 17.9201 3 16.8Z" stroke="#0000CC" stroke-width="2" stroke-linecap="round" stroke-linejoin="round"/>
</svg>
