<svg width="24" height="24" viewBox="0 0 24 24" fill="none" xmlns="http://www.w3.org/2000/svg">
<path opacity="0.14" d="M6.20001 3.99976C5.07987 3.99975 4.51979 3.99975 4.09196 4.21775C3.71563 4.4095 3.40966 4.71548 3.21792 5.09182C2.99994 5.51966 2.99996 6.07973 3 7.19988L3.00036 16.8001C3.00041 17.9202 3.00043 18.4802 3.21842 18.908C3.41017 19.2843 3.71613 19.5903 4.09245 19.782C4.52026 20 5.07932 20 6.19742 20C9.49954 20 14.5975 20 17.7145 20L13.093 15.9562C12.6909 15.6043 12.4898 15.4284 12.3455 15.2157C12.2176 15.0273 12.1228 14.8184 12.0652 14.5981C12.0002 14.3494 12.0002 14.0823 12.0002 13.5479V13H12.7979C13.2428 13 13.4653 13 13.6767 13.0463C13.8643 13.0874 14.045 13.1553 14.2132 13.2479C14.4029 13.3523 14.5703 13.4988 14.9051 13.7917L20.4882 18.6769C20.8115 18.1982 21.0002 17.6211 21.0002 17C21.0002 14.3608 21.0002 10.1143 21.0002 7.19718C21.0002 6.07883 21.0002 5.51965 20.7823 5.09183C20.5905 4.7155 20.2845 4.40954 19.9082 4.2178C19.4804 3.99981 18.9204 3.99981 17.8003 3.9998L6.20001 3.99976Z" fill="#0000CC"/>
<path d="M7 9V15M21 14V7.2C21 6.0799 21 5.51984 20.782 5.09202C20.5903 4.71569 20.2843 4.40973 19.908 4.21799C19.4802 4 18.9201 4 17.8 4H6.2C5.0799 4 4.51984 4 4.09202 4.21799C3.71569 4.40973 3.40973 4.71569 3.21799 5.09202C3 5.51984 3 6.0799 3 7.2V16.8C3 17.9201 3 18.4802 3.21799 18.908C3.40973 19.2843 3.71569 19.5903 4.09202 19.782C4.51984 20 5.0799 20 6.2 20H12M12 13H12.7976C13.2426 13 13.465 13 13.6765 13.0463C13.8641 13.0874 14.0447 13.1553 14.213 13.2479C14.4026 13.3523 14.57 13.4988 14.9049 13.7918L20.8649 19.0068C21.4792 19.5443 21.5107 20.4893 20.9335 21.0665C20.4082 21.5918 19.5656 21.6199 19.0065 21.1307L13.0928 15.9562C12.6907 15.6043 12.4896 15.4284 12.3452 15.2158C12.2173 15.0273 12.1225 14.8184 12.065 14.5981C12 14.3495 12 14.0823 12 13.5479V13Z" stroke="#0000CC" stroke-width="2" stroke-linecap="round" stroke-linejoin="round"/>
</svg>
