<svg width="24" height="24" viewBox="0 0 24 24" fill="none" xmlns="http://www.w3.org/2000/svg">
<g opacity="0.14">
<path d="M5 11H3V16C3 16.5523 3.44772 17 4 17H5C6.10457 17 7 16.1046 7 15V13C7 11.8954 6.10457 11 5 11Z" fill="#0000CC"/>
<path d="M9 20C9 19.1716 9.67157 18.5 10.5 18.5H11.5C12.3284 18.5 13 19.1716 13 20C13 20.8284 12.3284 21.5 11.5 21.5H10.5C9.67157 21.5 9 20.8284 9 20Z" fill="#0000CC"/>
<path d="M21 11H19C17.8954 11 17 11.8954 17 13V15C17 16.1046 17.8954 17 19 17H20C20.5523 17 21 16.5523 21 16V11Z" fill="#0000CC"/>
</g>
<path d="M3 11C3 6.02944 7.02944 2 12 2C16.9706 2 21 6.02944 21 11M3 11H5C6.10457 11 7 11.8954 7 13V15C7 16.1046 6.10457 17 5 17M3 11V16C3 16.5523 3.44772 17 4 17H5M21 11H19C17.8954 11 17 11.8954 17 13V15C17 16.1046 17.8954 17 19 17H20C20.5523 17 21 16.5523 21 16V11ZM5 17V18C5 19.1046 5.89543 20 7 20H9M9 20C9 20.8284 9.67157 21.5 10.5 21.5H11.5C12.3284 21.5 13 20.8284 13 20C13 19.1716 12.3284 18.5 11.5 18.5H10.5C9.67157 18.5 9 19.1716 9 20Z" stroke="#0000CC" stroke-width="2" stroke-linecap="round" stroke-linejoin="round"/>
</svg>
