<svg width="24" height="24" viewBox="0 0 24 24" fill="none" xmlns="http://www.w3.org/2000/svg">
<g opacity="0.14">
<path d="M4 5C4 3.89543 4.89543 3 6 3C7.10457 3 8 3.89543 8 5V6C8.55228 6 9 6.44772 9 7V8C9 8.55229 8.55228 9 8 9H4C3.44772 9 3 8.55228 3 8V7C3 6.44772 3.44772 6 4 6V5Z" fill="#0000CC"/>
<path d="M2 16H22V16.8C22 17.9201 22 18.4802 21.7578 18.908C21.5447 19.2843 21.2048 19.5903 20.7866 19.782C20.3113 20 19.689 20 18.4444 20H5.55556C4.31099 20 3.68871 20 3.21335 19.782C2.79522 19.5903 2.45526 19.2843 2.24221 18.908C2 18.4802 2 17.9201 2 16.8V16Z" fill="#0000CC"/>
</g>
<path d="M8 6.00386V5C8 3.89543 7.10457 3 6 3C4.89543 3 4 3.89543 4 5V6.00386M12 4H17.8C18.9201 4 19.4802 4 19.908 4.21799C20.2843 4.40973 20.5903 4.71569 20.782 5.09202C21 5.51984 21 6.0799 21 7.2V16M3 16V13M4.5 9H7.5C7.96594 9 8.19891 9 8.38268 8.92388C8.62771 8.82239 8.82239 8.62771 8.92388 8.38268C9 8.19891 9 7.96594 9 7.5C9 7.03406 9 6.80109 8.92388 6.61732C8.82239 6.37229 8.62771 6.17761 8.38268 6.07612C8.19891 6 7.96594 6 7.5 6H4.5C4.03406 6 3.80109 6 3.61732 6.07612C3.37229 6.17761 3.17761 6.37229 3.07612 6.61732C3 6.80109 3 7.03406 3 7.5C3 7.96594 3 8.19891 3.07612 8.38268C3.17761 8.62771 3.37229 8.82239 3.61732 8.92388C3.80109 9 4.03406 9 4.5 9ZM2 16H22V16.8C22 17.9201 22 18.4802 21.782 18.908C21.5903 19.2843 21.2843 19.5903 20.908 19.782C20.4802 20 19.9201 20 18.8 20H5.2C4.0799 20 3.51984 20 3.09202 19.782C2.71569 19.5903 2.40973 19.2843 2.21799 18.908C2 18.4802 2 17.9201 2 16.8V16Z" stroke="#0000CC" stroke-width="2" stroke-linecap="round" stroke-linejoin="round"/>
</svg>
