<svg width="24" height="24" viewBox="0 0 24 24" fill="none" xmlns="http://www.w3.org/2000/svg">
<g opacity="0.14">
<path d="M5.5 8C6.88071 8 8 6.88071 8 5.5C8 4.11929 6.88071 3 5.5 3C4.11929 3 3 4.11929 3 5.5C3 6.88071 4.11929 8 5.5 8Z" fill="#0000CC"/>
<path d="M22 16.8V16H16.0697C15.7979 16 15.6621 16 15.5342 16.0276C15.4208 16.0521 15.3124 16.0925 15.213 16.1474C15.1009 16.2092 15.0048 16.2957 14.8126 16.4686L14.7429 16.5314C14.5508 16.7043 14.4547 16.7908 14.3425 16.8526C14.2431 16.9075 14.1347 16.9479 14.0214 16.9724C13.8935 17 13.7576 17 13.4858 17H10.5142C10.2424 17 10.1065 17 9.97863 16.9724C9.86526 16.9479 9.75688 16.9075 9.65746 16.8526C9.54533 16.7908 9.44925 16.7043 9.25708 16.5314L9.18737 16.4686C8.9952 16.2957 8.89911 16.2092 8.78698 16.1474C8.68757 16.0925 8.57919 16.0521 8.46581 16.0276C8.33794 16 8.20205 16 7.93029 16H2V16.8C2 17.9201 2 18.4802 2.24221 18.908C2.45526 19.2843 2.79522 19.5903 3.21335 19.782C3.68871 20 4.31099 20 5.55556 20H18.4444C19.689 20 20.3113 20 20.7866 19.782C21.2048 19.5903 21.5447 19.2843 21.7578 18.908C22 18.4802 22 17.9201 22 16.8Z" fill="#0000CC"/>
</g>
<path d="M7.26953 7.26953L8.5 8.5M21 16V7.2C21 6.0799 21 5.51984 20.782 5.09202C20.5903 4.71569 20.2843 4.40973 19.908 4.21799C19.4802 4 18.9201 4 17.8 4H12.5M3 16V12.5M8 5.5C8 6.88071 6.88071 8 5.5 8C4.11929 8 3 6.88071 3 5.5C3 4.11929 4.11929 3 5.5 3C6.88071 3 8 4.11929 8 5.5ZM22 16V16.8C22 17.9201 22 18.4802 21.782 18.908C21.5903 19.2843 21.2843 19.5903 20.908 19.782C20.4802 20 19.9201 20 18.8 20H5.2C4.0799 20 3.51984 20 3.09202 19.782C2.71569 19.5903 2.40973 19.2843 2.21799 18.908C2 18.4802 2 17.9201 2 16.8V16H8.33726C8.58185 16 8.70414 16 8.81923 16.0276C8.92127 16.0521 9.01881 16.0925 9.10828 16.1474C9.2092 16.2092 9.29568 16.2957 9.46863 16.4686L9.53137 16.5314C9.70432 16.7043 9.7908 16.7908 9.89172 16.8526C9.98119 16.9075 10.0787 16.9479 10.1808 16.9724C10.2959 17 10.4182 17 10.6627 17H13.3373C13.5818 17 13.7041 17 13.8192 16.9724C13.9213 16.9479 14.0188 16.9075 14.1083 16.8526C14.2092 16.7908 14.2957 16.7043 14.4686 16.5314L14.5314 16.4686C14.7043 16.2957 14.7908 16.2092 14.8917 16.1474C14.9812 16.0925 15.0787 16.0521 15.1808 16.0276C15.2959 16 15.4182 16 15.6627 16H22Z" stroke="#0000CC" stroke-width="2" stroke-linecap="round" stroke-linejoin="round"/>
</svg>
