<svg width="24" height="24" viewBox="0 0 24 24" fill="none" xmlns="http://www.w3.org/2000/svg">
<rect opacity="0.14" x="6" y="3" width="12" height="18" rx="2" fill="#0000CC"/>
<path d="M18 15V17.8C18 18.9201 18 19.4802 17.782 19.908C17.5903 20.2843 17.2843 20.5903 16.908 20.782C16.4802 21 15.9201 21 14.8 21H9.2C8.0799 21 7.51984 21 7.09202 20.782C6.71569 20.5903 6.40973 20.2843 6.21799 19.908C6 19.4802 6 18.9201 6 17.8V5.57143C6 5.04025 6 4.77465 6.05014 4.55496C6.2211 3.80597 6.80597 3.2211 7.55496 3.05014C7.77465 3 8.04025 3 8.57143 3H12M11 18H13M20 4.50003C19.5 4.37601 18.6851 4.37145 18 4.37601M18 4.37601C17.7709 4.37754 17.9094 4.3678 17.6 4.37601C16.7926 4.4012 16.0016 4.73678 16 5.68753C15.9982 6.70037 17 7.00003 18 7.00003C19 7.00003 20 7.23123 20 8.31253C20 9.12512 19.1925 9.48118 18.1861 9.59908C17.3861 9.59908 17 9.62503 16 9.50003M18 4.37601L18 3M18 9.5995V11" stroke="#0000CC" stroke-width="2" stroke-linecap="round" stroke-linejoin="round"/>
</svg>
