<svg width="24" height="24" viewBox="0 0 24 24" fill="none" xmlns="http://www.w3.org/2000/svg">
<path opacity="0.14" d="M6 6.2C6 5.0799 6 4.51984 6.21799 4.09202C6.40973 3.71569 6.71569 3.40973 7.09202 3.21799C7.51984 3 8.0799 3 9.2 3H14.8C15.9201 3 16.4802 3 16.908 3.21799C17.2843 3.40973 17.5903 3.71569 17.782 4.09202C18 4.51984 18 5.0799 18 6.2V17.8C18 18.9201 18 19.4802 17.782 19.908C17.5903 20.2843 17.2843 20.5903 16.908 20.782C16.4802 21 15.9201 21 14.8 21H9.2C8.0799 21 7.51984 21 7.09202 20.782C6.71569 20.5903 6.40973 20.2843 6.21799 19.908C6 19.4802 6 18.9201 6 17.8V6.2Z" fill="#0000CC"/>
<path d="M12 18H12.01M9.2 21H14.8C15.9201 21 16.4802 21 16.908 20.782C17.2843 20.5903 17.5903 20.2843 17.782 19.908C18 19.4802 18 18.9201 18 17.8V6.2C18 5.0799 18 4.51984 17.782 4.09202C17.5903 3.71569 17.2843 3.40973 16.908 3.21799C16.4802 3 15.9201 3 14.8 3H9.2C8.0799 3 7.51984 3 7.09202 3.21799C6.71569 3.40973 6.40973 3.71569 6.21799 4.09202C6 4.51984 6 5.07989 6 6.2V17.8C6 18.9201 6 19.4802 6.21799 19.908C6.40973 20.2843 6.71569 20.5903 7.09202 20.782C7.51984 21 8.07989 21 9.2 21Z" stroke="#0000CC" stroke-width="2" stroke-linecap="round" stroke-linejoin="round"/>
</svg>
