<svg width="24" height="24" viewBox="0 0 24 24" fill="none" xmlns="http://www.w3.org/2000/svg">
<rect opacity="0.14" x="3" y="14" width="18" height="7" rx="2" fill="#0000CC"/>
<path d="M6.15888 10C5.78723 8.64375 6.0676 7.15234 7 6M17.8411 10C18.2128 8.64375 17.9324 7.15234 17 6M2.27961 11C1.59466 8.2691 2.16812 5.25252 4 3M21.7204 11C22.4053 8.2691 21.8319 5.25252 20 3M12 14V9M6.5 17.5H10.5M6.2 21H17.8C18.9201 21 19.4802 21 19.908 20.782C20.2843 20.5903 20.5903 20.2843 20.782 19.908C21 19.4802 21 18.9201 21 17.8V17.2C21 16.0799 21 15.5198 20.782 15.092C20.5903 14.7157 20.2843 14.4097 19.908 14.218C19.4802 14 18.9201 14 17.8 14H6.2C5.0799 14 4.51984 14 4.09202 14.218C3.71569 14.4097 3.40973 14.7157 3.21799 15.092C3 15.5198 3 16.0799 3 17.2V17.8C3 18.9201 3 19.4802 3.21799 19.908C3.40973 20.2843 3.71569 20.5903 4.09202 20.782C4.51984 21 5.07989 21 6.2 21Z" stroke="#0000CC" stroke-width="2" stroke-linecap="round" stroke-linejoin="round"/>
</svg>
