<svg width="24" height="24" viewBox="0 0 24 24" fill="none" xmlns="http://www.w3.org/2000/svg">
<path opacity="0.14" d="M2 12.6C2 12.0399 2 11.7599 2.10899 11.546C2.20487 11.3578 2.35785 11.2049 2.54601 11.109C2.75992 11 3.03995 11 3.6 11H20.4C20.9601 11 21.2401 11 21.454 11.109C21.6422 11.2049 21.7951 11.3578 21.891 11.546C22 11.7599 22 12.0399 22 12.6V14.8C22 15.9201 22 16.4802 21.782 16.908C21.5903 17.2843 21.2843 17.5903 20.908 17.782C20.4802 18 19.9201 18 18.8 18H5.2C4.0799 18 3.51984 18 3.09202 17.782C2.71569 17.5903 2.40973 17.2843 2.21799 16.908C2 16.4802 2 15.9201 2 14.8V12.6Z" fill="#0000CC"/>
<path d="M18 14.5H18.01M14 14.5H14.01M6 14.5H8M5 18V20M6 4V11M12 4V11M18 4L18.01 11M19 18V20M5.2 18H18.8C19.9201 18 20.4802 18 20.908 17.782C21.2843 17.5903 21.5903 17.2843 21.782 16.908C22 16.4802 22 15.9201 22 14.8V12.6C22 12.0399 22 11.7599 21.891 11.546C21.7951 11.3578 21.6422 11.2049 21.454 11.109C21.2401 11 20.9601 11 20.4 11H3.6C3.03995 11 2.75992 11 2.54601 11.109C2.35785 11.2049 2.20487 11.3578 2.10899 11.546C2 11.7599 2 12.0399 2 12.6V14.8C2 15.9201 2 16.4802 2.21799 16.908C2.40973 17.2843 2.71569 17.5903 3.09202 17.782C3.51984 18 4.0799 18 5.2 18Z" stroke="#0000CC" stroke-width="2" stroke-linecap="round" stroke-linejoin="round"/>
</svg>
