<svg width="24" height="24" viewBox="0 0 24 24" fill="none" xmlns="http://www.w3.org/2000/svg">
<path opacity="0.14" d="M17.813 8.81381L17.3332 16.0111C17.1461 18.8185 14.8143 21 12.0006 21C9.18698 21 6.8552 18.8185 6.66804 16.0111L6.18822 8.81381C6.18121 8.70864 6.1777 8.65605 6.17539 8.60643C6.09971 6.98713 6.81378 5.43164 8.09105 4.43342C8.13019 4.40283 8.17235 4.37121 8.25668 4.30797C8.39382 4.20511 8.46239 4.15368 8.52533 4.10896C10.6063 2.63035 13.395 2.63035 15.4759 4.10896C15.5389 4.15368 15.6074 4.20511 15.7446 4.30797C15.8289 4.37121 15.8711 4.40283 15.9102 4.43342C17.1875 5.43164 17.9016 6.98713 17.8259 8.60643C17.8236 8.65605 17.8201 8.70864 17.813 8.81381Z" fill="#0000CC"/>
<path d="M12.0006 7V9M17.3332 16.0111L17.813 8.81381C17.8201 8.70864 17.8236 8.65605 17.8259 8.60643C17.9016 6.98713 17.1875 5.43164 15.9102 4.43342C15.8711 4.40283 15.8289 4.37121 15.7446 4.30797C15.6074 4.20511 15.5389 4.15368 15.4759 4.10896C13.395 2.63035 10.6063 2.63035 8.52533 4.10896C8.46239 4.15368 8.39382 4.20511 8.25668 4.30797C8.17235 4.37121 8.13019 4.40283 8.09105 4.43342C6.81378 5.43164 6.09971 6.98713 6.17539 8.60643C6.1777 8.65605 6.18121 8.70864 6.18822 8.81381L6.66804 16.0111C6.8552 18.8185 9.18698 21 12.0006 21C14.8143 21 17.1461 18.8185 17.3332 16.0111Z" stroke="#0000CC" stroke-width="2" stroke-linecap="round"/>
</svg>
