<svg width="24" height="24" viewBox="0 0 24 24" fill="none" xmlns="http://www.w3.org/2000/svg">
<path opacity="0.14" d="M3 13.7V14.3C3 15.4201 3 15.9802 3.21799 16.408C3.40973 16.7843 3.71569 17.0903 4.09202 17.282C4.51984 17.5 5.0799 17.5 6.2 17.5H14.4364C12.9892 16.7519 12 15.2415 12 13.5C12 12.3475 12.4333 11.2961 13.1458 10.5H6.2C5.0799 10.5 4.51984 10.5 4.09202 10.718C3.71569 10.9097 3.40973 11.2157 3.21799 11.592C3 12.0198 3 12.5799 3 13.7Z" fill="#0000CC"/>
<path d="M9 14H9.01M6 14H6.01M5 17.4808V21M18 17.7439V21M16.5 3V5M21 5L20 6M12 5L13 6M14.4364 17.5C15.0545 17.8195 15.7562 18 16.5 18C18.9853 18 21 15.9853 21 13.5C21 11.0147 18.9853 9 16.5 9C15.1673 9 13.9698 9.57938 13.1458 10.5M14.4364 17.5C12.9892 16.7519 12 15.2415 12 13.5C12 12.3475 12.4333 11.2961 13.1458 10.5M14.4364 17.5H6.2C5.0799 17.5 4.51984 17.5 4.09202 17.282C3.71569 17.0903 3.40973 16.7843 3.21799 16.408C3 15.9802 3 15.4201 3 14.3V13.7C3 12.5799 3 12.0198 3.21799 11.592C3.40973 11.2157 3.71569 10.9097 4.09202 10.718C4.51984 10.5 5.0799 10.5 6.2 10.5H13.1458" stroke="#0000CC" stroke-width="2" stroke-linecap="round" stroke-linejoin="round"/>
</svg>
