<svg width="24" height="24" viewBox="0 0 24 24" fill="none" xmlns="http://www.w3.org/2000/svg">
<g opacity="0.14">
<path d="M12 13C13.6569 13 15 11.6569 15 10C15 8.34315 13.6569 7 12 7C10.3431 7 9 8.34315 9 10C9 11.6569 10.3431 13 12 13Z" fill="#0000CC"/>
<path d="M4 7.8C4 6.11984 4 5.27976 4.32698 4.63803C4.6146 4.07354 5.07354 3.6146 5.63803 3.32698C6.27976 3 7.11984 3 8.8 3H15.2C16.8802 3 17.7202 3 18.362 3.32698C18.9265 3.6146 19.3854 4.07354 19.673 4.63803C20 5.27976 20 6.11984 20 7.8V12.2C20 13.8802 20 14.7202 19.673 15.362C19.3854 15.9265 18.9265 16.3854 18.362 16.673C17.7202 17 16.8802 17 15.2 17H8.8C7.11984 17 6.27976 17 5.63803 16.673C5.07354 16.3854 4.6146 15.9265 4.32698 15.362C4 14.7202 4 13.8802 4 12.2V7.8Z" fill="#0000CC"/>
</g>
<path d="M7 21H17M9 17V21M15 17V21M15 10C15 11.6569 13.6569 13 12 13C10.3431 13 9 11.6569 9 10C9 8.34315 10.3431 7 12 7C13.6569 7 15 8.34315 15 10ZM8.8 17H15.2C16.8802 17 17.7202 17 18.362 16.673C18.9265 16.3854 19.3854 15.9265 19.673 15.362C20 14.7202 20 13.8802 20 12.2V7.8C20 6.11984 20 5.27976 19.673 4.63803C19.3854 4.07354 18.9265 3.6146 18.362 3.32698C17.7202 3 16.8802 3 15.2 3H8.8C7.11984 3 6.27976 3 5.63803 3.32698C5.07354 3.6146 4.6146 4.07354 4.32698 4.63803C4 5.27976 4 6.11984 4 7.8V12.2C4 13.8802 4 14.7202 4.32698 15.362C4.6146 15.9265 5.07354 16.3854 5.63803 16.673C6.27976 17 7.11984 17 8.8 17Z" stroke="#0000CC" stroke-width="2" stroke-linecap="round" stroke-linejoin="round"/>
</svg>
