<svg width="24" height="24" viewBox="0 0 24 24" fill="none" xmlns="http://www.w3.org/2000/svg">
<path opacity="0.14" d="M16.2 21.0001H7.8C6.11984 21.0001 5.27976 21.0001 4.63803 20.6732C4.07354 20.3855 3.6146 19.9266 3.32698 19.3621C3 18.7204 3 17.8803 3 16.2001V10.0001C3 9.07016 3 8.60518 3.10222 8.22368C3.37962 7.1884 4.18827 6.37976 5.22354 6.10236C5.53664 6.01846 6.24274 6.00342 6.99996 6.00072C7.28849 5.9997 7.53477 6.20873 7.5822 6.49333L7.5822 6.49334C7.71396 7.2839 7.77984 7.67917 7.95521 7.98792C8.18903 8.39958 8.56131 8.71494 9.00581 8.87791C9.33918 9.00013 9.73991 9.00013 10.5414 9.00013H13.4586C14.2601 9.00013 14.6608 9.00013 14.9942 8.87791C15.4387 8.71494 15.811 8.39958 16.0448 7.98792C16.2202 7.67917 16.286 7.2839 16.4178 6.49334V6.49333C16.4652 6.20568 16.7139 5.99414 17.0055 5.99571C17.7606 5.9998 18.4641 6.01866 18.7765 6.10236C19.8117 6.37976 20.6204 7.1884 20.8978 8.22368C21 8.60518 21 9.07016 21 10.0001V16.2001C21 17.8803 21 18.7204 20.673 19.3621C20.3854 19.9266 19.9265 20.3855 19.362 20.6732C18.7202 21.0001 17.8802 21.0001 16.2 21.0001Z" fill="#0000CC"/>
<path d="M12.0002 6L11.0064 9M16.5 6C17.8978 6 18.5967 6 19.1481 6.22836C19.8831 6.53284 20.4672 7.11687 20.7716 7.85195C21 8.40326 21 9.10218 21 10.5V16.2C21 17.8802 21 18.7202 20.673 19.362C20.3854 19.9265 19.9265 20.3854 19.362 20.673C18.7202 21 17.8802 21 16.2 21H7.8C6.11984 21 5.27976 21 4.63803 20.673C4.07354 20.3854 3.6146 19.9265 3.32698 19.362C3 18.7202 3 17.8802 3 16.2V10.5C3 9.10218 3 8.40326 3.22836 7.85195C3.53284 7.11687 4.11687 6.53284 4.85195 6.22836C5.40326 6 6.10218 6 7.5 6M10 17H14M10.5415 3H13.4588C14.5397 3 15.0802 3 15.4802 3.18541C16.0136 3.43262 16.4112 3.90199 16.5674 4.46878C16.6845 4.89387 16.5957 5.42698 16.418 6.4932C16.2862 7.28376 16.2203 7.67904 16.0449 7.98778C15.8111 8.39944 15.4388 8.71481 14.9943 8.87778C14.661 9 14.2602 9 13.4588 9H10.5415C9.74006 9 9.33933 9 9.00596 8.87778C8.56146 8.71481 8.18918 8.39944 7.95536 7.98778C7.77999 7.67904 7.71411 7.28376 7.58235 6.4932C7.40465 5.42698 7.3158 4.89387 7.43291 4.46878C7.58906 3.90199 7.98669 3.43262 8.52009 3.18541C8.92014 3 9.46061 3 10.5415 3Z" stroke="#0000CC" stroke-width="2" stroke-linecap="round" stroke-linejoin="round"/>
</svg>
