<svg width="24" height="24" viewBox="0 0 24 24" fill="none" xmlns="http://www.w3.org/2000/svg">
<g opacity="0.3">
<path d="M10 2C9.44771 2 9 2.44772 9 3V5H7C6.44772 5 6 5.44772 6 6C6 6.55228 6.44772 7 7 7H9V5H11V3C11 2.44772 10.5523 2 10 2Z" fill="#0000CC"/>
<path d="M13 2C12.4477 2 12 2.44772 12 3V5H14V3C14 2.44772 13.5523 2 13 2Z" fill="#0000CC"/>
<path d="M11 19V21C11 21.5523 10.5523 22 10 22C9.44771 22 9 21.5523 9 21V19H11Z" fill="#0000CC"/>
<path d="M9 19H7C6.44772 19 6 18.5523 6 18C6 17.4477 6.44772 17 7 17H9V19Z" fill="#0000CC"/>
<path d="M14 21V19H12V21C12 21.5523 12.4477 22 13 22C13.5523 22 14 21.5523 14 21Z" fill="#0000CC"/>
</g>
<path fill-rule="evenodd" clip-rule="evenodd" d="M15 19C17.2091 19 19 17.2091 19 15C19 13.8053 18.4762 12.7329 17.6458 12C18.4762 11.2671 19 10.1947 19 9C19 6.79086 17.2091 5 15 5H9V19H15ZM11 11V7H15C16.1046 7 17 7.89543 17 9C17 10.1046 16.1046 11 15 11H11ZM11 17V13H15C16.1046 13 17 13.8954 17 15C17 16.1046 16.1046 17 15 17H11Z" fill="#0000CC"/>
</svg>
