<svg width="24" height="24" viewBox="0 0 24 24" fill="none" xmlns="http://www.w3.org/2000/svg">
<path opacity="0.3" fill-rule="evenodd" clip-rule="evenodd" d="M6.9662 8C6.50018 7.99998 6.09513 7.99997 5.75852 8.02586C5.40095 8.05336 5.046 8.114 4.69641 8.27495C4.1702 8.51722 3.7254 8.90665 3.41571 9.39623C3.20996 9.72148 3.10295 10.0653 3.02843 10.4161C2.95828 10.7463 2.90476 11.1478 2.84319 11.6098L2.00878 17.8678C2.00294 17.9117 2.00001 17.9558 2.00001 18L2 19.4319C1.99997 19.6843 1.99994 19.9301 2.01695 20.1382C2.03563 20.3668 2.07969 20.6366 2.21799 20.908C2.40974 21.2843 2.7157 21.5903 3.09202 21.782C3.36345 21.9203 3.63318 21.9644 3.86178 21.9831C4.06988 22.0001 4.31563 22 4.56794 22H19.432C19.6843 22 19.9301 22.0001 20.1382 21.9831C20.3668 21.9644 20.6366 21.9203 20.908 21.782C21.2843 21.5903 21.5903 21.2843 21.782 20.908C21.9203 20.6366 21.9644 20.3668 21.9831 20.1382C22.0001 19.9301 22 19.6844 22 19.4321L22 18C22 17.9558 21.9971 17.9117 21.9912 17.8678L21.1568 11.6098C21.0952 11.1478 21.0417 10.7463 20.9716 10.4161C20.8971 10.0653 20.7901 9.72148 20.5843 9.39623C20.2746 8.90665 19.8298 8.51722 19.3036 8.27495C18.954 8.114 18.5991 8.05336 18.2415 8.02586C17.9049 7.99997 17.4998 7.99998 17.0338 8L6.9662 8ZM8.5 12C8.5 12.5523 8.05229 13 7.5 13C6.94772 13 6.5 12.5523 6.5 12C6.5 11.4477 6.94772 11 7.5 11C8.05229 11 8.5 11.4477 8.5 12ZM11.5 12C11.5 12.5523 11.0523 13 10.5 13C9.94771 13 9.5 12.5523 9.5 12C9.5 11.4477 9.94771 11 10.5 11C11.0523 11 11.5 11.4477 11.5 12ZM14.5 12C14.5 12.5523 14.0523 13 13.5 13C12.9477 13 12.5 12.5523 12.5 12C12.5 11.4477 12.9477 11 13.5 11C14.0523 11 14.5 11.4477 14.5 12ZM17.5 12C17.5 12.5523 17.0523 13 16.5 13C15.9477 13 15.5 12.5523 15.5 12C15.5 11.4477 15.9477 11 16.5 11C17.0523 11 17.5 11.4477 17.5 12ZM16 15C16 15.5523 15.5523 16 15 16C14.4477 16 14 15.5523 14 15C14 14.4477 14.4477 14 15 14C15.5523 14 16 14.4477 16 15ZM13 15C13 15.5523 12.5523 16 12 16C11.4477 16 11 15.5523 11 15C11 14.4477 11.4477 14 12 14C12.5523 14 13 14.4477 13 15ZM10 15C10 15.5523 9.55229 16 9 16C8.44771 16 8 15.5523 8 15C8 14.4477 8.44771 14 9 14C9.55229 14 10 14.4477 10 15ZM4 19.5C4 19.2238 4.22386 19 4.5 19H19.5C19.7761 19 20 19.2238 20 19.5C20 19.7761 19.7761 20 19.5 20H4.5C4.22386 20 4 19.7761 4 19.5Z" fill="#0000CC"/>
<path fill-rule="evenodd" clip-rule="evenodd" d="M5.77687 2.00001C5.65776 1.99996 5.5155 1.99991 5.39018 2.01015C5.24496 2.02201 5.03697 2.05245 4.81903 2.1635C4.53678 2.30731 4.30731 2.53678 4.1635 2.81903C4.05245 3.03697 4.02201 3.24496 4.01015 3.39018C3.99991 3.5155 3.99996 3.65776 4.00001 3.77687V5.22315C3.99996 5.34227 3.99991 5.48452 4.01015 5.60984C4.02201 5.75506 4.05245 5.96305 4.1635 6.181C4.30731 6.46324 4.53678 6.69271 4.81903 6.83652C5.03697 6.94757 5.24496 6.97801 5.39018 6.98988C5.5155 7.00012 5.65776 7.00006 5.77687 7.00002L8 7.00001V8H10V7.00001L12.2232 7.00002C12.3423 7.00006 12.4845 7.00012 12.6098 6.98988C12.7551 6.97801 12.9631 6.94757 13.181 6.83652C13.4632 6.69271 13.6927 6.46324 13.8365 6.181C13.9476 5.96305 13.978 5.75506 13.9899 5.60984C14.0001 5.48452 14.0001 5.34226 14 5.22314V3.77688C14.0001 3.65777 14.0001 3.5155 13.9899 3.39018C13.978 3.24496 13.9476 3.03697 13.8365 2.81903C13.6927 2.53678 13.4632 2.30731 13.181 2.1635C12.9631 2.05245 12.7551 2.02201 12.6098 2.01015C12.4845 1.99991 12.3423 1.99996 12.2232 2.00001H5.77687ZM9.00498 5.00001H12V4.00001H6.00001V5.00001H8.99502L9 5L9.00498 5.00001Z" fill="#0000CC"/>
<path d="M7.5 13C8.05229 13 8.5 12.5523 8.5 12C8.5 11.4477 8.05229 11 7.5 11C6.94772 11 6.5 11.4477 6.5 12C6.5 12.5523 6.94772 13 7.5 13Z" fill="#0000CC"/>
<path d="M10.5 13C11.0523 13 11.5 12.5523 11.5 12C11.5 11.4477 11.0523 11 10.5 11C9.94771 11 9.5 11.4477 9.5 12C9.5 12.5523 9.94771 13 10.5 13Z" fill="#0000CC"/>
<path d="M14.5 12C14.5 12.5523 14.0523 13 13.5 13C12.9477 13 12.5 12.5523 12.5 12C12.5 11.4477 12.9477 11 13.5 11C14.0523 11 14.5 11.4477 14.5 12Z" fill="#0000CC"/>
<path d="M16.5 13C17.0523 13 17.5 12.5523 17.5 12C17.5 11.4477 17.0523 11 16.5 11C15.9477 11 15.5 11.4477 15.5 12C15.5 12.5523 15.9477 13 16.5 13Z" fill="#0000CC"/>
<path d="M16 15C16 15.5523 15.5523 16 15 16C14.4477 16 14 15.5523 14 15C14 14.4477 14.4477 14 15 14C15.5523 14 16 14.4477 16 15Z" fill="#0000CC"/>
<path d="M12 16C12.5523 16 13 15.5523 13 15C13 14.4477 12.5523 14 12 14C11.4477 14 11 14.4477 11 15C11 15.5523 11.4477 16 12 16Z" fill="#0000CC"/>
<path d="M10 15C10 15.5523 9.55229 16 9 16C8.44771 16 8 15.5523 8 15C8 14.4477 8.44771 14 9 14C9.55229 14 10 14.4477 10 15Z" fill="#0000CC"/>
<path d="M4 19.5C4 19.2239 4.22386 19 4.5 19H19.5C19.7761 19 20 19.2239 20 19.5C20 19.7761 19.7761 20 19.5 20H4.5C4.22386 20 4 19.7761 4 19.5Z" fill="#0000CC"/>
</svg>
