<svg width="24" height="24" viewBox="0 0 24 24" fill="none" xmlns="http://www.w3.org/2000/svg">
<g opacity="0.3">
<path d="M14 3C14 2.44772 13.5523 2 13 2C12.4477 2 12 2.44772 12 3V4.04693C12.2814 4.01592 12.5674 4 12.8571 4C13.2454 4 13.627 4.0287 14 4.08407V3Z" fill="#0000CC"/>
<path d="M12 19.9531C12.2814 19.9841 12.5674 20 12.8571 20C13.2454 20 13.627 19.9713 14 19.9159V21C14 21.5523 13.5523 22 13 22C12.4477 22 12 21.5523 12 21V19.9531Z" fill="#0000CC"/>
</g>
<path fill-rule="evenodd" clip-rule="evenodd" d="M12.8571 6C9.64167 6 7 8.66675 7 12C7 15.3332 9.64167 18 12.8571 18C14.5988 18 16.1663 17.2221 17.2435 15.9762C17.6048 15.5584 18.2363 15.5125 18.654 15.8737C19.0718 16.2349 19.1177 16.8665 18.7565 17.2842C17.3207 18.9448 15.2116 20 12.8571 20C8.49842 20 5 16.3987 5 12C5 7.60126 8.49842 4 12.8571 4C15.2116 4 17.3207 5.05522 18.7565 6.71577C19.1177 7.13355 19.0718 7.76505 18.654 8.12627C18.2363 8.48748 17.6048 8.44163 17.2435 8.02385C16.1663 6.77793 14.5988 6 12.8571 6Z" fill="#0000CC"/>
</svg>
