<svg width="24" height="24" viewBox="0 0 24 24" fill="none" xmlns="http://www.w3.org/2000/svg">
<path opacity="0.3" fill-rule="evenodd" clip-rule="evenodd" d="M12 2C6.47715 2 2 6.47715 2 12C2 17.5228 6.47715 22 12 22C17.5228 22 22 17.5228 22 12C22 6.47715 17.5228 2 12 2Z" fill="#0000CC"/>
<path d="M9.85764 5.98566C9.5735 5.51208 8.95924 5.35851 8.48566 5.64266C8.01207 5.92681 7.85851 6.54107 8.14266 7.01465L10.834 11.5002H9.00015C8.44787 11.5002 8.00015 11.9479 8.00015 12.5002C8.00015 13.0524 8.44787 13.5002 9.00015 13.5002H11.0002V14.5002H9.00015C8.44787 14.5002 8.00015 14.9479 8.00015 15.5002C8.00015 16.0524 8.44787 16.5002 9.00015 16.5002H11.0002V17.5002C11.0002 18.0524 11.4479 18.5002 12.0002 18.5002C12.5524 18.5002 13.0002 18.0524 13.0002 17.5002V16.5002H15.0002C15.5524 16.5002 16.0002 16.0524 16.0002 15.5002C16.0002 14.9479 15.5524 14.5002 15.0002 14.5002H13.0002V13.5002H15.0002C15.5524 13.5002 16.0002 13.0524 16.0002 12.5002C16.0002 11.9479 15.5524 11.5002 15.0002 11.5002H13.1663L15.8576 7.01465C16.1418 6.54107 15.9882 5.92681 15.5146 5.64266C15.0411 5.35851 14.4268 5.51208 14.1427 5.98566L12.0002 9.5565L9.85764 5.98566Z" fill="#0000CC"/>
</svg>
