<svg width="24" height="24" viewBox="0 0 24 24" fill="none" xmlns="http://www.w3.org/2000/svg">
<path opacity="0.3" fill-rule="evenodd" clip-rule="evenodd" d="M12 22C17.5228 22 22 17.5228 22 12C22 6.47715 17.5228 2 12 2C6.47715 2 2 6.47715 2 12C2 17.5228 6.47715 22 12 22Z" fill="#0000CC"/>
<path fill-rule="evenodd" clip-rule="evenodd" d="M12 5.5C12.5523 5.5 13 5.94772 13 6.5V7H13.0833C14.6942 7 16 8.30584 16 9.91667V10C16 10.5523 15.5523 11 15 11C14.4477 11 14 10.5523 14 10V9.91667C14 9.41041 13.5896 9 13.0833 9H13V11C14.6569 11 16 12.3431 16 14C16 15.6569 14.6569 17 13 17V17.5C13 18.0523 12.5523 18.5 12 18.5C11.4477 18.5 11 18.0523 11 17.5V17H10.9583C9.32449 17 8 15.6755 8 14.0417V14C8 13.4477 8.44771 13 9 13C9.55229 13 10 13.4477 10 14V14.0417C10 14.5709 10.4291 15 10.9583 15H11V13C9.34315 13 8 11.6569 8 10C8 8.34315 9.34315 7 11 7V6.5C11 5.94772 11.4477 5.5 12 5.5ZM11 9C10.4477 9 10 9.44772 10 10C10 10.5523 10.4477 11 11 11V9ZM13 15C13.5523 15 14 14.5523 14 14C14 13.4477 13.5523 13 13 13V15Z" fill="#0000CC"/>
</svg>
