<svg width="24" height="24" viewBox="0 0 24 24" fill="none" xmlns="http://www.w3.org/2000/svg">
<path opacity="0.3" d="M11 21H19C20.6569 21 22 19.6569 22 18C22 17.2316 21.7111 16.5308 21.2361 16C21.7111 15.4692 22 14.7684 22 14C22 13.2316 21.7111 12.5308 21.2361 12C21.7111 11.4692 22 10.7684 22 10C22 8.34315 20.6569 7 19 7H13.8293C13.6976 7.37262 13.4944 7.71145 13.2361 8C13.4944 8.28855 13.6976 8.62738 13.8293 9H19C19.5523 9 20 9.44772 20 10C20 10.5523 19.5523 11 19 11H13.8293C13.6976 11.3726 13.4944 11.7115 13.2361 12C13.4944 12.2885 13.6976 12.6274 13.8293 13H19C19.5523 13 20 13.4477 20 14C20 14.5523 19.5523 15 19 15H13.8293C13.6976 15.3726 13.4944 15.7115 13.2361 16C13.4944 16.2886 13.6976 16.6274 13.8293 17H19C19.5523 17 20 17.4477 20 18C20 18.5523 19.5523 19 19 19H13.8293C13.4175 20.1652 12.3062 21 11 21Z" fill="#0000CC"/>
<path fill-rule="evenodd" clip-rule="evenodd" d="M2 6C2 4.34315 3.34315 3 5 3H11C12.6569 3 14 4.34315 14 6C14 6.76836 13.7111 7.46925 13.2361 8C13.7111 8.53076 14 9.23164 14 10C14 10.7684 13.7111 11.4692 13.2361 12C13.7111 12.5308 14 13.2316 14 14C14 14.7684 13.7111 15.4692 13.2361 16C13.7111 16.5308 14 17.2316 14 18C14 19.6569 12.6569 21 11 21H5C3.34315 21 2 19.6569 2 18C2 17.2316 2.28885 16.5308 2.7639 16C2.28885 15.4692 2 14.7684 2 14C2 13.2316 2.28885 12.5308 2.7639 12C2.28885 11.4692 2 10.7684 2 10C2 9.23165 2.28885 8.53076 2.76389 8C2.28885 7.46924 2 6.76835 2 6ZM5 7C4.44772 7 4 6.55228 4 6C4 5.44772 4.44772 5 5 5H11C11.5523 5 12 5.44772 12 6C12 6.55228 11.5523 7 11 7H5ZM11 9H5C4.44772 9 4 9.44772 4 10C4 10.5523 4.44772 11 5 11H11C11.5523 11 12 10.5523 12 10C12 9.44772 11.5523 9 11 9ZM11 13H5C4.44772 13 4 13.4477 4 14C4 14.5523 4.44772 15 5 15H11C11.5523 15 12 14.5523 12 14C12 13.4477 11.5523 13 11 13ZM11 17H5C4.44772 17 4 17.4477 4 18C4 18.5523 4.44772 19 5 19H11C11.5523 19 12 18.5523 12 18C12 17.4477 11.5523 17 11 17Z" fill="#0000CC"/>
</svg>
