<svg width="24" height="24" viewBox="0 0 24 24" fill="none" xmlns="http://www.w3.org/2000/svg">
<g opacity="0.3">
<path d="M11.7353 4.08073C7.91336 4.63589 5 7.98589 5 12C5 14.7671 6.38443 17.2187 8.49656 18.6566L8.97701 16.4943C7.7668 15.3982 7 13.7959 7 12C7 9.24045 8.81059 6.93771 11.2584 6.2268L11.7353 4.08073Z" fill="#0000CC"/>
<path d="M10.7778 17.6102L10.3399 19.5813C10.9323 19.785 11.5567 19.9188 12.2041 19.9728L12.6433 17.9961C11.9895 17.9719 11.3617 17.8376 10.7778 17.6102Z" fill="#0000CC"/>
<path d="M15.1981 6.49819C14.6245 6.24173 14.0036 6.07699 13.3529 6.02117L13.7896 4.05579C14.4332 4.13332 15.0527 4.29007 15.6386 4.51593L15.1981 6.49819Z" fill="#0000CC"/>
<path d="M14.7634 17.6753L14.2758 19.8699C16.0511 19.5401 17.6162 18.6031 18.7565 17.2842C19.1177 16.8665 19.0718 16.235 18.654 15.8737C18.2363 15.5125 17.6048 15.5584 17.2435 15.9762C16.5788 16.745 15.7273 17.3357 14.7634 17.6753Z" fill="#0000CC"/>
<path d="M16.9729 7.73112L17.4644 5.51915C17.938 5.86871 18.3715 6.27048 18.7565 6.71577C19.1177 7.13355 19.0718 7.76505 18.654 8.12627C18.2363 8.48749 17.6048 8.44163 17.2435 8.02385C17.1565 7.92316 17.0662 7.82553 16.9729 7.73112Z" fill="#0000CC"/>
</g>
<path fill-rule="evenodd" clip-rule="evenodd" d="M13.2166 2.02381C13.7558 2.1436 14.0957 2.67777 13.9759 3.21691L9.97641 21.2169C9.85661 21.756 9.32245 22.096 8.78331 21.9762C8.24417 21.8564 7.90423 21.3222 8.02402 20.7831L12.0235 2.7831C12.1433 2.24396 12.6775 1.90401 13.2166 2.02381ZM17.2166 2.02381C17.7558 2.1436 18.0957 2.67777 17.9759 3.21691L13.9764 21.2169C13.8566 21.756 13.3224 22.096 12.7833 21.9762C12.2442 21.8564 11.9042 21.3222 12.024 20.7831L16.0235 2.7831C16.1433 2.24396 16.6775 1.90401 17.2166 2.02381Z" fill="#0000CC"/>
</svg>
