<svg width="24" height="24" viewBox="0 0 24 24" fill="none" xmlns="http://www.w3.org/2000/svg">
<g opacity="0.3">
<path d="M2.00169 8H21.9983C21.9902 6.83507 21.9434 6.16873 21.673 5.63803C21.3854 5.07354 20.9265 4.6146 20.362 4.32698C19.7202 4 18.8802 4 17.2 4H6.8C5.11984 4 4.27976 4 3.63803 4.32698C3.07354 4.6146 2.6146 5.07354 2.32698 5.63803C2.05658 6.16873 2.00979 6.83507 2.00169 8Z" fill="#0000CC"/>
<path d="M22 10H2V15.2C2 16.8802 2 17.7202 2.32698 18.362C2.6146 18.9265 3.07354 19.3854 3.63803 19.673C4.27976 20 5.11984 20 6.8 20H12.1707C12.0601 19.6871 12 19.3504 12 18.9996C12.0002 17.3427 13.3436 15.9998 15.0004 16L16.1708 16.0002C16.3152 15.5905 16.5514 15.2059 16.8791 14.8782C18.0509 13.7069 19.9504 13.7073 21.1218 14.8791L21.9995 15.7572C22 15.5823 22 15.3969 22 15.2V10Z" fill="#0000CC"/>
</g>
<path d="M22 8H2V10H22V8Z" fill="#0000CC"/>
<path d="M18.293 16.2927C18.6836 15.9023 19.3168 15.9024 19.7073 16.293L21.7073 18.2939C21.8947 18.4814 22.0001 18.7358 22 19.001C21.9999 19.2662 21.8945 19.5206 21.707 19.7081L19.707 21.7073C19.3164 22.0977 18.6832 22.0976 18.2927 21.707C17.9023 21.3164 17.9024 20.6832 18.293 20.2927L18.5854 20.0005L14.9999 20C14.4476 19.9999 13.9999 19.5521 14 18.9999C14.0001 18.4476 14.4479 17.9999 15.0001 18L18.5862 18.0005L18.2927 17.707C17.9023 17.3164 17.9024 16.6832 18.293 16.2927Z" fill="#0000CC"/>
</svg>
