<svg width="24" height="24" viewBox="0 0 24 24" fill="none" xmlns="http://www.w3.org/2000/svg">
<g opacity="0.3">
<path d="M2.00169 8H21.9983C21.9902 6.83507 21.9434 6.16873 21.673 5.63803C21.3854 5.07354 20.9265 4.6146 20.362 4.32698C19.7202 4 18.8802 4 17.2 4H6.8C5.11984 4 4.27976 4 3.63803 4.32698C3.07354 4.6146 2.6146 5.07354 2.32698 5.63803C2.05658 6.16873 2.00979 6.83507 2.00169 8Z" fill="#0000CC"/>
<path d="M22 10H2V15.2C2 16.8802 2 17.7202 2.32698 18.362C2.6146 18.9265 3.07354 19.3854 3.63803 19.673C4.27976 20 5.11984 20 6.8 20H12.7639C12.2888 19.4691 11.9999 18.7681 12 17.9996C12.0002 16.3429 13.3433 15 15 15C15 13.3431 16.3431 12 18 12C19.6569 12 21.0004 13.344 21.0004 15.0008C21.3509 15.0009 21.6873 15.061 22 15.1715V10Z" fill="#0000CC"/>
</g>
<path d="M22 8H2V10H22V8Z" fill="#0000CC"/>
<path d="M18 14C18.5523 14 19 14.4477 19 15V17.0005L21.0001 17.0008C21.5524 17.0009 22.0001 17.4487 22 18.001C21.9999 18.5532 21.5521 19.0009 20.9999 19.0008L19 19.0005V21C19 21.5523 18.5523 22 18 22C17.4477 22 17 21.5523 17 21V19.0003L14.9999 19C14.4476 18.9999 13.9999 18.5521 14 17.9999C14.0001 17.4476 14.4479 16.9999 15.0001 17L17 17.0003V15C17 14.4477 17.4477 14 18 14Z" fill="#0000CC"/>
</svg>
