<svg width="24" height="24" viewBox="0 0 24 24" fill="none" xmlns="http://www.w3.org/2000/svg">
<path d="M14.0001 19.99V13.2949C14.6301 12.3529 15.1418 12 15.5961 12C16.1174 12 16.6905 12.2795 17.2192 12.9405C17.5641 13.3719 18.1934 13.4419 18.6247 13.097C19.056 12.752 19.126 12.1227 18.7811 11.6914C17.9927 10.7056 16.8941 10 15.5961 10C14.9388 10 14.3728 10.211 13.8855 10.5347C13.7181 10.2168 13.3844 10 13.0001 10C12.4478 10 12.0001 10.4477 12.0001 11V12.9827C12 12.9936 12 13.0045 12.0001 13.0154V19.8188C12.5217 19.9376 13.0622 20 13.6154 20C13.7444 20 13.8727 19.9966 14.0001 19.99Z" fill="#0000CC"/>
<path opacity="0.3" fill-rule="evenodd" clip-rule="evenodd" d="M13.6154 4C9.45023 4 6 7.54011 6 12C6 16.4599 9.45023 20 13.6154 20C15.4052 20 17.0529 19.3522 18.358 18.2594C18.7814 17.9048 19.4121 17.9606 19.7667 18.384C20.1213 18.8074 20.0655 19.4381 19.642 19.7927C17.9972 21.1701 15.9004 22 13.6154 22C8.26424 22 4 17.4812 4 12C4 6.51876 8.26424 2 13.6154 2C15.9004 2 17.9972 2.82986 19.642 4.20728C20.0655 4.56186 20.1213 5.19256 19.7667 5.61599C19.4121 6.03941 18.7814 6.09522 18.358 5.74064C17.0529 4.64776 15.4052 4 13.6154 4Z" fill="#0000CC"/>
</svg>
