<svg width="24" height="24" viewBox="0 0 24 24" fill="none" xmlns="http://www.w3.org/2000/svg">
<g opacity="0.3">
<path d="M11 4H9.5C7.01472 4 5 6.01472 5 8.5C5 10.9853 7.01472 13 9.5 13H11V11H9.5C8.11929 11 7 9.88071 7 8.5C7 7.11929 8.11929 6 9.5 6H11V4Z" fill="#0000CC"/>
<path d="M13 11V13H14.5C15.8807 13 17 14.1193 17 15.5C17 16.8807 15.8807 18 14.5 18H13V20H14.5C16.9853 20 19 17.9853 19 15.5C19 13.0147 16.9853 11 14.5 11H13Z" fill="#0000CC"/>
<path d="M11 20V18H9.42708C8.08664 18 7 16.9134 7 15.5729V15.5C7 14.9477 6.55228 14.5 6 14.5C5.44772 14.5 5 14.9477 5 15.5V15.5729C5 18.0179 6.98207 20 9.42708 20H11Z" fill="#0000CC"/>
<path d="M13 6V4H14.6458C17.0506 4 19 5.94943 19 8.35417V8.5C19 9.05228 18.5523 9.5 18 9.5C17.4477 9.5 17 9.05228 17 8.5V8.35417C17 7.054 15.946 6 14.6458 6H13Z" fill="#0000CC"/>
</g>
<path fill-rule="evenodd" clip-rule="evenodd" d="M12 2C12.5523 2 13 2.44772 13 3V21C13 21.5523 12.5523 22 12 22C11.4477 22 11 21.5523 11 21V3C11 2.44772 11.4477 2 12 2Z" fill="#0000CC"/>
</svg>
