<svg width="24" height="24" viewBox="0 0 24 24" fill="none" xmlns="http://www.w3.org/2000/svg">
<g opacity="0.3">
<path d="M14 5C13.4477 5 13 5.44772 13 6C13 6.55228 13.4477 7 14 7H18C18.5523 7 19 6.55228 19 6C19 5.44772 18.5523 5 18 5H14Z" fill="#0000CC"/>
<path d="M6 19C5.44772 19 5 19.4477 5 20C5 20.5523 5.44772 21 6 21H18C18.5523 21 19 20.5523 19 20C19 19.4477 18.5523 19 18 19H6Z" fill="#0000CC"/>
</g>
<path fill-rule="evenodd" clip-rule="evenodd" d="M16 2C16.5523 2 17 2.44772 17 3C17 7.04122 17 9.44104 17 17C17 17.5523 16.5523 18 16 18C15.4477 18 15 17.5523 15 17V16.4649C14.4117 16.8052 13.7286 17 13 17C10.7909 17 9 15.2091 9 13C9 10.7909 10.7909 9 13 9C13.7286 9 14.4117 9.19479 15 9.53513C15 5.79283 15 6.37803 15 3C15 2.44772 15.4477 2 16 2ZM15 13C15 11.8954 14.1046 11 13 11C11.8954 11 11 11.8954 11 13C11 14.1046 11.8954 15 13 15C14.1046 15 15 14.1046 15 13Z" fill="#0000CC"/>
</svg>
