<svg width="24" height="24" viewBox="0 0 24 24" fill="none" xmlns="http://www.w3.org/2000/svg">
<path opacity="0.3" fill-rule="evenodd" clip-rule="evenodd" d="M6.16146 5H17.8385C18.3657 4.99998 18.8205 4.99997 19.195 5.03057C19.5904 5.06287 19.9836 5.13419 20.362 5.32698C20.9265 5.6146 21.3854 6.07355 21.673 6.63803C21.8658 7.01641 21.9371 7.40963 21.9694 7.80498C22 8.17954 22 8.6343 22 9.16144V14.8386C22 15.3657 22 15.8205 21.9694 16.195C21.9371 16.5904 21.8658 16.9836 21.673 17.362C21.3854 17.9265 20.9265 18.3854 20.362 18.673C19.9836 18.8658 19.5904 18.9371 19.195 18.9694C18.8205 19 18.3657 19 17.8385 19H6.16145C5.63431 19 5.17955 19 4.80498 18.9694C4.40963 18.9371 4.01641 18.8658 3.63803 18.673C3.07355 18.3854 2.6146 17.9265 2.32698 17.362C2.13419 16.9836 2.06287 16.5904 2.03057 16.195C1.99997 15.8205 1.99998 15.3657 2 14.8386V9.16142C1.99998 8.63431 1.99997 8.17953 2.03057 7.80498C2.06287 7.40963 2.13419 7.01641 2.32698 6.63803C2.6146 6.07355 3.07355 5.6146 3.63803 5.32698C4.01641 5.13419 4.40963 5.06287 4.80498 5.03057C5.17953 4.99997 5.63434 4.99998 6.16146 5Z" fill="#0000CC"/>
<path fill-rule="evenodd" clip-rule="evenodd" d="M7 8C7 9.10457 6.10457 10 5 10C4.63571 10 4.29417 9.90261 4 9.73244V9.2C4 8.62345 4.00078 8.25117 4.02393 7.96784C4.04612 7.69617 4.0838 7.59545 4.10899 7.54601C4.20487 7.35785 4.35785 7.20487 4.54601 7.10899C4.59545 7.0838 4.69617 7.04612 4.96784 7.02393C5.25117 7.00078 5.62345 7 6.2 7H6.73244C6.90261 7.29417 7 7.63571 7 8ZM6.2 17H6.73244C6.90261 16.7058 7 16.3643 7 16C7 14.8954 6.10457 14 5 14C4.63571 14 4.29417 14.0974 4 14.2676V14.8C4 15.3766 4.00078 15.7488 4.02393 16.0322C4.04612 16.3038 4.0838 16.4045 4.10899 16.454C4.20487 16.6422 4.35785 16.7951 4.54601 16.891C4.59545 16.9162 4.69617 16.9539 4.96784 16.9761C5.25117 16.9992 5.62345 17 6.2 17ZM20 14.2676V14.8C20 15.3766 19.9992 15.7488 19.9761 16.0322C19.9539 16.3038 19.9162 16.4045 19.891 16.454C19.7951 16.6422 19.6422 16.7951 19.454 16.891C19.4045 16.9162 19.3038 16.9539 19.0322 16.9761C18.7488 16.9992 18.3766 17 17.8 17H17.2676C17.0974 16.7058 17 16.3643 17 16C17 14.8954 17.8954 14 19 14C19.3643 14 19.7058 14.0974 20 14.2676ZM17.8 7H17.2676C17.0974 7.29417 17 7.63571 17 8C17 9.10457 17.8954 10 19 10C19.3643 10 19.7058 9.90261 20 9.73244V9.2C20 8.62345 19.9992 8.25117 19.9761 7.96784C19.9539 7.69617 19.9162 7.59545 19.891 7.54601C19.7951 7.35785 19.6422 7.20487 19.454 7.10899C19.4045 7.0838 19.3038 7.04612 19.0322 7.02393C18.7488 7.00078 18.3766 7 17.8 7ZM12 15C13.6569 15 15 13.6569 15 12C15 10.3431 13.6569 9 12 9C10.3431 9 9 10.3431 9 12C9 13.6569 10.3431 15 12 15Z" fill="#0000CC"/>
</svg>
