<svg width="24" height="24" viewBox="0 0 24 24" fill="none" xmlns="http://www.w3.org/2000/svg">
<path opacity="0.3" fill-rule="evenodd" clip-rule="evenodd" d="M6.16146 4H17.8385C18.3657 3.99998 18.8205 3.99997 19.195 4.03057C19.5904 4.06287 19.9836 4.13419 20.362 4.32698C20.9265 4.6146 21.3854 5.07355 21.673 5.63803C21.8658 6.01641 21.9371 6.40963 21.9694 6.80498C22 7.17954 22 7.6343 22 8.16144V15.8386C22 16.3657 22 16.8205 21.9694 17.195C21.9371 17.5904 21.8658 17.9836 21.673 18.362C21.3854 18.9265 20.9265 19.3854 20.362 19.673C19.9836 19.8658 19.5904 19.9371 19.195 19.9694C18.8205 20 18.3656 20 17.8385 20H6.16136C5.63426 20 5.17952 20 4.80498 19.9694C4.40963 19.9371 4.01641 19.8658 3.63803 19.673C3.07355 19.3854 2.6146 18.9265 2.32698 18.362C2.13419 17.9836 2.06287 17.5904 2.03057 17.195C1.99997 16.8205 1.99998 16.3657 2 15.8386V8.16142C1.99998 7.63431 1.99997 7.17953 2.03057 6.80498C2.06287 6.40963 2.13419 6.01641 2.32698 5.63803C2.6146 5.07355 3.07355 4.6146 3.63803 4.32698C4.01641 4.13419 4.40963 4.06287 4.80498 4.03057C5.17953 3.99997 5.63434 3.99998 6.16146 4Z" fill="#0000CC"/>
<path fill-rule="evenodd" clip-rule="evenodd" d="M9.00017 8.5C9.00017 7.94772 8.55245 7.5 8.00017 7.5C7.44788 7.5 7.00017 7.94772 7.00017 8.5V8.55665C6.90744 8.56913 6.81806 8.5839 6.73206 8.60118C6.36996 8.67393 6.00667 8.80297 5.70044 9.0487C5.02642 9.58958 5.00114 10.3802 5.00027 10.8306L5.00015 10.8689C4.99951 11.0593 4.99855 11.3397 5.05125 11.5961C5.12008 11.931 5.29035 12.2967 5.66709 12.5667C5.98958 12.7978 6.37002 12.8879 6.7061 12.9346C7.05736 12.9835 7.48785 13 8.00026 13C8.46751 13 8.78307 13.0118 9.00003 13.0356C9.00024 13.0744 9.00026 13.1176 9.00026 13.1667C9.00026 13.2787 8.9992 13.3506 8.99674 13.4002C8.97596 13.4069 8.9505 13.4142 8.91965 13.4217C8.74535 13.4642 8.45782 13.5 8.00026 13.5H6.00026C5.44798 13.5 5.00026 13.9477 5.00026 14.5C5.00026 15.0523 5.44798 15.5 6.00026 15.5H7.00017C7.00017 16.0522 7.44782 16.4999 8.00008 16.5C8.55236 16.5001 9.00012 16.0524 9.00017 15.5001L9.00017 15.4395C9.58355 15.3567 10.0823 15.1761 10.4473 14.8212C11.0122 14.272 11.0041 13.5331 11.0007 13.2242C11.0005 13.2029 11.0003 13.1837 11.0003 13.1667L11.0003 13.1243C11.0006 12.9224 11.001 12.6368 10.9491 12.3805C10.8805 12.0415 10.7077 11.6671 10.316 11.3983C9.98802 11.1733 9.60375 11.0942 9.27753 11.0544C8.93266 11.0124 8.5069 11 8.00026 11C7.52693 11 7.21178 10.984 7.00026 10.9562C7.00013 10.9203 7.00017 10.8802 7.00026 10.8345C7.00049 10.7182 7.00504 10.641 7.01051 10.5904C7.03864 10.5818 7.07645 10.572 7.12603 10.562C7.30628 10.5258 7.58248 10.5 8.00017 10.5H10.0003C10.5525 10.5 11.0003 10.0523 11.0003 9.5C11.0003 8.94772 10.5525 8.5 10.0003 8.5H9.00017ZM14.0002 9C13.448 9 13.0002 9.44772 13.0002 10C13.0002 10.5523 13.448 11 14.0002 11H18.0002C18.5525 11 19.0002 10.5523 19.0002 10C19.0002 9.44772 18.5525 9 18.0002 9H14.0002ZM13.0002 14C13.0002 13.4477 13.448 13 14.0002 13H18.0002C18.5525 13 19.0002 13.4477 19.0002 14C19.0002 14.5523 18.5525 15 18.0002 15H14.0002C13.448 15 13.0002 14.5523 13.0002 14Z" fill="#0000CC"/>
</svg>
