<svg width="24" height="24" viewBox="0 0 24 24" fill="none" xmlns="http://www.w3.org/2000/svg">
<path opacity="0.3" fill-rule="evenodd" clip-rule="evenodd" d="M8.76078 3H15.2392C16.046 2.99999 16.7083 2.99998 17.2471 3.04141C17.8046 3.08428 18.3145 3.17596 18.7944 3.40607C19.5417 3.76442 20.1606 4.34181 20.5524 5.06559C20.8078 5.53724 20.9087 6.03899 20.9554 6.57668C21 7.09101 21 7.72057 21 8.47458V15.5254C21 16.2794 21 16.909 20.9554 17.4233C20.9087 17.961 20.8078 18.4628 20.5524 18.9344C20.1606 19.6582 19.5416 20.2356 18.7944 20.5939C18.3145 20.824 17.8046 20.9157 17.2471 20.9586C16.7083 21 16.046 21 15.2392 21H8.76083C7.95405 21 7.29174 21 6.75294 20.9586C6.19542 20.9157 5.68547 20.824 5.20563 20.5939C4.45836 20.2356 3.83942 19.6582 3.44758 18.9344C3.19225 18.4628 3.0913 17.961 3.04462 17.4233C2.99997 16.909 2.99999 16.2795 3 15.5255V8.47456C2.99999 7.72059 2.99997 7.09099 3.04462 6.57668C3.0913 6.03899 3.19225 5.53724 3.44758 5.06559C3.83942 4.34181 4.45836 3.76442 5.20563 3.40607C5.68547 3.17596 6.19542 3.08428 6.75294 3.04141C7.29172 2.99998 7.95405 2.99999 8.76078 3Z" fill="#0000CC"/>
<path fill-rule="evenodd" clip-rule="evenodd" d="M5.00508 16.4666C5.00959 16.7761 5.01887 17.0305 5.03795 17.2504C5.07302 17.6543 5.13556 17.8499 5.2072 17.9822C5.39061 18.321 5.68955 18.6075 6.07126 18.7906C6.23315 18.8682 6.4641 18.9304 6.9071 18.9645C7.36011 18.9993 7.94521 19 8.80082 19H9.00082V17H7.86334C7.06795 17.0005 6.47729 17.0008 5.96564 16.8637C5.62502 16.7724 5.3028 16.638 5.00508 16.4666ZM15.0008 17V19H15.2008C16.0564 19 16.6415 18.9993 17.0945 18.9645C17.5375 18.9304 17.7685 18.8682 17.9304 18.7906C18.3121 18.6075 18.611 18.321 18.7944 17.9822C18.8661 17.8499 18.9286 17.6543 18.9637 17.2504C18.9828 17.0306 18.9921 16.7762 18.9966 16.4667C18.6989 16.6381 18.3767 16.7725 18.0362 16.8637C17.5245 17.0008 16.9339 17.0005 16.1385 17H15.0008ZM15.0008 13H16.1385C16.9339 13.0005 17.5245 13.0008 18.0362 12.8637C18.378 12.7721 18.7013 12.6371 18.9999 12.4648C18.9963 13.0981 18.9818 13.3346 18.9328 13.5176C18.7478 14.2078 18.2087 14.7469 17.5186 14.9319C17.2963 14.9914 16.9953 15 16.0009 15H15.0008V13ZM9.00082 13V15H8.00092C7.00657 15 6.70556 14.9914 6.48328 14.9319C5.7931 14.7469 5.254 14.2078 5.06907 13.5176C5.02001 13.3346 5.00553 13.0981 5.00195 12.4648C5.30054 12.6371 5.62383 12.7721 5.96564 12.8637C6.47729 13.0008 7.06795 13.0005 7.86334 13H9.00082ZM8.00082 8C8.00082 8.55229 7.55311 9 7.00082 9C6.44854 9 6.00082 8.55229 6.00082 8C6.00082 7.44772 6.44854 7 7.00082 7C7.55311 7 8.00082 7.44772 8.00082 8ZM17.0008 9C17.5531 9 18.0008 8.55229 18.0008 8C18.0008 7.44772 17.5531 7 17.0008 7C16.4485 7 16.0008 7.44772 16.0008 8C16.0008 8.55229 16.4485 9 17.0008 9ZM13.0008 5H11.0008V11H13.0008V5Z" fill="#0000CC"/>
</svg>
