<svg width="24" height="24" viewBox="0 0 24 24" fill="none" xmlns="http://www.w3.org/2000/svg">
<path opacity="0.3" fill-rule="evenodd" clip-rule="evenodd" d="M2.32698 6.63803C2 7.27976 2 8.11984 2 9.8V14.2C2 15.8802 2 16.7202 2.32698 17.362C2.6146 17.9265 3.07354 18.3854 3.63803 18.673C4.27976 19 5.11984 19 6.8 19H12.055C12.0569 18.9912 12.0588 18.9825 12.0608 18.9737C12.0623 18.967 12.0639 18.9602 12.0655 18.9534L12.1046 18.7854C12.2282 18.2543 12.3386 17.78 12.5281 17.3252C12.6948 16.9251 12.9052 16.5447 13.1555 16.1908C13.4403 15.7884 13.7835 15.4432 14.1667 15.0579L14.2242 15H7C6.44771 15 6 14.5523 6 14C6 13.4477 6.44772 13 7 13H16.2104L18.1933 11.0032C19.2213 9.9681 20.7469 9.73401 22 10.3009V9.8C22 8.11984 22 7.27976 21.673 6.63803C21.3854 6.07354 20.9265 5.6146 20.362 5.32698C19.7202 5 18.8802 5 17.2 5H6.8C5.11984 5 4.27976 5 3.63803 5.32698C3.07354 5.6146 2.6146 6.07354 2.32698 6.63803ZM6 10C6 9.44772 6.44772 9 7 9H17C17.5523 9 18 9.44772 18 10C18 10.5523 17.5523 11 17 11H7C6.44771 11 6 10.5523 6 10Z" fill="#0000CC"/>
<path d="M21.5904 12.4125C21.0442 11.8625 20.1586 11.8625 19.6124 12.4125L15.6646 16.3878C15.2042 16.8514 14.9741 17.0832 14.7881 17.346C14.6231 17.5793 14.4843 17.8303 14.3742 18.0944C14.2503 18.3919 14.1758 18.711 14.0268 19.3492L14.013 19.4081C13.9335 19.7488 14.2302 20.0584 14.5712 19.9906C15.2528 19.8549 15.5936 19.7871 15.9115 19.6622C16.1936 19.5513 16.4617 19.4072 16.7102 19.2329C16.9901 19.0366 17.2358 18.7892 17.7271 18.2944L21.5904 14.4043C22.1365 13.8542 22.1365 12.9625 21.5904 12.4125Z" fill="#0000CC"/>
</svg>
