<svg width="24" height="24" viewBox="0 0 24 24" fill="none" xmlns="http://www.w3.org/2000/svg">
<g opacity="0.3">
<path d="M17.9992 8C18.3605 8 18.6937 8.19486 18.8708 8.50974L21.6653 13.4778C21.7512 13.6301 21.8324 13.7839 21.8868 13.9508C21.9352 14.0993 21.9744 14.3109 21.9825 14.4669C21.9927 14.6645 21.975 14.7859 21.9587 14.8965C21.6606 16.9284 19.8595 18 17.9992 18C16.0451 18 14.4289 16.5221 14.0733 14.9722C14.0447 14.8474 14.0281 14.7444 14.0274 14.5536C14.0266 14.3605 14.0561 14.1564 14.1114 13.9714C14.1757 13.7571 14.2578 13.6114 14.323 13.4958L17.1277 8.50974C17.3048 8.19486 17.638 8 17.9992 8Z" fill="#0000CC"/>
<path d="M5.99923 12C6.3605 12 6.69369 12.1949 6.87081 12.5097L9.66533 17.4778C9.75123 17.6301 9.83242 17.7839 9.8868 17.9508C9.93521 18.0993 9.97443 18.3109 9.98251 18.4669C9.99275 18.6645 9.97498 18.7859 9.95875 18.8965C9.6606 20.9284 7.85945 22 5.99923 22C4.04507 22 2.42886 20.5221 2.07331 18.9722C2.04469 18.8474 2.02815 18.7444 2.02736 18.5536C2.02656 18.3605 2.05605 18.1564 2.11144 17.9714C2.17565 17.7571 2.25778 17.6114 2.32297 17.4958L5.12765 12.5097C5.30477 12.1949 5.63796 12 5.99923 12Z" fill="#0000CC"/>
</g>
<path fill-rule="evenodd" clip-rule="evenodd" d="M20.4575 2.92174C20.6464 3.44072 20.3788 4.01456 19.8598 4.20345L15.1613 5.91355C15.1078 5.93304 15.0537 5.94766 14.9995 5.95765C14.9997 5.97174 14.9998 5.98586 14.9998 6C14.9998 7.30622 14.165 8.41746 12.9998 8.82929V20H19.9998C20.5521 20 20.9998 20.4477 20.9998 21C20.9998 21.5523 20.5521 22 19.9998 22H11.9998C11.4475 22 10.9998 21.5523 10.9998 21V8.82929C10.4807 8.64584 10.0273 8.3236 9.68392 7.90717L4.82471 9.67578C4.30574 9.86467 3.73189 9.59708 3.543 9.0781C3.35411 8.55913 3.6217 7.98528 4.14067 7.79639L8.99991 6.02777C8.99983 6.01852 8.99978 6.00927 8.99978 6C8.99978 4.34314 10.3429 3 11.9998 3C12.9376 3 13.775 3.43035 14.3251 4.10435C14.373 4.07719 14.4238 4.05363 14.4773 4.03417L19.1758 2.32407C19.6947 2.13518 20.2686 2.40276 20.4575 2.92174Z" fill="#0000CC"/>
</svg>
