<svg width="24" height="24" viewBox="0 0 24 24" fill="none" xmlns="http://www.w3.org/2000/svg">
<g opacity="0.3">
<path d="M6.01444 8C5.65317 8 5.31999 8.19486 5.14287 8.50974L2.34834 13.4778C2.26243 13.6301 2.18125 13.7839 2.12687 13.9508C2.07847 14.0993 2.03924 14.3109 2.03116 14.4669C2.02093 14.6645 2.03869 14.7859 2.05493 14.8965C2.35308 16.9284 4.15422 18 6.01444 18C7.9686 18 9.58481 16.5221 9.94036 14.9722C9.96898 14.8474 9.98552 14.7444 9.98631 14.5536C9.98711 14.3605 9.95762 14.1564 9.90223 13.9714C9.83802 13.7571 9.75589 13.6114 9.6907 13.4958L6.88602 8.50974C6.7089 8.19486 6.37572 8 6.01444 8Z" fill="#0000CC"/>
<path d="M18.0144 12C17.6532 12 17.32 12.1949 17.1429 12.5097L14.3483 17.4778C14.2624 17.6301 14.1812 17.7839 14.1269 17.9508C14.0785 18.0993 14.0392 18.3109 14.0312 18.4669C14.0209 18.6645 14.0387 18.7859 14.0549 18.8965C14.3531 20.9284 16.1542 22 18.0144 22C19.9686 22 21.5848 20.5221 21.9404 18.9722C21.969 18.8474 21.9855 18.7444 21.9863 18.5536C21.9871 18.3605 21.9576 18.1564 21.9022 17.9714C21.838 17.7571 21.7559 17.6114 21.6907 17.4958L18.886 12.5097C18.7089 12.1949 18.3757 12 18.0144 12Z" fill="#0000CC"/>
</g>
<path fill-rule="evenodd" clip-rule="evenodd" d="M3.53939 2.9218C3.72828 2.40282 4.30212 2.13524 4.8211 2.32413L9.51956 4.03423C9.57379 4.05397 9.62527 4.0779 9.67377 4.10554C10.2239 3.43089 11.0616 3.00006 12 3.00006C13.6569 3.00006 15 4.34321 15 6.00006C15 6.00968 15 6.0193 14.9999 6.0289L19.8562 7.79645C20.3752 7.98534 20.6427 8.55919 20.4539 9.07816C20.265 9.59714 19.6911 9.86473 19.1721 9.67584L14.3152 7.90805C13.9719 8.32409 13.5187 8.64602 13 8.82935V21.0001C13 21.5523 12.5523 22.0001 12 22.0001H4C3.44772 22.0001 3 21.5523 3 21.0001C3 20.4478 3.44772 20.0001 4 20.0001H11V8.82935C9.83481 8.41752 9 7.30628 9 6.00006C9 5.9861 9.00009 5.97217 9.00029 5.95825C8.9451 5.94825 8.89001 5.93345 8.83552 5.91362L4.13706 4.20351C3.61808 4.01462 3.35049 3.44078 3.53939 2.9218Z" fill="#0000CC"/>
</svg>
