<svg width="24" height="24" viewBox="0 0 24 24" fill="none" xmlns="http://www.w3.org/2000/svg">
<path opacity="0.3" fill-rule="evenodd" clip-rule="evenodd" d="M16.2413 3H7.7587C6.95374 2.99999 6.28937 2.99998 5.74818 3.04419C5.18608 3.09012 4.66937 3.18868 4.18404 3.43598C3.43139 3.81947 2.81947 4.43139 2.43598 5.18404C2.18868 5.66937 2.09012 6.18608 2.04419 6.74818C1.99998 7.28937 1.99999 7.95372 2 8.75869V14.2413C1.99999 15.0463 1.99998 15.7106 2.04419 16.2518C2.09012 16.8139 2.18868 17.3306 2.43598 17.816C2.81947 18.5686 3.43139 19.1805 4.18404 19.564C4.66937 19.8113 5.18608 19.9099 5.74818 19.9558C5.82933 19.9624 5.91325 19.9681 6 19.9729V21C6 21.5523 6.44772 22 7 22C7.55229 22 8 21.5523 8 21V20H16V21C16 21.5523 16.4477 22 17 22C17.5523 22 18 21.5523 18 21V19.9729C18.0868 19.9681 18.1707 19.9624 18.2518 19.9558C18.8139 19.9099 19.3306 19.8113 19.816 19.564C20.5686 19.1805 21.1805 18.5686 21.564 17.816C21.8113 17.3306 21.9099 16.8139 21.9558 16.2518C22 15.7106 22 15.0463 22 14.2413V8.75868C22 7.95372 22 7.28936 21.9558 6.74818C21.9099 6.18608 21.8113 5.66937 21.564 5.18404C21.1805 4.43139 20.5686 3.81947 19.816 3.43598C19.3306 3.18868 18.8139 3.09012 18.2518 3.04419C17.7106 2.99998 17.0463 2.99999 16.2413 3ZM9.5 13C10.3284 13 11 12.3284 11 11.5C11 10.6716 10.3284 10 9.5 10C8.67157 10 8 10.6716 8 11.5C8 12.3284 8.67157 13 9.5 13Z" fill="#0000CC"/>
<path fill-rule="evenodd" clip-rule="evenodd" d="M15 10C15 8.89543 15.8954 8 17 8C18.1046 8 19 8.89543 19 10C19 10.7403 18.5978 11.3866 18 11.7324V14C18 14.5523 17.5523 15 17 15C16.4477 15 16 14.5523 16 14V11.7324C15.4022 11.3866 15 10.7403 15 10Z" fill="#0000CC"/>
<path fill-rule="evenodd" clip-rule="evenodd" d="M9.5 10C8.67157 10 8 10.6716 8 11.5C8 12.3284 8.67157 13 9.5 13C10.3284 13 11 12.3284 11 11.5C11 10.6716 10.3284 10 9.5 10ZM6 11.5C6 9.567 7.567 8 9.5 8C11.433 8 13 9.567 13 11.5C13 13.433 11.433 15 9.5 15C7.567 15 6 13.433 6 11.5Z" fill="#0000CC"/>
</svg>
