<svg width="24" height="24" viewBox="0 0 24 24" fill="none" xmlns="http://www.w3.org/2000/svg">
<path opacity="0.3" fill-rule="evenodd" clip-rule="evenodd" d="M21.9694 9.80498C22 10.1795 22 10.6343 22 11.1614V16.8386C22 17.3657 22 17.8205 21.9694 18.195C21.9371 18.5904 21.8658 18.9836 21.673 19.362C21.3854 19.9265 20.9265 20.3854 20.362 20.673C19.9836 20.8658 19.5904 20.9371 19.195 20.9694C18.8205 21 18.3657 21 17.8386 21H6.16148C5.63433 21 5.17954 21 4.80497 20.9694C4.40963 20.9371 4.01641 20.8658 3.63803 20.673C3.07355 20.3854 2.6146 19.9265 2.32698 19.362C2.13419 18.9836 2.06287 18.5904 2.03057 18.195C1.99997 17.8205 1.99998 17.3657 2 16.8386L2.00027 7L17.8385 7.00001C18.3657 6.99999 18.8205 6.99997 19.195 7.03058C19.5904 7.06288 19.9836 7.13419 20.362 7.32699C20.9265 7.61461 21.3854 8.07355 21.673 8.63804C21.8658 9.01642 21.9371 9.40963 21.9694 9.80498Z" fill="#0000CC"/>
<path d="M14.8362 3H6.15911C5.632 2.99999 5.17717 2.99997 4.80262 3.03057C4.40728 3.06287 4.01406 3.13419 3.63568 3.32698C3.07119 3.6146 2.61225 4.07355 2.32463 4.63803C2.13184 5.01641 2.06052 5.40963 2.02822 5.80498C1.97266 6.48505 1.99792 7 1.99792 7L3.99772 7C3.99816 6.5349 4.00122 6.21699 4.02158 5.96784C4.04377 5.69618 4.08145 5.59546 4.10664 5.54601C4.20252 5.35785 4.3555 5.20487 4.54366 5.109C4.5931 5.0838 4.69382 5.04613 4.96549 5.02393C5.24882 5.00078 5.6211 5 6.19765 5H14.7977C15.3742 5 15.7465 5.00078 16.0298 5.02393C16.3015 5.04613 16.4022 5.08381 16.4516 5.109C16.6398 5.20487 16.7928 5.35785 16.8887 5.54601C16.9139 5.59546 16.9515 5.69618 16.9737 5.96784C16.9941 6.21699 16.9971 6.5349 16.9976 7.00001L17.8362 7.00001C18.275 6.99999 18.6636 6.99998 18.9976 7.01763C18.9974 6.55121 18.9949 6.14504 18.9671 5.80498C18.9348 5.40963 18.8635 5.01641 18.6707 4.63803C18.383 4.07355 17.9241 3.6146 17.3596 3.32698C16.9812 3.13419 16.588 3.06287 16.1927 3.03057C15.8181 2.99997 15.3633 2.99999 14.8362 3Z" fill="#0000CC"/>
<path d="M16 14C16 13.1716 16.6716 12.5 17.5 12.5H20V15.5H17.5C16.6716 15.5 16 14.8284 16 14Z" fill="#0000CC"/>
</svg>
