<svg width="24" height="24" viewBox="0 0 24 24" fill="none" xmlns="http://www.w3.org/2000/svg">
<g opacity="0.3">
<path d="M4.96178 4.72554C4.81006 4.1945 4.25657 3.88701 3.72554 4.03873C3.1945 4.19046 2.88701 4.74394 3.03873 5.27498L4.67445 11H6.75449L4.96178 4.72554Z" fill="#0000CC"/>
<path d="M7.32591 13L8.00026 15.3602L8.6746 13H10.7546L8.96178 19.275C8.83912 19.7043 8.44674 20.0003 8.00026 20.0003C7.55378 20.0003 7.16139 19.7043 7.03873 19.275L5.24588 13H7.32591Z" fill="#0000CC"/>
<path d="M11.3261 11H9.24603L11.0387 4.72554C11.1614 4.29623 11.5538 4.00026 12.0003 4.00026C12.4467 4.00026 12.8391 4.29623 12.9618 4.72554L14.7545 11H12.6745L12.0003 8.64031L11.3261 11Z" fill="#0000CC"/>
<path d="M13.2459 13L15.0387 19.275C15.1614 19.7043 15.5538 20.0003 16.0003 20.0003C16.4467 20.0003 16.8391 19.7043 16.9618 19.275L18.7546 13H16.6746L16.0003 15.3602L15.3259 13H13.2459Z" fill="#0000CC"/>
<path d="M17.246 11H19.3261L20.9618 5.27498C21.1135 4.74394 20.806 4.19046 20.275 4.03873C19.7439 3.88701 19.1905 4.1945 19.0387 4.72554L17.246 11Z" fill="#0000CC"/>
</g>
<path fill-rule="evenodd" clip-rule="evenodd" d="M2 12C2 11.4477 2.44772 11 3 11H21C21.5523 11 22 11.4477 22 12C22 12.5523 21.5523 13 21 13H3C2.44772 13 2 12.5523 2 12Z" fill="#0000CC"/>
</svg>
