<svg width="24" height="24" viewBox="0 0 24 24" fill="none" xmlns="http://www.w3.org/2000/svg">
<g opacity="0.3">
<path d="M7.84813 3.47013C7.55542 3.0018 6.93847 2.85943 6.47013 3.15214C6.0018 3.44485 5.85943 4.0618 6.15214 4.53013L10.1958 11H13.8045L17.8481 4.53013C18.1408 4.0618 17.9985 3.44485 17.5301 3.15214C17.0618 2.85943 16.4448 3.0018 16.1521 3.47013L12.0001 10.1133L7.84813 3.47013Z" fill="#0000CC"/>
<path d="M13.0001 13H11.0001V15H13.0001V13Z" fill="#0000CC"/>
<path d="M13.0001 17H11.0001V20.0001C11.0001 20.5524 11.4478 21.0001 12.0001 21.0001C12.5524 21.0001 13.0001 20.5524 13.0001 20.0001V17Z" fill="#0000CC"/>
</g>
<path fill-rule="evenodd" clip-rule="evenodd" d="M7 12C7 11.4477 7.44772 11 8 11H16C16.5523 11 17 11.4477 17 12C17 12.5523 16.5523 13 16 13H8C7.44772 13 7 12.5523 7 12ZM7 16C7 15.4477 7.44772 15 8 15H16C16.5523 15 17 15.4477 17 16C17 16.5523 16.5523 17 16 17H8C7.44772 17 7 16.5523 7 16Z" fill="#0000CC"/>
</svg>
