<svg width="24" height="24" viewBox="0 0 24 24" fill="none" xmlns="http://www.w3.org/2000/svg">
<path d="M11.835 7.83521V12.8352M11.835 15.8352H11.845M4.96401 6.69584L3.34246 10.6106C3.15525 11.0626 3.06165 11.2885 3.02462 11.5223C2.99179 11.7296 2.99179 11.9408 3.02462 12.1481C3.06165 12.3819 3.15525 12.6079 3.34246 13.0598L4.96401 16.9746C5.15122 17.4265 5.24482 17.6525 5.38395 17.844C5.50731 18.0138 5.65663 18.1631 5.82642 18.2865C6.01792 18.4256 6.2439 18.5192 6.69584 18.7064L10.6106 20.328C11.0626 20.5152 11.2885 20.6088 11.5223 20.6458C11.7296 20.6786 11.9408 20.6786 12.1481 20.6458C12.3819 20.6088 12.6079 20.5152 13.0598 20.328L16.9746 18.7064C17.4265 18.5192 17.6525 18.4256 17.844 18.2865C18.0138 18.1631 18.1631 18.0138 18.2865 17.844C18.4256 17.6525 18.5192 17.4265 18.7064 16.9746L20.328 13.0598C20.5152 12.6079 20.6088 12.3819 20.6458 12.1481C20.6786 11.9408 20.6786 11.7296 20.6458 11.5223C20.6088 11.2885 20.5152 11.0626 20.328 10.6106L18.7064 6.69584C18.5192 6.2439 18.4256 6.01792 18.2865 5.82642C18.1631 5.65663 18.0138 5.50731 17.844 5.38395C17.6525 5.24482 17.4265 5.15122 16.9746 4.96401L13.0598 3.34246C12.6079 3.15525 12.3819 3.06165 12.1481 3.02462C11.9408 2.99179 11.7296 2.99179 11.5223 3.02462C11.2885 3.06165 11.0626 3.15525 10.6106 3.34246L6.69584 4.96401C6.2439 5.15122 6.01792 5.24482 5.82642 5.38395C5.65663 5.50731 5.50731 5.65663 5.38395 5.82642C5.24482 6.01792 5.15122 6.2439 4.96401 6.69584Z" stroke="#0000CC" stroke-width="2" stroke-linecap="round" stroke-linejoin="round"/>
</svg>
