<svg width="24" height="24" viewBox="0 0 24 24" fill="none" xmlns="http://www.w3.org/2000/svg">
<path d="M20.0002 18.9996C20.0149 17.4044 19.2776 16.6658 18.5325 16.4236C17.8764 16.2103 16.5326 16.4052 15.5373 15.896C14.5856 15.4091 14.0483 14.1203 14.003 12.6571M15.9996 20L15.9995 20.01M7.64997 19L7.64988 19.01M19.6602 7L19.6601 7.01M12.5001 19C12.5001 17.5 12.0001 16.5 11.0648 15.5949M16.422 10.2377C17.5001 11 18.5001 11.5 20.0826 11.0082M14.728 6.24271C13.6028 5.11749 12.0767 4.48535 10.4854 4.48535C8.89405 4.48535 7.36793 5.11749 6.24271 6.24271C5.11749 7.36793 4.48535 8.89405 4.48535 10.4854C4.48535 12.0766 5.11749 13.6028 6.24271 14.728L14.728 6.24271Z" stroke="#0000CC" stroke-width="2" stroke-linecap="round" stroke-linejoin="round"/>
</svg>
