<svg width="24" height="24" viewBox="0 0 24 24" fill="none" xmlns="http://www.w3.org/2000/svg">
<path d="M11.9998 7.99985V12.9998M11.9998 15.9999H12.0098M19.4685 14.5312L20.8685 13.1312C21.2645 12.7352 21.4625 12.5372 21.5367 12.3089C21.6019 12.108 21.6019 11.8917 21.5367 11.6908C21.4625 11.4625 21.2645 11.2645 20.8685 10.8685L19.4685 9.46848C19.2955 9.29553 19.2091 9.20905 19.1472 9.10813C19.0924 9.01866 19.052 8.92112 19.0275 8.81908C18.9998 8.70399 18.9998 8.5817 18.9998 8.33711V6.59985C18.9998 6.0398 18.9998 5.75977 18.8909 5.54586C18.795 5.3577 18.642 5.20472 18.4538 5.10884C18.2399 4.99985 17.9599 4.99985 17.3998 4.99985H15.6626C15.418 4.99985 15.2957 4.99985 15.1806 4.97222C15.0786 4.94772 14.981 4.90732 14.8916 4.85249C14.7906 4.79065 14.7042 4.70417 14.5312 4.53122L13.1312 3.13122C12.7352 2.7352 12.5372 2.53719 12.3089 2.46301C12.108 2.39775 11.8917 2.39775 11.6908 2.46301C11.4625 2.53719 11.2645 2.7352 10.8685 3.13122L9.46848 4.53122C9.29553 4.70417 9.20905 4.79065 9.10813 4.85249C9.01866 4.90732 8.92112 4.94772 8.81908 4.97222C8.70399 4.99985 8.5817 4.99985 8.33711 4.99985H6.59985C6.0398 4.99985 5.75977 4.99985 5.54586 5.10884C5.3577 5.20472 5.20472 5.3577 5.10884 5.54586C4.99985 5.75977 4.99985 6.0398 4.99985 6.59985V8.33711C4.99985 8.5817 4.99985 8.70399 4.97222 8.81908C4.94772 8.92112 4.90732 9.01866 4.85249 9.10813C4.79065 9.20905 4.70417 9.29553 4.53122 9.46848L3.13122 10.8685C2.7352 11.2645 2.53719 11.4625 2.46301 11.6908C2.39775 11.8917 2.39775 12.108 2.46301 12.3089C2.53719 12.5372 2.7352 12.7352 3.13122 13.1312L4.53122 14.5312C4.70417 14.7042 4.79065 14.7906 4.85249 14.8916C4.90732 14.981 4.94772 15.0786 4.97222 15.1806C4.99985 15.2957 4.99985 15.418 4.99985 15.6626V17.3998C4.99985 17.9599 4.99985 18.2399 5.10884 18.4538C5.20472 18.642 5.3577 18.795 5.54586 18.8909C5.75977 18.9998 6.0398 18.9998 6.59985 18.9998H8.33711C8.5817 18.9998 8.70399 18.9998 8.81908 19.0275C8.92112 19.052 9.01866 19.0924 9.10813 19.1472C9.20905 19.2091 9.29553 19.2955 9.46848 19.4685L10.8685 20.8685C11.2645 21.2645 11.4625 21.4625 11.6908 21.5367C11.8917 21.6019 12.108 21.6019 12.3089 21.5367C12.5372 21.4625 12.7352 21.2645 13.1312 20.8685L14.5312 19.4685C14.7042 19.2955 14.7906 19.2091 14.8916 19.1472C14.981 19.0924 15.0786 19.052 15.1806 19.0275C15.2957 18.9998 15.418 18.9998 15.6626 18.9998H17.3998C17.9599 18.9998 18.2399 18.9998 18.4538 18.8909C18.642 18.795 18.795 18.642 18.8909 18.4538C18.9998 18.2399 18.9998 17.9599 18.9998 17.3998V15.6626C18.9998 15.418 18.9998 15.2957 19.0275 15.1806C19.052 15.0786 19.0924 14.981 19.1472 14.8916C19.2091 14.7906 19.2955 14.7042 19.4685 14.5312Z" stroke="#0000CC" stroke-width="2" stroke-linecap="round" stroke-linejoin="round"/>
</svg>
