<svg width="24" height="24" viewBox="0 0 24 24" fill="none" xmlns="http://www.w3.org/2000/svg">
<path opacity="0.3" d="M16.2071 7.79292C13.5269 5.11267 8.99942 5.9028 7.38545 9.33247L2.09521 20.5742C1.91566 20.9558 1.99475 21.409 2.29292 21.7071C2.5911 22.0053 3.04428 22.0844 3.42583 21.9049L14.6676 16.6146C18.0973 15.0006 18.8874 10.4732 16.2071 7.79292Z" fill="#0000CC"/>
<path d="M15.9566 2.001C16.2371 1.98846 16.5099 2.09438 16.7084 2.29289L17.1417 2.72617C17.7711 3.35562 18.2748 4.09936 18.6255 4.91751L18.7631 5.23842L19.0834 5.37572C19.9018 5.72651 20.6457 6.23021 21.2753 6.85981L21.7084 7.29289C21.9071 7.4916 22.0131 7.76474 22.0003 8.04546C21.9875 8.32618 21.8572 8.58857 21.6413 8.7684L20.7878 9.47925C19.02 10.9516 16.4208 10.8344 14.7935 9.20711C13.1646 7.57817 13.0483 4.97475 14.5253 3.20698L15.2339 2.35884C15.4139 2.1434 15.6762 2.01354 15.9566 2.001Z" fill="#0000CC"/>
<path d="M8.77971 12.1953L6.92383 10.3141L7.38576 9.33249C7.53384 9.01783 7.70643 8.72539 7.89988 8.45581L10.2171 10.8047C10.6011 11.2016 10.5907 11.8347 10.1937 12.2187C9.7968 12.6027 9.16372 12.5922 8.77971 12.1953Z" fill="#0000CC"/>
<path d="M9.19876 15.7862L11.5241 18.0941L9.59815 19.0004L7.79809 17.2138C7.40386 16.827 7.39782 16.1939 7.78461 15.7997C8.17139 15.4054 8.80453 15.3994 9.19876 15.7862Z" fill="#0000CC"/>
</svg>
