<svg width="24" height="24" viewBox="0 0 24 24" fill="none" xmlns="http://www.w3.org/2000/svg">
<path opacity="0.3" d="M12 3C9.39314 3 6.98362 3.52619 5.18883 4.42359C3.45384 5.29108 2 6.67453 2 8.5C2 10.3255 3.45384 11.7089 5.18883 12.5764C6.98362 13.4738 9.39314 14 12 14C14.6069 14 17.0164 13.4738 18.8112 12.5764C20.5462 11.7089 22 10.3255 22 8.5C22 6.67453 20.5462 5.29108 18.8112 4.42359C17.0164 3.52619 14.6069 3 12 3Z" fill="#0000CC"/>
<path d="M7.00041 7.5C6.44813 7.5 6.00041 7.94772 6.00041 8.5C6.00041 9.05228 6.44813 9.5 7.00041 9.5H8.00041C8.55269 9.5 9.00041 9.05228 9.00041 8.5C9.00041 7.94772 8.55269 7.5 8.00041 7.5H7.00041Z" fill="#0000CC"/>
<path d="M12.7075 7.79292C12.317 7.40238 11.6839 7.40236 11.2933 7.79287C10.9028 8.18338 10.9028 8.81654 11.2933 9.20708L11.2996 9.21344C11.6902 9.60398 12.3233 9.60401 12.7139 9.2135C13.1044 8.82299 13.1044 8.18982 12.7139 7.79928L12.7075 7.79292Z" fill="#0000CC"/>
<path d="M16.0004 7.5C15.4481 7.5 15.0004 7.94772 15.0004 8.5C15.0004 9.05228 15.4481 9.5 16.0004 9.5H17.0004C17.5527 9.5 18.0004 9.05228 18.0004 8.5C18.0004 7.94772 17.5527 7.5 17.0004 7.5H16.0004Z" fill="#0000CC"/>
<path d="M10.3157 20.9743C5.66482 20.6247 2 16.7403 2 12V11.3212C2.72115 12.2559 3.74011 12.9701 4.74161 13.4708C6.70253 14.4513 9.27155 15 12 15C14.7284 15 17.2975 14.4513 19.2584 13.4708C20.2599 12.9701 21.2789 12.2559 22 11.3212V12C22 12.0563 21.9995 12.1126 21.9984 12.1687C21.9087 17.0616 17.9147 21 13.0004 21H11.0004C10.8543 21 10.709 20.9965 10.5646 20.9896C10.4814 20.9857 10.3984 20.9806 10.3157 20.9743Z" fill="#0000CC"/>
</svg>
