<svg width="24" height="24" viewBox="0 0 24 24" fill="none" xmlns="http://www.w3.org/2000/svg">
<path opacity="0.3" d="M21.6316 4.26487C22.0225 3.09223 20.9069 1.97662 19.7342 2.3675L17.8695 2.98909L12.1883 2.61035C6.7551 2.24814 2.24731 6.75593 2.60952 12.1891L2.98827 17.8703L2.36668 19.735C1.9758 20.9077 3.09141 22.0233 4.26405 21.6324L6.12881 21.0108L11.81 21.3896C17.2432 21.7518 21.751 17.244 21.3887 11.8108L21.01 6.12964L21.6316 4.26487Z" fill="#0000CC"/>
<path fill-rule="evenodd" clip-rule="evenodd" d="M6.50405 12.5905C6.1873 9.10628 9.10625 6.18733 12.5905 6.50408C13.1405 6.55408 13.5458 7.04049 13.4958 7.59051C13.4458 8.14052 12.9594 8.54587 12.4094 8.49586C10.169 8.2922 8.29216 10.1691 8.49583 12.4094C8.54584 12.9595 8.14049 13.4459 7.59048 13.4959C7.04046 13.5459 6.55405 13.1405 6.50405 12.5905Z" fill="#0000CC"/>
</svg>
