<svg width="24" height="24" viewBox="0 0 24 24" fill="none" xmlns="http://www.w3.org/2000/svg">
<g opacity="0.3">
<path d="M2 12C2 6.47715 6.47715 2 12 2C13.9067 2 15.6887 2.53361 17.2049 3.45963C16.3192 3.41654 15.397 3.56413 14.5053 3.82046C12.4658 4.40674 10.211 5.66941 8.14413 7.40373C6.07724 9.13806 4.44222 11.1393 3.51068 13.0461C3.10261 13.8813 2.79674 14.7656 2.68591 15.6471C2.24311 14.5171 2 13.287 2 12Z" fill="#0000CC"/>
<path d="M6.79495 20.5403C8.31119 21.4664 10.0933 22 12 22C17.5228 22 22 17.5228 22 12C22 10.7143 21.7574 9.48526 21.3154 8.35619C21.2042 9.23657 20.8986 10.1197 20.491 10.9539C19.5595 12.8607 17.9245 14.8619 15.8576 16.5963C13.7907 18.3306 11.5359 19.5933 9.49639 20.1795C8.60404 20.436 7.68126 20.5837 6.79495 20.5403Z" fill="#0000CC"/>
</g>
<path fill-rule="evenodd" clip-rule="evenodd" d="M17.4644 4.48309C18.2982 4.57689 19.0971 4.89979 19.6612 5.57213C20.2254 6.24446 20.4046 7.08722 20.3522 7.92472C20.3003 8.75512 20.0203 9.63919 19.5924 10.515C18.7355 12.2691 17.2001 14.1643 15.2147 15.8302C13.2293 17.4961 11.0963 18.6791 9.22004 19.2185C8.28324 19.4877 7.36399 19.6099 6.53718 19.5169C5.7033 19.4231 4.90448 19.1002 4.34032 18.4279C3.77617 17.7555 3.59689 16.9128 3.64931 16.0753C3.70128 15.2449 3.98124 14.3608 4.40911 13.485C5.26605 11.7309 6.80147 9.8357 8.78683 8.16978C10.7722 6.50386 12.9053 5.32088 14.7815 4.78154C15.7183 4.51226 16.6375 4.39007 17.4644 4.48309Z" fill="#0000CC"/>
</svg>
