<svg width="24" height="24" viewBox="0 0 24 24" fill="none" xmlns="http://www.w3.org/2000/svg">
<path opacity="0.3" d="M18.4273 4.3395C14.5373 1.0754 8.58173 2.07142 5.10498 6.21485C1.62822 10.3583 1.6815 16.3963 5.5715 19.6604C9.4615 22.9245 15.417 21.9285 18.8938 17.785C22.3705 13.6416 22.3173 7.6036 18.4273 4.3395Z" fill="#0000CC"/>
<path d="M16.4989 6.63769C15.7342 5.99598 14.8349 5.59122 13.9645 5.49497C13.1024 5.39964 12.1432 5.60577 11.5064 6.36467C10.8696 7.12356 10.8332 8.104 11.0768 8.93644C11.3227 9.77695 11.8775 10.5922 12.6422 11.234C13.407 11.8757 14.3062 12.2804 15.1767 12.3767C16.0387 12.472 16.998 12.2659 17.6348 11.507C18.2715 10.7481 18.308 9.76764 18.0644 8.93519C17.8185 8.09469 17.2637 7.27939 16.4989 6.63769Z" fill="#0000CC"/>
</svg>
