<svg width="24" height="24" viewBox="0 0 24 24" fill="none" xmlns="http://www.w3.org/2000/svg">
<path opacity="0.3" d="M8.36364 6C4.67028 6 2 9.55177 2 13.5C2 17.4482 4.67028 21 8.36364 21C8.99656 21 9.60719 20.8914 10.1818 20.6909C10.7565 20.8914 11.3671 21 12 21C12.6329 21 13.2436 20.8914 13.8182 20.6909C14.3928 20.8914 15.0034 21 15.6364 21C19.3297 21 22 17.4482 22 13.5C22 9.55177 19.3297 6 15.6364 6C15.0034 6 14.3928 6.10859 13.8182 6.3091C13.2436 6.10859 12.6329 6 12 6C11.3671 6 10.7565 6.10859 10.1818 6.3091C9.60719 6.10859 8.99656 6 8.36364 6Z" fill="#0000CC"/>
<path d="M14 6.42578V4.30278C14 3.58327 13.4167 3 12.6972 3C12.2616 3 11.8549 3.2177 11.6132 3.58013L9.99219 6.43359C10.7361 6.27295 11.108 6.19263 11.4805 6.15969C11.8263 6.12912 12.1741 6.12861 12.5199 6.15817C12.8926 6.19002 13.2617 6.2686 14 6.42578Z" fill="#0000CC"/>
</svg>
