<svg width="24" height="24" viewBox="0 0 24 24" fill="none" xmlns="http://www.w3.org/2000/svg">
<g opacity="0.3">
<path d="M9.92912 2C5.898 2 2.56476 4.98056 2.01008 8.8584C1.96903 9.1454 2.05456 9.43609 2.24449 9.65513C2.43443 9.87417 2.71008 10 3.00001 10H12C12.5523 10 13 9.55228 13 9C13 8.61088 13.0973 7.82442 13.3286 6.94074C13.5602 6.05628 13.8984 5.18248 14.3227 4.56856C14.4796 4.34146 14.5357 4.05959 14.4776 3.78971C14.4196 3.51983 14.2526 3.28595 14.0161 3.14347C12.816 2.42035 11.4411 2 9.92912 2Z" fill="#0000CC"/>
<path d="M17.9291 4C15.72 4 13.9291 5.79086 13.9291 8C13.9291 8.46573 14.0091 8.91492 14.157 9.33325C14.2982 9.73284 14.676 10 15.0998 10H20.7584C21.1822 10 21.56 9.73284 21.7013 9.33325C21.8491 8.91492 21.9291 8.46573 21.9291 8C21.9291 5.79086 20.1383 4 17.9291 4Z" fill="#0000CC"/>
</g>
<path d="M3 11C2.44772 11 2 11.4477 2 12V12.7577C2 15.2035 3.32598 17.4368 5.42857 18.6178V19C5.42857 20.1046 6.324 21 7.42857 21H16.5714C17.676 21 18.5714 20.1046 18.5714 19V18.6178C20.674 17.4368 22 15.2035 22 12.7577V12C22 11.4477 21.5523 11 21 11H3Z" fill="#0000CC"/>
<path fill-rule="evenodd" clip-rule="evenodd" d="M12 5C12.5523 5 13 5.44772 13 6V9C13 9.55228 12.5523 10 12 10C11.4477 10 11 9.55228 11 9V6C11 5.44772 11.4477 5 12 5ZM7.29289 7.29289C7.68342 6.90237 8.31658 6.90237 8.70711 7.29289L9.70711 8.29289C10.0976 8.68342 10.0976 9.31658 9.70711 9.70711C9.31658 10.0976 8.68342 10.0976 8.29289 9.70711L7.29289 8.70711C6.90237 8.31658 6.90237 7.68342 7.29289 7.29289Z" fill="#0000CC"/>
</svg>
