<svg width="24" height="24" viewBox="0 0 24 24" fill="none" xmlns="http://www.w3.org/2000/svg">
<path d="M9.66997 5.67124C7.63863 4.49844 5.13986 4.48181 3.09309 5.62746L2.85142 5.76273C2.53135 5.94189 2.33505 6.28189 2.33993 6.64865L2.34362 6.92558C2.37484 9.27096 3.63863 11.4266 5.66997 12.5994C7.30283 13.5422 9.23772 13.7378 10.9971 13.1833L11 21.0004C11.0002 21.5527 11.4481 22.0003 12.0004 22.0001C12.5527 21.9999 13.0002 21.552 13 20.9997L12.9965 11.7197C12.9993 11.6874 13.0004 11.6548 13 11.622L12.9963 11.3451C12.9651 8.99972 11.7013 6.84403 9.66997 5.67124Z" fill="#0000CC"/>
<path opacity="0.3" d="M19.7721 2.44549C17.5575 1.67266 15.0996 2.12295 13.3028 3.63066C11.5059 5.13838 10.6357 7.48077 11.0122 9.79594L11.0567 10.0693C11.1155 10.4313 11.3679 10.7321 11.7142 10.8529L11.9757 10.9442C14.1903 11.717 16.6482 11.2667 18.4451 9.75902C20.2419 8.25131 21.1121 5.90891 20.7356 3.59375L20.6912 3.32038C20.6323 2.95834 20.3799 2.65759 20.0336 2.53674L19.7721 2.44549Z" fill="#0000CC"/>
</svg>
