<svg width="24" height="24" viewBox="0 0 24 24" fill="none" xmlns="http://www.w3.org/2000/svg">
<path opacity="0.3" d="M16.4211 5.31505C16.0305 4.92452 15.3974 4.92452 15.0068 5.31505L5.10735 15.2145C4.71682 15.6051 4.71682 16.2382 5.10735 16.6288C8.53042 20.0518 13.9182 20.5458 17.1282 17.3359C20.3381 14.1259 19.8441 8.73812 16.4211 5.31505Z" fill="#0000CC"/>
<path fill-rule="evenodd" clip-rule="evenodd" d="M13.8866 9.85045C14.2772 9.45993 14.9103 9.45993 15.3009 9.85045L16.008 10.5576C16.3985 10.9481 16.3985 11.5812 16.008 11.9718C15.6174 12.3623 14.9843 12.3623 14.5938 11.9718L13.8866 11.2647C13.4961 10.8741 13.4961 10.241 13.8866 9.85045ZM11.7655 11.9718C12.1561 11.5813 12.7892 11.5813 13.1798 11.9718L13.8869 12.6789C14.2774 13.0694 14.2774 13.7026 13.8869 14.0931C13.4963 14.4836 12.8632 14.4836 12.4727 14.0931L11.7655 13.386C11.375 12.9955 11.375 12.3623 11.7655 11.9718ZM9.64446 14.0931C10.035 13.7026 10.6681 13.7026 11.0587 14.0931L11.7658 14.8002C12.1563 15.1908 12.1563 15.8239 11.7658 16.2144C11.3753 16.605 10.7421 16.605 10.3516 16.2144L9.64446 15.5073C9.25393 15.1168 9.25393 14.4836 9.64446 14.0931Z" fill="#0000CC"/>
<path d="M18.5426 2.89366C18.1521 2.50314 17.5189 2.50314 17.1284 2.89366C16.7379 3.28419 16.7379 3.91735 17.1284 4.30788C21.0986 8.27805 21.2883 14.2901 17.8355 17.7429C14.3827 21.1957 8.37064 21.006 4.40047 17.0358C4.00994 16.6453 3.37678 16.6453 2.98625 17.0358C2.59573 17.4263 2.59573 18.0595 2.98625 18.45C7.60762 23.0714 14.892 23.5148 19.2497 19.1571C23.6074 14.7994 23.164 7.51503 18.5426 2.89366Z" fill="#0000CC"/>
</svg>
