<svg width="24" height="24" viewBox="0 0 24 24" fill="none" xmlns="http://www.w3.org/2000/svg">
<path opacity="0.14" d="M8 3C6.89543 3 6 3.89543 6 5V10.2676C6.29417 10.0974 6.63571 10 7 10C8.10457 10 9 10.8954 9 12C9 13.1046 8.10457 14 7 14C6.63571 14 6.29417 13.9026 6 13.7324V14C6 15.1046 6.89543 16 8 16H19C20.1046 16 21 15.1046 21 14V5C21 3.89543 20.1046 3 19 3H8Z" fill="#0000CC"/>
<path d="M6 6.5V6.2C6 5.0799 6 4.51984 6.21799 4.09202C6.40973 3.71569 6.71569 3.40973 7.09202 3.21799C7.51984 3 8.07989 3 9.2 3H17.8C18.9201 3 19.4802 3 19.908 3.21799C20.2843 3.40973 20.5903 3.71569 20.782 4.09202C21 4.51984 21 5.0799 21 6.2V12.8C21 13.9201 21 14.4802 20.782 14.908C20.5903 15.2843 20.2843 15.5903 19.908 15.782C19.4802 16 18.9201 16 17.8 16H14M18 6L13 11L10 8M18 6V9M18 6H15M9 12C9 13.1046 8.10457 14 7 14C5.89543 14 5 13.1046 5 12C5 10.8954 5.89543 10 7 10C8.10457 10 9 10.8954 9 12ZM7 17C7.92997 17 8.39496 17 8.77646 17.1022C9.81173 17.3796 10.6204 18.1883 10.8978 19.2235C11 19.605 11 20.07 11 21H3C3 20.07 3 19.605 3.10222 19.2235C3.37962 18.1883 4.18827 17.3796 5.22354 17.1022C5.60504 17 6.07003 17 7 17Z" stroke="#0000CC" stroke-width="2" stroke-linecap="round" stroke-linejoin="round"/>
</svg>
