<svg width="24" height="24" viewBox="0 0 24 24" fill="none" xmlns="http://www.w3.org/2000/svg">
<path opacity="0.14" d="M10.4704 8.26277C10.8778 7.82407 11.0814 7.60472 11.3198 7.52335C11.5292 7.45185 11.7565 7.45185 11.9659 7.52335C12.2043 7.60472 12.408 7.82407 12.8153 8.26277L14.4286 10.0001C14.6091 10.1946 14.6994 10.2918 14.7903 10.3543C15.1317 10.5892 15.5826 10.5892 15.924 10.3543C16.0149 10.2918 16.1052 10.1946 16.2857 10.0001C16.4663 9.80567 16.5566 9.70844 16.6474 9.64592C16.9888 9.411 17.4397 9.411 17.7812 9.64592C17.872 9.70844 17.9623 9.80567 18.1429 10.0001L19.5725 11.5397C19.7305 11.7099 19.8095 11.795 19.8659 11.8926C19.9159 11.9791 19.9526 12.0727 19.9749 12.1702C20 12.2801 20 12.3962 20 12.6284V15.4001C20 15.9602 20 16.2402 19.891 16.4541C19.7951 16.6423 19.6422 16.7952 19.454 16.8911C19.2401 17.0001 18.9601 17.0001 18.4 17.0001H8.6C8.03995 17.0001 7.75992 17.0001 7.54601 16.8911C7.35785 16.7952 7.20487 16.6423 7.10899 16.4541C7 16.2402 7 15.9602 7 15.4001V12.6284C7 12.3962 7 12.2801 7.0251 12.1702C7.04735 12.0727 7.0841 11.9791 7.13411 11.8926C7.1905 11.795 7.26951 11.7099 7.42753 11.5397L10.4704 8.26277Z" fill="#0000CC"/>
<path d="M21 21H7.8C6.11984 21 5.27976 21 4.63803 20.673C4.07354 20.3854 3.6146 19.9265 3.32698 19.362C3 18.7202 3 17.8802 3 16.2V3M14.4286 10L12.8153 8.26266C12.408 7.82396 12.2043 7.6046 11.9659 7.52324C11.7565 7.45174 11.5292 7.45174 11.3198 7.52324C11.0814 7.6046 10.8778 7.82396 10.4704 8.26266L7.42753 11.5396C7.26951 11.7098 7.1905 11.7948 7.13411 11.8925C7.0841 11.979 7.04735 12.0726 7.0251 12.1701C7 12.28 7 12.3961 7 12.6283V15.4C7 15.9601 7 16.2401 7.10899 16.454C7.20487 16.6422 7.35785 16.7951 7.54601 16.891C7.75992 17 8.03995 17 8.6 17H18.4C18.9601 17 19.2401 17 19.454 16.891C19.6422 16.7951 19.7951 16.6422 19.891 16.454C20 16.2401 20 15.9601 20 15.4V12.6283C20 12.3961 20 12.28 19.9749 12.1701C19.9526 12.0726 19.9159 11.979 19.8659 11.8925C19.8095 11.7948 19.7305 11.7098 19.5725 11.5396L18.1429 10C17.9623 9.80555 17.872 9.70833 17.7812 9.6458C17.4397 9.41088 16.9888 9.41088 16.6474 9.6458C16.5566 9.70833 16.4663 9.80555 16.2857 10C16.1052 10.1944 16.0149 10.2917 15.924 10.3542C15.5826 10.5891 15.1317 10.5891 14.7903 10.3542C14.6994 10.2917 14.6091 10.1944 14.4286 10Z" stroke="#0000CC" stroke-width="2" stroke-linecap="round" stroke-linejoin="round"/>
</svg>
