<svg width="24" height="24" viewBox="0 0 24 24" fill="none" xmlns="http://www.w3.org/2000/svg">
<path fill-rule="evenodd" clip-rule="evenodd" d="M7 6C7 3.79086 8.79086 2 11 2H13C15.2091 2 17 3.79086 17 6C17 6 17.5169 5.98415 18.2518 6.04419C18.8139 6.09012 19.3306 6.18868 19.816 6.43597C20.5686 6.81947 21.1805 7.43139 21.564 8.18404C21.8113 8.66937 21.9099 9.18608 21.9558 9.74817C22 10.2894 22 10.9537 22 11.7587V16.2413C22 17.0463 22 17.7106 21.9558 18.2518C21.9099 18.8139 21.8113 19.3306 21.564 19.816C21.1805 20.5686 20.5686 21.1805 19.816 21.564C19.3306 21.8113 18.8139 21.9099 18.2518 21.9558C17.7106 22 17.0463 22 16.2413 22H7.75868C6.95372 22 6.28937 22 5.74818 21.9558C5.18608 21.9099 4.66938 21.8113 4.18404 21.564C3.43139 21.1805 2.81947 20.5686 2.43598 19.816C2.18869 19.3306 2.09012 18.8139 2.0442 18.2518C1.99998 17.7106 1.99999 17.0463 2 16.2413V11.7587C1.99999 10.9537 1.99998 10.2894 2.0442 9.74817C2.09012 9.18608 2.18869 8.66937 2.43598 8.18404C2.81947 7.43139 3.43139 6.81947 4.18404 6.43597C4.66938 6.18868 5.18608 6.09012 5.74818 6.04419C6.48309 5.98415 7 6 7 6ZM9 6H15C15 4.89543 14.1046 4 13 4H11C9.89543 4 9 4.89543 9 6ZM12 17C11.4477 17 11 16.5523 11 16V15H10C9.44772 15 9 14.5523 9 14C9 13.4477 9.44772 13 10 13H11V12C11 11.4477 11.4477 11 12 11C12.5523 11 13 11.4477 13 12V13H14C14.5523 13 15 13.4477 15 14C15 14.5523 14.5523 15 14 15H13V16C13 16.5523 12.5523 17 12 17Z" fill="#0000CC"/>
</svg>
