<svg width="24" height="24" viewBox="0 0 24 24" fill="none" xmlns="http://www.w3.org/2000/svg">
<path d="M9.78361 9.9783C9.51597 10.2715 9.30574 10.6181 9.17071 11.0001H7.11141C7.34145 9.98264 7.91638 9.07536 8.72985 8.39767L9.78361 9.9783Z" fill="#0000CC"/>
<path d="M14.8293 11.0001C14.6943 10.6181 14.484 10.2715 14.2164 9.9783L15.2702 8.39761C16.0836 9.07522 16.6586 9.98253 16.8886 11.0001H14.8293Z" fill="#0000CC"/>
<path d="M10.4224 16.6694L11.5569 14.9676C11.7015 14.989 11.8494 15.0001 12 15.0001C12.1506 15.0001 12.2985 14.989 12.4431 14.9676L13.5776 16.6692C13.0791 16.8854 12.5483 17.0001 11.9998 17.0001C11.4515 17.0001 10.9208 16.8855 10.4224 16.6694Z" fill="#0000CC"/>
<path d="M11 12.0001C11 11.4478 11.4477 11.0001 12 11.0001C12.5523 11.0001 13 11.4478 13 12.0001C13 12.5524 12.5523 13.0001 12 13.0001C11.4477 13.0001 11 12.5524 11 12.0001Z" fill="#0000CC"/>
<path fill-rule="evenodd" clip-rule="evenodd" d="M12 22C17.5228 22 22 17.5228 22 12C22 6.47715 17.5228 2 12 2C6.47715 2 2 6.47715 2 12C2 17.5228 6.47715 22 12 22ZM9.83205 6.44541C9.54117 6.00909 8.96264 5.87158 8.50653 6.13035C6.42662 7.3104 5 9.48369 5 12.0001C5 12.5524 5.44772 13.0001 6 13.0001H9.17071C9.30574 13.3822 9.51598 13.7287 9.78363 14.0219L8.16793 16.4457C7.86997 16.8927 7.97838 17.4952 8.41345 17.8103C9.44495 18.5573 10.6737 19.0001 11.9998 19.0001C13.3262 19.0001 14.555 18.5572 15.5866 17.81C16.0216 17.4949 16.13 16.8924 15.8321 16.4454L14.2164 14.0219C14.484 13.7287 14.6943 13.3822 14.8293 13.0001H18C18.5523 13.0001 19 12.5524 19 12.0001C19 9.48357 17.5734 7.31013 15.4934 6.1303C15.0373 5.87159 14.4588 6.00912 14.1679 6.44541L12.4431 9.03262C12.2985 9.0112 12.1506 9.00011 12 9.00011C11.8494 9.00011 11.7015 9.0112 11.5569 9.03262L9.83205 6.44541Z" fill="#0000CC"/>
</svg>
