<svg width="24" height="24" viewBox="0 0 24 24" fill="none" xmlns="http://www.w3.org/2000/svg">
<path d="M13 7C13 6.44772 12.5523 6 12 6C11.4477 6 11 6.44772 11 7V8H10C9.44772 8 9 8.44772 9 9C9 9.55228 9.44772 10 10 10H11V11C11 11.5523 11.4477 12 12 12C12.5523 12 13 11.5523 13 11V10H14C14.5523 10 15 9.55228 15 9C15 8.44772 14.5523 8 14 8H13V7Z" fill="#0000CC"/>
<path fill-rule="evenodd" clip-rule="evenodd" d="M5 2C3.34315 2 2 3.34315 2 5V15C2 16.6569 3.34315 18 5 18H11V20H8C7.44772 20 7 20.4477 7 21C7 21.5523 7.44772 22 8 22H16C16.5523 22 17 21.5523 17 21C17 20.4477 16.5523 20 16 20H13V18H19C20.6569 18 22 16.6569 22 15V5C22 3.34315 20.6569 2 19 2H5ZM5 4C4.44772 4 4 4.44772 4 5V14H20V5C20 4.44772 19.5523 4 19 4H5Z" fill="#0000CC"/>
</svg>
