<svg width="24" height="24" viewBox="0 0 24 24" fill="none" xmlns="http://www.w3.org/2000/svg">
<path d="M5.10899 3.54601C5 3.75992 5 4.03995 5 4.6V6.4C5 6.96005 5 7.24008 5.10899 7.45399C5.20487 7.64215 5.35785 7.79513 5.54601 7.89101C5.75992 8 6.03995 8 6.6 8H17.4C17.9601 8 18.2401 8 18.454 7.89101C18.6422 7.79513 18.7951 7.64215 18.891 7.45399C19 7.24008 19 6.96005 19 6.4V4.6C19 4.03995 19 3.75992 18.891 3.54601C18.7951 3.35785 18.6422 3.20487 18.454 3.10899C18.2401 3 17.9601 3 17.4 3H6.6C6.03995 3 5.75992 3 5.54601 3.10899C5.35785 3.20487 5.20487 3.35785 5.10899 3.54601Z" fill="#0000CC"/>
<path d="M6 9H18V16.2C18 17.8802 18 18.7202 17.673 19.362C17.3854 19.9265 16.9265 20.3854 16.362 20.673C15.7202 21 14.8802 21 13.2 21H10.8C9.11984 21 8.27976 21 7.63803 20.673C7.07354 20.3854 6.6146 19.9265 6.32698 19.362C6.14546 19.0057 6.06471 18.5883 6.02878 18H10C10.5523 18 11 17.5523 11 17C11 16.4477 10.5523 16 10 16H6V15H10C10.5523 15 11 14.5523 11 14C11 13.4477 10.5523 13 10 13H6V12H10C10.5523 12 11 11.5523 11 11C11 10.4477 10.5523 10 10 10H6V9Z" fill="#0000CC"/>
</svg>
