<svg width="24" height="24" viewBox="0 0 24 24" fill="none" xmlns="http://www.w3.org/2000/svg">
<path fill-rule="evenodd" clip-rule="evenodd" d="M3.32698 4.63803C3 5.27976 3 6.11984 3 7.8V16.2C3 17.8802 3 18.7202 3.32698 19.362C3.6146 19.9265 4.07354 20.3854 4.63803 20.673C5.27976 21 6.11984 21 7.8 21H16.2C17.8802 21 18.7202 21 19.362 20.673C19.9265 20.3854 20.3854 19.9265 20.673 19.362C21 18.7202 21 17.8802 21 16.2V7.8C21 6.11984 21 5.27976 20.673 4.63803C20.3854 4.07354 19.9265 3.6146 19.362 3.32698C18.7202 3 17.8802 3 16.2 3H7.8C6.11984 3 5.27976 3 4.63803 3.32698C4.07354 3.6146 3.6146 4.07354 3.32698 4.63803ZM10 8C10 7.44772 9.55228 7 9 7C8.44772 7 8 7.44772 8 8V16C8 16.5523 8.44772 17 9 17C9.55228 17 10 16.5523 10 16V13H14V16C14 16.5523 14.4477 17 15 17C15.5523 17 16 16.5523 16 16V8C16 7.44772 15.5523 7 15 7C14.4477 7 14 7.44772 14 8V11H10V8Z" fill="#0000CC"/>
</svg>
