<svg width="24" height="24" viewBox="0 0 24 24" fill="none" xmlns="http://www.w3.org/2000/svg">
<path d="M13.0857 5.4999L11.9999 6.58569L14.2071 8.79289C14.5976 9.18342 14.5976 9.81658 14.2071 10.2071C13.8166 10.5976 13.1834 10.5976 12.7929 10.2071L10.5857 7.9999L9.49989 9.08568L11.7071 11.2929C12.0976 11.6834 12.0976 12.3166 11.7071 12.7071C11.3166 13.0976 10.6834 13.0976 10.2929 12.7071L8.08568 10.4999C7.47182 11.1134 7.04682 11.5383 6.7368 12.0442C6.46266 12.4915 6.26063 12.9793 6.13815 13.4894C5.99955 14.0667 5.99973 14.6681 5.99998 15.5368L6 16.5856L2.29289 20.2927C1.90237 20.6832 1.90237 21.3164 2.29289 21.7069C2.68342 22.0974 3.31658 22.0974 3.70711 21.7069L7.41421 17.9998L8.46299 17.9998C9.33173 18.0001 9.93307 18.0003 10.5104 17.8617C11.0206 17.7392 11.5083 17.5372 11.9556 17.263C12.4619 16.9528 12.887 16.5274 13.5011 15.9129L20.7071 8.70692C22.2022 7.21183 22.2022 4.7878 20.7071 3.29271C19.212 1.79761 16.788 1.79762 15.2929 3.29271L14.4999 4.08569L16.7071 6.29289C17.0976 6.68342 17.0976 7.31658 16.7071 7.70711C16.3166 8.09763 15.6834 8.09763 15.2929 7.70711L13.0857 5.4999Z" fill="#0000CC"/>
</svg>
