<svg width="24" height="24" viewBox="0 0 24 24" fill="none" xmlns="http://www.w3.org/2000/svg">
<path fill-rule="evenodd" clip-rule="evenodd" d="M13.2933 2.29289C13.6838 1.90237 14.317 1.90237 14.7075 2.29289L21.7075 9.29289C22.098 9.68342 22.098 10.3166 21.7075 10.7071C21.317 11.0976 20.6838 11.0976 20.2933 10.7071L20.0002 10.414L10.2075 20.2071C8.43626 21.9783 5.56451 21.9783 3.79327 20.2071C2.02204 18.4359 2.02204 15.5641 3.79326 13.7929C7.0575 10.5285 10.3217 7.26419 13.586 3.99982L13.2933 3.70711C12.9027 3.31658 12.9027 2.68342 13.2933 2.29289ZM15.0002 5.41404L9.41444 11H16.5859L18.586 8.99982L15.0002 5.41404Z" fill="#0000CC"/>
</svg>
