<svg width="24" height="24" viewBox="0 0 24 24" fill="none" xmlns="http://www.w3.org/2000/svg">
<path opacity="0.14" fill-rule="evenodd" clip-rule="evenodd" d="M12 21C16.9706 21 21 16.9706 21 12C21 7.02944 16.9706 3 12 3C7.02944 3 3 7.02944 3 12C3 16.9706 7.02944 21 12 21ZM14 12H18C18 9.87731 16.7975 8.01958 15 7L12.8745 10.2008C12.6103 10.0722 12.3136 10 12 10C11.6911 10 11.3986 10.07 11.1374 10.1951L9 7C7.20249 8.01983 6 9.87747 6 12H10C10 12.7965 10.4657 13.4843 11.1396 13.806L9 17.0002C9.87644 17.635 10.9028 18 11.9998 18C13.097 18 14.1235 17.6349 15 17L12.8747 13.7991C13.5409 13.4745 14 12.7909 14 12Z" fill="#0000CC"/>
<path d="M14 12H18C18 9.87731 16.7975 8.01958 15 7L12.8694 10.1984M14 12C14 13.1046 13.1046 14 12 14C10.8954 14 10 13.1046 10 12M14 12C14 10.8954 13.1046 10 12 10C10.8954 10 10 10.8954 10 12M10 12H6C6 9.87747 7.20249 8.01983 9 7L11.1306 10.1984M11.1313 13.802L9 17.0002C9.87644 17.635 10.9028 18 11.9998 18C13.097 18 14.1235 17.6349 15 17L12.8687 13.802M21 12C21 16.9706 16.9706 21 12 21C7.02944 21 3 16.9706 3 12C3 7.02944 7.02944 3 12 3C16.9706 3 21 7.02944 21 12Z" stroke="#0000CC" stroke-width="2" stroke-linecap="round" stroke-linejoin="round"/>
</svg>
