<svg width="24" height="24" viewBox="0 0 24 24" fill="none" xmlns="http://www.w3.org/2000/svg">
<path opacity="0.14" d="M18 12C18 15.3137 15.3137 18 12 18C8.68629 18 6 15.3137 6 12C6 8.68629 8.68629 6 12 6C15.3137 6 18 8.68629 18 12Z" fill="#0000CC"/>
<path d="M18 12C18 15.3137 15.3137 18 12 18M18 12C18 8.68629 15.3137 6 12 6M18 12H21M12 18C8.68629 18 6 15.3137 6 12M12 18V21M6 12C6 8.68629 8.68629 6 12 6M6 12H3M12 6V3M21 11V13M3 11V13M10.5 3H13.5M11 21H13M4.5752 6.69629L6.69652 4.57497M17.6572 19.0713L19.0714 17.6571M5.63574 5.63574L7.75706 7.75706M16.2422 16.2422L18.3635 18.3635M17.3037 4.5752L19.425 6.69652M4.92871 17.6572L6.34292 19.0714M18.3643 5.63574L16.2429 7.75706M7.75781 16.2422L5.63649 18.3635M14 14H14.01M10.5 11.5H10.51M11.5 11.5C11.5 12.0523 11.0523 12.5 10.5 12.5C9.94772 12.5 9.5 12.0523 9.5 11.5C9.5 10.9477 9.94772 10.5 10.5 10.5C11.0523 10.5 11.5 10.9477 11.5 11.5Z" stroke="#0000CC" stroke-width="2" stroke-linecap="round" stroke-linejoin="round"/>
</svg>
