<svg width="24" height="24" viewBox="0 0 24 24" fill="none" xmlns="http://www.w3.org/2000/svg">
<path opacity="0.14" d="M3 6.2C3 5.0799 3 4.51984 3.21799 4.09202C3.40973 3.71569 3.71569 3.40973 4.09202 3.21799C4.51984 3 5.0799 3 6.2 3H13V21H6.2C5.0799 21 4.51984 21 4.09202 20.782C3.71569 20.5903 3.40973 20.2843 3.21799 19.908C3 19.4802 3 18.9201 3 17.8V6.2Z" fill="#0000CC"/>
<path d="M17 15.9995L21 11.9995M21 11.9995L17 7.99951M21 11.9995H9M13 20.9995H6.20078C5.08068 20.9995 4.52062 20.9995 4.0928 20.7815C3.71648 20.5898 3.41052 20.2838 3.21877 19.9075C3.00078 19.4797 3.00078 18.9196 3.00078 17.7995V6.19951C3.00078 5.07941 3.00078 4.51935 3.21877 4.09153C3.41052 3.71521 3.71648 3.40925 4.0928 3.2175C4.52062 2.99951 5.08068 2.99951 6.20078 2.99951L13 2.99951" stroke="#0000CC" stroke-width="2" stroke-linecap="round" stroke-linejoin="round"/>
</svg>
