<svg width="24" height="24" viewBox="0 0 24 24" fill="none" xmlns="http://www.w3.org/2000/svg">
<g opacity="0.14">
<path d="M14 5.6C14 5.03995 14 4.75992 14.109 4.54601C14.2049 4.35785 14.3578 4.20487 14.546 4.10899C14.7599 4 15.0399 4 15.6 4H19.4C19.9601 4 20.2401 4 20.454 4.10899C20.6422 4.20487 20.7951 4.35785 20.891 4.54601C21 4.75992 21 5.03995 21 5.6V9.4C21 9.96005 21 10.2401 20.891 10.454C20.7951 10.6422 20.6422 10.7951 20.454 10.891C20.2401 11 19.9601 11 19.4 11H15.6C15.0399 11 14.7599 11 14.546 10.891C14.3578 10.7951 14.2049 10.6422 14.109 10.454C14 10.2401 14 9.96005 14 9.4V5.6Z" fill="#0000CC"/>
<path d="M14 16.6C14 16.0399 14 15.7599 14.109 15.546C14.2049 15.3578 14.3578 15.2049 14.546 15.109C14.7599 15 15.0399 15 15.6 15H17.4C17.9601 15 18.2401 15 18.454 15.109C18.6422 15.2049 18.7951 15.3578 18.891 15.546C19 15.7599 19 16.0399 19 16.6V18.4C19 18.9601 19 19.2401 18.891 19.454C18.7951 19.6422 18.6422 19.7951 18.454 19.891C18.2401 20 17.9601 20 17.4 20H15.6C15.0399 20 14.7599 20 14.546 19.891C14.3578 19.7951 14.2049 19.6422 14.109 19.454C14 19.2401 14 18.9601 14 18.4V16.6Z" fill="#0000CC"/>
</g>
<path d="M7 4V20M7 20L3 16M7 20L11 16M15.6 11H19.4C19.9601 11 20.2401 11 20.454 10.891C20.6422 10.7951 20.7951 10.6422 20.891 10.454C21 10.2401 21 9.96005 21 9.4V5.6C21 5.03995 21 4.75992 20.891 4.54601C20.7951 4.35785 20.6422 4.20487 20.454 4.10899C20.2401 4 19.9601 4 19.4 4H15.6C15.0399 4 14.7599 4 14.546 4.10899C14.3578 4.20487 14.2049 4.35785 14.109 4.54601C14 4.75992 14 5.03995 14 5.6V9.4C14 9.96005 14 10.2401 14.109 10.454C14.2049 10.6422 14.3578 10.7951 14.546 10.891C14.7599 11 15.0399 11 15.6 11ZM15.6 20H17.4C17.9601 20 18.2401 20 18.454 19.891C18.6422 19.7951 18.7951 19.6422 18.891 19.454C19 19.2401 19 18.9601 19 18.4V16.6C19 16.0399 19 15.7599 18.891 15.546C18.7951 15.3578 18.6422 15.2049 18.454 15.109C18.2401 15 17.9601 15 17.4 15H15.6C15.0399 15 14.7599 15 14.546 15.109C14.3578 15.2049 14.2049 15.3578 14.109 15.546C14 15.7599 14 16.0399 14 16.6V18.4C14 18.9601 14 19.2401 14.109 19.454C14.2049 19.6422 14.3578 19.7951 14.546 19.891C14.7599 20 15.0399 20 15.6 20Z" stroke="#0000CC" stroke-width="2" stroke-linecap="round" stroke-linejoin="round"/>
</svg>
