<svg width="24" height="24" viewBox="0 0 24 24" fill="none" xmlns="http://www.w3.org/2000/svg">
<path opacity="0.14" d="M18.9998 16.6709V7.32894C18.9998 6.26324 18.9998 5.73039 18.7813 5.45671C18.5914 5.2187 18.3033 5.08024 17.9987 5.08057C17.6486 5.08095 17.2325 5.41381 16.4003 6.07955L10.5615 10.7506C10.0277 11.1776 9.76077 11.3912 9.66413 11.6491C9.5794 11.8753 9.5794 12.1245 9.66413 12.3507C9.76077 12.6087 10.0277 12.8223 10.5615 13.2493L16.4003 17.9203C17.2325 18.5861 17.6486 18.9189 17.9987 18.9193C18.3033 18.9196 18.5914 18.7812 18.7813 18.5432C18.9998 18.2695 18.9998 17.7366 18.9998 16.6709Z" fill="#0000CC"/>
<path d="M5 4V20M19 7.329V16.671C19 17.7367 19 18.2696 18.7815 18.5432C18.5916 18.7812 18.3035 18.9197 17.9989 18.9194C17.6487 18.919 17.2327 18.5861 16.4005 17.9204L10.5617 13.2494C10.0279 12.8223 9.76097 12.6088 9.66433 12.3508C9.5796 12.1246 9.5796 11.8754 9.66433 11.6492C9.76097 11.3912 10.0279 11.1777 10.5617 10.7506L16.4005 6.07961C17.2327 5.41387 17.6487 5.081 17.9989 5.08063C18.3035 5.0803 18.5916 5.21876 18.7815 5.45677C19 5.73045 19 6.2633 19 7.329Z" stroke="#0000CC" stroke-width="2" stroke-linecap="round" stroke-linejoin="round"/>
</svg>
