<svg width="24" height="24" viewBox="0 0 24 24" fill="none" xmlns="http://www.w3.org/2000/svg">
<path opacity="0.14" d="M6 20H18C18.9319 20 19.3978 20 19.7654 19.8478C20.2554 19.6448 20.6448 19.2554 20.8478 18.7654C21 18.3978 21 17.9319 21 17C21 16.0681 21 15.6022 20.8478 15.2346C20.6448 14.7446 20.2554 14.3552 19.7654 14.1522C19.3978 14 18.9319 14 18 14H17.4H6.6H6C5.06812 14 4.60218 14 4.23463 14.1522C3.74458 14.3552 3.35523 14.7446 3.15224 15.2346C3 15.6022 3 16.0681 3 17C3 17.9319 3 18.3978 3.15224 18.7654C3.35523 19.2554 3.74458 19.6448 4.23463 19.8478C4.60218 20 5.06812 20 6 20Z" fill="#0000CC"/>
<path d="M17 17H17.01M15.6 14H18C18.9319 14 19.3978 14 19.7654 14.1522C20.2554 14.3552 20.6448 14.7446 20.8478 15.2346C21 15.6022 21 16.0681 21 17C21 17.9319 21 18.3978 20.8478 18.7654C20.6448 19.2554 20.2554 19.6448 19.7654 19.8478C19.3978 20 18.9319 20 18 20H6C5.06812 20 4.60218 20 4.23463 19.8478C3.74458 19.6448 3.35523 19.2554 3.15224 18.7654C3 18.3978 3 17.9319 3 17C3 16.0681 3 15.6022 3.15224 15.2346C3.35523 14.7446 3.74458 14.3552 4.23463 14.1522C4.60218 14 5.06812 14 6 14H8.4M12 15V4M12 4L15 7M12 4L9 7" stroke="#0000CC" stroke-width="2" stroke-linecap="round" stroke-linejoin="round"/>
</svg>
