<svg width="24" height="24" viewBox="0 0 24 24" fill="none" xmlns="http://www.w3.org/2000/svg">
<path opacity="0.14" d="M3 11.6493C3 14.6044 5.41766 17 8.4 17L16.5 17C18.9853 17 21 14.9839 21 12.4969C21 10.6503 19.8893 8.94488 18.3 8.25C18.1317 5.32251 15.684 3 12.6893 3C10.3514 3 8.34694 4.48637 7.5 6.5C4.8 6.9375 3 9.20008 3 11.6493Z" fill="#0000CC"/>
<path d="M12 21V11M12 11L9 14M12 11L15 14M7 16.8184C4.69636 16.2074 3 14.1246 3 11.6493C3 9.20008 4.8 6.9375 7.5 6.5C8.34694 4.48637 10.3514 3 12.6893 3C15.684 3 18.1317 5.32251 18.3 8.25C19.8893 8.94488 21 10.6503 21 12.4969C21 14.8148 19.25 16.7236 17 16.9725" stroke="#0000CC" stroke-width="2" stroke-linecap="round" stroke-linejoin="round"/>
</svg>
