<svg width="24" height="24" viewBox="0 0 24 24" fill="none" xmlns="http://www.w3.org/2000/svg">
<path opacity="0.14" d="M19 16.0754C17.9493 16.5506 16.7829 16.8151 15.5548 16.8151C10.9322 16.8151 7.18492 13.0678 7.18492 8.44523C7.18492 7.21708 7.44944 6.05072 7.92462 5C5.02061 6.31331 3 9.23576 3 12.6302C3 17.2527 6.74731 21 11.3698 21C14.7642 21 17.6867 18.9794 19 16.0754Z" fill="#0000CC"/>
<path d="M13 6V3M18.5 12V7M14.5 4.5H11.5M21 9.5H16M15.5548 16.8151C16.7829 16.8151 17.9493 16.5506 19 16.0754C17.6867 18.9794 14.7642 21 11.3698 21C6.74731 21 3 17.2527 3 12.6302C3 9.23576 5.02061 6.31331 7.92462 5C7.44944 6.05072 7.18492 7.21708 7.18492 8.44523C7.18492 13.0678 10.9322 16.8151 15.5548 16.8151Z" stroke="#0000CC" stroke-width="2" stroke-linecap="round" stroke-linejoin="round"/>
</svg>
