<svg width="24" height="24" viewBox="0 0 24 24" fill="none" xmlns="http://www.w3.org/2000/svg">
<path opacity="0.14" d="M7 21C9.20914 21 11 19.2092 11 17C11 15.9856 10.6224 15.0593 10 14.3542V6.00018C10 4.34333 8.65685 3.00018 7 3.00018C5.34315 3.00018 4 4.34333 4 6.00018L4 14.3542C3.37764 15.0593 3 15.9856 3 17C3 19.2092 4.79086 21 7 21Z" fill="#0000CC"/>
<path d="M18 3V21M18 21L15 18M18 21L21 18M7 16C6.44772 16 6 16.4477 6 17C6 17.5523 6.44772 18 7 18C7.55228 18 8 17.5523 8 17C8 16.4477 7.55228 16 7 16ZM7 16V12M7 17L7.00707 17.0071M11 17C11 19.2091 9.20914 21 7 21C4.79086 21 3 19.2091 3 17C3 15.9856 3.37764 15.0593 4 14.3542L4 6.00017C4 4.34332 5.34315 3.00017 7 3.00017C8.65685 3.00017 10 4.34332 10 6.00017V14.3542C10.6224 15.0593 11 15.9856 11 17Z" stroke="#0000CC" stroke-width="2" stroke-linecap="round" stroke-linejoin="round"/>
</svg>
