<svg width="24" height="24" viewBox="0 0 24 24" fill="none" xmlns="http://www.w3.org/2000/svg">
<path fill-rule="evenodd" clip-rule="evenodd" d="M5.83205 4.44531C5.5257 3.98579 4.90483 3.86161 4.4453 4.16796C3.98577 4.47432 3.8616 5.09519 4.16795 5.55471L5.86596 8.10173C3.51346 9.93139 2 12.789 2 16V19C2 19.5523 2.44772 20 3 20H21C21.5523 20 22 19.5523 22 19V16C22 12.7885 20.4855 9.93129 18.1352 8.10277L19.8339 5.55471C20.1403 5.09519 20.0161 4.47432 19.5566 4.16796C19.0971 3.86161 18.4762 3.98579 18.1698 4.44531L16.4413 7.03816C15.1025 6.37357 13.5939 6.00001 12 6.00001C10.4053 6.00001 8.89775 6.3733 7.56002 7.03727L5.83205 4.44531ZM10 14C10 14.5523 9.55228 15 9 15C8.44772 15 8 14.5523 8 14C8 13.4477 8.44772 13 9 13C9.55228 13 10 13.4477 10 14ZM15 15C15.5523 15 16 14.5523 16 14C16 13.4477 15.5523 13 15 13C14.4477 13 14 13.4477 14 14C14 14.5523 14.4477 15 15 15Z" fill="#0000CC"/>
</svg>
