<svg width="24" height="24" viewBox="0 0 24 24" fill="none" xmlns="http://www.w3.org/2000/svg">
<path d="M16.8319 3.55469C17.0611 3.21094 17.0553 2.76165 16.8173 2.42394C16.5793 2.08624 16.1582 1.92965 15.7574 2.02985L15.5996 2.06918C14.7554 2.27943 14.093 2.44441 13.5702 2.79294C13.0247 3.1566 12.6679 3.69324 12.247 4.3263L12.1678 4.44529C11.9387 4.78904 11.9445 5.23834 12.1825 5.57604C12.4205 5.91375 12.8416 6.07034 13.2424 5.97014L13.4002 5.9308C14.2444 5.72056 14.9068 5.55558 15.4296 5.20704C15.9751 4.84338 16.3319 4.30675 16.7528 3.67369L16.8319 3.55469Z" fill="#0000CC"/>
<path d="M7.91523 7.14275C9.46828 6.79858 11.1058 7.08119 12.6436 7.93394C13.2449 7.57945 13.8305 7.31039 14.4384 7.15436C15.2464 6.947 16.0349 6.95397 16.8865 7.14271C17.8756 7.36189 18.792 7.88853 19.4908 8.74243C19.6677 8.95868 19.7462 9.23912 19.707 9.51581C19.6679 9.79249 19.5148 10.0402 19.2848 10.1989C18.8159 10.5223 18.4382 10.8507 18.1627 11.3169C17.89 11.7782 17.6691 12.4585 17.6695 13.5533C17.6697 13.9741 17.8958 14.5011 18.3238 15.0673C18.7371 15.6141 19.2499 16.0798 19.6069 16.3525C19.9595 16.6219 20.0925 17.0914 19.9335 17.5056C19.4503 18.7641 18.7806 19.9232 17.9916 20.7459C17.2305 21.5395 16.1596 22.2095 14.9472 21.9409C14.8693 21.9237 14.7939 21.8972 14.7224 21.862C14.4821 21.7439 14.2856 21.6338 14.1315 21.5474L14.0578 21.5061C13.8881 21.4116 13.785 21.3585 13.679 21.3178C13.4907 21.2457 13.1925 21.1741 12.401 21.1741C11.8592 21.1741 11.5754 21.2725 11.2991 21.3946C11.2448 21.4185 11.1833 21.4477 11.1146 21.4803C10.8204 21.6197 10.3952 21.8212 9.8546 21.9409C9.03966 22.1215 8.27638 21.8706 7.65281 21.4592C7.03498 21.0516 6.48915 20.4487 6.02827 19.7684C5.10515 18.4058 4.39931 16.5495 4.12915 14.6853C3.82183 12.5647 4.07267 10.8368 4.77834 9.53782C5.49358 8.22128 6.63519 7.42642 7.91523 7.14275Z" fill="#0000CC"/>
</svg>
