<svg width="24" height="24" viewBox="0 0 24 24" fill="none" xmlns="http://www.w3.org/2000/svg">
<path fill-rule="evenodd" clip-rule="evenodd" d="M11.5144 3.12584C11.8164 2.95805 12.1836 2.95805 12.4856 3.12584L21.4856 8.12584C21.8031 8.30221 22 8.63683 22 9V15C22 15.3632 21.8031 15.6978 21.4856 15.8742L12.9873 20.5954C12.9951 20.5893 12.9992 20.5859 12.9992 20.5859V14.5884L17.6581 12L15.599 10.8561L11.9992 12.8561L8.39897 10.8561L6.34039 11.9997L4 10.6995V13.3005L6.34039 11.9997L10.9992 14.5884V20.5859C10.9992 20.5859 11.0019 20.5882 11.0071 20.5924L2.51436 15.8742C2.19689 15.6978 2 15.3632 2 15V9C2 8.63683 2.19689 8.30221 2.51436 8.12584L11.5144 3.12584ZM13 9.4116L15.6 10.856L18.9409 9L13 5.69951V9.4116ZM11 5.69951V9.4116L8.4 10.856L5.05913 9L11 5.69951ZM20 10.6995L17.6591 12L20 13.3005V10.6995Z" fill="#0000CC"/>
</svg>
