<svg width="24" height="24" viewBox="0 0 24 24" fill="none" xmlns="http://www.w3.org/2000/svg">
<path d="M3 17L7 18.8765V14L3 12V17Z" fill="#0000CC"/>
<path d="M17 18.6889L21 17V12L17 14V18.6889Z" fill="#0000CC"/>
<path fill-rule="evenodd" clip-rule="evenodd" d="M7.26172 4.99998L11.512 6.99395L16.11 4.93591L11.5263 3L7.26172 4.99998Z" fill="#0000CC"/>
<path d="M21 7L11.5263 11L3 7M21 7V17M21 7L16.11 4.93591M3 7V17M3 7L11.5263 3M3 7L7.26172 4.99998M11.5263 3L7.26172 4.99998M11.5263 3L16.11 4.93591M11.5249 6.99998L11.512 6.99395M11.512 6.99395L7.26172 4.99998M11.512 6.99395L11.4986 6.99998M11.512 6.99395L16.11 4.93591M21 17L11.5263 21L3 17M21 17L17 18.6889V14L21 12V17ZM3 17L7 18.8765V14L3 12V17ZM11.5 11V21" stroke="#0000CC" stroke-width="2" stroke-linecap="round" stroke-linejoin="round"/>
</svg>
