<svg width="24" height="24" viewBox="0 0 24 24" fill="none" xmlns="http://www.w3.org/2000/svg">
<path d="M8.11714 2.7818C9.31096 2.27833 10.623 2 12 2C17.5228 2 22 6.47715 22 12C22 17.5228 17.5228 22 12 22C10.1724 22 8.45935 21.5097 6.98512 20.6536L7.51196 19.7609C8.75822 17.6967 10.5167 15.9895 12.6169 14.805C13.1236 14.5192 13.6461 14.2662 14.181 14.0467C14.3679 14.9642 14.4629 15.9017 14.4625 16.8455V16.8466C14.4633 17.9905 14.3243 19.1303 14.0486 20.2405L13.6263 21.8682C14.2102 21.7727 14.7771 21.6266 15.3223 21.4346L15.3845 21.4125C15.5465 21.3542 15.7066 21.2919 15.8646 21.2256L15.9896 20.7225C16.3046 19.4543 16.4634 18.1524 16.4625 16.8456C16.463 15.6887 16.3379 14.54 16.0925 13.419C17.202 13.1412 18.3464 12.9993 19.4996 13C19.9716 13 20.4394 13.0236 20.9014 13.0692L21.931 13.1764C21.9718 12.828 21.9947 12.4741 21.9988 12.1156L21.9993 12.046L22 12C22 11.7165 21.9877 11.4357 21.9645 11.1582L21.0978 11.0789C20.5719 11.027 20.0387 11 19.5002 11C18.1601 10.9992 16.831 11.1669 15.543 11.495C15.249 10.6656 14.8859 9.85916 14.4563 9.08436C15.9502 8.15362 17.2836 6.98002 18.3997 5.60823L18.9995 4.85848C18.5247 4.39304 18.0036 3.97456 17.4439 3.61058L16.8483 4.34603C15.8671 5.55212 14.6937 6.58306 13.3789 7.39922C12.0916 5.63909 10.454 4.15553 8.56225 3.04585L8.11714 2.7818Z" fill="#0000CC"/>
<path d="M6.10768 3.91951C4.38239 5.17974 3.07592 6.97914 2.43616 9.0698L3.35843 9.25132C4.22878 9.41692 5.1128 9.50016 5.99876 9.49994L5.99981 9.49994C7.92316 9.50148 9.82441 9.10589 11.585 8.33985C10.4875 6.90477 9.11873 5.69099 7.5503 4.77095L6.10768 3.91951Z" fill="#0000CC"/>
<path d="M2.04937 11C2.01672 11.3289 2 11.6625 2 12C2 14.9726 3.297 17.6422 5.35596 19.4739L5.79981 18.7272C7.22418 16.3679 9.23402 14.4168 11.6344 13.0629C12.2818 12.6978 12.9516 12.3795 13.6387 12.1093C13.3823 11.3953 13.0673 10.701 12.6958 10.0337C10.5966 11.0011 8.31176 11.5017 5.99893 11.4999C4.98747 11.5002 3.97823 11.4051 2.98459 11.2161L2.04937 11Z" fill="#0000CC"/>
</svg>
