<svg width="24" height="24" viewBox="0 0 24 24" fill="none" xmlns="http://www.w3.org/2000/svg">
<path d="M5.00005 2C4.58157 2 4.20735 2.26057 4.06216 2.65305C3.91697 3.04554 4.03153 3.48692 4.34926 3.75926L9.29679 8H5.00005C4.44776 8 4.00005 8.44772 4.00005 9V15C4.00005 15.2919 4.12761 15.5693 4.34926 15.7593L11.3493 21.7593C11.6458 22.0134 12.0631 22.0717 12.4179 21.9085C12.7727 21.7453 13 21.3905 13 21V16H19C19.4185 16 19.7927 15.7394 19.9379 15.3469C20.0831 14.9545 19.9686 14.5131 19.6508 14.2407L14.7033 10H19C19.5523 10 20 9.55228 20 9V3C20 2.44772 19.5523 2 19 2H5.00005Z" fill="#0000CC"/>
</svg>
