<svg width="24" height="24" viewBox="0 0 24 24" fill="none" xmlns="http://www.w3.org/2000/svg">
<path fill-rule="evenodd" clip-rule="evenodd" d="M4.45898 9.3227C4.16178 10.1598 4 11.061 4 12C4 16.182 7.20883 19.6145 11.2987 19.9697L12.695 15.9398C12.4692 15.9794 12.237 16 12 16C10.5574 16 9.2931 15.2363 8.58946 14.0911L4.45898 9.3227ZM5.44748 7.40921L8.23977 10.6327C8.78733 9.12718 10.2134 8.04342 11.898 8.00127L18.0884 6.81021C16.621 5.09045 14.4379 4 12 4C9.28991 4 6.89456 5.34758 5.44748 7.40921ZM19.2542 8.62258L15.0642 9.42876C15.6482 10.124 16 11.0209 16 12C16 12.6927 15.8239 13.3443 15.5141 13.9124L13.4502 19.8689C17.1762 19.1866 20 15.9231 20 12C20 10.7931 19.7328 9.64867 19.2542 8.62258ZM2 12C2 6.47715 6.47715 2 12 2C17.5228 2 22 6.47715 22 12C22 17.5228 17.5228 22 12 22C6.47715 22 2 17.5228 2 12Z" fill="#0000CC"/>
</svg>
