<svg width="24" height="24" viewBox="0 0 24 24" fill="none" xmlns="http://www.w3.org/2000/svg">
<path fill-rule="evenodd" clip-rule="evenodd" d="M12 2C11.7348 2 11.4804 2.10536 11.2929 2.29289C11.1054 2.48043 11 2.73478 11 3V7.75716C10.0491 6.97182 8.82963 6.5 7.5 6.5C4.46243 6.5 2 8.96243 2 12C2 12.5523 2.44772 13 3 13H7.75716C6.97182 13.9509 6.5 15.1704 6.5 16.5C6.5 19.5376 8.96243 22 12 22C12.5523 22 13 21.5523 13 21V16.2428C13.9509 17.0282 15.1704 17.5 16.5 17.5C19.5376 17.5 22 15.0376 22 12C22 11.4477 21.5523 11 21 11H16.2428C17.0282 10.0491 17.5 8.82963 17.5 7.5C17.5 4.46243 15.0376 2 12 2ZM7.5 8.5C9.08551 8.5 10.4248 9.55426 10.8551 11H4.14494C4.57521 9.55426 5.91449 8.5 7.5 8.5ZM16.5 15.5C18.0855 15.5 19.4248 14.4457 19.8551 13H13.1449C13.5752 14.4457 14.9145 15.5 16.5 15.5Z" fill="#0000CC"/>
</svg>
