<svg width="24" height="24" viewBox="0 0 24 24" fill="none" xmlns="http://www.w3.org/2000/svg">
<path fill-rule="evenodd" clip-rule="evenodd" d="M2 3.75C2 2.7835 2.7835 2 3.75 2H20.25C21.2165 2 22 2.7835 22 3.75V20.25C22 21.2165 21.2165 22 20.25 22H3.75C2.7835 22 2 21.2165 2 20.25V3.75ZM6.99023 7C6.99023 6.44772 7.43795 6 7.99023 6H8.00023C8.55252 6 9.00023 6.44772 9.00023 7C9.00023 7.55228 8.55252 8 8.00023 8H7.99023C7.43795 8 6.99023 7.55228 6.99023 7ZM7.99857 9C8.55085 8.99908 8.99931 9.44605 9.00023 9.99833L9.01023 15.9983C9.01115 16.5506 8.56419 16.9991 8.0119 17C7.45962 17.0009 7.01116 16.554 7.01024 16.0017L7.00024 10.0017C6.99932 9.44938 7.44628 9.00092 7.99857 9ZM14.0002 11C13.448 11 13.0002 11.4477 13.0002 12V16C13.0002 16.5523 12.5525 17 12.0002 17C11.448 17 11.0002 16.5523 11.0002 16L11 10C11 9.44772 11.4477 9 12 9C12.2761 9 12.5261 9.11193 12.7071 9.29289C13.0987 9.10548 13.5371 9 14.0002 9C15.6566 9 16.9994 10.3423 17.0002 11.9985L16.9957 11.9985L17.0002 12L17 16C17 16.5523 16.5523 17 16 17C15.4477 17 15 16.5523 15 16V12C15 11.6729 14.843 11.3825 14.6003 11.2C14.4332 11.0744 14.2254 11 14.0002 11Z" fill="#0000CC"/>
</svg>
