<svg width="24" height="24" viewBox="0 0 24 24" fill="none" xmlns="http://www.w3.org/2000/svg">
<path fill-rule="evenodd" clip-rule="evenodd" d="M3 4C3 3.44772 3.44772 3 4 3H20C20.5523 3 21 3.44772 21 4V20C21 20.5523 20.5523 21 20 21H4C3.44772 21 3 20.5523 3 20V4ZM8 8C8.27588 8 8.52566 8.11171 8.70658 8.29237C9.09822 8.10495 9.53685 8 10 8C10.7684 8 11.4692 8.28885 12 8.76389C12.5308 8.28885 13.2316 8 14 8C15.6569 8 17 9.34315 17 11V15C17 15.5523 16.5523 16 16 16C15.4477 16 15 15.5523 15 15V11C15 10.4477 14.5523 10 14 10C13.4477 10 13 10.4477 13 11V15C13 15.5523 12.5523 16 12 16C11.4477 16 11 15.5523 11 15V11C11 10.4477 10.5523 10 10 10C9.44772 10 9 10.4477 9 11V15C9 15.5523 8.55228 16 8 16C7.44772 16 7 15.5523 7 15V9C7 8.44772 7.44772 8 8 8Z" fill="#0000CC"/>
</svg>
