<svg width="24" height="24" viewBox="0 0 24 24" fill="none" xmlns="http://www.w3.org/2000/svg">
<path d="M7 7C4.23858 7 2 9.23858 2 12C2 14.7614 4.23858 17 7 17C9.76142 17 12 14.7614 12 12C12 9.23858 9.76142 7 7 7Z" fill="#0000CC"/>
<path d="M16 7C14.8649 7 14.1064 7.8942 13.6914 8.72436C13.2464 9.61434 13 10.7738 13 12C13 13.2262 13.2464 14.3857 13.6914 15.2756C14.1064 16.1058 14.8649 17 16 17C17.1351 17 17.8936 16.1058 18.3086 15.2756C18.7536 14.3857 19 13.2262 19 12C19 10.7738 18.7536 9.61434 18.3086 8.72436C17.8936 7.8942 17.1351 7 16 7Z" fill="#0000CC"/>
<path d="M22 8C22 7.44772 21.5523 7 21 7C20.4477 7 20 7.44772 20 8V16C20 16.5523 20.4477 17 21 17C21.5523 17 22 16.5523 22 16V8Z" fill="#0000CC"/>
</svg>
