<svg width="24" height="24" viewBox="0 0 24 24" fill="none" xmlns="http://www.w3.org/2000/svg">
<path d="M3 3C2.44772 3 2 3.44772 2 4C2 4.55228 2.44772 5 3 5H4V19H3C2.44772 19 2 19.4477 2 20C2 20.5523 2.44772 21 3 21H7C7.55228 21 8 20.5523 8 20C8 19.4477 7.55228 19 7 19H6V7.64293L13.6401 20.5105C13.8203 20.814 14.1471 21 14.5 21H19C19.5523 21 20 20.5523 20 20V5H21C21.5523 5 22 4.55228 22 4C22 3.44772 21.5523 3 21 3H17C16.4477 3 16 3.44772 16 4C16 4.55228 16.4477 5 17 5H18V16.3571L10.3599 3.48946C10.1797 3.18601 9.85291 3 9.5 3H3Z" fill="#0000CC"/>
</svg>
