<svg width="24" height="24" viewBox="0 0 24 24" fill="none" xmlns="http://www.w3.org/2000/svg">
<path fill-rule="evenodd" clip-rule="evenodd" d="M12 4C8.41015 4 5.5 6.91015 5.5 10.5C5.5 11.6835 5.8154 12.7903 6.36606 13.7442C6.64217 14.2225 6.47826 14.8341 5.99995 15.1102C5.52164 15.3863 4.91006 15.2224 4.63394 14.7441C3.91249 13.4944 3.5 12.0438 3.5 10.5C3.5 5.80558 7.30558 2 12 2C16.6944 2 20.5 5.80558 20.5 10.5C20.5 14.7699 17.0785 18 13.5 18C13.4883 18 13.4765 18 13.4645 18C12.7324 18.0002 11.5501 18.0005 10.3668 17.3577L9.47439 21.2249C9.3502 21.763 8.81328 22.0986 8.27514 21.9744C7.737 21.8502 7.40142 21.3133 7.52561 20.7751L8.76927 15.3859C8.7711 15.3775 8.77303 15.3692 8.77507 15.3608L10.5256 7.77514C10.6498 7.237 11.1867 6.90142 11.7249 7.02561C12.263 7.1498 12.5986 7.68672 12.4744 8.22486L10.847 15.2768C11.6958 15.9839 12.6334 16 13.5 16C15.9215 16 18.5 13.7185 18.5 10.5C18.5 6.91015 15.5899 4 12 4Z" fill="#0000CC"/>
</svg>
