<svg width="24" height="24" viewBox="0 0 24 24" fill="none" xmlns="http://www.w3.org/2000/svg">
<path fill-rule="evenodd" clip-rule="evenodd" d="M2 12C2 6.47715 6.47715 2 12 2C17.5228 2 22 6.47715 22 12C22 17.5228 17.5228 22 12 22C6.47715 22 2 17.5228 2 12ZM7.68536 10.7282C8.83074 9.65021 10.3436 9 12 9C13.6564 9 15.1693 9.65021 16.3146 10.7282C16.7168 11.1067 17.3497 11.0875 17.7282 10.6854C18.1067 10.2832 18.0875 9.65031 17.6854 9.27179C16.1902 7.86463 14.1943 7 12 7C9.80569 7 7.80978 7.86463 6.31464 9.27179C5.91247 9.65031 5.89328 10.2832 6.2718 10.6854C6.65031 11.0875 7.28319 11.1067 7.68536 10.7282ZM9.61714 13.7869C10.2281 13.3077 11.062 13 12 13C12.938 13 13.7719 13.3077 14.3829 13.7869C14.8174 14.1277 15.446 14.0517 15.7869 13.6171C16.1277 13.1826 16.0517 12.554 15.6171 12.2131C14.6438 11.4498 13.3724 11 12 11C10.6276 11 9.3562 11.4498 8.38287 12.2131C7.9483 12.554 7.87231 13.1826 8.21315 13.6171C8.55398 14.0517 9.18257 14.1277 9.61714 13.7869ZM10.507 17.3619C10.8629 17.1526 11.3853 17 12 17C12.6147 17 13.1371 17.1526 13.493 17.3619C13.969 17.642 14.5819 17.483 14.8619 17.007C15.142 16.531 14.9831 15.9181 14.507 15.6381C13.8067 15.2261 12.9256 15 12 15C11.0744 15 10.1933 15.2261 9.49299 15.6381C9.01695 15.9181 8.85805 16.531 9.13807 17.007C9.41808 17.483 10.031 17.642 10.507 17.3619Z" fill="#0000CC"/>
</svg>
