<svg width="24" height="24" viewBox="0 0 24 24" fill="none" xmlns="http://www.w3.org/2000/svg">
<path d="M3 7.63587C4.62072 4.2997 8.0418 2 12 2C17.5228 2 22 6.47715 22 12C22 17.5228 17.5228 22 12 22C6.47715 22 2 17.5228 2 12C2 11.2026 2.09334 10.4269 2.26969 9.68343L2.67766 10.0924L6.76122 14.1759C6.59351 14.5409 6.5 14.947 6.5 15.375C6.5 16.9628 7.78718 18.25 9.375 18.25C10.0627 18.25 10.694 18.0086 11.1887 17.6058L11.2004 17.5965L16.9275 12.9258C16.9409 12.915 16.9539 12.9038 16.9665 12.8924C17.7516 12.2275 18.25 11.2344 18.25 10.125C18.25 8.12297 16.627 6.5 14.625 6.5C13.5154 6.5 12.5222 6.99856 11.8573 7.7839C11.8457 7.79668 11.8344 7.80982 11.8234 7.82332L7.96646 12.5527L4.09187 8.67815L3 7.63587Z" fill="#0000CC"/>
<path d="M13 10.125C13 9.22754 13.7275 8.5 14.625 8.5C15.5225 8.5 16.25 9.22754 16.25 10.125C16.25 11.0225 15.5225 11.75 14.625 11.75C13.7275 11.75 13 11.0225 13 10.125Z" fill="#0000CC"/>
<path d="M10.428 12.6989L11.3168 11.6091C11.6803 12.4182 12.3318 13.0697 13.1408 13.4332L12.051 14.322C11.7593 13.5812 11.1688 12.9907 10.428 12.6989Z" fill="#0000CC"/>
<path d="M8.5 15.375C8.5 14.8918 8.89175 14.5 9.375 14.5C9.85825 14.5 10.25 14.8918 10.25 15.375C10.25 15.8582 9.85825 16.25 9.375 16.25C8.89175 16.25 8.5 15.8582 8.5 15.375Z" fill="#0000CC"/>
</svg>
