<svg width="24" height="24" viewBox="0 0 24 24" fill="none" xmlns="http://www.w3.org/2000/svg">
<path fill-rule="evenodd" clip-rule="evenodd" d="M2 3C2 2.44772 2.44772 2 3 2H21C21.5523 2 22 2.44772 22 3V12.9C22 13.1814 21.8815 13.4497 21.6735 13.6392L17.1735 17.7392C16.9893 17.907 16.7491 18 16.5 18H11.3508L6.62469 21.7809C6.32452 22.021 5.91328 22.0678 5.56681 21.9013C5.22035 21.7348 5 21.3844 5 21V18H3C2.44772 18 2 17.5523 2 17V3ZM12 7C12 6.44772 11.5523 6 11 6C10.4477 6 10 6.44772 10 7V11C10 11.5523 10.4477 12 11 12C11.5523 12 12 11.5523 12 11V7ZM17 7C17 6.44772 16.5523 6 16 6C15.4477 6 15 6.44772 15 7V11C15 11.5523 15.4477 12 16 12C16.5523 12 17 11.5523 17 11V7Z" fill="#0000CC"/>
</svg>
