<svg width="24" height="24" viewBox="0 0 24 24" fill="none" xmlns="http://www.w3.org/2000/svg">
<path opacity="0.3" fill-rule="evenodd" clip-rule="evenodd" d="M11.3572 5H12.6428C13.7266 4.99999 14.6007 4.99998 15.3086 5.05782C16.0375 5.11737 16.6777 5.24318 17.27 5.54497C18.2108 6.02433 18.9757 6.78924 19.455 7.73005C19.7568 8.32234 19.8826 8.96253 19.9422 9.69138C20 10.3993 20 11.2734 20 12.3572V17.8385C20 18.3657 20 18.8205 19.9694 19.195C19.9371 19.5904 19.8658 19.9836 19.673 20.362C19.3854 20.9265 18.9265 21.3854 18.362 21.673C17.9836 21.8658 17.5904 21.9371 17.195 21.9694C16.8205 22 16.3657 22 15.8386 22H8.16144C7.6343 22 7.17954 22 6.80497 21.9694C6.40963 21.9371 6.01641 21.8658 5.63803 21.673C5.07354 21.3854 4.6146 20.9265 4.32698 20.362C4.13419 19.9836 4.06287 19.5904 4.03057 19.195C3.99997 18.8205 3.99998 18.3657 4 17.8385L4 12.3572C3.99999 11.2734 3.99998 10.3993 4.05782 9.69138C4.11737 8.96253 4.24318 8.32234 4.54497 7.73005C5.02434 6.78924 5.78924 6.02433 6.73005 5.54497C7.32234 5.24318 7.96253 5.11737 8.69138 5.05782C9.39926 4.99998 10.2734 4.99999 11.3572 5Z" fill="#0000CC"/>
<path d="M11.968 2H12.032C12.4706 1.99999 12.8491 1.99998 13.1624 2.02135C13.4922 2.04386 13.8221 2.09336 14.1481 2.22836C14.8831 2.53285 15.4672 3.11687 15.7716 3.85195C15.9066 4.17788 15.9561 4.50779 15.9787 4.83762C15.9851 4.93268 15.9897 5.03375 15.9928 5.14068C15.7732 5.10354 15.5456 5.07718 15.3086 5.05782C14.92 5.02607 14.4813 5.01175 13.9853 5.0053L13.9833 4.97376C13.9677 4.74576 13.9411 4.65893 13.9239 4.61732C13.8224 4.37229 13.6277 4.17762 13.3827 4.07612C13.3411 4.05889 13.2542 4.03227 13.0262 4.01671C12.7893 4.00054 12.4796 4 12 4C11.5204 4 11.2107 4.00054 10.9738 4.01671C10.7458 4.03227 10.6589 4.05889 10.6173 4.07612C10.3723 4.17762 10.1776 4.37229 10.0761 4.61732C10.0589 4.65893 10.0323 4.74576 10.0167 4.97376L10.0147 5.0053C9.51869 5.01175 9.07998 5.02607 8.69138 5.05782C8.45441 5.07718 8.22682 5.10354 8.0072 5.14068C8.01035 5.03375 8.01486 4.93268 8.02135 4.83762C8.04385 4.50779 8.09336 4.17788 8.22836 3.85195C8.53284 3.11687 9.11687 2.53285 9.85195 2.22836C10.1779 2.09336 10.5078 2.04386 10.8376 2.02135C11.1509 1.99998 11.5294 1.99999 11.968 2Z" fill="#0000CC"/>
<path d="M8 9C8 8.44772 8.44772 8 9 8H15C15.5523 8 16 8.44772 16 9C16 9.55229 15.5523 10 15 10H9C8.44772 10 8 9.55229 8 9Z" fill="#0000CC"/>
<path fill-rule="evenodd" clip-rule="evenodd" d="M10 22V17H14V22L16 22V12C16 11.4477 15.5523 11 15 11H9C8.44772 11 8 11.4477 8 12V22L10 22ZM10 15H14V13H10V15Z" fill="#0000CC"/>
</svg>
