<svg width="24" height="24" viewBox="0 0 24 24" fill="none" xmlns="http://www.w3.org/2000/svg">
<path opacity="0.3" fill-rule="evenodd" clip-rule="evenodd" d="M21.6617 12.1877C21.2477 11.8222 20.6157 11.8616 20.2503 12.2757C18.2332 14.561 15.2853 16 12 16C8.71475 16 5.76681 14.561 3.74975 12.2757C3.38429 11.8616 2.75235 11.8222 2.33828 12.1877C1.92421 12.5532 1.88481 13.1851 2.25027 13.5992C4.63088 16.2964 8.11712 18 12 18C15.8829 18 19.3691 16.2964 21.7498 13.5992C22.1152 13.1851 22.0758 12.5532 21.6617 12.1877Z" fill="#0000CC"/>
<path fill-rule="evenodd" clip-rule="evenodd" d="M11.9999 2C11.4476 2 10.9999 2.44772 10.9999 3V3.14494C9.55412 3.57521 8.49986 4.91449 8.49986 6.5C8.49986 7.39171 8.83367 8.20504 9.38145 8.82233L2.15022 20.4726C1.85897 20.9419 2.00326 21.5584 2.4725 21.8496C2.94174 22.1409 3.55825 21.9966 3.8495 21.5274L11.0803 9.8777C11.3737 9.95745 11.6822 10 11.9999 10C12.3176 10 12.626 9.95745 12.9194 9.8777L20.1502 21.5274C20.4415 21.9966 21.058 22.1409 21.5272 21.8496C21.9965 21.5584 22.1408 20.9419 21.8495 20.4726L14.6183 8.82233C15.1661 8.20504 15.4999 7.39171 15.4999 6.5C15.4999 4.91449 14.4456 3.57521 12.9999 3.14494V3C12.9999 2.44772 12.5521 2 11.9999 2Z" fill="#0000CC"/>
</svg>
