<svg width="24" height="24" viewBox="0 0 24 24" fill="none" xmlns="http://www.w3.org/2000/svg">
<g opacity="0.3">
<path d="M8.60201 9C7.98931 8.41474 7.46647 7.73892 7.05368 7H12.5C13.0523 7 13.5 7.44772 13.5 8C13.5 8.55228 13.0523 9 12.5 9H8.60201Z" fill="#0000CC"/>
<path d="M15.398 15H11.5C10.9477 15 10.5 15.4477 10.5 16C10.5 16.5523 10.9477 17 11.5 17H16.9463C16.5335 16.2611 16.0107 15.5853 15.398 15Z" fill="#0000CC"/>
<path d="M17.7469 19H9.00001C8.44772 19 8.00001 19.4477 8.00001 20C8.00001 20.5523 8.44772 21 9.00001 21H18C18 20.3177 17.9124 19.6467 17.7469 19Z" fill="#0000CC"/>
<path d="M6.25314 5C6.08761 4.35335 6 3.6823 6 3H15C15.5523 3 16 3.44772 16 4C16 4.55228 15.5523 5 15 5H6.25314Z" fill="#0000CC"/>
</g>
<path fill-rule="evenodd" clip-rule="evenodd" d="M5 2C5.55228 2 6 2.44772 6 3C6 6.63684 8.48916 9.95422 12 10.96C15.5518 9.94262 18 6.69504 18 3C18 2.44772 18.4477 2 19 2C19.5523 2 20 2.44772 20 3C20 6.80394 17.9101 10.2259 14.6822 12.0041C17.8895 13.7935 20 17.2515 20 21C20 21.5523 19.5523 22 19 22C18.4477 22 18 21.5523 18 21C18 17.3632 15.5108 14.0458 12 13.04C8.44825 14.0574 6 17.305 6 21C6 21.5523 5.55228 22 5 22C4.44772 22 4 21.5523 4 21C4 17.1961 6.08988 13.7741 9.31782 11.9959C6.11052 10.2065 4 6.74849 4 3C4 2.44772 4.44772 2 5 2Z" fill="#0000CC"/>
</svg>
