<svg width="24" height="24" viewBox="0 0 24 24" fill="none" xmlns="http://www.w3.org/2000/svg">
<path opacity="0.3" fill-rule="evenodd" clip-rule="evenodd" d="M5.96075 4C5.97362 4.00001 5.98667 4.00001 5.99992 4.00001C6.5522 4.00001 6.99992 4.44772 6.99992 5.00001C6.99992 5.55229 6.5522 6.00001 5.99992 6.00001C5.71453 6.00001 5.62804 6.00075 5.56059 6.00597C4.65237 6.07625 3.90639 6.75135 3.74609 7.64806C3.73419 7.71466 3.72484 7.80066 3.69645 8.08462L3.69615 8.08763L3.42561 10.7128C4.1776 10.2603 5.0584 10 6 10C8.41898 10 10.4367 11.7178 10.8999 14H13.0999C13.5632 11.7178 15.5811 10 18 10C18.9456 10 19.8299 10.2625 20.5839 10.7186L20.3185 8.08541C20.2901 7.80145 20.2807 7.71466 20.2688 7.64806C20.1085 6.75135 19.3625 6.07625 18.4543 6.00597C18.3869 6.00075 18.3004 6.00001 18.015 6.00001C17.4627 6.00001 17.015 5.55229 17.015 5.00001C17.015 4.44772 17.4627 4.00001 18.015 4.00001L18.0541 4C18.2833 3.99997 18.4537 3.99994 18.6086 4.01193C20.425 4.15248 21.917 5.5027 22.2376 7.29612C22.2649 7.44911 22.2819 7.61859 22.3046 7.84666L22.9716 14.464C22.9904 14.6401 23 14.8189 23 15C23 17.7614 20.7614 20 18 20C15.5811 20 13.5632 18.2823 13.0999 16H10.8999C10.4367 18.2822 8.41898 20 6 20C3.23858 20 1 17.7614 1 15C1 14.8151 1.01004 14.6326 1.02959 14.4529L1.70637 7.88562L1.70652 7.88412C1.70779 7.87146 1.70903 7.85897 1.71026 7.84665C1.73303 7.61859 1.74995 7.4491 1.7773 7.29612C2.0979 5.5027 3.58987 4.15248 5.40629 4.01193C5.56124 3.99994 5.73156 3.99997 5.96075 4ZM6 12C4.34315 12 3 13.3432 3 15C3 16.6569 4.34315 18 6 18C7.65683 18 8.99992 16.6569 8.99992 15C8.99992 13.3431 7.65683 12 6 12ZM18 12C16.3431 12 14.9999 13.3432 14.9999 15C14.9999 16.6568 16.3431 18 18 18C19.6569 18 21 16.6569 21 15C21 13.3432 19.6569 12 18 12Z" fill="#0000CC"/>
<path fill-rule="evenodd" clip-rule="evenodd" d="M6 12C4.34315 12 3 13.3431 3 15C3 16.6569 4.34315 18 6 18C7.65683 18 8.99992 16.6569 8.99992 15C8.99992 13.3431 7.65683 12 6 12ZM18 12C16.3431 12 14.9999 13.3432 14.9999 15C14.9999 16.6568 16.3431 18 18 18C19.6569 18 21 16.6569 21 15C21 13.3431 19.6569 12 18 12Z" fill="#0000CC"/>
</svg>
