<svg width="24" height="24" viewBox="0 0 24 24" fill="none" xmlns="http://www.w3.org/2000/svg">
<path d="M5.11891 14.5418C5.62013 18.0003 7.7442 21.3843 9.63838 20.9646C10.7156 20.7259 10.9914 20.1741 12.4011 20.1741C14.0852 20.1741 14.1585 20.4706 15.1636 20.9646C16.5676 21.2757 18.0979 19.497 19 17.1472C18.1763 16.5181 16.6703 15.0359 16.6696 13.5537C16.6686 11.0834 17.6741 10.0953 18.717 9.37576C18.1675 8.70426 17.4516 8.29217 16.6703 8.11903C15.2322 7.80034 14.1591 8.11891 12.6524 9.10704C11.1457 8.11891 9.56975 7.80038 8.1317 8.11907C6.12276 8.56427 4.5461 10.5893 5.11891 14.5418Z" stroke="#0000CC" stroke-width="2" stroke-linecap="round" stroke-linejoin="round"/>
<path d="M13 5C14 3.5 14 3.5 16 3C15 4.5 15 4.5 13 5Z" stroke="#0000CC" stroke-width="2" stroke-linecap="round" stroke-linejoin="round"/>
</svg>
