<svg width="24" height="24" viewBox="0 0 24 24" fill="none" xmlns="http://www.w3.org/2000/svg">
<path d="M9 14.25C9 15.4922 10.3434 16.5 12 16.5C13.6566 16.5 15 15.4922 15 14.25C15 11.25 9.16687 12.375 9.16687 9.75C9.16687 8.50781 10.3434 7.5 12 7.5C13.2422 7.5 14.2153 8.0625 14.625 8.87438M20.0708 13.758C20.7371 14.6246 21.0654 15.7039 20.9944 16.7947C20.9234 17.8855 20.4581 18.9132 19.6852 19.6861C18.9122 20.4591 17.8845 20.9244 16.7937 20.9954C15.703 21.0663 14.6236 20.7381 13.7571 20.0718C12.4066 20.3638 11.0044 20.3123 9.67897 19.9222C8.35352 19.532 7.14708 18.8157 6.17008 17.8387C5.19309 16.8617 4.47675 15.6553 4.08662 14.3298C3.69649 13.0044 3.64504 11.6022 3.93697 10.2517C3.27071 9.38517 2.94244 8.30583 3.01341 7.21505C3.08438 6.12427 3.54973 5.09656 4.32266 4.32363C5.09558 3.55071 6.12329 3.08535 7.21407 3.01439C8.30485 2.94342 9.38419 3.27169 10.2508 3.93795C11.6012 3.64601 13.0034 3.69746 14.3288 4.08759C15.6543 4.47772 16.8607 5.19407 17.8377 6.17106C18.8147 7.14806 19.5311 8.35449 19.9212 9.67995C20.3113 11.0054 20.3628 12.4075 20.0708 13.758Z" stroke="#0000CC" stroke-width="2" stroke-linecap="round" stroke-linejoin="round"/>
</svg>
