<svg width="24" height="24" viewBox="0 0 24 24" fill="none" xmlns="http://www.w3.org/2000/svg">
<path d="M20.9486 3.00867L8.53906 13.0633V19.4347C8.53927 19.5906 8.58066 19.7429 8.65793 19.872C8.7352 20.0011 8.84484 20.1013 8.97277 20.1595C9.1007 20.2177 9.24111 20.2314 9.37598 20.1988C9.51084 20.1663 9.63403 20.0889 9.72974 19.9766L12.3785 16.8697M8.53735 13.0633L16.3477 20.8043C16.4377 20.894 16.5467 20.9557 16.6642 20.9835C16.7816 21.0112 16.9034 21.0039 17.0176 20.9624C17.1318 20.9209 17.2345 20.8465 17.3157 20.7466C17.3968 20.6467 17.4536 20.5246 17.4804 20.3924L20.9979 3.11922C21.0013 3.1019 21.0005 3.08385 20.9956 3.067C20.9906 3.05016 20.9817 3.03515 20.9698 3.02359C20.9579 3.01203 20.9434 3.00435 20.928 3.00138C20.9125 2.99841 20.8966 3.00025 20.882 3.00672L3.34545 10.7653C3.23658 10.8127 3.14425 10.8987 3.0823 11.0104C3.02035 11.1222 2.99214 11.2536 3.00189 11.3851C3.01164 11.5165 3.05883 11.6408 3.13638 11.7393C3.21393 11.8378 3.31766 11.9052 3.43198 11.9314L8.53735 13.0633Z" stroke="#0000CC" stroke-width="2" stroke-linecap="round" stroke-linejoin="round"/>
</svg>
