<svg width="24" height="24" viewBox="0 0 24 24" fill="none" xmlns="http://www.w3.org/2000/svg">
<path d="M11 10.5L13 12L11 13.5V10.5Z" stroke="#0000CC" stroke-width="2" stroke-linecap="round" stroke-linejoin="round"/>
<path d="M3.46808 16.9411C3.26562 16.1518 3 14.6171 3 12C3 9.38291 3.26562 7.8473 3.46462 7.06331C3.5179 6.84747 3.62127 6.64758 3.76617 6.4802C3.91106 6.31281 4.09332 6.18276 4.29783 6.10082C7.19804 4.96946 11.9983 5.00008 11.9983 5.00008C11.9983 5.00008 16.7985 4.96946 19.6987 6.09644C19.9032 6.17839 20.0855 6.30844 20.2304 6.47582C20.3753 6.6432 20.4786 6.84309 20.5319 7.05893C20.7344 7.84817 21 9.38291 21 12C21 14.6171 20.7344 16.1536 20.5319 16.9411C20.478 17.1561 20.3744 17.3551 20.2295 17.5217C20.0847 17.6883 19.9027 17.8177 19.6987 17.8992C16.7985 19.0305 11.9983 18.9999 11.9983 18.9999C11.9983 18.9999 7.19804 19.0305 4.29783 17.8992C4.09446 17.8172 3.91322 17.6876 3.76898 17.5211C3.62474 17.3545 3.52162 17.1557 3.46808 16.9411Z" stroke="#0000CC" stroke-width="2" stroke-linecap="round" stroke-linejoin="round"/>
</svg>
