<svg width="24" height="24" viewBox="0 0 24 24" fill="none" xmlns="http://www.w3.org/2000/svg">
<path d="M13.3321 6.55471C13.6384 6.09519 13.5142 5.47432 13.0547 5.16796C12.5952 4.86161 11.9743 4.98579 11.668 5.44531L7.66795 11.4453C7.46338 11.7522 7.44431 12.1467 7.61833 12.4719C7.79235 12.797 8.13121 13 8.5 13H12.6315L9.66795 17.4453C9.3616 17.9048 9.48577 18.5257 9.9453 18.8321C10.4048 19.1384 11.0257 19.0142 11.3321 18.5547L15.3321 12.5547C15.5366 12.2479 15.5557 11.8533 15.3817 11.5282C15.2077 11.203 14.8688 11 14.5 11H10.3685L13.3321 6.55471Z" fill="#0000CC"/>
<path d="M6.16146 5H9.56113L6.00386 10.3359C5.39014 11.2565 5.33293 12.4401 5.85498 13.4156C6.37704 14.3911 7.39362 15 8.50001 15H8.89445L8.00386 16.3359C7.45914 17.153 7.36813 18.1401 7.67139 19H6.16145C5.63431 19 5.17955 19 4.80498 18.9694C4.40963 18.9371 4.01641 18.8658 3.63803 18.673C3.07355 18.3854 2.6146 17.9265 2.32698 17.362C2.13419 16.9836 2.06287 16.5904 2.03057 16.195C1.99997 15.8205 1.99999 15.3657 2 14.8386V9.16138C1.99999 8.63428 1.99997 8.17952 2.03057 7.80498C2.06287 7.40963 2.13419 7.01641 2.32698 6.63803C2.6146 6.07355 3.07355 5.6146 3.63803 5.32698C4.01641 5.13419 4.40963 5.06287 4.80498 5.03057C5.17953 4.99997 5.63434 4.99998 6.16146 5Z" fill="#0000CC"/>
<path d="M16.8385 19H13.4389L16.9962 13.6641C17.6099 12.7435 17.6671 11.5599 17.145 10.5844C16.623 9.60897 15.6064 9.00001 14.5 9.00001H14.1056L14.9962 7.66411C15.5409 6.84703 15.6319 5.85992 15.3286 5H16.8386C17.3657 4.99998 17.8205 4.99997 18.195 5.03057C18.5904 5.06287 18.9836 5.13419 19.362 5.32698C19.9265 5.6146 20.3854 6.07355 20.673 6.63803C20.8658 7.01641 20.9371 7.40963 20.9694 7.80498C21 8.17954 21 8.6343 21 9.16144L21 10C21.5523 10 22 10.4477 22 11V13C22 13.5523 21.5523 14 21 14L21 14.8386C21 15.3657 21 15.8205 20.9694 16.195C20.9371 16.5904 20.8658 16.9836 20.673 17.362C20.3854 17.9265 19.9265 18.3854 19.362 18.673C18.9836 18.8658 18.5904 18.9371 18.195 18.9694C17.8205 19 17.3657 19 16.8385 19Z" fill="#0000CC"/>
</svg>
