<svg width="24" height="24" viewBox="0 0 24 24" fill="none" xmlns="http://www.w3.org/2000/svg">
<path fill-rule="evenodd" clip-rule="evenodd" d="M16.8385 5H6.16146C5.63433 4.99998 5.17954 4.99997 4.80497 5.03057C4.40963 5.06287 4.01641 5.13419 3.63803 5.32698C3.07354 5.6146 2.6146 6.07354 2.32698 6.63803C2.13419 7.01641 2.06287 7.40963 2.03057 7.80497C1.99997 8.17954 1.99998 8.63429 2 9.16142V14.8385C1.99998 15.3657 1.99997 15.8205 2.03057 16.195C2.06287 16.5904 2.13419 16.9836 2.32698 17.362C2.6146 17.9265 3.07354 18.3854 3.63803 18.673C4.01641 18.8658 4.40963 18.9371 4.80497 18.9694C5.17954 19 5.6343 19 6.16145 19H16.8385C17.3657 19 17.8205 19 18.195 18.9694C18.5904 18.9371 18.9836 18.8658 19.362 18.673C19.9265 18.3854 20.3854 17.9265 20.673 17.362C20.8658 16.9836 20.9371 16.5904 20.9694 16.195C21 15.8205 21 15.3657 21 14.8386V14C21.5523 14 22 13.5523 22 13V11C22 10.4477 21.5523 10 21 10V9.16144C21 8.6343 21 8.17954 20.9694 7.80497C20.9371 7.40963 20.8658 7.01641 20.673 6.63803C20.3854 6.07354 19.9265 5.6146 19.362 5.32698C18.9836 5.13419 18.5904 5.06287 18.195 5.03057C17.8205 4.99997 17.3657 4.99998 16.8385 5ZM7.5 9C8.05229 9 8.5 9.44772 8.5 10V14C8.5 14.5523 8.05229 15 7.5 15C6.94772 15 6.5 14.5523 6.5 14V10C6.5 9.44772 6.94772 9 7.5 9Z" fill="#0000CC"/>
</svg>
