<svg width="24" height="24" viewBox="0 0 24 24" fill="none" xmlns="http://www.w3.org/2000/svg">
<path d="M6.16146 5H8.5V19H6.16145C5.63431 19 5.17955 19 4.80498 18.9694C4.40963 18.9371 4.01641 18.8658 3.63803 18.673C3.07355 18.3854 2.6146 17.9265 2.32698 17.362C2.13419 16.9836 2.06287 16.5904 2.03057 16.195C1.99997 15.8205 1.99998 15.3657 2 14.8386V9.16142C1.99998 8.63431 1.99997 8.17953 2.03057 7.80498C2.06287 7.40963 2.13419 7.01641 2.32698 6.63803C2.6146 6.07355 3.07355 5.6146 3.63803 5.32698C4.01641 5.13419 4.40963 5.06287 4.80498 5.03057C5.17953 4.99997 5.63434 4.99998 6.16146 5Z" fill="#0000CC"/>
<path d="M16.8385 19H14.5V5H16.8386C17.3657 4.99998 17.8205 4.99997 18.195 5.03057C18.5904 5.06287 18.9836 5.13419 19.362 5.32698C19.9265 5.6146 20.3854 6.07355 20.673 6.63803C20.8658 7.01641 20.9371 7.40963 20.9694 7.80498C21 8.17954 21 8.6343 21 9.16144V10C21.5523 10 22 10.4477 22 11V13C22 13.5523 21.5523 14 21 14V14.8386C21 15.3657 21 15.8205 20.9694 16.195C20.9371 16.5904 20.8658 16.9836 20.673 17.362C20.3854 17.9265 19.9265 18.3854 19.362 18.673C18.9836 18.8658 18.5904 18.9371 18.195 18.9694C17.8205 19 17.3657 19 16.8385 19Z" fill="#0000CC"/>
<path d="M12.5 6C12.5 5.44772 12.0523 5 11.5 5C10.9477 5 10.5 5.44772 10.5 6V15C10.5 15.5523 10.9477 16 11.5 16C12.0523 16 12.5 15.5523 12.5 15V6Z" fill="#0000CC"/>
<path d="M11.5 17C10.9477 17 10.5 17.4477 10.5 18C10.5 18.5523 10.9477 19 11.5 19H11.51C12.0623 19 12.51 18.5523 12.51 18C12.51 17.4477 12.0623 17 11.51 17H11.5Z" fill="#0000CC"/>
</svg>
