<svg width="24" height="24" viewBox="0 0 24 24" fill="none" xmlns="http://www.w3.org/2000/svg">
<path d="M13.9895 3.14148C14.053 2.69714 13.8126 2.26495 13.4017 2.08447C12.9907 1.90398 12.5098 2.01943 12.2256 2.36682L4.27206 12.0878C4.12107 12.2723 3.96771 12.4597 3.85616 12.6244C3.75013 12.7809 3.55825 13.0868 3.55475 13.4869C3.55072 13.946 3.75717 14.3817 4.11505 14.6693C4.42693 14.9199 4.78517 14.9651 4.97349 14.9822C5.17158 15.0002 5.41371 15.0001 5.65208 15.0001L10.8466 15.0001L10.0096 20.8586C9.94614 21.303 10.1865 21.7352 10.5975 21.9157C11.0084 22.0961 11.4893 21.9807 11.7735 21.6333L19.7271 11.9123C19.878 11.7278 20.0314 11.5405 20.143 11.3758C20.249 11.2192 20.4409 10.9133 20.4444 10.5132C20.4484 10.0541 20.242 9.61844 19.8841 9.33084C19.5722 9.0802 19.214 9.035 19.0256 9.01793C18.8275 8.99996 18.5854 9.00001 18.347 9.00005L13.1526 9.00006L13.9895 3.14148Z" fill="#0000CC"/>
</svg>
