<svg width="24" height="24" viewBox="0 0 24 24" fill="none" xmlns="http://www.w3.org/2000/svg">
<path d="M13 21.9506C18.0533 21.4489 22 17.1853 22 12C22 6.47715 17.5228 2 12 2C6.47715 2 2 6.47715 2 12C2 17.1853 5.94668 21.4489 11 21.9506V17H10C8.34315 17 7 15.6569 7 14V11C7 10.4477 7.44772 10 8 10H9V8C9 7.44772 9.44771 7 10 7C10.5523 7 11 7.44772 11 8V10H13V8C13 7.44772 13.4477 7 14 7C14.5523 7 15 7.44772 15 8V10H16C16.5523 10 17 10.4477 17 11V14C17 15.6569 15.6569 17 14 17H13V21.9506Z" fill="#0000CC"/>
</svg>
