<svg width="24" height="24" viewBox="0 0 24 24" fill="none" xmlns="http://www.w3.org/2000/svg">
<path d="M15.5778 2.65904C15.3301 2.94158 14.9911 3.34923 14.6998 3.81865C14.4007 4.30063 14 5.08383 14 6.01752C14 6.76709 14.1656 7.47668 14.4619 8.11282C14.3237 8.04075 14.1666 8 14 8C13.4477 8 13 8.44772 13 9V11H11V9C11 8.44772 10.5523 8 10 8C9.44771 8 9 8.44772 9 9V11H8C7.44772 11 7 11.4477 7 12V15C7 16.6569 8.34315 18 10 18H11V21.9506C5.94668 21.4489 2 17.1853 2 12C2 6.47715 6.47715 2 12 2C13.2607 2 14.4669 2.23329 15.5778 2.65904Z" fill="#0000CC"/>
<path d="M15 11V9.0079C15.9141 10.2194 17.369 11 19 11C20.0463 11 21.0201 10.6788 21.8252 10.1286C21.94 10.7348 22 11.3604 22 12C22 17.1853 18.0533 21.4489 13 21.9506V18H14C15.6569 18 17 16.6569 17 15V12C17 11.4477 16.5523 11 16 11H15Z" fill="#0000CC"/>
<path d="M19 9C20.6569 9 22 7.6647 22 6.01752C22 5.26112 21.3652 4.42759 20.8984 3.90182C20.3487 3.28265 18.9912 2 18.9912 2C18.9912 2 17.6981 3.28265 17.1484 3.90182C16.6817 4.42759 16 5.26112 16 6.01752C16 7.6647 17.3431 9 19 9Z" fill="#0000CC"/>
</svg>
