<svg width="24" height="24" viewBox="0 0 24 24" fill="none" xmlns="http://www.w3.org/2000/svg">
<path fill-rule="evenodd" clip-rule="evenodd" d="M12 22C17.5228 22 22 17.5228 22 12C22 6.47715 17.5228 2 12 2C6.47715 2 2 6.47715 2 12C2 17.5228 6.47715 22 12 22ZM13.3192 7.57355C13.6359 7.1211 13.5259 6.49757 13.0735 6.18085C12.621 5.86414 11.9975 5.97417 11.6808 6.42662L8.18077 11.4266C7.96694 11.7321 7.94083 12.1312 8.11302 12.4619C8.28522 12.7926 8.62713 13.0001 9 13.0001H13.0793L10.6808 16.4266C10.3641 16.8791 10.4741 17.5026 10.9265 17.8193C11.379 18.136 12.0025 18.026 12.3192 17.5735L15.8192 12.5735C16.0331 12.2681 16.0592 11.869 15.887 11.5383C15.7148 11.2075 15.3729 11.0001 15 11.0001H10.9207L13.3192 7.57355Z" fill="#0000CC"/>
</svg>
