<svg width="24" height="24" viewBox="0 0 24 24" fill="none" xmlns="http://www.w3.org/2000/svg">
<path d="M12 11C12.5523 11 13 11.4477 13 12L11 12C11 11.4477 11.4477 11 12 11Z" fill="#0000CC"/>
<path fill-rule="evenodd" clip-rule="evenodd" d="M12.6893 4C10.1141 4 7.90376 5.51707 6.80892 7.62107C3.91761 8.33361 2 10.877 2 13.6493C2 17.1653 4.87404 20 8.4 20L16.5 20C19.5382 20 22 17.5355 22 14.4969C22 12.4783 20.9071 10.5857 19.2384 9.60789C18.7677 6.42894 16.0089 4 12.6893 4ZM12 9C10.3431 9 9 10.3431 9 12V12.2679C8.62082 12.4869 8.32164 12.8257 8.15224 13.2346C8.0553 13.4687 8.02483 13.6944 8.01184 13.8848C7.99989 14.0599 7.99994 14.2665 8 14.4773C8 14.4937 8 14.5101 8 14.5265C7.99998 14.7365 7.99996 14.9411 8.01184 15.1152C8.02483 15.3056 8.0553 15.5313 8.15224 15.7654C8.35523 16.2554 8.74458 16.6448 9.23464 16.8478C9.46868 16.9447 9.6944 16.9752 9.88478 16.9882C10.0589 17 10.2635 17 10.4735 17H13.5265C13.7365 17 13.9411 17 14.1152 16.9882C14.3056 16.9752 14.5313 16.9447 14.7654 16.8478C15.2554 16.6448 15.6448 16.2554 15.8478 15.7654C15.9447 15.5313 15.9752 15.3056 15.9882 15.1152C16.0007 14.9308 16.0004 14.7458 16.0001 14.5609C16.0001 14.5318 16 14.5027 16 14.4735C16 14.2635 16 14.0589 15.9882 13.8848C15.9752 13.6944 15.9447 13.4687 15.8478 13.2346C15.6784 12.8257 15.3792 12.4869 15 12.2679V12C15 10.3431 13.6569 9 12 9Z" fill="#0000CC"/>
</svg>
