<svg width="24" height="24" viewBox="0 0 24 24" fill="none" xmlns="http://www.w3.org/2000/svg">
<path d="M3.70711 2.29289C3.31658 1.90237 2.68342 1.90237 2.29289 2.29289C1.90237 2.68342 1.90237 3.31658 2.29289 3.70711L6.34079 7.75501C3.71245 8.61411 2 11.0295 2 13.6493C2 17.1653 4.87404 20 8.4 20L16.5 20C17.1261 20 17.7277 19.8953 18.2883 19.7026L20.2929 21.7071C20.6834 22.0976 21.3166 22.0976 21.7071 21.7071C22.0976 21.3166 22.0976 20.6834 21.7071 20.2929L3.70711 2.29289Z" fill="#0000CC"/>
<path d="M22 14.4969C22 15.4471 21.7592 16.3412 21.3354 17.1214L9.21945 5.00543C10.2254 4.37293 11.4125 4 12.6893 4C16.0089 4 18.7677 6.42894 19.2384 9.60789C20.9071 10.5857 22 12.4783 22 14.4969Z" fill="#0000CC"/>
</svg>
