<svg width="24" height="24" viewBox="0 0 24 24" fill="none" xmlns="http://www.w3.org/2000/svg">
<path fill-rule="evenodd" clip-rule="evenodd" d="M2 12C2 8.68629 4.68629 6 8 6H10C10.5523 6 11 6.44772 11 7C11 7.55228 10.5523 8 10 8H8C5.79086 8 4 9.79086 4 12C4 14.2091 5.79086 16 8 16H10C10.5523 16 11 16.4477 11 17C11 17.5523 10.5523 18 10 18H8C4.68629 18 2 15.3137 2 12ZM13 7C13 6.44772 13.4477 6 14 6H16C19.3137 6 22 8.68629 22 12C22 15.3137 19.3137 18 16 18H14C13.4477 18 13 17.5523 13 17C13 16.4477 13.4477 16 14 16H16C18.2091 16 20 14.2091 20 12C20 9.79086 18.2091 8 16 8H14C13.4477 8 13 7.55228 13 7ZM7 12C7 11.4477 7.44772 11 8 11H16C16.5523 11 17 11.4477 17 12C17 12.5523 16.5523 13 16 13H8C7.44772 13 7 12.5523 7 12Z" fill="#0000CC"/>
</svg>
