<svg width="24" height="24" viewBox="0 0 24 24" fill="none" xmlns="http://www.w3.org/2000/svg">
<path fill-rule="evenodd" clip-rule="evenodd" d="M3.70711 2.29289C3.31658 1.90237 2.68342 1.90237 2.29289 2.29289C1.90237 2.68342 1.90237 3.31658 2.29289 3.70711L4.94642 6.36064C2.64407 7.19925 1 9.40763 1 12C1 15.3137 3.68629 18 7 18H9C11.0621 18 12.8812 16.9598 13.9612 15.3754L15.5033 16.9176C15.5011 16.9447 15.5 16.9722 15.5 17C15.5 17.5523 15.9477 18 16.5 18H16.5858L20.2929 21.7071C20.6834 22.0976 21.3166 22.0976 21.7071 21.7071C22.0976 21.3166 22.0976 20.6834 21.7071 20.2929L3.70711 2.29289ZM12.5085 13.9227L10.9367 12.3509C10.7946 12.7301 10.4288 13 10 13C9.44772 13 9 12.5523 9 12C9 11.5117 9.05833 11.0371 9.16839 10.5826L6.60504 8.01925C4.5813 8.21761 3 9.92414 3 12C3 14.2091 4.79086 16 7 16H9C10.5123 16 11.8285 15.1608 12.5085 13.9227Z" fill="#0000CC"/>
<path d="M19.4196 15.1855C20.38 14.4548 21 13.2998 21 12C21 9.79086 19.2091 8 17 8H15C14.2113 8 13.476 8.22824 12.8564 8.62226L11.4193 7.18513C12.4188 6.44064 13.6579 6 15 6H17C20.3137 6 23 8.68629 23 12C23 13.8518 22.1611 15.5077 20.8425 16.6083L19.4196 15.1855Z" fill="#0000CC"/>
</svg>
