<svg width="24" height="24" viewBox="0 0 24 24" fill="none" xmlns="http://www.w3.org/2000/svg">
<path fill-rule="evenodd" clip-rule="evenodd" d="M17.9504 6.73279C17.3316 6.37553 16.5692 6.37553 15.9504 6.73279C15.8583 6.78598 15.7377 6.87573 15.5179 7.08087C15.1142 7.45777 14.4814 7.43604 14.1046 7.03235C13.7277 6.62866 13.7494 5.99587 14.1531 5.61897C14.4129 5.37643 14.6633 5.16651 14.9504 5.00074C16.188 4.28621 17.7128 4.28621 18.9504 5.00074C19.4092 5.26559 19.8266 5.68347 20.3887 6.2462C20.4206 6.27817 20.4531 6.31061 20.486 6.34352C20.5189 6.37643 20.5513 6.40883 20.5833 6.44077C21.146 7.00289 21.5639 7.42032 21.8287 7.87906C22.5433 9.11666 22.5433 10.6415 21.8287 11.8791C21.5639 12.3378 21.146 12.7552 20.5833 13.3173C20.5513 13.3493 20.5189 13.3817 20.486 13.4146L17.6575 16.243C17.6246 16.2759 17.5922 16.3084 17.5603 16.3403C16.9982 16.9031 16.5807 17.3209 16.122 17.5858C14.8844 18.3003 13.3596 18.3003 12.122 17.5858C11.6633 17.3209 11.2458 16.9031 10.6837 16.3403C10.6518 16.3084 10.6194 16.2759 10.5865 16.243C10.5536 16.2101 10.5211 16.1777 10.4892 16.1458C9.92642 15.5837 9.50854 15.1662 9.24368 14.7075C8.52915 13.4699 8.52915 11.9451 9.24368 10.7075C9.40945 10.4204 9.61938 10.1699 9.86191 9.91013C10.2388 9.50644 10.8716 9.48471 11.2753 9.86161C11.679 10.2385 11.7007 10.8713 11.3238 11.275C11.1187 11.4947 11.0289 11.6154 10.9757 11.7075C10.6185 12.3263 10.6185 13.0887 10.9757 13.7075C11.0908 13.9068 11.2976 14.1257 12.0007 14.8288C12.7038 15.5319 12.9227 15.7387 13.122 15.8537C13.7408 16.211 14.5032 16.211 15.122 15.8537C15.3213 15.7387 15.5402 15.5319 16.2433 14.8288L19.0717 12.0004C19.7749 11.2973 19.9816 11.0783 20.0967 10.8791C20.454 10.2603 20.454 9.49786 20.0967 8.87906C19.9816 8.67977 19.7749 8.46085 19.0717 7.75774C18.3686 7.05462 18.1497 6.84785 17.9504 6.73279ZM10.8794 8.14701C10.2606 7.78974 9.49816 7.78974 8.87936 8.14701C8.68007 8.26207 8.46115 8.46884 7.75804 9.17195L4.92961 12.0004C4.2265 12.7035 4.01973 12.9224 3.90467 13.1217C3.5474 13.7405 3.5474 14.5029 3.90467 15.1217C4.01973 15.321 4.2265 15.5399 4.92961 16.243C5.63273 16.9461 5.85164 17.1529 6.05093 17.268C6.66973 17.6252 7.43213 17.6252 8.05093 17.268C8.14305 17.2148 8.2637 17.125 8.48343 16.9199C8.88712 16.543 9.51991 16.5647 9.89681 16.9684C10.2737 17.3721 10.252 18.0049 9.84829 18.3818C9.58851 18.6243 9.33806 18.8342 9.05093 19C7.81333 19.7145 6.28854 19.7145 5.05093 19C4.5922 18.7352 4.17476 18.3173 3.61264 17.7545C3.58071 17.7226 3.5483 17.6901 3.5154 17.6572C3.48249 17.6243 3.45005 17.5919 3.41807 17.56C2.85535 16.9979 2.43747 16.5804 2.17262 16.1217C1.45809 14.8841 1.45809 13.3593 2.17262 12.1217C2.43747 11.663 2.85535 11.2455 3.41808 10.6834C3.45005 10.6515 3.48249 10.6191 3.5154 10.5862L6.34383 7.75774C6.37673 7.72483 6.40914 7.69239 6.44107 7.66042C7.00319 7.09769 7.42063 6.67981 7.87936 6.41496C9.11696 5.70042 10.6418 5.70042 11.8794 6.41496C12.3381 6.67981 12.7555 7.09769 13.3176 7.66042C13.3496 7.69239 13.382 7.72483 13.4149 7.75774C13.4478 7.79064 13.4802 7.82305 13.5122 7.85498C14.0749 8.4171 14.4928 8.83454 14.7577 9.29327C15.4722 10.5309 15.4722 12.0557 14.7577 13.2933C14.5919 13.5804 14.382 13.8308 14.1394 14.0906C13.7626 14.4943 13.1298 14.516 12.7261 14.1391C12.3224 13.7622 12.3007 13.1295 12.6775 12.7258C12.8827 12.506 12.9724 12.3854 13.0256 12.2933C13.3829 11.6745 13.3829 10.9121 13.0256 10.2933C12.9106 10.094 12.7038 9.87506 12.0007 9.17195C11.2976 8.46884 11.0786 8.26207 10.8794 8.14701Z" fill="#0000CC"/>
</svg>
