<svg width="24" height="24" viewBox="0 0 24 24" fill="none" xmlns="http://www.w3.org/2000/svg">
<path fill-rule="evenodd" clip-rule="evenodd" d="M10.0681 2C11.356 2.00016 12.644 2 13.9319 2C14.1843 1.99997 14.4301 1.99994 14.6382 2.01695C14.8668 2.03563 15.1366 2.07969 15.408 2.21799C15.7843 2.40974 16.0903 2.7157 16.282 3.09202C16.4203 3.36345 16.4644 3.63318 16.4831 3.86178C16.5001 4.06994 16.5 4.31574 16.5 4.56812V6.43189C16.5 6.68427 16.5001 6.93007 16.4831 7.13824C16.4644 7.36683 16.4203 7.63656 16.282 7.90799C16.0903 8.28431 15.7843 8.59027 15.408 8.78202C15.1366 8.92032 14.8668 8.96438 14.6382 8.98306C14.4301 9.00007 14.1843 9.00004 13.9319 9.00001L13 9.00001V11H21C21.5523 11 22 11.4477 22 12C22 12.5523 21.5523 13 21 13H18.5V15L19.4319 15C19.6843 15 19.9301 14.9999 20.1382 15.0169C20.3668 15.0356 20.6366 15.0797 20.908 15.218C21.2843 15.4097 21.5903 15.7157 21.782 16.092C21.9203 16.3634 21.9644 16.6332 21.9831 16.8618C22.0001 17.0699 22 17.3157 22 17.5681V19.4319C22 19.6843 22.0001 19.9301 21.9831 20.1382C21.9644 20.3668 21.9203 20.6366 21.782 20.908C21.5903 21.2843 21.2843 21.5903 20.908 21.782C20.6366 21.9203 20.3668 21.9644 20.1382 21.9831C19.9301 22.0001 19.6843 22 19.4319 22H15.5681C15.3157 22 15.0699 22.0001 14.8618 21.9831C14.6332 21.9644 14.3634 21.9203 14.092 21.782C13.7157 21.5903 13.4097 21.2843 13.218 20.908C13.0797 20.6366 13.0356 20.3668 13.0169 20.1382C12.9999 19.9301 13 19.6843 13 19.4319V17.5681C13 17.3157 12.9999 17.0699 13.0169 16.8618C13.0356 16.6332 13.0797 16.3634 13.218 16.092C13.4097 15.7157 13.7157 15.4097 14.092 15.218C14.3634 15.0797 14.6332 15.0356 14.8618 15.0169C15.0699 14.9999 15.3157 15 15.5681 15L16.5 15V13H7.50001V15L8.43189 15C8.68428 15 8.93007 14.9999 9.13824 15.0169C9.36683 15.0356 9.63656 15.0797 9.90799 15.218C10.2843 15.4097 10.5903 15.7157 10.782 16.092C10.9203 16.3634 10.9644 16.6332 10.9831 16.8618C11.0001 17.0699 11 17.3157 11 17.5681V19.4319C11 19.6843 11.0001 19.9301 10.9831 20.1382C10.9644 20.3668 10.9203 20.6366 10.782 20.908C10.5903 21.2843 10.2843 21.5903 9.90799 21.782C9.63656 21.9203 9.36683 21.9644 9.13824 21.9831C8.93008 22.0001 8.6843 22 8.43192 22H4.56809C4.31571 22 4.06993 22.0001 3.86178 21.9831C3.63318 21.9644 3.36345 21.9203 3.09202 21.782C2.7157 21.5903 2.40974 21.2843 2.21799 20.908C2.07969 20.6366 2.03563 20.3668 2.01695 20.1382C1.99994 19.9301 1.99997 19.6843 2 19.4319V17.5681C1.99997 17.3157 1.99994 17.0699 2.01695 16.8618C2.03563 16.6332 2.07969 16.3634 2.21799 16.092C2.40974 15.7157 2.7157 15.4097 3.09202 15.218C3.36345 15.0797 3.63318 15.0356 3.86178 15.0169C4.06994 14.9999 4.31574 15 4.56812 15L5.50001 15V13H3.00001C2.44772 13 2.00001 12.5523 2.00001 12C2.00001 11.4477 2.44772 11 3.00001 11H11V9.00001C10.6894 9.00001 10.3787 8.99997 10.0681 9.00001C9.81572 9.00004 9.56993 9.00007 9.36178 8.98306C9.13318 8.96438 8.86345 8.92032 8.59202 8.78202C8.2157 8.59027 7.90974 8.28431 7.71799 7.90799C7.57969 7.63656 7.53563 7.36683 7.51695 7.13824C7.49994 6.93008 7.49997 6.68429 7.5 6.4319C7.50009 5.81185 7.50009 5.18938 7.5 4.56811C7.49997 4.31572 7.49994 4.06993 7.51695 3.86178C7.53563 3.63318 7.57969 3.36345 7.71799 3.09202C7.90974 2.7157 8.2157 2.40974 8.59202 2.21799C8.86345 2.07969 9.13318 2.03563 9.36178 2.01695C9.56993 1.99994 9.81572 1.99997 10.0681 2Z" fill="#0000CC"/>
</svg>
