<svg width="24" height="24" viewBox="0 0 24 24" fill="none" xmlns="http://www.w3.org/2000/svg">
<path fill-rule="evenodd" clip-rule="evenodd" d="M12 2C12.5523 2 13 2.44772 13 3V12C13 12.5523 12.5523 13 12 13C11.4477 13 11 12.5523 11 12V3C11 2.44772 11.4477 2 12 2ZM6.33809 4.93279C6.72868 5.32325 6.72878 5.95642 6.33832 6.34701C5.21976 7.46593 4.4581 8.8914 4.14963 10.4432C3.84116 11.995 3.99973 13.6034 4.60531 15.065C5.21089 16.5267 6.23627 17.7759 7.55181 18.6549C8.86734 19.5338 10.414 20.0029 11.9961 20.0029C13.5782 20.0029 15.1249 19.5338 16.4404 18.6549C17.7559 17.7759 18.7813 16.5267 19.3869 15.065C19.9925 13.6034 20.151 11.995 19.8426 10.4432C19.5341 8.8914 18.7724 7.46593 17.6539 6.34701C17.2634 5.95642 17.2635 5.32325 17.6541 4.93279C18.0447 4.54233 18.6779 4.54244 19.0683 4.93302C20.4665 6.33168 21.4186 8.11351 21.8042 10.0532C22.1898 11.993 21.9916 14.0035 21.2346 15.8305C20.4776 17.6576 19.1959 19.2192 17.5515 20.3179C15.907 21.4165 13.9738 22.0029 11.9961 22.0029C10.0184 22.0029 8.08516 21.4165 6.44074 20.3179C4.79631 19.2192 3.51459 17.6576 2.75762 15.8305C2.00064 14.0035 1.80242 11.993 2.18801 10.0532C2.57359 8.11351 3.52568 6.33168 4.92388 4.93302C5.31434 4.54244 5.9475 4.54233 6.33809 4.93279Z" fill="#0000CC"/>
</svg>
