<svg width="24" height="24" viewBox="0 0 24 24" fill="none" xmlns="http://www.w3.org/2000/svg">
<path d="M3.70711 2.29289C3.31658 1.90237 2.68342 1.90237 2.29289 2.29289C1.90237 2.68342 1.90237 3.31658 2.29289 3.70711L3.54633 4.96054C-0.0607119 9.28219 0.164454 15.7206 4.22183 19.778C4.61235 20.1685 5.24551 20.1685 5.63604 19.778C6.02656 19.3874 6.02656 18.7543 5.63604 18.3637C2.36037 15.0881 2.13758 9.91558 4.96767 6.38189L6.39316 7.80738C4.33767 10.5492 4.5567 14.4559 7.05025 16.9495C7.44078 17.34 8.07394 17.34 8.46447 16.9495C8.85499 16.559 8.85499 15.9258 8.46447 15.5353C6.75405 13.8249 6.54189 11.1835 7.82798 9.24219L9.2923 10.7065C9.10493 11.0981 9 11.5367 9 11.9998C9 13.6566 10.3431 14.9998 12 14.9998C12.4631 14.9998 12.9017 14.8949 13.2933 14.7075L20.2929 21.7071C20.6834 22.0976 21.3166 22.0976 21.7071 21.7071C22.0976 21.3166 22.0976 20.6834 21.7071 20.2929L3.70711 2.29289Z" fill="#0000CC"/>
<path d="M16.9464 12.7323L18.5871 14.3731C19.4757 11.9016 18.9299 9.03022 16.9497 7.05003C16.5592 6.65951 15.9261 6.65951 15.5355 7.05003C15.145 7.44056 15.145 8.07372 15.5355 8.46424C16.6987 9.62741 17.169 11.2211 16.9464 12.7323Z" fill="#0000CC"/>
<path d="M20.1138 15.8998L21.5964 17.3823C23.9498 13.1916 23.3438 7.78724 19.7782 4.22165C19.3876 3.83113 18.7545 3.83113 18.364 4.22165C17.9734 4.61217 17.9734 5.24534 18.364 5.63586C21.1402 8.41215 21.7235 12.551 20.1138 15.8998Z" fill="#0000CC"/>
</svg>
