<svg width="24" height="24" viewBox="0 0 24 24" fill="none" xmlns="http://www.w3.org/2000/svg">
<path fill-rule="evenodd" clip-rule="evenodd" d="M5.63604 2.22185C6.02656 2.61237 6.02656 3.24554 5.63604 3.63606C2.12132 7.15078 2.12132 12.8493 5.63604 16.364C6.02656 16.7545 6.02656 17.3877 5.63604 17.7782C5.24551 18.1687 4.61235 18.1687 4.22183 17.7782C-0.0739417 13.4824 -0.0739417 6.51762 4.22183 2.22185C4.61235 1.83132 5.24551 1.83132 5.63604 2.22185ZM18.3644 2.22185C18.7549 1.83132 19.3881 1.83132 19.7786 2.22185C24.0744 6.51762 24.0744 13.4824 19.7786 17.7782C19.3881 18.1687 18.7549 18.1687 18.3644 17.7782C17.9739 17.3877 17.9739 16.7545 18.3644 16.364C21.8791 12.8493 21.8791 7.15078 18.3644 3.63606C17.9739 3.24554 17.9739 2.61237 18.3644 2.22185ZM8.46469 5.05022C8.85521 5.44074 8.85521 6.07391 8.46469 6.46443C6.51207 8.41705 6.51207 11.5829 8.46469 13.5355C8.85521 13.926 8.85521 14.5592 8.46469 14.9497C8.07416 15.3402 7.441 15.3402 7.05047 14.9497C4.3168 12.216 4.3168 7.78389 7.05047 5.05022C7.441 4.65969 8.07416 4.65969 8.46469 5.05022ZM15.5358 5.05022C15.9263 4.65969 16.5595 4.65969 16.95 5.05022C19.6837 7.78389 19.6837 12.216 16.95 14.9497C16.5595 15.3402 15.9263 15.3402 15.5358 14.9497C15.1453 14.5592 15.1453 13.926 15.5358 13.5355C17.4884 11.5829 17.4884 8.41705 15.5358 6.46443C15.1453 6.07391 15.1453 5.44074 15.5358 5.05022ZM9.00022 10C9.00022 8.34315 10.3434 7 12.0002 7C13.6571 7 15.0002 8.34315 15.0002 10C15.0002 11.3062 14.1654 12.4175 13.0002 12.8293V21C13.0002 21.5523 12.5525 22 12.0002 22C11.4479 22 11.0002 21.5523 11.0002 21V12.8293C9.83503 12.4175 9.00022 11.3062 9.00022 10Z" fill="#0000CC"/>
</svg>
