<svg width="24" height="24" viewBox="0 0 24 24" fill="none" xmlns="http://www.w3.org/2000/svg">
<path d="M20.8072 16.5931L19.3752 15.1612C21.8386 11.6502 21.5017 6.77307 18.3644 3.63582C17.9739 3.24529 17.9739 2.61213 18.3644 2.2216C18.7549 1.83108 19.3881 1.83108 19.7786 2.2216C23.6987 6.14166 24.0415 12.2843 20.8072 16.5931Z" fill="#0000CC"/>
<path d="M2.70255 4.11677C0.00613236 8.36942 0.512556 14.0687 4.22183 17.778C4.61235 18.1685 5.24551 18.1685 5.63604 17.778C6.02656 17.3874 6.02656 16.7543 5.63604 16.3637C2.7127 13.4404 2.22082 9.00635 4.16041 5.57463L5.64547 7.05969C4.44851 9.64754 4.91685 12.8158 7.05047 14.9495C7.441 15.34 8.07416 15.34 8.46469 14.9495C8.85521 14.5589 8.85521 13.9258 8.46469 13.5353C7.13126 12.2018 6.70842 10.3026 7.19616 8.61038L9.03343 10.4476C9.19926 11.5555 9.97081 12.4652 11.0002 12.8291V20.9998C11.0002 21.552 11.4479 21.9998 12.0002 21.9998C12.5525 21.9998 13.0002 21.552 13.0002 20.9998V14.4144L20.2929 21.7071C20.6834 22.0976 21.3166 22.0976 21.7071 21.7071C22.0976 21.3166 22.0976 20.6834 21.7071 20.2929L3.70711 2.29289C3.31658 1.90237 2.68342 1.90237 2.29289 2.29289C1.90237 2.68342 1.90237 3.31658 2.29289 3.70711L2.70255 4.11677Z" fill="#0000CC"/>
<path d="M17.9325 13.7185L16.4659 12.2518C17.4119 10.3768 17.1019 8.03027 15.5358 6.46419C15.1453 6.07366 15.1453 5.4405 15.5358 5.04997C15.9263 4.65945 16.5595 4.65945 16.95 5.04997C19.3032 7.40318 19.6307 11.015 17.9325 13.7185Z" fill="#0000CC"/>
<path d="M11.2967 7.0827L14.9173 10.7033C14.9715 10.4776 15.0002 10.242 15.0002 9.99976C15.0002 8.3429 13.6571 6.99976 12.0002 6.99976C11.7579 6.99976 11.5224 7.02848 11.2967 7.0827Z" fill="#0000CC"/>
</svg>
