<svg width="24" height="24" viewBox="0 0 24 24" fill="none" xmlns="http://www.w3.org/2000/svg">
<path fill-rule="evenodd" clip-rule="evenodd" d="M12.8946 4.02495C12.5261 3.28791 11.4743 3.28791 11.1057 4.02495L8.89458 8.44725C8.64759 8.94123 8.04692 9.14145 7.55294 8.89446C7.05896 8.64747 6.85874 8.0468 7.10573 7.55282L9.31687 3.13053C10.4224 0.919382 13.5779 0.919381 14.6834 3.13053L15.8149 5.39348L16.0515 4.6838C16.2261 4.15986 16.7924 3.8767 17.3164 4.05135C17.8403 4.226 18.1235 4.79232 17.9488 5.31626L16.9488 8.31626C16.865 8.56787 16.6846 8.77585 16.4474 8.89446C16.2102 9.01307 15.9355 9.03259 15.6839 8.94872L12.6839 7.94872C12.16 7.77407 11.8768 7.20775 12.0515 6.6838C12.2261 6.15986 12.7924 5.8767 13.3164 6.05135L14.0261 6.28791L12.8946 4.02495ZM11.9474 9.60563C12.4413 9.85262 12.6416 10.4533 12.3946 10.9473L11.6182 12.5001H14.0002C14.3467 12.5001 14.6686 12.6795 14.8508 12.9743C15.033 13.2691 15.0496 13.6373 14.8946 13.9473L13.3946 16.9473C13.1476 17.4413 12.5469 17.6415 12.0529 17.3945C11.559 17.1475 11.3587 16.5468 11.6057 16.0528L12.3821 14.5001H10.0002C9.65358 14.5001 9.33171 14.3206 9.1495 14.0258C8.9673 13.731 8.95073 13.3628 9.10573 13.0528L10.6057 10.0528C10.8527 9.55887 11.4534 9.35864 11.9474 9.60563ZM5.84632 11.6435C6.31939 11.9285 6.47185 12.543 6.18685 13.0161L3.82832 16.931C3.65596 17.2171 3.65875 17.6049 3.86618 17.9642C4.07361 18.3234 4.40804 18.5197 4.74199 18.5135L6.85484 18.4742L6.36213 18.0112C5.95968 17.6329 5.94003 17.0001 6.31825 16.5976C6.69647 16.1952 7.32933 16.1755 7.73178 16.5537L10.0151 18.6996C10.4005 19.0618 10.4372 19.6614 10.0989 20.068L8.24892 22.2908C7.89562 22.7153 7.26509 22.773 6.84059 22.4197C6.4161 22.0664 6.35838 21.4358 6.71168 21.0113L7.16324 20.4688L4.77923 20.5132C3.58995 20.5353 2.63687 19.8349 2.13413 18.9642C1.63139 18.0934 1.50137 16.9178 2.11519 15.8989L4.47372 11.984C4.75872 11.511 5.37325 11.3585 5.84632 11.6435ZM18.154 11.6435C18.6271 11.3585 19.2416 11.511 19.5266 11.984L21.8851 15.8989C22.4989 16.9178 22.3689 18.0934 21.8662 18.9642C21.3634 19.8349 20.4104 20.5353 19.2211 20.5132L16.8371 20.4688L17.2886 21.0113C17.6419 21.4358 17.5842 22.0664 17.1597 22.4197C16.7352 22.773 16.1047 22.7153 15.7514 22.2908L13.9014 20.068C13.5631 19.6614 13.5998 19.0618 13.9852 18.6996L16.2685 16.5537C16.671 16.1755 17.3038 16.1952 17.6821 16.5976C18.0603 17.0001 18.0406 17.6329 17.6382 18.0112L17.1455 18.4742L19.2583 18.5135C19.5923 18.5197 19.9267 18.3234 20.1341 17.9642C20.3416 17.6049 20.3443 17.2171 20.172 16.931L17.8135 13.0161C17.5285 12.543 17.6809 11.9285 18.154 11.6435Z" fill="#0000CC"/>
</svg>
