<svg width="24" height="24" viewBox="0 0 24 24" fill="none" xmlns="http://www.w3.org/2000/svg">
<path opacity="0.3" fill-rule="evenodd" clip-rule="evenodd" d="M6.16146 5H16.8385C17.3657 4.99998 17.8205 4.99997 18.195 5.03057C18.5904 5.06287 18.9836 5.13419 19.362 5.32698C19.9265 5.6146 20.3854 6.07354 20.673 6.63803C20.8658 7.01641 20.9371 7.40963 20.9694 7.80497C21 8.17954 21 8.6343 21 9.16144V10C21.5523 10 22 10.4477 22 11V13C22 13.5523 21.5523 14 21 14V14.8386C21 15.3657 21 15.8205 20.9694 16.195C20.9371 16.5904 20.8658 16.9836 20.673 17.362C20.3854 17.9265 19.9265 18.3854 19.362 18.673C18.9836 18.8658 18.5904 18.9371 18.195 18.9694C17.8205 19 17.3657 19 16.8385 19H6.16148C5.63432 19 5.17955 19 4.80497 18.9694C4.40963 18.9371 4.01641 18.8658 3.63803 18.673C3.07354 18.3854 2.6146 17.9265 2.32698 17.362C2.13419 16.9836 2.06287 16.5904 2.03057 16.195C1.99997 15.8205 1.99998 15.3657 2 14.8385V9.16146C1.99998 8.63431 1.99997 8.17955 2.03057 7.80497C2.06287 7.40963 2.13419 7.01641 2.32698 6.63803C2.6146 6.07354 3.07354 5.6146 3.63803 5.32698C4.01641 5.13419 4.40963 5.06287 4.80497 5.03057C5.17955 4.99997 5.63431 4.99998 6.16146 5Z" fill="#0000CC"/>
</svg>
