<svg width="24" height="24" viewBox="0 0 24 24" fill="none" xmlns="http://www.w3.org/2000/svg">
<path opacity="0.3" fill-rule="evenodd" clip-rule="evenodd" d="M7.61732 1.07615C7.99099 0.921369 8.42111 1.00692 8.70711 1.29292L13.7071 6.29292C14.0976 6.68345 14.0976 7.31661 13.7071 7.70714L9.41421 12L13.7071 16.2929C14.0976 16.6834 14.0976 17.3166 13.7071 17.7071L8.70711 22.7071C8.42111 22.9931 7.99099 23.0787 7.61732 22.9239C7.24364 22.7691 7 22.4045 7 22V14.4142L3.70711 17.7071C3.31658 18.0977 2.68342 18.0977 2.29289 17.7071C1.90237 17.3166 1.90237 16.6834 2.29289 16.2929L6.58579 12L2.29289 7.70714C1.90237 7.31661 1.90237 6.68345 2.29289 6.29292C2.68342 5.9024 3.31658 5.9024 3.70711 6.29292L7 9.58582V2.00003C7 1.59557 7.24364 1.23093 7.61732 1.07615ZM9 14.4142L11.5858 17L9 19.5858V14.4142ZM9 9.58582V4.41424L11.5858 7.00003L9 9.58582Z" fill="#0000CC"/>
<path d="M19.0277 5.63444C19.5058 5.35789 20.1175 5.52126 20.394 5.99932C21.4156 7.76538 22 9.81598 22 12C22 14.1841 21.4156 16.2347 20.394 18.0008C20.1175 18.4788 19.5058 18.6422 19.0277 18.3656C18.5496 18.0891 18.3863 17.4774 18.6628 16.9993C19.5131 15.5295 20 13.8231 20 12C20 10.1769 19.5131 8.47062 18.6628 7.00077C18.3863 6.52271 18.5496 5.91098 19.0277 5.63444Z" fill="#0000CC"/>
<path d="M15.8973 8.09678C16.3962 7.8598 16.9927 8.07209 17.2297 8.57095C17.724 9.61145 18 10.7749 18 12C18 13.2252 17.724 14.3886 17.2297 15.4291C16.9927 15.928 16.3962 16.1403 15.8973 15.9033C15.3985 15.6663 15.1862 15.0698 15.4231 14.571C15.7927 13.7929 16 12.9221 16 12C16 11.078 15.7927 10.2071 15.4231 9.42914C15.1862 8.93028 15.3985 8.33376 15.8973 8.09678Z" fill="#0000CC"/>
</svg>
