<svg width="24" height="24" viewBox="0 0 24 24" fill="none" xmlns="http://www.w3.org/2000/svg">
<g opacity="0.3">
<path d="M14.8242 10.59L17.7071 7.70714C18.0976 7.31661 18.0976 6.68345 17.7071 6.29292L12.7071 1.29292C12.4211 1.00692 11.991 0.921369 11.6173 1.07615C11.2436 1.23093 11 1.59557 11 2.00003V6.76584L13 8.76584V4.41424L15.5858 7.00003L13.41 9.17583L14.8242 10.59Z" fill="#0000CC"/>
<path d="M17 18.4142L15.5858 17L13 19.5858V14.4142L10.5858 12L6.29289 16.2929C5.90237 16.6834 5.90237 17.3166 6.29289 17.7071C6.68342 18.0977 7.31658 18.0977 7.70711 17.7071L11 14.4142V22C11 22.4045 11.2436 22.7691 11.6173 22.9239C11.991 23.0787 12.4211 22.9931 12.7071 22.7071L17 18.4142Z" fill="#0000CC"/>
</g>
<path fill-rule="evenodd" clip-rule="evenodd" d="M2.29289 2.29289C2.68342 1.90237 3.31658 1.90237 3.70711 2.29289L21.7071 20.2929C22.0976 20.6834 22.0976 21.3166 21.7071 21.7071C21.3166 22.0976 20.6834 22.0976 20.2929 21.7071L2.29289 3.70711C1.90237 3.31658 1.90237 2.68342 2.29289 2.29289Z" fill="#0000CC"/>
</svg>
