<svg width="24" height="24" viewBox="0 0 24 24" fill="none" xmlns="http://www.w3.org/2000/svg">
<g opacity="0.3">
<path d="M15.5778 2.65904C15.3301 2.94158 14.9911 3.34923 14.6998 3.81865C14.4007 4.30063 14 5.08383 14 6.01752C14 6.76709 14.1656 7.47668 14.4619 8.11282C14.3237 8.04075 14.1666 8 14 8C13.4477 8 13 8.44772 13 9V11H11V9C11 8.44772 10.5523 8 10 8C9.44771 8 9 8.44772 9 9V11H8C7.44772 11 7 11.4477 7 12V15C7 16.6569 8.34315 18 10 18H11V21.9506C5.94668 21.4489 2 17.1853 2 12C2 6.47715 6.47715 2 12 2C13.2607 2 14.4669 2.23329 15.5778 2.65904Z" fill="#0000CC"/>
<path d="M15 11V9.0079C15.9141 10.2194 17.369 11 19 11C20.0463 11 21.0201 10.6788 21.8252 10.1286C21.94 10.7348 22 11.3604 22 12C22 17.1853 18.0533 21.4489 13 21.9506V18H14C15.6569 18 17 16.6569 17 15V12C17 11.4477 16.5523 11 16 11H15Z" fill="#0000CC"/>
</g>
<path d="M22 6.01752C22 7.6647 20.6569 9 19 9C17.3431 9 16 7.6647 16 6.01752C16 5.26112 16.6817 4.42759 17.1484 3.90182C17.6981 3.28265 18.9912 2 18.9912 2C18.9912 2 20.3487 3.28265 20.8984 3.90182C21.3652 4.42759 22 5.26112 22 6.01752Z" fill="#0000CC"/>
<path d="M15 9.00789C14.7909 8.7307 14.61 8.43094 14.4619 8.11281C14.3237 8.04074 14.1666 8 14 8C13.4477 8 13 8.44771 13 9V11H11V9C11 8.44771 10.5523 8 10 8C9.44772 8 9 8.44771 9 9V11H8C7.44772 11 7 11.4477 7 12V13.8386C6.99998 14.3657 6.99997 14.8205 7.03057 15.195C7.06287 15.5904 7.13419 15.9836 7.32698 16.362C7.6146 16.9265 8.07355 17.3854 8.63803 17.673C9.01641 17.8658 9.40963 17.9371 9.80498 17.9694C10.1408 17.9969 10.541 17.9997 11 18V21.9506C11.3289 21.9833 11.6625 22 12 22C12.3375 22 12.6711 21.9833 13 21.9506V18C13.459 17.9997 13.8593 17.9969 14.195 17.9694C14.5904 17.9371 14.9836 17.8658 15.362 17.673C15.9265 17.3854 16.3854 16.9265 16.673 16.362C16.8658 15.9836 16.9371 15.5904 16.9694 15.195C17 14.8205 17 14.3657 17 13.8385V12C17 11.4477 16.5523 11 16 11H15V9.00789Z" fill="#0000CC"/>
</svg>
