<svg width="24" height="24" viewBox="0 0 24 24" fill="none" xmlns="http://www.w3.org/2000/svg">
<circle opacity="0.3" cx="12" cy="12" r="10" fill="#0000CC"/>
<path fill-rule="evenodd" clip-rule="evenodd" d="M11 21.9506V17C10.541 16.9997 10.1408 16.9969 9.80497 16.9694C9.40963 16.9371 9.01641 16.8658 8.63803 16.673C8.07354 16.3854 7.6146 15.9265 7.32698 15.362C7.13419 14.9836 7.06287 14.5904 7.03057 14.195C6.99997 13.8205 6.99998 13.3657 7 12.8386V11C7 10.4477 7.44772 10 8 10H9V8C9 7.44772 9.44772 7 10 7C10.5523 7 11 7.44772 11 8V10H13V8C13 7.44772 13.4477 7 14 7C14.5523 7 15 7.44772 15 8V10H16C16.5523 10 17 10.4477 17 11V12.8385C17 13.3657 17 13.8205 16.9694 14.195C16.9371 14.5904 16.8658 14.9836 16.673 15.362C16.3854 15.9265 15.9265 16.3854 15.362 16.673C14.9836 16.8658 14.5904 16.9371 14.195 16.9694C13.8593 16.9969 13.459 16.9997 13 17V21.9506C12.6711 21.9833 12.3375 22 12 22C11.6625 22 11.3289 21.9833 11 21.9506Z" fill="#0000CC"/>
</svg>
