<svg width="24" height="24" viewBox="0 0 24 24" fill="none" xmlns="http://www.w3.org/2000/svg">
<path opacity="0.3" fill-rule="evenodd" clip-rule="evenodd" d="M12.6893 4C10.1141 4 7.90376 5.51707 6.80892 7.62107C3.91761 8.33361 2 10.877 2 13.6493C2 17.1653 4.87404 20 8.4 20L16.5 20C19.5382 20 22 17.5355 22 14.4969C22 12.4783 20.9071 10.5857 19.2384 9.60789C18.7677 6.42894 16.0089 4 12.6893 4Z" fill="#0000CC"/>
<path fill-rule="evenodd" clip-rule="evenodd" d="M9.00001 12C9.00001 10.3431 10.3432 9 12 9C13.6569 9 15 10.3431 15 12V12.2679C15.3792 12.4869 15.6784 12.8257 15.8478 13.2346C15.9447 13.4687 15.9752 13.6944 15.9882 13.8848C16.0001 14.0589 16 14.2635 16 14.4735L16.0001 14.5609C16.0004 14.7458 16.0008 14.9308 15.9882 15.1152C15.9752 15.3056 15.9447 15.5313 15.8478 15.7654C15.6448 16.2554 15.2554 16.6448 14.7654 16.8478C14.5313 16.9447 14.3056 16.9752 14.1152 16.9882C13.9412 17 13.7365 17 13.5265 17H10.4735C10.2635 17 10.0589 17 9.88479 16.9882C9.69442 16.9752 9.46869 16.9447 9.23465 16.8478C8.74459 16.6448 8.35524 16.2554 8.15226 15.7654C8.05531 15.5313 8.02484 15.3056 8.01185 15.1152C7.99997 14.9411 7.99999 14.7365 8.00001 14.5265L8.00001 14.4773C7.99995 14.2665 7.9999 14.0599 8.01185 13.8848C8.02484 13.6944 8.05531 13.4687 8.15226 13.2346C8.32165 12.8257 8.62083 12.4869 9.00001 12.2679V12ZM13 12C13 11.4477 12.5523 11 12 11C11.4477 11 11 11.4477 11 12L13 12Z" fill="#0000CC"/>
</svg>
