<svg width="24" height="24" viewBox="0 0 24 24" fill="none" xmlns="http://www.w3.org/2000/svg">
<path opacity="0.3" fill-rule="evenodd" clip-rule="evenodd" d="M12.6893 4C10.1141 4 7.90376 5.51707 6.80892 7.62107C3.91761 8.33361 2 10.877 2 13.6493C2 17.1653 4.87404 20 8.4 20L16.5 20C19.5382 20 22 17.5355 22 14.4969C22 12.4783 20.9071 10.5857 19.2384 9.60789C18.7677 6.42894 16.0089 4 12.6893 4Z" fill="#0000CC"/>
<path fill-rule="evenodd" clip-rule="evenodd" d="M12.4675 9.25C12.0029 9.25 11.61 9.56774 11.499 9.99926C11.3613 10.5341 10.8161 10.8561 10.2813 10.7184C9.7464 10.5808 9.42442 10.0356 9.56208 9.50074C9.89505 8.20704 11.0683 7.25 12.4675 7.25C14.1244 7.25 15.4675 8.59315 15.4675 10.25C15.4675 11.1814 15.013 11.7993 14.537 12.2587C14.3441 12.4449 14.1245 12.6269 13.9272 12.7905L13.8414 12.8616C13.611 13.0533 13.3905 13.2413 13.1746 13.4571C12.7841 13.8476 12.1509 13.8476 11.7604 13.4571C11.3699 13.0666 11.3699 12.4334 11.7604 12.0429C12.0446 11.7587 12.3241 11.5223 12.5624 11.324L12.6539 11.248C12.8585 11.0782 13.0137 10.9494 13.1481 10.8197C13.422 10.5553 13.4675 10.4232 13.4675 10.25C13.4675 9.69772 13.0198 9.25 12.4675 9.25ZM13.4702 15.75C13.4702 16.3023 13.0225 16.75 12.4702 16.75C11.9179 16.75 11.4702 16.3023 11.4702 15.75C11.4702 15.1977 11.9179 14.75 12.4702 14.75C13.0225 14.75 13.4702 15.1977 13.4702 15.75Z" fill="#0000CC"/>
</svg>
