<svg width="24" height="24" viewBox="0 0 24 24" fill="none" xmlns="http://www.w3.org/2000/svg">
<g opacity="0.3">
<path d="M2.83213 16H6.27627C6.45047 17.2075 6.70477 18.329 7.03262 19.3125C7.22918 19.9022 7.47156 20.5016 7.77401 21.0657C5.57224 20.0376 3.80693 18.231 2.83213 16Z" fill="#0000CC"/>
<path d="M2.83203 8H6.27623C6.45044 6.79243 6.70475 5.67086 7.03262 4.68724C7.22918 4.09758 7.47156 3.49814 7.77401 2.93408C5.57217 3.96222 3.80681 5.76888 2.83203 8Z" fill="#0000CC"/>
<path d="M17.7237 16H21.1679C20.1931 18.231 18.4277 20.0376 16.226 21.0657C16.5284 20.5016 16.7708 19.9022 16.9674 19.3125C17.2952 18.329 17.5495 17.2075 17.7237 16Z" fill="#0000CC"/>
<path d="M21.168 8H17.7238C17.5495 6.79243 17.2952 5.67086 16.9674 4.68724C16.7708 4.09758 16.5284 3.49814 16.226 2.93408C18.4278 3.96222 20.1932 5.76888 21.168 8Z" fill="#0000CC"/>
</g>
<path d="M12 2C11.1481 2 10.4956 2.51889 10.0469 3.08829C9.58923 3.66896 9.22085 4.44724 8.93 5.31981C8.66852 6.10424 8.45504 7.00968 8.29887 8H15.7011C15.545 7.00968 15.3315 6.10424 15.07 5.31981C14.7791 4.44724 14.4108 3.66896 13.9531 3.08829C13.5044 2.51889 12.8519 2 12 2Z" fill="#0000CC"/>
<path d="M8.0716 10C8.02453 10.6472 8 11.3165 8 12C8 12.6835 8.02453 13.3528 8.0716 14H15.9284C15.9755 13.3528 16 12.6835 16 12C16 11.3165 15.9755 10.6472 15.9284 10H8.0716Z" fill="#0000CC"/>
<path d="M8.93 18.6802C8.66852 17.8958 8.45504 16.9903 8.29887 16H15.7011C15.545 16.9903 15.3315 17.8958 15.07 18.6802C14.7791 19.5528 14.4108 20.331 13.9531 20.9117C13.5044 21.4811 12.8519 22 12 22C11.1481 22 10.4956 21.4811 10.0469 20.9117C9.58923 20.331 9.22085 19.5528 8.93 18.6802Z" fill="#0000CC"/>
<path d="M6 11.9999C6 12.6771 6.02252 13.3461 6.06671 14H2.20006C2.06887 13.3537 2 12.6849 2 11.9999C2 11.315 2.06885 10.6462 2.20001 10H6.0667C6.02252 10.6538 6 11.3227 6 11.9999Z" fill="#0000CC"/>
<path d="M18 11.9999C18 12.6771 17.9775 13.3461 17.9333 14H21.7999C21.9311 13.3537 22 12.6849 22 11.9999C22 11.315 21.9311 10.6462 21.8 10H17.9333C17.9775 10.6538 18 11.3227 18 11.9999Z" fill="#0000CC"/>
</svg>
