<svg width="24" height="24" viewBox="0 0 24 24" fill="none" xmlns="http://www.w3.org/2000/svg">
<path opacity="0.3" d="M6.70851 16C5.04873 14.535 4 12.3903 4 10C4 5.58172 7.58172 2 12 2C16.4183 2 20 5.58172 20 10C20 12.3903 18.9513 14.535 17.2915 16H6.70851Z" fill="#0000CC"/>
<path d="M11 7C11 6.44772 11.4477 6 12 6C12.5523 6 13 6.44772 13 7V10C13 10.5523 12.5523 11 12 11C11.4477 11 11 10.5523 11 10V7Z" fill="#0000CC"/>
<path d="M13 13C13 13.5523 12.5523 14 12 14C11.4477 14 11 13.5523 11 13C11 12.4477 11.4477 12 12 12C12.5523 12 13 12.4477 13 13Z" fill="#0000CC"/>
<path d="M8 18H16V18.032C16 18.4707 16 18.8491 15.9787 19.1624C15.9561 19.4922 15.9066 19.8221 15.7716 20.1481C15.4672 20.8831 14.8831 21.4672 14.1481 21.7716C13.8221 21.9066 13.4922 21.9561 13.1624 21.9787C12.8491 22 12.4706 22 12.032 22H11.968C11.5294 22 11.1509 22 10.8376 21.9787C10.5078 21.9561 10.1779 21.9066 9.85195 21.7716C9.11687 21.4672 8.53284 20.8831 8.22836 20.1481C8.09336 19.8221 8.04386 19.4922 8.02135 19.1624C7.99998 18.8491 7.99999 18.4706 8 18.032V18Z" fill="#0000CC"/>
</svg>
