<svg width="24" height="24" viewBox="0 0 24 24" fill="none" xmlns="http://www.w3.org/2000/svg">
<g opacity="0.3">
<path d="M16.5858 18L15.5033 16.9176C15.5011 16.9447 15.5 16.9722 15.5 17C15.5 17.5523 15.9477 18 16.5 18H16.5858Z" fill="#0000CC"/>
<path d="M13.9612 15.3754L12.5085 13.9227C11.8285 15.1608 10.5123 16 9 16H7C4.79086 16 3 14.2091 3 12C3 9.92414 4.5813 8.21761 6.60504 8.01925L4.94642 6.36064C2.64407 7.19925 1 9.40763 1 12C1 15.3137 3.68629 18 7 18H9C11.0621 18 12.8812 16.9598 13.9612 15.3754Z" fill="#0000CC"/>
<path d="M9.16839 10.5826C9.05833 11.0371 9 11.5117 9 12C9 12.5523 9.44772 13 10 13C10.4288 13 10.7946 12.7301 10.9367 12.3509L9.16839 10.5826Z" fill="#0000CC"/>
<path d="M21 12C21 13.2998 20.38 14.4548 19.4196 15.1855L20.8425 16.6083C22.1611 15.5077 23 13.8518 23 12C23 8.68629 20.3137 6 17 6H15C13.6579 6 12.4188 6.44064 11.4193 7.18513L12.8564 8.62226C13.476 8.22824 14.2113 8 15 8H17C19.2091 8 21 9.79086 21 12Z" fill="#0000CC"/>
</g>
<path fill-rule="evenodd" clip-rule="evenodd" d="M2.29289 2.29289C2.68342 1.90237 3.31658 1.90237 3.70711 2.29289L21.7071 20.2929C22.0976 20.6834 22.0976 21.3166 21.7071 21.7071C21.3166 22.0976 20.6834 22.0976 20.2929 21.7071L2.29289 3.70711C1.90237 3.31658 1.90237 2.68342 2.29289 2.29289Z" fill="#0000CC"/>
</svg>
