<svg width="24" height="24" viewBox="0 0 24 24" fill="none" xmlns="http://www.w3.org/2000/svg">
<path opacity="0.3" d="M2 15V13.4649C2.58835 13.8052 3.27143 14 4 14H20V5C20 4.44772 19.5523 4 19 4H14.5732C14.3173 3.27583 13.9533 2.6027 13.5005 2H19C20.6569 2 22 3.34315 22 5V15C22 16.6569 20.6569 18 19 18H13V20H16C16.5523 20 17 20.4477 17 21C17 21.5523 16.5523 22 16 22H8C7.44772 22 7 21.5523 7 21C7 20.4477 7.44772 20 8 20H11V18H5C3.34315 18 2 16.6569 2 15Z" fill="#0000CC"/>
<path d="M8 2C8 1.44772 7.55228 1 7 1C6.44772 1 6 1.44772 6 2V2.41667C6 2.96895 6.44772 3.41667 7 3.41667C7.55228 3.41667 8 2.96895 8 2.41667V2Z" fill="#0000CC"/>
<path d="M4.17224 2.75754C3.78172 2.36702 3.14856 2.36702 2.75803 2.75754C2.36751 3.14807 2.36751 3.78123 2.75803 4.17176L3.05266 4.46638C3.44318 4.85691 4.07635 4.85691 4.46687 4.46638C4.8574 4.07586 4.8574 3.44269 4.46687 3.05217L4.17224 2.75754Z" fill="#0000CC"/>
<path d="M11.242 4.17176C11.6325 3.78123 11.6325 3.14807 11.242 2.75754C10.8514 2.36702 10.2183 2.36702 9.82776 2.75754L9.53313 3.05217C9.1426 3.44269 9.1426 4.07586 9.53313 4.46638C9.92365 4.85691 10.5568 4.85691 10.9473 4.46638L11.242 4.17176Z" fill="#0000CC"/>
<path d="M7 4C5.34315 4 4 5.34315 4 7C4 8.65685 5.34315 10 7 10C8.65685 10 10 8.65685 10 7C10 5.34315 8.65685 4 7 4Z" fill="#0000CC"/>
<path d="M2 6C1.44772 6 1 6.44772 1 7C1 7.55228 1.44772 8 2 8H2.41667C2.96895 8 3.41667 7.55228 3.41667 7C3.41667 6.44772 2.96895 6 2.41667 6H2Z" fill="#0000CC"/>
<path d="M11.583 6C11.0307 6 10.583 6.44772 10.583 7C10.583 7.55228 11.0307 8 11.583 8H11.9997C12.552 8 12.9997 7.55228 12.9997 7C12.9997 6.44772 12.552 6 11.9997 6H11.583Z" fill="#0000CC"/>
<path d="M4.46658 10.9481C4.8571 10.5576 4.8571 9.92443 4.46658 9.53391C4.07605 9.14338 3.44289 9.14338 3.05236 9.53391L2.75774 9.82854C2.36721 10.2191 2.36721 10.8522 2.75774 11.2428C3.14826 11.6333 3.78143 11.6333 4.17195 11.2428L4.46658 10.9481Z" fill="#0000CC"/>
<path d="M10.9486 9.53391C10.5581 9.14338 9.92492 9.14338 9.5344 9.53391C9.14387 9.92443 9.14387 10.5576 9.5344 10.9481L9.82903 11.2428C10.2196 11.6333 10.8527 11.6333 11.2432 11.2428C11.6338 10.8522 11.6338 10.2191 11.2432 9.82854L10.9486 9.53391Z" fill="#0000CC"/>
<path d="M8 11.5835C8 11.0312 7.55228 10.5835 7 10.5835C6.44772 10.5835 6 11.0312 6 11.5835V12.0002C6 12.5524 6.44772 13.0002 7 13.0002C7.55228 13.0002 8 12.5524 8 12.0002V11.5835Z" fill="#0000CC"/>
</svg>
