<svg width="24" height="24" viewBox="0 0 24 24" fill="none" xmlns="http://www.w3.org/2000/svg">
<path opacity="0.3" d="M11 9V11H3C2.44772 11 2 11.4477 2 12C2 12.5523 2.44772 13 3 13H5.5V15H7.5V13H16.5V15H18.5V13H21C21.5523 13 22 12.5523 22 12C22 11.4477 21.5523 11 21 11H13V9H11Z" fill="#0000CC"/>
<path d="M10.0681 2C9.81573 1.99997 9.56993 1.99994 9.36178 2.01695C9.13318 2.03563 8.86345 2.07969 8.59202 2.21799C8.2157 2.40974 7.90974 2.7157 7.71799 3.09202C7.57969 3.36345 7.53563 3.63318 7.51695 3.86178C7.49994 4.06993 7.49997 4.31572 7.5 4.56811V6.4319C7.49997 6.68429 7.49994 6.93008 7.51695 7.13824C7.53563 7.36683 7.57969 7.63656 7.71799 7.90799C7.90974 8.28431 8.2157 8.59027 8.59202 8.78202C8.86345 8.92032 9.13318 8.96438 9.36178 8.98306C9.54909 8.99836 9.76688 8.99987 9.99253 9H14.0075C14.2331 8.99987 14.4509 8.99836 14.6382 8.98306C14.8668 8.96438 15.1366 8.92032 15.408 8.78202C15.7843 8.59027 16.0903 8.28431 16.282 7.90799C16.4203 7.63656 16.4644 7.36683 16.4831 7.13824C16.5001 6.93007 16.5 6.68427 16.5 6.43189V4.56812C16.5 4.31574 16.5001 4.06994 16.4831 3.86178C16.4644 3.63318 16.4203 3.36345 16.282 3.09202C16.0903 2.7157 15.7843 2.40974 15.408 2.21799C15.1366 2.07969 14.8668 2.03563 14.6382 2.01695C14.4301 1.99994 14.1843 1.99997 13.9319 2L10.0681 2Z" fill="#0000CC"/>
<path d="M4.56811 15C4.31573 15 4.06993 14.9999 3.86178 15.017C3.63318 15.0356 3.36345 15.0797 3.09202 15.218C2.7157 15.4097 2.40974 15.7157 2.21799 16.092C2.07969 16.3634 2.03563 16.6332 2.01695 16.8618C1.99994 17.0699 1.99997 17.3157 2 17.5681V19.4319C1.99997 19.6843 1.99994 19.9301 2.01695 20.1382C2.03563 20.3668 2.07969 20.6366 2.21799 20.908C2.40974 21.2843 2.7157 21.5903 3.09202 21.782C3.36345 21.9203 3.63318 21.9644 3.86178 21.9831C4.04909 21.9984 4.26688 21.9999 4.49252 22H8.50749C8.73313 21.9999 8.95092 21.9984 9.13824 21.9831C9.36683 21.9644 9.63656 21.9203 9.90799 21.782C10.2843 21.5903 10.5903 21.2843 10.782 20.908C10.9203 20.6366 10.9644 20.3668 10.9831 20.1382C11.0001 19.9301 11 19.6843 11 19.4319V17.5681C11 17.3157 11.0001 17.0699 10.9831 16.8618C10.9644 16.6332 10.9203 16.3634 10.782 16.092C10.5903 15.7157 10.2843 15.4097 9.90799 15.218C9.63656 15.0797 9.36683 15.0356 9.13823 15.017C8.93008 14.9999 8.68429 15 8.43192 15H4.56811Z" fill="#0000CC"/>
<path d="M15.5681 15H19.4319C19.6843 15 19.9301 14.9999 20.1382 15.017C20.3668 15.0356 20.6366 15.0797 20.908 15.218C21.2843 15.4097 21.5903 15.7157 21.782 16.092C21.9203 16.3634 21.9644 16.6332 21.9831 16.8618C22.0001 17.0699 22 17.3157 22 17.5681V19.4319C22 19.6843 22.0001 19.9301 21.9831 20.1382C21.9644 20.3668 21.9203 20.6366 21.782 20.908C21.5903 21.2843 21.2843 21.5903 20.908 21.782C20.6366 21.9203 20.3668 21.9644 20.1382 21.9831C19.9509 21.9984 19.7331 21.9999 19.5075 22H15.4925C15.2669 21.9999 15.0491 21.9984 14.8618 21.9831C14.6332 21.9644 14.3634 21.9203 14.092 21.782C13.7157 21.5903 13.4097 21.2843 13.218 20.908C13.0797 20.6366 13.0356 20.3668 13.017 20.1382C12.9999 19.9301 13 19.6843 13 19.4319V17.5681C13 17.3157 12.9999 17.0699 13.017 16.8618C13.0356 16.6332 13.0797 16.3634 13.218 16.092C13.4097 15.7157 13.7157 15.4097 14.092 15.218C14.3634 15.0797 14.6332 15.0356 14.8618 15.017C15.0699 14.9999 15.3157 15 15.5681 15Z" fill="#0000CC"/>
</svg>
