<svg width="24" height="24" viewBox="0 0 24 24" fill="none" xmlns="http://www.w3.org/2000/svg">
<path opacity="0.3" d="M6.33809 4.93291C6.72868 5.32337 6.72878 5.95654 6.33832 6.34713C5.21976 7.46605 4.4581 8.89152 4.14963 10.4433C3.84116 11.9951 3.99973 13.6035 4.60531 15.0651C5.21089 16.5268 6.23627 17.7761 7.55181 18.655C8.86734 19.5339 10.414 20.0031 11.9961 20.0031C13.5782 20.0031 15.1249 19.5339 16.4404 18.655C17.7559 17.7761 18.7813 16.5268 19.3869 15.0651C19.9925 13.6035 20.151 11.9951 19.8426 10.4433C19.5341 8.89152 18.7724 7.46605 17.6539 6.34713C17.2634 5.95654 17.2635 5.32337 17.6541 4.93291C18.0447 4.54245 18.6779 4.54256 19.0683 4.93315C20.4665 6.3318 21.4186 8.11364 21.8042 10.0534C22.1898 11.9931 21.9916 14.0036 21.2346 15.8306C20.4776 17.6577 19.1959 19.2193 17.5515 20.318C15.907 21.4167 13.9738 22.0031 11.9961 22.0031C10.0184 22.0031 8.08516 21.4167 6.44074 20.318C4.79631 19.2193 3.51459 17.6577 2.75762 15.8306C2.00064 14.0036 1.80242 11.9931 2.18801 10.0534C2.57359 8.11364 3.52568 6.3318 4.92388 4.93315C5.31434 4.54256 5.9475 4.54245 6.33809 4.93291Z" fill="#0000CC"/>
<path fill-rule="evenodd" clip-rule="evenodd" d="M12 2C12.5523 2 13 2.44772 13 3V12C13 12.5523 12.5523 13 12 13C11.4477 13 11 12.5523 11 12V3C11 2.44772 11.4477 2 12 2Z" fill="#0000CC"/>
</svg>
