<svg width="24" height="24" viewBox="0 0 24 24" fill="none" xmlns="http://www.w3.org/2000/svg">
<path opacity="0.3" fill-rule="evenodd" clip-rule="evenodd" d="M11.7142 2.08843C11.9039 2.06102 12.0966 2.06102 12.2863 2.08843C12.5049 2.12002 12.7084 2.19688 12.8699 2.2579L18.4056 4.33374C19.0234 4.56439 19.566 4.76695 19.9838 5.13517C20.3493 5.45729 20.6309 5.86358 20.8041 6.31893C21.0022 6.83944 21.0014 7.41855 21.0004 8.07799L21.0003 11.9999C21.0003 14.6468 19.3892 16.8184 17.7138 18.3757C16.3308 19.6613 14.7359 20.7157 13.0658 21.5895C12.8939 21.6797 12.6713 21.7964 12.3822 21.8527C12.1451 21.8988 11.8554 21.8988 11.6184 21.8527C11.3293 21.7964 11.1066 21.6797 10.9347 21.5895C9.26462 20.7157 7.66975 19.6613 6.28673 18.3757C4.61132 16.8183 3.00026 14.6468 3.00026 11.9999L3.00013 8.078C2.99918 7.41856 2.99834 6.83944 3.19641 6.31893C3.36968 5.86358 3.65124 5.45729 4.01675 5.13517C4.43457 4.76694 4.97712 4.56439 5.59491 4.33374L11.1306 2.2579C11.2922 2.19688 11.4956 2.12002 11.7142 2.08843Z" fill="#0000CC"/>
<path fill-rule="evenodd" clip-rule="evenodd" d="M12.3944 9.44743C12.6414 8.95345 12.4412 8.35278 11.9472 8.10579C11.4532 7.8588 10.8526 8.05903 10.6056 8.55301L9.10557 11.553C8.95058 11.863 8.96714 12.2311 9.14935 12.5259C9.33156 12.8208 9.65342 13.0002 10 13.0002H12.382L11.6056 14.553C11.3586 15.047 11.5588 15.6477 12.0528 15.8946C12.5468 16.1416 13.1474 15.9414 13.3944 15.4474L14.8944 12.4474C15.0494 12.1374 15.0329 11.7693 14.8507 11.4745C14.6684 11.1797 14.3466 11.0002 14 11.0002H11.618L12.3944 9.44743Z" fill="#0000CC"/>
</svg>
