<svg width="24" height="24" viewBox="0 0 24 24" fill="none" xmlns="http://www.w3.org/2000/svg">
<g opacity="0.3">
<path d="M3.54633 4.96049C-0.0607119 9.28214 0.164454 15.7205 4.22183 19.7779C4.61235 20.1684 5.24551 20.1684 5.63604 19.7779C6.02656 19.3874 6.02656 18.7542 5.63604 18.3637C2.36037 15.088 2.13758 9.91553 4.96767 6.38184L3.54633 4.96049Z" fill="#0000CC"/>
<path d="M6.39316 7.80733C4.33767 10.5491 4.5567 14.4559 7.05025 16.9494C7.44078 17.34 8.07394 17.34 8.46447 16.9494C8.85499 16.5589 8.85499 15.9258 8.46447 15.5352C6.75405 13.8248 6.54189 11.1835 7.82798 9.24215L6.39316 7.80733Z" fill="#0000CC"/>
<path d="M9.2923 10.7065C9.10493 11.0981 9 11.5366 9 11.9997C9 13.6566 10.3431 14.9997 12 14.9997C12.4631 14.9997 12.9017 14.8948 13.2933 14.7074L9.2923 10.7065Z" fill="#0000CC"/>
<path d="M16.9464 12.7323L18.5871 14.3731C19.4757 11.9016 18.9299 9.03018 16.9497 7.04999C16.5592 6.65946 15.9261 6.65946 15.5355 7.04999C15.145 7.44051 15.145 8.07367 15.5355 8.4642C16.6987 9.62736 17.169 11.221 16.9464 12.7323Z" fill="#0000CC"/>
<path d="M21.5964 17.3823L20.1138 15.8998C21.7235 12.5509 21.1402 8.4121 18.364 5.63582C17.9734 5.24529 17.9734 4.61213 18.364 4.2216C18.7545 3.83108 19.3876 3.83108 19.7782 4.2216C23.3438 7.7872 23.9498 13.1916 21.5964 17.3823Z" fill="#0000CC"/>
</g>
<path fill-rule="evenodd" clip-rule="evenodd" d="M2.29289 2.29289C2.68342 1.90237 3.31658 1.90237 3.70711 2.29289L21.7071 20.2929C22.0976 20.6834 22.0976 21.3166 21.7071 21.7071C21.3166 22.0976 20.6834 22.0976 20.2929 21.7071L2.29289 3.70711C1.90237 3.31658 1.90237 2.68342 2.29289 2.29289Z" fill="#0000CC"/>
</svg>
