<svg width="24" height="24" viewBox="0 0 24 24" fill="none" xmlns="http://www.w3.org/2000/svg">
<path opacity="0.3" fill-rule="evenodd" clip-rule="evenodd" d="M12 2C12.5523 2 13 2.44772 13 3V4C13 4.55228 12.5523 5 12 5C11.4477 5 11 4.55228 11 4V3C11 2.44772 11.4477 2 12 2ZM4.79289 4.79289C5.18342 4.40237 5.81658 4.40237 6.20711 4.79289L7.02122 5.60701C7.41175 5.99753 7.41175 6.6307 7.02122 7.02122C6.6307 7.41175 5.99753 7.41175 5.60701 7.02122L4.79289 6.20711C4.40237 5.81658 4.40237 5.18342 4.79289 4.79289ZM19.2071 4.79288C19.5976 5.1834 19.5976 5.81656 19.2071 6.20709L18.393 7.02121C18.0025 7.41174 17.3693 7.41175 16.9788 7.02124C16.5883 6.63072 16.5882 5.99755 16.9788 5.60702L17.7929 4.79291C18.1834 4.40237 18.8165 4.40236 19.2071 4.79288ZM2 12C2 11.4477 2.44772 11 3 11H4C4.55228 11 5 11.4477 5 12C5 12.5523 4.55228 13 4 13H3C2.44772 13 2 12.5523 2 12ZM19 12C19 11.4477 19.4477 11 20 11H21C21.5523 11 22 11.4477 22 12C22 12.5523 21.5523 13 21 13H20C19.4477 13 19 12.5523 19 12ZM7.02299 16.9847C7.41253 17.3762 7.41095 18.0093 7.01945 18.3989L6.20534 19.2089C5.81384 19.5985 5.18068 19.5969 4.79113 19.2054C4.40158 18.8139 4.40316 18.1807 4.79466 17.7912L5.60878 16.9811C6.00028 16.5916 6.63344 16.5932 7.02299 16.9847ZM16.977 16.9846C17.3666 16.5932 17.9997 16.5916 18.3912 16.9811L19.2053 17.7912C19.5968 18.1808 19.5984 18.8139 19.2088 19.2054C18.8193 19.5969 18.1861 19.5985 17.7946 19.2089L16.9805 18.3989C16.589 18.0093 16.5875 17.3761 16.977 16.9846ZM12 19C12.5523 19 13 19.4477 13 20V21C13 21.5523 12.5523 22 12 22C11.4477 22 11 21.5523 11 21V20C11 19.4477 11.4477 19 12 19Z" fill="#0000CC"/>
<path d="M7 12C7 9.23858 9.23858 7 12 7C14.7614 7 17 9.23858 17 12C17 14.7614 14.7614 17 12 17C9.23858 17 7 14.7614 7 12Z" fill="#0000CC"/>
</svg>
