<svg width="24" height="24" viewBox="0 0 24 24" fill="none" xmlns="http://www.w3.org/2000/svg">
<g opacity="0.3">
<path d="M4.46683 5.88105C3.33382 6.48677 2.28229 7.22478 1.3331 8.07433C0.921569 8.44266 0.886548 9.07485 1.25487 9.48638C1.6232 9.89791 2.2554 9.93293 2.66692 9.5646C3.64837 8.68618 4.75406 7.94434 5.95449 7.3687L4.46683 5.88105Z" fill="#0000CC"/>
<path d="M8.244 9.65822C6.88416 10.1522 5.64927 10.9067 4.60035 11.8608C4.1918 12.2324 4.16186 12.8649 4.53349 13.2734C4.90512 13.682 5.53757 13.7119 5.94612 13.3403C7.03593 12.349 8.36876 11.622 9.84519 11.2594L8.244 9.65822Z" fill="#0000CC"/>
<path d="M12.6172 14.0314C12.4143 14.0106 12.2084 14 12 14C10.4464 14 9.02873 14.5918 7.96373 15.5605C7.55518 15.9322 7.52525 16.5646 7.89688 16.9732C8.26851 17.3817 8.90096 17.4116 9.30951 17.04C10.0207 16.3931 10.9633 16 12 16C13.0367 16 13.9793 16.3931 14.6905 17.04C14.9991 17.3207 15.4354 17.3723 15.7905 17.2048L12.6172 14.0314Z" fill="#0000CC"/>
<path d="M8.58044 4.36642L10.3144 6.10037C10.867 6.0341 11.4295 6 12 6C15.5863 6 18.8556 7.34716 21.3331 9.5646C21.7446 9.93293 22.3768 9.89791 22.7451 9.48638C23.1135 9.07485 23.0784 8.44266 22.6669 8.07433C19.8369 5.54138 16.0973 4 12 4C10.8265 4 9.68231 4.12645 8.58044 4.36642Z" fill="#0000CC"/>
<path d="M16.3121 12.0981L13.2888 9.07477C15.6287 9.34804 17.7455 10.3561 19.3997 11.8608C19.8082 12.2324 19.8382 12.8649 19.4665 13.2734C19.0949 13.682 18.4624 13.7119 18.0539 13.3403C17.5265 12.8605 16.9421 12.4427 16.3121 12.0981Z" fill="#0000CC"/>
<path d="M11 20C11 19.4477 11.4477 19 12 19H12.01C12.5623 19 13.01 19.4477 13.01 20C13.01 20.5523 12.5623 21 12.01 21H12C11.4477 21 11 20.5523 11 20Z" fill="#0000CC"/>
</g>
<path fill-rule="evenodd" clip-rule="evenodd" d="M2.29289 2.29289C2.68342 1.90237 3.31658 1.90237 3.70711 2.29289L21.7071 20.2929C22.0976 20.6834 22.0976 21.3166 21.7071 21.7071C21.3166 22.0976 20.6834 22.0976 20.2929 21.7071L2.29289 3.70711C1.90237 3.31658 1.90237 2.68342 2.29289 2.29289Z" fill="#0000CC"/>
</svg>
