<svg width="24" height="24" viewBox="0 0 24 24" fill="none" xmlns="http://www.w3.org/2000/svg">
<path d="M3.99912 16L19.9991 14M11.0009 19L19.0009 18M5 13V5L3 7M13 8.5C13 7.625 12.9223 7.1117 12.7143 6.55556C12.3634 5.61757 11.7273 5 11 5C10.2727 5 9.63659 5.61757 9.28571 6.55556C9.07767 7.1117 9 7.625 9 8.5C9 9.375 9.07767 9.88829 9.28571 10.4444C9.63659 11.3824 10.2727 12 11 12C11.7273 12 12.3708 11.4465 12.7143 10.4444C12.8968 9.91203 13 9.375 13 8.5ZM21 8C21 7.25 20.9223 6.81003 20.7143 6.33333C20.3634 5.52934 19.7273 5 19 5C18.2727 5 17.6366 5.52934 17.2857 6.33333C17.0777 6.81003 17 7.25 17 8C17 8.75 17.0777 9.18997 17.2857 9.66667C17.6366 10.4707 18.2727 11 19 11C19.7273 11 20.3708 10.5255 20.7143 9.66667C20.8968 9.21031 21 8.75 21 8Z" stroke="#0000CC" stroke-width="2" stroke-linecap="round" stroke-linejoin="round"/>
</svg>
