<svg width="24" height="24" viewBox="0 0 24 24" fill="none" xmlns="http://www.w3.org/2000/svg">
<rect opacity="0.14" x="3" y="7" width="18" height="10" rx="5" fill="#0000CC"/>
<path d="M14 6C13.4477 6 13 6.44772 13 7C13 7.55228 13.4477 8 14 8V6ZM10 18C10.5523 18 11 17.5523 11 17C11 16.4477 10.5523 16 10 16V18ZM14 16C13.4477 16 13 16.4477 13 17C13 17.5523 13.4477 18 14 18V16ZM19.3959 14.1149C19.1034 14.5834 19.2461 15.2003 19.7145 15.4928C20.183 15.7853 20.7999 15.6427 21.0924 15.1742L19.3959 14.1149ZM16.9169 16.9161L17.6241 16.2091L17.624 16.209L16.9169 16.9161ZM8 11C7.44772 11 7 11.4477 7 12C7 12.5523 7.44772 13 8 13V11ZM7.08378 7.08376L7.79088 6.37665L7.79088 6.37665L7.08378 7.08376ZM3.70711 2.29289C3.31658 1.90237 2.68342 1.90237 2.29289 2.29289C1.90237 2.68342 1.90237 3.31658 2.29289 3.70711L3.70711 2.29289ZM20.2928 21.707C20.6833 22.0976 21.3165 22.0977 21.707 21.7072C22.0976 21.3167 22.0977 20.6835 21.7072 20.293L20.2928 21.707ZM8 16C5.79086 16 4 14.2091 4 12H2C2 15.3137 4.68629 18 8 18V16ZM16 8C18.2091 8 20 9.79086 20 12H22C22 8.68629 19.3137 6 16 6V8ZM14 8H16V6H14V8ZM10 16H8V18H10V16ZM16 16H14V18H16V16ZM20 12C20 12.7784 19.7787 13.502 19.3959 14.1149L21.0924 15.1742C21.6677 14.2529 22 13.1637 22 12H20ZM16.7348 15.9328C16.4974 15.9768 16.2515 16 16 16V18C16.3745 18 16.7423 17.9654 17.099 17.8994L16.7348 15.9328ZM8 13H12V11H8V13ZM6.90168 6.10048C4.11246 6.61702 2 9.06076 2 12H4C4 10.0423 5.40739 8.41122 7.26587 8.06704L6.90168 6.10048ZM2.29289 3.70711L6.37667 7.79087L7.79088 6.37665L3.70711 2.29289L2.29289 3.70711ZM6.37667 7.79086L11.2929 12.7071L12.7071 11.2929L7.79088 6.37665L6.37667 7.79086ZM11.2929 12.7072L16.2099 17.6233L17.624 16.209L12.7071 11.2928L11.2929 12.7072ZM16.2097 17.6232L20.2928 21.707L21.7072 20.293L17.6241 16.2091L16.2097 17.6232Z" fill="#0000CC"/>
</svg>
