<svg width="24" height="24" viewBox="0 0 24 24" fill="none" xmlns="http://www.w3.org/2000/svg">
<g opacity="0.14">
<path d="M6.85455 2.80273L9.93996 7.94635C8.77755 8.64611 8 9.92015 8 11.3758C5.6574 11.3803 4.34369 11.379 2 11.3758C2 7.73558 3.94706 4.55179 6.85455 2.80273Z" fill="#0000CC"/>
<path d="M17.1452 19.9523C15.642 20.856 13.8817 21.3758 12 21.3758C10.1186 21.3758 8.35853 20.8562 6.85547 19.9527L9.94056 14.8104C10.5418 15.1718 11.2466 15.3758 11.9991 15.3758C12.7529 15.3758 13.4579 15.1673 14.0597 14.8049L17.1452 19.9523Z" fill="#0000CC"/>
<path d="M16 11.376H22C22 7.73511 20.0524 4.55156 17.1439 2.80273L14.0547 7.95003C15.2181 8.64957 16 9.91967 16 11.376Z" fill="#0000CC"/>
</g>
<path d="M17.1439 2.80298C20.0524 4.55181 22 7.73535 22 11.3763H16C16 9.91991 15.2181 8.64981 14.0547 7.95028L17.1439 2.80151M2 11.3763C4.34369 11.3795 5.6574 11.3808 8 11.3763C8 9.92064 8.77755 8.64659 9.93996 7.94684L6.85455 2.80322C3.94706 4.55227 2 7.73607 2 11.3763ZM13 11.3763C13 11.9286 12.5523 12.3763 12 12.3763C11.4477 12.3763 11 11.9286 11 11.3763C11 10.824 11.4477 10.3763 12 10.3763C12.5523 10.3763 13 10.824 13 11.3763ZM17.1452 19.9528C15.642 20.8565 13.8817 21.3763 12 21.3763C10.1186 21.3763 8.35853 20.8567 6.85547 19.9532L9.94056 14.8109C10.5418 15.1723 11.2466 15.3763 11.9991 15.3763C12.7529 15.3763 13.4579 15.1678 14.0597 14.8054L17.1452 19.9528Z" stroke="#0000CC" stroke-width="2" stroke-linecap="round" stroke-linejoin="round"/>
</svg>
