<svg width="24" height="24" viewBox="0 0 24 24" fill="none" xmlns="http://www.w3.org/2000/svg">
<path opacity="0.14" d="M12 18C16.9706 18 21 16.6569 21 15V9C21 7.34315 16.9706 6 12 6C7.02944 6 3 7.34315 3 9V15C3 16.6569 7.02944 18 12 18Z" fill="#0000CC"/>
<path d="M21 9C21 10.6569 16.9706 12 12 12C7.02944 12 3 10.6569 3 9M21 9C21 7.34315 16.9706 6 12 6C7.02944 6 3 7.34315 3 9M21 9V15C21 16.6569 16.9706 18 12 18C7.02944 18 3 16.6569 3 15V9" stroke="#0000CC" stroke-width="2" stroke-linecap="round" stroke-linejoin="round"/>
</svg>
