<svg width="24" height="24" viewBox="0 0 24 24" fill="none" xmlns="http://www.w3.org/2000/svg">
<path opacity="0.14" d="M6.53072 3.13222C6.19342 3.324 5.9752 4.08777 5.53876 5.61531L4.85742 8H9.14314L8.4618 5.61531L8.46179 5.61529C8.02535 4.08776 7.80713 3.32399 7.46984 3.13222C7.17869 2.96667 6.82187 2.96667 6.53072 3.13222Z" fill="#0000CC"/>
<path d="M20 15H19M14 15H19M17 13.5V15M4 11L4.85714 8M10 11L9.14286 8M14 20.9776C16.8033 20.725 19 18.369 19 15.5V15M20 20.9776C18.0763 20.8043 16.4382 19.6404 15.5996 18M14 7C14.9319 7 15.3978 7 15.7654 7.15225C16.2554 7.35523 16.6448 7.74458 16.8478 8.23464C17 8.60218 17 9.06812 17 10M7 15C7 15.9319 7 16.3978 7.15224 16.7654C7.35523 17.2554 7.74458 17.6448 8.23463 17.8478C8.60218 18 9.06812 18 10 18M9.14286 8L8.46152 5.61531C8.02508 4.08777 7.80685 3.324 7.46956 3.13222C7.17841 2.96667 6.82159 2.96667 6.53044 3.13222C6.19315 3.324 5.97492 4.08777 5.53848 5.61531L4.85714 8M9.14286 8H4.85714" stroke="#0000CC" stroke-width="2" stroke-linecap="round" stroke-linejoin="round"/>
</svg>
