<svg width="24" height="24" viewBox="0 0 24 24" fill="none" xmlns="http://www.w3.org/2000/svg">
<path opacity="0.14" fill-rule="evenodd" clip-rule="evenodd" d="M4.32698 9.63803C4 10.2798 4 11.1198 4 12.8V16.2C4 17.8802 4 18.7202 4.32698 19.362C4.6146 19.9265 5.07354 20.3854 5.63803 20.673C6.27976 21 7.11984 21 8.8 21H15.2C16.8802 21 17.7202 21 18.362 20.673C18.9265 20.3854 19.3854 19.9265 19.673 19.362C20 18.7202 20 17.8802 20 16.2V12.8C20 11.1198 20 10.2798 19.673 9.63803C19.3854 9.07354 18.9265 8.6146 18.362 8.32698C17.7202 8 16.8802 8 15.2 8H8.8C7.11984 8 6.27976 8 5.63803 8.32698C5.07354 8.6146 4.6146 9.07354 4.32698 9.63803ZM10 12.5H14V16.5H10V12.5Z" fill="#0000CC"/>
<path d="M16 8.00169L16 7C16 4.79086 14.2091 3 12 3C9.79086 3 8 4.79086 8 7V8.00169M16 8.00169C15.7563 8 15.4907 8 15.2 8H8.8C8.50929 8 8.24373 8 8 8.00169M16 8.00169C17.1649 8.00979 17.8313 8.05658 18.362 8.32698C18.9265 8.6146 19.3854 9.07354 19.673 9.63803C20 10.2798 20 11.1198 20 12.8V16.2C20 17.8802 20 18.7202 19.673 19.362C19.3854 19.9265 18.9265 20.3854 18.362 20.673C17.7202 21 16.8802 21 15.2 21H8.8C7.11984 21 6.27976 21 5.63803 20.673C5.07354 20.3854 4.6146 19.9265 4.32698 19.362C4 18.7202 4 17.8802 4 16.2V12.8C4 11.1198 4 10.2798 4.32698 9.63803C4.6146 9.07354 5.07354 8.6146 5.63803 8.32698C6.16873 8.05658 6.83507 8.00979 8 8.00169M10 11V18M14 11V18M8.5 12.5H15.5M8.5 16.5H15.5" stroke="#0000CC" stroke-width="2" stroke-linecap="round" stroke-linejoin="round"/>
</svg>
