<svg width="24" height="24" viewBox="0 0 24 24" fill="none" xmlns="http://www.w3.org/2000/svg">
<path fill-rule="evenodd" clip-rule="evenodd" d="M14.8385 2H6.16146C5.63434 1.99998 5.17953 1.99997 4.80498 2.03057C4.40963 2.06287 4.01641 2.13419 3.63803 2.32698C3.07355 2.6146 2.6146 3.07355 2.32698 3.63803C2.13419 4.01641 2.06287 4.40963 2.03057 4.80498C1.99997 5.17953 1.99998 5.6343 2 6.16142V17.8386C1.99998 18.3657 1.99997 18.8205 2.03057 19.195C2.06287 19.5904 2.13419 19.9836 2.32698 20.362C2.6146 20.9265 3.07355 21.3854 3.63803 21.673C4.01641 21.8658 4.40963 21.9371 4.80498 21.9694C5.17954 22 5.6343 22 6.16144 22H14.8386C15.3657 22 15.8205 22 16.195 21.9694C16.5904 21.9371 16.9836 21.8658 17.362 21.673C17.9265 21.3854 18.3854 20.9265 18.673 20.362C18.8658 19.9836 18.9371 19.5904 18.9694 19.195C19 18.8205 19 18.3657 19 17.8386V6.16144C19 5.6343 19 5.17954 18.9694 4.80498C18.9371 4.40963 18.8658 4.01641 18.673 3.63803C18.3854 3.07355 17.9265 2.6146 17.362 2.32698C16.9836 2.13419 16.5904 2.06287 16.195 2.03057C15.8205 1.99997 15.3657 1.99998 14.8385 2ZM8.50001 9.5C8.50001 8.39543 9.39544 7.5 10.5 7.5C11.6046 7.5 12.5 8.39543 12.5 9.5C12.5 10.6046 11.6046 11.5 10.5 11.5C9.39544 11.5 8.50001 10.6046 8.50001 9.5ZM6.52954 15.2588C6.9512 13.5624 8.68301 12.5 10.5 12.5C12.317 12.5 14.0488 13.5624 14.4705 15.2588C14.5447 15.5574 14.4773 15.8735 14.2878 16.1159C14.0983 16.3583 13.8077 16.5 13.5 16.5H7.50001C7.19231 16.5 6.90175 16.3583 6.71222 16.1159C6.5227 15.8735 6.45532 15.5574 6.52954 15.2588Z" fill="#0000CC"/>
<path d="M21 4C21.5523 4 22 4.44772 22 5V7C22 7.55229 21.5523 8 21 8C20.4477 8 20 7.55229 20 7V5C20 4.44772 20.4477 4 21 4Z" fill="#0000CC"/>
<path d="M22 11C22 10.4477 21.5523 10 21 10C20.4477 10 20 10.4477 20 11V13C20 13.5523 20.4477 14 21 14C21.5523 14 22 13.5523 22 13V11Z" fill="#0000CC"/>
<path d="M21 16C21.5523 16 22 16.4477 22 17V19C22 19.5523 21.5523 20 21 20C20.4477 20 20 19.5523 20 19V17C20 16.4477 20.4477 16 21 16Z" fill="#0000CC"/>
</svg>
