<svg width="24" height="24" viewBox="0 0 24 24" fill="none" xmlns="http://www.w3.org/2000/svg">
<path fill-rule="evenodd" clip-rule="evenodd" d="M3 8.2C3 7.0799 3 6.51984 3.21799 6.09202C3.40973 5.71569 3.71569 5.40973 4.09202 5.21799C4.51984 5 5.0799 5 6.2 5H17.8C18.9201 5 19.4802 5 19.908 5.21799C20.2843 5.40973 20.5903 5.71569 20.782 6.09202C21 6.51984 21 7.0799 21 8.2V15.8C21 16.9201 21 17.4802 20.782 17.908C20.5903 18.2843 20.2843 18.5903 19.908 18.782C19.4802 19 18.9201 19 17.8 19H6.2C5.0799 19 4.51984 19 4.09202 18.782C3.71569 18.5903 3.40973 18.2843 3.21799 17.908C3 17.4802 3 16.9201 3 15.8V8.2ZM13 9C13 8.44772 13.4477 8 14 8H18C18.5523 8 19 8.44772 19 9C19 9.55228 18.5523 10 18 10H14C13.4477 10 13 9.55228 13 9ZM13 12C13 11.4477 13.4477 11 14 11H18C18.5523 11 19 11.4477 19 12C19 12.5523 18.5523 13 18 13H14C13.4477 13 13 12.5523 13 12ZM9 7.5C7.89543 7.5 7 8.39543 7 9.5C7 10.6046 7.89543 11.5 9 11.5C10.1046 11.5 11 10.6046 11 9.5C11 8.39543 10.1046 7.5 9 7.5ZM9 12.5C7.183 12.5 5.45119 13.5624 5.02953 15.2588C4.95531 15.5574 5.02269 15.8735 5.21221 16.1159C5.40174 16.3583 5.6923 16.5 6 16.5H12C12.3077 16.5 12.5983 16.3583 12.7878 16.1159C12.9773 15.8735 13.0447 15.5574 12.9705 15.2588C12.5488 13.5624 10.817 12.5 9 12.5Z" fill="#0000CC"/>
</svg>
