<svg width="24" height="24" viewBox="0 0 24 24" fill="none" xmlns="http://www.w3.org/2000/svg">
<path fill-rule="evenodd" clip-rule="evenodd" d="M2 6.52941C2 4.03579 4.00685 2 6.5 2C8.99315 2 11 4.03579 11 6.52941V21C11 21.5523 10.5523 22 10 22H7.5C6.94772 22 6.5 21.5523 6.5 21V11.2708C5.22036 11.2314 3.5 11 2.72976 9.64591C2.18518 8.73678 2 7.59624 2 6.52941ZM5 5C5.55228 5 6 5.44772 6 6V7C6 7.55228 5.55228 8 5 8C4.44772 8 4 7.55228 4 7V6C4 5.44772 4.44772 5 5 5Z" fill="#0000CC"/>
<path fill-rule="evenodd" clip-rule="evenodd" d="M22 6.52941C22 4.03579 19.9932 2 17.5 2C15.0068 2 13 4.03579 13 6.52941V21C13 21.5523 13.4477 22 14 22H16.5C17.0523 22 17.5 21.5523 17.5 21V11.2708C18.7796 11.2314 20.5 11 21.2702 9.64591C21.8148 8.73678 22 7.59624 22 6.52941ZM19 5C18.4477 5 18 5.44772 18 6V7C18 7.55228 18.4477 8 19 8C19.5523 8 20 7.55228 20 7V6C20 5.44772 19.5523 5 19 5Z" fill="#0000CC"/>
</svg>
