<svg width="24" height="24" viewBox="0 0 24 24" fill="none" xmlns="http://www.w3.org/2000/svg">
<path d="M7.96604 3.98636C6.16834 4.83072 4.67842 6.22194 3.71061 7.94569C2.8802 7.41215 2.33008 6.48028 2.33008 5.41992C2.33008 3.76307 3.67322 2.41992 5.33008 2.41992C6.46771 2.41992 7.45744 3.05315 7.96604 3.98636Z" fill="#0000CC"/>
<path d="M21.7 5.41992C21.7 6.48969 21.1401 7.42868 20.2973 7.9598C19.334 6.2372 17.8498 4.84541 16.0579 3.99765C16.5647 3.05826 17.5578 2.41992 18.7 2.41992C20.3569 2.41992 21.7 3.76307 21.7 5.41992Z" fill="#0000CC"/>
<path fill-rule="evenodd" clip-rule="evenodd" d="M16.3202 19.3242C15.0741 20.1252 13.5913 20.5898 12 20.5898C10.4087 20.5898 8.92587 20.1252 7.67984 19.3242L5.70711 21.297C5.31658 21.6875 4.68342 21.6875 4.29289 21.297C3.90237 20.9064 3.90237 20.2733 4.29289 19.8827L6.13981 18.0358C4.81205 16.6077 4 14.6936 4 12.5898C4 8.17157 7.58172 4.58984 12 4.58984C16.4183 4.58984 20 8.17157 20 12.5898C20 14.6936 19.1879 16.6077 17.8602 18.0358L19.7071 19.8827C20.0976 20.2733 20.0976 20.9064 19.7071 21.297C19.3166 21.6875 18.6834 21.6875 18.2929 21.297L16.3202 19.3242ZM11 9.5C11 8.94771 11.4477 8.5 12 8.5C12.5523 8.5 13 8.94771 13 9.5V12.5C13 13.0523 12.5523 13.5 12 13.5C11.4477 13.5 11 13.0523 11 12.5V9.5ZM13 15.5C13 16.0523 12.5523 16.5 12 16.5C11.4477 16.5 11 16.0523 11 15.5C11 14.9477 11.4477 14.5 12 14.5C12.5523 14.5 13 14.9477 13 15.5Z" fill="#0000CC"/>
</svg>
