<svg width="24" height="24" viewBox="0 0 24 24" fill="none" xmlns="http://www.w3.org/2000/svg">
<path d="M7.96604 3.98636C6.16834 4.83072 4.67842 6.22194 3.71061 7.94569C2.8802 7.41215 2.33008 6.48028 2.33008 5.41992C2.33008 3.76307 3.67322 2.41992 5.33008 2.41992C6.46771 2.41992 7.45744 3.05315 7.96604 3.98636Z" fill="#0000CC"/>
<path d="M21.7 5.41992C21.7 6.48969 21.1401 7.42868 20.2973 7.9598C19.334 6.2372 17.8498 4.84541 16.0579 3.99765C16.5647 3.05826 17.5578 2.41992 18.7 2.41992C20.3569 2.41992 21.7 3.76307 21.7 5.41992Z" fill="#0000CC"/>
<path fill-rule="evenodd" clip-rule="evenodd" d="M12 20.5898C13.5913 20.5898 15.0741 20.1252 16.3202 19.3242L18.2929 21.297C18.6834 21.6875 19.3166 21.6875 19.7071 21.297C20.0976 20.9064 20.0976 20.2733 19.7071 19.8827L17.8602 18.0358C19.1879 16.6077 20 14.6936 20 12.5898C20 8.17157 16.4183 4.58984 12 4.58984C7.58172 4.58984 4 8.17157 4 12.5898C4 14.6936 4.81205 16.6077 6.13981 18.0358L4.29289 19.8827C3.90237 20.2733 3.90237 20.9064 4.29289 21.297C4.68342 21.6875 5.31658 21.6875 5.70711 21.297L7.67984 19.3242C8.92587 20.1252 10.4087 20.5898 12 20.5898ZM13 9.5C13 8.94772 12.5523 8.5 12 8.5C11.4477 8.5 11 8.94772 11 9.5V11.5H9C8.44772 11.5 8 11.9477 8 12.5C8 13.0523 8.44772 13.5 9 13.5H11V15.5C11 16.0523 11.4477 16.5 12 16.5C12.5523 16.5 13 16.0523 13 15.5V13.5H15C15.5523 13.5 16 13.0523 16 12.5C16 11.9477 15.5523 11.5 15 11.5H13V9.5Z" fill="#0000CC"/>
</svg>
