<svg width="24" height="24" viewBox="0 0 24 24" fill="none" xmlns="http://www.w3.org/2000/svg">
<path d="M5.00035 3C4.44806 3 4.00035 3.44772 4.00035 4C4.00035 4.55228 4.44806 5 5.00035 5H19.0003C19.5526 5 20.0003 4.55228 20.0003 4C20.0003 3.44772 19.5526 3 19.0003 3H5.00035Z" fill="#0000CC"/>
<path d="M4.00035 6C3.44806 6 3.00035 6.44772 3.00035 7C3.00035 7.55228 3.44806 8 4.00035 8H20.0003C20.5526 8 21.0003 7.55228 21.0003 7C21.0003 6.44772 20.5526 6 20.0003 6H4.00035Z" fill="#0000CC"/>
<path d="M10 15C10 14.8861 10.0693 14.6606 10.4334 14.4178C10.7905 14.1798 11.3415 14 12 14C12.6585 14 13.2095 14.1798 13.5666 14.4178C13.9307 14.6606 14 14.8861 14 15C14 15.1139 13.9307 15.3394 13.5666 15.5822C13.2095 15.8202 12.6585 16 12 16C11.3415 16 10.7905 15.8202 10.4334 15.5822C10.0693 15.3394 10 15.1139 10 15Z" fill="#0000CC"/>
<path fill-rule="evenodd" clip-rule="evenodd" d="M5.61403 9H18.3867C18.8133 8.99998 19.1942 8.99995 19.5088 9.02663C19.8432 9.055 20.2005 9.11928 20.5439 9.30741C21.0369 9.57744 21.4244 10.0057 21.6441 10.5231C21.7971 10.8835 21.8255 11.2454 21.8205 11.581C21.8157 11.8967 21.7778 12.2757 21.7353 12.7002L21.2799 17.254C21.2321 17.7322 21.1907 18.1471 21.1294 18.4885C21.0643 18.8506 20.9652 19.2067 20.7619 19.545C20.4567 20.0531 20.0078 20.4594 19.4718 20.7125C19.115 20.8811 18.7508 20.9443 18.384 20.973C18.0382 21 17.6213 21 17.1407 21H6.86004C6.37947 21 5.96247 21 5.6167 20.973C5.24991 20.9443 4.88567 20.8811 4.52887 20.7125C3.99293 20.4594 3.54401 20.0531 3.23875 19.545C3.03552 19.2067 2.93636 18.8506 2.87134 18.4885C2.81003 18.1471 2.76856 17.7322 2.72075 17.254L2.26538 12.7002C2.2229 12.2757 2.18498 11.8967 2.18023 11.581C2.17517 11.2454 2.20359 10.8835 2.35661 10.5231C2.57625 10.0057 2.96382 9.57744 3.45676 9.30741C3.8002 9.11928 4.1575 9.055 4.4919 9.02663C4.80644 8.99995 5.18739 8.99998 5.61403 9ZM9.32398 12.7537C10.0526 12.268 11.0017 12 12 12C12.9983 12 13.9474 12.268 14.676 12.7537C15.3977 13.2349 16 14.0093 16 15C16 15.9907 15.3977 16.7651 14.676 17.2463C13.9474 17.732 12.9983 18 12 18C11.0017 18 10.0526 17.732 9.32398 17.2463C8.6023 16.7651 8 15.9907 8 15C8 14.0093 8.6023 13.2349 9.32398 12.7537Z" fill="#0000CC"/>
</svg>
