<svg width="24" height="24" viewBox="0 0 24 24" fill="none" xmlns="http://www.w3.org/2000/svg">
<path fill-rule="evenodd" clip-rule="evenodd" d="M5 2C5.55228 2 6 2.44772 6 3V4H7C7.55228 4 8 4.44772 8 5V7H16V5C16 4.44772 16.4477 4 17 4H18V3C18 2.44772 18.4477 2 19 2C19.5523 2 20 2.44772 20 3V5C20 5.55228 19.5523 6 19 6H18V9C18.5523 9 19 9.44772 19 10V12H20V9C20 8.44772 20.4477 8 21 8C21.5523 8 22 8.44772 22 9V13C22 13.5523 21.5523 14 21 14H20V18C20 18.5523 19.5523 19 19 19H17V21C17 21.5523 16.5523 22 16 22H14C13.4477 22 13 21.5523 13 21C13 20.4477 13.4477 20 14 20H15V19H9V20H10C10.5523 20 11 20.4477 11 21C11 21.5523 10.5523 22 10 22H8C7.44772 22 7 21.5523 7 21V19H5C4.44772 19 4 18.5523 4 18V14H3C2.44772 14 2 13.5523 2 13V9C2 8.44772 2.44772 8 3 8C3.55228 8 4 8.44772 4 9V12H5V10C5 9.44772 5.44772 9 6 9V6H5C4.44772 6 4 5.55228 4 5V3C4 2.44772 4.44772 2 5 2ZM9 12C8.44772 12 8 12.4477 8 13V13.5C8 14.0523 8.44772 14.5 9 14.5H9.5C10.0523 14.5 10.5 14.0523 10.5 13.5V13C10.5 12.4477 10.0523 12 9.5 12H9ZM14.5 12C13.9477 12 13.5 12.4477 13.5 13V13.5C13.5 14.0523 13.9477 14.5 14.5 14.5H15C15.5523 14.5 16 14.0523 16 13.5V13C16 12.4477 15.5523 12 15 12H14.5Z" fill="#0000CC"/>
</svg>
