<svg width="24" height="24" viewBox="0 0 24 24" fill="none" xmlns="http://www.w3.org/2000/svg">
<path d="M12.0004 22C17.5233 22 22.0004 17.5228 22.0004 12C22.0004 6.47715 17.5233 2 12.0004 2C6.81508 2 2.55153 5.94668 2.0498 11H12.5862L10.2933 8.70711C9.9028 8.31658 9.9028 7.68342 10.2933 7.29289C10.6838 6.90237 11.317 6.90237 11.7075 7.29289L15.7075 11.2929C16.0981 11.6834 16.0981 12.3166 15.7075 12.7071L11.7075 16.7071C11.317 17.0976 10.6838 17.0976 10.2933 16.7071C9.9028 16.3166 9.9028 15.6834 10.2933 15.2929L12.5862 13H2.0498C2.55153 18.0533 6.81508 22 12.0004 22Z" fill="#0000CC"/>
</svg>
