<svg width="24" height="24" viewBox="0 0 24 24" fill="none" xmlns="http://www.w3.org/2000/svg">
<path fill-rule="evenodd" clip-rule="evenodd" d="M7 2C7.55228 2 8 2.44772 8 3V18.5858L10.2929 16.2929C10.6834 15.9024 11.3166 15.9024 11.7071 16.2929C12.0976 16.6834 12.0976 17.3166 11.7071 17.7071L7.70711 21.7071C7.31658 22.0976 6.68342 22.0976 6.29289 21.7071L2.29289 17.7071C1.90237 17.3166 1.90237 16.6834 2.29289 16.2929C2.68342 15.9024 3.31658 15.9024 3.70711 16.2929L6 18.5858V3C6 2.44772 6.44772 2 7 2ZM18 2C18.4 2 18.7616 2.2384 18.9191 2.60608L21.9191 9.60608C22.1367 10.1137 21.9015 10.7016 21.3939 10.9191C20.8863 11.1367 20.2984 10.9015 20.0809 10.3939L19.912 10H16.088L15.9191 10.3939C15.7016 10.9015 15.1137 11.1367 14.6061 10.9191C14.0985 10.7016 13.8633 10.1137 14.0809 9.60608L17.0809 2.60608C17.2384 2.2384 17.6 2 18 2ZM16.9451 8H19.0549L18 5.53859L16.9451 8ZM14.5 14C14.5 13.4477 14.9477 13 15.5 13H20.5C20.8746 13 21.2178 13.2093 21.3892 13.5424C21.5606 13.8755 21.5315 14.2764 21.3137 14.5812L17.4432 20H20.5C21.0523 20 21.5 20.4477 21.5 21C21.5 21.5523 21.0523 22 20.5 22H15.5C15.1254 22 14.7822 21.7907 14.6108 21.4576C14.4394 21.1245 14.4685 20.7236 14.6863 20.4188L18.5568 15H15.5C14.9477 15 14.5 14.5523 14.5 14Z" fill="#0000CC"/>
</svg>
