<svg width="24" height="24" viewBox="0 0 24 24" fill="none" xmlns="http://www.w3.org/2000/svg">
<path d="M19.7429 18.3287C21.1536 16.6049 22 14.4013 22 12C22 6.47715 17.5228 2 12 2C6.47715 2 2 6.47715 2 12C2 17.5228 6.47715 22 12 22C14.4013 22 16.6049 21.1536 18.3287 19.7429L11 12.4142V15.6569C11 16.2091 10.5523 16.6569 10 16.6569C9.44771 16.6569 9 16.2091 9 15.6569V10C9 9.44771 9.44771 9 10 9H15.6569C16.2091 9 16.6569 9.44771 16.6569 10C16.6569 10.5523 16.2091 11 15.6569 11H12.4142L19.7429 18.3287Z" fill="#0000CC"/>
</svg>
