<svg width="24" height="24" viewBox="0 0 24 24" fill="none" xmlns="http://www.w3.org/2000/svg">
<path d="M11 2.04932C5.94668 2.55104 2 6.81459 2 11.9999C2 17.5228 6.47715 21.9999 12 21.9999C17.5228 21.9999 22 17.5228 22 11.9999C22 6.81459 18.0533 2.55104 13 2.04932V12.5857L15.2929 10.2928C15.6834 9.90231 16.3166 9.90231 16.7071 10.2928C17.0976 10.6834 17.0976 11.3165 16.7071 11.707L12.7071 15.707C12.3166 16.0976 11.6834 16.0976 11.2929 15.707L7.29289 11.707C6.90237 11.3165 6.90237 10.6834 7.29289 10.2928C7.68342 9.90231 8.31658 9.90231 8.70711 10.2928L11 12.5857V2.04932Z" fill="#0000CC"/>
</svg>
