<svg width="24" height="24" viewBox="0 0 24 24" fill="none" xmlns="http://www.w3.org/2000/svg">
<path fill-rule="evenodd" clip-rule="evenodd" d="M22 5.5C22 6.40709 21.6549 7.23358 21.0889 7.85537L18.7682 10.6402C18.4147 11.0645 17.7841 11.1218 17.3598 10.7682C16.9355 10.4147 16.8782 9.78409 17.2318 9.35982L17.6238 8.88942C16.1148 8.50046 15 7.13042 15 5.5C15 3.567 16.567 2 18.5 2C20.433 2 22 3.567 22 5.5ZM20 5.5C20 6.32843 19.3284 7 18.5 7C17.6716 7 17 6.32843 17 5.5C17 4.67157 17.6716 4 18.5 4C19.3284 4 20 4.67157 20 5.5Z" fill="#0000CC"/>
<path d="M18.8827 13.0761C19.2564 13.2309 19.5 13.5955 19.5 14V20H20.5C21.0523 20 21.5 20.4477 21.5 21C21.5 21.5523 21.0523 22 20.5 22H16.5C15.9477 22 15.5 21.5523 15.5 21C15.5 20.4477 15.9477 20 16.5 20H17.5V16.4142L17.2071 16.7071C16.8166 17.0976 16.1834 17.0976 15.7929 16.7071C15.4024 16.3166 15.4024 15.6834 15.7929 15.2929L17.7929 13.2929C18.0789 13.0069 18.509 12.9213 18.8827 13.0761Z" fill="#0000CC"/>
<path d="M7.70711 2.29289C7.31658 1.90237 6.68342 1.90237 6.29289 2.29289L2.29289 6.29289C1.90237 6.68342 1.90237 7.31658 2.29289 7.70711C2.68342 8.09763 3.31658 8.09763 3.70711 7.70711L6 5.41421V21C6 21.5523 6.44772 22 7 22C7.55228 22 8 21.5523 8 21V5.41421L10.2929 7.70711C10.6834 8.09763 11.3166 8.09763 11.7071 7.70711C12.0976 7.31658 12.0976 6.68342 11.7071 6.29289L7.70711 2.29289Z" fill="#0000CC"/>
</svg>
