<svg width="24" height="24" viewBox="0 0 24 24" fill="none" xmlns="http://www.w3.org/2000/svg">
<path fill-rule="evenodd" clip-rule="evenodd" d="M4 3C4.55228 3 5 3.44772 5 4V20C5 20.5523 4.55228 21 4 21C3.44772 21 3 20.5523 3 20V4C3 3.44772 3.44772 3 4 3ZM12.7071 7.29289C13.0976 7.68342 13.0976 8.31658 12.7071 8.70711L10.4142 11H20C20.5523 11 21 11.4477 21 12C21 12.5523 20.5523 13 20 13H10.4142L12.7071 15.2929C13.0976 15.6834 13.0976 16.3166 12.7071 16.7071C12.3166 17.0976 11.6834 17.0976 11.2929 16.7071L7.29289 12.7071C6.90237 12.3166 6.90237 11.6834 7.29289 11.2929L11.2929 7.29289C11.6834 6.90237 12.3166 6.90237 12.7071 7.29289Z" fill="#0000CC"/>
</svg>
