<svg width="24" height="24" viewBox="0 0 24 24" fill="none" xmlns="http://www.w3.org/2000/svg">
<path d="M18.8827 2.07615C19.2564 2.23093 19.5 2.59557 19.5 3.00003V9.00003H20.5C21.0523 9.00003 21.5 9.44774 21.5 10C21.5 10.5523 21.0523 11 20.5 11H16.5C15.9477 11 15.5 10.5523 15.5 10C15.5 9.44774 15.9477 9.00003 16.5 9.00003H17.5V5.41424L17.2071 5.70714C16.8166 6.09766 16.1834 6.09766 15.7929 5.70714C15.4024 5.31661 15.4024 4.68345 15.7929 4.29292L17.7929 2.29292C18.0789 2.00692 18.509 1.92137 18.8827 2.07615Z" fill="#0000CC"/>
<path fill-rule="evenodd" clip-rule="evenodd" d="M22 16.5C22 17.4071 21.6549 18.2336 21.0889 18.8554L18.7682 21.6402C18.4147 22.0645 17.7841 22.1218 17.3598 21.7682C16.9355 21.4147 16.8782 20.7841 17.2318 20.3598L17.6238 19.8894C16.1148 19.5005 15 18.1304 15 16.5C15 14.567 16.567 13 18.5 13C20.433 13 22 14.567 22 16.5ZM20 16.5C20 17.3284 19.3284 18 18.5 18C17.6716 18 17 17.3284 17 16.5C17 15.6716 17.6716 15 18.5 15C19.3284 15 20 15.6716 20 16.5Z" fill="#0000CC"/>
<path d="M8 3C8 2.44772 7.55228 2 7 2C6.44772 2 6 2.44772 6 3V18.5858L3.70711 16.2929C3.31658 15.9024 2.68342 15.9024 2.29289 16.2929C1.90237 16.6834 1.90237 17.3166 2.29289 17.7071L6.29289 21.7071C6.68342 22.0976 7.31658 22.0976 7.70711 21.7071L11.7071 17.7071C12.0976 17.3166 12.0976 16.6834 11.7071 16.2929C11.3166 15.9024 10.6834 15.9024 10.2929 16.2929L8 18.5858V3Z" fill="#0000CC"/>
</svg>
