<svg width="24" height="24" viewBox="0 0 24 24" fill="none" xmlns="http://www.w3.org/2000/svg">
<path fill-rule="evenodd" clip-rule="evenodd" d="M11.5108 2.12785C11.8146 1.95738 12.1854 1.95738 12.4892 2.12785L13.6647 2.78723L15.0124 2.80392C15.3608 2.80824 15.6818 2.99359 15.8598 3.29316L16.5481 4.45194L17.7068 5.14023C18.0064 5.31817 18.1918 5.63921 18.1961 5.98761L18.2128 7.33529L18.8722 8.51076C19.0426 8.81465 19.0426 9.18535 18.8722 9.48924L18.2128 10.6647L18.1961 12.0124C18.1918 12.3608 18.0064 12.6818 17.7068 12.8598L16.5481 13.5481L15.8598 14.7068C15.6818 15.0064 15.3608 15.1918 15.0124 15.1961L13.6647 15.2128L12.4892 15.8722C12.1854 16.0426 11.8146 16.0426 11.5108 15.8722L10.3353 15.2128L8.98761 15.1961C8.63921 15.1918 8.31817 15.0064 8.14023 14.7068L7.45194 13.5481L6.29316 12.8598C5.99359 12.6818 5.80824 12.3608 5.80392 12.0124L5.78723 10.6647L5.12785 9.48924C4.95738 9.18535 4.95738 8.81465 5.12785 8.51076L5.78723 7.33529L5.80392 5.98762C5.80824 5.63921 5.99359 5.31817 6.29316 5.14023L7.45194 4.45194L8.14023 3.29316C8.31817 2.99359 8.63921 2.80824 8.98762 2.80392L10.3353 2.78723L11.5108 2.12785ZM15 9C15 10.6569 13.6569 12 12 12C10.3431 12 9 10.6569 9 9C9 7.34315 10.3431 6 12 6C13.6569 6 15 7.34315 15 9Z" fill="#0000CC"/>
<path d="M7.5 21.0003V16.7944C7.93816 17.0474 8.44024 17.1897 8.96284 17.1961L9.80113 17.2065L10.5323 17.6167C11.4439 18.1281 12.5561 18.1281 13.4677 17.6167L14.1989 17.2065L15.0372 17.1961C15.5598 17.1897 16.0618 17.0474 16.5 16.7944V21.0003C16.5 21.3568 16.3102 21.6863 16.0019 21.8652C15.6936 22.0442 15.3134 22.0454 15.0039 21.8686L12 20.1521L8.99614 21.8686C8.68664 22.0454 8.30639 22.0442 7.99807 21.8652C7.68976 21.6863 7.5 21.3568 7.5 21.0003Z" fill="#0000CC"/>
</svg>
