<svg width="24" height="24" viewBox="0 0 24 24" fill="none" xmlns="http://www.w3.org/2000/svg">
<path fill-rule="evenodd" clip-rule="evenodd" d="M11.5108 2.12785C11.8146 1.95738 12.1854 1.95738 12.4892 2.12785L13.6647 2.78723L15.0124 2.80392C15.3608 2.80824 15.6818 2.99359 15.8598 3.29316L16.5481 4.45194L17.7068 5.14023C18.0064 5.31817 18.1918 5.63921 18.1961 5.98761L18.2128 7.33529L18.8722 8.51076C19.0426 8.81465 19.0426 9.18535 18.8722 9.48924L18.2128 10.6647L18.1961 12.0124C18.1918 12.3608 18.0064 12.6818 17.7068 12.8598L16.5481 13.5481L15.8598 14.7068C15.6818 15.0064 15.3608 15.1918 15.0124 15.1961L13.6647 15.2128L12.4892 15.8722C12.1854 16.0426 11.8146 16.0426 11.5108 15.8722L10.3353 15.2128L8.98761 15.1961C8.63921 15.1918 8.31817 15.0064 8.14023 14.7068L7.45194 13.5481L6.29316 12.8598C5.99359 12.6818 5.80824 12.3608 5.80392 12.0124L5.78723 10.6647L5.12785 9.48924C4.95738 9.18535 4.95738 8.81465 5.12785 8.51076L5.78723 7.33529L5.80392 5.98762C5.80824 5.63921 5.99359 5.31817 6.29316 5.14023L7.45194 4.45194L8.14023 3.29316C8.31817 2.99359 8.63921 2.80824 8.98762 2.80392L10.3353 2.78723L11.5108 2.12785ZM9 9C9 7.34315 10.3431 6 12 6C13.6569 6 15 7.34315 15 9C15 10.6569 13.6569 12 12 12C10.3431 12 9 10.6569 9 9Z" fill="#0000CC"/>
<path d="M15.1056 21.4474L13.2463 17.7289C13.3213 17.6946 13.3951 17.6572 13.4677 17.6165L14.1989 17.2063L15.0372 17.1959C16.0824 17.183 17.0455 16.6269 17.5793 15.7282L18.0074 15.0074L18.7282 14.5793C18.7746 14.5517 18.8201 14.523 18.8646 14.4933L20.8944 18.5529C21.0494 18.8629 21.0329 19.2311 20.8507 19.5259C20.6684 19.8207 20.3466 20.0001 20 20.0001H18L16.8 21.6001C16.5921 21.8774 16.2554 22.0272 15.9102 21.9961C15.565 21.965 15.2606 21.7573 15.1056 21.4474Z" fill="#0000CC"/>
<path d="M3.10557 18.5529L5.1354 14.4933C5.17993 14.523 5.2254 14.5517 5.27179 14.5793L5.99257 15.0074L6.4207 15.7282C6.95452 16.6269 7.91763 17.183 8.96284 17.1959L9.80113 17.2063L10.5323 17.6165C10.6049 17.6572 10.6787 17.6946 10.7537 17.7289L8.89443 21.4474C8.73944 21.7573 8.43499 21.965 8.08981 21.9961C7.74463 22.0272 7.40795 21.8774 7.2 21.6001L6 20.0001H4C3.65342 20.0001 3.33156 19.8207 3.14935 19.5259C2.96714 19.2311 2.95058 18.8629 3.10557 18.5529Z" fill="#0000CC"/>
</svg>
