<svg width="24" height="24" viewBox="0 0 24 24" fill="none" xmlns="http://www.w3.org/2000/svg">
<path d="M17.8101 18.729L15 16.4809V7.51907L17.8101 5.27097C18.1964 4.96192 18.5384 4.68824 18.8286 4.49644C19.1119 4.30911 19.5129 4.08115 19.9975 4.08063C20.6065 4.07997 21.1827 4.3569 21.5627 4.83293C21.865 5.21161 21.9375 5.66716 21.9682 6.00542C21.9997 6.35179 21.9996 6.78984 21.9996 7.28452V16.7155C21.9996 17.2101 21.9997 17.6482 21.9682 17.9946C21.9375 18.3329 21.865 18.7884 21.5627 19.1671C21.1827 19.6431 20.6065 19.92 19.9975 19.9194C19.5129 19.9189 19.1119 19.6909 18.8286 19.5036C18.5385 19.3118 18.1964 19.0381 17.8101 18.729Z" fill="#0000CC"/>
<path d="M2.19307 12.9472C1.96429 12.3364 1.96429 11.6636 2.19307 11.0529C2.3521 10.6283 2.63036 10.3039 2.92288 10.0245C3.20239 9.75754 3.57185 9.46199 3.99757 9.12145L8.81067 5.27097C9.19693 4.96192 9.53899 4.68824 9.82911 4.49644C10.1124 4.30911 10.5135 4.08115 10.998 4.08063C11.6071 4.07997 12.1833 4.3569 12.5632 4.83293C12.8655 5.21161 12.938 5.66715 12.9687 6.00542C13.0002 6.35179 13.0002 6.78984 13.0002 7.28452V16.7155C13.0002 17.2101 13.0002 17.6482 12.9687 17.9946C12.938 18.3329 12.8655 18.7884 12.5632 19.1671C12.1833 19.6431 11.6071 19.92 10.998 19.9194C10.5135 19.9189 10.1124 19.6909 9.82911 19.5036C9.53899 19.3118 9.19695 19.0381 8.81069 18.7291L3.99761 14.8786C3.57188 14.538 3.20239 14.2425 2.92288 13.9755C2.63036 13.6961 2.3521 13.3717 2.19307 12.9472Z" fill="#0000CC"/>
</svg>
