<svg width="24" height="24" viewBox="0 0 24 24" fill="none" xmlns="http://www.w3.org/2000/svg">
<path fill-rule="evenodd" clip-rule="evenodd" d="M12 2C10.0894 2 8.49167 3.33954 8.09473 5.13068C7.77785 5.19273 7.4753 5.28757 7.18404 5.43597C6.4314 5.81947 5.81947 6.43139 5.43598 7.18404C5.18869 7.66937 5.09012 8.18608 5.0442 8.74817C4.99998 9.28937 4.99999 9.95373 5 10.7587L5.00001 11L4.56811 11C4.31574 11 4.06992 10.9999 3.86178 11.0169C3.63318 11.0356 3.36345 11.0797 3.09202 11.218C2.7157 11.4097 2.40974 11.7157 2.21799 12.092C2.07969 12.3634 2.03563 12.6332 2.01695 12.8618C1.99994 13.0699 1.99997 13.3157 2 13.5681L2 16.4319C1.99997 16.6843 1.99994 16.9301 2.01695 17.1382C2.03563 17.3668 2.07969 17.6366 2.21799 17.908C2.40974 18.2843 2.7157 18.5903 3.09202 18.782C3.36345 18.9203 3.63318 18.9644 3.86178 18.9831C4.0699 19.0001 4.31564 19 4.56797 19L5.15033 19C5.21226 19.2826 5.30243 19.5539 5.43598 19.816C5.81947 20.5686 6.43139 21.1805 7.18404 21.564C7.66938 21.8113 8.18608 21.9099 8.74818 21.9558C9.28937 22 9.95372 22 10.7587 22H13.2413C14.0463 22 14.7106 22 15.2518 21.9558C15.8139 21.9099 16.3306 21.8113 16.816 21.564C17.5686 21.1805 18.1805 20.5686 18.564 19.816C18.6976 19.5539 18.7878 19.2826 18.8497 19L19.4319 19C19.6843 19 19.9301 19.0001 20.1382 18.9831C20.3668 18.9644 20.6366 18.9203 20.908 18.782C21.2843 18.5903 21.5903 18.2843 21.782 17.908C21.9203 17.6366 21.9644 17.3668 21.9831 17.1382C22.0001 16.9301 22 16.6844 22 16.432V13.5681C22 13.3157 22.0001 13.0699 21.9831 12.8618C21.9644 12.6332 21.9203 12.3634 21.782 12.092C21.5903 11.7157 21.2843 11.4097 20.908 11.218C20.6366 11.0797 20.3668 11.0356 20.1382 11.0169C19.9301 10.9999 19.6843 11 19.4319 11L19 11V10.7587C19 9.95372 19 9.28936 18.9558 8.74817C18.9099 8.18608 18.8113 7.66937 18.564 7.18404C18.1805 6.43139 17.5686 5.81947 16.816 5.43597C16.5247 5.28757 16.2222 5.19273 15.9053 5.13069C15.5083 3.33954 13.9106 2 12 2ZM10.7587 5C10.5887 5 10.425 4.99999 10.2673 5.00041C10.6131 4.40238 11.2596 4 12 4C12.7405 4 13.3869 4.40238 13.7327 5.00041C13.575 4.99999 13.4113 5 13.2413 5H10.7587ZM4.60001 13H5.00001L5 16.2413C5 16.5096 5 16.7623 5.00163 17H4.60001C4.30348 17 4.14122 16.9992 4.02464 16.9897L4.01145 16.9886L4.01031 16.9754C4.00078 16.8588 4.00001 16.6965 4.00001 16.4V13.6C4.00001 13.3035 4.00078 13.1412 4.01031 13.0246L4.01145 13.0114L4.02464 13.0103C4.14122 13.0008 4.30348 13 4.60001 13ZM19 13H19.4C19.6965 13 19.8588 13.0008 19.9754 13.0103L19.9885 13.0114L19.9897 13.0246C19.9992 13.1412 20 13.3035 20 13.6V16.4C20 16.6965 19.9992 16.8588 19.9897 16.9754L19.9886 16.9885L19.9754 16.9897C19.8588 16.9992 19.6965 17 19.4 17H18.9984C19 16.7626 19 16.5103 19 16.2424V13ZM10 11C9.44772 11 9 11.4477 9 12C9 12.5523 9.44772 13 10 13H14C14.5523 13 15 12.5523 15 12C15 11.4477 14.5523 11 14 11H10Z" fill="#0000CC"/>
</svg>
