<svg width="24" height="24" viewBox="0 0 24 24" fill="none" xmlns="http://www.w3.org/2000/svg">
<path fill-rule="evenodd" clip-rule="evenodd" d="M12 2C9.79086 2 8 3.79086 8 6V8L7.16146 8C6.63431 7.99998 6.17955 7.99997 5.80498 8.03057C5.40963 8.06287 5.01641 8.13419 4.63803 8.32698C4.07355 8.6146 3.6146 9.07354 3.32698 9.63803C3.13419 10.0164 3.06287 10.4096 3.03057 10.805C2.99997 11.1795 2.99998 11.6343 3 12.1614V14.6428C2.99999 15.7265 2.99999 16.6008 3.05782 17.3086C3.11737 18.0375 3.24318 18.6777 3.54497 19.27C4.02434 20.2108 4.78924 20.9757 5.73005 21.455C6.32234 21.7568 6.96253 21.8826 7.69138 21.9422C8.39923 22 9.27334 22 10.3571 22H13.6428C14.7266 22 15.6008 22 16.3086 21.9422C17.0375 21.8826 17.6777 21.7568 18.27 21.455C19.2108 20.9757 19.9757 20.2108 20.455 19.27C20.7568 18.6777 20.8826 18.0375 20.9422 17.3086C21 16.6008 21 15.7267 21 14.6429V12.1614C21 11.6343 21 11.1795 20.9694 10.805C20.9371 10.4096 20.8658 10.0164 20.673 9.63803C20.3854 9.07354 19.9265 8.6146 19.362 8.32698C18.9836 8.13419 18.5904 8.06287 18.195 8.03057C17.8205 7.99997 17.3657 7.99998 16.8385 8L16 8V6C16 3.79086 14.2091 2 12 2ZM10 6V8H14V6C14 4.89543 13.1046 4 12 4C10.8954 4 10 4.89543 10 6ZM10 11C10 11.5523 9.55229 12 9 12C8.44772 12 8 11.5523 8 11C8 10.4477 8.44772 10 9 10C9.55229 10 10 10.4477 10 11ZM15 12C15.5523 12 16 11.5523 16 11C16 10.4477 15.5523 10 15 10C14.4477 10 14 10.4477 14 11C14 11.5523 14.4477 12 15 12Z" fill="#0000CC"/>
</svg>
