<svg width="24" height="24" viewBox="0 0 24 24" fill="none" xmlns="http://www.w3.org/2000/svg">
<path fill-rule="evenodd" clip-rule="evenodd" d="M9 5C9 3.34315 10.3431 2 12 2C13.6569 2 15 3.34315 15 5C15 6.65685 13.6569 8 12 8C10.3431 8 9 6.65685 9 5Z" fill="#0000CC"/>
<path fill-rule="evenodd" clip-rule="evenodd" d="M5 16C3.34315 16 2 17.3431 2 19C2 20.6569 3.34315 22 5 22C6.65685 22 8 20.6569 8 19C8 17.3431 6.65685 16 5 16Z" fill="#0000CC"/>
<path fill-rule="evenodd" clip-rule="evenodd" d="M12 16C10.3431 16 9 17.3431 9 19C9 20.6569 10.3431 22 12 22C13.6569 22 15 20.6569 15 19C15 17.3431 13.6569 16 12 16Z" fill="#0000CC"/>
<path fill-rule="evenodd" clip-rule="evenodd" d="M8.5 9C6.84315 9 5.5 10.3431 5.5 12C5.5 13.6569 6.84315 15 8.5 15C10.1569 15 11.5 13.6569 11.5 12C11.5 10.3431 10.1569 9 8.5 9Z" fill="#0000CC"/>
<path fill-rule="evenodd" clip-rule="evenodd" d="M12.5 12C12.5 10.3431 13.8431 9 15.5 9C17.1569 9 18.5 10.3431 18.5 12C18.5 13.6569 17.1569 15 15.5 15C13.8431 15 12.5 13.6569 12.5 12Z" fill="#0000CC"/>
<path fill-rule="evenodd" clip-rule="evenodd" d="M19 16C17.3431 16 16 17.3431 16 19C16 20.6569 17.3431 22 19 22C20.6569 22 22 20.6569 22 19C22 17.3431 20.6569 16 19 16Z" fill="#0000CC"/>
</svg>
