<svg width="24" height="24" viewBox="0 0 24 24" fill="none" xmlns="http://www.w3.org/2000/svg">
<path fill-rule="evenodd" clip-rule="evenodd" d="M12.8598 1.80161C12.2989 1.63384 11.7012 1.63384 11.1403 1.80161C10.7673 1.91318 10.4578 2.10561 10.1688 2.32501C9.89651 2.53168 9.58974 2.80438 9.23649 3.1184L2.33568 9.25246C2.02537 9.52829 1.91777 9.96717 2.06532 10.3553C2.21287 10.7433 2.58486 10.9999 3.00004 10.9999H21C21.4152 10.9999 21.7872 10.7433 21.9348 10.3553C22.0823 9.96717 21.9747 9.52829 21.6644 9.25246L14.7636 3.11842C14.4104 2.80439 14.1036 2.53168 13.8313 2.32501C13.5423 2.10561 13.2328 1.91318 12.8598 1.80161ZM12 8C12.5523 8 13 7.55228 13 7C13 6.44772 12.5523 6 12 6C11.4477 6 11 6.44772 11 7C11 7.55228 11.4477 8 12 8Z" fill="#0000CC"/>
<path d="M19 13H17V16.9999H15L15 13H13L13 16.9999H11V13H9.00004V16.9999H7.00004L7.00002 13H5.00002L5.00004 16.9999H4.00004C3.44776 16.9999 3.00004 17.4476 3.00004 17.9999C3.00004 18.5522 3.44776 18.9999 4.00004 18.9999H20C20.5523 18.9999 21 18.5522 21 17.9999C21 17.4476 20.5523 16.9999 20 16.9999H19V13Z" fill="#0000CC"/>
<path d="M2.00004 20.9999C2.00004 20.4476 2.44776 19.9999 3.00004 19.9999H21C21.5523 19.9999 22 20.4476 22 20.9999C22 21.5522 21.5523 21.9999 21 21.9999H3.00004C2.44776 21.9999 2.00004 21.5522 2.00004 20.9999Z" fill="#0000CC"/>
</svg>
