<svg width="24" height="24" viewBox="0 0 24 24" fill="none" xmlns="http://www.w3.org/2000/svg">
<path fill-rule="evenodd" clip-rule="evenodd" d="M4.56811 4C4.31573 3.99997 4.06993 3.99994 3.86178 4.01695C3.63318 4.03563 3.36345 4.07969 3.09202 4.21799C2.7157 4.40974 2.40974 4.7157 2.21799 5.09202C2.07969 5.36345 2.03563 5.63318 2.01695 5.86178C1.99994 6.06993 1.99997 6.31572 2 6.56809L2 8.4319C1.99997 8.68428 1.99994 8.93008 2.01695 9.13824C2.03563 9.36683 2.07969 9.63656 2.21799 9.90799C2.40974 10.2843 2.7157 10.5903 3.09202 10.782C3.36345 10.9203 3.63318 10.9644 3.86178 10.9831C4.06993 11.0001 4.31572 11 4.56811 11H19.4319C19.6843 11 19.9301 11.0001 20.1382 10.9831C20.3668 10.9644 20.6366 10.9203 20.908 10.782C21.2843 10.5903 21.5903 10.2843 21.782 9.90799C21.9203 9.63656 21.9644 9.36683 21.9831 9.13824C22.0001 8.93011 22 8.68437 22 8.43204V6.56809C22 6.31575 22.0001 6.0699 21.9831 5.86178C21.9644 5.63318 21.9203 5.36345 21.782 5.09202C21.5903 4.7157 21.2843 4.40974 20.908 4.21799C20.6366 4.07969 20.3668 4.03563 20.1382 4.01695C19.9301 3.99994 19.6843 3.99997 19.4319 4H4.56811ZM4 6H14V9H4V6Z" fill="#0000CC"/>
<path fill-rule="evenodd" clip-rule="evenodd" d="M4.56811 13C4.31574 13 4.06992 12.9999 3.86178 13.0169C3.63318 13.0356 3.36345 13.0797 3.09202 13.218C2.7157 13.4097 2.40974 13.7157 2.21799 14.092C2.07969 14.3634 2.03563 14.6332 2.01695 14.8618C1.99994 15.0699 1.99997 15.3157 2 15.5681L2 17.4319C1.99997 17.6843 1.99994 17.9301 2.01695 18.1382C2.03563 18.3668 2.07969 18.6366 2.21799 18.908C2.40974 19.2843 2.7157 19.5903 3.09202 19.782C3.36345 19.9203 3.63318 19.9644 3.86178 19.9831C4.06994 20.0001 4.31574 20 4.56812 20H19.4319C19.6843 20 19.9301 20.0001 20.1382 19.9831C20.3668 19.9644 20.6366 19.9203 20.908 19.782C21.2843 19.5903 21.5903 19.2843 21.782 18.908C21.9203 18.6366 21.9644 18.3668 21.9831 18.1382C22.0001 17.9301 22 17.6844 22 17.432V15.5681C22 15.3158 22.0001 15.0699 21.9831 14.8618C21.9644 14.6332 21.9203 14.3634 21.782 14.092C21.5903 13.7157 21.2843 13.4097 20.908 13.218C20.6366 13.0797 20.3668 13.0356 20.1382 13.0169C19.9301 12.9999 19.6843 13 19.4319 13H4.56811ZM4 15H8V18H4V15Z" fill="#0000CC"/>
</svg>
