<svg width="24" height="24" viewBox="0 0 24 24" fill="none" xmlns="http://www.w3.org/2000/svg">
<path fill-rule="evenodd" clip-rule="evenodd" d="M6.66692 4.54656C7.18904 5.01387 7.66176 5.53528 8.07633 6.1021C8.40236 6.54787 8.3053 7.17355 7.85952 7.49959C7.41374 7.82563 6.78806 7.72856 6.46202 7.28279C6.13007 6.82893 5.7514 6.41122 5.3331 6.03683L4.55394 5.32482C2.96594 7.09503 2 9.43471 2 12C2 14.562 2.96344 16.8989 4.54777 18.6683L5.3331 17.9632C5.75035 17.5898 6.12817 17.1732 6.45952 16.7207C6.78579 16.2751 7.41152 16.1783 7.85713 16.5046C8.30273 16.8309 8.39947 17.4566 8.07319 17.9022C7.65938 18.4674 7.18772 18.9873 6.66692 19.4535L6.02972 20.023C7.69592 21.2649 9.76211 22 12 22C14.2371 22 16.3026 21.2654 17.9684 20.0243L17.3331 19.4535C16.8123 18.9873 16.3406 18.4674 15.9268 17.9022C15.6006 17.4566 15.6973 16.8309 16.1429 16.5046C16.5885 16.1783 17.2142 16.2751 17.5405 16.7207C17.8719 17.1732 18.2497 17.5898 18.6669 17.9632L19.4526 18.6679C21.0367 16.8986 22 14.5618 22 12C22 9.43989 21.038 7.10447 19.4557 5.33555L18.6669 6.03683C18.2486 6.41123 17.8699 6.82893 17.538 7.28279C17.212 7.72856 16.5863 7.82563 16.1405 7.49959C15.6947 7.17355 15.5977 6.54787 15.9237 6.1021C16.3383 5.53528 16.811 5.01387 17.3331 4.54656L17.9644 3.97268C16.2993 2.73339 14.2353 2 12 2C9.76493 2 7.70113 2.73326 6.03602 3.97234L6.66692 4.54656ZM8.59859 9.15121C9.13893 9.037 9.66956 9.38245 9.78377 9.92279C9.92559 10.5938 10 11.2887 10 12C10 12.7108 9.92569 13.4054 9.78404 14.076C9.6699 14.6163 9.13932 14.9618 8.59896 14.8477C8.0586 14.7336 7.71308 14.203 7.82722 13.6626C7.94033 13.1271 8.00001 12.5711 8.00001 12C8.00001 11.4286 7.94026 10.8722 7.827 10.3364C7.71279 9.79605 8.05824 9.26542 8.59859 9.15121ZM15.4014 9.15121C15.9418 9.26542 16.2872 9.79605 16.173 10.3364C16.0598 10.8722 16 11.4286 16 12C16 12.5711 16.0597 13.1271 16.1728 13.6626C16.2869 14.203 15.9414 14.7336 15.4011 14.8477C14.8607 14.9618 14.3301 14.6163 14.216 14.076C14.0743 13.4054 14 12.7108 14 12C14 11.2887 14.0744 10.5938 14.2162 9.92279C14.3305 9.38245 14.8611 9.037 15.4014 9.15121Z" fill="#0000CC"/>
</svg>
