<svg width="24" height="24" viewBox="0 0 24 24" fill="none" xmlns="http://www.w3.org/2000/svg">
<path d="M3 3C2.44772 3 2 3.44772 2 4V7H4C6.76142 7 9 9.23858 9 12C9 14.7614 6.76142 17 4 17H2V20C2 20.5523 2.44772 21 3 21H11V3H3Z" fill="#0000CC"/>
<path d="M13 3V21H21C21.5523 21 22 20.5523 22 20V17H20C17.2386 17 15 14.7614 15 12C15 9.23858 17.2386 7 20 7H22V4C22 3.44772 21.5523 3 21 3H13Z" fill="#0000CC"/>
<path d="M22 9H20C18.3431 9 17 10.3431 17 12C17 13.6569 18.3431 15 20 15H22V9Z" fill="#0000CC"/>
<path d="M2 15H4C5.65685 15 7 13.6569 7 12C7 10.3431 5.65685 9 4 9H2V15Z" fill="#0000CC"/>
</svg>
