<svg width="24" height="24" viewBox="0 0 24 24" fill="none" xmlns="http://www.w3.org/2000/svg">
<path fill-rule="evenodd" clip-rule="evenodd" d="M9.44721 3.10579C9.94119 3.35278 10.1414 3.95345 9.89443 4.44743L7.61803 9.00022H16.382L14.1056 4.44743C13.8586 3.95345 14.0588 3.35278 14.5528 3.10579C15.0468 2.8588 15.6474 3.05903 15.8944 3.55301L18.618 9.00022H21C21.5523 9.00022 22 9.44793 22 10.0002C22 10.5525 21.5523 11.0002 21 11.0002H20.8198L19.4884 17.6573C19.4025 18.087 19.3275 18.4617 19.2418 18.7698C19.1504 19.0979 19.0298 19.4174 18.8203 19.7174C18.5039 20.1707 18.0684 20.5278 17.5618 20.7492C17.2265 20.8957 16.8896 20.9513 16.5499 20.9765C16.231 21.0002 15.8488 21.0002 15.4105 21.0002H8.58937C8.15112 21.0002 7.76897 21.0002 7.4501 20.9765C7.11042 20.9513 6.77347 20.8957 6.43822 20.7492C5.93165 20.5278 5.4961 20.1707 5.17966 19.7174C4.97025 19.4174 4.84962 19.0979 4.75824 18.7698C4.67246 18.4617 4.59752 18.0869 4.51159 17.6572L3.1802 11.0002H3C2.44772 11.0002 2 10.5525 2 10.0002C2 9.44793 2.44772 9.00022 3 9.00022H5.38197L8.10557 3.55301C8.35256 3.05903 8.95324 2.8588 9.44721 3.10579ZM9 13C9 13.5523 8.55229 14 8 14C7.44772 14 7 13.5523 7 13C7 12.4477 7.44772 12 8 12C8.55229 12 9 12.4477 9 13ZM17 13C17 13.5523 16.5523 14 16 14C15.4477 14 15 13.5523 15 13C15 12.4477 15.4477 12 16 12C16.5523 12 17 12.4477 17 13Z" fill="#0000CC"/>
</svg>
