<svg width="24" height="24" viewBox="0 0 24 24" fill="none" xmlns="http://www.w3.org/2000/svg">
<path fill-rule="evenodd" clip-rule="evenodd" d="M9.89443 4.44743C10.1414 3.95345 9.94119 3.35278 9.44721 3.10579C8.95324 2.8588 8.35256 3.05903 8.10557 3.55301L5.38197 9.00022H3C2.44772 9.00022 2 9.44793 2 10.0002C2 10.5525 2.44772 11.0002 3 11.0002H3.1802L4.51159 17.6572C4.59752 18.0869 4.67246 18.4617 4.75824 18.7698C4.84962 19.0979 4.97025 19.4174 5.17966 19.7174C5.4961 20.1707 5.93165 20.5278 6.43822 20.7492C6.77347 20.8957 7.11042 20.9513 7.4501 20.9765C7.76897 21.0002 8.15112 21.0002 8.58937 21.0002H15.4105C15.8488 21.0002 16.231 21.0002 16.5499 20.9765C16.8896 20.9513 17.2265 20.8957 17.5618 20.7492C18.0684 20.5278 18.5039 20.1707 18.8203 19.7174C19.0298 19.4174 19.1504 19.0979 19.2418 18.7698C19.3275 18.4617 19.4025 18.087 19.4884 17.6573L20.8198 11.0002H21C21.5523 11.0002 22 10.5525 22 10.0002C22 9.44793 21.5523 9.00022 21 9.00022H18.618L15.8944 3.55301C15.6474 3.05903 15.0468 2.8588 14.5528 3.10579C14.0588 3.35278 13.8586 3.95345 14.1056 4.44743L16.382 9.00022H7.61803L9.89443 4.44743ZM9 12C9.55228 12 10 12.4477 10 13V16C10 16.5523 9.55228 17 9 17C8.44772 17 8 16.5523 8 16V13C8 12.4477 8.44772 12 9 12ZM12 12C12.5523 12 13 12.4477 13 13V16C13 16.5523 12.5523 17 12 17C11.4477 17 11 16.5523 11 16V13C11 12.4477 11.4477 12 12 12ZM16 13C16 12.4477 15.5523 12 15 12C14.4477 12 14 12.4477 14 13V16C14 16.5523 14.4477 17 15 17C15.5523 17 16 16.5523 16 16V13Z" fill="#0000CC"/>
</svg>
