<svg width="24" height="24" viewBox="0 0 24 24" fill="none" xmlns="http://www.w3.org/2000/svg">
<path fill-rule="evenodd" clip-rule="evenodd" d="M6.52941 3.11032C6.87517 3.30959 7.06936 3.69535 7.02346 4.09178C7.00799 4.22533 7 4.36153 7 4.5C7 5.89593 7.81772 7.1017 9 7.66342V5C9 4.53623 9.31888 4.13331 9.77025 4.02675C10.2216 3.9202 10.687 4.13797 10.8944 4.55279L11.618 6H12.382L13.1056 4.55279C13.313 4.13797 13.7784 3.9202 14.2298 4.02675C14.6811 4.13331 15 4.53623 15 5V7.66342C16.1823 7.1017 17 5.89593 17 4.5C17 4.35843 16.9925 4.22236 16.9773 4.09178C16.9314 3.69535 17.1256 3.30959 17.4714 3.11033C17.8172 2.91106 18.2483 2.93646 18.5683 3.17494C21.2566 5.17852 23.0008 8.38569 23.0008 12C23.0008 13.294 22.7769 14.5379 22.365 15.6936C22.2671 15.9684 22.054 16.1867 21.7817 16.2914C21.5094 16.396 21.205 16.3765 20.9483 16.238C20.6672 16.0864 20.3459 16 20.0012 16C18.9483 16 18.0847 16.8142 18.0069 17.8467C17.967 18.3774 17.5197 18.7801 16.9944 18.7715C16.7603 18.7683 16.5263 18.6833 16.3388 18.5142C15.9836 18.1938 15.5156 18 15 18C13.8958 18 13.0008 18.8951 13.0008 20C13.0008 20.5523 12.553 21 12.0008 21C11.4485 21 11.0008 20.5523 11.0008 20C11.0008 18.8954 10.1053 18 9.00075 18C8.48501 18 8.01668 18.1939 7.66157 18.5142C7.37826 18.7697 6.97425 18.8418 6.62007 18.6999C6.2659 18.5581 6.02328 18.2271 5.99464 17.8467C5.91691 16.8142 5.05327 16 4.00038 16C3.65555 16 3.33389 16.0864 3.05289 16.238C2.79615 16.3765 2.49174 16.396 2.21944 16.2914C1.94714 16.1867 1.7341 15.9684 1.63616 15.6936C1.22431 14.5381 1 13.2942 1 12C1 8.38569 2.74419 5.17852 5.43252 3.17494C5.7525 2.93646 6.18364 2.91106 6.52941 3.11032Z" fill="#0000CC"/>
</svg>
