<svg width="24" height="24" viewBox="0 0 24 24" fill="none" xmlns="http://www.w3.org/2000/svg">
<path d="M3.70711 2.29289C3.31658 1.90237 2.68342 1.90237 2.29289 2.29289C1.90237 2.68342 1.90237 3.31658 2.29289 3.70711L3.82677 5.24098C3.76349 5.26658 3.70056 5.29512 3.63803 5.32698C3.07355 5.6146 2.6146 6.07354 2.32698 6.63803C2.13419 7.01641 2.06287 7.40963 2.03057 7.80497C1.99997 8.17953 1.99998 8.63426 2 9.16138V14.8385C1.99998 15.3657 1.99997 15.8205 2.03057 16.195C2.06287 16.5904 2.13419 16.9836 2.32698 17.362C2.6146 17.9265 3.07355 18.3854 3.63803 18.673C4.01641 18.8658 4.40963 18.9371 4.80498 18.9694C5.17953 19 5.63427 19 6.16138 19H16.8385C17.1051 19 17.3533 19 17.5819 18.9961L20.2929 21.7071C20.6834 22.0976 21.3166 22.0976 21.7071 21.7071C22.0976 21.3166 22.0976 20.6834 21.7071 20.2929L3.70711 2.29289Z" fill="#0000CC"/>
<path d="M20.9694 16.195C20.9559 16.3602 20.9356 16.525 20.9025 16.6885L9.21402 5H16.8386C17.3657 4.99998 17.8205 4.99997 18.195 5.03057C18.5904 5.06287 18.9836 5.13419 19.362 5.32698C19.9265 5.6146 20.3854 6.07354 20.673 6.63803C20.8658 7.01641 20.9371 7.40963 20.9694 7.80497C21 8.17954 21 8.6343 21 9.16144V10C21.5523 10 22 10.4477 22 11V13C22 13.5523 21.5523 14 21 14V14.8386C21 15.3657 21 15.8205 20.9694 16.195Z" fill="#0000CC"/>
</svg>
