<svg width="24" height="24" viewBox="0 0 24 24" fill="none" xmlns="http://www.w3.org/2000/svg">
<path d="M12.0003 2C10.1651 2 8.3925 2.67975 7.07529 3.90915C5.75575 5.14072 5.00025 6.82644 5.00025 8.6C5.00025 11.1091 4.37129 12.8249 3.67444 13.9651L3.66335 13.9833C3.28703 14.599 2.99135 15.0828 2.79247 15.4326C2.69295 15.6077 2.60378 15.7732 2.53828 15.9177C2.50569 15.9896 2.46942 16.077 2.44105 16.1711C2.41856 16.2457 2.37042 16.4193 2.3889 16.6307C2.40025 16.7605 2.42738 16.9968 2.56375 17.24C2.70012 17.4831 2.88764 17.6295 2.99245 17.7069C3.14619 17.8204 3.2996 17.8714 3.38165 17.8952C3.47545 17.9223 3.56609 17.9384 3.64093 17.949C3.79008 17.97 3.96148 17.9806 4.13717 17.9871C4.47948 17.9997 4.95292 18 5.5441 18C9.8482 18 14.1523 18 18.4564 18C19.0476 18 19.521 17.9997 19.8633 17.9871C20.039 17.9806 20.2104 17.97 20.3596 17.949C20.4344 17.9384 20.5251 17.9223 20.6189 17.8952C20.7009 17.8714 20.8543 17.8204 21.0081 17.7069C21.1129 17.6295 21.3004 17.4831 21.4368 17.24C21.5731 16.9968 21.6003 16.7605 21.6116 16.6307C21.6301 16.4193 21.5819 16.2457 21.5595 16.1711C21.5311 16.077 21.4948 15.9896 21.4622 15.9177C21.3967 15.7732 21.3076 15.6077 21.208 15.4326C21.0091 15.0828 20.7134 14.5989 20.3371 13.9831L20.3261 13.9651C19.6292 12.8249 19.0003 11.1091 19.0003 8.6C19.0003 6.82644 18.2448 5.14072 16.9252 3.90915C15.608 2.67975 13.8354 2 12.0003 2Z" fill="#0000CC"/>
<path d="M15.4651 20H8.53538C9.227 21.1956 10.5197 22 12.0003 22C13.4808 22 14.7735 21.1956 15.4651 20Z" fill="#0000CC"/>
</svg>
