<svg width="24" height="24" viewBox="0 0 24 24" fill="none" xmlns="http://www.w3.org/2000/svg">
<path d="M21.4426 17.2286C21.5735 16.9894 21.5999 16.7584 21.6111 16.6307C21.6296 16.4193 21.5815 16.2457 21.559 16.1711C21.5306 16.077 21.4943 15.9896 21.4617 15.9177C21.3962 15.7732 21.3071 15.6077 21.2075 15.4326C21.0088 15.083 20.7132 14.5994 20.3371 13.984L20.3256 13.9651C19.6287 12.8249 18.9998 11.1091 18.9998 8.6C18.9998 6.82644 18.2443 5.14072 16.9247 3.90915C15.6075 2.67975 13.8349 2 11.9998 2C10.4181 2 8.88284 2.50496 7.64559 3.43157L21.4426 17.2286Z" fill="#0000CC"/>
<path d="M5.29343 6.70765C5.10077 7.31475 4.99977 7.9515 4.99977 8.6C4.99977 11.1091 4.3708 12.8249 3.67395 13.9651L3.66286 13.9833C3.28654 14.599 2.99086 15.0828 2.79198 15.4326C2.69246 15.6077 2.60329 15.7732 2.53779 15.9177C2.50521 15.9896 2.46893 16.077 2.44056 16.1711C2.41807 16.2457 2.36993 16.4193 2.38841 16.6307C2.39976 16.7605 2.42689 16.9968 2.56326 17.24C2.69964 17.4831 2.88715 17.6295 2.99196 17.7069C3.1457 17.8204 3.29912 17.8714 3.38117 17.8952C3.47496 17.9223 3.5656 17.9384 3.64044 17.949C3.78959 17.97 3.96099 17.9806 4.13668 17.9871C4.47899 17.9997 4.95243 18 5.54362 18H16.5858L20.2929 21.7071C20.6834 22.0976 21.3166 22.0976 21.7071 21.7071C22.0976 21.3166 22.0976 20.6834 21.7071 20.2929L3.70711 2.29289C3.31658 1.90237 2.68342 1.90237 2.29289 2.29289C1.90237 2.68342 1.90237 3.31658 2.29289 3.70711L5.29343 6.70765Z" fill="#0000CC"/>
<path d="M8.53489 20C9.22651 21.1956 10.5192 22 11.9998 22C13.4803 22 14.773 21.1956 15.4646 20H8.53489Z" fill="#0000CC"/>
</svg>
