<svg width="24" height="24" viewBox="0 0 24 24" fill="none" xmlns="http://www.w3.org/2000/svg">
<path fill-rule="evenodd" clip-rule="evenodd" d="M2 3C2 2.44772 2.44772 2 3 2H21C21.5523 2 22 2.44772 22 3V21C22 21.5523 21.5523 22 21 22H3C2.44772 22 2 21.5523 2 21V3ZM7 6C6.44772 6 6 6.44772 6 7C6 7.55228 6.44772 8 7 8H7.009C7.56128 8 8.009 7.55228 8.009 7C8.009 6.44772 7.56128 6 7.009 6H7ZM17 6C16.4477 6 16 6.44772 16 7C16 7.55228 16.4477 8 17 8H17.009C17.5613 8 18.009 7.55228 18.009 7C18.009 6.44772 17.5613 6 17.009 6H17ZM7 16C6.44772 16 6 16.4477 6 17C6 17.5523 6.44772 18 7 18H7.009C7.56128 18 8.009 17.5523 8.009 17C8.009 16.4477 7.56128 16 7.009 16H7ZM17 16C16.4477 16 16 16.4477 16 17C16 17.5523 16.4477 18 17 18H17.009C17.5613 18 18.009 17.5523 18.009 17C18.009 16.4477 17.5613 16 17.009 16H17Z" fill="#0000CC"/>
</svg>
