<svg width="24" height="24" viewBox="0 0 24 24" fill="none" xmlns="http://www.w3.org/2000/svg">
<path fill-rule="evenodd" clip-rule="evenodd" d="M8.16146 2H15.8385C16.3657 1.99998 16.8205 1.99997 17.195 2.03057C17.5904 2.06287 17.9836 2.13419 18.362 2.32698C18.9265 2.6146 19.3854 3.07355 19.673 3.63803C19.8658 4.01641 19.9371 4.40963 19.9694 4.80498C20 5.17952 20 5.63436 20 6.16146V17C20 17.5523 19.5523 18 19 18V20C19.5523 20 20 20.4477 20 21C20 21.5523 19.5523 22 19 22H7C5.34315 22 4 20.6569 4 19V6.16142C3.99998 5.6343 3.99997 5.17953 4.03057 4.80498C4.06287 4.40963 4.13419 4.01641 4.32698 3.63803C4.6146 3.07355 5.07355 2.6146 5.63803 2.32698C6.01641 2.13419 6.40963 2.06287 6.80498 2.03057C7.17953 1.99997 7.63434 1.99998 8.16146 2ZM6 19C6 19.5523 6.44772 20 7 20H17V18H7C6.44772 18 6 18.4477 6 19ZM9.99999 7.5C9.99999 6.39543 10.8954 5.5 12 5.5C13.1046 5.5 14 6.39543 14 7.5C14 8.60457 13.1046 9.5 12 9.5C10.8954 9.5 9.99999 8.60457 9.99999 7.5ZM12.0001 10.5C10.5978 10.5 9.36413 11.2215 8.64996 12.3136C8.46738 12.5927 8.37609 12.7323 8.39807 13.0658C8.41308 13.2935 8.61238 13.6619 8.79471 13.7991C9.06174 14 9.32213 14 9.84292 14H14.1572C14.678 14 14.9384 14 15.2054 13.7991C15.3877 13.6619 15.587 13.2935 15.6021 13.0658C15.624 12.7323 15.5327 12.5927 15.3502 12.3136C14.636 11.2215 13.4023 10.5 12.0001 10.5Z" fill="#0000CC"/>
</svg>
