<svg width="24" height="24" viewBox="0 0 24 24" fill="none" xmlns="http://www.w3.org/2000/svg">
<path d="M7 15C7 14.4477 7.44772 14 8 14C8.55229 14 9 14.4477 9 15C9 15.5523 8.55229 16 8 16C7.44772 16 7 15.5523 7 15Z" fill="#0000CC"/>
<path d="M15 15C15 14.4477 15.4477 14 16 14C16.5523 14 17 14.4477 17 15C17 15.5523 16.5523 16 16 16C15.4477 16 15 15.5523 15 15Z" fill="#0000CC"/>
<path fill-rule="evenodd" clip-rule="evenodd" d="M15.8385 3H8.16146C7.63433 2.99998 7.17954 2.99997 6.80497 3.03057C6.40963 3.06287 6.01641 3.13419 5.63803 3.32698C5.07354 3.6146 4.6146 4.07354 4.32698 4.63803C4.13419 5.01641 4.06287 5.40963 4.03057 5.80497C3.99997 6.17955 3.99998 6.63431 4 7.16146L4 9.17825C3.87814 9.21747 3.75735 9.26619 3.63803 9.32698C3.07354 9.6146 2.6146 10.0735 2.32698 10.638C2.13419 11.0164 2.06287 11.4096 2.03057 11.805C1.99997 12.1795 1.99998 12.6343 2 13.1614V16.8385C1.99998 17.3657 1.99997 17.8205 2.03057 18.195C2.06287 18.5904 2.13419 18.9836 2.32698 19.362C2.6146 19.9265 3.07354 20.3854 3.63803 20.673C4.01641 20.8658 4.40963 20.9371 4.80497 20.9694C5.17954 21 5.6343 21 6.16144 21H17.8386C18.3657 21 18.8205 21 19.195 20.9694C19.5904 20.9371 19.9836 20.8658 20.362 20.673C20.9265 20.3854 21.3854 19.9265 21.673 19.362C21.8658 18.9836 21.9371 18.5904 21.9694 18.195C22 17.8205 22 17.3657 22 16.8386V13.1614C22 12.6343 22 12.1795 21.9694 11.805C21.9371 11.4096 21.8658 11.0164 21.673 10.638C21.3854 10.0735 20.9265 9.6146 20.362 9.32698C20.2427 9.26619 20.1219 9.21747 20 9.17825V7.16144C20 6.6343 20 6.17954 19.9694 5.80497C19.9371 5.40963 19.8658 5.01641 19.673 4.63803C19.3854 4.07355 18.9265 3.6146 18.362 3.32698C17.9836 3.13419 17.5904 3.06287 17.195 3.03057C16.8205 2.99997 16.3657 2.99998 15.8385 3ZM6 9.00003V7.2C6 6.62345 6.00078 6.25118 6.02393 5.96784C6.04613 5.69618 6.0838 5.59546 6.109 5.54601C6.20487 5.35785 6.35785 5.20487 6.54601 5.109C6.59546 5.0838 6.69618 5.04613 6.96784 5.02393C7.25118 5.00078 7.62345 5 8.2 5H15.8C16.3766 5 16.7488 5.00078 17.0322 5.02393C17.3038 5.04613 17.4046 5.0838 17.454 5.109C17.6422 5.20487 17.7951 5.35785 17.891 5.54601C17.9162 5.59546 17.9539 5.69618 17.9761 5.96784C17.9992 6.25118 18 6.62345 18 7.2V9.00003L16 9V8C16 7.44772 15.5523 7 15 7C14.4477 7 14 7.44772 14 8V9H13V8C13 7.44772 12.5523 7 12 7C11.4477 7 11 7.44772 11 8V9H10V8C10 7.44772 9.55229 7 9 7C8.44772 7 8 7.44772 8 8V9L6 9.00003ZM8 12C6.34315 12 5 13.3431 5 15C5 16.6569 6.34315 18 8 18C9.65686 18 11 16.6569 11 15C11 13.3431 9.65686 12 8 12ZM16 12C14.3431 12 13 13.3431 13 15C13 16.6569 14.3431 18 16 18C17.6569 18 19 16.6569 19 15C19 13.3431 17.6569 12 16 12Z" fill="#0000CC"/>
</svg>
