<svg width="24" height="24" viewBox="0 0 24 24" fill="none" xmlns="http://www.w3.org/2000/svg">
<path d="M4 5C4.55228 5 5 4.55228 5 4C5 3.44772 4.55228 3 4 3C3.44772 3 3 3.44772 3 4C3 4.55228 3.44772 5 4 5Z" fill="#0000CC"/>
<path d="M9 4C9 4.55228 8.55229 5 8 5C7.44772 5 7 4.55228 7 4C7 3.44772 7.44772 3 8 3C8.55229 3 9 3.44772 9 4Z" fill="#0000CC"/>
<path d="M11 4C11 3.44772 11.4477 3 12 3C12.5523 3 13 3.44772 13 4V20C13 20.5523 12.5523 21 12 21C11.4477 21 11 20.5523 11 20V4Z" fill="#0000CC"/>
<path d="M16 5C16.5523 5 17 4.55228 17 4C17 3.44772 16.5523 3 16 3C15.4477 3 15 3.44772 15 4C15 4.55228 15.4477 5 16 5Z" fill="#0000CC"/>
<path d="M17 12C17 12.5523 16.5523 13 16 13C15.4477 13 15 12.5523 15 12C15 11.4477 15.4477 11 16 11C16.5523 11 17 11.4477 17 12Z" fill="#0000CC"/>
<path d="M16 21C16.5523 21 17 20.5523 17 20C17 19.4477 16.5523 19 16 19C15.4477 19 15 19.4477 15 20C15 20.5523 15.4477 21 16 21Z" fill="#0000CC"/>
<path d="M21 4C21 4.55228 20.5523 5 20 5C19.4477 5 19 4.55228 19 4C19 3.44772 19.4477 3 20 3C20.5523 3 21 3.44772 21 4Z" fill="#0000CC"/>
<path d="M5 8C5 8.55229 4.55228 9 4 9C3.44772 9 3 8.55229 3 8C3 7.44772 3.44772 7 4 7C4.55228 7 5 7.44772 5 8Z" fill="#0000CC"/>
<path d="M20 9C20.5523 9 21 8.55229 21 8C21 7.44772 20.5523 7 20 7C19.4477 7 19 7.44772 19 8C19 8.55229 19.4477 9 20 9Z" fill="#0000CC"/>
<path d="M5 12C5 12.5523 4.55228 13 4 13C3.44772 13 3 12.5523 3 12C3 11.4477 3.44772 11 4 11C4.55228 11 5 11.4477 5 12Z" fill="#0000CC"/>
<path d="M20 13C20.5523 13 21 12.5523 21 12C21 11.4477 20.5523 11 20 11C19.4477 11 19 11.4477 19 12C19 12.5523 19.4477 13 20 13Z" fill="#0000CC"/>
<path d="M9 12C9 12.5523 8.55229 13 8 13C7.44772 13 7 12.5523 7 12C7 11.4477 7.44772 11 8 11C8.55229 11 9 11.4477 9 12Z" fill="#0000CC"/>
<path d="M8 21C8.55229 21 9 20.5523 9 20C9 19.4477 8.55229 19 8 19C7.44772 19 7 19.4477 7 20C7 20.5523 7.44772 21 8 21Z" fill="#0000CC"/>
<path d="M5 20C5 20.5523 4.55228 21 4 21C3.44772 21 3 20.5523 3 20C3 19.4477 3.44772 19 4 19C4.55228 19 5 19.4477 5 20Z" fill="#0000CC"/>
<path d="M20 21C20.5523 21 21 20.5523 21 20C21 19.4477 20.5523 19 20 19C19.4477 19 19 19.4477 19 20C19 20.5523 19.4477 21 20 21Z" fill="#0000CC"/>
<path d="M5 16C5 16.5523 4.55228 17 4 17C3.44772 17 3 16.5523 3 16C3 15.4477 3.44772 15 4 15C4.55228 15 5 15.4477 5 16Z" fill="#0000CC"/>
<path d="M20 17C20.5523 17 21 16.5523 21 16C21 15.4477 20.5523 15 20 15C19.4477 15 19 15.4477 19 16C19 16.5523 19.4477 17 20 17Z" fill="#0000CC"/>
</svg>
