<svg width="24" height="24" viewBox="0 0 24 24" fill="none" xmlns="http://www.w3.org/2000/svg">
<path fill-rule="evenodd" clip-rule="evenodd" d="M12 22C17.5228 22 22 17.5228 22 12C22 6.47715 17.5228 2 12 2C6.47715 2 2 6.47715 2 12C2 17.5228 6.47715 22 12 22ZM10 6C9.44772 6 9 6.44772 9 7C9 7.55228 9.44772 8 10 8H10.009C10.5613 8 11.009 7.55228 11.009 7C11.009 6.44772 10.5613 6 10.009 6H10ZM7 8C6.44772 8 6 8.44772 6 9C6 9.55228 6.44772 10 7 10H7.009C7.56128 10 8.009 9.55228 8.009 9C8.009 8.44772 7.56128 8 7.009 8H7ZM11 9C10.4477 9 10 9.44772 10 10C10 10.5523 10.4477 11 11 11H11.009C11.5613 11 12.009 10.5523 12.009 10C12.009 9.44772 11.5613 9 11.009 9H11Z" fill="#0000CC"/>
</svg>
