<svg width="24" height="24" viewBox="0 0 24 24" fill="none" xmlns="http://www.w3.org/2000/svg">
<path d="M6.4997 2C5.15083 2 3.98948 2.95208 3.72494 4.27476L3.61717 4.81359C3.52655 5.26671 3.52655 5.73329 3.61717 6.18641L3.85666 7.38384C3.95179 7.85946 3.9997 8.34332 3.9997 8.82836C3.9997 8.8856 3.99903 8.94282 3.9977 9H9.0017C9.00036 8.94282 8.9997 8.8856 8.9997 8.82836C8.9997 8.34332 9.04761 7.85947 9.14273 7.38385L9.38222 6.18641C9.47284 5.73329 9.47284 5.26671 9.38222 4.81359L9.27445 4.27475C9.00992 2.95208 7.84856 2 6.4997 2Z" fill="#0000CC"/>
<path d="M2.85351 13.8716L3.67397 11H9.32543L10.1459 13.8716C10.7343 15.9309 10.6459 18.1247 9.89393 20.13L9.43603 21.3511C9.28966 21.7414 8.91654 22 8.4997 22H4.4997C4.08285 22 3.70973 21.7414 3.56337 21.3511L3.10546 20.13C2.35346 18.1247 2.26514 15.9309 2.85351 13.8716Z" fill="#0000CC"/>
<path d="M17.4997 2C16.1508 2 14.9895 2.95208 14.7249 4.27476L14.6172 4.81359C14.5266 5.26671 14.5266 5.73329 14.6172 6.18641L14.8567 7.38384C14.9518 7.85946 14.9997 8.34332 14.9997 8.82836C14.9997 8.8856 14.999 8.94282 14.9977 9H20.0017C20.0004 8.94282 19.9997 8.8856 19.9997 8.82836C19.9997 8.34332 20.0476 7.85947 20.1427 7.38385L20.3822 6.18641C20.4728 5.73329 20.4728 5.26671 20.3822 4.81359L20.2745 4.27475C20.0099 2.95208 18.8486 2 17.4997 2Z" fill="#0000CC"/>
<path d="M20.3254 11H14.674L13.8535 13.8716C13.2651 15.9309 13.3535 18.1247 14.1055 20.13L14.5634 21.3511C14.7097 21.7414 15.0829 22 15.4997 22H19.4997C19.9165 22 20.2897 21.7414 20.436 21.3511L20.8939 20.13C21.6459 18.1247 21.7343 15.9309 21.1459 13.8716L20.3254 11Z" fill="#0000CC"/>
</svg>
