<svg width="24" height="24" viewBox="0 0 24 24" fill="none" xmlns="http://www.w3.org/2000/svg">
<path d="M2.10899 3.54601C2 3.75992 2 4.03995 2 4.6V7.4C2 7.96005 2 8.24008 2.10899 8.45399C2.20487 8.64215 2.35785 8.79513 2.54601 8.89101C2.75992 9 3.03995 9 3.6 9H20.4C20.9601 9 21.2401 9 21.454 8.89101C21.6422 8.79513 21.7951 8.64215 21.891 8.45399C22 8.24008 22 7.96005 22 7.4V4.6C22 4.03995 22 3.75992 21.891 3.54601C21.7951 3.35785 21.6422 3.20487 21.454 3.10899C21.2401 3 20.9601 3 20.4 3H3.6C3.03995 3 2.75992 3 2.54601 3.10899C2.35785 3.20487 2.20487 3.35785 2.10899 3.54601Z" fill="#0000CC"/>
<path fill-rule="evenodd" clip-rule="evenodd" d="M4 10V16.2C4 17.8802 4 18.7202 4.32698 19.362C4.6146 19.9265 5.07354 20.3854 5.63803 20.673C6.27976 21 7.11984 21 8.8 21H15.2C16.8802 21 17.7202 21 18.362 20.673C18.9265 20.3854 19.3854 19.9265 19.673 19.362C20 18.7202 20 17.8802 20 16.2V10H4ZM8 13C8 12.4477 8.44772 12 9 12H15C15.5523 12 16 12.4477 16 13C16 13.5523 15.5523 14 15 14H9C8.44772 14 8 13.5523 8 13Z" fill="#0000CC"/>
</svg>
