<svg width="24" height="24" viewBox="0 0 24 24" fill="none" xmlns="http://www.w3.org/2000/svg">
<path fill-rule="evenodd" clip-rule="evenodd" d="M11.1615 2H12.8385C13.3657 1.99998 13.8205 1.99997 14.195 2.03057C14.5904 2.06287 14.9836 2.13419 15.362 2.32698C15.9265 2.6146 16.3854 3.07355 16.673 3.63803C16.8658 4.01641 16.9371 4.40963 16.9694 4.80498C16.9969 5.14075 16.9997 5.54097 17 6H20.4C20.9601 6 21.2401 6 21.454 6.109C21.6422 6.20487 21.7951 6.35785 21.891 6.54601C22 6.75992 22 7.03995 22 7.6C22 9.84021 22 10.9603 21.564 11.816C21.1805 12.5686 20.5686 13.1805 19.816 13.564C19.0128 13.9732 17.9767 13.9984 16 13.9999V11C16 10.4477 15.5523 10 15 10C14.4477 10 14 10.4477 14 11V14H10V11C10 10.4477 9.55228 10 9 10C8.44772 10 8 10.4477 8 11V13.9999C6.0233 13.9984 4.98717 13.9732 4.18404 13.564C3.43139 13.1805 2.81947 12.5686 2.43597 11.816C2 10.9603 2 9.84021 2 7.6C2 7.03995 2 6.75992 2.10899 6.54601C2.20487 6.35785 2.35785 6.20487 2.54601 6.109C2.75992 6 3.03995 6 3.6 6H7.00003C7.00031 5.54097 7.00314 5.14075 7.03057 4.80498C7.06287 4.40963 7.13419 4.01641 7.32698 3.63803C7.6146 3.07355 8.07354 2.6146 8.63803 2.32698C9.01641 2.13419 9.40963 2.06287 9.80497 2.03057C10.1795 1.99997 10.6343 1.99998 11.1615 2ZM14.9761 4.96784C14.9964 5.21698 14.9995 5.5349 14.9999 6H9.00007C9.00052 5.5349 9.00357 5.21698 9.02393 4.96784C9.04612 4.69618 9.0838 4.59546 9.109 4.54601C9.20487 4.35785 9.35785 4.20487 9.54601 4.109C9.59546 4.0838 9.69617 4.04613 9.96784 4.02393C10.2512 4.00078 10.6234 4 11.2 4H12.8C13.3766 4 13.7488 4.00078 14.0322 4.02393C14.3038 4.04613 14.4045 4.0838 14.454 4.109C14.6422 4.20487 14.7951 4.35785 14.891 4.54601C14.9162 4.59546 14.9539 4.69618 14.9761 4.96784Z" fill="#0000CC"/>
<path d="M8 15C6.09985 14.9998 5.13109 14.9932 4.3486 14.7194C3.85921 14.5481 3.40546 14.3041 3 14V15.6C3 17.8402 3 18.9603 3.43597 19.8159C3.81947 20.5686 4.43139 21.1805 5.18404 21.564C6.03969 22 7.15979 22 9.4 22H14.6C16.8402 22 17.9603 22 18.816 21.564C19.5686 21.1805 20.1805 20.5686 20.564 19.8159C21 18.9603 21 17.8402 21 15.6V14C20.5945 14.3041 20.1408 14.5481 19.6514 14.7194C18.8689 14.9932 17.9002 14.9998 16 15C16 15.5522 15.5523 16 15 16C14.4477 16 14 15.5523 14 15L10 15C10 15.5523 9.55228 16 9 16C8.44772 16 8 15.5522 8 15Z" fill="#0000CC"/>
</svg>
