<svg width="24" height="24" viewBox="0 0 24 24" fill="none" xmlns="http://www.w3.org/2000/svg">
<path fill-rule="evenodd" clip-rule="evenodd" d="M12.8385 2H11.1615C10.6343 1.99998 10.1795 1.99997 9.80497 2.03057C9.40963 2.06287 9.01641 2.13419 8.63803 2.32698C8.07354 2.6146 7.6146 3.07354 7.32698 3.63803C7.13419 4.01641 7.06287 4.40963 7.03057 4.80497C7.0031 5.14115 7.0003 5.54191 7.00003 6.00163C6.52455 6.0049 6.10899 6.01472 5.74818 6.0442C5.18608 6.09012 4.66937 6.18869 4.18404 6.43598C3.45646 6.8067 2.86038 7.39089 2.47505 8.10931C3.07443 8.71881 3.68797 9.31326 4.34447 9.85193C4.77402 10.2044 5.39759 10.6762 6.16639 11.1474C7.71935 12.0995 9.78419 13 12 13C14.2158 13 16.2806 12.0995 17.8336 11.1474C18.6024 10.6762 19.226 10.2044 19.6555 9.85193C20.3142 9.31145 20.9268 8.718 21.5251 8.10951C21.1397 7.39099 20.5436 6.80673 19.816 6.43598C19.3306 6.18869 18.8139 6.09012 18.2518 6.0442C17.891 6.01472 17.4755 6.0049 17 6.00163C16.9997 5.54191 16.9969 5.14115 16.9694 4.80497C16.9371 4.40963 16.8658 4.01641 16.673 3.63803C16.3854 3.07354 15.9265 2.6146 15.362 2.32698C14.9836 2.13419 14.5904 2.06287 14.195 2.03057C13.8205 1.99997 13.3657 1.99998 12.8385 2ZM9.00007 6H14.9999C14.9995 5.5349 14.9964 5.21698 14.9761 4.96784C14.9539 4.69618 14.9162 4.59546 14.891 4.54601C14.7951 4.35785 14.6422 4.20487 14.454 4.109C14.4045 4.0838 14.3038 4.04613 14.0322 4.02393C13.7488 4.00078 13.3766 4 12.8 4H11.2C10.6234 4 10.2512 4.00078 9.96784 4.02393C9.69617 4.04613 9.59546 4.0838 9.54601 4.109C9.35785 4.20487 9.20487 4.35785 9.10899 4.54601C9.0838 4.59546 9.04612 4.69618 9.02393 4.96784C9.00357 5.21698 9.00051 5.5349 9.00007 6Z" fill="#0000CC"/>
<path d="M21.9904 10.4536C21.6446 10.7804 21.2907 11.0973 20.9242 11.3981C20.4396 11.7956 19.7413 12.3239 18.8789 12.8526C17.1693 13.9005 14.7342 15 12 15C9.26581 15 6.83065 13.9005 5.12111 12.8526C4.19991 12.2878 3.04799 11.3145 2.01204 10.3654C1.99999 10.7739 1.99999 11.2367 2 11.7587V16.2413C1.99999 17.0463 1.99998 17.7106 2.04419 18.2518C2.09012 18.8139 2.18868 19.3306 2.43598 19.816C2.81947 20.5686 3.43139 21.1805 4.18404 21.564C4.66937 21.8113 5.18608 21.9099 5.74818 21.9558C6.28936 22 6.95372 22 7.75868 22H16.2413C17.0463 22 17.7106 22 18.2518 21.9558C18.8139 21.9099 19.3306 21.8113 19.816 21.564C20.5686 21.1805 21.1805 20.5686 21.564 19.816C21.8113 19.3306 21.9099 18.8139 21.9558 18.2518C22 17.7106 22 17.0463 22 16.2413V11.7587C22 11.2739 22 10.8402 21.9904 10.4536Z" fill="#0000CC"/>
</svg>
