<svg width="24" height="24" viewBox="0 0 24 24" fill="none" xmlns="http://www.w3.org/2000/svg">
<path fill-rule="evenodd" clip-rule="evenodd" d="M4.56811 2C4.31573 1.99997 4.06993 1.99994 3.86178 2.01695C3.63318 2.03563 3.36345 2.07969 3.09202 2.21799C2.7157 2.40974 2.40974 2.7157 2.21799 3.09202C2.07969 3.36345 2.03563 3.63318 2.01695 3.86178C1.99994 4.06993 1.99997 4.31572 2 4.56809L2.00001 21C2.00001 21.5523 2.44772 22 3.00001 22H11.8742C11.6347 21.518 11.5 20.9747 11.5 20.4C11.5 18.5281 12.4525 16.8787 13.8992 15.9099C13.4566 15.2132 13.2002 14.3865 13.2002 13.5C13.2002 11.6163 14.3576 10.003 16 9.33226L16 4.56812C16 4.31574 16.0001 4.06994 15.9831 3.86178C15.9644 3.63318 15.9203 3.36345 15.782 3.09202C15.5903 2.7157 15.2843 2.40974 14.908 2.21799C14.6366 2.07969 14.3668 2.03563 14.1382 2.01695C13.9301 1.99994 13.6843 1.99997 13.4319 2L4.56811 2ZM5 6C5 5.44772 5.44772 5 6 5H7C7.55228 5 8 5.44772 8 6C8 6.55228 7.55228 7 7 7H6C5.44772 7 5 6.55228 5 6ZM10 6C10 5.44772 10.4477 5 11 5H12C12.5523 5 13 5.44772 13 6C13 6.55228 12.5523 7 12 7H11C10.4477 7 10 6.55228 10 6ZM5 9C5 8.44772 5.44772 8 6 8H7C7.55228 8 8 8.44772 8 9C8 9.55228 7.55228 10 7 10H6C5.44772 10 5 9.55228 5 9ZM10 9C10 8.44772 10.4477 8 11 8H12C12.5523 8 13 8.44772 13 9C13 9.55228 12.5523 10 12 10H11C10.4477 10 10 9.55228 10 9ZM5 12C5 11.4477 5.44772 11 6 11H7C7.55228 11 8 11.4477 8 12C8 12.5523 7.55228 13 7 13H6C5.44772 13 5 12.5523 5 12ZM10 12C10 11.4477 10.4477 11 11 11H12C12.5523 11 13 11.4477 13 12C13 12.5523 12.5523 13 12 13H11C10.4477 13 10 12.5523 10 12ZM9 15C7.89543 15 7 15.8954 7 17V20H11V17C11 15.8954 10.1046 15 9 15Z" fill="#0000CC"/>
<path d="M15.2013 13.5C15.2013 12.1193 16.3206 11 17.7013 11C19.082 11 20.2013 12.1193 20.2013 13.5C20.2013 14.8807 19.082 16 17.7013 16C16.3206 16 15.2013 14.8807 15.2013 13.5Z" fill="#0000CC"/>
<path d="M13.7968 19.0513C14.2051 17.8263 15.3516 17 16.6428 17H18.7598C20.0511 17 21.1975 17.8263 21.6059 19.0513L21.8082 19.6583C21.8593 19.8114 21.9166 19.9832 21.9524 20.1346C21.9915 20.3002 22.0378 20.5652 21.9625 20.8653C21.8692 21.2369 21.6372 21.5587 21.3142 21.7647C21.0533 21.9311 20.7873 21.9709 20.6179 21.9862C20.4629 22.0001 20.2818 22.0001 20.1203 22H15.2823C15.1208 22.0001 14.9398 22.0001 14.7848 21.9862C14.6154 21.9709 14.3493 21.9311 14.0884 21.7647C13.7654 21.5586 13.5335 21.2369 13.4402 20.8653C13.3648 20.5652 13.4111 20.3002 13.4503 20.1347C13.4861 19.9832 13.5434 19.8115 13.5945 19.6583L13.7968 19.0513Z" fill="#0000CC"/>
</svg>
