<svg width="24" height="24" viewBox="0 0 24 24" fill="none" xmlns="http://www.w3.org/2000/svg">
<path fill-rule="evenodd" clip-rule="evenodd" d="M4.56811 2C4.31573 1.99997 4.06993 1.99994 3.86178 2.01695C3.63318 2.03563 3.36345 2.07969 3.09202 2.21799C2.7157 2.40974 2.40974 2.7157 2.21799 3.09202C2.07969 3.36345 2.03563 3.63318 2.01695 3.86178C1.99994 4.06993 1.99997 4.31572 2 4.56809L2.00001 21C2.00001 21.5523 2.44772 22 3.00001 22H13.1708C12.7987 20.9447 13.0346 19.7228 13.8787 18.8787L14.2574 18.5L13.8787 18.1213C12.7071 16.9497 12.7071 15.0503 13.8787 13.8787C14.4645 13.2929 15.2322 13 16 13L16 4.56812C16 4.31574 16.0001 4.06994 15.9831 3.86178C15.9644 3.63318 15.9203 3.36345 15.782 3.09202C15.5903 2.7157 15.2843 2.40974 14.908 2.21799C14.6366 2.07969 14.3668 2.03563 14.1382 2.01695C13.9301 1.99994 13.6843 1.99997 13.4319 2L4.56811 2ZM5 6C5 5.44772 5.44772 5 6 5H7C7.55228 5 8 5.44772 8 6C8 6.55228 7.55228 7 7 7H6C5.44772 7 5 6.55228 5 6ZM10 6C10 5.44772 10.4477 5 11 5H12C12.5523 5 13 5.44772 13 6C13 6.55228 12.5523 7 12 7H11C10.4477 7 10 6.55228 10 6ZM5 9C5 8.44772 5.44772 8 6 8H7C7.55228 8 8 8.44772 8 9C8 9.55228 7.55228 10 7 10H6C5.44772 10 5 9.55228 5 9ZM10 9C10 8.44772 10.4477 8 11 8H12C12.5523 8 13 8.44772 13 9C13 9.55228 12.5523 10 12 10H11C10.4477 10 10 9.55228 10 9ZM5 12C5 11.4477 5.44772 11 6 11H7C7.55228 11 8 11.4477 8 12C8 12.5523 7.55228 13 7 13H6C5.44772 13 5 12.5523 5 12ZM10 12C10 11.4477 10.4477 11 11 11H12C12.5523 11 13 11.4477 13 12C13 12.5523 12.5523 13 12 13H11C10.4477 13 10 12.5523 10 12ZM9 15C7.89543 15 7 15.8954 7 17V20H11V17C11 15.8954 10.1046 15 9 15Z" fill="#0000CC"/>
<path d="M16.7071 15.2929L18.5 17.0858L20.2929 15.2929C20.6834 14.9024 21.3166 14.9024 21.7071 15.2929C22.0976 15.6834 22.0976 16.3166 21.7071 16.7071L19.9142 18.5L21.7071 20.2929C22.0976 20.6834 22.0976 21.3166 21.7071 21.7071C21.3166 22.0976 20.6834 22.0976 20.2929 21.7071L18.5 19.9142L16.7071 21.7071C16.3166 22.0976 15.6834 22.0976 15.2929 21.7071C14.9024 21.3166 14.9024 20.6834 15.2929 20.2929L17.0858 18.5L15.2929 16.7071C14.9024 16.3166 14.9024 15.6834 15.2929 15.2929C15.6834 14.9024 16.3166 14.9024 16.7071 15.2929Z" fill="#0000CC"/>
</svg>
