<svg width="24" height="24" viewBox="0 0 24 24" fill="none" xmlns="http://www.w3.org/2000/svg">
<path fill-rule="evenodd" clip-rule="evenodd" d="M12.614 2.21065C12.2529 1.92978 11.7472 1.92978 11.3861 2.21065L2.38612 9.21065C2.0489 9.47293 1.91554 9.92046 2.05419 10.3245C2.19283 10.7286 2.57286 11 3.00006 11H21.0001C21.4273 11 21.8073 10.7286 21.9459 10.3245C22.0846 9.92046 21.9512 9.47293 21.614 9.21065L21.0001 8.73314V5C21.0001 4.44772 20.5523 4 20.0001 4C19.4478 4 19.0001 4.44772 19.0001 5V7.17758L12.614 2.21065ZM12 8C12.5523 8 13 7.55228 13 7C13 6.44772 12.5523 6 12 6C11.4477 6 11 6.44772 11 7C11 7.55228 11.4477 8 12 8Z" fill="#0000CC"/>
<path d="M4.00006 13C3.44778 13 3.00006 13.4477 3.00006 14C3.00006 14.5523 3.44778 15 4.00006 15H10.0001C10.5523 15 11.0001 14.5523 11.0001 14C11.0001 13.4477 10.5523 13 10.0001 13H4.00006Z" fill="#0000CC"/>
<path d="M14.0001 13C13.4478 13 13.0001 13.4477 13.0001 14C13.0001 14.5523 13.4478 15 14.0001 15H20.0001C20.5523 15 21.0001 14.5523 21.0001 14C21.0001 13.4477 20.5523 13 20.0001 13H14.0001Z" fill="#0000CC"/>
<path d="M4.00006 16.5C3.44778 16.5 3.00006 16.9477 3.00006 17.5C3.00006 18.0523 3.44778 18.5 4.00006 18.5H10.0001C10.5523 18.5 11.0001 18.0523 11.0001 17.5C11.0001 16.9477 10.5523 16.5 10.0001 16.5H4.00006Z" fill="#0000CC"/>
<path d="M14.0001 16.5C13.4478 16.5 13.0001 16.9477 13.0001 17.5C13.0001 18.0523 13.4478 18.5 14.0001 18.5H20.0001C20.5523 18.5 21.0001 18.0523 21.0001 17.5C21.0001 16.9477 20.5523 16.5 20.0001 16.5H14.0001Z" fill="#0000CC"/>
<path d="M4.00006 20C3.44778 20 3.00006 20.4477 3.00006 21C3.00006 21.5523 3.44778 22 4.00006 22H10.0001C10.5523 22 11.0001 21.5523 11.0001 21C11.0001 20.4477 10.5523 20 10.0001 20H4.00006Z" fill="#0000CC"/>
<path d="M14.0001 20C13.4478 20 13.0001 20.4477 13.0001 21C13.0001 21.5523 13.4478 22 14.0001 22H20.0001C20.5523 22 21.0001 21.5523 21.0001 21C21.0001 20.4477 20.5523 20 20.0001 20H14.0001Z" fill="#0000CC"/>
</svg>
