<svg width="24" height="24" viewBox="0 0 24 24" fill="none" xmlns="http://www.w3.org/2000/svg">
<path fill-rule="evenodd" clip-rule="evenodd" d="M4.56811 2C4.31573 1.99997 4.06993 1.99994 3.86178 2.01695C3.63318 2.03563 3.36345 2.07969 3.09202 2.21799C2.7157 2.40974 2.40974 2.7157 2.21799 3.09202C2.07969 3.36345 2.03563 3.63318 2.01695 3.86178C1.99994 4.06993 1.99997 4.31572 2 4.56809L2.00001 21C2.00001 21.5523 2.44772 22 3.00001 22H14.7636C13.6831 20.599 13 18.528 13 16C13 14.5 14.0002 13 16 13L16 4.56812C16 4.31574 16.0001 4.06994 15.9831 3.86178C15.9644 3.63318 15.9203 3.36345 15.782 3.09202C15.5903 2.7157 15.2843 2.40974 14.908 2.21799C14.6366 2.07969 14.3668 2.03563 14.1382 2.01695C13.9301 1.99994 13.6843 1.99997 13.4319 2L4.56811 2ZM5 6C5 5.44772 5.44772 5 6 5H7C7.55228 5 8 5.44772 8 6C8 6.55228 7.55228 7 7 7H6C5.44772 7 5 6.55228 5 6ZM10 6C10 5.44772 10.4477 5 11 5H12C12.5523 5 13 5.44772 13 6C13 6.55228 12.5523 7 12 7H11C10.4477 7 10 6.55228 10 6ZM5 9C5 8.44772 5.44772 8 6 8H7C7.55228 8 8 8.44772 8 9C8 9.55228 7.55228 10 7 10H6C5.44772 10 5 9.55228 5 9ZM10 9C10 8.44772 10.4477 8 11 8H12C12.5523 8 13 8.44772 13 9C13 9.55228 12.5523 10 12 10H11C10.4477 10 10 9.55228 10 9ZM5 12C5 11.4477 5.44772 11 6 11H7C7.55228 11 8 11.4477 8 12C8 12.5523 7.55228 13 7 13H6C5.44772 13 5 12.5523 5 12ZM10 12C10 11.4477 10.4477 11 11 11H12C12.5523 11 13 11.4477 13 12C13 12.5523 12.5523 13 12 13H11C10.4477 13 10 12.5523 10 12ZM9 15C7.89543 15 7 15.8954 7 17V20H11V17C11 15.8954 10.1046 15 9 15Z" fill="#0000CC"/>
<path d="M19.1374 14.2799C18.972 14.1013 18.7414 14 18.5 14C18.2586 14 18.028 14.1013 17.8626 14.2799C17.3858 14.7949 16.7901 15.0755 16.1667 15.0755C16.1382 15.0755 16.1065 15.0758 16.0734 15.0762C16.0237 15.0767 15.9709 15.0773 15.922 15.0768C15.6832 15.0638 15.4496 15.1506 15.2754 15.3172C15.0998 15.4851 15.0002 15.7197 15.0001 15.9647L15 17.0204C15 19.299 16.2963 21.3561 18.2442 21.9612C18.4109 22.0129 18.5891 22.0129 18.7558 21.9612C20.7037 21.3561 22 19.299 22 17.0204V15.9644C22 15.7194 21.9004 15.4852 21.7248 15.3173C21.5506 15.1506 21.3168 15.0638 21.0779 15.0768C21.029 15.0773 20.9762 15.0768 20.9265 15.0762C20.8934 15.0759 20.8616 15.0755 20.8333 15.0755C20.2099 15.0755 19.6142 14.7949 19.1374 14.2799Z" fill="#0000CC"/>
</svg>
