<svg width="24" height="24" viewBox="0 0 24 24" fill="none" xmlns="http://www.w3.org/2000/svg">
<path d="M3 2C2.44772 2 2 2.44772 2 3C2 3.55228 2.44772 4 3 4H21C21.5523 4 22 3.55228 22 3C22 2.44772 21.5523 2 21 2H3Z" fill="#0000CC"/>
<path d="M3.70711 6.29289C3.42111 6.0069 2.99099 5.92134 2.61732 6.07612C2.24364 6.2309 2 6.59554 2 7V11C2 11.5523 2.44772 12 3 12C3.55228 12 4 11.5523 4 11V9.41421L6.29289 11.7071C6.57889 11.9931 7.00901 12.0787 7.38268 11.9239C7.75636 11.7691 8 11.4045 8 11V7C8 6.44772 7.55228 6 7 6C6.44772 6 6 6.44772 6 7V8.58579L3.70711 6.29289Z" fill="#0000CC"/>
<path d="M10.5 6C9.94772 6 9.5 6.44772 9.5 7V11C9.5 11.5523 9.94772 12 10.5 12H14.5C15.0523 12 15.5 11.5523 15.5 11V10C15.5 9.44772 15.0523 9 14.5 9C13.9477 9 13.5 9.44772 13.5 10H11.5V8H14.5C15.0523 8 15.5 7.55228 15.5 7C15.5 6.44772 15.0523 6 14.5 6H10.5Z" fill="#0000CC"/>
<path d="M3 14V15.6C3 17.8402 3 18.9603 3.43597 19.816C3.81947 20.5686 4.43139 21.1805 5.18404 21.564C6.03969 22 7.15979 22 9.4 22H10V18C10 16.8954 10.8954 16 12 16C13.1046 16 14 16.8954 14 18V22H14.6C16.8402 22 17.9603 22 18.816 21.564C19.5686 21.1805 20.1805 20.5686 20.564 19.816C21 18.9603 21 17.8402 21 15.6V14H3Z" fill="#0000CC"/>
<path fill-rule="evenodd" clip-rule="evenodd" d="M18 12C17.4477 12 17 11.5523 17 11V7C17 6.44772 17.4477 6 18 6H21C21.5523 6 22 6.44772 22 7V11C22 11.5523 21.5523 12 21 12H18ZM20 8H19V10H20V8Z" fill="#0000CC"/>
</svg>
