<svg width="24" height="24" viewBox="0 0 24 24" fill="none" xmlns="http://www.w3.org/2000/svg">
<path d="M17 2C17.5523 2 18 2.44772 18 3V4H21C21.5523 4 22 4.44772 22 5V10C22 10.5523 21.5523 11 21 11H18V21C18 21.5523 17.5523 22 17 22C16.4477 22 16 21.5523 16 21V3C16 2.44772 16.4477 2 17 2Z" fill="#0000CC"/>
<path fill-rule="evenodd" clip-rule="evenodd" d="M3.72879 2.01695C3.92208 1.99994 4.15032 1.99997 4.38467 2L12.6153 2C12.8497 1.99997 13.0779 1.99994 13.2712 2.01695C13.4835 2.03563 13.7339 2.07969 13.986 2.21799C14.3354 2.40974 14.6195 2.7157 14.7976 3.09202C14.926 3.36345 14.9669 3.63318 14.9843 3.86178C15.0001 4.06994 15 4.31574 15 4.56812L15 21C15 21.5523 14.5843 22 14.0714 22H2.92858C2.41574 22 2 21.5523 2 21L2 4.56809C1.99997 4.31572 1.99995 4.06993 2.01574 3.86178C2.03308 3.63318 2.074 3.36345 2.20242 3.09202C2.38047 2.7157 2.66458 2.40974 3.01402 2.21799C3.26606 2.07969 3.51653 2.03563 3.72879 2.01695ZM5.71428 5C5.20145 5 4.78571 5.44772 4.78571 6C4.78571 6.55228 5.20145 7 5.71428 7H6.64285C7.15569 7 7.57142 6.55228 7.57142 6C7.57142 5.44772 7.15569 5 6.64285 5H5.71428ZM10.3571 5C9.8443 5 9.42857 5.44772 9.42857 6C9.42857 6.55228 9.8443 7 10.3571 7H11.2857C11.7985 7 12.2143 6.55228 12.2143 6C12.2143 5.44772 11.7985 5 11.2857 5H10.3571ZM5.71428 8C5.20145 8 4.78571 8.44772 4.78571 9C4.78571 9.55228 5.20145 10 5.71428 10H6.64285C7.15569 10 7.57142 9.55228 7.57142 9C7.57142 8.44772 7.15569 8 6.64285 8H5.71428ZM10.3571 8C9.8443 8 9.42857 8.44772 9.42857 9C9.42857 9.55228 9.8443 10 10.3571 10H11.2857C11.7985 10 12.2143 9.55228 12.2143 9C12.2143 8.44772 11.7985 8 11.2857 8H10.3571ZM5.71428 11C5.20145 11 4.78571 11.4477 4.78571 12C4.78571 12.5523 5.20145 13 5.71428 13H6.64285C7.15569 13 7.57142 12.5523 7.57142 12C7.57142 11.4477 7.15569 11 6.64285 11H5.71428ZM10.3571 11C9.8443 11 9.42857 11.4477 9.42857 12C9.42857 12.5523 9.8443 13 10.3571 13H11.2857C11.7985 13 12.2143 12.5523 12.2143 12C12.2143 11.4477 11.7985 11 11.2857 11H10.3571ZM6.64285 17C6.64285 15.8954 7.47432 15 8.5 15C9.52567 15 10.3571 15.8954 10.3571 17V20H6.64285V17Z" fill="#0000CC"/>
</svg>
