<svg width="24" height="24" viewBox="0 0 24 24" fill="none" xmlns="http://www.w3.org/2000/svg">
<path d="M7 2C7.55229 2 8 2.44772 8 3V4H16V3C16 2.44772 16.4477 2 17 2C17.5523 2 18 2.44772 18 3V4.00003C18.459 4.00031 18.8593 4.00314 19.195 4.03057C19.5904 4.06287 19.9836 4.13419 20.362 4.32698C20.9265 4.6146 21.3854 5.07354 21.673 5.63803C21.8658 6.01641 21.9371 6.40963 21.9694 6.80497C21.9969 7.14075 21.9997 7.54097 22 8H2.00003C2.00031 7.54097 2.00314 7.14075 2.03057 6.80497C2.06288 6.40963 2.13419 6.01641 2.32699 5.63803C2.61461 5.07354 3.07355 4.6146 3.63803 4.32698C4.01641 4.13419 4.40963 4.06287 4.80498 4.03057C5.14075 4.00314 5.54097 4.00031 6 4.00003V3C6 2.44772 6.44772 2 7 2Z" fill="#0000CC"/>
<path fill-rule="evenodd" clip-rule="evenodd" d="M2 10H22V17.8386C22 18.3657 22 18.8205 21.9694 19.195C21.9371 19.5904 21.8658 19.9836 21.673 20.362C21.3854 20.9265 20.9265 21.3854 20.362 21.673C19.9836 21.8658 19.5904 21.9371 19.195 21.9694C18.8205 22 18.3657 22 17.8386 22H6.16144C5.6343 22 5.17954 22 4.80498 21.9694C4.40963 21.9371 4.01641 21.8658 3.63803 21.673C3.07355 21.3854 2.61461 20.9265 2.32699 20.362C2.13419 19.9836 2.06288 19.5904 2.03057 19.195C1.99997 18.8205 1.99999 18.3657 2 17.8386V10ZM7.00014 12C6.44785 11.9999 6.00008 12.4476 6 12.9999C5.99992 13.5521 6.44758 13.9999 6.99986 14L16.9999 14.0014C17.5521 14.0014 17.9999 13.5538 18 13.0015C18.0001 12.4492 17.5524 12.0014 17.0001 12.0014L7.00014 12ZM7.00014 16C6.44785 15.9999 6.00008 16.4476 6 16.9999C5.99992 17.5521 6.44758 17.9999 6.99986 18L10.3332 18.0005C10.8855 18.0005 11.3333 17.5529 11.3333 17.0006C11.3334 16.4483 10.8858 16.0005 10.3335 16.0005L7.00014 16Z" fill="#0000CC"/>
</svg>
