<svg width="24" height="24" viewBox="0 0 24 24" fill="none" xmlns="http://www.w3.org/2000/svg">
<path d="M8 3C8 2.44772 7.55229 2 7 2C6.44772 2 6 2.44772 6 3V4.00003C5.54097 4.00031 5.14075 4.00314 4.80498 4.03057C4.40963 4.06287 4.01641 4.13419 3.63803 4.32698C3.07355 4.6146 2.6146 5.07354 2.32698 5.63803C2.13419 6.01641 2.06287 6.40963 2.03057 6.80497C2.00314 7.14075 2.00031 7.54097 2.00003 8H22C21.9997 7.54097 21.9969 7.14075 21.9694 6.80497C21.9371 6.40963 21.8658 6.01641 21.673 5.63803C21.3854 5.07354 20.9265 4.6146 20.362 4.32698C19.9836 4.13419 19.5904 4.06287 19.195 4.03057C18.8593 4.00314 18.459 4.00031 18 4.00003V3C18 2.44772 17.5523 2 17 2C16.4477 2 16 2.44772 16 3V4H8V3Z" fill="#0000CC"/>
<path fill-rule="evenodd" clip-rule="evenodd" d="M22 10H2V17.8386C1.99999 18.3657 1.99997 18.8205 2.03057 19.195C2.06287 19.5904 2.13419 19.9836 2.32698 20.362C2.61461 20.9265 3.07355 21.3854 3.63803 21.673C4.01641 21.8658 4.40963 21.9371 4.80498 21.9694C5.17954 22 5.6343 22 6.16144 22H17.8386C18.3657 22 18.8205 22 19.195 21.9694C19.5904 21.9371 19.9836 21.8658 20.362 21.673C20.9265 21.3854 21.3854 20.9265 21.673 20.362C21.8658 19.9836 21.9371 19.5904 21.9694 19.195C22 18.8205 22 18.3657 22 17.8386V10ZM5.10899 12.546C5 12.7599 5 13.0399 5 13.6V14.4C5 14.9601 5 15.2401 5.10899 15.454C5.20487 15.6422 5.35785 15.7951 5.54601 15.891C5.75992 16 6.03995 16 6.6 16H7.4C7.96005 16 8.24008 16 8.45399 15.891C8.64215 15.7951 8.79513 15.6422 8.89101 15.454C9 15.2401 9 14.9601 9 14.4V13.6C9 13.0399 9 12.7599 8.89101 12.546C8.79513 12.3578 8.64215 12.2049 8.45399 12.109C8.24008 12 7.96005 12 7.4 12H6.6C6.03995 12 5.75992 12 5.54601 12.109C5.35785 12.2049 5.20487 12.3578 5.10899 12.546Z" fill="#0000CC"/>
</svg>
