<svg width="24" height="24" viewBox="0 0 24 24" fill="none" xmlns="http://www.w3.org/2000/svg">
<path d="M7 2C7.55229 2 8 2.44772 8 3V4H16V3C16 2.44772 16.4477 2 17 2C17.5523 2 18 2.44772 18 3V4.00003C18.459 4.00031 18.8593 4.00314 19.195 4.03057C19.5904 4.06287 19.9836 4.13419 20.362 4.32698C20.9265 4.6146 21.3854 5.07354 21.673 5.63803C21.8658 6.01641 21.9371 6.40963 21.9694 6.80497C21.9969 7.14075 21.9997 7.54097 22 8H2.00003C2.00031 7.54097 2.00314 7.14075 2.03057 6.80497C2.06287 6.40963 2.13419 6.01641 2.32698 5.63803C2.6146 5.07354 3.07355 4.6146 3.63803 4.32698C4.01641 4.13419 4.40963 4.06287 4.80498 4.03057C5.14075 4.00314 5.54097 4.00031 6 4.00003V3C6 2.44772 6.44772 2 7 2Z" fill="#0000CC"/>
<path fill-rule="evenodd" clip-rule="evenodd" d="M2 10V17.8385C1.99998 18.3657 1.99997 18.8205 2.03057 19.195C2.06287 19.5904 2.13419 19.9836 2.32698 20.362C2.6146 20.9265 3.07355 21.3854 3.63803 21.673C4.01641 21.8658 4.40963 21.9371 4.80498 21.9694C5.17954 22 5.6343 22 6.16144 22H17.8386C18.3657 22 18.8205 22 19.195 21.9694C19.5904 21.9371 19.9836 21.8658 20.362 21.673C20.9265 21.3854 21.3854 20.9265 21.673 20.362C21.8658 19.9836 21.9371 19.5904 21.9694 19.195C22 18.8205 22 18.3657 22 17.8386V10H2ZM4 13C4 12.4477 4.44772 12 5 12H7C7.55229 12 8 12.4477 8 13C8 13.5523 7.55229 14 7 14H5C4.44772 14 4 13.5523 4 13ZM10 13C10 12.4477 10.4477 12 11 12H13C13.5523 12 14 12.4477 14 13C14 13.5523 13.5523 14 13 14H11C10.4477 14 10 13.5523 10 13ZM17 12C16.4477 12 16 12.4477 16 13C16 13.5523 16.4477 14 17 14H19C19.5523 14 20 13.5523 20 13C20 12.4477 19.5523 12 19 12H17ZM4 17C4 16.4477 4.44772 16 5 16H7C7.55229 16 8 16.4477 8 17C8 17.5523 7.55229 18 7 18H5C4.44772 18 4 17.5523 4 17ZM11 16C10.4477 16 10 16.4477 10 17C10 17.5523 10.4477 18 11 18H13C13.5523 18 14 17.5523 14 17C14 16.4477 13.5523 16 13 16H11ZM16 17C16 16.4477 16.4477 16 17 16H19C19.5523 16 20 16.4477 20 17C20 17.5523 19.5523 18 19 18H17C16.4477 18 16 17.5523 16 17Z" fill="#0000CC"/>
</svg>
