<svg width="24" height="24" viewBox="0 0 24 24" fill="none" xmlns="http://www.w3.org/2000/svg">
<path fill-rule="evenodd" clip-rule="evenodd" d="M11.566 2.96817C14.6103 1.06584 18.6204 1.99164 20.5227 5.03601C22.2787 7.84619 21.6251 11.4781 19.1198 13.5174L19.0022 13.6065C18.9571 13.6476 18.9087 13.6841 18.8578 13.7158L18.7543 13.7942C18.6568 13.8628 18.557 13.929 18.4549 13.9928L14.6416 16.3661C14.6341 16.371 14.6265 16.3757 14.6188 16.3803L10.3928 19.0105C10.3853 19.0154 10.3777 19.0201 10.37 19.0247L6.72366 21.2941C5.3227 22.1661 3.48534 21.7995 2.52626 20.4567C1.46515 18.971 1.89693 16.8961 3.4626 15.9571L15.2644 8.87869C15.4933 8.74137 15.5681 8.44585 15.4346 8.21699C15.4308 8.21096 15.4271 8.20489 15.4234 8.19877C15.4098 8.17766 15.3949 8.15795 15.3788 8.13967C15.2243 7.96434 14.9612 7.92132 14.7566 8.04922L13.4729 8.85136C13.2479 8.99191 12.9764 9.03735 12.7179 8.97767C12.4595 8.91799 12.2354 8.75808 12.0948 8.53313L9.9757 5.14092C9.68311 4.67256 9.82556 4.05569 10.2939 3.76305L11.566 2.96817ZM17.4455 8.98063C17.3154 9.58952 16.9584 10.1488 16.4074 10.5209L18.2245 11.6315C18.8289 11.0161 19.2312 10.2497 19.4081 9.43373L17.4455 8.98063ZM19.373 7.37302C19.2611 6.9326 19.08 6.5018 18.8264 6.09585C18.3658 5.35872 17.7266 4.80099 17.0001 4.44369L16.9999 6.82516L19.373 7.37302ZM15.0001 3.97989L15 5.98042C14.6468 5.98013 14.2908 6.05494 13.957 6.21128C13.8685 6.25278 13.7814 6.30002 13.6964 6.35314L13.2609 6.62529L12.2014 4.9293L12.6255 4.66428C12.6693 4.6369 12.7134 4.61037 12.7578 4.58469C13.4627 4.17658 14.2357 3.98087 15.0001 3.97989ZM16.445 12.8879L14.4753 11.6839L12.0828 13.1189L14.0963 14.3496L16.445 12.8879ZM12.1962 15.5322L10.1472 14.2798L7.75467 15.7148L9.84751 16.994L12.1962 15.5322ZM7.9474 18.1766L5.81908 16.8757L4.49102 17.6722C3.92662 18.0107 3.77097 18.7587 4.15349 19.2943C4.49922 19.7783 5.16156 19.9105 5.66658 19.5962L7.9474 18.1766Z" fill="#0000CC"/>
</svg>
