<svg width="24" height="24" viewBox="0 0 24 24" fill="none" xmlns="http://www.w3.org/2000/svg">
<path fill-rule="evenodd" clip-rule="evenodd" d="M12 8C9.79086 8 8 9.79086 8 12C8 12.0282 8.00031 12.0563 8.00093 12.0844L12.0844 8.00093C12.0563 8.00031 12.0282 8 12 8ZM14.2179 8.69589L8.69589 14.2179C8.98659 14.6432 9.35629 15.013 9.78159 15.3037L15.3037 9.78159C15.013 9.35629 14.6432 8.98659 14.2179 8.69589ZM15.999 11.9147L11.9147 15.999C11.9431 15.9997 11.9715 16 12 16C14.2091 16 16 14.2091 16 12C16 11.9715 15.9997 11.9431 15.999 11.9147ZM17.7193 10.2105C16.9429 7.79226 14.6477 6 12 6C9.31163 6 7.03621 7.76809 6.27316 10.2049L3.6 8.2C3.29698 7.97274 2.89157 7.93618 2.55279 8.10557C2.214 8.27496 2 8.62123 2 9V15C2 15.3788 2.214 15.725 2.55279 15.8944C2.89157 16.0638 3.29698 16.0273 3.6 15.8L6.28065 13.7895C7.05711 16.2077 9.35233 18 12 18C14.6884 18 16.9638 16.2319 17.7268 13.7951L20.4 15.8C20.703 16.0273 21.1084 16.0638 21.4472 15.8944C21.786 15.725 22 15.3788 22 15V9C22 8.62123 21.786 8.27496 21.4472 8.10557C21.1084 7.93618 20.703 7.97274 20.4 8.2L17.7193 10.2105ZM18.6667 12L20 11V13L18.6667 12ZM5.33333 12L4 13V11L5.33333 12Z" fill="#0000CC"/>
</svg>
