<svg width="24" height="24" viewBox="0 0 24 24" fill="none" xmlns="http://www.w3.org/2000/svg">
<path d="M4.44089 5.82922C4.17489 5.64951 4 5.34518 4 5C4 4.71473 4.11945 4.45737 4.31106 4.27518C4.39767 4.19283 4.49903 4.12584 4.61076 4.07858C4.7304 4.02798 4.86193 4 5 4H9C9.55229 4 10 4.44772 10 5C10 5.55228 9.55229 6 9 6H5C5 6 5 6 5 6C4.7929 6 4.60049 5.93704 4.44089 5.82922Z" fill="#0000CC"/>
<path d="M14.9564 4.00093C14.8343 4.00617 14.7178 4.03333 14.6108 4.07858C14.2518 4.23039 14 4.58579 14 5C14 5.55228 14.4477 6 15 6H19C19.5523 6 20 5.55228 20 5C20 4.44772 19.5523 4 19 4H15C14.9957 4 14.9914 4.00003 14.9871 4.00008C14.9768 4.00021 14.9666 4.0005 14.9564 4.00093Z" fill="#0000CC"/>
<path fill-rule="evenodd" clip-rule="evenodd" d="M6.16146 7H17.8385C18.3657 6.99998 18.8205 6.99997 19.195 7.03057C19.5904 7.06287 19.9836 7.13419 20.362 7.32698C20.9265 7.6146 21.3854 8.07354 21.673 8.63803C21.8658 9.01641 21.9371 9.40963 21.9694 9.80497C22 10.1795 22 10.6343 22 11.1614V15.8386C22 16.3657 22 16.8205 21.9694 17.195C21.9371 17.5904 21.8658 17.9836 21.673 18.362C21.3854 18.9265 20.9265 19.3854 20.362 19.673C19.9836 19.8658 19.5904 19.9371 19.195 19.9694C18.8205 20 18.3657 20 17.8385 20H6.16148C5.63432 20 5.17955 20 4.80498 19.9694C4.40963 19.9371 4.01641 19.8658 3.63803 19.673C3.07355 19.3854 2.6146 18.9265 2.32698 18.362C2.13419 17.9836 2.06287 17.5904 2.03057 17.195C1.99997 16.8205 1.99998 16.3657 2 15.8386V11.1614C1.99998 10.6343 1.99997 10.1795 2.03057 9.80497C2.06287 9.40963 2.13419 9.01641 2.32698 8.63803C2.6146 8.07354 3.07355 7.6146 3.63803 7.32698C4.01641 7.13419 4.40963 7.06287 4.80498 7.03057C5.17954 6.99997 5.63432 6.99998 6.16146 7ZM15 11.5C15 10.9477 15.4477 10.5 16 10.5C16.5523 10.5 17 10.9477 17 11.5V12.5H18C18.5523 12.5 19 12.9477 19 13.5C19 14.0523 18.5523 14.5 18 14.5H17V15.5C17 16.0523 16.5523 16.5 16 16.5C15.4477 16.5 15 16.0523 15 15.5V14.5H14C13.4477 14.5 13 14.0523 13 13.5C13 12.9477 13.4477 12.5 14 12.5H15V11.5ZM6 12.5C5.44772 12.5 5 12.9477 5 13.5C5 14.0523 5.44772 14.5 6 14.5H10C10.5523 14.5 11 14.0523 11 13.5C11 12.9477 10.5523 12.5 10 12.5H6Z" fill="#0000CC"/>
</svg>
