<svg width="24" height="24" viewBox="0 0 24 24" fill="none" xmlns="http://www.w3.org/2000/svg">
<path fill-rule="evenodd" clip-rule="evenodd" d="M8.16067 3.5C7.0841 3.5 6.09007 4.07686 5.55594 5.01158L4.07853 7.59705L3.64021 7.23178C3.21593 6.87821 2.58537 6.93554 2.2318 7.35982C1.87824 7.78409 1.93556 8.41466 2.35984 8.76822L3.07076 9.36065L2.65881 10.0816C2.2271 10.8371 2.00003 11.6921 2.00003 12.5623V18.5C2.00003 19.6046 2.89546 20.5 4.00003 20.5C5.10459 20.5 6.00003 19.6046 6.00003 18.5H18C18 19.6046 18.8955 20.5 20 20.5C21.1046 20.5 22 19.6046 22 18.5V12.5623C22 11.6921 21.7729 10.8371 21.3412 10.0816L20.9293 9.36065L21.6402 8.76822C22.0645 8.41466 22.1218 7.78409 21.7682 7.35982C21.4147 6.93554 20.7841 6.87821 20.3598 7.23178L19.9215 7.59705L18.4441 5.01158C17.91 4.07686 16.9159 3.5 15.8394 3.5H8.16067ZM17.638 9.5L18.3611 8.89741L16.7076 6.00386C16.5296 5.69229 16.1982 5.5 15.8394 5.5H8.16067C7.80181 5.5 7.47047 5.69229 7.29243 6.00386L5.63897 8.89741L6.36208 9.5H17.638ZM6.5 12.5C5.67157 12.5 5 13.1716 5 14C5 14.8284 5.67157 15.5 6.5 15.5C7.32843 15.5 8 14.8284 8 14C8 13.1716 7.32843 12.5 6.5 12.5ZM17.5 12.5C16.6716 12.5 16 13.1716 16 14C16 14.8284 16.6716 15.5 17.5 15.5C18.3284 15.5 19 14.8284 19 14C19 13.1716 18.3284 12.5 17.5 12.5Z" fill="#0000CC"/>
</svg>
