<svg width="24" height="24" viewBox="0 0 24 24" fill="none" xmlns="http://www.w3.org/2000/svg">
<path d="M17 5.00002C16.4477 5.00002 16 5.44774 16 6.00002C16 6.55231 16.4477 7.00002 17 7.00002H20V20H15.5C14.9477 20 14.5 20.4477 14.5 21C14.5 21.5523 14.9477 22 15.5 22H21C21.5523 22 22 21.5523 22 21V6.00002C22 5.44774 21.5523 5.00002 21 5.00002H17Z" fill="#0000CC"/>
<path fill-rule="evenodd" clip-rule="evenodd" d="M14.1262 2.62541C13.9193 2.11334 13.3365 1.86595 12.8244 2.07284L2.62539 6.19351C2.37937 6.29291 2.18295 6.48601 2.07936 6.73029C1.97577 6.97457 1.97351 7.25001 2.07308 7.49596L7.69218 21.3753C7.89898 21.8861 8.48004 22.1333 8.99148 21.9281L19.1905 17.8359C19.437 17.7369 19.6341 17.544 19.7382 17.2996C19.8422 17.0552 19.8448 16.7795 19.7453 16.5332L14.1262 2.62541Z" fill="#0000CC"/>
</svg>
