<svg width="24" height="24" viewBox="0 0 24 24" fill="none" xmlns="http://www.w3.org/2000/svg">
<path d="M17.767 15.6405C18.1321 15.3287 18.3259 14.8609 18.2882 14.3822C18.2545 13.9536 18.0078 13.6442 17.8847 13.4972C17.7468 13.3325 17.5589 13.1446 17.3677 12.9535L13.2564 8.84215C13.1722 8.75789 13.0716 8.65725 12.9758 8.57587C12.8647 8.48158 12.6961 8.35603 12.4635 8.28045C12.1622 8.18256 11.8377 8.18256 11.5364 8.28045C11.3038 8.35603 11.1352 8.48158 11.0241 8.57587C10.9282 8.65725 10.8277 8.75787 10.7435 8.84213L6.63214 12.9535C6.44094 13.1446 6.253 13.3325 6.11512 13.4972C5.9921 13.6442 5.7454 13.9536 5.71166 14.3822C5.67399 14.8609 5.86776 15.3287 6.23287 15.6405C6.55981 15.9198 6.95307 15.9641 7.14396 15.981C7.35793 16 7.62369 16 7.89407 15.9999L16.1058 15.9999C16.3762 16 16.6419 16 16.8559 15.981C17.0468 15.9641 17.4401 15.9198 17.767 15.6405Z" fill="#0000CC"/>
</svg>
