<svg width="24" height="24" viewBox="0 0 24 24" fill="none" xmlns="http://www.w3.org/2000/svg">
<path fill-rule="evenodd" clip-rule="evenodd" d="M5.39018 2.01015C5.5155 1.99991 5.65776 1.99996 5.77687 2.00001H12.2232C12.3423 1.99996 12.4845 1.99991 12.6098 2.01015C12.7551 2.02201 12.9631 2.05245 13.181 2.1635C13.4632 2.30731 13.6927 2.53678 13.8365 2.81903C13.9476 3.03697 13.978 3.24496 13.9899 3.39018C14.0001 3.5155 14.0001 3.65777 14 3.77688V5.22314C14.0001 5.34226 14.0001 5.48452 13.9899 5.60984C13.978 5.75506 13.9476 5.96305 13.8365 6.181C13.6927 6.46324 13.4632 6.69271 13.181 6.83652C12.9631 6.94757 12.7551 6.97801 12.6098 6.98988C12.4845 7.00012 12.3423 7.00006 12.2232 7.00002L10 7.00001V8H17.0338C17.4998 7.99998 17.9049 7.99997 18.2415 8.02586C18.5991 8.05336 18.954 8.114 19.3036 8.27495C19.8298 8.51722 20.2746 8.90665 20.5843 9.39623C20.7901 9.72148 20.8971 10.0653 20.9716 10.4161C21.0417 10.7463 21.0952 11.1478 21.1568 11.6098L21.9912 17.8678C21.9971 17.9117 22 17.9558 22 18L22 19.4321C22 19.6844 22.0001 19.9301 21.9831 20.1382C21.9644 20.3668 21.9203 20.6366 21.782 20.908C21.5903 21.2843 21.2843 21.5903 20.908 21.782C20.6366 21.9203 20.3668 21.9644 20.1382 21.9831C19.9301 22.0001 19.6843 22 19.432 22H4.56794C4.31563 22 4.06988 22.0001 3.86178 21.9831C3.63318 21.9644 3.36345 21.9203 3.09202 21.782C2.7157 21.5903 2.40974 21.2843 2.21799 20.908C2.07969 20.6366 2.03563 20.3668 2.01695 20.1382C1.99994 19.9301 1.99997 19.6843 2 19.4319L2.00001 18C2.00001 17.9558 2.00294 17.9117 2.00878 17.8678L2.84319 11.6098C2.90476 11.1478 2.95828 10.7463 3.02843 10.4161C3.10295 10.0653 3.20996 9.72148 3.41571 9.39623C3.7254 8.90665 4.1702 8.51722 4.69641 8.27495C5.046 8.114 5.40095 8.05336 5.75852 8.02586C6.09513 7.99997 6.50017 7.99998 6.96619 8H8V7.00001L5.77687 7.00002C5.65776 7.00006 5.5155 7.00012 5.39018 6.98988C5.24496 6.97801 5.03697 6.94757 4.81903 6.83652C4.53678 6.69271 4.30731 6.46324 4.1635 6.181C4.05245 5.96305 4.02201 5.75506 4.01014 5.60984C3.99991 5.48453 3.99996 5.34227 4.00001 5.22316V3.77687C3.99996 3.65776 3.99991 3.5155 4.01014 3.39018C4.02201 3.24496 4.05245 3.03697 4.1635 2.81903C4.30731 2.53678 4.53678 2.30731 4.81903 2.1635C5.03697 2.05245 5.24496 2.02201 5.39018 2.01015ZM12 5.00001H9.00498L9 5L8.99502 5.00001H6.00001V4.00001H12V5.00001ZM7.5 13C8.05229 13 8.5 12.5523 8.5 12C8.5 11.4477 8.05229 11 7.5 11C6.94772 11 6.5 11.4477 6.5 12C6.5 12.5523 6.94772 13 7.5 13ZM10.5 13C11.0523 13 11.5 12.5523 11.5 12C11.5 11.4477 11.0523 11 10.5 11C9.94771 11 9.5 11.4477 9.5 12C9.5 12.5523 9.94771 13 10.5 13ZM13.5 13C14.0523 13 14.5 12.5523 14.5 12C14.5 11.4477 14.0523 11 13.5 11C12.9477 11 12.5 11.4477 12.5 12C12.5 12.5523 12.9477 13 13.5 13ZM16.5 13C17.0523 13 17.5 12.5523 17.5 12C17.5 11.4477 17.0523 11 16.5 11C15.9477 11 15.5 11.4477 15.5 12C15.5 12.5523 15.9477 13 16.5 13ZM15 16C15.5523 16 16 15.5523 16 15C16 14.4477 15.5523 14 15 14C14.4477 14 14 14.4477 14 15C14 15.5523 14.4477 16 15 16ZM12 16C12.5523 16 13 15.5523 13 15C13 14.4477 12.5523 14 12 14C11.4477 14 11 14.4477 11 15C11 15.5523 11.4477 16 12 16ZM9 16C9.55229 16 10 15.5523 10 15C10 14.4477 9.55229 14 9 14C8.44771 14 8 14.4477 8 15C8 15.5523 8.44771 16 9 16ZM4.5 19C4.22386 19 4 19.2238 4 19.5C4 19.7761 4.22386 20 4.5 20H19.5C19.7761 20 20 19.7761 20 19.5C20 19.2238 19.7761 19 19.5 19H4.5Z" fill="#0000CC"/>
</svg>
