<svg width="24" height="24" viewBox="0 0 24 24" fill="none" xmlns="http://www.w3.org/2000/svg">
<path fill-rule="evenodd" clip-rule="evenodd" d="M2.32698 5.63803C2 6.27976 2 7.11984 2 8.8V15.2C2 16.8802 2 17.7202 2.32698 18.362C2.6146 18.9265 3.07354 19.3854 3.63803 19.673C4.12473 19.921 4.72553 19.9809 5.72037 19.9954L7.02985 14.7575C7.14114 14.3123 7.54112 14 7.99999 14H16C16.4589 14 16.8588 14.3123 16.9701 14.7575L18.2796 19.9954C19.2745 19.9809 19.8753 19.921 20.362 19.673C20.9265 19.3854 21.3854 18.9265 21.673 18.362C22 17.7202 22 16.8802 22 15.2V8.8C22 7.11984 22 6.27976 21.673 5.63803C21.3854 5.07354 20.9265 4.6146 20.362 4.32698C19.7202 4 18.8802 4 17.2 4H6.8C5.11984 4 4.27976 4 3.63803 4.32698C3.07354 4.6146 2.6146 5.07354 2.32698 5.63803ZM7 10C7 9.44772 7.44772 9 8 9C8.55228 9 9 9.44772 9 10C9 10.5523 8.55228 11 8 11C7.44772 11 7 10.5523 7 10ZM11 10C11 9.64936 10.9398 9.31278 10.8293 9H13.1707C13.0602 9.31278 13 9.64936 13 10C13 10.3506 13.0602 10.6872 13.1707 11H10.8293C10.9398 10.6872 11 10.3506 11 10ZM16 11C16.5523 11 17 10.5523 17 10C17 9.44772 16.5523 9 16 9C15.4477 9 15 9.44772 15 10C15 10.5523 15.4477 11 16 11Z" fill="#0000CC"/>
<path d="M16.2192 20L15.2192 16H8.78077L7.78077 20H16.2192Z" fill="#0000CC"/>
</svg>
