<svg width="24" height="24" viewBox="0 0 24 24" fill="none" xmlns="http://www.w3.org/2000/svg">
<path d="M7 3C7 2.44772 6.55229 2 6 2C5.44772 2 5 2.44772 5 3V10H4V8C4 7.44772 3.55229 7 3 7C2.44772 7 2 7.44772 2 8V16.2413C1.99999 17.0463 1.99998 17.7106 2.04419 18.2518C2.09012 18.8139 2.18868 19.3306 2.43598 19.816C2.81947 20.5686 3.43139 21.1805 4.18404 21.564C4.66938 21.8113 5.18608 21.9099 5.74818 21.9558C6.28936 22 6.95372 22 7.75868 22H10V17C10 15.8954 10.8954 15 12 15C13.1046 15 14 15.8954 14 17V22H16.2413C17.0463 22 17.7106 22 18.2518 21.9558C18.8139 21.9099 19.3306 21.8113 19.816 21.564C20.5686 21.1805 21.1805 20.5686 21.564 19.816C21.8113 19.3306 21.9099 18.8139 21.9558 18.2518C22 17.7106 22 17.0463 22 16.2413V8C22 7.44772 21.5523 7 21 7C20.4477 7 20 7.44772 20 8V10H19V3C19 2.44772 18.5523 2 18 2C17.4477 2 17 2.44772 17 3V5H15V3C15 2.44772 14.5523 2 14 2C13.4477 2 13 2.44772 13 3V5H11V3C11 2.44772 10.5523 2 10 2C9.44772 2 9 2.44772 9 3V5H7V3Z" fill="#0000CC"/>
</svg>
