<svg width="24" height="24" viewBox="0 0 24 24" fill="none" xmlns="http://www.w3.org/2000/svg">
<path d="M6.00815 2.75333C6.34938 2.527 6.75186 2.41086 7.16121 2.42061C7.45517 2.42761 7.70508 2.51086 7.90962 2.59758C8.09512 2.67622 8.30465 2.78557 8.51876 2.89732L16.4776 7.04978C16.8201 7.22843 17.1352 7.39281 17.3792 7.5499C17.6314 7.71224 17.9364 7.94461 18.1302 8.31262C18.3843 8.79513 18.4304 9.36048 18.2578 9.87777C18.1261 10.2723 17.8627 10.551 17.6402 10.752C17.6402 10.752 14.913 12.8252 13.5611 13.8445C13.3409 14.0109 13.0642 14.2201 12.7376 14.3252C12.4554 14.4161 12.1565 14.443 11.8626 14.4041C11.5225 14.3591 11.2128 14.2028 10.9664 14.0784L10.8988 14.0444L9.78682 13.4884L8.55325 16.8808L8.52424 16.9612C8.4198 17.2522 8.28872 17.6175 8.03973 17.904C7.82492 18.1512 7.55269 18.3419 7.24694 18.4593C6.89255 18.5954 6.50451 18.5938 6.19534 18.5925L6.10979 18.5922H4.23047V19.5922C4.23047 20.1445 3.78275 20.5922 3.23047 20.5922C2.67818 20.5922 2.23047 20.1445 2.23047 19.5922V15.5922C2.23047 15.0399 2.67818 14.5922 3.23047 14.5922C3.78275 14.5922 4.23047 15.0399 4.23047 15.5922V16.5922H6.10979C6.32493 16.5922 6.43704 16.5917 6.51804 16.5862L6.52546 16.5857L6.52849 16.5789C6.56133 16.5046 6.60014 16.3995 6.67366 16.1973L7.9861 12.5881L4.27991 10.735C4.04022 10.6152 3.8084 10.4993 3.62123 10.3852C3.41693 10.2608 3.18463 10.0919 2.99995 9.83129C2.74553 9.47232 2.61658 9.03947 2.63308 8.59979C2.64506 8.28064 2.74704 8.01214 2.84991 7.79615C2.94416 7.59828 3.07477 7.37442 3.20982 7.14298L5.11324 3.87997C5.23491 3.67134 5.35397 3.46718 5.46906 3.30179C5.59597 3.11944 5.76311 2.91585 6.00815 2.75333Z" fill="#0000CC"/>
<path d="M17.546 15.868L15.4658 14.8279C16.1199 14.3246 16.7931 13.8063 17.4575 13.2947C18.4822 12.5055 19.4883 11.7305 20.3747 11.0475C20.5219 11.1231 20.6598 11.1972 20.7797 11.2705C20.9917 11.4002 21.2344 11.5775 21.4222 11.853C21.6794 12.23 21.7999 12.6837 21.7637 13.1387C21.7372 13.4711 21.6145 13.7455 21.4948 13.9633C21.3844 14.164 21.2334 14.3905 21.0762 14.6262L20.8297 14.996C20.7051 15.1829 20.5823 15.3672 20.4652 15.5165C20.3353 15.6821 20.1678 15.8646 19.9315 16.0092C19.6001 16.2118 19.2169 16.3136 18.8286 16.302C18.5517 16.2938 18.3157 16.2184 18.1208 16.1391C17.945 16.0675 17.7469 15.9685 17.546 15.868Z" fill="#0000CC"/>
</svg>
