<svg width="24" height="24" viewBox="0 0 24 24" fill="none" xmlns="http://www.w3.org/2000/svg">
<path fill-rule="evenodd" clip-rule="evenodd" d="M3 2C3.55229 2 4 2.44772 4 3V17.8C4 18.3766 4.00078 18.7488 4.02393 19.0322C4.04612 19.3038 4.0838 19.4045 4.109 19.454C4.20487 19.6422 4.35785 19.7951 4.54601 19.891C4.59545 19.9162 4.69617 19.9539 4.96784 19.9761C5.25117 19.9992 5.62345 20 6.2 20H21C21.5523 20 22 20.4477 22 21C22 21.5523 21.5523 22 21 22H6.16143C5.6343 22 5.17954 22 4.80497 21.9694C4.40963 21.9371 4.01641 21.8658 3.63803 21.673C3.07354 21.3854 2.6146 20.9265 2.32698 20.362C2.13419 19.9836 2.06287 19.5904 2.03057 19.195C1.99997 18.8205 1.99998 18.3657 2 17.8385L2 3C2 2.44772 2.44772 2 3 2ZM21.6402 6.23178C22.0645 6.58534 22.1218 7.21591 21.7682 7.64018L16.7682 13.6402C16.5884 13.856 16.326 13.9862 16.0453 13.999C15.7646 14.0117 15.4916 13.9058 15.2929 13.7071L12.0672 10.4814L7.76822 15.6402C7.41466 16.0645 6.78409 16.1218 6.35982 15.7682C5.93554 15.4147 5.87822 14.7841 6.23178 14.3598L11.2318 8.35982C11.4116 8.14398 11.674 8.01376 11.9547 8.00103C12.2354 7.9883 12.5084 8.09422 12.7071 8.29289L15.9328 11.5186L20.2318 6.35982C20.5853 5.93554 21.2159 5.87821 21.6402 6.23178Z" fill="#0000CC"/>
</svg>
