<svg width="24" height="24" viewBox="0 0 24 24" fill="none" xmlns="http://www.w3.org/2000/svg">
<path fill-rule="evenodd" clip-rule="evenodd" d="M3 2C3.55229 2 4 2.44772 4 3V16.2C4 17.0566 4.00078 17.6389 4.03755 18.089C4.07337 18.5274 4.1383 18.7516 4.21799 18.908C4.40973 19.2843 4.7157 19.5903 5.09202 19.782C5.24842 19.8617 5.47262 19.9266 5.91104 19.9624C6.36113 19.9992 6.94342 20 7.8 20H21C21.5523 20 22 20.4477 22 21C22 21.5523 21.5523 22 21 22H7.75868C6.95372 22 6.28936 22 5.74817 21.9558C5.18608 21.9099 4.66937 21.8113 4.18404 21.564C3.43139 21.1805 2.81947 20.5686 2.43598 19.816C2.18868 19.3306 2.09012 18.8139 2.04419 18.2518C1.99998 17.7106 1.99999 17.0463 2 16.2413L2 3C2 2.44772 2.44772 2 3 2ZM6.35982 6.23178C6.78409 5.87821 7.41466 5.93554 7.76822 6.35982L12.0672 11.5186L15.2929 8.29289C15.4916 8.09422 15.7646 7.9883 16.0453 8.00103C16.326 8.01376 16.5884 8.14398 16.7682 8.35982L21.7682 14.3598C22.1218 14.7841 22.0645 15.4147 21.6402 15.7682C21.2159 16.1218 20.5853 16.0645 20.2318 15.6402L15.9328 10.4814L12.7071 13.7071C12.5084 13.9058 12.2354 14.0117 11.9547 13.999C11.674 13.9862 11.4116 13.856 11.2318 13.6402L6.23178 7.64018C5.87822 7.21591 5.93554 6.58534 6.35982 6.23178Z" fill="#0000CC"/>
</svg>
