<svg width="24" height="24" viewBox="0 0 24 24" fill="none" xmlns="http://www.w3.org/2000/svg">
<path d="M4 3C4 2.44772 3.55229 2 3 2C2.44772 2 2 2.44772 2 3L2 16.2413C1.99999 17.0463 1.99998 17.7106 2.04419 18.2518C2.09012 18.8139 2.18868 19.3306 2.43598 19.816C2.81947 20.5686 3.43139 21.1805 4.18404 21.564C4.66937 21.8113 5.18608 21.9099 5.74817 21.9558C6.28936 22 6.95372 22 7.75868 22H21C21.5523 22 22 21.5523 22 21C22 20.4477 21.5523 20 21 20H7.8C6.94342 20 6.36113 19.9992 5.91104 19.9624C5.47262 19.9266 5.24842 19.8617 5.09202 19.782C4.7157 19.5903 4.40973 19.2843 4.21799 18.908C4.1383 18.7516 4.07337 18.5274 4.03755 18.089C4.00078 17.6389 4 17.0566 4 16.2V3Z" fill="#0000CC"/>
<path d="M8.5 16.5C9.05229 16.5 9.5 16.0523 9.5 15.5C9.5 14.9477 9.05229 14.5 8.5 14.5C7.94772 14.5 7.5 14.9477 7.5 15.5C7.5 16.0523 7.94772 16.5 8.5 16.5Z" fill="#0000CC"/>
<path d="M10.5 8.5C10.5 9.05229 10.0523 9.5 9.5 9.5C8.94771 9.5 8.5 9.05229 8.5 8.5C8.5 7.94772 8.94771 7.5 9.5 7.5C10.0523 7.5 10.5 7.94772 10.5 8.5Z" fill="#0000CC"/>
<path d="M19.5 8.5C20.0523 8.5 20.5 8.05229 20.5 7.5C20.5 6.94772 20.0523 6.5 19.5 6.5C18.9477 6.5 18.5 6.94772 18.5 7.5C18.5 8.05229 18.9477 8.5 19.5 8.5Z" fill="#0000CC"/>
<path d="M19.5 15.5C19.5 16.0523 19.0523 16.5 18.5 16.5C17.9477 16.5 17.5 16.0523 17.5 15.5C17.5 14.9477 17.9477 14.5 18.5 14.5C19.0523 14.5 19.5 14.9477 19.5 15.5Z" fill="#0000CC"/>
<path d="M14.5 13.5C15.0523 13.5 15.5 13.0523 15.5 12.5C15.5 11.9477 15.0523 11.5 14.5 11.5C13.9477 11.5 13.5 11.9477 13.5 12.5C13.5 13.0523 13.9477 13.5 14.5 13.5Z" fill="#0000CC"/>
</svg>
