<svg width="24" height="24" viewBox="0 0 24 24" fill="none" xmlns="http://www.w3.org/2000/svg">
<path d="M10.0166 12.8476L12.5375 9.94846L13.8695 13.4973L10.0166 12.8476Z" fill="#0000CC"/>
<path fill-rule="evenodd" clip-rule="evenodd" d="M8.73152 2.33945C8.17434 2.33875 7.68403 2.33814 7.22782 2.48638C6.82798 2.61629 6.45991 2.8288 6.14748 3.11011C5.791 3.43109 5.54638 3.85601 5.26839 4.33889L1.99974 10.0004C1.72055 10.4825 1.47486 10.9069 1.37513 11.3761C1.28772 11.7873 1.28772 12.2123 1.37513 12.6235C1.47486 13.0927 1.72055 13.5171 1.99974 13.9992L5.26838 19.6607C5.54637 20.1436 5.79099 20.5685 6.14748 20.8895C6.45991 21.1708 6.82798 21.3833 7.22782 21.5132C7.68403 21.6615 8.17434 21.6608 8.73152 21.6602H15.2688C15.826 21.6608 16.3163 21.6615 16.7725 21.5132C17.1724 21.3833 17.5404 21.1708 17.8529 20.8895C18.2093 20.5685 18.454 20.1436 18.732 19.6607L22.0006 13.9992C22.2798 13.517 22.5255 13.0927 22.6252 12.6235C22.7126 12.2123 22.7126 11.7873 22.6252 11.3761C22.5255 10.9069 22.2798 10.4825 22.0006 10.0004L18.732 4.3389C18.454 3.85602 18.2093 3.43109 17.8529 3.11011C17.5404 2.8288 17.1724 2.61629 16.7725 2.48638C16.3163 2.33814 15.826 2.33875 15.2688 2.33945H8.73152ZM14.8061 8.36543C14.7448 8.69792 14.6016 8.98883 14.4027 9.22621L15.7988 12.9457C16.7737 13.1523 17.4824 14.0841 17.29 15.1278C17.0949 16.1862 16.0692 16.8233 15.0633 16.6537C14.3914 16.5404 13.8344 16.0845 13.5915 15.4786L9.49965 14.7886C9.06259 15.2523 8.4018 15.4817 7.74938 15.3717C6.73359 15.2004 5.98047 14.2463 6.17812 13.1743C6.37328 12.1159 7.39897 11.4788 8.4048 11.6484L11.0639 8.59516C10.9743 8.31644 10.9499 8.01036 11.0082 7.69401C11.2034 6.63557 12.2291 5.99851 13.2349 6.16811C14.2507 6.33939 15.0038 7.29348 14.8061 8.36543Z" fill="#0000CC"/>
</svg>
