<svg width="24" height="24" viewBox="0 0 24 24" fill="none" xmlns="http://www.w3.org/2000/svg">
<path d="M13 2C12.4477 2 12 2.44772 12 3V10C12 10.5523 12.4477 11 13 11H20C20.5523 11 21 10.5523 21 10C21 5.58172 17.4183 2 13 2Z" fill="#0000CC"/>
<path d="M10 3C5.02944 3 1 7.02944 1 12C1 16.9706 5.02944 21 10 21C12.485 21 14.7364 19.9915 16.364 18.364C16.7545 17.9734 16.7545 17.3403 16.364 16.9497L11.2929 11.8787C11.1054 11.6911 11 11.4368 11 11.1716V4C11 3.44772 10.5523 3 10 3Z" fill="#0000CC"/>
<path d="M15 12C14.5955 12 14.2309 12.2436 14.0761 12.6173C13.9213 12.991 14.0069 13.4211 14.2929 13.7071L19.2426 18.6569C19.6332 19.0474 20.2663 19.0474 20.6569 18.6569C22.1035 17.2102 23 15.2089 23 13C23 12.4477 22.5523 12 22 12H15Z" fill="#0000CC"/>
</svg>
