<svg width="24" height="24" viewBox="0 0 24 24" fill="none" xmlns="http://www.w3.org/2000/svg">
<path fill-rule="evenodd" clip-rule="evenodd" d="M5.56811 3.5C5.57873 3.5 5.58936 3.50001 5.60001 3.50001H8.40001C8.41065 3.50001 8.42128 3.5 8.4319 3.5C8.68429 3.49997 8.93008 3.49994 9.13824 3.51695C9.36683 3.53563 9.63656 3.57969 9.90799 3.71799C10.2843 3.90974 10.5903 4.2157 10.782 4.59202C10.9203 4.86345 10.9644 5.13318 10.9831 5.36178C11.0001 5.56993 11 5.81572 11 6.06811C11 6.07873 11 6.08936 11 6.10001V8.90001C11 8.91065 11 8.92128 11 8.9319C11 9.18429 11.0001 9.43008 10.9831 9.63824C10.9644 9.86683 10.9203 10.1366 10.782 10.408C10.5903 10.7843 10.2843 11.0903 9.90799 11.282C9.63656 11.4203 9.36683 11.4644 9.13824 11.4831C8.93008 11.5001 8.68429 11.5 8.4319 11.5C8.42128 11.5 8.41065 11.5 8.40001 11.5H5.60001C5.58936 11.5 5.57873 11.5 5.56811 11.5C5.31572 11.5 5.06993 11.5001 4.86178 11.4831C4.63318 11.4644 4.36345 11.4203 4.09202 11.282C3.7157 11.0903 3.40974 10.7843 3.21799 10.408C3.07969 10.1366 3.03563 9.86683 3.01695 9.63824C2.99994 9.43008 2.99997 9.18429 3 8.9319C3 8.92128 3.00001 8.91065 3.00001 8.90001V6.10001C3.00001 6.08936 3 6.07873 3 6.06811C2.99997 5.81572 2.99994 5.56993 3.01695 5.36178C3.03563 5.13318 3.07969 4.86345 3.21799 4.59202C3.40974 4.2157 3.7157 3.90974 4.09202 3.71799C4.36345 3.57969 4.63318 3.53563 4.86178 3.51695C5.06993 3.49994 5.31572 3.49997 5.56811 3.5ZM14.4735 3.5H18.5265C18.7365 3.49998 18.9411 3.49996 19.1152 3.51184C19.3056 3.52483 19.5313 3.5553 19.7654 3.65225C20.2554 3.85523 20.6448 4.24458 20.8478 4.73464C20.9447 4.96868 20.9752 5.19441 20.9882 5.38478C21 5.55886 21 5.76348 21 5.97353V6.02648C21 6.23653 21 6.44115 20.9882 6.61523C20.9752 6.8056 20.9447 7.03133 20.8478 7.26537C20.6448 7.75543 20.2554 8.14478 19.7654 8.34776C19.5313 8.44471 19.3056 8.47518 19.1152 8.48817C18.9412 8.50005 18.7365 8.50003 18.5265 8.50001H14.4735C14.2635 8.50003 14.0589 8.50005 13.8848 8.48817C13.6944 8.47518 13.4687 8.44471 13.2346 8.34776C12.7446 8.14478 12.3552 7.75543 12.1522 7.26537C12.0553 7.03133 12.0248 6.8056 12.0118 6.61523C12 6.44115 12 6.23653 12 6.02649V5.97352C12 5.76348 12 5.55886 12.0118 5.38478C12.0248 5.19441 12.0553 4.96868 12.1522 4.73464C12.3552 4.24458 12.7446 3.85523 13.2346 3.65225C13.4687 3.5553 13.6944 3.52483 13.8848 3.51184C14.0589 3.49996 14.2635 3.49998 14.4735 3.5ZM14.4735 9.5H18.5265C18.7365 9.49998 18.9412 9.49996 19.1152 9.51184C19.3056 9.52483 19.5313 9.5553 19.7654 9.65225C20.2554 9.85523 20.6448 10.2446 20.8478 10.7346C20.9447 10.9687 20.9752 11.1944 20.9882 11.3848C21 11.5589 21 11.7635 21 11.9735V12.0265C21 12.2365 21 12.4411 20.9882 12.6152C20.9752 12.8056 20.9447 13.0313 20.8478 13.2654C20.6448 13.7554 20.2554 14.1448 19.7654 14.3478C19.5313 14.4447 19.3056 14.4752 19.1152 14.4882C18.9412 14.5 18.7365 14.5 18.5265 14.5H14.4735C14.2635 14.5 14.0589 14.5 13.8848 14.4882C13.6944 14.4752 13.4687 14.4447 13.2346 14.3478C12.7446 14.1448 12.3552 13.7554 12.1522 13.2654C12.0553 13.0313 12.0248 12.8056 12.0118 12.6152C12 12.4411 12 12.2365 12 12.0265V11.9735C12 11.7635 12 11.5589 12.0118 11.3848C12.0248 11.1944 12.0553 10.9687 12.1522 10.7346C12.3552 10.2446 12.7446 9.85523 13.2346 9.65225C13.4687 9.5553 13.6944 9.52483 13.8848 9.51184C14.0589 9.49996 14.2635 9.49998 14.4735 9.5ZM5.56811 12.5C5.57873 12.5 5.58936 12.5 5.60001 12.5H8.40001C8.41065 12.5 8.42128 12.5 8.4319 12.5C8.68429 12.5 8.93008 12.4999 9.13824 12.5169C9.36683 12.5356 9.63656 12.5797 9.90799 12.718C10.2843 12.9097 10.5903 13.2157 10.782 13.592C10.9203 13.8634 10.9644 14.1332 10.9831 14.3618C11.0001 14.5699 11 14.8157 11 15.0681V17.9319C11 18.1843 11.0001 18.4301 10.9831 18.6382C10.9644 18.8668 10.9203 19.1366 10.782 19.408C10.5903 19.7843 10.2843 20.0903 9.90799 20.282C9.63656 20.4203 9.36683 20.4644 9.13824 20.4831C8.93008 20.5001 8.6843 20.5 8.43192 20.5H5.56809C5.31571 20.5 5.06993 20.5001 4.86178 20.4831C4.63318 20.4644 4.36345 20.4203 4.09202 20.282C3.7157 20.0903 3.40974 19.7843 3.21799 19.408C3.07969 19.1366 3.03563 18.8668 3.01695 18.6382C2.99994 18.4301 2.99997 18.1843 3 17.9319V15.0681C2.99997 14.8157 2.99994 14.5699 3.01695 14.3618C3.03563 14.1332 3.07969 13.8634 3.21799 13.592C3.40974 13.2157 3.7157 12.9097 4.09202 12.718C4.36345 12.5797 4.63318 12.5356 4.86178 12.5169C5.06993 12.4999 5.31572 12.5 5.56811 12.5ZM14.4735 15.5H18.5265C18.7365 15.5 18.9412 15.5 19.1152 15.5118C19.3056 15.5248 19.5313 15.5553 19.7654 15.6522C20.2554 15.8552 20.6448 16.2446 20.8478 16.7346C20.9447 16.9687 20.9752 17.1944 20.9882 17.3848C21 17.5589 21 17.7635 21 17.9735V18.0265C21 18.2365 21 18.4411 20.9882 18.6152C20.9752 18.8056 20.9447 19.0313 20.8478 19.2654C20.6448 19.7554 20.2554 20.1448 19.7654 20.3478C19.5313 20.4447 19.3056 20.4752 19.1152 20.4882C18.9412 20.5 18.7365 20.5 18.5265 20.5H14.4735C14.2635 20.5 14.0589 20.5 13.8848 20.4882C13.6944 20.4752 13.4687 20.4447 13.2346 20.3478C12.7446 20.1448 12.3552 19.7554 12.1522 19.2654C12.0553 19.0313 12.0248 18.8056 12.0118 18.6152C12 18.4411 12 18.2365 12 18.0265V17.9735C12 17.7635 12 17.5589 12.0118 17.3848C12.0248 17.1944 12.0553 16.9687 12.1522 16.7346C12.3552 16.2446 12.7446 15.8552 13.2346 15.6522C13.4687 15.5553 13.6944 15.5248 13.8848 15.5118C14.0589 15.5 14.2635 15.5 14.4735 15.5Z" fill="#0000CC"/>
</svg>
