<svg width="24" height="24" viewBox="0 0 24 24" fill="none" xmlns="http://www.w3.org/2000/svg">
<path d="M10 4C10.5523 4 11 4.44772 11 5C11 5.55228 10.5523 6 10 6H6C5.44772 6 5 5.55228 5 5C5 4.44772 5.44772 4 6 4H10Z" fill="#0000CC"/>
<path fill-rule="evenodd" clip-rule="evenodd" d="M18 3C18.5523 3 19 3.44772 19 4C19 4.55228 18.5523 5 18 5H17V7H21C21.5523 7 22 7.44772 22 8V20C22 20.5523 21.5523 21 21 21H3C2.44772 21 2 20.5523 2 20V8C2 7.44772 2.44772 7 3 7H15V5H14C13.4477 5 13 4.55228 13 4C13 3.44772 13.4477 3 14 3H18ZM16 11C17.6569 11 19 12.3431 19 14C19 15.6569 17.6569 17 16 17C14.3431 17 13 15.6569 13 14C13 12.3431 14.3431 11 16 11ZM11 14C11 12.3431 9.65685 11 8 11C6.34315 11 5 12.3431 5 14C5 15.6569 6.34315 17 8 17C9.65685 17 11 15.6569 11 14Z" fill="#0000CC"/>
</svg>
