<svg width="24" height="24" viewBox="0 0 24 24" fill="none" xmlns="http://www.w3.org/2000/svg">
<path d="M9 3C9 2.44772 9.44772 2 10 2H14C14.5523 2 15 2.44772 15 3C15 3.34809 14.8221 3.65465 14.5524 3.83374C14.5863 3.86643 14.6201 3.89928 14.6536 3.93228L12.2929 6.29308C11.9024 6.6836 11.9024 7.31677 12.2929 7.70729C12.6834 8.09782 13.3166 8.09782 13.7071 7.70729L15.9515 5.46284C16.5435 6.33893 16.9619 7.34185 16.994 8.47155C17.0195 9.36833 16.8113 10.2467 16.3204 11.0524C16.7155 11.186 17 11.5598 17 12C17 12.5523 16.5523 13 16 13H15.2808L15.9701 15.7575C16.0448 16.0562 15.9777 16.3727 15.7882 16.6154C15.5987 16.8581 15.3079 17 15 17H9C8.69216 17 8.40147 16.8582 8.21196 16.6156C8.02244 16.373 7.95522 16.0567 8.02973 15.758L8.7177 13H8C7.44772 13 7 12.5523 7 12C7 11.5612 7.28266 11.1884 7.67585 11.0537C7.1832 10.2483 6.9726 9.36974 6.99816 8.47155C7.03805 7.07 7.67296 5.86372 8.49602 4.85285C8.78601 4.49669 9.10624 4.15631 9.44403 3.83133C9.17627 3.6519 9 3.34653 9 3Z" fill="#0000CC"/>
<path d="M8.27462 18.5039C8.45266 18.1923 8.784 18 9.14286 18H14.8571C15.216 18 15.5473 18.1923 15.7254 18.5039L16.8682 20.5039C17.0451 20.8134 17.0438 21.1936 16.8649 21.5019C16.686 21.8102 16.3565 22 16 22H8C7.64353 22 7.31401 21.8102 7.13509 21.5019C6.95617 21.1936 6.9549 20.8134 7.13176 20.5039L8.27462 18.5039Z" fill="#0000CC"/>
</svg>
