<svg width="24" height="24" viewBox="0 0 24 24" fill="none" xmlns="http://www.w3.org/2000/svg">
<path fill-rule="evenodd" clip-rule="evenodd" d="M12 2C12.4138 2 12.7848 2.25483 12.9333 2.64102L14.881 7.70482L18.2929 4.29289C18.6834 3.90237 19.3166 3.90237 19.7071 4.29289C20.0976 4.68342 20.0976 5.31658 19.7071 5.70711L16.2952 9.11904L21.359 11.0667C21.7452 11.2152 22 11.5862 22 12C22 12.4138 21.7452 12.7848 21.359 12.9333L16.2952 14.881L19.7071 18.2929C20.0976 18.6834 20.0976 19.3166 19.7071 19.7071C19.3166 20.0976 18.6834 20.0976 18.2929 19.7071L14.881 16.2952L12.9333 21.359C12.7848 21.7452 12.4138 22 12 22C11.5862 22 11.2152 21.7452 11.0667 21.359L9.11904 16.2952L5.70711 19.7071C5.31658 20.0976 4.68342 20.0976 4.29289 19.7071C3.90237 19.3166 3.90237 18.6834 4.29289 18.2929L7.70482 14.881L2.64102 12.9333C2.25483 12.7848 2 12.4138 2 12C2 11.5862 2.25483 11.2152 2.64102 11.0667L7.70482 9.11904L4.29289 5.70711C3.90237 5.31658 3.90237 4.68342 4.29289 4.29289C4.68342 3.90237 5.31658 3.90237 5.70711 4.29289L9.11904 7.70482L11.0667 2.64102C11.2152 2.25483 11.5862 2 12 2Z" fill="#0000CC"/>
</svg>
