<svg width="24" height="24" viewBox="0 0 24 24" fill="none" xmlns="http://www.w3.org/2000/svg">
<path fill-rule="evenodd" clip-rule="evenodd" d="M12 1C12.3344 1 12.6466 1.1671 12.8321 1.4453L14.1603 3.4376C14.4159 3.82109 14.6797 4.31434 14.7969 4.85742C14.9178 5.41751 14.8921 6.09439 14.4663 6.70839C14.1114 7.22003 13.5996 7.61707 13 7.82913V8.03699C14.0933 8.11882 15.0985 8.33394 15.9069 8.65731C16.4291 8.86616 16.9187 9.13987 17.2942 9.49496C17.6718 9.85204 18 10.3603 18 11V20C18 20.6397 17.6718 21.148 17.2942 21.505C16.9187 21.8601 16.4291 22.1338 15.9069 22.3427C14.8571 22.7626 13.4754 23 12 23C10.5246 23 9.1429 22.7626 8.09308 22.3427C7.57094 22.1338 7.08129 21.8601 6.70582 21.505C6.32823 21.148 6 20.6397 6 20V11C6 10.3603 6.32823 9.85204 6.70582 9.49496C7.08129 9.13987 7.57094 8.86616 8.09308 8.65731C8.9015 8.33394 9.90674 8.11882 11 8.03699V7.82913C10.4004 7.61707 9.88859 7.22003 9.53373 6.70839C9.10788 6.09439 9.08218 5.41751 9.2031 4.85742C9.32035 4.31434 9.58409 3.82109 9.83975 3.4376L11.1679 1.4453C11.3534 1.1671 11.6656 1 12 1ZM11 10.0436C10.1369 10.1202 9.3908 10.2923 8.83586 10.5143C8.45317 10.6673 8.21059 10.8246 8.08003 10.9481C8.05871 10.9682 8.04225 10.9855 8.02965 11C8.04225 11.0144 8.05871 11.0318 8.08003 11.0519C8.21059 11.1754 8.45317 11.3327 8.83586 11.4857C9.59568 11.7897 10.7139 12 12 12C13.2861 12 14.4043 11.7897 15.1641 11.4857C15.5468 11.3327 15.7894 11.1754 15.92 11.0519C15.9413 11.0318 15.9577 11.0144 15.9704 11C15.9577 10.9855 15.9413 10.9682 15.92 10.9481C15.7894 10.8246 15.5468 10.6673 15.1641 10.5143C14.6092 10.2923 13.8631 10.1202 13 10.0436V10.5C13 11.0523 12.5523 11.5 12 11.5C11.4477 11.5 11 11.0523 11 10.5V10.0436ZM12 3.80278L11.5038 4.547C11.3215 4.82058 11.202 5.07597 11.1581 5.27948C11.1178 5.46599 11.1529 5.53366 11.1771 5.56856C11.3594 5.83132 11.6601 6 12 6C12.3399 6 12.6406 5.83132 12.8229 5.56856C12.8471 5.53366 12.8822 5.46599 12.8419 5.27948C12.798 5.07597 12.6785 4.82058 12.4962 4.547L12 3.80278Z" fill="#0000CC"/>
</svg>
