<svg width="24" height="24" viewBox="0 0 24 24" fill="none" xmlns="http://www.w3.org/2000/svg">
<path fill-rule="evenodd" clip-rule="evenodd" d="M22 12C22 17.1853 18.0533 21.4489 13 21.9506C12.6711 21.9833 12.3375 22 12 22C11.6625 22 11.3289 21.9833 11 21.9506C5.94668 21.4489 2 17.1853 2 12C2 6.47715 6.47715 2 12 2C17.5228 2 22 6.47715 22 12ZM13 19.9381V17H14C15.6569 17 17 15.6569 17 14V11C17 10.4477 16.5523 10 16 10H15V8C15 7.44772 14.5523 7 14 7C13.4477 7 13 7.44772 13 8V10H11V8C11 7.44772 10.5523 7 10 7C9.44771 7 9 7.44772 9 8V10H8C7.44772 10 7 10.4477 7 11V14C7 15.6569 8.34315 17 10 17H11V19.9381C11.3276 19.979 11.6613 20 12 20C12.3387 20 12.6724 19.979 13 19.9381Z" fill="#0000CC"/>
</svg>
