<svg width="24" height="24" viewBox="0 0 24 24" fill="none" xmlns="http://www.w3.org/2000/svg">
<path fill-rule="evenodd" clip-rule="evenodd" d="M2 12C2 6.47715 6.47715 2 12 2C17.5228 2 22 6.47715 22 12C22 17.5228 17.5228 22 12 22C6.47715 22 2 17.5228 2 12ZM8.22311 8.24042C9.41046 7.2541 10.8905 7.32263 11.9969 8.027C13.1012 7.32326 14.5678 7.26735 15.7614 8.23184C17.2153 9.40673 17.3952 11.4351 16.2702 12.8425C15.737 13.5096 14.5167 14.6208 13.6858 15.3567C13.4064 15.6042 13.0432 15.9556 12.5693 16.097C12.2016 16.2067 11.7934 16.2067 11.4257 16.097C10.9866 15.966 10.6445 15.6538 10.3091 15.3567C9.47822 14.6208 8.25796 13.5096 7.72477 12.8425C6.59061 11.4236 6.81061 9.41377 8.22311 8.24042Z" fill="#0000CC"/>
</svg>
