<svg width="24" height="24" viewBox="0 0 24 24" fill="none" xmlns="http://www.w3.org/2000/svg">
<path fill-rule="evenodd" clip-rule="evenodd" d="M12 22C17.5228 22 22 17.5228 22 12C22 6.47715 17.5228 2 12 2C6.47715 2 2 6.47715 2 12C2 17.5228 6.47715 22 12 22ZM16.7348 9.67829C17.1094 9.27246 17.0841 8.6398 16.6783 8.2652C16.2725 7.8906 15.6398 7.9159 15.2652 8.32172L10.4615 13.5257L8.73481 11.6551C8.3602 11.2492 7.72755 11.2239 7.32172 11.5985C6.9159 11.9731 6.8906 12.6058 7.2652 13.0116L9.72674 15.6783C9.91605 15.8834 10.1824 16 10.4615 16C10.7406 16 11.007 15.8834 11.1963 15.6783L16.7348 9.67829Z" fill="#0000CC"/>
</svg>
