<svg width="24" height="24" viewBox="0 0 24 24" fill="none" xmlns="http://www.w3.org/2000/svg">
<path d="M9.9091 9.63881C10.4133 8.53851 11.2314 8 12 8C12.7686 8 13.5867 8.53851 14.0909 9.63881C14.3765 10.262 14.5 10.8411 14.5 12C14.5 13.1297 14.3412 13.7638 14.078 14.3906C13.6045 15.518 12.8018 16 12 16C11.2314 16 10.4133 15.4615 9.9091 14.3612C9.62354 13.738 9.5 13.1589 9.5 12C9.5 10.8411 9.62354 10.262 9.9091 9.63881Z" fill="#0000CC"/>
<path fill-rule="evenodd" clip-rule="evenodd" d="M12 22C17.5228 22 22 17.5228 22 12C22 6.47715 17.5228 2 12 2C6.47715 2 2 6.47715 2 12C2 17.5228 6.47715 22 12 22ZM12 6C10.2231 6 8.81478 7.22596 8.0909 8.80563C7.64832 9.77147 7.5 10.6589 7.5 12C7.5 13.3411 7.64832 14.2285 8.0909 15.1944C8.81478 16.774 10.2231 18 12 18C13.7437 18 15.1932 16.9004 15.922 15.165C16.2976 14.2706 16.5 13.3703 16.5 12C16.5 10.6589 16.3517 9.77147 15.9091 8.80563C15.1852 7.22596 13.7769 6 12 6Z" fill="#0000CC"/>
</svg>
