<svg width="24" height="24" viewBox="0 0 24 24" fill="none" xmlns="http://www.w3.org/2000/svg">
<path fill-rule="evenodd" clip-rule="evenodd" d="M2 12C2 6.47715 6.47715 2 12 2C17.5228 2 22 6.47715 22 12C22 17.5228 17.5228 22 12 22C6.47715 22 2 17.5228 2 12ZM15.7176 7.06688C15.3219 6.93466 14.9534 7.03028 14.7702 7.08349C14.5706 7.14148 14.3326 7.23437 14.0939 7.32758C11.9415 8.16797 9.78931 9.00775 7.63683 9.84742C7.37 9.95151 7.11157 10.0523 6.91209 10.151C6.73974 10.2362 6.3734 10.4259 6.16891 10.8195C5.94341 11.2535 5.94371 11.7703 6.16973 12.2041C6.37467 12.5974 6.74123 12.7867 6.91369 12.8717C7.11329 12.9701 7.37185 13.0706 7.63882 13.1744L9.74028 13.9916L10.5575 16.0931C10.6613 16.3601 10.7618 16.6186 10.8602 16.8182C10.9452 16.9907 11.1345 17.3573 11.5279 17.5622C11.9616 17.7882 12.4784 17.7885 12.9125 17.563C13.3061 17.3585 13.4958 16.9922 13.581 16.8198C13.6796 16.6204 13.7804 16.3619 13.8845 16.0951C14.4458 14.6563 15.0073 13.2177 15.5688 11.779C15.8473 11.0653 16.1258 10.3517 16.4044 9.63802C16.4976 9.3993 16.5905 9.16137 16.6484 8.96172C16.7017 8.77854 16.7973 8.41008 16.6651 8.01431C16.5157 7.56716 16.1648 7.21626 15.7176 7.06688Z" fill="#0000CC"/>
</svg>
