<svg width="24" height="24" viewBox="0 0 24 24" fill="none" xmlns="http://www.w3.org/2000/svg">
<path fill-rule="evenodd" clip-rule="evenodd" d="M12 22C17.5228 22 22 17.5228 22 12C22 6.47715 17.5228 2 12 2C6.47715 2 2 6.47715 2 12C2 17.5228 6.47715 22 12 22ZM11 6C10.6212 6 10.275 6.214 10.1056 6.55279L8.10557 10.5528C7.95058 10.8628 7.96714 11.2309 8.14935 11.5258C8.33156 11.8206 8.65342 12 9 12H12C13.1046 12 14 12.8954 14 14C14 15.1046 13.1046 16 12 16H11C10.4477 16 10 15.5523 10 15C10 14.4477 9.55228 14 9 14C8.44772 14 8 14.4477 8 15C8 16.6568 9.34315 18 11 18H12C14.2091 18 16 16.2091 16 14C16 11.7909 14.2091 10 12 10H10.618L11.618 8H15C15.5523 8 16 7.55228 16 7C16 6.44772 15.5523 6 15 6H11Z" fill="#0000CC"/>
</svg>
