<svg width="24" height="24" viewBox="0 0 24 24" fill="none" xmlns="http://www.w3.org/2000/svg">
<path fill-rule="evenodd" clip-rule="evenodd" d="M12 22C17.5228 22 22 17.5228 22 12C22 6.47715 17.5228 2 12 2C6.47715 2 2 6.47715 2 12C2 17.5228 6.47715 22 12 22ZM9 6C8.44772 6 8 6.44772 8 7C8 7.55228 8.44772 8 9 8H12.9194L10.2191 11.3753C9.979 11.6755 9.93218 12.0867 10.0987 12.4332C10.2652 12.7797 10.6156 13 11 13H12.5C13.3284 13 14 13.6716 14 14.5C14 15.3284 13.3284 16 12.5 16H10.9444C10.4228 16 10 15.5772 10 15.0556C10 14.5033 9.55228 14.0556 9 14.0556C8.44772 14.0556 8 14.5033 8 15.0556C8 16.6817 9.31827 18 10.9444 18H12.5C14.433 18 16 16.433 16 14.5C16 12.753 14.72 11.3049 13.0467 11.0424L15.7809 7.62469C16.021 7.32452 16.0678 6.91328 15.9013 6.56681C15.7348 6.22035 15.3844 6 15 6H9Z" fill="#0000CC"/>
</svg>
