<svg width="24" height="24" viewBox="0 0 24 24" fill="none" xmlns="http://www.w3.org/2000/svg">
<path fill-rule="evenodd" clip-rule="evenodd" d="M10.0495 2.19032C10.6811 2.06536 11.3334 2 12 2C12.6666 2 13.3189 2.06536 13.9505 2.19032C14.4923 2.2975 14.8446 2.82359 14.7374 3.36538C14.6303 3.90716 14.1042 4.25948 13.5624 4.15229C13.0579 4.05249 12.5356 4 12 4C11.4644 4 10.9421 4.05249 10.4376 4.15229C9.89583 4.25948 9.36974 3.90716 9.26255 3.36538C9.15537 2.82359 9.50769 2.2975 10.0495 2.19032ZM16.1696 3.95959C16.4768 3.50066 17.0979 3.3777 17.5569 3.68494C18.6469 4.41473 19.5853 5.35306 20.3151 6.44314C20.6223 6.90207 20.4993 7.52318 20.0404 7.83043C19.5815 8.13767 18.9604 8.01471 18.6531 7.55578C18.0688 6.68294 17.3171 5.93123 16.4442 5.34688C15.9853 5.03963 15.8623 4.41852 16.1696 3.95959ZM7.83043 3.95959C8.13767 4.41852 8.01471 5.03963 7.55578 5.34688C6.68294 5.93123 5.93123 6.68294 5.34688 7.55578C5.03963 8.01471 4.41852 8.13767 3.95959 7.83043C3.50066 7.52318 3.3777 6.90207 3.68494 6.44314C4.41473 5.35306 5.35306 4.41474 6.44314 3.68494C6.90207 3.3777 7.52318 3.50066 7.83043 3.95959ZM3.36538 9.26255C3.90716 9.36973 4.25948 9.89583 4.15229 10.4376C4.05249 10.9421 4 11.4644 4 12C4 12.5356 4.05249 13.0579 4.15229 13.5624C4.25948 14.1042 3.90716 14.6303 3.36538 14.7374C2.82359 14.8446 2.2975 14.4923 2.19032 13.9505C2.06536 13.3189 2 12.6666 2 12C2 11.3334 2.06536 10.6811 2.19032 10.0495C2.2975 9.50769 2.82359 9.15537 3.36538 9.26255ZM20.6346 9.26255C21.1764 9.15537 21.7025 9.50769 21.8097 10.0495C21.9346 10.6811 22 11.3334 22 12C22 12.6666 21.9346 13.3189 21.8097 13.9505C21.7025 14.4923 21.1764 14.8446 20.6346 14.7374C20.0928 14.6303 19.7405 14.1042 19.8477 13.5624C19.9475 13.0579 20 12.5356 20 12C20 11.4644 19.9475 10.9421 19.8477 10.4376C19.7405 9.89583 20.0928 9.36974 20.6346 9.26255ZM20.0404 16.1696C20.4993 16.4768 20.6223 17.0979 20.3151 17.5569C19.5853 18.6469 18.6469 19.5853 17.5569 20.3151C17.0979 20.6223 16.4768 20.4993 16.1696 20.0404C15.8623 19.5815 15.9853 18.9604 16.4442 18.6531C17.3171 18.0688 18.0688 17.3171 18.6531 16.4442C18.9604 15.9853 19.5815 15.8623 20.0404 16.1696ZM3.95959 16.1696C4.41852 15.8623 5.03963 15.9853 5.34688 16.4442C5.93123 17.3171 6.68294 18.0688 7.55578 18.6531C8.01471 18.9604 8.13767 19.5815 7.83043 20.0404C7.52318 20.4993 6.90207 20.6223 6.44314 20.3151C5.35306 19.5853 4.41474 18.6469 3.68494 17.5569C3.3777 17.0979 3.50066 16.4768 3.95959 16.1696ZM9.26255 20.6346C9.36973 20.0928 9.89583 19.7405 10.4376 19.8477C10.9421 19.9475 11.4644 20 12 20C12.5356 20 13.0579 19.9475 13.5624 19.8477C14.1042 19.7405 14.6303 20.0928 14.7374 20.6346C14.8446 21.1764 14.4923 21.7025 13.9505 21.8097C13.3189 21.9346 12.6666 22 12 22C11.3334 22 10.6811 21.9346 10.0495 21.8097C9.50769 21.7025 9.15537 21.1764 9.26255 20.6346Z" fill="#0000CC"/>
</svg>
