<svg width="24" height="24" viewBox="0 0 24 24" fill="none" xmlns="http://www.w3.org/2000/svg">
<path d="M16.5 10.5C16.5 11.0232 16.3852 11.5195 16.1795 11.9652L20.8584 16.6442C21.5875 15.2565 22 13.6764 22 12C22 6.47715 17.5228 2 12 2C10.3236 2 8.74353 2.41251 7.35578 3.14157L11.2142 7H13C14.933 7 16.5 8.567 16.5 10.5Z" fill="#0000CC"/>
<path fill-rule="evenodd" clip-rule="evenodd" d="M4.25705 5.67127C2.84637 7.39514 2 9.59873 2 12C2 17.5228 6.47715 22 12 22C14.4013 22 16.6049 21.1536 18.3287 19.7429L20.2929 21.7071C20.6834 22.0976 21.3166 22.0976 21.7071 21.7071C22.0976 21.3166 22.0976 20.6834 21.7071 20.2929L3.70711 2.29289C3.31658 1.90237 2.68342 1.90237 2.29289 2.29289C1.90237 2.68342 1.90237 3.31658 2.29289 3.70711L4.25705 5.67127ZM8.5 9.91421L12.5858 14H10.5V16C10.5 16.5523 10.0523 17 9.5 17C8.94772 17 8.5 16.5523 8.5 16V9.91421Z" fill="#0000CC"/>
</svg>
