<svg width="24" height="24" viewBox="0 0 24 24" fill="none" xmlns="http://www.w3.org/2000/svg">
<path d="M13.9447 3.21066C13.3185 3.07272 12.6677 3 12 3C7.02944 3 3 7.02944 3 12C3 16.9706 7.02944 21 12 21C16.9706 21 21 16.9706 21 12C21 10.835 20.7787 9.72179 20.3758 8.69999C19.9038 9.15133 19.3137 9.49604 18.581 9.6437C17.6206 9.83727 15.9844 10.0901 14.5417 9.96797C12.7073 9.8127 11.6678 7.99248 12.0958 6.30352C12.3832 5.16962 12.9656 4.00132 13.9447 3.21066Z" fill="#0000CC"/>
<path d="M15.6421 3.36637C16.5269 3.07861 17.8096 2.90873 18.9518 3.05266C20.3491 3.22874 21.1123 4.58023 20.8112 5.82397C20.5357 6.96168 19.8103 8.42383 18.2208 8.73315C17.4749 8.87832 16.204 9.06793 15.0835 8.97635C13.6587 8.8599 12.8514 7.49476 13.1838 6.22806C13.4931 5.04958 14.2425 3.82155 15.6421 3.36637Z" fill="#0000CC"/>
</svg>
