<svg width="24" height="24" viewBox="0 0 24 24" fill="none" xmlns="http://www.w3.org/2000/svg">
<path fill-rule="evenodd" clip-rule="evenodd" d="M2.50386 6.13168L9.49946 2.1342C9.5952 2.07876 9.69661 2.04096 9.7998 2.0199C10.0965 1.95924 10.4061 2.03741 10.6383 2.22975C10.7193 2.29693 10.791 2.37804 10.8493 2.47203L21.2272 18.9823C21.8542 19.9798 21.6114 21.2914 20.6689 21.9983C19.6291 22.7781 18.1478 22.5243 17.4268 21.4429L15.168 18.0546C14.9968 17.7979 14.9537 17.4765 15.0513 17.1837L15.3967 16.1477L14.668 15.0546C14.6449 15.02 14.6242 14.9845 14.606 14.9482L9.49614 17.8682C9.02382 18.1381 8.42239 17.9809 8.14251 17.5144L2.14251 7.51442C2.00416 7.28384 1.96451 7.00725 2.0325 6.74709C2.10049 6.48692 2.27039 6.2651 2.50386 6.13168ZM10 6.99994C10 7.55222 9.55228 7.99994 9 7.99994C8.44772 7.99994 8 7.55222 8 6.99994C8 6.44765 8.44772 5.99994 9 5.99994C9.55228 5.99994 10 6.44765 10 6.99994ZM17.3589 16.5861L17.1035 17.3522L19.0911 20.3335C19.1751 20.4596 19.3478 20.4892 19.469 20.3983C19.5789 20.3159 19.6072 20.163 19.5341 20.0467L17.3589 16.5861Z" fill="#0000CC"/>
</svg>
