<svg width="24" height="24" viewBox="0 0 24 24" fill="none" xmlns="http://www.w3.org/2000/svg">
<path fill-rule="evenodd" clip-rule="evenodd" d="M12 2C6.47715 2 2 6.47715 2 12C2 17.5228 6.47715 22 12 22C17.5228 22 22 17.5228 22 12C22 6.47715 17.5228 2 12 2ZM12.8575 11.4856C12.6262 11.1002 12.1662 10.9164 11.7331 11.0364C11.2999 11.1564 11 11.5506 11 12.0001V17.0001C11 17.5524 11.4477 18.0001 12 18.0001C12.5523 18.0001 13 17.5524 13 17.0001V15.3663C13.3043 15.5416 13.692 15.5511 14.0145 15.3576C14.4881 15.0734 14.6416 14.4592 14.3575 13.9856L12.8575 11.4856Z" fill="#0000CC"/>
</svg>
