<svg width="24" height="24" viewBox="0 0 24 24" fill="none" xmlns="http://www.w3.org/2000/svg">
<path d="M3.70711 2.29289C3.31658 1.90237 2.68342 1.90237 2.29289 2.29289C1.90237 2.68342 1.90237 3.31658 2.29289 3.70711L2.83579 4.25L2.29289 4.79289C1.90237 5.18342 1.90237 5.81658 2.29289 6.20711C2.68342 6.59763 3.31658 6.59763 3.70711 6.20711L4.25 5.66421L5.19527 6.60948C3.82757 8.18806 3 10.2474 3 12.5C3 17.4706 7.02944 21.5 12 21.5C14.2526 21.5 16.3119 20.6724 17.8905 19.3047L20.2929 21.7071C20.6834 22.0976 21.3166 22.0976 21.7071 21.7071C22.0976 21.3166 22.0976 20.6834 21.7071 20.2929L3.70711 2.29289Z" fill="#0000CC"/>
<path d="M18.2929 2.79289C18.6834 2.40237 19.3166 2.40237 19.7071 2.79289L21.7071 4.79289C22.0976 5.18342 22.0976 5.81658 21.7071 6.20711C21.3166 6.59763 20.6834 6.59763 20.2929 6.20711L18.2929 4.20711C17.9024 3.81658 17.9024 3.18342 18.2929 2.79289Z" fill="#0000CC"/>
<path d="M20.2763 16.0418C20.7421 14.9548 21 13.7575 21 12.5C21 7.52944 16.9706 3.5 12 3.5C10.7425 3.5 9.54524 3.7579 8.45822 4.22369L20.2763 16.0418Z" fill="#0000CC"/>
</svg>
