<svg width="24" height="24" viewBox="0 0 24 24" fill="none" xmlns="http://www.w3.org/2000/svg">
<path fill-rule="evenodd" clip-rule="evenodd" d="M12 2C6.47715 2 2 6.47715 2 12C2 17.5228 6.47715 22 12 22C17.5228 22 22 17.5228 22 12C22 6.47715 17.5228 2 12 2ZM13 7C13 6.44772 12.5523 6 12 6C11.4477 6 11 6.44772 11 7V12C11 12.4495 11.2999 12.8437 11.7331 12.9637C12.1662 13.0837 12.6262 12.8999 12.8575 12.5145L14.3575 10.0145C14.6416 9.54092 14.4881 8.92666 14.0145 8.64251C13.692 8.44902 13.3043 8.45849 13 8.63376V7Z" fill="#0000CC"/>
</svg>
