<svg width="24" height="24" viewBox="0 0 24 24" fill="none" xmlns="http://www.w3.org/2000/svg">
<path fill-rule="evenodd" clip-rule="evenodd" d="M12 2C6.47715 2 2 6.47715 2 12C2 17.5228 6.47715 22 12 22C17.5228 22 22 17.5228 22 12C22 6.47715 17.5228 2 12 2ZM13.0002 12C13.0002 11.6397 12.8064 11.3073 12.4928 11.1298C12.1793 10.9523 11.7946 10.9571 11.4857 11.1425L8.98566 12.6425C8.51207 12.9267 8.35851 13.5409 8.64266 14.0145C8.92681 14.4881 9.54107 14.6416 10.0146 14.3575L11.0002 13.7662V17C11.0002 17.5523 11.4479 18 12.0002 18C12.5524 18 13.0002 17.5523 13.0002 17V12Z" fill="#0000CC"/>
</svg>
