<svg width="24" height="24" viewBox="0 0 24 24" fill="none" xmlns="http://www.w3.org/2000/svg">
<path fill-rule="evenodd" clip-rule="evenodd" d="M12 2C6.47715 2 2 6.47715 2 12C2 17.5228 6.47715 22 12 22C17.5228 22 22 17.5228 22 12C22 6.47715 17.5228 2 12 2ZM10.0146 9.64266C9.54107 9.35851 8.92681 9.51207 8.64266 9.98566C8.35851 10.4592 8.51207 11.0735 8.98566 11.3576L11.0002 12.5663V17.0002C11.0002 17.5524 11.4479 18.0002 12.0002 18.0002C12.5524 18.0002 13.0002 17.5524 13.0002 17.0002V12.0002C13.0002 11.6489 12.8159 11.3234 12.5146 11.1427L10.0146 9.64266Z" fill="#0000CC"/>
</svg>
