<svg width="24" height="24" viewBox="0 0 24 24" fill="none" xmlns="http://www.w3.org/2000/svg">
<path fill-rule="evenodd" clip-rule="evenodd" d="M12 2C7.58172 2 4 5.58172 4 10C4 14.4183 7.58172 18 12 18C16.4183 18 20 14.4183 20 10C20 5.58172 16.4183 2 12 2ZM12 6C12.5523 6 13 6.44772 13 7V9.58579L14.7071 11.2929C15.0976 11.6834 15.0976 12.3166 14.7071 12.7071C14.3166 13.0976 13.6834 13.0976 13.2929 12.7071L11.2929 10.7071C11.1054 10.5196 11 10.2652 11 10V7C11 6.44772 11.4477 6 12 6Z" fill="#0000CC"/>
<path d="M12 19.0002C15.4829 19.0002 18.5038 17.0218 20 14.1274V15.6002C20 17.8404 20 18.9606 19.564 19.8162C19.1805 20.5688 18.5686 21.1808 17.816 21.5643C16.9603 22.0002 15.8402 22.0002 13.6 22.0002H10.4C8.15979 22.0002 7.03969 22.0002 6.18404 21.5643C5.43139 21.1808 4.81947 20.5688 4.43597 19.8162C4 18.9606 4 17.8404 4 15.6002V14.1274C5.49623 17.0218 8.51707 19.0002 12 19.0002Z" fill="#0000CC"/>
</svg>
