<svg width="24" height="24" viewBox="0 0 24 24" fill="none" xmlns="http://www.w3.org/2000/svg">
<path fill-rule="evenodd" clip-rule="evenodd" d="M12 2C6.47715 2 2 6.47715 2 12C2 17.5228 6.47715 22 12 22C17.5228 22 22 17.5228 22 12C22 6.47715 17.5228 2 12 2ZM13 7C13 6.44772 12.5523 6 12 6C11.4477 6 11 6.44772 11 7V12C11 12.3513 11.1843 12.6768 11.4855 12.8575L13.9855 14.3575C14.4591 14.6416 15.0733 14.4881 15.3575 14.0145C15.6416 13.5409 15.4881 12.9267 15.0145 12.6425L13 11.4338V7Z" fill="#0000CC"/>
</svg>
