<svg width="24" height="24" viewBox="0 0 24 24" fill="none" xmlns="http://www.w3.org/2000/svg">
<path fill-rule="evenodd" clip-rule="evenodd" d="M12 2C6.47715 2 2 6.47715 2 12C2 17.5228 6.47715 22 12 22C17.5228 22 22 17.5228 22 12C22 6.47715 17.5228 2 12 2ZM11.3576 8.98541C11.0735 8.51183 10.4592 8.35827 9.98566 8.64241C9.51207 8.92656 9.35851 9.54082 9.64266 10.0144L11.0002 12.2769V16.9999C11.0002 17.5522 11.4479 17.9999 12.0002 17.9999C12.5524 17.9999 13.0002 17.5522 13.0002 16.9999V11.9999C13.0002 11.8187 12.9509 11.6408 12.8576 11.4854L11.3576 8.98541Z" fill="#0000CC"/>
</svg>
