<svg width="24" height="24" viewBox="0 0 24 24" fill="none" xmlns="http://www.w3.org/2000/svg">
<path d="M6.80892 5.62107C7.90376 3.51707 10.1141 2 12.6893 2C16.0089 2 18.7677 4.42894 19.2384 7.60789C20.9071 8.58575 22 10.4783 22 12.4969C22 14.6351 20.781 16.489 19 17.4V12C19 10.3431 17.6569 9 16 9C14.9377 9 14.0044 9.55209 13.4714 10.385C13.0366 10.1399 12.5347 10 12 10C11.4653 10 10.9634 10.1399 10.5286 10.385C9.99556 9.55209 9.06226 9 8 9C6.34315 9 5 10.3431 5 12V17.0304C3.19979 15.9083 2 13.921 2 11.6493C2 8.87702 3.91761 6.33361 6.80892 5.62107Z" fill="#0000CC"/>
<path d="M9 12C9 11.4477 8.55228 11 8 11C7.44772 11 7 11.4477 7 12V14C7 14.5523 7.44772 15 8 15C8.55228 15 9 14.5523 9 14V12Z" fill="#0000CC"/>
<path d="M17 12C17 11.4477 16.5523 11 16 11C15.4477 11 15 11.4477 15 12V14C15 14.5523 15.4477 15 16 15C16.5523 15 17 14.5523 17 14V12Z" fill="#0000CC"/>
<path d="M13 13C13 12.4477 12.5523 12 12 12C11.4477 12 11 12.4477 11 13V15C11 15.5523 11.4477 16 12 16C12.5523 16 13 15.5523 13 15V13Z" fill="#0000CC"/>
<path d="M9 18C9 17.4477 8.55228 17 8 17C7.44772 17 7 17.4477 7 18V20C7 20.5523 7.44772 21 8 21C8.55228 21 9 20.5523 9 20V18Z" fill="#0000CC"/>
<path d="M17 18C17 17.4477 16.5523 17 16 17C15.4477 17 15 17.4477 15 18V20C15 20.5523 15.4477 21 16 21C16.5523 21 17 20.5523 17 20V18Z" fill="#0000CC"/>
<path d="M13 19C13 18.4477 12.5523 18 12 18C11.4477 18 11 18.4477 11 19V21C11 21.5523 11.4477 22 12 22C12.5523 22 13 21.5523 13 21V19Z" fill="#0000CC"/>
</svg>
