<svg width="24" height="24" viewBox="0 0 24 24" fill="none" xmlns="http://www.w3.org/2000/svg">
<path d="M10.25 12.75C10.25 11.9216 10.9216 11.25 11.75 11.25C12.5784 11.25 13.25 11.9216 13.25 12.75C13.25 13.1645 13.0832 13.5381 12.8107 13.8107C12.5381 14.0832 12.1645 14.25 11.75 14.25C10.9216 14.25 10.25 13.5784 10.25 12.75Z" fill="#0000CC"/>
<path fill-rule="evenodd" clip-rule="evenodd" d="M6.80892 7.62107C7.90376 5.51707 10.1141 4 12.6893 4C16.0089 4 18.7677 6.42894 19.2384 9.60789C20.9071 10.5857 22 12.4783 22 14.4969C22 17.5355 19.5382 20 16.5 20L8.4 20C4.87404 20 2 17.1653 2 13.6493C2 10.877 3.91761 8.33361 6.80892 7.62107ZM11.75 9.25C9.817 9.25 8.25 10.817 8.25 12.75C8.25 14.683 9.817 16.25 11.75 16.25C12.3524 16.25 12.9198 16.0973 13.4149 15.8291L14.0429 16.4571C14.4334 16.8476 15.0666 16.8476 15.4571 16.4571C15.8476 16.0666 15.8476 15.4334 15.4571 15.0429L14.8291 14.4149C15.0973 13.9198 15.25 13.3524 15.25 12.75C15.25 10.817 13.683 9.25 11.75 9.25Z" fill="#0000CC"/>
</svg>
