<svg width="24" height="24" viewBox="0 0 24 24" fill="none" xmlns="http://www.w3.org/2000/svg">
<path fill-rule="evenodd" clip-rule="evenodd" d="M6.80892 7.62107C7.90376 5.51707 10.1141 4 12.6893 4C16.0089 4 18.7677 6.42894 19.2384 9.60789C20.9071 10.5857 22 12.4783 22 14.4969C22 17.5355 19.5382 20 16.5 20L8.4 20C4.87404 20 2 17.1653 2 13.6493C2 10.877 3.91761 8.33361 6.80892 7.62107ZM12.4673 9.25C12.0027 9.25 11.6098 9.56774 11.4987 9.99926C11.361 10.5341 10.8159 10.8561 10.281 10.7184C9.74616 10.5808 9.42417 10.0356 9.56183 9.50074C9.89481 8.20704 11.068 7.25 12.4673 7.25C14.1241 7.25 15.4673 8.59315 15.4673 10.25C15.4673 11.1814 15.0128 11.7993 14.5367 12.2587C14.3439 12.4449 14.1243 12.6269 13.9269 12.7905L13.8412 12.8616C13.6107 13.0533 13.3902 13.2413 13.1744 13.4571C12.7839 13.8476 12.1507 13.8476 11.7602 13.4571C11.3697 13.0666 11.3697 12.4334 11.7602 12.0429C12.0443 11.7587 12.3238 11.5223 12.5622 11.324L12.6537 11.248C12.8582 11.0782 13.0135 10.9494 13.1478 10.8197C13.4218 10.5553 13.4673 10.4232 13.4673 10.25C13.4673 9.69772 13.0195 9.25 12.4673 9.25ZM13.47 15.75C13.47 16.3023 13.0223 16.75 12.47 16.75C11.9177 16.75 11.47 16.3023 11.47 15.75C11.47 15.1977 11.9177 14.75 12.47 14.75C13.0223 14.75 13.47 15.1977 13.47 15.75Z" fill="#0000CC"/>
</svg>
