<svg width="24" height="24" viewBox="0 0 24 24" fill="none" xmlns="http://www.w3.org/2000/svg">
<path d="M21 4C18.9134 4 16.996 4.62366 15.446 5.6702C14.6857 5.34652 13.8688 5.1317 13.0173 5.04427C15.0801 3.15442 17.9038 2 21 2C21.5523 2 22 2.44772 22 3C22 3.55228 21.5523 4 21 4Z" fill="#0000CC"/>
<path d="M18.1642 7.53311C19.0169 7.19338 19.9771 7 21 7C21.5522 7 22 6.55228 22 6C22 5.44772 21.5522 5 21 5C19.3218 5 17.7425 5.419 16.4076 6.15483C17.0541 6.53467 17.6452 6.99883 18.1642 7.53311Z" fill="#0000CC"/>
<path d="M19.8734 10.1503C20.2144 10.055 20.5927 10 20.9999 10C21.5522 10 21.9999 9.55228 21.9999 9C21.9999 8.44772 21.5522 8 20.9999 8C20.2563 8 19.5332 8.13008 18.8776 8.37333C19.2798 8.9173 19.6159 9.51314 19.8734 10.1503Z" fill="#0000CC"/>
<path d="M11.8296 7.00822C11.9361 7.00276 12.0433 7 12.151 7C15.287 7 17.9188 9.25002 18.3854 12.2293C19.9621 13.1514 21 14.9217 21 16.8185C21 19.6954 18.6341 22 15.75 22L8.1 22C4.75585 22 2 19.3523 2 16.0315C2 13.4191 3.83033 11.043 6.56478 10.3692C7.56966 8.49107 9.53191 7.12597 11.8296 7.00822Z" fill="#0000CC"/>
</svg>
