<svg width="24" height="24" viewBox="0 0 24 24" fill="none" xmlns="http://www.w3.org/2000/svg">
<path d="M4 3C3.44772 3 3 3.44772 3 4V20C3 20.5523 3.44772 21 4 21H20C20.5523 21 21 20.5523 21 20V15.3542C21 14.9597 20.7682 14.6022 20.4081 14.4412C20.048 14.2803 19.627 14.346 19.3331 14.609C18.7132 15.1638 17.8971 15.5 17 15.5C15.067 15.5 13.5 13.933 13.5 12C13.5 10.067 15.067 8.5 17 8.5C17.8971 8.5 18.7132 8.83617 19.3331 9.39097C19.627 9.65401 20.048 9.71974 20.4081 9.55878C20.7682 9.39782 21 9.04025 21 8.64584V4C21 3.44772 20.5523 3 20 3H4Z" fill="#0000CC"/>
</svg>
