<svg width="24" height="24" viewBox="0 0 24 24" fill="none" xmlns="http://www.w3.org/2000/svg">
<path fill-rule="evenodd" clip-rule="evenodd" d="M2 5.5C2 3.567 3.567 2 5.5 2C7.433 2 9 3.567 9 5.5C9 7.08551 7.94575 8.42478 6.5 8.85506C6.50007 9.40043 6.50152 9.75795 6.52393 10.0322C6.54612 10.3038 6.5838 10.4045 6.60899 10.454C6.70487 10.6422 6.85785 10.7951 7.04601 10.891C7.09545 10.9162 7.19617 10.9539 7.46784 10.9761C7.75117 10.9992 8.12345 11 8.7 11H15.3C15.8766 11 16.2488 10.9992 16.5322 10.9761C16.8038 10.9539 16.9045 10.9162 16.954 10.891C17.1422 10.7951 17.2951 10.6422 17.391 10.454C17.4162 10.4045 17.4539 10.3038 17.4761 10.0322C17.4985 9.75795 17.4999 9.40043 17.5 8.85506C16.0543 8.42478 15 7.08551 15 5.5C15 3.567 16.567 2 18.5 2C20.433 2 22 3.567 22 5.5C22 7.08551 20.9457 8.42479 19.5 8.85506C19.5 9.3752 19.4997 9.82437 19.4694 10.195C19.4371 10.5904 19.3658 10.9836 19.173 11.362C18.8854 11.9265 18.4265 12.3854 17.862 12.673C17.4836 12.8658 17.0904 12.9371 16.695 12.9694C16.3205 13 15.8657 13 15.3385 13H13V15.1449C14.4457 15.5752 15.5 16.9145 15.5 18.5C15.5 20.433 13.933 22 12 22C10.067 22 8.5 20.433 8.5 18.5C8.5 16.9145 9.55426 15.5752 11 15.1449V13H8.66148C8.13432 13 7.67955 13 7.30497 12.9694C6.90963 12.9371 6.51641 12.8658 6.13803 12.673C5.57354 12.3854 5.1146 11.9265 4.82698 11.362C4.63419 10.9836 4.56287 10.5904 4.53057 10.195C4.50029 9.82437 4.49998 9.3752 4.5 8.85506C3.05425 8.42479 2 7.08551 2 5.5Z" fill="#0000CC"/>
</svg>
