<svg width="24" height="24" viewBox="0 0 24 24" fill="none" xmlns="http://www.w3.org/2000/svg">
<path fill-rule="evenodd" clip-rule="evenodd" d="M2 5.5C2 3.567 3.567 2 5.5 2C7.433 2 9 3.567 9 5.5C9 7.08551 7.94574 8.42479 6.5 8.85506V15.1449C7.94574 15.5752 9 16.9145 9 18.5C9 20.433 7.433 22 5.5 22C3.567 22 2 20.433 2 18.5C2 16.9145 3.05426 15.5752 4.5 15.1449V8.85506C3.05426 8.42479 2 7.08551 2 5.5ZM15.2071 2.29289C15.5976 2.68342 15.5976 3.31658 15.2071 3.70711L14.4142 4.5L15.3385 4.5C15.8657 4.49998 16.3205 4.49997 16.695 4.53057C17.0904 4.56287 17.4836 4.63419 17.862 4.82698C18.4265 5.1146 18.8854 5.57354 19.173 6.13803C19.3658 6.51641 19.4371 6.90963 19.4694 7.30497C19.5 7.67954 19.5 8.13429 19.5 8.66143V15.1449C20.9457 15.5752 22 16.9145 22 18.5C22 20.433 20.433 22 18.5 22C16.567 22 15 20.433 15 18.5C15 16.9145 16.0543 15.5752 17.5 15.1449V8.7C17.5 8.12345 17.4992 7.75117 17.4761 7.46784C17.4539 7.19617 17.4162 7.09545 17.391 7.04601C17.2951 6.85785 17.1422 6.70487 16.954 6.60899C16.9045 6.5838 16.8038 6.54612 16.5322 6.52393C16.2488 6.50078 15.8766 6.5 15.3 6.5H14.4142L15.2071 7.29289C15.5976 7.68342 15.5976 8.31658 15.2071 8.70711C14.8166 9.09763 14.1834 9.09763 13.7929 8.70711L11.2929 6.20711C10.9024 5.81658 10.9024 5.18342 11.2929 4.79289L13.7929 2.29289C14.1834 1.90237 14.8166 1.90237 15.2071 2.29289Z" fill="#0000CC"/>
</svg>
