<svg width="24" height="24" viewBox="0 0 24 24" fill="none" xmlns="http://www.w3.org/2000/svg">
<path fill-rule="evenodd" clip-rule="evenodd" d="M11.2191 2.3753C11.4089 2.13809 11.6962 2 12 2H18C18.3038 2 18.5911 2.13809 18.7809 2.3753L22.7809 7.37531C22.9876 7.63375 23.0531 7.97775 22.9558 8.29409L18.9558 21.2941C18.8267 21.7137 18.439 22 18 22H12C11.561 22 11.1733 21.7137 11.0442 21.2941L10.6019 19.8567L10.4611 20.3017C10.3295 20.7175 9.94375 21 9.5077 21H5.20001C4.7505 21 4.35624 20.7001 4.23628 20.2669L1.03628 8.71132C0.955379 8.41919 1.01136 8.10614 1.18847 7.86014L4.38847 3.4157C4.5764 3.15469 4.87839 3 5.20001 3H9.50001C9.80648 3 10.096 3.14053 10.2856 3.38131L10.3495 3.46238L11.2191 2.3753ZM8.7753 19L9.56783 16.4958L7.04423 8.29409C6.94689 7.97775 7.01238 7.63375 7.21914 7.37531L9.06661 5.06597L9.01465 5H5.71224L3.0917 8.63964L5.96072 19H8.7753ZM15 5C15.5523 5 16 5.44772 16 6V8H18C18.5523 8 19 8.44772 19 9C19 9.55228 18.5523 10 18 10H16V16C16 16.5523 15.5523 17 15 17C14.4477 17 14 16.5523 14 16V10H12C11.4477 10 11 9.55228 11 9C11 8.44772 11.4477 8 12 8H14V6C14 5.44772 14.4477 5 15 5Z" fill="#0000CC"/>
</svg>
