<svg width="24" height="24" viewBox="0 0 24 24" fill="none" xmlns="http://www.w3.org/2000/svg">
<path fill-rule="evenodd" clip-rule="evenodd" d="M8 4C8.55228 4 9 4.44772 9 5V10C9 10.5523 8.55228 11 8 11H3C2.44772 11 2 10.5523 2 10C2 9.44772 2.44772 9 3 9H7V5C7 4.44772 7.44772 4 8 4ZM16 4C16.5523 4 17 4.44772 17 5V9H21C21.5523 9 22 9.44772 22 10C22 10.5523 21.5523 11 21 11H16C15.4477 11 15 10.5523 15 10V5C15 4.44772 15.4477 4 16 4ZM2 14C2 13.4477 2.44772 13 3 13H8C8.55228 13 9 13.4477 9 14V19C9 19.5523 8.55228 20 8 20C7.44772 20 7 19.5523 7 19V15H3C2.44772 15 2 14.5523 2 14ZM15 14C15 13.4477 15.4477 13 16 13H21C21.5523 13 22 13.4477 22 14C22 14.5523 21.5523 15 21 15H17V19C17 19.5523 16.5523 20 16 20C15.4477 20 15 19.5523 15 19V14Z" fill="#0000CC"/>
</svg>
