<svg width="24" height="24" viewBox="0 0 24 24" fill="none" xmlns="http://www.w3.org/2000/svg">
<path d="M7 2H6.7587C5.95374 1.99999 5.28937 1.99998 4.74818 2.04419C4.18608 2.09012 3.66937 2.18868 3.18404 2.43598C2.43139 2.81947 1.81947 3.43139 1.43598 4.18404C1.18868 4.66937 1.09012 5.18608 1.04419 5.74818C0.999978 6.28937 0.999988 6.95372 1 7.75869V8C1 8.55229 1.44772 9 2 9C2.55229 9 3 8.55229 3 8V7.8C3 6.94342 3.00078 6.36113 3.03755 5.91104C3.07337 5.47262 3.1383 5.24842 3.21799 5.09202C3.40974 4.7157 3.7157 4.40973 4.09202 4.21799C4.24842 4.1383 4.47262 4.07337 4.91104 4.03755C5.36113 4.00078 5.94342 4 6.8 4H7C7.55229 4 8 3.55229 8 3C8 2.44772 7.55229 2 7 2Z" fill="#0000CC"/>
<path d="M17.2 4C18.0566 4 18.6389 4.00078 19.089 4.03755C19.5274 4.07337 19.7516 4.1383 19.908 4.21799C20.2843 4.40973 20.5903 4.7157 20.782 5.09202C20.8617 5.24842 20.9266 5.47262 20.9624 5.91104C20.9992 6.36113 21 6.94342 21 7.8V8C21 8.55229 21.4477 9 22 9C22.5523 9 23 8.55229 23 8V7.75868C23 6.95372 23 6.28937 22.9558 5.74818C22.9099 5.18608 22.8113 4.66937 22.564 4.18404C22.1805 3.43139 21.5686 2.81947 20.816 2.43598C20.3306 2.18868 19.8139 2.09012 19.2518 2.04419C18.7106 1.99998 18.0463 1.99999 17.2413 2H17C16.4477 2 16 2.44772 16 3C16 3.55229 16.4477 4 17 4H17.2Z" fill="#0000CC"/>
<path d="M14.8385 6H9.16146C8.63431 5.99998 8.17955 5.99997 7.80497 6.03057C7.40963 6.06287 7.01641 6.13419 6.63803 6.32698C6.07354 6.6146 5.6146 7.07354 5.32698 7.63803C5.13419 8.01641 5.06287 8.40963 5.03057 8.80497C5.00314 9.14075 5.00031 9.54097 5.00003 10H19C18.9997 9.54097 18.9969 9.14075 18.9694 8.80497C18.9371 8.40963 18.8658 8.01641 18.673 7.63803C18.3854 7.07354 17.9265 6.6146 17.362 6.32698C16.9836 6.13419 16.5904 6.06287 16.195 6.03057C15.8205 5.99997 15.3657 5.99998 14.8385 6Z" fill="#0000CC"/>
<path d="M19 12H5V13.8385C4.99998 14.3657 4.99997 14.8205 5.03057 15.195C5.06287 15.5904 5.13419 15.9836 5.32698 16.362C5.6146 16.9265 6.07354 17.3854 6.63803 17.673C7.01641 17.8658 7.40963 17.9371 7.80497 17.9694C8.17952 18 8.63425 18 9.16136 18H14.8385C15.3656 18 15.8205 18 16.195 17.9694C16.5904 17.9371 16.9836 17.8658 17.362 17.673C17.9265 17.3854 18.3854 16.9265 18.673 16.362C18.8658 15.9836 18.9371 15.5904 18.9694 15.195C19 14.8205 19 14.3657 19 13.8386V12Z" fill="#0000CC"/>
<path d="M3 16C3 15.4477 2.55229 15 2 15C1.44772 15 1 15.4477 1 16V16.2413C0.999988 17.0463 0.999978 17.7106 1.04419 18.2518C1.09012 18.8139 1.18868 19.3306 1.43598 19.816C1.81947 20.5686 2.43139 21.1805 3.18404 21.564C3.66937 21.8113 4.18608 21.9099 4.74818 21.9558C5.28937 22 5.95372 22 6.75868 22H7C7.55229 22 8 21.5523 8 21C8 20.4477 7.55229 20 7 20H6.8C5.94342 20 5.36113 19.9992 4.91104 19.9624C4.47262 19.9266 4.24842 19.8617 4.09202 19.782C3.7157 19.5903 3.40973 19.2843 3.21799 18.908C3.1383 18.7516 3.07337 18.5274 3.03755 18.089C3.00078 17.6389 3 17.0566 3 16.2V16Z" fill="#0000CC"/>
<path d="M23 16C23 15.4477 22.5523 15 22 15C21.4477 15 21 15.4477 21 16V16.2C21 17.0566 20.9992 17.6389 20.9624 18.089C20.9266 18.5274 20.8617 18.7516 20.782 18.908C20.5903 19.2843 20.2843 19.5903 19.908 19.782C19.7516 19.8617 19.5274 19.9266 19.089 19.9624C18.6389 19.9992 18.0566 20 17.2 20H17C16.4477 20 16 20.4477 16 21C16 21.5523 16.4477 22 17 22H17.2413C18.0463 22 18.7106 22 19.2518 21.9558C19.8139 21.9099 20.3306 21.8113 20.816 21.564C21.5686 21.1805 22.1805 20.5686 22.564 19.816C22.8113 19.3306 22.9099 18.8139 22.9558 18.2518C23 17.7106 23 17.0463 23 16.2413V16Z" fill="#0000CC"/>
</svg>
