<svg width="24" height="24" viewBox="0 0 24 24" fill="none" xmlns="http://www.w3.org/2000/svg">
<path d="M17.8385 4H6.16146C5.63434 3.99998 5.17953 3.99997 4.80498 4.03057C4.40963 4.06287 4.01641 4.13419 3.63803 4.32698C3.07355 4.6146 2.6146 5.07355 2.32698 5.63803C2.13419 6.01641 2.06287 6.40963 2.03057 6.80498C2.02544 6.86774 2.02118 6.93277 2.01762 7H21.9824C21.9788 6.93277 21.9746 6.86774 21.9694 6.80498C21.9371 6.40963 21.8658 6.01641 21.673 5.63803C21.3854 5.07355 20.9265 4.6146 20.362 4.32698C19.9836 4.13419 19.5904 4.06287 19.195 4.03057C18.8205 3.99997 18.3657 3.99998 17.8385 4Z" fill="#0000CC"/>
<path d="M22 8H2V10H22V8Z" fill="#0000CC"/>
<path fill-rule="evenodd" clip-rule="evenodd" d="M2 11H22V15.8386C22 16.3657 22 16.8205 21.9694 17.195C21.9371 17.5904 21.8658 17.9836 21.673 18.362C21.3854 18.9265 20.9265 19.3854 20.362 19.673C19.9836 19.8658 19.5904 19.9371 19.195 19.9694C18.8205 20 18.3657 20 17.8386 20H6.16136C5.63428 20 5.17951 20 4.80498 19.9694C4.40963 19.9371 4.01641 19.8658 3.63803 19.673C3.07355 19.3854 2.6146 18.9265 2.32698 18.362C2.13419 17.9836 2.06287 17.5904 2.03057 17.195C1.99997 16.8205 1.99998 16.3657 2 15.8386V11ZM5 15C4.44772 15 4 15.4477 4 16C4 16.5523 4.44772 17 5 17H7C7.55229 17 8 16.5523 8 16C8 15.4477 7.55229 15 7 15H5ZM11 15C10.4477 15 10 15.4477 10 16C10 16.5523 10.4477 17 11 17H15C15.5523 17 16 16.5523 16 16C16 15.4477 15.5523 15 15 15H11Z" fill="#0000CC"/>
</svg>
