<svg width="24" height="24" viewBox="0 0 24 24" fill="none" xmlns="http://www.w3.org/2000/svg">
<path d="M21.7057 3.70711C22.0962 3.31658 22.0962 2.68342 21.7057 2.29289C21.3151 1.90237 20.682 1.90237 20.2914 2.29289L16.4985 6.08585L16.0542 5.64151C14.9231 4.51039 13.1039 4.46581 11.9188 5.53924L10.7574 6.574L11.2867 7.95851C11.2935 7.97636 11.2998 7.99429 11.3055 8.01227L12.5825 11.3528L17.6086 13.0494L18.4621 12.0768C19.5326 10.8917 19.4872 9.07476 18.3572 7.94468L17.9126 7.50012L21.7057 3.70711Z" fill="#0000CC"/>
<path d="M16.1794 14.6778L11.4967 13.0972C11.2142 13.0018 10.9889 12.7853 10.8824 12.5068L9.41683 8.67268C9.41001 8.65483 9.40373 8.63691 9.39799 8.61892L9.16026 7.99702L2.87617 13.5959L2.86876 13.6026C2.33302 14.0897 2.03036 14.7607 1.99884 15.4546C1.9828 15.8077 2.03689 16.1671 2.16579 16.5109C2.96102 18.6323 4.79655 20.6515 6.89061 21.582L7.27302 21.7519C7.67678 21.9313 8.10619 22.0119 8.52912 21.9996C9.29528 21.9773 10.042 21.6498 10.5823 21.0555L10.5939 21.0424L16.1794 14.6778Z" fill="#0000CC"/>
</svg>
