<svg width="24" height="24" viewBox="0 0 24 24" fill="none" xmlns="http://www.w3.org/2000/svg">
<path fill-rule="evenodd" clip-rule="evenodd" d="M6 2C6.55228 2 7 2.44772 7 3V14.8C7 15.1153 7.00023 15.3696 7.00423 15.5816L15.5816 7.00423C15.3696 7.00023 15.1153 7 14.8 7H9C8.44772 7 8 6.55228 8 6C8 5.44772 8.44772 5 9 5L14.8385 5C15.3657 4.99998 15.8205 4.99997 16.195 5.03057C16.5663 5.0609 16.9357 5.12565 17.2927 5.2931L20.2929 2.29289C20.6834 1.90237 21.3166 1.90237 21.7071 2.29289C22.0976 2.68342 22.0976 3.31658 21.7071 3.70711L18.7069 6.70731C18.8744 7.0643 18.9391 7.4337 18.9694 7.80497C19 8.17954 19 8.63429 19 9.16143V17H21C21.5523 17 22 17.4477 22 18C22 18.5523 21.5523 19 21 19H19V21C19 21.5523 18.5523 22 18 22C17.4477 22 17 21.5523 17 21V9.2C17 8.88467 16.9998 8.63044 16.9958 8.41845L8.41844 16.9958C8.63044 16.9998 8.88466 17 9.2 17H15C15.5523 17 16 17.4477 16 18C16 18.5523 15.5523 19 15 19H9.16143C8.63429 19 8.17954 19 7.80497 18.9694C7.40963 18.9371 7.01641 18.8658 6.63803 18.673C6.07354 18.3854 5.6146 17.9265 5.32698 17.362C5.13419 16.9836 5.06287 16.5904 5.03057 16.195C4.99997 15.8205 4.99998 15.3657 5 14.8385L5 7H3C2.44772 7 2 6.55228 2 6C2 5.44772 2.44772 5 3 5H5V3C5 2.44772 5.44772 2 6 2Z" fill="#0000CC"/>
</svg>
