<svg width="24" height="24" viewBox="0 0 24 24" fill="none" xmlns="http://www.w3.org/2000/svg">
<path fill-rule="evenodd" clip-rule="evenodd" d="M13.6154 4C9.45023 4 6 7.54011 6 12C6 15.8675 8.59459 19.0434 12 19.8188V13.0154C11.9998 13.0045 11.9998 12.9936 12 12.9827V11C12 10.4477 12.4477 10 13 10C13.3843 10 13.718 10.2168 13.8854 10.5347C14.3727 10.211 14.9387 10 15.596 10C16.8939 10 17.9926 10.7056 18.781 11.6914C19.1259 12.1227 19.0559 12.752 18.6246 13.097C18.1932 13.4419 17.564 13.3719 17.219 12.9405C16.6904 12.2795 16.1173 12 15.596 12C15.1416 12 14.63 12.3529 14 13.2949V19.99C15.6409 19.9043 17.147 19.2735 18.358 18.2594C18.7814 17.9048 19.4121 17.9606 19.7667 18.384C20.1213 18.8074 20.0655 19.4381 19.642 19.7927C17.9972 21.1701 15.9004 22 13.6154 22C13.4598 22 13.3051 21.9962 13.1513 21.9886C13.102 21.9961 13.0514 22 13 22C12.8977 22 12.7989 21.9846 12.706 21.9561C7.78913 21.4785 4 17.1669 4 12C4 6.51876 8.26424 2 13.6154 2C15.9004 2 17.9972 2.82986 19.642 4.20728C20.0655 4.56186 20.1213 5.19256 19.7667 5.61599C19.4121 6.03941 18.7814 6.09522 18.358 5.74064C17.0529 4.64776 15.4052 4 13.6154 4Z" fill="#0000CC"/>
</svg>
