<svg width="24" height="24" viewBox="0 0 24 24" fill="none" xmlns="http://www.w3.org/2000/svg">
<path d="M12.4062 2.14868C12.1368 2.1119 11.8637 2.1119 11.5944 2.14868C11.288 2.19052 10.9981 2.29311 10.6693 2.40943L4.66811 4.5274C4.03406 4.75013 3.4774 4.94568 3.04763 5.31414C3.00682 5.34913 2.96702 5.38516 2.92826 5.42218L11.9934 8.44389L20.964 5.32369C20.9603 5.3205 20.9566 5.31732 20.9529 5.31414C20.5231 4.94568 19.9665 4.75014 19.3324 4.5274L13.3312 2.40943C13.0025 2.29311 12.7125 2.19052 12.4062 2.14868Z" fill="#0000CC"/>
<path d="M21.9477 7.09905L13.0003 10.2112V21.7052C13.1075 21.6701 13.217 21.6313 13.3313 21.5909L19.3324 19.473C19.9665 19.2502 20.5231 19.0547 20.9529 18.6862C21.3288 18.364 21.6191 17.9537 21.7979 17.492C22.0023 16.9641 22.0014 16.3741 22.0004 15.7021V8.2983C22.0011 7.86644 22.0016 7.46845 21.9477 7.09905Z" fill="#0000CC"/>
<path d="M11.0003 21.7052V10.221L2.03573 7.23285C1.99906 7.56415 1.99958 7.9181 2.00014 8.2983V15.7021C1.99915 16.3741 1.99828 16.9641 2.2027 17.492C2.38148 17.9537 2.67176 18.364 3.04763 18.6862C3.4774 19.0547 4.03405 19.2502 4.6681 19.473L10.6693 21.5909C10.7835 21.6313 10.8931 21.6701 11.0003 21.7052Z" fill="#0000CC"/>
</svg>
