<svg width="24" height="24" viewBox="0 0 24 24" fill="none" xmlns="http://www.w3.org/2000/svg">
<path d="M13 3C13 2.44772 12.5523 2 12 2C11.4477 2 11 2.44772 11 3V6H6C4.89543 6 4 6.89543 4 8C4 9.10457 4.89543 10 6 10C7.10457 10 8 9.10457 8 8H16C16 9.10457 16.8954 10 18 10C19.1046 10 20 9.10457 20 8C20 6.89543 19.1046 6 18 6H13V3Z" fill="#0000CC"/>
<path d="M9 10C8.44772 10 8 10.4477 8 11V18C8 18.2652 8.10536 18.5196 8.29289 18.7071L11.2929 21.7071C11.6834 22.0976 12.3166 22.0976 12.7071 21.7071L15.7071 18.7071C15.8946 18.5196 16 18.2652 16 18V11C16 10.4477 15.5523 10 15 10H9Z" fill="#0000CC"/>
</svg>
