<svg width="24" height="24" viewBox="0 0 24 24" fill="none" xmlns="http://www.w3.org/2000/svg">
<path fill-rule="evenodd" clip-rule="evenodd" d="M12 2C12.5523 2 13 2.44772 13 3V5C13 5.55228 12.5523 6 12 6C11.4477 6 11 5.55228 11 5V3C11 2.44772 11.4477 2 12 2ZM4.92961 4.92961C5.32014 4.53909 5.9533 4.53909 6.34383 4.92961L7.75804 6.34383C8.14856 6.73435 8.14856 7.36752 7.75804 7.75804C7.36752 8.14856 6.73435 8.14856 6.34383 7.75804L4.92961 6.34383C4.53909 5.9533 4.53909 5.32014 4.92961 4.92961ZM19.0717 4.92961C19.4623 5.32014 19.4623 5.9533 19.0717 6.34383L17.6575 7.75804C17.267 8.14856 16.6338 8.14856 16.2433 7.75804C15.8528 7.36752 15.8528 6.73435 16.2433 6.34383L17.6575 4.92961C18.0481 4.53909 18.6812 4.53909 19.0717 4.92961ZM12 7C12.3877 7 12.7405 7.2241 12.9052 7.57507L13.9147 9.72559L16.1519 10.0694C16.5223 10.1264 16.8297 10.3856 16.9485 10.741C17.0672 11.0964 16.9773 11.4883 16.7155 11.7564L15.0682 13.4435L15.459 15.839C15.5206 16.217 15.361 16.597 15.0479 16.8175C14.7348 17.0381 14.3232 17.0604 13.9881 16.8751L12 15.7757L10.0119 16.8751C9.67678 17.0604 9.26522 17.0381 8.95213 16.8175C8.63903 16.597 8.47939 16.217 8.54104 15.839L8.93176 13.4435L7.2845 11.7564C7.02272 11.4883 6.9328 11.0964 7.05153 10.741C7.17026 10.3856 7.47772 10.1264 7.84809 10.0694L10.0853 9.72559L11.0948 7.57507C11.2595 7.2241 11.6123 7 12 7ZM2 12C2 11.4477 2.44772 11 3 11H5C5.55228 11 6 11.4477 6 12C6 12.5523 5.55228 13 5 13H3C2.44772 13 2 12.5523 2 12ZM18 12C18 11.4477 18.4477 11 19 11H21C21.5523 11 22 11.4477 22 12C22 12.5523 21.5523 13 21 13H19C18.4477 13 18 12.5523 18 12ZM7.75804 16.2433C8.14856 16.6338 8.14856 17.267 7.75804 17.6575L6.34383 19.0717C5.9533 19.4623 5.32014 19.4623 4.92961 19.0717C4.53909 18.6812 4.53909 18.0481 4.92961 17.6575L6.34383 16.2433C6.73435 15.8528 7.36752 15.8528 7.75804 16.2433ZM16.2433 16.2433C16.6338 15.8528 17.267 15.8528 17.6575 16.2433L19.0717 17.6575C19.4623 18.0481 19.4623 18.6812 19.0717 19.0717C18.6812 19.4623 18.0481 19.4623 17.6575 19.0717L16.2433 17.6575C15.8528 17.267 15.8528 16.6338 16.2433 16.2433ZM12 18C12.5523 18 13 18.4477 13 19V21C13 21.5523 12.5523 22 12 22C11.4477 22 11 21.5523 11 21V19C11 18.4477 11.4477 18 12 18Z" fill="#0000CC"/>
</svg>
