<svg width="24" height="24" viewBox="0 0 24 24" fill="none" xmlns="http://www.w3.org/2000/svg">
<path fill-rule="evenodd" clip-rule="evenodd" d="M5.96802 3H18.032C18.4706 2.99999 18.8491 2.99998 19.1624 3.02135C19.4922 3.04386 19.8221 3.09336 20.1481 3.22836C20.8831 3.53284 21.4672 4.11687 21.7716 4.85195C21.9066 5.17788 21.9561 5.50779 21.9787 5.83762C22 6.15088 22 6.52936 22 6.96801V7.03199C22 7.47064 22 7.84913 21.9787 8.16238C21.9561 8.49221 21.9066 8.82212 21.7716 9.14805C21.4672 9.88314 20.8831 10.4672 20.1481 10.7716C19.8221 10.9066 19.4922 10.9561 19.1624 10.9787C18.8491 11 18.4706 11 18.032 11H5.96801C5.52936 11 5.15088 11 4.83762 10.9787C4.50779 10.9561 4.17788 10.9066 3.85195 10.7716C3.11687 10.4672 2.53284 9.88314 2.22836 9.14805C2.09336 8.82212 2.04386 8.49221 2.02135 8.16238C1.99998 7.84913 1.99999 7.47064 2 7.03198V6.96802C1.99999 6.52937 1.99998 6.15088 2.02135 5.83762C2.04386 5.50779 2.09336 5.17788 2.22836 4.85195C2.53284 4.11687 3.11687 3.53284 3.85195 3.22836C4.17788 3.09336 4.50779 3.04386 4.83762 3.02135C5.15088 2.99998 5.52937 2.99999 5.96802 3ZM5.96801 13H18.032C18.4706 13 18.8491 13 19.1624 13.0214C19.4922 13.0439 19.8221 13.0934 20.1481 13.2284C20.8831 13.5328 21.4672 14.1169 21.7716 14.852C21.9066 15.1779 21.9561 15.5078 21.9787 15.8376C22 16.1509 22 16.5294 22 16.968V17.032C22 17.4706 22 17.8491 21.9787 18.1624C21.9561 18.4922 21.9066 18.8221 21.7716 19.1481C21.4672 19.8831 20.8831 20.4672 20.1481 20.7716C19.8221 20.9066 19.4922 20.9561 19.1624 20.9787C18.8491 21 18.4706 21 18.032 21H5.96801C5.52936 21 5.15088 21 4.83762 20.9787C4.50779 20.9561 4.17788 20.9066 3.85195 20.7716C3.11687 20.4672 2.53284 19.8831 2.22836 19.1481C2.09336 18.8221 2.04386 18.4922 2.02135 18.1624C1.99998 17.8491 1.99999 17.4706 2 17.032V16.968C1.99999 16.5294 1.99998 16.1509 2.02135 15.8376C2.04386 15.5078 2.09336 15.1779 2.22836 14.852C2.53284 14.1169 3.11687 13.5328 3.85195 13.2284C4.17788 13.0934 4.50779 13.0439 4.83762 13.0214C5.15088 13 5.52936 13 5.96801 13ZM4.97376 15.0167C4.74576 15.0323 4.65893 15.0589 4.61732 15.0761C4.37229 15.1776 4.17762 15.3723 4.07612 15.6173C4.05888 15.6589 4.03227 15.7458 4.01671 15.9738C4.00054 16.2107 4 16.5204 4 17C4 17.4796 4.00054 17.7893 4.01671 18.0262C4.03227 18.2542 4.05888 18.3411 4.07612 18.3827C4.17762 18.6277 4.37229 18.8224 4.61732 18.9239C4.65893 18.9411 4.74576 18.9677 4.97376 18.9833C5.21074 18.9995 5.52038 19 6 19H18C18.4796 19 18.7893 18.9995 19.0262 18.9833C19.2542 18.9677 19.3411 18.9411 19.3827 18.9239C19.6277 18.8224 19.8224 18.6277 19.9239 18.3827C19.9411 18.3411 19.9677 18.2542 19.9833 18.0262C19.9995 17.7893 20 17.4796 20 17C20 16.5204 19.9995 16.2107 19.9833 15.9738C19.9677 15.7458 19.9411 15.6589 19.9239 15.6173C19.8224 15.3723 19.6277 15.1776 19.3827 15.0761C19.3411 15.0589 19.2542 15.0323 19.0262 15.0167C18.7893 15.0005 18.4796 15 18 15H6C5.52038 15 5.21074 15.0005 4.97376 15.0167Z" fill="#0000CC"/>
</svg>
