<svg width="24" height="24" viewBox="0 0 24 24" fill="none" xmlns="http://www.w3.org/2000/svg">
<path fill-rule="evenodd" clip-rule="evenodd" d="M4.60001 3.00001H6.40001C6.66354 3.00001 6.92132 2.99923 7.13824 3.01695C7.36683 3.03563 7.63656 3.07969 7.90799 3.21799C8.28431 3.40974 8.59027 3.7157 8.78202 4.09202C8.92032 4.36345 8.96438 4.63318 8.98306 4.86178C8.99853 5.05116 8.99991 5.2717 9 5.50001H15C15.0001 5.2717 15.0015 5.05116 15.0169 4.86178C15.0356 4.63318 15.0797 4.36345 15.218 4.09202C15.4097 3.7157 15.7157 3.40974 16.092 3.21799C16.3634 3.07969 16.6332 3.03563 16.8618 3.01695C17.0699 2.99994 17.3157 2.99997 17.5681 3H19.4319C19.6843 2.99997 19.9301 2.99994 20.1382 3.01695C20.3668 3.03563 20.6366 3.07969 20.908 3.21799C21.2843 3.40974 21.5903 3.7157 21.782 4.09202C21.9203 4.36345 21.9644 4.63318 21.9831 4.86178C22.0001 5.06993 22 5.31571 22 5.56809V7.43192C22 7.6843 22.0001 7.93008 21.9831 8.13824C21.9644 8.36683 21.9203 8.63656 21.782 8.90799C21.5903 9.28431 21.2843 9.59027 20.908 9.78202C20.6366 9.92032 20.3668 9.96438 20.1382 9.98306C19.9301 10.0001 19.6843 10 19.4319 10H17.5681C17.3157 10 17.0699 10.0001 16.8618 9.98306C16.6332 9.96438 16.3634 9.92032 16.092 9.78202C15.7157 9.59027 15.4097 9.28431 15.218 8.90799C15.0797 8.63656 15.0356 8.36683 15.0169 8.13824C15.0015 7.94885 15.0001 7.72831 15 7.50001H9C8.99991 7.72831 8.99853 7.94885 8.98306 8.13824C8.97232 8.26972 8.95317 8.41482 8.91253 8.56602L12.5722 14.0556C12.6736 14.0358 12.7709 14.0244 12.8618 14.0169C13.0699 13.9999 13.3157 14 13.5681 14H15.4319C15.6843 14 15.9301 13.9999 16.1382 14.0169C16.3668 14.0356 16.6366 14.0797 16.908 14.218C17.2843 14.4097 17.5903 14.7157 17.782 15.092C17.9203 15.3634 17.9644 15.6332 17.9831 15.8618C18.0001 16.0699 18 16.3157 18 16.5681V18.4319C18 18.6843 18.0001 18.9301 17.9831 19.1382C17.9644 19.3668 17.9203 19.6366 17.782 19.908C17.5903 20.2843 17.2843 20.5903 16.908 20.782C16.6366 20.9203 16.3668 20.9644 16.1382 20.9831C15.9301 21.0001 15.6843 21 15.4319 21H13.5681C13.3157 21 13.0699 21.0001 12.8618 20.9831C12.6332 20.9644 12.3634 20.9203 12.092 20.782C11.7157 20.5903 11.4097 20.2843 11.218 19.908C11.0797 19.6366 11.0356 19.3668 11.0169 19.1382C10.9999 18.9301 11 18.6843 11 18.4319V16.5681C11 16.3157 10.9999 16.0699 11.0169 15.8618C11.0277 15.7303 11.0468 15.5852 11.0875 15.434L7.42778 9.94444C7.32642 9.96421 7.22908 9.97564 7.13824 9.98306C6.92132 10.0008 6.66353 10 6.40001 10H4.60001C4.33648 10 4.07869 10.0008 3.86178 9.98306C3.63318 9.96438 3.36345 9.92032 3.09202 9.78202C2.7157 9.59027 2.40974 9.28431 2.21799 8.90799C2.07969 8.63656 2.03563 8.36683 2.01695 8.13824C1.99994 7.93008 1.99997 7.68429 2 7.4319C2.00008 6.81187 2.00008 6.18938 2 5.56811C1.99997 5.31572 1.99994 5.06993 2.01695 4.86178C2.03563 4.63318 2.07969 4.36345 2.21799 4.09202C2.40974 3.7157 2.7157 3.40974 3.09202 3.21799C3.36345 3.07969 3.63318 3.03563 3.86178 3.01695C4.07869 2.99923 4.33648 3.00001 4.60001 3.00001Z" fill="#0000CC"/>
</svg>
