<svg width="24" height="24" viewBox="0 0 24 24" fill="none" xmlns="http://www.w3.org/2000/svg">
<path fill-rule="evenodd" clip-rule="evenodd" d="M5.56811 3C5.57873 3 5.58936 3.00001 5.60001 3.00001H7.40001C7.41065 3.00001 7.42128 3 7.4319 3C7.68429 2.99997 7.93008 2.99994 8.13824 3.01695C8.36683 3.03563 8.63656 3.07969 8.90799 3.21799C9.28431 3.40974 9.59027 3.7157 9.78202 4.09202C9.92032 4.36345 9.96438 4.63318 9.98306 4.86178C10.0001 5.06993 10 5.31572 10 5.56811C10 5.57873 10 5.58936 10 5.60001V7.40001C10 7.41065 10 7.42128 10 7.4319C10 7.68429 10.0001 7.93008 9.98306 8.13824C9.96438 8.36683 9.92032 8.63656 9.78202 8.90799C9.59027 9.28431 9.28431 9.59027 8.90799 9.78202C8.63656 9.92032 8.36683 9.96438 8.13824 9.98306C7.94885 9.99853 7.72831 9.99991 7.50001 10V11.1C7.50001 12.2366 7.50078 13.0289 7.55118 13.6458C7.60063 14.2509 7.6928 14.5986 7.82699 14.862C8.11461 15.4265 8.57355 15.8854 9.13803 16.173C9.40139 16.3072 9.74908 16.3994 10.3542 16.4488C10.9711 16.4992 11.7634 16.5 12.9 16.5H14C14.0001 16.2717 14.0015 16.0512 14.0169 15.8618C14.0356 15.6332 14.0797 15.3634 14.218 15.092C14.4097 14.7157 14.7157 14.4097 15.092 14.218C15.3634 14.0797 15.6332 14.0356 15.8618 14.0169C16.0699 13.9999 16.3157 14 16.5681 14H18.4319C18.6843 14 18.9301 13.9999 19.1382 14.0169C19.3668 14.0356 19.6366 14.0797 19.908 14.218C20.2843 14.4097 20.5903 14.7157 20.782 15.092C20.9203 15.3634 20.9644 15.6332 20.9831 15.8618C21.0001 16.0699 21 16.3157 21 16.5681V18.4319C21 18.6843 21.0001 18.9301 20.9831 19.1382C20.9644 19.3668 20.9203 19.6366 20.782 19.908C20.5903 20.2843 20.2843 20.5903 19.908 20.782C19.6366 20.9203 19.3668 20.9644 19.1382 20.9831C18.9301 21.0001 18.6843 21 18.4319 21H16.5681C16.3157 21 16.0699 21.0001 15.8618 20.9831C15.6332 20.9644 15.3634 20.9203 15.092 20.782C14.7157 20.5903 14.4097 20.2843 14.218 19.908C14.0797 19.6366 14.0356 19.3668 14.0169 19.1382C14.0015 18.9488 14.0001 18.7283 14 18.5H12.8572C11.7734 18.5 10.8993 18.5 10.1914 18.4422C9.46253 18.3826 8.82234 18.2568 8.23005 17.955C7.28924 17.4757 6.52434 16.7108 6.04497 15.77C5.74319 15.1777 5.61737 14.5375 5.55782 13.8086C5.49999 13.1007 5.49999 12.2266 5.50001 11.1428L5.50001 10C5.2717 9.99991 5.05116 9.99853 4.86178 9.98306C4.63318 9.96438 4.36345 9.92032 4.09202 9.78202C3.7157 9.59027 3.40974 9.28431 3.21799 8.90799C3.07969 8.63656 3.03563 8.36683 3.01695 8.13824C2.99994 7.93008 2.99997 7.68429 3 7.4319C3 7.42128 3.00001 7.41065 3.00001 7.40001V5.60001C3.00001 5.58936 3 5.57873 3 5.56811C2.99997 5.31572 2.99994 5.06993 3.01695 4.86178C3.03563 4.63318 3.07969 4.36345 3.21799 4.09202C3.40974 3.7157 3.7157 3.40974 4.09202 3.21799C4.36345 3.07969 4.63318 3.03563 4.86178 3.01695C5.06993 2.99994 5.31572 2.99997 5.56811 3Z" fill="#0000CC"/>
</svg>
