<svg width="24" height="24" viewBox="0 0 24 24" fill="none" xmlns="http://www.w3.org/2000/svg">
<path fill-rule="evenodd" clip-rule="evenodd" d="M5.96802 2H18.032C18.4706 1.99999 18.8491 1.99998 19.1624 2.02135C19.4922 2.04386 19.8221 2.09336 20.1481 2.22836C20.8831 2.53284 21.4672 3.11687 21.7716 3.85195C21.9066 4.17788 21.9561 4.50779 21.9787 4.83762C22 5.15088 22 5.52936 22 5.96801V6.03199C22 6.47064 22 6.84913 21.9787 7.16238C21.9561 7.49221 21.9066 7.82212 21.7716 8.14805C21.4672 8.88314 20.8831 9.46716 20.1481 9.77164C19.8221 9.90664 19.4922 9.95615 19.1624 9.97865C18.8491 10 18.4706 10 18.032 10L7 10V14.8C7 15.3766 7.00078 15.7488 7.02393 16.0322C7.04612 16.3038 7.0838 16.4045 7.10899 16.454C7.20487 16.6422 7.35785 16.7951 7.54601 16.891C7.59546 16.9162 7.69617 16.9539 7.96784 16.9761C8.25117 16.9992 8.62345 17 9.2 17H10.0123C10.0148 16.9441 10.0178 16.8899 10.0214 16.8376C10.0439 16.5078 10.0934 16.1779 10.2284 15.852C10.5328 15.1169 11.1169 14.5328 11.852 14.2284C12.1779 14.0934 12.5078 14.0439 12.8376 14.0214C13.1509 14 13.5294 14 13.968 14H18.032C18.4706 14 18.8491 14 19.1624 14.0214C19.4922 14.0439 19.8221 14.0934 20.1481 14.2284C20.8831 14.5328 21.4672 15.1169 21.7716 15.852C21.9066 16.1779 21.9561 16.5078 21.9787 16.8376C22 17.1509 22 17.5294 22 17.968V18.032C22 18.4706 22 18.8491 21.9787 19.1624C21.9561 19.4922 21.9066 19.8221 21.7716 20.1481C21.4672 20.8831 20.8831 21.4672 20.1481 21.7716C19.8221 21.9066 19.4922 21.9561 19.1624 21.9787C18.8491 22 18.4706 22 18.032 22H13.968C13.5294 22 13.1509 22 12.8376 21.9787C12.5078 21.9561 12.1779 21.9066 11.852 21.7716C11.1169 21.4672 10.5328 20.8831 10.2284 20.1481C10.0934 19.8221 10.0439 19.4922 10.0214 19.1624C10.0178 19.1101 10.0148 19.0559 10.0123 19H9.16143C8.6343 19 8.17954 19 7.80497 18.9694C7.40963 18.9371 7.01641 18.8658 6.63803 18.673C6.07354 18.3854 5.6146 17.9265 5.32698 17.362C5.13419 16.9836 5.06287 16.5904 5.03057 16.195C4.99997 15.8205 4.99998 15.3657 5 14.8385L5 9.98767C4.94407 9.98519 4.88994 9.98222 4.83762 9.97865C4.50779 9.95615 4.17788 9.90664 3.85195 9.77164C3.11687 9.46716 2.53284 8.88314 2.22836 8.14805C2.09336 7.82212 2.04386 7.49221 2.02135 7.16238C1.99998 6.84913 1.99999 6.47064 2 6.03198V5.96802C1.99999 5.52937 1.99998 5.15088 2.02135 4.83762C2.04386 4.50779 2.09336 4.17788 2.22836 3.85195C2.53284 3.11687 3.11687 2.53284 3.85195 2.22836C4.17788 2.09336 4.50779 2.04386 4.83762 2.02135C5.15088 1.99998 5.52937 1.99999 5.96802 2ZM12.9738 16.0167C12.7458 16.0323 12.6589 16.0589 12.6173 16.0761C12.3723 16.1776 12.1776 16.3723 12.0761 16.6173C12.0589 16.6589 12.0323 16.7458 12.0167 16.9738C12.0005 17.2107 12 17.5204 12 18C12 18.4796 12.0005 18.7893 12.0167 19.0262C12.0323 19.2542 12.0589 19.3411 12.0761 19.3827C12.1776 19.6277 12.3723 19.8224 12.6173 19.9239C12.6589 19.9411 12.7458 19.9677 12.9738 19.9833C13.2107 19.9995 13.5204 20 14 20H18C18.4796 20 18.7893 19.9995 19.0262 19.9833C19.2542 19.9677 19.3411 19.9411 19.3827 19.9239C19.6277 19.8224 19.8224 19.6277 19.9239 19.3827C19.9411 19.3411 19.9677 19.2542 19.9833 19.0262C19.9995 18.7893 20 18.4796 20 18C20 17.5204 19.9995 17.2107 19.9833 16.9738C19.9677 16.7458 19.9411 16.6589 19.9239 16.6173C19.8224 16.3723 19.6277 16.1776 19.3827 16.0761C19.3411 16.0589 19.2542 16.0323 19.0262 16.0167C18.7893 16.0005 18.4796 16 18 16H14C13.5204 16 13.2107 16.0005 12.9738 16.0167Z" fill="#0000CC"/>
</svg>
