<svg width="24" height="24" viewBox="0 0 24 24" fill="none" xmlns="http://www.w3.org/2000/svg">
<path fill-rule="evenodd" clip-rule="evenodd" d="M9 6C5.68629 6 3 8.68629 3 12C3 15.3137 5.68629 18 9 18C9.22568 18 9.44828 17.9876 9.66721 17.9634C8.57929 16.99 7.75927 15.7228 7.33143 14.2852C7.11557 13.5599 7 12.7926 7 12C7 11.2074 7.11557 10.4401 7.33143 9.71475C7.75927 8.27716 8.57929 7.01004 9.66721 6.03659C9.44828 6.01242 9.22567 6 9 6ZM12 4.58181C11.0725 4.20641 10.0593 4 9 4C4.58172 4 1 7.58172 1 12C1 16.4183 4.58172 20 9 20C10.0593 20 11.0725 19.7936 12 19.4182C12.9275 19.7936 13.9407 20 15 20C19.4183 20 23 16.4183 23 12C23 7.58172 19.4183 4 15 4C13.9407 4 12.9275 4.20641 12 4.58181ZM12 6.80248C11.0889 7.32967 10.3293 8.08958 9.80253 9H14.1974C13.6707 8.08938 12.9114 7.32975 12 6.80248ZM14.917 11H9.0828C9.02839 11.3248 9 11.6588 9 12C9 12.3412 9.02839 12.6752 9.0828 13H14.917C14.9716 12.6748 15 12.3407 15 12C15 11.6593 14.9716 11.3252 14.917 11ZM14.1974 15H9.80253C10.3293 15.9104 11.0889 16.6703 12 17.1975C12.9114 16.6702 13.6707 15.9106 14.1974 15Z" fill="#0000CC"/>
</svg>
