<svg width="24" height="24" viewBox="0 0 24 24" fill="none" xmlns="http://www.w3.org/2000/svg">
<path fill-rule="evenodd" clip-rule="evenodd" d="M17.0322 4.02393C16.7488 4.00078 16.3766 4 15.8 4H12.8272C12.921 4.27761 12.9595 4.55764 12.9787 4.83762C13 5.15088 13 5.52936 13 5.96801V6.03199C13 6.47064 13 6.84913 12.9787 7.16238C12.9561 7.49221 12.9066 7.82212 12.7716 8.14805C12.4672 8.88314 11.8831 9.46716 11.1481 9.77164C10.8221 9.90664 10.4922 9.95615 10.1624 9.97865C9.84913 10 9.47064 10 9.03199 10H5.96801C5.52936 10 5.15088 10 4.83762 9.97865C4.50779 9.95615 4.17788 9.90664 3.85195 9.77164C3.11687 9.46716 2.53284 8.88314 2.22836 8.14805C2.09336 7.82212 2.04386 7.49221 2.02135 7.16238C1.99998 6.84913 1.99999 6.47064 2 6.03198V5.96802C1.99999 5.52937 1.99998 5.15088 2.02135 4.83762C2.04386 4.50779 2.09336 4.17788 2.22836 3.85195C2.53284 3.11687 3.11687 2.53285 3.85195 2.22836C4.17788 2.09336 4.50779 2.04386 4.83762 2.02135C5.15088 1.99998 5.52937 1.99999 5.96802 2H9.03198C9.34421 1.99999 9.62596 1.99998 9.8754 2.00769C9.91622 2.00262 9.95781 2 10 2L15.8385 2C16.3657 1.99998 16.8205 1.99997 17.195 2.03057C17.5904 2.06287 17.9836 2.13419 18.362 2.32698C18.9265 2.6146 19.3854 3.07354 19.673 3.63803C19.8658 4.01641 19.9371 4.40963 19.9694 4.80497C20 5.17954 20 5.6343 20 6.16144V6.58579L20.2929 6.29289C20.6834 5.90237 21.3166 5.90237 21.7071 6.29289C22.0976 6.68342 22.0976 7.31658 21.7071 7.70711L19.7071 9.70711C19.3166 10.0976 18.6834 10.0976 18.2929 9.70711L16.2929 7.70711C15.9024 7.31658 15.9024 6.68342 16.2929 6.29289C16.6834 5.90237 17.3166 5.90237 17.7071 6.29289L18 6.58579V6.2C18 5.62345 17.9992 5.25118 17.9761 4.96784C17.9539 4.69617 17.9162 4.59546 17.891 4.54601C17.7951 4.35785 17.6422 4.20487 17.454 4.109C17.4045 4.0838 17.3038 4.04612 17.0322 4.02393ZM5.96801 14H18.032C18.4706 14 18.8491 14 19.1624 14.0214C19.4922 14.0439 19.8221 14.0934 20.1481 14.2284C20.8831 14.5328 21.4672 15.1169 21.7716 15.852C21.9066 16.1779 21.9561 16.5078 21.9787 16.8376C22 17.1509 22 17.5294 22 17.968V18.032C22 18.4706 22 18.8491 21.9787 19.1624C21.9561 19.4922 21.9066 19.8221 21.7716 20.1481C21.4672 20.8831 20.8831 21.4672 20.1481 21.7716C19.8221 21.9066 19.4922 21.9561 19.1624 21.9787C18.8491 22 18.4706 22 18.032 22H5.96801C5.52936 22 5.15088 22 4.83762 21.9787C4.50779 21.9561 4.17788 21.9066 3.85195 21.7716C3.11687 21.4672 2.53284 20.8831 2.22836 20.1481C2.09336 19.8221 2.04386 19.4922 2.02135 19.1624C1.99998 18.8491 1.99999 18.4706 2 18.032V17.968C1.99999 17.5294 1.99998 17.1509 2.02135 16.8376C2.04386 16.5078 2.09336 16.1779 2.22836 15.852C2.53284 15.1169 3.11687 14.5328 3.85195 14.2284C4.17788 14.0934 4.50779 14.0439 4.83762 14.0214C5.15088 14 5.52936 14 5.96801 14ZM4.97376 16.0167C4.74576 16.0323 4.65893 16.0589 4.61732 16.0761C4.37229 16.1776 4.17762 16.3723 4.07612 16.6173C4.05888 16.6589 4.03227 16.7458 4.01671 16.9738C4.00054 17.2107 4 17.5204 4 18C4 18.4796 4.00054 18.7893 4.01671 19.0262C4.03227 19.2542 4.05888 19.3411 4.07612 19.3827C4.17762 19.6277 4.37229 19.8224 4.61732 19.9239C4.65893 19.9411 4.74576 19.9677 4.97376 19.9833C5.21074 19.9995 5.52038 20 6 20H18C18.4796 20 18.7893 19.9995 19.0262 19.9833C19.2542 19.9677 19.3411 19.9411 19.3827 19.9239C19.6277 19.8224 19.8224 19.6277 19.9239 19.3827C19.9411 19.3411 19.9677 19.2542 19.9833 19.0262C19.9995 18.7893 20 18.4796 20 18C20 17.5204 19.9995 17.2107 19.9833 16.9738C19.9677 16.7458 19.9411 16.6589 19.9239 16.6173C19.8224 16.3723 19.6277 16.1776 19.3827 16.0761C19.3411 16.0589 19.2542 16.0323 19.0262 16.0167C18.7893 16.0005 18.4796 16 18 16H6C5.52038 16 5.21074 16.0005 4.97376 16.0167Z" fill="#0000CC"/>
</svg>
