<svg width="24" height="24" viewBox="0 0 24 24" fill="none" xmlns="http://www.w3.org/2000/svg">
<path d="M12 3C12.8284 3 13.5 3.67157 13.5 4.5C13.5 5.32843 12.8284 6 12 6C11.1716 6 10.5 5.32843 10.5 4.5C10.5 3.67157 11.1716 3 12 3Z" fill="#0000CC"/>
<path d="M18 5.5C18.8284 5.5 19.5 6.17157 19.5 7C19.5 7.82843 18.8284 8.5 18 8.5C17.1716 8.5 16.5 7.82843 16.5 7C16.5 6.17157 17.1716 5.5 18 5.5Z" fill="#0000CC"/>
<path d="M6 5.5C6.82843 5.5 7.5 6.17157 7.5 7C7.5 7.82843 6.82843 8.5 6 8.5C5.17157 8.5 4.5 7.82843 4.5 7C4.5 6.17157 5.17157 5.5 6 5.5Z" fill="#0000CC"/>
<path d="M20.5 11.5C21.3284 11.5 22 12.1716 22 13C22 13.8284 21.3284 14.5 20.5 14.5C19.6716 14.5 19 13.8284 19 13C19 12.1716 19.6716 11.5 20.5 11.5Z" fill="#0000CC"/>
<path d="M3.5 11.5C4.32843 11.5 5 12.1716 5 13C5 13.8284 4.32843 14.5 3.5 14.5C2.67157 14.5 2 13.8284 2 13C2 12.1716 2.67157 11.5 3.5 11.5Z" fill="#0000CC"/>
<path d="M18 17.5C18.8284 17.5 19.5 18.1716 19.5 19C19.5 19.8284 18.8284 20.5 18 20.5C17.1716 20.5 16.5 19.8284 16.5 19C16.5 18.1716 17.1716 17.5 18 17.5Z" fill="#0000CC"/>
<path d="M6 17.5C6.82843 17.5 7.5 18.1716 7.5 19C7.5 19.8284 6.82843 20.5 6 20.5C5.17157 20.5 4.5 19.8284 4.5 19C4.5 18.1716 5.17157 17.5 6 17.5Z" fill="#0000CC"/>
<path d="M7 13C7 10.2386 9.23858 8 12 8C14.7614 8 17 10.2386 17 13C17 15.7614 14.7614 18 12 18C10.9813 18 10.033 17.6947 9.24271 17.1715L12.7069 13.7071C13.0975 13.3166 13.0974 12.6834 12.7069 12.2929C12.3164 11.9024 11.6832 11.9024 11.2927 12.2929L7.8285 15.7573C7.30533 14.967 7 14.0186 7 13Z" fill="#0000CC"/>
</svg>
