<svg width="24" height="24" viewBox="0 0 24 24" fill="none" xmlns="http://www.w3.org/2000/svg">
<path d="M5.58564 6.99985L3.52808 9.05742C3.15532 9.43015 2.83373 9.75172 2.59051 10.0382C2.3338 10.3406 2.10618 10.6691 1.97496 11.073C1.77918 11.6755 1.77918 12.3245 1.97496 12.9271C2.10618 13.3309 2.3338 13.6594 2.59051 13.9618C2.83373 14.2483 3.15531 14.5699 3.52807 14.9426L5.58563 17.0002L10.5858 12L5.58564 6.99985Z" fill="#0000CC"/>
<path d="M6.99984 18.4144L9.05717 20.4717C9.4299 20.8445 9.75147 21.166 10.038 21.4093C10.3404 21.666 10.6688 21.8936 11.0727 22.0248C11.6752 22.2206 12.3243 22.2206 12.9268 22.0248C13.3307 21.8936 13.6592 21.666 13.9616 21.4093C14.2481 21.166 14.5696 20.8445 14.9424 20.4717L16.9999 18.4141L12 13.4142L6.99984 18.4144Z" fill="#0000CC"/>
<path d="M18.4141 16.9999L20.4714 14.9426C20.8442 14.5699 21.1658 14.2483 21.409 13.9618C21.6657 13.6594 21.8934 13.3309 22.0246 12.9271C22.2204 12.3245 22.2204 11.6755 22.0246 11.073C21.8934 10.6691 21.6657 10.3406 21.409 10.0382C21.1658 9.75172 20.8442 9.43018 20.4715 9.05746L18.4141 7.00009L13.4142 12L18.4141 16.9999Z" fill="#0000CC"/>
<path d="M16.9999 5.58587L14.9424 3.52834C14.5696 3.15558 14.2481 2.83398 13.9616 2.59076C13.6592 2.33405 13.3307 2.10643 12.9268 1.9752C12.3243 1.77943 11.6752 1.77943 11.0727 1.9752C10.6688 2.10643 10.3404 2.33405 10.038 2.59076C9.75147 2.83398 9.42991 3.15556 9.05717 3.52832L6.99985 5.58564L12 10.5858L16.9999 5.58587Z" fill="#0000CC"/>
</svg>
