<svg width="24" height="24" viewBox="0 0 24 24" fill="none" xmlns="http://www.w3.org/2000/svg">
<path d="M7.2068 8.32496C7.44753 8.47542 7.76508 8.39551 7.90592 8.14903L10.7694 3.138C10.8182 3.05247 10.8182 2.94746 10.7694 2.86192C10.6935 2.72914 10.5247 2.68248 10.3914 2.75746L4.76135 5.92435C4.43047 6.11047 4.41956 6.58294 4.74148 6.78414L7.2068 8.32496Z" fill="#0000CC"/>
<path d="M3.765 8.53233C3.43198 8.32419 3 8.56362 3 8.95633V15.2169C3 15.3732 3.12672 15.5 3.28304 15.5C3.38133 15.5 3.47258 15.449 3.5241 15.3653L6.36764 10.7445C6.51165 10.5105 6.43983 10.2041 6.20681 10.0585L3.765 8.53233Z" fill="#0000CC"/>
<path d="M4.48503 17.6198C4.4101 17.7416 4.45144 17.9012 4.57606 17.9713L10.2549 21.1657C10.5882 21.3532 11 21.1123 11 20.7299V18C11 17.7238 10.7761 17.5 10.5 17.5H4.69953C4.61207 17.5 4.53087 17.5453 4.48503 17.6198Z" fill="#0000CC"/>
<path d="M13 20.7299C13 21.1123 13.4118 21.3532 13.7451 21.1657L19.4239 17.9713C19.5486 17.9012 19.5899 17.7416 19.515 17.6198C19.4691 17.5453 19.3879 17.5 19.3005 17.5H13.5C13.2239 17.5 13 17.7238 13 18V20.7299Z" fill="#0000CC"/>
<path d="M20.717 15.5C20.8733 15.5 21 15.3732 21 15.2169V8.95633C21 8.56362 20.568 8.32419 20.235 8.53233L17.7932 10.0585C17.5602 10.2041 17.4883 10.5105 17.6324 10.7445L20.4759 15.3653C20.5274 15.449 20.6187 15.5 20.717 15.5Z" fill="#0000CC"/>
<path d="M19.2585 6.78414C19.5804 6.58294 19.5695 6.11047 19.2386 5.92435L13.6086 2.75746C13.4753 2.68248 13.3065 2.72914 13.2306 2.86192C13.1818 2.94746 13.1818 3.05247 13.2306 3.138L16.0941 8.14903C16.2349 8.39551 16.5525 8.47542 16.7932 8.32496L19.2585 6.78414Z" fill="#0000CC"/>
<path d="M12.4341 5.77524C12.2422 5.43933 11.7578 5.43933 11.5659 5.77524L10.1506 8.25189C9.96017 8.58522 10.2009 8.99996 10.5848 8.99996H13.4152C13.7991 8.99996 14.0398 8.58522 13.8494 8.25189L12.4341 5.77524Z" fill="#0000CC"/>
<path d="M9.31565 15.5C9.70681 15.5 9.94649 15.071 9.74148 14.7379L8.42583 12.6C8.23059 12.2827 7.76941 12.2827 7.57417 12.6L6.25852 14.7379C6.05351 15.071 6.29319 15.5 6.68435 15.5H9.31565Z" fill="#0000CC"/>
<path d="M16.4258 12.6C16.2306 12.2827 15.7694 12.2827 15.5742 12.6L14.2585 14.7379C14.0535 15.071 14.2932 15.5 14.6843 15.5H17.3157C17.7068 15.5 17.9465 15.071 17.7415 14.7379L16.4258 12.6Z" fill="#0000CC"/>
<path d="M13.3157 11C13.7068 11 13.9465 11.4289 13.7415 11.762L12.4258 13.8999C12.2306 14.2172 11.7694 14.2172 11.5742 13.8999L10.2585 11.762C10.0535 11.4289 10.2932 11 10.6843 11H13.3157Z" fill="#0000CC"/>
</svg>
