<svg width="24" height="24" viewBox="0 0 24 24" fill="none" xmlns="http://www.w3.org/2000/svg">
<path fill-rule="evenodd" clip-rule="evenodd" d="M11.3405 3.98589C10.5564 3.21346 9.29553 3.21972 8.51917 3.99992L2.99246 9.55394C2.21609 10.3342 2.21605 11.5951 2.99238 12.3753L8.58168 17.9928C9.36354 18.7786 10.6354 18.7786 11.4172 17.9928L16.9995 12.3824C17.7813 11.5966 17.775 10.3249 16.9853 9.54696L11.3405 3.98589ZM7 10C6.44772 10 6 10.4477 6 11C6 11.5523 6.44772 12 7 12H7.009C7.56128 12 8.009 11.5523 8.009 11C8.009 10.4477 7.56128 10 7.009 10H7ZM13 10C12.4477 10 12 10.4477 12 11C12 11.5523 12.4477 12 13 12H13.009C13.5613 12 14.009 11.5523 14.009 11C14.009 10.4477 13.5613 10 13.009 10H13Z" fill="#0000CC"/>
<path d="M21.9995 9.99998C21.9995 9.4477 21.5517 8.99998 20.9995 8.99998C20.4472 8.99998 19.9995 9.4477 19.9995 9.99998V19H12.9995C12.4472 19 11.9995 19.4477 11.9995 20C11.9995 20.5523 12.4472 21 12.9995 21H19.9995C21.104 21 21.9995 20.1046 21.9995 19V9.99998Z" fill="#0000CC"/>
<path d="M18 16C17.4477 16 17 16.4477 17 17C17 17.5523 17.4477 18 18 18H18.009C18.5613 18 19.009 17.5523 19.009 17C19.009 16.4477 18.5613 16 18.009 16H18Z" fill="#0000CC"/>
</svg>
