<svg width="24" height="24" viewBox="0 0 24 24" fill="none" xmlns="http://www.w3.org/2000/svg">
<path d="M10.9121 2.95103C10.8765 2.85604 10.7546 2.82964 10.6829 2.90138L3.62118 9.96304C3.27723 10.307 3.57713 10.8898 4.05694 10.8098L7.98012 10.1559C8.15627 10.1266 8.30339 10.0055 8.36609 9.83829L10.9121 3.04898C10.9239 3.0174 10.9239 2.9826 10.9121 2.95103Z" fill="#0000CC"/>
<path d="M3.61361 12.9113C3.21246 12.9781 3.05469 13.4704 3.34226 13.758L10.1449 20.5607C10.4599 20.8756 10.9984 20.6526 10.9984 20.2071V15.5C10.9984 15.3918 10.9634 15.2866 10.8984 15.2L8.74557 12.3295C8.63353 12.1801 8.44757 12.1056 8.26337 12.1363L3.61361 12.9113Z" fill="#0000CC"/>
<path d="M12.9984 20.2071C12.9984 20.6526 13.537 20.8756 13.852 20.5607L20.6546 13.758C20.9422 13.4704 20.7844 12.9781 20.3833 12.9113L15.7335 12.1363C15.5493 12.1056 15.3634 12.1801 15.2513 12.3295L13.0984 15.2C13.0335 15.2866 12.9984 15.3918 12.9984 15.5V20.2071Z" fill="#0000CC"/>
<path d="M19.94 10.8098C20.4198 10.8898 20.7197 10.307 20.3757 9.96305L13.314 2.90138C13.2423 2.82964 13.1204 2.85604 13.0848 2.95103C13.073 2.9826 13.073 3.0174 13.0848 3.04898L15.6308 9.83829C15.6935 10.0055 15.8406 10.1266 16.0168 10.1559L19.94 10.8098Z" fill="#0000CC"/>
<path d="M10.2914 11.0573C10.1891 10.9208 10.1634 10.7415 10.2233 10.5818L11.5303 7.09644C11.6925 6.66386 12.3044 6.66386 12.4666 7.09644L13.7736 10.5818C13.8335 10.7415 13.8078 10.9208 13.7054 11.0573L12.3984 12.8C12.1984 13.0667 11.7984 13.0667 11.5984 12.8L10.2914 11.0573Z" fill="#0000CC"/>
</svg>
