<svg width="24" height="24" viewBox="0 0 24 24" fill="none" xmlns="http://www.w3.org/2000/svg">
<path d="M12 10.5C11.1716 10.5 10.5 11.1716 10.5 12C10.5 12.8284 11.1716 13.5 12 13.5C12.8284 13.5 13.5 12.8284 13.5 12C13.5 11.1716 12.8284 10.5 12 10.5Z" fill="#0000CC"/>
<path fill-rule="evenodd" clip-rule="evenodd" d="M8.7587 3H15.2413C16.0463 2.99999 16.7106 2.99998 17.2518 3.0442C17.8139 3.09012 18.3306 3.18868 18.816 3.43598C19.5686 3.81947 20.1805 4.43139 20.564 5.18404C20.8113 5.66938 20.9099 6.18608 20.9558 6.74818C21 7.28937 21 7.95372 21 8.75868V19C21.5523 19 22 19.4477 22 20C22 20.5523 21.5523 21 21 21H3C2.44772 21 2 20.5523 2 20C2 19.4477 2.44772 19 3 19V8.7587C2.99999 7.95373 2.99998 7.28937 3.04419 6.74818C3.09012 6.18608 3.18868 5.66938 3.43597 5.18404C3.81947 4.43139 4.43139 3.81947 5.18404 3.43598C5.66937 3.18868 6.18608 3.09012 6.74817 3.0442C7.28936 2.99998 7.95374 2.99999 8.7587 3ZM12 6C8.68629 6 6 8.68629 6 12C6 15.3137 8.68629 18 12 18C15.3137 18 18 15.3137 18 12C18 8.68629 15.3137 6 12 6Z" fill="#0000CC"/>
</svg>
