<svg width="24" height="24" viewBox="0 0 24 24" fill="none" xmlns="http://www.w3.org/2000/svg">
<path fill-rule="evenodd" clip-rule="evenodd" d="M8.26414 4.02618C8.69228 3.94664 9.12297 4.05144 9.46533 4.29824C9.80392 4.54233 10.0249 4.90035 10.1131 5.2841L10.3116 6.13634C10.87 6.04268 11.4341 5.997 12 6.00021C12.5656 5.997 13.1295 6.04264 13.6877 6.13621L13.885 5.28654C13.9732 4.9026 14.1947 4.54236 14.5335 4.2982C14.8758 4.05142 15.3065 3.94665 15.7346 4.02618L18.4445 4.52036C18.7744 4.57997 19.0672 4.74258 19.2922 4.97089C19.5161 5.19822 19.6647 5.48157 19.7331 5.78049L21.9573 15.4786C22.0373 15.8374 22.0015 16.2172 21.8504 16.5566C21.6992 16.8964 21.4315 17.1916 21.0758 17.3651L16.0389 19.8356C15.8326 19.9382 15.6048 19.9955 15.3702 19.9998C15.1336 20.0041 14.9017 19.9544 14.6899 19.8573C14.4786 19.7603 14.2951 19.6199 14.1474 19.4507C14.006 19.2888 13.8993 19.103 13.8291 18.906L13.2532 17.4269C12.8374 17.4778 12.4191 17.5023 12 17.4999C11.5808 17.5023 11.1624 17.4778 10.7465 17.4269L10.1695 18.9063C10.0993 19.1032 9.99273 19.2888 9.85141 19.4507C9.7037 19.6198 9.52022 19.7603 9.30888 19.8572C9.0971 19.9544 8.86512 20.0041 8.6285 19.9998C8.39388 19.9955 8.16605 19.9382 7.95977 19.8356L2.92099 17.3639C2.56522 17.1904 2.29954 16.8961 2.14832 16.5563C1.99725 16.2168 1.9615 15.837 2.04145 15.4782L4.26537 5.78198C4.33369 5.48291 4.4825 5.19846 4.70654 4.97102C4.93145 4.74269 5.22596 4.57975 5.55586 4.52013L8.26414 4.02618ZM14 12.0001C14 11.4478 14.4477 11.0001 15 11.0001H15.009C15.5613 11.0001 16.009 11.4478 16.009 12.0001C16.009 12.5523 15.5613 13.0001 15.009 13.0001H15C14.4477 13.0001 14 12.5523 14 12.0001ZM9 11.0001C8.44772 11.0001 8 11.4478 8 12.0001C8 12.5523 8.44772 13.0001 9 13.0001H9.009C9.56128 13.0001 10.009 12.5523 10.009 12.0001C10.009 11.4478 9.56128 11.0001 9.009 11.0001H9Z" fill="#0000CC"/>
</svg>
