<svg width="24" height="24" viewBox="0 0 24 24" fill="none" xmlns="http://www.w3.org/2000/svg">
<path fill-rule="evenodd" clip-rule="evenodd" d="M5 2C5.55228 2 6 2.44772 6 3H15C15.5523 3 16 3.44772 16 4C16 4.55228 15.5523 5 15 5H6.24439C6.41939 5.70357 6.68497 6.37518 7.02999 7H12.5C13.0523 7 13.5 7.44772 13.5 8C13.5 8.55228 13.0523 9 12.5 9H8.57348C9.51842 9.89942 10.6833 10.5828 12 10.96C15.5518 9.94262 18 6.69504 18 3C18 2.44772 18.4477 2 19 2C19.5523 2 20 2.44772 20 3C20 6.80106 17.9133 10.2207 14.6895 12C16.2034 12.8357 17.4666 14.033 18.3803 15.461C19.2214 16.7757 19.7673 18.2869 19.9405 19.8927C19.9799 20.2575 20 20.627 20 21C20 21.5523 19.5523 22 19 22C18.4477 22 18 21.5523 18 21H9C8.44772 21 8 20.5523 8 20C8 19.4477 8.44772 19 9 19H17.7556C17.5806 18.2964 17.315 17.6248 16.97 17H11.5C10.9477 17 10.5 16.5523 10.5 16C10.5 15.4477 10.9477 15 11.5 15H15.4265C14.4816 14.1006 13.3166 13.4172 12 13.04C8.44825 14.0574 6 17.305 6 21C6 21.5523 5.55228 22 5 22C4.44772 22 4 21.5523 4 21C4 17.1989 6.08673 13.7793 9.31051 12C7.79658 11.1643 6.53344 9.967 5.61973 8.53895C4.77859 7.22434 4.23274 5.71309 4.05947 4.10728C4.02011 3.74248 4 3.37298 4 3C4 2.44772 4.44772 2 5 2Z" fill="#0000CC"/>
</svg>
