<svg width="24" height="24" viewBox="0 0 24 24" fill="none" xmlns="http://www.w3.org/2000/svg">
<path d="M8.21799 5.09202C8 5.51984 8 6.0799 8 7.2V8.8C8 9.9201 8 10.4802 8.21799 10.908C8.40973 11.2843 8.71569 11.5903 9.09202 11.782C9.51984 12 10.0799 12 11.2 12H12.8C13.9201 12 14.4802 12 14.908 11.782C15.2843 11.5903 15.5903 11.2843 15.782 10.908C16 10.4802 16 9.9201 16 8.8V7.2C16 6.0799 16 5.51984 15.782 5.09202C15.5903 4.71569 15.2843 4.40973 14.908 4.21799C14.4802 4 13.9201 4 12.8 4H11.2C10.0799 4 9.51984 4 9.09202 4.21799C8.71569 4.40973 8.40973 4.71569 8.21799 5.09202Z" fill="#0000CC"/>
<path d="M2 7C2 6.44772 2.44772 6 3 6H5C5.55228 6 6 6.44772 6 7C6 7.55228 5.55228 8 5 8H3C2.44772 8 2 7.55228 2 7Z" fill="#0000CC"/>
<path d="M18 7C18 6.44772 18.4477 6 19 6H21C21.5523 6 22 6.44772 22 7C22 7.55228 21.5523 8 21 8H19C18.4477 8 18 7.55228 18 7Z" fill="#0000CC"/>
<path d="M3 10C2.44772 10 2 10.4477 2 11C2 11.5523 2.44772 12 3 12H5C5.55228 12 6 11.5523 6 11C6 10.4477 5.55228 10 5 10H3Z" fill="#0000CC"/>
<path d="M18 11C18 10.4477 18.4477 10 19 10H21C21.5523 10 22 10.4477 22 11C22 11.5523 21.5523 12 21 12H19C18.4477 12 18 11.5523 18 11Z" fill="#0000CC"/>
<path d="M3 14C2.44772 14 2 14.4477 2 15C2 15.5523 2.44772 16 3 16H20C20.5523 16 21 15.5523 21 15C21 14.4477 20.5523 14 20 14H3Z" fill="#0000CC"/>
<path d="M2 19C2 18.4477 2.44772 18 3 18H15C15.5523 18 16 18.4477 16 19C16 19.5523 15.5523 20 15 20H3C2.44772 20 2 19.5523 2 19Z" fill="#0000CC"/>
</svg>
