<svg width="24" height="24" viewBox="0 0 24 24" fill="none" xmlns="http://www.w3.org/2000/svg">
<path fill-rule="evenodd" clip-rule="evenodd" d="M11.9998 22C17.5226 22 21.9998 17.5228 21.9998 12C21.9998 6.47715 17.5226 2 11.9998 2C8.72812 2 5.82344 3.57111 3.99902 6H5.99995C7.10452 6 7.99995 6.89543 7.99995 8C7.99995 9.10457 7.10452 10 5.99995 10C7.10452 10 7.99995 10.8954 7.99995 12C7.99995 13.1046 7.10452 14 5.99995 14C7.10452 14 7.99995 14.8954 7.99995 16C7.99995 17.1046 7.10452 18 5.99995 18H3.99902C5.82344 20.4289 8.72812 22 11.9998 22ZM12.9999 8C12.9999 7.44772 12.5521 7 11.9999 7C11.4476 7 10.9999 7.44771 10.9999 8V8.43596C10.6393 8.50237 10.2644 8.63095 9.93039 8.86106C9.36011 9.25391 9.00125 9.88318 8.99986 10.6857C8.99827 11.6092 9.49564 12.2524 10.1511 12.6045C10.7369 12.9191 11.4292 12.9999 11.9999 12.9999C12.4585 12.9999 12.7607 13.0593 12.9173 13.1399C12.9489 13.1561 12.966 13.1691 12.9739 13.176C12.9779 13.1794 12.9807 13.1826 12.9807 13.1826L12.9817 13.1839L12.9823 13.185L12.9834 13.1874C12.9845 13.1898 12.9865 13.1949 12.9887 13.2033C12.9932 13.2201 12.9999 13.2545 12.9999 13.3124C12.9999 13.3169 12.9998 13.3204 12.9996 13.3232C12.991 13.3319 12.9729 13.3478 12.9393 13.3688C12.8013 13.4553 12.5366 13.5459 12.1245 13.599C12.0192 13.5992 11.9222 13.5997 11.8309 13.6001C11.2537 13.6032 10.9031 13.605 10.1239 13.5076C9.57588 13.4391 9.07609 13.8279 9.00758 14.3759C8.93908 14.9239 9.32781 15.4237 9.87583 15.4922C10.3415 15.5504 10.6902 15.5782 10.9999 15.591V16C10.9999 16.5523 11.4476 17 11.9999 17C12.5521 17 12.9999 16.5523 12.9999 16V15.469C13.3492 15.383 13.6956 15.2551 14.0013 15.0636C14.5626 14.7119 14.9999 14.1266 14.9999 13.3124C14.9999 12.8826 14.8985 12.4746 14.6742 12.1184C14.4516 11.7647 14.1462 11.523 13.8324 11.3615C13.239 11.0562 12.5412 10.9999 11.9999 10.9999C11.5705 10.9999 11.2619 10.9309 11.0974 10.8425C11.0621 10.8236 11.0407 10.8075 11.0287 10.7969C11.0172 10.7868 11.0129 10.7801 11.0129 10.7801C11.0129 10.7801 11.0104 10.7763 11.0079 10.7672C11.005 10.757 10.9998 10.7327 10.9999 10.6891C11 10.5935 11.0189 10.5565 11.0222 10.5501C11.0256 10.5436 11.0336 10.5297 11.065 10.5081C11.1461 10.4522 11.3305 10.3851 11.6289 10.3755C11.7026 10.3735 11.744 10.3728 11.7685 10.3726L11.789 10.3726L11.7928 10.3727L11.8129 10.3735C11.8256 10.3741 11.8412 10.3746 11.8605 10.3751C11.8983 10.376 11.9435 10.3763 12.0065 10.3759C12.7339 10.371 13.4073 10.3832 13.7591 10.4705C14.2952 10.6035 14.8375 10.2767 14.9705 9.74064C15.1034 9.2046 14.7766 8.66227 14.2406 8.52932C13.8855 8.44123 13.4378 8.40234 12.9999 8.38587V8Z" fill="#0000CC"/>
<path d="M4 7C3.44772 7 3 7.44772 3 8C3 8.55229 3.44772 9 4 9H6C6.55228 9 7 8.55229 7 8C7 7.44772 6.55228 7 6 7H4Z" fill="#0000CC"/>
<path d="M3 11C2.44772 11 2 11.4477 2 12C2 12.5523 2.44772 13 3 13H6C6.55228 13 7 12.5523 7 12C7 11.4477 6.55228 11 6 11H3Z" fill="#0000CC"/>
<path d="M4 15C3.44772 15 3 15.4477 3 16C3 16.5523 3.44772 17 4 17H6C6.55228 17 7 16.5523 7 16C7 15.4477 6.55228 15 6 15H4Z" fill="#0000CC"/>
</svg>
