<svg width="24" height="24" viewBox="0 0 24 24" fill="none" xmlns="http://www.w3.org/2000/svg">
<path fill-rule="evenodd" clip-rule="evenodd" d="M16 2C16.5523 2 17 2.44772 17 3V5H18C18.5523 5 19 5.44772 19 6C19 6.55228 18.5523 7 18 7H17V17C17 17.5523 16.5523 18 16 18C15.4477 18 15 17.5523 15 17V16.4649C14.4117 16.8052 13.7286 17 13 17C10.7909 17 9 15.2091 9 13C9 10.7909 10.7909 9 13 9C13.7286 9 14.4117 9.19479 15 9.53513V7H14C13.4477 7 13 6.55228 13 6C13 5.44772 13.4477 5 14 5H15V3C15 2.44772 15.4477 2 16 2ZM15 13C15 11.8954 14.1046 11 13 11C11.8954 11 11 11.8954 11 13C11 14.1046 11.8954 15 13 15C14.1046 15 15 14.1046 15 13ZM5 20C5 19.4477 5.44772 19 6 19H18C18.5523 19 19 19.4477 19 20C19 20.5523 18.5523 21 18 21H6C5.44772 21 5 20.5523 5 20Z" fill="#0000CC"/>
</svg>
