<svg width="24" height="24" viewBox="0 0 24 24" fill="none" xmlns="http://www.w3.org/2000/svg">
<path fill-rule="evenodd" clip-rule="evenodd" d="M2 5.5C2 3.567 3.567 2 5.5 2C7.08551 2 8.42479 3.05426 8.85506 4.5H15.1449C15.5752 3.05426 16.9145 2 18.5 2C20.433 2 22 3.567 22 5.5C22 7.08551 20.9457 8.42479 19.5 8.85506V15.1449C20.9457 15.5752 22 16.9145 22 18.5C22 20.433 20.433 22 18.5 22C16.9145 22 15.5752 20.9457 15.1449 19.5H8.85506C8.42479 20.9457 7.08551 22 5.5 22C3.567 22 2 20.433 2 18.5C2 16.9145 3.05426 15.5752 4.5 15.1449V8.85506C3.05426 8.42479 2 7.08551 2 5.5ZM6.5 8.85506V15.1449C7.62889 15.4809 8.51909 16.3711 8.85506 17.5H15.1449C15.4809 16.3711 16.3711 15.4809 17.5 15.1449V8.85506C16.3711 8.51909 15.4809 7.62889 15.1449 6.5H8.85506C8.51909 7.62889 7.62889 8.51909 6.5 8.85506Z" fill="#0000CC"/>
</svg>
