<svg width="24" height="24" viewBox="0 0 24 24" fill="none" xmlns="http://www.w3.org/2000/svg">
<path fill-rule="evenodd" clip-rule="evenodd" d="M2.32698 4.63803C2 5.27976 2 6.11984 2 7.8V16.2C2 17.8802 2 18.7202 2.32698 19.362C2.6146 19.9265 3.07354 20.3854 3.63803 20.673C4.27976 21 5.11984 21 6.8 21H15.8205L11.692 17.3878C11.3795 17.116 10.9861 16.7737 10.6909 16.3389C10.4351 15.962 10.2456 15.5442 10.1304 15.1036C9.99752 14.595 9.99903 14.0736 10.0002 13.6595L10.0004 11.9997C10.0004 11.4475 10.4481 10.9998 11.0003 10.9998L12.8908 10.9997C13.2368 10.9988 13.6726 10.9978 14.1049 11.0925C14.4801 11.1747 14.8414 11.3104 15.1778 11.4956C15.5656 11.709 15.8928 11.9968 16.1527 12.2253L21.9866 17.3301L21.9945 17.3369C22 17.0059 22 16.6305 22 16.2V7.8C22 6.11984 22 5.27976 21.673 4.63803C21.3854 4.07354 20.9265 3.6146 20.362 3.32698C19.7202 3 18.8802 3 17.2 3H6.8C5.11984 3 4.27976 3 3.63803 3.32698C3.07354 3.6146 2.6146 4.07354 2.32698 4.63803ZM6 8C5.44772 8 5 8.44771 5 9V15C5 15.5523 5.44772 16 6 16C6.55228 16 7 15.5523 7 15V9C7 8.44771 6.55228 8 6 8Z" fill="#0000CC"/>
<path d="M12 13.5479C12 14.0823 12 14.3495 12.065 14.5981C12.1225 14.8184 12.2173 15.0273 12.3452 15.2158C12.4896 15.4284 12.6907 15.6043 13.0928 15.9562L19.0065 21.1307C19.5656 21.6199 20.4082 21.5918 20.9335 21.0665C21.5107 20.4893 21.4792 19.5443 20.8649 19.0068L14.9049 13.7918C14.57 13.4988 14.4026 13.3523 14.213 13.2479C14.0447 13.1553 13.8641 13.0874 13.6765 13.0463C13.465 13 13.2426 13 12.7976 13H12.5C12.2239 13 12 13.2239 12 13.5V13.5479Z" fill="#0000CC"/>
</svg>
