<svg width="24" height="24" viewBox="0 0 24 24" fill="none" xmlns="http://www.w3.org/2000/svg">
<path d="M10.2929 2.29289C10.6834 1.90237 11.3166 1.90237 11.7071 2.29289L16 6.58579L20.2929 2.29289C20.6834 1.90237 21.3166 1.90237 21.7071 2.29289C22.0976 2.68342 22.0976 3.31658 21.7071 3.70711L17.4142 8L21.7071 12.2929C22.0976 12.6834 22.0976 13.3166 21.7071 13.7071L18.4142 17L7 5.58579L10.2929 2.29289Z" fill="#0000CC"/>
<path d="M5.58579 7L2.87868 9.70711C2.31607 10.2697 2 11.0328 2 11.8284V19C2 20.6569 3.34315 22 5 22H12.1716C12.9672 22 13.7303 21.6839 14.2929 21.1213L17 18.4142L5.58579 7Z" fill="#0000CC"/>
</svg>
