<svg width="24" height="24" viewBox="0 0 24 24" fill="none" xmlns="http://www.w3.org/2000/svg">
<path d="M7 6C7 5.44772 6.55228 5 6 5C5.44772 5 5 5.44772 5 6V7H2C1.44772 7 1 7.44772 1 8C1 8.55228 1.44772 9 2 9H10C10.5523 9 11 8.55228 11 8C11 7.44772 10.5523 7 10 7H7V6Z" fill="#0000CC"/>
<path d="M19 6C19 5.44772 18.5523 5 18 5C17.4477 5 17 5.44772 17 6V7H14C13.4477 7 13 7.44772 13 8C13 8.55228 13.4477 9 14 9H22C22.5523 9 23 8.55228 23 8C23 7.44772 22.5523 7 22 7H19V6Z" fill="#0000CC"/>
<path d="M7 11C7 10.4477 6.55228 10 6 10C5.44772 10 5 10.4477 5 11L4.99984 11.6812C4.99898 11.9309 4.99789 12.245 5.0915 12.5438C5.17249 12.8022 5.30513 13.0415 5.48137 13.2472C5.6851 13.4849 5.95203 13.6505 6.16424 13.7821L7.55607 14.6518L7.21115 15.3416C7.07229 15.6194 7 15.9256 7 16.2361V18C7 18.5523 7.44772 19 8 19C8.55228 19 9 18.5523 9 18V16.2361L9.26042 15.7152C9.34072 15.7623 9.42966 15.8099 9.52454 15.849C9.66239 15.9059 9.80617 15.9471 9.9532 15.972C10.1224 16.0006 10.2902 16.0003 10.4234 16H13.5766C13.7098 16.0003 13.8775 16.0006 14.0468 15.972C14.1938 15.9471 14.3376 15.9059 14.4755 15.849C14.5703 15.8099 14.6593 15.7623 14.7396 15.7152L15 16.2361V18C15 18.5523 15.4477 19 16 19C16.5523 19 17 18.5523 17 18V16.2361C17 15.9256 16.9277 15.6194 16.7889 15.3416L16.4439 14.6518L17.8358 13.7821C18.048 13.6505 18.3149 13.4849 18.5186 13.2472C18.6949 13.0415 18.8275 12.8022 18.9085 12.5438C19.0021 12.245 19.001 11.9309 19.0002 11.6812L19 11C19 10.4477 18.5523 10 18 10C17.4477 10 17 10.4477 17 11V11.6132C17 11.9594 16.9215 11.9948 16.628 12.1783C15.7278 10.8637 14.2156 10 12.5 10H11.5C9.78445 10 8.27223 10.8637 7.37202 12.1783C7.04812 11.9758 7.00505 11.9939 7 11.6132V11Z" fill="#0000CC"/>
</svg>
