<svg width="24" height="24" viewBox="0 0 24 24" fill="none" xmlns="http://www.w3.org/2000/svg">
<path d="M13.8399 6.32002C13.5198 6.61664 13 6.38966 13 5.9533V2.62386C13 2.32324 13.2637 2.08973 13.5592 2.14464C14.6184 2.3414 15.6767 2.72034 16.5524 3.23475C16.7512 3.35151 16.7509 3.622 16.5818 3.7787L13.8399 6.32002Z" fill="#0000CC"/>
<path d="M20.7407 8.84302C20.6903 8.63826 20.4547 8.56349 20.2711 8.66713L17.0347 10.4938L17.0194 10.5022L15.1339 11.5232C15.052 11.5675 15.001 11.6531 15.001 11.7463C15.001 11.8864 15.1146 11.9999 15.2547 11.9999L20.501 12C20.7772 12 21.001 11.7761 21.001 11.5V11C21.001 10.2577 20.9109 9.53507 20.7407 8.84302Z" fill="#0000CC"/>
<path d="M21 14.5C21 14.2238 20.7761 14 20.5 14L15.5 13.9999C15.2239 13.9999 15 14.2238 15 14.4999V15.4999C15 15.7761 15.2239 15.9999 15.5 15.9999L20.5 16C20.7761 16 21 15.7761 21 15.5V14.5Z" fill="#0000CC"/>
<path d="M21 18.5C21 18.2238 20.7761 18 20.5 18L15.5 17.9999C15.2239 17.9999 15 18.2238 15 18.4999V20C15 21.1045 15.8954 22 17 22H19C20.1046 22 21 21.1045 21 20V18.5Z" fill="#0000CC"/>
<path d="M8.5 15.9999C8.77614 15.9999 9 15.7761 9 15.4999V14.5C9 14.2238 8.77614 14 8.5 14L3.5 13.9999C3.22386 13.9999 3 14.2238 3 14.4999L3 15.4999C3 15.7761 3.22386 15.9999 3.5 15.9999H8.5Z" fill="#0000CC"/>
<path d="M3 18.4999C3 18.2238 3.22386 17.9999 3.5 17.9999H8.5C8.77614 17.9999 9 18.2238 9 18.4999V20C9 21.1045 8.10457 22 7 22H5C3.89543 22 3 21.1045 3 20L3 18.4999Z" fill="#0000CC"/>
<path d="M3 11.4999C3 11.7761 3.22386 11.9999 3.5 11.9999H8.77375C8.8987 11.9999 9 11.8987 9 11.7737C9 11.6921 8.95603 11.6168 8.88495 11.5767L3.72961 8.66722C3.5461 8.56365 3.31071 8.6384 3.26036 8.84302C3.09007 9.53507 3 10.2577 3 11V11.4999Z" fill="#0000CC"/>
<path d="M4.40072 6.17696C4.25286 6.40951 4.3392 6.71447 4.57919 6.84991L9.15545 9.43258C9.26977 9.4971 9.41568 9.4704 9.48754 9.36054C9.55906 9.25121 9.63757 9.14675 9.72247 9.0478C9.83519 8.91643 9.80937 8.72185 9.68241 8.60418L7.17079 6.27633L6.95318 6.07417L5.88386 5.0831C5.68423 4.89807 5.3721 4.90581 5.19394 5.1116C4.90445 5.44597 4.63912 5.80199 4.40072 6.17696Z" fill="#0000CC"/>
<path d="M7.44756 3.23475C7.24893 3.35142 7.2493 3.62172 7.41824 3.77832L10.1601 6.3199C10.4801 6.61655 11 6.38958 11 5.9532V2.62386C11 2.32324 10.7363 2.08973 10.4408 2.14464C9.38163 2.3414 8.32332 2.72034 7.44756 3.23475Z" fill="#0000CC"/>
<path d="M10.9764 8.1517C10.9668 8.16207 10.9776 8.17816 10.9909 8.17353C10.9907 8.17361 10.9912 8.17346 10.9909 8.17353C10.9964 8.17165 11 8.16652 11 8.16078C11 8.14846 10.9848 8.14267 10.9764 8.1517Z" fill="#0000CC"/>
<path d="M14.3168 8.60495C14.19 8.72244 14.1655 8.91663 14.278 9.0478C14.3629 9.14674 14.4415 9.25121 14.513 9.36054C14.5759 9.45677 14.7031 9.48208 14.8042 9.42733L16.0595 8.74766L19.4215 6.85013C19.6615 6.71468 19.7478 6.40974 19.5999 6.17719C19.3615 5.80215 19.0961 5.44606 18.8066 5.11162C18.6284 4.90584 18.3163 4.8981 18.1167 5.08312L14.3168 8.60495Z" fill="#0000CC"/>
</svg>
