<svg width="24" height="24" viewBox="0 0 24 24" fill="none" xmlns="http://www.w3.org/2000/svg">
<path d="M12.2821 2.25592C12.6317 2.42128 12.8264 2.70779 12.9256 2.86682C13.0272 3.02992 13.1316 3.23744 13.2329 3.43873L13.6412 4.24995L13.7837 4.52525C10.7764 5.67541 8.64075 8.58831 8.64075 12C8.64075 15.4146 10.78 18.3295 13.7914 19.4777L13.6356 19.761L13.2329 20.561C13.1316 20.7623 13.0272 20.9698 12.9256 21.1329C12.8264 21.2919 12.6317 21.5784 12.2821 21.7438C11.8761 21.9358 11.4054 21.9358 10.9994 21.7438C10.6498 21.5784 10.455 21.2919 10.3559 21.1329C10.2543 20.9698 10.1499 20.7623 10.0486 20.561L8.91756 18.314L6.44139 19.1444C6.21712 19.2197 5.98885 19.2963 5.79621 19.342C5.61244 19.3856 5.26036 19.456 4.88643 19.3189C4.45664 19.1613 4.12234 18.8161 3.97865 18.3814C3.85364 18.0033 3.93534 17.6536 3.98485 17.4713C4.03675 17.2803 4.12066 17.0546 4.20309 16.8329L5.02033 14.6335L2.79745 13.6237C2.57168 13.5212 2.34471 13.4181 2.16752 13.3175C2.00222 13.2237 1.68499 13.0301 1.50404 12.6628C1.29813 12.2448 1.29813 11.7549 1.50404 11.337C1.68499 10.9696 2.00222 10.776 2.16752 10.6822C2.34472 10.5816 2.57171 10.4785 2.79749 10.376L5.02033 9.36619L4.20308 7.16679C4.12065 6.94508 4.03675 6.71941 3.98485 6.52836C3.93534 6.34608 3.85364 5.99645 3.97865 5.61829C4.12234 5.18365 4.45664 4.83841 4.88643 4.68081C5.26036 4.54369 5.61244 4.61408 5.79621 4.6577C5.98885 4.70342 6.21712 4.78002 6.44138 4.85527L8.91756 5.68566L10.0486 3.43867C10.1499 3.23739 10.2543 3.02991 10.3559 2.86682C10.7644 2.21142 11.5588 1.91386 12.2821 2.25592Z" fill="#0000CC"/>
<path d="M16.6407 18C19.9545 18 22.6407 15.3137 22.6407 12C22.6407 8.68629 19.9545 6 16.6407 6C13.327 6 10.6407 8.68629 10.6407 12C10.6407 15.3137 13.327 18 16.6407 18Z" fill="#0000CC"/>
</svg>
