<svg width="24" height="24" viewBox="0 0 24 24" fill="none" xmlns="http://www.w3.org/2000/svg">
<path fill-rule="evenodd" clip-rule="evenodd" d="M10 5C10 4.44772 10.4477 4 11 4H17C17.5523 4 18 4.44772 18 5C18 5.55228 17.5523 6 17 6H15V7H16C16.2652 7 16.5196 7.10536 16.7071 7.29289L18.7071 9.29289C18.8946 9.48043 19 9.73478 19 10V19C19 19.5523 18.5523 20 18 20H10C9.66565 20 9.35342 19.8329 9.16795 19.5547L7.46482 17H6C5.44772 17 5 16.5523 5 16V13H4V15C4 15.5523 3.55228 16 3 16C2.44772 16 2 15.5523 2 15V9C2 8.44772 2.44772 8 3 8C3.55228 8 4 8.44772 4 9V11H5V8C5 7.44772 5.44772 7 6 7H13V6H11C10.4477 6 10 5.55228 10 5ZM9 12C9.55228 12 10 11.5523 10 11C10 10.4477 9.55228 10 9 10C8.44772 10 8 10.4477 8 11C8 11.5523 8.44772 12 9 12ZM13 11C13 11.5523 12.5523 12 12 12C11.4477 12 11 11.5523 11 11C11 10.4477 11.4477 10 12 10C12.5523 10 13 10.4477 13 11ZM15 12C15.5523 12 16 11.5523 16 11C16 10.4477 15.5523 10 15 10C14.4477 10 14 10.4477 14 11C14 11.5523 14.4477 12 15 12Z" fill="#0000CC"/>
<path d="M21 10C21.5523 10 22 10.4477 22 11V19C22 19.5523 21.5523 20 21 20C20.4477 20 20 19.5523 20 19V11C20 10.4477 20.4477 10 21 10Z" fill="#0000CC"/>
</svg>
