<svg width="24" height="24" viewBox="0 0 24 24" fill="none" xmlns="http://www.w3.org/2000/svg">
<path fill-rule="evenodd" clip-rule="evenodd" d="M6.03642 2.26291C6.63406 1.92311 7.36646 1.92311 7.96409 2.26291C8.25349 2.42746 8.43894 2.66807 8.55937 2.86543C8.68215 3.06665 8.78062 3.29549 8.86564 3.5236C9.03075 3.96657 9.20324 4.57033 9.41089 5.29718L9.4233 5.34059L10.9618 10.7253C11.1135 11.2563 10.806 11.8098 10.275 11.9615C9.74394 12.1133 9.19046 11.8058 9.03873 11.2747L8.38881 9H5.6117L4.96178 11.2747C4.81006 11.8058 4.25657 12.1133 3.72554 11.9615C3.1945 11.8098 2.88701 11.2563 3.03873 10.7253L4.58963 5.29716C4.79728 4.57032 4.96977 3.96657 5.13487 3.5236C5.21989 3.29549 5.31837 3.06665 5.44114 2.86543C5.56157 2.66806 5.74703 2.42746 6.03642 2.26291ZM6.18313 7H7.81738L7.50025 5.89003C7.28182 5.12551 7.13228 4.60481 7.00026 4.24554C6.86823 4.60481 6.7187 5.12551 6.50027 5.89003L6.18313 7ZM15.0265 8.01672C14.7895 8.00055 14.4799 8 14.0003 8C13.448 8 13.0003 7.55229 13.0003 7C13.0003 6.44772 13.448 6 14.0003 6L14.0322 6C14.4709 5.99999 14.8494 5.99998 15.1626 6.02135C15.4925 6.04386 15.8224 6.09336 16.1483 6.22837C16.8834 6.53285 17.4674 7.11687 17.7719 7.85195C17.9069 8.17788 17.9564 8.50779 17.9789 8.83762C18.0003 9.15088 18.0003 9.52937 18.0003 9.96802V10C18.0003 10.5523 17.5525 11 17.0003 11C16.448 11 16.0003 10.5523 16.0003 10C16.0003 9.52038 15.9997 9.21074 15.9835 8.97376C15.968 8.74577 15.9414 8.65893 15.9241 8.61732C15.8226 8.37229 15.628 8.17762 15.3829 8.07613C15.3413 8.05889 15.2545 8.03227 15.0265 8.01672ZM17.0003 12.5C17.5525 12.5 18.0003 12.9477 18.0003 13.5V14H20.0003C20.5525 14 21.0003 14.4477 21.0003 15C21.0003 15.5523 20.5525 16 20.0003 16H19.9813C19.879 17.3449 19.3676 18.5752 18.5711 19.5669C19.039 19.7892 19.551 19.9331 20.09 19.9816C20.64 20.0312 21.0458 20.5173 20.9962 21.0673C20.9467 21.6174 20.4606 22.0231 19.9105 21.9736C18.8449 21.8775 17.8542 21.5248 17.0002 20.9781C16.1458 21.525 15.155 21.8776 14.09 21.9735C13.54 22.0231 13.0539 21.6174 13.0043 21.0673C12.9547 20.5173 13.3605 20.0312 13.9105 19.9816C14.4499 19.933 14.9618 19.7891 15.4294 19.5669C15.1534 19.2232 14.9117 18.8508 14.7095 18.4552C14.4581 17.9634 14.6529 17.361 15.1447 17.1096C15.6365 16.8582 16.2389 17.0531 16.4903 17.5448C16.6332 17.8244 16.8044 18.087 17.0001 18.3288C17.5269 17.6777 17.8758 16.8768 17.9728 16H14.0003C13.448 16 13.0003 15.5523 13.0003 15C13.0003 14.4477 13.448 14 14.0003 14H16.0003V13.5C16.0003 12.9477 16.448 12.5 17.0003 12.5ZM7.00026 14C7.55254 14 8.00026 14.4477 8.00026 15C8.00026 15.4796 8.0008 15.7893 8.01697 16.0262C8.03252 16.2542 8.05914 16.3411 8.07638 16.3827C8.17787 16.6277 8.37255 16.8224 8.61757 16.9239C8.65919 16.9411 8.74602 16.9677 8.97402 16.9833C9.211 16.9995 9.52063 17 10.0003 17C10.5525 17 11.0003 17.4477 11.0003 18C11.0003 18.5523 10.5525 19 10.0003 19H9.96827C9.52962 19 9.15113 19 8.83787 18.9787C8.50805 18.9562 8.17813 18.9066 7.85221 18.7716C7.11712 18.4672 6.5331 17.8831 6.22862 17.1481C6.09362 16.8221 6.04411 16.4922 6.02161 16.1624C6.00023 15.8491 6.00024 15.4706 6.00026 15.032L6.00026 15C6.00026 14.4477 6.44797 14 7.00026 14Z" fill="#0000CC"/>
</svg>
