<svg width="24" height="24" viewBox="0 0 24 24" fill="none" xmlns="http://www.w3.org/2000/svg">
<path fill-rule="evenodd" clip-rule="evenodd" d="M18.9754 5.01031C18.8588 5.00078 18.6965 5.00001 18.4 5.00001H15C14.4477 5.00001 14 4.55229 14 4.00001C14 3.44772 14.4477 3.00001 15 3.00001L18.4319 3C18.6843 2.99997 18.9301 2.99994 19.1382 3.01695C19.3668 3.03563 19.6366 3.07969 19.908 3.21799C20.2843 3.40974 20.5903 3.7157 20.782 4.09202C20.9203 4.36345 20.9644 4.63318 20.9831 4.86178C21.0001 5.06993 21 5.31571 21 5.56809L21 9.00001C21 9.55229 20.5523 10 20 10C19.4477 10 19 9.55229 19 9.00001V5.60001C19 5.30348 18.9992 5.14122 18.9897 5.02464C18.9893 5.02 18.9889 5.0156 18.9886 5.01145C18.9844 5.01107 18.98 5.01069 18.9754 5.01031ZM5.5681 3C5.57873 3.00001 5.58936 3.00001 5.6 3.00001L9 3.00001C9.55229 3 10 3.44772 10 4.00001C10 4.55229 9.55229 5 9.00001 5.00001L5.6 5.00001C5.30348 5.00001 5.14122 5.00079 5.02464 5.01031C5.02 5.01069 5.0156 5.01107 5.01145 5.01146C5.01107 5.01561 5.01069 5.02 5.01031 5.02464C5.00078 5.14123 5.00001 5.30348 5.00001 5.60001V9.00001C5.00001 9.55229 4.55229 10 4.00001 10C3.44772 10 3.00001 9.55229 3.00001 9.00001V5.60001C3.00001 5.58936 3 5.57873 3 5.56811C2.99997 5.31573 2.99994 5.06994 3.01695 4.86178C3.03563 4.63318 3.07969 4.36345 3.21799 4.09203C3.40974 3.7157 3.7157 3.40974 4.09202 3.218C4.36345 3.0797 4.63318 3.03563 4.86177 3.01695C5.06993 2.99995 5.31572 2.99997 5.5681 3ZM4.00001 14C4.55229 14 5.00001 14.4477 5.00001 15V18.4C5.00001 18.6965 5.00078 18.8588 5.01031 18.9754C5.01069 18.98 5.01107 18.9844 5.01145 18.9886C5.0156 18.9889 5.02 18.9893 5.02464 18.9897C5.14122 18.9992 5.30348 19 5.6 19L9.00001 19C9.55229 19 10 19.4477 10 20C10 20.5523 9.55229 21 9 21L5.56809 21C5.31571 21 5.06993 21.0001 4.86177 20.9831C4.63318 20.9644 4.36345 20.9203 4.09202 20.782C3.7157 20.5903 3.40974 20.2843 3.21799 19.908C3.07969 19.6366 3.03563 19.3668 3.01695 19.1382C2.99994 18.9301 2.99997 18.6843 3 18.4319L3.00001 15C3.00001 14.4477 3.44772 14 4.00001 14ZM20 14C20.5523 14 21 14.4477 21 15L21 18.4319C21 18.6843 21.0001 18.9301 20.9831 19.1382C20.9644 19.3668 20.9203 19.6366 20.782 19.908C20.5903 20.2843 20.2843 20.5903 19.908 20.782C19.6366 20.9203 19.3668 20.9644 19.1382 20.9831C18.9301 21.0001 18.6843 21 18.4319 21L15 21C14.4477 21 14 20.5523 14 20C14 19.4477 14.4477 19 15 19H18.4C18.6965 19 18.8588 18.9992 18.9754 18.9897C18.98 18.9893 18.9844 18.9889 18.9886 18.9886C18.9889 18.9844 18.9893 18.98 18.9897 18.9754C18.9992 18.8588 19 18.6965 19 18.4V15C19 14.4477 19.4477 14 20 14Z" fill="#0000CC"/>
</svg>
