<svg width="24" height="24" viewBox="0 0 24 24" fill="none" xmlns="http://www.w3.org/2000/svg">
<path fill-rule="evenodd" clip-rule="evenodd" d="M3.70613 2.29289C3.31561 1.90237 2.68244 1.90237 2.29192 2.29289C1.90139 2.68342 1.90139 3.31658 2.29192 3.70711L5.05416 6.46935C3.40625 7.81274 2.1551 9.62407 1.50298 11.7003C1.44171 11.8954 1.44171 12.1045 1.50298 12.2996C2.90438 16.7615 7.07231 20 11.9992 20C13.9019 20 15.6913 19.5171 17.252 18.6672L20.2919 21.7071C20.6824 22.0976 21.3156 22.0976 21.7061 21.7071C22.0967 21.3166 22.0967 20.6834 21.7061 20.2929L3.70613 2.29289ZM14.031 15.4462L12.5171 13.9323C12.3518 13.9764 12.1782 14 11.999 14C10.8945 14 9.99902 13.1046 9.99902 12C9.99902 11.8208 10.0226 11.6472 10.0668 11.482L8.55284 9.96803C8.20095 10.5635 7.99902 11.2582 7.99902 12C7.99902 14.2091 9.78988 16 11.999 16C12.7408 16 13.4355 15.7981 14.031 15.4462Z" fill="#0000CC"/>
<path d="M15.9931 11.78C15.8828 9.74602 14.253 8.11618 12.219 8.00595L8.71244 4.4994C9.75025 4.1749 10.8542 4 11.9992 4C16.9261 4 21.0941 7.23846 22.4955 11.7004C22.5567 11.8955 22.5567 12.1046 22.4955 12.2997C22.0462 13.7302 21.3125 15.035 20.3606 16.1476L15.9931 11.78Z" fill="#0000CC"/>
</svg>
