<svg width="24" height="24" viewBox="0 0 24 24" fill="none" xmlns="http://www.w3.org/2000/svg">
<path fill-rule="evenodd" clip-rule="evenodd" d="M3.70711 2.29289C3.31658 1.90237 2.68342 1.90237 2.29289 2.29289C1.90237 2.68342 1.90237 3.31658 2.29289 3.70711L5.22786 6.64207C3.24335 8.46952 2 11.0896 2 14C2 14.5523 2.44772 15 3 15C3.55228 15 4 14.5523 4 14C4 11.6418 5.02032 9.52196 6.64358 8.05779L8.06031 9.47453C6.79786 10.5745 6 12.1941 6 14C6 17.3137 8.68629 20 12 20C13.8059 20 15.4255 19.2021 16.5255 17.9397L20.2929 21.7071C20.6834 22.0976 21.3166 22.0976 21.7071 21.7071C22.0976 21.3166 22.0976 20.6834 21.7071 20.2929L3.70711 2.29289Z" fill="#0000CC"/>
<path d="M12.2179 8.00388L17.9961 13.7821C17.884 10.6416 15.3584 8.11599 12.2179 8.00388Z" fill="#0000CC"/>
<path d="M8.75298 4.53896L10.3785 6.16443C10.9021 6.05663 11.4444 6 12 6C16.4183 6 20 9.58172 20 14C20 14.5523 20.4477 15 21 15C21.5523 15 22 14.5523 22 14C22 8.47715 17.5228 4 12 4C10.8634 4 9.77109 4.18962 8.75298 4.53896Z" fill="#0000CC"/>
</svg>
