<svg width="24" height="24" viewBox="0 0 24 24" fill="none" xmlns="http://www.w3.org/2000/svg">
<path d="M20.7071 3.29319C19.212 1.7981 16.788 1.7981 15.2929 3.2932L12.5 6.08609L11.7071 5.29319C11.3166 4.90267 10.6834 4.90267 10.2929 5.29319C9.90237 5.68372 9.90237 6.31688 10.2929 6.70741L17.2929 13.7074C17.6834 14.0979 18.3166 14.0979 18.7071 13.7074C19.0976 13.3169 19.0976 12.6837 18.7071 12.2932L17.9142 11.5003L20.7071 8.70741C22.2022 7.21231 22.2022 4.78829 20.7071 3.29319Z" fill="#0000CC"/>
<path d="M5.62673 12.9594L9.6757 8.91016L11.0899 10.3244L7.41423 14.0003H12.5858L13.6759 12.9103L15.0901 14.3245L11.041 18.3736C10.5922 18.8229 10.2531 19.1623 9.84737 19.4109C9.48948 19.6302 9.0993 19.7918 8.69116 19.8898C8.22847 20.0009 7.74867 20.0007 7.11368 20.0004L6.30279 20.0004L3.55472 21.8324C3.15809 22.0968 2.62997 22.0445 2.29291 21.7075C1.95585 21.3704 1.90355 20.8423 2.16797 20.4456L4.00002 17.6976L3.99998 16.8867C3.99968 16.2517 3.99945 15.7719 4.11054 15.3092C4.16822 15.069 4.24795 14.8349 4.34852 14.61C4.35516 14.5944 4.36219 14.5789 4.36959 14.5637C4.43475 14.4228 4.50813 14.2857 4.58946 14.153C4.83808 13.7473 5.17752 13.4082 5.62673 12.9594Z" fill="#0000CC"/>
</svg>
