<svg width="24" height="24" viewBox="0 0 24 24" fill="none" xmlns="http://www.w3.org/2000/svg">
<path fill-rule="evenodd" clip-rule="evenodd" d="M12 22C17.5228 22 22 17.5228 22 12C22 6.47715 17.5228 2 12 2C6.47715 2 2 6.47715 2 12C2 17.5228 6.47715 22 12 22ZM8.79957 14.3994C8.46788 13.9578 7.84101 13.8687 7.39942 14.2004C6.95783 14.5321 6.86874 15.159 7.20043 15.6006C8.29339 17.0557 10.0367 18 12.0004 18C13.964 18 15.7073 17.0557 16.8003 15.6006C17.132 15.159 17.0429 14.5321 16.6013 14.2004C16.1597 13.8687 15.5329 13.9578 15.2012 14.3994C14.4697 15.3732 13.3084 16 12.0004 16C10.6924 16 9.53103 15.3732 8.79957 14.3994ZM7.85156 9.3501C7.85156 8.52167 8.52314 7.8501 9.35156 7.8501C10.18 7.8501 10.8516 8.52167 10.8516 9.3501C10.8516 10.1785 10.18 10.8501 9.35156 10.8501C8.52313 10.8501 7.85156 10.1785 7.85156 9.3501ZM13.25 9.3001C13.25 8.49928 13.8992 7.8501 14.7 7.8501C15.5008 7.8501 16.15 8.49928 16.15 9.3001C16.15 10.1009 15.5008 10.7501 14.7 10.7501C13.8992 10.7501 13.25 10.1009 13.25 9.3001Z" fill="#0000CC"/>
</svg>
