<svg width="24" height="24" viewBox="0 0 24 24" fill="none" xmlns="http://www.w3.org/2000/svg">
<path fill-rule="evenodd" clip-rule="evenodd" d="M12 2C6.47715 2 2 6.47715 2 12C2 17.5228 6.47715 22 12 22C17.5228 22 22 17.5228 22 12C22 6.47715 17.5228 2 12 2ZM15.5 11C15.1833 11 14.8726 11.1038 14.5847 11.3113C14.1366 11.6342 13.5116 11.5327 13.1887 11.0847C12.8658 10.6366 12.9673 10.0116 13.4153 9.68872C14.01 9.2602 14.7238 9 15.5 9C16.2762 9 16.99 9.2602 17.5847 9.68872C18.0327 10.0116 18.1342 10.6366 17.8113 11.0847C17.4884 11.5327 16.8634 11.6342 16.4153 11.3113C16.1274 11.1038 15.8167 11 15.5 11ZM8.79957 14.3994C8.46788 13.9578 7.84101 13.8687 7.39942 14.2004C6.95783 14.5321 6.86874 15.159 7.20043 15.6006C8.29339 17.0557 10.0367 18 12.0004 18C13.964 18 15.7073 17.0557 16.8003 15.6006C17.132 15.159 17.0429 14.5321 16.6013 14.2004C16.1597 13.8687 15.5329 13.9578 15.2012 14.3994C14.4697 15.3732 13.3084 16 12.0004 16C10.6924 16 9.53103 15.3732 8.79957 14.3994ZM7.85156 10.3501C7.85156 9.52167 8.52314 8.8501 9.35156 8.8501C10.18 8.8501 10.8516 9.52167 10.8516 10.3501C10.8516 11.1785 10.18 11.8501 9.35156 11.8501C8.52313 11.8501 7.85156 11.1785 7.85156 10.3501Z" fill="#0000CC"/>
</svg>
