<svg width="24" height="24" viewBox="0 0 24 24" fill="none" xmlns="http://www.w3.org/2000/svg">
<path fill-rule="evenodd" clip-rule="evenodd" d="M22 12C22 17.5228 17.5228 22 12 22C6.47715 22 2 17.5228 2 12C2 6.47715 6.47715 2 12 2C17.5228 2 22 6.47715 22 12ZM3.24877 8.84662C3.03823 7.34273 4.20608 6 5.72463 6H9.27537C10.3115 6 11.1844 6.62511 11.5675 7.5H12.4325C12.8156 6.62511 13.6885 6 14.7246 6H18.2754C19.7939 6 20.9618 7.34273 20.7512 8.84662L20.4712 10.8466C20.2984 12.0814 19.2422 13 17.9954 13H15.0046C13.7578 13 12.7016 12.0814 12.5288 10.8466L12.3402 9.5H11.6598L11.4712 10.8466C11.2984 12.0814 10.2422 13 8.99537 13H6.00463C4.75784 13 3.70164 12.0814 3.52877 10.8466L3.24877 8.84662ZM8.79957 14.3994C8.46788 13.9578 7.84101 13.8687 7.39942 14.2004C6.95783 14.5321 6.86874 15.159 7.20043 15.6006C8.29339 17.0557 10.0367 18 12.0004 18C13.964 18 15.7073 17.0557 16.8003 15.6006C17.132 15.159 17.0429 14.5321 16.6013 14.2004C16.1597 13.8687 15.5329 13.9578 15.2012 14.3994C14.4697 15.3732 13.3084 16 12.0004 16C10.6924 16 9.53103 15.3732 8.79957 14.3994Z" fill="#0000CC"/>
</svg>
