<svg width="24" height="24" viewBox="0 0 24 24" fill="none" xmlns="http://www.w3.org/2000/svg">
<path fill-rule="evenodd" clip-rule="evenodd" d="M2 12C2 6.47715 6.47715 2 12 2C17.5228 2 22 6.47715 22 12C22 17.5228 17.5228 22 12 22C6.47715 22 2 17.5228 2 12ZM11.9072 12C9.49549 12 7.4508 13.7734 7.10973 16.1608C6.9618 17.1963 7.8936 18.033 8.8869 17.8315C9.72252 17.6621 11.0598 17.4286 12 17.4286C12.9402 17.4286 14.2775 17.6621 15.1131 17.8315C16.1064 18.033 17.0382 17.1963 16.8903 16.1608C16.5492 13.7734 14.5045 12 12.0928 12H11.9072ZM6.08085 7.60608C6.29841 7.09845 6.88629 6.8633 7.39392 7.08085L10.8939 8.58085C11.4015 8.79841 11.6367 9.38629 11.4191 9.89392C11.307 10.1556 11.0964 10.3449 10.8491 10.4371C10.804 11.225 10.1508 11.8501 9.35156 11.8501C8.52313 11.8501 7.85156 11.1785 7.85156 10.3501C7.85156 10.0566 7.93587 9.78275 8.08159 9.55151L6.60608 8.91915C6.09845 8.70159 5.8633 8.11371 6.08085 7.60608ZM16.15 10.3001C16.15 10.0228 16.0722 9.76373 15.9372 9.54346L17.3939 8.91915C17.9015 8.70159 18.1367 8.11371 17.9191 7.60608C17.7016 7.09845 17.1137 6.8633 16.6061 7.08085L13.1061 8.58085C12.5985 8.79841 12.3633 9.38629 12.5809 9.89392C12.7092 10.1934 12.9664 10.398 13.2599 10.4708C13.3444 11.1912 13.9569 11.7501 14.7 11.7501C15.5008 11.7501 16.15 11.1009 16.15 10.3001Z" fill="#0000CC"/>
</svg>
