<svg width="24" height="24" viewBox="0 0 24 24" fill="none" xmlns="http://www.w3.org/2000/svg">
<path fill-rule="evenodd" clip-rule="evenodd" d="M9.30156 7.84998C8.50075 7.84998 7.85156 8.49916 7.85156 9.29998C7.85156 10.1008 8.50075 10.75 9.30156 10.75C10.1024 10.75 10.7516 10.1008 10.7516 9.29998C10.7516 8.49916 10.1024 7.84998 9.30156 7.84998ZM14.7 7.84998C13.8992 7.84998 13.25 8.49916 13.25 9.29998C13.25 10.1008 13.8992 10.75 14.7 10.75C15.5008 10.75 16.15 10.1008 16.15 9.29998C16.15 8.49916 15.5008 7.84998 14.7 7.84998ZM9 15C8.44771 15 8 15.4477 8 16C8 16.5523 8.44771 17 9 17H15C15.5523 17 16 16.5523 16 16C16 15.4477 15.5523 15 15 15H9Z" fill="#0000CC"/>
<path d="M10.435 4.15281C10.9403 4.05267 11.4635 4 12 4C12.5343 4 13.0555 4.05225 13.5589 4.15161C14.1008 4.25855 14.6267 3.90601 14.7337 3.36417C14.8406 2.82234 14.488 2.29641 13.9462 2.18947C13.3159 2.06506 12.6651 2 12 2C11.3323 2 10.6789 2.06558 10.0462 2.19096C9.50446 2.29833 9.15232 2.82454 9.25968 3.36628C9.36705 3.90803 9.89325 4.26017 10.435 4.15281Z" fill="#0000CC"/>
<path d="M17.5563 3.68454C17.0973 3.37733 16.4762 3.50034 16.169 3.95929C15.8618 4.41824 15.9848 5.03934 16.4437 5.34656C17.3169 5.93106 18.0689 6.68305 18.6534 7.55626C18.9607 8.01521 19.5818 8.13822 20.0407 7.83101C20.4997 7.52379 20.6227 6.90269 20.3155 6.44374C19.5855 5.3532 18.6468 4.41452 17.5563 3.68454Z" fill="#0000CC"/>
<path d="M7.55626 5.34656C8.01521 5.03934 8.13822 4.41824 7.83101 3.95929C7.52379 3.50034 6.90269 3.37733 6.44374 3.68454C5.3532 4.41452 4.41452 5.3532 3.68454 6.44374C3.37733 6.90269 3.50034 7.52379 3.95929 7.83101C4.41824 8.13822 5.03934 8.01521 5.34656 7.55626C5.93106 6.68305 6.68305 5.93106 7.55626 5.34656Z" fill="#0000CC"/>
<path d="M21.8072 10.0372C21.6994 9.49556 21.1729 9.14391 20.6312 9.25177C20.0896 9.35963 19.7379 9.88616 19.8458 10.4278C19.9468 10.9354 20 11.461 20 12C20 12.5325 19.9481 13.0518 19.8494 13.5536C19.7429 14.0955 20.0958 14.6212 20.6377 14.7278C21.1796 14.8344 21.7053 14.4815 21.8118 13.9396C21.9354 13.3113 22 12.6627 22 12C22 11.3291 21.9338 10.6727 21.8072 10.0372Z" fill="#0000CC"/>
<path d="M4.15228 10.4377C4.25946 9.89589 3.90714 9.3698 3.36535 9.26263C2.82357 9.15545 2.29748 9.50777 2.1903 10.0496C2.06535 10.6812 2 11.3335 2 12C2 12.6665 2.06535 13.3188 2.19029 13.9504C2.29747 14.4922 2.82355 14.8445 3.36534 14.7373C3.90713 14.6302 4.25945 14.1041 4.15227 13.5623C4.05248 13.0578 4 12.5355 4 12C4 11.4645 4.05248 10.9422 4.15228 10.4377Z" fill="#0000CC"/>
<path d="M5.34656 16.4437C5.03934 15.9848 4.41824 15.8618 3.95929 16.169C3.50034 16.4762 3.37733 17.0973 3.68454 17.5563C4.41452 18.6468 5.3532 19.5855 6.44374 20.3155C6.90269 20.6227 7.52379 20.4997 7.83101 20.0407C8.13822 19.5818 8.01521 18.9607 7.55626 18.6534C6.68305 18.0689 5.93106 17.3169 5.34656 16.4437Z" fill="#0000CC"/>
<path d="M20.3155 17.5563C20.6227 17.0973 20.4997 16.4762 20.0407 16.169C19.5818 15.8618 18.9607 15.9848 18.6534 16.4437C18.0689 17.3169 17.3169 18.0689 16.4437 18.6534C15.9848 18.9607 15.8618 19.5818 16.169 20.0407C16.4762 20.4997 17.0973 20.6227 17.5563 20.3155C18.6468 19.5855 19.5855 18.6468 20.3155 17.5563Z" fill="#0000CC"/>
<path d="M10.4324 19.8467C9.89064 19.7391 9.36431 20.0911 9.25677 20.6328C9.14922 21.1745 9.50118 21.7008 10.0429 21.8084C10.6766 21.9342 11.3311 22 12 22C12.6657 22 13.3171 21.9348 13.9479 21.8102C14.4897 21.7032 14.8422 21.1772 14.7352 20.6354C14.6281 20.0935 14.1021 19.7411 13.5603 19.8481C13.0564 19.9477 12.5348 20 12 20C11.4626 20 10.9385 19.9471 10.4324 19.8467Z" fill="#0000CC"/>
</svg>
