<svg width="24" height="24" viewBox="0 0 24 24" fill="none" xmlns="http://www.w3.org/2000/svg">
<path fill-rule="evenodd" clip-rule="evenodd" d="M2 12C2 6.47715 6.47715 2 12 2C17.5228 2 22 6.47715 22 12C22 17.5228 17.5228 22 12 22C6.47715 22 2 17.5228 2 12ZM14.5847 10.3113C14.8726 10.1038 15.1833 10 15.5 10C15.8167 10 16.1274 10.1038 16.4153 10.3113C16.8634 10.6342 17.4884 10.5327 17.8113 10.0847C18.1342 9.6366 18.0327 9.01162 17.5847 8.68872C16.99 8.2602 16.2762 8 15.5 8C14.7238 8 14.01 8.2602 13.4153 8.68872C12.9673 9.01162 12.8658 9.6366 13.1887 10.0847C13.5116 10.5327 14.1366 10.6342 14.5847 10.3113ZM8.5 10C8.18334 10 7.87256 10.1038 7.58466 10.3113C7.1366 10.6342 6.51162 10.5327 6.18872 10.0847C5.86582 9.6366 5.96728 9.01162 6.41534 8.68872C7.00996 8.2602 7.7238 8 8.5 8C9.2762 8 9.99004 8.2602 10.5847 8.68872C11.0327 9.01162 11.1342 9.6366 10.8113 10.0847C10.4884 10.5327 9.8634 10.6342 9.41534 10.3113C9.12744 10.1038 8.81666 10 8.5 10ZM8.79957 14.3994C8.46788 13.9578 7.84101 13.8687 7.39942 14.2004C6.95783 14.5321 6.86874 15.159 7.20043 15.6006C8.29339 17.0557 10.0367 18 12.0004 18C13.964 18 15.7073 17.0557 16.8003 15.6006C17.132 15.159 17.0429 14.5321 16.6013 14.2004C16.1597 13.8687 15.5329 13.9578 15.2012 14.3994C14.4697 15.3732 13.3084 16 12.0004 16C10.6924 16 9.53103 15.3732 8.79957 14.3994Z" fill="#0000CC"/>
</svg>
