<svg width="24" height="24" viewBox="0 0 24 24" fill="none" xmlns="http://www.w3.org/2000/svg">
<path d="M5 2C3.34315 2 2 3.34315 2 5V7C2 7.55228 2.44772 8 3 8C3.55228 8 4 7.55228 4 7V5C4 4.44772 4.44772 4 5 4H7C7.55228 4 8 3.55228 8 3C8 2.44772 7.55228 2 7 2H5Z" fill="#0000CC"/>
<path d="M17 2C16.4477 2 16 2.44772 16 3C16 3.55228 16.4477 4 17 4H19C19.5523 4 20 4.44772 20 5V7C20 7.55228 20.4477 8 21 8C21.5523 8 22 7.55228 22 7V5C22 3.34315 20.6569 2 19 2H17Z" fill="#0000CC"/>
<path d="M4 17C4 16.4477 3.55228 16 3 16C2.44772 16 2 16.4477 2 17V19C2 20.6569 3.34315 22 5 22H7C7.55228 22 8 21.5523 8 21C8 20.4477 7.55228 20 7 20H5C4.44772 20 4 19.5523 4 19V17Z" fill="#0000CC"/>
<path d="M22 17C22 16.4477 21.5523 16 21 16C20.4477 16 20 16.4477 20 17V19C20 19.5523 19.5523 20 19 20H17C16.4477 20 16 20.4477 16 21C16 21.5523 16.4477 22 17 22H19C20.6569 22 22 20.6569 22 19V17Z" fill="#0000CC"/>
<path d="M8.90039 10.1999C8.90039 9.48193 9.48242 8.8999 10.2004 8.8999C10.9184 8.8999 11.5004 9.48193 11.5004 10.1999C11.5004 10.9179 10.9184 11.4999 10.2004 11.4999C9.48242 11.4999 8.90039 10.9179 8.90039 10.1999Z" fill="#0000CC"/>
<path d="M12.5 10.2C12.5 9.48203 13.082 8.9 13.8 8.9C14.518 8.9 15.1 9.48203 15.1 10.2C15.1 10.918 14.518 11.5 13.8 11.5C13.082 11.5 12.5 10.918 12.5 10.2Z" fill="#0000CC"/>
<path d="M8.99967 12.3998C9.4392 12.0701 10.0618 12.157 10.3945 12.5929C10.3961 12.5949 10.4003 12.6002 10.4072 12.6085C10.422 12.6261 10.4484 12.6564 10.4857 12.6954C10.5611 12.7741 10.6762 12.8826 10.8253 12.991C11.1274 13.2107 11.5252 13.3998 11.9997 13.3998C12.4741 13.3998 12.8719 13.2107 13.174 12.991C13.3231 12.8826 13.4382 12.7741 13.5136 12.6954C13.5509 12.6564 13.5773 12.6261 13.5921 12.6085C13.599 12.6002 13.6033 12.5949 13.6049 12.5929C13.9376 12.157 14.5601 12.0701 14.9997 12.3998C15.4415 12.7311 15.531 13.3579 15.1997 13.7998L15.1987 13.8011L15.1976 13.8025L15.1952 13.8057L15.1893 13.8134L15.1732 13.8339C15.1606 13.8499 15.1442 13.8702 15.124 13.8942C15.0838 13.9422 15.0281 14.0056 14.9576 14.0792C14.8174 14.2255 14.6137 14.4169 14.3503 14.6085C13.8274 14.9888 13.0252 15.3998 11.9997 15.3998C10.9741 15.3998 10.1719 14.9888 9.649 14.6085C9.3856 14.4169 9.18194 14.2255 9.04174 14.0792C8.97123 14.0056 8.91558 13.9422 8.8753 13.8942C8.85512 13.8702 8.8387 13.8499 8.8261 13.8339L8.81003 13.8134L8.80413 13.8057L8.80172 13.8025L8.80065 13.8011L8.79967 13.7998C8.4683 13.3579 8.55784 12.7311 8.99967 12.3998Z" fill="#0000CC"/>
<path fill-rule="evenodd" clip-rule="evenodd" d="M5 12C5 8.13401 8.13401 5 12 5C15.866 5 19 8.13401 19 12C19 15.866 15.866 19 12 19C8.13401 19 5 15.866 5 12ZM12 7C9.23858 7 7 9.23858 7 12C7 14.7614 9.23858 17 12 17C14.7614 17 17 14.7614 17 12C17 9.23858 14.7614 7 12 7Z" fill="#0000CC"/>
</svg>
