<svg width="24" height="24" viewBox="0 0 24 24" fill="none" xmlns="http://www.w3.org/2000/svg">
<path fill-rule="evenodd" clip-rule="evenodd" d="M12 22C17.5228 22 22 17.5228 22 12C22 6.47715 17.5228 2 12 2C6.47715 2 2 6.47715 2 12C2 17.5228 6.47715 22 12 22ZM9.30156 7.84998C8.50075 7.84998 7.85156 8.49916 7.85156 9.29998C7.85156 10.1008 8.50075 10.75 9.30156 10.75C10.1024 10.75 10.7516 10.1008 10.7516 9.29998C10.7516 8.49916 10.1024 7.84998 9.30156 7.84998ZM14.7 7.84998C13.8992 7.84998 13.25 8.49916 13.25 9.29998C13.25 10.1008 13.8992 10.75 14.7 10.75C15.5008 10.75 16.15 10.1008 16.15 9.29998C16.15 8.49916 15.5008 7.84998 14.7 7.84998ZM11.9072 12C9.49549 12 7.4508 13.7734 7.10973 16.1608C6.9618 17.1963 7.8936 18.033 8.8869 17.8315C9.72252 17.6621 11.0598 17.4286 12 17.4286C12.9402 17.4286 14.2775 17.6621 15.1131 17.8315C16.1064 18.033 17.0382 17.1963 16.8903 16.1608C16.5492 13.7734 14.5045 12 12.0928 12H11.9072Z" fill="#0000CC"/>
</svg>
