<svg width="24" height="24" viewBox="0 0 24 24" fill="none" xmlns="http://www.w3.org/2000/svg">
<path fill-rule="evenodd" clip-rule="evenodd" d="M22 12C22 17.5228 17.5228 22 12 22C6.47715 22 2 17.5228 2 12C2 6.47715 6.47715 2 12 2C17.5228 2 22 6.47715 22 12ZM9.35156 7.84998C8.52314 7.84998 7.85156 8.52155 7.85156 9.34998C7.85156 10.1784 8.52313 10.85 9.35156 10.85C10.18 10.85 10.8516 10.1784 10.8516 9.34998C10.8516 8.52155 10.18 7.84998 9.35156 7.84998ZM14.7 7.84998C13.8992 7.84998 13.25 8.49916 13.25 9.29998C13.25 10.1008 13.8992 10.75 14.7 10.75C15.5008 10.75 16.15 10.1008 16.15 9.29998C16.15 8.49916 15.5008 7.84998 14.7 7.84998ZM16.2425 14.9701C16.7783 14.8362 17.1041 14.2933 16.9701 13.7575C16.8362 13.2217 16.2933 12.8959 15.7575 13.0299L7.75746 15.0299C7.22167 15.1638 6.89591 15.7067 7.02986 16.2425C7.16381 16.7783 7.70674 17.1041 8.24254 16.9701L16.2425 14.9701Z" fill="#0000CC"/>
</svg>
