<svg width="24" height="24" viewBox="0 0 24 24" fill="none" xmlns="http://www.w3.org/2000/svg">
<path fill-rule="evenodd" clip-rule="evenodd" d="M6.03814 17.4023C6.02162 17.5714 5.96554 17.7156 5.94401 17.7646L5.94265 17.7676L5.93886 17.7756L5.93503 17.7836L5.93368 17.7864C5.93052 17.7928 5.9278 17.7982 5.91235 17.8283C5.84524 17.9592 5.65261 18.3109 5.39549 18.6157C5.26752 18.7674 5.14854 18.8773 5.04907 18.9434C4.98286 18.9874 4.94709 18.9979 4.93818 19H4C3.44772 19 3 19.4477 3 20C3 20.5523 3.44772 21 4 21H19C19.5523 21 20 20.5523 20 20C20 19.4477 19.5523 19 19 19H18.5C18.2239 19 18 18.7761 18 18.5C18 18.2239 18.2239 18 18.5 18H21C21.4905 18 21.9085 17.6443 21.9871 17.1602C22.0655 16.6771 21.7828 16.2085 21.3193 16.0523L21.3167 16.0515L21.3148 16.0508C21.3091 16.0488 21.2984 16.0449 21.2833 16.0393C21.2531 16.0281 21.2057 16.0098 21.1459 15.9846C21.0249 15.9337 20.8594 15.8572 20.6836 15.7568C20.2981 15.5365 20.01 15.2839 19.8944 15.0528C19.8424 14.9487 19.7905 14.7516 19.7771 14.4266C19.764 14.112 19.7892 13.7468 19.8359 13.3506C19.872 13.044 19.9176 12.745 19.9628 12.4484C19.9763 12.3597 19.9898 12.2711 20.003 12.1827C20.0557 11.8291 20.1111 11.4338 20.1111 11.1111C20.1111 6.57522 16.2227 3 11.5556 3C6.88843 3 3 6.57522 3 11.1111C3 12.4563 3.6883 13.6728 4.32426 14.6075C4.5826 14.9872 4.85853 15.3562 5.10469 15.6855C5.1683 15.7705 5.22993 15.853 5.28877 15.9322C5.59104 16.3396 5.81314 16.6556 5.95022 16.9136C6.03512 17.0734 6.05405 17.2395 6.03814 17.4023ZM9.10801 11.5986C8.86397 11.1032 8.2645 10.8994 7.76906 11.1435C7.27362 11.3875 7.06982 11.987 7.31386 12.4824C7.98454 13.844 9.30229 14.9213 10.9446 15.3613C12.5869 15.8014 14.2668 15.5273 15.5284 14.6835C15.9874 14.3764 16.1107 13.7554 15.8036 13.2963C15.4966 12.8372 14.8755 12.714 14.4165 13.021C13.6647 13.5238 12.5848 13.7303 11.4622 13.4295C10.3397 13.1287 9.50764 12.41 9.10801 11.5986ZM8.52966 8.34701C8.74408 7.54681 9.56658 7.07193 10.3668 7.28635C11.167 7.50076 11.6419 8.32326 11.4274 9.12346C11.213 9.92366 10.3905 10.3985 9.59032 10.1841C8.79012 9.96971 8.31525 9.14721 8.52966 8.34701ZM13.7574 9.69593C13.9647 8.9224 14.7598 8.46336 15.5333 8.67062C16.3069 8.87789 16.7659 9.67298 16.5586 10.4465C16.3514 11.22 15.5563 11.6791 14.7828 11.4718C14.0092 11.2645 13.5502 10.4695 13.7574 9.69593Z" fill="#0000CC"/>
</svg>
