<svg width="24" height="24" viewBox="0 0 24 24" fill="none" xmlns="http://www.w3.org/2000/svg">
<path fill-rule="evenodd" clip-rule="evenodd" d="M15.5796 21.3403C19.3344 19.9004 22 16.2615 22 12C22 6.47715 17.5228 2 12 2C6.47715 2 2 6.47715 2 12C2 16.2615 4.6656 19.9004 8.42039 21.3403C8.15138 20.9369 8 20.4817 8 20V17.5182C6.93412 16.697 6 15.4854 6 14C6 13.6756 6.15736 13.3714 6.4221 13.1839C6.68675 12.9965 7.02647 12.9493 7.33237 13.0568L7.3367 13.0584L7.35717 13.0654C7.37595 13.0719 7.40485 13.0817 7.443 13.0945C7.51933 13.1199 7.63254 13.157 7.77581 13.2018C8.06282 13.2914 8.46799 13.4113 8.93735 13.531C9.89383 13.775 11.0471 14 12 14C12.9529 14 14.1062 13.775 15.0626 13.531C15.532 13.4113 15.9372 13.2914 16.2242 13.2018C16.3675 13.157 16.4807 13.1199 16.557 13.0945C16.5952 13.0817 16.624 13.0719 16.6428 13.0654L16.6633 13.0584L16.6681 13.0567C16.9741 12.949 17.3132 12.9965 17.5779 13.1839C17.8426 13.3714 18 13.6756 18 14C18 15.4854 17.0659 16.697 16 17.5182V20C16 20.4817 15.8486 20.9369 15.5796 21.3403ZM9.35156 7.84998C8.52314 7.84998 7.85156 8.52155 7.85156 9.34998C7.85156 10.1784 8.52313 10.85 9.35156 10.85C10.18 10.85 10.8516 10.1784 10.8516 9.34998C10.8516 8.52155 10.18 7.84998 9.35156 7.84998ZM14.7 7.84998C13.8992 7.84998 13.25 8.49916 13.25 9.29998C13.25 10.1008 13.8992 10.75 14.7 10.75C15.5008 10.75 16.15 10.1008 16.15 9.29998C16.15 8.49916 15.5008 7.84998 14.7 7.84998Z" fill="#0000CC"/>
<path d="M12 22C13.1046 22 14 20.9255 14 19.6V17H13.5C13.2659 17 13 17 13 17H12.5C12.5 17 12.3788 17 12 17C11.6212 17 12 17 11.5 17H11C11 17 10.7341 17 10.5 17H10V19.6C10 20.9255 10.8954 22 12 22Z" fill="#0000CC"/>
</svg>
