<svg width="24" height="24" viewBox="0 0 24 24" fill="none" xmlns="http://www.w3.org/2000/svg">
<path fill-rule="evenodd" clip-rule="evenodd" d="M2 12C2 6.47715 6.47715 2 12 2C17.5228 2 22 6.47715 22 12C22 17.5228 17.5228 22 12 22C6.47715 22 2 17.5228 2 12ZM7.43617 10.3516C7.24201 10.8686 6.66547 11.1303 6.14844 10.9362C5.63141 10.742 5.36967 10.1655 5.56383 9.64844C5.82448 8.95438 6.18387 8.32107 6.64964 7.84514C7.1192 7.36535 7.74773 7 8.5 7C9.25227 7 9.8808 7.36535 10.3504 7.84514C10.8161 8.32107 11.1755 8.95438 11.4362 9.64844C11.6303 10.1655 11.3686 10.742 10.8516 10.9362C10.3345 11.1303 9.75799 10.8686 9.56383 10.3516C9.36841 9.83117 9.13673 9.46448 8.92097 9.24402C8.709 9.02743 8.56557 9 8.5 9C8.43443 9 8.291 9.02743 8.07903 9.24402C7.86327 9.46448 7.63159 9.83117 7.43617 10.3516ZM13.1484 10.9362C13.6655 11.1303 14.242 10.8686 14.4362 10.3516C14.6316 9.83117 14.8633 9.46448 15.079 9.24402C15.291 9.02743 15.4344 9 15.5 9C15.5656 9 15.709 9.02743 15.921 9.24402C16.1367 9.46448 16.3684 9.83117 16.5638 10.3516C16.758 10.8686 17.3345 11.1303 17.8516 10.9362C18.3686 10.742 18.6303 10.1655 18.4362 9.64844C18.1755 8.95438 17.8161 8.32107 17.3504 7.84514C16.8808 7.36535 16.2523 7 15.5 7C14.7477 7 14.1192 7.36535 13.6496 7.84514C13.1839 8.32107 12.8245 8.95438 12.5638 9.64844C12.3697 10.1655 12.6314 10.742 13.1484 10.9362ZM8.79957 14.3994C8.46788 13.9578 7.84101 13.8687 7.39942 14.2004C6.95783 14.5321 6.86874 15.159 7.20043 15.6006C8.29339 17.0557 10.0367 18 12.0004 18C13.964 18 15.7073 17.0557 16.8003 15.6006C17.132 15.159 17.0429 14.5321 16.6013 14.2004C16.1597 13.8687 15.5329 13.9578 15.2012 14.3994C14.4697 15.3732 13.3084 16 12.0004 16C10.6924 16 9.53103 15.3732 8.79957 14.3994Z" fill="#0000CC"/>
</svg>
