<svg width="24" height="24" viewBox="0 0 24 24" fill="none" xmlns="http://www.w3.org/2000/svg">
<path fill-rule="evenodd" clip-rule="evenodd" d="M2 12C2 6.47715 6.47715 2 12 2C17.5228 2 22 6.47715 22 12C22 17.5228 17.5228 22 12 22C6.47715 22 2 17.5228 2 12ZM6.57682 7.87869C6.0561 8.06274 5.78317 8.63406 5.96722 9.15478C6.15127 9.6755 6.72259 9.94842 7.24331 9.76437C8.74863 9.23232 10.0156 8.20161 10.8477 6.8718C11.1407 6.40362 10.9986 5.7866 10.5305 5.49363C10.0623 5.20066 9.44526 5.34269 9.15229 5.81087C8.55655 6.76289 7.64967 7.49949 6.57682 7.87869ZM18.0328 9.15478C18.2168 8.63406 17.9439 8.06274 17.4232 7.87869C16.3503 7.49949 15.4434 6.76289 14.8477 5.81087C14.5547 5.34269 13.9377 5.20066 13.4695 5.49363C13.0014 5.7866 12.8593 6.40362 13.1523 6.8718C13.9844 8.20161 15.2514 9.23232 16.7567 9.76437C17.2774 9.94842 17.8487 9.6755 18.0328 9.15478ZM14.5847 11.1887C14.8726 11.3962 15.1833 11.5 15.5 11.5C15.8167 11.5 16.1274 11.3962 16.4153 11.1887C16.8634 10.8658 17.4884 10.9673 17.8113 11.4153C18.1342 11.8634 18.0327 12.4884 17.5847 12.8113C16.99 13.2398 16.2762 13.5 15.5 13.5C14.7238 13.5 14.01 13.2398 13.4153 12.8113C12.9673 12.4884 12.8658 11.8634 13.1887 11.4153C13.5116 10.9673 14.1366 10.8658 14.5847 11.1887ZM8.5 11.5C8.18334 11.5 7.87256 11.3962 7.58466 11.1887C7.1366 10.8658 6.51162 10.9673 6.18872 11.4153C5.86582 11.8634 5.96728 12.4884 6.41534 12.8113C7.00996 13.2398 7.7238 13.5 8.5 13.5C9.2762 13.5 9.99004 13.2398 10.5847 12.8113C11.0327 12.4884 11.1342 11.8634 10.8113 11.4153C10.4884 10.9673 9.8634 10.8658 9.41534 11.1887C9.12744 11.3962 8.81666 11.5 8.5 11.5ZM10 16C9.44772 16 9 16.4477 9 17C9 17.5523 9.44772 18 10 18H14C14.5523 18 15 17.5523 15 17C15 16.4477 14.5523 16 14 16H10Z" fill="#0000CC"/>
</svg>
