<svg width="24" height="24" viewBox="0 0 24 24" fill="none" xmlns="http://www.w3.org/2000/svg">
<path fill-rule="evenodd" clip-rule="evenodd" d="M22 12C22 17.5228 17.5228 22 12 22C6.47715 22 2 17.5228 2 12C2 6.47715 6.47715 2 12 2C17.5228 2 22 6.47715 22 12ZM12.4472 13.1056C11.9532 12.8586 11.3526 13.0588 11.1056 13.5528C10.8586 14.0468 11.0588 14.6474 11.5528 14.8944L11.9706 15.1033C11.5978 15.6355 11.5978 16.3645 11.9706 16.8967L11.5528 17.1056C11.0588 17.3526 10.8586 17.9532 11.1056 18.4472C11.3526 18.9412 11.9532 19.1414 12.4472 18.8944L13.4472 18.3944C14.3924 17.9218 14.5601 16.7284 13.9502 16C14.5601 15.2716 14.3924 14.0782 13.4472 13.6056L12.4472 13.1056ZM7.85156 9.29998C7.85156 8.49916 8.50075 7.84998 9.30156 7.84998C10.1024 7.84998 10.7516 8.49916 10.7516 9.29998C10.7516 10.1008 10.1024 10.75 9.30156 10.75C8.50075 10.75 7.85156 10.1008 7.85156 9.29998ZM13.25 9.29998C13.25 8.49916 13.8992 7.84998 14.7 7.84998C15.5008 7.84998 16.15 8.49916 16.15 9.29998C16.15 10.1008 15.5008 10.75 14.7 10.75C13.8992 10.75 13.25 10.1008 13.25 9.29998Z" fill="#0000CC"/>
</svg>
