<svg width="24" height="24" viewBox="0 0 24 24" fill="none" xmlns="http://www.w3.org/2000/svg">
<path fill-rule="evenodd" clip-rule="evenodd" d="M2 12C2 6.47715 6.47715 2 12 2C17.5228 2 22 6.47715 22 12C22 17.5228 17.5228 22 12 22C6.47715 22 2 17.5228 2 12ZM17.4472 10.3944C17.9412 10.1474 18.1414 9.54676 17.8944 9.05279C17.6474 8.55881 17.0468 8.35858 16.5528 8.60557L13.5528 10.1056C13.191 10.2865 12.9738 10.6674 13.0025 11.0709C13.0312 11.4743 13.3001 11.8208 13.6838 11.9487L16.6838 12.9487C17.2077 13.1233 17.774 12.8402 17.9487 12.3162C18.1233 11.7923 17.8402 11.226 17.3162 11.0513L16.6066 10.8148L17.4472 10.3944ZM6.10557 9.05279C5.85858 9.54676 6.05881 10.1474 6.55279 10.3944L7.39345 10.8148L6.68377 11.0513C6.15983 11.226 5.87667 11.7923 6.05132 12.3162C6.22596 12.8402 6.79228 13.1233 7.31623 12.9487L10.3162 11.9487C10.6999 11.8208 10.9688 11.4743 10.9975 11.0709C11.0262 10.6674 10.809 10.2865 10.4472 10.1056L7.44721 8.60557C6.95324 8.35858 6.35256 8.55881 6.10557 9.05279ZM10.6 14.2C10.2019 13.9014 9.64478 13.941 9.29289 14.2929L8.22991 15.3559L7.31623 15.0513C6.79228 14.8767 6.22596 15.1598 6.05132 15.6838C5.87667 16.2077 6.15983 16.774 6.68377 16.9487L8.18377 17.4487C8.54311 17.5685 8.93927 17.4749 9.20711 17.2071L10.0938 16.3204L11.4 17.3C11.7556 17.5667 12.2444 17.5667 12.6 17.3L13.9062 16.3204L14.7929 17.2071C15.0607 17.4749 15.4569 17.5685 15.8162 17.4487L17.3162 16.9487C17.8402 16.774 18.1233 16.2077 17.9487 15.6838C17.774 15.1598 17.2077 14.8767 16.6838 15.0513L15.7701 15.3559L14.7071 14.2929C14.3552 13.941 13.7981 13.9014 13.4 14.2L12 15.25L10.6 14.2Z" fill="#0000CC"/>
</svg>
