<svg width="24" height="24" viewBox="0 0 24 24" fill="none" xmlns="http://www.w3.org/2000/svg">
<path fill-rule="evenodd" clip-rule="evenodd" d="M12 22C17.5228 22 22 17.5228 22 12C22 6.47715 17.5228 2 12 2C6.47715 2 2 6.47715 2 12C2 17.5228 6.47715 22 12 22ZM7.33207 13.0567L7.3367 13.0584L7.35717 13.0654C7.37595 13.0719 7.40485 13.0817 7.443 13.0945C7.51933 13.1199 7.63254 13.157 7.77581 13.2018C8.06282 13.2914 8.46799 13.4113 8.93735 13.531C9.89383 13.775 11.0471 14 12 14C12.9529 14 14.1062 13.775 15.0626 13.531C15.532 13.4113 15.9372 13.2914 16.2242 13.2018C16.3675 13.157 16.4807 13.1199 16.557 13.0945C16.5952 13.0817 16.624 13.0719 16.6428 13.0654L16.6633 13.0584L16.6676 13.0568C16.9736 12.9492 17.3132 12.9965 17.5779 13.1839C17.8426 13.3714 18 13.6756 18 14C18 15.5666 16.9573 16.8285 15.8399 17.6382C14.708 18.4584 13.2571 19 12 19C10.7429 19 9.29205 18.4584 8.16012 17.6382C7.04268 16.8285 6 15.5666 6 14C6 13.6756 6.15736 13.3714 6.4221 13.1839C6.68675 12.9965 7.02618 12.9492 7.33207 13.0567ZM6.14844 10.9362C6.66547 11.1303 7.24201 10.8686 7.43617 10.3516C7.63159 9.83117 7.86327 9.46448 8.07903 9.24402C8.291 9.02743 8.43443 9 8.5 9C8.56557 9 8.709 9.02743 8.92097 9.24402C9.13673 9.46448 9.36841 9.83117 9.56383 10.3516C9.75799 10.8686 10.3345 11.1303 10.8516 10.9362C11.3686 10.742 11.6303 10.1655 11.4362 9.64844C11.1755 8.95438 10.8161 8.32107 10.3504 7.84514C9.8808 7.36535 9.25227 7 8.5 7C7.74773 7 7.1192 7.36535 6.64964 7.84514C6.18387 8.32107 5.82448 8.95438 5.56383 9.64844C5.36967 10.1655 5.63141 10.742 6.14844 10.9362ZM14.4362 10.3516C14.242 10.8686 13.6655 11.1303 13.1484 10.9362C12.6314 10.742 12.3697 10.1655 12.5638 9.64844C12.8245 8.95438 13.1839 8.32107 13.6496 7.84514C14.1192 7.36535 14.7477 7 15.5 7C16.2523 7 16.8808 7.36535 17.3504 7.84514C17.8161 8.32107 18.1755 8.95438 18.4362 9.64844C18.6303 10.1655 18.3686 10.742 17.8516 10.9362C17.3345 11.1303 16.758 10.8686 16.5638 10.3516C16.3684 9.83117 16.1367 9.46448 15.921 9.24402C15.709 9.02743 15.5656 9 15.5 9C15.4344 9 15.291 9.02743 15.079 9.24402C14.8633 9.46448 14.6316 9.83117 14.4362 10.3516Z" fill="#0000CC"/>
</svg>
