<svg width="24" height="24" viewBox="0 0 24 24" fill="none" xmlns="http://www.w3.org/2000/svg">
<path fill-rule="evenodd" clip-rule="evenodd" d="M22 12C22 17.5228 17.5228 22 12 22C6.47715 22 2 17.5228 2 12C2 6.47715 6.47715 2 12 2C17.5228 2 22 6.47715 22 12ZM15.2004 9.60058C15.5321 10.0422 16.159 10.1313 16.6006 9.79957C17.0422 9.46788 17.1313 8.84101 16.7996 8.39942C15.7066 6.94434 13.9633 6 11.9996 6C10.036 6 8.29265 6.94434 7.1997 8.39942C6.86801 8.84101 6.9571 9.46788 7.39869 9.79957C7.84028 10.1313 8.46714 10.0422 8.79883 9.60058C9.53029 8.62676 10.6916 8 11.9996 8C13.3076 8 14.469 8.62676 15.2004 9.60058ZM7.85156 14.3501C7.85156 13.5217 8.52314 12.8501 9.35156 12.8501C10.18 12.8501 10.8516 13.5217 10.8516 14.3501C10.8516 15.1785 10.18 15.8501 9.35156 15.8501C8.52313 15.8501 7.85156 15.1785 7.85156 14.3501ZM13.25 14.3001C13.25 13.4993 13.8992 12.8501 14.7 12.8501C15.5008 12.8501 16.15 13.4993 16.15 14.3001C16.15 15.1009 15.5008 15.7501 14.7 15.7501C13.8992 15.7501 13.25 15.1009 13.25 14.3001Z" fill="#0000CC"/>
</svg>
