<svg width="24" height="24" viewBox="0 0 24 24" fill="none" xmlns="http://www.w3.org/2000/svg">
<path fill-rule="evenodd" clip-rule="evenodd" d="M12 2C6.47715 2 2 6.47715 2 12C2 17.5228 6.47715 22 12 22C15.7014 22 18.9331 19.989 20.6622 17H16.2C15.5373 17 15 16.5523 15 16C15 15.4477 15.5373 15 16.2 15H21C21.3314 15 21.6 14.7761 21.6 14.5C21.6 14.2239 21.3314 14 21 14H13.2C12.5373 14 12 13.5523 12 13C12 12.4477 12.5373 12 13.2 12H21C21.3503 12 21.6865 12.05 21.999 12.142C21.9997 12.0947 22 12.0474 22 12C22 6.47715 17.5228 2 12 2ZM9.30156 7.84998C8.50075 7.84998 7.85156 8.49916 7.85156 9.29998C7.85156 10.1008 8.50075 10.75 9.30156 10.75C10.1024 10.75 10.7516 10.1008 10.7516 9.29998C10.7516 8.49916 10.1024 7.84998 9.30156 7.84998ZM14.7 7.84998C13.8992 7.84998 13.25 8.49916 13.25 9.29998C13.25 10.1008 13.8992 10.75 14.7 10.75C15.5008 10.75 16.15 10.1008 16.15 9.29998C16.15 8.49916 15.5008 7.84998 14.7 7.84998ZM12.2425 15.0299C11.1306 14.7519 10.1877 14.7247 9.33766 14.9797C8.48828 15.2345 7.84905 15.7367 7.29289 16.2929C6.90237 16.6834 6.90237 17.3166 7.29289 17.7071C7.68342 18.0976 8.31658 18.0976 8.70711 17.7071C9.15095 17.2633 9.51172 17.0155 9.91235 16.8953C10.3123 16.7753 10.8694 16.7481 11.7575 16.9701C12.2933 17.1041 12.8362 16.7783 12.9701 16.2425C13.1041 15.7067 12.7783 15.1638 12.2425 15.0299Z" fill="#0000CC"/>
</svg>
