<svg width="24" height="24" viewBox="0 0 24 24" fill="none" xmlns="http://www.w3.org/2000/svg">
<path fill-rule="evenodd" clip-rule="evenodd" d="M12 2C6.47715 2 2 6.47715 2 12C2 17.5228 6.47715 22 12 22C17.5228 22 22 17.5228 22 12C22 6.47715 17.5228 2 12 2ZM7.84996 9.3001C7.84996 8.49928 8.49915 7.8501 9.29996 7.8501C10.1008 7.8501 10.75 8.49928 10.75 9.3001C10.75 10.1009 10.1008 10.7501 9.29996 10.7501C8.49915 10.7501 7.84996 10.1009 7.84996 9.3001ZM13.25 9.3001C13.25 8.49928 13.8991 7.8501 14.7 7.8501C15.5008 7.8501 16.15 8.49928 16.15 9.3001C16.15 10.1009 15.5008 10.7501 14.7 10.7501C13.8991 10.7501 13.25 10.1009 13.25 9.3001ZM12 12.8001C10.5994 12.8001 9.49723 13.361 8.76804 13.8914C8.40152 14.1579 8.11817 14.4244 7.92407 14.6269C7.8266 14.7286 7.75044 14.8155 7.69639 14.8799C7.66933 14.9121 7.64771 14.9389 7.63163 14.9592L7.61164 14.9848L7.60476 14.9937L7.6021 14.9973L7.60096 14.9988L7.59996 15.0001C7.26859 15.4419 7.35813 16.0687 7.79996 16.4001C8.24159 16.7313 8.86823 16.6419 9.19972 16.2006C9.20451 16.1945 9.21409 16.1826 9.22834 16.1656C9.2569 16.1316 9.30379 16.0778 9.36804 16.0108C9.49737 15.8758 9.69215 15.6923 9.94438 15.5088C10.4527 15.1392 11.1505 14.8001 12 14.8001C12.8494 14.8001 13.5472 15.1392 14.0555 15.5088C14.3078 15.6923 14.5025 15.8758 14.6319 16.0108C14.6961 16.0778 14.743 16.1316 14.7716 16.1656C14.7858 16.1826 14.7954 16.1945 14.8002 16.2006L14.8033 16.2045C15.1355 16.6425 15.7596 16.7304 16.2 16.4001C16.6418 16.0687 16.7313 15.4419 16.4 15.0001L16.399 14.9988L16.3978 14.9973L16.3952 14.9937L16.3883 14.9848L16.3683 14.9592C16.3522 14.9389 16.3306 14.9121 16.3035 14.8799C16.2495 14.8155 16.1733 14.7286 16.0759 14.6269C15.8817 14.4244 15.5984 14.1579 15.2319 13.8914C14.5027 13.361 13.4005 12.8001 12 12.8001Z" fill="#0000CC"/>
</svg>
