<svg width="24" height="24" viewBox="0 0 24 24" fill="none" xmlns="http://www.w3.org/2000/svg">
<path fill-rule="evenodd" clip-rule="evenodd" d="M12 2C6.47715 2 2 6.47715 2 12C2 17.5228 6.47715 22 12 22C17.5228 22 22 17.5228 22 12C22 6.47715 17.5228 2 12 2ZM8 17C8 16.4477 8.44772 16 9 16H15C15.5523 16 16 16.4477 16 17C16 17.5523 15.5523 18 15 18H9C8.44772 18 8 17.5523 8 17ZM7 7C6.44772 7 6 7.44772 6 8C6 8.55228 6.44772 9 7 9H10C10.5523 9 11 8.55228 11 8C11 7.44772 10.5523 7 10 7H7ZM16.1679 8.5547C15.9433 8.21775 15.4817 8.13869 15.1578 8.38167L14.6 8.8C14.1582 9.13137 13.5314 9.04183 13.2 8.6C12.8686 8.15817 12.9582 7.53137 13.4 7.2L13.9578 6.78167C15.2003 5.84979 16.9705 6.15302 17.8321 7.4453C18.1384 7.90483 18.0142 8.5257 17.5547 8.83205C17.0952 9.1384 16.4743 9.01423 16.1679 8.5547ZM9.35156 9.8501C8.52314 9.8501 7.85156 10.5217 7.85156 11.3501C7.85156 12.1785 8.52313 12.8501 9.35156 12.8501C10.18 12.8501 10.8516 12.1785 10.8516 11.3501C10.8516 10.5217 10.18 9.8501 9.35156 9.8501ZM14.7 9.8501C13.8992 9.8501 13.25 10.4993 13.25 11.3001C13.25 12.1009 13.8992 12.7501 14.7 12.7501C15.5008 12.7501 16.15 12.1009 16.15 11.3001C16.15 10.4993 15.5008 9.8501 14.7 9.8501Z" fill="#0000CC"/>
</svg>
