<svg width="24" height="24" viewBox="0 0 24 24" fill="none" xmlns="http://www.w3.org/2000/svg">
<path fill-rule="evenodd" clip-rule="evenodd" d="M22 12C22 13.1094 21.8194 14.1765 21.4859 15.1737C21.278 14.7562 20.9828 14.3737 20.6027 14.0548L18.5432 12.3267C18.3718 12.1829 18.1662 12.1064 17.9588 12.0944C17.4616 12.0644 17.0087 12.4095 16.9163 12.9118C16.6483 14.3681 15.7469 15.6068 14.5051 16.3278C13.7691 16.755 12.9142 17 11.9991 17C9.52257 17 7.46485 15.1985 7.06825 12.8345C6.97687 12.2899 6.46125 11.9224 5.91658 12.0138C5.3719 12.1052 5.00444 12.6208 5.09581 13.1655C5.65137 16.4769 8.52958 19 11.9991 19C13.0218 19 13.9951 18.7801 14.8727 18.3846L16.1032 19.4171C16.5925 19.8277 17.1611 20.0815 17.7481 20.1839C16.122 21.3281 14.1394 22 12 22C6.47715 22 2 17.5228 2 12C2 6.47715 6.47715 2 12 2C17.5228 2 22 6.47715 22 12ZM6.14844 10.9362C6.66547 11.1303 7.24201 10.8686 7.43617 10.3516C7.63159 9.83117 7.86327 9.46448 8.07903 9.24402C8.291 9.02743 8.43443 9 8.5 9C8.56557 9 8.709 9.02743 8.92097 9.24402C9.13673 9.46448 9.36841 9.83117 9.56383 10.3516C9.75799 10.8686 10.3345 11.1303 10.8516 10.9362C11.3686 10.742 11.6303 10.1655 11.4362 9.64844C11.1755 8.95438 10.8161 8.32107 10.3504 7.84514C9.8808 7.36535 9.25227 7 8.5 7C7.74773 7 7.1192 7.36535 6.64964 7.84514C6.18387 8.32107 5.82448 8.95438 5.56383 9.64844C5.36967 10.1655 5.63141 10.742 6.14844 10.9362ZM14.4362 10.3516C14.242 10.8686 13.6655 11.1303 13.1484 10.9362C12.6314 10.742 12.3697 10.1655 12.5638 9.64844C12.8245 8.95438 13.1839 8.32107 13.6496 7.84514C14.1192 7.36535 14.7477 7 15.5 7C16.2523 7 16.8808 7.36535 17.3504 7.84514C17.8161 8.32107 18.1755 8.95438 18.4362 9.64844C18.6303 10.1655 18.3686 10.742 17.8516 10.9362C17.3345 11.1303 16.758 10.8686 16.5638 10.3516C16.3684 9.83117 16.1367 9.46448 15.921 9.24402C15.709 9.02743 15.5656 9 15.5 9C15.4344 9 15.291 9.02743 15.079 9.24402C14.8633 9.46448 14.6316 9.83117 14.4362 10.3516Z" fill="#0000CC"/>
<path d="M16.6305 17.2488L17.3888 17.8851C18.0234 18.4176 18.9695 18.3348 19.502 17.7002C20.0345 17.0656 19.9517 16.1194 19.3171 15.5869L18.4064 14.8227C17.9944 15.7567 17.3846 16.583 16.6305 17.2488Z" fill="#0000CC"/>
</svg>
