<svg width="24" height="24" viewBox="0 0 24 24" fill="none" xmlns="http://www.w3.org/2000/svg">
<path d="M21.1622 16.0131C21.701 14.7847 22 13.4273 22 12C22 11.9003 21.9985 11.801 21.9956 11.702L16.9464 13.5381C16.9815 13.6864 17 13.841 17 14V16H21C21.0552 16 21.1094 16.0045 21.1622 16.0131Z" fill="#0000CC"/>
<path fill-rule="evenodd" clip-rule="evenodd" d="M15.2731 12.0185L21.7275 9.67141C20.6781 5.27164 16.7211 2 12 2C7.27888 2 3.3219 5.27164 2.27255 9.67141L3.31345 10.0499C3.32337 10.0532 3.33328 10.0566 3.34317 10.0602L8.72802 12.0183C8.81696 12.0062 8.90775 12 9 12H15C15.0926 12 15.1838 12.0063 15.2731 12.0185ZM14.5847 10.3113C14.8726 10.1038 15.1833 10 15.5 10C15.8167 10 16.1274 10.1038 16.4153 10.3113C16.8634 10.6342 17.4884 10.5327 17.8113 10.0847C18.1342 9.6366 18.0327 9.01162 17.5847 8.68872C16.99 8.2602 16.2762 8 15.5 8C14.7238 8 14.01 8.2602 13.4153 8.68872C12.9673 9.01162 12.8658 9.6366 13.1887 10.0847C13.5116 10.5327 14.1366 10.6342 14.5847 10.3113ZM8.5 10C8.18334 10 7.87256 10.1038 7.58466 10.3113C7.1366 10.6342 6.51162 10.5327 6.18872 10.0847C5.86582 9.6366 5.96728 9.01162 6.41534 8.68872C7.00996 8.2602 7.7238 8 8.5 8C9.2762 8 9.99004 8.2602 10.5847 8.68872C11.0327 9.01162 11.1342 9.6366 10.8113 10.0847C10.4884 10.5327 9.8634 10.6342 9.41534 10.3113C9.12744 10.1038 8.81666 10 8.5 10Z" fill="#0000CC"/>
<path d="M2 12C2 11.9003 2.00146 11.801 2.00435 11.702L2.65826 11.9398C2.66814 11.9434 2.67805 11.9468 2.68797 11.9501L7.05372 13.5376C7.01859 13.686 7 13.8408 7 14V16H3C2.94478 16 2.8906 16.0045 2.83782 16.0131C2.29901 14.7847 2 13.4273 2 12Z" fill="#0000CC"/>
<path d="M20.0007 18H16.7324C16.3866 18.5978 15.7403 19 15 19H9C8.25972 19 7.61337 18.5978 7.26756 18H3.99927C5.82368 20.4289 8.72836 22 12 22C15.2716 22 18.1763 20.4289 20.0007 18Z" fill="#0000CC"/>
<path d="M9.5 15.5C9.5 14.9477 9.94772 14.5 10.5 14.5H13.5C14.0523 14.5 14.5 14.9477 14.5 15.5C14.5 16.0523 14.0523 16.5 13.5 16.5H10.5C9.94772 16.5 9.5 16.0523 9.5 15.5Z" fill="#0000CC"/>
</svg>
