<svg width="24" height="24" viewBox="0 0 24 24" fill="none" xmlns="http://www.w3.org/2000/svg">
<path fill-rule="evenodd" clip-rule="evenodd" d="M12 22C17.5228 22 22 17.5228 22 12C22 6.47715 17.5228 2 12 2C6.47715 2 2 6.47715 2 12C2 17.5228 6.47715 22 12 22ZM8 13C7.44772 13 7 13.4477 7 14C7 16.7614 9.23858 19 12 19C14.7614 19 17 16.7614 17 14C17 13.4477 16.5523 13 16 13H8ZM6.14844 10.9362C6.66547 11.1303 7.24201 10.8686 7.43617 10.3516C7.63159 9.83117 7.86327 9.46448 8.07903 9.24402C8.291 9.02743 8.43443 9 8.5 9C8.56557 9 8.709 9.02743 8.92097 9.24402C9.13673 9.46448 9.36841 9.83117 9.56383 10.3516C9.75799 10.8686 10.3345 11.1303 10.8516 10.9362C11.3686 10.742 11.6303 10.1655 11.4362 9.64844C11.1755 8.95438 10.8161 8.32107 10.3504 7.84514C9.8808 7.36535 9.25227 7 8.5 7C7.74773 7 7.1192 7.36535 6.64964 7.84514C6.18387 8.32107 5.82448 8.95438 5.56383 9.64844C5.36967 10.1655 5.63141 10.742 6.14844 10.9362ZM14.4362 10.3516C14.242 10.8686 13.6655 11.1303 13.1484 10.9362C12.6314 10.742 12.3697 10.1655 12.5638 9.64844C12.8245 8.95438 13.1839 8.32107 13.6496 7.84514C14.1192 7.36535 14.7477 7 15.5 7C16.2523 7 16.8808 7.36535 17.3504 7.84514C17.8161 8.32107 18.1755 8.95438 18.4362 9.64844C18.6303 10.1655 18.3686 10.742 17.8516 10.9362C17.3345 11.1303 16.758 10.8686 16.5638 10.3516C16.3684 9.83117 16.1367 9.46448 15.921 9.24402C15.709 9.02743 15.5656 9 15.5 9C15.4344 9 15.291 9.02743 15.079 9.24402C14.8633 9.46448 14.6316 9.83117 14.4362 10.3516Z" fill="#0000CC"/>
</svg>
