<svg width="24" height="24" viewBox="0 0 24 24" fill="none" xmlns="http://www.w3.org/2000/svg">
<path fill-rule="evenodd" clip-rule="evenodd" d="M2 12C2 6.47715 6.47715 2 12 2C17.5228 2 22 6.47715 22 12C22 17.5228 17.5228 22 12 22C6.47715 22 2 17.5228 2 12ZM16.8944 15.4472C17.1414 14.9532 16.9412 14.3526 16.4472 14.1056C15.9532 13.8586 15.3526 14.0588 15.1056 14.5528L14.6584 15.4472C14.489 15.786 14.1427 16 13.7639 16H8C7.44772 16 7 16.4477 7 17C7 17.5523 7.44772 18 8 18H13.7639C14.9002 18 15.939 17.358 16.4472 16.3416L16.8944 15.4472ZM5 10C5 9.44772 5.44772 9 6 9H9.5C10.3284 9 11 9.67157 11 10.5C11 11.3284 10.3284 12 9.5 12C8.84689 12 8.29127 11.5826 8.08535 11H6C5.44772 11 5 10.5523 5 10ZM14 9C13.4477 9 13 9.44772 13 10C13 10.5523 13.4477 11 14 11H16.0854C16.2913 11.5826 16.8469 12 17.5 12C18.3284 12 19 11.3284 19 10.5C19 9.67157 18.3284 9 17.5 9H14Z" fill="#0000CC"/>
</svg>
