<svg width="24" height="24" viewBox="0 0 24 24" fill="none" xmlns="http://www.w3.org/2000/svg">
<path fill-rule="evenodd" clip-rule="evenodd" d="M2 12C2 6.47715 6.47715 2 12 2C17.5228 2 22 6.47715 22 12C22 17.5228 17.5228 22 12 22C6.47715 22 2 17.5228 2 12ZM10.748 8.66374C11.1145 8.25065 11.0768 7.6186 10.6637 7.25203C10.2506 6.88546 9.6186 6.92317 9.25203 7.33626C8.54146 8.13701 7.66068 8.73025 6.68778 9.04999C6.1631 9.22242 5.87756 9.78754 6.04999 10.3122C6.22242 10.8369 6.78754 11.1224 7.31222 10.95C8.64395 10.5123 9.81911 9.71047 10.748 8.66374ZM13.3363 7.25203C12.9232 7.6186 12.8855 8.25065 13.252 8.66374C14.1809 9.71047 15.356 10.5123 16.6878 10.95C17.2125 11.1224 17.7776 10.8369 17.95 10.3122C18.1224 9.78754 17.8369 9.22242 17.3122 9.04999C16.3393 8.73025 15.4585 8.13701 14.748 7.33626C14.3814 6.92317 13.7494 6.88546 13.3363 7.25203ZM11.9072 12C9.49549 12 7.4508 13.7734 7.10973 16.1608C6.9618 17.1963 7.8936 18.033 8.8869 17.8315C9.72252 17.6621 11.0598 17.4286 12 17.4286C12.9402 17.4286 14.2775 17.6621 15.1131 17.8315C16.1064 18.033 17.0382 17.1963 16.8903 16.1608C16.5492 13.7734 14.5045 12 12.0928 12H11.9072Z" fill="#0000CC"/>
</svg>
