<svg width="24" height="24" viewBox="0 0 24 24" fill="none" xmlns="http://www.w3.org/2000/svg">
<path fill-rule="evenodd" clip-rule="evenodd" d="M22 12C22 17.5228 17.5228 22 12 22C6.47715 22 2 17.5228 2 12C2 6.47715 6.47715 2 12 2C17.5228 2 22 6.47715 22 12ZM9.35156 7.84998C8.52314 7.84998 7.85156 8.52155 7.85156 9.34998C7.85156 10.1784 8.52313 10.85 9.35156 10.85C10.18 10.85 10.8516 10.1784 10.8516 9.34998C10.8516 8.52155 10.18 7.84998 9.35156 7.84998ZM14.7 7.84998C13.8992 7.84998 13.25 8.49916 13.25 9.29998C13.25 10.1008 13.8992 10.75 14.7 10.75C15.5008 10.75 16.15 10.1008 16.15 9.29998C16.15 8.49916 15.5008 7.84998 14.7 7.84998ZM16.0231 14.4999C16.5751 14.4871 17.0124 14.0293 16.9997 13.4772C16.9871 12.9251 16.5292 12.4877 15.9771 12.5004L16 13.5001C15.9771 12.5004 15.9772 12.5004 15.9771 12.5004L15.974 12.5005L15.9673 12.5006L15.9434 12.5013C15.9229 12.5019 15.8935 12.5027 15.8559 12.504C15.7809 12.5066 15.6732 12.5107 15.5397 12.5171C15.2733 12.5298 14.9019 12.5516 14.481 12.5877C13.6581 12.6583 12.5749 12.7894 11.7187 13.0404C10.7686 13.3188 9.68808 13.865 8.88632 14.3099C8.47615 14.5375 8.12093 14.7488 7.8679 14.9034C7.74119 14.9808 7.63961 15.0443 7.569 15.0889C7.53368 15.1112 7.50608 15.1289 7.48692 15.1411L7.46459 15.1555L7.45562 15.1613C7.45553 15.1613 7.45545 15.1614 8 16.0001L7.45562 15.1613C6.99241 15.462 6.86053 16.0815 7.16127 16.5447C7.462 17.0079 8.08123 17.1396 8.54443 16.8389L8.54885 16.8361L8.5661 16.825C8.5818 16.8149 8.60577 16.7996 8.63727 16.7797C8.7003 16.7399 8.79337 16.6817 8.91072 16.61C9.14582 16.4663 9.47636 16.2697 9.85669 16.0587C10.6359 15.6263 11.5554 15.1724 12.2813 14.9596C12.9358 14.7678 13.8526 14.649 14.652 14.5804C15.0423 14.5469 15.3877 14.5266 15.6351 14.5148C15.7587 14.5089 15.8573 14.5051 15.9242 14.5029L16 14.5005L16.0184 14.5L16.0231 14.4999Z" fill="#0000CC"/>
</svg>
