<svg width="24" height="24" viewBox="0 0 24 24" fill="none" xmlns="http://www.w3.org/2000/svg">
<path fill-rule="evenodd" clip-rule="evenodd" d="M2 12C2 6.47715 6.47715 2 12 2C17.5228 2 22 6.47715 22 12C22 17.5228 17.5228 22 12 22C6.47715 22 2 17.5228 2 12ZM7.39392 7.08085C6.88629 6.8633 6.29841 7.09845 6.08085 7.60608C5.8633 8.11371 6.09845 8.70159 6.60608 8.91915L7.3466 9.23651C7.04261 9.51102 6.85156 9.90825 6.85156 10.3501C6.85156 11.1785 7.52313 11.8501 8.35156 11.8501C9.17999 11.8501 9.85156 11.1785 9.85156 10.3501C9.85156 10.3366 9.85139 10.3232 9.85103 10.3098L10.1061 10.4191C10.6137 10.6367 11.2016 10.4015 11.4191 9.89392C11.6367 9.38629 11.4015 8.79841 10.8939 8.58085L7.39392 7.08085ZM12.5809 9.89392C12.7984 10.4015 13.3863 10.6367 13.8939 10.4191L14.2504 10.2664C14.2501 10.2776 14.25 10.2888 14.25 10.3001C14.25 11.1009 14.8992 11.7501 15.7 11.7501C16.5008 11.7501 17.15 11.1009 17.15 10.3001C17.15 9.87485 16.9669 9.49235 16.6753 9.22712L17.3939 8.91915C17.9015 8.70159 18.1367 8.11371 17.9191 7.60608C17.7016 7.09845 17.1137 6.8633 16.6061 7.08085L13.1061 8.58085C12.5985 8.79841 12.3633 9.38629 12.5809 9.89392ZM9.66384 17.7479C9.2508 18.1145 8.61875 18.0769 8.25212 17.6638C7.8855 17.2508 7.92312 16.6188 8.33616 16.2521C9.23854 15.4511 10.5803 15 12 15C13.4197 15 14.7615 15.4511 15.6638 16.2521C16.0769 16.6188 16.1145 17.2508 15.7479 17.6638C15.3812 18.0769 14.7492 18.1145 14.3362 17.7479C13.8704 17.3344 13.0338 17 12 17C10.9662 17 10.1296 17.3344 9.66384 17.7479Z" fill="#0000CC"/>
</svg>
