<svg width="24" height="24" viewBox="0 0 24 24" fill="none" xmlns="http://www.w3.org/2000/svg">
<path fill-rule="evenodd" clip-rule="evenodd" d="M2 12C2 6.47715 6.47715 2 12 2C17.5228 2 22 6.47715 22 12C22 15.2716 20.4289 18.1763 18 20.0007V13C18 12.4477 17.5523 12 17 12C16.4477 12 16 12.4477 16 13V21.1679C14.7751 21.7031 13.4222 22 12 22C10.5778 22 9.22492 21.7031 8 21.1679V13C8 12.4477 7.55228 12 7 12C6.44772 12 6 12.4477 6 13V20.0007C3.57111 18.1763 2 15.2716 2 12ZM7.29959 10.6005C6.96792 11.0421 6.34106 11.1313 5.89946 10.7996C5.45785 10.4679 5.36874 9.84106 5.70041 9.39946C6.3372 8.5516 7.35432 8 8.5 8C9.64568 8 10.6628 8.5516 11.2996 9.39946C11.6313 9.84106 11.5421 10.4679 11.1005 10.7996C10.6589 11.1313 10.0321 11.0421 9.70041 10.6005C9.42508 10.234 8.98999 10 8.5 10C8.01001 10 7.57492 10.234 7.29959 10.6005ZM12.8995 10.7996C13.3411 11.1313 13.9679 11.0421 14.2996 10.6005C14.5749 10.234 15.01 10 15.5 10C15.99 10 16.4251 10.234 16.7004 10.6005C17.0321 11.0421 17.6589 11.1313 18.1005 10.7996C18.5421 10.4679 18.6313 9.84106 18.2996 9.39946C17.6628 8.5516 16.6457 8 15.5 8C14.3543 8 13.3372 8.5516 12.7004 9.39946C12.3687 9.84106 12.4579 10.4679 12.8995 10.7996ZM12 12C10.3431 12 9 13.3431 9 15V16C9 17.6569 10.3431 19 12 19C13.6569 19 15 17.6569 15 16V15C15 13.3431 13.6569 12 12 12Z" fill="#0000CC"/>
</svg>
