<svg width="24" height="24" viewBox="0 0 24 24" fill="none" xmlns="http://www.w3.org/2000/svg">
<path fill-rule="evenodd" clip-rule="evenodd" d="M22 12C22 17.5228 17.5228 22 12 22C6.47715 22 2 17.5228 2 12C2 6.47715 6.47715 2 12 2C17.5228 2 22 6.47715 22 12ZM6.0901 11.2185C5.53784 11.2133 5.08597 11.6569 5.08083 12.2091C5.07568 12.7614 5.5192 13.2133 6.07146 13.2184C7.66798 13.2333 9.21102 12.6981 10.4478 11.7331C10.8832 11.3933 10.9608 10.7649 10.6211 10.3295C10.2813 9.89406 9.65293 9.8165 9.2175 10.1562C8.33208 10.8471 7.22796 11.2291 6.0901 11.2185ZM18.9192 12.2091C18.914 11.6569 18.4622 11.2133 17.9099 11.2185C16.772 11.2291 15.6679 10.8471 14.7825 10.1562C14.3471 9.8165 13.7187 9.89406 13.3789 10.3295C13.0392 10.7649 13.1168 11.3933 13.5522 11.7331C14.789 12.6981 16.332 13.2333 17.9285 13.2184C18.4808 13.2133 18.9243 12.7614 18.9192 12.2091ZM9.66384 17.7479C9.2508 18.1145 8.61875 18.0769 8.25212 17.6638C7.8855 17.2508 7.92312 16.6188 8.33616 16.2521C9.23854 15.4511 10.5803 15 12 15C13.4197 15 14.7615 15.4511 15.6638 16.2521C16.0769 16.6188 16.1145 17.2508 15.7479 17.6638C15.3812 18.0769 14.7492 18.1145 14.3362 17.7479C13.8704 17.3344 13.0338 17 12 17C10.9662 17 10.1296 17.3344 9.66384 17.7479Z" fill="#0000CC"/>
</svg>
