<svg width="24" height="24" viewBox="0 0 24 24" fill="none" xmlns="http://www.w3.org/2000/svg">
<path fill-rule="evenodd" clip-rule="evenodd" d="M20.4665 17.324C21.438 15.7823 22 13.9568 22 12C22 6.47715 17.5228 2 12 2C6.47715 2 2 6.47715 2 12C2 17.5228 6.47715 22 12 22C13.5546 22 15.0264 21.6452 16.3388 21.0123C16.1395 20.9442 15.9636 20.8201 15.8326 20.6551C15.7242 20.5185 15.6735 20.3859 15.6492 20.3114C15.6309 20.2557 15.6173 20.198 15.6137 20.1829L15.613 20.18C15.5612 19.9651 15.4572 19.5252 15.3622 19.0681C15.2725 18.6369 15.1725 18.1067 15.1543 17.7519C15.0937 16.5717 15.9661 15.572 17.1479 15.4599C18.0703 15.3723 18.7591 15.8516 19.1269 16.4981C19.6465 16.5864 20.1386 16.8568 20.4665 17.324ZM9.30156 7.84998C8.50075 7.84998 7.85156 8.49916 7.85156 9.29998C7.85156 10.1008 8.50075 10.75 9.30156 10.75C10.1024 10.75 10.7516 10.1008 10.7516 9.29998C10.7516 8.49916 10.1024 7.84998 9.30156 7.84998ZM14.5847 10.3113C14.8726 10.1038 15.1833 10 15.5 10C15.8167 10 16.1274 10.1038 16.4153 10.3113C16.8634 10.6342 17.4884 10.5327 17.8113 10.0847C18.1342 9.6366 18.0327 9.01162 17.5847 8.68872C16.99 8.2602 16.2762 8 15.5 8C14.7238 8 14.01 8.2602 13.4153 8.68872C12.9673 9.01162 12.8658 9.6366 13.1887 10.0847C13.5116 10.5327 14.1366 10.6342 14.5847 10.3113ZM11.1056 13.5528C11.3526 13.0588 11.9532 12.8586 12.4472 13.1056L13.4472 13.6056C14.3924 14.0782 14.5601 15.2716 13.9502 16C14.5601 16.7284 14.3924 17.9218 13.4472 18.3944L12.4472 18.8944C11.9532 19.1414 11.3526 18.9412 11.1056 18.4472C10.8586 17.9532 11.0588 17.3526 11.5528 17.1056L11.9706 16.8967C11.5978 16.3645 11.5978 15.6355 11.9706 15.1033L11.5528 14.8944C11.0588 14.6474 10.8586 14.0468 11.1056 13.5528Z" fill="#0000CC"/>
<path fill-rule="evenodd" clip-rule="evenodd" d="M18.4225 17.5055C18.3623 16.8944 17.8975 16.3932 17.2424 16.4554C16.5872 16.5176 16.1202 17.0616 16.153 17.7006C16.1803 18.232 16.4836 19.5248 16.5851 19.9455C16.5965 19.9926 16.6022 20.0161 16.6159 20.0334C16.6279 20.0485 16.6444 20.0601 16.6627 20.0662C16.6837 20.0732 16.7078 20.0705 16.7559 20.0651C17.1859 20.0165 18.5045 19.8594 19.0132 19.7033C19.6249 19.5156 19.986 18.892 19.8107 18.2538C19.6354 17.6156 19.0174 17.3532 18.4225 17.5055Z" fill="#0000CC"/>
</svg>
