<svg width="24" height="24" viewBox="0 0 24 24" fill="none" xmlns="http://www.w3.org/2000/svg">
<path fill-rule="evenodd" clip-rule="evenodd" d="M12 22C17.5228 22 22 17.5228 22 12C22 6.47715 17.5228 2 12 2C6.47715 2 2 6.47715 2 12C2 17.5228 6.47715 22 12 22ZM13.6393 7.48579C14.0529 6.93443 14.7005 6.5 15.5 6.5C16.2995 6.5 16.9471 6.93443 17.3607 7.48579C17.7739 8.03683 18 8.75227 18 9.5C18 10.2477 17.7739 10.9632 17.3607 11.5142C16.9471 12.0656 16.2995 12.5 15.5 12.5C14.7005 12.5 14.0529 12.0656 13.6393 11.5142C13.2261 10.9632 13 10.2477 13 9.5C13 8.75227 13.2261 8.03683 13.6393 7.48579ZM10.8714 10.9285C11.3842 10.7234 11.6336 10.1414 11.4285 9.62861C11.2234 9.11583 10.6414 8.86641 10.1286 9.07152L7.62861 10.0715C7.11583 10.2766 6.86641 10.8586 7.07152 11.3714C7.27664 11.8842 7.85861 12.1336 8.37139 11.9285L10.8714 10.9285ZM17.7682 13.8598C18.1218 14.2841 18.0645 14.9147 17.6402 15.2682L15.7315 16.8588C14.7512 17.6757 13.3616 17.7831 12.2674 17.1266L11.8362 16.8679C11.5682 16.7071 11.2405 16.6808 10.9503 16.7969L10.2053 17.0949C9.40966 17.4132 8.51592 17.376 7.74947 16.9928L6.55279 16.3944C6.05881 16.1474 5.85858 15.5468 6.10557 15.0528C6.35256 14.5588 6.95324 14.3586 7.44721 14.6056L8.6439 15.2039C8.89938 15.3317 9.1973 15.344 9.4625 15.238L10.2075 14.94C11.078 14.5918 12.0612 14.6705 12.8652 15.1529L13.2964 15.4117C13.6611 15.6305 14.1243 15.5947 14.4511 15.3224L16.3598 13.7318C16.7841 13.3782 17.4147 13.4355 17.7682 13.8598ZM9.16795 5.9453C8.72867 6.60422 7.98914 7 7.19722 7H7C6.44772 7 6 7.44772 6 8C6 8.55228 6.44772 9 7 9H7.19722C8.65785 9 10.0218 8.27001 10.8321 7.0547C11.1384 6.59517 11.0142 5.9743 10.5547 5.66795C10.0952 5.36159 9.4743 5.48577 9.16795 5.9453Z" fill="#0000CC"/>
</svg>
