<svg width="24" height="24" viewBox="0 0 24 24" fill="none" xmlns="http://www.w3.org/2000/svg">
<path fill-rule="evenodd" clip-rule="evenodd" d="M12 22C13.2547 22 14.4554 21.7689 15.5619 21.347C15.5219 21.2389 15.5 21.122 15.5 21V17.0702C15.181 17.2597 14.8464 17.4203 14.5 17.5519V20C14.5 20.5523 14.0523 21 13.5 21C12.9477 21 12.5 20.5523 12.5 20V17.9836C12.3365 17.9945 12.172 18 12.0069 18C10.6157 18 9.41967 17.7226 8.41086 17.1016C7.40082 16.4798 6.66565 15.5674 6.10557 14.4472C5.85858 13.9532 6.05881 13.3526 6.55279 13.1056C7.04676 12.8586 7.64744 13.0588 7.89443 13.5528C8.33435 14.4326 8.84478 15.0202 9.45927 15.3984C10.075 15.7774 10.8824 16 12.0069 16C13.7609 16 15.3022 15.1704 16.1107 13.5983C16.3633 13.1072 16.9662 12.9138 17.4574 13.1664C17.9485 13.419 18.1419 14.0219 17.8893 14.513C17.7701 14.7448 17.64 14.9651 17.5 15.1738V20.353C20.2111 18.5642 22 15.491 22 12C22 6.47715 17.5228 2 12 2C6.47715 2 2 6.47715 2 12C2 17.5228 6.47715 22 12 22ZM7.84771 10.5304C8.03282 10.2346 8.40511 9.97824 8.89173 9.85313C9.38807 9.72552 9.82452 9.78027 10.0528 9.8944C10.5468 10.1414 11.1474 9.94115 11.3944 9.44717C11.6414 8.95319 11.4412 8.35252 10.9472 8.10554C10.1755 7.71969 9.2189 7.70397 8.39373 7.91612C7.55884 8.13077 6.68113 8.62438 6.15229 9.46949C5.85933 9.93766 6.00136 10.5547 6.46953 10.8477C6.93771 11.1406 7.55474 10.9986 7.84771 10.5304ZM16.1523 10.5305C15.9672 10.2346 15.5949 9.97826 15.1083 9.85315C14.6119 9.72554 14.1755 9.78028 13.9472 9.89442C13.4532 10.1414 12.8526 9.94117 12.6056 9.44719C12.3586 8.95321 12.5588 8.35254 13.0528 8.10555C13.8245 7.7197 14.7811 7.70399 15.6063 7.91615C16.4412 8.1308 17.3189 8.62442 17.8477 9.46952C18.1407 9.9377 17.9986 10.5547 17.5305 10.8477C17.0623 11.1407 16.4453 10.9986 16.1523 10.5305Z" fill="#0000CC"/>
</svg>
