<svg width="24" height="24" viewBox="0 0 24 24" fill="none" xmlns="http://www.w3.org/2000/svg">
<path fill-rule="evenodd" clip-rule="evenodd" d="M12 22C17.5228 22 22 17.5228 22 12C22 6.47715 17.5228 2 12 2C6.47715 2 2 6.47715 2 12C2 17.5228 6.47715 22 12 22ZM9.35156 7.84998C8.52314 7.84998 7.85156 8.52155 7.85156 9.34998C7.85156 10.1784 8.52313 10.85 9.35156 10.85C10.18 10.85 10.8516 10.1784 10.8516 9.34998C10.8516 8.52155 10.18 7.84998 9.35156 7.84998ZM14.7 7.84998C13.8992 7.84998 13.25 8.49916 13.25 9.29998C13.25 10.1008 13.8992 10.75 14.7 10.75C15.5008 10.75 16.15 10.1008 16.15 9.29998C16.15 8.49916 15.5008 7.84998 14.7 7.84998ZM8.29957 17.1006C7.96788 17.5422 7.34101 17.6313 6.89942 17.2996C6.45783 16.9679 6.36874 16.341 6.70043 15.8994C7.16168 15.2853 7.74633 14.5409 8.5941 13.9666C9.46723 13.3752 10.5618 13 12.0004 13C13.439 13 14.5334 13.3752 15.4064 13.9667C16.2539 14.5409 16.8384 15.2855 17.2996 15.8994C17.6313 16.341 17.5422 16.9679 17.1006 17.2996C16.659 17.6313 16.0321 17.5422 15.7004 17.1006C15.2494 16.5001 14.8338 15.9946 14.2846 15.6225C13.7607 15.2675 13.0614 15 12.0004 15C10.9393 15 10.2398 15.2675 9.7157 15.6225C9.16624 15.9947 8.75053 16.5002 8.29957 17.1006Z" fill="#0000CC"/>
</svg>
