<svg width="24" height="24" viewBox="0 0 24 24" fill="none" xmlns="http://www.w3.org/2000/svg">
<path fill-rule="evenodd" clip-rule="evenodd" d="M12 22C17.5228 22 22 17.5228 22 12C22 6.47715 17.5228 2 12 2C6.47715 2 2 6.47715 2 12C2 17.5228 6.47715 22 12 22ZM8 13C7.44772 13 7 13.4477 7 14C7 16.7614 9.23858 19 12 19C14.7614 19 17 16.7614 17 14C17 13.4477 16.5523 13 16 13H8ZM7.85156 9.29998C7.85156 8.49916 8.50075 7.84998 9.30156 7.84998C10.1024 7.84998 10.7516 8.49916 10.7516 9.29998C10.7516 10.1008 10.1024 10.75 9.30156 10.75C8.50075 10.75 7.85156 10.1008 7.85156 9.29998ZM13.25 9.29998C13.25 8.49916 13.8992 7.84998 14.7 7.84998C15.5008 7.84998 16.15 8.49916 16.15 9.29998C16.15 10.1008 15.5008 10.75 14.7 10.75C13.8992 10.75 13.25 10.1008 13.25 9.29998Z" fill="#0000CC"/>
</svg>
