<svg width="24" height="24" viewBox="0 0 24 24" fill="none" xmlns="http://www.w3.org/2000/svg">
<path d="M13 9.5C13 8.67157 13.6716 8 14.5 8C15.3284 8 16 8.67157 16 9.5C16 10.3284 15.3284 11 14.5 11C13.6716 11 13 10.3284 13 9.5Z" fill="#0000CC"/>
<path fill-rule="evenodd" clip-rule="evenodd" d="M15.5796 21.3403C19.3344 19.9004 22 16.2615 22 12C22 6.47715 17.5228 2 12 2C6.47715 2 2 6.47715 2 12C2 16.2615 4.6656 19.9004 8.42039 21.3403C8.15138 20.9369 8 20.4817 8 20V17.5182C6.93412 16.697 6 15.4854 6 14C6 13.6756 6.15736 13.3714 6.4221 13.1839C6.68675 12.9965 7.02647 12.9493 7.33237 13.0568L7.3367 13.0584L7.35717 13.0654C7.37595 13.0719 7.40485 13.0817 7.443 13.0945C7.51933 13.1199 7.63254 13.157 7.77581 13.2018C8.06282 13.2914 8.46799 13.4113 8.93735 13.531C9.89383 13.775 11.0471 14 12 14C12.9529 14 14.1062 13.775 15.0626 13.531C15.532 13.4113 15.9372 13.2914 16.2242 13.2018C16.3675 13.157 16.4807 13.1199 16.557 13.0945C16.5952 13.0817 16.624 13.0719 16.6428 13.0654L16.6633 13.0584L16.6681 13.0567C16.9741 12.949 17.3132 12.9965 17.5779 13.1839C17.8426 13.3714 18 13.6756 18 14C18 15.4854 17.0659 16.697 16 17.5182V20C16 20.4817 15.8486 20.9369 15.5796 21.3403ZM14.5 6C12.567 6 11 7.567 11 9.5C11 11.433 12.567 13 14.5 13C16.433 13 18 11.433 18 9.5C18 7.567 16.433 6 14.5 6ZM6.58466 10.3113C6.87256 10.1038 7.18334 10 7.5 10C7.81666 10 8.12744 10.1038 8.41534 10.3113C8.8634 10.6342 9.48838 10.5327 9.81128 10.0847C10.1342 9.6366 10.0327 9.01162 9.58466 8.68872C8.99004 8.2602 8.2762 8 7.5 8C6.7238 8 6.00996 8.2602 5.41534 8.68872C4.96728 9.01162 4.86582 9.6366 5.18872 10.0847C5.51162 10.5327 6.1366 10.6342 6.58466 10.3113Z" fill="#0000CC"/>
<path d="M12 22C13.1046 22 14 20.9255 14 19.6V17H13.5C13.2659 17 13 17 13 17H12.5C12.5 17 12.3788 17 12 17C11.6212 17 12 17 11.5 17H11C11 17 10.7341 17 10.5 17H10V19.6C10 20.9255 10.8954 22 12 22Z" fill="#0000CC"/>
</svg>
