<svg width="24" height="24" viewBox="0 0 24 24" fill="none" xmlns="http://www.w3.org/2000/svg">
<path fill-rule="evenodd" clip-rule="evenodd" d="M22 12C22 17.5228 17.5228 22 12 22C6.47715 22 2 17.5228 2 12C2 6.47715 6.47715 2 12 2C17.5228 2 22 6.47715 22 12ZM7.33207 13.0567L7.3367 13.0584L7.35717 13.0654C7.37595 13.0719 7.40485 13.0817 7.443 13.0945C7.51933 13.1199 7.63254 13.157 7.77581 13.2018C8.06282 13.2914 8.46799 13.4113 8.93735 13.531C9.89383 13.775 11.0471 14 12 14C12.9529 14 14.1062 13.775 15.0626 13.531C15.532 13.4113 15.9372 13.2914 16.2242 13.2018C16.3675 13.157 16.4807 13.1199 16.557 13.0945C16.5952 13.0817 16.624 13.0719 16.6428 13.0654L16.6633 13.0584L16.6676 13.0568C16.9736 12.9492 17.3132 12.9965 17.5779 13.1839C17.8426 13.3714 18 13.6756 18 14C18 15.5666 16.9573 16.8285 15.8399 17.6382C14.708 18.4584 13.2571 19 12 19C10.7429 19 9.29205 18.4584 8.16012 17.6382C7.04268 16.8285 6 15.5666 6 14C6 13.6756 6.15736 13.3714 6.4221 13.1839C6.68675 12.9965 7.02618 12.9492 7.33207 13.0567ZM8.51997 6.4989C8.66961 6.30903 8.99323 6 9.5 6C10.0068 6 10.3304 6.30903 10.48 6.4989C10.6386 6.70005 10.7376 6.92915 10.8022 7.12311C10.935 7.52148 11 8.00821 11 8.5C11 8.99179 10.935 9.47852 10.8022 9.87689C10.7376 10.0708 10.6386 10.2999 10.48 10.5011C10.3304 10.691 10.0068 11 9.5 11C8.99323 11 8.66961 10.691 8.51997 10.5011C8.36144 10.2999 8.26242 10.0708 8.19776 9.87689C8.06497 9.47852 8 8.99179 8 8.5C8 8.00821 8.06497 7.52148 8.19776 7.12311C8.26242 6.92915 8.36144 6.70005 8.51997 6.4989ZM14.5 6C13.9932 6 13.6696 6.30903 13.52 6.4989C13.3614 6.70005 13.2624 6.92915 13.1978 7.12311C13.065 7.52148 13 8.00821 13 8.5C13 8.99179 13.065 9.47852 13.1978 9.87689C13.2624 10.0708 13.3614 10.2999 13.52 10.5011C13.6696 10.691 13.9932 11 14.5 11C15.0068 11 15.3304 10.691 15.48 10.5011C15.6386 10.2999 15.7376 10.0708 15.8022 9.87689C15.935 9.47852 16 8.99179 16 8.5C16 8.00821 15.935 7.52148 15.8022 7.12311C15.7376 6.92915 15.6386 6.70005 15.48 6.4989C15.3304 6.30903 15.0068 6 14.5 6Z" fill="#0000CC"/>
</svg>
