<svg width="24" height="24" viewBox="0 0 24 24" fill="none" xmlns="http://www.w3.org/2000/svg">
<path fill-rule="evenodd" clip-rule="evenodd" d="M2 12C2 6.47715 6.47715 2 12 2C17.5228 2 22 6.47715 22 12C22 17.5228 17.5228 22 12 22C6.47715 22 2 17.5228 2 12ZM9.21708 17.197C9.94365 16.4495 10.9255 16 12 16C13.0745 16 14.0563 16.4495 14.7829 17.197C15.1679 17.593 15.801 17.602 16.197 17.2171C16.593 16.8321 16.602 16.199 16.2171 15.803C15.1399 14.6948 13.6509 14 12 14C10.3491 14 8.8601 14.6948 7.78292 15.803C7.39798 16.199 7.40698 16.8321 7.80301 17.2171C8.19904 17.602 8.83214 17.593 9.21708 17.197ZM5 10C5 9.44772 5.44772 9 6 9H9.5C10.3284 9 11 9.67157 11 10.5C11 11.3284 10.3284 12 9.5 12C8.84689 12 8.29127 11.5826 8.08535 11H6C5.44772 11 5 10.5523 5 10ZM14 9C13.4477 9 13 9.44772 13 10C13 10.5523 13.4477 11 14 11H16.0854C16.2913 11.5826 16.8469 12 17.5 12C18.3284 12 19 11.3284 19 10.5C19 9.67157 18.3284 9 17.5 9H14Z" fill="#0000CC"/>
</svg>
