<svg width="24" height="24" viewBox="0 0 24 24" fill="none" xmlns="http://www.w3.org/2000/svg">
<path fill-rule="evenodd" clip-rule="evenodd" d="M4 3C4.33435 3 4.64658 3.1671 4.83205 3.4453L6.83205 6.4453C6.94156 6.60957 7 6.80258 7 7V9H9V7C9 6.80258 9.05844 6.60957 9.16795 6.4453L11.1679 3.4453C11.3534 3.1671 11.6656 3 12 3C12.3344 3 12.6466 3.1671 12.8321 3.4453L14.8321 6.4453C14.9416 6.60957 15 6.80258 15 7V9H17V7C17 6.80258 17.0584 6.60957 17.1679 6.4453L19.1679 3.4453C19.3534 3.1671 19.6656 3 20 3C20.3344 3 20.6466 3.1671 20.8321 3.4453L22.8321 6.4453C22.9416 6.60957 23 6.80258 23 7V20C23 20.5523 22.5523 21 22 21H18C17.4477 21 17 20.5523 17 20V17H15V20C15 20.5523 14.5523 21 14 21H10C9.44772 21 9 20.5523 9 20V17H7V20C7 20.5523 6.55228 21 6 21H2C1.44772 21 1 20.5523 1 20V7C1 6.80258 1.05844 6.60957 1.16795 6.4453L3.16795 3.4453C3.35342 3.1671 3.66565 3 4 3ZM7 15H9V11H7V15ZM15 11V15H17V11H15Z" fill="#0000CC"/>
</svg>
