<svg width="24" height="24" viewBox="0 0 24 24" fill="none" xmlns="http://www.w3.org/2000/svg">
<path fill-rule="evenodd" clip-rule="evenodd" d="M11.2346 2.15224C11.4773 2.05173 11.7374 2 12 2C12.2626 2 12.5227 2.05173 12.7654 2.15224C13.008 2.25275 13.2285 2.40007 13.4142 2.58579C13.5873 2.75888 13.7271 2.96218 13.8266 3.18548C14.9448 3.41599 15.9872 3.85392 16.9118 4.45726C17.1527 4.36504 17.4085 4.31766 17.6667 4.31766C17.944 4.31766 18.2185 4.37227 18.4746 4.47836C18.7308 4.58446 18.9635 4.73996 19.1595 4.93599C19.3556 5.13203 19.5111 5.36475 19.6172 5.62089C19.7233 5.87702 19.7779 6.15154 19.7779 6.42877C19.7779 6.69891 19.726 6.96646 19.6252 7.21695C20.1861 8.10919 20.5946 9.10681 20.8145 10.1734C21.0378 10.2729 21.2411 10.4127 21.4142 10.5858C21.5999 10.7715 21.7472 10.992 21.8478 11.2346C21.9483 11.4773 22 11.7374 22 12C22 12.2626 21.9483 12.5227 21.8478 12.7654C21.7472 13.008 21.5999 13.2285 21.4142 13.4142C21.2411 13.5874 21.0377 13.7271 20.8143 13.8267C20.6988 14.3869 20.5311 14.9282 20.3167 15.4452C20.4593 15.6238 20.5722 15.8247 20.6506 16.0401C20.7454 16.3006 20.788 16.5773 20.7759 16.8542C20.7638 17.1312 20.6972 17.4031 20.5801 17.6543C20.4629 17.9056 20.2974 18.1313 20.093 18.3186C19.8886 18.5059 19.6493 18.6511 19.3888 18.7459C19.1396 18.8367 18.8645 18.8247 18.6242 18.7126C18.3838 18.6005 18.1978 18.3975 18.1071 18.1483L17.3471 16.0601C17.2563 15.8108 17.2684 15.5358 17.3804 15.2954C17.4925 15.0551 17.6955 14.8691 17.9447 14.7784C18.1168 14.7157 18.2958 14.6759 18.4774 14.6596C18.6928 14.1354 18.8465 13.5793 18.9292 13H16C15.4477 13 15 12.5523 15 12C15 11.4477 15.4477 11 16 11H18.9291C18.7595 9.81409 18.2926 8.72407 17.6064 7.80783L15.7071 9.70711C15.3166 10.0976 14.6834 10.0976 14.2929 9.70711C13.9024 9.31658 13.9024 8.68342 14.2929 8.29289L16.1922 6.39362C15.2759 5.70739 14.1859 5.24052 13 5.07089V8C13 8.55228 12.5523 9 12 9C11.4477 9 11 8.55228 11 8V5.07089C9.81409 5.24052 8.72407 5.70739 7.80783 6.39362L9.70711 8.29289C10.0976 8.68342 10.0976 9.31658 9.70711 9.70711C9.31658 10.0976 8.68342 10.0976 8.29289 9.70711L6.39362 7.80783C5.70739 8.72407 5.24052 9.81409 5.07089 11H8C8.55228 11 9 11.4477 9 12C9 12.5523 8.55228 13 8 13H5.07077C5.15352 13.5792 5.30709 14.1351 5.52246 14.6591C5.70539 14.6753 5.88584 14.7152 6.05915 14.7783C6.57813 14.9672 6.84571 15.541 6.65682 16.06L5.89678 18.1482C5.70788 18.6672 5.13404 18.9348 4.61506 18.7459C4.35455 18.6511 4.11526 18.5059 3.91086 18.3186C3.70646 18.1313 3.54095 17.9056 3.42379 17.6543C3.30662 17.403 3.2401 17.1312 3.228 16.8542C3.21591 16.5772 3.25849 16.3006 3.35331 16.0401C3.43124 15.826 3.54319 15.6262 3.68458 15.4484C3.46955 14.9304 3.30148 14.388 3.18569 13.8267C2.96231 13.7271 2.75894 13.5874 2.58579 13.4142C2.40007 13.2285 2.25275 13.008 2.15224 12.7654C2.05173 12.5227 2 12.2626 2 12C2 11.7374 2.05173 11.4773 2.15224 11.2346C2.25275 10.992 2.40007 10.7715 2.58579 10.5858C2.75888 10.4127 2.96218 10.273 3.18548 10.1734C3.40535 9.10684 3.81392 8.10925 4.37474 7.21703C4.27393 6.96654 4.22208 6.69898 4.22208 6.42883C4.22208 6.1516 4.27669 5.87708 4.38278 5.62095C4.48887 5.36481 4.64438 5.13209 4.84041 4.93605C5.03645 4.74002 5.26917 4.58451 5.52531 4.47842C5.78144 4.37233 6.05596 4.31772 6.33319 4.31772C6.59141 4.31772 6.84727 4.36509 7.08811 4.45731C8.01276 3.85394 9.05518 3.416 10.1734 3.18548C10.2729 2.96218 10.4127 2.75888 10.5858 2.58579C10.7715 2.40007 10.992 2.25275 11.2346 2.15224ZM10 12C10 10.8954 10.8954 10 12 10C13.1046 10 14 10.8954 14 12C14 12.4399 13.858 12.8466 13.6173 13.1768L16.9138 20.5939C17.0513 20.9032 17.0229 21.2611 16.8385 21.5449C16.654 21.8287 16.3385 22 16 22H8C7.66149 22 7.34596 21.8287 7.16151 21.5449C6.97705 21.2611 6.94871 20.9032 7.08619 20.5939L10.3827 13.1768C10.142 12.8466 10 12.4399 10 12Z" fill="#0000CC"/>
</svg>
