<svg width="24" height="24" viewBox="0 0 24 24" fill="none" xmlns="http://www.w3.org/2000/svg">
<path fill-rule="evenodd" clip-rule="evenodd" d="M13 2H8.8C7.11984 2 6.27976 2 5.63803 2.32698C5.07354 2.6146 4.6146 3.07354 4.32698 3.63803C4 4.27976 4 5.11984 4 6.8V17.2C4 18.8802 4 19.7202 4.32698 20.362C4.6146 20.9265 5.07354 21.3854 5.63803 21.673C6.27976 22 7.11984 22 8.8 22H15.2C16.8802 22 17.7202 22 18.362 21.673C18.9265 21.3854 19.3854 20.9265 19.673 20.362C20 19.7202 20 18.8802 20 17.2V9H16.2C15.0799 9 14.5198 9 14.092 8.78201C13.7157 8.59027 13.4097 8.28431 13.218 7.90798C13 7.48016 13 6.9201 13 5.8V2ZM11.8404 11.0598C12.2363 11.2031 12.5 11.579 12.5 12.0001V18.0001C12.5 18.4211 12.2363 18.797 11.8404 18.9403C11.4446 19.0836 11.0013 18.9637 10.7318 18.6402L9.36496 17.0001H8.5C7.94772 17.0001 7.5 16.5523 7.5 16.0001V14.0001C7.5 13.4478 7.94772 13.0001 8.5 13.0001H9.36496L10.7318 11.3599C11.0013 11.0364 11.4446 10.9165 11.8404 11.0598ZM13.7193 12.3751C14.0645 11.944 14.6938 11.8742 15.1249 12.2194C15.9469 12.8774 16.5 13.8666 16.5 15.0001C16.5 16.1335 15.9469 17.1227 15.1249 17.7807C14.6938 18.1259 14.0645 18.0561 13.7193 17.625C13.3742 17.1938 13.4439 16.5645 13.8751 16.2194C14.2806 15.8947 14.5 15.4559 14.5 15.0001C14.5 14.5442 14.2806 14.1054 13.8751 13.7807C13.4439 13.4356 13.3742 12.8063 13.7193 12.3751Z" fill="#0000CC"/>
<path d="M19.4142 6.41426C19.5852 6.58528 19.7221 6.78408 19.8204 7.00005H15.5C15.2239 7.00005 15 6.77619 15 6.50005V2.17969C15.216 2.27797 15.4148 2.41482 15.5858 2.58583L19.4142 6.41426Z" fill="#0000CC"/>
</svg>
