<svg width="24" height="24" viewBox="0 0 24 24" fill="none" xmlns="http://www.w3.org/2000/svg">
<path fill-rule="evenodd" clip-rule="evenodd" d="M13 2H8.8C7.11984 2 6.27976 2 5.63803 2.32698C5.07354 2.6146 4.6146 3.07354 4.32698 3.63803C4 4.27976 4 5.11984 4 6.8V17.2C4 18.8802 4 19.7202 4.32698 20.362C4.6146 20.9265 5.07354 21.3854 5.63803 21.673C6.27976 22 7.11984 22 8.8 22H15.2C16.8802 22 17.7202 22 18.362 21.673C18.9265 21.3854 19.3854 20.9265 19.673 20.362C20 19.7202 20 18.8802 20 17.2V9H16.2C15.0799 9 14.5198 9 14.092 8.78201C13.7157 8.59027 13.4097 8.28431 13.218 7.90798C13 7.48016 13 6.9201 13 5.8V2ZM13.9701 11.7577C13.8362 11.2219 13.2933 10.8961 12.7575 11.0301C12.2217 11.164 11.8959 11.707 12.0299 12.2428L13.5299 18.2428C13.6412 18.6879 14.0411 19.0002 14.5 19.0002C14.9589 19.0002 15.3589 18.6879 15.4701 18.2428L16.9701 12.2428C17.1041 11.707 16.7783 11.164 16.2425 11.0301C15.7067 10.8961 15.1638 11.2219 15.0299 11.7577L14.5 13.8771L13.9701 11.7577ZM10.5078 13.0002C11.06 12.9959 11.5043 12.5447 11.5 11.9925C11.4957 11.4402 11.0445 10.996 10.4922 11.0003C9.90741 11.0048 9.35445 11.0193 8.85195 11.2274C8.11687 11.5319 7.53284 12.1159 7.22836 12.851C7.09336 13.1769 7.04385 13.5069 7.02135 13.8367C6.99998 14.1499 6.99999 14.5284 7 14.9671V15.0311C6.99999 15.4697 6.99998 15.8482 7.02135 16.1614C7.04385 16.4913 7.09336 16.8212 7.22836 17.1471C7.53284 17.8822 8.11687 18.4662 8.85195 18.7707C9.35445 18.9788 9.90741 18.9933 10.4922 18.9979C11.0445 19.0022 11.4957 18.5579 11.5 18.0057C11.5043 17.4534 11.06 17.0022 10.5078 16.9979C9.86876 16.993 9.70487 16.9592 9.61732 16.9229C9.37229 16.8215 9.17762 16.6268 9.07612 16.3818C9.05888 16.3401 9.03227 16.2533 9.01671 16.0253C9.00054 15.7883 9 15.4787 9 14.9991C9 14.5194 9.00054 14.2098 9.01671 13.9728C9.03227 13.7448 9.05888 13.658 9.07612 13.6164C9.17762 13.3714 9.37229 13.1767 9.61732 13.0752C9.70487 13.0389 9.86876 13.0052 10.5078 13.0002Z" fill="#0000CC"/>
<path d="M19.4142 6.41426C19.5852 6.58528 19.7221 6.78408 19.8204 7.00005H15.5C15.2239 7.00005 15 6.77619 15 6.50005V2.17969C15.216 2.27797 15.4148 2.41482 15.5858 2.58583L19.4142 6.41426Z" fill="#0000CC"/>
</svg>
