<svg width="24" height="24" viewBox="0 0 24 24" fill="none" xmlns="http://www.w3.org/2000/svg">
<path fill-rule="evenodd" clip-rule="evenodd" d="M8.8 2H15L20 7V13.0069C19.3042 12.9665 18.6173 13.1123 17.9963 13.4044C16.6327 12.7619 14.9432 12.8113 13.5488 14.0253C11.7552 15.5868 11.4863 18.2354 12.9155 20.1093C13.3131 20.6305 14.0223 21.3517 14.6912 21.9976L14.6944 22H8.8C7.11984 22 6.27976 22 5.63803 21.673C5.07354 21.3854 4.6146 20.9265 4.32698 20.362C4 19.7202 4 18.8802 4 17.2V6.8C4 5.11984 4 4.27976 4.32698 3.63803C4.6146 3.07354 5.07354 2.6146 5.63803 2.32698C6.27976 2 7.11984 2 8.8 2ZM14 7.2V3.5L18.5 8H14.8C14.52 8 14.38 8 14.273 7.9455C14.1789 7.89757 14.1024 7.82108 14.0545 7.727C14 7.62004 14 7.48003 14 7.2Z" fill="#0000CC"/>
<path d="M17.9973 15.8705C17.1975 14.9178 15.8639 14.6616 14.8619 15.5339C13.8599 16.4063 13.7188 17.8648 14.5057 18.8966C14.9736 19.5101 16.1197 20.6103 16.9719 21.4015C17.3237 21.728 17.4996 21.8913 17.7114 21.9575C17.8925 22.0142 18.102 22.0142 18.2832 21.9575C18.4949 21.8913 18.6708 21.728 19.0226 21.4015C19.8748 20.6103 21.0209 19.5101 21.4888 18.8966C22.2757 17.8648 22.1519 16.3971 21.1326 15.5339C20.1134 14.6707 18.797 14.9178 17.9973 15.8705Z" fill="#0000CC"/>
</svg>
