<svg width="24" height="24" viewBox="0 0 24 24" fill="none" xmlns="http://www.w3.org/2000/svg">
<path fill-rule="evenodd" clip-rule="evenodd" d="M8.8 2H15L20 7V14.1709C19.6078 14.3093 19.2382 14.5318 18.9191 14.8391L16.8335 16.8475C15.6378 15.922 13.9118 16.0274 12.839 17.1414C11.6898 18.3349 11.7256 20.234 12.9191 21.3833L13.5595 22H8.8C7.11984 22 6.27976 22 5.63803 21.673C5.07354 21.3854 4.6146 20.9265 4.32698 20.362C4 19.7202 4 18.8802 4 17.2V6.8C4 5.11984 4 4.27976 4.32698 3.63803C4.6146 3.07354 5.07354 2.6146 5.63803 2.32698C6.27976 2 7.11984 2 8.8 2ZM14 7.2V3.5L18.5 8H14.8C14.52 8 14.38 8 14.273 7.9455C14.1789 7.89757 14.1024 7.82108 14.0545 7.727C14 7.62004 14 7.48003 14 7.2Z" fill="#0000CC"/>
<path d="M21.7203 16.3064C22.1034 16.7042 22.0915 17.3372 21.6936 17.7203L17.5398 21.7203C17.1525 22.0932 16.5398 22.0932 16.1525 21.7203L14.3064 19.9425C13.9085 19.5595 13.8966 18.9264 14.2797 18.5286C14.6628 18.1308 15.2958 18.1188 15.6936 18.5019L16.8462 19.6117L20.3064 16.2797C20.7042 15.8966 21.3372 15.9085 21.7203 16.3064Z" fill="#0000CC"/>
</svg>
