<svg width="24" height="24" viewBox="0 0 24 24" fill="none" xmlns="http://www.w3.org/2000/svg">
<path d="M19.3939 20.8081L20.2929 21.7071C20.6834 22.0976 21.3166 22.0976 21.7071 21.7071C22.0976 21.3166 22.0976 20.6834 21.7071 20.2929L3.70711 2.29289C3.31658 1.90237 2.68342 1.90237 2.29289 2.29289C1.90237 2.68342 1.90237 3.31658 2.29289 3.70711L4.01069 5.42491C4 5.81136 4 6.26273 4 6.8V17.2C4 18.8802 4 19.7202 4.32698 20.362C4.6146 20.9265 5.07354 21.3854 5.63803 21.673C6.27976 22 7.11984 22 8.8 22H15.2C16.8802 22 17.7202 22 18.362 21.673C18.7691 21.4656 19.1213 21.1691 19.3939 20.8081Z" fill="#0000CC"/>
<path d="M20 9V15.7858L6.31998 2.10576C6.88919 2 7.64667 2 8.8 2H13V5.8C13 6.9201 13 7.48016 13.218 7.90798C13.4097 8.28431 13.7157 8.59027 14.092 8.78201C14.5198 9 15.0799 9 16.2 9H20Z" fill="#0000CC"/>
<path d="M19.8204 7.00005C19.7221 6.78408 19.5852 6.58528 19.4142 6.41426L15.5858 2.58583C15.4148 2.41482 15.216 2.27797 15 2.17969V6.50005C15 6.77619 15.2239 7.00005 15.5 7.00005H19.8204Z" fill="#0000CC"/>
</svg>
