<svg width="24" height="24" viewBox="0 0 24 24" fill="none" xmlns="http://www.w3.org/2000/svg">
<path d="M17 4.17964C17.2159 4.27792 17.4147 4.41477 17.5857 4.58578L21.4142 8.41421C21.5852 8.58523 21.722 8.78403 21.8203 9H17.5C17.2238 9 17 8.77614 17 8.5V4.17964Z" fill="#0000CC"/>
<path d="M22 15.2V11H18.2C17.0799 11 16.5198 11 16.092 10.782C15.7157 10.5903 15.4097 10.2843 15.218 9.90798C15 9.48016 15 8.9201 15 7.8V4H6.8C5.11984 4 4.27976 4 3.63803 4.32698C3.07354 4.6146 2.6146 5.07354 2.32698 5.63803C2 6.27976 2 7.11984 2 8.8V15.2C2 16.8802 2 17.7202 2.32698 18.362C2.6146 18.9265 3.07354 19.3854 3.63803 19.673C4.27976 20 5.11984 20 6.8 20H17.2C18.8802 20 19.7202 20 20.362 19.673C20.9265 19.3854 21.3854 18.9265 21.673 18.362C22 17.7202 22 16.8802 22 15.2Z" fill="#0000CC"/>
</svg>
