<svg width="24" height="24" viewBox="0 0 24 24" fill="none" xmlns="http://www.w3.org/2000/svg">
<path fill-rule="evenodd" clip-rule="evenodd" d="M15 2H8.8C7.11984 2 6.27976 2 5.63803 2.32698C5.07354 2.6146 4.6146 3.07354 4.32698 3.63803C4 4.27976 4 5.11984 4 6.8V17.2C4 18.8802 4 19.7202 4.32698 20.362C4.6146 20.9265 5.07354 21.3854 5.63803 21.673C6.27976 22 7.11984 22 8.8 22H15.2C16.5699 22 17.3813 22 17.9821 21.8228C17.5793 21.6779 17.2014 21.444 16.8787 21.1213C16.5512 20.7938 16.3152 20.4095 16.1708 20H15C13.3431 20 12 18.6569 12 17C12 15.3431 13.3431 14 15 14H16.1708C16.3152 13.5905 16.5512 13.2062 16.8787 12.8787C17.7228 12.0346 18.9447 11.7987 20 12.1708V7L15 2ZM14 3.5V7.2C14 7.48003 14 7.62004 14.0545 7.727C14.1024 7.82108 14.1789 7.89757 14.273 7.9455C14.38 8 14.52 8 14.8 8H18.5L14 3.5Z" fill="#0000CC"/>
<path d="M19.7071 14.2929C19.3166 13.9024 18.6834 13.9024 18.2929 14.2929C17.9024 14.6834 17.9024 15.3166 18.2929 15.7071L18.5858 16H15C14.4477 16 14 16.4477 14 17C14 17.5523 14.4477 18 15 18H18.5858L18.2929 18.2929C17.9024 18.6834 17.9024 19.3166 18.2929 19.7071C18.6834 20.0976 19.3166 20.0976 19.7071 19.7071L21.7071 17.7071C22.0976 17.3166 22.0976 16.6834 21.7071 16.2929L19.7071 14.2929Z" fill="#0000CC"/>
</svg>
