<svg width="24" height="24" viewBox="0 0 24 24" fill="none" xmlns="http://www.w3.org/2000/svg">
<path fill-rule="evenodd" clip-rule="evenodd" d="M15 2H12.8C11.1198 2 10.2798 2 9.63803 2.32698C9.07354 2.6146 8.6146 3.07354 8.32698 3.63803C8 4.27976 8 5.11984 8 6.8V13.2C8 14.8802 8 15.7202 8.32698 16.362C8.6146 16.9265 9.07354 17.3854 9.63803 17.673C10.2798 18 11.1198 18 12.8 18H15.2C16.8802 18 17.7202 18 18.362 17.673C18.9265 17.3854 19.3854 16.9265 19.673 16.362C20 15.7202 20 14.8802 20 13.2V7L15 2ZM18.5 8L14 3.5V7.2C14 7.48003 14 7.62004 14.0545 7.727C14.1024 7.82108 14.1789 7.89757 14.273 7.9455C14.38 8 14.52 8 14.8 8H18.5Z" fill="#0000CC"/>
<path d="M6 7C6 6.44772 5.55229 6 5 6C4.44772 6 4 6.44772 4 7V14.6428C3.99999 15.7266 3.99998 16.6007 4.05782 17.3086C4.11737 18.0375 4.24318 18.6777 4.54497 19.27C5.02433 20.2108 5.78924 20.9757 6.73005 21.455C7.32234 21.7568 7.96253 21.8826 8.69138 21.9422C9.39926 22 10.2734 22 11.3572 22H15C15.5523 22 16 21.5523 16 21C16 20.4477 15.5523 20 15 20H11.4C10.2634 20 9.47108 19.9992 8.85424 19.9488C8.24907 19.8994 7.90138 19.8072 7.63803 19.673C7.07354 19.3854 6.6146 18.9265 6.32698 18.362C6.19279 18.0986 6.10062 17.7509 6.05118 17.1458C6.00078 16.5289 6 15.7366 6 14.6V7Z" fill="#0000CC"/>
</svg>
