<svg width="24" height="24" viewBox="0 0 24 24" fill="none" xmlns="http://www.w3.org/2000/svg">
<path d="M8.8 2H13V5.8C13 6.9201 13 7.48016 13.218 7.90798C13.4097 8.28431 13.7157 8.59027 14.092 8.78201C14.5198 9 15.0799 9 16.2 9H20V12H15C11.6863 12 9 14.6863 9 18C9 19.5367 9.57771 20.9385 10.5278 22H8.8C7.11984 22 6.27976 22 5.63803 21.673C5.07354 21.3854 4.6146 20.9265 4.32698 20.362C4 19.7202 4 18.8802 4 17.2V6.8C4 5.11984 4 4.27976 4.32698 3.63803C4.6146 3.07354 5.07354 2.6146 5.63803 2.32698C6.27976 2 7.11984 2 8.8 2Z" fill="#0000CC"/>
<path d="M19.8204 7.00005C19.7221 6.78408 19.5852 6.58528 19.4142 6.41426L15.5858 2.58583C15.4148 2.41482 15.216 2.27797 15 2.17969V6.50005C15 6.77619 15.2239 7.00005 15.5 7.00005H19.8204Z" fill="#0000CC"/>
<path d="M13 18C13 16.8954 13.8954 16 15 16C15.5523 16 16 15.5523 16 15C16 14.4477 15.5523 14 15 14C12.7909 14 11 15.7909 11 18C11 20.2091 12.7909 22 15 22C15.5523 22 16 21.5523 16 21C16 20.4477 15.5523 20 15 20C13.8954 20 13 19.1046 13 18Z" fill="#0000CC"/>
<path d="M19 14C18.4477 14 18 14.4477 18 15C18 15.5523 18.4477 16 19 16C20.1046 16 21 16.8954 21 18C21 19.1046 20.1046 20 19 20C18.4477 20 18 20.4477 18 21C18 21.5523 18.4477 22 19 22C21.2091 22 23 20.2091 23 18C23 15.7909 21.2091 14 19 14Z" fill="#0000CC"/>
<path d="M14 18C14 17.4477 14.4477 17 15 17H19C19.5523 17 20 17.4477 20 18C20 18.5523 19.5523 19 19 19H15C14.4477 19 14 18.5523 14 18Z" fill="#0000CC"/>
</svg>
