<svg width="24" height="24" viewBox="0 0 24 24" fill="none" xmlns="http://www.w3.org/2000/svg">
<path fill-rule="evenodd" clip-rule="evenodd" d="M15 2H8.8C7.11984 2 6.27976 2 5.63803 2.32698C5.07354 2.6146 4.6146 3.07354 4.32698 3.63803C4 4.27976 4 5.11984 4 6.8V17.2C4 18.8802 4 19.7202 4.32698 20.362C4.6146 20.9265 5.07354 21.3854 5.63803 21.673C6.27976 22 7.11984 22 8.8 22H14.1709C13.8164 20.9943 14.0139 19.837 14.7638 19C13.7084 17.8221 13.7467 16.0106 14.8787 14.8787C16.0106 13.7467 17.8221 13.7084 19 14.7638C19.2996 14.4954 19.6401 14.2978 20 14.1708V7L15 2ZM14 3.5V7.2C14 7.48003 14 7.62004 14.0545 7.727C14.1024 7.82108 14.1789 7.89757 14.273 7.9455C14.38 8 14.52 8 14.8 8H18.5L14 3.5ZM8 8C7.44772 8 7 8.44772 7 9C7 9.55228 7.44772 10 8 10H9C9.55228 10 10 9.55228 10 9C10 8.44772 9.55228 8 9 8H8ZM8 12C7.44772 12 7 12.4477 7 13C7 13.5523 7.44772 14 8 14H14C14.5523 14 15 13.5523 15 13C15 12.4477 14.5523 12 14 12H8ZM8 16C7.44772 16 7 16.4477 7 17C7 17.5523 7.44772 18 8 18H12C12.5523 18 13 17.5523 13 17C13 16.4477 12.5523 16 12 16H8Z" fill="#0000CC"/>
<path d="M17.7071 16.2929C17.3166 15.9024 16.6834 15.9024 16.2929 16.2929C15.9024 16.6834 15.9024 17.3166 16.2929 17.7071L17.5858 19L16.2929 20.2929C15.9024 20.6834 15.9024 21.3166 16.2929 21.7071C16.6834 22.0976 17.3166 22.0976 17.7071 21.7071L19 20.4142L20.2929 21.7071C20.6834 22.0976 21.3166 22.0976 21.7071 21.7071C22.0976 21.3166 22.0976 20.6834 21.7071 20.2929L20.4142 19L21.7071 17.7071C22.0976 17.3166 22.0976 16.6834 21.7071 16.2929C21.3166 15.9024 20.6834 15.9024 20.2929 16.2929L19 17.5858L17.7071 16.2929Z" fill="#0000CC"/>
</svg>
