<svg width="24" height="24" viewBox="0 0 24 24" fill="none" xmlns="http://www.w3.org/2000/svg">
<path fill-rule="evenodd" clip-rule="evenodd" d="M8.8 2H15L20 7V12.4326C19.5703 12.1104 19.0447 11.9326 18.5 11.9326C17.8104 11.9326 17.1514 12.2175 16.6789 12.7198C16.3786 13.0391 16.0786 13.1425 15.8333 13.1425C15.8001 13.1425 15.7544 13.1431 15.7224 13.1434L15.7166 13.1435C15.6558 13.1441 15.6183 13.1444 15.5875 13.1441C14.9217 13.1208 14.273 13.3644 13.7866 13.8223C13.2831 14.2962 13.0003 14.956 13.0002 15.6426L13 16.8303C13 18.7448 13.6893 20.6259 14.9249 21.9954L14.9299 22H8.8C7.11984 22 6.27976 22 5.63803 21.673C5.07354 21.3854 4.6146 20.9265 4.32698 20.362C4 19.7202 4 18.8802 4 17.2V6.8C4 5.11984 4 4.27976 4.32698 3.63803C4.6146 3.07354 5.07354 2.6146 5.63803 2.32698C6.27976 2 7.11984 2 8.8 2ZM14 7.2V3.5L18.5 8H14.8C14.52 8 14.38 8 14.273 7.9455C14.1789 7.89757 14.1024 7.82108 14.0545 7.727C14 7.62004 14 7.48003 14 7.2Z" fill="#0000CC"/>
<path d="M18.8642 14.0901C18.7697 13.9896 18.6379 13.9326 18.5 13.9326C18.3621 13.9326 18.2303 13.9896 18.1358 14.0901C17.5095 14.756 16.7018 15.1425 15.8333 15.1425C15.8116 15.1425 15.7757 15.1429 15.7379 15.1434L15.6624 15.1441C15.6303 15.1444 15.6 15.1445 15.5745 15.1443L15.5429 15.1439L15.5302 15.1435C15.3927 15.1352 15.2578 15.1841 15.1574 15.2785C15.0571 15.373 15.0002 15.5052 15.0002 15.6431L15 16.8305C15 19.2193 16.3781 21.3067 18.3538 21.9108C18.4491 21.9399 18.5509 21.9399 18.6462 21.9108C20.6219 21.3067 22 19.2193 22 16.8305V15.6426C22 15.5048 21.9431 15.373 21.8428 15.2786C21.7424 15.1841 21.6075 15.1352 21.4699 15.1435L21.4572 15.1439L21.4255 15.1443C21.4 15.1445 21.3697 15.1444 21.3375 15.1441L21.2615 15.1434C21.2239 15.143 21.1882 15.1426 21.1667 15.1426C20.2982 15.1426 19.4905 14.756 18.8642 14.0901Z" fill="#0000CC"/>
</svg>
