<svg width="24" height="24" viewBox="0 0 24 24" fill="none" xmlns="http://www.w3.org/2000/svg">
<path fill-rule="evenodd" clip-rule="evenodd" d="M8.8 2H15L20 7V12.8027C19.1175 12.2922 18.0929 12 17 12C13.6863 12 11 14.6863 11 18C11 19.5367 11.5777 20.9385 12.5278 22H8.8C7.11984 22 6.27976 22 5.63803 21.673C5.07354 21.3854 4.6146 20.9265 4.32698 20.362C4 19.7202 4 18.8802 4 17.2V6.8C4 5.11984 4 4.27976 4.32698 3.63803C4.6146 3.07354 5.07354 2.6146 5.63803 2.32698C6.27976 2 7.11984 2 8.8 2ZM14 7.2V3.5L18.5 8H14.8C14.52 8 14.38 8 14.273 7.9455C14.1789 7.89757 14.1024 7.82108 14.0545 7.727C14 7.62004 14 7.48003 14 7.2Z" fill="#0000CC"/>
<path d="M22 14.5C22 13.9477 21.5523 13.5 21 13.5C20.4477 13.5 20 13.9477 20 14.5V14.8774C19.3156 14.3286 18.4465 14 17.5 14C15.2909 14 13.5 15.7909 13.5 18C13.5 20.2091 15.2909 22 17.5 22C18.5238 22 19.4599 21.614 20.1669 20.9812C20.5784 20.6129 20.6135 19.9807 20.2451 19.5692C19.8768 19.1577 19.2446 19.1226 18.8331 19.491C18.4786 19.8083 18.0129 20 17.5 20C16.3954 20 15.5 19.1046 15.5 18C15.5 16.8954 16.3954 16 17.5 16C18.0067 16 18.4701 16.1886 18.8231 16.5H18C17.4477 16.5 17 16.9477 17 17.5C17 18.0523 17.4477 18.5 18 18.5H21C21.5523 18.5 22 18.0523 22 17.5V14.5Z" fill="#0000CC"/>
</svg>
