<svg width="24" height="24" viewBox="0 0 24 24" fill="none" xmlns="http://www.w3.org/2000/svg">
<path fill-rule="evenodd" clip-rule="evenodd" d="M15 2H8.8C7.11984 2 6.27976 2 5.63803 2.32698C5.07354 2.6146 4.6146 3.07354 4.32698 3.63803C4 4.27976 4 5.11984 4 6.8V17.2C4 18.8802 4 19.7202 4.32698 20.362C4.6146 20.9265 5.07354 21.3854 5.63803 21.673C6.27976 22 7.11984 22 8.8 22H15.2C16.8802 22 17.7202 22 18.362 21.673C18.9265 21.3854 19.3854 20.9265 19.673 20.362C20 19.7202 20 18.8802 20 17.2V7L15 2ZM14 3.5V7.2C14 7.48003 14 7.62004 14.0545 7.727C14.1024 7.82108 14.1789 7.89757 14.273 7.9455C14.38 8 14.52 8 14.8 8H18.5L14 3.5ZM8 5C7.44772 5 7 5.44772 7 6C7 6.55228 7.44772 7 8 7H10C10.5523 7 11 6.55228 11 6C11 5.44772 10.5523 5 10 5H8ZM8 8C7.44772 8 7 8.44771 7 9C7 9.55228 7.44772 10 8 10H10C10.5523 10 11 9.55228 11 9C11 8.44771 10.5523 8 10 8H8ZM10.8321 13.4453C10.6044 13.1039 10.1913 12.9362 9.79014 13.0223C9.38894 13.1084 9.08107 13.4309 9.01361 13.8357L8.65287 16H8C7.44772 16 7 16.4478 7 17C7 17.5523 7.44772 18 8 18H9.5C9.98884 18 10.406 17.6466 10.4864 17.1644L10.5707 16.6588L11.1679 17.5548C11.3534 17.8329 11.6656 18 12 18C12.3344 18 12.6466 17.8329 12.8321 17.5548L13 17.3028L13.1679 17.5548C13.3534 17.8329 13.6656 18 14 18H16C16.5523 18 17 17.5523 17 17C17 16.4478 16.5523 16 16 16H14.5352L13.8321 14.9453C13.6466 14.6672 13.3344 14.5 13 14.5C12.6656 14.5 12.3534 14.6672 12.1679 14.9453L12 15.1973L10.8321 13.4453Z" fill="#0000CC"/>
</svg>
