<svg width="24" height="24" viewBox="0 0 24 24" fill="none" xmlns="http://www.w3.org/2000/svg">
<path fill-rule="evenodd" clip-rule="evenodd" d="M15.5 2H13.3C11.6198 2 10.7798 2 10.138 2.32698C9.57354 2.6146 9.1146 3.07354 8.82698 3.63803C8.5 4.27976 8.5 5.11984 8.5 6.8V12.2C8.5 13.8802 8.5 14.7202 8.82698 15.362C9.1146 15.9265 9.57354 16.3854 10.138 16.673C10.7798 17 11.6198 17 13.3 17H15.7C17.3802 17 18.2202 17 18.862 16.673C19.4265 16.3854 19.8854 15.9265 20.173 15.362C20.5 14.7202 20.5 13.8802 20.5 12.2V7L15.5 2ZM15.3 8C15.02 8 14.88 8 14.773 7.9455C14.6789 7.89757 14.6024 7.82108 14.5545 7.727C14.5 7.62004 14.5 7.48003 14.5 7.2V3.5L19 8H15.3Z" fill="#0000CC"/>
<path d="M7.5 7H6.5C4.84315 7 3.5 8.34315 3.5 10V19C3.5 20.6569 4.84315 22 6.5 22H12.5C14.1569 22 15.5 20.6569 15.5 19V18H13.9C11.6598 18 10.5397 18 9.68404 17.564C8.93139 17.1805 8.31947 16.5686 7.93597 15.816C7.5 14.9603 7.5 13.8402 7.5 11.6V7Z" fill="#0000CC"/>
</svg>
