<svg width="24" height="24" viewBox="0 0 24 24" fill="none" xmlns="http://www.w3.org/2000/svg">
<path fill-rule="evenodd" clip-rule="evenodd" d="M8.8 2H15L20 7V12.1707C19.6872 12.0602 19.3506 12 19 12C17.3431 12 16 13.3431 16 15V16.1708C15.5905 16.3152 15.2062 16.5512 14.8787 16.8787C13.7071 18.0503 13.7071 19.9497 14.8787 21.1213L15.7327 21.9754L15.739 21.9995C15.5695 22 15.3901 22 15.2 22H8.8C7.11984 22 6.27976 22 5.63803 21.673C5.07354 21.3854 4.6146 20.9265 4.32698 20.362C4 19.7202 4 18.8802 4 17.2V6.8C4 5.11984 4 4.27976 4.32698 3.63803C4.6146 3.07354 5.07354 2.6146 5.63803 2.32698C6.27976 2 7.11984 2 8.8 2ZM14 7.2V3.5L18.5 8H14.8C14.52 8 14.38 8 14.273 7.9455C14.1789 7.89757 14.1024 7.82108 14.0545 7.727C14 7.62004 14 7.48003 14 7.2Z" fill="#0000CC"/>
<path d="M19 14C19.5523 14 20 14.4477 20 15V18.5858L20.2929 18.2929C20.6834 17.9024 21.3166 17.9024 21.7071 18.2929C22.0976 18.6834 22.0976 19.3166 21.7071 19.7071L19.7071 21.7071C19.3166 22.0976 18.6834 22.0976 18.2929 21.7071L16.2929 19.7071C15.9024 19.3166 15.9024 18.6834 16.2929 18.2929C16.6834 17.9024 17.3166 17.9024 17.7071 18.2929L18 18.5858V15C18 14.4477 18.4477 14 19 14Z" fill="#0000CC"/>
</svg>
