<svg width="24" height="24" viewBox="0 0 24 24" fill="none" xmlns="http://www.w3.org/2000/svg">
<path fill-rule="evenodd" clip-rule="evenodd" d="M8.8 2H15L20 7V12.0535C19.3378 12.1722 18.704 12.4888 18.1931 13.0032L14.1664 17.0579C13.7833 17.4433 13.44 17.7884 13.1553 18.1909C12.9049 18.5447 12.6946 18.9251 12.5279 19.3252C12.3384 19.78 12.228 20.2543 12.1044 20.7854L12.0652 20.9534C11.9814 21.3126 11.9798 21.667 12.0458 22H8.8C7.11984 22 6.27976 22 5.63803 21.673C5.07354 21.3854 4.6146 20.9265 4.32698 20.362C4 19.7202 4 18.8802 4 17.2V6.8C4 5.11984 4 4.27976 4.32698 3.63803C4.6146 3.07354 5.07354 2.6146 5.63803 2.32698C6.27976 2 7.11984 2 8.8 2ZM14 7.2V3.5L18.5 8H14.8C14.52 8 14.38 8 14.273 7.9455C14.1789 7.89757 14.1024 7.82108 14.0545 7.727C14 7.62004 14 7.48003 14 7.2Z" fill="#0000CC"/>
<path d="M19.6124 14.4125C20.1586 13.8625 21.0442 13.8625 21.5904 14.4125C22.1365 14.9625 22.1365 15.8542 21.5904 16.4043L17.7271 20.2945C17.2358 20.7892 16.9901 21.0366 16.7102 21.2329C16.4617 21.4072 16.1936 21.5513 15.9115 21.6622C15.5936 21.7871 15.2528 21.8549 14.5712 21.9906C14.2302 22.0584 13.9335 21.7488 14.013 21.4081L14.0268 21.3492C14.1758 20.7111 14.2503 20.3919 14.3742 20.0944C14.4843 19.8303 14.6231 19.5793 14.7881 19.346C14.9741 19.0832 15.2042 18.8514 15.6646 18.3878L19.6124 14.4125Z" fill="#0000CC"/>
</svg>
