<svg width="24" height="24" viewBox="0 0 24 24" fill="none" xmlns="http://www.w3.org/2000/svg">
<path fill-rule="evenodd" clip-rule="evenodd" d="M15 2H8.8C7.11984 2 6.27976 2 5.63803 2.32698C5.07354 2.6146 4.6146 3.07354 4.32698 3.63803C4 4.27976 4 5.11984 4 6.8V17.2C4 18.8802 4 19.7202 4.32698 20.362C4.6146 20.9265 5.07354 21.3854 5.63803 21.673C6.27976 22 7.11984 22 8.8 22H12.5278C11.5777 20.9385 11 19.5367 11 18C11 14.6863 13.6863 12 17 12C18.0929 12 19.1175 12.2922 20 12.8027V7L15 2ZM14 3.5V7.2C14 7.48003 14 7.62004 14.0545 7.727C14.1024 7.82108 14.1789 7.89757 14.273 7.9455C14.38 8 14.52 8 14.8 8H18.5L14 3.5ZM8 8C7.44772 8 7 8.44772 7 9C7 9.55228 7.44772 10 8 10H9C9.55228 10 10 9.55228 10 9C10 8.44772 9.55228 8 9 8H8ZM8 12C7.44772 12 7 12.4477 7 13C7 13.5523 7.44772 14 8 14H11C11.5523 14 12 13.5523 12 13C12 12.4477 11.5523 12 11 12H8ZM8 16C7.44772 16 7 16.4477 7 17C7 17.5523 7.44772 18 8 18H9C9.55228 18 10 17.5523 10 17C10 16.4477 9.55228 16 9 16H8Z" fill="#0000CC"/>
<path d="M21 13.5C21.5523 13.5 22 13.9477 22 14.5V17.5C22 18.0523 21.5523 18.5 21 18.5H18C17.4477 18.5 17 18.0523 17 17.5C17 16.9477 17.4477 16.5 18 16.5H18.8231C18.4701 16.1886 18.0067 16 17.5 16C16.3954 16 15.5 16.8954 15.5 18C15.5 19.1046 16.3954 20 17.5 20C18.0129 20 18.4786 19.8083 18.8331 19.491C19.2446 19.1226 19.8768 19.1577 20.2451 19.5692C20.6135 19.9807 20.5784 20.6129 20.1669 20.9812C19.4599 21.614 18.5238 22 17.5 22C15.2909 22 13.5 20.2091 13.5 18C13.5 15.7909 15.2909 14 17.5 14C18.4465 14 19.3156 14.3286 20 14.8774V14.5C20 13.9477 20.4477 13.5 21 13.5Z" fill="#0000CC"/>
</svg>
