<svg width="24" height="24" viewBox="0 0 24 24" fill="none" xmlns="http://www.w3.org/2000/svg">
<path fill-rule="evenodd" clip-rule="evenodd" d="M15 2H8.8C7.11984 2 6.27976 2 5.63803 2.32698C5.07354 2.6146 4.6146 3.07354 4.32698 3.63803C4 4.27976 4 5.11984 4 6.8V17.2C4 18.8802 4 19.7202 4.32698 20.362C4.6146 20.9265 5.07354 21.3854 5.63803 21.673C6.27976 22 7.11984 22 8.8 22H12.5351C12.1948 21.4117 12 20.7286 12 20V19C12 17.9583 12.3987 17.0109 13.0485 16.3006C13.3887 13.8703 15.4759 12 18 12C18.7111 12 19.3875 12.1484 20 12.416V7L15 2ZM14 3.5V7.2C14 7.48003 14 7.62004 14.0545 7.727C14.1024 7.82108 14.1789 7.89757 14.273 7.9455C14.38 8 14.52 8 14.8 8H18.5L14 3.5ZM8 8C7.44772 8 7 8.44772 7 9C7 9.55228 7.44772 10 8 10H9C9.55228 10 10 9.55228 10 9C10 8.44772 9.55228 8 9 8H8ZM8 12C7.44772 12 7 12.4477 7 13C7 13.5523 7.44772 14 8 14H11C11.5523 14 12 13.5523 12 13C12 12.4477 11.5523 12 11 12H8ZM8 16C7.44772 16 7 16.4477 7 17C7 17.5523 7.44772 18 8 18H9C9.55228 18 10 17.5523 10 17C10 16.4477 9.55228 16 9 16H8Z" fill="#0000CC"/>
<path fill-rule="evenodd" clip-rule="evenodd" d="M18 14C16.3431 14 15 15.3431 15 17V17.2676C14.4022 17.6134 14 18.2597 14 19V20C14 21.1046 14.8954 22 16 22H20C21.1046 22 22 21.1046 22 20V19C22 18.2597 21.5978 17.6134 21 17.2676V17C21 15.3431 19.6569 14 18 14ZM17 17C17 16.4477 17.4477 16 18 16C18.5523 16 19 16.4477 19 17H17Z" fill="#0000CC"/>
</svg>
