<svg width="24" height="24" viewBox="0 0 24 24" fill="none" xmlns="http://www.w3.org/2000/svg">
<path fill-rule="evenodd" clip-rule="evenodd" d="M13 2H8.8C7.11984 2 6.27976 2 5.63803 2.32698C5.07354 2.6146 4.6146 3.07354 4.32698 3.63803C4 4.27976 4 5.11984 4 6.8V17.2C4 18.8802 4 19.7202 4.32698 20.362C4.6146 20.9265 5.07354 21.3854 5.63803 21.673C6.27976 22 7.11984 22 8.8 22H15.2C16.8802 22 17.7202 22 18.362 21.673C18.9265 21.3854 19.3854 20.9265 19.673 20.362C20 19.7202 20 18.8802 20 17.2V9H16.2C15.0799 9 14.5198 9 14.092 8.78201C13.7157 8.59027 13.4097 8.28431 13.218 7.90798C13 7.48016 13 6.9201 13 5.8V2ZM10 12C9.72386 12 9.5 12.2239 9.5 12.5V18.5C9.5 18.6798 9.59657 18.8458 9.7529 18.9347C9.90923 19.0235 10.1012 19.0216 10.2558 18.9296L12 17.8913L13.7442 18.9296C13.8988 19.0216 14.0908 19.0235 14.2471 18.9347C14.4034 18.8458 14.5 18.6798 14.5 18.5V12.5C14.5 12.2239 14.2761 12 14 12H10Z" fill="#0000CC"/>
<path d="M19.4142 6.41426C19.5852 6.58528 19.7221 6.78408 19.8204 7.00005H15.5C15.2239 7.00005 15 6.77619 15 6.50005V2.17969C15.216 2.27797 15.4148 2.41482 15.5858 2.58583L19.4142 6.41426Z" fill="#0000CC"/>
</svg>
