<svg width="24" height="24" viewBox="0 0 24 24" fill="none" xmlns="http://www.w3.org/2000/svg">
<path d="M12 13C12.5523 13 13 13.4477 13 14L11 14C11 13.4477 11.4477 13 12 13Z" fill="#0000CC"/>
<path fill-rule="evenodd" clip-rule="evenodd" d="M15 2H8.8C7.11984 2 6.27976 2 5.63803 2.32698C5.07354 2.6146 4.6146 3.07354 4.32698 3.63803C4 4.27976 4 5.11984 4 6.8V17.2C4 18.8802 4 19.7202 4.32698 20.362C4.6146 20.9265 5.07354 21.3854 5.63803 21.673C6.27976 22 7.11984 22 8.8 22H15.2C16.8802 22 17.7202 22 18.362 21.673C18.9265 21.3854 19.3854 20.9265 19.673 20.362C20 19.7202 20 18.8802 20 17.2V7L15 2ZM14 3.5V7.2C14 7.48003 14 7.62004 14.0545 7.727C14.1024 7.82108 14.1789 7.89757 14.273 7.9455C14.38 8 14.52 8 14.8 8H18.5L14 3.5ZM12 11C10.3432 11 9.00002 12.3431 9.00002 14V14.2679C8.62083 14.4869 8.32165 14.8257 8.15226 15.2346C8.05531 15.4687 8.02484 15.6944 8.01185 15.8848C7.9999 16.0599 7.99995 16.2665 8.00001 16.4773L8.00001 16.5265C7.99999 16.7365 7.99997 16.9411 8.01185 17.1152C8.02484 17.3056 8.05531 17.5313 8.15226 17.7654C8.35524 18.2554 8.74459 18.6448 9.23465 18.8478C9.46869 18.9447 9.69442 18.9752 9.88479 18.9882C10.0589 19 10.2635 19 10.4735 19H13.5265C13.7365 19 13.9412 19 14.1152 18.9882C14.3056 18.9752 14.5313 18.9447 14.7654 18.8478C15.2554 18.6448 15.6448 18.2554 15.8478 17.7654C15.9447 17.5313 15.9752 17.3056 15.9882 17.1152C16.0008 16.9308 16.0004 16.7458 16.0001 16.561L16 16.4735C16 16.2635 16.0001 16.0589 15.9882 15.8848C15.9752 15.6944 15.9447 15.4687 15.8478 15.2346C15.6784 14.8257 15.3792 14.4869 15 14.2679V14C15 12.3431 13.6569 11 12 11Z" fill="#0000CC"/>
</svg>
