<svg width="24" height="24" viewBox="0 0 24 24" fill="none" xmlns="http://www.w3.org/2000/svg">
<path fill-rule="evenodd" clip-rule="evenodd" d="M13 2H8.8C7.11984 2 6.27976 2 5.63803 2.32698C5.07354 2.6146 4.6146 3.07354 4.32698 3.63803C4 4.27976 4 5.11984 4 6.8V17.2C4 18.8802 4 19.7202 4.32698 20.362C4.6146 20.9265 5.07354 21.3854 5.63803 21.673C6.27976 22 7.11984 22 8.8 22H15.2C16.8802 22 17.7202 22 18.362 21.673C18.9265 21.3854 19.3854 20.9265 19.673 20.362C20 19.7202 20 18.8802 20 17.2V9H16.2C15.0799 9 14.5198 9 14.092 8.78201C13.7157 8.59027 13.4097 8.28431 13.218 7.90798C13 7.48016 13 6.9201 13 5.8V2ZM11 11C11 10.4477 11.4477 10 12 10C12.5523 10 13 10.4477 13 11H14C14.5523 11 15 11.4477 15 12C15 12.5523 14.5523 13 14 13H11.25C11.1119 13 11 13.1119 11 13.25C11 13.3881 11.1119 13.5 11.25 13.5H13C14.1046 13.5 15 14.3954 15 15.5V16C15 17.1046 14.1046 18 13 18C13 18.5523 12.5523 19 12 19C11.4477 19 11 18.5523 11 18H10C9.44772 18 9 17.5523 9 17C9 16.4477 9.44772 16 10 16H12.75C12.8881 16 13 15.8881 13 15.75C13 15.6119 12.8881 15.5 12.75 15.5H11C9.89543 15.5 9 14.6046 9 13.5V13C9 11.8954 9.89543 11 11 11Z" fill="#0000CC"/>
<path d="M19.4142 6.41426C19.5852 6.58528 19.7221 6.78408 19.8204 7.00005H15.5C15.2239 7.00005 15 6.77619 15 6.50005V2.17969C15.216 2.27797 15.4148 2.41482 15.5858 2.58583L19.4142 6.41426Z" fill="#0000CC"/>
</svg>
