<svg width="24" height="24" viewBox="0 0 24 24" fill="none" xmlns="http://www.w3.org/2000/svg">
<path fill-rule="evenodd" clip-rule="evenodd" d="M15 2H8.8C7.11984 2 6.27976 2 5.63803 2.32698C5.07354 2.6146 4.6146 3.07354 4.32698 3.63803C4 4.27976 4 5.11984 4 6.8V17.2C4 18.8802 4 19.7202 4.32698 20.362C4.6146 20.9265 5.07354 21.3854 5.63803 21.673C6.27976 22 7.11984 22 8.8 22H15.2C15.4907 22 15.7563 22 16 21.9983V19.8292C15.5905 19.6848 15.2062 19.4488 14.8787 19.1213C13.7071 17.9497 13.7071 16.0503 14.8787 14.8787L16.8787 12.8787C17.7228 12.0346 18.9447 11.7987 20 12.1708V7L15 2ZM14 3.5V7.2C14 7.48003 14 7.62004 14.0545 7.727C14.1024 7.82108 14.1789 7.89757 14.273 7.9455C14.38 8 14.52 8 14.8 8H18.5L14 3.5ZM8 8C7.44772 8 7 8.44772 7 9C7 9.55228 7.44772 10 8 10H9C9.55228 10 10 9.55228 10 9C10 8.44772 9.55228 8 9 8H8ZM8 12C7.44772 12 7 12.4477 7 13C7 13.5523 7.44772 14 8 14H14C14.5523 14 15 13.5523 15 13C15 12.4477 14.5523 12 14 12H8ZM8 16C7.44772 16 7 16.4477 7 17C7 17.5523 7.44772 18 8 18H12C12.5523 18 13 17.5523 13 17C13 16.4477 12.5523 16 12 16H8Z" fill="#0000CC"/>
<path d="M20 17.4142V21C20 21.5523 19.5523 22 19 22C18.4477 22 18 21.5523 18 21V17.4142L17.7071 17.7071C17.3166 18.0976 16.6834 18.0976 16.2929 17.7071C15.9024 17.3166 15.9024 16.6834 16.2929 16.2929L18.2929 14.2929C18.6834 13.9024 19.3166 13.9024 19.7071 14.2929L21.7071 16.2929C22.0976 16.6834 22.0976 17.3166 21.7071 17.7071C21.3166 18.0976 20.6834 18.0976 20.2929 17.7071L20 17.4142Z" fill="#0000CC"/>
</svg>
