<svg width="24" height="24" viewBox="0 0 24 24" fill="none" xmlns="http://www.w3.org/2000/svg">
<path fill-rule="evenodd" clip-rule="evenodd" d="M13 2H8.8C7.11984 2 6.27976 2 5.63803 2.32698C5.07354 2.6146 4.6146 3.07354 4.32698 3.63803C4 4.27976 4 5.11984 4 6.8V17.2C4 18.8802 4 19.7202 4.32698 20.362C4.6146 20.9265 5.07354 21.3854 5.63803 21.673C6.27976 22 7.11984 22 8.8 22H15.2C16.8802 22 17.7202 22 18.362 21.673C18.9265 21.3854 19.3854 20.9265 19.673 20.362C20 19.7202 20 18.8802 20 17.2V9H16.2C15.0799 9 14.5198 9 14.092 8.78201C13.7157 8.59027 13.4097 8.28431 13.218 7.90798C13 7.48016 13 6.9201 13 5.8V2ZM16.1992 11.5C16.1992 10.9477 15.7515 10.5 15.1992 10.5C14.6469 10.5 14.1992 10.9477 14.1992 11.5V11.8774C13.5148 11.3286 12.6457 11 11.6992 11C9.49008 11 7.69922 12.7909 7.69922 15C7.69922 17.2091 9.49008 19 11.6992 19C12.7231 19 13.6591 18.614 14.3661 17.9812C14.7777 17.6129 14.8127 16.9807 14.4444 16.5692C14.076 16.1577 13.4438 16.1226 13.0323 16.491C12.6778 16.8083 12.2121 17 11.6992 17C10.5946 17 9.69922 16.1046 9.69922 15C9.69922 13.8954 10.5946 13 11.6992 13C12.2059 13 12.6694 13.1886 13.0223 13.5H12.1992C11.6469 13.5 11.1992 13.9477 11.1992 14.5C11.1992 15.0523 11.6469 15.5 12.1992 15.5H15.1992C15.7515 15.5 16.1992 15.0523 16.1992 14.5V11.5Z" fill="#0000CC"/>
<path d="M19.4142 6.41426C19.5852 6.58528 19.7221 6.78408 19.8204 7.00005H15.5C15.2239 7.00005 15 6.77619 15 6.50005V2.17969C15.216 2.27797 15.4148 2.41482 15.5858 2.58583L19.4142 6.41426Z" fill="#0000CC"/>
</svg>
