<svg width="24" height="24" viewBox="0 0 24 24" fill="none" xmlns="http://www.w3.org/2000/svg">
<path fill-rule="evenodd" clip-rule="evenodd" d="M4.56824 3C7.52284 3.00037 10.4774 3 13.432 3C13.6844 2.99997 13.9302 2.99994 14.1384 3.01695C14.367 3.03563 14.6367 3.07969 14.9081 3.21799C15.2844 3.40974 15.5904 3.7157 15.7822 4.09202C15.9204 4.36345 15.9645 4.63318 15.9832 4.86178C16.0002 5.06994 16.0002 5.31574 16.0001 5.56812L16.0001 7.43876C16.0001 7.60671 16.0049 7.82936 15.9593 8.05131C15.9231 8.22783 15.8632 8.39865 15.7812 8.55913C15.6867 8.74401 15.5589 8.90299 15.4575 9.0292C14.3015 10.4674 13.1232 11.8887 12.0019 13.3544C12.0019 13.3544 12.0001 15.7876 12.0001 17C12.0001 17.3148 11.8519 17.6112 11.6001 17.8L7.60014 20.8C7.29712 21.0273 6.89171 21.0638 6.55293 20.8944C6.21414 20.725 6.00014 20.3788 6.00014 20C6.00014 17.7904 5.99837 13.3544 5.99837 13.3544C4.84679 11.9125 3.69886 10.4675 2.54278 9.0292C2.44133 8.90298 2.31356 8.74401 2.21911 8.55913C2.13712 8.39865 2.0772 8.22783 2.04097 8.05131C1.99923 7.84794 1.9997 7.64398 2.00007 7.48205C2.00153 6.84406 2.00021 6.20483 2.00014 5.56811C2.00011 5.31572 2.00008 5.06993 2.01708 4.86178C2.03576 4.63318 2.07983 4.36345 2.21813 4.09202C2.40987 3.7157 2.71583 3.40974 3.09216 3.21799C3.36358 3.07969 3.63332 3.03563 3.86191 3.01695C4.07007 2.99994 4.31586 2.99997 4.56824 3ZM18.0001 6.00001C18.0001 5.44772 18.4479 5.00001 19.0001 5.00001H21.0001C21.5524 5.00001 22.0001 5.44772 22.0001 6.00001C22.0001 6.55229 21.5524 7.00001 21.0001 7.00001H19.0001C18.4479 7.00001 18.0001 6.55229 18.0001 6.00001ZM15.0001 12C15.0001 11.4477 15.4479 11 16.0001 11H21.0001C21.5524 11 22.0001 11.4477 22.0001 12C22.0001 12.5523 21.5524 13 21.0001 13H16.0001C15.4479 13 15.0001 12.5523 15.0001 12ZM15.0001 18C15.0001 17.4477 15.4479 17 16.0001 17H21.0001C21.5524 17 22.0001 17.4477 22.0001 18C22.0001 18.5523 21.5524 19 21.0001 19H16.0001C15.4479 19 15.0001 18.5523 15.0001 18Z" fill="#0000CC"/>
</svg>
