<svg width="24" height="24" viewBox="0 0 24 24" fill="none" xmlns="http://www.w3.org/2000/svg">
<path d="M4.56829 2C4.31592 1.99997 4.07012 1.99994 3.86196 2.01695C3.63337 2.03563 3.36363 2.07969 3.09221 2.21799C2.71589 2.40974 2.40992 2.7157 2.21818 3.09202C2.07988 3.36345 2.03581 3.63318 2.01714 3.86178C2.00013 4.06993 2.00016 4.31572 2.00019 4.56809L2.0001 6.3883C1.99959 6.57821 1.99895 6.81735 2.05545 7.05268C2.10444 7.25675 2.18525 7.45184 2.29491 7.63079C2.42136 7.83714 2.59091 8.00579 2.72556 8.13972L8.99778 14.4189C9.02926 15.8931 9.01948 17.3699 9.0097 18.846C9.00495 19.5643 9.00019 20.2825 9.00019 21C9.00019 21.4045 9.24383 21.7691 9.61751 21.9239C9.99118 22.0787 10.4213 21.9931 10.7073 21.7071L12.0727 20.3417C12.1928 19.8055 12.4614 19.2959 12.8787 18.8787L13.7574 18L12.8787 17.1213C11.7071 15.9497 11.7071 14.0503 12.8787 12.8787C13.9514 11.806 15.6343 11.7155 16.81 12.6071L21.2748 8.13972C21.4095 8.0058 21.579 7.83714 21.7055 7.63079C21.8151 7.45184 21.8959 7.25675 21.9449 7.05268C22.0014 6.81735 22.0008 6.57821 22.0003 6.3883L22.0002 4.56806C22.0002 4.31575 22.0003 4.06988 21.9832 3.86178C21.9646 3.63318 21.9205 3.36345 21.7822 3.09202C21.5905 2.7157 21.2845 2.40974 20.9082 2.21799C20.6367 2.07969 20.367 2.03563 20.1384 2.01695C19.9303 1.99994 19.6845 1.99997 19.4321 2H4.56829Z" fill="#0000CC"/>
<path d="M15.7071 14.2929C15.3166 13.9024 14.6834 13.9024 14.2929 14.2929C13.9024 14.6834 13.9024 15.3166 14.2929 15.7071L16.5858 18L14.2929 20.2929C13.9024 20.6834 13.9024 21.3166 14.2929 21.7071C14.6834 22.0976 15.3166 22.0976 15.7071 21.7071L18 19.4142L20.2929 21.7071C20.6834 22.0976 21.3166 22.0976 21.7071 21.7071C22.0976 21.3166 22.0976 20.6834 21.7071 20.2929L19.4142 18L21.7071 15.7071C22.0976 15.3166 22.0976 14.6834 21.7071 14.2929C21.3166 13.9024 20.6834 13.9024 20.2929 14.2929L18 16.5858L15.7071 14.2929Z" fill="#0000CC"/>
</svg>
