<svg width="24" height="24" viewBox="0 0 24 24" fill="none" xmlns="http://www.w3.org/2000/svg">
<path d="M3 3C2.44772 3 2 3.44772 2 4C2 4.55228 2.44772 5 3 5H4V7H3C2.44772 7 2 7.44772 2 8C2 8.55228 2.44772 9 3 9H4V20C4 20.5523 4.44772 21 5 21C5.55228 21 6 20.5523 6 20V9H18V20C18 20.5523 18.4477 21 19 21C19.5523 21 20 20.5523 20 20V9H21C21.5523 9 22 8.55228 22 8C22 7.44772 21.5523 7 21 7H20V5H21C21.5523 5 22 4.55228 22 4C22 3.44772 21.5523 3 21 3H3Z" fill="#0000CC"/>
<path d="M9.87868 20.0888C11.0503 21.3037 12.9497 21.3037 14.1213 20.0888C14.7071 19.4813 15 18.6851 15 17.8889C15 17.0927 14.7071 16.2965 14.1213 15.689C13.8447 15.4021 13.5243 15.1833 13.1839 14.9507C12.8017 14.6897 12.3941 14.4113 11.9947 14C11.0625 14.7778 10.875 15.9444 10.875 16.7222C10.125 16.3333 9.87868 15.689 9.87868 15.689C9.29289 16.2965 9 17.0927 9 17.8889C9 18.6851 9.29289 19.4813 9.87868 20.0888Z" fill="#0000CC"/>
</svg>
