<svg width="24" height="24" viewBox="0 0 24 24" fill="none" xmlns="http://www.w3.org/2000/svg">
<path fill-rule="evenodd" clip-rule="evenodd" d="M12.6905 2.29042C12.3291 1.93158 11.7558 1.90164 11.359 2.22087C10.4967 2.91469 9.84811 3.71013 9.3631 4.54083C8.66211 5.74148 8.30275 7.01579 8.13318 8.16338C7.96796 7.99852 7.82939 7.83676 7.71461 7.68735C7.5437 7.46487 7.42709 7.27166 7.35582 7.14043C7.32028 7.07498 7.2834 6.99663 7.26987 6.96741C7.14447 6.65809 6.87288 6.43155 6.5457 6.36387C6.216 6.29568 5.87411 6.39797 5.63604 6.63604C3.87887 8.3932 3 10.6983 3 13C3 15.3018 3.87888 17.6068 5.63604 19.364C9.15076 22.8787 14.8492 22.8787 18.364 19.364C20.1211 17.6068 21 15.3018 21 13C21 10.6983 20.1211 8.3932 18.364 6.63604C17.5514 5.82346 16.6162 5.20797 15.7265 4.62242L15.5402 4.49971C14.5746 3.86276 13.6213 3.21466 12.6905 2.29042ZM9.87868 17.9586C11.0503 19.3471 12.9497 19.3471 14.1213 17.9586C14.7071 17.2643 15 16.3544 15 15.4444C15 14.5345 14.7071 13.6245 14.1213 12.9303C13.8447 12.6024 13.5243 12.3523 13.1839 12.0866C12.8017 11.7882 12.3941 11.4701 11.9947 11C11.0625 11.8889 10.875 13.2222 10.875 14.1111C10.125 13.6666 9.87868 12.9303 9.87868 12.9303C9.29289 13.6245 9 14.5345 9 15.4444C9 16.3544 9.29289 17.2643 9.87868 17.9586Z" fill="#0000CC"/>
</svg>
