<svg width="24" height="24" viewBox="0 0 24 24" fill="none" xmlns="http://www.w3.org/2000/svg">
<path d="M8.5 2C7.07131 2 6.0653 2.24538 5.38513 2.52523C4.98141 2.69134 4.60406 2.90608 4.283 3.20296C4.10152 3.38962 4 3.63969 4 3.90002V21C4 21.5523 4.44772 22 5 22C5.55228 22 6 21.5523 6 21V15.2395C6.37824 15.0591 7.14781 14.8 8.5 14.8C9.61906 14.8 10.6579 15.2291 11.6755 15.6479C12.738 16.0852 13.9888 16.6 15.5 16.6C16.9287 16.6 17.9347 16.3547 18.6149 16.0748C18.9539 15.9353 19.2073 15.7891 19.3878 15.6653C19.5591 15.5479 19.6486 15.4673 19.717 15.3971C19.8985 15.2104 20 14.9603 20 14.7V3.9C20 3.49297 19.7533 3.12656 19.3762 2.97345C18.7558 2.7216 18.3744 3.21106 17.8539 3.42521C17.4403 3.59537 16.6963 3.8 15.5 3.8C14.3809 3.8 13.3421 3.37096 12.3245 2.95217C11.262 2.51482 10.0112 2 8.5 2Z" fill="#0000CC"/>
</svg>
