<svg width="24" height="24" viewBox="0 0 24 24" fill="none" xmlns="http://www.w3.org/2000/svg">
<path fill-rule="evenodd" clip-rule="evenodd" d="M13.5587 2.00007C14.0276 1.99957 14.4408 1.99913 14.8355 2.10788C15.182 2.20333 15.5085 2.36025 15.7995 2.57118C16.131 2.8115 16.3888 3.1344 16.6813 3.50089C17.4944 4.51943 18.3088 5.53694 19.1237 6.55398C19.3405 6.82446 19.5317 7.06305 19.6716 7.33684C19.7945 7.57755 19.8844 7.83378 19.9388 8.09857C20.0006 8.39974 20.0003 8.70549 20 9.0521C19.9978 11.981 20 14.9098 20 17.8387C20 18.3658 20 18.8206 19.9694 19.1952C19.9371 19.5905 19.8658 19.9837 19.673 20.3621C19.3854 20.9266 18.9265 21.3855 18.362 21.6732C17.9836 21.8659 17.5904 21.9373 17.195 21.9696C16.8205 22.0002 16.3657 22.0002 15.8386 22.0001H8.16144C7.6343 22.0002 7.17954 22.0002 6.80497 21.9696C6.40963 21.9373 6.01641 21.8659 5.63803 21.6732C5.07355 21.3855 4.6146 20.9266 4.32698 20.3621C4.13419 19.9837 4.06287 19.5905 4.03057 19.1952C3.99997 18.8206 3.99998 18.3659 4 17.8387V6.16159C3.99998 5.63446 3.99997 5.17967 4.03057 4.80511C4.06287 4.40976 4.13419 4.01654 4.32698 3.63816C4.6146 3.07368 5.07354 2.61474 5.63803 2.32712C6.01641 2.13432 6.40963 2.06301 6.80497 2.0307C7.17955 2.0001 7.63431 2.00012 8.16145 2.00013C8.75383 2.00013 9.34621 2.00033 9.93859 2.00053C11.1453 2.00094 12.352 2.00135 13.5587 2.00007ZM14 15.5C14 16.8807 12.8807 18 11.5 18C10.1193 18 9 16.8807 9 15.5C9 14.1193 10.1193 13 11.5 13C12.8807 13 14 14.1193 14 15.5ZM14 4H9V5C9 5.55228 9.44772 6 10 6H13C13.5523 6 14 5.55228 14 5V4Z" fill="#0000CC"/>
</svg>
