<svg width="24" height="24" viewBox="0 0 24 24" fill="none" xmlns="http://www.w3.org/2000/svg">
<path d="M5.2 8H6V16H5.2C4.0799 16 3.51984 16 3.09202 15.782C2.71569 15.5903 2.40973 15.2843 2.21799 14.908C2 14.4802 2 13.9201 2 12.8V11.2C2 10.0799 2 9.51984 2.21799 9.09202C2.40973 8.71569 2.71569 8.40973 3.09202 8.21799C3.51984 8 4.0799 8 5.2 8Z" fill="#0000CC"/>
<path fill-rule="evenodd" clip-rule="evenodd" d="M18.8 16H8V8H18.8C19.9201 8 20.4802 8 20.908 8.21799C21.2843 8.40973 21.5903 8.71569 21.782 9.09202C22 9.51984 22 10.0799 22 11.2V12.8C22 13.9201 22 14.4802 21.782 14.908C21.5903 15.2843 21.2843 15.5903 20.908 15.782C20.4802 16 19.9201 16 18.8 16ZM13 12C13 12.5523 12.5523 13 12 13C11.4477 13 11 12.5523 11 12C11 11.4477 11.4477 11 12 11C12.5523 11 13 11.4477 13 12ZM15 13C15.5523 13 16 12.5523 16 12C16 11.4477 15.5523 11 15 11C14.4477 11 14 11.4477 14 12C14 12.5523 14.4477 13 15 13ZM18 13C18.5523 13 19 12.5523 19 12C19 11.4477 18.5523 11 18 11C17.4477 11 17 11.4477 17 12C17 12.5523 17.4477 13 18 13Z" fill="#0000CC"/>
</svg>
