<svg width="24" height="24" viewBox="0 0 24 24" fill="none" xmlns="http://www.w3.org/2000/svg">
<path fill-rule="evenodd" clip-rule="evenodd" d="M9.75783 4.00005C10.1647 3.99967 10.5235 3.99934 10.8719 4.08299C11.178 4.15648 11.4707 4.2777 11.7391 4.44218C12.0446 4.62941 12.298 4.88332 12.5855 5.1713L12.7699 5.35574C13.1494 5.7353 13.2285 5.80528 13.3059 5.85274C13.3954 5.90757 13.4929 5.94798 13.595 5.97247C13.6833 5.99368 13.7887 6.0001 14.3255 6.0001L17.8385 6.0001C18.3657 6.00008 18.8205 6.00007 19.195 6.03067C19.5904 6.06297 19.9836 6.13429 20.362 6.32708C20.9265 6.6147 21.3854 7.07365 21.673 7.63813C21.8658 8.01651 21.9371 8.40973 21.9694 8.80507C22 9.17964 22 9.6344 22 10.1615V15.8387C22 16.3658 22 16.8206 21.9694 17.1951C21.9371 17.5905 21.8658 17.9837 21.673 18.3621C21.3854 18.9266 20.9265 19.3855 20.362 19.6731C19.9836 19.8659 19.5904 19.9372 19.195 19.9695C18.8205 20.0001 18.3657 20.0001 17.8386 20.0001H6.16144C5.63432 20.0001 5.17953 20.0001 4.80498 19.9695C4.40963 19.9372 4.01641 19.8659 3.63803 19.6731C3.07355 19.3855 2.6146 18.9266 2.32698 18.3621C2.13419 17.9837 2.06287 17.5905 2.03057 17.1951C1.99997 16.8206 1.99998 16.3658 2 15.8387V8.16152C1.99998 7.6344 1.99997 7.17963 2.03057 6.80507C2.06287 6.40973 2.13419 6.01651 2.32698 5.63813C2.6146 5.07364 3.07355 4.6147 3.63803 4.32708C4.01641 4.13429 4.40963 4.06297 4.80498 4.03067C5.17955 4.00007 5.63431 4.00008 6.16146 4.0001L9.75783 4.00005ZM12 9C11.4477 9 11 9.44772 11 10V13C11 13.5523 11.4477 14 12 14C12.5523 14 13 13.5523 13 13V10C13 9.44772 12.5523 9 12 9ZM12 17C12.5523 17 13 16.5523 13 16C13 15.4477 12.5523 15 12 15C11.4477 15 11 15.4477 11 16C11 16.5523 11.4477 17 12 17Z" fill="#0000CC"/>
</svg>
