<svg width="24" height="24" viewBox="0 0 24 24" fill="none" xmlns="http://www.w3.org/2000/svg">
<path fill-rule="evenodd" clip-rule="evenodd" d="M10.8719 4.08299C10.5235 3.99934 10.1647 3.99967 9.75783 4.00005L6.16146 4.0001C5.63431 4.00008 5.17955 4.00007 4.80498 4.03067C4.40963 4.06297 4.01641 4.13429 3.63803 4.32708C3.07355 4.6147 2.6146 5.07364 2.32698 5.63813C2.13419 6.01651 2.06287 6.40973 2.03057 6.80507C1.99997 7.17962 1.99999 7.63438 2 8.16148V15.8387C1.99999 16.3658 1.99997 16.8206 2.03057 17.1951C2.06287 17.5905 2.13419 17.9837 2.32698 18.3621C2.6146 18.9266 3.07355 19.3855 3.63803 19.6731C4.01641 19.8659 4.40963 19.9372 4.80498 19.9695C5.17953 20.0001 5.6343 20.0001 6.16141 20.0001H17.8386C18.3657 20.0001 18.8205 20.0001 19.195 19.9695C19.5904 19.9372 19.9836 19.8659 20.362 19.6731C20.9265 19.3855 21.3854 18.9266 21.673 18.3621C21.8658 17.9837 21.9371 17.5905 21.9694 17.1951C22 16.8206 22 16.3658 22 15.8387V10.1615C22 9.6344 22 9.17964 21.9694 8.80507C21.9371 8.40973 21.8658 8.01651 21.673 7.63813C21.3854 7.07365 20.9265 6.6147 20.362 6.32708C19.9836 6.13429 19.5904 6.06297 19.195 6.03067C18.8205 6.00007 18.3657 6.00008 17.8385 6.0001L14.3255 6.0001C13.7887 6.0001 13.6833 5.99368 13.595 5.97247C13.493 5.94798 13.3954 5.90757 13.3059 5.85274C13.2285 5.80528 13.1494 5.7353 12.7699 5.35574L12.5855 5.1713C12.298 4.88332 12.0446 4.62941 11.7391 4.44218C11.4707 4.2777 11.178 4.15648 10.8719 4.08299ZM10.9987 10.7493C11.1097 10.3177 11.5026 10 11.9672 10C12.5195 10 12.9672 10.4477 12.9672 11C12.9672 11.1732 12.9217 11.3053 12.6478 11.5697C12.5134 11.6994 12.3582 11.8282 12.1537 11.998L12.0621 12.074C11.8238 12.2723 11.5443 12.5087 11.2601 12.7929C10.8696 13.1834 10.8696 13.8166 11.2601 14.2071C11.6507 14.5976 12.2838 14.5976 12.6744 14.2071C12.8902 13.9913 13.1107 13.8033 13.3411 13.6116L13.4269 13.5405C13.6243 13.3769 13.8439 13.1949 14.0367 13.0087C14.5127 12.5493 14.9672 11.9314 14.9672 11C14.9672 9.34315 13.6241 8 11.9672 8C10.568 8 9.39478 8.95704 9.0618 10.2507C8.92414 10.7856 9.24613 11.3308 9.78098 11.4684C10.3158 11.6061 10.861 11.2841 10.9987 10.7493ZM11.9699 17C12.5222 17 12.9699 16.5523 12.9699 16C12.9699 15.4477 12.5222 15 11.9699 15C11.4177 15 10.9699 15.4477 10.9699 16C10.9699 16.5523 11.4177 17 11.9699 17Z" fill="#0000CC"/>
</svg>
