<svg width="24" height="24" viewBox="0 0 24 24" fill="none" xmlns="http://www.w3.org/2000/svg">
<path fill-rule="evenodd" clip-rule="evenodd" d="M9.75783 4.00005C10.1647 3.99967 10.5235 3.99934 10.8719 4.08299C11.178 4.15648 11.4707 4.2777 11.7391 4.44218C12.0446 4.62941 12.298 4.88332 12.5855 5.1713L12.7699 5.35574C13.1494 5.7353 13.2285 5.80528 13.3059 5.85274C13.3954 5.90757 13.4929 5.94798 13.595 5.97247C13.6833 5.99368 13.7887 6.0001 14.3255 6.0001L17.8385 6.0001C18.3657 6.00008 18.8205 6.00007 19.195 6.03067C19.5904 6.06297 19.9836 6.13429 20.362 6.32708C20.9265 6.6147 21.3854 7.07365 21.673 7.63813C21.8658 8.01651 21.9371 8.40973 21.9694 8.80507C22 9.17964 22 9.6344 22 10.1615V15.8387C22 16.3658 22 16.8206 21.9694 17.1951C21.9371 17.5905 21.8658 17.9837 21.673 18.3621C21.3854 18.9266 20.9265 19.3855 20.362 19.6731C19.9836 19.8659 19.5904 19.9372 19.195 19.9695C18.8205 20.0001 18.3657 20.0001 17.8386 20.0001H6.16144C5.63432 20.0001 5.17953 20.0001 4.80498 19.9695C4.40963 19.9372 4.01641 19.8659 3.63803 19.6731C3.07355 19.3855 2.6146 18.9266 2.32698 18.3621C2.13419 17.9837 2.06287 17.5905 2.03057 17.1951C1.99997 16.8206 1.99998 16.3658 2 15.8387V8.16152C1.99998 7.6344 1.99997 7.17963 2.03057 6.80507C2.06287 6.40973 2.13419 6.01651 2.32698 5.63813C2.6146 5.07364 3.07355 4.6147 3.63803 4.32708C4.01641 4.13429 4.40963 4.06297 4.80498 4.03067C5.17955 4.00007 5.63431 4.00008 6.16146 4.0001L9.75783 4.00005ZM12 9C12.2414 9 12.472 9.10129 12.6374 9.2799C13.1142 9.79494 13.7099 10.0755 14.3333 10.0755C14.3616 10.0755 14.3933 10.0759 14.4264 10.0762C14.4762 10.0768 14.529 10.0773 14.578 10.0768C14.8168 10.0637 15.0506 10.1506 15.2248 10.3173C15.4004 10.4852 15.5 10.7194 15.5 10.9644V12.0204C15.5 14.299 14.2037 16.3561 12.2558 16.9612C12.0891 17.0129 11.9109 17.0129 11.7442 16.9612C9.79627 16.3561 8.5 14.299 8.5 12.0204L8.50014 10.9647C8.50019 10.7197 8.59978 10.4851 8.77538 10.3172C8.94957 10.1506 9.18325 10.0638 9.42197 10.0768C9.4709 10.0773 9.52364 10.0767 9.57337 10.0762C9.60647 10.0758 9.63824 10.0755 9.66667 10.0755C10.2901 10.0755 10.8858 9.7949 11.3626 9.2799C11.528 9.10128 11.7586 9 12 9Z" fill="#0000CC"/>
</svg>
