<svg width="24" height="24" viewBox="0 0 24 24" fill="none" xmlns="http://www.w3.org/2000/svg">
<path fill-rule="evenodd" clip-rule="evenodd" d="M8.00027 2C8.4307 2 8.81284 2.27543 8.94895 2.68377L14.949 20.6838C15.1236 21.2077 14.8404 21.774 14.3165 21.9487C13.7926 22.1233 13.2262 21.8402 13.0516 21.3162L10.9462 15H5.05436L2.94895 21.3162C2.77431 21.8402 2.20799 22.1233 1.68404 21.9487C1.1601 21.774 0.87694 21.2077 1.05159 20.6838L7.05159 2.68377C7.1877 2.27543 7.56984 2 8.00027 2ZM5.72103 13H10.2795L8.00027 6.16228L5.72103 13ZM15.0003 15C15.0003 12.7909 16.7911 11 19.0003 11C19.7657 11 20.4809 11.215 21.0889 11.5879C21.2459 11.2412 21.5949 11 22.0003 11C22.5526 11 23.0003 11.4477 23.0003 12V21C23.0003 21.5523 22.5526 22 22.0003 22C21.5949 22 21.2459 21.7588 21.0889 21.4121C20.4809 21.785 19.7657 22 19.0003 22C16.7911 22 15.0003 20.2091 15.0003 18V15ZM21.0003 18V15C21.0003 13.8954 20.1048 13 19.0003 13C17.8957 13 17.0003 13.8954 17.0003 15V18C17.0003 19.1046 17.8957 20 19.0003 20C20.1048 20 21.0003 19.1046 21.0003 18Z" fill="#0000CC"/>
</svg>
