<svg width="24" height="24" viewBox="0 0 24 24" fill="none" xmlns="http://www.w3.org/2000/svg">
<path fill-rule="evenodd" clip-rule="evenodd" d="M3 5C3 3.34315 4.34315 2 6 2H18C19.6569 2 21 3.34315 21 5V19C21 20.6569 19.6569 22 18 22H6C4.34315 22 3 20.6569 3 19V5ZM8 6C7.44772 6 7 6.44772 7 7V11C7 11.5523 7.44772 12 8 12H16C16.5523 12 17 11.5523 17 11V7C17 6.44772 16.5523 6 16 6H8ZM10 15C10 14.4477 9.55228 14 9 14C8.44772 14 8 14.4477 8 15C7.44772 15 7 15.4477 7 16C7 16.5523 7.44772 17 8 17C8 17.5523 8.44772 18 9 18C9.55228 18 10 17.5523 10 17C10.5523 17 11 16.5523 11 16C11 15.4477 10.5523 15 10 15ZM16 14C15.4477 14 15 14.4477 15 15C15 15.5523 15.4477 16 16 16H16.009C16.5613 16 17.009 15.5523 17.009 15C17.009 14.4477 16.5613 14 16.009 14H16ZM14 16C13.4477 16 13 16.4477 13 17C13 17.5523 13.4477 18 14 18H14.009C14.5613 18 15.009 17.5523 15.009 17C15.009 16.4477 14.5613 16 14.009 16H14Z" fill="#0000CC"/>
</svg>
