<svg width="24" height="24" viewBox="0 0 24 24" fill="none" xmlns="http://www.w3.org/2000/svg">
<path fill-rule="evenodd" clip-rule="evenodd" d="M2 12C2 6.47715 6.47715 2 12 2C17.5228 2 22 6.47715 22 12C22 17.5228 17.5228 22 12 22C6.47715 22 2 17.5228 2 12ZM12 7C12.5523 7 13 6.55228 13 6C13 5.44772 12.5523 5 12 5C11.4477 5 11 5.44772 11 6C11 6.55228 11.4477 7 12 7ZM18 13C18.5523 13 19 12.5523 19 12C19 11.4477 18.5523 11 18 11C17.4477 11 17 11.4477 17 12C17 12.5523 17.4477 13 18 13ZM9 8C9 8.55229 8.55229 9 8 9C7.44772 9 7 8.55229 7 8C7 7.44772 7.44772 7 8 7C8.55229 7 9 7.44772 9 8ZM6 13C6.55228 13 7 12.5523 7 12C7 11.4477 6.55228 11 6 11C5.44772 11 5 11.4477 5 12C5 12.5523 5.44772 13 6 13ZM16.8575 8.51465C17.1416 8.04107 16.9881 7.42681 16.5145 7.14266C16.0409 6.85851 15.4267 7.01207 15.1425 7.48566L12.4166 12.0288C12.2804 12.0099 12.1414 12.0002 12 12.0002C10.3431 12.0002 9 13.3433 9 15.0002C9 16.657 10.3431 18.0002 12 18.0002C13.6569 18.0002 15 16.657 15 15.0002C15 14.2093 14.694 13.4899 14.1939 12.954L16.8575 8.51465Z" fill="#0000CC"/>
</svg>
