<svg width="24" height="24" viewBox="0 0 24 24" fill="none" xmlns="http://www.w3.org/2000/svg">
<path d="M10.8483 1.99975H7.87146C7.76672 1.9989 7.54996 1.99712 7.33821 2.05759C7.15937 2.10867 6.99158 2.19256 6.84342 2.30499C6.66799 2.4381 6.53936 2.61257 6.4772 2.69688C5.16342 4.44872 2.53476 7.95317 2.53476 7.95317C2.52408 7.96708 2.51205 7.98273 2.49902 8H7.41988L10.8483 1.99975Z" fill="#0000CC"/>
<path d="M7.27931 10H2.49914C2.51213 10.0172 2.52411 10.0328 2.53476 10.0467C3.39623 11.1952 4.25784 12.3437 5.11945 13.4921C6.93908 15.9175 8.75871 18.3429 10.5771 20.7692C10.6704 20.8937 10.776 21.0346 10.8775 21.1475L10.8918 21.1633L10.9461 21.0004L7.27931 10Z" fill="#0000CC"/>
<path d="M9.3875 10H14.6129L12.0002 17.8381L9.3875 10Z" fill="#0000CC"/>
<path d="M14.277 8H9.72341L12.0002 4.01559L14.277 8Z" fill="#0000CC"/>
<path d="M16.7211 10L13.0543 21.0004L13.1085 21.1631L13.1227 21.1475C13.2243 21.0346 13.3298 20.8938 13.4232 20.7692C16.1022 17.195 21.4655 10.0467 21.4655 10.0467C21.4761 10.0328 21.4881 10.0172 21.5011 10H16.7211Z" fill="#0000CC"/>
<path d="M21.5012 8H16.5805L13.152 2.00002L16.1288 1.99975C16.2335 1.9989 16.4503 1.99712 16.6621 2.05759C16.8409 2.10867 17.0087 2.19256 17.1568 2.30499C17.3323 2.4381 17.4609 2.61257 17.5231 2.69688C17.5231 2.69688 20.1514 6.20131 21.4655 7.95317C21.4762 7.96708 21.4882 7.98273 21.5012 8Z" fill="#0000CC"/>
</svg>
