<svg width="24" height="24" viewBox="0 0 24 24" fill="none" xmlns="http://www.w3.org/2000/svg">
<path d="M16.6137 1.99969C16.6137 1.99969 10.5474 1.99991 7.51475 1.99998L12.0095 7.44101L16.6137 1.99969Z" fill="#0000CC"/>
<path d="M5.77535 3.03469L2.46484 8H9.87713L5.77535 3.03469Z" fill="#0000CC"/>
<path d="M2.49962 10C2.49962 10 7.88516 17.1799 10.5773 20.7693C10.6707 20.8938 10.7762 21.0346 10.8777 21.1475C10.9897 21.2721 11.1759 21.4555 11.4566 21.5646C11.8063 21.7006 12.1943 21.7006 12.544 21.5646C12.8248 21.4555 13.0109 21.2721 13.1229 21.1475C13.2245 21.0346 13.33 20.8938 13.4234 20.7693C16.1155 17.1799 21.501 10 21.501 10H2.49962Z" fill="#0000CC"/>
<path d="M21.5358 8H14.1564L18.2837 3.12229L21.5358 8Z" fill="#0000CC"/>
</svg>
