<svg width="24" height="24" viewBox="0 0 24 24" fill="none" xmlns="http://www.w3.org/2000/svg">
<path fill-rule="evenodd" clip-rule="evenodd" d="M4 10C4 5.58172 7.58172 2 12 2C16.4183 2 20 5.58172 20 10V21C20 21.3688 19.797 21.7077 19.4719 21.8817C19.1467 22.0557 18.7522 22.0366 18.4453 21.8321L17.6281 21.2872C17.2271 21.0199 16.9711 20.85 16.7651 20.7338C16.5701 20.6237 16.4812 20.5982 16.4299 20.589C16.2485 20.5568 16.0617 20.5753 15.8901 20.6425C15.8416 20.6615 15.7594 20.704 15.5898 20.8501C15.4106 21.0045 15.1929 21.2213 14.8521 21.5621C14.3809 22.0333 13.6186 22.0318 13.1487 21.5631C12.6608 21.0764 12.5336 20.9768 12.444 20.9324C12.1642 20.7938 11.8358 20.7938 11.556 20.9324C11.4664 20.9768 11.3392 21.0764 10.8513 21.5631C10.3814 22.0318 9.61909 22.0333 9.1479 21.5621C8.80709 21.2213 8.58943 21.0045 8.41024 20.8501C8.2406 20.704 8.15843 20.6615 8.10993 20.6425C7.93834 20.5753 7.75152 20.5568 7.57009 20.589C7.51881 20.5982 7.42989 20.6237 7.23488 20.7338C7.02889 20.85 6.77295 21.0199 6.37192 21.2872L5.5547 21.8321C5.24784 22.0366 4.8533 22.0557 4.52814 21.8817C4.20298 21.7077 4 21.3688 4 21V10ZM10 10C10 10.5523 9.55228 11 9 11C8.44772 11 8 10.5523 8 10C8 9.44772 8.44772 9 9 9C9.55228 9 10 9.44772 10 10ZM15 11C15.5523 11 16 10.5523 16 10C16 9.44772 15.5523 9 15 9C14.4477 9 14 9.44772 14 10C14 10.5523 14.4477 11 15 11Z" fill="#0000CC"/>
</svg>
