<svg width="24" height="24" viewBox="0 0 24 24" fill="none" xmlns="http://www.w3.org/2000/svg">
<path fill-rule="evenodd" clip-rule="evenodd" d="M4 5.5C4 6.05582 4.13221 6.598 4.37921 7.08451C4.12829 7.13 3.88013 7.20363 3.63803 7.32698C3.07354 7.6146 2.6146 8.07354 2.32698 8.63803C2.13419 9.01641 2.06287 9.40963 2.03057 9.80497C1.99997 10.1795 1.99998 10.6343 2 11.1614V13H11V7H13V13H22V11.1614C22 10.6343 22 10.1795 21.9694 9.80497C21.9371 9.40963 21.8658 9.01641 21.673 8.63803C21.3854 8.07354 20.9265 7.6146 20.362 7.32698C20.1199 7.20363 19.8717 7.13 19.6208 7.08451C19.8678 6.598 20 6.05582 20 5.5C20 4.57174 19.6313 3.6815 18.9749 3.02513C18.3185 2.36875 17.4283 2 16.5 2C14.1939 2 12.8073 3.66166 12.0613 5.01808C12.0405 5.0559 12.0201 5.09368 12 5.13141C11.9799 5.09368 11.9595 5.0559 11.9387 5.01808C11.1927 3.66166 9.8061 2 7.5 2C6.57174 2 5.68151 2.36875 5.02513 3.02513C4.36875 3.6815 4 4.57174 4 5.5ZM6.43934 4.43934C6.72065 4.15804 7.10218 4 7.5 4C8.6939 4 9.55732 4.83834 10.1863 5.98192C10.3774 6.32942 10.5319 6.68061 10.654 7H7.5C7.10218 7 6.72065 6.84196 6.43934 6.56066C6.15804 6.27936 6 5.89782 6 5.5C6 5.10218 6.15804 4.72064 6.43934 4.43934ZM17.5607 6.56066C17.2794 6.84196 16.8978 7 16.5 7H13.346C13.4681 6.68061 13.6226 6.32942 13.8137 5.98192C14.4427 4.83834 15.3061 4 16.5 4C16.8978 4 17.2794 4.15804 17.5607 4.43934C17.842 4.72064 18 5.10218 18 5.5C18 5.89782 17.842 6.27936 17.5607 6.56066Z" fill="#0000CC"/>
<path d="M22 15H13V22H17.8386C18.3657 22 18.8205 22 19.195 21.9694C19.5904 21.9371 19.9836 21.8658 20.362 21.673C20.9265 21.3854 21.3854 20.9265 21.673 20.362C21.8658 19.9836 21.9371 19.5904 21.9694 19.195C22 18.8205 22 18.3657 22 17.8386V15Z" fill="#0000CC"/>
<path d="M11 22V15H2V17.8385C1.99998 18.3657 1.99997 18.8205 2.03057 19.195C2.06287 19.5904 2.13419 19.9836 2.32698 20.362C2.6146 20.9265 3.07355 21.3854 3.63803 21.673C4.01641 21.8658 4.40963 21.9371 4.80497 21.9694C5.17954 22 5.6343 22 6.16144 22H11Z" fill="#0000CC"/>
</svg>
