<svg width="24" height="24" viewBox="0 0 24 24" fill="none" xmlns="http://www.w3.org/2000/svg">
<path fill-rule="evenodd" clip-rule="evenodd" d="M19 6H18.3304C18.4417 5.68133 18.4999 5.34339 18.4999 5C18.4999 4.21011 18.1919 3.44902 17.6381 2.88508C17.0836 2.32053 16.3277 2 15.5356 2C13.7409 2 12.6274 3.21845 11.9999 4.27223C11.3725 3.21845 10.2589 2 8.46422 2C7.67217 2 6.91628 2.32053 6.36181 2.88508C5.80795 3.44902 5.49993 4.21011 5.49993 5C5.49993 5.34339 5.55814 5.68133 5.66946 6H5C4.06812 6 3.60218 6 3.23463 6.15224C2.74458 6.35523 2.35523 6.74458 2.15224 7.23463C2 7.60218 2 8.06812 2 9C2 9.93188 2 10.3978 2.15224 10.7654C2.35523 11.2554 2.74458 11.6448 3.23463 11.8478C3.60218 12 4.06812 12 5 12H19C19.9319 12 20.3978 12 20.7654 11.8478C21.2554 11.6448 21.6448 11.2554 21.8478 10.7654C22 10.3978 22 9.93188 22 9C22 8.06812 22 7.60218 21.8478 7.23463C21.6448 6.74458 21.2554 6.35523 20.7654 6.15224C20.3978 6 19.9319 6 19 6ZM7.78871 4.28649C7.97099 4.1009 8.21435 4 8.46422 4C9.2739 4 9.89762 4.57581 10.3835 5.47527C10.4785 5.65116 10.5618 5.82865 10.6342 6H8.46422C8.21435 6 7.97099 5.8991 7.78871 5.71351C7.60583 5.5273 7.49993 5.27097 7.49993 5C7.49993 4.72903 7.60582 4.4727 7.78871 4.28649ZM15.5356 6H13.3657C13.4381 5.82865 13.5214 5.65116 13.6164 5.47527C14.1023 4.57581 14.726 4 15.5356 4C15.7855 4 16.0289 4.1009 16.2112 4.28649C16.394 4.4727 16.4999 4.72903 16.4999 5C16.4999 5.27097 16.394 5.5273 16.2112 5.71351C16.0289 5.8991 15.7855 6 15.5356 6Z" fill="#0000CC"/>
<path d="M4 17.2V14H11V22H8.8C7.11984 22 6.27976 22 5.63803 21.673C5.07354 21.3854 4.6146 20.9265 4.32698 20.362C4 19.7202 4 18.8802 4 17.2Z" fill="#0000CC"/>
<path d="M13 22V14H20V17.2C20 18.8802 20 19.7202 19.673 20.362C19.3854 20.9265 18.9265 21.3854 18.362 21.673C17.7202 22 16.8802 22 15.2 22H13Z" fill="#0000CC"/>
</svg>
