<svg width="24" height="24" viewBox="0 0 24 24" fill="none" xmlns="http://www.w3.org/2000/svg">
<path fill-rule="evenodd" clip-rule="evenodd" d="M20 5.5C20 6.05582 19.8678 6.598 19.6208 7.08451C19.8717 7.13001 20.1199 7.20363 20.362 7.32698C20.9265 7.6146 21.3854 8.07354 21.673 8.63803C21.8658 9.01641 21.9371 9.40963 21.9694 9.80497C22 10.1795 22 10.6343 22 11.1614V16H2V11.1614C1.99999 10.6343 1.99997 10.1795 2.03057 9.80497C2.06287 9.40963 2.13419 9.01641 2.32698 8.63803C2.6146 8.07354 3.07355 7.6146 3.63803 7.32698C3.88013 7.20363 4.12829 7.13001 4.37921 7.08451C4.13221 6.598 4 6.05582 4 5.5C4 4.57174 4.36875 3.6815 5.02513 3.02513C5.6815 2.36875 6.57174 2 7.5 2C9.8061 2 11.1927 3.66166 11.9387 5.01808C11.9595 5.0559 11.9799 5.09368 12 5.13141C12.0201 5.09368 12.0405 5.0559 12.0613 5.01808C12.8073 3.66166 14.1939 2 16.5 2C17.4283 2 18.3185 2.36875 18.9749 3.02513C19.6313 3.6815 20 4.57174 20 5.5ZM6.43934 4.43934C6.72065 4.15804 7.10218 4 7.5 4C8.6939 4 9.55732 4.83834 10.1863 5.98192C10.3774 6.32942 10.5319 6.68061 10.654 7H7.5C7.10218 7 6.72065 6.84196 6.43934 6.56066C6.15804 6.27936 6 5.89782 6 5.5C6 5.10218 6.15804 4.72064 6.43934 4.43934ZM13.346 7L13.1183 8.00022L14.8946 11.553C15.1416 12.047 14.9414 12.6477 14.4474 12.8946C13.9535 13.1416 13.3528 12.9414 13.1058 12.4474L12.0002 10.2363L10.8946 12.4474C10.6477 12.9414 10.047 13.1416 9.55301 12.8946C9.05903 12.6477 8.85881 12.047 9.10579 11.553L10.8822 8.00022L10.654 7H13.346ZM13.346 7H16.5C16.8978 7 17.2794 6.84196 17.5607 6.56066C17.842 6.27936 18 5.89782 18 5.5C18 5.10218 17.842 4.72064 17.5607 4.43934C17.2794 4.15804 16.8978 4 16.5 4C15.3061 4 14.4427 4.83834 13.8137 5.98192C13.6226 6.32942 13.4681 6.68061 13.346 7Z" fill="#0000CC"/>
<path d="M2.00003 18C2.00031 18.459 2.00314 18.8593 2.03057 19.195C2.06287 19.5904 2.13419 19.9836 2.32698 20.362C2.61461 20.9265 3.07355 21.3854 3.63803 21.673C4.01641 21.8658 4.40963 21.9371 4.80498 21.9694C5.17953 22 5.63431 22 6.16144 22H17.8386C18.3657 22 18.8205 22 19.195 21.9694C19.5904 21.9371 19.9836 21.8658 20.362 21.673C20.9265 21.3854 21.3854 20.9265 21.673 20.362C21.8658 19.9836 21.9371 19.5904 21.9694 19.195C21.9969 18.8593 21.9997 18.459 22 18H2.00003Z" fill="#0000CC"/>
</svg>
