<svg width="24" height="24" viewBox="0 0 24 24" fill="none" xmlns="http://www.w3.org/2000/svg">
<path d="M11.8334 2.72978C10.9925 2.25165 10.0465 1.99977 9.08309 2C8.7204 2.00009 8.38618 2.19655 8.2097 2.51341C7.78781 3.27089 7.53585 4.1148 7.47056 4.9832C7.41765 5.68699 7.4883 6.39395 7.67822 7.07021C7.24061 7.88799 7.00704 8.80649 7 9.74248V9.75C7 12.5011 8.77748 14.837 11.2467 15.672C10.7767 16.3277 10.5 17.1313 10.5 17.9996V19.0001H8.64869C7.55405 19.0001 6.66667 18.1127 6.66667 17.018V16.7027C6.66667 14.6776 5.02504 13.036 3 13.036C2.44772 13.036 2 13.4837 2 14.036C2 14.5883 2.44772 15.036 3 15.036C3.92048 15.036 4.66667 15.7822 4.66667 16.7027V17.018C4.66667 19.2172 6.44948 21.0001 8.64869 21.0001H10.5C10.5001 21.5523 10.9478 21.9999 11.5 21.9999H17.4994C18.0517 21.9999 18.4994 21.5522 18.4994 20.9999V17.9996C18.4994 17.1314 18.2228 16.3278 17.7528 15.6722C20.2223 14.8373 22 12.5013 22 9.75L22 9.74248C21.9929 8.80649 21.7594 7.888 21.3218 7.07021C21.5117 6.39395 21.5824 5.68699 21.5294 4.9832C21.4641 4.1148 21.2122 3.27089 20.7903 2.51341C20.6138 2.19655 20.2796 2.00009 19.9169 2C18.9535 1.99977 18.0075 2.25165 17.1666 2.72978C16.4924 3.11313 15.9043 3.63138 15.4342 4.25H13.5658C13.0957 3.63137 12.5076 3.11313 11.8334 2.72978Z" fill="#0000CC"/>
</svg>
