<svg width="24" height="24" viewBox="0 0 24 24" fill="none" xmlns="http://www.w3.org/2000/svg">
<path d="M12.6667 2.25467C12.2871 1.91511 11.713 1.91511 11.3334 2.25467C9.68909 3.72545 7.73762 6.43951 7.16505 9.87826C7.10392 10.2454 7.05874 10.6195 7.03125 11H16.9689C16.9414 10.6195 16.8962 10.2454 16.8351 9.87826C16.2625 6.43951 14.311 3.72545 12.6667 2.25467Z" fill="#0000CC"/>
<path d="M15.3542 13H7.05383C7.31276 15.7256 8.53154 18.6896 11.2622 21.6749C11.4516 21.882 11.7194 22 12.0001 22C12.2807 22 12.5485 21.882 12.7379 21.6749C13.2028 21.1667 13.6239 20.6591 14.0038 20.1531C14.0013 20.1024 14 20.0514 14 20C14 19.4055 14.1729 18.8514 14.4712 18.3852C14.1705 17.8235 14 17.1817 14 16.5V16C14 14.8053 14.5238 13.7329 15.3542 13Z" fill="#0000CC"/>
<path d="M18.9736 11H21.9511C21.5806 7.26849 19.1589 4.14041 15.8294 2.75928C17.1557 4.49882 18.3533 6.81876 18.808 9.54977C18.8873 10.0257 18.9431 10.5095 18.9736 11Z" fill="#0000CC"/>
<path d="M8.17078 2.75955C4.84169 4.14082 2.42027 7.26874 2.0498 11H5.02686C5.05728 10.5095 5.11313 10.0257 5.19237 9.54977C5.64707 6.8189 6.84464 4.49906 8.17078 2.75955Z" fill="#0000CC"/>
<path d="M2.0498 13H5.04605C5.26424 15.6825 6.27215 18.5122 8.37321 21.3219C4.94015 19.9851 2.42774 16.8065 2.0498 13Z" fill="#0000CC"/>
<path d="M19 13C18.4477 13 18 13.4477 18 14C16.8954 14 16 14.8954 16 16V16.5C16 17.6046 16.8954 18.5 18 18.5H19.75C19.8881 18.5 20 18.6119 20 18.75C20 18.8881 19.8881 19 19.75 19H17C16.4477 19 16 19.4477 16 20C16 20.5523 16.4477 21 17 21H18C18 21.5523 18.4477 22 19 22C19.5523 22 20 21.5523 20 21C21.1046 21 22 20.1046 22 19V18.5C22 17.3954 21.1046 16.5 20 16.5H18.25C18.1119 16.5 18 16.3881 18 16.25C18 16.1119 18.1119 16 18.25 16H21C21.5523 16 22 15.5523 22 15C22 14.4477 21.5523 14 21 14H20C20 13.4477 19.5523 13 19 13Z" fill="#0000CC"/>
</svg>
