<svg width="24" height="24" viewBox="0 0 24 24" fill="none" xmlns="http://www.w3.org/2000/svg">
<path d="M3 4C2.73478 4 2.48043 4.10536 2.29289 4.29289C2.10536 4.48043 2 4.73478 2 5V19C2 19.5523 2.44772 20 3 20C3.55228 20 4 19.5523 4 19V6H20V19C20 19.5523 20.4477 20 21 20C21.5523 20 22 19.5523 22 19V5C22 4.44772 21.5523 4 21 4H3Z" fill="#0000CC"/>
<path fill-rule="evenodd" clip-rule="evenodd" d="M17 9C17 8.44772 16.5523 8 16 8C15.4477 8 15 8.44772 15 9H13C13 8.44772 12.5523 8 12 8C11.4477 8 11 8.44772 11 9H9C9 8.44772 8.55228 8 8 8C7.44772 8 7 8.44772 7 9H6C5.44772 9 5 9.44772 5 10C5 10.5523 5.44772 11 6 11H7V12.5H6C5.44772 12.5 5 12.9477 5 13.5C5 14.0523 5.44772 14.5 6 14.5H7V16H6C5.44772 16 5 16.4477 5 17C5 17.5523 5.44772 18 6 18H7C7 18.5523 7.44772 19 8 19C8.55228 19 9 18.5523 9 18H11C11 18.5523 11.4477 19 12 19C12.5523 19 13 18.5523 13 18H15C15 18.5523 15.4477 19 16 19C16.5523 19 17 18.5523 17 18H18C18.5523 18 19 17.5523 19 17C19 16.4477 18.5523 16 18 16H17V14.5H18C18.5523 14.5 19 14.0523 19 13.5C19 12.9477 18.5523 12.5 18 12.5H17V11H18C18.5523 11 19 10.5523 19 10C19 9.44772 18.5523 9 18 9H17ZM11 16H9V14.5H11V16ZM15 16H13V14.5H15V16ZM15 11V12.5H13V11H15ZM11 11V12.5H9V11H11Z" fill="#0000CC"/>
</svg>
