<svg width="24" height="24" viewBox="0 0 24 24" fill="none" xmlns="http://www.w3.org/2000/svg">
<path fill-rule="evenodd" clip-rule="evenodd" d="M9 3C9 2.44772 8.55228 2 8 2C7.44772 2 7 2.44772 7 3V3.97833C6.99971 3.99228 6.99971 4.00621 7 4.02012V11.9799C6.99971 11.9938 6.99971 12.0077 7 12.0217V12.6334C6.36196 12.8092 5.76814 13.0185 5.2299 13.2578C4.33918 13.6536 3.55645 14.1509 2.98287 14.7536C2.40438 15.3615 2 16.1223 2 17C2 17.8777 2.40438 18.6385 2.98287 19.2464C3.55645 19.8491 4.33918 20.3464 5.2299 20.7422C7.01386 21.5351 9.40829 22 12 22C14.5917 22 16.9861 21.5351 18.7701 20.7422C19.6608 20.3464 20.4435 19.8491 21.0171 19.2464C21.5956 18.6385 22 17.8777 22 17C22 16.1223 21.5956 15.3615 21.0171 14.7536C20.4435 14.1509 19.6608 13.6536 18.7701 13.2578C16.9861 12.4649 14.5917 12 12 12C11.3376 12 10.6881 12.0304 10.0584 12.0888L16.4472 8.89443C16.786 8.72504 17 8.37877 17 8C17 7.62123 16.786 7.27496 16.4472 7.10557L9 3.38197V3ZM7 17C7 17.3982 7.20612 17.6735 7.35182 17.8159C7.49586 17.9567 7.65465 18.0446 7.76899 18.0987C8.00275 18.2092 8.27714 18.2823 8.53612 18.3341C9.07054 18.441 9.76434 18.5 10.5 18.5C11.2357 18.5 11.9295 18.441 12.4639 18.3341C12.7229 18.2823 12.9972 18.2092 13.231 18.0987C13.3454 18.0446 13.5041 17.9567 13.6482 17.8159C13.7939 17.6735 14 17.3982 14 17C14 16.6018 13.7939 16.3265 13.6482 16.1841C13.5041 16.0433 13.3454 15.9554 13.231 15.9013C12.9972 15.7908 12.7229 15.7177 12.4639 15.6659C11.9295 15.559 11.2357 15.5 10.5 15.5C9.96235 15.5 9.44706 15.5315 9 15.5902V17C9 17.5523 8.55228 18 8 18C7.44772 18 7 17.5523 7 17Z" fill="#0000CC"/>
</svg>
