<svg width="24" height="24" viewBox="0 0 24 24" fill="none" xmlns="http://www.w3.org/2000/svg">
<path fill-rule="evenodd" clip-rule="evenodd" d="M5.5 8.5C5.5 4.91015 8.41015 2 12 2C15.5899 2 18.5 4.91015 18.5 8.5C18.5 12.0899 15.5899 15 12 15C8.41015 15 5.5 12.0899 5.5 8.5ZM14 8C13.4477 8 13 8.44772 13 9C13 9.55228 13.4477 10 14 10H14.009C14.5613 10 15.009 9.55228 15.009 9C15.009 8.44772 14.5613 8 14.009 8H14ZM12 10C11.4477 10 11 10.4477 11 11C11 11.5523 11.4477 12 12 12H12.009C12.5613 12 13.009 11.5523 13.009 11C13.009 10.4477 12.5613 10 12.009 10H12Z" fill="#0000CC"/>
<path d="M8 17C8 16.4477 8.44772 16 9 16H15C15.5523 16 16 16.4477 16 17C16 17.5523 15.5523 18 15 18H13V21C13 21.5523 12.5523 22 12 22C11.4477 22 11 21.5523 11 21V18H9C8.44772 18 8 17.5523 8 17Z" fill="#0000CC"/>
</svg>
