<svg width="24" height="24" viewBox="0 0 24 24" fill="none" xmlns="http://www.w3.org/2000/svg">
<path fill-rule="evenodd" clip-rule="evenodd" d="M9.10714 3C8.75424 3 8.42746 3.18601 8.24729 3.48946L2.14015 13.7752C1.95756 14.0827 1.9531 14.4643 2.12842 14.776L5.34271 20.4903C5.51983 20.8051 5.85301 21 6.21429 21H17.7857C18.147 21 18.4802 20.8051 18.6573 20.4903L21.8716 14.776C22.0469 14.4643 22.0424 14.0827 21.8599 13.7752L15.7527 3.48946C15.5725 3.18601 15.2458 3 14.8929 3H9.10714ZM10.8624 9.33333L9.06784 6.02491L4.75674 13.2857H8.71855L10.8624 9.33333ZM16.1057 19H7.89433L9.909 15.2857H14.091L16.1057 19ZM13.0062 13.2857H10.9938L12 11.4307L13.0062 13.2857ZM15.2814 13.2857L13.1376 9.33333L14.9322 6.02491L19.2433 13.2857H15.2814Z" fill="#0000CC"/>
</svg>
