<svg width="24" height="24" viewBox="0 0 24 24" fill="none" xmlns="http://www.w3.org/2000/svg">
<path d="M3.21799 4.09202C3 4.51984 3 5.0799 3 6.2V7.8C3 8.9201 3 9.48016 3.21799 9.90798C3.40973 10.2843 3.71569 10.5903 4.09202 10.782C4.51984 11 5.0799 11 6.2 11H7.8C8.9201 11 9.48016 11 9.90798 10.782C10.2843 10.5903 10.5903 10.2843 10.782 9.90798C11 9.48016 11 8.9201 11 7.8V6.2C11 5.0799 11 4.51984 10.782 4.09202C10.5903 3.71569 10.2843 3.40973 9.90798 3.21799C9.48016 3 8.9201 3 7.8 3H6.2C5.0799 3 4.51984 3 4.09202 3.21799C3.71569 3.40973 3.40973 3.71569 3.21799 4.09202Z" fill="#0000CC"/>
<path d="M13.218 4.09202C13 4.51984 13 5.0799 13 6.2V7.8C13 8.9201 13 9.48016 13.218 9.90798C13.4097 10.2843 13.7157 10.5903 14.092 10.782C14.5198 11 15.0799 11 16.2 11H17.8C18.9201 11 19.4802 11 19.908 10.782C20.2843 10.5903 20.5903 10.2843 20.782 9.90798C21 9.48016 21 8.9201 21 7.8V6.2C21 5.0799 21 4.51984 20.782 4.09202C20.5903 3.71569 20.2843 3.40973 19.908 3.21799C19.4802 3 18.9201 3 17.8 3H16.2C15.0799 3 14.5198 3 14.092 3.21799C13.7157 3.40973 13.4097 3.71569 13.218 4.09202Z" fill="#0000CC"/>
<path d="M3 16.2C3 15.0799 3 14.5198 3.21799 14.092C3.40973 13.7157 3.71569 13.4097 4.09202 13.218C4.51984 13 5.0799 13 6.2 13H7.8C8.9201 13 9.48016 13 9.90798 13.218C10.2843 13.4097 10.5903 13.7157 10.782 14.092C11 14.5198 11 15.0799 11 16.2V17.8C11 18.9201 11 19.4802 10.782 19.908C10.5903 20.2843 10.2843 20.5903 9.90798 20.782C9.48016 21 8.9201 21 7.8 21H6.2C5.0799 21 4.51984 21 4.09202 20.782C3.71569 20.5903 3.40973 20.2843 3.21799 19.908C3 19.4802 3 18.9201 3 17.8V16.2Z" fill="#0000CC"/>
<path d="M18 14C18 13.4477 17.5523 13 17 13C16.4477 13 16 13.4477 16 14V16H14C13.4477 16 13 16.4477 13 17C13 17.5523 13.4477 18 14 18H16V20C16 20.5523 16.4477 21 17 21C17.5523 21 18 20.5523 18 20V18H20C20.5523 18 21 17.5523 21 17C21 16.4477 20.5523 16 20 16H18V14Z" fill="#0000CC"/>
</svg>
