<svg width="24" height="24" viewBox="0 0 24 24" fill="none" xmlns="http://www.w3.org/2000/svg">
<path d="M4 6C4 5.44772 3.55228 5 3 5C2.44772 5 2 5.44772 2 6V18C2 18.5523 2.44772 19 3 19C3.55228 19 4 18.5523 4 18V13H9V18C9 18.5523 9.44772 19 10 19C10.5523 19 11 18.5523 11 18V6C11 5.44772 10.5523 5 10 5C9.44772 5 9 5.44772 9 6V11H4V6Z" fill="#0000CC"/>
<path d="M14.0001 10.2308C14.5524 10.2308 15.0001 9.78305 15.0001 9.23077C15.0001 8.65144 15.2822 8.10351 15.7719 7.67774C16.7192 6.85418 18.259 6.74795 19.2681 7.53756C19.6796 7.85954 20.0001 8.37175 20.0001 9.23077C20.0001 9.86233 19.6888 10.672 19.0715 11.6081C17.6283 13.7968 15.5159 15.6585 13.4128 17.1906C13.0621 17.4451 12.9152 17.8965 13.0489 18.3086C13.1826 18.7208 13.5667 19 14.0001 19H21.0001C21.5524 19 22.0001 18.5523 22.0001 18C22.0001 17.4477 21.5524 17 21.0001 17H16.8184C17.2576 16.6137 17.7299 16.1792 18.2033 15.711C19.1039 14.8203 20.0319 13.7847 20.7411 12.7092C21.4363 11.655 22.0001 10.4454 22.0001 9.23077C22.0001 7.78209 21.4162 6.67892 20.5006 5.96244C19.6195 5.27306 18.51 5 17.5001 5C16.3943 5 15.2904 5.44614 14.4597 6.16841C13.6223 6.89649 13.0001 7.96395 13.0001 9.23077C13.0001 9.78305 13.4478 10.2308 14.0001 10.2308Z" fill="#0000CC"/>
</svg>
