<svg width="24" height="24" viewBox="0 0 24 24" fill="none" xmlns="http://www.w3.org/2000/svg">
<path d="M13.1126 2.09564C12.3859 1.88519 11.6143 1.88519 10.8875 2.09564C10.423 2.23015 10.0234 2.46439 9.62214 2.75633C9.23795 3.03586 8.79951 3.40865 8.27159 3.85753L6.92784 5.00003H17.0723L15.7286 3.85753C15.2007 3.40866 14.7622 3.03586 14.378 2.75633C13.9768 2.46439 13.5772 2.23015 13.1126 2.09564Z" fill="#0000CC"/>
<path d="M19 6.63901V11.1294L21.6362 9.37235C21.5383 9.1587 21.4215 8.9537 21.2871 8.75984C20.9877 8.32815 20.5816 7.98317 20.0438 7.52642L19 6.63901Z" fill="#0000CC"/>
<path d="M22.0001 11.5334L18.6061 13.7955C18.5722 13.8214 18.5366 13.8451 18.4995 13.8666L16.2907 15.3387L21.7833 19.2605C21.8775 18.9399 21.927 18.6048 21.9559 18.2519C22.0001 17.7107 22.0001 17.0463 22.0001 16.2413L22.0001 11.7577C22.0002 11.6809 22.0002 11.6062 22.0001 11.5334Z" fill="#0000CC"/>
<path d="M20.7042 20.9475L13.9676 16.1375C13.9571 16.1305 13.9468 16.1232 13.9367 16.1157L13.2091 15.6051C12.5108 15.1397 12.3628 15.059 12.2318 15.0276C12.0786 14.9908 11.9189 14.9908 11.7657 15.0276C11.6346 15.059 11.4867 15.1397 10.7884 15.6051L10.0624 16.1148C10.0514 16.1229 10.0403 16.1308 10.029 16.1384L3.29551 20.9471C3.56082 21.1906 3.85937 21.3986 4.18412 21.5641C4.66945 21.8113 5.18615 21.9099 5.74825 21.9558C6.28944 22 6.95379 22 7.75875 22H16.2414C17.0464 22 17.7107 22 18.2519 21.9558C18.814 21.9099 19.3307 21.8113 19.816 21.5641C20.1406 21.3987 20.439 21.1908 20.7042 20.9475Z" fill="#0000CC"/>
<path d="M2.21667 19.2599L7.70719 15.3388L5.48313 13.8563C5.45801 13.8411 5.43361 13.8248 5.41 13.8075L2.00009 11.5345C1.99996 11.607 2 11.6813 2.00004 11.7577L2.00008 16.2413C2.00006 17.0463 2.00005 17.7107 2.04427 18.2519C2.07309 18.6046 2.12264 18.9395 2.21667 19.2599Z" fill="#0000CC"/>
<path d="M2.36358 9.37312L5 11.1306V6.63915L3.95639 7.52641C3.4186 7.98317 3.01242 8.32815 2.71307 8.75984C2.57847 8.95393 2.46159 9.1592 2.36358 9.37312Z" fill="#0000CC"/>
<path fill-rule="evenodd" clip-rule="evenodd" d="M14.5446 14.099L17 12.4624V7.00003H7V12.4638L9.45296 14.0989L9.64911 13.9612L9.669 13.9476L9.78056 13.8731C10.3096 13.5193 10.7745 13.2085 11.2996 13.0826C11.7592 12.9725 12.2383 12.9725 12.6979 13.0826C13.223 13.2085 13.6878 13.5193 14.2169 13.8731L14.3285 13.9476L14.3482 13.9611L14.5446 14.099ZM11.3946 10.4473C11.6416 9.95329 11.4414 9.35262 10.9474 9.10563L9.94743 8.60563C9.45345 8.35864 8.85278 8.55886 8.60579 9.05284C8.3588 9.54682 8.55903 10.1475 9.05301 10.3945L10.053 10.8945C10.547 11.1415 11.1477 10.9412 11.3946 10.4473ZM13.0526 9.10563C12.5586 9.35262 12.3584 9.95329 12.6054 10.4473C12.8523 10.9412 13.453 11.1415 13.947 10.8945L14.947 10.3945C15.441 10.1475 15.6412 9.54682 15.3942 9.05284C15.1472 8.55886 14.5465 8.35864 14.0526 8.60563L13.0526 9.10563Z" fill="#0000CC"/>
</svg>
