<svg width="24" height="24" viewBox="0 0 24 24" fill="none" xmlns="http://www.w3.org/2000/svg">
<path fill-rule="evenodd" clip-rule="evenodd" d="M8 3C8 2.44772 7.55229 2 7 2C6.44772 2 6 2.44772 6 3V4.00003C5.54097 4.00031 5.14075 4.00314 4.80498 4.03057C4.40963 4.06287 4.01641 4.13419 3.63803 4.32698C3.07355 4.6146 2.61461 5.07354 2.32699 5.63803C2.13419 6.01641 2.06288 6.40963 2.03057 6.80497C1.99997 7.17951 1.99999 7.6343 2 8.16139V17.8386C1.99999 18.3657 1.99997 18.8205 2.03057 19.195C2.06288 19.5904 2.13419 19.9836 2.32699 20.362C2.61461 20.9265 3.07355 21.3854 3.63803 21.673C4.01641 21.8658 4.40963 21.9371 4.80498 21.9694C5.17954 22 5.6343 22 6.16144 22H17.8386C18.3657 22 18.8205 22 19.195 21.9694C19.5904 21.9371 19.9836 21.8658 20.362 21.673C20.9265 21.3854 21.3854 20.9265 21.673 20.362C21.8658 19.9836 21.9371 19.5904 21.9694 19.195C22 18.8205 22 18.3657 22 17.8386V8.16144C22 7.6343 22 7.17954 21.9694 6.80497C21.9371 6.40963 21.8658 6.01641 21.673 5.63803C21.3854 5.07354 20.9265 4.6146 20.362 4.32698C19.9836 4.13419 19.5904 4.06287 19.195 4.03057C18.8593 4.00314 18.459 4.00031 18 4.00003V3C18 2.44772 17.5523 2 17 2C16.4477 2 16 2.44772 16 3V4H8V3ZM8.89715 9C8.89715 8.81762 8.79785 8.64971 8.63803 8.56185C8.47821 8.47399 8.28322 8.48011 8.12924 8.57784C7.10554 9.22749 6.45147 10.2641 6.05434 11.3331C5.65637 12.4044 5.5 13.5501 5.5 14.4849C5.5 14.634 5.56653 14.7753 5.68144 14.8703C5.79634 14.9653 5.94764 15.0041 6.09407 14.976C6.25572 14.945 6.42344 14.9287 6.59572 14.9287C7.46078 14.9287 8.216 15.341 8.66379 15.9585C8.74302 16.0677 8.86305 16.1403 8.9966 16.1597C9.13016 16.1792 9.26589 16.1438 9.37295 16.0616C9.596 15.8904 9.88241 15.7858 10.1986 15.7858C10.941 15.7858 11.5 16.3525 11.5 17C11.5 17.2761 11.7239 17.5 12 17.5C12.2761 17.5 12.5 17.2761 12.5 17C12.5 16.3525 13.059 15.7858 13.8014 15.7858C14.1176 15.7858 14.404 15.8904 14.627 16.0616C14.7341 16.1438 14.8698 16.1792 15.0034 16.1597C15.1369 16.1403 15.257 16.0677 15.3362 15.9585C15.784 15.341 16.5392 14.9287 17.4043 14.9287C17.5766 14.9287 17.7443 14.945 17.9059 14.976C18.0524 15.0041 18.2037 14.9653 18.3186 14.8703C18.4335 14.7753 18.5 14.634 18.5 14.4849C18.5 13.5501 18.3436 12.4044 17.9457 11.3332C17.5487 10.2643 16.8948 9.22772 15.8713 8.57825C15.7174 8.48053 15.5224 8.47441 15.3626 8.56227C15.2027 8.65013 15.1034 8.81804 15.1034 9.00042C15.1034 9.80741 14.5217 10.5159 13.701 10.7242V9.00042C13.701 8.77041 13.544 8.57007 13.3207 8.51498C13.0974 8.45988 12.8653 8.56424 12.7583 8.76785L12.2984 9.64322H11.7016L11.2417 8.76785C11.1347 8.56424 10.9026 8.45988 10.6793 8.51498C10.456 8.57007 10.2991 8.77041 10.2991 9.00042V10.7242C9.47862 10.5158 8.89715 9.80717 8.89715 9Z" fill="#0000CC"/>
</svg>
