<svg width="24" height="24" viewBox="0 0 24 24" fill="none" xmlns="http://www.w3.org/2000/svg">
<path d="M4.04544 5C4.04544 3.32208 5.43023 2 7.09089 2H16.8067C18.7498 2 20.3635 3.54594 20.3635 5.5C20.3635 7.45406 18.7498 9 16.8067 9H14.2499C13.6513 9 13.2045 9.46878 13.2045 10C13.2045 10.5523 12.7568 11 12.2045 11C11.6522 11 11.2045 10.5523 11.2045 10C11.2045 8.32208 12.5893 7 14.2499 7H16.8067C17.6878 7 18.3635 6.30737 18.3635 5.5C18.3635 4.69263 17.6878 4 16.8067 4H7.09089C6.49221 4 6.04544 4.46878 6.04544 5C6.04544 5.53122 6.49221 6 7.09089 6H9.13633C9.68862 6 10.1363 6.44772 10.1363 7C10.1363 7.55228 9.68862 8 9.13633 8H7.09089C5.43023 8 4.04544 6.67792 4.04544 5Z" fill="#0000CC"/>
<path d="M9.5 16.5C9.5 16.2239 9.72386 16 10 16L12.5 16C13.6046 16 14.5 15.1046 14.5 14C14.5 12.8954 13.6046 12 12.5 12H11.1818H7.90618C7.12221 12 6.36937 12.3069 5.80883 12.855L4.63779 14H3C2.44772 14 2 14.4477 2 15V21C2 21.5523 2.44772 22 3 22H14.3082H15C15.0555 21.9999 15.112 21.9907 15.1672 21.971L20.0242 20.2367C21.472 19.7198 22.2409 18.1403 21.7547 16.682C21.2406 15.1396 19.5342 14.3481 18.0246 14.9519L12.9038 17H12.2281H10C9.72386 17 9.5 16.7762 9.5 16.5Z" fill="#0000CC"/>
</svg>
