<svg width="24" height="24" viewBox="0 0 24 24" fill="none" xmlns="http://www.w3.org/2000/svg">
<path d="M16.9856 1.62585C16.6442 1.43616 16.2236 1.46262 15.9086 1.6936L10.6071 5.5814C9.832 6.14967 9.34458 6.50703 8.92701 6.94045C8.55692 7.32457 8.23196 7.74973 7.95844 8.20766C7.64981 8.72436 7.43291 9.28847 7.088 10.1855L5.04397 15.5H9.50002C9.50041 15.0058 9.50669 14.7468 9.60899 14.546C9.70487 14.3578 9.85785 14.2049 10.046 14.109C10.2599 14 10.5399 14 11.1 14H12.9C13.4601 14 13.7401 14 13.954 14.109C14.1422 14.2049 14.2951 14.3578 14.391 14.546C14.4933 14.7468 14.4996 15.0058 14.5 15.5H18.877L17.6151 12.3452C17.3505 11.6837 17.2481 11.4236 17.1763 11.1606C17.1095 10.9157 17.0614 10.6662 17.0325 10.414C17.0015 10.1431 17 9.86367 17 9.15121V8.61804L17.8025 8.21676L20.2929 10.7071C20.5789 10.9931 21.009 11.0787 21.3827 10.9239C21.7564 10.7691 22 10.4045 22 10V5C22 4.63684 21.8031 4.30222 21.4856 4.12585L16.9856 1.62585Z" fill="#0000CC"/>
<path d="M19.677 17.5H14.5C14.4996 17.9942 14.4933 18.2532 14.391 18.454C14.2951 18.6422 14.1422 18.7951 13.954 18.891C13.7401 19 13.4601 19 12.9 19H11.1C10.5399 19 10.2599 19 10.046 18.891C9.85785 18.7951 9.70487 18.6422 9.60899 18.454C9.50669 18.2532 9.50041 17.9942 9.50002 17.5H4.27474L3.61618 19.2123C3.22377 18.9045 2.65438 18.9314 2.29289 19.2929C1.90237 19.6834 1.90237 20.3166 2.29289 20.7071L3.29289 21.7071C3.48043 21.8946 3.73478 22 4 22H20C20.2652 22 20.5196 21.8946 20.7071 21.7071L21.7071 20.7071C22.0976 20.3166 22.0976 19.6834 21.7071 19.2929C21.3405 18.9263 20.76 18.9038 20.3673 19.2255L19.677 17.5Z" fill="#0000CC"/>
</svg>
