<svg width="24" height="24" viewBox="0 0 24 24" fill="none" xmlns="http://www.w3.org/2000/svg">
<path fill-rule="evenodd" clip-rule="evenodd" d="M2 12C2 6.47715 6.47715 2 12 2C17.5228 2 22 6.47715 22 12V15.5021C22.0004 16.3348 22 17.1674 22 18C22 18.2902 21.9697 18.5465 21.9231 18.7804C21.6075 20.3671 20.3671 21.6075 18.7804 21.9231C18.3917 22.0005 18.0963 22.0002 17.5 22C17.2522 21.9999 16.8541 22.0102 16.6098 21.9616C15.8164 21.8038 15.1962 21.1836 15.0384 20.3902C14.999 20.1921 14.9995 19.9768 14.9999 19.8007C15.0031 18.3899 15 16.979 15 15.5681C15 15.3157 14.9999 15.0699 15.0169 14.8618C15.0356 14.6332 15.0797 14.3634 15.218 14.092C15.4097 13.7157 15.7157 13.4097 16.092 13.218C16.3634 13.0797 16.6332 13.0356 16.8618 13.0169C17.0699 12.9999 17.3157 13 17.5681 13C18.3771 13 20 13 20 13.0082V12C20 7.58172 16.4183 4 12 4C7.58172 4 4 7.58172 4 12V13.0082C4 13 5.62289 13 6.43188 13C6.68427 13 6.93007 12.9999 7.13823 13.0169C7.36682 13.0356 7.63656 13.0797 7.90798 13.218C8.2843 13.4097 8.59027 13.7157 8.78201 14.092C8.92031 14.3634 8.96438 14.6332 8.98305 14.8618C9.00006 15.0699 9.00003 15.3157 9 15.5681L9 19.75C9 19.9344 9.00484 20.1726 8.96157 20.3902C8.80376 21.1836 8.18356 21.8038 7.39018 21.9616C7.13145 22.013 6.71293 21.9999 6.5 22C5.90369 22.0002 5.6083 22.0005 5.21964 21.9231C3.63288 21.6075 2.39249 20.3671 2.07686 18.7804C2.03762 18.5831 2.01834 18.372 2.00891 18.134C2.00303 18.0902 2 15.5455 2 15.5C2 13.5 2 14 2 12Z" fill="#0000CC"/>
</svg>
