<svg width="24" height="24" viewBox="0 0 24 24" fill="none" xmlns="http://www.w3.org/2000/svg">
<path fill-rule="evenodd" clip-rule="evenodd" d="M4.99994 10.5H4.06189C4.55399 6.55369 7.92038 3.5 12 3.5C16.0796 3.5 19.446 6.55369 19.9381 10.5H19.0001C17.3433 10.5 16 11.8431 16 13.5V15.5C16 17.1569 17.3431 18.5 19 18.5H20C21.1046 18.5 22 17.6057 22 16.5012C22 14.7015 22 12.2305 22 11.5C22 5.97715 17.5228 1.5 12 1.5C6.47715 1.5 2 5.97715 2 11.5V16.5C2 17.6046 2.89543 18.5 4 18.5C4 20.1569 5.34315 21.5 7 21.5H8.26756C8.61337 22.0978 9.25972 22.5 10 22.5H12C13.1046 22.5 14 21.6046 14 20.5C14 19.3954 13.1046 18.5 12 18.5H10C9.25972 18.5 8.61337 18.9022 8.26756 19.5H7C6.44772 19.5 6 19.0523 6 18.5V18.3293C7.16519 17.9175 8 16.8062 8 15.5V13.5C8 11.8431 6.65675 10.5 4.99994 10.5Z" fill="#0000CC"/>
</svg>
