<svg width="24" height="24" viewBox="0 0 24 24" fill="none" xmlns="http://www.w3.org/2000/svg">
<path fill-rule="evenodd" clip-rule="evenodd" d="M6.29126 6.3949C4.87372 7.83834 3.99941 9.81707 3.99941 12C3.99941 12.321 4.01827 12.6374 4.0549 12.948C4.13321 12.905 4.21345 12.8642 4.29558 12.8259C5.79715 12.1257 7.58204 12.7753 8.28223 14.2769L9.97279 17.9023C10.673 19.4039 10.0233 21.1888 8.52177 21.889C6.51968 22.8226 4.13984 21.9564 3.20626 19.9543L2.3609 18.1414C1.83517 17.014 1.88096 15.7671 2.37628 14.7279C2.13061 13.8598 1.99941 12.9445 1.99941 12C1.99941 6.47715 6.47656 2 11.9994 2C17.5223 2 21.9994 6.47715 21.9994 12C21.9994 12.9872 21.8561 13.9425 21.5885 14.8454C22.0327 15.8601 22.0562 17.0562 21.5502 18.1414L20.7048 19.9543C19.7713 21.9564 17.3914 22.8226 15.3893 21.889C13.8878 21.1888 13.2381 19.4039 13.9383 17.9023L15.6289 14.2769C16.3291 12.7753 18.114 12.1257 19.6155 12.8259C19.7266 12.8777 19.8342 12.934 19.9383 12.9945C19.9786 12.6689 19.9994 12.337 19.9994 12C19.9994 9.81681 19.1249 7.83787 17.707 6.39439L16.7992 7.60069C16.4923 8.00842 15.9277 8.1197 15.4891 7.8589C14.647 7.35819 13.1386 6.99994 12.0012 6.99994C10.8301 6.99994 9.36725 7.33887 8.52128 7.85404C8.08252 8.12123 7.51267 8.01251 7.20311 7.60253L6.29126 6.3949ZM7.85965 5.15301L8.29787 5.73338C9.45099 5.24872 10.86 4.99994 12.0012 4.99994C13.1265 4.99994 14.55 5.26429 15.6978 5.73816L16.1385 5.1526C14.9309 4.42109 13.5143 4 11.9994 4C10.4842 4 9.06737 4.42124 7.85965 5.15301Z" fill="#0000CC"/>
</svg>
