<svg width="24" height="24" viewBox="0 0 24 24" fill="none" xmlns="http://www.w3.org/2000/svg">
<path d="M8.3 3C4.43161 3 2 6.58614 2 9.76C2 11.4329 2.65578 12.9708 3.55651 14.297C4.45816 15.6246 5.64284 16.7964 6.80024 17.7598C7.96152 18.7265 9.12342 19.5064 10.0048 20.045C10.4462 20.3147 10.8216 20.5266 11.0968 20.6733C11.2337 20.7463 11.3506 20.8057 11.4414 20.8491C11.4855 20.8702 11.5324 20.8918 11.5766 20.9101C11.5975 20.9188 11.6302 20.932 11.6683 20.9447C11.6869 20.951 11.7186 20.9611 11.7578 20.9707C11.7828 20.9768 11.8779 21 12 21C12.1221 21 12.2165 20.977 12.2415 20.9709C12.2807 20.9613 12.3131 20.951 12.3317 20.9447C12.3698 20.932 12.4025 20.9188 12.4234 20.9101C12.4676 20.8918 12.5145 20.8702 12.5586 20.8491C12.6494 20.8057 12.7663 20.7463 12.9032 20.6733C13.1784 20.5266 13.5538 20.3147 13.9952 20.045C14.8766 19.5064 16.0385 18.7265 17.1998 17.7598C18.3572 16.7964 19.5418 15.6246 20.4435 14.297C21.3442 12.9708 22 11.4329 22 9.76C22 6.58614 19.5684 3 15.7 3C14.0692 3 12.8525 3.61245 12 4.3153C11.1475 3.61245 9.93081 3 8.3 3Z" fill="#0000CC"/>
</svg>
