<svg width="24" height="24" viewBox="0 0 24 24" fill="none" xmlns="http://www.w3.org/2000/svg">
<path d="M7.62393 3.03813C6.47671 3.10505 5.32381 3.53437 4.29094 4.41408C1.63366 6.67734 1.2456 10.4937 3.34925 13.1921C4.14012 14.2065 5.67858 15.725 7.15069 17.1101C8.642 18.5133 10.1297 19.839 10.8632 20.4866L10.8777 20.4994C10.946 20.5597 11.0347 20.6382 11.1204 20.7024C11.224 20.7802 11.3761 20.8793 11.5803 20.9401C11.8494 21.0201 12.1385 21.0201 12.4077 20.9401C12.6118 20.8793 12.7639 20.7802 12.8675 20.7024C12.9531 20.6382 13.0418 20.5598 13.1101 20.4995L13.1247 20.4866C13.8583 19.839 15.3459 18.5133 16.8372 17.1101C18.3093 15.725 19.8478 14.2065 20.6387 13.1921C22.7335 10.505 22.4064 6.65877 19.6866 4.40534C17.2072 2.35118 14.1204 2.77555 12.0024 4.58822L14.7071 7.29288C14.9344 7.52017 15.0386 7.84288 14.9871 8.16017C14.9356 8.47746 14.7347 8.75066 14.4472 8.89441L11.6882 10.2739L13.7071 12.2929C14.0976 12.6834 14.0976 13.3166 13.7071 13.7071C13.3166 14.0976 12.6834 14.0976 12.2929 13.7071L9.29289 10.7071C9.0656 10.4798 8.96142 10.1571 9.01291 9.8398C9.0644 9.52251 9.26528 9.24931 9.55279 9.10556L12.3118 7.72604L7.62393 3.03813Z" fill="#0000CC"/>
</svg>
