<svg width="24" height="24" viewBox="0 0 24 24" fill="none" xmlns="http://www.w3.org/2000/svg">
<path fill-rule="evenodd" clip-rule="evenodd" d="M8.73152 2.33945C8.17434 2.33875 7.68403 2.33814 7.22782 2.48638C6.82798 2.61629 6.45991 2.8288 6.14748 3.11011C5.791 3.43109 5.54638 3.85601 5.26839 4.33889L1.99974 10.0004C1.72055 10.4825 1.47486 10.9069 1.37513 11.3761C1.28772 11.7873 1.28772 12.2123 1.37513 12.6235C1.47486 13.0927 1.72055 13.5171 1.99974 13.9992L5.26838 19.6607C5.54637 20.1436 5.79099 20.5685 6.14748 20.8895C6.45991 21.1708 6.82798 21.3833 7.22782 21.5132C7.68403 21.6615 8.17434 21.6608 8.73152 21.6602H15.2688C15.826 21.6608 16.3163 21.6615 16.7725 21.5132C17.1724 21.3833 17.5404 21.1708 17.8529 20.8895C18.2093 20.5685 18.454 20.1436 18.732 19.6607L22.0006 13.9992C22.2798 13.517 22.5255 13.0927 22.6252 12.6235C22.7126 12.2123 22.7126 11.7873 22.6252 11.3761C22.5255 10.9069 22.2798 10.4825 22.0006 10.0004L18.732 4.3389C18.454 3.85602 18.2093 3.43109 17.8529 3.11011C17.5404 2.8288 17.1724 2.61629 16.7725 2.48638C16.3163 2.33814 15.826 2.33875 15.2688 2.33945H8.73152ZM11 7.99979C11 7.4475 11.4477 6.99979 12 6.99979C12.5523 6.99979 13 7.4475 13 7.99979V12.9998C13 13.5521 12.5523 13.9998 12 13.9998C11.4477 13.9998 11 13.5521 11 12.9998V7.99979ZM13 15.9998C13 16.5521 12.5523 16.9998 12 16.9998C11.4477 16.9998 11 16.5521 11 15.9998C11 15.4475 11.4477 14.9998 12 14.9998C12.5523 14.9998 13 15.4475 13 15.9998Z" fill="#0000CC"/>
</svg>
