<svg width="24" height="24" viewBox="0 0 24 24" fill="none" xmlns="http://www.w3.org/2000/svg">
<path d="M14.5 14V10H15C16.1046 10 17 10.8954 17 12C17 13.1046 16.1046 14 15 14H14.5Z" fill="#0000CC"/>
<path fill-rule="evenodd" clip-rule="evenodd" d="M4 5C2.89543 5 2 5.89543 2 7V17C2 18.1046 2.89543 19 4 19H20C21.1046 19 22 18.1046 22 17V7C22 5.89543 21.1046 5 20 5H4ZM7 9C7 8.44771 6.55228 8 6 8C5.44772 8 5 8.44771 5 9V15C5 15.5523 5.44772 16 6 16C6.55228 16 7 15.5523 7 15V13H9V15C9 15.5523 9.44772 16 10 16C10.5523 16 11 15.5523 11 15V9C11 8.44771 10.5523 8 10 8C9.44772 8 9 8.44771 9 9V11H7V9ZM14 8C13.1716 8 12.5 8.67157 12.5 9.5V14.5C12.5 15.3284 13.1716 16 14 16H15C17.2091 16 19 14.2091 19 12C19 9.79086 17.2091 8 15 8H14Z" fill="#0000CC"/>
</svg>
