<svg width="24" height="24" viewBox="0 0 24 24" fill="none" xmlns="http://www.w3.org/2000/svg">
<path fill-rule="evenodd" clip-rule="evenodd" d="M4.00008 12C4.00008 6.47715 8.47723 2 14.0001 2H18.5001C18.9045 2 19.2692 2.24364 19.424 2.61732C19.5787 2.99099 19.4932 3.42111 19.2072 3.70711L17.2172 5.69708C18.7729 6.78903 19.4365 8.78557 19.7365 10.5856C20.0593 12.5229 20.0296 14.6451 20.0087 16.1314C20.0042 16.4536 20.0001 16.7459 20.0001 17C20.0001 18.22 20.6753 19.5816 21.5548 20.1679C21.9214 20.4124 22.0849 20.868 21.9572 21.2898C21.8295 21.7115 21.4407 22 21.0001 22H3.00008C2.55941 22 2.17068 21.7115 2.04299 21.2898C1.91529 20.868 2.07872 20.4124 2.44538 20.1679C3.32483 19.5816 4.00008 18.22 4.00008 17V12ZM16 20V15C16 12.7909 14.2091 11 12 11C9.79086 11 8 12.7909 8 15V20H16Z" fill="#0000CC"/>
</svg>
