<svg width="24" height="24" viewBox="0 0 24 24" fill="none" xmlns="http://www.w3.org/2000/svg">
<path fill-rule="evenodd" clip-rule="evenodd" d="M6 6.8C6 5.11984 6 4.27976 6.32698 3.63803C6.6146 3.07354 7.07354 2.6146 7.63803 2.32698C8.27976 2 9.11984 2 10.8 2H13.2C14.8802 2 15.7202 2 16.362 2.32698C16.9265 2.6146 17.3854 3.07354 17.673 3.63803C18 4.27976 18 5.11984 18 6.8V22H14V18C14 16.8954 13.1046 16 12 16C10.8954 16 10 16.8954 10 18V22H6V6.8ZM13 6C13 5.44772 12.5523 5 12 5C11.4477 5 11 5.44772 11 6V7H10C9.44772 7 9 7.44772 9 8C9 8.55228 9.44772 9 10 9H11V10C11 10.5523 11.4477 11 12 11C12.5523 11 13 10.5523 13 10V9H14C14.5523 9 15 8.55228 15 8C15 7.44772 14.5523 7 14 7H13V6Z" fill="#0000CC"/>
<path d="M4 5H5V22H4C2.34315 22 1 20.6569 1 19V15H2C2.55228 15 3 14.5523 3 14C3 13.4477 2.55228 13 2 13H1V11H2C2.55228 11 3 10.5523 3 10C3 9.44771 2.55228 9 2 9H1V8C1 6.34315 2.34315 5 4 5Z" fill="#0000CC"/>
<path d="M20 22H19V5H20C21.6569 5 23 6.34315 23 8V9H22C21.4477 9 21 9.44771 21 10C21 10.5523 21.4477 11 22 11H23V13H22C21.4477 13 21 13.4477 21 14C21 14.5523 21.4477 15 22 15H23V19C23 20.6569 21.6569 22 20 22Z" fill="#0000CC"/>
</svg>
