<svg width="24" height="24" viewBox="0 0 24 24" fill="none" xmlns="http://www.w3.org/2000/svg">
<path fill-rule="evenodd" clip-rule="evenodd" d="M10.6829 2.70733C11.535 2.41045 12.4624 2.41038 13.3145 2.70713C13.8677 2.89977 14.3239 3.24064 14.7696 3.65847C15.2006 4.06253 15.6878 4.60378 16.2808 5.26255L21.7433 11.3311C22.1127 11.7415 22.0795 12.3738 21.669 12.7433C21.2585 13.1128 20.6263 13.0796 20.2568 12.6691L20 12.3839V16.2414C20 17.0464 20 17.7107 19.9558 18.2519C19.9099 18.814 19.8113 19.3307 19.564 19.816C19.1805 20.5687 18.5686 21.1806 17.816 21.5641C17.3306 21.8114 16.8139 21.91 16.2518 21.9559C15.7106 22.0001 15.0463 22.0001 14.2413 22.0001H9.75869C8.95373 22.0001 8.28937 22.0001 7.74818 21.9559C7.18609 21.91 6.66938 21.8114 6.18405 21.5641C5.4314 21.1806 4.81948 20.5687 4.43598 19.816C4.18869 19.3307 4.09013 18.814 4.0442 18.2519C3.99998 17.7107 4 17.0463 4.00001 16.2414L4.00001 12.3838L3.74335 12.669C3.37393 13.0795 2.74164 13.1129 2.3311 12.7434C1.92056 12.374 1.88724 11.7417 2.25666 11.3312L7.71707 5.26315C8.30993 4.6043 8.79701 4.06301 9.22797 3.65888C9.67361 3.24098 10.1298 2.90004 10.6829 2.70733ZM12.3944 11.4472C12.6414 10.9532 12.4412 10.3525 11.9472 10.1055C11.4532 9.85856 10.8526 10.0588 10.6056 10.5528L9.10557 13.5528C8.95058 13.8627 8.96714 14.2309 9.14935 14.5257C9.33156 14.8205 9.65342 15 10 15H12.382L11.6056 16.5528C11.3586 17.0467 11.5588 17.6474 12.0528 17.8944C12.5468 18.1414 13.1474 17.9412 13.3944 17.4472L14.8944 14.4472C15.0494 14.1372 15.0329 13.7691 14.8507 13.4742C14.6684 13.1794 14.3466 13 14 13H11.618L12.3944 11.4472Z" fill="#0000CC"/>
</svg>
