<svg width="24" height="24" viewBox="0 0 24 24" fill="none" xmlns="http://www.w3.org/2000/svg">
<path d="M13.3145 2.70713C12.4624 2.41038 11.535 2.41045 10.6829 2.70733C10.1298 2.90004 9.67361 3.24098 9.22797 3.65888C8.79701 4.06301 8.30993 4.6043 7.71707 5.26315L2.25667 11.3312C1.88724 11.7417 1.92056 12.374 2.3311 12.7434C2.74164 13.1128 3.37392 13.0795 3.74335 12.669L4.00001 12.3838L4.00001 16.2414C4 17.0463 3.99998 17.7107 4.0442 18.2519C4.09013 18.814 4.18869 19.3307 4.43598 19.816C4.81948 20.5687 5.4314 21.1806 6.18405 21.5641C6.66938 21.8114 7.18609 21.91 7.74818 21.9559C8.28937 22.0001 8.95373 22.0001 9.75869 22.0001H14.2413C15.0463 22.0001 15.7106 22.0001 16.2518 21.9559C16.8139 21.91 17.3306 21.8114 17.816 21.5641C18.5686 21.1806 19.1805 20.5687 19.564 19.816C19.8113 19.3307 19.9099 18.814 19.9558 18.2519C20 17.7107 20 17.0464 20 16.2414V12.3839L20.2568 12.6691C20.6263 13.0796 21.2585 13.1128 21.669 12.7433C22.0795 12.3738 22.1127 11.7415 21.7433 11.3311L20 9.39441V5.00008C20 4.44779 19.5523 4.00008 19 4.00008C18.4477 4.00008 18 4.44779 18 5.00008V7.17251L16.2808 5.26255C15.6878 4.60378 15.2006 4.06253 14.7696 3.65847C14.3239 3.24064 13.8677 2.89977 13.3145 2.70713Z" fill="#0000CC"/>
</svg>
