<svg width="24" height="24" viewBox="0 0 24 24" fill="none" xmlns="http://www.w3.org/2000/svg">
<path fill-rule="evenodd" clip-rule="evenodd" d="M10.6829 2.70733C11.535 2.41045 12.4624 2.41038 13.3145 2.70713C13.8677 2.89977 14.3239 3.24064 14.7696 3.65847C15.2006 4.06253 15.6878 4.60378 16.2808 5.26255L21.7433 11.3311C22.1127 11.7415 22.0795 12.3738 21.669 12.7433C21.2585 13.1128 20.6263 13.0796 20.2568 12.6691L20 12.3839V16.2414C20 17.0464 20 17.7107 19.9558 18.2519C19.9099 18.814 19.8113 19.3307 19.564 19.816C19.1805 20.5687 18.5686 21.1806 17.816 21.5641C17.3306 21.8114 16.8139 21.91 16.2518 21.9559C15.7106 22.0001 15.0463 22.0001 14.2413 22.0001H9.75869C8.95373 22.0001 8.28937 22.0001 7.74818 21.9559C7.18609 21.91 6.66938 21.8114 6.18405 21.5641C5.4314 21.1806 4.81948 20.5687 4.43598 19.816C4.18869 19.3307 4.09013 18.814 4.0442 18.2519C3.99998 17.7107 4 17.0463 4.00001 16.2414L4.00001 12.3838L3.74335 12.669C3.37392 13.0795 2.74164 13.1128 2.3311 12.7434C1.92056 12.374 1.88724 11.7417 2.25667 11.3312L7.71707 5.26315C8.30993 4.6043 8.79701 4.06301 9.22797 3.65888C9.67361 3.24098 10.1298 2.90004 10.6829 2.70733ZM12 15C13.6569 15 15 13.6569 15 12C15 10.3431 13.6569 9 12 9C10.3431 9 9 10.3431 9 12C9 13.6569 10.3431 15 12 15ZM16.9081 19.782C17.0967 19.6859 17.2677 19.5611 17.4155 19.4131C16.4493 17.3943 14.3876 16 12.0003 16C9.61281 16 7.55104 17.3944 6.58496 19.4133C6.73267 19.5612 6.90357 19.6859 7.09212 19.782C7.51995 20 8.08 20 9.2001 20H14.8001C15.9202 20 16.4803 20 16.9081 19.782Z" fill="#0000CC"/>
</svg>
