<svg width="24" height="24" viewBox="0 0 24 24" fill="none" xmlns="http://www.w3.org/2000/svg">
<path fill-rule="evenodd" clip-rule="evenodd" d="M13.3068 2.24116C12.451 2.00946 11.5491 2.00946 10.6933 2.24116C9.72004 2.50468 8.86605 3.16957 7.62707 4.1342L4.75051 6.37158C3.94617 6.99674 3.38974 7.42921 2.98013 7.98303C2.61847 8.472 2.34906 9.02285 2.18513 9.60852C1.99945 10.2719 1.99969 10.9766 2.00003 11.9953L2.00006 14.6427C2.00005 15.7265 2.00004 16.6007 2.05788 17.3086C2.11743 18.0374 2.24324 18.6776 2.54503 19.2699C3.02439 20.2107 3.7893 20.9756 4.73011 21.455C5.3224 21.7568 5.96259 21.8826 6.69143 21.9421C7.39929 22 8.2734 21.9999 9.35712 21.9999H14.6429C15.7266 21.9999 16.6008 22 17.3087 21.9421C18.0375 21.8826 18.6777 21.7568 19.27 21.455C20.2108 20.9756 20.9757 20.2107 21.4551 19.2699C21.7569 18.6776 21.8827 18.0374 21.9422 17.3086C22.0001 16.6007 22.0001 15.7266 22.0001 14.6429L22.0001 11.9953C22.0004 10.9766 22.0007 10.2719 21.815 9.60852C21.6511 9.02285 21.3816 8.472 21.02 7.98303C20.6104 7.42922 20.054 6.99674 19.2496 6.37159L16.3731 4.13421C15.1341 3.16958 14.2801 2.50468 13.3068 2.24116ZM12 11C10.7188 11 9.55218 11.4806 8.66692 12.2729C8.2554 12.6412 7.6232 12.6062 7.25487 12.1947C6.88655 11.7832 6.92157 11.151 7.3331 10.7827C8.57086 9.67482 10.2078 9 12 9C13.7922 9 15.4292 9.67482 16.6669 10.7827C17.0784 11.151 17.1135 11.7832 16.7451 12.1947C16.3768 12.6062 15.7446 12.6412 15.3331 12.2729C14.4478 11.4806 13.2812 11 12 11ZM12 14.5C11.4871 14.5 11.0214 14.6917 10.6669 15.009C10.2554 15.3774 9.6232 15.3423 9.25488 14.9308C8.88655 14.5193 8.92157 13.8871 9.3331 13.5188C10.0401 12.886 10.9762 12.5 12 12.5C13.0238 12.5 13.9599 12.886 14.6669 13.5188C15.0785 13.8871 15.1135 14.5193 14.7451 14.9308C14.3768 15.3423 13.7446 15.3774 13.3331 15.009C12.9786 14.6917 12.5129 14.5 12 14.5ZM13 17C13 17.5523 12.5523 18 12 18C11.4477 18 11 17.5523 11 17C11 16.4477 11.4477 16 12 16C12.5523 16 13 16.4477 13 17Z" fill="#0000CC"/>
</svg>
