<svg width="24" height="24" viewBox="0 0 24 24" fill="none" xmlns="http://www.w3.org/2000/svg">
<path fill-rule="evenodd" clip-rule="evenodd" d="M13.3068 2.24116C12.451 2.00946 11.5491 2.00946 10.6933 2.24116C9.72004 2.50468 8.86605 3.16957 7.62707 4.1342L4.75051 6.37158C3.94617 6.99674 3.38974 7.42921 2.98013 7.98303C2.61847 8.472 2.34906 9.02285 2.18513 9.60852C1.99945 10.2719 1.99969 10.9766 2.00003 11.9953L2.00006 14.6427C2.00005 15.7265 2.00004 16.6007 2.05788 17.3086C2.11743 18.0374 2.24324 18.6776 2.54503 19.2699C3.02439 20.2107 3.7893 20.9756 4.73011 21.455C5.3224 21.7568 5.96259 21.8826 6.69143 21.9421C7.39929 22 8.2734 21.9999 9.35712 21.9999H14.6429C15.7266 21.9999 16.6008 22 17.3087 21.9421C18.0375 21.8826 18.6777 21.7568 19.27 21.455C20.2108 20.9756 20.9757 20.2107 21.4551 19.2699C21.7569 18.6776 21.8827 18.0374 21.9422 17.3086C22.0001 16.6007 22.0001 15.7266 22.0001 14.6429L22.0001 11.9953C22.0004 10.9766 22.0007 10.2719 21.815 9.60852C21.6511 9.02285 21.3816 8.472 21.02 7.98303C20.6104 7.42922 20.054 6.99674 19.2496 6.37159L16.3731 4.13421C15.1341 3.16958 14.2801 2.50468 13.3068 2.24116ZM16 9C16 9.55229 15.5523 10 15 10C14.4477 10 14 9.55229 14 9C14 8.44771 14.4477 8 15 8C15.5523 8 16 8.44771 16 9ZM11.968 10H13C13.5523 10 14 10.4477 14 11C14 11.5523 13.5523 12 13 12H12C11.5204 12 11.2108 12.0005 10.9738 12.0167C10.7458 12.0323 10.659 12.0589 10.6173 12.0761C10.3723 12.1776 10.1776 12.3723 10.0761 12.6173C10.0589 12.6589 10.0323 12.7458 10.0167 12.9738C10.0006 13.2107 10 13.5204 10 14C10 14.4796 10.0006 14.7893 10.0167 15.0262C10.0323 15.2542 10.0589 15.3411 10.0761 15.3827C10.1776 15.6277 10.3723 15.8224 10.6173 15.9239C10.659 15.9411 10.7458 15.9677 10.9738 15.9833C11.2108 15.9995 11.5204 16 12 16H13C13.5523 16 14 16.4477 14 17C14 17.5523 13.5523 18 13 18H11.9681C11.5294 18 11.1509 18 10.8376 17.9787C10.5078 17.9561 10.1779 17.9066 9.85197 17.7716C9.11689 17.4672 8.53287 16.8831 8.22839 16.1481C8.09338 15.8221 8.04388 15.4922 8.02137 15.1624C8 14.8491 8.00001 14.4387 8.00002 14L7.99976 13.8226C7.99904 13.4911 7.99834 13.1752 8.02137 12.8376C8.04388 12.5078 8.09338 12.1779 8.22839 11.852C8.53287 11.1169 9.11689 10.5328 9.85197 10.2284C10.1779 10.0934 10.5078 10.0439 10.8376 10.0214C11.1509 9.99998 11.5294 9.99999 11.968 10Z" fill="#0000CC"/>
</svg>
