<svg width="24" height="24" viewBox="0 0 24 24" fill="none" xmlns="http://www.w3.org/2000/svg">
<path d="M15 2C15.5523 2 16 2.44772 16 3V4L19.4319 4C19.6843 3.99997 19.9301 3.99994 20.1382 4.01695C20.3668 4.03562 20.6366 4.07969 20.908 4.21799C21.2843 4.40973 21.5903 4.7157 21.782 5.09202C21.9203 5.36344 21.9644 5.63318 21.9831 5.86177C22.0001 6.06989 22 6.31566 22 6.568V7.43193C22 7.68427 22.0001 7.93011 21.9831 8.13823C21.9644 8.36682 21.9203 8.63656 21.782 8.90798C21.5903 9.2843 21.2843 9.59027 20.908 9.78201C20.6366 9.92031 20.3668 9.96438 20.1382 9.98305C19.9301 10.0001 19.6843 10 19.4319 10L16 10V21C16 21.5523 15.5523 22 15 22C14.4477 22 14 21.5523 14 21V3C14 2.44772 14.4477 2 15 2Z" fill="#0000CC"/>
<path d="M12 2.48438C11.5547 2.48426 11.1094 2.5585 10.6829 2.70708C10.1298 2.8998 9.67361 3.24074 9.22797 3.65863C8.79702 4.06275 8.30995 4.60404 7.7171 5.26287L2.25667 11.3309C1.88724 11.7415 1.92056 12.3737 2.3311 12.7432C2.74164 13.1126 3.37392 13.0793 3.74335 12.6687L4.00001 12.3835L4.00001 16.2411C4 17.0461 3.99998 17.7105 4.0442 18.2517C4.09013 18.8138 4.18869 19.3305 4.43598 19.8158C4.81948 20.5684 5.4314 21.1804 6.18405 21.5639C6.66938 21.8112 7.18609 21.9097 7.74818 21.9556C8.28937 21.9999 8.95373 21.9998 9.75869 21.9998H12V17C11.4477 17 11 16.5523 11 16V15H10C9.44772 15 9 14.5523 9 14C9 13.4477 9.44772 13 10 13H11V12C11 11.4477 11.4477 11 12 11V2.48438Z" fill="#0000CC"/>
</svg>
