<svg width="24" height="24" viewBox="0 0 24 24" fill="none" xmlns="http://www.w3.org/2000/svg">
<path d="M14.7526 2.2951C14.5653 2.1066 14.3107 2.00042 14.0449 2C13.7791 1.99959 13.5242 2.10498 13.3362 2.2929L6.69238 8.93677C6.88005 8.83895 7.09478 8.74641 7.33646 8.67294C8.09495 8.44236 8.90485 8.44236 9.66334 8.67294C10.2611 8.85465 10.694 9.15299 10.9602 9.35945C11.177 9.5276 11.3956 9.72652 11.5492 9.86625L16.0179 13.9287C17.2439 15.0432 17.3342 16.9406 16.2197 18.1666C15.874 18.5469 15.4529 18.8179 14.9999 18.9776V19.5802L14.9763 20.4496C14.9475 20.8029 14.8695 21.3647 14.5639 21.9645L14.5456 22H20.9999C21.376 22 21.7203 21.789 21.891 21.4538C22.0617 21.1186 22.0298 20.716 21.8086 20.4118L18.9636 16.5H20.9999C21.3785 16.5 21.7247 16.2861 21.8941 15.9475C22.0636 15.6089 22.0273 15.2036 21.8003 14.9006L18.8791 11H20.9999C21.4038 11 21.768 10.757 21.9231 10.3841C22.0783 10.0112 21.9939 9.58159 21.7092 9.2951L14.7526 2.2951Z" fill="#0000CC"/>
<path d="M9.08173 10.438C8.70248 10.3227 8.29753 10.3227 7.91829 10.438C7.6471 10.5205 7.43519 10.6597 7.26539 10.7914C7.11198 10.9104 6.94403 11.0631 6.77321 11.2185C5.78371 12.1183 4.79404 13.0179 3.80437 13.9175C3.31202 14.365 2.81967 14.8126 2.32733 15.2602C1.91868 15.6317 1.88856 16.2641 2.26007 16.6728C2.63157 17.0814 3.26402 17.1115 3.67268 16.74L4.00001 16.4425L4 19.432C3.99997 19.6844 3.99995 19.9302 4.01695 20.1383C4.03563 20.3669 4.0797 20.6367 4.21799 20.9081C4.40974 21.2844 4.7157 21.5904 5.09203 21.7821C5.36345 21.9204 5.63318 21.9645 5.86178 21.9832C6.0699 22.0002 6.31564 22.0001 6.56797 22.0001H10.4319C10.6843 22.0001 10.9301 22.0002 11.1382 21.9832C11.3668 21.9645 11.6366 21.9204 11.908 21.7821C12.2843 21.5904 12.5903 21.2844 12.782 20.9081C12.9203 20.6367 12.9644 20.3669 12.9831 20.1383C13.0001 19.9302 13 19.6844 13 19.432L13 16.4425L13.3273 16.74C13.736 17.1115 14.3684 17.0814 14.7399 16.6728C15.1115 16.2641 15.0813 15.6317 14.6727 15.2602L10.2268 11.2185C10.056 11.0631 9.88804 10.9104 9.73462 10.7914C9.56482 10.6597 9.35291 10.5205 9.08173 10.438Z" fill="#0000CC"/>
</svg>
