<svg width="24" height="24" viewBox="0 0 24 24" fill="none" xmlns="http://www.w3.org/2000/svg">
<path fill-rule="evenodd" clip-rule="evenodd" d="M13.3068 2.24116C12.451 2.00946 11.5491 2.00946 10.6933 2.24116C9.72004 2.50468 8.86605 3.16957 7.62707 4.1342L4.75051 6.37158C3.94617 6.99674 3.38974 7.42921 2.98013 7.98303C2.61847 8.472 2.34906 9.02285 2.18513 9.60852C1.99945 10.2719 1.99969 10.9766 2.00003 11.9953L2.00006 14.6427C2.00005 15.7265 2.00004 16.6007 2.05788 17.3086C2.11743 18.0374 2.24324 18.6776 2.54503 19.2699C3.02439 20.2107 3.7893 20.9756 4.73011 21.455C5.3224 21.7568 5.96259 21.8826 6.69143 21.9421C7.39929 22 8.2734 21.9999 9.35712 21.9999H14.6429C15.7266 21.9999 16.6008 22 17.3087 21.9421C18.0375 21.8826 18.6777 21.7568 19.27 21.455C20.2108 20.9756 20.9757 20.2107 21.4551 19.2699C21.7569 18.6776 21.8827 18.0374 21.9422 17.3086C22.0001 16.6007 22.0001 15.7266 22.0001 14.6429L22.0001 11.9953C22.0004 10.9766 22.0007 10.2719 21.815 9.60852C21.6511 9.02285 21.3816 8.472 21.02 7.98303C20.6104 7.42922 20.054 6.99674 19.2496 6.37159L16.3731 4.13421C15.1341 3.16958 14.2801 2.50468 13.3068 2.24116ZM13.3137 10.0813C13.6347 9.6319 13.5307 9.00735 13.0812 8.68634C12.6318 8.36533 12.0073 8.46943 11.6863 8.91884L9.18627 12.4188C8.96855 12.7237 8.93943 13.1246 9.11084 13.4577C9.28224 13.7907 9.62542 14.0001 10 14.0001H12.0568L10.6863 15.9188C10.3653 16.3683 10.4694 16.9928 10.9188 17.3138C11.3682 17.6348 11.9927 17.5307 12.3137 17.0813L14.8137 13.5813C15.0315 13.2765 15.0606 12.8756 14.8892 12.5425C14.7178 12.2094 14.3746 12.0001 14 12.0001H11.9432L13.3137 10.0813Z" fill="#0000CC"/>
</svg>
