<svg width="24" height="24" viewBox="0 0 24 24" fill="none" xmlns="http://www.w3.org/2000/svg">
<path fill-rule="evenodd" clip-rule="evenodd" d="M5.31981 2.93C7.07541 2.3448 9.43715 2 12 2C14.5629 2 16.9246 2.3448 18.6802 2.93C19.5528 3.22085 20.331 3.58923 20.9117 4.04685C21.4811 4.49559 22 5.14805 22 6C22 6.85195 21.4811 7.50441 20.9117 7.95315C20.331 8.41077 19.5528 8.77915 18.6802 9.07C16.9246 9.6552 14.5629 10 12 10C9.43715 10 7.07541 9.6552 5.31981 9.07C4.44724 8.77915 3.66896 8.41077 3.08829 7.95315C2.51889 7.50441 2 6.85195 2 6C2 5.14805 2.51889 4.49559 3.08829 4.04685C3.66896 3.58923 4.44724 3.22085 5.31981 2.93ZM4.03937 11.7857C4.19282 11.2551 4.74731 10.9494 5.27784 11.1029C7.23967 11.6703 9.53633 12 12 12C14.4637 12 16.7603 11.6703 18.7222 11.1029C19.2527 10.9494 19.8072 11.2551 19.9606 11.7857C20.1141 12.3162 19.8084 12.8707 19.2778 13.0241C17.1212 13.6479 14.6363 14 12 14C9.36365 14 6.87875 13.6479 4.72215 13.0241C4.19161 12.8707 3.88592 12.3162 4.03937 11.7857ZM5.02254 16.163C5.13914 15.6231 5.67129 15.28 6.21113 15.3966C8.01686 15.7867 9.96554 16 12 16C14.0345 16 15.9831 15.7867 17.7889 15.3966C18.3287 15.28 18.8609 15.6231 18.9775 16.163C19.0941 16.7028 18.751 17.2349 18.2111 17.3515C16.2635 17.7722 14.1732 18 12 18C9.82683 18 7.73649 17.7722 5.78887 17.3515C5.24903 17.2349 4.90594 16.7028 5.02254 16.163ZM7.01401 20.5002C7.10613 19.9557 7.62225 19.5889 8.1668 19.681C9.40121 19.8898 10.6836 20 12 20C13.3164 20 14.5988 19.8898 15.8332 19.681C16.3778 19.5889 16.8939 19.9557 16.986 20.5002C17.0781 21.0448 16.7113 21.5609 16.1668 21.653C14.8219 21.8805 13.4279 22 12 22C10.5721 22 9.17808 21.8805 7.83321 21.653C7.28866 21.5609 6.92189 21.0448 7.01401 20.5002Z" fill="#0000CC"/>
</svg>
