<svg width="24" height="24" viewBox="0 0 24 24" fill="none" xmlns="http://www.w3.org/2000/svg">
<path d="M10 2C10.5523 2 11 2.44772 11 3V7H8C7.44772 7 7 7.44772 7 8C7 8.55228 7.44772 9 8 9H12.4393L15.6286 9.68342C17.0118 9.97983 18 11.2022 18 12.6168V15C18 15.5523 17.5523 16 17 16H5C3.89543 16 3 15.1046 3 14V6C3 5.51116 3.35341 5.09397 3.8356 5.01361L9 4.15287V3C9 2.44772 9.44772 2 10 2Z" fill="#0000CC"/>
<path d="M21 16C21.5523 16 22 16.4477 22 17C22 19.7614 19.7614 22 17 22H3C2.44772 22 2 21.5523 2 21C2 20.4477 2.44772 20 3 20H6V18H8V20H14V18H16V20H17C18.6569 20 20 18.6569 20 17C20 16.4477 20.4477 16 21 16Z" fill="#0000CC"/>
</svg>
