<svg width="24" height="24" viewBox="0 0 24 24" fill="none" xmlns="http://www.w3.org/2000/svg">
<path d="M21.9712 7H2.02878C2.06471 6.41168 2.14546 5.99429 2.32698 5.63803C2.6146 5.07354 3.07354 4.6146 3.63803 4.32698C4.27976 4 5.11984 4 6.8 4H17.2C18.8802 4 19.7202 4 20.362 4.32698C20.9265 4.6146 21.3854 5.07354 21.673 5.63803C21.8545 5.99429 21.9353 6.41168 21.9712 7Z" fill="#0000CC"/>
<path fill-rule="evenodd" clip-rule="evenodd" d="M2 9H22V15.2C22 16.8802 22 17.7202 21.673 18.362C21.3854 18.9265 20.9265 19.3854 20.362 19.673C19.7202 20 18.8802 20 17.2 20H6.8C5.11984 20 4.27976 20 3.63803 19.673C3.07354 19.3854 2.6146 18.9265 2.32698 18.362C2 17.7202 2 16.8802 2 15.2V9ZM8.87412 14C9.97869 14 10.8741 13.1046 10.8741 12C10.8741 10.8954 9.97869 10 8.87412 10C7.76955 10 6.87412 10.8954 6.87412 12C6.87412 13.1046 7.76955 14 8.87412 14ZM12.4356 17.3647C12.4473 17.1389 12.3581 17.0082 12.1796 16.7469C11.4594 15.6922 10.2476 15 8.87407 15C7.5006 15 6.2888 15.6922 5.56855 16.7469C5.39007 17.0082 5.30083 17.1389 5.31254 17.3647C5.32107 17.5291 5.44466 17.7632 5.57564 17.863C5.75552 18 5.96466 18 6.38294 18H11.3652C11.7835 18 11.9926 18 12.1725 17.863C12.3035 17.7632 12.4271 17.5291 12.4356 17.3647ZM14 12C14 11.4477 14.4477 11 15 11H18C18.5523 11 19 11.4477 19 12C19 12.5523 18.5523 13 18 13H15C14.4477 13 14 12.5523 14 12ZM14 16C14 15.4477 14.4477 15 15 15H18C18.5523 15 19 15.4477 19 16C19 16.5523 18.5523 17 18 17H15C14.4477 17 14 16.5523 14 16Z" fill="#0000CC"/>
</svg>
