<svg width="24" height="24" viewBox="0 0 24 24" fill="none" xmlns="http://www.w3.org/2000/svg">
<path d="M17.7071 7.70711L21.7071 3.70711C22.0976 3.31658 22.0976 2.68342 21.7071 2.29289C21.3166 1.90237 20.6834 1.90237 20.2929 2.29289L17 5.58579L15.7071 4.29289C15.3166 3.90237 14.6834 3.90237 14.2929 4.29289C13.9024 4.68342 13.9024 5.31658 14.2929 5.70711L16.2929 7.70711C16.6834 8.09763 17.3166 8.09763 17.7071 7.70711Z" fill="#0000CC"/>
<path d="M12 5C12 4.28417 12.2546 3.56834 12.7638 3H7.8C6.11984 3 5.27976 3 4.63803 3.32698C4.07354 3.6146 3.6146 4.07354 3.32698 4.63803C3 5.27976 3 6.11984 3 7.8V16.2C3 17.8802 3 18.7202 3.32698 19.362C3.6146 19.9265 4.07354 20.3854 4.63803 20.673C5.27976 21 6.11984 21 7.8 21H16.2C17.8802 21 18.7202 21 19.362 20.673C19.9265 20.3854 20.3854 19.9265 20.673 19.362C21 18.7202 21 17.8802 21 16.2C21 15.2252 21.0009 14.2503 21.0018 13.2755C21.0036 11.2654 21.0055 9.25527 20.9995 7.24521L19 9.23618V14.0694C18.6612 13.7562 18.2875 13.473 17.8463 13.3226C17.2409 13.1162 16.5855 13.1087 15.9756 13.3011C15.5663 13.4302 15.2329 13.6587 14.9261 13.9167C14.7246 14.0861 14.5059 14.2937 14.2645 14.5302L13.2724 13.5464C12.8935 13.1706 12.5669 12.8467 12.2762 12.6022C11.9696 12.3444 11.6366 12.1162 11.2278 11.987C10.6185 11.7945 9.96365 11.8016 9.35866 12.0072C8.95274 12.1452 8.62474 12.3806 8.32383 12.645C8.32383 12.645 6.10291 14.8415 5 15.9308V6.6C5 6.03995 5 5.75992 5.10899 5.54601C5.20487 5.35785 5.35785 5.20487 5.54601 5.10899C5.75992 5 6.03995 5 6.6 5H12Z" fill="#0000CC"/>
</svg>
