<svg width="24" height="24" viewBox="0 0 24 24" fill="none" xmlns="http://www.w3.org/2000/svg">
<path fill-rule="evenodd" clip-rule="evenodd" d="M15.5 2C12.4624 2 10 4.46243 10 7.5C10 8.65902 10.3585 9.73432 10.9707 10.621L6.33514 15.253C6.32077 15.2658 6.30668 15.2791 6.29289 15.2929C6.27929 15.3065 6.26617 15.3204 6.25351 15.3346L3.29317 18.2926C3.10551 18.4801 3.00005 18.7345 3 18.9998C2.99995 19.2651 3.10531 19.5195 3.29289 19.7071L5.29289 21.7071C5.68342 22.0976 6.31658 22.0976 6.70711 21.7071C7.09763 21.3166 7.09763 20.6834 6.70711 20.2929L5.41449 19.0003L7.00089 17.4151L8.29289 18.7071C8.68342 19.0976 9.31658 19.0976 9.70711 18.7071C10.0976 18.3166 10.0976 17.6834 9.70711 17.2929L8.41564 16.0014L12.386 12.0342C13.2713 12.6434 14.344 13 15.5 13C18.5376 13 21 10.5376 21 7.5C21 4.46243 18.5376 2 15.5 2ZM15.5 11C17.433 11 19 9.433 19 7.5C19 5.567 17.433 4 15.5 4C13.567 4 12 5.567 12 7.5C12 9.433 13.567 11 15.5 11Z" fill="#0000CC"/>
</svg>
