<svg width="24" height="24" viewBox="0 0 24 24" fill="none" xmlns="http://www.w3.org/2000/svg">
<path d="M10.3157 20.9743C5.66482 20.6247 2 16.7403 2 12V11.3212C2.72115 12.2559 3.74011 12.9701 4.74161 13.4708C6.70253 14.4513 9.27155 15 12 15C14.7284 15 17.2975 14.4513 19.2584 13.4708C20.2599 12.9701 21.2789 12.2559 22 11.3212V12C22 12.0563 21.9995 12.1126 21.9984 12.1687C21.9087 17.0616 17.9147 21 13.0004 21H11.0004C10.8543 21 10.709 20.9965 10.5646 20.9896C10.4814 20.9857 10.3984 20.9806 10.3157 20.9743Z" fill="#0000CC"/>
<path fill-rule="evenodd" clip-rule="evenodd" d="M5.18883 4.42359C6.98362 3.52619 9.39314 3 12 3C14.6069 3 17.0164 3.52619 18.8112 4.42359C20.5462 5.29108 22 6.67453 22 8.5C22 10.3255 20.5462 11.7089 18.8112 12.5764C17.0164 13.4738 14.6069 14 12 14C9.39314 14 6.98362 13.4738 5.18883 12.5764C3.45384 11.7089 2 10.3255 2 8.5C2 6.67453 3.45384 5.29108 5.18883 4.42359ZM7 7.5C6.44772 7.5 6 7.94772 6 8.5C6 9.05228 6.44772 9.5 7 9.5H8C8.55228 9.5 9 9.05228 9 8.5C9 7.94772 8.55228 7.5 8 7.5H7ZM12.7071 7.79292C12.3166 7.40238 11.6835 7.40236 11.2929 7.79287C10.9024 8.18338 10.9024 8.81654 11.2929 9.20708L11.2992 9.21344C11.6897 9.60398 12.3229 9.60401 12.7134 9.2135C13.104 8.82299 13.104 8.18982 12.7135 7.79928L12.7071 7.79292ZM15 8.5C15 7.94772 15.4477 7.5 16 7.5H17C17.5523 7.5 18 7.94772 18 8.5C18 9.05228 17.5523 9.5 17 9.5H16C15.4477 9.5 15 9.05228 15 8.5Z" fill="#0000CC"/>
</svg>
