<svg width="24" height="24" viewBox="0 0 24 24" fill="none" xmlns="http://www.w3.org/2000/svg">
<path fill-rule="evenodd" clip-rule="evenodd" d="M19.2933 3.605C18.9235 3.39368 18.458 3.45598 18.1567 3.75712L12.9141 8.99824L14.2503 10.3354L14.3556 10.2301C14.7352 9.85054 14.8052 9.77146 14.8526 9.69402C14.9075 9.60455 14.9479 9.507 14.9724 9.40497C14.9936 9.31665 15 9.21125 15 8.67447V8.49995C15 8.23473 15.1054 7.98038 15.2929 7.79284L17.2929 5.79284C17.4804 5.60531 17.7348 5.49995 18 5.49995H19.0171C19.0611 5.49995 19.1033 5.48248 19.1343 5.45139L19.4926 5.09316C19.933 4.65272 19.8341 3.91404 19.2933 3.605ZM10.6168 9.46743C10.4156 9.08931 10.4744 8.60923 10.793 8.29068L16.7427 2.3427C17.6817 1.40399 19.1328 1.20978 20.2856 1.86852C21.9714 2.83183 22.2797 5.13444 20.9068 6.50737L20.5486 6.8656C20.1424 7.27177 19.5915 7.49995 19.0171 7.49995H18.4142L17 8.91415C16.9991 9.25779 16.9899 9.56873 16.9171 9.87186C16.8436 10.178 16.7224 10.4706 16.5579 10.739C16.4441 10.9247 16.3057 11.0912 16.15 11.2577L16.6925 11.7786C16.8938 11.9718 17.0052 12.2402 16.9998 12.5191C16.9945 12.798 16.8729 13.062 16.6644 13.2474L10.6773 18.5692C8.56371 20.4479 5.93005 21.6415 3.12404 21.9922C2.75173 22.0388 2.38469 21.873 2.17348 21.5629C1.96227 21.2527 1.94244 20.8505 2.12211 20.5211L2.94227 19.0175C3.74335 17.5488 4.17506 16.7573 4.67286 16.0059C5.11512 15.3384 5.5952 14.6967 6.11075 14.084C6.69105 13.3943 7.32846 12.7567 8.51127 11.5735L10.6168 9.46743Z" fill="#0000CC"/>
</svg>
