<svg width="24" height="24" viewBox="0 0 24 24" fill="none" xmlns="http://www.w3.org/2000/svg">
<path d="M17.9738 6.02634C15.6174 3.66997 11.674 4.15543 9.95944 7.01295L8.17359 9.98937C8.0179 10.2488 7.83098 10.4883 7.61701 10.7022L6.42623 11.893C5.10161 13.2176 4.89548 15.2372 5.80783 16.7781L2.29289 20.293C1.90237 20.6835 1.90237 21.3167 2.29289 21.7072C2.68342 22.0977 3.31658 22.0977 3.70711 21.7072L7.22205 18.1923C8.76295 19.1046 10.7825 18.8985 12.1071 17.5739L13.2979 16.3831C13.5119 16.1691 13.7513 15.9822 14.0107 15.8265L16.9872 14.0407C19.8447 12.3262 20.3301 8.38271 17.9738 6.02634Z" fill="#0000CC"/>
</svg>
