<svg width="24" height="24" viewBox="0 0 24 24" fill="none" xmlns="http://www.w3.org/2000/svg">
<path d="M14.7074 3.2932C13.2123 1.7981 10.7883 1.7981 9.2932 3.2932C7.86789 4.71851 7.80136 6.98805 9.09361 8.49217L6.29289 11.2929C6.05113 11.5347 5.94964 11.8832 6.02381 12.2169L7.75338 20H3C2.44772 20 2 20.4477 2 21C2 21.5523 2.44772 22 3 22H8.97843C8.99215 22.0003 9.0059 22.0003 9.01969 22H15C15.5523 22 16 21.5523 16 21C16 20.4477 15.5523 20 15 20H9.80217L8.09527 12.3189L10.5 9.91421L11.0003 10.4145V15.0003C11.0003 15.4048 11.2439 15.7694 11.6176 15.9242C11.9913 16.079 12.4214 15.9934 12.7074 15.7074L21.7074 6.70741C21.9934 6.42141 22.079 5.99129 21.9242 5.61762C21.7694 5.24394 21.4048 5.0003 21.0003 5.0003H16.4145L14.7074 3.2932Z" fill="#0000CC"/>
<path d="M20.4998 11.0003C20.4998 10.5308 20.4073 10.0831 20.2398 9.67432L15.6738 14.2403C16.0826 14.4078 16.5303 14.5003 16.9998 14.5003C18.9328 14.5003 20.4998 12.9333 20.4998 11.0003Z" fill="#0000CC"/>
</svg>
