<svg width="24" height="24" viewBox="0 0 24 24" fill="none" xmlns="http://www.w3.org/2000/svg">
<path d="M17.8385 3H6.16146C5.63436 2.99999 5.17952 2.99997 4.80498 3.03057C4.40963 3.06287 4.01641 3.13419 3.63803 3.32698C3.07355 3.6146 2.6146 4.07355 2.32698 4.63803C2.13419 5.01641 2.06287 5.40963 2.03057 5.80498C1.99997 6.17954 1.99998 6.63429 2 7.16142V15L4 15V7.2C4 6.62345 4.00078 6.25118 4.02393 5.96784C4.04613 5.69618 4.0838 5.59546 4.109 5.54601C4.20487 5.35785 4.35785 5.20487 4.54601 5.109C4.59546 5.0838 4.69618 5.04613 4.96784 5.02393C5.25118 5.00078 5.62345 5 6.2 5H17.8C18.3766 5 18.7488 5.00078 19.0322 5.02393C19.3038 5.04613 19.4045 5.0838 19.454 5.109C19.6422 5.20487 19.7951 5.35785 19.891 5.54601C19.9162 5.59546 19.9539 5.69618 19.9761 5.96784C19.9992 6.25118 20 6.62345 20 7.2V15L22 15V7.16144C22 6.6343 22 6.17954 21.9694 5.80498C21.9371 5.40963 21.8658 5.01641 21.673 4.63803C21.3854 4.07355 20.9265 3.6146 20.362 3.32698C19.9836 3.13419 19.5904 3.06287 19.195 3.03057C18.8205 2.99997 18.3656 2.99999 17.8385 3Z" fill="#0000CC"/>
<path d="M1 17C1 16.4477 1.44772 16 2 16H22C22.5523 16 23 16.4477 23 17V17.032C23 17.4706 23 17.8491 22.9787 18.1624C22.9561 18.4922 22.9066 18.8221 22.7716 19.1481C22.4672 19.8831 21.8831 20.4672 21.1481 20.7716C20.8221 20.9066 20.4922 20.9561 20.1624 20.9786C19.8491 21 19.4706 21 19.032 21H4.96801C4.52936 21 4.15088 21 3.83762 20.9786C3.50779 20.9561 3.17788 20.9066 2.85195 20.7716C2.11687 20.4672 1.53285 19.8831 1.22836 19.1481C1.09336 18.8221 1.04386 18.4922 1.02135 18.1624C0.99998 17.8491 0.999989 17.4706 1 17.032V17Z" fill="#0000CC"/>
<path d="M12 7C12.5523 7 13 7.44772 13 8V9H14C14.5523 9 15 9.44772 15 10C15 10.5523 14.5523 11 14 11H13V12C13 12.5523 12.5523 13 12 13C11.4477 13 11 12.5523 11 12V11H10C9.44772 11 9 10.5523 9 10C9 9.44772 9.44772 9 10 9H11V8C11 7.44772 11.4477 7 12 7Z" fill="#0000CC"/>
</svg>
