<svg width="24" height="24" viewBox="0 0 24 24" fill="none" xmlns="http://www.w3.org/2000/svg">
<path d="M10.5 3C10.5 2.44772 10.0523 2 9.5 2C8.94772 2 8.5 2.44772 8.5 3V3.37745C7.81555 2.8286 6.94653 2.5 6 2.5C3.79086 2.5 2 4.29086 2 6.5C2 8.70914 3.79086 10.5 6 10.5C7.02383 10.5 7.9599 10.114 8.66691 9.48124C9.07844 9.11292 9.11346 8.48072 8.74514 8.06919C8.37681 7.65767 7.74461 7.62265 7.33309 7.99097C6.97859 8.30826 6.51288 8.5 6 8.5C4.89543 8.5 4 7.60457 4 6.5C4 5.39543 4.89543 4.5 6 4.5C6.50665 4.5 6.97013 4.68858 7.32311 5H6.5C5.94772 5 5.5 5.44772 5.5 6C5.5 6.55228 5.94772 7 6.5 7H9.5C10.0523 7 10.5 6.55228 10.5 6V3Z" fill="#0000CC"/>
<path d="M12.5 5H17.8C18.3766 5 18.7488 5.00078 19.0322 5.02393C19.3038 5.04613 19.4045 5.0838 19.454 5.109C19.6422 5.20487 19.7951 5.35785 19.891 5.54601C19.9162 5.59546 19.9539 5.69618 19.9761 5.96784C19.9992 6.25118 20 6.62345 20 7.2V15L22 15V7.16144C22 6.6343 22 6.17954 21.9694 5.80498C21.9371 5.40963 21.8658 5.01641 21.673 4.63803C21.3854 4.07355 20.9265 3.6146 20.362 3.32698C19.9836 3.13419 19.5904 3.06287 19.195 3.03057C18.8205 2.99997 18.3657 2.99999 17.8386 3H12.5V5Z" fill="#0000CC"/>
<path d="M2 10.9722V15L4 15V12.1586C3.25476 11.8952 2.5771 11.4887 2 10.9722Z" fill="#0000CC"/>
<path d="M2 16C1.44772 16 1 16.4477 1 17V17.032C0.99999 17.4706 0.999981 17.8491 1.02135 18.1624C1.04386 18.4922 1.09336 18.8221 1.22836 19.1481C1.53285 19.8831 2.11687 20.4672 2.85195 20.7716C3.17788 20.9066 3.50779 20.9561 3.83762 20.9786C4.15088 21 4.52936 21 4.96801 21H19.032C19.4706 21 19.8491 21 20.1624 20.9786C20.4922 20.9561 20.8221 20.9066 21.1481 20.7716C21.8831 20.4672 22.4672 19.8831 22.7716 19.1481C22.9066 18.8221 22.9561 18.4922 22.9787 18.1624C23 17.8491 23 17.4706 23 17.032V17C23 16.4477 22.5523 16 22 16H2Z" fill="#0000CC"/>
</svg>
