<svg width="24" height="24" viewBox="0 0 24 24" fill="none" xmlns="http://www.w3.org/2000/svg">
<path fill-rule="evenodd" clip-rule="evenodd" d="M6 2C4.34315 2 3 3.34315 3 5V5.26794C2.62082 5.48685 2.32164 5.82568 2.15224 6.23463C2.0553 6.46868 2.02483 6.6944 2.01184 6.88477C1.99996 7.05886 1.99998 7.26348 2 7.47353V7.52647C1.99998 7.73652 1.99996 7.94114 2.01184 8.11523C2.02483 8.3056 2.0553 8.53132 2.15224 8.76537C2.35523 9.25542 2.74458 9.64477 3.23464 9.84776C3.46868 9.9447 3.69441 9.97518 3.88478 9.98817C4.05886 10 4.26348 10 4.47352 10H7.52648C7.73653 10 7.94115 10 8.11523 9.98817C8.3056 9.97518 8.53133 9.9447 8.76537 9.84776C9.25543 9.64477 9.64477 9.25542 9.84776 8.76537C9.94471 8.53132 9.97518 8.3056 9.98817 8.11523C10 7.94114 10 7.73652 10 7.52648V7.47352C10 7.26348 10 7.05886 9.98817 6.88477C9.97518 6.6944 9.94471 6.46868 9.84776 6.23463C9.67837 5.82568 9.37919 5.48685 9 5.26794V5C9 3.34315 7.65686 2 6 2ZM6 4C6.55229 4 7 4.44772 7 5L5 5C5 4.44772 5.44772 4 6 4Z" fill="#0000CC"/>
<path d="M11.4642 5H17.8C18.3766 5 18.7488 5.00078 19.0322 5.02393C19.3038 5.04613 19.4045 5.0838 19.454 5.109C19.6422 5.20487 19.7951 5.35785 19.891 5.54601C19.9162 5.59546 19.9539 5.69618 19.9761 5.96784C19.9992 6.25118 20 6.62345 20 7.2V15L22 15V7.16144C22 6.6343 22 6.17954 21.9694 5.80498C21.9371 5.40963 21.8658 5.01641 21.673 4.63803C21.3854 4.07355 20.9265 3.6146 20.362 3.32698C19.9836 3.13419 19.5904 3.06287 19.195 3.03057C18.8205 2.99997 18.3657 2.99999 17.8386 3H10.584C10.7622 3.40789 10.8876 3.84416 10.9514 4.30015C11.1464 4.5133 11.3186 4.7478 11.4642 5Z" fill="#0000CC"/>
<path d="M2 11.4641V15L4 15V11.9953C3.91605 11.9929 3.83097 11.9891 3.74867 11.9835C3.45647 11.9636 2.98766 11.9102 2.4693 11.6955C2.30709 11.6283 2.1504 11.5509 2 11.4641Z" fill="#0000CC"/>
<path d="M2 16C1.44772 16 1 16.4477 1 17V17.032C0.99999 17.4706 0.999981 17.8491 1.02135 18.1624C1.04386 18.4922 1.09336 18.8221 1.22836 19.1481C1.53285 19.8831 2.11687 20.4672 2.85195 20.7716C3.17788 20.9066 3.50779 20.9561 3.83762 20.9786C4.15088 21 4.52936 21 4.96801 21H19.032C19.4706 21 19.8491 21 20.1624 20.9786C20.4922 20.9561 20.8221 20.9066 21.1481 20.7716C21.8831 20.4672 22.4672 19.8831 22.7716 19.1481C22.9066 18.8221 22.9561 18.4922 22.9787 18.1624C23 17.8491 23 17.4706 23 17.032V17C23 16.4477 22.5523 16 22 16H2Z" fill="#0000CC"/>
</svg>
