<svg width="24" height="24" viewBox="0 0 24 24" fill="none" xmlns="http://www.w3.org/2000/svg">
<path d="M20.3162 2.05138C20.7246 2.1875 21 2.56963 21 3.00006V9.00004C21 13.9706 16.9706 18.0001 12 18.0001C9.85771 18.0001 7.97765 16.8773 6.91614 15.1881C5.72843 16.4425 5 18.1362 5 20.0001V21.0001C5 21.5523 4.55228 22.0001 4 22.0001C3.44772 22.0001 3 21.5523 3 21.0001V20.0001C3 17.9901 3.6589 16.134 4.7725 14.636C4.78062 14.6261 4.78859 14.6161 4.7964 14.6058C5.32553 13.9109 6.48034 12.9927 7.87714 12.2396C9.27607 11.4853 10.7275 11 11.8 11H14C14.5523 11 15 10.5523 15 10C15 9.44772 14.5523 9 14 9H11.8C10.2441 9 8.44638 9.66049 6.92799 10.4792C6.64401 10.6323 6.36316 10.7945 6.08917 10.9637C6.58012 8.14392 9.0397 6.00006 12 6.00006C14.8328 6.00007 17.5003 4.66632 19.2 2.40006C19.4583 2.05572 19.9079 1.91527 20.3162 2.05138Z" fill="#0000CC"/>
</svg>
