<svg width="24" height="24" viewBox="0 0 24 24" fill="none" xmlns="http://www.w3.org/2000/svg">
<path fill-rule="evenodd" clip-rule="evenodd" d="M6 3C6 2.44772 6.44772 2 7 2H13C13.5713 2 14.1397 2.09632 14.674 2.28599C15.2082 2.47566 15.7025 2.75675 16.1257 3.11942C16.549 3.48232 16.8946 3.92154 17.134 4.41684C17.3736 4.91284 17.5 5.45134 17.5 6C17.5 6.54866 17.3736 7.08716 17.134 7.58316C16.8946 8.07846 16.549 8.51768 16.1257 8.88058C15.7025 9.24325 15.2082 9.52434 14.674 9.71401C14.4544 9.79197 14.229 9.85417 14 9.90038V12C14 12.5523 13.5523 13 13 13C12.4477 13 12 12.5523 12 12V4H10V12C10 12.5523 9.55228 13 9 13C8.44772 13 8 12.5523 8 12V4H7C6.44772 4 6 3.55228 6 3ZM14 4.16903V7.83098C14.2994 7.72495 14.5825 7.56916 14.8241 7.36206C15.0507 7.16781 15.2208 6.9456 15.3332 6.71294C15.4453 6.48099 15.5 6.23927 15.5 6C15.5 5.76073 15.4453 5.51901 15.3332 5.28706C15.2208 5.0544 15.0507 4.83219 14.8241 4.63794C14.5825 4.43085 14.2994 4.27502 14 4.16903ZM17.2929 14.2929C17.6834 13.9024 18.3166 13.9024 18.7071 14.2929L21.7071 17.2929C22.0976 17.6834 22.0976 18.3166 21.7071 18.7071L18.7071 21.7071C18.3166 22.0976 17.6834 22.0976 17.2929 21.7071C16.9024 21.3166 16.9024 20.6834 17.2929 20.2929L18.5858 19H3C2.44772 19 2 18.5523 2 18C2 17.4477 2.44772 17 3 17H18.5858L17.2929 15.7071C16.9024 15.3166 16.9024 14.6834 17.2929 14.2929Z" fill="#0000CC"/>
</svg>
