<svg width="24" height="24" viewBox="0 0 24 24" fill="none" xmlns="http://www.w3.org/2000/svg">
<path fill-rule="evenodd" clip-rule="evenodd" d="M19.7342 2.36753C20.9069 1.97665 22.0225 3.09226 21.6316 4.2649L21.01 6.12967L21.3887 11.8109C21.751 17.244 17.2432 21.7518 11.81 21.3896L6.12881 21.0109L4.26405 21.6324C3.09141 22.0233 1.9758 20.9077 2.36668 19.7351L2.98827 17.8703L2.60952 12.1891C2.24731 6.75596 6.7551 2.24817 12.1883 2.61038L17.8695 2.98912L19.7342 2.36753ZM12.5904 6.50407C9.10615 6.18732 6.1872 9.10627 6.50394 12.5905C6.55395 13.1405 7.04036 13.5459 7.59037 13.4959C8.14039 13.4459 8.54573 12.9594 8.49573 12.4094C8.29206 10.1691 10.1689 8.29218 12.4093 8.49585C12.9593 8.54586 13.4457 8.14051 13.4957 7.5905C13.5457 7.04048 13.1404 6.55407 12.5904 6.50407Z" fill="#0000CC"/>
</svg>
