<svg width="24" height="24" viewBox="0 0 24 24" fill="none" xmlns="http://www.w3.org/2000/svg">
<path d="M12 2C12.5523 2 13 2.44772 13 3V4C13 4.55228 12.5523 5 12 5C11.4477 5 11 4.55228 11 4V3C11 2.44772 11.4477 2 12 2Z" fill="#0000CC"/>
<path d="M12 19C10.9264 19 9.90926 18.7583 9 18.3264V18.9996C9 20.6565 10.3431 21.9996 12 21.9996C13.6569 21.9996 15 20.6565 15 18.9996V18.3264C14.0907 18.7583 13.0736 19 12 19Z" fill="#0000CC"/>
<path d="M5 12C5 11.4477 4.55228 11 4 11H3C2.44772 11 2 11.4477 2 12C2 12.5523 2.44772 13 3 13H4C4.55228 13 5 12.5523 5 12Z" fill="#0000CC"/>
<path d="M4.92864 4.92864C5.31916 4.53811 5.95232 4.53811 6.34285 4.92864L7.04996 5.63574C7.44048 6.02627 7.44048 6.65943 7.04996 7.04996C6.65943 7.44048 6.02627 7.44048 5.63574 7.04996L4.92864 6.34285C4.53811 5.95232 4.53811 5.31916 4.92864 4.92864Z" fill="#0000CC"/>
<path d="M19.0714 6.34285C19.4619 5.95232 19.4619 5.31916 19.0714 4.92864C18.6808 4.53811 18.0477 4.53811 17.6572 4.92864L16.95 5.63574C16.5595 6.02627 16.5595 6.65943 16.95 7.04996C17.3406 7.44048 17.9737 7.44048 18.3643 7.04996L19.0714 6.34285Z" fill="#0000CC"/>
<path d="M19 12C19 11.4477 19.4477 11 20 11H21C21.5523 11 22 11.4477 22 12C22 12.5523 21.5523 13 21 13H20C19.4477 13 19 12.5523 19 12Z" fill="#0000CC"/>
<path d="M12 6C8.68629 6 6 8.68629 6 12C6 15.3137 8.68629 18 12 18C15.3137 18 18 15.3137 18 12C18 8.68629 15.3137 6 12 6Z" fill="#0000CC"/>
</svg>
