<svg width="24" height="24" viewBox="0 0 24 24" fill="none" xmlns="http://www.w3.org/2000/svg">
<path fill-rule="evenodd" clip-rule="evenodd" d="M5.52595 3.14935C5.82077 3.33156 6.00022 3.65342 6.00022 4V9H7.00022C7.5525 9 8.00022 9.44772 8.00022 10C8.00022 10.5523 7.5525 11 7.00022 11H3.00022C2.44793 11 2.00022 10.5523 2.00022 10C2.00022 9.44772 2.44793 9 3.00022 9H4.00022V5.61804L3.44743 5.89443C2.95345 6.14142 2.35278 5.94119 2.10579 5.44721C1.8588 4.95324 2.05903 4.35256 2.55301 4.10557L4.55301 3.10557C4.86299 2.95058 5.23113 2.96714 5.52595 3.14935ZM9.00022 5.99994C9.00025 5.44766 9.44799 4.99997 10.0003 5L21.0003 5.00066C21.5526 5.0007 22.0003 5.44844 22.0002 6.00072C22.0002 6.55301 21.5524 7.0007 21.0002 7.00066L10.0002 7C9.44787 6.99997 9.00019 6.55223 9.00022 5.99994ZM9.00022 11.9999C9.00025 11.4477 9.44799 11 10.0003 11L21.0003 11.0007C21.5526 11.0007 22.0003 11.4484 22.0002 12.0007C22.0002 12.553 21.5524 13.0007 21.0002 13.0007L10.0002 13C9.44787 13 9.00019 12.5522 9.00022 11.9999ZM5.00022 15C4.53563 15 4.14273 15.3177 4.03166 15.7493C3.894 16.2841 3.34882 16.6061 2.81397 16.4684C2.27912 16.3308 1.95713 15.7856 2.09479 15.2507C2.42777 13.957 3.60097 13 5.00022 13H5.28055C6.78258 13 8.00022 14.2176 8.00022 15.7197C8.00022 16.5039 7.66167 17.25 7.07147 17.7664L5.66167 19H7.00022C7.5525 19 8.00022 19.4477 8.00022 20C8.00022 20.5523 7.5525 21 7.00022 21H3.00022C2.58361 21 2.21065 20.7417 2.06412 20.3517C1.91758 19.9617 2.02818 19.5218 2.34171 19.2474L5.75446 16.2613C5.91063 16.1246 6.00022 15.9272 6.00022 15.7197C6.00022 15.3222 5.67801 15 5.28055 15H5.00022ZM9.00022 17.9999C9.00025 17.4477 9.44799 17 10.0003 17L21.0003 17.0007C21.5526 17.0007 22.0003 17.4484 22.0002 18.0007C22.0002 18.553 21.5524 19.0007 21.0002 19.0007L10.0002 19C9.44787 19 9.00019 18.5522 9.00022 17.9999Z" fill="#0000CC"/>
</svg>
