<svg width="24" height="24" viewBox="0 0 24 24" fill="none" xmlns="http://www.w3.org/2000/svg">
<path d="M5.59845 21.7969C5.94636 21.6605 6.37946 21.4466 6.87994 21.1994C6.88365 21.1976 6.8874 21.1957 6.89117 21.1938L11.7345 18.8021C11.8735 18.7334 11.9438 18.699 11.996 18.6766L12.0002 18.6748L12.0043 18.6766C12.0565 18.699 12.1268 18.7334 12.2658 18.8021L17.1201 21.1992C17.6205 21.4464 18.054 21.6605 18.4019 21.7969C18.7122 21.9185 19.211 22.0913 19.7236 21.9455C20.3238 21.7749 20.7994 21.3161 20.9914 20.7224C21.0119 20.659 21.0274 20.5956 21.0387 20.5327C21.0804 20.2989 21.0633 20.0707 21.0235 19.8669C20.9884 19.6865 20.9355 19.5253 20.8902 19.3961C20.7664 19.0436 20.5682 18.6031 20.3391 18.0942C18.1983 13.3368 16.0575 8.57943 13.9166 3.82205C13.7692 3.49429 13.6319 3.18905 13.5003 2.95533C12.7968 1.70529 11.1729 1.75969 10.5 2.95533C10.3685 3.18906 10.2311 3.49432 10.0837 3.82209C7.94284 8.57953 5.80213 13.3366 3.66127 18.0941C3.43219 18.6031 3.23395 19.0436 3.11016 19.3961C3.03447 19.6117 2.9379 19.9167 2.9375 20.2505C2.93731 20.4037 2.95736 20.5629 3.00894 20.7224C3.20099 21.3161 3.67654 21.7749 4.27676 21.9455C4.78937 22.0913 5.28818 21.9184 5.59845 21.7969Z" fill="#0000CC"/>
</svg>
