<svg width="24" height="24" viewBox="0 0 24 24" fill="none" xmlns="http://www.w3.org/2000/svg">
<path fill-rule="evenodd" clip-rule="evenodd" d="M19.0702 2.14961C19.4732 2.0268 20.0038 1.90416 20.5275 2.0762C21.1888 2.29343 21.7074 2.81206 21.9246 3.47332C22.0967 3.99704 21.974 4.52762 21.8512 4.93061C21.7225 5.35294 21.5096 5.87877 21.2595 6.49674L16.1475 19.1264C15.8932 19.7547 15.6777 20.2871 15.4765 20.682C15.2903 21.0476 15.0061 21.5343 14.5023 21.7849C13.8848 22.0921 13.1559 22.0765 12.552 21.7432C12.0594 21.4713 11.7964 20.9729 11.6259 20.5997C11.4418 20.1966 11.2493 19.6555 11.0221 19.0169L9.53298 14.832C9.48288 14.6912 9.45739 14.6204 9.43647 14.57L9.43482 14.566L9.43086 14.5644C9.38039 14.5434 9.30963 14.5179 9.16884 14.4678L4.98393 12.9788C4.34533 12.7516 3.80422 12.559 3.40111 12.3749C3.02789 12.2045 2.52957 11.9414 2.25762 11.4488C1.9243 10.845 1.90871 10.116 2.21593 9.49848C2.46657 8.99468 2.95319 8.71056 3.31878 8.5243C3.71365 8.32313 4.24603 8.10766 4.87432 7.85337L17.5041 2.74133C18.122 2.49117 18.6479 2.27832 19.0702 2.14961Z" fill="#0000CC"/>
</svg>
