<svg width="24" height="24" viewBox="0 0 24 24" fill="none" xmlns="http://www.w3.org/2000/svg">
<path fill-rule="evenodd" clip-rule="evenodd" d="M4 10.2C4 5.69801 7.55535 2 12 2C16.4446 2 20 5.69801 20 10.2C20 12.4965 18.9859 14.5068 17.613 16.3405C16.4671 17.871 15.0003 19.3666 13.5411 20.8543C13.2654 21.1355 12.99 21.4163 12.717 21.6971C12.5287 21.8907 12.2701 22 12 22C11.7299 22 11.4713 21.8907 11.283 21.6971C11.01 21.4163 10.7346 21.1355 10.4589 20.8543C8.99974 19.3666 7.53292 17.871 6.38702 16.3405C5.01406 14.5068 4 12.4965 4 10.2ZM12 7C12.5523 7 13 7.44772 13 8V12C13 12.5523 12.5523 13 12 13C11.4477 13 11 12.5523 11 12V8C11 7.44772 11.4477 7 12 7ZM13 15C13 15.5523 12.5523 16 12 16C11.4477 16 11 15.5523 11 15C11 14.4477 11.4477 14 12 14C12.5523 14 13 14.4477 13 15Z" fill="#0000CC"/>
</svg>
