<svg width="24" height="24" viewBox="0 0 24 24" fill="none" xmlns="http://www.w3.org/2000/svg">
<path fill-rule="evenodd" clip-rule="evenodd" d="M12 2C8.68629 2 6 4.68629 6 8V9.15032C5.71739 9.21225 5.44614 9.30243 5.18404 9.43597C4.43139 9.81947 3.81947 10.4314 3.43598 11.184C3.18868 11.6694 3.09012 12.1861 3.04419 12.7482C2.99998 13.2894 2.99999 13.9537 3 14.7587V16.2413C2.99999 17.0463 2.99998 17.7106 3.04419 18.2518C3.09012 18.8139 3.18868 19.3306 3.43598 19.816C3.81947 20.5686 4.43139 21.1805 5.18404 21.564C5.66937 21.8113 6.18608 21.9099 6.74818 21.9558C7.28936 22 7.95372 22 8.75868 22H15.2413C16.0463 22 16.7106 22 17.2518 21.9558C17.8139 21.9099 18.3306 21.8113 18.816 21.564C19.5686 21.1805 20.1805 20.5686 20.564 19.816C20.8113 19.3306 20.9099 18.8139 20.9558 18.2518C21 17.7106 21 17.0463 21 16.2413V14.7587C21 13.9537 21 13.2894 20.9558 12.7482C20.9099 12.1861 20.8113 11.6694 20.564 11.184C20.1805 10.4314 19.5686 9.81947 18.816 9.43597C18.5539 9.30243 18.2826 9.21225 18 9.15032V8C18 4.68629 15.3137 2 12 2ZM8.7587 9C8.4904 9 8.23771 8.99999 8 9.00163V8C8 5.79086 9.79086 4 12 4C14.2091 4 16 5.79086 16 8V9.00163C15.7623 8.99999 15.5096 9 15.2413 9H8.7587ZM13 14.5C13 13.9477 12.5523 13.5 12 13.5C11.4477 13.5 11 13.9477 11 14.5V16.5C11 17.0523 11.4477 17.5 12 17.5C12.5523 17.5 13 17.0523 13 16.5V14.5Z" fill="#0000CC"/>
</svg>
