<svg width="24" height="24" viewBox="0 0 24 24" fill="none" xmlns="http://www.w3.org/2000/svg">
<path d="M15.2413 9H13.214L20.9994 16.7854C21 16.6117 21 16.4304 21 16.2413V14.7587C21 13.9537 21 13.2894 20.9558 12.7482C20.9099 12.1861 20.8113 11.6694 20.564 11.184C20.1805 10.4314 19.5686 9.81947 18.816 9.43597C18.5539 9.30243 18.2826 9.21225 18 9.15032V8C18 4.68629 15.3137 2 12 2C10.3976 2 8.94188 2.62817 7.86571 3.65169L9.2806 5.06658C9.99426 4.40467 10.9499 4 12 4C14.2091 4 16 5.79086 16 8V9.00163C15.7623 8.99999 15.5096 9 15.2413 9Z" fill="#0000CC"/>
<path d="M19.6137 21.0279L20.2929 21.7071C20.6834 22.0976 21.3166 22.0976 21.7071 21.7071C22.0976 21.3166 22.0976 20.6834 21.7071 20.2929L3.70711 2.29289C3.31658 1.90237 2.68342 1.90237 2.29289 2.29289C1.90237 2.68342 1.90237 3.31658 2.29289 3.70711L6.02579 7.44C6.00872 7.62438 6 7.81117 6 8V9.15032C5.71739 9.21225 5.44614 9.30243 5.18404 9.43597C4.43139 9.81947 3.81947 10.4314 3.43598 11.184C3.18868 11.6694 3.09012 12.1861 3.04419 12.7482C2.99998 13.2894 2.99999 13.9537 3 14.7587V16.2413C2.99999 17.0463 2.99998 17.7106 3.04419 18.2518C3.09012 18.8139 3.18868 19.3306 3.43598 19.816C3.81947 20.5686 4.43139 21.1805 5.18404 21.564C5.66937 21.8113 6.18608 21.9099 6.74818 21.9558C7.28936 22 7.95372 22 8.75868 22H15.2413C16.0463 22 16.7106 22 17.2518 21.9558C17.8139 21.9099 18.3306 21.8113 18.816 21.564C19.1042 21.4172 19.3717 21.2368 19.6137 21.0279Z" fill="#0000CC"/>
</svg>
