<svg width="24" height="24" viewBox="0 0 24 24" fill="none" xmlns="http://www.w3.org/2000/svg">
<path d="M12.2079 15.367L12.3888 16H11.6117L11.7926 15.367C11.8725 15.0871 11.9404 14.8501 12.0003 14.6487C12.0601 14.8501 12.128 15.0871 12.2079 15.367Z" fill="#0000CC"/>
<path fill-rule="evenodd" clip-rule="evenodd" d="M12 2.04492C8.68629 2.04492 6 4.73121 6 8.04492V9.19526C5.71683 9.25736 5.44553 9.34766 5.18404 9.4809C4.43139 9.86439 3.81947 10.4763 3.43598 11.229C3.18868 11.7143 3.09012 12.231 3.04419 12.7931C2.99998 13.3343 2.99999 13.9986 3 14.8036V16.2862C2.99999 17.0912 2.99998 17.7556 3.04419 18.2967C3.09012 18.8588 3.18868 19.3755 3.43598 19.8609C3.81947 20.6135 4.43139 21.2255 5.18404 21.6089C5.66937 21.8562 6.18608 21.9548 6.74818 22.0007C7.28937 22.0449 7.95372 22.0449 8.75868 22.0449H15.2413C16.0463 22.0449 16.7106 22.0449 17.2518 22.0007C17.8139 21.9548 18.3306 21.8562 18.816 21.6089C19.5686 21.2255 20.1805 20.6135 20.564 19.8609C20.8113 19.3755 20.9099 18.8588 20.9558 18.2967C21 17.7556 21 17.0912 21 16.2862V14.8036C21 13.9986 21 13.3343 20.9558 12.7931C20.9099 12.231 20.8113 11.7143 20.564 11.229C20.1805 10.4763 19.5686 9.86439 18.816 9.4809C18.5545 9.34766 18.2832 9.25736 18 9.19526V8.04492C18 4.73121 15.3137 2.04492 12 2.04492ZM8.8 9C8.51072 9 8.24418 9.00646 8 9.01601V8.04492C8 5.83578 9.79086 4.04492 12 4.04492C14.2091 4.04492 16 5.83578 16 8.04492V9.01601C15.7558 9.00646 15.4893 9 15.2 9H8.8ZM13.4183 12.7882C13.3128 12.6153 13.1427 12.3914 12.8702 12.2365C12.3308 11.9298 11.6697 11.9298 11.1303 12.2365C10.8578 12.3914 10.6877 12.6153 10.5822 12.7882C10.4744 12.9649 10.3904 13.1615 10.3205 13.3491C10.1857 13.7109 10.0458 14.2004 9.88145 14.7758L9.03873 17.7253C8.88701 18.2563 9.1945 18.8098 9.72554 18.9616C10.2566 19.1133 10.8101 18.8058 10.9618 18.2747L11.0403 18H12.9602L13.0387 18.2747C13.1905 18.8058 13.7439 19.1133 14.275 18.9616C14.806 18.8098 15.1135 18.2563 14.9618 17.7253L14.1191 14.7758C13.9547 14.2004 13.8148 13.7109 13.68 13.3491C13.6101 13.1615 13.5261 12.9649 13.4183 12.7882Z" fill="#0000CC"/>
</svg>
