<svg width="24" height="24" viewBox="0 0 24 24" fill="none" xmlns="http://www.w3.org/2000/svg">
<path fill-rule="evenodd" clip-rule="evenodd" d="M13 2C13.3874 2 13.74 2.22379 13.9049 2.57437L15.0484 5.00554C16.899 5.63772 18.3623 7.10099 18.9945 8.95157L21.4256 10.0951C21.7762 10.26 22 10.6126 22 11C22 11.3874 21.7762 11.74 21.4256 11.9049L18.9945 13.0484C18.3623 14.899 16.899 16.3623 15.0484 16.9945L13.9049 19.4256C13.74 19.7762 13.3874 20 13 20C12.6126 20 12.26 19.7762 12.0951 19.4256L10.9516 16.9945C10.3499 16.7889 9.78924 16.4956 9.28473 16.1296L3.70711 21.7072C3.31658 22.0977 2.68342 22.0977 2.29289 21.7072C1.90237 21.3167 1.90237 20.6835 2.29289 20.293L7.87049 14.7154C7.50449 14.2109 7.21109 13.6501 7.00554 13.0484L4.57437 11.9049C4.22379 11.74 4 11.3874 4 11C4 10.6126 4.22379 10.26 4.57437 10.0951L7.00554 8.95157C7.63772 7.10099 9.10099 5.63772 10.9516 5.00554L12.0951 2.57437C12.26 2.22379 12.6126 2 13 2ZM13 9C11.8954 9 11 9.89543 11 11C11 12.1046 11.8954 13 13 13C14.1046 13 15 12.1046 15 11C15 9.89543 14.1046 9 13 9Z" fill="#0000CC"/>
</svg>
