<svg width="24" height="24" viewBox="0 0 24 24" fill="none" xmlns="http://www.w3.org/2000/svg">
<path d="M6.16146 4H17.8385C18.3657 3.99998 18.8205 3.99997 19.195 4.03057C19.5904 4.06287 19.9836 4.13419 20.362 4.32698C20.9265 4.6146 21.3854 5.07355 21.673 5.63803C21.7688 5.82599 21.8346 6.0176 21.8805 6.21132L14.9955 10.8013C13.6471 11.7003 13.1776 11.9955 12.6992 12.1101C12.2397 12.2202 11.7606 12.2202 11.301 12.1101C10.8226 11.9955 10.3531 11.7003 9.00473 10.8013L2.11953 6.2112C2.16545 6.01752 2.23124 5.82595 2.32698 5.63803C2.6146 5.07355 3.07355 4.6146 3.63803 4.32698C4.01641 4.13419 4.40963 4.06287 4.80498 4.03057C5.17953 3.99997 5.63435 3.99998 6.16146 4Z" fill="#0000CC"/>
<path d="M18.2309 11.0481L22 8.53536V13.3369C21.1372 12.1117 19.7868 11.2547 18.2309 11.0481Z" fill="#0000CC"/>
<path d="M10.8349 14.055C11.3873 14.1874 11.9566 14.2243 12.5185 14.1658C12.1859 14.8743 12 15.6655 12 16.5C12 17.8296 12.4718 19.0491 13.2572 20H6.16129C5.63424 20 5.17949 20 4.80498 19.9694C4.40963 19.9371 4.01641 19.8658 3.63803 19.673C3.07355 19.3854 2.6146 18.9265 2.32698 18.362C2.13419 17.9836 2.06287 17.5904 2.03057 17.195C1.99997 16.8205 1.99999 16.3657 2 15.8386V8.53522L8.04872 12.5678C9.18245 13.3243 9.96521 13.8466 10.8349 14.055Z" fill="#0000CC"/>
<path fill-rule="evenodd" clip-rule="evenodd" d="M14 16.5C14 14.567 15.567 13 17.5 13C19.433 13 21 14.567 21 16.5C21 17.1013 20.8483 17.6673 20.5812 18.1616L21.7088 19.2946C22.0984 19.686 22.0969 20.3192 21.7054 20.7088C21.314 21.0984 20.6808 21.0969 20.2912 20.7054L19.1686 19.5774C18.6726 19.8469 18.1042 20 17.5 20C15.567 20 14 18.433 14 16.5ZM17.5 15C16.6716 15 16 15.6716 16 16.5C16 17.3284 16.6716 18 17.5 18C18.3284 18 19 17.3284 19 16.5C19 15.6716 18.3284 15 17.5 15Z" fill="#0000CC"/>
</svg>
