<svg width="24" height="24" viewBox="0 0 24 24" fill="none" xmlns="http://www.w3.org/2000/svg">
<path fill-rule="evenodd" clip-rule="evenodd" d="M11 3C11 2.44772 11.4477 2 12 2H15C15.5523 2 16 2.44772 16 3C16 3.55228 15.5523 4 15 4H13V5H17C17.0543 5 17.1077 5.00433 17.1597 5.01268C17.272 5.00428 17.3855 5 17.5 5C19.9853 5 22 7.01472 22 9.5V18C22 18.5523 21.5523 19 21 19H13V21C13 21.5523 12.5523 22 12 22C11.4477 22 11 21.5523 11 21V19H3C2.44772 19 2 18.5523 2 18L2 10.7587C1.99999 9.95373 1.99998 9.28937 2.04419 8.74817C2.09012 8.18608 2.18868 7.66937 2.43597 7.18404C2.81947 6.43139 3.43139 5.81947 4.18404 5.43597C4.66937 5.18868 5.18608 5.09012 5.74818 5.04419C6.28937 4.99998 6.95373 4.99999 7.7587 5L11 5V3ZM15 17H20V9.5C20 8.11929 18.8807 7 17.5 7C16.1193 7 15 8.11929 15 9.5V17ZM6 12C6 11.4477 6.44772 11 7 11H10C10.5523 11 11 11.4477 11 12C11 12.5523 10.5523 13 10 13H7C6.44772 13 6 12.5523 6 12Z" fill="#0000CC"/>
</svg>
