<svg width="24" height="24" viewBox="0 0 24 24" fill="none" xmlns="http://www.w3.org/2000/svg">
<path fill-rule="evenodd" clip-rule="evenodd" d="M11.3327 2.43697C11.7719 2.33677 12.2281 2.33677 12.6673 2.43697C13.1688 2.55139 13.617 2.83369 14.1267 3.15476L20.128 6.92363C20.5814 7.20762 20.9806 7.45767 21.2809 7.80919C21.4262 7.97921 21.5516 8.1645 21.6552 8.36143L13.2199 13.9846C12.513 14.4559 12.3643 14.5373 12.2326 14.5688C12.0794 14.6055 11.9197 14.6055 11.7665 14.5688C11.6349 14.5373 11.4861 14.4559 10.7792 13.9846L2.34481 8.36151C2.44839 8.16455 2.57382 7.97924 2.71911 7.80919C3.01945 7.45764 3.41862 7.20763 3.87207 6.92362L9.87327 3.15476C10.383 2.83369 10.8312 2.55139 11.3327 2.43697ZM12 5.5C11.4477 5.5 11 5.94772 11 6.5V8.5C11 9.05229 11.4477 9.5 12 9.5C12.5523 9.5 13 9.05229 13 8.5V6.5C13 5.94772 12.5523 5.5 12 5.5ZM12 12.5C12.5523 12.5 13 12.0523 13 11.5C13 10.9477 12.5523 10.5 12 10.5C11.4477 10.5 11 10.9477 11 11.5C11 12.0523 11.4477 12.5 12 12.5Z" fill="#0000CC"/>
<path d="M14.2178 15.7233L22 10.5352V16.8387C22 17.3658 22 17.8206 21.9694 18.1951C21.9371 18.5905 21.8658 18.9837 21.673 19.3621C21.3854 19.9266 20.9265 20.3855 20.362 20.6731C19.9836 20.8659 19.5904 20.9373 19.195 20.9696C18.8205 21.0002 18.3657 21.0001 17.8386 21.0001H6.16144C5.6343 21.0001 5.17954 21.0002 4.80498 20.9696C4.40963 20.9373 4.01641 20.8659 3.63803 20.6731C3.07355 20.3855 2.6146 19.9266 2.32698 19.3621C2.13419 18.9837 2.06287 18.5905 2.03057 18.1951C1.99997 17.8206 1.99998 17.3658 2 16.8387V10.5354L9.78139 15.7233C10.3105 16.0771 10.7753 16.3879 11.3005 16.5137C11.76 16.6239 12.2391 16.6239 12.6987 16.5137C13.2238 16.3879 13.6887 16.0771 14.2178 15.7233Z" fill="#0000CC"/>
</svg>
