<svg width="24" height="24" viewBox="0 0 24 24" fill="none" xmlns="http://www.w3.org/2000/svg">
<path d="M21.9903 7.186C21.9858 7.05107 21.9792 6.92397 21.9694 6.80497C21.9371 6.40963 21.8658 6.01641 21.673 5.63803C21.3854 5.07355 20.9265 4.6146 20.362 4.32698C19.9836 4.13419 19.5904 4.06287 19.195 4.03057C18.8205 3.99997 18.3657 3.99998 17.8386 4H6.16146C5.63433 3.99998 5.17954 3.99997 4.80497 4.03057C4.40963 4.06287 4.01641 4.13419 3.63803 4.32698C3.07354 4.6146 2.6146 5.07354 2.32698 5.63803C2.13419 6.01641 2.06287 6.40963 2.03057 6.80497C2.02085 6.92397 2.01422 7.05107 2.00969 7.18601C2.50828 7.82144 3.1887 8.42029 4.04472 8.9553C6.03372 10.1984 8.84373 11 12 11C15.1563 11 17.9663 10.1984 19.9553 8.9553C20.8113 8.42029 21.4917 7.82144 21.9903 7.186Z" fill="#0000CC"/>
<path d="M22 9.96212C21.6888 10.2061 21.3596 10.4361 21.0153 10.6513C18.6611 12.1226 15.4711 13 12 13C8.52886 13 5.33887 12.1226 2.98472 10.6513C2.64042 10.4361 2.31117 10.2061 2 9.96212V15.8385C1.99998 16.3657 1.99997 16.8205 2.03057 17.195C2.06287 17.5904 2.13419 17.9836 2.32698 18.362C2.6146 18.9265 3.07354 19.3854 3.63803 19.673C4.01641 19.8658 4.40963 19.9371 4.80497 19.9694C5.17952 20 5.63425 20 6.16136 20H17.8385C18.3656 20 18.8205 20 19.195 19.9694C19.5904 19.9371 19.9836 19.8658 20.362 19.673C20.9265 19.3854 21.3854 18.9265 21.673 18.362C21.8658 17.9836 21.9371 17.5904 21.9694 17.195C22 16.8205 22 16.3657 22 15.8386V9.96212Z" fill="#0000CC"/>
</svg>
