<svg width="24" height="24" viewBox="0 0 24 24" fill="none" xmlns="http://www.w3.org/2000/svg">
<path d="M17.8385 4H6.16146C5.63433 3.99998 5.17954 3.99997 4.80497 4.03057C4.40963 4.06287 4.01641 4.13419 3.63803 4.32698C3.09191 4.60525 2.64457 5.04387 2.35559 5.58329L3.80859 7.37332L3.8142 7.3802L3.84244 7.41423C3.86868 7.44558 3.90958 7.49376 3.96438 7.55639C4.07404 7.68173 4.23895 7.8644 4.45305 8.08531C4.88236 8.52824 5.50364 9.11879 6.26862 9.70758C7.82284 10.9038 9.84961 12 12.0005 12C14.1515 12 16.1783 10.9038 17.7325 9.70758C18.4975 9.11879 19.1187 8.52824 19.548 8.08531C19.7621 7.8644 19.927 7.68173 20.0367 7.55639C20.0915 7.49376 20.1324 7.44558 20.1586 7.41423L20.1869 7.3802L20.1925 7.37332L20.1933 7.3724L20.1952 7.37L21.6446 5.58355C21.3556 5.04401 20.9082 4.60529 20.362 4.32698C19.9836 4.13419 19.5904 4.06287 19.195 4.03057C18.8205 3.99997 18.3657 3.99998 17.8385 4Z" fill="#0000CC"/>
<path d="M22 8.31985L21.7506 8.62726L21.7488 8.62949L21.7451 8.63406L21.7333 8.64855C21.7234 8.66055 21.7097 8.67718 21.6921 8.69814C21.6571 8.74004 21.6067 8.79927 21.5419 8.87336C21.4123 9.02146 21.2244 9.22941 20.9842 9.47726C20.5048 9.97183 19.8114 10.6313 18.9523 11.2925C17.2584 12.5962 14.7996 14 12.0005 14C9.20148 14 6.74265 12.5962 5.04875 11.2925C4.18968 10.6313 3.49628 9.97183 3.01693 9.47726C2.7767 9.22941 2.58877 9.02146 2.45919 8.87336C2.39437 8.79927 2.34403 8.74004 2.30895 8.69814C2.29141 8.67718 2.27767 8.66055 2.26783 8.64855L2.256 8.63406L2.25292 8.63026L2 8.31868V15.8385C1.99998 16.3657 1.99997 16.8205 2.03057 17.195C2.06287 17.5904 2.13419 17.9836 2.32698 18.362C2.6146 18.9265 3.07354 19.3854 3.63803 19.673C4.01641 19.8658 4.40963 19.9371 4.80497 19.9694C5.17952 20 5.63425 20 6.16136 20H17.8385C18.3656 20 18.8205 20 19.195 19.9694C19.5904 19.9371 19.9836 19.8658 20.362 19.673C20.9265 19.3854 21.3854 18.9265 21.673 18.362C21.8658 17.9836 21.9371 17.5904 21.9694 17.195C22 16.8205 22 16.3657 22 15.8386V8.31985Z" fill="#0000CC"/>
</svg>
