<svg width="24" height="24" viewBox="0 0 24 24" fill="none" xmlns="http://www.w3.org/2000/svg">
<path d="M12.6673 2.43697C12.2281 2.33677 11.7719 2.33677 11.3327 2.43697C10.8312 2.55139 10.383 2.83369 9.87327 3.15476L3.87207 6.92362C3.41862 7.20763 3.01945 7.45764 2.71911 7.80919C2.57381 7.97925 2.44837 8.16458 2.34478 8.36156L4.99993 10.1317V10.0001C4.99993 9.44785 5.44765 9.00014 5.99993 9.00014H17.9999C18.5522 9.00014 18.9999 9.44785 18.9999 10.0001V10.1315L21.6552 8.36143C21.5516 8.1645 21.4262 7.97921 21.2809 7.80919C20.9806 7.45765 20.5814 7.20764 20.128 6.92363L14.1267 3.15476C13.617 2.83369 13.1688 2.55139 12.6673 2.43697Z" fill="#0000CC"/>
<path d="M22 10.5352L18.5715 12.8208C18.5599 12.8289 18.5481 12.8368 18.5361 12.8444L14.2178 15.7233C13.6887 16.0771 13.2238 16.388 12.6987 16.5138C12.2391 16.624 11.76 16.624 11.3005 16.5138C10.7753 16.388 10.3105 16.0771 9.78139 15.7234L2 10.5354V16.8387C1.99998 17.3658 1.99997 17.8206 2.03057 18.1951C2.06287 18.5905 2.13419 18.9837 2.32698 19.3621C2.6146 19.9266 3.07354 20.3855 3.63803 20.6731C4.01641 20.8659 4.40963 20.9373 4.80497 20.9696C5.17954 21.0002 5.6343 21.0001 6.16144 21.0001H17.8386C18.3657 21.0001 18.8205 21.0002 19.195 20.9696C19.5904 20.9373 19.9836 20.8659 20.362 20.6731C20.9265 20.3855 21.3854 19.9266 21.673 19.3621C21.8658 18.9837 21.9371 18.5905 21.9694 18.1951C22 17.8206 22 17.3658 22 16.8387V10.5352Z" fill="#0000CC"/>
<path d="M6.99993 11.0001H16.9999V11.4648L13.2199 13.9847C12.513 14.456 12.3643 14.5373 12.2326 14.5689C12.0794 14.6056 11.9197 14.6056 11.7665 14.5689C11.6348 14.5373 11.4861 14.456 10.7792 13.9847L6.99993 11.4651V11.0001Z" fill="#0000CC"/>
</svg>
