<svg width="24" height="24" viewBox="0 0 24 24" fill="none" xmlns="http://www.w3.org/2000/svg">
<path d="M17.8385 4H6.16146C5.63435 3.99998 5.17953 3.99997 4.80498 4.03057C4.40963 4.06287 4.01641 4.13419 3.63803 4.32698C3.07355 4.6146 2.6146 5.07355 2.32698 5.63803C2.23124 5.82595 2.16545 6.01752 2.11953 6.2112L9.00473 10.8013C10.3531 11.7003 10.8226 11.9955 11.301 12.1101C11.7606 12.2202 12.2397 12.2202 12.6992 12.1101C13.1776 11.9955 13.6471 11.7003 14.9955 10.8013L21.8805 6.21132C21.8346 6.0176 21.7688 5.82599 21.673 5.63803C21.3854 5.07355 20.9265 4.6146 20.362 4.32698C19.9836 4.13419 19.5904 4.06287 19.195 4.03057C18.8205 3.99997 18.3657 3.99998 17.8385 4Z" fill="#0000CC"/>
<path d="M22 8.53536L15.9515 12.5678C14.8178 13.3243 14.035 13.8466 13.1653 14.055C12.3993 14.2386 11.6009 14.2386 10.8349 14.055C9.96521 13.8466 9.18245 13.3243 8.04872 12.5678L2 8.53522V15.8386C1.99999 16.3657 1.99997 16.8205 2.03057 17.195C2.06287 17.5904 2.13419 17.9836 2.32698 18.362C2.6146 18.9265 3.07355 19.3854 3.63803 19.673C4.01641 19.8658 4.40963 19.9371 4.80498 19.9694C5.17949 20 5.63424 20 6.16129 20H16V19.8292C15.5905 19.6848 15.2062 19.4488 14.8787 19.1213C13.7071 17.9497 13.7071 16.0503 14.8787 14.8787L16.8787 12.8787C18.0503 11.7071 19.9497 11.7071 21.1213 12.8787L22 13.7574V8.53536Z" fill="#0000CC"/>
<path d="M18.296 14.2946C18.6867 13.9048 19.3192 13.9051 19.7094 14.2953L21.7071 16.293C22.0976 16.6835 22.0976 17.3167 21.7071 17.7072C21.3166 18.0977 20.6834 18.0977 20.2929 17.7072L20.0023 17.4167V21.0001C20.0023 21.5524 19.5546 22.0001 19.0023 22.0001C18.4501 22.0001 18.0023 21.5524 18.0023 21.0001V17.4129L17.7063 17.7082C17.3154 18.0983 16.6822 18.0976 16.2921 17.7067C15.902 17.3157 15.9027 16.6826 16.2937 16.2925L18.296 14.2946Z" fill="#0000CC"/>
</svg>
