<svg width="24" height="24" viewBox="0 0 24 24" fill="none" xmlns="http://www.w3.org/2000/svg">
<path d="M12.6673 2.43697C12.2281 2.33677 11.7719 2.33677 11.3327 2.43697C10.8312 2.55139 10.383 2.83369 9.87327 3.15476L3.87207 6.92362C3.41862 7.20763 3.01945 7.45764 2.71911 7.80919C2.57382 7.97924 2.44839 8.16455 2.34481 8.36151L10.7792 13.9846C11.4861 14.4559 11.6348 14.5373 11.7665 14.5688C11.9197 14.6055 12.0794 14.6055 12.2326 14.5688C12.3643 14.5373 12.513 14.4559 13.2199 13.9846L21.6552 8.36143C21.5516 8.1645 21.4262 7.97921 21.2809 7.80919C20.9806 7.45765 20.5814 7.20764 20.128 6.92363L14.1267 3.15476C13.617 2.83369 13.1688 2.55139 12.6673 2.43697Z" fill="#0000CC"/>
<path d="M22 10.5352L14.2178 15.7233C13.6887 16.0771 13.2238 16.3879 12.6987 16.5137C12.2391 16.6239 11.76 16.6239 11.3005 16.5137C10.7753 16.3879 10.3105 16.0771 9.78139 15.7233L2 10.5354V16.8387C1.99998 17.3658 1.99997 17.8206 2.03057 18.1951C2.06287 18.5905 2.13419 18.9837 2.32698 19.3621C2.6146 19.9266 3.07354 20.3855 3.63803 20.6731C4.01641 20.8659 4.40963 20.9373 4.80497 20.9696C5.17954 21.0002 5.6343 21.0001 6.16144 21.0001H17.8386C18.3657 21.0001 18.8205 21.0002 19.195 20.9696C19.5904 20.9373 19.9836 20.8659 20.362 20.6731C20.9265 20.3855 21.3854 19.9266 21.673 19.3621C21.8658 18.9837 21.9371 18.5905 21.9694 18.1951C22 17.8206 22 17.3658 22 16.8387V10.5352Z" fill="#0000CC"/>
</svg>
