<svg width="24" height="24" viewBox="0 0 24 24" fill="none" xmlns="http://www.w3.org/2000/svg">
<path fill-rule="evenodd" clip-rule="evenodd" d="M11.3327 2.43697C11.7719 2.33677 12.2281 2.33677 12.6673 2.43697C13.1688 2.55139 13.617 2.83369 14.1267 3.15476L20.128 6.92363C20.5814 7.20762 20.9806 7.45767 21.2809 7.80919C21.4262 7.97921 21.5516 8.1645 21.6552 8.36143L13.2199 13.9846C12.513 14.4559 12.3643 14.5373 12.2326 14.5688C12.0794 14.6055 11.9197 14.6055 11.7665 14.5688C11.6349 14.5373 11.4861 14.4559 10.7792 13.9846L2.34481 8.36151C2.44839 8.16455 2.57382 7.97924 2.71911 7.80919C3.01945 7.45764 3.41862 7.20763 3.87207 6.92362L9.87327 3.15476C10.383 2.83369 10.8312 2.55139 11.3327 2.43697ZM9.79289 7.29289C10.1834 6.90237 10.8166 6.90237 11.2071 7.29289L12 8.08579L12.7929 7.29289C13.1834 6.90237 13.8166 6.90237 14.2071 7.29289C14.5976 7.68342 14.5976 8.31658 14.2071 8.70711L13.4142 9.5L14.2071 10.2929C14.5976 10.6834 14.5976 11.3166 14.2071 11.7071C13.8166 12.0976 13.1834 12.0976 12.7929 11.7071L12 10.9142L11.2071 11.7071C10.8166 12.0976 10.1834 12.0976 9.79289 11.7071C9.40237 11.3166 9.40237 10.6834 9.79289 10.2929L10.5858 9.5L9.79289 8.70711C9.40237 8.31658 9.40237 7.68342 9.79289 7.29289Z" fill="#0000CC"/>
<path d="M14.2178 15.7233L22 10.5352V16.8387C22 17.3658 22 17.8206 21.9694 18.1951C21.9371 18.5905 21.8658 18.9837 21.673 19.3621C21.3854 19.9266 20.9265 20.3855 20.362 20.6731C19.9836 20.8659 19.5904 20.9373 19.195 20.9696C18.8205 21.0002 18.3657 21.0001 17.8386 21.0001H6.16144C5.6343 21.0001 5.17954 21.0002 4.80498 20.9696C4.40963 20.9373 4.01641 20.8659 3.63803 20.6731C3.07355 20.3855 2.6146 19.9266 2.32698 19.3621C2.13419 18.9837 2.06287 18.5905 2.03057 18.1951C1.99997 17.8206 1.99998 17.3658 2 16.8387V10.5354L9.78139 15.7233C10.3105 16.0771 10.7753 16.3879 11.3005 16.5137C11.76 16.6239 12.2391 16.6239 12.6987 16.5137C13.2238 16.3879 13.6887 16.0771 14.2178 15.7233Z" fill="#0000CC"/>
</svg>
