<svg width="24" height="24" viewBox="0 0 24 24" fill="none" xmlns="http://www.w3.org/2000/svg">
<path d="M6.16146 4H17.8385C18.3657 3.99998 18.8205 3.99997 19.195 4.03057C19.5904 4.06287 19.9836 4.13419 20.362 4.32698C20.9265 4.6146 21.3854 5.07355 21.673 5.63803C21.7688 5.82599 21.8346 6.0176 21.8805 6.21132L14.9955 10.8013C13.6471 11.7003 13.1776 11.9955 12.6992 12.1101C12.2397 12.2202 11.7606 12.2202 11.301 12.1101C10.8226 11.9955 10.3531 11.7003 9.00473 10.8013L2.11953 6.2112C2.16545 6.01752 2.23124 5.82595 2.32698 5.63803C2.6146 5.07355 3.07355 4.6146 3.63803 4.32698C4.01641 4.13419 4.40963 4.06287 4.80498 4.03057C5.17953 3.99997 5.63435 3.99998 6.16146 4Z" fill="#0000CC"/>
<path d="M18.2906 11.0083L22 8.53536V12.9995C21.1422 11.8578 19.8069 11.0952 18.2906 11.0083Z" fill="#0000CC"/>
<path d="M13.1653 14.055C13.252 14.0343 13.3379 14.0104 13.4234 13.9834C13.2413 14.3961 13.1133 14.838 13.0486 15.3002C12.7374 15.6404 12.4844 16.035 12.3045 16.4693C12.0901 16.987 12.0365 17.4553 12.0165 17.7486C11.9999 17.9924 11.9999 18.2568 12 18.4457V18.5543L12.0165 19.2514C12.0339 19.5064 12.0752 19.7569 12.1386 20H6.16129C5.63424 20 5.17949 20 4.80498 19.9694C4.40963 19.9371 4.01641 19.8658 3.63803 19.673C3.07355 19.3854 2.6146 18.9265 2.32698 18.362C2.13419 17.9836 2.06287 17.5904 2.03057 17.195C1.99997 16.8205 1.99999 16.3657 2 15.8386V8.53522L8.04872 12.5678C9.18245 13.3243 9.96521 13.8466 10.8349 14.055C11.6009 14.2386 12.3993 14.2386 13.1653 14.055Z" fill="#0000CC"/>
<path fill-rule="evenodd" clip-rule="evenodd" d="M15 16C15 14.3431 16.3431 13 18 13C19.6569 13 21 14.3431 21 16V16.2679C21.3792 16.4869 21.6784 16.8257 21.8478 17.2346C21.9447 17.4687 21.9752 17.6944 21.9882 17.8848C22 18.0589 22 18.2635 22 18.4735V18.5265C22 18.7365 22 18.9411 21.9882 19.1152C21.9752 19.3056 21.9447 19.5313 21.8478 19.7654C21.6448 20.2554 21.2554 20.6448 20.7654 20.8478C20.5313 20.9447 20.3056 20.9752 20.1152 20.9882C19.9411 21 19.7365 21 19.5265 21H16.4735C16.2635 21 16.0589 21 15.8848 20.9882C15.6944 20.9752 15.4687 20.9447 15.2346 20.8478C14.7446 20.6448 14.3552 20.2554 14.1522 19.7654C14.0553 19.5313 14.0248 19.3056 14.0118 19.1152C14 18.9412 14 18.7365 14 18.5265V18.4735C14 18.2635 14 18.0589 14.0118 17.8848C14.0248 17.6944 14.0553 17.4687 14.1522 17.2346C14.3216 16.8257 14.6208 16.4869 15 16.2679V16ZM19 16C19 15.4477 18.5523 15 18 15C17.4477 15 17 15.4477 17 16L19 16Z" fill="#0000CC"/>
</svg>
