<svg width="24" height="24" viewBox="0 0 24 24" fill="none" xmlns="http://www.w3.org/2000/svg">
<path d="M6.16146 4H17.8385C18.3657 3.99998 18.8205 3.99997 19.195 4.03057C19.5904 4.06287 19.9836 4.13419 20.362 4.32698C20.9265 4.6146 21.3854 5.07355 21.673 5.63803C21.7688 5.82599 21.8346 6.0176 21.8805 6.21132L14.9955 10.8013C13.6471 11.7003 13.1776 11.9955 12.6992 12.1101C12.2397 12.2202 11.7606 12.2202 11.301 12.1101C10.8226 11.9955 10.3531 11.7003 9.00473 10.8013L2.11953 6.2112C2.16545 6.01752 2.23124 5.82595 2.32698 5.63803C2.6146 5.07355 3.07355 4.6146 3.63803 4.32698C4.01641 4.13419 4.40963 4.06287 4.80498 4.03057C5.17953 3.99997 5.63435 3.99998 6.16146 4Z" fill="#0000CC"/>
<path d="M17.403 11.6L22 8.53536L22 11C21.2632 11 20.5884 11.2656 20.0662 11.7064C19.5671 11.5718 19.0421 11.5 18.5 11.5C18.1253 11.5 17.7587 11.5343 17.403 11.6Z" fill="#0000CC"/>
<path d="M13.1653 14.055C13.3512 14.0105 13.5331 13.9516 13.7153 13.8792C12.9525 14.8855 12.5 16.1399 12.5 17.5C12.5 18.3922 12.6947 19.2389 13.044 20L6.16129 20C5.63424 20 5.17949 20 4.80498 19.9694C4.40963 19.9371 4.01641 19.8658 3.63803 19.673C3.07355 19.3854 2.6146 18.9265 2.32698 18.362C2.13419 17.9836 2.06287 17.5904 2.03057 17.195C1.99997 16.8205 1.99999 16.3657 2 15.8386V8.53522L8.04872 12.5678C9.18245 13.3243 9.96521 13.8466 10.8349 14.055C11.6009 14.2386 12.3993 14.2386 13.1653 14.055Z" fill="#0000CC"/>
<path d="M22 13C22.5523 13 23 13.4477 23 14V17C23 17.5523 22.5523 18 22 18H19C18.4477 18 18 17.5523 18 17C18 16.4477 18.4477 16 19 16H19.8231C19.4701 15.6886 19.0067 15.5 18.5 15.5C17.3954 15.5 16.5 16.3954 16.5 17.5C16.5 18.6046 17.3954 19.5 18.5 19.5C19.0129 19.5 19.4786 19.3083 19.8331 18.991C20.2446 18.6226 20.8768 18.6577 21.2451 19.0692C21.6135 19.4807 21.5784 20.1129 21.1669 20.4812C20.4599 21.114 19.5238 21.5 18.5 21.5C16.2909 21.5 14.5 19.7091 14.5 17.5C14.5 15.2909 16.2909 13.5 18.5 13.5C19.4465 13.5 20.3156 13.8286 21 14.3774V14C21 13.4477 21.4477 13 22 13Z" fill="#0000CC"/>
</svg>
