<svg width="24" height="24" viewBox="0 0 24 24" fill="none" xmlns="http://www.w3.org/2000/svg">
<path d="M6.16146 4H17.8385C18.3657 3.99998 18.8205 3.99997 19.195 4.03057C19.5904 4.06287 19.9836 4.13419 20.362 4.32698C20.9265 4.6146 21.3854 5.07355 21.673 5.63803C21.7688 5.82599 21.8346 6.0176 21.8805 6.21132L14.9955 10.8013C13.6471 11.7003 13.1776 11.9955 12.6992 12.1101C12.2397 12.2202 11.7606 12.2202 11.301 12.1101C10.8226 11.9955 10.3531 11.7003 9.00473 10.8013L2.11953 6.2112C2.16545 6.01752 2.23124 5.82595 2.32698 5.63803C2.6146 5.07355 3.07355 4.6146 3.63803 4.32698C4.01641 4.13419 4.40963 4.06287 4.80498 4.03057C5.17953 3.99997 5.63435 3.99998 6.16146 4Z" fill="#0000CC"/>
<path d="M15.9515 12.5678L22 8.53536L22 13.2126C21.6903 13.1131 21.3627 13.0661 21.0303 13.0771L20.9733 13.0767L20.954 13.0765C20.9214 13.0761 20.8741 13.0755 20.8333 13.0755C20.8269 13.0755 20.8115 13.0751 20.7805 13.0605C20.7472 13.0449 20.6844 13.007 20.605 12.9212C20.0647 12.3377 19.3039 12 18.5 12C17.6961 12 16.9353 12.3376 16.395 12.9211C16.3156 13.0069 16.2528 13.0449 16.2195 13.0605C16.1885 13.075 16.1731 13.0755 16.1667 13.0755C16.1255 13.0755 16.0778 13.0761 16.0452 13.0765L16.0261 13.0767L15.9695 13.0771C15.612 13.0653 15.2601 13.1206 14.9301 13.236C15.2429 13.0406 15.5782 12.8168 15.9515 12.5678Z" fill="#0000CC"/>
<path d="M13.1653 14.055C13.4652 13.9832 13.7547 13.874 14.0519 13.7308C13.9974 13.7757 13.9444 13.8227 13.8931 13.8718C13.3185 14.4213 13.0003 15.18 13.0001 15.9645L13 17.0204C13 18.0388 13.2009 19.0606 13.5859 20L6.16129 20C5.63424 20 5.17949 20 4.80498 19.9694C4.40963 19.9371 4.01641 19.8658 3.63803 19.673C3.07355 19.3854 2.6146 18.9265 2.32698 18.362C2.13419 17.9836 2.06287 17.5904 2.03057 17.195C1.99997 16.8205 1.99999 16.3657 2 15.8386V8.53522L8.04872 12.5678C9.18245 13.3243 9.96521 13.8466 10.8349 14.055C11.6009 14.2386 12.3993 14.2386 13.1653 14.055Z" fill="#0000CC"/>
<path d="M18.5 14C18.7414 14 18.972 14.1013 19.1374 14.2799C19.6142 14.7949 20.2099 15.0755 20.8333 15.0755C20.861 15.0755 20.8918 15.0759 20.924 15.0763C20.9745 15.0768 21.0282 15.0775 21.0779 15.0768C21.3168 15.0638 21.5506 15.1506 21.7248 15.3173C21.9004 15.4852 22 15.7194 22 15.9644V17.0204C22 19.299 20.7037 21.3561 18.7558 21.9612C18.5891 22.0129 18.4109 22.0129 18.2442 21.9612C16.2963 21.3561 15 19.299 15 17.0204L15.0001 15.9647C15.0002 15.7197 15.0998 15.4851 15.2754 15.3172C15.4496 15.1506 15.6832 15.0638 15.922 15.0768C15.9716 15.0775 16.0251 15.0768 16.0755 15.0762C16.1078 15.0759 16.1389 15.0755 16.1667 15.0755C16.7901 15.0755 17.3858 14.7949 17.8626 14.2799C18.028 14.1013 18.2586 14 18.5 14Z" fill="#0000CC"/>
</svg>
