<svg width="24" height="24" viewBox="0 0 24 24" fill="none" xmlns="http://www.w3.org/2000/svg">
<path d="M11.3327 2.43697C11.7719 2.33677 12.2281 2.33677 12.6673 2.43697C13.1688 2.55139 13.617 2.83369 14.1267 3.15476L20.128 6.92363C20.5814 7.20762 20.9806 7.45767 21.2809 7.80919C21.4262 7.97921 21.5516 8.1645 21.6552 8.36143L13.2199 13.9846C12.513 14.4559 12.3643 14.5373 12.2326 14.5688C12.0794 14.6055 11.9197 14.6055 11.7665 14.5688C11.6349 14.5373 11.4861 14.4559 10.7792 13.9846L2.34481 8.36151C2.44839 8.16455 2.57382 7.97924 2.71911 7.80919C3.01945 7.45764 3.41862 7.20763 3.87207 6.92362L9.87327 3.15476C10.383 2.83369 10.8312 2.55139 11.3327 2.43697Z" fill="#0000CC"/>
<path d="M16.5696 14.1554L22 10.5352V16.8387C22 17.3658 22 17.8206 21.9694 18.1951C21.9391 18.5664 21.8744 18.9358 21.7069 19.2927L16.5696 14.1554Z" fill="#0000CC"/>
<path d="M14.8725 15.2867L14.2178 15.7233C13.6887 16.0771 13.2238 16.3879 12.6987 16.5137C12.2391 16.6239 11.76 16.6239 11.3005 16.5137C10.7753 16.3879 10.3105 16.0771 9.78139 15.7233L9.12733 15.2872L3.70743 20.7071C4.06439 20.8745 4.43374 20.9392 4.80498 20.9696C5.17954 21.0002 5.6343 21.0001 6.16144 21.0001H17.8386C18.3657 21.0001 18.8205 21.0002 19.195 20.9696C19.5663 20.9392 19.9358 20.8745 20.2928 20.707L14.8725 15.2867Z" fill="#0000CC"/>
<path d="M2.29316 19.2929L7.43031 14.1558L2 10.5354V16.8387C1.99998 17.3658 1.99997 17.8206 2.03057 18.1951C2.06091 18.5665 2.12566 18.9359 2.29316 19.2929Z" fill="#0000CC"/>
</svg>
