<svg width="24" height="24" viewBox="0 0 24 24" fill="none" xmlns="http://www.w3.org/2000/svg">
<path fill-rule="evenodd" clip-rule="evenodd" d="M8 6.2C8 3.94218 9.73105 2 12 2C14.269 2 16 3.94218 16 6.2C16 7.38098 15.4954 8.38642 14.8733 9.24811C14.3584 9.96121 13.6988 10.6583 13.0742 11.3185C12.9577 11.4416 12.8425 11.5635 12.7295 11.6839C12.5405 11.8856 12.2764 12 12 12C11.7236 12 11.4595 11.8856 11.2705 11.6839C11.1575 11.5635 11.042 11.4414 10.9255 11.3183C10.3009 10.6581 9.64159 9.96121 9.12674 9.24811C8.50459 8.38642 8 7.38098 8 6.2ZM14 6C14 7.10457 13.1046 8 12 8C10.8954 8 10 7.10457 10 6C10 4.89543 10.8954 4 12 4C13.1046 4 14 4.89543 14 6Z" fill="#0000CC"/>
<path d="M6 6.2C6 5.93342 6.01702 5.6686 6.05022 5.40708L3.44721 4.10557C3.13723 3.95058 2.76909 3.96714 2.47427 4.14935C2.17945 4.33156 2 4.65342 2 5V18C2 18.3788 2.214 18.725 2.55279 18.8944L8 21.618V11.0589C7.82855 10.8498 7.66189 10.6359 7.50521 10.4189C6.76407 9.39236 6 7.97596 6 6.2Z" fill="#0000CC"/>
<path d="M16 11.0589C16.1715 10.8498 16.3381 10.6359 16.4948 10.4189C17.2359 9.39236 18 7.97596 18 6.2C18 5.91514 17.9806 5.63229 17.9427 5.35333L21.4472 7.10557C21.786 7.27497 22 7.62123 22 8V21C22 21.3466 21.8205 21.6684 21.5257 21.8507C21.2309 22.0329 20.8628 22.0494 20.5528 21.8944L16 19.618V11.0589Z" fill="#0000CC"/>
<path d="M10 13.2361C10.5477 13.726 11.2591 14 12 14C12.7409 14 13.4523 13.726 14 13.2361V19.618L10 21.618V13.2361Z" fill="#0000CC"/>
</svg>
