<svg width="24" height="24" viewBox="0 0 24 24" fill="none" xmlns="http://www.w3.org/2000/svg">
<path fill-rule="evenodd" clip-rule="evenodd" d="M4.12339 2.51879C4.29903 2.19885 4.63502 2 5 2L19 2C19.365 2 19.701 2.19885 19.8766 2.51879C20.0522 2.83874 20.0396 3.22896 19.8437 3.53688L13 14.2912L13 20H16C16.5523 20 17 20.4477 17 21C17 21.5523 16.5523 22 16 22H8C7.44772 22 7 21.5523 7 21C7 20.4477 7.44772 20 8 20H11L11 14.2912L4.15634 3.53688C3.96039 3.22895 3.94776 2.83874 4.12339 2.51879ZM8.0944 6H15.9056L17.1783 4L6.82167 4L8.0944 6Z" fill="#0000CC"/>
</svg>
