<svg width="24" height="24" viewBox="0 0 24 24" fill="none" xmlns="http://www.w3.org/2000/svg">
<path d="M22 3C22 2.44772 21.5523 2 21 2C20.4477 2 20 2.44772 20 3V17.5C20 18.8807 18.8807 20 17.5 20H17C15.8954 20 15 19.1046 15 18C15 17.4477 14.5523 17 14 17C13.4477 17 13 17.4477 13 18C13 20.2091 14.7909 22 17 22H17.5C19.9853 22 22 19.9853 22 17.5V3Z" fill="#0000CC"/>
<path d="M5 6C3.34315 6 2 7.34315 2 9V12C2 13.6569 3.34315 15 5 15H8.29594C8.95453 15 9.57305 14.6837 9.95865 14.1498C9.96647 14.139 9.97223 14.1356 9.97594 14.1338C9.98128 14.1311 9.98957 14.1287 10 14.1287C10.0104 14.1287 10.0187 14.1311 10.0241 14.1338C10.0278 14.1356 10.0335 14.139 10.0414 14.1498C10.4269 14.6837 11.0455 15 11.7041 15H15C16.6569 15 18 13.6569 18 12V9C18 7.34315 16.6569 6 15 6H5Z" fill="#0000CC"/>
</svg>
