<svg width="24" height="24" viewBox="0 0 24 24" fill="none" xmlns="http://www.w3.org/2000/svg">
<path fill-rule="evenodd" clip-rule="evenodd" d="M12.0001 19C14.2092 19 16.1793 17.9767 17.4622 16.3782C18.011 16.1729 18.495 15.9917 18.899 15.8179C19.3671 15.6166 19.805 15.3939 20.17 15.0947C20.8915 14.5032 21.4332 13.7217 21.7336 12.8384C22.001 12.0525 22.0007 11.1744 22.0001 9.90092L22.0001 9.5593C22.0001 9.31087 22.0002 9.06892 21.9837 8.86392C21.9656 8.63889 21.9229 8.37324 21.7887 8.10511C21.5952 7.71842 21.2817 7.40485 20.895 7.21138C20.6269 7.07722 20.3612 7.03453 20.1362 7.01643C19.9312 6.99994 19.6892 6.99997 19.4408 7L17.8001 7C17.188 6.99999 16.9787 6.99759 16.7818 6.96911C16.4836 6.92598 16.1936 6.83817 15.9215 6.70864C15.7416 6.62298 15.5659 6.50866 15.0548 6.16795L14.3868 5.72265C13.68 5.25145 12.8496 5 12.0001 5C11.1506 5 10.3201 5.25145 9.61334 5.72265L8.94539 6.16795C8.43432 6.50866 8.25858 6.62298 8.07866 6.70864C7.80661 6.83817 7.51661 6.92598 7.2184 6.96911C7.02148 6.99759 6.81218 6.99999 6.20009 7L4.55937 7C4.31095 6.99997 4.069 6.99994 3.86401 7.01643C3.63899 7.03453 3.37333 7.07722 3.1052 7.21138C2.71851 7.40485 2.40494 7.71842 2.21147 8.10511C2.07732 8.37324 2.03463 8.63889 2.01652 8.86392C2.00003 9.06891 2.00006 9.31086 2.00009 9.55928L2.00004 9.90091C1.99953 11.1744 1.99917 12.0525 2.26653 12.8384C2.56703 13.7217 3.10865 14.5032 3.83015 15.0947C4.1904 15.39 4.62898 15.6197 5.10344 15.8294C5.51678 16.0121 6.00664 16.2003 6.56351 16.4099C7.84695 17.9902 9.80559 19 12.0001 19ZM19.0001 12V9H19.4094C19.7013 9 19.861 9.00075 19.9758 9.00999L19.989 9.01112L19.9901 9.0243C20.0089 9.25785 20.0001 9.49382 20.0001 9.728C20.0001 11.2425 19.9872 11.7621 19.8402 12.1942C19.6599 12.7242 19.335 13.1931 18.9021 13.548C18.8754 13.5699 18.8458 13.5923 18.8128 13.6153C18.9353 13.0967 19.0001 12.5559 19.0001 12ZM4.59076 9H5.00009V12C5.00009 12.5561 5.06494 13.097 5.18747 13.6157C5.15451 13.5925 5.12487 13.57 5.09813 13.548C4.66523 13.1931 4.34025 12.7242 4.15996 12.1942C4.01295 11.7621 4.00009 11.2425 4.00009 9.728C4.00009 9.49382 3.99129 9.25785 4.01008 9.0243L4.01121 9.01112L4.02439 9.00999C4.1392 9.00075 4.2989 9 4.59076 9ZM9 11C9 10.4477 9.44772 10 10 10H14C14.5523 10 15 10.4477 15 11C15 11.5523 14.5523 12 14 12H10C9.44772 12 9 11.5523 9 11ZM10 15C10 14.4477 10.4477 14 11 14H13C13.5523 14 14 14.4477 14 15C14 15.5523 13.5523 16 13 16H11C10.4477 16 10 15.5523 10 15Z" fill="#0000CC"/>
</svg>
