<svg width="24" height="24" viewBox="0 0 24 24" fill="none" xmlns="http://www.w3.org/2000/svg">
<path fill-rule="evenodd" clip-rule="evenodd" d="M16.8386 2H7.16153C6.63443 1.99999 6.1796 1.99997 5.80505 2.03057C5.40971 2.06287 5.01649 2.13419 4.63811 2.32698C4.07362 2.6146 3.61468 3.07355 3.32706 3.63803C3.13426 4.01641 3.06295 4.40963 3.03065 4.80498C3.00004 5.17955 3.00006 5.63431 3.00008 6.16146L3.00004 6.91425C2.99975 7.27164 2.99949 7.58687 3.065 7.89665C3.1226 8.16897 3.21781 8.43195 3.3479 8.67802C3.49588 8.95794 3.69789 9.19995 3.92692 9.47432L6.15458 12.1475C7.10909 10.7021 8.58528 9.63161 10.3149 9.20415L8.60109 7H15.404L13.6868 9.20458C15.4158 9.63234 16.8913 10.7027 17.8455 12.1476L20.0732 9.47434C20.3023 9.19997 20.5043 8.95795 20.6523 8.67802C20.7823 8.43195 20.8776 8.16897 20.9352 7.89665C21.0007 7.58687 21.0004 7.27164 21.0001 6.91424L21.0001 6.16144C21.0001 5.6343 21.0001 5.17954 20.9695 4.80498C20.9372 4.40963 20.8659 4.01641 20.6731 3.63803C20.3855 3.07355 19.9265 2.6146 19.3621 2.32698C18.9837 2.13419 18.5905 2.06287 18.1951 2.03057C17.8206 1.99997 17.3657 1.99999 16.8386 2ZM5.00149 5.62894C5.00011 5.79439 5 5.98269 5 6.2V6.84144C5 7.31193 5.00501 7.40416 5.02164 7.48282C5.04084 7.57359 5.07258 7.66125 5.11594 7.74328C5.15352 7.81435 5.20872 7.88842 5.50991 8.24985L6.21958 9.10145C6.51815 8.85103 6.83329 8.6196 7.16315 8.40903L5.00149 5.62894ZM18.9986 5.63984C18.9999 5.80265 19 5.98745 19 6.2V6.84144C19 7.31193 18.995 7.40416 18.9784 7.48282C18.9592 7.57359 18.9274 7.66125 18.8841 7.74328C18.8465 7.81435 18.7913 7.88842 18.4901 8.24985L17.7804 9.10145C17.4828 8.85183 17.1687 8.62108 16.84 8.41104L18.9986 5.63984Z" fill="#0000CC"/>
<path d="M6 16C6 12.6863 8.68629 10 12 10C15.3137 10 18 12.6863 18 16C18 19.3137 15.3137 22 12 22C8.68629 22 6 19.3137 6 16Z" fill="#0000CC"/>
</svg>
