<svg width="24" height="24" viewBox="0 0 24 24" fill="none" xmlns="http://www.w3.org/2000/svg">
<path d="M18.2067 2.5927C17.8161 2.20217 17.183 2.20217 16.7925 2.5927C16.4019 2.98322 16.4019 3.61639 16.7925 4.00691C20.7626 7.97708 20.9524 13.9891 17.4996 17.4419C14.0467 20.8947 8.0347 20.705 4.06453 16.7348C3.674 16.3443 3.04084 16.3443 2.65032 16.7348C2.25979 17.1254 2.25979 17.7585 2.65032 18.149C7.27168 22.7704 14.5561 23.2138 18.9138 18.8562C23.2715 14.4985 22.828 7.21406 18.2067 2.5927Z" fill="#0000CC"/>
<path d="M16.1003 4.7293C15.9924 4.61646 15.8564 4.5273 15.6983 4.47383C15.1751 4.29697 14.6075 4.57773 14.4307 5.10093C14.377 5.25984 14.3394 5.41734 14.3134 5.56842C13.5437 10.0405 10.0062 13.5281 5.52001 14.2319C5.23783 14.2761 4.96958 14.4098 4.76184 14.6233C4.37937 15.0163 4.3852 15.6433 4.77285 16.0292C8.19599 19.451 13.5827 19.9444 16.7922 16.7349C19.9974 13.5297 19.5096 8.1531 16.1003 4.7293Z" fill="#0000CC"/>
</svg>
