<svg width="24" height="24" viewBox="0 0 24 24" fill="none" xmlns="http://www.w3.org/2000/svg">
<path fill-rule="evenodd" clip-rule="evenodd" d="M6.16146 3H17.8385C18.3657 2.99998 18.8205 2.99997 19.195 3.03057C19.5904 3.06287 19.9836 3.13419 20.362 3.32698C20.9265 3.6146 21.3854 4.07355 21.673 4.63803C21.8658 5.01641 21.9371 5.40963 21.9694 5.80498C22 6.17954 22 6.6343 22 7.16144V20C22 20.3466 21.8205 20.6684 21.5257 20.8507C21.2309 21.0329 20.8628 21.0494 20.5528 20.8944L17.2285 19.2323C16.9526 19.0943 16.8977 19.0693 16.8468 19.0522C16.7881 19.0325 16.7278 19.0182 16.6665 19.0097C16.6133 19.0022 16.553 19 16.2446 19H6.16136C5.6343 19 5.17949 19 4.80498 18.9694C4.40963 18.9371 4.01641 18.8658 3.63803 18.673C3.07355 18.3854 2.6146 17.9265 2.32698 17.362C2.13419 16.9836 2.06287 16.5904 2.03057 16.195C1.99997 15.8205 1.99998 15.3657 2 14.8386V7.16142C1.99998 6.63431 1.99997 6.17953 2.03057 5.80498C2.06287 5.40963 2.13419 5.01641 2.32698 4.63803C2.6146 4.07355 3.07355 3.6146 3.63803 3.32698C4.01641 3.13419 4.40963 3.06287 4.80498 3.03057C5.17953 2.99997 5.63434 2.99998 6.16146 3ZM16 7C15.4477 7 15 7.44772 15 8V14C15 14.5523 15.4477 15 16 15C16.5523 15 17 14.5523 17 14V8C17 7.44772 16.5523 7 16 7ZM11 10C11 9.44772 11.4477 9 12 9C12.5523 9 13 9.44772 13 10V14C13 14.5523 12.5523 15 12 15C11.4477 15 11 14.5523 11 14V10ZM8 11C7.44772 11 7 11.4477 7 12V14C7 14.5523 7.44772 15 8 15C8.55229 15 9 14.5523 9 14V12C9 11.4477 8.55229 11 8 11Z" fill="#0000CC"/>
</svg>
