<svg width="24" height="24" viewBox="0 0 24 24" fill="none" xmlns="http://www.w3.org/2000/svg">
<path fill-rule="evenodd" clip-rule="evenodd" d="M6.16146 3H17.8385C18.3656 2.99999 18.8205 2.99997 19.195 3.03057C19.5904 3.06288 19.9836 3.13419 20.362 3.32699C20.9265 3.61461 21.3854 4.07355 21.673 4.63803C21.8658 5.01641 21.9371 5.40963 21.9694 5.80498C22 6.17954 22 6.6343 22 7.16144V20C22 20.3466 21.8205 20.6684 21.5257 20.8507C21.2309 21.0329 20.8628 21.0494 20.5528 20.8944L17.2285 19.2323C16.9526 19.0943 16.8977 19.0693 16.8468 19.0522C16.7881 19.0325 16.7278 19.0182 16.6665 19.0097C16.6133 19.0022 16.553 19 16.2446 19H6.16124C5.63424 19 5.17946 19 4.80498 18.9694C4.40963 18.9371 4.01641 18.8658 3.63803 18.673C3.07355 18.3854 2.61461 17.9265 2.32699 17.362C2.13419 16.9836 2.06288 16.5904 2.03057 16.195C1.99997 15.8205 1.99999 15.3657 2 14.8386V7.16139C1.99999 6.6343 1.99997 6.17952 2.03057 5.80498C2.06288 5.40963 2.13419 5.01641 2.32699 4.63803C2.61461 4.07355 3.07355 3.61461 3.63803 3.32699C4.01641 3.13419 4.40963 3.06288 4.80498 3.03057C5.17952 2.99997 5.63437 2.99999 6.16146 3ZM13.6124 7.4125C14.1586 6.8625 15.0442 6.8625 15.5904 7.41251C16.1365 7.96251 16.1365 8.85425 15.5904 9.40425L11.7271 13.2944C11.2358 13.7892 10.9901 14.0366 10.7102 14.2329C10.4617 14.4072 10.1936 14.5513 9.91146 14.6622C9.59364 14.7871 9.25281 14.8549 8.57116 14.9906C8.23016 15.0584 7.93349 14.7488 8.01304 14.4081L8.02678 14.3492C8.17578 13.711 8.25028 13.3919 8.37423 13.0944C8.48428 12.8303 8.6231 12.5793 8.78814 12.346C8.97406 12.0832 9.20425 11.8514 9.66463 11.3878L13.6124 7.4125Z" fill="#0000CC"/>
</svg>
