<svg width="24" height="24" viewBox="0 0 24 24" fill="none" xmlns="http://www.w3.org/2000/svg">
<path d="M9 12C9 10.3431 10.3431 9 12 9C12.4647 9 12.9048 9.10567 13.2974 9.29428L9.2913 13.2912C9.10455 12.9001 9 12.4623 9 12Z" fill="#0000CC"/>
<path d="M10.7044 14.7066L14.7095 10.7106C14.8958 11.1012 15 11.5384 15 12C15 13.6569 13.6569 15 12 15C11.536 15 11.0966 14.8946 10.7044 14.7066Z" fill="#0000CC"/>
<path fill-rule="evenodd" clip-rule="evenodd" d="M2.48854 19.5616C2.42003 19.7356 2.35537 19.8997 2.30007 20.05C2.23023 20.2397 2.15877 20.4291 2.08136 20.6158C1.95297 20.9244 1.98721 21.2767 2.17263 21.5548C2.3581 21.8329 2.67039 22 3.00471 22H12.0039C17.5267 22 22.0039 17.5228 22.0039 12C22.0039 6.47715 17.5267 2 12.0039 2C6.48105 2 2.00391 6.47715 2.00391 12C2.00391 13.595 2.37798 15.1053 3.04425 16.4457C3.37301 17.3161 2.87068 18.5914 2.48854 19.5616ZM12 7C13.3825 7 14.634 7.56112 15.5391 8.46803C16.4693 9.40079 17 10.6825 17 12C17 14.7614 14.7614 17 12 17C9.23858 17 7 14.7614 7 12C7 9.23858 9.23858 7 12 7Z" fill="#0000CC"/>
</svg>
