<svg width="24" height="24" viewBox="0 0 24 24" fill="none" xmlns="http://www.w3.org/2000/svg">
<path d="M12 10C12.5523 10 13 10.4477 13 11L11 11C11 10.4477 11.4477 10 12 10Z" fill="#0000CC"/>
<path fill-rule="evenodd" clip-rule="evenodd" d="M2.30007 20.05C2.35537 19.8997 2.42003 19.7356 2.48854 19.5616C2.87068 18.5914 3.37301 17.3161 3.04425 16.4457C2.37798 15.1053 2.00391 13.595 2.00391 12C2.00391 6.47715 6.48105 2 12.0039 2C17.5267 2 22.0039 6.47715 22.0039 12C22.0039 17.5228 17.5267 22 12.0039 22H3.00471C2.67039 22 2.3581 21.8329 2.17263 21.5548C1.98721 21.2767 1.95297 20.9244 2.08136 20.6158C2.15877 20.4291 2.23023 20.2397 2.30007 20.05ZM12 8C10.3431 8 9 9.34315 9 11V11.2679C8.62082 11.4869 8.32164 11.8257 8.15224 12.2346C8.0553 12.4687 8.02483 12.6944 8.01184 12.8848C7.99996 13.0589 7.99998 13.2635 8 13.4735V13.5265C7.99998 13.7365 7.99996 13.9411 8.01184 14.1152C8.02483 14.3056 8.0553 14.5313 8.15224 14.7654C8.35523 15.2554 8.74458 15.6448 9.23464 15.8478C9.46868 15.9447 9.6944 15.9752 9.88478 15.9882C10.0589 16 10.2635 16 10.4735 16H13.5265C13.7365 16 13.9411 16 14.1152 15.9882C14.3056 15.9752 14.5313 15.9447 14.7654 15.8478C15.2554 15.6448 15.6448 15.2554 15.8478 14.7654C15.9447 14.5313 15.9752 14.3056 15.9882 14.1152C16 13.9411 16 13.7365 16 13.5265V13.4735C16 13.2635 16 13.0589 15.9882 12.8848C15.9752 12.6944 15.9447 12.4687 15.8478 12.2346C15.6784 11.8257 15.3792 11.4869 15 11.2679V11C15 9.34315 13.6569 8 12 8Z" fill="#0000CC"/>
</svg>
