<svg width="24" height="24" viewBox="0 0 24 24" fill="none" xmlns="http://www.w3.org/2000/svg">
<path fill-rule="evenodd" clip-rule="evenodd" d="M2.08434 20.6086L2.08182 20.6147L2.08136 20.6158C1.95297 20.9244 1.98721 21.2767 2.17263 21.5548C2.3581 21.8329 2.67039 22 3.00471 22H12.0039C17.4637 22 21.9014 17.6246 22.0022 12.1886C22.0033 12.1259 22.0039 12.063 22.0039 12C22.0039 6.47715 17.5267 2 12.0039 2C6.48105 2 2.00391 6.47715 2.00391 12C2.00391 12.6009 2.05701 13.1897 2.15882 13.762L2.16033 13.7705C2.19891 13.9863 2.24442 14.1998 2.29662 14.4106L2.29907 14.4205C2.47506 15.1281 2.72635 15.8062 3.04425 16.4457C3.04425 16.4457 3.05096 16.4601 3.05914 16.4946C3.06781 16.5311 3.07639 16.583 3.08173 16.6526C3.0926 16.7943 3.08779 16.9778 3.06302 17.2014C3.0133 17.6504 2.89316 18.1761 2.7446 18.6968C2.59759 19.2121 2.43092 19.6945 2.30007 20.05C2.23491 20.2269 2.17929 20.3707 2.14037 20.4692C2.12092 20.5184 2.10568 20.5563 2.09556 20.5812L2.08434 20.6086ZM4.00391 12C4.00391 7.58172 7.58562 4 12.0039 4C15.6499 4 18.7262 6.43902 19.6903 9.77447L16.6403 7.2319C16.2429 6.90063 15.6585 6.92715 15.2927 7.29302L10.9477 11.6396L8.15096 9.24094C7.75624 8.9024 7.16792 8.92289 6.79771 9.28807L4.00402 12.0437C4.00395 12.0291 4.00391 12.0146 4.00391 12Z" fill="#0000CC"/>
</svg>
