<svg width="24" height="24" viewBox="0 0 24 24" fill="none" xmlns="http://www.w3.org/2000/svg">
<path fill-rule="evenodd" clip-rule="evenodd" d="M6.16146 3H17.8385C18.3656 2.99999 18.8205 2.99997 19.195 3.03057C19.5904 3.06288 19.9836 3.13419 20.362 3.32699C20.9265 3.61461 21.3854 4.07355 21.673 4.63803C21.8658 5.01641 21.9371 5.40963 21.9694 5.80498C22 6.17954 22 6.6343 22 7.16144V20C22 20.3466 21.8205 20.6684 21.5257 20.8507C21.2309 21.0329 20.8628 21.0494 20.5528 20.8944L17.2285 19.2323C16.9526 19.0943 16.8977 19.0693 16.8468 19.0522C16.7881 19.0325 16.7278 19.0182 16.6665 19.0097C16.6133 19.0022 16.553 19 16.2446 19H6.16124C5.63424 19 5.17946 19 4.80498 18.9694C4.40963 18.9371 4.01641 18.8658 3.63803 18.673C3.07355 18.3854 2.61461 17.9265 2.32699 17.362C2.13419 16.9836 2.06288 16.5904 2.03057 16.195C1.99997 15.8205 1.99999 15.3657 2 14.8386V7.16139C1.99999 6.6343 1.99997 6.17952 2.03057 5.80498C2.06288 5.40963 2.13419 5.01641 2.32699 4.63803C2.61461 4.07355 3.07355 3.61461 3.63803 3.32699C4.01641 3.13419 4.40963 3.06288 4.80498 3.03057C5.17952 2.99997 5.63437 2.99999 6.16146 3ZM12.6374 7.27991C12.472 7.10129 12.2414 7 12 7C11.7586 7 11.528 7.10128 11.3626 7.2799C10.8858 7.7949 10.2901 8.07549 9.66667 8.07549C9.63824 8.07549 9.60647 8.07584 9.57337 8.0762C9.52364 8.07675 9.4709 8.07733 9.42197 8.07681C9.18325 8.0638 8.94957 8.15061 8.77538 8.31719C8.59978 8.48513 8.50019 8.71974 8.50014 8.96474L8.5 10.0204C8.5 12.299 9.79627 14.3561 11.7442 14.9612C11.9109 15.0129 12.0891 15.0129 12.2558 14.9612C14.2037 14.3561 15.5 12.299 15.5 10.0204V8.96442C15.5 8.71939 15.4004 8.48523 15.2248 8.31726C15.0506 8.15058 14.8168 8.06375 14.578 8.07682C14.529 8.07733 14.4762 8.07676 14.4265 8.07623C14.3934 8.07587 14.3616 8.07553 14.3333 8.07553C13.7099 8.07553 13.1142 7.79494 12.6374 7.27991Z" fill="#0000CC"/>
</svg>
