<svg width="24" height="24" viewBox="0 0 24 24" fill="none" xmlns="http://www.w3.org/2000/svg">
<path fill-rule="evenodd" clip-rule="evenodd" d="M2.48854 19.5616C2.42003 19.7356 2.35537 19.8997 2.30007 20.05C2.23023 20.2397 2.15877 20.4291 2.08136 20.6158C1.95297 20.9244 1.98721 21.2767 2.17263 21.5548C2.3581 21.8329 2.67039 22 3.00471 22H12.0039C17.5267 22 22.0039 17.5228 22.0039 12C22.0039 6.47715 17.5267 2 12.0039 2C6.48105 2 2.00391 6.47715 2.00391 12C2.00391 13.595 2.37798 15.1053 3.04425 16.4457C3.37301 17.3161 2.87068 18.5914 2.48854 19.5616ZM10.2071 8.71135C9.81658 8.32083 9.18342 8.32083 8.79289 8.71135C8.40237 9.10187 8.40237 9.73504 8.79289 10.1256L10.5858 11.9185L8.79289 13.7114C8.40237 14.1019 8.40237 14.735 8.79289 15.1256C9.18342 15.5161 9.81658 15.5161 10.2071 15.1256L12 13.3327L13.7929 15.1256C14.1834 15.5161 14.8166 15.5161 15.2071 15.1256C15.5976 14.735 15.5976 14.1019 15.2071 13.7114L13.4142 11.9185L15.2071 10.1256C15.5976 9.73504 15.5976 9.10187 15.2071 8.71135C14.8166 8.32083 14.1834 8.32083 13.7929 8.71135L12 10.5042L10.2071 8.71135Z" fill="#0000CC"/>
</svg>
