<svg width="24" height="24" viewBox="0 0 24 24" fill="none" xmlns="http://www.w3.org/2000/svg">
<path fill-rule="evenodd" clip-rule="evenodd" d="M2.30007 20.05C2.35537 19.8997 2.42003 19.7356 2.48854 19.5616C2.87068 18.5914 3.37301 17.3161 3.04425 16.4457C2.37798 15.1053 2.00391 13.595 2.00391 12C2.00391 6.47715 6.48105 2 12.0039 2C17.5267 2 22.0039 6.47715 22.0039 12C22.0039 17.5228 17.5267 22 12.0039 22H3.00471C2.67039 22 2.3581 21.8329 2.17263 21.5548C1.98721 21.2767 1.95297 20.9244 2.08136 20.6158C2.15877 20.4291 2.23023 20.2397 2.30007 20.05ZM16.1963 8.69995C16.1963 8.14767 15.7486 7.69995 15.1963 7.69995C14.644 7.69995 14.1963 8.14767 14.1963 8.69995V9.0774C13.5118 8.52855 12.6428 8.19995 11.6963 8.19995C9.48715 8.19995 7.69629 9.99081 7.69629 12.2C7.69629 14.4091 9.48715 16.2 11.6963 16.2C12.7201 16.2 13.6562 15.814 14.3632 15.1812C14.7747 14.8129 14.8097 14.1807 14.4414 13.7691C14.0731 13.3576 13.4409 13.3226 13.0294 13.6909C12.6749 14.0082 12.2092 14.2 11.6963 14.2C10.5917 14.2 9.69629 13.3045 9.69629 12.2C9.69629 11.0954 10.5917 10.2 11.6963 10.2C12.2029 10.2 12.6664 10.3885 13.0194 10.7H12.1963C11.644 10.7 11.1963 11.1477 11.1963 11.7C11.1963 12.2522 11.644 12.7 12.1963 12.7H15.1963C15.7486 12.7 16.1963 12.2522 16.1963 11.7V8.69995Z" fill="#0000CC"/>
</svg>
