<svg width="24" height="24" viewBox="0 0 24 24" fill="none" xmlns="http://www.w3.org/2000/svg">
<path fill-rule="evenodd" clip-rule="evenodd" d="M2.00002 12C2.00002 6.47715 6.47717 2 12 2C17.5229 2 22 6.47715 22 12C22 17.5228 17.5229 22 12 22C10.4669 22 9.01208 21.6543 7.71137 21.036L3.20479 21.9788C2.87445 22.0479 2.53155 21.9457 2.29291 21.7071C2.05427 21.4685 1.9521 21.1256 2.02121 20.7952L2.964 16.2886C2.34568 14.9879 2.00002 13.5331 2.00002 12ZM11.2071 9.79289C10.8166 9.40237 10.1834 9.40237 9.79289 9.79289L6.79289 12.7929C6.40237 13.1834 6.40237 13.8166 6.79289 14.2071C7.18342 14.5976 7.81658 14.5976 8.20711 14.2071L10.5 11.9142L12.7929 14.2071C13.1834 14.5976 13.8166 14.5976 14.2071 14.2071L17.2071 11.2071C17.5976 10.8166 17.5976 10.1834 17.2071 9.79289C16.8166 9.40237 16.1834 9.40237 15.7929 9.79289L13.5 12.0858L11.2071 9.79289Z" fill="#0000CC"/>
</svg>
