<svg width="24" height="24" viewBox="0 0 24 24" fill="none" xmlns="http://www.w3.org/2000/svg">
<path fill-rule="evenodd" clip-rule="evenodd" d="M2.48854 19.5616C2.42003 19.7356 2.35537 19.8997 2.30007 20.05C2.11727 20.5465 1.83618 21.0502 2.17263 21.5548C2.3581 21.8329 2.67039 22 3.00471 22H12.0039C17.5267 22 22.0039 17.5228 22.0039 12C22.0039 6.47715 17.5267 2 12.0039 2C6.48105 2 2.00391 6.47715 2.00391 12C2.00391 13.595 2.37798 15.1053 3.04425 16.4457C3.37301 17.3161 2.87068 18.5914 2.48854 19.5616ZM13 11.4142V15C13 15.5523 12.5523 16 12 16C11.4477 16 11 15.5523 11 15V11.4142L10.7071 11.7071C10.3166 12.0976 9.68342 12.0976 9.29289 11.7071C8.90237 11.3166 8.90237 10.6834 9.29289 10.2929L11.2929 8.29289C11.6834 7.90237 12.3166 7.90237 12.7071 8.29289L14.7071 10.2929C15.0976 10.6834 15.0976 11.3166 14.7071 11.7071C14.3166 12.0976 13.6834 12.0976 13.2929 11.7071L13 11.4142Z" fill="#0000CC"/>
</svg>
