<svg width="24" height="24" viewBox="0 0 24 24" fill="none" xmlns="http://www.w3.org/2000/svg">
<path d="M10.5424 6.89348C11.0439 7.50038 11.5235 8.22457 11.9846 8.98501C12.0575 8.85805 12.1291 8.73441 12.199 8.61515C12.5229 8.06313 12.8505 7.53665 13.1251 7.20658C13.5673 6.67505 14.0935 6.14614 14.6628 5.74165C15.2154 5.34902 15.9119 5 16.6719 5C18.193 5 19.3729 6.1168 20.1608 7.33049C20.9791 8.59097 21.5631 10.2261 21.8318 11.8353C22.0981 13.4307 22.0762 15.1315 21.5481 16.4878C21.2797 17.1773 20.8654 17.8143 20.2554 18.2795C19.6355 18.7523 18.8753 19 18.0089 19C17.1597 19 16.4124 18.6509 15.7791 18.1694C15.1503 17.6913 14.5809 17.0436 14.0611 16.3394C13.3491 15.3748 12.6617 14.2057 12.0018 13.0407C11.6438 13.6713 11.2931 14.2764 10.9607 14.8255C10.3185 15.8866 9.60782 16.8944 8.82969 17.6472C8.06258 18.3894 7.10849 19 5.99087 19C5.12443 19 4.36413 18.7523 3.74414 18.2796C3.13404 17.8143 2.71968 17.1774 2.45115 16.4879C1.92297 15.1316 1.9009 13.4307 2.16724 11.8353C2.43588 10.2261 3.01981 8.59098 3.8381 7.33049C4.62601 6.1168 5.80588 5 7.32697 5C8.67856 5 9.73881 5.921 10.5424 6.89348Z" fill="#0000CC"/>
</svg>
