<svg width="24" height="24" viewBox="0 0 24 24" fill="none" xmlns="http://www.w3.org/2000/svg">
<path d="M10 10V14H14V10H10Z" fill="#0000CC"/>
<path fill-rule="evenodd" clip-rule="evenodd" d="M8 2C7.44772 2 7 2.44772 7 3V5.53513C6.39274 5.88641 5.88641 6.39274 5.53513 7H3C2.44772 7 2 7.44772 2 8C2 8.55229 2.44772 9 3 9H5V11H3C2.44772 11 2 11.4477 2 12C2 12.5523 2.44772 13 3 13H5V15H3C2.44772 15 2 15.4477 2 16C2 16.5523 2.44772 17 3 17H5.53513C5.88641 17.6073 6.39274 18.1136 7 18.4649V21C7 21.5523 7.44772 22 8 22C8.55229 22 9 21.5523 9 21V19H11V21C11 21.5523 11.4477 22 12 22C12.5523 22 13 21.5523 13 21V19H15V21C15 21.5523 15.4477 22 16 22C16.5523 22 17 21.5523 17 21V18.4649C17.6073 18.1136 18.1136 17.6073 18.4649 17H21C21.5523 17 22 16.5523 22 16C22 15.4477 21.5523 15 21 15H19V13H21C21.5523 13 22 12.5523 22 12C22 11.4477 21.5523 11 21 11H19V9H21C21.5523 9 22 8.55229 22 8C22 7.44772 21.5523 7 21 7H18.4649C18.1136 6.39274 17.6073 5.88641 17 5.53513V3C17 2.44772 16.5523 2 16 2C15.4477 2 15 2.44772 15 3V5H13V3C13 2.44772 12.5523 2 12 2C11.4477 2 11 2.44772 11 3V5H9V3C9 2.44772 8.55229 2 8 2ZM8 9C8 8.44771 8.44771 8 9 8H15C15.5523 8 16 8.44771 16 9V15C16 15.5523 15.5523 16 15 16H9C8.44771 16 8 15.5523 8 15V9Z" fill="#0000CC"/>
</svg>
