<svg width="24" height="24" viewBox="0 0 24 24" fill="none" xmlns="http://www.w3.org/2000/svg">
<path fill-rule="evenodd" clip-rule="evenodd" d="M8.52986 2.75746C8.64115 2.3123 9.04113 2 9.5 2H11.5C11.9589 2 12.3589 2.3123 12.4701 2.75746L12.7808 4H13C13.5523 4 14 4.44772 14 5V7.06189C17.9463 7.55399 21 10.9204 21 15C21 16.8924 20.3427 18.6309 19.2452 20H21C21.5523 20 22 20.4477 22 21C22 21.5523 21.5523 22 21 22H16.6258C16.6143 22.0002 16.6028 22.0002 16.5913 22H3C2.44772 22 2 21.5523 2 21C2 20.4477 2.44772 20 3 20H16.318C17.9365 18.9236 19 17.0856 19 15C19 12.027 16.8377 9.55904 14 9.08296V12C14 12.5523 13.5523 13 13 13H8C7.44772 13 7 12.5523 7 12V5C7 4.44772 7.44772 4 8 4H8.21922L8.52986 2.75746ZM8 15C8 14.4477 8.44772 14 9 14H12C12.5523 14 13 14.4477 13 15C13 15.5523 12.5523 16 12 16H9C8.44772 16 8 15.5523 8 15ZM6 18C6 17.4477 6.44772 17 7 17H14C14.5523 17 15 17.4477 15 18C15 18.5523 14.5523 19 14 19H7C6.44772 19 6 18.5523 6 18Z" fill="#0000CC"/>
</svg>
