<svg width="24" height="24" viewBox="0 0 24 24" fill="none" xmlns="http://www.w3.org/2000/svg">
<path fill-rule="evenodd" clip-rule="evenodd" d="M3.29289 3.29289C3.68342 2.90237 4.31658 2.90237 4.70711 3.29289L9 7.58579V5.5C9 4.94772 9.44772 4.5 10 4.5C10.5523 4.5 11 4.94772 11 5.5V10C11 10.5523 10.5523 11 10 11H5.5C4.94772 11 4.5 10.5523 4.5 10C4.5 9.44772 4.94772 9 5.5 9H7.58579L3.29289 4.70711C2.90237 4.31658 2.90237 3.68342 3.29289 3.29289ZM20.7071 3.29289C21.0976 3.68342 21.0976 4.31658 20.7071 4.70711L16.4142 9H18.5C19.0523 9 19.5 9.44772 19.5 10C19.5 10.5523 19.0523 11 18.5 11H14C13.4477 11 13 10.5523 13 10V5.5C13 4.94772 13.4477 4.5 14 4.5C14.5523 4.5 15 4.94772 15 5.5V7.58579L19.2929 3.29289C19.6834 2.90237 20.3166 2.90237 20.7071 3.29289ZM4.5 14C4.5 13.4477 4.94772 13 5.5 13H10C10.5523 13 11 13.4477 11 14V18.5C11 19.0523 10.5523 19.5 10 19.5C9.44772 19.5 9 19.0523 9 18.5V16.4142L4.70711 20.7071C4.31658 21.0976 3.68342 21.0976 3.29289 20.7071C2.90237 20.3166 2.90237 19.6834 3.29289 19.2929L7.58579 15H5.5C4.94772 15 4.5 14.5523 4.5 14ZM13 14C13 13.4477 13.4477 13 14 13H18.5C19.0523 13 19.5 13.4477 19.5 14C19.5 14.5523 19.0523 15 18.5 15H16.4142L20.7071 19.2929C21.0976 19.6834 21.0976 20.3166 20.7071 20.7071C20.3166 21.0976 19.6834 21.0976 19.2929 20.7071L15 16.4142V18.5C15 19.0523 14.5523 19.5 14 19.5C13.4477 19.5 13 19.0523 13 18.5V14Z" fill="#0000CC"/>
</svg>
