<svg width="24" height="24" viewBox="0 0 24 24" fill="none" xmlns="http://www.w3.org/2000/svg">
<path fill-rule="evenodd" clip-rule="evenodd" d="M14.3542 2.00001C13.5238 2.73295 13 3.80531 13 5V5.5C13 6.18167 13.1705 6.82352 13.4712 7.38521C13.1729 7.85138 13 8.4055 13 9C13 10.5744 14.2128 11.8655 15.7551 11.9901C16.3047 12.6096 17.1068 13 18 13C18.3506 13 18.6872 12.9398 19 12.8293V17.2C19 18.8802 19 19.7202 18.673 20.362C18.3854 20.9265 17.9265 21.3854 17.362 21.673C16.7202 22 15.8802 22 14.2 22H9.8C8.11984 22 7.27976 22 6.63803 21.673C6.07354 21.3854 5.6146 20.9265 5.32698 20.362C5 19.7202 5 18.8802 5 17.2V6.8C5 5.11984 5 4.27976 5.32698 3.63803C5.6146 3.07354 6.07354 2.6146 6.63803 2.32698C7.27976 2 8.11984 2 9.8 2L14.3542 2.00001ZM12 20C12.5523 20 13 19.5523 13 19C13 18.4477 12.5523 18 12 18C11.4477 18 11 18.4477 11 19C11 19.5523 11.4477 20 12 20Z" fill="#0000CC"/>
<path d="M17 3C17 2.44771 17.4477 2 18 2C18.5523 2 19 2.44771 19 3H20C20.5523 3 21 3.44771 21 4C21 4.55229 20.5523 5 20 5H17.25C17.1119 5 17 5.11193 17 5.25C17 5.38807 17.1119 5.5 17.25 5.5H19C20.1046 5.5 21 6.39543 21 7.5V8C21 9.10457 20.1046 10 19 10C19 10.5523 18.5523 11 18 11C17.4477 11 17 10.5523 17 10H16C15.4477 10 15 9.55228 15 9C15 8.44772 15.4477 8 16 8H18.75C18.8881 8 19 7.88807 19 7.75C19 7.61193 18.8881 7.5 18.75 7.5H17C15.8954 7.5 15 6.60457 15 5.5V5C15 3.89543 15.8954 3 17 3Z" fill="#0000CC"/>
</svg>
