<svg width="24" height="24" viewBox="0 0 24 24" fill="none" xmlns="http://www.w3.org/2000/svg">
<path fill-rule="evenodd" clip-rule="evenodd" d="M5.32698 3.63803C5 4.27976 5 5.11984 5 6.8V17.2C5 18.8802 5 19.7202 5.32698 20.362C5.6146 20.9265 6.07354 21.3854 6.63803 21.673C7.27976 22 8.11984 22 9.8 22H14.2C15.8802 22 16.7202 22 17.362 21.673C17.9265 21.3854 18.3854 20.9265 18.673 20.362C19 19.7202 19 18.8802 19 17.2V6.8C19 5.11984 19 4.27976 18.673 3.63803C18.3854 3.07354 17.9265 2.6146 17.362 2.32698C16.7202 2 15.8802 2 14.2 2H9.8C8.11984 2 7.27976 2 6.63803 2.32698C6.07354 2.6146 5.6146 3.07354 5.32698 3.63803ZM13 19C13 19.5523 12.5523 20 12 20C11.4477 20 11 19.5523 11 19C11 18.4477 11.4477 18 12 18C12.5523 18 13 18.4477 13 19Z" fill="#0000CC"/>
</svg>
