<svg width="24" height="24" viewBox="0 0 24 24" fill="none" xmlns="http://www.w3.org/2000/svg">
<path fill-rule="evenodd" clip-rule="evenodd" d="M5.32698 20.362C5 19.7202 5 18.8802 5 17.2V6.8C5 5.11984 5 4.27976 5.32698 3.63803C5.6146 3.07354 6.07354 2.6146 6.63803 2.32698C7.27976 2 8.11984 2 9.8 2H14.2C15.8802 2 16.7202 2 17.362 2.32698C17.9265 2.6146 18.3854 3.07354 18.673 3.63803C19 4.27976 19 5.11984 19 6.8V17.2C19 18.8802 19 19.7202 18.673 20.362C18.3854 20.9265 17.9265 21.3854 17.362 21.673C16.7202 22 15.8802 22 14.2 22H9.8C8.11984 22 7.27976 22 6.63803 21.673C6.07354 21.3854 5.6146 20.9265 5.32698 20.362ZM12.5547 8.16806C13.0142 8.47441 13.1384 9.09528 12.8321 9.55481L11.8685 11.0001H14C14.3688 11.0001 14.7077 11.2031 14.8817 11.5282C15.0557 11.8534 15.0366 12.2479 14.8321 12.5548L12.8321 15.5548C12.5257 16.0143 11.9048 16.1385 11.4453 15.8322C10.9858 15.5258 10.8616 14.9049 11.168 14.4454L12.1315 13.0001H10C9.63121 13.0001 9.29235 12.7971 9.11833 12.472C8.94431 12.1468 8.96338 11.7523 9.16795 11.4454L11.168 8.44541C11.4743 7.98588 12.0952 7.8617 12.5547 8.16806Z" fill="#0000CC"/>
</svg>
