<svg width="24" height="24" viewBox="0 0 24 24" fill="none" xmlns="http://www.w3.org/2000/svg">
<path d="M17.0001 4C15.6922 4 14.531 4.6266 13.7996 5.60019C13.4678 6.04174 12.8409 6.13075 12.3994 5.79901C11.9578 5.46726 11.8688 4.84039 12.2006 4.39884C13.2935 2.94409 15.0367 2 17.0001 2C18.9634 2 20.7066 2.94409 21.7996 4.39884C22.1313 4.84039 22.0423 5.46726 21.6007 5.79901C21.1592 6.13075 20.5323 6.04174 20.2006 5.60019C19.4691 4.6266 18.3079 4 17.0001 4Z" fill="#0000CC"/>
<path d="M17 8C16.4871 8 16.0214 8.19174 15.6669 8.50903C15.2554 8.87735 14.6232 8.84233 14.2549 8.43081C13.8865 8.01928 13.9216 7.38708 14.3331 7.01876C15.0401 6.38597 15.9762 6 17 6C18.0238 6 18.9599 6.38597 19.6669 7.01876C20.0784 7.38708 20.1135 8.01928 19.7451 8.43081C19.3768 8.84233 18.7446 8.87735 18.3331 8.50903C17.9786 8.19174 17.5129 8 17 8Z" fill="#0000CC"/>
<path fill-rule="evenodd" clip-rule="evenodd" d="M17 10C16.4477 10 16 10.4477 16 11V12H6.8C5.11984 12 4.27976 12 3.63803 12.327C3.07354 12.6146 2.6146 13.0735 2.32698 13.638C2 14.2798 2 15.1198 2 16.8V17.2C2 18.8802 2 19.7202 2.32698 20.362C2.6146 20.9265 3.07354 21.3854 3.63803 21.673C4.27976 22 5.11984 22 6.8 22H17.2C18.8802 22 19.7202 22 20.362 21.673C20.9265 21.3854 21.3854 20.9265 21.673 20.362C22 19.7202 22 18.8802 22 17.2V16.8C22 15.1198 22 14.2798 21.673 13.638C21.3854 13.0735 20.9265 12.6146 20.362 12.327C19.8313 12.0566 19.1649 12.0098 18 12.0017V11C18 10.4477 17.5523 10 17 10ZM8 17C8 17.5523 7.55228 18 7 18C6.44772 18 6 17.5523 6 17C6 16.4477 6.44772 16 7 16C7.55228 16 8 16.4477 8 17ZM11 17C11 17.5523 10.5523 18 10 18C9.44771 18 9 17.5523 9 17C9 16.4477 9.44771 16 10 16C10.5523 16 11 16.4477 11 17ZM13 18C13.5523 18 14 17.5523 14 17C14 16.4477 13.5523 16 13 16C12.4477 16 12 16.4477 12 17C12 17.5523 12.4477 18 13 18Z" fill="#0000CC"/>
</svg>
