<svg width="24" height="24" viewBox="0 0 24 24" fill="none" xmlns="http://www.w3.org/2000/svg">
<path fill-rule="evenodd" clip-rule="evenodd" d="M7.00001 4C7.00001 3.44772 6.55229 3 6.00001 3C5.44772 3 5.00001 3.44772 5.00001 4V10L3.56811 10C3.31572 9.99997 3.06993 9.99994 2.86178 10.0169C2.63318 10.0356 2.36345 10.0797 2.09202 10.218C1.7157 10.4097 1.40974 10.7157 1.21799 11.092C1.07969 11.3634 1.03563 11.6332 1.01695 11.8618C0.999943 12.0699 0.999973 12.3157 1 12.5681L1 14.8385C0.999986 15.3657 0.999971 15.8205 1.03057 16.195C1.06288 16.5904 1.13419 16.9836 1.32699 17.362C1.61461 17.9265 2.07355 18.3854 2.63803 18.673C3.01641 18.8658 3.40963 18.9371 3.80498 18.9694C3.86775 18.9746 3.93277 18.9788 4.00001 18.9824V20C4.00001 20.5523 4.44772 21 5.00001 21C5.55229 21 6.00001 20.5523 6.00001 20V19H18V20C18 20.5523 18.4477 21 19 21C19.5523 21 20 20.5523 20 20V18.9824C20.0672 18.9788 20.1323 18.9746 20.195 18.9694C20.5904 18.9371 20.9836 18.8658 21.362 18.673C21.9265 18.3854 22.3854 17.9265 22.673 17.362C22.8658 16.9836 22.9371 16.5904 22.9694 16.195C23 15.8205 23 15.3657 23 14.8386L23 12.5681C23 12.3158 23.0001 12.0699 22.9831 11.8618C22.9644 11.6332 22.9203 11.3634 22.782 11.092C22.5903 10.7157 22.2843 10.4097 21.908 10.218C21.6366 10.0797 21.3668 10.0356 21.1382 10.0169C20.9301 9.99994 20.6843 9.99997 20.4319 10L19.0086 10L19 3.99857C18.9992 3.44629 18.5509 2.99921 17.9986 3C17.4463 3.00079 16.9992 3.44915 17 4.00143L17.0086 10H13V4C13 3.44772 12.5523 3 12 3C11.4477 3 11 3.44772 11 4V10H7.00001V4ZM5 14.5C5 13.9477 5.44772 13.5 6 13.5H8C8.55228 13.5 9 13.9477 9 14.5C9 15.0523 8.55228 15.5 8 15.5H6C5.44772 15.5 5 15.0523 5 14.5ZM13 14.5C13 13.9477 13.4477 13.5 14 13.5H14.01C14.5623 13.5 15.01 13.9477 15.01 14.5C15.01 15.0523 14.5623 15.5 14.01 15.5H14C13.4477 15.5 13 15.0523 13 14.5ZM18 13.5C17.4477 13.5 17 13.9477 17 14.5C17 15.0523 17.4477 15.5 18 15.5H18.01C18.5623 15.5 19.01 15.0523 19.01 14.5C19.01 13.9477 18.5623 13.5 18.01 13.5H18Z" fill="#0000CC"/>
</svg>
