<svg width="24" height="24" viewBox="0 0 24 24" fill="none" xmlns="http://www.w3.org/2000/svg">
<path fill-rule="evenodd" clip-rule="evenodd" d="M6.16146 4H17.8385C18.3657 3.99998 18.8205 3.99997 19.195 4.03057C19.5904 4.06287 19.9836 4.13419 20.362 4.32698C20.9265 4.6146 21.3854 5.07355 21.673 5.63803C21.8658 6.01641 21.9371 6.40963 21.9694 6.80498C22 7.17954 22 7.6343 22 8.16144V15.8386C22 16.3657 22 16.8205 21.9694 17.195C21.9371 17.5904 21.8658 17.9836 21.673 18.362C21.3854 18.9265 20.9265 19.3854 20.362 19.673C19.9836 19.8658 19.5904 19.9371 19.195 19.9694C18.8205 20 18.3656 20 17.8385 20H6.16136C5.63426 20 5.17952 20 4.80498 19.9694C4.40963 19.9371 4.01641 19.8658 3.63803 19.673C3.07355 19.3854 2.6146 18.9265 2.32698 18.362C2.13419 17.9836 2.06287 17.5904 2.03057 17.195C1.99997 16.8205 1.99998 16.3657 2 15.8386V8.16142C1.99998 7.63431 1.99997 7.17953 2.03057 6.80498C2.06287 6.40963 2.13419 6.01641 2.32698 5.63803C2.6146 5.07355 3.07355 4.6146 3.63803 4.32698C4.01641 4.13419 4.40963 4.06287 4.80498 4.03057C5.17953 3.99997 5.63434 3.99998 6.16146 4ZM8.99993 8.5C8.99993 7.94772 8.55221 7.5 7.99993 7.5C7.44764 7.5 6.99993 7.94772 6.99993 8.5V8.55665C6.90719 8.56913 6.81781 8.5839 6.73181 8.60118C6.36971 8.67393 6.00643 8.80297 5.7002 9.0487C5.02618 9.58958 5.0009 10.3802 5.00002 10.8306L4.99991 10.8689C4.99926 11.0593 4.99831 11.3397 5.051 11.5961C5.11984 11.931 5.29011 12.2967 5.66685 12.5667C5.98934 12.7978 6.36977 12.8879 6.70585 12.9346C7.05712 12.9835 7.4876 13 8.00002 13C8.46727 13 8.78282 13.0118 8.99979 13.0356C8.99999 13.0744 9.00002 13.1176 9.00002 13.1667C9.00002 13.2787 8.99895 13.3506 8.9965 13.4002C8.97572 13.4069 8.95025 13.4142 8.9194 13.4217C8.74511 13.4642 8.45758 13.5 8.00002 13.5H6.00002C5.44774 13.5 5.00002 13.9477 5.00002 14.5C5.00002 15.0523 5.44774 15.5 6.00002 15.5H6.99993C6.99992 16.0522 7.44758 16.4999 7.99983 16.5C8.55212 16.5001 8.99987 16.0524 8.99993 15.5001L8.99993 15.4395C9.5833 15.3567 10.082 15.1761 10.4471 14.8212C11.012 14.272 11.0039 13.5331 11.0005 13.2242C11.0002 13.2029 11 13.1837 11 13.1667L11.0001 13.1243C11.0003 12.9224 11.0008 12.6368 10.9489 12.3805C10.8803 12.0415 10.7075 11.6671 10.3158 11.3983C9.98778 11.1733 9.60351 11.0942 9.27729 11.0544C8.93242 11.0124 8.50666 11 8.00002 11C7.52669 11 7.21154 10.984 7.00002 10.9562C6.99988 10.9203 6.99993 10.8802 7.00002 10.8345C7.00025 10.7182 7.00479 10.641 7.01027 10.5904C7.03839 10.5818 7.0762 10.572 7.12579 10.562C7.30603 10.5258 7.58224 10.5 7.99993 10.5H10C10.5523 10.5 11 10.0523 11 9.5C11 8.94772 10.5523 8.5 10 8.5H8.99993ZM14 9C13.4477 9 13 9.44772 13 10C13 10.5523 13.4477 11 14 11H18C18.5523 11 19 10.5523 19 10C19 9.44772 18.5523 9 18 9H14ZM13 14C13 13.4477 13.4477 13 14 13H18C18.5523 13 19 13.4477 19 14C19 14.5523 18.5523 15 18 15H14C13.4477 15 13 14.5523 13 14Z" fill="#0000CC"/>
</svg>
