<svg width="24" height="24" viewBox="0 0 24 24" fill="none" xmlns="http://www.w3.org/2000/svg">
<path fill-rule="evenodd" clip-rule="evenodd" d="M12.8385 3H11.1615C10.6343 2.99998 10.1795 2.99997 9.80497 3.03057C9.40963 3.06287 9.01641 3.13419 8.63803 3.32698C8.07354 3.6146 7.6146 4.07354 7.32698 4.63803C7.13419 5.01641 7.06287 5.40963 7.03057 5.80497C7.00314 6.14075 7.00031 6.54097 7.00003 7H6.16146C5.63434 6.99999 5.17953 6.99997 4.80498 7.03057C4.40963 7.06287 4.01641 7.13419 3.63803 7.32698C3.07355 7.6146 2.6146 8.07355 2.32698 8.63803C2.13419 9.01641 2.06287 9.40963 2.03057 9.80498C1.99997 10.1795 1.99999 10.6343 2 11.1614V16.8386C1.99999 17.3657 1.99997 17.8205 2.03057 18.195C2.06287 18.5904 2.13419 18.9836 2.32698 19.362C2.6146 19.9265 3.07355 20.3854 3.63803 20.673C4.01641 20.8658 4.40963 20.9371 4.80498 20.9694C5.17955 21 5.63431 21 6.16145 21H17.8385C18.3657 21 18.8205 21 19.195 20.9694C19.5904 20.9371 19.9836 20.8658 20.362 20.673C20.9265 20.3854 21.3854 19.9265 21.673 19.362C21.8658 18.9836 21.9371 18.5904 21.9694 18.195C22 17.8205 22 17.3657 22 16.8386V11.1614C22 10.6343 22 10.1795 21.9694 9.80498C21.9371 9.40963 21.8658 9.01641 21.673 8.63803C21.3854 8.07355 20.9265 7.6146 20.362 7.32698C19.9836 7.13419 19.5904 7.06287 19.195 7.03057C18.8205 6.99997 18.3657 6.99999 17.8385 7H17C16.9997 6.54097 16.9969 6.14075 16.9694 5.80497C16.9371 5.40963 16.8658 5.01641 16.673 4.63803C16.3854 4.07355 15.9265 3.6146 15.362 3.32698C14.9836 3.13419 14.5904 3.06287 14.195 3.03057C13.8205 2.99997 13.3657 2.99998 12.8385 3ZM14.9999 7C14.9995 6.5349 14.9964 6.21698 14.9761 5.96784C14.9539 5.69618 14.9162 5.59546 14.891 5.54601C14.7951 5.35785 14.6422 5.20487 14.454 5.109C14.4046 5.0838 14.3038 5.04613 14.0322 5.02393C13.7488 5.00078 13.3766 5 12.8 5H11.2C10.6235 5 10.2512 5.00078 9.96784 5.02393C9.69618 5.04613 9.59546 5.0838 9.54601 5.109C9.35785 5.20487 9.20487 5.35785 9.109 5.54601C9.0838 5.59546 9.04613 5.69618 9.02393 5.96784C9.00357 6.21698 9.00052 6.5349 9.00007 7H14.9999ZM5 12C6.10457 12 7 11.1046 7 10C7 9.63571 6.90261 9.29418 6.73244 9H6.2C5.62345 9 5.25117 9.00078 4.96784 9.02393C4.69617 9.04612 4.59546 9.0838 4.54601 9.109C4.35785 9.20487 4.20487 9.35785 4.109 9.54601C4.0838 9.59546 4.04612 9.69617 4.02393 9.96784C4.00078 10.2512 4 10.6234 4 11.2V11.7324C4.29418 11.9026 4.63571 12 5 12ZM6.73244 19H6.2C5.62345 19 5.25117 18.9992 4.96784 18.9761C4.69617 18.9539 4.59546 18.9162 4.54601 18.891C4.35785 18.7951 4.20487 18.6422 4.109 18.454C4.0838 18.4045 4.04612 18.3038 4.02393 18.0322C4.00078 17.7488 4 17.3766 4 16.8V16.2676C4.29418 16.0974 4.63571 16 5 16C6.10457 16 7 16.8954 7 18C7 18.3643 6.90261 18.7058 6.73244 19ZM20 16.8V16.2676C19.7058 16.0974 19.3643 16 19 16C17.8954 16 17 16.8954 17 18C17 18.3643 17.0974 18.7058 17.2676 19H17.8C18.3766 19 18.7488 18.9992 19.0322 18.9761C19.3038 18.9539 19.4045 18.9162 19.454 18.891C19.6422 18.7951 19.7951 18.6422 19.891 18.454C19.9162 18.4045 19.9539 18.3038 19.9761 18.0322C19.9992 17.7488 20 17.3766 20 16.8ZM17.2676 9H17.8C18.3766 9 18.7488 9.00078 19.0322 9.02393C19.3038 9.04612 19.4045 9.0838 19.454 9.109C19.6422 9.20487 19.7951 9.35785 19.891 9.54601C19.9162 9.59546 19.9539 9.69617 19.9761 9.96784C19.9992 10.2512 20 10.6234 20 11.2V11.7324C19.7058 11.9026 19.3643 12 19 12C17.8954 12 17 11.1046 17 10C17 9.63571 17.0974 9.29418 17.2676 9ZM15 14C15 15.6569 13.6569 17 12 17C10.3431 17 9 15.6569 9 14C9 12.3431 10.3431 11 12 11C13.6569 11 15 12.3431 15 14Z" fill="#0000CC"/>
</svg>
