<svg width="24" height="24" viewBox="0 0 24 24" fill="none" xmlns="http://www.w3.org/2000/svg">
<path d="M12.7071 2.29289C12.3166 1.90237 11.6834 1.90237 11.2929 2.29289L8.79289 4.79289C8.40237 5.18342 8.40237 5.81658 8.79289 6.20711C9.18342 6.59763 9.81658 6.59763 10.2071 6.20711L11 5.41421V9C11 9.55228 11.4477 10 12 10C12.5523 10 13 9.55228 13 9V5.41421L13.7929 6.20711C14.1834 6.59763 14.8166 6.59763 15.2071 6.20711C15.5976 5.81658 15.5976 5.18342 15.2071 4.79289L12.7071 2.29289Z" fill="#0000CC"/>
<path fill-rule="evenodd" clip-rule="evenodd" d="M6.16146 8H7.84063C8.19695 8.23705 8.59277 8.38981 9 8.45828V9C9 10.6569 10.3431 12 12 12C10.3431 12 9 13.3431 9 15C9 16.6569 10.3431 18 12 18C13.6569 18 15 16.6569 15 15C15 13.3431 13.6569 12 12 12C13.6569 12 15 10.6569 15 9V8.45828C15.4072 8.38981 15.8031 8.23705 16.1594 8H17.8386C18.3657 7.99998 18.8205 7.99997 19.195 8.03057C19.5904 8.06287 19.9836 8.13419 20.362 8.32698C20.9265 8.6146 21.3854 9.07355 21.673 9.63803C21.8658 10.0164 21.9371 10.4096 21.9694 10.805C22 11.1795 22 11.6343 22 12.1614V17.8386C22 18.3657 22 18.8205 21.9694 19.195C21.9371 19.5904 21.8658 19.9836 21.673 20.362C21.3854 20.9265 20.9265 21.3854 20.362 21.673C19.9836 21.8658 19.5904 21.9371 19.195 21.9694C18.8205 22 18.3657 22 17.8385 22H6.16145C5.63431 22 5.17955 22 4.80498 21.9694C4.40963 21.9371 4.01641 21.8658 3.63803 21.673C3.07355 21.3854 2.61461 20.9265 2.32699 20.362C2.13419 19.9836 2.06288 19.5904 2.03057 19.195C1.99997 18.8205 1.99999 18.3657 2 17.8386V12.1614C1.99999 11.6343 1.99997 11.1795 2.03057 10.805C2.06288 10.4096 2.13419 10.0164 2.32699 9.63803C2.61461 9.07355 3.07355 8.6146 3.63803 8.32698C4.01641 8.13419 4.40963 8.06287 4.80498 8.03057C5.17953 7.99997 5.63435 7.99998 6.16146 8ZM7 11C7 12.1046 6.10457 13 5 13C4.63572 13 4.29418 12.9026 4 12.7324V12.2C4 11.6234 4.00078 11.2512 4.02393 10.9678C4.04613 10.6962 4.0838 10.5955 4.109 10.546C4.20487 10.3578 4.35785 10.2049 4.54601 10.109C4.59546 10.0838 4.69618 10.0461 4.96784 10.0239C5.25118 10.0008 5.62345 10 6.2 10H6.73244C6.90261 10.2942 7 10.6357 7 11ZM6.2 20H6.73244C6.90261 19.7058 7 19.3643 7 19C7 17.8954 6.10457 17 5 17C4.63572 17 4.29418 17.0974 4 17.2676V17.8C4 18.3766 4.00078 18.7488 4.02393 19.0322C4.04613 19.3038 4.0838 19.4045 4.109 19.454C4.20487 19.6422 4.35785 19.7951 4.54601 19.891C4.59546 19.9162 4.69618 19.9539 4.96784 19.9761C5.25118 19.9992 5.62345 20 6.2 20ZM20 17.2676V17.8C20 18.3766 19.9992 18.7488 19.9761 19.0322C19.9539 19.3038 19.9162 19.4045 19.891 19.454C19.7951 19.6422 19.6422 19.7951 19.454 19.891C19.4045 19.9162 19.3038 19.9539 19.0322 19.9761C18.7488 19.9992 18.3766 20 17.8 20H17.2676C17.0974 19.7058 17 19.3643 17 19C17 17.8954 17.8954 17 19 17C19.3643 17 19.7058 17.0974 20 17.2676ZM17.8 10H17.2676C17.0974 10.2942 17 10.6357 17 11C17 12.1046 17.8954 13 19 13C19.3643 13 19.7058 12.9026 20 12.7324V12.2C20 11.6234 19.9992 11.2512 19.9761 10.9678C19.9539 10.6962 19.9162 10.5955 19.891 10.546C19.7951 10.3578 19.6422 10.2049 19.454 10.109C19.4045 10.0838 19.3038 10.0461 19.0322 10.0239C18.7488 10.0008 18.3766 10 17.8 10Z" fill="#0000CC"/>
</svg>
