<svg width="24" height="24" viewBox="0 0 24 24" fill="none" xmlns="http://www.w3.org/2000/svg">
<path fill-rule="evenodd" clip-rule="evenodd" d="M2.32698 5.63803C2 6.27976 2 7.11984 2 8.8V15.2C2 16.8802 2 17.7202 2.32698 18.362C2.6146 18.9265 3.07354 19.3854 3.63803 19.673C4.27976 20 5.11984 20 6.8 20H17.2C18.8802 20 19.7202 20 20.362 19.673C20.9265 19.3854 21.3854 18.9265 21.673 18.362C22 17.7202 22 16.8802 22 15.2V8.8C22 7.11984 22 6.27976 21.673 5.63803C21.3854 5.07354 20.9265 4.6146 20.362 4.32698C19.7202 4 18.8802 4 17.2 4H6.8C5.11984 4 4.27976 4 3.63803 4.32698C3.07354 4.6146 2.6146 5.07354 2.32698 5.63803ZM12.8944 8.5528C12.7135 8.19104 12.3326 7.97386 11.9291 8.00253C11.5257 8.0312 11.1792 8.30008 11.0513 8.68378L9.65486 12.8732L9.3 12.4C9.11115 12.1482 8.81476 12 8.5 12H4V14H8L9.2 15.6C9.42317 15.8976 9.79304 16.0467 10.1602 15.9871C10.5273 15.9275 10.8311 15.6691 10.9487 15.3162L12.1852 11.6066L13.1056 13.4472C13.275 13.786 13.6212 14 14 14H17C17.5523 14 18 13.5523 18 13C18 12.4477 17.5523 12 17 12H14.618L12.8944 8.5528Z" fill="#0000CC"/>
</svg>
