<svg width="24" height="24" viewBox="0 0 24 24" fill="none" xmlns="http://www.w3.org/2000/svg">
<path fill-rule="evenodd" clip-rule="evenodd" d="M7.59635 2.34484L7.6359 2.35446C9.13397 2.7189 10.7176 2.99999 12 2.99999C13.2824 2.99999 14.866 2.7189 16.3641 2.35446L16.4036 2.34484C17.1925 2.15291 17.8394 1.99555 18.3539 1.91022C18.8624 1.8259 19.3975 1.78114 19.8986 1.93845C20.6273 2.16724 21.1742 2.597 21.5688 3.25104C21.8353 3.69282 21.9215 4.19849 21.9609 4.6937C22 5.18543 22 5.80697 22 6.55578V14.4266C22 15.0617 22 15.601 21.9778 16.0425C21.9478 16.6387 21.8747 17.2418 21.5688 17.7489C21.1742 18.403 20.6273 18.8327 19.8986 19.0615C19.3975 19.2189 18.8624 19.1741 18.3539 19.0898C17.8394 19.0044 17.1926 18.8471 16.4036 18.6551L16.3641 18.6455C16.2432 18.6161 16.1218 18.5873 16 18.559L16 19.9996H17C17.5523 19.9996 18 20.4473 18 20.9996C18 21.5519 17.5523 21.9996 17 21.9996H7C6.44772 21.9996 6 21.5519 6 20.9996C6 20.4473 6.44772 19.9996 7 19.9996H8V18.559C7.87821 18.5873 7.75678 18.6161 7.6359 18.6455L7.59641 18.6551C6.80747 18.8471 6.16065 19.0044 5.64608 19.0898C5.13763 19.1741 4.60254 19.2189 4.10143 19.0615C3.37265 18.8327 2.82582 18.403 2.43125 17.749C2.12527 17.2418 2.05219 16.6387 2.0222 16.0425C1.99999 15.601 2 15.0616 2 14.4265L2 6.55576C1.99999 5.80696 1.99998 5.18543 2.03909 4.6937C2.07847 4.19849 2.16473 3.69282 2.43125 3.25104C2.82582 2.597 3.37265 2.16724 4.10143 1.93845C4.60254 1.78114 5.13763 1.8259 5.64608 1.91022C6.16064 1.99555 6.80744 2.15291 7.59635 2.34484ZM10 18.1706V19.9996H14L14 18.1706C13.2928 18.064 12.6121 18 12 18C11.3879 18 10.7072 18.064 10 18.1706ZM20 14.6022C20 14.5374 20 14.4707 20 14.4022V6.59774C20 5.79626 19.9992 5.25505 19.9672 4.85227C19.9347 4.44381 19.8772 4.31894 19.8563 4.28416C19.7137 4.04784 19.5628 3.9293 19.2995 3.84663C19.2696 3.83725 19.128 3.80917 18.6811 3.88327C18.249 3.95494 17.675 4.09388 16.8369 4.29778C15.2892 4.67428 13.5223 4.99999 12 4.99999C10.4777 4.99999 8.71078 4.67428 7.16314 4.29778C6.32497 4.09388 5.75101 3.95494 5.31887 3.88327C4.87204 3.80917 4.73037 3.83725 4.70048 3.84663C4.43716 3.9293 4.28632 4.04784 4.14375 4.28416C4.12277 4.31894 4.06528 4.44381 4.03279 4.85227C4.00075 5.25505 4 5.79626 4 6.59774V14.4022C4 14.4707 4 14.5374 4.00003 14.6022C4.57123 14.4177 5.28919 14.1976 6.08424 13.9809C7.86568 13.4951 10.1253 13 12 13C13.8747 13 16.1343 13.4951 17.9158 13.9809C18.7108 14.1976 19.4288 14.4177 20 14.6022Z" fill="#0000CC"/>
</svg>
