<svg width="24" height="24" viewBox="0 0 24 24" fill="none" xmlns="http://www.w3.org/2000/svg">
<path d="M2 15V11.4765C2.57776 11.9916 3.25573 12.3965 4 12.659V14H20V5C20 4.44772 19.5523 4 19 4H10.9894C10.6906 3.55008 10.3767 3.17457 10.1419 2.9101C9.90344 2.64153 9.57796 2.30818 9.26875 2H19C20.6569 2 22 3.34315 22 5V15C22 16.6569 20.6569 18 19 18H13V20H16C16.5523 20 17 20.4477 17 21C17 21.5523 16.5523 22 16 22H8C7.44772 22 7 21.5523 7 21C7 20.4477 7.44772 20 8 20H11V18H5C3.34315 18 2 16.6569 2 15Z" fill="#0000CC"/>
<path d="M5.28697 2.29004C5.67012 1.90998 6.28572 1.9025 6.67799 2.27313C6.93267 2.5146 7.1857 2.75781 7.43693 3.00287C7.84239 3.39836 8.34411 3.89759 8.64625 4.23792C8.89963 4.52332 9.22231 4.91796 9.486 5.36584C9.74031 5.79779 10 6.37912 10 7.01752C10 9.22249 8.20361 11 6 11C3.79639 11 2 9.22249 2 7.01752C2 6.36157 2.28556 5.77123 2.54948 5.34592C2.82485 4.90216 3.15858 4.51055 3.40062 4.23792C3.69501 3.90633 4.17303 3.41354 4.56344 3.01708C4.80333 2.77346 5.04454 2.53113 5.28697 2.29004Z" fill="#0000CC"/>
</svg>
