<svg width="24" height="24" viewBox="0 0 24 24" fill="none" xmlns="http://www.w3.org/2000/svg">
<path d="M18 2C14.585 2 11.5699 3.7118 9.76575 6.32415C11.4164 6.9001 12.7332 8.19833 13.3215 9.85165C14.3748 10.8471 15 12.2632 15 13.7484C15 16.3002 13.1796 18.4295 10.764 18.9022C12.5851 20.8108 15.1537 22 18 22C19.0897 22 20.1406 21.8253 21.1251 21.5017C21.4958 21.3798 21.7618 21.0535 21.8063 20.6658C21.8508 20.2781 21.6657 19.9 21.3323 19.6972C18.733 18.1169 17 15.26 17 12C17 8.73926 18.7335 5.88243 21.3339 4.30236C21.6674 4.09973 21.8526 3.72163 21.8082 3.33394C21.7638 2.94625 21.4979 2.61982 21.1272 2.49785C20.1412 2.17341 19.0898 2 18 2Z" fill="#0000CC"/>
<path d="M4.56976 9.88479C5.22785 8.78166 6.43762 8 7.84463 8C9.67175 8 11.2075 9.28098 11.5724 11.0004C12.4483 11.6075 13 12.6485 13 13.7484C13 15.5436 11.5456 17 9.75 17L5.7 17C3.66521 17 2 15.3631 2 13.3246C2 11.7779 3.02175 10.3645 4.56976 9.88479Z" fill="#0000CC"/>
</svg>
