<svg width="24" height="24" viewBox="0 0 24 24" fill="none" xmlns="http://www.w3.org/2000/svg">
<path fill-rule="evenodd" clip-rule="evenodd" d="M16.0552 3.29379C13.6274 1.56874 10.3739 1.56874 7.94611 3.29379C7.87256 3.34606 7.7944 3.40467 7.66918 3.49859L7.64811 3.5144C7.57196 3.57151 7.52235 3.60871 7.47527 3.6455C5.94255 4.84336 5.08567 6.70995 5.17648 8.65311C5.17927 8.71279 5.18339 8.77467 5.18973 8.86964L5.67026 16.0776C5.89244 19.4103 8.66052 22 12.0006 22C15.3407 22 18.1088 19.4103 18.331 16.0776L18.8115 8.86979C18.8179 8.77473 18.822 8.71282 18.8248 8.65311C18.9156 6.70995 18.0587 4.84336 16.526 3.6455C16.4789 3.60871 16.4293 3.57151 16.3532 3.51441L16.332 3.49855C16.2069 3.40466 16.1287 3.34605 16.0552 3.29379ZM13.0005 7C13.0005 6.44772 12.5528 6 12.0005 6C11.4482 6 11.0005 6.44772 11.0005 7V9C11.0005 9.55228 11.4482 10 12.0005 10C12.5528 10 13.0005 9.55228 13.0005 9V7Z" fill="#0000CC"/>
</svg>
