<svg width="24" height="24" viewBox="0 0 24 24" fill="none" xmlns="http://www.w3.org/2000/svg">
<path fill-rule="evenodd" clip-rule="evenodd" d="M16.695 3.03057C17.0904 3.06287 17.4836 3.13419 17.862 3.32698C18.4265 3.6146 18.8854 4.07354 19.173 4.63803C19.3658 5.01641 19.4371 5.40963 19.4694 5.80497C19.4746 5.86853 19.4789 5.9344 19.4825 6.00253C19.7005 6.00735 19.8999 6.02077 20.0853 6.05765C21.2753 6.29437 22.2056 7.22466 22.4424 8.41473C22.5006 8.70759 22.5003 9.03543 22.5 9.41613C22.5 9.44381 22.5 9.47176 22.5 9.5C22.5 9.52824 22.5 9.5562 22.5 9.58387C22.5003 9.96457 22.5006 10.2924 22.4424 10.5853C22.2056 11.7753 21.2753 12.7056 20.0853 12.9424C19.8798 12.9832 19.6571 12.9953 19.411 12.9988C19.3905 13.1382 19.3652 13.2714 19.3342 13.4007C18.8075 15.5946 17.0946 17.3075 14.9007 17.8342C14.2083 18.0004 13.4005 18.0003 12.1496 18C12.1004 18 12.0506 18 12 18C11.9494 18 11.8996 18 11.8504 18C10.5995 18.0003 9.79165 18.0004 9.09933 17.8342C6.90544 17.3075 5.19249 15.5946 4.66578 13.4007C4.49957 12.7084 4.49973 11.9005 4.49998 10.6496C4.49999 10.6004 4.5 10.5506 4.5 10.5L4.5 7.16146C4.49998 6.63431 4.49997 6.17955 4.53057 5.80498C4.56287 5.40963 4.63419 5.01641 4.82698 4.63803C5.1146 4.07355 5.57354 3.6146 6.13803 3.32698C6.51641 3.13419 6.90963 3.06287 7.30497 3.03057C7.67954 2.99997 8.13431 2.99998 8.66145 3L15.3385 3C15.8657 2.99998 16.3205 2.99997 16.695 3.03057ZM19.4999 10.9961C19.6096 10.9932 19.6575 10.9883 19.6951 10.9808C20.0918 10.9019 20.4019 10.5918 20.4808 10.1951C20.4952 10.1228 20.5 10.0126 20.5 9.5C20.5 8.98742 20.4952 8.87716 20.4808 8.80491C20.4019 8.40822 20.0918 8.09812 19.6951 8.01922C19.6575 8.01174 19.6096 8.00684 19.5 8.00386V10.5C19.5 10.5505 19.5 10.6004 19.5 10.6495C19.5 10.769 19.5001 10.8845 19.4999 10.9961ZM2 20C2 19.4477 2.44772 19 3 19H21C21.5523 19 22 19.4477 22 20C22 20.5523 21.5523 21 21 21H3C2.44772 21 2 20.5523 2 20Z" fill="#0000CC"/>
</svg>
