<svg width="24" height="24" viewBox="0 0 24 24" fill="none" xmlns="http://www.w3.org/2000/svg">
<path d="M7.72405 15.8586C7.79442 15.3659 8.21635 15 8.714 15H15.2854C15.7831 15 16.205 15.3659 16.2754 15.8586L16.8266 19.7172C16.9987 20.922 16.0638 22 14.8467 22H9.15272C7.93562 22 7.0007 20.922 7.17282 19.7172L7.72405 15.8586Z" fill="#0000CC"/>
<path fill-rule="evenodd" clip-rule="evenodd" d="M7.02776 4.16085C4.61555 5.60063 3 8.23665 3 11.25C3 12.7688 4.23122 14 5.75 14H18.25C19.7688 14 21 12.7688 21 11.25C21 6.69365 17.3063 3 12.75 3H11.5C11.8139 3.41785 12 3.93716 12 4.5C12 5.88071 10.8807 7 9.5 7C8.11929 7 7 5.88071 7 4.5C7 4.42657 7.00317 4.35387 7.00937 4.28204L7.02776 4.16085ZM15.5 7C16.3284 7 17 7.67157 17 8.5C17 9.32843 16.3284 10 15.5 10C14.6716 10 14 9.32843 14 8.5C14 7.67157 14.6716 7 15.5 7Z" fill="#0000CC"/>
</svg>
