<svg width="24" height="24" viewBox="0 0 24 24" fill="none" xmlns="http://www.w3.org/2000/svg">
<path fill-rule="evenodd" clip-rule="evenodd" d="M21.6464 2.23699C21.8707 2.42699 22 2.70606 22 3.00001V6.98362C22.0002 6.99538 22.0002 7.00711 22 7.0188V16.5C22 16.5672 21.9934 16.6327 21.9808 16.6962C21.9934 16.795 22 16.8963 22 17C22 17.9907 21.3977 18.7652 20.676 19.2463C19.9474 19.732 18.9983 20 18 20C17.0017 20 16.0526 19.732 15.324 19.2463C14.6023 18.7652 14 17.9907 14 17C14 16.0093 14.6023 15.2349 15.324 14.7537C16.0526 14.268 17.0017 14 18 14C18.7125 14 19.3999 14.1365 20 14.3913V8.18047L10 9.84713V18.5C10 18.5672 9.99338 18.6327 9.98077 18.6962C9.9934 18.795 10 18.8963 10 19C10 19.9907 9.3977 20.7652 8.67602 21.2463C7.94735 21.732 6.99832 22 6 22C5.00168 22 4.05265 21.732 3.32398 21.2463C2.6023 20.7652 2 19.9907 2 19C2 18.0093 2.6023 17.2349 3.32398 16.7537C4.05265 16.268 5.00168 16 6 16C6.7125 16 7.3999 16.1365 8 16.3913V9.01645C7.99979 9.00465 7.99979 8.99289 8 8.98117V5.00001C8 4.51117 8.35341 4.09398 8.8356 4.01361L20.8356 2.01361C21.1256 1.96529 21.4221 2.04698 21.6464 2.23699Z" fill="#0000CC"/>
</svg>
