<svg width="24" height="24" viewBox="0 0 24 24" fill="none" xmlns="http://www.w3.org/2000/svg">
<path fill-rule="evenodd" clip-rule="evenodd" d="M13.5 10.7162C13.614 10.6835 13.7326 10.6439 13.8417 10.6075C15.3174 10.1151 16.7934 9.62361 18.2692 9.13167C18.385 9.09308 18.7089 9.00282 18.9623 8.79094C19.1549 8.62984 19.304 8.42297 19.3959 8.18928C19.5168 7.88191 19.5 7.54606 19.5 7.42404V4.11059C19.5 3.94204 19.501 3.74844 19.4862 3.58408C19.4709 3.41467 19.4311 3.14863 19.2647 2.88774C19.0587 2.56475 18.7369 2.33282 18.3653 2.23952C18.0652 2.16416 17.8002 2.21045 17.6347 2.24958C17.474 2.28753 17.2907 2.34966 17.1308 2.40296L12.7308 3.86962C12.615 3.90821 12.2911 3.99847 12.0377 4.21035C11.8451 4.37145 11.696 4.57832 11.6041 4.81202C11.4832 5.11939 11.5 5.45523 11.5 5.57725C11.5 8.91184 11.5 12.2464 11.5 15.581C10.772 15.2066 9.90685 15.0006 9 15.0006C7.84911 15.0006 6.76542 15.3323 5.94389 15.9191C5.12427 16.5046 4.5 17.4035 4.5 18.5006C4.5 19.5978 5.12427 20.4967 5.94389 21.0821C6.76542 21.669 7.84911 22.0006 9 22.0006C10.1509 22.0006 11.2346 21.669 12.0561 21.0821C12.8757 20.4967 13.5 19.5978 13.5 18.5006V10.7162Z" fill="#0000CC"/>
</svg>
