<svg width="24" height="24" viewBox="0 0 24 24" fill="none" xmlns="http://www.w3.org/2000/svg">
<path fill-rule="evenodd" clip-rule="evenodd" d="M8.16146 2H15.8385C16.3657 1.99998 16.8205 1.99997 17.195 2.03057C17.5904 2.06287 17.9836 2.13419 18.362 2.32698C18.9265 2.6146 19.3854 3.07354 19.673 3.63803C19.8658 4.01641 19.9371 4.40963 19.9694 4.80497C20 5.17955 20 5.63432 20 6.16148V17.8385C20 18.3657 20 18.8205 19.9694 19.195C19.9371 19.5904 19.8658 19.9836 19.673 20.362C19.3854 20.9265 18.9265 21.3854 18.362 21.673C17.9836 21.8658 17.5904 21.9371 17.195 21.9694C16.8205 22 16.3657 22 15.8386 22H8.16144C7.6343 22 7.17954 22 6.80497 21.9694C6.40963 21.9371 6.01641 21.8658 5.63803 21.673C5.07354 21.3854 4.6146 20.9265 4.32698 20.362C4.13419 19.9836 4.06287 19.5904 4.03057 19.195C3.99997 18.8205 3.99998 18.3657 4 17.8385V6.16146C3.99998 5.63431 3.99997 5.17955 4.03057 4.80497C4.06287 4.40963 4.13419 4.01641 4.32698 3.63803C4.6146 3.07354 5.07354 2.6146 5.63803 2.32698C6.01641 2.13419 6.40963 2.06287 6.80497 2.03057C7.17955 1.99997 7.63431 1.99998 8.16146 2ZM7.25626 4.00834L12 10.3333L16.7437 4.00834C16.5018 4.00038 16.2001 4 15.8 4H8.2C7.79989 4 7.49816 4.00038 7.25626 4.00834ZM17.9988 5.66825L13.25 12L17.9988 18.3318C17.9999 18.1759 18 18.0003 18 17.8V6.2C18 5.99971 17.9999 5.82407 17.9988 5.66825ZM16.7437 19.9917L12 13.6667L7.25626 19.9917C7.49816 19.9996 7.79989 20 8.2 20H15.8C16.2001 20 16.5018 19.9996 16.7437 19.9917ZM6.00119 18.3318L10.75 12L6.00119 5.66825C6.0001 5.82407 6 5.99971 6 6.2V17.8C6 18.0003 6.0001 18.1759 6.00119 18.3318Z" fill="#0000CC"/>
</svg>
