<svg width="24" height="24" viewBox="0 0 24 24" fill="none" xmlns="http://www.w3.org/2000/svg">
<path fill-rule="evenodd" clip-rule="evenodd" d="M3 7.8C3 6.11984 3 5.27976 3.32698 4.63803C3.6146 4.07354 4.07354 3.6146 4.63803 3.32698C5.27976 3 6.11984 3 7.8 3H16.2C17.8802 3 18.7202 3 19.362 3.32698C19.9265 3.6146 20.3854 4.07354 20.673 4.63803C21 5.27976 21 6.11984 21 7.8V13.0118C21 13.4457 21 13.7513 20.9829 14L18.1615 14C17.6343 14 17.1795 14 16.805 14.0306C16.4096 14.0629 16.0164 14.1342 15.638 14.327C15.0735 14.6146 14.6146 15.0735 14.327 15.638C14.1342 16.0164 14.0629 16.4096 14.0306 16.805C14 17.1795 14 17.6343 14 18.1615V20.9829C13.7513 21 13.4457 21 13.0118 21H7.8C6.11984 21 5.27976 21 4.63803 20.673C4.07354 20.3854 3.6146 19.9265 3.32698 19.362C3 18.7202 3 17.8802 3 16.2V7.8ZM13 10C13 9.44772 12.5523 9 12 9C11.4477 9 11 9.44772 11 10V11H10C9.44772 11 9 11.4477 9 12C9 12.5523 9.44772 13 10 13H11V14C11 14.5523 11.4477 15 12 15C12.5523 15 13 14.5523 13 14V13H14C14.5523 13 15 12.5523 15 12C15 11.4477 14.5523 11 14 11H13V10Z" fill="#0000CC"/>
<path d="M18.2 16H19.9968C19.8828 16.1172 19.7503 16.2497 19.5945 16.4055L16.4059 19.5941C16.2499 19.7501 16.1173 19.8827 16 19.9968V18.2C16 17.6234 16.0008 17.2512 16.0239 16.9678C16.0461 16.6962 16.0838 16.5955 16.109 16.546C16.2049 16.3578 16.3578 16.2049 16.546 16.109C16.5955 16.0838 16.6962 16.0461 16.9678 16.0239C17.2512 16.0008 17.6234 16 18.2 16Z" fill="#0000CC"/>
</svg>
