<svg width="24" height="24" viewBox="0 0 24 24" fill="none" xmlns="http://www.w3.org/2000/svg">
<path d="M9.8 2H11V22H9.8C8.11984 22 7.27976 22 6.63803 21.673C6.07354 21.3854 5.6146 20.9265 5.32698 20.362C5.05658 19.8313 5.00979 19.1649 5.00169 18H4C3.44772 18 3 17.5523 3 17C3 16.4477 3.44772 16 4 16H5V13H4C3.44772 13 3 12.5523 3 12C3 11.4477 3.44772 11 4 11H5V8H4C3.44772 8 3 7.55228 3 7C3 6.44772 3.44772 6 4 6H5.00169C5.00979 4.83507 5.05658 4.16873 5.32698 3.63803C5.6146 3.07354 6.07354 2.6146 6.63803 2.32698C7.27976 2 8.11984 2 9.8 2Z" fill="#0000CC"/>
<path d="M16.2 22H13V2H16.2C17.8802 2 18.7202 2 19.362 2.32698C19.9265 2.6146 20.3854 3.07354 20.673 3.63803C21 4.27976 21 5.11984 21 6.8V17.2C21 18.8802 21 19.7202 20.673 20.362C20.3854 20.9265 19.9265 21.3854 19.362 21.673C18.7202 22 17.8802 22 16.2 22Z" fill="#0000CC"/>
</svg>
