<svg width="24" height="24" viewBox="0 0 24 24" fill="none" xmlns="http://www.w3.org/2000/svg">
<path d="M4 3C3.44772 3 3 3.44772 3 4V20C3 20.5523 3.44772 21 4 21C4.55228 21 5 20.5523 5 20V4C5 3.44772 4.55228 3 4 3Z" fill="#0000CC"/>
<path d="M7.32698 8.63803C7 9.27976 7 10.1198 7 11.8V12.2C7 13.8802 7 14.7202 7.32698 15.362C7.6146 15.9265 8.07354 16.3854 8.63803 16.673C9.27976 17 10.1198 17 11.8 17H16.2C17.8802 17 18.7202 17 19.362 16.673C19.9265 16.3854 20.3854 15.9265 20.673 15.362C21 14.7202 21 13.8802 21 12.2V11.8C21 10.1198 21 9.27976 20.673 8.63803C20.3854 8.07354 19.9265 7.6146 19.362 7.32698C18.7202 7 17.8802 7 16.2 7H11.8C10.1198 7 9.27976 7 8.63803 7.32698C8.07354 7.6146 7.6146 8.07354 7.32698 8.63803Z" fill="#0000CC"/>
</svg>
