<svg width="24" height="24" viewBox="0 0 24 24" fill="none" xmlns="http://www.w3.org/2000/svg">
<path d="M3 2C2.44772 2 2 2.44772 2 3C2 3.55228 2.44772 4 3 4H21C21.5523 4 22 3.55228 22 3C22 2.44772 21.5523 2 21 2H3Z" fill="#0000CC"/>
<path d="M4 9.2C4 8.0799 4 7.51984 4.21799 7.09202C4.40973 6.71569 4.71569 6.40973 5.09202 6.21799C5.51984 6 6.0799 6 7.2 6H7.8C8.9201 6 9.48016 6 9.90798 6.21799C10.2843 6.40973 10.5903 6.71569 10.782 7.09202C11 7.51984 11 8.0799 11 9.2V18.8C11 19.9201 11 20.4802 10.782 20.908C10.5903 21.2843 10.2843 21.5903 9.90798 21.782C9.48016 22 8.9201 22 7.8 22H7.2C6.0799 22 5.51984 22 5.09202 21.782C4.71569 21.5903 4.40973 21.2843 4.21799 20.908C4 20.4802 4 19.9201 4 18.8V9.2Z" fill="#0000CC"/>
<path d="M13 9.2C13 8.0799 13 7.51984 13.218 7.09202C13.4097 6.71569 13.7157 6.40973 14.092 6.21799C14.5198 6 15.0799 6 16.2 6H16.8C17.9201 6 18.4802 6 18.908 6.21799C19.2843 6.40973 19.5903 6.71569 19.782 7.09202C20 7.51984 20 8.0799 20 9.2V12.8C20 13.9201 20 14.4802 19.782 14.908C19.5903 15.2843 19.2843 15.5903 18.908 15.782C18.4802 16 17.9201 16 16.8 16H16.2C15.0799 16 14.5198 16 14.092 15.782C13.7157 15.5903 13.4097 15.2843 13.218 14.908C13 14.4802 13 13.9201 13 12.8V9.2Z" fill="#0000CC"/>
</svg>
