<svg width="24" height="24" viewBox="0 0 24 24" fill="none" xmlns="http://www.w3.org/2000/svg">
<path fill-rule="evenodd" clip-rule="evenodd" d="M20.1891 4.46272C19.2629 2.37883 16.7847 1.48972 14.745 2.50956L14.553 2.60555C14.0748 2.84464 13.8693 3.41757 14.0864 3.90612L15.686 7.5052L13.8488 8.35312L12.9238 6.11765C12.7649 5.73364 12.385 5.48793 11.9696 5.50046C11.5542 5.51298 11.1899 5.78112 11.0544 6.17401L9.63187 10.2994L5 12.4372V10C5 9.44772 4.55228 9 4 9C3.44772 9 3 9.44772 3 10V20C2.44772 20 2 20.4477 2 21C2 21.5523 2.44772 22 3 22H6.97585C6.99188 22.0004 7.00788 22.0004 7.02384 22H17.9766C17.9923 22.0004 18.008 22.0004 18.0237 22H21C21.5523 22 22 21.5523 22 21C22 20.4477 21.5523 20 21 20H18.6682C17.5716 17.3499 16.4751 14.6999 15.3785 12.0498L13.5611 12.8886L14.8486 16H9.78171L10.3423 14.3742L7.82635 15.5354L6.28683 20H5V14.6399L16.4983 9.33301L18.0864 12.9061C18.1973 13.1557 18.4055 13.349 18.6625 13.4412C18.9196 13.5335 19.2032 13.5165 19.4474 13.3944L19.8833 13.1764C21.7961 12.2201 22.6183 9.92838 21.7497 7.97418L20.1891 4.46272ZM15.6762 18L16.5038 20H8.4024L9.09206 18H15.6762Z" fill="#0000CC"/>
</svg>
