<svg width="24" height="24" viewBox="0 0 24 24" fill="none" xmlns="http://www.w3.org/2000/svg">
<path fill-rule="evenodd" clip-rule="evenodd" d="M12.3699 2.15235C12.1262 2.10661 11.8761 2.10661 11.6323 2.15233C11.3509 2.20512 11.0959 2.33361 10.8933 2.43571L10.8384 2.46331L4.43773 5.66335L4.36994 5.69703C4.12257 5.81953 3.81167 5.97349 3.5716 6.21859C3.47532 6.31689 3.38973 6.42456 3.316 6.53975C3.23087 6.67272 3.16152 6.81573 3.10972 6.9659C2.99784 7.29024 2.99916 7.63717 3.00021 7.91321L3.0004 7.9889V16.0111L3.00021 16.0868C2.99916 16.3628 2.99784 16.7098 3.10972 17.0341C3.20639 17.3144 3.36416 17.5696 3.5716 17.7814C3.81167 18.0265 4.12257 18.1805 4.36994 18.303L4.43773 18.3367L10.8384 21.5367L10.8933 21.5643C11.0959 21.6664 11.3509 21.7949 11.6323 21.8477C11.7538 21.8705 11.8768 21.8819 11.9998 21.882C12.1237 21.8821 12.2476 21.8706 12.3699 21.8477C12.6514 21.7948 12.9064 21.6663 13.109 21.5642L13.1639 21.5366L14.4354 20.9008C13.5415 19.8581 13 18.5038 13 17.0175C13 15.8061 13.5158 14.83 13.8501 14.2914C14.2187 13.6974 14.6456 13.2022 14.905 12.9101C15.2384 12.5345 15.7511 12.0071 16.1384 11.6138C16.3408 11.4083 16.5249 11.2232 16.6584 11.0897C16.7252 11.0228 16.7796 10.9685 16.8176 10.9307L16.8785 10.8701C18.0114 9.74632 19.8218 9.70836 21.0004 10.7722V7.98882L21.0006 7.91314C21.0016 7.63712 21.003 7.29022 20.8911 6.9659C20.8393 6.81573 20.77 6.67274 20.6849 6.53977C20.6111 6.42459 20.5256 6.31692 20.4293 6.21862C20.1892 5.97352 19.8784 5.81954 19.631 5.69703L19.5632 5.66335L13.1639 2.46339L13.109 2.43579C12.9064 2.33368 12.6514 2.20517 12.3699 2.15235ZM11.9966 4.12392C11.9439 4.14688 11.8728 4.18202 11.7325 4.25218L6.23633 7.00003L8.00019 7.88196L13.7644 4.99987L12.2692 4.2522C12.1288 4.18203 12.0578 4.14688 12.005 4.12392L12.0008 4.1221L11.9966 4.12392ZM16.0003 6.11795L10.2363 8.99999L12.0002 9.88196L17.7642 6.99996L16.0003 6.11795ZM7.94739 11.8556C7.45341 11.6086 6.85274 11.8088 6.60575 12.3028C6.35876 12.7968 6.55899 13.3974 7.05297 13.6444L8.05297 14.1444C8.54694 14.3914 9.14762 14.1912 9.39461 13.6972C9.6416 13.2032 9.44137 12.6026 8.94739 12.3556L7.94739 11.8556Z" fill="#0000CC"/>
<path fill-rule="evenodd" clip-rule="evenodd" d="M18.287 12.29C18.6701 11.91 19.2857 11.9025 19.678 12.2731L19.6943 12.2886L19.7393 12.3313C19.7783 12.3683 19.8342 12.4216 19.9031 12.4874C20.0406 12.6189 20.2299 12.801 20.4369 13.0029C20.8424 13.3984 21.3441 13.8976 21.6462 14.2379C21.8996 14.5233 22.2223 14.918 22.486 15.3658C22.7403 15.7978 23 16.3791 23 17.0175C23 19.2225 21.2036 21 19 21C16.7964 21 15 19.2225 15 17.0175C15 16.3616 15.2856 15.7712 15.5495 15.3459C15.8248 14.9022 16.1586 14.5106 16.4006 14.2379C16.695 13.9063 17.173 13.4135 17.5634 13.0171C17.7616 12.8159 17.9421 12.6344 18.0732 12.5033C18.1387 12.4377 18.192 12.3846 18.2289 12.3478L18.287 12.29ZM19.0068 14.4017L18.9885 14.4203C18.5949 14.82 18.1516 15.2781 17.8962 15.5657C17.6715 15.8188 17.431 16.1069 17.2489 16.4004C17.0553 16.7124 17 16.917 17 17.0175C17 18.1068 17.8899 18.9999 19 18.9999C20.1101 18.9999 21 18.1068 21 17.0175C21 16.8995 20.9423 16.6858 20.7625 16.3805C20.5921 16.0911 20.364 15.806 20.1506 15.5657C19.9031 15.2868 19.4512 14.8351 19.0404 14.4345L19.0068 14.4017Z" fill="#0000CC"/>
</svg>
