<svg width="24" height="24" viewBox="0 0 24 24" fill="none" xmlns="http://www.w3.org/2000/svg">
<path fill-rule="evenodd" clip-rule="evenodd" d="M12.3699 2.15235C12.1262 2.10661 11.8761 2.10661 11.6323 2.15233C11.3509 2.20512 11.0959 2.33361 10.8933 2.43571L10.8384 2.46331L4.43773 5.66335L4.36994 5.69703C4.12257 5.81953 3.81167 5.97349 3.5716 6.21859C3.47532 6.31689 3.38973 6.42456 3.316 6.53975C3.23087 6.67272 3.16152 6.81573 3.10972 6.9659C2.99784 7.29024 2.99916 7.63717 3.00021 7.91321L3.0004 7.9889V16.0111L3.00021 16.0868C2.99916 16.3628 2.99784 16.7098 3.10972 17.0341C3.20639 17.3144 3.36416 17.5696 3.5716 17.7814C3.81167 18.0265 4.12257 18.1805 4.36994 18.303L4.43773 18.3367L10.8384 21.5367L10.8933 21.5643C11.0301 21.6333 11.1908 21.7143 11.3675 21.7758C9.92866 20.6798 9 18.9483 9 17C9 13.6863 11.6863 11 15 11C15.7684 11 16.4692 11.2889 17 11.7639C17.5308 11.2889 18.2316 11 19 11C19.7014 11 20.3747 11.1204 21.0004 11.3416V7.98882L21.0006 7.91314C21.0016 7.63712 21.003 7.29022 20.8911 6.9659C20.8393 6.81573 20.77 6.67274 20.6849 6.53977C20.6111 6.42459 20.5256 6.31692 20.4293 6.21862C20.1892 5.97352 19.8784 5.81954 19.631 5.69703L19.5632 5.66335L13.1639 2.46339L13.109 2.43579C12.9064 2.33368 12.6514 2.20517 12.3699 2.15235ZM11.9966 4.12392C11.9439 4.14688 11.8728 4.18202 11.7325 4.25218L6.23633 7.00003L8.00019 7.88196L13.7644 4.99987L12.2692 4.2522C12.1288 4.18203 12.0578 4.14688 12.005 4.12392L12.0008 4.1221L11.9966 4.12392ZM16.0003 6.11795L10.2363 8.99999L12.0002 9.88196L17.7642 6.99996L16.0003 6.11795ZM7.94739 11.8556C7.45341 11.6086 6.85274 11.8088 6.60575 12.3028C6.35876 12.7968 6.55899 13.3974 7.05297 13.6444L8.05297 14.1444C8.54694 14.3914 9.14762 14.1912 9.39461 13.6972C9.6416 13.2032 9.44137 12.6026 8.94739 12.3556L7.94739 11.8556Z" fill="#0000CC"/>
<path d="M13 17C13 15.8954 13.8954 15 15 15C15.5523 15 16 14.5523 16 14C16 13.4477 15.5523 13 15 13C12.7909 13 11 14.7909 11 17C11 19.2091 12.7909 21 15 21C15.5523 21 16 20.5523 16 20C16 19.4477 15.5523 19 15 19C13.8954 19 13 18.1046 13 17Z" fill="#0000CC"/>
<path d="M19 13C18.4477 13 18 13.4477 18 14C18 14.5523 18.4477 15 19 15C20.1046 15 21 15.8954 21 17C21 18.1046 20.1046 19 19 19C18.4477 19 18 19.4477 18 20C18 20.5523 18.4477 21 19 21C21.2091 21 23 19.2091 23 17C23 14.7909 21.2091 13 19 13Z" fill="#0000CC"/>
<path d="M15 16C14.4477 16 14 16.4477 14 17C14 17.5523 14.4477 18 15 18H19C19.5523 18 20 17.5523 20 17C20 16.4477 19.5523 16 19 16H15Z" fill="#0000CC"/>
</svg>
