<svg width="24" height="24" viewBox="0 0 24 24" fill="none" xmlns="http://www.w3.org/2000/svg">
<path fill-rule="evenodd" clip-rule="evenodd" d="M12.3699 2.15235C12.1262 2.10661 11.8761 2.10661 11.6323 2.15233C11.3509 2.20512 11.0959 2.33361 10.8933 2.43571L10.8384 2.46331L4.43773 5.66335L4.36994 5.69703C4.12257 5.81953 3.81167 5.97349 3.5716 6.21859C3.47532 6.31689 3.38973 6.42456 3.316 6.53975C3.23087 6.67272 3.16152 6.81573 3.10972 6.9659C2.99784 7.29024 2.99916 7.63717 3.00021 7.91321L3.0004 7.9889V16.0111L3.00021 16.0868C2.99916 16.3628 2.99784 16.7098 3.10972 17.0341C3.20639 17.3144 3.36416 17.5696 3.5716 17.7814C3.81167 18.0265 4.12257 18.1805 4.36994 18.303L4.43773 18.3367L10.8384 21.5367L10.8933 21.5643C11.0959 21.6664 11.3509 21.7949 11.6323 21.8477C11.7538 21.8705 11.8768 21.8819 11.9998 21.882C12.1237 21.8821 12.2476 21.8706 12.3699 21.8477C12.6514 21.7948 12.9064 21.6663 13.109 21.5642L13.1639 21.5366L15.0255 20.6057C13.4342 19.2674 12.5 17.209 12.5 15.0554C12.5 14.4721 12.5669 13.9007 12.695 13.3509C13.0259 11.931 14.3298 10.9545 15.7855 11.0365C15.7919 11.0369 15.7986 11.0371 15.8056 11.0371C15.8521 11.0371 15.8963 11.0283 15.9447 11.0073C15.9959 10.9852 16.0627 10.9443 16.1349 10.8725C17.305 9.70915 19.195 9.70917 20.3651 10.8725C20.4373 10.9443 20.5041 10.9852 20.5553 11.0074C20.6037 11.0284 20.6479 11.0371 20.6944 11.0371C20.6981 11.0371 20.7017 11.0371 20.7052 11.037C20.7084 11.0369 20.7115 11.0367 20.7145 11.0366C20.8105 11.0312 20.9059 11.0303 21.0004 11.034V7.98882L21.0006 7.91314C21.0016 7.63712 21.003 7.29022 20.8911 6.9659C20.8393 6.81573 20.77 6.67274 20.6849 6.53977C20.6111 6.42459 20.5256 6.31692 20.4293 6.21862C20.1892 5.97352 19.8784 5.81954 19.631 5.69703L19.5632 5.66335L13.1639 2.46339L13.109 2.43579C12.9064 2.33368 12.6514 2.20517 12.3699 2.15235ZM11.9966 4.12392C11.9439 4.14688 11.8728 4.18202 11.7325 4.25218L6.23633 7.00003L8.00019 7.88196L13.7644 4.99987L12.2692 4.2522C12.1288 4.18203 12.0578 4.14688 12.005 4.12392L12.0008 4.1221L11.9966 4.12392ZM16.0003 6.11795L10.2363 8.99999L12.0002 9.88196L17.7642 6.99996L16.0003 6.11795ZM7.94739 11.8556C7.45341 11.6086 6.85274 11.8088 6.60575 12.3028C6.35876 12.7968 6.55899 13.3974 7.05297 13.6444L8.05297 14.1444C8.54694 14.3914 9.14762 14.1912 9.39461 13.6972C9.6416 13.2032 9.44137 12.6026 8.94739 12.3556L7.94739 11.8556Z" fill="#0000CC"/>
<path fill-rule="evenodd" clip-rule="evenodd" d="M18.955 12.2908C18.565 11.9031 17.935 11.9031 17.5449 12.2908C17.0655 12.7675 16.4559 13.0371 15.8056 13.0371C15.761 13.0371 15.7168 13.0358 15.673 13.0334C15.1878 13.006 14.7531 13.3315 14.6429 13.8048C14.5493 14.2061 14.5 14.6253 14.5 15.0554C14.5 17.3477 15.9165 19.3729 17.9751 19.9615C18.1548 20.0128 18.3452 20.0128 18.5249 19.9615C20.5835 19.3729 22 17.3477 22 15.0554C22 14.6253 21.9507 14.2062 21.8572 13.8049C21.7469 13.3316 21.3122 13.0061 20.827 13.0334C20.7832 13.0359 20.739 13.0371 20.6944 13.0371C20.0441 13.0371 19.4345 12.7675 18.955 12.2908ZM16.5 15.0554C16.5 15.0306 16.5003 15.0059 16.5008 14.9812C17.1382 14.8778 17.7299 14.6349 18.25 14.2871C18.77 14.6349 19.3617 14.8778 19.9992 14.9813C19.9997 15.0059 20 15.0306 20 15.0554C20 16.432 19.2281 17.5241 18.25 17.9409C17.2719 17.5241 16.5 16.432 16.5 15.0554Z" fill="#0000CC"/>
</svg>
