<svg width="24" height="24" viewBox="0 0 24 24" fill="none" xmlns="http://www.w3.org/2000/svg">
<path fill-rule="evenodd" clip-rule="evenodd" d="M6.96802 2H13.032C13.4706 1.99999 13.8491 1.99998 14.1624 2.02135C14.4922 2.04386 14.8221 2.09336 15.1481 2.22836C15.8831 2.53284 16.4672 3.11687 16.7716 3.85195C16.9066 4.17788 16.9561 4.50779 16.9787 4.83762C16.9822 4.88994 16.9852 4.94408 16.9877 5.00002C17.4519 5.00026 17.8562 5.00289 18.195 5.03057C18.5904 5.06287 18.9836 5.13419 19.362 5.32698C19.9265 5.6146 20.3854 6.07354 20.673 6.63803C20.8658 7.01641 20.9371 7.40963 20.9694 7.80497C21 8.17954 21 8.6343 21 9.16144V9.83857C21 10.3657 21 10.8205 20.9694 11.195C20.9371 11.5904 20.8658 11.9836 20.673 12.362C20.3854 12.9265 19.9265 13.3854 19.362 13.673C18.9836 13.8658 18.5904 13.9371 18.195 13.9694C17.8205 14 17.3657 14 16.8385 14H14C13.5204 14 13.2107 14.0005 12.9738 14.0167C12.7458 14.0323 12.6589 14.0589 12.6173 14.0761C12.3723 14.1776 12.1776 14.3723 12.0761 14.6173C12.0589 14.6589 12.0323 14.7458 12.0167 14.9738C12.0159 14.9853 12.0152 14.997 12.0145 15.0089C12.057 15.011 12.0983 15.0137 12.1382 15.0169C12.3668 15.0356 12.6366 15.0797 12.908 15.218C13.2843 15.4097 13.5903 15.7157 13.782 16.092C13.9203 16.3634 13.9644 16.6332 13.9831 16.8618C14.0001 17.0699 14 17.3157 14 17.5681V19.4319C14 19.6843 14.0001 19.9301 13.9831 20.1382C13.9644 20.3668 13.9203 20.6366 13.782 20.908C13.5903 21.2843 13.2843 21.5903 12.908 21.782C12.6366 21.9203 12.3668 21.9644 12.1382 21.9831C11.9301 22.0001 11.6843 22 11.4319 22H10.5681C10.3157 22 10.0699 22.0001 9.86177 21.9831C9.63318 21.9644 9.36344 21.9203 9.09202 21.782C8.7157 21.5903 8.40974 21.2843 8.21799 20.908C8.07969 20.6366 8.03562 20.3668 8.01695 20.1382C7.99994 19.9301 7.99997 19.6843 8 19.4319V17.5681C7.99997 17.3157 7.99994 17.0699 8.01695 16.8618C8.03562 16.6332 8.07969 16.3634 8.21799 16.092C8.40974 15.7157 8.7157 15.4097 9.09202 15.218C9.36344 15.0797 9.63318 15.0356 9.86177 15.0169C9.90996 15.013 9.96016 15.01 10.012 15.0077C10.0145 14.949 10.0176 14.8923 10.0214 14.8376C10.0439 14.5078 10.0934 14.1779 10.2284 13.852C10.5328 13.1169 11.1169 12.5328 11.852 12.2284C12.1779 12.0934 12.5078 12.0439 12.8376 12.0214C13.1509 12 13.5294 12 13.968 12H16.8C17.3766 12 17.7488 11.9992 18.0322 11.9761C18.3038 11.9539 18.4045 11.9162 18.454 11.891C18.6422 11.7951 18.7951 11.6422 18.891 11.454C18.9162 11.4045 18.9539 11.3038 18.9761 11.0322C18.9992 10.7488 19 10.3766 19 9.8V9.2C19 8.62345 18.9992 8.25117 18.9761 7.96784C18.9539 7.69617 18.9162 7.59546 18.891 7.54601C18.7951 7.35785 18.6422 7.20487 18.454 7.10899C18.4045 7.0838 18.3038 7.04612 18.0322 7.02393C17.7808 7.00339 17.4595 7.00046 16.9877 7.00006C16.9852 7.05597 16.9822 7.11009 16.9787 7.16238C16.9561 7.49221 16.9066 7.82212 16.7716 8.14805C16.4672 8.88314 15.8831 9.46716 15.1481 9.77164C14.8221 9.90664 14.4922 9.95615 14.1624 9.97865C13.8491 10 13.4706 10 13.032 10H6.96801C6.52936 10 6.15088 10 5.83762 9.97865C5.50779 9.95615 5.17788 9.90664 4.85195 9.77164C4.11687 9.46716 3.53284 8.88314 3.22836 8.14805C3.09336 7.82212 3.04386 7.49221 3.02135 7.16238C2.99998 6.84913 2.99999 6.47064 3 6.03198V5.96802C2.99999 5.52937 2.99998 5.15088 3.02135 4.83762C3.04386 4.50779 3.09336 4.17788 3.22836 3.85195C3.53284 3.11687 4.11687 2.53284 4.85195 2.22836C5.17788 2.09336 5.50779 2.04386 5.83762 2.02135C6.15088 1.99998 6.52937 1.99999 6.96802 2Z" fill="#0000CC"/>
</svg>
