<svg width="24" height="24" viewBox="0 0 24 24" fill="none" xmlns="http://www.w3.org/2000/svg">
<path fill-rule="evenodd" clip-rule="evenodd" d="M12 2C6.47715 2 2 6.47715 2 12C2 17.5228 6.47715 22 12 22C14.2091 22 16 20.2091 16 18V17.4C16 16.9902 16.0031 16.9017 16.0123 16.8436C16.0801 16.4157 16.4157 16.0801 16.8436 16.0123C16.9017 16.0031 16.9902 16 17.4 16H18C20.2091 16 22 14.2091 22 12C22 6.47715 17.5228 2 12 2ZM9 7.5C9 6.67157 9.67157 6 10.5 6C11.3284 6 12 6.67157 12 7.5C12 8.32843 11.3284 9 10.5 9C9.67157 9 9 8.32842 9 7.5ZM14 8.5C14 7.67157 14.6716 7 15.5 7C16.3284 7 17 7.67157 17 8.5C17 9.32843 16.3284 10 15.5 10C14.6716 10 14 9.32843 14 8.5ZM7.5 10C6.67157 10 6 10.6716 6 11.5C6 12.3284 6.67157 13 7.5 13C8.32843 13 9 12.3284 9 11.5C9 10.6716 8.32843 10 7.5 10Z" fill="#0000CC"/>
</svg>
