<svg width="24" height="24" viewBox="0 0 24 24" fill="none" xmlns="http://www.w3.org/2000/svg">
<path fill-rule="evenodd" clip-rule="evenodd" d="M3.70711 2.29289C3.31658 1.90237 2.68342 1.90237 2.29289 2.29289C1.90237 2.68342 1.90237 3.31658 2.29289 3.70711L7.05046 8.46467L4.92923 10.5859C2.58609 12.929 2.58609 16.728 4.92923 19.0712C7.27238 21.4143 11.0714 21.4143 13.4145 19.0712L15.5357 16.95L20.2929 21.7071C20.6834 22.0976 21.3166 22.0976 21.7071 21.7071C22.0976 21.3166 22.0976 20.6834 21.7071 20.2929L3.70711 2.29289ZM14.1215 15.5357L13.1787 14.5929L11.0685 16.7032C10.0271 17.7446 8.33862 17.7446 7.29722 16.7032C6.25582 15.6618 6.25582 13.9733 7.29722 12.932L9.40748 10.8217L8.46467 9.87888L6.34345 12.0001C4.78135 13.5622 4.78135 16.0949 6.34345 17.657C7.90554 19.2191 10.4382 19.2191 12.0003 17.657L14.1215 15.5357ZM10.8217 12.2359L8.71143 14.3462C8.45108 14.6065 8.45108 15.0286 8.71143 15.289C8.97178 15.5493 9.39389 15.5493 9.65424 15.289L11.7645 13.1787L10.8217 12.2359Z" fill="#0000CC"/>
<path d="M14.5889 10.3543L16.4786 8.46457C17.3899 7.55335 17.3899 6.07596 16.4786 5.16474C15.5674 4.25352 14.09 4.25352 13.1788 5.16474L11.289 7.05451L9.87483 5.6403L11.7646 3.75053C13.4569 2.05826 16.2006 2.05825 17.8929 3.75053C19.5851 5.4428 19.5851 8.18651 17.8929 9.87879L16.0031 11.7686L14.5889 10.3543Z" fill="#0000CC"/>
<path d="M12.2318 7.99732L13.6461 9.41154L14.9329 8.12472C15.3234 7.7342 15.3234 7.10103 14.9329 6.71051C14.5424 6.31998 13.9092 6.31998 13.5187 6.71051L12.2318 7.99732Z" fill="#0000CC"/>
<path d="M18.3601 14.1256L16.9459 12.7114L19.1207 10.5366C19.5112 10.146 20.1444 10.146 20.5349 10.5366C20.9254 10.9271 20.9254 11.5602 20.5349 11.9508L18.3601 14.1256Z" fill="#0000CC"/>
</svg>
