<svg width="24" height="24" viewBox="0 0 24 24" fill="none" xmlns="http://www.w3.org/2000/svg">
<path fill-rule="evenodd" clip-rule="evenodd" d="M8.00001 2C7.561 2 7.17333 2.28632 7.04423 2.70591L3.04423 15.7059C2.9509 16.0092 3.00708 16.3388 3.19562 16.5941C3.38415 16.8494 3.68266 17 4.00001 17H7.18451L6.04423 20.7059C5.9509 21.0092 6.00708 21.3388 6.19562 21.5941C6.38415 21.8494 6.68266 22 7.00001 22H11C11.4372 22 11.8236 21.716 11.9543 21.2989L13.3007 17H16C18.7614 17 21 14.7614 21 12C21 9.94256 19.7581 8.17692 17.9835 7.40918C17.9944 7.27411 18 7.13763 18 7C18 4.23858 15.7614 2 13 2H8.00001ZM13 12H10.8155L8.35397 20H10.2653L11.6116 15.7011C11.7423 15.284 12.1288 15 12.5659 15H16C17.6569 15 19 13.6569 19 12C19 10.8546 18.3575 9.8578 17.4128 9.3525C16.5715 10.9275 14.9119 12 13 12Z" fill="#0000CC"/>
</svg>
