<svg width="24" height="24" viewBox="0 0 24 24" fill="none" xmlns="http://www.w3.org/2000/svg">
<path d="M9.23266 8.93952L15.1722 3H7.8C6.11984 3 5.27976 3 4.63803 3.32698C4.07354 3.6146 3.6146 4.07354 3.32698 4.63803C3 5.27976 3 6.11984 3 7.8V16.2C3 17.8802 3 18.7202 3.32698 19.362C3.6146 19.9265 4.07354 20.3854 4.63803 20.673C5.27976 21 6.11984 21 7.8 21H16.2C17.8802 21 18.7202 21 19.362 20.673C19.9265 20.3854 20.3854 19.9265 20.673 19.362C21 18.7202 21 17.8802 21 16.2V8.48595L14.6868 14.7992C14.0266 15.4599 13.5274 15.9594 12.9461 16.3653C12.4328 16.7237 11.8791 17.0206 11.2965 17.2499C11.1367 17.3128 10.9785 17.3686 10.8232 17.4185L10.7624 17.4381C10.4509 17.5384 10.0803 17.6577 9.7464 17.7258C9.35303 17.806 8.77965 17.8691 8.14578 17.651C7.68867 17.4937 7.32299 17.2295 7.06266 16.9822C6.80234 16.735 6.51964 16.3834 6.33905 15.9349C6.08908 15.3143 6.12181 14.7395 6.18162 14.342C6.23227 14.0053 6.33221 13.6298 6.41603 13.3148L6.43242 13.2532C6.48048 13.0722 6.53614 12.8869 6.60143 12.6993C6.82737 12.0502 7.13603 11.4329 7.51979 10.8626C7.95443 10.2168 8.50475 9.66687 9.23266 8.93952Z" fill="#0000CC"/>
<path d="M20.2394 6.41812L19.0359 7.62165L16.2074 4.79322L17.411 3.58969C18.192 2.80864 19.4583 2.80864 20.2394 3.58969C21.0204 4.37074 21.0204 5.63707 20.2394 6.41812Z" fill="#0000CC"/>
<path d="M10.7627 10.2379L14.7932 6.20744L17.6216 9.03586L13.3774 13.2801C12.6158 14.0417 12.235 14.4226 11.8012 14.7254C11.4162 14.9942 11.0009 15.2169 10.564 15.3889C10.4478 15.4346 10.3301 15.4762 10.2112 15.5145C9.4778 15.7502 9.11111 15.8681 8.79649 15.7598C8.55247 15.6759 8.29065 15.4272 8.19424 15.1878C8.06995 14.8792 8.16844 14.5083 8.36542 13.7665C8.40209 13.6284 8.44333 13.4917 8.49027 13.3568C8.65973 12.8699 8.89123 12.4069 9.17905 11.9792C9.5034 11.4973 9.92319 11.0775 10.7627 10.2379Z" fill="#0000CC"/>
</svg>
