<svg width="24" height="24" viewBox="0 0 24 24" fill="none" xmlns="http://www.w3.org/2000/svg">
<path d="M5.36746 14.9251L12.4363 7.85629C12.2021 7.62862 12.0042 7.44396 11.8248 7.29162C11.4894 7.00694 11.285 6.89432 11.118 6.84007C10.7163 6.70956 10.2837 6.70956 9.88197 6.84007C9.71503 6.89432 9.51058 7.00694 9.17525 7.29162C8.83098 7.58388 8.41869 7.99507 7.81299 8.60077L6.20711 10.2067C5.81658 10.5972 5.18342 10.5972 4.79289 10.2067C4.40237 9.81613 4.40237 9.18296 4.79289 8.79244L6.42799 7.15735C6.99718 6.58814 7.46694 6.11836 7.88089 5.76694C8.31083 5.40195 8.74589 5.10628 9.26393 4.93796C10.0673 4.67693 10.9327 4.67693 11.7361 4.93796C12.2541 5.10628 12.6892 5.40195 13.1191 5.76694C13.5331 6.11836 14.0028 6.58814 14.572 7.15734L17.3519 9.9374L17.3798 9.98391L8.69326 18.6704C7.9674 19.3963 7.55758 19.8061 7.08744 20.1344C6.67033 20.4256 6.22048 20.6669 5.74711 20.8532C5.21356 21.0632 4.64542 21.1778 3.63916 21.3808L3.0989 21.4898C2.93969 21.5219 2.77479 21.4747 2.65671 21.3632C2.53862 21.2517 2.48206 21.0898 2.50503 20.929L2.56083 20.5384C2.72079 19.4184 2.8111 18.7861 3.01808 18.1914C3.20166 17.664 3.45245 17.1624 3.76425 16.6991C4.1158 16.1767 4.56748 15.7251 5.36746 14.9251Z" fill="#0000CC"/>
<path d="M20.7678 6.59589L18.794 8.5697L15.2584 5.03416L17.2322 3.06036C18.2085 2.08405 19.7915 2.08405 20.7678 3.06036C21.7441 4.03667 21.7441 5.61958 20.7678 6.59589Z" fill="#0000CC"/>
</svg>
