<svg width="24" height="24" viewBox="0 0 24 24" fill="none" xmlns="http://www.w3.org/2000/svg">
<path fill-rule="evenodd" clip-rule="evenodd" d="M3.71128 2.29709C3.32307 1.90426 2.68992 1.90052 2.29709 2.28872C1.90426 2.67693 1.90052 3.31008 2.28872 3.70291L2.81649 4.23655C3.15649 4.58018 3.64886 5.07756 4.25843 5.69272C4.71459 6.15306 5.23641 6.67936 5.80914 7.25655C5.53611 7.47504 5.3029 7.73997 5.12055 8.03974C4.86676 8.45694 4.75495 8.94429 4.62786 9.49821L2.09009 20.4957L7.17217 15.4135C7.06103 15.1305 7.00001 14.8224 7.00001 14.5C7.00001 13.1193 8.11929 12 9.50001 12C10.1195 12 10.6864 12.2253 11.1231 12.5985C11.217 12.6926 11.311 12.7868 11.4052 12.8812C11.7762 13.3174 12 13.8826 12 14.5C12 15.8807 10.8807 17 9.50001 17C9.17755 17 8.86935 16.939 8.58634 16.8278L3.50447 21.9097L14.5016 19.372C15.0556 19.2449 15.5429 19.1331 15.9601 18.8793C16.2563 18.6991 16.5185 18.4693 16.7355 18.2004C18.0414 19.4965 19.2612 20.7001 20.3015 21.7156C20.6967 22.1014 21.3298 22.0937 21.7156 21.6985C22.1014 21.3033 22.0937 20.6702 21.6985 20.2844C18.7043 17.3615 14.209 12.8662 10.4588 9.09815C8.58442 7.21486 6.89745 5.5145 5.67907 4.28496C5.06989 3.6702 4.57788 3.17317 4.23819 2.82986L3.71128 2.29709Z" fill="#0000CC"/>
<path d="M20.5983 9.81574L19.4142 10.9999L12.9999 4.58572L14.1842 3.40148C14.3626 3.22303 14.5363 3.04924 14.6955 2.91409C14.8704 2.76566 15.0923 2.60608 15.382 2.51195C15.7837 2.38143 16.2164 2.38143 16.6181 2.51195C16.9078 2.60608 17.1297 2.76565 17.3045 2.91409C17.4637 3.04926 17.6375 3.22308 17.816 3.40157L20.5983 6.18391C20.7768 6.36236 20.9506 6.53614 21.0858 6.69536C21.2342 6.87021 21.3938 7.0921 21.4879 7.38181C21.6184 7.7835 21.6184 8.2162 21.4879 8.61788C21.3938 8.9076 21.2342 9.12949 21.0858 9.30434C20.9507 9.46346 20.7767 9.63741 20.5983 9.81574Z" fill="#0000CC"/>
<path d="M18.1819 14.0035L18.4946 12.9088L11.091 5.50523L10.0035 5.81593C10.4161 6.23099 10.8424 6.65961 11.2789 7.09815C13.4747 9.30446 15.926 11.7601 18.1819 14.0035Z" fill="#0000CC"/>
</svg>
