<svg width="24" height="24" viewBox="0 0 24 24" fill="none" xmlns="http://www.w3.org/2000/svg">
<path fill-rule="evenodd" clip-rule="evenodd" d="M12 20.5C12 19.9477 12.4173 19.5 12.932 19.5H20.388C20.9027 19.5 21.32 19.9477 21.32 20.5C21.32 21.0523 20.9027 21.5 20.388 21.5H12.932C12.4173 21.5 12 21.0523 12 20.5Z" fill="#0000CC"/>
<path d="M19.2655 8.09692L20.5913 6.77176C21.5676 5.79545 21.5677 4.21245 20.5914 3.23614C19.6151 2.25983 18.0322 2.25983 17.0559 3.23614L15.73 4.56138L19.2655 8.09692Z" fill="#0000CC"/>
<path d="M14.3154 5.97525L5.35282 14.9335C4.55282 15.7335 4.10115 16.1851 3.7496 16.7075C3.4378 17.1708 3.18701 17.6724 3.00343 18.1999C2.75083 18.9256 2.65027 19.7097 2.55881 20.4227C2.53618 20.5992 2.51407 20.7716 2.49038 20.9374C2.46695 21.1015 2.52632 21.2665 2.6489 21.378C2.77148 21.4895 2.94135 21.533 3.10246 21.4942C3.30997 21.4442 3.52747 21.3963 3.75098 21.3471C4.47467 21.1877 5.26127 21.0145 5.97527 20.7117C6.41375 20.5257 6.83046 20.2921 7.21791 20.0151C7.65452 19.703 8.03733 19.3201 8.71528 18.6421L17.851 9.5108L14.3154 5.97525Z" fill="#0000CC"/>
</svg>
