<svg width="24" height="24" viewBox="0 0 24 24" fill="none" xmlns="http://www.w3.org/2000/svg">
<path d="M14.4392 5.85365L5.36744 14.9254C4.56745 15.7253 4.1158 16.177 3.76425 16.6994C3.45245 17.1627 3.20166 17.6643 3.01808 18.1917C2.8111 18.7864 2.72079 19.4187 2.56083 20.5386L2.50503 20.9292C2.48206 21.09 2.53862 21.2519 2.65671 21.3635C2.77479 21.475 2.93969 21.5222 3.0989 21.4901L3.63916 21.3811C4.6454 21.1781 5.21357 21.0634 5.74711 20.8534C6.22048 20.6671 6.67033 20.4259 7.08744 20.1346C7.55758 19.8064 7.9674 19.3966 8.69324 18.6707L17.9747 9.38918L14.4392 5.85365Z" fill="#0000CC"/>
<path d="M19.3889 7.97497L20.5927 6.77118C21.569 5.79487 21.569 4.21196 20.5927 3.23565C19.6164 2.25934 18.0335 2.25934 17.0572 3.23565L15.8534 4.43943L19.3889 7.97497Z" fill="#0000CC"/>
</svg>
