<svg width="24" height="24" viewBox="0 0 24 24" fill="none" xmlns="http://www.w3.org/2000/svg">
<path fill-rule="evenodd" clip-rule="evenodd" d="M17.0536 3.24244C18.0299 2.26618 19.6128 2.26619 20.5891 3.24249C21.5654 4.2188 21.5654 5.80171 20.5891 6.77802L9.0867 18.2774C8.57444 18.7897 8.28515 19.079 7.96275 19.3292C7.67652 19.5514 7.37219 19.7493 7.05296 19.9207C6.69342 20.1139 6.31163 20.2609 5.63554 20.5212L3.17968 21.4668C2.99909 21.5363 2.79458 21.4954 2.65465 21.3617C2.51472 21.228 2.46448 21.0256 2.52567 20.842L3.32221 18.4524C3.57699 17.688 3.72086 17.2564 3.92231 16.8506C4.10113 16.4905 4.31299 16.1477 4.55516 15.8267C4.82797 15.465 5.14971 15.1433 5.71947 14.5736L17.0536 3.24244ZM5.75219 16.7301C5.77174 16.7042 5.79168 16.6785 5.81231 16.6526V17C5.81231 17.5523 6.26002 18 6.81231 18H7.21731C7.15673 18.053 7.10019 18.0996 7.04258 18.1443C6.82237 18.3153 6.58827 18.4675 6.34275 18.5993C6.07892 18.7411 5.79263 18.8532 5.06115 19.1349L4.61865 19.3052L4.7316 18.9664C5.00732 18.1392 5.11757 17.8154 5.26538 17.5178C5.40294 17.2407 5.5659 16.977 5.75219 16.7301Z" fill="#0000CC"/>
</svg>
