<svg width="24" height="24" viewBox="0 0 24 24" fill="none" xmlns="http://www.w3.org/2000/svg">
<path d="M11.9988 2C10.8942 2 9.99876 2.89543 9.99876 4C9.99876 5.10457 10.8942 6 11.9988 6C13.1033 6 13.9988 5.10457 13.9988 4C13.9988 2.89543 13.1033 2 11.9988 2Z" fill="#0000CC"/>
<path d="M9.99876 8C9.5399 8 9.13991 8.3123 9.02862 8.75746L7.64989 14.2724C7.31674 15.605 7.9274 16.9082 8.99876 17.5633V21C8.99876 21.5523 9.44648 22 9.99876 22C10.551 22 10.9988 21.5523 10.9988 21V18H12.9988V21C12.9988 21.5523 13.4465 22 13.9988 22C14.551 22 14.9988 21.5523 14.9988 21V17.5633C16.0701 16.9082 16.6808 15.605 16.3476 14.2724L14.9689 8.75746C14.8576 8.3123 14.4576 8 13.9988 8H9.99876Z" fill="#0000CC"/>
<path d="M6.23229 19.695C6.76947 19.5667 7.10094 19.0272 6.97265 18.49C6.64574 17.4335 6.61727 14.8775 7 13.0474C7.50404 10.6372 8.34281 8.32985 9.30052 6.45597C9.46225 6.13953 9.44977 5.74671 9.23426 5.43335C7.99194 3.62692 5.91214 2 3 2C2.44772 2 2 2.44772 2 3V3.03223C1.99998 4.51771 1.99995 6.72062 2.39322 8.75252C2.68992 10.2854 3.2487 11.9283 4.37778 13.0474C3.77139 13.6125 3.25904 14.2331 2.86765 14.9669C2.26947 16.0885 2 17.387 2 19C2 19.5523 2.44772 20 3 20C4.24979 20 5.30392 19.9167 6.23229 19.695Z" fill="#0000CC"/>
<path d="M17.7677 19.695C17.2305 19.5667 16.8991 19.0272 17.0274 18.49C17.3543 17.4335 17.3827 14.8775 17 13.0474C16.496 10.6372 15.6572 8.32985 14.6995 6.45597C14.5378 6.13953 14.5502 5.74671 14.7657 5.43335C16.0081 3.62692 18.0879 2 21 2C21.5523 2 22 2.44772 22 3V3.03223C22 4.51771 22.0001 6.72062 21.6068 8.75252C21.3101 10.2854 20.7513 11.9283 19.6222 13.0474C20.2286 13.6125 20.741 14.2331 21.1324 14.9669C21.7305 16.0885 22 17.387 22 19C22 19.5523 21.5523 20 21 20C19.7502 20 18.6961 19.9167 17.7677 19.695Z" fill="#0000CC"/>
</svg>
