<svg width="24" height="24" viewBox="0 0 24 24" fill="none" xmlns="http://www.w3.org/2000/svg">
<path d="M11.9988 2C10.8942 2 9.99876 2.89543 9.99876 4C9.99876 5.10457 10.8942 6 11.9988 6C13.1033 6 13.9988 5.10457 13.9988 4C13.9988 2.89543 13.1033 2 11.9988 2Z" fill="#0000CC"/>
<path d="M6.23229 19.695C6.76947 19.5667 7 19 7 18.5C7 18.5 6.97265 14 7 13.0474C7 8 8.34281 8.32985 9.30052 6.45597C9.46225 6.13953 9.44977 5.74671 9.23426 5.43335C7.99194 3.62692 5.91214 2 3 2C2.44772 2 2 2.44772 2 3V3.03223C1.99998 4.51771 1.99995 6.72062 2.39322 8.75252C2.68992 10.2854 3.2487 11.9283 4.37778 13.0474C3.77139 13.6125 3.25904 14.2331 2.86765 14.9669C2.26947 16.0885 2 17.387 2 19C2 19.5523 2.44772 20 3 20C4.24979 20 5.30392 19.9167 6.23229 19.695Z" fill="#0000CC"/>
<path fill-rule="evenodd" clip-rule="evenodd" d="M11 8C9.34315 8 8 9.34315 8 11V15C8 15.5523 8.44772 16 9 16V21C9 21.5523 9.44772 22 10 22C10.5523 22 11 21.5523 11 21V16H13V21C13 21.5523 13.4477 22 14 22C14.5523 22 15 21.5523 15 21V16C15.5523 16 16 15.5523 16 15V11C16 9.34315 14.6569 8 13 8H11Z" fill="#0000CC"/>
<path d="M17.7677 19.695C17.2305 19.5667 17 19 17 18.5C17 18.5 17.0274 14 17 13.0474C17 8 15.6572 8.32985 14.6995 6.45597C14.5378 6.13953 14.5502 5.74671 14.7657 5.43335C16.0081 3.62692 18.0879 2 21 2C21.5523 2 22 2.44772 22 3V3.03223C22 4.51771 22.0001 6.72062 21.6068 8.75252C21.3101 10.2854 20.7513 11.9283 19.6222 13.0474C20.2286 13.6125 20.741 14.2331 21.1324 14.9669C21.7305 16.0885 22 17.387 22 19C22 19.5523 21.5523 20 21 20C19.7502 20 18.6961 19.9167 17.7677 19.695Z" fill="#0000CC"/>
</svg>
