<svg width="24" height="24" viewBox="0 0 24 24" fill="none" xmlns="http://www.w3.org/2000/svg">
<path fill-rule="evenodd" clip-rule="evenodd" d="M12 4C9.48216 4 7.20729 5.03263 5.5727 6.70004C5.18607 7.09443 4.55294 7.10072 4.15855 6.7141C3.76417 6.32748 3.75787 5.69434 4.1445 5.29996C6.13975 3.26464 8.9231 2 12 2C15.077 2 17.8603 3.26464 19.8556 5.29996C20.2422 5.69434 20.2359 6.32748 19.8415 6.7141C19.4471 7.10072 18.814 7.09443 18.4274 6.70004C16.7928 5.03263 14.5179 4 12 4ZM12 8C10.5193 8 9.18988 8.6424 8.27292 9.66691C7.90459 10.0784 7.2724 10.1135 6.86087 9.74513C6.44935 9.37681 6.41432 8.74461 6.78265 8.33309C8.06297 6.9026 9.92674 6 12 6C14.0733 6 15.937 6.9026 17.2173 8.33309C17.5857 8.74461 17.5507 9.37681 17.1391 9.74513C16.7276 10.1135 16.0954 10.0784 15.7271 9.66691C14.8101 8.6424 13.4807 8 12 8ZM15.548 13.6011C17.906 14.2501 20.1626 15.5607 22.142 17.5111C22.4688 17.8331 22.5346 18.3363 22.3014 18.7315L21.7032 19.7456C21.529 20.0409 21.3707 20.3092 21.2204 20.5243C21.0582 20.7566 20.8644 20.9886 20.594 21.1765C20.1984 21.4514 19.7317 21.6061 19.2503 21.622C18.9211 21.6329 18.6271 21.5626 18.3583 21.4733C18.1093 21.3905 17.822 21.2699 17.5059 21.1371L16.7751 20.8303C16.7455 20.8179 16.7159 20.8055 16.6862 20.7931C16.3142 20.6378 15.9403 20.4816 15.6374 20.2214C15.3732 19.9942 15.1593 19.7144 15.0096 19.3998C14.838 19.0392 14.7855 18.6373 14.7333 18.2376C14.7292 18.2057 14.725 18.1739 14.7208 18.1421L14.7203 18.1387L14.3631 15.3702C13.5689 15.2013 12.7689 15.1206 11.9724 15.1264C11.0077 15.1336 10.0398 15.2678 9.08521 15.5316L9.10342 17.8426C9.10369 17.8795 9.10405 17.9169 9.1044 17.9538C9.10879 18.4121 9.1132 18.8723 8.96277 19.2943C8.8317 19.6621 8.61633 19.994 8.3339 20.2635C8.00976 20.5729 7.58775 20.7564 7.16739 20.9391C7.13354 20.9538 7.09969 20.9685 7.0659 20.9833L6.52839 21.2184C6.21427 21.3558 5.92887 21.4806 5.68113 21.5671C5.41365 21.6604 5.12067 21.735 4.79141 21.729C4.30975 21.7202 3.8409 21.5724 3.44126 21.3034C3.16806 21.1195 2.97085 20.8904 2.80523 20.6605C2.65182 20.4477 2.48958 20.1817 2.31103 19.889L1.69768 18.8839C1.45863 18.4922 1.51689 17.988 1.83898 17.6611C3.61152 15.8622 5.62071 14.5883 7.73497 13.8577C7.74755 13.853 7.76024 13.8487 7.77305 13.8446C9.13633 13.3779 10.5429 13.1369 11.9576 13.1265C13.1534 13.1177 14.3458 13.2736 15.5135 13.5917C15.5251 13.5946 15.5366 13.5978 15.548 13.6011Z" fill="#0000CC"/>
</svg>
