<svg width="24" height="24" viewBox="0 0 24 24" fill="none" xmlns="http://www.w3.org/2000/svg">
<path fill-rule="evenodd" clip-rule="evenodd" d="M18.0002 2C18.5525 2 19.0002 2.44772 19.0002 3V5H21.0002C21.5525 5 22.0002 5.44772 22.0002 6C22.0002 6.55228 21.5525 7 21.0002 7H19.0002V9C19.0002 9.55228 18.5525 10 18.0002 10C17.4479 10 17.0002 9.55228 17.0002 9V7H15.0002C14.4479 7 14.0002 6.55228 14.0002 6C14.0002 5.44772 14.4479 5 15.0002 5H17.0002V3C17.0002 2.44772 17.4479 2 18.0002 2ZM6.35057 12.8633L8.92821 9.72084C8.9337 9.71416 8.93909 9.7074 8.9444 9.70058C8.96411 9.67524 8.98388 9.64992 9.00366 9.62459C9.25176 9.30688 9.50121 8.98745 9.6376 8.61214C9.75662 8.28465 9.80586 7.9359 9.78217 7.58826C9.75502 7.18986 9.60377 6.81386 9.45333 6.43988C9.44133 6.41006 9.42934 6.38025 9.41742 6.35045L8.69445 4.54302C8.56714 4.22468 8.45146 3.93543 8.33565 3.69999C8.2106 3.44579 8.05431 3.18699 7.81555 2.96018C7.46627 2.62841 7.02858 2.40461 6.55512 2.31571C6.23146 2.25494 5.93014 2.27977 5.65086 2.32723C5.39218 2.37119 5.08996 2.44676 4.75733 2.52994C4.74668 2.53261 4.736 2.53528 4.72529 2.53795L2.75792 3.02987C2.31277 3.14117 2.00049 3.54114 2.00049 4C2.00049 7.44708 2.79597 10.5795 4.25287 13.232C4.25853 13.2427 4.2644 13.2534 4.27047 13.2639C5.02493 14.6305 5.95533 15.8692 7.04326 16.9571C8.29262 18.2065 9.74071 19.2481 11.3531 20.0541C11.3649 20.0603 11.3768 20.0662 11.3888 20.0719C13.9045 21.3221 16.8184 22 20.0005 22C20.4594 22 20.8594 21.6876 20.9707 21.2424L21.4702 19.243C21.5534 18.9103 21.629 18.6081 21.673 18.3494C21.7204 18.0701 21.7453 17.7688 21.6845 17.4451C21.5956 16.9716 21.3718 16.5339 21.04 16.1847C20.8132 15.9459 20.5544 15.7896 20.3002 15.6646C20.0648 15.5487 19.7755 15.4331 19.4572 15.3058L17.841 14.6593C17.8067 14.6456 17.7725 14.6318 17.7382 14.618C17.313 14.4468 16.8862 14.275 16.4383 14.2612C16.0481 14.2492 15.6605 14.3288 15.3065 14.4935C14.9003 14.6826 14.5756 15.0087 14.2522 15.3335C14.2265 15.3594 14.2007 15.3853 14.1749 15.4111L14.1741 15.4119L11.6333 17.94C10.4526 17.2798 9.38885 16.4743 8.45749 15.5429C7.65847 14.7439 6.95204 13.8474 6.35057 12.8633Z" fill="#0000CC"/>
</svg>
