<svg width="24" height="24" viewBox="0 0 24 24" fill="none" xmlns="http://www.w3.org/2000/svg">
<path d="M6 4C6 3.53501 6 3.30252 6.05111 3.11177C6.18981 2.59413 6.59413 2.18981 7.11177 2.05111C7.30252 2 7.53501 2 8 2C8.46499 2 8.69748 2 8.88823 2.05111C9.40587 2.18981 9.81019 2.59413 9.94889 3.11177C10 3.30252 10 3.53501 10 4V15C10 15.465 10 15.6975 9.94889 15.8882C9.81019 16.4059 9.40587 16.8102 8.88823 16.9489C8.69748 17 8.46499 17 8 17C7.53501 17 7.30252 17 7.11177 16.9489C6.59413 16.8102 6.18981 16.4059 6.05111 15.8882C6 15.6975 6 15.465 6 15V4Z" fill="#0000CC"/>
<path fill-rule="evenodd" clip-rule="evenodd" d="M3.63803 4.32698C3.99429 4.14546 4.41168 4.06471 5 4.02878V15C5 15.9319 5 16.3978 5.15224 16.7654C5.35523 17.2554 5.74458 17.6448 6.23463 17.8478C6.60218 18 7.06812 18 8 18C8.93188 18 9.39782 18 9.76537 17.8478C10.2554 17.6448 10.6448 17.2554 10.8478 16.7654C11 16.3978 11 15.9319 11 15V4H17.2C18.8802 4 19.7202 4 20.362 4.32698C20.9265 4.6146 21.3854 5.07354 21.673 5.63803C22 6.27976 22 7.11984 22 8.8V17.2C22 18.8802 22 19.7202 21.673 20.362C21.3854 20.9265 20.9265 21.3854 20.362 21.673C19.7202 22 18.8802 22 17.2 22H6.8C5.11984 22 4.27976 22 3.63803 21.673C3.07354 21.3854 2.6146 20.9265 2.32698 20.362C2 19.7202 2 18.8802 2 17.2V8.8C2 7.11984 2 6.27976 2.32698 5.63803C2.6146 5.07354 3.07354 4.6146 3.63803 4.32698ZM14 8.6C14 8.03995 14 7.75992 14.109 7.54601C14.2049 7.35785 14.3578 7.20487 14.546 7.10899C14.7599 7 15.0399 7 15.6 7H17.4C17.9601 7 18.2401 7 18.454 7.10899C18.6422 7.20487 18.7951 7.35785 18.891 7.54601C19 7.75992 19 8.03995 19 8.6V9.4C19 9.96005 19 10.2401 18.891 10.454C18.7951 10.6422 18.6422 10.7951 18.454 10.891C18.2401 11 17.9601 11 17.4 11H15.6C15.0399 11 14.7599 11 14.546 10.891C14.3578 10.7951 14.2049 10.6422 14.109 10.454C14 10.2401 14 9.96005 14 9.4V8.6ZM15 15C15.5523 15 16 14.5523 16 14C16 13.4477 15.5523 13 15 13C14.4477 13 14 13.4477 14 14C14 14.5523 14.4477 15 15 15ZM15 18C15.5523 18 16 17.5523 16 17C16 16.4477 15.5523 16 15 16C14.4477 16 14 16.4477 14 17C14 17.5523 14.4477 18 15 18ZM19 14C19 14.5523 18.5523 15 18 15C17.4477 15 17 14.5523 17 14C17 13.4477 17.4477 13 18 13C18.5523 13 19 13.4477 19 14ZM18 18C18.5523 18 19 17.5523 19 17C19 16.4477 18.5523 16 18 16C17.4477 16 17 16.4477 17 17C17 17.5523 17.4477 18 18 18Z" fill="#0000CC"/>
</svg>
