<svg width="24" height="24" viewBox="0 0 24 24" fill="none" xmlns="http://www.w3.org/2000/svg">
<path d="M12.0008 4C9.48294 4 7.20807 5.03263 5.57347 6.70004C5.18685 7.09443 4.55372 7.10072 4.15933 6.7141C3.76494 6.32748 3.75865 5.69434 4.14528 5.29996C6.14053 3.26464 8.92388 2 12.0008 2C15.0777 2 17.8611 3.26464 19.8563 5.29996C20.243 5.69434 20.2367 6.32748 19.8423 6.7141C19.4479 7.10072 18.8148 7.09443 18.4281 6.70004C16.7935 5.03263 14.5187 4 12.0008 4Z" fill="#0000CC"/>
<path d="M12.0008 8C10.52 8 9.19066 8.6424 8.2737 9.66691C7.90537 10.0784 7.27318 10.1135 6.86165 9.74513C6.45012 9.37681 6.4151 8.74461 6.78343 8.33309C8.06375 6.9026 9.92752 6 12.0008 6C14.074 6 15.9378 6.9026 17.2181 8.33309C17.5865 8.74461 17.5514 9.37681 17.1399 9.74513C16.7284 10.1135 16.0962 10.0784 15.7279 9.66691C14.8109 8.6424 13.4815 8 12.0008 8Z" fill="#0000CC"/>
<path d="M9.87613 17.5903L9.65753 16.6025C11.1846 16.1716 12.8175 16.1792 14.3419 16.6227L14.1266 17.6164L14.1242 17.6259C14.0721 17.83 14.0205 18.0326 13.9892 18.2096C13.9542 18.4069 13.9309 18.6401 13.9738 18.8992C14.0343 19.2643 14.1949 19.6055 14.4378 19.8848C14.6102 20.0829 14.8048 20.2135 14.9791 20.3123C15.1355 20.401 15.3245 20.4902 15.515 20.5801L17.4933 21.5144L17.5706 21.5512C17.8496 21.6844 18.1998 21.8516 18.5784 21.8799C18.905 21.9043 19.2325 21.8481 19.5324 21.7163C19.8799 21.5635 20.1544 21.2892 20.3731 21.0707L20.4337 21.0103L21.6294 19.8255C21.6433 19.8117 21.6576 19.7977 21.6721 19.7834C21.6813 19.7744 21.6906 19.7652 21.7 19.756C21.9637 19.4974 22.3006 19.1669 22.4562 18.7181C22.5851 18.3461 22.5982 17.8991 22.4913 17.5202C22.3627 17.0645 22.0679 16.7391 21.8416 16.4894L21.7856 16.4274C21.6391 16.2641 21.4878 16.1037 21.3318 15.9462C16.2071 10.7743 7.86006 10.736 2.68813 15.8607C2.5307 16.0167 2.37797 16.1758 2.22996 16.3377L2.1734 16.3992C1.94482 16.6468 1.64707 16.9695 1.51432 17.424C1.40396 17.8019 1.41295 18.249 1.53844 18.6222C1.68985 19.0724 2.02378 19.406 2.28504 19.667C2.30905 19.691 2.33244 19.7143 2.35503 19.7371L3.53983 20.9328L3.59987 20.9938C3.81657 21.2143 4.08853 21.4911 4.43463 21.6471C4.73322 21.7816 5.06028 21.8408 5.38709 21.8194C5.76589 21.7946 6.11762 21.6306 6.39782 21.5L6.47541 21.4639L8.46213 20.5478C8.65351 20.4596 8.84332 20.3721 9.00058 20.2849C9.17577 20.1877 9.3716 20.0589 9.54574 19.8624C9.79118 19.5853 9.95494 19.2456 10.0188 18.881C10.0641 18.6224 10.0429 18.389 10.0098 18.1914C9.98005 18.014 9.93027 17.8111 9.88008 17.6064L9.87613 17.5903Z" fill="#0000CC"/>
</svg>
