<svg width="24" height="24" viewBox="0 0 24 24" fill="none" xmlns="http://www.w3.org/2000/svg">
<path fill-rule="evenodd" clip-rule="evenodd" d="M17.3641 12.8727C16.4817 11.7911 15.5759 10.7247 14.7168 9.6246C14.4687 9.3069 14.2192 8.98746 14.0828 8.61215C13.9638 8.28467 13.9146 7.93591 13.9383 7.58828C13.9654 7.18987 14.1167 6.81387 14.2671 6.43989C14.6335 5.52909 14.951 4.58185 15.3848 3.70001C15.5098 3.4458 15.6661 3.187 15.9049 2.9602C16.2542 2.62842 16.6919 2.40462 17.1653 2.31572C17.489 2.25495 17.7903 2.27978 18.0696 2.32724C18.3283 2.3712 18.6305 2.44678 18.9631 2.52996C19.6296 2.69661 20.296 2.86324 20.9625 3.02988C21.4077 3.14118 21.7199 3.54116 21.7199 4.00001C21.7199 7.1814 21.0437 10.4971 19.4433 13.2761C17.825 16.2017 15.3875 18.5409 12.3818 20.0469C9.7507 21.4282 6.67016 22 3.71995 22C3.26103 22 2.86102 21.6876 2.74977 21.2424C2.51045 20.2846 2.21307 19.3238 2.04746 18.3494C1.99999 18.0701 1.97517 17.7688 2.03594 17.4451C2.12484 16.9716 2.34863 16.534 2.68041 16.1847C2.90721 15.9459 3.16602 15.7896 3.42022 15.6646C4.24501 15.2589 5.13047 14.9609 5.98219 14.618C6.4074 14.4469 6.83428 14.275 7.28214 14.2612C7.67236 14.2493 8.05996 14.3288 8.41391 14.4936C8.82013 14.6826 9.1448 15.0087 9.46821 15.3336C10.3379 16.2071 11.2213 17.0674 12.098 17.934C14.2834 16.7096 16.0642 14.9961 17.3641 12.8727Z" fill="#0000CC"/>
</svg>
