<svg width="24" height="24" viewBox="0 0 24 24" fill="none" xmlns="http://www.w3.org/2000/svg">
<path fill-rule="evenodd" clip-rule="evenodd" d="M21.7071 2.29289C22.0976 2.68342 22.0976 3.31658 21.7071 3.70711L3.70711 21.7071C3.31658 22.0976 2.68342 22.0976 2.29289 21.7071C1.90237 21.3166 1.90237 20.6834 2.29289 20.2929L6.3576 16.2282C5.57889 15.3474 4.89456 14.3815 4.31282 13.3406C4.30682 13.3302 4.30101 13.3198 4.29539 13.3093C2.81132 10.6405 2.00028 7.48063 2.00028 4C2.00028 3.54114 2.31256 3.14117 2.75771 3.02987L4.72504 2.53796C4.73576 2.53528 4.74647 2.53261 4.75712 2.52994C5.08975 2.44676 5.39197 2.37119 5.65065 2.32723C5.92993 2.27977 6.23125 2.25494 6.55491 2.31571C7.02837 2.40461 7.46606 2.62841 7.81534 2.96018C8.0541 3.18699 8.21039 3.44579 8.33544 3.69999C8.45125 3.93543 8.56693 4.22468 8.69424 4.54302L9.41721 6.35045C9.42913 6.38025 9.44112 6.41006 9.45312 6.43988C9.60356 6.81386 9.75481 7.18986 9.78196 7.58826C9.80565 7.9359 9.75641 8.28465 9.63739 8.61214C9.501 8.98745 9.25155 9.30688 9.00345 9.62459C8.98367 9.64992 8.9639 9.67524 8.94419 9.70058L8.93812 9.70838L6.38678 12.9226C6.80168 13.5943 7.26571 14.2248 7.77491 14.8109L20.2929 2.29289C20.6834 1.90237 21.3166 1.90237 21.7071 2.29289ZM15.3063 14.4935C15.6603 14.3288 16.0479 14.2492 16.4381 14.2612C16.8859 14.275 17.3128 14.4468 17.738 14.618C17.7723 14.6318 17.8065 14.6456 17.8408 14.6593L19.457 15.3058C19.7753 15.4331 20.0646 15.5488 20.3 15.6646C20.5542 15.7896 20.813 15.9459 21.0398 16.1847C21.3716 16.5339 21.5954 16.9716 21.6843 17.4451C21.7451 17.7688 21.7202 18.0701 21.6728 18.3494C21.6288 18.6081 21.5532 18.9103 21.47 19.243L20.9705 21.2424C20.8592 21.6876 20.4592 22 20.0003 22C16.8144 22 13.8954 21.321 11.3732 20.0642C11.3591 20.0575 11.345 20.0505 11.3311 20.0431C11.0231 19.8886 10.7211 19.7254 10.4252 19.5538C9.9475 19.2767 9.78487 18.6648 10.062 18.187C10.3391 17.7093 10.951 17.5467 11.4287 17.8238C11.4918 17.8604 11.5553 17.8966 11.619 17.9323L14.1762 15.4095C14.2015 15.3843 14.2268 15.3589 14.252 15.3335C14.5754 15.0087 14.9001 14.6826 15.3063 14.4935Z" fill="#0000CC"/>
</svg>
