<svg width="24" height="24" viewBox="0 0 24 24" fill="none" xmlns="http://www.w3.org/2000/svg">
<path d="M4 3C2.89543 3 2 3.89543 2 5V19C2 20.1046 2.89543 21 4 21C5.10457 21 6 20.1046 6 19V5C6 3.89543 5.10457 3 4 3Z" fill="#0000CC"/>
<path fill-rule="evenodd" clip-rule="evenodd" d="M7 6.2C7 5.0799 7 4.51984 7.21799 4.09202C7.40973 3.71569 7.71569 3.40973 8.09202 3.21799C8.51984 3 9.0799 3 10.2 3H18.8C19.9201 3 20.4802 3 20.908 3.21799C21.2843 3.40973 21.5903 3.71569 21.782 4.09202C22 4.51984 22 5.0799 22 6.2V17.8C22 18.9201 22 19.4802 21.782 19.908C21.5903 20.2843 21.2843 20.5903 20.908 20.782C20.4802 21 19.9201 21 18.8 21H10.2C9.0799 21 8.51984 21 8.09202 20.782C7.71569 20.5903 7.40973 20.2843 7.21799 19.908C7 19.4802 7 18.9201 7 17.8V6.2ZM9.10899 6.54601C9 6.75992 9 7.03995 9 7.6V9.4C9 9.96005 9 10.2401 9.10899 10.454C9.20487 10.6422 9.35785 10.7951 9.54601 10.891C9.75992 11 10.0399 11 10.6 11H18.4C18.9601 11 19.2401 11 19.454 10.891C19.6422 10.7951 19.7951 10.6422 19.891 10.454C20 10.2401 20 9.96005 20 9.4V7.6C20 7.03995 20 6.75992 19.891 6.54601C19.7951 6.35785 19.6422 6.20487 19.454 6.10899C19.2401 6 18.9601 6 18.4 6H10.6C10.0399 6 9.75992 6 9.54601 6.10899C9.35785 6.20487 9.20487 6.35785 9.10899 6.54601ZM11.5 18C12.8807 18 14 16.8807 14 15.5C14 14.1193 12.8807 13 11.5 13C10.1193 13 9 14.1193 9 15.5C9 16.8807 10.1193 18 11.5 18ZM16 13C15.4477 13 15 13.4477 15 14C15 14.5523 15.4477 15 16 15H19C19.5523 15 20 14.5523 20 14C20 13.4477 19.5523 13 19 13H16ZM16 16C15.4477 16 15 16.4477 15 17C15 17.5523 15.4477 18 16 18H19C19.5523 18 20 17.5523 20 17C20 16.4477 19.5523 16 19 16H16Z" fill="#0000CC"/>
</svg>
