<svg width="24" height="24" viewBox="0 0 24 24" fill="none" xmlns="http://www.w3.org/2000/svg">
<path d="M4.46181 1.9994C4.49612 1.99957 4.52956 1.99974 4.56201 1.99974H7.37932L7.46487 1.9995C7.77404 1.9982 8.16208 1.99657 8.51647 2.13264C8.82222 2.25004 9.09445 2.44072 9.30926 2.68793C9.55826 2.97449 9.68933 3.33972 9.79377 3.63072L9.82278 3.71121L10.9984 6.94426C11.0705 7.14226 11.1419 7.33863 11.1906 7.51171C11.2449 7.70456 11.2912 7.93432 11.2742 8.19636C11.2501 8.56571 11.1241 8.92113 10.9101 9.22309C10.7582 9.43733 10.5775 9.58656 10.4138 9.70212C10.2669 9.80584 10.0877 9.91334 9.90701 10.0217L9.89392 10.0296L8.17169 11.123C9.21773 13.1293 10.8708 14.7837 12.8766 15.8283L13.9702 14.1058L13.978 14.0927C14.0864 13.912 14.1939 13.7328 14.2976 13.5859C14.4132 13.4223 14.5624 13.2415 14.7766 13.0897C15.0786 12.8756 15.434 12.7496 15.8034 12.7256C16.0654 12.7085 16.2952 12.7549 16.488 12.8091C16.6611 12.8578 16.8575 12.9293 17.0555 13.0013L20.2885 14.177L20.369 14.206C20.66 14.3104 21.0253 14.4415 21.3118 14.6905C21.559 14.9053 21.7497 15.1775 21.8671 15.4833C22.0032 15.8377 22.0015 16.2257 22.0002 16.5349L22 16.6204V19.4377L22.0001 19.4739L22.0003 19.5379C22.0022 19.9071 22.0046 20.3769 21.8015 20.7981C21.6319 21.1498 21.3363 21.4678 20.9979 21.6627C20.5937 21.8954 20.151 21.9257 19.8089 21.9491L19.7213 21.9552C19.3179 21.9847 18.9106 21.9997 18.5 21.9997C9.3873 21.9997 2 14.6124 2 5.49974C2 5.08913 2.01502 4.68185 2.04456 4.27843L2.05068 4.19088C2.07407 3.84875 2.10433 3.40605 2.33708 3.0018C2.53191 2.66342 2.84993 2.36784 3.20164 2.19824C3.62284 1.99514 4.0926 1.99752 4.46181 1.9994Z" fill="#0000CC"/>
<path fill-rule="evenodd" clip-rule="evenodd" d="M15 4.99976C15 3.3429 16.3431 1.99976 18 1.99976C19.6569 1.99976 21 3.3429 21 4.99976V5.2677C21.3792 5.48661 21.6784 5.82543 21.8478 6.23439C21.9447 6.46843 21.9752 6.69416 21.9882 6.88453C22 7.05861 22 7.26323 22 7.47328V7.52624C22 7.73628 22 7.9409 21.9882 8.11498C21.9752 8.30535 21.9447 8.53108 21.8478 8.76512C21.6448 9.25518 21.2554 9.64453 20.7654 9.84752C20.5313 9.94446 20.3056 9.97493 20.1152 9.98792C19.9411 9.9998 19.7365 9.99978 19.5265 9.99976H16.4735C16.2635 9.99978 16.0589 9.9998 15.8848 9.98792C15.6944 9.97493 15.4687 9.94446 15.2346 9.84752C14.7446 9.64453 14.3552 9.25518 14.1522 8.76512C14.0553 8.53108 14.0248 8.30535 14.0118 8.11498C14 7.94091 14 7.73627 14 7.52623V7.47325C14 7.26322 14 7.0586 14.0118 6.88453C14.0248 6.69416 14.0553 6.46843 14.1522 6.23439C14.3216 5.82543 14.6208 5.48661 15 5.2677V4.99976ZM19 4.99976C19 4.44747 18.5523 3.99976 18 3.99976C17.4477 3.99976 17 4.44747 17 4.99976L19 4.99976Z" fill="#0000CC"/>
</svg>
