<svg width="24" height="24" viewBox="0 0 24 24" fill="none" xmlns="http://www.w3.org/2000/svg">
<path fill-rule="evenodd" clip-rule="evenodd" d="M19.4387 1.99998C19.4712 1.99998 19.5046 1.99981 19.5389 1.99964C19.9081 1.99777 20.3779 1.99538 20.7991 2.19849C21.1508 2.36808 21.4688 2.66367 21.6636 3.00205C21.8964 3.4063 21.9266 3.849 21.95 4.19112L21.9562 4.27868C21.9857 4.68209 22.0007 5.08937 22.0007 5.49998C22.0007 14.6127 14.6134 22 5.50072 22C5.09011 22 4.68282 21.985 4.27941 21.9554L4.19186 21.9493C3.84973 21.9259 3.40703 21.8957 3.00278 21.6629C2.66439 21.4681 2.36881 21.15 2.19922 20.7983C1.99611 20.3771 1.9985 19.9074 2.00037 19.5382C2.00048 19.5165 2.00059 19.4951 2.00065 19.4742C2.00069 19.462 2.00072 19.4499 2.00072 19.438V16.6207L2.00047 16.5351C1.99917 16.2259 1.99754 15.8379 2.13362 15.4835C2.25101 15.1778 2.44169 14.9055 2.68891 14.6907C2.97546 14.4417 3.34069 14.3106 3.6317 14.2062L3.71218 14.1772L6.94521 13.0016C7.1432 12.9295 7.33962 12.8581 7.51268 12.8094C7.70553 12.7551 7.9353 12.7088 8.19734 12.7258C8.56668 12.7498 8.92211 12.8759 9.22407 13.0899C9.4383 13.2418 9.58753 13.4225 9.7031 13.5862C9.80682 13.7331 9.91431 13.9123 10.0227 14.093L10.0306 14.1061L11.1241 15.8285C13.1299 14.784 14.783 13.1295 15.829 11.1232L14.1068 10.0298L14.0937 10.022C13.913 9.91358 13.7338 9.80609 13.5869 9.70236C13.4233 9.5868 13.2425 9.43757 13.0907 9.22333C12.8766 8.92138 12.7506 8.56595 12.7265 8.19661C12.7095 7.93457 12.7558 7.7048 12.8101 7.51195C12.8588 7.33888 12.9303 7.1425 13.0023 6.9445L14.1779 3.71145L14.2069 3.63097C14.3114 3.33997 14.4425 2.97473 14.6915 2.68818C14.9063 2.44096 15.1785 2.25028 15.4842 2.13289C15.8386 1.99681 16.2267 1.99844 16.5358 1.99974L16.6214 1.99998H19.4387Z" fill="#0000CC"/>
</svg>
