<svg width="24" height="24" viewBox="0 0 24 24" fill="none" xmlns="http://www.w3.org/2000/svg">
<path fill-rule="evenodd" clip-rule="evenodd" d="M17.0002 2C17.5525 2 18.0002 2.44772 18.0002 3L18.0002 9C18.0002 9.55228 17.5525 10 17.0002 10C16.4479 10 16.0002 9.55228 16.0002 9L16.0002 3C16.0002 2.44772 16.4479 2 17.0002 2ZM21.0002 2C21.5525 2 22.0002 2.44772 22.0002 3V9C22.0002 9.55228 21.5525 10 21.0002 10C20.4479 10 20.0002 9.55228 20.0002 9V3C20.0002 2.44772 20.4479 2 21.0002 2ZM6.36476 12.8864L8.93219 9.71596L8.9444 9.70058C8.96411 9.67524 8.98388 9.64992 9.00366 9.62459C9.25176 9.30688 9.50121 8.98745 9.6376 8.61214C9.75662 8.28465 9.80586 7.9359 9.78217 7.58826C9.75502 7.18986 9.60377 6.81386 9.45333 6.43988C9.44133 6.41006 9.42934 6.38025 9.41742 6.35045L8.69445 4.54302C8.56714 4.22468 8.45146 3.93543 8.33565 3.69999C8.2106 3.44579 8.05431 3.18699 7.81555 2.96018C7.46627 2.62841 7.02858 2.40461 6.55512 2.31571C6.23146 2.25494 5.93014 2.27977 5.65086 2.32723C5.39218 2.37119 5.08996 2.44676 4.75733 2.52994C4.74668 2.53261 4.736 2.53528 4.72529 2.53795L2.75792 3.02987C2.31277 3.14117 2.00049 3.54114 2.00049 4C2.00049 7.46018 2.80203 10.6033 4.26951 13.2622C4.27516 13.2729 4.28101 13.2834 4.28706 13.2939C5.03856 14.6487 5.96329 15.8771 7.04326 16.9571C8.28485 18.1987 9.7227 19.2351 11.323 20.039C11.3348 20.0452 11.3466 20.0512 11.3586 20.0569C13.8812 21.3167 16.8057 22 20.0005 22C20.4594 22 20.8594 21.6876 20.9707 21.2424L21.4702 19.243C21.5534 18.9103 21.629 18.6081 21.673 18.3494C21.7204 18.0701 21.7453 17.7688 21.6845 17.4451C21.5956 16.9716 21.3718 16.5339 21.04 16.1847C20.8132 15.9459 20.5544 15.7896 20.3002 15.6646C20.0648 15.5487 19.7755 15.4331 19.4572 15.3058L17.841 14.6593C17.8067 14.6456 17.7725 14.6318 17.7382 14.618C17.313 14.4468 16.8862 14.275 16.4383 14.2612C16.0481 14.2492 15.6605 14.3288 15.3065 14.4935C14.9003 14.6826 14.5756 15.0087 14.2522 15.3335C14.2273 15.3586 14.2023 15.3836 14.1774 15.4086L11.6106 17.9274C10.439 17.2695 9.38289 16.4683 8.45749 15.5429C7.66474 14.7501 6.96314 13.8615 6.36476 12.8864Z" fill="#0000CC"/>
</svg>
