<svg width="24" height="24" viewBox="0 0 24 24" fill="none" xmlns="http://www.w3.org/2000/svg">
<path fill-rule="evenodd" clip-rule="evenodd" d="M9 4C9 2.89543 9.89543 2 11 2C12.1046 2 13 2.89543 13 4V9H17C19.2481 9 21.1477 10.4828 21.7779 12.5227L19.9907 12.5561C19.92 12.5574 19.8505 12.5737 19.7866 12.6039L18.0063 13.4441L16.2236 12.5528C16.0959 12.4889 15.9469 12.4827 15.8143 12.5358L13.5 13.4615L11.1857 12.5358C11.0665 12.4881 10.9335 12.4881 10.8143 12.5358L8.47301 13.4723L7 13.0514V11.8198L5.01259 11.4223C3.2609 11.072 2 9.53393 2 7.74755C2 5.67783 3.67784 4 5.74755 4H9ZM9 7C8.44772 7 8 7.44772 8 8C8 8.55228 8.44772 9 9 9H9.009C9.56128 9 10.009 8.55228 10.009 8C10.009 7.44772 9.56128 7 9.009 7H9Z" fill="#0000CC"/>
<path d="M7 14.0914V16.0514L8.47301 16.4723L10.8143 15.5358C10.9335 15.4881 11.0665 15.4881 11.1857 15.5358L13.5 16.4615L15.8143 15.5358C15.9469 15.4827 16.0959 15.4889 16.2236 15.5528L18.0063 16.4441L19.7866 15.6039C19.8505 15.5737 19.92 15.5574 19.9907 15.5561L22 15.5186V14C22 13.838 21.9923 13.6776 21.9771 13.5192L20.1165 13.5539L18.2134 14.4522C18.0747 14.5176 17.9136 14.5158 17.7764 14.4472L15.9772 13.5476L13.6857 14.4642C13.5665 14.5119 13.4335 14.5119 13.3143 14.4642L11 13.5385L8.6857 14.4642C8.58282 14.5054 8.46918 14.5112 8.36264 14.4808L7 14.0914Z" fill="#0000CC"/>
<path d="M7 21V17.0914L8.36264 17.4808C8.46918 17.5112 8.58282 17.5054 8.6857 17.4642L11 16.5385L13.3143 17.4642C13.4335 17.5119 13.5665 17.5119 13.6857 17.4642L15.9772 16.5476L17.7764 17.4472C17.9136 17.5158 18.0747 17.5176 18.2134 17.4522L20.1165 16.5539L22 16.5188V21C22 21.5523 21.5523 22 21 22H18C17.4477 22 17 21.5523 17 21V19H12V21C12 21.5523 11.5523 22 11 22H8C7.44772 22 7 21.5523 7 21Z" fill="#0000CC"/>
</svg>
