<svg width="24" height="24" viewBox="0 0 24 24" fill="none" xmlns="http://www.w3.org/2000/svg">
<path d="M7.67868 6.77157C7.89306 6.48573 8.12934 6.28494 8.37056 6.15999C8.73319 6.66845 9.32788 7 10 7H13C14.1046 7 15 6.10457 15 5C15 3.89543 14.1046 3 13 3H10C9.22149 3 8.54686 3.44481 8.21642 4.09416C7.34598 4.30701 6.61055 4.86242 6.07868 5.57157C5.39395 6.48455 5 7.69998 5 9H4C3.44772 9 3 9.44772 3 10C3 10.5523 3.44772 11 4 11H20C20.5523 11 21 10.5523 21 10C21 9.44772 20.5523 9 20 9H7C7 8.09088 7.27762 7.30631 7.67868 6.77157Z" fill="#0000CC"/>
<path d="M5.99707 12H18.0025C18.3435 12 18.514 12 18.6322 12.0703C18.7358 12.132 18.8136 12.229 18.8514 12.3436C18.8944 12.4742 18.8574 12.6407 18.7834 12.9735L17.5566 18.4942C17.3579 19.3883 17.2586 19.8354 17.0182 20.1691C16.8061 20.4634 16.518 20.6945 16.1846 20.8377C15.8067 21 15.3488 21 14.4328 21H9.56672C8.65079 21 8.19282 21 7.81491 20.8377C7.48156 20.6945 7.19344 20.4634 6.98138 20.1691C6.74096 19.8354 6.64162 19.3883 6.44292 18.4942L5.21612 12.9735C5.14214 12.6407 5.10515 12.4742 5.14818 12.3436C5.1859 12.229 5.26374 12.132 5.36737 12.0703C5.48555 12 5.65606 12 5.99707 12Z" fill="#0000CC"/>
</svg>
