<svg width="24" height="24" viewBox="0 0 24 24" fill="none" xmlns="http://www.w3.org/2000/svg">
<path d="M7.99906 4C7.99906 5.10457 7.10363 6 5.99906 6C4.8945 6 3.99906 5.10457 3.99906 4C3.99906 2.89543 4.8945 2 5.99906 2C7.10363 2 7.99906 2.89543 7.99906 4Z" fill="#0000CC"/>
<path d="M3.59906 11C3.10564 11 2.85893 11 2.60604 10.8302C2.43073 10.7124 2.22179 10.3971 2.18171 10.1898C2.1239 9.89071 2.18721 9.74115 2.31383 9.44202C2.9213 8.00689 4.3426 7 5.99906 7C7.65553 7 9.07683 8.00689 9.6843 9.44202C9.81092 9.74115 9.87423 9.89071 9.81642 10.1898C9.77634 10.3971 9.5674 10.7124 9.39209 10.8302C9.1392 11 8.89249 11 8.39907 11H3.59906Z" fill="#0000CC"/>
<path d="M7.99906 15C7.99906 16.1046 7.10363 17 5.99906 17C4.8945 17 3.99906 16.1046 3.99906 15C3.99906 13.8954 4.8945 13 5.99906 13C7.10363 13 7.99906 13.8954 7.99906 15Z" fill="#0000CC"/>
<path d="M3.59906 22C3.10564 22 2.85893 22 2.60604 21.8302C2.43073 21.7125 2.22179 21.3971 2.18171 21.1898C2.1239 20.8907 2.18721 20.7411 2.31383 20.442C2.9213 19.0069 4.3426 18 5.99906 18C7.65553 18 9.07683 19.0069 9.6843 20.442C9.81092 20.7411 9.87423 20.8907 9.81642 21.1898C9.77634 21.3971 9.5674 21.7125 9.39209 21.8302C9.1392 22 8.89249 22 8.39907 22H3.59906Z" fill="#0000CC"/>
<path d="M10.9991 6.5C10.9991 5.56812 10.9991 5.10218 11.1513 4.73463C11.3543 4.24458 11.7436 3.85523 12.2337 3.65224C12.6012 3.5 13.0672 3.5 13.9991 3.5H18.9991C19.9309 3.5 20.3969 3.5 20.7644 3.65224C21.2545 3.85523 21.6438 4.24458 21.8468 4.73463C21.9991 5.10218 21.9991 5.56812 21.9991 6.5C21.9991 7.43188 21.9991 7.89782 21.8468 8.26537C21.6438 8.75542 21.2545 9.14477 20.7644 9.34776C20.3969 9.5 19.9309 9.5 18.9991 9.5H13.9991C13.0672 9.5 12.6012 9.5 12.2337 9.34776C11.7436 9.14477 11.3543 8.75542 11.1513 8.26537C10.9991 7.89782 10.9991 7.43188 10.9991 6.5Z" fill="#0000CC"/>
<path d="M11.1513 15.7346C10.9991 16.1022 10.9991 16.5681 10.9991 17.5C10.9991 18.4319 10.9991 18.8978 11.1513 19.2654C11.3543 19.7554 11.7436 20.1448 12.2337 20.3478C12.6012 20.5 13.0672 20.5 13.9991 20.5H18.9991C19.9309 20.5 20.3969 20.5 20.7644 20.3478C21.2545 20.1448 21.6438 19.7554 21.8468 19.2654C21.9991 18.8978 21.9991 18.4319 21.9991 17.5C21.9991 16.5681 21.9991 16.1022 21.8468 15.7346C21.6438 15.2446 21.2545 14.8552 20.7644 14.6522C20.3969 14.5 19.9309 14.5 18.9991 14.5H13.9991C13.0672 14.5 12.6012 14.5 12.2337 14.6522C11.7436 14.8552 11.3543 15.2446 11.1513 15.7346Z" fill="#0000CC"/>
</svg>
