<svg width="24" height="24" viewBox="0 0 24 24" fill="none" xmlns="http://www.w3.org/2000/svg">
<path fill-rule="evenodd" clip-rule="evenodd" d="M7 2C4.79086 2 3 3.79086 3 6V14.9995C3.91223 13.7853 5.3644 13 7 13H17C18.6356 13 20.0878 13.7853 21 14.9995V6C21 3.79086 19.2091 2 17 2H7ZM11.8714 4.07179C12.3842 4.2769 12.6336 4.85887 12.4285 5.37166L11.977 6.50027H13.5C13.8318 6.50027 14.142 6.66486 14.3281 6.93964C14.5141 7.21441 14.5517 7.56357 14.4285 7.87166L13.4285 10.3717C13.2234 10.8844 12.6414 11.1339 12.1286 10.9287C11.6158 10.7236 11.3664 10.1417 11.5715 9.62888L12.023 8.50027H10.5C10.1682 8.50027 9.85797 8.33567 9.67194 8.06089C9.48591 7.78612 9.44829 7.43697 9.57153 7.12888L10.5715 4.62888C10.7766 4.11609 11.3586 3.86668 11.8714 4.07179Z" fill="#0000CC"/>
<path fill-rule="evenodd" clip-rule="evenodd" d="M3 18C3 15.7909 4.79086 14 7 14H17C19.2091 14 21 15.7909 21 18C21 20.2091 19.2091 22 17 22H7C4.79086 22 3 20.2091 3 18ZM6 18C6 17.4477 6.44772 17 7 17H9C9.55229 17 10 17.4477 10 18C10 18.5523 9.55229 19 9 19H7C6.44772 19 6 18.5523 6 18Z" fill="#0000CC"/>
</svg>
