<svg width="24" height="24" viewBox="0 0 24 24" fill="none" xmlns="http://www.w3.org/2000/svg">
<path fill-rule="evenodd" clip-rule="evenodd" d="M3 2C2.44772 2 2 2.44772 2 3C2 3.55228 2.44772 4 3 4H4L4 11.8385C3.99998 12.3657 3.99997 12.8205 4.03057 13.195C4.06287 13.5904 4.13419 13.9836 4.32698 14.362C4.6146 14.9265 5.07354 15.3854 5.63803 15.673C6.01641 15.8658 6.40963 15.9371 6.80497 15.9694C7.17954 16 7.6343 16 8.16145 16H11V17.4338L6.4855 20.1425C6.01192 20.4267 5.85836 21.0409 6.14251 21.5145C6.42666 21.9881 7.04092 22.1416 7.5145 21.8575L11 19.7662V21C11 21.5523 11.4477 22 12 22C12.5523 22 13 21.5523 13 21V19.7662L16.4855 21.8575C16.9591 22.1416 17.5733 21.9881 17.8575 21.5145C18.1416 21.0409 17.9881 20.4267 17.5145 20.1425L13 17.4338V16H15.8385C16.3657 16 16.8205 16 17.195 15.9694C17.5904 15.9371 17.9836 15.8658 18.362 15.673C18.9265 15.3854 19.3854 14.9265 19.673 14.362C19.8658 13.9836 19.9371 13.5904 19.9694 13.195C20 12.8205 20 12.3657 20 11.8386V4H21C21.5523 4 22 3.55228 22 3C22 2.44772 21.5523 2 21 2H3ZM11.8321 7.44531C11.6659 7.19603 11.3967 7.03439 11.0985 7.00487C10.8004 6.97535 10.5047 7.08105 10.2929 7.2929L7.29289 10.2929C6.90237 10.6834 6.90237 11.3166 7.29289 11.7071C7.68342 12.0976 8.31658 12.0976 8.70711 11.7071L10.8446 9.56964L12.1679 11.5547C12.3341 11.804 12.6033 11.9656 12.9015 11.9951C13.1996 12.0247 13.4953 11.919 13.7071 11.7071L16.7071 8.70711C17.0976 8.31659 17.0976 7.68342 16.7071 7.2929C16.3166 6.90237 15.6834 6.90237 15.2929 7.2929L13.1554 9.43037L11.8321 7.44531Z" fill="#0000CC"/>
</svg>
