<svg width="24" height="24" viewBox="0 0 24 24" fill="none" xmlns="http://www.w3.org/2000/svg">
<path fill-rule="evenodd" clip-rule="evenodd" d="M8 2C6.89543 2 6 2.89543 6 4V6H5C3.34315 6 2 7.34315 2 9V16C2 17.6569 3.34315 19 5 19H6V20C6 21.1046 6.89543 22 8 22H16C17.1046 22 18 21.1046 18 20V19H19C20.6569 19 22 17.6569 22 16V9C22 7.34315 20.6569 6 19 6H18V4C18 2.89543 17.1046 2 16 2H8ZM16 16H8V20H16V16ZM16 6V4H8V6H16ZM8 11C8 11.5523 7.55228 12 7 12C6.44772 12 6 11.5523 6 11C6 10.4477 6.44772 10 7 10C7.55228 10 8 10.4477 8 11Z" fill="#0000CC"/>
</svg>
