<svg width="24" height="24" viewBox="0 0 24 24" fill="none" xmlns="http://www.w3.org/2000/svg">
<path d="M17.5 3C17.5 2.44772 17.0523 2 16.5 2C15.9477 2 15.5 2.44772 15.5 3V5C15.5 5.55228 15.9477 6 16.5 6C17.0523 6 17.5 5.55228 17.5 5V3Z" fill="#0000CC"/>
<path d="M12.7071 4.29289C12.3166 3.90237 11.6834 3.90237 11.2929 4.29289C10.9024 4.68342 10.9024 5.31658 11.2929 5.70711L12.2929 6.70711C12.6834 7.09763 13.3166 7.09763 13.7071 6.70711C14.0976 6.31658 14.0976 5.68342 13.7071 5.29289L12.7071 4.29289Z" fill="#0000CC"/>
<path d="M20.2929 4.29289C20.6834 3.90237 21.3166 3.90237 21.7071 4.29289C22.0976 4.68342 22.0976 5.31658 21.7071 5.70711L20.7071 6.70711C20.3166 7.09763 19.6834 7.09763 19.2929 6.70711C18.9024 6.31658 18.9024 5.68342 19.2929 5.29289L20.2929 4.29289Z" fill="#0000CC"/>
<path fill-rule="evenodd" clip-rule="evenodd" d="M19 18.4003C20.7808 17.4899 22 15.6373 22 13.5C22 10.4624 19.5376 8 16.5 8C15.0385 8 13.7101 8.57008 12.7251 9.5H5C3.34315 9.5 2 10.8431 2 12.5V15.5C2 16.8062 2.83481 17.9175 4 18.3293V21C4 21.5523 4.44772 22 5 22C5.55228 22 6 21.5523 6 21V18.5H14.2055C14.9039 18.821 15.681 19 16.5 19C16.6685 19 16.8353 18.9924 17 18.9776V21C17 21.5523 17.4477 22 18 22C18.5523 22 19 21.5523 19 21V18.4003ZM16.9895 10.034C18.6908 10.272 20 11.7331 20 13.5C20 15.2632 18.6961 16.7219 17 16.9646C16.8367 16.9879 16.6698 17 16.5 17C14.567 17 13 15.433 13 13.5C13 11.567 14.567 10 16.5 10C16.6661 10 16.8295 10.0116 16.9895 10.034ZM7 14C7 14.5523 6.55228 15 6 15C5.44772 15 5 14.5523 5 14C5 13.4477 5.44772 13 6 13C6.55228 13 7 13.4477 7 14ZM9 15C9.55229 15 10 14.5523 10 14C10 13.4477 9.55229 13 9 13C8.44771 13 8 13.4477 8 14C8 14.5523 8.44771 15 9 15Z" fill="#0000CC"/>
</svg>
