<svg width="24" height="24" viewBox="0 0 24 24" fill="none" xmlns="http://www.w3.org/2000/svg">
<path d="M9.23451 2.48215C9.86597 2.16642 10.6683 2 11.5 2C12.341 2 13.2137 2.18859 13.8695 2.5029C14.1876 2.65536 14.5452 2.88007 14.7969 3.20845C15.0815 3.57969 15.2585 4.14771 14.9659 4.73293C14.8038 5.05714 14.6713 5.32721 14.5714 5.5668C14.4914 5.75868 14.4463 5.89888 14.4238 6.00002H17C17.5523 6.00002 18 6.44773 18 7.00002V9.61652C18.0977 9.60217 18.2431 9.5633 18.4525 9.48105C18.6845 9.38996 18.9505 9.26386 19.2671 9.10559C19.4059 9.03616 19.559 9.00002 19.7143 9.00002C20.6522 9.00002 21.232 9.73431 21.5178 10.306C21.8336 10.9374 22 11.7398 22 12.5714C22 13.4124 21.8114 14.2851 21.4971 14.941C21.3446 15.2591 21.1199 15.6166 20.7916 15.8684C20.4203 16.153 19.8523 16.3299 19.2671 16.0373L19.164 15.9857C18.8773 15.8422 18.6362 15.7215 18.4143 15.6236C18.2371 15.5454 18.1024 15.4957 18 15.4665V21C18 21.5523 17.5523 22 17 22L14.372 22C14.3585 21.9113 14.3531 21.7699 14.3781 21.5507C14.4411 20.9981 14.678 20.3099 14.9665 19.7329C15.2591 19.1477 15.0821 18.5797 14.7975 18.2085C14.5458 17.8801 14.1882 17.6554 13.8701 17.5029C13.2143 17.1886 12.3416 17 11.5006 17C10.6689 17 9.86656 17.1664 9.23511 17.4822C8.66347 17.768 7.92917 18.3478 7.92917 19.2857C7.92917 19.441 7.96531 19.5941 8.03474 19.7329C8.31015 20.2837 8.51281 20.9568 8.54724 21.5007C8.56336 21.7554 8.54249 21.9095 8.51739 22H3C2.44772 22 2 21.5523 2 21V15.4936C2.08697 15.4681 2.23987 15.4485 2.47455 15.4693C3.01037 15.5168 3.68831 15.7476 4.26767 16.0373C4.85288 16.3299 5.42091 16.153 5.79215 15.8684C6.12052 15.6166 6.34524 15.2591 6.49769 14.941C6.81201 14.2851 7.0006 13.4124 7.0006 12.5714C7.0006 11.7398 6.83417 10.9374 6.51845 10.3059C6.23263 9.7343 5.65275 9 4.71488 9C4.55964 9 4.40652 9.03615 4.26767 9.10557C3.71691 9.38095 3.04372 9.58364 2.49965 9.61806C2.24476 9.63419 2.09057 9.6133 2 9.58819V7.00002C2 6.44773 2.44772 6.00002 3 6.00002H8.5762C8.55375 5.89888 8.50861 5.75868 8.4286 5.5668C8.32869 5.32721 8.19625 5.05714 8.03414 4.73293C7.96472 4.59407 7.92857 4.44096 7.92857 4.28571C7.92857 3.34785 8.66287 2.76797 9.23451 2.48215Z" fill="#0000CC"/>
</svg>
