<svg width="24" height="24" viewBox="0 0 24 24" fill="none" xmlns="http://www.w3.org/2000/svg">
<path fill-rule="evenodd" clip-rule="evenodd" d="M10.4123 2.19482C10.1404 2.13753 9.85957 2.13753 9.58767 2.19482C9.27326 2.26107 8.99337 2.42233 8.77081 2.55056L8.71004 2.58547L6.79769 3.67825C6.64312 3.76657 6.56403 3.81131 6.50495 3.8406L6.5 3.84303L6.49506 3.8406C6.43598 3.81131 6.35688 3.76657 6.20232 3.67825L5.85339 3.47886C5.49185 3.27223 5.16301 3.08428 4.88392 2.95708C4.59993 2.82763 4.21886 2.68791 3.78475 2.7349C3.22246 2.79577 2.71223 3.09187 2.3804 3.54988C2.12422 3.90347 2.05647 4.30366 2.02796 4.61446C1.99994 4.91988 1.99997 5.29864 2 5.71506L2 16.2414C1.99999 17.0464 1.99998 17.7107 2.0442 18.2519C2.09012 18.814 2.18869 19.3307 2.43598 19.8161C2.81947 20.5687 3.43139 21.1806 4.18404 21.5641C4.66938 21.8114 5.18608 21.91 5.74818 21.9559C6.28937 22.0001 6.95372 22.0001 7.75868 22.0001H19C20.6569 22.0001 22 20.657 22 19.0001V13.0001C22 12.4478 21.5523 12.0001 21 12.0001H18L18 5.71507C18 5.29869 18.0001 4.91985 17.972 4.61446C17.9435 4.30366 17.8758 3.90347 17.6196 3.54988C17.2878 3.09187 16.7775 2.79577 16.2153 2.7349C15.7812 2.68791 15.4001 2.82763 15.1161 2.95708C14.837 3.08428 14.5082 3.27221 14.1467 3.47883L13.7977 3.67825C13.6431 3.76657 13.564 3.81131 13.505 3.8406L13.5 3.84303L13.4951 3.8406C13.436 3.81131 13.3569 3.76657 13.2023 3.67825L11.29 2.58547L11.2292 2.55056C11.0066 2.42233 10.7267 2.26107 10.4123 2.19482ZM18 19.0001V14.0001H20V19.0001C20 19.5524 19.5523 20.0001 19 20.0001C18.4477 20.0001 18 19.5524 18 19.0001ZM5 9C5 8.44772 5.44772 8 6 8H14C14.5523 8 15 8.44772 15 9C15 9.55228 14.5523 10 14 10H6C5.44772 10 5 9.55228 5 9ZM5 13C5 12.4477 5.44772 12 6 12H10C10.5523 12 11 12.4477 11 13C11 13.5523 10.5523 14 10 14H6C5.44772 14 5 13.5523 5 13ZM5 17C5 16.4477 5.44772 16 6 16H10C10.5523 16 11 16.4477 11 17C11 17.5523 10.5523 18 10 18H6C5.44772 18 5 17.5523 5 17ZM15 13C15 13.5523 14.5523 14 14 14C13.4477 14 13 13.5523 13 13C13 12.4477 13.4477 12 14 12C14.5523 12 15 12.4477 15 13ZM14 18C14.5523 18 15 17.5523 15 17C15 16.4477 14.5523 16 14 16C13.4477 16 13 16.4477 13 17C13 17.5523 13.4477 18 14 18Z" fill="#0000CC"/>
</svg>
