<svg width="24" height="24" viewBox="0 0 24 24" fill="none" xmlns="http://www.w3.org/2000/svg">
<path fill-rule="evenodd" clip-rule="evenodd" d="M15.8385 2H8.16146C7.63433 1.99998 7.17954 1.99997 6.80497 2.03057C6.40963 2.06287 6.01641 2.13419 5.63803 2.32698C5.07354 2.6146 4.6146 3.07354 4.32698 3.63803C4.13419 4.01641 4.06287 4.40963 4.03057 4.80497C3.99997 5.17954 3.99998 5.63429 4 6.16142V21C4 21.3844 4.22035 21.7348 4.56681 21.9013C4.91328 22.0678 5.32453 22.021 5.6247 21.7809L7.5 20.2806L9.37531 21.7809C9.7732 22.0992 10.3468 22.0674 10.7071 21.7071L12 20.4142L13.2929 21.7071C13.6532 22.0674 14.2268 22.0992 14.6247 21.7809L16.5 20.2806L18.3753 21.7809C18.6755 22.021 19.0867 22.0678 19.4332 21.9013C19.7797 21.7348 20 21.3844 20 21V6.16148C20 5.63437 20 5.17952 19.9694 4.80497C19.9371 4.40963 19.8658 4.01641 19.673 3.63803C19.3854 3.07355 18.9265 2.6146 18.362 2.32698C17.9836 2.13419 17.5904 2.06287 17.195 2.03057C16.8205 1.99997 16.3657 1.99998 15.8385 2ZM7 7C7 6.44772 7.44772 6 8 6H12C12.5523 6 13 6.44772 13 7C13 7.55229 12.5523 8 12 8H8C7.44772 8 7 7.55229 7 7ZM7 11C7 10.4477 7.44772 10 8 10H16C16.5523 10 17 10.4477 17 11C17 11.5523 16.5523 12 16 12H8C7.44772 12 7 11.5523 7 11ZM8 14C7.44772 14 7 14.4477 7 15C7 15.5523 7.44772 16 8 16H16C16.5523 16 17 15.5523 17 15C17 14.4477 16.5523 14 16 14H8Z" fill="#0000CC"/>
</svg>
