<svg width="24" height="24" viewBox="0 0 24 24" fill="none" xmlns="http://www.w3.org/2000/svg">
<path fill-rule="evenodd" clip-rule="evenodd" d="M9.58767 2.19482C9.85957 2.13753 10.1404 2.13753 10.4123 2.19482C10.7267 2.26107 11.0066 2.42233 11.2292 2.55056L11.29 2.58547L13.2023 3.67825C13.3006 3.73443 13.5 3.84303 13.5 3.84303C13.5 3.84303 13.6994 3.73444 13.7977 3.67825L14.1466 3.47885C14.5082 3.27223 14.837 3.08428 15.1161 2.95708C15.4001 2.82763 15.7812 2.68791 16.2153 2.7349C16.7775 2.79577 17.2878 3.09187 17.6196 3.54988C17.8758 3.90347 17.9435 4.30366 17.972 4.61446C18.0001 4.91984 18 5.29867 18 5.71503L18 12.0001H21C21.5523 12.0001 22 12.4478 22 13.0001V19.0001C22 20.657 20.6569 22.0001 19 22.0001C18.8321 22.0001 18.667 22.0001 18.5 22.0001H7.75868C6.95372 22.0001 6.28937 22.0001 5.74818 21.9559C5.18608 21.91 4.66938 21.8114 4.18404 21.5641C3.43139 21.1806 2.81947 20.5687 2.43598 19.8161C2.18869 19.3307 2.09012 18.814 2.0442 18.2519C1.99998 17.7107 1.99999 17.0464 2 16.2414L2 5.71506C1.99997 5.29864 1.99994 4.91988 2.02796 4.61446C2.05647 4.30366 2.12422 3.90347 2.3804 3.54988C2.71223 3.09187 3.22246 2.79577 3.78475 2.7349C4.21886 2.68791 4.59993 2.82763 4.88392 2.95708C5.16301 3.08428 5.49185 3.27223 5.85339 3.47886L6.20232 3.67825C6.35688 3.76657 6.49506 3.8406 6.49506 3.8406C6.49506 3.8406 6.75272 3.70394 6.79769 3.67825L8.71004 2.58547L8.77081 2.55056C8.99337 2.42233 9.27326 2.26107 9.58767 2.19482ZM18 14.0001V19.0001C18 19.5524 18.4477 20.0001 19 20.0001C19.5523 20.0001 20 19.5524 20 19.0001V14.0001H18ZM5 9C5 8.44771 5.44771 8 6 8H10C10.5523 8 11 8.44771 11 9C11 9.55229 10.5523 10 10 10H6C5.44771 10 5 9.55229 5 9ZM5 13C5 12.4477 5.44772 12 6 12H14C14.5523 12 15 12.4477 15 13C15 13.5523 14.5523 14 14 14H6C5.44772 14 5 13.5523 5 13ZM5 17C5 16.4477 5.44772 16 6 16H14C14.5523 16 15 16.4477 15 17C15 17.5523 14.5523 18 14 18H6C5.44772 18 5 17.5523 5 17Z" fill="#0000CC"/>
</svg>
