<svg width="24" height="24" viewBox="0 0 24 24" fill="none" xmlns="http://www.w3.org/2000/svg">
<path fill-rule="evenodd" clip-rule="evenodd" d="M17.8385 4H6.16146C5.63433 3.99998 5.17954 3.99997 4.80497 4.03057C4.40963 4.06287 4.01641 4.13419 3.63803 4.32698C3.07354 4.6146 2.6146 5.07355 2.32698 5.63803C2.13419 6.01641 2.06287 6.40963 2.03057 6.80497C1.99997 7.17954 1.99998 7.63429 2 8.16142V15.8385C1.99998 16.3657 1.99997 16.8205 2.03057 17.195C2.06287 17.5904 2.13419 17.9836 2.32698 18.362C2.6146 18.9265 3.07354 19.3854 3.63803 19.673C4.01641 19.8658 4.40963 19.9371 4.80497 19.9694C5.17952 20 5.63425 20 6.16136 20H17.8385C18.3656 20 18.8205 20 19.195 19.9694C19.5904 19.9371 19.9836 19.8658 20.362 19.673C20.9265 19.3854 21.3854 18.9265 21.673 18.362C21.8658 17.9836 21.9371 17.5904 21.9694 17.195C22 16.8205 22 16.3657 22 15.8386V8.16144C22 7.6343 22 7.17954 21.9694 6.80497C21.9371 6.40963 21.8658 6.01641 21.673 5.63803C21.3854 5.07355 20.9265 4.6146 20.362 4.32698C19.9836 4.13419 19.5904 4.06287 19.195 4.03057C18.8205 3.99997 18.3657 3.99998 17.8385 4ZM10.7071 9.70711C11.0976 9.31658 11.0976 8.68342 10.7071 8.29289C10.3166 7.90237 9.68342 7.90237 9.29289 8.29289L6.29289 11.2929C5.90237 11.6834 5.90237 12.3166 6.29289 12.7071L9.29289 15.7071C9.68342 16.0976 10.3166 16.0976 10.7071 15.7071C11.0976 15.3166 11.0976 14.6834 10.7071 14.2929L8.41421 12L10.7071 9.70711ZM14.7071 8.29289C14.3166 7.90237 13.6834 7.90237 13.2929 8.29289C12.9024 8.68342 12.9024 9.31658 13.2929 9.70711L15.5858 12L13.2929 14.2929C12.9024 14.6834 12.9024 15.3166 13.2929 15.7071C13.6834 16.0976 14.3166 16.0976 14.7071 15.7071L17.7071 12.7071C18.0976 12.3166 18.0976 11.6834 17.7071 11.2929L14.7071 8.29289Z" fill="#0000CC"/>
</svg>
