<svg width="24" height="24" viewBox="0 0 24 24" fill="none" xmlns="http://www.w3.org/2000/svg">
<path d="M2.21799 5.09202C2 5.51984 2 6.0799 2 7.2V7.8C2 8.9201 2 9.48016 2.21799 9.90798C2.40973 10.2843 2.71569 10.5903 3.09202 10.782C3.51984 11 4.07989 11 5.2 11H9.8C10.9201 11 11.4802 11 11.908 10.782C12.2843 10.5903 12.5903 10.2843 12.782 9.90798C13 9.48016 13 8.9201 13 7.8V7.2C13 6.0799 13 5.51984 12.782 5.09202C12.5903 4.71569 12.2843 4.40973 11.908 4.21799C11.4802 4 10.9201 4 9.8 4H5.2C4.0799 4 3.51984 4 3.09202 4.21799C2.71569 4.40973 2.40973 4.71569 2.21799 5.09202Z" fill="#0000CC"/>
<path d="M15 7.2C15 6.0799 15 5.51984 15.218 5.09202C15.4097 4.71569 15.7157 4.40973 16.092 4.21799C16.5198 4 17.0799 4 18.2 4H18.8C19.9201 4 20.4802 4 20.908 4.21799C21.2843 4.40973 21.5903 4.71569 21.782 5.09202C22 5.51984 22 6.0799 22 7.2V13.8C22 14.9201 22 15.4802 21.782 15.908C21.5903 16.2843 21.2843 16.5903 20.908 16.782C20.4802 17 19.9201 17 18.8 17H18.2C17.0799 17 16.5198 17 16.092 16.782C15.7157 16.5903 15.4097 16.2843 15.218 15.908C15 15.4802 15 14.9201 15 13.8V7.2Z" fill="#0000CC"/>
<path d="M4 16.2C4 15.0799 4 14.5198 4.21799 14.092C4.40973 13.7157 4.71569 13.4097 5.09202 13.218C5.51984 13 6.0799 13 7.2 13H9.8C10.9201 13 11.4802 13 11.908 13.218C12.2843 13.4097 12.5903 13.7157 12.782 14.092C13 14.5198 13 15.0799 13 16.2V16.8C13 17.9201 13 18.4802 12.782 18.908C12.5903 19.2843 12.2843 19.5903 11.908 19.782C11.4802 20 10.9201 20 9.8 20H7.2C6.0799 20 5.51984 20 5.09202 19.782C4.71569 19.5903 4.40973 19.2843 4.21799 18.908C4 18.4802 4 17.9201 4 16.8V16.2Z" fill="#0000CC"/>
</svg>
