<svg width="24" height="24" viewBox="0 0 24 24" fill="none" xmlns="http://www.w3.org/2000/svg">
<path fill-rule="evenodd" clip-rule="evenodd" d="M2.11732 2.07615C2.49099 1.92137 2.92111 2.00692 3.20711 2.29292L5.40077 4.48658C7.161 2.93955 9.47135 2.00003 12 2.00003C17.148 2.00003 21.3862 5.88915 21.939 10.8902C21.9997 11.4391 21.6039 11.9333 21.0549 11.994C20.506 12.0547 20.0118 11.6588 19.9511 11.1099C19.5091 7.11101 16.1172 4.00003 12 4.00003C10.0234 4.00003 8.21512 4.71593 6.8186 5.90441L9.20711 8.29292C9.4931 8.57892 9.57866 9.00904 9.42388 9.38271C9.2691 9.75639 8.90446 10 8.5 10H2.5C1.94772 10 1.5 9.55231 1.5 9.00003V3.00003C1.5 2.59557 1.74364 2.23093 2.11732 2.07615ZM2.94505 12.0061C3.49399 11.9454 3.98819 12.3412 4.04887 12.8902C4.49093 16.889 7.88284 20 12 20C13.9766 20 15.7849 19.2841 17.1814 18.0956L14.7929 15.7071C14.5069 15.4211 14.4213 14.991 14.5761 14.6173C14.7309 14.2437 15.0955 14 15.5 14H21.5C22.0523 14 22.5 14.4477 22.5 15V21C22.5 21.4045 22.2564 21.7691 21.8827 21.9239C21.509 22.0787 21.0789 21.9931 20.7929 21.7071L18.5992 19.5135C16.839 21.0605 14.5286 22 12 22C6.85205 22 2.61382 18.1109 2.06098 13.1099C2.0003 12.561 2.39611 12.0668 2.94505 12.0061Z" fill="#0000CC"/>
</svg>
