<svg width="24" height="24" viewBox="0 0 24 24" fill="none" xmlns="http://www.w3.org/2000/svg">
<path fill-rule="evenodd" clip-rule="evenodd" d="M12 5C8.13401 5 5 8.13401 5 12C5 12.2972 5.01846 12.5896 5.05421 12.8763C5.12255 13.4243 4.73367 13.924 4.18563 13.9923C3.63759 14.0607 3.13792 13.6718 3.06958 13.1237C3.02362 12.7552 3 12.3801 3 12C3 7.02944 7.02944 3 12 3C13.9374 3 15.732 3.61271 17.2002 4.65369V4C17.2002 3.44772 17.6479 3 18.2002 3C18.7525 3 19.2002 3.44772 19.2002 4V6.99993C19.2002 7.55221 18.7525 7.99992 18.2002 7.99993L15.2002 8C14.6479 8.00001 14.2002 7.55231 14.2002 7.00002C14.2002 6.44774 14.6479 6.00001 15.2002 6L15.608 5.99999C14.5541 5.36484 13.3198 5 12 5ZM19.8144 10.0077C20.3624 9.93935 20.8621 10.3282 20.9304 10.8763C20.9764 11.2448 21 11.6199 21 12C21 16.9706 16.9706 21 12 21C10.15 21 8.42985 20.4412 7 19.4842V20C7 20.5523 6.55228 21 6 21C5.44772 21 5 20.5523 5 20V17C5 16.4477 5.44772 16 6 16H9C9.55228 16 10 16.4477 10 17C10 17.5523 9.55228 18 9 18H8.39202C9.4458 18.6352 10.68 19 12 19C15.866 19 19 15.866 19 12C19 11.7028 18.9815 11.4104 18.9458 11.1237C18.8775 10.5757 19.2663 10.076 19.8144 10.0077Z" fill="#0000CC"/>
</svg>
