<svg width="24" height="24" viewBox="0 0 24 24" fill="none" xmlns="http://www.w3.org/2000/svg">
<path fill-rule="evenodd" clip-rule="evenodd" d="M13.7079 1.2937C14.098 1.68467 14.0973 2.31783 13.7063 2.70791L13.3176 3.09576C17.6636 3.73329 21 7.47701 21 12C21 14.8426 19.681 17.3779 17.6255 19.0256C17.1946 19.3711 16.5652 19.3018 16.2198 18.8708C15.8743 18.4399 15.9436 17.8106 16.3745 17.4651C17.9769 16.1806 19 14.2101 19 12C19 8.68364 16.6938 5.90592 13.5976 5.18313L13.7079 5.2937C14.098 5.68467 14.0973 6.31783 13.7063 6.70791C13.3153 7.09799 12.6822 7.09727 12.2921 6.7063L10.2921 4.70175C10.1048 4.514 9.9997 4.25953 10 3.99431C10.0003 3.72909 10.1059 3.47486 10.2937 3.28754L12.2937 1.29209C12.6847 0.902009 13.3178 0.90273 13.7079 1.2937ZM7.78025 5.12916C8.12569 5.56008 8.05639 6.18944 7.62547 6.53488C6.02312 7.81937 5 9.78986 5 12C5 15.3187 7.30947 18.098 10.4089 18.8184L10.3092 18.7231C9.90988 18.3416 9.89543 17.7086 10.2769 17.3093C10.6584 16.9099 11.2914 16.8955 11.6908 17.277L13.6908 19.1877C13.8827 19.371 13.9938 19.6231 13.9998 19.8884C14.0057 20.1538 13.9059 20.4106 13.7224 20.6023L11.7224 22.6916C11.3405 23.0905 10.7075 23.1043 10.3085 22.7224C9.90954 22.3405 9.89572 21.7075 10.2776 21.3086L10.6669 20.9019C6.32849 20.2578 3 16.5176 3 12C3 9.15737 4.31903 6.62213 6.37453 4.97438C6.80545 4.62894 7.43481 4.69824 7.78025 5.12916Z" fill="#0000CC"/>
</svg>
