<svg width="24" height="24" viewBox="0 0 24 24" fill="none" xmlns="http://www.w3.org/2000/svg">
<path fill-rule="evenodd" clip-rule="evenodd" d="M17.0004 4.24509L17.0004 5.0174C17.0676 5.02096 17.1326 5.02523 17.1954 5.03035C17.5907 5.06265 17.984 5.13397 18.3623 5.32677C18.9268 5.61439 19.3858 6.07333 19.6734 6.63781C19.8662 7.01619 19.9375 7.40941 19.9698 7.80476C20.0004 8.17933 20.0004 8.6341 20.0004 9.16126V17.8383C20.0004 18.3655 20.0004 18.8202 19.9698 19.1948C19.9375 19.5902 19.8662 19.9834 19.6734 20.3618C19.3858 20.9262 18.9268 21.3852 18.3623 21.6728C17.984 21.8656 17.5907 21.9369 17.1954 21.9692C16.8208 21.9998 16.3661 21.9998 15.8389 21.9998H8.16179C7.63465 21.9998 7.1799 21.9998 6.80533 21.9692C6.40999 21.9369 6.01677 21.8656 5.63839 21.6728C5.0739 21.3852 4.61496 20.9262 4.32734 20.3618C4.13455 19.9834 4.06323 19.5902 4.03093 19.1948C4.00033 18.8202 4.00034 18.3655 4.00036 17.8383L4.00036 7.68081L4.00018 7.56328C3.99907 7.079 3.99795 6.59323 4.16649 6.1543C4.31323 5.77212 4.55158 5.43183 4.8606 5.16331C5.21551 4.85492 5.67242 4.68996 6.12791 4.52551L6.23843 4.48551L13.5485 1.8273C13.8779 1.70747 14.1855 1.59562 14.4464 1.52658C14.7209 1.45394 15.0712 1.39115 15.4507 1.47884C15.9556 1.59553 16.3956 1.90368 16.6778 2.33836C16.8899 2.665 16.9506 3.01572 16.9761 3.2985C17.0004 3.56731 17.0004 3.89452 17.0004 4.24509ZM14.1953 3.72023C14.5743 3.58243 14.7953 3.50308 14.958 3.46003L14.9819 3.4539L14.9843 3.47843C14.9994 3.64604 15.0004 3.88087 15.0004 4.2841V4.99978H10.6765L14.1953 3.72023ZM8.00037 10C8.00037 9.44772 8.44808 9 9.00037 9H15.0004C15.5527 9 16.0004 9.44772 16.0004 10C16.0004 10.5523 15.5527 11 15.0004 11H9.00037C8.44808 11 8.00037 10.5523 8.00037 10ZM8.00037 13.5C8.00037 12.9477 8.44808 12.5 9.00037 12.5H15.0004C15.5527 12.5 16.0004 12.9477 16.0004 13.5C16.0004 14.0523 15.5527 14.5 15.0004 14.5H9.00037C8.44808 14.5 8.00037 14.0523 8.00037 13.5ZM9.00037 16C8.44808 16 8.00037 16.4477 8.00037 17C8.00037 17.5523 8.44808 18 9.00037 18H15.0004C15.5527 18 16.0004 17.5523 16.0004 17C16.0004 16.4477 15.5527 16 15.0004 16H9.00037Z" fill="#0000CC"/>
</svg>
