<svg width="24" height="24" viewBox="0 0 24 24" fill="none" xmlns="http://www.w3.org/2000/svg">
<path fill-rule="evenodd" clip-rule="evenodd" d="M2 15V9C2 7.09122 3.38084 5.5734 5.1504 4.59031C6.95383 3.5884 9.37749 3 12 3C14.6225 3 17.0462 3.5884 18.8496 4.59031C20.6192 5.5734 22 7.09122 22 9V15C22 16.9088 20.6192 18.4266 18.8496 19.4097C17.0462 20.4116 14.6225 21 12 21C9.37749 21 6.95383 20.4116 5.1504 19.4097C3.38084 18.4266 2 16.9088 2 15ZM12 13C9.98934 13 8.18877 12.6115 6.80597 12.0005C8.18912 11.389 9.99038 11 12.0014 11C14.0125 11 15.8127 11.3886 17.1952 11.9999C15.8122 12.6113 14.0112 13 12 13Z" fill="#0000CC"/>
</svg>
