<svg width="24" height="24" viewBox="0 0 24 24" fill="none" xmlns="http://www.w3.org/2000/svg">
<path fill-rule="evenodd" clip-rule="evenodd" d="M12.0001 2C12.2858 2 12.5578 2.12215 12.7475 2.33564L16.3434 6.38097C16.4906 6.54602 16.6386 6.71197 16.7469 6.9062C16.8415 7.07574 16.9108 7.25814 16.9528 7.44766C17.0012 7.66609 17.0006 7.88645 17.0002 8.06143C17.0002 9.59012 17.0087 11.119 16.9989 12.6477L18.4575 14.4708C18.5589 14.597 18.6867 14.756 18.7812 14.9409C18.8632 15.1014 18.9231 15.2722 18.9593 15.4487C19.001 15.6521 19.0006 15.856 19.0002 16.018L19.0001 16.0612V21C19.0001 21.4247 18.7319 21.8031 18.3311 21.9436C17.9304 22.0842 17.4846 21.9563 17.2193 21.6247L13.5016 16.9776C13.3449 16.9861 13.1778 16.9914 13 16.9946V13C13 12.4477 12.5523 12 12 12C11.4477 12 11 12.4477 11 13V16.9946C10.8223 16.9914 10.6553 16.9861 10.4987 16.9776L6.78101 21.6247C6.51571 21.9563 6.06988 22.0842 5.66913 21.9436C5.26838 21.8031 5.00014 21.4247 5.00014 21V16.0612L5.00007 16.018C4.9997 15.856 4.99923 15.6521 5.04097 15.4487C5.0772 15.2722 5.13712 15.1014 5.21911 14.9409C5.31356 14.756 5.44134 14.597 5.54279 14.4708L7.00136 12.6477C6.99157 11.119 7.00009 9.59012 7.00006 8.06143C6.99963 7.88646 6.99908 7.66609 7.04747 7.44766C7.08945 7.25814 7.1588 7.07574 7.25333 6.9062C7.36163 6.71198 7.50967 6.54603 7.65687 6.38097L11.2527 2.33564C11.4425 2.12215 11.7145 2 12.0001 2ZM7.47397 15.2585C7.31703 15.4547 7.15285 15.6468 7.00376 15.8491C6.98714 16.6153 7.00014 17.3828 7.00014 18.1492L8.45009 16.3368C8.05385 16.0504 7.72087 15.6834 7.47397 15.2585ZM15.5502 16.3368L17.0001 18.1492C17.0001 18.1492 17.0001 15.854 16.9983 15.8514C16.8489 15.6482 16.6837 15.4553 16.5263 15.2585C16.2794 15.6834 15.9464 16.0504 15.5502 16.3368ZM11.9998 4.50537L14.2174 7.00017H9.78223L11.9998 4.50537Z" fill="#0000CC"/>
<path d="M11 20V17H13V20C13 20.5523 12.5523 21 12 21C11.4477 21 11 20.5523 11 20Z" fill="#0000CC"/>
</svg>
