<svg width="24" height="24" viewBox="0 0 24 24" fill="none" xmlns="http://www.w3.org/2000/svg">
<path fill-rule="evenodd" clip-rule="evenodd" d="M5 6C3.89543 6 3 6.89543 3 8V19C3 19.5523 2.55228 20 2 20C1.44772 20 1 19.5523 1 19V8C1 5.79086 2.79086 4 5 4C5.45859 4 5.89938 4.07738 6.30982 4.21963C6.32569 4.22479 6.3414 4.23035 6.35692 4.23628C6.95016 4.45026 7.47826 4.80029 7.90273 5.24787C7.90674 5.25208 7.91072 5.25633 7.91467 5.26062L10.7334 8.32031C10.7349 8.32193 10.7364 8.32355 10.7379 8.32518L14.7334 12.6623C14.7349 12.6639 14.7364 12.6655 14.7379 12.6671L14.9502 12.8976C15.5898 13.5775 16.4948 14 17.5001 14C19.4331 14 21.0001 12.433 21.0001 10.5C21.0001 9.10377 20.1825 7.8985 19 7.33678V11C19 11.5523 18.5523 12 18 12C17.4477 12 17 11.5523 17 11V7.03539C16.1061 7.16308 15.3213 7.62825 14.7774 8.30039C14.4299 8.72972 13.8003 8.79612 13.3709 8.4487C12.9416 8.10129 12.8752 7.47161 13.2226 7.04229C14.2293 5.79824 15.7719 5 17.5001 5C20.5376 5 23.0001 7.46243 23.0001 10.5L23 19C23 19.5523 22.5523 20 22 20C21.4477 20 21 19.5523 21 19L21.0001 14.7429C20.421 15.2211 19.7424 15.583 19 15.793V19C19 19.5523 18.5523 20 18 20C17.4477 20 17 19.5523 17 19V15.9775C16.2852 15.913 15.6096 15.7116 15 15.4V19C15 19.5523 14.5523 20 14 20C13.4477 20 13 19.5523 13 19V13.7325L11 11.5615V19C11 19.5523 10.5523 20 10 20C9.44772 20 9 19.5523 9 19V9.39052L7 7.21955V19C7 19.5523 6.55228 20 6 20C5.44772 20 5 19.5523 5 19V6Z" fill="#0000CC"/>
</svg>
