<svg width="24" height="24" viewBox="0 0 24 24" fill="none" xmlns="http://www.w3.org/2000/svg">
<path fill-rule="evenodd" clip-rule="evenodd" d="M2 12C2 6.75329 6.25329 2.5 11.5 2.5C16.7467 2.5 21 6.75329 21 12C21 12.892 20.8768 13.756 20.6465 14.5756L22.1772 14.0535C22.6999 13.8753 23.2682 14.1545 23.4465 14.6772C23.6247 15.1999 23.3455 15.7682 22.8228 15.9465L18.8517 17.3007C18.6007 17.3863 18.3259 17.3687 18.0879 17.2517C17.8499 17.1348 17.6681 16.928 17.5825 16.677L16.2282 12.706C16.0499 12.1832 16.3292 11.615 16.8519 11.4367C17.3746 11.2584 17.9429 11.5377 18.1212 12.0604L18.7536 13.9149C18.9143 13.304 19 12.6624 19 12C19 7.85786 15.6421 4.5 11.5 4.5C7.35786 4.5 4 7.85786 4 12C4 16.1421 7.35786 19.5 11.5 19.5C12.0523 19.5 12.5 19.9477 12.5 20.5C12.5 21.0523 12.0523 21.5 11.5 21.5C6.25329 21.5 2 17.2467 2 12Z" fill="#0000CC"/>
</svg>
