<svg width="24" height="24" viewBox="0 0 24 24" fill="none" xmlns="http://www.w3.org/2000/svg">
<path d="M20.185 3.79619C18.4968 2.11532 16.0326 1.70219 13.568 2.19511C11.0907 2.69057 8.48816 4.11332 6.30037 6.30111C4.11258 8.48889 2.68984 11.0915 2.19438 13.5687C1.70058 16.0378 2.11606 18.5063 3.80449 20.1947C5.49291 21.8832 7.96148 22.2987 10.4305 21.8049C12.9078 21.3094 15.5103 19.8866 17.6981 17.6989C19.8859 15.5111 21.3087 12.9085 21.8041 10.4312C22.297 7.96668 21.8839 5.50257 20.2032 3.81439C20.853 4.47164 20.9622 5.38253 20.8638 6.20458C20.7631 7.04566 20.4287 7.98537 19.9471 8.9493C18.9789 10.8871 17.3093 13.1326 15.1936 15.2483C13.0779 17.364 10.845 19.021 8.91887 19.9762C7.96065 20.4514 7.02642 20.7789 6.18898 20.8737C5.36434 20.967 4.45781 20.8481 3.80449 20.1947C3.15116 19.5414 3.03236 18.635 3.12565 17.8103C3.22038 16.9729 3.54795 16.0387 4.02313 15.0804C4.97826 13.1543 6.63529 10.9215 8.75098 8.80576C10.8667 6.69001 13.1123 5.02038 15.05 4.0522C16.0139 3.57058 16.9536 3.23623 17.7947 3.13555C18.6168 3.03714 19.5277 3.1463 20.185 3.79619Z" fill="#0000CC"/>
<path d="M10.1652 10.22C12.1698 8.21532 14.2445 6.69043 15.9439 5.84131C16.7986 5.41428 17.5068 5.1843 18.0324 5.12137C18.5734 5.05662 18.7435 5.18311 18.7799 5.21946C18.8162 5.2558 18.9427 5.42595 18.8779 5.96687C18.815 6.49256 18.585 7.20071 18.158 8.05539C17.3089 9.75484 15.784 11.8295 13.7793 13.8341C11.7746 15.8388 9.71441 17.3493 8.03034 18.1844C7.18348 18.6043 6.48336 18.8276 5.96416 18.8863C5.43216 18.9465 5.2597 18.8215 5.21876 18.7806C5.17781 18.7396 5.05279 18.5671 5.11297 18.0351C5.17171 17.5159 5.39496 16.8158 5.81491 15.969C6.65004 14.2849 8.16051 12.2247 10.1652 10.22Z" fill="#0000CC"/>
</svg>
