<svg width="24" height="24" viewBox="0 0 24 24" fill="none" xmlns="http://www.w3.org/2000/svg">
<path d="M4.06024 9.1416C4.47601 6.23485 6.97759 4 9.99942 4C11.1322 4 12.1888 4.31294 13.0909 4.85653C13.564 5.14156 14.1785 4.98915 14.4635 4.51611C14.7486 4.04306 14.5962 3.42851 14.1231 3.14347C12.9182 2.41742 11.506 2 9.99942 2C5.96831 2 2.63507 4.98056 2.08039 8.8584C2.00219 9.40512 2.38199 9.91172 2.92871 9.98992C3.47544 10.0681 3.98203 9.68832 4.06024 9.1416Z" fill="#0000CC"/>
<path d="M13 6C13 5.44772 12.5523 5 12 5C11.4477 5 11 5.44772 11 6V9C11 9.55228 11.4477 10 12 10C12.5523 10 13 9.55228 13 9V6Z" fill="#0000CC"/>
<path d="M8.70711 7.29289C8.31658 6.90237 7.68342 6.90237 7.29289 7.29289C6.90237 7.68342 6.90237 8.31658 7.29289 8.70711L8.29289 9.70711C8.68342 10.0976 9.31658 10.0976 9.70711 9.70711C10.0976 9.31658 10.0976 8.68342 9.70711 8.29289L8.70711 7.29289Z" fill="#0000CC"/>
<path d="M18 4C15.7909 4 14 5.79086 14 8C14 8.46573 14.08 8.91492 14.2279 9.33325C14.3691 9.73284 14.7469 10 15.1707 10H20.8293C21.2531 10 21.6309 9.73284 21.7721 9.33325C21.92 8.91492 22 8.46573 22 8C22 5.79086 20.2091 4 18 4Z" fill="#0000CC"/>
<path d="M3 11C2.44772 11 2 11.4477 2 12V12.7577C2 15.2035 3.32598 17.4368 5.42857 18.6178V19C5.42857 20.1046 6.324 21 7.42857 21H16.5714C17.676 21 18.5714 20.1046 18.5714 19V18.6178C20.674 17.4368 22 15.2035 22 12.7577V12C22 11.4477 21.5523 11 21 11H3Z" fill="#0000CC"/>
</svg>
