<svg width="24" height="24" viewBox="0 0 24 24" fill="none" xmlns="http://www.w3.org/2000/svg">
<path d="M11.999 2C10.6928 2 9.58157 2.83481 9.16973 4H3.99903C3.44674 4 2.99903 4.44772 2.99903 5C2.99903 5.55228 3.44674 6 3.99903 6H9.16973C9.47102 6.85241 10.1466 7.52801 10.999 7.82929V20H3.99903C3.44674 20 2.99903 20.4477 2.99903 21C2.99903 21.5523 3.44674 22 3.99903 22H19.999C20.5513 22 20.999 21.5523 20.999 21C20.999 20.4477 20.5513 20 19.999 20H12.999V7.82929C13.8514 7.52801 14.527 6.85241 14.8283 6H19.999C20.5513 6 20.999 5.55228 20.999 5C20.999 4.44772 20.5513 4 19.999 4H14.8283C14.4165 2.83481 13.3052 2 11.999 2Z" fill="#0000CC"/>
<path d="M6.87081 8.50974C6.69369 8.19486 6.3605 8 5.99923 8C5.63796 8 5.30477 8.19486 5.12765 8.50974L2.32297 13.4958C2.25778 13.6114 2.17565 13.7571 2.11144 13.9714C2.05605 14.1564 2.02656 14.3605 2.02736 14.5536C2.02815 14.7444 2.04469 14.8474 2.07331 14.9722C2.42886 16.5221 4.04507 18 5.99923 18C7.85945 18 9.6606 16.9284 9.95875 14.8965C9.97498 14.7859 9.99275 14.6645 9.98251 14.4669C9.97443 14.3109 9.93521 14.0993 9.8868 13.9508C9.83242 13.7839 9.75123 13.6301 9.66533 13.4778L6.87081 8.50974Z" fill="#0000CC"/>
<path d="M18.8708 8.50974C18.6937 8.19486 18.3605 8 17.9992 8C17.638 8 17.3048 8.19486 17.1277 8.50974L14.323 13.4958C14.2578 13.6114 14.1757 13.7571 14.1114 13.9714C14.0561 14.1564 14.0266 14.3605 14.0274 14.5536C14.0281 14.7444 14.0447 14.8474 14.0733 14.9722C14.4289 16.5221 16.0451 18 17.9992 18C19.8595 18 21.6606 16.9284 21.9587 14.8965C21.975 14.7859 21.9927 14.6645 21.9825 14.4669C21.9744 14.3109 21.9352 14.0993 21.8868 13.9508C21.8324 13.7839 21.7512 13.6301 21.6653 13.4778L18.8708 8.50974Z" fill="#0000CC"/>
</svg>
