<svg width="24" height="24" viewBox="0 0 24 24" fill="none" xmlns="http://www.w3.org/2000/svg">
<path fill-rule="evenodd" clip-rule="evenodd" d="M3.53936 2.9218C3.72825 2.40282 4.30209 2.13524 4.82107 2.32413L9.51953 4.03423C9.57376 4.05397 9.62524 4.0779 9.67374 4.10554C10.2238 3.43089 11.0616 3.00006 12 3.00006C13.6568 3.00006 15 4.34321 15 6.00006C15 6.00968 14.9999 6.0193 14.9998 6.0289L19.8562 7.79645C20.3751 7.98534 20.6427 8.55919 20.4538 9.07816C20.2649 9.59714 19.6911 9.86473 19.1721 9.67584L14.3152 7.90805C13.9719 8.32409 13.5187 8.64602 13 8.82935V21.0001C13 21.5523 12.5523 22.0001 12 22.0001H3.99997C3.44769 22.0001 2.99997 21.5523 2.99997 21.0001C2.99997 20.4478 3.44769 20.0001 3.99997 20.0001H11V8.82935C9.83478 8.41752 8.99997 7.30628 8.99997 6.00006C8.99997 5.9861 9.00007 5.97217 9.00026 5.95825C8.94507 5.94825 8.88998 5.93345 8.83549 5.91362L4.13703 4.20351C3.61805 4.01462 3.35047 3.44078 3.53936 2.9218ZM5.99997 8.00006C6.36125 8.00006 6.69443 8.19492 6.87155 8.5098L9.66607 13.4778C9.6694 13.4838 9.67279 13.4898 9.67623 13.4959C9.74142 13.6115 9.82355 13.7571 9.88776 13.9715C9.91952 14.0775 9.93834 14.1929 9.94802 14.2599C9.95771 14.327 9.9723 14.4429 9.97184 14.5536C9.97105 14.7445 9.95451 14.8475 9.92589 14.9722C9.57034 16.5221 7.95413 18.0001 5.99997 18.0001C4.13975 18.0001 2.3386 16.9285 2.04046 14.8965C2.02422 14.7859 2.00646 14.6646 2.01669 14.467C2.02477 14.3109 2.064 14.0994 2.1124 13.9508C2.17458 13.76 2.25669 13.6146 2.32044 13.5017C2.32502 13.4935 2.3295 13.4856 2.33388 13.4778L5.1284 8.5098C5.30552 8.19492 5.6387 8.00006 5.99997 8.00006ZM18 12.0001C18.3612 12.0001 18.6944 12.1949 18.8715 12.5098L21.6661 17.4778C21.6694 17.4838 21.6728 17.4898 21.6762 17.4959C21.7414 17.6115 21.8235 17.7571 21.8878 17.9715C21.9195 18.0775 21.9383 18.1929 21.948 18.2599C21.9577 18.327 21.9723 18.4429 21.9718 18.5536C21.9711 18.7445 21.9545 18.8475 21.9259 18.9722C21.5703 20.5221 19.9541 22.0001 18 22.0001C16.1398 22.0001 14.3386 20.9285 14.0405 18.8965C14.0242 18.7859 14.0065 18.6646 14.0167 18.467C14.0248 18.3109 14.064 18.0994 14.1124 17.9508C14.1746 17.76 14.2567 17.6146 14.3204 17.5016C14.325 17.4935 14.3295 17.4856 14.3339 17.4778L17.1284 12.5098C17.3055 12.1949 17.6387 12.0001 18 12.0001Z" fill="#0000CC"/>
</svg>
