<svg width="24" height="24" viewBox="0 0 24 24" fill="none" xmlns="http://www.w3.org/2000/svg">
<path fill-rule="evenodd" clip-rule="evenodd" d="M11.1335 2.81937C11.6988 2.64875 12.3019 2.64875 12.8672 2.81937C13.2434 2.93292 13.555 3.12886 13.8455 3.35203C14.1193 3.56238 14.4278 3.83998 14.7831 4.15985L17.4843 6.5909L18.819 6.92457L18.9715 6.96252C19.6846 7.1396 20.3096 7.29481 20.7985 7.66084C21.2255 7.98058 21.5595 8.4084 21.7661 8.90021C22.0027 9.46322 22.0017 10.1072 22.0005 10.842L22.0003 10.9992V17.8392C22.0003 18.3664 22.0004 18.8211 21.9698 19.1957C21.9375 19.5911 21.8661 19.9843 21.6733 20.3627C21.3857 20.9271 20.9268 21.3861 20.3623 21.6737C19.9839 21.8665 19.5907 21.9378 19.1954 21.9701C18.8208 22.0007 18.366 22.0007 17.8389 22.0007H6.16176C5.63462 22.0007 5.17987 22.0007 4.8053 21.9701C4.40995 21.9378 4.01673 21.8665 3.63836 21.6737C3.07387 21.3861 2.61493 20.9271 2.32731 20.3627C2.13451 19.9843 2.0632 19.5911 2.0309 19.1957C2.00029 18.8211 2.00031 18.3664 2.00033 17.8392L2.00033 10.9992L2.00016 10.842C1.999 10.1072 1.99797 9.46322 2.23452 8.90021C2.44115 8.4084 2.77518 7.98058 3.20219 7.66084C3.69102 7.29481 4.31606 7.1396 5.02917 6.96252L5.18168 6.92457L6.51635 6.5909L9.21751 4.15985C9.5729 3.83998 9.88133 3.56238 10.1552 3.35203C10.4457 3.12886 10.7573 2.93292 11.1335 2.81937ZM6 10C5.44772 10 5 10.4477 5 11C5 11.5523 5.44772 12 6 12H7C7.55228 12 8 11.5523 8 11C8 10.4477 7.55228 10 7 10H6ZM11.5 10C10.9477 10 10.5 10.4477 10.5 11C10.5 11.5523 10.9477 12 11.5 12H12.5C13.0523 12 13.5 11.5523 13.5 11C13.5 10.4477 13.0523 10 12.5 10H11.5ZM17 10C16.4477 10 16 10.4477 16 11C16 11.5523 16.4477 12 17 12H18C18.5523 12 19 11.5523 19 11C19 10.4477 18.5523 10 18 10H17ZM6 14C5.44772 14 5 14.4477 5 15C5 15.5523 5.44772 16 6 16H7C7.55228 16 8 15.5523 8 15C8 14.4477 7.55228 14 7 14H6ZM17 14C16.4477 14 16 14.4477 16 15C16 15.5523 16.4477 16 17 16H18C18.5523 16 19 15.5523 19 15C19 14.4477 18.5523 14 18 14H17ZM10 17C10 15.8954 10.8954 15 12 15C13.1046 15 14 15.8954 14 17V20H10V17Z" fill="#0000CC"/>
</svg>
