<svg width="24" height="24" viewBox="0 0 24 24" fill="none" xmlns="http://www.w3.org/2000/svg">
<path fill-rule="evenodd" clip-rule="evenodd" d="M12.1603 1.00004L12.1564 1.00003C12.1425 0.999972 12.1041 0.999821 12.0602 1.0018C12.0404 1.00063 12.0204 1.00004 12.0003 1.00004C11.448 1.00004 11.0003 1.44775 11.0003 2.00004L11.0003 2.15611L11.0003 2.16004V6.86342C10.6825 6.98005 10.4107 7.15528 10.1552 7.35158C9.88133 7.56193 9.5729 7.83953 9.21751 8.15941L6.51635 10.5904L5.18168 10.9241L5.02916 10.9621C4.31606 11.1391 3.69102 11.2944 3.20219 11.6604C2.77518 11.9801 2.44115 12.4079 2.23452 12.8998C1.99797 13.4628 1.999 14.1068 2.00016 14.8416L2.00033 14.9987L2.00033 18.8388C2.00031 19.3659 2.00029 19.8207 2.0309 20.1953C2.0632 20.5906 2.13451 20.9838 2.32731 21.3622C2.61493 21.9267 3.07387 22.3856 3.63836 22.6733C4.01673 22.866 4.40995 22.9374 4.8053 22.9697C5.17987 23.0003 5.63462 23.0002 6.16176 23.0002H17.8389C18.366 23.0002 18.8208 23.0003 19.1954 22.9697C19.5907 22.9374 19.9839 22.866 20.3623 22.6733C20.9268 22.3856 21.3857 21.9267 21.6733 21.3622C21.8661 20.9838 21.9375 20.5906 21.9698 20.1953C22.0004 19.8207 22.0003 19.3659 22.0003 18.8388V14.9987L22.0005 14.8416C22.0017 14.1068 22.0027 13.4628 21.7661 12.8998C21.5595 12.4079 21.2255 11.9801 20.7985 11.6604C20.3096 11.2944 19.6846 11.1392 18.9715 10.9621L18.819 10.9241L17.4843 10.5904L14.7832 8.15943C14.4278 7.83954 14.1193 7.56193 13.8455 7.35158C13.5899 7.15528 13.3181 6.98005 13.0003 6.86342V6.00004H16.8403L16.8442 6.00005C16.863 6.00012 16.926 6.00037 16.9874 5.99535C17.066 5.98894 17.2246 5.9694 17.3997 5.88015C17.6067 5.77468 17.775 5.6064 17.8804 5.39943C17.9697 5.22427 17.9892 5.06567 17.9956 4.98715C18.0007 4.92576 18.0004 4.86274 18.0003 4.84396L18.0003 4.84004V2.16004L18.0003 2.15612C18.0004 2.13734 18.0007 2.07432 17.9956 2.01292C17.9892 1.93441 17.9697 1.77581 17.8804 1.60065C17.775 1.39368 17.6067 1.2254 17.3997 1.11993C17.2246 1.03068 17.066 1.01114 16.9874 1.00472C16.926 0.999706 16.863 0.999953 16.8443 1.00003L16.8403 1.00004H12.1603ZM12.0303 10.5C11.0638 10.5 10.2803 11.2835 10.2803 12.25C10.2803 13.2165 11.0638 14 12.0303 14C12.9968 14 13.7803 13.2165 13.7803 12.25C13.7803 11.2835 12.9968 10.5 12.0303 10.5ZM6 15C5.44772 15 5 15.4477 5 16C5 16.5523 5.44772 17 6 17H7C7.55228 17 8 16.5523 8 16C8 15.4477 7.55228 15 7 15H6ZM16 16C16 15.4477 16.4477 15 17 15H18C18.5523 15 19 15.4477 19 16C19 16.5523 18.5523 17 18 17H17C16.4477 17 16 16.5523 16 16ZM5 19C5 18.4477 5.44772 18 6 18H7C7.55228 18 8 18.4477 8 19C8 19.5523 7.55228 20 7 20H6C5.44772 20 5 19.5523 5 19ZM16 19C16 18.4477 16.4477 18 17 18H18C18.5523 18 19 18.4477 19 19C19 19.5523 18.5523 20 18 20H17C16.4477 20 16 19.5523 16 19ZM10 18C10 16.8954 10.8954 16 12 16C13.1046 16 14 16.8954 14 18V21H10V18Z" fill="#0000CC"/>
</svg>
