<svg width="24" height="24" viewBox="0 0 24 24" fill="none" xmlns="http://www.w3.org/2000/svg">
<path fill-rule="evenodd" clip-rule="evenodd" d="M7.61686 2.97058C8.94502 1.64241 11.0928 1.67994 12.4138 3.00094C13.7348 4.32194 13.7723 6.46971 12.4442 7.79788L4.39849 15.8435C3.8752 16.3668 3.86486 17.2481 4.42886 17.8121C4.99285 18.3761 5.87408 18.3657 6.39737 17.8424L14.443 9.79676C15.7712 8.46859 17.919 8.50612 19.24 9.82712C20.5605 11.1477 20.5997 13.2947 19.2711 14.6233L16.2532 17.6412C16.0022 17.8922 15.9279 18.1414 15.9334 18.3767C15.9395 18.6362 16.0473 18.9408 16.2668 19.2307C16.7456 19.8629 17.4269 20.067 17.8623 19.9024C17.8623 19.9024 17.8616 19.9026 17.864 19.9015C17.874 19.8968 17.9165 19.8768 18.0012 19.8289C18.0952 19.7756 18.2124 19.7044 18.3481 19.6183C18.6191 19.4463 18.9376 19.2315 19.2465 19.018C19.5541 18.8054 19.8455 18.5987 20.0605 18.4447C20.1679 18.3679 20.2558 18.3044 20.3167 18.2603L20.3868 18.2095L20.4102 18.1925C20.8563 17.8669 21.4821 17.9643 21.8077 18.4104C22.1334 18.8565 22.0357 19.4821 21.5896 19.8077L21.5629 19.8272L21.4894 19.8805C21.4261 19.9263 21.3354 19.9917 21.2249 20.0709C21.0042 20.2289 20.7032 20.4424 20.3837 20.6632C20.0656 20.8831 19.7227 21.1147 19.4198 21.3069C19.1492 21.4786 18.8199 21.6786 18.5695 21.7732C17.0201 22.3589 15.4771 21.5006 14.6724 20.4381C14.2502 19.8806 13.9516 19.1798 13.934 18.4233C13.9158 17.6427 14.2006 16.8654 14.839 16.227L17.8569 13.2091C18.3798 12.6862 18.3902 11.8058 17.8258 11.2413C17.2618 10.6773 16.3805 10.6877 15.8573 11.211L7.81158 19.2566C6.48341 20.5848 4.33564 20.5473 3.01464 19.2263C1.69364 17.9053 1.65611 15.7575 2.98428 14.4293L11.0299 6.38367C11.5532 5.86038 11.5636 4.97915 10.9996 4.41515C10.4356 3.85116 9.55436 3.8615 9.03107 4.38479L4.33776 9.0781C3.94724 9.46862 3.31407 9.46862 2.92355 9.0781C2.53303 8.68757 2.53303 8.05441 2.92355 7.66388L7.61686 2.97058Z" fill="#0000CC"/>
</svg>
