<svg width="24" height="24" viewBox="0 0 24 24" fill="none" xmlns="http://www.w3.org/2000/svg">
<path fill-rule="evenodd" clip-rule="evenodd" d="M2.59025 7.57335L2.22963 7.13761C1.87751 6.71213 1.93698 6.08176 2.36246 5.72964C2.68466 5.46299 3.12436 5.43237 3.47175 5.61799C8.71546 1.55141 15.788 0.97749 21.5478 3.89134C21.9739 4.10688 22.1882 4.59359 22.0594 5.05338C21.9306 5.51317 21.4947 5.81777 21.0186 5.78062C16.1904 5.40389 11.2492 6.86409 7.3265 10.1594L15.7704 20.3625C16.1225 20.7879 16.0631 21.4183 15.6376 21.7704C15.2121 22.1226 14.5818 22.0631 14.2296 21.6376L5.20084 10.7278C5.17731 10.7022 5.15538 10.6756 5.13503 10.6483L2.65567 7.6524C2.64962 7.64579 2.64363 7.63909 2.63772 7.63229C2.62103 7.61308 2.60521 7.59342 2.59025 7.57335Z" fill="#0000CC"/>
</svg>
