<svg width="24" height="24" viewBox="0 0 24 24" fill="none" xmlns="http://www.w3.org/2000/svg">
<path fill-rule="evenodd" clip-rule="evenodd" d="M11.3818 1.51195C11.7835 1.38143 12.2162 1.38143 12.6179 1.51195C12.9076 1.60608 13.1295 1.76565 13.3043 1.91409C13.4636 2.04926 13.6373 2.22308 13.8158 2.40157L15.2383 3.82411C15.331 3.91674 15.3774 3.96281 15.4125 3.99485L15.4151 3.99727L15.4187 3.99744C15.4662 3.99961 15.5316 3.99985 15.6626 3.99985L17.4317 3.99985C17.6841 3.99982 17.9299 3.99979 18.1381 4.01679C18.3667 4.03547 18.6364 4.07954 18.9078 4.21784C19.2842 4.40958 19.5901 4.71554 19.7819 5.09187C19.9202 5.36329 19.9642 5.63303 19.9829 5.86162C19.9999 6.06973 19.9999 6.31558 19.9999 6.5679L19.9998 8.33711C19.9998 8.46811 20.0001 8.53349 20.0023 8.58098L20.0024 8.58457L20.0048 8.58723C20.0369 8.62234 20.083 8.66874 20.1756 8.76137L21.5982 10.1839C21.7766 10.3624 21.9505 10.5362 22.0856 10.6954C22.234 10.8702 22.3936 11.0921 22.4877 11.3818C22.6183 11.7835 22.6183 12.2162 22.4877 12.6179C22.3936 12.9076 22.234 13.1295 22.0856 13.3043C21.9504 13.4636 21.7766 13.6373 21.5981 13.8158L20.1756 15.2383C20.083 15.331 20.0369 15.3774 20.0048 15.4125L20.0024 15.4151L20.0023 15.4187C20.0001 15.4662 19.9998 15.5316 19.9998 15.6626L19.9999 17.4319C19.9999 17.6842 19.9999 17.93 19.9829 18.1381C19.9642 18.3667 19.9202 18.6364 19.7819 18.9078C19.5901 19.2842 19.2842 19.5901 18.9078 19.7819C18.6364 19.9202 18.3667 19.9642 18.1381 19.9829C17.93 19.9999 17.6841 19.9999 17.4318 19.9999L15.6626 19.9998C15.5316 19.9998 15.4662 20.0001 15.4187 20.0023L15.4151 20.0024L15.4125 20.0048C15.3774 20.0369 15.331 20.083 15.2383 20.1756L13.8157 21.5982C13.6373 21.7766 13.4635 21.9505 13.3043 22.0856C13.1295 22.234 12.9076 22.3936 12.6179 22.4877C12.2162 22.6183 11.7835 22.6183 11.3818 22.4877C11.0921 22.3936 10.8702 22.234 10.6954 22.0856C10.5361 21.9504 10.3624 21.7766 10.1839 21.5981L8.76137 20.1756C8.66874 20.083 8.62234 20.0369 8.58722 20.0048L8.58456 20.0024L8.58098 20.0023C8.53349 20.0001 8.46811 19.9998 8.33711 19.9998L6.56782 19.9999C6.31549 19.9999 6.06973 19.9999 5.86162 19.9829C5.63303 19.9642 5.36329 19.9202 5.09187 19.7819C4.71554 19.5901 4.40958 19.2842 4.21784 18.9078C4.07954 18.6364 4.03547 18.3667 4.01679 18.1381C3.99979 17.9299 3.99982 17.6841 3.99985 17.4317L3.99985 15.6626C3.99985 15.5316 3.99961 15.4662 3.99744 15.4187L3.99727 15.4151L3.99485 15.4125C3.96281 15.3774 3.91674 15.331 3.82411 15.2383L2.40155 13.8158C2.22307 13.6373 2.04925 13.4636 1.91409 13.3043C1.76565 13.1295 1.60608 12.9076 1.51195 12.6179C1.38143 12.2162 1.38143 11.7835 1.51195 11.3818C1.60608 11.0921 1.76565 10.8702 1.91409 10.6954C2.04925 10.5361 2.22307 10.3624 2.40155 10.1839L3.82411 8.76137C3.91674 8.66874 3.96281 8.62234 3.99485 8.58722L3.99727 8.58457L3.99744 8.58098C3.99961 8.53349 3.99985 8.46811 3.99985 8.33711L3.99985 6.56793C3.99982 6.31555 3.99979 6.06977 4.01679 5.86162C4.03547 5.63303 4.07954 5.36329 4.21784 5.09187C4.40958 4.71554 4.71554 4.40958 5.09187 4.21784C5.36329 4.07954 5.63303 4.03547 5.86162 4.01679C6.06978 3.99979 6.31557 3.99982 6.56795 3.99985L8.33711 3.99985C8.46811 3.99985 8.53349 3.99961 8.58098 3.99744L8.58457 3.99727L8.58722 3.99485C8.62234 3.96281 8.66874 3.91674 8.76137 3.82411L10.1839 2.40154C10.3624 2.22307 10.5362 2.04924 10.6954 1.91409C10.8702 1.76565 11.0921 1.60608 11.3818 1.51195ZM11.9997 9.29984C11.5351 9.29984 11.1422 9.61757 11.0312 10.0491C10.8935 10.5839 10.3483 10.9059 9.81348 10.7683C9.27863 10.6306 8.95664 10.0854 9.0943 9.55058C9.42728 8.25687 10.6005 7.29984 11.9997 7.29984C13.6566 7.29984 14.9997 8.64298 14.9997 10.2998C14.9997 11.2312 14.5452 11.8491 14.0692 12.3086C13.8764 12.4947 13.6568 12.6767 13.4594 12.8403L13.3736 12.9115C13.1432 13.1031 12.9227 13.2911 12.7069 13.5069C12.3163 13.8975 11.6832 13.8975 11.2926 13.5069C10.9021 13.1164 10.9021 12.4833 11.2926 12.0927C11.5768 11.8086 11.8563 11.5721 12.0946 11.3739L12.1861 11.2979C12.3907 11.128 12.5459 10.9992 12.6803 10.8695C12.9542 10.6051 12.9997 10.473 12.9997 10.2998C12.9997 9.74755 12.552 9.29984 11.9997 9.29984ZM13 15.7998C13 16.3521 12.5523 16.7998 12 16.7998C11.4477 16.7998 11 16.3521 11 15.7998C11 15.2476 11.4477 14.7998 12 14.7998C12.5523 14.7998 13 15.2476 13 15.7998Z" fill="#0000CC"/>
</svg>
