<svg width="24" height="24" viewBox="0 0 24 24" fill="none" xmlns="http://www.w3.org/2000/svg">
<path d="M19.7343 9.69424L11.8233 5.73875C11.3363 5.49524 10.9114 5.28276 10.5643 5.14634C10.234 5.01652 9.76333 4.86387 9.2661 4.98227C8.65194 5.12852 8.14288 5.55618 7.89288 6.13591C7.69048 6.60526 7.75965 7.09524 7.83055 7.44297C7.90505 7.8084 8.04104 8.26356 8.1969 8.78523L8.85849 11H15.6099C16.1621 11 16.6099 11.4477 16.6099 12C16.6099 12.5523 16.1621 13 15.6099 13H8.87324L8.2093 15.2036C8.05174 15.7265 7.91433 16.1825 7.83878 16.5485C7.76695 16.8966 7.69634 17.3874 7.89829 17.8578C8.14759 18.4386 8.65673 18.8674 9.27144 19.0142C9.76938 19.1331 10.2411 18.98 10.5718 18.85C10.9196 18.7133 11.3456 18.5003 11.834 18.256L19.7343 14.3059C20.1611 14.0925 20.5411 13.9025 20.8291 13.7241C21.113 13.5483 21.4775 13.2858 21.6809 12.8571C21.9381 12.3147 21.9381 11.6854 21.6809 11.143C21.4775 10.7143 21.113 10.4518 20.8291 10.276C20.5411 10.0976 20.1611 9.9076 19.7343 9.69424Z" fill="#0000CC"/>
<path d="M3.10986 7.00008C2.55758 7.00008 2.10986 7.44779 2.10986 8.00008C2.10986 8.55236 2.55758 9.00008 3.10986 9.00008H5.60986C6.16215 9.00008 6.60986 8.55236 6.60986 8.00008C6.60986 7.44779 6.16215 7.00008 5.60986 7.00008H3.10986Z" fill="#0000CC"/>
<path d="M4.10986 11.0001C3.55758 11.0001 3.10986 11.4478 3.10986 12.0001C3.10986 12.5524 3.55758 13.0001 4.10986 13.0001H5.60986C6.16215 13.0001 6.60986 12.5524 6.60986 12.0001C6.60986 11.4478 6.16215 11.0001 5.60986 11.0001H4.10986Z" fill="#0000CC"/>
<path d="M4.60986 15.0001C4.05758 15.0001 3.60986 15.4478 3.60986 16.0001C3.60986 16.5524 4.05758 17.0001 4.60986 17.0001H5.60986C6.16215 17.0001 6.60986 16.5524 6.60986 16.0001C6.60986 15.4478 6.16215 15.0001 5.60986 15.0001H4.60986Z" fill="#0000CC"/>
</svg>
