<svg width="24" height="24" viewBox="0 0 24 24" fill="none" xmlns="http://www.w3.org/2000/svg">
<path d="M4.24936 9.69424L12.1604 5.73875C12.6473 5.49524 13.0722 5.28276 13.4193 5.14634C13.7496 5.01652 14.2203 4.86387 14.7176 4.98227C15.3317 5.12852 15.8408 5.55618 16.0908 6.13591C16.2932 6.60526 16.224 7.09524 16.1531 7.44297C16.0786 7.8084 15.9426 8.26356 15.7868 8.78523L15.1252 11H8.3738C7.82151 11 7.3738 11.4477 7.3738 12C7.3738 12.5523 7.82151 13 8.3738 13H15.1104L15.7744 15.2036C15.9319 15.7265 16.0693 16.1825 16.1449 16.5485C16.2167 16.8966 16.2873 17.3874 16.0854 17.8578C15.8361 18.4386 15.3269 18.8674 14.7122 19.0142C14.2143 19.1331 13.7426 18.98 13.4119 18.85C13.064 18.7133 12.6381 18.5003 12.1496 18.256L4.24937 14.3059C3.82258 14.0925 3.44251 13.9025 3.15451 13.7241C2.87064 13.5483 2.50613 13.2858 2.3028 12.8571C2.04555 12.3147 2.04555 11.6854 2.3028 11.143C2.50613 10.7143 2.87065 10.4518 3.15452 10.276C3.44251 10.0976 3.82258 9.9076 4.24936 9.69424Z" fill="#0000CC"/>
<path d="M20.8738 7.00008C21.4261 7.00008 21.8738 7.44779 21.8738 8.00008C21.8738 8.55236 21.4261 9.00008 20.8738 9.00008H18.3738C17.8215 9.00008 17.3738 8.55236 17.3738 8.00008C17.3738 7.44779 17.8215 7.00008 18.3738 7.00008H20.8738Z" fill="#0000CC"/>
<path d="M19.8738 11.0001C20.4261 11.0001 20.8738 11.4478 20.8738 12.0001C20.8738 12.5524 20.4261 13.0001 19.8738 13.0001H18.3738C17.8215 13.0001 17.3738 12.5524 17.3738 12.0001C17.3738 11.4478 17.8215 11.0001 18.3738 11.0001H19.8738Z" fill="#0000CC"/>
<path d="M19.3738 15.0001C19.9261 15.0001 20.3738 15.4478 20.3738 16.0001C20.3738 16.5524 19.9261 17.0001 19.3738 17.0001H18.3738C17.8215 17.0001 17.3738 16.5524 17.3738 16.0001C17.3738 15.4478 17.8215 15.0001 18.3738 15.0001H19.3738Z" fill="#0000CC"/>
</svg>
