<svg width="24" height="24" viewBox="0 0 24 24" fill="none" xmlns="http://www.w3.org/2000/svg">
<path fill-rule="evenodd" clip-rule="evenodd" d="M3.32698 4.63803C3 5.27976 3 6.11984 3 7.8V16.2C3 17.8802 3 18.7202 3.32698 19.362C3.6146 19.9265 4.07354 20.3854 4.63803 20.673C5.27976 21 6.11984 21 7.8 21H8.60912C8.57396 20.8638 8.54584 20.7252 8.52508 20.5847C8.40209 19.7522 8.62731 19.0083 8.84762 18.4443C9.06153 17.8967 9.38424 17.2514 9.73592 16.5482L11.6344 12.7511C12.0612 11.8976 12.4412 11.1375 12.7979 10.5615C13.1496 9.99375 13.6745 9.2647 14.532 8.85805C15.6168 8.34354 16.8753 8.34354 17.9602 8.85805C18.8176 9.2647 19.3425 9.99373 19.6942 10.5615C20.051 11.1375 20.431 11.8976 20.8577 12.7512L21 13.0358V7.8C21 6.11984 21 5.27976 20.673 4.63803C20.3854 4.07354 19.9265 3.6146 19.362 3.32698C18.7202 3 17.8802 3 16.2 3H7.8C6.11984 3 5.27976 3 4.63803 3.32698C4.07354 3.6146 3.6146 4.07354 3.32698 4.63803ZM6 7C6 6.44772 6.44772 6 7 6C7.55228 6 8 6.44772 8 7V11C8 11.5523 7.55228 12 7 12C6.44772 12 6 11.5523 6 11V7ZM10 7C10 6.44772 10.4477 6 11 6C11.5523 6 12 6.44772 12 7V11C12 11.5523 11.5523 12 11 12C10.4477 12 10 11.5523 10 11V7Z" fill="#0000CC"/>
<path fill-rule="evenodd" clip-rule="evenodd" d="M13.384 13.7244L11.5617 17.3689C10.795 18.9024 10.4116 19.6691 10.5037 20.2924C10.5841 20.8366 10.8851 21.3236 11.3359 21.6389C11.8522 22 12.7094 22 14.4239 22H18.0684C19.7829 22 20.6401 22 21.1564 21.6389C21.6072 21.3236 21.9082 20.8366 21.9886 20.2924C22.0807 19.6691 21.6973 18.9024 20.9306 17.369L19.1083 13.7244C18.1871 11.8819 17.7265 10.9607 17.1032 10.6651C16.5608 10.4079 15.9315 10.4079 15.3891 10.6651C14.7658 10.9607 14.3052 11.882 13.384 13.7244ZM17.2461 14C17.2461 13.4477 16.7984 13 16.2461 13C15.6938 13 15.2461 13.4477 15.2461 14V16C15.2461 16.5523 15.6938 17 16.2461 17C16.7984 17 17.2461 16.5523 17.2461 16V14ZM16.2461 18C15.6938 18 15.2461 18.4477 15.2461 19C15.2461 19.5523 15.6938 20 16.2461 20H16.2561C16.8084 20 17.2561 19.5523 17.2561 19C17.2561 18.4477 16.8084 18 16.2561 18H16.2461Z" fill="#0000CC"/>
</svg>
