<svg width="24" height="24" viewBox="0 0 24 24" fill="none" xmlns="http://www.w3.org/2000/svg">
<path fill-rule="evenodd" clip-rule="evenodd" d="M5 3C3.34315 3 2 4.34315 2 6V8C2 9.65685 3.34315 11 5 11H19C20.6569 11 22 9.65685 22 8V6C22 4.34315 20.6569 3 19 3H5ZM15 8C15.5523 8 16 7.55228 16 7C16 6.44772 15.5523 6 15 6C14.4477 6 14 6.44772 14 7C14 7.55228 14.4477 8 15 8ZM19 7C19 7.55228 18.5523 8 18 8C17.4477 8 17 7.55228 17 7C17 6.44772 17.4477 6 18 6C18.5523 6 19 6.44772 19 7Z" fill="#0000CC"/>
<path fill-rule="evenodd" clip-rule="evenodd" d="M2 16C2 14.3431 3.34315 13 5 13H19C20.6569 13 22 14.3431 22 16V18C22 19.6569 20.6569 21 19 21H5C3.34315 21 2 19.6569 2 18V16ZM15 18C15.5523 18 16 17.5523 16 17C16 16.4477 15.5523 16 15 16C14.4477 16 14 16.4477 14 17C14 17.5523 14.4477 18 15 18ZM18 18C18.5523 18 19 17.5523 19 17C19 16.4477 18.5523 16 18 16C17.4477 16 17 16.4477 17 17C17 17.5523 17.4477 18 18 18Z" fill="#0000CC"/>
</svg>
