<svg width="24" height="24" viewBox="0 0 24 24" fill="none" xmlns="http://www.w3.org/2000/svg">
<path fill-rule="evenodd" clip-rule="evenodd" d="M6.85736 1.99994C6.88169 2.00003 6.90543 2.00012 6.92852 2.00012H17.0715C17.0946 2.00012 17.1183 2.00003 17.1426 1.99994C17.4032 1.999 17.7308 1.99782 18.0403 2.09883C18.3078 2.18617 18.554 2.32901 18.7626 2.518C19.0038 2.73657 19.1653 3.02161 19.2938 3.24828C19.3058 3.26945 19.3175 3.29011 19.3289 3.31015L22.8682 9.50398C23.0451 9.81348 23.0438 10.1937 22.8649 10.502C22.686 10.8104 22.3565 11.0001 22 11.0001H21V21.0001C21 21.5524 20.5523 22.0001 20 22.0001C19.4477 22.0001 19 21.5524 19 21.0001V11.0001H15L15 18.6362C15 19.0253 15 19.3754 14.9762 19.6667C14.9508 19.9787 14.8931 20.3102 14.7275 20.6351C14.4878 21.1055 14.1054 21.4879 13.635 21.7276C13.3101 21.8932 12.9786 21.9509 12.6666 21.9764C12.3753 22.0002 12.0252 22.0001 11.6361 22.0001H6.36389C5.97481 22.0001 5.62468 22.0002 5.33337 21.9764C5.0214 21.9509 4.68993 21.8932 4.36502 21.7276C3.89462 21.4879 3.51217 21.1055 3.27248 20.6351C3.10694 20.3102 3.04925 19.9787 3.02376 19.6667C2.99996 19.3754 2.99998 19.0253 3 18.6362L3 11.0001H2C1.64353 11.0001 1.31401 10.8104 1.13509 10.502C0.956168 10.1937 0.954898 9.81348 1.13176 9.50398L4.67108 3.31015C4.68254 3.29011 4.69424 3.26945 4.70624 3.24829C4.83468 3.02161 4.99621 2.73657 5.23743 2.518C5.44603 2.32901 5.69216 2.18617 5.95975 2.09883C6.2692 1.99782 6.59682 1.999 6.85736 1.99994ZM5 11.0001V16.0001H13V11.0001H5Z" fill="#0000CC"/>
</svg>
