<svg width="24" height="24" viewBox="0 0 24 24" fill="none" xmlns="http://www.w3.org/2000/svg">
<path fill-rule="evenodd" clip-rule="evenodd" d="M9.06095 2.65826C9.20466 2.26307 9.58024 2 10.0007 2H14.0007C14.553 2 15.0007 2.44772 15.0007 3V5.71922L17.7582 5.02986C18.099 4.94466 18.4595 5.04451 18.7079 5.29289C18.9562 5.54127 19.0561 5.90176 18.9709 6.24254L18.2815 9H21.0007C21.553 9 22.0007 9.44772 22.0007 10V14C22.0007 14.4205 21.7377 14.7961 21.3425 14.9398L10.551 18.864L9.41459 20.0004L4.00037 14.5862L5.13677 13.4498L9.06095 2.65826ZM10.2575 16.8426L15.1135 15.0768L15.7124 11.5924L12.5627 12.8522L9.41496 16L10.2575 16.8426ZM8.00074 14.5858L11.1485 11.438L12.4083 8.28858L8.92399 8.88726L7.15818 13.7432L8.00074 14.5858Z" fill="#0000CC"/>
<path d="M2.65839 16.0726C1.70135 17.5626 1.71871 19.5133 3.12493 20.9069C4.51403 22.2938 6.44808 22.2704 7.92231 21.3365L2.65839 16.0726Z" fill="#0000CC"/>
</svg>
