<svg width="24" height="24" viewBox="0 0 24 24" fill="none" xmlns="http://www.w3.org/2000/svg">
<path fill-rule="evenodd" clip-rule="evenodd" d="M6.16146 4H17.8385C18.3657 3.99998 18.8205 3.99997 19.195 4.03057C19.5904 4.06287 19.9836 4.13419 20.362 4.32698C20.9265 4.6146 21.3854 5.07354 21.673 5.63803C21.8658 6.01641 21.9371 6.40963 21.9694 6.80497C22 7.17954 22 7.63429 22 8.16142V15.8385C22 16.3657 22 16.8205 21.9694 17.195C21.9371 17.5904 21.8658 17.9836 21.673 18.362C21.3854 18.9265 20.9265 19.3854 20.362 19.673C19.9836 19.8658 19.5904 19.9371 19.195 19.9694C18.8205 20 18.3657 20 17.8386 20H6.16143C5.63429 20 5.17954 20 4.80497 19.9694C4.40963 19.9371 4.01641 19.8658 3.63803 19.673C3.07354 19.3854 2.6146 18.9265 2.32698 18.362C2.13419 17.9836 2.06287 17.5904 2.03057 17.195C1.99997 16.8205 1.99998 16.3657 2 15.8386V8.16144C1.99998 7.6343 1.99997 7.17954 2.03057 6.80497C2.06287 6.40963 2.13419 6.01641 2.32698 5.63803C2.6146 5.07355 3.07354 4.6146 3.63803 4.32698C4.01641 4.13419 4.40963 4.06287 4.80497 4.03057C5.17954 3.99997 5.63432 3.99998 6.16146 4ZM6.2 18H14V6H6.2C5.62345 6 5.25117 6.00078 4.96784 6.02393C4.69617 6.04613 4.59545 6.0838 4.54601 6.109C4.35785 6.20487 4.20487 6.35785 4.10899 6.54601C4.0838 6.59546 4.04612 6.69618 4.02393 6.96784C4.00078 7.25118 4 7.62345 4 8.2V15.8C4 16.3766 4.00078 16.7488 4.02393 17.0322C4.04612 17.3038 4.0838 17.4045 4.10899 17.454C4.20487 17.6422 4.35785 17.7951 4.54601 17.891C4.59545 17.9162 4.69617 17.9539 4.96784 17.9761C5.25117 17.9992 5.62345 18 6.2 18ZM19 6C19.5523 6 20 6.44772 20 7C20 7.55229 19.5523 8 19 8H17C16.4477 8 16 7.55229 16 7C16 6.44772 16.4477 6 17 6H19ZM20 10C20 9.44772 19.5523 9 19 9H17C16.4477 9 16 9.44772 16 10C16 10.5523 16.4477 11 17 11H19C19.5523 11 20 10.5523 20 10ZM19 12C19.5523 12 20 12.4477 20 13C20 13.5523 19.5523 14 19 14H17C16.4477 14 16 13.5523 16 13C16 12.4477 16.4477 12 17 12H19Z" fill="#0000CC"/>
</svg>
