<svg width="24" height="24" viewBox="0 0 24 24" fill="none" xmlns="http://www.w3.org/2000/svg">
<path fill-rule="evenodd" clip-rule="evenodd" d="M5.48051 5.01032C5.0374 5.08571 4.36704 5.62715 3.92415 6.69642C3.7128 7.20667 3.12784 7.44898 2.61759 7.23764C2.10734 7.02629 1.86503 6.44133 2.07638 5.93108C2.63349 4.58604 3.71314 3.28229 5.14504 3.03866C5.90755 2.90892 6.67413 3.105 7.34406 3.63055C7.98874 4.1363 8.51282 4.91899 8.92666 5.93717C9.14103 6.46457 9.30431 6.99368 9.41994 7.52114L11.6209 6.61866C11.9515 6.48311 12.3293 6.53424 12.6119 6.75278C12.8946 6.97133 13.0392 7.3241 12.9912 7.67816L12.6449 10.2343H14.0003C14.5525 10.2343 15.0003 10.682 15.0003 11.2343C15.0003 11.7866 14.5525 12.2343 14.0003 12.2343H11.5003C11.2116 12.2343 10.9371 12.1096 10.7472 11.8922C10.5573 11.6749 10.4706 11.386 10.5093 11.1L10.7767 9.12641L9.63673 9.59386C9.60447 13.7334 6.8191 17.3397 3.41913 18.908C3.1095 19.0509 2.74843 19.0261 2.46122 18.8423C2.17401 18.6585 2.00026 18.341 2.00026 18C2.00026 17.4821 2.00049 16.9642 2.00071 16.4463C2.00118 15.3794 2.00164 14.3126 2.00014 13.2457C1.99923 12.6057 1.99844 12.0434 2.1868 11.5345C2.35164 11.0891 2.61985 10.6892 2.96936 10.3678C3.36875 10.0004 3.88935 9.78782 4.48189 9.54582C5.17023 9.26471 5.85806 8.98233 6.54588 8.69996L7.53349 8.29467C7.44358 7.76565 7.29298 7.22934 7.07386 6.69025C6.73773 5.86326 6.38681 5.42159 6.10962 5.20413C5.85768 5.00649 5.65551 4.98054 5.48051 5.01032ZM7.57804 10.438L5.36561 11.3452C4.57498 11.6694 4.42343 11.7477 4.32329 11.8398C4.20679 11.947 4.11739 12.0802 4.06244 12.2287C4.01522 12.3563 4.00026 12.5262 4.00026 13.3807V16.2609C5.87567 14.9087 7.28016 12.7863 7.57804 10.438Z" fill="#0000CC"/>
<path fill-rule="evenodd" clip-rule="evenodd" d="M15.0002 16C15.0002 14.3431 16.3434 13 18.0002 13C19.6571 13 21.0002 14.3431 21.0002 16V16.2679C21.3794 16.4869 21.6786 16.8257 21.848 17.2346C21.945 17.4687 21.9754 17.6944 21.9884 17.8848C22.0003 18.0589 22.0003 18.2635 22.0002 18.4735V18.5265C22.0003 18.7365 22.0003 18.9411 21.9884 19.1152C21.9754 19.3056 21.945 19.5313 21.848 19.7654C21.645 20.2554 21.2557 20.6448 20.7656 20.8478C20.5316 20.9447 20.3058 20.9752 20.1155 20.9882C19.9414 21 19.7368 21 19.5267 21H16.4738C16.2637 21 16.0591 21 15.885 20.9882C15.6946 20.9752 15.4689 20.9447 15.2349 20.8478C14.7448 20.6448 14.3555 20.2554 14.1525 19.7654C14.0555 19.5313 14.0251 19.3056 14.0121 19.1152C14.0002 18.9412 14.0002 18.7365 14.0002 18.5265V18.4735C14.0002 18.2635 14.0002 18.0588 14.0121 17.8848C14.0251 17.6944 14.0555 17.4687 14.1525 17.2346C14.3219 16.8257 14.6211 16.4869 15.0002 16.2679V16ZM19.0002 16C19.0002 15.4477 18.5525 15 18.0002 15C17.448 15 17.0002 15.4477 17.0002 16L19.0002 16Z" fill="#0000CC"/>
<path d="M10.5002 14C9.94796 14 9.50024 14.4477 9.50024 15C9.50024 15.5523 9.94796 16 10.5002 16H12.5002C13.0525 16 13.5002 15.5523 13.5002 15C13.5002 14.4477 13.0525 14 12.5002 14H10.5002Z" fill="#0000CC"/>
</svg>
