<svg width="24" height="24" viewBox="0 0 24 24" fill="none" xmlns="http://www.w3.org/2000/svg">
<path fill-rule="evenodd" clip-rule="evenodd" d="M20 9.73784V17.2C20 18.8802 20 19.7202 19.673 20.362C19.3854 20.9265 18.9265 21.3854 18.362 21.673C17.7202 22 16.8802 22 15.2 22H8.8C7.11984 22 6.27976 22 5.63803 21.673C5.07354 21.3854 4.6146 20.9265 4.32698 20.362C4 19.7202 4 18.8802 4 17.2V6.8C4 5.11984 4 4.27976 4.32698 3.63803C4.6146 3.07354 5.07354 2.6146 5.63803 2.32698C6.27976 2 7.11984 2 8.8 2H12.7518C13.5782 2 13.9914 2 14.3743 2.10301C14.7135 2.19429 15.0341 2.34444 15.3214 2.54664C15.6457 2.77484 15.9102 3.09226 16.4393 3.72711L18.8875 6.66496C19.2995 7.15938 19.5055 7.40665 19.6522 7.68403C19.7823 7.9301 19.8775 8.19308 19.9351 8.4654C20 8.77238 20 9.0942 20 9.73784ZM7 5.5C6.44772 5.5 6 5.94772 6 6.5V8.5C6 9.05229 6.44772 9.5 7 9.5C7.55228 9.5 8 9.05229 8 8.5V6.5C8 5.94772 7.55228 5.5 7 5.5ZM9 6.5C9 5.94772 9.44771 5.5 10 5.5C10.5523 5.5 11 5.94772 11 6.5V8.5C11 9.05229 10.5523 9.5 10 9.5C9.44771 9.5 9 9.05229 9 8.5V6.5ZM13 5.5C12.4477 5.5 12 5.94772 12 6.5V8.5C12 9.05229 12.4477 9.5 13 9.5C13.5523 9.5 14 9.05229 14 8.5V6.5C14 5.94772 13.5523 5.5 13 5.5Z" fill="#0000CC"/>
</svg>
