<svg width="24" height="24" viewBox="0 0 24 24" fill="none" xmlns="http://www.w3.org/2000/svg">
<path fill-rule="evenodd" clip-rule="evenodd" d="M17.484 2.12493C17.7467 2.27021 17.9302 2.52579 17.9839 2.82112L18.0331 3.09176C18.1091 3.51008 18.1437 3.69975 18.1824 3.8821C18.7387 6.50426 20.0919 8.89037 22.0569 10.7136C22.1935 10.8404 22.3385 10.9675 22.6585 11.2474C22.8755 11.4373 23 11.7117 23 12C23 12.2884 22.8755 12.5627 22.6585 12.7526C22.3386 13.0326 22.1935 13.1596 22.0569 13.2864C20.092 15.1097 18.7387 17.4958 18.1824 20.118C18.1437 20.3003 18.1091 20.49 18.0331 20.9083L17.9839 21.1789C17.9302 21.4742 17.7467 21.7298 17.484 21.8751C17.2213 22.0203 16.9073 22.04 16.6286 21.9285C13.6573 20.74 10.3427 20.74 7.37139 21.9285C7.09269 22.04 6.77866 22.0203 6.516 21.8751C6.25334 21.7298 6.06982 21.4742 6.01613 21.1789L5.96692 20.9083C5.89087 20.49 5.85629 20.3003 5.81761 20.118C5.26132 17.4958 3.90804 15.1097 1.94309 13.2864C1.80647 13.1596 1.66145 13.0326 1.3415 12.7526C1.12448 12.5627 1 12.2884 1 12C1 11.7117 1.12448 11.4373 1.3415 11.2474C1.66144 10.9675 1.80645 10.8405 1.94308 10.7137C3.90804 8.89041 5.26132 6.50426 5.81761 3.88205C5.85628 3.69972 5.89087 3.51007 5.96692 3.0918L6.01613 2.82112C6.06982 2.52579 6.25334 2.27021 6.516 2.12493C6.77867 1.97965 7.0927 1.96005 7.37139 2.07153C10.3427 3.26006 13.6573 3.26006 16.6286 2.07153C16.9073 1.96005 17.2213 1.97965 17.484 2.12493ZM9.06761 4.66258L10.144 6.59999C11.3735 6.79672 12.6265 6.79672 13.856 6.59999L14.9324 4.66258C12.9982 5.06304 11.0018 5.06304 9.06761 4.66258ZM16.613 5.75577L15.5926 7.59238C16.0448 8.81794 16.6812 9.967 17.4797 11H19.557C18.232 9.46905 17.2303 7.68497 16.613 5.75577ZM19.557 13H17.4796C16.6812 14.033 16.0448 15.1821 15.5926 16.4076L16.613 18.2442C17.2303 16.3151 18.232 14.531 19.557 13ZM14.9324 19.3374L13.856 17.4C12.6265 17.2033 11.3735 17.2033 10.144 17.4L9.0676 19.3374C11.0018 18.937 12.9982 18.937 14.9324 19.3374ZM7.38702 18.2442L8.40736 16.4076C7.9552 15.1821 7.31878 14.033 6.52037 13H4.44304C5.76796 14.531 6.7697 16.3151 7.38702 18.2442ZM4.44304 11H6.52033C7.31876 9.967 7.9552 8.81793 8.40736 7.59238L7.38702 5.75577C6.76971 7.68497 5.76796 9.46905 4.44304 11ZM9.63006 9.79324C9.42344 10.2058 9.19769 10.6085 8.95356 11H10.3005L9.63006 9.79324ZM10.3005 13H8.95359C9.19771 13.3915 9.42345 13.7942 9.63006 14.2068L10.3005 13ZM11.3279 15.2689C11.7757 15.247 12.2243 15.247 12.6721 15.2689L12 14.0591L11.3279 15.2689ZM13.6995 13L14.3699 14.2068C14.5765 13.7942 14.8023 13.3915 15.0464 13H13.6995ZM15.0464 11C14.8023 10.6085 14.5766 10.2058 14.3699 9.79324L13.6995 11H15.0464ZM12 9.94088L12.6721 8.7311C12.2243 8.75302 11.7757 8.75302 11.3279 8.7311L12 9.94088Z" fill="#0000CC"/>
</svg>
