<svg width="24" height="24" viewBox="0 0 24 24" fill="none" xmlns="http://www.w3.org/2000/svg">
<path d="M12 2C10.3431 2 9 3.34315 9 5C9 6.65685 10.3431 8 12 8H19C20.6569 8 22 6.65685 22 5C22 3.34315 20.6569 2 19 2H12Z" fill="#0000CC"/>
<path fill-rule="evenodd" clip-rule="evenodd" d="M12 8.99999C11.6546 8.99999 11.3194 8.95621 10.9997 8.8739C10.9988 9.04292 10.9964 9.09389 10.9916 9.13052C10.9325 9.57925 10.5794 9.93236 10.1307 9.99143C10.0821 9.99783 10.0082 9.99999 9.66682 9.99999H9.00015C6.79101 9.99999 5.00015 11.7909 5.00015 14C5.00015 16.2091 6.79101 18 9.00015 18V20C6.81877 20 4.90816 18.8365 3.85667 17.0915C3.57164 16.6184 2.95709 16.466 2.48404 16.7511C2.011 17.0361 1.85859 17.6506 2.14362 18.1237C3.54193 20.4443 6.08888 22 9.00015 22H21.0001C21.5524 22 22.0001 21.5523 22.0001 21C22.0001 20.4477 21.5524 20 21.0001 20H17.0001V18C18.657 18 20.0001 16.6568 20.0001 15V8.87393C19.6805 8.95622 19.3454 8.99999 19 8.99999H12ZM11.0001 18V20H15.0001V18H11.0001Z" fill="#0000CC"/>
</svg>
