<svg width="24" height="24" viewBox="0 0 24 24" fill="none" xmlns="http://www.w3.org/2000/svg">
<path fill-rule="evenodd" clip-rule="evenodd" d="M16.1615 2H16.8385C17.3657 1.99998 17.8205 1.99997 18.195 2.03057C18.5904 2.06287 18.9836 2.13419 19.362 2.32698C19.9265 2.6146 20.3854 3.07354 20.673 3.63803C20.8658 4.01641 20.9371 4.40963 20.9694 4.80497C21 5.17954 21 5.6343 21 6.16144L21 15.4319C21 15.6843 21.0001 15.9301 20.9831 16.1382C20.9644 16.3668 20.9203 16.6366 20.782 16.908C20.5903 17.2843 20.2843 17.5903 19.908 17.782C19.6366 17.9203 19.3668 17.9644 19.1382 17.9831C18.9301 18.0001 18.6843 18 18.4319 18L8.1875 18C6.42709 18 5 16.5729 5 14.8125C5 13.0521 6.42709 11.625 8.1875 11.625H10.6667C11.0081 11.625 11.0819 11.6228 11.1305 11.6164C11.5793 11.5574 11.9324 11.2043 11.9914 10.7555C11.9978 10.7069 12 10.6331 12 10.2917V6.16148C12 5.63432 12 5.17955 12.0306 4.80497C12.0629 4.40963 12.1342 4.01641 12.327 3.63803C12.6146 3.07354 13.0735 2.6146 13.638 2.32698C14.0164 2.13419 14.4096 2.06287 14.805 2.03057C15.1795 1.99997 15.6343 1.99998 16.1615 2ZM3 16C3.55228 16 4 16.4477 4 17C4 18.6569 5.34315 20 7 20H21C21.5523 20 22 20.4477 22 21C22 21.5523 21.5523 22 21 22H7C4.23858 22 2 19.7614 2 17C2 16.4477 2.44772 16 3 16Z" fill="#0000CC"/>
</svg>
