<svg width="24" height="24" viewBox="0 0 24 24" fill="none" xmlns="http://www.w3.org/2000/svg">
<path fill-rule="evenodd" clip-rule="evenodd" d="M5.00027 8.5C5.00027 4.83002 8.21796 2 12.0003 2C15.7826 2 19.0003 4.83002 19.0003 8.5C19.0003 9.16187 18.6013 9.65452 18.3107 9.94536C17.9953 10.2611 17.5975 10.5434 17.2495 10.7773C17.0986 10.8787 16.9604 10.969 16.8304 11.054C16.6276 11.1865 16.4444 11.3063 16.2647 11.4343C16.1275 11.532 16.0219 11.6146 15.9441 11.6845C15.8771 11.7447 15.8508 11.7776 15.846 11.7837C15.675 12.0546 15.6536 12.3869 15.6173 12.9525L15.6069 13.113L15.6068 13.115C15.5904 13.3614 15.5613 13.7999 15.3726 14.1766C15.2629 14.3954 15.0875 14.6223 14.8159 14.7853C14.5481 14.9461 14.2613 15 14.0003 15H10.001C9.73995 15 9.45245 14.9461 9.18459 14.7853C8.91301 14.6223 8.73765 14.3954 8.62796 14.1766C8.43921 13.7999 8.41013 13.3614 8.39378 13.115L8.39365 13.113L8.38323 12.9525C8.3469 12.3869 8.32537 12.0547 8.1544 11.7837C8.14956 11.7776 8.1234 11.7447 8.05644 11.6845C7.97863 11.6146 7.873 11.532 7.73582 11.4343C7.55616 11.3063 7.37337 11.1868 7.17051 11.0542C7.04043 10.9692 6.90209 10.8788 6.75104 10.7773C6.403 10.5434 6.00527 10.2611 5.68982 9.94536C5.39922 9.65452 5.00027 9.16187 5.00027 8.5ZM11.0002 7C11.0002 7.55228 10.5525 8 10.0002 8C9.44796 8 9.00024 7.55228 9.00024 7C9.00024 6.44772 9.44796 6 10.0002 6C10.5525 6 11.0002 6.44772 11.0002 7ZM15.0002 7C15.0002 7.55228 14.5525 8 14.0002 8C13.448 8 13.0002 7.55228 13.0002 7C13.0002 6.44772 13.448 6 14.0002 6C14.5525 6 15.0002 6.44772 15.0002 7Z" fill="#0000CC"/>
<path d="M2.06826 13.6376C2.26844 13.1228 2.84798 12.8678 3.36271 13.068L12.0003 16.427L20.6378 13.068C21.1526 12.8678 21.7321 13.1228 21.9323 13.6376C22.1324 14.1523 21.8774 14.7318 21.3627 14.932L14.7593 17.5L21.3627 20.068C21.8774 20.2682 22.1324 20.8477 21.9323 21.3624C21.7321 21.8772 21.1526 22.1322 20.6378 21.932L12.0003 18.573L3.36271 21.932C2.84798 22.1322 2.26844 21.8772 2.06826 21.3624C1.86809 20.8477 2.12309 20.2682 2.63782 20.068L9.24124 17.5L2.63782 14.932C2.12309 14.7318 1.86809 14.1523 2.06826 13.6376Z" fill="#0000CC"/>
</svg>
