<svg width="24" height="24" viewBox="0 0 24 24" fill="none" xmlns="http://www.w3.org/2000/svg">
<path fill-rule="evenodd" clip-rule="evenodd" d="M10.4786 2.87664C9.49262 2.24381 8.32633 1.93991 7.14915 2.0165C5.81611 2.10323 4.56014 2.67193 3.61555 3.61653C2.67096 4.56112 2.10225 5.81709 2.01552 7.15013C1.93893 8.32731 2.24283 9.4936 2.87567 10.4795C2.64691 11.8565 2.73209 13.2694 3.12731 14.6122C3.56466 16.0981 4.36772 17.4506 5.46298 18.5458C6.55824 19.6411 7.91072 20.4441 9.39662 20.8815C10.7394 21.2767 12.1523 21.3619 13.5293 21.1331C14.5152 21.766 15.6815 22.0699 16.8587 21.9933C18.1917 21.9065 19.4477 21.3378 20.3923 20.3932C21.3369 19.4486 21.9056 18.1927 21.9923 16.8596C22.0689 15.6825 21.765 14.5162 21.1321 13.5302C21.3609 12.1533 21.2757 10.7403 20.8805 9.39759C20.4432 7.91169 19.6401 6.55922 18.5448 5.46396C17.4496 4.3687 16.0971 3.56564 14.6112 3.12828C13.2685 2.73307 11.8555 2.64789 10.4786 2.87664ZM10.1669 9.75C10.1669 9.24413 10.6917 8.5 12 8.5C12.9596 8.5 13.5315 8.92708 13.7322 9.32488C13.981 9.81795 14.5824 10.016 15.0755 9.76715C15.5686 9.51834 15.7666 8.91693 15.5178 8.42387C14.8991 7.19792 13.5247 6.5 12 6.5C9.99521 6.5 8.16687 7.77149 8.16687 9.75C8.16687 10.8898 8.84965 11.5909 9.58449 12.0082C10.204 12.3601 10.9873 12.5849 11.6363 12.7713L11.8055 12.82C12.5611 13.0386 13.1412 13.2259 13.5415 13.4875C13.8746 13.7052 14 13.9123 14 14.25C14 14.4856 13.8749 14.7756 13.5212 15.0408C13.1673 15.3063 12.6327 15.5 12 15.5C11.3673 15.5 10.8327 15.3063 10.4788 15.0408C10.1251 14.7756 10 14.4856 10 14.25C10 13.6977 9.55228 13.25 9 13.25C8.44772 13.25 8 13.6977 8 14.25C8 15.2566 8.54657 16.0916 9.27876 16.6408C10.0107 17.1898 10.9761 17.5 12 17.5C13.0239 17.5 13.9893 17.1898 14.7212 16.6408C15.4534 16.0916 16 15.2566 16 14.25C16 13.0877 15.3963 12.3104 14.6357 11.8133C13.9422 11.3601 13.064 11.1021 12.3613 10.8988L12.2733 10.8733C11.5367 10.6604 10.9754 10.4981 10.5721 10.2691C10.2132 10.0653 10.1669 9.92274 10.1669 9.75Z" fill="#0000CC"/>
</svg>
