<svg width="24" height="24" viewBox="0 0 24 24" fill="none" xmlns="http://www.w3.org/2000/svg">
<path fill-rule="evenodd" clip-rule="evenodd" d="M10 3C8.34315 3 7 4.34315 7 6C7 6.35064 7.06015 6.68722 7.17071 7H6C4.34315 7 3 8.34315 3 10C3 10.7684 3.28885 11.4692 3.7639 12C3.28885 12.5308 3 13.2316 3 14C3 15.6569 4.34315 17 6 17C6.35064 17 6.68722 16.9398 7 16.8293V18C7 19.6569 8.34315 21 10 21C10.7684 21 11.4692 20.7111 12 20.2361C12.5308 20.7111 13.2316 21 14 21C15.6569 21 17 19.6569 17 18C17 17.6494 16.9398 17.3128 16.8293 17H18C19.6569 17 21 15.6569 21 14C21 13.2316 20.7111 12.5308 20.2361 12C20.7111 11.4692 21 10.7684 21 10C21 8.34315 19.6569 7 18 7C17.6494 7 17.3128 7.06015 17 7.17071V6C17 4.34315 15.6569 3 14 3C13.2316 3 12.5308 3.28885 12 3.7639C11.4692 3.28885 10.7684 3 10 3ZM6 9H10C10.5523 9 11 9.44772 11 10V11H6C5.44772 11 5 10.5523 5 10C5 9.44772 5.44772 9 6 9ZM13 14V13H18C18.5523 13 19 13.4477 19 14C19 14.5523 18.5523 15 18 15H14C13.4477 15 13 14.5523 13 14ZM13 18V17H14C14.5523 17 15 17.4477 15 18C15 18.5523 14.5523 19 14 19C13.4477 19 13 18.5523 13 18ZM11 6V7H10C9.44772 7 9 6.55228 9 6C9 5.44772 9.44772 5 10 5C10.5523 5 11 5.44772 11 6Z" fill="#0000CC"/>
</svg>
