<svg width="24" height="24" viewBox="0 0 24 24" fill="none" xmlns="http://www.w3.org/2000/svg">
<path fill-rule="evenodd" clip-rule="evenodd" d="M6.14494 4.5C6.57521 3.05426 7.91449 2 9.5 2C11.0855 2 12.4248 3.05426 12.8551 4.5H21C21.5523 4.5 22 4.94772 22 5.5C22 6.05228 21.5523 6.5 21 6.5H12.8551C12.4248 7.94574 11.0855 9 9.5 9C7.91449 9 6.57521 7.94574 6.14494 6.5H3C2.44772 6.5 2 6.05228 2 5.5C2 4.94772 2.44772 4.5 3 4.5H6.14494ZM13.1449 11C13.5752 9.55426 14.9145 8.5 16.5 8.5C18.0855 8.5 19.4248 9.55426 19.8551 11H21C21.5523 11 22 11.4477 22 12C22 12.5523 21.5523 13 21 13H19.8551C19.4248 14.4457 18.0855 15.5 16.5 15.5C14.9145 15.5 13.5752 14.4457 13.1449 13H3C2.44772 13 2 12.5523 2 12C2 11.4477 2.44772 11 3 11H13.1449ZM4.14494 17.5C4.57521 16.0543 5.91449 15 7.5 15C9.08551 15 10.4248 16.0543 10.8551 17.5H21C21.5523 17.5 22 17.9477 22 18.5C22 19.0523 21.5523 19.5 21 19.5H10.8551C10.4248 20.9457 9.08551 22 7.5 22C5.91449 22 4.57521 20.9457 4.14494 19.5H3C2.44772 19.5 2 19.0523 2 18.5C2 17.9477 2.44772 17.5 3 17.5H4.14494Z" fill="#0000CC"/>
</svg>
