<svg width="24" height="24" viewBox="0 0 24 24" fill="none" xmlns="http://www.w3.org/2000/svg">
<path fill-rule="evenodd" clip-rule="evenodd" d="M12.0002 2C12.5525 2 13.0002 2.44772 13.0002 3V3.58579L13.2931 3.29289C13.6836 2.90237 14.3168 2.90237 14.7073 3.29289C15.0978 3.68342 15.0978 4.31658 14.7073 4.70711L13.0002 6.41421V10.2831L16.624 8.1909L17.1756 6.13233C17.3186 5.59886 17.8669 5.28228 18.4004 5.42522C18.9338 5.56817 19.2504 6.1165 19.1075 6.64997L19.0735 6.77668L19.3207 6.63397C19.799 6.35783 20.4106 6.52171 20.6867 7C20.9629 7.47829 20.799 8.08988 20.3207 8.36603L20.0733 8.50887L20.2004 8.54292C20.7338 8.68586 21.0504 9.2342 20.9075 9.76767C20.7645 10.3011 20.2162 10.6177 19.6827 10.4748L17.6238 9.92308L14.0266 11.9999L17.6238 14.0768L19.6824 13.5252C20.2159 13.3823 20.7642 13.6989 20.9071 14.2323C21.0501 14.7658 20.7335 15.3141 20.2 15.4571L20.0733 15.491L20.3209 15.634C20.7992 15.9101 20.9631 16.5217 20.6869 17C20.4108 17.4783 19.7992 17.6422 19.3209 17.366L19.0731 17.223L19.1071 17.35C19.2501 17.8835 18.9335 18.4318 18.4 18.5748C17.8666 18.7177 17.3182 18.4011 17.1753 17.8677L16.6236 15.8088L13.0002 13.7168V17.5858L14.7073 19.2929C15.0978 19.6834 15.0978 20.3166 14.7073 20.7071C14.3168 21.0976 13.6836 21.0976 13.2931 20.7071L13.0002 20.4142V21C13.0002 21.5523 12.5525 22 12.0002 22C11.4479 22 11.0002 21.5523 11.0002 21V20.4142L10.7073 20.7071C10.3168 21.0976 9.68362 21.0976 9.29309 20.7071C8.90257 20.3166 8.90257 19.6834 9.29309 19.2929L11.0002 17.5858V13.7472L7.42952 15.8088L6.87784 17.8677C6.73489 18.4011 6.18656 18.7177 5.65309 18.5748C5.11963 18.4318 4.80304 17.8835 4.94598 17.35L4.98003 17.223L4.73225 17.366C4.25396 17.6422 3.64237 17.4783 3.36622 17C3.09008 16.5217 3.25396 15.9101 3.73225 15.634L3.97983 15.491L3.85309 15.4571C3.31963 15.3141 3.00304 14.7658 3.14598 14.2323C3.28893 13.6989 3.83726 13.3823 4.37073 13.5252L6.42932 14.0768L10.0266 11.9999L6.42933 9.92309L4.3704 10.4748C3.83693 10.6177 3.28859 10.3011 3.14565 9.76767C3.00271 9.2342 3.31929 8.68587 3.85276 8.54292L3.97984 8.50887L3.73243 8.36603C3.25413 8.08988 3.09026 7.47829 3.3664 7C3.64254 6.52171 4.25413 6.35783 4.73243 6.63397L4.9796 6.77668L4.94565 6.64997C4.80271 6.11651 5.11929 5.56817 5.65276 5.42523C6.18622 5.28229 6.73456 5.59887 6.8775 6.13234L7.42909 8.19089L11.0002 10.2527V6.41421L9.29309 4.70711C8.90257 4.31658 8.90257 3.68342 9.29309 3.29289C9.68362 2.90237 10.3168 2.90237 10.7073 3.29289L11.0002 3.58579V3C11.0002 2.44772 11.4479 2 12.0002 2Z" fill="#0000CC"/>
</svg>
