<svg width="24" height="24" viewBox="0 0 24 24" fill="none" xmlns="http://www.w3.org/2000/svg">
<path d="M9 13C8.44772 13 8 13.4477 8 14C8 14.5523 8.44772 15 9 15H9.01C9.56228 15 10.01 14.5523 10.01 14C10.01 13.4477 9.56228 13 9.01 13H9Z" fill="#0000CC"/>
<path d="M15 13C14.4477 13 14 13.4477 14 14C14 14.5523 14.4477 15 15 15H15.01C15.5623 15 16.01 14.5523 16.01 14C16.01 13.4477 15.5623 13 15.01 13H15Z" fill="#0000CC"/>
<path d="M13 16C13 15.4477 12.5523 15 12 15C11.4477 15 11 15.4477 11 16V17C11 17.5523 11.4477 18 12 18C12.5523 18 13 17.5523 13 17V16Z" fill="#0000CC"/>
<path fill-rule="evenodd" clip-rule="evenodd" d="M7.56811 2C7.31573 1.99997 7.06993 1.99994 6.86178 2.01695C6.63318 2.03563 6.36345 2.07969 6.09203 2.21799C5.7157 2.40974 5.40974 2.7157 5.21799 3.09202C5.0797 3.36345 5.03563 3.63318 5.01695 3.86178C4.99995 4.06993 4.99997 4.31573 5 4.56811L5.00001 7.00001H4.00001C3.67856 7.00001 3.37672 7.15453 3.18877 7.4153C3.00081 7.67606 2.94967 8.01128 3.05132 8.31623L3.3677 9.26583C3.58287 9.91455 3.77172 10.4839 4.14018 10.9245C4.43506 11.2772 4.80665 11.5569 5.22586 11.7427C4.44962 12.9755 4 14.4358 4 16C4 18.2383 4.92053 20.2634 6.40112 21.7142C6.58804 21.8974 6.83931 22 7.10102 22H16.899C17.1607 22 17.412 21.8974 17.5989 21.7142C19.0795 20.2634 20 18.2383 20 16C20 14.4358 19.5504 12.9755 18.7741 11.7427C19.1934 11.5569 19.5649 11.2772 19.8598 10.9245C20.2283 10.4839 20.4171 9.91455 20.6323 9.26583L20.9487 8.31623C21.0503 8.01129 20.9992 7.67606 20.8113 7.4153C20.6233 7.15453 20.3215 7.00001 20 7.00001H19L19 4.56813C19 4.31574 19.0001 4.06994 18.9831 3.86178C18.9644 3.63318 18.9203 3.36345 18.782 3.09203C18.5903 2.7157 18.2843 2.40974 17.908 2.21799C17.6366 2.07969 17.3668 2.03563 17.1382 2.01695C16.9301 1.99994 16.6843 1.99997 16.4319 2L7.56811 2ZM16.4722 12H7.52777C6.57688 13.0622 6 14.4628 6 16C6 17.537 6.57682 18.9378 7.52776 20H16.4722C17.4232 18.9378 18 17.537 18 16C18 14.4628 17.4231 13.0622 16.4722 12ZM18.6094 9.00001H5.39063C5.54424 9.4392 5.60392 9.55722 5.67441 9.64151C5.78181 9.76994 5.91972 9.86934 6.07552 9.93062C6.20921 9.9832 6.39173 10 7.30644 10H16.6936C17.6083 10 17.7908 9.9832 17.9245 9.93062C18.0803 9.86934 18.2182 9.76994 18.3256 9.64151C18.3961 9.55722 18.4558 9.4392 18.6094 9.00001Z" fill="#0000CC"/>
</svg>
