<svg width="24" height="24" viewBox="0 0 24 24" fill="none" xmlns="http://www.w3.org/2000/svg">
<path d="M5.69506 15.7278C5.65739 15.2491 5.85115 14.7813 6.21627 14.4695C6.54321 14.1903 6.93647 14.1459 7.12736 14.129C7.34133 14.11 7.60709 14.1101 7.87746 14.1101H16.0892C16.3596 14.1101 16.6253 14.11 16.8393 14.129C17.0302 14.1459 17.4234 14.1903 17.7504 14.4695C18.1155 14.7813 18.3093 15.2491 18.2716 15.7278C18.2379 16.1564 17.9912 16.4659 17.8681 16.6128C17.7303 16.7775 17.5424 16.9653 17.3512 17.1564L13.2398 21.2679C13.1556 21.3522 13.055 21.4528 12.9592 21.5342C12.8481 21.6285 12.6795 21.754 12.4469 21.8296C12.1456 21.9275 11.8211 21.9275 11.5198 21.8296C11.2872 21.754 11.1186 21.6285 11.0075 21.5342C10.9116 21.4528 10.8111 21.3522 10.7269 21.2679L6.61558 17.1566C6.42437 16.9654 6.23641 16.7775 6.09852 16.6128C5.9755 16.4659 5.7288 16.1564 5.69506 15.7278Z" fill="#0000CC"/>
</svg>
