<svg width="24" height="24" viewBox="0 0 24 24" fill="none" xmlns="http://www.w3.org/2000/svg">
<path d="M18.2717 8.28531C18.3094 8.76399 18.1156 9.23177 17.7505 9.54361C17.4236 9.82285 17.0303 9.86721 16.8394 9.88412C16.6255 9.90308 16.3597 9.90304 16.0893 9.903H7.8776C7.60722 9.90304 7.34146 9.90308 7.12749 9.88412C6.9366 9.86721 6.54335 9.82285 6.2164 9.54361C5.85129 9.23177 5.65752 8.76399 5.6952 8.28532C5.72893 7.85668 5.97564 7.54724 6.09866 7.4003C6.23651 7.23564 6.4244 7.0478 6.61555 6.8567L10.727 2.74521C10.8112 2.66095 10.9118 2.56032 11.0076 2.47895C11.1187 2.38466 11.2873 2.25911 11.5199 2.18352C11.8212 2.08564 12.1457 2.08564 12.447 2.18352C12.6796 2.25911 12.8482 2.38466 12.9593 2.47895C13.0552 2.56033 13.1557 2.66096 13.2399 2.74522L17.3512 6.85653C17.5424 7.04769 17.7304 7.23559 17.8683 7.40029C17.9913 7.54723 18.238 7.85667 18.2717 8.28531Z" fill="#0000CC"/>
<path d="M5.69506 15.7277C5.65739 15.2491 5.85115 14.7813 6.21627 14.4694C6.54321 14.1902 6.93647 14.1458 7.12736 14.1289C7.34133 14.11 7.60709 14.11 7.87746 14.11H16.0892C16.3596 14.11 16.6253 14.11 16.8393 14.1289C17.0302 14.1458 17.4234 14.1902 17.7504 14.4694C18.1155 14.7813 18.3093 15.2491 18.2716 15.7277C18.2379 16.1564 17.9912 16.4658 17.8681 16.6128C17.7303 16.7774 17.5424 16.9653 17.3512 17.1564L13.2398 21.2678C13.1556 21.3521 13.055 21.4527 12.9592 21.5341C12.8481 21.6284 12.6795 21.7539 12.4469 21.8295C12.1456 21.9274 11.8211 21.9274 11.5198 21.8295C11.2872 21.7539 11.1186 21.6284 11.0075 21.5341C10.9116 21.4527 10.8111 21.3521 10.7269 21.2678L6.61558 17.1565C6.42437 16.9654 6.23641 16.7775 6.09852 16.6128C5.9755 16.4658 5.7288 16.1564 5.69506 15.7277Z" fill="#0000CC"/>
</svg>
