<svg width="24" height="24" viewBox="0 0 24 24" fill="none" xmlns="http://www.w3.org/2000/svg">
<path fill-rule="evenodd" clip-rule="evenodd" d="M19 2C19.5523 2 20 2.44772 20 3V4H21C21.5523 4 22 4.44772 22 5C22 5.55228 21.5523 6 21 6H20V7C20 7.55228 19.5523 8 19 8C18.4477 8 18 7.55228 18 7V6H17C16.4477 6 16 5.55228 16 5C16 4.44772 16.4477 4 17 4H18V3C18 2.44772 18.4477 2 19 2ZM10 4C10.4107 4 10.7796 4.25108 10.9303 4.63311L12.4003 8.36032C12.6065 8.88331 12.6536 8.9835 12.7087 9.06052C12.7725 9.14955 12.8504 9.22751 12.9395 9.29127C13.0165 9.34643 13.1167 9.39348 13.6397 9.59974L17.3669 11.0697C17.7489 11.2204 18 11.5893 18 12C18 12.4107 17.7489 12.7796 17.3669 12.9303L13.6397 14.4003C13.1167 14.6065 13.0165 14.6536 12.9395 14.7087C12.8504 14.7725 12.7725 14.8504 12.7087 14.9395C12.6536 15.0165 12.6065 15.1167 12.4003 15.6397L10.9303 19.3669C10.7796 19.7489 10.4107 20 10 20C9.58933 20 9.22041 19.7489 9.06974 19.3669L7.59974 15.6397C7.39348 15.1167 7.34643 15.0165 7.29127 14.9395C7.22751 14.8504 7.14955 14.7725 7.06052 14.7087C6.9835 14.6536 6.8833 14.6065 6.36032 14.4003L2.63311 12.9303C2.25108 12.7796 2 12.4107 2 12C2 11.5893 2.25108 11.2204 2.63311 11.0697L6.36032 9.59974C6.8833 9.39348 6.9835 9.34643 7.06052 9.29127C7.14955 9.22751 7.22751 9.14955 7.29127 9.06052C7.34643 8.9835 7.39348 8.88331 7.59974 8.36032L9.06974 4.63311C9.22041 4.25108 9.58933 4 10 4ZM19 16C19.5523 16 20 16.4477 20 17V18H21C21.5523 18 22 18.4477 22 19C22 19.5523 21.5523 20 21 20H20V21C20 21.5523 19.5523 22 19 22C18.4477 22 18 21.5523 18 21V20H17C16.4477 20 16 19.5523 16 19C16 18.4477 16.4477 18 17 18H18V17C18 16.4477 18.4477 16 19 16Z" fill="#0000CC"/>
</svg>
