<svg width="24" height="24" viewBox="0 0 24 24" fill="none" xmlns="http://www.w3.org/2000/svg">
<path fill-rule="evenodd" clip-rule="evenodd" d="M5.16405 8.5H6.83646L6.00026 5.58011L5.16405 8.5ZM7.39896 10.5L8.0376 12.7707C8.18713 13.3024 8.73934 13.6122 9.271 13.4627C9.80266 13.3131 10.1124 12.7609 9.96291 12.2293L7.95259 5.08335C7.68549 4.22001 6.94306 3.5 6.00026 3.5C5.04832 3.5 4.30522 4.23238 4.04182 5.10352C3.35141 7.47221 2.70559 9.85418 2.0376 12.2293C1.88808 12.7609 2.19785 13.3131 2.72951 13.4627C3.26117 13.6122 3.81338 13.3024 3.96291 12.7707L4.60155 10.5H7.39896ZM11.0003 4.5C11.0003 3.94772 11.448 3.5 12.0003 3.5H15.0003C16.6571 3.5 18.0003 4.84315 18.0003 6.5C18.0003 7.03465 17.8604 7.53664 17.6153 7.97137C18.4482 8.50444 19.0003 9.43774 19.0003 10.5C19.0003 12.1569 17.6571 13.5 16.0003 13.5H12.0003C11.448 13.5 11.0003 13.0523 11.0003 12.5V4.5ZM13.0003 9.5V11.5H16.0003C16.5525 11.5 17.0003 11.0523 17.0003 10.5C17.0003 9.94772 16.5525 9.5 16.0003 9.5H13.0003ZM13.0003 7.5H15.0003C15.5525 7.5 16.0003 7.05228 16.0003 6.5C16.0003 5.94772 15.5525 5.5 15.0003 5.5H13.0003V7.5ZM21.6785 12.7652C22.0844 13.1398 22.1097 13.7725 21.7351 14.1783L16.1966 20.1783C16.0073 20.3834 15.7409 20.5 15.4618 20.5C15.1827 20.5 14.9163 20.3834 14.727 20.1783L12.2655 17.5116C11.8908 17.1058 11.9162 16.4731 12.322 16.0985C12.7278 15.7239 13.3605 15.7492 13.7351 16.1551L15.4618 18.0257L20.2655 12.8217C20.6401 12.4159 21.2727 12.3906 21.6785 12.7652Z" fill="#0000CC"/>
</svg>
