<svg width="24" height="24" viewBox="0 0 24 24" fill="none" xmlns="http://www.w3.org/2000/svg">
<path fill-rule="evenodd" clip-rule="evenodd" d="M7.48762 2.04219C8.01661 2.20089 8.31679 2.75837 8.1581 3.28737L7.10315 6.80386L9.19727 9.59602L9.32922 8.01387C9.33028 8.00123 9.33133 7.98855 9.33238 7.97595C9.35668 7.6839 9.38008 7.4027 9.4182 7.18025C9.45071 6.99057 9.52832 6.57844 9.85275 6.26813C10.2087 5.92763 10.7092 5.78362 11.1917 5.88284C11.5867 5.96406 11.8566 6.22069 12.0005 6.37601C12.1444 6.22069 12.4143 5.96406 12.8093 5.88284C13.2918 5.78362 13.7923 5.92763 14.1483 6.26813C14.4727 6.57844 14.5503 6.99057 14.5828 7.18025C14.6209 7.4027 14.6443 7.68389 14.6686 7.97594L14.8035 9.5957L16.8974 6.80386L15.8424 3.28737C15.6837 2.75837 15.9839 2.20089 16.5129 2.04219C17.0419 1.8835 17.5994 2.18368 17.7581 2.71267L18.9581 6.71267C19.0493 7.01674 18.9907 7.34606 18.8003 7.60002L17.221 9.70567L18.7315 9.2022L20.0639 5.6489C20.2579 5.13178 20.8343 4.86977 21.3514 5.06369C21.8685 5.25761 22.1305 5.83402 21.9366 6.35114L20.4366 10.3511C20.3306 10.6337 20.1028 10.8533 19.8165 10.9487L16.7342 11.9762L20.2876 13.0422C20.6528 13.1518 20.924 13.4595 20.9867 13.8356L21.4867 16.8356C21.5775 17.3804 21.2094 17.8956 20.6647 17.9864C20.1199 18.0772 19.6047 17.7092 19.5139 17.1644L19.1163 14.7789L17.401 14.2643L18.7595 15.8492C19.0107 16.1422 19.0708 16.5535 18.9141 16.9062L16.9141 21.4062C16.6898 21.9108 16.0988 22.1381 15.5941 21.9138C15.0894 21.6895 14.8622 21.0986 15.0865 20.5939L16.8299 16.6712L15.746 15.4066C15.1767 16.9218 13.7144 18 12.0003 18C10.2861 18 8.82383 16.9218 8.25458 15.4066L7.17065 16.6712L8.91408 20.5939C9.13839 21.0986 8.91109 21.6895 8.40641 21.9138C7.90173 22.1381 7.31076 21.9108 7.08646 21.4062L5.08646 16.9062C4.92974 16.5535 4.98989 16.1422 5.24101 15.8492L6.59955 14.2643L4.88426 14.7789L4.48667 17.1644C4.39587 17.7092 3.88064 18.0772 3.33587 17.9864C2.7911 17.8956 2.42308 17.3804 2.51388 16.8356L3.01388 13.8356C3.07656 13.4595 3.34769 13.1518 3.71292 13.0422L7.26639 11.9762L4.18404 10.9487C3.89777 10.8533 3.6699 10.6337 3.56394 10.3511L2.06394 6.35114C1.87002 5.83402 2.13203 5.25761 2.64915 5.06369C3.16627 4.86977 3.74268 5.13178 3.9366 5.6489L5.26909 9.2022L6.77951 9.70567L5.20027 7.60002C5.0098 7.34606 4.95122 7.01674 5.04244 6.71267L6.24244 2.71267C6.40114 2.18368 6.95863 1.8835 7.48762 2.04219Z" fill="#0000CC"/>
</svg>
