<svg width="24" height="24" viewBox="0 0 24 24" fill="none" xmlns="http://www.w3.org/2000/svg">
<path fill-rule="evenodd" clip-rule="evenodd" d="M3.32698 4.63803C3 5.27976 3 6.11984 3 7.8V16.2C3 17.8802 3 18.7202 3.32698 19.362C3.6146 19.9265 4.07354 20.3854 4.63803 20.673C5.27976 21 6.11984 21 7.8 21H16.2C17.8802 21 18.7202 21 19.362 20.673C19.9265 20.3854 20.3854 19.9265 20.673 19.362C21 18.7202 21 17.8802 21 16.2V7.8C21 6.11984 21 5.27976 20.673 4.63803C20.3854 4.07354 19.9265 3.6146 19.362 3.32698C18.7202 3 17.8802 3 16.2 3H7.8C6.11984 3 5.27976 3 4.63803 3.32698C4.07354 3.6146 3.6146 4.07354 3.32698 4.63803ZM9 6C9.55228 6 10 6.44772 10 7V8H17C17.5523 8 18 8.44772 18 9C18 9.55228 17.5523 10 17 10H10V11C10 11.5523 9.55228 12 9 12C8.44772 12 8 11.5523 8 11V10H7C6.44772 10 6 9.55228 6 9C6 8.44772 6.44772 8 7 8H8V7C8 6.44772 8.44772 6 9 6ZM15 12C15.5523 12 16 12.4477 16 13V14H17C17.5523 14 18 14.4477 18 15C18 15.5523 17.5523 16 17 16H16V17C16 17.5523 15.5523 18 15 18C14.4477 18 14 17.5523 14 17V16H7C6.44772 16 6 15.5523 6 15C6 14.4477 6.44772 14 7 14H14V13C14 12.4477 14.4477 12 15 12Z" fill="#0000CC"/>
</svg>
