<svg width="24" height="24" viewBox="0 0 24 24" fill="none" xmlns="http://www.w3.org/2000/svg">
<path fill-rule="evenodd" clip-rule="evenodd" d="M3.32698 4.63803C3 5.27976 3 6.11984 3 7.8V16.2C3 17.8802 3 18.7202 3.32698 19.362C3.6146 19.9265 4.07354 20.3854 4.63803 20.673C5.27976 21 6.11984 21 7.8 21H13.7574L12.8787 20.1213C12.5512 19.7938 12.3152 19.4095 12.1708 19H6.60011C6.39355 19 6.22509 19 6.08398 18.9945C6.56231 16.1595 9.02902 14 12.0001 14C13.2398 14 14.3917 14.376 15.348 15.0201C15.9429 15.0892 16.5212 15.3361 16.9966 15.7608L18.8787 13.8787C19.4645 13.2929 20.2322 13 21 13V7.8C21 6.11984 21 5.27976 20.673 4.63803C20.3854 4.07354 19.9265 3.6146 19.362 3.32698C18.7202 3 17.8802 3 16.2 3H7.8C6.11984 3 5.27976 3 4.63803 3.32698C4.07354 3.6146 3.6146 4.07354 3.32698 4.63803ZM15 10C15 11.6569 13.6569 13 12 13C10.3431 13 9 11.6569 9 10C9 8.34315 10.3431 7 12 7C13.6569 7 15 8.34315 15 10Z" fill="#0000CC"/>
<path d="M21.7071 16.7071C22.0976 16.3166 22.0976 15.6834 21.7071 15.2929C21.3166 14.9024 20.6834 14.9024 20.2929 15.2929L17 18.5858L15.7071 17.2929C15.3166 16.9024 14.6834 16.9024 14.2929 17.2929C13.9024 17.6834 13.9024 18.3166 14.2929 18.7071L16.2929 20.7071C16.6834 21.0976 17.3166 21.0976 17.7071 20.7071L21.7071 16.7071Z" fill="#0000CC"/>
</svg>
