<svg width="24" height="24" viewBox="0 0 24 24" fill="none" xmlns="http://www.w3.org/2000/svg">
<path fill-rule="evenodd" clip-rule="evenodd" d="M3.32698 4.63803C3 5.27976 3 6.11984 3 7.8V16.2C3 17.8802 3 18.7202 3.32698 19.362C3.6146 19.9265 4.07354 20.3854 4.63803 20.673C5.27976 21 6.11984 21 7.8 21H16.2C17.8802 21 18.7202 21 19.362 20.673C19.9265 20.3854 20.3854 19.9265 20.673 19.362C21 18.7202 21 17.8802 21 16.2V7.8C21 6.11984 21 5.27976 20.673 4.63803C20.3854 4.07354 19.9265 3.6146 19.362 3.32698C18.7202 3 17.8802 3 16.2 3H7.8C6.11984 3 5.27976 3 4.63803 3.32698C4.07354 3.6146 3.6146 4.07354 3.32698 4.63803ZM14.0851 7.51544C14.7723 6.82819 15.8866 6.82819 16.5739 7.51544C17.2611 8.2027 17.2611 9.31696 16.5739 10.0042L11.4254 15.1526C10.9141 15.664 10.6584 15.9197 10.367 16.1226C10.1083 16.3027 9.82929 16.4517 9.53569 16.5663C9.20491 16.6954 8.85016 16.7655 8.14076 16.9057L8.04393 16.9249C7.63845 17.005 7.43571 17.0451 7.29373 16.9844C7.16967 16.9313 7.0723 16.8304 7.02375 16.7046C6.96818 16.5605 7.01548 16.3593 7.11007 15.957L7.14398 15.8127C7.29906 15.1531 7.3766 14.8232 7.50561 14.5157C7.62014 14.2427 7.76462 13.9833 7.9364 13.7422C8.1299 13.4706 8.36948 13.231 8.84865 12.7519L14.0851 7.51544Z" fill="#0000CC"/>
</svg>
