<svg width="24" height="24" viewBox="0 0 24 24" fill="none" xmlns="http://www.w3.org/2000/svg">
<path d="M13.8385 6H10.1615C9.63433 5.99998 9.17954 5.99997 8.80497 6.03057C8.40963 6.06287 8.01641 6.13419 7.63803 6.32698C7.07354 6.6146 6.6146 7.07354 6.32698 7.63803C6.13419 8.01641 6.06287 8.40963 6.03057 8.80497C5.99997 9.17954 5.99998 9.63429 6 10.1614V13.8385C5.99998 14.3657 5.99997 14.8205 6.03057 15.195C6.06287 15.5904 6.13419 15.9836 6.32698 16.362C6.6146 16.9265 7.07354 17.3854 7.63803 17.673C8.01641 17.8658 8.40963 17.9371 8.80497 17.9694C9.17954 18 9.63431 18 10.1614 18H13.8385C14.3657 18 14.8205 18 15.195 17.9694C15.5904 17.9371 15.9836 17.8658 16.362 17.673C16.9265 17.3854 17.3854 16.9265 17.673 16.362C17.8658 15.9836 17.9371 15.5904 17.9694 15.195C18 14.8205 18 14.3657 18 13.8386V10.1615C18 9.63434 18 9.17954 17.9694 8.80497C17.9371 8.40963 17.8658 8.01641 17.673 7.63803C17.3854 7.07354 16.9265 6.6146 16.362 6.32698C15.9836 6.13419 15.5904 6.06287 15.195 6.03057C14.8205 5.99997 14.3657 5.99998 13.8385 6Z" fill="#0000CC"/>
</svg>
