<svg width="24" height="24" viewBox="0 0 24 24" fill="none" xmlns="http://www.w3.org/2000/svg">
<path fill-rule="evenodd" clip-rule="evenodd" d="M3.32698 4.63803C3 5.27976 3 6.11984 3 7.8V16.2C3 17.8802 3 18.7202 3.32698 19.362C3.6146 19.9265 4.07354 20.3854 4.63803 20.673C5.27976 21 6.11984 21 7.8 21H11C11 20.6815 11.0507 20.3612 11.154 20.0513L11.6981 18.4189C12.0574 17.341 12.7595 16.4484 13.659 15.8458C13.241 15.1627 13 14.3595 13 13.5C13 11.0147 15.0147 9 17.5 9C18.9136 9 20.175 9.65182 21 10.6713V7.8C21 6.11984 21 5.27976 20.673 4.63803C20.3854 4.07354 19.9265 3.6146 19.362 3.32698C18.7202 3 17.8802 3 16.2 3H7.8C6.11984 3 5.27976 3 4.63803 3.32698C4.07354 3.6146 3.6146 4.07354 3.32698 4.63803ZM11 8H9V15H11V8ZM8 11H6V15H8V11Z" fill="#0000CC"/>
<path d="M15 13.5C15 12.1193 16.1193 11 17.5 11C18.8807 11 20 12.1193 20 13.5C20 14.8807 18.8807 16 17.5 16C16.1193 16 15 14.8807 15 13.5Z" fill="#0000CC"/>
<path d="M13.5955 19.0513C14.0038 17.8263 15.1502 17 16.4415 17H18.5585C19.8498 17 20.9962 17.8263 21.4045 19.0513L21.9487 20.6838C22.0503 20.9887 21.9992 21.3239 21.8112 21.5847C21.6233 21.8455 21.3215 22 21 22H14C13.6786 22 13.3767 21.8455 13.1888 21.5847C13.0008 21.3239 12.9497 20.9887 13.0513 20.6838L13.5955 19.0513Z" fill="#0000CC"/>
</svg>
