<svg width="24" height="24" viewBox="0 0 24 24" fill="none" xmlns="http://www.w3.org/2000/svg">
<path d="M11 9.75C11 10.1642 11.3358 10.5 11.75 10.5H12.25C12.6642 10.5 13 10.1642 13 9.75C13 9.33579 12.6642 9 12.25 9H11.75C11.3358 9 11 9.33579 11 9.75Z" fill="#0000CC"/>
<path d="M11.75 12.5H12.25C12.9404 12.5 13.5 13.0596 13.5 13.75C13.5 14.4404 12.9404 15 12.25 15H11.75C11.0596 15 10.5 14.4404 10.5 13.75C10.5 13.0596 11.0596 12.5 11.75 12.5Z" fill="#0000CC"/>
<path fill-rule="evenodd" clip-rule="evenodd" d="M3.32698 4.63803C3 5.27976 3 6.11984 3 7.8V16.2C3 17.8802 3 18.7202 3.32698 19.362C3.6146 19.9265 4.07354 20.3854 4.63803 20.673C5.27976 21 6.11984 21 7.8 21H16.2C17.8802 21 18.7202 21 19.362 20.673C19.9265 20.3854 20.3854 19.9265 20.673 19.362C21 18.7202 21 17.8802 21 16.2V7.8C21 6.11984 21 5.27976 20.673 4.63803C20.3854 4.07354 19.9265 3.6146 19.362 3.32698C18.7202 3 17.8802 3 16.2 3H7.8C6.11984 3 5.27976 3 4.63803 3.32698C4.07354 3.6146 3.6146 4.07354 3.32698 4.63803ZM11.75 7C10.2312 7 9 8.23122 9 9.75C9 10.358 9.19728 10.9198 9.53133 11.3751C8.89669 11.9683 8.5 12.8128 8.5 13.75C8.5 15.5449 9.95508 17 11.75 17H12.25C14.0449 17 15.5 15.5449 15.5 13.75C15.5 12.8128 15.1033 11.9683 14.4687 11.3751C14.8027 10.9198 15 10.358 15 9.75C15 8.23122 13.7688 7 12.25 7H11.75Z" fill="#0000CC"/>
</svg>
