<svg width="24" height="24" viewBox="0 0 24 24" fill="none" xmlns="http://www.w3.org/2000/svg">
<path d="M10.5 13.5C10.5 13.169 10.6072 12.8631 10.7887 12.6151C10.7959 12.6058 10.803 12.5963 10.81 12.5867C11.0842 12.2299 11.5152 12 12 12C12.8284 12 13.5 12.6715 13.5 13.5C13.5 14.3284 12.8284 15 12 15C11.1716 15 10.5 14.3284 10.5 13.5Z" fill="#0000CC"/>
<path fill-rule="evenodd" clip-rule="evenodd" d="M3.32698 4.63803C3 5.27976 3 6.11984 3 7.8V16.2C3 17.8802 3 18.7202 3.32698 19.362C3.6146 19.9265 4.07354 20.3854 4.63803 20.673C5.27976 21 6.11984 21 7.8 21H16.2C17.8802 21 18.7202 21 19.362 20.673C19.9265 20.3854 20.3854 19.9265 20.673 19.362C21 18.7202 21 17.8802 21 16.2V7.8C21 6.11984 21 5.27976 20.673 4.63803C20.3854 4.07354 19.9265 3.6146 19.362 3.32698C18.7202 3 17.8802 3 16.2 3H7.8C6.11984 3 5.27976 3 4.63803 3.32698C4.07354 3.6146 3.6146 4.07354 3.32698 4.63803ZM12.8944 8.44719C13.1414 7.95321 12.9412 7.35254 12.4472 7.10555C11.9532 6.85856 11.3526 7.05878 11.1056 7.55276L9.14333 11.4773C8.73816 12.0484 8.5 12.7464 8.5 13.5C8.5 15.433 10.067 17 12 17C13.933 17 15.5 15.433 15.5 13.5C15.5 11.6062 13.9959 10.0636 12.1171 10.0019L12.8944 8.44719Z" fill="#0000CC"/>
</svg>
