<svg width="24" height="24" viewBox="0 0 24 24" fill="none" xmlns="http://www.w3.org/2000/svg">
<path fill-rule="evenodd" clip-rule="evenodd" d="M19.362 20.673C18.7202 21 17.8802 21 16.2 21H7.8C6.11984 21 5.27976 21 4.63803 20.673C4.07354 20.3854 3.6146 19.9265 3.32698 19.362C3 18.7202 3 17.8802 3 16.2V7.8C3 6.11984 3 5.27976 3.32698 4.63803C3.6146 4.07354 4.07354 3.6146 4.63803 3.32698C5.27976 3 6.11984 3 7.8 3H16.2C17.8802 3 18.7202 3 19.362 3.32698C19.9265 3.6146 20.3854 4.07354 20.673 4.63803C21 5.27976 21 6.11984 21 7.8V16.2C21 17.8802 21 18.7202 20.673 19.362C20.3854 19.9265 19.9265 20.3854 19.362 20.673ZM18 15C18 14.4477 17.5523 14 17 14H16V7C16 6.44771 15.5523 6 15 6C14.4477 6 14 6.44771 14 7V14H13C12.4477 14 12 14.4477 12 15C12 15.5523 12.4477 16 13 16H14V17C14 17.5523 14.4477 18 15 18C15.5523 18 16 17.5523 16 17V16H17C17.5523 16 18 15.5523 18 15ZM12 9C12 8.44771 11.5523 8 11 8H10V7C10 6.44771 9.55228 6 9 6C8.44771 6 8 6.44771 8 7V8H7C6.44771 8 6 8.44771 6 9C6 9.55228 6.44771 10 7 10H8V17C8 17.5523 8.44771 18 9 18C9.55228 18 10 17.5523 10 17V10H11C11.5523 10 12 9.55228 12 9Z" fill="#0000CC"/>
</svg>
