<svg width="24" height="24" viewBox="0 0 24 24" fill="none" xmlns="http://www.w3.org/2000/svg">
<path fill-rule="evenodd" clip-rule="evenodd" d="M3.70711 2.29289C3.31658 1.90237 2.68342 1.90237 2.29289 2.29289C1.90237 2.68342 1.90237 3.31658 2.29289 3.70711L3.29324 4.70745C3 5.34073 3 6.17974 3 7.8V16.2C3 17.8802 3 18.7202 3.32698 19.362C3.6146 19.9265 4.07354 20.3854 4.63803 20.673C5.27976 21 6.11984 21 7.8 21H16.2C17.8203 21 18.6593 21 19.2925 20.7068L20.2929 21.7071C20.6834 22.0976 21.3166 22.0976 21.7071 21.7071C22.0976 21.3166 22.0976 20.6834 21.7071 20.2929L3.70711 2.29289ZM12.5858 14L8.5 9.91421V16C8.5 16.5523 8.94772 17 9.5 17C10.0523 17 10.5 16.5523 10.5 16V14H12.5858Z" fill="#0000CC"/>
<path d="M13.2321 9.01785L14.4822 10.2679C14.3823 9.62533 13.8747 9.11767 13.2321 9.01785Z" fill="#0000CC"/>
<path d="M16.5 10.5C16.5 11.0231 16.3852 11.5195 16.1795 11.9652L20.9994 16.7851C21 16.6021 21 16.4074 21 16.2V7.8C21 6.11984 21 5.27976 20.673 4.63803C20.3854 4.07354 19.9265 3.6146 19.362 3.32698C18.7202 3 17.8802 3 16.2 3H7.8C7.59256 3 7.39792 3 7.21488 3.00062L11.2143 7H13C14.933 7 16.5 8.567 16.5 10.5Z" fill="#0000CC"/>
</svg>
