<svg width="24" height="24" viewBox="0 0 24 24" fill="none" xmlns="http://www.w3.org/2000/svg">
<path d="M10.3262 10.2185C10.7253 9.40562 11.3752 9 12 9C12.6248 9 13.2747 9.40562 13.6738 10.2185C13.8982 10.6756 14 11.0989 14 12C14 12.8704 13.8705 13.3428 13.6595 13.8119C13.2896 14.6339 12.6596 15 12 15C11.3752 15 10.7253 14.5944 10.3262 13.7815C10.1018 13.3244 10 12.9011 10 12C10 11.0989 10.1018 10.6756 10.3262 10.2185Z" fill="#0000CC"/>
<path fill-rule="evenodd" clip-rule="evenodd" d="M3.32698 4.63803C3 5.27976 3 6.11984 3 7.8V16.2C3 17.8802 3 18.7202 3.32698 19.362C3.6146 19.9265 4.07354 20.3854 4.63803 20.673C5.27976 21 6.11984 21 7.8 21H16.2C17.8802 21 18.7202 21 19.362 20.673C19.9265 20.3854 20.3854 19.9265 20.673 19.362C21 18.7202 21 17.8802 21 16.2V7.8C21 6.11984 21 5.27976 20.673 4.63803C20.3854 4.07354 19.9265 3.6146 19.362 3.32698C18.7202 3 17.8802 3 16.2 3H7.8C6.11984 3 5.27976 3 4.63803 3.32698C4.07354 3.6146 3.6146 4.07354 3.32698 4.63803ZM12 7C10.443 7 9.18446 8.00596 8.53093 9.33706C8.13123 10.1512 8 10.9011 8 12C8 13.0989 8.13123 13.8488 8.53093 14.6629C9.18446 15.994 10.443 17 12 17C13.5222 17 14.8227 16.1008 15.4834 14.6325C15.8199 13.8847 16 13.1296 16 12C16 10.9011 15.8688 10.1512 15.4691 9.33706C14.8155 8.00596 13.557 7 12 7Z" fill="#0000CC"/>
</svg>
