<svg width="24" height="24" viewBox="0 0 24 24" fill="none" xmlns="http://www.w3.org/2000/svg">
<path fill-rule="evenodd" clip-rule="evenodd" d="M3.32698 4.63803C3 5.27976 3 6.11984 3 7.8V16.2C3 17.8802 3 18.7202 3.32698 19.362C3.6146 19.9265 4.07354 20.3854 4.63803 20.673C5.27976 21 6.11984 21 7.8 21H16.2C17.8802 21 18.7202 21 19.362 20.673C19.9265 20.3854 20.3854 19.9265 20.673 19.362C21 18.7202 21 17.8802 21 16.2V7.8C21 6.11984 21 5.27976 20.673 4.63803C20.3854 4.07354 19.9265 3.6146 19.362 3.32698C18.7202 3 17.8802 3 16.2 3H7.8C6.11984 3 5.27976 3 4.63803 3.32698C4.07354 3.6146 3.6146 4.07354 3.32698 4.63803ZM12.2327 14.1836C12.9539 13.7237 13.5666 13.1332 14.0504 12.4332L12.887 11.0062C12.512 10.5241 12.421 9.8793 12.6478 9.31224L13.2204 7.88077C13.5397 7.08252 14.3996 6.64287 15.2336 6.85139L16.5425 7.17865C16.9877 7.28995 17.3 7.68993 17.3 8.14878C17.3 9.88429 16.899 11.4764 16.1507 12.8347C15.3159 14.3503 14.0613 15.5512 12.5033 16.3241C11.2194 16.9609 9.74452 17.2999 8.14863 17.2999C7.68974 17.2999 7.28974 16.9876 7.17847 16.5424L6.85137 15.2335C6.6429 14.3995 7.08256 13.5397 7.88078 13.2204L9.25496 12.6707C9.8935 12.4153 10.6228 12.565 11.1091 13.0513L12.2327 14.1836Z" fill="#0000CC"/>
</svg>
