<svg width="24" height="24" viewBox="0 0 24 24" fill="none" xmlns="http://www.w3.org/2000/svg">
<path fill-rule="evenodd" clip-rule="evenodd" d="M3.32698 4.63803C3 5.27976 3 6.11984 3 7.8V16.2C3 17.8802 3 18.7202 3.32698 19.362C3.6146 19.9265 4.07354 20.3854 4.63803 20.673C5.27976 21 6.11984 21 7.8 21H16.2C17.8802 21 18.7202 21 19.362 20.673C19.9265 20.3854 20.3854 19.9265 20.673 19.362C21 18.7202 21 17.8802 21 16.2V7.8C21 6.11984 21 5.27976 20.673 4.63803C20.3854 4.07354 19.9265 3.6146 19.362 3.32698C18.7202 3 17.8802 3 16.2 3H7.8C6.11984 3 5.27976 3 4.63803 3.32698C4.07354 3.6146 3.6146 4.07354 3.32698 4.63803ZM13 8.00003C13 7.59557 12.7564 7.23093 12.3827 7.07615C12.009 6.92137 11.5789 7.00692 11.2929 7.29292L9.29289 9.29292C8.90237 9.68345 8.90237 10.3166 9.29289 10.7071C9.68342 11.0977 10.3166 11.0977 10.7071 10.7071L11 10.4142V15H10C9.44772 15 9 15.4477 9 16C9 16.5523 9.44772 17 10 17H14C14.5523 17 15 16.5523 15 16C15 15.4477 14.5523 15 14 15H13V8.00003Z" fill="#0000CC"/>
</svg>
