<svg width="24" height="24" viewBox="0 0 24 24" fill="none" xmlns="http://www.w3.org/2000/svg">
<path fill-rule="evenodd" clip-rule="evenodd" d="M3.32698 4.63803C3 5.27976 3 6.11984 3 7.8V16.2C3 17.8802 3 18.7202 3.32698 19.362C3.6146 19.9265 4.07354 20.3854 4.63803 20.673C5.27976 21 6.11984 21 7.8 21H16.2C17.8802 21 18.7202 21 19.362 20.673C19.9265 20.3854 20.3854 19.9265 20.673 19.362C21 18.7202 21 17.8802 21 16.2V7.8C21 6.11984 21 5.27976 20.673 4.63803C20.3854 4.07354 19.9265 3.6146 19.362 3.32698C18.7202 3 17.8802 3 16.2 3H7.8C6.11984 3 5.27976 3 4.63803 3.32698C4.07354 3.6146 3.6146 4.07354 3.32698 4.63803ZM9 7C8.44772 7 8 7.44772 8 8C8 8.55228 8.44772 9 9 9H12.5858L10.2929 11.2929C10.0069 11.5789 9.92134 12.009 10.0761 12.3827C10.2309 12.7564 10.5955 13 11 13H13C13.5523 13 14 13.4477 14 14C14 14.5523 13.5523 15 13 15H10.5556C10.2487 15 10 14.7513 10 14.4444C10 13.8922 9.55228 13.4444 9 13.4444C8.44772 13.4444 8 13.8922 8 14.4444C8 15.8558 9.14416 17 10.5556 17H13C14.6569 17 16 15.6569 16 14C16 12.475 14.8622 11.2158 13.3892 11.025L15.7071 8.70711C15.9931 8.42111 16.0787 7.99099 15.9239 7.61732C15.7691 7.24364 15.4045 7 15 7H9Z" fill="#0000CC"/>
</svg>
