<svg width="24" height="24" viewBox="0 0 24 24" fill="none" xmlns="http://www.w3.org/2000/svg">
<path fill-rule="evenodd" clip-rule="evenodd" d="M12 2C12.4107 2 12.7796 2.25108 12.9303 2.63311L14.9659 7.79464C15.1722 8.31762 15.2193 8.41781 15.2744 8.49484C15.3382 8.58387 15.4161 8.66182 15.5052 8.72558C15.5822 8.78075 15.6824 8.8278 16.2054 9.03406L21.3669 11.0697C21.7489 11.2204 22 11.5893 22 12C22 12.4107 21.7489 12.7796 21.3669 12.9303L16.2054 14.9659C15.6824 15.1722 15.5822 15.2193 15.5052 15.2744C15.4161 15.3382 15.3382 15.4161 15.2744 15.5052C15.2193 15.5822 15.1722 15.6824 14.9659 16.2054L12.9303 21.3669C12.7796 21.7489 12.4107 22 12 22C11.5893 22 11.2204 21.7489 11.0697 21.3669L9.03406 16.2054C8.8278 15.6824 8.78075 15.5822 8.72558 15.5052C8.66182 15.4161 8.58387 15.3382 8.49484 15.2744C8.41781 15.2193 8.31762 15.1722 7.79464 14.9659L2.63311 12.9303C2.25108 12.7796 2 12.4107 2 12C2 11.5893 2.25108 11.2204 2.63311 11.0697L7.79464 9.03406C8.31762 8.8278 8.41781 8.78075 8.49484 8.72558C8.58387 8.66182 8.66182 8.58387 8.72558 8.49484C8.78075 8.41781 8.8278 8.31762 9.03406 7.79464L11.0697 2.63311C11.2204 2.25108 11.5893 2 12 2Z" fill="#0000CC"/>
</svg>
