<svg width="24" height="24" viewBox="0 0 24 24" fill="none" xmlns="http://www.w3.org/2000/svg">
<path d="M12 2.02295C11.755 2.0229 11.5101 2.0828 11.2878 2.20264C10.8753 2.42507 10.6907 2.8305 10.6123 3.00656C10.5156 3.22384 10.4169 3.50786 10.3122 3.80912L8.81492 8.1166L4.25554 8.20952C3.93669 8.21598 3.63609 8.22208 3.39955 8.24694C3.20788 8.26709 2.76526 8.31735 2.42624 8.64095C2.06106 8.98952 1.89571 9.49841 1.98627 9.99506C2.07033 10.4561 2.39887 10.757 2.54209 10.8859C2.71884 11.0451 2.95846 11.2267 3.21262 11.4193L6.84661 14.1744L5.52606 18.5393C5.43367 18.8446 5.34657 19.1324 5.29713 19.365C5.25706 19.5535 5.16809 19.99 5.37109 20.4125C5.58975 20.8675 6.02263 21.182 6.52295 21.2493C6.98743 21.3119 7.37507 21.0924 7.54197 20.996C7.74794 20.8771 7.99469 20.7054 8.25644 20.5232L11.9997 17.9184L12 2.02295Z" fill="#0000CC"/>
</svg>
