<svg width="24" height="24" viewBox="0 0 24 24" fill="none" xmlns="http://www.w3.org/2000/svg">
<path d="M7 4C7 3.44772 6.55228 3 6 3C5.44772 3 5 3.44772 5 4V5H4C3.44772 5 3 5.44772 3 6C3 6.55228 3.44772 7 4 7H5V8C5 8.55228 5.44772 9 6 9C6.55228 9 7 8.55228 7 8V7H8C8.55228 7 9 6.55228 9 6C9 5.44772 8.55228 5 8 5H7V4Z" fill="#0000CC"/>
<path d="M13.9303 3.63311C13.7796 3.25108 13.4107 3 13 3C12.5893 3 12.2204 3.25108 12.0697 3.63311L10.3169 8.07748C10.1106 8.60046 10.0636 8.70066 10.0084 8.77768C9.94466 8.86671 9.86671 8.94466 9.77768 9.00843C9.70066 9.06359 9.60046 9.11064 9.07748 9.3169L4.63311 11.0697C4.25108 11.2204 4 11.5893 4 12C4 12.4107 4.25108 12.7796 4.63311 12.9303L9.07748 14.6831C9.60046 14.8894 9.70066 14.9364 9.77768 14.9916C9.86671 15.0553 9.94466 15.1333 10.0084 15.2223C10.0636 15.2993 10.1106 15.3995 10.3169 15.9225L12.0697 20.3669C12.2204 20.7489 12.5893 21 13 21C13.4107 21 13.7796 20.7489 13.9303 20.3669L15.6831 15.9225C15.8894 15.3995 15.9364 15.2993 15.9916 15.2223C16.0553 15.1333 16.1333 15.0553 16.2223 14.9916C16.2993 14.9364 16.3995 14.8894 16.9225 14.6831L21.3669 12.9303C21.7489 12.7796 22 12.4107 22 12C22 11.5893 21.7489 11.2204 21.3669 11.0697L16.9225 9.3169C16.3995 9.11064 16.2993 9.06359 16.2223 9.00843C16.1333 8.94466 16.0553 8.86671 15.9916 8.77768C15.9364 8.70066 15.8894 8.60046 15.6831 8.07748L13.9303 3.63311Z" fill="#0000CC"/>
<path d="M6 16C6 15.4477 5.55228 15 5 15C4.44772 15 4 15.4477 4 16V17H3C2.44772 17 2 17.4477 2 18C2 18.5523 2.44772 19 3 19H4V20C4 20.5523 4.44772 21 5 21C5.55228 21 6 20.5523 6 20V19H7C7.55228 19 8 18.5523 8 18C8 17.4477 7.55228 17 7 17H6V16Z" fill="#0000CC"/>
</svg>
