<svg width="24" height="24" viewBox="0 0 24 24" fill="none" xmlns="http://www.w3.org/2000/svg">
<path d="M12.7116 2.20264C12.2672 1.96305 11.7322 1.96305 11.2878 2.20264C10.8753 2.42507 10.6907 2.8305 10.6123 3.00656C10.5156 3.22384 10.4169 3.50786 10.3122 3.80912L8.81492 8.1166L4.25554 8.20952C3.93669 8.21598 3.63609 8.22208 3.39955 8.24694C3.20788 8.26709 2.76526 8.31735 2.42624 8.64095C2.06106 8.98952 1.89571 9.49841 1.98627 9.99506C2.07033 10.4561 2.39887 10.757 2.54209 10.8859C2.71884 11.0451 2.95846 11.2267 3.21262 11.4193L6.84661 14.1744L5.52606 18.5393C5.43367 18.8446 5.34657 19.1324 5.29713 19.365C5.25706 19.5535 5.16809 19.99 5.37109 20.4125C5.58975 20.8675 6.02263 21.182 6.52295 21.2493C6.98743 21.3119 7.37507 21.0924 7.54197 20.996C7.74794 20.8771 7.99469 20.7054 8.25644 20.5232L11.9997 17.9184L15.743 20.5232C16.0047 20.7054 16.2515 20.8771 16.4574 20.996C16.6244 21.0924 17.012 21.3119 17.4765 21.2493C17.9768 21.182 18.4097 20.8675 18.6283 20.4125C18.8313 19.99 18.7424 19.5535 18.7023 19.365C18.6528 19.1324 18.5657 18.8446 18.4734 18.5393L17.1528 14.1744L20.7868 11.4194C21.0409 11.2267 21.2806 11.0451 21.4573 10.8859C21.6005 10.757 21.9291 10.4561 22.0131 9.99506C22.1037 9.49841 21.9384 8.98952 21.5732 8.64095C21.2342 8.31735 20.7915 8.26709 20.5999 8.24694C20.3633 8.22208 20.0627 8.21598 19.7439 8.20951L15.1845 8.1166L13.6872 3.80912C13.5825 3.50785 13.4838 3.22384 13.3871 3.00656C13.3087 2.8305 13.1241 2.42507 12.7116 2.20264Z" fill="#0000CC"/>
</svg>
