<svg width="24" height="24" viewBox="0 0 24 24" fill="none" xmlns="http://www.w3.org/2000/svg">
<path fill-rule="evenodd" clip-rule="evenodd" d="M9 2C8.44772 2 8 2.44772 8 3C8 3.55228 8.44772 4 9 4H11V6C11 6.02071 11.0006 6.04127 11.0019 6.06166C7.05465 6.55293 4 9.91974 4 14C4 18.4183 7.58172 22 12 22C16.4183 22 20 18.4183 20 14C20 12.1513 19.3729 10.449 18.3199 9.09436L19.7071 7.70711C20.0976 7.31658 20.0976 6.68342 19.7071 6.29289C19.3166 5.90237 18.6834 5.90237 18.2929 6.29289L16.9056 7.68014C15.7986 6.81962 14.4596 6.24355 12.9981 6.06166C12.9994 6.04127 13 6.02071 13 6V4H15C15.5523 4 16 3.55228 16 3C16 2.44772 15.5523 2 15 2H9ZM13 11C13 10.4477 12.5523 10 12 10C11.4477 10 11 10.4477 11 11V14C11 14.5523 11.4477 15 12 15C12.5523 15 13 14.5523 13 14V11Z" fill="#0000CC"/>
</svg>
