<svg width="24" height="24" viewBox="0 0 24 24" fill="none" xmlns="http://www.w3.org/2000/svg">
<path d="M10 1.5C9.44772 1.5 9 1.94772 9 2.5C9 3.05228 9.44772 3.5 10 3.5H14C14.5523 3.5 15 3.05228 15 2.5C15 1.94772 14.5523 1.5 14 1.5H10Z" fill="#0000CC"/>
<path d="M19.7071 3.79289C19.3166 3.40237 18.6834 3.40237 18.2929 3.79289C17.9024 4.18342 17.9024 4.81658 18.2929 5.20711L20.2929 7.20711C20.6834 7.59763 21.3166 7.59763 21.7071 7.20711C22.0976 6.81658 22.0976 6.18342 21.7071 5.79289L19.7071 3.79289Z" fill="#0000CC"/>
<path d="M14.2002 11.5C13.9241 11.5 13.7002 11.7239 13.7002 12V15C13.7002 15.2761 13.9241 15.5 14.2002 15.5C14.4763 15.5 14.7002 15.2761 14.7002 15V12C14.7002 11.7239 14.4763 11.5 14.2002 11.5Z" fill="#0000CC"/>
<path fill-rule="evenodd" clip-rule="evenodd" d="M12 4.5C7.02944 4.5 3 8.52944 3 13.5C3 18.4706 7.02944 22.5 12 22.5C16.9706 22.5 21 18.4706 21 13.5C21 8.52944 16.9706 4.5 12 4.5ZM10.1181 9.5915C10.4729 9.75469 10.7002 10.1095 10.7002 10.5V16.5C10.7002 17.0523 10.2525 17.5 9.70021 17.5C9.14793 17.5 8.70021 17.0523 8.70021 16.5V12.6742L8.351 12.9736C7.93168 13.333 7.30038 13.2844 6.94096 12.8651C6.58153 12.4458 6.6301 11.8145 7.04942 11.455L9.04942 9.74076C9.34593 9.4866 9.76327 9.42832 10.1181 9.5915ZM11.7002 12C11.7002 10.6193 12.8195 9.50001 14.2002 9.50001C15.5809 9.50001 16.7002 10.6193 16.7002 12V15C16.7002 16.3807 15.5809 17.5 14.2002 17.5C12.8195 17.5 11.7002 16.3807 11.7002 15V12Z" fill="#0000CC"/>
</svg>
