<svg width="24" height="24" viewBox="0 0 24 24" fill="none" xmlns="http://www.w3.org/2000/svg">
<path fill-rule="evenodd" clip-rule="evenodd" d="M9.5 8C5.63401 8 2.5 11.134 2.5 15V19C2.5 20.6569 3.84315 22 5.5 22H9.5C13.366 22 16.5 18.866 16.5 15C16.5 14.7348 16.3946 14.4804 16.2071 14.2929L10.2071 8.29289C10.0196 8.10536 9.76522 8 9.5 8ZM9.20718 11.2929C9.59771 11.6834 9.59771 12.3166 9.20718 12.7071L8.50008 13.4142C8.10955 13.8047 7.47639 13.8047 7.08586 13.4142C6.69534 13.0237 6.69534 12.3905 7.08586 12L7.79297 11.2929C8.18349 10.9024 8.81666 10.9024 9.20718 11.2929ZM11.2072 13.2929C11.5977 13.6834 11.5977 14.3166 11.2072 14.7071L10.5001 15.4142C10.1096 15.8047 9.47639 15.8047 9.08586 15.4142C8.69534 15.0237 8.69534 14.3905 9.08586 14L9.79297 13.2929C10.1835 12.9024 10.8167 12.9024 11.2072 13.2929ZM7.91421 15.7071L7.20711 16.4142C6.81658 16.8047 6.18342 16.8047 5.79289 16.4142C5.40237 16.0237 5.40237 15.3905 5.79289 15L6.5 14.2929C6.89052 13.9024 7.52369 13.9024 7.91421 14.2929C8.30474 14.6834 8.30474 15.3166 7.91421 15.7071ZM13.2072 15.2929C13.5977 15.6834 13.5977 16.3166 13.2072 16.7071L12.5001 17.4142C12.1096 17.8047 11.4764 17.8047 11.0859 17.4142C10.6953 17.0237 10.6953 16.3905 11.0859 16L11.793 15.2929C12.1835 14.9024 12.8167 14.9024 13.2072 15.2929ZM9.91421 16.2929C10.3047 16.6834 10.3047 17.3166 9.91421 17.7071L9.20711 18.4142C8.81658 18.8047 8.18342 18.8047 7.79289 18.4142C7.40237 18.0237 7.40237 17.3905 7.79289 17L8.5 16.2929C8.89052 15.9024 9.52369 15.9024 9.91421 16.2929Z" fill="#0000CC"/>
<path fill-rule="evenodd" clip-rule="evenodd" d="M18.8887 2.05012C19.4293 1.86993 20.0012 2.19643 20.1679 2.72773C20.1742 2.74881 20.182 2.77587 20.1907 2.80853C20.2081 2.87375 20.2293 2.96179 20.2498 3.06951C20.2907 3.28414 20.33 3.58189 20.33 3.93631C20.33 4.64715 20.1709 5.60267 19.537 6.55351C19.1488 7.13582 18.6535 7.67579 18.1455 8.16977C19.0033 8.22345 19.8459 8.44869 20.6219 8.83669C21.3693 9.21036 21.7283 10.0766 21.4644 10.8693L21.3218 11.2978C20.7764 12.9362 18.964 13.7771 17.3608 13.1355L16.8299 12.9231C16.7042 12.8728 16.59 12.7975 16.4943 12.7017L11.9952 8.20161C11.8993 8.10571 11.8239 7.99131 11.7736 7.86538L11.749 7.80375C11.0084 5.94869 11.9792 3.85245 13.873 3.21746C14.6379 2.96098 15.475 3.30669 15.836 4.02818L15.8605 4.07719C16.3061 4.96784 16.5382 5.94604 16.5432 6.93472C17.0843 6.42483 17.546 5.93453 17.8729 5.44411C18.239 4.89494 18.33 4.35047 18.33 3.93631C18.33 3.72822 18.3067 3.55722 18.2851 3.44373C18.2744 3.38739 18.2643 3.34652 18.2583 3.32385C18.2556 3.31405 18.2538 3.30776 18.2531 3.30521C18.0852 2.78403 18.3681 2.22368 18.8887 2.05012Z" fill="#0000CC"/>
</svg>
