<svg width="24" height="24" viewBox="0 0 24 24" fill="none" xmlns="http://www.w3.org/2000/svg">
<path fill-rule="evenodd" clip-rule="evenodd" d="M3 6C3.55229 6 4 6.44772 4 7V8.2C4 9.05658 4.00078 9.63887 4.03755 10.089C4.07337 10.5274 4.1383 10.7516 4.21799 10.908C4.40973 11.2843 4.71569 11.5903 5.09202 11.782C5.24842 11.8617 5.47262 11.9266 5.91104 11.9624C6.36113 11.9992 6.94342 12 7.8 12H18.5858L16.2929 9.70711C15.9024 9.31658 15.9024 8.68342 16.2929 8.29289C16.6834 7.90237 17.3166 7.90237 17.7071 8.29289L21.7071 12.2929C22.0976 12.6834 22.0976 13.3166 21.7071 13.7071L17.7071 17.7071C17.3166 18.0976 16.6834 18.0976 16.2929 17.7071C15.9024 17.3166 15.9024 16.6834 16.2929 16.2929L18.5858 14H7.7587C6.95373 14 6.28937 14 5.74817 13.9558C5.18608 13.9099 4.66937 13.8113 4.18404 13.564C3.43139 13.1805 2.81947 12.5686 2.43597 11.816C2.18868 11.3306 2.09012 10.8139 2.04419 10.2518C1.99998 9.71063 1.99999 9.04627 2 8.2413C2.00001 7.82753 2 7.41377 2 7C2 6.44772 2.44772 6 3 6Z" fill="#0000CC"/>
</svg>
