<svg width="24" height="24" viewBox="0 0 24 24" fill="none" xmlns="http://www.w3.org/2000/svg">
<path fill-rule="evenodd" clip-rule="evenodd" d="M2 4C2 3.44772 2.44772 3 3 3H5C5.35886 3 5.6902 3.19229 5.86824 3.50386L9 8.98444L12.1318 3.50386C12.3098 3.19229 12.6411 3 13 3H15C15.5523 3 16 3.44772 16 4C16 4.55228 15.5523 5 15 5H13.5803L10.1518 11L13.5803 17H15C15.5523 17 16 17.4477 16 18C16 18.5523 15.5523 19 15 19H13C12.6411 19 12.3098 18.8077 12.1318 18.4961L9 13.0156L5.86824 18.4961C5.6902 18.8077 5.35886 19 5 19H3C2.44772 19 2 18.5523 2 18C2 17.4477 2.44772 17 3 17H4.41968L7.84825 11L4.41968 5H3C2.44772 5 2 4.55228 2 4ZM19.5257 13.1493C19.8205 13.3316 20 13.6534 20 14V19H21C21.5523 19 22 19.4477 22 20C22 20.5523 21.5523 21 21 21H17C16.4477 21 16 20.5523 16 20C16 19.4477 16.4477 19 17 19H18V15.618L17.4472 15.8944C16.9532 16.1414 16.3526 15.9412 16.1056 15.4472C15.8586 14.9532 16.0588 14.3526 16.5528 14.1056L18.5528 13.1056C18.8628 12.9506 19.2309 12.9671 19.5257 13.1493Z" fill="#0000CC"/>
</svg>
