<svg width="24" height="24" viewBox="0 0 24 24" fill="none" xmlns="http://www.w3.org/2000/svg">
<path fill-rule="evenodd" clip-rule="evenodd" d="M17 6.00163C16.9997 5.54191 16.9969 5.14115 16.9694 4.80498C16.9371 4.40963 16.8658 4.01641 16.673 3.63803C16.3854 3.07355 15.9265 2.6146 15.362 2.32698C14.9836 2.13419 14.5904 2.06287 14.195 2.03057C13.8205 1.99997 13.3657 1.99998 12.8386 2H11.1615C10.6343 1.99998 10.1795 1.99997 9.80497 2.03057C9.40963 2.06287 9.01641 2.13419 8.63803 2.32698C8.07354 2.6146 7.6146 3.07355 7.32698 3.63803C7.13419 4.01641 7.06287 4.40963 7.03057 4.80498C6.99987 5.18072 6.99993 5.55788 7 5.93463L7 21.9984H17L17 6.00163ZM9.00007 6H14.9999C14.9995 5.5349 14.9964 5.21699 14.9761 4.96784C14.9539 4.69618 14.9162 4.59546 14.891 4.54601C14.7951 4.35785 14.6422 4.20487 14.454 4.109C14.4045 4.0838 14.3038 4.04613 14.0322 4.02393C13.7488 4.00078 13.3766 4 12.8 4H11.2C10.6234 4 10.2512 4.00078 9.96784 4.02393C9.69617 4.04613 9.59546 4.0838 9.54601 4.109C9.35785 4.20487 9.20487 4.35785 9.109 4.54601C9.0838 4.59546 9.04612 4.69618 9.02393 4.96784C9.00357 5.21699 9.00052 5.5349 9.00007 6ZM13 12C13 11.4477 12.5523 11 12 11C11.4477 11 11 11.4477 11 12V13H10C9.44772 13 9 13.4477 9 14C9 14.5523 9.44772 15 10 15H11V16C11 16.5523 11.4477 17 12 17C12.5523 17 13 16.5523 13 16V15H14C14.5523 15 15 14.5523 15 14C15 13.4477 14.5523 13 14 13H13V12Z" fill="#0000CC"/>
<path d="M19 21.8497V6.15033C19.2826 6.21226 19.5539 6.30243 19.816 6.43598C20.5686 6.81947 21.1805 7.43139 21.564 8.18404C21.8113 8.66938 21.9099 9.18608 21.9558 9.74818C22 10.2894 22 10.9537 22 11.7587V16.2413C22 17.0463 22 17.7106 21.9558 18.2518C21.9099 18.8139 21.8113 19.3306 21.564 19.816C21.1805 20.5686 20.5686 21.1805 19.816 21.564C19.5539 21.6976 19.2826 21.7877 19 21.8497Z" fill="#0000CC"/>
<path d="M5 6.15033V21.8497C4.71739 21.7877 4.44614 21.6976 4.18404 21.564C3.43139 21.1805 2.81947 20.5686 2.43598 19.816C2.18868 19.3306 2.09012 18.8139 2.0442 18.2518C1.99998 17.7106 1.99999 17.0463 2 16.2413V11.7587C1.99999 10.9537 1.99998 10.2894 2.0442 9.74818C2.09012 9.18608 2.18868 8.66938 2.43598 8.18404C2.81947 7.43139 3.43139 6.81947 4.18404 6.43598C4.44614 6.30243 4.71739 6.21226 5 6.15033Z" fill="#0000CC"/>
</svg>
