<svg width="24" height="24" viewBox="0 0 24 24" fill="none" xmlns="http://www.w3.org/2000/svg">
<path fill-rule="evenodd" clip-rule="evenodd" d="M7.0324 5.39454L7.11797 4.3676C7.21382 3.21743 7.26174 2.64235 7.52448 2.35887C7.75312 2.11217 8.08049 1.98122 8.41619 2.00218C8.80196 2.02627 9.23327 2.40965 10.0959 3.17643L10.8088 3.81015C11.2303 4.1848 11.441 4.37212 11.6789 4.44326C11.8884 4.50593 12.1116 4.50593 12.3211 4.44326C12.559 4.37212 12.7697 4.1848 13.1912 3.81015L13.9041 3.17643C14.7667 2.40965 15.198 2.02627 15.5838 2.00218C15.9195 1.98122 16.2469 2.11217 16.4755 2.35887C16.7383 2.64235 16.7862 3.21743 16.882 4.3676L16.9676 5.39454C17.0124 5.93171 17.0348 6.2003 17.1506 6.41009C17.2527 6.59501 17.405 6.74731 17.5899 6.84942C17.7997 6.96525 18.0683 6.98763 18.6055 7.0324L19.6324 7.11797C20.7826 7.21382 21.3577 7.26174 21.6411 7.52448C21.8878 7.75312 22.0188 8.08049 21.9978 8.41619C21.9737 8.80196 21.5903 9.23326 20.8236 10.0959L20.1898 10.8088C19.8152 11.2303 19.6279 11.441 19.5567 11.6789C19.4941 11.8884 19.4941 12.1116 19.5567 12.3211C19.6279 12.559 19.8152 12.7697 20.1898 13.1912L20.8236 13.9041C21.5903 14.7667 21.9737 15.198 21.9978 15.5838C22.0188 15.9195 21.8878 16.2469 21.6411 16.4755C21.3577 16.7383 20.7826 16.7862 19.6324 16.882L18.6055 16.9676C18.0683 17.0124 17.7997 17.0348 17.5899 17.1506C17.405 17.2527 17.2527 17.405 17.1506 17.5899C17.0348 17.7997 17.0124 18.0683 16.9676 18.6055L16.882 19.6324C16.7862 20.7826 16.7383 21.3577 16.4755 21.6411C16.2469 21.8878 15.9195 22.0188 15.5838 21.9978C15.198 21.9737 14.7667 21.5903 13.9041 20.8236L13.1912 20.1898C12.7697 19.8152 12.559 19.6279 12.3211 19.5567C12.1116 19.4941 11.8884 19.4941 11.6789 19.5567C11.441 19.6279 11.2303 19.8152 10.8088 20.1898L10.0959 20.8236C9.23327 21.5903 8.80196 21.9737 8.41619 21.9978C8.08049 22.0188 7.75312 21.8878 7.52448 21.6411C7.26174 21.3577 7.21382 20.7826 7.11797 19.6324L7.0324 18.6055C6.98763 18.0683 6.96525 17.7997 6.84942 17.5899C6.74731 17.405 6.59501 17.2527 6.41009 17.1506C6.2003 17.0348 5.93171 17.0124 5.39454 16.9676L4.3676 16.882C3.21743 16.7862 2.64235 16.7383 2.35887 16.4755C2.11217 16.2469 1.98122 15.9195 2.00218 15.5838C2.02627 15.198 2.40965 14.7667 3.17643 13.9041L3.81015 13.1912C4.1848 12.7697 4.37212 12.559 4.44326 12.3211C4.50593 12.1116 4.50593 11.8884 4.44326 11.6789C4.37212 11.441 4.1848 11.2303 3.81015 10.8088L3.17643 10.0959C2.40965 9.23327 2.02627 8.80196 2.00218 8.41619C1.98122 8.08049 2.11217 7.75312 2.35887 7.52448C2.64235 7.26174 3.21743 7.21382 4.3676 7.11797L5.39454 7.0324C5.9317 6.98763 6.2003 6.96525 6.41009 6.84942C6.59501 6.74731 6.74731 6.59501 6.84942 6.41009C6.96525 6.2003 6.98763 5.93171 7.0324 5.39454ZM12 15C13.6569 15 15 13.6569 15 12C15 10.3431 13.6569 9 12 9C10.3431 9 9 10.3431 9 12C9 13.6569 10.3431 15 12 15Z" fill="#0000CC"/>
</svg>
