<svg width="24" height="24" viewBox="0 0 24 24" fill="none" xmlns="http://www.w3.org/2000/svg">
<path d="M6.70711 21.707C6.71714 21.697 6.72692 21.6868 6.73643 21.6765L8.79277 19.6209C9.18331 19.2305 9.81638 19.2305 10.2069 19.621L11.7929 21.207C12.1689 21.5831 12.6379 21.7791 13.0414 21.8817C13.4516 21.9861 13.866 22.0126 14.2142 21.9978C14.8056 21.9725 15.5816 21.8326 16.2071 21.207L17 20.4142L3.58618 7.0004L2.7942 7.7932C2.169 8.41865 2.02907 9.19444 2.00384 9.78573C1.98903 10.1329 2.01495 10.547 2.11874 10.9573C2.22081 11.3608 2.41628 11.8304 2.79289 12.207L4.37868 13.7928C4.7692 14.1834 4.7692 14.8165 4.37868 15.207L2.29289 17.2928C1.90237 17.6834 1.90237 18.3165 2.29289 18.707L5.29289 21.707C5.68342 22.0976 6.31658 22.0976 6.70711 21.707Z" fill="#0000CC"/>
<path d="M4.98247 5.56826L18.4142 19L19.6979 17.7164C21.2951 16.1977 22 14.2212 22 12.0001C22 9.83741 21.3796 6.96538 19.2071 4.79289C17.0403 2.62615 14.5477 2.0366 12.0144 2.00015C9.89084 1.96959 7.80434 2.73347 6.25394 4.23405C6.24416 4.24352 6.23456 4.25319 6.22517 4.26305L4.98247 5.56826Z" fill="#0000CC"/>
</svg>
