<svg width="24" height="24" viewBox="0 0 24 24" fill="none" xmlns="http://www.w3.org/2000/svg">
<path fill-rule="evenodd" clip-rule="evenodd" d="M6.00005 3C6.55233 3 7.00005 3.44772 7.00005 4V14.622L9.00005 13.0665V4C9.00005 3.44772 9.44776 3 10 3C10.5523 3 11 3.44772 11 4V11.5109L13 9.95536V4C13 3.44772 13.4478 3 14 3C14.5523 3 15 3.44772 15 4V8.3998L17 6.84425V4C17 3.44772 17.4478 3 18 3C18.5523 3 19 3.44772 19 4V5.28869L20.3861 4.21065C20.8221 3.87158 21.4503 3.95011 21.7894 4.38606C22.1285 4.82201 22.0499 5.45028 21.614 5.78935L19 7.82242V20C19 20.5523 18.5523 21 18 21C17.4478 21 17 20.5523 17 20V9.37797L15 10.9335V20C15 20.5523 14.5523 21 14 21C13.4478 21 13 20.5523 13 20V12.4891L11 14.0446V20C11 20.5523 10.5523 21 10 21C9.44776 21 9.00005 20.5523 9.00005 20V15.6002L7.00005 17.1558V20C7.00005 20.5523 6.55233 21 6.00005 21C5.44776 21 5.00005 20.5523 5.00005 20V18.7113L3.61399 19.7894C3.17804 20.1284 2.54976 20.0499 2.21069 19.6139C1.87162 19.178 1.95016 18.5497 2.38611 18.2106L5.00005 16.1776V4C5.00005 3.44772 5.44776 3 6.00005 3Z" fill="#0000CC"/>
</svg>
