<svg width="24" height="24" viewBox="0 0 24 24" fill="none" xmlns="http://www.w3.org/2000/svg">
<path fill-rule="evenodd" clip-rule="evenodd" d="M20.4776 2.09212C20.6755 2.00461 20.8981 1.97739 21.1165 2.01933C21.3338 2.06105 21.5222 2.1662 21.6662 2.30589C21.8091 2.44459 21.9044 2.61268 21.9551 2.78524C22.0057 2.95768 22.0134 3.13914 21.9788 3.31367L21.9778 3.31877L18.4604 20.5913C18.403 20.8736 18.2796 21.1458 18.092 21.3769C17.9037 21.6088 17.654 21.7951 17.3593 21.9022C17.0633 22.0098 16.7429 22.0296 16.4344 21.9567C16.1275 21.8843 15.8564 21.7262 15.6427 21.5135L15.6415 21.5123L12.4398 18.3391L10.4907 20.6254C10.2673 20.8874 9.96411 21.0855 9.61079 21.1709C9.25565 21.2567 8.88691 21.2191 8.55849 21.0696C8.23248 20.9213 7.97357 20.6759 7.79981 20.3855C7.62648 20.0958 7.53949 19.7655 7.53906 19.436L7.53906 13.8662L3.20857 12.9062C2.85568 12.8253 2.55899 12.6225 2.35063 12.3578C2.14347 12.0947 2.02831 11.7783 2.00462 11.4591C1.98094 11.1398 2.04822 10.8133 2.2077 10.5256C2.3671 10.2381 2.61824 9.99218 2.94292 9.84992L2.94645 9.84837L20.4776 2.09212ZM9.53906 18.6588V15.4628L11.0157 16.9267L9.53906 18.6588ZM10.0371 13.1158L16.6122 19.6325L19.4945 5.47864L10.0371 13.1158Z" fill="#0000CC"/>
</svg>
