<svg width="24" height="24" viewBox="0 0 24 24" fill="none" xmlns="http://www.w3.org/2000/svg">
<path fill-rule="evenodd" clip-rule="evenodd" d="M2.99805 6C2.99805 3.79086 4.78891 2 6.99805 2C9.20719 2 10.998 3.79086 10.998 6V13.9995C11.6255 14.835 11.998 15.8748 11.998 16.9998C11.998 19.7613 9.75947 21.9998 6.99805 21.9998C4.23662 21.9998 1.99805 19.7613 1.99805 16.9998C1.99805 15.8748 2.37061 14.835 2.99805 13.9995V6ZM6.98969 9.5C7.54198 9.49929 7.99027 9.94643 7.99098 10.4987L7.99711 15.2668C8.59543 15.6125 8.99805 16.2592 8.99805 16.9998C8.99805 18.1044 8.10262 18.9998 6.99805 18.9998C5.89348 18.9998 4.99805 18.1044 4.99805 16.9998C4.99805 16.2599 5.39982 15.6139 5.99711 15.2679L5.99098 10.5013C5.99027 9.949 6.43741 9.50071 6.98969 9.5Z" fill="#0000CC"/>
<path d="M12.9978 6V9.17127C13.311 9.06036 13.6481 9 13.9994 9C15.6562 9 16.9994 10.3431 16.9994 12C16.9994 13.6569 15.6562 15 13.9994 15C13.8993 15 13.8004 14.9951 13.7029 14.9855C13.8946 15.6241 13.9978 16.3006 13.9978 16.9998C13.9978 17.2993 13.979 17.5945 13.9425 17.8841L16.1192 17.0678L18.3736 17.9132C18.5764 17.9893 18.7877 18.0686 18.9686 18.1182C19.148 18.1673 19.476 18.2423 19.8373 18.1331C20.2603 18.0052 20.6054 17.6973 20.7805 17.2916C20.93 16.945 20.8927 16.6106 20.8642 16.4268C20.8355 16.2414 20.7808 16.0225 20.7282 15.8124L20.2959 14.0835L21.5686 13.538C21.7779 13.4484 21.993 13.3562 22.1631 13.2643C22.3282 13.1749 22.6285 12.9971 22.8153 12.6557C23.0317 12.2601 23.0587 11.7882 22.8888 11.3705C22.7421 11.01 22.4641 10.7991 22.3102 10.6916C22.1517 10.5808 21.9485 10.4647 21.7509 10.3518L20.2962 9.52057L20.6944 8.12691C20.7509 7.92936 20.8105 7.72059 20.8443 7.54225C20.8784 7.3616 20.9237 7.04121 20.7951 6.6995C20.643 6.29517 20.3239 5.97607 19.9195 5.82391C19.5778 5.69532 19.2574 5.74061 19.0768 5.77476C18.8984 5.80849 18.6897 5.86816 18.4921 5.92467L17.0984 6.32285L16.5065 5.28694C16.3546 5.02108 16.2085 4.7652 16.0704 4.56794C15.9324 4.37065 15.7028 4.07951 15.3287 3.91958C14.8716 3.72417 14.3519 3.7386 13.9064 3.95906C13.5418 4.13949 13.3287 4.44292 13.2018 4.64756C13.1153 4.78699 13.0266 4.9538 12.9355 5.13259C12.9766 5.4158 12.9978 5.70542 12.9978 6Z" fill="#0000CC"/>
<path d="M12.9994 12C12.9994 11.4477 13.4471 11 13.9994 11C14.5517 11 14.9994 11.4477 14.9994 12C14.9994 12.5523 14.5517 13 13.9994 13C13.4471 13 12.9994 12.5523 12.9994 12Z" fill="#0000CC"/>
</svg>
