<svg width="24" height="24" viewBox="0 0 24 24" fill="none" xmlns="http://www.w3.org/2000/svg">
<path d="M7 22.0001V8.66284C7 8.41824 7 8.29595 7.02763 8.18086C7.05213 8.07882 7.09253 7.98128 7.14736 7.89181C7.2092 7.79089 7.29568 7.70442 7.46863 7.53146L10.8686 4.13146C11.2646 3.73545 11.4627 3.53744 11.691 3.46325C11.8918 3.39799 12.1082 3.39799 12.309 3.46325C12.5373 3.53744 12.7354 3.73544 13.1314 4.13146L16.5314 7.53146C16.7043 7.70442 16.7908 7.79089 16.8526 7.89181C16.9075 7.98128 16.9479 8.07882 16.9724 8.18086C17 8.29595 17 8.41824 17 8.66283V22.0001H14V18.0001C14 16.8955 13.1046 16.0001 12 16.0001C10.8954 16.0001 10 16.8955 10 18.0001V22.0001H7Z" fill="#0000CC"/>
<path d="M6 10.6492L5.78087 10.3753C5.5911 10.1381 5.30378 10 5 10C4.69622 10 4.4089 10.1381 4.21913 10.3753L2.21913 12.8753C2.07728 13.0526 2 13.2729 2 13.5V21C2 21.5523 2.44772 22 3 22H6V10.6492Z" fill="#0000CC"/>
<path d="M18.2191 10.3753L18 10.6492V22H21C21.5523 22 22 21.5523 22 21V13.5C22 13.2729 21.9227 13.0526 21.7809 12.8753L19.7809 10.3753C19.5911 10.1381 19.3038 10 19 10C18.6962 10 18.4089 10.1381 18.2191 10.3753Z" fill="#0000CC"/>
</svg>
