<svg width="24" height="24" viewBox="0 0 24 24" fill="none" xmlns="http://www.w3.org/2000/svg">
<path fill-rule="evenodd" clip-rule="evenodd" d="M7 2C4.79086 2 3 3.79086 3 6V13.9995C2.37256 14.835 2 15.8748 2 16.9998C2 19.7613 4.23858 21.9998 7 21.9998C9.76142 21.9998 12 19.7613 12 16.9998C12 15.8748 11.6274 14.835 11 13.9995V6C11 3.79086 9.20914 2 7 2ZM8.00706 14.0035C8.00902 13.4513 7.56289 13.002 7.01061 13C6.45832 12.9981 6.00903 13.4442 6.00708 13.9965L6.00259 15.2659C5.40336 15.6113 5 16.2585 5 16.9998C5 18.1044 5.89543 18.9998 7 18.9998C8.10457 18.9998 9 18.1044 9 16.9998C9 16.2606 8.59896 15.6151 8.00259 15.2689L8.00706 14.0035Z" fill="#0000CC"/>
<path d="M16.1299 3C16.1299 2.44772 15.6822 2 15.1299 2C14.5776 2 14.1299 2.44772 14.1299 3C13.874 3 13.618 3.09763 13.4228 3.29289C13.0323 3.68342 13.0323 4.31658 13.4228 4.70711L14.1299 5.41421V8.25263L14 8.17764C13.5217 7.9015 12.9101 8.06537 12.634 8.54366C12.3578 9.02196 12.5217 9.63355 13 9.90969L13.1563 9.99995L13 10.0902C12.5217 10.3663 12.3578 10.9779 12.634 11.4562C12.9101 11.9345 13.5217 12.0984 14 11.8223L14.1299 11.7473V14.5858L13.4228 15.2929C13.0323 15.6834 13.0323 16.3166 13.4228 16.7071C13.618 16.9024 13.874 17 14.1299 17C14.1299 17.5523 14.5776 18 15.1299 18C15.6822 18 16.1299 17.5523 16.1299 17C16.3858 17 16.6417 16.9024 16.837 16.7071C17.2275 16.3166 17.2275 15.6834 16.837 15.2929L16.1299 14.5858V11.7167L18.5411 13.1088L18.9462 14.6212C19.0891 15.1546 19.6374 15.4713 20.1709 15.3284C20.5879 15.2167 20.8724 14.8573 20.9085 14.4509C21.3485 14.5949 21.8439 14.4169 22.0846 14C22.3253 13.5831 22.2317 13.065 21.887 12.7559C22.2206 12.5214 22.3895 12.0955 22.2778 11.6787C22.1348 11.1453 21.5865 10.8287 21.053 10.9717L19.5411 11.3768L17.1564 9.99998L19.541 8.62314L21.0535 9.02835C21.587 9.17127 22.1353 8.85466 22.2782 8.32119C22.39 7.90422 22.2209 7.47818 21.887 7.24374C22.2315 6.93466 22.3249 6.41672 22.0843 5.99998C21.8437 5.58322 21.3483 5.4052 20.9085 5.54899C20.8723 5.14267 20.5878 4.78335 20.1709 4.67165C19.6375 4.52871 19.0891 4.84529 18.9462 5.37876L18.541 6.89111L16.1299 8.28322V5.41421L16.837 4.70711C17.2275 4.31658 17.2275 3.68342 16.837 3.29289C16.6417 3.09763 16.3858 3 16.1299 3Z" fill="#0000CC"/>
</svg>
