<svg width="24" height="24" viewBox="0 0 24 24" fill="none" xmlns="http://www.w3.org/2000/svg">
<path d="M10.5745 3.84159L4.82311 9.25463C4.33195 9.71689 4.08635 9.94804 3.89238 10.2155C3.72025 10.4529 3.57862 10.7109 3.47083 10.9836C3.34936 11.2908 3.28626 11.6221 3.16005 12.2847L2.33213 16.6313C2.04659 18.1304 1.90383 18.8799 2.11074 19.4658C2.29224 19.9797 2.65038 20.4125 3.1213 20.687C3.65812 20.9999 4.42113 20.9999 5.94714 20.9999H12V13L17 20.9999H18.0529C19.5789 20.9999 20.3419 20.9999 20.8787 20.687C21.3497 20.4125 21.7078 19.9797 21.8893 19.4658C22.0962 18.8799 21.9534 18.1304 21.6679 16.6313L20.84 12.2847C20.7138 11.6221 20.6507 11.2908 20.5292 10.9836C20.4214 10.7109 20.2798 10.4529 20.1077 10.2155C19.9137 9.94804 19.6681 9.7169 19.1769 9.25463L13.4256 3.84159C12.9237 3.36926 12.6728 3.13309 12.3867 3.04396C12.1349 2.96549 11.8651 2.96549 11.6133 3.04396C11.3272 3.13309 11.0763 3.36925 10.5745 3.84159Z" fill="#0000CC"/>
</svg>
