<svg width="24" height="24" viewBox="0 0 24 24" fill="none" xmlns="http://www.w3.org/2000/svg">
<path d="M6 3C6 2.44772 5.55228 2 5 2C4.44772 2 4 2.44772 4 3V6.58579L3.70711 6.29289C3.31658 5.90237 2.68342 5.90237 2.29289 6.29289C1.90237 6.68342 1.90237 7.31658 2.29289 7.70711L4.29289 9.70711C4.68342 10.0976 5.31658 10.0976 5.70711 9.70711L7.70711 7.70711C8.09763 7.31658 8.09763 6.68342 7.70711 6.29289C7.31658 5.90237 6.68342 5.90237 6.29289 6.29289L6 6.58579V3Z" fill="#0000CC"/>
<path fill-rule="evenodd" clip-rule="evenodd" d="M13.6727 7.26006C13.2913 6.91331 12.7087 6.91331 12.3273 7.26006L6.82733 12.2601C6.66618 12.4066 6.55726 12.6017 6.51713 12.8157L5.17007 20H3C2.44772 20 2 20.4477 2 21C2 21.5523 2.44772 22 3 22H5.98222C5.99486 22.0002 6.00746 22.0002 6.02003 22H16.9863C16.996 22.0001 17.0058 22.0001 17.0155 22H19.98C19.9925 22.0002 20.0051 22.0002 20.0178 22H21C21.5523 22 22 21.5523 22 21C22 20.4477 21.5523 20 21 20H20.8299L19.4829 12.8157C19.4427 12.6017 19.3338 12.4066 19.1727 12.2601L13.6727 7.26006ZM13 20H16.5L13 15V20Z" fill="#0000CC"/>
</svg>
