<svg width="24" height="24" viewBox="0 0 24 24" fill="none" xmlns="http://www.w3.org/2000/svg">
<path d="M5.70711 3.70711C6.09763 3.31658 6.09763 2.68342 5.70711 2.29289C5.31658 1.90237 4.68342 1.90237 4.29289 2.29289L2.29289 4.29289C1.90237 4.68342 1.90237 5.31658 2.29289 5.70711L4.29289 7.70711C4.68342 8.09763 5.31658 8.09763 5.70711 7.70711C6.09763 7.31658 6.09763 6.68342 5.70711 6.29289L5.41421 6H9C9.55228 6 10 5.55228 10 5C10 4.44772 9.55228 4 9 4H5.41421L5.70711 3.70711Z" fill="#0000CC"/>
<path d="M19.7071 2.29289C19.3166 1.90237 18.6834 1.90237 18.2929 2.29289C17.9024 2.68342 17.9024 3.31658 18.2929 3.70711L18.5858 4H15C14.4477 4 14 4.44772 14 5C14 5.55228 14.4477 6 15 6H18.5858L18.2929 6.29289C17.9024 6.68342 17.9024 7.31658 18.2929 7.70711C18.6834 8.09763 19.3166 8.09763 19.7071 7.70711L21.7071 5.70711C22.0976 5.31658 22.0976 4.68342 21.7071 4.29289L19.7071 2.29289Z" fill="#0000CC"/>
<path fill-rule="evenodd" clip-rule="evenodd" d="M11.4101 7.45369C11.7943 7.3351 12.2054 7.3351 12.5897 7.45369C12.8649 7.53865 13.0791 7.68226 13.2502 7.8176C13.4049 7.94006 13.5743 8.09734 13.7468 8.25762C15.1369 9.54871 16.5258 10.8437 17.9189 12.1316C18.0323 12.2365 18.1752 12.3686 18.2919 12.529C18.3932 12.6682 18.4761 12.8199 18.5385 12.9804C18.6104 13.1652 18.6444 13.3568 18.6713 13.5089C18.9945 15.3319 19.3254 17.1535 19.6525 18.9758C19.7052 19.2689 19.7554 19.5487 19.777 19.7859C19.8003 20.0416 19.803 20.3545 19.6853 20.6801C19.5251 21.1231 19.2137 21.4953 18.806 21.7312C18.5063 21.9046 18.1979 21.9573 17.9421 21.9795C17.7048 22.0002 17.4205 22.0001 17.1227 22.0001H6.87702C6.57925 22.0001 6.295 22.0002 6.05769 21.9795C5.80188 21.9573 5.49341 21.9046 5.19375 21.7312C4.78603 21.4953 4.47465 21.1231 4.31449 20.6801C4.19678 20.3545 4.19941 20.0416 4.22272 19.7859C4.24434 19.5487 4.29458 19.2689 4.34721 18.9759C4.67429 17.1536 5.00531 15.3319 5.3284 13.5089C5.35536 13.3568 5.38931 13.1652 5.46123 12.9804C5.52366 12.8199 5.60656 12.6682 5.70786 12.529C5.82454 12.3686 5.96741 12.2365 6.08084 12.1316C7.47433 10.8433 8.8624 9.54912 10.2529 8.25761C10.4255 8.09733 10.5948 7.94007 10.7496 7.8176C10.9206 7.68227 11.1348 7.53865 11.4101 7.45369ZM12 15V20H15.5L12 15Z" fill="#0000CC"/>
</svg>
