<svg width="24" height="24" viewBox="0 0 24 24" fill="none" xmlns="http://www.w3.org/2000/svg">
<path d="M11 2C10.4477 2 10 2.44772 10 3V15C10 15.5523 9.55228 16 9 16C8.44772 16 8 15.5523 8 15C8 14.6311 8.19922 14.3076 8.50073 14.1332C8.80972 13.9544 9 13.6245 9 13.2676V9.08301C9 8.78887 8.8705 8.50965 8.64597 8.31964C8.42143 8.12964 8.12463 8.04812 7.83454 8.09679C4.52312 8.65234 2 11.5306 2 15C2 18.866 5.13401 22 9 22C12.866 22 16 18.866 16 15V11.8125C17.6678 12.6818 19.342 13 21 13C21.5523 13 22 12.5523 22 12V8C22 7.44772 21.5523 7 21 7C19.7662 7 18.4869 6.47906 17.5152 5.66928C16.53 4.84825 16 3.85488 16 3C16 2.44772 15.5523 2 15 2H11Z" fill="#0000CC"/>
</svg>
