<svg width="24" height="24" viewBox="0 0 24 24" fill="none" xmlns="http://www.w3.org/2000/svg">
<path d="M6.00005 5C6.00082 4.01165 6.01338 3.49359 6.21799 3.09202C6.40973 2.71569 6.71569 2.40973 7.09202 2.21799C7.51984 2 8.0799 2 9.2 2H14.8C15.9201 2 16.4802 2 16.908 2.21799C17.2843 2.40973 17.5903 2.71569 17.782 3.09202C17.9866 3.49359 17.9992 4.01165 17.9999 5H6.00005Z" fill="#0000CC"/>
<path fill-rule="evenodd" clip-rule="evenodd" d="M6 7V21C6 21.5523 6.44772 22 7 22C7.55228 22 8 21.5523 8 21V20H16V21C16 21.5523 16.4477 22 17 22C17.5523 22 18 21.5523 18 21V7H6ZM15 14C15.5523 14 16 13.5523 16 13C16 12.4477 15.5523 12 15 12C14.4477 12 14 12.4477 14 13C14 13.5523 14.4477 14 15 14Z" fill="#0000CC"/>
</svg>
