<svg width="24" height="24" viewBox="0 0 24 24" fill="none" xmlns="http://www.w3.org/2000/svg">
<path d="M3.21799 5.09202C3 5.51984 3 6.0799 3 7.2V8H11V7.2C11 6.0799 11 5.51984 10.782 5.09202C10.5903 4.71569 10.2843 4.40973 9.90798 4.21799C9.48016 4 8.9201 4 7.8 4H6.2C5.0799 4 4.51984 4 4.09202 4.21799C3.71569 4.40973 3.40973 4.71569 3.21799 5.09202Z" fill="#0000CC"/>
<path fill-rule="evenodd" clip-rule="evenodd" d="M3 19V10H11V19C11 19.5523 10.5523 20 10 20C9.44772 20 9 19.5523 9 19V18H5V19C5 19.5523 4.55228 20 4 20C3.44772 20 3 19.5523 3 19ZM10 13C10 13.5523 9.55229 14 9 14C8.44772 14 8 13.5523 8 13C8 12.4477 8.44772 12 9 12C9.55229 12 10 12.4477 10 13Z" fill="#0000CC"/>
<path fill-rule="evenodd" clip-rule="evenodd" d="M13 10V19C13 19.5523 13.4477 20 14 20C14.5523 20 15 19.5523 15 19V18H19V19C19 19.5523 19.4477 20 20 20C20.5523 20 21 19.5523 21 19V10H13ZM20 13C20 13.5523 19.5523 14 19 14C18.4477 14 18 13.5523 18 13C18 12.4477 18.4477 12 19 12C19.5523 12 20 12.4477 20 13Z" fill="#0000CC"/>
<path d="M21 7.2V8H13V7.2C13 6.0799 13 5.51984 13.218 5.09202C13.4097 4.71569 13.7157 4.40973 14.092 4.21799C14.5198 4 15.0799 4 16.2 4H17.8C18.9201 4 19.4802 4 19.908 4.21799C20.2843 4.40973 20.5903 4.71569 20.782 5.09202C21 5.51984 21 6.0799 21 7.2Z" fill="#0000CC"/>
</svg>
