<svg width="24" height="24" viewBox="0 0 24 24" fill="none" xmlns="http://www.w3.org/2000/svg">
<path d="M4 3C4 2.44772 3.55229 2 3 2C2.44772 2 2 2.44772 2 3V6.83854C1.99999 7.21366 1.99998 7.55218 2.011 7.85118C2.00376 7.89973 2 7.94943 2 8V17.8385C1.99998 18.3657 1.99997 18.8205 2.03057 19.195C2.06287 19.5904 2.13419 19.9836 2.32698 20.362C2.6146 20.9265 3.07355 21.3854 3.63803 21.673C4.01641 21.8658 4.40963 21.9371 4.80498 21.9694C5.17955 22 5.6343 22 6.16144 22H10V18C10 16.8954 10.8954 16 12 16C13.1046 16 14 16.8954 14 18V22H17.8386C18.3657 22 18.8205 22 19.195 21.9694C19.5904 21.9371 19.9836 21.8658 20.362 21.673C20.9265 21.3854 21.3854 20.9265 21.673 20.362C21.8658 19.9836 21.9371 19.5904 21.9694 19.195C22 18.8205 22 18.3657 22 17.8386V8C22 7.94943 21.9962 7.89973 21.989 7.85118C22 7.55221 22 7.21378 22 6.8387V3C22 2.44772 21.5523 2 21 2C20.4477 2 20 2.44772 20 3V5H18.5V3C18.5 2.44772 18.0523 2 17.5 2C16.9477 2 16.5 2.44772 16.5 3V5H15V3C15 2.44772 14.5523 2 14 2C13.4477 2 13 2.44772 13 3V9L11 9V3C11 2.44772 10.5523 2 10 2C9.44772 2 9 2.44772 9 3V5H7.5V3C7.5 2.44772 7.05229 2 6.5 2C5.94772 2 5.5 2.44772 5.5 3V5H4V3Z" fill="#0000CC"/>
</svg>
