<svg width="24" height="24" viewBox="0 0 24 24" fill="none" xmlns="http://www.w3.org/2000/svg">
<path fill-rule="evenodd" clip-rule="evenodd" d="M12.7433 6.03359C13.1816 5.91721 13.6433 6.11026 13.8682 6.50395L17 11.9845L20.1318 6.50395C20.3567 6.11026 20.8184 5.91721 21.2567 6.03359C21.6949 6.14997 22 6.54666 22 7.00009V17.0001C22 17.5524 21.5523 18.0001 21 18.0001C20.4477 18.0001 20 17.5524 20 17.0001V10.7657L17.8682 14.4962C17.6902 14.8078 17.3589 15.0001 17 15.0001C16.6411 15.0001 16.3098 14.8078 16.1318 14.4962L14 10.7657V17.0001C14 17.5524 13.5523 18.0001 13 18.0001C12.4477 18.0001 12 17.5524 12 17.0001V7.00009C12 6.54666 12.3051 6.14997 12.7433 6.03359ZM2 7.00009C2 6.44781 2.44772 6.00009 3 6.00009H9C9.55228 6.00009 10 6.44781 10 7.00009C10 7.55238 9.55228 8.00009 9 8.00009H7V17.0001C7 17.5524 6.55228 18.0001 6 18.0001C5.44772 18.0001 5 17.5524 5 17.0001V8.00009H3C2.44772 8.00009 2 7.55238 2 7.00009Z" fill="#0000CC"/>
</svg>
