<svg width="24" height="24" viewBox="0 0 24 24" fill="none" xmlns="http://www.w3.org/2000/svg">
<path fill-rule="evenodd" clip-rule="evenodd" d="M13.8385 2H10.1615C9.63433 1.99998 9.17954 1.99997 8.80497 2.03057C8.40963 2.06287 8.01641 2.13419 7.63803 2.32698C7.07354 2.6146 6.6146 3.07354 6.32698 3.63803C6.13419 4.01641 6.06287 4.40963 6.03057 4.80497C5.99997 5.17954 5.99998 5.63429 6 6.16142V16C6 19.3137 8.68629 22 12 22C15.3137 22 18 19.3137 18 16V6.16148C18 5.63433 18 5.17954 17.9694 4.80497C17.9371 4.40963 17.8658 4.01641 17.673 3.63803C17.3854 3.07354 16.9265 2.6146 16.362 2.32698C15.9836 2.13419 15.5904 2.06287 15.195 2.03057C14.8205 1.99997 14.3657 1.99998 13.8385 2ZM10.5 6.5C10.5 5.67157 11.1716 5 12 5C12.8284 5 13.5 5.67157 13.5 6.5C13.5 7.32843 12.8284 8 12 8C11.1716 8 10.5 7.32843 10.5 6.5ZM10.5 11.5C10.5 10.6716 11.1716 10 12 10C12.8284 10 13.5 10.6716 13.5 11.5C13.5 12.3284 12.8284 13 12 13C11.1716 13 10.5 12.3284 10.5 11.5ZM12 15C11.1716 15 10.5 15.6716 10.5 16.5C10.5 17.3284 11.1716 18 12 18C12.8284 18 13.5 17.3284 13.5 16.5C13.5 15.6716 12.8284 15 12 15Z" fill="#0000CC"/>
</svg>
