<svg width="24" height="24" viewBox="0 0 24 24" fill="none" xmlns="http://www.w3.org/2000/svg">
<path fill-rule="evenodd" clip-rule="evenodd" d="M6.24264 4C5.71221 4 5.2035 4.21071 4.82843 4.58579L4.70711 4.70711C4.31658 5.09763 3.68342 5.09763 3.29289 4.70711C2.90237 4.31658 2.90237 3.68342 3.29289 3.29289L3.41421 3.17157C4.16436 2.42143 5.18177 2 6.24264 2H17.7574C18.8182 2 19.8356 2.42143 20.5858 3.17157L20.7071 3.29289C21.0976 3.68342 21.0976 4.31658 20.7071 4.70711C20.3166 5.09763 19.6834 5.09763 19.2929 4.70711L19.1716 4.58579C18.7965 4.21071 18.2878 4 17.7574 4H13V6L13.8385 6C14.3657 5.99998 14.8205 5.99997 15.195 6.03057C15.5904 6.06287 15.9836 6.13419 16.362 6.32698C16.9265 6.6146 17.3854 7.07354 17.673 7.63803C17.8658 8.01641 17.9371 8.40963 17.9694 8.80497C18 9.17954 18 9.6343 18 10.1614V15.8385C18 16.3657 18 16.8205 17.9694 17.195C17.9391 17.5663 17.8744 17.9357 17.7069 18.2927L19.7071 20.2929C20.0976 20.6834 20.0976 21.3166 19.7071 21.7071C19.3166 22.0976 18.6834 22.0976 18.2929 21.7071L16.2927 19.7069C15.9357 19.8744 15.5663 19.9391 15.195 19.9694C14.8205 20 14.3657 20 13.8386 20H10.1614C9.63429 20 9.17954 20 8.80497 19.9694C8.4337 19.9391 8.0643 19.8744 7.70731 19.7069L5.70711 21.7071C5.31658 22.0976 4.68342 22.0976 4.29289 21.7071C3.90237 21.3166 3.90237 20.6834 4.29289 20.2929L6.2931 18.2927C6.12565 17.9357 6.0609 17.5663 6.03057 17.195C5.99997 16.8205 5.99998 16.3657 6 15.8385V10.1615C5.99998 9.63431 5.99997 9.17954 6.03057 8.80497C6.06287 8.40963 6.13419 8.01641 6.32698 7.63803C6.6146 7.07354 7.07354 6.6146 7.63803 6.32698C8.01641 6.13419 8.40963 6.06287 8.80497 6.03057C9.17954 5.99997 9.6343 5.99998 10.1614 6L11 6V4H6.24264ZM10.2 8C9.62345 8 9.25117 8.00078 8.96784 8.02393C8.69617 8.04612 8.59545 8.0838 8.54601 8.10899C8.35785 8.20487 8.20487 8.35785 8.10899 8.54601C8.0838 8.59545 8.04612 8.69617 8.02393 8.96784C8.00078 9.25117 8 9.62345 8 10.2V12H16V10.2C16 9.62345 15.9992 9.25117 15.9761 8.96784C15.9539 8.69617 15.9162 8.59545 15.891 8.54601C15.7951 8.35785 15.6422 8.20487 15.454 8.10899C15.4045 8.0838 15.3038 8.04612 15.0322 8.02393C14.7488 8.00078 14.3766 8 13.8 8H10.2ZM10 16C10 16.5523 9.55228 17 9 17C8.44772 17 8 16.5523 8 16C8 15.4477 8.44772 15 9 15C9.55228 15 10 15.4477 10 16ZM15 17C15.5523 17 16 16.5523 16 16C16 15.4477 15.5523 15 15 15C14.4477 15 14 15.4477 14 16C14 16.5523 14.4477 17 15 17Z" fill="#0000CC"/>
</svg>
