<svg width="24" height="24" viewBox="0 0 24 24" fill="none" xmlns="http://www.w3.org/2000/svg">
<path fill-rule="evenodd" clip-rule="evenodd" d="M11.1614 1.99965C10.4779 1.99863 9.87802 1.99774 9.3435 2.20796C8.87612 2.39178 8.46236 2.69 8.14017 3.07527C7.77171 3.51588 7.58286 4.08525 7.3677 4.73397L7.27924 4.9998H4C3.44772 4.9998 3 5.44751 3 5.9998C3 6.55208 3.44772 6.9998 4 6.9998H5.06445L5.80553 18.1161C5.83849 18.6107 5.86702 19.0389 5.91878 19.3915C5.9736 19.7648 6.0642 20.1333 6.26443 20.4848C6.56454 21.0116 7.0172 21.4351 7.56278 21.6995C7.9268 21.8759 8.30052 21.9418 8.67668 21.9716C9.03186 21.9998 9.46109 21.9998 9.95674 21.9998H14.0432C14.5389 21.9998 14.9681 21.9998 15.3233 21.9716C15.6995 21.9418 16.0732 21.8759 16.4372 21.6995C16.9828 21.4351 17.4355 21.0116 17.7356 20.4848C17.9358 20.1333 18.0264 19.7648 18.0812 19.3915C18.133 19.0389 18.1615 18.6107 18.1945 18.1161L18.9356 6.9998H20C20.5523 6.9998 21 6.55208 21 5.9998C21 5.44751 20.5523 4.9998 20 4.9998H16.7208L16.6323 4.73396C16.4171 4.08525 16.2283 3.51587 15.8598 3.07527C15.5376 2.69 15.1239 2.39178 14.6565 2.20796C14.122 1.99774 13.5221 1.99863 12.8386 1.99965H11.1614ZM9.39062 4.9998H14.6094C14.4558 4.5606 14.3961 4.44258 14.3256 4.35829C14.2182 4.22986 14.0803 4.13046 13.9245 4.06918C13.7908 4.0166 13.6083 3.9998 12.6936 3.9998H11.3064C10.3917 3.9998 10.2092 4.0166 10.0755 4.06918C9.91972 4.13046 9.7818 4.22986 9.6744 4.35829C9.60391 4.44258 9.54424 4.5606 9.39062 4.9998ZM13 12C13 11.4477 12.5523 11 12 11C11.4477 11 11 11.4477 11 12V13H10C9.44772 13 9 13.4477 9 14C9 14.5523 9.44772 15 10 15H11V16C11 16.5523 11.4477 17 12 17C12.5523 17 13 16.5523 13 16V15H14C14.5523 15 15 14.5523 15 14C15 13.4477 14.5523 13 14 13H13V12Z" fill="#0000CC"/>
</svg>
