<svg width="24" height="24" viewBox="0 0 24 24" fill="none" xmlns="http://www.w3.org/2000/svg">
<path fill-rule="evenodd" clip-rule="evenodd" d="M7.3435 2.20796C7.87802 1.99774 8.47789 1.99863 9.16137 1.99965H10.8386C11.5221 1.99863 12.122 1.99774 12.6565 2.20796C13.1239 2.39178 13.5376 2.69 13.8598 3.07527C14.2283 3.51587 14.4171 4.08525 14.6323 4.73396L14.7208 4.9998H18C18.5523 4.9998 19 5.44751 19 5.9998C19 6.55208 18.5523 6.9998 18 6.9998H16.9356L16.1945 18.1161C16.1615 18.6107 16.133 19.0389 16.0812 19.3915C16.0264 19.7648 15.9358 20.1333 15.7356 20.4848C15.4355 21.0116 14.9828 21.4351 14.4372 21.6995C14.0732 21.8759 13.6995 21.9418 13.3233 21.9716C12.9681 21.9998 12.5389 21.9998 12.0433 21.9998H7.95674C7.4611 21.9998 7.03186 21.9998 6.67668 21.9716C6.30052 21.9418 5.9268 21.8759 5.56278 21.6995C5.0172 21.4351 4.56454 21.0116 4.26443 20.4848C4.0642 20.1333 3.9736 19.7648 3.91878 19.3915C3.86702 19.0389 3.83849 18.6107 3.80553 18.1161L3.06445 6.9998H2C1.44772 6.9998 1 6.55208 1 5.9998C1 5.44751 1.44772 4.9998 2 4.9998H5.27924L5.3677 4.73397C5.58286 4.08525 5.77171 3.51588 6.14017 3.07527C6.46236 2.69 6.87612 2.39178 7.3435 2.20796ZM12.6094 4.9998H7.39062C7.54424 4.5606 7.60391 4.44258 7.6744 4.35829C7.7818 4.22986 7.91972 4.13046 8.07551 4.06918C8.20921 4.0166 8.39173 3.9998 9.30643 3.9998H10.6936C11.6083 3.9998 11.7908 4.0166 11.9245 4.06918C12.0803 4.13046 12.2182 4.22986 12.3256 4.35829C12.3961 4.44258 12.4558 4.5606 12.6094 4.9998ZM8 9C8.55228 9 9 9.44772 9 10V17C9 17.5523 8.55228 18 8 18C7.44772 18 7 17.5523 7 17V10C7 9.44772 7.44772 9 8 9ZM12 9C12.5523 9 13 9.44772 13 10V17C13 17.5523 12.5523 18 12 18C11.4477 18 11 17.5523 11 17V10C11 9.44772 11.4477 9 12 9Z" fill="#0000CC"/>
<path d="M19 8C18.4477 8 18 8.44772 18 9C18 9.55228 18.4477 10 19 10H22C22.5523 10 23 9.55228 23 9C23 8.44772 22.5523 8 22 8H19Z" fill="#0000CC"/>
<path d="M19 13C18.4477 13 18 13.4477 18 14C18 14.5523 18.4477 15 19 15H22C22.5523 15 23 14.5523 23 14C23 13.4477 22.5523 13 22 13H19Z" fill="#0000CC"/>
<path d="M18 19C18 18.4477 18.4477 18 19 18H21C21.5523 18 22 18.4477 22 19C22 19.5523 21.5523 20 21 20H19C18.4477 20 18 19.5523 18 19Z" fill="#0000CC"/>
</svg>
