<svg width="24" height="24" viewBox="0 0 24 24" fill="none" xmlns="http://www.w3.org/2000/svg">
<path fill-rule="evenodd" clip-rule="evenodd" d="M9.3435 2.20796C9.87802 1.99774 10.4779 1.99863 11.1614 1.99965H12.8386C13.5221 1.99863 14.122 1.99774 14.6565 2.20796C15.1239 2.39178 15.5376 2.69 15.8598 3.07527C16.2283 3.51587 16.4171 4.08525 16.6323 4.73396L16.7208 4.9998H20C20.5523 4.9998 21 5.44751 21 5.9998C21 6.55208 20.5523 6.9998 20 6.9998H18.9356L18.7213 10.2132C18.1706 10.074 17.594 10 17 10C13.134 10 10 13.134 10 17C10 18.9586 10.8044 20.7293 12.1008 21.9998H9.95674C9.4611 21.9998 9.03186 21.9998 8.67668 21.9716C8.30052 21.9418 7.9268 21.8759 7.56278 21.6995C7.0172 21.4351 6.56454 21.0116 6.26443 20.4848C6.0642 20.1333 5.9736 19.7648 5.91878 19.3915C5.86702 19.0389 5.83849 18.6107 5.80553 18.1161L5.06445 6.9998H4C3.44772 6.9998 3 6.55208 3 5.9998C3 5.44751 3.44772 4.9998 4 4.9998H7.27924L7.3677 4.73397C7.58286 4.08525 7.77171 3.51588 8.14017 3.07527C8.46236 2.69 8.87612 2.39178 9.3435 2.20796ZM14.6094 4.9998H9.39062C9.54424 4.5606 9.60391 4.44258 9.6744 4.35829C9.7818 4.22986 9.91972 4.13046 10.0755 4.06918C10.2092 4.0166 10.3917 3.9998 11.3064 3.9998H12.6936C13.6083 3.9998 13.7908 4.0166 13.9245 4.06918C14.0803 4.13046 14.2182 4.22986 14.3256 4.35829C14.3961 4.44258 14.4558 4.5606 14.6094 4.9998Z" fill="#0000CC"/>
<path fill-rule="evenodd" clip-rule="evenodd" d="M12 17C12 14.2386 14.2386 12 17 12C19.7614 12 22 14.2386 22 17C22 19.7614 19.7614 22 17 22C14.2386 22 12 19.7614 12 17ZM18 15C18 14.4477 17.5523 14 17 14C16.4477 14 16 14.4477 16 15V17C16 17.5523 16.4477 18 17 18H19C19.5523 18 20 17.5523 20 17C20 16.4477 19.5523 16 19 16H18V15Z" fill="#0000CC"/>
</svg>
