<svg width="24" height="24" viewBox="0 0 24 24" fill="none" xmlns="http://www.w3.org/2000/svg">
<path fill-rule="evenodd" clip-rule="evenodd" d="M15 10V10.786L19 14.786V6.9998H20C20.5523 6.9998 21 6.55208 21 5.9998C21 5.44751 20.5523 4.9998 20 4.9998H16.7208L16.6323 4.73396C16.4171 4.08525 16.2283 3.51587 15.8598 3.07527C15.5376 2.69 15.1239 2.39178 14.6565 2.20796C14.122 1.99774 13.5221 1.99863 12.8386 1.99965H11.1614C10.4779 1.99863 9.87802 1.99774 9.3435 2.20796C8.87612 2.39178 8.46236 2.69 8.14017 3.07527C8.00914 3.23195 7.90083 3.40492 7.80597 3.59195L13.408 9.19398C13.5737 9.07204 13.7785 9 14 9C14.5523 9 15 9.44772 15 10ZM9.39062 4.9998H14.6094C14.4558 4.5606 14.3961 4.44258 14.3256 4.35829C14.2182 4.22986 14.0803 4.13046 13.9245 4.06918C13.7908 4.0166 13.6083 3.9998 12.6936 3.9998H11.3064C10.3917 3.9998 10.2092 4.0166 10.0755 4.06918C9.91972 4.13046 9.7818 4.22986 9.6744 4.35829C9.60391 4.44258 9.54424 4.5606 9.39062 4.9998Z" fill="#0000CC"/>
<path fill-rule="evenodd" clip-rule="evenodd" d="M3.64894 5.06315C3.26983 5.20531 3 5.57104 3 5.9998C3 6.55208 3.44772 6.9998 4 6.9998H5L5 16.2411C4.99999 17.0461 4.99998 17.7104 5.04419 18.2516C5.09012 18.8137 5.18868 19.3304 5.43597 19.8158C5.81947 20.5684 6.43139 21.1803 7.18404 21.5638C7.66937 21.8111 8.18608 21.9097 8.74817 21.9556C9.28936 21.9998 9.95372 21.9998 10.7587 21.9998H13.2413C14.0463 21.9998 14.7106 21.9998 15.2518 21.9556C15.8139 21.9097 16.3306 21.8111 16.816 21.5638C17.5329 21.1985 18.1221 20.626 18.5078 19.9221L20.2929 21.7071C20.6834 22.0976 21.3166 22.0976 21.7071 21.7071C22.0976 21.3166 22.0976 20.6834 21.7071 20.2929L3.70711 2.29289C3.31658 1.90237 2.68342 1.90237 2.29289 2.29289C1.90237 2.68342 1.90237 3.31658 2.29289 3.70711L3.64894 5.06315ZM15 16.4142L13 14.4142V17C13 17.5523 13.4477 18 14 18C14.5523 18 15 17.5523 15 17V16.4142ZM11 12.4142L9 10.4142V17C9 17.5523 9.44772 18 10 18C10.5523 18 11 17.5523 11 17V12.4142Z" fill="#0000CC"/>
</svg>
