<svg width="24" height="24" viewBox="0 0 24 24" fill="none" xmlns="http://www.w3.org/2000/svg">
<path fill-rule="evenodd" clip-rule="evenodd" d="M15 10V10.786L18.4529 14.2389L18.9356 6.9998H20C20.5523 6.9998 21 6.55208 21 5.9998C21 5.44751 20.5523 4.9998 20 4.9998H16.7208L16.6323 4.73396C16.4171 4.08525 16.2283 3.51587 15.8598 3.07527C15.5376 2.69 15.1239 2.39178 14.6565 2.20796C14.122 1.99774 13.5221 1.99863 12.8386 1.99965H11.1614C10.4779 1.99863 9.87802 1.99774 9.3435 2.20796C8.87612 2.39178 8.46236 2.69 8.14017 3.07527C8.00914 3.23195 7.90083 3.40492 7.80597 3.59195L13.408 9.19398C13.5737 9.07204 13.7785 9 14 9C14.5523 9 15 9.44772 15 10ZM9.39062 4.9998H14.6094C14.4558 4.5606 14.3961 4.44258 14.3256 4.35829C14.2182 4.22986 14.0803 4.13046 13.9245 4.06918C13.7908 4.0166 13.6083 3.9998 12.6936 3.9998H11.3064C10.3917 3.9998 10.2092 4.0166 10.0755 4.06918C9.91972 4.13046 9.7818 4.22986 9.6744 4.35829C9.60391 4.44258 9.54424 4.5606 9.39062 4.9998Z" fill="#0000CC"/>
<path fill-rule="evenodd" clip-rule="evenodd" d="M3.64894 5.06315C3.26983 5.20531 3 5.57104 3 5.9998C3 6.55208 3.44772 6.9998 4 6.9998H5.06445L5.80553 18.1161C5.83849 18.6107 5.86702 19.0389 5.91878 19.3915C5.9736 19.7648 6.0642 20.1333 6.26443 20.4848C6.56454 21.0116 7.0172 21.4351 7.56278 21.6995C7.9268 21.8759 8.30052 21.9418 8.67668 21.9716C9.03185 21.9998 9.46104 21.9998 9.95666 21.9998H14.0432C14.5389 21.9998 14.9682 21.9998 15.3233 21.9716C15.6995 21.9418 16.0732 21.8759 16.4372 21.6995C16.9828 21.4351 17.4355 21.0116 17.7356 20.4848C17.9197 20.1616 18.0111 19.824 18.0673 19.4815L20.2929 21.7071C20.6834 22.0976 21.3166 22.0976 21.7071 21.7071C22.0976 21.3166 22.0976 20.6834 21.7071 20.2929L3.70711 2.29289C3.31658 1.90237 2.68342 1.90237 2.29289 2.29289C1.90237 2.68342 1.90237 3.31658 2.29289 3.70711L3.64894 5.06315ZM15 16.4142L13 14.4142V17C13 17.5523 13.4477 18 14 18C14.5523 18 15 17.5523 15 17V16.4142ZM11 12.4142L9 10.4142V17C9 17.5523 9.44772 18 10 18C10.5523 18 11 17.5523 11 17V12.4142Z" fill="#0000CC"/>
</svg>
