<svg width="24" height="24" viewBox="0 0 24 24" fill="none" xmlns="http://www.w3.org/2000/svg">
<path fill-rule="evenodd" clip-rule="evenodd" d="M11.9999 2C12.5522 2 12.9999 2.44772 12.9999 3V5.11336C13.6321 5.3339 14.2016 5.77064 14.5857 6.42356L16.2807 9.30501L19.2928 6.29289C19.6833 5.90237 20.3165 5.90237 20.707 6.29289C21.0975 6.68342 21.0975 7.31658 20.707 7.70711L14.7075 13.7066C14.895 14.0982 14.9999 14.5369 14.9999 15C14.9999 16.6569 13.6568 18 11.9999 18C10.3431 18 8.99991 16.6569 8.99991 15C8.99991 13.3431 10.3431 12 11.9999 12C12.4631 12 12.9017 12.105 13.2933 12.2924L14.8197 10.766L12.8618 7.4376C12.4752 6.78029 11.5246 6.78029 11.138 7.4376L4.63481 18.493C4.24267 19.1596 4.72332 20 5.49674 20H18.5031C19.2765 20 19.7571 19.1596 19.365 18.493L17.2499 14.8973C16.9699 14.4212 17.1288 13.8083 17.6048 13.5283C18.0808 13.2483 18.6937 13.4072 18.9738 13.8832L21.0889 17.4789C22.2653 19.4788 20.8233 22 18.5031 22H5.49674C3.17649 22 1.73453 19.4788 2.91094 17.4789L9.4141 6.42356C9.79817 5.77064 10.3677 5.3339 10.9999 5.11336V3C10.9999 2.44772 11.4476 2 11.9999 2Z" fill="#0000CC"/>
</svg>
