<svg width="24" height="24" viewBox="0 0 24 24" fill="none" xmlns="http://www.w3.org/2000/svg">
<path fill-rule="evenodd" clip-rule="evenodd" d="M5.66146 3H10.3385C10.8657 2.99998 11.3205 2.99997 11.695 3.03057C12.0904 3.06287 12.4836 3.13419 12.862 3.32698C13.4265 3.6146 13.8854 4.07354 14.173 4.63803C14.3658 5.01641 14.4371 5.40963 14.4694 5.80497C14.4969 6.14075 14.4997 6.54097 14.5 7H17.5C17.8148 7 18.1111 7.1482 18.3 7.4L21.3 11.4C21.4298 11.5731 21.5 11.7836 21.5 12V17C22.0523 17 22.5 17.4477 22.5 18C22.5 18.5523 22.0523 19 21.5 19H19.3293C18.9175 20.1652 17.8062 21 16.5 21C15.1938 21 14.0825 20.1652 13.6707 19H9.3293C8.91746 20.1652 7.80622 21 6.5 21C5.14623 21 4.0019 20.1033 3.62854 18.8715C2.39669 18.4981 1.5 17.3538 1.5 16L1.5 7.16146C1.49998 6.63431 1.49997 6.17955 1.53057 5.80497C1.56287 5.40963 1.63419 5.01641 1.82698 4.63803C2.1146 4.07354 2.57354 3.6146 3.13803 3.32698C3.51641 3.13419 3.90963 3.06287 4.30497 3.03057C4.67955 2.99997 5.13431 2.99998 5.66146 3ZM18.5 11H14.5V9H17L18.5 11ZM6.5 17C5.94772 17 5.5 17.4477 5.5 18C5.5 18.5523 5.94772 19 6.5 19C7.05229 19 7.5 18.5523 7.5 18C7.5 17.4477 7.05229 17 6.5 17ZM16.5 17C15.9477 17 15.5 17.4477 15.5 18C15.5 18.5523 15.9477 19 16.5 19C17.0523 19 17.5 18.5523 17.5 18C17.5 17.4477 17.0523 17 16.5 17Z" fill="#0000CC"/>
</svg>
