<svg width="24" height="24" viewBox="0 0 24 24" fill="none" xmlns="http://www.w3.org/2000/svg">
<path fill-rule="evenodd" clip-rule="evenodd" d="M6.21917 2.37534C6.56418 1.94408 7.19347 1.87416 7.62473 2.21917L12 5.71941L16.3753 2.21917C16.8066 1.87416 17.4359 1.94408 17.7809 2.37534C18.1259 2.8066 18.056 3.4359 17.6247 3.78091L14.8509 6H17.2C18.8802 6 19.7202 6 20.362 6.32698C20.9265 6.6146 21.3854 7.07354 21.673 7.63803C22 8.27976 22 9.11984 22 10.8V17.2C22 18.8802 22 19.7202 21.673 20.362C21.3854 20.9265 20.9265 21.3854 20.362 21.673C19.7202 22 18.8802 22 17.2 22H6.8C5.11984 22 4.27976 22 3.63803 21.673C3.07354 21.3854 2.6146 20.9265 2.32698 20.362C2 19.7202 2 18.8802 2 17.2V10.8C2 9.11984 2 8.27976 2.32698 7.63803C2.6146 7.07354 3.07354 6.6146 3.63803 6.32698C4.27976 6 5.11984 6 6.8 6H9.14921L6.37534 3.78091C5.94408 3.4359 5.87416 2.8066 6.21917 2.37534ZM4 9.6C4 9.03995 4 8.75992 4.10899 8.54601C4.20487 8.35785 4.35785 8.20487 4.54601 8.10899C4.75992 8 5.03995 8 5.6 8H14.4C14.9601 8 15.2401 8 15.454 8.10899C15.6422 8.20487 15.7951 8.35785 15.891 8.54601C16 8.75992 16 9.03995 16 9.6V18.4C16 18.9601 16 19.2401 15.891 19.454C15.7951 19.6422 15.6422 19.7951 15.454 19.891C15.2401 20 14.9601 20 14.4 20H5.6C5.03995 20 4.75992 20 4.54601 19.891C4.35785 19.7951 4.20487 19.6422 4.10899 19.454C4 19.2401 4 18.9601 4 18.4V9.6ZM20 11C20 11.5523 19.5523 12 19 12C18.4477 12 18 11.5523 18 11C18 10.4477 18.4477 10 19 10C19.5523 10 20 10.4477 20 11ZM20 14C20 14.5523 19.5523 15 19 15C18.4477 15 18 14.5523 18 14C18 13.4477 18.4477 13 19 13C19.5523 13 20 13.4477 20 14ZM20 17C20 17.5523 19.5523 18 19 18C18.4477 18 18 17.5523 18 17C18 16.4477 18.4477 16 19 16C19.5523 16 20 16.4477 20 17Z" fill="#0000CC"/>
</svg>
