<svg width="24" height="24" viewBox="0 0 24 24" fill="none" xmlns="http://www.w3.org/2000/svg">
<path d="M11 2C8.23858 2 6 4.23858 6 7C6 9.76142 8.23858 12 11 12C13.7614 12 16 9.76142 16 7C16 4.23858 13.7614 2 11 2Z" fill="#0000CC"/>
<path d="M11 13C6.58172 13 3 16.5817 3 21C3 21.5523 3.44772 22 4 22H13.1467C11.7623 20.5216 11 18.4656 11 16.3977L11.0002 15.2099C11.0003 14.3969 11.3305 13.6175 11.9162 13.0519C11.6156 13.0176 11.3098 13 11 13Z" fill="#0000CC"/>
<path d="M17.7284 13.3149C17.5394 13.114 17.2758 13 17 13C16.7241 13 16.4605 13.1139 16.2715 13.3149C15.7266 13.8943 15.0458 14.2099 14.3333 14.2099C14.3008 14.2099 14.2645 14.2103 14.2267 14.2107C14.1699 14.2113 14.1096 14.212 14.0537 14.2114C13.7809 14.1968 13.5138 14.2944 13.3147 14.4818C13.114 14.6708 13.0002 14.9347 13.0002 15.2103L13 16.3979C13 18.9614 14.4815 21.2756 16.7076 21.9563C16.8982 22.0146 17.1018 22.0146 17.2924 21.9563C19.5185 21.2756 21 18.9614 21 16.3979V15.21C21 14.9343 20.8862 14.6709 20.6855 14.4819C20.4864 14.2944 20.2192 14.1967 19.9462 14.2114C19.8903 14.212 19.8299 14.2114 19.7731 14.2108C19.7353 14.2104 19.699 14.21 19.6667 14.21C18.9541 14.21 18.2734 13.8943 17.7284 13.3149Z" fill="#0000CC"/>
</svg>
