<svg width="24" height="24" viewBox="0 0 24 24" fill="none" xmlns="http://www.w3.org/2000/svg">
<path d="M11.5218 2C8.76042 2 6.52185 4.23858 6.52185 7C6.52185 9.76142 8.76042 12 11.5218 12C14.2833 12 16.5218 9.76142 16.5218 7C16.5218 4.23858 14.2833 2 11.5218 2Z" fill="#0000CC"/>
<path d="M11.5218 13C12.0274 13 12.5231 13.0417 13.0059 13.1218C11.4885 14.2106 10.5 15.9899 10.5 18C10.5 19.5367 11.0777 20.9385 12.0278 22H6.52185C5.32763 22 4.73052 22 4.08897 21.5566C3.65466 21.2564 3.12614 20.4187 3.0422 19.8975C2.91822 19.1275 3.07688 18.7949 3.39421 18.1297C4.84134 15.0961 7.9368 13 11.5218 13Z" fill="#0000CC"/>
<path d="M21 14.5C21 13.9477 20.5523 13.5 20 13.5C19.4477 13.5 19 13.9477 19 14.5V14.8774C18.3156 14.3286 17.4465 14 16.5 14C14.2909 14 12.5 15.7909 12.5 18C12.5 20.2091 14.2909 22 16.5 22C17.5238 22 18.4599 21.614 19.1669 20.9812C19.5784 20.6129 19.6135 19.9807 19.2451 19.5692C18.8768 19.1577 18.2446 19.1226 17.8331 19.491C17.4786 19.8083 17.0129 20 16.5 20C15.3954 20 14.5 19.1046 14.5 18C14.5 16.8954 15.3954 16 16.5 16C17.0067 16 17.4701 16.1886 17.8231 16.5H17C16.4477 16.5 16 16.9477 16 17.5C16 18.0523 16.4477 18.5 17 18.5H20C20.5523 18.5 21 18.0523 21 17.5V14.5Z" fill="#0000CC"/>
</svg>
