<svg width="24" height="24" viewBox="0 0 24 24" fill="none" xmlns="http://www.w3.org/2000/svg">
<path d="M6.00005 7C6.00005 4.23858 8.23862 2 11 2C13.7615 2 16 4.23858 16 7C16 9.76142 13.7615 12 11 12C8.23862 12 6.00005 9.76142 6.00005 7Z" fill="#0000CC"/>
<path d="M7.59006 13L7.68414 13C7.88115 13 8.07376 13.0582 8.23782 13.1673C9.02944 13.6936 9.97666 14 11 14C11.0866 14 11.1726 13.9978 11.258 13.9935C11.0897 14.3729 11.0002 14.7869 11.0002 15.2099L11 16.3977C11 18.4656 11.7623 20.5216 13.1467 22H5.56778C5.3156 22 5.06982 22.0001 4.86182 21.9831C4.63322 21.9644 4.36349 21.9203 4.09206 21.782C3.71574 21.5903 3.40978 21.2843 3.21803 20.908C3.07973 20.6366 3.03567 20.3668 3.01699 20.1382C2.99998 19.9301 3.00001 19.6843 3.00004 19.4319L3.00002 17.59C2.99982 17.0461 2.99967 16.6429 3.06402 16.2874C3.3612 14.6459 4.64594 13.3612 6.28748 13.064C6.64297 12.9996 7.04618 12.9998 7.59006 13Z" fill="#0000CC"/>
<path d="M17.7284 13.3149C17.5394 13.114 17.2758 13 17 13C16.7241 13 16.4605 13.1139 16.2715 13.3149C15.7266 13.8943 15.0458 14.2099 14.3333 14.2099C14.3008 14.2099 14.2645 14.2103 14.2267 14.2107C14.1699 14.2113 14.1096 14.212 14.0537 14.2114C13.7809 14.1968 13.5138 14.2944 13.3147 14.4818C13.114 14.6708 13.0002 14.9347 13.0002 15.2103L13 16.3979C13 18.9614 14.4815 21.2756 16.7076 21.9563C16.8982 22.0146 17.1018 22.0146 17.2924 21.9563C19.5185 21.2756 21 18.9614 21 16.3979V15.21C21 14.9343 20.8862 14.6709 20.6855 14.4819C20.4864 14.2944 20.2192 14.1967 19.9462 14.2114C19.8903 14.212 19.8299 14.2114 19.7731 14.2108C19.7353 14.2104 19.699 14.21 19.6667 14.21C18.9541 14.21 18.2734 13.8943 17.7284 13.3149Z" fill="#0000CC"/>
</svg>
