<svg width="24" height="24" viewBox="0 0 24 24" fill="none" xmlns="http://www.w3.org/2000/svg">
<path d="M11 2C8.23862 2 6.00005 4.23858 6.00005 7C6.00005 9.76142 8.23862 12 11 12C13.7615 12 16 9.76142 16 7C16 4.23858 13.7615 2 11 2Z" fill="#0000CC"/>
<path d="M7.68414 13L7.59006 13C7.04618 12.9998 6.64297 12.9996 6.28748 13.064C4.64594 13.3612 3.3612 14.6459 3.06402 16.2874C2.99967 16.6429 2.99982 17.0461 3.00002 17.59L3.00004 19.4319C3.00001 19.6843 2.99998 19.9301 3.01699 20.1382C3.03567 20.3668 3.07973 20.6366 3.21803 20.908C3.40978 21.2843 3.71574 21.5903 4.09206 21.782C4.36349 21.9203 4.63322 21.9644 4.86182 21.9831C5.06988 22.0001 5.31565 22 5.56791 22H15.168C15.0575 21.6872 14.9973 21.3506 14.9973 21C14.9973 20.4537 15.1433 19.9415 15.3985 19.5002C15.098 18.9805 14.9663 18.3898 15.0034 17.8079C13.5865 17.2766 12.7693 15.7509 13.155 14.2522C13.2366 13.9351 13.3485 13.6301 13.4874 13.3405C12.7559 13.7599 11.9061 14 11 14C9.97666 14 9.02944 13.6936 8.23782 13.1673C8.07376 13.0582 7.88115 13 7.68414 13Z" fill="#0000CC"/>
<path d="M17.9973 14.5C17.5327 14.5 17.1398 14.8177 17.0287 15.2493C16.8911 15.7841 16.3459 16.1061 15.811 15.9684C15.2762 15.8308 14.9542 15.2856 15.0919 14.7507C15.4248 13.457 16.598 12.5 17.9973 12.5C19.6541 12.5 20.9973 13.8431 20.9973 15.5C20.9973 16.4314 20.5428 17.0493 20.0668 17.5087C19.874 17.6948 19.6544 17.8768 19.457 18.0404L19.3712 18.1116C19.1408 18.3033 18.9203 18.4913 18.7044 18.7071C18.3139 19.0976 17.6807 19.0976 17.2902 18.7071C16.8997 18.3166 16.8997 17.6834 17.2902 17.2929C17.5744 17.0087 17.8539 16.7723 18.0922 16.574L18.1837 16.498C18.3883 16.3282 18.5435 16.1994 18.6778 16.0697C18.9518 15.8053 18.9973 15.6732 18.9973 15.5C18.9973 14.9477 18.5496 14.5 17.9973 14.5Z" fill="#0000CC"/>
<path d="M19 21C19 21.5523 18.5523 22 18 22C17.4477 22 17 21.5523 17 21C17 20.4477 17.4477 20 18 20C18.5523 20 19 20.4477 19 21Z" fill="#0000CC"/>
</svg>
