<svg width="24" height="24" viewBox="0 0 24 24" fill="none" xmlns="http://www.w3.org/2000/svg">
<path d="M11.5218 2C8.76042 2 6.52185 4.23858 6.52185 7C6.52185 9.76142 8.76042 12 11.5218 12C14.2833 12 16.5218 9.76142 16.5218 7C16.5218 4.23858 14.2833 2 11.5218 2Z" fill="#0000CC"/>
<path d="M11.5218 13C13.8075 13 15.8941 13.852 17.4815 15.2558L15.7834 16.873C14.5844 15.9844 12.8832 16.1083 11.8276 17.2168C10.6849 18.4165 10.7312 20.3155 11.931 21.4581L12.5 22H6.52185C5.32763 22 4.73052 22 4.08897 21.5566C3.65466 21.2564 3.12614 20.4187 3.0422 19.8975C2.91822 19.1275 3.07688 18.7949 3.39421 18.1297C4.84134 15.0961 7.9368 13 11.5218 13Z" fill="#0000CC"/>
<path d="M20.6897 17.7241C21.0896 17.3433 21.105 16.7103 20.7241 16.3103C20.3433 15.9104 19.7103 15.895 19.3103 16.2759L15.8 19.619L14.6897 18.5616C14.2897 18.1807 13.6567 18.1961 13.2759 18.5961C12.895 18.996 12.9104 19.629 13.3103 20.0099L15.1103 21.7241C15.4966 22.092 16.1035 22.092 16.4897 21.7241L20.6897 17.7241Z" fill="#0000CC"/>
</svg>
