<svg width="24" height="24" viewBox="0 0 24 24" fill="none" xmlns="http://www.w3.org/2000/svg">
<path d="M11.5218 2C8.76042 2 6.52185 4.23858 6.52185 7C6.52185 9.76142 8.76042 12 11.5218 12C14.2833 12 16.5218 9.76142 16.5218 7C16.5218 4.23858 14.2833 2 11.5218 2Z" fill="#0000CC"/>
<path d="M11.5218 13C12.2879 13 13.0316 13.0957 13.7416 13.2758C13.4291 13.4201 13.1363 13.6211 12.8787 13.8787C11.7071 15.0503 11.7071 16.9497 12.8787 18.1213L13.2574 18.5L12.8787 18.8787C12.0346 19.7228 11.7987 20.9447 12.1708 22H6.52185C5.32763 22 4.73052 22 4.08897 21.5566C3.65466 21.2564 3.12614 20.4187 3.0422 19.8975C2.91822 19.1275 3.07688 18.7949 3.39421 18.1297C4.84134 15.0961 7.9368 13 11.5218 13Z" fill="#0000CC"/>
<path d="M15.7071 15.2929C15.3166 14.9024 14.6834 14.9024 14.2929 15.2929C13.9024 15.6834 13.9024 16.3166 14.2929 16.7071L16.0858 18.5L14.2929 20.2929C13.9024 20.6834 13.9024 21.3166 14.2929 21.7071C14.6834 22.0976 15.3166 22.0976 15.7071 21.7071L17.5 19.9142L19.2929 21.7071C19.6834 22.0976 20.3166 22.0976 20.7071 21.7071C21.0976 21.3166 21.0976 20.6834 20.7071 20.2929L18.9142 18.5L20.7071 16.7071C21.0976 16.3166 21.0976 15.6834 20.7071 15.2929C20.3166 14.9024 19.6834 14.9024 19.2929 15.2929L17.5 17.0858L15.7071 15.2929Z" fill="#0000CC"/>
</svg>
