<svg width="24" height="24" viewBox="0 0 24 24" fill="none" xmlns="http://www.w3.org/2000/svg">
<path d="M11.5218 2C8.76042 2 6.52185 4.23858 6.52185 7C6.52185 9.76142 8.76042 12 11.5218 12C14.2833 12 16.5218 9.76142 16.5218 7C16.5218 4.23858 14.2833 2 11.5218 2Z" fill="#0000CC"/>
<path d="M11.5218 13C12.5342 13 13.5076 13.1672 14.4158 13.4754C14.1516 13.9221 14 14.4434 14 15C12.3431 15 11 16.3431 11 18C11 19.6569 12.3431 21 14 21C14 21.3506 14.0602 21.6872 14.1707 22H6.52185C5.32763 22 4.73052 22 4.08897 21.5566C3.65466 21.2564 3.12614 20.4187 3.0422 19.8975C2.91822 19.1275 3.07688 18.7949 3.39421 18.1297C4.84134 15.0961 7.9368 13 11.5218 13Z" fill="#0000CC"/>
<path d="M16 15C16 14.4477 16.4477 14 17 14C17.5523 14 18 14.4477 18 15V17H20C20.5523 17 21 17.4477 21 18C21 18.5523 20.5523 19 20 19H18V21C18 21.5523 17.5523 22 17 22C16.4477 22 16 21.5523 16 21V19H14C13.4477 19 13 18.5523 13 18C13 17.4477 13.4477 17 14 17H16V15Z" fill="#0000CC"/>
</svg>
