<svg width="24" height="24" viewBox="0 0 24 24" fill="none" xmlns="http://www.w3.org/2000/svg">
<path d="M6.00005 7C6.00005 4.23858 8.23862 2 11 2C13.7615 2 16 4.23858 16 7C16 9.76142 13.7615 12 11 12C8.23862 12 6.00005 9.76142 6.00005 7Z" fill="#0000CC"/>
<path d="M7.59006 13L7.68414 13C7.88115 13 8.07376 13.0582 8.23782 13.1673C9.02944 13.6936 9.97666 14 11 14C11.8396 14 12.6308 13.7938 13.3244 13.43V13.4531C12.9736 13.638 12.7089 13.8419 12.5535 13.9952C11.7925 14.7454 9.98725 16.8182 11.6891 19.7964C12.0303 20.3263 12.785 21.1321 13.668 22H5.56778C5.3156 22 5.06982 22.0001 4.86182 21.9831C4.63322 21.9644 4.36349 21.9203 4.09206 21.782C3.71574 21.5903 3.40978 21.2843 3.21803 20.908C3.07973 20.6366 3.03567 20.3668 3.01699 20.1382C2.99998 19.9301 3.00001 19.6843 3.00004 19.4319L3.00002 17.59C2.99982 17.0461 2.99967 16.6429 3.06402 16.2874C3.3612 14.6459 4.64594 13.3612 6.28748 13.064C6.64297 12.9996 7.04618 12.9998 7.59006 13Z" fill="#0000CC"/>
<path d="M13.8619 15.5339C14.8639 14.6616 16.1975 14.9178 16.9973 15.8705C17.797 14.9178 19.1134 14.6707 20.1326 15.5339C21.1519 16.3971 21.2757 17.8648 20.4888 18.8966C20.0209 19.5101 18.8748 20.6103 18.0226 21.4015C17.6708 21.728 17.4949 21.8913 17.2832 21.9575C17.102 22.0142 16.8925 22.0142 16.7114 21.9575C16.4996 21.8913 16.3237 21.728 15.9719 21.4015C15.1197 20.6103 13.9736 19.5101 13.5057 18.8966C12.7188 17.8648 12.8599 16.4063 13.8619 15.5339Z" fill="#0000CC"/>
</svg>
