<svg width="24" height="24" viewBox="0 0 24 24" fill="none" xmlns="http://www.w3.org/2000/svg">
<path fill-rule="evenodd" clip-rule="evenodd" d="M17.1496 6.04955C17.0343 6.01191 16.8871 6.00019 16.143 6.00019H15V11.0002H20.2768L18.0531 7.10869C17.6839 6.46256 17.6007 6.34058 17.5108 6.25914C17.4065 6.16464 17.2834 6.09322 17.1496 6.04955ZM3 11.0002H7V6.00019H5.2C4.62345 6.00019 4.25117 6.00097 3.96784 6.02412C3.69617 6.04631 3.59546 6.08399 3.54601 6.10919C3.35785 6.20506 3.20487 6.35804 3.109 6.5462C3.0838 6.59565 3.04612 6.69636 3.02393 6.96803C3.00078 7.25136 3 7.62364 3 8.20019V11.0002ZM5.16146 4.00019C4.63431 4.00017 4.17955 4.00016 3.80497 4.03076C3.40963 4.06306 3.01641 4.13438 2.63803 4.32717C2.07354 4.61479 1.6146 5.07373 1.32698 5.63822C1.13419 6.0166 1.06287 6.40982 1.03057 6.80516C0.999967 7.17974 0.999983 7.6345 1 8.16165L1 15.0002C1 16.354 1.89669 17.4983 3.12854 17.8717C3.5019 19.1035 4.64623 20.0002 6 20.0002C7.30622 20.0002 8.41746 19.1654 8.8293 18.0002H15.1707C15.5825 19.1654 16.6938 20.0002 18 20.0002C19.3538 20.0002 20.4981 19.1035 20.8715 17.8717C22.1033 17.4983 23 16.354 23 15.0002V12.85C23 12.8321 23 12.8143 23 12.7966C23.0002 12.5324 23.0003 12.2993 22.9637 12.066C22.9315 11.8606 22.878 11.6592 22.8041 11.465C22.7201 11.2442 22.6043 11.0418 22.4731 10.8125C22.4643 10.7972 22.4555 10.7818 22.4466 10.7662L19.7896 6.11641C19.7701 6.08233 19.7509 6.04852 19.7317 6.01498C19.4546 5.52854 19.2107 5.10051 18.8537 4.77703C18.5408 4.49353 18.1716 4.27927 17.7702 4.14826C17.3122 3.99878 16.8196 3.99939 16.2597 4.00009C16.2211 4.00014 16.1822 4.00019 16.143 4.00019L5.16146 4.00019ZM9 6.00019V11.0002H13V6.00019H9ZM6 16.0002C5.44772 16.0002 5 16.4479 5 17.0002C5 17.5525 5.44772 18.0002 6 18.0002C6.55229 18.0002 7 17.5525 7 17.0002C7 16.4479 6.55229 16.0002 6 16.0002ZM18 16.0002C17.4477 16.0002 17 16.4479 17 17.0002C17 17.5525 17.4477 18.0002 18 18.0002C18.5523 18.0002 19 17.5525 19 17.0002C19 16.4479 18.5523 16.0002 18 16.0002Z" fill="#0000CC"/>
</svg>
