<svg width="24" height="24" viewBox="0 0 24 24" fill="none" xmlns="http://www.w3.org/2000/svg">
<path fill-rule="evenodd" clip-rule="evenodd" d="M12.8385 5H6.16146C5.63433 4.99998 5.17954 4.99997 4.80497 5.03057C4.40963 5.06287 4.01641 5.13419 3.63803 5.32698C3.07354 5.6146 2.6146 6.07354 2.32698 6.63803C2.13419 7.01641 2.06287 7.40963 2.03057 7.80497C1.99997 8.17954 1.99998 8.63429 2 9.16142V14.8385C1.99998 15.3657 1.99997 15.8205 2.03057 16.195C2.06287 16.5904 2.13419 16.9836 2.32698 17.362C2.6146 17.9265 3.07354 18.3854 3.63803 18.673C4.01641 18.8658 4.40963 18.9371 4.80497 18.9694C5.17954 19 5.6343 19 6.16145 19H12.8385C13.3657 19 13.8205 19 14.195 18.9694C14.5904 18.9371 14.9836 18.8658 15.362 18.673C15.9265 18.3854 16.3854 17.9265 16.673 17.362C16.8658 16.9836 16.9371 16.5904 16.9694 16.195C16.9804 16.0607 16.9874 15.916 16.992 15.7614L18.0988 16.4255C18.464 16.6446 18.795 16.8432 19.0759 16.9786C19.3603 17.1156 19.7446 17.2663 20.1856 17.2252C20.7547 17.1721 21.2738 16.8782 21.6121 16.4175C21.8742 16.0605 21.9427 15.6535 21.9716 15.339C22.0001 15.0286 22 14.6425 22 14.2167V9.78345C22 9.35758 22.0001 8.97144 21.9716 8.66096C21.9427 8.34653 21.8742 7.93946 21.6121 7.58247C21.2738 7.12181 20.7547 6.82787 20.1856 6.77483C19.7446 6.73372 19.3603 6.88441 19.0759 7.02144C18.795 7.15677 18.4639 7.35541 18.0987 7.57456L16.992 8.23864C16.9874 8.08401 16.9804 7.93933 16.9694 7.80497C16.9371 7.40963 16.8658 7.01641 16.673 6.63803C16.3854 6.07354 15.9265 5.6146 15.362 5.32698C14.9836 5.13419 14.5904 5.06287 14.195 5.03057C13.8205 4.99997 13.3657 4.99998 12.8385 5ZM13.2071 8.29289C13.5976 8.68342 13.5976 9.31658 13.2071 9.70711L8.91421 14H10.5C11.0523 14 11.5 14.4477 11.5 15C11.5 15.5523 11.0523 16 10.5 16H6.5C5.94772 16 5.5 15.5523 5.5 15V11C5.5 10.4477 5.94772 10 6.5 10C7.05229 10 7.5 10.4477 7.5 11V12.5858L11.7929 8.29289C12.1834 7.90237 12.8166 7.90237 13.2071 8.29289Z" fill="#0000CC"/>
</svg>
