<svg width="24" height="24" viewBox="0 0 24 24" fill="none" xmlns="http://www.w3.org/2000/svg">
<path fill-rule="evenodd" clip-rule="evenodd" d="M6.16146 5H12.8385C13.3657 4.99998 13.8205 4.99997 14.195 5.03057C14.5904 5.06287 14.9836 5.13419 15.362 5.32698C15.9265 5.6146 16.3854 6.07354 16.673 6.63803C16.8658 7.01641 16.9371 7.40963 16.9694 7.80497C16.9804 7.93933 16.9874 8.08401 16.992 8.23864L18.0987 7.57456C18.4639 7.35541 18.795 7.15677 19.0759 7.02144C19.3603 6.88441 19.7446 6.73372 20.1856 6.77482C20.7547 6.82787 21.2738 7.12181 21.6121 7.58247C21.8742 7.93946 21.9427 8.34653 21.9716 8.66096C22.0001 8.97147 22 9.35753 22 9.78344V14.2166C22 14.6425 22.0001 15.0285 21.9716 15.339C21.9427 15.6535 21.8742 16.0605 21.6121 16.4175C21.2738 16.8782 20.7547 17.1721 20.1856 17.2252C19.7446 17.2663 19.3603 17.1156 19.0759 16.9786C18.795 16.8432 18.464 16.6446 18.0988 16.4255L16.992 15.7614C16.9874 15.916 16.9804 16.0607 16.9694 16.195C16.9371 16.5904 16.8658 16.9836 16.673 17.362C16.3854 17.9265 15.9265 18.3854 15.362 18.673C14.9836 18.8658 14.5904 18.9371 14.195 18.9694C13.8205 19 13.3657 19 12.8385 19H6.16148C5.63432 19 5.17955 19 4.80497 18.9694C4.40963 18.9371 4.01641 18.8658 3.63803 18.673C3.07354 18.3854 2.6146 17.9265 2.32698 17.362C2.13419 16.9836 2.06287 16.5904 2.03057 16.195C1.99997 15.8205 1.99998 15.3657 2 14.8385V9.16146C1.99998 8.63431 1.99997 8.17955 2.03057 7.80497C2.06287 7.40963 2.13419 7.01641 2.32698 6.63803C2.6146 6.07354 3.07354 5.6146 3.63803 5.32698C4.01641 5.13419 4.40963 5.06287 4.80497 5.03057C5.17955 4.99997 5.63431 4.99998 6.16146 5Z" fill="#0000CC"/>
</svg>
