<svg width="24" height="24" viewBox="0 0 24 24" fill="none" xmlns="http://www.w3.org/2000/svg">
<path d="M3.70711 2.29289C3.31658 1.90237 2.68342 1.90237 2.29289 2.29289C1.90237 2.68342 1.90237 3.31658 2.29289 3.70711L3.82677 5.24098C3.76349 5.26658 3.70056 5.29512 3.63803 5.32698C3.07355 5.6146 2.6146 6.07354 2.32698 6.63803C2.13419 7.01641 2.06287 7.40963 2.03057 7.80497C1.99997 8.17953 1.99998 8.63426 2 9.16138V14.8385C1.99998 15.3657 1.99997 15.8205 2.03057 16.195C2.06287 16.5904 2.13419 16.9836 2.32698 17.362C2.6146 17.9265 3.07355 18.3854 3.63803 18.673C4.01641 18.8658 4.40963 18.9371 4.80498 18.9694C5.17953 19 5.63427 19 6.16138 19H12.8385C13.3656 19 13.8205 19 14.195 18.9694C14.5904 18.9371 14.9836 18.8658 15.362 18.673C15.7691 18.4656 16.1213 18.1691 16.3939 17.8081L20.2929 21.7071C20.6834 22.0976 21.3166 22.0976 21.7071 21.7071C22.0976 21.3166 22.0976 20.6834 21.7071 20.2929L3.70711 2.29289Z" fill="#0000CC"/>
<path d="M21.6121 16.4175C21.4756 16.6034 21.3097 16.7621 21.123 16.8888L9.23422 5H12.8386C13.3657 4.99998 13.8205 4.99997 14.195 5.03057C14.5904 5.06287 14.9836 5.13419 15.362 5.32698C15.9265 5.6146 16.3854 6.07354 16.673 6.63803C16.8658 7.01641 16.9371 7.40963 16.9694 7.80497C16.9804 7.93933 16.9874 8.08401 16.992 8.23864L18.0987 7.57456C18.4639 7.35541 18.795 7.15677 19.0759 7.02144C19.3603 6.88441 19.7446 6.73372 20.1856 6.77483C20.7547 6.82787 21.2738 7.12181 21.6121 7.58247C21.8742 7.93946 21.9427 8.34653 21.9716 8.66096C22.0001 8.97142 22 9.35751 22 9.78334V14.2167C22 14.6425 22.0001 15.0286 21.9716 15.339C21.9427 15.6535 21.8742 16.0605 21.6121 16.4175Z" fill="#0000CC"/>
</svg>
