<svg width="24" height="24" viewBox="0 0 24 24" fill="none" xmlns="http://www.w3.org/2000/svg">
<path fill-rule="evenodd" clip-rule="evenodd" d="M12.6137 3.37605C12.9217 3.71738 12.9638 4.14875 12.9803 4.34071C13.0001 4.57208 13 4.86416 13 5.17105V18.8287C13 19.1355 13.0001 19.4276 12.9803 19.659C12.9638 19.851 12.9217 20.2823 12.6137 20.6237C12.2792 20.9944 11.7821 21.1744 11.2877 21.1037C10.8326 21.0387 10.5241 20.7343 10.3885 20.5973C10.2252 20.4322 10.0382 20.2078 9.84179 19.972L7.19129 16.7914C6.80395 16.3266 6.72156 16.2403 6.63878 16.1821C6.54301 16.1147 6.43614 16.0646 6.32306 16.0342C6.2253 16.0079 6.10625 15.9999 5.50121 15.9999L4.56812 15.9999C4.31574 15.9999 4.06994 15.9999 3.86178 15.9829C3.63318 15.9642 3.36345 15.9202 3.09202 15.7819C2.7157 15.5901 2.40974 15.2842 2.21799 14.9078C2.0797 14.6364 2.03563 14.3667 2.01695 14.1381C1.99994 13.9299 1.99997 13.6841 2 13.4318L2.00001 10.5999C2.00001 10.5892 2 10.5786 2 10.568C1.99997 10.3156 1.99994 10.0698 2.01695 9.86162C2.03563 9.63303 2.07969 9.3633 2.21799 9.09187C2.40974 8.71555 2.7157 8.40959 3.09202 8.21784C3.36345 8.07954 3.63318 8.03548 3.86178 8.0168C4.06993 7.99979 4.31572 7.99982 4.56811 7.99985C4.57873 7.99985 4.58936 7.99985 4.60001 7.99985H5.50121C6.10625 7.99985 6.2253 7.99182 6.32306 7.96552C6.43614 7.93509 6.54301 7.88504 6.63878 7.81764C6.72156 7.75938 6.80395 7.67307 7.19129 7.20826L9.84182 4.02762C10.0383 3.79184 10.2252 3.56744 10.3886 3.40238C10.5241 3.26544 10.8326 2.96104 11.2877 2.89598C11.7821 2.8253 12.2792 3.00528 12.6137 3.37605ZM15 11.9999C15 11.4476 15.4477 10.9999 16 10.9999H22C22.5523 10.9999 23 11.4476 23 11.9999C23 12.5521 22.5523 12.9999 22 12.9999H16C15.4477 12.9999 15 12.5521 15 11.9999Z" fill="#0000CC"/>
</svg>
