<svg width="24" height="24" viewBox="0 0 24 24" fill="none" xmlns="http://www.w3.org/2000/svg">
<path fill-rule="evenodd" clip-rule="evenodd" d="M6.16184 3H19.0004C19.5527 3 20.0004 3.44772 20.0004 4C20.0004 4.55229 19.5527 5 19.0004 5H6.20038C5.62383 5 5.25156 5.00078 4.96822 5.02393C4.69656 5.04613 4.59584 5.0838 4.54639 5.109C4.35823 5.20487 4.20525 5.35785 4.10938 5.54601C4.08418 5.59546 4.04651 5.69618 4.02431 5.96784C4.00395 6.21698 4.0009 6.5349 4.00046 7H17.2004C18.8805 7 19.7206 7 20.3624 7.32698C20.9268 7.6146 21.3858 8.07354 21.6734 8.63803C22.0004 9.27977 22.0004 10.1198 22.0004 11.8V16.2C22.0004 17.8802 22.0004 18.7202 21.6734 19.362C21.3858 19.9265 20.9268 20.3854 20.3624 20.673C19.7206 21 18.8805 21 17.2004 21H6.80038C5.12022 21 4.28015 21 3.63841 20.673C3.07392 20.3854 2.61498 19.9265 2.32736 19.362C2.00038 18.7202 2.00038 17.8802 2.00038 16.2C2.00038 15.1888 2.00029 14.1777 2.00019 13.1665C2 11.111 1.9998 9.0555 2.00041 7C2.00069 6.54097 2.00352 6.14075 2.03095 5.80498C2.06325 5.40963 2.13457 5.01641 2.32736 4.63803C2.61498 4.07355 3.07393 3.6146 3.63841 3.32698C4.01679 3.13419 4.41001 3.06287 4.80536 3.03057C5.17991 2.99997 5.63472 2.99998 6.16184 3ZM20.0005 14C20.0005 14.8284 19.3289 15.5 18.5005 15.5C17.6721 15.5 17.0005 14.8284 17.0005 14C17.0005 13.1716 17.6721 12.5 18.5005 12.5C19.3289 12.5 20.0005 13.1716 20.0005 14Z" fill="#0000CC"/>
</svg>
