<svg width="24" height="24" viewBox="0 0 24 24" fill="none" xmlns="http://www.w3.org/2000/svg">
<path fill-rule="evenodd" clip-rule="evenodd" d="M6.16146 3H14.8385C15.3657 2.99998 15.8205 2.99997 16.195 3.03057C16.5904 3.06287 16.9836 3.13419 17.362 3.32698C17.9265 3.6146 18.3854 4.07355 18.673 4.63803C18.8658 5.01641 18.9371 5.40963 18.9694 5.80498C18.9972 6.14504 18.9998 6.5512 19 7.01762C19.0672 7.02118 19.1323 7.02544 19.195 7.03057C19.5904 7.06287 19.9836 7.13419 20.362 7.32698C20.9265 7.6146 21.3854 8.07355 21.673 8.63803C21.8658 9.01641 21.9371 9.40963 21.9694 9.80498C22 10.1795 22 10.6343 22 11.1614V16.8386C22 17.3657 22 17.8205 21.9694 18.195C21.9371 18.5904 21.8658 18.9836 21.673 19.362C21.3854 19.9265 20.9265 20.3854 20.362 20.673C19.9836 20.8658 19.5904 20.9371 19.195 20.9694C18.8205 21 18.3657 21 17.8386 21H6.16144C5.6343 21 5.17954 21 4.80498 20.9694C4.40963 20.9371 4.01641 20.8658 3.63803 20.673C3.07355 20.3854 2.6146 19.9265 2.32698 19.362C2.13419 18.9836 2.06287 18.5904 2.03057 18.195C1.99997 17.8205 1.99998 17.3657 2 16.8386V7.16142C1.99998 6.63431 1.99997 6.17953 2.03057 5.80498C2.06287 5.40963 2.13419 5.01641 2.32698 4.63803C2.6146 4.07355 3.07355 3.6146 3.63803 3.32698C4.01641 3.13419 4.40963 3.06287 4.80498 3.03057C5.17953 2.99997 5.63434 2.99998 6.16146 3ZM16.9999 7C16.9995 6.5349 16.9964 6.21699 16.9761 5.96784C16.9539 5.69618 16.9162 5.59546 16.891 5.54601C16.7951 5.35785 16.6422 5.20487 16.454 5.109C16.4046 5.0838 16.3038 5.04613 16.0322 5.02393C15.7488 5.00078 15.3766 5 14.8 5H6.2C5.62345 5 5.25118 5.00078 4.96784 5.02393C4.69618 5.04613 4.59546 5.0838 4.54601 5.109C4.35785 5.20487 4.20487 5.35785 4.109 5.54601C4.0838 5.59546 4.04613 5.69618 4.02393 5.96784C4.00357 6.21699 4.00052 6.5349 4.00008 7H16.9999ZM16 14C16 13.1716 16.6716 12.5 17.5 12.5H20V15.5H17.5C16.6716 15.5 16 14.8284 16 14ZM10 12C10 11.4477 9.55229 11 9 11C8.44772 11 8 11.4477 8 12V13.0001L7.00014 13C6.44785 12.9999 6.00008 13.4476 6 13.9999C5.99993 14.5521 6.44758 14.9999 6.99986 15L8 15.0001V16C8 16.5523 8.44772 17 9 17C9.55229 17 10 16.5523 10 16V15.0004L10.9999 15.0005C11.5521 15.0006 11.9999 14.553 12 14.0007C12.0001 13.4484 11.5524 13.0006 11.0001 13.0005L10 13.0004V12Z" fill="#0000CC"/>
</svg>
