<svg width="24" height="24" viewBox="0 0 24 24" fill="none" xmlns="http://www.w3.org/2000/svg">
<path fill-rule="evenodd" clip-rule="evenodd" d="M21.1966 2.7798L21.2227 2.80588C21.2893 2.87245 21.3697 2.9528 21.4363 3.02891C21.5136 3.11725 21.6172 3.24897 21.6943 3.42842C21.8445 3.77767 21.8564 4.17089 21.7277 4.52859C21.6615 4.71238 21.566 4.85013 21.4943 4.94298C21.4324 5.02293 21.3571 5.1079 21.2947 5.17835L18.9793 7.79251C18.9934 7.85944 19.0008 7.92882 19.0008 7.99994V9.99994C19.0008 10.5522 18.5531 10.9999 18.0008 10.9999H16.1384L7.35627 20.9153C7.17927 21.1152 7.008 21.3086 6.84996 21.4595C6.6774 21.6244 6.45492 21.8047 6.15647 21.9158C5.74515 22.069 5.29486 22.0826 4.87503 21.9546C4.5704 21.8617 4.33742 21.6952 4.1552 21.5411C3.98832 21.4 3.80566 21.2173 3.61688 21.0285L2.97405 20.3856C2.78522 20.1969 2.60252 20.0142 2.4614 19.8473C2.30731 19.6651 2.14081 19.4321 2.04792 19.1275C1.91988 18.7077 1.93352 18.2574 2.08671 17.8461C2.19787 17.5476 2.37816 17.3251 2.54299 17.1526C2.69393 16.9945 2.88735 16.8233 3.08724 16.6463L6.00284 14.0639C6.00151 14.0427 6.00084 14.0214 6.00084 13.9999V11.9999C6.00084 11.4477 6.44855 10.9999 7.00084 10.9999H9.00084C9.13455 10.9999 9.26213 11.0262 9.37871 11.0738L18.824 2.70797C18.8945 2.64552 18.9796 2.57011 19.0595 2.50826C19.1524 2.43647 19.2901 2.341 19.4739 2.27487C19.8316 2.14616 20.2248 2.15807 20.5741 2.30818C20.7536 2.38531 20.8853 2.48894 20.9736 2.56621C21.0497 2.63281 21.1301 2.71319 21.1966 2.7798Z" fill="#0000CC"/>
<path d="M18.0008 14.9999C18.5531 14.9999 19.0008 15.4477 19.0008 15.9999V16.9999H20.0008C20.5531 16.9999 21.0008 17.4477 21.0008 17.9999C21.0008 18.5522 20.5531 18.9999 20.0008 18.9999H19.0008V19.9999C19.0008 20.5522 18.5531 20.9999 18.0008 20.9999C17.4486 20.9999 17.0008 20.5522 17.0008 19.9999V18.9999H16.0008C15.4486 18.9999 15.0008 18.5522 15.0008 17.9999C15.0008 17.4477 15.4486 16.9999 16.0008 16.9999H17.0008V15.9999C17.0008 15.4477 17.4486 14.9999 18.0008 14.9999Z" fill="#0000CC"/>
<path d="M7.00084 3.99994C7.00084 3.44766 6.55312 2.99994 6.00084 2.99994C5.44855 2.99994 5.00083 3.44766 5.00083 3.99994V4.99994H4.00083C3.44855 4.99994 3.00083 5.44766 3.00083 5.99994C3.00083 6.55223 3.44855 6.99994 4.00083 6.99994H5.00083V7.99994C5.00083 8.55223 5.44855 8.99994 6.00084 8.99994C6.55312 8.99994 7.00084 8.55223 7.00084 7.99994V6.99994H8.00084C8.55312 6.99994 9.00084 6.55223 9.00084 5.99994C9.00084 5.44766 8.55312 4.99994 8.00084 4.99994H7.00084V3.99994Z" fill="#0000CC"/>
</svg>
