<svg width="24" height="24" viewBox="0 0 24 24" fill="none" xmlns="http://www.w3.org/2000/svg">
<path d="M11.0005 2C11.0005 1.44772 10.5528 1 10.0005 1C9.4482 1 9.00049 1.44772 9.00049 2V3H8.00049C7.4482 3 7.00049 3.44772 7.00049 4C7.00049 4.55228 7.4482 5 8.00049 5H9.00049V6C9.00049 6.55228 9.4482 7 10.0005 7C10.5528 7 11.0005 6.55228 11.0005 6V5H12.0005C12.5528 5 13.0005 4.55228 13.0005 4C13.0005 3.44772 12.5528 3 12.0005 3H11.0005V2Z" fill="#0000CC"/>
<path d="M17.7678 2.12694C18.1695 1.99642 18.6022 1.99642 19.0039 2.12694C19.2936 2.22107 19.5155 2.38064 19.6903 2.52908C19.8495 2.66424 20.0233 2.83805 20.2017 3.01652L20.8126 3.62743C20.9911 3.80584 21.1649 3.97959 21.3 4.13878C21.4485 4.31362 21.608 4.53551 21.7022 4.82523C21.8327 5.22692 21.8327 5.65961 21.7022 6.0613C21.608 6.35102 21.4485 6.57291 21.3 6.74776C21.1649 6.90694 20.991 7.08075 20.8126 7.25915L18.184 9.88772L13.8128 5.77364L16.5699 3.01652C16.7484 2.83805 16.9221 2.66423 17.0813 2.52908C17.2562 2.38065 17.4781 2.22107 17.7678 2.12694Z" fill="#0000CC"/>
<path d="M12.398 7.18851L16.7692 11.3026L7.21058 20.8612C7.03216 21.0396 6.85837 21.2135 6.69917 21.3486C6.52432 21.497 6.30243 21.6566 6.01272 21.7507C5.61103 21.8813 5.17834 21.8813 4.77665 21.7507C4.48693 21.6566 4.26504 21.497 4.09019 21.3486C3.93107 21.2135 3.75731 21.0397 3.57898 20.8614L2.96794 20.2503C2.78946 20.0719 2.61565 19.8981 2.48049 19.7389C2.33206 19.5641 2.17249 19.3422 2.07836 19.0525C1.94784 18.6508 1.94784 18.2181 2.07836 17.8164C2.17249 17.5267 2.33206 17.3048 2.48049 17.1299C2.61566 16.9707 2.78949 16.7969 2.96797 16.6185L12.398 7.18851Z" fill="#0000CC"/>
<path d="M6.00058 7.00009C6.00058 6.44781 5.55287 6.00009 5.00058 6.00009C4.4483 6.00009 4.00058 6.44781 4.00058 7.00009V8.00009H3.00058C2.4483 8.00009 2.00058 8.44781 2.00058 9.00009C2.00058 9.55238 2.4483 10.0001 3.00058 10.0001H4.00058V11.0001C4.00058 11.5524 4.4483 12.0001 5.00058 12.0001C5.55287 12.0001 6.00058 11.5524 6.00058 11.0001V10.0001H7.00058C7.55287 10.0001 8.00058 9.55238 8.00058 9.00009C8.00058 8.44781 7.55287 8.00009 7.00058 8.00009H6.00058V7.00009Z" fill="#0000CC"/>
<path d="M18.0006 15.0001C18.5529 15.0001 19.0006 15.4478 19.0006 16.0001V17.0001H20.0006C20.5529 17.0001 21.0006 17.4478 21.0006 18.0001C21.0006 18.5524 20.5529 19.0001 20.0006 19.0001H19.0006V20.0001C19.0006 20.5524 18.5529 21.0001 18.0006 21.0001C17.4483 21.0001 17.0006 20.5524 17.0006 20.0001V19.0001H16.0006C15.4483 19.0001 15.0006 18.5524 15.0006 18.0001C15.0006 17.4478 15.4483 17.0001 16.0006 17.0001H17.0006V16.0001C17.0006 15.4478 17.4483 15.0001 18.0006 15.0001Z" fill="#0000CC"/>
</svg>
