<svg width="24" height="24" viewBox="0 0 24 24" fill="none" xmlns="http://www.w3.org/2000/svg">
<path fill-rule="evenodd" clip-rule="evenodd" d="M21.1947 2.7798L21.2208 2.80588C21.2874 2.87245 21.3678 2.9528 21.4344 3.02891C21.5116 3.11725 21.6153 3.24897 21.6924 3.42842C21.8425 3.77767 21.8544 4.17089 21.7257 4.52859C21.6596 4.71238 21.5641 4.85013 21.4923 4.94298C21.4305 5.02294 21.3552 5.10792 21.2927 5.17837L18.9789 7.79073C18.9933 7.8582 19.0008 7.92819 19.0008 7.99994V9.99994C19.0008 10.5522 18.5531 10.9999 18.0008 10.9999H16.1365L7.35432 20.9153C7.17731 21.1152 7.00604 21.3086 6.84801 21.4595C6.67545 21.6244 6.45297 21.8047 6.15452 21.9158C5.7432 22.069 5.29291 22.0826 4.87307 21.9546C4.56845 21.8617 4.33547 21.6952 4.15325 21.5411C3.98637 21.4 3.8037 21.2173 3.61493 21.0285L2.97209 20.3856C2.78327 20.1969 2.60057 20.0142 2.45945 19.8473C2.30536 19.6651 2.13886 19.4321 2.04596 19.1275C1.91793 18.7077 1.93156 18.2574 2.08476 17.8461C2.19591 17.5476 2.3762 17.3251 2.54103 17.1526C2.69198 16.9945 2.88539 16.8233 3.08528 16.6463L6.00274 14.0622C6.00148 14.0416 6.00084 14.0209 6.00084 13.9999V11.9999C6.00084 11.4477 6.44855 10.9999 7.00084 10.9999H9.00084C9.13404 10.9999 9.26115 11.026 9.37738 11.0733L18.8221 2.70797C18.8925 2.64552 18.9776 2.57011 19.0576 2.50826C19.1504 2.43647 19.2882 2.341 19.472 2.27487C19.8297 2.14616 20.2229 2.15807 20.5721 2.30818C20.7516 2.38531 20.8833 2.48894 20.9717 2.56621C21.0478 2.63281 21.1281 2.71319 21.1947 2.7798Z" fill="#0000CC"/>
</svg>
