<svg width="24" height="24" viewBox="0 0 24 24" fill="none" xmlns="http://www.w3.org/2000/svg">
<path d="M9.85337 3.07321L4.65338 5.67321C3.69021 6.1548 3.2086 6.39561 2.85675 6.75485C2.5456 7.07253 2.30896 7.45542 2.16396 7.87579C2 8.35116 2 8.88959 2 9.96646V20.3999C2 20.96 2 21.24 2.10899 21.4539C2.20487 21.6421 2.35785 21.795 2.54601 21.8909C2.75992 21.9999 3.03995 21.9999 3.6 21.9999H6.00001L6 11.568C5.99997 11.3156 5.99994 11.0698 6.01695 10.8617C6.03563 10.6331 6.07969 10.3633 6.21799 10.0919C6.40974 9.7156 6.7157 9.40964 7.09202 9.21789C7.36345 9.0796 7.63318 9.03553 7.86178 9.01685C8.06992 8.99985 8.3157 8.99987 8.56807 8.9999H15.4319C15.6843 8.99987 15.9301 8.99985 16.1382 9.01685C16.3668 9.03553 16.6366 9.0796 16.908 9.21789C17.2843 9.40964 17.5903 9.7156 17.782 10.0919C17.9203 10.3633 17.9644 10.6331 17.9831 10.8617C18.0001 11.0698 18 11.3156 18 11.568L18 21.9999H20.4C20.9601 21.9999 21.2401 21.9999 21.454 21.8909C21.6422 21.795 21.7951 21.6421 21.891 21.4539C22 21.24 22 20.96 22 20.3999V9.96646C22 8.88959 22 8.35116 21.836 7.87579C21.691 7.45542 21.4544 7.07253 21.1433 6.75485C20.7914 6.3956 20.3098 6.15481 19.3466 5.67321L14.1466 3.07322C13.3595 2.67967 12.966 2.48289 12.5532 2.40545C12.1876 2.33686 11.8124 2.33686 11.4468 2.40545C11.034 2.48289 10.6405 2.67967 9.85337 3.07321Z" fill="#0000CC"/>
<path d="M8.0545 11.273C8 11.38 8 11.52 8 11.8V14H16V11.8C16 11.52 16 11.38 15.9455 11.273C15.8976 11.1789 15.8211 11.1024 15.727 11.0545C15.62 11 15.48 11 15.2 11H8.8C8.51997 11 8.37996 11 8.273 11.0545C8.17892 11.1024 8.10243 11.1789 8.0545 11.273Z" fill="#0000CC"/>
<path d="M16 16H8V22H16V16Z" fill="#0000CC"/>
</svg>
