<svg width="24" height="24" viewBox="0 0 24 24" fill="none" xmlns="http://www.w3.org/2000/svg">
<path d="M4.65338 5.67321L9.85337 3.07321C10.6405 2.67967 11.034 2.48289 11.4468 2.40545C11.8124 2.33686 12.1876 2.33686 12.5532 2.40545C12.966 2.48289 13.3595 2.67967 14.1466 3.07322L19.3466 5.67321C20.3098 6.15481 20.7914 6.3956 21.1433 6.75485C21.4544 7.07253 21.691 7.45542 21.836 7.87579C22 8.35116 22 8.88959 22 9.96646V20.3999C22 20.96 22 21.24 21.891 21.4539C21.7951 21.6421 21.6422 21.795 21.454 21.8909C21.2401 21.9999 20.9601 21.9999 20.4 21.9999H18L18 11.568C18 11.3156 18.0001 11.0698 17.9831 10.8617C17.9644 10.6331 17.9203 10.3633 17.782 10.0919C17.5903 9.7156 17.2843 9.40964 16.908 9.21789C16.6366 9.0796 16.3668 9.03553 16.1382 9.01685C15.9301 8.99985 15.6843 8.99987 15.4319 8.9999H8.56807C8.3157 8.99987 8.06992 8.99985 7.86178 9.01685C7.63318 9.03553 7.36345 9.0796 7.09202 9.21789C6.7157 9.40964 6.40974 9.7156 6.21799 10.0919C6.07969 10.3633 6.03563 10.6331 6.01695 10.8617C5.99994 11.0698 5.99997 11.3156 6 11.568L6.00001 21.9999H3.6C3.03995 21.9999 2.75992 21.9999 2.54601 21.8909C2.35785 21.795 2.20487 21.6421 2.10899 21.4539C2 21.24 2 20.96 2 20.3999V9.96646C2 8.88959 2 8.35116 2.16396 7.87579C2.30896 7.45542 2.5456 7.07253 2.85675 6.75485C3.2086 6.3956 3.6902 6.1548 4.65338 5.67321Z" fill="#0000CC"/>
<path fill-rule="evenodd" clip-rule="evenodd" d="M8 11.8C8 11.52 8 11.38 8.0545 11.273C8.10243 11.1789 8.17892 11.1024 8.273 11.0545C8.37996 11 8.51997 11 8.8 11H15.2C15.48 11 15.62 11 15.727 11.0545C15.8211 11.1024 15.8976 11.1789 15.9455 11.273C16 11.38 16 11.52 16 11.8V21.2C16 21.48 16 21.62 15.9455 21.727C15.8976 21.8211 15.8211 21.8976 15.727 21.9455C15.62 22 15.48 22 15.2 22H8.8C8.51997 22 8.37996 22 8.273 21.9455C8.17892 21.8976 8.10243 21.8211 8.0545 21.727C8 21.62 8 21.48 8 21.2V11.8ZM11 13C10.4477 13 10 13.4477 10 14C10 14.5523 10.4477 15 11 15H13C13.5523 15 14 14.5523 14 14C14 13.4477 13.5523 13 13 13H11ZM11 17C10.4477 17 10 17.4477 10 18C10 18.5523 10.4477 19 11 19H13C13.5523 19 14 18.5523 14 18C14 17.4477 13.5523 17 13 17H11Z" fill="#0000CC"/>
</svg>
