<svg width="24" height="24" viewBox="0 0 24 24" fill="none" xmlns="http://www.w3.org/2000/svg">
<path fill-rule="evenodd" clip-rule="evenodd" d="M12 2C12.5523 2 13 2.44772 13 3V8.58579L14.2929 7.29289C14.6834 6.90237 15.3166 6.90237 15.7071 7.29289C16.0976 7.68342 16.0976 8.31658 15.7071 8.70711L12.7071 11.7071C12.3166 12.0976 11.6834 12.0976 11.2929 11.7071L8.29289 8.70711C7.90237 8.31658 7.90237 7.68342 8.29289 7.29289C8.68342 6.90237 9.31658 6.90237 9.70711 7.29289L11 8.58579V3C11 2.44772 11.4477 2 12 2ZM9.75 15C9.21485 15 8.70163 15.2126 8.32322 15.591L8.09099 15.8232C7.33751 16.5767 6.31558 17 5.25 17C4.18442 17 3.16249 16.5767 2.40901 15.8232L1.79289 15.2071C1.40237 14.8166 1.40237 14.1834 1.79289 13.7929C2.18342 13.4024 2.81658 13.4024 3.20711 13.7929L3.82322 14.409C4.20163 14.7874 4.71486 15 5.25 15C5.78514 15 6.29837 14.7874 6.67678 14.409L6.90901 14.1768C7.66249 13.4233 8.68442 13 9.75 13C10.8156 13 11.8375 13.4233 12.591 14.1768L12.8232 14.409C13.2016 14.7874 13.7149 15 14.25 15C14.7851 15 15.2984 14.7874 15.6768 14.409L15.909 14.1768C16.6625 13.4233 17.6844 13 18.75 13C19.8156 13 20.8375 13.4233 21.591 14.1768L22.2071 14.7929C22.5976 15.1834 22.5976 15.8166 22.2071 16.2071C21.8166 16.5976 21.1834 16.5976 20.7929 16.2071L20.1768 15.591C19.7984 15.2126 19.2851 15 18.75 15C18.2149 15 17.7016 15.2126 17.3232 15.591L17.091 15.8232C16.3375 16.5767 15.3156 17 14.25 17C13.1844 17 12.1625 16.5767 11.409 15.8232L11.1768 15.591C10.7984 15.2126 10.2851 15 9.75 15ZM9.75 20C9.21485 20 8.70163 20.2126 8.32322 20.591L8.09099 20.8232C7.33751 21.5767 6.31558 22 5.25 22C4.18442 22 3.16249 21.5767 2.40901 20.8232L1.79289 20.2071C1.40237 19.8166 1.40237 19.1834 1.79289 18.7929C2.18342 18.4024 2.81658 18.4024 3.20711 18.7929L3.82322 19.409C4.20163 19.7874 4.71486 20 5.25 20C5.78514 20 6.29837 19.7874 6.67678 19.409L6.90901 19.1768C7.66249 18.4233 8.68442 18 9.75 18C10.8156 18 11.8375 18.4233 12.591 19.1768L12.8232 19.409C13.2016 19.7874 13.7149 20 14.25 20C14.7851 20 15.2984 19.7874 15.6768 19.409L15.909 19.1768C16.6625 18.4233 17.6844 18 18.75 18C19.8156 18 20.8375 18.4233 21.591 19.1768L22.2071 19.7929C22.5976 20.1834 22.5976 20.8166 22.2071 21.2071C21.8166 21.5976 21.1834 21.5976 20.7929 21.2071L20.1768 20.591C19.7984 20.2126 19.2851 20 18.75 20C18.2149 20 17.7016 20.2126 17.3232 20.591L17.091 20.8232C16.3375 21.5767 15.3156 22 14.25 22C13.1844 22 12.1625 21.5767 11.409 20.8232L11.1768 20.591C10.7984 20.2126 10.2851 20 9.75 20Z" fill="#0000CC"/>
</svg>
