<svg width="24" height="24" viewBox="0 0 24 24" fill="none" xmlns="http://www.w3.org/2000/svg">
<path fill-rule="evenodd" clip-rule="evenodd" d="M12 4C10.0657 4 8.45005 5.374 8.07985 7.19981C8.0276 7.45754 8 7.72503 8 8C8 10.2091 9.79086 12 12 12C14.2091 12 16 10.2091 16 8C16 7.72503 15.9724 7.45754 15.9201 7.19981C15.55 5.374 13.9343 4 12 4ZM6.3375 6.01196C7.15793 3.67541 9.3824 2 12 2C14.6176 2 16.8421 3.67541 17.6625 6.01196C18.4948 6.03702 19.1996 6.1219 19.816 6.43597C20.5686 6.81947 21.1805 7.43139 21.564 8.18404C21.8113 8.66937 21.9099 9.18608 21.9558 9.74817C22 10.2894 22 10.9537 22 11.7587V16.2413C22 17.0463 22 17.7106 21.9558 18.2518C21.9099 18.8139 21.8113 19.3306 21.564 19.816C21.1805 20.5686 20.5686 21.1805 19.816 21.564C19.3306 21.8113 18.8139 21.9099 18.2518 21.9558C17.7106 22 17.0463 22 16.2413 22H7.75868C6.95372 22 6.28936 22 5.74817 21.9558C5.18608 21.9099 4.66937 21.8113 4.18404 21.564C3.43139 21.1805 2.81947 20.5686 2.43597 19.816C2.18868 19.3306 2.09012 18.8139 2.04419 18.2518C1.99998 17.7106 1.99999 17.0463 2 16.2413V11.7587C1.99999 10.9537 1.99998 10.2894 2.04419 9.74817C2.09012 9.18608 2.18868 8.66937 2.43597 8.18404C2.81947 7.43139 3.43139 6.81947 4.18404 6.43597C4.80044 6.1219 5.5052 6.03702 6.3375 6.01196ZM13.4472 5.10557C13.9412 5.35256 14.1414 5.95324 13.8944 6.44721L12.8944 8.44721C12.6474 8.94119 12.0468 9.14142 11.5528 8.89443C11.0588 8.64744 10.8586 8.04676 11.1056 7.55279L12.1056 5.55279C12.3526 5.05881 12.9532 4.85858 13.4472 5.10557Z" fill="#0000CC"/>
</svg>
