<svg width="24" height="24" viewBox="0 0 24 24" fill="none" xmlns="http://www.w3.org/2000/svg">
<path fill-rule="evenodd" clip-rule="evenodd" d="M12.0002 11C9.66837 11 7.54566 11.8855 5.94633 13.3403C5.53778 13.7119 4.90533 13.682 4.5337 13.2734C4.16207 12.8649 4.19201 12.2324 4.60056 11.8608C6.55366 10.0842 9.15149 9 12.0002 9C14.849 9 17.4468 10.0842 19.3999 11.8608C19.8084 12.2324 19.8384 12.8649 19.4667 13.2734C19.0951 13.682 18.4627 13.7119 18.0541 13.3403C16.4548 11.8855 14.3321 11 12.0002 11ZM12.0002 16C10.9635 16 10.0209 16.3931 9.30972 17.04C8.90117 17.4116 8.26871 17.3817 7.89709 16.9732C7.52546 16.5646 7.55539 15.9322 7.96394 15.5605C9.02894 14.5918 10.4466 14 12.0002 14C13.5538 14 14.9715 14.5918 16.0365 15.5605C16.445 15.9322 16.475 16.5646 16.1034 16.9732C15.7317 17.3817 15.0993 17.4116 14.6907 17.04C13.9795 16.3931 13.0369 16 12.0002 16ZM11.0002 20C11.0002 19.4477 11.4479 19 12.0002 19H12.0102C12.5625 19 13.0102 19.4477 13.0102 20C13.0102 20.5523 12.5625 21 12.0102 21H12.0002C11.4479 21 11.0002 20.5523 11.0002 20Z" fill="#0000CC"/>
</svg>
