<svg width="24" height="24" viewBox="0 0 24 24" fill="none" xmlns="http://www.w3.org/2000/svg">
<path fill-rule="evenodd" clip-rule="evenodd" d="M12 6C8.41372 6 5.14445 7.34716 2.66692 9.5646C2.2554 9.93293 1.6232 9.89791 1.25487 9.48638C0.886548 9.07485 0.921569 8.44266 1.3331 8.07433C4.16313 5.54138 7.90276 4 12 4C16.0973 4 19.8369 5.54138 22.6669 8.07433C23.0784 8.44266 23.1135 9.07485 22.7451 9.48638C22.3768 9.89791 21.7446 9.93293 21.3331 9.5646C18.8556 7.34716 15.5863 6 12 6ZM12 11C9.66816 11 7.54545 11.8855 5.94612 13.3403C5.53757 13.7119 4.90512 13.682 4.53349 13.2734C4.16186 12.8649 4.1918 12.2324 4.60035 11.8608C6.55345 10.0842 9.15128 9 12 9C14.8487 9 17.4466 10.0842 19.3997 11.8608C19.8082 12.2324 19.8382 12.8649 19.4665 13.2734C19.0949 13.682 18.4624 13.7119 18.0539 13.3403C16.4546 11.8855 14.3319 11 12 11ZM12 16C10.9633 16 10.0207 16.3931 9.30951 17.04C8.90096 17.4116 8.26851 17.3817 7.89688 16.9732C7.52525 16.5646 7.55518 15.9322 7.96373 15.5605C9.02873 14.5918 10.4464 14 12 14C13.5536 14 14.9713 14.5918 16.0363 15.5605C16.4448 15.9322 16.4748 16.5646 16.1031 16.9732C15.7315 17.3817 15.0991 17.4116 14.6905 17.04C13.9793 16.3931 13.0367 16 12 16ZM11 20C11 19.4477 11.4477 19 12 19H12.01C12.5623 19 13.01 19.4477 13.01 20C13.01 20.5523 12.5623 21 12.01 21H12C11.4477 21 11 20.5523 11 20Z" fill="#0000CC"/>
</svg>
