<svg width="24" height="24" viewBox="0 0 24 24" fill="none" xmlns="http://www.w3.org/2000/svg">
<path fill-rule="evenodd" clip-rule="evenodd" d="M12.0001 16C10.9634 16 10.0208 16.3931 9.30961 17.04C8.90107 17.4116 8.26861 17.3817 7.89698 16.9732C7.52536 16.5646 7.55529 15.9322 7.96384 15.5605C9.02883 14.5918 10.4465 14 12.0001 14C13.5537 14 14.9714 14.5918 16.0364 15.5605C16.4449 15.9322 16.4749 16.5646 16.1032 16.9732C15.7316 17.3817 15.0992 17.4116 14.6906 17.04C13.9794 16.3931 13.0368 16 12.0001 16ZM11.0001 20C11.0001 19.4477 11.4478 19 12.0001 19H12.0101C12.5624 19 13.0101 19.4477 13.0101 20C13.0101 20.5523 12.5624 21 12.0101 21H12.0001C11.4478 21 11.0001 20.5523 11.0001 20Z" fill="#0000CC"/>
</svg>
