<svg width="24" height="24" viewBox="0 0 24 24" fill="none" xmlns="http://www.w3.org/2000/svg">
<path fill-rule="evenodd" clip-rule="evenodd" d="M21.673 5.63803C22 6.27976 22 7.11984 22 8.8V15.2C22 16.8802 22 17.7202 21.673 18.362C21.3854 18.9265 20.9265 19.3854 20.362 19.673C19.7202 20 18.8802 20 17.2 20H6.8C5.11984 20 4.27976 20 3.63803 19.673C3.07354 19.3854 2.6146 18.9265 2.32698 18.362C2 17.7202 2 16.8802 2 15.2V8.8C2 7.11984 2 6.27976 2.32698 5.63803C2.6146 5.07354 3.07354 4.6146 3.63803 4.32698C4.27976 4 5.11984 4 6.8 4H17.2C18.8802 4 19.7202 4 20.362 4.32698C20.9265 4.6146 21.3854 5.07354 21.673 5.63803ZM19 8C18.4477 8 18 7.55228 18 7C18 6.44772 18.4477 6 19 6C19.5523 6 20 6.44772 20 7C20 7.55228 19.5523 8 19 8ZM15 7C15 7.55228 15.4477 8 16 8C16.5523 8 17 7.55228 17 7C17 6.44772 16.5523 6 16 6C15.4477 6 15 6.44772 15 7ZM13 8C12.4477 8 12 7.55228 12 7C12 6.44772 12.4477 6 13 6C13.5523 6 14 6.44772 14 7C14 7.55228 13.5523 8 13 8Z" fill="#0000CC"/>
</svg>
