<svg width="24" height="24" viewBox="0 0 24 24" fill="none" xmlns="http://www.w3.org/2000/svg">
<path fill-rule="evenodd" clip-rule="evenodd" d="M2.32698 5.63803C2 6.27976 2 7.11984 2 8.8V15.2C2 16.8802 2 17.7202 2.32698 18.362C2.6146 18.9265 3.07354 19.3854 3.63803 19.673C4.27976 20 5.11984 20 6.8 20H17.2C18.8802 20 19.7202 20 20.362 19.673C20.9265 19.3854 21.3854 18.9265 21.673 18.362C22 17.7202 22 16.8802 22 15.2V8.8C22 7.11984 22 6.27976 21.673 5.63803C21.3854 5.07354 20.9265 4.6146 20.362 4.32698C19.7202 4 18.8802 4 17.2 4H6.8C5.11984 4 4.27976 4 3.63803 4.32698C3.07354 4.6146 2.6146 5.07354 2.32698 5.63803ZM5 8C5.55228 8 6 7.55228 6 7C6 6.44772 5.55228 6 5 6C4.44772 6 4 6.44772 4 7C4 7.55228 4.44772 8 5 8ZM9 7C9 7.55228 8.55228 8 8 8C7.44772 8 7 7.55228 7 7C7 6.44772 7.44772 6 8 6C8.55228 6 9 6.44772 9 7ZM11 8C11.5523 8 12 7.55228 12 7C12 6.44772 11.5523 6 11 6C10.4477 6 10 6.44772 10 7C10 7.55228 10.4477 8 11 8Z" fill="#0000CC"/>
</svg>
