<svg width="24" height="24" viewBox="0 0 24 24" fill="none" xmlns="http://www.w3.org/2000/svg">
<path d="M11.9711 9.31263L12 9.28909L12.0289 9.31263C12.25 9.49246 12.5373 9.56943 12.8186 9.52423L12.8555 9.51831L12.8687 9.55316C12.9703 9.81943 13.1806 10.0297 13.4468 10.1313L13.4817 10.1445L13.4758 10.1814C13.4306 10.4627 13.5075 10.75 13.6874 10.9711L13.7109 11L13.6874 11.0289C13.5075 11.25 13.4306 11.5373 13.4758 11.8186L13.4817 11.8555L13.4468 11.8687C13.1806 11.9703 12.9703 12.1806 12.8687 12.4468L12.8555 12.4817L12.8186 12.4758C12.5373 12.4306 12.25 12.5075 12.0289 12.6874L12 12.7109L11.9711 12.6874C11.75 12.5075 11.4627 12.4306 11.1814 12.4758L11.1445 12.4817L11.1313 12.4468C11.0297 12.1806 10.8194 11.9703 10.5532 11.8687L10.5183 11.8555L10.5242 11.8186C10.5694 11.5373 10.4925 11.25 10.3126 11.0289L10.2891 11L10.3126 10.9711C10.4925 10.75 10.5694 10.4627 10.5242 10.1814L10.5183 10.1445L10.5532 10.1313C10.8194 10.0297 11.0297 9.81943 11.1313 9.55316L11.1445 9.51831L11.1814 9.52423C11.4627 9.56943 11.75 9.49246 11.9711 9.31263Z" fill="#0000CC"/>
<path fill-rule="evenodd" clip-rule="evenodd" d="M12.6311 2.22426C12.2635 1.92525 11.7365 1.92525 11.3689 2.22426L9.95644 3.37331L8.15864 3.08446C7.6908 3.00929 7.23444 3.27277 7.06562 3.71551L6.41688 5.41688L4.71551 6.06562C4.27277 6.23444 4.00929 6.6908 4.08446 7.15864L4.37331 8.95644L3.22426 10.3689C2.92525 10.7365 2.92525 11.2635 3.22426 11.6311L4.37331 13.0436L4.08446 14.8414C4.00929 15.3092 4.27277 15.7656 4.71551 15.9344L6.07619 16.4532C6.1799 16.0884 6.38637 15.7567 6.67639 15.5007C7.10646 15.121 7.67884 14.9443 8.24807 15.0155L12 15.4844L15.7519 15.0155C16.3212 14.9443 16.8935 15.121 17.3236 15.5007C17.6136 15.7567 17.8201 16.0884 17.9238 16.4532L19.2845 15.9344C19.7272 15.7656 19.9907 15.3092 19.9155 14.8414L19.6267 13.0436L20.7757 11.6311C21.0748 11.2635 21.0748 10.7365 20.7757 10.3689L19.6267 8.95644L19.9155 7.15864C19.9907 6.6908 19.7272 6.23444 19.2845 6.06562L17.5831 5.41688L16.9344 3.71551C16.7656 3.27277 16.3092 3.00929 15.8414 3.08446L14.0436 3.37331L12.6311 2.22426ZM12.6311 7.22426C12.2635 6.92525 11.7365 6.92525 11.3689 7.22426L11.0564 7.4785L10.6586 7.41459C10.1908 7.33942 9.73444 7.6029 9.56562 8.04564L9.42208 8.42208L9.04564 8.56562C8.6029 8.73444 8.33942 9.1908 8.41459 9.65864L8.4785 10.0564L8.22426 10.3689C7.92525 10.7365 7.92525 11.2635 8.22426 11.6311L8.4785 11.9436L8.41459 12.3414C8.33942 12.8092 8.6029 13.2656 9.04564 13.4344L9.42208 13.5779L9.56562 13.9544C9.73444 14.3971 10.1908 14.6606 10.6586 14.5854L11.0564 14.5215L11.3689 14.7757C11.7365 15.0748 12.2635 15.0748 12.6311 14.7757L12.9436 14.5215L13.3414 14.5854C13.8092 14.6606 14.2656 14.3971 14.4344 13.9544L14.5779 13.5779L14.9544 13.4344C15.3971 13.2656 15.6606 12.8092 15.5854 12.3414L15.5215 11.9436L15.7757 11.6311C16.0748 11.2635 16.0748 10.7365 15.7757 10.3689L15.5215 10.0564L15.5854 9.65864C15.6606 9.1908 15.3971 8.73444 14.9544 8.56562L14.5779 8.42208L14.4344 8.04564C14.2656 7.6029 13.8092 7.33942 13.3414 7.41459L12.9436 7.4785L12.6311 7.22426Z" fill="#0000CC"/>
<path d="M8.12403 16.0077C7.83942 15.9722 7.55323 16.0605 7.3382 16.2503C7.12317 16.4402 7 16.7132 7 17V21C7 21.2868 7.12317 21.5599 7.3382 21.7497C7.55323 21.9395 7.83942 22.0279 8.12403 21.9923L12 21.5078L15.876 21.9923C16.1606 22.0279 16.4468 21.9395 16.6618 21.7497C16.8768 21.5599 17 21.2868 17 21V17C17 16.7132 16.8768 16.4402 16.6618 16.2503C16.4468 16.0605 16.1606 15.9722 15.876 16.0077L12 16.4922L8.12403 16.0077Z" fill="#0000CC"/>
</svg>
