<svg width="24" height="24" viewBox="0 0 24 24" fill="none" xmlns="http://www.w3.org/2000/svg">
<path d="M4 3C3.62864 3 3.28787 3.20579 3.11498 3.53445C2.94209 3.86311 2.96557 4.26051 3.17596 4.56653L9.22323 13.3626L3.2929 19.2929C2.90237 19.6834 2.90237 20.3166 3.2929 20.7071C3.68342 21.0976 4.31659 21.0976 4.70711 20.7071L10.3756 15.0387L14.176 20.5665C14.3625 20.8379 14.6707 21 15 21H20C20.3714 21 20.7121 20.7942 20.885 20.4655C21.0579 20.1369 21.0344 19.7395 20.824 19.4335L14.776 10.6363L20.7063 4.70717C21.0969 4.31669 21.097 3.68352 20.7065 3.29296C20.316 2.9024 19.6828 2.90234 19.2923 3.29283L13.6237 8.96027L9.82404 3.43347C9.63749 3.16212 9.3293 3 9 3H4Z" fill="#0000CC"/>
</svg>
