<svg width="24" height="24" viewBox="0 0 24 24" fill="none" xmlns="http://www.w3.org/2000/svg">
<path fill-rule="evenodd" clip-rule="evenodd" d="M6.47013 3.15189C6.93847 2.85918 7.55542 3.00155 7.84813 3.46989L12.0001 10.1131L16.1521 3.46989C16.4448 3.00155 17.0618 2.85918 17.5301 3.15189C17.9985 3.4446 18.1408 4.06155 17.8481 4.52989L13.8044 10.9999H16.0001C16.5524 10.9999 17.0001 11.4476 17.0001 11.9999C17.0001 12.5522 16.5524 12.9999 16.0001 12.9999H13.0001V14.9999H16.0001C16.5524 14.9999 17.0001 15.4476 17.0001 15.9999C17.0001 16.5522 16.5524 16.9999 16.0001 16.9999H13.0001V19.9999C13.0001 20.5522 12.5524 20.9999 12.0001 20.9999C11.4478 20.9999 11.0001 20.5522 11.0001 19.9999V16.9999H8.00013C7.44785 16.9999 7.00013 16.5522 7.00013 15.9999C7.00013 15.4476 7.44785 14.9999 8.00013 14.9999H11.0001V12.9999H8.00013C7.44785 12.9999 7.00013 12.5522 7.00013 11.9999C7.00013 11.4476 7.44785 10.9999 8.00013 10.9999H10.1959L6.15214 4.52989C5.85943 4.06155 6.0018 3.4446 6.47013 3.15189Z" fill="#0000CC"/>
</svg>
