<svg width="24" height="24" viewBox="0 0 24 24" fill="none" xmlns="http://www.w3.org/2000/svg">
<path opacity="0.14" d="M8 14L5.63233 15.4206C4.47385 16.1157 3 15.2812 3 13.9302C3 13.3491 3.29044 12.8064 3.77397 12.484L9.20614 8.86258C8.46199 8.13619 8 7.12205 8 6C8 3.79086 9.79086 2 12 2C14.2091 2 16 3.79086 16 6C16 7.13376 15.5283 8.15735 14.7705 8.88523L19.8407 11.4204C20.5512 11.7756 21 12.5018 21 13.2961C21 14.9262 19.2217 15.933 17.8239 15.0944L16 14L17.805 18.8134C18.3832 20.3553 17.2434 22 15.5968 22C14.6324 22 13.7651 21.4129 13.407 20.5175L12 17L10.593 20.5175C10.2349 21.4129 9.36763 22 8.40325 22C6.75656 22 5.61677 20.3553 6.19496 18.8134L8 14Z" fill="#0000CC"/>
<path d="M12 14H12.01M12 11H12.01M5.63233 15.4206L8 14L6.19496 18.8134C5.61677 20.3553 6.75656 22 8.40325 22C9.36763 22 10.2349 21.4129 10.593 20.5175L12 17L13.407 20.5175C13.7651 21.4129 14.6324 22 15.5968 22C17.2434 22 18.3832 20.3553 17.805 18.8134L16 14L17.8239 15.0944C19.2217 15.933 21 14.9262 21 13.2961C21 12.5018 20.5512 11.7756 19.8407 11.4204L14.7705 8.88523C15.5283 8.15735 16 7.13376 16 6C16 3.79086 14.2091 2 12 2C9.79086 2 8 3.79086 8 6C8 7.12205 8.46199 8.13619 9.20614 8.86258L3.77397 12.484C3.29044 12.8064 3 13.3491 3 13.9302C3 15.2812 4.47385 16.1157 5.63233 15.4206Z" stroke="#0000CC" stroke-width="2" stroke-linecap="round" stroke-linejoin="round"/>
</svg>
