<svg width="24" height="24" viewBox="0 0 24 24" fill="none" xmlns="http://www.w3.org/2000/svg">
<g opacity="0.14">
<path d="M7 7.00003C7 5.00008 11 -2 19 4.00001C14.9999 2.50002 14.9985 5.00005 16.9995 7.00005L7 7.00003Z" fill="#0000CC"/>
<path d="M10.888 15.1652C9.59225 15.9293 7.81902 16.4979 6.65914 15.3447C5.15326 13.8474 6.56642 10.9876 7.53897 10.0804C7.56902 10.0524 7.54959 10 7.5085 10C7.50191 10 7.49554 10.0014 7.48961 10.0043C4.46163 11.466 0.961537 15.4462 9.23638 20.496C10.0668 21.0028 10.4821 21.2562 11.1297 21.4005C11.6061 21.5066 12.3926 21.5066 12.869 21.4005C13.5166 21.2562 13.9319 21.0028 14.7624 20.496C23.0374 15.4462 19.5382 11.466 16.5102 10.0043C16.5043 10.0014 16.4979 10 16.4914 10C16.4503 10 16.4309 10.0523 16.4609 10.0803C17.4335 10.9874 18.8468 13.8474 17.3409 15.3447C16.181 16.4979 14.4077 15.9293 13.112 15.1652C12.6167 14.8732 12.3691 14.7272 12.2115 14.6931C12.0263 14.653 11.9737 14.653 11.7885 14.6931C11.6309 14.7272 11.3833 14.8732 10.888 15.1652Z" fill="#0000CC"/>
</g>
<path d="M7.6302 10C6.65914 10.8046 5.10543 13.7999 6.65914 15.3447C7.81902 16.4979 9.59225 15.9293 10.888 15.1652C11.3833 14.8732 11.6309 14.7272 11.7885 14.6931C11.9737 14.653 12.0263 14.653 12.2115 14.6931C12.3691 14.7272 12.6167 14.8732 13.112 15.1652C14.4077 15.9293 16.181 16.4979 17.3409 15.3447C18.8946 13.7999 17.3409 10.8046 16.3698 10M7.4985 10C4.17378 11.6 0.265086 16.24 11.9994 22M16.5013 10C19.8261 11.6 23.7351 16.24 12.0008 22M7 7.00003C7 5.00008 11 -2 19 4.00001C14.9999 2.50002 14.9985 5.00005 16.9995 7.00005M10 12.5H10.01M14 12.5H14.01M11 18C11.103 18.0515 11.1545 18.0773 11.2048 18.099C11.7121 18.3189 12.2879 18.3189 12.7952 18.099C12.8455 18.0773 12.897 18.0515 13 18M6.5 10H17.5C18.3284 10 19 9.32843 19 8.5C19 7.67157 18.3284 7 17.5 7H6.5C5.67157 7 5 7.67157 5 8.5C5 9.32843 5.67157 10 6.5 10ZM20 4C20 4.55228 19.5523 5 19 5C18.4477 5 18 4.55228 18 4C18 3.44772 18.4477 3 19 3C19.5523 3 20 3.44772 20 4Z" stroke="#0000CC" stroke-width="2" stroke-linecap="round" stroke-linejoin="round"/>
</svg>
