<svg width="24" height="24" viewBox="0 0 24 24" fill="none" xmlns="http://www.w3.org/2000/svg">
<path opacity="0.14" d="M3.10901 3.54601C3.00002 3.75992 3.00002 4.03995 3.00002 4.6C3.00002 10.0667 3 21 3 21H7.00002V18C7.00002 16.8954 7.89545 16 9.00002 16C10.1046 16 11 16.8954 11 18V21H15V4.6C15 4.03995 15 3.75992 14.891 3.54601C14.7952 3.35785 14.6422 3.20487 14.454 3.10899C14.2401 3 13.9601 3 13.4 3H4.60002C4.03997 3 3.75994 3 3.54603 3.10899C3.35787 3.20487 3.20489 3.35785 3.10901 3.54601Z" fill="#0000CC"/>
<path d="M12 21H11M11 21H7M11 21V18C11 16.8954 10.1046 16 9 16C7.89543 16 7 16.8954 7 18V21M7 21H3V4.6C3 4.03995 3 3.75992 3.10899 3.54601C3.20487 3.35785 3.35785 3.20487 3.54601 3.10899C3.75992 3 4.03995 3 4.6 3H13.4C13.9601 3 14.2401 3 14.454 3.10899C14.6422 3.20487 14.7951 3.35785 14.891 3.54601C15 3.75992 15 4.03995 15 4.6V12M6 7H7M6 10H7M11 10H12M11 13H12M6 13H7M11 7H12M16 16L18.5 18.5M18.5 18.5L21 21M18.5 18.5L21 16M18.5 18.5L16 21" stroke="#0000CC" stroke-width="2" stroke-linecap="round" stroke-linejoin="round"/>
</svg>
