<svg width="24" height="24" viewBox="0 0 24 24" fill="none" xmlns="http://www.w3.org/2000/svg">
<path opacity="0.14" d="M3.10901 3.54601C3.00002 3.75992 3.00002 4.03995 3.00002 4.6C3.00002 10.0667 3 21 3 21H7.00002V18C7.00002 16.8954 7.89545 16 9.00002 16C10.1046 16 11 16.8954 11 18V21H15V4.6C15 4.03995 15 3.75992 14.891 3.54601C14.7952 3.35785 14.6422 3.20487 14.454 3.10899C14.2401 3 13.9601 3 13.4 3H4.60002C4.03997 3 3.75994 3 3.54603 3.10899C3.35787 3.20487 3.20489 3.35785 3.10901 3.54601Z" fill="#0000CC"/>
<path d="M7 21H11V18C11 16.8954 10.1046 16 9 16C7.89543 16 7 16.8954 7 18V21ZM7 21H3V4.6C3 4.03995 3 3.75992 3.10899 3.54601C3.20487 3.35785 3.35785 3.20487 3.54601 3.10899C3.75992 3 4.03995 3 4.6 3H13.4C13.9601 3 14.2401 3 14.454 3.10899C14.6422 3.20487 14.7951 3.35785 14.891 3.54601C15 3.75992 15 4.03995 15 4.6V12M6 7H7M6 10H7M11 10H12M11 13H12M6 13H7M11 7H12M16 18V17C16 15.8954 16.8954 15 18 15C19.1046 15 20 15.8954 20 17V18M16.5 21H19.5C19.9659 21 20.1989 21 20.3827 20.9239C20.6277 20.8224 20.8224 20.6277 20.9239 20.3827C21 20.1989 21 19.9659 21 19.5C21 19.0341 21 18.8011 20.9239 18.6173C20.8224 18.3723 20.6277 18.1776 20.3827 18.0761C20.1989 18 19.9659 18 19.5 18H16.5C16.0341 18 15.8011 18 15.6173 18.0761C15.3723 18.1776 15.1776 18.3723 15.0761 18.6173C15 18.8011 15 19.0341 15 19.5C15 19.9659 15 20.1989 15.0761 20.3827C15.1776 20.6277 15.3723 20.8224 15.6173 20.9239C15.8011 21 16.0341 21 16.5 21Z" stroke="#0000CC" stroke-width="2" stroke-linecap="round" stroke-linejoin="round"/>
</svg>
