<svg width="24" height="24" viewBox="0 0 24 24" fill="none" xmlns="http://www.w3.org/2000/svg">
<path opacity="0.14" d="M4.10901 3.54601C4.00002 3.75992 4.00002 4.03995 4.00002 4.6C4.00002 10.0667 4 21 4 21H8.00002V18C8.00002 16.8954 8.89545 16 10 16C11.1046 16 12 16.8954 12 18V21H16V4.6C16 4.03995 16 3.75992 15.891 3.54601C15.7952 3.35785 15.6422 3.20487 15.454 3.10899C15.2401 3 14.9601 3 14.4 3H5.60002C5.03997 3 4.75994 3 4.54603 3.10899C4.35787 3.20487 4.20489 3.35785 4.10901 3.54601Z" fill="#0000CC"/>
<path d="M7 7H8M7 10H8M12 10H13M12 13H13M7 13H8M12 7H13M8 21V18C8 16.8954 8.89543 16 10 16C10.5973 16 11.1335 16.2619 11.5 16.6771M16 15V4.6C16 4.03995 16 3.75992 15.891 3.54601C15.7951 3.35785 15.6422 3.20487 15.454 3.10899C15.2401 3 14.9601 3 14.4 3H5.6C5.03995 3 4.75992 3 4.54601 3.10899C4.35785 3.20487 4.20487 3.35785 4.10899 3.54601C4 3.75992 4 4.03995 4 4.6V21H11.5M15 19L17 21L21 17" stroke="#0000CC" stroke-width="2" stroke-linecap="round" stroke-linejoin="round"/>
</svg>
