<svg width="24" height="24" viewBox="0 0 24 24" fill="none" xmlns="http://www.w3.org/2000/svg">
<path opacity="0.14" d="M3.10901 3.54601C3.00002 3.75992 3.00002 4.03995 3.00002 4.6C3.00002 10.0667 3 21 3 21H7.00002V18C7.00002 16.8954 7.89545 16 9.00002 16C10.1046 16 11 16.8954 11 18V21H15V4.6C15 4.03995 15 3.75992 14.891 3.54601C14.7952 3.35785 14.6422 3.20487 14.454 3.10899C14.2401 3 13.9601 3 13.4 3H4.60002C4.03997 3 3.75994 3 3.54603 3.10899C3.35787 3.20487 3.20489 3.35785 3.10901 3.54601Z" fill="#0000CC"/>
<path d="M6 7H7M6 10H7M11 10H12M11 13H12M6 13H7M11 7H12M11 21V18C11 16.8954 10.1046 16 9 16C7.89543 16 7 16.8954 7 18V21M11 21H12.5M11 21H7M7 21H3V4.6C3 4.03995 3 3.75992 3.10899 3.54601C3.20487 3.35785 3.35785 3.20487 3.54601 3.10899C3.75992 3 4.03995 3 4.6 3H13.4C13.9601 3 14.2401 3 14.454 3.10899C14.6422 3.20487 14.7951 3.35785 14.891 3.54601C15 3.75992 15 4.03995 15 4.6V12M20.8832 16.0318C20.8207 16.0353 20.7578 16.0371 20.6944 16.0371C19.7553 16.0371 18.8987 15.6449 18.25 15C17.6013 15.6449 16.7446 16.0371 15.8056 16.0371C15.7422 16.0371 15.6793 16.0353 15.6168 16.0318C15.5405 16.3588 15.5 16.7018 15.5 17.0554C15.5 18.9532 16.6685 20.5479 18.25 21C19.8315 20.5479 21 18.9532 21 17.0554C21 16.7019 20.9595 16.3589 20.8832 16.0318Z" stroke="#0000CC" stroke-width="2" stroke-linecap="round" stroke-linejoin="round"/>
</svg>
