<svg width="24" height="24" viewBox="0 0 24 24" fill="none" xmlns="http://www.w3.org/2000/svg">
<path opacity="0.14" d="M19 9.77794V16.1998C19 17.88 19 18.7201 18.673 19.3618C18.3854 19.9263 17.9265 20.3852 17.362 20.6729C16.7202 20.9998 15.8802 20.9998 14.2 20.9998H14V15H10V20.9998H9.8C8.11984 20.9998 7.27976 20.9998 6.63803 20.6729C6.07354 20.3852 5.6146 19.9263 5.32698 19.3618C5 18.7201 5 17.88 5 16.1998V9.77728L8.43114 5.96433C9.66661 4.59139 10.2843 3.90491 11.0119 3.65141C11.651 3.42875 12.3466 3.4287 12.9856 3.65126C13.7133 3.90466 14.3311 4.59104 15.5668 5.96381L19 9.77794Z" fill="#0000CC"/>
<path d="M5 9.7774V16.2C5 17.8801 5 18.7202 5.32698 19.3619C5.6146 19.9264 6.07354 20.3854 6.63803 20.673C7.27976 21 8.11984 21 9.8 21H14.2C15.8802 21 16.7202 21 17.362 20.673C17.9265 20.3854 18.3854 19.9264 18.673 19.3619C19 18.7202 19 17.8801 19 16.2V4.99996M21 12L15.5668 5.96393C14.3311 4.59116 13.7133 3.90478 12.9856 3.65138C12.3466 3.42882 11.651 3.42887 11.0119 3.65153C10.2843 3.90503 9.66661 4.59151 8.43114 5.96446L3 12M14 21V15H10V21" stroke="#0000CC" stroke-width="2" stroke-linecap="round" stroke-linejoin="round"/>
</svg>
