<svg width="24" height="24" viewBox="0 0 24 24" fill="none" xmlns="http://www.w3.org/2000/svg">
<path opacity="0.14" d="M19 16.1998V9.77794L15.5668 5.96381C14.3311 4.59104 13.7133 3.90466 12.9856 3.65126C12.3466 3.4287 11.651 3.42875 11.0119 3.65141C10.2843 3.90491 9.66661 4.59139 8.43114 5.96433L5 9.77728V16.1998C5 17.88 5 18.7201 5.32698 19.3618C5.6146 19.9263 6.07354 20.3852 6.63803 20.6729C7.27976 20.9998 8.11984 20.9998 9.8 20.9998H14.2C15.8802 20.9998 16.7202 20.9998 17.362 20.6729C17.9265 20.3852 18.3854 19.9263 18.673 19.3618C19 18.7201 19 17.88 19 16.1998Z" fill="#0000CC"/>
<path d="M11.5 11.0001L10 14.0001H14L12.5 17.0001M19 9.77818V16.2001C19 17.8802 19 18.7203 18.673 19.362C18.3854 19.9265 17.9265 20.3855 17.362 20.6731C16.7202 21.0001 15.8802 21.0001 14.2 21.0001H9.8C8.11984 21.0001 7.27976 21.0001 6.63803 20.6731C6.07354 20.3855 5.6146 19.9265 5.32698 19.362C5 18.7203 5 17.8802 5 16.2001V9.77753M21 12.0001L15.5668 5.96405C14.3311 4.59129 13.7133 3.9049 12.9856 3.65151C12.3466 3.42894 11.651 3.42899 11.0119 3.65165C10.2843 3.90516 9.66661 4.59163 8.43114 5.96458L3 12.0001" stroke="#0000CC" stroke-width="2" stroke-linecap="round" stroke-linejoin="round"/>
</svg>
