<svg width="24" height="24" viewBox="0 0 24 24" fill="none" xmlns="http://www.w3.org/2000/svg">
<path opacity="0.14" d="M12 3C10.8954 3 10 3.89543 10 5V12.3637L12 14.1819L12 19.4001C12 19.9602 12 20.2402 11.891 20.4541C11.7951 20.6423 11.6422 20.7952 11.454 20.8911C11.4397 20.8984 11.425 20.9052 11.4101 20.9116C11.5965 20.9691 11.7947 21 12 21H19C20.1046 21 21 20.1046 21 19V5C21 3.89543 20.1046 3 19 3H12Z" fill="#0000CC"/>
<path d="M10 7.5V6.2C10 5.0799 10 4.51984 10.218 4.09202C10.4097 3.71569 10.7157 3.40973 11.092 3.21799C11.5198 3 12.0799 3 13.2 3H17.8C18.9201 3 19.4802 3 19.908 3.21799C20.2843 3.40973 20.5903 3.71569 20.782 4.09202C21 4.51984 21 5.0799 21 6.2V17.8C21 18.9201 21 19.4802 20.782 19.908C20.5903 20.2843 20.2843 20.5903 19.908 20.782C19.4802 21 18.9201 21 17.8 21H16M14 7H17M14 11H17M3 16L7.42372 11.9784C7.8038 11.6329 7.99384 11.4601 8.20914 11.3947C8.39876 11.337 8.60124 11.337 8.79086 11.3947C9.00616 11.4601 9.1962 11.6329 9.57628 11.9784L14 16M5 14.1818V19.4C5 19.9601 5 20.2401 5.10899 20.454C5.20487 20.6422 5.35785 20.7951 5.54601 20.891C5.75992 21 6.03995 21 6.6 21H10.4C10.9601 21 11.2401 21 11.454 20.891C11.6422 20.7951 11.7951 20.6422 11.891 20.454C12 20.2401 12 19.9601 12 19.4L12 14.1818" stroke="#0000CC" stroke-width="2" stroke-linecap="round" stroke-linejoin="round"/>
</svg>
