<svg width="24" height="24" viewBox="0 0 24 24" fill="none" xmlns="http://www.w3.org/2000/svg">
<path opacity="0.14" fill-rule="evenodd" clip-rule="evenodd" d="M19 9.77794V16.1998C19 17.88 19 18.7201 18.673 19.3618C18.3854 19.9263 17.9265 20.3852 17.362 20.6729C17.211 20.7498 17.0492 20.8086 16.8679 20.8535C16.3497 18.6447 14.3669 17 12 17C9.63307 17 7.65026 18.6447 7.13205 20.8535C6.95084 20.8086 6.78895 20.7498 6.63803 20.6729C6.07354 20.3852 5.6146 19.9263 5.32698 19.3618C5 18.7201 5 17.88 5 16.1998V9.77728L8.43114 5.96433C9.66661 4.59139 10.2843 3.90491 11.0119 3.65141C11.651 3.42875 12.3466 3.4287 12.9856 3.65126C13.7133 3.90466 14.3311 4.59104 15.5668 5.96381L19 9.77794ZM14 12C14 13.1046 13.1046 14 12 14C10.8954 14 10 13.1046 10 12C10 10.8954 10.8954 10 12 10C13.1046 10 14 10.8954 14 12Z" fill="#0000CC"/>
<path d="M5 9.7774V16.2C5 17.8801 5 18.7202 5.32698 19.3619C5.6146 19.9264 6.07354 20.3854 6.63803 20.673C6.78894 20.7499 6.95082 20.8087 7.13202 20.8537M21 12L15.5668 5.96393C14.3311 4.59116 13.7133 3.90478 12.9856 3.65138C12.3466 3.42882 11.651 3.42887 11.0119 3.65153C10.2843 3.90503 9.66661 4.59151 8.43114 5.96446L3 12M19 4.99996V16.2C19 17.8801 19 18.7202 18.673 19.3619C18.3854 19.9264 17.9265 20.3854 17.362 20.673C17.2111 20.7499 17.0492 20.8087 16.868 20.8537M7.13202 20.8537C7.65017 18.6447 9.63301 17 12 17C14.367 17 16.3498 18.6447 16.868 20.8537M7.13202 20.8537C7.72133 21 8.51495 21 9.8 21H14.2C15.485 21 16.2787 21 16.868 20.8537M14 12C14 13.1045 13.1046 14 12 14C10.8954 14 10 13.1045 10 12C10 10.8954 10.8954 9.99996 12 9.99996C13.1046 9.99996 14 10.8954 14 12Z" stroke="#0000CC" stroke-width="2" stroke-linecap="round" stroke-linejoin="round"/>
</svg>
