<svg width="24" height="24" viewBox="0 0 24 24" fill="none" xmlns="http://www.w3.org/2000/svg">
<path opacity="0.14" d="M3 12.1301V14.5999C3 16.8401 3 17.9603 3.43597 18.8159C3.81947 19.5685 4.43139 20.1805 5.18404 20.564C6.03969 20.9999 7.15979 20.9999 9.4 20.9999H14.6C16.8402 20.9999 17.9603 20.9999 18.816 20.564C19.5686 20.1805 20.1805 19.5685 20.564 18.8159C21 17.9603 21 16.8401 21 14.5999V12.1301C21 10.9814 21 10.407 20.8519 9.87807C20.7208 9.40953 20.5053 8.96886 20.2159 8.57768C19.8893 8.13608 19.436 7.78346 18.5292 7.07822L15.9292 5.056C14.5239 3.96299 13.8213 3.41648 13.0454 3.2064C12.3608 3.02104 11.6392 3.02104 10.9546 3.2064C10.1787 3.41648 9.47608 3.96298 8.07078 5.056L5.47078 7.07822C4.56404 7.78346 4.11067 8.13608 3.78405 8.57768C3.49473 8.96886 3.2792 9.40953 3.14805 9.87807C3 10.407 3 10.9814 3 12.1301Z" fill="#0000CC"/>
<path d="M12.5 9.49994L10 12.9999H14L11.5 16.4999M3 14.5999V12.1301C3 10.9814 3 10.407 3.14805 9.87807C3.2792 9.40953 3.49473 8.96886 3.78405 8.57768C4.11067 8.13608 4.56404 7.78346 5.47078 7.07822L8.07078 5.056C9.47608 3.96298 10.1787 3.41648 10.9546 3.2064C11.6392 3.02104 12.3608 3.02104 13.0454 3.2064C13.8213 3.41648 14.5239 3.96299 15.9292 5.056L18.5292 7.07822C19.436 7.78346 19.8893 8.13608 20.2159 8.57768C20.5053 8.96886 20.7208 9.40953 20.8519 9.87807C21 10.407 21 10.9814 21 12.1301V14.5999C21 16.8401 21 17.9603 20.564 18.8159C20.1805 19.5685 19.5686 20.1805 18.816 20.564C17.9603 20.9999 16.8402 20.9999 14.6 20.9999H9.4C7.15979 20.9999 6.03969 20.9999 5.18404 20.564C4.43139 20.1805 3.81947 19.5685 3.43597 18.8159C3 17.9603 3 16.8401 3 14.5999Z" stroke="#0000CC" stroke-width="2" stroke-linecap="round" stroke-linejoin="round"/>
</svg>
