<svg width="24" height="24" viewBox="0 0 24 24" fill="none" xmlns="http://www.w3.org/2000/svg">
<path opacity="0.14" d="M20.9995 10L13.9995 3L7.04297 10H11.162L9.63792 12.035L11.9995 14.1819L11.9995 19.4001C11.9995 19.9602 11.9995 20.2402 11.8905 20.4541C11.7946 20.6423 11.6417 20.7952 11.4535 20.8911C11.2606 20.9894 11.0139 20.9991 10.5565 21H20.9995L16.9995 15.5H20.9995L16.8805 10H20.9995Z" fill="#0000CC"/>
<path d="M16.3426 21H21L17 15.5H21L16.881 10H21L14 3L9.5 7.5M3 16L7.42372 11.9784C7.8038 11.6329 7.99384 11.4601 8.20914 11.3947C8.39876 11.337 8.60124 11.337 8.79086 11.3947C9.00616 11.4601 9.1962 11.6329 9.57628 11.9784L14 16M5 14.1818V19.4C5 19.9601 5 20.2401 5.10899 20.454C5.20487 20.6422 5.35785 20.7951 5.54601 20.891C5.75992 21 6.03995 21 6.6 21H10.4C10.9601 21 11.2401 21 11.454 20.891C11.6422 20.7951 11.7951 20.6422 11.891 20.454C12 20.2401 12 19.9601 12 19.4L12 14.1818" stroke="#0000CC" stroke-width="2" stroke-linecap="round" stroke-linejoin="round"/>
</svg>
