<svg width="24" height="24" viewBox="0 0 24 24" fill="none" xmlns="http://www.w3.org/2000/svg">
<path opacity="0.14" d="M3 17.8002V10.9987C3 10.1053 3 9.65867 3.15613 9.28706C3.29388 8.95919 3.51657 8.67398 3.80124 8.46081C4.12389 8.21922 4.55722 8.11089 5.42388 7.89422L7 7.50019L9.85931 4.92681C10.6159 4.24584 10.9943 3.90536 11.4221 3.77623C11.799 3.66248 12.201 3.66248 12.5779 3.77623C13.0057 3.90536 13.3841 4.24585 14.1407 4.92681L17 7.50019L18.5761 7.89422C19.4428 8.11089 19.8761 8.21922 20.1988 8.46081C20.4834 8.67398 20.7061 8.95919 20.8439 9.28706C21 9.65867 21 10.1053 21 10.9987V17.8002C21 18.9203 21 19.4804 20.782 19.9082C20.5903 20.2845 20.2843 20.5905 19.908 20.7822C19.4802 21.0002 18.9201 21.0002 17.8 21.0002H14V17.0002C14 15.8956 13.1046 15.0002 12 15.0002C10.8954 15.0002 10 15.8956 10 17.0002V21.0002H6.2C5.0799 21.0002 4.51984 21.0002 4.09202 20.7822C3.71569 20.5905 3.40973 20.2845 3.21799 19.9082C3 19.4804 3 18.9203 3 17.8002Z" fill="#0000CC"/>
<path d="M6 11.4999H7M6 15.4999H7M17 15.4999H18M17 11.4999H18M11.5 11.4999H12.5M10 20.9999V16.9999C10 15.8954 10.8954 14.9999 12 14.9999C13.1046 14.9999 14 15.8954 14 16.9999V20.9999M17 7.49995L18.5761 7.89398C19.4428 8.11064 19.8761 8.21898 20.1988 8.46057C20.4834 8.67373 20.7061 8.95895 20.8439 9.28682C21 9.65843 21 10.1051 21 10.9984V17.7999C21 18.9201 21 19.4801 20.782 19.9079C20.5903 20.2843 20.2843 20.5902 19.908 20.782C19.4802 20.9999 18.9201 20.9999 17.8 20.9999H6.2C5.0799 20.9999 4.51984 20.9999 4.09202 20.782C3.71569 20.5902 3.40973 20.2843 3.21799 19.9079C3 19.4801 3 18.9201 3 17.7999V10.9984C3 10.1051 3 9.65843 3.15613 9.28682C3.29388 8.95895 3.51657 8.67373 3.80124 8.46057C4.12389 8.21898 4.55722 8.11064 5.42388 7.89398L7 7.49995L9.85931 4.92657C10.6159 4.2456 10.9943 3.90512 11.4221 3.77598C11.799 3.66224 12.201 3.66224 12.5779 3.77598C13.0057 3.90512 13.3841 4.2456 14.1407 4.92657L17 7.49995Z" stroke="#0000CC" stroke-width="2" stroke-linecap="round" stroke-linejoin="round"/>
</svg>
