<svg width="24" height="24" viewBox="0 0 24 24" fill="none" xmlns="http://www.w3.org/2000/svg">
<path opacity="0.14" d="M7.02886 8.01504C7 8.13255 7 8.25777 7 8.5082V12.8894C7 12.7891 7 12.7389 6.99046 12.6908C6.982 12.6481 6.96799 12.6067 6.9488 12.5676C6.92716 12.5235 6.89671 12.4837 6.83581 12.4039L5.63581 10.8325C5.41965 10.5494 5.31157 10.4079 5.17962 10.3571C5.06401 10.3126 4.93599 10.3126 4.82038 10.3571C4.68843 10.4079 4.58035 10.5494 4.36419 10.8325L3.16419 12.4039C3.10329 12.4836 3.07283 12.5235 3.0512 12.5676C3.03201 12.6067 3.018 12.6481 3.00954 12.6908C3 12.7389 3 12.7891 3 12.8894V19.3999C3 19.9599 3 20.2399 3.10899 20.4538C3.20487 20.642 3.35785 20.795 3.54601 20.8909C3.75992 20.9999 4.03995 20.9999 4.6 20.9999C7.9258 20.9999 6.43581 20.9999 10 20.9999V17C10 15.8954 10.8954 15 12 15C13.1046 15 14 15.8954 14 17V20.9999C17.5642 20.9999 16.0742 20.9999 19.4 20.9999C19.9601 20.9999 20.2401 20.9999 20.454 20.8909C20.6422 20.795 20.7951 20.642 20.891 20.4538C21 20.2399 21 19.9599 21 19.3999V12.8894C21 12.7891 21 12.7389 20.9905 12.6908C20.982 12.6481 20.968 12.6067 20.9488 12.5676C20.9272 12.5235 20.8967 12.4837 20.8358 12.4039L19.6358 10.8325C19.4197 10.5494 19.3116 10.4079 19.1796 10.3571C19.064 10.3126 18.936 10.3126 18.8204 10.3571C18.6884 10.4079 18.5803 10.5494 18.3642 10.8325L17.1642 12.4039C17.1033 12.4837 17.0728 12.5235 17.0512 12.5676C17.032 12.6067 17.018 12.6481 17.0095 12.6908C17 12.7389 17 12.7891 17 12.8894V8.50821C17 8.25777 17 8.13255 16.9711 8.01504C16.9456 7.91087 16.9034 7.8115 16.8462 7.72073C16.7818 7.61833 16.6917 7.53134 16.5116 7.35736L13.1116 4.07345C12.7212 3.69641 12.526 3.50789 12.3024 3.43696C12.1056 3.37453 11.8944 3.37453 11.6976 3.43696C11.474 3.50789 11.2788 3.69641 10.8885 4.07344L7.48845 7.35736C7.30831 7.53134 7.21825 7.61833 7.15378 7.72073C7.09662 7.8115 7.05444 7.91087 7.02886 8.01504Z" fill="#0000CC"/>
<path d="M7 21.0003H4.6C4.03995 21.0003 3.75992 21.0003 3.54601 20.8914C3.35785 20.7955 3.20487 20.6425 3.10899 20.4543C3 20.2404 3 19.9604 3 19.4003V12.8899C3 12.7896 3 12.7394 3.00954 12.6913C3.018 12.6486 3.03201 12.6071 3.0512 12.5681C3.07284 12.524 3.10329 12.4841 3.16419 12.4044L4.36419 10.833C4.58035 10.5499 4.68843 10.4084 4.82038 10.3576C4.93599 10.3131 5.06401 10.3131 5.17962 10.3576C5.31157 10.4084 5.41965 10.5499 5.63581 10.833L6.83581 12.4044C6.89671 12.4841 6.92716 12.524 6.9488 12.5681C6.96799 12.6071 6.982 12.6486 6.99046 12.6913C7 12.7394 7 12.7896 7 12.8899M7 21.0003H17M7 21.0003V8.50869C7 8.25826 7 8.13304 7.02886 8.01553C7.05444 7.91136 7.09662 7.81198 7.15378 7.72121C7.21825 7.61882 7.30831 7.53183 7.48845 7.35785L10.8884 4.07394C11.2788 3.6969 11.474 3.50838 11.6976 3.43744C11.8944 3.37502 12.1056 3.37502 12.3024 3.43744C12.526 3.50838 12.7212 3.6969 13.1116 4.07394L16.5116 7.35785C16.6917 7.53183 16.7818 7.61882 16.8462 7.72121C16.9034 7.81198 16.9456 7.91136 16.9711 8.01553C17 8.13304 17 8.25826 17 8.50869V21.0003M17 21.0003H19.4C19.9601 21.0003 20.2401 21.0003 20.454 20.8914C20.6422 20.7955 20.7951 20.6425 20.891 20.4543C21 20.2404 21 19.9604 21 19.4003V12.8899C21 12.7896 21 12.7394 20.9905 12.6913C20.982 12.6486 20.968 12.6071 20.9488 12.5681C20.9272 12.524 20.8967 12.4841 20.8358 12.4044L19.6358 10.833C19.4197 10.5499 19.3116 10.4084 19.1796 10.3576C19.064 10.3131 18.936 10.3131 18.8204 10.3576C18.6884 10.4084 18.5803 10.5499 18.3642 10.833L17.1642 12.4044C17.1033 12.4841 17.0728 12.524 17.0512 12.5681C17.032 12.6071 17.018 12.6486 17.0095 12.6913C17 12.7394 17 12.7896 17 12.8899M14 21.0003V17.0003C14 15.8958 13.1046 15.0003 12 15.0003C10.8954 15.0003 10 15.8958 10 17.0003V21.0003H14Z" stroke="#0000CC" stroke-width="2" stroke-linecap="round" stroke-linejoin="round"/>
</svg>
