<svg width="24" height="24" viewBox="0 0 24 24" fill="none" xmlns="http://www.w3.org/2000/svg">
<path opacity="0.14" d="M17.7639 14.9572L18.607 19.0793C18.7416 19.7373 18.8089 20.0664 18.7207 20.324C18.6433 20.55 18.4876 20.7408 18.2817 20.8619C18.047 21 17.7112 21 17.0395 21H15.9999L11.9999 15V21H6.9603C6.28865 21 5.95282 21 5.7181 20.8619C5.51223 20.7408 5.35651 20.55 5.27911 20.324C5.19087 20.0664 5.25816 19.7373 5.39276 19.0793L6.23592 14.9572C6.33336 14.4808 6.38209 14.2426 6.48151 14.0293C6.56966 13.8401 6.68688 13.6659 6.8289 13.513C6.98909 13.3405 7.19138 13.2056 7.59597 12.9359C9.06398 11.9572 10.532 10.9786 11.9999 9.99976C13.4678 10.9786 14.9358 11.9572 16.4038 12.9359C16.8084 13.2056 17.0107 13.3405 17.1709 13.513C17.3129 13.6659 17.4301 13.8401 17.5183 14.0293C17.6177 14.2426 17.6664 14.4808 17.7639 14.9572Z" fill="#0000CC"/>
<path d="M19 9V8.2C19 7.07989 19 6.51984 18.782 6.09202C18.5903 5.7157 18.2843 5.40973 17.908 5.21799C17.4802 5 16.9201 5 15.8 5H5M5 5L8 2M5 5L8 8M12 10L16.4039 12.936C16.8085 13.2057 17.0108 13.3405 17.171 13.513C17.313 13.6659 17.4302 13.8401 17.5184 14.0293C17.6178 14.2427 17.6665 14.4809 17.764 14.9573L18.6071 19.0794C18.7417 19.7374 18.809 20.0664 18.7208 20.324C18.6434 20.55 18.4877 20.7408 18.2818 20.8619C18.0471 21 17.7113 21 17.0396 21H16M12 10L7.59606 12.936C7.19148 13.2057 6.98919 13.3405 6.829 13.513C6.68697 13.6659 6.56976 13.8401 6.4816 14.0293C6.38218 14.2427 6.33346 14.4809 6.23602 14.9573L5.39286 19.0794C5.25826 19.7374 5.19096 20.0664 5.27921 20.324C5.35661 20.55 5.51233 20.7408 5.71819 20.8619C5.95292 21 6.28875 21 6.9604 21H12M12 10V15M12 21H16M12 21V15M16 21L12 15" stroke="#0000CC" stroke-width="2" stroke-linecap="round" stroke-linejoin="round"/>
</svg>
