<svg width="24" height="24" viewBox="0 0 24 24" fill="none" xmlns="http://www.w3.org/2000/svg">
<path opacity="0.14" d="M21 17.8V9H16C15.4477 9 15 8.55228 15 8V3H10.2C9.0799 3 8.51984 3 8.09202 3.21799C7.71569 3.40973 7.40973 3.71569 7.21799 4.09202C7 4.51984 7 5.0799 7 6.2V17.8C7 18.9201 7 19.4802 7.21799 19.908C7.40973 20.2843 7.71569 20.5903 8.09202 20.782C8.51984 21 9.0799 21 10.2 21H17.8C18.9201 21 19.4802 21 19.908 20.782C20.2843 20.5903 20.5903 20.2843 20.782 19.908C21 19.4802 21 18.9201 21 17.8Z" fill="#0000CC"/>
<path d="M15 3H10.2C9.07989 3 8.51984 3 8.09202 3.21799C7.71569 3.40973 7.40973 3.71569 7.21799 4.09202C7 4.51984 7 5.0799 7 6.2V12M15 3L21 9M15 3V8C15 8.55228 15.4477 9 16 9H21M21 9V17.8C21 18.9201 21 19.4802 20.782 19.908C20.5903 20.2843 20.2843 20.5903 19.908 20.782C19.4802 21 18.9201 21 17.8 21H10.2C9.0799 21 8.51984 21 8.09202 20.782C7.71569 20.5903 7.40973 20.2843 7.21799 19.908C7 19.4802 7 19.1201 7 18M13.4 12L16 15M16 15L13.4 18M16 15H3" stroke="#0000CC" stroke-width="2" stroke-linecap="round" stroke-linejoin="round"/>
</svg>
