<svg width="24" height="24" viewBox="0 0 24 24" fill="none" xmlns="http://www.w3.org/2000/svg">
<path d="M10.5 11V9H13.5C14.0523 9 14.5 9.44772 14.5 10C14.5 10.5523 14.0523 11 13.5 11H10.5Z" fill="#0000CC"/>
<path d="M10.5 15V13H13.5C14.0523 13 14.5 13.4477 14.5 14C14.5 14.5523 14.0523 15 13.5 15H10.5Z" fill="#0000CC"/>
<path fill-rule="evenodd" clip-rule="evenodd" d="M2 12C2 6.47715 6.47715 2 12 2C17.5228 2 22 6.47715 22 12C22 17.5228 17.5228 22 12 22C6.47715 22 2 17.5228 2 12ZM10.5 6.5C10.5 5.94772 10.0523 5.5 9.5 5.5C8.94772 5.5 8.5 5.94772 8.5 6.5V7H8C7.44772 7 7 7.44772 7 8C7 8.55228 7.44772 9 8 9H8.5V15H8C7.44772 15 7 15.4477 7 16C7 16.5523 7.44772 17 8 17H8.5V17.5C8.5 18.0523 8.94772 18.5 9.5 18.5C10.0523 18.5 10.5 18.0523 10.5 17.5V17H11.5V17.5C11.5 18.0523 11.9477 18.5 12.5 18.5C13.0523 18.5 13.5 18.0523 13.5 17.5V17C15.1569 17 16.5 15.6569 16.5 14C16.5 13.2316 16.2111 12.5308 15.7361 12C16.2111 11.4692 16.5 10.7684 16.5 10C16.5 8.34315 15.1569 7 13.5 7V6.5C13.5 5.94772 13.0523 5.5 12.5 5.5C11.9477 5.5 11.5 5.94772 11.5 6.5V7H10.5V6.5Z" fill="#0000CC"/>
</svg>
