<svg width="24" height="24" viewBox="0 0 24 24" fill="none" xmlns="http://www.w3.org/2000/svg">
<path fill-rule="evenodd" clip-rule="evenodd" d="M20 10C20 14.4183 16.4183 18 12 18C7.58172 18 4 14.4183 4 10C4 5.58172 7.58172 2 12 2C16.4183 2 20 5.58172 20 10ZM11.9999 5C12.5522 5 12.9999 5.44772 12.9999 6V6.01514C13.4461 6.03424 13.9066 6.07986 14.2736 6.18433C14.8048 6.33552 15.1129 6.8887 14.9617 7.41988C14.8105 7.95107 14.2573 8.25912 13.7261 8.10794C13.3937 8.01331 12.7403 7.99819 12.0075 8.0038C11.9436 8.00429 11.8968 8.00395 11.8571 8.00287C11.8366 8.00231 11.8202 8.00162 11.8068 8.00099L11.7874 8.00004L11.7696 8.00006C11.7466 8.00026 11.7064 8.00106 11.6333 8.00327C11.3576 8.0135 11.1927 8.08333 11.1179 8.14252C11.0866 8.1672 11.0643 8.19437 11.0462 8.23382C11.0271 8.27558 11.0001 8.35952 10.9999 8.51033C10.9997 8.65331 11.0291 8.72003 11.0441 8.74686C11.0592 8.77398 11.0862 8.80776 11.1489 8.84643C11.299 8.93895 11.5857 9.01495 11.9999 9.01495C12.552 9.01495 13.2731 9.08129 13.8833 9.44162C14.585 9.85594 14.9999 10.5733 14.9999 11.5211C14.9999 12.3327 14.6234 12.9608 14.0541 13.3701C13.7343 13.6001 13.3685 13.7521 12.9999 13.853V14C12.9999 14.5523 12.5522 15 11.9999 15C11.4476 15 10.9999 14.5523 10.9999 14V13.9885C10.6855 13.9737 10.3309 13.9415 9.8579 13.8736C9.31121 13.7952 8.9316 13.2885 9.01002 12.7418C9.08843 12.1951 9.59518 11.8155 10.1419 11.8939C10.9116 12.0043 11.2536 12.0023 11.829 11.9988C11.9179 11.9983 12.0124 11.9977 12.1149 11.9975C12.5088 11.9383 12.7567 11.8397 12.8865 11.7463C12.9454 11.704 12.9666 11.6724 12.9755 11.6558C12.9832 11.6413 12.9999 11.6047 12.9999 11.5211C12.9999 11.3468 12.9656 11.2693 12.9513 11.2433C12.9387 11.2203 12.9189 11.1948 12.8664 11.1638C12.7267 11.0813 12.4477 11.015 11.9999 11.015C11.414 11.015 10.6999 10.919 10.0996 10.549C9.42961 10.1361 8.99849 9.43735 8.99989 8.50732C9.00112 7.69023 9.31395 7.0191 9.87757 6.57355C10.2238 6.29988 10.6186 6.1474 10.9999 6.07012V6C10.9999 5.44772 11.4476 5 11.9999 5Z" fill="#0000CC"/>
<path d="M4 17C4 16.4477 3.55229 16 3 16C2.44772 16 2 16.4477 2 17L2 17.8385C1.99998 18.3657 1.99997 18.8205 2.03057 19.195C2.06287 19.5904 2.13419 19.9836 2.32698 20.362C2.6146 20.9265 3.07354 21.3854 3.63803 21.673C4.01641 21.8658 4.40963 21.9371 4.80497 21.9694C5.17954 22 5.6343 22 6.16144 22H17.8386C18.3657 22 18.8205 22 19.195 21.9694C19.5904 21.9371 19.9836 21.8658 20.362 21.673C20.9265 21.3854 21.3854 20.9265 21.673 20.362C21.8658 19.9836 21.9371 19.5904 21.9694 19.195C22 18.8205 22 18.3657 22 17.8386V17C22 16.4477 21.5523 16 21 16C20.4477 16 20 16.4477 20 17V17.8C20 18.3766 19.9992 18.7488 19.9761 19.0322C19.9539 19.3038 19.9162 19.4045 19.891 19.454C19.7951 19.6422 19.6422 19.7951 19.454 19.891C19.4045 19.9162 19.3038 19.9539 19.0322 19.9761C18.7488 19.9992 18.3766 20 17.8 20H6.2C5.62345 20 5.25117 19.9992 4.96784 19.9761C4.69617 19.9539 4.59546 19.9162 4.54601 19.891C4.35785 19.7951 4.20487 19.6422 4.109 19.454C4.0838 19.4045 4.04612 19.3038 4.02393 19.0322C4.00078 18.7488 4 18.3766 4 17.8V17Z" fill="#0000CC"/>
</svg>
