<svg width="24" height="24" viewBox="0 0 24 24" fill="none" xmlns="http://www.w3.org/2000/svg">
<path d="M14 14C14 14.5523 13.5523 15 13 15V13C13.5523 13 14 13.4477 14 14Z" fill="#0000CC"/>
<path d="M10 10C10 9.44772 10.4477 9 11 9V11C10.4477 11 10 10.5523 10 10Z" fill="#0000CC"/>
<path fill-rule="evenodd" clip-rule="evenodd" d="M12 22C17.5228 22 22 17.5228 22 12C22 6.47715 17.5228 2 12 2C6.47715 2 2 6.47715 2 12C2 17.5228 6.47715 22 12 22ZM13 6.5C13 5.94772 12.5523 5.5 12 5.5C11.4477 5.5 11 5.94772 11 6.5V7C9.34315 7 8 8.34315 8 10C8 11.6569 9.34315 13 11 13V15H10.9583C10.4291 15 10 14.5709 10 14.0417V14C10 13.4477 9.55229 13 9 13C8.44771 13 8 13.4477 8 14V14.0417C8 15.6755 9.32449 17 10.9583 17H11V17.5C11 18.0523 11.4477 18.5 12 18.5C12.5523 18.5 13 18.0523 13 17.5V17C14.6569 17 16 15.6569 16 14C16 12.3431 14.6569 11 13 11V9H13.0833C13.5896 9 14 9.41041 14 9.91667V10C14 10.5523 14.4477 11 15 11C15.5523 11 16 10.5523 16 10V9.91667C16 8.30584 14.6942 7 13.0833 7H13V6.5Z" fill="#0000CC"/>
</svg>
