<svg width="24" height="24" viewBox="0 0 24 24" fill="none" xmlns="http://www.w3.org/2000/svg">
<path fill-rule="evenodd" clip-rule="evenodd" d="M2 6C2 4.34315 3.34315 3 5 3H11C12.6569 3 14 4.34315 14 6C14 6.35064 13.9398 6.68722 13.8293 7H19C20.6569 7 22 8.34315 22 10C22 10.7684 21.7111 11.4692 21.2361 12C21.7111 12.5308 22 13.2316 22 14C22 14.7684 21.7111 15.4692 21.2361 16C21.7111 16.5308 22 17.2316 22 18C22 19.6569 20.6569 21 19 21H5C3.34315 21 2 19.6569 2 18C2 17.2316 2.28885 16.5308 2.7639 16C2.28885 15.4692 2 14.7684 2 14C2 13.2316 2.28885 12.5308 2.7639 12C2.28885 11.4692 2 10.7684 2 10C2 9.23165 2.28885 8.53076 2.76389 8C2.28885 7.46924 2 6.76835 2 6ZM5 7C4.44772 7 4 6.55228 4 6C4 5.44772 4.44772 5 5 5H11C11.5523 5 12 5.44772 12 6C12 6.55228 11.5523 7 11 7H5ZM11 9H5C4.44772 9 4 9.44772 4 10C4 10.5523 4.44772 11 5 11H11C11.5523 11 12 10.5523 12 10C12 9.44772 11.5523 9 11 9ZM13.8293 11C13.9398 10.6872 14 10.3506 14 10C14 9.64936 13.9398 9.31278 13.8293 9H19C19.5523 9 20 9.44772 20 10C20 10.5523 19.5523 11 19 11H13.8293ZM11 13H5C4.44772 13 4 13.4477 4 14C4 14.5523 4.44772 15 5 15H11C11.5523 15 12 14.5523 12 14C12 13.4477 11.5523 13 11 13ZM13.8293 15C13.9398 14.6872 14 14.3506 14 14C14 13.6494 13.9398 13.3128 13.8293 13H19C19.5523 13 20 13.4477 20 14C20 14.5523 19.5523 15 19 15H13.8293ZM11 17H5C4.44772 17 4 17.4477 4 18C4 18.5523 4.44772 19 5 19H11C11.5523 19 12 18.5523 12 18C12 17.4477 11.5523 17 11 17ZM13.8293 19C13.9398 18.6872 14 18.3506 14 18C14 17.6494 13.9398 17.3128 13.8293 17H19C19.5523 17 20 17.4477 20 18C20 18.5523 19.5523 19 19 19H13.8293Z" fill="#0000CC"/>
</svg>
