<svg width="24" height="24" viewBox="0 0 24 24" fill="none" xmlns="http://www.w3.org/2000/svg">
<path fill-rule="evenodd" clip-rule="evenodd" d="M20 12.8605C19.631 13.1284 19.2292 13.3674 18.8112 13.5764C18.5531 13.7055 18.2823 13.8268 18 13.9401V16.8957C18.7162 16.5727 19.2375 16.2152 19.5683 15.8676C19.9007 15.5184 20 15.2269 20 15V12.8605ZM17.308 19.2781C17.8299 19.1219 18.3195 18.9425 18.7701 18.7422C19.6608 18.3464 20.4435 17.8491 21.0171 17.2464C21.5956 16.6385 22 15.8777 22 15V9.5C22 7.67453 20.5462 6.29108 18.8112 5.42359C17.0164 4.52619 14.6069 4 12 4C9.39314 4 6.98362 4.52619 5.18883 5.42359C3.45384 6.29108 2 7.67453 2 9.5V15C2 15.8777 2.40438 16.6385 2.98287 17.2464C3.55645 17.8491 4.33918 18.3464 5.2299 18.7422C5.68054 18.9425 6.17012 19.1219 6.69201 19.2781C6.7068 19.2829 6.72175 19.2873 6.73684 19.2914C8.27145 19.7453 10.0817 20 12 20C13.9183 20 15.7286 19.7453 17.2632 19.2914C17.2782 19.2873 17.2932 19.2829 17.308 19.2781ZM16 17.5584V14.5606C15.0625 14.7774 14.0527 14.9189 13 14.974V17.9743C14.0853 17.9182 15.098 17.7723 16 17.5584ZM11 17.9743V14.974C9.94734 14.9189 8.93754 14.7774 8 14.5606V17.5584C8.902 17.7723 9.91467 17.9182 11 17.9743ZM6 16.8957V13.9401C5.71772 13.8268 5.44692 13.7055 5.18883 13.5764C4.77076 13.3674 4.36901 13.1284 4 12.8605V15C4 15.2269 4.0993 15.5184 4.43166 15.8676C4.76247 16.2152 5.28378 16.5727 6 16.8957Z" fill="#0000CC"/>
</svg>
