<svg width="24" height="24" viewBox="0 0 24 24" fill="none" xmlns="http://www.w3.org/2000/svg">
<path d="M2.00169 8H21.9983C21.9902 6.83507 21.9434 6.16873 21.673 5.63803C21.3854 5.07354 20.9265 4.6146 20.362 4.32698C19.7202 4 18.8802 4 17.2 4H6.8C5.11984 4 4.27976 4 3.63803 4.32698C3.07354 4.6146 2.6146 5.07354 2.32698 5.63803C2.05658 6.16873 2.00979 6.83507 2.00169 8Z" fill="#0000CC"/>
<path d="M22 10H2V15.2C2 16.8802 2 17.7202 2.32698 18.362C2.6146 18.9265 3.07354 19.3854 3.63803 19.673C4.27976 20 5.11984 20 6.8 20H12.1707C12.0601 19.6871 12 19.3504 12 18.9996C12.0002 17.3427 13.3436 15.9998 15.0004 16L16.1708 16.0002C16.3152 15.5905 16.5514 15.2059 16.8791 14.8782C18.0509 13.7069 19.9504 13.7073 21.1218 14.8791L21.9995 15.7572C22 15.5823 22 15.3969 22 15.2V10Z" fill="#0000CC"/>
<path d="M19.7073 16.293C19.3168 15.9024 18.6836 15.9023 18.293 16.2927C17.9024 16.6832 17.9023 17.3164 18.2927 17.707L18.5862 18.0005L15.0001 18C14.4479 17.9999 14.0001 18.4476 14 18.9999C13.9999 19.5521 14.4476 19.9999 14.9999 20L18.5854 20.0005L18.293 20.2927C17.9024 20.6832 17.9023 21.3164 18.2927 21.707C18.6832 22.0976 19.3164 22.0977 19.707 21.7073L21.707 19.7081C21.8945 19.5206 21.9999 19.2662 22 19.001C22.0001 18.7358 21.8947 18.4814 21.7073 18.2939L19.7073 16.293Z" fill="#0000CC"/>
</svg>
