<svg width="24" height="24" viewBox="0 0 24 24" fill="none" xmlns="http://www.w3.org/2000/svg">
<path fill-rule="evenodd" clip-rule="evenodd" d="M6.16146 4H17.8385C18.3657 3.99999 18.8205 3.99997 19.195 4.03057C19.5904 4.06287 19.9836 4.13419 20.362 4.32698C20.9265 4.61461 21.3854 5.07355 21.673 5.63803C21.8658 6.01641 21.9371 6.40963 21.9694 6.80498C22 7.17954 22 7.6343 22 8.16144V12.3006C20.7471 11.7341 19.2218 11.9683 18.1941 13.0032L18.181 13.0163C18.1223 13.0056 18.0618 13 18 13H14C13.4477 13 13 13.4477 13 14C13 14.5523 13.4477 15 14 15H16.2111L14.1674 17.0579C13.7842 17.4432 13.441 17.7884 13.1563 18.1908C12.9059 18.5447 12.6955 18.9251 12.5288 19.3252C12.4376 19.5442 12.3647 19.7678 12.2998 20H6.16134C5.63426 20 5.17951 20 4.80498 19.9694C4.40963 19.9371 4.01641 19.8658 3.63803 19.673C3.07355 19.3854 2.61461 18.9265 2.32699 18.362C2.13419 17.9836 2.06288 17.5904 2.03057 17.195C1.99997 16.8205 1.99999 16.3657 2 15.8386V8.16139C1.99999 7.6343 1.99997 7.17951 2.03057 6.80498C2.06288 6.40963 2.13419 6.01641 2.32699 5.63803C2.61461 5.07355 3.07355 4.6146 3.63803 4.32698C4.01641 4.13419 4.40963 4.06287 4.80498 4.03057C5.17952 3.99997 5.63436 3.99999 6.16146 4ZM8.99993 8.5C8.99993 7.94772 8.55221 7.5 7.99993 7.5C7.44764 7.5 6.99993 7.94772 6.99993 8.5V8.55665C6.90719 8.56913 6.81782 8.5839 6.73181 8.60118C6.36972 8.67394 6.00643 8.80297 5.7002 9.0487C5.02618 9.58958 5.0009 10.3802 5.00002 10.8306L4.99991 10.8689C4.99926 11.0593 4.99831 11.3397 5.05101 11.5961C5.11984 11.931 5.29011 12.2967 5.66685 12.5667C5.98934 12.7978 6.36977 12.8879 6.70585 12.9346C7.05712 12.9835 7.48761 13 8.00002 13C8.46727 13 8.78282 13.0118 8.99979 13.0356C8.99999 13.0744 9.00002 13.1176 9.00002 13.1667C9.00002 13.2787 8.99895 13.3506 8.9965 13.4002C8.97572 13.4069 8.95025 13.4142 8.9194 13.4217C8.74511 13.4642 8.45758 13.5 8.00002 13.5H6.00002C5.44774 13.5 5.00002 13.9477 5.00002 14.5C5.00002 15.0523 5.44774 15.5 6.00002 15.5H6.99993C6.99993 16.0522 7.44758 16.5 7.99983 16.5C8.55212 16.5001 8.99988 16.0524 8.99993 15.5001L8.99993 15.4395C9.5833 15.3567 10.082 15.1761 10.4471 14.8212C11.012 14.2721 11.0039 13.5331 11.0005 13.2242C11.0002 13.2029 11 13.1837 11 13.1667L11.0001 13.1243C11.0004 12.9224 11.0008 12.6368 10.9489 12.3806C10.8803 12.0415 10.7075 11.6671 10.3158 11.3983C9.98778 11.1733 9.60351 11.0942 9.27729 11.0544C8.93242 11.0124 8.50666 11 8.00002 11C7.52669 11 7.21154 10.984 7.00002 10.9562C6.99988 10.9203 6.99993 10.8802 7.00002 10.8345C7.00025 10.7182 7.0048 10.641 7.01027 10.5904C7.03839 10.5818 7.0762 10.572 7.12579 10.562C7.30604 10.5258 7.58224 10.5 7.99993 10.5H10C10.5523 10.5 11 10.0523 11 9.5C11 8.94772 10.5523 8.5 10 8.5H8.99993ZM14 9C13.4477 9 13 9.44772 13 10C13 10.5523 13.4477 11 14 11H18C18.5523 11 19 10.5523 19 10C19 9.44772 18.5523 9 18 9H14Z" fill="#0000CC"/>
<path d="M21.5911 14.4125C21.0449 13.8625 20.1593 13.8625 19.6131 14.4125L15.6654 18.3878C15.205 18.8514 14.9748 19.0832 14.7889 19.346C14.6238 19.5793 14.485 19.8303 14.375 20.0944C14.251 20.3919 14.1765 20.711 14.0275 21.3492L14.0138 21.4081C13.9342 21.7488 14.2309 22.0584 14.5719 21.9906C15.2535 21.8549 15.5944 21.7871 15.9122 21.6622C16.1943 21.5513 16.4624 21.4072 16.7109 21.2329C16.9909 21.0366 17.2365 20.7892 17.7278 20.2945L21.5911 16.4043C22.1373 15.8542 22.1373 14.9625 21.5911 14.4125Z" fill="#0000CC"/>
</svg>
