<svg width="24" height="24" viewBox="0 0 24 24" fill="none" xmlns="http://www.w3.org/2000/svg">
<path fill-rule="evenodd" clip-rule="evenodd" d="M17.8385 2H6.16146C5.63436 1.99999 5.17952 1.99997 4.80498 2.03057C4.40963 2.06287 4.01641 2.13419 3.63803 2.32698C3.07355 2.6146 2.6146 3.07355 2.32698 3.63803C2.13419 4.01641 2.06287 4.40963 2.03057 4.80498C1.99997 5.17952 1.99999 5.63429 2 6.16139V11.8386C1.99999 12.3657 1.99997 12.8205 2.03057 13.195C2.06287 13.5904 2.13419 13.9836 2.32698 14.362C2.6146 14.9265 3.07355 15.3854 3.63803 15.673C4.01641 15.8658 4.40963 15.9371 4.80498 15.9694C5.17955 16 5.63431 16 6.16145 16H17.8385C18.3657 16 18.8205 16 19.195 15.9694C19.5904 15.9371 19.9836 15.8658 20.362 15.673C20.9265 15.3854 21.3854 14.9265 21.673 14.362C21.8658 13.9836 21.9371 13.5904 21.9694 13.195C22 12.8205 22 12.3657 22 11.8386V6.16144C22 5.6343 22 5.17954 21.9694 4.80498C21.9371 4.40963 21.8658 4.01641 21.673 3.63803C21.3854 3.07355 20.9265 2.6146 20.362 2.32698C19.9836 2.13419 19.5904 2.06287 19.195 2.03057C18.8205 1.99997 18.3657 1.99999 17.8385 2ZM5 7C6.10457 7 7 6.10457 7 5C7 4.63571 6.90261 4.29418 6.73244 4H6.2C5.62345 4 5.25117 4.00078 4.96784 4.02393C4.69617 4.04612 4.59546 4.0838 4.54601 4.109C4.35785 4.20487 4.20487 4.35785 4.109 4.54601C4.0838 4.59546 4.04612 4.69617 4.02393 4.96784C4.00078 5.25117 4 5.62345 4 6.2V6.73244C4.29418 6.90261 4.63571 7 5 7ZM6.73244 14H6.2C5.62345 14 5.25117 13.9992 4.96784 13.9761C4.69617 13.9539 4.59546 13.9162 4.54601 13.891C4.35785 13.7951 4.20487 13.6422 4.109 13.454C4.0838 13.4045 4.04612 13.3038 4.02393 13.0322C4.00078 12.7488 4 12.3766 4 11.8V11.2676C4.29418 11.0974 4.63571 11 5 11C6.10457 11 7 11.8954 7 13C7 13.3643 6.90261 13.7058 6.73244 14ZM20 11.8V11.2676C19.7058 11.0974 19.3643 11 19 11C17.8954 11 17 11.8954 17 13C17 13.3643 17.0974 13.7058 17.2676 14H17.8C18.3766 14 18.7488 13.9992 19.0322 13.9761C19.3038 13.9539 19.4045 13.9162 19.454 13.891C19.6422 13.7951 19.7951 13.6422 19.891 13.454C19.9162 13.4045 19.9539 13.3038 19.9761 13.0322C19.9992 12.7488 20 12.3766 20 11.8ZM17.2676 4H17.8C18.3766 4 18.7488 4.00078 19.0322 4.02393C19.3038 4.04612 19.4045 4.0838 19.454 4.109C19.6422 4.20487 19.7951 4.35785 19.891 4.54601C19.9162 4.59546 19.9539 4.69617 19.9761 4.96784C19.9992 5.25117 20 5.62345 20 6.2V6.73244C19.7058 6.90261 19.3643 7 19 7C17.8954 7 17 6.10457 17 5C17 4.63571 17.0974 4.29418 17.2676 4ZM15 9C15 10.6569 13.6569 12 12 12C10.3431 12 9 10.6569 9 9C9 7.34315 10.3431 6 12 6C13.6569 6 15 7.34315 15 9Z" fill="#0000CC"/>
<path d="M3 17C2.44772 17 2 17.4477 2 18C2 18.5523 2.44772 19 3 19H21C21.5523 19 22 18.5523 22 18C22 17.4477 21.5523 17 21 17H3Z" fill="#0000CC"/>
<path d="M3 20C2.44772 20 2 20.4477 2 21C2 21.5523 2.44772 22 3 22H21C21.5523 22 22 21.5523 22 21C22 20.4477 21.5523 20 21 20H3Z" fill="#0000CC"/>
</svg>
