<svg width="24" height="24" viewBox="0 0 24 24" fill="none" xmlns="http://www.w3.org/2000/svg">
<path fill-rule="evenodd" clip-rule="evenodd" d="M2.32698 6.63803C2 7.27976 2 8.11984 2 9.8V14.2C2 15.8802 2 16.7202 2.32698 17.362C2.6146 17.9265 3.07354 18.3854 3.63803 18.673C4.27976 19 5.11984 19 6.8 19H17.2C18.8802 19 19.7202 19 20.362 18.673C20.9265 18.3854 21.3854 17.9265 21.673 17.362C22 16.7202 22 15.8802 22 14.2V9.8C22 8.11984 22 7.27976 21.673 6.63803C21.3854 6.07354 20.9265 5.6146 20.362 5.32698C19.7202 5 18.8802 5 17.2 5H6.8C5.11984 5 4.27976 5 3.63803 5.32698C3.07354 5.6146 2.6146 6.07354 2.32698 6.63803ZM6 10C6 9.44772 6.44772 9 7 9H17C17.5523 9 18 9.44772 18 10C18 10.5523 17.5523 11 17 11H7C6.44771 11 6 10.5523 6 10ZM6 14C6 13.4477 6.44772 13 7 13H17C17.5523 13 18 13.4477 18 14C18 14.5523 17.5523 15 17 15H7C6.44771 15 6 14.5523 6 14Z" fill="#0000CC"/>
</svg>
