<svg width="24" height="24" viewBox="0 0 24 24" fill="none" xmlns="http://www.w3.org/2000/svg">
<path fill-rule="evenodd" clip-rule="evenodd" d="M8.76078 3H15.2392C16.046 2.99999 16.7083 2.99998 17.2471 3.04141C17.8046 3.08428 18.3145 3.17596 18.7944 3.40607C19.5417 3.76442 20.1606 4.34181 20.5524 5.06559C20.8078 5.53724 20.9087 6.03899 20.9554 6.57668C21 7.09101 21 7.72057 21 8.47458V15.5254C21 16.2794 21 16.909 20.9554 17.4233C20.9087 17.961 20.8078 18.4628 20.5524 18.9344C20.1606 19.6582 19.5416 20.2356 18.7944 20.5939C18.3145 20.824 17.8046 20.9157 17.2471 20.9586C16.7083 21 16.046 21 15.2392 21H8.76083C7.95405 21 7.29174 21 6.75294 20.9586C6.19542 20.9157 5.68547 20.824 5.20563 20.5939C4.45836 20.2356 3.83942 19.6582 3.44758 18.9344C3.19225 18.4628 3.0913 17.961 3.04462 17.4233C2.99997 16.909 2.99999 16.2795 3 15.5255V8.47456C2.99999 7.72059 2.99997 7.09099 3.04462 6.57668C3.0913 6.03899 3.19225 5.53724 3.44758 5.06559C3.83942 4.34181 4.45836 3.76442 5.20563 3.40607C5.68547 3.17596 6.19542 3.08428 6.75294 3.04141C7.29172 2.99998 7.95405 2.99999 8.76078 3ZM5.00426 16.4666C5.00877 16.7761 5.01805 17.0305 5.03713 17.2504C5.0722 17.6543 5.13474 17.8499 5.20638 17.9822C5.38979 18.321 5.68873 18.6075 6.07043 18.7906C6.23233 18.8682 6.46328 18.9304 6.90628 18.9645C7.35929 18.9993 7.94439 19 8.8 19H9V17H7.86252C7.06713 17.0005 6.47647 17.0008 5.96482 16.8637C5.6242 16.7724 5.30198 16.638 5.00426 16.4666ZM15 17V19H15.2C16.0556 19 16.6407 18.9993 17.0937 18.9645C17.5367 18.9304 17.7677 18.8682 17.9296 18.7906C18.3113 18.6075 18.6102 18.321 18.7936 17.9822C18.8653 17.8499 18.9278 17.6543 18.9629 17.2504C18.982 17.0306 18.9912 16.7762 18.9957 16.4667C18.6981 16.6381 18.3759 16.7725 18.0354 16.8637C17.5237 17.0008 16.9331 17.0005 16.1377 17H15ZM15 13H16.1377C16.9331 13.0005 17.5237 13.0008 18.0354 12.8637C18.3772 12.7721 18.7005 12.6371 18.9991 12.4648C18.9955 13.0981 18.981 13.3346 18.932 13.5176C18.747 14.2078 18.2079 14.7469 17.5177 14.9319C17.2955 14.9914 16.9945 15 16.0001 15H15V13ZM9 13V15H8.0001C7.00574 15 6.70474 14.9914 6.48246 14.9319C5.79228 14.7469 5.25318 14.2078 5.06825 13.5176C5.01919 13.3346 5.00471 13.0981 5.00113 12.4648C5.29972 12.6371 5.62301 12.7721 5.96482 12.8637C6.47647 13.0008 7.06713 13.0005 7.86252 13H9ZM8 8C8 8.55229 7.55229 9 7 9C6.44772 9 6 8.55229 6 8C6 7.44772 6.44772 7 7 7C7.55229 7 8 7.44772 8 8ZM17 9C17.5523 9 18 8.55229 18 8C18 7.44772 17.5523 7 17 7C16.4477 7 16 7.44772 16 8C16 8.55229 16.4477 9 17 9ZM13 5H11V11H13V5Z" fill="#0000CC"/>
</svg>
