<svg width="24" height="24" viewBox="0 0 24 24" fill="none" xmlns="http://www.w3.org/2000/svg">
<path fill-rule="evenodd" clip-rule="evenodd" d="M20.4569 2.92174C20.6458 3.44072 20.3782 4.01456 19.8592 4.20345L15.1608 5.91355C15.1072 5.93304 15.0531 5.94766 14.9989 5.95765C14.9991 5.97174 14.9992 5.98586 14.9992 6C14.9992 7.30622 14.1644 8.41746 12.9992 8.82929V20H19.9992C20.5515 20 20.9992 20.4477 20.9992 21C20.9992 21.5523 20.5515 22 19.9992 22H11.9992C11.4469 22 10.9992 21.5523 10.9992 21V8.82929C10.4802 8.64584 10.0267 8.3236 9.68336 7.90717L4.82416 9.67578C4.30518 9.86467 3.73134 9.59708 3.54244 9.0781C3.35355 8.55913 3.62114 7.98528 4.14012 7.79639L8.99935 6.02777C8.99927 6.01852 8.99923 6.00927 8.99923 6C8.99923 4.34314 10.3424 3 11.9992 3C12.9371 3 13.7744 3.43035 14.3245 4.10435C14.3724 4.07719 14.4233 4.05363 14.4767 4.03417L19.1752 2.32407C19.6942 2.13518 20.268 2.40276 20.4569 2.92174ZM17.9992 8C18.3605 8 18.6937 8.19486 18.8708 8.50974L21.6653 13.4778C21.6697 13.4855 21.6742 13.4935 21.6788 13.5016C21.7425 13.6145 21.8246 13.7599 21.8868 13.9508C21.9352 14.0993 21.9744 14.3109 21.9825 14.4669C21.9927 14.6645 21.975 14.7859 21.9587 14.8965C21.6606 16.9284 19.8594 18 17.9992 18C16.0451 18 14.4289 16.5221 14.0733 14.9722C14.0447 14.8474 14.0281 14.7444 14.0274 14.5536C14.0269 14.4429 14.0415 14.3269 14.0512 14.2599C14.0609 14.1929 14.0797 14.0775 14.1114 13.9714C14.1756 13.7571 14.2578 13.6114 14.323 13.4958C14.3264 13.4897 14.3298 13.4837 14.3331 13.4778L17.1276 8.50974C17.3048 8.19486 17.638 8 17.9992 8ZM5.99923 12C6.3605 12 6.69368 12.1949 6.8708 12.5097L9.66532 17.4778C9.6697 17.4856 9.67418 17.4935 9.67876 17.5016C9.74251 17.6145 9.82462 17.7599 9.8868 17.9508C9.9352 18.0993 9.97443 18.3109 9.98251 18.4669C9.99274 18.6645 9.97497 18.7859 9.95874 18.8965C9.66059 20.9284 7.85945 22 5.99923 22C4.04507 22 2.42886 20.5221 2.07331 18.9722C2.04469 18.8474 2.02814 18.7444 2.02735 18.5536C2.0269 18.4429 2.04149 18.3269 2.05117 18.2599C2.06085 18.1929 2.07967 18.0775 2.11144 17.9714C2.17565 17.7571 2.25777 17.6114 2.32297 17.4958C2.3264 17.4897 2.32979 17.4837 2.33313 17.4778L5.12765 12.5097C5.30477 12.1949 5.63795 12 5.99923 12Z" fill="#0000CC"/>
</svg>
