<svg width="24" height="24" viewBox="0 0 24 24" fill="none" xmlns="http://www.w3.org/2000/svg">
<path fill-rule="evenodd" clip-rule="evenodd" d="M9.5 9C8.11929 9 7 10.1193 7 11.5C7 12.8807 8.11929 14 9.5 14C10.8807 14 12 12.8807 12 11.5C12 10.1193 10.8807 9 9.5 9Z" fill="#0000CC"/>
<path fill-rule="evenodd" clip-rule="evenodd" d="M2 9.4C2 7.15979 2 6.03969 2.43597 5.18404C2.81947 4.43139 3.43139 3.81947 4.18404 3.43597C5.03969 3 6.15979 3 8.4 3H15.6C17.8402 3 18.9603 3 19.816 3.43597C20.5686 3.81947 21.1805 4.43139 21.564 5.18404C22 6.03969 22 7.15979 22 9.4V13.6C22 15.8402 22 16.9603 21.564 17.816C21.1805 18.5686 20.5686 19.1805 19.816 19.564C19.3409 19.8061 18.7844 19.9137 18 19.9616V21C18 21.5523 17.5523 22 17 22C16.4477 22 16 21.5523 16 21V19.9999H8V21C8 21.5523 7.55228 22 7 22C6.44772 22 6 21.5523 6 21V19.9616C5.21558 19.9137 4.65905 19.8061 4.18404 19.564C3.43139 19.1805 2.81947 18.5686 2.43597 17.816C2 16.9603 2 15.8402 2 13.6V9.4ZM5 11.5C5 9.01472 7.01472 7 9.5 7C11.9853 7 14 9.01472 14 11.5C14 13.9853 11.9853 16 9.5 16C7.01472 16 5 13.9853 5 11.5ZM15 10C15 8.89543 15.8954 8 17 8C18.1046 8 19 8.89543 19 10C19 10.7403 18.5978 11.3866 18 11.7324V14C18 14.5523 17.5523 15 17 15C16.4477 15 16 14.5523 16 14V11.7324C15.4022 11.3866 15 10.7403 15 10Z" fill="#0000CC"/>
</svg>
