<svg width="24" height="24" viewBox="0 0 24 24" fill="none" xmlns="http://www.w3.org/2000/svg">
<path fill-rule="evenodd" clip-rule="evenodd" d="M14.8385 3H6.16146C5.63433 2.99998 5.17954 2.99997 4.80497 3.03057C4.40963 3.06287 4.01641 3.13419 3.63803 3.32698C3.07355 3.6146 2.6146 4.07354 2.32698 4.63803C2.13419 5.01641 2.06287 5.40963 2.03057 5.80497C1.99997 6.17954 1.99998 6.63429 2 7.16142V16.8385C1.99998 17.3657 1.99997 17.8205 2.03057 18.195C2.06287 18.5904 2.13419 18.9836 2.32698 19.362C2.6146 19.9265 3.07354 20.3854 3.63803 20.673C4.01641 20.8658 4.40963 20.9371 4.80497 20.9694C5.17954 21 5.6343 21 6.16144 21H17.8386C18.3657 21 18.8205 21 19.195 20.9694C19.5904 20.9371 19.9836 20.8658 20.362 20.673C20.9265 20.3854 21.3854 19.9265 21.673 19.362C21.8658 18.9836 21.9371 18.5904 21.9694 18.195C22 17.8205 22 17.3657 22 16.8386V11.1614C22 10.6343 22 10.1795 21.9694 9.80498C21.9371 9.40963 21.8658 9.01641 21.673 8.63803C21.3854 8.07355 20.9265 7.6146 20.362 7.32698C19.9836 7.13419 19.5904 7.06287 19.195 7.03057C19.1323 7.02544 19.0672 7.02118 19 7.01762C18.9998 6.5512 18.9972 6.14504 18.9694 5.80497C18.9371 5.40963 18.8658 5.01641 18.673 4.63803C18.3854 4.07355 17.9265 3.6146 17.362 3.32698C16.9836 3.13419 16.5904 3.06287 16.195 3.03057C15.8205 2.99997 15.3657 2.99998 14.8385 3ZM16.9761 5.96784C16.9964 6.21698 16.9995 6.5349 16.9999 7H4.00007C4.00052 6.5349 4.00357 6.21698 4.02393 5.96784C4.04613 5.69618 4.0838 5.59546 4.109 5.54601C4.20487 5.35785 4.35785 5.20487 4.54601 5.109C4.59546 5.0838 4.69618 5.04613 4.96784 5.02393C5.25118 5.00078 5.62345 5 6.2 5H14.8C15.3766 5 15.7488 5.00078 16.0322 5.02393C16.3038 5.04613 16.4046 5.0838 16.454 5.109C16.6422 5.20487 16.7951 5.35785 16.891 5.54601C16.9162 5.59546 16.9539 5.69618 16.9761 5.96784ZM17.5 12.5C16.6716 12.5 16 13.1716 16 14C16 14.8284 16.6716 15.5 17.5 15.5H20V12.5H17.5Z" fill="#0000CC"/>
</svg>
