<svg width="24" height="24" viewBox="0 0 24 24" fill="none" xmlns="http://www.w3.org/2000/svg">
<path d="M14 5C14 6.10457 13.1046 7 12 7C10.8954 7 10 6.10457 10 5C10 3.89543 10.8954 3 12 3C13.1046 3 14 3.89543 14 5Z" fill="#0000CC"/>
<path d="M6 8C6 9.10457 5.10457 10 4 10C2.89543 10 2 9.10457 2 8C2 6.89543 2.89543 6 4 6C5.10457 6 6 6.89543 6 8Z" fill="#0000CC"/>
<path d="M20 10C21.1046 10 22 9.10457 22 8C22 6.89543 21.1046 6 20 6C18.8954 6 18 6.89543 18 8C18 9.10457 18.8954 10 20 10Z" fill="#0000CC"/>
<path opacity="0.3" d="M10.6918 6.51312L9.73705 8.74083C9.44829 9.41461 9.25698 9.85863 9.08436 10.1794C8.91495 10.4943 8.81833 10.5817 8.77261 10.6139C8.56968 10.7568 8.32083 10.8192 8.07447 10.7889C8.01896 10.782 7.89255 10.7505 7.59466 10.5528C7.29114 10.3514 6.91302 10.0501 6.3406 9.59211L5.68909 9.0709C5.33433 9.62938 4.71028 9.99999 3.99966 9.99999C3.68755 9.99999 3.39214 9.9285 3.12891 9.80099L5.01579 20.1789C5.10225 20.6544 5.51638 21 5.99966 21H17.9997C18.483 21 18.8971 20.6544 18.9835 20.1789L20.8704 9.80099C20.6072 9.9285 20.3118 9.99999 19.9997 9.99999C19.289 9.99999 18.665 9.62938 18.3102 9.0709L17.6587 9.59212C17.0863 10.0501 16.7082 10.3514 16.4047 10.5528C16.1068 10.7505 15.9804 10.782 15.9249 10.7889C15.6785 10.8192 15.4296 10.7568 15.2267 10.6139C15.181 10.5817 15.0844 10.4943 14.915 10.1794C14.7424 9.85863 14.551 9.41461 14.2623 8.74082L13.3075 6.51312C12.9569 6.81648 12.4997 6.99999 11.9997 6.99999C11.4996 6.99999 11.0424 6.81648 10.6918 6.51312Z" fill="#0000CC"/>
</svg>
