<svg width="24" height="24" viewBox="0 0 24 24" fill="none" xmlns="http://www.w3.org/2000/svg">
<path opacity="0.3" fill-rule="evenodd" clip-rule="evenodd" d="M3.32698 4.63803C3 5.27976 3 6.11984 3 7.8V16.2C3 17.8802 3 18.7202 3.32698 19.362C3.6146 19.9265 4.07354 20.3854 4.63803 20.673C5.27976 21 6.11984 21 7.8 21H16.2C17.8802 21 18.7202 21 19.362 20.673C19.9265 20.3854 20.3854 19.9265 20.673 19.362C21 18.7202 21 17.8802 21 16.2V7.8C21 6.11984 21 5.27976 20.673 4.63803C20.3854 4.07354 19.9265 3.6146 19.362 3.32698C18.7202 3 17.8802 3 16.2 3H7.8C6.11984 3 5.27976 3 4.63803 3.32698C4.07354 3.6146 3.6146 4.07354 3.32698 4.63803Z" fill="#0000CC"/>
<path fill-rule="evenodd" clip-rule="evenodd" d="M16 9C16 9.55229 15.5523 10 15 10C14.4477 10 14 9.55229 14 9C14 8.44771 14.4477 8 15 8C15.5523 8 16 8.44771 16 9ZM10 15C10 15.5523 9.55229 16 9 16C8.44771 16 8 15.5523 8 15C8 14.4477 8.44771 14 9 14C9.55229 14 10 14.4477 10 15Z" fill="#0000CC"/>
</svg>
