<svg width="24" height="24" viewBox="0 0 24 24" fill="none" xmlns="http://www.w3.org/2000/svg">
<path opacity="0.3" d="M12 20.9998C12.1375 20.9993 12.275 20.9793 12.4077 20.9398C12.6118 20.8791 12.7639 20.78 12.8675 20.7022C12.9532 20.6379 13.0419 20.5596 13.1101 20.4992L13.1247 20.4863C13.8583 19.8388 15.3459 18.513 16.8372 17.1099C18.3093 15.7248 19.8478 14.2063 20.6387 13.1918C22.7335 10.5048 22.4064 6.65853 19.6866 4.40509C17.2063 2.35014 14.118 2.77563 12 4.59007V20.9998Z" fill="#0000CC"/>
<path d="M12 4.5901C11.9998 4.59024 12.0002 4.58995 12 4.5901C9.87682 2.77561 6.74487 2.32381 4.29094 4.41386C1.63366 6.67712 1.2456 10.4934 3.34925 13.1918C4.14012 14.2063 5.67858 15.7248 7.15069 17.1099C8.642 18.513 10.1297 19.8388 10.8632 20.4864L10.8777 20.4992C10.946 20.5595 11.0347 20.6379 11.1204 20.7022C11.224 20.78 11.3761 20.8791 11.5803 20.9398C11.7168 20.9804 11.8584 21.0004 12 20.9999V4.5901Z" fill="#0000CC"/>
</svg>
