<svg width="24" height="24" viewBox="0 0 24 24" fill="none" xmlns="http://www.w3.org/2000/svg">
<path opacity="0.3" d="M13 17.9184C13.7179 17.2727 14.5924 16.4758 15.4666 15.6533C16.955 14.2528 18.38 12.8359 19.0612 11.9622C20.5075 10.107 20.2772 7.49182 18.4104 5.94518C16.7123 4.53822 14.5174 4.84332 13 6.38848V17.9184Z" fill="#0000CC"/>
<path fill-rule="evenodd" clip-rule="evenodd" d="M11.9995 4.59061C9.87633 2.77613 6.7449 2.32372 4.29094 4.4138C1.63366 6.67706 1.2456 10.4934 3.34925 13.1918C4.14012 14.2063 5.67858 15.7247 7.15069 17.1098C8.642 18.513 10.1297 19.8387 10.8632 20.4863C10.8679 20.4905 10.8727 20.4947 10.8777 20.4991C10.9459 20.5594 11.0347 20.6379 11.1204 20.7022C11.224 20.78 11.3761 20.8791 11.5803 20.9398C11.7232 20.9823 11.8696 21.0016 12.0135 20.9997C12.1446 20.9979 12.2775 20.9785 12.4077 20.9398C12.6118 20.8791 12.7639 20.78 12.8675 20.7022C12.9532 20.6379 13.042 20.5594 13.1103 20.4991L13.1247 20.4863C13.8583 19.8387 15.3459 18.513 16.8372 17.1098C18.3093 15.7247 19.8478 14.2063 20.6387 13.1918C22.7335 10.5048 22.4064 6.65849 19.6866 4.40506C17.2061 2.34992 14.1175 2.7758 11.9995 4.59061ZM13.0001 17.9183C13.7181 17.2727 14.5925 16.4758 15.4667 15.6532C16.9551 14.2528 18.3802 12.8359 19.0614 11.9621C20.5076 10.107 20.2773 7.49178 18.4106 5.94514C16.7124 4.53818 14.5175 4.84328 13.0001 6.38844V17.9183Z" fill="#0000CC"/>
</svg>
