<svg width="24" height="24" viewBox="0 0 24 24" fill="none" xmlns="http://www.w3.org/2000/svg">
<path opacity="0.3" d="M12.7459 2.28419C12.2565 2.15852 11.7432 2.15852 11.2538 2.28419C10.694 2.42792 10.2057 2.78378 9.64934 3.18928L3.664 7.53789C3.10642 7.94171 2.6171 8.2961 2.30742 8.78409C2.03665 9.21074 1.87805 9.69888 1.84632 10.2032C1.81003 10.78 1.99759 11.3543 2.21132 12.0088L4.49752 19.045C4.70928 19.7 4.89512 20.2749 5.26352 20.7202C5.58562 21.1096 6.00085 21.4113 6.47068 21.5973C7.00805 21.8101 7.61222 21.8092 8.30066 21.8081H15.699C16.3874 21.8092 16.9916 21.8101 17.529 21.5973C17.9988 21.4113 18.414 21.1096 18.7361 20.7202C19.1045 20.2749 19.2904 19.7001 19.5021 19.045L21.743 12.1478L21.7883 12.0088C22.0021 11.3543 22.1896 10.78 22.1533 10.2032C22.1216 9.69888 21.963 9.21074 21.6922 8.78409C21.3825 8.2961 20.8932 7.94172 20.3356 7.53789L14.3503 3.18928C13.7939 2.78378 13.3057 2.42792 12.7459 2.28419Z" fill="#0000CC"/>
</svg>
