<svg width="24" height="24" viewBox="0 0 24 24" fill="none" xmlns="http://www.w3.org/2000/svg">
<path opacity="0.3" fill-rule="evenodd" clip-rule="evenodd" d="M11.3818 1.51207C11.7835 1.38156 12.2162 1.38156 12.6179 1.51207C12.9076 1.60621 13.1295 1.76578 13.3043 1.91421C13.4636 2.04938 13.6373 2.2232 13.8158 2.40169L15.2383 3.82423C15.331 3.91687 15.3774 3.96293 15.4125 3.99497L15.4151 3.99739L15.4187 3.99756C15.4662 3.99973 15.5316 3.99997 15.6626 3.99997L17.4317 3.99997C17.6841 3.99994 17.9299 3.99991 18.1381 4.01692C18.3667 4.03559 18.6364 4.07966 18.9078 4.21796C19.2842 4.40971 19.5901 4.71567 19.7819 5.09199C19.9202 5.36341 19.9642 5.63315 19.9829 5.86174C19.9999 6.06989 19.9999 6.31568 19.9999 6.56806L19.9998 8.33723C19.9998 8.46823 20.0001 8.53361 20.0023 8.5811L20.0024 8.58469L20.0048 8.58735C20.0369 8.62246 20.083 8.66886 20.1756 8.76149L21.5981 10.184C21.7766 10.3625 21.9504 10.5363 22.0856 10.6955C22.234 10.8703 22.3936 11.0922 22.4877 11.3819C22.6183 11.7836 22.6183 12.2163 22.4877 12.618C22.3936 12.9077 22.234 13.1296 22.0856 13.3045C21.9504 13.4637 21.7766 13.6375 21.5981 13.8159L20.1756 15.2384C20.083 15.3311 20.0369 15.3775 20.0048 15.4126L20.0024 15.4153L20.0023 15.4188C20.0001 15.4663 19.9998 15.5317 19.9998 15.6627L19.9999 17.4319C19.9999 17.6843 19.9999 17.93 19.9829 18.1382C19.9642 18.3668 19.9202 18.6365 19.7819 18.908C19.5901 19.2843 19.2842 19.5902 18.9078 19.782C18.6364 19.9203 18.3667 19.9643 18.1381 19.983C17.9299 20 17.6841 20 17.4318 20L15.6626 20C15.5316 20 15.4662 20.0002 15.4187 20.0024L15.4151 20.0026L15.4125 20.005C15.3774 20.037 15.331 20.0831 15.2383 20.1757L13.8157 21.5983C13.6373 21.7768 13.4635 21.9506 13.3043 22.0857C13.1295 22.2342 12.9076 22.3937 12.6179 22.4879C12.2162 22.6184 11.7835 22.6184 11.3818 22.4879C11.0921 22.3937 10.8702 22.2342 10.6954 22.0857C10.5361 21.9506 10.3624 21.7767 10.1839 21.5983L8.76137 20.1757C8.66874 20.0831 8.62234 20.037 8.58722 20.005L8.58456 20.0026L8.58098 20.0024C8.53349 20.0002 8.46811 20 8.33711 20L6.56793 20C6.31556 20 6.06977 20 5.86162 19.983C5.63303 19.9643 5.36329 19.9203 5.09187 19.782C4.71554 19.5902 4.40958 19.2843 4.21784 18.908C4.07954 18.6365 4.03547 18.3668 4.01679 18.1382C3.99979 17.93 3.99982 17.6843 3.99985 17.4319L3.99985 15.6627C3.99985 15.5317 3.99961 15.4663 3.99744 15.4188L3.99727 15.4153L3.99485 15.4126C3.96281 15.3775 3.91674 15.3311 3.82411 15.2384L2.40156 13.8159C2.22307 13.6375 2.04925 13.4637 1.91409 13.3045C1.76565 13.1296 1.60608 12.9077 1.51195 12.618C1.38143 12.2163 1.38143 11.7836 1.51195 11.3819C1.60608 11.0922 1.76565 10.8703 1.91409 10.6955C2.04925 10.5363 2.22307 10.3625 2.40155 10.1841L2.42411 10.1615L3.82411 8.76149C3.91674 8.66886 3.96281 8.62246 3.99485 8.58735L3.99727 8.58469L3.99744 8.5811C3.99961 8.53361 3.99985 8.46823 3.99985 8.33723V6.59997C3.99985 6.58933 3.99985 6.57869 3.99985 6.56807C3.99982 6.31569 3.99979 6.0699 4.01679 5.86174C4.03547 5.63315 4.07954 5.36341 4.21784 5.09199C4.40958 4.71567 4.71554 4.4097 5.09187 4.21796C5.36329 4.07966 5.63303 4.03559 5.86162 4.01692C6.06978 3.99991 6.31557 3.99994 6.56795 3.99997C6.57857 3.99997 6.58921 3.99997 6.59985 3.99997H8.33711C8.46811 3.99997 8.53349 3.99973 8.58098 3.99756L8.58457 3.99739L8.58722 3.99498C8.62234 3.96293 8.66874 3.91687 8.76137 3.82423L10.1839 2.40168C10.3624 2.2232 10.5361 2.04938 10.6954 1.91421C10.8702 1.76578 11.0921 1.60621 11.3818 1.51207Z" fill="#0000CC"/>
</svg>
