<svg width="24" height="24" viewBox="0 0 24 24" fill="none" xmlns="http://www.w3.org/2000/svg">
<g opacity="0.3">
<path d="M12.8682 2.50386C12.6902 2.19229 12.3589 2 12 2C11.6411 2 11.3098 2.19229 11.1318 2.50386L7.13176 9.50386C6.9549 9.81336 6.95617 10.1936 7.13509 10.5019C7.31401 10.8102 7.64353 11 8 11H16C16.3565 11 16.686 10.8102 16.8649 10.5019C17.0438 10.1936 17.0451 9.81336 16.8682 9.50386L12.8682 2.50386Z" fill="#0000CC"/>
<path d="M6.5 13C4.01472 13 2 15.0147 2 17.5C2 19.9853 4.01472 22 6.5 22C8.98528 22 11 19.9853 11 17.5C11 15.0147 8.98528 13 6.5 13Z" fill="#0000CC"/>
</g>
<path d="M13 14.6C13 14.0399 13 13.7599 13.109 13.546C13.2049 13.3578 13.3578 13.2049 13.546 13.109C13.7599 13 14.0399 13 14.6 13H20.4C20.9601 13 21.2401 13 21.454 13.109C21.6422 13.2049 21.7951 13.3578 21.891 13.546C22 13.7599 22 14.0399 22 14.6V20.4C22 20.9601 22 21.2401 21.891 21.454C21.7951 21.6422 21.6422 21.7951 21.454 21.891C21.2401 22 20.9601 22 20.4 22H14.6C14.0399 22 13.7599 22 13.546 21.891C13.3578 21.7951 13.2049 21.6422 13.109 21.454C13 21.2401 13 20.9601 13 20.4V14.6Z" fill="#0000CC"/>
</svg>
