<svg width="24" height="24" viewBox="0 0 24 24" fill="none" xmlns="http://www.w3.org/2000/svg">
<path opacity="0.3" fill-rule="evenodd" clip-rule="evenodd" d="M11.4038 2.07957C11.7838 1.91521 12.2149 1.91521 12.5949 2.07957C12.9102 2.216 13.1033 2.44814 13.2106 2.59184C13.3132 2.72921 13.4191 2.90203 13.5171 3.06192C13.5227 3.07099 13.5282 3.08002 13.5337 3.089L15.4604 6.23029L19.2871 6.24476C19.4886 6.24548 19.7024 6.24623 19.881 6.2633C20.0631 6.2807 20.3786 6.32614 20.6684 6.54035C21.0128 6.79485 21.2319 7.18436 21.2707 7.61077C21.3034 7.96969 21.1784 8.26295 21.0988 8.42764C21.0207 8.58911 20.9103 8.77229 20.8063 8.94489C20.8006 8.95435 20.7949 8.96378 20.7893 8.97317L18.9666 12L20.7893 15.0268C20.7949 15.0362 20.8006 15.0456 20.8063 15.0551C20.9103 15.2277 21.0207 15.4108 21.0988 15.5723C21.1784 15.737 21.3034 16.0303 21.2707 16.3892C21.2319 16.8156 21.0128 17.2051 20.6684 17.4596C20.3786 17.6738 20.0631 17.7192 19.881 17.7366C19.7024 17.7537 19.4886 17.7545 19.2871 17.7552L15.4604 17.7697L13.5171 20.938C13.4191 21.0979 13.3132 21.2707 13.2106 21.4081C13.1033 21.5518 12.9102 21.7839 12.5949 21.9204C12.2149 22.0847 11.7838 22.0847 11.4038 21.9204C11.0884 21.7839 10.8954 21.5518 10.7881 21.4081C10.6855 21.2707 10.5796 21.0979 10.4816 20.938L8.53828 17.7697L4.71162 17.7552C4.51012 17.7545 4.29626 17.7537 4.11771 17.7366C3.93559 17.7192 3.62008 17.6738 3.33025 17.4596C2.98592 17.2051 2.76676 16.8156 2.72798 16.3892C2.69534 16.0302 2.82028 15.737 2.89994 15.5723C2.97805 15.4108 3.08842 15.2276 3.19241 15.055C3.19811 15.0456 3.20378 15.0362 3.20943 15.0268L5.03204 12L3.20943 8.97317C3.20378 8.96378 3.1981 8.95436 3.1924 8.94491C3.08841 8.7723 2.97804 8.58912 2.89994 8.42764C2.82028 8.26295 2.69534 7.96969 2.72798 7.61077C2.76676 7.18436 2.98592 6.79485 3.33025 6.54035C3.62008 6.32614 3.93559 6.2807 4.11771 6.2633C4.29627 6.24623 4.51013 6.24548 4.71163 6.24476C4.72267 6.24472 4.73368 6.24469 4.74463 6.24464L8.53828 6.23029L10.465 3.089C10.4705 3.08002 10.476 3.071 10.4816 3.06193C10.5796 2.90204 10.6855 2.72921 10.7881 2.59184C10.8954 2.44814 11.0884 2.216 11.4038 2.07957Z" fill="#0000CC"/>
</svg>
