<svg width="24" height="24" viewBox="0 0 24 24" fill="none" xmlns="http://www.w3.org/2000/svg">
<path opacity="0.3" fill-rule="evenodd" clip-rule="evenodd" d="M11.3685 2.21157C11.7687 2.02591 12.2305 2.02591 12.6307 2.21157C12.9724 2.37004 13.1672 2.64331 13.2685 2.79914C13.3705 2.95609 13.4754 3.1552 13.576 3.34619C13.5813 3.35629 13.5867 3.36636 13.5919 3.37641L14.93 5.91498L17.7825 5.37195C17.9946 5.33153 18.2157 5.28939 18.402 5.2713C18.587 5.25333 18.9221 5.23525 19.259 5.40357C19.6537 5.60077 19.9416 5.96176 20.046 6.39047C20.1352 6.75639 20.043 7.07908 19.9843 7.25543C19.9252 7.43304 19.8349 7.6392 19.7483 7.83695L18.5842 10.4971L20.7872 12.3887C20.951 12.5293 21.1218 12.6759 21.2521 12.8103C21.3815 12.9437 21.6046 13.1945 21.6831 13.5628C21.775 13.9944 21.6723 14.4445 21.4022 14.7935C21.1717 15.0913 20.8619 15.2204 20.6874 15.2845C20.5117 15.349 20.2943 15.407 20.0857 15.4626L17.28 16.211L17.1747 19.1129C17.1669 19.3286 17.1588 19.5535 17.1349 19.7392C17.1113 19.9235 17.0544 20.2542 16.8153 20.5453C16.5352 20.8862 16.1192 21.0865 15.678 21.0929C15.3014 21.0984 15.0073 20.9367 14.8485 20.8403C14.6885 20.7431 14.5076 20.6092 14.334 20.4808L11.9996 18.7539L9.66516 20.4808C9.49164 20.6092 9.31074 20.7431 9.15073 20.8403C8.99186 20.9367 8.69778 21.0984 8.3212 21.0929C7.88 21.0865 7.464 20.8862 7.18392 20.5453C6.94485 20.2542 6.8879 19.9235 6.86426 19.7392C6.84044 19.5535 6.83232 19.3286 6.82454 19.1128L6.71921 16.211L3.91354 15.4626C3.70494 15.407 3.48748 15.349 3.31177 15.2845C3.13731 15.2204 2.82754 15.0913 2.59702 14.7935C2.32694 14.4445 2.2242 13.9944 2.31613 13.5628C2.3946 13.1945 2.61767 12.9437 2.74706 12.8103C2.87737 12.6759 3.04815 12.5294 3.21197 12.3888C3.22063 12.3813 3.22926 12.3739 3.23788 12.3665L5.41506 10.4971L4.26458 7.86823C4.26003 7.85783 4.25546 7.8474 4.25089 7.83695C4.1643 7.6392 4.07402 7.43304 4.01492 7.25543C3.95625 7.07908 3.86405 6.75639 3.95318 6.39047C4.0576 5.96176 4.34547 5.60077 4.7402 5.40357C5.07712 5.23525 5.41223 5.25333 5.59721 5.2713C5.78353 5.28939 6.00461 5.33153 6.21667 5.37195C6.22787 5.37408 6.23905 5.37621 6.2502 5.37834L9.0692 5.91498L10.4073 3.37641C10.4126 3.36636 10.4179 3.35629 10.4232 3.34619C10.5238 3.1552 10.6287 2.95609 10.7307 2.79914C10.832 2.64331 11.0268 2.37004 11.3685 2.21157Z" fill="#0000CC"/>
</svg>
