<svg width="24" height="24" viewBox="0 0 24 24" fill="none" xmlns="http://www.w3.org/2000/svg">
<path opacity="0.14" d="M19 12.5801C19 16.4461 15.866 19.5801 12 19.5801C8.13401 19.5801 5 16.4461 5 12.5801C5 8.71408 8.13401 5.58008 12 5.58008C15.866 5.58008 19 8.71408 19 12.5801Z" fill="#0000CC"/>
<path d="M18.9997 20.5816L16.4179 18.0114M4.9997 20.5816L7.58154 18.0114M11.9997 9.58158V12.5816L13.4416 13.9998M6.74234 3.99744C6.36727 3.62237 5.85856 3.41165 5.32812 3.41165C4.79769 3.41165 4.28898 3.62237 3.91391 3.99744C3.53884 4.37251 3.32813 4.88122 3.32812 5.41165C3.32812 5.94209 3.53884 6.4508 3.91391 6.82587M20.0858 6.82422C20.4609 6.44914 20.6716 5.94044 20.6716 5.41C20.6716 4.87957 20.4609 4.37086 20.0858 3.99579C19.7107 3.62072 19.202 3.41 18.6716 3.41C18.1411 3.41 17.6324 3.62072 17.2574 3.99579M18.9997 12.5816C18.9997 16.4476 15.8657 19.5816 11.9997 19.5816C8.1337 19.5816 4.9997 16.4476 4.9997 12.5816C4.9997 8.71558 8.1337 5.58158 11.9997 5.58158C15.8657 5.58158 18.9997 8.71558 18.9997 12.5816Z" stroke="#0000CC" stroke-width="2" stroke-linecap="round" stroke-linejoin="round"/>
</svg>
