<svg width="24" height="24" viewBox="0 0 24 24" fill="none" xmlns="http://www.w3.org/2000/svg">
<path opacity="0.14" d="M18.0003 8.6C18.0003 7.11479 17.3682 5.69041 16.2429 4.6402C15.1177 3.59 13.5916 3 12.0003 3C10.409 3 8.88288 3.59 7.75766 4.6402C6.63245 5.69041 6.00031 7.11479 6.00031 8.6C6.00031 11.2862 5.32411 13.1835 4.52776 14.4866C3.75646 15.7486 3.37082 16.3797 3.38515 16.5436C3.40126 16.7277 3.4376 16.7925 3.58633 16.9023C3.71872 17 4.34793 17 5.60636 17H18.3943C19.6527 17 20.2819 17 20.4143 16.9023C20.563 16.7925 20.5994 16.7277 20.6155 16.5436C20.6298 16.3797 20.2441 15.7486 19.4729 14.4866C18.6765 13.1835 18.0003 11.2862 18.0003 8.6Z" fill="#0000CC"/>
<path d="M3 3L21 21M9.37747 3.56325C10.1871 3.19604 11.0827 3 12 3C13.5913 3 15.1174 3.59 16.2426 4.6402C17.3679 5.69041 18 7.11479 18 8.6C18 10.3566 18.2892 11.7759 18.712 12.9122M17 17H5.60605C4.34762 17 3.71841 17 3.58603 16.9023C3.43729 16.7925 3.40095 16.7277 3.38485 16.5436C3.37051 16.3797 3.75616 15.7486 4.52745 14.4866C5.3238 13.1835 6 11.2862 6 8.6C6 7.86016 6.15686 7.13542 6.45339 6.46451M15 18C15 19.6569 13.6569 21 12 21C10.3431 21 9 19.6569 9 18" stroke="#0000CC" stroke-width="2" stroke-linecap="round" stroke-linejoin="round"/>
</svg>
