<svg width="24" height="24" viewBox="0 0 24 24" fill="none" xmlns="http://www.w3.org/2000/svg">
<path opacity="0.14" d="M7.9231 20.6602H16.0756C16.4121 20.6602 16.5804 20.6602 16.731 20.6113C16.8643 20.568 16.987 20.4971 17.0911 20.4034C17.2088 20.2974 17.293 20.1517 17.4612 19.8602L18.8886 17.3879L17.1519 15.6313C16.3635 14.8231 15.9693 14.4189 15.5114 14.2652C15.1088 14.13 14.6735 14.1266 14.2687 14.2553C13.8084 14.4017 13.4078 14.7994 12.6066 15.595L12.6066 15.595L12.2382 15.9642L10.5506 14.2704C9.75765 13.4746 9.36118 13.0766 8.90365 12.9276C8.50122 12.7964 8.06756 12.7964 7.66508 12.9273C7.2075 13.0763 6.81089 13.474 6.01767 14.2696L4.30273 15.9896L6.53746 19.8602C6.70572 20.1517 6.78986 20.2974 6.90756 20.4034C7.0117 20.4971 7.13439 20.568 7.26767 20.6113C7.41831 20.6602 7.58657 20.6602 7.9231 20.6602Z" fill="#0000CC"/>
<path d="M14.4996 8.49998H14.5096M16.2196 19.9599L10.5508 14.2704C9.7579 13.4746 9.36143 13.0767 8.90391 12.9276C8.50148 12.7965 8.06782 12.7964 7.66534 12.9274C7.20776 13.0763 6.81115 13.4741 6.01792 14.2696L4.30299 15.9896M12.2385 15.9643L12.6069 15.595C13.4081 14.7995 13.8087 14.4017 14.2689 14.2553C14.6737 14.1266 15.109 14.1301 15.5117 14.2652C15.9696 14.419 16.3638 14.8231 17.1522 15.6313L18.8889 17.3879M18.8889 17.3879L21.5377 12.8C21.706 12.5085 21.7901 12.3628 21.823 12.2079C21.8522 12.0708 21.8522 11.9291 21.823 11.7921C21.7901 11.6371 21.706 11.4914 21.5377 11.2L17.4615 4.13972C17.2932 3.84828 17.2091 3.70256 17.0914 3.59658C16.9872 3.50281 16.8645 3.43197 16.7313 3.38867C16.5806 3.33972 16.4124 3.33972 16.0758 3.33972H7.92336C7.58683 3.33972 7.41856 3.33972 7.26793 3.38867C7.13465 3.43197 7.01196 3.50281 6.90782 3.59658C6.79011 3.70256 6.70598 3.84828 6.53772 4.13972L2.46148 11.2C2.29321 11.4914 2.20908 11.6371 2.17615 11.7921C2.14701 11.9291 2.14701 12.0708 2.17615 12.2079C2.20908 12.3628 2.29321 12.5085 2.46148 12.8L4.30299 15.9896M18.8889 17.3879L17.4615 19.8602C17.2932 20.1517 17.2091 20.2974 17.0914 20.4034C16.9872 20.4971 16.8645 20.568 16.7313 20.6113C16.5806 20.6602 16.4124 20.6602 16.0758 20.6602H7.92336C7.58683 20.6602 7.41856 20.6602 7.26793 20.6113C7.13465 20.568 7.01196 20.4971 6.90782 20.4034C6.79011 20.2974 6.70598 20.1517 6.53772 19.8602L4.30299 15.9896M14.9996 8.49998C14.9996 8.77612 14.7757 8.99998 14.4996 8.99998C14.2235 8.99998 13.9996 8.77612 13.9996 8.49998C13.9996 8.22383 14.2235 7.99998 14.4996 7.99998C14.7757 7.99998 14.9996 8.22383 14.9996 8.49998Z" stroke="#0000CC" stroke-width="2" stroke-linecap="round" stroke-linejoin="round"/>
</svg>
