<svg width="24" height="24" viewBox="0 0 24 24" fill="none" xmlns="http://www.w3.org/2000/svg">
<g opacity="0.14">
<path d="M15 11C16.1046 11 17 10.1046 17 9C17 7.89543 16.1046 7 15 7C13.8954 7 13 7.89543 13 9C13 10.1046 13.8954 11 15 11Z" fill="#0000CC"/>
<path d="M12.095 14.9622L13.6463 16.375L13.9622 16.0872C14.723 15.3944 15.1033 15.048 15.5344 14.9168C15.9141 14.8012 16.3196 14.8012 16.6992 14.9168C17.1303 15.048 17.5107 15.3944 18.2715 16.0872L19.413 17.104C17.7896 19.4575 15.0745 21 11.9992 21C9.12739 21 6.56975 19.6549 4.92188 17.5604L7.78571 14.9622C8.54649 14.2694 8.92687 13.923 9.35797 13.7918C9.73764 13.6762 10.1431 13.6762 10.5228 13.7918C10.9539 13.923 11.3342 14.2694 12.095 14.9622Z" fill="#0000CC"/>
</g>
<path d="M13.6471 16.375L12.0958 14.9623C11.3351 14.2694 10.9547 13.923 10.5236 13.7918C10.1439 13.6762 9.73844 13.6762 9.35878 13.7918C8.92768 13.923 8.5473 14.2694 7.78652 14.9623L4.92039 17.5575M13.6471 16.375L13.963 16.0873C14.7238 15.3944 15.1042 15.048 15.5352 14.9168C15.9149 14.8012 16.3204 14.8012 16.7 14.9168C17.1311 15.048 17.5115 15.3944 18.2723 16.0873L19.4237 17.0896M13.6471 16.375L17.0469 19.4528M17 9C17 10.1046 16.1046 11 15 11C13.8954 11 13 10.1046 13 9C13 7.89543 13.8954 7 15 7C16.1046 7 17 7.89543 17 9ZM21 12C21 16.9706 16.9706 21 12 21C7.02944 21 3 16.9706 3 12C3 7.02944 7.02944 3 12 3C16.9706 3 21 7.02944 21 12Z" stroke="#0000CC" stroke-width="2" stroke-linecap="round" stroke-linejoin="round"/>
</svg>
