<svg width="24" height="24" viewBox="0 0 24 24" fill="none" xmlns="http://www.w3.org/2000/svg">
<path opacity="0.14" d="M14.2647 15.9375L12.5967 14.2833C11.7917 13.4851 11.3893 13.086 10.9274 12.9401C10.5212 12.8117 10.0846 12.8165 9.68131 12.9536C9.2227 13.1094 8.82897 13.5171 8.04151 14.3326L4.04492 18.2801C4.07594 18.532 4.12879 18.7312 4.21881 18.9079C4.41056 19.2843 4.71652 19.5902 5.09285 19.782C5.52067 20 6.08072 20 7.20083 20H16.8008C17.9209 20 18.481 20 18.9088 19.782C19.2851 19.5902 19.5911 19.2843 19.7828 18.9079C20.0008 18.4801 20.0008 17.9201 20.0008 16.8V16.4934L19.1642 15.6513C18.3769 14.8338 17.9833 14.4251 17.5244 14.2686C17.1208 14.131 16.6839 14.126 16.2773 14.2543C15.8149 14.4001 15.412 14.7997 14.6061 15.5989L14.2647 15.9375Z" fill="#0000CC"/>
<path d="M18 9V6M18 6V3M18 6H21M18 6H15M14.2639 15.9376L12.5958 14.2835C11.7909 13.4852 11.3884 13.0861 10.9266 12.9402C10.5204 12.8119 10.0838 12.8166 9.68048 12.9537C9.22188 13.1096 8.82814 13.5173 8.04068 14.3327L4.04409 18.2802M14.2639 15.9376L14.6053 15.5991C15.4112 14.7999 15.8141 14.4003 16.2765 14.2544C16.6831 14.1262 17.12 14.1312 17.5236 14.2688C17.9824 14.4252 18.3761 14.834 19.1634 15.6515L20 16.4936M14.2639 15.9376L18.275 19.9566M18.275 19.9566C17.9176 20.0001 17.4543 20.0001 16.8 20.0001H7.2C6.07989 20.0001 5.51984 20.0001 5.09202 19.7821C4.71569 19.5904 4.40973 19.2844 4.21799 18.9081C4.12796 18.7314 4.07512 18.5322 4.04409 18.2802M18.275 19.9566C18.5293 19.9257 18.7301 19.8728 18.908 19.7821C19.2843 19.5904 19.5903 19.2844 19.782 18.9081C20 18.4803 20 17.9202 20 16.8001V16.4936M12 3.99951L7.2 4.00011C6.07989 4.00011 5.51984 4.00011 5.09202 4.21809C4.71569 4.40984 4.40973 4.7158 4.21799 5.09213C4 5.51995 4 6.08 4 7.20011V16.8001C4 17.4576 4 17.9222 4.04409 18.2802M20 11.9995V16.4936" stroke="#0000CC" stroke-width="2" stroke-linecap="round" stroke-linejoin="round"/>
</svg>
