<svg width="24" height="24" viewBox="0 0 24 24" fill="none" xmlns="http://www.w3.org/2000/svg">
<g opacity="0.14">
<path d="M15 11C16.1046 11 17 10.1046 17 9C17 7.89543 16.1046 7 15 7C13.8954 7 13 7.89543 13 9C13 10.1046 13.8954 11 15 11Z" fill="#0000CC"/>
<path d="M12.5967 14.2833L14.2647 15.9375L14.6061 15.5989C15.412 14.7997 15.8149 14.4001 16.2773 14.2543C16.6839 14.126 17.1208 14.131 17.5244 14.2686C17.9833 14.4251 18.3769 14.8338 19.1642 15.6513L20.0008 16.4934V16.8C20.0008 17.9201 20.0008 18.4801 19.7828 18.9079C19.5911 19.2843 19.2851 19.5902 18.9088 19.782C18.481 20 17.9209 20 16.8008 20H7.20083C6.08072 20 5.52067 20 5.09285 19.782C4.71652 19.5902 4.41056 19.2843 4.21881 18.9079C4.12879 18.7312 4.07594 18.532 4.04492 18.2801L8.04151 14.3326C8.82897 13.5171 9.2227 13.1094 9.68131 12.9536C10.0846 12.8165 10.5212 12.8117 10.9274 12.9401C11.3893 13.086 11.7917 13.4851 12.5967 14.2833Z" fill="#0000CC"/>
</g>
<path d="M14.2639 15.9376L12.5958 14.2835C11.7909 13.4853 11.3884 13.0862 10.9266 12.9402C10.5204 12.8119 10.0838 12.8166 9.68048 12.9537C9.22188 13.1096 8.82814 13.5173 8.04068 14.3328L4.04409 18.2803M14.2639 15.9376L14.6053 15.5991C15.4112 14.7999 15.8141 14.4003 16.2765 14.2544C16.6831 14.1262 17.12 14.1312 17.5236 14.2688C17.9824 14.4252 18.3761 14.834 19.1634 15.6515L20 16.4936M14.2639 15.9376L18.275 19.9567M18.275 19.9567C17.9176 20.0001 17.4543 20.0001 16.8 20.0001H7.2C6.07989 20.0001 5.51984 20.0001 5.09202 19.7821C4.71569 19.5904 4.40973 19.2844 4.21799 18.9081C4.12796 18.7314 4.07512 18.5322 4.04409 18.2803M18.275 19.9567C18.5293 19.9257 18.7301 19.8728 18.908 19.7821C19.2843 19.5904 19.5903 19.2844 19.782 18.9081C20 18.4803 20 17.9202 20 16.8001V16.4936M4.04409 18.2803C4 17.9222 4 17.4576 4 16.8001V7.20012C4 6.08002 4 5.51996 4.21799 5.09214C4.40973 4.71582 4.71569 4.40986 5.09202 4.21811C5.51984 4.00012 6.07989 4.00012 7.2 4.00012H16.8C17.9201 4.00012 18.4802 4.00012 18.908 4.21811C19.2843 4.40986 19.5903 4.71582 19.782 5.09214C20 5.51996 20 6.08002 20 7.20012V16.4936M17 9.00001C17 10.1046 16.1046 11 15 11C13.8954 11 13 10.1046 13 9.00001C13 7.89545 13.8954 7.00001 15 7.00001C16.1046 7.00001 17 7.89545 17 9.00001Z" stroke="#0000CC" stroke-width="2" stroke-linecap="round" stroke-linejoin="round"/>
</svg>
