<svg width="24" height="24" viewBox="0 0 24 24" fill="none" xmlns="http://www.w3.org/2000/svg">
<path opacity="0.3" fill-rule="evenodd" clip-rule="evenodd" d="M6.5 7C6.5 4.23858 8.73858 2 11.5 2H12.5C15.2614 2 17.5 4.23858 17.5 7C17.5 8.57044 16.776 9.97177 15.6435 10.8884C17.3575 11.9447 18.5 13.8389 18.5 16C18.5 19.3137 15.8137 22 12.5 22H11.5C8.18629 22 5.5 19.3137 5.5 16C5.5 13.8389 6.64251 11.9447 8.35646 10.8884C7.22401 9.97177 6.5 8.57044 6.5 7ZM11.5 10C9.84315 10 8.5 8.65685 8.5 7C8.5 5.34315 9.84315 4 11.5 4H12.5C14.1569 4 15.5 5.34315 15.5 7C15.5 8.65685 14.1569 10 12.5 10H11.5ZM12.5 12H11.5C9.29086 12 7.5 13.7909 7.5 16C7.5 18.2091 9.29086 20 11.5 20H12.5C14.7091 20 16.5 18.2091 16.5 16C16.5 13.7909 14.7091 12 12.5 12Z" fill="#0000CC"/>
</svg>
