<svg width="24" height="24" viewBox="0 0 24 24" fill="none" xmlns="http://www.w3.org/2000/svg">
<path opacity="0.3" d="M12 2C6.47715 2 2 6.47715 2 12C2 17.5228 6.47715 22 12 22C17.5228 22 22 17.5228 22 12C22 6.47715 17.5228 2 12 2Z" fill="#0000CC"/>
<path fill-rule="evenodd" clip-rule="evenodd" d="M7.85162 10.35C7.85162 9.52155 8.52319 8.84998 9.35162 8.84998C10.18 8.84998 10.8516 9.52155 10.8516 10.35C10.8516 11.1784 10.18 11.85 9.35162 11.85C8.52319 11.85 7.85162 11.1784 7.85162 10.35ZM13.2501 10.3C13.2501 9.49916 13.8992 8.84998 14.7001 8.84998C15.5009 8.84998 16.1501 9.49916 16.1501 10.3C16.1501 11.1008 15.5009 11.75 14.7001 11.75C13.8992 11.75 13.2501 11.1008 13.2501 10.3ZM7.39948 14.2004C7.84107 13.8687 8.46793 13.9578 8.79962 14.3994C9.53108 15.3732 10.6924 16 12.0004 16C12.5527 16 13.0004 16.4477 13.0004 17C13.0004 17.5523 12.5527 18 12.0004 18C10.0368 18 8.29345 17.0557 7.20049 15.6006C6.8688 15.159 6.95789 14.5321 7.39948 14.2004Z" fill="#0000CC"/>
<path fill-rule="evenodd" clip-rule="evenodd" d="M16.9285 13.6286C16.7766 13.249 16.4089 13 16 13C15.5911 13 15.2234 13.249 15.0715 13.6286L14.1615 15.9037C14.0548 16.1704 14 16.455 14 16.7422V17C14 18.1046 14.8954 19 16 19C17.1046 19 18 18.1046 18 17V16.7422C18 16.455 17.9452 16.1704 17.8385 15.9037L16.9285 13.6286Z" fill="#0000CC"/>
</svg>
