<svg width="24" height="24" viewBox="0 0 24 24" fill="none" xmlns="http://www.w3.org/2000/svg">
<g opacity="0.3">
<path d="M11 12V6.52941C11 4.03579 8.99315 2 6.5 2C4.00685 2 2 4.03579 2 6.52941C2 7.59624 2.18518 8.73678 2.72976 9.64591C3.29288 10.586 4.5 11.2708 6.5 11.2708V12C12.6269 12 5.01486 12 11 12Z" fill="#0000CC"/>
<path d="M17.5 12V11.2708C19.5 11.2708 20.7071 10.586 21.2702 9.64591C21.8148 8.73678 22 7.59624 22 6.52941C22 4.03579 19.9932 2 17.5 2C15.0068 2 13 4.03579 13 6.52941V12C19.8663 12 15.6982 12 17.5 12Z" fill="#0000CC"/>
</g>
<path d="M7 6C7 5.44772 6.55228 5 6 5C5.44772 5 5 5.44772 5 6V7C5 7.55228 5.44772 8 6 8C6.55228 8 7 7.55228 7 7V6Z" fill="#0000CC"/>
<path d="M19 6C19 5.44772 18.5523 5 18 5C17.4477 5 17 5.44772 17 6V7C17 7.55228 17.4477 8 18 8C18.5523 8 19 7.55228 19 7V6Z" fill="#0000CC"/>
<path d="M2.03843 13.6098C2 13.803 2 14.0353 2 14.5C2 15.894 2 16.5909 2.11529 17.1705C2.58873 19.5507 4.44931 21.4113 6.82946 21.8847C7.40905 22 8.10603 22 9.5 22H14.5C15.894 22 16.5909 22 17.1705 21.8847C19.5507 21.4113 21.4113 19.5507 21.8847 17.1705C22 16.5909 22 15.894 22 14.5C22 14.0353 22 13.803 21.9616 13.6098C21.8038 12.8164 21.1836 12.1962 20.3902 12.0384C20.197 12 19.9647 12 19.5 12H4.5C4.03534 12 3.80302 12 3.60982 12.0384C2.81644 12.1962 2.19624 12.8164 2.03843 13.6098Z" fill="#0000CC"/>
</svg>
