<svg width="24" height="24" viewBox="0 0 24 24" fill="none" xmlns="http://www.w3.org/2000/svg">
<path opacity="0.3" fill-rule="evenodd" clip-rule="evenodd" d="M18.3867 9H5.61403C5.18743 8.99998 4.80642 8.99996 4.4919 9.02664C4.1575 9.055 3.8002 9.11929 3.45676 9.30741C2.96382 9.57744 2.57625 10.0057 2.35661 10.5231C2.20359 10.8835 2.17517 11.2454 2.18023 11.581C2.18498 11.8967 2.2229 12.2757 2.26538 12.7002L2.72075 17.254C2.76856 17.7322 2.81003 18.1471 2.87134 18.4885C2.93636 18.8506 3.03552 19.2067 3.23875 19.545C3.54401 20.0531 3.99293 20.4594 4.52887 20.7125C4.88567 20.8811 5.24991 20.9443 5.6167 20.973C5.96247 21 6.37946 21 6.86002 21H17.1407C17.6213 21 18.0382 21 18.384 20.973C18.7508 20.9443 19.115 20.8811 19.4718 20.7125C20.0078 20.4594 20.4567 20.0531 20.7619 19.545C20.9652 19.2067 21.0643 18.8506 21.1294 18.4885C21.1907 18.1471 21.2321 17.7322 21.2799 17.254L21.7353 12.7003C21.7778 12.2757 21.8157 11.8967 21.8205 11.581C21.8255 11.2454 21.7971 10.8835 21.6441 10.5231C21.4244 10.0057 21.0369 9.57744 20.5439 9.30741C20.2005 9.11929 19.8432 9.055 19.5088 9.02664C19.1943 8.99996 18.8133 8.99998 18.3867 9ZM12 12C11.0017 12 10.0526 12.268 9.32398 12.7537C8.6023 13.2349 8 14.0093 8 15C8 15.9907 8.6023 16.7651 9.32398 17.2463C10.0526 17.732 11.0017 18 12 18C12.9983 18 13.9474 17.732 14.676 17.2463C15.3977 16.7651 16 15.9907 16 15C16 14.0093 15.3977 13.2349 14.676 12.7537C13.9474 12.268 12.9983 12 12 12Z" fill="#0000CC"/>
<path d="M4 4C4 3.44772 4.44772 3 5 3H19C19.5523 3 20 3.44772 20 4C20 4.55228 19.5523 5 19 5H5C4.44772 5 4 4.55228 4 4Z" fill="#0000CC"/>
<path d="M3 7C3 6.44772 3.44772 6 4 6H20C20.5523 6 21 6.44772 21 7C21 7.55228 20.5523 8 20 8H4C3.44772 8 3 7.55228 3 7Z" fill="#0000CC"/>
<path fill-rule="evenodd" clip-rule="evenodd" d="M9.32374 12.7537C10.0524 12.268 11.0014 12 11.9998 12C12.9981 12 13.9471 12.268 14.6758 12.7537C15.3975 13.2349 15.9998 14.0093 15.9998 15C15.9998 15.9907 15.3975 16.7651 14.6758 17.2463C13.9471 17.732 12.9981 18 11.9998 18C11.0014 18 10.0524 17.732 9.32374 17.2463C8.60206 16.7651 7.99976 15.9907 7.99976 15C7.99976 14.0093 8.60206 13.2349 9.32374 12.7537ZM9.99976 15C9.99976 14.8861 10.069 14.6606 10.4331 14.4178C10.7903 14.1798 11.3412 14 11.9998 14C12.6583 14 13.2093 14.1798 13.5664 14.4178C13.9305 14.6606 13.9998 14.8861 13.9998 15C13.9998 15.1139 13.9305 15.3394 13.5664 15.5822C13.2093 15.8202 12.6583 16 11.9998 16C11.3412 16 10.7903 15.8202 10.4331 15.5822C10.069 15.3394 9.99976 15.1139 9.99976 15Z" fill="#0000CC"/>
</svg>
