<svg width="24" height="24" viewBox="0 0 24 24" fill="none" xmlns="http://www.w3.org/2000/svg">
<g opacity="0.3">
<path d="M2 8C2 7.44772 2.44772 7 3 7H21C21.5523 7 22 7.44772 22 8C22 8.55228 21.5523 9 21 9H3C2.44772 9 2 8.55228 2 8Z" fill="#0000CC"/>
<path d="M9 16C9 15.4477 9.44772 15 10 15H21C21.5523 15 22 15.4477 22 16C22 16.5523 21.5523 17 21 17H10C9.44772 17 9 16.5523 9 16Z" fill="#0000CC"/>
</g>
<path fill-rule="evenodd" clip-rule="evenodd" d="M9 4C9 3.44772 9.44772 3 10 3H21C21.5523 3 22 3.44772 22 4C22 4.55228 21.5523 5 21 5H10C9.44772 5 9 4.55228 9 4ZM2 12C2 11.4477 2.44772 11 3 11H21C21.5523 11 22 11.4477 22 12C22 12.5523 21.5523 13 21 13H3C2.44772 13 2 12.5523 2 12ZM2 20C2 19.4477 2.44772 19 3 19H21C21.5523 19 22 19.4477 22 20C22 20.5523 21.5523 21 21 21H3C2.44772 21 2 20.5523 2 20Z" fill="#0000CC"/>
</svg>
