<svg width="24" height="24" viewBox="0 0 24 24" fill="none" xmlns="http://www.w3.org/2000/svg">
<path opacity="0.3" fill-rule="evenodd" clip-rule="evenodd" d="M17.5728 16.8575C17.6829 16.3163 18.2109 15.9668 18.7521 16.0769L21.2019 16.5754C21.7431 16.6855 22.0926 17.2135 21.9825 17.7547L21.4841 20.2045C21.3739 20.7457 20.846 21.0951 20.3048 20.985C19.7636 20.8749 19.4141 20.3469 19.5242 19.8057L19.5336 19.7595C17.4249 21.2997 14.436 22.0005 11.572 22C8.09456 21.9994 4.40915 20.9661 2.27034 18.6838C1.89268 18.2808 1.91321 17.648 2.3162 17.2704C2.71918 16.8927 3.35201 16.9132 3.72967 17.3162C5.33744 19.0318 8.37492 19.9995 11.5723 20C14.2871 20.0005 16.8355 19.3044 18.4661 18.0597L18.3534 18.0368C17.8122 17.9267 17.4627 17.3987 17.5728 16.8575Z" fill="#0000CC"/>
<path fill-rule="evenodd" clip-rule="evenodd" d="M11 4C9.89086 4 8.92099 4.60141 8.40076 5.50073C8.12422 5.97879 7.51249 6.14215 7.03443 5.86561C6.55637 5.58906 6.39301 4.97734 6.66955 4.49927C7.53256 3.00738 9.14806 2 11 2C13.7445 2 15.9725 4.21114 15.9998 6.94914C16.0006 6.96596 16.001 6.98288 16.001 6.9999L16.0019 15.9999C16.002 16.5522 15.5543 16.9999 15.002 17C14.4497 17.0001 14.002 16.5524 14.0019 16.0001V15.9989C13.1659 16.6275 12.1265 17 11 17C8.23858 17 6 14.7614 6 12C6 9.23858 8.23858 7 11 7C12.1261 7 13.1653 7.37228 14.0011 8.00049L14.001 7.04562C14.0004 7.0305 14 7.01529 14 7C14 5.34315 12.6569 4 11 4ZM11 9C9.34315 9 8 10.3431 8 12C8 13.6569 9.34315 15 11 15C12.6569 15 14 13.6569 14 12C14 10.3431 12.6569 9 11 9Z" fill="#0000CC"/>
</svg>
