<svg width="24" height="24" viewBox="0 0 24 24" fill="none" xmlns="http://www.w3.org/2000/svg">
<g opacity="0.3">
<path d="M3 4V6H21V4H3Z" fill="#0000CC"/>
<path d="M3 7H21V20C21.5523 20 22 20.4477 22 21C22 21.5523 21.5523 22 21 22H16C15.4477 22 15 21.5523 15 21V16C15 14.3431 13.6569 13 12 13C10.3431 13 9 14.3431 9 16V21C9 21.5523 8.55228 22 8 22H3C2.44772 22 2 21.5523 2 21C2 20.4477 2.44772 20 3 20V7Z" fill="#0000CC"/>
</g>
<path d="M3 2C2.44772 2 2 2.44772 2 3C2 3.55228 2.44772 4 3 4H21C21.5523 4 22 3.55228 22 3C22 2.44772 21.5523 2 21 2H3Z" fill="#0000CC"/>
<path d="M21 6H3V7H21V6Z" fill="#0000CC"/>
</svg>
