<svg width="24" height="24" viewBox="0 0 24 24" fill="none" xmlns="http://www.w3.org/2000/svg">
<g opacity="0.3">
<path fill-rule="evenodd" clip-rule="evenodd" d="M18.9194 2.60608C18.7618 2.2384 18.4003 2 18.0003 2C17.6002 2 17.2387 2.2384 17.0811 2.60608L14.0811 9.60608C13.8636 10.1137 14.0987 10.7016 14.6063 10.9191C15.114 11.1367 15.7018 10.9015 15.9194 10.3939L16.0882 10H19.9123L20.0811 10.3939C20.2987 10.9015 20.8865 11.1367 21.3942 10.9191C21.9018 10.7016 22.137 10.1137 21.9194 9.60608L18.9194 2.60608ZM18.0002 5.53857L19.0551 7.99998H16.9453L18.0002 5.53857Z" fill="#0000CC"/>
<path d="M15.5003 13C14.948 13 14.5003 13.4477 14.5003 14C14.5003 14.5523 14.948 15 15.5003 15H18.5571L14.6865 20.4188C14.4688 20.7236 14.4397 21.1245 14.6111 21.4576C14.7825 21.7907 15.1257 22 15.5003 22H20.5003C21.0525 22 21.5003 21.5523 21.5003 21C21.5003 20.4477 21.0525 20 20.5003 20H17.4434L21.314 14.5812C21.5317 14.2764 21.5608 13.8755 21.3894 13.5424C21.218 13.2093 20.8748 13 20.5003 13H15.5003Z" fill="#0000CC"/>
</g>
<path fill-rule="evenodd" clip-rule="evenodd" d="M6.29289 2.29289C6.68342 1.90237 7.31658 1.90237 7.70711 2.29289L11.7071 6.29289C12.0976 6.68342 12.0976 7.31658 11.7071 7.70711C11.3166 8.09763 10.6834 8.09763 10.2929 7.70711L8 5.41421V21C8 21.5523 7.55228 22 7 22C6.44772 22 6 21.5523 6 21V5.41421L3.70711 7.70711C3.31658 8.09763 2.68342 8.09763 2.29289 7.70711C1.90237 7.31658 1.90237 6.68342 2.29289 6.29289L6.29289 2.29289Z" fill="#0000CC"/>
</svg>
