<svg width="24" height="24" viewBox="0 0 24 24" fill="none" xmlns="http://www.w3.org/2000/svg">
<path opacity="0.3" fill-rule="evenodd" clip-rule="evenodd" d="M17.7071 6.29289C17.3166 5.90237 16.6834 5.90237 16.2929 6.29289L6.29289 16.2929C5.90237 16.6834 5.90237 17.3166 6.29289 17.7071C6.68342 18.0976 7.31658 18.0976 7.70711 17.7071L17.7071 7.70711C18.0976 7.31658 18.0976 6.68342 17.7071 6.29289Z" fill="#0000CC"/>
<path fill-rule="evenodd" clip-rule="evenodd" d="M18 7C18 6.44772 17.5523 6 17 6H8C7.44771 6 7 6.44772 7 7C7 7.55228 7.44771 8 8 8H16V16C16 16.5523 16.4477 17 17 17C17.5523 17 18 16.5523 18 16V7Z" fill="#0000CC"/>
</svg>
