<svg width="24" height="24" viewBox="0 0 24 24" fill="none" xmlns="http://www.w3.org/2000/svg">
<path opacity="0.3" d="M4 3C4.55228 3 5 3.44772 5 4V20C5 20.5523 4.55228 21 4 21C3.44772 21 3 20.5523 3 20V4C3 3.44772 3.44772 3 4 3Z" fill="#0000CC"/>
<path fill-rule="evenodd" clip-rule="evenodd" d="M15.2929 7.29289C15.6834 6.90237 16.3166 6.90237 16.7071 7.29289L20.7071 11.2929C21.0976 11.6834 21.0976 12.3166 20.7071 12.7071L16.7071 16.7071C16.3166 17.0976 15.6834 17.0976 15.2929 16.7071C14.9024 16.3166 14.9024 15.6834 15.2929 15.2929L17.5858 13H8C7.44772 13 7 12.5523 7 12C7 11.4477 7.44772 11 8 11H17.5858L15.2929 8.70711C14.9024 8.31658 14.9024 7.68342 15.2929 7.29289Z" fill="#0000CC"/>
</svg>
