<svg width="24" height="24" viewBox="0 0 24 24" fill="none" xmlns="http://www.w3.org/2000/svg">
<path opacity="0.3" d="M22 12C22 17.5228 17.5228 22 12 22C6.47715 22 2 17.5228 2 12C2 6.47715 6.47715 2 12 2C17.5228 2 22 6.47715 22 12Z" fill="#0000CC"/>
<path d="M18.3287 19.7429L11 12.4142V15.6569C11 16.2091 10.5523 16.6569 10 16.6569C9.44772 16.6569 9 16.2091 9 15.6569V10C9 9.44772 9.44772 9 10 9H15.6569C16.2091 9 16.6569 9.44772 16.6569 10C16.6569 10.5523 16.2091 11 15.6569 11H12.4142L19.7429 18.3287C19.3198 18.8458 18.8458 19.3198 18.3287 19.7429Z" fill="#0000CC"/>
</svg>
