<svg width="24" height="24" viewBox="0 0 24 24" fill="none" xmlns="http://www.w3.org/2000/svg">
<g opacity="0.3">
<path d="M13 21C13 21.5523 13.4477 22 14 22H21C21.5523 22 22 21.5523 22 21C22 20.4477 21.5523 20 21 20H14C13.4477 20 13 20.4477 13 21Z" fill="#0000CC"/>
<path d="M13 15C13 15.5523 13.4477 16 14 16H19C19.5523 16 20 15.5523 20 15C20 14.4477 19.5523 14 19 14H14C13.4477 14 13 14.4477 13 15Z" fill="#0000CC"/>
<path d="M13 9C13 9.55229 13.4477 10 14 10H17C17.5523 10 18 9.55229 18 9C18 8.44771 17.5523 8 17 8H14C13.4477 8 13 8.44771 13 9Z" fill="#0000CC"/>
<path d="M15 2H14C13.4477 2 13 2.44772 13 3C13 3.55228 13.4477 4 14 4H15C15.5523 4 16 3.55228 16 3C16 2.44772 15.5523 2 15 2Z" fill="#0000CC"/>
</g>
<path fill-rule="evenodd" clip-rule="evenodd" d="M7 2C7.55228 2 8 2.44772 8 3V18.5858L10.2929 16.2929C10.6834 15.9024 11.3166 15.9024 11.7071 16.2929C12.0976 16.6834 12.0976 17.3166 11.7071 17.7071L7.70711 21.7071C7.31658 22.0976 6.68342 22.0976 6.29289 21.7071L2.29289 17.7071C1.90237 17.3166 1.90237 16.6834 2.29289 16.2929C2.68342 15.9024 3.31658 15.9024 3.70711 16.2929L6 18.5858V3C6 2.44772 6.44772 2 7 2Z" fill="#0000CC"/>
</svg>
