<svg width="24" height="24" viewBox="0 0 24 24" fill="none" xmlns="http://www.w3.org/2000/svg">
<path opacity="0.3" fill-rule="evenodd" clip-rule="evenodd" d="M2 12C2 6.47715 6.47715 2 12 2C17.5228 2 22 6.47715 22 12C22 17.5228 17.5228 22 12 22C6.47715 22 2 17.5228 2 12Z" fill="#0000CC"/>
<path fill-rule="evenodd" clip-rule="evenodd" d="M9 8C8.44772 8 8 8.44772 8 9V13.5C8 14.0523 8.44772 14.5 9 14.5C9.55228 14.5 10 14.0523 10 13.5V11.4142L14.2929 15.707C14.6834 16.0975 15.3166 16.0975 15.7071 15.707C16.0976 15.3165 16.0976 14.6833 15.7071 14.2928L11.4142 10H13.5C14.0523 10 14.5 9.55228 14.5 9C14.5 8.44772 14.0523 8 13.5 8H9Z" fill="#0000CC"/>
</svg>
