<svg width="24" height="24" viewBox="0 0 24 24" fill="none" xmlns="http://www.w3.org/2000/svg">
<g opacity="0.3">
<path d="M19.5 3.00003C19.5 2.59557 19.2564 2.23093 18.8827 2.07615C18.509 1.92137 18.0789 2.00692 17.7929 2.29292L15.7929 4.29292C15.4024 4.68345 15.4024 5.31661 15.7929 5.70714C16.1834 6.09766 16.8166 6.09766 17.2071 5.70714L17.5 5.41424V9.00003H16.5C15.9477 9.00003 15.5 9.44774 15.5 10C15.5 10.5523 15.9477 11 16.5 11H20.5C21.0523 11 21.5 10.5523 21.5 10C21.5 9.44774 21.0523 9.00003 20.5 9.00003H19.5V3.00003Z" fill="#0000CC"/>
<path fill-rule="evenodd" clip-rule="evenodd" d="M21.0889 18.8554C21.6549 18.2336 22 17.4071 22 16.5C22 14.567 20.433 13 18.5 13C16.567 13 15 14.567 15 16.5C15 18.1304 16.1148 19.5005 17.6238 19.8894L17.2318 20.3598C16.8782 20.7841 16.9355 21.4147 17.3598 21.7682C17.7841 22.1218 18.4147 22.0645 18.7682 21.6402L21.0889 18.8554ZM18.5 18C19.3284 18 20 17.3284 20 16.5C20 15.6716 19.3284 15 18.5 15C17.6716 15 17 15.6716 17 16.5C17 17.3284 17.6716 18 18.5 18Z" fill="#0000CC"/>
</g>
<path fill-rule="evenodd" clip-rule="evenodd" d="M7 2C7.55228 2 8 2.44772 8 3V18.5858L10.2929 16.2929C10.6834 15.9024 11.3166 15.9024 11.7071 16.2929C12.0976 16.6834 12.0976 17.3166 11.7071 17.7071L7.70711 21.7071C7.31658 22.0976 6.68342 22.0976 6.29289 21.7071L2.29289 17.7071C1.90237 17.3166 1.90237 16.6834 2.29289 16.2929C2.68342 15.9024 3.31658 15.9024 3.70711 16.2929L6 18.5858V3C6 2.44772 6.44772 2 7 2Z" fill="#0000CC"/>
</svg>
