<svg width="24" height="24" viewBox="0 0 24 24" fill="none" xmlns="http://www.w3.org/2000/svg">
<g opacity="0.3">
<path d="M15.5003 4H18.5571L14.6865 9.41876C14.4688 9.72358 14.4397 10.1245 14.6111 10.4576C14.7825 10.7907 15.1257 11 15.5003 11H20.5003C21.0525 11 21.5003 10.5523 21.5003 10C21.5003 9.44772 21.0525 9 20.5003 9H17.4434L21.314 3.58124C21.5317 3.27642 21.5608 2.87549 21.3894 2.54242C21.218 2.20935 20.8748 2 20.5003 2H15.5003C14.948 2 14.5003 2.44772 14.5003 3C14.5003 3.55228 14.948 4 15.5003 4Z" fill="#0000CC"/>
<path fill-rule="evenodd" clip-rule="evenodd" d="M18.9194 13.6061C18.7618 13.2384 18.4003 13 18.0003 13C17.6002 13 17.2387 13.2384 17.0811 13.6061L14.0811 20.6061C13.8636 21.1137 14.0987 21.7016 14.6063 21.9191C15.114 22.1367 15.7018 21.9015 15.9194 21.3939L16.0882 21H19.9123L20.0811 21.3939C20.2987 21.9015 20.8865 22.1367 21.3942 21.9191C21.9018 21.7016 22.137 21.1137 21.9194 20.6061L18.9194 13.6061ZM18.0002 16.5386L19.0551 19H16.9453L18.0002 16.5386Z" fill="#0000CC"/>
</g>
<path fill-rule="evenodd" clip-rule="evenodd" d="M6.29289 2.29289C6.68342 1.90237 7.31658 1.90237 7.70711 2.29289L11.7071 6.29289C12.0976 6.68342 12.0976 7.31658 11.7071 7.70711C11.3166 8.09763 10.6834 8.09763 10.2929 7.70711L8 5.41421V21C8 21.5523 7.55228 22 7 22C6.44772 22 6 21.5523 6 21V5.41421L3.70711 7.70711C3.31658 8.09763 2.68342 8.09763 2.29289 7.70711C1.90237 7.31658 1.90237 6.68342 2.29289 6.29289L6.29289 2.29289Z" fill="#0000CC"/>
</svg>
