<svg width="24" height="24" viewBox="0 0 24 24" fill="none" xmlns="http://www.w3.org/2000/svg">
<path opacity="0.3" d="M22 12C22 17.5228 17.5228 22 12 22C6.47715 22 2 17.5228 2 12C2 6.47715 6.47715 2 12 2C17.5228 2 22 6.47715 22 12Z" fill="#0000CC"/>
<path d="M19.7429 5.67129L12.4142 13H15.5C16.0523 13 16.5 13.4477 16.5 14C16.5 14.5523 16.0523 15 15.5 15H10C9.44772 15 9 14.5523 9 14V8.34312C9 7.79084 9.44772 7.34312 10 7.34312C10.5523 7.34312 11 7.79084 11 8.34312V11.5858L18.3287 4.25708C18.8458 4.68024 19.3198 5.15418 19.7429 5.67129Z" fill="#0000CC"/>
</svg>
