<svg width="24" height="24" viewBox="0 0 24 24" fill="none" xmlns="http://www.w3.org/2000/svg">
<g opacity="0.3">
<path d="M14.8618 3.01695C15.0699 2.99994 15.3157 2.99997 15.5681 3H19.4319C19.6843 2.99997 19.9301 2.99994 20.1382 3.01695C20.3668 3.03563 20.6366 3.07969 20.908 3.21799C21.2843 3.40974 21.5903 3.7157 21.782 4.09202C21.9203 4.36345 21.9644 4.63318 21.9831 4.86178C22.0001 5.06994 22 5.31574 22 5.56812V9.43189C22 9.68427 22.0001 9.93007 21.9831 10.1382C21.9644 10.3668 21.9203 10.6366 21.782 10.908C21.5903 11.2843 21.2843 11.5903 20.908 11.782C20.6366 11.9203 20.3668 11.9644 20.1382 11.9831C19.9301 12.0001 19.6843 12 19.4319 12H15.5681C15.3157 12 15.0699 12.0001 14.8618 11.9831C14.6332 11.9644 14.3634 11.9203 14.092 11.782C13.7157 11.5903 13.4097 11.2843 13.218 10.908C13.0797 10.6366 13.0356 10.3668 13.017 10.1382C12.9999 9.93008 13 9.68428 13 9.4319V5.56809C13 5.31572 12.9999 5.06993 13.017 4.86178C13.0356 4.63318 13.0797 4.36345 13.218 4.09202C13.4097 3.7157 13.7157 3.40974 14.092 3.21799C14.3634 3.07969 14.6332 3.03563 14.8618 3.01695Z" fill="#0000CC"/>
<path d="M15.5681 14H17.4319C17.6843 14 17.9301 13.9999 18.1382 14.0169C18.3668 14.0356 18.6366 14.0797 18.908 14.218C19.2843 14.4097 19.5903 14.7157 19.782 15.092C19.9203 15.3634 19.9644 15.6332 19.9831 15.8618C20.0001 16.0699 20 16.3157 20 16.5681V18.4319C20 18.6843 20.0001 18.9301 19.9831 19.1382C19.9644 19.3668 19.9203 19.6366 19.782 19.908C19.5903 20.2843 19.2843 20.5903 18.908 20.782C18.6366 20.9203 18.3668 20.9644 18.1382 20.9831C17.9301 21.0001 17.6843 21 17.432 21H15.568C15.3157 21 15.0699 21.0001 14.8618 20.9831C14.6332 20.9644 14.3634 20.9203 14.092 20.782C13.7157 20.5903 13.4097 20.2843 13.218 19.908C13.0797 19.6366 13.0356 19.3668 13.017 19.1382C12.9999 18.9301 13 18.6843 13 18.4319V16.5681C13 16.3157 12.9999 16.0699 13.017 15.8618C13.0356 15.6332 13.0797 15.3634 13.218 15.092C13.4097 14.7157 13.7157 14.4097 14.092 14.218C14.3634 14.0797 14.6332 14.0356 14.8618 14.0169C15.0699 13.9999 15.3157 14 15.5681 14Z" fill="#0000CC"/>
</g>
<path d="M7.70711 3.29289C7.31658 2.90237 6.68342 2.90237 6.29289 3.29289L2.29289 7.29289C1.90237 7.68342 1.90237 8.31658 2.29289 8.70711C2.68342 9.09763 3.31658 9.09763 3.70711 8.70711L6 6.41421V20C6 20.5523 6.44772 21 7 21C7.55228 21 8 20.5523 8 20V6.41421L10.2929 8.70711C10.6834 9.09763 11.3166 9.09763 11.7071 8.70711C12.0976 8.31658 12.0976 7.68342 11.7071 7.29289L7.70711 3.29289Z" fill="#0000CC"/>
</svg>
