<svg width="24" height="24" viewBox="0 0 24 24" fill="none" xmlns="http://www.w3.org/2000/svg">
<path opacity="0.3" d="M9 10H3C2.44772 10 2 10.4477 2 11V12C2 17.5228 6.47715 22 12 22C17.5228 22 22 17.5228 22 12V11C22 10.4477 21.5523 10 21 10H15V15C15 16.6569 13.6569 18 12 18C10.3431 18 9 16.6569 9 15V10Z" fill="#0000CC"/>
<path fill-rule="evenodd" clip-rule="evenodd" d="M11.2929 2.29289C11.6834 1.90237 12.3166 1.90237 12.7071 2.29289L16.7071 6.29289C17.0976 6.68342 17.0976 7.31658 16.7071 7.70711C16.3166 8.09763 15.6834 8.09763 15.2929 7.70711L13 5.41421V15C13 15.5523 12.5523 16 12 16C11.4477 16 11 15.5523 11 15V5.41421L8.70711 7.70711C8.31658 8.09763 7.68342 8.09763 7.29289 7.70711C6.90237 7.31658 6.90237 6.68342 7.29289 6.29289L11.2929 2.29289Z" fill="#0000CC"/>
</svg>
