<svg width="24" height="24" viewBox="0 0 24 24" fill="none" xmlns="http://www.w3.org/2000/svg">
<g opacity="0.3">
<path d="M5.1354 14.4933L3.10557 18.5529C2.95058 18.8629 2.96714 19.2311 3.14935 19.5259C3.33156 19.8207 3.65342 20.0001 4 20.0001H6L7.2 21.6001C7.40795 21.8774 7.74463 22.0272 8.08981 21.9961C8.43499 21.965 8.73944 21.7573 8.89443 21.4474L10.7537 17.7289C10.6787 17.6946 10.6049 17.6572 10.5323 17.6165L9.80113 17.2063L8.96284 17.1959C7.91763 17.183 6.95452 16.6269 6.4207 15.7282L5.99257 15.0074L5.27179 14.5793C5.2254 14.5517 5.17993 14.523 5.1354 14.4933Z" fill="#0000CC"/>
<path d="M13.2463 17.7289L15.1056 21.4474C15.2606 21.7573 15.565 21.965 15.9102 21.9961C16.2554 22.0272 16.5921 21.8774 16.8 21.6001L18 20.0001H20C20.3466 20.0001 20.6684 19.8207 20.8507 19.5259C21.0329 19.2311 21.0494 18.8629 20.8944 18.5529L18.8646 14.4933C18.8201 14.523 18.7746 14.5517 18.7282 14.5793L18.0074 15.0074L17.5793 15.7282C17.0455 16.6269 16.0824 17.183 15.0372 17.1959L14.1989 17.2063L13.4677 17.6165C13.3951 17.6572 13.3213 17.6946 13.2463 17.7289Z" fill="#0000CC"/>
</g>
<path fill-rule="evenodd" clip-rule="evenodd" d="M12.4892 2.12785C12.1854 1.95738 11.8146 1.95738 11.5108 2.12785L10.3353 2.78723L8.98762 2.80392C8.63921 2.80824 8.31817 2.99359 8.14023 3.29316L7.45194 4.45194L6.29316 5.14023C5.99359 5.31817 5.80824 5.63921 5.80392 5.98762L5.78723 7.33529L5.12785 8.51076C4.95738 8.81465 4.95738 9.18535 5.12785 9.48924L5.78723 10.6647L5.80392 12.0124C5.80824 12.3608 5.99359 12.6818 6.29316 12.8598L7.45194 13.5481L8.14023 14.7068C8.31817 15.0064 8.63921 15.1918 8.98761 15.1961L10.3353 15.2128L11.5108 15.8722C11.8146 16.0426 12.1854 16.0426 12.4892 15.8722L13.6647 15.2128L15.0124 15.1961C15.3608 15.1918 15.6818 15.0064 15.8598 14.7068L16.5481 13.5481L17.7068 12.8598C18.0064 12.6818 18.1918 12.3608 18.1961 12.0124L18.2128 10.6647L18.8722 9.48924C19.0426 9.18535 19.0426 8.81465 18.8722 8.51076L18.2128 7.33529L18.1961 5.98761C18.1918 5.63921 18.0064 5.31817 17.7068 5.14023L16.5481 4.45194L15.8598 3.29316C15.6818 2.99359 15.3608 2.80824 15.0124 2.80392L13.6647 2.78723L12.4892 2.12785ZM12 6C10.3431 6 9 7.34315 9 9C9 10.6569 10.3431 12 12 12C13.6569 12 15 10.6569 15 9C15 7.34315 13.6569 6 12 6Z" fill="#0000CC"/>
</svg>
