<svg width="24" height="24" viewBox="0 0 24 24" fill="none" xmlns="http://www.w3.org/2000/svg">
<g opacity="0.3">
<path d="M6 2C4.5464 2 3.54772 3.23457 2.97072 4.48475C2.35451 5.81987 2 7.59404 2 9.5C2 11.406 2.35451 13.1801 2.97072 14.5153C3.54772 15.7654 4.5464 17 6 17C6.55228 17 7 16.5523 7 16C7 15.3758 7.64243 14.4817 9.31973 13.9157C9.72628 13.7786 10 13.3973 10 12.9682V6.03175C10 5.60268 9.72628 5.22143 9.31973 5.08424C7.64242 4.51826 7 3.62422 7 3C7 2.44772 6.55228 2 6 2Z" fill="#0000CC"/>
<path d="M18 2C17.4477 2 17 2.44772 17 3C17 3.62422 16.3576 4.51826 14.6803 5.08425C14.2737 5.22144 14 5.60269 14 6.03176V12.9682C14 13.3973 14.2737 13.7786 14.6803 13.9158C16.3576 14.4817 17 15.3758 17 16C17 16.5523 17.4477 17 18 17C19.4536 17 20.4523 15.7654 21.0293 14.5153C21.6455 13.1801 22 11.406 22 9.5C22 7.59404 21.6455 5.81987 21.0293 4.48475C20.4523 3.23457 19.4536 2 18 2Z" fill="#0000CC"/>
</g>
<path d="M13 3C13 2.44772 12.5523 2 12 2C11.4477 2 11 2.44772 11 3V21C11 21.5523 11.4477 22 12 22C12.5523 22 13 21.5523 13 21V3Z" fill="#0000CC"/>
</svg>
