<svg width="24" height="24" viewBox="0 0 24 24" fill="none" xmlns="http://www.w3.org/2000/svg">
<path opacity="0.3" fill-rule="evenodd" clip-rule="evenodd" d="M10.7587 5H13.2413C14.0463 4.99999 14.7106 4.99998 15.2518 5.04419C15.8139 5.09012 16.3306 5.18868 16.816 5.43597C17.5686 5.81947 18.1805 6.43139 18.564 7.18404C18.8113 7.66937 18.9099 8.18608 18.9558 8.74817C19 9.28938 19 9.95374 19 10.7587V16.2413C19 17.0463 19 17.7106 18.9558 18.2518C18.9099 18.8139 18.8113 19.3306 18.564 19.816C18.1805 20.5686 17.5686 21.1805 16.816 21.564C16.3306 21.8113 15.8139 21.9099 15.2518 21.9558C14.7106 22 14.0463 22 13.2413 22H10.7587C9.95372 22 9.28936 22 8.74817 21.9558C8.18608 21.9099 7.66937 21.8113 7.18404 21.564C6.43139 21.1805 5.81947 20.5686 5.43597 19.816C5.18868 19.3306 5.09012 18.8139 5.04419 18.2518C4.99998 17.7106 4.99999 17.0463 5 16.2413V10.7587C4.99999 9.95373 4.99998 9.28937 5.04419 8.74817C5.09012 8.18608 5.18868 7.66937 5.43597 7.18404C5.81947 6.43139 6.43139 5.81947 7.18404 5.43597C7.66937 5.18868 8.18608 5.09012 8.74818 5.04419C9.28937 4.99998 9.95373 4.99999 10.7587 5Z" fill="#0000CC"/>
<path d="M13.7327 5.00041C13.3869 4.40238 12.7405 4 12 4C11.2596 4 10.6131 4.40238 10.2673 5.00041C9.6786 5.00196 9.17507 5.00932 8.74818 5.04419C8.5234 5.06256 8.30589 5.08934 8.09473 5.13069C8.49167 3.33954 10.0894 2 12 2C13.9106 2 15.5083 3.33954 15.9053 5.13069C15.6941 5.08935 15.4766 5.06256 15.2518 5.04419C14.8249 5.00932 14.3214 5.00196 13.7327 5.00041Z" fill="#0000CC"/>
<path d="M19 13V11L19.4319 11C19.6843 11 19.9301 10.9999 20.1382 11.0169C20.3668 11.0356 20.6366 11.0797 20.908 11.218C21.2843 11.4097 21.5903 11.7157 21.782 12.092C21.9203 12.3634 21.9644 12.6332 21.9831 12.8618C22.0001 13.0698 22 13.3156 22 13.5679V16.432C22 16.6843 22.0001 16.9302 21.9831 17.1382C21.9644 17.3668 21.9203 17.6366 21.782 17.908C21.5903 18.2843 21.2843 18.5903 20.908 18.782C20.6366 18.9203 20.3668 18.9644 20.1382 18.9831C19.9302 19.0001 19.6844 19 19.4322 19L18.8497 19C18.9024 18.7593 18.9347 18.5104 18.9558 18.2518C18.9853 17.891 18.9951 17.4755 18.9984 17H19.4C19.6965 17 19.8588 16.9992 19.9754 16.9897L19.9886 16.9885L19.9897 16.9754C19.9992 16.8588 20 16.6965 20 16.4V13.6C20 13.3035 19.9992 13.1412 19.9897 13.0246L19.9885 13.0114L19.9754 13.0103C19.8588 13.0008 19.6965 13 19.4 13H19Z" fill="#0000CC"/>
<path d="M5.04419 18.2518C5.01472 17.891 5.00489 17.4755 5.00163 17H4.60001C4.30348 17 4.14122 16.9992 4.02464 16.9897L4.01145 16.9886L4.01031 16.9754C4.00078 16.8588 4.00001 16.6965 4.00001 16.4V13.6C4.00001 13.3035 4.00078 13.1412 4.01031 13.0246L4.01145 13.0114L4.02464 13.0103C4.14122 13.0008 4.30348 13 4.60001 13H5V11L4.56811 11C4.31574 11 4.06992 10.9999 3.86178 11.0169C3.63318 11.0356 3.36345 11.0797 3.09202 11.218C2.7157 11.4097 2.40974 11.7157 2.21799 12.092C2.07969 12.3634 2.03563 12.6332 2.01695 12.8618C1.99994 13.0699 1.99997 13.3157 2 13.5681L2 16.4319C1.99997 16.6843 1.99994 16.9301 2.01695 17.1382C2.03563 17.3668 2.07969 17.6366 2.21799 17.908C2.40974 18.2843 2.7157 18.5903 3.09202 18.782C3.36345 18.9203 3.63318 18.9644 3.86178 18.9831C4.06983 19.0001 4.31562 19 4.56787 19L5.15032 19C5.09758 18.7593 5.06532 18.5104 5.04419 18.2518Z" fill="#0000CC"/>
<path d="M9 12C9 11.4477 9.44772 11 10 11H14C14.5523 11 15 11.4477 15 12C15 12.5523 14.5523 13 14 13H10C9.44772 13 9 12.5523 9 12Z" fill="#0000CC"/>
</svg>
