<svg width="24" height="24" viewBox="0 0 24 24" fill="none" xmlns="http://www.w3.org/2000/svg">
<g opacity="0.3">
<path fill-rule="evenodd" clip-rule="evenodd" d="M2 7.2C2 6.0799 2 5.51984 2.21799 5.09202C2.40973 4.71569 2.71569 4.40973 3.09202 4.21799C3.51984 4 4.0799 4 5.2 4H18.8C19.9201 4 20.4802 4 20.908 4.21799C21.2843 4.40973 21.5903 4.71569 21.782 5.09202C22 5.51984 22 6.0799 22 7.2V7.8C22 8.9201 22 9.48016 21.782 9.90798C21.5903 10.2843 21.2843 10.5903 20.908 10.782C20.4802 11 19.9201 11 18.8 11H5.2C4.0799 11 3.51984 11 3.09202 10.782C2.71569 10.5903 2.40973 10.2843 2.21799 9.90798C2 9.48016 2 8.9201 2 7.8V7.2ZM20 6H14V9H20V6Z" fill="#0000CC"/>
<path fill-rule="evenodd" clip-rule="evenodd" d="M2 16.2C2 15.0799 2 14.5198 2.21799 14.092C2.40973 13.7157 2.71569 13.4097 3.09202 13.218C3.51984 13 4.0799 13 5.2 13H18.8C19.9201 13 20.4802 13 20.908 13.218C21.2843 13.4097 21.5903 13.7157 21.782 14.092C22 14.5198 22 15.0799 22 16.2V16.8C22 17.9201 22 18.4802 21.782 18.908C21.5903 19.2843 21.2843 19.5903 20.908 19.782C20.4802 20 19.9201 20 18.8 20H5.2C4.0799 20 3.51984 20 3.09202 19.782C2.71569 19.5903 2.40973 19.2843 2.21799 18.908C2 18.4802 2 17.9201 2 16.8V16.2ZM8 15H20V18H8V15Z" fill="#0000CC"/>
</g>
<path d="M14 6H4V9H14V6Z" fill="#0000CC"/>
<path d="M8 15H4V18H8V15Z" fill="#0000CC"/>
</svg>
