<svg width="24" height="24" viewBox="0 0 24 24" fill="none" xmlns="http://www.w3.org/2000/svg">
<path opacity="0.14" d="M10.5327 9.46727L17 3L21 7L13.5 14.5L8.80631 16.8468C7.9411 17.2795 7.15128 17.8487 6.46727 18.5327L4.5 20.5L3.5 19.5L5.46727 17.5327C6.15128 16.8487 6.72055 16.0589 7.15315 15.1937L8.84685 11.8063C9.27945 10.9411 9.84872 10.1513 10.5327 9.46727Z" fill="#0000CC"/>
<path d="M3.5 19.5L5.46727 17.5327C6.15128 16.8487 6.72055 16.0589 7.15315 15.1937L8.84685 11.8063C9.27945 10.9411 9.84872 10.1513 10.5327 9.46727L17 3L21 7L13.5 14.5L8.80631 16.8468C7.9411 17.2795 7.15128 17.8487 6.46727 18.5327L4.5 20.5M3 19L5 21" stroke="#0000CC" stroke-width="2" stroke-linecap="round" stroke-linejoin="round"/>
</svg>
