<svg width="24" height="24" viewBox="0 0 24 24" fill="none" xmlns="http://www.w3.org/2000/svg">
<circle opacity="0.14" cx="12" cy="12" r="9" fill="#0000CC"/>
<path d="M8.07318 17.9022C8.39946 17.4566 8.30272 16.8309 7.85712 16.5046C7.41151 16.1783 6.78578 16.2751 6.45951 16.7207L8.07318 17.9022ZM5.33309 17.9632C4.92156 18.3315 4.88654 18.9637 5.25486 19.3752C5.62319 19.7868 6.25539 19.8218 6.66691 19.4535L5.33309 17.9632ZM7.82721 13.6626C7.71307 14.203 8.05859 14.7335 8.59895 14.8477C9.13931 14.9618 9.66989 14.6163 9.78403 14.076L7.82721 13.6626ZM9.78376 9.92279C9.66955 9.38244 9.13892 9.03699 8.59858 9.1512C8.05823 9.26542 7.71278 9.79604 7.82699 10.3364L9.78376 9.92279ZM6.66691 4.54655C6.25539 4.17823 5.62319 4.21325 5.25487 4.62477C4.88654 5.0363 4.92156 5.6685 5.33309 6.03682L6.66691 4.54655ZM6.46202 7.28278C6.78805 7.72855 7.41373 7.82562 7.85951 7.49958C8.30529 7.17354 8.40236 6.54786 8.07632 6.10209L6.46202 7.28278ZM17.5405 16.7207C17.2142 16.2751 16.5885 16.1783 16.1429 16.5046C15.6973 16.8309 15.6005 17.4566 15.9268 17.9022L17.5405 16.7207ZM17.3331 19.4535C17.7446 19.8218 18.3768 19.7868 18.7451 19.3752C19.1135 18.9637 19.0784 18.3315 18.6669 17.9632L17.3331 19.4535ZM14.216 14.076C14.3301 14.6163 14.8607 14.9618 15.4011 14.8477C15.9414 14.7335 16.2869 14.203 16.1728 13.6626L14.216 14.076ZM16.173 10.3364C16.2872 9.79604 15.9418 9.26542 15.4014 9.1512C14.8611 9.03699 14.3305 9.38244 14.2162 9.92279L16.173 10.3364ZM18.6669 6.03682C19.0784 5.6685 19.1135 5.0363 18.7451 4.62477C18.3768 4.21325 17.7446 4.17823 17.3331 4.54655L18.6669 6.03682ZM15.9237 6.10209C15.5976 6.54786 15.6947 7.17354 16.1405 7.49958C16.5863 7.82562 17.2119 7.72855 17.538 7.28278L15.9237 6.10209ZM20 12C20 16.4183 16.4183 20 12 20V22C17.5228 22 22 17.5228 22 12H20ZM12 20C7.58172 20 4 16.4183 4 12H2C2 17.5228 6.47715 22 12 22V20ZM4 12C4 7.58172 7.58172 4 12 4V2C6.47715 2 2 6.47715 2 12H4ZM12 4C16.4183 4 20 7.58172 20 12H22C22 6.47715 17.5228 2 12 2V4ZM6.45951 16.7207C6.12816 17.1732 5.75034 17.5897 5.33309 17.9632L6.66691 19.4535C7.18771 18.9873 7.65937 18.4674 8.07318 17.9022L6.45951 16.7207ZM8 12C8 12.5711 7.94032 13.1271 7.82721 13.6626L9.78403 14.076C9.92568 13.4054 10 12.7108 10 12H8ZM7.82699 10.3364C7.94025 10.8722 8 11.4286 8 12H10C10 11.2887 9.92558 10.5938 9.78376 9.92279L7.82699 10.3364ZM5.33309 6.03682C5.75139 6.41122 6.13006 6.82892 6.46202 7.28278L8.07632 6.10209C7.66175 5.53527 7.18903 5.01386 6.66691 4.54655L5.33309 6.03682ZM15.9268 17.9022C16.3406 18.4674 16.8123 18.9873 17.3331 19.4535L18.6669 17.9632C18.2497 17.5897 17.8718 17.1732 17.5405 16.7207L15.9268 17.9022ZM14 12C14 12.7108 14.0743 13.4054 14.216 14.076L16.1728 13.6626C16.0597 13.1271 16 12.5711 16 12H14ZM14.2162 9.92279C14.0744 10.5938 14 11.2887 14 12H16C16 11.4286 16.0598 10.8722 16.173 10.3364L14.2162 9.92279ZM17.3331 4.54655C16.811 5.01386 16.3382 5.53527 15.9237 6.10209L17.538 7.28278C17.8699 6.82892 18.2486 6.41122 18.6669 6.03682L17.3331 4.54655Z" fill="#0000CC"/>
</svg>
