<svg width="24" height="24" viewBox="0 0 24 24" fill="none" xmlns="http://www.w3.org/2000/svg">
<g opacity="0.3">
<path d="M10 15H22V13.1614C22 12.6343 22 12.1795 21.9694 11.805C21.9371 11.4096 21.8658 11.0164 21.673 10.638C21.3854 10.0735 20.9265 9.6146 20.362 9.32698C19.9836 9.13419 19.5904 9.06287 19.195 9.03057C18.8205 8.99997 18.3657 8.99998 17.8385 9L11 9C10.4477 9 10 9.44772 10 10V15Z" fill="#0000CC"/>
<path d="M7 10C5.89543 10 5 10.8954 5 12C5 13.1046 5.89543 14 7 14C8.10457 14 9 13.1046 9 12C9 10.8954 8.10457 10 7 10Z" fill="#0000CC"/>
</g>
<path d="M4 5C4 4.44772 3.55228 4 3 4C2.44772 4 2 4.44772 2 5V19C2 19.5523 2.44772 20 3 20C3.55228 20 4 19.5523 4 19V17H20V19C20 19.5523 20.4477 20 21 20C21.5523 20 22 19.5523 22 19V15H4V5Z" fill="#0000CC"/>
</svg>
