<svg width="24" height="24" viewBox="0 0 24 24" fill="none" xmlns="http://www.w3.org/2000/svg">
<g opacity="0.3">
<path d="M5.29392 6.70765C5.10126 7.31475 5.00025 7.9515 5.00025 8.6C5.00025 11.1091 4.37129 12.8249 3.67444 13.9651L3.66335 13.9833C3.28703 14.599 2.99135 15.0828 2.79247 15.4326C2.69295 15.6077 2.60378 15.7732 2.53828 15.9177C2.50569 15.9896 2.46942 16.077 2.44105 16.1711C2.41856 16.2457 2.37042 16.4193 2.3889 16.6307C2.40025 16.7605 2.42738 16.9968 2.56375 17.24C2.70012 17.4831 2.88764 17.6295 2.99245 17.7069C3.14619 17.8204 3.2996 17.8714 3.38165 17.8952C3.47545 17.9223 3.56609 17.9384 3.64093 17.949C3.79008 17.97 3.96148 17.9806 4.13717 17.9871C4.47948 17.9997 4.95292 18 5.5441 18H16.5863L5.29392 6.70765Z" fill="#0000CC"/>
<path d="M21.4431 17.2286C21.574 16.9894 21.6004 16.7584 21.6116 16.6307C21.6301 16.4193 21.5819 16.2457 21.5595 16.1711C21.5311 16.077 21.4948 15.9896 21.4622 15.9177C21.3967 15.7732 21.3076 15.6077 21.208 15.4326C21.0092 15.083 20.7137 14.5994 20.3376 13.984L20.3261 13.9651C19.6292 12.8249 19.0003 11.1091 19.0003 8.6C19.0003 6.82644 18.2448 5.14072 16.9252 3.90915C15.608 2.67975 13.8354 2 12.0003 2C10.4186 2 8.88333 2.50496 7.64608 3.43157L21.4431 17.2286Z" fill="#0000CC"/>
<path d="M12.0003 22C10.5197 22 9.227 21.1956 8.53538 20H15.4651C14.7735 21.1956 13.4808 22 12.0003 22Z" fill="#0000CC"/>
</g>
<path fill-rule="evenodd" clip-rule="evenodd" d="M2.29289 2.29289C2.68342 1.90237 3.31658 1.90237 3.70711 2.29289L21.7071 20.2929C22.0976 20.6834 22.0976 21.3166 21.7071 21.7071C21.3166 22.0976 20.6834 22.0976 20.2929 21.7071L2.29289 3.70711C1.90237 3.31658 1.90237 2.68342 2.29289 2.29289Z" fill="#0000CC"/>
</svg>
