<svg width="24" height="24" viewBox="0 0 24 24" fill="none" xmlns="http://www.w3.org/2000/svg">
<g opacity="0.14">
<path d="M8 15.5C8 16.8807 6.88071 18 5.5 18C4.11929 18 3 16.8807 3 15.5C3 14.1193 4.11929 13 5.5 13C6.88071 13 8 14.1193 8 15.5Z" fill="#0000CC"/>
<path d="M21 15.5C21 16.8807 19.8807 18 18.5 18C17.1193 18 16 16.8807 16 15.5C16 14.1193 17.1193 13 18.5 13C19.8807 13 21 14.1193 21 15.5Z" fill="#0000CC"/>
</g>
<path d="M5.5 15.5L8.5 10.5H15.8529M4.5 6H7L11.5 15.5M20 8C20 6.89543 19.1046 6 18 6H14L18.5 15.5M8 15.5C8 16.8807 6.88071 18 5.5 18C4.11929 18 3 16.8807 3 15.5C3 14.1193 4.11929 13 5.5 13C6.88071 13 8 14.1193 8 15.5ZM21 15.5C21 16.8807 19.8807 18 18.5 18C17.1193 18 16 16.8807 16 15.5C16 14.1193 17.1193 13 18.5 13C19.8807 13 21 14.1193 21 15.5Z" stroke="#0000CC" stroke-width="2" stroke-linecap="round" stroke-linejoin="round"/>
</svg>
