<svg width="24" height="24" viewBox="0 0 24 24" fill="none" xmlns="http://www.w3.org/2000/svg">
<path opacity="0.3" d="M12 2C6.47715 2 2 6.47715 2 12C2 17.5228 6.47715 22 12 22C17.5228 22 22 17.5228 22 12C22 6.47715 17.5228 2 12 2Z" fill="#0000CC"/>
<path fill-rule="evenodd" clip-rule="evenodd" d="M9.5 5.5C10.0523 5.5 10.5 5.94772 10.5 6.5V7H11.5V6.5C11.5 5.94772 11.9477 5.5 12.5 5.5C13.0523 5.5 13.5 5.94772 13.5 6.5V7C15.1569 7 16.5 8.34315 16.5 10C16.5 10.7684 16.2111 11.4692 15.7361 12C16.2111 12.5308 16.5 13.2316 16.5 14C16.5 15.6569 15.1569 17 13.5 17V17.5C13.5 18.0523 13.0523 18.5 12.5 18.5C11.9477 18.5 11.5 18.0523 11.5 17.5V17H10.5V17.5C10.5 18.0523 10.0523 18.5 9.5 18.5C8.94772 18.5 8.5 18.0523 8.5 17.5V17H8C7.44772 17 7 16.5523 7 16C7 15.4477 7.44772 15 8 15H8.5V9H8C7.44772 9 7 8.55228 7 8C7 7.44772 7.44772 7 8 7H8.5V6.5C8.5 5.94772 8.94772 5.5 9.5 5.5ZM10.5 9V11H13.5C14.0523 11 14.5 10.5523 14.5 10C14.5 9.44772 14.0523 9 13.5 9H10.5ZM13.5 13H10.5V15H13.5C14.0523 15 14.5 14.5523 14.5 14C14.5 13.4477 14.0523 13 13.5 13Z" fill="#0000CC"/>
</svg>
