<svg width="24" height="24" viewBox="0 0 24 24" fill="none" xmlns="http://www.w3.org/2000/svg">
<path opacity="0.3" fill-rule="evenodd" clip-rule="evenodd" d="M15.8385 2H8.16146C7.63434 1.99998 7.17953 1.99997 6.80498 2.03057C6.40963 2.06287 6.01641 2.13419 5.63803 2.32698C5.07355 2.6146 4.6146 3.07355 4.32698 3.63803C4.13419 4.01641 4.06287 4.40963 4.03057 4.80498C3.99997 5.17953 3.99998 5.63431 4 6.16143V19C4 20.6569 5.34315 22 7 22H19C19.5523 22 20 21.5523 20 21C20 20.4477 19.5523 20 19 20V18C19.5523 18 20 17.5523 20 17V6.16124C20 5.6342 20 5.17949 19.9694 4.80498C19.9371 4.40963 19.8658 4.01641 19.673 3.63803C19.3854 3.07355 18.9265 2.6146 18.362 2.32698C17.9836 2.13419 17.5904 2.06287 17.195 2.03057C16.8205 1.99997 16.3657 1.99998 15.8385 2ZM6 19C6 18.4477 6.44772 18 7 18H17V20H7C6.44772 20 6 19.5523 6 19ZM11 6C11 5.44772 10.5523 5 10 5C9.44772 5 9 5.44772 9 6V7H8C7.44772 7 7 7.44772 7 8C7 8.55229 7.44772 9 8 9H9V10C9 10.5523 9.44772 11 10 11C10.5523 11 11 10.5523 11 10V9H12C12.5523 9 13 8.55229 13 8C13 7.44772 12.5523 7 12 7H11V6ZM14 9C14.5523 9 15 9.44772 15 10V11H16C16.5523 11 17 11.4477 17 12C17 12.5523 16.5523 13 16 13H15V14C15 14.5523 14.5523 15 14 15C13.4477 15 13 14.5523 13 14V13H12C11.4477 13 11 12.5523 11 12C11 11.4477 11.4477 11 12 11H13V10C13 9.44772 13.4477 9 14 9Z" fill="#0000CC"/>
<path fill-rule="evenodd" clip-rule="evenodd" d="M6 19C6 18.4477 6.44772 18 7 18H17V20H7C6.44772 20 6 19.5523 6 19ZM11 6C11 5.44772 10.5523 5 10 5C9.44771 5 9 5.44772 9 6V7H8C7.44771 7 7 7.44772 7 8C7 8.55229 7.44771 9 8 9H9V10C9 10.5523 9.44771 11 10 11C10.5523 11 11 10.5523 11 10V9H12C12.5523 9 13 8.55229 13 8C13 7.44772 12.5523 7 12 7H11V6ZM14 9C14.5523 9 15 9.44772 15 10V11H16C16.5523 11 17 11.4477 17 12C17 12.5523 16.5523 13 16 13H15V14C15 14.5523 14.5523 15 14 15C13.4477 15 13 14.5523 13 14V13H12C11.4477 13 11 12.5523 11 12C11 11.4477 11.4477 11 12 11H13V10C13 9.44772 13.4477 9 14 9Z" fill="#0000CC"/>
</svg>
