<svg width="24" height="24" viewBox="0 0 24 24" fill="none" xmlns="http://www.w3.org/2000/svg">
<path opacity="0.3" fill-rule="evenodd" clip-rule="evenodd" d="M15.8385 2H8.16146C7.63436 1.99999 7.17952 1.99997 6.80498 2.03057C6.40963 2.06287 6.01641 2.13419 5.63803 2.32698C5.07355 2.6146 4.6146 3.07355 4.32698 3.63803C4.13419 4.01641 4.06287 4.40963 4.03057 4.80498C3.99997 5.17953 3.99998 5.63429 4 6.1614V19C4 20.6569 5.34315 22 7 22H19C19.5523 22 20 21.5523 20 21C20 20.4477 19.5523 20 19 20H7C6.96549 20 6.93138 19.9983 6.89776 19.9948C6.3935 19.9436 6 19.5178 6 19C6 18.931 6.007 18.8636 6.02032 18.7985C6.11357 18.3428 6.51675 18 7 18L19.002 18C19.5534 17.9989 20 17.5516 20 17V6.16146C20 5.63437 20 5.17951 19.9694 4.80498C19.9371 4.40963 19.8658 4.01641 19.673 3.63803C19.3854 3.07355 18.9265 2.6146 18.362 2.32698C17.9836 2.13419 17.5904 2.06287 17.195 2.03057C16.8205 1.99997 16.3657 1.99999 15.8385 2Z" fill="#0000CC"/>
<path d="M8.5 8C8.5 6.34315 9.84315 5 11.5 5H12.5833C14.1942 5 15.5 6.30584 15.5 7.91667V8C15.5 8.55228 15.0523 9 14.5 9C13.9477 9 13.5 8.55228 13.5 8V7.91667C13.5 7.41041 13.0896 7 12.5833 7H11.5C10.9477 7 10.5 7.44772 10.5 8C10.5 8.55228 10.9477 9 11.5 9H12.5C14.1569 9 15.5 10.3431 15.5 12C15.5 13.6569 14.1569 15 12.5 15H11.4583C9.82449 15 8.5 13.6755 8.5 12.0417V12C8.5 11.4477 8.94772 11 9.5 11C10.0523 11 10.5 11.4477 10.5 12V12.0417C10.5 12.5709 10.9291 13 11.4583 13H12.5C13.0523 13 13.5 12.5523 13.5 12C13.5 11.4477 13.0523 11 12.5 11H11.5C9.84315 11 8.5 9.65685 8.5 8Z" fill="#0000CC"/>
<path d="M6 19C6 18.4477 6.44772 18 7 18H18V20H7C6.44771 20 6 19.5523 6 19Z" fill="#0000CC"/>
</svg>
