<svg width="24" height="24" viewBox="0 0 24 24" fill="none" xmlns="http://www.w3.org/2000/svg">
<g opacity="0.3">
<path d="M5 20C5 19.4477 4.55228 19 4 19C3.44772 19 3 19.4477 3 20C3 20.5523 3.44772 21 4 21C4.55228 21 5 20.5523 5 20Z" fill="#0000CC"/>
<path d="M9 20C9 19.4477 8.55229 19 8 19C7.44772 19 7 19.4477 7 20C7 20.5523 7.44772 21 8 21C8.55229 21 9 20.5523 9 20Z" fill="#0000CC"/>
<path d="M12 19C12.5523 19 13 19.4477 13 20C13 20.5523 12.5523 21 12 21C11.4477 21 11 20.5523 11 20C11 19.4477 11.4477 19 12 19Z" fill="#0000CC"/>
<path d="M17 20C17 19.4477 16.5523 19 16 19C15.4477 19 15 19.4477 15 20C15 20.5523 15.4477 21 16 21C16.5523 21 17 20.5523 17 20Z" fill="#0000CC"/>
<path d="M20 19C20.5523 19 21 19.4477 21 20C21 20.5523 20.5523 21 20 21C19.4477 21 19 20.5523 19 20C19 19.4477 19.4477 19 20 19Z" fill="#0000CC"/>
<path d="M21 16C21 15.4477 20.5523 15 20 15C19.4477 15 19 15.4477 19 16C19 16.5523 19.4477 17 20 17C20.5523 17 21 16.5523 21 16Z" fill="#0000CC"/>
<path d="M12 15C12.5523 15 13 15.4477 13 16C13 16.5523 12.5523 17 12 17C11.4477 17 11 16.5523 11 16C11 15.4477 11.4477 15 12 15Z" fill="#0000CC"/>
<path d="M5 16C5 15.4477 4.55228 15 4 15C3.44772 15 3 15.4477 3 16C3 16.5523 3.44772 17 4 17C4.55228 17 5 16.5523 5 16Z" fill="#0000CC"/>
<path d="M4 11C4.55228 11 5 11.4477 5 12C5 12.5523 4.55228 13 4 13C3.44772 13 3 12.5523 3 12C3 11.4477 3.44772 11 4 11Z" fill="#0000CC"/>
<path d="M9 12C9 11.4477 8.55229 11 8 11C7.44772 11 7 11.4477 7 12C7 12.5523 7.44772 13 8 13C8.55229 13 9 12.5523 9 12Z" fill="#0000CC"/>
<path d="M12 11C12.5523 11 13 11.4477 13 12C13 12.5523 12.5523 13 12 13C11.4477 13 11 12.5523 11 12C11 11.4477 11.4477 11 12 11Z" fill="#0000CC"/>
<path d="M17 12C17 11.4477 16.5523 11 16 11C15.4477 11 15 11.4477 15 12C15 12.5523 15.4477 13 16 13C16.5523 13 17 12.5523 17 12Z" fill="#0000CC"/>
<path d="M20 11C20.5523 11 21 11.4477 21 12C21 12.5523 20.5523 13 20 13C19.4477 13 19 12.5523 19 12C19 11.4477 19.4477 11 20 11Z" fill="#0000CC"/>
<path d="M21 8C21 7.44772 20.5523 7 20 7C19.4477 7 19 7.44772 19 8C19 8.55229 19.4477 9 20 9C20.5523 9 21 8.55229 21 8Z" fill="#0000CC"/>
<path d="M12 7C12.5523 7 13 7.44772 13 8C13 8.55229 12.5523 9 12 9C11.4477 9 11 8.55229 11 8C11 7.44772 11.4477 7 12 7Z" fill="#0000CC"/>
<path d="M5 8C5 7.44772 4.55228 7 4 7C3.44772 7 3 7.44772 3 8C3 8.55229 3.44772 9 4 9C4.55228 9 5 8.55229 5 8Z" fill="#0000CC"/>
</g>
<path d="M4 5C3.44772 5 3 4.55228 3 4C3 3.44772 3.44772 3 4 3H20C20.5523 3 21 3.44772 21 4C21 4.55228 20.5523 5 20 5H4Z" fill="#0000CC"/>
</svg>
