<svg width="24" height="24" viewBox="0 0 24 24" fill="none" xmlns="http://www.w3.org/2000/svg">
<path opacity="0.3" fill-rule="evenodd" clip-rule="evenodd" d="M4 16.2V10H20V16.2C20 17.8802 20 18.7202 19.673 19.362C19.3854 19.9265 18.9265 20.3854 18.362 20.673C17.7202 21 16.8802 21 15.2 21H8.8C7.11984 21 6.27976 21 5.63803 20.673C5.07354 20.3854 4.6146 19.9265 4.32698 19.362C4 18.7202 4 17.8802 4 16.2ZM9 12C8.44772 12 8 12.4477 8 13C8 13.5523 8.44772 14 9 14H15C15.5523 14 16 13.5523 16 13C16 12.4477 15.5523 12 15 12H9Z" fill="#0000CC"/>
<path d="M2 4.6C2 4.03995 2 3.75992 2.10899 3.54601C2.20487 3.35785 2.35785 3.20487 2.54601 3.10899C2.75992 3 3.03995 3 3.6 3H20.4C20.9601 3 21.2401 3 21.454 3.10899C21.6422 3.20487 21.7951 3.35785 21.891 3.54601C22 3.75992 22 4.03995 22 4.6V7.4C22 7.96005 22 8.24008 21.891 8.45399C21.7951 8.64215 21.6422 8.79513 21.454 8.89101C21.2401 9 20.9601 9 20.4 9H3.6C3.03995 9 2.75992 9 2.54601 8.89101C2.35785 8.79513 2.20487 8.64215 2.10899 8.45399C2 8.24008 2 7.96005 2 7.4V4.6Z" fill="#0000CC"/>
</svg>
