<svg width="24" height="24" viewBox="0 0 24 24" fill="none" xmlns="http://www.w3.org/2000/svg">
<path opacity="0.3" d="M12.5858 12H15C15 12.2652 14.8946 12.5196 14.7071 12.7071L13.6444 13.7698C13.2648 14.1494 13.1948 14.2285 13.1474 14.3059C13.0925 14.3954 13.0521 14.4929 13.0276 14.595C13.0064 14.6833 13 14.7887 13 15.3255V19C13 20.6569 11.6569 22 10 22C9.44772 22 9 21.5523 9 21C9 20.4477 9.44772 20 10 20C10.5523 20 11 19.5523 11 19L10.9999 15.2422C10.9996 14.8353 10.9992 14.4765 11.0829 14.1281C11.1564 13.822 11.2776 13.5293 11.4421 13.2609C11.6293 12.9554 11.8832 12.702 12.1712 12.4145L12.5858 12Z" fill="#0000CC"/>
<path d="M10 2C11.6569 2 13 3.34315 13 5V8.67452C13 9.2113 13.0064 9.3167 13.0276 9.40502C13.0521 9.50705 13.0925 9.6046 13.1474 9.69407C13.1948 9.77151 13.2648 9.85059 13.6444 10.2302L14.7071 11.2929C14.8946 11.4804 15 11.7348 15 12H12.5858L12.1712 11.5855C11.8832 11.2981 11.6293 11.0446 11.4421 10.7391C11.2776 10.4707 11.1564 10.178 11.0829 9.87191C10.9992 9.52346 10.9996 9.16472 10.9999 8.75782L11 5C11 4.44772 10.5523 4 10 4C9.44772 4 9 3.55228 9 3C9 2.44772 9.44772 2 10 2Z" fill="#0000CC"/>
</svg>
