<svg width="24" height="24" viewBox="0 0 24 24" fill="none" xmlns="http://www.w3.org/2000/svg">
<path opacity="0.3" fill-rule="evenodd" clip-rule="evenodd" d="M12 6C8.68629 6 6 8.68629 6 12C6 15.3137 8.68629 18 12 18C15.3137 18 18 15.3137 18 12C18 8.68629 15.3137 6 12 6Z" fill="#0000CC"/>
<path d="M5.05367 6.19081C5.51358 6.4966 5.63852 7.11731 5.33273 7.57722C4.49066 8.84371 4 10.3632 4 12.0002C4 13.6373 4.49066 15.1568 5.33273 16.4233C5.63852 16.8832 5.51358 17.5039 5.05367 17.8097C4.59377 18.1155 3.97305 17.9905 3.66727 17.5306C2.6138 15.9462 2 14.0434 2 12.0002C2 9.95711 2.6138 8.0543 3.66727 6.46987C3.97305 6.00996 4.59377 5.88503 5.05367 6.19081Z" fill="#0000CC"/>
<path d="M18.9463 6.19081C19.4062 5.88503 20.0269 6.00996 20.3327 6.46987C21.3862 8.0543 22 9.95711 22 12.0002C22 13.5949 21.626 15.1051 20.96 16.4452C20.7143 16.9398 20.1141 17.1415 19.6195 16.8957C19.1249 16.6499 18.9232 16.0497 19.169 15.5551C19.7006 14.4854 20 13.2792 20 12.0002C20 10.3632 19.5093 8.84371 18.6673 7.57722C18.3615 7.11731 18.4864 6.4966 18.9463 6.19081Z" fill="#0000CC"/>
<path d="M13 10.0002C13 9.44796 12.5523 9.00024 12 9.00024C11.4477 9.00024 11 9.44796 11 10.0002V11.5002C11 12.0525 11.4477 12.5002 12 12.5002C12.5523 12.5002 13 12.0525 13 11.5002V10.0002Z" fill="#0000CC"/>
<path d="M12 15.0002C12.5523 15.0002 13 14.5525 13 14.0002C13 13.448 12.5523 13.0002 12 13.0002C11.4477 13.0002 11 13.448 11 14.0002C11 14.5525 11.4477 15.0002 12 15.0002Z" fill="#0000CC"/>
</svg>
