<svg width="24" height="24" viewBox="0 0 24 24" fill="none" xmlns="http://www.w3.org/2000/svg">
<path opacity="0.3" fill-rule="evenodd" clip-rule="evenodd" d="M11 2C8.79086 2 7 3.79086 7 6C7 6 6.48309 5.98415 5.74818 6.04419C5.18608 6.09012 4.66938 6.18868 4.18404 6.43597C3.43139 6.81947 2.81947 7.43139 2.43598 8.18404C2.18868 8.66937 2.09012 9.18608 2.0442 9.74817C1.99998 10.2894 1.99999 10.9537 2 11.7587V16.2413C1.99999 17.0463 1.99998 17.7106 2.0442 18.2518C2.09012 18.8139 2.18868 19.3306 2.43598 19.816C2.81947 20.5686 3.43139 21.1805 4.18404 21.564C4.66938 21.8113 5.18608 21.9099 5.74818 21.9558C6.28937 22 6.95372 22 7.75868 22H16.2413C17.0463 22 17.7106 22 18.2518 21.9558C18.8139 21.9099 19.3306 21.8113 19.816 21.564C20.5686 21.1805 21.1805 20.5686 21.564 19.816C21.8113 19.3306 21.9099 18.8139 21.9558 18.2518C22 17.7106 22 17.0463 22 16.2413V11.7587C22 10.9537 22 10.2894 21.9558 9.74817C21.9099 9.18608 21.8113 8.66937 21.564 8.18404C21.1805 7.43139 20.5686 6.81947 19.816 6.43597C19.3306 6.18868 18.8139 6.09012 18.2518 6.04419C17.5169 5.98415 17 6 17 6C17 3.79086 15.2091 2 13 2H11ZM15 6H9C9 4.89543 9.89543 4 11 4H13C14.1046 4 15 4.89543 15 6Z" fill="#0000CC"/>
<path d="M11 16C11 16.5523 11.4477 17 12 17C12.5523 17 13 16.5523 13 16V15H14C14.5523 15 15 14.5523 15 14C15 13.4477 14.5523 13 14 13H13V12C13 11.4477 12.5523 11 12 11C11.4477 11 11 11.4477 11 12V13H10C9.44772 13 9 13.4477 9 14C9 14.5523 9.44772 15 10 15H11V16Z" fill="#0000CC"/>
</svg>
