<svg width="24" height="24" viewBox="0 0 24 24" fill="none" xmlns="http://www.w3.org/2000/svg">
<g opacity="0.3">
<path d="M7.19188 8.60609C7.15936 8.63066 7.12737 8.65586 7.09591 8.6817L5.20711 6.79289C4.81658 6.40237 4.18342 6.40237 3.79289 6.79289C3.40237 7.18342 3.40237 7.81658 3.79289 8.20711L6.0564 10.4706C5.99869 10.844 5.99925 11.2572 5.99987 11.7133L6 13H4C3.44772 13 3 13.4477 3 14C3 14.5523 3.44772 15 4 15H6.08296C6.19429 15.6636 6.41456 16.2903 6.72475 16.861L3.79289 19.7929C3.40237 20.1834 3.40237 20.8166 3.79289 21.2071C4.18342 21.5976 4.81658 21.5976 5.20711 21.2071L7.96949 18.4447C8.80069 19.1989 9.84433 19.7232 11 19.917V14C11 13.5712 11.2699 13.2054 11.6491 13.0633L7.19188 8.60609Z" fill="#0000CC"/>
<path d="M13 14.4142V19.917C14.1557 19.7232 15.1993 19.1989 16.0305 18.4447L18.7929 21.2071C19.1114 21.5256 19.5912 21.5843 19.9692 21.3834L13 14.4142Z" fill="#0000CC"/>
<path d="M14 7H11.214L9.00703 4.79301C9.11336 3.23271 10.4127 2 12 2C13.6569 2 15 3.34315 15 5V6C15 6.55228 14.5523 7 14 7Z" fill="#0000CC"/>
<path d="M20 15H19.214L12.2139 7.99987H14.2867C14.9397 7.99899 15.5046 7.99822 15.9908 8.16835C16.3271 8.28601 16.6353 8.46093 16.9041 8.6817L18.7929 6.79289C19.1834 6.40237 19.8166 6.40237 20.2071 6.79289C20.5976 7.18342 20.5976 7.81658 20.2071 8.20711L17.9436 10.4706C18.0013 10.844 18.0007 11.2572 18.0001 11.7133L18 13H20C20.5523 13 21 13.4477 21 14C21 14.5523 20.5523 15 20 15Z" fill="#0000CC"/>
</g>
<path fill-rule="evenodd" clip-rule="evenodd" d="M2.29289 2.29289C2.68342 1.90237 3.31658 1.90237 3.70711 2.29289L21.7071 20.2929C22.0976 20.6834 22.0976 21.3166 21.7071 21.7071C21.3166 22.0976 20.6834 22.0976 20.2929 21.7071L2.29289 3.70711C1.90237 3.31658 1.90237 2.68342 2.29289 2.29289Z" fill="#0000CC"/>
</svg>
