<svg width="24" height="24" viewBox="0 0 24 24" fill="none" xmlns="http://www.w3.org/2000/svg">
<path opacity="0.3" fill-rule="evenodd" clip-rule="evenodd" d="M3.86178 2.01695C4.06993 1.99994 4.31573 1.99997 4.56811 2L13.4319 2C13.6843 1.99997 13.9301 1.99994 14.1382 2.01695C14.3668 2.03563 14.6366 2.07969 14.908 2.21799C15.2843 2.40974 15.5903 2.7157 15.782 3.09202C15.9203 3.36345 15.9644 3.63318 15.9831 3.86178C16.0001 4.06994 16 4.31574 16 4.56812L16 12.416C14.4387 13.0982 13.2931 14.5547 13.0486 16.3001C12.4809 16.9205 12.1066 17.7209 12.0193 18.6079C12 18.8035 12 19.0357 12 19.5C12 19.9643 12 20.1965 12.0193 20.3921C12.0766 20.9741 12.2575 21.5189 12.5355 22H3.00001C2.44772 22 2.00001 21.5523 2.00001 21L2 4.56809C1.99997 4.31572 1.99994 4.06993 2.01695 3.86178C2.03563 3.63318 2.07969 3.36345 2.21799 3.09202C2.40974 2.7157 2.7157 2.40974 3.09202 2.21799C3.36345 2.07969 3.63318 2.03563 3.86178 2.01695ZM6 5C5.44772 5 5 5.44772 5 6C5 6.55228 5.44772 7 6 7H7C7.55228 7 8 6.55228 8 6C8 5.44772 7.55228 5 7 5H6ZM11 5C10.4477 5 10 5.44772 10 6C10 6.55228 10.4477 7 11 7H12C12.5523 7 13 6.55228 13 6C13 5.44772 12.5523 5 12 5H11ZM6 8C5.44772 8 5 8.44772 5 9C5 9.55228 5.44772 10 6 10H7C7.55228 10 8 9.55228 8 9C8 8.44772 7.55228 8 7 8H6ZM11 8C10.4477 8 10 8.44772 10 9C10 9.55228 10.4477 10 11 10H12C12.5523 10 13 9.55228 13 9C13 8.44772 12.5523 8 12 8H11ZM6 11C5.44772 11 5 11.4477 5 12C5 12.5523 5.44772 13 6 13H7C7.55228 13 8 12.5523 8 12C8 11.4477 7.55228 11 7 11H6ZM11 11C10.4477 11 10 11.4477 10 12C10 12.5523 10.4477 13 11 13H12C12.5523 13 13 12.5523 13 12C13 11.4477 12.5523 11 12 11H11ZM7 17C7 15.8954 7.89543 15 9 15C10.1046 15 11 15.8954 11 17V20H7V17Z" fill="#0000CC"/>
<path d="M5 6C5 5.44772 5.44772 5 6 5H7C7.55228 5 8 5.44772 8 6C8 6.55228 7.55228 7 7 7H6C5.44772 7 5 6.55228 5 6Z" fill="#0000CC"/>
<path d="M10 6C10 5.44772 10.4477 5 11 5H12C12.5523 5 13 5.44772 13 6C13 6.55228 12.5523 7 12 7H11C10.4477 7 10 6.55228 10 6Z" fill="#0000CC"/>
<path d="M5 9C5 8.44772 5.44772 8 6 8H7C7.55228 8 8 8.44772 8 9C8 9.55228 7.55228 10 7 10H6C5.44772 10 5 9.55228 5 9Z" fill="#0000CC"/>
<path d="M10 9C10 8.44772 10.4477 8 11 8H12C12.5523 8 13 8.44772 13 9C13 9.55228 12.5523 10 12 10H11C10.4477 10 10 9.55228 10 9Z" fill="#0000CC"/>
<path d="M5 12C5 11.4477 5.44772 11 6 11H7C7.55228 11 8 11.4477 8 12C8 12.5523 7.55228 13 7 13H6C5.44772 13 5 12.5523 5 12Z" fill="#0000CC"/>
<path d="M10 12C10 11.4477 10.4477 11 11 11H12C12.5523 11 13 11.4477 13 12C13 12.5523 12.5523 13 12 13H11C10.4477 13 10 12.5523 10 12Z" fill="#0000CC"/>
<path d="M9 15C7.89543 15 7 15.8954 7 17V20H11V17C11 15.8954 10.1046 15 9 15Z" fill="#0000CC"/>
<path fill-rule="evenodd" clip-rule="evenodd" d="M15 17C15 15.3431 16.3432 14 18 14C19.6569 14 21 15.3431 21 17V17.2679C21.3792 17.4869 21.6784 17.8257 21.8478 18.2346C21.9447 18.4687 21.9752 18.6944 21.9882 18.8848C22.0001 19.0589 22 19.2635 22 19.4735L22.0001 19.5609C22.0004 19.7457 22.0008 19.9309 21.9882 20.1152C21.9752 20.3056 21.9447 20.5313 21.8478 20.7654C21.6448 21.2554 21.2554 21.6448 20.7654 21.8478C20.5313 21.9447 20.3056 21.9752 20.1152 21.9882C19.9412 22 19.7365 22 19.5265 22H16.4735C16.2635 22 16.0589 22 15.8848 21.9882C15.6944 21.9752 15.4687 21.9447 15.2346 21.8478C14.7446 21.6448 14.3552 21.2554 14.1523 20.7654C14.0553 20.5313 14.0248 20.3056 14.0118 20.1152C14 19.9412 14 19.7365 14 19.5265L14 19.4773C14 19.2665 13.9999 19.0599 14.0118 18.8848C14.0248 18.6944 14.0553 18.4687 14.1523 18.2346C14.3217 17.8257 14.6208 17.4869 15 17.2679V17ZM19 17C19 16.4477 18.5523 16 18 16C17.4477 16 17 16.4477 17 17L19 17Z" fill="#0000CC"/>
</svg>
