<svg width="24" height="24" viewBox="0 0 24 24" fill="none" xmlns="http://www.w3.org/2000/svg">
<path opacity="0.3" fill-rule="evenodd" clip-rule="evenodd" d="M2 8H22V17.8386C22 18.3657 22 18.8205 21.9694 19.195C21.9371 19.5904 21.8658 19.9836 21.673 20.362C21.3854 20.9265 20.9265 21.3854 20.362 21.673C19.9836 21.8658 19.5904 21.9371 19.195 21.9694C18.8205 22 18.3657 22 17.8386 22H6.16144C5.6343 22 5.17954 22 4.80498 21.9694C4.40963 21.9371 4.01641 21.8658 3.63803 21.673C3.07355 21.3854 2.6146 20.9265 2.32698 20.362C2.13419 19.9836 2.06287 19.5904 2.03057 19.195C1.99997 18.8205 1.99998 18.3657 2 17.8386V8Z" fill="#0000CC"/>
<path d="M7.99997 3C7.99997 2.44772 7.55226 2 6.99997 2C6.44769 2 5.99997 2.44772 5.99997 3V4.00003C5.54094 4.00031 5.14072 4.00314 4.80494 4.03057C4.4096 4.06287 4.01638 4.13419 3.638 4.32698C3.07352 4.6146 2.61457 5.07354 2.32695 5.63803C2.13416 6.01641 2.06284 6.40963 2.03054 6.80497C2.00311 7.14075 2.00028 7.54097 2 8H21.9999C21.9997 7.54097 21.9968 7.14075 21.9694 6.80497C21.9371 6.40963 21.8658 6.01641 21.673 5.63803C21.3854 5.07354 20.9264 4.6146 20.3619 4.32698C19.9836 4.13419 19.5903 4.06287 19.195 4.03057C18.8592 4.00314 18.459 4.00031 18 4.00003V3C18 2.44772 17.5523 2 17 2C16.4477 2 16 2.44772 16 3V4H7.99997V3Z" fill="#0000CC"/>
<path d="M15.7071 12.2929C16.0976 12.6834 16.0976 13.3166 15.7071 13.7071L11.7071 17.7071C11.3166 18.0976 10.6834 18.0976 10.2929 17.7071L8.29289 15.7071C7.90237 15.3166 7.90237 14.6834 8.29289 14.2929C8.68342 13.9024 9.31658 13.9024 9.70711 14.2929L11 15.5858L14.2929 12.2929C14.6834 11.9024 15.3166 11.9024 15.7071 12.2929Z" fill="#0000CC"/>
</svg>
