<svg width="24" height="24" viewBox="0 0 24 24" fill="none" xmlns="http://www.w3.org/2000/svg">
<path opacity="0.3" d="M22 9H2V17.8385C1.99998 18.3657 1.99997 18.8205 2.03057 19.195C2.06287 19.5904 2.13419 19.9836 2.32698 20.362C2.6146 20.9265 3.07355 21.3854 3.63803 21.673C4.01641 21.8658 4.40963 21.9371 4.80497 21.9694C5.17954 22 5.6343 22 6.16144 22H17.8386C18.3657 22 18.8205 22 19.195 21.9694C19.5904 21.9371 19.9836 21.8658 20.362 21.673C20.9265 21.3854 21.3854 20.9265 21.673 20.362C21.8658 19.9836 21.9371 19.5904 21.9694 19.195C22 18.8205 22 18.3657 22 17.8386V9Z" fill="#0000CC"/>
<path d="M7 2C7.55229 2 8 2.44772 8 3V4H16V3C16 2.44772 16.4477 2 17 2C17.5523 2 18 2.44772 18 3V4.00003C18.459 4.00031 18.8593 4.00314 19.195 4.03057C19.5904 4.06287 19.9836 4.13419 20.362 4.32698C20.9265 4.6146 21.3854 5.07354 21.673 5.63803C21.8658 6.01641 21.9371 6.40963 21.9694 6.80497C22 7.17954 22 7.63429 22 8.16143V9H2V8.16142C1.99998 7.6343 1.99997 7.17952 2.03057 6.80497C2.06287 6.40963 2.13419 6.01641 2.32698 5.63803C2.6146 5.07354 3.07355 4.6146 3.63803 4.32698C4.01641 4.13419 4.40963 4.06287 4.80498 4.03057C5.14075 4.00314 5.54097 4.00031 6 4.00003V3C6 2.44772 6.44772 2 7 2Z" fill="#0000CC"/>
<path d="M5 12.9999C5.00008 12.4476 5.44785 11.9999 6.00014 12L18.0001 12.0014C18.5524 12.0014 19.0001 12.4492 19 13.0015C18.9999 13.5538 18.5522 14.0014 17.9999 14.0014L5.99986 14C5.44758 13.9999 4.99993 13.5521 5 12.9999Z" fill="#0000CC"/>
<path d="M5 16.9999C5.00008 16.4476 5.44785 15.9999 6.00014 16L9.33347 16.0005C9.88576 16.0005 10.3334 16.4483 10.3333 17.0006C10.3333 17.5529 9.88548 18.0005 9.3332 18.0005L5.99986 18C5.44758 17.9999 4.99993 17.5521 5 16.9999Z" fill="#0000CC"/>
</svg>
