<svg width="24" height="24" viewBox="0 0 24 24" fill="none" xmlns="http://www.w3.org/2000/svg">
<g opacity="0.3">
<path d="M3.82679 5.241C3.7635 5.2666 3.70057 5.29514 3.63803 5.32701C3.07355 5.61463 2.61461 6.07357 2.32699 6.63805C2.13419 7.01643 2.06288 7.40965 2.03057 7.805C1.99997 8.17954 1.99999 8.63433 2 9.16141V16.8386C1.99999 17.3657 1.99997 17.8205 2.03057 18.1951C2.06288 18.5904 2.13419 18.9836 2.32699 19.362C2.61461 19.9265 3.07355 20.3854 3.63803 20.673C4.01641 20.8658 4.40963 20.9372 4.80498 20.9695C5.17954 21.0001 5.6343 21 6.16144 21H17.8386C18.3657 21 18.8205 21.0001 19.195 20.9695C19.303 20.9606 19.4109 20.9489 19.5183 20.9326L14.6138 16.028C13.9127 16.6337 12.9992 17 12 17C9.79086 17 8 15.2091 8 13C8 12.0009 8.36633 11.0873 8.97201 10.3862L3.82679 5.241Z" fill="#0000CC"/>
<path d="M21.1945 19.7803L21.3183 19.9041C21.3256 19.8953 21.3328 19.8864 21.3399 19.8775C21.2893 19.8498 21.2406 19.8174 21.1945 19.7803Z" fill="#0000CC"/>
<path d="M21.9921 17.7578L15.6917 11.4574C15.2865 10.4888 14.5112 9.71348 13.5426 9.30827L8.11385 3.87957C8.58895 3.40409 9.21499 3.09737 9.89469 3.01951C10.0665 2.99984 10.2444 2.99992 10.448 3.00001H13.552C13.7556 2.99992 13.9335 2.99984 14.1053 3.01951C14.993 3.12119 15.7892 3.61325 16.2771 4.36175C16.3715 4.5066 16.4511 4.66583 16.542 4.84798L16.5611 4.88615C16.5904 4.94481 16.6056 4.97494 16.617 4.99673L16.6184 4.99938L16.6214 4.99944C16.6461 4.99997 16.6798 5.00003 16.7454 5.00003L17.8386 5.00002C18.3657 5.00001 18.8205 4.99999 19.195 5.0306C19.5904 5.0629 19.9836 5.13421 20.362 5.32701C20.9265 5.61463 21.3854 6.07357 21.673 6.63806C21.8658 7.01643 21.9371 7.40965 21.9694 7.805C22 8.17956 22 8.63432 22 9.16146V16.8387C22 17.1753 22 17.4823 21.9921 17.7578Z" fill="#0000CC"/>
</g>
<path fill-rule="evenodd" clip-rule="evenodd" d="M2.29289 2.29289C2.68342 1.90237 3.31658 1.90237 3.70711 2.29289L21.7071 20.2929C22.0976 20.6834 22.0976 21.3166 21.7071 21.7071C21.3166 22.0976 20.6834 22.0976 20.2929 21.7071L2.29289 3.70711C1.90237 3.31658 1.90237 2.68342 2.29289 2.29289Z" fill="#0000CC"/>
</svg>
