<svg width="24" height="24" viewBox="0 0 24 24" fill="none" xmlns="http://www.w3.org/2000/svg">
<path opacity="0.3" fill-rule="evenodd" clip-rule="evenodd" d="M15.968 2H16.032C16.4706 1.99999 16.8491 1.99998 17.1624 2.02135C17.4922 2.04386 17.8221 2.09336 18.1481 2.22836C18.8831 2.53285 19.4672 3.11687 19.7716 3.85195C19.9066 4.17788 19.9561 4.50779 19.9787 4.83762C19.9859 4.94316 19.9906 5.05611 19.9938 5.17626C20.1178 5.21582 20.2406 5.26516 20.362 5.32698C20.9265 5.6146 21.3854 6.07355 21.673 6.63803C21.8658 7.01641 21.9371 7.40963 21.9694 7.80497C22 8.17954 22 8.6343 22 9.16144V16.8386C22 17.3657 22 17.8205 21.9694 18.195C21.9371 18.5904 21.8658 18.9836 21.673 19.362C21.3854 19.9265 20.9265 20.3854 20.362 20.673C19.9836 20.8658 19.5904 20.9371 19.195 20.9694C18.8205 21 18.3657 21 17.8386 21H6V5L12.0123 5C12.0148 4.94407 12.0178 4.88994 12.0214 4.83762C12.0439 4.50779 12.0934 4.17788 12.2284 3.85195C12.5328 3.11687 13.1169 2.53285 13.852 2.22836C14.1779 2.09336 14.5078 2.04386 14.8376 2.02135C15.1509 1.99998 15.5294 1.99999 15.968 2ZM14.015 5L14.0167 4.97376C14.0323 4.74576 14.0589 4.65893 14.0761 4.61732C14.1776 4.37229 14.3723 4.17762 14.6173 4.07612C14.6589 4.05889 14.7458 4.03227 14.9738 4.01671C15.2107 4.00054 15.5204 4 16 4C16.4796 4 16.7893 4.00054 17.0262 4.01671C17.2542 4.03227 17.3411 4.05889 17.3827 4.07612C17.6277 4.17762 17.8224 4.37229 17.9239 4.61732C17.9411 4.65893 17.9677 4.74576 17.9833 4.97376L17.985 5.00002L14.015 5Z" fill="#0000CC"/>
<path d="M6 5C5.54097 5.00028 5.14075 5.00311 4.80498 5.03054C4.40963 5.06284 4.01641 5.13416 3.63803 5.32695C3.07355 5.61457 2.6146 6.07352 2.32698 6.638C2.13419 7.01638 2.06287 7.4096 2.03057 7.80494C1.99997 8.17949 1.99999 8.63426 2 9.16136V16.8386C1.99999 17.3657 1.99997 17.8205 2.03057 18.195C2.06287 18.5903 2.13419 18.9836 2.32698 19.3619C2.6146 19.9264 3.07355 20.3854 3.63803 20.673C4.01641 20.8658 4.40963 20.9371 4.80498 20.9694C5.14075 20.9968 5.54097 20.9997 6 20.9999V5Z" fill="#0000CC"/>
<path d="M14 8.99997C11.7909 8.99997 10 10.7908 10 13C10 15.2091 11.7909 17 14 17C16.2091 17 18 15.2091 18 13C18 10.7908 16.2091 8.99997 14 8.99997Z" fill="#0000CC"/>
</svg>
