<svg width="24" height="24" viewBox="0 0 24 24" fill="none" xmlns="http://www.w3.org/2000/svg">
<path opacity="0.3" fill-rule="evenodd" clip-rule="evenodd" d="M14 2C12.3431 2 11 3.34315 11 5L6.16145 5C5.63431 4.99998 5.17954 4.99997 4.80498 5.03057C4.40963 5.06287 4.01641 5.13419 3.63803 5.32698C3.07355 5.6146 2.6146 6.07354 2.32698 6.63803C2.13419 7.01641 2.06287 7.40963 2.03057 7.80497C1.99997 8.17953 1.99998 8.6343 2 9.16142V16.8386C1.99998 17.3657 1.99997 17.8205 2.03057 18.195C2.06287 18.5904 2.13419 18.9836 2.32698 19.362C2.6146 19.9265 3.07355 20.3854 3.63803 20.673C4.01641 20.8658 4.40963 20.9371 4.80498 20.9694C5.17954 21 5.6343 21 6.16144 21H17.8386C18.3657 21 18.8205 21 19.195 20.9694C19.5904 20.9371 19.9836 20.8658 20.362 20.673C20.9265 20.3854 21.3854 19.9265 21.673 19.362C21.8658 18.9836 21.9371 18.5904 21.9694 18.195C22 17.8205 22 17.3657 22 16.8386V9.16143C22 8.63429 22 8.17954 21.9694 7.80497C21.9371 7.40963 21.8658 7.01641 21.673 6.63803C21.3854 6.07354 20.9265 5.6146 20.362 5.32698C20.2427 5.26619 20.1219 5.21747 20 5.17825V5C20 3.34315 18.6569 2 17 2H14ZM18 5.00003L13 5C13 4.44772 13.4477 4 14 4H17C17.5523 4 18 4.44774 18 5.00003Z" fill="#0000CC"/>
<path d="M4 9H5C5.55228 9 6 9.44772 6 10V16C6 16.5523 5.55228 17 5 17H4V9Z" fill="#0000CC"/>
<path d="M14 17C16.2091 17 18 15.2091 18 13C18 10.7909 16.2091 9 14 9C11.7909 9 10 10.7909 10 13C10 15.2091 11.7909 17 14 17Z" fill="#0000CC"/>
</svg>
