<svg width="24" height="24" viewBox="0 0 24 24" fill="none" xmlns="http://www.w3.org/2000/svg">
<path opacity="0.3" fill-rule="evenodd" clip-rule="evenodd" d="M12 8C9.79086 8 8 9.79086 8 12C8 12.0282 8.00031 12.0563 8.00093 12.0844L12.0844 8.00093C12.0563 8.00031 12.0282 8 12 8ZM14.2179 8.69589L8.69589 14.2179C8.98659 14.6432 9.35629 15.013 9.78159 15.3037L15.3037 9.78159C15.013 9.35629 14.6432 8.98659 14.2179 8.69589ZM15.999 11.9147L11.9147 15.999C11.9431 15.9997 11.9715 16 12 16C14.2091 16 16 14.2091 16 12C16 11.9715 15.9997 11.9431 15.999 11.9147ZM6 12C6 8.68629 8.68629 6 12 6C15.2686 6 18 8.73143 18 12C18 15.3137 15.3137 18 12 18C8.73143 18 6 15.2686 6 12Z" fill="#0000CC"/>
<path fill-rule="evenodd" clip-rule="evenodd" d="M6.27315 10.2049C6.09566 10.7717 6 11.3747 6 12C6 12.6209 6.09856 13.2224 6.28065 13.7895L3.6 15.8C3.29698 16.0273 2.89157 16.0638 2.55279 15.8944C2.214 15.725 2 15.3788 2 15V9.00001C2 8.62123 2.214 8.27497 2.55279 8.10558C2.89157 7.93619 3.29698 7.97274 3.6 8.20001L6.27315 10.2049Z" fill="#0000CC"/>
<path fill-rule="evenodd" clip-rule="evenodd" d="M18 12C18 11.3791 17.9014 10.7776 17.7194 10.2105L20.4 8.20001C20.703 7.97274 21.1084 7.93619 21.4472 8.10558C21.786 8.27497 22 8.62123 22 9.00001V15C22 15.3788 21.786 15.725 21.4472 15.8944C21.1084 16.0638 20.703 16.0273 20.4 15.8L17.7268 13.7951C17.9043 13.2283 18 12.6253 18 12Z" fill="#0000CC"/>
</svg>
