<svg width="24" height="24" viewBox="0 0 24 24" fill="none" xmlns="http://www.w3.org/2000/svg">
<g opacity="0.3">
<path d="M15.6132 2H17.3871C18.1295 1.99998 18.7539 1.99997 19.2528 2.04516C19.7652 2.09158 20.2811 2.19419 20.7357 2.4929C21.3917 2.92404 21.8526 3.59516 22.0195 4.36225C22.1352 4.89375 22.0457 5.41207 21.9051 5.90704C21.8964 5.93762 21.8874 5.9686 21.878 6H11.1223C11.1129 5.96861 11.1039 5.93762 11.0952 5.90704C10.9546 5.41207 10.8652 4.89375 10.9808 4.36226C11.1477 3.59516 11.6086 2.92404 12.2647 2.4929C12.7192 2.19419 13.2351 2.09158 13.7475 2.04516C14.2464 1.99997 14.8708 1.99998 15.6132 2Z" fill="#0000CC"/>
<path d="M19.61 12H13.3903L14.8873 15.8923C15.144 16.5597 15.7852 17 16.5002 17C17.2152 17 17.8563 16.5597 18.113 15.8923L19.61 12Z" fill="#0000CC"/>
<path d="M2.12232 18C2.11294 18.0314 2.1039 18.0624 2.09521 18.093C1.95458 18.5879 1.86516 19.1063 1.98079 19.6378C2.14767 20.4048 2.6086 21.076 3.26466 21.5071C3.71921 21.8058 4.23509 21.9084 4.74755 21.9548C5.24639 22 5.87081 22 6.61323 22H8.38714C9.12957 22 9.75392 22 10.2528 21.9548C10.7652 21.9084 11.2811 21.8058 11.7357 21.5071C12.3917 21.076 12.8526 20.4048 13.0195 19.6377C13.1352 19.1063 13.0457 18.5879 12.9051 18.093C12.8964 18.0624 12.8874 18.0314 12.878 18H2.12232Z" fill="#0000CC"/>
<path d="M10.61 12L9.11299 8.1077C8.85632 7.44035 8.21516 7 7.50016 7C6.78515 7 6.14399 7.44035 5.88732 8.1077L4.39028 12H10.61Z" fill="#0000CC"/>
</g>
<path d="M4.39003 12H10.6098L10.8481 12.6196C10.854 12.6339 10.8595 12.6483 10.8647 12.6628L12.3876 16.6226C12.3929 16.6358 12.398 16.6491 12.4028 16.6625C12.5979 17.1722 12.7632 17.6166 12.8777 18H2.12207C2.23662 17.6166 2.40188 17.1722 2.59695 16.6625C2.60177 16.6491 2.60687 16.6358 2.61224 16.6226L4.1351 12.6628C4.14032 12.6483 4.14585 12.6339 4.15171 12.6196L4.39003 12Z" fill="#0000CC"/>
<path d="M13.39 12L13.1517 11.3804C13.1459 11.3661 13.1403 11.3517 13.1351 11.3372L11.6122 7.37741C11.6069 7.36425 11.6018 7.35094 11.597 7.33751C11.4019 6.82781 11.2366 6.38341 11.1221 6H21.8777C21.7632 6.38341 21.5979 6.82781 21.4029 7.33751C21.398 7.35094 21.3929 7.36425 21.3876 7.37741L19.8647 11.3372C19.8595 11.3517 19.854 11.3661 19.8481 11.3804L19.6098 12H13.39Z" fill="#0000CC"/>
</svg>
