<svg width="24" height="24" viewBox="0 0 24 24" fill="none" xmlns="http://www.w3.org/2000/svg">
<path opacity="0.3" fill-rule="evenodd" clip-rule="evenodd" d="M9.5 2C9.83435 2 10.1466 2.1671 10.3321 2.4453L11.9962 4.94145C12.2802 5.36752 12.6151 6.09016 12.3641 6.89437C11.9838 8.11334 10.8467 9 9.5 9C8.15326 9 7.01623 8.11334 6.63586 6.89437C6.38491 6.09016 6.7198 5.36752 7.00385 4.94145L8.66795 2.4453C8.85342 2.1671 9.16565 2 9.5 2ZM19 15C18.4477 15 18 15.4477 18 16V21C18 21.2652 17.8946 21.5196 17.7071 21.7071C17.5196 21.8946 17.2652 22 17 22H3C2.44772 22 2 21.5523 2 21C2 20.4477 2.44772 20 3 20H16L16 16C16 14.3431 17.3431 13 19 13C20.6569 13 22 14.3431 22 16C22 16.5523 21.5523 17 21 17C20.4477 17 20 16.5523 20 16C20 15.4477 19.5523 15 19 15Z" fill="#0000CC"/>
<path d="M6.56811 10C6.31573 9.99997 6.06993 9.99994 5.86178 10.017C5.63318 10.0356 5.36345 10.0797 5.09202 10.218C4.7157 10.4097 4.40974 10.7157 4.21799 11.092C4.07969 11.3634 4.03563 11.6332 4.01695 11.8618C3.99994 12.0699 3.99997 12.3157 4 12.5681L4.00001 15.5C4.00001 16.7095 4.85889 17.7184 6.00001 17.95V20L8.00001 20V17.5002C8.60723 17.0441 9.00001 16.3179 9.00001 15.5V15H10V15.5C10 16.3179 10.3928 17.0441 11 17.5002V20L13 20V17.95C14.1411 17.7184 15 16.7095 15 15.5L15 12.5681C15 12.3157 15.0001 12.0699 14.9831 11.8618C14.9644 11.6332 14.9203 11.3634 14.782 11.092C14.5903 10.7157 14.2843 10.4097 13.908 10.218C13.6366 10.0797 13.3668 10.0356 13.1382 10.017C12.9301 9.99994 12.6843 9.99997 12.4319 10L6.56811 10Z" fill="#0000CC"/>
</svg>
