<svg width="24" height="24" viewBox="0 0 24 24" fill="none" xmlns="http://www.w3.org/2000/svg">
<g opacity="0.3">
<path d="M9.83334 2.4453C9.64788 2.1671 9.33565 2 9.00129 2C8.66694 2 8.35471 2.1671 8.16924 2.4453L6.50514 4.94145C6.2211 5.36752 5.8862 6.09016 6.13715 6.89437C6.51753 8.11334 7.65456 9 9.00129 9C10.348 9 11.4851 8.11334 11.8654 6.89437C12.1164 6.09016 11.7815 5.36752 11.4974 4.94145L9.83334 2.4453Z" fill="#0000CC"/>
<path fill-rule="evenodd" clip-rule="evenodd" d="M3 20H16.1707C16.0602 19.6872 16 19.3506 16 19C16 17.3431 17.3431 16 19 16C20.6569 16 22 17.3431 22 19C22 20.6569 20.6569 22 19 22H3C2.44772 22 2 21.5523 2 21C2 20.4477 2.44772 20 3 20ZM18 19C18 18.4477 18.4477 18 19 18C19.5523 18 20 18.4477 20 19C20 19.5523 19.5523 20 19 20C18.4477 20 18 19.5523 18 19Z" fill="#0000CC"/>
</g>
<path d="M5 10H7V14C7 14.5523 7.44772 15 8 15C8.55228 15 9 14.5523 9 14V10H13C13.5523 10 14 10.4477 14 11V20H4V11C4 10.4477 4.44772 10 5 10Z" fill="#0000CC"/>
</svg>
