<svg width="24" height="24" viewBox="0 0 24 24" fill="none" xmlns="http://www.w3.org/2000/svg">
<path d="M17.6377 9.5L18.3608 8.89741L16.7073 6.00386C16.5293 5.69229 16.1979 5.5 15.8391 5.5H8.16037C7.80152 5.5 7.47017 5.69229 7.29213 6.00386L5.63867 8.89741L6.36178 9.5H17.6377Z" fill="#0000CC"/>
<path d="M4 20.5C2.89543 20.5 2 19.6046 2 18.5H6C6 19.6046 5.10457 20.5 4 20.5Z" fill="#0000CC"/>
<path d="M20 20.5C18.8954 20.5 18 19.6046 18 18.5H22C22 19.6046 21.1046 20.5 20 20.5Z" fill="#0000CC"/>
<path opacity="0.3" fill-rule="evenodd" clip-rule="evenodd" d="M5.55594 5.01158C6.09007 4.07686 7.0841 3.5 8.16067 3.5H15.8394C16.9159 3.5 17.91 4.07686 18.4441 5.01158L19.9215 7.59705L20.3598 7.23178C20.7841 6.87821 21.4147 6.93554 21.7682 7.35982C22.1218 7.78409 22.0645 8.41466 21.6402 8.76822L20.9293 9.36065L21.3412 10.0816C21.7729 10.8371 22 11.6921 22 12.5623V18.5H2.00003V12.5623C2.00003 11.6921 2.2271 10.8371 2.65881 10.0816L3.07076 9.36065L2.35984 8.76822C1.93556 8.41466 1.87824 7.78409 2.2318 7.35982C2.58537 6.93554 3.21593 6.87821 3.64021 7.23178L4.07853 7.59705L5.55594 5.01158ZM18.3611 8.89741L17.638 9.5H6.36208L5.63897 8.89741L7.29243 6.00386C7.47047 5.69229 7.80181 5.5 8.16067 5.5H15.8394C16.1982 5.5 16.5296 5.69229 16.7076 6.00386L18.3611 8.89741ZM5 14C5 13.1716 5.67157 12.5 6.5 12.5C7.32843 12.5 8 13.1716 8 14C8 14.8284 7.32843 15.5 6.5 15.5C5.67157 15.5 5 14.8284 5 14ZM16 14C16 13.1716 16.6716 12.5 17.5 12.5C18.3284 12.5 19 13.1716 19 14C19 14.8284 18.3284 15.5 17.5 15.5C16.6716 15.5 16 14.8284 16 14Z" fill="#0000CC"/>
</svg>
