<svg width="24" height="24" viewBox="0 0 24 24" fill="none" xmlns="http://www.w3.org/2000/svg">
<path opacity="0.3" fill-rule="evenodd" clip-rule="evenodd" d="M14.1262 2.62541C13.9193 2.11334 13.3365 1.86595 12.8244 2.07284L2.62539 6.19351C2.37937 6.29291 2.18295 6.48601 2.07936 6.73029C1.97577 6.97457 1.97351 7.25001 2.07308 7.49596L7.69218 21.3753C7.89898 21.8861 8.48004 22.1333 8.99148 21.9281L19.1905 17.8359C19.437 17.7369 19.6341 17.544 19.7382 17.2996C19.8422 17.0552 19.8448 16.7795 19.7453 16.5332L14.1262 2.62541ZM14.5371 14.3229C14.7439 14.835 14.4966 15.4178 13.9845 15.6247L11.2029 16.7485C10.6909 16.9554 10.108 16.708 9.90114 16.1959C9.69425 15.6839 9.94165 15.101 10.4537 14.8942L13.2353 13.7703C13.7473 13.5634 14.3302 13.8108 14.5371 14.3229ZM9.86837 7.8077C9.42875 7.683 8.96052 7.87218 8.7309 8.26727L8.71766 8.29012L8.68188 8.35219C8.65114 8.40565 8.6072 8.4824 8.55379 8.57656C8.44713 8.7646 8.30197 9.02342 8.14855 9.30556C7.85892 9.83822 7.48486 10.5526 7.33012 10.9979C6.88433 12.2808 7.61848 13.5575 8.90548 13.9076C9.88063 14.1728 10.7908 13.8114 11.3714 13.1666C12.235 13.2269 13.1301 12.8512 13.654 11.9976C14.3687 10.8334 13.9707 9.40494 12.7729 8.79888C12.3522 8.58606 11.5869 8.33202 11.0085 8.15006C10.7022 8.05367 10.418 7.96833 10.2106 7.90715C10.1068 7.87652 10.0219 7.85184 9.96262 7.83474L9.89377 7.81495L9.86837 7.8077Z" fill="#0000CC"/>
<path d="M9.96262 7.83474L9.89377 7.81495L9.86837 7.8077C9.42875 7.683 8.96051 7.87218 8.7309 8.26727L8.71766 8.29012L8.68188 8.35219C8.65114 8.40565 8.6072 8.4824 8.55379 8.57656C8.44713 8.7646 8.30197 9.02342 8.14855 9.30556C7.85892 9.83822 7.48486 10.5526 7.33012 10.9979C6.88433 12.2808 7.61848 13.5575 8.90548 13.9076C9.27116 14.0071 9.6277 14.0184 9.96115 13.9597C9.97414 13.9574 9.98709 13.955 10 13.9525C10.5398 13.8482 11.017 13.5602 11.3714 13.1666C12.235 13.2269 13.1301 12.8512 13.654 11.9976C14.3687 10.8334 13.9707 9.40494 12.7729 8.79888C12.3522 8.58606 11.5869 8.33202 11.0085 8.15006C10.7022 8.05367 10.418 7.96833 10.2106 7.90715C10.127 7.88247 10.0556 7.86165 10 7.84555L9.96262 7.83474Z" fill="#0000CC"/>
<path d="M9.9993 15.262C9.81998 15.5282 9.77183 15.8759 9.90114 16.1959C9.92806 16.2626 9.96134 16.3247 10 16.382C10.2585 16.7647 10.7575 16.9285 11.2029 16.7485L13.9845 15.6247C14.4966 15.4178 14.7439 14.835 14.5371 14.3229C14.3302 13.8108 13.7473 13.5634 13.2353 13.7703L10.4537 14.8942C10.2617 14.9717 10.1069 15.1022 9.9993 15.262Z" fill="#0000CC"/>
<path d="M10.1738 21.4537L19.1905 17.8359C19.437 17.7369 19.6341 17.544 19.7382 17.2996C19.8422 17.0552 19.8448 16.7795 19.7453 16.5332L15.0856 5H20.4C21.2837 5 22 5.44772 22 6V21C22 21.5523 21.2837 22 20.4 22H11.6C10.9777 22 10.4384 21.778 10.1738 21.4537Z" fill="#0000CC"/>
</svg>
