<svg width="24" height="24" viewBox="0 0 24 24" fill="none" xmlns="http://www.w3.org/2000/svg">
<path opacity="0.3" d="M20 4C20 3.44772 19.5523 3 19 3C18.4477 3 18 3.44772 18 4V20C18 20.5523 18.4477 21 19 21C19.5523 21 20 20.5523 20 20V4Z" fill="#0000CC"/>
<path d="M6.00217 4.08057C5.39308 4.07991 4.8169 4.35684 4.43692 4.83287C4.13465 5.21154 4.06214 5.66709 4.03141 6.00536C3.99996 6.3517 3.99998 6.78978 4 7.28441V16.7155C3.99998 17.2101 3.99996 17.6482 4.03141 17.9945C4.06214 18.3328 4.13465 18.7883 4.43692 19.167C4.8169 19.643 5.39308 19.92 6.00217 19.9193C6.48669 19.9188 6.88771 19.6908 7.17105 19.5035C7.46116 19.3117 7.80322 19.038 8.18947 18.729L14.0915 14.0074C14.3338 13.8136 14.5638 13.6296 14.7416 13.4598C14.9323 13.2777 15.1469 13.0358 15.2721 12.7015C15.4416 12.2492 15.4416 11.7507 15.2721 11.2983C15.1469 10.9641 14.9323 10.7222 14.7416 10.5401C14.5638 10.3703 14.3338 10.1863 14.0914 9.99247L8.1895 5.27091C7.80323 4.96186 7.46117 4.68818 7.17105 4.49637C6.88771 4.30905 6.48669 4.08109 6.00217 4.08057Z" fill="#0000CC"/>
</svg>
