<svg width="24" height="24" viewBox="0 0 24 24" fill="none" xmlns="http://www.w3.org/2000/svg">
<path opacity="0.3" d="M6 4C6 3.44772 5.55228 3 5 3C4.44772 3 4 3.44772 4 4V20C4 20.5523 4.44772 21 5 21C5.55228 21 6 20.5523 6 20V4Z" fill="#0000CC"/>
<path d="M17.9976 4.08057C18.6067 4.07991 19.1829 4.35684 19.5629 4.83287C19.8652 5.21154 19.9377 5.66709 19.9684 6.00536C19.9999 6.35172 19.9998 6.78979 19.9998 7.28446V16.7154C19.9998 17.2101 19.9999 17.6482 19.9684 17.9945C19.9377 18.3328 19.8652 18.7883 19.5629 19.167C19.1829 19.643 18.6067 19.92 17.9976 19.9193C17.5131 19.9188 17.1121 19.6908 16.8288 19.5035C16.5387 19.3117 16.1966 19.038 15.8104 18.729L9.90836 14.0074C9.66605 13.8136 9.43601 13.6296 9.25817 13.4598C9.06753 13.2777 8.85289 13.0358 8.72768 12.7015C8.55822 12.2492 8.55822 11.7507 8.72768 11.2983C8.85289 10.9641 9.06753 10.7222 9.25817 10.5401C9.43599 10.3703 9.66602 10.1863 9.9083 9.99252L15.8103 5.2709C16.1966 4.96186 16.5386 4.68817 16.8288 4.49637C17.1121 4.30905 17.5131 4.08109 17.9976 4.08057Z" fill="#0000CC"/>
</svg>
