<svg width="24" height="24" viewBox="0 0 24 24" fill="none" xmlns="http://www.w3.org/2000/svg">
<path opacity="0.3" d="M8.3594 17.767C8.67124 18.1321 9.13902 18.3259 9.6177 18.2882C10.0463 18.2545 10.3558 18.0078 10.5027 17.8847C10.6674 17.7469 10.8553 17.5589 11.0465 17.3677L15.1578 13.2564C15.242 13.1722 15.3427 13.0716 15.4241 12.9758C15.5184 12.8647 15.6439 12.6961 15.7195 12.4635C15.8174 12.1622 15.8174 11.8377 15.7195 11.5364C15.6439 11.3038 15.5184 11.1352 15.4241 11.0241C15.3427 10.9282 15.2421 10.8277 15.1578 10.7435L11.0464 6.63214C10.8553 6.44094 10.6674 6.253 10.5027 6.11512C10.3558 5.9921 10.0463 5.7454 9.61769 5.71166C9.13902 5.67399 8.67123 5.86776 8.3594 6.23287C8.08016 6.55981 8.0358 6.95307 8.01889 7.14396C7.99992 7.35793 7.99996 7.62369 8 7.89407V16.1058C7.99996 16.3762 7.99992 16.6419 8.01889 16.8559C8.0358 17.0468 8.08016 17.4401 8.3594 17.767Z" fill="#0000CC"/>
</svg>
