<svg width="24" height="24" viewBox="0 0 24 24" fill="none" xmlns="http://www.w3.org/2000/svg">
<path opacity="0.3" d="M6.23287 8.3594C5.86775 8.67124 5.67399 9.13902 5.71166 9.6177C5.7454 10.0463 5.9921 10.3558 6.11512 10.5027C6.25302 10.6674 6.44097 10.8553 6.63218 11.0465L10.7435 15.1578C10.8277 15.242 10.9282 15.3427 11.0241 15.4241C11.1352 15.5184 11.3038 15.6439 11.5364 15.7195C11.8377 15.8174 12.1622 15.8174 12.4635 15.7195C12.6961 15.6439 12.8647 15.5184 12.9758 15.4241C13.0716 15.3427 13.1722 15.2421 13.2564 15.1578L17.3677 11.0464C17.5589 10.8553 17.7469 10.6674 17.8847 10.5027C18.0078 10.3558 18.2545 10.0463 18.2882 9.61769C18.3259 9.13902 18.1321 8.67123 17.767 8.3594C17.4401 8.08016 17.0468 8.0358 16.8559 8.01889C16.6419 7.99992 16.3762 7.99996 16.1058 8H7.89407C7.62369 7.99996 7.35793 7.99992 7.14396 8.01889C6.95307 8.0358 6.55981 8.08016 6.23287 8.3594Z" fill="#0000CC"/>
</svg>
