<svg width="24" height="24" viewBox="0 0 24 24" fill="none" xmlns="http://www.w3.org/2000/svg">
<path opacity="0.3" d="M2 3C2 2.44772 2.44772 2 3 2H6C6.49357 2 6.91332 2.36011 6.98837 2.84794L8.24254 11H18.2457L20.0385 4.72529C20.1902 4.19426 20.7437 3.88677 21.2747 4.03849C21.8058 4.19021 22.1132 4.7437 21.9615 5.27473L19.9615 12.2747C19.8389 12.704 19.4465 13 19 13H8.55023L8.85792 15H20C20.5523 15 21 15.4477 21 16C21 16.5523 20.5523 17 20 17H8C7.50643 17 7.08668 16.6399 7.01163 16.1521L6.41535 12.2762C6.3926 12.1969 6.3794 12.1136 6.37708 12.0275L5.14208 4H3C2.44772 4 2 3.55228 2 3Z" fill="#0000CC"/>
<path d="M13.5 2C14.0523 2 14.5 2.44772 14.5 3V6.58579L14.7929 6.29289C15.1834 5.90237 15.8166 5.90237 16.2071 6.29289C16.5976 6.68342 16.5976 7.31658 16.2071 7.70711L14.2071 9.70711C13.8166 10.0976 13.1834 10.0976 12.7929 9.70711L10.7929 7.70711C10.4024 7.31658 10.4024 6.68342 10.7929 6.29289C11.1834 5.90237 11.8166 5.90237 12.2071 6.29289L12.5 6.58579V3C12.5 2.44772 12.9477 2 13.5 2Z" fill="#0000CC"/>
<path d="M6 20C6 18.8954 6.89543 18 8 18C9.10457 18 10 18.8954 10 20C10 21.1046 9.10457 22 8 22C6.89543 22 6 21.1046 6 20Z" fill="#0000CC"/>
<path d="M17 20C17 18.8954 17.8954 18 19 18C20.1046 18 21 18.8954 21 20C21 21.1046 20.1046 22 19 22C17.8954 22 17 21.1046 17 20Z" fill="#0000CC"/>
</svg>
