<svg width="24" height="24" viewBox="0 0 24 24" fill="none" xmlns="http://www.w3.org/2000/svg">
<path opacity="0.3" d="M8.16602 4L9.55063 13H20.0005C20.447 13 20.8394 12.704 20.9621 12.2747L22.9621 5.27472C23.0483 4.973 22.9878 4.64832 22.7989 4.3978C22.6099 4.14729 22.3143 4 22.0005 4H8.16602Z" fill="#0000CC"/>
<path d="M4 2C3.44772 2 3 2.44772 3 3C3 3.55228 3.44772 4 4 4H6.14208L8.01163 16.1521C8.08668 16.6399 8.50643 17 9 17H21C21.5523 17 22 16.5523 22 16C22 15.4477 21.5523 15 21 15H9.85792L7.98837 2.84794C7.91332 2.36011 7.49357 2 7 2H4Z" fill="#0000CC"/>
<path d="M9 18C7.89543 18 7 18.8954 7 20C7 21.1046 7.89543 22 9 22C10.1046 22 11 21.1046 11 20C11 18.8954 10.1046 18 9 18Z" fill="#0000CC"/>
<path d="M20 18C18.8954 18 18 18.8954 18 20C18 21.1046 18.8954 22 20 22C21.1046 22 22 21.1046 22 20C22 18.8954 21.1046 18 20 18Z" fill="#0000CC"/>
<path d="M2 7C1.44772 7 1 7.44772 1 8C1 8.55228 1.44772 9 2 9H4C4.55228 9 5 8.55228 5 8C5 7.44772 4.55228 7 4 7H2Z" fill="#0000CC"/>
<path d="M2 10C1.44772 10 1 10.4477 1 11C1 11.5523 1.44772 12 2 12H5C5.55228 12 6 11.5523 6 11C6 10.4477 5.55228 10 5 10H2Z" fill="#0000CC"/>
<path d="M2 13C1.44772 13 1 13.4477 1 14C1 14.5523 1.44772 15 2 15H6C6.55228 15 7 14.5523 7 14C7 13.4477 6.55228 13 6 13H2Z" fill="#0000CC"/>
</svg>
