<svg width="24" height="24" viewBox="0 0 24 24" fill="none" xmlns="http://www.w3.org/2000/svg">
<g opacity="0.3">
<path d="M12 4.04694C8.04872 4.48237 5 7.8937 5 12C5 16.1063 8.04872 19.5176 12 19.9531V17.936C9.18528 17.512 7 15.0317 7 12C7 8.96834 9.18528 6.48802 12 6.06402V4.04694Z" fill="#0000CC"/>
<path d="M14 17.8859V19.9159C15.8889 19.6355 17.5575 18.671 18.7565 17.2842C19.1177 16.8665 19.0718 16.235 18.654 15.8737C18.2363 15.5125 17.6048 15.5584 17.2435 15.9762C16.4081 16.9424 15.2778 17.6272 14 17.8859Z" fill="#0000CC"/>
<path d="M14 6.11408V4.08408C15.8889 4.36449 17.5575 5.32906 18.7565 6.71578C19.1177 7.13356 19.0718 7.76506 18.654 8.12628C18.2363 8.48749 17.6048 8.44164 17.2435 8.02386C16.4081 7.05759 15.2778 6.3728 14 6.11408Z" fill="#0000CC"/>
</g>
<path fill-rule="evenodd" clip-rule="evenodd" d="M13 2C13.5523 2 14 2.44772 14 3V21C14 21.5523 13.5523 22 13 22C12.4477 22 12 21.5523 12 21V3C12 2.44772 12.4477 2 13 2Z" fill="#0000CC"/>
</svg>
