<svg width="24" height="24" viewBox="0 0 24 24" fill="none" xmlns="http://www.w3.org/2000/svg">
<path opacity="0.3" fill-rule="evenodd" clip-rule="evenodd" d="M11.5681 2H12.4319C12.6843 1.99997 12.9301 1.99994 13.1382 2.01695C13.3668 2.03563 13.6366 2.07969 13.908 2.21799C14.2843 2.40974 14.5903 2.7157 14.782 3.09202C14.9203 3.36345 14.9644 3.63318 14.9831 3.86178C15.0001 4.06994 15 4.31574 15 4.56812V19.4319C15 19.6843 15.0001 19.9301 14.9831 20.1382C14.9644 20.3668 14.9203 20.6366 14.782 20.908C14.5903 21.2843 14.2843 21.5903 13.908 21.782C13.6366 21.9203 13.3668 21.9644 13.1382 21.9831C12.9301 22.0001 12.6843 22 12.4319 22H11.5681C11.3157 22 11.0699 22.0001 10.8618 21.9831C10.6332 21.9644 10.3634 21.9203 10.092 21.782C9.7157 21.5903 9.40974 21.2843 9.21799 20.908C9.07969 20.6366 9.03563 20.3668 9.01695 20.1382C8.99994 19.9301 8.99997 19.6843 9 19.4319L9.00001 4.60001C9.00001 4.33648 8.99923 4.07869 9.01695 3.86178C9.03563 3.63318 9.07969 3.36345 9.21799 3.09202C9.40974 2.7157 9.7157 2.40974 10.092 2.21799C10.3634 2.07969 10.6332 2.03563 10.8618 2.01695C11.0699 1.99994 11.3157 1.99997 11.5681 2Z" fill="#0000CC"/>
<path d="M20.1382 8.01695C19.9301 7.99994 19.6843 7.99997 19.4319 8H18.5681C18.3157 7.99997 18.0699 7.99994 17.8618 8.01695C17.6332 8.03563 17.3634 8.07969 17.092 8.21799C16.7157 8.40974 16.4097 8.7157 16.218 9.09202C16.0797 9.36345 16.0356 9.63318 16.0169 9.86178C15.9999 10.0699 16 10.3157 16 10.5681V19.4319C16 19.6843 15.9999 19.9301 16.0169 20.1382C16.0356 20.3668 16.0797 20.6366 16.218 20.908C16.4097 21.2843 16.7157 21.5903 17.092 21.782C17.3634 21.9203 17.6332 21.9644 17.8618 21.9831C18.0699 22.0001 18.3156 22 18.568 22H19.4319C19.6843 22 19.9301 22.0001 20.1382 21.9831C20.3668 21.9644 20.6366 21.9203 20.908 21.782C21.2843 21.5903 21.5903 21.2843 21.782 20.908C21.9203 20.6366 21.9644 20.3668 21.9831 20.1382C22.0001 19.9301 22 19.6844 22 19.432V10.5681C22 10.3158 22.0001 10.0699 21.9831 9.86178C21.9644 9.63318 21.9203 9.36345 21.782 9.09202C21.5903 8.7157 21.2843 8.40974 20.908 8.21799C20.6366 8.07969 20.3668 8.03563 20.1382 8.01695Z" fill="#0000CC"/>
<path d="M6.13824 12.0169C5.93007 11.9999 5.68428 12 5.43189 12H4.56812C4.31574 12 4.06994 11.9999 3.86178 12.0169C3.63318 12.0356 3.36345 12.0797 3.09202 12.218C2.7157 12.4097 2.40974 12.7157 2.21799 13.092C2.07969 13.3634 2.03563 13.6332 2.01695 13.8618C1.99994 14.0699 1.99997 14.3157 2 14.5681L2 19.4319C1.99997 19.6843 1.99994 19.9301 2.01695 20.1382C2.03563 20.3668 2.07969 20.6366 2.21799 20.908C2.40974 21.2843 2.7157 21.5903 3.09202 21.782C3.36345 21.9203 3.63318 21.9644 3.86178 21.9831C4.0699 22.0001 4.31564 22 4.56797 22H5.43192C5.68426 22 5.93011 22.0001 6.13824 21.9831C6.36683 21.9644 6.63656 21.9203 6.90799 21.782C7.28431 21.5903 7.59027 21.2843 7.78202 20.908C7.92032 20.6366 7.96438 20.3668 7.98306 20.1382C8.00007 19.9301 8.00004 19.6843 8.00001 19.4319V14.5681C8.00004 14.3157 8.00007 14.0699 7.98306 13.8618C7.96438 13.6332 7.92032 13.3634 7.78202 13.092C7.59027 12.7157 7.28431 12.4097 6.90799 12.218C6.63656 12.0797 6.36683 12.0356 6.13824 12.0169Z" fill="#0000CC"/>
</svg>
