<svg width="24" height="24" viewBox="0 0 24 24" fill="none" xmlns="http://www.w3.org/2000/svg">
<path opacity="0.3" fill-rule="evenodd" clip-rule="evenodd" d="M3 2C3.55229 2 4 2.44772 4 3V16.2C4 17.0566 4.00078 17.6389 4.03755 18.089C4.07337 18.5274 4.1383 18.7516 4.21799 18.908C4.40973 19.2843 4.7157 19.5903 5.09202 19.782C5.24842 19.8617 5.47262 19.9266 5.91104 19.9624C6.36113 19.9992 6.94342 20 7.8 20H21C21.5523 20 22 20.4477 22 21C22 21.5523 21.5523 22 21 22H7.75868C6.95372 22 6.28936 22 5.74817 21.9558C5.18608 21.9099 4.66937 21.8113 4.18404 21.564C3.43139 21.1805 2.81947 20.5686 2.43598 19.816C2.18868 19.3306 2.09012 18.8139 2.04419 18.2518C1.99998 17.7106 1.99999 17.0463 2 16.2413L2 3C2 2.44772 2.44772 2 3 2Z" fill="#0000CC"/>
<path d="M16 10C15.4477 10 15 9.55228 15 9C15 8.44772 15.4477 8 16 8H20C20.5523 8 21 8.44772 21 9V13C21 13.5523 20.5523 14 20 14C19.4477 14 19 13.5523 19 13V11.4142L14.7071 15.7071C14.3166 16.0976 13.6834 16.0976 13.2929 15.7071L10 12.4142L6.70711 15.7071C6.31658 16.0976 5.68342 16.0976 5.29289 15.7071C4.90237 15.3166 4.90237 14.6834 5.29289 14.2929L9.29289 10.2929C9.68342 9.90237 10.3166 9.90237 10.7071 10.2929L14 13.5858L17.5858 10H16Z" fill="#0000CC"/>
</svg>
