<svg width="24" height="24" viewBox="0 0 24 24" fill="none" xmlns="http://www.w3.org/2000/svg">
<path opacity="0.3" fill-rule="evenodd" clip-rule="evenodd" d="M21 10C21.5523 10 22 10.4477 22 11V21C22 21.5523 21.5523 22 21 22C20.4477 22 20 21.5523 20 21V11C20 10.4477 20.4477 10 21 10ZM9 12C9.55228 12 10 12.4477 10 13V21C10 21.5523 9.55228 22 9 22C8.44772 22 8 21.5523 8 21V13C8 12.4477 8.44772 12 9 12ZM15 14C15.5523 14 16 14.4477 16 15V21C16 21.5523 15.5523 22 15 22C14.4477 22 14 21.5523 14 21V15C14 14.4477 14.4477 14 15 14ZM3 16C3.55228 16 4 16.4477 4 17V21C4 21.5523 3.55228 22 3 22C2.44772 22 2 21.5523 2 21V17C2 16.4477 2.44772 16 3 16Z" fill="#0000CC"/>
<path d="M7 4.5C7 3.11929 8.11929 2 9.5 2C10.8807 2 12 3.11929 12 4.5C12 4.82243 11.939 5.1306 11.8278 5.4136L13.5864 7.17219C13.8694 7.06104 14.1776 7 14.5 7C14.8224 7 15.1306 7.06104 15.4136 7.17219L17.1722 5.41359C17.061 5.1306 17 4.82243 17 4.5C17 3.11929 18.1193 2 19.5 2C20.8807 2 22 3.11929 22 4.5C22 5.88071 20.8807 7 19.5 7C19.1776 7 18.8694 6.93896 18.5864 6.82781L16.8278 8.5864C16.939 8.8694 17 9.17757 17 9.5C17 10.8807 15.8807 12 14.5 12C13.1193 12 12 10.8807 12 9.5C12 9.17757 12.061 8.8694 12.1722 8.5864L10.4136 6.82781C10.1306 6.93896 9.82243 7 9.5 7C9.17757 7 8.8694 6.93896 8.5864 6.82781L6.82781 8.5864C6.93896 8.8694 7 9.17757 7 9.5C7 10.8807 5.88071 12 4.5 12C3.11929 12 2 10.8807 2 9.5C2 8.11929 3.11929 7 4.5 7C4.82243 7 5.1306 7.06104 5.4136 7.17219L7.17219 5.4136C7.06104 5.1306 7 4.82243 7 4.5Z" fill="#0000CC"/>
</svg>
