<svg width="24" height="24" viewBox="0 0 24 24" fill="none" xmlns="http://www.w3.org/2000/svg">
<path opacity="0.3" fill-rule="evenodd" clip-rule="evenodd" d="M2.99902 2C3.55131 2 3.99902 2.44772 3.99902 3V16.2C3.99902 17.0566 3.9998 17.6389 4.03658 18.089C4.0724 18.5274 4.13732 18.7516 4.21701 18.908C4.40876 19.2843 4.71472 19.5903 5.09104 19.782C5.24744 19.8617 5.47165 19.9266 5.91006 19.9624C6.36015 19.9992 6.94244 20 7.79902 20H20.999C21.5513 20 21.999 20.4477 21.999 21C21.999 21.5523 21.5513 22 20.999 22H7.7577C6.95274 22 6.28839 22 5.7472 21.9558C5.1851 21.9099 4.6684 21.8113 4.18306 21.564C3.43041 21.1805 2.81849 20.5686 2.435 19.816C2.18771 19.3306 2.08914 18.8139 2.04322 18.2518C1.999 17.7106 1.99901 17.0463 1.99902 16.2413L1.99902 3C1.99902 2.44772 2.44674 2 2.99902 2Z" fill="#0000CC"/>
<path d="M6 7C6 6.44772 6.44772 6 7 6H13C13.5523 6 14 6.44772 14 7C14 7.55228 13.5523 8 13 8H7C6.44772 8 6 7.55228 6 7Z" fill="#0000CC"/>
<path d="M8 11C8 10.4477 8.44772 10 9 10H18C18.5523 10 19 10.4477 19 11C19 11.5523 18.5523 12 18 12H9C8.44772 12 8 11.5523 8 11Z" fill="#0000CC"/>
<path d="M15 15C15 14.4477 15.4477 14 16 14H20C20.5523 14 21 14.4477 21 15C21 15.5523 20.5523 16 20 16H16C15.4477 16 15 15.5523 15 15Z" fill="#0000CC"/>
</svg>
