<svg width="24" height="24" viewBox="0 0 24 24" fill="none" xmlns="http://www.w3.org/2000/svg">
<path opacity="0.3" fill-rule="evenodd" clip-rule="evenodd" d="M8.73152 2.33945C8.76992 2.3395 8.80864 2.33955 8.84769 2.33955H15.1526C15.1917 2.33955 15.2304 2.3395 15.2688 2.33945C15.826 2.33875 16.3163 2.33814 16.7725 2.48638C17.1724 2.61629 17.5404 2.8288 17.8529 3.11011C18.2093 3.43109 18.454 3.85602 18.732 4.3389C18.7511 4.37218 18.7704 4.40573 18.79 4.43955L21.9424 9.8998C21.962 9.93362 21.9814 9.96712 22.0006 10.0004C22.2798 10.4825 22.5255 10.9069 22.6252 11.3761C22.7126 11.7873 22.7126 12.2123 22.6252 12.6235C22.5255 13.0927 22.2798 13.517 22.0006 13.9992C21.9814 14.0325 21.962 14.066 21.9424 14.0998L18.79 19.5601C18.7704 19.5939 18.7511 19.6274 18.732 19.6607C18.454 20.1436 18.2093 20.5685 17.8529 20.8895C17.5404 21.1708 17.1724 21.3833 16.7725 21.5132C16.3163 21.6615 15.826 21.6608 15.2688 21.6602C15.2304 21.6601 15.1917 21.6601 15.1526 21.6601H8.84769C8.80864 21.6601 8.76992 21.6601 8.73152 21.6602C8.17434 21.6608 7.68403 21.6615 7.22782 21.5132C6.82798 21.3833 6.45991 21.1708 6.14748 20.8895C5.79099 20.5685 5.54637 20.1436 5.26838 19.6607C5.24922 19.6274 5.22991 19.5939 5.21038 19.5601L2.0579 14.0998C2.03838 14.066 2.01898 14.0325 1.99974 13.9992C1.72055 13.5171 1.47486 13.0927 1.37513 12.6235C1.28772 12.2123 1.28772 11.7873 1.37513 11.3761C1.47486 10.9069 1.72054 10.4825 1.99974 10.0004C2.01898 9.96712 2.03838 9.93362 2.0579 9.8998L5.21038 4.43955C5.22991 4.40573 5.24923 4.37217 5.26838 4.33889C5.54637 3.85601 5.791 3.43109 6.14748 3.11011C6.45991 2.8288 6.82798 2.61629 7.22782 2.48638C7.68403 2.33814 8.17434 2.33875 8.73152 2.33945Z" fill="#0000CC"/>
<path fill-rule="evenodd" clip-rule="evenodd" d="M14.4027 9.22642C14.6016 8.98904 14.7448 8.69813 14.8061 8.36565C15.0038 7.29369 14.2507 6.33961 13.2349 6.16832C12.2291 5.99872 11.2034 6.63578 11.0082 7.69423C10.9499 8.01057 10.9743 8.31665 11.0639 8.59537L8.4048 11.6486C7.39897 11.479 6.37328 12.1161 6.17812 13.1745C5.98047 14.2465 6.73359 15.2006 7.74938 15.3719C8.4018 15.4819 9.06259 15.2525 9.49965 14.7889L13.5915 15.4788C13.8344 16.0847 14.3914 16.5406 15.0633 16.6539C16.0692 16.8235 17.0949 16.1864 17.29 15.128C17.4824 14.0844 16.7737 13.1525 15.7988 12.9459L14.4027 9.22642ZM12.5375 9.94867L10.0166 12.8478L13.8695 13.4975L12.5375 9.94867Z" fill="#0000CC"/>
</svg>
