<svg width="24" height="24" viewBox="0 0 24 24" fill="none" xmlns="http://www.w3.org/2000/svg">
<path opacity="0.3" d="M5.32698 3.63803C5 4.27976 5 5.11984 5 6.8V7.41604C5.61246 7.14845 6.2889 7 7 7C7.76747 7 8.49455 7.17291 9.14441 7.4819C9.18524 7.41459 9.23474 7.35105 9.29289 7.29289C9.68342 6.90237 10.3166 6.90237 10.7071 7.29289L13 9.58579L15.5858 7H15C14.4477 7 14 6.55228 14 6C14 5.44772 14.4477 5 15 5H18C18.5523 5 19 5.44772 19 6V9C19 9.55228 18.5523 10 18 10C17.4477 10 17 9.55228 17 9V8.41421L13.7071 11.7071C13.3166 12.0976 12.6834 12.0976 12.2929 11.7071L11.9614 11.3756C11.9869 11.5802 12 11.7885 12 12C12 13.0645 11.6674 14.0512 11.1004 14.8621C11.9667 15.386 12.6899 16.1228 13.1973 17H17.2C18.8802 17 19.7202 17 20.362 16.673C20.9265 16.3854 21.3854 15.9265 21.673 15.362C22 14.7202 22 13.8802 22 12.2V6.8C22 5.11984 22 4.27976 21.673 3.63803C21.3854 3.07354 20.9265 2.6146 20.362 2.32698C19.7202 2 18.8802 2 17.2 2H9.8C8.11984 2 7.27976 2 6.63803 2.32698C6.07354 2.6146 5.6146 3.07354 5.32698 3.63803Z" fill="#0000CC"/>
<path d="M10 12C10 13.6569 8.65685 15 7 15C5.34315 15 4 13.6569 4 12C4 10.3431 5.34315 9 7 9C8.65685 9 10 10.3431 10 12Z" fill="#0000CC"/>
<path d="M2 20.8C2 20.0568 2 19.6852 2.04925 19.3743C2.32033 17.6627 3.66269 16.3203 5.37426 16.0492C5.68519 16 6.0568 16 6.8 16H7.2C7.9432 16 8.31481 16 8.62574 16.0492C10.3373 16.3203 11.6797 17.6627 11.9508 19.3743C12 19.6852 12 20.0568 12 20.8C12 20.9858 12 21.0787 11.9877 21.1564C11.9199 21.5843 11.5843 21.9199 11.1564 21.9877C11.0787 22 10.9858 22 10.8 22H3.2C3.0142 22 2.9213 22 2.84357 21.9877C2.41567 21.9199 2.08008 21.5843 2.01231 21.1564C2 21.0787 2 20.9858 2 20.8Z" fill="#0000CC"/>
</svg>
