<svg width="24" height="24" viewBox="0 0 24 24" fill="none" xmlns="http://www.w3.org/2000/svg">
<path opacity="0.3" d="M7.69233 9H16.3083L20.5436 17H3.45703L7.69233 9Z" fill="#0000CC"/>
<path d="M12.8401 3.32225C12.3071 3.07553 11.6926 3.07552 11.1597 3.32225C10.7423 3.51548 10.4806 3.85936 10.3026 4.13202C10.1244 4.40509 9.93423 4.76439 9.7224 5.16457L7.69188 9H16.3079L14.2774 5.16471C14.0656 4.76447 13.8754 4.40512 13.6971 4.13202C13.5192 3.85935 13.2575 3.51548 12.8401 3.32225Z" fill="#0000CC"/>
<path d="M20.5432 17H3.45659L3.34002 17.2202C3.15162 17.576 2.97933 17.9014 2.86406 18.1775C2.74591 18.4604 2.6222 18.8363 2.67777 19.26C2.75015 19.8119 3.04923 20.3086 3.5031 20.6308C3.85157 20.8782 4.24165 20.9447 4.54702 20.9727C4.84496 21 5.21306 21 5.61567 20.9999H18.384C18.7866 21 19.1548 21 19.4527 20.9727C19.7581 20.9447 20.1482 20.8782 20.4967 20.6308C20.9505 20.3086 21.2496 19.8119 21.322 19.26C21.3776 18.8363 21.2538 18.4604 21.1357 18.1774C21.0204 17.9013 20.8482 17.576 20.6597 17.2202L20.5432 17Z" fill="#0000CC"/>
</svg>
