<svg width="24" height="24" viewBox="0 0 24 24" fill="none" xmlns="http://www.w3.org/2000/svg">
<path opacity="0.3" fill-rule="evenodd" clip-rule="evenodd" d="M3 2C3.55229 2 4 2.44772 4 3V16.2C4 17.0566 4.00078 17.6389 4.03755 18.089C4.07337 18.5274 4.1383 18.7516 4.21799 18.908C4.40973 19.2843 4.7157 19.5903 5.09202 19.782C5.24842 19.8617 5.47262 19.9266 5.91104 19.9624C6.36113 19.9992 6.94342 20 7.8 20H21C21.5523 20 22 20.4477 22 21C22 21.5523 21.5523 22 21 22H7.75868C6.95372 22 6.28936 22 5.74817 21.9558C5.18608 21.9099 4.66937 21.8113 4.18404 21.564C3.43139 21.1805 2.81947 20.5686 2.43598 19.816C2.18868 19.3306 2.09012 18.8139 2.04419 18.2518C1.99998 17.7106 1.99999 17.0463 2 16.2413L2 3C2 2.44772 2.44772 2 3 2Z" fill="#0000CC"/>
<path d="M10.9969 6.57697C11.4158 6.43398 11.8703 6.43398 12.2892 6.57697C12.5935 6.68087 12.8226 6.85756 13.0006 7.01962C13.1639 7.16823 13.3416 7.35967 13.5255 7.55782L15.1615 9.31966C15.2633 9.42926 15.3212 9.49098 15.3573 9.52648C15.3935 9.49098 15.4513 9.42926 15.5531 9.31966L15.5927 9.27691C15.7287 9.12963 15.8943 8.95038 16.0807 8.82211C16.7635 8.35227 17.6654 8.35227 18.3482 8.82211C18.5346 8.95038 18.7002 9.12963 18.8363 9.27692L18.8758 9.31966L20.3054 10.8592L20.3384 10.8947C20.4616 11.0266 20.6167 11.1928 20.732 11.3923C20.832 11.5655 20.9055 11.7526 20.95 11.9475C21.0013 12.1722 21.0007 12.3995 21.0003 12.58L21.0002 12.6284L21.0002 15.4321C21.0002 15.6845 21.0002 15.9302 20.9832 16.1383C20.9646 16.3669 20.9205 16.6367 20.7822 16.9081C20.5904 17.2844 20.2845 17.5904 19.9082 17.7821C19.6367 17.9204 19.367 17.9645 19.1384 17.9832C18.9302 18.0002 18.6844 18.0001 18.4321 18.0001H8.56829C8.3159 18.0001 8.07011 18.0002 7.86194 17.9832C7.63335 17.9645 7.36362 17.9204 7.09219 17.7821C6.71587 17.5904 6.40991 17.2844 6.21816 16.9081C6.07986 16.6367 6.03579 16.3669 6.01712 16.1383C6.00011 15.9302 6.00014 15.6844 6.00017 15.432L6.00017 12.6284L6.00009 12.58C5.99963 12.3995 5.99905 12.1722 6.05037 11.9475C6.09488 11.7526 6.16837 11.5655 6.26839 11.3923C6.38369 11.1928 6.53876 11.0266 6.66191 10.8947L6.69491 10.8592L9.76052 7.55782C9.94447 7.35967 10.1222 7.16823 10.2854 7.01962C10.4634 6.85756 10.6925 6.68087 10.9969 6.57697Z" fill="#0000CC"/>
</svg>
