<svg width="24" height="24" viewBox="0 0 24 24" fill="none" xmlns="http://www.w3.org/2000/svg">
<path opacity="0.3" d="M12 3C9.79086 3 8 4.79086 8 7C8 7.72857 8.19479 8.41165 8.53513 9H8C7.44772 9 7 9.44772 7 10C7 10.5523 7.44772 11 8 11H8.7802L8.01942 14.8039C7.96066 15.0977 8.03672 15.4023 8.22666 15.634C8.4166 15.8657 8.70041 16 9 16H15C15.2996 16 15.5834 15.8657 15.7733 15.634C15.9633 15.4023 16.0393 15.0977 15.9806 14.8039L15.2198 11H16C16.5523 11 17 10.5523 17 10C17 9.44772 16.5523 9 16 9H15.4649C15.8052 8.41165 16 7.72857 16 7C16 4.79086 14.2091 3 12 3Z" fill="#0000CC"/>
<path d="M9.14286 17C8.784 17 8.45266 17.1923 8.27461 17.5039L7.13176 19.5039C6.9549 19.8134 6.95617 20.1936 7.13509 20.5019C7.31401 20.8102 7.64353 21 8 21H16C16.3565 21 16.686 20.8102 16.8649 20.5019C17.0438 20.1936 17.0451 19.8134 16.8682 19.5039L15.7254 17.5039C15.5473 17.1923 15.216 17 14.8571 17H9.14286Z" fill="#0000CC"/>
</svg>
