<svg width="24" height="24" viewBox="0 0 24 24" fill="none" xmlns="http://www.w3.org/2000/svg">
<path opacity="0.3" d="M16.9285 7.37139L15.477 11H16C16.5523 11 17 11.4477 17 12C17 12.5523 16.5523 13 16 13H15.2808L15.9702 15.7575C16.0448 16.0562 15.9777 16.3727 15.7882 16.6154C15.5987 16.8581 15.3079 17 15 17H9.00001C8.69208 17 8.40132 16.8581 8.21181 16.6154C8.0223 16.3727 7.95519 16.0562 8.02987 15.7575L8.71924 13H8.00001C7.44773 13 7.00001 12.5523 7.00001 12C7.00001 11.4477 7.44773 11 8.00001 11H8.52298L7.07154 7.37139C6.93524 7.03065 6.99653 6.64264 7.23122 6.3605C7.4659 6.07837 7.83627 5.94745 8.19613 6.01942C8.50356 6.08091 9.08276 6.12579 9.70259 6.02537C10.3222 5.92498 10.8905 5.69532 11.2929 5.29289C11.6834 4.90237 12.3166 4.90237 12.7071 5.29289C13.1095 5.69532 13.6778 5.92498 14.2974 6.02537C14.9173 6.12579 15.4965 6.08091 15.8039 6.01942C16.1638 5.94745 16.5341 6.07837 16.7688 6.3605C17.0035 6.64264 17.0648 7.03065 16.9285 7.37139Z" fill="#0000CC"/>
<path d="M12 2C11.4477 2 11 2.44772 11 3C11 3.55228 11.4477 4 12 4H12.009C12.5613 4 13.009 3.55228 13.009 3C13.009 2.44772 12.5613 2 12.009 2H12Z" fill="#0000CC"/>
<path d="M9.14287 18C8.78401 18 8.45267 18.1923 8.27463 18.5039L7.13177 20.5039C6.95491 20.8134 6.95618 21.1936 7.1351 21.5019C7.31403 21.8102 7.64354 22 8.00001 22H16C16.3565 22 16.686 21.8102 16.8649 21.5019C17.0438 21.1936 17.0451 20.8134 16.8683 20.5039L15.7254 18.5039C15.5474 18.1923 15.216 18 14.8572 18H9.14287Z" fill="#0000CC"/>
</svg>
