<svg width="24" height="24" viewBox="0 0 24 24" fill="none" xmlns="http://www.w3.org/2000/svg">
<path opacity="0.3" d="M7 7H3C2.44772 7 2 7.44772 2 8V20C2 20.5523 2.44772 21 3 21H21C21.5523 21 22 20.5523 22 20V8C22 7.44772 21.5523 7 21 7H9H7Z" fill="#0000CC"/>
<path d="M14 4C13.4477 4 13 4.44772 13 5C13 5.55228 13.4477 6 14 6H18C18.5523 6 19 5.55228 19 5C19 4.44772 18.5523 4 18 4H14Z" fill="#0000CC"/>
<path d="M5 4C5 3.44772 5.44772 3 6 3H10C10.5523 3 11 3.44772 11 4C11 4.55228 10.5523 5 10 5H9V7H7V5H6C5.44772 5 5 4.55228 5 4Z" fill="#0000CC"/>
<path d="M5 14C5 12.3431 6.34315 11 8 11C9.65685 11 11 12.3431 11 14C11 15.6569 9.65685 17 8 17C6.34315 17 5 15.6569 5 14Z" fill="#0000CC"/>
<path d="M13 14C13 12.3431 14.3431 11 16 11C17.6569 11 19 12.3431 19 14C19 15.6569 17.6569 17 16 17C14.3431 17 13 15.6569 13 14Z" fill="#0000CC"/>
</svg>
