<svg width="24" height="24" viewBox="0 0 24 24" fill="none" xmlns="http://www.w3.org/2000/svg">
<path opacity="0.3" d="M17 7H21C21.5523 7 22 7.44772 22 8V20C22 20.5523 21.5523 21 21 21H3C2.44772 21 2 20.5523 2 20V8C2 7.44772 2.44772 7 3 7H15H17Z" fill="#0000CC"/>
<path d="M10 4C10.5523 4 11 4.44772 11 5C11 5.55228 10.5523 6 10 6H6C5.44772 6 5 5.55228 5 5C5 4.44772 5.44772 4 6 4H10Z" fill="#0000CC"/>
<path d="M19 4C19 3.44772 18.5523 3 18 3H14C13.4477 3 13 3.44772 13 4C13 4.55228 13.4477 5 14 5H15V7H17V5H18C18.5523 5 19 4.55228 19 4Z" fill="#0000CC"/>
<path d="M19 14C19 12.3431 17.6569 11 16 11C14.3431 11 13 12.3431 13 14C13 15.6569 14.3431 17 16 17C17.6569 17 19 15.6569 19 14Z" fill="#0000CC"/>
<path d="M11 14C11 12.3431 9.65685 11 8 11C6.34315 11 5 12.3431 5 14C5 15.6569 6.34315 17 8 17C9.65685 17 11 15.6569 11 14Z" fill="#0000CC"/>
</svg>
