<svg width="24" height="24" viewBox="0 0 24 24" fill="none" xmlns="http://www.w3.org/2000/svg">
<path opacity="0.3" fill-rule="evenodd" clip-rule="evenodd" d="M12 2C12.4138 2 12.7848 2.25483 12.9333 2.64102L14.9228 7.8136C15.1292 8.35023 15.1766 8.4531 15.2326 8.5319C15.2974 8.623 15.377 8.7026 15.4681 8.76738C15.5469 8.82341 15.6498 8.8708 16.1864 9.0772L21.359 11.0667C21.7452 11.2152 22 11.5862 22 12C22 12.4138 21.7452 12.7848 21.359 12.9333L16.1864 14.9228C15.6498 15.1292 15.5469 15.1766 15.4681 15.2326C15.377 15.2974 15.2974 15.377 15.2326 15.4681C15.1766 15.5469 15.1292 15.6498 14.9228 16.1864L12.9333 21.359C12.7848 21.7452 12.4138 22 12 22C11.5862 22 11.2152 21.7452 11.0667 21.359L9.0772 16.1864C8.8708 15.6498 8.82341 15.5469 8.76738 15.4681C8.7026 15.377 8.623 15.2974 8.5319 15.2326C8.4531 15.1766 8.35023 15.1292 7.81359 14.9228L2.64102 12.9333C2.25483 12.7848 2 12.4138 2 12C2 11.5862 2.25483 11.2152 2.64102 11.0667L7.8136 9.0772C8.35023 8.8708 8.4531 8.82341 8.5319 8.76738C8.623 8.7026 8.7026 8.623 8.76738 8.5319C8.82341 8.4531 8.8708 8.35023 9.0772 7.81359L11.0667 2.64102C11.2152 2.25483 11.5862 2 12 2Z" fill="#0000CC"/>
<path d="M9.11904 7.70482L5.70711 4.29289C5.31658 3.90237 4.68342 3.90237 4.29289 4.29289C3.90237 4.68342 3.90237 5.31658 4.29289 5.70711L7.70482 9.11904L7.8136 9.0772C8.35023 8.8708 8.4531 8.82341 8.5319 8.76738C8.623 8.7026 8.7026 8.623 8.76738 8.5319C8.82341 8.4531 8.8708 8.35023 9.0772 7.8136L9.11904 7.70482Z" fill="#0000CC"/>
<path d="M7.70482 14.881L4.29289 18.2929C3.90237 18.6834 3.90237 19.3166 4.29289 19.7071C4.68342 20.0976 5.31658 20.0976 5.70711 19.7071L9.11904 16.2952L9.0772 16.1864C8.8708 15.6498 8.82341 15.5469 8.76738 15.4681C8.7026 15.377 8.623 15.2974 8.5319 15.2326C8.4531 15.1766 8.35023 15.1292 7.8136 14.9228L7.70482 14.881Z" fill="#0000CC"/>
<path d="M14.881 16.2952L18.2929 19.7071C18.6834 20.0976 19.3166 20.0976 19.7071 19.7071C20.0976 19.3166 20.0976 18.6834 19.7071 18.2929L16.2952 14.881L16.1864 14.9228C15.6498 15.1292 15.5469 15.1766 15.4681 15.2326C15.377 15.2974 15.2974 15.377 15.2326 15.4681C15.1766 15.5469 15.1292 15.6498 14.9228 16.1864L14.881 16.2952Z" fill="#0000CC"/>
<path d="M16.2952 9.11904L19.7071 5.70711C20.0976 5.31658 20.0976 4.68342 19.7071 4.29289C19.3166 3.90237 18.6834 3.90237 18.2929 4.29289L14.881 7.70482L14.9228 7.8136C15.1292 8.35023 15.1766 8.4531 15.2326 8.5319C15.2974 8.623 15.377 8.7026 15.4681 8.76738C15.5469 8.82341 15.6498 8.8708 16.1864 9.0772L16.2952 9.11904Z" fill="#0000CC"/>
</svg>
