<svg width="24" height="24" viewBox="0 0 24 24" fill="none" xmlns="http://www.w3.org/2000/svg">
<g opacity="0.3">
<path d="M11 10.5V7.82904C11.3128 7.93969 11.6495 8.00001 12.0003 8.00001C12.3509 8.00001 12.6874 7.93976 13 7.82923V10.5C13 11.0523 12.5523 11.5 12 11.5C11.4477 11.5 11 11.0523 11 10.5Z" fill="#0000CC"/>
<path d="M17.2942 12.505C17.6718 12.148 18 11.6397 18 11V20C18 20.6397 17.6718 21.148 17.2942 21.505C16.9187 21.8601 16.4291 22.1338 15.9069 22.3427C14.8571 22.7626 13.4754 23 12 23C10.5246 23 9.1429 22.7626 8.09308 22.3427C7.57094 22.1338 7.08129 21.8601 6.70582 21.505C6.32823 21.148 6 20.6397 6 20V11C6 11.6397 6.32823 12.148 6.70582 12.505C7.08129 12.8601 7.57094 13.1338 8.09308 13.3427C9.1429 13.7626 10.5246 14 12 14C13.4754 14 14.8571 13.7626 15.9069 13.3427C16.4291 13.1338 16.9187 12.8601 17.2942 12.505Z" fill="#0000CC"/>
</g>
<path fill-rule="evenodd" clip-rule="evenodd" d="M12.8323 1.4453C12.6468 1.1671 12.3346 1 12.0003 1C11.6659 1 11.3537 1.1671 11.1682 1.4453L9.84001 3.4376C9.58435 3.82109 9.32061 4.31434 9.20336 4.85742C9.08244 5.41751 9.10814 6.09439 9.53399 6.70839C10.0739 7.48684 10.9771 8 12.0003 8C13.0235 8 13.9266 7.48685 14.4665 6.70839C14.8924 6.09439 14.9181 5.41751 14.7972 4.85742C14.6799 4.31434 14.4162 3.82109 14.1605 3.4376L12.8323 1.4453ZM11.5041 4.547L12.0003 3.80278L12.4964 4.547C12.6788 4.82058 12.7983 5.07597 12.8422 5.27948C12.8825 5.46599 12.8473 5.53366 12.8231 5.56856C12.6409 5.83132 12.3402 6 12.0003 6C11.6604 6 11.3596 5.83132 11.1774 5.56856C11.1532 5.53366 11.1181 5.46599 11.1583 5.27948C11.2023 5.07597 11.3217 4.82058 11.5041 4.547Z" fill="#0000CC"/>
<path d="M8.09308 8.65731C8.9015 8.33394 9.90674 8.11882 11 8.03699V10.5C11 11.0523 11.4477 11.5 12 11.5C12.5523 11.5 13 11.0523 13 10.5V8.03699C14.0933 8.11882 15.0985 8.33394 15.9069 8.65731C16.4291 8.86616 16.9187 9.13987 17.2942 9.49496C17.6718 9.85204 18 10.3603 18 11C18 11.6397 17.6718 12.148 17.2942 12.505C16.9187 12.8601 16.4291 13.1338 15.9069 13.3427C14.8571 13.7626 13.4754 14 12 14C10.5246 14 9.1429 13.7626 8.09308 13.3427C7.57094 13.1338 7.08129 12.8601 6.70582 12.505C6.32823 12.148 6 11.6397 6 11C6 10.3603 6.32823 9.85204 6.70582 9.49496C7.08129 9.13987 7.57094 8.86616 8.09308 8.65731Z" fill="#0000CC"/>
</svg>
