<svg width="24" height="24" viewBox="0 0 24 24" fill="none" xmlns="http://www.w3.org/2000/svg">
<path opacity="0.3" fill-rule="evenodd" clip-rule="evenodd" d="M12 22C17.5228 22 22 17.5228 22 12C22 6.47715 17.5228 2 12 2C6.47715 2 2 6.47715 2 12C2 17.5228 6.47715 22 12 22ZM8.50653 6.13035C8.96264 5.87158 9.54117 6.00909 9.83205 6.44541L11.5569 9.03262C11.7015 9.0112 11.8494 9.00011 12 9.00011C12.1506 9.00011 12.2985 9.0112 12.4431 9.03262L14.1679 6.44541C14.4588 6.00912 15.0373 5.87159 15.4934 6.1303C17.5734 7.31013 19 9.48357 19 12.0001C19 12.5524 18.5523 13.0001 18 13.0001H14.8293C14.6943 13.3822 14.484 13.7287 14.2164 14.0219L15.8321 16.4454C16.13 16.8924 16.0216 17.4949 15.5866 17.81C14.555 18.5572 13.3262 19.0001 11.9998 19.0001C10.6737 19.0001 9.44495 18.5573 8.41345 17.8103C7.97838 17.4952 7.86997 16.8927 8.16793 16.4457L9.78363 14.0219C9.51598 13.7287 9.30574 13.3822 9.17071 13.0001H6C5.44772 13.0001 5 12.5524 5 12.0001C5 9.48369 6.42662 7.3104 8.50653 6.13035Z" fill="#0000CC"/>
<path fill-rule="evenodd" clip-rule="evenodd" d="M9.83205 6.44541C9.54117 6.00909 8.96264 5.87158 8.50653 6.13035C6.42662 7.3104 5 9.48369 5 12.0001C5 12.5524 5.44772 13.0001 6 13.0001H9.17071C9.30574 13.3822 9.51598 13.7287 9.78363 14.0219L8.16793 16.4457C7.86997 16.8927 7.97838 17.4952 8.41345 17.8103C9.44495 18.5573 10.6737 19.0001 11.9998 19.0001C13.3262 19.0001 14.555 18.5572 15.5866 17.81C16.0216 17.4949 16.13 16.8924 15.8321 16.4454L14.2164 14.0219C14.484 13.7287 14.6943 13.3822 14.8293 13.0001H18C18.5523 13.0001 19 12.5524 19 12.0001C19 9.48357 17.5734 7.31013 15.4934 6.1303C15.0373 5.87159 14.4588 6.00912 14.1679 6.44541L12.4431 9.03262C12.2985 9.0112 12.1506 9.00011 12 9.00011C11.8494 9.00011 11.7015 9.0112 11.5569 9.03262L9.83205 6.44541ZM14.8292 11.0001C14.6942 10.6181 14.4839 10.2715 14.2163 9.9783L15.2701 8.39761C16.0835 9.07522 16.6585 9.98253 16.8885 11.0001H14.8292ZM9.78353 9.9783C9.51589 10.2715 9.30566 10.6181 9.17062 11.0001H7.11133C7.34137 9.98264 7.9163 9.07536 8.72977 8.39767L9.78353 9.9783ZM10.4224 16.6694L11.5568 14.9676C11.7014 14.989 11.8494 15.0001 11.9999 15.0001C12.1505 15.0001 12.2985 14.989 12.4431 14.9676L13.5775 16.6692C13.079 16.8854 12.5482 17.0001 11.9997 17.0001C11.4515 17.0001 10.9207 16.8855 10.4224 16.6694ZM10.9999 12.0001C10.9999 11.4478 11.4476 11.0001 11.9999 11.0001C12.5522 11.0001 12.9999 11.4478 12.9999 12.0001C12.9999 12.5524 12.5522 13.0001 11.9999 13.0001C11.4476 13.0001 10.9999 12.5524 10.9999 12.0001Z" fill="#0000CC"/>
</svg>
