<svg width="24" height="24" viewBox="0 0 24 24" fill="none" xmlns="http://www.w3.org/2000/svg">
<path opacity="0.3" fill-rule="evenodd" clip-rule="evenodd" d="M12 2C6.47715 2 2 6.47715 2 12C2 17.5228 6.47715 22 12 22C17.5228 22 22 17.5228 22 12C22 6.47715 17.5228 2 12 2Z" fill="#0000CC"/>
<path fill-rule="evenodd" clip-rule="evenodd" d="M15.001 10C15.001 11.6569 13.6578 13 12.001 13C10.3441 13 9.00098 11.6569 9.00098 10C9.00098 8.34315 10.3441 7 12.001 7C13.6578 7 15.001 8.34315 15.001 10ZM17.5643 17.7488C16.6739 15.5506 14.5185 14 12.0009 14C9.4833 14 7.32788 15.5506 6.4375 17.7488C7.87723 19.1424 9.83891 20 12.0009 20C14.1629 20 16.1245 19.1424 17.5643 17.7488Z" fill="#0000CC"/>
</svg>
