<svg width="24" height="24" viewBox="0 0 24 24" fill="none" xmlns="http://www.w3.org/2000/svg">
<g opacity="0.3">
<path d="M9 3C9 2.44772 8.55228 2 8 2C7.44772 2 7 2.44772 7 3V5.5359C7.06035 5.50106 7.12171 5.46773 7.18404 5.43597C7.65905 5.19394 8.21558 5.08627 9 5.03838V3Z" fill="#0000CC"/>
<path d="M3 7H5.5359C5.50106 7.06035 5.46773 7.12171 5.43597 7.18404C5.19394 7.65905 5.08627 8.21558 5.03838 9H3C2.44772 9 2 8.55228 2 8C2 7.44772 2.44772 7 3 7Z" fill="#0000CC"/>
<path d="M5.0001 11H3C2.44772 11 2 11.4477 2 12C2 12.5523 2.44772 13 3 13H5.0001V11Z" fill="#0000CC"/>
<path d="M3 15H5.03838C5.08627 15.7844 5.19394 16.3409 5.43597 16.816C5.46773 16.8783 5.50106 16.9397 5.5359 17H3C2.44772 17 2 16.5523 2 16C2 15.4477 2.44772 15 3 15Z" fill="#0000CC"/>
<path d="M7 18.4641V21C7 21.5523 7.44772 22 8 22C8.55228 22 9 21.5523 9 21V18.9616C8.21558 18.9137 7.65905 18.8061 7.18404 18.564C7.12171 18.5323 7.06035 18.4989 7 18.4641Z" fill="#0000CC"/>
<path d="M11 21V18.9999H13V21C13 21.5523 12.5523 22 12 22C11.4477 22 11 21.5523 11 21Z" fill="#0000CC"/>
<path d="M15 18.9616V21C15 21.5523 15.4477 22 16 22C16.5523 22 17 21.5523 17 21V18.4641C16.9397 18.4989 16.8783 18.5323 16.816 18.564C16.3409 18.8061 15.7844 18.9137 15 18.9616Z" fill="#0000CC"/>
<path d="M21 17H18.4641C18.4989 16.9397 18.5323 16.8783 18.564 16.816C18.8061 16.3409 18.9137 15.7844 18.9616 15H21C21.5523 15 22 15.4477 22 16C22 16.5523 21.5523 17 21 17Z" fill="#0000CC"/>
<path d="M18.9999 13H21C21.5523 13 22 12.5523 22 12C22 11.4477 21.5523 11 21 11H18.9999V13Z" fill="#0000CC"/>
<path d="M21 9H18.9616C18.9137 8.21558 18.8061 7.65905 18.564 7.18404C18.5323 7.12171 18.4989 7.06035 18.4641 7H21C21.5523 7 22 7.44772 22 8C22 8.55228 21.5523 9 21 9Z" fill="#0000CC"/>
<path d="M17 5.5359V3C17 2.44772 16.5523 2 16 2C15.4477 2 15 2.44772 15 3V5.03838C15.7844 5.08627 16.3409 5.19394 16.816 5.43597C16.8783 5.46773 16.9397 5.50106 17 5.5359Z" fill="#0000CC"/>
<path d="M13 3V5.0001H11V3C11 2.44772 11.4477 2 12 2C12.5523 2 13 2.44772 13 3Z" fill="#0000CC"/>
</g>
<path fill-rule="evenodd" clip-rule="evenodd" d="M5 11.4C5 9.15979 5 8.03969 5.43597 7.18404C5.81947 6.43139 6.43139 5.81947 7.18404 5.43597C8.03969 5 9.15979 5 11.4 5H12.6C14.8402 5 15.9603 5 16.816 5.43597C17.5686 5.81947 18.1805 6.43139 18.564 7.18404C19 8.03969 19 9.15979 19 11.4V12.6C19 14.8402 19 15.9603 18.564 16.816C18.1805 17.5686 17.5686 18.1805 16.816 18.564C15.9603 19 14.8402 19 12.6 19H11.4C9.15979 19 8.03969 19 7.18404 18.564C6.43139 18.1805 5.81947 17.5686 5.43597 16.816C5 15.9603 5 14.8402 5 12.6V11.4ZM11 10C11 10.5523 10.5523 11 10 11C9.44771 11 9 10.5523 9 10C9 9.44771 9.44771 9 10 9C10.5523 9 11 9.44771 11 10ZM15 10C15 10.5523 14.5523 11 14 11C13.4477 11 13 10.5523 13 10C13 9.44771 13.4477 9 14 9C14.5523 9 15 9.44771 15 10ZM15 14C15 14.5523 14.5523 15 14 15C13.4477 15 13 14.5523 13 14C13 13.4477 13.4477 13 14 13C14.5523 13 15 13.4477 15 14ZM11 14C11 14.5523 10.5523 15 10 15C9.44771 15 9 14.5523 9 14C9 13.4477 9.44771 13 10 13C10.5523 13 11 13.4477 11 14Z" fill="#0000CC"/>
</svg>
