<svg width="24" height="24" viewBox="0 0 24 24" fill="none" xmlns="http://www.w3.org/2000/svg">
<path opacity="0.3" fill-rule="evenodd" clip-rule="evenodd" d="M20 10C20 14.4183 16.4183 18 12 18C7.58172 18 4 14.4183 4 10C4 5.58172 7.58172 2 12 2C16.4183 2 20 5.58172 20 10Z" fill="#0000CC"/>
<path d="M13.0001 6C13.0001 5.44772 12.5524 5 12.0001 5C11.4478 5 11.0001 5.44772 11.0001 6V6.07012C10.6188 6.1474 10.224 6.29988 9.87781 6.57355C9.3142 7.0191 9.00136 7.69023 9.00013 8.50732C8.99873 9.43735 9.42986 10.1361 10.0998 10.549C10.7001 10.919 11.4143 11.015 12.0001 11.015C12.448 11.015 12.7269 11.0813 12.8667 11.1638C12.9192 11.1948 12.9389 11.2203 12.9515 11.2433C12.9658 11.2693 13.0001 11.3468 13.0001 11.5211C13.0001 11.6047 12.9834 11.6413 12.9757 11.6558C12.9669 11.6724 12.9457 11.704 12.8868 11.7463C12.7569 11.8397 12.5091 11.9383 12.1152 11.9975C12.0127 11.9977 11.9182 11.9983 11.8292 11.9988C11.2538 12.0023 10.9119 12.0043 10.1421 11.8939C9.59543 11.8155 9.08868 12.1951 9.01026 12.7418C8.93184 13.2885 9.31145 13.7952 9.85814 13.8736C10.3312 13.9415 10.6858 13.9737 11.0001 13.9885V14C11.0001 14.5523 11.4478 15 12.0001 15C12.5524 15 13.0001 14.5523 13.0001 14V13.853C13.3687 13.7521 13.7346 13.6001 14.0544 13.3701C14.6236 12.9608 15.0001 12.3327 15.0001 11.5211C15.0001 10.5733 14.5852 9.85594 13.8836 9.44162C13.2733 9.08129 12.5523 9.01495 12.0001 9.01495C11.586 9.01495 11.2993 8.93895 11.1491 8.84643C11.0864 8.80776 11.0595 8.77398 11.0443 8.74686C11.0293 8.72003 10.9999 8.65331 11.0001 8.51033C11.0004 8.35952 11.0274 8.27558 11.0465 8.23382C11.0645 8.19437 11.0869 8.1672 11.1181 8.14252C11.193 8.08333 11.3579 8.0135 11.6335 8.00327C11.7066 8.00106 11.7468 8.00026 11.7699 8.00006L11.7877 8.00004L11.8071 8.00099C11.8204 8.00162 11.8369 8.00231 11.8573 8.00287C11.8971 8.00395 11.9439 8.00429 12.0078 8.0038C12.7406 7.99819 13.3939 8.01331 13.7264 8.10794C14.2576 8.25912 14.8107 7.95107 14.9619 7.41988C15.1131 6.8887 14.8051 6.33552 14.2739 6.18433C13.9068 6.07986 13.4463 6.03424 13.0001 6.01514V6Z" fill="#0000CC"/>
<path d="M3 16C3.55229 16 4 16.4477 4 17V17.8C4 18.3766 4.00078 18.7488 4.02393 19.0322C4.04613 19.3038 4.0838 19.4045 4.109 19.454C4.20487 19.6422 4.35785 19.7951 4.54601 19.891C4.59546 19.9162 4.69618 19.9539 4.96784 19.9761C5.25118 19.9992 5.62345 20 6.2 20H17.8C18.3766 20 18.7488 19.9992 19.0322 19.9761C19.3038 19.9539 19.4045 19.9162 19.454 19.891C19.6422 19.7951 19.7951 19.6422 19.891 19.454C19.9162 19.4045 19.9539 19.3038 19.9761 19.0322C19.9992 18.7488 20 18.3766 20 17.8V17C20 16.4477 20.4477 16 21 16C21.5523 16 22 16.4477 22 17V17.8386C22 18.3657 22 18.8205 21.9694 19.195C21.9371 19.5904 21.8658 19.9836 21.673 20.362C21.3854 20.9265 20.9265 21.3854 20.362 21.673C19.9836 21.8658 19.5904 21.9371 19.195 21.9694C18.8205 22 18.3657 22 17.8386 22H6.16144C5.6343 22 5.17954 22 4.80497 21.9694C4.40963 21.9371 4.01641 21.8658 3.63803 21.673C3.07355 21.3854 2.6146 20.9265 2.32698 20.362C2.13419 19.9836 2.06287 19.5904 2.03057 19.195C1.99997 18.8205 1.99998 18.3657 2 17.8386V17C2 16.4477 2.44772 16 3 16Z" fill="#0000CC"/>
</svg>
