<svg width="24" height="24" viewBox="0 0 24 24" fill="none" xmlns="http://www.w3.org/2000/svg">
<path fill-rule="evenodd" clip-rule="evenodd" d="M8.5 9.25C8.5 7.45507 9.95507 6 11.75 6H12.25C14.0449 6 15.5 7.45507 15.5 9.25C15.5 10.0744 15.1931 10.827 14.6873 11.4C15.4908 12.0878 16 13.1094 16 14.25C16 16.3211 14.3211 18 12.25 18H11.75C9.67893 18 8 16.3211 8 14.25C8 13.1094 8.50922 12.0878 9.31271 11.4C8.80692 10.827 8.5 10.0744 8.5 9.25ZM11.75 10.5C11.0596 10.5 10.5 9.94036 10.5 9.25C10.5 8.55964 11.0596 8 11.75 8H12.25C12.9404 8 13.5 8.55964 13.5 9.25C13.5 9.94036 12.9404 10.5 12.25 10.5H11.75ZM12.25 12.5H11.75C10.7835 12.5 10 13.2835 10 14.25C10 15.2165 10.7835 16 11.75 16H12.25C13.2165 16 14 15.2165 14 14.25C14 13.2835 13.2165 12.5 12.25 12.5Z" fill="#0000CC"/>
<circle opacity="0.3" cx="12" cy="12" r="10" fill="#0000CC"/>
</svg>
