<svg width="24" height="24" viewBox="0 0 24 24" fill="none" xmlns="http://www.w3.org/2000/svg">
<g opacity="0.3">
<path d="M16.1694 3.95959C16.4766 3.50066 17.0977 3.3777 17.5567 3.68494C18.6468 4.41474 19.5851 5.35306 20.3149 6.44314C20.6221 6.90207 20.4992 7.52318 20.0402 7.83043C19.5813 8.13768 18.9602 8.01471 18.6529 7.55578C18.0686 6.68294 17.3169 5.93123 16.444 5.34688C15.9851 5.03963 15.8621 4.41852 16.1694 3.95959Z" fill="#0000CC"/>
<path d="M7.83025 3.95959C8.13749 4.41852 8.01453 5.03963 7.5556 5.34688C6.68275 5.93124 5.93105 6.68294 5.3467 7.55578C5.03945 8.01471 4.41834 8.13768 3.95941 7.83043C3.50048 7.52318 3.37751 6.90207 3.68476 6.44314C4.41455 5.35306 5.35287 4.41474 6.44296 3.68494C6.90189 3.3777 7.523 3.50066 7.83025 3.95959Z" fill="#0000CC"/>
<path d="M20.0402 16.1696C20.4992 16.4768 20.6221 17.0979 20.3149 17.5569C19.5851 18.6469 18.6468 19.5853 17.5567 20.3151C17.0977 20.6223 16.4766 20.4993 16.1694 20.0404C15.8621 19.5815 15.9851 18.9604 16.444 18.6531C17.3169 18.0688 18.0686 17.3171 18.6529 16.4442C18.9602 15.9853 19.5813 15.8623 20.0402 16.1696Z" fill="#0000CC"/>
<path d="M3.95941 16.1696C4.41834 15.8623 5.03945 15.9853 5.3467 16.4442C5.93105 17.3171 6.68275 18.0688 7.5556 18.6531C8.01453 18.9604 8.13749 19.5815 7.83025 20.0404C7.523 20.4993 6.90189 20.6223 6.44296 20.3151C5.35288 19.5853 4.41455 18.6469 3.68476 17.5569C3.37751 17.0979 3.50048 16.4768 3.95941 16.1696Z" fill="#0000CC"/>
</g>
<path fill-rule="evenodd" clip-rule="evenodd" d="M10.0495 2.19032C10.6811 2.06536 11.3334 2 12 2C12.6666 2 13.3189 2.06536 13.9505 2.19032C14.4923 2.2975 14.8446 2.82359 14.7374 3.36538C14.6303 3.90716 14.1042 4.25948 13.5624 4.15229C13.0579 4.05249 12.5356 4 12 4C11.4644 4 10.9421 4.05249 10.4376 4.15229C9.89583 4.25948 9.36974 3.90716 9.26255 3.36538C9.15537 2.82359 9.50769 2.2975 10.0495 2.19032ZM3.36538 9.26255C3.90716 9.36973 4.25948 9.89583 4.15229 10.4376C4.05249 10.9421 4 11.4644 4 12C4 12.5356 4.05249 13.0579 4.15229 13.5624C4.25948 14.1042 3.90716 14.6303 3.36538 14.7374C2.82359 14.8446 2.2975 14.4923 2.19032 13.9505C2.06536 13.3189 2 12.6666 2 12C2 11.3334 2.06536 10.6811 2.19032 10.0495C2.2975 9.50769 2.82359 9.15537 3.36538 9.26255ZM20.6346 9.26255C21.1764 9.15537 21.7025 9.50769 21.8097 10.0495C21.9346 10.6811 22 11.3334 22 12C22 12.6666 21.9346 13.3189 21.8097 13.9505C21.7025 14.4923 21.1764 14.8446 20.6346 14.7374C20.0928 14.6303 19.7405 14.1042 19.8477 13.5624C19.9475 13.0579 20 12.5356 20 12C20 11.4644 19.9475 10.9421 19.8477 10.4376C19.7405 9.89583 20.0928 9.36974 20.6346 9.26255ZM9.26255 20.6346C9.36973 20.0928 9.89583 19.7405 10.4376 19.8477C10.9421 19.9475 11.4644 20 12 20C12.5356 20 13.0579 19.9475 13.5624 19.8477C14.1042 19.7405 14.6303 20.0928 14.7374 20.6346C14.8446 21.1764 14.4923 21.7025 13.9505 21.8097C13.3189 21.9346 12.6666 22 12 22C11.3334 22 10.6811 21.9346 10.0495 21.8097C9.50769 21.7025 9.15537 21.1764 9.26255 20.6346Z" fill="#0000CC"/>
</svg>
