<svg width="24" height="24" viewBox="0 0 24 24" fill="none" xmlns="http://www.w3.org/2000/svg">
<path opacity="0.3" fill-rule="evenodd" clip-rule="evenodd" d="M12.5 6C12.5 5.44772 12.9477 5 13.5 5C18.1944 5 22 8.80558 22 13.5C22 18.1944 18.1944 22 13.5 22C8.80558 22 5 18.1944 5 13.5C5 12.9477 5.44772 12.5 6 12.5H10.9C11.4601 12.5 11.7401 12.5 11.954 12.391C12.1422 12.2951 12.2951 12.1422 12.391 11.954C12.5 11.7401 12.5 11.4601 12.5 10.9V6Z" fill="#0000CC"/>
<path d="M2 10C2 5.58172 5.58172 2 10 2C10.5523 2 11 2.44772 11 3V10C11 10.5523 10.5523 11 10 11H3C2.44772 11 2 10.5523 2 10Z" fill="#0000CC"/>
</svg>
