<svg width="24" height="24" viewBox="0 0 24 24" fill="none" xmlns="http://www.w3.org/2000/svg">
<circle opacity="0.3" cx="12" cy="12" r="10" fill="#0000CC"/>
<path fill-rule="evenodd" clip-rule="evenodd" d="M10.1056 6.55279C10.275 6.214 10.6212 6 11 6H15C15.5523 6 16 6.44772 16 7C16 7.55228 15.5523 8 15 8H11.618L10.618 10H12C14.2091 10 16 11.7909 16 14C16 16.2091 14.2091 18 12 18H11C9.34315 18 8 16.6568 8 15C8 14.4477 8.44772 14 9 14C9.55229 14 10 14.4477 10 15C10 15.5523 10.4477 16 11 16H12C13.1046 16 14 15.1046 14 14C14 12.8954 13.1046 12 12 12H9C8.65342 12 8.33156 11.8206 8.14935 11.5258C7.96714 11.2309 7.95058 10.8628 8.10557 10.5528L10.1056 6.55279Z" fill="#0000CC"/>
</svg>
