<svg width="24" height="24" viewBox="0 0 24 24" fill="none" xmlns="http://www.w3.org/2000/svg">
<path opacity="0.3" fill-rule="evenodd" clip-rule="evenodd" d="M12 2C6.47715 2 2 6.47715 2 12C2 17.5228 6.47715 22 12 22C17.5228 22 22 17.5228 22 12C22 6.47715 17.5228 2 12 2Z" fill="#0000CC"/>
<path fill-rule="evenodd" clip-rule="evenodd" d="M11.9969 8.027C10.8905 7.32263 9.41046 7.2541 8.22311 8.24042C6.81061 9.41377 6.59061 11.4236 7.72477 12.8425C8.25796 13.5096 9.47822 14.6208 10.3091 15.3567C10.6445 15.6538 10.9866 15.966 11.4257 16.097C11.7934 16.2067 12.2016 16.2067 12.5693 16.097C13.0432 15.9556 13.4064 15.6042 13.6858 15.3567C14.5167 14.6208 15.737 13.5096 16.2702 12.8425C17.3952 11.4351 17.2153 9.40673 15.7614 8.23184C14.5678 7.26735 13.1012 7.32326 11.9969 8.027Z" fill="#0000CC"/>
</svg>
