<svg width="24" height="24" viewBox="0 0 24 24" fill="none" xmlns="http://www.w3.org/2000/svg">
<path opacity="0.3" fill-rule="evenodd" clip-rule="evenodd" d="M2 12C2 6.47715 6.47715 2 12 2C17.5228 2 22 6.47715 22 12C22 17.5228 17.5228 22 12 22C6.47715 22 2 17.5228 2 12Z" fill="#0000CC"/>
<path d="M17.6575 6.343C16.2098 4.89537 14.2098 4 12.0008 4C9.79154 4 7.79148 4.89549 6.34375 6.34329L12.0005 12L6.34375 17.6567C7.79148 19.1045 9.79154 20 12.0008 20C14.2098 20 16.2098 19.1046 17.6575 17.657L12.0005 12L17.6575 6.343Z" fill="#0000CC"/>
</svg>
