<svg width="24" height="24" viewBox="0 0 24 24" fill="none" xmlns="http://www.w3.org/2000/svg">
<g opacity="0.3">
<path d="M17.4269 6.7143C17.3141 6.58477 17.151 6.50725 16.9771 6.50048C16.8032 6.49372 16.6343 6.55833 16.5113 6.67868L13.6823 9.44679C13.5045 9.62077 13.4512 9.88218 13.5471 10.1095C13.6429 10.3369 13.8693 10.4856 14.1208 10.4866L17.5409 10.5L17.5434 10.5H17.8676C18.1952 10.5 18.4669 10.2521 18.4895 9.93263C18.497 9.82567 18.5 9.71997 18.5 9.61631C18.5 8.53789 18.1151 7.54562 17.4722 6.7666L17.4616 6.75416L17.4269 6.7143Z" fill="#0000CC"/>
<path d="M13.548 11.901C13.6453 11.6573 13.874 11.4989 14.127 11.5L17.552 11.5143H17.8755C18.0486 11.5143 18.2139 11.5893 18.332 11.7212C18.4501 11.8532 18.5104 12.0304 18.4985 12.2106C18.4187 13.4193 17.9151 14.5062 17.1434 15.3096C17.0222 15.4358 16.8567 15.5045 16.6856 15.4998C16.5145 15.495 16.3527 15.4172 16.2382 15.2844L16.1829 15.2203C15.2066 14.2018 14.6592 13.6307 13.6829 12.6122C13.504 12.4255 13.4507 12.1446 13.548 11.901Z" fill="#0000CC"/>
<path d="M12.6143 13.6829C12.4273 13.504 12.1459 13.4507 11.9017 13.548C11.6576 13.6453 11.499 13.8739 11.5 14.127L11.5143 17.5739V17.8755C11.5143 18.0485 11.5893 18.2137 11.7214 18.3318C11.8536 18.4499 12.0309 18.5103 12.2113 18.4986C13.4183 18.4201 14.5041 17.9195 15.3084 17.1516C15.5543 16.9168 15.5648 16.5388 15.3324 16.2918L15.2631 16.2182C15.2555 16.2101 15.2476 16.2022 15.2396 16.1945L12.6143 13.6829Z" fill="#0000CC"/>
<path d="M10.1085 13.5469C10.3365 13.6427 10.4856 13.8691 10.4866 14.1208L10.5 17.5626L10.5 17.5651V17.8674C10.5 18.1952 10.2513 18.467 9.931 18.4892C9.82787 18.4964 9.72337 18.5 9.61873 18.5C8.535 18.5 7.5388 18.1114 6.75801 17.4638C6.74964 17.4569 6.74144 17.4497 6.73344 17.4423L6.70099 17.4123C6.57701 17.2978 6.50443 17.1364 6.5002 16.9658C6.49596 16.7952 6.56044 16.6302 6.67859 16.5095L9.44441 13.6828C9.61862 13.5047 9.88061 13.4511 10.1085 13.5469Z" fill="#0000CC"/>
</g>
<path d="M17.6366 4.89685C18.0249 4.50414 18.6581 4.50059 19.0508 4.88891C20.8824 6.7001 22.0191 9.21641 22.0191 11.9963C22.0191 17.5202 17.5366 21.9963 12.0093 21.9963C9.23489 21.9963 6.72236 20.8673 4.91029 19.0463C4.52073 18.6548 4.52229 18.0217 4.91378 17.6321C5.30526 17.2425 5.93843 17.2441 6.32799 17.6356C7.77984 19.0946 9.78812 19.9963 12.0093 19.9963C16.434 19.9963 20.0191 16.4135 20.0191 11.9963C20.0191 9.7726 19.1121 7.76219 17.6445 6.31104C17.2518 5.92271 17.2483 5.28956 17.6366 4.89685Z" fill="#0000CC"/>
</svg>
