<svg width="24" height="24" viewBox="0 0 24 24" fill="none" xmlns="http://www.w3.org/2000/svg">
<path opacity="0.3" d="M4 8.8C4 7.11984 4 6.27976 4.32698 5.63803C4.6146 5.07354 5.07354 4.6146 5.63803 4.32698C6.27976 4 7.11984 4 8.8 4H15.2C16.8802 4 17.7202 4 18.362 4.32698C18.9265 4.6146 19.3854 5.07354 19.673 5.63803C20 6.27976 20 7.11984 20 8.8V17.2C20 18.8802 20 19.7202 19.673 20.362C19.3854 20.9265 18.9265 21.3854 18.362 21.673C17.7202 22 16.8802 22 15.2 22H8.8C7.11984 22 6.27976 22 5.63803 21.673C5.07354 21.3854 4.6146 20.9265 4.32698 20.362C4 19.7202 4 18.8802 4 17.2V8.8Z" fill="#0000CC"/>
<path d="M7 5.75C7 5.05302 7 4.70453 7.05764 4.41473C7.29436 3.22466 8.22466 2.29436 9.41473 2.05764C9.70453 2 10.053 2 10.75 2H13.25C13.947 2 14.2955 2 14.5853 2.05764C15.7753 2.29436 16.7056 3.22466 16.9424 4.41473C17 4.70453 17 5.05302 17 5.75C17 5.98233 17 6.09849 16.9808 6.19509C16.9019 6.59178 16.5918 6.90188 16.1951 6.98079C16.0985 7 15.9823 7 15.75 7H8.25C8.01767 7 7.90151 7 7.80491 6.98079C7.40822 6.90188 7.09812 6.59178 7.01921 6.19509C7 6.09849 7 5.98233 7 5.75Z" fill="#0000CC"/>
<path d="M13 11.5C13 11.2239 13.2239 11 13.5 11C13.7761 11 14 11.2239 14 11.5V15C14 16.1046 13.1046 17 12 17C10.8954 17 10 16.1046 10 15V12.5C10 11.9477 9.55228 11.5 9 11.5C8.44772 11.5 8 11.9477 8 12.5V15C8 17.2091 9.79086 19 12 19C14.2091 19 16 17.2091 16 15V11.5C16 10.1193 14.8807 9 13.5 9C12.1193 9 11 10.1193 11 11.5V15C11 15.5523 11.4477 16 12 16C12.5523 16 13 15.5523 13 15V11.5Z" fill="#0000CC"/>
</svg>
