<svg width="24" height="24" viewBox="0 0 24 24" fill="none" xmlns="http://www.w3.org/2000/svg">
<path opacity="0.3" d="M4 8.8C4 7.11984 4 6.27976 4.32698 5.63803C4.6146 5.07354 5.07354 4.6146 5.63803 4.32698C6.27976 4 7.11984 4 8.8 4H15.2C16.8802 4 17.7202 4 18.362 4.32698C18.9265 4.6146 19.3854 5.07354 19.673 5.63803C20 6.27976 20 7.11984 20 8.8V17.2C20 18.8802 20 19.7202 19.673 20.362C19.3854 20.9265 18.9265 21.3854 18.362 21.673C17.7202 22 16.8802 22 15.2 22H8.8C7.11984 22 6.27976 22 5.63803 21.673C5.07354 21.3854 4.6146 20.9265 4.32698 20.362C4 19.7202 4 18.8802 4 17.2V8.8Z" fill="#0000CC"/>
<path d="M7.05764 4.41473C7 4.70453 7 5.05302 7 5.75C7 5.98233 7 6.09849 7.01921 6.19509C7.09812 6.59178 7.40822 6.90188 7.80491 6.98079C7.90151 7 8.01767 7 8.25 7H15.75C15.9823 7 16.0985 7 16.1951 6.98079C16.5918 6.90188 16.9019 6.59178 16.9808 6.19509C17 6.09849 17 5.98233 17 5.75C17 5.05302 17 4.70453 16.9424 4.41473C16.7056 3.22466 15.7753 2.29436 14.5853 2.05764C14.2955 2 13.947 2 13.25 2H10.75C10.053 2 9.70453 2 9.41473 2.05764C8.22466 2.29436 7.29436 3.22466 7.05764 4.41473Z" fill="#0000CC"/>
<path d="M9 12C9 12.5523 8.55229 13 8 13C7.44772 13 7 12.5523 7 12C7 11.4477 7.44772 11 8 11C8.55229 11 9 11.4477 9 12Z" fill="#0000CC"/>
<path d="M9 16C9 16.5523 8.55229 17 8 17C7.44772 17 7 16.5523 7 16C7 15.4477 7.44772 15 8 15C8.55229 15 9 15.4477 9 16Z" fill="#0000CC"/>
<path d="M11 12C11 11.4477 11.4477 11 12 11H16C16.5523 11 17 11.4477 17 12C17 12.5523 16.5523 13 16 13H12C11.4477 13 11 12.5523 11 12Z" fill="#0000CC"/>
<path d="M11 16C11 15.4477 11.4477 15 12 15H16C16.5523 15 17 15.4477 17 16C17 16.5523 16.5523 17 16 17H12C11.4477 17 11 16.5523 11 16Z" fill="#0000CC"/>
</svg>
