<svg width="24" height="24" viewBox="0 0 24 24" fill="none" xmlns="http://www.w3.org/2000/svg">
<rect opacity="0.3" x="4" y="4" width="16" height="18" rx="3" fill="#0000CC"/>
<path d="M7.05764 4.41473C7 4.70453 7 5.05302 7 5.75C7 5.98233 7 6.09849 7.01921 6.19509C7.09812 6.59178 7.40822 6.90188 7.80491 6.98079C7.90151 7 8.01767 7 8.25 7H15.75C15.9823 7 16.0985 7 16.1951 6.98079C16.5918 6.90188 16.9019 6.59178 16.9808 6.19509C17 6.09849 17 5.98233 17 5.75C17 5.05302 17 4.70453 16.9424 4.41473C16.7056 3.22466 15.7753 2.29436 14.5853 2.05764C14.2955 2 13.947 2 13.25 2H10.75C10.053 2 9.70453 2 9.41473 2.05764C8.22466 2.29436 7.29436 3.22466 7.05764 4.41473Z" fill="#0000CC"/>
<path d="M10.7071 11.2929C10.3166 10.9024 9.68342 10.9024 9.29289 11.2929C8.90237 11.6834 8.90237 12.3166 9.29289 12.7071L10.5858 14L9.29289 15.2929C8.90237 15.6834 8.90237 16.3166 9.29289 16.7071C9.68342 17.0976 10.3166 17.0976 10.7071 16.7071L12 15.4142L13.2929 16.7071C13.6834 17.0976 14.3166 17.0976 14.7071 16.7071C15.0976 16.3166 15.0976 15.6834 14.7071 15.2929L13.4142 14L14.7071 12.7071C15.0976 12.3166 15.0976 11.6834 14.7071 11.2929C14.3166 10.9024 13.6834 10.9024 13.2929 11.2929L12 12.5858L10.7071 11.2929Z" fill="#0000CC"/>
</svg>
