<svg width="24" height="24" viewBox="0 0 24 24" fill="none" xmlns="http://www.w3.org/2000/svg">
<path opacity="0.3" fill-rule="evenodd" clip-rule="evenodd" d="M12 2C6.47715 2 2 6.47715 2 12C2 17.5228 6.47715 22 12 22C17.5228 22 22 17.5228 22 12C22 6.47715 17.5228 2 12 2Z" fill="#0000CC"/>
<path fill-rule="evenodd" clip-rule="evenodd" d="M13.0002 7C13.0002 6.44772 12.5524 6 12.0002 6C11.4479 6 11.0002 6.44772 11.0002 7V10.2338L10.0146 9.64251C9.54107 9.35836 8.92681 9.51192 8.64266 9.9855C8.35851 10.4591 8.51207 11.0733 8.98566 11.3575L11.4857 12.8575C11.7946 13.0429 12.1793 13.0477 12.4928 12.8702C12.8064 12.6927 13.0002 12.3603 13.0002 12V7Z" fill="#0000CC"/>
</svg>
