<svg width="24" height="24" viewBox="0 0 24 24" fill="none" xmlns="http://www.w3.org/2000/svg">
<path opacity="0.3" fill-rule="evenodd" clip-rule="evenodd" d="M12 3.5C7.02944 3.5 3 7.52944 3 12.5C3 17.4706 7.02944 21.5 12 21.5C16.9706 21.5 21 17.4706 21 12.5C21 7.52944 16.9706 3.5 12 3.5Z" fill="#0000CC"/>
<path d="M4.29289 2.79289C4.68342 2.40237 5.31658 2.40237 5.70711 2.79289C6.09763 3.18342 6.09763 3.81658 5.70711 4.20711L3.70711 6.20711C3.31658 6.59763 2.68342 6.59763 2.29289 6.20711C1.90237 5.81658 1.90237 5.18342 2.29289 4.79289L4.29289 2.79289Z" fill="#0000CC"/>
<path d="M18.2929 2.79289C18.6834 2.40237 19.3166 2.40237 19.7071 2.79289L21.7071 4.79289C22.0976 5.18342 22.0976 5.81658 21.7071 6.20711C21.3166 6.59763 20.6834 6.59763 20.2929 6.20711L18.2929 4.20711C17.9024 3.81658 17.9024 3.18342 18.2929 2.79289Z" fill="#0000CC"/>
<path d="M10 11.5C9.44774 11.5 9.00003 11.0523 9.00003 10.5C9.00003 9.94772 9.44774 9.5 10 9.5H14C14.4045 9.5 14.7691 9.74364 14.9239 10.1173C15.0787 10.491 14.9931 10.9211 14.7071 11.2071L12.4142 13.5H14C14.5523 13.5 15 13.9477 15 14.5C15 15.0523 14.5523 15.5 14 15.5H10C9.59557 15.5 9.23093 15.2564 9.07615 14.8827C8.92137 14.509 9.00692 14.0789 9.29292 13.7929L11.5858 11.5H10Z" fill="#0000CC"/>
</svg>
