<svg width="24" height="24" viewBox="0 0 24 24" fill="none" xmlns="http://www.w3.org/2000/svg">
<path opacity="0.3" fill-rule="evenodd" clip-rule="evenodd" d="M14.5 4.5C14.5 4.78492 14.4523 5.05872 14.3645 5.31384C18.1881 6.3522 21 9.84772 21 14C21 14.6874 20.9229 15.3568 20.777 16H3.22302C3.07706 15.3568 3 14.6874 3 14C3 9.84772 5.81195 6.3522 9.63545 5.31383C9.54766 5.05871 9.5 4.78492 9.5 4.5C9.5 3.11929 10.6193 2 12 2C13.3807 2 14.5 3.11929 14.5 4.5ZM12 8C11.4477 8 11 8.44772 11 9C11 9.55228 11.4477 10 12 10C13.1156 10 13.9217 10.2222 14.5384 10.6017C15.1539 10.9804 15.6662 11.5686 16.1056 12.4472C16.3526 12.9412 16.9532 13.1414 17.4472 12.8944C17.9412 12.6474 18.1414 12.0468 17.8944 11.5528C17.3338 10.4314 16.5961 9.51955 15.5866 8.89834C14.5783 8.27785 13.3844 8 12 8Z" fill="#0000CC"/>
<path d="M4 18C2.89543 18 2 18.8954 2 20C2 21.1046 2.89543 22 4 22H20C21.1046 22 22 21.1046 22 20C22 18.8954 21.1046 18 20 18H4Z" fill="#0000CC"/>
</svg>
