<svg width="24" height="24" viewBox="0 0 24 24" fill="none" xmlns="http://www.w3.org/2000/svg">
<path opacity="0.3" fill-rule="evenodd" clip-rule="evenodd" d="M12 3.5C7.02944 3.5 3 7.52944 3 12.5C3 17.4706 7.02944 21.5 12 21.5C16.9706 21.5 21 17.4706 21 12.5C21 7.52944 16.9706 3.5 12 3.5Z" fill="#0000CC"/>
<path d="M4.29289 2.79289C4.68342 2.40237 5.31658 2.40237 5.70711 2.79289C6.09763 3.18342 6.09763 3.81658 5.70711 4.20711L3.70711 6.20711C3.31658 6.59763 2.68342 6.59763 2.29289 6.20711C1.90237 5.81658 1.90237 5.18342 2.29289 4.79289L4.29289 2.79289Z" fill="#0000CC"/>
<path d="M18.2929 2.79289C18.6834 2.40237 19.3166 2.40237 19.7071 2.79289L21.7071 4.79289C22.0976 5.18342 22.0976 5.81658 21.7071 6.20711C21.3166 6.59763 20.6834 6.59763 20.2929 6.20711L18.2929 4.20711C17.9024 3.81658 17.9024 3.18342 18.2929 2.79289Z" fill="#0000CC"/>
<path d="M8.29289 8.79289C8.68342 8.40237 9.31658 8.40237 9.70711 8.79289L12 11.0858L14.2929 8.79289C14.6834 8.40237 15.3166 8.40237 15.7071 8.79289C16.0976 9.18342 16.0976 9.81658 15.7071 10.2071L13.4142 12.5L15.7071 14.7929C16.0976 15.1834 16.0976 15.8166 15.7071 16.2071C15.3166 16.5976 14.6834 16.5976 14.2929 16.2071L12 13.9142L9.70711 16.2071C9.31658 16.5976 8.68342 16.5976 8.29289 16.2071C7.90237 15.8166 7.90237 15.1834 8.29289 14.7929L10.5858 12.5L8.29289 10.2071C7.90237 9.81658 7.90237 9.18342 8.29289 8.79289Z" fill="#0000CC"/>
</svg>
