<svg width="24" height="24" viewBox="0 0 24 24" fill="none" xmlns="http://www.w3.org/2000/svg">
<path opacity="0.3" fill-rule="evenodd" clip-rule="evenodd" d="M12 2C6.47715 2 2 6.47715 2 12C2 17.5228 6.47715 22 12 22C17.5228 22 22 17.5228 22 12C22 6.47715 17.5228 2 12 2Z" fill="#0000CC"/>
<path fill-rule="evenodd" clip-rule="evenodd" d="M13.0002 12.0001C13.0002 11.5506 12.7003 11.1564 12.2671 11.0364C11.8339 10.9164 11.3739 11.1002 11.1427 11.4856L9.64266 13.9856C9.35851 14.4592 9.51207 15.0734 9.98566 15.3576C10.3081 15.5511 10.6959 15.5416 11.0002 15.3663V17.0001C11.0002 17.5524 11.4479 18.0001 12.0002 18.0001C12.5524 18.0001 13.0002 17.5524 13.0002 17.0001V12.0001Z" fill="#0000CC"/>
</svg>
