<svg width="24" height="24" viewBox="0 0 24 24" fill="none" xmlns="http://www.w3.org/2000/svg">
<g opacity="0.3">
<path fill-rule="evenodd" clip-rule="evenodd" d="M13 4C17.9706 4 22 8.02944 22 13C22 17.9706 17.9706 22 13 22C10.8567 22 8.88839 21.2508 7.34267 20H10C11.1046 20 12 19.1046 12 18C12 16.8954 11.1046 16 10 16H9.73244C9.90261 15.7058 10 15.3643 10 15C10 13.8954 9.10457 13 8 13H4C4 8.02944 8.02944 4 13 4ZM13 8C12.4477 8 12 8.44772 12 9V13C12 13.5523 12.4477 14 13 14C13.5523 14 14 13.5523 14 13V9C14 8.44772 13.5523 8 13 8Z" fill="#0000CC"/>
<path d="M10 3C10 2.44772 10.4477 2 11 2H15C15.5523 2 16 2.44772 16 3C16 3.55228 15.5523 4 15 4H13H11C10.4477 4 10 3.55228 10 3Z" fill="#0000CC"/>
</g>
<path d="M3 14C2.44772 14 2 14.4477 2 15C2 15.5523 2.44772 16 3 16H8C8.55228 16 9 15.5523 9 15C9 14.4477 8.55229 14 8 14H3Z" fill="#0000CC"/>
<path d="M5 17C4.44772 17 4 17.4477 4 18C4 18.5523 4.44772 19 5 19H10C10.5523 19 11 18.5523 11 18C11 17.4477 10.5523 17 10 17H5Z" fill="#0000CC"/>
</svg>
