<svg width="24" height="24" viewBox="0 0 24 24" fill="none" xmlns="http://www.w3.org/2000/svg">
<path opacity="0.3" fill-rule="evenodd" clip-rule="evenodd" d="M12 2C6.47715 2 2 6.47715 2 12C2 17.5228 6.47715 22 12 22C17.5228 22 22 17.5228 22 12C22 6.47715 17.5228 2 12 2Z" fill="#0000CC"/>
<path fill-rule="evenodd" clip-rule="evenodd" d="M15.0145 11.3576C15.4881 11.0735 15.6416 10.4592 15.3575 9.98566C15.0733 9.51207 14.4591 9.35851 13.9855 9.64266L11.4855 11.1427C11.1843 11.3234 11 11.6489 11 12.0002V17.0002C11 17.5524 11.4477 18.0002 12 18.0002C12.5523 18.0002 13 17.5524 13 17.0002V12.5663L15.0145 11.3576Z" fill="#0000CC"/>
</svg>
