<svg width="24" height="24" viewBox="0 0 24 24" fill="none" xmlns="http://www.w3.org/2000/svg">
<path opacity="0.3" fill-rule="evenodd" clip-rule="evenodd" d="M12 2C6.47715 2 2 6.47715 2 12C2 17.5228 6.47715 22 12 22C17.5228 22 22 17.5228 22 12C22 6.47715 17.5228 2 12 2Z" fill="#0000CC"/>
<path fill-rule="evenodd" clip-rule="evenodd" d="M13.0002 7C13.0002 6.44772 12.5524 6 12.0002 6C11.4479 6 11.0002 6.44772 11.0002 7V11.4338L8.98566 12.6425C8.51207 12.9267 8.35851 13.5409 8.64266 14.0145C8.92681 14.4881 9.54107 14.6416 10.0146 14.3575L12.5146 12.8575C12.8159 12.6768 13.0002 12.3513 13.0002 12V7Z" fill="#0000CC"/>
</svg>
