<svg width="24" height="24" viewBox="0 0 24 24" fill="none" xmlns="http://www.w3.org/2000/svg">
<g opacity="0.3">
<path d="M21.0003 4C18.9136 4 16.9963 4.62366 15.4462 5.6702C14.6859 5.34652 13.8691 5.1317 13.0176 5.04427C15.0804 3.15442 17.9041 2 21.0003 2C21.5526 2 22.0003 2.44772 22.0003 3C22.0003 3.55228 21.5526 4 21.0003 4Z" fill="#0000CC"/>
<path d="M18.1645 7.53311C19.0172 7.19338 19.9773 7 21.0002 7C21.5525 7 22.0002 6.55228 22.0002 6C22.0002 5.44772 21.5525 5 21.0002 5C19.322 5 17.7428 5.419 16.4078 6.15483C17.0543 6.53467 17.6455 6.99883 18.1645 7.53311Z" fill="#0000CC"/>
<path d="M19.8736 10.1503C20.2146 10.055 20.593 10 21.0001 10C21.5524 10 22.0001 9.55228 22.0001 9C22.0001 8.44772 21.5524 8 21.0001 8C20.2565 8 19.5334 8.13008 18.8778 8.37333C19.2801 8.9173 19.6162 9.51314 19.8736 10.1503Z" fill="#0000CC"/>
</g>
<path d="M11.8296 7.00822C11.9361 7.00276 12.0433 7 12.151 7C15.287 7 17.9188 9.25002 18.3854 12.2293C19.9621 13.1514 21 14.9217 21 16.8185C21 19.6954 18.6341 22 15.75 22L8.1 22C4.75585 22 2 19.3523 2 16.0315C2 13.4191 3.83033 11.043 6.56478 10.3692C7.56966 8.49107 9.53191 7.12597 11.8296 7.00822Z" fill="#0000CC"/>
</svg>
