<svg width="24" height="24" viewBox="0 0 24 24" fill="none" xmlns="http://www.w3.org/2000/svg">
<path opacity="0.3" fill-rule="evenodd" clip-rule="evenodd" d="M12.6893 4C10.1141 4 7.90376 5.51707 6.80892 7.62107C3.91761 8.33361 2 10.877 2 13.6493C2 17.1653 4.87404 20 8.4 20L16.5 20C19.5382 20 22 17.5355 22 14.4969C22 12.4783 20.9071 10.5857 19.2384 9.60789C18.7677 6.42894 16.0089 4 12.6893 4Z" fill="#0000CC"/>
<path fill-rule="evenodd" clip-rule="evenodd" d="M10.2071 10.2929C9.81658 9.90237 9.18342 9.90237 8.79289 10.2929C8.40237 10.6834 8.40237 11.3166 8.79289 11.7071L10.5858 13.5L8.79289 15.2929C8.40237 15.6834 8.40237 16.3166 8.79289 16.7071C9.18342 17.0976 9.81658 17.0976 10.2071 16.7071L12 14.9142L13.7929 16.7071C14.1834 17.0976 14.8166 17.0976 15.2071 16.7071C15.5976 16.3166 15.5976 15.6834 15.2071 15.2929L13.4142 13.5L15.2071 11.7071C15.5976 11.3166 15.5976 10.6834 15.2071 10.2929C14.8166 9.90237 14.1834 9.90237 13.7929 10.2929L12 12.0858L10.2071 10.2929Z" fill="#0000CC"/>
</svg>
