<svg width="24" height="24" viewBox="0 0 24 24" fill="none" xmlns="http://www.w3.org/2000/svg">
<path opacity="0.3" fill-rule="evenodd" clip-rule="evenodd" d="M7.32159 5.1171C8.32966 3.29155 10.3194 2 12.6127 2C15.5626 2 18.0685 4.06975 18.5317 6.85019C20.0163 7.71575 21 9.36366 21 11.1402C21 13.8575 18.7275 16 16 16L8.8 16C5.64015 16 3 13.5413 3 10.4137C3 7.95928 4.74492 5.75122 7.32159 5.1171Z" fill="#0000CC"/>
<path d="M8.44743 17.1055C8.94141 17.3525 9.14164 17.9532 8.89465 18.4472L7.39465 21.4472C7.14766 21.9412 6.54698 22.1414 6.05301 21.8944C5.55903 21.6474 5.3588 21.0467 5.60579 20.5528L7.10579 17.5528C7.35278 17.0588 7.95345 16.8586 8.44743 17.1055Z" fill="#0000CC"/>
<path d="M12.4474 17.1055C12.9414 17.3525 13.1416 17.9532 12.8946 18.4472L11.3946 21.4472C11.1477 21.9412 10.547 22.1414 10.053 21.8944C9.55903 21.6474 9.3588 21.0467 9.60579 20.5528L11.1058 17.5528C11.3528 17.0588 11.9535 16.8586 12.4474 17.1055Z" fill="#0000CC"/>
<path d="M16.4474 17.1055C16.9414 17.3525 17.1416 17.9532 16.8946 18.4472L15.3946 21.4472C15.1477 21.9412 14.547 22.1414 14.053 21.8944C13.559 21.6474 13.3588 21.0467 13.6058 20.5528L15.1058 17.5528C15.3528 17.0588 15.9535 16.8586 16.4474 17.1055Z" fill="#0000CC"/>
</svg>
