<svg width="24" height="24" viewBox="0 0 24 24" fill="none" xmlns="http://www.w3.org/2000/svg">
<path opacity="0.3" d="M12.6893 2C10.1141 2 7.90376 3.51707 6.80892 5.62107C3.91761 6.33361 2 8.87702 2 11.6493C2 15.1653 4.87404 18 8.4 18H8.5C8.77614 18 9 17.7761 9 17.5C9 17.2238 8.77456 17.0042 8.50215 16.9586C7.90787 16.8592 7.33766 16.5803 6.87868 16.1213C5.70711 14.9497 5.70711 13.0503 6.87868 11.8787L9.87868 8.87868C11.0503 7.70711 12.9497 7.70711 14.1213 8.87868L17.1213 11.8787C18.2929 13.0503 18.2929 14.9497 17.1213 16.1213C16.6623 16.5803 16.0921 16.8592 15.4978 16.9586C15.2254 17.0042 15 17.2238 15 17.5C15 17.7761 15.2239 18 15.5 18L16.5 18C19.5382 18 22 15.5355 22 12.4969C22 10.4783 20.9071 8.58575 19.2384 7.60789C18.7677 4.42894 16.0089 2 12.6893 2Z" fill="#0000CC"/>
<path d="M13 21C13 21.5523 12.5523 22 12 22C11.4477 22 11 21.5523 11 21V13.4142L9.70711 14.7071C9.31658 15.0976 8.68342 15.0976 8.29289 14.7071C7.90237 14.3166 7.90237 13.6834 8.29289 13.2929L11.2929 10.2929C11.6834 9.90237 12.3166 9.90237 12.7071 10.2929L15.7071 13.2929C16.0976 13.6834 16.0976 14.3166 15.7071 14.7071C15.3166 15.0976 14.6834 15.0976 14.2929 14.7071L13 13.4142V21Z" fill="#0000CC"/>
</svg>
