<svg width="24" height="24" viewBox="0 0 24 24" fill="none" xmlns="http://www.w3.org/2000/svg">
<path opacity="0.3" d="M22 9C22 10.2768 21.6011 11.4605 20.9213 12.4332C20.4894 11.7479 19.9417 11.1392 19.3036 10.6407C18.3328 7.31031 15.18 5 11.6126 5C11.5842 5 11.5557 5.00015 11.5273 5.00045C12.626 3.77269 14.2227 3 16 3C19.3137 3 22 5.68629 22 9Z" fill="#0000CC"/>
<path d="M6.32159 10.1171C7.32966 8.29155 9.31942 7 11.6127 7C14.5626 7 17.0685 9.06974 17.5317 11.8502C19.0163 12.7158 20 14.3637 20 16.1402C20 18.8575 17.7275 21 15 21L7.8 21C4.64015 21 2 18.5413 2 15.4137C2 12.9593 3.74492 10.7512 6.32159 10.1171Z" fill="#0000CC"/>
</svg>
