<svg width="24" height="24" viewBox="0 0 24 24" fill="none" xmlns="http://www.w3.org/2000/svg">
<path opacity="0.3" d="M18.5005 2C14.8403 2 11.7924 4.62202 11.1328 8.09023C13.7794 8.5151 15.9678 10.402 16.7495 12.9333C17.9506 13.9486 18.7469 15.4068 18.9496 16.9868C19.8071 16.936 20.6274 16.7409 21.3854 16.4248C21.7579 16.2695 22.0005 15.9054 22.0005 15.5018C22.0005 15.0982 21.7579 14.7342 21.3854 14.5789C19.3959 13.7492 18.0005 11.7864 18.0005 9.5C18.0005 7.21618 19.3975 5.2537 21.3861 4.42268C21.7584 4.26711 22.0007 3.90309 22.0005 3.49963C22.0004 3.09617 21.7578 2.73233 21.3854 2.57704C20.4974 2.20671 19.5223 2 18.5005 2Z" fill="#0000CC"/>
<path d="M5.56694 12.625C6.42354 11.0914 8.07836 10 9.9978 10C12.4765 10 14.5614 11.7624 14.9802 14.1123C16.206 14.8787 17 16.2843 17 17.7835C17 20.1219 15.0874 22 12.75 22L6.9 22C4.21296 22 2 19.8601 2 17.1781C2 15.0963 3.42714 13.2024 5.56694 12.625Z" fill="#0000CC"/>
</svg>
