<svg width="24" height="24" viewBox="0 0 24 24" fill="none" xmlns="http://www.w3.org/2000/svg">
<path opacity="0.3" d="M12.6893 2C10.1141 2 7.90376 3.51707 6.80892 5.62107C3.91761 6.33361 2 8.87702 2 11.6493C2 14.5985 4.02209 17.0683 6.7549 17.788C6.88296 17.4984 7.05551 17.2328 7.26389 17C6.78885 16.4692 6.5 15.7684 6.5 15C6.5 13.3431 7.84315 12 9.5 12C10.808 12 11.9204 12.837 12.3309 14.0047C12.3869 14.0016 12.4433 14 12.5 14C12.5567 14 12.6131 14.0016 12.6691 14.0047C13.0796 12.837 14.192 12 15.5 12C17.1569 12 18.5 13.3431 18.5 15C18.5 15.7684 18.2111 16.4692 17.7361 17C17.9297 17.2162 18.0923 17.4607 18.2171 17.7265C20.4141 17.0048 22 14.9358 22 12.4969C22 10.4783 20.9071 8.58575 19.2384 7.60789C18.7677 4.42894 16.0089 2 12.6893 2Z" fill="#0000CC"/>
<path d="M10.5 15C10.5 15.5523 10.0523 16 9.5 16C8.94771 16 8.5 15.5523 8.5 15C8.5 14.4477 8.94771 14 9.5 14C10.0523 14 10.5 14.4477 10.5 15Z" fill="#0000CC"/>
<path d="M16.5 15C16.5 15.5523 16.0523 16 15.5 16C14.9477 16 14.5 15.5523 14.5 15C14.5 14.4477 14.9477 14 15.5 14C16.0523 14 16.5 14.4477 16.5 15Z" fill="#0000CC"/>
<path d="M13.5 17C13.5 17.5523 13.0523 18 12.5 18C11.9477 18 11.5 17.5523 11.5 17C11.5 16.4477 11.9477 16 12.5 16C13.0523 16 13.5 16.4477 13.5 17Z" fill="#0000CC"/>
<path d="M10.5 19C10.5 19.5523 10.0523 20 9.5 20C8.94771 20 8.5 19.5523 8.5 19C8.5 18.4477 8.94771 18 9.5 18C10.0523 18 10.5 18.4477 10.5 19Z" fill="#0000CC"/>
<path d="M16.5 19C16.5 19.5523 16.0523 20 15.5 20C14.9477 20 14.5 19.5523 14.5 19C14.5 18.4477 14.9477 18 15.5 18C16.0523 18 16.5 18.4477 16.5 19Z" fill="#0000CC"/>
<path d="M13.5 21C13.5 21.5523 13.0523 22 12.5 22C11.9477 22 11.5 21.5523 11.5 21C11.5 20.4477 11.9477 20 12.5 20C13.0523 20 13.5 20.4477 13.5 21Z" fill="#0000CC"/>
</svg>
