<svg width="24" height="24" viewBox="0 0 24 24" fill="none" xmlns="http://www.w3.org/2000/svg">
<path opacity="0.3" fill-rule="evenodd" clip-rule="evenodd" d="M7.32159 5.1171C8.32966 3.29155 10.3194 2 12.6127 2C15.5626 2 18.0685 4.06975 18.5317 6.85019C20.0163 7.71575 21 9.36366 21 11.1402C21 13.8575 18.7275 16 16 16L8.8 16C5.64015 16 3 13.5413 3 10.4137C3 7.95928 4.74492 5.75122 7.32159 5.1171Z" fill="#0000CC"/>
<path d="M10 18C10 18.5523 9.55229 19 9 19C8.44771 19 8 18.5523 8 18C8 17.4477 8.44771 17 9 17C9.55229 17 10 17.4477 10 18Z" fill="#0000CC"/>
<path d="M12 19C12.5523 19 13 18.5523 13 18C13 17.4477 12.5523 17 12 17C11.4477 17 11 17.4477 11 18C11 18.5523 11.4477 19 12 19Z" fill="#0000CC"/>
<path d="M16 18C16 18.5523 15.5523 19 15 19C14.4477 19 14 18.5523 14 18C14 17.4477 14.4477 17 15 17C15.5523 17 16 17.4477 16 18Z" fill="#0000CC"/>
<path d="M15 21.5C15.5523 21.5 16 21.0523 16 20.5C16 19.9477 15.5523 19.5 15 19.5C14.4477 19.5 14 19.9477 14 20.5C14 21.0523 14.4477 21.5 15 21.5Z" fill="#0000CC"/>
<path d="M10 20.5C10 21.0523 9.55229 21.5 9 21.5C8.44771 21.5 8 21.0523 8 20.5C8 19.9477 8.44771 19.5 9 19.5C9.55229 19.5 10 19.9477 10 20.5Z" fill="#0000CC"/>
<path d="M12 22C12.5523 22 13 21.5523 13 21C13 20.4477 12.5523 20 12 20C11.4477 20 11 20.4477 11 21C11 21.5523 11.4477 22 12 22Z" fill="#0000CC"/>
</svg>
