<svg width="24" height="24" viewBox="0 0 24 24" fill="none" xmlns="http://www.w3.org/2000/svg">
<path opacity="0.3" d="M11 13V14.126C9.59439 14.4878 8.4878 15.5944 8.12602 17H3C2.44772 17 2 17.4477 2 18C2 18.5523 2.44772 19 3 19H8.12602C8.57006 20.7252 10.1362 22 12 22C13.8638 22 15.4299 20.7252 15.874 19H21C21.5523 19 22 18.5523 22 18C22 17.4477 21.5523 17 21 17H15.874C15.5122 15.5944 14.4056 14.4878 13 14.126V13L11 13Z" fill="#0000CC"/>
<path d="M8.32611 4.37228C9.14004 2.9769 10.6847 2 12.4595 2C14.7472 2 16.7085 3.57888 17.1249 5.73213C18.2581 6.43997 19 7.72329 19 9.10513C19 11.2895 17.1752 13 15 13L9.6 13C7.10289 13 5 11.0547 5 8.56026C5 6.63195 6.3454 4.90758 8.32611 4.37228Z" fill="#0000CC"/>
</svg>
