<svg width="24" height="24" viewBox="0 0 24 24" fill="none" xmlns="http://www.w3.org/2000/svg">
<g opacity="0.3">
<path d="M6.34079 7.75501C3.71245 8.61411 2 11.0295 2 13.6493C2 17.1653 4.87404 20 8.4 20L16.5 20C17.1261 20 17.7277 19.8953 18.2883 19.7026L6.34079 7.75501Z" fill="#0000CC"/>
<path d="M21.3354 17.1214C21.7592 16.3412 22 15.4471 22 14.4969C22 12.4783 20.9071 10.5857 19.2384 9.60789C18.7677 6.42894 16.0089 4 12.6893 4C11.4125 4 10.2254 4.37293 9.21945 5.00543L21.3354 17.1214Z" fill="#0000CC"/>
</g>
<path fill-rule="evenodd" clip-rule="evenodd" d="M2.29289 2.29289C2.68342 1.90237 3.31658 1.90237 3.70711 2.29289L21.7071 20.2929C22.0976 20.6834 22.0976 21.3166 21.7071 21.7071C21.3166 22.0976 20.6834 22.0976 20.2929 21.7071L2.29289 3.70711C1.90237 3.31658 1.90237 2.68342 2.29289 2.29289Z" fill="#0000CC"/>
</svg>
