<svg width="24" height="24" viewBox="0 0 24 24" fill="none" xmlns="http://www.w3.org/2000/svg">
<path opacity="0.3" fill-rule="evenodd" clip-rule="evenodd" d="M7.32159 5.1171C8.32966 3.29155 10.3194 2 12.6127 2C15.5626 2 18.0685 4.06975 18.5317 6.85019C20.0163 7.71575 21 9.36366 21 11.1402C21 13.8575 18.7275 16 16 16L8.8 16C5.64015 16 3 13.5413 3 10.4137C3 7.95928 4.74492 5.75122 7.32159 5.1171Z" fill="#0000CC"/>
<path d="M2 18C2 17.4477 2.44772 17 3 17H7C7.55228 17 8 17.4477 8 18C8 18.5523 7.55228 19 7 19H3C2.44772 19 2 18.5523 2 18Z" fill="#0000CC"/>
<path d="M9 18C9 17.4477 9.44772 17 10 17H21C21.5523 17 22 17.4477 22 18C22 18.5523 21.5523 19 21 19H10C9.44772 19 9 18.5523 9 18Z" fill="#0000CC"/>
<path d="M4 21C4 20.4477 4.44772 20 5 20H12C12.5523 20 13 20.4477 13 21C13 21.5523 12.5523 22 12 22H5C4.44772 22 4 21.5523 4 21Z" fill="#0000CC"/>
<path d="M15 21C15 20.4477 15.4477 20 16 20H19C19.5523 20 20 20.4477 20 21C20 21.5523 19.5523 22 19 22H16C15.4477 22 15 21.5523 15 21Z" fill="#0000CC"/>
</svg>
