<svg width="24" height="24" viewBox="0 0 24 24" fill="none" xmlns="http://www.w3.org/2000/svg">
<path opacity="0.3" fill-rule="evenodd" clip-rule="evenodd" d="M6.13553 6.72688C6.71979 4.02436 9.12284 2 12 2C14.8772 2 17.2802 4.02436 17.8645 6.72689C19.731 7.74285 21 9.72226 21 12C21 15.3137 18.3137 18 15 18C13.9082 18 12.8829 17.7076 12 17.1971C11.1171 17.7076 10.0918 18 9 18C5.68629 18 3 15.3137 3 12C3 9.72226 4.26904 7.74285 6.13553 6.72688Z" fill="#0000CC"/>
<path d="M11 17.6583L11 19.9999H9C8.44772 19.9999 8 20.4476 8 20.9999C8 21.5522 8.44772 21.9999 9 21.9999H15C15.5523 21.9999 16 21.5522 16 20.9999C16 20.4476 15.5523 19.9999 15 19.9999H13L13 17.6583C12.6507 17.5348 12.3162 17.3799 12 17.1971C11.6838 17.3799 11.3493 17.5348 11 17.6583Z" fill="#0000CC"/>
</svg>
