<svg width="24" height="24" viewBox="0 0 24 24" fill="none" xmlns="http://www.w3.org/2000/svg">
<path opacity="0.3" d="M4.5 8.85523V15.1451C4.81685 15.0508 5.15251 15.0002 5.5 15.0002C5.84749 15.0002 6.18315 15.0508 6.5 15.1451V15.0002C6.5 13.8956 7.39543 13.0002 8.5 13.0002L14.6376 13.0002C15.433 13.0006 16.0236 13.001 16.5353 12.8639C17.9156 12.494 18.9938 11.4158 19.3637 10.0354C19.456 9.69105 19.486 9.31086 19.4956 8.85653C19.1801 8.95 18.8459 9.00017 18.5 9.00017C18.1504 9.00017 17.8128 8.94892 17.4943 8.85352C17.4866 9.20753 17.4693 9.3782 17.4319 9.51781C17.2469 10.208 16.7078 10.7471 16.0176 10.932C15.7954 10.9916 15.4944 11.0002 14.5 11.0002H8.5C7.77143 11.0002 7.08835 11.195 6.5 11.5353V8.85523C6.18315 8.94953 5.84749 9.00017 5.5 9.00017C5.15251 9.00017 4.81685 8.94953 4.5 8.85523Z" fill="#0000CC"/>
<path fill-rule="evenodd" clip-rule="evenodd" d="M2 5.5C2 3.567 3.567 2 5.5 2C7.433 2 9 3.567 9 5.5C9 7.433 7.433 9 5.5 9C3.567 9 2 7.433 2 5.5ZM15 5.5C15 3.567 16.567 2 18.5 2C20.433 2 22 3.567 22 5.5C22 7.433 20.433 9 18.5 9C16.567 9 15 7.433 15 5.5ZM2 18.5C2 16.567 3.567 15 5.5 15C7.433 15 9 16.567 9 18.5C9 20.433 7.433 22 5.5 22C3.567 22 2 20.433 2 18.5Z" fill="#0000CC"/>
</svg>
