<svg width="24" height="24" viewBox="0 0 24 24" fill="none" xmlns="http://www.w3.org/2000/svg">
<path opacity="0.3" d="M14.2929 7.29288C14.6834 6.90236 15.3166 6.90237 15.7071 7.29291L19.707 11.2929C20.0975 11.6834 20.0975 12.3166 19.707 12.7071L15.7071 16.7071C15.3166 17.0976 14.6834 17.0976 14.2929 16.7071C13.9024 16.3166 13.9024 15.6834 14.2929 15.2929L17.5857 12L14.2929 8.70709C13.9024 8.31656 13.9024 7.6834 14.2929 7.29288Z" fill="#0000CC"/>
<path fill-rule="evenodd" clip-rule="evenodd" d="M9.70727 7.29291C10.0978 7.68344 10.0978 8.3166 9.70724 8.70712L6.41424 12L9.70724 15.2929C10.0978 15.6834 10.0978 16.3166 9.70727 16.7071C9.31675 17.0976 8.68359 17.0976 8.29306 16.7071L4.29291 12.7071C4.10536 12.5196 4 12.2652 4 12C4 11.7348 4.10536 11.4804 4.29291 11.2929L8.29306 7.29288C8.68359 6.90236 9.31675 6.90237 9.70727 7.29291Z" fill="#0000CC"/>
</svg>
