<svg width="24" height="24" viewBox="0 0 24 24" fill="none" xmlns="http://www.w3.org/2000/svg">
<path opacity="0.3" d="M6.61395 8.81885C6.26404 8.93624 5.88945 8.99985 5.5 8.99985C5.15251 8.99985 4.81685 8.94921 4.5 8.85491V15.1448C4.81685 15.0505 5.15251 14.9998 5.5 14.9998C5.84749 14.9998 6.18315 15.0505 6.5 15.1448V11.9999C7.08697 12.4403 7.77484 12.7546 8.52459 12.9038C9.00939 13.0002 9.56667 13.0001 10.3843 12.9999L15.1449 12.9999C15.0506 12.683 15 12.3473 15 11.9998C15 11.6524 15.0506 11.3167 15.1449 10.9998H10.5C9.5228 10.9998 9.18021 10.995 8.91477 10.9422C7.80379 10.7212 6.91922 9.89579 6.61395 8.81885Z" fill="#0000CC"/>
<path d="M9 5.5C9 7.433 7.433 9 5.5 9C3.567 9 2 7.433 2 5.5C2 3.567 3.567 2 5.5 2C7.433 2 9 3.567 9 5.5Z" fill="#0000CC"/>
<path d="M9 18.5C9 20.433 7.433 22 5.5 22C3.567 22 2 20.433 2 18.5C2 16.567 3.567 15 5.5 15C7.433 15 9 16.567 9 18.5Z" fill="#0000CC"/>
<path d="M18.5 15.5C20.433 15.5 22 13.933 22 12C22 10.067 20.433 8.5 18.5 8.5C16.567 8.5 15 10.067 15 12C15 13.933 16.567 15.5 18.5 15.5Z" fill="#0000CC"/>
</svg>
