<svg width="24" height="24" viewBox="0 0 24 24" fill="none" xmlns="http://www.w3.org/2000/svg">
<g opacity="0.3">
<path d="M15 8C17.7614 8 20 6.88071 20 5.5C20 4.11929 17.7614 3 15 3C12.2386 3 10 4.11929 10 5.5C10 5.68985 10.0423 5.87476 10.1225 6.0525C11.3369 6.1673 12.4811 6.46895 13.43 6.94338C13.911 7.18391 14.4542 7.53252 14.9169 7.99966C14.9445 7.99989 14.9722 8 15 8Z" fill="#0000CC"/>
<path d="M16 11.95V10.5C16 9.92716 15.8616 9.42235 15.6374 8.98171C16.8981 8.90888 18.0648 8.62118 18.9827 8.16221C19.3368 7.9852 19.6902 7.76187 20 7.4917V9.50002C20 10.7095 18.2822 11.7184 16 11.95Z" fill="#0000CC"/>
<path d="M16 12.9546V15.95C18.2822 15.7184 20 14.7095 20 13.5V11.4917C19.6902 11.7619 19.3368 11.9852 18.9827 12.1622C18.1535 12.5768 17.1212 12.8517 16 12.9546Z" fill="#0000CC"/>
</g>
<path d="M9 13C11.7614 13 14 11.8807 14 10.5C14 9.11929 11.7614 8 9 8C6.23858 8 4 9.11929 4 10.5C4 11.8807 6.23858 13 9 13Z" fill="#0000CC"/>
<path d="M9 14C10.5023 14 11.9118 13.6977 12.9827 13.1622C13.3368 12.9852 13.6902 12.7619 14 12.4917V14.5C14 15.8807 11.7614 17 9 17C6.23858 17 4 15.8807 4 14.5V12.4917C4.30983 12.7619 4.66323 12.9852 5.01725 13.1622C6.08819 13.6977 7.49771 14 9 14Z" fill="#0000CC"/>
<path d="M12.9827 17.1622C11.9118 17.6977 10.5023 18 9 18C7.49771 18 6.08819 17.6977 5.01725 17.1622C4.66323 16.9852 4.30983 16.7619 4 16.4917V18.5C4 19.8807 6.23858 21 9 21C11.7614 21 14 19.8807 14 18.5V16.4917C13.6902 16.7619 13.3368 16.9852 12.9827 17.1622Z" fill="#0000CC"/>
</svg>
