<svg width="24" height="24" viewBox="0 0 24 24" fill="none" xmlns="http://www.w3.org/2000/svg">
<path opacity="0.3" fill-rule="evenodd" clip-rule="evenodd" d="M17.308 19.2781C17.8299 19.1219 18.3195 18.9425 18.7701 18.7422C19.6608 18.3464 20.4435 17.8491 21.0171 17.2464C21.5956 16.6385 22 15.8777 22 15V9.5C22 7.67453 20.5462 6.29108 18.8112 5.42359C17.0164 4.52619 14.6069 4 12 4C9.39314 4 6.98362 4.52619 5.18883 5.42359C3.45384 6.29108 2 7.67453 2 9.5V15C2 15.8777 2.40438 16.6385 2.98287 17.2464C3.55645 17.8491 4.33918 18.3464 5.2299 18.7422C5.68054 18.9425 6.17012 19.1219 6.69201 19.2781C6.7068 19.2829 6.72175 19.2873 6.73684 19.2914C8.27145 19.7453 10.0817 20 12 20C13.9183 20 15.7286 19.7453 17.2632 19.2914C17.2782 19.2873 17.2932 19.2829 17.308 19.2781ZM8.82045 7.50301C9.6829 7.17959 10.8073 7 12 7C13.1927 7 14.3171 7.17959 15.1796 7.50301C15.6071 7.66334 16.0225 7.87837 16.3491 8.16787C16.6744 8.45635 17 8.90421 17 9.5C17 10.0958 16.6744 10.5437 16.3491 10.8321C16.0225 11.1216 15.6071 11.3367 15.1796 11.497C14.3171 11.8204 13.1927 12 12 12C10.8073 12 9.6829 11.8204 8.82045 11.497C8.39292 11.3367 7.97747 11.1216 7.65093 10.8321C7.32556 10.5437 7 10.0958 7 9.5C7 8.90421 7.32556 8.45635 7.65093 8.16787C7.97747 7.87837 8.39292 7.66334 8.82045 7.50301ZM6 13.9401V16.8957C5.28378 16.5727 4.76247 16.2152 4.43166 15.8676C4.0993 15.5184 4 15.2269 4 15V12.8605C4.36901 13.1284 4.77076 13.3674 5.18883 13.5764C5.44692 13.7055 5.71772 13.8268 6 13.9401ZM18.8112 13.5764C19.2292 13.3674 19.631 13.1284 20 12.8605V15C20 15.2269 19.9007 15.5184 19.5683 15.8676C19.2375 16.2152 18.7162 16.5727 18 16.8957V13.9401C18.2823 13.8268 18.5531 13.7055 18.8112 13.5764ZM16 14.5606V17.5584C15.098 17.7723 14.0853 17.9182 13 17.9743V14.974C14.0527 14.9189 15.0625 14.7774 16 14.5606ZM11 17.9743V14.974C9.94734 14.9189 8.93754 14.7774 8 14.5606V17.5584C8.902 17.7723 9.91467 17.9182 11 17.9743Z" fill="#0000CC"/>
<path d="M18.8112 13.5764C19.2292 13.3674 19.631 13.1284 20 12.8605V15C20 15.2269 19.9007 15.5184 19.5683 15.8676C19.2375 16.2152 18.7162 16.5727 18 16.8957V13.9401C18.2823 13.8268 18.5531 13.7055 18.8112 13.5764Z" fill="#0000CC"/>
<path d="M16 14.5606V17.5584C15.098 17.7723 14.0853 17.9182 13 17.9743V14.974C14.0527 14.9189 15.0625 14.7774 16 14.5606Z" fill="#0000CC"/>
<path d="M11 14.974V17.9743C9.91467 17.9182 8.902 17.7723 8 17.5584V14.5606C8.93754 14.7774 9.94734 14.9189 11 14.974Z" fill="#0000CC"/>
<path d="M6 13.9401V16.8957C5.28378 16.5727 4.76247 16.2152 4.43166 15.8676C4.0993 15.5184 4 15.2269 4 15V12.8605C4.36901 13.1284 4.77076 13.3674 5.18883 13.5764C5.44692 13.7055 5.71772 13.8268 6 13.9401Z" fill="#0000CC"/>
<path d="M12 7C10.8073 7 9.6829 7.17959 8.82045 7.50301C8.39292 7.66334 7.97747 7.87837 7.65093 8.16787C7.32556 8.45635 7 8.90421 7 9.5C7 10.0958 7.32556 10.5437 7.65093 10.8321C7.97747 11.1216 8.39292 11.3367 8.82045 11.497C9.6829 11.8204 10.8073 12 12 12C13.1927 12 14.3171 11.8204 15.1796 11.497C15.6071 11.3367 16.0225 11.1216 16.3491 10.8321C16.6744 10.5437 17 10.0958 17 9.5C17 8.90421 16.6744 8.45635 16.3491 8.16787C16.0225 7.87837 15.6071 7.66334 15.1796 7.50301C14.3171 7.17959 13.1927 7 12 7Z" fill="#0000CC"/>
</svg>
