<svg width="24" height="24" viewBox="0 0 24 24" fill="none" xmlns="http://www.w3.org/2000/svg">
<g opacity="0.3">
<path d="M2.00169 8H21.9983C21.9902 6.83507 21.9434 6.16873 21.673 5.63803C21.3854 5.07354 20.9265 4.6146 20.362 4.32698C19.7202 4 18.8802 4 17.2 4H6.8C5.11984 4 4.27976 4 3.63803 4.32698C3.07354 4.6146 2.6146 5.07354 2.32698 5.63803C2.05658 6.16873 2.00979 6.83507 2.00169 8Z" fill="#0000CC"/>
<path d="M22 10H2V15.2C2 15.5596 2 15.8807 2.0032 16.1696C2.3152 16.0597 2.65083 16 3.00041 16L4.17078 16.0002C4.31524 15.5905 4.55136 15.2059 4.87912 14.8782C6.05093 13.7069 7.95042 13.7073 9.12176 14.8791L11.1218 16.8799C11.9653 17.7238 12.2011 18.9451 11.8295 20H17.2C18.8802 20 19.7202 20 20.362 19.673C20.9265 19.3854 21.3854 18.9265 21.673 18.362C22 17.7202 22 16.8802 22 15.2V10Z" fill="#0000CC"/>
</g>
<path d="M22 8H2V10H22V8Z" fill="#0000CC"/>
<path d="M6.29304 16.2927C6.68364 15.9023 7.31681 15.9024 7.70725 16.293L9.70725 18.2939C10.0977 18.6845 10.0976 19.3176 9.70696 19.7081L7.70696 21.7073C7.31636 22.0977 6.68319 22.0976 6.29275 21.707C5.9023 21.3164 5.90243 20.6832 6.29304 20.2927L6.58542 20.0005L2.99986 20C2.44758 19.9999 1.99992 19.5521 2 18.9999C2.00008 18.4476 2.44785 17.9999 3.00014 18L6.58616 18.0005L6.29275 17.707C5.9023 17.3164 5.90243 16.6832 6.29304 16.2927Z" fill="#0000CC"/>
</svg>
