<svg width="24" height="24" viewBox="0 0 24 24" fill="none" xmlns="http://www.w3.org/2000/svg">
<g opacity="0.3">
<path d="M6.16146 4H17.8385C18.3657 3.99998 18.8205 3.99997 19.195 4.03057C19.5904 4.06287 19.9836 4.13419 20.362 4.32698C20.9265 4.6146 21.3854 5.07355 21.673 5.63803C21.8658 6.01641 21.9371 6.40963 21.9694 6.80498C21.9969 7.14075 21.9997 7.54097 22 8H2.00003C2.00031 7.54097 2.00314 7.14075 2.03057 6.80498C2.06287 6.40963 2.13419 6.01641 2.32698 5.63803C2.6146 5.07355 3.07355 4.6146 3.63803 4.32698C4.01641 4.13419 4.40963 4.06287 4.80498 4.03057C5.17953 3.99997 5.63434 3.99998 6.16146 4Z" fill="#0000CC"/>
<path fill-rule="evenodd" clip-rule="evenodd" d="M2 10H22V15.8386C22 16.3657 22 16.8205 21.9694 17.195C21.9371 17.5904 21.8658 17.9836 21.673 18.362C21.3854 18.9265 20.9265 19.3854 20.362 19.673C19.9836 19.8658 19.5904 19.9371 19.195 19.9694C18.8205 20 18.3657 20 17.8386 20H6.16136C5.63428 20 5.17951 20 4.80498 19.9694C4.40963 19.9371 4.01641 19.8658 3.63803 19.673C3.07355 19.3854 2.6146 18.9265 2.32698 18.362C2.13419 17.9836 2.06287 17.5904 2.03057 17.195C1.99997 16.8205 1.99998 16.3657 2 15.8386V10Z" fill="#0000CC"/>
</g>
<path d="M2 10V8.16146C2 8.10687 2 8.05302 2.00003 8H22C22 8.05303 22 8.10684 22 8.16144V10H2Z" fill="#0000CC"/>
</svg>
