<svg width="24" height="24" viewBox="0 0 24 24" fill="none" xmlns="http://www.w3.org/2000/svg">
<g opacity="0.3">
<path d="M2.00169 8H21.9983C21.9902 6.83507 21.9434 6.16873 21.673 5.63803C21.3854 5.07354 20.9265 4.6146 20.362 4.32698C19.7202 4 18.8802 4 17.2 4H6.8C5.11984 4 4.27976 4 3.63803 4.32698C3.07354 4.6146 2.6146 5.07354 2.32698 5.63803C2.05658 6.16873 2.00979 6.83507 2.00169 8Z" fill="#0000CC"/>
<path d="M22 10H2V15.2C2 16.8802 2 17.7202 2.32698 18.362C2.6146 18.9265 3.07354 19.3854 3.63803 19.673C4.27976 20 5.11984 20 6.8 20H13.7639C13.2889 19.4692 13 18.7684 13 18C13 16.3431 14.3431 15 16 15H22V10Z" fill="#0000CC"/>
</g>
<path d="M22 8H2V10H22V8Z" fill="#0000CC"/>
<path d="M15 17.9999C15.0001 17.4476 15.4479 16.9999 16.0001 17L21.0001 17.0007C21.5524 17.0008 22.0001 17.4485 22 18.0008C21.9999 18.5531 21.5521 19.0008 20.9999 19.0007L15.9999 19C15.4476 18.9999 14.9999 18.5521 15 17.9999Z" fill="#0000CC"/>
</svg>
