<svg width="24" height="24" viewBox="0 0 24 24" fill="none" xmlns="http://www.w3.org/2000/svg">
<g opacity="0.3">
<path d="M6 2C6.55229 2 7 2.44772 7 3V14.8C7 15.3766 7.00078 15.7488 7.02393 16.0322C7.04613 16.3038 7.0838 16.4045 7.109 16.454C7.20487 16.6422 7.35785 16.7951 7.54601 16.891C7.59546 16.9162 7.69618 16.9539 7.96784 16.9761C8.25118 16.9992 8.62345 17 9.2 17H16V19H9.16144C8.6343 19 8.17954 19 7.80497 18.9694C7.40963 18.9371 7.01641 18.8658 6.63803 18.673C6.07355 18.3854 5.6146 17.9265 5.32698 17.362C5.13419 16.9836 5.06287 16.5904 5.03057 16.195C4.99997 15.8205 4.99998 15.3657 5 14.8385V3C5 2.44772 5.44772 2 6 2Z" fill="#0000CC"/>
<path d="M19 17V19H21C21.5523 19 22 18.5523 22 18C22 17.4477 21.5523 17 21 17H19Z" fill="#0000CC"/>
</g>
<path d="M14.8 7C15.3766 7 15.7488 7.00078 16.0322 7.02393C16.3038 7.04613 16.4045 7.0838 16.454 7.109C16.6422 7.20487 16.7951 7.35785 16.891 7.54601C16.9162 7.59546 16.9539 7.69617 16.9761 7.96784C16.9992 8.25117 17 8.62345 17 9.2V21C17 21.5523 17.4477 22 18 22C18.5523 22 19 21.5523 19 21V9.16144C19 8.6343 19 8.17954 18.9694 7.80497C18.9371 7.40963 18.8658 7.01641 18.673 6.63803C18.3854 6.07354 17.9265 5.6146 17.362 5.32698C16.9836 5.13419 16.5904 5.06287 16.195 5.03057C15.8205 4.99997 15.3657 4.99998 14.8386 5L8 5V7L14.8 7Z" fill="#0000CC"/>
<path d="M3 5H5V7H3C2.44772 7 2 6.55229 2 6C2 5.44772 2.44772 5 3 5Z" fill="#0000CC"/>
</svg>
