<svg width="24" height="24" viewBox="0 0 24 24" fill="none" xmlns="http://www.w3.org/2000/svg">
<path opacity="0.3" fill-rule="evenodd" clip-rule="evenodd" d="M12 6C8.68629 6 6 8.68629 6 12C6 15.3137 8.68629 18 12 18C15.3137 18 18 15.3137 18 12C18 8.68629 15.3137 6 12 6ZM4 12C4 7.58172 7.58172 4 12 4C16.4183 4 20 7.58172 20 12C20 16.4183 16.4183 20 12 20C7.58172 20 4 16.4183 4 12Z" fill="#0000CC"/>
<path fill-rule="evenodd" clip-rule="evenodd" d="M12 2C12.5523 2 13 2.44772 13 3V7C13 7.55228 12.5523 8 12 8C11.4477 8 11 7.55228 11 7V3C11 2.44772 11.4477 2 12 2ZM2 12C2 11.4477 2.44772 11 3 11H7C7.55228 11 8 11.4477 8 12C8 12.5523 7.55228 13 7 13H3C2.44772 13 2 12.5523 2 12ZM11 12C11 11.4477 11.4477 11 12 11H12.01C12.5623 11 13.01 11.4477 13.01 12C13.01 12.5523 12.5623 13 12.01 13H12C11.4477 13 11 12.5523 11 12ZM16 12C16 11.4477 16.4477 11 17 11H21C21.5523 11 22 11.4477 22 12C22 12.5523 21.5523 13 21 13H17C16.4477 13 16 12.5523 16 12ZM12 16C12.5523 16 13 16.4477 13 17V21C13 21.5523 12.5523 22 12 22C11.4477 22 11 21.5523 11 21V17C11 16.4477 11.4477 16 12 16Z" fill="#0000CC"/>
</svg>
