<svg width="24" height="24" viewBox="0 0 24 24" fill="none" xmlns="http://www.w3.org/2000/svg">
<path opacity="0.3" fill-rule="evenodd" clip-rule="evenodd" d="M12 4C7.58172 4 4 7.58172 4 12C4 16.4183 7.58172 20 12 20C16.4183 20 20 16.4183 20 12C20 7.58172 16.4183 4 12 4ZM2 12C2 6.47715 6.47715 2 12 2C17.5228 2 22 6.47715 22 12C22 17.5228 17.5228 22 12 22C6.47715 22 2 17.5228 2 12Z" fill="#0000CC"/>
<path d="M13 4.06189V7C13 7.55228 12.5523 8 12 8C11.4477 8 11 7.55228 11 7V4.06189C11.3276 4.02104 11.6613 4 12 4C12.3387 4 12.6724 4.02104 13 4.06189Z" fill="#0000CC"/>
<path d="M19.9381 11C19.979 11.3276 20 11.6613 20 12C20 12.3387 19.979 12.6724 19.9381 13H17C16.4477 13 16 12.5523 16 12C16 11.4477 16.4477 11 17 11H19.9381Z" fill="#0000CC"/>
<path d="M13 19.9381V17C13 16.4477 12.5523 16 12 16C11.4477 16 11 16.4477 11 17V19.9381C11.3276 19.979 11.6613 20 12 20C12.3387 20 12.6724 19.979 13 19.9381Z" fill="#0000CC"/>
<path d="M4.06189 13H7C7.55228 13 8 12.5523 8 12C8 11.4477 7.55228 11 7 11H4.06189C4.02104 11.3276 4 11.6613 4 12C4 12.3387 4.02104 12.6724 4.06189 13Z" fill="#0000CC"/>
<path d="M12 11C11.4477 11 11 11.4477 11 12C11 12.5523 11.4477 13 12 13H12.01C12.5623 13 13.01 12.5523 13.01 12C13.01 11.4477 12.5623 11 12.01 11H12Z" fill="#0000CC"/>
</svg>
