<svg width="24" height="24" viewBox="0 0 24 24" fill="none" xmlns="http://www.w3.org/2000/svg">
<path opacity="0.3" d="M12 2C7.02944 2 3 6.02944 3 11C3 11.686 3.07693 12.3552 3.22303 12.9991C3.33058 13.4731 3.47553 13.9329 3.65458 14.3752C3.80744 14.7529 4.17412 15 4.58152 15H19.4185C19.8259 15 20.1926 14.7529 20.3454 14.3752C20.5245 13.9329 20.6694 13.4731 20.777 12.9991C20.9231 12.3552 21 11.686 21 11C21 6.02944 16.9706 2 12 2Z" fill="#0000CC"/>
<path fill-rule="evenodd" clip-rule="evenodd" d="M9 6C9.55228 6 10 6.44772 10 7C10.5523 7 11 7.44772 11 8C11 8.55228 10.5523 9 10 9C10 9.55228 9.55228 10 9 10C8.44772 10 8 9.55228 8 9C7.44772 9 7 8.55228 7 8C7 7.44772 7.44772 7 8 7C8 6.44772 8.44772 6 9 6ZM15 6C15.5523 6 16 6.44772 16 7V8H17C17.5523 8 18 8.44772 18 9C18 9.55228 17.5523 10 17 10H16V11C16 11.5523 15.5523 12 15 12C14.4477 12 14 11.5523 14 11V10H13C12.4477 10 12 9.55228 12 9C12 8.44772 12.4477 8 13 8H14V7C14 6.44772 14.4477 6 15 6Z" fill="#0000CC"/>
<path d="M4.00001 17C3.56958 17 3.18744 17.2754 3.05132 17.6838L2.05132 20.6838C1.94967 20.9887 2.00081 21.3239 2.18877 21.5847C2.37672 21.8455 2.67856 22 3.00001 22H21C21.3215 22 21.6233 21.8455 21.8113 21.5847C21.9992 21.3239 22.0503 20.9887 21.9487 20.6838L20.9487 17.6838C20.8126 17.2754 20.4304 17 20 17H4.00001Z" fill="#0000CC"/>
</svg>
