<svg width="24" height="24" viewBox="0 0 24 24" fill="none" xmlns="http://www.w3.org/2000/svg">
<g opacity="0.3">
<path d="M12 2C12.5523 2 13 2.44772 13 3V5C13 5.55228 12.5523 6 12 6C11.4477 6 11 5.55228 11 5V3C11 2.44772 11.4477 2 12 2Z" fill="#0000CC"/>
<path d="M4.92893 4.92893C5.31946 4.53841 5.95262 4.53841 6.34315 4.92893L7.75736 6.34315C8.14788 6.73367 8.14788 7.36684 7.75736 7.75736C7.36684 8.14788 6.73367 8.14788 6.34315 7.75736L4.92893 6.34315C4.53841 5.95262 4.53841 5.31946 4.92893 4.92893Z" fill="#0000CC"/>
<path d="M19.0711 4.92893C19.4616 5.31946 19.4616 5.95262 19.0711 6.34315L17.6569 7.75736C17.2663 8.14788 16.6332 8.14788 16.2426 7.75736C15.8521 7.36684 15.8521 6.73367 16.2426 6.34315L17.6569 4.92893C18.0474 4.53841 18.6805 4.53841 19.0711 4.92893Z" fill="#0000CC"/>
<path d="M2 12C2 11.4477 2.44772 11 3 11H5C5.55228 11 6 11.4477 6 12C6 12.5523 5.55228 13 5 13H3C2.44772 13 2 12.5523 2 12Z" fill="#0000CC"/>
<path d="M18 12C18 11.4477 18.4477 11 19 11H21C21.5523 11 22 11.4477 22 12C22 12.5523 21.5523 13 21 13H19C18.4477 13 18 12.5523 18 12Z" fill="#0000CC"/>
<path d="M7.75736 16.2426C8.14788 16.6332 8.14788 17.2663 7.75736 17.6569L6.34314 19.0711C5.95262 19.4616 5.31946 19.4616 4.92893 19.0711C4.53841 18.6805 4.53841 18.0474 4.92893 17.6569L6.34315 16.2426C6.73367 15.8521 7.36683 15.8521 7.75736 16.2426Z" fill="#0000CC"/>
<path d="M16.2426 16.2426C16.6332 15.8521 17.2663 15.8521 17.6569 16.2426L19.0711 17.6569C19.4616 18.0474 19.4616 18.6805 19.0711 19.0711C18.6805 19.4616 18.0474 19.4616 17.6569 19.0711L16.2426 17.6569C15.8521 17.2663 15.8521 16.6332 16.2426 16.2426Z" fill="#0000CC"/>
<path d="M12 18C12.5523 18 13 18.4477 13 19V21C13 21.5523 12.5523 22 12 22C11.4477 22 11 21.5523 11 21V19C11 18.4477 11.4477 18 12 18Z" fill="#0000CC"/>
</g>
<path fill-rule="evenodd" clip-rule="evenodd" d="M12 7C12.3877 7 12.7405 7.2241 12.9053 7.57507L13.9148 9.72559L16.1519 10.0694C16.5223 10.1264 16.8298 10.3856 16.9485 10.741C17.0672 11.0964 16.9773 11.4883 16.7155 11.7564L15.0683 13.4435L15.459 15.839C15.5206 16.217 15.361 16.597 15.0479 16.8175C14.7348 17.0381 14.3232 17.0604 13.9881 16.8751L12 15.7757L10.0119 16.8751C9.6768 17.0604 9.26525 17.0381 8.95215 16.8175C8.63905 16.597 8.47942 16.217 8.54107 15.839L8.93179 13.4435L7.28452 11.7564C7.02274 11.4883 6.93282 11.0964 7.05155 10.741C7.17029 10.3856 7.47775 10.1264 7.84811 10.0694L10.0853 9.72559L11.0948 7.57507C11.2596 7.2241 11.6123 7 12 7Z" fill="#0000CC"/>
</svg>
