<svg width="24" height="24" viewBox="0 0 24 24" fill="none" xmlns="http://www.w3.org/2000/svg">
<path opacity="0.3" fill-rule="evenodd" clip-rule="evenodd" d="M15.429 4.11215C15.0269 3.99909 14.605 3.99955 14.1259 4.00007L6.16146 4.00014C5.63431 4.00012 5.17954 4.00011 4.80497 4.03071C4.40963 4.06301 4.01641 4.13433 3.63803 4.32712C3.07354 4.61474 2.6146 5.07368 2.32698 5.63817C2.13419 6.01655 2.06287 6.40977 2.03057 6.80511C1.99997 7.17968 1.99998 7.63443 2 8.16156V15.8387C1.99998 16.3658 1.99997 16.8206 2.03057 17.1952C2.06287 17.5905 2.13419 17.9837 2.32698 18.3621C2.6146 18.9266 3.07354 19.3855 3.63803 19.6732C4.01641 19.866 4.40963 19.9373 4.80497 19.9696C5.17952 20.0002 5.63425 20.0002 6.16136 20.0001L14.1259 20.0002C14.6049 20.0007 15.0269 20.0012 15.429 19.8881C15.7818 19.7889 16.1135 19.6259 16.4075 19.4071C16.7426 19.1579 17 18.8234 17.2922 18.4439L20.284 14.5655L20.3789 14.4427C20.8238 13.8679 21.2138 13.364 21.371 12.7796C21.5084 12.269 21.5084 11.7312 21.371 11.2207C21.2138 10.6363 20.8238 10.1324 20.3789 9.55761L20.284 9.43477L17.2922 5.55643C17 5.17684 16.7426 4.84243 16.4075 4.59315C16.1135 4.37438 15.7818 4.21136 15.429 4.11215Z" fill="#0000CC"/>
<path fill-rule="evenodd" clip-rule="evenodd" d="M7.70711 8.79289C7.31658 8.40237 6.68342 8.40237 6.29289 8.79289C5.90237 9.18342 5.90237 9.81658 6.29289 10.2071L8.08579 12L6.29289 13.7929C5.90237 14.1834 5.90237 14.8166 6.29289 15.2071C6.68342 15.5976 7.31658 15.5976 7.70711 15.2071L9.5 13.4142L11.2929 15.2071C11.6834 15.5976 12.3166 15.5976 12.7071 15.2071C13.0976 14.8166 13.0976 14.1834 12.7071 13.7929L10.9142 12L12.7071 10.2071C13.0976 9.81658 13.0976 9.18342 12.7071 8.79289C12.3166 8.40237 11.6834 8.40237 11.2929 8.79289L9.5 10.5858L7.70711 8.79289Z" fill="#0000CC"/>
</svg>
