<svg width="24" height="24" viewBox="0 0 24 24" fill="none" xmlns="http://www.w3.org/2000/svg">
<path opacity="0.3" fill-rule="evenodd" clip-rule="evenodd" d="M9.87351 4.00007C9.3945 3.99955 8.9725 3.99909 8.57044 4.11215C8.21762 4.21136 7.88596 4.37438 7.5919 4.59315C7.25681 4.84243 6.99941 5.17684 6.70724 5.55643L3.71547 9.43477L3.6205 9.55761C3.17565 10.1324 2.78564 10.6363 2.62841 11.2207C2.49105 11.7312 2.49105 12.269 2.62841 12.7796C2.78564 13.364 3.17565 13.8679 3.62051 14.4427L3.71547 14.5655L6.70724 18.4438C6.99941 18.8234 7.25681 19.1579 7.5919 19.4071C7.88596 19.6259 8.21762 19.7889 8.57044 19.8881C8.9725 20.0012 9.3945 20.0007 9.87351 20.0002L17.838 20.0001C18.3651 20.0002 18.8199 20.0002 19.1945 19.9696C19.5898 19.9373 19.983 19.866 20.3614 19.6732C20.9259 19.3855 21.3848 18.9266 21.6725 18.3621C21.8653 17.9837 21.9366 17.5905 21.9689 17.1952C21.9995 16.8206 21.9995 16.3658 21.9994 15.8387V8.16157C21.9995 7.63444 21.9995 7.17968 21.9689 6.80511C21.9366 6.40977 21.8653 6.01655 21.6725 5.63817C21.3848 5.07368 20.9259 4.61474 20.3614 4.32712C19.983 4.13433 19.5898 4.06301 19.1945 4.03071C18.8199 4.00011 18.3651 4.00012 17.838 4.00014L9.87351 4.00007Z" fill="#0000CC"/>
<path fill-rule="evenodd" clip-rule="evenodd" d="M12.7071 8.79289C12.3166 8.40237 11.6834 8.40237 11.2929 8.79289C10.9024 9.18342 10.9024 9.81658 11.2929 10.2071L13.0858 12L11.2929 13.7929C10.9024 14.1834 10.9024 14.8166 11.2929 15.2071C11.6834 15.5976 12.3166 15.5976 12.7071 15.2071L14.5 13.4142L16.2929 15.2071C16.6834 15.5976 17.3166 15.5976 17.7071 15.2071C18.0976 14.8166 18.0976 14.1834 17.7071 13.7929L15.9142 12L17.7071 10.2071C18.0976 9.81658 18.0976 9.18342 17.7071 8.79289C17.3166 8.40237 16.6834 8.40237 16.2929 8.79289L14.5 10.5858L12.7071 8.79289Z" fill="#0000CC"/>
</svg>
