<svg width="24" height="24" viewBox="0 0 24 24" fill="none" xmlns="http://www.w3.org/2000/svg">
<path opacity="0.3" d="M7.5 10V11.1C7.5 12.2366 7.50078 13.0289 7.55118 13.6458C7.60062 14.2509 7.6928 14.5986 7.82698 14.862C8.1146 15.4265 8.57355 15.8854 9.13803 16.173C9.40139 16.3072 9.74908 16.3994 10.3542 16.4488C10.9711 16.4992 11.7634 16.5 12.9 16.5H14V18.5H12.8572C11.7734 18.5 10.8993 18.5 10.1914 18.4422C9.46253 18.3826 8.82234 18.2568 8.23005 17.955C7.28924 17.4757 6.52434 16.7108 6.04497 15.77C5.74318 15.1777 5.61737 14.5375 5.55782 13.8086C5.49998 13.1008 5.49999 12.2266 5.5 11.1428L5.5 10C5.93931 10 7.5 10 7.5 10Z" fill="#0000CC"/>
<path d="M3.21799 4.09202C3 4.51984 3 5.0799 3 6.2V6.8C3 7.9201 3 8.48016 3.21799 8.90798C3.40973 9.28431 3.71569 9.59027 4.09202 9.78201C4.51984 10 5.0799 10 6.2 10H6.8C7.9201 10 8.48016 10 8.90798 9.78201C9.28431 9.59027 9.59027 9.28431 9.78201 8.90798C10 8.48016 10 7.9201 10 6.8V6.2C10 5.0799 10 4.51984 9.78201 4.09202C9.59027 3.71569 9.28431 3.40973 8.90798 3.21799C8.48016 3 7.9201 3 6.8 3H6.2C5.0799 3 4.51984 3 4.09202 3.21799C3.71569 3.40973 3.40973 3.71569 3.21799 4.09202Z" fill="#0000CC"/>
<path d="M14.218 15.092C14 15.5198 14 16.0799 14 17.2V17.8C14 18.9201 14 19.4802 14.218 19.908C14.4097 20.2843 14.7157 20.5903 15.092 20.782C15.5198 21 16.0799 21 17.2 21H17.8C18.9201 21 19.4802 21 19.908 20.782C20.2843 20.5903 20.5903 20.2843 20.782 19.908C21 19.4802 21 18.9201 21 17.8V17.2C21 16.0799 21 15.5198 20.782 15.092C20.5903 14.7157 20.2843 14.4097 19.908 14.218C19.4802 14 18.9201 14 17.8 14H17.2C16.0799 14 15.5198 14 15.092 14.218C14.7157 14.4097 14.4097 14.7157 14.218 15.092Z" fill="#0000CC"/>
</svg>
