<svg width="24" height="24" viewBox="0 0 24 24" fill="none" xmlns="http://www.w3.org/2000/svg">
<path opacity="0.3" d="M6 10H7.17083C6.79865 8.94468 7.0346 7.72276 7.87868 6.87868L9.87868 4.87868C11.0503 3.70711 12.9497 3.70711 14.1213 4.87868L16.1213 6.87868C16.9654 7.72276 17.2013 8.94468 16.8292 10H18C18.93 10 19.395 10 19.7765 9.89778C20.8117 9.62038 21.6204 8.81173 21.8978 7.77646C22 7.39496 22 6.92997 22 6C22 5.07003 22 4.60504 21.8978 4.22354C21.6204 3.18827 20.8117 2.37962 19.7765 2.10222C19.395 2 18.93 2 18 2H6C5.07003 2 4.60504 2 4.22354 2.10222C3.18827 2.37962 2.37962 3.18827 2.10222 4.22354C2 4.60504 2 5.07003 2 6C2 6.92997 2 7.39496 2.10222 7.77646C2.37962 8.81173 3.18827 9.62038 4.22354 9.89778C4.60504 10 5.07003 10 6 10Z" fill="#0000CC"/>
<path d="M2 18C2 18.93 2 19.395 2.10222 19.7765C2.37962 20.8117 3.18827 21.6204 4.22354 21.8978C4.60504 22 5.07003 22 6 22H18C18.93 22 19.395 22 19.7765 21.8978C20.8117 21.6204 21.6204 20.8117 21.8978 19.7765C22 19.395 22 18.93 22 18C22 17.07 22 16.605 21.8978 16.2235C21.6204 15.1883 20.8117 14.3796 19.7765 14.1022C19.395 14 18.93 14 18 14H13V9.41421L13.2929 9.70711C13.6834 10.0976 14.3166 10.0976 14.7071 9.70711C15.0976 9.31658 15.0976 8.68342 14.7071 8.29289L12.7071 6.29289C12.3166 5.90237 11.6834 5.90237 11.2929 6.29289L9.29289 8.29289C8.90237 8.68342 8.90237 9.31658 9.29289 9.70711C9.68342 10.0976 10.3166 10.0976 10.7071 9.70711L11 9.41421V14H6C5.07003 14 4.60504 14 4.22354 14.1022C3.18827 14.3796 2.37962 15.1883 2.10222 16.2235C2 16.605 2 17.07 2 18Z" fill="#0000CC"/>
</svg>
