<svg width="24" height="24" viewBox="0 0 24 24" fill="none" xmlns="http://www.w3.org/2000/svg">
<path opacity="0.3" fill-rule="evenodd" clip-rule="evenodd" d="M15.8 4C16.3766 4 16.7488 4.00078 17.0322 4.02393C17.3038 4.04613 17.4045 4.0838 17.454 4.109C17.6422 4.20487 17.7951 4.35785 17.891 4.54601C17.9162 4.59546 17.9539 4.69618 17.9761 4.96784C17.9992 5.25118 18 5.62345 18 6.2V6.58579L17.7071 6.2929C17.3166 5.90237 16.6834 5.90237 16.2929 6.2929C15.9024 6.68342 15.9024 7.31659 16.2929 7.70711L18.2929 9.70711C18.6834 10.0976 19.3166 10.0976 19.7071 9.70711L21.7071 7.70711C22.0976 7.31659 22.0976 6.68342 21.7071 6.2929C21.3166 5.90237 20.6834 5.90237 20.2929 6.2929L20 6.58579V6.16144C20 5.6343 20 5.17954 19.9694 4.80498C19.9371 4.40963 19.8658 4.01641 19.673 3.63803C19.3854 3.07355 18.9265 2.6146 18.362 2.32698C17.9836 2.13419 17.5904 2.06287 17.195 2.03057C16.8205 1.99997 16.3657 1.99998 15.8386 2H5.96802C5.52942 1.99999 5.15085 1.99998 4.83762 2.02135C4.50779 2.04386 4.17788 2.09336 3.85195 2.22836C3.11687 2.53285 2.53285 3.11687 2.22836 3.85195C2.09336 4.17788 2.04386 4.50779 2.02135 4.83762C1.99998 5.15086 1.99999 5.52933 2 5.96794V6.03199C1.99999 6.47061 1.99998 6.84915 2.02135 7.16239C2.04386 7.49222 2.09336 7.82213 2.22836 8.14805C2.53285 8.88314 3.11687 9.46716 3.85195 9.77164C4.17788 9.90665 4.50779 9.95615 4.83762 9.97865C5.15088 10 5.52936 10 5.96801 10H9.03199C9.47064 10 9.84913 10 10.1624 9.97865C10.4922 9.95615 10.8221 9.90665 11.1481 9.77164C11.8831 9.46716 12.4672 8.88314 12.7716 8.14805C12.9066 7.82213 12.9561 7.49222 12.9787 7.16239C13 6.84914 13 6.47067 13 6.03204V5.96801C13 5.52939 13 5.15087 12.9787 4.83762C12.9596 4.55765 12.921 4.27761 12.8272 4H15.8ZM4.61732 4.07612C4.65893 4.05888 4.74576 4.03227 4.97376 4.01671C5.21074 4.00054 5.52038 4 6 4H9C9.47962 4 9.78926 4.00054 10.0262 4.01671C10.2542 4.03227 10.3411 4.05888 10.3827 4.07612C10.6277 4.17762 10.8224 4.37229 10.9239 4.61732C10.9411 4.65893 10.9677 4.74576 10.9833 4.97376C10.9995 5.21074 11 5.52038 11 6C11 6.47963 10.9995 6.78926 10.9833 7.02624C10.9677 7.25424 10.9411 7.34107 10.9239 7.38269C10.8224 7.62771 10.6277 7.82239 10.3827 7.92388C10.3411 7.94112 10.2542 7.96774 10.0262 7.98329C9.78926 7.99946 9.47962 8 9 8H6C5.52038 8 5.21074 7.99946 4.97376 7.98329C4.74576 7.96774 4.65893 7.94112 4.61732 7.92388C4.37229 7.82239 4.17762 7.62771 4.07612 7.38269C4.05888 7.34107 4.03227 7.25424 4.01671 7.02624C4.00054 6.78926 4 6.47963 4 6C4 5.52038 4.00054 5.21074 4.01671 4.97376C4.03227 4.74576 4.05888 4.65893 4.07612 4.61732C4.17762 4.37229 4.37229 4.17762 4.61732 4.07612Z" fill="#0000CC"/>
<path fill-rule="evenodd" clip-rule="evenodd" d="M5.96801 14H18.032C18.4706 14 18.8491 14 19.1624 14.0214C19.4922 14.0439 19.8221 14.0934 20.1481 14.2284C20.8831 14.5328 21.4672 15.1169 21.7716 15.852C21.9066 16.1779 21.9561 16.5078 21.9787 16.8376C22 17.1509 22 17.5294 22 17.968V18.032C22 18.4706 22 18.8491 21.9787 19.1624C21.9561 19.4922 21.9066 19.8221 21.7716 20.1481C21.4672 20.8831 20.8831 21.4672 20.1481 21.7716C19.8221 21.9066 19.4922 21.9561 19.1624 21.9787C18.8491 22 18.4706 22 18.032 22H5.96801C5.52936 22 5.15088 22 4.83762 21.9787C4.50779 21.9561 4.17788 21.9066 3.85195 21.7716C3.11687 21.4672 2.53284 20.8831 2.22836 20.1481C2.09336 19.8221 2.04386 19.4922 2.02135 19.1624C1.99998 18.8491 1.99999 18.4706 2 18.032V17.968C1.99999 17.5294 1.99998 17.1509 2.02135 16.8376C2.04386 16.5078 2.09336 16.1779 2.22836 15.852C2.53284 15.1169 3.11687 14.5328 3.85195 14.2284C4.17788 14.0934 4.50779 14.0439 4.83762 14.0214C5.15088 14 5.52936 14 5.96801 14Z" fill="#0000CC"/>
</svg>
