<svg width="24" height="24" viewBox="0 0 24 24" fill="none" xmlns="http://www.w3.org/2000/svg">
<path opacity="0.3" d="M5 14.8385V10H7V14.8C7 15.3766 7.00078 15.7488 7.02393 16.0322C7.04613 16.3038 7.0838 16.4045 7.109 16.454C7.20487 16.6422 7.35785 16.7951 7.54601 16.891C7.59546 16.9162 7.69618 16.9539 7.96784 16.9761C8.25118 16.9992 8.62345 17 9.2 17H10V19H9.16148C8.63434 19 8.17955 19 7.80498 18.9694C7.40963 18.9371 7.01641 18.8658 6.63803 18.673C6.07355 18.3854 5.6146 17.9265 5.32698 17.362C5.13419 16.9836 5.06287 16.5904 5.03057 16.195C4.99997 15.8205 4.99998 15.3657 5 14.8385Z" fill="#0000CC"/>
<path d="M5 2C3.34315 2 2 3.34315 2 5V7C2 8.65685 3.34315 10 5 10H19C20.6569 10 22 8.65685 22 7V5C22 3.34315 20.6569 2 19 2H5Z" fill="#0000CC"/>
<path d="M13 14C11.3431 14 10 15.3431 10 17V19C10 20.6569 11.3431 22 13 22H19C20.6569 22 22 20.6569 22 19V17C22 15.3431 20.6569 14 19 14H13Z" fill="#0000CC"/>
</svg>
