<svg width="24" height="24" viewBox="0 0 24 24" fill="none" xmlns="http://www.w3.org/2000/svg">
<path opacity="0.3" fill-rule="evenodd" clip-rule="evenodd" d="M11.5681 2H12.4319C12.6843 1.99997 12.9301 1.99994 13.1382 2.01695C13.3668 2.03563 13.6366 2.07969 13.908 2.21799C14.2843 2.40974 14.5903 2.7157 14.782 3.09202C14.9203 3.36345 14.9644 3.63318 14.9831 3.86178C15.0001 4.06994 15 4.31574 15 4.56812V5.43189C15 5.68428 15.0001 5.93007 14.9831 6.13824C14.9644 6.36683 14.9203 6.63656 14.782 6.90799C14.5903 7.28431 14.2843 7.59027 13.908 7.78202C13.6366 7.92032 13.3668 7.96438 13.1382 7.98306C12.9301 8.00007 12.6843 8.00004 12.4319 8.00001H11.5681C11.3157 8.00004 11.0699 8.00007 10.8618 7.98306C10.6332 7.96438 10.3634 7.92032 10.092 7.78202C9.7157 7.59027 9.40974 7.28431 9.21799 6.90799C9.07969 6.63656 9.03563 6.36683 9.01695 6.13824C8.99994 5.93008 8.99997 5.68429 9 5.4319C9 5.42128 9.00001 5.41065 9.00001 5.40001V4.60001C9.00001 4.58936 9 4.57873 9 4.56811C8.99997 4.31572 8.99994 4.06993 9.01695 3.86178C9.03563 3.63318 9.07969 3.36345 9.21799 3.09202C9.40974 2.7157 9.7157 2.40974 10.092 2.21799C10.3634 2.07969 10.6332 2.03563 10.8618 2.01695C11.0699 1.99994 11.3157 1.99997 11.5681 2ZM4.56811 9C4.57873 9 4.58936 9.00001 4.60001 9.00001H5.40001C5.41065 9.00001 5.42128 9 5.4319 9C5.68429 8.99997 5.93008 8.99994 6.13824 9.01695C6.36683 9.03563 6.63656 9.07969 6.90799 9.21799C7.28431 9.40974 7.59027 9.7157 7.78202 10.092C7.92032 10.3634 7.96438 10.6332 7.98306 10.8618C8.00007 11.0699 8.00004 11.3157 8.00001 11.5681V12.4319C8.00004 12.6843 8.00007 12.9301 7.98306 13.1382C7.96438 13.3668 7.92032 13.6366 7.78202 13.908C7.59027 14.2843 7.28431 14.5903 6.90799 14.782C6.63656 14.9203 6.36683 14.9644 6.13824 14.9831C5.93007 15.0001 5.68428 15 5.43189 15H4.56812C4.31574 15 4.06994 15.0001 3.86178 14.9831C3.63318 14.9644 3.36345 14.9203 3.09202 14.782C2.7157 14.5903 2.40974 14.2843 2.21799 13.908C2.07969 13.6366 2.03563 13.3668 2.01695 13.1382C1.99994 12.9301 1.99997 12.6843 2 12.4319V11.5681C1.99997 11.3157 1.99994 11.0699 2.01695 10.8618C2.03563 10.6332 2.07969 10.3634 2.21799 10.092C2.40974 9.7157 2.7157 9.40974 3.09202 9.21799C3.36345 9.07969 3.63318 9.03563 3.86178 9.01695C4.06993 8.99994 4.31572 8.99997 4.56811 9ZM18.5681 9H19.4319C19.6843 8.99997 19.9301 8.99994 20.1382 9.01695C20.3668 9.03563 20.6366 9.07969 20.908 9.21799C21.2843 9.40974 21.5903 9.7157 21.782 10.092C21.9203 10.3634 21.9644 10.6332 21.9831 10.8618C22.0001 11.0699 22 11.3157 22 11.5681V12.4319C22 12.6843 22.0001 12.9301 21.9831 13.1382C21.9644 13.3668 21.9203 13.6366 21.782 13.908C21.5903 14.2843 21.2843 14.5903 20.908 14.782C20.6366 14.9203 20.3668 14.9644 20.1382 14.9831C19.9301 15.0001 19.6843 15 19.4319 15H18.5681C18.3157 15 18.0699 15.0001 17.8618 14.9831C17.6332 14.9644 17.3634 14.9203 17.092 14.782C16.7157 14.5903 16.4097 14.2843 16.218 13.908C16.0797 13.6366 16.0356 13.3668 16.0169 13.1382C15.9999 12.9301 16 12.6843 16 12.4319V11.5681C16 11.3157 15.9999 11.0699 16.0169 10.8618C16.0356 10.6332 16.0797 10.3634 16.218 10.092C16.4097 9.7157 16.7157 9.40974 17.092 9.21799C17.3634 9.07969 17.6332 9.03563 17.8618 9.01695C18.0699 8.99994 18.3157 8.99997 18.5681 9ZM11.5681 16H12.4319C12.6843 16 12.9301 15.9999 13.1382 16.0169C13.3668 16.0356 13.6366 16.0797 13.908 16.218C14.2843 16.4097 14.5903 16.7157 14.782 17.092C14.9203 17.3634 14.9644 17.6332 14.9831 17.8618C15.0001 18.0699 15 18.3157 15 18.5681V19.4319C15 19.6843 15.0001 19.9301 14.9831 20.1382C14.9644 20.3668 14.9203 20.6366 14.782 20.908C14.5903 21.2843 14.2843 21.5903 13.908 21.782C13.6366 21.9203 13.3668 21.9644 13.1382 21.9831C12.9301 22.0001 12.6843 22 12.4319 22H11.5681C11.3157 22 11.0699 22.0001 10.8618 21.9831C10.6332 21.9644 10.3634 21.9203 10.092 21.782C9.7157 21.5903 9.40974 21.2843 9.21799 20.908C9.07969 20.6366 9.03563 20.3668 9.01695 20.1382C8.99994 19.9301 8.99997 19.6843 9 19.4319V18.5681C8.99997 18.3157 8.99994 18.0699 9.01695 17.8618C9.03563 17.6332 9.07969 17.3634 9.21799 17.092C9.40974 16.7157 9.7157 16.4097 10.092 16.218C10.3634 16.0797 10.6332 16.0356 10.8618 16.0169C11.0699 15.9999 11.3157 16 11.5681 16Z" fill="#0000CC"/>
<path d="M4.56811 2L4.60001 2.00001H5.40001L5.4319 2L5.43192 2C5.68429 1.99997 5.93008 1.99994 6.13824 2.01695C6.36683 2.03563 6.63656 2.07969 6.90799 2.21799C7.28431 2.40974 7.59027 2.7157 7.78202 3.09202C7.92032 3.36345 7.96438 3.63318 7.98306 3.86178C8.00007 4.06993 8.00004 4.31572 8.00001 4.56811L8.00001 4.60001V5.40001L8.00001 5.4319C8.00004 5.68429 8.00007 5.93008 7.98306 6.13824C7.96438 6.36683 7.92032 6.63656 7.78202 6.90799C7.59027 7.28431 7.28431 7.59027 6.90799 7.78202C6.63656 7.92032 6.36683 7.96438 6.13824 7.98306C5.93008 8.00007 5.68429 8.00004 5.4319 8.00001L5.40001 8.00001H4.60001L4.56811 8.00001C4.31572 8.00004 4.06993 8.00007 3.86178 7.98306C3.63318 7.96438 3.36345 7.92032 3.09202 7.78202C2.7157 7.59027 2.40974 7.28431 2.21799 6.90799C2.07969 6.63656 2.03563 6.36683 2.01695 6.13824C1.99994 5.93008 1.99997 5.68429 2 5.43192L2 5.4319L2.00001 5.40001V4.60001L2 4.56811L2 4.56809C1.99997 4.31572 1.99994 4.06993 2.01695 3.86178C2.03563 3.63318 2.07969 3.36345 2.21799 3.09202C2.40974 2.7157 2.7157 2.40974 3.09202 2.21799C3.36345 2.07969 3.63318 2.03563 3.86178 2.01695C4.06993 1.99994 4.31572 1.99997 4.56809 2L4.56811 2Z" fill="#0000CC"/>
<path d="M19.4319 2C19.6843 1.99997 19.9301 1.99994 20.1382 2.01695C20.3668 2.03563 20.6366 2.07969 20.908 2.21799C21.2843 2.40974 21.5903 2.7157 21.782 3.09202C21.9203 3.36345 21.9644 3.63318 21.9831 3.86178C22.0001 4.0699 22 4.31564 22 4.56797V4.56809V5.43192V5.43204C22 5.68437 22.0001 5.93011 21.9831 6.13824C21.9644 6.36683 21.9203 6.63656 21.782 6.90799C21.5903 7.28431 21.2843 7.59027 20.908 7.78202C20.6366 7.92032 20.3668 7.96438 20.1382 7.98306C19.9301 8.00007 19.6843 8.00004 19.4319 8.00001H18.5681C18.3157 8.00004 18.0699 8.00007 17.8618 7.98306C17.6332 7.96438 17.3634 7.92032 17.092 7.78202C16.7157 7.59027 16.4097 7.28431 16.218 6.90799C16.0797 6.63656 16.0356 6.36683 16.0169 6.13824C15.9999 5.93007 16 5.68428 16 5.43189V4.56812C16 4.31574 15.9999 4.06994 16.0169 3.86178C16.0356 3.63318 16.0797 3.36345 16.218 3.09202C16.4097 2.7157 16.7157 2.40974 17.092 2.21799C17.3634 2.07969 17.6332 2.03563 17.8618 2.01695C18.0699 1.99994 18.3157 1.99997 18.5681 2H19.4319Z" fill="#0000CC"/>
<path d="M12.4319 9C12.6843 8.99997 12.9301 8.99994 13.1382 9.01695C13.3668 9.03563 13.6366 9.07969 13.908 9.21799C14.2843 9.40974 14.5903 9.7157 14.782 10.092C14.9203 10.3634 14.9644 10.6332 14.9831 10.8618C15.0001 11.0699 15 11.3157 15 11.5681V12.4319C15 12.6843 15.0001 12.9301 14.9831 13.1382C14.9644 13.3668 14.9203 13.6366 14.782 13.908C14.5903 14.2843 14.2843 14.5903 13.908 14.782C13.6366 14.9203 13.3668 14.9644 13.1382 14.9831C12.9301 15.0001 12.6843 15 12.4319 15H11.5681C11.3157 15 11.0699 15.0001 10.8618 14.9831C10.6332 14.9644 10.3634 14.9203 10.092 14.782C9.7157 14.5903 9.40974 14.2843 9.21799 13.908C9.07969 13.6366 9.03563 13.3668 9.01695 13.1382C8.99994 12.9301 8.99997 12.6843 9 12.4319V11.5681C8.99997 11.3157 8.99994 11.0699 9.01695 10.8618C9.03563 10.6332 9.07969 10.3634 9.21799 10.092C9.40974 9.7157 9.7157 9.40974 10.092 9.21799C10.3634 9.07969 10.6332 9.03563 10.8618 9.01695C11.0699 8.99994 11.3157 8.99997 11.5681 9H12.4319Z" fill="#0000CC"/>
</svg>
