<svg width="24" height="24" viewBox="0 0 24 24" fill="none" xmlns="http://www.w3.org/2000/svg">
<path opacity="0.3" fill-rule="evenodd" clip-rule="evenodd" d="M9 5C9 3.34315 10.3431 2 12 2C13.6569 2 15 3.34315 15 5C15 6.65685 13.6569 8 12 8C10.3431 8 9 6.65685 9 5ZM2 12C2 10.3431 3.34315 9 5 9C6.65685 9 8 10.3431 8 12C8 13.6569 6.65685 15 5 15C3.34315 15 2 13.6569 2 12ZM16 12C16 10.3431 17.3431 9 19 9C20.6569 9 22 10.3431 22 12C22 13.6569 20.6569 15 19 15C17.3431 15 16 13.6569 16 12ZM9 19C9 17.3431 10.3431 16 12 16C13.6569 16 15 17.3431 15 19C15 20.6569 13.6569 22 12 22C10.3431 22 9 20.6569 9 19Z" fill="#0000CC"/>
<path d="M2 5C2 3.34315 3.34315 2 5 2C6.65685 2 8 3.34315 8 5C8 6.65685 6.65685 8 5 8C3.34315 8 2 6.65685 2 5Z" fill="#0000CC"/>
<path d="M16 5C16 3.34315 17.3431 2 19 2C20.6569 2 22 3.34315 22 5C22 6.65685 20.6569 8 19 8C17.3431 8 16 6.65685 16 5Z" fill="#0000CC"/>
<path d="M9 12C9 10.3431 10.3431 9 12 9C13.6569 9 15 10.3431 15 12C15 13.6569 13.6569 15 12 15C10.3431 15 9 13.6569 9 12Z" fill="#0000CC"/>
</svg>
