<svg width="24" height="24" viewBox="0 0 24 24" fill="none" xmlns="http://www.w3.org/2000/svg">
<g opacity="0.3">
<path d="M7 18.4144L9.05733 20.4717C9.43006 20.8445 9.75163 21.166 10.0381 21.4093C10.3405 21.666 10.669 21.8936 11.0729 22.0248C11.6754 22.2206 12.3244 22.2206 12.927 22.0248C13.3309 21.8936 13.6593 21.666 13.9617 21.4093C14.2482 21.166 14.5698 20.8445 14.9425 20.4717L17.0001 18.4141L12.0002 13.4142L7 18.4144Z" fill="#0000CC"/>
<path d="M17.0001 5.58587L14.9425 3.52834C14.5698 3.15558 14.2482 2.83398 13.9617 2.59076C13.6593 2.33405 13.3309 2.10643 12.927 1.9752C12.3244 1.77943 11.6754 1.77943 11.0729 1.9752C10.669 2.10643 10.3405 2.33405 10.0381 2.59076C9.75162 2.83398 9.43007 3.15556 9.05733 3.52832L7.00001 5.58564L12.0002 10.5858L17.0001 5.58587Z" fill="#0000CC"/>
</g>
<path d="M5.58564 6.99988L3.52808 9.05744C3.15532 9.43017 2.83373 9.75174 2.59051 10.0382C2.3338 10.3406 2.10618 10.6691 1.97496 11.073C1.77918 11.6755 1.77918 12.3246 1.97496 12.9271C2.10618 13.331 2.3338 13.6594 2.59051 13.9618C2.83373 14.2483 3.15531 14.5699 3.52807 14.9426L5.58563 17.0002L10.5858 12L5.58564 6.99988Z" fill="#0000CC"/>
<path d="M18.4141 16.9999L20.4714 14.9426C20.8442 14.5699 21.1658 14.2483 21.409 13.9618C21.6657 13.6594 21.8934 13.331 22.0246 12.9271C22.2204 12.3246 22.2204 11.6755 22.0246 11.073C21.8934 10.6691 21.6657 10.3406 21.409 10.0382C21.1658 9.75174 20.8442 9.4302 20.4715 9.05748L18.4141 7.00011L13.4142 12L18.4141 16.9999Z" fill="#0000CC"/>
</svg>
