<svg width="24" height="24" viewBox="0 0 24 24" fill="none" xmlns="http://www.w3.org/2000/svg">
<g opacity="0.3">
<path d="M10.9984 3.91922C10.9984 3.46098 10.4333 3.24413 10.1267 3.58474L3.21859 11.2604C2.96251 11.545 3.10809 12 3.48177 12.083L10.3899 13.6181C10.7022 13.6875 10.9984 13.4499 10.9984 13.1301V3.91922Z" fill="#0000CC"/>
<path d="M20.515 12.083C20.8886 12 21.0342 11.545 20.7781 11.2604L13.87 3.58474C13.5635 3.24413 12.9984 3.46098 12.9984 3.91922V13.1301C12.9984 13.4499 13.2946 13.6875 13.6068 13.6181L20.515 12.083Z" fill="#0000CC"/>
</g>
<path d="M4.40756 14.3377C3.90413 14.2258 3.58147 14.8569 3.96691 15.1995L10.1655 20.7093C10.4879 20.996 10.9977 20.7671 10.9977 20.3356V16.2033C10.9977 15.9689 10.8349 15.766 10.6061 15.7152L4.40756 14.3377Z" fill="#0000CC"/>
<path d="M12.9977 20.3356C12.9977 20.7671 13.5074 20.996 13.8299 20.7093L20.0284 15.1995C20.4139 14.8569 20.0912 14.2258 19.5878 14.3377L13.3892 15.7152C13.1604 15.766 12.9977 15.9689 12.9977 16.2033V20.3356Z" fill="#0000CC"/>
</svg>
