<svg width="24" height="24" viewBox="0 0 24 24" fill="none" xmlns="http://www.w3.org/2000/svg">
<path opacity="0.3" fill-rule="evenodd" clip-rule="evenodd" d="M12.0007 22C17.5236 22 22.0007 17.5228 22.0007 12C22.0007 6.47715 17.5236 2 12.0007 2C8.7291 2 5.82441 3.57111 4 6H6.00093C7.1055 6 8.00093 6.89543 8.00093 8C8.00093 9.10457 7.1055 10 6.00093 10C7.1055 10 8.00093 10.8954 8.00093 12C8.00093 13.1046 7.1055 14 6.00093 14C7.1055 14 8.00093 14.8954 8.00093 16C8.00093 17.1046 7.1055 18 6.00093 18H4C5.82441 20.4289 8.7291 22 12.0007 22Z" fill="#0000CC"/>
<path d="M4 7C3.44772 7 3 7.44772 3 8C3 8.55229 3.44772 9 4 9H6C6.55228 9 7 8.55229 7 8C7 7.44772 6.55228 7 6 7H4Z" fill="#0000CC"/>
<path d="M3 11C2.44772 11 2 11.4477 2 12C2 12.5523 2.44772 13 3 13H6C6.55228 13 7 12.5523 7 12C7 11.4477 6.55228 11 6 11H3Z" fill="#0000CC"/>
<path d="M3 16C3 15.4477 3.44772 15 4 15H6C6.55228 15 7 15.4477 7 16C7 16.5523 6.55228 17 6 17H4C3.44772 17 3 16.5523 3 16Z" fill="#0000CC"/>
<path d="M12.0001 7C12.5524 7 13.0001 7.44772 13.0001 8V8.38587C13.438 8.40234 13.8857 8.44123 14.2408 8.52932C14.7769 8.66227 15.1037 9.2046 14.9707 9.74064C14.8377 10.2767 14.2954 10.6035 13.7594 10.4705C13.4075 10.3832 12.7341 10.371 12.0068 10.3759C11.9437 10.3763 11.8985 10.376 11.8608 10.3751C11.8414 10.3746 11.8258 10.3741 11.8131 10.3735L11.793 10.3727L11.7893 10.3726L11.7687 10.3726C11.7442 10.3728 11.7029 10.3735 11.6292 10.3755C11.3308 10.3851 11.1464 10.4522 11.0652 10.5081C11.0339 10.5297 11.0259 10.5436 11.0225 10.5501C11.0191 10.5565 11.0003 10.5935 11.0001 10.6891C11 10.7327 11.0053 10.757 11.0081 10.7672C11.0106 10.7763 11.0131 10.7801 11.0131 10.7801C11.0131 10.7801 11.0175 10.7868 11.0289 10.7969C11.0409 10.8075 11.0624 10.8236 11.0976 10.8425C11.2622 10.9309 11.5707 10.9999 12.0001 10.9999C12.5414 10.9999 13.2393 11.0562 13.8326 11.3615C14.1464 11.523 14.4519 11.7647 14.6745 12.1184C14.8987 12.4746 15.0001 12.8826 15.0001 13.3124C15.0001 14.1266 14.5628 14.7119 14.0015 15.0636C13.6958 15.2551 13.3495 15.383 13.0001 15.469V16C13.0001 16.5523 12.5524 17 12.0001 17C11.4478 17 11.0001 16.5523 11.0001 16V15.591C10.6905 15.5782 10.3417 15.5504 9.87607 15.4922C9.32805 15.4237 8.93932 14.9239 9.00783 14.3759C9.07633 13.8279 9.57612 13.4391 10.1241 13.5076C10.9033 13.605 11.2539 13.6032 11.8312 13.6001C11.9225 13.5997 12.0194 13.5992 12.1247 13.599C12.5369 13.5459 12.8016 13.4553 12.9396 13.3688C12.9731 13.3478 12.9912 13.3319 12.9998 13.3232C13 13.3204 13.0001 13.3169 13.0001 13.3124C13.0001 13.2545 12.9934 13.2201 12.989 13.2033C12.9867 13.1949 12.9847 13.1898 12.9837 13.1874L12.9826 13.185L12.982 13.1839L12.9809 13.1826C12.9809 13.1826 12.9781 13.1794 12.9742 13.176C12.9663 13.1691 12.9492 13.1561 12.9176 13.1399C12.7609 13.0593 12.4588 12.9999 12.0001 12.9999C11.4295 12.9999 10.7371 12.9191 10.1513 12.6045C9.49588 12.2524 8.99851 11.6092 9.00011 10.6857C9.0015 9.88318 9.36036 9.25391 9.93063 8.86106C10.2647 8.63095 10.6395 8.50237 11.0001 8.43596V8C11.0001 7.44771 11.4478 7 12.0001 7Z" fill="#0000CC"/>
</svg>
