<svg width="24" height="24" viewBox="0 0 24 24" fill="none" xmlns="http://www.w3.org/2000/svg">
<g opacity="0.3">
<path d="M4.5 8.85506V15.1449C4.81685 15.0506 5.15251 15 5.5 15C5.84749 15 6.18315 15.0506 6.5 15.1449V8.85506C6.18315 8.94936 5.84749 9 5.5 9C5.15251 9 4.81685 8.94936 4.5 8.85506Z" fill="#0000CC"/>
<path d="M8.85506 6.5H15.1449C15.0506 6.18315 15 5.84749 15 5.5C15 5.15251 15.0506 4.81685 15.1449 4.5H8.85506C8.94936 4.81685 9 5.15251 9 5.5C9 5.84749 8.94936 6.18315 8.85506 6.5Z" fill="#0000CC"/>
<path d="M19.5 8.85506C19.1831 8.94936 18.8475 9 18.5 9C18.1525 9 17.8169 8.94936 17.5 8.85506V15.1449C17.8169 15.0506 18.1525 15 18.5 15C18.8475 15 19.1831 15.0506 19.5 15.1449V8.85506Z" fill="#0000CC"/>
<path d="M15.1449 19.5C15.0506 19.1831 15 18.8475 15 18.5C15 18.1525 15.0506 17.8169 15.1449 17.5H8.85506C8.94936 17.8169 9 18.1525 9 18.5C9 18.8475 8.94936 19.1831 8.85506 19.5H15.1449Z" fill="#0000CC"/>
</g>
<path d="M5.5 9C7.433 9 9 7.433 9 5.5C9 3.567 7.433 2 5.5 2C3.567 2 2 3.567 2 5.5C2 7.433 3.567 9 5.5 9Z" fill="#0000CC"/>
<path d="M18.5 9C20.433 9 22 7.433 22 5.5C22 3.567 20.433 2 18.5 2C16.567 2 15 3.567 15 5.5C15 7.433 16.567 9 18.5 9Z" fill="#0000CC"/>
<path d="M9 18.5C9 20.433 7.433 22 5.5 22C3.567 22 2 20.433 2 18.5C2 16.567 3.567 15 5.5 15C7.433 15 9 16.567 9 18.5Z" fill="#0000CC"/>
<path d="M18.5 22C20.433 22 22 20.433 22 18.5C22 16.567 20.433 15 18.5 15C16.567 15 15 16.567 15 18.5C15 20.433 16.567 22 18.5 22Z" fill="#0000CC"/>
</svg>
