<svg width="24" height="24" viewBox="0 0 24 24" fill="none" xmlns="http://www.w3.org/2000/svg">
<g opacity="0.3">
<path d="M4 7.82929V16.1707C4.31278 16.0602 4.64936 16 5 16C5.35064 16 5.68722 16.0602 6 16.1707V7.82929C5.68722 7.93985 5.35064 8 5 8C4.64936 8 4.31278 7.93985 4 7.82929Z" fill="#0000CC"/>
<path d="M7.82929 6H16.1707C16.0602 5.68722 16 5.35064 16 5C16 4.64936 16.0602 4.31278 16.1707 4H7.82929C7.93985 4.31278 8 4.64936 8 5C8 5.35064 7.93985 5.68722 7.82929 6Z" fill="#0000CC"/>
<path d="M20 7.82929C19.6872 7.93985 19.3506 8 19 8C18.6494 8 18.3128 7.93985 18 7.82929V16.1707C18.3128 16.0602 18.6494 16 19 16C19.3506 16 19.6872 16.0602 20 16.1707V7.82929Z" fill="#0000CC"/>
<path d="M16.1707 20C16.0602 19.6872 16 19.3506 16 19C16 18.6494 16.0602 18.3128 16.1707 18H7.82929C7.93985 18.3128 8 18.6494 8 19C8 19.3506 7.93985 19.6872 7.82929 20H16.1707Z" fill="#0000CC"/>
</g>
<path d="M8 5C8 6.65685 6.65685 8 5 8C3.34315 8 2 6.65685 2 5C2 3.34315 3.34315 2 5 2C6.65685 2 8 3.34315 8 5Z" fill="#0000CC"/>
<path d="M22 5C22 6.65685 20.6569 8 19 8C17.3431 8 16 6.65685 16 5C16 3.34315 17.3431 2 19 2C20.6569 2 22 3.34315 22 5Z" fill="#0000CC"/>
<path d="M19 22C20.6569 22 22 20.6569 22 19C22 17.3431 20.6569 16 19 16C17.3431 16 16 17.3431 16 19C16 20.6569 17.3431 22 19 22Z" fill="#0000CC"/>
<path d="M8 19C8 20.6569 6.65685 22 5 22C3.34315 22 2 20.6569 2 19C2 17.3431 3.34315 16 5 16C6.65685 16 8 17.3431 8 19Z" fill="#0000CC"/>
<path d="M8 9C8 8.44772 8.44772 8 9 8H15C15.5523 8 16 8.44772 16 9C16 9.55228 15.5523 10 15 10H13V15C13 15.5523 12.5523 16 12 16C11.4477 16 11 15.5523 11 15V10H9C8.44772 10 8 9.55228 8 9Z" fill="#0000CC"/>
</svg>
