<svg width="24" height="24" viewBox="0 0 24 24" fill="none" xmlns="http://www.w3.org/2000/svg">
<path opacity="0.3" fill-rule="evenodd" clip-rule="evenodd" d="M12 22C17.5228 22 22 17.5228 22 12C22 6.47715 17.5228 2 12 2C6.47715 2 2 6.47715 2 12C2 17.5228 6.47715 22 12 22Z" fill="#0000CC"/>
<path fill-rule="evenodd" clip-rule="evenodd" d="M9 12C9 11.8298 9.00892 11.663 9.02617 11.5H11C11.5523 11.5 12 11.0523 12 10.5C12 9.94772 11.5523 9.5 11 9.5H9.75986C10.4126 8.56843 11.4126 8 12.4653 8C13.533 8 14.5218 8.56353 15.1771 9.51262C15.4909 9.9671 16.1137 10.0811 16.5682 9.76735C17.0227 9.45356 17.1367 8.83075 16.8229 8.37627C15.8449 6.95977 14.2745 6 12.4653 6C10.2016 6 8.34705 7.47005 7.49862 9.5H7C6.44772 9.5 6 9.94772 6 10.5C6 11.0523 6.44772 11.5 7 11.5H7.01908C7.00643 11.6653 7 11.8321 7 12C7 12.1679 7.00643 12.3347 7.01908 12.5H7C6.44772 12.5 6 12.9477 6 13.5C6 14.0523 6.44772 14.5 7 14.5H7.49862C8.34705 16.5299 10.2016 18 12.4653 18C14.2745 18 15.8449 17.0402 16.8229 15.6237C17.1367 15.1692 17.0227 14.5464 16.5682 14.2326C16.1137 13.9189 15.4909 14.0329 15.1771 14.4874C14.5218 15.4365 13.533 16 12.4653 16C11.4126 16 10.4126 15.4316 9.75986 14.5H11C11.5523 14.5 12 14.0523 12 13.5C12 12.9477 11.5523 12.5 11 12.5H9.02617C9.00892 12.337 9 12.1702 9 12Z" fill="#0000CC"/>
</svg>
