<svg width="24" height="24" viewBox="0 0 24 24" fill="none" xmlns="http://www.w3.org/2000/svg">
<rect opacity="0.3" x="8.99023" y="7.57532" width="10.5024" height="2" rx="1" transform="rotate(45 8.99023 7.57532)" fill="#0000CC"/>
<path fill-rule="evenodd" clip-rule="evenodd" d="M16.5 4C15.9477 4 15.5 3.55228 15.5 3C15.5 2.44772 15.9477 2 16.5 2H21C21.5523 2 22 2.44772 22 3V7.5C22 8.05228 21.5523 8.5 21 8.5C20.4477 8.5 20 8.05228 20 7.5V5.41421L15.7071 9.70711C15.3166 10.0976 14.6834 10.0976 14.2929 9.70711C13.9024 9.31658 13.9024 8.68342 14.2929 8.29289L18.5858 4H16.5ZM9.70711 14.2929C10.0976 14.6834 10.0976 15.3166 9.70711 15.7071L5.41421 20H7.5C8.05229 20 8.5 20.4477 8.5 21C8.5 21.5523 8.05228 22 7.5 22L3 22C2.44771 22 2 21.5523 2 21L2 16.5C2 15.9477 2.44772 15.5 3 15.5C3.55229 15.5 4 15.9477 4 16.5L4 18.5858L8.29289 14.2929C8.68342 13.9024 9.31658 13.9024 9.70711 14.2929Z" fill="#0000CC"/>
</svg>
