<svg width="24" height="24" viewBox="0 0 24 24" fill="none" xmlns="http://www.w3.org/2000/svg">
<g opacity="0.3">
<path d="M18.4 5.00001C18.6965 5.00001 18.8588 5.00078 18.9754 5.01031L18.9886 5.01145L18.9897 5.02464C18.9992 5.14122 19 5.30348 19 5.60001V9.00001C19 9.55229 19.4477 10 20 10C20.5523 10 21 9.55229 21 9.00001L21 5.56809C21 5.31575 21.0001 5.0699 20.9831 4.86178C20.9644 4.63318 20.9203 4.36345 20.782 4.09202C20.5903 3.7157 20.2843 3.40974 19.908 3.21799C19.6366 3.07969 19.3668 3.03563 19.1382 3.01695C18.9301 2.99994 18.6843 2.99997 18.4319 3L15 3.00001C14.4477 3.00001 14 3.44772 14 4.00001C14 4.55229 14.4477 5.00001 15 5.00001H18.4Z" fill="#0000CC"/>
<path d="M5.00001 15C5.00001 14.4477 4.55229 14 4.00001 14C3.44772 14 3.00001 14.4477 3.00001 15L3 18.4319C2.99997 18.6843 2.99994 18.9301 3.01695 19.1382C3.03563 19.3668 3.07969 19.6366 3.21799 19.908C3.40974 20.2843 3.7157 20.5903 4.09202 20.782C4.36345 20.9203 4.63318 20.9644 4.86177 20.9831C5.06986 21.0001 5.31556 21 5.56786 21L9 21C9.55229 21 10 20.5523 10 20C10 19.4477 9.55229 19 9.00001 19L5.6 19C5.30348 19 5.14122 18.9992 5.02464 18.9897L5.01145 18.9885L5.01031 18.9754C5.00078 18.8588 5.00001 18.6965 5.00001 18.4V15Z" fill="#0000CC"/>
</g>
<path fill-rule="evenodd" clip-rule="evenodd" d="M5.5681 3C5.57873 3.00001 5.58936 3.00001 5.6 3.00001L9 3.00001C9.55229 3 10 3.44772 10 4.00001C10 4.55229 9.55229 5 9.00001 5.00001L5.6 5.00001C5.30348 5.00001 5.14122 5.00079 5.02464 5.01031C5.02 5.01069 5.0156 5.01107 5.01145 5.01146C5.01107 5.01561 5.01069 5.02 5.01031 5.02464C5.00078 5.14123 5.00001 5.30348 5.00001 5.60001V9.00001C5.00001 9.55229 4.55229 10 4.00001 10C3.44772 10 3.00001 9.55229 3.00001 9.00001V5.60001C3.00001 5.58936 3 5.57873 3 5.56811C2.99997 5.31573 2.99994 5.06994 3.01695 4.86178C3.03563 4.63318 3.07969 4.36345 3.21799 4.09203C3.40974 3.7157 3.7157 3.40974 4.09202 3.218C4.36345 3.0797 4.63318 3.03563 4.86177 3.01695C5.06993 2.99995 5.31572 2.99997 5.5681 3ZM20 14C20.5523 14 21 14.4477 21 15L21 18.4319C21 18.6843 21.0001 18.9301 20.9831 19.1382C20.9644 19.3668 20.9203 19.6366 20.782 19.908C20.5903 20.2843 20.2843 20.5903 19.908 20.782C19.6366 20.9203 19.3668 20.9644 19.1382 20.9831C18.9301 21.0001 18.6843 21 18.4319 21L15 21C14.4477 21 14 20.5523 14 20C14 19.4477 14.4477 19 15 19H18.4C18.6965 19 18.8588 18.9992 18.9754 18.9897C18.98 18.9893 18.9844 18.9889 18.9886 18.9886C18.9889 18.9844 18.9893 18.98 18.9897 18.9754C18.9992 18.8588 19 18.6965 19 18.4V15C19 14.4477 19.4477 14 20 14Z" fill="#0000CC"/>
</svg>
