<svg width="24" height="24" viewBox="0 0 24 24" fill="none" xmlns="http://www.w3.org/2000/svg">
<g opacity="0.3">
<path d="M16 4C15.4477 4 15 4.44772 15 5C15 5.55228 15.4477 6 16 6H20V10C20 10.5523 20.4477 11 21 11C21.5523 11 22 10.5523 22 10V5C22 4.44772 21.5523 4 21 4H16Z" fill="#0000CC"/>
<path d="M4 14C4 13.4477 3.55228 13 3 13C2.44772 13 2 13.4477 2 14V19C2 19.5523 2.44771 20 3 20L8 20C8.55228 20 9 19.5523 9 19C9 18.4477 8.55229 18 8 18L4 18V14Z" fill="#0000CC"/>
</g>
<path fill-rule="evenodd" clip-rule="evenodd" d="M4 6L8 6C8.55229 6 9 5.55228 9 5C9 4.44771 8.55228 4 8 4L3 4C2.44771 4 2 4.44772 2 5V10C2 10.5523 2.44772 11 3 11C3.55228 11 4 10.5523 4 10V6ZM21 13C21.5523 13 22 13.4477 22 14V19C22 19.5523 21.5523 20 21 20H16C15.4477 20 15 19.5523 15 19C15 18.4477 15.4477 18 16 18H20V14C20 13.4477 20.4477 13 21 13Z" fill="#0000CC"/>
</svg>
