<svg width="24" height="24" viewBox="0 0 24 24" fill="none" xmlns="http://www.w3.org/2000/svg">
<path opacity="0.3" fill-rule="evenodd" clip-rule="evenodd" d="M6 14C6 10.6863 8.68629 8 12 8C15.3137 8 18 10.6863 18 14C18 17.3137 15.3137 20 12 20C8.68629 20 6 17.3137 6 14Z" fill="#0000CC"/>
<path d="M12 6C7.58172 6 4 9.58172 4 14C4 14.5523 3.55228 15 3 15C2.44772 15 2 14.5523 2 14C2 8.47715 6.47715 4 12 4C17.5228 4 22 8.47715 22 14C22 14.5523 21.5523 15 21 15C20.4477 15 20 14.5523 20 14C20 9.58172 16.4183 6 12 6Z" fill="#0000CC"/>
</svg>
