<svg width="24" height="24" viewBox="0 0 24 24" fill="none" xmlns="http://www.w3.org/2000/svg">
<path opacity="0.3" d="M12 2C6.47715 2 2 6.47715 2 12C2 17.5228 6.47715 22 12 22C17.5228 22 22 17.5228 22 12C22 6.47715 17.5228 2 12 2Z" fill="#0000CC"/>
<path fill-rule="evenodd" clip-rule="evenodd" d="M7.85156 9.3001C7.85156 8.49928 8.50075 7.8501 9.30156 7.8501C10.1024 7.8501 10.7516 8.49928 10.7516 9.3001C10.7516 10.1009 10.1024 10.7501 9.30156 10.7501C8.50075 10.7501 7.85156 10.1009 7.85156 9.3001ZM13.25 9.3001C13.25 8.49928 13.8992 7.8501 14.7 7.8501C15.5008 7.8501 16.15 8.49928 16.15 9.3001C16.15 10.1009 15.5008 10.7501 14.7 10.7501C13.8992 10.7501 13.25 10.1009 13.25 9.3001ZM11.1056 13.5529C11.3526 13.0589 11.9532 12.8587 12.4472 13.1057L13.4472 13.6057C14.3924 14.0783 14.5601 15.2718 13.9502 16.0001C14.5601 16.7285 14.3924 17.9219 13.4472 18.3945L12.4472 18.8945C11.9532 19.1415 11.3526 18.9413 11.1056 18.4473C10.8586 17.9534 11.0588 17.3527 11.5528 17.1057L11.9706 16.8968C11.5978 16.3646 11.5978 15.6356 11.9706 15.1034L11.5528 14.8945C11.0588 14.6476 10.8586 14.0469 11.1056 13.5529Z" fill="#0000CC"/>
</svg>
