<svg width="24" height="24" viewBox="0 0 24 24" fill="none" xmlns="http://www.w3.org/2000/svg">
<path opacity="0.3" d="M12 2C6.47715 2 2 6.47715 2 12C2 17.5228 6.47715 22 12 22C17.5228 22 22 17.5228 22 12C22 6.47715 17.5228 2 12 2Z" fill="#0000CC"/>
<path fill-rule="evenodd" clip-rule="evenodd" d="M11.0001 9.5C11.0001 7.567 12.5671 6 14.5001 6C16.4331 6 18.0001 7.567 18.0001 9.5C18.0001 11.433 16.4331 13 14.5001 13C12.5671 13 11.0001 11.433 11.0001 9.5ZM7.50007 10C7.18341 10 6.87263 10.1038 6.58473 10.3113C6.13667 10.6342 5.51169 10.5327 5.18879 10.0847C4.8659 9.6366 4.96736 9.01162 5.41542 8.68872C6.01004 8.2602 6.72388 8 7.50007 8C8.27627 8 8.99011 8.2602 9.58473 8.68872C10.0328 9.01162 10.1343 9.6366 9.81135 10.0847C9.48846 10.5327 8.86347 10.6342 8.41542 10.3113C8.12752 10.1038 7.81674 10 7.50007 10ZM7.33215 13.0567L7.33678 13.0584L7.35724 13.0654C7.37603 13.0719 7.40492 13.0817 7.44307 13.0945C7.51941 13.1199 7.63261 13.157 7.77588 13.2018C8.06289 13.2914 8.46806 13.4113 8.93743 13.531C9.89391 13.775 11.0471 14 12.0001 14C12.953 14 14.1062 13.775 15.0627 13.531C15.5321 13.4113 15.9373 13.2914 16.2243 13.2018C16.3675 13.157 16.4807 13.1199 16.5571 13.0945C16.5952 13.0817 16.6241 13.0719 16.6429 13.0654L16.6634 13.0584L16.6677 13.0568C16.9736 12.9492 17.3133 12.9965 17.578 13.1839C17.8427 13.3714 18.0001 13.6756 18.0001 14C18.0001 15.4854 17.066 16.697 16.0001 17.5182V18C16.0001 20.2091 14.2092 22 12.0001 22C9.79094 22 8.00007 20.2091 8.00007 18V17.5182C6.93419 16.697 6.00007 15.4854 6.00007 14C6.00007 13.6756 6.15743 13.3714 6.42218 13.1839C6.68683 12.9965 7.02624 12.9492 7.33215 13.0567Z" fill="#0000CC"/>
</svg>
