<svg width="24" height="24" viewBox="0 0 24 24" fill="none" xmlns="http://www.w3.org/2000/svg">
<path opacity="0.3" d="M12 2C6.47715 2 2 6.47715 2 12C2 17.5228 6.47715 22 12 22C17.5228 22 22 17.5228 22 12C22 6.47715 17.5228 2 12 2Z" fill="#0000CC"/>
<path fill-rule="evenodd" clip-rule="evenodd" d="M10.664 7.25204C11.0771 7.61862 11.1148 8.25066 10.7482 8.66375C9.81938 9.71048 8.64423 10.5123 7.31249 10.95C6.78781 11.1225 6.2227 10.8369 6.05026 10.3122C5.87783 9.78755 6.16337 9.22244 6.68805 9.05C7.66095 8.73026 8.54173 8.13703 9.2523 7.33628C9.61887 6.92318 10.2509 6.88547 10.664 7.25204ZM13.3365 7.25204C13.7496 6.88547 14.3817 6.92318 14.7482 7.33628C15.4588 8.13703 16.3396 8.73026 17.3125 9.05C17.8372 9.22244 18.1227 9.78755 17.9503 10.3122C17.7778 10.8369 17.2127 11.1225 16.6881 10.95C15.3563 10.5123 14.1812 9.71048 13.2523 8.66375C12.8857 8.25066 12.9234 7.61862 13.3365 7.25204ZM7.11 16.1608C7.45107 13.7734 9.49577 12 11.9075 12H12.0931C14.5048 12 16.5495 13.7734 16.8905 16.1608C17.0385 17.1963 16.1067 18.033 15.1134 17.8316C14.2777 17.6621 12.9404 17.4286 12.0003 17.4286C11.0601 17.4286 9.7228 17.6621 8.88717 17.8316C7.89387 18.033 6.96207 17.1963 7.11 16.1608Z" fill="#0000CC"/>
</svg>
