<svg width="24" height="24" viewBox="0 0 24 24" fill="none" xmlns="http://www.w3.org/2000/svg">
<path opacity="0.3" d="M11 2C6.02944 2 2 6.02944 2 11C2 15.9706 6.02944 20 11 20C15.9706 20 20 15.9706 20 11C20 6.02944 15.9706 2 11 2Z" fill="#0000CC"/>
<path d="M8.35156 7.84998C7.52313 7.84998 6.85156 8.52155 6.85156 9.34998C6.85156 10.1784 7.52313 10.85 8.35156 10.85C9.17999 10.85 9.85156 10.1784 9.85156 9.34998C9.85156 8.52155 9.17999 7.84998 8.35156 7.84998Z" fill="#0000CC"/>
<path d="M13.7 7.84998C12.8992 7.84998 12.25 8.49916 12.25 9.29998C12.25 10.1008 12.8992 10.75 13.7 10.75C14.5008 10.75 15.15 10.1008 15.15 9.29998C15.15 8.49916 14.5008 7.84998 13.7 7.84998Z" fill="#0000CC"/>
<path d="M9 14C9 13.4477 8.55228 13 8 13C7.44772 13 7 13.4477 7 14V15C7 15.5523 7.44772 16 8 16C8.55228 16 9 15.5523 9 15V14Z" fill="#0000CC"/>
<path d="M12 14C12 13.4477 11.5523 13 11 13C10.4477 13 10 13.4477 10 14V15C10 15.5523 10.4477 16 11 16C11.5523 16 12 15.5523 12 15V14Z" fill="#0000CC"/>
<path d="M15 14C15 13.4477 14.5523 13 14 13C13.4477 13 13 13.4477 13 14V15C13 15.5523 13.4477 16 14 16C14.5523 16 15 15.5523 15 15V14Z" fill="#0000CC"/>
<path fill-rule="evenodd" clip-rule="evenodd" d="M18.5953 15.5886C18.2257 15.2454 17.6584 15.2312 17.2721 15.5554L15.74 16.8409C15.3537 17.1651 15.2692 17.7262 15.543 18.1498L16.9169 20.2756C17.6757 21.4497 19.2919 21.693 20.3628 20.7944C21.4337 19.8958 21.4747 18.2619 20.4502 17.3108L18.5953 15.5886Z" fill="#0000CC"/>
</svg>
