<svg width="24" height="24" viewBox="0 0 24 24" fill="none" xmlns="http://www.w3.org/2000/svg">
<path opacity="0.3" d="M12 2C6.47715 2 2 6.47715 2 12C2 17.5228 6.47715 22 12 22C17.5228 22 22 17.5228 22 12C22 6.47715 17.5228 2 12 2Z" fill="#0000CC"/>
<path fill-rule="evenodd" clip-rule="evenodd" d="M7.33207 13.0567L7.3367 13.0584L7.35717 13.0654C7.37595 13.0719 7.40485 13.0817 7.443 13.0945C7.51933 13.1199 7.63254 13.157 7.77581 13.2018C8.06282 13.2914 8.46799 13.4113 8.93735 13.531C9.89383 13.775 11.0471 14 12 14C12.9529 14 14.1062 13.775 15.0626 13.531C15.532 13.4113 15.9372 13.2914 16.2242 13.2018C16.3675 13.157 16.4807 13.1199 16.557 13.0945C16.5952 13.0817 16.624 13.0719 16.6428 13.0654L16.6633 13.0584L16.6676 13.0568C16.9736 12.9492 17.3132 12.9965 17.5779 13.1839C17.8426 13.3714 18 13.6756 18 14C18 15.4854 17.0659 16.697 16 17.5182V18C16 20.2091 14.2091 22 12 22C9.79086 22 8 20.2091 8 18V17.5182C6.93412 16.697 6 15.4854 6 14C6 13.6756 6.15736 13.3714 6.4221 13.1839C6.68676 12.9965 7.02617 12.9492 7.33207 13.0567Z" fill="#0000CC"/>
<path fill-rule="evenodd" clip-rule="evenodd" d="M7.85156 9.34998C7.85156 8.52155 8.52313 7.84998 9.35156 7.84998C10.18 7.84998 10.8516 8.52155 10.8516 9.34998C10.8516 10.1784 10.18 10.85 9.35156 10.85C8.52313 10.85 7.85156 10.1784 7.85156 9.34998ZM13.25 9.29998C13.25 8.49916 13.8992 7.84998 14.7 7.84998C15.5008 7.84998 16.15 8.49916 16.15 9.29998C16.15 10.1008 15.5008 10.75 14.7 10.75C13.8992 10.75 13.25 10.1008 13.25 9.29998Z" fill="#0000CC"/>
</svg>
