<svg width="24" height="24" viewBox="0 0 24 24" fill="none" xmlns="http://www.w3.org/2000/svg">
<path opacity="0.3" d="M12 2C6.47715 2 2 6.47715 2 12C2 17.5228 6.47715 22 12 22C17.5228 22 22 17.5228 22 12C22 6.47715 17.5228 2 12 2Z" fill="#0000CC"/>
<path fill-rule="evenodd" clip-rule="evenodd" d="M8.51997 6.4989C8.66961 6.30903 8.99323 6 9.5 6C10.0068 6 10.3304 6.30903 10.48 6.4989C10.6386 6.70005 10.7376 6.92915 10.8022 7.12311C10.935 7.52148 11 8.00821 11 8.5C11 8.99179 10.935 9.47852 10.8022 9.87689C10.7376 10.0708 10.6386 10.2999 10.48 10.5011C10.3304 10.691 10.0068 11 9.5 11C8.99323 11 8.66961 10.691 8.51997 10.5011C8.36144 10.2999 8.26242 10.0708 8.19776 9.87689C8.06497 9.47852 8 8.99179 8 8.5C8 8.00821 8.06497 7.52148 8.19776 7.12311C8.26242 6.92915 8.36144 6.70005 8.51997 6.4989ZM13.52 6.4989C13.6696 6.30903 13.9932 6 14.5 6C15.0068 6 15.3304 6.30903 15.48 6.4989C15.6386 6.70005 15.7376 6.92915 15.8022 7.12311C15.935 7.52148 16 8.00821 16 8.5C16 8.99179 15.935 9.47852 15.8022 9.87689C15.7376 10.0708 15.6386 10.2999 15.48 10.5011C15.3304 10.691 15.0068 11 14.5 11C13.9932 11 13.6696 10.691 13.52 10.5011C13.3614 10.2999 13.2624 10.0708 13.1978 9.87689C13.065 9.47852 13 8.99179 13 8.5C13 8.00821 13.065 7.52148 13.1978 7.12311C13.2624 6.92915 13.3614 6.70005 13.52 6.4989ZM7.33189 13.0567C7.02598 12.9491 6.68676 12.9965 6.4221 13.1839C6.15736 13.3714 6 13.6756 6 14C6 15.5666 7.04268 16.8285 8.16012 17.6382C9.29205 18.4584 10.7429 19 12 19C13.2571 19 14.708 18.4584 15.8399 17.6382C16.9573 16.8285 18 15.5666 18 14C18 13.6756 17.8426 13.3714 17.5779 13.1839C17.3132 12.9965 16.9741 12.949 16.6681 13.0567L16.6633 13.0584L16.6428 13.0654C16.624 13.0719 16.5952 13.0817 16.557 13.0945C16.4807 13.1199 16.3675 13.157 16.2242 13.2018C15.9372 13.2914 15.532 13.4113 15.0626 13.531C14.1062 13.775 12.9529 14 12 14C11.0471 14 9.89383 13.775 8.93735 13.531C8.46799 13.4113 8.06282 13.2914 7.77581 13.2018C7.63254 13.157 7.51933 13.1199 7.443 13.0945C7.40485 13.0817 7.37595 13.0719 7.35717 13.0654L7.3367 13.0584L7.33189 13.0567Z" fill="#0000CC"/>
</svg>
