<svg width="24" height="24" viewBox="0 0 24 24" fill="none" xmlns="http://www.w3.org/2000/svg">
<path opacity="0.3" d="M12 2C6.47715 2 2 6.47715 2 12C2 17.5228 6.47715 22 12 22C17.5228 22 22 17.5228 22 12C22 6.47715 17.5228 2 12 2Z" fill="#0000CC"/>
<path fill-rule="evenodd" clip-rule="evenodd" d="M5.70047 9.39946C6.33726 8.5516 7.35438 8 8.50006 8C9.64574 8 10.6629 8.5516 11.2997 9.39946C11.6313 9.84106 11.5422 10.4679 11.1006 10.7996C10.659 11.1313 10.0321 11.0421 9.70047 10.6005C9.42514 10.234 8.99005 10 8.50006 10C8.01007 10 7.57498 10.234 7.29965 10.6005C6.96798 11.0421 6.34112 11.1313 5.89952 10.7996C5.45791 10.4679 5.3688 9.84106 5.70047 9.39946ZM12.7005 9.39946C13.3373 8.5516 14.3544 8 15.5001 8C16.6457 8 17.6629 8.5516 18.2997 9.39946C18.6313 9.84106 18.5422 10.4679 18.1006 10.7996C17.659 11.1313 17.0321 11.0421 16.7005 10.6005C16.4251 10.234 15.99 10 15.5001 10C15.0101 10 14.575 10.234 14.2997 10.6005C13.968 11.0421 13.3411 11.1313 12.8995 10.7996C12.4579 10.4679 12.3688 9.84106 12.7005 9.39946ZM9.00006 15C9.00006 13.3431 10.3432 12 12.0001 12C13.6569 12 15.0001 13.3431 15.0001 15V16C15.0001 17.6569 13.6569 19 12.0001 19C10.3432 19 9.00006 17.6569 9.00006 16V15ZM12.0001 14C11.4478 14 11.0001 14.4477 11.0001 15V16C11.0001 16.5523 11.4478 17 12.0001 17C12.5523 17 13.0001 16.5523 13.0001 16V15C13.0001 14.4477 12.5523 14 12.0001 14Z" fill="#0000CC"/>
<path d="M18.0001 20.0007V13C18.0001 12.4477 17.5523 12 17.0001 12C16.4478 12 16.0001 12.4477 16.0001 13V21C16.0001 21.0552 16.0045 21.1094 16.0131 21.1622C16.7223 20.8511 17.3884 20.4602 18.0001 20.0007Z" fill="#0000CC"/>
<path d="M7.98697 21.1622C7.99558 21.1094 8.00006 21.0552 8.00006 21V13C8.00006 12.4477 7.55234 12 7.00006 12C6.44777 12 6.00006 12.4477 6.00006 13V20.0007C6.61176 20.4602 7.27786 20.8511 7.98697 21.1622Z" fill="#0000CC"/>
</svg>
