<svg width="24" height="24" viewBox="0 0 24 24" fill="none" xmlns="http://www.w3.org/2000/svg">
<path opacity="0.3" d="M12 2C6.47715 2 2 6.47715 2 12C2 17.5228 6.47715 22 12 22C17.5228 22 22 17.5228 22 12C22 6.47715 17.5228 2 12 2Z" fill="#0000CC"/>
<path fill-rule="evenodd" clip-rule="evenodd" d="M10.5308 5.49367C10.999 5.78664 11.141 6.40367 10.8481 6.87185C10.0159 8.20166 8.749 9.23236 7.24367 9.76442C6.72296 9.94847 6.15164 9.67554 5.96759 9.15483C5.78354 8.63411 6.05647 8.06279 6.57718 7.87874C7.65004 7.49954 8.55692 6.76294 9.15266 5.81092C9.44563 5.34274 10.0627 5.20071 10.5308 5.49367ZM13.4698 5.49367C13.938 5.20071 14.555 5.34274 14.848 5.81092C15.4437 6.76294 16.3506 7.49954 17.4235 7.87874C17.9442 8.06279 18.2171 8.63411 18.0331 9.15483C17.849 9.67554 17.2777 9.94847 16.757 9.76442C15.2516 9.23236 13.9847 8.20166 13.1526 6.87185C12.8596 6.40367 13.0016 5.78664 13.4698 5.49367ZM6.64287 10.9855C6.92702 10.5119 7.54128 10.3583 8.01486 10.6425L10.5149 12.1425C10.8161 12.3232 11.0004 12.6487 11.0004 13C11.0004 13.3512 10.8161 13.6768 10.5149 13.8575L8.01486 15.3575C7.54128 15.6416 6.92702 15.4881 6.64287 15.0145C6.35873 14.5409 6.51229 13.9266 6.98587 13.6425L8.05672 13L6.98587 12.3575C6.51229 12.0733 6.35873 11.4591 6.64287 10.9855ZM17.3579 10.9855C17.642 11.4591 17.4884 12.0733 17.0149 12.3575L15.944 13L17.0149 13.6425C17.4884 13.9266 17.642 14.5409 17.3579 15.0145C17.0737 15.4881 16.4595 15.6416 15.9859 15.3575L13.4859 13.8575C13.1847 13.6768 13.0004 13.3512 13.0004 13C13.0004 12.6487 13.1847 12.3232 13.4859 12.1425L15.9859 10.6425C16.4595 10.3583 17.0737 10.5119 17.3579 10.9855ZM8.33653 17.2521C9.23891 16.4511 10.5807 16 12.0004 16C13.4201 16 14.7618 16.4511 15.6642 17.2521C16.0772 17.6187 16.1149 18.2508 15.7482 18.6638C15.3816 19.0769 14.7496 19.1145 14.3365 18.7479C13.8707 18.3344 13.0342 18 12.0004 18C10.9666 18 10.13 18.3344 9.66421 18.7479C9.25117 19.1145 8.61912 19.0769 8.25249 18.6638C7.88586 18.2508 7.92349 17.6187 8.33653 17.2521Z" fill="#0000CC"/>
</svg>
