<svg width="24" height="24" viewBox="0 0 24 24" fill="none" xmlns="http://www.w3.org/2000/svg">
<path opacity="0.3" fill-rule="evenodd" clip-rule="evenodd" d="M11.9994 4C11.4648 4 10.9435 4.05229 10.4398 4.15174C9.89799 4.25873 9.37202 3.90623 9.26504 3.3644C9.15805 2.82258 9.51055 2.29662 10.0524 2.18963C10.6829 2.06512 11.3341 2 11.9994 2C12.6645 2 13.3154 2.06506 13.9457 2.18948C14.4875 2.29642 14.8401 2.82236 14.7331 3.36419C14.6262 3.90602 14.1002 4.25857 13.5584 4.15162C13.0549 4.05225 12.5338 4 11.9994 4ZM7.83108 3.95924C8.1383 4.4182 8.01529 5.0393 7.55634 5.34651C6.68313 5.93102 5.93114 6.68301 5.34663 7.55621C5.03942 8.01517 4.41832 8.13818 3.95937 7.83096C3.50041 7.52375 3.3774 6.90265 3.68462 6.44369C4.4146 5.35315 5.35328 4.41448 6.44382 3.68449C6.90277 3.37728 7.52387 3.50029 7.83108 3.95924ZM16.169 3.95924C16.4762 3.50029 17.0973 3.37728 17.5563 3.68449C18.6468 4.41448 19.5855 5.35315 20.3155 6.44369C20.6227 6.90265 20.4997 7.52375 20.0407 7.83096C19.5818 8.13818 18.9607 8.01517 18.6534 7.55621C18.0689 6.68301 17.3169 5.93102 16.4437 5.34651C15.9848 5.0393 15.8618 4.4182 16.169 3.95924ZM20.6337 9.25968C21.1755 9.15232 21.7017 9.50446 21.809 10.0462C21.9344 10.6789 22 11.3323 22 12C22 12.6668 21.9346 13.3193 21.8095 13.9512C21.7023 14.493 21.1762 14.8453 20.6344 14.7381C20.0926 14.6308 19.7404 14.1047 19.8476 13.5629C19.9475 13.0582 20 12.5357 20 12C20 11.4635 19.9473 10.9403 19.8472 10.435C19.7398 9.89324 20.092 9.36704 20.6337 9.25968ZM3.36433 9.26589C3.90616 9.37286 4.25867 9.89881 4.1517 10.4406C4.05228 10.9442 4 11.4655 4 12C4 12.5361 4.05258 13.0588 4.15256 13.5638C4.25984 14.1055 3.90761 14.6317 3.36584 14.739C2.82408 14.8462 2.29793 14.494 2.19065 13.9522C2.06547 13.3201 2 12.6672 2 12C2 11.3348 2.0651 10.6837 2.18958 10.0533C2.29655 9.51143 2.8225 9.15891 3.36433 9.26589ZM3.95937 16.169C4.41832 15.8618 5.03942 15.9848 5.34663 16.4437C5.93114 17.3169 6.68313 18.0689 7.55634 18.6534C8.01529 18.9607 8.1383 19.5818 7.83108 20.0407C7.52387 20.4997 6.90277 20.6227 6.44382 20.3155C5.35328 19.5855 4.4146 18.6468 3.68462 17.5563C3.3774 17.0973 3.50041 16.4762 3.95937 16.169ZM20.0407 16.169C20.4997 16.4762 20.6227 17.0973 20.3155 17.5563C19.5855 18.6468 18.6468 19.5855 17.5563 20.3155C17.0973 20.6227 16.4762 20.4997 16.169 20.0407C15.8618 19.5818 15.9848 18.9607 16.4437 18.6534C17.3169 18.0689 18.0689 17.3169 18.6534 16.4437C18.9607 15.9848 19.5818 15.8618 20.0407 16.169ZM9.26123 20.6341C9.3685 20.0924 9.89465 19.7401 10.4364 19.8474C10.9413 19.9474 11.464 20 12.0001 20C12.5358 20 13.0583 19.9474 13.563 19.8475C14.1048 19.7403 14.6309 20.0926 14.7382 20.6344C14.8454 21.1761 14.4931 21.7023 13.9513 21.8095C13.3194 21.9345 12.6669 22 12.0001 22C11.3329 22 10.6801 21.9345 10.048 21.8093C9.50619 21.7021 9.15396 21.1759 9.26123 20.6341Z" fill="#0000CC"/>
<path fill-rule="evenodd" clip-rule="evenodd" d="M7.85156 9.3001C7.85156 8.49928 8.50075 7.8501 9.30156 7.8501C10.1024 7.8501 10.7516 8.49928 10.7516 9.3001C10.7516 10.1009 10.1024 10.7501 9.30156 10.7501C8.50075 10.7501 7.85156 10.1009 7.85156 9.3001ZM13.25 9.3001C13.25 8.49928 13.8992 7.8501 14.7 7.8501C15.5008 7.8501 16.15 8.49928 16.15 9.3001C16.15 10.1009 15.5008 10.7501 14.7 10.7501C13.8992 10.7501 13.25 10.1009 13.25 9.3001ZM8 16.0001C8 15.4478 8.44772 15.0001 9 15.0001H15C15.5523 15.0001 16 15.4478 16 16.0001C16 16.5524 15.5523 17.0001 15 17.0001H9C8.44772 17.0001 8 16.5524 8 16.0001Z" fill="#0000CC"/>
</svg>
