<svg width="24" height="24" viewBox="0 0 24 24" fill="none" xmlns="http://www.w3.org/2000/svg">
<path opacity="0.3" d="M12 2C6.47715 2 2 6.47715 2 12C2 17.5228 6.47715 22 12 22C17.5228 22 22 17.5228 22 12C22 6.47715 17.5228 2 12 2Z" fill="#0000CC"/>
<path fill-rule="evenodd" clip-rule="evenodd" d="M7.85168 9.3501C7.85168 8.52167 8.52325 7.8501 9.35168 7.8501C10.1801 7.8501 10.8517 8.52167 10.8517 9.3501C10.8517 10.1785 10.1801 10.8501 9.35168 10.8501C8.52325 10.8501 7.85168 10.1785 7.85168 9.3501ZM13.2501 9.3001C13.2501 8.49928 13.8993 7.8501 14.7001 7.8501C15.5009 7.8501 16.1501 8.49928 16.1501 9.3001C16.1501 10.1009 15.5009 10.7501 14.7001 10.7501C13.8993 10.7501 13.2501 10.1009 13.2501 9.3001Z" fill="#0000CC"/>
<path fill-rule="evenodd" clip-rule="evenodd" d="M16.023 14.5L16.0185 14.5001L16.0001 14.5006L15.9243 14.503C15.8574 14.5053 15.7588 14.509 15.6353 14.5149C15.3878 14.5268 15.0424 14.547 14.6521 14.5805C13.8527 14.6491 12.9359 14.7679 12.2814 14.9598C11.5555 15.1725 10.636 15.6264 9.85681 16.0588C9.47647 16.2698 9.14594 16.4665 8.91084 16.6101C8.79349 16.6818 8.70042 16.74 8.63739 16.7798C8.60588 16.7998 8.58192 16.815 8.56622 16.8251L8.54897 16.8362L8.54516 16.8386C8.08196 17.1393 7.46211 17.008 7.16139 16.5448C6.86064 16.0816 6.99235 15.4623 7.45556 15.1615L7.45845 15.1596L7.4647 15.1556L7.48703 15.1413C7.50619 15.129 7.5338 15.1114 7.56911 15.0891C7.63972 15.0444 7.74131 14.9809 7.86802 14.9035C8.12105 14.7489 8.47626 14.5376 8.88643 14.31C9.68819 13.8651 10.7688 13.319 11.7189 13.0405C12.5751 12.7895 13.6582 12.6584 14.4811 12.5878C14.902 12.5517 15.2734 12.5299 15.5399 12.5172C15.6733 12.5108 15.781 12.5067 15.8561 12.5041C15.8936 12.5029 15.923 12.502 15.9435 12.5014L15.9674 12.5007L15.9741 12.5006L15.9772 12.5005C16.5293 12.4878 16.9872 12.9252 16.9999 13.4773C17.0125 14.0294 16.5751 14.4872 16.023 14.5Z" fill="#0000CC"/>
</svg>
