<svg width="24" height="24" viewBox="0 0 24 24" fill="none" xmlns="http://www.w3.org/2000/svg">
<path opacity="0.3" d="M12 2C6.47715 2 2 6.47715 2 12C2 17.5228 6.47715 22 12 22C17.5228 22 22 17.5228 22 12C22 6.47715 17.5228 2 12 2Z" fill="#0000CC"/>
<path fill-rule="evenodd" clip-rule="evenodd" d="M6 10C6 9.44772 6.44772 9 7 9H10C10.5523 9 11 9.44772 11 10C11 10.5523 10.5523 11 10 11H7C6.44772 11 6 10.5523 6 10ZM13 10C13 9.44772 13.4477 9 14 9H17C17.5523 9 18 9.44772 18 10C18 10.5523 17.5523 11 17 11H14C13.4477 11 13 10.5523 13 10ZM7 16C7 15.4477 7.44772 15 8 15H16C16.5523 15 17 15.4477 17 16C17 16.5523 16.5523 17 16 17H8C7.44772 17 7 16.5523 7 16Z" fill="#0000CC"/>
</svg>
