<svg width="24" height="24" viewBox="0 0 24 24" fill="none" xmlns="http://www.w3.org/2000/svg">
<path opacity="0.3" d="M12 2C6.47715 2 2 6.47715 2 12C2 17.5228 6.47715 22 12 22C17.5228 22 22 17.5228 22 12C22 6.47715 17.5228 2 12 2Z" fill="#0000CC"/>
<path fill-rule="evenodd" clip-rule="evenodd" d="M10.5308 5.49374C10.999 5.7867 11.141 6.40373 10.8481 6.87191C10.0159 8.20172 8.749 9.23243 7.24367 9.76448C6.72296 9.94853 6.15164 9.6756 5.96759 9.15489C5.78354 8.63417 6.05647 8.06285 6.57718 7.8788C7.65004 7.4996 8.55692 6.763 9.15266 5.81098C9.44563 5.3428 10.0627 5.20077 10.5308 5.49374ZM13.4699 5.49374C13.9381 5.20077 14.5551 5.3428 14.8481 5.81098C15.4438 6.763 16.3507 7.4996 17.4236 7.8788C17.9443 8.06285 18.2172 8.63417 18.0331 9.15489C17.8491 9.6756 17.2778 9.94853 16.7571 9.76448C15.2517 9.23243 13.9848 8.20172 13.1527 6.87191C12.8597 6.40373 13.0017 5.7867 13.4699 5.49374ZM6.18909 11.4154C6.51198 10.9673 7.13697 10.8658 7.58502 11.1887C7.87292 11.3962 8.1837 11.5 8.50037 11.5C8.81703 11.5 9.12781 11.3962 9.41571 11.1887C9.86377 10.8658 10.4888 10.9673 10.8116 11.4154C11.1345 11.8634 11.0331 12.4884 10.585 12.8113C9.9904 13.2398 9.27657 13.5 8.50037 13.5C7.72417 13.5 7.01033 13.2398 6.41571 12.8113C5.96765 12.4884 5.86619 11.8634 6.18909 11.4154ZM13.1891 11.4154C13.512 10.9673 14.137 10.8658 14.585 11.1887C14.8729 11.3962 15.1837 11.5 15.5004 11.5C15.817 11.5 16.1278 11.3962 16.4157 11.1887C16.8638 10.8658 17.4888 10.9673 17.8116 11.4154C18.1345 11.8634 18.0331 12.4884 17.585 12.8113C16.9904 13.2398 16.2766 13.5 15.5004 13.5C14.7242 13.5 14.0103 13.2398 13.4157 12.8113C12.9677 12.4884 12.8662 11.8634 13.1891 11.4154ZM9.00037 17C9.00037 16.4477 9.44808 16 10.0004 16H14.0004C14.5527 16 15.0004 16.4477 15.0004 17C15.0004 17.5523 14.5527 18 14.0004 18H10.0004C9.44808 18 9.00037 17.5523 9.00037 17Z" fill="#0000CC"/>
</svg>
