<svg width="24" height="24" viewBox="0 0 24 24" fill="none" xmlns="http://www.w3.org/2000/svg">
<path opacity="0.3" d="M12 2C6.47715 2 2 6.47715 2 12C2 17.5228 6.47715 22 12 22C17.5228 22 22 17.5228 22 12C22 6.47715 17.5228 2 12 2Z" fill="#0000CC"/>
<path fill-rule="evenodd" clip-rule="evenodd" d="M6.64266 7.48553C6.92681 7.01195 7.54107 6.85839 8.01465 7.14254L10.5146 8.64254C10.8159 8.82326 11.0002 9.14877 11.0002 9.50003C11.0002 9.85129 10.8159 10.1768 10.5146 10.3575L8.01465 11.8575C7.54107 12.1417 6.92681 11.9881 6.64266 11.5145C6.35851 11.0409 6.51208 10.4267 6.98566 10.1425L8.0565 9.50003L6.98566 8.85752C6.51208 8.57337 6.35851 7.95911 6.64266 7.48553ZM17.3576 7.48553C17.6418 7.95911 17.4882 8.57337 17.0146 8.85752L15.9438 9.50003L17.0146 10.1425C17.4882 10.4267 17.6418 11.0409 17.3576 11.5145C17.0735 11.9881 16.4592 12.1417 15.9857 11.8575L13.4857 10.3575C13.1845 10.1768 13.0002 9.85129 13.0002 9.50003C13.0002 9.14877 13.1845 8.82326 13.4857 8.64254L15.9857 7.14254C16.4592 6.85839 17.0735 7.01195 17.3576 7.48553ZM7.10988 16.1608C7.45095 13.7734 9.49565 12 11.9073 12H12.093C14.5047 12 16.5494 13.7734 16.8904 16.1608C17.0383 17.1963 16.1066 18.033 15.1132 17.8316C14.2776 17.6621 12.9403 17.4286 12.0002 17.4286C11.06 17.4286 9.72268 17.6621 8.88705 17.8316C7.89375 18.033 6.96195 17.1963 7.10988 16.1608Z" fill="#0000CC"/>
</svg>
