<svg width="24" height="24" viewBox="0 0 24 24" fill="none" xmlns="http://www.w3.org/2000/svg">
<path opacity="0.3" d="M12 2C6.47715 2 2 6.47715 2 12C2 17.5228 6.47715 22 12 22C17.5228 22 22 17.5228 22 12C22 6.47715 17.5228 2 12 2Z" fill="#0000CC"/>
<path fill-rule="evenodd" clip-rule="evenodd" d="M16.0001 3C16.0001 2.44772 16.4478 2 17.0001 2H20.0001C20.3788 2 20.7251 2.214 20.8945 2.55279C21.0639 2.89157 21.0273 3.29698 20.8001 3.6L19.0001 6H20.0001C20.5523 6 21.0001 6.44772 21.0001 7C21.0001 7.55228 20.5523 8 20.0001 8H17.0001C16.6213 8 16.275 7.786 16.1056 7.44721C15.9362 7.10843 15.9728 6.70302 16.2001 6.4L18.0001 4H17.0001C16.4478 4 16.0001 3.55228 16.0001 3ZM5.89952 9.20041C6.34112 8.86874 6.96798 8.95785 7.29965 9.39946C7.57498 9.76605 8.01007 10 8.50006 10C8.99005 10 9.42514 9.76605 9.70047 9.39946C10.0321 8.95785 10.659 8.86874 11.1006 9.20041C11.5422 9.53208 11.6313 10.1589 11.2997 10.6005C10.6629 11.4484 9.64574 12 8.50006 12C7.35438 12 6.33726 11.4484 5.70047 10.6005C5.3688 10.1589 5.45791 9.53208 5.89952 9.20041ZM12.8995 9.20041C13.3411 8.86874 13.968 8.95785 14.2997 9.39946C14.575 9.76605 15.0101 10 15.5001 10C15.99 10 16.4251 9.76605 16.7005 9.39946C17.0321 8.95785 17.659 8.86874 18.1006 9.20041C18.5422 9.53208 18.6313 10.1589 18.2997 10.6005C17.6629 11.4484 16.6457 12 15.5001 12C14.3544 12 13.3373 11.4484 12.7005 10.6005C12.3688 10.1589 12.4579 9.53208 12.8995 9.20041ZM9.00006 16C9.00006 14.3431 10.3432 13 12.0001 13C13.6569 13 15.0001 14.3431 15.0001 16C15.0001 17.6569 13.6569 19 12.0001 19C10.3432 19 9.00006 17.6569 9.00006 16Z" fill="#0000CC"/>
</svg>
