<svg width="24" height="24" viewBox="0 0 24 24" fill="none" xmlns="http://www.w3.org/2000/svg">
<path opacity="0.3" d="M12 2C6.47715 2 2 6.47715 2 12C2 17.5228 6.47715 22 12 22C17.5228 22 22 17.5228 22 12C22 6.47715 17.5228 2 12 2Z" fill="#0000CC"/>
<path fill-rule="evenodd" clip-rule="evenodd" d="M6.10584 9.05276C6.35283 8.55878 6.95351 8.35856 7.44748 8.60555L10.4475 10.1055C10.8092 10.2864 11.0264 10.6674 10.9978 11.0709C10.9691 11.4743 10.7002 11.8208 10.3165 11.9487L7.3165 12.9487C6.79256 13.1233 6.22624 12.8401 6.05159 12.3162C5.87694 11.7923 6.1601 11.2259 6.68404 11.0513L7.39372 10.8147L6.55306 10.3944C6.05908 10.1474 5.85885 9.54674 6.10584 9.05276ZM17.8947 9.05276C18.1417 9.54674 17.9415 10.1474 17.4475 10.3944L16.6068 10.8147L17.3165 11.0513C17.8404 11.2259 18.1236 11.7923 17.949 12.3162C17.7743 12.8401 17.208 13.1233 16.684 12.9487L13.684 11.9487C13.3003 11.8208 13.0315 11.4743 13.0028 11.0709C12.9741 10.6674 13.1913 10.2864 13.5531 10.1055L16.5531 8.60555C17.047 8.35856 17.6477 8.55878 17.8947 9.05276ZM9.29316 14.2929C9.64506 13.941 10.2022 13.9014 10.6003 14.2L12.0003 15.25L13.4003 14.2C13.7984 13.9014 14.3555 13.941 14.7074 14.2929L15.7704 15.3559L16.684 15.0513C17.208 14.8766 17.7743 15.1598 17.949 15.6837C18.1236 16.2077 17.8404 16.774 17.3165 16.9487L15.8165 17.4487C15.4572 17.5684 15.061 17.4749 14.7932 17.2071L13.9064 16.3204L12.6003 17.3C12.2447 17.5666 11.7558 17.5666 11.4003 17.3L10.0941 16.3204L9.20738 17.2071C8.93955 17.4749 8.54338 17.5684 8.18404 17.4487L6.68404 16.9487C6.1601 16.774 5.87694 16.2077 6.05159 15.6837C6.22624 15.1598 6.79256 14.8766 7.3165 15.0513L8.23018 15.3559L9.29316 14.2929Z" fill="#0000CC"/>
</svg>
