<svg width="24" height="24" viewBox="0 0 24 24" fill="none" xmlns="http://www.w3.org/2000/svg">
<path opacity="0.3" fill-rule="evenodd" clip-rule="evenodd" d="M6.03814 17.4023C6.02162 17.5714 5.96554 17.7156 5.94401 17.7646L5.94265 17.7676L5.93886 17.7756L5.93503 17.7836L5.93368 17.7864C5.93052 17.7928 5.9278 17.7982 5.91235 17.8283C5.84524 17.9592 5.65261 18.3109 5.39549 18.6157C5.26752 18.7674 5.14854 18.8773 5.04907 18.9434C4.98286 18.9874 4.94709 18.9979 4.93818 19H4C3.44772 19 3 19.4477 3 20C3 20.5523 3.44772 21 4 21H19C19.5523 21 20 20.5523 20 20C20 19.4477 19.5523 19 19 19H18.5C18.2239 19 18 18.7761 18 18.5C18 18.2239 18.2239 18 18.5 18H21C21.4905 18 21.9085 17.6443 21.9871 17.1602C22.0655 16.6771 21.7828 16.2085 21.3193 16.0523L21.3167 16.0515L21.3148 16.0508C21.3091 16.0488 21.2984 16.0449 21.2833 16.0393C21.2531 16.0281 21.2057 16.0098 21.1459 15.9846C21.0249 15.9337 20.8594 15.8572 20.6836 15.7568C20.2981 15.5365 20.01 15.2839 19.8944 15.0528C19.8424 14.9487 19.7905 14.7516 19.7771 14.4266C19.764 14.112 19.7892 13.7468 19.8359 13.3506C19.872 13.044 19.9176 12.745 19.9628 12.4484C19.9763 12.3597 19.9898 12.2711 20.003 12.1827C20.0557 11.8291 20.1111 11.4338 20.1111 11.1111C20.1111 6.57522 16.2227 3 11.5556 3C6.88843 3 3 6.57522 3 11.1111C3 12.4563 3.6883 13.6728 4.32426 14.6075C4.5826 14.9872 4.85853 15.3562 5.10469 15.6855C5.1683 15.7705 5.22993 15.853 5.28877 15.9322C5.59104 16.3396 5.81314 16.6556 5.95022 16.9136C6.03512 17.0734 6.05405 17.2395 6.03814 17.4023Z" fill="#0000CC"/>
<path fill-rule="evenodd" clip-rule="evenodd" d="M8.52989 8.34701C8.7443 7.54681 9.56681 7.07193 10.367 7.28635C11.1672 7.50076 11.6421 8.32326 11.4277 9.12346C11.2133 9.92366 10.3907 10.3985 9.59055 10.1841C8.79035 9.96971 8.31548 9.1472 8.52989 8.34701ZM13.7577 9.69593C13.9649 8.9224 14.76 8.46336 15.5336 8.67062C16.3071 8.87789 16.7661 9.67298 16.5589 10.4465C16.3516 11.22 15.5565 11.6791 14.783 11.4718C14.0094 11.2645 13.5504 10.4695 13.7577 9.69593ZM7.76928 11.1435C8.26472 10.8994 8.86419 11.1032 9.10824 11.5986C9.50787 12.41 10.3399 13.1287 11.4625 13.4295C12.585 13.7303 13.6649 13.5238 14.4167 13.021C14.8758 12.714 15.4968 12.8372 15.8039 13.2963C16.1109 13.7554 15.9877 14.3764 15.5286 14.6835C14.267 15.5273 12.5871 15.8014 10.9448 15.3613C9.30251 14.9213 7.98476 13.844 7.31409 12.4824C7.07004 11.987 7.27384 11.3875 7.76928 11.1435Z" fill="#0000CC"/>
</svg>
