<svg width="24" height="24" viewBox="0 0 24 24" fill="none" xmlns="http://www.w3.org/2000/svg">
<path opacity="0.3" fill-rule="evenodd" clip-rule="evenodd" d="M12 2C6.47715 2 2 6.47715 2 12C2 17.5228 6.47715 22 12 22C17.5228 22 22 17.5228 22 12C22 6.47715 17.5228 2 12 2Z" fill="#0000CC"/>
<path fill-rule="evenodd" clip-rule="evenodd" d="M7.85014 9.3001C7.85014 8.49928 8.49933 7.8501 9.30014 7.8501C10.101 7.8501 10.7501 8.49928 10.7501 9.3001C10.7501 10.1009 10.101 10.7501 9.30014 10.7501C8.49933 10.7501 7.85014 10.1009 7.85014 9.3001ZM13.2501 9.3001C13.2501 8.49928 13.8993 7.8501 14.7001 7.8501C15.501 7.8501 16.1501 8.49928 16.1501 9.3001C16.1501 10.1009 15.501 10.7501 14.7001 10.7501C13.8993 10.7501 13.2501 10.1009 13.2501 9.3001ZM7.60063 14.4007L7.60228 14.4029L7.60493 14.4064L7.61181 14.4154L7.6318 14.441C7.64789 14.4613 7.66951 14.4881 7.69657 14.5203C7.75062 14.5847 7.82678 14.6715 7.92425 14.7733C8.11835 14.9758 8.4017 15.2423 8.76822 15.5088C9.49741 16.0392 10.5996 16.6001 12.0001 16.6001C13.4007 16.6001 14.5029 16.0392 15.2321 15.5088C15.5986 15.2423 15.8819 14.9758 16.076 14.7733C16.1735 14.6715 16.2497 14.5847 16.3037 14.5203C16.3308 14.4881 16.3524 14.4613 16.3685 14.441L16.3885 14.4154L16.3953 14.4064L16.398 14.4029L16.3991 14.4014L16.4001 14.4001C16.7315 13.9583 16.642 13.3315 16.2001 13.0001C15.7598 12.6698 15.1357 12.7577 14.8035 13.1956L14.8004 13.1996C14.7956 13.2057 14.786 13.2176 14.7718 13.2346C14.7432 13.2686 14.6963 13.3224 14.6321 13.3894C14.5027 13.5244 14.3079 13.7079 14.0557 13.8914C13.5474 14.261 12.8496 14.6001 12.0001 14.6001C11.1507 14.6001 10.4529 14.261 9.94456 13.8914C9.69233 13.7079 9.49755 13.5244 9.36822 13.3894C9.30397 13.3224 9.25708 13.2686 9.22852 13.2346C9.21427 13.2176 9.20469 13.2057 9.1999 13.1996L9.1968 13.1957C8.86457 12.7577 8.24049 12.6698 7.80014 13.0001C7.35831 13.3315 7.26925 13.9589 7.60063 14.4007Z" fill="#0000CC"/>
</svg>
