<svg width="24" height="24" viewBox="0 0 24 24" fill="none" xmlns="http://www.w3.org/2000/svg">
<path opacity="0.3" d="M12 2C6.47715 2 2 6.47715 2 12C2 17.5228 6.47715 22 12 22C17.5228 22 22 17.5228 22 12C22 6.47715 17.5228 2 12 2Z" fill="#0000CC"/>
<path fill-rule="evenodd" clip-rule="evenodd" d="M6.10584 7.05276C6.35283 6.55878 6.95351 6.35856 7.44748 6.60555L10.4475 8.10555C10.8092 8.28643 11.0264 8.66742 10.9978 9.07086C10.9691 9.47431 10.7002 9.82076 10.3165 9.94866L7.3165 10.9487C6.79256 11.1233 6.22624 10.8401 6.05159 10.3162C5.87694 9.79226 6.1601 9.22594 6.68404 9.05129L7.39372 8.81473L6.55306 8.3944C6.05908 8.14741 5.85885 7.54674 6.10584 7.05276ZM17.8947 7.05276C18.1417 7.54674 17.9415 8.14741 17.4475 8.3944L16.6068 8.81473L17.3165 9.05129C17.8404 9.22594 18.1236 9.79226 17.949 10.3162C17.7743 10.8401 17.208 11.1233 16.684 10.9487L13.684 9.94866C13.3003 9.82076 13.0315 9.47431 13.0028 9.07086C12.9741 8.66742 13.1913 8.28643 13.5531 8.10555L16.5531 6.60555C17.047 6.35856 17.6477 6.55878 17.8947 7.05276ZM7.00027 14C7.00027 13.4477 7.44799 13 8.00027 13H16.0003C16.5526 13 17.0003 13.4477 17.0003 14C17.0003 16.7614 14.7617 19 12.0003 19C9.23885 19 7.00027 16.7614 7.00027 14Z" fill="#0000CC"/>
</svg>
