<svg width="24" height="24" viewBox="0 0 24 24" fill="none" xmlns="http://www.w3.org/2000/svg">
<path opacity="0.3" d="M12 2C6.47715 2 2 6.47715 2 12C2 17.5228 6.47715 22 12 22C17.5228 22 22 17.5228 22 12C22 6.47715 17.5228 2 12 2Z" fill="#0000CC"/>
<path fill-rule="evenodd" clip-rule="evenodd" d="M7.85162 9.3501C7.85162 8.52167 8.52319 7.8501 9.35162 7.8501C10.18 7.8501 10.8516 8.52167 10.8516 9.3501C10.8516 10.1785 10.18 10.8501 9.35162 10.8501C8.52319 10.8501 7.85162 10.1785 7.85162 9.3501ZM13.2501 9.3001C13.2501 8.49928 13.8992 7.8501 14.7001 7.8501C15.5009 7.8501 16.1501 8.49928 16.1501 9.3001C16.1501 10.1009 15.5009 10.7501 14.7001 10.7501C13.8992 10.7501 13.2501 10.1009 13.2501 9.3001ZM7.39948 14.2004C7.84107 13.8687 8.46793 13.9578 8.79962 14.3994C9.53108 15.3732 10.6924 16 12.0004 16C13.3084 16 14.4698 15.3732 15.2012 14.3994C15.5329 13.9578 16.1598 13.8687 16.6014 14.2004C17.043 14.5321 17.132 15.159 16.8004 15.6006C15.7074 17.0557 13.9641 18 12.0004 18C10.0368 18 8.29345 17.0557 7.20049 15.6006C6.8688 15.159 6.95789 14.5321 7.39948 14.2004Z" fill="#0000CC"/>
</svg>
