<svg width="24" height="24" viewBox="0 0 24 24" fill="none" xmlns="http://www.w3.org/2000/svg">
<path opacity="0.3" d="M12 2C6.47715 2 2 6.47715 2 12C2 17.5228 6.47715 22 12 22C17.5228 22 22 17.5228 22 12C22 6.47715 17.5228 2 12 2Z" fill="#0000CC"/>
<path fill-rule="evenodd" clip-rule="evenodd" d="M7.85162 9.34998C7.85162 8.52155 8.52319 7.84998 9.35162 7.84998C10.18 7.84998 10.8516 8.52155 10.8516 9.34998C10.8516 10.1784 10.18 10.85 9.35162 10.85C8.52319 10.85 7.85162 10.1784 7.85162 9.34998ZM13.2501 9.29998C13.2501 8.49916 13.8992 7.84998 14.7001 7.84998C15.5009 7.84998 16.1501 8.49916 16.1501 9.29998C16.1501 10.1008 15.5009 10.75 14.7001 10.75C13.8992 10.75 13.2501 10.1008 13.2501 9.29998ZM8.59416 13.9666C9.46728 13.3752 10.5618 13 12.0004 13C13.439 13 14.5334 13.3752 15.4064 13.9667C16.254 14.5409 16.8385 15.2855 17.2996 15.8994C17.6313 16.341 17.5422 16.9679 17.1006 17.2996C16.659 17.6313 16.0322 17.5422 15.7005 17.1006C15.2494 16.5001 14.8339 15.9946 14.2846 15.6225C13.7608 15.2675 13.0614 15 12.0004 15C10.9394 15 10.2399 15.2675 9.71576 15.6225C9.1663 15.9947 8.75058 16.5002 8.29962 17.1006C7.96793 17.5422 7.34107 17.6313 6.89948 17.2996C6.45789 16.9679 6.3688 16.341 6.70049 15.8994C7.16174 15.2853 7.74639 14.5409 8.59416 13.9666Z" fill="#0000CC"/>
</svg>
