<svg width="24" height="24" viewBox="0 0 24 24" fill="none" xmlns="http://www.w3.org/2000/svg">
<path opacity="0.3" fill-rule="evenodd" clip-rule="evenodd" d="M12 2C6.47715 2 2 6.47715 2 12C2 17.5228 6.47715 22 12 22C17.5228 22 22 17.5228 22 12C22 6.47715 17.5228 2 12 2Z" fill="#0000CC"/>
<path fill-rule="evenodd" clip-rule="evenodd" d="M7.85045 9.3001C7.85045 8.49928 8.49964 7.8501 9.30045 7.8501C10.1013 7.8501 10.7505 8.49928 10.7505 9.3001C10.7505 10.1009 10.1013 10.7501 9.30045 10.7501C8.49964 10.7501 7.85045 10.1009 7.85045 9.3001ZM13.2505 9.3001C13.2505 8.49928 13.8996 7.8501 14.7004 7.8501C15.5013 7.8501 16.1504 8.49928 16.1504 9.3001C16.1504 10.1009 15.5013 10.7501 14.7004 10.7501C13.8996 10.7501 13.2505 10.1009 13.2505 9.3001ZM12.0005 12.8001C10.5999 12.8001 9.49772 13.361 8.76853 13.8914C8.40201 14.1579 8.11866 14.4244 7.92455 14.6269C7.82709 14.7286 7.75093 14.8155 7.69688 14.8799C7.66982 14.9121 7.6482 14.9389 7.63211 14.9592L7.61212 14.9848L7.60524 14.9937L7.60259 14.9973L7.60145 14.9988L7.60045 15.0001C7.26908 15.4419 7.35862 16.0687 7.80045 16.4001C8.24208 16.7313 8.86872 16.6419 9.20021 16.2006C9.205 16.1945 9.21458 16.1826 9.22883 16.1656C9.25739 16.1316 9.30428 16.0778 9.36853 16.0108C9.49786 15.8758 9.69264 15.6923 9.94487 15.5088C10.4532 15.1392 11.151 14.8001 12.0005 14.8001C12.8499 14.8001 13.5477 15.1392 14.056 15.5088C14.3083 15.6923 14.503 15.8758 14.6324 16.0108C14.6966 16.0778 14.7435 16.1316 14.7721 16.1656C14.7863 16.1826 14.7959 16.1945 14.8007 16.2006L14.8038 16.2045C15.136 16.6425 15.7601 16.7304 16.2004 16.4001C16.6423 16.0687 16.7318 15.4419 16.4004 15.0001L16.3994 14.9988L16.3983 14.9973L16.3957 14.9937L16.3888 14.9848L16.3688 14.9592C16.3527 14.9389 16.3311 14.9121 16.304 14.8799C16.25 14.8155 16.1738 14.7286 16.0763 14.6269C15.8822 14.4244 15.5989 14.1579 15.2324 13.8914C14.5032 13.361 13.401 12.8001 12.0005 12.8001Z" fill="#0000CC"/>
</svg>
