<svg width="24" height="24" viewBox="0 0 24 24" fill="none" xmlns="http://www.w3.org/2000/svg">
<path opacity="0.3" d="M12 2C6.47715 2 2 6.47715 2 12C2 17.5228 6.47715 22 12 22C17.5228 22 22 17.5228 22 12C22 6.47715 17.5228 2 12 2Z" fill="#0000CC"/>
<path fill-rule="evenodd" clip-rule="evenodd" d="M8.50007 10C8.18341 10 7.87263 10.1038 7.58473 10.3113C7.13667 10.6342 6.51169 10.5327 6.18879 10.0847C5.8659 9.6366 5.96736 9.01162 6.41542 8.68872C7.01004 8.2602 7.72388 8 8.50007 8C9.27627 8 9.99011 8.2602 10.5847 8.68872C11.0328 9.01162 11.1343 9.6366 10.8114 10.0847C10.4885 10.5327 9.86347 10.6342 9.41542 10.3113C9.12752 10.1038 8.81674 10 8.50007 10ZM15.5001 10C15.1834 10 14.8726 10.1038 14.5847 10.3113C14.1367 10.6342 13.5117 10.5327 13.1888 10.0847C12.8659 9.6366 12.9674 9.01162 13.4154 8.68872C14.01 8.2602 14.7239 8 15.5001 8C16.2763 8 16.9901 8.2602 17.5847 8.68872C18.0328 9.01162 18.1343 9.6366 17.8114 10.0847C17.4885 10.5327 16.8635 10.6342 16.4154 10.3113C16.1275 10.1038 15.8167 10 15.5001 10ZM11.1056 13.5528C11.3526 13.0588 11.9533 12.8586 12.4473 13.1056L13.4473 13.6056C14.3925 14.0782 14.5602 15.2716 13.9503 16C14.5602 16.7284 14.3925 17.9218 13.4473 18.3944L12.4473 18.8944C11.9533 19.1414 11.3526 18.9412 11.1056 18.4472C10.8587 17.9532 11.0589 17.3526 11.5529 17.1056L11.9706 16.8967C11.5979 16.3645 11.5979 15.6355 11.9706 15.1033L11.5529 14.8944C11.0589 14.6474 10.8587 14.0468 11.1056 13.5528Z" fill="#0000CC"/>
</svg>
