<svg width="24" height="24" viewBox="0 0 24 24" fill="none" xmlns="http://www.w3.org/2000/svg">
<path opacity="0.3" d="M12 2C6.47715 2 2 6.47715 2 12C2 17.5228 6.47715 22 12 22C17.5228 22 22 17.5228 22 12C22 6.47715 17.5228 2 12 2Z" fill="#0000CC"/>
<path fill-rule="evenodd" clip-rule="evenodd" d="M7.85156 9.29998C7.85156 8.49916 8.50075 7.84998 9.30156 7.84998C10.1024 7.84998 10.7516 8.49916 10.7516 9.29998C10.7516 10.1008 10.1024 10.75 9.30156 10.75C8.50075 10.75 7.85156 10.1008 7.85156 9.29998ZM15.5 10C15.1833 10 14.8726 10.1038 14.5847 10.3113C14.1366 10.6342 13.5116 10.5327 13.1887 10.0847C12.8658 9.6366 12.9673 9.01162 13.4153 8.68872C14.01 8.2602 14.7238 8 15.5 8C16.2762 8 16.99 8.2602 17.5847 8.68872C18.0327 9.01162 18.1342 9.6366 17.8113 10.0847C17.4884 10.5327 16.8634 10.6342 16.4153 10.3113C16.1274 10.1038 15.8167 10 15.5 10ZM11.1056 13.5528C11.3526 13.0588 11.9532 12.8586 12.4472 13.1056L13.4472 13.6056C14.3924 14.0782 14.5601 15.2716 13.9502 16C14.5601 16.7284 14.3924 17.9218 13.4472 18.3944L12.4472 18.8944C11.9532 19.1414 11.3526 18.9412 11.1056 18.4472C10.8586 17.9532 11.0588 17.3526 11.5528 17.1056L11.9706 16.8967C11.5978 16.3645 11.5978 15.6355 11.9706 15.1033L11.5528 14.8944C11.0588 14.6474 10.8586 14.0468 11.1056 13.5528ZM19.1269 16.4981C18.7591 15.8516 18.0703 15.3723 17.1479 15.4599C15.9661 15.572 15.0937 16.5717 15.1543 17.7519C15.1725 18.1067 15.2725 18.6369 15.3622 19.0681C15.4572 19.5252 15.5612 19.9651 15.613 20.18L15.6137 20.1829C15.6173 20.198 15.6309 20.2557 15.6492 20.3114C15.6735 20.3859 15.7242 20.5185 15.8326 20.6551C15.9652 20.8222 16.1441 20.9474 16.3465 21.0149C16.5119 21.07 16.6539 21.0723 16.7321 21.0697C16.7907 21.0678 16.8497 21.0609 16.8651 21.0591L16.868 21.0588C17.0877 21.034 17.5366 20.9812 17.9986 20.9142C18.4345 20.8509 18.9669 20.7635 19.3065 20.6593C20.4225 20.3168 21.097 19.1613 20.775 17.9889C20.5323 17.1054 19.8568 16.6222 19.1269 16.4981Z" fill="#0000CC"/>
</svg>
