<svg width="24" height="24" viewBox="0 0 24 24" fill="none" xmlns="http://www.w3.org/2000/svg">
<path opacity="0.3" d="M12 2C6.47715 2 2 6.47715 2 12C2 17.5228 6.47715 22 12 22C17.5228 22 22 17.5228 22 12C22 6.47715 17.5228 2 12 2Z" fill="#0000CC"/>
<path fill-rule="evenodd" clip-rule="evenodd" d="M6.64887 7.84514C7.11843 7.36535 7.74696 7 8.49923 7C9.2515 7 9.88003 7.36535 10.3496 7.84514C10.8154 8.32107 11.1748 8.95438 11.4354 9.64844C11.6296 10.1655 11.3678 10.742 10.8508 10.9362C10.3338 11.1303 9.75723 10.8686 9.56306 10.3516C9.36764 9.83117 9.13596 9.46448 8.9202 9.24402C8.70823 9.02743 8.5648 9 8.49923 9C8.43366 9 8.29023 9.02743 8.07826 9.24402C7.8625 9.46448 7.63082 9.83117 7.4354 10.3516C7.24124 10.8686 6.6647 11.1303 6.14767 10.9362C5.63064 10.742 5.3689 10.1655 5.56306 9.64844C5.82371 8.95438 6.1831 8.32107 6.64887 7.84514ZM13.6489 7.84514C14.1184 7.36535 14.747 7 15.4992 7C16.2515 7 16.88 7.36535 17.3496 7.84514C17.8154 8.32107 18.1748 8.95438 18.4354 9.64844C18.6296 10.1655 18.3678 10.742 17.8508 10.9362C17.3338 11.1303 16.7572 10.8686 16.5631 10.3516C16.3676 9.83117 16.136 9.46448 15.9202 9.24402C15.7082 9.02743 15.5648 9 15.4992 9C15.4337 9 15.2902 9.02743 15.0783 9.24402C14.8625 9.46448 14.6308 9.83117 14.4354 10.3516C14.2412 10.8686 13.6647 11.1303 13.1477 10.9362C12.6306 10.742 12.3689 10.1655 12.5631 9.64844C12.8237 8.95438 13.1831 8.32107 13.6489 7.84514ZM5.91673 12.0138C6.46141 11.9224 6.97703 12.2899 7.06841 12.8345C7.46501 15.1985 9.52273 17 11.9992 17C12.9143 17 13.769 16.7551 14.505 16.3278C15.7468 15.6068 16.6482 14.3681 16.9162 12.9118C16.9806 12.5617 17.2262 12.2723 17.5612 12.1518C17.8961 12.0313 18.2698 12.0979 18.5425 12.3267L20.6019 14.0548C22.0827 15.2973 22.2758 17.505 21.0333 18.9857C19.7908 20.4665 17.5832 20.6597 16.1024 19.4171L14.8721 18.3848C13.9948 18.7801 13.0218 19 11.9992 19C8.52974 19 5.65152 16.4769 5.09597 13.1655C5.00459 12.6208 5.37206 12.1052 5.91673 12.0138Z" fill="#0000CC"/>
</svg>
