<svg width="24" height="24" viewBox="0 0 24 24" fill="none" xmlns="http://www.w3.org/2000/svg">
<path opacity="0.3" d="M2.82118 8.2771C2.71018 8.38313 2.62277 8.51547 2.56928 8.6668C2.20032 9.71068 2 10.833 2 12C2 17.5229 6.47715 22 12 22C17.5228 22 22 17.5229 22 12C22 10.833 21.7997 9.71068 21.4307 8.6668C21.3772 8.51547 21.2898 8.38313 21.1788 8.2771C20.5166 8.67036 19.7196 8.96699 18.8993 9.19485C17.0515 9.70811 14.613 10 12 10C9.38704 10 6.9485 9.70811 5.10075 9.19485C4.28045 8.96699 3.48337 8.67036 2.82118 8.2771Z" fill="#0000CC"/>
<path fill-rule="evenodd" clip-rule="evenodd" d="M6.64991 10.8451C7.11947 10.3653 7.748 10 8.50027 10C9.25254 10 9.88107 10.3653 10.3506 10.8451C10.8164 11.3211 11.1758 11.9544 11.4364 12.6484C11.6306 13.1655 11.3689 13.742 10.8518 13.9362C10.3348 14.1303 9.75827 13.8686 9.56411 13.3516C9.36868 12.8312 9.137 12.4645 8.92124 12.244C8.70927 12.0274 8.56584 12 8.50027 12C8.4347 12 8.29127 12.0274 8.0793 12.244C7.86354 12.4645 7.63186 12.8312 7.43644 13.3516C7.24228 13.8686 6.66574 14.1303 6.14871 13.9362C5.63168 13.742 5.36994 13.1655 5.56411 12.6484C5.82475 11.9544 6.18414 11.3211 6.64991 10.8451ZM13.6499 10.8451C14.1195 10.3653 14.748 10 15.5003 10C16.2525 10 16.8811 10.3653 17.3506 10.8451C17.8164 11.3211 18.1758 11.9544 18.4364 12.6484C18.6306 13.1655 18.3689 13.742 17.8518 13.9362C17.3348 14.1303 16.7583 13.8686 16.5641 13.3516C16.3687 12.8312 16.137 12.4645 15.9212 12.244C15.7093 12.0274 15.5658 12 15.5003 12C15.4347 12 15.2913 12.0274 15.0793 12.244C14.8635 12.4645 14.6319 12.8312 14.4364 13.3516C14.2423 13.8686 13.6657 14.1303 13.1487 13.9362C12.6317 13.742 12.3699 13.1655 12.5641 12.6484C12.8247 11.9544 13.1841 11.3211 13.6499 10.8451ZM7.39969 15.2004C7.84128 14.8687 8.46815 14.9578 8.79984 15.3994C9.5313 16.3732 10.6926 17 12.0006 17C13.3086 17 14.47 16.3732 15.2014 15.3994C15.5331 14.9578 16.16 14.8687 16.6016 15.2004C17.0432 15.5321 17.1323 16.159 16.8006 16.6006C15.7076 18.0557 13.9643 19 12.0006 19C10.037 19 8.29366 18.0557 7.2007 16.6006C6.86901 16.159 6.95811 15.5321 7.39969 15.2004Z" fill="#0000CC"/>
<path fill-rule="evenodd" clip-rule="evenodd" d="M4.07235 5.5C4.1136 5.46364 4.17262 5.41764 4.25621 5.36275C4.58918 5.14407 5.13708 4.9087 5.90368 4.69575C7.42283 4.27377 9.57856 4 12 4C14.4214 4 16.5772 4.27377 18.0963 4.69575C18.8629 4.9087 19.4108 5.14407 19.7438 5.36275C19.8274 5.41764 19.8864 5.46364 19.9276 5.5C19.8864 5.53636 19.8274 5.58236 19.7438 5.63725C19.4108 5.85593 18.8629 6.0913 18.0963 6.30425C16.5772 6.72623 14.4214 7 12 7C9.57856 7 7.42283 6.72623 5.90368 6.30425C5.13708 6.0913 4.58918 5.85593 4.25621 5.63725C4.17262 5.58236 4.1136 5.53636 4.07235 5.5ZM5.3684 2.76872C7.10661 2.28588 9.45088 2 12 2C14.5491 2 16.8934 2.28588 18.6316 2.76872C19.4937 3.00818 20.2638 3.31151 20.8417 3.69103C21.3788 4.0438 22 4.634 22 5.5C22 6.366 21.3788 6.9562 20.8417 7.30897C20.2638 7.68849 19.4937 7.99182 18.6316 8.23129C16.8934 8.71412 14.5491 9 12 9C9.45088 9 7.10661 8.71412 5.3684 8.23129C4.50632 7.99182 3.7362 7.68849 3.15832 7.30897C2.62116 6.9562 2 6.366 2 5.5C2 4.634 2.62116 4.0438 3.15832 3.69103C3.7362 3.31151 4.50632 3.00818 5.3684 2.76872Z" fill="#0000CC"/>
</svg>
