<svg width="24" height="24" viewBox="0 0 24 24" fill="none" xmlns="http://www.w3.org/2000/svg">
<path opacity="0.3" d="M12 2C6.47715 2 2 6.47715 2 12C2 17.5228 6.47715 22 12 22C17.5228 22 22 17.5228 22 12C22 6.47715 17.5228 2 12 2Z" fill="#0000CC"/>
<path fill-rule="evenodd" clip-rule="evenodd" d="M4.5 10.5C4.5 8.567 6.067 7 8 7C9.933 7 11.5 8.567 11.5 10.5C11.5 12.433 9.933 14 8 14C6.067 14 4.5 12.433 4.5 10.5ZM7.05695 9.33346C6.71721 9.60846 6.5 10.0289 6.5 10.5C6.5 11.3284 7.17157 12 8 12C8.82843 12 9.5 11.3284 9.5 10.5C9.5 10.0321 9.28576 9.61423 8.95002 9.33914C8.81112 9.7245 8.44223 10 8.009 10H8C7.56464 10 7.19426 9.72179 7.05695 9.33346ZM12.5 10.5C12.5 8.567 14.067 7 16 7C17.933 7 19.5 8.567 19.5 10.5C19.5 12.433 17.933 14 16 14C14.067 14 12.5 12.433 12.5 10.5ZM15.0569 9.33346C14.7172 9.60846 14.5 10.0289 14.5 10.5C14.5 11.3284 15.1716 12 16 12C16.8284 12 17.5 11.3284 17.5 10.5C17.5 10.0321 17.2858 9.61423 16.95 9.33914C16.8111 9.7245 16.4422 10 16.009 10H16C15.5646 10 15.1943 9.72179 15.0569 9.33346ZM8 17C8 16.4477 8.44772 16 9 16H15C15.5523 16 16 16.4477 16 17C16 17.5523 15.5523 18 15 18H9C8.44772 18 8 17.5523 8 17Z" fill="#0000CC"/>
</svg>
