<svg width="24" height="24" viewBox="0 0 24 24" fill="none" xmlns="http://www.w3.org/2000/svg">
<path opacity="0.3" d="M12 2C6.47715 2 2 6.47715 2 12C2 17.5228 6.47715 22 12 22C17.5228 22 22 17.5228 22 12C22 6.47715 17.5228 2 12 2Z" fill="#0000CC"/>
<path fill-rule="evenodd" clip-rule="evenodd" d="M7.85162 10.35C7.85162 9.52155 8.52319 8.84998 9.35162 8.84998C10.18 8.84998 10.8516 9.52155 10.8516 10.35C10.8516 11.1784 10.18 11.85 9.35162 11.85C8.52319 11.85 7.85162 11.1784 7.85162 10.35ZM15.5001 11C15.1834 11 14.8726 11.1038 14.5847 11.3113C14.1367 11.6342 13.5117 11.5327 13.1888 11.0847C12.8659 10.6366 12.9673 10.0116 13.4154 9.68872C14.01 9.2602 14.7239 9 15.5001 9C16.2763 9 16.9901 9.2602 17.5847 9.68872C18.0328 10.0116 18.1342 10.6366 17.8113 11.0847C17.4884 11.5327 16.8635 11.6342 16.4154 11.3113C16.1275 11.1038 15.8167 11 15.5001 11ZM7.39948 14.2004C7.84107 13.8687 8.46793 13.9578 8.79962 14.3994C9.53108 15.3732 10.6924 16 12.0004 16C13.3084 16 14.4698 15.3732 15.2012 14.3994C15.5329 13.9578 16.1598 13.8687 16.6014 14.2004C17.043 14.5321 17.132 15.159 16.8004 15.6006C15.7074 17.0557 13.9641 18 12.0004 18C10.0368 18 8.29345 17.0557 7.20049 15.6006C6.8688 15.159 6.95789 14.5321 7.39948 14.2004Z" fill="#0000CC"/>
</svg>
