<svg width="24" height="24" viewBox="0 0 24 24" fill="none" xmlns="http://www.w3.org/2000/svg">
<path opacity="0.3" d="M12 2C6.47715 2 2 6.47715 2 12C2 17.5228 6.47715 22 12 22C17.5228 22 22 17.5228 22 12C22 6.47715 17.5228 2 12 2Z" fill="#0000CC"/>
<path fill-rule="evenodd" clip-rule="evenodd" d="M7.6644 6.44747C8.16949 6.10915 8.82884 6.10915 9.33393 6.44747C9.60294 6.62765 9.75068 6.8804 9.8242 7.01336C9.88749 7.12782 9.95328 7.266 10.0191 7.40792C10.1744 7.42668 10.3262 7.44656 10.4546 7.47138C10.6038 7.50022 10.8898 7.56262 11.1443 7.76278C11.6222 8.13861 11.8259 8.76569 11.6602 9.35061C11.572 9.66213 11.3773 9.88074 11.2735 9.99175C11.1842 10.0873 11.0731 10.1926 10.9585 10.2991C10.9887 10.4526 11.0167 10.603 11.0327 10.7328C11.0514 10.8836 11.0804 11.1749 10.9687 11.4788C10.759 12.0494 10.2255 12.437 9.61804 12.4602C9.29449 12.4725 9.02641 12.3549 8.88878 12.2905C8.7703 12.2351 8.63585 12.162 8.49916 12.0859C8.36248 12.162 8.22803 12.2351 8.10955 12.2905C7.97192 12.3549 7.70383 12.4725 7.38029 12.4602C6.7728 12.437 6.23937 12.0494 6.0296 11.4788C5.91788 11.1749 5.94692 10.8836 5.96559 10.7328C5.98167 10.603 6.00966 10.4526 6.03981 10.2991C5.92519 10.1926 5.8141 10.0873 5.7248 9.99175C5.62107 9.88074 5.42634 9.66213 5.3381 9.35061C5.17242 8.76569 5.37617 8.13861 5.85402 7.76278C6.10852 7.56262 6.39454 7.50022 6.54372 7.47138C6.67213 7.44656 6.82388 7.42668 6.9792 7.40792C7.04504 7.266 7.11084 7.12782 7.17413 7.01336C7.24765 6.8804 7.39538 6.62765 7.6644 6.44747ZM14.6644 6.44747C15.1695 6.10915 15.8288 6.10915 16.3339 6.44747C16.6029 6.62765 16.7507 6.8804 16.8242 7.01336C16.8875 7.12782 16.9533 7.26601 17.0191 7.40792C17.1744 7.42669 17.3262 7.44656 17.4546 7.47138C17.6038 7.50022 17.8898 7.56262 18.1443 7.76278C18.6222 8.13861 18.8259 8.76569 18.6602 9.35061C18.572 9.66213 18.3773 9.88074 18.2735 9.99175C18.1842 10.0873 18.0731 10.1926 17.9585 10.2991C17.9887 10.4526 18.0167 10.603 18.0327 10.7328C18.0514 10.8836 18.0804 11.1749 17.9687 11.4788C17.759 12.0494 17.2255 12.437 16.618 12.4602C16.2945 12.4725 16.0264 12.3549 15.8888 12.2905C15.7703 12.2351 15.6358 12.162 15.4992 12.0859C15.3625 12.162 15.228 12.2351 15.1095 12.2905C14.9719 12.3549 14.7038 12.4725 14.3803 12.4602C13.7728 12.437 13.2394 12.0494 13.0296 11.4788C12.9179 11.1749 12.9469 10.8836 12.9656 10.7328C12.9817 10.603 13.0097 10.4526 13.0398 10.2991C12.9252 10.1926 12.8141 10.0873 12.7248 9.99175C12.6211 9.88074 12.4263 9.66213 12.3381 9.35061C12.1724 8.76569 12.3762 8.13861 12.854 7.76278C13.1085 7.56262 13.3945 7.50022 13.5437 7.47138C13.6721 7.44656 13.8239 7.42669 13.9792 7.40792C14.045 7.266 14.1108 7.12782 14.1741 7.01336C14.2477 6.8804 14.3954 6.62765 14.6644 6.44747ZM7.33105 13.0567C7.02515 12.9491 6.68592 12.9965 6.42127 13.1839C6.15652 13.3713 5.99916 13.6756 5.99916 14C5.99916 15.5666 7.04185 16.8284 8.15929 17.6382C9.29121 18.4584 10.742 19 11.9992 19C13.2563 19 14.7071 18.4584 15.839 17.6382C16.9565 16.8284 17.9992 15.5666 17.9992 14C17.9992 13.6756 17.8418 13.3713 17.5771 13.1839C17.3124 12.9964 16.9732 12.949 16.6673 13.0567L16.6625 13.0583L16.642 13.0654C16.6232 13.0718 16.5943 13.0817 16.5562 13.0944C16.4798 13.1199 16.3666 13.157 16.2234 13.2017C15.9363 13.2914 15.5312 13.4113 15.0618 13.531C14.1053 13.775 12.9521 14 11.9992 14C11.0462 14 9.893 13.775 8.93652 13.531C8.46715 13.4113 8.06198 13.2914 7.77497 13.2017C7.6317 13.157 7.5185 13.1199 7.44216 13.0944C7.40401 13.0817 7.37511 13.0718 7.35633 13.0654L7.33587 13.0583L7.33105 13.0567Z" fill="#0000CC"/>
</svg>
