<svg width="24" height="24" viewBox="0 0 24 24" fill="none" xmlns="http://www.w3.org/2000/svg">
<path opacity="0.3" d="M12 2C7.02944 2 3 6.13276 3 11.2308C3 13.4137 3.73881 15.4197 4.97396 17H19.026C20.2612 15.4197 21 13.4137 21 11.2308C21 6.13276 16.9706 2 12 2Z" fill="#0000CC"/>
<path d="M6.64266 7.4855C6.92681 7.01192 7.54107 6.85836 8.01465 7.14251L10.5146 8.64251C10.8159 8.82323 11.0002 9.14874 11.0002 9.5C11.0002 9.85126 10.8159 10.1768 10.5146 10.3575L8.01465 11.8575C7.54107 12.1416 6.92681 11.9881 6.64266 11.5145C6.35851 11.0409 6.51207 10.4267 6.98566 10.1425L8.0565 9.5L6.98566 8.85749C6.51207 8.57334 6.35851 7.95908 6.64266 7.4855Z" fill="#0000CC"/>
<path d="M17.0146 8.85749C17.4882 8.57334 17.6418 7.95908 17.3576 7.4855C17.0735 7.01192 16.4592 6.85836 15.9857 7.14251L13.4857 8.64251C13.1844 8.82323 13.0002 9.14874 13.0002 9.5C13.0002 9.85126 13.1844 10.1768 13.4857 10.3575L15.9857 11.8575C16.4592 12.1416 17.0735 11.9881 17.3576 11.5145C17.6418 11.0409 17.4882 10.4267 17.0146 10.1425L15.9438 9.5L17.0146 8.85749Z" fill="#0000CC"/>
<path d="M3.5 18C2.67157 18 2 18.6716 2 19.5C2 20.3284 2.67157 21 3.5 21C4.32843 21 5 20.3284 5 19.5C5 18.6716 4.32843 18 3.5 18Z" fill="#0000CC"/>
<path d="M20.5 18C19.6716 18 19 18.6716 19 19.5C19 20.3284 19.6716 21 20.5 21C21.3284 21 22 20.3284 22 19.5C22 18.6716 21.3284 18 20.5 18Z" fill="#0000CC"/>
<path fill-rule="evenodd" clip-rule="evenodd" d="M12 14C10.4893 14 9.30459 14.5386 8.74684 15.165C8.37957 15.5775 7.74747 15.6141 7.335 15.2468C6.92253 14.8796 6.88589 14.2475 7.25316 13.835C8.29228 12.668 10.0922 12 12 12C13.9078 12 15.7077 12.668 16.7468 13.835C17.1141 14.2475 17.0775 14.8796 16.665 15.2468C16.2525 15.6141 15.6204 15.5775 15.2532 15.165C14.6954 14.5386 13.5107 14 12 14Z" fill="#0000CC"/>
<path d="M9.2885 16C8.75352 16 8.31329 16.3158 8.2895 16.7166C8.22164 17.8596 7.82549 19.5957 6.30091 20.7137C6.01026 20.9269 5.92057 21.2508 6.07402 21.5331C6.22747 21.8154 6.59352 22 7.00003 22H17C17.4065 22 17.7725 21.8154 17.926 21.5331C18.0794 21.2508 17.9897 20.9269 17.6991 20.7137C16.1408 19.571 15.5668 17.8007 15.3686 16.6536C15.304 16.2798 14.8795 16 14.3769 16H9.2885Z" fill="#0000CC"/>
</svg>
