<svg width="24" height="24" viewBox="0 0 24 24" fill="none" xmlns="http://www.w3.org/2000/svg">
<path opacity="0.3" d="M12 2C6.47715 2 2 6.47715 2 12C2 17.5228 6.47715 22 12 22C17.5228 22 22 17.5228 22 12C22 6.47715 17.5228 2 12 2Z" fill="#0000CC"/>
<path fill-rule="evenodd" clip-rule="evenodd" d="M7.85156 9.29998C7.85156 8.49916 8.50075 7.84998 9.30156 7.84998C10.1024 7.84998 10.7516 8.49916 10.7516 9.29998C10.7516 10.1008 10.1024 10.75 9.30156 10.75C8.50075 10.75 7.85156 10.1008 7.85156 9.29998ZM13.25 9.29998C13.25 8.49916 13.8992 7.84998 14.7 7.84998C15.5008 7.84998 16.15 8.49916 16.15 9.29998C16.15 10.1008 15.5008 10.75 14.7 10.75C13.8992 10.75 13.25 10.1008 13.25 9.29998ZM12 13C12 12.4477 12.4477 12 13 12H19.5C20.8807 12 22 13.1193 22 14.5C22 15.8807 20.8807 17 19.5 17H15.5C14.9477 17 14.5 16.5523 14.5 16C14.5 15.4477 14.9477 15 15.5 15H19.5C19.7761 15 20 14.7761 20 14.5C20 14.2239 19.7761 14 19.5 14H13C12.4477 14 12 13.5523 12 13ZM9.33765 14.9797C10.1877 14.7247 11.1306 14.7519 12.2425 15.0299C12.7783 15.1638 13.1041 15.7067 12.9701 16.2425C12.8362 16.7783 12.2933 17.1041 11.7575 16.9701C10.8694 16.7481 10.3123 16.7753 9.91235 16.8953C9.51172 17.0155 9.15095 17.2633 8.70711 17.7071C8.31658 18.0976 7.68342 18.0976 7.29289 17.7071C6.90237 17.3166 6.90237 16.6834 7.29289 16.2929C7.84905 15.7367 8.48828 15.2345 9.33765 14.9797Z" fill="#0000CC"/>
</svg>
