<svg width="24" height="24" viewBox="0 0 24 24" fill="none" xmlns="http://www.w3.org/2000/svg">
<path opacity="0.3" d="M12 2C6.47715 2 2 6.47715 2 12C2 17.5228 6.47715 22 12 22C17.5228 22 22 17.5228 22 12C22 6.47715 17.5228 2 12 2Z" fill="#0000CC"/>
<path fill-rule="evenodd" clip-rule="evenodd" d="M10.0308 5.49374C10.499 5.7867 10.641 6.40373 10.3481 6.87191C9.51592 8.20172 8.249 9.23243 6.74367 9.76448C6.22296 9.94853 5.65164 9.6756 5.46759 9.15489C5.28354 8.63417 5.55647 8.06285 6.07718 7.8788C7.15004 7.4996 8.05692 6.763 8.65266 5.81098C8.94563 5.3428 9.56266 5.20077 10.0308 5.49374ZM13.9699 5.49374C14.4381 5.20077 15.0551 5.3428 15.3481 5.81098C15.9438 6.763 16.8507 7.4996 17.9236 7.8788C18.4443 8.06285 18.7172 8.63417 18.5331 9.15489C18.3491 9.6756 17.7778 9.94853 17.2571 9.76448C15.7517 9.23243 14.4848 8.20172 13.6527 6.87191C13.3597 6.40373 13.5017 5.7867 13.9699 5.49374ZM7.85193 10.35C7.85193 9.52153 8.5235 8.84996 9.35193 8.84996C10.1804 8.84996 10.8519 9.52153 10.8519 10.35C10.8519 11.1784 10.1804 11.85 9.35193 11.85C8.5235 11.85 7.85193 11.1784 7.85193 10.35ZM13.2504 10.3C13.2504 9.49915 13.8996 8.84996 14.7004 8.84996C15.5012 8.84996 16.1504 9.49915 16.1504 10.3C16.1504 11.1008 15.5012 11.75 14.7004 11.75C13.8996 11.75 13.2504 11.1008 13.2504 10.3ZM7.00037 13C7.00037 12.4477 7.44808 12 8.00037 12C9.30659 12 10.4178 12.8348 10.8297 14H13.1711C13.5829 12.8348 14.6941 12 16.0004 12C16.5527 12 17.0004 12.4477 17.0004 13C17.0004 13.5523 16.5527 14 16.0004 14C15.4481 14 15.0004 14.4477 15.0004 15C15.0004 15.5523 15.4481 16 16.0004 16C16.5527 16 17.0004 16.4477 17.0004 17C17.0004 17.5523 16.5527 18 16.0004 18C14.6941 18 13.5829 17.1652 13.1711 16H10.8297C10.4178 17.1652 9.30659 18 8.00037 18C7.44808 18 7.00037 17.5523 7.00037 17C7.00037 16.4477 7.44808 16 8.00037 16C8.55265 16 9.00037 15.5523 9.00037 15C9.00037 14.4477 8.55265 14 8.00037 14C7.44808 14 7.00037 13.5523 7.00037 13Z" fill="#0000CC"/>
</svg>
