<svg width="24" height="24" viewBox="0 0 24 24" fill="none" xmlns="http://www.w3.org/2000/svg">
<g opacity="0.3">
<path d="M9 7V20C9 20.5523 9.44772 21 10 21H14C14.5523 21 15 20.5523 15 20V7C15 6.80258 14.9416 6.60957 14.8321 6.4453L12.8321 3.4453C12.6466 3.1671 12.3344 3 12 3C11.6656 3 11.3534 3.1671 11.1679 3.4453L9.16795 6.4453C9.05844 6.60957 9 6.80258 9 7Z" fill="#0000CC"/>
<path d="M17 7V20C17 20.5523 17.4477 21 18 21H22C22.5523 21 23 20.5523 23 20V7C23 6.80258 22.9416 6.60957 22.8321 6.4453L20.8321 3.4453C20.6466 3.1671 20.3344 3 20 3C19.6656 3 19.3534 3.1671 19.1679 3.4453L17.1679 6.4453C17.0584 6.60957 17 6.80258 17 7Z" fill="#0000CC"/>
<path d="M7 20V7C7 6.80258 6.94156 6.60957 6.83205 6.4453L4.83205 3.4453C4.64658 3.1671 4.33435 3 4 3C3.66565 3 3.35342 3.1671 3.16795 3.4453L1.16795 6.4453C1.05844 6.60957 1 6.80258 1 7V20C1 20.5523 1.44772 21 2 21H6C6.55228 21 7 20.5523 7 20Z" fill="#0000CC"/>
</g>
<path d="M7 11V9H9V11H7Z" fill="#0000CC"/>
<path d="M7 15H9V17H7V15Z" fill="#0000CC"/>
<path d="M15 11V9H17V11H15Z" fill="#0000CC"/>
<path d="M15 15H17V17H15V15Z" fill="#0000CC"/>
</svg>
