<svg width="24" height="24" viewBox="0 0 24 24" fill="none" xmlns="http://www.w3.org/2000/svg">
<path opacity="0.3" fill-rule="evenodd" clip-rule="evenodd" d="M8.8 2H14L20 8V17.2C20 18.8802 20 19.7202 19.673 20.362C19.3854 20.9265 18.9265 21.3854 18.362 21.673C17.7202 22 16.8802 22 15.2 22H8.8C7.11984 22 6.27976 22 5.63803 21.673C5.07354 21.3854 4.6146 20.9265 4.32698 20.362C4 19.7202 4 18.8802 4 17.2V6.8C4 5.11984 4 4.27976 4.32698 3.63803C4.6146 3.07354 5.07354 2.6146 5.63803 2.32698C6.27976 2 7.11984 2 8.8 2Z" fill="#0000CC"/>
<path d="M14 7.2V2L20 8H14.8C14.52 8 14.38 8 14.273 7.9455C14.1789 7.89757 14.1024 7.82108 14.0545 7.727C14 7.62004 14 7.48003 14 7.2Z" fill="#0000CC"/>
<path d="M19.6124 14.4125C20.1586 13.8625 21.0442 13.8625 21.5904 14.4125C22.1365 14.9625 22.1365 15.8542 21.5904 16.4043L17.7271 20.2945C17.2358 20.7892 16.9901 21.0366 16.7102 21.2329C16.4617 21.4072 16.1936 21.5513 15.9115 21.6622C15.5936 21.7871 15.2528 21.8549 14.5712 21.9906C14.2302 22.0584 13.9335 21.7488 14.013 21.4081L14.0268 21.3492C14.1758 20.711 14.2503 20.3919 14.3742 20.0944C14.4843 19.8303 14.6231 19.5793 14.7881 19.346C14.9741 19.0832 15.2042 18.8514 15.6646 18.3878L19.6124 14.4125Z" fill="#0000CC"/>
<path d="M8 8C7.44772 8 7 8.44772 7 9C7 9.55228 7.44772 10 8 10H9C9.55228 10 10 9.55228 10 9C10 8.44772 9.55228 8 9 8H8Z" fill="#0000CC"/>
<path d="M8 12C7.44772 12 7 12.4477 7 13C7 13.5523 7.44772 14 8 14H13C13.5523 14 14 13.5523 14 13C14 12.4477 13.5523 12 13 12H8Z" fill="#0000CC"/>
<path d="M7 17C7 16.4477 7.44772 16 8 16H10.5C11.0523 16 11.5 16.4477 11.5 17C11.5 17.5523 11.0523 18 10.5 18H8C7.44772 18 7 17.5523 7 17Z" fill="#0000CC"/>
</svg>
