<svg width="24" height="24" viewBox="0 0 24 24" fill="none" xmlns="http://www.w3.org/2000/svg">
<path opacity="0.3" d="M15 2H12.8C11.1198 2 10.2798 2 9.63803 2.32698C9.07354 2.6146 8.6146 3.07354 8.32698 3.63803C8 4.27976 8 5.11984 8 6.8V13.2C8 14.8802 8 15.7202 8.32698 16.362C8.6146 16.9265 9.07354 17.3854 9.63803 17.673C10.2798 18 11.1198 18 12.8 18H15.2C16.8802 18 17.7202 18 18.362 17.673C18.9265 17.3854 19.3854 16.9265 19.673 16.362C20 15.7202 20 14.8802 20 13.2V7L15 2Z" fill="#0000CC"/>
<path d="M15 2V6.5C15 6.77614 15.2239 7 15.5 7H20L15 2Z" fill="#0000CC"/>
<path d="M6 6.72781C5.99999 6.54134 5.99998 6.35935 6.00063 6.18237C5.87119 6.22155 5.75151 6.26915 5.63803 6.32697C5.07354 6.61459 4.6146 7.07353 4.32698 7.63802C4 8.27975 4 9.11983 4 10.8V17.2C4 18.8801 4 19.7202 4.32698 20.362C4.6146 20.9264 5.07354 21.3854 5.63803 21.673C6.27976 22 7.11984 22 8.8 22H11.2C12.8802 22 13.7202 22 14.362 21.673C14.9265 21.3854 15.3854 20.9264 15.673 20.362C15.7308 20.2485 15.7784 20.1288 15.8176 19.9994C15.6406 20 15.4586 20 15.2721 20H12.7278C11.9497 20 11.2494 20.0001 10.6667 19.9525C10.0428 19.9015 9.37986 19.7861 8.73005 19.455C7.78924 18.9757 7.02434 18.2108 6.54497 17.2699C6.21388 16.6201 6.0985 15.9572 6.04752 15.3333C5.99992 14.7506 5.99996 14.0503 6 13.2722V6.72781Z" fill="#0000CC"/>
</svg>
