<svg width="24" height="24" viewBox="0 0 24 24" fill="none" xmlns="http://www.w3.org/2000/svg">
<g opacity="0.3">
<path d="M8.8 2H14L20 8V12H4V6.8C4 5.11984 4 4.27976 4.32698 3.63803C4.6146 3.07354 5.07354 2.6146 5.63803 2.32698C6.27976 2 7.11984 2 8.8 2Z" fill="#0000CC"/>
<path d="M6 16C5.44772 16 5 16.4477 5 17V19C5 19.5523 5.44772 20 6 20C6.55228 20 7 19.5523 7 19V17C7 16.4477 6.55228 16 6 16Z" fill="#0000CC"/>
<path d="M17 17C17 16.4477 17.4477 16 18 16C18.5523 16 19 16.4477 19 17V19C19 19.5523 18.5523 20 18 20C17.4477 20 17 19.5523 17 19V17Z" fill="#0000CC"/>
<path d="M10 16C9.44771 16 9 16.4477 9 17V21C9 21.5523 9.44771 22 10 22C10.5523 22 11 21.5523 11 21V17C11 16.4477 10.5523 16 10 16Z" fill="#0000CC"/>
<path d="M13 17C13 16.4477 13.4477 16 14 16C14.5523 16 15 16.4477 15 17V21C15 21.5523 14.5523 22 14 22C13.4477 22 13 21.5523 13 21V17Z" fill="#0000CC"/>
</g>
<path d="M14 2V7.2C14 7.48003 14 7.62004 14.0545 7.727C14.1024 7.82108 14.1789 7.89757 14.273 7.9455C14.38 8 14.52 8 14.8 8H20L14 2Z" fill="#0000CC"/>
<path d="M3 12C2.44772 12 2 12.4477 2 13C2 13.5523 2.44772 14 3 14H21C21.5523 14 22 13.5523 22 13C22 12.4477 21.5523 12 21 12H3Z" fill="#0000CC"/>
</svg>
