<svg width="24" height="24" viewBox="0 0 24 24" fill="none" xmlns="http://www.w3.org/2000/svg">
<path opacity="0.3" fill-rule="evenodd" clip-rule="evenodd" d="M8.8 2H14L20 8V17.2C20 18.8802 20 19.7202 19.673 20.362C19.3854 20.9265 18.9265 21.3854 18.362 21.673C17.7202 22 16.8802 22 15.2 22H8.8C7.11984 22 6.27976 22 5.63803 21.673C5.07354 21.3854 4.6146 20.9265 4.32698 20.362C4 19.7202 4 18.8802 4 17.2V6.8C4 5.11984 4 4.27976 4.32698 3.63803C4.6146 3.07354 5.07354 2.6146 5.63803 2.32698C6.27976 2 7.11984 2 8.8 2Z" fill="#0000CC"/>
<path d="M14 2V7.2C14 7.48003 14 7.62004 14.0545 7.727C14.1024 7.82108 14.1789 7.89757 14.273 7.9455C14.38 8 14.52 8 14.8 8H20L14 2Z" fill="#0000CC"/>
<path d="M12 18C12 16.8954 12.8954 16 14 16C14.5523 16 15 15.5523 15 15C15 14.4477 14.5523 14 14 14C11.7909 14 10 15.7909 10 18C10 20.2091 11.7909 22 14 22C14.5523 22 15 21.5523 15 21C15 20.4477 14.5523 20 14 20C12.8954 20 12 19.1046 12 18Z" fill="#0000CC"/>
<path d="M18 14C17.4477 14 17 14.4477 17 15C17 15.5523 17.4477 16 18 16C19.1046 16 20 16.8954 20 18C20 19.1046 19.1046 20 18 20C17.4477 20 17 20.4477 17 21C17 21.5523 17.4477 22 18 22C20.2091 22 22 20.2091 22 18C22 15.7909 20.2091 14 18 14Z" fill="#0000CC"/>
<path d="M14 17C13.4477 17 13 17.4477 13 18C13 18.5523 13.4477 19 14 19H18C18.5523 19 19 18.5523 19 18C19 17.4477 18.5523 17 18 17H14Z" fill="#0000CC"/>
</svg>
