<svg width="24" height="24" viewBox="0 0 24 24" fill="none" xmlns="http://www.w3.org/2000/svg">
<path opacity="0.3" fill-rule="evenodd" clip-rule="evenodd" d="M8.8 2H14L20 8V17.2C20 18.8802 20 19.7202 19.673 20.362C19.3854 20.9265 18.9265 21.3854 18.362 21.673C17.7202 22 16.8802 22 15.2 22H8.8C7.11984 22 6.27976 22 5.63803 21.673C5.07354 21.3854 4.6146 20.9265 4.32698 20.362C4 19.7202 4 18.8802 4 17.2V6.8C4 5.11984 4 4.27976 4.32698 3.63803C4.6146 3.07354 5.07354 2.6146 5.63803 2.32698C6.27976 2 7.11984 2 8.8 2Z" fill="#0000CC"/>
<path d="M14 7.2V2L20 8H14.8C14.52 8 14.38 8 14.273 7.9455C14.1789 7.89757 14.1024 7.82108 14.0545 7.727C14 7.62004 14 7.48003 14 7.2Z" fill="#0000CC"/>
<path fill-rule="evenodd" clip-rule="evenodd" d="M22 18C22 20.2091 20.2091 22 18 22C15.7909 22 14 20.2091 14 18C14 15.7909 15.7909 14 18 14C20.2091 14 22 15.7909 22 18ZM20 18C20 19.1046 19.1046 20 18 20C17.8208 20 17.6472 19.9764 17.482 19.9323L19.9323 17.482C19.9764 17.6472 20 17.8208 20 18ZM16.0677 18.5181L18.5181 16.0677C18.3528 16.0236 18.1792 16 18 16C16.8954 16 16 16.8954 16 18C16 18.1792 16.0236 18.3528 16.0677 18.5181Z" fill="#0000CC"/>
<path d="M8 8C7.44772 8 7 8.44772 7 9C7 9.55228 7.44772 10 8 10H9C9.55228 10 10 9.55228 10 9C10 8.44772 9.55228 8 9 8H8Z" fill="#0000CC"/>
<path d="M8 12C7.44772 12 7 12.4477 7 13C7 13.5523 7.44772 14 8 14H12C12.5523 14 13 13.5523 13 13C13 12.4477 12.5523 12 12 12H8Z" fill="#0000CC"/>
<path d="M7 17C7 16.4477 7.44772 16 8 16H10.5C11.0523 16 11.5 16.4477 11.5 17C11.5 17.5523 11.0523 18 10.5 18H8C7.44772 18 7 17.5523 7 17Z" fill="#0000CC"/>
</svg>
