<svg width="24" height="24" viewBox="0 0 24 24" fill="none" xmlns="http://www.w3.org/2000/svg">
<path opacity="0.3" fill-rule="evenodd" clip-rule="evenodd" d="M8.8 2H14L20 8V17.2C20 18.8802 20 19.7202 19.673 20.362C19.3854 20.9265 18.9265 21.3854 18.362 21.673C17.7202 22 16.8802 22 15.2 22H8.8C7.11984 22 6.27976 22 5.63803 21.673C5.07354 21.3854 4.6146 20.9265 4.32698 20.362C4 19.7202 4 18.8802 4 17.2V6.8C4 5.11984 4 4.27976 4.32698 3.63803C4.6146 3.07354 5.07354 2.6146 5.63803 2.32698C6.27976 2 7.11984 2 8.8 2Z" fill="#0000CC"/>
<path d="M14 2V7.2C14 7.48003 14 7.62004 14.0545 7.727C14.1024 7.82108 14.1789 7.89757 14.273 7.9455C14.38 8 14.52 8 14.8 8H20L14 2Z" fill="#0000CC"/>
<path d="M14.8674 12.8352C14.4236 12.3883 13.7041 12.3883 13.2603 12.8352L10.0527 16.0651C9.67865 16.4418 9.49162 16.6301 9.34056 16.8436C9.20646 17.0332 9.09367 17.2371 9.00426 17.4517C8.90354 17.6934 8.84301 17.9527 8.72195 18.4713L8.71079 18.5191C8.64615 18.7959 8.8872 19.0475 9.16426 18.9923C9.7181 18.8821 9.99502 18.827 10.2533 18.7255C10.4825 18.6354 10.7003 18.5183 10.9022 18.3767C11.1297 18.2172 11.3293 18.0162 11.7285 17.6143L14.8674 14.4535C15.3111 14.0066 15.3111 13.282 14.8674 12.8352Z" fill="#0000CC"/>
</svg>
