<svg width="24" height="24" viewBox="0 0 24 24" fill="none" xmlns="http://www.w3.org/2000/svg">
<path opacity="0.3" fill-rule="evenodd" clip-rule="evenodd" d="M10.8 2H16L22 8V17.2C22 18.8802 22 19.7202 21.673 20.362C21.3854 20.9265 20.9265 21.3854 20.362 21.673C19.7202 22 18.8802 22 17.2 22H10.8C9.11984 22 8.27976 22 7.63803 21.673C7.07354 21.3854 6.6146 20.9265 6.32698 20.362C6 19.7202 6 18.8802 6 17.2V6.8C6 5.11984 6 4.27976 6.32698 3.63803C6.6146 3.07354 7.07354 2.6146 7.63803 2.32698C8.27976 2 9.11984 2 10.8 2Z" fill="#0000CC"/>
<path fill-rule="evenodd" clip-rule="evenodd" d="M12.7451 11.2443C13.1624 10.8826 13.794 10.9277 14.1557 11.3451L16.7557 14.3451C17.0814 14.7209 17.0814 15.2791 16.7557 15.6549L14.1557 18.6549C13.794 19.0723 13.1624 19.1174 12.7451 18.7557C12.3277 18.394 12.2826 17.7624 12.6443 17.3451L13.81 16H3C2.44772 16 2 15.5523 2 15C2 14.4477 2.44772 14 3 14H13.81L12.6443 12.6549C12.2826 12.2376 12.3277 11.606 12.7451 11.2443Z" fill="#0000CC"/>
<path fill-rule="evenodd" clip-rule="evenodd" d="M16 7.2V2L22 8H16.8C16.52 8 16.38 8 16.273 7.9455C16.1789 7.89757 16.1024 7.82108 16.0545 7.727C16 7.62004 16 7.48003 16 7.2Z" fill="#0000CC"/>
</svg>
