<svg width="24" height="24" viewBox="0 0 24 24" fill="none" xmlns="http://www.w3.org/2000/svg">
<path opacity="0.3" fill-rule="evenodd" clip-rule="evenodd" d="M8.8 2H14L20 8V17.2C20 18.8802 20 19.7202 19.673 20.362C19.3854 20.9265 18.9265 21.3854 18.362 21.673C17.7202 22 16.8802 22 15.2 22H8.8C7.11984 22 6.27976 22 5.63803 21.673C5.07354 21.3854 4.6146 20.9265 4.32698 20.362C4 19.7202 4 18.8802 4 17.2V6.8C4 5.11984 4 4.27976 4.32698 3.63803C4.6146 3.07354 5.07354 2.6146 5.63803 2.32698C6.27976 2 7.11984 2 8.8 2Z" fill="#0000CC"/>
<path d="M14 2V7.2C14 7.48003 14 7.62004 14.0545 7.727C14.1024 7.82108 14.1789 7.89757 14.273 7.9455C14.38 8 14.52 8 14.8 8H20L14 2Z" fill="#0000CC"/>
<path d="M18.9372 15C18.4726 15 18.0797 15.3177 17.9687 15.7493C17.831 16.2841 17.2858 16.6061 16.751 16.4684C16.2161 16.3308 15.8941 15.7856 16.0318 15.2507C16.3648 13.957 17.538 13 18.9372 13C20.5941 13 21.9372 14.3431 21.9372 16C21.9372 16.9314 21.4827 17.5493 21.0067 18.0087C20.8139 18.1948 20.5943 18.3769 20.3969 18.5404L20.3111 18.6116C20.0807 18.8033 19.8602 18.9913 19.6444 19.2071C19.2538 19.5976 18.6207 19.5976 18.2301 19.2071C17.8396 18.8166 17.8396 18.1834 18.2301 17.7929C18.5143 17.5087 18.7938 17.2723 19.0321 17.074L19.1237 16.998C19.3282 16.8282 19.4834 16.6994 19.6178 16.5697C19.8917 16.3053 19.9372 16.1732 19.9372 16C19.9372 15.4477 19.4895 15 18.9372 15Z" fill="#0000CC"/>
<path d="M19.9399 21C19.9399 21.5523 19.4922 22 18.9399 22C18.3877 22 17.9399 21.5523 17.9399 21C17.9399 20.4477 18.3877 20 18.9399 20C19.4922 20 19.9399 20.4477 19.9399 21Z" fill="#0000CC"/>
</svg>
