<svg width="24" height="24" viewBox="0 0 24 24" fill="none" xmlns="http://www.w3.org/2000/svg">
<path opacity="0.3" fill-rule="evenodd" clip-rule="evenodd" d="M8.8 2H14L20 8V17.2C20 18.8802 20 19.7202 19.673 20.362C19.3854 20.9265 18.9265 21.3854 18.362 21.673C17.7202 22 16.8802 22 15.2 22H8.8C7.11984 22 6.27976 22 5.63803 21.673C5.07354 21.3854 4.6146 20.9265 4.32698 20.362C4 19.7202 4 18.8802 4 17.2V6.8C4 5.11984 4 4.27976 4.32698 3.63803C4.6146 3.07354 5.07354 2.6146 5.63803 2.32698C6.27976 2 7.11984 2 8.8 2Z" fill="#0000CC"/>
<path d="M14 2V7.2C14 7.48003 14 7.62004 14.0545 7.727C14.1024 7.82108 14.1789 7.89757 14.273 7.9455C14.38 8 14.52 8 14.8 8H20L14 2Z" fill="#0000CC"/>
<path d="M15.1992 10.5C15.7515 10.5 16.1992 10.9477 16.1992 11.5V14.5C16.1992 15.0523 15.7515 15.5 15.1992 15.5H12.1992C11.6469 15.5 11.1992 15.0523 11.1992 14.5C11.1992 13.9477 11.6469 13.5 12.1992 13.5H13.0223C12.6694 13.1886 12.2059 13 11.6992 13C10.5946 13 9.69922 13.8954 9.69922 15C9.69922 16.1046 10.5946 17 11.6992 17C12.2121 17 12.6778 16.8083 13.0323 16.491C13.4438 16.1226 14.076 16.1577 14.4444 16.5692C14.8127 16.9807 14.7777 17.6129 14.3661 17.9812C13.6591 18.614 12.7231 19 11.6992 19C9.49008 19 7.69922 17.2091 7.69922 15C7.69922 12.7909 9.49008 11 11.6992 11C12.6457 11 13.5148 11.3286 14.1992 11.8774V11.5C14.1992 10.9477 14.6469 10.5 15.1992 10.5Z" fill="#0000CC"/>
</svg>
