<svg width="24" height="24" viewBox="0 0 24 24" fill="none" xmlns="http://www.w3.org/2000/svg">
<path opacity="0.3" fill-rule="evenodd" clip-rule="evenodd" d="M8.8 2H14L20 8V17.2C20 18.8802 20 19.7202 19.673 20.362C19.3854 20.9265 18.9265 21.3854 18.362 21.673C17.7202 22 16.8802 22 15.2 22H8.8C7.11984 22 6.27976 22 5.63803 21.673C5.07354 21.3854 4.6146 20.9265 4.32698 20.362C4 19.7202 4 18.8802 4 17.2V6.8C4 5.11984 4 4.27976 4.32698 3.63803C4.6146 3.07354 5.07354 2.6146 5.63803 2.32698C6.27976 2 7.11984 2 8.8 2Z" fill="#0000CC"/>
<path d="M14 2V7.2C14 7.48003 14 7.62004 14.0545 7.727C14.1024 7.82108 14.1789 7.89757 14.273 7.9455C14.38 8 14.52 8 14.8 8H20L14 2Z" fill="#0000CC"/>
<path d="M15.6936 14.2203C16.0915 13.8372 16.1034 13.2042 15.7203 12.8064C15.3372 12.4085 14.7042 12.3966 14.3064 12.7797L10.8462 16.1117L9.69364 15.0019C9.29582 14.6188 8.66277 14.6308 8.27968 15.0286C7.89659 15.4264 7.90854 16.0595 8.30636 16.4425L10.1525 18.2203C10.5398 18.5932 11.1525 18.5932 11.5398 18.2203L15.6936 14.2203Z" fill="#0000CC"/>
</svg>
