<svg width="24" height="24" viewBox="0 0 24 24" fill="none" xmlns="http://www.w3.org/2000/svg">
<path opacity="0.3" fill-rule="evenodd" clip-rule="evenodd" d="M8.8 2H14L20 8V17.2C20 18.8802 20 19.7202 19.673 20.362C19.3854 20.9265 18.9265 21.3854 18.362 21.673C17.7202 22 16.8802 22 15.2 22H8.8C7.11984 22 6.27976 22 5.63803 21.673C5.07354 21.3854 4.6146 20.9265 4.32698 20.362C4 19.7202 4 18.8802 4 17.2V6.8C4 5.11984 4 4.27976 4.32698 3.63803C4.6146 3.07354 5.07354 2.6146 5.63803 2.32698C6.27976 2 7.11984 2 8.8 2Z" fill="#0000CC"/>
<path d="M14 2V7.2C14 7.48003 14 7.62004 14.0545 7.727C14.1024 7.82108 14.1789 7.89757 14.273 7.9455C14.38 8 14.52 8 14.8 8H20L14 2Z" fill="#0000CC"/>
<path d="M10.7071 12.7929C10.3166 12.4024 9.68342 12.4024 9.29289 12.7929C8.90237 13.1834 8.90237 13.8166 9.29289 14.2071L10.5858 15.5L9.29289 16.7929C8.90237 17.1834 8.90237 17.8166 9.29289 18.2071C9.68342 18.5976 10.3166 18.5976 10.7071 18.2071L12 16.9142L13.2929 18.2071C13.6834 18.5976 14.3166 18.5976 14.7071 18.2071C15.0976 17.8166 15.0976 17.1834 14.7071 16.7929L13.4142 15.5L14.7071 14.2071C15.0976 13.8166 15.0976 13.1834 14.7071 12.7929C14.3166 12.4024 13.6834 12.4024 13.2929 12.7929L12 14.0858L10.7071 12.7929Z" fill="#0000CC"/>
</svg>
