<svg width="24" height="24" viewBox="0 0 24 24" fill="none" xmlns="http://www.w3.org/2000/svg">
<path opacity="0.3" fill-rule="evenodd" clip-rule="evenodd" d="M8.8 2H14L20 8V17.2C20 18.8802 20 19.7202 19.673 20.362C19.3854 20.9265 18.9265 21.3854 18.362 21.673C17.7202 22 16.8802 22 15.2 22H8.8C7.11984 22 6.27976 22 5.63803 21.673C5.07354 21.3854 4.6146 20.9265 4.32698 20.362C4 19.7202 4 18.8802 4 17.2V6.8C4 5.11984 4 4.27976 4.32698 3.63803C4.6146 3.07354 5.07354 2.6146 5.63803 2.32698C6.27976 2 7.11984 2 8.8 2Z" fill="#0000CC"/>
<path d="M14 2V7.2C14 7.48003 14 7.62004 14.0545 7.727C14.1024 7.82108 14.1789 7.89757 14.273 7.9455C14.38 8 14.52 8 14.8 8H20L14 2Z" fill="#0000CC"/>
<path d="M20 16C20.5523 16 21 15.5523 21 15C21 14.4477 20.5523 14 20 14C19.4477 14 19 14.4477 19 15C19 15.5523 19.4477 16 20 16Z" fill="#0000CC"/>
<path d="M19 18C19 17.4477 19.4477 17 20 17C20.5523 17 21 17.4477 21 18V21C21 21.5523 20.5523 22 20 22C19.4477 22 19 21.5523 19 21V18Z" fill="#0000CC"/>
<path d="M8 8C7.44772 8 7 8.44772 7 9C7 9.55228 7.44772 10 8 10H9C9.55228 10 10 9.55228 10 9C10 8.44772 9.55228 8 9 8H8Z" fill="#0000CC"/>
<path d="M8 12C7.44772 12 7 12.4477 7 13C7 13.5523 7.44772 14 8 14H14C14.5523 14 15 13.5523 15 13C15 12.4477 14.5523 12 14 12H8Z" fill="#0000CC"/>
<path d="M7 17C7 16.4477 7.44772 16 8 16H14C14.5523 16 15 16.4477 15 17C15 17.5523 14.5523 18 14 18H8C7.44772 18 7 17.5523 7 17Z" fill="#0000CC"/>
</svg>
