<svg width="24" height="24" viewBox="0 0 24 24" fill="none" xmlns="http://www.w3.org/2000/svg">
<path opacity="0.3" fill-rule="evenodd" clip-rule="evenodd" d="M8.8 2H14L20 8V17.2C20 18.8802 20 19.7202 19.673 20.362C19.3854 20.9265 18.9265 21.3854 18.362 21.673C17.7202 22 16.8802 22 15.2 22H8.8C7.11984 22 6.27976 22 5.63803 21.673C5.07354 21.3854 4.6146 20.9265 4.32698 20.362C4 19.7202 4 18.8802 4 17.2V6.8C4 5.11984 4 4.27976 4.32698 3.63803C4.6146 3.07354 5.07354 2.6146 5.63803 2.32698C6.27976 2 7.11984 2 8.8 2Z" fill="#0000CC"/>
<path d="M14 2V7.2C14 7.48003 14 7.62004 14.0545 7.727C14.1024 7.82108 14.1789 7.89757 14.273 7.9455C14.38 8 14.52 8 14.8 8H20L14 2Z" fill="#0000CC"/>
<path d="M8 10C7.44772 10 7 10.4477 7 11C7 11.5523 7.44772 12 8 12H10C10.5523 12 11 11.5523 11 11C11 10.4477 10.5523 10 10 10H8Z" fill="#0000CC"/>
<path d="M16.7071 13.2929C16.3166 12.9024 15.6834 12.9024 15.2929 13.2929L13 15.5858L11.7071 14.2929C11.3166 13.9024 10.6834 13.9024 10.2929 14.2929L7.29289 17.2929C6.90237 17.6834 6.90237 18.3166 7.29289 18.7071C7.68342 19.0976 8.31658 19.0976 8.70711 18.7071L11 16.4142L12.2929 17.7071C12.6834 18.0976 13.3166 18.0976 13.7071 17.7071L16.7071 14.7071C17.0976 14.3166 17.0976 13.6834 16.7071 13.2929Z" fill="#0000CC"/>
</svg>
