<svg width="24" height="24" viewBox="0 0 24 24" fill="none" xmlns="http://www.w3.org/2000/svg">
<path opacity="0.3" fill-rule="evenodd" clip-rule="evenodd" d="M8.8 2H14L20 8V17.2C20 18.8802 20 19.7202 19.673 20.362C19.3854 20.9265 18.9265 21.3854 18.362 21.673C17.7202 22 16.8802 22 15.2 22H8.8C7.11984 22 6.27976 22 5.63803 21.673C5.07354 21.3854 4.6146 20.9265 4.32698 20.362C4 19.7202 4 18.8802 4 17.2V6.8C4 5.11984 4 4.27976 4.32698 3.63803C4.6146 3.07354 5.07354 2.6146 5.63803 2.32698C6.27976 2 7.11984 2 8.8 2Z" fill="#0000CC"/>
<path d="M14 2V7.2C14 7.48003 14 7.62004 14.0545 7.727C14.1024 7.82108 14.1789 7.89757 14.273 7.9455C14.38 8 14.52 8 14.8 8H20L14 2Z" fill="#0000CC"/>
<path d="M10.7071 13.7071C11.0976 13.3166 11.0976 12.6834 10.7071 12.2929C10.3166 11.9024 9.68342 11.9024 9.29289 12.2929L7.29289 14.2929C6.90237 14.6834 6.90237 15.3166 7.29289 15.7071L9.29289 17.7071C9.68342 18.0976 10.3166 18.0976 10.7071 17.7071C11.0976 17.3166 11.0976 16.6834 10.7071 16.2929L9.41421 15L10.7071 13.7071Z" fill="#0000CC"/>
<path d="M16.7071 14.2929L14.7071 12.2929C14.3166 11.9024 13.6834 11.9024 13.2929 12.2929C12.9024 12.6834 12.9024 13.3166 13.2929 13.7071L14.5858 15L13.2929 16.2929C12.9024 16.6834 12.9024 17.3166 13.2929 17.7071C13.6834 18.0976 14.3166 18.0976 14.7071 17.7071L16.7071 15.7071C17.0976 15.3166 17.0976 14.6834 16.7071 14.2929Z" fill="#0000CC"/>
</svg>
