<svg width="24" height="24" viewBox="0 0 24 24" fill="none" xmlns="http://www.w3.org/2000/svg">
<path opacity="0.3" fill-rule="evenodd" clip-rule="evenodd" d="M8 11H16V5H8V11ZM16 19V13H8V19H16Z" fill="#0000CC"/>
<path fill-rule="evenodd" clip-rule="evenodd" d="M6.16146 3H17.8385C18.3657 2.99998 18.8205 2.99997 19.195 3.03057C19.5904 3.06287 19.9836 3.13419 20.362 3.32698C20.9265 3.6146 21.3854 4.07354 21.673 4.63803C21.8658 5.01641 21.9371 5.40963 21.9694 5.80497C22 6.17954 22 6.6343 22 7.16144V16.8386C22 17.3657 22 17.8205 21.9694 18.195C21.9371 18.5904 21.8658 18.9836 21.673 19.362C21.3854 19.9265 20.9265 20.3854 20.362 20.673C19.9836 20.8658 19.5904 20.9371 19.195 20.9694C18.8205 21 18.3657 21 17.8386 21H6.16144C5.6343 21 5.17954 21 4.80497 20.9694C4.40963 20.9371 4.01641 20.8658 3.63803 20.673C3.07354 20.3854 2.6146 19.9265 2.32698 19.362C2.13419 18.9836 2.06287 18.5904 2.03057 18.195C1.99997 17.8205 1.99998 17.3657 2 16.8385V7.16146C1.99998 6.63431 1.99997 6.17955 2.03057 5.80497C2.06287 5.40963 2.13419 5.01641 2.32698 4.63803C2.6146 4.07354 3.07354 3.6146 3.63803 3.32698C4.01641 3.13419 4.40963 3.06287 4.80497 3.03057C5.17955 2.99997 5.63431 2.99998 6.16146 3ZM4 9V11H6V9H4ZM6 7H4.00007C4.00052 6.5349 4.00357 6.21698 4.02393 5.96784C4.04612 5.69617 4.0838 5.59546 4.109 5.54601C4.20487 5.35785 4.35785 5.20487 4.54601 5.109C4.59546 5.0838 4.69617 5.04612 4.96784 5.02393C5.21698 5.00357 5.5349 5.00052 6 5.00007V7ZM8 11H16V5H8V11ZM18 5.00007V7H19.9999C19.9995 6.5349 19.9964 6.21698 19.9761 5.96784C19.9539 5.69617 19.9162 5.59546 19.891 5.54601C19.7951 5.35785 19.6422 5.20487 19.454 5.109C19.4045 5.0838 19.3038 5.04612 19.0322 5.02393C18.783 5.00357 18.4651 5.00052 18 5.00007ZM20 9H18V11H20V9ZM20 13H18V15H20V13ZM19.9999 17H18V18.9999C18.4651 18.9995 18.783 18.9964 19.0322 18.9761C19.3038 18.9539 19.4045 18.9162 19.454 18.891C19.6422 18.7951 19.7951 18.6422 19.891 18.454C19.9162 18.4045 19.9539 18.3038 19.9761 18.0322C19.9964 17.783 19.9995 17.4651 19.9999 17ZM16 19V13H8V19H16ZM6 18.9999V17H4.00007C4.00052 17.4651 4.00357 17.783 4.02393 18.0322C4.04612 18.3038 4.0838 18.4045 4.109 18.454C4.20487 18.6422 4.35785 18.7951 4.54601 18.891C4.59546 18.9162 4.69617 18.9539 4.96784 18.9761C5.21698 18.9964 5.5349 18.9995 6 18.9999ZM4 15H6V13H4V15Z" fill="#0000CC"/>
</svg>
