<svg width="24" height="24" viewBox="0 0 24 24" fill="none" xmlns="http://www.w3.org/2000/svg">
<path opacity="0.3" fill-rule="evenodd" clip-rule="evenodd" d="M15.7995 2.57118C16.131 2.8115 16.3888 3.1344 16.6813 3.50087L19.1238 6.55398C19.3405 6.82446 19.5317 7.06306 19.6716 7.33684C19.7945 7.57755 19.8844 7.83378 19.9388 8.09857C20.0006 8.39974 20.0003 8.70549 20 9.0521L20 17.8388C20 18.3659 20 18.8206 19.9694 19.1952C19.9371 19.5905 19.8658 19.9837 19.673 20.3621C19.3854 20.9266 18.9265 21.3855 18.362 21.6732C17.9836 21.8659 17.5904 21.9373 17.195 21.9696C16.8205 22.0002 16.3657 22.0002 15.8386 22.0001H8.16144C7.6343 22.0002 7.17954 22.0002 6.80498 21.9696C6.40963 21.9373 6.01641 21.8659 5.63803 21.6732C5.07355 21.3855 4.6146 20.9266 4.32698 20.3621C4.13419 19.9837 4.06287 19.5905 4.03057 19.1952C3.99997 18.8206 3.99998 18.3658 4 17.8387V6.16155C3.99998 5.63443 3.99997 5.17966 4.03057 4.80511C4.06287 4.40976 4.13419 4.01654 4.32698 3.63816C4.6146 3.07368 5.07355 2.61474 5.63803 2.32712C5.99353 2.14598 6.36128 2.07236 6.73139 2.0372C7.08997 2.00313 7.51521 2.00056 7.99922 2.00019L13.5587 2.00007C14.0276 1.99957 14.4408 1.99913 14.8355 2.10788C15.0604 2.16982 15.2768 2.25767 15.4806 2.36936C15.5908 2.42976 15.6974 2.49715 15.7995 2.57118Z" fill="#0000CC"/>
<path fill-rule="evenodd" clip-rule="evenodd" d="M6.10907 4.54655C6 4.76052 6 5.04069 6 5.60101V6.99872H15V5.60409C15 5.04431 15 4.76442 14.8911 4.55056C14.7953 4.36245 14.6424 4.20948 14.4543 4.11357C14.2405 4.00454 13.9606 4.00439 13.4009 4.00409L7.60085 4.00101C7.04053 4.00071 6.76037 4.00056 6.54634 4.10951C6.35808 4.20535 6.205 4.35834 6.10907 4.54655ZM12 19C13.6569 19 15 17.6569 15 16C15 14.3432 13.6569 13 12 13C10.3431 13 9 14.3432 9 16C9 17.6569 10.3431 19 12 19Z" fill="#0000CC"/>
</svg>
