<svg width="24" height="24" viewBox="0 0 24 24" fill="none" xmlns="http://www.w3.org/2000/svg">
<path opacity="0.3" d="M10.8719 4.08299C10.5235 3.99934 10.1647 3.99967 9.75783 4.00005L6.16146 4.0001C5.63431 4.00008 5.17955 4.00007 4.80497 4.03067C4.40963 4.06297 4.01641 4.13429 3.63803 4.32708C3.07354 4.6147 2.6146 5.07364 2.32698 5.63813C2.13419 6.01651 2.06287 6.40973 2.03057 6.80507C1.99997 7.17964 1.99998 7.63439 2 8.16152V15.8386C1.99998 16.3658 1.99997 16.8206 2.03057 17.1951C2.06287 17.5905 2.13419 17.9837 2.32698 18.3621C2.6146 18.9266 3.07354 19.3855 3.63803 19.6731C4.01641 19.8659 4.40963 19.9372 4.80497 19.9695C5.17954 20.0001 5.6343 20.0001 6.16144 20.0001H17.8385C18.3657 20.0001 18.8205 20.0001 19.195 19.9695C19.5904 19.9372 19.9836 19.8659 20.362 19.6731C20.9265 19.3855 21.3854 18.9266 21.673 18.3621C21.8658 17.9837 21.9371 17.5905 21.9694 17.1951C22 16.8206 22 16.3658 22 15.8387V10.1615C22 9.6344 22 9.17964 21.9694 8.80507C21.9371 8.40973 21.8658 8.01651 21.673 7.63813C21.3854 7.07365 20.9265 6.6147 20.362 6.32708C19.9836 6.13429 19.5904 6.06297 19.195 6.03067C18.8205 6.00007 18.3657 6.00008 17.8385 6.0001L14.3255 6.0001C13.7887 6.0001 13.6833 5.99368 13.595 5.97247C13.4929 5.94798 13.3954 5.90757 13.3059 5.85274C13.2285 5.80528 13.1494 5.7353 12.7699 5.35574L12.5855 5.17131C12.298 4.88333 12.0446 4.62941 11.7391 4.44218C11.4707 4.2777 11.178 4.15648 10.8719 4.08299Z" fill="#0000CC"/>
<path fill-rule="evenodd" clip-rule="evenodd" d="M15.6936 11.7203C16.0915 11.3372 16.1034 10.7042 15.7203 10.3064C15.3372 9.90854 14.7042 9.89659 14.3064 10.2797L10.8462 13.6117L9.69364 12.5019C9.29582 12.1188 8.66277 12.1308 8.27968 12.5286C7.89659 12.9264 7.90854 13.5595 8.30636 13.9425L10.1525 15.7203C10.5398 16.0932 11.1525 16.0932 11.5398 15.7203L15.6936 11.7203Z" fill="#0000CC"/>
</svg>
