<svg width="24" height="24" viewBox="0 0 24 24" fill="none" xmlns="http://www.w3.org/2000/svg">
<path opacity="0.3" d="M4.06216 2.65305C4.20735 2.26057 4.58157 2 5.00005 2H19C19.5523 2 20 2.44772 20 3V9C20 9.55228 19.5523 10 19 10H14.7033L12.6508 8.24074C12.4695 8.08539 12.2387 8 12 8H9.29679L4.34926 3.75926C4.03153 3.48692 3.91697 3.04554 4.06216 2.65305Z" fill="#0000CC"/>
<path d="M5 8C4.44772 8 4 8.44772 4 9V15C4 15.2919 4.12756 15.5693 4.34921 15.7593L11.3492 21.7593C11.6457 22.0134 12.0631 22.0717 12.4179 21.9085C12.7727 21.7453 13 21.3905 13 21V16H19C19.4185 16 19.7927 15.7394 19.9379 15.3469C20.0831 14.9545 19.9685 14.5131 19.6508 14.2407L12.6508 8.24074C12.4695 8.08539 12.2387 8 12 8H5Z" fill="#0000CC"/>
</svg>
