<svg width="24" height="24" viewBox="0 0 24 24" fill="none" xmlns="http://www.w3.org/2000/svg">
<path opacity="0.3" fill-rule="evenodd" clip-rule="evenodd" d="M16 2C16.5523 2 17 2.44772 17 3V6C17 6.55228 16.5523 7 16 7H13V8H16C19.866 8 23 11.134 23 15C23 18.866 19.866 22 16 22C14.5231 22 13.1351 21.5229 12.0041 20.7423C10.8696 21.5346 9.48832 22 8 22C4.13401 22 1 18.866 1 15C1 11.134 4.13401 8 8 8H11V6C11 5.44772 11.4477 5 12 5H15V3C15 2.44772 15.4477 2 16 2Z" fill="#0000CC"/>
<path fill-rule="evenodd" clip-rule="evenodd" d="M8 12C7.44772 12 7 12.4477 7 13V14H6C5.44772 14 5 14.4477 5 15C5 15.5523 5.44772 16 6 16H7V17C7 17.5523 7.44772 18 8 18C8.55229 18 9 17.5523 9 17V16H10C10.5523 16 11 15.5523 11 15C11 14.4477 10.5523 14 10 14H9V13C9 12.4477 8.55229 12 8 12ZM15 15C15.5523 15 16 14.5523 16 14C16 13.4477 15.5523 13 15 13C14.4477 13 14 13.4477 14 14C14 14.5523 14.4477 15 15 15ZM19 16C19 16.5523 18.5523 17 18 17C17.4477 17 17 16.5523 17 16C17 15.4477 17.4477 15 18 15C18.5523 15 19 15.4477 19 16Z" fill="#0000CC"/>
</svg>
