<svg width="24" height="24" viewBox="0 0 24 24" fill="none" xmlns="http://www.w3.org/2000/svg">
<path opacity="0.3" fill-rule="evenodd" clip-rule="evenodd" d="M2 12C2 6.47715 6.47715 2 12 2C17.5228 2 22 6.47715 22 12C22 17.5228 17.5228 22 12 22C6.47715 22 2 17.5228 2 12ZM11 6C11 5.44772 11.4477 5 12 5C12.5523 5 13 5.44772 13 6V12.1707C14.1652 12.5825 15 13.6938 15 15C15 16.6569 13.6569 18 12 18C10.3431 18 9 16.6569 9 15C9 13.6938 9.83481 12.5825 11 12.1707V6ZM17 8C17 8.55229 16.5523 9 16 9C15.4477 9 15 8.55229 15 8C15 7.44772 15.4477 7 16 7C16.5523 7 17 7.44772 17 8ZM18 13C18.5523 13 19 12.5523 19 12C19 11.4477 18.5523 11 18 11C17.4477 11 17 11.4477 17 12C17 12.5523 17.4477 13 18 13ZM7 12C7 12.5523 6.55228 13 6 13C5.44772 13 5 12.5523 5 12C5 11.4477 5.44772 11 6 11C6.55228 11 7 11.4477 7 12ZM8 9C8.55229 9 9 8.55229 9 8C9 7.44772 8.55229 7 8 7C7.44772 7 7 7.44772 7 8C7 8.55229 7.44772 9 8 9Z" fill="#0000CC"/>
<path fill-rule="evenodd" clip-rule="evenodd" d="M11 6C11 5.44772 11.4477 5 12 5C12.5523 5 13 5.44772 13 6V12.1707C14.1652 12.5825 15 13.6938 15 15C15 16.6569 13.6569 18 12 18C10.3431 18 9 16.6569 9 15C9 13.6938 9.83481 12.5825 11 12.1707V6Z" fill="#0000CC"/>
</svg>
