<svg width="24" height="24" viewBox="0 0 24 24" fill="none" xmlns="http://www.w3.org/2000/svg">
<g opacity="0.3">
<path d="M16.5321 2H7.46867L12.0011 7.43816L16.5321 2Z" fill="#0000CC"/>
<path d="M5.75441 3.06702L2.48294 7.97454C2.47662 7.98402 2.46914 7.99498 2.4607 8.00735C2.38013 8.12536 2.21284 8.37038 2.14896 8.65797C2.12144 8.78189 2.10986 8.90831 2.11415 9.03422L10.7276 9.03401L5.75441 3.06702Z" fill="#0000CC"/>
<path d="M13.2747 9.03395L21.8879 9.03374C21.8922 8.908 21.8806 8.78173 21.8531 8.65796C21.7892 8.3704 21.6219 8.12536 21.5414 8.00738C21.5329 7.99501 21.5254 7.98404 21.5191 7.97457L18.2469 3.06624L13.2747 9.03395Z" fill="#0000CC"/>
</g>
<path d="M2.11375 9.03418L2.11328 9.01788C2.11408 9.06304 2.11795 9.10836 2.12497 9.15356L2.14334 9.27188C2.14948 9.31143 2.15799 9.35057 2.16882 9.3891C2.24854 9.6727 2.42916 9.90806 2.51616 10.0214L2.54019 10.053L10.5775 20.7694C10.6709 20.894 10.7764 21.0348 10.878 21.1477C10.99 21.2722 11.1761 21.4556 11.4569 21.5648C11.8066 21.7008 12.1946 21.7008 12.5443 21.5648C12.825 21.4556 13.0112 21.2722 13.1232 21.1477C13.2248 21.0348 13.3303 20.894 13.4236 20.7694L21.461 10.0529L21.485 10.0214C21.572 9.90806 21.7526 9.67268 21.8324 9.38908C21.8432 9.35056 21.8517 9.31142 21.8578 9.27188L21.8762 9.15356C21.8824 9.11364 21.8861 9.07362 21.8875 9.03371C14.3479 9.03389 9.65339 9.034 2.11375 9.03418Z" fill="#0000CC"/>
</svg>
