<svg width="24" height="24" viewBox="0 0 24 24" fill="none" xmlns="http://www.w3.org/2000/svg">
<path opacity="0.3" fill-rule="evenodd" clip-rule="evenodd" d="M12 2C7.58172 2 4 5.58172 4 10V21C4 21.3688 4.20298 21.7077 4.52814 21.8817C4.8533 22.0557 5.24784 22.0366 5.5547 21.8321L6.37192 21.2872C6.77295 21.0199 7.02889 20.85 7.23488 20.7338C7.42989 20.6237 7.51881 20.5982 7.57009 20.589C7.75152 20.5568 7.93834 20.5753 8.10993 20.6425C8.15843 20.6615 8.2406 20.704 8.41024 20.8501C8.58943 21.0045 8.80709 21.2213 9.1479 21.5621C9.61909 22.0333 10.3814 22.0318 10.8513 21.5631C11.3392 21.0764 11.4664 20.9768 11.556 20.9324C11.8358 20.7938 12.1642 20.7938 12.444 20.9324C12.5336 20.9768 12.6608 21.0764 13.1487 21.5631C13.6186 22.0318 14.3809 22.0333 14.8521 21.5621C15.1929 21.2213 15.4106 21.0045 15.5898 20.8501C15.7594 20.704 15.8416 20.6615 15.8901 20.6425C16.0617 20.5753 16.2485 20.5568 16.4299 20.589C16.4812 20.5982 16.5701 20.6237 16.7651 20.7338C16.9711 20.85 17.2271 21.0199 17.6281 21.2872L18.4453 21.8321C18.7522 22.0366 19.1467 22.0557 19.4719 21.8817C19.797 21.7077 20 21.3688 20 21V10C20 5.58172 16.4183 2 12 2Z" fill="#0000CC"/>
<path d="M10 10C10 10.5523 9.55229 11 9 11C8.44771 11 8 10.5523 8 10C8 9.44771 8.44771 9 9 9C9.55229 9 10 9.44771 10 10Z" fill="#0000CC"/>
<path d="M16 10C16 10.5523 15.5523 11 15 11C14.4477 11 14 10.5523 14 10C14 9.44771 14.4477 9 15 9C15.5523 9 16 9.44771 16 10Z" fill="#0000CC"/>
<path d="M10.113 13.6668C9.92899 13.1461 9.35766 12.8731 8.83695 13.0572C8.31623 13.2412 8.04331 13.8126 8.22736 14.3333C8.77599 15.8855 10.2563 17 11.9995 17C13.7427 17 15.223 15.8855 15.7716 14.3333C15.9557 13.8126 15.6827 13.2412 15.162 13.0572C14.6413 12.8731 14.07 13.1461 13.8859 13.6668C13.6109 14.4449 12.8687 15 11.9995 15C11.1302 15 10.3881 14.4449 10.113 13.6668Z" fill="#0000CC"/>
</svg>
