<svg width="24" height="24" viewBox="0 0 24 24" fill="none" xmlns="http://www.w3.org/2000/svg">
<path opacity="0.3" d="M2 11.8C2 10.1198 2 9.27976 2.32698 8.63803C2.6146 8.07354 3.07354 7.6146 3.63803 7.32698C4.27976 7 5.11984 7 6.8 7H17.2C18.8802 7 19.7202 7 20.362 7.32698C20.9265 7.6146 21.3854 8.07354 21.673 8.63803C22 9.27976 22 10.1198 22 11.8V17.2C22 18.8802 22 19.7202 21.673 20.362C21.3854 20.9265 20.9265 21.3854 20.362 21.673C19.7202 22 18.8802 22 17.2 22H6.8C5.11984 22 4.27976 22 3.63803 21.673C3.07354 21.3854 2.6146 20.9265 2.32698 20.362C2 19.7202 2 18.8802 2 17.2V11.8Z" fill="#0000CC"/>
<path fill-rule="evenodd" clip-rule="evenodd" d="M7.5 9H10.382L9.10557 11.5528C8.85858 12.0468 9.05881 12.6474 9.55279 12.8944C10.0468 13.1414 10.6474 12.9412 10.8944 12.4472L12 10.2361L13.1056 12.4472C13.3526 12.9412 13.9532 13.1414 14.4472 12.8944C14.9412 12.6474 15.1414 12.0468 14.8944 11.5528L13.618 9H16.5C17.4283 9 18.3185 8.63125 18.9749 7.97487C19.6313 7.3185 20 6.42826 20 5.5C20 4.57174 19.6313 3.6815 18.9749 3.02513C18.3185 2.36875 17.4283 2 16.5 2C14.1939 2 12.8073 3.66166 12.0613 5.01808C12.0405 5.0559 12.0201 5.09368 12 5.13141C11.9799 5.09368 11.9595 5.0559 11.9387 5.01808C11.1927 3.66166 9.8061 2 7.5 2C6.57174 2 5.6815 2.36875 5.02513 3.02513C4.36875 3.6815 4 4.57174 4 5.5C4 6.42826 4.36875 7.3185 5.02513 7.97487C5.6815 8.63125 6.57174 9 7.5 9ZM6.43934 4.43934C6.72064 4.15804 7.10218 4 7.5 4C8.6939 4 9.55732 4.83834 10.1863 5.98192C10.3774 6.32942 10.5319 6.68061 10.654 7H7.5C7.10218 7 6.72064 6.84196 6.43934 6.56066C6.15804 6.27936 6 5.89782 6 5.5C6 5.10218 6.15804 4.72064 6.43934 4.43934ZM16.5 7H13.346C13.4681 6.68061 13.6226 6.32942 13.8137 5.98192C14.4427 4.83834 15.3061 4 16.5 4C16.8978 4 17.2794 4.15804 17.5607 4.43934C17.842 4.72064 18 5.10218 18 5.5C18 5.89782 17.842 6.27936 17.5607 6.56066C17.2794 6.84196 16.8978 7 16.5 7Z" fill="#0000CC"/>
<path d="M2 17.2C2 17.4907 2 17.7563 2.00169 18H21.9983C22 17.7563 22 17.4907 22 17.2V16H2V17.2Z" fill="#0000CC"/>
</svg>
