<svg width="24" height="24" viewBox="0 0 24 24" fill="none" xmlns="http://www.w3.org/2000/svg">
<path opacity="0.3" fill-rule="evenodd" clip-rule="evenodd" d="M2 12C2 6.47715 6.47715 2 12 2C17.5228 2 22 6.47715 22 12C22 17.5228 17.5228 22 12 22C6.47715 22 2 17.5228 2 12Z" fill="#0000CC"/>
<path d="M9.13747 10.2065C9.54504 7.75876 10.7945 5.72266 11.9996 4.40674C13.2048 5.72266 14.4542 7.75876 14.8618 10.2065C14.9049 10.4655 14.9388 10.7301 14.9622 10.9998H9.03711C9.06048 10.7301 9.09435 10.4655 9.13747 10.2065Z" fill="#0000CC"/>
<path d="M7.03083 10.9998H4.06152C4.4453 7.92213 6.57728 5.38738 9.43237 4.42061C8.41309 5.87496 7.52131 7.7359 7.16463 9.87805C7.1035 10.2452 7.05832 10.6193 7.03083 10.9998Z" fill="#0000CC"/>
<path d="M14.9349 12.9998H9.0644C9.2912 14.9871 10.1391 17.1785 11.9996 19.4699C12.8787 18.3872 13.5318 17.3268 14 16.2998V15.9998C14 15.0627 14.3222 14.2009 14.862 13.5191C14.8911 13.3445 14.9153 13.1714 14.9349 12.9998Z" fill="#0000CC"/>
<path d="M7.0534 12.9998C7.25339 15.1048 8.0259 17.3521 9.62524 19.6415C6.67363 18.7255 4.4539 16.1464 4.06152 12.9998H7.0534Z" fill="#0000CC"/>
<path d="M19.9377 10.9998H16.9684C16.9409 10.6193 16.8958 10.2452 16.8346 9.87805C16.478 7.7359 15.5862 5.87496 14.5669 4.42061C17.422 5.38738 19.554 7.92213 19.9377 10.9998Z" fill="#0000CC"/>
<path d="M18 13.9998C18 13.4475 18.4477 12.9998 19 12.9998C19.5523 12.9998 20 13.4475 20 13.9998H21C21.5523 13.9998 22 14.4475 22 14.9998C22 15.5521 21.5523 15.9998 21 15.9998H18.25C18.1119 15.9998 18 16.1117 18 16.2498C18 16.3879 18.1119 16.4998 18.25 16.4998H20C21.1046 16.4998 22 17.3952 22 18.4998V18.9998C22 20.1044 21.1046 20.9998 20 20.9998C20 21.5521 19.5523 21.9998 19 21.9998C18.4477 21.9998 18 21.5521 18 20.9998H17C16.4477 20.9998 16 20.5521 16 19.9998C16 19.4475 16.4477 18.9998 17 18.9998H19.75C19.8881 18.9998 20 18.8879 20 18.7498C20 18.6117 19.8881 18.4998 19.75 18.4998H18C16.8954 18.4998 16 17.6044 16 16.4998V15.9998C16 14.8952 16.8954 13.9998 18 13.9998Z" fill="#0000CC"/>
</svg>
