<svg width="24" height="24" viewBox="0 0 24 24" fill="none" xmlns="http://www.w3.org/2000/svg">
<path opacity="0.3" d="M11 11.0907V3C11 2.44771 11.4477 2 12 2C15.0376 2 17.5 4.46243 17.5 7.5C17.5 10.1961 15.5601 12.4391 13 12.9093V21C13 21.5523 12.5523 22 12 22C8.96243 22 6.5 19.5376 6.5 16.5C6.5 13.8039 8.43988 11.5609 11 11.0907Z" fill="#0000CC"/>
<path d="M7.5 6.5C4.46243 6.5 2 8.96243 2 12C2 12.5523 2.44772 13 3 13H11.0907C11.5609 15.5601 13.8039 17.5 16.5 17.5C19.5376 17.5 22 15.0376 22 12C22 11.4477 21.5523 11 21 11H12.9093C12.4391 8.43988 10.1961 6.5 7.5 6.5Z" fill="#0000CC"/>
</svg>
