<svg width="24" height="24" viewBox="0 0 24 24" fill="none" xmlns="http://www.w3.org/2000/svg">
<path opacity="0.3" fill-rule="evenodd" clip-rule="evenodd" d="M12.8942 9.0928C12.6472 8.59882 12.0465 8.3986 11.5526 8.64559L7.09261 10.8756C6.75382 11.045 6.53982 11.3912 6.53982 11.77V21C6.53982 21.5523 6.98754 22 7.53982 22C8.0921 22 8.53982 21.5523 8.53982 21V12.388L12.447 10.4344C12.941 10.1875 13.1412 9.58678 12.8942 9.0928Z" fill="#0000CC"/>
<path d="M12.4472 3.10557C12.1657 2.96481 11.8343 2.96481 11.5528 3.10557L1.55279 8.10557C1.214 8.27496 1 8.62123 1 9C1 9.37877 1.214 9.72504 1.55279 9.89443L6.54006 12.3881V11.7702C6.54006 11.3915 6.75407 11.0452 7.09285 10.8758L11.5528 8.64583C12.0468 8.39884 12.6475 8.59907 12.8945 9.09304C13.1414 9.58702 12.9412 10.1877 12.4472 10.4347L8.54006 12.3883V13.3881L11.5528 14.8944C11.8343 15.0352 12.1657 15.0352 12.4472 14.8944L22.4472 9.89443C22.786 9.72504 23 9.37877 23 9C23 8.62123 22.786 8.27496 22.4472 8.10557L12.4472 3.10557Z" fill="#0000CC"/>
<path d="M6.54006 14.624L4 13.354V16.4999C4 16.8787 4.214 17.2249 4.55279 17.3943L6.54006 18.388V14.624Z" fill="#0000CC"/>
<path d="M8.54006 19.388V15.624L10.6584 16.6832C11.5029 17.1055 12.4971 17.1055 13.3416 16.6832L20 13.354V16.4999C20 16.8787 19.786 17.2249 19.4472 17.3943L12.4472 20.8943C12.1657 21.0351 11.8343 21.0351 11.5528 20.8943L8.54006 19.388Z" fill="#0000CC"/>
</svg>
