<svg width="24" height="24" viewBox="0 0 24 24" fill="none" xmlns="http://www.w3.org/2000/svg">
<g opacity="0.3">
<path d="M22 8C22.5523 8 23 8.44772 23 9V17C23 17.5523 22.5523 18 22 18C21.4477 18 21 17.5523 21 17V10H12C11.4477 10 11 9.55228 11 9C11 8.44772 11.4477 8 12 8H22Z" fill="#0000CC"/>
<path d="M5.43087 14.0694L10.6586 16.6832C11.5032 17.1055 12.4973 17.1055 13.3419 16.6832L18.5697 14.0693L18.866 16.7364C18.9893 17.8458 18.4079 18.9144 17.4095 19.4136C14.0043 21.1162 9.9962 21.1162 6.59099 19.4136C5.59262 18.9144 5.01127 17.8458 5.13453 16.7364L5.43087 14.0694Z" fill="#0000CC"/>
</g>
<path d="M11.5528 3.10557C11.8343 2.96481 12.1657 2.96481 12.4472 3.10557L22.4279 8.09589C22.2981 8.0344 22.1531 8 22 8H12C11.4477 8 11 8.44772 11 9C11 9.55228 11.4477 10 12 10H21V10.618L12.4472 14.8944C12.1657 15.0352 11.8343 15.0352 11.5528 14.8944L1.55279 9.89443C1.214 9.72504 1 9.37877 1 9C1 8.62123 1.214 8.27496 1.55279 8.10557L11.5528 3.10557Z" fill="#0000CC"/>
</svg>
