<svg width="24" height="24" viewBox="0 0 24 24" fill="none" xmlns="http://www.w3.org/2000/svg">
<g opacity="0.3">
<path d="M3.21799 4.09202C3 4.51984 3 5.0799 3 6.2V7.8C3 8.9201 3 9.48016 3.21799 9.90798C3.40973 10.2843 3.71569 10.5903 4.09202 10.782C4.51984 11 5.0799 11 6.2 11H7.8C8.9201 11 9.48016 11 9.90798 10.782C10.2843 10.5903 10.5903 10.2843 10.782 9.90798C11 9.48016 11 8.9201 11 7.8V6.2C11 5.0799 11 4.51984 10.782 4.09202C10.5903 3.71569 10.2843 3.40973 9.90798 3.21799C9.48016 3 8.9201 3 7.8 3H6.2C5.0799 3 4.51984 3 4.09202 3.21799C3.71569 3.40973 3.40973 3.71569 3.21799 4.09202Z" fill="#0000CC"/>
<path d="M13.218 4.09202C13 4.51984 13 5.0799 13 6.2V7.8C13 8.9201 13 9.48016 13.218 9.90798C13.4097 10.2843 13.7157 10.5903 14.092 10.782C14.5198 11 15.0799 11 16.2 11H17.8C18.9201 11 19.4802 11 19.908 10.782C20.2843 10.5903 20.5903 10.2843 20.782 9.90798C21 9.48016 21 8.9201 21 7.8V6.2C21 5.0799 21 4.51984 20.782 4.09202C20.5903 3.71569 20.2843 3.40973 19.908 3.21799C19.4802 3 18.9201 3 17.8 3H16.2C15.0799 3 14.5198 3 14.092 3.21799C13.7157 3.40973 13.4097 3.71569 13.218 4.09202Z" fill="#0000CC"/>
<path d="M3.21799 14.092C3 14.5198 3 15.0799 3 16.2V17.8C3 18.9201 3 19.4802 3.21799 19.908C3.40973 20.2843 3.71569 20.5903 4.09202 20.782C4.51984 21 5.0799 21 6.2 21H7.8C8.9201 21 9.48016 21 9.90798 20.782C10.2843 20.5903 10.5903 20.2843 10.782 19.908C11 19.4802 11 18.9201 11 17.8V16.2C11 15.0799 11 14.5198 10.782 14.092C10.5903 13.7157 10.2843 13.4097 9.90798 13.218C9.48016 13 8.9201 13 7.8 13H6.2C5.0799 13 4.51984 13 4.09202 13.218C3.71569 13.4097 3.40973 13.7157 3.21799 14.092Z" fill="#0000CC"/>
</g>
<path fill-rule="evenodd" clip-rule="evenodd" d="M16.5 13C14.567 13 13 14.567 13 16.5C13 18.433 14.567 20 16.5 20C17.1028 20 17.6699 19.8476 18.1651 19.5793L19.2929 20.7071C19.6834 21.0976 20.3166 21.0976 20.7071 20.7071C21.0976 20.3166 21.0976 19.6834 20.7071 19.2929L19.5793 18.1651C19.8476 17.6699 20 17.1028 20 16.5C20 14.567 18.433 13 16.5 13ZM15 16.5C15 15.6716 15.6716 15 16.5 15C17.3284 15 18 15.6716 18 16.5C18 17.3284 17.3284 18 16.5 18C15.6716 18 15 17.3284 15 16.5Z" fill="#0000CC"/>
</svg>
