<svg width="24" height="24" viewBox="0 0 24 24" fill="none" xmlns="http://www.w3.org/2000/svg">
<g opacity="0.3">
<path d="M2.60899 13.546C2.5 13.7599 2.5 14.0399 2.5 14.6V16.4C2.5 16.9601 2.5 17.2401 2.60899 17.454C2.70487 17.6422 2.85785 17.7951 3.04601 17.891C3.25992 18 3.53995 18 4.1 18H5.9C6.46005 18 6.74008 18 6.95399 17.891C7.14215 17.7951 7.29513 17.6422 7.39101 17.454C7.5 17.2401 7.5 16.9601 7.5 16.4V14.6C7.5 14.0399 7.5 13.7599 7.39101 13.546C7.29513 13.3578 7.14215 13.2049 6.95399 13.109C6.74008 13 6.46005 13 5.9 13H4.1C3.53995 13 3.25992 13 3.04601 13.109C2.85785 13.2049 2.70487 13.3578 2.60899 13.546Z" fill="#0000CC"/>
<path d="M9.5 7.6C9.5 7.03995 9.5 6.75992 9.60899 6.54601C9.70487 6.35785 9.85785 6.20487 10.046 6.10899C10.2599 6 10.5399 6 11.1 6H12.9C13.4601 6 13.7401 6 13.954 6.10899C14.1422 6.20487 14.2951 6.35785 14.391 6.54601C14.5 6.75992 14.5 7.03995 14.5 7.6V9.4C14.5 9.96005 14.5 10.2401 14.391 10.454C14.2951 10.6422 14.1422 10.7951 13.954 10.891C13.7401 11 13.4601 11 12.9 11H11.1C10.5399 11 10.2599 11 10.046 10.891C9.85785 10.7951 9.70487 10.6422 9.60899 10.454C9.5 10.2401 9.5 9.96005 9.5 9.4V7.6Z" fill="#0000CC"/>
<path d="M16.609 13.546C16.5 13.7599 16.5 14.0399 16.5 14.6V16.4C16.5 16.9601 16.5 17.2401 16.609 17.454C16.7049 17.6422 16.8578 17.7951 17.046 17.891C17.2599 18 17.5399 18 18.1 18H19.9C20.4601 18 20.7401 18 20.954 17.891C21.1422 17.7951 21.2951 17.6422 21.391 17.454C21.5 17.2401 21.5 16.9601 21.5 16.4V14.6C21.5 14.0399 21.5 13.7599 21.391 13.546C21.2951 13.3578 21.1422 13.2049 20.954 13.109C20.7401 13 20.4601 13 19.9 13H18.1C17.5399 13 17.2599 13 17.046 13.109C16.8578 13.2049 16.7049 13.3578 16.609 13.546Z" fill="#0000CC"/>
</g>
<path d="M2.60899 6.54601C2.5 6.75992 2.5 7.03995 2.5 7.6V9.4C2.5 9.96005 2.5 10.2401 2.60899 10.454C2.70487 10.6422 2.85785 10.7951 3.04601 10.891C3.25992 11 3.53995 11 4.1 11H5.9C6.46005 11 6.74008 11 6.95399 10.891C7.14215 10.7951 7.29513 10.6422 7.39101 10.454C7.5 10.2401 7.5 9.96005 7.5 9.4V7.6C7.5 7.03995 7.5 6.75992 7.39101 6.54601C7.29513 6.35785 7.14215 6.20487 6.95399 6.10899C6.74008 6 6.46005 6 5.9 6H4.1C3.53995 6 3.25992 6 3.04601 6.10899C2.85785 6.20487 2.70487 6.35785 2.60899 6.54601Z" fill="#0000CC"/>
<path d="M9.60899 13.546C9.5 13.7599 9.5 14.0399 9.5 14.6V16.4C9.5 16.9601 9.5 17.2401 9.60899 17.454C9.70487 17.6422 9.85785 17.7951 10.046 17.891C10.2599 18 10.5399 18 11.1 18H12.9C13.4601 18 13.7401 18 13.954 17.891C14.1422 17.7951 14.2951 17.6422 14.391 17.454C14.5 17.2401 14.5 16.9601 14.5 16.4V14.6C14.5 14.0399 14.5 13.7599 14.391 13.546C14.2951 13.3578 14.1422 13.2049 13.954 13.109C13.7401 13 13.4601 13 12.9 13H11.1C10.5399 13 10.2599 13 10.046 13.109C9.85785 13.2049 9.70487 13.3578 9.60899 13.546Z" fill="#0000CC"/>
<path d="M16.5 7.6C16.5 7.03995 16.5 6.75992 16.609 6.54601C16.7049 6.35785 16.8578 6.20487 17.046 6.10899C17.2599 6 17.5399 6 18.1 6H19.9C20.4601 6 20.7401 6 20.954 6.10899C21.1422 6.20487 21.2951 6.35785 21.391 6.54601C21.5 6.75992 21.5 7.03995 21.5 7.6V9.4C21.5 9.96005 21.5 10.2401 21.391 10.454C21.2951 10.6422 21.1422 10.7951 20.954 10.891C20.7401 11 20.4601 11 19.9 11H18.1C17.5399 11 17.2599 11 17.046 10.891C16.8578 10.7951 16.7049 10.6422 16.609 10.454C16.5 10.2401 16.5 9.96005 16.5 9.4V7.6Z" fill="#0000CC"/>
</svg>
