<svg width="24" height="24" viewBox="0 0 24 24" fill="none" xmlns="http://www.w3.org/2000/svg">
<g opacity="0.3">
<path d="M13 6C13 4.89543 13.8954 4 15 4C16.1046 4 17 4.89543 17 6C17 7.10457 16.1046 8 15 8C13.8954 8 13 7.10457 13 6Z" fill="#0000CC"/>
<path d="M7 12C7 10.8954 7.89543 10 9 10C10.1046 10 11 10.8954 11 12C11 13.1046 10.1046 14 9 14C7.89543 14 7 13.1046 7 12Z" fill="#0000CC"/>
<path d="M15 16C13.8954 16 13 16.8954 13 18C13 19.1046 13.8954 20 15 20C16.1046 20 17 19.1046 17 18C17 16.8954 16.1046 16 15 16Z" fill="#0000CC"/>
</g>
<path d="M7 6C7 4.89543 7.89543 4 9 4C10.1046 4 11 4.89543 11 6C11 7.10457 10.1046 8 9 8C7.89543 8 7 7.10457 7 6Z" fill="#0000CC"/>
<path d="M13 12C13 10.8954 13.8954 10 15 10C16.1046 10 17 10.8954 17 12C17 13.1046 16.1046 14 15 14C13.8954 14 13 13.1046 13 12Z" fill="#0000CC"/>
<path d="M9 16C7.89543 16 7 16.8954 7 18C7 19.1046 7.89543 20 9 20C10.1046 20 11 19.1046 11 18C11 16.8954 10.1046 16 9 16Z" fill="#0000CC"/>
</svg>
