<svg width="24" height="24" viewBox="0 0 24 24" fill="none" xmlns="http://www.w3.org/2000/svg">
<path opacity="0.3" fill-rule="evenodd" clip-rule="evenodd" d="M8 3C8 2.44772 7.55229 2 7 2C6.44772 2 6 2.44772 6 3V4.00003C5.54097 4.00031 5.14075 4.00314 4.80498 4.03057C4.40963 4.06287 4.01641 4.13419 3.63803 4.32698C3.07355 4.6146 2.6146 5.07354 2.32698 5.63803C2.13419 6.01641 2.06287 6.40963 2.03057 6.80497C1.99997 7.17953 1.99998 7.6343 2 8.16142V17.8386C1.99998 18.3657 1.99997 18.8205 2.03057 19.195C2.06287 19.5904 2.13419 19.9836 2.32698 20.362C2.6146 20.9265 3.07355 21.3854 3.63803 21.673C4.01641 21.8658 4.40963 21.9371 4.80498 21.9694C5.17954 22 5.6343 22 6.16144 22H17.8386C18.3657 22 18.8205 22 19.195 21.9694C19.5904 21.9371 19.9836 21.8658 20.362 21.673C20.9265 21.3854 21.3854 20.9265 21.673 20.362C21.8658 19.9836 21.9371 19.5904 21.9694 19.195C22 18.8205 22 18.3657 22 17.8386V8.16144C22 7.6343 22 7.17954 21.9694 6.80497C21.9371 6.40963 21.8658 6.01641 21.673 5.63803C21.3854 5.07354 20.9265 4.6146 20.362 4.32698C19.9836 4.13419 19.5904 4.06287 19.195 4.03057C18.8593 4.00314 18.459 4.00028 18 4V3C18 2.44772 17.5523 2 17 2C16.4477 2 16 2.44772 16 3V4H8V3ZM10.5092 12.4197C10.8997 12.0292 10.8997 11.396 10.5092 11.0055L7.25184 7.74815C6.86131 7.35763 6.22815 7.35763 5.83762 7.74815C4.58228 9.0035 4.94524 10.9845 6.10907 12.1483C7.2729 13.3121 9.25385 13.6751 10.5092 12.4197ZM13.6422 12.3571C13.2516 11.9666 13.2516 11.3334 13.6422 10.9429L16.6848 7.90025C17.0753 7.50973 17.7085 7.50973 18.099 7.90025C19.3049 9.10618 18.95 10.999 17.8455 12.1036C16.7409 13.2081 14.8481 13.563 13.6422 12.3571ZM6.44491 15.168C6.90444 14.8616 7.52531 14.9858 7.83166 15.4453L8.27696 16.1133L8.94491 15.668C9.40444 15.3616 10.0253 15.4858 10.3317 15.9453L10.655 16.4304L11.2925 15.7929C11.683 15.4024 12.3162 15.4024 12.7067 15.7929L13.3442 16.4304L13.6676 15.9453C13.9739 15.4858 14.5948 15.3616 15.0543 15.668L15.7223 16.1133L16.1676 15.4453C16.4739 14.9858 17.0948 14.8616 17.5543 15.168C18.0138 15.4743 18.138 16.0952 17.8317 16.5547L16.8317 18.0547C16.5253 18.5142 15.9044 18.6384 15.4449 18.3321L14.777 17.8868L14.3317 18.5547C14.1655 18.804 13.8963 18.9656 13.5981 18.9952C13.3 19.0247 13.0043 18.919 12.7925 18.7071L11.9996 17.9142L11.2067 18.7071C10.9949 18.919 10.6992 19.0247 10.4011 18.9952C10.1029 18.9656 9.83375 18.804 9.66756 18.5547L9.22226 17.8868L8.55431 18.3321C8.09478 18.6384 7.47391 18.5142 7.16756 18.0547L6.16756 16.5547C5.86121 16.0952 5.98538 15.4743 6.44491 15.168Z" fill="#0000CC"/>
<path fill-rule="evenodd" clip-rule="evenodd" d="M10.5092 12.4197C10.8997 12.0292 10.8997 11.396 10.5092 11.0055L7.25184 7.74815C6.86131 7.35763 6.22815 7.35763 5.83762 7.74815C4.58228 9.0035 4.94524 10.9845 6.10907 12.1483C7.2729 13.3121 9.25385 13.6751 10.5092 12.4197ZM13.6422 12.3571C13.2516 11.9666 13.2516 11.3334 13.6422 10.9429L16.6848 7.90025C17.0753 7.50973 17.7085 7.50973 18.099 7.90025C19.3049 9.10618 18.95 10.999 17.8455 12.1036C16.7409 13.2081 14.8481 13.563 13.6422 12.3571ZM6.44491 15.168C6.90444 14.8616 7.52531 14.9858 7.83166 15.4453L8.27696 16.1133L8.94491 15.668C9.40444 15.3616 10.0253 15.4858 10.3317 15.9453L10.655 16.4304L11.2925 15.7929C11.683 15.4024 12.3162 15.4024 12.7067 15.7929L13.3442 16.4304L13.6676 15.9453C13.9739 15.4858 14.5948 15.3616 15.0543 15.668L15.7223 16.1133L16.1676 15.4453C16.4739 14.9858 17.0948 14.8616 17.5543 15.168C18.0138 15.4743 18.138 16.0952 17.8317 16.5547L16.8317 18.0547C16.5253 18.5142 15.9044 18.6384 15.4449 18.3321L14.777 17.8868L14.3317 18.5547C14.1655 18.804 13.8963 18.9656 13.5981 18.9952C13.3 19.0247 13.0043 18.919 12.7925 18.7071L11.9996 17.9142L11.2067 18.7071C10.9949 18.919 10.6992 19.0247 10.4011 18.9952C10.1029 18.9656 9.83374 18.804 9.66756 18.5547L9.22226 17.8868L8.55431 18.3321C8.09478 18.6384 7.47391 18.5142 7.16756 18.0547L6.16756 16.5547C5.86121 16.0952 5.98538 15.4743 6.44491 15.168Z" fill="#0000CC"/>
</svg>
