<svg width="24" height="24" viewBox="0 0 24 24" fill="none" xmlns="http://www.w3.org/2000/svg">
<path opacity="0.3" fill-rule="evenodd" clip-rule="evenodd" d="M13 19.8814C13.3506 19.7928 13.6882 19.6505 13.9882 19.4402C14.6096 19.0046 15 18.3204 15 17.4704C15 17.1706 14.9559 16.8809 14.8739 16.6077C17.8766 15.4412 20 12.5037 20 9.07221C20 4.62375 16.4279 1 12 1C7.57207 1 4 4.62375 4 9.07221C4 12.5036 6.1233 15.4412 9.1261 16.6077C9.04412 16.8809 9 17.1706 9 17.4704C9 18.3204 9.39041 19.0046 10.0118 19.4402C10.3118 19.6505 10.6494 19.7928 11 19.8814V22C11 22.5523 11.4477 23 12 23C12.5523 23 13 22.5523 13 22V19.8814ZM10.8159 4.64646C10.963 4.79359 11.0036 5.01646 10.9179 5.20604C10.709 5.66795 10.5925 6.181 10.5925 6.72263C10.5925 8.75776 12.2423 10.4076 14.2774 10.4076C14.819 10.4076 15.3321 10.291 15.794 10.0821C15.9836 9.99639 16.2064 10.037 16.3536 10.1842C16.5007 10.3313 16.5413 10.5541 16.4556 10.7437C15.721 12.3681 14.0857 13.5 12.1849 13.5C9.59751 13.5 7.5 11.4025 7.5 8.81509C7.5 6.91435 8.63189 5.27905 10.2563 4.54444C10.4459 4.4587 10.6687 4.49933 10.8159 4.64646Z" fill="#0000CC"/>
<path fill-rule="evenodd" clip-rule="evenodd" d="M10.8159 4.64646C10.963 4.79359 11.0036 5.01646 10.9179 5.20604C10.709 5.66795 10.5925 6.181 10.5925 6.72263C10.5925 8.75776 12.2423 10.4076 14.2774 10.4076C14.819 10.4076 15.3321 10.291 15.794 10.0821C15.9836 9.99639 16.2064 10.037 16.3536 10.1842C16.5007 10.3313 16.5413 10.5541 16.4556 10.7437C15.721 12.3681 14.0857 13.5 12.1849 13.5C9.59751 13.5 7.5 11.4025 7.5 8.81509C7.5 6.91435 8.63189 5.27905 10.2563 4.54444C10.4459 4.4587 10.6687 4.49933 10.8159 4.64646Z" fill="#0000CC"/>
</svg>
