<svg width="24" height="24" viewBox="0 0 24 24" fill="none" xmlns="http://www.w3.org/2000/svg">
<g opacity="0.3">
<path d="M16.9856 1.62585C16.6442 1.43616 16.2236 1.46262 15.9086 1.6936L10.6071 5.5814C9.832 6.14967 9.34458 6.50703 8.92701 6.94045C8.55692 7.32457 8.23196 7.74973 7.95844 8.20766C7.64981 8.72436 7.43291 9.28847 7.088 10.1855L5.04397 15.5H9.4997V15C9.4997 14.4477 9.94741 14 10.4997 14H13.4997C14.052 14 14.4997 14.4477 14.4997 15V15.5H18.877L17.6151 12.3452C17.3505 11.6837 17.2481 11.4236 17.1763 11.1606C17.1095 10.9157 17.0614 10.6662 17.0325 10.414C17.0015 10.1431 17 9.86367 17 9.15121V8.61804L17.8025 8.21676L20.2929 10.7071C20.5789 10.9931 21.009 11.0787 21.3827 10.9239C21.7564 10.7691 22 10.4045 22 10V5C22 4.63684 21.8031 4.30222 21.4856 4.12585L16.9856 1.62585Z" fill="#0000CC"/>
<path d="M19.677 17.5H14.4997V18C14.4997 18.5523 14.052 19 13.4997 19H10.4997C9.94741 19 9.4997 18.5523 9.4997 18V17.5H4.27474L3.61618 19.2123C3.22377 18.9045 2.65438 18.9314 2.29289 19.2929C1.90237 19.6834 1.90237 20.3166 2.29289 20.7071L3.29289 21.7071C3.48043 21.8946 3.73478 22 4 22H20C20.2652 22 20.5196 21.8946 20.7071 21.7071L21.7071 20.7071C22.0976 20.3166 22.0976 19.6834 21.7071 19.2929C21.3405 18.9263 20.76 18.9038 20.3673 19.2255L19.677 17.5Z" fill="#0000CC"/>
</g>
<path fill-rule="evenodd" clip-rule="evenodd" d="M4.27441 17.5L5.04364 15.5H9.49937V15C9.49937 14.4477 9.94709 14 10.4994 14H13.4994C14.0517 14 14.4994 14.4477 14.4994 15V15.5H18.8767L19.6767 17.5H14.4994V18C14.4994 18.5523 14.0517 19 13.4994 19H10.4994C9.94709 19 9.49937 18.5523 9.49937 18V17.5H4.27441ZM12.4994 16H11.4994V17H12.4994V16Z" fill="#0000CC"/>
</svg>
