<svg width="24" height="24" viewBox="0 0 24 24" fill="none" xmlns="http://www.w3.org/2000/svg">
<g opacity="0.3">
<path d="M18.9662 3.25767C19.0696 2.86997 18.9313 2.45802 18.6148 2.21133C18.2984 1.96464 17.8651 1.93099 17.5144 2.12585L11.4626 5.4879C10.4282 6.06244 9.77784 6.42363 9.22319 6.90624C8.73197 7.33366 8.30278 7.82753 7.94805 8.37356C7.54752 8.9901 7.28055 9.68445 6.85591 10.7889L5.23628 15H9.17071C9.58254 13.8348 10.6938 13 12 13C13.3062 13 14.4175 13.8348 14.8293 15H18.7844L18.0379 13.0404C17.6151 11.9307 17.453 11.4939 17.3743 11.0527C17.3011 10.6423 17.2794 10.2243 17.3099 9.80845C17.3427 9.36149 17.4589 8.91028 17.7648 7.76291L18.9662 3.25767Z" fill="#0000CC"/>
<path d="M19.5463 17H14.8293C14.4175 18.1652 13.3062 19 12 19C10.6938 19 9.58254 18.1652 9.17071 17H4.46705L3.61618 19.2123C3.22377 18.9045 2.65438 18.9314 2.29289 19.2929C1.90237 19.6834 1.90237 20.3166 2.29289 20.7071L3.29289 21.7071C3.48043 21.8946 3.73478 22 4 22H20C20.2652 22 20.5196 21.8946 20.7071 21.7071L21.7071 20.7071C22.0976 20.3166 22.0976 19.6834 21.7071 19.2929C21.3469 18.9326 20.7801 18.9047 20.3879 19.2091L19.5463 17Z" fill="#0000CC"/>
<path d="M11 16C11 15.4477 11.4477 15 12 15C12.5523 15 13 15.4477 13 16C13 16.5523 12.5523 17 12 17C11.4477 17 11 16.5523 11 16Z" fill="#0000CC"/>
</g>
<path fill-rule="evenodd" clip-rule="evenodd" d="M4.4668 17L5.23603 15H9.17045C9.58229 13.8348 10.6935 13 11.9997 13C13.306 13 14.4172 13.8348 14.829 15H18.7841L19.546 17H14.829C14.4172 18.1652 13.306 19 11.9997 19C10.6935 19 9.58229 18.1652 9.17045 17H4.4668ZM10.9997 16C10.9997 15.4477 11.4475 15 11.9997 15C12.552 15 12.9997 15.4477 12.9997 16C12.9997 16.5523 12.552 17 11.9997 17C11.4475 17 10.9997 16.5523 10.9997 16Z" fill="#0000CC"/>
</svg>
