<svg width="24" height="24" viewBox="0 0 24 24" fill="none" xmlns="http://www.w3.org/2000/svg">
<path opacity="0.3" d="M4 12C4 7.58172 7.58172 4 12 4C16.4183 4 20 7.58172 20 12V16C20 16.5523 20.4477 17 21 17C21.5523 17 22 16.5523 22 16V12C22 6.47715 17.5228 2 12 2C6.47715 2 2 6.47715 2 12V17C2 17.5523 2.44772 18 3 18C3.55228 18 4 17.5523 4 17V12Z" fill="#0000CC"/>
<path d="M5 15.4286C5 13.535 6.53502 12 8.42857 12C9.84873 12 11 13.1513 11 14.5714V19.4286C11 20.8487 9.84873 22 8.42857 22C6.53502 22 5 20.465 5 18.5714V15.4286Z" fill="#0000CC"/>
<path d="M19 15.4286C19 13.535 17.465 12 15.5714 12C14.1513 12 13 13.1513 13 14.5714V19.4286C13 20.8487 14.1513 22 15.5714 22C17.465 22 19 20.465 19 18.5714V15.4286Z" fill="#0000CC"/>
</svg>
