<svg width="24" height="24" viewBox="0 0 24 24" fill="none" xmlns="http://www.w3.org/2000/svg">
<g opacity="0.3">
<path d="M12 3.5C7.92038 3.5 4.55399 6.55369 4.06189 10.5H3C2.44772 10.5 2 10.9477 2 11.5C2 5.97715 6.47715 1.5 12 1.5C17.5228 1.5 22 5.97715 22 11.5C22 10.9477 21.5523 10.5 21 10.5H19.9381C19.446 6.55369 16.0796 3.5 12 3.5Z" fill="#0000CC"/>
<path d="M4 18.5C4 20.1569 5.34315 21.5 7 21.5H8.26757C8.0974 21.2058 8 20.8643 8 20.5C8 20.1357 8.09739 19.7942 8.26756 19.5H7C6.44772 19.5 6 19.0523 6 18.5C6 18.4435 5.99531 18.3881 5.9863 18.3341C5.6774 18.4416 5.34552 18.5 5 18.5H4Z" fill="#0000CC"/>
</g>
<path d="M3 10.5C2.44772 10.5 2 10.9477 2 11.5V16.5C2 17.6046 2.89543 18.5 4 18.5H5C6.65685 18.5 8 17.1569 8 15.5V13.5C8 11.8431 6.65685 10.5 5 10.5H3Z" fill="#0000CC"/>
<path d="M19 10.5C17.3431 10.5 16 11.8431 16 13.5V15.5C16 17.1569 17.3431 18.5 19 18.5H20C21.1046 18.5 22 17.6046 22 16.5V11.5C22 10.9477 21.5523 10.5 21 10.5H19Z" fill="#0000CC"/>
<path d="M10 18.5C8.89543 18.5 8 19.3954 8 20.5C8 21.6046 8.89543 22.5 10 22.5H12C13.1046 22.5 14 21.6046 14 20.5C14 19.3954 13.1046 18.5 12 18.5H10Z" fill="#0000CC"/>
</svg>
