<svg width="24" height="24" viewBox="0 0 24 24" fill="none" xmlns="http://www.w3.org/2000/svg">
<path opacity="0.3" d="M12 2C6.47715 2 2 6.47715 2 12V15.5C2 15.5216 2.0044 15.016 2.017 14.8618C2.03568 14.6332 2.07974 14.3634 2.21804 14.092C2.40979 13.7157 2.71575 13.4097 3.09207 13.218C3.3635 13.0797 3.63323 13.0356 3.86182 13.017C3.9106 13.013 4.13651 12.997 4 13.0082V12C4 7.58172 7.58172 4 12 4C16.4183 4 20 7.58172 20 12V13.0082C20 13.0082 19.9784 13.0064 19.9389 13.0057C19.9595 13.0064 19.9799 13.0073 20 13.0082C20.0476 13.0105 20.0938 13.0133 20.1383 13.017C20.3669 13.0356 20.6366 13.0797 20.908 13.218C21.2844 13.4097 21.5903 13.7157 21.7821 14.092C21.9204 14.3634 21.9644 14.6332 21.9831 14.8618C21.9974 15.0361 21.9996 15.2368 22 15.4456V12C22 6.47715 17.5228 2 12 2Z" fill="#0000CC"/>
<path fill-rule="evenodd" clip-rule="evenodd" d="M4.56816 13C5.18943 13.0001 5.81192 13.0001 6.43195 13C6.68433 13 6.93013 12.9999 7.13828 13.017C7.36688 13.0356 7.63661 13.0797 7.90804 13.218C8.28436 13.4097 8.59032 13.7157 8.78207 14.092C8.92036 14.3634 8.96443 14.6332 8.98311 14.8618C9.00012 15.0699 9.00009 15.3157 9.00006 15.5681C9.00006 15.5787 9.00005 15.5894 9.00005 15.6V19.75C9.00005 19.7665 9.00009 19.7834 9.00013 19.8007C9.00054 19.9768 9.00103 20.1921 8.96163 20.3902C8.80381 21.1836 8.18361 21.8038 7.39023 21.9616C7.19214 22.001 6.97689 22.0005 6.80076 22.0001C6.78346 22 6.76654 22 6.75005 22C6.71516 22 6.68077 22 6.64689 22C6.05057 22.0003 5.60835 22.0005 5.21969 21.9231C3.63293 21.6075 2.39254 20.3671 2.07691 18.7804C1.9996 18.3917 1.99978 17.9495 2.00003 17.3532C2.00004 17.3193 2.00005 17.2849 2.00005 17.25V15.6C2.00005 15.5894 2.00005 15.5787 2.00005 15.5681C2.00002 15.3157 1.99999 15.0699 2.017 14.8618C2.03568 14.6332 2.07974 14.3634 2.21804 14.092C2.40979 13.7157 2.71575 13.4097 3.09207 13.218C3.3635 13.0797 3.63323 13.0356 3.86182 13.017C4.06998 12.9999 4.31577 13 4.56816 13ZM17.5682 13H19.432C19.6843 13 19.9301 12.9999 20.1383 13.017C20.3669 13.0356 20.6366 13.0797 20.908 13.218C21.2844 13.4097 21.5903 13.7157 21.7821 14.092C21.9204 14.3634 21.9644 14.6332 21.9831 14.8618C22.0001 15.0699 22.0001 15.3157 22.0001 15.5681L22.0001 17.25C22.0001 17.2849 22.0001 17.3193 22.0001 17.3532C22.0003 17.9495 22.0005 18.3917 21.9232 18.7804C21.6076 20.3671 20.3672 21.6075 18.7804 21.9231C18.3918 22.0005 17.9495 22.0003 17.3532 22C17.3193 22 17.285 22 17.2501 22C17.2336 22 17.2166 22 17.1993 22.0001C17.0232 22.0005 16.808 22.001 16.6099 21.9616C15.8165 21.8038 15.1963 21.1836 15.0385 20.3902C14.9991 20.1921 14.9996 19.9768 15 19.8007C15 19.7834 15.0001 19.7665 15.0001 19.75L15.0001 15.5681C15 15.3157 15 15.0699 15.017 14.8618C15.0357 14.6332 15.0797 14.3634 15.218 14.092C15.4098 13.7157 15.7157 13.4097 16.0921 13.218C16.3635 13.0797 16.6332 13.0356 16.8618 13.017C17.07 12.9999 17.3158 13 17.5682 13Z" fill="#0000CC"/>
</svg>
