<svg width="24" height="24" viewBox="0 0 24 24" fill="none" xmlns="http://www.w3.org/2000/svg">
<path opacity="0.3" d="M4.29094 4.41385C6.74487 2.32379 9.87631 2.77604 11.9995 4.59052C14.1175 2.77572 17.2061 2.34999 19.6866 4.4051C22.4064 6.65854 22.7335 10.5048 20.6387 13.1918C19.8478 14.2063 18.3093 15.7248 16.8372 17.1099C15.3459 18.513 13.8583 19.8388 13.1247 20.4863L13.1102 20.4992C13.0419 20.5595 12.9532 20.638 12.8675 20.7022C12.7639 20.78 12.6118 20.8791 12.4077 20.9398C12.1385 21.0199 11.8494 21.0199 11.5803 20.9398C11.3761 20.8791 11.224 20.78 11.1204 20.7022C11.0347 20.6379 10.946 20.5595 10.8777 20.4992L10.8632 20.4863C10.1297 19.8388 8.642 18.513 7.15069 17.1099C5.67858 15.7248 4.14012 14.2063 3.34924 13.1918C1.2456 10.4934 1.63366 6.67711 4.29094 4.41385Z" fill="#0000CC"/>
<path d="M12.0017 4.58806L14.7064 7.29275C14.9337 7.52004 15.0379 7.84275 14.9864 8.16004C14.9349 8.47733 14.734 8.75054 14.4465 8.89429L11.6875 10.2738L13.7064 12.2928C14.097 12.6833 14.097 13.3164 13.7064 13.707C13.3159 14.0975 12.6827 14.0975 12.2922 13.707L9.29221 10.707C9.06492 10.4797 8.96074 10.157 9.01223 9.83968C9.06372 9.52239 9.2646 9.24919 9.55211 9.10544L12.3111 7.72592L7.62305 3.03791C9.20151 2.94578 10.7692 3.53972 11.9988 4.59052L12.0017 4.58806Z" fill="#0000CC"/>
</svg>
