<svg width="24" height="24" viewBox="0 0 24 24" fill="none" xmlns="http://www.w3.org/2000/svg">
<path opacity="0.3" fill-rule="evenodd" clip-rule="evenodd" d="M12 22C17.5228 22 22 17.5228 22 12C22 6.47715 17.5228 2 12 2C6.47715 2 2 6.47715 2 12C2 17.5228 6.47715 22 12 22Z" fill="#0000CC"/>
<path fill-rule="evenodd" clip-rule="evenodd" d="M9.72881 9.44872C10.868 9.6469 11.759 9.22253 12.3726 8.9303L12.4293 8.90332C13.0914 8.58876 13.4575 8.43982 13.9288 8.5218C14.1125 8.55376 14.3908 8.64205 14.6623 8.74255C14.81 8.79723 14.9569 8.85482 15.1016 8.91717C15.6079 9.13727 16.1969 8.90535 16.4172 8.39903C16.6375 7.89261 16.4049 7.30315 15.8985 7.08281C15.379 6.85714 14.8305 6.64863 14.2716 6.5514C13.1324 6.35322 12.2414 6.77759 11.6278 7.06982L11.5711 7.0968C10.909 7.41136 10.5429 7.5603 10.0716 7.47832C9.88789 7.44636 9.60963 7.35807 9.33811 7.25757C9.19031 7.20287 9.04371 7.14482 8.89877 7.08292C8.39243 6.86288 7.80352 7.09481 7.58323 7.6011C7.36289 8.10753 7.59549 8.69699 8.10192 8.91733C8.28074 8.99381 8.4615 9.06571 8.6439 9.13322C8.93291 9.24019 9.35464 9.38363 9.72881 9.44872ZM9.16611 13.4545C10.4725 13.6313 11.4943 13.2533 12.2984 12.956C13.1543 12.6394 13.7673 12.4195 14.5661 12.5276C15.1181 12.6023 15.6535 12.7699 16.1798 12.9473C16.7029 13.1243 17.2704 12.8437 17.4474 12.3206C17.6245 11.7975 17.3433 11.2297 16.8201 11.0526C16.1719 10.837 15.5131 10.6375 14.8343 10.5456C13.528 10.3689 12.5061 10.7468 11.702 11.0441L11.6536 11.062C10.8231 11.3689 10.2179 11.5786 9.43429 11.4725C8.88623 11.3984 8.34464 11.2269 7.82064 11.0528C7.29752 10.8758 6.72999 11.1564 6.55297 11.6795C6.37594 12.2027 6.65716 12.7705 7.1803 12.9475C7.82451 13.1646 8.49177 13.3632 9.16611 13.4545ZM9.72881 17.4487C10.868 17.6469 11.759 17.2225 12.3726 16.9303L12.4293 16.9033C13.0914 16.5888 13.4575 16.4398 13.9288 16.5218C14.3315 16.5919 14.7268 16.7571 15.1016 16.9172C15.608 17.1373 16.1969 16.9053 16.4172 16.399C16.6375 15.8926 16.4049 15.3032 15.8985 15.0828L15.8975 15.0824C15.3762 14.8595 14.8315 14.6488 14.2716 14.5514C13.1324 14.3532 12.2414 14.7776 11.6278 15.0698L11.5711 15.0968C10.909 15.4114 10.5429 15.5603 10.0716 15.4783C9.66353 15.4073 9.27721 15.246 8.89883 15.083C8.39248 14.8629 7.80353 15.0948 7.58323 15.6011C7.36289 16.1075 7.59549 16.697 8.10192 16.9173C8.62177 17.1426 9.1697 17.3515 9.72881 17.4487Z" fill="#0000CC"/>
</svg>
