<svg width="24" height="24" viewBox="0 0 24 24" fill="none" xmlns="http://www.w3.org/2000/svg">
<path opacity="0.3" fill-rule="evenodd" clip-rule="evenodd" d="M7.85256 2.33954C7.87676 2.33963 7.90038 2.33971 7.92336 2.33971H16.0758C16.0988 2.33971 16.1224 2.33963 16.1466 2.33954C16.4059 2.33861 16.732 2.33744 17.0403 2.4376C17.3068 2.52421 17.5522 2.66588 17.7605 2.85342C18.0014 3.0703 18.1634 3.35328 18.2922 3.57831C18.3043 3.59932 18.316 3.61982 18.3275 3.63971L22.4037 10.7C22.4152 10.7199 22.4271 10.7403 22.4393 10.7612C22.5698 10.9853 22.7338 11.2671 22.8012 11.5841C22.8595 11.8583 22.8595 12.1416 22.8012 12.4158C22.7338 12.7328 22.5698 13.0146 22.4393 13.2387C22.4271 13.2597 22.4152 13.2801 22.4037 13.3L18.3275 20.3602C18.316 20.3801 18.3043 20.4006 18.2923 20.4216C18.1634 20.6466 18.0014 20.9296 17.7605 21.1465C17.5522 21.3341 17.3068 21.4757 17.0403 21.5623C16.732 21.6625 16.4059 21.6613 16.1466 21.6604C16.1224 21.6603 16.0988 21.6602 16.0758 21.6602H7.92336C7.90039 21.6602 7.87677 21.6603 7.85256 21.6604C7.59325 21.6613 7.26717 21.6625 6.95891 21.5623C6.69235 21.4757 6.44697 21.3341 6.23869 21.1465C5.99782 20.9296 5.83579 20.6467 5.70694 20.4216C5.69492 20.4006 5.68318 20.3801 5.67169 20.3602L1.59545 13.3C1.58396 13.2801 1.57208 13.2597 1.5599 13.2387C1.42944 13.0146 1.26539 12.7328 1.198 12.4158C1.13973 12.1416 1.13973 11.8583 1.198 11.5841C1.26539 11.2671 1.42944 10.9853 1.5599 10.7612C1.57208 10.7403 1.58397 10.7199 1.59545 10.7L5.67169 3.63971C5.68318 3.61982 5.69491 3.59932 5.70694 3.57831C5.83579 3.35328 5.99782 3.0703 6.23869 2.85342C6.44697 2.66588 6.69235 2.52421 6.95891 2.4376C7.26716 2.33744 7.59325 2.33861 7.85256 2.33954Z" fill="#0000CC"/>
</svg>
