<svg width="24" height="24" viewBox="0 0 24 24" fill="none" xmlns="http://www.w3.org/2000/svg">
<path opacity="0.3" fill-rule="evenodd" clip-rule="evenodd" d="M4 5C2.89543 5 2 5.89543 2 7V17C2 18.1046 2.89543 19 4 19H20C21.1046 19 22 18.1046 22 17V7C22 5.89543 21.1046 5 20 5H4Z" fill="#0000CC"/>
<path d="M6 8C6.55228 8 7 8.44771 7 9V11H9V9C9 8.44771 9.44772 8 10 8C10.5523 8 11 8.44771 11 9V15C11 15.5523 10.5523 16 10 16C9.44772 16 9 15.5523 9 15V13H7V15C7 15.5523 6.55228 16 6 16C5.44772 16 5 15.5523 5 15V9C5 8.44771 5.44772 8 6 8Z" fill="#0000CC"/>
<path fill-rule="evenodd" clip-rule="evenodd" d="M12.5 9.5C12.5 8.67157 13.1716 8 14 8H15C17.2091 8 19 9.79086 19 12C19 14.2091 17.2091 16 15 16H14C13.1716 16 12.5 15.3284 12.5 14.5V9.5ZM14.5 10V14H15C16.1046 14 17 13.1046 17 12C17 10.8954 16.1046 10 15 10H14.5Z" fill="#0000CC"/>
</svg>
