<svg width="24" height="24" viewBox="0 0 24 24" fill="none" xmlns="http://www.w3.org/2000/svg">
<path opacity="0.3" fill-rule="evenodd" clip-rule="evenodd" d="M3 6.8C3 5.11984 3 4.27976 3.32698 3.63803C3.6146 3.07354 4.07354 2.6146 4.63803 2.32698C5.27976 2 6.11984 2 7.8 2H10.2C11.8802 2 12.7202 2 13.362 2.32698C13.9265 2.6146 14.3854 3.07354 14.673 3.63803C15 4.27976 15 5.11984 15 6.8V12.0317C13.5857 12.7903 12.6239 14.2828 12.6239 16C12.6239 16.6904 12.7793 17.3445 13.0572 17.9291C11.9793 18.7951 11.1837 19.9977 10.8287 21.3769L10.6684 21.9997C10.5199 22 10.3639 22 10.2 22H7.8C6.11984 22 5.27976 22 4.63803 21.673C4.07354 21.3854 3.6146 20.9265 3.32698 20.362C3.14546 20.0057 3.06471 19.5883 3.02878 19H7C7.55229 19 8 18.5523 8 18C8 17.4477 7.55229 17 7 17H3V15H7C7.55229 15 8 14.5523 8 14C8 13.4477 7.55229 13 7 13H3V6.8ZM10 6C10 5.44772 9.55228 5 9 5C8.44772 5 8 5.44772 8 6V7H7C6.44772 7 6 7.44772 6 8C6 8.55228 6.44772 9 7 9H8V10C8 10.5523 8.44772 11 9 11C9.55228 11 10 10.5523 10 10V9H11C11.5523 9 12 8.55228 12 8C12 7.44772 11.5523 7 11 7H10V6Z" fill="#0000CC"/>
<path d="M17.124 18C18.2286 18 19.124 17.1046 19.124 16C19.124 14.8954 18.2286 14 17.124 14C16.0195 14 15.124 14.8954 15.124 16C15.124 17.1046 16.0195 18 17.124 18Z" fill="#0000CC"/>
<path d="M13.25 22H20.998C20.5539 20.2748 18.9878 19 17.124 19C15.2601 19 13.694 20.2748 13.25 22Z" fill="#0000CC"/>
</svg>
