<svg width="24" height="24" viewBox="0 0 24 24" fill="none" xmlns="http://www.w3.org/2000/svg">
<path opacity="0.3" d="M3 2C2.44772 2 2 2.44772 2 3C2 3.55228 2.44772 4 3 4H4V20H3C2.44772 20 2 20.4477 2 21C2 21.5523 2.44772 22 3 22H10V18L14 18V22H21C21.5523 22 22 21.5523 22 21C22 20.4477 21.5523 20 21 20H20V4H21C21.5523 4 22 3.55228 22 3C22 2.44772 21.5523 2 21 2H3Z" fill="#0000CC"/>
<path d="M3 2H21C21.5523 2 22 2.44772 22 3C22 3.55228 21.5523 4 21 4H3C2.44772 4 2 3.55228 2 3C2 2.44772 2.44772 2 3 2Z" fill="#0000CC"/>
<path d="M8 7C8 6.44772 8.44772 6 9 6H10C10.5523 6 11 6.44772 11 7V8C11 8.55228 10.5523 9 10 9H9C8.44772 9 8 8.55228 8 8V7Z" fill="#0000CC"/>
<path d="M13 7C13 6.44772 13.4477 6 14 6H15C15.5523 6 16 6.44772 16 7V8C16 8.55228 15.5523 9 15 9H14C13.4477 9 13 8.55228 13 8V7Z" fill="#0000CC"/>
<path d="M9 10C8.44772 10 8 10.4477 8 11V12C8 12.5523 8.44772 13 9 13H10C10.5523 13 11 12.5523 11 12V11C11 10.4477 10.5523 10 10 10H9Z" fill="#0000CC"/>
<path d="M13 11C13 10.4477 13.4477 10 14 10H15C15.5523 10 16 10.4477 16 11V12C16 12.5523 15.5523 13 15 13H14C13.4477 13 13 12.5523 13 12V11Z" fill="#0000CC"/>
<path d="M10 18L9 18C8.62123 18 8.27497 17.786 8.10558 17.4472C7.93619 17.1084 7.97274 16.703 8.20001 16.4C10 14 14 14 15.8 16.4C16.0273 16.703 16.0638 17.1084 15.8944 17.4472C15.725 17.786 15.3788 18 15 18H14L10 18Z" fill="#0000CC"/>
</svg>
