<svg width="24" height="24" viewBox="0 0 24 24" fill="none" xmlns="http://www.w3.org/2000/svg">
<path d="M4 22C3.44772 22 3 21.5523 3 21C3 20.4477 3.44772 20 4 20H20C20.5523 20 21 20.4477 21 21C21 21.5523 20.5523 22 20 22H4Z" fill="#0000CC"/>
<path d="M4 4C3.44772 4 3 3.55228 3 3C3 2.44772 3.44772 2 4 2H20C20.5523 2 21 2.44772 21 3C21 3.55228 20.5523 4 20 4H17.9259C17.657 5.80181 16.6693 7.43598 15.1639 8.51124L12.0001 10.7711L8.83624 8.51124C7.33088 7.43598 6.34309 5.80183 6.07422 4.00002L4 4Z" fill="#0000CC"/>
<path opacity="0.3" d="M4.05664 20C4.33753 17.55 5.64141 15.3126 7.67324 13.8613L10.2791 12L7.67324 10.1387C5.64141 8.68738 4.33753 6.45003 4.05664 4H6.07369C6.34257 5.80181 7.33035 7.43596 8.83571 8.51122L11.9995 10.7711L15.1634 8.51122C16.6687 7.43596 17.6565 5.80181 17.9254 4H19.9424C19.6616 6.45003 18.3577 8.68738 16.3258 10.1387L13.72 12L16.3258 13.8613C18.3577 15.3126 19.6616 17.55 19.9424 20H17.9254C17.6565 18.1982 16.6687 16.564 15.1634 15.4888L11.9995 13.2289L8.83571 15.4888C7.33035 16.564 6.34257 18.1982 6.07369 20H4.05664Z" fill="#0000CC"/>
</svg>
