<svg width="24" height="24" viewBox="0 0 24 24" fill="none" xmlns="http://www.w3.org/2000/svg">
<path fill-rule="evenodd" clip-rule="evenodd" d="M3 3C3 2.44772 3.44772 2 4 2H20C20.5523 2 21 2.44772 21 3C21 3.55228 20.5523 4 20 4H4C3.44772 4 3 3.55228 3 3ZM3 21C3 20.4477 3.44772 20 4 20H20C20.5523 20 21 20.4477 21 21C21 21.5523 20.5523 22 20 22H4C3.44772 22 3 21.5523 3 21Z" fill="#0000CC"/>
<path opacity="0.3" d="M4.05664 4C4.33753 6.45003 5.64141 8.68738 7.67324 10.1387L10.2791 12L7.67324 13.8613C5.64141 15.3126 4.33753 17.55 4.05664 20H6.07369C6.34257 18.1982 7.33035 16.564 8.83571 15.4888L11.9995 13.2289L15.1634 15.4888C16.6687 16.564 17.6565 18.1982 17.9254 20H19.9424C19.6616 17.55 18.3577 15.3126 16.3258 13.8613L13.72 12L16.3258 10.1387C18.3577 8.68738 19.6616 6.45003 19.9424 4H17.9254C17.6565 5.80181 16.6687 7.43596 15.1634 8.51122L11.9995 10.7711L8.83571 8.51122C7.33035 7.43596 6.34257 5.80181 6.07369 4H4.05664Z" fill="#0000CC"/>
</svg>
