<svg width="24" height="24" viewBox="0 0 24 24" fill="none" xmlns="http://www.w3.org/2000/svg">
<path opacity="0.3" d="M12 4.48438C11.7772 4.48426 11.5543 4.52138 11.341 4.59573C11.1665 4.65652 10.95 4.78557 10.596 5.11753C10.2344 5.45662 9.80383 5.93387 9.17449 6.63324L4 12.3838V16.2414C3.99999 17.0463 3.99998 17.7107 4.0442 18.2519C4.09012 18.814 4.18869 19.3307 4.43598 19.816C4.81947 20.5687 5.43139 21.1806 6.18404 21.5641C6.66938 21.8114 7.18608 21.91 7.74818 21.9559C8.28937 22.0001 8.95372 22.0001 9.75868 22.0001H12V4.48438Z" fill="#0000CC"/>
<path d="M15 2C15.5523 2 16 2.44772 16 3V4L19.4319 4C19.6843 3.99997 19.9301 3.99994 20.1382 4.01695C20.3668 4.03562 20.6366 4.07969 20.908 4.21799C21.2843 4.40973 21.5903 4.7157 21.782 5.09202C21.9203 5.36344 21.9644 5.63318 21.9831 5.86177C22.0001 6.06991 22 6.31571 22 6.56807V7.43193C22 7.68429 22.0001 7.93009 21.9831 8.13823C21.9644 8.36682 21.9203 8.63656 21.782 8.90798C21.5903 9.2843 21.2843 9.59027 20.908 9.78201C20.6366 9.92031 20.3668 9.96438 20.1382 9.98305C19.9301 10.0001 19.6843 10 19.4319 10L16 10V21C16 21.5523 15.5523 22 15 22C14.4477 22 14 21.5523 14 21V3C14 2.44772 14.4477 2 15 2Z" fill="#0000CC"/>
<path d="M10.6829 2.70708C11.1094 2.5585 11.5547 2.48426 12 2.48438V4.48438C11.7772 4.48426 11.5543 4.52138 11.341 4.59573C11.1665 4.65652 10.95 4.78557 10.596 5.11753C10.2344 5.45662 9.80384 5.93387 9.1745 6.63324L3.74335 12.6687C3.37392 13.0793 2.74164 13.1126 2.3311 12.7432C1.92056 12.3737 1.88724 11.7415 2.25667 11.3309L7.7171 5.26287C8.30994 4.60404 8.79702 4.06275 9.22797 3.65863C9.67361 3.24074 10.1298 2.8998 10.6829 2.70708Z" fill="#0000CC"/>
</svg>
