<svg width="24" height="24" viewBox="0 0 24 24" fill="none" xmlns="http://www.w3.org/2000/svg">
<path opacity="0.3" d="M4 12.3838V16.2414V16.2414C3.99999 17.0464 3.99998 17.7107 4.04419 18.2519C4.09012 18.814 4.18868 19.3307 4.43597 19.816C4.81947 20.5687 5.43139 21.1806 6.18404 21.5641C6.66937 21.8114 7.18608 21.91 7.74817 21.9559C8.28936 22.0001 8.95372 22.0001 9.75868 22.0001H14.2413C15.0463 22.0001 15.7106 22.0001 16.2518 21.9559C16.8139 21.91 17.3306 21.8114 17.816 21.5641C18.5686 21.1806 19.1805 20.5687 19.564 19.816C19.8113 19.3307 19.9099 18.814 19.9558 18.2519C20 17.7107 20 17.0464 20 16.2414V12.3839L14.8235 6.63283C14.1941 5.93355 13.7634 5.45636 13.4018 5.11732C13.0477 4.78542 12.8312 4.6564 12.6568 4.59563C12.2307 4.44726 11.767 4.44729 11.341 4.59573C11.1665 4.65652 10.95 4.78557 10.596 5.11753C10.2344 5.45662 9.80383 5.93387 9.17449 6.63324L4 12.3838Z" fill="#0000CC"/>
<path d="M13.3145 2.70689C12.4624 2.41014 11.535 2.41021 10.6829 2.70708C10.1298 2.8998 9.67361 3.24074 9.22797 3.65863C8.79701 4.06276 8.30993 4.60405 7.71707 5.26291L2.25667 11.3309C1.88724 11.7415 1.92056 12.3737 2.3311 12.7432C2.74164 13.1126 3.37392 13.0793 3.74335 12.6687L9.1745 6.63324C9.80384 5.93387 10.2344 5.45662 10.596 5.11753C10.95 4.78557 11.1665 4.65652 11.341 4.59573C11.767 4.44729 12.2307 4.44726 12.6568 4.59563C12.8313 4.6564 13.0477 4.78542 13.4018 5.11732C13.7634 5.45636 14.1941 5.93355 14.8235 6.63283L20.2568 12.6689C20.6263 13.0793 21.2585 13.1126 21.669 12.7431C22.0795 12.3736 22.1127 11.7413 21.7433 11.3308L16.2808 5.2623C15.6878 4.60354 15.2006 4.06229 14.7696 3.65822C14.3239 3.24039 13.8677 2.89952 13.3145 2.70689Z" fill="#0000CC"/>
<path d="M11.9472 10.1055C12.4412 10.3525 12.6414 10.9532 12.3944 11.4472L11.618 13H14C14.3466 13 14.6684 13.1794 14.8507 13.4742C15.0329 13.7691 15.0494 14.1372 14.8944 14.4472L13.3944 17.4472C13.1474 17.9412 12.5468 18.1414 12.0528 17.8944C11.5588 17.6474 11.3586 17.0467 11.6056 16.5528L12.382 15H10C9.65342 15 9.33156 14.8205 9.14935 14.5257C8.96714 14.2309 8.95058 13.8627 9.10557 13.5528L10.6056 10.5528C10.8526 10.0588 11.4532 9.85856 11.9472 10.1055Z" fill="#0000CC"/>
</svg>
