<svg width="24" height="24" viewBox="0 0 24 24" fill="none" xmlns="http://www.w3.org/2000/svg">
<g opacity="0.3">
<path fill-rule="evenodd" clip-rule="evenodd" d="M8 2C8.55228 2 9 2.44772 9 3V3.41667C9 3.96895 8.55228 4.41667 8 4.41667C7.44772 4.41667 7 3.96895 7 3.41667V3C7 2.44772 7.44772 2 8 2ZM3.54289 3.54289C3.93342 3.15237 4.56658 3.15237 4.95711 3.54289L5.37377 3.95956C5.7643 4.35008 5.7643 4.98325 5.37377 5.37377C4.98325 5.7643 4.35008 5.7643 3.95956 5.37377L3.54289 4.95711C3.15237 4.56658 3.15237 3.93342 3.54289 3.54289ZM12.4571 3.54289C12.8476 3.93342 12.8476 4.56658 12.4571 4.95711L12.0404 5.37377C11.6499 5.7643 11.0168 5.7643 10.6262 5.37377C10.2357 4.98325 10.2357 4.35008 10.6262 3.95956L11.0429 3.54289C11.4334 3.15237 12.0666 3.15237 12.4571 3.54289ZM2 8C2 7.44772 2.44772 7 3 7H3.41667C3.96895 7 4.41667 7.44772 4.41667 8C4.41667 8.55228 3.96895 9 3.41667 9H3C2.44772 9 2 8.55228 2 8ZM5.37377 10.6262C5.7643 11.0168 5.7643 11.6499 5.37377 12.0404L4.95711 12.4571C4.56658 12.8476 3.93342 12.8476 3.54289 12.4571C3.15237 12.0666 3.15237 11.4334 3.54289 11.0429L3.95956 10.6262C4.35008 10.2357 4.98325 10.2357 5.37377 10.6262Z" fill="#0000CC"/>
<path d="M10.7077 6.70674L6.70674 10.7077C5.69726 10.2247 5 9.19377 5 8C5 6.34315 6.34315 5 8 5C9.19377 5 10.2247 5.69726 10.7077 6.70674Z" fill="#0000CC"/>
</g>
<path d="M12.9083 7.45722C13.2937 7.33783 13.7063 7.33783 14.0918 7.45722C14.368 7.54279 14.5827 7.68747 14.7541 7.82369C14.9091 7.94702 15.0788 8.10539 15.2518 8.26689L21.6823 14.2687C22.0861 14.6456 22.1079 15.2784 21.7311 15.6821C21.3542 16.0859 20.7214 16.1077 20.3177 15.7308L20 15.4343L20 19.4317C20 19.684 20.0001 19.9299 19.9831 20.138C19.9644 20.3666 19.9203 20.6363 19.782 20.9078C19.5903 21.2841 19.2843 21.5901 18.908 21.7818C18.6366 21.9201 18.3668 21.9642 18.1382 21.9828C17.9301 21.9999 17.6844 21.9998 17.432 21.9998H9.56809C9.31575 21.9998 9.06989 21.9999 8.86177 21.9828C8.63318 21.9642 8.36345 21.9201 8.09202 21.7818C7.7157 21.5901 7.40974 21.2841 7.21799 20.9078C7.07969 20.6363 7.03563 20.3666 7.01695 20.138C6.99994 19.9299 6.99997 19.6841 7 19.4317L7 15.4343L6.68232 15.7308C6.27857 16.1077 5.64578 16.0859 5.26895 15.6821C4.89211 15.2784 4.91393 14.6456 5.31769 14.2687L11.7482 8.26688C11.9212 8.1054 12.0909 7.94701 12.246 7.82369C12.4173 7.68748 12.632 7.54279 12.9083 7.45722Z" fill="#0000CC"/>
</svg>
