<svg width="24" height="24" viewBox="0 0 24 24" fill="none" xmlns="http://www.w3.org/2000/svg">
<path opacity="0.3" d="M4 16.2414V12.3838L9.17449 6.63324C9.80383 5.93387 10.2344 5.45662 10.596 5.11753C10.95 4.78557 11.1665 4.65652 11.341 4.59573C11.767 4.44729 12.2307 4.44726 12.6568 4.59563C12.8312 4.6564 13.0477 4.78542 13.4018 5.11732C13.7634 5.45636 14.1941 5.93355 14.8235 6.63283L20 12.3839L20 14.1708C19.6078 14.3092 19.2382 14.5317 18.9191 14.839L16.8335 16.8474C15.6378 15.9219 13.9118 16.0273 12.839 17.1413C11.6898 18.3348 11.7256 20.2339 12.9191 21.3832L13.5597 22.0001H9.75868C8.95372 22.0001 8.28937 22.0001 7.74818 21.9559C7.18608 21.91 6.66938 21.8114 6.18404 21.5641C5.43139 21.1806 4.81947 20.5687 4.43598 19.816C4.18868 19.3307 4.09012 18.814 4.0442 18.2519C3.99998 17.7107 3.99999 17.0463 4 16.2414Z" fill="#0000CC"/>
<path d="M13.3145 2.70689C12.4624 2.41014 11.535 2.41021 10.6829 2.70708C10.1298 2.8998 9.67361 3.24074 9.22797 3.65863C8.79702 4.06275 8.30995 4.60403 7.7171 5.26287L2.25667 11.3309C1.88724 11.7415 1.92056 12.3737 2.3311 12.7432C2.74164 13.1126 3.37392 13.0793 3.74335 12.6687L9.1745 6.63324C9.80384 5.93387 10.2344 5.45662 10.596 5.11753C10.95 4.78557 11.1665 4.65652 11.341 4.59573C11.767 4.44729 12.2307 4.44726 12.6568 4.59563C12.8313 4.6564 13.0477 4.78542 13.4018 5.11732C13.7634 5.45636 14.1941 5.93355 14.8235 6.63283L20.2568 12.6689C20.6263 13.0793 21.2585 13.1126 21.669 12.7431C22.0795 12.3736 22.1127 11.7413 21.7433 11.3308L16.2808 5.2623C15.6878 4.60354 15.2006 4.06229 14.7696 3.65822C14.3239 3.24039 13.8677 2.89952 13.3145 2.70689Z" fill="#0000CC"/>
<path d="M13 12C13 11.4477 12.5523 11 12 11C11.4477 11 11 11.4477 11 12V13H10C9.44772 13 9 13.4477 9 14C9 14.5523 9.44772 15 10 15H11V16C11 16.5523 11.4477 17 12 17C12.5523 17 13 16.5523 13 16V15H14C14.5523 15 15 14.5523 15 14C15 13.4477 14.5523 13 14 13H13V12Z" fill="#0000CC"/>
<path d="M21.7203 16.3064C22.1034 16.7042 22.0915 17.3372 21.6936 17.7203L17.5398 21.7203C17.1525 22.0932 16.5398 22.0932 16.1525 21.7203L14.3064 19.9425C13.9085 19.5595 13.8966 18.9264 14.2797 18.5286C14.6628 18.1308 15.2958 18.1188 15.6936 18.5019L16.8462 19.6117L20.3064 16.2797C20.7042 15.8966 21.3372 15.9085 21.7203 16.3064Z" fill="#0000CC"/>
</svg>
