<svg width="24" height="24" viewBox="0 0 24 24" fill="none" xmlns="http://www.w3.org/2000/svg">
<path opacity="0.3" d="M4 16.2414V12.3838L9.17449 6.63324C9.80383 5.93387 10.2344 5.45662 10.596 5.11753C10.95 4.78557 11.1665 4.65652 11.341 4.59573C11.767 4.44729 12.2307 4.44726 12.6568 4.59563C12.8312 4.6564 13.0477 4.78542 13.4018 5.11732C13.7634 5.45636 14.1941 5.93355 14.8235 6.63283L20 12.3839L20 12.6759C19.9712 12.6486 19.9426 12.6207 19.9142 12.592C19.1887 11.8602 18.026 11.7993 17.2282 12.4514C16.6795 12.8999 16.2751 13.4087 15.9782 13.9308C15.4645 13.9429 14.9684 14.1528 14.5998 14.5273C13.5302 15.6139 13 17.0356 13 18.4445C13 19.7017 13.4223 20.9694 14.2734 21.9998C14.2627 21.9998 14.2521 22.0001 14.2413 22.0001H9.75868C8.95372 22.0001 8.28937 22.0001 7.74818 21.9559C7.18608 21.91 6.66938 21.8114 6.18404 21.5641C5.43139 21.1806 4.81947 20.5687 4.43598 19.816C4.18868 19.3307 4.09012 18.814 4.0442 18.2519C3.99998 17.7107 3.99999 17.0463 4 16.2414Z" fill="#0000CC"/>
<path d="M13.3145 2.70689C12.4624 2.41014 11.535 2.41021 10.6829 2.70708C10.1298 2.8998 9.67361 3.24074 9.22797 3.65863C8.79702 4.06275 8.30995 4.60403 7.7171 5.26287L2.25667 11.3309C1.88724 11.7415 1.92056 12.3737 2.3311 12.7432C2.74164 13.1126 3.37392 13.0793 3.74335 12.6687L9.1745 6.63324C9.80384 5.93387 10.2344 5.45662 10.596 5.11753C10.95 4.78557 11.1665 4.65652 11.341 4.59573C11.767 4.44729 12.2307 4.44726 12.6568 4.59563C12.8313 4.6564 13.0477 4.78542 13.4018 5.11732C13.7634 5.45636 14.1941 5.93355 14.8235 6.63283L20.2568 12.6689C20.6263 13.0793 21.2585 13.1126 21.669 12.7431C22.0795 12.3736 22.1127 11.7413 21.7433 11.3308L16.2808 5.2623C15.6878 4.60354 15.2006 4.06229 14.7696 3.65822C14.3239 3.24039 13.8677 2.89952 13.3145 2.70689Z" fill="#0000CC"/>
<path d="M20.9749 20.9586C19.608 22.3471 17.392 22.3471 16.0251 20.9586C15.3417 20.2643 15 19.3544 15 18.4444C15 17.5345 15.3417 16.6246 16.0251 15.9303C16.0251 15.9303 16.3125 16.6666 17.1875 17.1111C17.1875 16.2222 17.4063 14.8889 18.4938 14C18.9598 14.4701 19.4353 14.7882 19.8812 15.0866C20.2784 15.3523 20.6521 15.6024 20.9749 15.9303C21.6583 16.6246 22 17.5345 22 18.4444C22 19.3544 21.6583 20.2643 20.9749 20.9586Z" fill="#0000CC"/>
</svg>
