<svg width="24" height="24" viewBox="0 0 24 24" fill="none" xmlns="http://www.w3.org/2000/svg">
<path opacity="0.3" fill-rule="evenodd" clip-rule="evenodd" d="M13.3068 2.24116C12.451 2.00946 11.5491 2.00946 10.6933 2.24116C9.72004 2.50468 8.86605 3.16957 7.62707 4.1342L4.75051 6.37158C3.94617 6.99674 3.38974 7.42921 2.98013 7.98303C2.61847 8.472 2.34906 9.02285 2.18513 9.60852C1.99945 10.2719 1.99969 10.9766 2.00003 11.9953L2.00006 14.6427C2.00005 15.7265 2.00004 16.6007 2.05788 17.3086C2.11743 18.0374 2.24324 18.6776 2.54503 19.2699C3.02439 20.2107 3.7893 20.9756 4.73011 21.455C5.3224 21.7568 5.96259 21.8826 6.69143 21.9421C7.39929 22 8.2734 21.9999 9.35712 21.9999H14.6429C15.7266 21.9999 16.6008 22 17.3087 21.9421C18.0375 21.8826 18.6777 21.7568 19.27 21.455C20.2108 20.9756 20.9757 20.2107 21.4551 19.2699C21.7569 18.6776 21.8827 18.0374 21.9422 17.3086C22.0001 16.6007 22.0001 15.7266 22.0001 14.6429L22.0001 11.9953C22.0004 10.9766 22.0007 10.2719 21.815 9.60852C21.6511 9.02285 21.3816 8.472 21.02 7.98303C20.6104 7.42922 20.054 6.99674 19.2496 6.37159L16.3731 4.13421C15.1341 3.16958 14.2801 2.50468 13.3068 2.24116Z" fill="#0000CC"/>
<path fill-rule="evenodd" clip-rule="evenodd" d="M16.0005 9C16.0005 9.55229 15.5528 10 15.0005 10C14.4482 10 14.0005 9.55229 14.0005 9C14.0005 8.44771 14.4482 8 15.0005 8C15.5528 8 16.0005 8.44771 16.0005 9ZM11.9685 10H13.0005C13.5528 10 14.0005 10.4477 14.0005 11C14.0005 11.5523 13.5528 12 13.0005 12H12.0005C11.5209 12 11.2113 12.0005 10.9743 12.0167C10.7463 12.0323 10.6594 12.0589 10.6178 12.0761C10.3728 12.1776 10.1781 12.3723 10.0766 12.6173C10.0594 12.6589 10.0328 12.7458 10.0172 12.9738C10.0011 13.2107 10.0005 13.5204 10.0005 14C10.0005 14.4796 10.0011 14.7893 10.0172 15.0262C10.0328 15.2542 10.0594 15.3411 10.0766 15.3827C10.1781 15.6277 10.3728 15.8224 10.6178 15.9239C10.6594 15.9411 10.7463 15.9677 10.9743 15.9833C11.2113 15.9995 11.5209 16 12.0005 16H13.0005C13.5528 16 14.0005 16.4477 14.0005 17C14.0005 17.5523 13.5528 18 13.0005 18H11.9686C11.5299 18 11.1514 18 10.8381 17.9787C10.5083 17.9561 10.1784 17.9066 9.85246 17.7716C9.11738 17.4672 8.53336 16.8831 8.22887 16.1481C8.09387 15.8221 8.04437 15.4922 8.02186 15.1624C8.00049 14.8491 8.0005 14.4387 8.00051 14L8.00025 13.8226C7.99952 13.4911 7.99883 13.1752 8.02186 12.8376C8.04437 12.5078 8.09387 12.1779 8.22887 11.852C8.53336 11.1169 9.11738 10.5328 9.85246 10.2284C10.1784 10.0934 10.5083 10.0439 10.8381 10.0214C11.1514 9.99998 11.5299 9.99999 11.9685 10Z" fill="#0000CC"/>
</svg>
