<svg width="24" height="24" viewBox="0 0 24 24" fill="none" xmlns="http://www.w3.org/2000/svg">
<path opacity="0.3" fill-rule="evenodd" clip-rule="evenodd" d="M10.6829 2.70269C11.535 2.40581 12.4624 2.40574 13.3145 2.7025C13.8677 2.89513 14.3239 3.236 14.7696 3.65383C15.2006 4.05789 15.6878 4.59913 16.2808 5.25788L21.7433 11.3264C22.1127 11.7369 22.0795 12.3692 21.669 12.7387C21.2585 13.1082 20.6263 13.0749 20.2568 12.6645L20 12.3792V16.2368C20 17.0417 20 17.7061 19.9558 18.2473C19.9099 18.8094 19.8113 19.3261 19.564 19.8114C19.1805 20.564 18.5686 21.176 17.816 21.5595C17.3306 21.8068 16.8139 21.9053 16.2518 21.9512C15.7106 21.9955 15.0463 21.9955 14.2413 21.9954H9.75869C8.95373 21.9955 8.28937 21.9955 7.74818 21.9512C7.18609 21.9053 6.66938 21.8068 6.18405 21.5595C5.4314 21.176 4.81948 20.564 4.43598 19.8114C4.18869 19.3261 4.09013 18.8094 4.0442 18.2473C3.99998 17.7061 4 17.0417 4.00001 16.2367L4.00001 12.3791L3.74335 12.6643C3.37392 13.0749 2.74164 13.1082 2.3311 12.7388C1.92056 12.3694 1.88724 11.7371 2.25667 11.3265L7.71707 5.25851C8.30993 4.59966 8.79701 4.05837 9.22797 3.65424C9.67361 3.23634 10.1298 2.8954 10.6829 2.70269Z" fill="#0000CC"/>
<path fill-rule="evenodd" clip-rule="evenodd" d="M12 15C13.6569 15 15 13.6569 15 12C15 10.3431 13.6569 9 12 9C10.3431 9 9 10.3431 9 12C9 13.6569 10.3431 15 12 15Z" fill="#0000CC"/>
</svg>
