<svg width="24" height="24" viewBox="0 0 24 24" fill="none" xmlns="http://www.w3.org/2000/svg">
<path opacity="0.3" d="M4 16.2414V12.3838L9.17449 6.63324C9.80383 5.93387 10.2344 5.45662 10.596 5.11753C10.95 4.78557 11.1665 4.65652 11.341 4.59573C11.767 4.44729 12.2307 4.44726 12.6568 4.59563C12.8312 4.6564 13.0477 4.78542 13.4018 5.11732C13.7634 5.45636 14.1941 5.93355 14.8235 6.63283L20 12.3839L20 12.3922C19.3257 12.1353 18.6252 12 18.0001 12C15.5148 12 13.0001 14 13.0001 16.5C11.8034 17.6967 11.4456 20.209 12.185 21.9954L12.1869 22.0001H9.75868C8.95372 22.0001 8.28937 22.0001 7.74818 21.9559C7.18608 21.91 6.66938 21.8114 6.18404 21.5641C5.43139 21.1806 4.81947 20.5687 4.43598 19.816C4.18868 19.3307 4.09012 18.814 4.0442 18.2519C3.99998 17.7107 3.99999 17.0463 4 16.2414Z" fill="#0000CC"/>
<path d="M13.3145 2.70689C12.4624 2.41014 11.535 2.41021 10.6829 2.70708C10.1298 2.8998 9.67361 3.24074 9.22797 3.65863C8.79701 4.06276 8.30993 4.60405 7.71707 5.2629L2.25667 11.3309C1.88724 11.7415 1.92056 12.3737 2.3311 12.7432C2.74164 13.1126 3.37392 13.0793 3.74335 12.6687L9.1745 6.63324C9.80384 5.93387 10.2344 5.45662 10.596 5.11753C10.95 4.78557 11.1665 4.65652 11.341 4.59573C11.767 4.44729 12.2307 4.44726 12.6568 4.59563C12.8313 4.6564 13.0477 4.78542 13.4018 5.11732C13.7634 5.45636 14.1941 5.93355 14.8235 6.63283L20.2568 12.6689C20.6263 13.0793 21.2585 13.1126 21.669 12.7431C22.0795 12.3736 22.1127 11.7413 21.7433 11.3308L16.2808 5.2623C15.6878 4.60354 15.2006 4.06229 14.7696 3.65822C14.3239 3.24039 13.8677 2.89952 13.3145 2.70689Z" fill="#0000CC"/>
<path fill-rule="evenodd" clip-rule="evenodd" d="M15 17C15 15.3431 16.3432 14 18 14C19.6569 14 21 15.3431 21 17V17.2679C21.3792 17.4869 21.6784 17.8257 21.8478 18.2346C21.9447 18.4687 21.9752 18.6944 21.9882 18.8848C22.0001 19.0589 22 19.2635 22 19.4735L22.0001 19.5609C22.0004 19.7457 22.0008 19.9309 21.9882 20.1152C21.9752 20.3056 21.9447 20.5313 21.8478 20.7654C21.6448 21.2554 21.2554 21.6448 20.7654 21.8478C20.5313 21.9447 20.3056 21.9752 20.1152 21.9882C19.9412 22 19.7365 22 19.5265 22H16.4735C16.2635 22 16.0589 22 15.8848 21.9882C15.6944 21.9752 15.4687 21.9447 15.2346 21.8478C14.7446 21.6448 14.3552 21.2554 14.1523 20.7654C14.0553 20.5313 14.0248 20.3056 14.0118 20.1152C14 19.9412 14 19.7365 14 19.5265L14 19.4773C14 19.2665 13.9999 19.0599 14.0118 18.8848C14.0248 18.6944 14.0553 18.4687 14.1523 18.2346C14.3217 17.8257 14.6208 17.4869 15 17.2679V17ZM19 17C19 16.4477 18.5523 16 18 16C17.4477 16 17 16.4477 17 17L19 17Z" fill="#0000CC"/>
</svg>
