<svg width="24" height="24" viewBox="0 0 24 24" fill="none" xmlns="http://www.w3.org/2000/svg">
<path opacity="0.3" fill-rule="evenodd" clip-rule="evenodd" d="M4.32698 3.63803C4 4.27976 4 5.11984 4 6.8V17.2C4 18.8802 4 19.7202 4.32698 20.362C4.6146 20.9265 5.07354 21.3854 5.63803 21.673C6.27976 22 7.11984 22 8.8 22H15.2C16.8802 22 17.7202 22 18.362 21.673C18.9265 21.3854 19.3854 20.9265 19.673 20.362C20 19.7202 20 18.8802 20 17.2V6.8C20 5.11984 20 4.27976 19.673 3.63803C19.3854 3.07354 18.9265 2.6146 18.362 2.32698C17.7202 2 16.8802 2 15.2 2H8.8C7.11984 2 6.27976 2 5.63803 2.32698C5.07354 2.6146 4.6146 3.07354 4.32698 3.63803Z" fill="#0000CC"/>
<path fill-rule="evenodd" clip-rule="evenodd" d="M11.9995 7.5C10.8949 7.5 9.99951 8.39543 9.99951 9.5C9.99951 10.6046 10.8949 11.5 11.9995 11.5C13.1041 11.5 13.9995 10.6046 13.9995 9.5C13.9995 8.39543 13.1041 7.5 11.9995 7.5ZM8.05481 15.8345C8.37232 13.942 10.0166 12.5 11.9995 12.5C13.9825 12.5 15.6268 13.942 15.9443 15.8345C15.9929 16.1246 15.9114 16.4214 15.7214 16.646C15.5314 16.8705 15.2522 17 14.9581 17H9.04102C8.74688 17 8.46766 16.8705 8.27766 16.646C8.08765 16.4214 8.00614 16.1246 8.05481 15.8345Z" fill="#0000CC"/>
</svg>
