<svg width="24" height="24" viewBox="0 0 24 24" fill="none" xmlns="http://www.w3.org/2000/svg">
<path opacity="0.3" d="M3 7.8C3 6.11984 3 5.27976 3.32698 4.63803C3.6146 4.07354 4.07354 3.6146 4.63803 3.32698C5.27976 3 6.11984 3 7.8 3H16.2C17.8802 3 18.7202 3 19.362 3.32698C19.9265 3.6146 20.3854 4.07354 20.673 4.63803C21 5.27976 21 6.11984 21 7.8V16.2C21 17.8802 21 18.7202 20.673 19.362C20.3854 19.9265 19.9265 20.3854 19.362 20.673C18.7202 21 17.8802 21 16.2 21H7.8C6.11984 21 5.27976 21 4.63803 20.673C4.07354 20.3854 3.6146 19.9265 3.32698 19.362C3 18.7202 3 17.8802 3 16.2V7.8Z" fill="#0000CC"/>
<path d="M19 7.5C19 8.88086 17.8806 10 16.5 10C15.1194 10 14 8.88086 14 7.5C14 6.11914 15.1194 5 16.5 5C17.8806 5 19 6.11914 19 7.5Z" fill="#0000CC"/>
<path d="M5 15.9308L5 16.8C5 17.3766 5.00078 17.7488 5.02393 18.0322C5.04612 18.3038 5.0838 18.4045 5.109 18.454C5.20487 18.6422 5.35785 18.7951 5.54601 18.891C5.59546 18.9162 5.69617 18.9539 5.96784 18.9761C6.25117 18.9992 6.62345 19 7.2 19H16.8C17.3766 19 17.7488 18.9992 18.0322 18.9761C18.3038 18.9539 18.4045 18.9162 18.454 18.891C18.6422 18.7951 18.7951 18.6422 18.891 18.454C18.9162 18.4045 18.9539 18.3038 18.9761 18.0322C18.9992 17.7488 19 17.3766 19 16.8L19 14.0694C18.9598 14.0322 18.9202 13.9965 18.8813 13.9622C18.5805 13.6971 18.2524 13.4611 17.8463 13.3226C17.2409 13.1162 16.5855 13.1087 15.9756 13.3011C15.5663 13.4302 15.2329 13.6587 14.9261 13.9167C14.7246 14.0861 14.5059 14.2937 14.2645 14.5302L13.2724 13.5464C12.8935 13.1706 12.5669 12.8467 12.2762 12.6022C11.9696 12.3444 11.6366 12.1162 11.2278 11.987C10.6185 11.7945 9.96365 11.8016 9.35866 12.0072C8.95274 12.1452 8.62474 12.3806 8.32383 12.645C8.32383 12.645 6.10291 14.8415 5 15.9308Z" fill="#0000CC"/>
</svg>
