<svg width="24" height="24" viewBox="0 0 24 24" fill="none" xmlns="http://www.w3.org/2000/svg">
<path opacity="0.3" d="M16.2016 3.00879L14.2242 4.99992L6.6 5C6.03995 5 5.75992 5 5.54601 5.10899C5.35785 5.20487 5.20487 5.35785 5.10899 5.54601C5 5.75992 5 6.03995 5 6.6V15.9308C6.09831 14.846 8.32383 12.645 8.32383 12.645C8.62474 12.3806 8.95274 12.1452 9.35866 12.0072C9.96365 11.8016 10.6185 11.7945 11.2278 11.987C11.6366 12.1162 11.9696 12.3444 12.2762 12.6022C12.5669 12.8467 12.8935 13.1706 13.2724 13.5464L14.2645 14.5302C14.5059 14.2937 14.7246 14.0861 14.9261 13.9167C15.2329 13.6587 15.5663 13.4302 15.9756 13.3011C16.5855 13.1087 17.2409 13.1162 17.8463 13.3226C18.2524 13.4611 18.5805 13.6971 18.8813 13.9622C18.9202 13.9965 18.9598 14.0322 19 14.0694L19 9.85113L20.992 7.84507L21 7.83485V16.2C21 17.8802 21 18.7202 20.673 19.362C20.3854 19.9265 19.9265 20.3854 19.362 20.673C18.7202 21 17.8802 21 16.2 21H7.8C6.11984 21 5.27976 21 4.63803 20.673C4.07354 20.3854 3.6146 19.9265 3.32698 19.362C3 18.7202 3 17.8802 3 16.2V7.8C3 6.11984 3 5.27976 3.32698 4.63803C3.6146 4.07354 4.07354 3.6146 4.63803 3.32698C5.27976 3 6.11984 3 7.8 3H16.2182L16.2016 3.00879Z" fill="#0000CC"/>
<path d="M21.5904 2.4125C21.0442 1.8625 20.1586 1.8625 19.6124 2.4125L15.6646 6.38784C15.2042 6.85144 14.9741 7.08324 14.7881 7.346C14.6231 7.57927 14.4843 7.83027 14.3742 8.09438C14.2503 8.39188 14.1758 8.71103 14.0268 9.34921L14.013 9.40808C13.9335 9.74882 14.2302 10.0584 14.5712 9.99058C15.2528 9.85494 15.5936 9.78711 15.9115 9.66217C16.1936 9.55127 16.4617 9.40719 16.7102 9.23291C16.9901 9.03657 17.2358 8.7892 17.7271 8.29445L21.5904 4.40425C22.1365 3.85425 22.1365 2.96251 21.5904 2.4125Z" fill="#0000CC"/>
</svg>
