<svg width="24" height="24" viewBox="0 0 24 24" fill="none" xmlns="http://www.w3.org/2000/svg">
<path opacity="0.3" fill-rule="evenodd" clip-rule="evenodd" d="M17.8385 2H9.16146C8.63433 1.99998 8.17954 1.99997 7.80497 2.03057C7.40963 2.06287 7.01641 2.13419 6.63803 2.32698C6.07354 2.6146 5.6146 3.07354 5.32698 3.63803C5.13419 4.01641 5.06287 4.40963 5.03057 4.80497C4.99997 5.17955 4.99998 5.63431 5 6.16145V14.8385C4.99998 15.3657 4.99997 15.8205 5.03057 16.195C5.06287 16.5904 5.13419 16.9836 5.32698 17.362C5.6146 17.9265 6.07354 18.3854 6.63803 18.673C7.01641 18.8658 7.40963 18.9371 7.80497 18.9694C8.17954 19 8.6343 19 9.16144 19H17.8386C18.3657 19 18.8205 19 19.195 18.9694C19.5904 18.9371 19.9836 18.8658 20.362 18.673C20.9265 18.3854 21.3854 17.9265 21.673 17.362C21.8658 16.9836 21.9371 16.5904 21.9694 16.195C22 15.8205 22 15.3657 22 14.8386V6.16144C22 5.6343 22 5.17954 21.9694 4.80497C21.9371 4.40963 21.8658 4.01641 21.673 3.63803C21.3854 3.07355 20.9265 2.6146 20.362 2.32698C19.9836 2.13419 19.5904 2.06287 19.195 2.03057C18.8205 1.99997 18.3657 1.99998 17.8385 2Z" fill="#0000CC"/>
<path d="M4 6C4 5.44772 3.55229 5 3 5C2.44772 5 2 5.44772 2 6V13.8433C1.99999 15.0667 1.99998 16.0458 2.06463 16.837C2.13099 17.6492 2.27043 18.3512 2.59946 18.9969C3.12677 20.0318 3.96816 20.8732 5.00305 21.4005C5.64882 21.7296 6.35075 21.869 7.16298 21.9354C7.95418 22 8.93322 22 10.1565 22H18C18.5523 22 19 21.5523 19 21C19 20.4477 18.5523 20 18 20H10.2C8.92338 20 8.02606 19.9992 7.32584 19.942C6.6373 19.8858 6.22787 19.78 5.91103 19.6185C5.25247 19.283 4.71703 18.7475 4.38148 18.089C4.22004 17.7721 4.11424 17.3627 4.05799 16.6742C4.00078 15.9739 4 15.0766 4 13.8V6Z" fill="#0000CC"/>
<path d="M13.4585 5.5C12.3539 5.5 11.4585 6.39543 11.4585 7.5C11.4585 8.60457 12.3539 9.5 13.4585 9.5C14.5631 9.5 15.4585 8.60457 15.4585 7.5C15.4585 6.39543 14.5631 5.5 13.4585 5.5Z" fill="#0000CC"/>
<path d="M9.51379 13.8345C9.8313 11.942 11.4755 10.5 13.4585 10.5C15.4415 10.5 17.0858 11.942 17.4033 13.8345C17.4519 14.1246 17.3704 14.4214 17.1804 14.646C16.9904 14.8705 16.7112 15 16.417 15H10.5C10.2059 15 9.92665 14.8705 9.73664 14.646C9.54664 14.4214 9.46512 14.1246 9.51379 13.8345Z" fill="#0000CC"/>
</svg>
