<svg width="24" height="24" viewBox="0 0 24 24" fill="none" xmlns="http://www.w3.org/2000/svg">
<path opacity="0.3" d="M14.7071 5.70715L9 11.4143V5.4C9 4.55992 9 4.13988 8.83651 3.81901C8.6927 3.53677 8.46323 3.3073 8.18099 3.16349C7.86012 3 7.44008 3 6.6 3H5.4C4.55992 3 4.13988 3 3.81901 3.16349C3.53677 3.3073 3.3073 3.53677 3.16349 3.81901C3 4.13988 3 4.55992 3 5.4V17.8C3 18.9201 3 19.4802 3.21799 19.908C3.40973 20.2843 3.71569 20.5903 4.09202 20.782C4.51984 21 5.0799 21 6.2 21H17.8C18.9201 21 19.4802 21 19.908 20.782C20.2843 20.5903 20.5903 20.2843 20.782 19.908C21 19.4802 21 18.9201 21 17.8V8.29411C21 6.91243 21 6.05595 20.8421 5.53978C20.804 5.5991 20.759 5.65527 20.7071 5.70715L15 11.4143V8.29411C15 6.91243 15 6.05594 14.8421 5.53977C14.804 5.59909 14.759 5.65526 14.7071 5.70715Z" fill="#0000CC"/>
<path d="M14.7071 5.70711L9 11.4142V8.58579L13.2929 4.29289C13.6834 3.90237 14.3166 3.90237 14.7071 4.29289C15.0976 4.68342 15.0976 5.31658 14.7071 5.70711Z" fill="#0000CC"/>
<path d="M20.7071 5.70711L15 11.4142V8.58579L19.2929 4.29289C19.6834 3.90237 20.3166 3.90237 20.7071 4.29289C21.0976 4.68342 21.0976 5.31658 20.7071 5.70711Z" fill="#0000CC"/>
</svg>
