<svg width="24" height="24" viewBox="0 0 24 24" fill="none" xmlns="http://www.w3.org/2000/svg">
<path opacity="0.3" d="M3 15C2.44772 15 2 15.4477 2 16V21C2 21.5523 2.44772 22 3 22H21C21.5523 22 22 21.5523 22 21V16C22 15.4477 21.5523 15 21 15H3Z" fill="#0000CC"/>
<path d="M15 2C12.7909 2 11 3.79086 11 6C11 7.86384 12.2748 9.42994 14 9.87398V13C14 13.5523 14.4477 14 15 14C15.5523 14 16 13.5523 16 13V9.87398C17.7252 9.42994 19 7.86384 19 6C19 3.79086 17.2091 2 15 2Z" fill="#0000CC"/>
<path d="M6 12C5.44772 12 5 12.4477 5 13C5 13.5523 5.44772 14 6 14H8C8.55228 14 9 13.5523 9 13C9 12.4477 8.55228 12 8 12H6Z" fill="#0000CC"/>
</svg>
