<svg width="24" height="24" viewBox="0 0 24 24" fill="none" xmlns="http://www.w3.org/2000/svg">
<g opacity="0.3">
<path d="M10.9776 5H17.8C18.3766 5 18.7488 5.00078 19.0322 5.02393C19.3038 5.04613 19.4045 5.0838 19.454 5.109C19.6422 5.20487 19.7951 5.35785 19.891 5.54601C19.9162 5.59546 19.9539 5.69618 19.9761 5.96784C19.9992 6.25118 20 6.62345 20 7.2V15L22 15V7.16144C22 6.6343 22 6.17954 21.9694 5.80498C21.9371 5.40963 21.8658 5.01641 21.673 4.63803C21.3854 4.07355 20.9265 3.6146 20.362 3.32698C19.9836 3.13419 19.5904 3.06287 19.195 3.03057C18.8205 2.99997 18.3657 2.99999 17.8386 3H10.4003C10.7119 3.60964 10.9132 4.2851 10.9776 5Z" fill="#0000CC"/>
<path d="M2 9.74284C2.57903 10.221 3.25761 10.583 4 10.793V15L2 15V9.74284Z" fill="#0000CC"/>
</g>
<path fill-rule="evenodd" clip-rule="evenodd" d="M5.5 2C3.567 2 2 3.567 2 5.5C2 7.433 3.567 9 5.5 9C6.10276 9 6.66993 8.84763 7.1651 8.57931L7.79289 9.20711C8.18342 9.59763 8.81658 9.59763 9.20711 9.20711C9.59763 8.81658 9.59763 8.18342 9.20711 7.79289L8.57931 7.1651C8.84763 6.66993 9 6.10276 9 5.5C9 3.567 7.433 2 5.5 2ZM4 5.5C4 4.67157 4.67157 4 5.5 4C6.32843 4 7 4.67157 7 5.5C7 6.32843 6.32843 7 5.5 7C4.67157 7 4 6.32843 4 5.5Z" fill="#0000CC"/>
<path d="M8.3883 15.9999C8.57821 15.9993 8.81735 15.9987 9.05268 16.0552C9.25675 16.1042 9.45184 16.185 9.63079 16.2947C9.83714 16.4211 10.0058 16.5907 10.1397 16.7253L10.1757 16.7615L10.2385 16.8242C10.3311 16.9168 10.3775 16.9629 10.4126 16.995L10.4153 16.9974L10.4189 16.9975C10.4664 16.9997 10.5317 16.9999 10.6627 16.9999H13.3373C13.4683 16.9999 13.5336 16.9997 13.5811 16.9975L13.5847 16.9974L13.5874 16.995C13.6225 16.9629 13.6689 16.9168 13.7615 16.8242L13.8243 16.7615L13.8603 16.7253C13.9942 16.5907 14.1629 16.4211 14.3692 16.2947C14.5482 16.185 14.7433 16.1042 14.9473 16.0552C15.1827 15.9987 15.4218 15.9993 15.6117 15.9999L15.6627 15.9999H22C22.5523 15.9999 23 16.4477 23 16.9999V17.0319C23 17.4706 23 17.8491 22.9787 18.1623C22.9561 18.4922 22.9066 18.8221 22.7716 19.148C22.4672 19.8831 21.8831 20.4671 21.1481 20.7716C20.8221 20.9066 20.4922 20.9561 20.1624 20.9786C19.8492 21 19.4707 21 19.0321 20.9999H4.96792C4.52935 21 4.15083 21 3.83762 20.9786C3.50779 20.9561 3.17788 20.9066 2.85195 20.7716C2.11687 20.4671 1.53285 19.8831 1.22836 19.148C1.09336 18.8221 1.04386 18.4922 1.02135 18.1623C0.99998 17.8491 0.999989 17.4706 1 17.032V16.9999C1 16.4477 1.44772 15.9999 2 15.9999H8.33726L8.3883 15.9999Z" fill="#0000CC"/>
</svg>
