<svg width="24" height="24" viewBox="0 0 24 24" fill="none" xmlns="http://www.w3.org/2000/svg">
<g opacity="0.3">
<path d="M11.9909 5H17.8C18.3766 5 18.7488 5.00078 19.0322 5.02393C19.3038 5.04613 19.4045 5.0838 19.454 5.109C19.6422 5.20487 19.7951 5.35785 19.891 5.54601C19.9162 5.59546 19.9539 5.69618 19.9761 5.96784C19.9992 6.25118 20 6.62345 20 7.2V15L22 15V7.16144C22 6.6343 22 6.17954 21.9694 5.80498C21.9371 5.40963 21.8658 5.01641 21.673 4.63803C21.3854 4.07355 20.9265 3.6146 20.362 3.32698C19.9836 3.13419 19.5904 3.06287 19.195 3.03057C18.8205 2.99997 18.3657 2.99999 17.8386 3H11.6209C11.6992 3.17899 11.7609 3.36791 11.8039 3.56512C11.9054 4.03095 11.9686 4.51088 11.9909 5Z" fill="#0000CC"/>
<path d="M2 10.8385V15L4 15V12.4109C3.23075 12.012 2.56057 11.4741 2 10.8385Z" fill="#0000CC"/>
</g>
<path d="M6.72842 2.31489C6.53943 2.11395 6.27584 2 5.99999 2C5.72413 2 5.46054 2.11394 5.27155 2.31488C4.72661 2.89427 4.04584 3.20993 3.33333 3.20993C3.28434 3.20993 3.23573 3.20845 3.18752 3.20555C2.69549 3.1759 2.25524 3.50922 2.1503 3.99084C2.05191 4.44241 2 4.91396 2 5.39793C2 7.96136 3.48145 10.2756 5.70761 10.9563C5.89818 11.0146 6.10182 11.0146 6.29239 10.9563C8.51855 10.2756 10 7.96136 10 5.39793C10 4.91398 9.9481 4.44245 9.84971 3.99089C9.74477 3.50927 9.30452 3.17595 8.81249 3.20559C8.76428 3.2085 8.71566 3.20997 8.66667 3.20997C7.95415 3.20997 7.27336 2.8943 6.72842 2.31489Z" fill="#0000CC"/>
<path d="M2 16C1.44772 16 1 16.4477 1 17V17.032C0.99999 17.4706 0.999981 17.8491 1.02135 18.1624C1.04386 18.4922 1.09336 18.8221 1.22836 19.1481C1.53285 19.8831 2.11687 20.4672 2.85195 20.7716C3.17788 20.9066 3.50779 20.9561 3.83762 20.9786C4.15088 21 4.52936 21 4.96801 21H19.032C19.4706 21 19.8491 21 20.1624 20.9786C20.4922 20.9561 20.8221 20.9066 21.1481 20.7716C21.8831 20.4672 22.4672 19.8831 22.7716 19.1481C22.9066 18.8221 22.9561 18.4922 22.9787 18.1624C23 17.8491 23 17.4706 23 17.032V17C23 16.4477 22.5523 16 22 16H2Z" fill="#0000CC"/>
</svg>
