<svg width="24" height="24" viewBox="0 0 24 24" fill="none" xmlns="http://www.w3.org/2000/svg">
<path d="M2 16C1.44772 16 1 16.4477 1 17V17.032C0.999989 17.4706 0.999979 17.8491 1.02135 18.1624C1.04386 18.4922 1.09336 18.8221 1.22836 19.148C1.53285 19.8831 2.11687 20.4672 2.85195 20.7716C3.17788 20.9066 3.50779 20.9561 3.83762 20.9786C4.15088 21 4.52936 21 4.96801 21H19.032C19.4706 21 19.8491 21 20.1624 20.9786C20.4922 20.9561 20.8221 20.9066 21.1481 20.7716C21.8831 20.4672 22.4672 19.8831 22.7716 19.148C22.9066 18.8221 22.9561 18.4922 22.9787 18.1624C23 17.8491 23 17.4706 23 17.032V17C23 16.4477 22.5523 16 22 16H2Z" fill="#0000CC"/>
<path opacity="0.3" d="M6.16146 3H17.8385C18.3657 2.99998 18.8205 2.99997 19.195 3.03057C19.5904 3.06287 19.9836 3.13419 20.362 3.32698C20.9265 3.6146 21.3854 4.07355 21.673 4.63803C21.8658 5.01641 21.9371 5.40963 21.9694 5.80498C22 6.17954 22 6.6343 22 7.16144V15L20 15V7.2C20 6.62345 19.9992 6.25118 19.9761 5.96784C19.9539 5.69618 19.9162 5.59546 19.891 5.54601C19.7951 5.35785 19.6422 5.20487 19.454 5.109C19.4045 5.0838 19.3038 5.04613 19.0322 5.02393C18.7488 5.00078 18.3766 5 17.8 5H6.2C5.62345 5 5.25118 5.00078 4.96784 5.02393C4.69617 5.04613 4.59546 5.0838 4.54601 5.109C4.35785 5.20487 4.20487 5.35785 4.109 5.54601C4.0838 5.59546 4.04613 5.69618 4.02393 5.96784C4.00078 6.25118 4 6.62345 4 7.2V15L2 15V7.16142C1.99998 6.63429 1.99997 6.17954 2.03057 5.80498C2.06287 5.40963 2.13419 5.01641 2.32698 4.63803C2.6146 4.07355 3.07354 3.6146 3.63803 3.32698C4.01641 3.13419 4.40963 3.06287 4.80497 3.03057C5.17953 2.99997 5.63434 2.99998 6.16146 3Z" fill="#0000CC"/>
</svg>
