<svg width="24" height="24" viewBox="0 0 24 24" fill="none" xmlns="http://www.w3.org/2000/svg">
<g opacity="0.3">
<path d="M16 3C16 2.44772 15.5523 2 15 2C14.4477 2 14 2.44772 14 3V4H13C12.4477 4 12 4.44772 12 5C12 5.55228 12.4477 6 13 6H14V7C14 7.55228 14.4477 8 15 8C15.5523 8 16 7.55228 16 7V6H17C17.5523 6 18 5.55228 18 5C18 4.44772 17.5523 4 17 4H16V3Z" fill="#0000CC"/>
<path d="M12.6248 17.8882C12.9841 16.7932 12.7214 15.313 11.5626 13.9945C11.7077 13.9982 11.8535 14 12 14C12.6599 14 13.3073 13.9627 13.9353 13.891C14.7869 15.3832 15.0076 17.0414 14.5252 18.5118C13.8414 20.5955 11.8499 22 9 22H3C2.44772 22 2 21.5523 2 21C2 20.4477 2.44772 20 3 20H9C11.1501 20 12.2586 19.0045 12.6248 17.8882Z" fill="#0000CC"/>
</g>
<path d="M22 8C22 6.49657 21.1434 5.23569 19.9149 4.28759C19.9705 4.51594 20 4.75453 20 4.99999C20 5.61439 19.8153 6.18564 19.4984 6.66126C19.8419 7.11614 20 7.57422 20 8C20 8.85264 19.3661 9.83482 17.8783 10.6614C16.4244 11.4691 14.3481 12 12 12C9.65195 12 7.57561 11.4691 6.12168 10.6614C4.63388 9.83482 4 8.85264 4 8C4 7.14736 4.63388 6.16518 6.12168 5.33862C7.17597 4.75291 8.55752 4.31276 10.1326 4.11505C10.4254 3.16539 11.177 2.41694 12.1285 2.12853C12.1415 2.08555 12.1555 2.04297 12.1704 2.00083C12.1137 2.00028 12.0569 2 12 2C9.37749 2 6.95383 2.5884 5.1504 3.59031C3.38084 4.5734 2 6.09122 2 8C2 9.90878 3.38084 11.4266 5.1504 12.4097C6.95383 13.4116 9.37749 14 12 14C14.6225 14 17.0462 13.4116 18.8496 12.4097C20.6192 11.4266 22 9.90878 22 8Z" fill="#0000CC"/>
<path d="M20 17C20 16.4477 19.5523 16 19 16C18.4477 16 18 16.4477 18 17V18H17C16.4477 18 16 18.4477 16 19C16 19.5523 16.4477 20 17 20H18V21C18 21.5523 18.4477 22 19 22C19.5523 22 20 21.5523 20 21V20H21C21.5523 20 22 19.5523 22 19C22 18.4477 21.5523 18 21 18H20V17Z" fill="#0000CC"/>
</svg>
