<svg width="24" height="24" viewBox="0 0 24 24" fill="none" xmlns="http://www.w3.org/2000/svg">
<g opacity="0.3">
<path d="M11.5144 2.12584C11.8164 1.95805 12.1836 1.95805 12.4856 2.12584L21.4856 7.12584C21.8031 7.30221 22 7.63683 22 8C22 8.36317 21.8031 8.69779 21.4856 8.87416L12.4856 13.8742C12.1836 14.0419 11.8164 14.0419 11.5144 13.8742L2.51436 8.87416C2.19689 8.69779 2 8.36317 2 8C2 7.63683 2.19689 7.30221 2.51436 7.12584L11.5144 2.12584Z" fill="#0000CC"/>
<path d="M2.51436 15.1257L3.51149 14.5718L11.0287 18.748C11.6328 19.0836 12.3672 19.0836 12.9713 18.748L20.4885 14.5718L21.4856 15.1257C21.8031 15.3021 22 15.6367 22 15.9999C22 16.3631 21.8031 16.6977 21.4856 16.8741L12.4856 21.8741C12.1836 22.0418 11.8164 22.0418 11.5144 21.8741L2.51436 16.8741C2.19689 16.6977 2 16.3631 2 15.9999C2 15.6367 2.19689 15.3021 2.51436 15.1257Z" fill="#0000CC"/>
</g>
<path d="M3.51131 10.5718L11.0287 14.7481C11.6328 15.0837 12.3672 15.0837 12.9713 14.7481L20.4887 10.5718L21.4856 11.1256C21.8031 11.302 22 11.6366 22 11.9998C22 12.363 21.8031 12.6976 21.4856 12.874L12.4856 17.874C12.1836 18.0417 11.8164 18.0417 11.5144 17.874L2.51436 12.874C2.19689 12.6976 2 12.363 2 11.9998C2 11.6366 2.19689 11.302 2.51436 11.1256L3.51131 10.5718Z" fill="#0000CC"/>
</svg>
