<svg width="24" height="24" viewBox="0 0 24 24" fill="none" xmlns="http://www.w3.org/2000/svg">
<path opacity="0.3" d="M21 2.99994C21 2.56951 20.7246 2.18737 20.3162 2.05126C19.9079 1.91514 19.4583 2.0556 19.2 2.39994C17.5003 4.6662 14.8328 5.99995 12 5.99994C8.68629 5.99994 6 8.68623 6 11.9999C6 15.3137 8.68629 17.9999 12 17.9999C16.9706 17.9999 21 13.9705 21 8.99992V2.99994Z" fill="#0000CC"/>
<path fill-rule="evenodd" clip-rule="evenodd" d="M3 20C3 15.0294 7.02944 11 12 11H14C14.5523 11 15 11.4477 15 12C15 12.5523 14.5523 13 14 13H12C8.13401 13 5 16.134 5 20V21C5 21.5523 4.55228 22 4 22C3.44772 22 3 21.5523 3 21V20Z" fill="#0000CC"/>
</svg>
