<svg width="24" height="24" viewBox="0 0 24 24" fill="none" xmlns="http://www.w3.org/2000/svg">
<path opacity="0.3" fill-rule="evenodd" clip-rule="evenodd" d="M17.2929 14.2929C17.6834 13.9024 18.3166 13.9024 18.7071 14.2929L21.7071 17.2929C22.0976 17.6834 22.0976 18.3166 21.7071 18.7071L18.7071 21.7071C18.3166 22.0976 17.6834 22.0976 17.2929 21.7071C16.9024 21.3166 16.9024 20.6834 17.2929 20.2929L18.5858 19H3C2.44772 19 2 18.5523 2 18C2 17.4477 2.44772 17 3 17H18.5858L17.2929 15.7071C16.9024 15.3166 16.9024 14.6834 17.2929 14.2929Z" fill="#0000CC"/>
<path fill-rule="evenodd" clip-rule="evenodd" d="M7 2C6.44772 2 6 2.44772 6 3C6 3.55228 6.44772 4 7 4H8V12C8 12.5523 8.44772 13 9 13C9.55228 13 10 12.5523 10 12V4H12V12C12 12.5523 12.4477 13 13 13C13.5523 13 14 12.5523 14 12V9.90038C14.229 9.85417 14.4544 9.79197 14.674 9.71401C15.2082 9.52434 15.7025 9.24325 16.1257 8.88058C16.549 8.51768 16.8946 8.07846 17.134 7.58316C17.3736 7.08716 17.5 6.54866 17.5 6C17.5 5.45134 17.3736 4.91284 17.134 4.41684C16.8946 3.92154 16.549 3.48232 16.1257 3.11942C15.7025 2.75675 15.2082 2.47566 14.674 2.28599C14.1397 2.09632 13.5713 2 13 2H7ZM14 7.83096V4.16901C14.2994 4.275 14.5825 4.43083 14.8241 4.63792C15.0507 4.83217 15.2208 5.05438 15.3332 5.28704C15.4453 5.51899 15.5 5.76071 15.5 5.99998C15.5 6.23925 15.4453 6.48097 15.3332 6.71292C15.2208 6.94558 15.0507 7.16779 14.8241 7.36204C14.5825 7.56914 14.2994 7.72493 14 7.83096Z" fill="#0000CC"/>
</svg>
