<svg width="24" height="24" viewBox="0 0 24 24" fill="none" xmlns="http://www.w3.org/2000/svg">
<path opacity="0.3" fill-rule="evenodd" clip-rule="evenodd" d="M9 5C9.55228 5 10 5.44772 10 6V18C10 18.5523 9.55228 19 9 19C8.44772 19 8 18.5523 8 18V6C8 5.44772 8.44772 5 9 5ZM12 6C12 5.44772 12.4477 5 13 5H21C21.5523 5 22 5.44772 22 6C22 6.55228 21.5523 7 21 7H13C12.4477 7 12 6.55228 12 6ZM13 9H21C21.5523 9 22 9.44772 22 10C22 10.5523 21.5523 11 21 11H13C12.4477 11 12 10.5523 12 10C12 9.44772 12.4477 9 13 9ZM13 15C12.4477 15 12 14.5523 12 14C12 13.4477 12.4477 13 13 13H21C21.5523 13 22 13.4477 22 14C22 14.5523 21.5523 15 21 15H13ZM12 18C12 17.4477 12.4477 17 13 17H21C21.5523 17 22 17.4477 22 18C22 18.5523 21.5523 19 21 19H13C12.4477 19 12 18.5523 12 18Z" fill="#0000CC"/>
<path d="M5.70711 9.29289C6.09763 9.68342 6.09763 10.3166 5.70711 10.7071L4.41421 12L5.70711 13.2929C6.09763 13.6834 6.09763 14.3166 5.70711 14.7071C5.31658 15.0976 4.68342 15.0976 4.29289 14.7071L2.29289 12.7071C1.90237 12.3166 1.90237 11.6834 2.29289 11.2929L4.29289 9.29289C4.68342 8.90237 5.31658 8.90237 5.70711 9.29289Z" fill="#0000CC"/>
</svg>
