<svg width="24" height="24" viewBox="0 0 24 24" fill="none" xmlns="http://www.w3.org/2000/svg">
<path opacity="0.3" fill-rule="evenodd" clip-rule="evenodd" d="M8.78101 14H15.2195C14.4895 11.0802 13.893 8.08391 13.0189 5.20454C12.9847 5.0917 12.8799 4.79423 12.7147 4.53C12.4751 4.14663 12.2395 4 12.0002 4C11.7609 4 11.5253 4.14663 11.2857 4.53C11.1206 4.79423 11.0158 5.0917 10.9815 5.20454C10.1074 8.08391 9.51098 11.0802 8.78101 14ZM15.7195 16H8.28101L6.97038 21.2425C6.83643 21.7783 6.2935 22.1041 5.7577 21.9701C5.22191 21.8362 4.89615 21.2933 5.03009 20.7575L9.04201 4.71238C9.06062 4.64472 9.09999 4.51098 9.16547 4.33638C9.25148 4.10703 9.38816 3.79253 9.58974 3.47C9.97513 2.85337 10.7395 2 12.0002 2C13.2609 2 14.0253 2.85337 14.4107 3.47C14.6123 3.79253 14.749 4.10703 14.835 4.33638C14.8848 4.46911 14.9293 4.60382 14.9661 4.74073C14.9661 4.74073 17.6357 15.4189 18.9704 20.7575C19.1043 21.2933 18.7786 21.8362 18.2428 21.9701C17.707 22.1041 17.164 21.7783 17.0301 21.2425L15.7195 16Z" fill="#0000CC"/>
</svg>
