<svg width="24" height="24" viewBox="0 0 24 24" fill="none" xmlns="http://www.w3.org/2000/svg">
<g opacity="0.3">
<path d="M14.032 8.55382C13.4365 8.20193 12.7418 8 12 8C11.2582 8 10.5635 8.20193 9.96803 8.55382L5.67127 4.25705C7.39514 2.84636 9.59873 2 12 2C14.4013 2 16.6049 2.84637 18.3287 4.25705L14.032 8.55382Z" fill="#0000CC"/>
<path d="M15.4462 14.032C15.7981 13.4365 16 12.7418 16 12C16 11.2582 15.7981 10.5635 15.4462 9.96803L19.7429 5.67127C21.1536 7.39514 22 9.59873 22 12C22 14.4013 21.1536 16.6049 19.7429 18.3287L15.4462 14.032Z" fill="#0000CC"/>
<path d="M9.96803 15.4462C10.5635 15.7981 11.2582 16 12 16C12.7418 16 13.4365 15.7981 14.032 15.4462L18.3287 19.7429C16.6049 21.1536 14.4013 22 12 22C9.59873 22 7.39514 21.1536 5.67127 19.7429L9.96803 15.4462Z" fill="#0000CC"/>
<path d="M8.55382 9.96803C8.20193 10.5635 8 11.2582 8 12C8 12.7418 8.20193 13.4365 8.55382 14.032L4.25705 18.3287C2.84637 16.6049 2 14.4013 2 12C2 9.59873 2.84636 7.39514 4.25705 5.67127L8.55382 9.96803Z" fill="#0000CC"/>
</g>
<path fill-rule="evenodd" clip-rule="evenodd" d="M18.3295 4.25708C18.8466 4.68024 19.3205 5.15419 19.7437 5.67129L15.4471 9.96791C15.799 10.5635 16.001 11.2581 16.001 12C16.001 12.7419 15.799 13.4366 15.4471 14.0321L19.7437 18.3288C19.3205 18.8459 18.8466 19.3198 18.3295 19.743L14.0328 15.4463C13.4373 15.7981 12.7427 16 12.001 16C11.2591 16 10.5644 15.798 9.96889 15.4461L5.67203 19.743C5.15492 19.3198 4.68098 18.8459 4.25781 18.3288L8.55472 14.0318C8.20288 13.4364 8.00098 12.7418 8.00098 12C8.00098 11.2583 8.20287 10.5637 8.5547 9.96819L4.25781 5.67129C4.68098 5.15419 5.15492 4.68024 5.67203 4.25708L9.96886 8.55391C10.5644 8.20196 11.2591 8 12.001 8C12.7427 8 13.4373 8.2019 14.0328 8.55375L18.3295 4.25708ZM10.001 12C10.001 10.8954 10.8964 10 12.001 10C13.1055 10 14.001 10.8954 14.001 12C14.001 13.1046 13.1055 14 12.001 14C10.8964 14 10.001 13.1046 10.001 12Z" fill="#0000CC"/>
</svg>
