<svg width="24" height="24" viewBox="0 0 24 24" fill="none" xmlns="http://www.w3.org/2000/svg">
<path opacity="0.3" fill-rule="evenodd" clip-rule="evenodd" d="M6 12C6 8.68629 8.68629 6 12 6C15.3137 6 18 8.68629 18 12C18 15.3137 15.3137 18 12 18C8.68629 18 6 15.3137 6 12Z" fill="#0000CC"/>
<path d="M13 3C13 2.44772 12.5523 2 12 2C11.4477 2 11 2.44772 11 3V4C11 4.55228 11.4477 5 12 5C12.5523 5 13 4.55228 13 4V3Z" fill="#0000CC"/>
<path d="M9 18.3264C9.90926 18.7583 10.9264 19 12 19C13.0736 19 14.0907 18.7583 15 18.3264V18.9996C15 20.6565 13.6569 21.9996 12 21.9996C10.3431 21.9996 9 20.6565 9 18.9996V18.3264Z" fill="#0000CC"/>
<path d="M5 12C5 11.4477 4.55228 11 4 11H3C2.44772 11 2 11.4477 2 12C2 12.5523 2.44772 13 3 13H4C4.55228 13 5 12.5523 5 12Z" fill="#0000CC"/>
<path d="M6.34285 4.92864C5.95232 4.53811 5.31916 4.53811 4.92864 4.92864C4.53811 5.31916 4.53811 5.95232 4.92864 6.34285L5.63574 7.04996C6.02627 7.44048 6.65943 7.44048 7.04996 7.04996C7.44048 6.65943 7.44048 6.02627 7.04996 5.63574L6.34285 4.92864Z" fill="#0000CC"/>
<path d="M19.0714 6.34285C19.4619 5.95232 19.4619 5.31916 19.0714 4.92864C18.6808 4.53811 18.0477 4.53811 17.6572 4.92864L16.95 5.63574C16.5595 6.02627 16.5595 6.65943 16.95 7.04996C17.3406 7.44048 17.9737 7.44048 18.3643 7.04996L19.0714 6.34285Z" fill="#0000CC"/>
<path d="M20 11C19.4477 11 19 11.4477 19 12C19 12.5523 19.4477 13 20 13H21C21.5523 13 22 12.5523 22 12C22 11.4477 21.5523 11 21 11H20Z" fill="#0000CC"/>
</svg>
