<svg width="24" height="24" viewBox="0 0 24 24" fill="none" xmlns="http://www.w3.org/2000/svg">
<path opacity="0.3" fill-rule="evenodd" clip-rule="evenodd" d="M18 4.00024C18.5523 4.00024 19 4.44796 19 5.00024V19.0002C19 19.5525 18.5523 20.0002 18 20.0002C17.4477 20.0002 17 19.5525 17 19.0002V5.00024C17 4.44796 17.4477 4.00024 18 4.00024Z" fill="#0000CC"/>
<path d="M10.275 4.03873C10.806 4.19046 11.1135 4.74394 10.9618 5.27498L6.96178 19.275C6.81006 19.806 6.25657 20.1135 5.72554 19.9618C5.1945 19.8101 4.88701 19.2566 5.03873 18.7255L9.03873 4.72554C9.19046 4.1945 9.74394 3.88701 10.275 4.03873Z" fill="#0000CC"/>
<path d="M14.1417 4.01031C14.6884 4.08841 15.0683 4.59494 14.9902 5.14168L12.9902 19.1417C12.9121 19.6884 12.4056 20.0683 11.8588 19.9902C11.3121 19.9121 10.9322 19.4056 11.0103 18.8588L13.0103 4.85884C13.0884 4.3121 13.5949 3.9322 14.1417 4.01031Z" fill="#0000CC"/>
</svg>
