<svg width="24" height="24" viewBox="0 0 24 24" fill="none" xmlns="http://www.w3.org/2000/svg">
<path opacity="0.3" d="M14.2551 5.99759C15.9348 4.31788 18.6632 4.61281 20.3378 6.28736L20.6919 6.64152C22.5621 8.51166 22.8756 11.5387 21.0231 13.3911L17.2699 17.1443C15.4175 18.9968 12.3904 18.6833 10.5203 16.8132L10.1661 16.459C8.4916 14.7845 8.19666 12.056 9.87638 10.3763L10.1891 10.0635C10.5797 9.67301 11.2128 9.67301 11.6034 10.0635C11.9939 10.4541 11.9939 11.0872 11.6034 11.4778L11.2906 11.7905C10.552 12.5291 10.5165 13.981 11.5804 15.0448L11.9345 15.3989C13.1939 16.6584 14.9444 16.6414 15.8557 15.7301L19.6089 11.9769C20.5202 11.0656 20.5371 9.31515 19.2777 8.05573L18.9236 7.70157C17.8598 6.63775 16.4079 6.67322 15.6693 7.4118L15.3565 7.72457C14.966 8.11509 14.3328 8.11509 13.9423 7.72457C13.5518 7.33405 13.5518 6.70088 13.9423 6.31036L14.2551 5.99759Z" fill="#0000CC"/>
<path fill-rule="evenodd" clip-rule="evenodd" d="M6.73032 7.8558C8.58276 6.00335 11.6098 6.31682 13.4799 8.18696L13.8341 8.54112C15.5086 10.2157 15.8036 12.9441 14.1239 14.6238L13.8111 14.9366C13.4206 15.3271 12.7874 15.3271 12.3969 14.9366C12.0064 14.5461 12.0064 13.9129 12.3969 13.5224L12.7097 13.2096C13.4482 12.471 13.4837 11.0192 12.4199 9.95533L12.0657 9.60117C10.8063 8.34176 9.05585 8.35869 8.14453 9.27001L4.39135 13.0232C3.48003 13.9345 3.46309 15.685 4.72251 16.9444L5.07667 17.2985C6.14049 18.3624 7.59235 18.3269 8.33094 17.5883L8.6437 17.2755C9.03423 16.885 9.66739 16.885 10.0579 17.2755C10.4484 17.6661 10.4484 18.2992 10.0579 18.6898L9.74515 19.0025C8.06544 20.6822 5.337 20.3873 3.66246 18.7128L3.3083 18.3586C1.43815 16.4885 1.12469 13.4614 2.97713 11.609L6.73032 7.8558Z" fill="#0000CC"/>
</svg>
