<svg width="24" height="24" viewBox="0 0 24 24" fill="none" xmlns="http://www.w3.org/2000/svg">
<g opacity="0.3">
<path d="M5.25112 6.66533C3.32014 7.66235 2 9.67701 2 12C2 15.3137 4.68629 18 8 18H10C10.5523 18 11 17.5523 11 17C11 16.4477 10.5523 16 10 16H8C5.79086 16 4 14.2091 4 12C4 10.2176 5.16576 8.70755 6.7764 8.19061L5.25112 6.66533Z" fill="#0000CC"/>
<path d="M9.58579 11H8C7.44772 11 7 11.4477 7 12C7 12.5523 7.44772 13 8 13H11.5858L9.58579 11Z" fill="#0000CC"/>
<path d="M14.5858 16H14C13.4477 16 13 16.4477 13 17C13 17.5523 13.4477 18 14 18H16C16.1888 18 16.3756 17.9913 16.56 17.9742L14.5858 16Z" fill="#0000CC"/>
<path d="M18.9334 14.7194L20.3483 16.1343C21.3718 15.0581 22 13.6024 22 12C22 8.68629 19.3137 6 16 6H14C13.4477 6 13 6.44772 13 7C13 7.55228 13.4477 8 14 8H16C18.2091 8 20 9.79086 20 12C20 13.0501 19.5953 14.0057 18.9334 14.7194Z" fill="#0000CC"/>
<path d="M16.806 12.592L15.214 11H16C16.5523 11 17 11.4477 17 12C17 12.2215 16.928 12.4263 16.806 12.592Z" fill="#0000CC"/>
</g>
<path fill-rule="evenodd" clip-rule="evenodd" d="M2.29289 2.29289C2.68342 1.90237 3.31658 1.90237 3.70711 2.29289L21.7071 20.2929C22.0976 20.6834 22.0976 21.3166 21.7071 21.7071C21.3166 22.0976 20.6834 22.0976 20.2929 21.7071L2.29289 3.70711C1.90237 3.31658 1.90237 2.68342 2.29289 2.29289Z" fill="#0000CC"/>
</svg>
