<svg width="24" height="24" viewBox="0 0 24 24" fill="none" xmlns="http://www.w3.org/2000/svg">
<path opacity="0.3" fill-rule="evenodd" clip-rule="evenodd" d="M19.0723 4.92766C19.4629 5.31818 19.4629 5.95135 19.0723 6.34187L16.9512 8.46297C16.5607 8.85349 15.9276 8.85349 15.537 8.46297C15.1465 8.07244 15.1465 7.43928 15.537 7.04875L17.6581 4.92766C18.0487 4.53713 18.6818 4.53713 19.0723 4.92766ZM17 12C17 11.4477 17.4477 11 18 11H21C21.5523 11 22 11.4477 22 12C22 12.5523 21.5523 13 21 13H18C17.4477 13 17 12.5523 17 12ZM15.5351 15.5351C15.9256 15.1446 16.5588 15.1446 16.9493 15.5351L19.0704 17.6562C19.4609 18.0467 19.4609 18.6799 19.0704 19.0704C18.6799 19.4609 18.0467 19.4609 17.6562 19.0704L15.5351 16.9493C15.1446 16.5588 15.1446 15.9256 15.5351 15.5351ZM12 17C12.5523 17 13 17.4477 13 18V21C13 21.5523 12.5523 22 12 22C11.4477 22 11 21.5523 11 21V18C11 17.4477 11.4477 17 12 17Z" fill="#0000CC"/>
<path d="M12 2C12.5523 2 13 2.44772 13 3V6C13 6.55228 12.5523 7 12 7C11.4477 7 11 6.55228 11 6V3C11 2.44772 11.4477 2 12 2Z" fill="#0000CC"/>
<path d="M4.92961 4.92961C5.32014 4.53909 5.9533 4.53909 6.34383 4.92961L8.46687 7.05266C8.8574 7.44318 8.8574 8.07635 8.46687 8.46687C8.07635 8.8574 7.44318 8.8574 7.05266 8.46687L4.92961 6.34383C4.53909 5.9533 4.53909 5.32014 4.92961 4.92961Z" fill="#0000CC"/>
<path d="M2 12C2 11.4477 2.44772 11 3 11H6C6.55228 11 7 11.4477 7 12C7 12.5523 6.55228 13 6 13H3C2.44772 13 2 12.5523 2 12Z" fill="#0000CC"/>
<path d="M8.46492 15.5351C8.85544 15.9256 8.85544 16.5588 8.46492 16.9493L6.34187 19.0723C5.95135 19.4629 5.31818 19.4629 4.92766 19.0723C4.53713 18.6818 4.53713 18.0487 4.92766 17.6581L7.05071 15.5351C7.44123 15.1446 8.0744 15.1446 8.46492 15.5351Z" fill="#0000CC"/>
</svg>
