<svg width="24" height="24" viewBox="0 0 24 24" fill="none" xmlns="http://www.w3.org/2000/svg">
<path opacity="0.3" fill-rule="evenodd" clip-rule="evenodd" d="M4 10.2C4 5.69801 7.55535 2 12 2C16.4446 2 20 5.69801 20 10.2C20 12.4965 18.9859 14.5068 17.613 16.3405C16.4671 17.871 15.0003 19.3666 13.5411 20.8543C13.2654 21.1355 12.99 21.4163 12.717 21.6971C12.5287 21.8907 12.2701 22 12 22C11.7299 22 11.4713 21.8907 11.283 21.6971C11.01 21.4163 10.7346 21.1355 10.4589 20.8543C8.99974 19.3666 7.53292 17.871 6.38702 16.3405C5.01406 14.5068 4 12.4965 4 10.2Z" fill="#0000CC"/>
<path fill-rule="evenodd" clip-rule="evenodd" d="M10.7071 7.29289C10.3166 6.90237 9.68342 6.90237 9.29289 7.29289C8.90237 7.68342 8.90237 8.31658 9.29289 8.70711L10.5858 10L9.29289 11.2929C8.90237 11.6834 8.90237 12.3166 9.29289 12.7071C9.68342 13.0976 10.3166 13.0976 10.7071 12.7071L12 11.4142L13.2929 12.7071C13.6834 13.0976 14.3166 13.0976 14.7071 12.7071C15.0976 12.3166 15.0976 11.6834 14.7071 11.2929L13.4142 10L14.7071 8.70711C15.0976 8.31658 15.0976 7.68342 14.7071 7.29289C14.3166 6.90237 13.6834 6.90237 13.2929 7.29289L12 8.58579L10.7071 7.29289Z" fill="#0000CC"/>
</svg>
