<svg width="24" height="24" viewBox="0 0 24 24" fill="none" xmlns="http://www.w3.org/2000/svg">
<path opacity="0.3" fill-rule="evenodd" clip-rule="evenodd" d="M10 2C5.55535 2 2 5.69801 2 10.2C2 12.4965 3.01406 14.5068 4.38702 16.3405C5.53292 17.871 6.99974 19.3666 8.45888 20.8543C8.7346 21.1355 9.01005 21.4163 9.28301 21.6971C9.47129 21.8907 9.7299 22 10 22C10.2701 22 10.5287 21.8907 10.717 21.6971C10.99 21.4163 11.2654 21.1355 11.5411 20.8543C11.6997 20.6926 11.8584 20.5308 12.0168 20.3689C12.0057 20.2474 12 20.1244 12 20V19C12 17.9583 12.3987 17.0109 13.0485 16.3006C13.3792 13.938 15.361 12.1047 17.7901 12.0043C17.9257 11.4224 18 10.8217 18 10.2C18 5.69801 14.4446 2 10 2ZM13 10C13 11.6569 11.6569 13 10 13C8.34315 13 7 11.6569 7 10C7 8.34315 8.34315 7 10 7C11.6569 7 13 8.34315 13 10Z" fill="#0000CC"/>
<path fill-rule="evenodd" clip-rule="evenodd" d="M15 17C15 15.3431 16.3431 14 18 14C19.6569 14 21 15.3431 21 17V17.2676C21.5978 17.6134 22 18.2597 22 19V20C22 21.1046 21.1046 22 20 22H16C14.8954 22 14 21.1046 14 20V19C14 18.2597 14.4022 17.6134 15 17.2676V17ZM18 16C17.4477 16 17 16.4477 17 17H19C19 16.4477 18.5523 16 18 16Z" fill="#0000CC"/>
</svg>
