<svg width="24" height="24" viewBox="0 0 24 24" fill="none" xmlns="http://www.w3.org/2000/svg">
<path opacity="0.3" d="M12 18.6749V2.03811C12.5743 2.03531 13.1509 2.33438 13.5003 2.95533C13.6319 3.18905 13.7692 3.49429 13.9166 3.82205L20.3391 18.0942C20.5682 18.6031 20.7664 19.0436 20.8902 19.3961C20.9355 19.5253 20.9884 19.6865 21.0235 19.8669C21.0633 20.0707 21.0804 20.2989 21.0387 20.5327C21.0274 20.5956 21.0119 20.659 20.9914 20.7224C20.7994 21.3161 20.3238 21.7749 19.7236 21.9455C19.211 22.0913 18.7122 21.9185 18.4019 21.7969C18.0547 21.6608 17.6223 21.4473 17.1232 21.2007L12.2658 18.8021C12.1268 18.7334 12.0565 18.699 12.0043 18.6766L12 18.6749Z" fill="#0000CC"/>
<path d="M12 2.03809C11.4182 2.04092 10.8387 2.35359 10.5 2.95531C10.3685 3.18904 10.2311 3.4943 10.0837 3.82207L3.66127 18.094C3.43219 18.603 3.23395 19.0435 3.11016 19.3961C3.03448 19.6117 2.9379 19.9167 2.9375 20.2505C2.93731 20.4037 2.95736 20.5629 3.00894 20.7223C3.20099 21.3161 3.67654 21.7749 4.27676 21.9455C4.78937 22.0913 5.28818 21.9184 5.59845 21.7968C5.94636 21.6605 6.37946 21.4466 6.87994 21.1994L6.89118 21.1938L11.7345 18.802C11.8735 18.7334 11.9438 18.699 11.996 18.6766L12 18.6749V2.03809Z" fill="#0000CC"/>
</svg>
