<svg width="24" height="24" viewBox="0 0 24 24" fill="none" xmlns="http://www.w3.org/2000/svg">
<g opacity="0.3">
<path d="M4.93577 6.34998C4.33797 7.50035 4 8.81196 4 10.2C4 12.4965 5.01406 14.5068 6.38702 16.3405C7.53292 17.871 8.99974 19.3666 10.4589 20.8543C10.7346 21.1355 11.01 21.4163 11.283 21.6971C11.4713 21.8907 11.7299 22 12 22C12.2701 22 12.5287 21.8907 12.717 21.6971C12.99 21.4163 13.2654 21.1355 13.5411 20.8543C14.5266 19.8496 15.5155 18.8412 16.4067 17.821L11.5527 12.9669C10.2539 12.7727 9.22729 11.7461 9.03313 10.4473L4.93577 6.34998Z" fill="#0000CC"/>
<path d="M14.9172 10.703C14.9713 10.4775 15 10.2421 15 10C15 8.34315 13.6569 7 12 7C11.7579 7 11.5225 7.02868 11.297 7.08282L7.5784 3.3642C8.84207 2.50315 10.3605 2 12 2C16.4446 2 20 5.69801 20 10.2C20 11.7775 19.5215 13.2199 18.777 14.5628L14.9172 10.703Z" fill="#0000CC"/>
</g>
<path fill-rule="evenodd" clip-rule="evenodd" d="M2.29289 2.29289C2.68342 1.90237 3.31658 1.90237 3.70711 2.29289L21.7071 20.2929C22.0976 20.6834 22.0976 21.3166 21.7071 21.7071C21.3166 22.0976 20.6834 22.0976 20.2929 21.7071L2.29289 3.70711C1.90237 3.31658 1.90237 2.68342 2.29289 2.29289Z" fill="#0000CC"/>
</svg>
