<svg width="24" height="24" viewBox="0 0 24 24" fill="none" xmlns="http://www.w3.org/2000/svg">
<path d="M9.43555 14.566L9.4372 14.5699C9.45812 14.6204 9.48361 14.6911 9.53371 14.8319L11.0228 19.0169C11.25 19.6555 11.4425 20.1966 11.6266 20.5997C11.7971 20.9729 12.0602 21.4712 12.5528 21.7431C13.1566 22.0765 13.8856 22.0921 14.5031 21.7848C15.0069 21.5342 15.291 21.0476 15.4772 20.682C15.6784 20.2871 15.8939 19.7547 16.1482 19.1264L21.2602 6.49669C21.5104 5.87872 21.7232 5.35289 21.8519 4.93056C21.9747 4.52757 22.0974 3.99699 21.9253 3.47327C21.8167 3.14245 21.6326 2.84733 21.3929 2.60779L9.43555 14.566Z" fill="#0000CC"/>
<path opacity="0.3" d="M21.3922 2.60784C21.1528 2.36857 20.8579 2.18475 20.5275 2.0762C20.0038 1.90416 19.4732 2.0268 19.0702 2.14961C18.6479 2.27832 18.122 2.49117 17.5041 2.74133L4.87432 7.85337C4.24604 8.10765 3.71365 8.32313 3.31878 8.5243C2.95319 8.71056 2.46657 8.99468 2.21593 9.49848C1.90871 10.116 1.9243 10.845 2.25762 11.4488C2.52957 11.9414 3.02789 12.2045 3.40111 12.3749C3.80422 12.559 4.34533 12.7516 4.98393 12.9788L9.16884 14.4678C9.30963 14.5179 9.38039 14.5434 9.43086 14.5644L9.43424 14.5658L21.3922 2.60784Z" fill="#0000CC"/>
</svg>
