<svg width="24" height="24" viewBox="0 0 24 24" fill="none" xmlns="http://www.w3.org/2000/svg">
<path opacity="0.3" fill-rule="evenodd" clip-rule="evenodd" d="M12 2C9.23858 2 7 4.23858 7 7V7.02714C6.91325 7.03193 6.82933 7.03756 6.74818 7.04419C6.18608 7.09012 5.66937 7.18868 5.18404 7.43597C4.43139 7.81947 3.81947 8.43139 3.43598 9.18404C3.18868 9.66937 3.09012 10.1861 3.04419 10.7482C2.99998 11.2894 2.99999 11.9537 3 12.7587V16.2413C2.99999 17.0463 2.99998 17.7106 3.04419 18.2518C3.09012 18.8139 3.18868 19.3306 3.43598 19.816C3.81947 20.5686 4.43139 21.1805 5.18404 21.564C5.66937 21.8113 6.18608 21.9099 6.74818 21.9558C7.28936 22 7.95372 22 8.75868 22H15.2413C16.0463 22 16.7106 22 17.2518 21.9558C17.8139 21.9099 18.3306 21.8113 18.816 21.564C19.5686 21.1805 20.1805 20.5686 20.564 19.816C20.8113 19.3306 20.9099 18.8139 20.9558 18.2518C21 17.7106 21 17.0463 21 16.2413V12.7587C21 11.9537 21 11.2894 20.9558 10.7482C20.9099 10.1861 20.8113 9.66937 20.564 9.18404C20.1805 8.43139 19.5686 7.81947 18.816 7.43597C18.3306 7.18868 17.8139 7.09012 17.2518 7.04419C17.1707 7.03756 17.0868 7.03193 17 7.02714V7C17 4.23858 14.7614 2 12 2ZM12 4C13.6569 4 15 5.34315 15 7H9C9 5.34315 10.3431 4 12 4Z" fill="#0000CC"/>
<path fill-rule="evenodd" clip-rule="evenodd" d="M10 10C10.5523 10 11 10.4477 11 11V11.5H13V11C13 10.4477 13.4477 10 14 10C14.5523 10 15 10.4477 15 11V11.5H15.5C16.0523 11.5 16.5 11.9477 16.5 12.5C16.5 13.0523 16.0523 13.5 15.5 13.5H15V15.5H15.5C16.0523 15.5 16.5 15.9477 16.5 16.5C16.5 17.0523 16.0523 17.5 15.5 17.5H15V18C15 18.5523 14.5523 19 14 19C13.4477 19 13 18.5523 13 18V17.5H11V18C11 18.5523 10.5523 19 10 19C9.44772 19 9 18.5523 9 18V17.5H8.5C7.94772 17.5 7.5 17.0523 7.5 16.5C7.5 15.9477 7.94772 15.5 8.5 15.5H9V13.5H8.5C7.94772 13.5 7.5 13.0523 7.5 12.5C7.5 11.9477 7.94772 11.5 8.5 11.5H9V11C9 10.4477 9.44772 10 10 10ZM11 13.5V15.5H13V13.5H11Z" fill="#0000CC"/>
</svg>
