<svg width="24" height="24" viewBox="0 0 24 24" fill="none" xmlns="http://www.w3.org/2000/svg">
<path d="M16.5107 16.5104C16.7467 16.2744 16.9689 16.0245 17.176 15.7621L21.7068 20.2929C22.0974 20.6834 22.0974 21.3166 21.7068 21.7071C21.3163 22.0977 20.6831 22.0977 20.2926 21.7071L15.7617 17.1762C16.0244 16.969 16.2745 16.7466 16.5107 16.5104Z" fill="#0000CC"/>
<g opacity="0.3">
<path d="M8 10.5C8 9.11929 9.11929 8 10.5 8C11.8807 8 13 9.11929 13 10.5C13 11.8807 11.8807 13 10.5 13C9.11929 13 8 11.8807 8 10.5Z" fill="#0000CC"/>
<path fill-rule="evenodd" clip-rule="evenodd" d="M10.5 5C7.46243 5 5 7.46243 5 10.5C5 13.5376 7.46243 16 10.5 16C13.5376 16 16 13.5376 16 10.5C16 7.46243 13.5376 5 10.5 5ZM7 10.5C7 8.567 8.567 7 10.5 7C12.433 7 14 8.567 14 10.5C14 12.433 12.433 14 10.5 14C8.567 14 7 12.433 7 10.5Z" fill="#0000CC"/>
<path fill-rule="evenodd" clip-rule="evenodd" d="M10.5 2C5.80558 2 2 5.80558 2 10.5C2 15.1944 5.80558 19 10.5 19C12.8469 19 14.9733 18.0475 16.5104 16.5104C18.0475 14.9733 19 12.8469 19 10.5C19 5.80558 15.1944 2 10.5 2ZM4 10.5C4 6.91015 6.91015 4 10.5 4C14.0899 4 17 6.91015 17 10.5C17 12.2952 16.2736 13.9188 15.0962 15.0962C13.9188 16.2736 12.2952 17 10.5 17C6.91015 17 4 14.0899 4 10.5Z" fill="#0000CC"/>
</g>
</svg>
