<svg width="24" height="24" viewBox="0 0 24 24" fill="none" xmlns="http://www.w3.org/2000/svg">
<path opacity="0.3" d="M13.9049 2.57437C13.74 2.22379 13.3874 2 13 2C12.6126 2 12.26 2.22379 12.0951 2.57437L10.9516 5.00554C9.10099 5.63772 7.63772 7.10099 7.00554 8.95157L4.57437 10.0951C4.22379 10.26 4 10.6126 4 11C4 11.3874 4.22379 11.74 4.57437 11.9049L7.00554 13.0484C7.21109 13.6501 7.50449 14.2109 7.87049 14.7154L2.29289 20.293C1.90237 20.6835 1.90237 21.3167 2.29289 21.7072C2.68342 22.0977 3.31658 22.0977 3.70711 21.7072L9.28473 16.1296C9.78924 16.4956 10.3499 16.7889 10.9516 16.9945L12.0951 19.4256C12.26 19.7762 12.6126 20 13 20C13.3874 20 13.74 19.7762 13.9049 19.4256L15.0484 16.9945C16.899 16.3623 18.3623 14.899 18.9945 13.0484L21.4256 11.9049C21.7762 11.74 22 11.3874 22 11C22 10.6126 21.7762 10.26 21.4256 10.0951L18.9945 8.95157C18.3623 7.10099 16.899 5.63772 15.0484 5.00554L13.9049 2.57437Z" fill="#0000CC"/>
<path fill-rule="evenodd" clip-rule="evenodd" d="M11 11C11 9.89543 11.8954 9 13 9C14.1046 9 15 9.89543 15 11C15 12.1046 14.1046 13 13 13C11.8954 13 11 12.1046 11 11Z" fill="#0000CC"/>
<path d="M3.70711 21.7072C3.31658 22.0977 2.68342 22.0977 2.29289 21.7072C1.90237 21.3167 1.90237 20.6835 2.29289 20.293L7.86958 14.7163C8.26341 15.259 8.74124 15.7366 9.28409 16.1302L3.70711 21.7072Z" fill="#0000CC"/>
</svg>
