<svg width="24" height="24" viewBox="0 0 24 24" fill="none" xmlns="http://www.w3.org/2000/svg">
<g opacity="0.3">
<path d="M14.5997 4H6.16146C5.63434 3.99998 5.17953 3.99997 4.80498 4.03057C4.40963 4.06287 4.01641 4.13419 3.63803 4.32698C3.07355 4.6146 2.6146 5.07355 2.32698 5.63803C2.23124 5.82595 2.16545 6.01752 2.11952 6.2112L9.00473 10.8013C10.3531 11.7003 10.8226 11.9955 11.301 12.1101C11.7606 12.2202 12.2397 12.2202 12.6992 12.1101C13.1776 11.9955 13.6471 11.7003 14.9955 10.8013L15.6121 10.3903C14.6161 9.39487 14 8.01938 14 6.5C14 5.59978 14.2163 4.75007 14.5997 4Z" fill="#0000CC"/>
<path d="M17.416 11.5914L15.9515 12.5678C14.8178 13.3243 14.035 13.8466 13.1653 14.055C12.3993 14.2386 11.6009 14.2386 10.8349 14.055C9.9652 13.8466 9.18245 13.3243 8.04872 12.5678L2 8.53522V15.8385C1.99998 16.3657 1.99997 16.8205 2.03057 17.195C2.06287 17.5904 2.13419 17.9836 2.32698 18.362C2.6146 18.9265 3.07355 19.3854 3.63803 19.673C4.01641 19.8658 4.40963 19.9371 4.80498 19.9694C5.17951 20 5.63421 20 6.16129 20H17.8385C18.3656 20 18.8205 20 19.195 19.9694C19.5904 19.9371 19.9836 19.8658 20.362 19.673C20.9265 19.3854 21.3854 18.9265 21.673 18.362C21.8658 17.9836 21.9371 17.5904 21.9694 17.195C22 16.8205 22 16.3657 22 15.8386V11.4003C21.2499 11.7837 20.4002 12 19.5 12C18.7624 12 18.0587 11.8548 17.416 11.5914Z" fill="#0000CC"/>
</g>
<path d="M23 6.5C23 8.433 21.433 10 19.5 10C17.567 10 16 8.433 16 6.5C16 4.567 17.567 3 19.5 3C21.433 3 23 4.567 23 6.5Z" fill="#0000CC"/>
</svg>
