<svg width="24" height="24" viewBox="0 0 24 24" fill="none" xmlns="http://www.w3.org/2000/svg">
<g opacity="0.3">
<path d="M16.5696 14.1553L22 10.5352V16.8386C22 17.3658 22 17.8205 21.9694 18.1951C21.9391 18.5663 21.8744 18.9357 21.7069 19.2927L16.5696 14.1553Z" fill="#0000CC"/>
<path d="M14.8725 15.2867L14.2178 15.7232C13.6887 16.077 13.2238 16.3879 12.6987 16.5137C12.2391 16.6238 11.76 16.6238 11.3005 16.5137C10.7753 16.3879 10.3105 16.077 9.78139 15.7232L9.12733 15.2871L3.70743 20.707C4.06439 20.8744 4.43374 20.9392 4.80498 20.9695C5.17954 21.0001 5.6343 21.0001 6.16144 21.0001H17.8386C18.3657 21.0001 18.8205 21.0001 19.195 20.9695C19.5663 20.9392 19.9358 20.8744 20.2928 20.7069L14.8725 15.2867Z" fill="#0000CC"/>
<path d="M2.29316 19.2929L7.43031 14.1557L2 10.5353V16.8386C1.99998 17.3657 1.99997 17.8205 2.03057 18.1951C2.06091 18.5664 2.12566 18.9359 2.29316 19.2929Z" fill="#0000CC"/>
</g>
<path d="M11.3326 2.43697C11.7719 2.33677 12.228 2.33677 12.6672 2.43697C13.1688 2.55139 13.6169 2.83369 14.1267 3.15476L20.1279 6.92363C20.5813 7.20762 20.9805 7.45767 21.2808 7.80919C21.4261 7.97921 21.5515 8.1645 21.6551 8.36143L13.2198 13.9846C12.513 14.4559 12.3642 14.5373 12.2325 14.5688C12.0793 14.6055 11.9196 14.6055 11.7665 14.5688C11.6348 14.5373 11.486 14.4559 10.7792 13.9846L2.34473 8.36151C2.44831 8.16455 2.57374 7.97924 2.71903 7.80919C3.01937 7.45764 3.41854 7.20763 3.87199 6.92362L9.87319 3.15476C10.3829 2.83369 10.8311 2.55139 11.3326 2.43697Z" fill="#0000CC"/>
</svg>
