<svg width="24" height="24" viewBox="0 0 24 24" fill="none" xmlns="http://www.w3.org/2000/svg">
<path opacity="0.3" d="M7.7587 5H17.5C15.0147 5 13 7.01472 13 9.5V18C13 18.5523 13.4477 19 14 19L3 19C2.44772 19 2 18.5523 2 18V10.7587C1.99999 9.95373 1.99998 9.28936 2.0442 8.74818C2.09012 8.18608 2.18868 7.66938 2.43598 7.18404C2.81947 6.43139 3.43139 5.81947 4.18404 5.43598C4.66938 5.18868 5.18608 5.09012 5.74818 5.0442C6.28936 4.99998 6.95375 4.99999 7.7587 5Z" fill="#0000CC"/>
<path d="M12 2C11.4477 2 11 2.44772 11 3V5H13V4H15C15.5523 4 16 3.55228 16 3C16 2.44772 15.5523 2 15 2H12Z" fill="#0000CC"/>
<path d="M11 21V19H13V21C13 21.5523 12.5523 22 12 22C11.4477 22 11 21.5523 11 21Z" fill="#0000CC"/>
<path d="M17.5 5C15.0147 5 13 7.01472 13 9.5V18C13 18.5523 13.4477 19 14 19H21C21.5523 19 22 18.5523 22 18V9.5C22 7.01472 19.9853 5 17.5 5Z" fill="#0000CC"/>
<path d="M6 12C6 11.4477 6.44772 11 7 11H10C10.5523 11 11 11.4477 11 12C11 12.5523 10.5523 13 10 13H7C6.44772 13 6 12.5523 6 12Z" fill="#0000CC"/>
</svg>
