<svg width="24" height="24" viewBox="0 0 24 24" fill="none" xmlns="http://www.w3.org/2000/svg">
<g opacity="0.3">
<path d="M6.16146 4H17.8385C18.3657 3.99998 18.8205 3.99997 19.195 4.03057C19.5904 4.06287 19.9836 4.13419 20.362 4.32698C20.9265 4.6146 21.3854 5.07355 21.673 5.63803C21.7688 5.82599 21.8346 6.0176 21.8805 6.21132L14.9955 10.8013C13.6471 11.7003 13.1776 11.9955 12.6992 12.1101C12.2397 12.2202 11.7606 12.2202 11.301 12.1101C10.8226 11.9955 10.3531 11.7003 9.00473 10.8013L2.11952 6.2112C2.16545 6.01752 2.23124 5.82595 2.32698 5.63803C2.6146 5.07355 3.07355 4.6146 3.63803 4.32698C4.01641 4.13419 4.40963 4.06287 4.80498 4.03057C5.17953 3.99997 5.63434 3.99998 6.16146 4Z" fill="#0000CC"/>
<path d="M18.2906 11.0083L22 8.53536V12.9995C21.1422 11.8578 19.8069 11.0952 18.2906 11.0083Z" fill="#0000CC"/>
<path d="M13.4234 13.9834C13.3379 14.0103 13.252 14.0343 13.1653 14.055C12.3993 14.2386 11.6009 14.2386 10.8349 14.055C9.9652 13.8466 9.18245 13.3243 8.04872 12.5678L2 8.53522V15.8385C1.99998 16.3657 1.99997 16.8205 2.03057 17.195C2.06287 17.5904 2.13419 17.9836 2.32698 18.362C2.6146 18.9265 3.07355 19.3854 3.63803 19.673C4.01641 19.8658 4.40963 19.9371 4.80498 19.9694C5.17951 20 5.63421 20 6.16129 20H12.1386C12.0752 19.7569 12.0339 19.5064 12.0165 19.2514L12 18.5543V18.4457C11.9999 18.2568 11.9999 17.9924 12.0165 17.7486C12.0365 17.4553 12.0901 16.987 12.3045 16.4693C12.4844 16.035 12.7374 15.6404 13.0486 15.3002C13.1133 14.838 13.2413 14.396 13.4234 13.9834Z" fill="#0000CC"/>
</g>
<path fill-rule="evenodd" clip-rule="evenodd" d="M18 13C16.3431 13 15 14.3431 15 16V16.2679C14.6208 16.4869 14.3216 16.8257 14.1522 17.2346C14.0553 17.4687 14.0248 17.6944 14.0118 17.8848C14 18.0588 14 18.2635 14 18.4735V18.5265C14 18.7365 14 18.9412 14.0118 19.1152C14.0248 19.3056 14.0553 19.5313 14.1522 19.7654C14.3552 20.2554 14.7446 20.6448 15.2346 20.8478C15.4687 20.9447 15.6944 20.9752 15.8848 20.9882C16.0589 21 16.2635 21 16.4735 21H19.5265C19.7365 21 19.9411 21 20.1152 20.9882C20.3056 20.9752 20.5313 20.9447 20.7654 20.8478C21.2554 20.6448 21.6448 20.2554 21.8478 19.7654C21.9447 19.5313 21.9752 19.3056 21.9882 19.1152C22 18.9411 22 18.7365 22 18.5265V18.4735C22 18.2635 22 18.0589 21.9882 17.8848C21.9752 17.6944 21.9447 17.4687 21.8478 17.2346C21.6784 16.8257 21.3792 16.4869 21 16.2679V16C21 14.3431 19.6569 13 18 13ZM18 15C18.5523 15 19 15.4477 19 16L17 16C17 15.4477 17.4477 15 18 15Z" fill="#0000CC"/>
</svg>
