<svg width="24" height="24" viewBox="0 0 24 24" fill="none" xmlns="http://www.w3.org/2000/svg">
<g opacity="0.3">
<path d="M6.16146 4H17.8385C18.3657 3.99998 18.8205 3.99997 19.195 4.03057C19.5904 4.06287 19.9836 4.13419 20.362 4.32698C20.9265 4.6146 21.3854 5.07355 21.673 5.63803C21.7688 5.82599 21.8346 6.0176 21.8805 6.21132L14.9955 10.8013C13.6471 11.7003 13.1776 11.9955 12.6992 12.1101C12.2397 12.2202 11.7606 12.2202 11.301 12.1101C10.8226 11.9955 10.3531 11.7003 9.00473 10.8013L2.11952 6.2112C2.16545 6.01752 2.23124 5.82595 2.32698 5.63803C2.6146 5.07355 3.07355 4.6146 3.63803 4.32698C4.01641 4.13419 4.40963 4.06287 4.80498 4.03057C5.17953 3.99997 5.63434 3.99998 6.16146 4Z" fill="#0000CC"/>
<path d="M18.3031 11L22 8.53536L22 11H18.3031Z" fill="#0000CC"/>
<path d="M14.0102 13.7506C13.7276 13.8841 13.4511 13.9865 13.1653 14.055C12.3993 14.2386 11.6009 14.2386 10.8349 14.055C9.9652 13.8466 9.18245 13.3243 8.04872 12.5678L2 8.53522V15.8385C1.99998 16.3657 1.99997 16.8205 2.03057 17.195C2.06287 17.5904 2.13419 17.9836 2.32698 18.362C2.6146 18.9265 3.07355 19.3854 3.63803 19.673C4.01641 19.8658 4.40963 19.9371 4.80498 19.9694C5.17951 20 5.63421 20 6.16129 20H14V14C14 13.916 14.0035 13.8329 14.0102 13.7506Z" fill="#0000CC"/>
</g>
<path d="M17 13C16.4477 13 16 13.4477 16 14V21C16 21.3543 16.1875 21.6822 16.4929 21.8619C16.7983 22.0416 17.1759 22.0462 17.4857 21.8741L19.5 20.755L21.5143 21.8741C21.8241 22.0462 22.2017 22.0416 22.5071 21.8619C22.8125 21.6822 23 21.3543 23 21V14C23 13.4477 22.5523 13 22 13H17Z" fill="#0000CC"/>
</svg>
