<svg width="24" height="24" viewBox="0 0 24 24" fill="none" xmlns="http://www.w3.org/2000/svg">
<path opacity="0.3" d="M22 10.5352L14.2178 15.7232C13.6887 16.077 13.2238 16.3879 12.6987 16.5137C12.2391 16.6238 11.76 16.6238 11.3005 16.5137C10.7753 16.3879 10.3105 16.077 9.78139 15.7232L2 10.5353V16.8386C1.99998 17.3657 1.99997 17.8205 2.03057 18.1951C2.06287 18.5904 2.13419 18.9837 2.32698 19.362C2.6146 19.9265 3.07354 20.3855 3.63803 20.6731C4.01641 20.8659 4.40963 20.9372 4.80497 20.9695C5.17954 21.0001 5.6343 21.0001 6.16144 21.0001H17.8386C18.3657 21.0001 18.8205 21.0001 19.195 20.9695C19.5904 20.9372 19.9836 20.8659 20.362 20.6731C20.9265 20.3855 21.3854 19.9265 21.673 19.362C21.8658 18.9837 21.9371 18.5904 21.9694 18.1951C22 17.8205 22 17.3658 22 16.8386V10.5352Z" fill="#0000CC"/>
<path d="M12.6672 2.43697C12.228 2.33677 11.7719 2.33677 11.3326 2.43697C10.8311 2.55139 10.3829 2.83369 9.87319 3.15476L3.87199 6.92362C3.41854 7.20763 3.01937 7.45764 2.71903 7.80919C2.57374 7.97924 2.44831 8.16455 2.34473 8.36151L10.7792 13.9846C11.486 14.4559 11.6348 14.5373 11.7665 14.5688C11.9196 14.6055 12.0793 14.6055 12.2325 14.5688C12.3642 14.5373 12.513 14.4559 13.2198 13.9846L21.6551 8.36143C21.5515 8.1645 21.4261 7.97921 21.2808 7.80919C20.9805 7.45765 20.5813 7.20764 20.1279 6.92363L14.1267 3.15476C13.6169 2.83369 13.1688 2.55139 12.6672 2.43697Z" fill="#0000CC"/>
</svg>
