<svg width="24" height="24" viewBox="0 0 24 24" fill="none" xmlns="http://www.w3.org/2000/svg">
<path opacity="0.3" d="M9 21V5.88197L14.5528 3.10557C14.6936 3.03519 14.8468 3 15 3V18.118L9.44721 20.8944C9.30645 20.9648 9.15322 21 9 21Z" fill="#0000CC"/>
<path d="M9 5.88197L3.44721 3.10557C3.13723 2.95058 2.76909 2.96714 2.47427 3.14935C2.17945 3.33156 2 3.65342 2 4V17C2 17.3788 2.214 17.725 2.55279 17.8944L8.55279 20.8944C8.69355 20.9648 8.84678 21 9 21V5.88197Z" fill="#0000CC"/>
<path d="M15 18.118L20.5528 20.8944C20.8628 21.0494 21.2309 21.0329 21.5257 20.8507C21.8205 20.6684 22 20.3466 22 20V7C22 6.62123 21.786 6.27497 21.4472 6.10557L15.4472 3.10557C15.3064 3.03519 15.1532 3 15 3V18.118Z" fill="#0000CC"/>
</svg>
