<svg width="24" height="24" viewBox="0 0 24 24" fill="none" xmlns="http://www.w3.org/2000/svg">
<path opacity="0.3" fill-rule="evenodd" clip-rule="evenodd" d="M5 2C4.63502 2 4.29903 2.19885 4.12339 2.51879C3.94776 2.83874 3.96039 3.22895 4.15634 3.53688L11 14.2912L11 20H8C7.44772 20 7 20.4477 7 21C7 21.5523 7.44772 22 8 22H16C16.5523 22 17 21.5523 17 21C17 20.4477 16.5523 20 16 20H13L13 14.2912L19.8437 3.53688C20.0396 3.22896 20.0522 2.83874 19.8766 2.51879C19.701 2.19885 19.365 2 19 2L5 2ZM6.82167 4L17.1783 4L14.6329 8H9.36719L6.82167 4Z" fill="#0000CC"/>
<path d="M9.36719 8L12.0001 12.1374L14.6329 8H9.36719Z" fill="#0000CC"/>
</svg>
