<svg width="24" height="24" viewBox="0 0 24 24" fill="none" xmlns="http://www.w3.org/2000/svg">
<path opacity="0.3" fill-rule="evenodd" clip-rule="evenodd" d="M12 5C11.1505 5 10.3201 5.25145 9.61325 5.72265L8.9453 6.16795C8.43423 6.50866 8.25849 6.62298 8.07857 6.70864C7.80652 6.83817 7.51652 6.92598 7.21831 6.96911C7.02109 6.99763 6.81145 7 6.19722 7H6C5.44772 7 5 7.44772 5 8V12C5 15.866 8.13401 19 12 19C15.866 19 19 15.866 19 12V8C19 7.44772 18.5523 7 18 7H17.8028C17.1885 7 16.9789 6.99763 16.7817 6.96911C16.4835 6.92598 16.1935 6.83817 15.9214 6.70864C15.7415 6.62298 15.5658 6.50866 15.0547 6.16795L14.3868 5.72265C13.6799 5.25145 12.8495 5 12 5Z" fill="#0000CC"/>
<path d="M19 9V8C19 7.44874 18.5539 7.00166 18.0031 7L19.4408 7C19.6892 6.99997 19.9312 6.99994 20.1362 7.01644C20.3612 7.03454 20.6269 7.07723 20.895 7.21138C21.2817 7.40485 21.5952 7.71843 21.7887 8.10511C21.9229 8.37325 21.9656 8.6389 21.9837 8.86392C22.0002 9.06892 22.0001 9.31087 22.0001 9.5593L22.0001 9.90093C22.0007 11.1744 22.001 12.0525 21.7336 12.8384C21.4332 13.7217 20.8915 14.5032 20.17 15.0947C19.805 15.3939 19.3671 15.6166 18.899 15.8179C18.495 15.9917 18.0109 16.1729 17.4621 16.3782C18.1015 15.5816 18.5702 14.6422 18.8127 13.6153C18.8457 13.5923 18.8753 13.5699 18.9021 13.548C19.335 13.1931 19.6599 12.7242 19.8402 12.1943C19.9872 11.7621 20.0001 11.2425 20.0001 9.728V9.59067C20.0001 9.29881 19.9993 9.13912 19.9901 9.0243L19.989 9.01112L19.9758 9.01C19.861 9.00076 19.7013 9 19.4094 9H19Z" fill="#0000CC"/>
<path d="M5.18737 13.6156C5.43315 14.6559 5.91105 15.6066 6.56339 16.4098C6.00656 16.2003 5.51675 16.0121 5.10344 15.8294C4.62898 15.6197 4.1904 15.3901 3.83015 15.0947C3.10865 14.5032 2.56703 13.7217 2.26653 12.8384C1.99917 12.0525 1.99953 11.1744 2.00004 9.90092L2.00009 9.55928C2.00006 9.31086 2.00003 9.06892 2.01652 8.86392C2.03463 8.6389 2.07732 8.37325 2.21147 8.10511C2.40494 7.71843 2.71851 7.40485 3.1052 7.21138C3.37333 7.07723 3.63899 7.03454 3.86401 7.01644C4.069 6.99994 4.31095 6.99997 4.55937 7L5.99684 7C5.44601 7.00171 5 7.44877 5 8V9H4.59076C4.2989 9 4.1392 9.00076 4.02439 9.01L4.01121 9.01112L4.01008 9.0243C4.00085 9.13912 4.00009 9.29881 4.00009 9.59067V9.728C4.00009 11.2425 4.01295 11.7621 4.15996 12.1943C4.34025 12.7242 4.66523 13.1931 5.09813 13.548C5.12484 13.5699 5.15444 13.5924 5.18737 13.6156Z" fill="#0000CC"/>
<path d="M14 12C14.5523 12 15 11.5523 15 11C15 10.4477 14.5523 10 14 10H10C9.44772 10 9 10.4477 9 11C9 11.5523 9.44772 12 10 12H14Z" fill="#0000CC"/>
<path d="M11 13C10.4477 13 10 13.4477 10 14C10 14.5523 10.4477 15 11 15H13C13.5523 15 14 14.5523 14 14C14 13.4477 13.5523 13 13 13H11Z" fill="#0000CC"/>
</svg>
