<svg width="24" height="24" viewBox="0 0 24 24" fill="none" xmlns="http://www.w3.org/2000/svg">
<path opacity="0.3" fill-rule="evenodd" clip-rule="evenodd" d="M6.44601 6.19193C6.80492 6.13729 7.1696 6.13176 7.53 6.17551C7.87138 6.21694 8.19999 6.31565 8.63471 6.44622L12.0004 7.45594L15.366 6.44622C15.8008 6.31565 16.1294 6.21694 16.4707 6.17551C16.8311 6.13176 17.1958 6.13729 17.5547 6.19193C17.8947 6.24368 18.2202 6.3523 18.6507 6.49598L18.7562 6.53116C19.4886 6.77528 20.0922 6.97646 20.5711 7.17816C21.0674 7.38717 21.5087 7.6277 21.8807 7.98781C22.5708 8.65601 22.9974 9.55027 23.0825 10.5071C23.1284 11.0228 23.0377 11.5171 22.8879 12.0344C22.7433 12.5335 22.5199 13.1292 22.2488 13.8521L21.6665 15.4053C21.4359 16.0231 21.2333 16.5657 20.8651 16.9835C20.543 17.349 20.1367 17.6306 19.6813 17.8038C19.1608 18.0019 18.5817 18.0011 17.9222 18.0001L16.7083 18C16.4731 18.0001 16.2654 18.0002 16.0566 17.971C15.8728 17.9453 15.6918 17.9025 15.5159 17.8434C15.316 17.7761 15.1303 17.6831 14.9199 17.5778L12.0004 16.118L9.08082 17.5778C8.87043 17.6831 8.68473 17.7761 8.48489 17.8434C8.30899 17.9025 8.12797 17.9453 7.94418 17.971C7.73536 18.0002 7.52769 18.0001 7.29241 18L6.0785 18.0001C5.41906 18.0011 4.83994 18.0019 4.31943 17.8038C3.86408 17.6306 3.45779 17.349 3.13567 16.9835C2.76745 16.5657 2.56489 16.0231 2.33424 15.4053L1.75192 13.8521C1.48083 13.1292 1.25743 12.5335 1.11286 12.0344C0.963046 11.5171 0.872328 11.0228 0.9182 10.5071C1.00332 9.55027 1.42995 8.65601 2.12009 7.98781C2.49203 7.6277 2.93333 7.38717 3.42962 7.17816C3.90855 6.97646 4.51212 6.77528 5.24453 6.53116L5.35001 6.49598C5.78058 6.3523 6.10605 6.24368 6.44601 6.19193ZM6 12C6 11.4477 6.44772 11 7 11H8C8.55228 11 9 11.4477 9 12C9 12.5523 8.55228 13 8 13H7C6.44772 13 6 12.5523 6 12ZM15 12C15 11.4477 15.4477 11 16 11H17C17.5523 11 18 11.4477 18 12C18 12.5523 17.5523 13 17 13H16C15.4477 13 15 12.5523 15 12Z" fill="#0000CC"/>
<path fill-rule="evenodd" clip-rule="evenodd" d="M6 12C6 11.4477 6.44772 11 7 11H8C8.55228 11 9 11.4477 9 12C9 12.5523 8.55228 13 8 13H7C6.44772 13 6 12.5523 6 12ZM15 12C15 11.4477 15.4477 11 16 11H17C17.5523 11 18 11.4477 18 12C18 12.5523 17.5523 13 17 13H16C15.4477 13 15 12.5523 15 12Z" fill="#0000CC"/>
</svg>
