<svg width="24" height="24" viewBox="0 0 24 24" fill="none" xmlns="http://www.w3.org/2000/svg">
<path opacity="0.3" d="M4 3C3.44772 3 3 3.44772 3 4V20C3 20.5523 3.44772 21 4 21H20C20.5523 21 21 20.5523 21 20V4C21 3.44772 20.5523 3 20 3H4Z" fill="#0000CC"/>
<path fill-rule="evenodd" clip-rule="evenodd" d="M8.70658 8.29237C8.52566 8.11171 8.27588 8 8 8C7.44772 8 7 8.44772 7 9V15C7 15.5523 7.44772 16 8 16C8.55228 16 9 15.5523 9 15V11C9 10.4477 9.44772 10 10 10C10.5523 10 11 10.4477 11 11V15C11 15.5523 11.4477 16 12 16C12.5523 16 13 15.5523 13 15V11C13 10.4477 13.4477 10 14 10C14.5523 10 15 10.4477 15 11V15C15 15.5523 15.4477 16 16 16C16.5523 16 17 15.5523 17 15V11C17 9.34315 15.6569 8 14 8C13.2316 8 12.5308 8.28885 12 8.76389C11.4692 8.28885 10.7684 8 10 8C9.53685 8 9.09822 8.10495 8.70658 8.29237Z" fill="#0000CC"/>
</svg>
