<svg width="24" height="24" viewBox="0 0 24 24" fill="none" xmlns="http://www.w3.org/2000/svg">
<g opacity="0.3">
<path d="M15.5 5H17.5858L13.2929 9.29289C12.9024 9.68342 12.9024 10.3166 13.2929 10.7071C13.6834 11.0976 14.3166 11.0976 14.7071 10.7071L19 6.41421V8.5C19 9.05228 19.4477 9.5 20 9.5C20.5523 9.5 21 9.05228 21 8.5V4C21 3.44772 20.5523 3 20 3H15.5C14.9477 3 14.5 3.44772 14.5 4C14.5 4.55228 14.9477 5 15.5 5Z" fill="#0000CC"/>
<path d="M10.7071 14.7071C11.0976 14.3166 11.0976 13.6834 10.7071 13.2929C10.3166 12.9024 9.68342 12.9024 9.29289 13.2929L5 17.5858L5 15.5C5 14.9477 4.55229 14.5 4 14.5C3.44772 14.5 3 14.9477 3 15.5V20C3 20.2652 3.10536 20.5196 3.29289 20.7071C3.48043 20.8946 3.73478 21 4 21H8.5C9.05228 21 9.5 20.5523 9.5 20C9.5 19.4477 9.05228 19 8.5 19H6.41421L10.7071 14.7071Z" fill="#0000CC"/>
</g>
<path fill-rule="evenodd" clip-rule="evenodd" d="M3 4C3 3.44772 3.44772 3 4 3H8.5C9.05228 3 9.5 3.44772 9.5 4C9.5 4.55228 9.05228 5 8.5 5H6.41421L10.7071 9.29289C11.0976 9.68342 11.0976 10.3166 10.7071 10.7071C10.3166 11.0976 9.68342 11.0976 9.29289 10.7071L5 6.41421V8.5C5 9.05228 4.55228 9.5 4 9.5C3.44772 9.5 3 9.05228 3 8.5V4ZM13.2929 13.2929C13.6834 12.9024 14.3166 12.9024 14.7071 13.2929L19 17.5858V15.5C19 14.9477 19.4477 14.5 20 14.5C20.5523 14.5 21 14.9477 21 15.5V20C21 20.5523 20.5523 21 20 21H15.5C14.9477 21 14.5 20.5523 14.5 20C14.5 19.4477 14.9477 19 15.5 19H17.5858L13.2929 14.7071C12.9024 14.3166 12.9024 13.6834 13.2929 13.2929Z" fill="#0000CC"/>
</svg>
