<svg width="24" height="24" viewBox="0 0 24 24" fill="none" xmlns="http://www.w3.org/2000/svg">
<path d="M12 10C8.68629 10 6 12.6863 6 16C6 19.3137 8.68629 22 12 22C15.3137 22 18 19.3137 18 16C18 12.6863 15.3137 10 12 10Z" fill="#0000CC"/>
<path opacity="0.3" fill-rule="evenodd" clip-rule="evenodd" d="M7.16153 2H16.8386C17.3657 1.99998 17.8206 1.99997 18.1951 2.03057C18.5905 2.06287 18.9837 2.13419 19.3621 2.32698C19.9265 2.6146 20.3855 3.07355 20.6731 3.63803C20.8659 4.01641 20.9372 4.40963 20.9695 4.80498C21.0001 5.17954 21.0001 5.6343 21.0001 6.16144L21.0001 6.91424C21.0004 7.27164 21.0007 7.58687 20.9352 7.89665C20.8776 8.16897 20.7823 8.43195 20.6523 8.67802C20.5043 8.95795 20.3023 9.19997 20.0732 9.47434L17.8455 12.1476C16.8913 10.7027 15.4158 9.63234 13.6868 9.20458L15.404 7H8.60109L10.3149 9.20415C8.58528 9.63161 7.10909 10.7021 6.15458 12.1475L3.92692 9.47432C3.69789 9.19995 3.49588 8.95794 3.3479 8.67802C3.21781 8.43195 3.1226 8.16897 3.065 7.89665C2.99949 7.58687 2.99975 7.27164 3.00004 6.91425L3.00008 6.16146C3.00006 5.63431 3.00004 5.17955 3.03065 4.80498C3.06295 4.40963 3.13426 4.01641 3.32706 3.63803C3.61468 3.07355 4.07362 2.6146 4.63811 2.32698C5.01649 2.13419 5.40971 2.06287 5.80505 2.03057C6.1796 1.99997 6.63442 1.99998 7.16153 2ZM5 6.2C5 5.98268 5.00011 5.79439 5.00149 5.62894L7.16315 8.40903C6.83329 8.6196 6.51815 8.85103 6.21958 9.10145L5.50991 8.24985C5.20872 7.88842 5.15352 7.81435 5.11594 7.74328C5.07258 7.66125 5.04084 7.57359 5.02164 7.48282C5.00501 7.40416 5 7.31193 5 6.84144V6.2ZM19 6.2C19 5.98744 18.9999 5.80265 18.9986 5.63984L16.84 8.41104C17.1687 8.62108 17.4828 8.85183 17.7804 9.10145L18.4901 8.24985C18.7913 7.88842 18.8465 7.81435 18.8841 7.74328C18.9274 7.66125 18.9592 7.57359 18.9784 7.48282C18.995 7.40416 19 7.31193 19 6.84144V6.2Z" fill="#0000CC"/>
</svg>
