<svg width="24" height="24" viewBox="0 0 24 24" fill="none" xmlns="http://www.w3.org/2000/svg">
<path opacity="0.3" d="M3.15444 2.46611C3.33765 2.17595 3.65684 2 4 2H8C8.37877 2 8.72504 2.214 8.89443 2.55279L12 8.76393L15.1056 2.55279C15.275 2.214 15.6212 2 16 2H20C20.3432 2 20.6624 2.17595 20.8456 2.46611C21.0288 2.75628 21.0504 3.12011 20.9029 3.42993L17.1536 11.3033C17.0712 11.2132 16.9866 11.1252 16.9 11.0396C15.6467 9.80107 13.9116 9 12 9C10.0884 9 8.35331 9.80107 7.1 11.0396C7.01335 11.1252 6.92878 11.2132 6.84639 11.3033L3.09714 3.42993C2.94961 3.12011 2.97124 2.75628 3.15444 2.46611Z" fill="#0000CC"/>
<path d="M18 16C18 19.3137 15.3137 22 12 22C8.68629 22 6 19.3137 6 16C6 12.6863 8.68629 10 12 10C15.3137 10 18 12.6863 18 16Z" fill="#0000CC"/>
</svg>
