<svg width="24" height="24" viewBox="0 0 24 24" fill="none" xmlns="http://www.w3.org/2000/svg">
<path opacity="0.3" d="M17.8385 3H6.16146C5.63433 2.99998 5.17954 2.99997 4.80497 3.03057C4.40963 3.06287 4.01641 3.13419 3.63803 3.32698C3.07354 3.6146 2.6146 4.07354 2.32698 4.63803C2.13419 5.01641 2.06287 5.40963 2.03057 5.80497C1.99997 6.17954 1.99998 6.63429 2 7.16142V12.5424L5.99427 9.23023C6.35612 8.93017 6.87811 8.92265 7.24846 9.21215L10.3902 11.6681L15.3338 7.25407C15.709 6.91907 16.2747 6.91489 16.6548 7.24431L22 11.8767V7.16144C22 6.6343 22 6.17954 21.9694 5.80497C21.9371 5.40963 21.8658 5.01641 21.673 4.63803C21.3854 4.07355 20.9265 3.6146 20.362 3.32698C19.9836 3.13419 19.5904 3.06287 19.195 3.03057C18.8205 2.99997 18.3657 2.99998 17.8385 3Z" fill="#0000CC"/>
<path d="M22 11.8767V20C22 20.3466 21.8205 20.6684 21.5257 20.8507C21.2309 21.0329 20.8628 21.0494 20.5528 20.8944L17.2285 19.2323C16.9526 19.0943 16.8977 19.0693 16.8468 19.0522C16.7881 19.0325 16.7278 19.0182 16.6665 19.0097C16.6133 19.0022 16.553 19 16.2446 19H6.16148C5.63433 19 5.17954 19 4.80497 18.9694C4.40963 18.9371 4.01641 18.8658 3.63803 18.673C3.07354 18.3854 2.6146 17.9265 2.32698 17.362C2.13419 16.9836 2.06287 16.5904 2.03057 16.195C1.99997 15.8205 1.99998 15.3657 2 14.8386V12.5424L5.99427 9.23023C6.35612 8.93017 6.87811 8.92265 7.24846 9.21215L10.3902 11.6681L15.3338 7.25407C15.709 6.91906 16.2747 6.91488 16.6548 7.2443L22 11.8767Z" fill="#0000CC"/>
</svg>
