<svg width="24" height="24" viewBox="0 0 24 24" fill="none" xmlns="http://www.w3.org/2000/svg">
<path opacity="0.3" d="M2.00391 12C2.00391 6.47715 6.48105 2 12.0039 2C17.5267 2 22.0039 6.47715 22.0039 12C22.0039 12.063 22.0033 12.1259 22.0022 12.1886C22.0078 11.8855 21.8753 11.5961 21.6424 11.402L16.6401 7.2319C16.2427 6.90063 15.6583 6.92715 15.2925 7.29302L10.9475 11.6396L8.15078 9.24094C7.75406 8.90069 7.16223 8.92333 6.79266 9.2929L2.57249 13.5131C2.32852 13.757 2.22791 14.1091 2.30503 14.4443C2.10819 13.661 2.00391 12.842 2.00391 12Z" fill="#0000CC"/>
<path fill-rule="evenodd" clip-rule="evenodd" d="M15.2925 7.29302C15.6583 6.92715 16.2427 6.90063 16.6401 7.2319L21.6424 11.402C21.8753 11.5961 22.0075 11.8855 22.0019 12.1886C21.9012 17.6247 17.4635 22 12.0037 22H3.00448C2.67016 22 2.35787 21.8329 2.1724 21.5548C1.98696 21.2767 1.95274 20.9243 2.08118 20.6157L2.08159 20.6147L2.0841 20.6086L2.09533 20.5812C2.10545 20.5563 2.12069 20.5184 2.14014 20.4692C2.17906 20.3707 2.23468 20.2269 2.29984 20.05C2.43069 19.6945 2.59736 19.2121 2.74436 18.6968C2.89293 18.1761 3.01306 17.6504 3.06279 17.2014C3.08756 16.9778 3.09237 16.7943 3.0815 16.6526C3.07615 16.583 3.06758 16.5312 3.05891 16.4946C3.05073 16.4601 3.04402 16.4457 3.04402 16.4457C2.73312 15.8203 2.48576 15.1577 2.3103 14.4661C2.22361 14.1244 2.32323 13.7623 2.57249 13.5131L6.79266 9.2929C7.16223 8.92333 7.75406 8.90069 8.15078 9.24094L10.9475 11.6396L15.2925 7.29302Z" fill="#0000CC"/>
</svg>
