<svg width="24" height="24" viewBox="0 0 24 24" fill="none" xmlns="http://www.w3.org/2000/svg">
<path opacity="0.3" fill-rule="evenodd" clip-rule="evenodd" d="M2.48854 19.5616C2.42003 19.7356 2.35537 19.8997 2.30007 20.05C2.23023 20.2397 2.15877 20.4291 2.08136 20.6158C1.95297 20.9244 1.98721 21.2767 2.17263 21.5548C2.3581 21.8329 2.67039 22 3.00471 22H12.0039C17.5267 22 22.0039 17.5228 22.0039 12C22.0039 6.47715 17.5267 2 12.0039 2C6.48105 2 2.00391 6.47715 2.00391 12C2.00391 13.595 2.37798 15.1053 3.04425 16.4457C3.37301 17.3161 2.87068 18.5914 2.48854 19.5616Z" fill="#0000CC"/>
<path fill-rule="evenodd" clip-rule="evenodd" d="M15.1963 7.7002C15.7486 7.7002 16.1963 8.14791 16.1963 8.7002V11.7002C16.1963 12.2525 15.7486 12.7002 15.1963 12.7002H12.1963C11.644 12.7002 11.1963 12.2525 11.1963 11.7002C11.1963 11.1479 11.644 10.7002 12.1963 10.7002H13.0194C12.6664 10.3888 12.2029 10.2002 11.6963 10.2002C10.5917 10.2002 9.69629 11.0956 9.69629 12.2002C9.69629 13.3048 10.5917 14.2002 11.6963 14.2002C12.2092 14.2002 12.6749 14.0085 13.0294 13.6912C13.4409 13.3228 14.0731 13.3579 14.4414 13.7694C14.8098 14.1809 14.7747 14.8131 14.3632 15.1814C13.6562 15.8142 12.7201 16.2002 11.6963 16.2002C9.48715 16.2002 7.69629 14.4093 7.69629 12.2002C7.69629 9.99106 9.48715 8.2002 11.6963 8.2002C12.6428 8.2002 13.5118 8.52879 14.1963 9.07764V8.7002C14.1963 8.14791 14.644 7.7002 15.1963 7.7002Z" fill="#0000CC"/>
</svg>
