<svg width="24" height="24" viewBox="0 0 24 24" fill="none" xmlns="http://www.w3.org/2000/svg">
<path opacity="0.3" d="M7.16146 3H14.8385C15.3657 2.99998 15.8205 2.99997 16.195 3.03057C16.5904 3.06287 16.9836 3.13419 17.362 3.32698C17.9265 3.6146 18.3854 4.07355 18.673 4.63803C18.8658 5.01641 18.9371 5.40963 18.9694 5.80498C18.9746 5.86774 18.9788 5.93277 18.9824 6H9C7.34315 6 6 7.34315 6 9V18C6 18.0457 6.00102 18.0911 6.00304 18.1362L4.4381 18.8989C4.12818 19.05 3.76231 19.0307 3.46996 18.848C3.1776 18.6652 3 18.3448 3 18V7.16142C2.99998 6.63431 2.99997 6.17953 3.03057 5.80498C3.06287 5.40963 3.13419 5.01641 3.32698 4.63803C3.6146 4.07355 4.07354 3.6146 4.63803 3.32698C5.01641 3.13419 5.40963 3.06287 5.80498 3.03057C6.17953 2.99997 6.63434 2.99998 7.16146 3Z" fill="#0000CC"/>
<path d="M17.8385 8H12.1615C11.6343 7.99998 11.1795 7.99997 10.805 8.03057C10.4096 8.06287 10.0164 8.13419 9.63803 8.32698C9.07354 8.6146 8.6146 9.07354 8.32698 9.63803C8.13419 10.0164 8.06287 10.4096 8.03057 10.805C7.99997 11.1795 7.99998 11.6343 8 12.1615V14.8385C7.99998 15.3657 7.99997 15.8205 8.03057 16.195C8.06287 16.5904 8.13419 16.9836 8.32698 17.362C8.6146 17.9265 9.07354 18.3854 9.63803 18.673C10.0164 18.8658 10.4096 18.9371 10.805 18.9694C11.1795 19 11.6343 19 12.1614 19H17.0311C17.4257 19 17.5029 19.0036 17.5699 19.0155C17.6472 19.0293 17.7226 19.0521 17.7945 19.0835C17.8569 19.1108 17.9232 19.1506 18.2515 19.3695L20.4453 20.8321C20.7522 21.0366 21.1467 21.0557 21.4719 20.8817C21.797 20.7077 22 20.3688 22 20V12.1615C22 11.6344 22 11.1795 21.9694 10.805C21.9371 10.4096 21.8658 10.0164 21.673 9.63803C21.3854 9.07354 20.9265 8.6146 20.362 8.32698C19.9836 8.13419 19.5904 8.06287 19.195 8.03057C18.8205 7.99997 18.3657 7.99998 17.8385 8Z" fill="#0000CC"/>
</svg>
