<svg width="24" height="24" viewBox="0 0 24 24" fill="none" xmlns="http://www.w3.org/2000/svg">
<path opacity="0.3" d="M12 2C6.47717 2 2.00002 6.47715 2.00002 12C2.00002 13.5331 2.34568 14.9879 2.964 16.2886L2.02121 20.7952C1.9521 21.1256 2.05427 21.4685 2.29291 21.7071C2.53155 21.9457 2.87445 22.0479 3.20479 21.9788L7.71137 21.036C9.01208 21.6543 10.4669 22 12 22C17.5229 22 22 17.5228 22 12C22 6.47715 17.5229 2 12 2Z" fill="#0000CC"/>
<path fill-rule="evenodd" clip-rule="evenodd" d="M9.79289 9.79289C10.1834 9.40237 10.8166 9.40237 11.2071 9.79289L13.5 12.0858L15.7929 9.79289C16.1834 9.40237 16.8166 9.40237 17.2071 9.79289C17.5976 10.1834 17.5976 10.8166 17.2071 11.2071L14.2071 14.2071C13.8166 14.5976 13.1834 14.5976 12.7929 14.2071L10.5 11.9142L8.20711 14.2071C7.81658 14.5976 7.18342 14.5976 6.79289 14.2071C6.40237 13.8166 6.40237 13.1834 6.79289 12.7929L9.79289 9.79289Z" fill="#0000CC"/>
</svg>
