<svg width="24" height="24" viewBox="0 0 24 24" fill="none" xmlns="http://www.w3.org/2000/svg">
<path opacity="0.3" fill-rule="evenodd" clip-rule="evenodd" d="M17.8385 3H6.16146C5.63436 2.99999 5.17952 2.99997 4.80498 3.03057C4.40963 3.06287 4.01641 3.13419 3.63803 3.32698C3.07355 3.6146 2.6146 4.07355 2.32698 4.63803C2.13419 5.01641 2.06287 5.40963 2.03057 5.80498C1.99997 6.17952 1.99999 6.63429 2 7.16139V14.8386C1.99999 15.3657 1.99997 15.8205 2.03057 16.195C2.06287 16.5904 2.13419 16.9836 2.32698 17.362C2.6146 17.9265 3.07355 18.3854 3.63803 18.673C4.01641 18.8658 4.40963 18.9371 4.80498 18.9694C5.17947 19 5.63423 19 6.16124 19H16.2446C16.553 19 16.6133 19.0022 16.6665 19.0097C16.7278 19.0182 16.7881 19.0325 16.8468 19.0522C16.8977 19.0693 16.9526 19.0943 17.2285 19.2323L20.5528 20.8944C20.8628 21.0494 21.2309 21.0329 21.5257 20.8507C21.8205 20.6684 22 20.3466 22 20V7.16144C22 6.6343 22 6.17954 21.9694 5.80498C21.9371 5.40963 21.8658 5.01641 21.673 4.63803C21.3854 4.07355 20.9265 3.61461 20.362 3.32698C19.9836 3.13419 19.5904 3.06287 19.195 3.03057C18.8205 2.99997 18.3657 2.99999 17.8385 3ZM12 9C12.5523 9 13 8.55229 13 8C13 7.44772 12.5523 7 12 7C11.4477 7 11 7.44772 11 8C11 8.55229 11.4477 9 12 9ZM12 10C11.4477 10 11 10.4477 11 11V14C11 14.5523 11.4477 15 12 15C12.5523 15 13 14.5523 13 14V11C13 10.4477 12.5523 10 12 10Z" fill="#0000CC"/>
<path fill-rule="evenodd" clip-rule="evenodd" d="M13 8C13 8.55229 12.5523 9 12 9C11.4477 9 11 8.55229 11 8C11 7.44772 11.4477 7 12 7C12.5523 7 13 7.44772 13 8ZM11 11C11 10.4477 11.4477 10 12 10C12.5523 10 13 10.4477 13 11V14C13 14.5523 12.5523 15 12 15C11.4477 15 11 14.5523 11 14V11Z" fill="#0000CC"/>
</svg>
