<svg width="24" height="24" viewBox="0 0 24 24" fill="none" xmlns="http://www.w3.org/2000/svg">
<path opacity="0.3" fill-rule="evenodd" clip-rule="evenodd" d="M2.48854 19.5616C2.42003 19.7356 2.35537 19.8997 2.30007 20.05C2.11727 20.5465 1.83618 21.0502 2.17263 21.5548C2.3581 21.8329 2.67039 22 3.00471 22H12.0039C17.5267 22 22.0039 17.5228 22.0039 12C22.0039 6.47715 17.5267 2 12.0039 2C6.48105 2 2.00391 6.47715 2.00391 12C2.00391 13.595 2.37798 15.1053 3.04425 16.4457C3.37301 17.3161 2.87068 18.5914 2.48854 19.5616Z" fill="#0000CC"/>
<path fill-rule="evenodd" clip-rule="evenodd" d="M12 8C12.2414 8 12.472 8.10129 12.6374 8.2799C13.1142 8.79494 13.7099 9.07553 14.3333 9.07553C14.3616 9.07553 14.3933 9.07587 14.4264 9.07623C14.4762 9.07676 14.529 9.07733 14.5779 9.07682C14.8168 9.06375 15.0506 9.15058 15.2248 9.31726C15.4004 9.48523 15.5 9.71939 15.5 9.96442V11.0204C15.5 13.299 14.2037 15.3561 12.2558 15.9612C12.0891 16.0129 11.9109 16.0129 11.7442 15.9612C9.79627 15.3561 8.5 13.299 8.5 11.0204L8.50014 9.96474C8.50019 9.71974 8.59978 9.48513 8.77538 9.31719C8.94957 9.15061 9.18325 9.0638 9.42197 9.07681C9.4709 9.07733 9.52363 9.07675 9.57337 9.0762C9.60647 9.07584 9.63824 9.07549 9.66667 9.07549C10.2901 9.07549 10.8858 8.7949 11.3626 8.2799C11.528 8.10128 11.7586 8 12 8Z" fill="#0000CC"/>
</svg>
