<svg width="24" height="24" viewBox="0 0 24 24" fill="none" xmlns="http://www.w3.org/2000/svg">
<path opacity="0.3" fill-rule="evenodd" clip-rule="evenodd" d="M2.48854 19.5616C2.42003 19.7356 2.35537 19.8997 2.30007 20.05C2.11727 20.5465 1.83618 21.0502 2.17263 21.5548C2.3581 21.8329 2.67039 22 3.00471 22H12.0039C17.5267 22 22.0039 17.5228 22.0039 12C22.0039 6.47715 17.5267 2 12.0039 2C6.48105 2 2.00391 6.47715 2.00391 12C2.00391 13.595 2.37798 15.1053 3.04425 16.4457C3.37301 17.3161 2.87068 18.5914 2.48854 19.5616Z" fill="#0000CC"/>
<path fill-rule="evenodd" clip-rule="evenodd" d="M8.86188 9.03393C9.8639 8.16157 11.1975 8.41783 11.9973 9.37051C12.797 8.41783 14.1134 8.17074 15.1326 9.03393C16.1519 9.89712 16.2757 11.3648 15.4888 12.3966C15.0209 13.0101 13.8748 14.1103 13.0226 14.9015C12.6708 15.228 12.4949 15.3913 12.2832 15.4575C12.102 15.5142 11.8925 15.5142 11.7114 15.4575C11.4996 15.3913 11.3237 15.228 10.9719 14.9015C10.1197 14.1103 8.97361 13.0101 8.50568 12.3966C7.71879 11.3648 7.85986 9.9063 8.86188 9.03393Z" fill="#0000CC"/>
</svg>
