<svg width="24" height="24" viewBox="0 0 24 24" fill="none" xmlns="http://www.w3.org/2000/svg">
<path opacity="0.3" fill-rule="evenodd" clip-rule="evenodd" d="M2.48854 19.5616C2.42003 19.7356 2.35537 19.8997 2.30007 20.05C2.11727 20.5465 1.83618 21.0502 2.17263 21.5548C2.3581 21.8329 2.67039 22 3.00471 22H12.0039C17.5267 22 22.0039 17.5228 22.0039 12C22.0039 6.47715 17.5267 2 12.0039 2C6.48105 2 2.00391 6.47715 2.00391 12C2.00391 13.595 2.37798 15.1053 3.04425 16.4457C3.37301 17.3161 2.87068 18.5914 2.48854 19.5616Z" fill="#0000CC"/>
<path fill-rule="evenodd" clip-rule="evenodd" d="M11.5 9.5C10.3954 9.5 9.5 10.3954 9.5 11.5C9.5 12.6046 10.3954 13.5 11.5 13.5C12.0526 13.5 12.5512 13.2772 12.9142 12.9142C13.2772 12.5512 13.5 12.0526 13.5 11.5C13.5 10.3954 12.6046 9.5 11.5 9.5ZM7.5 11.5C7.5 9.29086 9.29086 7.5 11.5 7.5C13.7091 7.5 15.5 9.29086 15.5 11.5C15.5 12.2414 15.2977 12.9364 14.946 13.5318L16.2071 14.7929C16.5976 15.1834 16.5976 15.8166 16.2071 16.2071C15.8166 16.5976 15.1834 16.5976 14.7929 16.2071L13.5318 14.946C12.9364 15.2977 12.2414 15.5 11.5 15.5C9.29086 15.5 7.5 13.7091 7.5 11.5Z" fill="#0000CC"/>
</svg>
