<svg width="24" height="24" viewBox="0 0 24 24" fill="none" xmlns="http://www.w3.org/2000/svg">
<path d="M12.7808 4H8.21924L8.52987 2.75746C8.64116 2.3123 9.04115 2 9.50002 2H11.5C11.9589 2 12.3589 2.3123 12.4702 2.75746L12.7808 4Z" fill="#0000CC"/>
<path d="M9 14C8.44772 14 8 14.4477 8 15C8 15.5523 8.44772 16 9 16H12C12.5523 16 13 15.5523 13 15C13 14.4477 12.5523 14 12 14H9Z" fill="#0000CC"/>
<path d="M7 17C6.44772 17 6 17.4477 6 18C6 18.5523 6.44772 19 7 19H14C14.5523 19 15 18.5523 15 18C15 17.4477 14.5523 17 14 17H7Z" fill="#0000CC"/>
<path opacity="0.3" d="M8 4C7.44772 4 7 4.44772 7 5V12C7 12.5523 7.44772 13 8 13H13C13.5523 13 14 12.5523 14 12V9.08296C16.8377 9.55904 19 12.027 19 15C19 17.0856 17.9365 18.9236 16.318 20H3C2.44772 20 2 20.4477 2 21C2 21.5523 2.44772 22 3 22H16.5913C16.6028 22.0002 16.6143 22.0002 16.6258 22H21C21.5523 22 22 21.5523 22 21C22 20.4477 21.5523 20 21 20H19.2452C20.3427 18.6309 21 16.8924 21 15C21 10.9204 17.9463 7.55399 14 7.06189V5C14 4.44772 13.5523 4 13 4H8Z" fill="#0000CC"/>
</svg>
