<svg width="24" height="24" viewBox="0 0 24 24" fill="none" xmlns="http://www.w3.org/2000/svg">
<path d="M17 12.786L8.09325 3.87923C9.00949 2.73373 10.4191 2 12 2C14.7614 2 17 4.23858 17 7V12.786Z" fill="#0000CC"/>
<path d="M7 13V8.41421L2.29289 3.70711C1.90237 3.31658 1.90237 2.68342 2.29289 2.29289C2.68342 1.90237 3.31658 1.90237 3.70711 2.29289L21.7071 20.2929C22.0976 20.6834 22.0976 21.3166 21.7071 21.7071C21.3166 22.0976 20.6834 22.0976 20.2929 21.7071L15.3224 16.7366C14.4391 17.5225 13.2753 18 12 18C9.23858 18 7 15.7614 7 13Z" fill="#0000CC"/>
<g opacity="0.3">
<path d="M16.7383 18.1525C15.4917 19.2996 13.8276 20 12 20C8.13401 20 5 16.866 5 13V12C5 11.4477 4.55228 11 4 11C3.44772 11 3 11.4477 3 12V13C3 17.9706 7.02944 22 12 22C14.3799 22 16.5441 21.0762 18.1535 19.5677L16.7383 18.1525Z" fill="#0000CC"/>
<path d="M18.8159 14.6019L20.4144 16.2003C20.7928 15.206 21 14.1272 21 13V12C21 11.4477 20.5523 11 20 11C19.4477 11 19 11.4477 19 12V13C19 13.5511 18.9363 14.0874 18.8159 14.6019Z" fill="#0000CC"/>
</g>
</svg>
