<svg width="24" height="24" viewBox="0 0 24 24" fill="none" xmlns="http://www.w3.org/2000/svg">
<path opacity="0.3" fill-rule="evenodd" clip-rule="evenodd" d="M4.45046 9.28503C4.39036 9.41488 4.35798 9.55789 4.35798 9.70506V11.4999C4.35798 12.5509 3.70916 13.4527 2.78653 13.8221C2.48724 13.9419 2.26408 14.1987 2.18712 14.5118C2.11017 14.8248 2.18886 15.1558 2.39848 15.4007C2.99728 16.1003 3.35798 17.0067 3.35798 17.9999C3.35798 18.8268 3.10817 19.5923 2.68005 20.2288C2.42659 20.6057 2.4589 21.106 2.75872 21.4471C3.05855 21.7882 3.55059 21.8845 3.95684 21.6815C4.82898 21.2456 5.81335 20.9999 6.85798 20.9999C7.81129 20.9999 8.71413 21.2045 9.52719 21.5713C10.008 21.7881 10.5745 21.5943 10.8217 21.1284C11.1412 20.5262 11.6105 20.015 12.1792 19.6447C12.7478 20.015 13.2171 20.5262 13.5366 21.1284C13.7838 21.5943 14.3503 21.7881 14.8311 21.5712C15.6441 21.2045 16.547 20.9999 17.5003 20.9999C18.5449 20.9999 19.5293 21.2456 20.4014 21.6814C20.8077 21.8844 21.2997 21.7882 21.5996 21.4471C21.8994 21.106 21.9317 20.6056 21.6782 20.2288C21.2501 19.5923 21.0003 18.8268 21.0003 17.9999C21.0003 17.0067 21.361 16.1003 21.9598 15.4007C22.1694 15.1558 22.2481 14.8248 22.1712 14.5117C22.0942 14.1987 21.871 13.9419 21.5717 13.8221C21.0484 13.6125 20.6132 13.2316 20.3344 12.7493C19.647 14.0804 18.4759 15.1213 17.0536 15.6393L17.9571 16.5429C18.3476 16.9334 18.3476 17.5666 17.9571 17.9571C17.5666 18.3476 16.9334 18.3476 16.5429 17.9571L15.2929 16.7071C15.0976 16.5118 15 16.2559 15 16C12.7765 16 10.8373 14.7906 9.80108 12.9967C7.38217 12.9179 5.3253 11.4074 4.45046 9.28503ZM9.95711 15.7071C10.3476 15.3166 10.3476 14.6834 9.95711 14.2929C9.56658 13.9023 8.93342 13.9023 8.54289 14.2929L7.29289 15.5429C6.90237 15.9334 6.90237 16.5666 7.29289 16.9571C7.68342 17.3476 8.31658 17.3476 8.70711 16.9571L9.95711 15.7071Z" fill="#0000CC"/>
<path d="M14.0547 4.07405C11.1901 4.52742 9 7.00795 9 10C9 10.6845 9.11487 11.3422 9.32602 11.9548C8.85884 11.8918 8.41123 11.7641 7.99314 11.5807C7.51147 11.3694 7.0701 11.0848 6.68294 10.7413C5.65206 9.82682 5 8.48892 5 7C5 4.23858 7.23858 2 10 2C11.6695 2 13.1467 2.81777 14.0547 4.07405Z" fill="#0000CC"/>
<path fill-rule="evenodd" clip-rule="evenodd" d="M10 10C10 7.23858 12.2386 5 15 5C17.7614 5 20 7.23858 20 10C20 12.7614 17.7614 15 15 15C14.7982 15 14.5987 14.988 14.4024 14.9646C13.5118 14.8582 12.693 14.5179 12.0104 14.008C10.792 13.0981 10 11.6414 10 10ZM14.0619 8.65443C14.2528 8.13617 14.8276 7.87078 15.3459 8.06165C15.8246 8.23796 16.2587 8.51692 16.618 8.87855C17.0073 9.27033 17.0052 9.90349 16.6134 10.2928C16.2216 10.682 15.5885 10.68 15.1992 10.2882C15.0452 10.1331 14.8593 10.0138 14.6547 9.93841C14.1364 9.74754 13.871 9.17268 14.0619 8.65443Z" fill="#0000CC"/>
</svg>
