<svg width="24" height="24" viewBox="0 0 24 24" fill="none" xmlns="http://www.w3.org/2000/svg">
<path opacity="0.3" fill-rule="evenodd" clip-rule="evenodd" d="M5.32698 3.63803C5 4.27976 5 5.11984 5 6.8V17.2C5 18.8802 5 19.7202 5.32698 20.362C5.6146 20.9265 6.07354 21.3854 6.63803 21.673C7.27976 22 8.11984 22 9.8 22H14.2C15.8802 22 16.7202 22 17.362 21.673C17.9265 21.3854 18.3854 20.9265 18.673 20.362C19 19.7202 19 18.8802 19 17.2V6.8C19 5.11984 19 4.27976 18.673 3.63803C18.3854 3.07354 17.9265 2.6146 17.362 2.32698C16.7202 2 15.8802 2 14.2 2H9.8C8.11984 2 7.27976 2 6.63803 2.32698C6.07354 2.6146 5.6146 3.07354 5.32698 3.63803Z" fill="#0000CC"/>
<path fill-rule="evenodd" clip-rule="evenodd" d="M14.7348 11.1783C15.1094 10.7725 15.0841 10.1398 14.6783 9.7652C14.2725 9.3906 13.6398 9.4159 13.2652 9.82173L11.2308 12.0257L10.7348 11.4884C10.3602 11.0826 9.72755 11.0573 9.32173 11.4319C8.9159 11.8065 8.8906 12.4391 9.2652 12.845L10.496 14.1783C10.6853 14.3834 10.9517 14.5 11.2308 14.5C11.5099 14.5 11.7763 14.3834 11.9656 14.1783L14.7348 11.1783Z" fill="#0000CC"/>
</svg>
