<svg width="24" height="24" viewBox="0 0 24 24" fill="none" xmlns="http://www.w3.org/2000/svg">
<path opacity="0.3" fill-rule="evenodd" clip-rule="evenodd" d="M14.3542 2.00001C13.5238 2.73295 13 3.80531 13 5V5.5C13 6.18167 13.1705 6.82352 13.4712 7.38521C13.1729 7.85138 13 8.4055 13 9C13 10.5744 14.2128 11.8655 15.7551 11.9901C16.3047 12.6096 17.1068 13 18 13C18.3506 13 18.6872 12.9398 19 12.8293V17.2C19 18.8802 19 19.7202 18.673 20.362C18.3854 20.9265 17.9265 21.3854 17.362 21.673C16.7202 22 15.8802 22 14.2 22H9.8C8.11984 22 7.27976 22 6.63803 21.673C6.07354 21.3854 5.6146 20.9265 5.32698 20.362C5 19.7202 5 18.8802 5 17.2V6.8C5 5.11984 5 4.27976 5.32698 3.63803C5.6146 3.07354 6.07354 2.6146 6.63803 2.32698C7.27976 2 8.11984 2 9.8 2L14.3542 2.00001Z" fill="#0000CC"/>
<path d="M18 2C17.4477 2 17 2.44771 17 3C15.8954 3 15 3.89543 15 5V5.5C15 6.60457 15.8954 7.5 17 7.5H18.75C18.8881 7.5 19 7.61193 19 7.75C19 7.88807 18.8881 8 18.75 8H16C15.4477 8 15 8.44772 15 9C15 9.55228 15.4477 10 16 10H17C17 10.5523 17.4477 11 18 11C18.5523 11 19 10.5523 19 10C20.1046 10 21 9.10457 21 8V7.5C21 6.39543 20.1046 5.5 19 5.5H17.25C17.1119 5.5 17 5.38807 17 5.25C17 5.11193 17.1119 5 17.25 5H20C20.5523 5 21 4.55229 21 4C21 3.44771 20.5523 3 20 3H19C19 2.44771 18.5523 2 18 2Z" fill="#0000CC"/>
<path d="M13 19C13 19.5523 12.5523 20 12 20C11.4477 20 11 19.5523 11 19C11 18.4477 11.4477 18 12 18C12.5523 18 13 18.4477 13 19Z" fill="#0000CC"/>
</svg>
