<svg width="24" height="24" viewBox="0 0 24 24" fill="none" xmlns="http://www.w3.org/2000/svg">
<path opacity="0.3" d="M10.7739 5C10.2989 4.46925 10.01 3.76836 10.01 3C10.01 2.64936 10.0702 2.31278 10.1807 2H6.8C5.11984 2 4.27976 2 3.63803 2.32698C3.07354 2.6146 2.6146 3.07354 2.32698 3.63803C2 4.27976 2 5.11984 2 6.8V17.2C2 18.8802 2 19.7202 2.32698 20.362C2.6146 20.9265 3.07354 21.3854 3.63803 21.673C4.27976 22 5.11984 22 6.8 22H11.2C12.8802 22 13.7202 22 14.362 21.673C14.9265 21.3854 15.3854 20.9265 15.673 20.362C16 19.7202 16 18.8802 16 17.2V13.8257C15.6313 13.6939 15.296 13.4921 15.01 13.2361C14.459 13.7293 13.7387 14 13 14C11.3431 14 10 12.6569 10 11C10 10.2289 10.2909 9.52584 10.7689 8.99442C10.2968 8.46433 10.01 7.76566 10.01 7C10.01 6.23164 10.2989 5.53076 10.7739 5Z" fill="#0000CC"/>
<path d="M20.0098 11C20.0098 7.13401 16.8758 4 13.0098 4C12.4575 4 12.0098 3.55229 12.0098 3C12.0098 2.44771 12.4575 2 13.0098 2C17.9803 2 22.0098 6.02944 22.0098 11C22.0098 11.5523 21.562 12 21.0098 12C20.4575 12 20.0098 11.5523 20.0098 11Z" fill="#0000CC"/>
<path d="M16.0098 11C16.0098 9.34315 14.6666 8 13.0098 8C12.4575 8 12.0098 7.55229 12.0098 7C12.0098 6.44771 12.4575 6 13.0098 6C15.7712 6 18.0098 8.23858 18.0098 11C18.0098 11.5523 17.562 12 17.0098 12C16.4575 12 16.0098 11.5523 16.0098 11Z" fill="#0000CC"/>
<path d="M10 19C10 19.5523 9.55229 20 9 20C8.44771 20 8 19.5523 8 19C8 18.4477 8.44771 18 9 18C9.55229 18 10 18.4477 10 19Z" fill="#0000CC"/>
<path d="M13 12C13.5523 12 14 11.5523 14 11C14 10.4477 13.5523 10 13 10C12.4477 10 12 10.4477 12 11C12 11.5523 12.4477 12 13 12Z" fill="#0000CC"/>
</svg>
