<svg width="24" height="24" viewBox="0 0 24 24" fill="none" xmlns="http://www.w3.org/2000/svg">
<path opacity="0.3" d="M10.614 4.21069C10.178 3.87162 9.54976 3.95016 9.21069 4.38611C8.87162 4.82205 8.95016 5.45033 9.38611 5.7894L16.0855 11L19.3431 11L10.614 4.21069Z" fill="#0000CC"/>
<path fill-rule="evenodd" clip-rule="evenodd" d="M19.4319 11C19.6843 11 19.9301 10.9999 20.1382 11.017C20.3668 11.0356 20.6366 11.0797 20.908 11.218C21.2843 11.4097 21.5903 11.7157 21.782 12.092C21.9203 12.3634 21.9644 12.6332 21.9831 12.8618C22.0001 13.0699 22 13.3157 22 13.5681L22 14.8386C22 15.3657 22 15.8205 21.9694 16.195C21.9371 16.5904 21.8658 16.9836 21.673 17.362C21.3854 17.9265 20.9265 18.3854 20.362 18.673C19.9836 18.8658 19.5904 18.9371 19.195 18.9694C18.8205 19 18.3657 19 17.8385 19H6.16145C5.63431 19 5.17955 19 4.80498 18.9694C4.40963 18.9371 4.01641 18.8658 3.63803 18.673C3.07355 18.3854 2.61461 17.9265 2.32699 17.362C2.13419 16.9836 2.06288 16.5904 2.03057 16.195C1.99997 15.8205 1.99999 15.3657 2 14.8385L2 13.5681C1.99997 13.3157 1.99994 13.0699 2.01695 12.8618C2.03563 12.6332 2.07969 12.3634 2.21799 12.092C2.40974 11.7157 2.7157 11.4097 3.09202 11.218C3.36345 11.0797 3.63318 11.0356 3.86178 11.017C4.06992 10.9999 4.31574 11 4.56811 11C7.12459 11.0003 9.68107 11.0002 12.2375 11.0001L19.4319 11ZM18 16C18.5523 16 19 15.5522 19 15C19 14.4477 18.5523 14 18 14C17.4477 14 17 14.4477 17 15C17 15.5522 17.4477 16 18 16Z" fill="#0000CC"/>
</svg>
