<svg width="24" height="24" viewBox="0 0 24 24" fill="none" xmlns="http://www.w3.org/2000/svg">
<path opacity="0.3" fill-rule="evenodd" clip-rule="evenodd" d="M14.8385 6H9.16146C8.63433 5.99998 8.17954 5.99997 7.80497 6.03057C7.40963 6.06287 7.01641 6.13419 6.63803 6.32698C6.07355 6.6146 5.6146 7.07354 5.32698 7.63803C5.13419 8.01641 5.06287 8.40963 5.03057 8.80497C4.99997 9.17954 4.99998 9.63428 5 10.1614V17.8385C4.99998 18.3657 4.99997 18.8205 5.03057 19.195C5.06287 19.5904 5.13419 19.9836 5.32698 20.362C5.6146 20.9265 6.07355 21.3854 6.63803 21.673C7.01641 21.8658 7.40963 21.9371 7.80497 21.9694C8.17952 22 8.63425 22 9.16136 22H14.8385C15.3656 22 15.8205 22 16.195 21.9694C16.5904 21.9371 16.9836 21.8658 17.362 21.673C17.9265 21.3854 18.3854 20.9265 18.673 20.362C18.8658 19.9836 18.9371 19.5904 18.9694 19.195C19 18.8205 19 18.3657 19 17.8386V10.1615C19 9.63433 19 9.17954 18.9694 8.80497C18.9371 8.40963 18.8658 8.01641 18.673 7.63803C18.3854 7.07354 17.9265 6.6146 17.362 6.32698C16.9836 6.13419 16.5904 6.06287 16.195 6.03057C15.8205 5.99997 15.3657 5.99998 14.8385 6Z" fill="#0000CC"/>
<path fill-rule="evenodd" clip-rule="evenodd" d="M12 15C13.6569 15 15 13.6569 15 12C15 10.3431 13.6569 9 12 9C10.3431 9 9 10.3431 9 12C9 13.6569 10.3431 15 12 15ZM16.75 17C16.8343 17 16.9177 17.0038 17 17.0112V17.8C17 18.3766 16.9992 18.7488 16.9761 19.0322C16.9539 19.3038 16.9162 19.4045 16.891 19.454C16.7951 19.6422 16.6422 19.7951 16.454 19.891C16.4045 19.9162 16.3038 19.9539 16.0322 19.9761C15.7488 19.9992 15.3765 20 14.8 20H14.0112C14.0038 19.9177 14 19.8343 14 19.75C14 18.2312 15.2312 17 16.75 17ZM7 17.0112C7.08234 17.0038 7.16571 17 7.25 17C8.7688 17 10 18.2312 10 19.75C10 19.8343 9.99622 19.9177 9.98877 20H9.20001C8.62347 20 8.25116 19.9992 7.96783 19.9761C7.69617 19.9539 7.59546 19.9162 7.54602 19.891C7.35785 19.7951 7.2049 19.6422 7.10901 19.454C7.0838 19.4045 7.04614 19.3038 7.02393 19.0322C7.00079 18.7488 7 18.3766 7 17.8V17.0112Z" fill="#0000CC"/>
<path d="M17.8385 2H6.16146C5.63433 1.99998 5.17954 1.99997 4.80497 2.03057C4.40963 2.06287 4.01641 2.13419 3.63803 2.32698C3.07354 2.6146 2.6146 3.07354 2.32698 3.63803C2.13419 4.01641 2.06287 4.40963 2.03057 4.80497C1.99997 5.17954 1.99998 5.63429 2 6.16142V6.83855C1.99998 7.36568 1.99997 7.82047 2.03057 8.19503C2.06287 8.59038 2.13419 8.98359 2.32698 9.36197C2.6146 9.92646 3.07354 10.3854 3.63803 10.673C3.99353 10.8542 4.3613 10.9278 4.73141 10.9629C4.81716 10.9711 4.90673 10.9774 5 10.9824V10.1614C4.99999 9.71381 4.99998 9.31839 5.01871 8.97995C4.98458 8.97756 4.95193 8.97489 4.92056 8.97191C4.68415 8.94945 4.59208 8.91448 4.54601 8.89101C4.35785 8.79514 4.20487 8.64216 4.109 8.45399C4.0838 8.40455 4.04613 8.30383 4.02393 8.03217C4.00078 7.74883 4 7.37656 4 6.8V6.2C4 5.62345 4.00078 5.25118 4.02393 4.96784C4.04613 4.69618 4.0838 4.59546 4.109 4.54601C4.20487 4.35785 4.35785 4.20487 4.54601 4.109C4.59546 4.0838 4.69618 4.04613 4.96784 4.02393C5.25118 4.00078 5.62345 4 6.2 4H17.8C18.3766 4 18.7488 4.00078 19.0322 4.02393C19.3038 4.04613 19.4045 4.0838 19.454 4.109C19.6422 4.20487 19.7951 4.35785 19.891 4.54601C19.9162 4.59546 19.9539 4.69618 19.9761 4.96784C19.9992 5.25118 20 5.62345 20 6.2V6.8C20 7.37656 19.9992 7.74883 19.9761 8.03217C19.9539 8.30383 19.9162 8.40455 19.891 8.45399C19.7951 8.64216 19.6422 8.79514 19.454 8.89101C19.4079 8.91448 19.3159 8.94945 19.0794 8.97191C19.0481 8.97489 19.0154 8.97756 18.9813 8.97995C19 9.3184 19 9.71384 19 10.1615V10.9824C19.0933 10.9774 19.1828 10.9711 19.2686 10.9629C19.6387 10.9278 20.0065 10.8542 20.362 10.673C20.9265 10.3854 21.3854 9.92646 21.673 9.36197C21.8658 8.98359 21.9371 8.59038 21.9694 8.19503C22 7.82046 22 7.36571 22 6.83857V6.16144C22 5.6343 22 5.17954 21.9694 4.80497C21.9371 4.40963 21.8658 4.01641 21.673 3.63803C21.3854 3.07355 20.9265 2.6146 20.362 2.32698C19.9836 2.13419 19.5904 2.06287 19.195 2.03057C18.8205 1.99997 18.3657 1.99998 17.8385 2Z" fill="#0000CC"/>
</svg>
