<svg width="24" height="24" viewBox="0 0 24 24" fill="none" xmlns="http://www.w3.org/2000/svg">
<path opacity="0.3" d="M6.16144 7C5.63433 6.99998 5.17953 6.99997 4.80498 7.03057C4.40963 7.06287 4.01641 7.13419 3.63803 7.32698C3.07355 7.6146 2.6146 8.07355 2.32698 8.63803C2.13419 9.01641 2.06287 9.40963 2.03057 9.80497C1.99997 10.1795 1.99999 10.6343 2 11.1614V11.1614V16.8386V16.8386C1.99999 17.3657 1.99997 17.8205 2.03057 18.195C2.06287 18.5904 2.13419 18.9836 2.32698 19.362C2.6146 19.9265 3.07355 20.3854 3.63803 20.673C4.01641 20.8658 4.40963 20.9371 4.80498 20.9694C5.17955 21 5.63431 21 6.16145 21H17.8385C18.3657 21 18.8205 21 19.195 20.9694C19.5904 20.9371 19.9836 20.8658 20.362 20.673C20.9265 20.3854 21.3854 19.9265 21.673 19.362C21.8658 18.9836 21.9371 18.5904 21.9694 18.195C22 17.8205 22 17.3657 22 16.8386V11.1614C22 10.6343 22 10.1795 21.9694 9.80497C21.9371 9.40963 21.8658 9.01641 21.673 8.63803C21.3854 8.07355 20.9265 7.6146 20.362 7.32698C19.9836 7.13419 19.5904 7.06287 19.195 7.03057C18.8205 6.99997 18.3657 6.99998 17.8386 7H17.8385H6.16146H6.16144Z" fill="#0000CC"/>
<path d="M11.1614 3H12.8385C13.3656 2.99998 13.8204 2.99997 14.195 3.03057C14.5903 3.06287 14.9836 3.13419 15.3619 3.32698C15.9264 3.6146 16.3854 4.07355 16.673 4.63803C16.8658 5.01641 16.9371 5.40963 16.9694 5.80498C16.9968 6.14075 16.9997 6.54097 16.9999 7H14.9999C14.9995 6.5349 14.9964 6.21699 14.976 5.96784C14.9538 5.69618 14.9162 5.59546 14.891 5.54601C14.7951 5.35785 14.6421 5.20487 14.454 5.109C14.4045 5.0838 14.3038 5.04613 14.0321 5.02393C13.7488 5.00078 13.3765 5 12.8 5H11.2C10.6234 5 10.2511 5.00078 9.96781 5.02393C9.69615 5.04613 9.59543 5.0838 9.54598 5.109C9.35782 5.20487 9.20484 5.35785 9.10897 5.54601C9.08377 5.59546 9.0461 5.69618 9.0239 5.96784C9.00354 6.21699 9.00049 6.5349 9.00004 7H7C7.00028 6.54097 7.00311 6.14075 7.03054 5.80498C7.06284 5.40963 7.13416 5.01641 7.32695 4.63803C7.61457 4.07355 8.07351 3.6146 8.638 3.32698C9.01638 3.13419 9.4096 3.06287 9.80494 3.03057C10.1795 2.99997 10.6343 2.99998 11.1614 3Z" fill="#0000CC"/>
<path d="M7 10C7 11.1046 6.10457 12 5 12C4.63571 12 4.29417 11.9026 4 11.7324V11.2C4 10.6234 4.00078 10.2512 4.02393 9.96784C4.04612 9.69617 4.0838 9.59545 4.10899 9.54601C4.20487 9.35785 4.35785 9.20487 4.54601 9.10899C4.59545 9.0838 4.69617 9.04612 4.96784 9.02393C5.25117 9.00078 5.62345 9 6.2 9H6.73244C6.90261 9.29417 7 9.63571 7 10Z" fill="#0000CC"/>
<path d="M6.2 19H6.73244C6.90261 18.7058 7 18.3643 7 18C7 16.8954 6.10457 16 5 16C4.63571 16 4.29417 16.0974 4 16.2676V16.8C4 17.3766 4.00078 17.7488 4.02393 18.0322C4.04612 18.3038 4.0838 18.4045 4.10899 18.454C4.20487 18.6422 4.35785 18.7951 4.54601 18.891C4.59545 18.9162 4.69617 18.9539 4.96784 18.9761C5.25117 18.9992 5.62345 19 6.2 19Z" fill="#0000CC"/>
<path d="M20 16.2676V16.8C20 17.3766 19.9992 17.7488 19.9761 18.0322C19.9539 18.3038 19.9162 18.4045 19.891 18.454C19.7951 18.6422 19.6422 18.7951 19.454 18.891C19.4045 18.9162 19.3038 18.9539 19.0322 18.9761C18.7488 18.9992 18.3766 19 17.8 19H17.2676C17.0974 18.7058 17 18.3643 17 18C17 16.8954 17.8954 16 19 16C19.3643 16 19.7058 16.0974 20 16.2676Z" fill="#0000CC"/>
<path d="M17.8 9H17.2676C17.0974 9.29417 17 9.63571 17 10C17 11.1046 17.8954 12 19 12C19.3643 12 19.7058 11.9026 20 11.7324V11.2C20 10.6234 19.9992 10.2512 19.9761 9.96784C19.9539 9.69617 19.9162 9.59545 19.891 9.54601C19.7951 9.35785 19.6422 9.20487 19.454 9.10899C19.4045 9.0838 19.3038 9.04612 19.0322 9.02393C18.7488 9.00078 18.3766 9 17.8 9Z" fill="#0000CC"/>
<path d="M12 17C13.6569 17 15 15.6569 15 14C15 12.3431 13.6569 11 12 11C10.3431 11 9 12.3431 9 14C9 15.6569 10.3431 17 12 17Z" fill="#0000CC"/>
</svg>
