<svg width="24" height="24" viewBox="0 0 24 24" fill="none" xmlns="http://www.w3.org/2000/svg">
<path opacity="0.3" d="M9.89306 3.69136C10.0417 3.31964 9.95431 2.89511 9.67095 2.6123C9.3876 2.3295 8.9629 2.24294 8.59147 2.39229C4.91719 3.8697 2.32031 7.4672 2.32031 11.6736C2.32031 17.1965 6.79746 21.6736 12.3203 21.6736C16.5298 21.6736 20.1295 19.073 21.6049 15.3944C21.754 15.0227 21.6669 14.5979 21.3836 14.3148C21.1004 14.0317 20.6755 13.9449 20.3039 14.0943C19.3811 14.4651 18.373 14.6736 17.3203 14.6736C12.902 14.6736 9.32031 11.0918 9.32031 6.67356C9.32031 5.62369 9.52626 4.60873 9.89306 3.69136Z" fill="#0000CC"/>
</svg>
