<svg width="24" height="24" viewBox="0 0 24 24" fill="none" xmlns="http://www.w3.org/2000/svg">
<path opacity="0.3" d="M17.9999 2C14.5849 2 11.5697 3.7118 9.76562 6.32415C11.4163 6.9001 12.733 8.19833 13.3214 9.85165C14.3747 10.8471 14.9999 12.2632 14.9999 13.7484C14.9999 16.3002 13.1794 18.4295 10.7638 18.9022C12.5849 20.8108 15.1535 22 17.9999 22C19.0896 22 20.1405 21.8253 21.125 21.5017C21.4957 21.3798 21.7617 21.0535 21.8062 20.6658C21.8507 20.2781 21.6656 19.9 21.3322 19.6972C18.7329 18.1169 16.9999 15.26 16.9999 12C16.9999 8.73926 18.7334 5.88243 21.3338 4.30236C21.6673 4.09973 21.8525 3.72163 21.808 3.33394C21.7636 2.94625 21.4978 2.61982 21.1271 2.49785C20.141 2.17341 19.0897 2 17.9999 2Z" fill="#0000CC"/>
<path d="M4.56976 9.88479C5.22785 8.78166 6.43762 8 7.84463 8C9.67175 8 11.2075 9.28098 11.5724 11.0004C12.4483 11.6075 13 12.6485 13 13.7484C13 15.5436 11.5456 17 9.75 17L5.7 17C3.66521 17 2 15.3631 2 13.3246C2 11.7779 3.02175 10.3645 4.56976 9.88479Z" fill="#0000CC"/>
</svg>
