<svg width="24" height="24" viewBox="0 0 24 24" fill="none" xmlns="http://www.w3.org/2000/svg">
<g opacity="0.3">
<path fill-rule="evenodd" clip-rule="evenodd" d="M1 16.5C1 14.0147 3.01472 12 5.5 12C7.98528 12 10 14.0147 10 16.5C10 18.9853 7.98528 21 5.5 21C3.01472 21 1 18.9853 1 16.5ZM5.5 14C4.11929 14 3 15.1193 3 16.5C3 17.8807 4.11929 19 5.5 19C6.88071 19 8 17.8807 8 16.5C8 15.1193 6.88071 14 5.5 14Z" fill="#0000CC"/>
<path fill-rule="evenodd" clip-rule="evenodd" d="M14 16.5C14 14.0147 16.0147 12 18.5 12C20.9853 12 23 14.0147 23 16.5C23 18.9853 20.9853 21 18.5 21C16.0147 21 14 18.9853 14 16.5ZM18.5 14C17.1193 14 16 15.1193 16 16.5C16 17.8807 17.1193 19 18.5 19C19.8807 19 21 17.8807 21 16.5C21 15.1193 19.8807 14 18.5 14Z" fill="#0000CC"/>
</g>
<path fill-rule="evenodd" clip-rule="evenodd" d="M12 4C12 3.44772 12.4477 3 13 3H15C15.4484 3 15.8421 3.29854 15.963 3.73037L16.3185 5H18C18 4.44772 18.4477 4 19 4C19.5523 4 20 4.44772 20 5V7C20 7.55228 19.5523 8 19 8C18.4477 8 18 7.55228 18 7H16.8785L19.463 16.2304C19.6119 16.7622 19.3015 17.3141 18.7696 17.463C18.2378 17.6119 17.6859 17.3015 17.537 16.7696L16.0784 11.5601C14.2546 12.4559 13 14.3324 13 16.5C13 17.0523 12.5523 17.5 12 17.5C11.4477 17.5 11 17.0523 11 16.5C11 13.4624 8.53757 11 5.5 11H2C1.44772 11 1 10.5523 1 10C1 9.44772 1.44772 9 2 9H5.5C6.72579 9 7.88289 9.29406 8.90461 9.8155L14.4144 5.61753L14.2415 5H13C12.4477 5 12 4.55228 12 4ZM14.9947 7.68979L10.6221 11.0214C11.1623 11.5267 11.6278 12.1109 12.0001 12.7558C12.8044 11.3626 14.0439 10.2523 15.5325 9.6103L14.9947 7.68979Z" fill="#0000CC"/>
<path d="M5.5 15C4.67157 15 4 15.6716 4 16.5C4 17.3284 4.67157 18 5.5 18C6.32843 18 7 17.3284 7 16.5C7 15.6716 6.32843 15 5.5 15Z" fill="#0000CC"/>
</svg>
