<svg width="24" height="24" viewBox="0 0 24 24" fill="none" xmlns="http://www.w3.org/2000/svg">
<path opacity="0.3" fill-rule="evenodd" clip-rule="evenodd" d="M11.8119 1.92222C9.36769 1.31117 7 3.15981 7 5.67924V15.6369C7 18.9495 9.53132 21.6709 12.7652 21.9723C12.8405 21.9904 12.9191 22 13 22H13.3631C17.5809 22 21 18.5809 21 14.3632V8.46115C21 5.96816 19.3033 3.79508 16.8847 3.19043L11.8119 1.92222ZM15 8C15 7.44772 14.5523 7 14 7C13.4477 7 13 7.44772 13 8V10C13 10.5523 13.4477 11 14 11C14.5523 11 15 10.5523 15 10V8Z" fill="#0000CC"/>
<path d="M14 7C14.5523 7 15 7.44772 15 8V10C15 10.5523 14.5523 11 14 11C13.4477 11 13 10.5523 13 10V8C13 7.44772 13.4477 7 14 7Z" fill="#0000CC"/>
<path d="M7 15.6369V7.41779C4.6352 8.85355 3 11.1781 3 13.9024C3 18.5807 7.70716 21.9969 12.9927 22C12.9144 21.9994 12.8382 21.9899 12.7652 21.9723C9.53131 21.6709 7 18.9495 7 15.6369Z" fill="#0000CC"/>
</svg>
