<svg width="24" height="24" viewBox="0 0 24 24" fill="none" xmlns="http://www.w3.org/2000/svg">
<g opacity="0.3">
<path d="M12.7071 2.29289C12.3166 1.90237 11.6834 1.90237 11.2929 2.29289L8.29289 5.29289C7.90237 5.68342 7.90237 6.31658 8.29289 6.70711C8.68342 7.09763 9.31658 7.09763 9.70711 6.70711L11 5.41421V9C11 9.55228 11.4477 10 12 10C12.5523 10 13 9.55228 13 9V5.41421L14.2929 6.70711C14.6834 7.09763 15.3166 7.09763 15.7071 6.70711C16.0976 6.31658 16.0976 5.68342 15.7071 5.29289L12.7071 2.29289Z" fill="#0000CC"/>
<path d="M11 15V18.5858L9.70711 17.2929C9.31658 16.9024 8.68342 16.9024 8.29289 17.2929C7.90237 17.6834 7.90237 18.3166 8.29289 18.7071L11.2929 21.7071C11.6834 22.0976 12.3166 22.0976 12.7071 21.7071L15.7071 18.7071C16.0976 18.3166 16.0976 17.6834 15.7071 17.2929C15.3166 16.9024 14.6834 16.9024 14.2929 17.2929L13 18.5858V15C13 14.4477 12.5523 14 12 14C11.4477 14 11 14.4477 11 15Z" fill="#0000CC"/>
</g>
<path fill-rule="evenodd" clip-rule="evenodd" d="M6.70711 8.29289C7.09763 8.68342 7.09763 9.31658 6.70711 9.70711L5.41421 11H9C9.55228 11 10 11.4477 10 12C10 12.5523 9.55228 13 9 13H5.41421L6.70711 14.2929C7.09763 14.6834 7.09763 15.3166 6.70711 15.7071C6.31658 16.0976 5.68342 16.0976 5.29289 15.7071L2.29289 12.7071C1.90237 12.3166 1.90237 11.6834 2.29289 11.2929L5.29289 8.29289C5.68342 7.90237 6.31658 7.90237 6.70711 8.29289ZM17.2929 8.29289C17.6834 7.90237 18.3166 7.90237 18.7071 8.29289L21.7071 11.2929C22.0976 11.6834 22.0976 12.3166 21.7071 12.7071L18.7071 15.7071C18.3166 16.0976 17.6834 16.0976 17.2929 15.7071C16.9024 15.3166 16.9024 14.6834 17.2929 14.2929L18.5858 13H15C14.4477 13 14 12.5523 14 12C14 11.4477 14.4477 11 15 11H18.5858L17.2929 9.70711C16.9024 9.31658 16.9024 8.68342 17.2929 8.29289Z" fill="#0000CC"/>
</svg>
