<svg width="24" height="24" viewBox="0 0 24 24" fill="none" xmlns="http://www.w3.org/2000/svg">
<path opacity="0.3" fill-rule="evenodd" clip-rule="evenodd" d="M2 5C2 4.44772 2.44772 4 3 4H21C21.5523 4 22 4.44772 22 5C22 5.55228 21.5523 6 21 6H3C2.44772 6 2 5.55228 2 5ZM9 10C9 9.44772 9.44772 9 10 9H21C21.5523 9 22 9.44772 22 10C22 10.5523 21.5523 11 21 11H10C9.44772 11 9 10.5523 9 10ZM9 14C9 13.4477 9.44772 13 10 13H21C21.5523 13 22 13.4477 22 14C22 14.5523 21.5523 15 21 15H10C9.44772 15 9 14.5523 9 14ZM21 20H3C2.44772 20 2 19.5523 2 19C2 18.4477 2.44772 18 3 18H21C21.5523 18 22 18.4477 22 19C22 19.5523 21.5523 20 21 20Z" fill="#0000CC"/>
<path d="M6.70711 8.29289C7.09763 8.68342 7.09763 9.31658 6.70711 9.70711L4.41421 12L6.70711 14.2929C7.09763 14.6834 7.09763 15.3166 6.70711 15.7071C6.31658 16.0976 5.68342 16.0976 5.29289 15.7071L2.29289 12.7071C1.90237 12.3166 1.90237 11.6834 2.29289 11.2929L5.29289 8.29289C5.68342 7.90237 6.31658 7.90237 6.70711 8.29289Z" fill="#0000CC"/>
</svg>
