<svg width="24" height="24" viewBox="0 0 24 24" fill="none" xmlns="http://www.w3.org/2000/svg">
<path opacity="0.3" d="M6.5458 4.10896C6.59524 4.08376 6.69596 4.04608 6.96762 4.02389C7.05435 4.0168 7.14941 4.01181 7.2561 4.0083L11.9998 10.3333L16.7436 4.0083C16.8502 4.01182 16.9453 4.01681 17.032 4.02389C17.3036 4.04608 17.4043 4.08376 17.4538 4.10896C17.6419 4.20483 17.7949 4.35781 17.8908 4.54597C17.916 4.59542 17.9537 4.69613 17.9759 4.9678C17.991 5.15272 17.9965 5.37553 17.9986 5.66828L13.2498 12L17.9986 18.3316C17.9965 18.6244 17.991 18.8472 17.9759 19.0321C17.9537 19.3038 17.916 19.4045 17.8908 19.454C17.7949 19.6421 17.6419 19.7951 17.4538 19.891C17.4043 19.9162 17.3036 19.9538 17.032 19.976C16.9453 19.9831 16.8502 19.9881 16.7436 19.9916L11.9998 13.6666L7.2561 19.9916C7.1494 19.9881 7.05435 19.9831 6.96762 19.976C6.69596 19.9538 6.59524 19.9162 6.5458 19.891C6.35764 19.7951 6.20466 19.6421 6.10878 19.454C6.08359 19.4045 6.04591 19.3038 6.02372 19.0321C6.00861 18.8472 6.00303 18.6245 6.00098 18.3318L10.7498 12L6.00098 5.66813C6.00303 5.37545 6.00861 5.15269 6.02372 4.9678C6.04591 4.69613 6.08359 4.59542 6.10878 4.54597C6.20466 4.35781 6.35764 4.20483 6.5458 4.10896Z" fill="#0000CC"/>
<path fill-rule="evenodd" clip-rule="evenodd" d="M8.16146 2H15.8385C16.3657 1.99998 16.8205 1.99997 17.195 2.03057C17.5904 2.06287 17.9836 2.13419 18.362 2.32698C18.9265 2.6146 19.3854 3.07354 19.673 3.63803C19.8658 4.01641 19.9371 4.40963 19.9694 4.80497C20 5.17955 20 5.63432 20 6.16148V17.8385C20 18.3657 20 18.8205 19.9694 19.195C19.9371 19.5904 19.8658 19.9836 19.673 20.362C19.3854 20.9265 18.9265 21.3854 18.362 21.673C17.9836 21.8658 17.5904 21.9371 17.195 21.9694C16.8205 22 16.3657 22 15.8386 22H8.16144C7.6343 22 7.17954 22 6.80497 21.9694C6.40963 21.9371 6.01641 21.8658 5.63803 21.673C5.07354 21.3854 4.6146 20.9265 4.32698 20.362C4.13419 19.9836 4.06287 19.5904 4.03057 19.195C3.99997 18.8205 3.99998 18.3657 4 17.8385V6.16146C3.99998 5.63431 3.99997 5.17955 4.03057 4.80497C4.06287 4.40963 4.13419 4.01641 4.32698 3.63803C4.6146 3.07354 5.07354 2.6146 5.63803 2.32698C6.01641 2.13419 6.40963 2.06287 6.80497 2.03057C7.17955 1.99997 7.63431 1.99998 8.16146 2ZM6.96784 4.02393C6.69617 4.04612 6.59546 4.0838 6.54601 4.109C6.35785 4.20487 6.20487 4.35785 6.109 4.54601C6.0838 4.59546 6.04612 4.69617 6.02393 4.96784C6.00078 5.25117 6 5.62345 6 6.2V17.8C6 18.3766 6.00078 18.7488 6.02393 19.0322C6.04612 19.3038 6.0838 19.4045 6.109 19.454C6.20487 19.6422 6.35785 19.7951 6.54601 19.891C6.59546 19.9162 6.69617 19.9539 6.96784 19.9761C7.25117 19.9992 7.62345 20 8.2 20H15.8C16.3766 20 16.7488 19.9992 17.0322 19.9761C17.3038 19.9539 17.4045 19.9162 17.454 19.891C17.6422 19.7951 17.7951 19.6422 17.891 19.454C17.9162 19.4045 17.9539 19.3038 17.9761 19.0322C17.9992 18.7488 18 18.3766 18 17.8V6.2C18 5.62345 17.9992 5.25117 17.9761 4.96784C17.9539 4.69617 17.9162 4.59546 17.891 4.54601C17.7951 4.35785 17.6422 4.20487 17.454 4.109C17.4045 4.0838 17.3038 4.04612 17.0322 4.02393C16.7488 4.00078 16.3766 4 15.8 4H8.2C7.62345 4 7.25117 4.00078 6.96784 4.02393Z" fill="#0000CC"/>
</svg>
