<svg width="24" height="24" viewBox="0 0 24 24" fill="none" xmlns="http://www.w3.org/2000/svg">
<path opacity="0.3" d="M7.32698 8.63803C7 9.27976 7 10.1198 7 11.8V16.2C7 17.8802 7 18.7202 7.32698 19.362C7.6146 19.9265 8.07354 20.3854 8.63803 20.673C9.27976 21 10.1198 21 11.8 21H12.2C13.8802 21 14.7202 21 15.362 20.673C15.9265 20.3854 16.3854 19.9265 16.673 19.362C17 18.7202 17 17.8802 17 16.2V11.8C17 10.1198 17 9.27976 16.673 8.63803C16.3854 8.07354 15.9265 7.6146 15.362 7.32698C14.7202 7 13.8802 7 12.2 7H11.8C10.1198 7 9.27976 7 8.63803 7.32698C8.07354 7.6146 7.6146 8.07354 7.32698 8.63803Z" fill="#0000CC"/>
<path d="M4 3C3.44772 3 3 3.44772 3 4C3 4.55228 3.44772 5 4 5H20C20.5523 5 21 4.55228 21 4C21 3.44772 20.5523 3 20 3H4Z" fill="#0000CC"/>
</svg>
