<svg width="24" height="24" viewBox="0 0 24 24" fill="none" xmlns="http://www.w3.org/2000/svg">
<path opacity="0.3" d="M12.8385 3H11.1615C10.6343 2.99998 10.1795 2.99997 9.80497 3.03057C9.40963 3.06287 9.01641 3.13419 8.63803 3.32698C8.07354 3.6146 7.6146 4.07354 7.32698 4.63803C7.13419 5.01641 7.06287 5.40963 7.03057 5.80497C6.99997 6.17954 6.99998 6.63429 7 7.16142V16.8385C6.99998 17.3657 6.99997 17.8205 7.03057 18.195C7.06287 18.5904 7.13419 18.9836 7.32698 19.362C7.6146 19.9265 8.07354 20.3854 8.63803 20.673C9.01641 20.8658 9.40963 20.9371 9.80497 20.9694C10.1795 21 10.6343 21 11.1614 21H12.8386C13.3657 21 13.8205 21 14.195 20.9694C14.5904 20.9371 14.9836 20.8658 15.362 20.673C15.9265 20.3854 16.3854 19.9265 16.673 19.362C16.8658 18.9836 16.9371 18.5904 16.9694 18.195C17 17.8205 17 17.3657 17 16.8386V7.16148C17 6.63433 17 6.17954 16.9694 5.80497C16.9371 5.40963 16.8658 5.01641 16.673 4.63803C16.3854 4.07354 15.9265 3.6146 15.362 3.32698C14.9836 3.13419 14.5904 3.06287 14.195 3.03057C13.8205 2.99997 13.3657 2.99998 12.8385 3Z" fill="#0000CC"/>
<path d="M17 13V11H20C20.5523 11 21 11.4477 21 12C21 12.5523 20.5523 13 20 13H17Z" fill="#0000CC"/>
<path d="M7 11V13H4C3.44772 13 3 12.5523 3 12C3 11.4477 3.44772 11 4 11H7Z" fill="#0000CC"/>
</svg>
