<svg width="24" height="24" viewBox="0 0 24 24" fill="none" xmlns="http://www.w3.org/2000/svg">
<g opacity="0.3">
<path d="M13.1522 4.23463C13 4.60218 13 5.06812 13 6C13 6.93188 13 7.39782 13.1522 7.76537C13.3552 8.25542 13.7446 8.64477 14.2346 8.84776C14.6022 9 15.0681 9 16 9H18C18.9319 9 19.3978 9 19.7654 8.84776C20.2554 8.64477 20.6448 8.25542 20.8478 7.76537C21 7.39782 21 6.93188 21 6C21 5.06812 21 4.60218 20.8478 4.23463C20.6448 3.74458 20.2554 3.35523 19.7654 3.15224C19.3978 3 18.9319 3 18 3H16C15.0681 3 14.6022 3 14.2346 3.15224C13.7446 3.35523 13.3552 3.74458 13.1522 4.23463Z" fill="#0000CC"/>
<path d="M3.15224 16.2346C3 16.6022 3 17.0681 3 18C3 18.9319 3 19.3978 3.15224 19.7654C3.35523 20.2554 3.74458 20.6448 4.23463 20.8478C4.60218 21 5.06812 21 6 21H8C8.93188 21 9.39782 21 9.76537 20.8478C10.2554 20.6448 10.6448 20.2554 10.8478 19.7654C11 19.3978 11 18.9319 11 18C11 17.0681 11 16.6022 10.8478 16.2346C10.6448 15.7446 10.2554 15.3552 9.76537 15.1522C9.39782 15 8.93188 15 8 15H6C5.06812 15 4.60218 15 4.23463 15.1522C3.74458 15.3552 3.35523 15.7446 3.15224 16.2346Z" fill="#0000CC"/>
</g>
<path d="M3.21799 4.09202C3 4.51984 3 5.0799 3 6.2V9.8C3 10.9201 3 11.4802 3.21799 11.908C3.40973 12.2843 3.71569 12.5903 4.09202 12.782C4.51984 13 5.0799 13 6.2 13H7.8C8.9201 13 9.48016 13 9.90798 12.782C10.2843 12.5903 10.5903 12.2843 10.782 11.908C11 11.4802 11 10.9201 11 9.8V6.2C11 5.0799 11 4.51984 10.782 4.09202C10.5903 3.71569 10.2843 3.40973 9.90798 3.21799C9.48016 3 8.9201 3 7.8 3H6.2C5.0799 3 4.51984 3 4.09202 3.21799C3.71569 3.40973 3.40973 3.71569 3.21799 4.09202Z" fill="#0000CC"/>
<path d="M13 14.2C13 13.0799 13 12.5198 13.218 12.092C13.4097 11.7157 13.7157 11.4097 14.092 11.218C14.5198 11 15.0799 11 16.2 11H17.8C18.9201 11 19.4802 11 19.908 11.218C20.2843 11.4097 20.5903 11.7157 20.782 12.092C21 12.5198 21 13.0799 21 14.2V17.8C21 18.9201 21 19.4802 20.782 19.908C20.5903 20.2843 20.2843 20.5903 19.908 20.782C19.4802 21 18.9201 21 17.8 21H16.2C15.0799 21 14.5198 21 14.092 20.782C13.7157 20.5903 13.4097 20.2843 13.218 19.908C13 19.4802 13 18.9201 13 17.8V14.2Z" fill="#0000CC"/>
</svg>
