<svg width="24" height="24" viewBox="0 0 24 24" fill="none" xmlns="http://www.w3.org/2000/svg">
<path opacity="0.3" d="M3.32698 8.63803C3 9.27976 3 10.1198 3 11.8V12.2C3 13.8802 3 14.7202 3.32698 15.362C3.6146 15.9265 4.07354 16.3854 4.63803 16.673C5.27976 17 6.11984 17 7.8 17H12.2C13.8802 17 14.7202 17 15.362 16.673C15.9265 16.3854 16.3854 15.9265 16.673 15.362C17 14.7202 17 13.8802 17 12.2V11.8C17 10.1198 17 9.27976 16.673 8.63803C16.3854 8.07354 15.9265 7.6146 15.362 7.32698C14.7202 7 13.8802 7 12.2 7H7.8C6.11984 7 5.27976 7 4.63803 7.32698C4.07354 7.6146 3.6146 8.07354 3.32698 8.63803Z" fill="#0000CC"/>
<path d="M20 3C19.4477 3 19 3.44772 19 4V20C19 20.5523 19.4477 21 20 21C20.5523 21 21 20.5523 21 20V4C21 3.44772 20.5523 3 20 3Z" fill="#0000CC"/>
</svg>
