<svg width="24" height="24" viewBox="0 0 24 24" fill="none" xmlns="http://www.w3.org/2000/svg">
<path opacity="0.3" d="M16.8385 7H7.16146C6.63433 6.99998 6.17954 6.99997 5.80497 7.03057C5.40963 7.06287 5.01641 7.13419 4.63803 7.32698C4.07354 7.6146 3.6146 8.07354 3.32698 8.63803C3.13419 9.01641 3.06287 9.40963 3.03057 9.80497C2.99997 10.1795 2.99998 10.6343 3 11.1614V12.8385C2.99998 13.3657 2.99997 13.8205 3.03057 14.195C3.06287 14.5904 3.13419 14.9836 3.32698 15.362C3.6146 15.9265 4.07354 16.3854 4.63803 16.673C5.01641 16.8658 5.40963 16.9371 5.80497 16.9694C6.17954 17 6.6343 17 7.16145 17H16.8385C17.3657 17 17.8205 17 18.195 16.9694C18.5904 16.9371 18.9836 16.8658 19.362 16.673C19.9265 16.3854 20.3854 15.9265 20.673 15.362C20.8658 14.9836 20.9371 14.5904 20.9694 14.195C21 13.8205 21 13.3657 21 12.8386V11.1614C21 10.6343 21 10.1795 20.9694 9.80497C20.9371 9.40963 20.8658 9.01641 20.673 8.63803C20.3854 8.07354 19.9265 7.6146 19.362 7.32698C18.9836 7.13419 18.5904 7.06287 18.195 7.03057C17.8205 6.99997 17.3657 6.99998 16.8385 7Z" fill="#0000CC"/>
<path d="M13 4C13 3.44772 12.5523 3 12 3C11.4477 3 11 3.44772 11 4V7H13V4Z" fill="#0000CC"/>
<path d="M11 17H13V20C13 20.5523 12.5523 21 12 21C11.4477 21 11 20.5523 11 20V17Z" fill="#0000CC"/>
</svg>
