<svg width="24" height="24" viewBox="0 0 24 24" fill="none" xmlns="http://www.w3.org/2000/svg">
<g opacity="0.3">
<path d="M6.56811 4C6.31573 3.99997 6.06993 3.99994 5.86178 4.01695C5.63318 4.03563 5.36345 4.07969 5.09202 4.21799C4.7157 4.40974 4.40974 4.7157 4.21799 5.09202C4.07969 5.36345 4.03563 5.63318 4.01695 5.86178C3.99994 6.06993 3.99997 6.31572 4 6.56809L4 8.4319C3.99997 8.68428 3.99994 8.93008 4.01695 9.13824C4.03563 9.36683 4.07969 9.63656 4.21799 9.90799C4.40974 10.2843 4.7157 10.5903 5.09202 10.782C5.36345 10.9203 5.63318 10.9644 5.86178 10.9831C6.06993 11.0001 6.31573 11 6.56811 11H17.4319C17.6843 11 17.9301 11.0001 18.1382 10.9831C18.3668 10.9644 18.6366 10.9203 18.908 10.782C19.2843 10.5903 19.5903 10.2843 19.782 9.90799C19.9203 9.63656 19.9644 9.36683 19.9831 9.13824C20.0001 8.93007 20 8.68428 20 8.43189V6.56812C20 6.31574 20.0001 6.06994 19.9831 5.86178C19.9644 5.63318 19.9203 5.36345 19.782 5.09202C19.5903 4.7157 19.2843 4.40974 18.908 4.21799C18.6366 4.07969 18.3668 4.03563 18.1382 4.01695C17.9301 3.99994 17.6843 3.99997 17.4319 4L6.56811 4Z" fill="#0000CC"/>
<path d="M9.56811 13C9.31574 13 9.06992 12.9999 8.86177 13.0169C8.63318 13.0356 8.36345 13.0797 8.09202 13.218C7.7157 13.4097 7.40974 13.7157 7.21799 14.092C7.07969 14.3634 7.03563 14.6332 7.01695 14.8618C6.99994 15.0699 6.99997 15.3157 7 15.5681V17.4319C6.99997 17.6843 6.99994 17.9301 7.01695 18.1382C7.03563 18.3668 7.07969 18.6366 7.21799 18.908C7.40974 19.2843 7.7157 19.5903 8.09202 19.782C8.36345 19.9203 8.63318 19.9644 8.86177 19.9831C9.06994 20.0001 9.31574 20 9.56812 20H14.4319C14.6843 20 14.9301 20.0001 15.1382 19.9831C15.3668 19.9644 15.6366 19.9203 15.908 19.782C16.2843 19.5903 16.5903 19.2843 16.782 18.908C16.9203 18.6366 16.9644 18.3668 16.9831 18.1382C17.0001 17.9301 17 17.6843 17 17.4319V15.5681C17 15.3157 17.0001 15.0699 16.9831 14.8618C16.9644 14.6332 16.9203 14.3634 16.782 14.092C16.5903 13.7157 16.2843 13.4097 15.908 13.218C15.6366 13.0797 15.3668 13.0356 15.1382 13.0169C14.9301 12.9999 14.6843 13 14.4319 13H9.56811Z" fill="#0000CC"/>
</g>
<path d="M13 3C13 2.44772 12.5523 2 12 2C11.4477 2 11 2.44772 11 3V4H13V3Z" fill="#0000CC"/>
<path d="M11 11H13V13H11V11Z" fill="#0000CC"/>
<path d="M11 20V21C11 21.5523 11.4477 22 12 22C12.5523 22 13 21.5523 13 21V20H11Z" fill="#0000CC"/>
</svg>
