<svg width="24" height="24" viewBox="0 0 24 24" fill="none" xmlns="http://www.w3.org/2000/svg">
<g opacity="0.3">
<path d="M2 7.2C2 6.0799 2 5.51984 2.21799 5.09202C2.40973 4.71569 2.71569 4.40973 3.09202 4.21799C3.51984 4 4.0799 4 5.2 4H14.8C15.9201 4 16.4802 4 16.908 4.21799C17.2843 4.40973 17.5903 4.71569 17.782 5.09202C18 5.51984 18 6.0799 18 7.2V7.8C18 8.9201 18 9.48016 17.782 9.90798C17.5903 10.2843 17.2843 10.5903 16.908 10.782C16.4802 11 15.9201 11 14.8 11H5.2C4.0799 11 3.51984 11 3.09202 10.782C2.71569 10.5903 2.40973 10.2843 2.21799 9.90798C2 9.48016 2 8.9201 2 7.8V7.2Z" fill="#0000CC"/>
<path d="M8 16.2C8 15.0799 8 14.5198 8.21799 14.092C8.40973 13.7157 8.71569 13.4097 9.09202 13.218C9.51984 13 10.0799 13 11.2 13H14.8C15.9201 13 16.4802 13 16.908 13.218C17.2843 13.4097 17.5903 13.7157 17.782 14.092C18 14.5198 18 15.0799 18 16.2V16.8C18 17.9201 18 18.4802 17.782 18.908C17.5903 19.2843 17.2843 19.5903 16.908 19.782C16.4802 20 15.9201 20 14.8 20H11.2C10.0799 20 9.51984 20 9.09202 19.782C8.71569 19.5903 8.40973 19.2843 8.21799 18.908C8 18.4802 8 17.9201 8 16.8V16.2Z" fill="#0000CC"/>
</g>
<path d="M21 2C20.4477 2 20 2.44772 20 3V21C20 21.5523 20.4477 22 21 22C21.5523 22 22 21.5523 22 21V3C22 2.44772 21.5523 2 21 2Z" fill="#0000CC"/>
</svg>
