<svg width="24" height="24" viewBox="0 0 24 24" fill="none" xmlns="http://www.w3.org/2000/svg">
<path opacity="0.3" fill-rule="evenodd" clip-rule="evenodd" d="M11.531 2.20197C11.8419 2.15273 12.1586 2.15273 12.4696 2.20197C12.8235 2.25803 13.1548 2.39563 13.5306 2.55169C13.556 2.56225 13.5817 2.5729 13.6075 2.58362L17.5223 4.20517C17.5482 4.21589 17.5738 4.22649 17.5993 4.23701C17.9754 4.39237 18.3069 4.52935 18.5968 4.73998C18.8515 4.92501 19.0755 5.14899 19.2605 5.40367C19.4712 5.69358 19.6081 6.02515 19.7635 6.40121C19.774 6.42667 19.7846 6.45233 19.7953 6.4782L21.4169 10.393C21.4276 10.4188 21.4383 10.4445 21.4488 10.4699C21.6049 10.8457 21.7425 11.177 21.7985 11.531C21.8478 11.8419 21.8478 12.1586 21.7985 12.4696C21.7425 12.8235 21.6049 13.1548 21.4488 13.5306C21.4383 13.556 21.4276 13.5817 21.4169 13.6075L19.7953 17.5223C19.7846 17.5482 19.774 17.5738 19.7635 17.5993C19.6081 17.9754 19.4712 18.3069 19.2605 18.5968C19.0755 18.8515 18.8515 19.0755 18.5968 19.2605C18.3069 19.4712 17.9754 19.6081 17.5993 19.7635C17.5738 19.774 17.5482 19.7846 17.5223 19.7953L13.6075 21.4169C13.5817 21.4276 13.556 21.4382 13.5306 21.4488C13.1548 21.6049 12.8235 21.7425 12.4696 21.7985C12.1586 21.8478 11.8419 21.8478 11.531 21.7985C11.177 21.7425 10.8457 21.6049 10.4699 21.4488C10.4445 21.4383 10.4189 21.4276 10.393 21.4169L6.4782 19.7953C6.45233 19.7846 6.42667 19.774 6.40121 19.7635C6.02515 19.6081 5.69358 19.4712 5.40367 19.2605C5.14899 19.0755 4.92501 18.8515 4.73998 18.5968C4.52935 18.3069 4.39237 17.9754 4.237 17.5993C4.22649 17.5738 4.21589 17.5482 4.20517 17.5223L2.58362 13.6075C2.5729 13.5817 2.56225 13.556 2.55169 13.5306C2.39563 13.1548 2.25803 12.8235 2.20197 12.4696C2.15273 12.1586 2.15273 11.8419 2.20197 11.531C2.25803 11.177 2.39563 10.8457 2.55169 10.4699C2.56225 10.4445 2.5729 10.4188 2.58362 10.393L4.20517 6.4782C4.21589 6.45233 4.22649 6.42667 4.23701 6.40121C4.39237 6.02515 4.52935 5.69358 4.73998 5.40367C4.92501 5.14899 5.14899 4.92501 5.40367 4.73998C5.69358 4.52935 6.02515 4.39237 6.40121 4.23701C6.42667 4.22649 6.45233 4.21589 6.4782 4.20517L10.393 2.58362C10.4189 2.5729 10.4445 2.56225 10.4699 2.55169C10.8457 2.39563 11.177 2.25803 11.531 2.20197Z" fill="#0000CC"/>
<path d="M13 8C13 7.44772 12.5523 7 12 7C11.4477 7 11 7.44772 11 8V13C11 13.5523 11.4477 14 12 14C12.5523 14 13 13.5523 13 13V8Z" fill="#0000CC"/>
<path d="M12 17C12.5523 17 13 16.5523 13 16C13 15.4477 12.5523 15 12 15C11.4477 15 11 15.4477 11 16C11 16.5523 11.4477 17 12 17Z" fill="#0000CC"/>
</svg>
