<svg width="24" height="24" viewBox="0 0 24 24" fill="none" xmlns="http://www.w3.org/2000/svg">
<path opacity="0.3" fill-rule="evenodd" clip-rule="evenodd" d="M12.3699 2.15247C12.1262 2.10674 11.8761 2.10673 11.6323 2.15245C11.3509 2.20525 11.0959 2.33373 10.8933 2.43583L10.8384 2.46343L4.43773 5.66347L4.36994 5.69715C4.12257 5.81965 3.81167 5.97361 3.5716 6.21872C3.47532 6.31702 3.38973 6.42469 3.316 6.53987C3.23087 6.67285 3.16152 6.81585 3.10972 6.96603C2.99784 7.29036 2.99916 7.6373 3.00021 7.91333L3.0004 7.98902V16.0112L3.00021 16.0869C2.99916 16.363 2.99784 16.7099 3.10972 17.0342C3.20639 17.3145 3.36416 17.5698 3.5716 17.7815C3.81167 18.0266 4.12257 18.1806 4.36994 18.3031L4.43773 18.3368L10.8384 21.5368L10.8933 21.5644C11.0959 21.6665 11.3509 21.795 11.6323 21.8478C11.7538 21.8706 11.8768 21.882 11.9998 21.8821C12.1237 21.8822 12.2476 21.8707 12.3699 21.8478C12.6514 21.795 12.9064 21.6665 13.109 21.5643L13.1639 21.5367L14.7681 20.7345C14.1942 20.2157 13.5273 19.5839 13.119 19.0834C11.3526 16.9187 11.7347 13.8403 13.8615 12.1097C15.315 10.9269 17.0289 10.7656 18.4976 11.2526C19.2889 10.9917 20.1489 10.9217 21.0004 11.0934V7.98895L21.0006 7.91326C21.0016 7.63725 21.003 7.29034 20.8911 6.96602C20.8393 6.81585 20.77 6.67286 20.6849 6.5399C20.6111 6.42471 20.5256 6.31704 20.4293 6.21874C20.1892 5.97364 19.8784 5.81966 19.631 5.69716L19.5632 5.66348L13.1639 2.46351L13.109 2.43591C12.9064 2.3338 12.6514 2.20529 12.3699 2.15247ZM11.9966 4.12404C11.9439 4.147 11.8728 4.18215 11.7325 4.2523L6.23633 7.00015L8.00019 7.88208L13.7644 4.99999L12.2692 4.25232C12.1288 4.18215 12.0578 4.14701 12.005 4.12404L12.0008 4.12222L11.9966 4.12404ZM16.0003 6.11807L10.2363 9.00011L12.0002 9.88208L17.7642 7.00008L16.0003 6.11807ZM7.94739 11.8557C7.45341 11.6087 6.85274 11.8089 6.60575 12.3029C6.35876 12.7969 6.55899 13.3976 7.05297 13.6445L8.05297 14.1445C8.54694 14.3915 9.14762 14.1913 9.39461 13.6973C9.6416 13.2034 9.44137 12.6027 8.94739 12.3557L7.94739 11.8557Z" fill="#0000CC"/>
<path d="M8 7.88209L13.7642 5L16.0001 6.11808L10.2361 9.00012L8 7.88209Z" fill="#0000CC"/>
<path d="M7.94743 11.8557C7.45345 11.6087 6.85278 11.8089 6.60579 12.3029C6.3588 12.7969 6.55903 13.3976 7.05301 13.6446L8.05301 14.1446C8.54698 14.3915 9.14766 14.1913 9.39465 13.6973C9.64164 13.2034 9.44141 12.6027 8.94743 12.3557L7.94743 11.8557Z" fill="#0000CC"/>
<path fill-rule="evenodd" clip-rule="evenodd" d="M21.862 13.6524C20.7969 12.8093 19.495 12.84 18.4973 13.4327C17.4977 12.8392 16.184 12.7977 15.1233 13.6608C13.8298 14.7133 13.6202 16.5347 14.668 17.8188C15.0739 18.3163 15.9043 19.075 16.567 19.6595C16.9117 19.9636 17.2338 20.2402 17.4696 20.4407C17.5876 20.541 17.6842 20.6226 17.7516 20.6792L17.8298 20.7447L17.8582 20.7684C18.2288 21.0768 18.7675 21.0764 19.1382 20.7679L19.166 20.7447L19.2442 20.6792C19.3116 20.6226 19.4082 20.541 19.5262 20.4407C19.762 20.2402 20.0841 19.9636 20.4288 19.6595C21.0915 19.075 21.9219 18.3163 22.3278 17.8188C23.3662 16.5462 23.1951 14.7076 21.862 13.6524ZM19.1057 18.1597C18.8886 18.3512 18.6802 18.5319 18.4979 18.6886C18.3155 18.5319 18.1072 18.3512 17.89 18.1597C17.1973 17.5486 16.5001 16.9007 16.2176 16.5544C15.8883 16.1509 15.9255 15.5865 16.3856 15.2121C16.7854 14.8868 17.3534 14.934 17.7539 15.3799C17.9436 15.5911 18.214 15.7117 18.4979 15.7117C18.7817 15.7117 19.0522 15.5911 19.2419 15.3799C19.6351 14.9421 20.1953 14.8838 20.6207 15.2205C21.0713 15.5772 21.1169 16.1393 20.7782 16.5544C20.4957 16.9007 19.7985 17.5486 19.1057 18.1597Z" fill="#0000CC"/>
</svg>
