<svg width="24" height="24" viewBox="0 0 24 24" fill="none" xmlns="http://www.w3.org/2000/svg">
<path opacity="0.3" fill-rule="evenodd" clip-rule="evenodd" d="M12.3699 2.15235C12.1262 2.10661 11.8761 2.10661 11.6323 2.15233C11.3509 2.20512 11.0959 2.33361 10.8933 2.43571L10.8384 2.46331L4.43773 5.66335L4.36994 5.69703C4.12257 5.81953 3.81167 5.97349 3.5716 6.21859C3.47532 6.31689 3.38973 6.42456 3.316 6.53975C3.23087 6.67272 3.16152 6.81573 3.10972 6.9659C2.99784 7.29024 2.99916 7.63717 3.00021 7.91321L3.0004 7.9889V16.0111L3.00021 16.0868C2.99916 16.3628 2.99784 16.7098 3.10972 17.0341C3.20639 17.3144 3.36416 17.5696 3.5716 17.7814C3.81167 18.0265 4.12257 18.1805 4.36994 18.303L4.43773 18.3367L10.8384 21.5367L10.8933 21.5643C11.0959 21.6664 11.3509 21.7949 11.6323 21.8477C11.7538 21.8705 11.8768 21.8819 11.9998 21.882C12.1237 21.8821 12.2476 21.8706 12.3699 21.8477C12.6514 21.7948 12.9064 21.6663 13.109 21.5642L13.1639 21.5366L14.7489 20.744C14.6652 20.6362 14.5838 20.5277 14.5052 20.4189C13.7638 19.3919 13 17.9756 13 16.2C13 12.9612 15.5068 10 19 10C19.7121 10 20.3832 10.1231 21.0004 10.3464V7.98882L21.0006 7.91314C21.0016 7.63712 21.003 7.29022 20.8911 6.9659C20.8393 6.81573 20.77 6.67274 20.6849 6.53977C20.6111 6.42459 20.5256 6.31692 20.4293 6.21862C20.1892 5.97352 19.8784 5.81954 19.631 5.69703L19.5632 5.66335L13.1639 2.46339L13.109 2.43579C12.9064 2.33368 12.6514 2.20517 12.3699 2.15235ZM11.9966 4.12392C11.9439 4.14688 11.8728 4.18202 11.7325 4.25218L6.23633 7.00003L8.00019 7.88196L13.7644 4.99987L12.2692 4.2522C12.1288 4.18203 12.0578 4.14688 12.005 4.12392L12.0008 4.1221L11.9966 4.12392ZM16.0003 6.11795L10.2363 8.99999L12.0002 9.88196L17.7642 6.99996L16.0003 6.11795ZM7.94739 11.8556C7.45341 11.6086 6.85274 11.8088 6.60575 12.3028C6.35876 12.7968 6.55899 13.3974 7.05297 13.6444L8.05297 14.1444C8.54694 14.3914 9.14762 14.1912 9.39461 13.6972C9.6416 13.2032 9.44137 12.6026 8.94739 12.3556L7.94739 11.8556Z" fill="#0000CC"/>
<path d="M8 7.88197L13.7642 4.99988L16.0001 6.11796L10.2361 9L8 7.88197Z" fill="#0000CC"/>
<path d="M7.94743 11.8556C7.45345 11.6086 6.85278 11.8088 6.60579 12.3028C6.3588 12.7968 6.55903 13.3974 7.05301 13.6444L8.05301 14.1444C8.54698 14.3914 9.14766 14.1912 9.39465 13.6972C9.64164 13.2032 9.44141 12.6026 8.94743 12.3556L7.94743 11.8556Z" fill="#0000CC"/>
<path fill-rule="evenodd" clip-rule="evenodd" d="M15 16.2C15 13.9422 16.731 12 19 12C21.269 12 23 13.9422 23 16.2C23 17.381 22.4954 18.3864 21.8733 19.2481C21.3584 19.9612 20.6989 20.6583 20.0743 21.3185L20.0735 21.3193C19.9572 21.4422 19.8422 21.5638 19.7295 21.6839C19.5405 21.8856 19.2764 22 19 22C18.7236 22 18.4595 21.8856 18.2705 21.6839C18.1577 21.5637 18.0427 21.4421 17.9264 21.3191L17.9255 21.3183C17.3009 20.6581 16.6416 19.9612 16.1267 19.2481C15.5046 18.3864 15 17.381 15 16.2ZM17 16C17 14.8954 17.891 14 18.99 14H19.01C20.109 14 21 14.8954 21 16C21 17.1046 20.109 18 19.01 18H18.99C17.891 18 17 17.1046 17 16Z" fill="#0000CC"/>
</svg>
