<svg width="24" height="24" viewBox="0 0 24 24" fill="none" xmlns="http://www.w3.org/2000/svg">
<path opacity="0.3" d="M16.9909 7.00004C16.9999 6.73653 16.9999 6.41443 16.9999 5.99998C16.9999 5.58557 16.9999 5.2635 16.9909 5C17.4537 5.00025 17.857 5.00293 18.195 5.03055C18.5903 5.06285 18.9835 5.13416 19.3619 5.32696C19.9264 5.61458 20.3853 6.07352 20.673 6.63801C20.8658 7.01639 20.9371 7.4096 20.9694 7.80495C21 8.17952 21 8.63428 20.9999 9.16142V9.8385C21 10.3656 21 10.8204 20.9694 11.195C20.9371 11.5904 20.8658 11.9836 20.673 12.3619C20.3853 12.9264 19.9264 13.3854 19.3619 13.673C18.9835 13.8658 18.5903 13.9371 18.195 13.9694C17.8204 14 17.3656 14 16.8385 14H13.9999C13.5203 14 13.2107 14.0005 12.9737 14.0167C12.7457 14.0322 12.6589 14.0589 12.6173 14.0761C12.3722 14.1776 12.1776 14.3723 12.0761 14.6173C12.0588 14.6589 12.0322 14.7457 12.0167 14.9737C12.0157 14.987 12.0149 15.0004 12.0141 15.0141C11.7489 15 11.4223 15 10.9999 15C10.5912 15 10.2722 15 10.0117 15.0128C10.0143 14.9523 10.0175 14.8939 10.0213 14.8376C10.0438 14.5078 10.0933 14.1779 10.2283 13.8519C10.5328 13.1168 11.1168 12.5328 11.8519 12.2283C12.1778 12.0933 12.5077 12.0438 12.8376 12.0213C13.1508 12 13.5293 12 13.968 12L16.7999 12C17.3765 12 17.7488 11.9992 18.0321 11.976C18.3038 11.9539 18.4045 11.9162 18.4539 11.891C18.6421 11.7951 18.7951 11.6421 18.8909 11.454C18.9161 11.4045 18.9538 11.3038 18.976 11.0321C18.9992 10.7488 18.9999 10.3765 18.9999 9.79998V9.19998C18.9999 8.62342 18.9992 8.25115 18.976 7.96781C18.9538 7.69615 18.9161 7.59543 18.8909 7.54599C18.7951 7.35782 18.6421 7.20484 18.4539 7.10897C18.4045 7.08378 18.3038 7.0461 18.0321 7.0239C17.7813 7.00342 17.4609 7.00045 16.9909 7.00004Z" fill="#0000CC"/>
<path d="M3.10222 4.22354C3 4.60504 3 5.07003 3 6C3 6.92997 3 7.39496 3.10222 7.77646C3.37962 8.81173 4.18827 9.62038 5.22354 9.89778C5.60504 10 6.07003 10 7 10H13C13.93 10 14.395 10 14.7765 9.89778C15.8117 9.62038 16.6204 8.81173 16.8978 7.77646C17 7.39496 17 6.92997 17 6C17 5.07003 17 4.60504 16.8978 4.22354C16.6204 3.18827 15.8117 2.37962 14.7765 2.10222C14.395 2 13.93 2 13 2H7C6.07003 2 5.60504 2 5.22354 2.10222C4.18827 2.37962 3.37962 3.18827 3.10222 4.22354Z" fill="#0000CC"/>
<path d="M8.15224 16.2346C8 16.6022 8 17.0681 8 18V19C8 19.9319 8 20.3978 8.15224 20.7654C8.35523 21.2554 8.74458 21.6448 9.23463 21.8478C9.60218 22 10.0681 22 11 22C11.9319 22 12.3978 22 12.7654 21.8478C13.2554 21.6448 13.6448 21.2554 13.8478 20.7654C14 20.3978 14 19.9319 14 19V18C14 17.0681 14 16.6022 13.8478 16.2346C13.6448 15.7446 13.2554 15.3552 12.7654 15.1522C12.3978 15 11.9319 15 11 15C10.0681 15 9.60218 15 9.23463 15.1522C8.74458 15.3552 8.35523 15.7446 8.15224 16.2346Z" fill="#0000CC"/>
</svg>
