<svg width="24" height="24" viewBox="0 0 24 24" fill="none" xmlns="http://www.w3.org/2000/svg">
<path opacity="0.3" fill-rule="evenodd" clip-rule="evenodd" d="M10.3333 4C9.04467 4 8 5.04467 8 6.33333V16C8 18.2091 9.79086 20 12 20C14.2091 20 16 18.2091 16 16V5.93023C16 5.37795 16.4477 4.93023 17 4.93023C17.5523 4.93023 18 5.37795 18 5.93023V16C18 19.3137 15.3137 22 12 22C8.68629 22 6 19.3137 6 16V6.33333C6 3.9401 7.9401 2 10.3333 2C12.7266 2 14.6667 3.9401 14.6667 6.33333V15.9845C14.6667 17.4573 13.4728 18.6512 12 18.6512C10.5272 18.6512 9.33333 17.4573 9.33333 15.9845V6.5C9.33333 5.94772 9.78105 5.5 10.3333 5.5C10.8856 5.5 11.3333 5.94772 11.3333 6.5V15.9845C11.3333 16.3527 11.6318 16.6512 12 16.6512C12.3682 16.6512 12.6667 16.3527 12.6667 15.9845V6.33333C12.6667 5.04467 11.622 4 10.3333 4Z" fill="#0000CC"/>
</svg>
