<svg width="24" height="24" viewBox="0 0 24 24" fill="none" xmlns="http://www.w3.org/2000/svg">
<path d="M7.77782 9.15082C7.53276 8.90576 7.17827 8.80505 6.84096 8.88468C6.50366 8.96431 6.23163 9.21291 6.12203 9.5417L5.08038 12.6667L11.3331 18.9193L14.458 17.8777C14.7868 17.7681 15.0354 17.4961 15.115 17.1588C15.1947 16.8214 15.094 16.467 14.8489 16.2219L7.77782 9.15082Z" fill="#0000CC"/>
<path d="M2.5865 20.1483L4.37328 14.788L9.21174 19.6264L3.85141 21.4132C3.49208 21.533 3.09591 21.4395 2.82808 21.1716C2.56024 20.9038 2.46672 20.5076 2.5865 20.1483Z" fill="#0000CC"/>
<g opacity="0.3">
<path d="M11.9632 3.23038C11.7993 2.70297 11.2389 2.40828 10.7115 2.57216C10.1841 2.73605 9.88939 3.29646 10.0533 3.82387C10.2484 4.45169 10.2324 4.90248 10.1284 5.28361C10.0171 5.69214 9.78553 6.09514 9.42119 6.61038C9.10233 7.06132 9.20939 7.68536 9.66032 8.00423C10.1113 8.3231 10.7353 8.21604 11.0542 7.7651C11.4522 7.20228 11.8518 6.56626 12.058 5.80964C12.2718 5.02562 12.2599 4.18512 11.9632 3.23038Z" fill="#0000CC"/>
<path d="M17.3746 5.38635C17.4319 5.21022 17.5464 5.0319 17.7581 4.89105C17.9724 4.74849 18.3489 4.60357 18.9904 4.60948C19.5427 4.61457 19.9945 4.17101 19.9996 3.61874C20.0047 3.06648 19.5611 2.61466 19.0088 2.60957C18.0552 2.60078 17.2647 2.81716 16.6504 3.22583C16.0334 3.63623 15.6575 4.1991 15.4726 4.76808C15.3812 5.04906 15.3468 5.35415 15.3263 5.59816C15.3168 5.71107 15.3059 5.88229 15.2956 6.04402C15.2876 6.16907 15.28 6.28885 15.2737 6.37116C15.2333 6.89704 15.1632 7.30909 15.0057 7.61704C14.769 8.07974 13.958 8.56602 12.6262 8.60722C12.0741 8.6243 11.6405 9.08564 11.6576 9.63766C11.6746 10.1897 12.136 10.6233 12.688 10.6063C14.2827 10.5569 16.0492 9.96866 16.7862 8.52791C17.1379 7.84051 17.2249 7.08298 17.2678 6.5241C17.2811 6.35089 17.2883 6.22958 17.2949 6.11945C17.3017 6.00479 17.3078 5.90226 17.3193 5.76593C17.3381 5.54234 17.3593 5.43342 17.3746 5.38635Z" fill="#0000CC"/>
<path d="M7.00922 2.94908C6.45696 2.94399 6.00513 3.38756 6.00004 3.93982C5.99495 4.49209 6.43852 4.94391 6.99078 4.949L7.00078 4.94909C7.55304 4.95418 8.00487 4.51061 8.00996 3.95835C8.01505 3.40609 7.57148 2.95427 7.01922 2.94918L7.00922 2.94908Z" fill="#0000CC"/>
<path d="M20.0092 6.61022C19.4569 6.60514 19.0051 7.04871 19 7.60097C18.995 8.15323 19.4385 8.60505 19.9908 8.61013L20.0008 8.61022C20.5531 8.61531 21.0049 8.17173 21.01 7.61947C21.015 7.06721 20.5715 6.61539 20.0192 6.61031L20.0092 6.61022Z" fill="#0000CC"/>
<path d="M19 10.1092C17.2105 10.1092 15.9564 10.7329 14.8763 11.8491C14.4922 12.246 14.5026 12.879 14.8995 13.2631C15.2964 13.6472 15.9294 13.6368 16.3135 13.2399C17.0435 12.4855 17.7895 12.1092 19 12.1092C19.5523 12.1092 20 11.6615 20 11.1092C20 10.5569 19.5523 10.1092 19 10.1092Z" fill="#0000CC"/>
<path d="M19.0093 14.9598C18.457 14.9547 18.0052 15.3983 18 15.9505C17.9949 16.5028 18.4385 16.9546 18.9907 16.9597L19.0007 16.9598C19.553 16.9649 20.0048 16.5214 20.01 15.9691C20.0151 15.4169 19.5715 14.965 19.0193 14.9599L19.0093 14.9598Z" fill="#0000CC"/>
</g>
</svg>
