<svg width="24" height="24" viewBox="0 0 24 24" fill="none" xmlns="http://www.w3.org/2000/svg">
<path opacity="0.3" fill-rule="evenodd" clip-rule="evenodd" d="M19.669 6.00004C20.2213 6.00515 20.6648 6.45699 20.6597 7.00925L20.6596 7.01925C20.6545 7.57151 20.2027 8.01507 19.6504 8.00996C19.0982 8.00485 18.6546 7.55301 18.6597 7.00075L18.6598 6.99075C18.6649 6.43849 19.1168 5.99493 19.669 6.00004ZM15.6051 9.66032C15.9239 9.20939 16.548 9.10233 16.9989 9.42119C17.5141 9.78553 17.9172 10.0171 18.3257 10.1284C18.7068 10.2324 19.1576 10.2484 19.7854 10.0533C20.3128 9.88939 20.8732 10.1841 21.0371 10.7115C21.201 11.2389 20.9063 11.7993 20.3789 11.9632C19.4242 12.2599 18.5837 12.2718 17.7997 12.058C17.043 11.8518 16.407 11.4522 15.8442 11.0542C15.3933 10.7353 15.2862 10.1113 15.6051 9.66032ZM13.9716 11.6576C14.5236 11.6405 14.985 12.0741 15.0021 12.6262C15.0433 13.958 15.5295 14.769 15.9923 15.0057C16.3002 15.1632 16.7122 15.2333 17.2381 15.2737C17.3205 15.28 17.4399 15.2876 17.565 15.2956C17.7268 15.3059 17.8982 15.3168 18.0111 15.3263C18.2551 15.3468 18.5602 15.3812 18.8412 15.4726C19.4102 15.6575 19.9731 16.0334 20.3835 16.6504C20.7921 17.2647 21.0085 18.0552 20.9997 19.0088C20.9946 19.5611 20.5428 20.0047 19.9905 19.9996C19.4383 19.9945 18.9947 19.5427 18.9998 18.9904C19.0057 18.3489 18.8608 17.9724 18.7182 17.7581C18.5774 17.5464 18.3991 17.4319 18.2229 17.3746C18.1759 17.3593 18.0669 17.3381 17.8434 17.3193C17.707 17.3078 17.6045 17.3017 17.4898 17.2949C17.3797 17.2883 17.2584 17.2811 17.0852 17.2678C16.5263 17.2249 15.7688 17.1379 15.0814 16.7862C13.6406 16.0492 13.0524 14.2827 13.003 12.688C12.9859 12.136 13.4196 11.6746 13.9716 11.6576ZM10.3457 14.8995C10.7298 14.5026 11.3628 14.4922 11.7597 14.8763C12.8759 15.9564 13.4996 17.2105 13.4996 19C13.4996 19.5523 13.0519 20 12.4996 20C11.9473 20 11.4996 19.5523 11.4996 19C11.4996 17.7895 11.1233 17.0435 10.3689 16.3135C9.97202 15.9294 9.96163 15.2964 10.3457 14.8995ZM7.65873 18C8.211 18.0051 8.65456 18.457 8.64946 19.0092L8.64937 19.0192C8.64428 19.5715 8.19245 20.0151 7.64019 20.01C7.08793 20.0049 6.64436 19.553 6.64946 19.0008L6.64955 18.9908C6.65465 18.4385 7.10647 17.9949 7.65873 18ZM16.0084 19C16.5606 19.0052 17.0042 19.457 16.9991 20.0093L16.999 20.0193C16.9939 20.5715 16.542 21.0151 15.9898 21.01C15.4375 21.0048 14.994 20.553 14.9991 20.0008L14.9992 19.9908C15.0043 19.4385 15.4561 18.9949 16.0084 19Z" fill="#0000CC"/>
<path d="M5.5356 5.5356C6.84836 4.22285 8.62884 3.48535 10.4854 3.48535C12.3419 3.48535 14.1223 4.22285 15.4351 5.5356C15.6226 5.72314 15.728 5.97749 15.728 6.24271C15.728 6.50793 15.6226 6.76228 15.4351 6.94982L6.94982 15.4351C6.76228 15.6226 6.50793 15.728 6.24271 15.728C5.97749 15.728 5.72314 15.6226 5.5356 15.4351C4.22285 14.1223 3.48535 12.3419 3.48535 10.4854C3.48535 8.62884 4.22285 6.84836 5.5356 5.5356Z" fill="#0000CC"/>
</svg>
