<svg width="24" height="24" viewBox="0 0 24 24" fill="none" xmlns="http://www.w3.org/2000/svg">
<path opacity="0.3" d="M8.00001 2C7.561 2 7.17333 2.28632 7.04423 2.70591L3.04423 15.7059C2.9509 16.0092 3.00708 16.3388 3.19562 16.5941C3.38415 16.8494 3.68266 17 4.00001 17H8.50001C8.93716 17 9.32365 16.716 9.4543 16.2989L10.8007 12H13C15.7614 12 18 9.76142 18 7C18 4.23858 15.7614 2 13 2H8.00001Z" fill="#0000CC"/>
<path d="M11 7C10.561 7 10.1733 7.28632 10.0442 7.70591L6.04423 20.7059C5.9509 21.0092 6.00708 21.3388 6.19562 21.5941C6.38415 21.8494 6.68266 22 7.00001 22H11C11.4372 22 11.8236 21.716 11.9543 21.2989L13.3007 17H16C18.7614 17 21 14.7614 21 12C21 9.23858 18.7614 7 16 7H11Z" fill="#0000CC"/>
</svg>
