<svg width="24" height="24" viewBox="0 0 24 24" fill="none" xmlns="http://www.w3.org/2000/svg">
<g opacity="0.3">
<path d="M10.8495 9.4436L5.40908 14.8839L5.40466 14.8886L5.36746 14.9258C4.56746 15.7257 4.1158 16.1773 3.76425 16.6997C3.45245 17.1631 3.20166 17.6646 3.01808 18.1921C2.8111 18.7867 2.72079 19.419 2.56083 20.539L2.50503 20.9296C2.48206 21.0904 2.53862 21.2523 2.65671 21.3638C2.77479 21.4754 2.93969 21.5226 3.0989 21.4904L3.63915 21.3814C4.64539 21.1784 5.21357 21.0638 5.74711 20.8538C6.22048 20.6675 6.67033 20.4262 7.08744 20.135C7.55757 19.8068 7.96738 19.3969 8.69321 18.6711L14.3851 12.9792L10.8495 9.4436Z" fill="#0000CC"/>
<path d="M15.7993 11.565L19.0353 8.32899L15.4998 4.79346L12.2637 8.0294L15.7993 11.565Z" fill="#0000CC"/>
</g>
<path d="M3.70711 2.29289C3.31658 1.90237 2.68342 1.90237 2.29289 2.29289C1.90237 2.68342 1.90237 3.31658 2.29289 3.70711L20.2929 21.7071C20.6834 22.0976 21.3166 22.0976 21.7071 21.7071C22.0976 21.3166 22.0976 20.6834 21.7071 20.2929L3.70711 2.29289Z" fill="#0000CC"/>
<path d="M20.5927 3.23614C19.6164 2.25983 18.0335 2.25983 17.0572 3.23614L15.4998 4.79358L19.0353 8.32911L20.5927 6.77167C21.569 5.79536 21.569 4.21245 20.5927 3.23614Z" fill="#0000CC"/>
</svg>
