<svg width="24" height="24" viewBox="0 0 24 24" fill="none" xmlns="http://www.w3.org/2000/svg">
<g opacity="0.3">
<path d="M9.43956 10.8538L5.36744 14.9259C4.56745 15.7258 4.1158 16.1775 3.76425 16.6998C3.45245 17.1632 3.20166 17.6647 3.01808 18.1922C2.8111 18.7869 2.72079 19.4192 2.56083 20.5391L2.50503 20.9297C2.48206 21.0905 2.53862 21.2524 2.65671 21.3639C2.77479 21.4755 2.93969 21.5227 3.0989 21.4906L3.63916 21.3815C4.6454 21.1785 5.21357 21.0639 5.74711 20.8539C6.22048 20.6676 6.67033 20.4263 7.08744 20.1351C7.55758 19.8069 7.9674 19.397 8.69324 18.6712L12.9751 14.3893L9.43956 10.8538Z" fill="#0000CC"/>
<path d="M12.2638 8.02955L14.436 5.85733C14.2018 5.62968 14.0039 5.44502 13.8245 5.29272C13.4892 5.00804 13.2847 4.89542 13.1178 4.84117C12.7161 4.71066 12.2834 4.71066 11.8817 4.84117C11.7148 4.89542 11.5103 5.00804 11.175 5.29272C10.9378 5.49412 10.6682 5.75201 10.3253 6.0911L8.91102 4.6768C9.27181 4.3199 9.58999 4.01479 9.88065 3.76804C10.3106 3.40305 10.7456 3.10738 11.2637 2.93906C12.0671 2.67803 12.9324 2.67803 13.7358 2.93906C14.2539 3.10738 14.6889 3.40305 15.1189 3.76804C15.3439 3.95906 15.5854 4.18504 15.8504 4.44296L17.0572 3.23614C18.0335 2.25983 19.6164 2.25983 20.5927 3.23614C21.569 4.21245 21.569 5.79536 20.5927 6.77167L15.7993 11.5651L12.2638 8.02955Z" fill="#0000CC"/>
</g>
<path fill-rule="evenodd" clip-rule="evenodd" d="M2.29289 2.29289C2.68342 1.90237 3.31658 1.90237 3.70711 2.29289L21.7071 20.2929C22.0976 20.6834 22.0976 21.3166 21.7071 21.7071C21.3166 22.0976 20.6834 22.0976 20.2929 21.7071L2.29289 3.70711C1.90237 3.31658 1.90237 2.68342 2.29289 2.29289Z" fill="#0000CC"/>
</svg>
