<svg width="24" height="24" viewBox="0 0 24 24" fill="none" xmlns="http://www.w3.org/2000/svg">
<path opacity="0.3" d="M8.09251 7.02115L11.7992 6.09448L18.0898 12.0855L18.0764 12.1389L17.1032 16.0318C16.9638 16.5922 16.8412 17.0852 16.5742 17.5025C16.3403 17.8681 16.0298 18.1786 15.6642 18.4125C15.247 18.6795 14.754 18.8021 14.1935 18.9414L3.98089 21.4945L9.13813 16.5137C9.8178 16.6788 10.5647 16.4959 11.0954 15.9652C11.9051 15.1555 11.9051 13.8428 11.0954 13.0331C10.2858 12.2235 8.97303 12.2235 8.16337 13.0331C7.58865 13.6079 7.42188 14.436 7.66305 15.1578L2.6709 19.9792L5.1829 9.93077C5.32224 9.37034 5.44481 8.87735 5.71182 8.46007C5.94576 8.09448 6.25623 7.78401 6.62182 7.55007C7.0391 7.28306 7.53209 7.16049 8.09251 7.02115Z" fill="#0000CC"/>
<path d="M21.5727 8.26061L19.3291 10.5042L13.2158 4.68206L15.605 2.29289C15.9955 1.90237 16.6287 1.90237 17.0192 2.29289L21.5727 6.84639C21.7602 7.03393 21.8656 7.28828 21.8656 7.5535C21.8656 7.81872 21.7602 8.07307 21.5727 8.26061Z" fill="#0000CC"/>
</svg>
