<svg width="24" height="24" viewBox="0 0 24 24" fill="none" xmlns="http://www.w3.org/2000/svg">
<path opacity="0.3" d="M15.1722 3L9.23266 8.93952C8.50475 9.66687 7.95443 10.2168 7.51979 10.8626C7.13603 11.4329 6.82737 12.0502 6.60143 12.6993C6.53614 12.8869 6.48048 13.0722 6.43242 13.2532L6.41603 13.3148C6.33221 13.6298 6.23227 14.0053 6.18162 14.342C6.12181 14.7395 6.08908 15.3143 6.33905 15.9349C6.51964 16.3834 6.80234 16.735 7.06266 16.9822C7.32299 17.2295 7.68867 17.4937 8.14578 17.651C8.77965 17.8691 9.35303 17.806 9.7464 17.7258C10.0803 17.6577 10.4509 17.5384 10.7624 17.4381L10.8232 17.4185C10.9785 17.3686 11.1367 17.3128 11.2965 17.2499C11.8791 17.0206 12.4328 16.7237 12.9461 16.3653C13.5274 15.9594 14.0266 15.4599 14.6868 14.7992L21 8.48595V16.2C21 17.8802 21 18.7202 20.673 19.362C20.3854 19.9265 19.9265 20.3854 19.362 20.673C18.7202 21 17.8802 21 16.2 21H7.8C6.11984 21 5.27976 21 4.63803 20.673C4.07354 20.3854 3.6146 19.9265 3.32698 19.362C3 18.7202 3 17.8802 3 16.2V7.8C3 6.11984 3 5.27976 3.32698 4.63803C3.6146 4.07354 4.07354 3.6146 4.63803 3.32698C5.27976 3 6.11984 3 7.8 3H15.1722Z" fill="#0000CC"/>
<path d="M14.7927 6.20744L10.7622 10.2379C9.92269 11.0775 9.50291 11.4973 9.17856 11.9792C8.89074 12.4069 8.65924 12.8699 8.48979 13.3568C8.44284 13.4917 8.4016 13.6284 8.36493 13.7665C8.16795 14.5083 8.06946 14.8792 8.19376 15.1878C8.29016 15.4272 8.55198 15.6759 8.796 15.7598C9.11062 15.8681 9.47731 15.7502 10.2107 15.5145C10.3296 15.4762 10.4473 15.4346 10.5635 15.3889C11.0004 15.2169 11.4157 14.9942 11.8007 14.7254C12.2345 14.4226 12.6153 14.0417 13.3769 13.2801L17.6212 9.03586L14.7927 6.20744Z" fill="#0000CC"/>
<path d="M19.0354 7.62165L20.2389 6.41812C21.02 5.63707 21.02 4.37074 20.2389 3.58969C19.4579 2.80864 18.1915 2.80864 17.4105 3.58969L16.2069 4.79322L19.0354 7.62165Z" fill="#0000CC"/>
</svg>
