<svg width="24" height="24" viewBox="0 0 24 24" fill="none" xmlns="http://www.w3.org/2000/svg">
<g opacity="0.3">
<path d="M6.34003 7.75435C6.09523 7.95447 5.88303 8.19251 5.71182 8.46007C5.44481 8.87735 5.32224 9.37034 5.1829 9.93077L2.6709 19.9792L7.66305 15.1578C7.42188 14.436 7.58865 13.6079 8.16337 13.0331C8.97303 12.2235 10.2858 12.2235 11.0954 13.0331C11.9051 13.8428 11.9051 15.1555 11.0954 15.9652C10.5647 16.4959 9.8178 16.6788 9.13813 16.5137L3.98089 21.4945L14.1935 18.9414C14.754 18.8021 15.247 18.6795 15.6642 18.4125C15.9318 18.2413 16.1698 18.0291 16.37 17.7843L6.34003 7.75435Z" fill="#0000CC"/>
<path d="M18.0764 12.1389L17.7377 13.4935L10.6308 6.38659L11.7992 6.09448L18.0898 12.0855L18.0764 12.1389Z" fill="#0000CC"/>
</g>
<path d="M3.70711 2.29289C3.31658 1.90237 2.68342 1.90237 2.29289 2.29289C1.90237 2.68342 1.90237 3.31658 2.29289 3.70711L20.2929 21.7071C20.6834 22.0976 21.3166 22.0976 21.7071 21.7071C22.0976 21.3166 22.0976 20.6834 21.7071 20.2929L3.70711 2.29289Z" fill="#0000CC"/>
<path d="M19.3296 10.5042L21.5732 8.26061C21.7607 8.07307 21.8661 7.81872 21.8661 7.5535C21.8661 7.28828 21.7607 7.03393 21.5732 6.84639L17.0197 2.29289C16.6292 1.90237 15.996 1.90237 15.6055 2.29289L13.2163 4.68206L19.3296 10.5042Z" fill="#0000CC"/>
</svg>
