<svg width="24" height="24" viewBox="0 0 24 24" fill="none" xmlns="http://www.w3.org/2000/svg">
<path d="M17.0574 3.23614C18.0337 2.25983 19.6167 2.25983 20.593 3.23614C21.5693 4.21245 21.5693 5.79536 20.593 6.77167L19.0355 8.32911L15.5 4.79358L17.0574 3.23614Z" fill="#0000CC"/>
<path opacity="0.3" d="M19.0353 8.32899L15.4998 4.79346L5.40908 14.8839L5.40466 14.8886L5.36746 14.9258C4.56746 15.7257 4.1158 16.1773 3.76425 16.6997C3.45245 17.1631 3.20166 17.6646 3.01808 18.1921C2.8111 18.7867 2.72079 19.419 2.56083 20.539L2.50503 20.9296C2.48206 21.0904 2.53862 21.2523 2.65671 21.3638C2.77479 21.4754 2.93969 21.5226 3.0989 21.4904L3.63915 21.3814C4.64539 21.1784 5.21357 21.0638 5.74711 20.8538C6.22048 20.6675 6.67033 20.4262 7.08744 20.135C7.55758 19.8068 7.9674 19.3969 8.69324 18.671L19.0353 8.32899Z" fill="#0000CC"/>
</svg>
