<svg width="24" height="24" viewBox="0 0 24 24" fill="none" xmlns="http://www.w3.org/2000/svg">
<g opacity="0.3">
<path d="M4.46181 1.9994C4.49612 1.99957 4.52956 1.99974 4.56201 1.99974H7.37932L7.46487 1.9995C7.77404 1.9982 8.16208 1.99657 8.51647 2.13264C8.82222 2.25004 9.09445 2.44072 9.30926 2.68793C9.55826 2.97449 9.68933 3.33972 9.79377 3.63072L9.82278 3.71121L10.9984 6.94426C11.0705 7.14226 11.1419 7.33863 11.1906 7.51171C11.2449 7.70456 11.2912 7.93432 11.2742 8.19636C11.2501 8.56571 11.1241 8.92113 10.9101 9.22309C10.7582 9.43733 10.5775 9.58656 10.4138 9.70212C10.2669 9.80584 10.0877 9.91334 9.90701 10.0217L9.89392 10.0296L8.17169 11.123C8.84679 12.4178 9.77471 13.5661 10.8871 14.4985L7.54613 17.8395C4.14374 14.817 2 10.4087 2 5.49974C2 5.08913 2.01502 4.68185 2.04456 4.27843L2.05068 4.19088C2.07407 3.84875 2.10433 3.40605 2.33708 3.0018C2.53191 2.66342 2.84993 2.36784 3.20164 2.19824C3.62284 1.99514 4.0926 1.99752 4.46181 1.9994Z" fill="#0000CC"/>
<path d="M9.13065 19.0834C11.792 20.9225 15.0202 21.9997 18.5 21.9997C18.9106 21.9997 19.3179 21.9847 19.7213 21.9552L19.8089 21.9491C20.151 21.9257 20.5937 21.8954 20.9979 21.6627C21.3363 21.4678 21.6319 21.1498 21.8015 20.7981C22.0046 20.3769 22.0022 19.9071 22.0003 19.5379L22.0001 19.4739L22 19.4377V16.6204L22.0002 16.5349C22.0015 16.2257 22.0032 15.8377 21.8671 15.4833C21.7497 15.1775 21.559 14.9053 21.3118 14.6905C21.0253 14.4415 20.66 14.3104 20.369 14.206L20.2885 14.177L17.0555 13.0013C16.8575 12.9293 16.6611 12.8578 16.488 12.8091C16.2952 12.7549 16.0654 12.7085 15.8034 12.7256C15.676 12.7339 15.5502 12.7543 15.4277 12.7863C13.3229 14.8911 11.2383 16.9757 9.13065 19.0834Z" fill="#0000CC"/>
</g>
<path d="M3.70711 21.7071L21.7071 3.70711C22.0976 3.31658 22.0976 2.68342 21.7071 2.29289C21.3166 1.90237 20.6834 1.90237 20.2929 2.29289L2.29289 20.2929C1.90237 20.6834 1.90237 21.3166 2.29289 21.7071C2.68342 22.0976 3.31658 22.0976 3.70711 21.7071Z" fill="#0000CC"/>
</svg>
