<svg width="24" height="24" viewBox="0 0 24 24" fill="none" xmlns="http://www.w3.org/2000/svg">
<path opacity="0.3" fill-rule="evenodd" clip-rule="evenodd" d="M4.56201 1.99998C4.52956 1.99998 4.49612 1.99981 4.46181 1.99964C4.0926 1.99777 3.62284 1.99538 3.20164 2.19849C2.84993 2.36808 2.53191 2.66367 2.33708 3.00205C2.10433 3.4063 2.07407 3.849 2.05068 4.19112L2.04456 4.27868C2.01502 4.68209 2 5.08937 2 5.49998C2 14.6127 9.3873 22 18.5 22C18.9106 22 19.3179 21.985 19.7213 21.9554L19.8089 21.9493C20.151 21.9259 20.5937 21.8957 20.9979 21.6629C21.3363 21.4681 21.6319 21.15 21.8015 20.7983C22.0046 20.3771 22.0022 19.9074 22.0003 19.5382C22.0002 19.5165 22.0001 19.4951 22.0001 19.4742C22 19.462 22 19.4499 22 19.438V16.6207L22.0002 16.5351C22.0015 16.2259 22.0032 15.8379 21.8671 15.4835C21.7497 15.1778 21.559 14.9055 21.3118 14.6907C21.0253 14.4417 20.66 14.3106 20.369 14.2062L20.2885 14.1772L17.0555 13.0016C16.8575 12.9295 16.6611 12.8581 16.488 12.8094C16.2952 12.7551 16.0654 12.7088 15.8034 12.7258C15.434 12.7498 15.0786 12.8759 14.7766 13.0899C14.5624 13.2418 14.4132 13.4225 14.2976 13.5862C14.1939 13.7331 14.0864 13.9123 13.978 14.093L13.9702 14.1061L12.8766 15.8285C10.8708 14.784 9.21773 13.1295 8.17169 11.1232L9.89392 10.0298L9.90701 10.022C10.0877 9.91358 10.2669 9.80609 10.4138 9.70236C10.5775 9.5868 10.7582 9.43757 10.9101 9.22333C11.1241 8.92138 11.2501 8.56595 11.2742 8.19661C11.2912 7.93457 11.2449 7.7048 11.1906 7.51195C11.1419 7.33888 11.0705 7.1425 10.9984 6.9445L9.82278 3.71145L9.79377 3.63097C9.68933 3.33997 9.55826 2.97473 9.30926 2.68818C9.09445 2.44096 8.82222 2.25028 8.51647 2.13289C8.16208 1.99681 7.77404 1.99844 7.46487 1.99974L7.37932 1.99998H4.56201Z" fill="#0000CC"/>
<path d="M14.1604 1.0062C13.6115 0.945223 13.1171 1.34077 13.0561 1.88968C12.9951 2.43858 13.3907 2.93299 13.9396 2.99397C15.7434 3.19436 17.4254 4.00213 18.7096 5.28465C19.9937 6.56717 20.8036 8.2482 21.0062 10.0518C21.0679 10.6006 21.5628 10.9955 22.1117 10.9338C22.6605 10.8722 23.0554 10.3773 22.9937 9.82842C22.7404 7.57399 21.7281 5.47269 20.1229 3.86954C18.5177 2.2664 16.4152 1.25669 14.1604 1.0062Z" fill="#0000CC"/>
<path d="M14.2415 5.01859C13.6994 4.91284 13.1743 5.26653 13.0685 5.80859C12.9627 6.35066 13.3164 6.87582 13.8585 6.98158C14.6399 7.13403 15.358 7.51619 15.9209 8.07913C16.4839 8.64207 16.866 9.36019 17.0185 10.1416C17.1243 10.6836 17.6494 11.0373 18.1915 10.9316C18.7336 10.8258 19.0872 10.3007 18.9815 9.75859C18.7528 8.58651 18.1796 7.50933 17.3352 6.66492C16.4908 5.8205 15.4136 5.24727 14.2415 5.01859Z" fill="#0000CC"/>
</svg>
