<svg width="24" height="24" viewBox="0 0 24 24" fill="none" xmlns="http://www.w3.org/2000/svg">
<path opacity="0.3" fill-rule="evenodd" clip-rule="evenodd" d="M6.35057 12.8633L8.92821 9.72085C8.9337 9.71417 8.93909 9.70741 8.9444 9.70059C8.96411 9.67525 8.98388 9.64993 9.00366 9.6246C9.25176 9.3069 9.50121 8.98746 9.6376 8.61215C9.75662 8.28467 9.80586 7.93591 9.78217 7.58828C9.75502 7.18987 9.60377 6.81387 9.45333 6.43989C9.44133 6.41007 9.42934 6.38027 9.41742 6.35046L8.69445 4.54303C8.56714 4.22469 8.45146 3.93544 8.33565 3.70001C8.2106 3.4458 8.05431 3.187 7.81555 2.9602C7.46627 2.62842 7.02858 2.40462 6.55512 2.31572C6.23146 2.25495 5.93014 2.27978 5.65086 2.32724C5.39218 2.3712 5.08996 2.44678 4.75733 2.52996C4.74668 2.53262 4.736 2.53529 4.72529 2.53797L2.75792 3.02988C2.31277 3.14118 2.00049 3.54116 2.00049 4.00001C2.00049 7.44709 2.79597 10.5795 4.25287 13.232C4.25853 13.2427 4.2644 13.2534 4.27047 13.2639C5.02493 14.6305 5.95533 15.8692 7.04326 16.9571C8.29262 18.2065 9.74071 19.2481 11.3531 20.0541C11.3649 20.0603 11.3768 20.0662 11.3888 20.0719C13.9045 21.3222 16.8184 22 20.0005 22C20.4594 22 20.8594 21.6876 20.9707 21.2424L21.4702 19.243C21.5534 18.9103 21.629 18.6081 21.673 18.3494C21.7204 18.0701 21.7453 17.7688 21.6845 17.4451C21.5956 16.9716 21.3718 16.534 21.04 16.1847C20.8132 15.9459 20.5544 15.7896 20.3002 15.6646C20.0648 15.5488 19.7755 15.4331 19.4572 15.3058L17.841 14.6593C17.8067 14.6456 17.7725 14.6318 17.7382 14.618C17.313 14.4469 16.8862 14.275 16.4383 14.2612C16.0481 14.2493 15.6605 14.3288 15.3065 14.4936C14.9003 14.6826 14.5756 15.0087 14.2522 15.3336C14.2265 15.3594 14.2007 15.3853 14.1749 15.4111L14.1741 15.4119L11.6333 17.94C10.4526 17.2799 9.38885 16.4743 8.45749 15.5429C7.65847 14.7439 6.95204 13.8474 6.35057 12.8633Z" fill="#0000CC"/>
<path d="M18 2C18.5523 2 19 2.44772 19 3V5H21C21.5523 5 22 5.44772 22 6C22 6.55228 21.5523 7 21 7H19V9C19 9.55228 18.5523 10 18 10C17.4477 10 17 9.55228 17 9V7H15C14.4477 7 14 6.55228 14 6C14 5.44772 14.4477 5 15 5H17V3C17 2.44772 17.4477 2 18 2Z" fill="#0000CC"/>
</svg>
