<svg width="24" height="24" viewBox="0 0 24 24" fill="none" xmlns="http://www.w3.org/2000/svg">
<path opacity="0.3" d="M7.22108 11.8214C6.93178 12.1713 6.64256 12.5212 6.35581 12.8727C7.65575 14.9961 9.43655 16.7096 11.6219 17.934C11.9059 17.6532 12.1907 17.3732 12.4754 17.0931C13.0696 16.5086 13.6638 15.9241 14.2517 15.3336C14.5751 15.0087 14.8998 14.6826 15.306 14.4936C15.66 14.3288 16.0476 14.2493 16.4378 14.2612C16.8857 14.275 17.3125 14.4469 17.7378 14.618C17.9985 14.723 18.2623 14.8237 18.5266 14.9246C19.1258 15.1534 19.7274 15.383 20.2997 15.6646C20.5539 15.7896 20.8127 15.9459 21.0395 16.1847C21.3713 16.534 21.5951 16.9716 21.684 17.4451C21.7448 17.7688 21.72 18.0701 21.6725 18.3494C21.5561 19.0342 21.3746 19.7123 21.1939 20.3874C21.1175 20.6729 21.0413 20.9578 20.9702 21.2424C20.8589 21.6876 20.4589 22 20 22C17.0498 22 13.9693 21.4282 11.3381 20.0469C8.33249 18.5409 5.89497 16.2017 4.27669 13.2761C2.67625 10.4971 2 7.1814 2 4.00001C2 3.54116 2.31228 3.14118 2.75743 3.02988L4.75684 2.52996C5.08947 2.44678 5.39169 2.3712 5.65037 2.32724C5.92965 2.27978 6.23097 2.25495 6.55463 2.31572C7.02809 2.40462 7.46578 2.62842 7.81506 2.9602C8.05382 3.187 8.21012 3.4458 8.33516 3.70001C8.63546 4.3105 8.88004 4.95232 9.12369 5.59171C9.23198 5.87591 9.3401 6.15962 9.45284 6.43989C9.60328 6.81387 9.75453 7.18988 9.78168 7.58828C9.80537 7.93591 9.75613 8.28467 9.63712 8.61215C9.50072 8.98746 9.25127 9.3069 9.00317 9.6246C8.42326 10.3672 7.82203 11.0945 7.22108 11.8214Z" fill="#0000CC"/>
<path d="M13.1106 2.0062C12.5617 1.94522 12.0673 2.34077 12.0063 2.88968C11.9453 3.43858 12.3409 3.93299 12.8898 3.99397C14.6936 4.19436 16.3756 5.00213 17.6598 6.28465C18.9439 7.56717 19.7538 9.2482 19.9564 11.0518C20.0181 11.6006 20.513 11.9955 21.0619 11.9338C21.6107 11.8722 22.0056 11.3773 21.9439 10.8284C21.6906 8.57399 20.6783 6.47269 19.0731 4.86954C17.4679 3.2664 15.3654 2.25669 13.1106 2.0062Z" fill="#0000CC"/>
<path d="M13.1917 6.01859C12.6496 5.91284 12.1245 6.26653 12.0187 6.80859C11.9129 7.35066 12.2666 7.87582 12.8087 7.98158C13.5901 8.13403 14.3082 8.51619 14.8711 9.07913C15.4341 9.64207 15.8162 10.3602 15.9687 11.1416C16.0745 11.6836 16.5996 12.0373 17.1417 11.9316C17.6837 11.8258 18.0374 11.3007 17.9317 10.7586C17.703 9.58651 17.1298 8.50933 16.2854 7.66492C15.4409 6.8205 14.3638 6.24727 13.1917 6.01859Z" fill="#0000CC"/>
</svg>
