<svg width="24" height="24" viewBox="0 0 24 24" fill="none" xmlns="http://www.w3.org/2000/svg">
<path opacity="0.3" fill-rule="evenodd" clip-rule="evenodd" d="M4.56201 1.99974C4.52956 1.99974 4.49612 1.99957 4.46181 1.9994C4.0926 1.99752 3.62284 1.99514 3.20164 2.19824C2.84993 2.36784 2.53191 2.66342 2.33708 3.0018C2.10433 3.40605 2.07407 3.84875 2.05068 4.19088L2.04456 4.27843C2.01502 4.68185 2 5.08913 2 5.49974C2 14.6124 9.3873 21.9997 18.5 21.9997C18.9106 21.9997 19.3179 21.9847 19.7213 21.9552L19.8089 21.9491C20.151 21.9257 20.5937 21.8954 20.9979 21.6627C21.3363 21.4678 21.6319 21.1498 21.8015 20.7981C22.0046 20.3769 22.0022 19.9071 22.0003 19.5379C22.0002 19.5162 22.0001 19.4949 22.0001 19.4739C22 19.4617 22 19.4497 22 19.4377V16.6204L22.0002 16.5349C22.0015 16.2257 22.0032 15.8377 21.8671 15.4833C21.7497 15.1775 21.559 14.9053 21.3118 14.6905C21.0253 14.4415 20.66 14.3104 20.369 14.206L20.2885 14.177L17.0555 13.0013C16.8575 12.9293 16.6611 12.8578 16.488 12.8091C16.2952 12.7549 16.0654 12.7085 15.8034 12.7256C15.434 12.7496 15.0786 12.8756 14.7766 13.0897C14.5624 13.2415 14.4132 13.4223 14.2976 13.5859C14.1939 13.7328 14.0864 13.912 13.978 14.0927L13.9702 14.1058L12.8766 15.8283C10.8708 14.7837 9.21773 13.1293 8.17169 11.123L9.89392 10.0296L9.90701 10.0217C10.0877 9.91334 10.2669 9.80584 10.4138 9.70212C10.5775 9.58656 10.7582 9.43733 10.9101 9.22309C11.1241 8.92113 11.2501 8.56571 11.2742 8.19636C11.2912 7.93432 11.2449 7.70456 11.1906 7.51171C11.1419 7.33863 11.0705 7.14226 10.9984 6.94426L9.82278 3.71121L9.79377 3.63072C9.68933 3.33972 9.55826 2.97449 9.30926 2.68793C9.09445 2.44072 8.82222 2.25004 8.51647 2.13264C8.16208 1.99657 7.77404 1.9982 7.46487 1.9995L7.37932 1.99974H4.56201Z" fill="#0000CC"/>
<path d="M18 3C18 2.44772 17.5523 2 17 2C16.4477 2 16 2.44772 16 3V9C16 9.55228 16.4477 10 17 10C17.5523 10 18 9.55228 18 9V3Z" fill="#0000CC"/>
<path d="M22 3C22 2.44772 21.5523 2 21 2C20.4477 2 20 2.44772 20 3V9C20 9.55228 20.4477 10 21 10C21.5523 10 22 9.55228 22 9V3Z" fill="#0000CC"/>
</svg>
