<svg width="24" height="24" viewBox="0 0 24 24" fill="none" xmlns="http://www.w3.org/2000/svg">
<g opacity="0.3">
<path d="M7.77512 14.8109C7.26592 14.2248 6.80189 13.5943 6.38699 12.9226L8.93833 9.70839L8.9444 9.70059L9.00366 9.6246C9.25176 9.3069 9.50121 8.98746 9.6376 8.61215C9.75662 8.28467 9.80586 7.93591 9.78217 7.58828C9.75502 7.18988 9.60377 6.81387 9.45333 6.43989L9.41742 6.35046L8.69445 4.54303C8.56714 4.2247 8.45146 3.93544 8.33565 3.70001C8.2106 3.4458 8.05431 3.187 7.81555 2.9602C7.46627 2.62842 7.02858 2.40462 6.55512 2.31572C6.23146 2.25495 5.93014 2.27978 5.65086 2.32724C5.39218 2.3712 5.08996 2.44678 4.75733 2.52996L2.75792 3.02988C2.31277 3.14118 2.00049 3.54116 2.00049 4.00001C2.00049 7.48064 2.81153 10.6405 4.2956 13.3093C4.30122 13.3198 4.30703 13.3302 4.31303 13.3406C4.89477 14.3815 5.5791 15.3474 6.35781 16.2282L7.77512 14.8109Z" fill="#0000CC"/>
<path d="M16.4383 14.2612C16.0481 14.2493 15.6605 14.3288 15.3065 14.4936C14.9003 14.6826 14.5756 15.0087 14.2522 15.3335L14.1764 15.4096L11.6192 17.9323C11.5555 17.8966 11.492 17.8604 11.429 17.8238C10.9512 17.5467 10.3393 17.7093 10.0622 18.1871C9.78508 18.6648 9.94771 19.2767 10.4254 19.5538C10.7213 19.7254 11.0234 19.8886 11.3314 20.0431C11.3452 20.0505 11.3593 20.0575 11.3734 20.0642C13.8956 21.321 16.8146 22 20.0005 22C20.4594 22 20.8594 21.6876 20.9707 21.2424L21.4702 19.243C21.5534 18.9103 21.629 18.6081 21.673 18.3494C21.7204 18.0701 21.7453 17.7688 21.6845 17.4451C21.5956 16.9716 21.3718 16.534 21.04 16.1847C20.8132 15.9459 20.5544 15.7896 20.3002 15.6646C20.0648 15.5488 19.7756 15.4331 19.4573 15.3058L17.841 14.6593L17.7382 14.618C17.313 14.4469 16.8862 14.275 16.4383 14.2612Z" fill="#0000CC"/>
</g>
<path d="M3.70711 21.7071L21.7071 3.70711C22.0976 3.31658 22.0976 2.68342 21.7071 2.29289C21.3166 1.90237 20.6834 1.90237 20.2929 2.29289L2.29289 20.2929C1.90237 20.6834 1.90237 21.3166 2.29289 21.7071C2.68342 22.0976 3.31658 22.0976 3.70711 21.7071Z" fill="#0000CC"/>
</svg>
