<svg width="24" height="24" viewBox="0 0 24 24" fill="none" xmlns="http://www.w3.org/2000/svg">
<path opacity="0.3" d="M22.1425 17.5109C20.1547 15.5523 17.8875 14.2389 15.5186 13.5928C15.5073 13.5895 15.4959 13.5864 15.4845 13.5835C14.3262 13.2708 13.1438 13.1176 11.9581 13.1263C10.539 13.1368 9.12805 13.3793 7.7608 13.8488C7.74798 13.8529 7.73528 13.8573 7.7227 13.8619C5.61312 14.5932 3.60844 15.8656 1.83946 17.661C1.51737 17.9879 1.45912 18.492 1.69816 18.8837L2.31152 19.8889C2.49007 20.1816 2.65231 20.4475 2.80572 20.6604C2.97134 20.8902 3.16855 21.1194 3.44175 21.3033C3.84139 21.5722 4.31024 21.72 4.7919 21.7288C5.12116 21.7349 5.41413 21.6602 5.68162 21.5669C5.92936 21.4805 6.21476 21.3556 6.52888 21.2182L7.06639 20.9832L7.16788 20.9389C7.58823 20.7562 8.01025 20.5727 8.33439 20.2634C8.61681 19.9938 8.83219 19.6619 8.96326 19.2942C9.11369 18.8721 9.10928 18.4119 9.10489 17.9536C9.09955 17.3965 9.0927 16.8395 9.08584 16.2825C9.08277 16.0329 9.0797 15.7834 9.07677 15.5339C10.0343 15.2685 11.0052 15.1334 11.9729 15.1263C12.7621 15.1204 13.5547 15.1997 14.3418 15.3654C14.384 15.6746 14.4268 15.9838 14.4697 16.293C14.5594 16.9409 14.6492 17.5889 14.7338 18.2374C14.786 18.6371 14.8384 19.039 15.0101 19.3996C15.1598 19.7142 15.3737 19.9941 15.6379 20.2212C15.9407 20.4815 16.3147 20.6376 16.6867 20.793L16.7756 20.8302L17.5064 21.137C17.8225 21.2697 18.1098 21.3903 18.3587 21.4731C18.6276 21.5624 18.9216 21.6327 19.2508 21.6219C19.7322 21.6059 20.1988 21.4512 20.5945 21.1764C20.8649 20.9885 21.0587 20.7564 21.2209 20.5242C21.3712 20.309 21.5295 20.0407 21.7037 19.7454L22.3019 18.7313C22.5351 18.3361 22.4693 17.833 22.1425 17.5109Z" fill="#0000CC"/>
<path d="M20.6585 4.75259C21.0741 4.38891 21.1163 3.75715 20.7526 3.34151C20.3889 2.92587 19.7571 2.88375 19.3415 3.24744L15.5559 6.55981C14.7978 7.22319 14.2711 7.68314 13.8306 8.0125C13.4002 8.33437 13.112 8.48451 12.8508 8.56178C12.2955 8.72599 11.7045 8.72599 11.1492 8.56178C10.888 8.48451 10.5998 8.33437 10.1694 8.0125C9.72892 7.68314 9.20222 7.22319 8.44407 6.55981L6.66145 5.00001H8C8.55228 5.00001 9 4.5523 9 4.00001C9 3.44773 8.55228 3.00001 8 3.00001H4C3.44772 3.00001 3 3.44773 3 4.00001V8.00001C3 8.5523 3.44772 9.00001 4 9.00001C4.55228 9.00001 5 8.5523 5 8.00001V6.20378L7.15681 8.09099C7.87817 8.72219 8.46234 9.23336 8.9716 9.61418C9.49785 10.0077 10.0031 10.3085 10.5821 10.4797C11.5075 10.7534 12.4925 10.7534 13.4179 10.4797C13.9969 10.3085 14.5022 10.0077 15.0284 9.61418C15.5377 9.23336 16.1218 8.7222 16.8432 8.091L20.6585 4.75259Z" fill="#0000CC"/>
</svg>
