<svg width="24" height="24" viewBox="0 0 24 24" fill="none" xmlns="http://www.w3.org/2000/svg">
<path opacity="0.3" d="M8.92834 9.7201L6.35217 12.8669C7.64321 14.978 9.42457 16.6966 11.5926 17.9176L14.1788 15.4068L14.2517 15.3336C14.5751 15.0087 14.8998 14.6826 15.306 14.4936C15.66 14.3288 16.0476 14.2493 16.4378 14.2612C16.8857 14.275 17.3125 14.4469 17.7378 14.618L17.8405 14.6593L19.4567 15.3058C19.775 15.4331 20.0643 15.5488 20.2997 15.6646C20.5539 15.7896 20.8127 15.9459 21.0395 16.1847C21.3713 16.534 21.5951 16.9717 21.684 17.4451C21.7448 17.7688 21.72 18.0701 21.6725 18.3494C21.6285 18.6081 21.5529 18.9103 21.4698 19.2429L20.9702 21.2424C20.8589 21.6876 20.4589 22 20 22C16.7911 22 13.8527 21.3112 11.317 20.0362C8.30469 18.5215 5.88259 16.19 4.26367 13.2523C2.79737 10.5915 2 7.45239 2 4.00001C2 3.54116 2.31228 3.14118 2.75743 3.02988L4.75684 2.52995C5.08947 2.44678 5.39169 2.3712 5.65037 2.32724C5.92965 2.27978 6.23097 2.25495 6.55463 2.31572C7.02809 2.40462 7.46578 2.62842 7.81506 2.9602C8.05382 3.187 8.21012 3.4458 8.33516 3.70001C8.45097 3.93544 8.56664 4.22468 8.69396 4.54302L9.41694 6.35046L9.45284 6.43989C9.60328 6.81387 9.75453 7.18988 9.78168 7.58828C9.80537 7.93591 9.75613 8.28467 9.63712 8.61215C9.50072 8.98746 9.25128 9.30689 9.00318 9.62459L8.94391 9.70059C8.9388 9.70716 8.93361 9.71366 8.92834 9.7201Z" fill="#0000CC"/>
<path d="M17 2C16.4477 2 16 2.44772 16 3C16 3.55228 16.4477 4 17 4H18.5858L14.2929 8.29289C13.9024 8.68342 13.9024 9.31658 14.2929 9.70711C14.6834 10.0976 15.3166 10.0976 15.7071 9.70711L20 5.41422V7C20 7.55228 20.4477 8 21 8C21.5523 8 22 7.55228 22 7V3C22 2.44772 21.5523 2 21 2H17Z" fill="#0000CC"/>
</svg>
