<svg width="24" height="24" viewBox="0 0 24 24" fill="none" xmlns="http://www.w3.org/2000/svg">
<path opacity="0.3" d="M9.87613 17.5902L9.65753 16.6024C11.1846 16.1715 12.8175 16.1791 14.3419 16.6226L14.1266 17.6163L14.1242 17.6257C14.0721 17.8299 14.0205 18.0324 13.9892 18.2095C13.9542 18.4068 13.9309 18.64 13.9738 18.8991C14.0343 19.2642 14.1949 19.6054 14.4378 19.8847C14.6102 20.0828 14.8048 20.2134 14.9791 20.3122C15.1355 20.4009 15.3245 20.4901 15.515 20.58L17.4933 21.5143L17.5706 21.5511C17.8496 21.6843 18.1998 21.8515 18.5784 21.8797C18.905 21.9042 19.2325 21.848 19.5324 21.7162C19.8799 21.5634 20.1544 21.2891 20.3731 21.0706L20.4337 21.0102L21.6294 19.8254C21.6433 19.8116 21.6576 19.7976 21.6721 19.7833C21.6813 19.7743 21.6906 19.7651 21.7 19.7559C21.9637 19.4973 22.3006 19.1668 22.4562 18.718C22.5851 18.346 22.5982 17.8989 22.4913 17.5201C22.3627 17.0643 22.0679 16.739 21.8416 16.4892L21.7856 16.4273C21.6391 16.264 21.4878 16.1035 21.3318 15.9461C16.2071 10.7742 7.86006 10.7359 2.68813 15.8606C2.5307 16.0166 2.37797 16.1757 2.22996 16.3376L2.1734 16.3991C1.94482 16.6467 1.64707 16.9694 1.51432 17.4239C1.40396 17.8018 1.41295 18.2489 1.53844 18.622C1.68985 19.0723 2.02378 19.4059 2.28504 19.6669C2.30905 19.6908 2.33244 19.7142 2.35503 19.737L3.53983 20.9327L3.59987 20.9937C3.81657 21.2142 4.08853 21.491 4.43463 21.647C4.73322 21.7815 5.06028 21.8407 5.38709 21.8193C5.76589 21.7944 6.11762 21.6305 6.39782 21.4998L6.47541 21.4638L8.46213 20.5477C8.65351 20.4595 8.84332 20.372 9.00058 20.2848C9.17577 20.1876 9.3716 20.0588 9.54574 19.8622C9.79118 19.5852 9.95494 19.2455 10.0188 18.8809C10.0641 18.6223 10.0429 18.3888 10.0098 18.1913C9.98005 18.0139 9.93027 17.811 9.88008 17.6063L9.87613 17.5902Z" fill="#0000CC"/>
<path d="M12.0008 4C9.48294 4 7.20807 5.03263 5.57347 6.70004C5.18685 7.09443 4.55372 7.10072 4.15933 6.7141C3.76494 6.32748 3.75865 5.69434 4.14528 5.29996C6.14053 3.26464 8.92388 2 12.0008 2C15.0777 2 17.8611 3.26464 19.8563 5.29996C20.243 5.69434 20.2367 6.32748 19.8423 6.7141C19.4479 7.10072 18.8148 7.09443 18.4281 6.70004C16.7935 5.03263 14.5187 4 12.0008 4Z" fill="#0000CC"/>
<path d="M12.0008 8C10.52 8 9.19066 8.6424 8.2737 9.66691C7.90537 10.0784 7.27318 10.1135 6.86165 9.74513C6.45012 9.37681 6.4151 8.74461 6.78343 8.33309C8.06375 6.9026 9.92752 6 12.0008 6C14.074 6 15.9378 6.9026 17.2181 8.33309C17.5865 8.74461 17.5514 9.37681 17.1399 9.74513C16.7284 10.1135 16.0962 10.0784 15.7279 9.66691C14.8109 8.6424 13.4815 8 12.0008 8Z" fill="#0000CC"/>
</svg>
