<svg width="24" height="24" viewBox="0 0 24 24" fill="none" xmlns="http://www.w3.org/2000/svg">
<path opacity="0.3" d="M2 15H22V15.6C22 17.8402 22 18.9603 21.564 19.816C21.1805 20.5686 20.5686 21.1805 19.816 21.564C18.9603 22 17.8402 22 15.6 22H8.4C6.15979 22 5.03968 22 4.18404 21.564C3.43139 21.1805 2.81947 20.5686 2.43597 19.816C2 18.9603 2 17.8402 2 15.6V15Z" fill="#0000CC"/>
<path d="M22 13C22 10.7909 20.2091 9 18 9H16.2353C16.1053 9 16 8.89465 16 8.76471C16 5.02866 12.9713 2 9.23529 2H9C5.13401 2 2 5.13401 2 9V15H6V17C6 17.5523 6.44772 18 7 18C7.55228 18 8 17.5523 8 17V15H9V17C9 17.5523 9.44771 18 10 18C10.5523 18 11 17.5523 11 17V15H12V17C12 17.5523 12.4477 18 13 18C13.5523 18 14 17.5523 14 17V15H16V17C16 17.5523 16.4477 18 17 18C17.5523 18 18 17.5523 18 17V15H22V13Z" fill="#0000CC"/>
</svg>
