<svg width="24" height="24" viewBox="0 0 24 24" fill="none" xmlns="http://www.w3.org/2000/svg">
<path opacity="0.3" fill-rule="evenodd" clip-rule="evenodd" d="M11.7251 7.02559C12.2632 7.14977 12.5988 7.6867 12.4746 8.22484L9.47461 21.2248C9.35043 21.763 8.8135 22.0986 8.27536 21.9744C7.73722 21.8502 7.40164 21.3133 7.52583 20.7751L10.5258 7.77512C10.65 7.23698 11.1869 6.9014 11.7251 7.02559Z" fill="#0000CC"/>
<path fill-rule="evenodd" clip-rule="evenodd" d="M12 4C8.41015 4 5.5 6.91015 5.5 10.5C5.5 11.6835 5.8154 12.7903 6.36606 13.7442C6.64217 14.2225 6.47826 14.8341 5.99995 15.1102C5.52164 15.3863 4.91006 15.2224 4.63394 14.7441C3.91249 13.4944 3.5 12.0438 3.5 10.5C3.5 5.80558 7.30558 2 12 2C16.6944 2 20.5 5.80558 20.5 10.5C20.5 14.7699 17.0785 18 13.5 18C13.4883 18 13.4765 18 13.4645 18C12.4452 18.0002 10.5536 18.0007 9.00117 16.2659C8.63288 15.8544 8.66796 15.2222 9.07952 14.8539C9.49109 14.4856 10.1233 14.5207 10.4916 14.9322C11.4283 15.979 12.5104 16 13.5 16C15.9215 16 18.5 13.7185 18.5 10.5C18.5 6.91015 15.5899 4 12 4Z" fill="#0000CC"/>
</svg>
