<svg width="24" height="24" viewBox="0 0 24 24" fill="none" xmlns="http://www.w3.org/2000/svg">
<path opacity="0.3" fill-rule="evenodd" clip-rule="evenodd" d="M11.2929 2.29289C11.6834 1.90237 12.3166 1.90237 12.7071 2.29289L21.7071 11.2929C22.0976 11.6834 22.0976 12.3166 21.7071 12.7071L12.7071 21.7071C12.3166 22.0976 11.6834 22.0976 11.2929 21.7071L2.29289 12.7071C1.90237 12.3166 1.90237 11.6834 2.29289 11.2929L11.2929 2.29289Z" fill="#0000CC"/>
<path d="M14.5716 8C14.2797 8 14.0023 8.12756 13.8123 8.34921L12.0002 10.4634L10.188 8.34921C9.998 8.12756 9.72065 8 9.42872 8H6.00015H5.58594L3.58594 10H6.00015H8.96879L10.6831 12L8.96879 14H6.00015H3.58594L5.58594 16H6.00015H9.42872C9.72065 16 9.998 15.8724 10.188 15.6508L12.0002 13.5366L13.8123 15.6508C14.0023 15.8724 14.2797 16 14.5716 16H18.0002H18.4144L20.4144 14H18.0002H15.0315L13.3172 12L15.0315 10H18.0002H20.4144L18.4144 8H18.0002H14.5716Z" fill="#0000CC"/>
</svg>
