<svg width="24" height="24" viewBox="0 0 24 24" fill="none" xmlns="http://www.w3.org/2000/svg">
<g opacity="0.3">
<path d="M4 20.0001H6V22.0001H3C2.44772 22.0001 2 21.5524 2 21.0001V15.0001C2 14.6658 2.1671 14.3535 2.4453 14.1681L3.9453 13.1681C4.40483 12.8617 5.0257 12.9859 5.33205 13.4454C5.6384 13.9049 5.51423 14.5258 5.0547 14.8322L4 15.5353V20.0001Z" fill="#0000CC"/>
<path d="M20 20.0001H18V22.0001H21C21.5523 22.0001 22 21.5524 22 21.0001V15.0001C22 14.6658 21.8329 14.3535 21.5547 14.1681L20.0547 13.1681C19.5952 12.8617 18.9743 12.9859 18.6679 13.4454C18.3616 13.9049 18.4858 14.5258 18.9453 14.8322L20 15.5353V20.0001Z" fill="#0000CC"/>
</g>
<path d="M12.7682 2.35982C12.5782 2.13182 12.2968 2 12 2C11.7032 2 11.4218 2.13182 11.2318 2.35982L8.73178 5.35982C8.58202 5.53953 8.5 5.76606 8.5 6V10.5194L6.37531 12.2191C6.13809 12.4089 6 12.6962 6 13V22H10V18C10 16.8954 10.8954 16 12 16C13.1046 16 14 16.8954 14 18V22H18V13C18 12.6962 17.8619 12.4089 17.6247 12.2191L15.5 10.5194V6C15.5 5.76606 15.418 5.53953 15.2682 5.35982L12.7682 2.35982Z" fill="#0000CC"/>
</svg>
