<svg width="24" height="24" viewBox="0 0 24 24" fill="none" xmlns="http://www.w3.org/2000/svg">
<path opacity="0.3" fill-rule="evenodd" clip-rule="evenodd" d="M10.3842 4.18584L17.2287 8.46366C17.9141 8.89201 18.4864 9.24967 18.9138 9.57448C19.349 9.90513 19.7575 10.2901 19.9839 10.8182C20.3073 11.5729 20.3073 12.4271 19.9839 13.1817C19.7575 13.7098 19.349 14.0948 18.9138 14.4254C18.4864 14.7502 17.9141 15.1079 17.2288 15.5362L10.3842 19.8141C9.62081 20.2912 8.9893 20.6859 8.46621 20.9498C7.94055 21.2149 7.37129 21.431 6.7596 21.3818C5.89751 21.3125 5.10728 20.8745 4.5916 20.1802C4.2257 19.6876 4.10726 19.0903 4.05348 18.504C3.99997 17.9206 3.99998 17.1759 4 16.2757V7.72426C3.99998 6.82402 3.99997 6.07931 4.05348 5.49591C4.10726 4.90963 4.2257 4.31236 4.5916 3.81971C5.10728 3.1254 5.89751 2.68741 6.7596 2.6181C7.37129 2.56893 7.94055 2.78504 8.46621 3.05016C8.9893 3.31399 9.62081 3.70869 10.3842 4.18584Z" fill="#0000CC"/>
</svg>
