<svg width="24" height="24" viewBox="0 0 24 24" fill="none" xmlns="http://www.w3.org/2000/svg">
<g opacity="0.3">
<path d="M11 6.5C11 5.56812 11 5.10218 11.1522 4.73463C11.3552 4.24458 11.7446 3.85523 12.2346 3.65224C12.6022 3.5 13.0681 3.5 14 3.5H19C19.9319 3.5 20.3978 3.5 20.7654 3.65224C21.2554 3.85523 21.6448 4.24458 21.8478 4.73463C22 5.10218 22 5.56812 22 6.5C22 7.43188 22 7.89782 21.8478 8.26537C21.6448 8.75542 21.2554 9.14477 20.7654 9.34776C20.3978 9.5 19.9319 9.5 19 9.5H14C13.0681 9.5 12.6022 9.5 12.2346 9.34776C11.7446 9.14477 11.3552 8.75542 11.1522 8.26537C11 7.89782 11 7.43188 11 6.5Z" fill="#0000CC"/>
<path d="M11.1522 15.7346C11 16.1022 11 16.5681 11 17.5C11 18.4319 11 18.8978 11.1522 19.2654C11.3552 19.7554 11.7446 20.1448 12.2346 20.3478C12.6022 20.5 13.0681 20.5 14 20.5H19C19.9319 20.5 20.3978 20.5 20.7654 20.3478C21.2554 20.1448 21.6448 19.7554 21.8478 19.2654C22 18.8978 22 18.4319 22 17.5C22 16.5681 22 16.1022 21.8478 15.7346C21.6448 15.2446 21.2554 14.8552 20.7654 14.6522C20.3978 14.5 19.9319 14.5 19 14.5H14C13.0681 14.5 12.6022 14.5 12.2346 14.6522C11.7446 14.8552 11.3552 15.2446 11.1522 15.7346Z" fill="#0000CC"/>
</g>
<path d="M7.99906 4C7.99906 5.10457 7.10363 6 5.99906 6C4.8945 6 3.99906 5.10457 3.99906 4C3.99906 2.89543 4.8945 2 5.99906 2C7.10363 2 7.99906 2.89543 7.99906 4Z" fill="#0000CC"/>
<path d="M3.59906 11C3.10564 11 2.85893 11 2.60604 10.8302C2.43073 10.7124 2.22179 10.3971 2.18171 10.1898C2.1239 9.89071 2.18721 9.74115 2.31383 9.44202C2.9213 8.00689 4.3426 7 5.99906 7C7.65553 7 9.07683 8.00689 9.6843 9.44202C9.81092 9.74115 9.87423 9.89071 9.81642 10.1898C9.77634 10.3971 9.5674 10.7124 9.39209 10.8302C9.1392 11 8.89249 11 8.39907 11H3.59906Z" fill="#0000CC"/>
<path d="M7.99906 15C7.99906 16.1046 7.10363 17 5.99906 17C4.8945 17 3.99906 16.1046 3.99906 15C3.99906 13.8954 4.8945 13 5.99906 13C7.10363 13 7.99906 13.8954 7.99906 15Z" fill="#0000CC"/>
<path d="M3.59906 22C3.10564 22 2.85893 22 2.60604 21.8302C2.43073 21.7125 2.22179 21.3971 2.18171 21.1898C2.1239 20.8907 2.18721 20.7411 2.31383 20.442C2.9213 19.0069 4.3426 18 5.99906 18C7.65553 18 9.07683 19.0069 9.6843 20.442C9.81092 20.7411 9.87423 20.8907 9.81642 21.1898C9.77634 21.3971 9.5674 21.7125 9.39209 21.8302C9.1392 22 8.89249 22 8.39907 22H3.59906Z" fill="#0000CC"/>
</svg>
