<svg width="24" height="24" viewBox="0 0 24 24" fill="none" xmlns="http://www.w3.org/2000/svg">
<path d="M17.7296 8.99482C17.3391 8.60429 16.7059 8.60426 16.3154 8.99477C15.9248 9.38528 15.9248 10.0184 16.3153 10.409L17.7296 8.99482ZM16.3217 10.4153C16.7122 10.8059 17.3454 10.8059 17.7359 10.4154C18.1264 10.0249 18.1265 9.39173 17.736 9.00119L16.3217 10.4153ZM12.0727 8.99482C11.6822 8.60429 11.0491 8.60426 10.6585 8.99477C10.268 9.38528 10.268 10.0184 10.6585 10.409L12.0727 8.99482ZM10.6648 10.4153C11.0554 10.8059 11.6885 10.8059 12.0791 10.4154C12.4696 10.0249 12.4696 9.39173 12.0791 9.00119L10.6648 10.4153ZM8.53716 13.9445C8.14662 13.554 7.51345 13.554 7.12294 13.9446C6.73244 14.3351 6.73246 14.9683 7.123 15.3588L8.53716 13.9445ZM7.12936 15.3651C7.5199 15.7557 8.15307 15.7556 8.54358 15.3651C8.93409 14.9746 8.93406 14.3414 8.54352 13.9509L7.12936 15.3651ZM12.7798 12.5303C12.3893 12.1398 11.7561 12.1398 11.3656 12.5303C10.9751 12.9209 10.9751 13.554 11.3656 13.9445L12.7798 12.5303ZM11.372 13.9509C11.7625 14.3414 12.3957 14.3414 12.7862 13.9509C13.1767 13.5604 13.1767 12.9272 12.7862 12.5367L11.372 13.9509ZM16.3153 10.409L16.3217 10.4153L17.736 9.00119L17.7296 8.99482L16.3153 10.409ZM10.6585 10.409L10.6648 10.4153L12.0791 9.00119L12.0727 8.99482L10.6585 10.409ZM7.123 15.3588L7.12936 15.3651L8.54352 13.9509L8.53716 13.9445L7.123 15.3588ZM11.3656 13.9445L11.372 13.9509L12.7862 12.5367L12.7798 12.5303L11.3656 13.9445Z" fill="#0000CC"/>
<path opacity="0.3" d="M19.2353 3.84739C16.7886 1.72638 13.2207 1.45041 10.4859 3.19704L10.281 3.32786C10.048 3.47669 9.79746 3.59618 9.53514 3.68362C8.26304 4.10766 7.19611 4.99313 6.54491 6.1653L5.99196 7.1606C5.76759 7.56446 5.49939 7.94236 5.19221 8.28745L3.95593 9.6763C1.5065 12.428 1.49524 16.5747 3.92968 19.3397C6.30555 22.0381 10.2941 22.6012 13.3241 20.6659L13.893 20.3026C14.1351 20.148 14.3878 20.0107 14.6493 19.8918L14.8111 19.8183C17.1395 18.76 19.0056 16.8938 20.0639 14.5654L20.329 13.9824L20.871 13.0036C22.5608 9.95255 21.8648 6.12686 19.2353 3.84739Z" fill="#0000CC"/>
</svg>
