<svg width="24" height="24" viewBox="0 0 24 24" fill="none" xmlns="http://www.w3.org/2000/svg">
<path opacity="0.3" fill-rule="evenodd" clip-rule="evenodd" d="M17.0002 3C17.0002 2.44772 16.5525 2 16.0002 2H8.00017C7.44789 2 7.00017 2.44772 7.00017 3C7.00017 3.55228 7.44789 4 8.00017 4H9.00017V6.03316C7.67664 5.87755 6.28901 6.2221 5.08071 7.23715C2.66963 9.2626 2.31235 12.6899 4.227 15.1123C4.93666 16.0101 6.31097 17.3474 7.61845 18.5607C8.94534 19.7921 10.2687 20.9553 10.9212 21.5234L10.9346 21.5351C10.9946 21.5874 11.0769 21.6591 11.1568 21.7183C11.2548 21.7909 11.4015 21.8854 11.5989 21.9433C11.8566 22.0189 12.1328 22.0189 12.3905 21.9433C12.5879 21.8854 12.7345 21.7909 12.8326 21.7183C12.9126 21.6591 12.9948 21.5874 13.0548 21.535L13.0682 21.5234C13.7206 20.9553 15.044 19.7921 16.3709 18.5607C17.6784 17.3474 19.0527 16.0101 19.7624 15.1123C21.668 12.7014 21.3678 9.24656 18.8982 7.22849C17.6836 6.23595 16.3094 5.89074 15.0002 6.03793V4H16.0002C16.5525 4 17.0002 3.55228 17.0002 3ZM16 11C16.5523 11 17 10.5523 17 10C17 9.44772 16.5523 9 16 9C15.4477 9 15 9.44772 15 10C15 10.5523 15.4477 11 16 11ZM8.37046 12.1145C9.67457 11.3878 11.2352 11.2819 12.6255 11.8257C12.7003 11.855 12.7763 11.8875 12.8864 11.9347L12.9013 11.9411C12.9992 11.983 13.0327 11.9973 13.0644 12.01C13.6994 12.2638 14.4022 12.2931 15.0561 12.0929C15.0887 12.0829 15.1234 12.0714 15.2244 12.0377L16.6838 11.5513C17.1292 11.4028 17.618 11.5842 17.8587 11.9874C18.0993 12.3906 18.0271 12.907 17.6849 13.2286L12.6849 17.9286C12.3022 18.2883 11.7065 18.2907 11.321 17.934L7.32097 14.234C7.08989 14.0203 6.97294 13.7102 7.00531 13.3971C7.03768 13.084 7.21559 12.8044 7.48551 12.6425L8.12644 12.2579C8.22918 12.1962 8.30027 12.1536 8.37046 12.1145ZM11.9993 7.33666C11.6873 7.08108 11.3521 6.85709 11 6.66912V4H13V6.66742C12.6479 6.85515 12.3123 7.07961 11.9993 7.33666Z" fill="#0000CC"/>
<path fill-rule="evenodd" clip-rule="evenodd" d="M16 11C16.5523 11 17 10.5523 17 10C17 9.44772 16.5523 9 16 9C15.4477 9 15 9.44772 15 10C15 10.5523 15.4477 11 16 11ZM8.37046 12.1145C9.67457 11.3878 11.2352 11.2819 12.6255 11.8257C12.7003 11.855 12.7763 11.8875 12.8864 11.9347L12.9013 11.9411C12.9992 11.983 13.0327 11.9973 13.0644 12.01C13.6994 12.2638 14.4022 12.2931 15.0561 12.0929C15.0887 12.0829 15.1234 12.0714 15.2244 12.0377L16.6838 11.5513C17.1292 11.4028 17.618 11.5842 17.8587 11.9874C18.0993 12.3906 18.0271 12.907 17.6849 13.2286L12.6849 17.9286C12.3022 18.2883 11.7065 18.2907 11.321 17.934L7.32097 14.234C7.08989 14.0203 6.97294 13.7102 7.00531 13.3971C7.03768 13.084 7.21559 12.8044 7.48551 12.6425L8.12644 12.2579C8.22918 12.1962 8.30027 12.1536 8.37046 12.1145ZM11.9993 7.33666C11.6873 7.08108 11.3521 6.85709 11 6.66912V4H13V6.66742C12.6479 6.85515 12.3123 7.07961 11.9993 7.33666Z" fill="#0000CC"/>
</svg>
