<svg width="24" height="24" viewBox="0 0 24 24" fill="none" xmlns="http://www.w3.org/2000/svg">
<path opacity="0.3" d="M8.7587 2H15.2413C16.0463 1.99999 16.7106 1.99998 17.2518 2.0442C17.8139 2.09012 18.3306 2.18868 18.816 2.43598C19.5686 2.81947 20.1805 3.43139 20.564 4.18404C20.8113 4.66938 20.9099 5.18608 20.9558 5.74818C21 6.28937 21 6.95372 21 7.75868V18C21 15.7909 19.2091 14 17 14H7C4.79086 14 3 15.7909 3 18V7.75869C2.99999 6.95373 2.99998 6.28936 3.0442 5.74818C3.09012 5.18608 3.18868 4.66938 3.43598 4.18404C3.81947 3.43139 4.43139 2.81947 5.18404 2.43598C5.66938 2.18868 6.18608 2.09012 6.74818 2.0442C7.28936 1.99998 7.95375 1.99999 8.7587 2Z" fill="#0000CC"/>
<path d="M12.4285 6.87141C12.6336 6.35863 12.3842 5.77666 11.8714 5.57155C11.3586 5.36643 10.7766 5.61585 10.5715 6.12863L9.57153 8.62863C9.44829 8.93672 9.48591 9.28588 9.67194 9.56065C9.85797 9.83542 10.1682 10 10.5 10H12.023L11.5715 11.1286C11.3664 11.6414 11.6158 12.2234 12.1286 12.4285C12.6414 12.6336 13.2234 12.3842 13.4285 11.8714L14.4285 9.37141C14.5517 9.06332 14.5141 8.71417 14.3281 8.43939C14.142 8.16462 13.8318 8.00002 13.5 8.00002H11.977L12.4285 6.87141Z" fill="#0000CC"/>
<path fill-rule="evenodd" clip-rule="evenodd" d="M3 18C3 15.7909 4.79086 14 7 14H17C19.2091 14 21 15.7909 21 18C21 20.2091 19.2091 22 17 22H7C4.79086 22 3 20.2091 3 18ZM6 18C6 17.4477 6.44772 17 7 17H9C9.55228 17 10 17.4477 10 18C10 18.5523 9.55228 19 9 19H7C6.44772 19 6 18.5523 6 18Z" fill="#0000CC"/>
</svg>
