<svg width="24" height="24" viewBox="0 0 24 24" fill="none" xmlns="http://www.w3.org/2000/svg">
<path opacity="0.3" fill-rule="evenodd" clip-rule="evenodd" d="M6.16146 2H17.8385C18.3657 1.99998 18.8205 1.99997 19.195 2.03057C19.5904 2.06287 19.9836 2.13419 20.362 2.32698C20.9265 2.6146 21.3854 3.07355 21.673 3.63803C21.8658 4.01641 21.9371 4.40963 21.9694 4.80498C22 5.17954 22 5.6343 22 6.16144V14.8386C22 15.3657 22 15.8205 21.9694 16.195C21.9371 16.5904 21.8658 16.9836 21.673 17.362C21.3854 17.9265 20.9265 18.3854 20.362 18.673C19.9836 18.8658 19.5904 18.9371 19.195 18.9694C18.8205 19 18.3657 19 17.8386 19H6.16144C5.6343 19 5.17954 19 4.80498 18.9694C4.40963 18.9371 4.01641 18.8658 3.63803 18.673C3.07355 18.3854 2.6146 17.9265 2.32698 17.362C2.13419 16.9836 2.06287 16.5904 2.03057 16.195C1.99997 15.8205 1.99998 15.3657 2 14.8386V6.16142C1.99998 5.63431 1.99997 5.17953 2.03057 4.80498C2.06287 4.40963 2.13419 4.01641 2.32698 3.63803C2.6146 3.07355 3.07355 2.6146 3.63803 2.32698C4.01641 2.13419 4.40963 2.06287 4.80498 2.03057C5.17953 1.99997 5.63434 1.99998 6.16146 2Z" fill="#0000CC"/>
<path d="M12 5C11.4477 5 11 5.44772 11 6V13H9V11C9 10.4477 8.55229 10 8 10C7.44772 10 7 10.4477 7 11V13C6.44772 13 6 13.4477 6 14C6 14.5523 6.44771 15 7 15H17C17.5523 15 18 14.5523 18 14C18 13.4477 17.5523 13 17 13V9C17 8.44772 16.5523 8 16 8C15.4477 8 15 8.44772 15 9V13H13V6C13 5.44772 12.5523 5 12 5Z" fill="#0000CC"/>
<path d="M7.13159 19H9.53529L7.83216 21.5547C7.5258 22.0142 6.90493 22.1384 6.44541 21.8321C5.98588 21.5257 5.8617 20.9048 6.16806 20.4453L7.13159 19Z" fill="#0000CC"/>
<path d="M14.4649 19H16.8686L17.8322 20.4453C18.1385 20.9048 18.0143 21.5257 17.5548 21.8321C17.0953 22.1384 16.4744 22.0142 16.1681 21.5547L14.4649 19Z" fill="#0000CC"/>
</svg>
