<svg width="24" height="24" viewBox="0 0 24 24" fill="none" xmlns="http://www.w3.org/2000/svg">
<path opacity="0.3" fill-rule="evenodd" clip-rule="evenodd" d="M4 11.8385V4H20V11.8386C20 12.3657 20 12.8205 19.9694 13.195C19.9371 13.5904 19.8658 13.9836 19.673 14.362C19.3854 14.9265 18.9265 15.3854 18.362 15.673C17.9836 15.8658 17.5904 15.9371 17.195 15.9694C16.8205 16 16.3657 16 15.8385 16H8.16145C7.6343 16 7.17954 16 6.80497 15.9694C6.40963 15.9371 6.01641 15.8658 5.63803 15.673C5.07355 15.3854 4.6146 14.9265 4.32698 14.362C4.13419 13.9836 4.06287 13.5904 4.03057 13.195C3.99997 12.8205 3.99998 12.3657 4 11.8385Z" fill="#0000CC"/>
<path d="M3 4H21C21.5523 4 22 3.55228 22 3C22 2.44772 21.5523 2 21 2H3C2.44772 2 2 2.44772 2 3C2 3.55228 2.44772 4 3 4Z" fill="#0000CC"/>
<path d="M13.0002 16H11.0002V17.4338L6.48566 20.1425C6.01207 20.4267 5.85851 21.0409 6.14266 21.5145C6.42681 21.9881 7.04107 22.1416 7.51465 21.8575L11.0002 19.7662V21C11.0002 21.5523 11.4479 22 12.0002 22C12.5524 22 13.0002 21.5523 13.0002 21V19.7662L16.4857 21.8575C16.9592 22.1416 17.5735 21.9881 17.8576 21.5145C18.1418 21.0409 17.9882 20.4267 17.5146 20.1425L13.0002 17.4338V16Z" fill="#0000CC"/>
<path fill-rule="evenodd" clip-rule="evenodd" d="M11.8321 7.44531C11.6659 7.19603 11.3967 7.03439 11.0985 7.00487C10.8004 6.97535 10.5047 7.08105 10.2929 7.2929L7.29289 10.2929C6.90237 10.6834 6.90237 11.3166 7.29289 11.7071C7.68342 12.0976 8.31658 12.0976 8.70711 11.7071L10.8446 9.56964L12.1679 11.5547C12.3341 11.804 12.6033 11.9656 12.9015 11.9951C13.1996 12.0247 13.4953 11.919 13.7071 11.7071L16.7071 8.70711C17.0976 8.31659 17.0976 7.68342 16.7071 7.2929C16.3166 6.90237 15.6834 6.90237 15.2929 7.2929L13.1554 9.43037L11.8321 7.44531Z" fill="#0000CC"/>
</svg>
