<svg width="24" height="24" viewBox="0 0 24 24" fill="none" xmlns="http://www.w3.org/2000/svg">
<rect opacity="0.3" x="4" y="4" width="16" height="11" fill="#0000CC"/>
<path d="M3 4H21C21.5523 4 22 3.55228 22 3C22 2.44772 21.5523 2 21 2H3C2.44772 2 2 2.44772 2 3C2 3.55228 2.44772 4 3 4Z" fill="#0000CC"/>
<path d="M3 15C2.44772 15 2 15.4477 2 16C2 16.5523 2.44772 17 3 17H10.5V19.3819C10.1931 19.6566 10 20.0557 10 20.5C10 21.3284 10.6716 22 11.5 22C12.3284 22 13 21.3284 13 20.5C13 20.0557 12.8069 19.6566 12.5 19.3819V17H21C21.5523 17 22 16.5523 22 16C22 15.4477 21.5523 15 21 15H3Z" fill="#0000CC"/>
<path d="M13 8C12.4477 8 12 7.55228 12 7C12 6.44772 12.4477 6 13 6H16C16.5523 6 17 6.44772 17 7V10C17 10.5523 16.5523 11 16 11C15.4477 11 15 10.5523 15 10V9.41421L12.7071 11.7071C12.3552 12.059 11.7981 12.0986 11.4 11.8L9 10V11C9 11.5523 8.55228 12 8 12C7.44772 12 7 11.5523 7 11V8C7 7.62123 7.214 7.27496 7.55279 7.10557C7.89157 6.93618 8.29698 6.97274 8.6 7.2L11.9062 9.67962L13.5858 8H13Z" fill="#0000CC"/>
</svg>
