<svg width="24" height="24" viewBox="0 0 24 24" fill="none" xmlns="http://www.w3.org/2000/svg">
<g opacity="0.3">
<path d="M22 12H2V14H22V12Z" fill="#0000CC"/>
<path d="M19 21.9824L19 15.9986C18.9992 15.4468 18.5517 15 18 15L16.8692 15C16.4982 14.9996 16.1716 14.9994 15.854 15.0683C15.4517 15.1557 15.0717 15.325 14.7376 15.5656C14.4738 15.7555 14.2556 15.9984 14.0077 16.2744L13.9567 16.331C13.6291 16.695 13.5604 16.7634 13.4937 16.8115C13.3823 16.8917 13.2556 16.9481 13.1215 16.9772C13.0411 16.9947 12.9443 17 12.4546 17H11.5454C11.0557 17 10.9589 16.9947 10.8785 16.9772C10.7444 16.9481 10.6177 16.8917 10.5063 16.8115C10.4396 16.7634 10.3709 16.695 10.0433 16.331L9.99234 16.2744C9.74443 15.9984 9.52616 15.7555 9.26243 15.5656C8.92834 15.325 8.5483 15.1557 8.14597 15.0683C7.82837 14.9994 7.50179 14.9996 7.13084 15L6 15C5.44771 15 5 15.4477 5 16V21.9824C5.33399 22 5.72263 22 6.16144 22H17.8386C18.2774 22 18.666 22 19 21.9824Z" fill="#0000CC"/>
<path d="M5 9.5C5 8.94772 5.44771 8.5 6 8.5H9C9.55228 8.5 10 8.94772 10 9.5C10 10.0523 9.55228 10.5 9 10.5H6C5.44771 10.5 5 10.0523 5 9.5Z" fill="#0000CC"/>
<path d="M16 9.5C16 10.0523 15.5523 10.5 15 10.5C14.4477 10.5 14 10.0523 14 9.5C14 8.94772 14.4477 8.5 15 8.5C15.5523 8.5 16 8.94772 16 9.5Z" fill="#0000CC"/>
</g>
<path d="M8.56811 2C8.31573 1.99997 8.06993 1.99994 7.86178 2.01695C7.63318 2.03563 7.36345 2.07969 7.09202 2.21799C6.7157 2.40974 6.40974 2.7157 6.21799 3.09202C6.07969 3.36345 6.03563 3.63318 6.01695 3.86178C5.99994 4.06993 5.99997 4.31572 6 4.56809L6.00001 5.02714C6.49178 4.99998 7.07445 4.99999 7.7587 5H8.00001V4.60001C8.00001 4.30348 8.00078 4.14122 8.01031 4.02464L8.01145 4.01145L8.02464 4.01031C8.14122 4.00078 8.30348 4.00001 8.60001 4.00001H15.4C15.6965 4.00001 15.8588 4.00078 15.9754 4.01031L15.9886 4.01145L15.9897 4.02464C15.9992 4.14122 16 4.30348 16 4.60001V5H16.2413C16.9256 4.99999 17.5082 4.99998 18 5.02714L18 4.56812C18 4.31574 18.0001 4.06994 17.9831 3.86178C17.9644 3.63318 17.9203 3.36345 17.782 3.09203C17.5903 2.7157 17.2843 2.40974 16.908 2.21799C16.6366 2.07969 16.3668 2.03563 16.1382 2.01695C15.9301 1.99994 15.6843 1.99997 15.4319 2L8.56811 2Z" fill="#0000CC"/>
<path fill-rule="evenodd" clip-rule="evenodd" d="M7.7587 5H16.2413C17.0463 4.99999 17.7106 4.99998 18.2518 5.0442C18.8139 5.09012 19.3306 5.18868 19.816 5.43598C20.5686 5.81947 21.1805 6.43139 21.564 7.18404C21.8113 7.66938 21.9099 8.18608 21.9558 8.74818C22 9.28937 22 9.95372 22 10.7587V12H2V10.7586C1.99999 9.95372 1.99998 9.28935 2.0442 8.74818C2.09012 8.18608 2.18869 7.66938 2.43598 7.18404C2.81947 6.43139 3.43139 5.81947 4.18404 5.43598C4.66938 5.18868 5.18608 5.09012 5.74818 5.0442C6.28937 4.99998 6.95375 4.99999 7.7587 5ZM6 8.5C5.44772 8.5 5 8.94772 5 9.5C5 10.0523 5.44772 10.5 6 10.5H9C9.55229 10.5 10 10.0523 10 9.5C10 8.94772 9.55229 8.5 9 8.5H6ZM16 9.5C16 10.0523 15.5523 10.5 15 10.5C14.4477 10.5 14 10.0523 14 9.5C14 8.94772 14.4477 8.5 15 8.5C15.5523 8.5 16 8.94772 16 9.5ZM19 9.5C19 10.0523 18.5523 10.5 18 10.5C17.4477 10.5 17 10.0523 17 9.5C17 8.94772 17.4477 8.5 18 8.5C18.5523 8.5 19 8.94772 19 9.5Z" fill="#0000CC"/>
<path d="M2 14V17.8385C1.99998 18.3657 1.99997 18.8205 2.03057 19.195C2.06287 19.5904 2.13419 19.9836 2.32698 20.362C2.6146 20.9265 3.07355 21.3854 3.63803 21.673C4.01641 21.8658 4.40963 21.9371 4.80498 21.9694C4.86775 21.9746 4.93276 21.9788 5 21.9824V16C5 15.4477 5.44772 15 6 15L7.13084 15C7.50179 14.9996 7.82837 14.9994 8.14597 15.0683C8.5483 15.1557 8.92834 15.325 9.26243 15.5656C9.52616 15.7555 9.74443 15.9984 9.99234 16.2744L10.0433 16.331C10.3709 16.695 10.4396 16.7634 10.5063 16.8115C10.6177 16.8917 10.7444 16.9481 10.8785 16.9772C10.9589 16.9947 11.0557 17 11.5454 17H12.4546C12.9443 17 13.0411 16.9947 13.1215 16.9772C13.2556 16.9481 13.3823 16.8917 13.4937 16.8115C13.5604 16.7634 13.6291 16.695 13.9567 16.331L14.0077 16.2744C14.2556 15.9984 14.4738 15.7555 14.7376 15.5656C15.0717 15.325 15.4517 15.1557 15.854 15.0683C16.1716 14.9994 16.4982 14.9996 16.8692 15L18 15C18.5517 15 18.9992 15.4468 19 15.9986L19 21.9824C18.9669 21.9841 18.9333 21.9857 18.8992 21.9871C19.0027 21.9828 19.1014 21.9771 19.195 21.9694C19.5904 21.9371 19.9836 21.8658 20.362 21.673C20.9265 21.3854 21.3854 20.9265 21.673 20.362C21.8658 19.9836 21.9371 19.5904 21.9694 19.195C22 18.8205 22 18.3657 22 17.8386V14H2Z" fill="#0000CC"/>
</svg>
