<svg width="24" height="24" viewBox="0 0 24 24" fill="none" xmlns="http://www.w3.org/2000/svg">
<g opacity="0.3">
<path d="M20.399 11.3763L16.0002 11.3763C16.0002 9.91991 15.2183 8.64981 14.0549 7.95027L16.3208 4.17343C16.6025 3.70389 16.7433 3.46912 16.9751 3.33918C17.1594 3.23584 17.4369 3.18973 17.6448 3.2279C17.9061 3.2759 18.086 3.42772 18.4457 3.73137C20.2344 5.24129 21.486 7.3676 21.8727 9.78271C21.9472 10.2477 21.9844 10.4802 21.8909 10.7286C21.8165 10.9263 21.6343 11.1399 21.4509 11.2446C21.2205 11.3763 20.9466 11.3763 20.399 11.3763Z" fill="#0000CC"/>
<path d="M12.0002 21.3762C13.3133 21.3762 14.5673 21.1232 15.716 20.6631C16.1516 20.4887 16.3694 20.4015 16.5344 20.1936C16.6656 20.0283 16.7554 19.7618 16.7509 19.5508C16.7454 19.2854 16.6049 19.051 16.3239 18.5823L14.0599 14.8054C13.4581 15.1678 12.7531 15.3763 11.9993 15.3763C11.2468 15.3763 10.5428 15.1684 9.94161 14.8071L7.67766 18.5824C7.39653 19.0512 7.25596 19.2856 7.25036 19.5511C7.2459 19.7621 7.33569 20.0287 7.4669 20.194C7.63197 20.4019 7.84982 20.4891 8.28551 20.6635C9.43397 21.1233 10.6876 21.3762 12.0002 21.3762Z" fill="#0000CC"/>
<path d="M7.67694 4.17444L9.94155 7.94797C8.77913 8.64773 8.00021 9.92063 8.00021 11.3763H3.60021C3.05257 11.3763 2.77875 11.3763 2.54827 11.2447C2.36488 11.1399 2.18272 10.9263 2.10831 10.7286C2.01478 10.4802 2.05202 10.2477 2.12648 9.78272C2.51312 7.36833 3.76402 5.24258 5.55189 3.73273C5.91157 3.42899 6.0914 3.27712 6.35276 3.22907C6.5606 3.19086 6.83811 3.23693 7.02246 3.34024C7.25428 3.47016 7.39516 3.70492 7.67694 4.17444Z" fill="#0000CC"/>
</g>
<path d="M12 9.37622C10.8954 9.37622 10 10.2717 10 11.3762C10 12.4808 10.8954 13.3762 12 13.3762C13.1046 13.3762 14 12.4808 14 11.3762C14 10.2717 13.1046 9.37622 12 9.37622Z" fill="#0000CC"/>
</svg>
