<svg width="24" height="24" viewBox="0 0 24 24" fill="none" xmlns="http://www.w3.org/2000/svg">
<rect opacity="0.3" x="2" y="7" width="20" height="14" rx="3" fill="#0000CC"/>
<path d="M6.96502 3.13639C7.47667 2.9993 8.06733 2.99962 8.86272 3.00005L19.0003 3.0001C19.5526 3.0001 20.0003 3.44781 20.0003 4.0001C20.0003 4.55238 19.5526 5.0001 19.0003 5.0001H9.0003C8.00595 5.0001 7.70494 5.00869 7.48266 5.06824C6.79248 5.25318 6.25338 5.79227 6.06845 6.48246C6.03655 6.6015 6.01927 6.74313 6.0101 7.00175C5.09073 7.00795 4.48103 7.03781 4.00391 7.18158C4.01268 6.71045 4.04176 6.31873 4.1366 5.96482C4.50646 4.58445 5.58466 3.50626 6.96502 3.13639Z" fill="#0000CC"/>
<path fill-rule="evenodd" clip-rule="evenodd" d="M8.00024 11.0001C6.34339 11.0001 5.00024 12.3433 5.00024 14.0001C5.00024 15.657 6.34339 17.0001 8.00024 17.0001C9.6571 17.0001 11.0002 15.657 11.0002 14.0001C11.0002 12.3433 9.6571 11.0001 8.00024 11.0001Z" fill="#0000CC"/>
<path d="M14.0002 11.0001C13.448 11.0001 13.0002 11.4478 13.0002 12.0001C13.0002 12.5524 13.448 13.0001 14.0002 13.0001H18.0002C18.5525 13.0001 19.0002 12.5524 19.0002 12.0001C19.0002 11.4478 18.5525 11.0001 18.0002 11.0001H14.0002Z" fill="#0000CC"/>
<path d="M14.0002 15.0001C13.448 15.0001 13.0002 15.4478 13.0002 16.0001C13.0002 16.5524 13.448 17.0001 14.0002 17.0001H18.0002C18.5525 17.0001 19.0002 16.5524 19.0002 16.0001C19.0002 15.4478 18.5525 15.0001 18.0002 15.0001H14.0002Z" fill="#0000CC"/>
</svg>
