<svg width="24" height="24" viewBox="0 0 24 24" fill="none" xmlns="http://www.w3.org/2000/svg">
<path opacity="0.3" fill-rule="evenodd" clip-rule="evenodd" d="M8.16146 2H15.8385C16.3657 1.99998 16.8205 1.99997 17.195 2.03057C17.5904 2.06287 17.9836 2.13419 18.362 2.32698C18.9265 2.6146 19.3854 3.07354 19.673 3.63803C19.8658 4.01641 19.9371 4.40963 19.9694 4.80497C20 5.17955 20 5.63432 20 6.16148V21C20 21.3844 19.7797 21.7348 19.4332 21.9013C19.0867 22.0678 18.6755 22.021 18.3753 21.7809L16.5 20.2806L14.6247 21.7809C14.2268 22.0992 13.6532 22.0674 13.2929 21.7071L12 20.4142L10.7071 21.7071C10.3468 22.0674 9.7732 22.0992 9.37531 21.7809L7.5 20.2806L5.6247 21.7809C5.32453 22.021 4.91328 22.0678 4.56681 21.9013C4.22035 21.7348 4 21.3844 4 21L4 6.16146C3.99998 5.63431 3.99997 5.17955 4.03057 4.80497C4.06287 4.40963 4.13419 4.01641 4.32698 3.63803C4.6146 3.07354 5.07354 2.6146 5.63803 2.32698C6.01641 2.13419 6.40963 2.06287 6.80497 2.03057C7.17955 1.99997 7.63431 1.99998 8.16146 2Z" fill="#0000CC"/>
<path d="M7 7C7 6.44772 7.44772 6 8 6H12C12.5523 6 13 6.44772 13 7C13 7.55228 12.5523 8 12 8H8C7.44772 8 7 7.55228 7 7Z" fill="#0000CC"/>
<path d="M7 11C7 10.4477 7.44772 10 8 10H16C16.5523 10 17 10.4477 17 11C17 11.5523 16.5523 12 16 12H8C7.44772 12 7 11.5523 7 11Z" fill="#0000CC"/>
<path d="M7 15C7 14.4477 7.44772 14 8 14H16C16.5523 14 17 14.4477 17 15C17 15.5523 16.5523 16 16 16H8C7.44772 16 7 15.5523 7 15Z" fill="#0000CC"/>
</svg>
