<svg width="24" height="24" viewBox="0 0 24 24" fill="none" xmlns="http://www.w3.org/2000/svg">
<path opacity="0.3" fill-rule="evenodd" clip-rule="evenodd" d="M2.32698 5.63803C2 6.27976 2 7.11984 2 8.8V15.2C2 16.8802 2 17.7202 2.32698 18.362C2.6146 18.9265 3.07354 19.3854 3.63803 19.673C4.27976 20 5.11984 20 6.8 20H17.2C18.8802 20 19.7202 20 20.362 19.673C20.9265 19.3854 21.3854 18.9265 21.673 18.362C22 17.7202 22 16.8802 22 15.2V8.8C22 7.11984 22 6.27976 21.673 5.63803C21.3854 5.07354 20.9265 4.6146 20.362 4.32698C19.7202 4 18.8802 4 17.2 4H6.8C5.11984 4 4.27976 4 3.63803 4.32698C3.07354 4.6146 2.6146 5.07354 2.32698 5.63803Z" fill="#0000CC"/>
<path fill-rule="evenodd" clip-rule="evenodd" d="M7.70711 8.29289C7.31658 7.90237 6.68342 7.90237 6.29289 8.29289C5.90237 8.68342 5.90237 9.31658 6.29289 9.70711L8.58579 12L6.29289 14.2929C5.90237 14.6834 5.90237 15.3166 6.29289 15.7071C6.68342 16.0976 7.31658 16.0976 7.70711 15.7071L10.7071 12.7071C11.0976 12.3166 11.0976 11.6834 10.7071 11.2929L7.70711 8.29289ZM11 14C10.4477 14 10 14.4477 10 15C10 15.5523 10.4477 16 11 16H17C17.5523 16 18 15.5523 18 15C18 14.4477 17.5523 14 17 14H11Z" fill="#0000CC"/>
</svg>
