<svg width="24" height="24" viewBox="0 0 24 24" fill="none" xmlns="http://www.w3.org/2000/svg">
<path opacity="0.3" fill-rule="evenodd" clip-rule="evenodd" d="M5.02518 6.31174C6.67394 4.29222 9.18646 3 12 3C16.9706 3 21 7.02944 21 12C21 12.3801 20.9764 12.7552 20.9304 13.1237C20.8621 13.6718 20.3624 14.0607 19.8144 13.9923C19.2663 13.924 18.8775 13.4243 18.9458 12.8763C18.9815 12.5896 19 12.2972 19 12C19 8.13401 15.866 5 12 5C9.81239 5 7.85967 6.00232 6.57443 7.57657C6.22516 8.00439 5.5952 8.06806 5.16739 7.71879C4.73957 7.36951 4.6759 6.73956 5.02518 6.31174ZM4.18563 10.0077C4.73367 10.076 5.12255 10.5757 5.05421 11.1237C5.01846 11.4104 5 11.7028 5 12C5 15.866 8.13401 19 12 19C14.0906 19 15.9661 18.0848 17.2503 16.6299C17.6157 16.2158 18.2477 16.1764 18.6617 16.5419C19.0758 16.9074 19.1152 17.5393 18.7497 17.9534C17.1021 19.8202 14.6882 21 12 21C7.02944 21 3 16.9706 3 12C3 11.6199 3.02362 11.2448 3.06958 10.8763C3.13792 10.3282 3.63759 9.93935 4.18563 10.0077Z" fill="#0000CC"/>
<path fill-rule="evenodd" clip-rule="evenodd" d="M5.7998 3C6.35209 3 6.7998 3.44772 6.7998 4V5.99995L8.79983 6C9.35211 6.00001 9.79982 6.44774 9.7998 7.00002C9.79979 7.55231 9.35207 8.00001 8.79978 8L5.79978 7.99993C5.24751 7.99992 4.7998 7.55221 4.7998 6.99993V4C4.7998 3.44772 5.24752 3 5.7998 3ZM14 17C14 16.4477 14.4477 16 15 16H18C18.5523 16 19 16.4477 19 17V20C19 20.5523 18.5523 21 18 21C17.4477 21 17 20.5523 17 20V18H15C14.4477 18 14 17.5523 14 17Z" fill="#0000CC"/>
</svg>
