<svg width="24" height="24" viewBox="0 0 24 24" fill="none" xmlns="http://www.w3.org/2000/svg">
<path opacity="0.3" fill-rule="evenodd" clip-rule="evenodd" d="M3 12C3 7.02944 7.02944 3 12 3C12.3573 3 12.7101 3.02087 13.0572 3.06153C13.6057 3.12579 13.9983 3.62256 13.9341 4.1711C13.8698 4.71963 13.373 5.11221 12.8245 5.04795C12.5544 5.01631 12.2793 5 12 5C8.13401 5 5 8.13401 5 12C5 14.2101 6.02312 16.1806 7.62547 17.4651C8.05639 17.8106 8.12569 18.4399 7.78025 18.8708C7.43481 19.3018 6.80545 19.3711 6.37453 19.0256C4.31903 17.3779 3 14.8426 3 12ZM16.2198 5.12916C16.5652 4.69824 17.1946 4.62894 17.6255 4.97438C19.681 6.62213 21 9.15737 21 12C21 16.9706 16.9706 21 12 21C11.6313 21 11.2674 20.9778 10.9096 20.9345C10.3613 20.8682 9.97059 20.37 10.0369 19.8217C10.1032 19.2734 10.6014 18.8827 11.1497 18.949C11.428 18.9826 11.7118 19 12 19C15.866 19 19 15.866 19 12C19 9.78986 17.9769 7.81937 16.3745 6.53488C15.9436 6.18944 15.8743 5.56008 16.2198 5.12916Z" fill="#0000CC"/>
<path fill-rule="evenodd" clip-rule="evenodd" d="M10.2921 1.2937C10.6822 0.90273 11.3153 0.902009 11.7063 1.29209L13.7063 3.28754C13.8941 3.47486 13.9997 3.72909 14 3.99431C14.0003 4.25953 13.8952 4.514 13.7079 4.70175L11.7079 6.7063C11.3178 7.09727 10.6847 7.09799 10.2937 6.70791C9.90273 6.31783 9.90201 5.68467 10.2921 5.2937L11.5858 3.99706L10.2937 2.70791C9.90273 2.31783 9.90201 1.68467 10.2921 1.2937ZM13.7231 17.3093C14.1046 17.7086 14.0901 18.3416 13.6908 18.7231L12.4146 19.9424L13.7224 21.3086C14.1043 21.7075 14.0905 22.3405 13.6915 22.7224C13.2925 23.1043 12.6595 23.0905 12.2776 22.6916L10.2776 20.6023C10.0941 20.4106 9.99432 20.1538 10.0002 19.8884C10.0062 19.6231 10.1173 19.371 10.3092 19.1877L12.3092 17.277C12.7086 16.8955 13.3416 16.9099 13.7231 17.3093Z" fill="#0000CC"/>
</svg>
