<svg width="24" height="24" viewBox="0 0 24 24" fill="none" xmlns="http://www.w3.org/2000/svg">
<path opacity="0.3" fill-rule="evenodd" clip-rule="evenodd" d="M6.66848 6.03542C8.08431 4.76888 9.95117 4 12 4C16.4183 4 20 7.58172 20 12C20 16.4183 16.4183 20 12 20C8.194 20 5.00661 17.3412 4.19823 13.7787C4.07602 13.2401 3.54033 12.9026 3.00174 13.0248C2.46315 13.147 2.1256 13.6827 2.24782 14.2213C3.25836 18.6747 7.23966 22 12 22C17.5229 22 22 17.5228 22 12C22 6.47715 17.5229 2 12 2C9.43947 2 7.10162 2.96367 5.33309 4.54655L2.32991 7.25773C1.91996 7.62782 1.88765 8.26016 2.25774 8.6701C2.62783 9.08005 3.26016 9.11236 3.67011 8.74227L6.66848 6.03542Z" fill="#0000CC"/>
<path fill-rule="evenodd" clip-rule="evenodd" d="M3 2C3.55228 2 4 2.44772 4 3V7H8C8.55228 7 9 7.44772 9 8C9 8.55228 8.55228 9 8 9H3C2.44772 9 2 8.55228 2 8V3C2 2.44772 2.44772 2 3 2Z" fill="#0000CC"/>
</svg>
