<svg width="24" height="24" viewBox="0 0 24 24" fill="none" xmlns="http://www.w3.org/2000/svg">
<path opacity="0.3" fill-rule="evenodd" clip-rule="evenodd" d="M8.16146 5.00128H15.8385C16.3657 5.00126 16.8205 5.00125 17.195 5.03185C17.5904 5.06415 17.9836 5.13547 18.362 5.32826C18.9265 5.61588 19.3854 6.07483 19.673 6.63931C19.8658 7.01769 19.9371 7.41091 19.9694 7.80626C20 8.18083 20 8.6356 20 9.16276V17.8398C20 18.367 20 18.8217 19.9694 19.1963C19.9371 19.5917 19.8658 19.9849 19.673 20.3633C19.3854 20.9277 18.9265 21.3867 18.362 21.6743C17.9836 21.8671 17.5904 21.9384 17.195 21.9707C16.8205 22.0013 16.3657 22.0013 15.8385 22.0013H8.16148C7.63432 22.0013 7.17955 22.0013 6.80497 21.9707C6.40963 21.9384 6.01641 21.8671 5.63803 21.6743C5.07354 21.3867 4.6146 20.9277 4.32698 20.3633C4.13419 19.9849 4.06287 19.5917 4.03057 19.1963C3.99997 18.8217 3.99998 18.367 4 17.8398V9.16274C3.99998 8.63559 3.99997 8.18083 4.03057 7.80626C4.06287 7.41091 4.13419 7.01769 4.32698 6.63931C4.6146 6.07483 5.07354 5.61588 5.63803 5.32826C6.01641 5.13547 6.40963 5.06415 6.80497 5.03185C7.17955 5.00125 7.63431 5.00126 8.16146 5.00128Z" fill="#0000CC"/>
<path d="M14.958 3.46156C14.7953 3.50461 14.5743 3.58395 14.1953 3.72175L10.6766 5.00128H8.16145C7.63431 5.00126 7.17954 5.00125 6.80497 5.03185C6.40963 5.06415 6.01641 5.13547 5.63803 5.32826C5.07354 5.61588 4.6146 6.07483 4.32698 6.63931C4.13419 7.01769 4.06287 7.41091 4.03057 7.80626C4.007 8.09475 4.00159 8.43082 4.00036 8.81089V7.68234L4.00018 7.5648C3.99907 7.08053 3.99795 6.59476 4.16649 6.15583C4.31323 5.77365 4.55158 5.43335 4.8606 5.16484C5.21551 4.85645 5.67242 4.69149 6.12792 4.52703L6.23843 4.48704L13.5485 1.82882C13.878 1.70899 14.1855 1.59714 14.4464 1.5281C14.7209 1.45547 15.0712 1.39267 15.4507 1.48036C15.9556 1.59705 16.3956 1.9052 16.6778 2.33988C16.8899 2.66653 16.9506 3.01724 16.9761 3.30003C17.0004 3.56883 17.0004 3.89604 17.0004 4.2466L17.0004 5.01892C16.6663 5.00125 16.2775 5.00127 15.8386 5.00128H15.0004V4.28563C15.0004 3.8824 14.9994 3.64756 14.9843 3.47996L14.9819 3.45543L14.958 3.46156Z" fill="#0000CC"/>
<path d="M8 10.0013C8 9.449 8.44771 9.00128 9 9.00128H15C15.5523 9.00128 16 9.449 16 10.0013C16 10.5536 15.5523 11.0013 15 11.0013H9C8.44771 11.0013 8 10.5536 8 10.0013Z" fill="#0000CC"/>
<path d="M8 13.5013C8 12.949 8.44771 12.5013 9 12.5013H15C15.5523 12.5013 16 12.949 16 13.5013C16 14.0536 15.5523 14.5013 15 14.5013H9C8.44771 14.5013 8 14.0536 8 13.5013Z" fill="#0000CC"/>
<path d="M9 16.0013C8.44771 16.0013 8 16.449 8 17.0013C8 17.5536 8.44771 18.0013 9 18.0013H15C15.5523 18.0013 16 17.5536 16 17.0013C16 16.449 15.5523 16.0013 15 16.0013H9Z" fill="#0000CC"/>
</svg>
