<svg width="24" height="24" viewBox="0 0 24 24" fill="none" xmlns="http://www.w3.org/2000/svg">
<path opacity="0.3" fill-rule="evenodd" clip-rule="evenodd" d="M10.8648 2.19802C11.5981 1.93399 12.4019 1.93399 13.1352 2.19802C13.6265 2.37492 14.0181 2.6876 14.3812 3.04804C14.7304 3.39473 15.1213 3.85685 15.5869 4.40734L19.506 9.04026C19.8388 9.43358 20.1236 9.77028 20.3388 10.0673C20.5662 10.3811 20.7595 10.7079 20.8715 11.0949C21.0428 11.6864 21.0428 12.3136 20.8715 12.9051C20.7595 13.2921 20.5662 13.6189 20.3388 13.9327C20.1236 14.2297 19.8388 14.5664 19.506 14.9598L15.5869 19.5926C15.1213 20.1431 14.7304 20.6053 14.3812 20.952C14.0181 21.3124 13.6265 21.6251 13.1352 21.802C12.4019 22.066 11.5981 22.066 10.8648 21.802C10.3735 21.6251 9.98191 21.3124 9.61884 20.952C9.26963 20.6053 8.87874 20.1432 8.41309 19.5927L4.49396 14.9597C4.16122 14.5664 3.87638 14.2297 3.66118 13.9327C3.43378 13.6189 3.24052 13.2921 3.12847 12.9051C2.95718 12.3136 2.95718 11.6864 3.12847 11.0949C3.24052 10.7079 3.43378 10.3811 3.66118 10.0673C3.87638 9.77028 4.16123 9.43357 4.49398 9.04024L8.41306 4.40735C8.87872 3.85685 9.26962 3.39474 9.61884 3.04804C9.98191 2.6876 10.3735 2.37492 10.8648 2.19802Z" fill="#0000CC"/>
</svg>
