<svg width="24" height="24" viewBox="0 0 24 24" fill="none" xmlns="http://www.w3.org/2000/svg">
<g opacity="0.3">
<path d="M7.00138 12.648C6.88989 12.7875 6.77844 12.927 6.66699 13.0666C6.29273 13.5351 5.91846 14.0036 5.54278 14.471C5.44134 14.5972 5.31356 14.7562 5.21911 14.9411C5.13712 15.1016 5.0772 15.2724 5.04097 15.4489C4.99542 15.6709 5.00014 15.8935 5.00014 16.0615V21.0002C5.00014 21.4249 5.26838 21.8033 5.66913 21.9439C6.06988 22.0844 6.51571 21.9565 6.78101 21.6249L10.4987 16.9778C10.4222 16.9736 10.3482 16.9687 10.2767 16.9628C9.79801 16.9237 9.34305 16.8388 8.9112 16.6187C8.74972 16.5365 8.59564 16.4422 8.4501 16.337L7.00014 18.1494V16.0615C7.00014 15.95 7.00032 15.8947 7.00191 15.8546C7.00191 15.8546 7.09364 15.7341 7.13162 15.6867L7.47398 15.2587C7.44171 15.2032 7.41092 15.1466 7.38164 15.0892C7.1616 14.6573 7.07666 14.2024 7.03754 13.7236C7.01212 13.4125 7.00398 13.0545 7.00138 12.648Z" fill="#0000CC"/>
<path d="M15.5502 16.337C15.4047 16.4422 15.2506 16.5365 15.0891 16.6187C14.6573 16.8388 14.2023 16.9237 13.7236 16.9628C13.6521 16.9687 13.5781 16.9736 13.5016 16.9778L17.2193 21.6249C17.4846 21.9565 17.9304 22.0844 18.3311 21.9439C18.7319 21.8033 19.0001 21.4249 19.0001 21.0002V16.0615C19.0001 15.8935 19.0049 15.6709 18.9593 15.4489C18.9231 15.2724 18.8632 15.1016 18.7812 14.9411C18.6781 14.7393 18.5353 14.5684 18.4304 14.4373L16.9989 12.6479C16.9963 13.0544 16.9882 13.4125 16.9628 13.7236C16.9237 14.2024 16.8387 14.6573 16.6187 15.0892C16.5894 15.1467 16.5586 15.2032 16.5263 15.2587L16.8687 15.6867C16.9123 15.7412 16.9569 15.7953 16.9983 15.8517C17.0011 15.9215 17.0001 15.9916 17.0001 16.0615V18.1494L15.5502 16.337Z" fill="#0000CC"/>
<path d="M13.0001 16.9949C12.7089 17.0002 12.3892 17.0002 12.0403 17.0002H11.96C11.6111 17.0002 11.2913 17.0002 11.0001 16.9949V20.0002C11.0001 20.5525 11.4479 21.0002 12.0001 21.0002C12.5524 21.0002 13.0001 20.5525 13.0001 20.0002V16.9949Z" fill="#0000CC"/>
</g>
<path fill-rule="evenodd" clip-rule="evenodd" d="M12.0002 2C12.2858 2 12.5578 2.12215 12.7476 2.33564L16.3434 6.38097C16.464 6.51661 16.628 6.6929 16.747 6.9062C16.8415 7.07574 16.9108 7.25814 16.9528 7.44766C17.0056 7.6861 17.0002 7.92683 17.0002 8.10832V12.0401C17.0002 12.706 17.0002 13.2655 16.9628 13.7234C16.9237 14.2021 16.8387 14.6571 16.6187 15.089C16.2831 15.7475 15.7477 16.283 15.0891 16.6185C14.6573 16.8386 14.2023 16.9235 13.7236 16.9626C13.2657 17 12.7062 17 12.0403 17H11.96C11.2941 17 10.7346 17 10.2767 16.9626C9.79801 16.9235 9.34305 16.8386 8.9112 16.6185C8.25263 16.283 7.7172 15.7475 7.38164 15.089C7.1616 14.6571 7.07666 14.2021 7.03754 13.7234C7.00013 13.2656 7.00015 12.706 7.00016 12.0402L7.00016 8.10832C7.00016 7.92683 6.99468 7.6861 7.0475 7.44766C7.08948 7.25814 7.15882 7.07574 7.25336 6.9062C7.37229 6.6929 7.53632 6.51663 7.6569 6.38097L11.2528 2.33564C11.4425 2.12215 11.7145 2 12.0002 2ZM14.2178 7L12.0002 4.5052L9.78256 7H14.2178Z" fill="#0000CC"/>
</svg>
