<svg width="24" height="24" viewBox="0 0 24 24" fill="none" xmlns="http://www.w3.org/2000/svg">
<path opacity="0.3" fill-rule="evenodd" clip-rule="evenodd" d="M12.5 4.5C8.35786 4.5 5 7.85786 5 12C5 13.3634 5.36288 14.639 5.99665 15.7387C6.27241 16.2172 6.10805 16.8287 5.62954 17.1044C5.15103 17.3802 4.53957 17.2158 4.2638 16.7373C3.45969 15.342 3 13.7232 3 12C3 6.75329 7.25329 2.5 12.5 2.5C17.7467 2.5 22 6.75329 22 12C22 17.2467 17.7467 21.5 12.5 21.5C11.9477 21.5 11.5 21.0523 11.5 20.5C11.5 19.9477 11.9477 19.5 12.5 19.5C16.6421 19.5 20 16.1421 20 12C20 7.85786 16.6421 4.5 12.5 4.5Z" fill="#0000CC"/>
<path fill-rule="evenodd" clip-rule="evenodd" d="M7.14836 11.4366C7.67108 11.6149 7.95032 12.1831 7.77206 12.7059L6.41782 16.6769C6.33221 16.9279 6.15039 17.1347 5.91236 17.2516C5.67433 17.3686 5.39959 17.3862 5.14856 17.3006L1.1775 15.9464C0.654773 15.7681 0.375533 15.1999 0.553796 14.6771C0.73206 14.1544 1.30032 13.8752 1.82305 14.0534L4.84764 15.0849L5.87911 12.0603C6.05737 11.5376 6.62564 11.2583 7.14836 11.4366Z" fill="#0000CC"/>
</svg>
