<svg width="24" height="24" viewBox="0 0 24 24" fill="none" xmlns="http://www.w3.org/2000/svg">
<path opacity="0.3" fill-rule="evenodd" clip-rule="evenodd" d="M11.9991 4.00098C7.88263 4.00098 4.49118 7.11142 4.04893 11.1098C3.98821 11.6587 3.49399 12.0545 2.94505 11.9938C2.39611 11.9331 2.00033 11.4389 2.06105 10.8899C2.61413 5.88955 6.85182 2.00098 11.9991 2.00098C15.2722 2.00098 18.1766 3.57374 20 6.00213V4.99982C20 4.44753 20.4477 3.99982 21 3.99982C21.5523 3.99982 22 4.44753 22 4.99982V8.99982C22 9.5521 21.5523 9.99982 21 9.99982H17C16.4477 9.99982 16 9.5521 16 8.99982C16 8.44753 16.4477 7.99982 17 7.99982H18.9278C17.5435 5.60753 14.9581 4.00098 11.9991 4.00098ZM21.0532 12.0109C21.6021 12.0718 21.9977 12.5662 21.9367 13.1151C21.3817 18.1134 17.145 21.9998 11.9991 21.9998C8.7271 21.9998 5.82346 20.428 4 18.001V18.9998C4 19.5521 3.55228 19.9998 3 19.9998C2.44772 19.9998 2 19.5521 2 18.9998V14.9998C2 14.4475 2.44772 13.9998 3 13.9998H7C7.55228 13.9998 8 14.4475 8 14.9998C8 15.5521 7.55228 15.9998 7 15.9998H5.06978C6.45395 18.3927 9.03969 19.9998 11.9991 19.9998C16.1144 19.9998 19.5051 16.8911 19.9489 12.8944C20.0099 12.3455 20.5043 11.9499 21.0532 12.0109Z" fill="#0000CC"/>
<path d="M12 7C12.5523 7 13 7.44772 13 8V13C13 13.5523 12.5523 14 12 14C11.4477 14 11 13.5523 11 13V8C11 7.44772 11.4477 7 12 7Z" fill="#0000CC"/>
<path d="M11 16C11 15.4477 11.4477 15 12 15H12.01C12.5623 15 13.01 15.4477 13.01 16C13.01 16.5523 12.5623 17 12.01 17H12C11.4477 17 11 16.5523 11 16Z" fill="#0000CC"/>
</svg>
