<svg width="24" height="24" viewBox="0 0 24 24" fill="none" xmlns="http://www.w3.org/2000/svg">
<path opacity="0.3" d="M11 2C7.13401 2 4 5.13401 4 9V15.126C4.31962 15.0438 4.6547 15 5 15H6H16H17C17.3453 15 17.6804 15.0438 18 15.126V14.4806L20.703 12.3182C22.2033 11.118 22.4528 8.93713 21.3118 7.41574C20.3911 6.18808 18.8015 5.72147 17.4069 6.17582C16.3213 3.71648 13.8611 2 11 2Z" fill="#0000CC"/>
<path fill-rule="evenodd" clip-rule="evenodd" d="M2 19C2 17.3431 3.34315 16 5 16H17C18.6569 16 20 17.3431 20 19C20 20.6569 18.6569 22 17 22H5C3.34315 22 2 20.6569 2 19Z" fill="#0000CC"/>
</svg>
