<svg width="24" height="24" viewBox="0 0 24 24" fill="none" xmlns="http://www.w3.org/2000/svg">
<g opacity="0.3">
<path d="M12.499 2C10.3691 2 8.52372 3.21091 7.61065 4.97718L7.57479 5.04786C7.55992 5.0772 7.5465 5.10727 7.53459 5.13794L3.25977 16.1437C3.47317 16.0626 3.68039 16.0318 3.86171 16.017C4.06987 15.9999 4.31566 16 4.56804 16H16.4318C16.6842 16 16.93 15.9999 17.1382 16.017C17.3193 16.0317 17.5262 16.0625 17.7393 16.1434L13.8385 6.08792C14.0485 6.0306 14.2699 6 14.499 6C15.0751 6 15.6032 6.19366 16.0256 6.52C16.386 6.79849 16.8891 6.79819 17.2492 6.51929C17.6094 6.24039 17.7355 5.75336 17.5561 5.3347C16.7163 3.37555 14.7694 2 12.499 2Z" fill="#0000CC"/>
<path fill-rule="evenodd" clip-rule="evenodd" d="M21.1958 8.09045C21.1681 7.40172 20.5982 6.83188 19.9095 6.80414C19.4029 6.33676 18.597 6.33676 18.0904 6.80414C17.4017 6.83189 16.8318 7.40172 16.8041 8.09045C16.3367 8.59707 16.3367 9.40293 16.8041 9.90955C16.8318 10.5983 17.4017 11.1681 18.0904 11.1959C18.597 11.6632 19.4029 11.6632 19.9095 11.1959C20.5982 11.1681 21.1681 10.5983 21.1958 9.90956C21.6632 9.40294 21.6632 8.59707 21.1958 8.09045ZM18.9999 8.69297C18.9303 8.72919 18.8577 8.75929 18.7828 8.7829C18.7592 8.85773 18.7291 8.93039 18.6929 9C18.7291 9.06961 18.7592 9.14227 18.7828 9.21711C18.8577 9.24071 18.9303 9.27081 18.9999 9.30703C19.0696 9.27081 19.1422 9.24071 19.217 9.21711C19.2407 9.14227 19.2708 9.06961 19.307 9C19.2708 8.93039 19.2407 8.85773 19.217 8.78289C19.1422 8.75929 19.0696 8.72919 18.9999 8.69297Z" fill="#0000CC"/>
</g>
<path fill-rule="evenodd" clip-rule="evenodd" d="M4.56811 16C4.57873 16 4.58936 16 4.60001 16L16.4319 16C16.6843 16 16.9301 15.9999 17.1382 16.017C17.3668 16.0356 17.6366 16.0797 17.908 16.218C18.2843 16.4097 18.5903 16.7157 18.782 17.092C18.9203 17.3634 18.9644 17.6332 18.9831 17.8618C19.0001 18.0699 19 18.3157 19 18.5681V19.4319C19 19.6843 19.0001 19.9301 18.9831 20.1382C18.9644 20.3668 18.9203 20.6366 18.782 20.908C18.5903 21.2843 18.2843 21.5903 17.908 21.782C17.6366 21.9203 17.3668 21.9644 17.1382 21.9831C16.9301 22.0001 16.6843 22 16.4319 22L4.60001 22C4.58936 22 4.57873 22 4.56811 22C4.31573 22 4.06993 22.0001 3.86178 21.9831C3.63318 21.9644 3.36345 21.9203 3.09202 21.782C2.7157 21.5903 2.40974 21.2843 2.21799 20.908C2.07969 20.6366 2.03563 20.3668 2.01695 20.1382C1.99994 19.9301 1.99997 19.6843 2 19.4319C2 19.4213 2.00001 19.4106 2.00001 19.4V18.6C2.00001 18.5894 2 18.5787 2 18.5681C1.99997 18.3157 1.99994 18.0699 2.01695 17.8618C2.03563 17.6332 2.07969 17.3634 2.21799 17.092C2.40974 16.7157 2.7157 16.4097 3.09202 16.218C3.36345 16.0797 3.63318 16.0356 3.86178 16.017C4.06993 15.9999 4.31572 16 4.56811 16Z" fill="#0000CC"/>
</svg>
