<svg width="24" height="24" viewBox="0 0 24 24" fill="none" xmlns="http://www.w3.org/2000/svg">
<path opacity="0.3" fill-rule="evenodd" clip-rule="evenodd" d="M12.4327 2C10.5826 2 8.84648 2.89346 7.77116 4.39891L5.04372 8.21733C4.83111 8.1574 4.60682 8.125 4.375 8.125C2.99429 8.125 1.875 9.24429 1.875 10.625C1.875 12.0057 2.99429 13.125 4.375 13.125C5.75571 13.125 6.875 12.0057 6.875 10.625C6.875 10.4332 6.85286 10.2466 6.81133 10.0677L7.54344 9.56307L5.23715 16.1525C5.45854 16.0648 5.67403 16.0323 5.86178 16.017C6.06993 15.9999 6.31572 16 6.56811 16H19.4319C19.6843 16 19.9301 15.9999 20.1382 16.017C20.3372 16.0332 20.5672 16.0687 20.8025 16.1688L17.9408 6.15455C17.238 3.69539 14.9903 2 12.4327 2ZM3.875 10.625C3.875 10.3489 4.09886 10.125 4.375 10.125C4.49083 10.125 4.60438 10.1684 4.69847 10.2508C4.81257 10.3507 4.875 10.4873 4.875 10.625C4.875 10.9011 4.65114 11.125 4.375 11.125C4.09886 11.125 3.875 10.9011 3.875 10.625Z" fill="#0000CC"/>
<path fill-rule="evenodd" clip-rule="evenodd" d="M6.56811 16C6.57873 16 6.58936 16 6.60001 16L19.4319 16C19.6843 16 19.9301 15.9999 20.1382 16.017C20.3668 16.0356 20.6366 16.0797 20.908 16.218C21.2843 16.4097 21.5903 16.7157 21.782 17.092C21.9203 17.3634 21.9644 17.6332 21.9831 17.8618C22.0001 18.0699 22 18.3157 22 18.5681V19.4319C22 19.6843 22.0001 19.9301 21.9831 20.1382C21.9644 20.3668 21.9203 20.6366 21.782 20.908C21.5903 21.2843 21.2843 21.5903 20.908 21.782C20.6366 21.9203 20.3668 21.9644 20.1382 21.9831C19.9301 22.0001 19.6843 22 19.4319 22L6.60001 22C6.58936 22 6.57873 22 6.56811 22C6.31573 22 6.06993 22.0001 5.86178 21.9831C5.63318 21.9644 5.36345 21.9203 5.09202 21.782C4.7157 21.5903 4.40974 21.2843 4.21799 20.908C4.07969 20.6366 4.03563 20.3668 4.01695 20.1382C3.99994 19.9301 3.99997 19.6843 4 19.4319C4 19.4213 4.00001 19.4106 4.00001 19.4V18.6C4.00001 18.5894 4 18.5787 4 18.5681C3.99997 18.3157 3.99994 18.0699 4.01695 17.8618C4.03563 17.6332 4.07969 17.3634 4.21799 17.092C4.40974 16.7157 4.7157 16.4097 5.09202 16.218C5.36345 16.0797 5.63318 16.0356 5.86178 16.017C6.06993 15.9999 6.31572 16 6.56811 16Z" fill="#0000CC"/>
</svg>
