<svg width="24" height="24" viewBox="0 0 24 24" fill="none" xmlns="http://www.w3.org/2000/svg">
<path opacity="0.3" fill-rule="evenodd" clip-rule="evenodd" d="M4.00002 8.50002C4.00002 9.30946 4.3847 10.0291 4.98122 10.4859C4.77486 10.673 4.57761 10.8727 4.39366 11.0847C3.62688 11.9686 3.05408 13.116 3.10246 14.4756C3.15082 15.8344 3.81334 17.2274 5.16035 18.6162C6.50181 19.9994 8.56855 21.4299 11.5587 22.8977C11.701 22.9675 11.8517 23.0005 12.0001 23.0002C12.1485 23.0005 12.2992 22.9675 12.4415 22.8977C15.4317 21.4299 17.4984 19.9994 18.8398 18.6162C20.1868 17.2274 20.8493 15.8343 20.8976 14.4755C20.9459 13.116 20.3731 11.9686 19.6063 11.0847C19.4223 10.8727 19.2251 10.6731 19.0187 10.486C19.6153 10.0291 20 9.30949 20 8.50002C20 7.11931 18.8807 6.00002 17.5 6.00002H17.4337C17.1471 5.66865 16.9422 5.34726 16.8192 5.07048C16.7005 4.80329 16.6849 4.64361 16.6858 4.57283C16.7136 4.56492 16.7567 4.55609 16.8209 4.54948C16.8912 4.54224 16.9757 4.54011 17.0753 4.5453C17.3126 5.38485 18.0845 6.00002 19 6.00002C20.1046 6.00002 21 5.10459 21 4.00002C21 2.89545 20.1046 2.00002 19 2.00002C18.6854 2.00002 18.3877 2.07269 18.1228 2.20216C16.5902 1.28319 15.1662 0.798394 13.8536 0.661671C12.1159 0.480661 10.6448 0.917831 9.47002 1.65206C8.30862 2.37794 7.45411 3.38163 6.88973 4.33402C6.55735 4.89491 6.30029 5.48179 6.1498 6.02436C4.93489 6.19467 4.00002 7.23817 4.00002 8.50002ZM7.00002 8.00005L6.99277 8.00002H6.50002C6.22388 8.00002 6.00002 8.22388 6.00002 8.50002C6.00002 8.77617 6.22388 9.00002 6.50002 9.00002H7.4764C7.49069 8.99972 7.50497 8.99972 7.51922 9.00002H16.4807C16.4949 8.99972 16.5092 8.99972 16.5235 9.00002H17.5C17.7762 9.00002 18 8.77617 18 8.50002C18 8.22388 17.7762 8.00002 17.5 8.00002H7.00727L7.00002 8.00005ZM8.04482 11H15.9552C16.2532 11.3558 16.6311 11.9778 16.845 12.6845C17.1208 13.5955 17.0189 14.2547 16.6358 14.6355C16.332 14.9376 15.938 15.0485 15.4011 14.9816C14.8385 14.9115 14.2056 14.6492 13.6199 14.3039L13.6027 14.2937C13.3698 14.1564 13.17 14.0386 13.0092 13.952C12.8625 13.873 12.6524 13.7654 12.423 13.7157C12.3236 13.6942 12.1744 13.663 12 13.663C11.8256 13.663 11.6764 13.6942 11.577 13.7157C11.3476 13.7654 11.1376 13.873 10.9909 13.952C10.8301 14.0385 10.6303 14.1563 10.3975 14.2936L10.3801 14.3039C9.79447 14.6492 9.16157 14.9115 8.59897 14.9816C8.06209 15.0485 7.66806 14.9376 7.36422 14.6355C6.98115 14.2547 6.87923 13.5955 7.15501 12.6845C7.36896 11.9778 7.74683 11.3558 8.04482 11ZM16.6415 4.59215C16.6415 4.59215 16.6443 4.58818 16.6558 4.58322C16.6481 4.59018 16.6415 4.59215 16.6415 4.59215ZM11.4474 17.1055C10.9535 16.8586 10.3528 17.0588 10.1058 17.5528C9.8588 18.0467 10.059 18.6474 10.553 18.8944L10.5707 18.9032C10.6562 18.946 10.7313 18.9836 10.8074 19.0166C11.5684 19.3464 12.432 19.3464 13.1931 19.0166C13.2691 18.9836 13.3441 18.9461 13.4297 18.9033L13.4474 18.8944C13.9414 18.6474 14.1416 18.0467 13.8946 17.5528C13.6477 17.0588 13.047 16.8586 12.553 17.1055C12.44 17.1621 12.417 17.1731 12.3978 17.1815C12.1442 17.2914 11.8563 17.2914 11.6026 17.1815C11.5834 17.1731 11.5605 17.1621 11.4474 17.1055Z" fill="#0000CC"/>
<path d="M9 12.5C9 11.9477 9.44772 11.5 10 11.5H10.01C10.5623 11.5 11.01 11.9477 11.01 12.5C11.01 13.0523 10.5623 13.5 10.01 13.5H10C9.44772 13.5 9 13.0523 9 12.5Z" fill="#0000CC"/>
<path d="M13 12.5C13 11.9477 13.4477 11.5 14 11.5H14.01C14.5623 11.5 15.01 11.9477 15.01 12.5C15.01 13.0523 14.5623 13.5 14.01 13.5H14C13.4477 13.5 13 13.0523 13 12.5Z" fill="#0000CC"/>
<path d="M10.1058 17.5528C10.3528 17.0588 10.9535 16.8586 11.4474 17.1055C11.5605 17.1621 11.5834 17.1731 11.6026 17.1815C11.8563 17.2914 12.1442 17.2914 12.3978 17.1815C12.417 17.1731 12.44 17.1621 12.553 17.1055C13.047 16.8586 13.6477 17.0588 13.8946 17.5528C14.1416 18.0467 13.9414 18.6474 13.4474 18.8944L13.4297 18.9033C13.3441 18.9461 13.2691 18.9836 13.1931 19.0166C12.432 19.3464 11.5684 19.3464 10.8074 19.0166C10.7313 18.9836 10.6562 18.946 10.5707 18.9032L10.553 18.8944C10.059 18.6474 9.8588 18.0467 10.1058 17.5528Z" fill="#0000CC"/>
</svg>
