<svg width="24" height="24" viewBox="0 0 24 24" fill="none" xmlns="http://www.w3.org/2000/svg">
<g opacity="0.3">
<path d="M8.5 3H7.16146C6.63433 2.99998 6.17954 2.99997 5.80497 3.03057C5.40963 3.06287 5.01641 3.13419 4.63803 3.32698C4.07354 3.6146 3.6146 4.07354 3.32698 4.63803C3.13419 5.01641 3.06287 5.40963 3.03057 5.80497C2.99997 6.17954 2.99998 6.63429 3 7.16142V8.5C3 9.05229 3.44772 9.5 4 9.5C4.55229 9.5 5 9.05229 5 8.5V7.2C5 6.62345 5.00078 6.25118 5.02393 5.96784C5.04613 5.69618 5.0838 5.59546 5.109 5.54601C5.20487 5.35785 5.35785 5.20487 5.54601 5.109C5.59546 5.0838 5.69618 5.04613 5.96784 5.02393C6.25118 5.00078 6.62345 5 7.2 5H8.5C9.05229 5 9.5 4.55229 9.5 4C9.5 3.44772 9.05229 3 8.5 3Z" fill="#0000CC"/>
<path d="M16.8 5C17.3766 5 17.7488 5.00078 18.0322 5.02393C18.3038 5.04613 18.4045 5.0838 18.454 5.109C18.6422 5.20487 18.7951 5.35785 18.891 5.54601C18.9162 5.59546 18.9539 5.69618 18.9761 5.96784C18.9992 6.25118 19 6.62345 19 7.2V8.5C19 9.05229 19.4477 9.5 20 9.5C20.5523 9.5 21 9.05229 21 8.5V7.16144C21 6.6343 21 6.17954 20.9694 5.80497C20.9371 5.40963 20.8658 5.01641 20.673 4.63803C20.3854 4.07354 19.9265 3.6146 19.362 3.32698C18.9836 3.13419 18.5904 3.06287 18.195 3.03057C17.8205 2.99997 17.3657 2.99998 16.8386 3H15.5C14.9477 3 14.5 3.44772 14.5 4C14.5 4.55229 14.9477 5 15.5 5H16.8Z" fill="#0000CC"/>
<path d="M4 14.5C3.44772 14.5 3 14.9477 3 15.5V16.8385C2.99998 17.3657 2.99997 17.8205 3.03057 18.195C3.06287 18.5904 3.13419 18.9836 3.32698 19.362C3.6146 19.9265 4.07354 20.3854 4.63803 20.673C5.01641 20.8658 5.40963 20.9371 5.80497 20.9694C6.17954 21 6.6343 21 7.16144 21H8.5C9.05229 21 9.5 20.5523 9.5 20C9.5 19.4477 9.05229 19 8.5 19H7.2C6.62345 19 6.25118 18.9992 5.96784 18.9761C5.69618 18.9539 5.59546 18.9162 5.54601 18.891C5.35785 18.7951 5.20487 18.6422 5.109 18.454C5.0838 18.4045 5.04613 18.3038 5.02393 18.0322C5.00078 17.7488 5 17.3766 5 16.8V15.5C5 14.9477 4.55229 14.5 4 14.5Z" fill="#0000CC"/>
<path d="M21 15.5C21 14.9477 20.5523 14.5 20 14.5C19.4477 14.5 19 14.9477 19 15.5V16.8C19 17.3766 18.9992 17.7488 18.9761 18.0322C18.9539 18.3038 18.9162 18.4045 18.891 18.454C18.7951 18.6422 18.6422 18.7951 18.454 18.891C18.4045 18.9162 18.3038 18.9539 18.0322 18.9761C17.7488 18.9992 17.3766 19 16.8 19H15.5C14.9477 19 14.5 19.4477 14.5 20C14.5 20.5523 14.9477 21 15.5 21H16.8386C17.3657 21 17.8205 21 18.195 20.9694C18.5904 20.9371 18.9836 20.8658 19.362 20.673C19.9265 20.3854 20.3854 19.9265 20.673 19.362C20.8658 18.9836 20.9371 18.5904 20.9694 18.195C21 17.8205 21 17.3657 21 16.8386V15.5Z" fill="#0000CC"/>
</g>
<path d="M4 13C4.55228 13 5 12.5523 5 12C5 11.4477 4.55228 11 4 11C3.44772 11 3 11.4477 3 12C3 12.5523 3.44772 13 4 13Z" fill="#0000CC"/>
<path d="M8 13C8.55229 13 9 12.5523 9 12C9 11.4477 8.55229 11 8 11C7.44772 11 7 11.4477 7 12C7 12.5523 7.44772 13 8 13Z" fill="#0000CC"/>
<path d="M13 12C13 12.5523 12.5523 13 12 13C11.4477 13 11 12.5523 11 12C11 11.4477 11.4477 11 12 11C12.5523 11 13 11.4477 13 12Z" fill="#0000CC"/>
<path d="M16 13C16.5523 13 17 12.5523 17 12C17 11.4477 16.5523 11 16 11C15.4477 11 15 11.4477 15 12C15 12.5523 15.4477 13 16 13Z" fill="#0000CC"/>
<path d="M21 12C21 12.5523 20.5523 13 20 13C19.4477 13 19 12.5523 19 12C19 11.4477 19.4477 11 20 11C20.5523 11 21 11.4477 21 12Z" fill="#0000CC"/>
</svg>
