<svg width="24" height="24" viewBox="0 0 24 24" fill="none" xmlns="http://www.w3.org/2000/svg">
<path opacity="0.3" d="M12.8672 6.81888C12.3019 6.64826 11.6988 6.64826 11.1335 6.81888C10.7573 6.93243 10.4457 7.12837 10.1552 7.35154C9.88133 7.56189 9.5729 7.83949 9.21751 8.15936L6.51635 10.5904L5.18168 10.9241L5.02917 10.962C4.31606 11.1391 3.69102 11.2943 3.20219 11.6603C2.77518 11.9801 2.44115 12.4079 2.23452 12.8997C1.99797 13.4627 1.999 14.1068 2.00016 14.8415L2.00033 14.9987L2.00033 18.8387C2.00031 19.3659 2.00029 19.8206 2.0309 20.1952C2.0632 20.5906 2.13451 20.9838 2.32731 21.3622C2.61493 21.9267 3.07387 22.3856 3.63836 22.6732C4.01673 22.866 4.40995 22.9373 4.8053 22.9696C5.17985 23.0002 5.63458 23.0002 6.16168 23.0002H17.8389C18.366 23.0002 18.8208 23.0002 19.1954 22.9696C19.5907 22.9373 19.9839 22.866 20.3623 22.6732C20.9268 22.3856 21.3857 21.9267 21.6733 21.3622C21.8661 20.9838 21.9375 20.5906 21.9698 20.1952C22.0004 19.8207 22.0003 19.3659 22.0003 18.8388V14.9987L22.0005 14.8415C22.0017 14.1068 22.0027 13.4627 21.7661 12.8997C21.5595 12.4079 21.2255 11.9801 20.7985 11.6603C20.3096 11.2943 19.6846 11.1391 18.9715 10.962L18.819 10.9241L17.4843 10.5904L14.7832 8.15939C14.4278 7.8395 14.1193 7.56189 13.8455 7.35155C13.555 7.12837 13.2434 6.93243 12.8672 6.81888Z" fill="#0000CC"/>
<path fill-rule="evenodd" clip-rule="evenodd" d="M12.0599 1.0018C12.0932 1.0003 12.1266 0.999939 12.16 1.00004H16.84L16.8439 1.00003C16.8627 0.999953 16.9257 0.999706 16.9871 1.00472C17.0656 1.01114 17.2242 1.03068 17.3994 1.11993C17.6064 1.2254 17.7747 1.39368 17.8801 1.60065C17.9694 1.77581 17.9889 1.93441 17.9953 2.01292C18.0003 2.07431 18.0001 2.13733 18 2.15611L18 2.16004V4.84004L18 4.84397C18.0001 4.86276 18.0003 4.92577 17.9953 4.98715C17.9889 5.06567 17.9694 5.22427 17.8801 5.39943C17.7747 5.6064 17.6064 5.77468 17.3994 5.88015C17.2242 5.9694 17.0656 5.98894 16.9871 5.99535C16.9257 6.00037 16.8627 6.00012 16.8439 6.00005L16.84 6.00004H13V6.86328C12.9566 6.84735 12.9123 6.83252 12.8671 6.81888C12.3018 6.64826 11.6988 6.64826 11.1335 6.81888C11.0881 6.83258 11.0436 6.84749 11 6.86349L11 2.15611L11 2.00004C11 1.44775 11.4477 1.00004 12 1.00004C12.0201 1.00004 12.0401 1.00063 12.0599 1.0018Z" fill="#0000CC"/>
<path d="M10.2803 12.25C10.2803 11.2835 11.0638 10.5 12.0303 10.5C12.9968 10.5 13.7803 11.2835 13.7803 12.25C13.7803 13.2165 12.9968 14 12.0303 14C11.0638 14 10.2803 13.2165 10.2803 12.25Z" fill="#0000CC"/>
<path d="M5 16C5 15.4477 5.44772 15 6 15H7C7.55228 15 8 15.4477 8 16C8 16.5523 7.55228 17 7 17H6C5.44772 17 5 16.5523 5 16Z" fill="#0000CC"/>
<path d="M17 15C16.4477 15 16 15.4477 16 16C16 16.5523 16.4477 17 17 17H18C18.5523 17 19 16.5523 19 16C19 15.4477 18.5523 15 18 15H17Z" fill="#0000CC"/>
<path d="M6 18C5.44772 18 5 18.4477 5 19C5 19.5523 5.44772 20 6 20H7C7.55228 20 8 19.5523 8 19C8 18.4477 7.55228 18 7 18H6Z" fill="#0000CC"/>
<path d="M17 18C16.4477 18 16 18.4477 16 19C16 19.5523 16.4477 20 17 20H18C18.5523 20 19 19.5523 19 19C19 18.4477 18.5523 18 18 18H17Z" fill="#0000CC"/>
<path d="M12 16C10.8954 16 10 16.8954 10 18V21H14V18C14 16.8954 13.1046 16 12 16Z" fill="#0000CC"/>
</svg>
