<svg width="24" height="24" viewBox="0 0 24 24" fill="none" xmlns="http://www.w3.org/2000/svg">
<path d="M4.33914 14C4.33914 12.8954 5.23457 12 6.33914 12C7.44371 12 8.33914 12.8954 8.33914 14C8.33914 15.1046 7.44371 16 6.33914 16C5.23457 16 4.33914 15.1046 4.33914 14Z" fill="#0000CC"/>
<path d="M9.99917 14C9.99917 12.8954 10.8946 12 11.9992 12C13.1037 12 13.9992 12.8954 13.9992 14C13.9992 15.1046 13.1037 16 11.9992 16C10.8946 16 9.99917 15.1046 9.99917 14Z" fill="#0000CC"/>
<path d="M15.6591 14C15.6591 12.8954 16.5545 12 17.6591 12C18.7637 12 19.6591 12.8954 19.6591 14C19.6591 15.1046 18.7637 16 17.6591 16C16.5545 16 15.6591 15.1046 15.6591 14Z" fill="#0000CC"/>
<path d="M3.17679 20.9428C2.65608 20.7588 2.38315 20.1875 2.5672 19.6668C3.11584 18.1145 4.59615 17 6.33933 17C7.44549 17 8.44579 17.4488 9.16935 18.1734C9.89292 17.4488 10.8932 17 11.9994 17C13.1055 17 14.1058 17.4487 14.8293 18.1733C15.5529 17.4487 16.5532 17 17.6593 17C19.4025 17 20.8828 18.1145 21.4314 19.6668C21.6155 20.1875 21.3425 20.7588 20.8218 20.9428C20.7154 20.9805 20.6069 20.999 20.5 21.0002L3.48661 21C3.3836 20.9976 3.27922 20.979 3.17679 20.9428Z" fill="#0000CC"/>
<path opacity="0.3" d="M6.80337 3C6.34077 2.99998 5.92796 2.99995 5.58527 3.03145C5.21682 3.06532 4.83772 3.14157 4.47338 3.35042C3.94331 3.65426 3.53339 4.12626 3.28284 4.67945C3.11639 5.04696 3.05494 5.42717 3.02685 5.81397C2.99998 6.18398 2.99999 6.63475 3 7.16488V11.7969C3.47481 11.0787 4.17511 10.5226 5 10.2297V7.2C5 6.62527 5.00062 6.2477 5.0216 5.95884C5.04195 5.67863 5.07738 5.56491 5.10469 5.50459C5.19503 5.30514 5.32904 5.16522 5.46799 5.08557C5.48394 5.07642 5.54389 5.04368 5.76834 5.02306C6.00843 5.00099 6.32808 5 6.84445 5H17.1556C17.6719 5 17.9916 5.00099 18.2317 5.02306C18.4561 5.04368 18.5161 5.07642 18.532 5.08557C18.671 5.16522 18.805 5.30514 18.8953 5.50459C18.9226 5.56491 18.9581 5.67864 18.9784 5.95884C18.9994 6.2477 19 6.62527 19 7.20001V10.2303C19.8252 10.5239 20.5255 11.0806 21 11.7996V7.16488C21 6.63475 21 6.18398 20.9732 5.81397C20.9451 5.42717 20.8836 5.04696 20.7172 4.67946C20.4666 4.12626 20.0567 3.65426 19.5266 3.35042C19.1623 3.14157 18.7832 3.06532 18.4147 3.03145C18.072 2.99995 17.6593 2.99998 17.1967 3H6.80337Z" fill="#0000CC"/>
</svg>
