<svg width="24" height="24" viewBox="0 0 24 24" fill="none" xmlns="http://www.w3.org/2000/svg">
<path opacity="0.3" d="M18.9995 12V13H13.9995C13.4472 13 12.9995 13.4477 12.9995 14V18.5C12.9995 19.6046 12.1041 20.5 10.9995 20.5C9.89493 20.5 8.9995 19.6046 8.9995 18.5V14H10C10.5523 14 11 13.5523 11 13C11 12.4477 10.5523 12 10 12H8.9995V5.5C8.9995 3.99399 8.16721 2.68236 6.9375 2H14.9995C17.2086 2 18.9995 3.79086 18.9995 6H16C15.4477 6 15 6.44772 15 7C15 7.55228 15.4477 8 16 8H18.9995V10H16C15.4477 10 15 10.4477 15 11C15 11.5523 15.4477 12 16 12H18.9995Z" fill="#0000CC"/>
<path d="M3 9.99996H7V5.5C7 4.11929 5.88071 3 4.5 3C3.11929 3 2 4.11929 2 5.5V8.99996C2 9.55224 2.44772 9.99996 3 9.99996Z" fill="#0000CC"/>
<path d="M22 18V16C22 15.4477 21.5523 15 21 15L18 15V18C18 18.5523 17.5523 19 17 19C16.4477 19 16 18.5523 16 18V15L15.4999 15C15.2238 15 15 15.2238 14.9999 15.4999L14.9995 18.5C14.9995 19.8678 14.313 21.0752 13.2657 21.7965C13.1807 21.8551 13.2206 22 13.3238 22H18C20.2091 22 22 20.2091 22 18Z" fill="#0000CC"/>
</svg>
