<svg width="24" height="24" viewBox="0 0 24 24" fill="none" xmlns="http://www.w3.org/2000/svg">
<path opacity="0.3" d="M12.6179 1.51195C12.2162 1.38143 11.7835 1.38143 11.3818 1.51195C11.0921 1.60608 10.8702 1.76565 10.6954 1.91409C10.5361 2.04925 10.3624 2.22306 10.1839 2.40154L8.76137 3.82411C8.66874 3.91674 8.62234 3.96281 8.58722 3.99485L8.58457 3.99727L8.58098 3.99744C8.53349 3.99961 8.46811 3.99985 8.33711 3.99985L6.56795 3.99985C6.31557 3.99982 6.06978 3.99979 5.86162 4.01679C5.63303 4.03547 5.36329 4.07954 5.09187 4.21784C4.71554 4.40958 4.40958 4.71554 4.21784 5.09187C4.07954 5.36329 4.03547 5.63303 4.01679 5.86162C3.99979 6.06977 3.99982 6.31555 3.99985 6.56793L3.99985 8.33711C3.99985 8.46811 3.99961 8.53349 3.99744 8.58098L3.99727 8.58457L3.99485 8.58722C3.96281 8.62234 3.91674 8.66874 3.82411 8.76137L2.40155 10.1839C2.22307 10.3624 2.04925 10.5361 1.91409 10.6954C1.76565 10.8702 1.60608 11.0921 1.51195 11.3818C1.38143 11.7835 1.38143 12.2162 1.51195 12.6179C1.60608 12.9076 1.76565 13.1295 1.91409 13.3043C2.04925 13.4636 2.22307 13.6373 2.40155 13.8158L3.82411 15.2383C3.91674 15.331 3.96281 15.3774 3.99485 15.4125L3.99727 15.4151L3.99744 15.4187C3.99961 15.4662 3.99985 15.5316 3.99985 15.6626L3.99985 17.4317C3.99982 17.6841 3.99979 17.9299 4.01679 18.1381C4.03547 18.3667 4.07954 18.6364 4.21784 18.9078C4.40958 19.2842 4.71554 19.5901 5.09187 19.7819C5.36329 19.9202 5.63303 19.9642 5.86162 19.9829C6.06974 19.9999 6.31548 19.9999 6.56782 19.9999L8.33711 19.9998C8.46811 19.9998 8.53349 20.0001 8.58098 20.0023L8.58456 20.0024L8.58722 20.0048C8.62234 20.0369 8.66874 20.083 8.76137 20.1756L10.1839 21.5981C10.3624 21.7766 10.5361 21.9504 10.6954 22.0856C10.8702 22.234 11.0921 22.3936 11.3818 22.4877C11.7835 22.6183 12.2162 22.6183 12.6179 22.4877C12.9076 22.3936 13.1295 22.234 13.3043 22.0856C13.4635 21.9505 13.6373 21.7766 13.8157 21.5982L15.2383 20.1756C15.331 20.083 15.3774 20.0369 15.4125 20.0048L15.4151 20.0024L15.4187 20.0023C15.4662 20.0001 15.5316 19.9998 15.6626 19.9998L17.4318 19.9999C17.6841 19.9999 17.93 19.9999 18.1381 19.9829C18.3667 19.9642 18.6364 19.9202 18.9078 19.7819C19.2842 19.5901 19.5901 19.2842 19.7819 18.9078C19.9202 18.6364 19.9642 18.3667 19.9829 18.1381C19.9999 17.93 19.9999 17.6842 19.9999 17.4319L19.9998 15.6626C19.9998 15.5316 20.0001 15.4662 20.0023 15.4187L20.0024 15.4151L20.0048 15.4125C20.0369 15.3774 20.083 15.331 20.1756 15.2383L21.5981 13.8158C21.7766 13.6373 21.9504 13.4636 22.0856 13.3043C22.234 13.1295 22.3936 12.9076 22.4877 12.6179C22.6183 12.2162 22.6183 11.7835 22.4877 11.3818C22.3936 11.0921 22.234 10.8702 22.0856 10.6954C21.9505 10.5362 21.7766 10.3624 21.5982 10.1839L20.1756 8.76137C20.083 8.66874 20.0369 8.62234 20.0048 8.58723L20.0024 8.58457L20.0023 8.58098C20.0001 8.53349 19.9998 8.46811 19.9998 8.33711L19.9999 6.56793C19.9999 6.3156 19.9999 6.06974 19.9829 5.86162C19.9642 5.63303 19.9202 5.36329 19.7819 5.09187C19.5901 4.71554 19.2842 4.40958 18.9078 4.21784C18.6364 4.07954 18.3667 4.03547 18.1381 4.01679C17.9299 3.99979 17.6841 3.99982 17.4317 3.99985L15.6626 3.99985C15.5316 3.99985 15.4662 3.99961 15.4187 3.99744L15.4151 3.99727L15.4125 3.99485C15.3774 3.96281 15.331 3.91674 15.2383 3.82411L13.8158 2.40157C13.6373 2.22308 13.4636 2.04926 13.3043 1.91409C13.1295 1.76565 12.9076 1.60608 12.6179 1.51195Z" fill="#0000CC"/>
<path d="M11.0312 10.0491C11.1422 9.61754 11.5351 9.2998 11.9997 9.2998C12.552 9.2998 12.9997 9.74752 12.9997 10.2998C12.9997 10.473 12.9542 10.6051 12.6803 10.8695C12.5459 10.9992 12.3907 11.128 12.1861 11.2978L12.0946 11.3738C11.8563 11.5721 11.5768 11.8085 11.2926 12.0927C10.9021 12.4832 10.9021 13.1164 11.2926 13.5069C11.6832 13.8974 12.3163 13.8974 12.7069 13.5069C12.9227 13.2911 13.1432 13.1031 13.3736 12.9114L13.4594 12.8403C13.6568 12.6767 13.8764 12.4947 14.0692 12.3085C14.5452 11.8491 14.9997 11.2312 14.9997 10.2998C14.9997 8.64295 13.6566 7.2998 11.9997 7.2998C10.6005 7.2998 9.42728 8.25684 9.0943 9.55055C8.95664 10.0854 9.27863 10.6306 9.81348 10.7682C10.3483 10.9059 10.8935 10.5839 11.0312 10.0491Z" fill="#0000CC"/>
<path d="M12 16.7998C12.5523 16.7998 13 16.3521 13 15.7998C13 15.2475 12.5523 14.7998 12 14.7998C11.4477 14.7998 11 15.2475 11 15.7998C11 16.3521 11.4477 16.7998 12 16.7998Z" fill="#0000CC"/>
</svg>
