<svg width="24" height="24" viewBox="0 0 24 24" fill="none" xmlns="http://www.w3.org/2000/svg">
<path opacity="0.3" fill-rule="evenodd" clip-rule="evenodd" d="M2 10.5C2 5.80558 5.80558 2 10.5 2C15.1944 2 19 5.80558 19 10.5C19 15.1944 15.1944 19 10.5 19C5.80558 19 2 15.1944 2 10.5Z" fill="#0000CC"/>
<path d="M7.5 9.5C6.94772 9.5 6.5 9.94772 6.5 10.5C6.5 11.0523 6.94772 11.5 7.5 11.5H13.5C14.0523 11.5 14.5 11.0523 14.5 10.5C14.5 9.94772 14.0523 9.5 13.5 9.5H7.5Z" fill="#0000CC"/>
<path d="M20.2928 21.7071L15.7617 17.176C16.2867 16.7617 16.7616 16.2868 17.1759 15.7618L21.707 20.2929C22.0975 20.6834 22.0975 21.3166 21.707 21.7071C21.3165 22.0976 20.6833 22.0976 20.2928 21.7071Z" fill="#0000CC"/>
</svg>
