<svg width="24" height="24" viewBox="0 0 24 24" fill="none" xmlns="http://www.w3.org/2000/svg">
<path opacity="0.3" d="M7.85047 4.31155L18.0915 8.91998C18.8251 9.25007 19.4377 9.52573 19.8927 9.78183C20.3356 10.0311 20.8241 10.3628 21.086 10.8925C21.4312 11.5908 21.4312 12.4102 21.086 13.1085C20.8241 13.6382 20.3356 13.9699 19.8927 14.2191C19.4377 14.4752 18.8251 14.7509 18.0915 15.081L7.86801 19.6816C7.11559 20.0202 6.48899 20.3021 5.98576 20.4765C5.4984 20.6453 4.91575 20.7948 4.33889 20.6338C3.58148 20.4224 2.96767 19.867 2.68187 19.1344C2.4642 18.5765 2.55481 17.9818 2.67425 17.4801C2.79759 16.962 3.01572 16.3104 3.27766 15.528L4.12393 13.0001L11.5005 13.0005C12.0528 13.0005 12.5005 12.5528 12.5005 12.0005C12.5006 11.4482 12.0529 11.0005 11.5006 11.0005L4.10172 11.0001L3.25754 8.45677C2.99844 7.67619 2.78259 7.0259 2.66092 6.50878C2.54301 6.00764 2.45428 5.41412 2.67259 4.85749C2.95937 4.12628 3.57313 3.57235 4.32982 3.3618C4.90585 3.20152 5.48719 3.35045 5.97366 3.51896C6.47564 3.69284 7.10046 3.97403 7.85047 4.31155Z" fill="#0000CC"/>
<path d="M4.12377 13.0002L11.5003 13.0006C12.0526 13.0006 12.5004 12.5529 12.5004 12.0006C12.5004 11.4483 12.0527 11.0006 11.5004 11.0006L4.10156 11.0002L4.29895 11.5949C4.40442 11.9127 4.41154 11.9478 4.41485 11.9736C4.42031 12.0162 4.42026 12.0594 4.41469 12.102C4.41131 12.1278 4.4041 12.1629 4.29781 12.4804L4.12377 13.0002Z" fill="#0000CC"/>
</svg>
