<svg width="24" height="24" viewBox="0 0 24 24" fill="none" xmlns="http://www.w3.org/2000/svg">
<path opacity="0.3" d="M11.7135 5.73681C11.2265 5.49329 10.8016 5.28081 10.4545 5.14439C10.1242 5.01457 9.65353 4.86192 9.15631 4.98032C8.54214 5.12657 8.03308 5.55422 7.78308 6.13396C7.58068 6.60331 7.64985 7.09328 7.72075 7.44102C7.79525 7.80646 7.93125 8.26163 8.08711 8.78332L8.74928 11H14C14.5523 11 15 11.4477 15 12C15 12.5523 14.5523 13 14 13H8.76285L8.09951 15.2017C7.94194 15.7245 7.80453 16.1805 7.72898 16.5466C7.65715 16.8946 7.58654 17.3855 7.78849 17.8559C8.03779 18.4366 8.54693 18.8654 9.16164 19.0122C9.65958 19.1312 10.1313 18.9781 10.462 18.8481C10.8098 18.7113 11.2358 18.4983 11.7242 18.2541L19.6245 14.3039C20.0513 14.0906 20.4313 13.9006 20.7193 13.7222C21.0032 13.5463 21.3677 13.2839 21.5711 12.8552C21.8283 12.3127 21.8283 11.6835 21.5711 11.1411C21.3677 10.7124 21.0032 10.4499 20.7193 10.2741C20.4314 10.0957 20.0513 9.90566 19.6245 9.6923L11.7135 5.73681Z" fill="#0000CC"/>
<path d="M3 6.99805C2.44772 6.99805 2 7.44576 2 7.99805C2 8.55033 2.44772 8.99805 3 8.99805H5.5C6.05228 8.99805 6.5 8.55033 6.5 7.99805C6.5 7.44576 6.05228 6.99805 5.5 6.99805H3Z" fill="#0000CC"/>
<path d="M4 10.998C3.44772 10.998 3 11.4458 3 11.998C3 12.5503 3.44772 12.998 4 12.998H5.5C6.05228 12.998 6.5 12.5503 6.5 11.998C6.5 11.4458 6.05228 10.998 5.5 10.998H4Z" fill="#0000CC"/>
<path d="M4.5 14.998C3.94772 14.998 3.5 15.4458 3.5 15.998C3.5 16.5503 3.94772 16.998 4.5 16.998H5.5C6.05228 16.998 6.5 16.5503 6.5 15.998C6.5 15.4458 6.05228 14.998 5.5 14.998H4.5Z" fill="#0000CC"/>
<path d="M9.00434 12.1993L8.76309 13H14.0002C14.5525 13 15.0002 12.5523 15.0002 12C15.0002 11.4477 14.5525 11 14.0002 11H8.74951L9.00475 11.8544C9.03215 11.9462 9.04551 11.9914 9.05419 12.0246L9.05481 12.0269L9.05419 12.0293C9.04542 12.0624 9.03195 12.1076 9.00434 12.1993Z" fill="#0000CC"/>
</svg>
