<svg width="24" height="24" viewBox="0 0 24 24" fill="none" xmlns="http://www.w3.org/2000/svg">
<path opacity="0.3" fill-rule="evenodd" clip-rule="evenodd" d="M3.32698 4.63803C3 5.27976 3 6.11984 3 7.8V16.2C3 17.8802 3 18.7202 3.32698 19.362C3.6146 19.9265 4.07354 20.3854 4.63803 20.673C5.27976 21 6.11984 21 7.8 21H12.0216C11.3407 19.9356 11 18.7155 11 17.5C11 15.8405 11.635 14.1726 12.9038 12.9038C13.3372 12.4704 13.9082 12.217 14.5049 12.1771C14.8788 11.5599 15.3589 11.0083 15.9258 10.5522C16.9178 9.75409 18.3511 9.82896 19.2545 10.726C19.5669 11.0362 19.8971 11.2675 20.3702 11.5796L20.5088 11.6709C20.6532 11.7658 20.8204 11.8757 21 12.0015V7.8C21 6.11984 21 5.27976 20.673 4.63803C20.3854 4.07354 19.9265 3.6146 19.362 3.32698C18.7202 3 17.8802 3 16.2 3H7.8C6.11984 3 5.27976 3 4.63803 3.32698C4.07354 3.6146 3.6146 4.07354 3.32698 4.63803Z" fill="#0000CC"/>
<path d="M7 6C6.44772 6 6 6.44772 6 7V11C6 11.5523 6.44772 12 7 12C7.55228 12 8 11.5523 8 11V7C8 6.44772 7.55228 6 7 6Z" fill="#0000CC"/>
<path d="M11 6C10.4477 6 10 6.44772 10 7V11C10 11.5523 10.4477 12 11 12C11.5523 12 12 11.5523 12 11V7C12 6.44772 11.5523 6 11 6Z" fill="#0000CC"/>
<path d="M17.8452 12.1452C17.6646 11.9658 17.3779 11.9508 17.1795 12.1104C16.7791 12.4326 16.4409 12.8269 16.1816 13.2704C15.8311 13.8707 15.6514 14.5079 15.5666 15.0817C15.484 14.9993 15.4147 14.9184 15.3573 14.8437C15.2849 14.7551 15.1792 14.5675 15.1354 14.4848L15.1349 14.4837C15.0722 14.3291 14.9364 14.2158 14.7728 14.1819C14.608 14.1478 14.4371 14.199 14.318 14.318C13.4394 15.1966 13 16.3491 13 17.5C13 18.6509 13.4394 19.8034 14.318 20.682C16.0754 22.4393 18.9246 22.4393 20.682 20.682C21.5606 19.8034 22 18.6509 22 17.5C22 16.3491 21.5606 15.1966 20.682 14.318C20.2757 13.9117 19.8081 13.604 19.3633 13.3112L19.2701 13.2499C18.7873 12.9314 18.3106 12.6073 17.8452 12.1452Z" fill="#0000CC"/>
</svg>
