<svg width="24" height="24" viewBox="0 0 24 24" fill="none" xmlns="http://www.w3.org/2000/svg">
<path opacity="0.3" fill-rule="evenodd" clip-rule="evenodd" d="M3.32698 4.63803C3 5.27976 3 6.11984 3 7.8V16.2C3 17.8802 3 18.7202 3.32698 19.362C3.6146 19.9265 4.07354 20.3854 4.63803 20.673C5.27976 21 6.11984 21 7.8 21H8.60912C8.57396 20.8638 8.54584 20.7252 8.52508 20.5847C8.40209 19.7522 8.62731 19.0083 8.84762 18.4443C9.06153 17.8967 9.38424 17.2514 9.73592 16.5482L11.6344 12.7511C12.0612 11.8976 12.4412 11.1375 12.7979 10.5615C13.1496 9.99375 13.6745 9.2647 14.532 8.85805C15.6168 8.34354 16.8753 8.34354 17.9602 8.85805C18.8176 9.2647 19.3425 9.99373 19.6942 10.5615C20.051 11.1375 20.431 11.8976 20.8577 12.7512L21 13.0358V7.8C21 6.11984 21 5.27976 20.673 4.63803C20.3854 4.07354 19.9265 3.6146 19.362 3.32698C18.7202 3 17.8802 3 16.2 3H7.8C6.11984 3 5.27976 3 4.63803 3.32698C4.07354 3.6146 3.6146 4.07354 3.32698 4.63803Z" fill="#0000CC"/>
<path d="M7 6C6.44772 6 6 6.44772 6 7V11C6 11.5523 6.44772 12 7 12C7.55228 12 8 11.5523 8 11V7C8 6.44772 7.55228 6 7 6Z" fill="#0000CC"/>
<path d="M11 6C10.4477 6 10 6.44772 10 7V11C10 11.5523 10.4477 12 11 12C11.5523 12 12 11.5523 12 11V7C12 6.44772 11.5523 6 11 6Z" fill="#0000CC"/>
<path fill-rule="evenodd" clip-rule="evenodd" d="M11.5617 17.3689L13.384 13.7244C14.3052 11.882 14.7658 10.9607 15.3891 10.6651C15.9315 10.4079 16.5608 10.4079 17.1032 10.6651C17.7265 10.9607 18.1871 11.8819 19.1083 13.7244L20.9306 17.369C21.6973 18.9024 22.0807 19.6691 21.9886 20.2924C21.9082 20.8366 21.6072 21.3236 21.1564 21.6389C20.6401 22 19.7829 22 18.0684 22H14.4239C12.7094 22 11.8522 22 11.3359 21.6389C10.8851 21.3236 10.5841 20.8366 10.5037 20.2924C10.4116 19.6691 10.795 18.9024 11.5617 17.3689ZM16.2461 13C16.7984 13 17.2461 13.4477 17.2461 14V16C17.2461 16.5523 16.7984 17 16.2461 17C15.6938 17 15.2461 16.5523 15.2461 16V14C15.2461 13.4477 15.6938 13 16.2461 13ZM15.2461 19C15.2461 18.4477 15.6938 18 16.2461 18H16.2561C16.8084 18 17.2561 18.4477 17.2561 19C17.2561 19.5523 16.8084 20 16.2561 20H16.2461C15.6938 20 15.2461 19.5523 15.2461 19Z" fill="#0000CC"/>
</svg>
