<svg width="24" height="24" viewBox="0 0 24 24" fill="none" xmlns="http://www.w3.org/2000/svg">
<path opacity="0.3" d="M12.7158 2.30177C12.5276 2.10882 12.2695 2 11.9999 2C11.7304 2 11.4723 2.10881 11.2841 2.30176C9.57493 4.05407 7.44816 5 5.00009 5H4.0001C3.44784 5 3.00012 5.44805 3.00009 6.00032L3 9.16611C3 15.2332 6.62798 20.4587 11.7172 21.9592C11.9018 22.0136 12.0982 22.0136 12.2828 21.9592C17.372 20.4587 21 15.2332 21 9.16611V6C21 5.44772 20.5514 5 19.9991 5H19.0001C16.5519 5 14.4249 4.05411 12.7158 2.30177Z" fill="#0000CC"/>
</svg>
