<svg width="24" height="24" viewBox="0 0 24 24" fill="none" xmlns="http://www.w3.org/2000/svg">
<path opacity="0.3" d="M12.2863 2.08843C12.0966 2.06102 11.9039 2.06102 11.7142 2.08843C11.4956 2.12002 11.2922 2.19688 11.1306 2.2579L11.0873 2.27422L5.59491 4.33374C4.97712 4.56439 4.43457 4.76694 4.01675 5.13517C3.65124 5.45729 3.36968 5.86358 3.19641 6.31893C2.99834 6.83944 2.99918 7.41856 3.00013 8.078L3.00026 11.9999C3.00026 14.6468 4.61132 16.8183 6.28673 18.3757C7.98341 19.9529 9.91241 21.0568 10.8968 21.5697L10.9347 21.5895C11.1066 21.6797 11.3293 21.7964 11.6184 21.8527C11.8554 21.8988 12.1451 21.8988 12.3822 21.8527C12.6713 21.7964 12.8939 21.6797 13.0658 21.5895L13.1038 21.5697C14.0881 21.0568 16.0171 19.9529 17.7138 18.3757C19.3892 16.8184 21.0003 14.6468 21.0003 11.9999L21.0004 8.07799C21.0014 7.41855 21.0022 6.83944 20.8041 6.31893C20.6309 5.86358 20.3493 5.45729 19.9838 5.13517C19.566 4.76695 19.0234 4.56439 18.4056 4.33374L12.9132 2.27422L12.8699 2.2579C12.7084 2.19688 12.5049 2.12002 12.2863 2.08843Z" fill="#0000CC"/>
<path fill-rule="evenodd" clip-rule="evenodd" d="M8.86188 9.53393C9.8639 8.66157 11.1975 8.91783 11.9973 9.87051C12.797 8.91783 14.1134 8.67074 15.1326 9.53393C16.1519 10.3971 16.2757 11.8648 15.4888 12.8966C15.0209 13.5101 13.8748 14.6103 13.0226 15.4015C12.6708 15.728 12.4949 15.8913 12.2832 15.9575C12.102 16.0142 11.8925 16.0142 11.7114 15.9575C11.4996 15.8913 11.3237 15.728 10.9719 15.4015C10.1197 14.6103 8.97361 13.5101 8.50568 12.8966C7.71879 11.8648 7.85986 10.4063 8.86188 9.53393Z" fill="#0000CC"/>
</svg>
