<svg width="24" height="24" viewBox="0 0 24 24" fill="none" xmlns="http://www.w3.org/2000/svg">
<path d="M18.7071 3.29289C18.3166 2.90237 17.6834 2.90237 17.2929 3.29289C16.9024 3.68342 16.9024 4.31658 17.2929 4.70711L18.5859 6.00008L16.8842 6.00007C16.0666 5.99986 15.5094 5.99973 15.0245 6.09616C13.0411 6.49069 11.4906 8.04118 11.0961 10.0246C10.9996 10.5094 10.9998 11.0667 11 11.8843L11 12.0001C11 12.9773 10.9952 13.3199 10.9424 13.5854C10.7056 14.7754 9.77534 15.7057 8.58527 15.9424C8.31982 15.9952 7.97724 16.0001 7 16.0001H3C2.44772 16.0001 2 16.4478 2 17.0001C2 17.5524 2.44772 18.0001 3 18.0001L7.11575 18.0001C7.93335 18.0003 8.49065 18.0004 8.97545 17.904C10.9589 17.5095 12.5094 15.959 12.9039 13.9755C13.0004 13.4907 13.0002 12.9334 13 12.1158L13 12.0001C13 11.0228 13.0048 10.6803 13.0576 10.4148C13.2944 9.22474 14.2247 8.29445 15.4147 8.05773C15.6802 8.00493 16.0228 8.00008 17 8.00008H18.5857L17.2929 9.29289C16.9024 9.68342 16.9024 10.3166 17.2929 10.7071C17.6834 11.0976 18.3166 11.0976 18.7071 10.7071L21.6993 7.71487C21.7285 7.68636 21.7559 7.65608 21.7814 7.62421C21.8314 7.56177 21.8728 7.49472 21.9057 7.42464C21.9658 7.29661 21.9996 7.15375 22 7.00304L21.9999 6.98458C21.9981 6.86858 21.9766 6.75736 21.9385 6.65415C21.8901 6.52235 21.8129 6.39871 21.7071 6.29289L18.7071 3.29289Z" fill="#0000CC"/>
<g opacity="0.3">
<path d="M18.7071 13.2929C18.3166 12.9024 17.6834 12.9024 17.2929 13.2929C16.9024 13.6834 16.9024 14.3166 17.2929 14.7071L18.5858 16H17C16.0228 16 15.6802 15.9952 15.4147 15.9424C15.0872 15.8772 14.7793 15.7596 14.5002 15.5984C14.2494 16.2262 13.911 16.8085 13.4999 17.3304C13.9653 17.5991 14.4785 17.7953 15.0245 17.904C15.5094 18.0004 16.0666 18.0003 16.8842 18.0001L18.5857 18L17.2929 19.2929C16.9024 19.6834 16.9024 20.3166 17.2929 20.7071C17.6834 21.0976 18.3166 21.0976 18.7071 20.7071L21.7021 17.7122C21.7192 17.6953 21.7357 17.6777 21.7516 17.6596C21.8215 17.5802 21.8766 17.4923 21.917 17.3996C21.97 17.2781 21.9996 17.144 22 17.003L22 17C22 16.997 22 16.9939 22 16.9908C21.9988 16.865 21.9745 16.7448 21.931 16.6342C21.8822 16.5099 21.8076 16.3934 21.7071 16.2929L18.7071 13.2929Z" fill="#0000CC"/>
<path d="M8.97545 6.09611C9.52149 6.20472 10.0347 6.40095 10.5 6.66969C10.089 7.19159 9.75062 7.77386 9.49978 8.40169C9.22065 8.24051 8.9128 8.12283 8.58527 8.05768C8.31982 8.00488 7.97724 8.00004 7 8.00004H3C2.44772 8.00004 2 7.55232 2 7.00004C2 6.44775 2.44772 6.00004 3 6.00004L7.11575 6.00002C7.93336 5.99982 8.49065 5.99968 8.97545 6.09611Z" fill="#0000CC"/>
</g>
</svg>
