<svg width="24" height="24" viewBox="0 0 24 24" fill="none" xmlns="http://www.w3.org/2000/svg">
<g opacity="0.14">
<path d="M4 16L8 20L10 18L8 16L6 14L4 16Z" fill="#0000CC"/>
<path d="M8 20L4 16C2.77138 17.2 2.61929 19 3.82942 20.198C5.01128 21.3792 6.8002 21.2 8 20Z" fill="#0000CC"/>
<path d="M12 12L14 7L8.18182 8L6 14L8 16L12 12Z" fill="#0000CC"/>
<path d="M12 12L8 16L10 18L16 15.8182L17 10L12 12Z" fill="#0000CC"/>
<path d="M17 10L18 6L14 7L12 12L17 10Z" fill="#0000CC"/>
<path d="M14 7V3H10L8.18182 8L14 7Z" fill="#0000CC"/>
<path d="M21 14V10H17L16 15.8182L21 14Z" fill="#0000CC"/>
</g>
<path d="M8 20L4 16M8 20L10 18M8 20C6.8002 21.2 5.01128 21.3792 3.82942 20.198C2.61929 19 2.77138 17.2 4 16M4 16L6 14M10 18L8 16M10 18L16 15.8182M6 14L8 16M6 14L8.18182 8M17 10H21V14L16 15.8182M17 10L18 6L14 7M17 10L12 12M17 10L16 15.8182M14 7V3H10L8.18182 8M14 7L12 12M12 12L8 16M14.0018 7L8.18182 8" stroke="#0000CC" stroke-width="2" stroke-linecap="round" stroke-linejoin="round"/>
</svg>
