<svg width="24" height="24" viewBox="0 0 24 24" fill="none" xmlns="http://www.w3.org/2000/svg">
<path opacity="0.3" fill-rule="evenodd" clip-rule="evenodd" d="M14 20V4H6.16146C5.63432 3.99998 5.17954 3.99997 4.80497 4.03057C4.40963 4.06287 4.01641 4.13419 3.63803 4.32698C3.07354 4.6146 2.6146 5.07355 2.32698 5.63803C2.13419 6.01641 2.06287 6.40963 2.03057 6.80497C1.99997 7.17954 1.99998 7.6343 2 8.16144V15.8386C1.99998 16.3657 1.99997 16.8205 2.03057 17.195C2.06287 17.5904 2.13419 17.9836 2.32698 18.362C2.6146 18.9265 3.07354 19.3854 3.63803 19.673C4.01641 19.8658 4.40963 19.9371 4.80497 19.9694C5.17954 20 5.6343 20 6.16143 20H14Z" fill="#0000CC"/>
<path fill-rule="evenodd" clip-rule="evenodd" d="M14 4V20H17.8386C18.3657 20 18.8205 20 19.195 19.9694C19.5904 19.9371 19.9836 19.8658 20.362 19.673C20.9265 19.3854 21.3854 18.9265 21.673 18.362C21.8658 17.9836 21.9371 17.5904 21.9694 17.195C22 16.8205 22 16.3657 22 15.8385V8.16142C22 7.63429 22 7.17954 21.9694 6.80497C21.9371 6.40963 21.8658 6.01641 21.673 5.63803C21.3854 5.07355 20.9265 4.6146 20.362 4.32698C19.9836 4.13419 19.5904 4.06287 19.195 4.03057C18.8205 3.99997 18.3657 3.99998 17.8386 4H14ZM20 7C20 6.44772 19.5523 6 19 6H17C16.4477 6 16 6.44772 16 7C16 7.55229 16.4477 8 17 8H19C19.5523 8 20 7.55229 20 7ZM19 9C19.5523 9 20 9.44772 20 10C20 10.5523 19.5523 11 19 11H17C16.4477 11 16 10.5523 16 10C16 9.44772 16.4477 9 17 9H19ZM20 13C20 12.4477 19.5523 12 19 12H17C16.4477 12 16 12.4477 16 13C16 13.5523 16.4477 14 17 14H19C19.5523 14 20 13.5523 20 13Z" fill="#0000CC"/>
</svg>
