<svg width="24" height="24" viewBox="0 0 24 24" fill="none" xmlns="http://www.w3.org/2000/svg">
<g opacity="0.3">
<path d="M11 12.4142V20C11 20.5523 11.4477 21 12 21C12.5523 21 13 20.5523 13 20V14.4142L11 12.4142Z" fill="#0000CC"/>
<path d="M15 16.4142V20C15 20.5523 15.4477 21 16 21C16.5523 21 17 20.5523 17 20V18.4142L15 16.4142Z" fill="#0000CC"/>
<path d="M19 14.786V4C19 3.44772 19.4477 3 20 3C20.5523 3 21 3.44772 21 4V16.786L19 14.786Z" fill="#0000CC"/>
<path d="M17 12.786L15 10.786V8C15 7.44772 15.4477 7 16 7C16.5523 7 17 7.44772 17 8V12.786Z" fill="#0000CC"/>
<path d="M9 16C9 15.4477 8.55228 15 8 15C7.44772 15 7 15.4477 7 16V20C7 20.5523 7.44772 21 8 21C8.55228 21 9 20.5523 9 20V16Z" fill="#0000CC"/>
<path d="M5 19C5 18.4477 4.55228 18 4 18C3.44772 18 3 18.4477 3 19V20C3 20.5523 3.44772 21 4 21C4.55228 21 5 20.5523 5 20V19Z" fill="#0000CC"/>
</g>
<path fill-rule="evenodd" clip-rule="evenodd" d="M2.29289 2.29289C2.68342 1.90237 3.31658 1.90237 3.70711 2.29289L21.7071 20.2929C22.0976 20.6834 22.0976 21.3166 21.7071 21.7071C21.3166 22.0976 20.6834 22.0976 20.2929 21.7071L2.29289 3.70711C1.90237 3.31658 1.90237 2.68342 2.29289 2.29289Z" fill="#0000CC"/>
</svg>
