<svg width="24" height="24" viewBox="0 0 24 24" fill="none" xmlns="http://www.w3.org/2000/svg">
<path d="M13 3C13 2.44772 12.5523 2 12 2C11.4477 2 11 2.44772 11 3H13Z" fill="#0000CC"/>
<path d="M11 10V11H13V10H11Z" fill="#0000CC"/>
<path d="M13 18H11V21C11 21.5523 11.4477 22 12 22C12.5523 22 13 21.5523 13 21V18Z" fill="#0000CC"/>
<g opacity="0.3">
<path d="M4 3C3.44772 3 3 3.44772 3 4V9C3 9.55228 3.44772 10 4 10H19C19.3038 10 19.5911 9.86191 19.7809 9.62469L21.7809 7.12469C22.073 6.75948 22.073 6.24052 21.7809 5.8753L19.7809 3.3753C19.5911 3.13809 19.3038 3 19 3H4Z" fill="#0000CC"/>
<path fill-rule="evenodd" clip-rule="evenodd" d="M20 11H5C4.69622 11 4.4089 11.1381 4.21913 11.3753L2.21913 13.8753C1.92696 14.2405 1.92696 14.7595 2.21913 15.1247L4.21913 17.6247C4.4089 17.8619 4.69622 18 5 18H20C20.5523 18 21 17.5523 21 17V12C21 11.4477 20.5523 11 20 11ZM4.28062 14.5L5.48062 13H19V16H5.48062L4.28062 14.5Z" fill="#0000CC"/>
</g>
</svg>
