<svg width="24" height="24" viewBox="0 0 24 24" fill="none" xmlns="http://www.w3.org/2000/svg">
<path opacity="0.3" fill-rule="evenodd" clip-rule="evenodd" d="M20 9.73784V17.2C20 18.8802 20 19.7202 19.673 20.362C19.3854 20.9265 18.9265 21.3854 18.362 21.673C17.7202 22 16.8802 22 15.2 22H8.8C7.11984 22 6.27976 22 5.63803 21.673C5.07354 21.3854 4.6146 20.9265 4.32698 20.362C4 19.7202 4 18.8802 4 17.2V6.8C4 5.11984 4 4.27976 4.32698 3.63803C4.6146 3.07354 5.07354 2.6146 5.63803 2.32698C6.27976 2 7.11984 2 8.8 2H12.7518C13.5782 2 13.9914 2 14.3743 2.10301C14.7135 2.19429 15.0341 2.34444 15.3214 2.54664C15.6457 2.77484 15.9102 3.09226 16.4393 3.72711L18.8875 6.66496C19.2995 7.15938 19.5055 7.40665 19.6522 7.68403C19.7823 7.9301 19.8775 8.19308 19.9351 8.4654C20 8.77238 20 9.0942 20 9.73784Z" fill="#0000CC"/>
<path fill-rule="evenodd" clip-rule="evenodd" d="M9 14C8.44772 14 8 14.4477 8 15V17C8 17.5523 8.44772 18 9 18H15C15.5523 18 16 17.5523 16 17V15C16 14.4477 15.5523 14 15 14H9Z" fill="#0000CC"/>
</svg>
