<svg width="24" height="24" viewBox="0 0 24 24" fill="none" xmlns="http://www.w3.org/2000/svg">
<g opacity="0.3">
<path d="M11 6.5V6.76596L12 7.76596V6.5C12 5.94772 12.4477 5.5 13 5.5C13.5523 5.5 14 5.94772 14 6.5V8.5C14 8.84411 13.8262 9.14762 13.5616 9.32754L20 15.766V9.73784C20 9.0942 20 8.77238 19.9351 8.4654C19.8775 8.19308 19.7823 7.9301 19.6522 7.68403C19.5055 7.40665 19.2995 7.15938 18.8875 6.66496L16.4393 3.72711C15.9102 3.09226 15.6457 2.77484 15.3214 2.54664C15.0341 2.34444 14.7135 2.19429 14.3743 2.10301C13.9914 2 13.5782 2 12.7518 2H8.8C7.65795 2 6.90404 2 6.33673 2.10269L9.76243 5.52839C9.83858 5.50984 9.91814 5.5 10 5.5C10.5523 5.5 11 5.94772 11 6.5Z" fill="#0000CC"/>
<path fill-rule="evenodd" clip-rule="evenodd" d="M4.01069 5.42491C4 5.81136 4 6.26273 4 6.8V17.2C4 18.8802 4 19.7202 4.32698 20.362C4.6146 20.9265 5.07354 21.3854 5.63803 21.673C6.27976 22 7.11984 22 8.8 22H15.2C16.8802 22 17.7202 22 18.362 21.673C18.7691 21.4656 19.1213 21.1691 19.3939 20.8081L20.2929 21.7071C20.6834 22.0976 21.3166 22.0976 21.7071 21.7071C22.0976 21.3166 22.0976 20.6834 21.7071 20.2929L3.70711 2.29289C3.31658 1.90237 2.68342 1.90237 2.29289 2.29289C1.90237 2.68342 1.90237 3.31658 2.29289 3.70711L4.01069 5.42491ZM7.74871 9.16292L6 7.41421V8.5C6 9.05229 6.44772 9.5 7 9.5C7.29797 9.5 7.5655 9.36968 7.74871 9.16292Z" fill="#0000CC"/>
</g>
<path fill-rule="evenodd" clip-rule="evenodd" d="M2.29289 2.29289C2.68342 1.90237 3.31658 1.90237 3.70711 2.29289L21.7071 20.2929C22.0976 20.6834 22.0976 21.3166 21.7071 21.7071C21.3166 22.0976 20.6834 22.0976 20.2929 21.7071L2.29289 3.70711C1.90237 3.31658 1.90237 2.68342 2.29289 2.29289Z" fill="#0000CC"/>
</svg>
