<svg width="24" height="24" viewBox="0 0 24 24" fill="none" xmlns="http://www.w3.org/2000/svg">
<path opacity="0.3" d="M2.06826 13.6373C2.26844 13.1226 2.84798 12.8676 3.36271 13.0678L12.0003 16.4268L20.6378 13.0678C21.1526 12.8676 21.7321 13.1226 21.9323 13.6373C22.1324 14.1521 21.8774 14.7316 21.3627 14.9318L14.7593 17.4998L21.3627 20.0678C21.8774 20.268 22.1324 20.8475 21.9323 21.3622C21.7321 21.877 21.1526 22.132 20.6378 21.9318L12.0003 18.5727L3.36271 21.9318C2.84798 22.132 2.26844 21.877 2.06826 21.3622C1.86809 20.8475 2.12309 20.268 2.63782 20.0678L9.24124 17.4998L2.63782 14.9318C2.12309 14.7316 1.86809 14.1521 2.06826 13.6373Z" fill="#0000CC"/>
<path fill-rule="evenodd" clip-rule="evenodd" d="M5 8.5C5 4.83002 8.21769 2 12 2C15.7823 2 19 4.83002 19 8.5C19 9.16187 18.601 9.65452 18.3104 9.94536C17.995 10.2611 17.5973 10.5434 17.2492 10.7773C17.0984 10.8787 16.9601 10.969 16.8302 11.054C16.6273 11.1865 16.4441 11.3063 16.2644 11.4343C16.1273 11.532 16.0216 11.6146 15.9438 11.6845C15.8769 11.7447 15.8505 11.7776 15.8457 11.7837C15.6747 12.0546 15.6534 12.3869 15.617 12.9525L15.6066 13.113L15.6065 13.115C15.5901 13.3614 15.5611 13.7999 15.3723 14.1766C15.2626 14.3954 15.0873 14.6223 14.8157 14.7853C14.5478 14.9461 14.261 15 14 15H10.0007C9.73968 15 9.45218 14.9461 9.18432 14.7853C8.91274 14.6223 8.73738 14.3954 8.62769 14.1766C8.43894 13.7999 8.40986 13.3614 8.39351 13.115L8.39338 13.113L8.38296 12.9525C8.34663 12.3869 8.3251 12.0547 8.15413 11.7837C8.1493 11.7776 8.12313 11.7447 8.05618 11.6845C7.97836 11.6146 7.87273 11.532 7.73555 11.4343C7.55589 11.3063 7.3731 11.1868 7.17024 11.0542C7.04016 10.9692 6.90182 10.8788 6.75077 10.7773C6.40273 10.5434 6.005 10.2611 5.68955 9.94536C5.39895 9.65452 5 9.16187 5 8.5ZM11 7C11 7.55228 10.5523 8 9.99998 8C9.44769 8 8.99998 7.55228 8.99998 7C8.99998 6.44772 9.44769 6 9.99998 6C10.5523 6 11 6.44772 11 7ZM15 7C15 7.55228 14.5523 8 14 8C13.4477 8 13 7.55228 13 7C13 6.44772 13.4477 6 14 6C14.5523 6 15 6.44772 15 7Z" fill="#0000CC"/>
</svg>
