<svg width="24" height="24" viewBox="0 0 24 24" fill="none" xmlns="http://www.w3.org/2000/svg">
<path opacity="0.3" d="M7.14915 2.0165C8.32633 1.93991 9.49262 2.24381 10.4786 2.87664C11.8555 2.64789 13.2685 2.73307 14.6112 3.12828C16.0971 3.56564 17.4496 4.3687 18.5448 5.46396C19.6401 6.55922 20.4432 7.91169 20.8805 9.39759C21.2757 10.7403 21.3609 12.1533 21.1321 13.5302C21.765 14.5162 22.0689 15.6825 21.9923 16.8596C21.9056 18.1927 21.3369 19.4486 20.3923 20.3932C19.4477 21.3378 18.1917 21.9065 16.8587 21.9933C15.6815 22.0699 14.5152 21.766 13.5293 21.1331C12.1523 21.3619 10.7394 21.2767 9.39662 20.8815C7.91072 20.4441 6.55824 19.6411 5.46298 18.5458C4.36772 17.4506 3.56466 16.0981 3.12731 14.6122C2.73209 13.2694 2.64691 11.8565 2.87567 10.4795C2.24283 9.4936 1.93893 8.32731 2.01552 7.15013C2.10225 5.81709 2.67096 4.56112 3.61555 3.61653C4.56014 2.67193 5.81611 2.10323 7.14915 2.0165Z" fill="#0000CC"/>
<path fill-rule="evenodd" clip-rule="evenodd" d="M12 8.5C10.6917 8.5 10.1669 9.24413 10.1669 9.75C10.1669 9.92274 10.2132 10.0653 10.5721 10.2691C10.9755 10.4982 11.5366 10.6604 12.2733 10.8733C12.3024 10.8817 12.3317 10.8902 12.3613 10.8988C13.064 11.1021 13.9422 11.3601 14.6357 11.8133C15.3963 12.3104 16 13.0877 16 14.25C16 15.2566 15.4534 16.0916 14.7212 16.6408C13.9893 17.1898 13.0239 17.5 12 17.5C10.9761 17.5 10.0107 17.1898 9.27876 16.6408C8.54657 16.0916 8 15.2566 8 14.25C8 13.6977 8.44772 13.25 9 13.25C9.55228 13.25 10 13.6977 10 14.25C10 14.4856 10.1251 14.7756 10.4788 15.0408C10.8327 15.3063 11.3673 15.5 12 15.5C12.6327 15.5 13.1673 15.3063 13.5212 15.0408C13.8749 14.7756 14 14.4856 14 14.25C14 13.9123 13.8746 13.7052 13.5415 13.4875C13.1412 13.2259 12.5611 13.0386 11.8055 12.82C11.7503 12.804 11.6939 12.7878 11.6363 12.7713C10.9873 12.5849 10.204 12.3601 9.58449 12.0082C8.84965 11.5909 8.16687 10.8898 8.16687 9.75C8.16687 7.77149 9.99521 6.5 12 6.5C13.5247 6.5 14.8991 7.19792 15.5178 8.42387C15.7666 8.91693 15.5686 9.51834 15.0755 9.76715C14.5824 10.016 13.981 9.81795 13.7322 9.32488C13.5315 8.92708 12.9596 8.5 12 8.5Z" fill="#0000CC"/>
</svg>
