<svg width="24" height="24" viewBox="0 0 24 24" fill="none" xmlns="http://www.w3.org/2000/svg">
<path opacity="0.3" fill-rule="evenodd" clip-rule="evenodd" d="M2 3C2 2.44772 2.44772 2 3 2H6C7.65685 2 9 3.34315 9 5C9 7.76142 11.2386 10 14 10H15.0123C15.0148 9.94407 15.0178 9.88993 15.0213 9.83762C15.0439 9.50779 15.0934 9.17788 15.2284 8.85195C15.5328 8.11686 16.1169 7.53284 16.852 7.22836C17.1779 7.09336 17.5078 7.04385 17.8376 7.02135C18.1509 6.99998 18.5294 6.99999 18.968 7L20 7C20.5523 7 21 7.44772 21 8V10.6428C21 11.7266 21 12.6008 20.9422 13.3086C20.8826 14.0375 20.7568 14.6777 20.455 15.27C19.9757 16.2108 19.2108 16.9757 18.27 17.455C17.6777 17.7568 17.0375 17.8826 16.3086 17.9422C15.6007 18 14.7266 18 13.6428 18H10.3572C9.27342 18 8.39926 18 7.69138 17.9422C6.96253 17.8826 6.32234 17.7568 5.73005 17.455C4.78924 16.9757 4.02433 16.2108 3.54497 15.27C3.24318 14.6777 3.11737 14.0375 3.05782 13.3086C2.99998 12.6007 2.99999 11.7266 3 10.6428V4C2.44772 4 2 3.55228 2 3Z" fill="#0000CC"/>
<path d="M6 17.5793V20H4C3.44772 20 3 20.4477 3 21C3 21.5523 3.44772 22 4 22H18C20.2091 22 22 20.2091 22 18C22 17.4477 21.5523 17 21 17C20.4477 17 20 17.4477 20 18C20 19.1046 19.1046 20 18 20H15V17.9945C14.5885 18 14.1375 18 13.6428 18H13V20H8V17.9633C7.89376 17.9573 7.79092 17.9503 7.69138 17.9422C7.07187 17.8915 6.51643 17.793 6 17.5793Z" fill="#0000CC"/>
</svg>
