<svg width="24" height="24" viewBox="0 0 24 24" fill="none" xmlns="http://www.w3.org/2000/svg">
<g opacity="0.3">
<path d="M6.14494 4.5H3C2.44772 4.5 2 4.94772 2 5.5C2 6.05228 2.44772 6.5 3 6.5H6.14494C6.05064 6.18315 6 5.84749 6 5.5C6 5.15251 6.05064 4.81685 6.14494 4.5Z" fill="#0000CC"/>
<path d="M12.8551 6.5H21C21.5523 6.5 22 6.05228 22 5.5C22 4.94772 21.5523 4.5 21 4.5H12.8551C12.9494 4.81685 13 5.15251 13 5.5C13 5.84749 12.9494 6.18315 12.8551 6.5Z" fill="#0000CC"/>
<path d="M13.1449 11H3C2.44772 11 2 11.4477 2 12C2 12.5523 2.44772 13 3 13H13.1449C13.0506 12.6831 13 12.3475 13 12C13 11.6525 13.0506 11.3169 13.1449 11Z" fill="#0000CC"/>
<path d="M19.8551 13H21C21.5523 13 22 12.5523 22 12C22 11.4477 21.5523 11 21 11H19.8551C19.9494 11.3169 20 11.6525 20 12C20 12.3475 19.9494 12.6831 19.8551 13Z" fill="#0000CC"/>
<path d="M4.14494 17.5H3C2.44772 17.5 2 17.9477 2 18.5C2 19.0523 2.44772 19.5 3 19.5H4.14494C4.05064 19.1831 4 18.8475 4 18.5C4 18.1525 4.05064 17.8169 4.14494 17.5Z" fill="#0000CC"/>
<path d="M10.8551 19.5H21C21.5523 19.5 22 19.0523 22 18.5C22 17.9477 21.5523 17.5 21 17.5H10.8551C10.9494 17.8169 11 18.1525 11 18.5C11 18.8475 10.9494 19.1831 10.8551 19.5Z" fill="#0000CC"/>
</g>
<path d="M15 5.5C15 7.433 13.433 9 11.5 9C9.567 9 8 7.433 8 5.5C8 3.567 9.567 2 11.5 2C13.433 2 15 3.567 15 5.5Z" fill="#0000CC"/>
<path d="M13 18.5C13 20.433 11.433 22 9.5 22C7.567 22 6 20.433 6 18.5C6 16.567 7.567 15 9.5 15C11.433 15 13 16.567 13 18.5Z" fill="#0000CC"/>
<path d="M18.5 15.5C20.433 15.5 22 13.933 22 12C22 10.067 20.433 8.5 18.5 8.5C16.567 8.5 15 10.067 15 12C15 13.933 16.567 15.5 18.5 15.5Z" fill="#0000CC"/>
</svg>
