<svg width="24" height="24" viewBox="0 0 24 24" fill="none" xmlns="http://www.w3.org/2000/svg">
<g opacity="0.3">
<path d="M4.5 6.14494V3C4.5 2.44772 4.94772 2 5.5 2C6.05228 2 6.5 2.44772 6.5 3V6.14494C6.18315 6.05064 5.84749 6 5.5 6C5.15251 6 4.81685 6.05064 4.5 6.14494Z" fill="#0000CC"/>
<path d="M6.5 12.8551L6.5 21C6.5 21.5523 6.05228 22 5.5 22C4.94772 22 4.5 21.5523 4.5 21V12.8551C4.81685 12.9494 5.15251 13 5.5 13C5.84749 13 6.18315 12.9494 6.5 12.8551Z" fill="#0000CC"/>
<path d="M11 13.1449V3C11 2.44772 11.4477 2 12 2C12.5523 2 13 2.44772 13 3V13.1449C12.6831 13.0506 12.3475 13 12 13C11.6525 13 11.3169 13.0506 11 13.1449Z" fill="#0000CC"/>
<path d="M13 19.8551V21C13 21.5523 12.5523 22 12 22C11.4477 22 11 21.5523 11 21V19.8551C11.3169 19.9494 11.6525 20 12 20C12.3475 20 12.6831 19.9494 13 19.8551Z" fill="#0000CC"/>
<path d="M17.5 4.14494V3C17.5 2.44772 17.9477 2 18.5 2C19.0523 2 19.5 2.44772 19.5 3V4.14494C19.1831 4.05064 18.8475 4 18.5 4C18.1525 4 17.8169 4.05064 17.5 4.14494Z" fill="#0000CC"/>
<path d="M19.5 10.8551V21C19.5 21.5523 19.0523 22 18.5 22C17.9477 22 17.5 21.5523 17.5 21V10.8551C17.8169 10.9494 18.1525 11 18.5 11C18.8475 11 19.1831 10.9494 19.5 10.8551Z" fill="#0000CC"/>
</g>
<path d="M5.5 13C7.433 13 9 11.433 9 9.5C9 7.567 7.433 6 5.5 6C3.567 6 2 7.567 2 9.5C2 11.433 3.567 13 5.5 13Z" fill="#0000CC"/>
<path d="M18.5 11C20.433 11 22 9.433 22 7.5C22 5.567 20.433 4 18.5 4C16.567 4 15 5.567 15 7.5C15 9.433 16.567 11 18.5 11Z" fill="#0000CC"/>
<path d="M15.5 16.5C15.5 18.433 13.933 20 12 20C10.067 20 8.5 18.433 8.5 16.5C8.5 14.567 10.067 13 12 13C13.933 13 15.5 14.567 15.5 16.5Z" fill="#0000CC"/>
</svg>
