<svg width="24" height="24" viewBox="0 0 24 24" fill="none" xmlns="http://www.w3.org/2000/svg">
<g opacity="0.3">
<path d="M11.0004 4.5865L9.70678 3.29289C9.31626 2.90237 8.68309 2.90237 8.29257 3.29289C7.90205 3.68342 7.90205 4.31658 8.29257 4.70711L11.0004 7.41492V4.5865Z" fill="#0000CC"/>
<path d="M8.52918 8.84058L7.53844 5.14309C7.3955 4.60962 6.84716 4.29304 6.31369 4.43598C5.78023 4.57893 5.46365 5.12726 5.60659 5.66073L6.07969 7.42637L8.52918 8.84058Z" fill="#0000CC"/>
<path d="M5.0803 9.15877L7.52979 10.573L3.83133 11.564C3.29787 11.7069 2.74953 11.3903 2.60659 10.8569C2.46365 10.3234 2.78023 9.77508 3.31369 9.63214L5.0803 9.15877Z" fill="#0000CC"/>
<path d="M7.53026 13.427L5.08077 14.8412L3.31416 14.3678C2.78069 14.2249 2.46411 13.6766 2.60705 13.1431C2.74999 12.6096 3.29833 12.293 3.8318 12.436L7.53026 13.427Z" fill="#0000CC"/>
<path d="M6.08015 16.5736L8.52964 15.1594L7.5389 18.8569C7.39596 19.3904 6.84762 19.7069 6.31416 19.564C5.78069 19.4211 5.46411 18.8727 5.60705 18.3393L6.08015 16.5736Z" fill="#0000CC"/>
<path d="M11.0004 16.5851V19.4135L9.70678 20.7071C9.31626 21.0976 8.68309 21.0976 8.29257 20.7071C7.90205 20.3166 7.90205 19.6834 8.29257 19.2929L11.0004 16.5851Z" fill="#0000CC"/>
<path d="M13.0004 19.4149V16.5865L15.7068 19.2929C16.0973 19.6834 16.0973 20.3166 15.7068 20.7071C15.3163 21.0976 14.6831 21.0976 14.2926 20.7071L13.0004 19.4149Z" fill="#0000CC"/>
<path d="M15.472 15.1584L17.9215 16.5726L18.3948 18.3392C18.5378 18.8727 18.2212 19.421 17.6877 19.564C17.1543 19.7069 16.6059 19.3903 16.463 18.8569L15.472 15.1584Z" fill="#0000CC"/>
<path d="M18.9221 14.8409L16.4726 13.4267L20.1701 12.436C20.7036 12.293 21.2519 12.6096 21.3948 13.1431C21.5378 13.6766 21.2212 14.2249 20.6877 14.3678L18.9221 14.8409Z" fill="#0000CC"/>
<path d="M16.4731 10.5733L18.9226 9.15904L20.6882 9.63214C21.2217 9.77508 21.5382 10.3234 21.3953 10.8569C21.2524 11.3904 20.704 11.7069 20.1706 11.564L16.4731 10.5733Z" fill="#0000CC"/>
<path d="M17.9219 7.42734L15.4725 8.84156L16.4635 5.1431C16.6064 4.60963 17.1547 4.29305 17.6882 4.43599C18.2217 4.57893 18.5383 5.12727 18.3953 5.66074L17.9219 7.42734Z" fill="#0000CC"/>
<path d="M13.0004 7.4135V4.58508L14.2926 3.29289C14.6831 2.90237 15.3163 2.90237 15.7068 3.29289C16.0973 3.68342 16.0973 4.31658 15.7068 4.70711L13.0004 7.4135Z" fill="#0000CC"/>
</g>
<path fill-rule="evenodd" clip-rule="evenodd" d="M12.0004 2C12.5527 2 13.0004 2.44772 13.0004 3V10.2688L19.2961 6.63397C19.7744 6.35783 20.386 6.5217 20.6621 6.99999C20.9383 7.47829 20.7744 8.08988 20.2961 8.36602L14.0017 12.0001L20.2957 15.634C20.7739 15.9101 20.9378 16.5217 20.6617 17C20.3855 17.4783 19.7739 17.6422 19.2957 17.366L13.0004 13.7314V21C13.0004 21.5523 12.5527 22 12.0004 22C11.4481 22 11.0004 21.5523 11.0004 21V13.7329L4.70766 17.366C4.22937 17.6422 3.61778 17.4783 3.34164 17C3.06549 16.5217 3.22937 15.9101 3.70766 15.634L10.0017 12.0001L3.7072 8.36601C3.22891 8.08987 3.06503 7.47828 3.34117 6.99999C3.61732 6.52169 4.22891 6.35782 4.7072 6.63396L11.0004 10.2673V3C11.0004 2.44772 11.4481 2 12.0004 2Z" fill="#0000CC"/>
</svg>
