<svg width="24" height="24" viewBox="0 0 24 24" fill="none" xmlns="http://www.w3.org/2000/svg">
<path opacity="0.3" fill-rule="evenodd" clip-rule="evenodd" d="M7 7C7 4.23858 9.23858 2 12 2C14.7614 2 17 4.23858 17 7C17 7.91034 16.7561 8.76473 16.3307 9.50025C17.9551 10.7812 19 12.7681 19 15C19 18.866 15.866 22 12 22C8.13401 22 5 18.866 5 15C5 13.7236 5.34256 12.5241 5.94143 11.4918C6.38733 10.7231 6.97514 10.0474 7.66925 9.50017C7.24389 8.76467 7 7.91031 7 7Z" fill="#0000CC"/>
<path d="M5.28572 9.9404C5.5077 10.3844 5.88821 10.7166 6.33869 10.8823C6.19613 11.078 6.06346 11.2814 5.94143 11.4918C5.72734 11.8608 5.54601 12.2512 5.40138 12.6589C4.58937 12.2957 3.9093 11.6597 3.49686 10.8348L2.30306 8.44722C2.05607 7.95324 2.25629 7.35257 2.75027 7.10558C3.24425 6.85859 3.84492 7.05881 4.09191 7.55279L5.28572 9.9404Z" fill="#0000CC"/>
<path d="M20.7008 10.8348C20.2595 11.7174 19.5118 12.3837 18.624 12.7311C18.4023 12.0838 18.0884 11.4794 17.6982 10.9335C18.2183 10.7927 18.664 10.4363 18.9119 9.9404L20.1057 7.55279C20.3527 7.05881 20.9534 6.85859 21.4474 7.10558C21.9414 7.35257 22.1416 7.95324 21.8946 8.44722L20.7008 10.8348Z" fill="#0000CC"/>
<path d="M12 13C11.4477 13 11 13.4477 11 14C11 14.5523 11.4477 15 12 15H12.01C12.5623 15 13.01 14.5523 13.01 14C13.01 13.4477 12.5623 13 12.01 13H12Z" fill="#0000CC"/>
<path d="M12 16C11.4477 16 11 16.4477 11 17C11 17.5523 11.4477 18 12 18H12.01C12.5623 18 13.01 17.5523 13.01 17C13.01 16.4477 12.5623 16 12.01 16H12Z" fill="#0000CC"/>
</svg>
