<svg width="24" height="24" viewBox="0 0 24 24" fill="none" xmlns="http://www.w3.org/2000/svg">
<path opacity="0.3" fill-rule="evenodd" clip-rule="evenodd" d="M2 6.8C2 5.11984 2 4.27976 2.32698 3.63803C2.6146 3.07354 3.07354 2.6146 3.63803 2.32698C4.27976 2 5.11984 2 6.8 2H17.2C18.8802 2 19.7202 2 20.362 2.32698C20.9265 2.6146 21.3854 3.07354 21.673 3.63803C22 4.27976 22 5.11984 22 6.8V13.2C22 14.8802 22 15.7202 21.673 16.362C21.3854 16.9265 20.9265 17.3854 20.362 17.673C19.7202 18 18.8802 18 17.2 18H6.8C5.11984 18 4.27976 18 3.63803 17.673C3.07354 17.3854 2.6146 16.9265 2.32698 16.362C2 15.7202 2 14.8802 2 13.2V6.8ZM12 11.5C12.8284 11.5 13.5 10.8284 13.5 10C13.5 9.17157 12.8284 8.5 12 8.5C11.1716 8.5 10.5 9.17157 10.5 10C10.5 10.8284 11.1716 11.5 12 11.5Z" fill="#0000CC"/>
<path fill-rule="evenodd" clip-rule="evenodd" d="M17 10C17 12.7614 14.7614 15 12 15C9.23858 15 7 12.7614 7 10C7 7.23858 9.23858 5 12 5C14.7614 5 17 7.23858 17 10ZM13.5 10C13.5 10.8284 12.8284 11.5 12 11.5C11.1716 11.5 10.5 10.8284 10.5 10C10.5 9.17157 11.1716 8.5 12 8.5C12.8284 8.5 13.5 9.17157 13.5 10Z" fill="#0000CC"/>
<path d="M5.61006 19.939C5.41053 19.9227 5.21127 19.9014 5.0127 19.8726C5.03267 20.3334 5.08436 20.6457 5.2181 20.9081C5.40985 21.2845 5.71581 21.5904 6.09213 21.7822C6.51996 22.0002 7.08001 22.0002 8.20011 22.0002H15.8001C16.9202 22.0002 17.4803 22.0002 17.9081 21.7822C18.2844 21.5904 18.5904 21.2845 18.7821 20.9081C18.9159 20.6457 18.9676 20.3334 18.9875 19.8726C18.789 19.9014 18.5897 19.9227 18.3902 19.939C17.641 20.0002 16.7315 20.0002 15.6772 20.0002H8.32301C7.26872 20.0002 6.3592 20.0002 5.61006 19.939Z" fill="#0000CC"/>
</svg>
