<svg width="24" height="24" viewBox="0 0 24 24" fill="none" xmlns="http://www.w3.org/2000/svg">
<path opacity="0.3" fill-rule="evenodd" clip-rule="evenodd" d="M11.1914 5.88282C10.7089 5.78359 10.2085 5.9276 9.85248 6.2681C9.52805 6.57841 9.45044 6.99054 9.41793 7.18022C9.37981 7.40267 9.35641 7.68387 9.33211 7.97592L9.07835 11.0187C9.0692 11.1284 9.06392 11.1906 9.05888 11.236L9.05784 11.2452C9.04897 11.2581 9.03713 11.275 9.0215 11.2969C8.96825 11.3716 8.89238 11.4744 8.78091 11.6253C8.29034 12.2895 8 13.1123 8 14C8 16.2091 9.79086 18 12 18C14.2091 18 16 16.2091 16 14C16 13.1124 15.7097 12.2896 15.2192 11.6255C15.1077 11.4745 15.0318 11.3717 14.9786 11.297C14.9629 11.2751 14.9511 11.2581 14.9422 11.2452L14.9412 11.2361C14.9361 11.1907 14.9309 11.1285 14.9217 11.0187L14.6684 7.97592C14.6441 7.68387 14.6207 7.40267 14.5825 7.18022C14.55 6.99054 14.4724 6.57841 14.148 6.2681C13.792 5.9276 13.2916 5.78359 12.809 5.88282C12.4141 5.96404 12.1441 6.22066 12.0002 6.37598C11.8564 6.22066 11.5864 5.96404 11.1914 5.88282ZM12 15C12.5523 15 13 14.5523 13 14C13 13.4477 12.5523 13 12 13C11.4477 13 11 13.4477 11 14C11 14.5523 11.4477 15 12 15Z" fill="#0000CC"/>
<path d="M7.48762 2.04219C8.01661 2.20089 8.31679 2.75837 8.1581 3.28737L7.10315 6.80386L9.19703 9.59569L9.07835 11.0187C9.0692 11.1284 9.06392 11.1906 9.05888 11.236L9.05784 11.2452C9.04897 11.2581 9.03713 11.275 9.0215 11.2969C8.96825 11.3716 8.89238 11.4744 8.78091 11.6253C8.29034 12.2895 8 13.1123 8 14C8 14.4951 8.08995 14.9692 8.25439 15.4068L7.17065 16.6712L8.91408 20.5939C9.13839 21.0986 8.91109 21.6895 8.40641 21.9138C7.90173 22.1381 7.31076 21.9108 7.08646 21.4062L5.08646 16.9062C4.92974 16.5535 4.98989 16.1422 5.24101 15.8492L6.59955 14.2643L4.88426 14.7789L4.48667 17.1644C4.39587 17.7092 3.88064 18.0772 3.33587 17.9864C2.7911 17.8956 2.42308 17.3804 2.51388 16.8356L3.01388 13.8356C3.07656 13.4595 3.34769 13.1518 3.71292 13.0422L7.26639 11.9762L4.18404 10.9487C3.89777 10.8533 3.6699 10.6337 3.56394 10.3511L2.06394 6.35114C1.87002 5.83402 2.13203 5.25761 2.64915 5.06369C3.16627 4.86977 3.74268 5.13178 3.9366 5.6489L5.26909 9.2022L6.77951 9.70567L5.20027 7.60002C5.0098 7.34606 4.95122 7.01674 5.04244 6.71267L6.24244 2.71267C6.40114 2.18368 6.95863 1.8835 7.48762 2.04219Z" fill="#0000CC"/>
<path d="M16 14C16 14.4949 15.9101 14.9689 15.7458 15.4064L16.8299 16.6712L15.0865 20.5939C14.8622 21.0986 15.0894 21.6895 15.5941 21.9138C16.0988 22.1381 16.6898 21.9108 16.9141 21.4062L18.9141 16.9062C19.0708 16.5535 19.0107 16.1422 18.7595 15.8492L17.401 14.2643L19.1163 14.7789L19.5139 17.1644C19.6047 17.7092 20.1199 18.0772 20.6647 17.9864C21.2094 17.8956 21.5775 17.3804 21.4867 16.8356L20.9867 13.8356C20.924 13.4595 20.6528 13.1518 20.2876 13.0422L16.7342 11.9762L19.8165 10.9487C20.1028 10.8533 20.3306 10.6337 20.4366 10.3511L21.9366 6.35114C22.1305 5.83402 21.8685 5.25761 21.3514 5.06369C20.8343 4.86977 20.2579 5.13178 20.0639 5.6489L18.7315 9.2022L17.221 9.70567L18.8003 7.60002C18.9907 7.34606 19.0493 7.01674 18.9581 6.71267L17.7581 2.71267C17.5994 2.18368 17.0419 1.8835 16.5129 2.04219C15.9839 2.20089 15.6837 2.75837 15.8424 3.28737L16.8974 6.80386L14.8033 9.59602L14.9217 11.0187C14.9309 11.1285 14.9361 11.1907 14.9412 11.2361L14.9422 11.2452C14.9511 11.2581 14.9629 11.2751 14.9786 11.297C15.0318 11.3717 15.1077 11.4745 15.2192 11.6255C15.7097 12.2896 16 13.1124 16 14Z" fill="#0000CC"/>
<path d="M12 15C12.5523 15 13 14.5523 13 14C13 13.4477 12.5523 13 12 13C11.4477 13 11 13.4477 11 14C11 14.5523 11.4477 15 12 15Z" fill="#0000CC"/>
</svg>
