<svg width="24" height="24" viewBox="0 0 24 24" fill="none" xmlns="http://www.w3.org/2000/svg">
<path opacity="0.3" d="M12 2C6.47715 2 2 6.47715 2 12C2 17.5228 6.47715 22 12 22C17.5228 22 22 17.5228 22 12C22 6.47715 17.5228 2 12 2Z" fill="#0000CC"/>
<path fill-rule="evenodd" clip-rule="evenodd" d="M12 9C10.3436 9 8.83074 9.65021 7.68536 10.7282C7.28319 11.1067 6.65031 11.0875 6.2718 10.6854C5.89328 10.2832 5.91247 9.65031 6.31464 9.27179C7.80978 7.86463 9.80569 7 12 7C14.1943 7 16.1902 7.86463 17.6854 9.27179C18.0875 9.65031 18.1067 10.2832 17.7282 10.6854C17.3497 11.0875 16.7168 11.1067 16.3146 10.7282C15.1693 9.65021 13.6564 9 12 9ZM12 13C11.062 13 10.2281 13.3077 9.61714 13.7869C9.18257 14.1277 8.55398 14.0517 8.21315 13.6171C7.87231 13.1826 7.9483 12.554 8.38287 12.2131C9.3562 11.4498 10.6276 11 12 11C13.3724 11 14.6438 11.4498 15.6171 12.2131C16.0517 12.554 16.1277 13.1826 15.7869 13.6171C15.446 14.0517 14.8174 14.1277 14.3829 13.7869C13.7719 13.3077 12.938 13 12 13ZM12 17C11.3853 17 10.8629 17.1526 10.507 17.3619C10.031 17.642 9.41808 17.483 9.13807 17.007C8.85805 16.531 9.01695 15.9181 9.49299 15.6381C10.1933 15.2261 11.0744 15 12 15C12.9256 15 13.8067 15.2261 14.507 15.6381C14.9831 15.9181 15.142 16.531 14.8619 17.007C14.5819 17.483 13.969 17.642 13.493 17.3619C13.1371 17.1526 12.6147 17 12 17Z" fill="#0000CC"/>
</svg>
