<svg width="24" height="24" viewBox="0 0 24 24" fill="none" xmlns="http://www.w3.org/2000/svg">
<rect opacity="0.3" x="3" y="3" width="18" height="18" rx="3" fill="#0000CC"/>
<path fill-rule="evenodd" clip-rule="evenodd" d="M11.9472 7.10555C12.4412 7.35254 12.6414 7.95321 12.3944 8.44719L10.118 13H12.5V8.99997C12.5 8.44769 12.9477 7.99997 13.5 7.99997C14.0523 7.99997 14.5 8.44769 14.5 8.99997V13H15.5C16.0523 13 16.5 13.4477 16.5 14C16.5 14.5523 16.0523 15 15.5 15H14.5V16C14.5 16.5523 14.0523 17 13.5 17C12.9477 17 12.5 16.5523 12.5 16V15H8.5C8.15342 15 7.83156 14.8205 7.64935 14.5257C7.46714 14.2309 7.45058 13.8627 7.60557 13.5528L10.6056 7.55276C10.8526 7.05878 11.4532 6.85856 11.9472 7.10555Z" fill="#0000CC"/>
</svg>
