<svg width="24" height="24" viewBox="0 0 24 24" fill="none" xmlns="http://www.w3.org/2000/svg">
<rect opacity="0.3" x="3" y="3" width="18" height="18" rx="3" fill="#0000CC"/>
<path fill-rule="evenodd" clip-rule="evenodd" d="M12.3827 7.07615C12.7564 7.23093 13 7.59557 13 8.00003V15H14C14.5523 15 15 15.4477 15 16C15 16.5523 14.5523 17 14 17H10C9.44772 17 9 16.5523 9 16C9 15.4477 9.44772 15 10 15H11V10.4142L10.7071 10.7071C10.3166 11.0977 9.68342 11.0977 9.29289 10.7071C8.90237 10.3166 8.90237 9.68345 9.29289 9.29292L11.2929 7.29292C11.5789 7.00692 12.009 6.92137 12.3827 7.07615Z" fill="#0000CC"/>
</svg>
