<svg width="24" height="24" viewBox="0 0 24 24" fill="none" xmlns="http://www.w3.org/2000/svg">
<rect opacity="0.3" x="3" y="3" width="18" height="18" rx="3" fill="#0000CC"/>
<path fill-rule="evenodd" clip-rule="evenodd" d="M12 9C11.1716 9 10.5 9.67157 10.5 10.5C10.5 11.3284 11.1716 12 12 12C12.4848 12 12.9158 11.77 13.19 11.4132C13.197 11.4036 13.2041 11.3942 13.2113 11.3849C13.3928 11.1368 13.5 10.8309 13.5 10.5C13.5 9.67157 12.8284 9 12 9ZM14.8567 12.5227C15.2618 11.9515 15.5 11.2536 15.5 10.5C15.5 8.567 13.933 7 12 7C10.067 7 8.5 8.567 8.5 10.5C8.5 12.3938 10.0041 13.9363 11.8829 13.9981L11.1056 15.5528C10.8586 16.0468 11.0588 16.6474 11.5528 16.8944C12.0468 17.1414 12.6474 16.9412 12.8944 16.4472L14.8567 12.5227Z" fill="#0000CC"/>
</svg>
