<svg width="24" height="24" viewBox="0 0 24 24" fill="none" xmlns="http://www.w3.org/2000/svg">
<path opacity="0.3" fill-rule="evenodd" clip-rule="evenodd" d="M7.16146 3H16.8385C17.3657 2.99998 17.8205 2.99997 18.195 3.03057C18.5904 3.06287 18.9836 3.13419 19.362 3.32698C19.9265 3.6146 20.3854 4.07355 20.673 4.63803C20.8658 5.01641 20.9371 5.40963 20.9694 5.80498C21 6.17954 21 6.6343 21 7.16144V16.8386C21 17.3657 21 17.8205 20.9694 18.195C20.9371 18.5904 20.8658 18.9836 20.673 19.362C20.3854 19.9265 19.9265 20.3854 19.362 20.673C18.9836 20.8658 18.5904 20.9371 18.195 20.9694C17.8205 21 17.3657 21 16.8386 21H7.16144C6.6343 21 6.17954 21 5.80498 20.9694C5.40963 20.9371 5.01641 20.8658 4.63803 20.673C4.07355 20.3854 3.6146 19.9265 3.32698 19.362C3.13419 18.9836 3.06287 18.5904 3.03057 18.195C2.99997 17.8205 2.99998 17.3657 3 16.8386V7.16142C2.99998 6.63431 2.99997 6.17953 3.03057 5.80498C3.06287 5.40963 3.13419 5.01641 3.32698 4.63803C3.6146 4.07355 4.07355 3.6146 4.63803 3.32698C5.01641 3.13419 5.40963 3.06287 5.80498 3.03057C6.17953 2.99997 6.63434 2.99998 7.16146 3Z" fill="#0000CC"/>
<path fill-rule="evenodd" clip-rule="evenodd" d="M12 5.5C12.5523 5.5 13 5.94772 13 6.5V7H13.0833C14.6942 7 16 8.30584 16 9.91667V10C16 10.5523 15.5523 11 15 11C14.4477 11 14 10.5523 14 10V9.91667C14 9.41041 13.5896 9 13.0833 9H13V11C14.6569 11 16 12.3431 16 14C16 15.6569 14.6569 17 13 17V17.5C13 18.0523 12.5523 18.5 12 18.5C11.4477 18.5 11 18.0523 11 17.5V17H10.9583C9.32449 17 8 15.6755 8 14.0417V14C8 13.4477 8.44771 13 9 13C9.55229 13 10 13.4477 10 14V14.0417C10 14.5709 10.4291 15 10.9583 15H11V13C9.34315 13 8 11.6569 8 10C8 8.34315 9.34315 7 11 7V6.5C11 5.94772 11.4477 5.5 12 5.5ZM11 9C10.4477 9 10 9.44772 10 10C10 10.5523 10.4477 11 11 11V9ZM13 15C13.5523 15 14 14.5523 14 14C14 13.4477 13.5523 13 13 13V15Z" fill="#0000CC"/>
</svg>
