<svg width="24" height="24" viewBox="0 0 24 24" fill="none" xmlns="http://www.w3.org/2000/svg">
<path opacity="0.3" fill-rule="evenodd" clip-rule="evenodd" d="M3.32698 4.63803C3 5.27976 3 6.11984 3 7.8V16.2C3 17.8802 3 18.7202 3.32698 19.362C3.6146 19.9265 4.07354 20.3854 4.63803 20.673C5.27976 21 6.11984 21 7.8 21H16.2C17.8802 21 18.7202 21 19.362 20.673C19.9265 20.3854 20.3854 19.9265 20.673 19.362C21 18.7202 21 17.8802 21 16.2V7.8C21 6.11984 21 5.27976 20.673 4.63803C20.3854 4.07354 19.9265 3.6146 19.362 3.32698C18.7202 3 17.8802 3 16.2 3H7.8C6.11984 3 5.27976 3 4.63803 3.32698C4.07354 3.6146 3.6146 4.07354 3.32698 4.63803Z" fill="#0000CC"/>
<path fill-rule="evenodd" clip-rule="evenodd" d="M8.70711 8.29289C8.31658 7.90237 7.68342 7.90237 7.29289 8.29289C6.90237 8.68342 6.90237 9.31658 7.29289 9.70711L9.58579 12L7.29289 14.2929C6.90237 14.6834 6.90237 15.3166 7.29289 15.7071C7.68342 16.0976 8.31658 16.0976 8.70711 15.7071L11.7071 12.7071C12.0976 12.3166 12.0976 11.6834 11.7071 11.2929L8.70711 8.29289ZM13 14C12.4477 14 12 14.4477 12 15C12 15.5523 12.4477 16 13 16H16C16.5523 16 17 15.5523 17 15C17 14.4477 16.5523 14 16 14H13Z" fill="#0000CC"/>
</svg>
