<svg width="24" height="24" viewBox="0 0 24 24" fill="none" xmlns="http://www.w3.org/2000/svg">
<path opacity="0.3" fill-rule="evenodd" clip-rule="evenodd" d="M7.16146 3H16.8385C17.3657 2.99998 17.8205 2.99997 18.195 3.03057C18.5904 3.06287 18.9836 3.13419 19.362 3.32698C19.9265 3.6146 20.3854 4.07355 20.673 4.63803C20.8658 5.01641 20.9371 5.40963 20.9694 5.80498C21 6.17954 21 6.6343 21 7.16144V16.8386C21 17.3657 21 17.8205 20.9694 18.195C20.9371 18.5904 20.8658 18.9836 20.673 19.362C20.3854 19.9265 19.9265 20.3854 19.362 20.673C18.9836 20.8658 18.5904 20.9371 18.195 20.9694C17.8205 21 17.3657 21 16.8386 21H7.16144C6.6343 21 6.17954 21 5.80498 20.9694C5.40963 20.9371 5.01641 20.8658 4.63803 20.673C4.07355 20.3854 3.6146 19.9265 3.32698 19.362C3.13419 18.9836 3.06287 18.5904 3.03057 18.195C2.99997 17.8205 2.99998 17.3657 3 16.8386V7.16142C2.99998 6.63431 2.99997 6.17953 3.03057 5.80498C3.06287 5.40963 3.13419 5.01641 3.32698 4.63803C3.6146 4.07355 4.07355 3.6146 4.63803 3.32698C5.01641 3.13419 5.40963 3.06287 5.80498 3.03057C6.17953 2.99997 6.63434 2.99998 7.16146 3Z" fill="#0000CC"/>
<path fill-rule="evenodd" clip-rule="evenodd" d="M13.9487 8.68356C13.774 8.15961 13.2077 7.87645 12.6838 8.0511C12.1598 8.22575 11.8767 8.79207 12.0513 9.31601L14.0513 15.316C14.1874 15.7244 14.5696 15.9998 15 15.9998C15.4304 15.9998 15.8126 15.7244 15.9487 15.316L17.9487 9.31601C18.1233 8.79207 17.8402 8.22575 17.3162 8.0511C16.7923 7.87645 16.226 8.15961 16.0513 8.68356L15 11.8375L13.9487 8.68356ZM10 7.99978L9.96802 7.99978C9.52938 7.99977 9.15087 7.99976 8.83762 8.02113C8.50779 8.04364 8.17788 8.09314 7.85195 8.22814C7.11687 8.53263 6.53284 9.11665 6.22836 9.85173C6.09336 10.1777 6.04385 10.5076 6.02135 10.8374C5.99998 11.1507 5.99999 11.5291 6 11.9678V12.0318C5.99999 12.4704 5.99998 12.8489 6.02135 13.1622C6.04385 13.492 6.09336 13.8219 6.22836 14.1478C6.53284 14.8829 7.11687 15.4669 7.85195 15.7714C8.17788 15.9064 8.50779 15.9559 8.83762 15.9784C9.15087 15.9998 9.52934 15.9998 9.96797 15.9998H10C10.5523 15.9998 11 15.5521 11 14.9998C11 14.4475 10.5523 13.9998 10 13.9998C9.52038 13.9998 9.21074 13.9992 8.97376 13.9831C8.74576 13.9675 8.65893 13.9409 8.61732 13.9237C8.37229 13.8222 8.17762 13.6275 8.07612 13.3825C8.05888 13.3409 8.03227 13.254 8.01671 13.026C8.00054 12.789 8 12.4794 8 11.9998C8 11.5202 8.00054 11.2105 8.01671 10.9735C8.03227 10.7455 8.05888 10.6587 8.07612 10.6171C8.17762 10.3721 8.37229 10.1774 8.61732 10.0759C8.65893 10.0587 8.74576 10.032 8.97376 10.0165C9.21074 10.0003 9.52038 9.99978 10 9.99978C10.5523 9.99978 11 9.55207 11 8.99978C11 8.4475 10.5523 7.99978 10 7.99978Z" fill="#0000CC"/>
</svg>
