<svg width="24" height="24" viewBox="0 0 24 24" fill="none" xmlns="http://www.w3.org/2000/svg">
<path opacity="0.3" d="M3 7.8C3 6.11984 3 5.27976 3.32698 4.63803C3.6146 4.07354 4.07354 3.6146 4.63803 3.32698C5.27976 3 6.11984 3 7.8 3H16.2C17.8802 3 18.7202 3 19.362 3.32698C19.9265 3.6146 20.3854 4.07354 20.673 4.63803C21 5.27976 21 6.11984 21 7.8V13C20.2322 13 19.4645 13.2929 18.8787 13.8787L16.9966 15.7608C15.8186 14.7085 14.0095 14.7478 12.8787 15.8787C11.7071 17.0503 11.7071 18.9497 12.8787 20.1213L13.7574 21H7.8C6.11984 21 5.27976 21 4.63803 20.673C4.07354 20.3854 3.6146 19.9265 3.32698 19.362C3 18.7202 3 17.8802 3 16.2V7.8Z" fill="#0000CC"/>
<path d="M15 10C15 11.6569 13.6569 13 12 13C10.3431 13 9 11.6569 9 10C9 8.34315 10.3431 7 12 7C13.6569 7 15 8.34315 15 10Z" fill="#0000CC"/>
<path d="M12.8787 15.8787C12.0346 16.7228 11.7987 17.9447 12.1708 19H6.60011C6.39355 19 6.22509 19 6.08398 18.9945C6.56231 16.1595 9.02902 14 12.0001 14C13.2398 14 14.3917 14.376 15.348 15.0201C14.4688 14.9181 13.5531 15.2042 12.8787 15.8787Z" fill="#0000CC"/>
<path d="M21.7071 16.7071C22.0976 16.3166 22.0976 15.6834 21.7071 15.2929C21.3166 14.9024 20.6834 14.9024 20.2929 15.2929L17 18.5858L15.7071 17.2929C15.3166 16.9024 14.6834 16.9024 14.2929 17.2929C13.9024 17.6834 13.9024 18.3166 14.2929 18.7071L16.2929 20.7071C16.6834 21.0976 17.3166 21.0976 17.7071 20.7071L21.7071 16.7071Z" fill="#0000CC"/>
</svg>
