<svg width="24" height="24" viewBox="0 0 24 24" fill="none" xmlns="http://www.w3.org/2000/svg">
<path opacity="0.3" fill-rule="evenodd" clip-rule="evenodd" d="M3.32698 4.63803C3 5.27976 3 6.11984 3 7.8V16.2C3 17.8802 3 18.7202 3.32698 19.362C3.6146 19.9265 4.07354 20.3854 4.63803 20.673C5.27976 21 6.11984 21 7.8 21H16.2C17.8802 21 18.7202 21 19.362 20.673C19.9265 20.3854 20.3854 19.9265 20.673 19.362C21 18.7202 21 17.8802 21 16.2V7.8C21 6.11984 21 5.27976 20.673 4.63803C20.3854 4.07354 19.9265 3.6146 19.362 3.32698C18.7202 3 17.8802 3 16.2 3H7.8C6.11984 3 5.27976 3 4.63803 3.32698C4.07354 3.6146 3.6146 4.07354 3.32698 4.63803ZM12.4891 13.1275L14.0363 11.0001H12.0001C11.8225 11.0001 11.6557 10.9537 11.5111 10.8726L9.96387 13.0001H12.0001C12.1777 13.0001 12.3445 13.0464 12.4891 13.1275Z" fill="#0000CC"/>
<path fill-rule="evenodd" clip-rule="evenodd" d="M12.3092 7.54909C12.7212 7.68303 13 8.06693 13 8.50007V9.00007H16C16.3761 9.00007 16.7204 9.21112 16.8911 9.54629C17.0618 9.88146 17.03 10.2841 16.8087 10.5882L12.8087 16.0882C12.554 16.4385 12.1027 16.585 11.6908 16.4511C11.2789 16.3171 11 15.9332 11 15.5001V15.0001H8C7.62388 15.0001 7.27957 14.789 7.10889 14.4538C6.93821 14.1187 6.97004 13.7161 7.19127 13.4119L11.1913 7.9119C11.446 7.5616 11.8973 7.41514 12.3092 7.54909ZM14.0363 11.0001L12.4891 13.1275C12.3445 13.0464 12.1777 13.0001 12.0001 13.0001H9.96387L11.5111 10.8726C11.6557 10.9537 11.8225 11.0001 12.0001 11.0001H14.0363Z" fill="#0000CC"/>
</svg>
