<svg width="24" height="24" viewBox="0 0 24 24" fill="none" xmlns="http://www.w3.org/2000/svg">
<rect opacity="0.3" x="3" y="3" width="18" height="18" rx="3" fill="#0000CC"/>
<path fill-rule="evenodd" clip-rule="evenodd" d="M12.4472 7.10555C12.9412 7.35254 13.1414 7.95321 12.8944 8.44719L12.1171 10.0019C13.9959 10.0636 15.5 11.6062 15.5 13.5C15.5 15.433 13.933 17 12 17C10.067 17 8.5 15.433 8.5 13.5C8.5 12.7464 8.73816 12.0484 9.14333 11.4773L11.1056 7.55276C11.3526 7.05878 11.9532 6.85856 12.4472 7.10555ZM10.7887 12.6151C10.6072 12.8631 10.5 13.169 10.5 13.5C10.5 14.3284 11.1716 15 12 15C12.8284 15 13.5 14.3284 13.5 13.5C13.5 12.6715 12.8284 12 12 12C11.5152 12 11.0842 12.2299 10.81 12.5867C10.803 12.5963 10.7959 12.6058 10.7887 12.6151Z" fill="#0000CC"/>
</svg>
