<svg width="24" height="24" viewBox="0 0 24 24" fill="none" xmlns="http://www.w3.org/2000/svg">
<path opacity="0.3" fill-rule="evenodd" clip-rule="evenodd" d="M11.3331 2.65632C11.7531 2.44789 12.2465 2.44789 12.6665 2.65632C13.0371 2.84019 13.2304 3.16329 13.3232 3.3296C13.4235 3.50949 13.5263 3.74021 13.6291 3.97078C13.634 3.98186 13.6389 3.99294 13.6439 4.00402L15.441 8.03559L19.8668 8.5027C20.1178 8.52915 20.369 8.55562 20.571 8.59548C20.7579 8.63235 21.1249 8.71631 21.4143 9.01193C21.7423 9.34701 21.8948 9.81621 21.8263 10.2801C21.766 10.6894 21.5184 10.973 21.3889 11.1127C21.2489 11.2637 21.0612 11.4327 20.8737 11.6017L17.5677 14.581L18.4911 18.9346C18.5435 19.1815 18.596 19.4285 18.6205 19.633C18.6432 19.8221 18.6767 20.1971 18.485 20.5637C18.2677 20.9792 17.8685 21.2692 17.4062 21.3475C16.9983 21.4165 16.6521 21.2687 16.4792 21.1887C16.2923 21.1022 16.0736 20.976 15.855 20.8498L11.9998 18.6263L8.14468 20.8498C7.92606 20.976 7.7073 21.1022 7.52039 21.1887C7.34756 21.2687 7.00128 21.4165 6.59341 21.3475C6.13108 21.2692 5.73196 20.9792 5.51464 20.5637C5.32292 20.1971 5.35647 19.8221 5.37915 19.633C5.40369 19.4285 5.45614 19.1814 5.50855 18.9345L6.43194 14.581L3.15302 11.6261C3.14401 11.618 3.13499 11.6098 3.12597 11.6017C2.93844 11.4328 2.75078 11.2637 2.61072 11.1127C2.48122 10.973 2.23366 10.6894 2.17329 10.2801C2.10488 9.81621 2.25733 9.34701 2.58535 9.01193C2.87473 8.71631 3.24174 8.63235 3.4286 8.59548C3.63068 8.55562 3.88187 8.52915 4.13289 8.5027C4.14497 8.50143 4.15704 8.50015 4.1691 8.49888L8.55868 8.03559L10.3558 4.00401C10.3607 3.99294 10.3656 3.98185 10.3706 3.97076C10.4733 3.7402 10.5761 3.50948 10.6765 3.3296C10.7693 3.16329 10.9625 2.84019 11.3331 2.65632Z" fill="#0000CC"/>
</svg>
