<svg width="24" height="24" viewBox="0 0 24 24" fill="none" xmlns="http://www.w3.org/2000/svg">
<circle opacity="0.3" cx="12" cy="14" r="8" fill="#0000CC"/>
<path d="M9 2C8.44772 2 8 2.44772 8 3C8 3.55228 8.44772 4 9 4H11V6.06189C11.3276 6.02104 11.6613 6 12 6C12.3387 6 12.6724 6.02104 13 6.06189V4H15C15.5523 4 16 3.55228 16 3C16 2.44772 15.5523 2 15 2H9Z" fill="#0000CC"/>
<path d="M19.7071 7.70711L18.3199 9.09436C17.9092 8.56613 17.4339 8.09076 16.9056 7.68014L18.2929 6.29289C18.6834 5.90237 19.3166 5.90237 19.7071 6.29289C20.0976 6.68342 20.0976 7.31658 19.7071 7.70711Z" fill="#0000CC"/>
<path d="M12 10C11.4477 10 11 10.4477 11 11V14C11 14.5523 11.4477 15 12 15C12.5523 15 13 14.5523 13 14V11C13 10.4477 12.5523 10 12 10Z" fill="#0000CC"/>
</svg>
