<svg width="24" height="24" viewBox="0 0 24 24" fill="none" xmlns="http://www.w3.org/2000/svg">
<path opacity="0.3" fill-rule="evenodd" clip-rule="evenodd" d="M12 4.5C7.02944 4.5 3 8.52944 3 13.5C3 18.4706 7.02944 22.5 12 22.5C16.9706 22.5 21 18.4706 21 13.5C21 8.52944 16.9706 4.5 12 4.5Z" fill="#0000CC"/>
<path d="M9.99902 1.5C9.44674 1.5 8.99902 1.94772 8.99902 2.5C8.99902 3.05228 9.44674 3.5 9.99902 3.5H13.999C14.5513 3.5 14.999 3.05228 14.999 2.5C14.999 1.94772 14.5513 1.5 13.999 1.5H9.99902Z" fill="#0000CC"/>
<path d="M19.7061 3.79289C19.3156 3.40237 18.6824 3.40237 18.2919 3.79289C17.9014 4.18342 17.9014 4.81658 18.2919 5.20711L20.2919 7.20711C20.6824 7.59763 21.3156 7.59763 21.7061 7.20711C22.0967 6.81658 22.0967 6.18342 21.7061 5.79289L19.7061 3.79289Z" fill="#0000CC"/>
<path d="M10.6992 10.5C10.6992 10.1095 10.4719 9.75469 10.1171 9.5915C9.76229 9.42832 9.34496 9.4866 9.04845 9.74076L7.04845 11.455C6.62912 11.8145 6.58056 12.4458 6.93998 12.8651C7.2994 13.2844 7.9307 13.333 8.35003 12.9736L8.69924 12.6742V16.5C8.69924 17.0523 9.14695 17.5 9.69924 17.5C10.2515 17.5 10.6992 17.0523 10.6992 16.5V10.5Z" fill="#0000CC"/>
<path fill-rule="evenodd" clip-rule="evenodd" d="M14.1992 9.50001C12.8185 9.50001 11.6992 10.6193 11.6992 12V15C11.6992 16.3807 12.8185 17.5 14.1992 17.5C15.5799 17.5 16.6992 16.3807 16.6992 15V12C16.6992 10.6193 15.5799 9.50001 14.1992 9.50001ZM13.6992 12C13.6992 11.7239 13.9231 11.5 14.1992 11.5C14.4754 11.5 14.6992 11.7239 14.6992 12V15C14.6992 15.2761 14.4754 15.5 14.1992 15.5C13.9231 15.5 13.6992 15.2761 13.6992 15V12Z" fill="#0000CC"/>
</svg>
