<svg width="24" height="24" viewBox="0 0 24 24" fill="none" xmlns="http://www.w3.org/2000/svg">
<path opacity="0.3" d="M9.5 8C5.63401 8 2.5 11.134 2.5 15V19C2.5 20.6569 3.84315 22 5.5 22H9.5C13.366 22 16.5 18.866 16.5 15C16.5 14.7348 16.3946 14.4804 16.2071 14.2929L10.2071 8.29289C10.0196 8.10536 9.76522 8 9.5 8Z" fill="#0000CC"/>
<path fill-rule="evenodd" clip-rule="evenodd" d="M7.79297 11.2929C8.18349 10.9024 8.81666 10.9024 9.20718 11.2929C9.59771 11.6834 9.59771 12.3166 9.20718 12.7071L8.50008 13.4142C8.10955 13.8047 7.47639 13.8047 7.08586 13.4142C6.69534 13.0237 6.69534 12.3905 7.08586 12L7.79297 11.2929ZM11.2072 13.2929C11.5977 13.6834 11.5977 14.3166 11.2072 14.7071L10.5001 15.4142C10.1096 15.8047 9.47639 15.8047 9.08586 15.4142C8.69534 15.0237 8.69534 14.3905 9.08586 14L9.79297 13.2929C10.1835 12.9024 10.8167 12.9024 11.2072 13.2929ZM7.91421 14.2929C8.30474 14.6834 8.30474 15.3166 7.91421 15.7071L7.20711 16.4142C6.81658 16.8047 6.18342 16.8047 5.79289 16.4142C5.40237 16.0237 5.40237 15.3905 5.79289 15L6.5 14.2929C6.89052 13.9024 7.52369 13.9024 7.91421 14.2929ZM13.2072 15.2929C13.5977 15.6834 13.5977 16.3166 13.2072 16.7071L12.5001 17.4142C12.1096 17.8047 11.4764 17.8047 11.0859 17.4142C10.6953 17.0237 10.6953 16.3905 11.0859 16L11.793 15.2929C12.1835 14.9024 12.8167 14.9024 13.2072 15.2929ZM9.91421 16.2929C10.3047 16.6834 10.3047 17.3166 9.91421 17.7071L9.20711 18.4142C8.81658 18.8047 8.18342 18.8047 7.79289 18.4142C7.40237 18.0237 7.40237 17.3905 7.79289 17L8.5 16.2929C8.89052 15.9024 9.52369 15.9024 9.91421 16.2929Z" fill="#0000CC"/>
<path fill-rule="evenodd" clip-rule="evenodd" d="M18.8888 2.04991C19.4294 1.86972 20.0012 2.19622 20.1679 2.72751C20.1743 2.7486 20.1821 2.77566 20.1908 2.80831C20.2082 2.87354 20.2294 2.96157 20.2499 3.06929C20.2908 3.28393 20.33 3.58168 20.33 3.93609C20.33 4.64693 20.171 5.60245 19.5371 6.55329C19.1489 7.13561 18.6536 7.67558 18.1456 8.16956C19.0034 8.22324 19.846 8.44847 20.622 8.83648C21.3693 9.21014 21.7283 10.0763 21.4645 10.8691L21.3219 11.2975C20.7765 12.9359 18.964 13.7769 17.3608 13.1353L16.83 12.9229C16.7043 12.8726 16.5901 12.7973 16.4943 12.7015L11.9952 8.20139C11.8994 8.10549 11.824 7.9911 11.7737 7.86516L11.7491 7.80353C11.0085 5.94848 11.9793 3.85224 13.8731 3.21724C14.638 2.96077 15.4751 3.30647 15.8361 4.02797L15.8606 4.07698C16.3062 4.96763 16.5382 5.94583 16.5433 6.93451C17.0843 6.42462 17.546 5.93432 17.873 5.44389C18.2391 4.89473 18.33 4.35025 18.33 3.93609C18.33 3.72801 18.3068 3.55701 18.2852 3.44352C18.2745 3.38717 18.2644 3.34631 18.2583 3.32364C18.2557 3.31383 18.2539 3.30755 18.2531 3.305C18.0852 2.78382 18.3681 2.22347 18.8888 2.04991Z" fill="#0000CC"/>
</svg>
