<svg width="24" height="24" viewBox="0 0 24 24" fill="none" xmlns="http://www.w3.org/2000/svg">
<g opacity="0.3">
<path d="M13.4768 2.91909C13.3577 2.70493 13.1409 2.35197 12.7424 2.15402C11.8821 1.72668 10.9659 2.12164 10.5221 2.91909L10.1061 3.79796C10.1061 3.79796 9.69739 4.79761 9.44318 5.26827L9.43806 5.27766L9.4276 5.27543C9.32728 5.25358 9.19092 5.21339 8.93722 5.13728L7.22793 4.62449C6.94015 4.53811 6.66214 4.45467 6.42996 4.40755C6.19995 4.36087 5.83124 4.30642 5.44911 4.45189C4.98726 4.62771 4.62699 4.99905 4.46524 5.46602C4.33141 5.85238 4.397 6.21927 4.45063 6.44776C4.50476 6.6784 4.59659 6.95375 4.69164 7.23878L5.25981 8.9433L4.54824 9.24825C4.26126 9.3712 3.98624 9.48903 3.77246 9.60466C3.56344 9.71771 3.23591 9.91708 3.03503 10.2842C2.79406 10.7246 2.76401 11.2501 2.9532 11.7151C2.99631 11.8211 3.05026 11.9157 3.10987 12H8.12547C8.0432 11.6804 7.99945 11.3453 7.99945 11C7.99945 8.79086 9.79031 7 11.9995 7C14.2086 7 15.9995 8.79086 15.9995 11C15.9995 11.3453 15.9557 11.6804 15.8734 12H20.8891C20.9487 11.9157 21.0026 11.8211 21.0457 11.7151C21.2349 11.2501 21.2049 10.7246 20.9639 10.2842C20.763 9.91708 20.4355 9.71771 20.2265 9.60466C20.0127 9.48903 19.7377 9.37122 19.4507 9.24827L18.7391 8.9433L19.3073 7.23879C19.4023 6.95376 19.4942 6.6784 19.5483 6.44776C19.6019 6.21927 19.6675 5.85238 19.5337 5.46602C19.3719 4.99906 19.0117 4.62771 18.5498 4.45189C18.1677 4.30642 17.799 4.36087 17.569 4.40755C17.3368 4.45467 17.0588 4.53811 16.771 4.62449L15.0617 5.13728C14.808 5.21339 14.6717 5.25358 14.5713 5.27543L14.5609 5.27766L14.5558 5.26827C14.507 5.17793 14.4486 5.04831 14.341 4.80627L13.8765 3.76099C13.7356 3.44396 13.6036 3.14689 13.4768 2.91909Z" fill="#0000CC"/>
<path d="M9.99945 11C9.99945 11.3643 10.0968 11.7058 10.267 12H13.7319C13.9021 11.7058 13.9995 11.3643 13.9995 11C13.9995 9.89543 13.104 9 11.9995 9C10.8949 9 9.99945 9.89543 9.99945 11Z" fill="#0000CC"/>
</g>
<path d="M5 14C4.44772 14 4 14.4477 4 15C4 15.5523 4.44772 16 5 16H13C13.5523 16 14 15.5523 14 15C14 14.4477 13.5523 14 13 14H5Z" fill="#0000CC"/>
<path d="M17 14C16.4477 14 16 14.4477 16 15C16 15.5523 16.4477 16 17 16H21C21.5523 16 22 15.5523 22 15C22 14.4477 21.5523 14 21 14H17Z" fill="#0000CC"/>
<path d="M3 17C2.44772 17 2 17.4477 2 18C2 18.5523 2.44772 19 3 19H19C19.5523 19 20 18.5523 20 18C20 17.4477 19.5523 17 19 17H3Z" fill="#0000CC"/>
<path d="M5 20C4.44772 20 4 20.4477 4 21C4 21.5523 4.44772 22 5 22H9C9.55228 22 10 21.5523 10 21C10 20.4477 9.55228 20 9 20H5Z" fill="#0000CC"/>
<path d="M13 20C12.4477 20 12 20.4477 12 21C12 21.5523 12.4477 22 13 22H21C21.5523 22 22 21.5523 22 21C22 20.4477 21.5523 20 21 20H13Z" fill="#0000CC"/>
</svg>
