<svg width="24" height="24" viewBox="0 0 24 24" fill="none" xmlns="http://www.w3.org/2000/svg">
<path opacity="0.3" fill-rule="evenodd" clip-rule="evenodd" d="M4.96784 5.52393C4.69617 5.54612 4.59545 5.5838 4.54601 5.60899C4.35785 5.70487 4.20487 5.85785 4.10899 6.04601C4.0838 6.09545 4.04612 6.19617 4.02393 6.46784C4.00078 6.75117 4 7.12345 4 7.7V8.5H7V5.5H6.2C5.62345 5.5 5.25117 5.50078 4.96784 5.52393ZM9 5.5V8.5H20V7.7C20 7.12345 19.9992 6.75117 19.9761 6.46784C19.9539 6.19617 19.9162 6.09545 19.891 6.04601C19.7951 5.85785 19.6422 5.70487 19.454 5.60899C19.4045 5.5838 19.3038 5.54612 19.0322 5.52393C18.7488 5.50078 18.3766 5.5 17.8 5.5H9ZM20 10.5H9V13.5H20V10.5ZM20 15.5H9V18.5H17.8C18.3766 18.5 18.7488 18.4992 19.0322 18.4761C19.3038 18.4539 19.4045 18.4162 19.454 18.391C19.6422 18.2951 19.7951 18.1422 19.891 17.954C19.9162 17.9045 19.9539 17.8038 19.9761 17.5322C19.9992 17.2488 20 16.8766 20 16.3V15.5ZM7 18.5V15.5H4V16.3C4 16.8766 4.00078 17.2488 4.02393 17.5322C4.04612 17.8038 4.0838 17.9045 4.10899 17.954C4.20487 18.1422 4.35785 18.2951 4.54601 18.391C4.59545 18.4162 4.69617 18.4539 4.96784 18.4761C5.25117 18.4992 5.62345 18.5 6.2 18.5H7ZM4 13.5H7V10.5H4V13.5Z" fill="#0000CC"/>
<path fill-rule="evenodd" clip-rule="evenodd" d="M6.16146 3.5H17.8385C18.3657 3.49998 18.8205 3.49997 19.195 3.53057C19.5904 3.56287 19.9836 3.63419 20.362 3.82698C20.9265 4.1146 21.3854 4.57354 21.673 5.13803C21.8658 5.51641 21.9371 5.90963 21.9694 6.30497C22 6.67954 22 7.1343 22 7.66144V16.3386C22 16.8657 22 17.3205 21.9694 17.695C21.9371 18.0904 21.8658 18.4836 21.673 18.862C21.3854 19.4265 20.9265 19.8854 20.362 20.173C19.9836 20.3658 19.5904 20.4371 19.195 20.4694C18.8205 20.5 18.3657 20.5 17.8386 20.5H6.16144C5.6343 20.5 5.17954 20.5 4.80497 20.4694C4.40963 20.4371 4.01641 20.3658 3.63803 20.173C3.07354 19.8854 2.6146 19.4265 2.32698 18.862C2.13419 18.4836 2.06287 18.0904 2.03057 17.695C1.99997 17.3205 1.99998 16.8657 2 16.3385V7.66146C1.99998 7.13431 1.99997 6.67955 2.03057 6.30497C2.06287 5.90963 2.13419 5.51641 2.32698 5.13803C2.6146 4.57354 3.07354 4.1146 3.63803 3.82698C4.01641 3.63419 4.40963 3.56287 4.80497 3.53057C5.17955 3.49997 5.63431 3.49998 6.16146 3.5ZM4.96784 5.52393C4.69617 5.54612 4.59546 5.5838 4.54601 5.609C4.35785 5.70487 4.20487 5.85785 4.109 6.04601C4.0838 6.09546 4.04612 6.19617 4.02393 6.46784C4.00078 6.75117 4 7.12345 4 7.7V8.5H7V5.5H6.2C5.62345 5.5 5.25117 5.50078 4.96784 5.52393ZM9 5.5V8.5H20V7.7C20 7.12345 19.9992 6.75118 19.9761 6.46784C19.9539 6.19617 19.9162 6.09546 19.891 6.04601C19.7951 5.85785 19.6422 5.70487 19.454 5.609C19.4045 5.5838 19.3038 5.54612 19.0322 5.52393C18.7488 5.50078 18.3766 5.5 17.8 5.5H9ZM20 10.5H9V13.5H20V10.5ZM20 15.5H9V18.5H17.8C18.3766 18.5 18.7488 18.4992 19.0322 18.4761C19.3038 18.4539 19.4045 18.4162 19.454 18.391C19.6422 18.2951 19.7951 18.1422 19.891 17.954C19.9162 17.9045 19.9539 17.8038 19.9761 17.5322C19.9992 17.2488 20 16.8766 20 16.3V15.5ZM7 18.5V15.5H4V16.3C4 16.8766 4.00078 17.2488 4.02393 17.5322C4.04612 17.8038 4.0838 17.9045 4.109 17.954C4.20487 18.1422 4.35785 18.2951 4.54601 18.391C4.59546 18.4162 4.69617 18.4539 4.96784 18.4761C5.25117 18.4992 5.62345 18.5 6.2 18.5H7ZM4 13.5H7V10.5H4V13.5Z" fill="#0000CC"/>
</svg>
