<svg width="24" height="24" viewBox="0 0 24 24" fill="none" xmlns="http://www.w3.org/2000/svg">
<path opacity="0.3" fill-rule="evenodd" clip-rule="evenodd" d="M4 6.6C4 6.03995 4 5.75992 4.10899 5.54601C4.20487 5.35785 4.35785 5.20487 4.54601 5.10899C4.75992 5 5.03995 5 5.6 5H18.4C18.9601 5 19.2401 5 19.454 5.10899C19.6422 5.20487 19.7951 5.35785 19.891 5.54601C20 5.75992 20 6.03995 20 6.6V8H4V6.6ZM4 10H8V13H4V10ZM10 10H14V13H10V10ZM16 10H20V13H16V10ZM16 15H20V16.4C20 16.9601 20 17.2401 19.891 17.454C19.7951 17.6422 19.6422 17.7951 19.454 17.891C19.2401 18 18.9601 18 18.4 18H16V15ZM10 15H14V18H10V15ZM4 15H8V18H5.6C5.03995 18 4.75992 18 4.54601 17.891C4.35785 17.7951 4.20487 17.6422 4.10899 17.454C4 17.2401 4 16.9601 4 16.4V15Z" fill="#0000CC"/>
<path fill-rule="evenodd" clip-rule="evenodd" d="M2.32698 4.63803C2 5.27976 2 6.11984 2 7.8V15.2C2 16.8802 2 17.7202 2.32698 18.362C2.6146 18.9265 3.07354 19.3854 3.63803 19.673C4.27976 20 5.11984 20 6.8 20H17.2C18.8802 20 19.7202 20 20.362 19.673C20.9265 19.3854 21.3854 18.9265 21.673 18.362C22 17.7202 22 16.8802 22 15.2V7.8C22 6.11984 22 5.27976 21.673 4.63803C21.3854 4.07354 20.9265 3.6146 20.362 3.32698C19.7202 3 18.8802 3 17.2 3H6.8C5.11984 3 4.27976 3 3.63803 3.32698C3.07354 3.6146 2.6146 4.07354 2.32698 4.63803ZM4 6.6C4 6.03995 4 5.75992 4.10899 5.54601C4.20487 5.35785 4.35785 5.20487 4.54601 5.10899C4.75992 5 5.03995 5 5.6 5H18.4C18.9601 5 19.2401 5 19.454 5.10899C19.6422 5.20487 19.7951 5.35785 19.891 5.54601C20 5.75992 20 6.03995 20 6.6V8H4V6.6ZM4 10H8V13H4V10ZM10 10H14V13H10V10ZM16 10H20V13H16V10ZM16 15H20V16.4C20 16.9601 20 17.2401 19.891 17.454C19.7951 17.6422 19.6422 17.7951 19.454 17.891C19.2401 18 18.9601 18 18.4 18H16V15ZM10 15H14V18H10V15ZM4 15H8V18H5.6C5.03995 18 4.75992 18 4.54601 17.891C4.35785 17.7951 4.20487 17.6422 4.10899 17.454C4 17.2401 4 16.9601 4 16.4V15Z" fill="#0000CC"/>
</svg>
