<svg width="24" height="24" viewBox="0 0 24 24" fill="none" xmlns="http://www.w3.org/2000/svg">
<path opacity="0.3" fill-rule="evenodd" clip-rule="evenodd" d="M4.10899 5.54601C4 5.75992 4 6.03995 4 6.6V17.4C4 17.9601 4 18.2401 4.10899 18.454C4.20487 18.6422 4.35785 18.7951 4.54601 18.891C4.75992 19 5.03995 19 5.6 19H8V5H5.6C5.03995 5 4.75992 5 4.54601 5.10899C4.35785 5.20487 4.20487 5.35785 4.10899 5.54601ZM10 5H18.4C18.9601 5 19.2401 5 19.454 5.10899C19.6422 5.20487 19.7951 5.35785 19.891 5.54601C20 5.75992 20 6.03995 20 6.6V11H10V5ZM20 13H10V19H18.4C18.9601 19 19.2401 19 19.454 18.891C19.6422 18.7951 19.7951 18.6422 19.891 18.454C20 18.2401 20 17.9601 20 17.4V13Z" fill="#0000CC"/>
<path fill-rule="evenodd" clip-rule="evenodd" d="M2.32698 4.63803C2 5.27976 2 6.11984 2 7.8V16.2C2 17.8802 2 18.7202 2.32698 19.362C2.6146 19.9265 3.07354 20.3854 3.63803 20.673C4.27976 21 5.11984 21 6.8 21H17.2C18.8802 21 19.7202 21 20.362 20.673C20.9265 20.3854 21.3854 19.9265 21.673 19.362C22 18.7202 22 17.8802 22 16.2V7.8C22 6.11984 22 5.27976 21.673 4.63803C21.3854 4.07354 20.9265 3.6146 20.362 3.32698C19.7202 3 18.8802 3 17.2 3H6.8C5.11984 3 4.27976 3 3.63803 3.32698C3.07354 3.6146 2.6146 4.07354 2.32698 4.63803ZM4.10899 5.54601C4 5.75992 4 6.03995 4 6.6V17.4C4 17.9601 4 18.2401 4.10899 18.454C4.20487 18.6422 4.35785 18.7951 4.54601 18.891C4.75992 19 5.03995 19 5.6 19H8V5H5.6C5.03995 5 4.75992 5 4.54601 5.10899C4.35785 5.20487 4.20487 5.35785 4.10899 5.54601ZM10 5H18.4C18.9601 5 19.2401 5 19.454 5.10899C19.6422 5.20487 19.7951 5.35785 19.891 5.54601C20 5.75992 20 6.03995 20 6.6V11H10V5ZM20 13H10V19H18.4C18.9601 19 19.2401 19 19.454 18.891C19.6422 18.7951 19.7951 18.6422 19.891 18.454C20 18.2401 20 17.9601 20 17.4V13Z" fill="#0000CC"/>
</svg>
