<svg width="24" height="24" viewBox="0 0 24 24" fill="none" xmlns="http://www.w3.org/2000/svg">
<g opacity="0.3">
<path d="M7 4C7 3.44772 6.55228 3 6 3C5.44772 3 5 3.44772 5 4V16.1776L7 14.622V4Z" fill="#0000CC"/>
<path d="M9 13.0665L11 11.5109V4C11 3.44772 10.5523 3 10 3C9.44772 3 9 3.44772 9 4V13.0665Z" fill="#0000CC"/>
<path d="M13 9.95536L15 8.3998V4C15 3.44772 14.5523 3 14 3C13.4477 3 13 3.44772 13 4V9.95536Z" fill="#0000CC"/>
<path d="M17 6.84425L19 5.28869V4C19 3.44772 18.5523 3 18 3C17.4477 3 17 3.44772 17 4V6.84425Z" fill="#0000CC"/>
<path d="M19 7.82242L17 9.37797V20C17 20.5523 17.4477 21 18 21C18.5523 21 19 20.5523 19 20V7.82242Z" fill="#0000CC"/>
<path d="M15 10.9335L13 12.4891V20C13 20.5523 13.4477 21 14 21C14.5523 21 15 20.5523 15 20V10.9335Z" fill="#0000CC"/>
<path d="M11 14.0446L9 15.6002V20C9 20.5523 9.44772 21 10 21C10.5523 21 11 20.5523 11 20V14.0446Z" fill="#0000CC"/>
<path d="M7 17.1558L5 18.7113V20C5 20.5523 5.44772 21 6 21C6.55228 21 7 20.5523 7 20V17.1558Z" fill="#0000CC"/>
</g>
<path fill-rule="evenodd" clip-rule="evenodd" d="M21.7894 4.38611C22.1285 4.82205 22.0499 5.45033 21.614 5.7894L3.61399 19.7894C3.17804 20.1285 2.54976 20.0499 2.21069 19.614C1.87162 19.178 1.95016 18.5498 2.38611 18.2107L20.3861 4.21069C20.8221 3.87162 21.4503 3.95016 21.7894 4.38611Z" fill="#0000CC"/>
</svg>
