<svg width="24" height="24" viewBox="0 0 24 24" fill="none" xmlns="http://www.w3.org/2000/svg">
<g opacity="0.3">
<path fill-rule="evenodd" clip-rule="evenodd" d="M4 5C4 6.3071 4.83594 7.41896 6.00236 7.83013C6.00079 7.88656 6 7.94319 6 8C6 11.3137 8.68629 14 12 14C15.3137 14 18 11.3137 18 8C18 7.94319 17.9992 7.88656 17.9976 7.83012C19.1641 7.41895 20 6.3071 20 5C20 3.34315 18.6568 2 17 2C16.2182 2 15.5072 2.29901 14.9739 2.7877C14.0973 2.28647 13.0821 2 12 2C10.9179 2 9.90267 2.28647 9.02606 2.78771C8.4928 2.29902 7.78174 2 7 2C5.34315 2 4 3.34315 4 5ZM10 7C9.44772 7 9 7.44772 9 8C9 8.55228 9.44772 9 10 9H10.01C10.5623 9 11.01 8.55228 11.01 8C11.01 7.44772 10.5623 7 10.01 7H10ZM14 7C13.4477 7 13 7.44772 13 8C13 8.55228 13.4477 9 14 9H14.01C14.5623 9 15.01 8.55228 15.01 8C15.01 7.44772 14.5623 7 14.01 7H14ZM11.8348 11.5067C11.889 11.5023 11.944 11.5 11.9998 11.5C12.0555 11.5 12.1105 11.5023 12.1648 11.5067C12.7152 11.5513 13.1977 11.1412 13.2423 10.5908C13.287 10.0403 12.8769 9.55784 12.3264 9.5132C12.2185 9.50445 12.1095 9.5 11.9998 9.5C11.89 9.5 11.7811 9.50445 11.6731 9.5132C11.1227 9.55784 10.7126 10.0403 10.7572 10.5908C10.8019 11.1412 11.2843 11.5513 11.8348 11.5067Z" fill="#0000CC"/>
<path d="M18.8548 10.8728C19.5815 12.0776 20.0007 13.4907 20.0007 15C20.0007 15.0803 19.9995 15.1603 19.9972 15.24C20.6714 16.0057 21.0392 17.1107 20.7236 18.2925C20.6379 18.6134 20.5333 18.9156 20.4116 19.1997C20.7964 19.1785 21.1725 19.0865 21.5204 18.9188C22.6115 18.3928 23.1936 17.2358 22.9603 15.8357C22.7041 14.2986 21.6265 13.0288 20.5628 12.1128C20.0061 11.6333 19.4126 11.216 18.8548 10.8728Z" fill="#0000CC"/>
<path d="M3.59006 19.1985C3.4685 18.9148 3.36408 18.613 3.27851 18.2925C2.96294 17.1107 3.33072 16.0057 4.00494 15.24C4.00258 15.1603 4.0014 15.0803 4.0014 15C4.0014 13.4985 4.41627 12.0922 5.13611 10.8914C4.5871 11.231 4.00499 11.642 3.45827 12.1128C2.39462 13.0288 1.31697 14.2986 1.06079 15.8357C0.828465 17.2296 1.40421 18.3835 2.4885 18.9129C2.83387 19.0815 3.2075 19.1751 3.59006 19.1985Z" fill="#0000CC"/>
<path d="M10.6888 19.9856L9.38045 16.7461C8.95426 15.6909 7.93016 15 6.79211 15C6.02777 15 5.30178 15.3147 4.80419 15.8467C4.29339 16.3928 4.01732 17.1847 4.24424 18.0345C4.64106 19.5206 5.49725 20.4971 6.58481 21.0964C7.62948 21.6721 8.83616 21.8723 9.93024 21.9495C10.6453 22 11.3574 22 11.9859 22H12.0153C12.6439 22 13.3559 22 14.071 21.9495C15.1651 21.8723 16.3718 21.6721 17.4165 21.0964C18.504 20.4971 19.3602 19.5206 19.757 18.0345C19.984 17.1847 19.7079 16.3928 19.1971 15.8467C18.6995 15.3147 17.9735 15 17.2092 15C16.0711 15 15.047 15.6909 14.6208 16.7461L13.3125 19.9856C12.8758 19.9998 12.4371 20 12.0006 20C11.5642 20 11.1255 19.9998 10.6888 19.9856Z" fill="#0000CC"/>
<path d="M11.9994 15C14.59 15 16.852 13.5927 18.0624 11.5008C18.5693 12.3775 18.8919 13.3746 18.9764 14.4383C18.4402 14.1541 17.8321 14 17.209 14C15.6632 14 14.2722 14.9384 13.6934 16.3716L12.6325 18.9983C12.4252 18.9999 12.2147 19 12.0004 19C11.7861 19 11.5756 18.9999 11.3683 18.9983L10.3075 16.3716C9.72861 14.9384 8.33763 14 6.79189 14C6.16766 14 5.55845 14.1546 5.02148 14.4399C5.10588 13.3753 5.42866 12.3775 5.93597 11.5002C7.14633 13.5924 9.40847 15 11.9994 15Z" fill="#0000CC"/>
</g>
<path fill-rule="evenodd" clip-rule="evenodd" d="M9 8C9 7.44772 9.44772 7 10 7H10.01C10.5623 7 11.01 7.44772 11.01 8C11.01 8.55228 10.5623 9 10.01 9H10C9.44772 9 9 8.55228 9 8ZM13 8C13 7.44772 13.4477 7 14 7H14.01C14.5623 7 15.01 7.44772 15.01 8C15.01 8.55228 14.5623 9 14.01 9H14C13.4477 9 13 8.55228 13 8ZM11.9997 11.5C11.944 11.5 11.8889 11.5023 11.8347 11.5067C11.2843 11.5513 10.8018 11.1412 10.7572 10.5908C10.7125 10.0403 11.1226 9.55784 11.6731 9.5132C11.781 9.50445 11.8899 9.5 11.9997 9.5C12.1095 9.5 12.2184 9.50445 12.3264 9.5132C12.8768 9.55784 13.2869 10.0403 13.2423 10.5908C13.1976 11.1412 12.7152 11.5513 12.1647 11.5067C12.1105 11.5023 12.0555 11.5 11.9997 11.5Z" fill="#0000CC"/>
</svg>
