<svg width="24" height="24" viewBox="0 0 24 24" fill="none" xmlns="http://www.w3.org/2000/svg">
<path opacity="0.3" fill-rule="evenodd" clip-rule="evenodd" d="M4 6C4 3.79086 5.79086 2 8 2C10.2091 2 12 3.79086 12 6V13.9995C12.6274 14.835 13 15.8748 13 16.9998C13 19.7613 10.7614 21.9998 8 21.9998C5.23858 21.9998 3 19.7613 3 16.9998C3 15.8748 3.37256 14.835 4 13.9995V6Z" fill="#0000CC"/>
<path fill-rule="evenodd" clip-rule="evenodd" d="M15 5C15 3.34315 16.3431 2 18 2C19.6569 2 21 3.34315 21 5C21 6.65685 19.6569 8 18 8C16.3431 8 15 6.65685 15 5ZM18 4C17.4477 4 17 4.44772 17 5C17 5.55228 17.4477 6 18 6C18.5523 6 19 5.55228 19 5C19 4.44772 18.5523 4 18 4Z" fill="#0000CC"/>
<path d="M9.00707 12.0018C9.00805 11.4495 8.56112 11.001 8.00884 11C7.45655 10.999 7.00805 11.4459 7.00707 11.9982L7.00129 15.2666C6.40278 15.6123 6 16.259 6 16.9998C6 18.1044 6.89543 18.9998 8 18.9998C9.10457 18.9998 10 18.1044 10 16.9998C10 16.2601 9.59838 15.6141 9.0013 15.2681L9.00707 12.0018Z" fill="#0000CC"/>
</svg>
