<svg width="24" height="24" viewBox="0 0 24 24" fill="none" xmlns="http://www.w3.org/2000/svg">
<path opacity="0.3" fill-rule="evenodd" clip-rule="evenodd" d="M8 6C8 3.79086 9.79086 2 12 2C14.2091 2 16 3.79086 16 6V13.9995C16.6274 14.835 17 15.8748 17 16.9998C17 19.7613 14.7614 21.9998 12 21.9998C9.23858 21.9998 7 19.7613 7 16.9998C7 15.8748 7.37256 14.835 8 13.9995V6Z" fill="#0000CC"/>
<path d="M12 5C12.5523 5 13 5.44772 13 6V15.2674C13.5978 15.6132 14 16.2595 14 16.9998C14 18.1044 13.1046 18.9998 12 18.9998C10.8954 18.9998 10 18.1044 10 16.9998C10 16.2595 10.4022 15.6132 11 15.2674V6C11 5.44772 11.4477 5 12 5Z" fill="#0000CC"/>
</svg>
