<svg width="24" height="24" viewBox="0 0 24 24" fill="none" xmlns="http://www.w3.org/2000/svg">
<path opacity="0.3" d="M13.3942 2.07901C13.7888 1.97366 14.211 1.97366 14.6056 2.07901C14.8883 2.15447 15.1083 2.28204 15.2839 2.40225C15.4428 2.51103 15.6167 2.65071 15.7939 2.79308L20.0786 6.23422C20.1951 6.32737 20.3418 6.4447 20.4616 6.58715C20.5656 6.71083 20.6508 6.84562 20.7149 6.98816C20.7888 7.15234 20.8236 7.32252 20.8513 7.45762L21.859 12.3137C21.913 12.574 21.9646 12.8225 21.9868 13.0332C22.0108 13.2603 22.0135 13.5383 21.8926 13.8275C21.7281 14.221 21.4083 14.5516 20.9896 14.7612C20.6819 14.9152 20.3651 14.962 20.1024 14.9817C19.8861 14.998 19.6318 14.9998 19.3635 15C19.2422 14.3386 19.1658 13.9696 19.0259 13.6279C18.8849 13.2837 18.6967 12.9609 18.4665 12.6687C18.2071 12.3394 17.8767 12.0641 17.216 11.5135L14.6094 9.34133C12.9697 7.97487 12.1498 7.29164 11.2346 7.03055C10.4277 6.80036 9.57251 6.80036 8.76561 7.03055C8.21964 7.18631 7.70759 7.4923 7.03516 8.00395L7.14852 7.45764C7.1762 7.32253 7.21107 7.15235 7.28493 6.98817C7.34904 6.84563 7.43418 6.71084 7.53821 6.58716C7.65804 6.4447 7.80476 6.32738 7.92125 6.23423L12.2059 2.79308C12.3831 2.65071 12.557 2.51103 12.7159 2.40225C12.8915 2.28204 13.1115 2.15447 13.3942 2.07901Z" fill="#0000CC"/>
<path fill-rule="evenodd" clip-rule="evenodd" d="M10.6057 9.07901C10.2111 8.97366 9.78891 8.97366 9.39429 9.07901C9.1116 9.15447 8.89163 9.28204 8.716 9.40225C8.55707 9.51103 8.38319 9.65071 8.20597 9.79308L3.92133 13.2342C3.80485 13.3274 3.65813 13.4447 3.5383 13.5872C3.43426 13.7108 3.34913 13.8456 3.28501 13.9882C3.21116 14.1524 3.17629 14.3225 3.1486 14.4576L2.14097 19.3136C2.08691 19.574 2.03531 19.8225 2.0131 20.0332C1.98916 20.2603 1.98647 20.5383 2.10735 20.8275C2.27183 21.221 2.5916 21.5516 3.01032 21.7612C3.31807 21.9152 3.63485 21.962 3.89756 21.9817C4.14127 22.0001 4.43318 22 4.73899 22H15.261C15.5668 22 15.8587 22.0001 16.1024 21.9817C16.3652 21.962 16.6819 21.9152 16.9897 21.7612C17.4084 21.5516 17.7282 21.221 17.8926 20.8275C18.0135 20.5383 18.0108 20.2603 17.9869 20.0332C17.9647 19.8225 17.9131 19.574 17.859 19.3137L16.8514 14.4576C16.8237 14.3225 16.7888 14.1523 16.715 13.9882C16.6509 13.8456 16.5657 13.7108 16.4617 13.5872C16.3419 13.4447 16.1952 13.3274 16.0787 13.2342L11.794 9.79308C11.6168 9.65071 11.4429 9.51103 11.284 9.40225C11.1084 9.28204 10.8884 9.15447 10.6057 9.07901ZM10 15V20H13.5L10 15Z" fill="#0000CC"/>
</svg>
