<svg width="24" height="24" viewBox="0 0 24 24" fill="none" xmlns="http://www.w3.org/2000/svg">
<path opacity="0.3" fill-rule="evenodd" clip-rule="evenodd" d="M11 3C11 2.44772 11.4477 2 12 2C17.5228 2 22 6.47715 22 12C22 17.5228 17.5228 22 12 22C6.47715 22 2 17.5228 2 12C2 9.9457 2.62053 8.0333 3.68454 6.44374C3.99175 5.98479 4.61285 5.86178 5.07181 6.16899C5.53076 6.4762 5.65377 7.09731 5.34656 7.55626C4.49602 8.8269 4 10.354 4 12C4 16.4183 7.58172 20 12 20C16.4183 20 20 16.4183 20 12C20 7.92038 16.9463 4.55399 13 4.06189V6C13 6.55228 12.5523 7 12 7C11.4477 7 11 6.55228 11 6V3Z" fill="#0000CC"/>
<path d="M7.29289 7.29289C7.68342 6.90237 8.31658 6.90237 8.70711 7.29289L12.7071 11.2929C13.0976 11.6834 13.0976 12.3166 12.7071 12.7071C12.3166 13.0976 11.6834 13.0976 11.2929 12.7071L7.29289 8.70711C6.90237 8.31658 6.90237 7.68342 7.29289 7.29289Z" fill="#0000CC"/>
</svg>
