<svg width="24" height="24" viewBox="0 0 24 24" fill="none" xmlns="http://www.w3.org/2000/svg">
<path opacity="0.3" fill-rule="evenodd" clip-rule="evenodd" d="M17.9999 3H7.00001C5.58875 3 4.5803 4.11805 3.98426 5.31015C3.35831 6.56205 3.00001 8.22156 3.00001 10V14C3.00001 15.7364 2.4924 18.499 2.06301 19.6506C1.94855 19.9576 1.99174 20.3012 2.17862 20.5704C2.3655 20.8395 2.67236 21 3.00001 21H12C12.4175 21 12.7911 20.7406 12.937 20.3494C13.2255 19.5755 13.5207 18.3083 13.7266 17C13.8921 15.9482 13.9999 14.8698 13.9999 14V10C13.9999 9.95061 14.0002 9.90142 14.0008 9.85244C14.0201 8.12991 14.3756 6.52736 14.9843 5.31015C15.5803 4.11809 16.5887 3.00007 17.9999 3Z" fill="#0000CC"/>
<path fill-rule="evenodd" clip-rule="evenodd" d="M17.9998 17H13.7266C13.8921 15.9482 13.9999 14.8698 13.9999 14V10C13.9999 9.95061 14.0002 9.90142 14.0008 9.85244C14.0201 8.12991 14.3756 6.52736 14.9843 5.31015C15.5803 4.11809 16.5887 3.00007 17.9999 3C19.4111 3 20.4197 4.11805 21.0157 5.31015C21.6417 6.56205 22 8.22156 22 10C22 11.7784 21.6417 13.4379 21.0157 14.6899C20.4336 15.8541 19.4582 16.9476 18.0984 16.9982C18.0658 16.9994 18.0328 17 17.9998 17Z" fill="#0000CC"/>
</svg>
