<svg width="24" height="24" viewBox="0 0 24 24" fill="none" xmlns="http://www.w3.org/2000/svg">
<g opacity="0.3">
<path d="M19.3752 15.1612L20.8072 16.5931C24.0415 12.2843 23.6987 6.14166 19.7786 2.2216C19.3881 1.83108 18.7549 1.83108 18.3644 2.2216C17.9739 2.61213 17.9739 3.24529 18.3644 3.63582C21.5017 6.77307 21.8386 11.6502 19.3752 15.1612Z" fill="#0000CC"/>
<path d="M4.22183 17.778C0.512556 14.0687 0.00613236 8.36942 2.70255 4.11677L4.16041 5.57463C2.22082 9.00635 2.7127 13.4404 5.63604 16.3637C6.02656 16.7543 6.02656 17.3874 5.63604 17.778C5.24551 18.1685 4.61235 18.1685 4.22183 17.778Z" fill="#0000CC"/>
<path d="M5.64547 7.05969C4.44851 9.64754 4.91685 12.8158 7.05047 14.9495C7.441 15.34 8.07416 15.34 8.46469 14.9495C8.85521 14.5589 8.85521 13.9258 8.46469 13.5353C7.13126 12.2018 6.70842 10.3026 7.19616 8.61038L5.64547 7.05969Z" fill="#0000CC"/>
<path d="M9.03343 10.4476C9.19926 11.5555 9.97081 12.4652 11.0002 12.8291V20.9998C11.0002 21.552 11.4479 21.9998 12.0002 21.9998C12.5525 21.9998 13.0002 21.552 13.0002 20.9998V14.4144L9.03343 10.4476Z" fill="#0000CC"/>
<path d="M17.9325 13.7185L16.4659 12.2518C17.4119 10.3768 17.1019 8.03027 15.5358 6.46419C15.1453 6.07366 15.1453 5.4405 15.5358 5.04997C15.9263 4.65945 16.5595 4.65945 16.95 5.04997C19.3032 7.40318 19.6307 11.015 17.9325 13.7185Z" fill="#0000CC"/>
<path d="M14.9173 10.7033L11.2967 7.0827C11.5224 7.02848 11.7579 6.99976 12.0002 6.99976C13.6571 6.99976 15.0002 8.3429 15.0002 9.99976C15.0002 10.242 14.9715 10.4776 14.9173 10.7033Z" fill="#0000CC"/>
</g>
<path fill-rule="evenodd" clip-rule="evenodd" d="M2.29289 2.29289C2.68342 1.90237 3.31658 1.90237 3.70711 2.29289L21.7071 20.2929C22.0976 20.6834 22.0976 21.3166 21.7071 21.7071C21.3166 22.0976 20.6834 22.0976 20.2929 21.7071L2.29289 3.70711C1.90237 3.31658 1.90237 2.68342 2.29289 2.29289Z" fill="#0000CC"/>
</svg>
