<svg width="24" height="24" viewBox="0 0 24 24" fill="none" xmlns="http://www.w3.org/2000/svg">
<g opacity="0.3">
<path d="M3 2C2.44772 2 2 2.44772 2 3V9.4C2 9.96005 2 10.2401 2.10899 10.454C2.20487 10.6422 2.35785 10.7951 2.54601 10.891C2.75992 11 3.03995 11 3.6 11H9.4C9.96005 11 10.2401 11 10.454 10.891C10.6422 10.7951 10.7951 10.6422 10.891 10.454C11 10.2401 11 9.96005 11 9.4V3C11 2.44772 10.5523 2 10 2C9.44772 2 9 2.44772 9 3V5H7.5V3C7.5 2.44772 7.05228 2 6.5 2C5.94772 2 5.5 2.44772 5.5 3V5H4V3C4 2.44772 3.55228 2 3 2Z" fill="#0000CC"/>
<path d="M14 2C13.4477 2 13 2.44772 13 3V9.4C13 9.96005 13 10.2401 13.109 10.454C13.2049 10.6422 13.3578 10.7951 13.546 10.891C13.7599 11 14.0399 11 14.6 11H20.4C20.9601 11 21.2401 11 21.454 10.891C21.6422 10.7951 21.7951 10.6422 21.891 10.454C22 10.2401 22 9.96005 22 9.4V3C22 2.44772 21.5523 2 21 2C20.4477 2 20 2.44772 20 3V5H18.5V3C18.5 2.44772 18.0523 2 17.5 2C16.9477 2 16.5 2.44772 16.5 3V5H15V3C15 2.44772 14.5523 2 14 2Z" fill="#0000CC"/>
</g>
<path d="M11 10L11 9L13 9L13 10C13 10.5523 13.4477 11 14 11H21C21.5523 11 22 10.5523 22 10L22 17.8386C22 18.3657 22 18.8205 21.9694 19.195C21.9371 19.5904 21.8658 19.9836 21.673 20.362C21.3854 20.9265 20.9265 21.3854 20.362 21.673C19.9836 21.8658 19.5904 21.9371 19.195 21.9694C18.8205 22 18.3657 22 17.8386 22H14V18C14 16.8954 13.1046 16 12 16C10.8954 16 10 16.8954 10 18V22H6.16144C5.6343 22 5.17955 22 4.80498 21.9694C4.40963 21.9371 4.01641 21.8658 3.63803 21.673C3.07355 21.3854 2.6146 20.9265 2.32698 20.362C2.13419 19.9836 2.06287 19.5904 2.03057 19.195C1.99997 18.8205 1.99998 18.3657 2 17.8386V10C2 10.5523 2.44772 11 3 11H10C10.5523 11 11 10.5523 11 10Z" fill="#0000CC"/>
</svg>
