<svg width="24" height="24" viewBox="0 0 24 24" fill="none" xmlns="http://www.w3.org/2000/svg">
<path opacity="0.3" fill-rule="evenodd" clip-rule="evenodd" d="M10.1615 2H13.8385C14.3657 1.99998 14.8205 1.99997 15.195 2.03057C15.5904 2.06287 15.9836 2.13419 16.362 2.32698C16.9265 2.6146 17.3854 3.07355 17.673 3.63803C17.8658 4.01641 17.9371 4.40963 17.9694 4.80498C18 5.17955 18 5.63434 18 6.16148V16C18 19.3137 15.3137 22 12 22C8.6863 22 6 19.3137 6 16V6.16142C5.99998 5.6343 5.99997 5.17953 6.03057 4.80498C6.06287 4.40963 6.13419 4.01641 6.32698 3.63803C6.6146 3.07355 7.07355 2.6146 7.63803 2.32698C8.01641 2.13419 8.40963 2.06287 8.80498 2.03057C9.17953 1.99997 9.63434 1.99998 10.1615 2ZM12 5C11.1716 5 10.5 5.67157 10.5 6.5C10.5 7.32843 11.1716 8 12 8C12.8284 8 13.5 7.32843 13.5 6.5C13.5 5.67157 12.8284 5 12 5ZM12 10C11.1716 10 10.5 10.6716 10.5 11.5C10.5 12.3284 11.1716 13 12 13C12.8284 13 13.5 12.3284 13.5 11.5C13.5 10.6716 12.8284 10 12 10ZM10.5 16.5C10.5 15.6716 11.1716 15 12 15C12.8284 15 13.5 15.6716 13.5 16.5C13.5 17.3284 12.8284 18 12 18C11.1716 18 10.5 17.3284 10.5 16.5Z" fill="#0000CC"/>
<path d="M12 15C11.1716 15 10.5 15.6716 10.5 16.5C10.5 17.3284 11.1716 18 12 18C12.8284 18 13.5 17.3284 13.5 16.5C13.5 15.6716 12.8284 15 12 15Z" fill="#0000CC"/>
</svg>
