<svg width="24" height="24" viewBox="0 0 24 24" fill="none" xmlns="http://www.w3.org/2000/svg">
<path d="M6.24264 4C5.71221 4 5.2035 4.21071 4.82843 4.58579L4.70711 4.70711C4.31658 5.09763 3.68342 5.09763 3.29289 4.70711C2.90237 4.31658 2.90237 3.68342 3.29289 3.29289L3.41421 3.17157C4.16436 2.42143 5.18177 2 6.24264 2H17.7574C18.8182 2 19.8356 2.42143 20.5858 3.17157L20.7071 3.29289C21.0976 3.68342 21.0976 4.31658 20.7071 4.70711C20.3166 5.09763 19.6834 5.09763 19.2929 4.70711L19.1716 4.58579C18.7965 4.21071 18.2878 4 17.7574 4H13V6H11V4H6.24264Z" fill="#0000CC"/>
<path d="M9 8C8.44772 8 8 8.44772 8 9V12H16V9C16 8.44772 15.5523 8 15 8H9Z" fill="#0000CC"/>
<path d="M6.32698 18.362C6.31524 18.3389 6.30395 18.3158 6.2931 18.2927L4.29289 20.2929C3.90237 20.6834 3.90237 21.3166 4.29289 21.7071C4.68342 22.0976 5.31658 22.0976 5.70711 21.7071L7.70731 19.7069C7.68416 19.6961 7.66107 19.6848 7.63803 19.673C7.07355 19.3854 6.6146 18.9265 6.32698 18.362Z" fill="#0000CC"/>
<path d="M16.2927 19.7069C16.3158 19.6961 16.3389 19.6848 16.362 19.673C16.9265 19.3854 17.3854 18.9265 17.673 18.362C17.6848 18.3389 17.6961 18.3158 17.7069 18.2927L19.7071 20.2929C20.0976 20.6834 20.0976 21.3166 19.7071 21.7071C19.3166 22.0976 18.6834 22.0976 18.2929 21.7071L16.2927 19.7069Z" fill="#0000CC"/>
<path opacity="0.3" fill-rule="evenodd" clip-rule="evenodd" d="M13.8385 6H10.1615C9.63433 5.99998 9.17954 5.99997 8.80497 6.03057C8.40963 6.06287 8.01641 6.13419 7.63803 6.32698C7.07354 6.6146 6.6146 7.07354 6.32698 7.63803C6.13419 8.01641 6.06287 8.40963 6.03057 8.80497C5.99997 9.17954 5.99998 9.63429 6 10.1614V15.8385C5.99998 16.3657 5.99997 16.8205 6.03057 17.195C6.06287 17.5904 6.13419 17.9836 6.32698 18.362C6.6146 18.9265 7.07354 19.3854 7.63803 19.673C8.01641 19.8658 8.40963 19.9371 8.80497 19.9694C9.17954 20 9.6343 20 10.1614 20H13.8385C14.3657 20 14.8205 20 15.195 19.9694C15.5904 19.9371 15.9836 19.8658 16.362 19.673C16.9265 19.3854 17.3854 18.9265 17.673 18.362C17.8658 17.9836 17.9371 17.5904 17.9694 17.195C18 16.8205 18 16.3657 18 15.8386V10.1615C18 9.63434 18 9.17954 17.9694 8.80497C17.9371 8.40963 17.8658 8.01641 17.673 7.63803C17.3854 7.07354 16.9265 6.6146 16.362 6.32698C15.9836 6.13419 15.5904 6.06287 15.195 6.03057C14.8205 5.99997 14.3657 5.99998 13.8385 6ZM9 17C9.55229 17 10 16.5523 10 16C10 15.4477 9.55229 15 9 15C8.44772 15 8 15.4477 8 16C8 16.5523 8.44772 17 9 17ZM16 16C16 16.5523 15.5523 17 15 17C14.4477 17 14 16.5523 14 16C14 15.4477 14.4477 15 15 15C15.5523 15 16 15.4477 16 16ZM9 8C8.44772 8 8 8.44772 8 9V12H16V9C16 8.44772 15.5523 8 15 8H9Z" fill="#0000CC"/>
</svg>
