<svg width="24" height="24" viewBox="0 0 24 24" fill="none" xmlns="http://www.w3.org/2000/svg">
<path opacity="0.3" fill-rule="evenodd" clip-rule="evenodd" d="M5 7V16.2411C4.99999 17.0461 4.99998 17.7104 5.0442 18.2516C5.09012 18.8137 5.18868 19.3304 5.43598 19.8158C5.81947 20.5684 6.43139 21.1803 7.18404 21.5638C7.66937 21.8111 8.18608 21.9097 8.74818 21.9556C9.28937 21.9998 9.95372 21.9998 10.7587 21.9998H13.2413C14.0463 21.9998 14.7106 21.9998 15.2518 21.9556C15.8139 21.9097 16.3306 21.8111 16.816 21.5638C17.5686 21.1803 18.1805 20.5684 18.564 19.8158C18.8113 19.3304 18.9099 18.8137 18.9558 18.2516C19 17.7104 19 17.0461 19 16.2411V7H5Z" fill="#0000CC"/>
<path fill-rule="evenodd" clip-rule="evenodd" d="M11.1614 1.99965C10.4779 1.99863 9.87802 1.99774 9.3435 2.20796C8.87612 2.39178 8.46236 2.69 8.14017 3.07527C7.77171 3.51588 7.58286 4.08525 7.3677 4.73397L7.27924 4.9998H4C3.44772 4.9998 3 5.44751 3 5.9998C3 6.55208 3.44772 6.9998 4 6.9998H20C20.5523 6.9998 21 6.55208 21 5.9998C21 5.44751 20.5523 4.9998 20 4.9998H16.7208L16.6323 4.73396C16.4171 4.08525 16.2283 3.51587 15.8598 3.07527C15.5376 2.69 15.1239 2.39178 14.6565 2.20796C14.122 1.99774 13.5221 1.99863 12.8386 1.99965H11.1614ZM9.39062 4.99982H14.6094C14.4558 4.56062 14.3961 4.44261 14.3256 4.35831C14.2182 4.22988 14.0803 4.13048 13.9245 4.0692C13.7908 4.01662 13.6083 3.99982 12.6936 3.99982H11.3064C10.3917 3.99982 10.2092 4.01662 10.0755 4.0692C9.91972 4.13048 9.7818 4.22988 9.67441 4.35831C9.60391 4.44261 9.54424 4.56062 9.39062 4.99982Z" fill="#0000CC"/>
<path d="M11.2929 9.79289C11.6834 9.40237 12.3166 9.40237 12.7071 9.79289L14.7071 11.7929C15.0976 12.1834 15.0976 12.8166 14.7071 13.2071C14.3166 13.5976 13.6834 13.5976 13.2929 13.2071L13 12.9142V16.5C13 17.0523 12.5523 17.5 12 17.5C11.4477 17.5 11 17.0523 11 16.5V12.9142L10.7071 13.2071C10.3166 13.5976 9.68342 13.5976 9.29289 13.2071C8.90237 12.8166 8.90237 12.1834 9.29289 11.7929L11.2929 9.79289Z" fill="#0000CC"/>
</svg>
