<svg width="24" height="24" viewBox="0 0 24 24" fill="none" xmlns="http://www.w3.org/2000/svg">
<path opacity="0.3" fill-rule="evenodd" clip-rule="evenodd" d="M3 7V16.2411C2.99999 17.0461 2.99998 17.7104 3.0442 18.2516C3.09012 18.8137 3.18868 19.3304 3.43598 19.8158C3.81947 20.5684 4.43139 21.1803 5.18404 21.5638C5.66937 21.8111 6.18608 21.9097 6.74818 21.9556C7.28937 21.9998 7.95372 21.9998 8.75868 21.9998H11.2413C12.0463 21.9998 12.7106 21.9998 13.2518 21.9556C13.8139 21.9097 14.3306 21.8111 14.816 21.5638C15.5686 21.1803 16.1805 20.5684 16.564 19.8158C16.8113 19.3304 16.9099 18.8137 16.9558 18.2516C17 17.7104 17 17.0461 17 16.2411V7H3ZM8 9C8.55229 9 9 9.44772 9 10V17C9 17.5523 8.55229 18 8 18C7.44772 18 7 17.5523 7 17V10C7 9.44772 7.44772 9 8 9ZM12 9C12.5523 9 13 9.44772 13 10V17C13 17.5523 12.5523 18 12 18C11.4477 18 11 17.5523 11 17V10C11 9.44772 11.4477 9 12 9Z" fill="#0000CC"/>
<path fill-rule="evenodd" clip-rule="evenodd" d="M9.16137 1.99965C8.47789 1.99863 7.87802 1.99774 7.3435 2.20796C6.87612 2.39178 6.46236 2.69 6.14017 3.07527C5.77171 3.51588 5.58286 4.08525 5.3677 4.73397L5.27924 4.9998H2C1.44772 4.9998 1 5.44751 1 5.9998C1 6.55208 1.44772 6.9998 2 6.9998H18C18.5523 6.9998 19 6.55208 19 5.9998C19 5.44751 18.5523 4.9998 18 4.9998H14.7208L14.6323 4.73396C14.4171 4.08525 14.2283 3.51587 13.8598 3.07527C13.5376 2.69 13.1239 2.39178 12.6565 2.20796C12.122 1.99774 11.5221 1.99863 10.8386 1.99965H9.16137ZM7.39062 4.99982H12.6094C12.4558 4.56062 12.3961 4.44261 12.3256 4.35831C12.2182 4.22988 12.0803 4.13048 11.9245 4.0692C11.7908 4.01662 11.6083 3.99982 10.6936 3.99982H9.30643C8.39173 3.99982 8.20921 4.01662 8.07551 4.0692C7.91972 4.13048 7.7818 4.22988 7.67441 4.35831C7.60391 4.44261 7.54424 4.56062 7.39062 4.99982Z" fill="#0000CC"/>
<path d="M19 8C18.4477 8 18 8.44772 18 9C18 9.55228 18.4477 10 19 10H22C22.5523 10 23 9.55228 23 9C23 8.44772 22.5523 8 22 8H19Z" fill="#0000CC"/>
<path d="M19 13C18.4477 13 18 13.4477 18 14C18 14.5523 18.4477 15 19 15H22C22.5523 15 23 14.5523 23 14C23 13.4477 22.5523 13 22 13H19Z" fill="#0000CC"/>
<path d="M18 19C18 18.4477 18.4477 18 19 18H21C21.5523 18 22 18.4477 22 19C22 19.5523 21.5523 20 21 20H19C18.4477 20 18 19.5523 18 19Z" fill="#0000CC"/>
</svg>
