<svg width="24" height="24" viewBox="0 0 24 24" fill="none" xmlns="http://www.w3.org/2000/svg">
<g opacity="0.3">
<path d="M14 3.5C14.7635 3.5 15.423 3.5 16 3.51105V11.4984H15V10.4984C15 9.94611 14.5523 9.49839 14 9.49839H10C9.44771 9.49839 9 9.94611 9 10.4984V11.4984H8V3.51105C8.57703 3.5 9.23647 3.5 10 3.5H14Z" fill="#0000CC"/>
<path d="M6 3.65298C5.50794 3.73364 5.0993 3.85683 4.73005 4.04497C3.78924 4.52433 3.02433 5.28924 2.54497 6.23005C2.0001 7.2994 2 8.6992 2 11.4984L6 11.4984V3.65298Z" fill="#0000CC"/>
<path d="M22 11.4984C22 8.6992 21.9999 7.2994 21.455 6.23005C20.9757 5.28924 20.2108 4.52433 19.27 4.04497C18.9007 3.85683 18.4921 3.73364 18 3.65298V11.4984L22 11.4984Z" fill="#0000CC"/>
<path d="M11 12.5H13V11.4984H11V12.5Z" fill="#0000CC"/>
</g>
<path d="M11 13.4984V12.5H13V13.4984H11Z" fill="#0000CC"/>
<path d="M2 13.4984V17.3C2 18.4201 2 18.9802 2.21799 19.408C2.40973 19.7843 2.71569 20.0903 3.09202 20.282C3.51984 20.5 4.0799 20.5 5.2 20.5H6V13.4984L2 13.4984Z" fill="#0000CC"/>
<path d="M8 20.5H16V13.4984H15V14.4984C15 15.0507 14.5523 15.4984 14 15.4984H10C9.44771 15.4984 9 15.0507 9 14.4984V13.4984H8V20.5Z" fill="#0000CC"/>
<path d="M18.8 20.5H18V13.4984L22 13.4984V17.3C22 18.4201 22 18.9802 21.782 19.408C21.5903 19.7843 21.2843 20.0903 20.908 20.282C20.4802 20.5 19.9201 20.5 18.8 20.5Z" fill="#0000CC"/>
</svg>
