<svg width="24" height="24" viewBox="0 0 24 24" fill="none" xmlns="http://www.w3.org/2000/svg">
<path opacity="0.3" d="M12.8 2.4C12.6112 2.14819 12.3148 2 12 2C11.6853 2 11.3889 2.14819 11.2 2.4L5.20001 10.4C4.97275 10.703 4.93619 11.1084 5.10558 11.4472C5.27497 11.786 5.62124 12 6.00001 12H6.91938L4.21914 15.3753C3.979 15.6755 3.93219 16.0867 4.09871 16.4332C4.26523 16.7797 4.6156 17 5.00001 17H5.91938L3.21914 20.3753C2.979 20.6755 2.93219 21.0867 3.09871 21.4332C3.26523 21.7797 3.6156 22 4.00001 22H20C20.3844 22 20.7348 21.7797 20.9013 21.4332C21.0678 21.0867 21.021 20.6755 20.7809 20.3753L18.0806 17H19C19.3844 17 19.7348 16.7797 19.9013 16.4332C20.0678 16.0867 20.021 15.6755 19.7809 15.3753L17.0806 12H18C18.3788 12 18.725 11.786 18.8944 11.4472C19.0638 11.1084 19.0273 10.703 18.8 10.4L12.8 2.4Z" fill="#0000CC"/>
<path fill-rule="evenodd" clip-rule="evenodd" d="M11 9C11 8.44772 11.4477 8 12 8H12.01C12.5623 8 13.01 8.44772 13.01 9C13.01 9.55228 12.5623 10 12.01 10H12C11.4477 10 11 9.55228 11 9ZM13 14C13 13.4477 13.4477 13 14 13H14.01C14.5623 13 15.01 13.4477 15.01 14C15.01 14.5523 14.5623 15 14.01 15H14C13.4477 15 13 14.5523 13 14ZM10 18C10 17.4477 10.4477 17 11 17H11.01C11.5623 17 12.01 17.4477 12.01 18C12.01 18.5523 11.5623 19 11.01 19H11C10.4477 19 10 18.5523 10 18Z" fill="#0000CC"/>
</svg>
