<svg width="24" height="24" viewBox="0 0 24 24" fill="none" xmlns="http://www.w3.org/2000/svg">
<path opacity="0.3" fill-rule="evenodd" clip-rule="evenodd" d="M10.7567 2.41949C11.5463 2.06004 12.4529 2.06004 13.2425 2.41949C13.8033 2.67477 14.1969 3.1435 14.5281 3.63359C14.858 4.1217 15.2191 4.77834 15.6559 5.5726L21.291 15.8183C21.7005 16.5626 22.0409 17.1815 22.2644 17.6939C22.4906 18.2124 22.6663 18.7683 22.5958 19.3567C22.4957 20.1923 22.0492 20.9474 21.3653 21.4378C20.8837 21.7832 20.312 21.8971 19.7486 21.9488C19.1919 21.9999 18.4856 21.9998 17.6361 21.9998H6.36316C5.51364 21.9998 4.80735 21.9999 4.25069 21.9488C3.68728 21.8971 3.11559 21.7832 2.63396 21.4378C1.95006 20.9474 1.50359 20.1923 1.40347 19.3567C1.33297 18.7683 1.50861 18.2124 1.73486 17.6939C1.9584 17.1815 2.29879 16.5626 2.70821 15.8183L8.34331 5.57263C8.78014 4.77835 9.14128 4.1217 9.47115 3.63359C9.80235 3.1435 10.1959 2.67477 10.7567 2.41949Z" fill="#0000CC"/>
<path d="M12 9C12.5523 9 13 9.44772 13 10V14C13 14.5523 12.5523 15 12 15C11.4477 15 11 14.5523 11 14V10C11 9.44772 11.4477 9 12 9Z" fill="#0000CC"/>
<path d="M11 17C11 16.4477 11.4477 16 12 16H12.01C12.5623 16 13.01 16.4477 13.01 17C13.01 17.5523 12.5623 18 12.01 18H12C11.4477 18 11 17.5523 11 17Z" fill="#0000CC"/>
</svg>
