<svg width="24" height="24" viewBox="0 0 24 24" fill="none" xmlns="http://www.w3.org/2000/svg">
<rect opacity="0.3" x="2" y="2" width="20" height="17" rx="3" fill="#0000CC"/>
<path d="M4.10899 4.54601C4 4.75992 4 5.03995 4 5.6V15H20V5.6C20 5.03995 20 4.75992 19.891 4.54601C19.7951 4.35785 19.6422 4.20487 19.454 4.10899C19.2401 4 18.9601 4 18.4 4H5.6C5.03995 4 4.75992 4 4.54601 4.10899C4.35785 4.20487 4.20487 4.35785 4.10899 4.54601Z" fill="#0000CC"/>
<path d="M6 21V18.9983C6.24373 19 6.50929 19 6.8 19H8V21C8 21.5523 7.55228 22 7 22C6.44772 22 6 21.5523 6 21Z" fill="#0000CC"/>
<path d="M16 21V19H17.2C17.4907 19 17.7563 19 18 18.9983V21C18 21.5523 17.5523 22 17 22C16.4477 22 16 21.5523 16 21Z" fill="#0000CC"/>
</svg>
