<svg width="24" height="24" viewBox="0 0 24 24" fill="none" xmlns="http://www.w3.org/2000/svg">
<path opacity="0.3" d="M3 2C2.44772 2 2 2.44772 2 3V17C2 17.5523 2.44772 18 3 18H5V21C5 21.3844 5.22035 21.7348 5.56681 21.9013C5.91328 22.0678 6.32452 22.021 6.62469 21.7809L11.3508 18H16.5C16.7491 18 16.9893 17.907 17.1735 17.7392L21.6735 13.6392C21.8815 13.4497 22 13.1814 22 12.9V3C22 2.44772 21.5523 2 21 2H3Z" fill="#0000CC"/>
<path fill-rule="evenodd" clip-rule="evenodd" d="M11 6C11.5523 6 12 6.44772 12 7V11C12 11.5523 11.5523 12 11 12C10.4477 12 10 11.5523 10 11V7C10 6.44772 10.4477 6 11 6ZM16 6C16.5523 6 17 6.44772 17 7V11C17 11.5523 16.5523 12 16 12C15.4477 12 15 11.5523 15 11V7C15 6.44772 15.4477 6 16 6Z" fill="#0000CC"/>
</svg>
