<svg width="24" height="24" viewBox="0 0 24 24" fill="none" xmlns="http://www.w3.org/2000/svg">
<path opacity="0.3" d="M5.90331 15.8149L5.89681 15.8092C5.38696 15.3627 4.72726 14.6843 4.09546 13.7367C2.82202 11.8268 1.69633 8.87377 2.07416 4.63868C2.10882 4.25022 2.36615 3.91736 2.73336 3.78598C3.1004 3.65467 3.51028 3.74863 3.78348 4.02666L3.78861 4.03182L3.81348 4.05653C3.83665 4.07937 3.87284 4.11467 3.92136 4.16085C4.01845 4.25326 4.16461 4.38895 4.35431 4.55538C4.73433 4.88879 5.28556 5.34249 5.96373 5.81759C7.05525 6.58227 8.43148 7.37107 9.92188 7.82663V7.63658C9.92188 5.10555 11.9713 2.96895 14.5336 3.00034C15.4248 3.01092 16.2944 3.27851 17.0387 3.77053C17.5956 4.13868 18.0651 4.6208 18.4187 5.18213H21C21.4036 5.18213 21.7676 5.4247 21.9229 5.79714C22.0783 6.16959 21.9946 6.59892 21.7106 6.8857L19.0883 9.53436C18.4912 15.9459 13.1243 21 6.60001 21C5.03297 21 3.97318 20.7027 3.26919 20.3472C2.91827 20.1699 2.66371 19.9821 2.48484 19.8195C2.39577 19.7385 2.3265 19.6647 2.2741 19.603C2.24792 19.5721 2.22603 19.5444 2.20803 19.5203L2.1654 19.4599C1.99806 19.2064 1.95505 18.8905 2.04849 18.6015C2.14178 18.3129 2.36098 18.0823 2.64438 17.9745L2.64536 17.9741L2.64669 17.9736L2.66339 17.967C2.67961 17.9606 2.7058 17.95 2.74093 17.9353C2.81125 17.9059 2.917 17.8602 3.04997 17.7982C3.31669 17.6739 3.68868 17.486 4.10171 17.2357C4.70569 16.8697 5.3593 16.3928 5.90331 15.8149Z" fill="#0000CC"/>
<path d="M3.78319 4.02639C3.50999 3.74859 3.10027 3.65474 2.73335 3.78601C2.36614 3.91738 2.10881 4.25025 2.07416 4.63871C1.69633 8.8738 2.82202 11.8269 4.09545 13.7367C4.72726 14.6843 5.38696 15.3628 5.89681 15.8092C6.15188 16.0326 6.37021 16.1986 6.53002 16.3118C6.60997 16.3684 6.67542 16.412 6.72366 16.443L6.81437 16.4992C7.2027 16.7268 7.69523 16.6669 8.0177 16.3528C8.96715 15.4282 10.9698 12.8202 11.8869 9.34638C11.9586 9.07487 11.9128 8.78573 11.7607 8.54965C11.6087 8.31357 11.3644 8.1523 11.0875 8.10526C9.15564 7.77703 7.33502 6.77829 5.96372 5.81761C5.28555 5.34251 4.73433 4.88882 4.35431 4.5554C4.16461 4.38898 4.01844 4.25328 3.92136 4.16088C3.87284 4.1147 3.83665 4.0794 3.81348 4.05655L3.78861 4.03185L3.78319 4.02639Z" fill="#0000CC"/>
</svg>
