<svg width="24" height="24" viewBox="0 0 24 24" fill="none" xmlns="http://www.w3.org/2000/svg">
<path opacity="0.3" d="M4 9V16.1783C3.87814 16.2175 3.75735 16.2662 3.63803 16.327C3.07354 16.6146 2.6146 17.0735 2.32698 17.638C2.13419 18.0164 2.06287 18.4096 2.03057 18.805C1.99997 19.1795 1.99998 19.6343 2 20.1614V21C2 21.5523 2.44772 22 3 22H21C21.5523 22 22 21.5523 22 21V20.1614C22 19.6343 22 19.1795 21.9694 18.805C21.9371 18.4096 21.8658 18.0164 21.673 17.638C21.3854 17.0735 20.9265 16.6146 20.362 16.327C20.2427 16.2662 20.1219 16.2175 20 16.1783V9H18V16L16 16V9H14V16H10V9H8V16L6 16V9H4Z" fill="#0000CC"/>
<path d="M3 9H21C21.5523 9 22 8.55228 22 8V5.5C22 5.05079 21.7005 4.65671 21.2676 4.53648L12.2676 2.03648C12.0925 1.98784 11.9075 1.98784 11.7324 2.03648L2.73236 4.53648C2.29954 4.65671 2 5.05079 2 5.5V8C2 8.55228 2.44772 9 3 9Z" fill="#0000CC"/>
</svg>
