<svg width="24" height="24" viewBox="0 0 24 24" fill="none" xmlns="http://www.w3.org/2000/svg">
<path opacity="0.3" fill-rule="evenodd" clip-rule="evenodd" d="M6.21799 3.09202C6 3.51984 6 4.07989 6 5.2V9.01919C6.31428 9 6.70173 9 7.2 9H16.8C17.2983 9 17.6857 9 18 9.01919V5.2C18 4.0799 18 3.51984 17.782 3.09202C17.5903 2.71569 17.2843 2.40973 16.908 2.21799C16.4802 2 15.9201 2 14.8 2H9.2C8.0799 2 7.51984 2 7.09202 2.21799C6.71569 2.40973 6.40973 2.71569 6.21799 3.09202Z" fill="#0000CC"/>
<path d="M9 5C9 4.44772 9.44771 4 10 4C10.5523 4 11 4.44772 11 5V6C11 6.55228 10.5523 7 10 7C9.44771 7 9 6.55228 9 6V5Z" fill="#0000CC"/>
<path d="M13 5C13 4.44772 13.4477 4 14 4C14.5523 4 15 4.44772 15 5V6C15 6.55228 14.5523 7 14 7C13.4477 7 13 6.55228 13 6V5Z" fill="#0000CC"/>
<path d="M4.21799 10.092C4 10.5198 4 11.0799 4 12.2V14C4 16.8003 4 18.2004 4.54497 19.27C5.02433 20.2108 5.78924 20.9757 6.73005 21.455C7.79961 22 9.19974 22 12 22C14.8003 22 16.2004 22 17.27 21.455C18.2108 20.9757 18.9757 20.2108 19.455 19.27C20 18.2004 20 16.8003 20 14V12.2C20 11.0799 20 10.5198 19.782 10.092C19.5903 9.71569 19.2843 9.40973 18.908 9.21799C18.4802 9 17.9201 9 16.8 9H7.2C6.0799 9 5.51984 9 5.09202 9.21799C4.71569 9.40973 4.40973 9.71569 4.21799 10.092Z" fill="#0000CC"/>
</svg>
