<svg width="24" height="24" viewBox="0 0 24 24" fill="none" xmlns="http://www.w3.org/2000/svg">
<g opacity="0.3">
<path d="M11 2C8.23858 2 6 4.23858 6 7C6 9.76142 8.23858 12 11 12C13.7614 12 16 9.76142 16 7C16 4.23858 13.7614 2 11 2Z" fill="#0000CC"/>
<path d="M11 13C6.58172 13 3 16.5817 3 21C3 21.5523 3.44772 22 4 22H15.1675C15.057 21.6872 14.9968 21.3506 14.9968 21C14.9968 20.4537 15.1429 19.9415 15.398 19.5002C15.0975 18.9805 14.9658 18.3898 15.0029 17.8079C13.586 17.2766 12.7688 15.7509 13.1545 14.2522C13.2318 13.952 13.3362 13.6627 13.4649 13.3869C12.6885 13.1357 11.8601 13 11 13Z" fill="#0000CC"/>
</g>
<path d="M17.9978 14.5C17.5332 14.5 17.1403 14.8177 17.0292 15.2493C16.8916 15.7841 16.3464 16.1061 15.8115 15.9684C15.2767 15.8308 14.9547 15.2856 15.0924 14.7507C15.4253 13.457 16.5985 12.5 17.9978 12.5C19.6546 12.5 20.9978 13.8431 20.9978 15.5C20.9978 16.4314 20.5433 17.0493 20.0672 17.5087C19.8744 17.6948 19.6549 17.8768 19.4575 18.0404L19.3717 18.1116C19.1412 18.3033 18.9208 18.4913 18.7049 18.7071C18.3144 19.0976 17.6812 19.0976 17.2907 18.7071C16.9002 18.3166 16.9002 17.6834 17.2907 17.2929C17.5748 17.0087 17.8544 16.7723 18.0927 16.574L18.1842 16.498C18.3888 16.3282 18.544 16.1994 18.6783 16.0697C18.9523 15.8053 18.9978 15.6732 18.9978 15.5C18.9978 14.9477 18.5501 14.5 17.9978 14.5Z" fill="#0000CC"/>
<path d="M19.0005 21C19.0005 21.5523 18.5528 22 18.0005 22C17.4482 22 17.0005 21.5523 17.0005 21C17.0005 20.4477 17.4482 20 18.0005 20C18.5528 20 19.0005 20.4477 19.0005 21Z" fill="#0000CC"/>
</svg>
