<svg width="24" height="24" viewBox="0 0 24 24" fill="none" xmlns="http://www.w3.org/2000/svg">
<g opacity="0.3">
<path d="M11 2C8.23862 2 6.00005 4.23858 6.00005 7C6.00005 9.76142 8.23862 12 11 12C13.7615 12 16 9.76142 16 7C16 4.23858 13.7615 2 11 2Z" fill="#0000CC"/>
<path d="M7.68414 13L7.59006 13C7.04618 12.9998 6.64297 12.9996 6.28748 13.064C4.64594 13.3612 3.3612 14.6459 3.06402 16.2874C2.99967 16.6429 2.99982 17.0461 3.00002 17.59L3.00004 19.4319C3.00001 19.6843 2.99998 19.9301 3.01699 20.1382C3.03567 20.3668 3.07973 20.6366 3.21803 20.908C3.40978 21.2843 3.71574 21.5903 4.09206 21.782C4.36349 21.9203 4.63322 21.9644 4.86182 21.9831C5.06988 22.0001 5.31565 22 5.56791 22H12.1708C11.7987 20.9447 12.0346 19.7228 12.8787 18.8787L13.2574 18.5L12.8787 18.1213C11.7071 16.9497 11.7071 15.0503 12.8787 13.8787C13.3401 13.4173 13.6077 13.2484 13.7139 13.1924C13.7488 13.1763 13.7676 13.1673 13.7676 13.1673C13.7676 13.1673 13.7502 13.1733 13.7139 13.1924C13.4131 13.3314 11.9179 14 11 14C9.97666 14 9.02944 13.6936 8.23782 13.1673C8.07376 13.0582 7.88115 13 7.68414 13Z" fill="#0000CC"/>
</g>
<path d="M15.7071 15.2929C15.3166 14.9024 14.6834 14.9024 14.2929 15.2929C13.9024 15.6834 13.9024 16.3166 14.2929 16.7071L16.0858 18.5L14.2929 20.2929C13.9024 20.6834 13.9024 21.3166 14.2929 21.7071C14.6834 22.0976 15.3166 22.0976 15.7071 21.7071L17.5 19.9142L19.2929 21.7071C19.6834 22.0976 20.3166 22.0976 20.7071 21.7071C21.0976 21.3166 21.0976 20.6834 20.7071 20.2929L18.9142 18.5L20.7071 16.7071C21.0976 16.3166 21.0976 15.6834 20.7071 15.2929C20.3166 14.9024 19.6834 14.9024 19.2929 15.2929L17.5 17.0858L15.7071 15.2929Z" fill="#0000CC"/>
</svg>
