<svg width="24" height="24" viewBox="0 0 24 24" fill="none" xmlns="http://www.w3.org/2000/svg">
<g opacity="0.3">
<path d="M11 2C8.23858 2 6 4.23858 6 7C6 9.76142 8.23858 12 11 12C13.7614 12 16 9.76142 16 7C16 4.23858 13.7614 2 11 2Z" fill="#0000CC"/>
<path d="M11 13C6.58172 13 3 16.5817 3 21C3 21.5523 3.44772 22 4 22H12.5L11.931 21.4581C10.7312 20.3155 10.6849 18.4165 11.8276 17.2168C12.8832 16.1083 14.5844 15.9844 15.7834 16.873L17.0029 15.7116C15.5369 14.0489 13.3909 13 11 13Z" fill="#0000CC"/>
</g>
<path d="M20.6897 17.7241C21.0896 17.3433 21.105 16.7103 20.7241 16.3103C20.3433 15.9104 19.7103 15.895 19.3103 16.2759L15.8 19.619L14.6897 18.5616C14.2897 18.1807 13.6567 18.1961 13.2759 18.5961C12.895 18.996 12.9104 19.629 13.3103 20.0099L15.1103 21.7241C15.4966 22.092 16.1035 22.092 16.4897 21.7241L20.6897 17.7241Z" fill="#0000CC"/>
</svg>
