<svg width="24" height="24" viewBox="0 0 24 24" fill="none" xmlns="http://www.w3.org/2000/svg">
<path fill-rule="evenodd" clip-rule="evenodd" d="M17 14C14.7909 14 13 15.7909 13 18C13 20.2091 14.7909 22 17 22C19.2091 22 21 20.2091 21 18C21 15.7909 19.2091 14 17 14ZM15 18C15 16.8954 15.8954 16 17 16C17.267 16 17.5217 16.0523 17.7546 16.1472L15.0188 18.275C15.0064 18.1851 15 18.0933 15 18ZM16.247 19.8534L18.9815 17.7267C18.9937 17.816 19 17.9073 19 18C19 19.1046 18.1046 20 17 20C16.7336 20 16.4795 19.9479 16.247 19.8534Z" fill="#0000CC"/>
<g opacity="0.3">
<path d="M11 2C8.23858 2 6 4.23858 6 7C6 9.76142 8.23858 12 11 12C13.7614 12 16 9.76142 16 7C16 4.23858 13.7614 2 11 2Z" fill="#0000CC"/>
<path d="M11 13C6.58172 13 3 16.5817 3 21C3 21.5523 3.44772 22 4 22H12.5278C11.5777 20.9385 11 19.5367 11 18C11 16.1072 11.8764 14.4192 13.2456 13.3195C12.5332 13.1115 11.7796 13 11 13Z" fill="#0000CC"/>
</g>
</svg>
