<svg width="24" height="24" viewBox="0 0 24 24" fill="none" xmlns="http://www.w3.org/2000/svg">
<g opacity="0.3">
<path d="M11.5218 2C8.76042 2 6.52185 4.23858 6.52185 7C6.52185 9.76142 8.76042 12 11.5218 12C14.2833 12 16.5218 9.76142 16.5218 7C16.5218 4.23858 14.2833 2 11.5218 2Z" fill="#0000CC"/>
<path d="M11.5218 13C12.266 13 12.9891 13.0903 13.6808 13.2606C12.8142 14.0304 12.217 15.0968 12.0485 16.3006C11.3987 17.0109 11 17.9583 11 19V20C11 20.7286 11.1948 21.4117 11.5351 22H6.52185C5.32763 22 4.73052 22 4.08897 21.5566C3.65466 21.2564 3.12614 20.4187 3.0422 19.8975C2.91822 19.1275 3.07688 18.7949 3.39421 18.1297C4.84134 15.0961 7.9368 13 11.5218 13Z" fill="#0000CC"/>
</g>
<path fill-rule="evenodd" clip-rule="evenodd" d="M14 17C14 15.3431 15.3431 14 17 14C18.6569 14 20 15.3431 20 17V17.2676C20.5978 17.6134 21 18.2597 21 19V20C21 21.1046 20.1046 22 19 22H15C13.8954 22 13 21.1046 13 20V19C13 18.2597 13.4022 17.6134 14 17.2676V17ZM17 16C16.4477 16 16 16.4477 16 17H18C18 16.4477 17.5523 16 17 16Z" fill="#0000CC"/>
</svg>
