<svg width="24" height="24" viewBox="0 0 24 24" fill="none" xmlns="http://www.w3.org/2000/svg">
<path d="M16.143 6C16.8871 6 17.0343 6.01172 17.1496 6.04936C17.2834 6.09303 17.4065 6.16445 17.5108 6.25895C17.6007 6.34039 17.6839 6.46237 18.0531 7.10849L20.2768 11H15V6H16.143Z" fill="#0000CC"/>
<path d="M7 11H3V8.2C3 7.62345 3.00078 7.25117 3.02393 6.96784C3.04612 6.69617 3.0838 6.59545 3.10899 6.54601C3.20487 6.35785 3.35785 6.20487 3.54601 6.10899C3.59545 6.0838 3.69617 6.04612 3.96784 6.02393C4.25117 6.00078 4.62345 6 5.2 6H7V11Z" fill="#0000CC"/>
<path d="M9 11V6H13V11H9Z" fill="#0000CC"/>
<path d="M3 17C3 15.3431 4.34315 14 6 14C7.65685 14 9 15.3431 9 17C9 18.6569 7.65685 20 6 20C4.34315 20 3 18.6569 3 17Z" fill="#0000CC"/>
<path d="M15 17C15 15.3431 16.3431 14 18 14C19.6569 14 21 15.3431 21 17C21 18.6569 19.6569 20 18 20C16.3431 20 15 18.6569 15 17Z" fill="#0000CC"/>
<path opacity="0.3" fill-rule="evenodd" clip-rule="evenodd" d="M5.16145 4.00019C4.63431 4.00017 4.17955 4.00016 3.80497 4.03076C3.40963 4.06306 3.01641 4.13438 2.63803 4.32717C2.07354 4.61479 1.6146 5.07373 1.32698 5.63822C1.13419 6.0166 1.06287 6.40982 1.03057 6.80516C0.999969 7.17973 0.999984 7.63447 1 8.1616V15.0002C1 15.8922 1.38929 16.6932 2.00724 17.2428C2.00244 17.1625 2 17.0816 2 17.0002C2 14.791 3.79086 13.0002 6 13.0002C8.20914 13.0002 10 14.791 10 17.0002C10 17.3455 9.95625 17.6806 9.87398 18.0002H14.126C14.0438 17.6806 14 17.3455 14 17.0002C14 14.791 15.7909 13.0002 18 13.0002C20.2091 13.0002 22 14.791 22 17.0002C22 17.0816 21.9976 17.1625 21.9928 17.2428C22.6107 16.6932 23 15.8922 23 15.0002L23 12.7966C23.0002 12.5325 23.0003 12.2993 22.9637 12.066C22.9315 11.8606 22.878 11.6592 22.8041 11.465C22.7201 11.2442 22.6043 11.0418 22.4731 10.8125L19.7317 6.01498C19.4546 5.52854 19.2107 5.10051 18.8537 4.77703C18.5408 4.49353 18.1716 4.27927 17.7702 4.14826C17.3122 3.99878 16.8196 3.99939 16.2597 4.00009L5.16145 4.00019ZM17.1496 6.04955C17.0343 6.01191 16.8871 6.00019 16.143 6.00019H15V11.0002H20.2768L18.0531 7.10869C17.6839 6.46256 17.6007 6.34058 17.5108 6.25914C17.4065 6.16464 17.2834 6.09322 17.1496 6.04955ZM3 11.0002H7V6.00019H5.2C4.62345 6.00019 4.25118 6.00097 3.96784 6.02412C3.69618 6.04631 3.59546 6.08399 3.54601 6.10919C3.35785 6.20506 3.20487 6.35804 3.109 6.5462C3.0838 6.59565 3.04613 6.69636 3.02393 6.96803C3.00078 7.25136 3 7.62364 3 8.20019V11.0002ZM9 6.00019V11.0002H13V6.00019H9Z" fill="#0000CC"/>
</svg>
