<svg width="24" height="24" viewBox="0 0 24 24" fill="none" xmlns="http://www.w3.org/2000/svg">
<path opacity="0.3" fill-rule="evenodd" clip-rule="evenodd" d="M5.36392 5C5.37591 5 5.38794 5 5.4 5L13.6361 5C14.0252 4.99998 14.3753 4.99996 14.6666 5.02376C14.9786 5.04925 15.3101 5.10694 15.635 5.27249C16.1054 5.51217 16.4878 5.89462 16.7275 6.36503C16.8931 6.68993 16.9508 7.0214 16.9762 7.33337C17 7.62469 17 7.97484 17 8.36393L17 14.8385C17 15.3657 17 15.8205 16.9694 16.195C16.9371 16.5904 16.8658 16.9836 16.673 17.362C16.3854 17.9265 15.9265 18.3854 15.362 18.673C14.9836 18.8658 14.5904 18.9371 14.195 18.9694C13.8205 19 13.3657 19 12.8386 19H6.16144C5.6343 19 5.17954 19 4.80498 18.9694C4.40963 18.9371 4.01641 18.8658 3.63803 18.673C3.07354 18.3854 2.6146 17.9265 2.32698 17.362C2.13419 16.9836 2.06287 16.5904 2.03057 16.195C1.99997 15.8205 1.99998 15.3657 2 14.8385L2 8.4C2 8.38794 2 8.37591 2 8.36391C1.99998 7.97482 1.99996 7.62469 2.02376 7.33337C2.04925 7.0214 2.10694 6.68993 2.27249 6.36503C2.51217 5.89462 2.89462 5.51217 3.36503 5.27249C3.68993 5.10694 4.0214 5.04925 4.33337 5.02376C4.62469 4.99996 4.97482 4.99998 5.36392 5Z" fill="#0000CC"/>
<path d="M18.0988 16.4254L16.9919 15.7613C17 15.4849 17 15.1766 17 14.8385L17 8.23389L18.0988 7.57457C18.464 7.35541 18.795 7.15677 19.076 7.02144C19.3604 6.88441 19.7447 6.73372 20.1857 6.77483C20.7547 6.82787 21.2739 7.12182 21.6122 7.58248C21.8743 7.93946 21.9428 8.34654 21.9717 8.66096C22.0001 8.97146 22.0001 9.35749 22.0001 9.78337V14.2166C22.0001 14.6425 22.0001 15.0286 21.9717 15.3391C21.9428 15.6535 21.8743 16.0605 21.6122 16.4175C21.2739 16.8782 20.7547 17.1721 20.1857 17.2252C19.7447 17.2663 19.3604 17.1156 19.076 16.9786C18.795 16.8432 18.464 16.6446 18.0988 16.4254Z" fill="#0000CC"/>
<path d="M9.5 8C10.0523 8 10.5 8.44772 10.5 9V11H12.5C13.0523 11 13.5 11.4477 13.5 12C13.5 12.5523 13.0523 13 12.5 13H10.5V15C10.5 15.5523 10.0523 16 9.5 16C8.94772 16 8.5 15.5523 8.5 15V13H6.5C5.94772 13 5.5 12.5523 5.5 12C5.5 11.4477 5.94772 11 6.5 11H8.5V9C8.5 8.44772 8.94772 8 9.5 8Z" fill="#0000CC"/>
</svg>
