<svg width="24" height="24" viewBox="0 0 24 24" fill="none" xmlns="http://www.w3.org/2000/svg">
<path d="M17.3995 8.20043C17.8411 7.86874 18.4679 7.95783 18.7996 8.39942C19.5529 9.40231 19.9997 10.6504 19.9997 12C19.9997 13.3496 19.5529 14.5977 18.7996 15.6006C18.4679 16.0422 17.8411 16.1313 17.3995 15.7996C16.9579 15.4679 16.8688 14.841 17.2005 14.3994C17.7026 13.731 17.9997 12.9016 17.9997 12C17.9997 11.0984 17.7026 10.269 17.2005 9.60057C16.8688 9.15899 16.9579 8.53212 17.3995 8.20043Z" fill="#0000CC"/>
<path opacity="0.3" fill-rule="evenodd" clip-rule="evenodd" d="M14.6137 3.37617C14.9217 3.7175 14.9638 4.14887 14.9803 4.34083C15.0001 4.5722 15 4.86429 15 5.17117V18.8288C15 19.1357 15.0001 19.4277 14.9803 19.6591C14.9638 19.8511 14.9217 20.2825 14.6137 20.6238C14.2792 20.9946 13.7821 21.1745 13.2877 21.1039C12.8326 21.0388 12.5241 20.7344 12.3885 20.5974C12.2252 20.4324 12.0382 20.208 11.8418 19.9722L9.19129 16.7916C8.80395 16.3268 8.72156 16.2404 8.63878 16.1822C8.54301 16.1148 8.43614 16.0647 8.32306 16.0343C8.2253 16.008 8.10625 16 7.50121 16L6.56812 16C6.31574 16 6.06994 16 5.86178 15.983C5.63318 15.9644 5.36345 15.9203 5.09202 15.782C4.7157 15.5902 4.40974 15.2843 4.21799 14.908C4.0797 14.6365 4.03563 14.3668 4.01695 14.1382C3.99994 13.93 3.99997 13.6843 4 13.4319L4.00001 10.6C4.00001 10.5893 4 10.5787 4 10.5681C3.99997 10.3157 3.99994 10.0699 4.01695 9.86175C4.03563 9.63315 4.07969 9.36342 4.21799 9.092C4.40974 8.71567 4.7157 8.40971 5.09202 8.21796C5.36345 8.07967 5.63318 8.0356 5.86178 8.01692C6.06993 7.99991 6.31572 7.99994 6.56811 7.99997C6.57873 7.99998 6.58936 7.99998 6.60001 7.99998H7.50121C8.10625 7.99998 8.2253 7.99194 8.32306 7.96564C8.43614 7.93521 8.54301 7.88516 8.63878 7.81776C8.72156 7.7595 8.80395 7.67319 9.19129 7.20838L11.8418 4.02774C12.0383 3.79197 12.2252 3.56756 12.3886 3.4025C12.5241 3.26556 12.8326 2.96116 13.2877 2.8961C13.7821 2.82542 14.2792 3.0054 14.6137 3.37617Z" fill="#0000CC"/>
</svg>
