<svg width="24" height="24" viewBox="0 0 24 24" fill="none" xmlns="http://www.w3.org/2000/svg">
<path opacity="0.3" fill-rule="evenodd" clip-rule="evenodd" d="M2.00024 14.0278C2 11.6852 1.99977 9.3426 2.00046 7H17.2004C18.8806 7 19.7207 7 20.3624 7.32698C20.9269 7.6146 21.3858 8.07354 21.6734 8.63803C22.0004 9.27976 22.0004 10.1198 22.0004 11.8V16.2C22.0004 17.8802 22.0004 18.7202 21.6734 19.362C21.3858 19.9265 20.9269 20.3854 20.3624 20.673C19.7207 21 18.8806 21 17.2004 21H6.80043C5.12027 21 4.28019 21 3.63846 20.673C3.07397 20.3854 2.61503 19.9265 2.32741 19.362C2.00043 18.7202 2.00043 17.8802 2.00043 16.2C2.00038 15.4759 2.00031 14.7519 2.00024 14.0278Z" fill="#0000CC"/>
<path d="M4.0239 5.96784C4.00354 6.21699 4.00049 6.5349 4.00004 7H2C2.00028 6.54097 2.00311 6.14075 2.03054 5.80498C2.06284 5.40963 2.13416 5.01641 2.32695 4.63803C2.61457 4.07355 3.07352 3.6146 3.638 3.32698C4.01638 3.13419 4.4096 3.06287 4.80494 3.03057C5.17949 2.99997 5.63429 2.99999 6.16139 3H19C19.5523 3 20 3.44772 20 4C20 4.55229 19.5523 5 19 5H6.19997C5.62342 5 5.25115 5.00078 4.96781 5.02393C4.69615 5.04613 4.59543 5.0838 4.54598 5.109C4.35782 5.20487 4.20484 5.35785 4.10897 5.54601C4.08377 5.59546 4.0461 5.69618 4.0239 5.96784Z" fill="#0000CC"/>
<path d="M18.5 15.5C19.3284 15.5 20 14.8284 20 14C20 13.1716 19.3284 12.5 18.5 12.5C17.6716 12.5 17 13.1716 17 14C17 14.8284 17.6716 15.5 18.5 15.5Z" fill="#0000CC"/>
</svg>
