<svg width="24" height="24" viewBox="0 0 24 24" fill="none" xmlns="http://www.w3.org/2000/svg">
<g opacity="0.3">
<path d="M6 7.00009C6 6.44781 5.55228 6.00009 5 6.00009C4.44772 6.00009 4 6.44781 4 7.00009V8.00009H3C2.44772 8.00009 2 8.44781 2 9.00009C2 9.55238 2.44772 10.0001 3 10.0001H4V11.0001C4 11.5524 4.44772 12.0001 5 12.0001C5.55228 12.0001 6 11.5524 6 11.0001V10.0001H7C7.55228 10.0001 8 9.55238 8 9.00009C8 8.44781 7.55228 8.00009 7 8.00009H6V7.00009Z" fill="#0000CC"/>
<path d="M19 16.0001C19 15.4478 18.5523 15.0001 18 15.0001C17.4477 15.0001 17 15.4478 17 16.0001V17.0001H16C15.4477 17.0001 15 17.4478 15 18.0001C15 18.5524 15.4477 19.0001 16 19.0001H17V20.0001C17 20.5524 17.4477 21.0001 18 21.0001C18.5523 21.0001 19 20.5524 19 20.0001V19.0001H20C20.5523 19.0001 21 18.5524 21 18.0001C21 17.4478 20.5523 17.0001 20 17.0001H19V16.0001Z" fill="#0000CC"/>
<path d="M19.0033 2.12694C18.6016 1.99642 18.1689 1.99642 17.7672 2.12694C17.4775 2.22107 17.2556 2.38065 17.0808 2.52908C16.9216 2.66422 16.7478 2.83803 16.5694 3.01649L13.8123 5.77364L18.1835 9.88772L20.812 7.25915C20.9905 7.08075 21.1643 6.90694 21.2995 6.74776C21.4479 6.57291 21.6075 6.35102 21.7016 6.0613C21.8321 5.65961 21.8321 5.22692 21.7016 4.82523C21.6075 4.53551 21.4479 4.31362 21.2995 4.13878C21.1643 3.97959 20.9905 3.80584 20.8121 3.62743L20.2012 3.01652C20.0227 2.83805 19.849 2.66424 19.6898 2.52908C19.5149 2.38064 19.293 2.22107 19.0033 2.12694Z" fill="#0000CC"/>
</g>
<path d="M10.0005 1C10.5528 1 11.0005 1.44772 11.0005 2V3H12.0005C12.5528 3 13.0005 3.44772 13.0005 4C13.0005 4.55228 12.5528 5 12.0005 5H11.0005V6C11.0005 6.55228 10.5528 7 10.0005 7C9.4482 7 9.00049 6.55228 9.00049 6V5H8.00049C7.4482 5 7.00049 4.55228 7.00049 4C7.00049 3.44772 7.4482 3 8.00049 3H9.00049V2C9.00049 1.44772 9.4482 1 10.0005 1Z" fill="#0000CC"/>
<path d="M16.7692 11.3026L12.398 7.18848L2.96797 16.6185C2.78949 16.7969 2.61566 16.9707 2.48049 17.1299C2.33206 17.3047 2.17249 17.5266 2.07836 17.8164C1.94784 18.218 1.94784 18.6507 2.07836 19.0524C2.17249 19.3421 2.33206 19.564 2.48049 19.7389C2.61565 19.8981 2.78946 20.0719 2.96794 20.2503L3.57898 20.8613C3.75731 21.0397 3.93107 21.2135 4.09019 21.3486C4.26504 21.497 4.48693 21.6566 4.77665 21.7507C5.17834 21.8812 5.61103 21.8812 6.01272 21.7507C6.30243 21.6566 6.52432 21.497 6.69917 21.3486C6.85837 21.2134 7.03216 21.0396 7.21058 20.8611L16.7692 11.3026Z" fill="#0000CC"/>
</svg>
