<svg width="24" height="24" viewBox="0 0 24 24" fill="none" xmlns="http://www.w3.org/2000/svg">
<path opacity="0.3" fill-rule="evenodd" clip-rule="evenodd" d="M19.472 2.27487C19.8297 2.14616 20.2229 2.15807 20.5721 2.30818C20.7516 2.38531 20.8833 2.48894 20.9717 2.56621C21.0478 2.6328 21.1281 2.71317 21.1947 2.77978L21.2208 2.8059C21.2874 2.87247 21.3678 2.95279 21.4344 3.02891C21.5116 3.11724 21.6153 3.24897 21.6924 3.42842C21.8425 3.77767 21.8544 4.17089 21.7257 4.52859C21.6596 4.71238 21.5641 4.85013 21.4923 4.94298C21.4304 5.023 21.3551 5.10805 21.2926 5.17853L7.35431 20.9153C7.17731 21.1152 7.00604 21.3086 6.84801 21.4595C6.67545 21.6244 6.45297 21.8047 6.15452 21.9158C5.7432 22.069 5.29291 22.0826 4.87307 21.9546C4.56845 21.8617 4.33547 21.6952 4.15325 21.5411C3.98638 21.4 3.80374 21.2173 3.61497 21.0285L2.97206 20.3856C2.78325 20.1968 2.60056 20.0142 2.45945 19.8473C2.30536 19.6651 2.13886 19.4321 2.04596 19.1275C1.91793 18.7077 1.93156 18.2574 2.08476 17.8461C2.19591 17.5476 2.3762 17.3251 2.54103 17.1526C2.69198 16.9945 2.88539 16.8233 3.08527 16.6463L18.8221 2.70796C18.8925 2.64549 18.9776 2.57013 19.0576 2.50826C19.1504 2.43647 19.2882 2.341 19.472 2.27487Z" fill="#0000CC"/>
<path d="M9.4601 11H7C6.73366 11 6.47833 11.1063 6.29061 11.2952C6.1029 11.4841 5.9983 11.7401 6.00002 12.0065L6.01324 14.053L9.4601 11Z" fill="#0000CC"/>
<path d="M16.1364 11H18C18.5523 11 19 10.5523 19 10V7.76697L16.1364 11Z" fill="#0000CC"/>
</svg>
