<svg width="24" height="24" viewBox="0 0 24 24" fill="none" xmlns="http://www.w3.org/2000/svg">
<path opacity="0.3" d="M8.99987 2C8.00402 2 7.20536 2.3405 6.60113 2.87759C5.96924 3.43927 5.56406 4.19537 5.31738 5H13.4576C13.579 4.7634 13.7329 4.54752 13.9299 4.37241C14.7694 3.62614 16.1003 4.07855 16.8502 4.71947C17.7943 5.52641 18.9999 7.4377 18.9999 12C18.9999 16.5623 17.7943 18.4736 16.8502 19.2805C16.101 19.9209 14.7691 20.3735 13.9299 19.6276C13.7329 19.4525 13.579 19.2366 13.4576 19H5.31738C5.56406 19.8046 5.96924 20.5607 6.60113 21.1224C7.20536 21.6595 8.00402 22 8.99987 22H14.9999C16.1601 22 17.2687 21.5537 18.1496 20.8009C19.7054 19.4711 20.9999 16.8841 20.9999 12C20.9999 7.11587 19.7054 4.52886 18.1496 3.19911C16.8185 2.06149 15.4637 1.99094 15.0393 2.00076C15.0393 2.00076 11.0079 2 8.99987 2Z" fill="#0000CC"/>
<path fill-rule="evenodd" clip-rule="evenodd" d="M3.32698 7.63803C3 8.27976 3 9.11984 3 10.8V13.2C3 14.8802 3 15.7202 3.32698 16.362C3.6146 16.9265 4.07354 17.3854 4.63803 17.673C5.27976 18 6.11984 18 7.8 18H10.2C11.8802 18 12.7202 18 13.362 17.673C13.9265 17.3854 14.3854 16.9265 14.673 16.362C15 15.7202 15 14.8802 15 13.2V10.8C15 9.11984 15 8.27976 14.673 7.63803C14.3854 7.07354 13.9265 6.6146 13.362 6.32698C12.7202 6 11.8802 6 10.2 6H7.8C6.11984 6 5.27976 6 4.63803 6.32698C4.07354 6.6146 3.6146 7.07354 3.32698 7.63803ZM9 9C9.55229 9 10 9.44771 10 10V11.5858L11.2071 12.7929C11.5976 13.1834 11.5976 13.8166 11.2071 14.2071C10.8166 14.5976 10.1834 14.5976 9.79289 14.2071L8.29289 12.7071C8.10536 12.5196 8 12.2652 8 12V10C8 9.44771 8.44771 9 9 9Z" fill="#0000CC"/>
</svg>
