<svg width="24" height="24" viewBox="0 0 24 24" fill="none" xmlns="http://www.w3.org/2000/svg">
<g opacity="0.3">
<path d="M8.05116 2.68377C8.18727 2.27543 8.56941 2 8.99984 2H14.9998C15.4303 2 15.8124 2.27543 15.9485 2.68378L16.8764 5.4676C16.8563 5.45689 16.836 5.44635 16.8157 5.43597C16.6763 5.36497 16.5333 5.30564 16.3857 5.25615C15.9568 5.11236 15.4958 5.05456 14.9991 5.02706C14.5101 4.99999 13.9223 5 13.2259 5H10.7735C10.0772 5 9.48935 4.99999 9.00028 5.02706C8.50357 5.05456 8.04267 5.11236 7.61377 5.25614C7.46614 5.30563 7.32311 5.36496 7.18374 5.43597C7.16347 5.4463 7.14331 5.45679 7.12325 5.46745L8.05116 2.68377Z" fill="#0000CC"/>
<path d="M7.12305 18.5324L8.0507 21.3162C8.18679 21.7245 8.56895 22 8.99941 22H14.9994C15.4298 22 15.8119 21.7246 15.9481 21.3163L16.8762 18.5325C16.8562 18.5432 16.836 18.5537 16.8157 18.564C16.6762 18.6351 16.5332 18.6944 16.3855 18.7439C15.9566 18.8877 15.4957 18.9455 14.999 18.9729C14.51 19 13.9222 19 13.2259 19H10.7735C10.0771 19 9.48925 19 9.00017 18.9729C8.50343 18.9454 8.0425 18.8876 7.61357 18.7438C7.46601 18.6943 7.32304 18.635 7.18374 18.564C7.16341 18.5537 7.14317 18.5431 7.12305 18.5324Z" fill="#0000CC"/>
</g>
<path fill-rule="evenodd" clip-rule="evenodd" d="M13.2262 5H10.7738C10.0775 5 9.48964 4.99999 9.00058 5.02706C8.50387 5.05456 8.04297 5.11236 7.61407 5.25614C7.46644 5.30563 7.32341 5.36496 7.18404 5.43597C6.43139 5.81947 5.81947 6.43139 5.43598 7.18404C5.18868 7.66937 5.09012 8.18608 5.04419 8.74817C4.99998 9.28937 4.99999 9.95372 5 10.7587V13.2413C4.99999 14.0463 4.99998 14.7106 5.04419 15.2518C5.09012 15.8139 5.18868 16.3306 5.43598 16.816C5.81947 17.5686 6.43139 18.1805 7.18404 18.564C7.32334 18.635 7.46631 18.6943 7.61387 18.7438C8.0428 18.8876 8.50373 18.9454 9.00047 18.9729C9.48955 19 10.0774 19 10.7738 19H13.2262C13.9225 19 14.5103 19 14.9993 18.9729C15.496 18.9455 15.9569 18.8877 16.3858 18.7439C16.5335 18.6944 16.6765 18.6351 16.816 18.564C17.5686 18.1805 18.1805 17.5686 18.564 16.816C18.8113 16.3306 18.9099 15.8139 18.9558 15.2518C19 14.7106 19 14.0463 19 13.2413V10.7587C19 9.95374 19 9.28937 18.9558 8.74817C18.9099 8.18608 18.8113 7.66937 18.564 7.18404C18.1805 6.43139 17.5686 5.81947 16.816 5.43597C16.6766 5.36497 16.5336 5.30564 16.386 5.25615C15.9571 5.11236 15.4961 5.05456 14.9994 5.02706C14.5104 4.99999 13.9226 5 13.2262 5ZM13 9.5C13 8.94772 12.5523 8.5 12 8.5C11.4477 8.5 11 8.94772 11 9.5V12C11 12.3148 11.1482 12.6111 11.4 12.8L13.4 14.3C13.8418 14.6314 14.4686 14.5418 14.8 14.1C15.1314 13.6582 15.0418 13.0314 14.6 12.7L13 11.5V9.5Z" fill="#0000CC"/>
</svg>
