<svg width="24" height="24" viewBox="0 0 24 24" fill="none" xmlns="http://www.w3.org/2000/svg">
<path opacity="0.3" fill-rule="evenodd" clip-rule="evenodd" d="M4 10C4 5.58172 7.58172 2 12 2C16.4183 2 20 5.58172 20 10C20 14.4183 16.4183 18 12 18C7.58172 18 4 14.4183 4 10ZM12 6C9.79086 6 8 7.79086 8 10C8 12.2091 9.79086 14 12 14C14.2091 14 16 12.2091 16 10C16 7.79086 14.2091 6 12 6Z" fill="#0000CC"/>
<path d="M12 8C10.8954 8 10 8.89543 10 10C10 11.1046 10.8954 12 12 12C13.1046 12 14 11.1046 14 10C14 8.89543 13.1046 8 12 8Z" fill="#0000CC"/>
<path d="M3.53979 15.3339C5.31128 18.1377 8.43817 19.9999 12 19.9999C15.562 19.9999 18.689 18.1376 20.4604 15.3335C21.0637 16.0381 21.5588 16.6237 21.9102 17.1175C22.292 17.654 22.6341 18.252 22.6508 18.9255C22.6738 19.8531 22.2663 20.7391 21.547 21.3253C21.0248 21.7509 20.3481 21.8803 19.6922 21.9395C19.0246 21.9998 18.1573 21.9998 17.0935 21.9998H6.90696C5.84314 21.9998 4.97581 21.9998 4.30817 21.9395C3.65229 21.8803 2.97552 21.7509 2.45333 21.3253C1.73405 20.7391 1.32653 19.853 1.34956 18.9254C1.36627 18.2519 1.70845 17.6538 2.09033 17.1173C2.44169 16.6237 2.93662 16.0383 3.53979 15.3339Z" fill="#0000CC"/>
</svg>
