<svg width="24" height="24" viewBox="0 0 24 24" fill="none" xmlns="http://www.w3.org/2000/svg">
<path opacity="0.3" fill-rule="evenodd" clip-rule="evenodd" d="M15.2413 2H8.7587C7.95374 1.99999 7.28937 1.99998 6.74818 2.04419C6.18608 2.09012 5.66937 2.18868 5.18404 2.43598C4.43139 2.81947 3.81947 3.43139 3.43598 4.18404C3.18868 4.66937 3.09012 5.18608 3.04419 5.74818C2.99998 6.28937 2.99999 6.95372 3 7.75869V12.2413C2.99999 13.0463 2.99998 13.7106 3.04419 14.2518C3.09012 14.8139 3.18868 15.3306 3.43598 15.816C3.81947 16.5686 4.43139 17.1805 5.18404 17.564C5.66937 17.8113 6.18608 17.9099 6.74818 17.9558C7.28937 18 7.95373 18 8.7587 18H15.2413C16.0462 18 16.7106 18 17.2518 17.9558C17.8139 17.9099 18.3306 17.8113 18.816 17.564C19.5686 17.1805 20.1805 16.5686 20.564 15.816C20.8113 15.3306 20.9099 14.8139 20.9558 14.2518C21 13.7106 21 13.0463 21 12.2413V7.75868C21 6.95372 21 6.28936 20.9558 5.74818C20.9099 5.18608 20.8113 4.66937 20.564 4.18404C20.1805 3.43139 19.5686 2.81947 18.816 2.43598C18.3306 2.18868 17.8139 2.09012 17.2518 2.04419C16.7106 1.99998 16.0463 1.99999 15.2413 2ZM8 10C8 7.79086 9.79086 6 12 6C14.2091 6 16 7.79086 16 10C16 12.2091 14.2091 14 12 14C9.79086 14 8 12.2091 8 10Z" fill="#0000CC"/>
<path d="M10 10C10 8.89543 10.8954 8 12 8C13.1046 8 14 8.89543 14 10C14 11.1046 13.1046 12 12 12C10.8954 12 10 11.1046 10 10Z" fill="#0000CC"/>
<path d="M15.2413 17.9999H14V19.9999H10V17.9999H8.75868C8.49038 17.9999 8.2377 17.9999 8 17.9983V19.9999H7C6.44772 19.9999 6 20.4476 6 20.9999C6 21.5522 6.44772 21.9999 7 21.9999H17C17.5523 21.9999 18 21.5522 18 20.9999C18 20.4476 17.5523 19.9999 17 19.9999H16V17.9983C15.7623 17.9999 15.5096 17.9999 15.2413 17.9999Z" fill="#0000CC"/>
</svg>
