<svg width="24" height="24" viewBox="0 0 24 24" fill="none" xmlns="http://www.w3.org/2000/svg">
<path opacity="0.3" d="M6.38112 5.00684C6.16757 5.01128 5.97104 5.01869 5.79046 5.03101C5.32118 5.06303 4.88708 5.13156 4.46927 5.30463C3.48916 5.7106 2.71046 6.4893 2.30448 7.46941C2.13142 7.88722 2.06288 8.32132 2.03087 8.79061C1.99999 9.24321 1.99999 9.79607 2 10.4659V16.2414C1.99999 17.0464 1.99998 17.7108 2.0442 18.252C2.09012 18.8141 2.18868 19.3308 2.43598 19.8161C2.81947 20.5688 3.43139 21.1807 4.18404 21.5642C4.66937 21.8115 5.18608 21.91 5.74818 21.9559C6.28936 22.0002 6.95372 22.0002 7.75868 22.0001H16.2413C17.0463 22.0002 17.7106 22.0002 18.2518 21.9559C18.8139 21.91 19.3306 21.8115 19.816 21.5642C20.5686 21.1807 21.1805 20.5688 21.564 19.8161C21.8113 19.3308 21.9099 18.8141 21.9558 18.252C22 17.7108 22 17.0464 22 16.2415V10.4659C22 9.79608 22 9.24321 21.9691 8.79061C21.9371 8.32132 21.8686 7.88722 21.6955 7.46941C21.2895 6.4893 20.5108 5.7106 19.5307 5.30463C19.1129 5.13156 18.6788 5.06303 18.2095 5.03101C18.0291 5.0187 17.8327 5.01129 17.6193 5.00684C17.6164 5.11626 17.609 5.22517 17.599 5.33348C17.5658 5.68947 17.4941 6.11948 17.4102 6.62309L17.3812 6.79793C17.2738 7.44752 17.1802 8.01398 16.9145 8.48182C16.5638 9.09931 16.0054 9.57236 15.3386 9.81681C14.8334 10.002 14.2593 10.0012 13.6009 10.0003H10.3995C9.74106 10.0012 9.16693 10.002 8.66177 9.81681C7.99502 9.57236 7.43661 9.09931 7.08588 8.48182C6.82014 8.01398 6.72655 7.44754 6.61923 6.79794L6.59024 6.62321C6.50628 6.11956 6.4346 5.6895 6.40142 5.33348C6.39133 5.22517 6.38393 5.11626 6.38112 5.00684Z" fill="#0000CC"/>
<path d="M10.5066 2H13.4938C14.0044 1.99999 14.4404 1.99998 14.797 2.02579C15.1686 2.05268 15.542 2.11184 15.9007 2.27811C16.7008 2.64892 17.2973 3.35299 17.5315 4.20317C17.6365 4.58439 17.6335 4.9624 17.599 5.33334C17.5658 5.6893 17.4941 6.11934 17.4102 6.6229L17.3812 6.7978C17.2738 7.44739 17.1802 8.01384 16.9145 8.48168C16.5638 9.09917 16.0054 9.57222 15.3386 9.81667C14.8334 10.0019 14.2593 10.0011 13.6009 10.0001L11.0306 10C11.4407 9.98996 11.819 9.72627 11.9554 9.31448L12.9492 6.31448C13.1229 5.79022 12.8386 5.22443 12.3144 5.05076C11.7901 4.87709 11.2243 5.1613 11.0506 5.68557L10.0569 8.68557C9.88319 9.20984 10.1674 9.77563 10.6917 9.9493C10.7879 9.98119 10.8856 9.99764 10.982 10L10.3995 10.0001C9.74106 10.0011 9.16693 10.0019 8.66177 9.81667C7.99502 9.57222 7.43661 9.09917 7.08587 8.48168C6.82014 8.01384 6.72655 7.44739 6.61923 6.79779L6.59024 6.62306C6.50628 6.11941 6.4346 5.68936 6.40142 5.33334C6.36686 4.9624 6.36384 4.58439 6.46887 4.20317C6.7031 3.35299 7.29953 2.64893 8.09964 2.27811C8.45841 2.11184 8.83177 2.05268 9.20334 2.02579C9.55996 1.99998 9.99598 1.99999 10.5066 2Z" fill="#0000CC"/>
<path d="M10 16C9.44772 16 9 16.4477 9 17C9 17.5523 9.44772 18 10 18H14C14.5523 18 15 17.5523 15 17C15 16.4477 14.5523 16 14 16H10Z" fill="#0000CC"/>
</svg>
