<svg width="24" height="24" viewBox="0 0 24 24" fill="none" xmlns="http://www.w3.org/2000/svg">
<path opacity="0.3" d="M21.8198 3.33383C21.8853 3.00597 21.7827 2.66703 21.5463 2.4306C21.3099 2.19418 20.9709 2.09156 20.6431 2.15713L18.0881 2.66812C17.2551 2.83472 16.4901 3.24415 15.8894 3.84482C15.6469 4.08739 15.4355 4.35676 15.2587 4.64659C15.0614 4.4304 14.8324 4.20166 14.5725 3.94206L14.4752 3.84482C13.7083 3.07791 12.4147 3.03468 11.6293 3.87595C11.3868 4.13571 11.1769 4.38614 11.0111 4.67325C10.7518 5.12245 10.5865 5.60949 10.5155 6.10689C9.90897 6.01828 9.26585 6.20632 8.80085 6.70438C8.55834 6.96414 8.34844 7.21457 8.18269 7.50167C7.92334 7.95088 7.75812 8.43791 7.68704 8.93532C7.08055 8.8467 6.43742 9.03474 5.97243 9.53281C5.72992 9.79256 5.52002 10.043 5.35426 10.3301C4.63973 11.5677 4.63973 13.0925 5.35426 14.3301C5.61911 14.7888 6.03699 15.2063 6.59971 15.7684L6.59972 15.7684L6.69682 15.8654L7.40393 16.5725L8.11104 17.2796L8.20851 17.3772C8.77061 17.9399 9.18806 18.3578 9.64679 18.6226C10.8844 19.3372 12.4092 19.3372 13.6468 18.6226C13.9339 18.4569 14.1843 18.247 14.4441 18.0045C14.9421 17.5395 15.1302 16.8963 15.0416 16.2898C15.539 16.2188 16.026 16.0535 16.4752 15.7942C16.7623 15.6284 17.0127 15.4185 17.2725 15.176C17.7706 14.711 17.9586 14.0679 17.87 13.4614C18.3674 13.3903 18.8544 13.2251 19.3036 12.9658C19.5907 12.8 19.8412 12.5901 20.1009 12.3476C20.9422 11.5622 20.899 10.2686 20.1321 9.50167L20.0348 9.40437C19.7752 9.14449 19.5465 8.9155 19.3303 8.71821C19.6201 8.54141 19.8895 8.33003 20.1321 8.08746C20.7327 7.48679 21.1422 6.72176 21.3088 5.88878L21.8198 3.33383Z" fill="#0000CC"/>
<path fill-rule="evenodd" clip-rule="evenodd" d="M16.2071 7.79289C16.5976 8.18341 16.5976 8.81658 16.2071 9.2071L3.87312 21.5412C3.4826 21.9317 2.84944 21.9317 2.45891 21.5412C2.06839 21.1506 2.06838 20.5175 2.45891 20.1269L14.7929 7.7929C15.1834 7.40237 15.8166 7.40237 16.2071 7.79289Z" fill="#0000CC"/>
</svg>
