<svg width="24" height="24" viewBox="0 0 24 24" fill="none" xmlns="http://www.w3.org/2000/svg">
<path opacity="0.3" fill-rule="evenodd" clip-rule="evenodd" d="M12 6C8.41372 6 5.14445 7.34716 2.66692 9.5646C2.2554 9.93293 1.6232 9.89791 1.25487 9.48638C0.886548 9.07485 0.921569 8.44266 1.3331 8.07433C4.16313 5.54138 7.90276 4 12 4C16.0973 4 19.8369 5.54138 22.6669 8.07433C23.0784 8.44266 23.1135 9.07485 22.7451 9.48638C22.3768 9.89791 21.7446 9.93293 21.3331 9.5646C18.8556 7.34716 15.5863 6 12 6ZM12 11C9.66816 11 7.54545 11.8855 5.94612 13.3403C5.53757 13.7119 4.90512 13.682 4.53349 13.2734C4.16186 12.8649 4.1918 12.2324 4.60035 11.8608C6.55345 10.0842 9.15128 9 12 9C14.8487 9 17.4466 10.0842 19.3997 11.8608C19.8082 12.2324 19.8382 12.8649 19.4665 13.2734C19.0949 13.682 18.4624 13.7119 18.0539 13.3403C16.4546 11.8855 14.3319 11 12 11Z" fill="#0000CC"/>
<path d="M12.0001 16C10.9634 16 10.0208 16.3931 9.30961 17.04C8.90107 17.4116 8.26861 17.3817 7.89698 16.9732C7.52536 16.5646 7.55529 15.9322 7.96384 15.5605C9.02883 14.5918 10.4465 14 12.0001 14C13.5537 14 14.9714 14.5918 16.0364 15.5605C16.4449 15.9322 16.4749 16.5646 16.1032 16.9732C15.7316 17.3817 15.0992 17.4116 14.6906 17.04C13.9794 16.3931 13.0368 16 12.0001 16Z" fill="#0000CC"/>
<path d="M11.0001 20C11.0001 19.4477 11.4478 19 12.0001 19H12.0101C12.5624 19 13.0101 19.4477 13.0101 20C13.0101 20.5523 12.5624 21 12.0101 21H12.0001C11.4478 21 11.0001 20.5523 11.0001 20Z" fill="#0000CC"/>
</svg>
