<svg width="24" height="24" viewBox="0 0 24 24" fill="none" xmlns="http://www.w3.org/2000/svg">
<path opacity="0.3" d="M2.66692 9.5646C5.14445 7.34716 8.41372 6 12 6C15.5863 6 18.8556 7.34716 21.3331 9.5646C21.7446 9.93293 22.3768 9.89791 22.7451 9.48638C23.1135 9.07485 23.0784 8.44266 22.6669 8.07433C19.8369 5.54138 16.0973 4 12 4C7.90276 4 4.16313 5.54138 1.3331 8.07433C0.921569 8.44266 0.886548 9.07485 1.25487 9.48638C1.6232 9.89791 2.2554 9.93293 2.66692 9.5646Z" fill="#0000CC"/>
<path d="M5.94633 13.3403C7.54566 11.8855 9.66837 11 12.0002 11C14.3321 11 16.4548 11.8855 18.0541 13.3403C18.4627 13.7119 19.0951 13.682 19.4667 13.2734C19.8384 12.8649 19.8084 12.2324 19.3999 11.8608C17.4468 10.0842 14.849 9 12.0002 9C9.15148 9 6.55366 10.0842 4.60056 11.8608C4.19201 12.2324 4.16207 12.8649 4.5337 13.2734C4.90533 13.682 5.53778 13.7119 5.94633 13.3403Z" fill="#0000CC"/>
<path d="M9.30983 17.04C10.021 16.3931 10.9636 16 12.0003 16C13.037 16 13.9796 16.3931 14.6908 17.04C15.0994 17.4116 15.7318 17.3817 16.1035 16.9732C16.4751 16.5646 16.4451 15.9322 16.0366 15.5605C14.9716 14.5918 13.5539 14 12.0003 14C10.4467 14 9.02904 14.5918 7.96405 15.5605C7.5555 15.9322 7.52557 16.5646 7.89719 16.9732C8.26882 17.3817 8.90128 17.4116 9.30983 17.04Z" fill="#0000CC"/>
<path d="M12.0003 19C11.448 19 11.0003 19.4477 11.0003 20C11.0003 20.5523 11.448 21 12.0003 21H12.0103C12.5626 21 13.0103 20.5523 13.0103 20C13.0103 19.4477 12.5626 19 12.0103 19H12.0003Z" fill="#0000CC"/>
</svg>
