<svg width="24" height="24" viewBox="0 0 24 24" fill="none" xmlns="http://www.w3.org/2000/svg">
<path opacity="0.3" d="M18 7C17.4078 7 16.8767 7.25615 16.5091 7.66691C16.1407 8.07844 15.5085 8.11346 15.097 7.74514C14.6855 7.37681 14.6505 6.74461 15.0188 6.33309C15.7498 5.51635 16.8153 5 18 5C20.2092 5 22 6.79086 22 9C22 11.2091 20.2092 13 18 13H3C2.44772 13 2 12.5523 2 12C2 11.4477 2.44772 11 3 11H18C19.1046 11 20 10.1046 20 9C20 7.89543 19.1046 7 18 7Z" fill="#0000CC"/>
<path fill-rule="evenodd" clip-rule="evenodd" d="M10 5C9.70393 5 9.43893 5.1274 9.2544 5.33358C8.88607 5.74511 8.25388 5.78013 7.84235 5.4118C7.43082 5.04348 7.3958 4.41128 7.76413 3.99975C8.31202 3.3876 9.11141 3 10 3C11.6569 3 13 4.34315 13 6C13 7.65685 11.6569 9 10 9H3C2.44772 9 2 8.55228 2 8C2 7.44772 2.44772 7 3 7H10C10.5523 7 11 6.55229 11 6C11 5.44771 10.5523 5 10 5ZM2 16C2 15.4477 2.44772 15 3 15H13C14.6569 15 16 16.3431 16 18C16 19.6569 14.6569 21 13 21C12.1114 21 11.312 20.6124 10.7641 20.0002C10.3958 19.5887 10.4308 18.9565 10.8423 18.5882C11.2539 18.2199 11.8861 18.2549 12.2544 18.6664C12.4389 18.8726 12.7039 19 13 19C13.5523 19 14 18.5523 14 18C14 17.4477 13.5523 17 13 17H3C2.44772 17 2 16.5523 2 16Z" fill="#0000CC"/>
</svg>
