<svg width="24" height="24" viewBox="0 0 24 24" fill="none" xmlns="http://www.w3.org/2000/svg">
<path opacity="0.3" fill-rule="evenodd" clip-rule="evenodd" d="M11.3689 2.22426C11.7365 1.92525 12.2635 1.92525 12.6311 2.22426L14.0436 3.37331L15.8414 3.08446C16.3092 3.00929 16.7656 3.27277 16.9344 3.71551L17.5831 5.41688L19.2845 6.06562C19.7272 6.23444 19.9907 6.6908 19.9155 7.15864L19.6267 8.95644L20.7757 10.3689C21.0748 10.7365 21.0748 11.2635 20.7757 11.6311L19.6267 13.0436L19.9155 14.8414C19.9907 15.3092 19.7272 15.7656 19.2845 15.9344L17.9238 16.4532C17.8201 16.0884 17.6136 15.7567 17.3236 15.5007C16.8935 15.121 16.3212 14.9443 15.7519 15.0155L12 15.4844L8.24807 15.0155C7.67884 14.9443 7.10646 15.121 6.67639 15.5007C6.38637 15.7567 6.1799 16.0884 6.07619 16.4532L4.71551 15.9344C4.27277 15.7656 4.00929 15.3092 4.08446 14.8414L4.37331 13.0436L3.22426 11.6311C2.92525 11.2635 2.92525 10.7365 3.22426 10.3689L4.37331 8.95644L4.08446 7.15864C4.00929 6.6908 4.27277 6.23444 4.71551 6.06562L6.41688 5.41688L7.06562 3.71551C7.23444 3.27277 7.6908 3.00929 8.15864 3.08446L9.95644 3.37331L11.3689 2.22426ZM11.3689 7.22426C11.7365 6.92525 12.2635 6.92525 12.6311 7.22426L12.9436 7.4785L13.3414 7.41459C13.8092 7.33942 14.2656 7.6029 14.4344 8.04564L14.5779 8.42208L14.9544 8.56562C15.3971 8.73444 15.6606 9.1908 15.5854 9.65864L15.5215 10.0564L15.7757 10.3689C16.0748 10.7365 16.0748 11.2635 15.7757 11.6311L15.5215 11.9436L15.5854 12.3414C15.6606 12.8092 15.3971 13.2656 14.9544 13.4344L14.5779 13.5779L14.4344 13.9544C14.2656 14.3971 13.8092 14.6606 13.3414 14.5854L12.9436 14.5215L12.6311 14.7757C12.2635 15.0748 11.7365 15.0748 11.3689 14.7757L11.0564 14.5215L10.6586 14.5854C10.1908 14.6606 9.73444 14.3971 9.56562 13.9544L9.42208 13.5779L9.04564 13.4344C8.6029 13.2656 8.33942 12.8092 8.41459 12.3414L8.4785 11.9436L8.22426 11.6311C7.92525 11.2635 7.92525 10.7365 8.22426 10.3689L8.4785 10.0564L8.41459 9.65864C8.33942 9.1908 8.6029 8.73444 9.04564 8.56562L9.42208 8.42208L9.56562 8.04564C9.73444 7.6029 10.1908 7.33942 10.6586 7.41459L11.0564 7.4785L11.3689 7.22426Z" fill="#0000CC"/>
<path d="M11.971 9.3126L12 9.28906L12.0289 9.3126C12.25 9.49243 12.5372 9.5694 12.8186 9.5242L12.8554 9.51828L12.8687 9.55314C12.9702 9.8194 13.1805 10.0297 13.4468 10.1312L13.4817 10.1445L13.4757 10.1813C13.4305 10.4627 13.5075 10.75 13.6873 10.971L13.7109 11L13.6873 11.0289C13.5075 11.25 13.4305 11.5372 13.4757 11.8186L13.4817 11.8554L13.4468 11.8687C13.1805 11.9702 12.9702 12.1805 12.8687 12.4468L12.8554 12.4817L12.8186 12.4757C12.5372 12.4305 12.25 12.5075 12.0289 12.6873L12 12.7109L11.971 12.6873C11.75 12.5075 11.4627 12.4305 11.1813 12.4757L11.1445 12.4817L11.1312 12.4468C11.0297 12.1805 10.8194 11.9702 10.5531 11.8687L10.5183 11.8554L10.5242 11.8186C10.5694 11.5372 10.4924 11.25 10.3126 11.0289L10.2891 11L10.3126 10.971C10.4924 10.75 10.5694 10.4627 10.5242 10.1813L10.5183 10.1445L10.5531 10.1312C10.8194 10.0297 11.0297 9.8194 11.1312 9.55314L11.1445 9.51828L11.1813 9.5242C11.4627 9.5694 11.75 9.49243 11.971 9.3126Z" fill="#0000CC"/>
<path d="M8.12403 16.0077C7.83942 15.9721 7.55323 16.0605 7.3382 16.2503C7.12317 16.4401 7 16.7131 7 17V21C7 21.2868 7.12317 21.5598 7.3382 21.7497C7.55323 21.9395 7.83942 22.0278 8.12403 21.9923L12 21.5078L15.876 21.9923C16.1606 22.0278 16.4468 21.9395 16.6618 21.7497C16.8768 21.5598 17 21.2868 17 21V17C17 16.7131 16.8768 16.4401 16.6618 16.2503C16.4468 16.0605 16.1606 15.9721 15.876 16.0077L12 16.4922L8.12403 16.0077Z" fill="#0000CC"/>
</svg>
