<svg width="24" height="24" viewBox="0 0 24 24" fill="none" xmlns="http://www.w3.org/2000/svg">
<path opacity="0.3" d="M4 3C3.62864 3 3.28787 3.20579 3.11498 3.53445C2.94209 3.86311 2.96557 4.26051 3.17596 4.56653L14.176 20.5665C14.3625 20.8379 14.6707 21 15 21H20C20.3714 21 20.7121 20.7942 20.885 20.4655C21.0579 20.1369 21.0344 19.7395 20.824 19.4335L9.82404 3.43347C9.63749 3.16212 9.3293 3 9 3H4Z" fill="#0000CC"/>
<path fill-rule="evenodd" clip-rule="evenodd" d="M20.7065 3.29296C21.097 3.68352 21.0969 4.31669 20.7063 4.70717L14.2051 11.2072C13.8145 11.5977 13.1814 11.5976 12.7909 11.207C12.4004 10.8165 12.4004 10.1833 12.791 9.79283L19.2923 3.29283C19.6828 2.90234 20.316 2.9024 20.7065 3.29296Z" fill="#0000CC"/>
<path fill-rule="evenodd" clip-rule="evenodd" d="M11.2071 12.7929C11.5976 13.1834 11.5976 13.8166 11.2071 14.2071L4.70711 20.7071C4.31658 21.0976 3.68342 21.0976 3.29289 20.7071C2.90237 20.3166 2.90237 19.6834 3.29289 19.2929L9.79289 12.7929C10.1834 12.4024 10.8166 12.4024 11.2071 12.7929Z" fill="#0000CC"/>
</svg>
