<svg width="24" height="24" viewBox="0 0 24 24" fill="none" xmlns="http://www.w3.org/2000/svg">
<path opacity="0.3" d="M14.8459 4.12924C16.4276 4.26409 18.4714 4.54667 20.0609 5.16433L20.0707 5.16812C20.424 5.30968 20.7377 5.53396 20.9864 5.8213C21.234 6.10733 21.4103 6.44778 21.5016 6.8144C21.7287 7.70144 22 9.32106 22 12C22 14.6801 21.7285 16.302 21.5011 17.1875C21.4088 17.5533 21.232 17.8928 20.9841 18.1779C20.7354 18.4639 20.4222 18.6869 20.0698 18.8278L20.0621 18.8308C18.4723 19.451 16.4281 19.7347 14.8462 19.8702C14.0424 19.939 13.3328 19.9713 12.8235 19.9866C12.5686 19.9942 12.3631 19.9975 12.2202 19.999C12.1488 19.9997 12.0929 19.9999 12.0543 20L12.0096 20L11.9993 19.9999H11.9973L11.987 20L11.9422 20C11.9036 19.9999 11.8478 19.9997 11.7763 19.999C11.6335 19.9975 11.428 19.9942 11.173 19.9866C10.6638 19.9713 9.95412 19.939 9.15034 19.8702C7.56849 19.7347 5.52429 19.451 3.9344 18.8308L3.92394 18.8267C3.57263 18.6851 3.26067 18.4616 3.01305 18.1757C2.76629 17.8908 2.59035 17.5518 2.4987 17.1866C2.27152 16.2998 2 14.68 2 12C2 9.31964 2.2716 7.69999 2.49463 6.82013C2.58584 6.45299 2.7622 6.11205 3.01011 5.82568C3.25885 5.53833 3.57259 5.31411 3.92588 5.17255L3.93439 5.16914C5.52427 4.54893 7.56849 4.26523 9.15034 4.12982C9.95412 4.06101 10.6638 4.02863 11.173 4.01341C11.428 4.00579 11.6335 4.00244 11.7763 4.00101C11.8478 4.0003 11.9036 4.00006 11.9422 4L11.987 4.00002L11.9973 4.00006H11.9993L12.0096 4.00002L12.0543 4C12.0929 4.00005 12.1487 4.00029 12.2202 4.001C12.363 4.00243 12.5685 4.00575 12.8234 4.01333C13.3326 4.02849 14.0422 4.06072 14.8459 4.12924Z" fill="#0000CC"/>
<path fill-rule="evenodd" clip-rule="evenodd" d="M10.5528 9.60558C10.8916 9.43619 11.297 9.47274 11.6 9.70001L13.6 11.2C13.8518 11.3889 14 11.6852 14 12C14 12.3148 13.8518 12.6112 13.6 12.8L11.6 14.3C11.297 14.5273 10.8916 14.5638 10.5528 14.3944C10.214 14.225 10 13.8788 10 13.5V10.5C10 10.1212 10.214 9.77497 10.5528 9.60558Z" fill="#0000CC"/>
</svg>
