<svg width="24" height="24" viewBox="0 0 24 24" fill="none" xmlns="http://www.w3.org/2000/svg">
<path fill-rule="evenodd" clip-rule="evenodd" d="M8.6486 4.93629C6.67028 4.19442 5.45717 4.40038 4.92865 4.9289C4.40014 5.45741 4.19418 6.67052 4.93605 8.64884C5.11917 9.13715 5.35262 9.64813 5.63402 10.1733C6.26258 9.35313 6.97357 8.54084 7.75708 7.75732C8.54059 6.97381 9.35289 6.26282 10.173 5.63427C9.64789 5.35286 9.13691 5.11941 8.6486 4.93629ZM11.9997 4.37725C11.0982 3.82655 10.2059 3.3843 9.35084 3.06363C7.2344 2.26997 4.93854 2.09058 3.51444 3.51468C2.09033 4.93879 2.26973 7.23465 3.06339 9.35109C3.38405 10.2062 3.82631 11.0984 4.37701 12C3.82631 12.9015 3.38405 13.7937 3.06339 14.6488C2.26973 16.7653 2.09033 19.0611 3.51444 20.4852C4.93855 21.9093 7.2344 21.73 9.35084 20.9363C10.2059 20.6156 11.0982 20.1734 11.9997 19.6227C12.9013 20.1734 13.7935 20.6156 14.6486 20.9363C16.765 21.73 19.0609 21.9093 20.485 20.4852C21.9091 19.0611 21.7297 16.7653 20.936 14.6488C20.6154 13.7937 20.1731 12.9015 19.6224 12C20.1731 11.0984 20.6154 10.2062 20.936 9.35109C21.7297 7.23465 21.9091 4.93879 20.485 3.51468C19.0609 2.09058 16.765 2.26997 14.6486 3.06363C13.7935 3.3843 12.9013 3.82655 11.9997 4.37725ZM11.9997 6.77178C11.0557 7.44063 10.0982 8.24465 9.17129 9.17154C8.24441 10.0984 7.44039 11.0559 6.77154 12C7.44039 12.944 8.24441 13.9015 9.17129 14.8284C10.0982 15.7553 11.0557 16.5593 11.9997 17.2281C12.9438 16.5593 13.9013 15.7553 14.8281 14.8284C15.755 13.9015 16.5591 12.944 17.2279 12C16.5591 11.0559 15.755 10.0984 14.8281 9.17154C13.9013 8.24465 12.9438 7.44063 11.9997 6.77178ZM18.3654 10.1732C17.7369 9.35313 17.0259 8.54084 16.2424 7.75732C15.4588 6.97381 14.6466 6.26282 13.8264 5.63427C14.3516 5.35286 14.8625 5.11941 15.3508 4.93629C17.3292 4.19442 18.5423 4.40038 19.0708 4.9289C19.5993 5.45741 19.8053 6.67052 19.0634 8.64884C18.8803 9.13715 18.6468 9.64813 18.3654 10.1732ZM18.3654 13.8267C17.7369 14.6468 17.0259 15.4591 16.2424 16.2426C15.4588 17.0261 14.6466 17.7371 13.8264 18.3657C14.3516 18.6471 14.8625 18.8805 15.3508 19.0636C17.3292 19.8055 18.5423 19.5995 19.0708 19.071C19.5993 18.5425 19.8053 17.3294 19.0634 15.3511C18.8803 14.8628 18.6468 14.3518 18.3654 13.8267ZM10.173 18.3657C9.35289 17.7371 8.54059 17.0261 7.75708 16.2426C6.97357 15.4591 6.26258 14.6468 5.63402 13.8267C5.35262 14.3518 5.11917 14.8628 4.93605 15.3511C4.19418 17.3294 4.40014 18.5425 4.92865 19.071C5.45717 19.5995 6.67028 19.8055 8.6486 19.0636C9.13691 18.8805 9.64789 18.6471 10.173 18.3657ZM9.99972 12C9.99972 10.8954 10.8952 9.99996 11.9997 9.99996C13.1043 9.99996 13.9997 10.8954 13.9997 12C13.9997 13.1045 13.1043 14 11.9997 14C10.8952 14 9.99972 13.1045 9.99972 12Z" fill="#0000CC"/>
</svg>
