<svg width="24" height="24" viewBox="0 0 24 24" fill="none" xmlns="http://www.w3.org/2000/svg">
<path fill-rule="evenodd" clip-rule="evenodd" d="M12.032 2H11.968C11.5294 1.99999 11.1509 1.99998 10.8376 2.02135C10.5078 2.04386 10.1779 2.09336 9.85195 2.22836C9.11687 2.53285 8.53285 3.11687 8.22836 3.85195C8.09336 4.17788 8.04386 4.50779 8.02135 4.83762C8.01487 4.93268 8.01035 5.03374 8.00721 5.14066C7.55049 5.21796 7.12886 5.34176 6.73005 5.54497C5.78924 6.02434 5.02434 6.78924 4.54497 7.73005C4.24318 8.32234 4.11737 8.96253 4.05782 9.69138C3.99999 10.3992 3.99999 11.2734 4 12.3571V17.8385C3.99998 18.3657 3.99997 18.8205 4.03057 19.195C4.06287 19.5904 4.13419 19.9836 4.32698 20.362C4.6146 20.9265 5.07354 21.3854 5.63803 21.673C6.01641 21.8658 6.40963 21.9371 6.80497 21.9694C7.14075 21.9969 7.54097 21.9997 8 22V13C8 12.4477 8.44772 12 9 12H15C15.5523 12 16 12.4477 16 13V22C16.459 21.9997 16.8593 21.9969 17.195 21.9694C17.5904 21.9371 17.9836 21.8658 18.362 21.673C18.9265 21.3854 19.3854 20.9265 19.673 20.362C19.8658 19.9836 19.9371 19.5904 19.9694 19.195C20 18.8205 20 18.3658 20 17.8386V12.3572C20 11.2734 20 10.3993 19.9422 9.69138C19.8826 8.96253 19.7568 8.32234 19.455 7.73005C18.9757 6.78924 18.2108 6.02434 17.27 5.54497C16.8711 5.34176 16.4495 5.21796 15.9928 5.14067C15.9897 5.03374 15.9851 4.93268 15.9787 4.83762C15.9561 4.50779 15.9066 4.17788 15.7716 3.85195C15.4672 3.11687 14.8831 2.53285 14.1481 2.22836C13.8221 2.09336 13.4922 2.04386 13.1624 2.02135C12.8491 1.99998 12.4706 1.99999 12.032 2ZM11.3698 5C10.875 5 10.4246 5 10.0147 5.00532L10.0167 4.97376C10.0323 4.74576 10.0589 4.65893 10.0761 4.61732C10.1776 4.37229 10.3723 4.17762 10.6173 4.07612C10.6589 4.05889 10.7458 4.03227 10.9738 4.01671C11.2107 4.00054 11.5204 4 12 4C12.4796 4 12.7893 4.00054 13.0262 4.01671C13.2542 4.03227 13.3411 4.05889 13.3827 4.07612C13.6277 4.17762 13.8224 4.37229 13.9239 4.61732C13.9411 4.65893 13.9677 4.74576 13.9833 4.97376L13.9853 5.00532C13.5754 5 13.125 5 12.6302 5H11.3698ZM9 8C8.44772 8 8 8.44772 8 9C8 9.55229 8.44772 10 9 10H15C15.5523 10 16 9.55229 16 9C16 8.44772 15.5523 8 15 8H9Z" fill="#0000CC"/>
<path d="M14 22V18H10V22H14Z" fill="#0000CC"/>
<path d="M14 16H10V14H14V16Z" fill="#0000CC"/>
</svg>
