<svg width="24" height="24" viewBox="0 0 24 24" fill="none" xmlns="http://www.w3.org/2000/svg">
<path d="M5.2 3H8.3C9.4201 3 9.98016 3 10.408 3.21799C10.7843 3.40973 11.0903 3.71569 11.282 4.09202C11.5 4.51984 11.5 5.0799 11.5 6.2V21L9.30616 19.5374C9.00658 19.3377 8.85668 19.2378 8.6946 19.167C8.55073 19.1042 8.39997 19.0586 8.24542 19.031C8.07131 19 7.89124 19 7.53112 19H5.2C4.0799 19 3.51984 19 3.09202 18.782C2.71569 18.5903 2.40973 18.2843 2.21799 17.908C2 17.4802 2 16.9201 2 15.8V6.2C2 5.0799 2 4.51984 2.21799 4.09202C2.40973 3.71569 2.71569 3.40973 3.09202 3.21799C3.51984 3 4.0799 3 5.2 3Z" fill="#0000CC"/>
<path d="M18.8 3H15.7C14.5799 3 14.0198 3 13.592 3.21799C13.2157 3.40973 12.9097 3.71569 12.718 4.09202C12.5 4.51984 12.5 5.0799 12.5 6.2V21L14.6938 19.5374C14.9934 19.3377 15.1433 19.2378 15.3054 19.167C15.4493 19.1042 15.6 19.0586 15.7546 19.031C15.9287 19 16.1088 19 16.4689 19H18.8C19.9201 19 20.4802 19 20.908 18.782C21.2843 18.5903 21.5903 18.2843 21.782 17.908C22 17.4802 22 16.9201 22 15.8V6.2C22 5.0799 22 4.51984 21.782 4.09202C21.5903 3.71569 21.2843 3.40973 20.908 3.21799C20.4802 3 19.9201 3 18.8 3Z" fill="#0000CC"/>
</svg>
