<svg width="24" height="24" viewBox="0 0 24 24" fill="none" xmlns="http://www.w3.org/2000/svg">
<path fill-rule="evenodd" clip-rule="evenodd" d="M12.0001 2C11.4479 2 11.0001 2.44772 11.0001 3V3.14494C9.55439 3.57521 8.50014 4.91449 8.50014 6.5C8.50014 7.39171 8.83395 8.20504 9.38172 8.82233L6.02187 14.2354C5.17787 13.6879 4.41349 13.0276 3.74988 12.2757C3.38441 11.8617 2.75247 11.8223 2.3384 12.1877C1.92433 12.5532 1.88493 13.1851 2.2504 13.5992C3.0423 14.4964 3.95654 15.2837 4.96703 15.9349L2.1505 20.4726C1.85924 20.9419 2.00353 21.5584 2.47277 21.8496C2.94202 22.1409 3.55852 21.9966 3.84978 21.5274L6.72994 16.8871C8.34078 17.6023 10.1242 18 12.0001 18C13.8761 18 15.6595 17.6023 17.2703 16.8871L20.1505 21.5274C20.4418 21.9966 21.0583 22.1409 21.5275 21.8496C21.9967 21.5584 22.141 20.9419 21.8498 20.4726L19.0332 15.9349C20.0437 15.2837 20.958 14.4964 21.7499 13.5992C22.1153 13.1851 22.0759 12.5532 21.6619 12.1877C21.2478 11.8223 20.6159 11.8617 20.2504 12.2757C19.5868 13.0276 18.8224 13.6879 17.9784 14.2354L14.6186 8.82233C15.1663 8.20504 15.5001 7.39171 15.5001 6.5C15.5001 4.91449 14.4459 3.57521 13.0001 3.14494V3C13.0001 2.44772 12.5524 2 12.0001 2ZM12.9197 9.8777L16.2036 15.1685C14.9086 15.7045 13.489 16 12.0001 16C10.5113 16 9.09169 15.7045 7.79663 15.1685L11.0806 9.8777C11.374 9.95745 11.6824 10 12.0001 10C12.3178 10 12.6263 9.95745 12.9197 9.8777Z" fill="#0000CC"/>
</svg>
