<svg width="24" height="24" viewBox="0 0 24 24" fill="none" xmlns="http://www.w3.org/2000/svg">
<path fill-rule="evenodd" clip-rule="evenodd" d="M11.5181 3.62378C11.8182 3.45874 12.1818 3.45874 12.4819 3.62378L22.4819 9.12378C22.8015 9.29954 23 9.63531 23 10C23 10.3647 22.8015 10.7005 22.4819 10.8762L19 12.7913V17.5C19 18.2139 18.5651 18.7348 18.1475 19.0639C17.7186 19.4019 17.16 19.6625 16.5589 19.8629C15.3462 20.2671 13.7344 20.5 12 20.5C10.2656 20.5 8.65384 20.2671 7.44113 19.8629C6.84 19.6625 6.2814 19.4019 5.85254 19.0639C5.43495 18.7348 5 18.2139 5 17.5V12.7913L3 11.6913V16C3 16.5523 2.55228 17 2 17C1.44772 17 1 16.5523 1 16V10C1 9.63531 1.19853 9.29954 1.51808 9.12378L11.5181 3.62378ZM7 15.2988V12.5884C7.01035 12.5773 7.02437 12.5633 7.04297 12.5467C7.10033 12.4954 7.18815 12.4311 7.31495 12.359C7.57106 12.2135 7.93572 12.0648 8.40638 11.9326C9.34564 11.6688 10.6004 11.5 12 11.5C13.3996 11.5 14.6544 11.6688 15.5936 11.9326C16.0643 12.0648 16.4289 12.2135 16.6851 12.359C16.8118 12.4311 16.8997 12.4954 16.957 12.5467C16.9756 12.5633 16.9896 12.5773 17 12.5884V15.2988C16.8565 15.241 16.709 15.1872 16.5589 15.1371C15.3462 14.7329 13.7344 14.5 12 14.5C10.2656 14.5 8.65384 14.7329 7.44113 15.1371C7.29098 15.1872 7.14348 15.241 7 15.2988ZM15.9264 17.0345C16.4031 17.1934 16.7206 17.3608 16.9006 17.5C16.7206 17.6392 16.4031 17.8066 15.9264 17.9655C14.9675 18.2852 13.5793 18.5 12 18.5C10.4207 18.5 9.03245 18.2852 8.07359 17.9655C7.59686 17.8066 7.27937 17.6392 7.09935 17.5C7.27937 17.3608 7.59686 17.1934 8.07359 17.0345C9.03245 16.7148 10.4207 16.5 12 16.5C13.5793 16.5 14.9675 16.7148 15.9264 17.0345Z" fill="#0000CC"/>
</svg>
