<svg width="24" height="24" viewBox="0 0 24 24" fill="none" xmlns="http://www.w3.org/2000/svg">
<path d="M11.5528 3.10557C11.8343 2.96481 12.1657 2.96481 12.4472 3.10557L22.4279 8.09589C22.2981 8.0344 22.1531 8 22 8H12C11.4477 8 11 8.44772 11 9C11 9.55228 11.4477 10 12 10H22C22.5523 10 23 9.55228 23 9V17C23 17.5523 22.5523 18 22 18C21.4477 18 21 17.5523 21 17V10.618L12.4472 14.8944C12.1657 15.0352 11.8343 15.0352 11.5528 14.8944L1.55279 9.89443C1.214 9.72504 1 9.37877 1 9C1 8.62123 1.214 8.27496 1.55279 8.10557L11.5528 3.10557Z" fill="#0000CC"/>
<path d="M10.6584 16.6832L5.43063 14.0694L5.13429 16.7364C5.01103 17.8458 5.59238 18.9144 6.59074 19.4136C9.99595 21.1162 14.0041 21.1162 17.4093 19.4136C18.4077 18.9144 18.989 17.8458 18.8658 16.7364L18.5694 14.0693L13.3416 16.6832C12.4971 17.1055 11.5029 17.1055 10.6584 16.6832Z" fill="#0000CC"/>
</svg>
