<svg width="24" height="24" viewBox="0 0 24 24" fill="none" xmlns="http://www.w3.org/2000/svg">
<path fill-rule="evenodd" clip-rule="evenodd" d="M10 3C10 2.44772 9.55229 2 9 2C8.44772 2 8 2.44774 8 3.00003C7.54097 3.00031 7.14075 3.00314 6.80497 3.03057C6.40963 3.06287 6.01641 3.13419 5.63803 3.32698C5.07354 3.6146 4.6146 4.07354 4.32698 4.63803C4.13419 5.01641 4.06287 5.40963 4.03057 5.80497C3.99997 6.17953 3.99998 6.63428 4 7.16142V17.8385C3.99998 18.3657 3.99997 18.8205 4.03057 19.195C4.06287 19.5904 4.13419 19.9836 4.32698 20.362C4.6146 20.9265 5.07355 21.3854 5.63803 21.673C6.01641 21.8658 6.40963 21.9371 6.80497 21.9694C7.17954 22 7.6343 22 8.16144 22H15.8386C16.3657 22 16.8205 22 17.195 21.9694C17.5904 21.9371 17.9836 21.8658 18.362 21.673C18.9265 21.3854 19.3854 20.9265 19.673 20.362C19.8658 19.9836 19.9371 19.5904 19.9694 19.195C20 18.8205 20 18.3657 20 17.8386V7.16148C20 6.63437 20 6.17952 19.9694 5.80497C19.9371 5.40963 19.8658 5.01641 19.673 4.63803C19.3854 4.07354 18.9265 3.6146 18.362 3.32698C17.9836 3.13419 17.5904 3.06287 17.195 3.03057C16.8593 3.00314 16.459 3.00028 16 3C16 2.44772 15.5523 2 15 2C14.4477 2 14 2.44772 14 3H13C13 2.44772 12.5523 2 12 2C11.4477 2 11 2.44772 11 3H10ZM8 7C7.44772 7 7 7.44772 7 8C7 8.55228 7.44772 9 8 9H14C14.5523 9 15 8.55228 15 8C15 7.44772 14.5523 7 14 7H8ZM8 11C7.44772 11 7 11.4477 7 12C7 12.5523 7.44772 13 8 13H16C16.5523 13 17 12.5523 17 12C17 11.4477 16.5523 11 16 11H8Z" fill="#0000CC"/>
</svg>
