<svg width="24" height="24" viewBox="0 0 24 24" fill="none" xmlns="http://www.w3.org/2000/svg">
<path d="M6.80337 3H17.1967C17.6593 2.99998 18.0721 2.99996 18.4147 3.03145C18.7832 3.06532 19.1623 3.14157 19.5266 3.35042C20.0567 3.65426 20.4666 4.12626 20.7172 4.67946C20.8836 5.04696 20.9451 5.42717 20.9732 5.81397C21 6.18398 21 6.63475 21 7.16488V11.7996C20.5255 11.0806 19.8252 10.5239 19 10.2303V7.20001C19 6.62527 18.9994 6.24771 18.9784 5.95885C18.9581 5.67864 18.9226 5.56491 18.8953 5.50459C18.805 5.30514 18.671 5.16522 18.532 5.08557C18.5161 5.07643 18.4561 5.04369 18.2317 5.02306C17.9916 5.00099 17.6719 5.00001 17.1556 5.00001H6.84445C6.32808 5.00001 6.00843 5.00099 5.76834 5.02306C5.54389 5.04369 5.48394 5.07643 5.46799 5.08557C5.32904 5.16522 5.19503 5.30514 5.10469 5.50459C5.07738 5.56491 5.04195 5.67864 5.0216 5.95884C5.00062 6.24771 5 6.62527 5 7.20001V10.2297C4.17511 10.5226 3.47481 11.0787 3 11.7969V7.16488C2.99999 6.63475 2.99998 6.18398 3.02685 5.81398C3.05494 5.42718 3.11639 5.04696 3.28284 4.67946C3.53339 4.12626 3.94331 3.65426 4.47338 3.35042C4.83772 3.14157 5.21682 3.06532 5.58527 3.03145C5.92794 2.99996 6.34079 2.99998 6.80337 3Z" fill="#0000CC"/>
<path d="M6.33914 12C5.23457 12 4.33914 12.8954 4.33914 14C4.33914 15.1046 5.23457 16 6.33914 16C7.44371 16 8.33914 15.1046 8.33914 14C8.33914 12.8954 7.44371 12 6.33914 12Z" fill="#0000CC"/>
<path d="M11.9992 12C10.8946 12 9.99917 12.8954 9.99917 14C9.99917 15.1046 10.8946 16 11.9992 16C13.1037 16 13.9992 15.1046 13.9992 14C13.9992 12.8954 13.1037 12 11.9992 12Z" fill="#0000CC"/>
<path d="M15.6591 14C15.6591 12.8954 16.5545 12 17.6591 12C18.7637 12 19.6591 12.8954 19.6591 14C19.6591 15.1046 18.7637 16 17.6591 16C16.5545 16 15.6591 15.1046 15.6591 14Z" fill="#0000CC"/>
<path d="M2.5672 19.6668C2.38315 20.1875 2.65608 20.7588 3.17679 20.9428C3.27922 20.979 3.3836 20.9976 3.48661 21L20.5 21.0002C20.6069 20.999 20.7154 20.9805 20.8218 20.9428C21.3425 20.7588 21.6155 20.1875 21.4314 19.6668C20.8828 18.1145 19.4025 17 17.6593 17C16.5532 17 15.5529 17.4487 14.8293 18.1733C14.1058 17.4487 13.1055 17 11.9994 17C10.8932 17 9.89292 17.4488 9.16935 18.1734C8.44579 17.4488 7.44549 17 6.33933 17C4.59615 17 3.11584 18.1145 2.5672 19.6668Z" fill="#0000CC"/>
</svg>
