<svg width="24" height="24" viewBox="0 0 24 24" fill="none" xmlns="http://www.w3.org/2000/svg">
<path fill-rule="evenodd" clip-rule="evenodd" d="M7.83855 2H6.16146C5.63434 1.99998 5.17953 1.99997 4.80498 2.03057C4.40963 2.06287 4.01641 2.13419 3.63803 2.32698C3.07355 2.6146 2.6146 3.07355 2.32698 3.63803C2.13419 4.01641 2.06287 4.40963 2.03057 4.80498C1.99997 5.17953 1.99998 5.63427 2 6.16138V17.8385C1.99998 18.3657 1.99997 18.8205 2.03057 19.195C2.06287 19.5904 2.13419 19.9836 2.32698 20.362C2.6146 20.9265 3.07355 21.3854 3.63803 21.673C4.01641 21.8658 4.40963 21.9371 4.80498 21.9694C5.17954 22 5.6343 22 6.16144 22H7.83857C8.36571 22 8.82047 22 9.19503 21.9694C9.59038 21.9371 9.9836 21.8658 10.362 21.673C10.9265 21.3854 11.3854 20.9265 11.673 20.362C11.8658 19.9836 11.9371 19.5904 11.9694 19.195C12 18.8205 12 18.3657 12 17.8386V6.16148C12 5.63434 12 5.17955 11.9694 4.80498C11.9371 4.40963 11.8658 4.01641 11.673 3.63803C11.3854 3.07355 10.9265 2.6146 10.362 2.32698C9.9836 2.13419 9.59038 2.06287 9.19503 2.03057C8.82048 1.99997 8.36566 1.99998 7.83855 2ZM7 18C7.55229 18 8 17.5523 8 17C8 16.4477 7.55229 16 7 16C6.44772 16 6 16.4477 6 17C6 17.5523 6.44772 18 7 18Z" fill="#0000CC"/>
<path d="M12.9788 19.0924L19.6639 12.4073C20.0367 12.0345 20.3583 11.713 20.6015 11.4265C20.8582 11.1241 21.0858 10.7956 21.217 10.3917C21.4128 9.78918 21.4128 9.14014 21.217 8.53761C21.0858 8.13373 20.8582 7.80525 20.6015 7.50286C20.3583 7.21636 20.0367 6.8948 19.6639 6.52206L18.478 5.33619C18.1053 4.96342 17.7837 4.64184 17.4972 4.39862C17.1949 4.14191 16.8664 3.91429 16.4625 3.78306C15.86 3.58729 15.2109 3.58729 14.6084 3.78306C14.2045 3.91429 13.876 4.14191 13.5736 4.39862C13.3916 4.55313 13.1955 4.73925 12.9811 4.95003C13 5.31211 13 5.71684 13 6.13053V17.8695C13 18.2994 13 18.7197 12.9788 19.0924Z" fill="#0000CC"/>
<path d="M11.5723 21.6946L10.8291 21.9999H17.8386C18.3657 22 18.8205 22 19.1951 21.9694C19.5904 21.9371 19.9837 21.8657 20.362 21.673C20.9265 21.3853 21.3855 20.9264 21.6731 20.3619C21.8659 19.9835 21.9372 19.5903 21.9695 19.195C22.0001 18.8204 22.0001 18.3656 22.0001 17.8385V16.1614C22.0001 15.6342 22.0001 15.1795 21.9695 14.8049C21.9372 14.4096 21.8659 14.0163 21.6731 13.638C21.473 13.2453 21.19 12.9036 20.8462 12.6353C20.7006 12.7849 20.5476 12.9378 20.3929 13.0925L12.2265 21.2589C12.0394 21.446 11.817 21.5941 11.5723 21.6946Z" fill="#0000CC"/>
</svg>
