<svg width="24" height="24" viewBox="0 0 24 24" fill="none" xmlns="http://www.w3.org/2000/svg">
<path fill-rule="evenodd" clip-rule="evenodd" d="M6.50029 4C5.12745 4 4.00029 5.12455 4.00029 6.52941C4.00029 7.41182 4.16111 8.14294 4.44578 8.61816C4.69374 9.03211 5.03668 9.27273 5.62529 9.27273H5.70016C5.70776 9.27273 5.71548 9.27272 5.7233 9.27272C5.84246 9.27268 5.98473 9.27262 6.11006 9.28286C6.25527 9.29472 6.4633 9.32515 6.68127 9.43622C6.96352 9.58003 7.19299 9.8095 7.3368 10.0917C7.44785 10.3097 7.47829 10.5177 7.49015 10.6629C7.50039 10.7882 7.50034 10.9305 7.50029 11.0496C7.50029 11.0574 7.50029 11.0651 7.50029 11.0727V12H9.00029V6.52941C9.00029 5.12455 7.87313 4 6.50029 4ZM11.0003 12V6.52941C11.0003 4.03579 8.99344 2 6.50029 2C4.00713 2 2.00029 4.03579 2.00029 6.52941C2.00029 7.59624 2.18546 8.73678 2.73005 9.64591C3.29316 10.586 4.22065 11.2314 5.50029 11.2708V12H4.33362C4.31167 12 4.28912 11.9999 4.26607 11.9999C4.03125 11.9991 3.74344 11.9983 3.48265 12.0681C2.79246 12.2531 2.25337 12.7922 2.06844 13.4824C1.99856 13.7432 1.99943 14.031 2.00015 14.2658C2.00022 14.2888 2.00029 14.3114 2.00029 14.3333C2.00029 14.3895 2.00028 14.4449 2.00026 14.4996C1.99995 15.8897 1.99976 16.7879 2.20473 17.5529C2.75954 19.6235 4.37682 21.2408 6.44737 21.7956C7.21235 22.0005 8.11055 22.0003 9.50069 22C9.55534 22 9.61076 22 9.66695 22H14.3336C14.3898 22 14.4452 22 14.4999 22C15.89 22.0003 16.7882 22.0005 17.5532 21.7956C19.6238 21.2408 21.241 19.6235 21.7958 17.5529C22.0008 16.7879 22.0006 15.8897 22.0003 14.4996C22.0003 14.4449 22.0003 14.3895 22.0003 14.3333C22.0003 14.3114 22.0004 14.2888 22.0004 14.2658C22.0011 14.031 22.002 13.7432 21.9321 13.4824C21.7472 12.7922 21.2081 12.2531 20.5179 12.0681C20.2571 11.9983 19.9693 11.9991 19.7345 11.9999C19.7115 11.9999 19.6889 12 19.667 12H18.5003V11.2708C19.7799 11.2314 20.7074 10.586 21.2705 9.64591C21.8151 8.73678 22.0003 7.59624 22.0003 6.52941C22.0003 4.03579 19.9934 2 17.5003 2C15.0071 2 13.0003 4.03579 13.0003 6.52941V12H11.0003ZM15.0003 12H16.5003V11.0727C16.5003 11.0651 16.5003 11.0574 16.5003 11.0496C16.5002 10.9305 16.5002 10.7882 16.5104 10.6629C16.5223 10.5177 16.5527 10.3097 16.6638 10.0917C16.8076 9.8095 17.0371 9.58003 17.3193 9.43622C17.5373 9.32515 17.7453 9.29472 17.8905 9.28286C18.0158 9.27262 18.1581 9.27268 18.2773 9.27272C18.2851 9.27272 18.2928 9.27273 18.3004 9.27273H18.3753C18.9639 9.27273 19.3068 9.03211 19.5548 8.61816C19.8395 8.14294 20.0003 7.41182 20.0003 6.52941C20.0003 5.12455 18.8731 4 17.5003 4C16.1274 4 15.0003 5.12455 15.0003 6.52941V12ZM6.00029 5C6.55257 5 7.00029 5.44772 7.00029 6V7C7.00029 7.55228 6.55257 8 6.00029 8C5.448 8 5.00029 7.55228 5.00029 7V6C5.00029 5.44772 5.448 5 6.00029 5ZM18.0003 5C18.5526 5 19.0003 5.44772 19.0003 6V7C19.0003 7.55228 18.5526 8 18.0003 8C17.448 8 17.0003 7.55228 17.0003 7V6C17.0003 5.44772 17.448 5 18.0003 5Z" fill="#0000CC"/>
</svg>
