<svg width="24" height="24" viewBox="0 0 24 24" fill="none" xmlns="http://www.w3.org/2000/svg">
<path fill-rule="evenodd" clip-rule="evenodd" d="M3.70711 2.29289C3.31658 1.90237 2.68342 1.90237 2.29289 2.29289C1.90237 2.68342 1.90237 3.31658 2.29289 3.70711L3.82679 5.241C3.7635 5.2666 3.70057 5.29514 3.63803 5.32701C3.07355 5.61463 2.6146 6.07357 2.32698 6.63805C2.13419 7.01643 2.06287 7.40965 2.03057 7.805C1.99997 8.17954 1.99999 8.63427 2 9.16137V16.8386C1.99999 17.3657 1.99997 17.8205 2.03057 18.1951C2.06287 18.5904 2.13419 18.9836 2.32698 19.362C2.6146 19.9265 3.07355 20.3854 3.63803 20.673C4.01641 20.8658 4.40963 20.9372 4.80498 20.9695C5.17954 21.0001 5.6343 21 6.16144 21H17.8386C18.3657 21 18.8205 21.0001 19.195 20.9695C19.303 20.9606 19.4109 20.9489 19.5183 20.9326L20.2929 21.7071C20.6834 22.0976 21.3166 22.0976 21.7071 21.7071C22.0976 21.3166 22.0976 20.6834 21.7071 20.2929L21.3183 19.9041C21.3255 19.8953 21.3327 19.8865 21.3398 19.8776C21.2896 19.8501 21.2413 19.818 21.1955 19.7812L3.70711 2.29289ZM15.3224 16.7366L13.9041 15.3184C13.3862 15.7443 12.7229 16 12 16C10.3431 16 9 14.6569 9 13C9 12.2771 9.25572 11.6138 9.68165 11.0959L8.2634 9.67761C7.47747 10.5609 7 11.7247 7 13C7 15.7614 9.23858 18 12 18C13.2753 18 14.4391 17.5225 15.3224 16.7366Z" fill="#0000CC"/>
<path d="M16.9944 12.7603C16.873 10.1896 14.8104 8.12697 12.2397 8.00564L8.11373 3.87969C8.58884 3.40415 9.21493 3.09737 9.89469 3.01951C10.0665 2.99984 10.2444 2.99992 10.448 3.00001H13.552C13.7556 2.99992 13.9335 2.99984 14.1053 3.01951C14.993 3.12119 15.7892 3.61325 16.2771 4.36175C16.3715 4.5066 16.4511 4.66583 16.542 4.84798L16.5611 4.88615C16.5904 4.94481 16.6056 4.97494 16.617 4.99673L16.6184 4.99938L16.6214 4.99944C16.6461 4.99997 16.6798 5.00003 16.7454 5.00003L17.8386 5.00002C18.3657 5.00001 18.8205 4.99999 19.195 5.0306C19.5904 5.0629 19.9836 5.13421 20.362 5.32701C20.9265 5.61463 21.3854 6.07357 21.673 6.63806C21.8658 7.01643 21.9371 7.40965 21.9694 7.805C22 8.17956 22 8.63432 22 9.16146V16.8386C22 17.1752 22 17.4825 21.9921 17.758L16.9944 12.7603Z" fill="#0000CC"/>
</svg>
