<svg width="24" height="24" viewBox="0 0 24 24" fill="none" xmlns="http://www.w3.org/2000/svg">
<path d="M12 13C12 11.3431 13.3431 10 15 10C16.6569 10 18 11.3431 18 13C18 14.6569 16.6569 16 15 16C13.3431 16 12 14.6569 12 13Z" fill="#0000CC"/>
<path fill-rule="evenodd" clip-rule="evenodd" d="M15.968 2H16.032C16.4706 1.99999 16.8491 1.99998 17.1624 2.02135C17.4922 2.04386 17.8221 2.09336 18.1481 2.22836C18.8831 2.53285 19.4672 3.11687 19.7716 3.85195C19.9066 4.17788 19.9561 4.50779 19.9787 4.83762C19.9859 4.94316 19.9906 5.05611 19.9938 5.17626C20.1178 5.21582 20.2406 5.26516 20.362 5.32698C20.9265 5.6146 21.3854 6.07355 21.673 6.63803C21.8658 7.01641 21.9371 7.40963 21.9694 7.80497C22 8.17954 22 8.6343 22 9.16144V16.8386C22 17.3657 22 17.8205 21.9694 18.195C21.9371 18.5904 21.8658 18.9836 21.673 19.362C21.3854 19.9265 20.9265 20.3854 20.362 20.673C19.9836 20.8658 19.5904 20.9371 19.195 20.9694C18.8205 21 18.3657 21 17.8386 21H8V5L12.0123 5C12.0148 4.94407 12.0178 4.88994 12.0214 4.83762C12.0439 4.50779 12.0934 4.17788 12.2284 3.85195C12.5328 3.11687 13.1169 2.53285 13.852 2.22836C14.1779 2.09336 14.5078 2.04386 14.8376 2.02135C15.1509 1.99998 15.5294 1.99999 15.968 2ZM14.015 5L14.0167 4.97376C14.0323 4.74576 14.0589 4.65893 14.0761 4.61732C14.1776 4.37229 14.3723 4.17762 14.6173 4.07612C14.6589 4.05889 14.7458 4.03227 14.9738 4.01671C15.2107 4.00054 15.5204 4 16 4C16.4796 4 16.7893 4.00054 17.0262 4.01671C17.2542 4.03227 17.3411 4.05889 17.3827 4.07612C17.6277 4.17762 17.8224 4.37229 17.9239 4.61732C17.9411 4.65893 17.9677 4.74576 17.9833 4.97376L17.985 5.00002L14.015 5ZM15 8C12.2386 8 10 10.2386 10 13C10 15.7614 12.2386 18 15 18C17.7614 18 20 15.7614 20 13C20 10.2386 17.7614 8 15 8Z" fill="#0000CC"/>
<path d="M6 5.00003V21C5.54097 20.9997 5.14075 20.9969 4.80498 20.9694C4.40963 20.9371 4.01641 20.8658 3.63803 20.673C3.07355 20.3854 2.6146 19.9265 2.32698 19.362C2.13419 18.9836 2.06287 18.5904 2.03057 18.195C1.99997 17.8205 1.99998 17.3657 2 16.8386V9.16142C1.99998 8.63431 1.99997 8.17953 2.03057 7.80497C2.06287 7.40963 2.13419 7.01641 2.32698 6.63803C2.6146 6.07354 3.07355 5.6146 3.63803 5.32698C4.01641 5.13419 4.40963 5.06287 4.80498 5.03057C5.14075 5.00314 5.54097 5.00031 6 5.00003Z" fill="#0000CC"/>
</svg>
