<svg width="24" height="24" viewBox="0 0 24 24" fill="none" xmlns="http://www.w3.org/2000/svg">
<path d="M13.2422 3.00005C12.8353 2.99967 12.4765 2.99934 12.1281 3.08299C11.822 3.15648 11.5294 3.2777 11.2609 3.44218C10.9554 3.62942 10.702 3.88332 10.4145 4.17131L9.23016 5.35574C8.8506 5.7353 8.77152 5.80528 8.69408 5.85274C8.6046 5.90757 8.50706 5.94797 8.40502 5.97247C8.3167 5.99367 8.2113 6.0001 7.67452 6.0001L6.16146 6.0001C5.63433 6.00008 5.17954 6.00007 4.80498 6.03067C4.40963 6.06297 4.01641 6.13429 3.63803 6.32708C3.07355 6.6147 2.6146 7.07364 2.32698 7.63813C2.13419 8.01651 2.06287 8.40973 2.03057 8.80507C1.99997 9.17962 1.99999 9.63434 2 10.1614V11H7.41605C8.1876 9.2341 9.94968 8 12 8C14.0503 8 15.8124 9.2341 16.584 11H22V7.16154C22 6.6344 22 6.17964 21.9694 5.80507C21.9371 5.40973 21.8658 5.01651 21.673 4.63813C21.3854 4.07364 20.9265 3.6147 20.362 3.32708C19.9836 3.13429 19.5904 3.06297 19.195 3.03067C18.8205 3.00007 18.3657 3.00008 17.8385 3.0001L13.2422 3.00005Z" fill="#0000CC"/>
<path d="M7 13C7 15.7614 9.23858 18 12 18C14.7614 18 17 15.7614 17 13H22V16.8387C22 17.3658 22 17.8206 21.9694 18.1951C21.9371 18.5905 21.8658 18.9837 21.673 19.3621C21.3854 19.9266 20.9265 20.3855 20.362 20.6731C19.9836 20.8659 19.5904 20.9372 19.195 20.9695C18.8205 21.0001 18.3657 21.0001 17.8386 21.0001H6.16144C5.6343 21.0001 5.17954 21.0001 4.80498 20.9695C4.40963 20.9372 4.01641 20.8659 3.63803 20.6731C3.07355 20.3855 2.6146 19.9266 2.32698 19.3621C2.13419 18.9837 2.06287 18.5905 2.03057 18.1951C1.99997 17.8206 1.99999 17.3658 2 16.8387V13H7Z" fill="#0000CC"/>
<path d="M3 3.0001C2.44772 3.0001 2 3.44782 2 4.0001C2 4.55239 2.44772 5.0001 3 5.0001H8C8.55229 5.0001 9 4.55239 9 4.0001C9 3.44782 8.55229 3.0001 8 3.0001H3Z" fill="#0000CC"/>
<path d="M12 16C13.6569 16 15 14.6569 15 13C15 11.3431 13.6569 10 12 10C10.3431 10 9 11.3431 9 13C9 14.6569 10.3431 16 12 16Z" fill="#0000CC"/>
</svg>
