<svg width="24" height="24" viewBox="0 0 24 24" fill="none" xmlns="http://www.w3.org/2000/svg">
<path fill-rule="evenodd" clip-rule="evenodd" d="M9 3C9 2.44772 8.55228 2 8 2C7.44772 2 7 2.44772 7 3V5.57049C6.70169 5.72281 6.42449 5.91865 6.17157 6.17157C5.91865 6.42449 5.72281 6.70169 5.57049 7H3C2.44772 7 2 7.44772 2 8C2 8.55228 2.44772 9 3 9H5.07186C5.02024 9.58021 5.00569 10.2465 5.00159 11H3C2.44772 11 2 11.4477 2 12C2 12.5523 2.44772 13 3 13H5.00159C5.00569 13.7535 5.02024 14.4198 5.07186 15H3C2.44772 15 2 15.4477 2 16C2 16.5523 2.44772 17 3 17H5.57049C5.72281 17.2983 5.91865 17.5755 6.17157 17.8284C6.42449 18.0813 6.70169 18.2772 7 18.4295V21C7 21.5523 7.44772 22 8 22C8.55228 22 9 21.5523 9 21V18.9281C9.58021 18.9798 10.2465 18.9943 11 18.9984V21C11 21.5523 11.4477 22 12 22C12.5523 22 13 21.5523 13 21V18.9984C13.7535 18.9943 14.4198 18.9798 15 18.9281V21C15 21.5523 15.4477 22 16 22C16.5523 22 17 21.5523 17 21V18.4295C17.2983 18.2772 17.5755 18.0813 17.8284 17.8284C18.0813 17.5755 18.2772 17.2983 18.4295 17H21C21.5523 17 22 16.5523 22 16C22 15.4477 21.5523 15 21 15H18.9281C18.9798 14.4198 18.9943 13.7535 18.9984 13H21C21.5523 13 22 12.5523 22 12C22 11.4477 21.5523 11 21 11H18.9984C18.9943 10.2465 18.9798 9.58021 18.9281 9H21C21.5523 9 22 8.55228 22 8C22 7.44772 21.5523 7 21 7H18.4295C18.2772 6.70169 18.0813 6.42449 17.8284 6.17157C17.5755 5.91865 17.2983 5.72281 17 5.57049V3C17 2.44772 16.5523 2 16 2C15.4477 2 15 2.44772 15 3V5.07186C14.4198 5.02024 13.7535 5.00569 13 5.00159V3C13 2.44772 12.5523 2 12 2C11.4477 2 11 2.44772 11 3V5.00159C10.2465 5.00569 9.58021 5.02024 9 5.07186V3ZM11 10C11 10.5523 10.5523 11 10 11C9.44771 11 9 10.5523 9 10C9 9.44771 9.44771 9 10 9C10.5523 9 11 9.44771 11 10ZM15 10C15 10.5523 14.5523 11 14 11C13.4477 11 13 10.5523 13 10C13 9.44771 13.4477 9 14 9C14.5523 9 15 9.44771 15 10ZM15 14C15 14.5523 14.5523 15 14 15C13.4477 15 13 14.5523 13 14C13 13.4477 13.4477 13 14 13C14.5523 13 15 13.4477 15 14ZM11 14C11 14.5523 10.5523 15 10 15C9.44771 15 9 14.5523 9 14C9 13.4477 9.44771 13 10 13C10.5523 13 11 13.4477 11 14Z" fill="#0000CC"/>
</svg>
