<svg width="24" height="24" viewBox="0 0 24 24" fill="none" xmlns="http://www.w3.org/2000/svg">
<path d="M12.5999 4H10.019C10.043 3.60779 10.0968 3.32953 10.2178 3.09202C10.4096 2.71569 10.7155 2.40973 11.0919 2.21799C11.5197 2 12.0797 2 13.1999 2H18.7999C19.92 2 20.48 2 20.9078 2.21799C21.2842 2.40973 21.5901 2.71569 21.7819 3.09202C21.9999 3.51984 21.9999 4.0799 21.9999 5.2V18.8C21.9999 19.9201 21.9999 20.4802 21.7819 20.908C21.5901 21.2843 21.2842 21.5903 20.9078 21.782C20.48 22 19.92 22 18.7999 22H14.7323C14.9025 21.7058 14.9999 21.3643 14.9999 21C14.9999 20.6257 14.8971 20.2755 14.7182 19.976C15.6544 19.9368 16.2859 19.8341 16.8159 19.564C17.5685 19.1805 18.1804 18.5686 18.5639 17.816C18.9999 16.9603 18.9999 15.8402 18.9999 13.6V10.4C18.9999 8.15979 18.9999 7.03968 18.5639 6.18404C18.1804 5.43139 17.5685 4.81947 16.8159 4.43597C15.9602 4 14.8401 4 12.5999 4Z" fill="#0000CC"/>
<path fill-rule="evenodd" clip-rule="evenodd" d="M2.32698 6.63803C2 7.27976 2 8.11984 2 9.8V14.2C2 15.8802 2 16.7202 2.32698 17.362C2.6146 17.9265 3.07354 18.3854 3.63803 18.673C4.27976 19 5.11984 19 6.8 19H9V20H7C6.44772 20 6 20.4477 6 21C6 21.5523 6.44772 22 7 22H13C13.5523 22 14 21.5523 14 21C14 20.4477 13.5523 20 13 20H11V19H13.2C14.8802 19 15.7202 19 16.362 18.673C16.9265 18.3854 17.3854 17.9265 17.673 17.362C18 16.7202 18 15.8802 18 14.2V9.8C18 8.11984 18 7.27976 17.673 6.63803C17.3854 6.07354 16.9265 5.6146 16.362 5.32698C15.7202 5 14.8802 5 13.2 5H6.8C5.11984 5 4.27976 5 3.63803 5.32698C3.07354 5.6146 2.6146 6.07354 2.32698 6.63803ZM4.10899 7.54601C4 7.75992 4 8.03995 4 8.6V16H16V8.6C16 8.03995 16 7.75992 15.891 7.54601C15.7951 7.35785 15.6422 7.20487 15.454 7.10899C15.2401 7 14.9601 7 14.4 7H5.6C5.03995 7 4.75992 7 4.54601 7.10899C4.35785 7.20487 4.20487 7.35785 4.10899 7.54601Z" fill="#0000CC"/>
</svg>
