<svg width="24" height="24" viewBox="0 0 24 24" fill="none" xmlns="http://www.w3.org/2000/svg">
<path fill-rule="evenodd" clip-rule="evenodd" d="M21.9997 18V5.99999C21.9997 5.41774 21.5635 4.98458 20.9997 4.99991C18.575 5.0658 16.148 6.2011 14.5366 7.99999L5.96774 7.99999C5.52909 7.99997 5.1506 7.99996 4.83734 8.02134C4.50751 8.04384 4.1776 8.09335 3.85167 8.22835C3.11659 8.53283 2.53257 9.11685 2.22809 9.85194C2.09308 10.1779 2.04358 10.5078 2.02107 10.8376C1.99397 11.2348 1.99948 11.6021 1.99948 12C1.99947 12.4387 1.9997 12.8491 2.02107 13.1624C2.04358 13.4922 2.09308 13.8221 2.22809 14.148C2.53257 14.8831 3.11659 15.4671 3.85167 15.7716C4.1776 15.9066 4.50751 15.9561 4.83734 15.9786C5.15059 16 5.52906 16 5.96769 16H14.5524C16.2192 17.7549 18.5437 19 20.9997 19C21.552 19 21.9997 18.5523 21.9997 18ZM15.9997 9.36436C17.0375 8.19239 18.4728 7.42972 19.9997 7.12459V16.9086C18.462 16.6278 17.0656 15.7432 15.9997 14.6197V9.36436ZM9 11C8.44772 11 8 11.4477 8 12C8 12.5523 8.44772 13 9 13H11C11.5523 13 12 12.5523 12 12C12 11.4477 11.5523 11 11 11H9Z" fill="#0000CC"/>
</svg>
