<svg width="24" height="24" viewBox="0 0 24 24" fill="none" xmlns="http://www.w3.org/2000/svg">
<path fill-rule="evenodd" clip-rule="evenodd" d="M13.5933 4H10.4071C9.1303 3.99999 8.113 3.99999 7.28841 4.0653C6.4426 4.1323 5.71885 4.27242 5.04682 4.59692C3.9584 5.12248 3.05408 5.96451 2.45231 7.01271C2.08076 7.65992 1.88943 8.37184 1.76234 9.21073C1.63844 10.0286 1.56597 11.0433 1.47501 12.3169L1.22598 15.8033C1.06399 18.071 2.86008 20 5.13365 20C6.29632 20 7.39892 19.4836 8.14325 18.5904L8.51841 18.1402C8.88381 17.7017 8.99363 17.5752 9.10863 17.4773C9.38168 17.2448 9.71223 17.09 10.0657 17.0291C10.2145 17.0034 10.382 17 10.9528 17H13.0476C13.6184 17 13.7859 17.0034 13.9347 17.0291C14.2881 17.09 14.6187 17.2448 14.8917 17.4773C15.0067 17.5752 15.1166 17.7017 15.482 18.1402L15.8571 18.5904C16.6015 19.4836 17.7041 20 18.8667 20C21.1403 20 22.9364 18.071 22.7744 15.8033L22.5254 12.3168C22.4344 11.0433 22.3619 10.0286 22.238 9.21073C22.1109 8.37184 21.9196 7.65992 21.5481 7.01271C20.9463 5.96451 20.042 5.12248 18.9536 4.59692C18.2815 4.27242 17.5578 4.1323 16.712 4.0653C15.8874 3.99999 14.8701 3.99999 13.5933 4ZM8 8C8.55228 8 9 8.44772 9 9V10H10C10.5523 10 11 10.4477 11 11C11 11.5523 10.5523 12 10 12H9V13C9 13.5523 8.55228 14 8 14C7.44772 14 7 13.5523 7 13V12H6C5.44772 12 5 11.5523 5 11C5 10.4477 5.44772 10 6 10H7V9C7 8.44772 7.44772 8 8 8ZM17 10C17 9.44772 17.4477 9 18 9H18.01C18.5623 9 19.01 9.44772 19.01 10C19.01 10.5523 18.5623 11 18.01 11H18C17.4477 11 17 10.5523 17 10ZM15 11C14.4477 11 14 11.4477 14 12C14 12.5523 14.4477 13 15 13H15.01C15.5623 13 16.01 12.5523 16.01 12C16.01 11.4477 15.5623 11 15.01 11H15Z" fill="#0000CC"/>
</svg>
