<svg width="24" height="24" viewBox="0 0 24 24" fill="none" xmlns="http://www.w3.org/2000/svg">
<path d="M2.5 10L4.14776 7.17524C4.8227 6.01819 5.16017 5.43967 5.63026 5.01906C6.04621 4.64689 6.53544 4.36588 7.0665 4.19412C7.66667 4 8.33643 4 9.67596 4H14.324C15.6635 4 16.3333 4 16.9335 4.19412C17.4645 4.36588 17.9537 4.64688 18.3697 5.01904C18.8398 5.43965 19.1772 6.01817 19.8522 7.17521L21.5 10H2.5Z" fill="#0000CC"/>
<path fill-rule="evenodd" clip-rule="evenodd" d="M2 12H22V13.6C22 15.8402 22 16.9603 21.564 17.816C21.1805 18.5686 20.5686 19.1805 19.816 19.564C18.9603 20 17.8402 20 15.6 20H8.4C6.15979 20 5.03969 20 4.18404 19.564C3.43139 19.1805 2.81947 18.5686 2.43597 17.816C2 16.9603 2 15.8402 2 13.6V12ZM15 15C15 14.4477 15.4477 14 16 14H18C18.5523 14 19 14.4477 19 15C19 15.5523 18.5523 16 18 16H16C15.4477 16 15 15.5523 15 15Z" fill="#0000CC"/>
</svg>
