<svg width="24" height="24" viewBox="0 0 24 24" fill="none" xmlns="http://www.w3.org/2000/svg">
<path fill-rule="evenodd" clip-rule="evenodd" d="M16.8385 2H7.16144C6.63431 1.99998 6.17952 1.99997 5.80495 2.03057C5.40961 2.06287 5.01639 2.13419 4.63801 2.32698C4.07352 2.6146 3.61458 3.07354 3.32696 3.63803C3.13417 4.01641 3.06285 4.40963 3.03055 4.80497C2.99995 5.17955 2.99996 5.63431 2.99998 6.16146V11.8385C2.99996 12.3657 2.99995 12.8205 3.03055 13.195C3.06285 13.5904 3.13417 13.9836 3.32696 14.362C3.4923 14.6865 3.71425 14.9761 3.98032 15.2183C3.5404 15.6806 3.23944 16.2835 2.84699 17.0698L2.24492 18.274C2.06908 18.6257 1.90772 18.9483 1.80076 19.2221C1.69061 19.5042 1.578 19.8761 1.63949 20.2923C1.7199 20.8365 2.02093 21.3236 2.47173 21.6389C2.81652 21.8801 3.19955 21.9457 3.50105 21.9733C3.7938 22.0001 4.15453 22 4.54764 22H19.4523C19.8454 22 20.2062 22.0001 20.4989 21.9733C20.8004 21.9457 21.1834 21.8801 21.5282 21.6389C21.979 21.3236 22.2801 20.8365 22.3605 20.2923C22.422 19.8761 22.3094 19.5042 22.1992 19.2221C22.0922 18.9483 21.9309 18.6256 21.755 18.274L21.153 17.0698C20.7605 16.2835 20.4596 15.6806 20.0196 15.2183C20.2857 14.9761 20.5077 14.6865 20.673 14.362C20.8658 13.9836 20.9371 13.5904 20.9694 13.195C21 12.8205 21 12.3657 21 11.8386V6.16144C21 5.6343 21 5.17954 20.9694 4.80497C20.9371 4.40963 20.8658 4.01641 20.673 3.63803C20.3854 3.07355 19.9264 2.6146 19.362 2.32698C18.9836 2.13419 18.5904 2.06287 18.195 2.03057C17.8204 1.99997 17.3657 1.99998 16.8385 2ZM7.81408 13.9999H16.1859C16.2843 13.9999 16.3802 13.9998 16.4737 14H16.8C17.3765 14 17.7488 13.9992 18.0321 13.9761C18.3038 13.9539 18.4045 13.9162 18.454 13.891C18.6421 13.7951 18.7951 13.6422 18.891 13.454C18.9162 13.4046 18.9539 13.3038 18.9761 13.0322C18.9992 12.7488 19 12.3766 19 11.8V6.2C19 5.62345 18.9992 5.25118 18.9761 4.96784C18.9539 4.69618 18.9162 4.59546 18.891 4.54601C18.7951 4.35785 18.6421 4.20487 18.454 4.109C18.4045 4.0838 18.3038 4.04613 18.0321 4.02393C17.7488 4.00078 17.3765 4 16.8 4H7.19998C6.62343 4 6.25115 4.00078 5.96782 4.02393C5.69615 4.04613 5.59544 4.0838 5.54599 4.109C5.35783 4.20487 5.20485 4.35785 5.10898 4.54601C5.08378 4.59546 5.0461 4.69618 5.02391 4.96784C5.00076 5.25118 4.99998 5.62345 4.99998 6.2V11.8C4.99998 12.3766 5.00076 12.7488 5.02391 13.0322C5.0461 13.3038 5.08378 13.4046 5.10898 13.454C5.20485 13.6422 5.35783 13.7951 5.54599 13.891C5.59543 13.9162 5.69615 13.9539 5.96782 13.9761C6.25115 13.9992 6.62343 14 7.19998 14H7.52631C7.61979 13.9998 7.71565 13.9999 7.81408 13.9999ZM10 17C9.44772 17 9 17.4477 9 18C9 18.5523 9.44772 19 10 19H14C14.5523 19 15 18.5523 15 18C15 17.4477 14.5523 17 14 17H10Z" fill="#0000CC"/>
</svg>
