<svg width="24" height="24" viewBox="0 0 24 24" fill="none" xmlns="http://www.w3.org/2000/svg">
<path d="M5 2C5.55228 2 6 2.44772 6 3V6C6 6.55228 5.55228 7 5 7C4.44771 7 4 6.55228 4 6V3C4 2.44772 4.44771 2 5 2Z" fill="#0000CC"/>
<path d="M4 9C4 8.44772 4.44771 8 5 8H5.01C5.56228 8 6.01 8.44772 6.01 9C6.01 9.55228 5.56228 10 5.01 10H5C4.44771 10 4 9.55228 4 9Z" fill="#0000CC"/>
<path d="M8 3C8 3.68093 8.00105 4.346 8.00246 5H17.8C18.3766 5 18.7488 5.00078 19.0322 5.02393C19.3038 5.04613 19.4045 5.08381 19.454 5.109C19.6422 5.20487 19.7951 5.35785 19.891 5.54601C19.9162 5.59546 19.9539 5.69618 19.9761 5.96784C19.9992 6.25118 20 6.62345 20 7.20001V15L22 15V7.16144C22 6.6343 22 6.17954 21.9694 5.80498C21.9371 5.40963 21.8658 5.01641 21.673 4.63803C21.3854 4.07355 20.9265 3.61461 20.362 3.32699C19.9836 3.13419 19.5904 3.06288 19.195 3.03057C18.8205 2.99997 18.3657 2.99999 17.8386 3H8Z" fill="#0000CC"/>
<path d="M2 15V9.00342C2.00146 10.3082 2.83582 11.4178 4 11.8293V15L2 15Z" fill="#0000CC"/>
<path d="M8.3883 16.0001C8.57821 15.9996 8.81735 15.999 9.05268 16.0555C9.25675 16.1044 9.45184 16.1853 9.63079 16.2949C9.83714 16.4214 10.0058 16.5909 10.1397 16.7256L10.1757 16.7617L10.2385 16.8245C10.3311 16.9171 10.3775 16.9632 10.4126 16.9952L10.4153 16.9976L10.4189 16.9978C10.4664 17 10.5317 17.0002 10.6627 17.0002H13.3373C13.4683 17.0002 13.5336 17 13.5811 16.9978L13.5847 16.9976L13.5874 16.9952C13.6225 16.9631 13.6689 16.9171 13.7615 16.8245L13.8243 16.7617L13.8603 16.7255C13.9942 16.5909 14.1629 16.4214 14.3692 16.2949C14.5482 16.1853 14.7433 16.1044 14.9473 16.0555C15.1827 15.999 15.4218 15.9996 15.6117 16.0001L15.6627 16.0002H22C22.5523 16.0002 23 16.4479 23 17.0002V17.0322C23 17.4708 23 17.8493 22.9787 18.1626C22.9561 18.4924 22.9066 18.8223 22.7716 19.1482C22.4672 19.8833 21.8831 20.4673 21.1481 20.7718C20.8221 20.9068 20.4922 20.9563 20.1624 20.9788C19.8492 21.0002 19.4707 21.0002 19.0321 21.0002H4.96792C4.52935 21.0002 4.15083 21.0002 3.83762 20.9788C3.50779 20.9563 3.17788 20.9068 2.85195 20.7718C2.11687 20.4673 1.53285 19.8833 1.22836 19.1482C1.09336 18.8223 1.04386 18.4924 1.02135 18.1626C0.99998 17.8493 0.999989 17.4708 1 17.0322V17.0002C1 16.4479 1.44772 16.0002 2 16.0002H8.33726L8.3883 16.0001Z" fill="#0000CC"/>
</svg>
