<svg width="24" height="24" viewBox="0 0 24 24" fill="none" xmlns="http://www.w3.org/2000/svg">
<path fill-rule="evenodd" clip-rule="evenodd" d="M7.16144 2H16.14C16.0246 2.06469 15.9098 2.13583 15.7962 2.21404C15.1442 2.66321 14.6407 3.27633 14.3349 4H7.19998C6.62343 4 6.25115 4.00078 5.96782 4.02393C5.69615 4.04613 5.59544 4.0838 5.54599 4.109C5.35783 4.20487 5.20485 4.35785 5.10898 4.54601C5.08378 4.59546 5.0461 4.69618 5.02391 4.96784C5.00076 5.25118 4.99998 5.62345 4.99998 6.2V11.8C4.99998 12.3766 5.00076 12.7488 5.02391 13.0322C5.0461 13.3038 5.08378 13.4046 5.10898 13.454C5.20485 13.6422 5.35783 13.7951 5.54599 13.891C5.59543 13.9162 5.69615 13.9539 5.96782 13.9761C6.25115 13.9992 6.62343 14 7.19998 14H7.52631C7.61979 13.9998 7.71565 13.9999 7.81408 13.9999H16.1859C16.2843 13.9999 16.3802 13.9998 16.4737 14H16.8C17.3765 14 17.7488 13.9992 18.0321 13.9761C18.1844 13.9636 18.283 13.9463 18.3489 13.9291C18.5586 13.9755 18.7766 14 19.0003 14C19.7507 14 20.4368 13.7245 20.9629 13.2691C20.9277 13.6394 20.8538 14.0072 20.673 14.362C20.5077 14.6865 20.2857 14.9761 20.0196 15.2183C20.4596 15.6806 20.7605 16.2835 21.153 17.0698L21.755 18.274C21.9309 18.6256 22.0922 18.9483 22.1992 19.2221C22.3094 19.5042 22.422 19.8761 22.3605 20.2923C22.2801 20.8365 21.979 21.3236 21.5282 21.6389C21.1834 21.8801 20.8004 21.9457 20.4989 21.9733C20.2062 22.0001 19.8454 22 19.4523 22H4.54764C4.15453 22 3.7938 22.0001 3.50105 21.9733C3.19955 21.9457 2.81652 21.8801 2.47173 21.6389C2.02093 21.3236 1.7199 20.8365 1.63949 20.2923C1.578 19.8761 1.69061 19.5042 1.80076 19.2221C1.90772 18.9483 2.06908 18.6257 2.24492 18.274L2.84699 17.0698C3.23944 16.2835 3.5404 15.6806 3.98032 15.2183C3.71425 14.9761 3.4923 14.6865 3.32696 14.362C3.13417 13.9836 3.06285 13.5904 3.03055 13.195C2.99995 12.8205 2.99996 12.3657 2.99998 11.8385V6.16146C2.99996 5.63431 2.99995 5.17955 3.03055 4.80498C3.06285 4.40963 3.13417 4.01641 3.32696 3.63803C3.61458 3.07355 4.07352 2.6146 4.63801 2.32698C5.01639 2.13419 5.40961 2.06287 5.80495 2.03057C6.1795 1.99997 6.63434 1.99999 7.16144 2ZM10 17C9.44772 17 9 17.4477 9 18C9 18.5523 9.44772 19 10 19H14C14.5523 19 15 18.5523 15 18C15 17.4477 14.5523 17 14 17H10Z" fill="#0000CC"/>
<path d="M20.0001 3C20.0001 2.44772 19.5524 2 19.0001 2C18.4478 2 18.0001 2.44772 18.0001 3V3.43596C17.6395 3.50237 17.2647 3.63095 16.9306 3.86106C16.3604 4.25391 16.0015 4.88318 16.0001 5.68568C15.9985 6.60919 16.4959 7.25245 17.1513 7.60445C17.7371 7.9191 18.4295 7.99991 19.0001 7.99991C19.4588 7.99991 19.7609 8.05925 19.9176 8.13986C19.9492 8.15613 19.9663 8.16914 19.9742 8.17602C19.9781 8.17943 19.9801 8.18165 19.9809 8.18259L19.982 8.18393L19.9827 8.18518L19.9837 8.18736C19.9847 8.1898 19.9867 8.19487 19.989 8.20335C19.9934 8.22008 20.0001 8.25446 20.0001 8.31241C20.0001 8.31685 20 8.32043 19.9998 8.32325C19.9912 8.33193 19.9731 8.34779 19.9396 8.36881C19.8016 8.45529 19.5369 8.54586 19.1247 8.59901C19.0193 8.59916 18.9222 8.59967 18.8308 8.60015C18.2535 8.60319 17.9034 8.60503 17.1241 8.50763C16.5761 8.43913 16.0763 8.82785 16.0078 9.37587C15.9393 9.92389 16.3281 10.4237 16.8761 10.4922C17.3417 10.5504 17.6905 10.5782 18.0001 10.591V11C18.0001 11.5523 18.4478 12 19.0001 12C19.5524 12 20.0001 11.5523 20.0001 11V10.469C20.3495 10.383 20.6958 10.2551 21.0015 10.0636C21.5628 9.71185 22.0001 9.12657 22.0001 8.31241C22.0001 7.88257 21.8987 7.47456 21.6745 7.11839C21.4519 6.76474 21.1464 6.52295 20.8326 6.36148C20.2393 6.05616 19.5414 5.99991 19.0001 5.99991C18.5707 5.99991 18.2622 5.93089 18.0976 5.84249C18.0624 5.82357 18.0409 5.80749 18.0289 5.79691C18.0175 5.78685 18.0138 5.78116 18.0132 5.78017C18.0127 5.77946 18.0106 5.77629 18.0081 5.76716C18.0053 5.75704 18 5.73274 18.0001 5.68914C18.0003 5.59351 18.0191 5.55645 18.0225 5.5501C18.0259 5.54364 18.0339 5.52968 18.0652 5.50807C18.1464 5.45218 18.3308 5.38507 18.6292 5.37547C18.7029 5.37353 18.7442 5.3728 18.7687 5.37261L18.7893 5.3726L18.793 5.37269L18.8131 5.37355C18.8258 5.37407 18.8414 5.37464 18.8608 5.3751C18.8985 5.376 18.9437 5.37629 19.0068 5.37587C19.7341 5.37102 20.4075 5.38323 20.7594 5.4705C21.2954 5.60345 21.8377 5.27669 21.9707 4.74064C22.1036 4.2046 21.7769 3.66227 21.2408 3.52932C20.8857 3.44123 20.438 3.40234 20.0001 3.38587V3Z" fill="#0000CC"/>
</svg>
