<svg width="24" height="24" viewBox="0 0 24 24" fill="none" xmlns="http://www.w3.org/2000/svg">
<path d="M6 3C6 2.44772 5.55229 2 5 2C4.44772 2 4 2.44772 4 3V6.58579L3.70711 6.29289C3.31658 5.90237 2.68342 5.90237 2.29289 6.29289C1.90237 6.68342 1.90237 7.31658 2.29289 7.70711L4.29289 9.70711C4.68342 10.0976 5.31658 10.0976 5.70711 9.70711L7.70711 7.70711C8.09763 7.31658 8.09763 6.68342 7.70711 6.29289C7.31658 5.90237 6.68342 5.90237 6.29289 6.29289L6 6.58579V3Z" fill="#0000CC"/>
<path d="M9.23618 5H17.8C18.3766 5 18.7488 5.00078 19.0322 5.02393C19.3038 5.04613 19.4045 5.0838 19.454 5.109C19.6422 5.20487 19.7951 5.35785 19.891 5.54601C19.9162 5.59546 19.9539 5.69618 19.9761 5.96784C19.9992 6.25118 20 6.62345 20 7.2V15H22V7.16144C22 6.6343 22 6.17954 21.9694 5.80498C21.9371 5.40963 21.8658 5.01641 21.673 4.63803C21.3854 4.07355 20.9265 3.6146 20.362 3.32698C19.9836 3.13419 19.5904 3.06287 19.195 3.03057C18.8205 2.99997 18.3657 2.99998 17.8386 3H8V4.17084C8.40945 4.31524 8.79383 4.55119 9.12132 4.87868C9.16095 4.91831 9.19923 4.95877 9.23618 5Z" fill="#0000CC"/>
<path d="M2 10.2426L2 15H4V11.8292C3.59055 11.6848 3.20618 11.4488 2.87868 11.1213L2 10.2426Z" fill="#0000CC"/>
<path d="M9.05268 16.0552C8.81735 15.9987 8.57821 15.9993 8.3883 15.9999L8.33726 15.9999H2C1.44772 15.9999 1 16.4477 1 16.9999V17.032C0.99999 17.4706 0.999981 17.8491 1.02135 18.1623C1.04386 18.4922 1.09336 18.8221 1.22836 19.148C1.53285 19.8831 2.11687 20.4671 2.85195 20.7716C3.17788 20.9066 3.50779 20.9561 3.83762 20.9786C4.15085 21 4.52931 21 4.96792 20.9999H19.032C19.4706 21 19.8491 21 20.1624 20.9786C20.4922 20.9561 20.8221 20.9066 21.1481 20.7716C21.8831 20.4671 22.4672 19.8831 22.7716 19.148C22.9066 18.8221 22.9561 18.4922 22.9787 18.1623C23 17.8491 23 17.4706 23 17.0319V16.9999C23 16.4477 22.5523 15.9999 22 15.9999H15.6627L15.6117 15.9999C15.4218 15.9993 15.1827 15.9987 14.9473 16.0552C14.7433 16.1042 14.5482 16.185 14.3692 16.2947C14.1629 16.4211 13.9942 16.5907 13.8603 16.7253L13.8243 16.7615L13.7615 16.8242C13.6689 16.9168 13.6225 16.9629 13.5874 16.995L13.5847 16.9974L13.5811 16.9975C13.5336 16.9997 13.4683 16.9999 13.3373 16.9999H10.6627C10.5317 16.9999 10.4664 16.9997 10.4189 16.9975L10.4153 16.9974L10.4126 16.995C10.3775 16.9629 10.3311 16.9168 10.2385 16.8242L10.1757 16.7615L10.1397 16.7253C10.0058 16.5907 9.83714 16.4211 9.63079 16.2947C9.45184 16.185 9.25675 16.1042 9.05268 16.0552Z" fill="#0000CC"/>
</svg>
