<svg width="24" height="24" viewBox="0 0 24 24" fill="none" xmlns="http://www.w3.org/2000/svg">
<path fill-rule="evenodd" clip-rule="evenodd" d="M9.16146 2H14.8385C15.3657 1.99998 15.8205 1.99997 16.195 2.03057C16.5904 2.06287 16.9836 2.13419 17.362 2.32698C17.9265 2.6146 18.3854 3.07354 18.673 3.63803C18.8658 4.01641 18.9371 4.40963 18.9694 4.80497C19 5.17954 19 5.6343 19 6.16144V11H20C20.5523 11 21 11.4477 21 12C21 12.5523 20.5523 13 20 13H13V14.126C14.4056 14.4878 15.5122 15.5944 15.874 17H21C21.5523 17 22 17.4477 22 18C22 18.5523 21.5523 19 21 19H15.874C15.4299 20.7252 13.8638 22 12 22C10.1362 22 8.57006 20.7252 8.12602 19H3C2.44772 19 2 18.5523 2 18C2 17.4477 2.44772 17 3 17H8.12602C8.4878 15.5944 9.59439 14.4878 11 14.126V13H4C3.44772 13 3 12.5523 3 12C3 11.4477 3.44772 11 4 11H5L5 6.16146C4.99998 5.63431 4.99997 5.17955 5.03057 4.80497C5.06287 4.40963 5.13419 4.01641 5.32698 3.63803C5.6146 3.07354 6.07354 2.6146 6.63803 2.32698C7.01641 2.13419 7.40963 2.06287 7.80497 2.03057C8.17954 1.99997 8.63431 1.99998 9.16146 2ZM7 11H17V6.2C17 5.62345 16.9992 5.25118 16.9761 4.96784C16.9539 4.69617 16.9162 4.59546 16.891 4.54601C16.7951 4.35785 16.6422 4.20487 16.454 4.109C16.4045 4.0838 16.3038 4.04612 16.0322 4.02393C15.7488 4.00078 15.3766 4 14.8 4H9.2C8.62345 4 8.25117 4.00078 7.96784 4.02393C7.69617 4.04612 7.59545 4.0838 7.54601 4.109C7.35785 4.20487 7.20487 4.35785 7.10899 4.54601C7.0838 4.59546 7.04612 4.69617 7.02393 4.96784C7.00078 5.25117 7 5.62345 7 6.2V11Z" fill="#0000CC"/>
</svg>
