<svg width="24" height="24" viewBox="0 0 24 24" fill="none" xmlns="http://www.w3.org/2000/svg">
<path d="M6 3C6 2.44772 5.55229 2 5 2C4.44772 2 4 2.44772 4 3V6C4 6.55228 4.44772 7 5 7C5.55229 7 6 6.55228 6 6V3Z" fill="#0000CC"/>
<path d="M5 8C4.44772 8 4 8.44772 4 9C4 9.55228 4.44772 10 5 10H5.01C5.56229 10 6.01 9.55228 6.01 9C6.01 8.44772 5.56229 8 5.01 8H5Z" fill="#0000CC"/>
<path d="M8 3C8 3.68093 8.00105 4.346 8.00247 5H17.8C18.3766 5 18.7488 5.00078 19.0322 5.02393C19.3038 5.04613 19.4045 5.08381 19.454 5.109C19.6422 5.20487 19.7951 5.35785 19.891 5.54601C19.9162 5.59546 19.9539 5.69618 19.9761 5.96784C19.9992 6.25118 20 6.62345 20 7.20001V15L22 15V7.16144C22 6.6343 22 6.17954 21.9694 5.80498C21.9371 5.40963 21.8658 5.01641 21.673 4.63803C21.3854 4.07355 20.9265 3.61461 20.362 3.32699C19.9836 3.13419 19.5904 3.06288 19.195 3.03057C18.8205 2.99997 18.3657 2.99999 17.8386 3H8Z" fill="#0000CC"/>
<path d="M2 9.00342V15L4 15V11.8293C2.83583 11.4178 2.00146 10.3082 2 9.00342Z" fill="#0000CC"/>
<path d="M1 17C1 16.4477 1.44772 16 2 16H22C22.5523 16 23 16.4477 23 17V17.032C23 17.4706 23 17.8491 22.9787 18.1624C22.9561 18.4922 22.9066 18.8221 22.7716 19.1481C22.4672 19.8831 21.8831 20.4672 21.1481 20.7716C20.8221 20.9066 20.4922 20.9561 20.1624 20.9786C19.8491 21 19.4706 21 19.032 21H4.96801C4.52936 21 4.15088 21 3.83762 20.9786C3.50779 20.9561 3.17788 20.9066 2.85195 20.7716C2.11687 20.4672 1.53285 19.8831 1.22836 19.1481C1.09336 18.8221 1.04386 18.4922 1.02135 18.1624C0.999981 17.8492 0.99999 17.4706 1 17.032V17Z" fill="#0000CC"/>
</svg>
