<svg width="24" height="24" viewBox="0 0 24 24" fill="none" xmlns="http://www.w3.org/2000/svg">
<path d="M8.14457 3.93055L16 11.786V5C16 2.79086 14.2091 1 12 1C10.1613 1 8.6123 2.24067 8.14457 3.93055Z" fill="#0000CC"/>
<path d="M8 9.41421V12C8 14.2091 9.79086 16 12 16C12.7418 16 13.4365 15.7981 14.032 15.4462L15.4765 16.8907C14.4957 17.5892 13.2958 18 12 18C8.68629 18 6 15.3137 6 12V10C6 9.44772 5.55228 9 5 9C4.44772 9 4 9.44772 4 10V12C4 16.0796 7.05369 19.446 11 19.9381V21H8C7.44772 21 7 21.4477 7 22C7 22.5523 7.44772 23 8 23H16C16.5523 23 17 22.5523 17 22C17 21.4477 16.5523 21 16 21H13V19.9381C14.4607 19.756 15.7991 19.18 16.9056 18.3199L20.2929 21.7071C20.6834 22.0976 21.3166 22.0976 21.7071 21.7071C22.0976 21.3166 22.0976 20.6834 21.7071 20.2929L3.70711 2.29289C3.31658 1.90237 2.68342 1.90237 2.29289 2.29289C1.90237 2.68342 1.90237 3.31658 2.29289 3.70711L8 9.41421Z" fill="#0000CC"/>
<path d="M19.3584 15.1444L17.7907 13.5767C17.9272 13.0743 18 12.5456 18 12V10C18 9.44772 18.4477 9 19 9C19.5523 9 20 9.44772 20 10V12C20 13.1163 19.7714 14.1792 19.3584 15.1444Z" fill="#0000CC"/>
</svg>
