<svg width="24" height="24" viewBox="0 0 24 24" fill="none" xmlns="http://www.w3.org/2000/svg">
<path d="M8.09325 3.87923L17 12.786V7C17 4.23858 14.7614 2 12 2C10.4191 2 9.00949 2.73373 8.09325 3.87923Z" fill="#0000CC"/>
<path d="M7 8.41421V13C7 15.7614 9.23858 18 12 18C13.2753 18 14.4391 17.5225 15.3224 16.7366L16.7383 18.1525C15.4917 19.2996 13.8276 20 12 20C8.13401 20 5 16.866 5 13V12C5 11.4477 4.55228 11 4 11C3.44772 11 3 11.4477 3 12V13C3 17.9706 7.02944 22 12 22C14.3799 22 16.5441 21.0762 18.1535 19.5677L20.2929 21.7071C20.6834 22.0976 21.3166 22.0976 21.7071 21.7071C22.0976 21.3166 22.0976 20.6834 21.7071 20.2929L3.70711 2.29289C3.31658 1.90237 2.68342 1.90237 2.29289 2.29289C1.90237 2.68342 1.90237 3.31658 2.29289 3.70711L7 8.41421Z" fill="#0000CC"/>
<path d="M20.4144 16.2003L18.8159 14.6019C18.9363 14.0874 19 13.5511 19 13V12C19 11.4477 19.4477 11 20 11C20.5523 11 21 11.4477 21 12V13C21 14.1272 20.7928 15.206 20.4144 16.2003Z" fill="#0000CC"/>
</svg>
