<svg width="24" height="24" viewBox="0 0 24 24" fill="none" xmlns="http://www.w3.org/2000/svg">
<path fill-rule="evenodd" clip-rule="evenodd" d="M5.32698 20.362C5 19.7202 5 18.8802 5 17.2V6.8C5 5.11984 5 4.27976 5.32698 3.63803C5.6146 3.07354 6.07354 2.6146 6.63803 2.32698C7.27976 2 8.11984 2 9.8 2H14.2C15.8802 2 16.7202 2 17.362 2.32698C17.9265 2.6146 18.3854 3.07354 18.673 3.63803C19 4.27976 19 5.11984 19 6.8V17.2C19 18.8802 19 19.7202 18.673 20.362C18.3854 20.9265 17.9265 21.3854 17.362 21.673C16.7202 22 15.8802 22 14.2 22H9.8C8.11984 22 7.27976 22 6.63803 21.673C6.07354 21.3854 5.6146 20.9265 5.32698 20.362ZM14.6783 9.7652C15.0841 10.1398 15.1094 10.7725 14.7348 11.1783L11.9656 14.1783C11.7763 14.3834 11.5099 14.5 11.2308 14.5C10.9517 14.5 10.6853 14.3834 10.496 14.1783L9.2652 12.845C8.8906 12.4391 8.9159 11.8065 9.32172 11.4319C9.72755 11.0573 10.3602 11.0826 10.7348 11.4884L11.2308 12.0257L13.2652 9.82172C13.6398 9.4159 14.2725 9.3906 14.6783 9.7652Z" fill="#0000CC"/>
</svg>
