<svg width="24" height="24" viewBox="0 0 24 24" fill="none" xmlns="http://www.w3.org/2000/svg">
<path fill-rule="evenodd" clip-rule="evenodd" d="M10.614 4.21069C10.178 3.87162 9.54976 3.95016 9.21069 4.38611C8.87162 4.82205 8.95016 5.45033 9.38611 5.7894L16.0855 11H5.2C4.0799 11 3.51984 11 3.09202 11.218C2.71569 11.4097 2.40973 11.7157 2.21799 12.092C2 12.5198 2 13.0799 2 14.2C2 15.8802 2 16.7202 2.32698 17.362C2.6146 17.9265 3.07354 18.3854 3.63803 18.673C4.27976 19 5.11984 19 6.8 19H17.2C18.8802 19 19.7202 19 20.362 18.673C20.9265 18.3854 21.3854 17.9265 21.673 17.362C22 16.7202 22 15.8802 22 14.2C22 13.0799 22 12.5198 21.782 12.092C21.5903 11.7157 21.2843 11.4097 20.908 11.218C20.5559 11.0386 20.1143 11.0068 19.3447 11.0012L10.614 4.21069ZM19 15C19 15.5523 18.5523 16 18 16C17.4477 16 17 15.5523 17 15C17 14.4477 17.4477 14 18 14C18.5523 14 19 14.4477 19 15Z" fill="#0000CC"/>
</svg>
