<svg width="24" height="24" viewBox="0 0 24 24" fill="none" xmlns="http://www.w3.org/2000/svg">
<path d="M6.03682 3.66692C6.40514 3.2554 6.37012 2.6232 5.9586 2.25487C5.54707 1.88655 4.91487 1.92157 4.54655 2.3331C2.96368 4.10162 2 6.43947 2 9.00001C2 9.76236 2.08549 10.506 2.24781 11.2213C2.37002 11.7599 2.90571 12.0974 3.44431 11.9752C3.9829 11.853 4.32044 11.3173 4.19823 10.7787C4.06864 10.2076 4 9.61244 4 9.00001C4 6.95042 4.76945 5.08294 6.03682 3.66692Z" fill="#0000CC"/>
<path d="M19.4535 2.3331C19.0851 1.92157 18.4529 1.88655 18.0414 2.25487C17.6299 2.6232 17.5949 3.2554 17.9632 3.66692C19.2306 5.08294 20 6.95042 20 9.00001C20 9.61244 19.9314 10.2076 19.8018 10.7787C19.6796 11.3173 20.0171 11.853 20.5557 11.9752C21.0943 12.0974 21.63 11.7599 21.7522 11.2213C21.9145 10.506 22 9.76236 22 9.00001C22 6.43947 21.0363 4.10162 19.4535 2.3331Z" fill="#0000CC"/>
<path d="M8.7995 6.60068C9.13124 6.15914 9.04223 5.53226 8.60068 5.20052C8.15913 4.86877 7.53225 4.95779 7.20051 5.39933C6.44695 6.40232 6 7.65066 6 9.0005C6 9.85198 6.17797 10.6645 6.49969 11.4009C6.72081 11.907 7.31033 12.138 7.81642 11.9169C8.32251 11.6957 8.55352 11.1062 8.3324 10.6001C8.11893 10.1115 8 9.57122 8 9.0005C8 8.09869 8.29724 7.26919 8.7995 6.60068Z" fill="#0000CC"/>
<path d="M16.7995 5.39933C16.4678 4.95779 15.8409 4.86877 15.3993 5.20052C14.9578 5.53226 14.8688 6.15914 15.2005 6.60068C15.7028 7.26919 16 8.09869 16 9.0005C16 9.57123 15.8811 10.1115 15.6676 10.6001C15.4465 11.1062 15.6775 11.6957 16.1836 11.9169C16.6897 12.138 17.2792 11.907 17.5003 11.4009C17.822 10.6645 18 9.85198 18 9.0005C18 7.65066 17.5531 6.40232 16.7995 5.39933Z" fill="#0000CC"/>
<path fill-rule="evenodd" clip-rule="evenodd" d="M13 9.00001C13 8.44772 12.5523 8.00001 12 8.00001C11.4477 8.00001 11 8.44772 11 9.00001V13H6.16148C5.63434 13 5.17954 13 4.80497 13.0306C4.40963 13.0629 4.01641 13.1342 3.63803 13.327C3.07355 13.6146 2.6146 14.0736 2.32698 14.638C2.13419 15.0164 2.06287 15.4096 2.03057 15.805C1.99997 16.1795 1.99998 16.6343 2 17.1614V17.8386C1.99998 18.3657 1.99997 18.8205 2.03057 19.195C2.06287 19.5904 2.13419 19.9836 2.32698 20.362C2.6146 20.9265 3.07355 21.3854 3.63803 21.673C4.01641 21.8658 4.40963 21.9371 4.80497 21.9694C5.17954 22 5.6343 22 6.16144 22H17.8386C18.3657 22 18.8205 22 19.195 21.9694C19.5904 21.9371 19.9836 21.8658 20.362 21.673C20.9265 21.3854 21.3854 20.9265 21.673 20.362C21.8658 19.9836 21.9371 19.5904 21.9694 19.195C22 18.8205 22 18.3657 22 17.8386V17.1614C22 16.6343 22 16.1795 21.9694 15.805C21.9371 15.4096 21.8658 15.0164 21.673 14.638C21.3854 14.0736 20.9265 13.6146 20.362 13.327C19.9836 13.1342 19.5904 13.0629 19.195 13.0306C18.8205 13 18.3657 13 17.8386 13H13V9.00001ZM6.5 16.5C5.94772 16.5 5.5 16.9477 5.5 17.5C5.5 18.0523 5.94772 18.5 6.5 18.5H10.5C11.0523 18.5 11.5 18.0523 11.5 17.5C11.5 16.9477 11.0523 16.5 10.5 16.5H6.5Z" fill="#0000CC"/>
</svg>
