<svg width="24" height="24" viewBox="0 0 24 24" fill="none" xmlns="http://www.w3.org/2000/svg">
<path fill-rule="evenodd" clip-rule="evenodd" d="M2 6.8C2 5.11984 2 4.27976 2.32698 3.63803C2.6146 3.07354 3.07354 2.6146 3.63803 2.32698C4.27976 2 5.11984 2 6.8 2H17.2C18.8802 2 19.7202 2 20.362 2.32698C20.9265 2.6146 21.3854 3.07354 21.673 3.63803C22 4.27976 22 5.11984 22 6.8V13.2C22 14.8802 22 15.7202 21.673 16.362C21.3854 16.9265 20.9265 17.3854 20.362 17.673C19.7202 18 18.8802 18 17.2 18H16V19.3472C16.3034 19.4058 16.5776 19.4683 16.8236 19.5313C17.385 19.6753 17.9737 19.8424 18.485 20.1254C18.9677 20.3936 19.1426 21.0029 18.8743 21.4856C18.6076 21.9658 18.0038 22.1405 17.5223 21.8784C17.1505 21.6859 16.7294 21.5719 16.3268 21.4687C15.4364 21.2404 14.02 21 12.0002 21C9.98034 21 8.56397 21.2404 7.67356 21.4687C6.89367 21.6686 6.51402 21.8599 6.4796 21.8776L6.47804 21.8784C5.99651 22.1405 5.3928 21.9658 5.12602 21.4856C4.85781 21.0029 5.03176 20.3941 5.51454 20.1258C6.02585 19.8424 6.61515 19.6754 7.17681 19.5313C7.42268 19.4683 7.69678 19.4059 8 19.3472V18H6.8C5.11984 18 4.27976 18 3.63803 17.673C3.07354 17.3854 2.6146 16.9265 2.32698 16.362C2 15.7202 2 14.8802 2 13.2V6.8ZM10 18V19.0787C10.6011 19.0294 11.2669 19 12.0002 19C12.7333 19 13.399 19.0294 14 19.0787V18H10ZM4 5.6C4 5.03995 4 4.75992 4.10899 4.54601C4.20487 4.35785 4.35785 4.20487 4.54601 4.10899C4.75992 4 5.03995 4 5.6 4H18.4C18.9601 4 19.2401 4 19.454 4.10899C19.6422 4.20487 19.7951 4.35785 19.891 4.54601C20 4.75992 20 5.03995 20 5.6V14H4V5.6Z" fill="#0000CC"/>
</svg>
