<svg width="24" height="24" viewBox="0 0 24 24" fill="none" xmlns="http://www.w3.org/2000/svg">
<path fill-rule="evenodd" clip-rule="evenodd" d="M2 6.8C2 5.11984 2 4.27976 2.32698 3.63803C2.6146 3.07354 3.07354 2.6146 3.63803 2.32698C4.27976 2 5.11984 2 6.8 2H17.2C18.8802 2 19.7202 2 20.362 2.32698C20.9265 2.6146 21.3854 3.07354 21.673 3.63803C22 4.27976 22 5.11984 22 6.8V13.2C22 14.8802 22 15.7202 21.673 16.362C21.3854 16.9265 20.9265 17.3854 20.362 17.673C19.7202 18 18.8802 18 17.2 18H13V19.0269C14.3441 19.101 15.3693 19.3173 16.1067 19.5442C16.7886 19.754 17.2202 19.9718 17.425 20.0888C17.933 20.3985 18.1921 21.0148 17.8322 21.5547C17.5281 22.0109 16.914 22.1366 16.4556 21.8387C16.4333 21.8251 16.1361 21.6458 15.5185 21.4558C14.8041 21.236 13.6534 21 12.0001 21C10.3468 21 9.19614 21.236 8.48169 21.4558C7.86409 21.6458 7.56688 21.8251 7.54465 21.8387C7.08617 22.1366 6.47216 22.0109 6.16806 21.5547C5.8617 21.0952 5.98588 20.4743 6.44541 20.1679C6.8963 19.8931 7.38981 19.6992 7.89352 19.5442C8.6309 19.3173 9.656 19.101 11 19.0269V18H6.8C5.11984 18 4.27976 18 3.63803 17.673C3.07354 17.3854 2.6146 16.9265 2.32698 16.362C2 15.7202 2 14.8802 2 13.2V6.8ZM4 5.6C4 5.03995 4 4.75992 4.10899 4.54601C4.20487 4.35785 4.35785 4.20487 4.54601 4.10899C4.75992 4 5.03995 4 5.6 4H18.4C18.9601 4 19.2401 4 19.454 4.10899C19.6422 4.20487 19.7951 4.35785 19.891 4.54601C20 4.75992 20 5.03995 20 5.6V14H4V5.6Z" fill="#0000CC"/>
</svg>
