<svg width="24" height="24" viewBox="0 0 24 24" fill="none" xmlns="http://www.w3.org/2000/svg">
<path d="M11 2.07239C8.08238 2.50072 6.2802 4.72123 5.55858 5.79697L5.55467 5.8028C5.44999 5.95884 5.36016 6.09273 5.25299 6.33691C5.17156 6.52243 5.08275 6.81422 5.04703 7.01365C4.9998 7.2773 4.9999 7.48823 5.00001 7.72124L5.00002 15C5.00002 18.866 8.13403 22 12 22C15.866 22 19 18.866 19 15L19 7.72125C19.0001 7.48824 19.0002 7.2773 18.953 7.01365C18.9173 6.81422 18.8285 6.52243 18.7471 6.33691C18.6399 6.09274 18.5501 5.95885 18.4454 5.80282L18.4415 5.79697C17.7198 4.72122 15.9176 2.5007 13 2.07239V9.00001C13 9.55229 12.5523 10 12 10C11.4477 10 11 9.55229 11 9.00001V2.07239Z" fill="#0000CC"/>
</svg>
