<svg width="24" height="24" viewBox="0 0 24 24" fill="none" xmlns="http://www.w3.org/2000/svg">
<path fill-rule="evenodd" clip-rule="evenodd" d="M8 2C6.89543 2 6 2.89543 6 4V5C3.79086 5 2 6.79086 2 9V12H22V9C22 6.79086 20.2091 5 18 5V4C18 2.89543 17.1046 2 16 2H8ZM16 5V4H8V5H16ZM5 9.5C5 8.94771 5.44772 8.5 6 8.5H9C9.55229 8.5 10 8.94771 10 9.5C10 10.0523 9.55229 10.5 9 10.5H6C5.44772 10.5 5 10.0523 5 9.5ZM16 9.5C16 10.0523 15.5523 10.5 15 10.5C14.4477 10.5 14 10.0523 14 9.5C14 8.94771 14.4477 8.5 15 8.5C15.5523 8.5 16 8.94771 16 9.5ZM18 10.5C18.5523 10.5 19 10.0523 19 9.5C19 8.94771 18.5523 8.5 18 8.5C17.4477 8.5 17 8.94771 17 9.5C17 10.0523 17.4477 10.5 18 10.5Z" fill="#0000CC"/>
<path d="M2 14H22V19C22 20.6569 20.6569 22 19 22V17.0001C19 16.4478 18.5523 16.0001 18 16.0001L16.8692 16C16.4982 15.9997 16.1716 15.9995 15.854 16.0684C15.4517 16.1558 15.0717 16.3251 14.7376 16.5657C14.4738 16.7556 14.2556 16.9985 14.0077 17.2744L13.9567 17.3311C13.6291 17.6951 13.5604 17.7635 13.4937 17.8116C13.3823 17.8918 13.2556 17.9482 13.1215 17.9773C13.0411 17.9948 12.9443 18.0001 12.4546 18.0001H11.5454C11.0557 18.0001 10.9589 17.9948 10.8785 17.9773C10.7444 17.9482 10.6177 17.8918 10.5063 17.8116C10.4396 17.7635 10.3709 17.6951 10.0433 17.3311L9.99234 17.2744C9.74443 16.9985 9.52616 16.7556 9.26243 16.5657C8.92834 16.3251 8.5483 16.1558 8.14597 16.0684C7.82837 15.9995 7.50179 15.9997 7.13084 16L6 16.0001C5.44772 16.0001 5 16.4478 5 17.0001L5 22C3.34315 22 2 20.6569 2 19V14Z" fill="#0000CC"/>
<path d="M17 22H7V18.0001H7.05464C7.5443 18.0001 7.6411 18.0054 7.72151 18.0229C7.85562 18.052 7.9823 18.1084 8.09366 18.1886C8.16043 18.2367 8.22913 18.3051 8.55671 18.669L8.60766 18.7257C8.85557 19.0017 9.07384 19.2446 9.33757 19.4345C9.67166 19.6751 10.0517 19.8444 10.454 19.9317C10.7716 20.0007 11.0982 20.0004 11.4692 20.0001H12.5308C12.9018 20.0004 13.2284 20.0007 13.546 19.9317C13.9483 19.8444 14.3283 19.6751 14.6624 19.4345C14.9262 19.2446 15.1444 19.0016 15.3924 18.7257L15.4433 18.669C15.7709 18.3051 15.8396 18.2367 15.9063 18.1886C16.0177 18.1084 16.1444 18.052 16.2785 18.0229C16.3589 18.0054 16.4557 18.0001 16.9454 18.0001H17V22Z" fill="#0000CC"/>
</svg>
