<svg width="24" height="24" viewBox="0 0 24 24" fill="none" xmlns="http://www.w3.org/2000/svg">
<path fill-rule="evenodd" clip-rule="evenodd" d="M2 6.8C2 5.11984 2 4.27976 2.32698 3.63803C2.6146 3.07354 3.07354 2.6146 3.63803 2.32698C4.27976 2 5.11984 2 6.8 2H17.2C18.8802 2 19.7202 2 20.362 2.32698C20.9265 2.6146 21.3854 3.07354 21.673 3.63803C22 4.27976 22 5.11984 22 6.8V14.2C22 15.8802 22 16.7202 21.673 17.362C21.3854 17.9265 20.9265 18.3854 20.362 18.673C19.8313 18.9434 19.1649 18.9902 18 18.9983V20.9997C18 21.552 17.5523 21.9997 17 21.9997C16.4477 21.9997 16 21.552 16 20.9997V19H8V20.9997C8 21.552 7.55228 21.9997 7 21.9997C6.44772 21.9997 6 21.552 6 20.9997V18.9983C4.83507 18.9902 4.16873 18.9434 3.63803 18.673C3.07354 18.3854 2.6146 17.9265 2.32698 17.362C2 16.7202 2 15.8802 2 14.2V6.8ZM4 5.6C4 5.03995 4 4.75992 4.10899 4.54601C4.20487 4.35785 4.35785 4.20487 4.54601 4.10899C4.75992 4 5.03995 4 5.6 4H18.4C18.9601 4 19.2401 4 19.454 4.10899C19.6422 4.20487 19.7951 4.35785 19.891 4.54601C20 4.75992 20 5.03995 20 5.6V15H4V5.6Z" fill="#0000CC"/>
</svg>
