<svg width="24" height="24" viewBox="0 0 24 24" fill="none" xmlns="http://www.w3.org/2000/svg">
<path fill-rule="evenodd" clip-rule="evenodd" d="M14.7563 1.09789C15.158 0.967371 15.5907 0.967371 15.9924 1.09789C16.2821 1.19202 16.504 1.35159 16.6789 1.50003C16.8381 1.63519 17.0119 1.80901 17.1903 1.9875L22.0438 6.84097C22.2222 7.0194 22.396 7.19316 22.5312 7.35237C22.6796 7.52721 22.8392 7.7491 22.9333 8.03882C23.0638 8.4405 23.0639 8.8732 22.9333 9.27489C22.8392 9.5646 22.6796 9.78649 22.5312 9.96134C22.396 10.1206 22.2222 10.2943 22.0437 10.4728L18.8597 13.6568C18.9315 13.7718 18.9963 13.9017 19.0443 14.0492C19.1748 14.4509 19.1748 14.8836 19.0442 15.2853C18.9501 15.575 18.7905 15.7969 18.6421 15.9717C18.5069 16.131 18.3331 16.3047 18.1546 16.4832L15.5573 19.0805C14.9881 19.6497 14.5183 20.1195 14.1044 20.4709C13.6745 20.8359 13.2394 21.1316 12.7213 21.2999C11.918 21.5609 11.0526 21.5609 10.2492 21.2999C9.96945 21.209 9.71388 21.081 9.47025 20.9249L8.35147 22.0437C8.17303 22.2222 7.99924 22.396 7.84002 22.5312C7.66517 22.6796 7.44328 22.8392 7.15357 22.9333C6.75188 23.0639 6.31919 23.0639 5.9175 22.9333C5.62778 22.8392 5.40589 22.6796 5.23105 22.5312C5.07183 22.396 4.89804 22.2222 4.7196 22.0437L1.98747 19.3116C1.809 19.1332 1.63518 18.9594 1.50002 18.8002C1.35159 18.6253 1.19202 18.4034 1.09789 18.1137C0.967372 17.712 0.96737 17.2793 1.09789 16.8777C1.19202 16.5879 1.35159 16.366 1.50003 16.1912C1.63519 16.032 1.80901 15.8582 1.9875 15.6798L3.1063 14.561C2.95025 14.3173 2.82221 14.0618 2.73131 13.782C2.47028 12.9786 2.47028 12.1132 2.73131 11.3099C2.89963 10.7918 3.1953 10.3568 3.56029 9.92683C3.91171 9.51288 4.38149 9.04311 4.9507 8.47392L7.52548 5.89914C7.53301 5.89161 7.54053 5.88409 7.54804 5.87658C7.72648 5.6981 7.90026 5.52428 8.05947 5.38911C8.23432 5.24068 8.45621 5.08111 8.74593 4.98697C9.14761 4.85646 9.58031 4.85646 9.98199 4.98697C10.1295 5.03489 10.2594 5.09977 10.3744 5.1715L13.5584 1.9875C13.7369 1.80901 13.9107 1.63519 14.0699 1.50003C14.2447 1.35159 14.4666 1.19202 14.7563 1.09789ZM11.8388 6.53553L17.4957 12.1924L20.607 9.08112C20.8166 8.87144 20.9308 8.75616 21.0065 8.66699C21.0095 8.66344 21.0124 8.66005 21.015 8.65685C21.0124 8.65364 21.0095 8.65027 21.0065 8.64672C20.9308 8.55755 20.8166 8.44227 20.607 8.23259L15.7986 3.42426C15.589 3.21459 15.4737 3.10041 15.3845 3.0247C15.381 3.02169 15.3776 3.01885 15.3744 3.01619C15.3712 3.01885 15.3678 3.02169 15.3642 3.0247C15.2751 3.10041 15.1598 3.21459 14.9501 3.42426L11.8388 6.53553ZM4.41536 16.0803L3.42426 17.0714C3.21459 17.2811 3.10041 17.3964 3.0247 17.4856C3.02169 17.4891 3.01885 17.4925 3.01619 17.4957C3.01885 17.4989 3.02169 17.5023 3.0247 17.5058C3.10041 17.595 3.21459 17.7103 3.42426 17.92L6.11127 20.607C6.32095 20.8166 6.43623 20.9308 6.5254 21.0065C6.52895 21.0095 6.53232 21.0124 6.53553 21.015C6.53873 21.0124 6.54212 21.0095 6.54567 21.0065C6.63484 20.9308 6.75012 20.8166 6.9598 20.607L7.9509 19.6159C7.78164 19.4489 7.60296 19.2702 7.41322 19.0805L4.9507 16.618C4.76097 16.4282 4.58229 16.2496 4.41536 16.0803ZM15.0208 5.47487C15.4113 5.08435 16.0445 5.08435 16.435 5.47487C16.8256 5.8654 16.8256 6.49856 16.435 6.88909L15.7279 7.59619C15.3374 7.98672 14.7042 7.98672 14.3137 7.59619C13.9232 7.20567 13.9232 6.5725 14.3137 6.18198L15.0208 5.47487ZM17.1421 7.59619C17.5327 7.20567 18.1658 7.20567 18.5563 7.59619C18.9469 7.98672 18.9469 8.61988 18.5563 9.01041L17.8492 9.71751C17.4587 10.108 16.8256 10.108 16.435 9.71751C16.0445 9.32699 16.0445 8.69382 16.435 8.3033L17.1421 7.59619Z" fill="#0000CC"/>
</svg>
