<svg width="24" height="24" viewBox="0 0 24 24" fill="none" xmlns="http://www.w3.org/2000/svg">
<path d="M10.5 5C9.94771 5 9.5 5.44772 9.5 6V7C9.5 7.55228 9.94771 8 10.5 8C11.0523 8 11.5 7.55228 11.5 7V6C11.5 5.44772 11.0523 5 10.5 5Z" fill="#0000CC"/>
<path d="M13.5 5C12.9477 5 12.5 5.44772 12.5 6V7C12.5 7.55228 12.9477 8 13.5 8C14.0523 8 14.5 7.55228 14.5 7V6C14.5 5.44772 14.0523 5 13.5 5Z" fill="#0000CC"/>
<path fill-rule="evenodd" clip-rule="evenodd" d="M7.86178 2.01695C8.06993 1.99994 8.31573 1.99997 8.56811 2L15.4319 2C15.6843 1.99997 15.9301 1.99994 16.1382 2.01695C16.3668 2.03563 16.6366 2.07969 16.908 2.21799C17.2843 2.40974 17.5903 2.7157 17.782 3.09202C17.9203 3.36345 17.9644 3.63318 17.9831 3.86178C18.0001 4.06994 18 4.31574 18 4.56812L18 9.01919C18.3922 9.04314 18.6705 9.09697 18.908 9.21799C19.2843 9.40973 19.5903 9.71569 19.782 10.092C20 10.5198 20 11.0799 20 12.2V14C20 16.8003 20 18.2004 19.455 19.27C18.9757 20.2108 18.2108 20.9757 17.27 21.455C16.2004 22 14.8003 22 12 22C9.19974 22 7.79961 22 6.73005 21.455C5.78924 20.9757 5.02433 20.2108 4.54497 19.27C4 18.2004 4 16.8003 4 14V12.2C4 11.0799 4 10.5198 4.21799 10.092C4.40973 9.71569 4.71569 9.40973 5.09202 9.21799C5.32953 9.09697 5.60779 9.04314 6.00001 9.01919L6 4.56809C5.99997 4.31572 5.99994 4.06993 6.01695 3.86178C6.03563 3.63318 6.07969 3.36345 6.21799 3.09202C6.40974 2.7157 6.7157 2.40974 7.09202 2.21799C7.36345 2.07969 7.63318 2.03563 7.86178 2.01695ZM16 4.60001V9H8.00001V4.60001C8.00001 4.30348 8.00078 4.14122 8.01031 4.02464L8.01145 4.01145L8.02464 4.01031C8.14122 4.00078 8.30348 4.00001 8.60001 4.00001H15.4C15.6965 4.00001 15.8588 4.00078 15.9754 4.01031L15.9886 4.01145L15.9897 4.02464C15.9992 4.14122 16 4.30348 16 4.60001Z" fill="#0000CC"/>
</svg>
