<svg width="24" height="24" viewBox="0 0 24 24" fill="none" xmlns="http://www.w3.org/2000/svg">
<path fill-rule="evenodd" clip-rule="evenodd" d="M9.00003 2C8.53097 2 8.12494 2.32602 8.02363 2.78401L7.08824 7.01255C5.79918 8.28217 5 10.0478 5 12C5 13.9563 5.80251 15.7252 7.09629 16.9954L8.02288 21.2145C8.12362 21.6732 8.52997 22 8.9996 22H14.9996C15.4689 22 15.8751 21.6736 15.9761 21.2153L16.9076 16.9916C18.1991 15.7216 19 13.9544 19 12C19 10.0517 18.2041 8.28935 16.9196 7.02031L15.9761 2.78267C15.8743 2.32533 15.4686 2 15 2H9.00003ZM9.80382 20L9.48172 18.5333C10.2632 18.8348 11.1123 19 12 19C12.8882 19 13.7378 18.8346 14.5196 18.5328L14.1961 20H9.80382ZM12 5C12.8904 5 13.742 5.16624 14.5253 5.46938L14.1982 4H9.80299L9.47826 5.46799C10.2607 5.16573 11.111 5 12 5ZM13 9.5C13 8.94772 12.5523 8.5 12 8.5C11.4477 8.5 11 8.94772 11 9.5V12C11 12.3148 11.1482 12.6111 11.4 12.8L13.4 14.3C13.8418 14.6314 14.4686 14.5418 14.8 14.1C15.1314 13.6582 15.0418 13.0314 14.6 12.7L13 11.5V9.5Z" fill="#0000CC"/>
</svg>
