<svg width="24" height="24" viewBox="0 0 24 24" fill="none" xmlns="http://www.w3.org/2000/svg">
<path fill-rule="evenodd" clip-rule="evenodd" d="M9.00003 2C8.56956 2 8.18739 2.27549 8.05131 2.68389L7.12388 5.46727C6.39878 5.85234 5.8092 6.45154 5.43598 7.18404C5.18868 7.66937 5.09012 8.18608 5.04419 8.74817C4.99998 9.28937 4.99999 9.95372 5 10.7587V13.2413C4.99999 14.0463 4.99998 14.7106 5.04419 15.2518C5.09012 15.8139 5.18868 16.3306 5.43598 16.816C5.80911 17.5483 6.3985 18.1474 7.12336 18.5325L8.05088 21.3161C8.18696 21.7245 8.56913 22 8.9996 22H14.9996C15.43 22 15.8121 21.7246 15.9482 21.3163L16.8766 18.5325C17.6015 18.1474 18.1909 17.5483 18.564 16.816C18.8113 16.3306 18.9099 15.8139 18.9558 15.2518C19 14.7106 19 14.0463 19 13.2413V10.7587C19 9.95374 19 9.28937 18.9558 8.74817C18.9099 8.18608 18.8113 7.66937 18.564 7.18404C18.191 6.45187 17.6017 5.85287 16.8771 5.46778L15.9487 2.68366C15.8125 2.27537 15.4304 2 15 2H9.00003ZM14.6602 5H9.32422L9.72088 4H14.2794L14.6602 5ZM9.72045 20L9.375 19H14.6367L14.2789 20H9.72045ZM13 9.5C13 8.94772 12.5523 8.5 12 8.5C11.4477 8.5 11 8.94772 11 9.5V12C11 12.3148 11.1482 12.6111 11.4 12.8L13.4 14.3C13.8418 14.6314 14.4686 14.5418 14.8 14.1C15.1314 13.6582 15.0418 13.0314 14.6 12.7L13 11.5V9.5Z" fill="#0000CC"/>
</svg>
