<svg width="24" height="24" viewBox="0 0 24 24" fill="none" xmlns="http://www.w3.org/2000/svg">
<path d="M6.60113 2.87759C7.20536 2.3405 8.00402 2 8.99987 2C11.0079 2 15.0393 2.00076 15.0393 2.00076C15.4637 1.99094 16.8185 2.06149 18.1496 3.19911C19.7054 4.52886 20.9999 7.11587 20.9999 12C20.9999 16.8841 19.7054 19.4711 18.1496 20.8009C17.2687 21.5537 16.1601 22 14.9999 22H8.99987C8.00402 22 7.20536 21.6595 6.60113 21.1224C5.96924 20.5607 5.56406 19.8046 5.31738 19H13.4576C13.579 19.2366 13.7329 19.4525 13.9299 19.6276C14.7691 20.3735 16.101 19.9209 16.8502 19.2805C17.7943 18.4736 18.9999 16.5623 18.9999 12C18.9999 7.4377 17.7943 5.52641 16.8502 4.71947C16.1003 4.07855 14.7694 3.62614 13.9299 4.37241C13.7329 4.54752 13.579 4.7634 13.4576 5H5.31738C5.56406 4.19537 5.96924 3.43927 6.60113 2.87759Z" fill="#0000CC"/>
<path fill-rule="evenodd" clip-rule="evenodd" d="M3 10.8C3 9.11984 3 8.27976 3.32698 7.63803C3.6146 7.07354 4.07354 6.6146 4.63803 6.32698C5.27976 6 6.11984 6 7.8 6H10.2C11.8802 6 12.7202 6 13.362 6.32698C13.9265 6.6146 14.3854 7.07354 14.673 7.63803C15 8.27976 15 9.11984 15 10.8V13.2C15 14.8802 15 15.7202 14.673 16.362C14.3854 16.9265 13.9265 17.3854 13.362 17.673C12.7202 18 11.8802 18 10.2 18H7.8C6.11984 18 5.27976 18 4.63803 17.673C4.07354 17.3854 3.6146 16.9265 3.32698 16.362C3 15.7202 3 14.8802 3 13.2V10.8ZM10 10C10 9.44771 9.55229 9 9 9C8.44771 9 8 9.44771 8 10V12C8 12.2652 8.10536 12.5196 8.29289 12.7071L9.79289 14.2071C10.1834 14.5976 10.8166 14.5976 11.2071 14.2071C11.5976 13.8166 11.5976 13.1834 11.2071 12.7929L10 11.5858V10Z" fill="#0000CC"/>
</svg>
