<svg width="24" height="24" viewBox="0 0 24 24" fill="none" xmlns="http://www.w3.org/2000/svg">
<path fill-rule="evenodd" clip-rule="evenodd" d="M3.70711 2.29289C3.31658 1.90237 2.68342 1.90237 2.29289 2.29289C1.90237 2.68342 1.90237 3.31658 2.29289 3.70711L5.49506 6.90927C5.17564 7.71058 5 8.58478 5 9.5C5 13.366 8.13401 16.5 12 16.5C12.9152 16.5 13.7894 16.3244 14.5907 16.0049L16.0999 17.5141C14.8703 18.1444 13.4767 18.5 12 18.5C9.04682 18.5 6.42584 17.0777 4.78479 14.8806L2.96786 17.4243C2.69771 17.8025 2.45614 18.1406 2.28839 18.4275C2.12197 18.7122 1.92713 19.1073 1.94444 19.5741C1.96644 20.1675 2.25099 20.7204 2.72108 21.0832C3.09089 21.3687 3.52563 21.4398 3.85399 21.4698C4.18493 21.5 4.60053 21.5 5.06525 21.5H18.9345C19.3611 21.5 19.7461 21.5 20.0624 21.4766L20.2929 21.7071C20.6834 22.0976 21.3166 22.0976 21.7071 21.7071C22.0976 21.3166 22.0976 20.6834 21.7071 20.2929L3.70711 2.29289ZM12.0849 13.4991L8.00088 9.4151C8.0003 9.44333 8 9.47163 8 9.5C8 11.7091 9.79086 13.5 12 13.5C12.0284 13.5 12.0567 13.4997 12.0849 13.4991Z" fill="#0000CC"/>
<path d="M16 9.5C16 10.1631 15.8387 10.7885 15.5531 11.3391L17.7324 13.5184C18.5311 12.3811 19 10.9953 19 9.5C19 5.63401 15.866 2.5 12 2.5C10.5047 2.5 9.11889 2.96885 7.98159 3.76757L10.1609 5.94691C10.7115 5.66134 11.3369 5.5 12 5.5C14.2091 5.5 16 7.29086 16 9.5Z" fill="#0000CC"/>
<path d="M13.9822 9.76816L11.7318 7.51782C11.8196 7.50607 11.9091 7.5 12 7.5C13.1046 7.5 14 8.39543 14 9.5C14 9.59093 13.9939 9.68045 13.9822 9.76816Z" fill="#0000CC"/>
</svg>
