<svg width="24" height="24" viewBox="0 0 24 24" fill="none" xmlns="http://www.w3.org/2000/svg">
<path d="M10 10C10 8.89543 10.8954 8 12 8C13.1046 8 14 8.89543 14 10C14 11.1046 13.1046 12 12 12C10.8954 12 10 11.1046 10 10Z" fill="#0000CC"/>
<path fill-rule="evenodd" clip-rule="evenodd" d="M4 10C4 5.58172 7.58172 2 12 2C16.4183 2 20 5.58172 20 10C20 14.4183 16.4183 18 12 18C7.58172 18 4 14.4183 4 10ZM12 6C9.79086 6 8 7.79086 8 10C8 12.2091 9.79086 14 12 14C14.2091 14 16 12.2091 16 10C16 7.79086 14.2091 6 12 6Z" fill="#0000CC"/>
<path d="M12 19.9999C8.43817 19.9999 5.31128 18.1377 3.53979 15.3339C2.93662 16.0383 2.44169 16.6237 2.09033 17.1173C1.70845 17.6538 1.36627 18.2519 1.34956 18.9254C1.32653 19.853 1.73405 20.7391 2.45333 21.3253C2.97552 21.7509 3.65229 21.8803 4.30817 21.9395C4.97581 21.9998 5.84314 21.9998 6.90696 21.9998H17.0935C18.1573 21.9998 19.0246 21.9998 19.6922 21.9395C20.3481 21.8803 21.0248 21.7509 21.547 21.3253C22.2663 20.7391 22.6738 19.8531 22.6508 18.9255C22.6341 18.252 22.292 17.654 21.9102 17.1175C21.5588 16.6237 21.0637 16.0381 20.4604 15.3335C18.689 18.1376 15.562 19.9999 12 19.9999Z" fill="#0000CC"/>
</svg>
