<svg width="24" height="24" viewBox="0 0 24 24" fill="none" xmlns="http://www.w3.org/2000/svg">
<path d="M12.0002 2C12.5525 2 13.0002 2.44772 13.0002 3V5C13.0002 5.55228 12.5525 6 12.0002 6C11.4479 6 11.0002 5.55228 11.0002 5V3C11.0002 2.44772 11.4479 2 12.0002 2Z" fill="#0000CC"/>
<path d="M7.05301 3.10557C7.54698 2.85858 8.14766 3.05881 8.39465 3.55279L8.89465 4.55279C9.14164 5.04676 8.94141 5.64744 8.44743 5.89443C7.95345 6.14142 7.35278 5.94119 7.10579 5.44721L6.60579 4.44721C6.3588 3.95324 6.55903 3.35256 7.05301 3.10557Z" fill="#0000CC"/>
<path d="M16.9474 3.10557C17.4414 3.35256 17.6416 3.95324 17.3946 4.44721L16.8946 5.44721C16.6477 5.94119 16.047 6.14142 15.553 5.89443C15.059 5.64744 14.8588 5.04676 15.1058 4.55279L15.6058 3.55279C15.8528 3.05881 16.4535 2.85858 16.9474 3.10557Z" fill="#0000CC"/>
<path d="M12 15C13.1046 15 14 14.1046 14 13C14 11.8954 13.1046 11 12 11C10.8954 11 10 11.8954 10 13C10 14.1046 10.8954 15 12 15Z" fill="#0000CC"/>
<path fill-rule="evenodd" clip-rule="evenodd" d="M3 13C3 9.68629 5.68629 7 9 7H15C18.3137 7 21 9.68629 21 13C21 15.973 18.8377 18.441 16 18.917V20H17C17.5523 20 18 20.4477 18 21C18 21.5523 17.5523 22 17 22H7C6.44771 22 6 21.5523 6 21C6 20.4477 6.44772 20 7 20H8V18.917C5.16229 18.441 3 15.973 3 13ZM10 19V20H14V19H10ZM16 13C16 15.2091 14.2091 17 12 17C9.79086 17 8 15.2091 8 13C8 10.7909 9.79086 9 12 9C14.2091 9 16 10.7909 16 13Z" fill="#0000CC"/>
</svg>
