<svg width="24" height="24" viewBox="0 0 24 24" fill="none" xmlns="http://www.w3.org/2000/svg">
<path fill-rule="evenodd" clip-rule="evenodd" d="M13.4938 2H10.5065C9.99593 1.99999 9.55993 1.99998 9.2033 2.02579C8.83173 2.05268 8.45837 2.11184 8.0996 2.27811C7.29949 2.64892 6.70306 3.35299 6.46883 4.20317C6.39447 4.47308 6.37427 4.74138 6.38108 5.00669C6.16755 5.01114 5.97103 5.01855 5.79046 5.03087C5.32118 5.06289 4.88708 5.13142 4.46927 5.30448C3.48916 5.71046 2.71046 6.48916 2.30448 7.46927C2.13142 7.88708 2.06288 8.32118 2.03087 8.79046C1.99999 9.24307 1.99999 9.79593 2 10.4657V16.2413C1.99999 17.0463 1.99998 17.7106 2.0442 18.2518C2.09012 18.8139 2.18868 19.3306 2.43598 19.816C2.81947 20.5686 3.43139 21.1805 4.18404 21.564C4.66937 21.8113 5.18608 21.9099 5.74818 21.9558C6.28936 22 6.95372 22 7.75868 22H16.2413C17.0463 22 17.7106 22 18.2518 21.9558C18.8139 21.9099 19.3306 21.8113 19.816 21.564C20.5686 21.1805 21.1805 20.5686 21.564 19.816C21.8113 19.3306 21.9099 18.8139 21.9558 18.2518C22 17.7106 22 17.0463 22 16.2413V10.4657C22 9.79594 22 9.24307 21.9691 8.79046C21.9371 8.32118 21.8686 7.88708 21.6955 7.46927C21.2895 6.48916 20.5108 5.71046 19.5307 5.30448C19.1129 5.13142 18.6788 5.06289 18.2095 5.03087C18.0291 5.01855 17.8326 5.01115 17.6192 5.0067C17.626 4.74138 17.6058 4.47308 17.5315 4.20317C17.2972 3.35299 16.7008 2.64892 15.9007 2.27811C15.5419 2.11184 15.1686 2.05268 14.797 2.02579C14.4404 1.99998 14.0044 1.99999 13.4938 2ZM12.9494 6.31446L12.3911 8H13.4588C14.3434 8 14.5245 7.98493 14.6501 7.93889C14.8724 7.85741 15.0585 7.69972 15.1754 7.49389C15.2415 7.3776 15.2861 7.2014 15.4316 6.3288C15.5228 5.78114 15.5819 5.42305 15.6075 5.1478C15.6326 4.87935 15.6154 4.77826 15.6033 4.73439C15.5252 4.451 15.3264 4.21631 15.0597 4.09271C15.0184 4.07357 14.9215 4.04003 14.6526 4.02057C14.3769 4.00061 14.014 4 13.4588 4H10.5415C9.98632 4 9.62339 4.00061 9.34767 4.02057C9.07876 4.04003 8.98187 4.07357 8.94058 4.09271C8.67388 4.21631 8.47507 4.451 8.39699 4.73439C8.38491 4.77826 8.36775 4.87935 8.39276 5.1478C8.41841 5.42305 8.47747 5.78114 8.56875 6.3288C8.71418 7.2014 8.75883 7.3776 8.82488 7.49389C8.9418 7.69972 9.12793 7.85741 9.35018 7.93889C9.46251 7.98007 9.61931 7.99648 10.2844 7.99948L11.0509 5.68555C11.2245 5.16128 11.7903 4.87706 12.3146 5.05073C12.8389 5.2244 13.1231 5.79019 12.9494 6.31446ZM10 16C9.44772 16 9 16.4477 9 17C9 17.5523 9.44772 18 10 18H14C14.5523 18 15 17.5523 15 17C15 16.4477 14.5523 16 14 16H10Z" fill="#0000CC"/>
</svg>
