<svg width="24" height="24" viewBox="0 0 24 24" fill="none" xmlns="http://www.w3.org/2000/svg">
<path opacity="0.3" d="M14.1206 7.12183C13.881 7.3612 13.6014 7.56013 13.2928 7.70763C12.9002 7.89533 12.4609 8 12 8C11.5391 8 11.0998 7.89533 10.7072 7.70763C10.3986 7.56014 10.119 7.36121 9.87947 7.12186L8.78319 9.41925L3.86232 10.1034C3.49072 10.1551 3.17931 10.4104 3.05578 10.7646C2.93226 11.1189 3.01741 11.5125 3.27631 11.784L6.92116 15.6063L5.92565 20.8121C5.85559 21.1785 5.99524 21.5534 6.2879 21.7846C6.58057 22.0158 6.9776 22.065 7.3178 21.9121L12 19.8076L16.6822 21.9121C17.0225 22.065 17.4195 22.0158 17.7121 21.7846C18.0048 21.5534 18.1445 21.1785 18.0744 20.8121L17.0789 15.6063L20.7237 11.784C20.9826 11.5125 21.0678 11.1189 20.9443 10.7646C20.8207 10.4104 20.5093 10.1551 20.1377 10.1034L15.2169 9.41925L14.1206 7.12183Z" fill="#0000CC"/>
<path fill-rule="evenodd" clip-rule="evenodd" d="M12 4C11.4477 4 11 4.44772 11 5C11 5.39654 11.2307 5.74114 11.5698 5.90321C11.6989 5.96495 11.844 6 12 6C12.156 6 12.3011 5.96495 12.4302 5.90321C12.7693 5.74114 13 5.39654 13 5C13 4.44772 12.5523 4 12 4ZM9 5C9 3.34315 10.3431 2 12 2C13.6569 2 15 3.34315 15 5C15 6.19566 14.3005 7.22593 13.2928 7.70763C12.9002 7.89533 12.4609 8 12 8C11.5391 8 11.0998 7.89533 10.7072 7.70763C9.69953 7.22593 9 6.19566 9 5Z" fill="#0000CC"/>
</svg>
