<svg width="24" height="24" viewBox="0 0 24 24" fill="none" xmlns="http://www.w3.org/2000/svg">
<path opacity="0.3" fill-rule="evenodd" clip-rule="evenodd" d="M2 12C2 6.47715 6.47715 2 12 2C12.5523 2 13 2.44772 13 3C13 5.4289 14.5398 7 16 7C16.5523 7 17 7.44772 17 8C17 9.46016 18.5711 11 21 11C21.5523 11 22 11.4477 22 12C22 17.5228 17.5228 22 12 22C6.47715 22 2 17.5228 2 12Z" fill="#0000CC"/>
<path d="M6 10C6 9.44772 6.44772 9 7 9H7.01C7.56228 9 8.01 9.44772 8.01 10C8.01 10.5523 7.56228 11 7.01 11H7C6.44772 11 6 10.5523 6 10Z" fill="#0000CC"/>
<path d="M11 11C11 10.4477 11.4477 10 12 10H12.01C12.5623 10 13.01 10.4477 13.01 11C13.01 11.5523 12.5623 12 12.01 12H12C11.4477 12 11 11.5523 11 11Z" fill="#0000CC"/>
<path d="M8 16C8 15.4477 8.44772 15 9 15H9.01C9.56228 15 10.01 15.4477 10.01 16C10.01 16.5523 9.56228 17 9.01 17H9C8.44772 17 8 16.5523 8 16Z" fill="#0000CC"/>
<path d="M14 16C14 15.4477 14.4477 15 15 15H15.01C15.5623 15 16.01 15.4477 16.01 16C16.01 16.5523 15.5623 17 15.01 17H15C14.4477 17 14 16.5523 14 16Z" fill="#0000CC"/>
</svg>
