<svg width="24" height="24" viewBox="0 0 24 24" fill="none" xmlns="http://www.w3.org/2000/svg">
<path opacity="0.3" d="M3.60064 5.20147C3.15905 4.86978 2.53218 4.95887 2.20049 5.40046C1.8688 5.84205 1.95789 6.46891 2.39948 6.8006C3.62545 7.72147 4.98833 8.47041 6.45185 9.01152L5.37384 11.2967C5.70254 11.3289 6.03164 11.4164 6.34824 11.5641C6.66722 11.7128 6.94789 11.9107 7.18536 12.1443L8.38997 9.59078C9.23672 9.78611 10.1091 9.91424 11.0011 9.96923V12.1707C11.3137 12.0602 11.6502 11.9999 12.0009 11.9999C12.3516 11.9999 12.6883 12.0603 13.0011 12.1709V9.9691C13.894 9.91394 14.7672 9.7855 15.6148 9.58971L16.8313 12.1461C17.0691 11.9117 17.3504 11.7132 17.6702 11.5641C17.986 11.4168 18.3142 11.3294 18.6421 11.2969L17.5536 9.00955C19.0151 8.46859 20.3762 7.72035 21.6006 6.8006C22.0422 6.46891 22.1313 5.84205 21.7996 5.40046C21.4679 4.95887 20.8411 4.86978 20.3995 5.20147C18.0597 6.95893 15.1529 7.99994 12.0001 7.99994C10.6613 7.99994 9.36691 7.81224 8.14146 7.4617C8.12367 7.45603 8.10581 7.45089 8.0879 7.44627C6.44789 6.97002 4.93241 6.2018 3.60064 5.20147Z" fill="#0000CC"/>
<path fill-rule="evenodd" clip-rule="evenodd" d="M3.56715 11.6924C4.38543 11.2151 5.41989 11.1316 6.34727 11.5641C7.2738 11.9961 7.87706 12.8424 8.03756 13.777C8.16402 14.5134 7.90125 15.1377 7.55496 15.5942C7.21918 16.0369 6.77169 16.3725 6.37791 16.612L4.33217 17.8563C4.04651 18.03 3.69291 18.0495 3.38989 17.9082C3.08686 17.7669 2.8745 17.4835 2.82398 17.153L2.46221 14.786C2.39257 14.3304 2.362 13.7719 2.48525 13.2302C2.61236 12.6715 2.92172 12.0689 3.56715 11.6924ZM17.6692 11.5641C18.5966 11.1316 19.6311 11.2151 20.4493 11.6924C21.0948 12.0689 21.4041 12.6715 21.5312 13.2302C21.6545 13.7719 21.6239 14.3304 21.5543 14.786L21.1925 17.153C21.142 17.4835 20.9296 17.7669 20.6266 17.9082C20.3236 18.0495 19.97 18.03 19.6843 17.8563L17.6386 16.612C17.2448 16.3725 16.7973 16.0369 16.4615 15.5942C16.1152 15.1377 15.8525 14.5134 15.9789 13.777C16.1394 12.8424 16.7427 11.9961 17.6692 11.5641ZM9.53362 13.2916C10.0735 12.5131 10.9767 11.9999 11.9999 11.9999C13.0231 11.9999 13.9262 12.5131 14.4662 13.2916C14.892 13.9055 14.9177 14.5824 14.7968 15.1425C14.6795 15.6856 14.4158 16.1788 14.1601 16.5623L12.8319 18.5546C12.6465 18.8328 12.3342 18.9999 11.9999 18.9999C11.6655 18.9999 11.3533 18.8328 11.1678 18.5546L9.83964 16.5623C9.58398 16.1788 9.32023 15.6856 9.20299 15.1425C9.08207 14.5824 9.10777 13.9055 9.53362 13.2916Z" fill="#0000CC"/>
</svg>
