<svg width="24" height="24" viewBox="0 0 24 24" fill="none" xmlns="http://www.w3.org/2000/svg">
<path opacity="0.3" fill-rule="evenodd" clip-rule="evenodd" d="M12 6C12.5523 6 13 6.44772 13 7V16H15V9C15 8.44772 15.4477 8 16 8C16.5523 8 17 8.44772 17 9V15.9999C17.4651 15.9995 17.783 15.9964 18.0322 15.9761C18.3038 15.9539 18.4045 15.9162 18.454 15.891C18.6422 15.7951 18.7951 15.6422 18.891 15.454C18.9162 15.4045 18.9539 15.3038 18.9761 15.0322C18.9992 14.7488 19 14.3766 19 13.8V9C19 8.44772 19.4477 8 20 8C20.5523 8 21 8.44772 21 9V13.8386C21 14.3657 21 14.8205 20.9694 15.195C20.9371 15.5904 20.8658 15.9836 20.673 16.362C20.3854 16.9265 19.9265 17.3854 19.362 17.673C18.9836 17.8658 18.5904 17.9371 18.195 17.9694C17.8205 18 17.3657 18 16.8385 18H13V20H16C16.5523 20 17 20.4477 17 21C17 21.5523 16.5523 22 16 22H8C7.44772 22 7 21.5523 7 21C7 20.4477 7.44772 20 8 20H11V18H7.16148C6.63432 18 6.17955 18 5.80497 17.9694C5.40963 17.9371 5.01641 17.8658 4.63803 17.673C4.07355 17.3854 3.6146 16.9265 3.32698 16.362C3.13419 15.9836 3.06287 15.5904 3.03057 15.195C2.99997 14.8205 2.99998 14.3657 3 13.8385L3 9C3 8.44772 3.44772 8 4 8C4.55229 8 5 8.44772 5 9V13.8C5 14.3766 5.00078 14.7488 5.02393 15.0322C5.04612 15.3038 5.0838 15.4045 5.109 15.454C5.20487 15.6422 5.35785 15.7951 5.54601 15.891C5.59545 15.9162 5.69617 15.9539 5.96784 15.9761C6.21698 15.9964 6.5349 15.9995 7 15.9999V9C7 8.44772 7.44772 8 8 8C8.55229 8 9 8.44772 9 9V16H11V7C11 6.44772 11.4477 6 12 6Z" fill="#0000CC"/>
<path d="M12 2C12.5523 2 13 2.44772 13 3V4C13 4.55228 12.5523 5 12 5C11.4477 5 11 4.55228 11 4V3C11 2.44772 11.4477 2 12 2Z" fill="#0000CC"/>
<path d="M4 4C4.55228 4 5 4.44772 5 5V6C5 6.55228 4.55228 7 4 7C3.44772 7 3 6.55228 3 6V5C3 4.44772 3.44772 4 4 4Z" fill="#0000CC"/>
<path d="M8 4C8.55228 4 9 4.44772 9 5V6C9 6.55228 8.55228 7 8 7C7.44772 7 7 6.55228 7 6V5C7 4.44772 7.44772 4 8 4Z" fill="#0000CC"/>
<path d="M16 4C16.5523 4 17 4.44772 17 5V6C17 6.55228 16.5523 7 16 7C15.4477 7 15 6.55228 15 6V5C15 4.44772 15.4477 4 16 4Z" fill="#0000CC"/>
<path d="M20 4C20.5523 4 21 4.44772 21 5V6C21 6.55228 20.5523 7 20 7C19.4477 7 19 6.55228 19 6V5C19 4.44772 19.4477 4 20 4Z" fill="#0000CC"/>
</svg>
