<svg width="24" height="24" viewBox="0 0 24 24" fill="none" xmlns="http://www.w3.org/2000/svg">
<path opacity="0.3" fill-rule="evenodd" clip-rule="evenodd" d="M12 6C12.5523 6 13 6.44772 13 7V12.874C14.7252 12.4299 16 10.8638 16 9C16 8.44772 16.4477 8 17 8C17.5523 8 18 8.44772 18 9C18 11.973 15.8377 14.441 13 14.917V16.9381C16.9463 16.446 20 13.0796 20 9C20 8.44772 20.4477 8 21 8C21.5523 8 22 8.44772 22 9C22 14.1853 18.0533 18.4489 13 18.9506V20H16C16.5523 20 17 20.4477 17 21C17 21.5523 16.5523 22 16 22H8C7.44772 22 7 21.5523 7 21C7 20.4477 7.44772 20 8 20H11V18.9506C5.94668 18.4489 2 14.1853 2 9C2 8.44772 2.44772 8 3 8C3.55228 8 4 8.44772 4 9C4 13.0796 7.05369 16.446 11 16.9381V14.917C8.16229 14.441 6 11.973 6 9C6 8.44772 6.44772 8 7 8C7.55228 8 8 8.44772 8 9C8 10.8638 9.27477 12.4299 11 12.874V7C11 6.44772 11.4477 6 12 6Z" fill="#0000CC"/>
<path d="M12 2C12.5523 2 13 2.44772 13 3V4C13 4.55228 12.5523 5 12 5C11.4477 5 11 4.55228 11 4V3C11 2.44772 11.4477 2 12 2Z" fill="#0000CC"/>
<path d="M3 4C3.55228 4 4 4.44772 4 5V6C4 6.55228 3.55228 7 3 7C2.44772 7 2 6.55228 2 6V5C2 4.44772 2.44772 4 3 4Z" fill="#0000CC"/>
<path d="M7 4C7.55228 4 8 4.44772 8 5V6C8 6.55228 7.55228 7 7 7C6.44772 7 6 6.55228 6 6V5C6 4.44772 6.44772 4 7 4Z" fill="#0000CC"/>
<path d="M17 4C17.5523 4 18 4.44772 18 5V6C18 6.55228 17.5523 7 17 7C16.4477 7 16 6.55228 16 6V5C16 4.44772 16.4477 4 17 4Z" fill="#0000CC"/>
<path d="M21 4C21.5523 4 22 4.44772 22 5V6C22 6.55228 21.5523 7 21 7C20.4477 7 20 6.55228 20 6V5C20 4.44772 20.4477 4 21 4Z" fill="#0000CC"/>
</svg>
