<svg width="24" height="24" viewBox="0 0 24 24" fill="none" xmlns="http://www.w3.org/2000/svg">
<g opacity="0.3">
<path d="M3.05469 13.9992C3.55176 18.4995 7.36701 22 11.9998 22C16.6327 22 20.4479 18.4995 20.945 13.9992C18.7477 16.4547 15.5542 18 11.9998 18C8.44545 18 5.25199 16.4547 3.05469 13.9992Z" fill="#0000CC"/>
<path d="M20.3449 9.62323C20.5061 10.0211 20.6396 10.4332 20.7432 10.8571C19.0354 13.9247 15.76 16 11.9998 16C8.23973 16 4.96432 13.9247 3.25654 10.8571C3.36006 10.4332 3.4936 10.0211 3.65477 9.62322C5.81437 11.7136 8.75688 13 11.9998 13C15.2428 13 18.1853 11.7136 20.3449 9.62323Z" fill="#0000CC"/>
<path d="M4.65948 7.79117C6.29055 5.49678 8.9704 4 11.9998 4C15.0293 4 17.7091 5.49679 19.3402 7.79117C17.5136 9.7646 14.901 11 11.9998 11C9.09872 11 6.48614 9.76459 4.65948 7.79117Z" fill="#0000CC"/>
</g>
<path d="M12 3C11.4477 3 11 3.44772 11 4V4.05493C10.3065 4.13159 9.63682 4.28703 9 4.51212V4C9 2.34315 10.3431 1 12 1C13.6569 1 15 2.34315 15 4V4.51212C14.3632 4.28703 13.6935 4.13159 13 4.05493V4C13 3.44772 12.5523 3 12 3Z" fill="#0000CC"/>
<path d="M20.0338 8.93889C20.1467 9.16181 20.2507 9.39008 20.3451 9.6232C18.1855 11.7136 15.243 13 12 13C8.75703 13 5.81453 11.7136 3.65493 9.62319C3.91909 8.97101 4.25748 8.35683 4.65963 7.79114C6.48629 9.76457 9.09887 11 12 11C14.9011 11 17.5137 9.76457 19.3404 7.79114C19.591 8.14376 19.8169 8.51522 20.0155 8.90298C20.0219 8.91486 20.028 8.92683 20.0338 8.93889Z" fill="#0000CC"/>
<path d="M12 18C15.5544 18 18.7479 16.4546 20.9452 13.9992C20.9814 13.6711 21 13.3377 21 13C21 12.2615 20.9111 11.5438 20.7433 10.857C19.0355 13.9247 15.7601 16 12 16C8.23988 16 4.96447 13.9247 3.25669 10.857C3.08894 11.5438 3 12.2615 3 13C3 13.2042 3.0068 13.4067 3.02018 13.6075C3.02101 13.6305 3.02263 13.6534 3.02503 13.6763C3.03306 13.7844 3.04301 13.8921 3.05484 13.9991C5.25214 16.4546 8.4456 18 12 18Z" fill="#0000CC"/>
</svg>
