<svg width="24" height="24" viewBox="0 0 24 24" fill="none" xmlns="http://www.w3.org/2000/svg">
<path opacity="0.3" d="M2.58762 2.66142C6.72713 1.14175 11.1485 3.77911 11.8919 8.00003L15.0742 8.00001C15.5136 7.99988 15.8414 7.99977 16.1421 8.04551C16.9149 8.16305 17.6205 8.50103 18.1863 9.00003H19C21.2091 9.00003 23 10.7909 23 13C23 13.5523 22.5523 14 22 14C21.4477 14 21 13.5523 21 13C21 12.0399 20.3234 11.2377 19.4209 11.0444C19.4657 11.2286 19.5067 11.4339 19.5544 11.6729L20.713 17.4659C19.3961 18.4382 17.8897 19.1675 16.259 19.5884L15.0198 16.8651C14.359 16.9541 13.6852 17 13.0007 17C12.3224 17 11.6538 16.9549 10.9983 16.8674L9.82469 19.6097C8.14516 19.1882 6.59565 18.4399 5.24686 17.4361L6.15393 11.9937L6.10366 12.0206C5.6045 12.2858 5.06124 12.5179 4.48753 12.5059C3.36473 12.4825 2.34904 11.8339 1.85545 10.8251C1.60324 10.3097 1.58526 9.71919 1.61591 9.15477C1.64712 8.58011 1.74487 7.84704 1.86461 6.94907L1.96816 6.17242L1.10557 4.44724C0.983441 4.20298 0.966522 3.91939 1.05874 3.66234C1.15097 3.40528 1.3443 3.19713 1.59386 3.08622L1.64347 3.06417C2.09337 2.86419 2.36896 2.74169 2.58762 2.66142Z" fill="#0000CC"/>
<path d="M12 10V10.0293C12.0154 10.568 12.4571 11.0001 12.9996 11.0001C13.5519 11.0001 13.9996 10.5523 13.9996 10H12Z" fill="#0000CC"/>
<path d="M4.64326 16.9586C4.22039 16.6033 3.58961 16.6582 3.23436 17.081C2.87911 17.5039 2.93392 18.1347 3.35679 18.4899C5.96375 20.68 9.32904 22 13 22C16.671 22 20.0363 20.68 22.6433 18.4899C23.0661 18.1347 23.1209 17.5039 22.7657 17.081C22.4104 16.6582 21.7797 16.6033 21.3568 16.9586C19.0967 18.8573 16.1831 20 13 20C9.81694 20 6.90336 18.8573 4.64326 16.9586Z" fill="#0000CC"/>
</svg>
