<svg width="24" height="24" viewBox="0 0 24 24" fill="none" xmlns="http://www.w3.org/2000/svg">
<path opacity="0.3" d="M11 7.82935V8.66672C11 9.00811 10.9978 9.08197 10.9914 9.13058C10.9324 9.57931 10.5793 9.93242 10.1305 9.9915C10.0819 9.9979 10.0081 10.0001 9.66667 10.0001H9C6.79086 10.0001 5 11.7909 5 14.0001C5 16.2092 6.79086 18.0001 9 18.0001H17C18.6569 18.0001 20 16.6569 20 15.0001V7.82935C19.6872 7.9399 19.3506 8.00005 19 8.00005H12C11.6494 8.00005 11.3128 7.9399 11 7.82935Z" fill="#0000CC"/>
<path d="M12 2C10.3431 2 9 3.34315 9 5C9 6.65685 10.3431 8 12 8H19C20.6569 8 22 6.65685 22 5C22 3.34315 20.6569 2 19 2H12Z" fill="#0000CC"/>
<path d="M9.00015 20V18H11.0001V20H15.0001V18H17.0001V20H21.0001C21.5524 20 22.0001 20.4477 22.0001 21C22.0001 21.5523 21.5524 22 21.0001 22H9.00015C6.08888 22 3.54193 20.4443 2.14362 18.1237C1.85859 17.6506 2.011 17.0361 2.48404 16.751C2.95709 16.466 3.57164 16.6184 3.85667 17.0915C4.90816 18.8365 6.81877 20 9.00015 20Z" fill="#0000CC"/>
</svg>
