<svg width="24" height="24" viewBox="0 0 24 24" fill="none" xmlns="http://www.w3.org/2000/svg">
<path opacity="0.3" d="M8.99945 8L8.99945 12.4197L7.09766 13.5064C4.26723 15.1238 3.91997 19.0688 6.42434 21.1558C7.90782 22.392 9.99879 22.5888 11.6868 21.651L15.7824 19.3757C17.768 18.2726 18.9994 16.1797 18.9994 13.9082V8L8.99945 8C8.99963 8 8.99927 8 8.99945 8Z" fill="#0000CC"/>
<path fill-rule="evenodd" clip-rule="evenodd" d="M8 3C8 2.44772 8.44772 2 9 2H19C19.5523 2 20 2.44772 20 3V7C20 7.55228 19.5523 8 19 8H9C8.44772 8 8 7.55228 8 7V3Z" fill="#0000CC"/>
</svg>
