<svg width="24" height="24" viewBox="0 0 24 24" fill="none" xmlns="http://www.w3.org/2000/svg">
<path opacity="0.3" fill-rule="evenodd" clip-rule="evenodd" d="M11.4408 2.39689C11.8061 2.29048 12.1941 2.29048 12.5594 2.39689C12.8194 2.47261 13.0248 2.6003 13.191 2.72215C13.3405 2.83179 13.5045 2.97236 13.6704 3.11458L18.038 6.85825C18.2663 7.05393 18.4848 7.24112 18.6454 7.40475C18.7803 7.54217 19.0754 7.85115 19.1354 8.30216C19.2008 8.79425 19.0186 9.28686 18.6487 9.61787C18.445 9.8001 18.2103 9.88824 18.0137 9.93316L19.0849 10.8705C19.308 11.0656 19.5221 11.2529 19.6796 11.4168C19.813 11.5555 20.1013 11.8648 20.1576 12.3128C20.2193 12.8032 20.0355 13.2925 19.6661 13.6209C19.6252 13.6573 19.5831 13.6899 19.5403 13.7191L20.6772 15.0666C20.8339 15.2522 20.9922 15.4398 21.1075 15.6046C21.2162 15.7599 21.4159 16.0666 21.4237 16.471C21.4327 16.9332 21.228 17.3737 20.869 17.6649C20.5548 17.9197 20.1917 17.9649 20.0029 17.982C19.8025 18.0001 19.5571 18 19.3143 18H4.68591C4.44312 18 4.19768 18.0001 3.99734 17.982C3.80854 17.9649 3.44536 17.9197 3.13124 17.6649C2.7722 17.3737 2.5675 16.9332 2.57645 16.471C2.58428 16.0666 2.78397 15.7599 2.89267 15.6046C3.00802 15.4398 3.16633 15.2522 3.32294 15.0667L4.45992 13.7191C4.41712 13.6899 4.37498 13.6573 4.33407 13.6209C3.96471 13.2925 3.78086 12.8032 3.84255 12.3128C3.89891 11.8648 4.18715 11.5555 4.32056 11.4168C4.47805 11.2529 4.6922 11.0656 4.91524 10.8705C4.9248 10.8621 4.93437 10.8537 4.94395 10.8454L5.98646 9.93316C5.78991 9.88824 5.55522 9.8001 5.35154 9.61787C4.98158 9.28686 4.79935 8.79425 4.86483 8.30216C4.92484 7.85115 5.21985 7.54217 5.35477 7.40475C5.51543 7.24111 5.73387 7.05393 5.96222 6.85824C5.97189 6.84996 5.98158 6.84165 5.99128 6.83334L10.3298 3.1146C10.4957 2.97237 10.6597 2.83179 10.8092 2.72215C10.9754 2.6003 11.1808 2.47261 11.4408 2.39689Z" fill="#0000CC"/>
<path d="M8 18V21C8 21.5523 8.44772 22 9 22H15C15.5523 22 16 21.5523 16 21V18H8Z" fill="#0000CC"/>
</svg>
