<svg width="24" height="24" viewBox="0 0 24 24" fill="none" xmlns="http://www.w3.org/2000/svg">
<path fill-rule="evenodd" clip-rule="evenodd" d="M12.4696 2.20197C12.1586 2.15273 11.8419 2.15273 11.531 2.20197C11.177 2.25803 10.8457 2.39563 10.4699 2.55169L6.40121 4.23701C6.02515 4.39237 5.69358 4.52935 5.40367 4.73998C5.14899 4.92501 4.92501 5.14899 4.73998 5.40367C4.52935 5.69358 4.39237 6.02514 4.23701 6.40121L2.55169 10.4699C2.39563 10.8457 2.25803 11.177 2.20197 11.531C2.15273 11.8419 2.15273 12.1586 2.20197 12.4696C2.25803 12.8235 2.39563 13.1548 2.55169 13.5306L4.237 17.5993C4.39237 17.9754 4.52935 18.3069 4.73998 18.5968C4.92501 18.8515 5.14899 19.0755 5.40367 19.2605C5.69357 19.4712 6.02512 19.6081 6.40117 19.7635L10.4699 21.4488C10.8457 21.6049 11.177 21.7425 11.531 21.7985C11.8419 21.8478 12.1586 21.8478 12.4696 21.7985C12.8235 21.7425 13.1548 21.6049 13.5306 21.4488L17.5993 19.7635C17.9753 19.6081 18.3069 19.4712 18.5968 19.2605C18.8515 19.0755 19.0755 18.8515 19.2605 18.5968C19.4712 18.3069 19.6081 17.9754 19.7635 17.5993L21.4488 13.5306C21.6049 13.1548 21.7425 12.8235 21.7985 12.4696C21.8478 12.1586 21.8478 11.8419 21.7985 11.531C21.7425 11.177 21.6049 10.8457 21.4488 10.4699L19.7635 6.40121C19.6081 6.02515 19.4712 5.69357 19.2605 5.40367C19.0755 5.14899 18.8515 4.92501 18.5968 4.73998C18.3069 4.52935 17.9754 4.39237 17.5993 4.23701L13.5306 2.55169C13.1548 2.39563 12.8235 2.25803 12.4696 2.20197ZM12 7.00024C12.5523 7.00024 13 7.44796 13 8.00024V13.0002C13 13.5525 12.5523 14.0002 12 14.0002C11.4477 14.0002 11 13.5525 11 13.0002V8.00024C11 7.44796 11.4477 7.00024 12 7.00024ZM13 16.0002C13 16.5525 12.5523 17.0002 12 17.0002C11.4477 17.0002 11 16.5525 11 16.0002C11 15.448 11.4477 15.0002 12 15.0002C12.5523 15.0002 13 15.448 13 16.0002Z" fill="#0000CC"/>
</svg>
