<svg width="24" height="24" viewBox="0 0 24 24" fill="none" xmlns="http://www.w3.org/2000/svg">
<path fill-rule="evenodd" clip-rule="evenodd" d="M5.5356 5.5356C6.84836 4.22285 8.62884 3.48535 10.4854 3.48535C12.3419 3.48535 14.1223 4.22285 15.4351 5.5356C15.6226 5.72314 15.728 5.97749 15.728 6.24271C15.728 6.50793 15.6226 6.76228 15.4351 6.94982L6.94982 15.4351C6.76228 15.6226 6.50793 15.728 6.24271 15.728C5.97749 15.728 5.72314 15.6226 5.5356 15.4351C4.22285 14.1223 3.48535 12.3419 3.48535 10.4854C3.48535 8.62884 4.22285 6.84836 5.5356 5.5356ZM19.6695 6.00004C20.2217 6.00515 20.6653 6.45699 20.6602 7.00925L20.6601 7.01925C20.655 7.57151 20.2031 8.01507 19.6509 8.00996C19.0986 8.00485 18.6551 7.55301 18.6602 7.00075L18.6603 6.99075C18.6654 6.43849 19.1172 5.99493 19.6695 6.00004ZM15.6055 9.66032C15.9244 9.20939 16.5484 9.10232 16.9994 9.42119C17.5146 9.78553 17.9176 10.0171 18.3262 10.1284C18.7073 10.2323 19.1581 10.2484 19.7859 10.0533C20.3133 9.88939 20.8737 10.1841 21.0376 10.7115C21.2015 11.2389 20.9068 11.7993 20.3794 11.9632C19.4246 12.2599 18.5841 12.2718 17.8001 12.058C17.0435 11.8518 16.4075 11.4522 15.8447 11.0542C15.3937 10.7353 15.2867 10.1113 15.6055 9.66032ZM13.9721 11.6576C14.5241 11.6405 14.9855 12.0741 15.0025 12.6262C15.0437 13.958 15.53 14.769 15.9927 15.0057C16.3007 15.1632 16.7127 15.2333 17.2386 15.2737C17.3209 15.28 17.4404 15.2876 17.5655 15.2956C17.7273 15.3059 17.8986 15.3168 18.0116 15.3263C18.2556 15.3468 18.5607 15.3812 18.8417 15.4726C19.4107 15.6575 19.9735 16.0334 20.3839 16.6504C20.7926 17.2647 21.009 18.0552 21.0002 19.0088C20.9951 19.5611 20.5433 20.0047 19.991 19.9996C19.4388 19.9945 18.9952 19.5427 19.0003 18.9904C19.0062 18.3489 18.8613 17.9724 18.7187 17.7581C18.5779 17.5464 18.3995 17.4319 18.2234 17.3746C18.1763 17.3593 18.0674 17.3381 17.8438 17.3192C17.7075 17.3078 17.605 17.3017 17.4903 17.2949C17.3802 17.2883 17.2589 17.2811 17.0857 17.2678C16.5268 17.2249 15.7692 17.1379 15.0818 16.7862C13.6411 16.0492 13.0528 14.2827 13.0035 12.688C12.9864 12.136 13.4201 11.6746 13.9721 11.6576ZM10.3462 14.8995C10.7302 14.5026 11.3633 14.4922 11.7602 14.8763C12.8764 15.9564 13.5001 17.2105 13.5001 19C13.5001 19.5523 13.0523 20 12.5001 20C11.9478 20 11.5001 19.5523 11.5001 19C11.5001 17.7895 11.1238 17.0435 10.3694 16.3135C9.97249 15.9294 9.9621 15.2963 10.3462 14.8995ZM7.6592 18C8.21146 18.0051 8.65503 18.457 8.64993 19.0092L8.64984 19.0192C8.64474 19.5715 8.19291 20.0151 7.64065 20.01C7.08839 20.0049 6.64483 19.553 6.64992 19.0008L6.65002 18.9908C6.65511 18.4385 7.10694 17.9949 7.6592 18ZM16.0088 19C16.5611 19.0052 17.0046 19.457 16.9995 20.0093L16.9994 20.0193C16.9943 20.5715 16.5425 21.0151 15.9902 21.01C15.438 21.0048 14.9944 20.553 14.9995 20.0007L14.9996 19.9907C15.0047 19.4385 15.4566 18.9949 16.0088 19Z" fill="#0000CC"/>
</svg>
