<svg width="24" height="24" viewBox="0 0 24 24" fill="none" xmlns="http://www.w3.org/2000/svg">
<path fill-rule="evenodd" clip-rule="evenodd" d="M1 8.8C1 7.11984 1 6.27976 1.32698 5.63803C1.6146 5.07354 2.07354 4.6146 2.63803 4.32698C3.27976 4 4.11984 4 5.8 4H12.2C13.8802 4 14.7202 4 15.362 4.32698C15.9265 4.6146 16.3854 5.07354 16.673 5.63803C17 6.27976 17 7.11984 17 8.8V15.2C17 16.8802 17 17.7202 16.673 18.362C16.3854 18.9265 15.9265 19.3854 15.362 19.673C14.7202 20 13.8802 20 12.2 20H5.8C4.11984 20 3.27976 20 2.63803 19.673C2.07354 19.3854 1.6146 18.9265 1.32698 18.362C1 17.7202 1 16.8802 1 15.2V8.8ZM5 7C4.44772 7 4 7.44772 4 8V12C4 12.5523 4.44772 13 5 13C5.55228 13 6 12.5523 6 12V8C6 7.44772 5.55228 7 5 7ZM9 7C8.44771 7 8 7.44772 8 8V12C8 12.5523 8.44771 13 9 13C9.55229 13 10 12.5523 10 12V8C10 7.44772 9.55229 7 9 7Z" fill="#0000CC"/>
<path d="M22.7071 6.70711C23.0976 6.31658 23.0976 5.68342 22.7071 5.29289C22.3166 4.90237 21.6834 4.90237 21.2929 5.29289L19.2929 7.29289C18.9024 7.68342 18.9024 8.31658 19.2929 8.70711C19.6834 9.09763 20.3166 9.09763 20.7071 8.70711L22.7071 6.70711Z" fill="#0000CC"/>
<path d="M22 11H20C19.4477 11 19 11.4477 19 12C19 12.5523 19.4477 13 20 13H22C22.5523 13 23 12.5523 23 12C23 11.4477 22.5523 11 22 11Z" fill="#0000CC"/>
<path d="M19.2929 16.7071C18.9024 16.3166 18.9024 15.6834 19.2929 15.2929C19.6834 14.9024 20.3166 14.9024 20.7071 15.2929L22.7071 17.2929C23.0976 17.6834 23.0976 18.3166 22.7071 18.7071C22.3166 19.0976 21.6834 19.0976 21.2929 18.7071L19.2929 16.7071Z" fill="#0000CC"/>
</svg>
