<svg width="24" height="24" viewBox="0 0 24 24" fill="none" xmlns="http://www.w3.org/2000/svg">
<path fill-rule="evenodd" clip-rule="evenodd" d="M13.2425 2.41949C12.4529 2.06004 11.5463 2.06004 10.7567 2.41949C10.1959 2.67477 9.80235 3.1435 9.47115 3.63359C9.14128 4.1217 8.78014 4.77835 8.34331 5.57263L2.70821 15.8183C2.29879 16.5626 1.9584 17.1815 1.73486 17.6939C1.50861 18.2124 1.33297 18.7683 1.40347 19.3567C1.50359 20.1923 1.95006 20.9474 2.63396 21.4378C3.11559 21.7832 3.68728 21.8971 4.25069 21.9488C4.80735 21.9999 5.51364 21.9998 6.36316 21.9998H17.6361C18.4856 21.9998 19.1919 21.9999 19.7486 21.9488C20.312 21.8971 20.8837 21.7832 21.3653 21.4378C22.0492 20.9474 22.4957 20.1923 22.5958 19.3567C22.6663 18.7683 22.4906 18.2124 22.2644 17.6939C22.0409 17.1815 21.7005 16.5627 21.2911 15.8184L15.6559 5.5726C15.2191 4.77834 14.858 4.1217 14.5281 3.63359C14.1969 3.1435 13.8033 2.67477 13.2425 2.41949ZM12.9996 9.99982C12.9996 9.44753 12.5519 8.99982 11.9996 8.99982C11.4473 8.99982 10.9996 9.44753 10.9996 9.99982V13.9998C10.9996 14.5521 11.4473 14.9998 11.9996 14.9998C12.5519 14.9998 12.9996 14.5521 12.9996 13.9998V9.99982ZM11.9996 15.9998C11.4473 15.9998 10.9996 16.4475 10.9996 16.9998C10.9996 17.5521 11.4473 17.9998 11.9996 17.9998H12.0096C12.5619 17.9998 13.0096 17.5521 13.0096 16.9998C13.0096 16.4475 12.5619 15.9998 12.0096 15.9998H11.9996Z" fill="#0000CC"/>
</svg>
