<svg width="24" height="24" viewBox="0 0 24 24" fill="none" xmlns="http://www.w3.org/2000/svg">
<path fill-rule="evenodd" clip-rule="evenodd" d="M12 3.5C12.5523 3.5 13 3.94772 13 4.5V15.5001C13 16.0524 12.5523 16.5001 12 16.5001C11.4477 16.5001 11 16.0524 11 15.5001V4.5C11 3.94772 11.4477 3.5 12 3.5ZM8.96397 5.27313C9.1109 5.8055 8.79844 6.3562 8.26606 6.50314C6.15981 7.08446 4.25153 8.14629 2.66692 9.56455C2.2554 9.93287 1.6232 9.89785 1.25487 9.48633C0.886548 9.0748 0.921569 8.4426 1.3331 8.07428C3.14233 6.45497 5.32353 5.24049 7.73396 4.57522C8.26634 4.42828 8.81703 4.74075 8.96397 5.27313ZM15.0361 5.27313C15.183 4.74075 15.7337 4.42828 16.2661 4.57522C18.6765 5.24049 20.8577 6.45497 22.6669 8.07428C23.0784 8.4426 23.1135 9.0748 22.7451 9.48633C22.3768 9.89785 21.7446 9.93287 21.3331 9.56455C19.7485 8.14628 17.8402 7.08446 15.734 6.50314C15.2016 6.3562 14.8891 5.8055 15.0361 5.27313ZM8.91636 10.4317C9.13748 10.9377 8.90647 11.5273 8.40038 11.7484C7.39079 12.1895 6.47699 12.811 5.70005 13.5726C5.30567 13.9592 4.67253 13.9529 4.28591 13.5586C3.89929 13.1642 3.90558 12.531 4.29997 12.1444C5.24805 11.215 6.3643 10.4554 7.59964 9.91568C8.10573 9.69456 8.69524 9.92557 8.91636 10.4317ZM15.0837 10.4317C15.3048 9.92557 15.8943 9.69456 16.4004 9.91568C17.6357 10.4554 18.752 11.215 19.7001 12.1444C20.0944 12.531 20.1007 13.1642 19.7141 13.5586C19.3275 13.9529 18.6944 13.9592 18.3 13.5726C17.523 12.811 16.6092 12.1895 15.5996 11.7484C15.0935 11.5273 14.8625 10.9377 15.0837 10.4317ZM11 19.4999C11 18.9477 11.4477 18.4999 12 18.4999H12.01C12.5623 18.4999 13.01 18.9477 13.01 19.4999C13.01 20.0522 12.5623 20.4999 12.01 20.4999H12C11.4477 20.4999 11 20.0522 11 19.4999Z" fill="#0000CC"/>
</svg>
