<svg width="24" height="24" viewBox="0 0 24 24" fill="none" xmlns="http://www.w3.org/2000/svg">
<path d="M16.0909 2C14.3336 2 12.9091 3.42455 12.9091 5.18182C12.9091 5.76969 13.0687 6.32106 13.3468 6.79396L6.7934 13.3474C6.32108 13.0692 5.77013 12.9091 5.18182 12.9091C3.42455 12.9091 2 14.3336 2 16.0909C2 17.7036 3.19985 19.0361 4.75558 19.2444C4.96386 20.8002 6.29635 22 7.90909 22C9.66636 22 11.0909 20.5755 11.0909 18.8182C11.0909 18.2296 10.9303 17.6783 10.6519 17.2058L17.2052 10.6525C17.6783 10.9309 18.23 11.0909 18.8182 11.0909C20.5755 11.0909 22 9.66636 22 7.90909C22 6.29635 20.8002 4.96386 19.2444 4.75558C19.0361 3.19985 17.7036 2 16.0909 2Z" fill="#0000CC"/>
<path d="M7.90909 2C6.29636 2 4.96386 3.19985 4.75558 4.75558C3.19985 4.96386 2 6.29636 2 7.90909C2 9.66636 3.42455 11.0909 5.18182 11.0909C5.77012 11.0909 6.32107 10.9308 6.7934 10.6526L6.9654 10.8246C7.32034 11.1796 7.8958 11.1797 8.25085 10.8248L10.8244 8.25284C10.995 8.08237 11.0909 7.85111 11.0909 7.60996C11.0909 7.3688 10.9952 7.13751 10.8246 6.96699L10.6519 6.79426C10.9303 6.32175 11.0909 5.77041 11.0909 5.18182C11.0909 3.42455 9.66636 2 7.90909 2Z" fill="#0000CC"/>
<path d="M17.0335 13.1753C16.6786 12.8204 16.1033 12.8204 15.7482 13.1751L13.1757 15.7452C12.8208 16.0997 12.8202 16.6747 13.1742 17.03L13.3482 17.2046C13.0695 17.6776 12.9091 18.2294 12.9091 18.8182C12.9091 20.5755 14.3336 22 16.0909 22C17.7036 22 19.0361 20.8002 19.2444 19.2444C20.8001 19.0361 22 17.7036 22 16.0909C22 14.3336 20.5755 12.9091 18.8182 12.9091C18.2299 12.9091 17.6785 13.0692 17.2058 13.3475L17.0335 13.1753Z" fill="#0000CC"/>
</svg>
