<svg width="24" height="24" viewBox="0 0 24 24" fill="none" xmlns="http://www.w3.org/2000/svg">
<path d="M11.1223 6C11.1129 5.96861 11.1039 5.93762 11.0952 5.90704C10.9546 5.41207 10.8652 4.89375 10.9808 4.36226C11.1477 3.59516 11.6086 2.92404 12.2647 2.4929C12.7192 2.19419 13.2351 2.09158 13.7476 2.04516C14.2464 1.99997 14.8708 1.99998 15.6131 2H17.3872C18.1296 1.99998 18.7539 1.99997 19.2528 2.04516C19.7652 2.09158 20.2811 2.19419 20.7357 2.4929C21.3917 2.92404 21.8526 3.59516 22.0195 4.36226C22.1352 4.89375 22.0457 5.41207 21.9051 5.90704C21.8964 5.93762 21.8874 5.96861 21.878 6H11.1223Z" fill="#0000CC"/>
<path d="M20.3793 10H12.621L11.8518 8H21.1485L20.3793 10Z" fill="#0000CC"/>
<path d="M16.5002 17C15.7852 17 15.144 16.5597 14.8873 15.8923L13.3903 12H19.61L18.113 15.8923C17.8563 16.5597 17.2152 17 16.5002 17Z" fill="#0000CC"/>
<path d="M7.57242 7C6.85742 7 6.21626 7.44035 5.95959 8.10769L4.46255 12H10.6823L9.18526 8.10769C8.92859 7.44035 8.28743 7 7.57242 7Z" fill="#0000CC"/>
<path d="M3.69332 14L2.92408 16H12.2208L11.4515 14H3.69332Z" fill="#0000CC"/>
<path d="M2.19459 18C2.18521 18.0314 2.17617 18.0624 2.16748 18.093C2.02684 18.5879 1.93743 19.1063 2.05305 19.6377C2.21994 20.4048 2.68086 21.076 3.33692 21.5071C3.79148 21.8058 4.30735 21.9084 4.81982 21.9548C5.31862 22 5.94297 22 6.68533 22H8.45943C9.20179 22 9.82622 22 10.325 21.9548C10.8375 21.9084 11.3534 21.8058 11.8079 21.5071C12.464 21.076 12.9249 20.4048 13.0918 19.6377C13.2074 19.1063 13.118 18.5879 12.9774 18.093C12.9687 18.0624 12.9596 18.0314 12.9503 18H2.19459Z" fill="#0000CC"/>
</svg>
