<svg width="24" height="24" viewBox="0 0 24 24" fill="none" xmlns="http://www.w3.org/2000/svg">
<path fill-rule="evenodd" clip-rule="evenodd" d="M16.0581 2.28459C16.4486 1.89407 17.0818 1.89407 17.4723 2.28459L21.7149 6.52723C21.9025 6.71477 22.0078 6.96912 22.0078 7.23434C22.0078 7.2452 22.0076 7.25604 22.0073 7.26686L21.9998 19.7509C21.999 20.9933 20.9917 22 19.7494 22C18.5066 22 17.499 20.9924 17.499 19.7496V18.7045C17.499 18.5664 17.3871 18.4545 17.249 18.4545C17.111 18.4545 16.999 18.5664 16.999 18.7045V19.5C16.999 20.8807 15.8798 22 14.499 22C13.1183 22 11.999 20.8807 11.999 19.5V14.6536L11.3796 14.0342L6.25996 19.1538C5.28365 20.1301 3.70073 20.1301 2.72442 19.1538C1.74811 18.1774 1.74811 16.5945 2.72442 15.6182L7.04975 11.2929L7.05365 11.289L16.0581 2.28459ZM13.999 15.6086V19.5C13.999 19.7761 14.2229 20 14.499 20C14.7752 20 14.999 19.7761 14.999 19.5V18.7045C14.999 17.4619 16.0064 16.4545 17.249 16.4545C18.4917 16.4545 19.499 17.4619 19.499 18.7045V19.7496C19.499 19.8879 19.6111 20 19.7494 20C19.8876 20 19.9997 19.888 19.9998 19.7497L20.0059 9.65051L14.208 15.4484C14.1441 15.5122 14.0738 15.5657 13.999 15.6086ZM7.75685 13.4142L4.13863 17.0324C3.94337 17.2277 3.94337 17.5443 4.13863 17.7395C4.3339 17.9348 4.65048 17.9348 4.84574 17.7395L8.46396 14.1213L7.75685 13.4142Z" fill="#0000CC"/>
</svg>
