<svg width="24" height="24" viewBox="0 0 24 24" fill="none" xmlns="http://www.w3.org/2000/svg">
<path fill-rule="evenodd" clip-rule="evenodd" d="M18.3639 2C17.215 2 16.1905 2.53281 15.5241 3.36483C14.4701 3.38698 13.4395 3.71831 12.6474 4.21585C11.8785 4.69876 11.0912 5.50549 11.0912 6.54546C11.0912 7.04754 11.4982 7.45455 12.0002 7.45455H14.4229C14.1983 7.77332 13.8592 8.04246 13.4391 8.20416C8.27557 10.194 3.81336 14.9318 2.0388 20.829C1.89412 21.3097 2.16659 21.8168 2.64737 21.9615C3.12815 22.1061 3.63519 21.8337 3.77986 21.3529C3.89916 20.9564 4.03179 20.5659 4.177 20.1818H9.72752V21.0909C9.72752 21.593 10.1345 22 10.6366 22C11.1387 22 11.5457 21.593 11.5457 21.0909V20.104C12.0089 20.0508 12.464 19.9708 12.9093 19.8656V21.0909C12.9093 21.593 13.3164 22 13.8184 22C14.3205 22 14.7275 21.593 14.7275 21.0909V19.2761C18.9984 17.4951 22.0003 13.2799 22.0003 8.36364V5.63637C22.0003 3.62806 20.3722 2 18.3639 2ZM18.3637 6.54546C18.8657 6.54546 19.2727 6.13845 19.2727 5.63637C19.2727 5.13429 18.8657 4.72728 18.3637 4.72728C17.8616 4.72728 17.4546 5.13429 17.4546 5.63637C17.4546 6.13845 17.8616 6.54546 18.3637 6.54546Z" fill="#0000CC"/>
</svg>
