<svg width="24" height="24" viewBox="0 0 24 24" fill="none" xmlns="http://www.w3.org/2000/svg">
<path d="M5 3C5 2.44772 5.44772 2 6 2H18C18.5523 2 19 2.44772 19 3V6H16C16 5.44772 15.5523 5 15 5C14.4477 5 14 5.44772 14 6H13C13 5.44772 12.5523 5 12 5C11.4477 5 11 5.44772 11 6H10C10 5.44772 9.55229 5 9 5C8.44772 5 8 5.44772 8 6H5V3Z" fill="#0000CC"/>
<path fill-rule="evenodd" clip-rule="evenodd" d="M16 8H19V9H20V8C20 7.44772 20.4477 7 21 7C21.5523 7 22 7.44772 22 8V12C22 12.5523 21.5523 13 21 13C20.4477 13 20 12.5523 20 12V11H19V16.2413C19 17.0463 19 17.7106 18.9558 18.2518C18.9099 18.8139 18.8113 19.3306 18.564 19.816C18.1805 20.5686 17.5686 21.1805 16.816 21.564C16.3306 21.8113 15.8139 21.9099 15.2518 21.9558C14.7106 22 14.0463 22 13.2413 22H10.7587C9.95372 22 9.28937 22 8.74818 21.9558C8.18608 21.9099 7.66938 21.8113 7.18404 21.564C6.43139 21.1805 5.81947 20.5686 5.43598 19.816C5.18868 19.3306 5.09012 18.8139 5.0442 18.2518C4.99998 17.7106 4.99999 17.0463 5 16.2413V11H4V12C4 12.5523 3.55228 13 3 13C2.44772 13 2 12.5523 2 12V8C2 7.44772 2.44772 7 3 7C3.55228 7 4 7.44772 4 8V9H5V8H8C8 8.55228 8.44772 9 9 9C9.55229 9 10 8.55228 10 8H11C11 8.55228 11.4477 9 12 9C12.5523 9 13 8.55228 13 8H14C14 8.55228 14.4477 9 15 9C15.5523 9 16 8.55228 16 8ZM9 12C8.44772 12 8 12.4477 8 13C8 13.5523 8.44772 14 9 14H10C10.5523 14 11 13.5523 11 13C11 12.4477 10.5523 12 10 12H9ZM9 16C8.44772 16 8 16.4477 8 17C8 17.5523 8.44772 18 9 18H15C15.5523 18 16 17.5523 16 17C16 16.4477 15.5523 16 15 16H9ZM13 13C13 12.4477 13.4477 12 14 12H15C15.5523 12 16 12.4477 16 13C16 13.5523 15.5523 14 15 14H14C13.4477 14 13 13.5523 13 13Z" fill="#0000CC"/>
</svg>
