<svg width="24" height="24" viewBox="0 0 24 24" fill="none" xmlns="http://www.w3.org/2000/svg">
<path fill-rule="evenodd" clip-rule="evenodd" d="M16.9806 3.19612C17.0555 2.82161 16.9105 2.43713 16.607 2.2053C16.3035 1.97347 15.8944 1.93477 15.5528 2.10558L11.591 4.08644C10.8905 4.43646 10.4055 4.67881 9.98626 5.01601C9.61557 5.31416 9.28933 5.66367 9.01739 6.054C8.70984 6.49545 8.50144 6.99599 8.20045 7.71888L4.33099 17.0056C3.02909 17.0925 2 18.1761 2 19.5C2 20.8807 3.11929 22 4.5 22H19.5C20.8807 22 22 20.8807 22 19.5C22 18.1797 20.9765 17.0984 19.6796 17.0064L16.2818 8.51184C16.1379 8.1521 16.1129 8.08039 16.0991 8.0149C16.0833 7.93941 16.0762 7.86234 16.078 7.78522C16.0797 7.71831 16.0912 7.64326 16.1671 7.26333L16.9806 3.19612ZM9.10899 13.546C9 13.7599 9 14.0399 9 14.6V17H11V15H13V17H15V14.6C15 14.0399 15 13.7599 14.891 13.546C14.7951 13.3578 14.6422 13.2049 14.454 13.109C14.2401 13 13.9601 13 13.4 13H10.6C10.0399 13 9.75992 13 9.54601 13.109C9.35785 13.2049 9.20487 13.3578 9.10899 13.546Z" fill="#0000CC"/>
</svg>
