<svg width="24" height="24" viewBox="0 0 24 24" fill="none" xmlns="http://www.w3.org/2000/svg">
<path fill-rule="evenodd" clip-rule="evenodd" d="M12.0003 2C6.4775 2 2.00034 6.47715 2.00034 12V12.0941L2.00018 12.1636C1.99928 12.4182 1.99815 12.7385 2.09514 13.0422C2.17902 13.3049 2.31632 13.5474 2.4984 13.7545C2.70892 13.9939 2.98416 14.1577 3.20301 14.288L3.26265 14.3236L4.51164 15.073C5.56472 15.7048 5.92067 15.9287 6.18197 16.2055C6.51494 16.5583 6.7574 16.9865 6.88857 17.4535C6.99151 17.82 7.00034 18.2404 7.00034 19.4685L7.00034 19.4967C7.00032 19.72 7.0003 19.9376 7.01369 20.1225C7.02837 20.3249 7.06284 20.5645 7.17209 20.8109C7.37327 21.2645 7.73589 21.6271 8.18949 21.8283C8.43581 21.9375 8.67546 21.972 8.87787 21.9866C9.06273 22 9.28032 22 9.50369 22H14.497C14.7203 22 14.938 22 15.1228 21.9866C15.3252 21.972 15.5649 21.9375 15.8112 21.8283C16.2648 21.6271 16.6274 21.2645 16.8286 20.8109C16.9378 20.5645 16.9723 20.3249 16.987 20.1225C17.0004 19.9376 17.0004 19.72 17.0003 19.4967L17.0003 19.4685C17.0003 18.2404 17.0092 17.82 17.1121 17.4535C17.2433 16.9865 17.4858 16.5583 17.8187 16.2055C18.08 15.9287 18.436 15.7048 19.489 15.073L20.738 14.3236L20.7977 14.288C21.0165 14.1577 21.2918 13.9939 21.5023 13.7545C21.6844 13.5474 21.8217 13.3049 21.9056 13.0422C22.0025 12.7386 22.0014 12.4182 22.0005 12.1636L22.0003 12.0941V12C22.0003 6.47715 17.5232 2 12.0003 2ZM9 8C7.89543 8 7 8.89543 7 10C7 11.1046 7.89543 12 9 12C10.1046 12 11 11.1046 11 10C11 8.89543 10.1046 8 9 8ZM15 8C13.8954 8 13 8.89543 13 10C13 11.1046 13.8954 12 15 12C16.1046 12 17 11.1046 17 10C17 8.89543 16.1046 8 15 8Z" fill="#0000CC"/>
</svg>
