<svg width="24" height="24" viewBox="0 0 24 24" fill="none" xmlns="http://www.w3.org/2000/svg">
<path fill-rule="evenodd" clip-rule="evenodd" d="M12 2C6.47715 2 2 6.47715 2 12V13C2 15.419 3.71776 17.4367 6 17.9V21C6 21.5523 6.44772 22 7 22H9V20C9 19.4477 9.44772 19 10 19C10.5523 19 11 19.4477 11 20V22H13V21C13 20.4477 13.4477 20 14 20C14.5523 20 15 20.4477 15 21V22H17C17.5523 22 18 21.5523 18 21V17.9C20.2822 17.4367 22 15.419 22 13V12C22 6.47715 17.5228 2 12 2ZM5.5 10.5C5.5 9.11929 6.61929 8 8 8C9.38071 8 10.5 9.11929 10.5 10.5C10.5 11.8807 9.38071 13 8 13C6.61929 13 5.5 11.8807 5.5 10.5ZM16 8C14.6193 8 13.5 9.11929 13.5 10.5C13.5 11.8807 14.6193 13 16 13C17.3807 13 18.5 11.8807 18.5 10.5C18.5 9.11929 17.3807 8 16 8Z" fill="#0000CC"/>
</svg>
