<svg width="24" height="24" viewBox="0 0 24 24" fill="none" xmlns="http://www.w3.org/2000/svg">
<path fill-rule="evenodd" clip-rule="evenodd" d="M17.6573 20H17V21C17 21.5523 16.5523 22 16 22H15V20C15 19.4477 14.5523 19 14 19C13.4477 19 13 19.4477 13 20V22H11V20C11 19.4477 10.5523 19 10 19C9.44772 19 9 19.4477 9 20V22H8C7.44772 22 7 21.5523 7 21V20H6.34267C6.11368 20 5.89163 19.9214 5.71362 19.7774C3.45007 17.9457 2 15.1418 2 12C2 6.47715 6.47715 2 12 2C17.5228 2 22 6.47715 22 12C22 15.1418 20.5499 17.9457 18.2864 19.7774C18.1084 19.9214 17.8863 20 17.6573 20ZM9 7C7.89543 7 7 7.89543 7 9C7 10.1046 7.89543 11 9 11C10.1046 11 11 10.1046 11 9C11 7.89543 10.1046 7 9 7ZM13 9C13 7.89543 13.8954 7 15 7C16.1046 7 17 7.89543 17 9C17 10.1046 16.1046 11 15 11C13.8954 11 13 10.1046 13 9ZM11.9999 12.5C12.2652 12.5 12.5195 12.6053 12.7071 12.7929L14.2071 14.2929C14.5976 14.6834 14.5976 15.3166 14.2071 15.7071C13.8166 16.0976 13.1834 16.0976 12.7929 15.7071L12 14.9142L11.2071 15.7071C10.8166 16.0976 10.1834 16.0976 9.7929 15.7071C9.40237 15.3166 9.40236 14.6834 9.79288 14.2929L11.2928 12.7929C11.4804 12.6054 11.7347 12.5 11.9999 12.5Z" fill="#0000CC"/>
</svg>
