<svg width="24" height="24" viewBox="0 0 24 24" fill="none" xmlns="http://www.w3.org/2000/svg">
<path fill-rule="evenodd" clip-rule="evenodd" d="M8.1581 3.28737C8.31679 2.75837 8.01661 2.20089 7.48762 2.04219C6.95863 1.8835 6.40114 2.18368 6.24244 2.71267L5.04244 6.71267C4.95122 7.01674 5.0098 7.34606 5.20027 7.60002L6.77951 9.70567L5.26909 9.2022L3.9366 5.6489C3.74268 5.13178 3.16627 4.86977 2.64915 5.06369C2.13203 5.25761 1.87002 5.83402 2.06394 6.35114L3.56394 10.3511C3.6699 10.6337 3.89777 10.8533 4.18404 10.9487L7.26639 11.9762L3.71292 13.0422C3.34769 13.1518 3.07656 13.4595 3.01388 13.8356L2.51388 16.8356C2.42308 17.3804 2.7911 17.8956 3.33587 17.9864C3.88064 18.0772 4.39587 17.7092 4.48667 17.1644L4.88426 14.7789L6.59955 14.2643L5.24101 15.8492C4.98989 16.1422 4.92974 16.5535 5.08646 16.9062L7.08646 21.4062C7.31076 21.9108 7.90173 22.1381 8.40641 21.9138C8.91109 21.6895 9.13839 21.0986 8.91408 20.5939L7.17065 16.6712L8.25458 15.4066C8.82383 16.9218 10.2861 18 12.0003 18C13.7144 18 15.1767 16.9218 15.746 15.4066L16.8299 16.6712L15.0865 20.5939C14.8622 21.0986 15.0894 21.6895 15.5941 21.9138C16.0988 22.1381 16.6898 21.9108 16.9141 21.4062L18.9141 16.9062C19.0708 16.5535 19.0107 16.1422 18.7595 15.8492L17.401 14.2643L19.1163 14.7789L19.5139 17.1644C19.6047 17.7092 20.1199 18.0772 20.6647 17.9864C21.2094 17.8956 21.5775 17.3804 21.4867 16.8356L20.9867 13.8356C20.924 13.4595 20.6528 13.1518 20.2876 13.0422L16.7342 11.9762L19.8165 10.9487C20.1028 10.8533 20.3306 10.6337 20.4366 10.3511L21.9366 6.35114C22.1305 5.83402 21.8685 5.25761 21.3514 5.06369C20.8343 4.86977 20.2579 5.13178 20.0639 5.6489L18.7315 9.2022L17.221 9.70567L18.8003 7.60002C18.9907 7.34606 19.0493 7.01674 18.9581 6.71267L17.7581 2.71267C17.5994 2.18368 17.0419 1.8835 16.5129 2.04219C15.9839 2.20089 15.6837 2.75837 15.8424 3.28737L16.8974 6.80386L14.8035 9.5957L14.6686 7.97594C14.6443 7.68389 14.6209 7.4027 14.5828 7.18025C14.5503 6.99057 14.4727 6.57844 14.1483 6.26813C13.7923 5.92763 13.2918 5.78362 12.8093 5.88284C12.4143 5.96406 12.1444 6.22069 12.0005 6.37601C11.8566 6.22069 11.5867 5.96406 11.1917 5.88284C10.7092 5.78362 10.2087 5.92763 9.85275 6.26813C9.52832 6.57844 9.45071 6.99057 9.4182 7.18025C9.38008 7.4027 9.35668 7.6839 9.33238 7.97595L9.19727 9.59602L7.10315 6.80386L8.1581 3.28737ZM12 15C12.5523 15 13 14.5523 13 14C13 13.4477 12.5523 13 12 13C11.4477 13 11 13.4477 11 14C11 14.5523 11.4477 15 12 15Z" fill="#0000CC"/>
</svg>
