<svg width="24" height="24" viewBox="0 0 24 24" fill="none" xmlns="http://www.w3.org/2000/svg">
<path fill-rule="evenodd" clip-rule="evenodd" d="M12 2C7.58172 2 4 5.58172 4 10V20H3C2.44772 20 2 20.4477 2 21C2 21.5523 2.44772 22 3 22H21C21.5523 22 22 21.5523 22 21C22 20.4477 21.5523 20 21 20H20V10C20 5.58172 16.4183 2 12 2ZM12 6C12.5523 6 13 6.44772 13 7V9H15C15.5523 9 16 9.44772 16 10C16 10.5523 15.5523 11 15 11H13V17C13 17.5523 12.5523 18 12 18C11.4477 18 11 17.5523 11 17V11H9C8.44772 11 8 10.5523 8 10C8 9.44772 8.44772 9 9 9H11V7C11 6.44772 11.4477 6 12 6Z" fill="#0000CC"/>
</svg>
