<svg width="24" height="24" viewBox="0 0 24 24" fill="none" xmlns="http://www.w3.org/2000/svg">
<path opacity="0.3" d="M6.16146 3H17.8385C18.3657 2.99998 18.8205 2.99997 19.195 3.03057C19.5904 3.06287 19.9836 3.13419 20.362 3.32698C20.9265 3.6146 21.3854 4.07355 21.673 4.63803C21.8658 5.01641 21.9371 5.40963 21.9694 5.80498C22 6.17954 22 6.6343 22 7.16144V14.032C22 14.4706 22 14.8491 21.9787 15.1624C21.9561 15.4922 21.9066 15.8221 21.7716 16.1481C21.4672 16.8831 20.8831 17.4672 20.1481 17.7716C19.8221 17.9066 19.4922 17.9562 19.1624 17.9787C19.0109 17.989 18.8442 17.9943 18.6628 17.9971C18.4997 17.6536 18.3216 17.4152 18.2396 17.3055C18.0563 17.0604 17.8241 16.8009 17.6627 16.6204L14.7644 13.3756L14.7468 13.3558C14.6773 13.2777 14.5275 13.1093 14.3729 12.9624C14.1854 12.7842 13.7834 12.4296 13.1695 12.2063C12.4134 11.9312 11.5864 11.9312 10.8303 12.2063C10.2164 12.4296 9.81436 12.7842 9.62688 12.9624C9.47229 13.1093 9.32251 13.2777 9.25297 13.3558L9.23535 13.3756L6.33716 16.6204C6.17571 16.8008 5.94353 17.0604 5.76024 17.3055C5.67818 17.4152 5.50009 17.6536 5.33698 17.9971C5.15567 17.9943 4.98903 17.989 4.83762 17.9787C4.50779 17.9562 4.17788 17.9066 3.85195 17.7716C3.11687 17.4672 2.53285 16.8831 2.22836 16.1481C2.09336 15.8221 2.04386 15.4922 2.02135 15.1624C1.99998 14.8492 1.99999 14.4706 2 14.032V7.16142C1.99998 6.63431 1.99997 6.17953 2.03057 5.80498C2.06287 5.40963 2.13419 5.01641 2.32698 4.63803C2.6146 4.07355 3.07355 3.6146 3.63803 3.32698C4.01641 3.13419 4.40963 3.06287 4.80498 3.03057C5.17953 2.99997 5.63434 2.99998 6.16146 3Z" fill="#0000CC"/>
<path fill-rule="evenodd" clip-rule="evenodd" d="M11.5141 14.0858C11.8285 13.9714 12.1714 13.9714 12.4858 14.0858C12.7259 14.1731 12.893 14.315 12.9951 14.412C13.0852 14.4976 13.1792 14.603 13.2574 14.6906C13.2626 14.6965 13.2678 14.7022 13.2729 14.7079L16.1321 17.9092C16.1402 17.9182 16.1483 17.9272 16.1563 17.9362C16.3348 18.136 16.5098 18.3319 16.6379 18.5032C16.7587 18.6647 16.9679 18.9664 16.9961 19.3674C17.0271 19.809 16.8713 20.2693 16.5278 20.5978C16.2039 20.9075 15.8022 20.9604 15.6093 20.9795C15.4014 21.0001 15.146 21.0001 14.8979 21C14.885 21 14.8721 21 14.8592 21H9.1407C9.12785 21 9.11497 21 9.10207 21C8.85391 21.0001 8.5985 21.0001 8.3906 20.9795C8.1977 20.9604 7.79608 20.9075 7.47217 20.5978C7.12866 20.2693 6.97282 19.809 7.00387 19.3674C7.03205 18.9664 7.24127 18.6647 7.36203 18.5032C7.4901 18.3319 7.66511 18.136 7.84361 17.9362C7.85167 17.9272 7.85973 17.9182 7.8678 17.9092L10.7271 14.7079C10.7321 14.7022 10.7373 14.6965 10.7425 14.6906C10.8207 14.603 10.9148 14.4976 11.0048 14.412C11.1069 14.315 11.274 14.1731 11.5141 14.0858Z" fill="#0000CC"/>
</svg>
