<svg width="24" height="24" viewBox="0 0 24 24" fill="none" xmlns="http://www.w3.org/2000/svg">
<g opacity="0.3">
<path d="M8.50026 11.6L9.08359 13H7.91693L8.50026 11.6Z" fill="#0000CC"/>
<path d="M14.5003 14V10H15.0003C16.1048 10 17.0003 10.8954 17.0003 12C17.0003 13.1046 16.1048 14 15.0003 14H14.5003Z" fill="#0000CC"/>
<path fill-rule="evenodd" clip-rule="evenodd" d="M2.32698 5.63803C2 6.27976 2 7.11984 2 8.8V15.2C2 16.8802 2 17.7202 2.32698 18.362C2.6146 18.9265 3.07354 19.3854 3.63803 19.673C4.27976 20 5.11984 20 6.8 20H17.2C18.8802 20 19.7202 20 20.362 19.673C20.9265 19.3854 21.3854 18.9265 21.673 18.362C22 17.7202 22 16.8802 22 15.2V8.8C22 7.11984 22 6.27976 21.673 5.63803C21.3854 5.07354 20.9265 4.6146 20.362 4.32698C19.7202 4 18.8802 4 17.2 4H6.8C5.11984 4 4.27976 4 3.63803 4.32698C3.07354 4.6146 2.6146 5.07354 2.32698 5.63803ZM9.42334 8.61538C9.26807 8.24274 8.90396 8 8.50026 8C8.09656 8 7.73245 8.24274 7.57718 8.61538L5.07718 14.6154C4.86477 15.1252 5.10584 15.7107 5.61565 15.9231C6.12545 16.1355 6.71092 15.8944 6.92334 15.3846L7.08359 15H9.91693L10.0772 15.3846C10.2896 15.8944 10.8751 16.1355 11.3849 15.9231C11.8947 15.7107 12.1358 15.1252 11.9233 14.6154L9.42334 8.61538ZM14.0003 8C13.1718 8 12.5003 8.67157 12.5003 9.5V14.5C12.5003 15.3284 13.1718 16 14.0003 16H15.0003C17.2094 16 19.0003 14.2091 19.0003 12C19.0003 9.79086 17.2094 8 15.0003 8H14.0003Z" fill="#0000CC"/>
</g>
<path fill-rule="evenodd" clip-rule="evenodd" d="M8.50026 8C8.90396 8 9.26807 8.24274 9.42334 8.61538L11.9233 14.6154C12.1358 15.1252 11.8947 15.7107 11.3849 15.9231C10.8751 16.1355 10.2896 15.8944 10.0772 15.3846L9.91693 15H7.08359L6.92334 15.3846C6.71092 15.8944 6.12545 16.1355 5.61565 15.9231C5.10584 15.7107 4.86477 15.1252 5.07718 14.6154L7.57718 8.61538C7.73245 8.24274 8.09656 8 8.50026 8ZM9.08366 13L8.50033 11.6L7.91699 13H9.08366Z" fill="#0000CC"/>
<path fill-rule="evenodd" clip-rule="evenodd" d="M12.5003 9.5C12.5003 8.67157 13.1718 8 14.0003 8H15.0003C17.2094 8 19.0003 9.79086 19.0003 12C19.0003 14.2091 17.2094 16 15.0003 16H14.0003C13.1718 16 12.5003 15.3284 12.5003 14.5V9.5ZM14.5003 10V14H15.0003C16.1049 14 17.0003 13.1046 17.0003 12C17.0003 10.8954 16.1049 10 15.0003 10H14.5003Z" fill="#0000CC"/>
</svg>
