<svg width="24" height="24" viewBox="0 0 24 24" fill="none" xmlns="http://www.w3.org/2000/svg">
<path opacity="0.3" fill-rule="evenodd" clip-rule="evenodd" d="M6.16146 9H17.8385C18.3657 8.99998 18.8205 8.99997 19.195 9.03057C19.5904 9.06287 19.9836 9.13419 20.362 9.32698C20.9265 9.6146 21.3854 10.0735 21.673 10.638C21.8658 11.0164 21.9371 11.4096 21.9694 11.805C22 12.1795 22 12.6343 22 13.1614V16.8386C22 17.3657 22 17.8205 21.9694 18.195C21.9371 18.5904 21.8658 18.9836 21.673 19.362C21.3854 19.9265 20.9265 20.3854 20.362 20.673C19.9836 20.8658 19.5904 20.9371 19.195 20.9694C18.8205 21 18.3657 21 17.8385 21H6.16148C5.63432 21 5.17955 21 4.80497 20.9694C4.40963 20.9371 4.01641 20.8658 3.63803 20.673C3.07354 20.3854 2.6146 19.9265 2.32698 19.362C2.13419 18.9836 2.06287 18.5904 2.03057 18.195C1.99997 17.8205 1.99998 17.3657 2 16.8385V13.1615C1.99998 12.6343 1.99997 12.1795 2.03057 11.805C2.06287 11.4096 2.13419 11.0164 2.32698 10.638C2.6146 10.0735 3.07354 9.6146 3.63803 9.32698C4.01641 9.13419 4.40963 9.06287 4.80497 9.03057C5.17955 8.99997 5.63431 8.99998 6.16146 9Z" fill="#0000CC"/>
<path d="M8.16146 3H15.8385C16.3657 2.99998 16.8205 2.99997 17.195 3.03057C17.5904 3.06287 17.9836 3.13419 18.362 3.32698C18.9265 3.6146 19.3854 4.07355 19.673 4.63803C19.8658 5.01641 19.9371 5.40963 19.9694 5.80498C20 6.1795 20 6.63431 20 7.16137V9.17825C19.7354 9.09309 19.4657 9.05269 19.195 9.03057C18.8593 9.00314 18.459 9.00031 18 9.00003V7.2C18 6.62345 17.9992 6.25118 17.9761 5.96784C17.9539 5.69618 17.9162 5.59546 17.891 5.54601C17.7951 5.35785 17.6422 5.20487 17.454 5.109C17.4046 5.0838 17.3038 5.04613 17.0322 5.02393C16.7488 5.00078 16.3766 5 15.8 5H8.2C7.62345 5 7.25118 5.00078 6.96784 5.02393C6.69618 5.04613 6.59546 5.0838 6.54601 5.109C6.35785 5.20487 6.20487 5.35785 6.109 5.54601C6.0838 5.59546 6.04613 5.69618 6.02393 5.96784C6.00078 6.25118 6 6.62345 6 7.2V9.00003C5.54097 9.00031 5.14075 9.00314 4.80498 9.03057C4.53429 9.05269 4.26461 9.09309 4 9.17825V7.16142C3.99998 6.6343 3.99997 6.17953 4.03057 5.80498C4.06287 5.40963 4.13419 5.01641 4.32698 4.63803C4.6146 4.07355 5.07355 3.6146 5.63803 3.32698C6.01641 3.13419 6.40963 3.06287 6.80498 3.03057C7.17953 2.99997 7.63434 2.99998 8.16146 3Z" fill="#0000CC"/>
<path d="M16 8V9H14V8C14 7.44772 14.4477 7 15 7C15.5523 7 16 7.44772 16 8Z" fill="#0000CC"/>
<path d="M13 9V8C13 7.44772 12.5523 7 12 7C11.4477 7 11 7.44772 11 8V9H13Z" fill="#0000CC"/>
<path d="M10 8V9H8V8C8 7.44772 8.44772 7 9 7C9.55229 7 10 7.44772 10 8Z" fill="#0000CC"/>
<path fill-rule="evenodd" clip-rule="evenodd" d="M8 12C6.34315 12 5 13.3431 5 15C5 16.6569 6.34315 18 8 18C9.65686 18 11 16.6569 11 15C11 13.3431 9.65686 12 8 12ZM7 15C7 14.4477 7.44772 14 8 14C8.55229 14 9 14.4477 9 15C9 15.5523 8.55229 16 8 16C7.44772 16 7 15.5523 7 15Z" fill="#0000CC"/>
<path fill-rule="evenodd" clip-rule="evenodd" d="M16 12C14.3431 12 13 13.3431 13 15C13 16.6569 14.3431 18 16 18C17.6569 18 19 16.6569 19 15C19 13.3431 17.6569 12 16 12ZM15 15C15 14.4477 15.4477 14 16 14C16.5523 14 17 14.4477 17 15C17 15.5523 16.5523 16 16 16C15.4477 16 15 15.5523 15 15Z" fill="#0000CC"/>
</svg>
