<svg width="24" height="24" viewBox="0 0 24 24" fill="none" xmlns="http://www.w3.org/2000/svg">
<g opacity="0.3">
<path fill-rule="evenodd" clip-rule="evenodd" d="M2 8.8C2 7.11984 2 6.27976 2.32698 5.63803C2.6146 5.07354 3.07354 4.6146 3.63803 4.32698C4.27976 4 5.11984 4 6.8 4H17.2C18.8802 4 19.7202 4 20.362 4.32698C20.9265 4.6146 21.3854 5.07354 21.673 5.63803C22 6.27976 22 7.11984 22 8.8V15.2C22 16.8802 22 17.7202 21.673 18.362C21.3854 18.9265 20.9265 19.3854 20.362 19.673C19.8753 19.921 19.2745 19.9809 18.2796 19.9954L16.9701 14.7575C16.8588 14.3123 16.4589 14 16 14H7.99999C7.54112 14 7.14114 14.3123 7.02985 14.7575L5.72037 19.9954C4.72553 19.9809 4.12473 19.921 3.63803 19.673C3.07354 19.3854 2.6146 18.9265 2.32698 18.362C2 17.7202 2 16.8802 2 15.2V8.8ZM8 7C6.34315 7 5 8.34315 5 10C5 11.6569 6.34315 13 8 13H16C17.6569 13 19 11.6569 19 10C19 8.34315 17.6569 7 16 7H8Z" fill="#0000CC"/>
<path d="M15.2192 16L16.2192 20H7.78077L8.78077 16H15.2192Z" fill="#0000CC"/>
</g>
<path fill-rule="evenodd" clip-rule="evenodd" d="M8 9C7.44772 9 7 9.44772 7 10C7 10.5523 7.44772 11 8 11C8.55228 11 9 10.5523 9 10C9 9.44772 8.55228 9 8 9ZM10.8293 9C10.9398 9.31278 11 9.64936 11 10C11 10.3506 10.9398 10.6872 10.8293 11H13.1707C13.0602 10.6872 13 10.3506 13 10C13 9.64936 13.0602 9.31278 13.1707 9H10.8293ZM16 7H8C6.34315 7 5 8.34315 5 10C5 11.6569 6.34315 13 8 13H16C17.6569 13 19 11.6569 19 10C19 8.34315 17.6569 7 16 7ZM16 11C16.5523 11 17 10.5523 17 10C17 9.44772 16.5523 9 16 9C15.4477 9 15 9.44772 15 10C15 10.5523 15.4477 11 16 11Z" fill="#0000CC"/>
</svg>
