<svg width="24" height="24" viewBox="0 0 24 24" fill="none" xmlns="http://www.w3.org/2000/svg">
<path opacity="0.3" d="M2 9H22V16.2C22 17.8802 22 18.7202 21.673 19.362C21.3854 19.9265 20.9265 20.3854 20.362 20.673C19.7202 21 18.8802 21 17.2 21H6.8C5.11984 21 4.27976 21 3.63803 20.673C3.07354 20.3854 2.6146 19.9265 2.32698 19.362C2 18.7202 2 17.8802 2 16.2V9Z" fill="#0000CC"/>
<path d="M5.4143 9H8.08588L14.0859 3H11.4143L5.4143 9Z" fill="#0000CC"/>
<path d="M8.58588 3H6.8C5.11984 3 4.27976 3 3.63803 3.32698C3.07354 3.6146 2.6146 4.07354 2.32698 4.63803C2 5.27976 2 6.11984 2 7.8V9H2.58588L8.58588 3Z" fill="#0000CC"/>
<path d="M16.9143 3L10.9143 9H13.5859L19.5081 3.07777C18.9595 3 18.241 3 17.2 3H16.9143Z" fill="#0000CC"/>
<path d="M21.3183 4.09597L16.4143 9H22V7.8C22 6.11984 22 5.27976 21.673 4.63803C21.5741 4.44398 21.455 4.2624 21.3183 4.09597Z" fill="#0000CC"/>
</svg>
