<svg width="24" height="24" viewBox="0 0 24 24" fill="none" xmlns="http://www.w3.org/2000/svg">
<path opacity="0.3" d="M2 9H22V16.2C22 17.8802 22 18.7202 21.673 19.362C21.3854 19.9265 20.9265 20.3854 20.362 20.673C19.7202 21 18.8802 21 17.2 21H6.8C5.11984 21 4.27976 21 3.63803 20.673C3.07354 20.3854 2.6146 19.9265 2.32698 19.362C2 18.7202 2 17.8802 2 16.2V9Z" fill="#0000CC"/>
<path d="M6.8 3H8.58588L2.58588 9H2V7.8C2 6.11984 2 5.27976 2.32698 4.63803C2.6146 4.07354 3.07354 3.6146 3.63803 3.32698C4.27976 3 5.11984 3 6.8 3Z" fill="#0000CC"/>
<path d="M8.08588 9H5.4143L11.4143 3H14.0859L8.08588 9Z" fill="#0000CC"/>
<path d="M16.9143 3L10.9143 9H13.5859L19.5081 3.07777C18.9595 3 18.241 3 17.2 3H16.9143Z" fill="#0000CC"/>
<path d="M16.4143 9L21.3183 4.09597C21.455 4.2624 21.5741 4.44398 21.673 4.63803C22 5.27976 22 6.11984 22 7.8V9H16.4143Z" fill="#0000CC"/>
<path d="M10 13.529V16.7031C10 17.1656 10 17.3968 10.097 17.5289C10.1815 17.644 10.3113 17.7175 10.4536 17.7308C10.6167 17.746 10.815 17.627 11.2116 17.3891L13.8567 15.802C14.2338 15.5758 14.4223 15.4626 14.4863 15.3163C14.5421 15.1886 14.5421 15.0434 14.4863 14.9158C14.4223 14.7694 14.2338 14.6563 13.8567 14.43L11.2116 12.843C10.815 12.6051 10.6167 12.4861 10.4536 12.5013C10.3113 12.5146 10.1815 12.588 10.097 12.7032C10 12.8353 10 13.0665 10 13.529Z" fill="#0000CC"/>
</svg>
