<svg width="24" height="24" viewBox="0 0 24 24" fill="none" xmlns="http://www.w3.org/2000/svg">
<path opacity="0.3" fill-rule="evenodd" clip-rule="evenodd" d="M8 5.5C7.44772 5.5 7 5.94772 7 6.5C7 7.05228 7.44772 7.5 8 7.5H9V9H5C4.78363 9 4.5731 9.07018 4.4 9.2L2.4 10.7C2.14819 10.8889 2 11.1852 2 11.5V14.5C2 14.8148 2.14819 15.1111 2.4 15.3L4.4 16.8C4.5731 16.9298 4.78363 17 5 17H17.7639L20.5528 18.3944C20.8628 18.5494 21.2309 18.5329 21.5257 18.3507C21.8205 18.1684 22 17.8466 22 17.5V8.5C22 8.15342 21.8205 7.83156 21.5257 7.64935C21.2309 7.46714 20.8628 7.45058 20.5528 7.60557L17.7639 9H17V7.5H18C18.5523 7.5 19 7.05228 19 6.5C19 5.94772 18.5523 5.5 18 5.5H8ZM11 9V7.5H12V9H11ZM14 9V7.5H15V9H14Z" fill="#0000CC"/>
<path fill-rule="evenodd" clip-rule="evenodd" d="M6.5 13C6.5 12.1716 7.17157 11.5 8 11.5C8.82843 11.5 9.5 12.1716 9.5 13C9.5 13.8284 8.82843 14.5 8 14.5C7.17157 14.5 6.5 13.8284 6.5 13ZM10.5 13C10.5 12.1716 11.1716 11.5 12 11.5C12.8284 11.5 13.5 12.1716 13.5 13C13.5 13.8284 12.8284 14.5 12 14.5C11.1716 14.5 10.5 13.8284 10.5 13ZM16 11.5C15.1716 11.5 14.5 12.1716 14.5 13C14.5 13.8284 15.1716 14.5 16 14.5C16.8284 14.5 17.5 13.8284 17.5 13C17.5 12.1716 16.8284 11.5 16 11.5Z" fill="#0000CC"/>
</svg>
