<svg width="24" height="24" viewBox="0 0 24 24" fill="none" xmlns="http://www.w3.org/2000/svg">
<path opacity="0.3" fill-rule="evenodd" clip-rule="evenodd" d="M2 12C2 6.47715 6.47715 2 12 2C17.5228 2 22 6.47715 22 12C22 17.5228 17.5228 22 12 22C6.47715 22 2 17.5228 2 12ZM12 13C12.5523 13 13 12.5523 13 12C13 11.4477 12.5523 11 12 11C11.4477 11 11 11.4477 11 12C11 12.5523 11.4477 13 12 13Z" fill="#0000CC"/>
<path d="M12.25 7.5C9.62665 7.5 7.5 9.62665 7.5 12.25C7.5 12.8023 7.05228 13.25 6.5 13.25C5.94772 13.25 5.5 12.8023 5.5 12.25C5.5 8.52208 8.52208 5.5 12.25 5.5C12.8023 5.5 13.25 5.94772 13.25 6.5C13.25 7.05228 12.8023 7.5 12.25 7.5Z" fill="#0000CC"/>
<path fill-rule="evenodd" clip-rule="evenodd" d="M12 9C10.3431 9 9 10.3431 9 12C9 13.6569 10.3431 15 12 15C13.6569 15 15 13.6569 15 12C15 10.3431 13.6569 9 12 9ZM11 12C11 11.4477 11.4477 11 12 11C12.5523 11 13 11.4477 13 12C13 12.5523 12.5523 13 12 13C11.4477 13 11 12.5523 11 12Z" fill="#0000CC"/>
</svg>
