<svg width="24" height="24" viewBox="0 0 24 24" fill="none" xmlns="http://www.w3.org/2000/svg">
<path opacity="0.3" fill-rule="evenodd" clip-rule="evenodd" d="M8.8 2H14L20 8V17.2C20 18.8802 20 19.7202 19.673 20.362C19.3854 20.9265 18.9265 21.3854 18.362 21.673C17.7202 22 16.8802 22 15.2 22H8.8C7.11984 22 6.27976 22 5.63803 21.673C5.07354 21.3854 4.6146 20.9265 4.32698 20.362C4 19.7202 4 18.8802 4 17.2V6.8C4 5.11984 4 4.27976 4.32698 3.63803C4.6146 3.07354 5.07354 2.6146 5.63803 2.32698C6.27976 2 7.11984 2 8.8 2Z" fill="#0000CC"/>
<path d="M14 2V7.2C14 7.48003 14 7.62004 14.0545 7.727C14.1024 7.82108 14.1789 7.89757 14.273 7.9455C14.38 8 14.52 8 14.8 8H20L14 2Z" fill="#0000CC"/>
<path d="M12.5 12.0001C12.5 11.579 12.2363 11.2031 11.8404 11.0598C11.4446 10.9165 11.0013 11.0364 10.7318 11.3599L9.36496 13.0001H8.5C7.94772 13.0001 7.5 13.4478 7.5 14.0001V16.0001C7.5 16.5523 7.94772 17.0001 8.5 17.0001H9.36496L10.7318 18.6402C11.0013 18.9637 11.4446 19.0836 11.8404 18.9403C12.2363 18.797 12.5 18.4211 12.5 18.0001V12.0001Z" fill="#0000CC"/>
<path d="M15.1249 12.2194C14.6938 11.8742 14.0645 11.944 13.7193 12.3751C13.3742 12.8063 13.4439 13.4356 13.8751 13.7807C14.2806 14.1054 14.5 14.5442 14.5 15.0001C14.5 15.4559 14.2806 15.8947 13.8751 16.2194C13.4439 16.5645 13.3742 17.1938 13.7193 17.625C14.0645 18.0561 14.6938 18.1259 15.1249 17.7807C15.9469 17.1227 16.5 16.1335 16.5 15.0001C16.5 13.8666 15.9469 12.8774 15.1249 12.2194Z" fill="#0000CC"/>
</svg>
