<svg width="24" height="24" viewBox="0 0 24 24" fill="none" xmlns="http://www.w3.org/2000/svg">
<g opacity="0.3">
<path d="M6 2C5.44772 2 5 2.44772 5 3V17H7V3C7 2.44772 6.55228 2 6 2Z" fill="#0000CC"/>
<path d="M7 21V19H5V21C5 21.5523 5.44772 22 6 22C6.55228 22 7 21.5523 7 21Z" fill="#0000CC"/>
<path d="M17 3C17 2.44772 17.4477 2 18 2C18.5523 2 19 2.44772 19 3V5H17V3Z" fill="#0000CC"/>
<path d="M19 21V7H17V21C17 21.5523 17.4477 22 18 22C18.5523 22 19 21.5523 19 21Z" fill="#0000CC"/>
</g>
<path d="M2 6C2 5.44772 2.44772 5 3 5H5V7H3C2.44772 7 2 6.55228 2 6Z" fill="#0000CC"/>
<path d="M7 5H21C21.5523 5 22 5.44772 22 6C22 6.55228 21.5523 7 21 7H7V5Z" fill="#0000CC"/>
<path d="M2 18C2 17.4477 2.44772 17 3 17H17V19H3C2.44772 19 2 18.5523 2 18Z" fill="#0000CC"/>
<path d="M19 17H21C21.5523 17 22 17.4477 22 18C22 18.5523 21.5523 19 21 19H19V17Z" fill="#0000CC"/>
</svg>
