<svg width="24" height="24" viewBox="0 0 24 24" fill="none" xmlns="http://www.w3.org/2000/svg">
<path opacity="0.3" fill-rule="evenodd" clip-rule="evenodd" d="M8.16146 2H15.8385C16.3657 1.99998 16.8205 1.99997 17.195 2.03057C17.5904 2.06287 17.9836 2.13419 18.362 2.32698C18.9265 2.6146 19.3854 3.07354 19.673 3.63803C19.8658 4.01641 19.9371 4.40963 19.9694 4.80497C20 5.17955 20 5.63432 20 6.16148V17.8385C20 18.3657 20 18.8205 19.9694 19.195C19.9371 19.5904 19.8658 19.9836 19.673 20.362C19.3854 20.9265 18.9265 21.3854 18.362 21.673C17.9836 21.8658 17.5904 21.9371 17.195 21.9694C16.8205 22 16.3657 22 15.8386 22H8.16144C7.6343 22 7.17954 22 6.80497 21.9694C6.40963 21.9371 6.01641 21.8658 5.63803 21.673C5.07354 21.3854 4.6146 20.9265 4.32698 20.362C4.13419 19.9836 4.06287 19.5904 4.03057 19.195C3.99997 18.8205 3.99998 18.3657 4 17.8385V6.16146C3.99998 5.63431 3.99997 5.17955 4.03057 4.80497C4.06287 4.40963 4.13419 4.01641 4.32698 3.63803C4.6146 3.07354 5.07354 2.6146 5.63803 2.32698C6.01641 2.13419 6.40963 2.06287 6.80497 2.03057C7.17955 1.99997 7.63431 1.99998 8.16146 2Z" fill="#0000CC"/>
<path d="M18 10H6V6.2C6 5.62345 6.00078 5.25117 6.02393 4.96784C6.04612 4.69617 6.0838 4.59545 6.10899 4.54601C6.20487 4.35785 6.35785 4.20487 6.54601 4.10899C6.59545 4.0838 6.69617 4.04612 6.96784 4.02393C7.25117 4.00078 7.62345 4 8.2 4H15.8C16.3766 4 16.7488 4.00078 17.0322 4.02393C17.3038 4.04612 17.4045 4.0838 17.454 4.10899C17.6422 4.20487 17.7951 4.35785 17.891 4.54601C17.9162 4.59545 17.9539 4.69617 17.9761 4.96784C17.9992 5.25117 18 5.62345 18 6.2V10Z" fill="#0000CC"/>
<path fill-rule="evenodd" clip-rule="evenodd" d="M8 16C8 13.7909 9.79086 12 12 12C14.2091 12 16 13.7909 16 16C16 18.2091 14.2091 20 12 20C9.79086 20 8 18.2091 8 16ZM12 14C10.8954 14 10 14.8954 10 16C10 17.1046 10.8954 18 12 18C13.1046 18 14 17.1046 14 16C14 14.8954 13.1046 14 12 14Z" fill="#0000CC"/>
</svg>
