<svg width="24" height="24" viewBox="0 0 24 24" fill="none" xmlns="http://www.w3.org/2000/svg">
<g opacity="0.3">
<path d="M10 3.81955L8.8356 4.01361C8.35341 4.09398 8 4.51117 8 5.00001V8.98117C7.99979 8.99289 7.99979 9.00465 8 9.01645V16.3913C7.3999 16.1365 6.7125 16 6 16C5.00168 16 4.05265 16.268 3.32398 16.7537C2.6023 17.2349 2 18.0093 2 19C2 19.9907 2.6023 20.7652 3.32398 21.2463C4.05265 21.732 5.00168 22 6 22C6.99832 22 7.94735 21.732 8.67602 21.2463C9.3977 20.7652 10 19.9907 10 19C10 18.8963 9.9934 18.795 9.98077 18.6962C9.99338 18.6327 10 18.5672 10 18.5V3.81955Z" fill="#0000CC"/>
<path d="M20 14.3913C19.3999 14.1365 18.7125 14 18 14C17.0017 14 16.0526 14.268 15.324 14.7537C14.6023 15.2349 14 16.0093 14 17C14 17.9907 14.6023 18.7652 15.324 19.2463C16.0526 19.732 17.0017 20 18 20C18.9983 20 19.9474 19.732 20.676 19.2463C21.3977 18.7652 22 17.9907 22 17C22 16.8963 21.9934 16.795 21.9808 16.6962C21.9934 16.6327 22 16.5672 22 16.5V7.0188C22.0002 7.00711 22.0002 6.99538 22 6.98362V3.00001C22 2.70606 21.8707 2.42699 21.6464 2.23699C21.4221 2.04698 21.1256 1.96529 20.8356 2.01361L20 2.15288V14.3913Z" fill="#0000CC"/>
</g>
<path d="M20 2.15283V8.18042L10 9.84709V3.8195L20 2.15283Z" fill="#0000CC"/>
</svg>
