<svg width="24" height="24" viewBox="0 0 24 24" fill="none" xmlns="http://www.w3.org/2000/svg">
<path opacity="0.3" d="M13.5 3.61328L12.7308 3.86968C12.7198 3.87335 12.7069 3.87748 12.6924 3.88213C12.5542 3.9265 12.2671 4.01864 12.0377 4.21041C11.8451 4.37151 11.696 4.57838 11.6041 4.81208C11.4947 5.09027 11.498 5.39178 11.4997 5.53699C11.4998 5.55222 11.5 5.56573 11.5 5.57731V15.5811C10.772 15.2066 9.90685 15.0007 9 15.0007C7.84911 15.0007 6.76542 15.3324 5.94389 15.9192C5.12427 16.5046 4.5 17.4036 4.5 18.5007C4.5 19.5978 5.12427 20.4968 5.94389 21.0822C6.76542 21.669 7.84911 22.0007 9 22.0007C10.1509 22.0007 11.2346 21.669 12.0561 21.0822C12.8757 20.4968 13.5 19.5978 13.5 18.5007V3.61328Z" fill="#0000CC"/>
<path d="M13.5 10.7162V3.61322L17.1308 2.40296C17.1399 2.39993 17.149 2.39688 17.1582 2.3938C17.3114 2.34268 17.4832 2.28538 17.6347 2.24958C17.8002 2.21045 18.0652 2.16416 18.3653 2.23952C18.7369 2.33282 19.0587 2.56475 19.2647 2.88774C19.4311 3.14863 19.4709 3.41467 19.4862 3.58408C19.5001 3.73912 19.5001 3.92017 19.5 4.08167C19.5 4.09138 19.5 4.10102 19.5 4.11059V7.42404C19.5 7.43562 19.5002 7.44913 19.5003 7.46436C19.5019 7.60957 19.5053 7.91109 19.3959 8.18928C19.304 8.42297 19.1549 8.62984 18.9623 8.79094C18.7329 8.98271 18.4458 9.07485 18.3076 9.11922C18.2931 9.12388 18.2802 9.12801 18.2692 9.13167C17.7799 9.29477 17.2906 9.45782 16.8013 9.62087C15.8147 9.9496 14.8281 10.2783 13.8417 10.6075C13.7326 10.6439 13.614 10.6835 13.5 10.7162Z" fill="#0000CC"/>
</svg>
