<svg width="24" height="24" viewBox="0 0 24 24" fill="none" xmlns="http://www.w3.org/2000/svg">
<path opacity="0.3" d="M3.33259 8.06821C2.86711 8.01644 2.41468 8.07411 2.00098 8.22067C2.00526 6.91755 2.04033 6.20137 2.32736 5.63803C2.61498 5.07354 3.07392 4.6146 3.63841 4.32698C4.28014 4 5.12022 4 6.80038 4H17.2004C18.8805 4 19.7206 4 20.3624 4.32698C20.9268 4.6146 21.3858 5.07354 21.6734 5.63803C22.0004 6.27976 22.0004 7.11984 22.0004 8.8V15.2C22.0004 16.8802 22.0004 17.7202 21.6734 18.362C21.3858 18.9265 20.9268 19.3854 20.3624 19.673C19.7206 20 18.8805 20 17.2004 20H13.7801C13.9267 19.5863 13.9844 19.1338 13.9326 18.6682C13.6314 15.9605 12.4179 13.4358 10.4914 11.5094C8.56495 9.58294 6.04031 8.36936 3.33259 8.06821Z" fill="#0000CC"/>
<path d="M3.11074 10.056C2.56184 9.99497 2.06737 10.3905 2.00632 10.9394C1.94528 11.4883 2.34076 11.9827 2.88966 12.0438C4.6948 12.2445 6.3779 13.0536 7.6622 14.3379C8.94651 15.6222 9.75556 17.3053 9.95633 19.1104C10.0174 19.6593 10.5118 20.0548 11.0607 19.9938C11.6096 19.9327 12.0051 19.4383 11.9441 18.8894C11.6931 16.6329 10.6818 14.529 9.07642 12.9237C7.47104 11.3183 5.36717 10.307 3.11074 10.056Z" fill="#0000CC"/>
<path d="M3.20003 14.1204C2.65888 14.01 2.13073 14.3592 2.02037 14.9004C1.91 15.4415 2.25922 15.9697 2.80037 16.08C3.56908 16.2368 4.27472 16.6162 4.82947 17.1709C5.38422 17.7257 5.76359 18.4313 5.92037 19.2C6.03073 19.7412 6.55888 20.0904 7.10003 19.98C7.64117 19.8697 7.99039 19.3415 7.88003 18.8004C7.64487 17.6473 7.07581 16.5888 6.24369 15.7567C5.41156 14.9246 4.3531 14.3555 3.20003 14.1204Z" fill="#0000CC"/>
<path d="M3.0002 18.0001C2.44791 18.0001 2.0002 18.4478 2.0002 19.0001C2.0002 19.5524 2.44791 20.0001 3.0002 20.0001H3.0102C3.56248 20.0001 4.0102 19.5524 4.0102 19.0001C4.0102 18.4478 3.56248 18.0001 3.0102 18.0001H3.0002Z" fill="#0000CC"/>
</svg>
