<svg width="24" height="24" viewBox="0 0 24 24" fill="none" xmlns="http://www.w3.org/2000/svg">
<g opacity="0.3">
<path d="M8.85506 9.5H21C21.5523 9.5 22 9.05228 22 8.5C22 7.94772 21.5523 7.5 21 7.5H8.85506C8.94936 7.81685 9 8.15251 9 8.5C9 8.84749 8.94936 9.18315 8.85506 9.5Z" fill="#0000CC"/>
<path d="M15.1449 14.5H3C2.44772 14.5 2 14.9477 2 15.5C2 16.0523 2.44772 16.5 3 16.5H15.1449C15.0506 16.1831 15 15.8475 15 15.5C15 15.1525 15.0506 14.8169 15.1449 14.5Z" fill="#0000CC"/>
</g>
<path d="M5.5 12C7.433 12 9 10.433 9 8.5C9 6.567 7.433 5 5.5 5C3.567 5 2 6.567 2 8.5C2 10.433 3.567 12 5.5 12Z" fill="#0000CC"/>
<path d="M18.5 19C20.433 19 22 17.433 22 15.5C22 13.567 20.433 12 18.5 12C16.567 12 15 13.567 15 15.5C15 17.433 16.567 19 18.5 19Z" fill="#0000CC"/>
</svg>
