<svg width="24" height="24" viewBox="0 0 24 24" fill="none" xmlns="http://www.w3.org/2000/svg">
<path opacity="0.3" fill-rule="evenodd" clip-rule="evenodd" d="M6.16146 5H12.8385C13.3657 4.99998 13.8205 4.99997 14.195 5.03057C14.5904 5.06287 14.9836 5.13419 15.362 5.32698C15.9265 5.6146 16.3854 6.07354 16.673 6.63803C16.8658 7.01641 16.9371 7.40963 16.9694 7.80497C17 8.17955 17 8.63432 17 9.16148V14.8385C17 15.3657 17 15.8205 16.9694 16.195C16.9371 16.5904 16.8658 16.9836 16.673 17.362C16.3854 17.9265 15.9265 18.3854 15.362 18.673C14.9836 18.8658 14.5904 18.9371 14.195 18.9694C13.8205 19 13.3657 19 12.8385 19H6.16148C5.63432 19 5.17955 19 4.80497 18.9694C4.40963 18.9371 4.01641 18.8658 3.63803 18.673C3.07354 18.3854 2.6146 17.9265 2.32698 17.362C2.13419 16.9836 2.06287 16.5904 2.03057 16.195C1.99997 15.8205 1.99998 15.3657 2 14.8385V9.16146C1.99998 8.63431 1.99997 8.17955 2.03057 7.80497C2.06287 7.40963 2.13419 7.01641 2.32698 6.63803C2.6146 6.07354 3.07354 5.6146 3.63803 5.32698C4.01641 5.13419 4.40963 5.06287 4.80497 5.03057C5.17955 4.99997 5.63431 4.99998 6.16146 5Z" fill="#0000CC"/>
<path d="M18.0988 16.4254L16.9919 15.7613C17 15.4849 17 15.1766 17 14.8385L17 8.23389L18.0988 7.57457C18.464 7.35541 18.795 7.15677 19.076 7.02144C19.3604 6.88441 19.7447 6.73372 20.1857 6.77483C20.7547 6.82787 21.2739 7.12182 21.6122 7.58248C21.8743 7.93946 21.9428 8.34654 21.9717 8.66096C22.0001 8.97146 22.0001 9.35749 22.0001 9.78337V14.2166C22.0001 14.6425 22.0001 15.0286 21.9717 15.3391C21.9428 15.6535 21.8743 16.0605 21.6122 16.4175C21.2739 16.8782 20.7547 17.1721 20.1857 17.2252C19.7447 17.2663 19.3604 17.1156 19.076 16.9786C18.795 16.8432 18.464 16.6446 18.0988 16.4254Z" fill="#0000CC"/>
<path d="M13.2071 8.29289C13.5976 8.68342 13.5976 9.31658 13.2071 9.70711L8.91421 14H10.5C11.0523 14 11.5 14.4477 11.5 15C11.5 15.5523 11.0523 16 10.5 16H6.5C5.94772 16 5.5 15.5523 5.5 15V11C5.5 10.4477 5.94772 10 6.5 10C7.05228 10 7.5 10.4477 7.5 11V12.5858L11.7929 8.29289C12.1834 7.90237 12.8166 7.90237 13.2071 8.29289Z" fill="#0000CC"/>
</svg>
