<svg width="24" height="24" viewBox="0 0 24 24" fill="none" xmlns="http://www.w3.org/2000/svg">
<path opacity="0.3" fill-rule="evenodd" clip-rule="evenodd" d="M6.16146 5H12.8385C13.3657 4.99998 13.8205 4.99997 14.195 5.03057C14.5904 5.06287 14.9836 5.13419 15.362 5.32698C15.9265 5.6146 16.3854 6.07354 16.673 6.63803C16.8658 7.01641 16.9371 7.40963 16.9694 7.80497C17 8.17955 17 8.63432 17 9.16148V14.8385C17 15.3657 17 15.8205 16.9694 16.195C16.9371 16.5904 16.8658 16.9836 16.673 17.362C16.3854 17.9265 15.9265 18.3854 15.362 18.673C14.9836 18.8658 14.5904 18.9371 14.195 18.9694C13.8205 19 13.3657 19 12.8385 19H6.16148C5.63432 19 5.17955 19 4.80497 18.9694C4.40963 18.9371 4.01641 18.8658 3.63803 18.673C3.07354 18.3854 2.6146 17.9265 2.32698 17.362C2.13419 16.9836 2.06287 16.5904 2.03057 16.195C1.99997 15.8205 1.99998 15.3657 2 14.8385V9.16146C1.99998 8.63431 1.99997 8.17955 2.03057 7.80497C2.06287 7.40963 2.13419 7.01641 2.32698 6.63803C2.6146 6.07354 3.07354 5.6146 3.63803 5.32698C4.01641 5.13419 4.40963 5.06287 4.80497 5.03057C5.17955 4.99997 5.63431 4.99998 6.16146 5Z" fill="#0000CC"/>
<path d="M16.9922 15.7614L18.0989 16.4254C18.4641 16.6446 18.7952 16.8432 19.0761 16.9786C19.3605 17.1156 19.7449 17.2663 20.1858 17.2252C20.7549 17.1721 21.274 16.8782 21.6123 16.4175C21.8744 16.0605 21.9429 15.6535 21.9718 15.3391C22.0003 15.0285 22.0002 14.6425 22.0002 14.2166V9.78341C22.0002 9.35751 22.0003 8.97147 21.9718 8.66096C21.9429 8.34654 21.8744 7.93946 21.6123 7.58248C21.274 7.12182 20.7549 6.82787 20.1858 6.77483C19.7449 6.73372 19.3605 6.88441 19.0761 7.02144C18.7952 7.15677 18.4641 7.35541 18.099 7.57457L16.9922 8.23863C17.0003 8.51509 17.0002 8.82339 17.0002 9.16146V14.8385C17.0002 15.1766 17.0003 15.4849 16.9922 15.7614Z" fill="#0000CC"/>
</svg>
