<svg width="24" height="24" viewBox="0 0 24 24" fill="none" xmlns="http://www.w3.org/2000/svg">
<path fill-rule="evenodd" clip-rule="evenodd" d="M7 4C7.55228 4 8 4.44772 8 5V19C8 19.5523 7.55228 20 7 20C6.44772 20 6 19.5523 6 19V5C6 4.44772 6.44772 4 7 4Z" fill="#0000CC"/>
<path opacity="0.3" fill-rule="evenodd" clip-rule="evenodd" d="M8 13.9882C8.06704 14.0597 8.13637 14.129 8.20706 14.1965C8.53018 14.5051 8.95954 14.8486 9.46448 15.2525L13.8101 18.729C14.1964 19.0381 14.5384 19.3118 14.8286 19.5036C15.1119 19.6909 15.5129 19.9189 15.9975 19.9194C16.6065 19.92 17.1827 19.6431 17.5627 19.1671C17.865 18.7884 17.9375 18.3329 17.9682 17.9946C17.9997 17.6482 17.9996 17.2102 17.9996 16.7155V7.28454C17.9996 6.78986 17.9997 6.35179 17.9682 6.00542C17.9375 5.66715 17.865 5.2116 17.5627 4.83293C17.1827 4.3569 16.6065 4.07997 15.9975 4.08063C15.5129 4.08115 15.1119 4.30911 14.8286 4.49643C14.5384 4.68824 14.1964 4.96191 13.8101 5.27096L9.46448 8.74748C8.95954 9.15141 8.53018 9.49487 8.20706 9.80351C8.13637 9.87103 8.06704 9.94026 8 10.0118V13.9882Z" fill="#0000CC"/>
</svg>
