<svg width="24" height="24" viewBox="0 0 24 24" fill="none" xmlns="http://www.w3.org/2000/svg">
<g opacity="0.3">
<path d="M17 5C17 4.44772 16.5523 4 16 4C15.4477 4 15 4.44772 15 5V10C15 10.5523 15.4477 11 16 11H21C21.5523 11 22 10.5523 22 10C22 9.44772 21.5523 9 21 9H17V5Z" fill="#0000CC"/>
<path d="M3 13C2.44772 13 2 13.4477 2 14C2 14.5523 2.44772 15 3 15H7V19C7 19.5523 7.44772 20 8 20C8.55228 20 9 19.5523 9 19V14C9 13.4477 8.55228 13 8 13H3Z" fill="#0000CC"/>
</g>
<path fill-rule="evenodd" clip-rule="evenodd" d="M8 4C8.55228 4 9 4.44772 9 5V10C9 10.5523 8.55228 11 8 11H3C2.44772 11 2 10.5523 2 10C2 9.44772 2.44772 9 3 9H7V5C7 4.44772 7.44772 4 8 4ZM15 14C15 13.4477 15.4477 13 16 13H21C21.5523 13 22 13.4477 22 14C22 14.5523 21.5523 15 21 15H17V19C17 19.5523 16.5523 20 16 20C15.4477 20 15 19.5523 15 19V14Z" fill="#0000CC"/>
</svg>
