<svg width="24" height="24" viewBox="0 0 24 24" fill="none" xmlns="http://www.w3.org/2000/svg">
<path fill-rule="evenodd" clip-rule="evenodd" d="M2.43846 4.81535C2.8189 4.36991 3.3896 4.13352 3.97358 4.17948C4.4629 4.21799 4.83803 4.50243 5.07082 4.69732C5.32113 4.90688 5.61427 5.20005 5.94327 5.52909C5.95353 5.53935 5.96382 5.54964 5.97415 5.55997L10.7681 10.3539C10.7751 10.3609 10.7821 10.3679 10.7891 10.3749C10.9351 10.5209 11.0839 10.6697 11.2008 10.8073C11.3308 10.9605 11.4788 11.1642 11.5666 11.4345C11.6861 11.8021 11.6861 12.198 11.5666 12.5655C11.4788 12.8359 11.3308 13.0396 11.2008 13.1928C11.0839 13.3304 10.9351 13.4792 10.7891 13.6252L5.94326 18.471C5.61426 18.8 5.32113 19.0932 5.07082 19.3028C4.83803 19.4977 4.4629 19.7821 3.97358 19.8206C3.3896 19.8666 2.8189 19.6302 2.43846 19.1847C2.11969 18.8115 2.05556 18.3451 2.02876 18.0427C1.99995 17.7175 1.99997 17.3029 2 16.8376L2 7.20612C2 7.19151 2 7.17696 2 7.16245C1.99997 6.69714 1.99995 6.28256 2.02876 5.95738C2.05556 5.65496 2.11969 5.18858 2.43846 4.81535Z" fill="#0000CC"/>
<g opacity="0.3">
<path d="M15 4C15.5523 4 16 4.44772 16 5V19C16 19.5523 15.5523 20 15 20C14.4477 20 14 19.5523 14 19V5C14 4.44772 14.4477 4 15 4Z" fill="#0000CC"/>
<path d="M21 4C21.5523 4 22 4.44772 22 5V19C22 19.5523 21.5523 20 21 20C20.4477 20 20 19.5523 20 19V5C20 4.44772 20.4477 4 21 4Z" fill="#0000CC"/>
</g>
</svg>
