<svg width="24" height="24" viewBox="0 0 24 24" fill="none" xmlns="http://www.w3.org/2000/svg">
<path d="M17.2546 4.62478C17.6229 4.21326 18.2551 4.17824 18.6666 4.54656C20.7108 6.3762 21.9997 9.03826 21.9997 12C21.9997 14.9618 20.7108 17.6238 18.6666 19.4535C18.2551 19.8218 17.6229 19.7868 17.2546 19.3752C16.8862 18.9637 16.9213 18.3315 17.3328 17.9632C18.971 16.4969 19.9997 14.3693 19.9997 12C19.9997 9.63078 18.971 7.50312 17.3328 6.03683C16.9213 5.66851 16.8862 5.03631 17.2546 4.62478Z" fill="#0000CC"/>
<path d="M15.3995 8.20045C15.8411 7.86876 16.4679 7.95785 16.7996 8.39944C17.5529 9.40233 17.9997 10.6504 17.9997 12C17.9997 13.3496 17.5529 14.5977 16.7996 15.6006C16.4679 16.0422 15.8411 16.1313 15.3995 15.7996C14.9579 15.4679 14.8688 14.841 15.2005 14.3994C15.7026 13.731 15.9997 12.9017 15.9997 12C15.9997 11.0984 15.7026 10.269 15.2005 9.60059C14.8688 9.15901 14.9579 8.53214 15.3995 8.20045Z" fill="#0000CC"/>
<path opacity="0.3" fill-rule="evenodd" clip-rule="evenodd" d="M12.6137 3.37617C12.9217 3.7175 12.9638 4.14887 12.9803 4.34083C13.0001 4.5722 13 4.86429 13 5.17117V18.8288C13 19.1357 13.0001 19.4277 12.9803 19.6591C12.9638 19.8511 12.9217 20.2825 12.6137 20.6238C12.2792 20.9946 11.7821 21.1745 11.2877 21.1039C10.8326 21.0388 10.5241 20.7344 10.3885 20.5974C10.2252 20.4324 10.0382 20.208 9.84179 19.9722L7.19129 16.7916C6.80395 16.3268 6.72156 16.2404 6.63878 16.1822C6.54301 16.1148 6.43614 16.0647 6.32306 16.0343C6.2253 16.008 6.10625 16 5.50121 16L4.56812 16C4.31574 16 4.06994 16 3.86178 15.983C3.63318 15.9644 3.36345 15.9203 3.09202 15.782C2.7157 15.5902 2.40974 15.2843 2.21799 14.908C2.0797 14.6365 2.03563 14.3668 2.01695 14.1382C1.99994 13.93 1.99997 13.6843 2 13.4319L2.00001 10.6C2.00001 10.5893 2 10.5787 2 10.5681C1.99997 10.3157 1.99994 10.0699 2.01695 9.86175C2.03563 9.63315 2.07969 9.36342 2.21799 9.092C2.40974 8.71567 2.7157 8.40971 3.09202 8.21796C3.36345 8.07967 3.63318 8.0356 3.86178 8.01692C4.06993 7.99991 4.31572 7.99994 4.56811 7.99997C4.57873 7.99998 4.58936 7.99998 4.60001 7.99998H5.50121C6.10625 7.99998 6.2253 7.99194 6.32306 7.96564C6.43614 7.93521 6.54301 7.88516 6.63878 7.81776C6.72156 7.7595 6.80395 7.67319 7.19129 7.20838L9.84182 4.02774C10.0383 3.79197 10.2252 3.56756 10.3886 3.4025C10.5241 3.26556 10.8326 2.96116 11.2877 2.8961C11.7821 2.82542 12.2792 3.0054 12.6137 3.37617Z" fill="#0000CC"/>
</svg>
