<svg width="24" height="24" viewBox="0 0 24 24" fill="none" xmlns="http://www.w3.org/2000/svg">
<path opacity="0.3" fill-rule="evenodd" clip-rule="evenodd" d="M3 2C3.55229 2 4 2.44772 4 3V16.2C4 17.0566 4.00078 17.6389 4.03755 18.089C4.07337 18.5274 4.1383 18.7516 4.21799 18.908C4.40973 19.2843 4.7157 19.5903 5.09202 19.782C5.24842 19.8617 5.47262 19.9266 5.91104 19.9624C6.36113 19.9992 6.94342 20 7.8 20H21C21.5523 20 22 20.4477 22 21C22 21.5523 21.5523 22 21 22H7.75868C6.95372 22 6.28936 22 5.74817 21.9558C5.18608 21.9099 4.66937 21.8113 4.18404 21.564C3.43139 21.1805 2.81947 20.5686 2.43598 19.816C2.18868 19.3306 2.09012 18.8139 2.04419 18.2518C1.99998 17.7106 1.99999 17.0463 2 16.2413L2 3C2 2.44772 2.44772 2 3 2Z" fill="#0000CC"/>
<path d="M19 4C19.5523 4 20 4.44772 20 5V17C20 17.5523 19.5523 18 19 18C18.4477 18 18 17.5523 18 17V5C18 4.44772 18.4477 4 19 4Z" fill="#0000CC"/>
<path d="M11 6C11.5523 6 12 6.44772 12 7V17C12 17.5523 11.5523 18 11 18C10.4477 18 10 17.5523 10 17V7C10 6.44772 10.4477 6 11 6Z" fill="#0000CC"/>
<path d="M15 9C15.5523 9 16 9.44772 16 10V17C16 17.5523 15.5523 18 15 18C14.4477 18 14 17.5523 14 17V10C14 9.44772 14.4477 9 15 9Z" fill="#0000CC"/>
<path d="M7 12C7.55228 12 8 12.4477 8 13V17C8 17.5523 7.55228 18 7 18C6.44772 18 6 17.5523 6 17V13C6 12.4477 6.44772 12 7 12Z" fill="#0000CC"/>
</svg>
