<svg width="24" height="24" viewBox="0 0 24 24" fill="none" xmlns="http://www.w3.org/2000/svg">
<path opacity="0.3" fill-rule="evenodd" clip-rule="evenodd" d="M9.94699 9.03982L8.80341 5.99029C8.86808 5.99659 8.93366 5.99982 8.99999 5.99982C9.67153 5.99982 10.2658 5.66885 10.6285 5.16113L11.7519 8.15686C12.1508 8.05434 12.569 7.99982 13 7.99982C14.0191 7.99982 14.9669 8.3047 15.7574 8.82822L18.0677 6.51787C18.2518 7.20608 18.7937 7.74803 19.4819 7.93208L17.1716 10.2424C17.6951 11.0329 18 11.9807 18 12.9998C18 14.0189 17.6951 14.9668 17.1716 15.7572L19.4819 18.0676C18.7937 18.2516 18.2518 18.7936 18.0677 19.4818L15.7574 17.1714C14.9669 17.6949 14.0191 17.9998 13 17.9998C10.581 17.9998 8.56327 16.2821 8.1 13.9998H5.73242C5.90259 13.7057 5.99999 13.3641 5.99999 12.9998C5.99999 12.6355 5.90259 12.294 5.73242 11.9998H8.1C8.34312 10.8021 9.01434 9.75991 9.94699 9.03982ZM13 14.9998C14.1046 14.9998 15 14.1044 15 12.9998C15 11.8952 14.1046 10.9998 13 10.9998C11.8954 10.9998 11 11.8952 11 12.9998C11 14.1044 11.8954 14.9998 13 14.9998Z" fill="#0000CC"/>
<path d="M9 6C10.1046 6 11 5.10457 11 4C11 2.89543 10.1046 2 9 2C7.89543 2 7 2.89543 7 4C7 5.10457 7.89543 6 9 6Z" fill="#0000CC"/>
<path d="M20 8C21.1046 8 22 7.10457 22 6C22 4.89543 21.1046 4 20 4C18.8954 4 18 4.89543 18 6C18 7.10457 18.8954 8 20 8Z" fill="#0000CC"/>
<path d="M6 13C6 14.1046 5.10457 15 4 15C2.89543 15 2 14.1046 2 13C2 11.8954 2.89543 11 4 11C5.10457 11 6 11.8954 6 13Z" fill="#0000CC"/>
<path d="M20 22C21.1046 22 22 21.1046 22 20C22 18.8954 21.1046 18 20 18C18.8954 18 18 18.8954 18 20C18 21.1046 18.8954 22 20 22Z" fill="#0000CC"/>
</svg>
