<svg width="24" height="24" viewBox="0 0 24 24" fill="none" xmlns="http://www.w3.org/2000/svg">
<g opacity="0.3">
<path d="M17 12C17 15.3574 14.9318 18.2317 12 19.4185C12.9264 19.7935 13.9391 20 15 20C19.4183 20 23 16.4183 23 12C23 7.58172 19.4183 4 15 4C13.9391 4 12.9264 4.20651 12 4.58152C14.9318 5.76829 17 8.64262 17 12Z" fill="#0000CC"/>
<path d="M7 12C7 9.63048 8.03018 7.50155 9.6671 6.03668C10.5096 6.12988 11.2996 6.39753 12 6.80271C10.2066 7.84014 9 9.77917 9 12C9 14.2209 10.2066 16.1599 12 17.1973C11.2996 17.6025 10.5096 17.8702 9.6671 17.9633C8.03018 16.4985 7 14.3696 7 12Z" fill="#0000CC"/>
</g>
<path fill-rule="evenodd" clip-rule="evenodd" d="M9 4C4.58172 4 1 7.58172 1 12C1 16.4183 4.58172 20 9 20C13.4183 20 17 16.4183 17 12C17 7.58172 13.4183 4 9 4ZM3 12C3 8.68629 5.68629 6 9 6C11.2208 6 13.1599 7.2066 14.1973 9H9.8027C9.45135 9.60738 9.20341 10.2821 9.08296 11H14.917C14.9716 11.3252 15 11.6593 15 12C15 12.3407 14.9716 12.6748 14.917 13H9.08296C9.2034 13.7179 9.45133 14.3926 9.80269 15H14.1973C13.6704 15.9109 12.9109 16.6704 12 17.1973C11.2996 17.6025 10.5096 17.8702 9.6671 17.9633C9.44807 17.9876 9.22548 18 9 18C5.68629 18 3 15.3137 3 12Z" fill="#0000CC"/>
</svg>
