<svg width="24" height="24" viewBox="0 0 24 24" fill="none" xmlns="http://www.w3.org/2000/svg">
<g opacity="0.3">
<path d="M8.99987 6.8C8.99987 7.06219 8.99987 7.29369 8.99707 7.5H15.0027C14.9999 7.29369 14.9999 7.06219 14.9999 6.8V6.2C14.9999 5.93781 14.9999 5.70631 15.0027 5.5H8.99707C8.99987 5.7063 8.99987 5.93781 8.99987 6.2V6.8Z" fill="#0000CC"/>
<path d="M7.90815 9.78204C7.76591 9.85452 7.60906 9.90289 7.42188 9.93519L11.0928 15.4416C11.1234 15.3126 11.1641 15.1982 11.2182 15.092C11.4099 14.7157 11.7159 14.4098 12.0922 14.218C12.2345 14.1455 12.3914 14.0971 12.5787 14.0648L8.9076 8.55823C8.87701 8.68735 8.83632 8.80176 8.78218 8.90801C8.59044 9.28434 8.28447 9.5903 7.90815 9.78204Z" fill="#0000CC"/>
</g>
<path d="M2 6.2C2 5.0799 2 4.51984 2.21799 4.09202C2.40973 3.71569 2.71569 3.40973 3.09202 3.21799C3.51984 3 4.0799 3 5.2 3H5.8C6.9201 3 7.48016 3 7.90798 3.21799C8.28431 3.40973 8.59027 3.71569 8.78201 4.09202C9 4.51984 9 5.0799 9 6.2V6.8C9 7.9201 9 8.48016 8.78201 8.90798C8.59027 9.28431 8.28431 9.59027 7.90798 9.78201C7.48016 10 6.9201 10 5.8 10H5.2C4.0799 10 3.51984 10 3.09202 9.78201C2.71569 9.59027 2.40973 9.28431 2.21799 8.90798C2 8.48016 2 7.9201 2 6.8V6.2Z" fill="#0000CC"/>
<path d="M15 6.2C15 5.0799 15 4.51984 15.218 4.09202C15.4097 3.71569 15.7157 3.40973 16.092 3.21799C16.5198 3 17.0799 3 18.2 3H18.8C19.9201 3 20.4802 3 20.908 3.21799C21.2843 3.40973 21.5903 3.71569 21.782 4.09202C22 4.51984 22 5.0799 22 6.2V6.8C22 7.9201 22 8.48016 21.782 8.90798C21.5903 9.28431 21.2843 9.59027 20.908 9.78201C20.4802 10 19.9201 10 18.8 10H18.2C17.0799 10 16.5198 10 16.092 9.78201C15.7157 9.59027 15.4097 9.28431 15.218 8.90798C15 8.48016 15 7.9201 15 6.8V6.2Z" fill="#0000CC"/>
<path d="M11.218 15.092C11 15.5198 11 16.0799 11 17.2V17.8C11 18.9201 11 19.4802 11.218 19.908C11.4097 20.2843 11.7157 20.5903 12.092 20.782C12.5198 21 13.0799 21 14.2 21H14.8C15.9201 21 16.4802 21 16.908 20.782C17.2843 20.5903 17.5903 20.2843 17.782 19.908C18 19.4802 18 18.9201 18 17.8V17.2C18 16.0799 18 15.5198 17.782 15.092C17.5903 14.7157 17.2843 14.4097 16.908 14.218C16.4802 14 15.9201 14 14.8 14H14.2C13.0799 14 12.5198 14 12.092 14.218C11.7157 14.4097 11.4097 14.7157 11.218 15.092Z" fill="#0000CC"/>
</svg>
