<svg width="24" height="24" viewBox="0 0 24 24" fill="none" xmlns="http://www.w3.org/2000/svg">
<path opacity="0.14" d="M7 9H18C18.9319 9 19.3978 9 19.7654 9.15224C20.2554 9.35523 20.6448 9.74458 20.8478 10.2346C21 10.6022 21 11.0681 21 12C21 12.9319 21 13.3978 20.8478 13.7654C20.6448 14.2554 20.2554 14.6448 19.7654 14.8478C19.3978 15 18.9319 15 18 15H7V9Z" fill="#0000CC"/>
<path d="M7 9V15M11 12H11.01M14 12H14.01M17 12H17.01M18 15H6C5.06812 15 4.60218 15 4.23463 14.8478C3.74458 14.6448 3.35523 14.2554 3.15224 13.7654C3 13.3978 3 12.9319 3 12C3 11.0681 3 10.6022 3.15224 10.2346C3.35523 9.74458 3.74458 9.35523 4.23463 9.15224C4.60218 9 5.06812 9 6 9H18C18.9319 9 19.3978 9 19.7654 9.15224C20.2554 9.35523 20.6448 9.74458 20.8478 10.2346C21 10.6022 21 11.0681 21 12C21 12.9319 21 13.3978 20.8478 13.7654C20.6448 14.2554 20.2554 14.6448 19.7654 14.8478C19.3978 15 18.9319 15 18 15Z" stroke="#0000CC" stroke-width="2" stroke-linecap="round" stroke-linejoin="round"/>
</svg>
