<svg width="24" height="24" viewBox="0 0 24 24" fill="none" xmlns="http://www.w3.org/2000/svg">
<g opacity="0.14">
<path d="M17.447 3.35119L13.047 4.81786C12.8503 4.88343 12.752 4.91621 12.6792 4.97702C12.615 5.03072 12.5653 5.09968 12.5347 5.17757C12.5 5.26579 12.5 5.36946 12.5 5.57681V8.89026C12.5 9.265 12.5 9.45237 12.5784 9.57536C12.6471 9.68302 12.7544 9.76033 12.8782 9.79143C13.0197 9.82696 13.1975 9.76771 13.553 9.6492L17.953 8.18254C18.1497 8.11697 18.248 8.08419 18.3208 8.02338C18.385 7.96968 18.4347 7.90072 18.4653 7.82282C18.5 7.73461 18.5 7.63094 18.5 7.42359V4.11014C18.5 3.7354 18.5 3.54803 18.4216 3.42504C18.3529 3.31737 18.2456 3.24007 18.1218 3.20897C17.9803 3.17344 17.8025 3.23269 17.447 3.35119Z" fill="#0000CC"/>
<path d="M12.5 18.5002C12.5 19.8809 10.933 21.0002 9 21.0002C7.067 21.0002 5.5 19.8809 5.5 18.5002C5.5 17.1195 7.067 16.0002 9 16.0002C10.933 16.0002 12.5 17.1195 12.5 18.5002Z" fill="#0000CC"/>
</g>
<path d="M12.5 6.8935V5.57661C12.5 5.36926 12.5 5.26559 12.5347 5.17738C12.5653 5.09948 12.615 5.03052 12.6792 4.97682C12.752 4.91601 12.8503 4.88323 13.047 4.81766L17.447 3.35099C17.8025 3.23249 17.9803 3.17324 18.1218 3.20877C18.2456 3.23987 18.3529 3.31718 18.4216 3.42484C18.5 3.54783 18.5 3.7352 18.5 4.10994V7.42339C18.5 7.63074 18.5 7.73441 18.4653 7.82262C18.4347 7.90052 18.385 7.96948 18.3208 8.02318C18.248 8.08399 18.1497 8.11677 17.953 8.18234L14.8192 9.22692M12.5 12.5V18.5M12.5 18.5C12.5 19.8807 10.933 21 9 21C7.067 21 5.5 19.8807 5.5 18.5C5.5 17.1193 7.067 16 9 16C10.933 16 12.5 17.1193 12.5 18.5ZM3 3L21 21" stroke="#0000CC" stroke-width="2" stroke-linecap="round" stroke-linejoin="round"/>
</svg>
