<svg width="24" height="24" viewBox="0 0 24 24" fill="none" xmlns="http://www.w3.org/2000/svg">
<path opacity="0.14" d="M8.30595 19.371L12.0008 16.7999L12.0008 4.44753V4.44752C12.0008 4.18078 12.0008 4.0474 11.9674 4.01758C11.9387 3.99199 11.8979 3.98509 11.8624 3.99986C11.821 4.01705 11.7772 4.14304 11.6897 4.395L9.94998 9.39985C9.8841 9.58938 9.85116 9.68414 9.7918 9.75471C9.73936 9.81706 9.67249 9.86564 9.597 9.89625C9.51154 9.93089 9.41123 9.93294 9.21063 9.93702L5.26677 10.0174C4.56191 10.0318 4.20949 10.0389 4.06884 10.1732C3.94711 10.2894 3.892 10.459 3.92218 10.6246C3.95706 10.8158 4.23795 11.0288 4.79975 11.4547L7.94316 13.8379C8.10305 13.9591 8.183 14.0197 8.23177 14.098C8.27486 14.1671 8.3004 14.2457 8.30618 14.327C8.31272 14.419 8.28367 14.515 8.22556 14.707L7.08328 18.4827C6.87913 19.1575 6.77706 19.4949 6.86127 19.6702C6.93416 19.8218 7.07846 19.9267 7.24523 19.9491C7.43793 19.9751 7.72727 19.7737 8.30595 19.371Z" fill="#0000CC"/>
<path d="M8.30497 19.3711L11.9998 16.8L11.9998 4.4476V4.44758C11.9998 4.18085 11.9998 4.04746 11.9664 4.01764C11.9377 3.99205 11.8969 3.98516 11.8614 3.99992C11.8201 4.01712 11.7763 4.1431 11.6887 4.39506L9.949 9.39991C9.88312 9.58944 9.85018 9.6842 9.79082 9.75478C9.73839 9.81712 9.67152 9.8657 9.59602 9.89631C9.51056 9.93095 9.41026 9.933 9.20965 9.93708L5.26579 10.0175C4.56094 10.0318 4.20851 10.039 4.06786 10.1733C3.94613 10.2894 3.89102 10.4591 3.9212 10.6246C3.95608 10.8159 4.23698 11.0289 4.79877 11.4548L7.94218 13.8379C8.10207 13.9592 8.18202 14.0198 8.2308 14.098C8.27388 14.1672 8.29943 14.2458 8.3052 14.327C8.31174 14.419 8.28269 14.5151 8.22459 14.7071L7.0823 18.4828C6.87815 19.1576 6.77608 19.495 6.8603 19.6702C6.93318 19.8219 7.07748 19.9267 7.24425 19.9492C7.43695 19.9751 7.72629 19.7738 8.30497 19.3711Z" stroke="#0000CC" stroke-width="2" stroke-linecap="round" stroke-linejoin="round"/>
</svg>
