<svg width="24" height="24" viewBox="0 0 24 24" fill="none" xmlns="http://www.w3.org/2000/svg">
<path opacity="0.14" fill-rule="evenodd" clip-rule="evenodd" d="M10.2765 6.93078L3.77331 17.9862C2.98903 19.3194 3.95034 21.0002 5.49718 21.0002H18.5035C20.0503 21.0002 21.0117 19.3194 20.2274 17.9862L13.7242 6.93078C12.9509 5.61617 11.0498 5.61617 10.2765 6.93078ZM12 17C13.1046 17 14 16.1046 14 15C14 13.8954 13.1046 13 12 13C10.8954 13 10 13.8954 10 15C10 16.1046 10.8954 17 12 17Z" fill="#0000CC"/>
<path d="M13.5003 13.5L16.0744 10.9259M20.0003 7L16.0744 10.9259M18.1123 14.3903L20.2274 17.986C21.0117 19.3192 20.0503 21 18.5035 21H5.49718C3.95034 21 2.98903 19.3192 3.77331 17.986L10.2765 6.93058C11.0498 5.61596 12.9509 5.61596 13.7242 6.93058L16.0744 10.9259M12.0003 5.94462V3M14.0003 15C14.0003 16.1046 13.1049 17 12.0003 17C10.8958 17 10.0003 16.1046 10.0003 15C10.0003 13.8954 10.8958 13 12.0003 13C13.1049 13 14.0003 13.8954 14.0003 15Z" stroke="#0000CC" stroke-width="2" stroke-linecap="round" stroke-linejoin="round"/>
</svg>
