<svg width="24" height="24" viewBox="0 0 24 24" fill="none" xmlns="http://www.w3.org/2000/svg">
<path opacity="0.3" fill-rule="evenodd" clip-rule="evenodd" d="M12 22C17.5228 22 22 17.5228 22 12C22 6.47715 17.5228 2 12 2C6.47715 2 2 6.47715 2 12C2 17.5228 6.47715 22 12 22Z" fill="#0000CC"/>
<path fill-rule="evenodd" clip-rule="evenodd" d="M11.9675 9.25C11.5029 9.25 11.11 9.56774 10.999 9.99926C10.8613 10.5341 10.3161 10.8561 9.78126 10.7184C9.2464 10.5808 8.92442 10.0356 9.06208 9.50074C9.39505 8.20704 10.5683 7.25 11.9675 7.25C13.6244 7.25 14.9675 8.59315 14.9675 10.25C14.9675 11.1814 14.513 11.7993 14.037 12.2587C13.8441 12.4449 13.6245 12.6269 13.4271 12.7905C13.398 12.8146 13.3694 12.8383 13.3414 12.8616C13.111 13.0533 12.8905 13.2413 12.6746 13.4571C12.2841 13.8476 11.6509 13.8476 11.2604 13.4571C10.8699 13.0666 10.8699 12.4334 11.2604 12.0429C11.5446 11.7587 11.8241 11.5223 12.0624 11.324C12.094 11.2978 12.1245 11.2725 12.1539 11.248C12.3585 11.0782 12.5137 10.9494 12.6481 10.8197C12.922 10.5553 12.9675 10.4232 12.9675 10.25C12.9675 9.69772 12.5198 9.25 11.9675 9.25ZM11.9775 16.75H11.9675C11.4152 16.75 10.9675 16.3023 10.9675 15.75C10.9675 15.1977 11.4152 14.75 11.9675 14.75H11.9775C12.5298 14.75 12.9775 15.1977 12.9775 15.75C12.9775 16.3023 12.5298 16.75 11.9775 16.75Z" fill="#0000CC"/>
</svg>
