<svg width="24" height="24" viewBox="0 0 24 24" fill="none" xmlns="http://www.w3.org/2000/svg">
<g opacity="0.3">
<path d="M11 4C10.4477 4 10 4.44772 10 5C10 5.55228 10.4477 6 11 6H13V7H15V6H17C17.5523 6 18 5.55228 18 5C18 4.44772 17.5523 4 17 4H11Z" fill="#0000CC"/>
<path d="M5 13V11H4V9C4 8.44772 3.55228 8 3 8C2.44772 8 2 8.44772 2 9V15C2 15.5523 2.44772 16 3 16C3.55228 16 4 15.5523 4 15V13H5Z" fill="#0000CC"/>
<path d="M22 11C22 10.4477 21.5523 10 21 10C20.4477 10 20 10.4477 20 11V19C20 19.5523 20.4477 20 21 20C21.5523 20 22 19.5523 22 19V11Z" fill="#0000CC"/>
</g>
<path fill-rule="evenodd" clip-rule="evenodd" d="M18.7071 9.29289C18.8946 9.48043 19 9.73478 19 10V19C19 19.5523 18.5523 20 18 20H10C9.66565 20 9.35342 19.8329 9.16795 19.5547L7.46482 17H6C5.44772 17 5 16.5523 5 16V8C5 7.44772 5.44772 7 6 7H16C16.2652 7 16.5196 7.10536 16.7071 7.29289L18.7071 9.29289ZM12 10C12.5523 10 13 10.4477 13 11V13C13 13.5523 12.5523 14 12 14C11.4477 14 11 13.5523 11 13V11C11 10.4477 11.4477 10 12 10ZM13 16C13 16.5523 12.5523 17 12 17C11.4477 17 11 16.5523 11 16C11 15.4477 11.4477 15 12 15C12.5523 15 13 15.4477 13 16Z" fill="#0000CC"/>
</svg>
