<svg width="24" height="24" viewBox="0 0 24 24" fill="none" xmlns="http://www.w3.org/2000/svg">
<path opacity="0.3" fill-rule="evenodd" clip-rule="evenodd" d="M8.73152 2.33945C8.76992 2.3395 8.80864 2.33955 8.84769 2.33955H15.1526C15.1917 2.33955 15.2304 2.3395 15.2688 2.33945C15.826 2.33875 16.3163 2.33814 16.7725 2.48638C17.1724 2.61629 17.5404 2.8288 17.8529 3.11011C18.2093 3.43109 18.454 3.85602 18.732 4.3389C18.7511 4.37218 18.7704 4.40573 18.79 4.43955L21.9424 9.8998C21.962 9.93362 21.9814 9.96712 22.0006 10.0004C22.2798 10.4825 22.5255 10.9069 22.6252 11.3761C22.7126 11.7873 22.7126 12.2123 22.6252 12.6235C22.5255 13.0927 22.2798 13.517 22.0006 13.9992C21.9814 14.0325 21.962 14.066 21.9424 14.0998L18.79 19.5601C18.7704 19.5939 18.7511 19.6274 18.732 19.6607C18.454 20.1436 18.2093 20.5685 17.8529 20.8895C17.5404 21.1708 17.1724 21.3833 16.7725 21.5132C16.3163 21.6615 15.826 21.6608 15.2688 21.6602C15.2304 21.6601 15.1917 21.6601 15.1526 21.6601H8.84769C8.80864 21.6601 8.76992 21.6601 8.73152 21.6602C8.17434 21.6608 7.68403 21.6615 7.22782 21.5132C6.82798 21.3833 6.45991 21.1708 6.14748 20.8895C5.79099 20.5685 5.54637 20.1436 5.26838 19.6607C5.24922 19.6274 5.22991 19.5939 5.21038 19.5601L2.0579 14.0998C2.03838 14.066 2.01898 14.0325 1.99974 13.9992C1.72055 13.5171 1.47486 13.0927 1.37513 12.6235C1.28772 12.2123 1.28772 11.7873 1.37513 11.3761C1.47486 10.9069 1.72054 10.4825 1.99974 10.0004C2.01898 9.96712 2.03838 9.93362 2.0579 9.8998L5.21038 4.43955C5.22991 4.40573 5.24923 4.37217 5.26838 4.33889C5.54637 3.85601 5.791 3.43109 6.14748 3.11011C6.45991 2.8288 6.82798 2.61629 7.22782 2.48638C7.68403 2.33814 8.17434 2.33875 8.73152 2.33945Z" fill="#0000CC"/>
<path fill-rule="evenodd" clip-rule="evenodd" d="M12 7C11.4477 7 11 7.44772 11 8V13C11 13.5523 11.4477 14 12 14C12.5523 14 13 13.5523 13 13V8C13 7.44772 12.5523 7 12 7ZM12 17C12.5523 17 13 16.5523 13 16C13 15.4477 12.5523 15 12 15C11.4477 15 11 15.4477 11 16C11 16.5523 11.4477 17 12 17Z" fill="#0000CC"/>
</svg>
