<svg width="24" height="24" viewBox="0 0 24 24" fill="none" xmlns="http://www.w3.org/2000/svg">
<path opacity="0.3" fill-rule="evenodd" clip-rule="evenodd" d="M11.3818 1.51195C11.7835 1.38143 12.2162 1.38143 12.6179 1.51195C12.9076 1.60608 13.1295 1.76565 13.3043 1.91409C13.4636 2.04926 13.6373 2.22308 13.8158 2.40157L15.2383 3.82411C15.331 3.91674 15.3774 3.96281 15.4125 3.99485L15.4151 3.99727L15.4187 3.99744C15.4662 3.99961 15.5316 3.99985 15.6626 3.99985L17.4317 3.99985C17.6841 3.99982 17.9299 3.99979 18.1381 4.01679C18.3667 4.03547 18.6364 4.07954 18.9078 4.21784C19.2842 4.40958 19.5901 4.71554 19.7819 5.09187C19.9202 5.36329 19.9642 5.63303 19.9829 5.86162C19.9999 6.06977 19.9999 6.31556 19.9999 6.56793L19.9998 8.33711C19.9998 8.46811 20.0001 8.53349 20.0023 8.58098L20.0024 8.58457L20.0048 8.58723C20.0369 8.62234 20.083 8.66874 20.1756 8.76137L21.5981 10.1839C21.7766 10.3624 21.9504 10.5361 22.0856 10.6954C22.234 10.8702 22.3936 11.0921 22.4877 11.3818C22.6183 11.7835 22.6183 12.2162 22.4877 12.6179C22.3936 12.9076 22.234 13.1295 22.0856 13.3043C21.9504 13.4636 21.7766 13.6373 21.5981 13.8158L20.1756 15.2383C20.083 15.331 20.0369 15.3774 20.0048 15.4125L20.0024 15.4151L20.0023 15.4187C20.0001 15.4662 19.9998 15.5316 19.9998 15.6626L19.9999 17.4318C19.9999 17.6841 19.9999 17.9299 19.9829 18.1381C19.9642 18.3667 19.9202 18.6364 19.7819 18.9078C19.5901 19.2842 19.2842 19.5901 18.9078 19.7819C18.6364 19.9202 18.3667 19.9642 18.1381 19.9829C17.9299 19.9999 17.6841 19.9999 17.4318 19.9999L15.6626 19.9998C15.5316 19.9998 15.4662 20.0001 15.4187 20.0023L15.4151 20.0024L15.4125 20.0048C15.3774 20.0369 15.331 20.083 15.2383 20.1756L13.8157 21.5982C13.6373 21.7766 13.4635 21.9505 13.3043 22.0856C13.1295 22.234 12.9076 22.3936 12.6179 22.4877C12.2162 22.6183 11.7835 22.6183 11.3818 22.4877C11.0921 22.3936 10.8702 22.234 10.6954 22.0856C10.5361 21.9504 10.3624 21.7766 10.1839 21.5981L8.76137 20.1756C8.66874 20.083 8.62234 20.0369 8.58722 20.0048L8.58456 20.0024L8.58098 20.0023C8.53349 20.0001 8.46811 19.9998 8.33711 19.9998L6.56793 19.9999C6.31556 19.9999 6.06977 19.9999 5.86162 19.9829C5.63303 19.9642 5.36329 19.9202 5.09187 19.7819C4.71554 19.5901 4.40958 19.2842 4.21784 18.9078C4.07954 18.6364 4.03547 18.3667 4.01679 18.1381C3.99979 17.9299 3.99982 17.6841 3.99985 17.4317L3.99985 15.6626C3.99985 15.5316 3.99961 15.4662 3.99744 15.4187L3.99727 15.4151L3.99485 15.4125C3.96281 15.3774 3.91674 15.331 3.82411 15.2383L2.40156 13.8158C2.22307 13.6373 2.04925 13.4636 1.91409 13.3043C1.76565 13.1295 1.60608 12.9076 1.51195 12.6179C1.38143 12.2162 1.38143 11.7835 1.51195 11.3818C1.60608 11.0921 1.76565 10.8702 1.91409 10.6954C2.04925 10.5361 2.22307 10.3624 2.40155 10.1839L2.42411 10.1614L3.82411 8.76137C3.91674 8.66874 3.96281 8.62234 3.99485 8.58722L3.99727 8.58457L3.99744 8.58098C3.99961 8.53349 3.99985 8.46811 3.99985 8.33711V6.59985C3.99985 6.58921 3.99985 6.57857 3.99985 6.56795C3.99982 6.31557 3.99979 6.06978 4.01679 5.86162C4.03547 5.63303 4.07954 5.36329 4.21784 5.09187C4.40958 4.71554 4.71554 4.40958 5.09187 4.21784C5.36329 4.07954 5.63303 4.03547 5.86162 4.01679C6.06978 3.99979 6.31557 3.99982 6.56795 3.99985C6.57857 3.99985 6.58921 3.99985 6.59985 3.99985H8.33711C8.46811 3.99985 8.53349 3.99961 8.58098 3.99744L8.58457 3.99727L8.58722 3.99485C8.62234 3.96281 8.66874 3.91674 8.76137 3.82411L10.1839 2.40156C10.3624 2.22308 10.5361 2.04925 10.6954 1.91409C10.8702 1.76565 11.0921 1.60608 11.3818 1.51195Z" fill="#0000CC"/>
<path fill-rule="evenodd" clip-rule="evenodd" d="M11 8C11 7.44772 11.4477 7 12 7C12.5523 7 13 7.44772 13 8V13C13 13.5523 12.5523 14 12 14C11.4477 14 11 13.5523 11 13V8ZM13 16C13 16.5523 12.5523 17 12 17C11.4477 17 11 16.5523 11 16C11 15.4477 11.4477 15 12 15C12.5523 15 13 15.4477 13 16Z" fill="#0000CC"/>
</svg>
