<svg width="24" height="24" viewBox="0 0 24 24" fill="none" xmlns="http://www.w3.org/2000/svg">
<g opacity="0.3">
<path d="M8.96397 5.27326C9.1109 5.80564 8.79844 6.35634 8.26606 6.50327C6.15981 7.0846 4.25153 8.14642 2.66692 9.56468C2.2554 9.93301 1.6232 9.89799 1.25487 9.48646C0.886548 9.07494 0.921569 8.44274 1.3331 8.07442C3.14233 6.45511 5.32353 5.24063 7.73396 4.57536C8.26634 4.42842 8.81703 4.74088 8.96397 5.27326Z" fill="#0000CC"/>
<path d="M15.0361 5.27326C15.183 4.74088 15.7337 4.42842 16.2661 4.57536C18.6765 5.24063 20.8577 6.45511 22.6669 8.07442C23.0784 8.44274 23.1135 9.07494 22.7451 9.48646C22.3768 9.89799 21.7446 9.93301 21.3331 9.56468C19.7485 8.14642 17.8402 7.0846 15.734 6.50327C15.2016 6.35634 14.8891 5.80564 15.0361 5.27326Z" fill="#0000CC"/>
<path d="M8.91636 10.4318C9.13748 10.9379 8.90647 11.5274 8.40038 11.7485C7.39079 12.1896 6.47699 12.8111 5.70005 13.5727C5.30567 13.9594 4.67253 13.9531 4.28591 13.5587C3.89929 13.1643 3.90558 12.5312 4.29997 12.1445C5.24805 11.2151 6.3643 10.4556 7.59964 9.91582C8.10573 9.6947 8.69524 9.92571 8.91636 10.4318Z" fill="#0000CC"/>
<path d="M15.0837 10.4318C15.3048 9.92571 15.8943 9.6947 16.4004 9.91582C17.6357 10.4556 18.752 11.2151 19.7001 12.1445C20.0944 12.5312 20.1007 13.1643 19.7141 13.5587C19.3275 13.9531 18.6944 13.9594 18.3 13.5727C17.523 12.8111 16.6092 12.1896 15.5996 11.7485C15.0935 11.5274 14.8625 10.9379 15.0837 10.4318Z" fill="#0000CC"/>
</g>
<path fill-rule="evenodd" clip-rule="evenodd" d="M12 3.5C12.5523 3.5 13 3.94772 13 4.5V15.5001C13 16.0524 12.5523 16.5001 12 16.5001C11.4477 16.5001 11 16.0524 11 15.5001V4.5C11 3.94772 11.4477 3.5 12 3.5ZM11 19.4999C11 18.9477 11.4477 18.4999 12 18.4999H12.01C12.5623 18.4999 13.01 18.9477 13.01 19.4999C13.01 20.0522 12.5623 20.4999 12.01 20.4999H12C11.4477 20.4999 11 20.0522 11 19.4999Z" fill="#0000CC"/>
</svg>
