<svg width="24" height="24" viewBox="0 0 24 24" fill="none" xmlns="http://www.w3.org/2000/svg">
<path opacity="0.3" fill-rule="evenodd" clip-rule="evenodd" d="M12.5078 15.9598C11.4082 17.2106 9.79631 18 8 18C4.68629 18 2 15.3137 2 12C2 8.68629 4.68629 6 8 6C10.2465 6 12.2047 7.23466 13.2329 9.06243C13.0842 9.34208 13 9.6612 13 10C11.3431 10 10 11.3431 10 13C10 14.4892 11.0851 15.725 12.5078 15.9598Z" fill="#0000CC"/>
<path d="M16 5C16 4.44772 16.4477 4 17 4H18.5C20.433 4 22 5.567 22 7.5C22 9.433 20.433 11 18.5 11H16C15.4477 11 15 10.5523 15 10C15 9.44772 15.4477 9 16 9H18.5C19.3284 9 20 8.32843 20 7.5C20 6.67157 19.3284 6 18.5 6H17C16.4477 6 16 5.55228 16 5Z" fill="#0000CC"/>
<path d="M13 12C12.4477 12 12 12.4477 12 13C12 13.5523 12.4477 14 13 14H18C19.1046 14 20 14.8954 20 16C20 17.1046 19.1046 18 18 18H16C15.4477 18 15 18.4477 15 19C15 19.5523 15.4477 20 16 20H18C20.2091 20 22 18.2091 22 16C22 13.7909 20.2091 12 18 12H13Z" fill="#0000CC"/>
<path d="M8 8C8.55229 8 9 8.44771 9 9V12C9 12.5523 8.55229 13 8 13C7.44772 13 7 12.5523 7 12V9C7 8.44771 7.44772 8 8 8Z" fill="#0000CC"/>
<path d="M9 15C9 15.5523 8.55229 16 8 16C7.44772 16 7 15.5523 7 15C7 14.4477 7.44772 14 8 14C8.55229 14 9 14.4477 9 15Z" fill="#0000CC"/>
</svg>
