<svg width="24" height="24" viewBox="0 0 24 24" fill="none" xmlns="http://www.w3.org/2000/svg">
<path d="M12.7071 7.79292C12.3166 7.40238 11.6835 7.40236 11.2929 7.79287C10.9024 8.18338 10.9024 8.81654 11.2929 9.20708L12.7071 7.79292ZM11.2992 9.21344C11.6897 9.60398 12.3229 9.60401 12.7134 9.2135C13.104 8.82299 13.104 8.18982 12.7135 7.79928L11.2992 9.21344ZM4 9C4 8.44772 3.55228 8 3 8C2.44772 8 2 8.44772 2 9H4ZM22 9.64706C22 9.09477 21.5523 8.64706 21 8.64706C20.4477 8.64706 20 9.09477 20 9.64706H22ZM16 7.5C15.4477 7.5 15 7.94772 15 8.5C15 9.05228 15.4477 9.5 16 9.5V7.5ZM17 9.5C17.5523 9.5 18 9.05228 18 8.5C18 7.94772 17.5523 7.5 17 7.5V9.5ZM7 7.5C6.44772 7.5 6 7.94772 6 8.5C6 9.05228 6.44772 9.5 7 9.5V7.5ZM8 9.5C8.55228 9.5 9 9.05228 9 8.5C9 7.94772 8.55228 7.5 8 7.5V9.5ZM20 8.5C20 9.15981 19.4391 10.0264 17.9167 10.7876C16.4542 11.5188 14.3637 12 12 12V14C14.6069 14 17.0164 13.4738 18.8112 12.5764C20.5462 11.7089 22 10.3255 22 8.5H20ZM12 12C9.6363 12 7.54581 11.5188 6.08325 10.7876C4.56088 10.0264 4 9.15981 4 8.5H2C2 10.3255 3.45384 11.7089 5.18883 12.5764C6.98362 13.4738 9.39314 14 12 14V12ZM4 8.5C4 7.84019 4.56088 6.97363 6.08325 6.21245C7.54581 5.48117 9.6363 5 12 5V3C9.39314 3 6.98362 3.52619 5.18883 4.42359C3.45384 5.29108 2 6.67453 2 8.5H4ZM12 5C14.3637 5 16.4542 5.48117 17.9167 6.21245C19.4391 6.97363 20 7.84019 20 8.5H22C22 6.67453 20.5462 5.29108 18.8112 4.42359C17.0164 3.52619 14.6069 3 12 3V5ZM11.2929 9.20708L11.2992 9.21344L12.7135 7.79928L12.7071 7.79292L11.2929 9.20708ZM2 9V12H4V9H2ZM11 21H13V19H11V21ZM22 12V9.64706H20V12H22ZM13 21C17.9706 21 22 16.9706 22 12H20C20 15.866 16.866 19 13 19V21ZM2 12C2 16.9706 6.02944 21 11 21V19C7.13401 19 4 15.866 4 12H2ZM16 9.5H17V7.5H16V9.5ZM7 9.5H8V7.5H7V9.5Z" fill="#0000CC"/>
</svg>
