<svg width="24" height="24" viewBox="0 0 24 24" fill="none" xmlns="http://www.w3.org/2000/svg">
<path d="M20.8293 9C20.9398 8.68722 21 8.35064 21 8C21 6.34315 19.6569 5 18 5C16.3431 5 15 6.34315 15 8C15 8.35064 15.0602 8.68722 15.1707 9M12 9V6M9 9L8 8M3.07089 9C3.55612 5.60771 6.47353 3 10 3C11.3197 3 12.554 3.36518 13.6076 4M3 12H21V12.7577C21 15.031 19.6542 17.0888 17.5714 18V19C17.5714 19.5523 17.1237 20 16.5714 20H7.42857C6.87629 20 6.42857 19.5523 6.42857 19V18C4.3458 17.0888 3 15.031 3 12.7577V12Z" stroke="#0000CC" stroke-width="2" stroke-linecap="round" stroke-linejoin="round"/>
</svg>
