<svg width="24" height="24" viewBox="0 0 24 24" fill="none" xmlns="http://www.w3.org/2000/svg">
<path d="M15.0801 9.42406L15.2984 7.62741C15.4278 6.56324 15.2409 5.48455 14.7613 4.52586L14.7367 4.47685C14.5987 4.2009 14.2785 4.06868 13.986 4.16678C12.6368 4.61916 11.9452 6.11256 12.4728 7.43414L12.4974 7.49577M15.0801 9.42406L16.8625 9.20062C17.928 9.06705 19.0093 9.25206 19.9698 9.73231C20.2721 9.8835 20.4174 10.234 20.3106 10.5547L20.168 10.9831C19.8044 12.0754 18.5961 12.636 17.5273 12.2083L16.9965 11.9959M15.0801 9.42406C16.221 8.27188 17.5826 7.37614 18.5 6C19.5 4.5 19 3 19 3M12.5 16L11.7929 16.7071M10.5 14L9.79289 14.7071M9.20703 17L8.49992 17.7071M8.5 12L7.79289 12.7071M7.20703 15L6.49992 15.7071M15.5 15L9.5 9C6.18629 9 3.5 11.6863 3.5 15V19C3.5 20.1046 4.39543 21 5.5 21H9.5C12.8137 21 15.5 18.3137 15.5 15Z" stroke="#0000CC" stroke-width="2" stroke-linecap="round" stroke-linejoin="round"/>
</svg>
