<svg width="24" height="24" viewBox="0 0 24 24" fill="none" xmlns="http://www.w3.org/2000/svg">
<path fill-rule="evenodd" clip-rule="evenodd" d="M9.70711 2C8.98914 2 8.30058 2.28521 7.7929 2.79289C7.45227 3.13352 7.21179 3.55557 7.09041 4.0133C6.96427 4.0187 6.84451 4.02631 6.73139 4.03706C6.36128 4.07223 5.99353 4.14585 5.63803 4.32698C5.07354 4.6146 4.6146 5.07354 4.32698 5.63803C4.13419 6.01641 4.06287 6.40963 4.03057 6.80497C3.99997 7.17953 3.99998 7.63429 4 8.16142V17.8385C3.99998 18.3657 3.99997 18.8205 4.03057 19.195C4.06287 19.5904 4.13419 19.9836 4.32698 20.362C4.6146 20.9265 5.07355 21.3854 5.63803 21.673C6.01641 21.8658 6.40963 21.9371 6.80497 21.9694C7.17954 22 7.6343 22 8.16144 22H15.8386C16.3657 22 16.8205 22 17.195 21.9694C17.5904 21.9371 17.9836 21.8658 18.362 21.673C18.9265 21.3854 19.3854 20.9265 19.673 20.362C19.8658 19.9836 19.9371 19.5904 19.9694 19.195C20 18.8205 20 18.3657 20 17.8386V8.16148C20 7.63437 20 7.17952 19.9694 6.80497C19.9371 6.40963 19.8658 6.01641 19.673 5.63803C19.3854 5.07354 18.9265 4.6146 18.362 4.32698C18.0065 4.14585 17.6387 4.07223 17.2686 4.03706C17.1555 4.02631 17.0357 4.0187 16.9096 4.01331C16.7882 3.55558 16.5477 3.13352 16.2071 2.79289C15.6994 2.28521 15.0109 2 14.2929 2H9.70711ZM15 4.70711V6H9V4.70711C9 4.51957 9.0745 4.33972 9.20711 4.20711C9.33972 4.0745 9.51957 4 9.70711 4H14.2929C14.4804 4 14.6603 4.0745 14.7929 4.20711C14.9255 4.33972 15 4.51957 15 4.70711ZM7 11C7 10.4477 7.44772 10 8 10H12C12.5523 10 13 10.4477 13 11C13 11.5523 12.5523 12 12 12H8C7.44772 12 7 11.5523 7 11ZM7 15C7 14.4477 7.44772 14 8 14H16C16.5523 14 17 14.4477 17 15C17 15.5523 16.5523 16 16 16H8C7.44772 16 7 15.5523 7 15Z" fill="#0000CC"/>
</svg>
