<svg width="24" height="24" viewBox="0 0 24 24" fill="none" xmlns="http://www.w3.org/2000/svg">
<path fill-rule="evenodd" clip-rule="evenodd" d="M7.7929 2.79289C8.30058 2.28521 8.98914 2 9.70711 2H14.2929C15.0109 2 15.6994 2.28521 16.2071 2.79289C16.5477 3.13352 16.7882 3.55558 16.9096 4.01331C17.0357 4.0187 17.1555 4.02631 17.2686 4.03706C17.6387 4.07223 18.0065 4.14585 18.362 4.32698C18.9265 4.6146 19.3854 5.07354 19.673 5.63803C19.8658 6.01641 19.9371 6.40963 19.9694 6.80497C20 7.17952 20 7.63436 20 8.16145V17.8386C20 18.3657 20 18.8205 19.9694 19.195C19.9371 19.5904 19.8658 19.9836 19.673 20.362C19.3854 20.9265 18.9265 21.3854 18.362 21.673C17.9836 21.8658 17.5904 21.9371 17.195 21.9694C16.8205 22 16.3657 22 15.8386 22H8.16144C7.6343 22 7.17954 22 6.80498 21.9694C6.40963 21.9371 6.01641 21.8658 5.63803 21.673C5.07355 21.3854 4.6146 20.9265 4.32698 20.362C4.13419 19.9836 4.06287 19.5904 4.03057 19.195C3.99997 18.8205 3.99998 18.3657 4 17.8386V8.16142C3.99998 7.6343 3.99997 7.17953 4.03057 6.80497C4.06287 6.40963 4.13419 6.01641 4.32698 5.63803C4.6146 5.07354 5.07355 4.6146 5.63803 4.32698C5.99353 4.14585 6.36128 4.07223 6.73139 4.03706C6.84451 4.02631 6.96427 4.0187 7.09041 4.0133C7.21179 3.55557 7.45227 3.13352 7.7929 2.79289ZM15 6V4.70711C15 4.51957 14.9255 4.33972 14.7929 4.20711C14.6603 4.0745 14.4804 4 14.2929 4H9.70711C9.51957 4 9.33972 4.0745 9.20711 4.20711C9.0745 4.33972 9 4.51957 9 4.70711V6H15ZM11 13L11 11C11 10.4477 11.4477 10 12 10C12.5523 10 13 10.4477 13 11L13 13H15C15.5523 13 16 13.4477 16 14C16 14.5523 15.5523 15 15 15H13L13 17C13 17.5523 12.5523 18 12 18C11.4477 18 11 17.5523 11 17L11 15H9C8.44772 15 8 14.5523 8 14C8 13.4477 8.44772 13 9 13H11Z" fill="#0000CC"/>
</svg>
