<svg width="24" height="24" viewBox="0 0 24 24" fill="none" xmlns="http://www.w3.org/2000/svg">
<path fill-rule="evenodd" clip-rule="evenodd" d="M8.8 2H15L20 7V12.1707C19.6872 12.0602 19.3506 12 19 12C18.2204 12 17.5103 12.2974 16.9768 12.7849C16.8784 12.336 16.4784 12 16 12H8C7.44772 12 7 12.4477 7 13C7 13.5523 7.44772 14 8 14H16C16.0601 14 16.119 13.9947 16.1762 13.9845C16.0622 14.3017 16 14.6436 16 15C14.3431 15 13 16.3431 13 18C13 19.6569 14.3431 21 16 21C16 21.3494 16.0597 21.6849 16.1696 21.9968C15.8807 22 15.5596 22 15.2 22H8.8C7.11984 22 6.27976 22 5.63803 21.673C5.07354 21.3854 4.6146 20.9265 4.32698 20.362C4 19.7202 4 18.8802 4 17.2V6.8C4 5.11984 4 4.27976 4.32698 3.63803C4.6146 3.07354 5.07354 2.6146 5.63803 2.32698C6.27976 2 7.11984 2 8.8 2ZM14 7.2V3.5L18.5 8H14.8C14.52 8 14.38 8 14.273 7.9455C14.1789 7.89757 14.1024 7.82108 14.0545 7.727C14 7.62004 14 7.48003 14 7.2ZM7 9C7 8.44772 7.44772 8 8 8H9C9.55228 8 10 8.44772 10 9C10 9.55228 9.55228 10 9 10H8C7.44772 10 7 9.55228 7 9ZM7 17C7 16.4477 7.44772 16 8 16H11C11.5523 16 12 16.4477 12 17C12 17.5523 11.5523 18 11 18H8C7.44772 18 7 17.5523 7 17Z" fill="#0000CC"/>
<path d="M19 14C19.5523 14 20 14.4477 20 15V17H22C22.5523 17 23 17.4477 23 18C23 18.5523 22.5523 19 22 19H20V21C20 21.5523 19.5523 22 19 22C18.4477 22 18 21.5523 18 21V19H16C15.4477 19 15 18.5523 15 18C15 17.4477 15.4477 17 16 17H18V15C18 14.4477 18.4477 14 19 14Z" fill="#0000CC"/>
</svg>
