<svg width="24" height="24" viewBox="0 0 24 24" fill="none" xmlns="http://www.w3.org/2000/svg">
<path fill-rule="evenodd" clip-rule="evenodd" d="M15 2H8.8C7.11984 2 6.27976 2 5.63803 2.32698C5.07354 2.6146 4.6146 3.07354 4.32698 3.63803C4 4.27976 4 5.11984 4 6.8V17.2C4 18.8802 4 19.7202 4.32698 20.362C4.6146 20.9265 5.07354 21.3854 5.63803 21.673C6.27976 22 7.11984 22 8.8 22H15.2C15.5596 22 15.8807 22 16.1696 21.9968C16.0597 21.6849 16 21.3494 16 21C14.3431 21 13 19.6569 13 18C13 16.3431 14.3431 15 16 15C16 13.3431 17.3431 12 19 12C19.3506 12 19.6872 12.0602 20 12.1707V7L15 2ZM14 3.5V7.2C14 7.48003 14 7.62004 14.0545 7.727C14.1024 7.82108 14.1789 7.89757 14.273 7.9455C14.38 8 14.52 8 14.8 8H18.5L14 3.5Z" fill="#0000CC"/>
<path d="M20 15C20 14.4477 19.5523 14 19 14C18.4477 14 18 14.4477 18 15V17H16C15.4477 17 15 17.4477 15 18C15 18.5523 15.4477 19 16 19H18V21C18 21.5523 18.4477 22 19 22C19.5523 22 20 21.5523 20 21V19H22C22.5523 19 23 18.5523 23 18C23 17.4477 22.5523 17 22 17H20V15Z" fill="#0000CC"/>
</svg>
