<svg width="24" height="24" viewBox="0 0 24 24" fill="none" xmlns="http://www.w3.org/2000/svg">
<path fill-rule="evenodd" clip-rule="evenodd" d="M8.8 2H15L20 7V12.3414C19.3744 12.1203 18.7013 12 18 12C14.6863 12 12 14.6863 12 18C12 19.5367 12.5777 20.9385 13.5278 22H8.8C7.11984 22 6.27976 22 5.63803 21.673C5.07354 21.3854 4.6146 20.9265 4.32698 20.362C4 19.7202 4 18.8802 4 17.2V6.8C4 5.11984 4 4.27976 4.32698 3.63803C4.6146 3.07354 5.07354 2.6146 5.63803 2.32698C6.27976 2 7.11984 2 8.8 2ZM14 7.2V3.5L18.5 8H14.8C14.52 8 14.38 8 14.273 7.9455C14.1789 7.89757 14.1024 7.82108 14.0545 7.727C14 7.62004 14 7.48003 14 7.2Z" fill="#0000CC"/>
<path fill-rule="evenodd" clip-rule="evenodd" d="M22 18C22 20.2091 20.2091 22 18 22C15.7909 22 14 20.2091 14 18C14 15.7909 15.7909 14 18 14C20.2091 14 22 15.7909 22 18ZM20 18C20 19.1046 19.1046 20 18 20C17.8208 20 17.6472 19.9764 17.482 19.9323L19.9323 17.482C19.9764 17.6472 20 17.8208 20 18ZM16.0677 18.5181L18.5181 16.0677C18.3528 16.0236 18.1792 16 18 16C16.8954 16 16 16.8954 16 18C16 18.1792 16.0236 18.3528 16.0677 18.5181Z" fill="#0000CC"/>
</svg>
