<svg width="24" height="24" viewBox="0 0 24 24" fill="none" xmlns="http://www.w3.org/2000/svg">
<path fill-rule="evenodd" clip-rule="evenodd" d="M13 2H8.8C7.11984 2 6.27976 2 5.63803 2.32698C5.07354 2.6146 4.6146 3.07354 4.32698 3.63803C4 4.27976 4 5.11984 4 6.8V17.2C4 18.8802 4 19.7202 4.32698 20.362C4.6146 20.9265 5.07354 21.3854 5.63803 21.673C6.27976 22 7.11984 22 8.8 22H15.2C16.8802 22 17.7202 22 18.362 21.673C18.9265 21.3854 19.3854 20.9265 19.673 20.362C20 19.7202 20 18.8802 20 17.2V9H16.2C15.0799 9 14.5198 9 14.092 8.78201C13.7157 8.59027 13.4097 8.28431 13.218 7.90798C13 7.48016 13 6.9201 13 5.8V2ZM9.29289 12.7929C9.68342 12.4024 10.3166 12.4024 10.7071 12.7929L12 14.0858L13.2929 12.7929C13.6834 12.4024 14.3166 12.4024 14.7071 12.7929C15.0976 13.1834 15.0976 13.8166 14.7071 14.2071L13.4142 15.5L14.7071 16.7929C15.0976 17.1834 15.0976 17.8166 14.7071 18.2071C14.3166 18.5976 13.6834 18.5976 13.2929 18.2071L12 16.9142L10.7071 18.2071C10.3166 18.5976 9.68342 18.5976 9.29289 18.2071C8.90237 17.8166 8.90237 17.1834 9.29289 16.7929L10.5858 15.5L9.29289 14.2071C8.90237 13.8166 8.90237 13.1834 9.29289 12.7929Z" fill="#0000CC"/>
<path d="M19.4142 6.41426C19.5852 6.58528 19.7221 6.78408 19.8204 7.00005H15.5C15.2239 7.00005 15 6.77619 15 6.50005V2.17969C15.216 2.27797 15.4148 2.41482 15.5858 2.58583L19.4142 6.41426Z" fill="#0000CC"/>
</svg>
