<svg width="24" height="24" viewBox="0 0 24 24" fill="none" xmlns="http://www.w3.org/2000/svg">
<path fill-rule="evenodd" clip-rule="evenodd" d="M8.8 2H15L20 7V14.1708C19.6401 14.2978 19.2996 14.4954 19 14.7638C17.8221 13.7084 16.0106 13.7467 14.8787 14.8787C13.7467 16.0106 13.7084 17.8221 14.7638 19C14.0139 19.837 13.8164 20.9943 14.1709 22H8.8C7.11984 22 6.27976 22 5.63803 21.673C5.07354 21.3854 4.6146 20.9265 4.32698 20.362C4 19.7202 4 18.8802 4 17.2V6.8C4 5.11984 4 4.27976 4.32698 3.63803C4.6146 3.07354 5.07354 2.6146 5.63803 2.32698C6.27976 2 7.11984 2 8.8 2ZM14 7.2V3.5L18.5 8H14.8C14.52 8 14.38 8 14.273 7.9455C14.1789 7.89757 14.1024 7.82108 14.0545 7.727C14 7.62004 14 7.48003 14 7.2Z" fill="#0000CC"/>
<path d="M16.2929 16.2929C16.6834 15.9024 17.3166 15.9024 17.7071 16.2929L19 17.5858L20.2929 16.2929C20.6834 15.9024 21.3166 15.9024 21.7071 16.2929C22.0976 16.6834 22.0976 17.3166 21.7071 17.7071L20.4142 19L21.7071 20.2929C22.0976 20.6834 22.0976 21.3166 21.7071 21.7071C21.3166 22.0976 20.6834 22.0976 20.2929 21.7071L19 20.4142L17.7071 21.7071C17.3166 22.0976 16.6834 22.0976 16.2929 21.7071C15.9024 21.3166 15.9024 20.6834 16.2929 20.2929L17.5858 19L16.2929 17.7071C15.9024 17.3166 15.9024 16.6834 16.2929 16.2929Z" fill="#0000CC"/>
</svg>
