<svg width="24" height="24" viewBox="0 0 24 24" fill="none" xmlns="http://www.w3.org/2000/svg">
<path fill-rule="evenodd" clip-rule="evenodd" d="M22 9V11.2C22 12.8802 22 13.7202 21.673 14.362C21.3854 14.9265 20.9265 15.3854 20.362 15.673C19.7202 16 18.8802 16 17.2 16H10.8C9.11984 16 8.27976 16 7.63803 15.673C7.07354 15.3854 6.6146 14.9265 6.32698 14.362C6 13.7202 6 12.8802 6 11.2V8.8C6 7.11984 6 6.27976 6.32698 5.63803C6.6146 5.07354 7.07354 4.6146 7.63803 4.32698C8.27976 4 9.11984 4 10.8 4H17L22 9ZM16 5.5L20.5 10H16.8C16.52 10 16.38 10 16.273 9.9455C16.1789 9.89757 16.1024 9.82108 16.0545 9.727C16 9.62004 16 9.48003 16 9.2V5.5Z" fill="#0000CC"/>
<path d="M17 18C17.5523 18 18 18.4477 18 19C18 19.5523 17.5523 20 17 20H9.35719C8.27341 20 7.39926 20 6.69138 19.9422C5.96253 19.8826 5.32234 19.7568 4.73005 19.455C3.78924 18.9757 3.02433 18.2108 2.54497 17.27C2.24318 16.6777 2.11737 16.0375 2.05782 15.3086C1.99998 14.6007 1.99999 13.7266 2 12.6428V9C2 8.44771 2.44772 8 3 8C3.55228 8 4 8.44771 4 9V12.6C4 13.7366 4.00078 14.5289 4.05118 15.1458C4.10062 15.7509 4.1928 16.0986 4.32698 16.362C4.6146 16.9265 5.07354 17.3854 5.63803 17.673C5.90138 17.8072 6.24907 17.8994 6.85424 17.9488C7.47108 17.9992 8.26339 18 9.4 18H17Z" fill="#0000CC"/>
</svg>
