<svg width="24" height="24" viewBox="0 0 24 24" fill="none" xmlns="http://www.w3.org/2000/svg">
<path fill-rule="evenodd" clip-rule="evenodd" d="M15 2H8.8C7.11984 2 6.27976 2 5.63803 2.32698C5.07354 2.6146 4.6146 3.07354 4.32698 3.63803C4 4.27976 4 5.11984 4 6.8V17.2C4 18.8802 4 19.7202 4.32698 20.362C4.6146 20.9265 5.07354 21.3854 5.63803 21.673C6.27976 22 7.11984 22 8.8 22H15.2C15.6435 22 16.0285 22 16.3668 21.994V21.933C15.014 21.6424 14 20.4396 14 19C14 17.3431 15.3431 16 17 16H19.9999L20 7L15 2ZM14 3.5V7.2C14 7.48003 14 7.62004 14.0545 7.727C14.1024 7.82108 14.1789 7.89757 14.273 7.9455C14.38 8 14.52 8 14.8 8H18.5L14 3.5ZM8 8C7.44772 8 7 8.44772 7 9C7 9.55228 7.44772 10 8 10H9C9.55228 10 10 9.55228 10 9C10 8.44772 9.55228 8 9 8H8ZM8 12C7.44772 12 7 12.4477 7 13C7 13.5523 7.44772 14 8 14H16C16.5523 14 17 13.5523 17 13C17 12.4477 16.5523 12 16 12H8ZM8 16C7.44772 16 7 16.4477 7 17C7 17.5523 7.44772 18 8 18H10.5C11.0523 18 11.5 17.5523 11.5 17C11.5 16.4477 11.0523 16 10.5 16H8Z" fill="#0000CC"/>
<path d="M17 18C16.4477 18 16 18.4477 16 19C16 19.5523 16.4477 20 17 20H21C21.5523 20 22 19.5523 22 19C22 18.4477 21.5523 18 21 18H17Z" fill="#0000CC"/>
</svg>
