<svg width="24" height="24" viewBox="0 0 24 24" fill="none" xmlns="http://www.w3.org/2000/svg">
<path d="M19.8204 7.00005C19.7221 6.78408 19.5852 6.58528 19.4142 6.41426L15.5858 2.58583C15.4148 2.41482 15.216 2.27797 15 2.17969V6.50005C15 6.77619 15.2239 7.00005 15.5 7.00005H19.8204Z" fill="#0000CC"/>
<path d="M8.8 2H13V5.8C13 6.9201 13 7.48016 13.218 7.90798C13.4097 8.28431 13.7157 8.59027 14.092 8.78201C14.5198 9 15.0799 9 16.2 9H20V17.2C20 18.8802 20 19.7202 19.673 20.362C19.3854 20.9265 18.9265 21.3854 18.362 21.673C17.7202 22 16.8802 22 15.2 22H8.8C7.11984 22 6.27976 22 5.63803 21.673C5.07354 21.3854 4.6146 20.9265 4.32698 20.362C4 19.7202 4 18.8802 4 17.2V6.8C4 5.11984 4 4.27976 4.32698 3.63803C4.6146 3.07354 5.07354 2.6146 5.63803 2.32698C6.27976 2 7.11984 2 8.8 2Z" fill="#0000CC"/>
</svg>
