<svg width="24" height="24" viewBox="0 0 24 24" fill="none" xmlns="http://www.w3.org/2000/svg">
<path d="M8.78053 14C8.50439 14 8.28053 14.2239 8.28053 14.5C8.28053 14.7761 8.50439 15 8.78053 15H9.78053C10.0567 15 10.2805 14.7761 10.2805 14.5C10.2805 14.2239 10.0567 14 9.78053 14H8.78053Z" fill="#0000CC"/>
<path fill-rule="evenodd" clip-rule="evenodd" d="M13 2H8.8C7.11984 2 6.27976 2 5.63803 2.32698C5.07354 2.6146 4.6146 3.07354 4.32698 3.63803C4 4.27976 4 5.11984 4 6.8V17.2C4 18.8802 4 19.7202 4.32698 20.362C4.6146 20.9265 5.07354 21.3854 5.63803 21.673C6.27976 22 7.11984 22 8.8 22H15.2C16.8802 22 17.7202 22 18.362 21.673C18.9265 21.3854 19.3854 20.9265 19.673 20.362C20 19.7202 20 18.8802 20 17.2V9H16.2C15.0799 9 14.5198 9 14.092 8.78201C13.7157 8.59027 13.4097 8.28431 13.218 7.90798C13 7.48016 13 6.9201 13 5.8V2ZM8.78027 5C8.22799 5 7.78027 5.44772 7.78027 6C7.78027 6.55228 8.22799 7 8.78027 7H9.78027C10.3326 7 10.7803 6.55228 10.7803 6C10.7803 5.44772 10.3326 5 9.78027 5H8.78027ZM8.78027 8C8.22799 8 7.78027 8.44771 7.78027 9C7.78027 9.55229 8.22799 10 8.78027 10H9.78027C10.3326 10 10.7803 9.55229 10.7803 9C10.7803 8.44771 10.3326 8 9.78027 8H8.78027ZM8.60034 11C8.12366 11 7.71324 11.3365 7.61976 11.8039L7.01976 14.8039C6.896 15.4227 7.36929 16 8.00034 16H10.5607C11.1918 16 11.6651 15.4227 11.5413 14.8039L10.9413 11.8039C10.8478 11.3365 10.4374 11 9.96073 11H8.60034Z" fill="#0000CC"/>
<path d="M19.4142 6.41426C19.5852 6.58528 19.7221 6.78408 19.8204 7.00005H15.5C15.2239 7.00005 15 6.77619 15 6.50005V2.17969C15.216 2.27797 15.4148 2.41482 15.5858 2.58583L19.4142 6.41426Z" fill="#0000CC"/>
</svg>
