<svg width="24" height="24" viewBox="0 0 24 24" fill="none" xmlns="http://www.w3.org/2000/svg">
<path fill-rule="evenodd" clip-rule="evenodd" d="M22 9V11.2C22 12.8802 22 13.7202 21.673 14.362C21.3854 14.9265 20.9264 15.3854 20.362 15.673C19.7202 16 18.8801 16 17.2 16H10.8C9.11983 16 8.27975 16 7.63802 15.673C7.07353 15.3854 6.61459 14.9265 6.32697 14.362C5.99999 13.7202 5.99999 12.8802 5.99999 11.2V8.8C5.99999 7.11984 5.99999 6.27976 6.32697 5.63803C6.61459 5.07354 7.07353 4.6146 7.63802 4.32698C8.27975 4 9.11983 4 10.8 4H17L22 9ZM16.5 10H20.5L16 5.5V9.5C16 9.77614 16.2238 10 16.5 10Z" fill="#0000CC"/>
<path d="M17.2722 18C17.4586 18 17.6406 18 17.8176 17.9994C17.7784 18.1288 17.7308 18.2485 17.673 18.362C17.3854 18.9265 16.9265 19.3854 16.362 19.673C15.7202 20 14.8802 20 13.2 20H6.8C5.11984 20 4.27976 20 3.63803 19.673C3.07354 19.3854 2.6146 18.9265 2.32698 18.362C2 17.7202 2 16.8802 2 15.2V12.8C2 11.1198 2 10.2798 2.32698 9.63803C2.6146 9.07354 3.07354 8.6146 3.63803 8.32698C3.7515 8.26916 3.87119 8.22157 4.00062 8.18239C3.99997 8.35937 3.99998 8.54139 3.99999 8.72786V11.2722C3.99995 12.0504 3.99991 12.7506 4.04751 13.3333C4.09849 13.9572 4.21387 14.6201 4.54496 15.2699C5.02433 16.2108 5.78923 16.9757 6.73004 17.455C7.37984 17.7861 8.0428 17.9015 8.66674 17.9525C9.24937 18.0001 9.94964 18 10.7278 18H17.2722Z" fill="#0000CC"/>
</svg>
