<svg width="24" height="24" viewBox="0 0 24 24" fill="none" xmlns="http://www.w3.org/2000/svg">
<path d="M15 2H10.8C9.11984 2 8.27976 2 7.63803 2.32698C7.07354 2.6146 6.6146 3.07354 6.32698 3.63803C6 4.27976 6 5.11984 6 6.8V14H13.81L12.6443 12.6549C12.2826 12.2376 12.3277 11.606 12.7451 11.2443C13.1624 10.8826 13.794 10.9277 14.1557 11.3451L16.7557 14.3451C17.0814 14.7209 17.0814 15.2791 16.7557 15.6549L14.1557 18.6549C13.794 19.0723 13.1624 19.1174 12.7451 18.7557C12.3277 18.394 12.2826 17.7624 12.6443 17.3451L13.81 16H6V17.2C6 18.8802 6 19.7202 6.32698 20.362C6.6146 20.9265 7.07354 21.3854 7.63803 21.673C8.27976 22 9.11984 22 10.8 22H17.2C18.8802 22 19.7202 22 20.362 21.673C20.9265 21.3854 21.3854 20.9265 21.673 20.362C22 19.7202 22 18.8802 22 17.2V9H18.2C17.0799 9 16.5198 9 16.092 8.78201C15.7157 8.59027 15.4097 8.28431 15.218 7.90798C15 7.48016 15 6.9201 15 5.8V2Z" fill="#0000CC"/>
<path d="M21.4142 6.41426C21.5852 6.58528 21.7221 6.78408 21.8204 7.00005H17.5C17.2239 7.00005 17 6.77619 17 6.50005V2.17969C17.216 2.27797 17.4148 2.41482 17.5858 2.58583L21.4142 6.41426Z" fill="#0000CC"/>
<path d="M6 14L3 14C2.44772 14 2 14.4477 2 15C2 15.5523 2.44772 16 3 16L6 16V14Z" fill="#0000CC"/>
</svg>
