<svg width="24" height="24" viewBox="0 0 24 24" fill="none" xmlns="http://www.w3.org/2000/svg">
<path fill-rule="evenodd" clip-rule="evenodd" d="M8.8 2H15L20 7V13H18.2C17.0799 13 16.5198 13 16.092 13.218C15.7157 13.4097 15.4097 13.7157 15.218 14.092C15 14.5198 15 15.0799 15 16.2V20.8C15 21.2983 15 21.6857 15.0192 22H8.8C7.11984 22 6.27976 22 5.63803 21.673C5.07354 21.3854 4.6146 20.9265 4.32698 20.362C4 19.7202 4 18.8802 4 17.2V6.8C4 5.11984 4 4.27976 4.32698 3.63803C4.6146 3.07354 5.07354 2.6146 5.63803 2.32698C6.27976 2 7.11984 2 8.8 2ZM14 7.2V3.5L18.5 8H14.8C14.52 8 14.38 8 14.273 7.9455C14.1789 7.89757 14.1024 7.82108 14.0545 7.727C14 7.62004 14 7.48003 14 7.2ZM7 9C7 8.44772 7.44772 8 8 8H9C9.55228 8 10 8.44772 10 9C10 9.55228 9.55228 10 9 10H8C7.44772 10 7 9.55228 7 9ZM7 13C7 12.4477 7.44772 12 8 12H11C11.5523 12 12 12.4477 12 13C12 13.5523 11.5523 14 11 14H8C7.44772 14 7 13.5523 7 13ZM7 17C7 16.4477 7.44772 16 8 16H11C11.5523 16 12 16.4477 12 17C12 17.5523 11.5523 18 11 18H8C7.44772 18 7 17.5523 7 17Z" fill="#0000CC"/>
<path d="M17 15.5C17 15.2239 17.2239 15 17.5 15H21.5C21.7761 15 22 15.2239 22 15.5V21.5C22 21.6798 21.9034 21.8458 21.7471 21.9347C21.5908 22.0235 21.3988 22.0216 21.2442 21.9296L19.5 20.8913L17.7558 21.9296C17.6012 22.0216 17.4092 22.0235 17.2529 21.9347C17.0966 21.8458 17 21.6798 17 21.5V15.5Z" fill="#0000CC"/>
</svg>
