<svg width="24" height="24" viewBox="0 0 24 24" fill="none" xmlns="http://www.w3.org/2000/svg">
<path fill-rule="evenodd" clip-rule="evenodd" d="M8.8 2H15L20 7V12.5997C19.2499 12.2163 18.4002 12 17.5 12C14.4624 12 12 14.4624 12 17.5C12 19.3602 12.9234 21.0046 14.3369 22H8.8C7.11984 22 6.27976 22 5.63803 21.673C5.07354 21.3854 4.6146 20.9265 4.32698 20.362C4 19.7202 4 18.8802 4 17.2V6.8C4 5.11984 4 4.27976 4.32698 3.63803C4.6146 3.07354 5.07354 2.6146 5.63803 2.32698C6.27976 2 7.11984 2 8.8 2ZM14 7.2V3.5L18.5 8H14.8C14.52 8 14.38 8 14.273 7.9455C14.1789 7.89757 14.1024 7.82108 14.0545 7.727C14 7.62004 14 7.48003 14 7.2Z" fill="#0000CC"/>
<path fill-rule="evenodd" clip-rule="evenodd" d="M14 17.5C14 15.567 15.567 14 17.5 14C19.433 14 21 15.567 21 17.5C21 18.1028 20.8476 18.6699 20.5793 19.1651L21.7071 20.2929C22.0976 20.6834 22.0976 21.3166 21.7071 21.7071C21.3166 22.0976 20.6834 22.0976 20.2929 21.7071L19.1651 20.5793C18.6699 20.8476 18.1028 21 17.5 21C15.567 21 14 19.433 14 17.5ZM17.5 16C16.6716 16 16 16.6716 16 17.5C16 18.3284 16.6716 19 17.5 19C18.3284 19 19 18.3284 19 17.5C19 16.6716 18.3284 16 17.5 16Z" fill="#0000CC"/>
</svg>
