<svg width="24" height="24" viewBox="0 0 24 24" fill="none" xmlns="http://www.w3.org/2000/svg">
<path fill-rule="evenodd" clip-rule="evenodd" d="M13 2H8.8C7.11984 2 6.27976 2 5.63803 2.32698C5.07354 2.6146 4.6146 3.07354 4.32698 3.63803C4 4.27976 4 5.11984 4 6.8V17.2C4 18.8802 4 19.7202 4.32698 20.362C4.6146 20.9265 5.07354 21.3854 5.63803 21.673C6.27976 22 7.11984 22 8.8 22H15.2C16.8802 22 17.7202 22 18.362 21.673C18.9265 21.3854 19.3854 20.9265 19.673 20.362C20 19.7202 20 18.8802 20 17.2V9H16.2C15.0799 9 14.5198 9 14.092 8.78201C13.7157 8.59027 13.4097 8.28431 13.218 7.90798C13 7.48016 13 6.9201 13 5.8V2ZM10.7071 12.2929C11.0976 12.6834 11.0976 13.3166 10.7071 13.7071L9.41421 15L10.7071 16.2929C11.0976 16.6834 11.0976 17.3166 10.7071 17.7071C10.3166 18.0976 9.68342 18.0976 9.29289 17.7071L7.29289 15.7071C6.90237 15.3166 6.90237 14.6834 7.29289 14.2929L9.29289 12.2929C9.68342 11.9024 10.3166 11.9024 10.7071 12.2929ZM13.2929 12.2929C13.6834 11.9024 14.3166 11.9024 14.7071 12.2929L16.7071 14.2929C17.0976 14.6834 17.0976 15.3166 16.7071 15.7071L14.7071 17.7071C14.3166 18.0976 13.6834 18.0976 13.2929 17.7071C12.9024 17.3166 12.9024 16.6834 13.2929 16.2929L14.5858 15L13.2929 13.7071C12.9024 13.3166 12.9024 12.6834 13.2929 12.2929Z" fill="#0000CC"/>
<path d="M19.4142 6.41426C19.5852 6.58528 19.7221 6.78408 19.8204 7.00005H15.5C15.2239 7.00005 15 6.77619 15 6.50005V2.17969C15.216 2.27797 15.4148 2.41482 15.5858 2.58583L19.4142 6.41426Z" fill="#0000CC"/>
</svg>
