<svg width="24" height="24" viewBox="0 0 24 24" fill="none" xmlns="http://www.w3.org/2000/svg">
<path fill-rule="evenodd" clip-rule="evenodd" d="M13 2H8.8C7.11984 2 6.27976 2 5.63803 2.32698C5.07354 2.6146 4.6146 3.07354 4.32698 3.63803C4 4.27976 4 5.11984 4 6.8V17.2C4 18.8802 4 19.7202 4.32698 20.362C4.6146 20.9265 5.07354 21.3854 5.63803 21.673C6.27976 22 7.11984 22 8.8 22H15.2C16.8802 22 17.7202 22 18.362 21.673C18.9265 21.3854 19.3854 20.9265 19.673 20.362C20 19.7202 20 18.8802 20 17.2V9H16.2C15.0799 9 14.5198 9 14.092 8.78201C13.7157 8.59027 13.4097 8.28431 13.218 7.90798C13 7.48016 13 6.9201 13 5.8V2ZM13.2603 12.8352C13.7041 12.3883 14.4236 12.3883 14.8674 12.8352C15.3111 13.282 15.3111 14.0066 14.8674 14.4535L11.7285 17.6143C11.3293 18.0162 11.1297 18.2172 10.9022 18.3767C10.7003 18.5183 10.4825 18.6354 10.2533 18.7255C9.99502 18.827 9.7181 18.8821 9.16426 18.9923C8.8872 19.0475 8.64615 18.7959 8.71079 18.5191L8.72195 18.4713C8.84301 17.9527 8.90354 17.6934 9.00426 17.4517C9.09367 17.2371 9.20646 17.0332 9.34056 16.8436C9.49162 16.6301 9.67865 16.4418 10.0527 16.0651L13.2603 12.8352Z" fill="#0000CC"/>
<path d="M19.4142 6.41426C19.5852 6.58528 19.7221 6.78408 19.8204 7.00005H15.5C15.2239 7.00005 15 6.77619 15 6.50005V2.17969C15.216 2.27797 15.4148 2.41482 15.5858 2.58583L19.4142 6.41426Z" fill="#0000CC"/>
</svg>
