<svg width="24" height="24" viewBox="0 0 24 24" fill="none" xmlns="http://www.w3.org/2000/svg">
<path fill-rule="evenodd" clip-rule="evenodd" d="M7 4C7 2.89543 7.89543 2 9 2H12.5858C12.851 2 13.1054 2.10536 13.2929 2.29289L16.7071 5.70711C16.8946 5.89464 17 6.149 17 6.41421V12C17 13.1046 16.1046 14 15 14H13V16.1707C13.8524 16.472 14.528 17.1476 14.8293 18H21C21.5523 18 22 18.4477 22 19C22 19.5523 21.5523 20 21 20H14.8293C14.4175 21.1652 13.3062 22 12 22C10.6938 22 9.58254 21.1652 9.17071 20H3C2.44772 20 2 19.5523 2 19C2 18.4477 2.44772 18 3 18H9.17071C9.47199 17.1476 10.1476 16.472 11 16.1707V14H9C7.89543 14 7 13.1046 7 12V4ZM12 6.5V3.5L15.5 7H12.5C12.2239 7 12 6.77614 12 6.5Z" fill="#0000CC"/>
</svg>
