<svg width="24" height="24" viewBox="0 0 24 24" fill="none" xmlns="http://www.w3.org/2000/svg">
<path fill-rule="evenodd" clip-rule="evenodd" d="M15 2H8.8C7.11984 2 6.27976 2 5.63803 2.32698C5.07354 2.6146 4.6146 3.07354 4.32698 3.63803C4 4.27976 4 5.11984 4 6.8V17.2C4 18.8802 4 19.7202 4.32698 20.362C4.6146 20.9265 5.07354 21.3854 5.63803 21.673C6.27976 22 7.11984 22 8.8 22H12.0458C11.9798 21.667 11.9814 21.3126 12.0652 20.9534L12.1044 20.7854C12.228 20.2543 12.3384 19.78 12.5279 19.3252C12.6946 18.9251 12.9049 18.5447 13.1553 18.1909C13.44 17.7884 13.7833 17.4433 14.1664 17.0579L18.1931 13.0032C18.704 12.4888 19.3378 12.1722 20 12.0535V7L15 2ZM14 3.5V7.2C14 7.48003 14 7.62004 14.0545 7.727C14.1024 7.82108 14.1789 7.89757 14.273 7.9455C14.38 8 14.52 8 14.8 8H18.5L14 3.5ZM8 8C7.44772 8 7 8.44772 7 9C7 9.55228 7.44772 10 8 10H9C9.55228 10 10 9.55228 10 9C10 8.44772 9.55228 8 9 8H8ZM8 12C7.44772 12 7 12.4477 7 13C7 13.5523 7.44772 14 8 14H13C13.5523 14 14 13.5523 14 13C14 12.4477 13.5523 12 13 12H8ZM8 16C7.44772 16 7 16.4477 7 17C7 17.5523 7.44772 18 8 18H10.5C11.0523 18 11.5 17.5523 11.5 17C11.5 16.4477 11.0523 16 10.5 16H8Z" fill="#0000CC"/>
<path d="M21.5904 14.4125C21.0442 13.8625 20.1586 13.8625 19.6124 14.4125L15.6646 18.3878C15.2042 18.8514 14.9741 19.0832 14.7881 19.346C14.6231 19.5793 14.4843 19.8303 14.3742 20.0944C14.2503 20.3919 14.1758 20.711 14.0268 21.3492L14.013 21.4081C13.9335 21.7488 14.2302 22.0584 14.5712 21.9906C15.2528 21.8549 15.5936 21.7871 15.9115 21.6622C16.1936 21.5513 16.4617 21.4072 16.7102 21.2329C16.9901 21.0366 17.2358 20.7892 17.7271 20.2945L21.5904 16.4043C22.1365 15.8542 22.1365 14.9625 21.5904 14.4125Z" fill="#0000CC"/>
</svg>
