<svg width="24" height="24" viewBox="0 0 24 24" fill="none" xmlns="http://www.w3.org/2000/svg">
<path fill-rule="evenodd" clip-rule="evenodd" d="M15 2H8.8C7.11984 2 6.27976 2 5.63803 2.32698C5.07354 2.6146 4.6146 3.07354 4.32698 3.63803C4 4.27976 4 5.11984 4 6.8V17.2C4 18.8802 4 19.7202 4.32698 20.362C4.6146 20.9265 5.07354 21.3854 5.63803 21.673C6.27976 22 7.11984 22 8.8 22H15.2C15.7974 22 16.2886 22 16.7025 21.9853C16.0367 21.9193 15.3887 21.6313 14.8787 21.1213L12.8787 19.1213C11.7071 17.9497 11.7071 16.0503 12.8787 14.8787L14.8787 12.8787C16.0503 11.7071 17.9497 11.7071 19.1213 12.8787C19.4488 13.2062 19.6848 13.5905 19.8292 14H20V7L15 2ZM14 3.5V7.2C14 7.48003 14 7.62004 14.0545 7.727C14.1024 7.82108 14.1789 7.89757 14.273 7.9455C14.38 8 14.52 8 14.8 8H18.5L14 3.5Z" fill="#0000CC"/>
<path d="M17.7071 15.7071C18.0976 15.3166 18.0976 14.6834 17.7071 14.2929C17.3166 13.9024 16.6834 13.9024 16.2929 14.2929L14.2929 16.2929C13.9024 16.6834 13.9024 17.3166 14.2929 17.7071L16.2929 19.7071C16.6834 20.0976 17.3166 20.0976 17.7071 19.7071C18.0976 19.3166 18.0976 18.6834 17.7071 18.2929L17.4142 18H21C21.5523 18 22 17.5523 22 17C22 16.4477 21.5523 16 21 16H17.4142L17.7071 15.7071Z" fill="#0000CC"/>
</svg>
