<svg width="24" height="24" viewBox="0 0 24 24" fill="none" xmlns="http://www.w3.org/2000/svg">
<path fill-rule="evenodd" clip-rule="evenodd" d="M8.8 2H15L20 7V11.1132C19.6574 11.0391 19.3018 11 18.937 11C16.6031 11 14.6496 12.5963 14.0947 14.7522C13.7089 16.2509 14.5262 17.7766 15.9431 18.3079C15.9119 18.7983 16.0005 19.2949 16.209 19.7501C16.0344 20.1306 15.937 20.5539 15.937 21C15.937 21.3497 15.9968 21.6854 16.1068 21.9974C15.8343 22 15.5337 22 15.2 22H8.8C7.11984 22 6.27976 22 5.63803 21.673C5.07354 21.3854 4.6146 20.9265 4.32698 20.362C4 19.7202 4 18.8802 4 17.2V6.8C4 5.11984 4 4.27976 4.32698 3.63803C4.6146 3.07354 5.07354 2.6146 5.63803 2.32698C6.27976 2 7.11984 2 8.8 2ZM14 7.2V3.5L18.5 8H14.8C14.52 8 14.38 8 14.273 7.9455C14.1789 7.89757 14.1024 7.82108 14.0545 7.727C14 7.62004 14 7.48003 14 7.2ZM8 8C7.44772 8 7 8.44772 7 9C7 9.55228 7.44772 10 8 10H9C9.55228 10 10 9.55228 10 9C10 8.44772 9.55228 8 9 8H8ZM8 12C7.44772 12 7 12.4477 7 13C7 13.5523 7.44772 14 8 14H12C12.5523 14 13 13.5523 13 13C13 12.4477 12.5523 12 12 12H8ZM8 16C7.44772 16 7 16.4477 7 17C7 17.5523 7.44772 18 8 18H11C11.5523 18 12 17.5523 12 17C12 16.4477 11.5523 16 11 16H8Z" fill="#0000CC"/>
<path d="M17.9687 15.7493C18.0797 15.3177 18.4726 15 18.9372 15C19.4895 15 19.9372 15.4477 19.9372 16C19.9372 16.1732 19.8917 16.3053 19.6178 16.5697C19.4834 16.6994 19.3282 16.8282 19.1237 16.998L19.0321 17.074C18.7938 17.2723 18.5143 17.5087 18.2301 17.7929C17.8396 18.1834 17.8396 18.8166 18.2301 19.2071C18.6207 19.5976 19.2538 19.5976 19.6444 19.2071C19.8602 18.9913 20.0807 18.8033 20.3111 18.6116L20.3969 18.5405C20.5942 18.3769 20.814 18.1948 21.0067 18.0087C21.4827 17.5493 21.9372 16.9314 21.9372 16C21.9372 14.3431 20.5941 13 18.9372 13C17.538 13 16.3648 13.957 16.0318 15.2507C15.8941 15.7856 16.2161 16.3308 16.751 16.4684C17.2858 16.6061 17.831 16.2841 17.9687 15.7493Z" fill="#0000CC"/>
<path d="M19.9399 21C19.9399 21.5523 19.4922 22 18.9399 22C18.3877 22 17.9399 21.5523 17.9399 21C17.9399 20.4477 18.3877 20 18.9399 20C19.4922 20 19.9399 20.4477 19.9399 21Z" fill="#0000CC"/>
</svg>
