<svg width="24" height="24" viewBox="0 0 24 24" fill="none" xmlns="http://www.w3.org/2000/svg">
<path fill-rule="evenodd" clip-rule="evenodd" d="M8.8 2H15L20 7V12.1708C18.9447 11.7987 17.7228 12.0346 16.8787 12.8787L14.8787 14.8787C13.7071 16.0503 13.7071 17.9497 14.8787 19.1213C15.2062 19.4488 15.5905 19.6848 16 19.8292V21.9983C15.7563 22 15.4907 22 15.2 22H8.8C7.11984 22 6.27976 22 5.63803 21.673C5.07354 21.3854 4.6146 20.9265 4.32698 20.362C4 19.7202 4 18.8802 4 17.2V6.8C4 5.11984 4 4.27976 4.32698 3.63803C4.6146 3.07354 5.07354 2.6146 5.63803 2.32698C6.27976 2 7.11984 2 8.8 2ZM14 7.2V3.5L18.5 8H14.8C14.52 8 14.38 8 14.273 7.9455C14.1789 7.89757 14.1024 7.82108 14.0545 7.727C14 7.62004 14 7.48003 14 7.2Z" fill="#0000CC"/>
<path d="M20 21V17.4142L20.2929 17.7071C20.6834 18.0976 21.3166 18.0976 21.7071 17.7071C22.0976 17.3166 22.0976 16.6834 21.7071 16.2929L19.7071 14.2929C19.3166 13.9024 18.6834 13.9024 18.2929 14.2929L16.2929 16.2929C15.9024 16.6834 15.9024 17.3166 16.2929 17.7071C16.6834 18.0976 17.3166 18.0976 17.7071 17.7071L18 17.4142V21C18 21.5523 18.4477 22 19 22C19.5523 22 20 21.5523 20 21Z" fill="#0000CC"/>
</svg>
