<svg width="24" height="24" viewBox="0 0 24 24" fill="none" xmlns="http://www.w3.org/2000/svg">
<path fill-rule="evenodd" clip-rule="evenodd" d="M8.8 2H15L20 7L19.9999 16H17C15.3431 16 14 17.3431 14 19C14 20.4396 15.014 21.6424 16.3668 21.933V21.994C16.0285 22 15.6435 22 15.2 22H8.8C7.11984 22 6.27976 22 5.63803 21.673C5.07354 21.3854 4.6146 20.9265 4.32698 20.362C4 19.7202 4 18.8802 4 17.2V6.8C4 5.11984 4 4.27976 4.32698 3.63803C4.6146 3.07354 5.07354 2.6146 5.63803 2.32698C6.27976 2 7.11984 2 8.8 2ZM14 7.2V3.5L18.5 8H14.8C14.52 8 14.38 8 14.273 7.9455C14.1789 7.89757 14.1024 7.82108 14.0545 7.727C14 7.62004 14 7.48003 14 7.2Z" fill="#0000CC"/>
<path d="M16 19C16 18.4477 16.4477 18 17 18H21C21.5523 18 22 18.4477 22 19C22 19.5523 21.5523 20 21 20H17C16.4477 20 16 19.5523 16 19Z" fill="#0000CC"/>
</svg>
