<svg width="24" height="24" viewBox="0 0 24 24" fill="none" xmlns="http://www.w3.org/2000/svg">
<path fill-rule="evenodd" clip-rule="evenodd" d="M8.8 2H15L20 7V13H16C15.4477 13 15 13.4477 15 14V22H8.8C7.11984 22 6.27976 22 5.63803 21.673C5.07354 21.3854 4.6146 20.9265 4.32698 20.362C4 19.7202 4 18.8802 4 17.2V6.8C4 5.11984 4 4.27976 4.32698 3.63803C4.6146 3.07354 5.07354 2.6146 5.63803 2.32698C6.27976 2 7.11984 2 8.8 2ZM14 7.2V3.5L18.5 8H14.8C14.52 8 14.38 8 14.273 7.9455C14.1789 7.89757 14.1024 7.82108 14.0545 7.727C14 7.62004 14 7.48003 14 7.2Z" fill="#0000CC"/>
<path d="M17.5 15C17.2239 15 17 15.2239 17 15.5V21.5C17 21.6798 17.0966 21.8458 17.2529 21.9347C17.4092 22.0235 17.6012 22.0216 17.7558 21.9296L19.5 20.8913L21.2442 21.9296C21.3988 22.0216 21.5908 22.0235 21.7471 21.9347C21.9034 21.8458 22 21.6798 22 21.5V15.5C22 15.2239 21.7761 15 21.5 15H17.5Z" fill="#0000CC"/>
</svg>
