<svg width="24" height="24" viewBox="0 0 24 24" fill="none" xmlns="http://www.w3.org/2000/svg">
<path d="M7.8 2H12V5.8C12 6.9201 12 7.48016 12.218 7.90798C12.4097 8.28431 12.7157 8.59027 13.092 8.78201C13.5198 9 14.0799 9 15.2 9H19V11.1707C18.6872 11.0602 18.3506 11 18 11C16.9866 11 16.0905 11.5025 15.5474 12.2719C14.0564 12.8533 13 14.3033 13 16V16.5C13 17.1817 13.1705 17.8235 13.4712 18.3852C13.1729 18.8514 13 19.4055 13 20C13 20.7684 13.2889 21.4692 13.7639 22H7.8C6.11984 22 5.27976 22 4.63803 21.673C4.07354 21.3854 3.6146 20.9265 3.32698 20.362C3 19.7202 3 18.8802 3 17.2V6.8C3 5.11984 3 4.27976 3.32698 3.63803C3.6146 3.07354 4.07354 2.6146 4.63803 2.32698C5.27976 2 6.11984 2 7.8 2Z" fill="#0000CC"/>
<path d="M18.8204 7.00005C18.7221 6.78408 18.5852 6.58528 18.4142 6.41426L14.5858 2.58583C14.4148 2.41482 14.216 2.27797 14 2.17969V6.50005C14 6.77619 14.2239 7.00005 14.5 7.00005H18.8204Z" fill="#0000CC"/>
<path d="M17 14C17 13.4477 17.4477 13 18 13C18.5523 13 19 13.4477 19 14H20C20.5523 14 21 14.4477 21 15C21 15.5523 20.5523 16 20 16H17.25C17.1119 16 17 16.1119 17 16.25C17 16.3881 17.1119 16.5 17.25 16.5H19C20.1046 16.5 21 17.3954 21 18.5V19C21 20.1046 20.1046 21 19 21C19 21.5523 18.5523 22 18 22C17.4477 22 17 21.5523 17 21H16C15.4477 21 15 20.5523 15 20C15 19.4477 15.4477 19 16 19H18.75C18.8881 19 19 18.8881 19 18.75C19 18.6119 18.8881 18.5 18.75 18.5H17C15.8954 18.5 15 17.6046 15 16.5V16C15 14.8954 15.8954 14 17 14Z" fill="#0000CC"/>
</svg>
