<svg width="24" height="24" viewBox="0 0 24 24" fill="none" xmlns="http://www.w3.org/2000/svg">
<path d="M11 20.9998H9.8C8.11984 20.9998 7.27976 20.9998 6.63803 20.6729C6.07354 20.3852 5.6146 19.9263 5.32698 19.3618C5 18.7201 5 17.88 5 16.1998V9.77728M21 11.9998L15.5668 5.96381C14.3311 4.59104 13.7133 3.90466 12.9856 3.65126C12.3466 3.4287 11.651 3.42875 11.0119 3.65141C10.2843 3.90491 9.66661 4.59139 8.43114 5.96433L3 11.9998M19.9749 19.9584C18.608 21.347 16.392 21.347 15.0251 19.9584C14.3417 19.2642 14 18.3542 14 17.4443C14 16.5343 14.3417 15.6244 15.0251 14.9301C15.0251 14.9301 15.3125 15.6665 16.1875 16.1109C16.1875 15.222 16.4063 13.8887 17.4938 12.9998C18.375 13.8887 19.2899 14.2343 19.9749 14.9301C20.6583 15.6244 21 16.5343 21 17.4443C21 18.3542 20.6583 19.2642 19.9749 19.9584Z" stroke="#0000CC" stroke-width="2" stroke-linecap="round" stroke-linejoin="round"/>
</svg>
