<svg width="24" height="24" viewBox="0 0 24 24" fill="none" xmlns="http://www.w3.org/2000/svg">
<path d="M20.0007 6C18.1763 3.57111 15.2716 2 12 2C8.72836 2 5.82368 3.57111 3.99927 6H9C9.81791 6 10.5441 6.39278 11.0002 7H12.9998C13.4559 6.39278 14.1821 6 15 6H20.0007Z" fill="#0000CC"/>
<path fill-rule="evenodd" clip-rule="evenodd" d="M22 12C22 17.5228 17.5228 22 12 22C6.47715 22 2 17.5228 2 12C2 10.5727 2.29901 9.21529 2.83782 7.98692C2.8906 7.99552 2.94478 8 3 8H4.05001C4.01722 8.16155 4 8.32877 4 8.5V10.5C4 11.8807 5.11929 13 6.5 13H9C10.3807 13 11.5 11.8807 11.5 10.5V9H12.5V10.5C12.5 11.8807 13.6193 13 15 13H17.5C18.8807 13 20 11.8807 20 10.5V8.5C20 8.32877 19.9828 8.16155 19.95 8H21C21.0552 8 21.1094 7.99552 21.1622 7.98691C21.701 9.21528 22 10.5727 22 12ZM8.79957 14.3994C8.46788 13.9578 7.84101 13.8687 7.39942 14.2004C6.95783 14.5321 6.86874 15.159 7.20043 15.6006C8.29339 17.0557 10.0367 18 12.0004 18C13.964 18 15.7073 17.0557 16.8003 15.6006C17.132 15.159 17.0429 14.5321 16.6013 14.2004C16.1597 13.8687 15.5329 13.9578 15.2012 14.3994C14.4697 15.3732 13.3084 16 12.0004 16C10.6924 16 9.53103 15.3732 8.79957 14.3994Z" fill="#0000CC"/>
<path fill-rule="evenodd" clip-rule="evenodd" d="M17.5 8H15C14.7239 8 14.5 8.22386 14.5 8.5V10.5C14.5 10.7761 14.7239 11 15 11H17.5C17.7761 11 18 10.7761 18 10.5V8.5C18 8.22386 17.7761 8 17.5 8ZM16.5 10.5C17.0523 10.5 17.5 10.0523 17.5 9.5C17.5 8.94772 17.0523 8.5 16.5 8.5C15.9477 8.5 15.5 8.94772 15.5 9.5C15.5 10.0523 15.9477 10.5 16.5 10.5Z" fill="#0000CC"/>
<path fill-rule="evenodd" clip-rule="evenodd" d="M6.5 8C6.22386 8 6 8.22386 6 8.5V10.5C6 10.7761 6.22386 11 6.5 11H9C9.27614 11 9.5 10.7761 9.5 10.5V8.5C9.5 8.22386 9.27614 8 9 8H6.5ZM8.5 9.5C8.5 10.0523 8.05228 10.5 7.5 10.5C6.94772 10.5 6.5 10.0523 6.5 9.5C6.5 8.94772 6.94772 8.5 7.5 8.5C8.05228 8.5 8.5 8.94772 8.5 9.5Z" fill="#0000CC"/>
</svg>
