<svg width="24" height="24" viewBox="0 0 24 24" fill="none" xmlns="http://www.w3.org/2000/svg">
<path fill-rule="evenodd" clip-rule="evenodd" d="M2 12C2 6.47715 6.47715 2 12 2C17.5228 2 22 6.47715 22 12C22 17.5228 17.5228 22 12 22C6.47715 22 2 17.5228 2 12ZM8.0145 10.6425C7.54092 10.3584 6.92666 10.5119 6.64251 10.9855C6.35836 11.4591 6.51192 12.0733 6.9855 12.3575L8.05635 13L6.9855 13.6425C6.51192 13.9267 6.35836 14.5409 6.64251 15.0145C6.92666 15.4881 7.54092 15.6416 8.0145 15.3575L10.5145 13.8575C10.8157 13.6768 11 13.3513 11 13C11 12.6487 10.8157 12.3232 10.5145 12.1425L8.0145 10.6425ZM17.3575 10.9855C17.0733 10.5119 16.4591 10.3584 15.9855 10.6425L13.4855 12.1425C13.1843 12.3232 13 12.6487 13 13C13 13.3513 13.1843 13.6768 13.4855 13.8575L15.9855 15.3575C16.4591 15.6416 17.0733 15.4881 17.3575 15.0145C17.6416 14.5409 17.4881 13.9267 17.0145 13.6425L15.9437 13L17.0145 12.3575C17.4881 12.0733 17.6416 11.4591 17.3575 10.9855ZM9.66384 18.7479C9.2508 19.1145 8.61875 19.0769 8.25212 18.6638C7.8855 18.2508 7.92312 17.6188 8.33616 17.2521C9.23854 16.4511 10.5803 16 12 16C13.4197 16 14.7615 16.4511 15.6638 17.2521C16.0769 17.6188 16.1145 18.2508 15.7479 18.6638C15.3812 19.0769 14.7492 19.1145 14.3362 18.7479C13.8704 18.3344 13.0338 18 12 18C10.9662 18 10.1296 18.3344 9.66384 18.7479ZM10.9429 6.00806C11.127 6.52878 10.8541 7.1001 10.3333 7.28415C9.26048 7.66335 8.3536 8.39995 7.75786 9.35197C7.46489 9.82015 6.84787 9.96218 6.37969 9.66921C5.91152 9.37625 5.76948 8.75922 6.06245 8.29104C6.8946 6.96123 8.16152 5.93052 9.66685 5.39847C10.1876 5.21442 10.7589 5.48735 10.9429 6.00806ZM13.6667 7.28415C13.1459 7.1001 12.873 6.52878 13.0571 6.00806C13.2411 5.48735 13.8124 5.21442 14.3332 5.39847C15.8385 5.93052 17.1054 6.96123 17.9376 8.29104C18.2305 8.75922 18.0885 9.37625 17.6203 9.66921C17.1521 9.96218 16.5351 9.82015 16.2421 9.35197C15.6464 8.39995 14.7395 7.66335 13.6667 7.28415Z" fill="#0000CC"/>
</svg>
