<svg width="24" height="24" viewBox="0 0 24 24" fill="none" xmlns="http://www.w3.org/2000/svg">
<path d="M15.0569 9.33346C14.7172 9.60846 14.5 10.0289 14.5 10.5C14.5 11.3284 15.1716 12 16 12C16.8284 12 17.5 11.3284 17.5 10.5C17.5 10.0321 17.2858 9.61423 16.95 9.33914C16.8111 9.7245 16.4422 10 16.009 10H16C15.5646 10 15.1943 9.72179 15.0569 9.33346Z" fill="#0000CC"/>
<path d="M8.009 10C8.44223 10 8.81112 9.7245 8.95002 9.33914C9.28576 9.61423 9.5 10.0321 9.5 10.5C9.5 11.3284 8.82843 12 8 12C7.17157 12 6.5 11.3284 6.5 10.5C6.5 10.0289 6.71721 9.60846 7.05695 9.33346C7.19426 9.72179 7.56464 10 8 10H8.009Z" fill="#0000CC"/>
<path fill-rule="evenodd" clip-rule="evenodd" d="M2 12C2 6.47715 6.47715 2 12 2C17.5228 2 22 6.47715 22 12C22 17.5228 17.5228 22 12 22C6.47715 22 2 17.5228 2 12ZM16 7C14.067 7 12.5 8.567 12.5 10.5C12.5 12.433 14.067 14 16 14C17.933 14 19.5 12.433 19.5 10.5C19.5 8.567 17.933 7 16 7ZM4.5 10.5C4.5 8.567 6.067 7 8 7C9.933 7 11.5 8.567 11.5 10.5C11.5 12.433 9.933 14 8 14C6.067 14 4.5 12.433 4.5 10.5ZM9 16C8.44772 16 8 16.4477 8 17C8 17.5523 8.44772 18 9 18H15C15.5523 18 16 17.5523 16 17C16 16.4477 15.5523 16 15 16H9Z" fill="#0000CC"/>
</svg>
