<svg width="24" height="24" viewBox="0 0 24 24" fill="none" xmlns="http://www.w3.org/2000/svg">
<path d="M11 16C11 15.4477 11.4477 15 12 15C12.5523 15 13 15.4477 13 16C13 16.5523 12.5523 17 12 17C11.4477 17 11 16.5523 11 16Z" fill="#0000CC"/>
<path fill-rule="evenodd" clip-rule="evenodd" d="M15.5421 2.64547C15.5146 2.75914 15.5 2.87786 15.5 3C15.5 3.82843 16.1716 4.5 17 4.5L15.8 6.1C15.4591 6.55453 15.4062 7.16169 15.6603 7.66987C15.9144 8.17804 16.4318 8.5 17 8.5H20C20.4624 8.5 20.876 8.29076 21.1511 7.96179C21.6969 9.19677 22 10.563 22 12C22 17.5228 17.5228 22 12 22C6.47715 22 2 17.5228 2 12C2 6.47715 6.47715 2 12 2C13.2472 2 14.4411 2.22833 15.5421 2.64547ZM7.29959 9.39946C6.96792 8.95785 6.34106 8.86874 5.89946 9.20041C5.45785 9.53208 5.36874 10.1589 5.70041 10.6005C6.3372 11.4484 7.35432 12 8.5 12C9.64568 12 10.6628 11.4484 11.2996 10.6005C11.6313 10.1589 11.5421 9.53208 11.1005 9.20041C10.6589 8.86874 10.0321 8.95785 9.70041 9.39946C9.42508 9.76605 8.98999 10 8.5 10C8.01001 10 7.57492 9.76605 7.29959 9.39946ZM12.8995 9.20041C13.3411 8.86874 13.9679 8.95785 14.2996 9.39946C14.5749 9.76605 15.01 10 15.5 10C15.99 10 16.4251 9.76605 16.7004 9.39946C17.0321 8.95785 17.6589 8.86874 18.1005 9.20041C18.5421 9.53208 18.6313 10.1589 18.2996 10.6005C17.6628 11.4484 16.6457 12 15.5 12C14.3543 12 13.3372 11.4484 12.7004 10.6005C12.3687 10.1589 12.4579 9.53208 12.8995 9.20041ZM12 13C10.3431 13 9 14.3431 9 16C9 17.6569 10.3431 19 12 19C13.6569 19 15 17.6569 15 16C15 14.3431 13.6569 13 12 13Z" fill="#0000CC"/>
<path d="M17 2C16.4477 2 16 2.44772 16 3C16 3.55228 16.4477 4 17 4H18L16.2 6.4C15.9727 6.70302 15.9362 7.10843 16.1056 7.44721C16.275 7.786 16.6212 8 17 8H20C20.5523 8 21 7.55228 21 7C21 6.44772 20.5523 6 20 6H19L20.8 3.6C21.0273 3.29698 21.0638 2.89157 20.8944 2.55279C20.725 2.214 20.3788 2 20 2H17Z" fill="#0000CC"/>
</svg>
