<svg width="24" height="24" viewBox="0 0 24 24" fill="none" xmlns="http://www.w3.org/2000/svg">
<path fill-rule="evenodd" clip-rule="evenodd" d="M2 12C2 6.47715 6.47715 2 12 2C17.5228 2 22 6.47715 22 12C22 17.5228 17.5228 22 12 22C6.47715 22 2 17.5228 2 12ZM8 12C7.44772 12 7 12.4477 7 13C7 13.5523 7.44772 14 8 14C8.55228 14 9 14.4477 9 15C9 15.5523 8.55228 16 8 16C7.44772 16 7 16.4477 7 17C7 17.5523 7.44772 18 8 18C9.30622 18 10.4175 17.1652 10.8293 16H13.1707C13.5825 17.1652 14.6938 18 16 18C16.5523 18 17 17.5523 17 17C17 16.4477 16.5523 16 16 16C15.4477 16 15 15.5523 15 15C15 14.4477 15.4477 14 16 14C16.5523 14 17 13.5523 17 13C17 12.4477 16.5523 12 16 12C14.6938 12 13.5825 12.8348 13.1707 14H10.8293C10.4175 12.8348 9.30622 12 8 12ZM6.07682 7.87894C5.5561 8.06298 5.28317 8.63431 5.46722 9.15502C5.65127 9.67574 6.22259 9.94866 6.74331 9.76462C8.24863 9.23256 9.51555 8.20186 10.3477 6.87204C10.6407 6.40387 10.4986 5.78684 10.0305 5.49387C9.56229 5.2009 8.94526 5.34294 8.65229 5.81111C8.05655 6.76313 7.14967 7.49974 6.07682 7.87894ZM18.5328 9.15502C18.7168 8.63431 18.4439 8.06298 17.9232 7.87894C16.8503 7.49974 15.9434 6.76313 15.3477 5.81111C15.0547 5.34294 14.4377 5.2009 13.9695 5.49387C13.5014 5.78684 13.3593 6.40387 13.6523 6.87204C14.4844 8.20186 15.7514 9.23256 17.2567 9.76462C17.7774 9.94866 18.3487 9.67574 18.5328 9.15502ZM7.85156 10.3501C7.85156 9.52167 8.52314 8.8501 9.35156 8.8501C10.18 8.8501 10.8516 9.52167 10.8516 10.3501C10.8516 11.1785 10.18 11.8501 9.35156 11.8501C8.52313 11.8501 7.85156 11.1785 7.85156 10.3501ZM13.25 10.3001C13.25 9.49928 13.8992 8.8501 14.7 8.8501C15.5008 8.8501 16.15 9.49928 16.15 10.3001C16.15 11.1009 15.5008 11.7501 14.7 11.7501C13.8992 11.7501 13.25 11.1009 13.25 10.3001Z" fill="#0000CC"/>
</svg>
