<svg width="24" height="24" viewBox="0 0 24 24" fill="none" xmlns="http://www.w3.org/2000/svg">
<path fill-rule="evenodd" clip-rule="evenodd" d="M22 12C22 17.5228 17.5228 22 12 22C6.47715 22 2 17.5228 2 12C2 6.47715 6.47715 2 12 2C17.5228 2 22 6.47715 22 12ZM7.58466 10.3113C7.87256 10.1038 8.18334 10 8.5 10C8.81666 10 9.12744 10.1038 9.41534 10.3113C9.8634 10.6342 10.4884 10.5327 10.8113 10.0847C11.1342 9.6366 11.0327 9.01162 10.5847 8.68872C9.99004 8.2602 9.2762 8 8.5 8C7.7238 8 7.00996 8.2602 6.41534 8.68872C5.96728 9.01162 5.86582 9.6366 6.18872 10.0847C6.51162 10.5327 7.1366 10.6342 7.58466 10.3113ZM15.5 10C15.1833 10 14.8726 10.1038 14.5847 10.3113C14.1366 10.6342 13.5116 10.5327 13.1887 10.0847C12.8658 9.6366 12.9673 9.01162 13.4153 8.68872C14.01 8.2602 14.7238 8 15.5 8C16.2762 8 16.99 8.2602 17.5847 8.68872C18.0327 9.01162 18.1342 9.6366 17.8113 10.0847C17.4884 10.5327 16.8634 10.6342 16.4153 10.3113C16.1274 10.1038 15.8167 10 15.5 10ZM12.4472 13.1056C11.9532 12.8586 11.3526 13.0588 11.1056 13.5528C10.8586 14.0468 11.0588 14.6474 11.5528 14.8944L11.9706 15.1033C11.5978 15.6355 11.5978 16.3645 11.9706 16.8967L11.5528 17.1056C11.0588 17.3526 10.8586 17.9532 11.1056 18.4472C11.3526 18.9412 11.9532 19.1414 12.4472 18.8944L13.4472 18.3944C14.3924 17.9218 14.5601 16.7284 13.9502 16C14.5601 15.2716 14.3924 14.0782 13.4472 13.6056L12.4472 13.1056Z" fill="#0000CC"/>
</svg>
