<svg width="24" height="24" viewBox="0 0 24 24" fill="none" xmlns="http://www.w3.org/2000/svg">
<path fill-rule="evenodd" clip-rule="evenodd" d="M2 12C2 6.47715 6.47715 2 12 2C17.5228 2 22 6.47715 22 12C22 17.5228 17.5228 22 12 22C6.47715 22 2 17.5228 2 12ZM7.84771 8.53042C8.03282 8.23461 8.40511 7.97824 8.89173 7.85313C9.38807 7.72552 9.82452 7.78027 10.0528 7.8944C10.5468 8.14139 11.1474 7.94115 11.3944 7.44717C11.6414 6.95319 11.4412 6.35252 10.9472 6.10554C10.1755 5.71969 9.2189 5.70397 8.39373 5.91612C7.55884 6.13077 6.68113 6.62438 6.15229 7.46949C5.85933 7.93766 6.00136 8.55469 6.46953 8.84766C6.93771 9.14063 7.55474 8.9986 7.84771 8.53042ZM15.1083 7.85315C15.5949 7.97826 15.9672 8.23464 16.1523 8.53045C16.4453 8.99863 17.0623 9.14066 17.5305 8.84769C17.9986 8.55472 18.1407 7.9377 17.8477 7.46952C17.3189 6.62442 16.4412 6.1308 15.6063 5.91615C14.7811 5.70399 13.8245 5.7197 13.0528 6.10555C12.5588 6.35254 12.3586 6.95321 12.6056 7.44719C12.8526 7.94117 13.4532 8.1414 13.9472 7.89442C14.1755 7.78028 14.6119 7.72554 15.1083 7.85315ZM9.35156 9.8501C8.52314 9.8501 7.85156 10.5217 7.85156 11.3501C7.85156 12.1785 8.52313 12.8501 9.35156 12.8501C10.18 12.8501 10.8516 12.1785 10.8516 11.3501C10.8516 10.5217 10.18 9.8501 9.35156 9.8501ZM14.7 9.8501C13.8992 9.8501 13.25 10.4993 13.25 11.3001C13.25 12.1009 13.8992 12.7501 14.7 12.7501C15.5008 12.7501 16.15 12.1009 16.15 11.3001C16.15 10.4993 15.5008 9.8501 14.7 9.8501ZM12 14C10.8954 14 10 14.8954 10 16V17C10 18.1046 10.8954 19 12 19C13.1046 19 14 18.1046 14 17V16C14 14.8954 13.1046 14 12 14Z" fill="#0000CC"/>
</svg>
