<svg width="24" height="24" viewBox="0 0 24 24" fill="none" xmlns="http://www.w3.org/2000/svg">
<path fill-rule="evenodd" clip-rule="evenodd" d="M12 22C17.5228 22 22 17.5228 22 12C22 6.47715 17.5228 2 12 2C6.47715 2 2 6.47715 2 12C2 17.5228 6.47715 22 12 22ZM8 13C7.44772 13 7 13.4477 7 14C7 16.7614 9.23858 19 12 19C14.7614 19 17 16.7614 17 14C17 13.4477 16.5523 13 16 13H8ZM17.8944 7.05279C18.1414 7.54676 17.9412 8.14744 17.4472 8.39443L16.6066 8.81476L17.3162 9.05132C17.8402 9.22596 18.1233 9.79228 17.9487 10.3162C17.774 10.8402 17.2077 11.1233 16.6838 10.9487L13.6838 9.94868C13.3001 9.82078 13.0312 9.47433 13.0025 9.07089C12.9738 8.66744 13.191 8.28645 13.5528 8.10557L16.5528 6.60557C17.0468 6.35858 17.6474 6.55881 17.8944 7.05279ZM6.55279 8.39443C6.05881 8.14744 5.85858 7.54676 6.10557 7.05279C6.35256 6.55881 6.95324 6.35858 7.44721 6.60557L10.4472 8.10557C10.809 8.28645 11.0262 8.66744 10.9975 9.07089C10.9688 9.47433 10.6999 9.82078 10.3162 9.94868L7.31623 10.9487C6.79228 11.1233 6.22596 10.8402 6.05132 10.3162C5.87667 9.79228 6.15983 9.22596 6.68377 9.05132L7.39345 8.81476L6.55279 8.39443Z" fill="#0000CC"/>
</svg>
