<svg width="24" height="24" viewBox="0 0 24 24" fill="none" xmlns="http://www.w3.org/2000/svg">
<path fill-rule="evenodd" clip-rule="evenodd" d="M12 22C17.5228 22 22 17.5228 22 12C22 6.47715 17.5228 2 12 2C6.47715 2 2 6.47715 2 12C2 17.5228 6.47715 22 12 22ZM7.33207 13.0567L7.3367 13.0584L7.35717 13.0654C7.37595 13.0719 7.40485 13.0817 7.443 13.0945C7.51933 13.1199 7.63254 13.157 7.77581 13.2018C8.06282 13.2914 8.46799 13.4113 8.93735 13.531C9.89383 13.775 11.0471 14 12 14C12.9529 14 14.1062 13.775 15.0626 13.531C15.532 13.4113 15.9372 13.2914 16.2242 13.2018C16.3675 13.157 16.4807 13.1199 16.557 13.0945C16.5952 13.0817 16.624 13.0719 16.6428 13.0654L16.6633 13.0584L16.6676 13.0568C16.9736 12.9492 17.3132 12.9965 17.5779 13.1839C17.8426 13.3714 18 13.6756 18 14C18 15.5666 16.9573 16.8285 15.8399 17.6382C14.708 18.4584 13.2571 19 12 19C10.7429 19 9.29205 18.4584 8.16012 17.6382C7.04268 16.8285 6 15.5666 6 14C6 13.6756 6.15736 13.3714 6.4221 13.1839C6.68675 12.9965 7.02618 12.9492 7.33207 13.0567ZM7.33082 6.84081C6.46915 6.89352 5.61071 7.36699 5.21696 8.31883C4.70643 9.55296 5.26643 10.9178 6.54713 11.3627C6.92736 11.4948 7.54379 11.6193 8.06235 11.7137C8.60762 11.8129 9.14 11.8952 9.40086 11.9342L9.40537 11.9349C9.42562 11.938 9.48585 11.9472 9.5455 11.9515C9.6264 11.9573 9.76134 11.9596 9.92018 11.9171C10.113 11.8655 10.2896 11.7635 10.4307 11.6223C10.547 11.506 10.6124 11.388 10.6479 11.3151C10.674 11.2613 10.6961 11.2045 10.7036 11.1854L10.7052 11.1812C10.8018 10.9357 10.9968 10.4335 11.1835 9.91169C11.361 9.41542 11.5614 8.81934 11.6372 8.424C11.8893 7.10774 11.011 5.90953 9.65296 5.74844C8.63869 5.62813 7.80522 6.12352 7.33082 6.84081ZM18.783 8.31883C18.3893 7.36699 17.5308 6.89352 16.6692 6.84081C16.1948 6.12352 15.3613 5.62813 14.347 5.74844C12.989 5.90953 12.1107 7.10774 12.3628 8.424C12.4386 8.81934 12.639 9.41542 12.8165 9.91169C13.0032 10.4335 13.1982 10.9357 13.2948 11.1812L13.2964 11.1854C13.3039 11.2045 13.326 11.2613 13.3521 11.3151C13.3876 11.388 13.453 11.506 13.5693 11.6223C13.7104 11.7635 13.887 11.8655 14.0798 11.9171C14.2387 11.9596 14.3736 11.9573 14.4545 11.9515C14.5142 11.9472 14.5744 11.938 14.5946 11.9349L14.5991 11.9342C14.86 11.8952 15.3924 11.8129 15.9376 11.7137C16.4562 11.6193 17.0726 11.4948 17.4529 11.3627C18.7336 10.9178 19.2936 9.55296 18.783 8.31883Z" fill="#0000CC"/>
</svg>
