<svg width="24" height="24" viewBox="0 0 24 24" fill="none" xmlns="http://www.w3.org/2000/svg">
<path fill-rule="evenodd" clip-rule="evenodd" d="M12 22C17.5228 22 22 17.5228 22 12C22 6.47715 17.5228 2 12 2C6.47715 2 2 6.47715 2 12C2 17.5228 6.47715 22 12 22ZM8.79957 16.6006C8.46788 17.0422 7.84101 17.1313 7.39942 16.7996C6.95783 16.4679 6.86874 15.841 7.20043 15.3994C8.29339 13.9443 10.0367 13 12.0004 13C13.964 13 15.7073 13.9443 16.8003 15.3994C17.132 15.841 17.0429 16.4679 16.6013 16.7996C16.1597 17.1313 15.5329 17.0422 15.2012 16.6006C14.4697 15.6268 13.3084 15 12.0004 15C10.6924 15 9.53103 15.6268 8.79957 16.6006ZM7.85156 9.34998C7.85156 8.52155 8.52314 7.84998 9.35156 7.84998C10.18 7.84998 10.8516 8.52155 10.8516 9.34998C10.8516 10.1784 10.18 10.85 9.35156 10.85C8.52313 10.85 7.85156 10.1784 7.85156 9.34998ZM13.25 9.29998C13.25 8.49916 13.8992 7.84998 14.7 7.84998C15.5008 7.84998 16.15 8.49916 16.15 9.29998C16.15 10.1008 15.5008 10.75 14.7 10.75C13.8992 10.75 13.25 10.1008 13.25 9.29998Z" fill="#0000CC"/>
</svg>
