<svg width="24" height="24" viewBox="0 0 24 24" fill="none" xmlns="http://www.w3.org/2000/svg">
<path fill-rule="evenodd" clip-rule="evenodd" d="M2 12C2 6.47715 6.47715 2 12 2C17.5228 2 22 6.47715 22 12C22 17.5228 17.5228 22 12 22C6.47715 22 2 17.5228 2 12ZM9.33393 6.44747C8.82884 6.10915 8.16949 6.10915 7.6644 6.44747C7.39538 6.62765 7.24765 6.8804 7.17413 7.01336C7.11084 7.12782 7.04504 7.266 6.9792 7.40792C6.82388 7.42668 6.67213 7.44656 6.54372 7.47138C6.39454 7.50022 6.10852 7.56262 5.85402 7.76278C5.37617 8.13861 5.17242 8.76569 5.3381 9.35061C5.42634 9.66213 5.62107 9.88074 5.7248 9.99175C5.8141 10.0873 5.92519 10.1926 6.03981 10.2991C6.00966 10.4526 5.98167 10.603 5.96559 10.7328C5.94692 10.8836 5.91788 11.1749 6.0296 11.4788C6.23937 12.0494 6.7728 12.437 7.38029 12.4602C7.70383 12.4725 7.97192 12.3549 8.10955 12.2905C8.22803 12.2351 8.36248 12.162 8.49916 12.0859C8.63585 12.162 8.7703 12.2351 8.88878 12.2905C9.02641 12.3549 9.29449 12.4725 9.61804 12.4602C10.2255 12.437 10.759 12.0494 10.9687 11.4788C11.0804 11.1749 11.0514 10.8836 11.0327 10.7328C11.0167 10.603 10.9887 10.4526 10.9585 10.2991C11.0731 10.1926 11.1842 10.0873 11.2735 9.99175C11.3773 9.88074 11.572 9.66213 11.6602 9.35061C11.8259 8.76569 11.6222 8.13861 11.1443 7.76278C10.8898 7.56262 10.6038 7.50022 10.4546 7.47138C10.3262 7.44656 10.1744 7.42668 10.0191 7.40792C9.95328 7.266 9.88749 7.12782 9.8242 7.01336C9.75068 6.8804 9.60294 6.62765 9.33393 6.44747ZM16.3339 6.44747C15.8288 6.10915 15.1695 6.10915 14.6644 6.44747C14.3954 6.62765 14.2477 6.8804 14.1741 7.01336C14.1108 7.12782 14.045 7.26601 13.9792 7.40792C13.8239 7.42669 13.6721 7.44656 13.5437 7.47138C13.3945 7.50022 13.1085 7.56262 12.854 7.76278C12.3762 8.13861 12.1724 8.76569 12.3381 9.35061C12.4263 9.66213 12.6211 9.88074 12.7248 9.99175C12.8141 10.0873 12.9252 10.1926 13.0398 10.2991C13.0097 10.4526 12.9817 10.603 12.9656 10.7328C12.9469 10.8836 12.9179 11.1749 13.0296 11.4788C13.2394 12.0494 13.7728 12.437 14.3803 12.4602C14.7038 12.4725 14.9719 12.3549 15.1095 12.2905C15.228 12.2351 15.3625 12.162 15.4992 12.0859C15.6358 12.162 15.7703 12.2351 15.8888 12.2905C16.0264 12.3549 16.2945 12.4725 16.618 12.4602C17.2255 12.437 17.759 12.0494 17.9687 11.4788C18.0804 11.1749 18.0514 10.8836 18.0327 10.7328C18.0167 10.603 17.9887 10.4526 17.9585 10.2991C18.0731 10.1926 18.1842 10.0873 18.2735 9.99175C18.3773 9.88074 18.572 9.66213 18.6602 9.35061C18.8259 8.76569 18.6222 8.13861 18.1443 7.76278C17.8898 7.56262 17.6038 7.50022 17.4546 7.47138C17.3262 7.44656 17.1744 7.42669 17.0191 7.40792C16.9533 7.26601 16.8875 7.12782 16.8242 7.01336C16.7507 6.8804 16.6029 6.62765 16.3339 6.44747ZM6.42127 13.1839C6.69724 12.9884 7.04101 12.9563 7.35633 13.0654C7.37511 13.0718 7.40401 13.0817 7.44216 13.0944C7.5185 13.1199 7.6317 13.157 7.77497 13.2017C8.06198 13.2914 8.46715 13.4113 8.93652 13.531C9.893 13.775 11.0462 14 11.9992 14C12.9521 14 14.1053 13.775 15.0618 13.531C15.5312 13.4113 15.9363 13.2914 16.2234 13.2017C16.3666 13.157 16.4798 13.1199 16.5562 13.0944C16.5943 13.0817 16.6232 13.0718 16.642 13.0654C16.9556 12.9571 17.3028 12.9897 17.5771 13.1839C17.8418 13.3713 17.9992 13.6756 17.9992 14C17.9992 15.5666 16.9565 16.8284 15.839 17.6382C14.7071 18.4584 13.2563 19 11.9992 19C10.742 19 9.29121 18.4584 8.15929 17.6382C7.04185 16.8284 5.99916 15.5666 5.99916 14C5.99916 13.6756 6.15652 13.3713 6.42127 13.1839Z" fill="#0000CC"/>
</svg>
