<svg width="24" height="24" viewBox="0 0 24 24" fill="none" xmlns="http://www.w3.org/2000/svg">
<path fill-rule="evenodd" clip-rule="evenodd" d="M12 22C17.5228 22 22 17.5228 22 12C22 6.47715 17.5228 2 12 2C6.47715 2 2 6.47715 2 12C2 17.5228 6.47715 22 12 22ZM7.70711 7.29289C7.31658 6.90237 6.68342 6.90237 6.29289 7.29289C5.90237 7.68342 5.90237 8.31658 6.29289 8.70711L7.08579 9.5L6.29289 10.2929C5.90237 10.6834 5.90237 11.3166 6.29289 11.7071C6.68342 12.0976 7.31658 12.0976 7.70711 11.7071L8.5 10.9142L9.29289 11.7071C9.68342 12.0976 10.3166 12.0976 10.7071 11.7071C11.0976 11.3166 11.0976 10.6834 10.7071 10.2929L9.91421 9.5L10.7071 8.70711C11.0976 8.31658 11.0976 7.68342 10.7071 7.29289C10.3166 6.90237 9.68342 6.90237 9.29289 7.29289L8.5 8.08579L7.70711 7.29289ZM13.2929 7.29289C13.6834 6.90237 14.3166 6.90237 14.7071 7.29289L15.5 8.08579L16.2929 7.29289C16.6834 6.90237 17.3166 6.90237 17.7071 7.29289C18.0976 7.68342 18.0976 8.31658 17.7071 8.70711L16.9142 9.5L17.7071 10.2929C18.0976 10.6834 18.0976 11.3166 17.7071 11.7071C17.3166 12.0976 16.6834 12.0976 16.2929 11.7071L15.5 10.9142L14.7071 11.7071C14.3166 12.0976 13.6834 12.0976 13.2929 11.7071C12.9024 11.3166 12.9024 10.6834 13.2929 10.2929L14.0858 9.5L13.2929 8.70711C12.9024 8.31658 12.9024 7.68342 13.2929 7.29289ZM12 13C9.79086 13 8 14.7909 8 17V18C8 18.5523 8.44772 19 9 19H15C15.5523 19 16 18.5523 16 18V17C16 14.7909 14.2091 13 12 13Z" fill="#0000CC"/>
</svg>
