<svg width="24" height="24" viewBox="0 0 24 24" fill="none" xmlns="http://www.w3.org/2000/svg">
<path d="M3.5 18C2.67157 18 2 18.6716 2 19.5C2 20.3284 2.67157 21 3.5 21C4.32843 21 5 20.3284 5 19.5C5 18.6716 4.32843 18 3.5 18Z" fill="#0000CC"/>
<path d="M20.5 18C19.6716 18 19 18.6716 19 19.5C19 20.3284 19.6716 21 20.5 21C21.3284 21 22 20.3284 22 19.5C22 18.6716 21.3284 18 20.5 18Z" fill="#0000CC"/>
<path d="M9.28852 14C8.75353 14 8.31331 14.4211 8.28951 14.9555C8.22165 16.4794 7.8255 18.7943 6.30091 20.285C6.01026 20.5692 5.92057 21.0011 6.07402 21.3775C6.22747 21.7539 6.59352 22 7.00003 22H17C17.4065 22 17.7726 21.7539 17.926 21.3775C18.0795 21.0011 17.9898 20.5692 17.6991 20.285C16.1408 18.7613 15.5669 16.4009 15.3687 14.8715C15.3041 14.3731 14.8795 14 14.3769 14H9.28852Z" fill="#0000CC"/>
<path fill-rule="evenodd" clip-rule="evenodd" d="M12 2C7.02944 2 3 6.13276 3 11.2308C3 13.4137 3.73881 15.4197 4.97396 17H6.98316C7.17439 16.2763 7.26223 15.5452 7.29047 14.911C7.33806 13.8421 8.21851 13 9.28849 13H14.3769C15.3821 13 16.2311 13.7461 16.3603 14.743C16.4475 15.4153 16.6067 16.2114 16.878 17H19.026C20.2612 15.4197 21 13.4137 21 11.2308C21 6.13276 16.9706 2 12 2ZM8.01465 7.14251C7.54107 6.85836 6.92681 7.01192 6.64266 7.4855C6.35851 7.95908 6.51207 8.57334 6.98566 8.85749L8.0565 9.5L6.98566 10.1425C6.51207 10.4267 6.35851 11.0409 6.64266 11.5145C6.92681 11.9881 7.54107 12.1416 8.01465 11.8575L10.5146 10.3575C10.8159 10.1768 11.0002 9.85126 11.0002 9.5C11.0002 9.14874 10.8159 8.82323 10.5146 8.64251L8.01465 7.14251ZM17.3576 7.4855C17.6418 7.95908 17.4882 8.57334 17.0146 8.85749L15.9438 9.5L17.0146 10.1425C17.4882 10.4267 17.6418 11.0409 17.3576 11.5145C17.0735 11.9881 16.4592 12.1416 15.9857 11.8575L13.4857 10.3575C13.1844 10.1768 13.0002 9.85126 13.0002 9.5C13.0002 9.14874 13.1844 8.82323 13.4857 8.64251L15.9857 7.14251C16.4592 6.85836 17.0735 7.01192 17.3576 7.4855Z" fill="#0000CC"/>
</svg>
