<svg width="24" height="24" viewBox="0 0 24 24" fill="none" xmlns="http://www.w3.org/2000/svg">
<path fill-rule="evenodd" clip-rule="evenodd" d="M2 12C2 6.47715 6.47715 2 12 2C17.5228 2 22 6.47715 22 12C22 17.5228 17.5228 22 12 22C6.47715 22 2 17.5228 2 12ZM11.9072 12C9.49549 12 7.4508 13.7734 7.10973 16.1608C6.9618 17.1963 7.8936 18.033 8.8869 17.8315C9.72252 17.6621 11.0598 17.4286 12 17.4286C12.9402 17.4286 14.2775 17.6621 15.1131 17.8315C16.1064 18.033 17.0382 17.1963 16.8903 16.1608C16.5492 13.7734 14.5045 12 12.0928 12H11.9072ZM6.64251 7.4855C6.92666 7.01192 7.54092 6.85836 8.0145 7.14251L10.5145 8.64251C10.8157 8.82323 11 9.14874 11 9.5C11 9.85126 10.8157 10.1768 10.5145 10.3575L8.0145 11.8575C7.54092 12.1416 6.92666 11.9881 6.64251 11.5145C6.35836 11.0409 6.51192 10.4267 6.9855 10.1425L8.05635 9.5L6.9855 8.85749C6.51192 8.57334 6.35836 7.95908 6.64251 7.4855ZM15.9855 7.14251C16.4591 6.85836 17.0733 7.01192 17.3575 7.4855C17.6416 7.95908 17.4881 8.57334 17.0145 8.85749L15.9437 9.5L17.0145 10.1425C17.4881 10.4267 17.6416 11.0409 17.3575 11.5145C17.0733 11.9881 16.4591 12.1416 15.9855 11.8575L13.4855 10.3575C13.1843 10.1768 13 9.85126 13 9.5C13 9.14874 13.1843 8.82323 13.4855 8.64251L15.9855 7.14251Z" fill="#0000CC"/>
</svg>
