<svg width="24" height="24" viewBox="0 0 24 24" fill="none" xmlns="http://www.w3.org/2000/svg">
<path fill-rule="evenodd" clip-rule="evenodd" d="M15.5796 21.3403C19.3344 19.9004 22 16.2615 22 12C22 6.47715 17.5228 2 12 2C6.47715 2 2 6.47715 2 12C2 16.2615 4.6656 19.9004 8.42039 21.3403C8.15138 20.9369 8 20.4817 8 20V17.5182C6.93412 16.697 6 15.4854 6 14C6 13.6756 6.15736 13.3714 6.4221 13.1839C6.68675 12.9965 7.02647 12.9493 7.33237 13.0568L7.3367 13.0584L7.35717 13.0654C7.37595 13.0719 7.40485 13.0817 7.443 13.0945C7.51933 13.1199 7.63254 13.157 7.77581 13.2018C8.06282 13.2914 8.46799 13.4113 8.93735 13.531C9.89383 13.775 11.0471 14 12 14C12.9529 14 14.1062 13.775 15.0626 13.531C15.532 13.4113 15.9372 13.2914 16.2242 13.2018C16.3675 13.157 16.4807 13.1199 16.557 13.0945C16.5952 13.0817 16.624 13.0719 16.6428 13.0654L16.6633 13.0584L16.6681 13.0567C16.9741 12.949 17.3132 12.9965 17.5779 13.1839C17.8426 13.3714 18 13.6756 18 14C18 15.4854 17.0659 16.697 16 17.5182V20C16 20.4817 15.8486 20.9369 15.5796 21.3403ZM8.0145 6.64251C7.54092 6.35836 6.92666 6.51192 6.64251 6.9855C6.35836 7.45908 6.51192 8.07334 6.9855 8.35749L8.05635 9L6.9855 9.64251C6.51192 9.92666 6.35836 10.5409 6.64251 11.0145C6.92666 11.4881 7.54092 11.6416 8.0145 11.3575L10.5145 9.85749C10.8157 9.67677 11 9.35126 11 9C11 8.64874 10.8157 8.32323 10.5145 8.14251L8.0145 6.64251ZM17.3575 6.9855C17.0733 6.51192 16.4591 6.35836 15.9855 6.64251L13.4855 8.14251C13.1843 8.32323 13 8.64874 13 9C13 9.35126 13.1843 9.67677 13.4855 9.85749L15.9855 11.3575C16.4591 11.6416 17.0733 11.4881 17.3575 11.0145C17.6416 10.5409 17.4881 9.92666 17.0145 9.64251L15.9437 9L17.0145 8.35749C17.4881 8.07334 17.6416 7.45908 17.3575 6.9855Z" fill="#0000CC"/>
<path d="M12 22C13.1046 22 14 20.9255 14 19.6V17H13.5C13.2659 17 13 17 13 17H12.5C12.5 17 12.3788 17 12 17C11.6212 17 12 17 11.5 17H11C11 17 10.7341 17 10.5 17H10V19.6C10 20.9255 10.8954 22 12 22Z" fill="#0000CC"/>
</svg>
