<svg width="24" height="24" viewBox="0 0 24 24" fill="none" xmlns="http://www.w3.org/2000/svg">
<path fill-rule="evenodd" clip-rule="evenodd" d="M2 12C2 10.5973 2.2888 9.2621 2.81017 8.05054C3.35757 8.63488 4.13614 9 5 9C6.65685 9 8 7.65685 8 6V5.74223C8 5.32777 7.92092 4.91713 7.76699 4.53232L7.23623 3.20541C8.6525 2.43664 10.2753 2 12 2C17.5228 2 22 6.47715 22 12C22 17.5228 17.5228 22 12 22C6.47715 22 2 17.5228 2 12ZM7 10C6.44772 10 6 10.4477 6 11C6 11.5523 6.44772 12 7 12H10C10.5523 12 11 11.5523 11 11C11 10.4477 10.5523 10 10 10H7ZM14 10C13.4477 10 13 10.4477 13 11C13 11.5523 13.4477 12 14 12H17C17.5523 12 18 11.5523 18 11C18 10.4477 17.5523 10 17 10H14ZM12 15C10.8543 15 9.8372 15.5516 9.20041 16.3995C8.86874 16.8411 8.95785 17.4679 9.39946 17.7996C9.84106 18.1313 10.4679 18.0421 10.7996 17.6005C11.0749 17.234 11.51 17 12 17C12.49 17 12.9251 17.234 13.2004 17.6005C13.5321 18.0421 14.1589 18.1313 14.6005 17.7996C15.0421 17.4679 15.1313 16.8411 14.7996 16.3995C14.1628 15.5516 13.1457 15 12 15Z" fill="#0000CC"/>
<path fill-rule="evenodd" clip-rule="evenodd" d="M5 2C5.4089 2 5.77661 2.24895 5.92848 2.62861L6.83852 4.90371C6.94519 5.1704 7 5.45499 7 5.74223V6C7 7.10457 6.10457 8 5 8C3.89543 8 3 7.10457 3 6V5.74223C3 5.45499 3.05481 5.1704 3.16148 4.90371L4.07152 2.62861C4.22339 2.24895 4.5911 2 5 2Z" fill="#0000CC"/>
</svg>
