<svg width="24" height="24" viewBox="0 0 24 24" fill="none" xmlns="http://www.w3.org/2000/svg">
<path fill-rule="evenodd" clip-rule="evenodd" d="M22 12C22 17.5228 17.5228 22 12 22C6.47715 22 2 17.5228 2 12C2 6.47715 6.47715 2 12 2C17.5228 2 22 6.47715 22 12ZM16.1679 9.0547C15.7287 8.39578 14.9891 8 14.1972 8H14C13.4477 8 13 7.55228 13 7C13 6.44772 13.4477 6 14 6H14.1972C15.6579 6 17.0218 6.72999 17.8321 7.9453C18.1384 8.40483 18.0142 9.0257 17.5547 9.33205C17.0952 9.63841 16.4743 9.51423 16.1679 9.0547ZM9.80278 8C9.01086 8 8.27133 8.39578 7.83205 9.0547C7.5257 9.51423 6.90483 9.63841 6.4453 9.33205C5.98577 9.0257 5.8616 8.40483 6.16795 7.9453C6.97816 6.72999 8.34215 6 9.80278 6H10C10.5523 6 11 6.44772 11 7C11 7.55228 10.5523 8 10 8H9.80278ZM11.9248 13.5C10.0463 13.5 8.37856 14.702 7.78453 16.4841C7.43557 17.531 8.35273 18.5378 9.40833 18.3381C10.2029 18.1877 11.3458 18 12 18C12.6542 18 13.7971 18.1877 14.5917 18.3381C15.6473 18.5378 16.5644 17.531 16.2155 16.4841C15.6214 14.702 13.9537 13.5 12.0752 13.5H11.9248ZM7.85156 11.3501C7.85156 10.5217 8.52314 9.8501 9.35156 9.8501C10.18 9.8501 10.8516 10.5217 10.8516 11.3501C10.8516 12.1785 10.18 12.8501 9.35156 12.8501C8.52313 12.8501 7.85156 12.1785 7.85156 11.3501ZM13.25 11.3001C13.25 10.4993 13.8992 9.8501 14.7 9.8501C15.5008 9.8501 16.15 10.4993 16.15 11.3001C16.15 12.1009 15.5008 12.7501 14.7 12.7501C13.8992 12.7501 13.25 12.1009 13.25 11.3001Z" fill="#0000CC"/>
</svg>
