<svg width="24" height="24" viewBox="0 0 24 24" fill="none" xmlns="http://www.w3.org/2000/svg">
<path fill-rule="evenodd" clip-rule="evenodd" d="M12 2C9.45088 2 7.10661 2.28588 5.3684 2.76872C4.50632 3.00818 3.7362 3.31151 3.15832 3.69103C2.62116 4.0438 2 4.634 2 5.5C2 6.366 2.62116 6.9562 3.15832 7.30897C3.7362 7.68849 4.50632 7.99182 5.3684 8.23129C7.10661 8.71412 9.45088 9 12 9C14.5491 9 16.8934 8.71412 18.6316 8.23129C19.4937 7.99182 20.2638 7.68849 20.8417 7.30897C21.3788 6.9562 22 6.366 22 5.5C22 4.634 21.3788 4.0438 20.8417 3.69103C20.2638 3.31151 19.4937 3.00818 18.6316 2.76872C16.8934 2.28588 14.5491 2 12 2ZM4.25621 5.36275C4.17262 5.41764 4.1136 5.46364 4.07235 5.5C4.1136 5.53636 4.17262 5.58236 4.25621 5.63725C4.58918 5.85593 5.13708 6.0913 5.90368 6.30425C7.42283 6.72623 9.57856 7 12 7C14.4214 7 16.5772 6.72623 18.0963 6.30425C18.8629 6.0913 19.4108 5.85593 19.7438 5.63725C19.8274 5.58236 19.8864 5.53636 19.9276 5.5C19.8864 5.46364 19.8274 5.41764 19.7438 5.36275C19.4108 5.14407 18.8629 4.9087 18.0963 4.69575C16.5772 4.27377 14.4214 4 12 4C9.57856 4 7.42283 4.27377 5.90368 4.69575C5.13708 4.9087 4.58918 5.14407 4.25621 5.36275Z" fill="#0000CC"/>
<path fill-rule="evenodd" clip-rule="evenodd" d="M2.56928 8.6668C2.62277 8.51547 2.71018 8.38313 2.82118 8.2771C3.48337 8.67036 4.28045 8.96699 5.10075 9.19485C6.9485 9.70811 9.38704 10 12 10C14.613 10 17.0515 9.70811 18.8993 9.19485C19.7196 8.96699 20.5166 8.67036 21.1788 8.2771C21.2898 8.38313 21.3772 8.51547 21.4307 8.6668C21.7997 9.71068 22 10.833 22 12C22 17.5229 17.5228 22 12 22C6.47715 22 2 17.5229 2 12C2 10.833 2.20032 9.71068 2.56928 8.6668ZM8.50027 10C7.748 10 7.11947 10.3654 6.64991 10.8452C6.18415 11.3211 5.82475 11.9544 5.56411 12.6485C5.36994 13.1655 5.63168 13.7421 6.14871 13.9362C6.66574 14.1304 7.24228 13.8686 7.43644 13.3516C7.63186 12.8312 7.86354 12.4645 8.0793 12.2441C8.29127 12.0275 8.4347 12 8.50027 12C8.56584 12 8.70927 12.0275 8.92124 12.2441C9.137 12.4645 9.36868 12.8312 9.56411 13.3516C9.75827 13.8686 10.3348 14.1304 10.8518 13.9362C11.3689 13.7421 11.6306 13.1655 11.4364 12.6485C11.1758 11.9544 10.8164 11.3211 10.3506 10.8452C9.88107 10.3654 9.25254 10 8.50027 10ZM15.5003 10C14.748 10 14.1195 10.3654 13.6499 10.8452C13.1841 11.3211 12.8247 11.9544 12.5641 12.6485C12.3699 13.1655 12.6317 13.7421 13.1487 13.9362C13.6657 14.1304 14.2423 13.8686 14.4364 13.3516C14.6319 12.8312 14.8635 12.4645 15.0793 12.2441C15.2913 12.0275 15.4347 12 15.5003 12C15.5658 12 15.7093 12.0275 15.9212 12.2441C16.137 12.4645 16.3687 12.8312 16.5641 13.3516C16.7583 13.8686 17.3348 14.1304 17.8518 13.9362C18.3689 13.7421 18.6306 13.1655 18.4364 12.6485C18.1758 11.9544 17.8164 11.3211 17.3506 10.8452C16.8811 10.3654 16.2525 10 15.5003 10ZM8.79984 15.3995C8.46815 14.9579 7.84128 14.8688 7.39969 15.2005C6.95811 15.5322 6.86901 16.159 7.2007 16.6006C8.29366 18.0557 10.037 19 12.0006 19C13.9643 19 15.7076 18.0557 16.8006 16.6006C17.1323 16.159 17.0432 15.5322 16.6016 15.2005C16.16 14.8688 15.5331 14.9579 15.2014 15.3995C14.47 16.3733 13.3086 17 12.0006 17C10.6926 17 9.5313 16.3733 8.79984 15.3995Z" fill="#0000CC"/>
</svg>
