<svg width="24" height="24" viewBox="0 0 24 24" fill="none" xmlns="http://www.w3.org/2000/svg">
<path fill-rule="evenodd" clip-rule="evenodd" d="M12 22C17.5228 22 22 17.5228 22 12C22 6.47715 17.5228 2 12 2C6.47715 2 2 6.47715 2 12C2 17.5228 6.47715 22 12 22ZM7.33207 13.0567L7.3367 13.0584L7.35717 13.0654C7.37595 13.0719 7.40485 13.0817 7.443 13.0945C7.51933 13.1199 7.63254 13.157 7.77581 13.2018C8.06282 13.2914 8.46799 13.4113 8.93735 13.531C9.89383 13.775 11.0471 14 12 14C12.9529 14 14.1062 13.775 15.0626 13.531C15.532 13.4113 15.9372 13.2914 16.2242 13.2018C16.3675 13.157 16.4807 13.1199 16.557 13.0945C16.5952 13.0817 16.624 13.0719 16.6428 13.0654L16.6633 13.0584L16.6676 13.0568C16.9736 12.9492 17.3132 12.9965 17.5779 13.1839C17.8426 13.3714 18 13.6756 18 14C18 15.5666 16.9573 16.8285 15.8399 17.6382C14.708 18.4584 13.2571 19 12 19C10.7429 19 9.29205 18.4584 8.16012 17.6382C7.04268 16.8285 6 15.5666 6 14C6 13.6756 6.15736 13.3714 6.4221 13.1839C6.68675 12.9965 7.02618 12.9492 7.33207 13.0567ZM17.8944 8.05279C18.1414 8.54676 17.9412 9.14744 17.4472 9.39443L16.6066 9.81476L17.3162 10.0513C17.8402 10.226 18.1233 10.7923 17.9487 11.3162C17.774 11.8402 17.2077 12.1233 16.6838 11.9487L13.6838 10.9487C13.3001 10.8208 13.0312 10.4743 13.0025 10.0709C12.9738 9.66744 13.191 9.28645 13.5528 9.10557L16.5528 7.60557C17.0468 7.35858 17.6474 7.55881 17.8944 8.05279ZM6.55279 9.39443C6.05881 9.14744 5.85858 8.54676 6.10557 8.05279C6.35256 7.55881 6.95324 7.35858 7.44721 7.60557L10.4472 9.10557C10.809 9.28645 11.0262 9.66744 10.9975 10.0709C10.9688 10.4743 10.6999 10.8208 10.3162 10.9487L7.31623 11.9487C6.79228 12.1233 6.22596 11.8402 6.05132 11.3162C5.87667 10.7923 6.15983 10.226 6.68377 10.0513L7.39345 9.81476L6.55279 9.39443Z" fill="#0000CC"/>
</svg>
