<svg width="24" height="24" viewBox="0 0 24 24" fill="none" xmlns="http://www.w3.org/2000/svg">
<path fill-rule="evenodd" clip-rule="evenodd" d="M22 12C22 17.5228 17.5228 22 12 22C6.47715 22 2 17.5228 2 12C2 6.47715 6.47715 2 12 2C17.5228 2 22 6.47715 22 12ZM7.84771 8.53045C8.03282 8.23464 8.40511 7.97827 8.89173 7.85316C9.38807 7.72555 9.82452 7.7803 10.0528 7.89443C10.5468 8.14142 11.1474 7.94118 11.3944 7.4472C11.6414 6.95322 11.4412 6.35255 10.9472 6.10557C10.1755 5.71972 9.2189 5.704 8.39373 5.91615C7.55884 6.1308 6.68113 6.62441 6.15229 7.46952C5.85933 7.9377 6.00136 8.55472 6.46953 8.84769C6.93771 9.14066 7.55474 8.99863 7.84771 8.53045ZM15.1083 7.85315C15.5949 7.97826 15.9672 8.23464 16.1523 8.53045C16.4453 8.99863 17.0623 9.14066 17.5305 8.84769C17.9986 8.55472 18.1407 7.9377 17.8477 7.46952C17.3189 6.62442 16.4412 6.1308 15.6063 5.91615C14.7811 5.70399 13.8245 5.7197 13.0528 6.10555C12.5588 6.35254 12.3586 6.95321 12.6056 7.44719C12.8526 7.94117 13.4532 8.1414 13.9472 7.89442C14.1755 7.78028 14.6119 7.72554 15.1083 7.85315ZM12 15C10.8954 15 10 15.8954 10 17C10 18.1046 10.8954 19 12 19C13.1046 19 14 18.1046 14 17C14 15.8954 13.1046 15 12 15ZM7.85156 11.35C7.85156 10.5215 8.52314 9.84998 9.35156 9.84998C10.18 9.84998 10.8516 10.5215 10.8516 11.35C10.8516 12.1784 10.18 12.85 9.35156 12.85C8.52313 12.85 7.85156 12.1784 7.85156 11.35ZM13.25 11.3C13.25 10.4992 13.8992 9.84998 14.7 9.84998C15.5008 9.84998 16.15 10.4992 16.15 11.3C16.15 12.1008 15.5008 12.75 14.7 12.75C13.8992 12.75 13.25 12.1008 13.25 11.3Z" fill="#0000CC"/>
</svg>
