<svg width="24" height="24" viewBox="0 0 24 24" fill="none" xmlns="http://www.w3.org/2000/svg">
<path fill-rule="evenodd" clip-rule="evenodd" d="M15.7402 16.841C15.3539 17.1652 15.2694 17.7263 15.5432 18.1499L16.9171 20.2757C17.6759 21.4498 19.2921 21.6931 20.363 20.7945C21.4339 19.8959 21.4749 18.262 20.4504 17.3108L18.5955 15.5887C18.2259 15.2455 17.6587 15.2313 17.2723 15.5555L15.7402 16.841Z" fill="#0000CC"/>
<path fill-rule="evenodd" clip-rule="evenodd" d="M19.9971 11.2323C19.999 11.1551 20 11.0777 20 11C20 6.02944 15.9706 2 11 2C6.02944 2 2 6.02944 2 11C2 15.9706 6.02944 20 11 20C11.1165 20 11.2325 19.9978 11.3479 19.9934C12.7985 19.9383 14.1613 19.5398 15.3571 18.8769L14.6315 17.7542C14.3578 17.3307 14.4423 16.7695 14.8286 16.4454L17.0422 14.5879C17.4285 14.2638 17.9958 14.278 18.3654 14.6211L18.9708 15.1832C19.5943 13.9977 19.961 12.6561 19.9971 11.2323ZM8 13C8.55228 13 9 13.4477 9 14V15C9 15.5523 8.55228 16 8 16C7.44772 16 7 15.5523 7 15V14C7 13.4477 7.44772 13 8 13ZM12 14C12 13.4477 11.5523 13 11 13C10.4477 13 10 13.4477 10 14V15C10 15.5523 10.4477 16 11 16C11.5523 16 12 15.5523 12 15V14ZM14 13C14.5523 13 15 13.4477 15 14V15C15 15.5523 14.5523 16 14 16C13.4477 16 13 15.5523 13 15V14C13 13.4477 13.4477 13 14 13ZM8.35156 7.8501C7.52314 7.8501 6.85156 8.52167 6.85156 9.3501C6.85156 10.1785 7.52313 10.8501 8.35156 10.8501C9.17999 10.8501 9.85156 10.1785 9.85156 9.3501C9.85156 8.52167 9.17999 7.8501 8.35156 7.8501ZM13.7 7.8501C12.8992 7.8501 12.25 8.49928 12.25 9.3001C12.25 10.1009 12.8992 10.7501 13.7 10.7501C14.5008 10.7501 15.15 10.1009 15.15 9.3001C15.15 8.49928 14.5008 7.8501 13.7 7.8501Z" fill="#0000CC"/>
</svg>
