<svg width="24" height="24" viewBox="0 0 24 24" fill="none" xmlns="http://www.w3.org/2000/svg">
<path fill-rule="evenodd" clip-rule="evenodd" d="M12 22C17.5228 22 22 17.5228 22 12C22 6.47715 17.5228 2 12 2C6.47715 2 2 6.47715 2 12C2 17.5228 6.47715 22 12 22ZM9.30156 7.84998C8.50075 7.84998 7.85156 8.49916 7.85156 9.29998C7.85156 10.1008 8.50075 10.75 9.30156 10.75C10.1024 10.75 10.7516 10.1008 10.7516 9.29998C10.7516 8.49916 10.1024 7.84998 9.30156 7.84998ZM14.7 7.84998C13.8992 7.84998 13.25 8.49916 13.25 9.29998C13.25 10.1008 13.8992 10.75 14.7 10.75C15.5008 10.75 16.15 10.1008 16.15 9.29998C16.15 8.49916 15.5008 7.84998 14.7 7.84998ZM8 12.6035C7.16764 12.8389 6.49571 13.4565 6.18567 14.2546C6.22741 14.2516 6.26972 14.25 6.3125 14.25H8V12.6035ZM10 12.5V14.25H11V12.5H10ZM10 16.25H11V18H10V16.25ZM13 16.25V18H14V16.25H13ZM16 16.25V17.8965C16.8324 17.6611 17.5043 17.0435 17.8143 16.2454C17.7726 16.2484 17.7303 16.25 17.6875 16.25H16ZM16 14.25V12.6035C16.8324 12.8389 17.5043 13.4565 17.8143 14.2546C17.7726 14.2516 17.7303 14.25 17.6875 14.25H16ZM14 12.5V14.25H13V12.5H14ZM8 16.25H6.3125C6.26972 16.25 6.22741 16.2484 6.18567 16.2454C6.49571 17.0435 7.16764 17.6611 8 17.8965V16.25Z" fill="#0000CC"/>
</svg>
