<svg width="24" height="24" viewBox="0 0 24 24" fill="none" xmlns="http://www.w3.org/2000/svg">
<path fill-rule="evenodd" clip-rule="evenodd" d="M2 12C2 6.47715 6.47715 2 12 2C17.5228 2 22 6.47715 22 12C22 17.5228 17.5228 22 12 22C6.47715 22 2 17.5228 2 12ZM12 12C10.067 12 8.5 13.567 8.5 15.5C8.5 17.433 10.067 19 12 19C13.933 19 15.5 17.433 15.5 15.5C15.5 13.567 13.933 12 12 12ZM7.85156 9.3501C7.85156 8.52167 8.52314 7.8501 9.35156 7.8501C10.18 7.8501 10.8516 8.52167 10.8516 9.3501C10.8516 10.1785 10.18 10.8501 9.35156 10.8501C8.52313 10.8501 7.85156 10.1785 7.85156 9.3501ZM13.25 9.3001C13.25 8.49928 13.8992 7.8501 14.7 7.8501C15.5008 7.8501 16.15 8.49928 16.15 9.3001C16.15 10.1009 15.5008 10.7501 14.7 10.7501C13.8992 10.7501 13.25 10.1009 13.25 9.3001Z" fill="#0000CC"/>
</svg>
