<svg width="24" height="24" viewBox="0 0 24 24" fill="none" xmlns="http://www.w3.org/2000/svg">
<path fill-rule="evenodd" clip-rule="evenodd" d="M2 12C2 6.47715 6.47715 2 12 2C17.5228 2 22 6.47715 22 12C22 17.5228 17.5228 22 12 22C6.47715 22 2 17.5228 2 12ZM10.3333 7.28415C10.8541 7.1001 11.127 6.52878 10.9429 6.00806C10.7589 5.48735 10.1876 5.21442 9.66685 5.39847C8.16152 5.93052 6.8946 6.96123 6.06245 8.29104C5.76948 8.75922 5.91152 9.37625 6.37969 9.66921C6.84787 9.96218 7.46489 9.82015 7.75786 9.35197C8.3536 8.39995 9.26048 7.66335 10.3333 7.28415ZM13.0571 6.00806C12.873 6.52878 13.1459 7.1001 13.6667 7.28415C14.7395 7.66335 15.6464 8.39995 16.2421 9.35197C16.5351 9.82015 17.1521 9.96218 17.6203 9.66921C18.0885 9.37625 18.2305 8.75922 17.9376 8.29104C17.1054 6.96123 15.8385 5.93052 14.3332 5.39847C13.8124 5.21442 13.2411 5.48735 13.0571 6.00806ZM14.5847 11.1887C14.8726 11.3962 15.1833 11.5 15.5 11.5C15.8167 11.5 16.1274 11.3962 16.4153 11.1887C16.8634 10.8658 17.4884 10.9673 17.8113 11.4153C18.1342 11.8634 18.0327 12.4884 17.5847 12.8113C16.99 13.2398 16.2762 13.5 15.5 13.5C14.7238 13.5 14.01 13.2398 13.4153 12.8113C12.9673 12.4884 12.8658 11.8634 13.1887 11.4153C13.5116 10.9673 14.1366 10.8658 14.5847 11.1887ZM8.5 11.5C8.18334 11.5 7.87256 11.3962 7.58466 11.1887C7.1366 10.8658 6.51162 10.9673 6.18872 11.4153C5.86582 11.8634 5.96728 12.4884 6.41534 12.8113C7.00996 13.2398 7.7238 13.5 8.5 13.5C9.2762 13.5 9.99004 13.2398 10.5847 12.8113C11.0327 12.4884 11.1342 11.8634 10.8113 11.4153C10.4884 10.9673 9.8634 10.8658 9.41534 11.1887C9.12744 11.3962 8.81666 11.5 8.5 11.5ZM9.66384 16.2521C9.2508 15.8855 8.61875 15.9231 8.25212 16.3362C7.8855 16.7492 7.92312 17.3812 8.33616 17.7479C9.23854 18.5489 10.5803 19 12 19C13.4197 19 14.7615 18.5489 15.6638 17.7479C16.0769 17.3812 16.1145 16.7492 15.7479 16.3362C15.3812 15.9231 14.7492 15.8855 14.3362 16.2521C13.8704 16.6656 13.0338 17 12 17C10.9662 17 10.1296 16.6656 9.66384 16.2521Z" fill="#0000CC"/>
</svg>
