<svg width="24" height="24" viewBox="0 0 24 24" fill="none" xmlns="http://www.w3.org/2000/svg">
<path fill-rule="evenodd" clip-rule="evenodd" d="M12 22C17.5228 22 22 17.5228 22 12C22 6.47715 17.5228 2 12 2C6.47715 2 2 6.47715 2 12C2 17.5228 6.47715 22 12 22ZM7 9C6.44772 9 6 9.44772 6 10C6 10.5523 6.44772 11 7 11H10C10.5523 11 11 10.5523 11 10C11 9.44772 10.5523 9 10 9H7ZM13 10C13 9.44772 13.4477 9 14 9H17C17.5523 9 18 9.44772 18 10C18 10.5523 17.5523 11 17 11H14C13.4477 11 13 10.5523 13 10ZM8 15C7.44772 15 7 15.4477 7 16C7 16.5523 7.44772 17 8 17H16C16.5523 17 17 16.5523 17 16C17 15.4477 16.5523 15 16 15H8Z" fill="#0000CC"/>
</svg>
