<svg width="24" height="24" viewBox="0 0 24 24" fill="none" xmlns="http://www.w3.org/2000/svg">
<path d="M7 2H3C2.44772 2 2 2.44772 2 3V6.5H7V2Z" fill="#0000CC"/>
<path d="M2 8.5V11H11V8.5H2Z" fill="#0000CC"/>
<path d="M2 13V15.5H7V13H2Z" fill="#0000CC"/>
<path d="M2 17.5V21C2 21.5523 2.44772 22 3 22H11V17.5H2Z" fill="#0000CC"/>
<path d="M13 22H21C21.5523 22 22 21.5523 22 21V17.5H13V22Z" fill="#0000CC"/>
<path d="M22 15.5V13H17V15.5H22Z" fill="#0000CC"/>
<path d="M22 11V8.5H13V11H22Z" fill="#0000CC"/>
<path d="M22 6.5V3C22 2.44772 21.5523 2 21 2H17V6.5H22Z" fill="#0000CC"/>
<path d="M15 2H9V6.5H15V2Z" fill="#0000CC"/>
<path d="M9 13H15V15.5H9V13Z" fill="#0000CC"/>
</svg>
