<svg width="24" height="24" viewBox="0 0 24 24" fill="none" xmlns="http://www.w3.org/2000/svg">
<path d="M16 3C16 3.55228 16.4477 4 17 4H18.5858L8.0858 14.5H5.50001C5.2348 14.5 4.98044 14.6054 4.79291 14.7929L2.29291 17.2929C2.06561 17.5202 1.96144 17.8429 2.01292 18.1602C2.06441 18.4775 2.26529 18.7507 2.5528 18.8944L4.25466 19.7454L5.10558 21.4472C5.24934 21.7347 5.52254 21.9356 5.83983 21.9871C6.15712 22.0386 6.47982 21.9344 6.70712 21.7071L9.20712 19.2071C9.39466 19.0196 9.50001 18.7652 9.50001 18.5V15.9142L20 5.41421V7C20 7.55228 20.4477 8 21 8C21.5523 8 22 7.55228 22 7V3C22 2.44772 21.5523 2 21 2H17C16.4477 2 16 2.44772 16 3Z" fill="#0000CC"/>
<path d="M3.30366 6.71787C3.297 6.71139 3.29042 6.7048 3.28391 6.69811L2.29291 5.70711C1.90238 5.31658 1.90238 4.68342 2.29291 4.29289C2.68343 3.90237 3.31659 3.90237 3.70712 4.29289L4.10834 4.69412C7.41979 2.54759 11.927 2.47244 15.5085 4.58763C15.9841 4.86847 16.1419 5.48165 15.8611 5.9572C15.5802 6.43274 14.967 6.59057 14.4915 6.30972C11.6655 4.64071 8.17761 4.65282 5.56324 6.14901L9.70712 10.2929C10.0976 10.6834 10.0976 11.3166 9.70712 11.7071C9.31659 12.0976 8.68343 12.0976 8.29291 11.7071L3.30366 6.71787Z" fill="#0000CC"/>
<path d="M19.4196 8.48771C19.1366 8.0134 18.5228 7.85826 18.0485 8.14119C17.5741 8.42412 17.419 9.03798 17.7019 9.51229C19.3981 12.3558 19.3953 15.8399 17.8621 18.4478L13.7071 14.2929C13.3166 13.9024 12.6834 13.9024 12.2929 14.2929C11.9024 14.6834 11.9024 15.3166 12.2929 15.7071L18.2929 21.7071C18.6834 22.0976 19.3166 22.0976 19.7071 21.7071C20.0976 21.3166 20.0976 20.6834 19.7071 20.2929L19.3134 19.8991C21.5092 16.5835 21.5609 12.0775 19.4196 8.48771Z" fill="#0000CC"/>
</svg>
