<svg width="24" height="24" viewBox="0 0 24 24" fill="none" xmlns="http://www.w3.org/2000/svg">
<path fill-rule="evenodd" clip-rule="evenodd" d="M5 2C4.44772 2 4 2.44772 4 3V21C4 21.5523 4.44772 22 5 22H19C19.5523 22 20 21.5523 20 21V3C20 2.44772 19.5523 2 19 2H5ZM11.9998 6C10.3999 6 9.05169 7.07284 8.6337 8.53874C7.65304 9.15796 7 10.2518 7 11.4999C7 13.433 8.56699 15 10.5 15C10.6697 15 10.8366 14.9879 11 14.9644V16H10C9.44772 16 9 16.4477 9 17C9 17.5523 9.44772 18 10 18H14C14.5523 18 15 17.5523 15 17C15 16.4477 14.5523 16 14 16H13V14.9644C13.1634 14.9879 13.3303 15 13.5 15C15.433 15 17 13.433 17 11.4999C17 10.2516 16.3465 9.15785 15.3659 8.53873C14.9479 7.07284 13.5997 6 11.9998 6Z" fill="#0000CC"/>
</svg>
