<svg width="24" height="24" viewBox="0 0 24 24" fill="none" xmlns="http://www.w3.org/2000/svg">
<path d="M14 4C13.4477 4 13 4.44772 13 5C13 5.55228 13.4477 6 14 6H18C18.5523 6 19 5.55228 19 5C19 4.44772 18.5523 4 18 4H14Z" fill="#0000CC"/>
<path fill-rule="evenodd" clip-rule="evenodd" d="M6 3C5.44772 3 5 3.44772 5 4C5 4.55228 5.44772 5 6 5H7V7H3C2.44772 7 2 7.44772 2 8V20C2 20.5523 2.44772 21 3 21H21C21.5523 21 22 20.5523 22 20V8C22 7.44772 21.5523 7 21 7H9V5H10C10.5523 5 11 4.55228 11 4C11 3.44772 10.5523 3 10 3H6ZM8 11C6.34315 11 5 12.3431 5 14C5 15.6569 6.34315 17 8 17C9.65685 17 11 15.6569 11 14C11 12.3431 9.65685 11 8 11ZM13 14C13 12.3431 14.3431 11 16 11C17.6569 11 19 12.3431 19 14C19 15.6569 17.6569 17 16 17C14.3431 17 13 15.6569 13 14Z" fill="#0000CC"/>
</svg>
