<svg width="24" height="24" viewBox="0 0 24 24" fill="none" xmlns="http://www.w3.org/2000/svg">
<path fill-rule="evenodd" clip-rule="evenodd" d="M3.00001 11C3.00001 6.02944 7.02944 2 12 2C16.9706 2 21 6.02944 21 11C21 11.686 20.9231 12.3552 20.777 12.9991C20.6694 13.4731 20.5245 13.9329 20.3454 14.3752C20.1926 14.7529 19.8259 15 19.4185 15H4.58152C4.17412 15 3.80745 14.7529 3.65459 14.3752C3.47553 13.9329 3.33059 13.4731 3.22304 12.9991C3.07693 12.3552 3.00001 11.686 3.00001 11ZM10 7C10 6.44772 9.55228 6 9 6C8.44772 6 8 6.44772 8 7C7.44772 7 7 7.44772 7 8C7 8.55228 7.44772 9 8 9C8 9.55228 8.44772 10 9 10C9.55228 10 10 9.55228 10 9C10.5523 9 11 8.55228 11 8C11 7.44772 10.5523 7 10 7ZM16 7C16 6.44772 15.5523 6 15 6C14.4477 6 14 6.44772 14 7V8H13C12.4477 8 12 8.44772 12 9C12 9.55228 12.4477 10 13 10H14V11C14 11.5523 14.4477 12 15 12C15.5523 12 16 11.5523 16 11V10H17C17.5523 10 18 9.55228 18 9C18 8.44772 17.5523 8 17 8H16V7Z" fill="#0000CC"/>
<path d="M3.05132 17.6838C3.18744 17.2754 3.56958 17 4.00001 17H20C20.4304 17 20.8126 17.2754 20.9487 17.6838L21.9487 20.6838C22.0503 20.9887 21.9992 21.3239 21.8113 21.5847C21.6233 21.8455 21.3215 22 21 22H3.00001C2.67856 22 2.37672 21.8455 2.18877 21.5847C2.00081 21.3239 1.94967 20.9887 2.05132 20.6838L3.05132 17.6838Z" fill="#0000CC"/>
</svg>
