<svg width="24" height="24" viewBox="0 0 24 24" fill="none" xmlns="http://www.w3.org/2000/svg">
<path d="M9.08846 2.13397C9.24048 2.04621 9.41292 2 9.58846 2H14.4115C14.5871 2 14.7595 2.04621 14.9115 2.13397L17.6586 3.72C18.0497 3.94578 17.9648 4.53325 17.5258 4.63908L12.1165 5.94326C12.0394 5.96183 11.9591 5.96183 11.8821 5.94326L6.47377 4.63933C6.03479 4.53349 5.9499 3.94602 6.34096 3.72024L9.08846 2.13397Z" fill="#0000CC"/>
<path d="M3.0549 8.25198C2.88961 8.09254 2.85419 7.84101 2.96902 7.64212L3.68957 6.39409C3.80038 6.20216 4.02432 6.10608 4.23977 6.15802L10.6172 7.6956C10.8418 7.74975 11 7.95068 11 8.18168V11.1528C11 11.3281 10.9082 11.4905 10.7582 11.581L8.47035 12.9603C8.27639 13.0773 8.02806 13.0492 7.86506 12.892L3.0549 8.25198Z" fill="#0000CC"/>
<path d="M2.84713 10.8304C2.52964 10.5242 2 10.7491 2 11.1903V14.4115C2 14.5871 2.04621 14.7595 2.13397 14.9115L4.54552 19.0885C4.63329 19.2405 4.75952 19.3667 4.91154 19.4545L7.70768 21.0688C8.08821 21.2885 8.54674 20.9458 8.44375 20.5186L7.13025 15.0707C7.10796 14.9782 7.05976 14.894 6.99131 14.828L2.84713 10.8304Z" fill="#0000CC"/>
<path d="M13.2327 21.6172C13.1786 21.8418 12.9776 22 12.7466 22L11.252 22C11.021 22 10.8201 21.8418 10.7659 21.6172L9.22978 15.2458C9.17866 15.0338 9.2709 14.813 9.4577 14.7004L11.7418 13.3233C11.9006 13.2276 12.0994 13.2276 12.2582 13.3233L14.5411 14.6997C14.7279 14.8123 14.8201 15.033 14.769 15.2451L13.2327 21.6172Z" fill="#0000CC"/>
<path d="M15.5546 20.5196C15.4517 20.9467 15.9102 21.2895 16.2907 21.0698L19.0885 19.4545C19.2405 19.3667 19.3667 19.2405 19.4545 19.0885L21.866 14.9115C21.9538 14.7595 22 14.5871 22 14.4115V11.1903C22 10.7491 21.4704 10.5242 21.1529 10.8304L17.0069 14.8297C16.9384 14.8958 16.8902 14.98 16.8679 15.0724L15.5546 20.5196Z" fill="#0000CC"/>
<path d="M19.7601 6.15772C19.9755 6.10577 20.1994 6.20186 20.3103 6.39379L21.031 7.64212C21.1458 7.84101 21.1104 8.09254 20.9451 8.25198L16.1349 12.892C15.9719 13.0492 15.7236 13.0773 15.5297 12.9603L13.2418 11.581C13.0918 11.4905 13 11.3281 13 11.1528V8.18132C13 7.95033 13.1582 7.74939 13.3828 7.69525L19.7601 6.15772Z" fill="#0000CC"/>
</svg>
