<svg width="24" height="24" viewBox="0 0 24 24" fill="none" xmlns="http://www.w3.org/2000/svg">
<path d="M11 4.16669C11 3.68619 10.3883 3.48229 10.1 3.86669L2.20001 14.4C2.0351 14.6199 1.96796 14.898 2.01436 15.1689C2.06076 15.4398 2.21662 15.6796 2.44531 15.8321L10.2226 21.017C10.5549 21.2385 11 21.0003 11 20.6009V4.16669Z" fill="#0000CC"/>
<path d="M13 20.601C13 21.0003 13.4451 21.2385 13.7774 21.017L21.5547 15.8321C21.7834 15.6796 21.9392 15.4398 21.9857 15.1689C22.0321 14.898 21.9649 14.6199 21.8 14.4L13.9 3.86668C13.6117 3.48227 13 3.68617 13 4.16668V20.601Z" fill="#0000CC"/>
</svg>
