<svg width="24" height="24" viewBox="0 0 24 24" fill="none" xmlns="http://www.w3.org/2000/svg">
<path d="M2.70307 7.96235C2.37243 7.8154 2 8.05743 2 8.41925V17C2 17.3952 2.23273 17.7533 2.59386 17.9138L10.2969 21.3374C10.6276 21.4844 11 21.2423 11 20.8805V11.9748C11 11.7772 10.8836 11.5982 10.7031 11.5179L2.70307 7.96235Z" fill="#0000CC"/>
<path d="M13 20.8805C13 21.2423 13.3724 21.4844 13.7031 21.3374L21.4061 17.9138C21.7673 17.7533 22 17.3952 22 17V8.41925C22 8.05743 21.6276 7.8154 21.2969 7.96235L13.2969 11.5179C13.1164 11.5982 13 11.7772 13 11.9748V20.8805Z" fill="#0000CC"/>
<path d="M19.972 6.36259C20.3679 6.18663 20.3679 5.62474 19.972 5.44878L12.4061 2.08619C12.1476 1.97127 11.8524 1.97127 11.5939 2.08619L4.02804 5.44878C3.63213 5.62474 3.63213 6.18663 4.02804 6.36259L11.7969 9.81543C11.9262 9.87289 12.0738 9.87289 12.2031 9.81543L19.972 6.36259Z" fill="#0000CC"/>
</svg>
