<svg width="24" height="24" viewBox="0 0 24 24" fill="none" xmlns="http://www.w3.org/2000/svg">
<path d="M10.9648 2.22841C11.6241 1.92386 12.3762 1.92386 13.0356 2.22841C13.9835 2.66627 15.2681 3.4183 16.3692 4.16989C16.922 4.54717 17.4473 4.93705 17.8716 5.30039C18.2358 5.61229 18.6415 5.99919 18.862 6.4005C20.001 8.14845 20.0006 9.91022 20.0002 11.5965L20.0002 11.6905C20.0002 13.4363 20.0046 15.2843 20.9295 17.6114C21.1209 18.093 20.9126 18.641 20.4497 18.874L15.7248 21.2516C15.3922 21.419 15 21.1773 15 20.805V15C16.1046 15 17 14.1046 17 13V12C17 10.3431 15.6569 9 14 9H10C8.34315 9 7 10.3431 7 12V13C7 14.1046 7.89543 15 9 15V20.8048C9 21.1771 8.60777 21.4188 8.27524 21.2515L3.55067 18.874C3.08773 18.641 2.87948 18.093 3.07089 17.6114C3.99575 15.2843 4.00018 13.4363 4.00018 11.6905L4.00017 11.5965C3.99977 9.91023 3.99936 8.14845 5.13838 6.4005C5.35889 5.99919 5.76454 5.61229 6.12878 5.30039C6.55311 4.93705 7.07838 4.54717 7.63112 4.16989C8.73224 3.4183 10.0168 2.66627 10.9648 2.22841Z" fill="#0000CC"/>
</svg>
