<svg width="24" height="24" viewBox="0 0 24 24" fill="none" xmlns="http://www.w3.org/2000/svg">
<path d="M18 2C15.7909 2 14 3.79086 14 6C14 8.20914 15.7909 10 18 10C20.2091 10 22 8.20914 22 6C22 3.79086 20.2091 2 18 2Z" fill="#0000CC"/>
<path d="M3.42938 9.26485C5.28125 7.57838 8.24843 7.57838 10.1003 9.26485C10.6921 9.8038 12.2575 11.483 13.8972 13.3406C15.5455 15.2078 17.3371 17.3327 18.3793 18.7835C18.9466 19.5733 18.8032 20.611 18.1624 21.2518C17.6053 21.8089 16.7637 21.9873 16.0213 21.6713L9.43398 18.7685L5.77374 17.0108L4.39078 16.258L3.42938 15.5923C1.52354 13.8567 1.52354 11.0005 3.42938 9.26485Z" fill="#0000CC"/>
</svg>
