<svg width="24" height="24" viewBox="0 0 24 24" fill="none" xmlns="http://www.w3.org/2000/svg">
<path d="M18.9995 10V8H16C15.4477 8 15 7.55228 15 7C15 6.44772 15.4477 6 16 6H18.9995C18.9995 3.79086 17.2086 2 14.9995 2H6.9375C8.16721 2.68236 8.9995 3.99399 8.9995 5.5V12H10C10.5523 12 11 12.4477 11 13C11 13.5523 10.5523 14 10 14H8.9995V18.5C8.9995 19.6046 9.89493 20.5 10.9995 20.5C12.1041 20.5 12.9995 19.6046 12.9995 18.5V14C12.9995 13.4477 13.4472 13 13.9995 13H18.9995V12H16C15.4477 12 15 11.5523 15 11C15 10.4477 15.4477 10 16 10H18.9995Z" fill="#0000CC"/>
<path d="M16 15V18C16 18.5523 16.4477 19 17 19C17.5523 19 18 18.5523 18 18V15L21 15C21.5523 15 22 15.4477 22 16V18C22 20.2091 20.2091 22 18 22H13.3238C13.2206 22 13.1807 21.8551 13.2657 21.7965C14.313 21.0752 14.9995 19.8678 14.9995 18.5L14.9999 15.4999C15 15.2238 15.2238 15 15.4999 15L16 15Z" fill="#0000CC"/>
<path d="M7 9.99996H3C2.44772 9.99996 2 9.55224 2 8.99996V5.5C2 4.11929 3.11929 3 4.5 3C5.88071 3 7 4.11929 7 5.5V9.99996Z" fill="#0000CC"/>
</svg>
