<svg width="24" height="24" viewBox="0 0 24 24" fill="none" xmlns="http://www.w3.org/2000/svg">
<path d="M18.9995 13V6C18.9995 3.79086 17.2086 2 14.9995 2H6.9375C8.16721 2.68236 8.9995 3.99399 8.9995 5.5V18.5C8.9995 19.6046 9.89493 20.5 10.9995 20.5C12.1041 20.5 12.9995 19.6046 12.9995 18.5V14C12.9995 13.4477 13.4472 13 13.9995 13H18.9995Z" fill="#0000CC"/>
<path d="M7 9.99996H3C2.44772 9.99996 2 9.55224 2 8.99996V5.5C2 4.11929 3.11929 3 4.5 3C5.88071 3 7 4.11929 7 5.5V9.99996Z" fill="#0000CC"/>
<path d="M22 16V18C22 20.2091 20.2091 22 18 22H13.3238C13.2206 22 13.1807 21.8551 13.2657 21.7965C14.313 21.0752 14.9995 19.8678 14.9995 18.5L14.9999 15.4999C15 15.2238 15.2238 15 15.4999 15L21 15C21.5523 15 22 15.4477 22 16Z" fill="#0000CC"/>
</svg>
