<svg width="24" height="24" viewBox="0 0 24 24" fill="none" xmlns="http://www.w3.org/2000/svg">
<path opacity="0.14" fill-rule="evenodd" clip-rule="evenodd" d="M21 12C21 16.9706 16.9706 21 12 21C7.02944 21 3 16.9706 3 12C3 7.02944 7.02944 3 12 3C16.9706 3 21 7.02944 21 12Z" fill="#0000CC"/>
<path d="M16.5 14L17.4285 13.6286C17.2766 13.249 16.9089 13 16.5 13C16.0911 13 15.7234 13.249 15.5715 13.6286L16.5 14ZM17.41 16.2751L18.3385 15.9037L17.41 16.2751ZM15.59 16.2751L14.6615 15.9037L15.59 16.2751ZM19.3729 15.1108C19.158 15.6195 19.3962 16.2062 19.9049 16.4212C20.4136 16.6361 21.0003 16.3979 21.2152 15.8892L19.3729 15.1108ZM14.2213 21.7522C14.7599 21.63 15.0974 21.0943 14.9752 20.5557C14.853 20.0171 14.3173 19.6796 13.7787 19.8018L14.2213 21.7522ZM12.0004 18C12.5527 18 13.0004 17.5523 13.0004 17C13.0004 16.4477 12.5527 16 12.0004 16V18ZM8.79957 14.3994C8.46788 13.9578 7.84101 13.8687 7.39942 14.2004C6.95783 14.5321 6.86874 15.159 7.20043 15.6006L8.79957 14.3994ZM9.30078 9.30005C8.7485 9.30005 8.30078 9.74776 8.30078 10.3C8.30078 10.8523 8.7485 11.3 9.30078 11.3V9.30005ZM9.30978 11.3C9.86207 11.3 10.3098 10.8523 10.3098 10.3C10.3098 9.74776 9.86207 9.30005 9.30978 9.30005V11.3ZM14.6914 9.30005C14.1391 9.30005 13.6914 9.74776 13.6914 10.3C13.6914 10.8523 14.1391 11.3 14.6914 11.3V9.30005ZM14.7004 11.3C15.2527 11.3 15.7004 10.8523 15.7004 10.3C15.7004 9.74776 15.2527 9.30005 14.7004 9.30005V11.3ZM16.5 16.7422V17H18.5V16.7422H16.5ZM16.5 17V16.7422H14.5V17H16.5ZM16.5184 16.6465L17.4285 14.3714L15.5715 13.6286L14.6615 15.9037L16.5184 16.6465ZM15.5715 14.3714L16.4816 16.6465L18.3385 15.9037L17.4285 13.6286L15.5715 14.3714ZM16.5 17H14.5C14.5 18.1046 15.3954 19 16.5 19V17ZM16.5 17V19C17.6046 19 18.5 18.1046 18.5 17H16.5ZM18.5 16.7422C18.5 16.455 18.4452 16.1704 18.3385 15.9037L16.4816 16.6465C16.4937 16.6769 16.5 16.7094 16.5 16.7422H18.5ZM16.5 16.7422C16.5 16.7094 16.5063 16.6769 16.5184 16.6465L14.6615 15.9037C14.5548 16.1704 14.5 16.455 14.5 16.7422H16.5ZM12 20C7.58172 20 4 16.4183 4 12H2C2 17.5228 6.47715 22 12 22V20ZM4 12C4 7.58172 7.58172 4 12 4V2C6.47715 2 2 6.47715 2 12H4ZM12 4C16.4183 4 20 7.58172 20 12H22C22 6.47715 17.5228 2 12 2V4ZM20 12C20 13.1053 19.7764 14.1559 19.3729 15.1108L21.2152 15.8892C21.7209 14.6924 22 13.3775 22 12H20ZM13.7787 19.8018C13.2076 19.9314 12.6124 20 12 20V22C12.7623 22 13.5059 21.9145 14.2213 21.7522L13.7787 19.8018ZM12.0004 16C10.6924 16 9.53103 15.3732 8.79957 14.3994L7.20043 15.6006C8.29339 17.0557 10.0367 18 12.0004 18V16ZM8.85156 10.35C8.85156 10.0738 9.07542 9.84998 9.35156 9.84998V11.85C10.18 11.85 10.8516 11.1784 10.8516 10.35H8.85156ZM9.35156 9.84998C9.62771 9.84998 9.85156 10.0738 9.85156 10.35H7.85156C7.85156 11.1784 8.52313 11.85 9.35156 11.85V9.84998ZM9.85156 10.35C9.85156 10.6261 9.6277 10.85 9.35156 10.85V8.84998C8.52313 8.84998 7.85156 9.52155 7.85156 10.35H9.85156ZM9.35156 10.85C9.07542 10.85 8.85156 10.6261 8.85156 10.35H10.8516C10.8516 9.52155 10.18 8.84998 9.35156 8.84998V10.85ZM9.30078 11.3H9.30978V9.30005H9.30078V11.3ZM14.15 10.3C14.15 9.99622 14.3962 9.74998 14.7 9.74998V11.75C15.5008 11.75 16.15 11.1008 16.15 10.3H14.15ZM14.7 9.74998C15.0038 9.74998 15.25 9.99622 15.25 10.3H13.25C13.25 11.1008 13.8992 11.75 14.7 11.75V9.74998ZM15.25 10.3C15.25 10.6037 15.0038 10.85 14.7 10.85V8.84998C13.8992 8.84998 13.25 9.49916 13.25 10.3H15.25ZM14.7 10.85C14.3962 10.85 14.15 10.6037 14.15 10.3H16.15C16.15 9.49916 15.5008 8.84998 14.7 8.84998V10.85ZM14.6914 11.3H14.7004V9.30005H14.6914V11.3Z" fill="#0000CC"/>
</svg>
