<svg width="24" height="24" viewBox="0 0 24 24" fill="none" xmlns="http://www.w3.org/2000/svg">
<path opacity="0.14" fill-rule="evenodd" clip-rule="evenodd" d="M12 21C16.9706 21 21 16.9706 21 12C21 7.02944 16.9706 3 12 3C7.02944 3 3 7.02944 3 12C3 16.9706 7.02944 21 12 21ZM12 18C13.3807 18 14.5 16.8807 14.5 15.5C14.5 14.1193 13.3807 13 12 13C10.6193 13 9.5 14.1193 9.5 15.5C9.5 16.8807 10.6193 18 12 18Z" fill="#0000CC"/>
<path d="M7.70711 7.29289C7.31658 6.90237 6.68342 6.90237 6.29289 7.29289C5.90237 7.68342 5.90237 8.31658 6.29289 8.70711L7.70711 7.29289ZM9.29289 11.7071C9.68342 12.0976 10.3166 12.0976 10.7071 11.7071C11.0976 11.3166 11.0976 10.6834 10.7071 10.2929L9.29289 11.7071ZM14.7071 7.29289C14.3166 6.90237 13.6834 6.90237 13.2929 7.29289C12.9024 7.68342 12.9024 8.31658 13.2929 8.70711L14.7071 7.29289ZM16.2929 11.7071C16.6834 12.0976 17.3166 12.0976 17.7071 11.7071C18.0976 11.3166 18.0976 10.6834 17.7071 10.2929L16.2929 11.7071ZM10.7071 8.70711C11.0976 8.31658 11.0976 7.68342 10.7071 7.29289C10.3166 6.90237 9.68342 6.90237 9.29289 7.29289L10.7071 8.70711ZM6.29289 10.2929C5.90237 10.6834 5.90237 11.3166 6.29289 11.7071C6.68342 12.0976 7.31658 12.0976 7.70711 11.7071L6.29289 10.2929ZM17.7071 8.70711C18.0976 8.31658 18.0976 7.68342 17.7071 7.29289C17.3166 6.90237 16.6834 6.90237 16.2929 7.29289L17.7071 8.70711ZM13.2929 10.2929C12.9024 10.6834 12.9024 11.3166 13.2929 11.7071C13.6834 12.0976 14.3166 12.0976 14.7071 11.7071L13.2929 10.2929ZM20 12C20 16.4183 16.4183 20 12 20V22C17.5228 22 22 17.5228 22 12H20ZM12 20C7.58172 20 4 16.4183 4 12H2C2 17.5228 6.47715 22 12 22V20ZM4 12C4 7.58172 7.58172 4 12 4V2C6.47715 2 2 6.47715 2 12H4ZM12 4C16.4183 4 20 7.58172 20 12H22C22 6.47715 17.5228 2 12 2V4ZM6.29289 8.70711L9.29289 11.7071L10.7071 10.2929L7.70711 7.29289L6.29289 8.70711ZM13.2929 8.70711L16.2929 11.7071L17.7071 10.2929L14.7071 7.29289L13.2929 8.70711ZM9.29289 7.29289L6.29289 10.2929L7.70711 11.7071L10.7071 8.70711L9.29289 7.29289ZM16.2929 7.29289L13.2929 10.2929L14.7071 11.7071L17.7071 8.70711L16.2929 7.29289ZM13.5 15.5C13.5 16.3284 12.8284 17 12 17V19C13.933 19 15.5 17.433 15.5 15.5H13.5ZM12 17C11.1716 17 10.5 16.3284 10.5 15.5H8.5C8.5 17.433 10.067 19 12 19V17ZM10.5 15.5C10.5 14.6716 11.1716 14 12 14V12C10.067 12 8.5 13.567 8.5 15.5H10.5ZM12 14C12.8284 14 13.5 14.6716 13.5 15.5H15.5C15.5 13.567 13.933 12 12 12V14Z" fill="#0000CC"/>
</svg>
