<svg width="24" height="24" viewBox="0 0 24 24" fill="none" xmlns="http://www.w3.org/2000/svg">
<path opacity="0.14" fill-rule="evenodd" clip-rule="evenodd" d="M12 21C16.9706 21 21 16.9706 21 12C21 7.02944 16.9706 3 12 3C7.02944 3 3 7.02944 3 12C3 16.9706 7.02944 21 12 21ZM11.9072 13C9.99314 13 8.37037 14.4074 8.09968 16.3022C8.05178 16.6375 8.35618 16.9188 8.68813 16.8515C9.5229 16.6822 10.9488 16.4286 12 16.4286C13.0512 16.4286 14.4771 16.6822 15.3119 16.8515C15.6438 16.9188 15.9482 16.6375 15.9003 16.3022C15.6296 14.4074 14.0069 13 12.0928 13H11.9072Z" fill="#0000CC"/>
<path d="M9.30078 8.30005C8.7485 8.30005 8.30078 8.74776 8.30078 9.30005C8.30078 9.85233 8.7485 10.3 9.30078 10.3V8.30005ZM9.30978 10.3C9.86207 10.3 10.3098 9.85233 10.3098 9.30005C10.3098 8.74776 9.86207 8.30005 9.30978 8.30005V10.3ZM14.6914 8.30005C14.1391 8.30005 13.6914 8.74776 13.6914 9.30005C13.6914 9.85233 14.1391 10.3 14.6914 10.3V8.30005ZM14.7004 10.3C15.2527 10.3 15.7004 9.85233 15.7004 9.30005C15.7004 8.74776 15.2527 8.30005 14.7004 8.30005V10.3ZM8.09968 16.3022L9.08963 16.4437L8.09968 16.3022ZM8.68813 16.8515L8.48935 15.8715L8.68813 16.8515ZM15.9003 16.3022L16.8903 16.1608L15.9003 16.3022ZM15.3119 16.8515L15.1131 17.8315L15.3119 16.8515ZM20 12C20 16.4183 16.4183 20 12 20V22C17.5228 22 22 17.5228 22 12H20ZM12 20C7.58172 20 4 16.4183 4 12H2C2 17.5228 6.47715 22 12 22V20ZM4 12C4 7.58172 7.58172 4 12 4V2C6.47715 2 2 6.47715 2 12H4ZM12 4C16.4183 4 20 7.58172 20 12H22C22 6.47715 17.5228 2 12 2V4ZM8.75156 9.29998C8.75156 8.99622 8.99781 8.74998 9.30156 8.74998V10.75C10.1024 10.75 10.7516 10.1008 10.7516 9.29998H8.75156ZM9.30156 8.74998C9.60532 8.74998 9.85156 8.99622 9.85156 9.29998H7.85156C7.85156 10.1008 8.50075 10.75 9.30156 10.75V8.74998ZM9.85156 9.29998C9.85156 9.60373 9.60532 9.84998 9.30156 9.84998V7.84998C8.50075 7.84998 7.85156 8.49916 7.85156 9.29998H9.85156ZM9.30156 9.84998C8.99781 9.84998 8.75156 9.60373 8.75156 9.29998H10.7516C10.7516 8.49916 10.1024 7.84998 9.30156 7.84998V9.84998ZM9.30078 10.3H9.30978V8.30005H9.30078V10.3ZM14.15 9.29998C14.15 8.99622 14.3962 8.74998 14.7 8.74998V10.75C15.5008 10.75 16.15 10.1008 16.15 9.29998H14.15ZM14.7 8.74998C15.0038 8.74998 15.25 8.99622 15.25 9.29998H13.25C13.25 10.1008 13.8992 10.75 14.7 10.75V8.74998ZM15.25 9.29998C15.25 9.60373 15.0038 9.84998 14.7 9.84998V7.84998C13.8992 7.84998 13.25 8.49916 13.25 9.29998H15.25ZM14.7 9.84998C14.3962 9.84998 14.15 9.60373 14.15 9.29998H16.15C16.15 8.49916 15.5008 7.84998 14.7 7.84998V9.84998ZM14.6914 10.3H14.7004V8.30005H14.6914V10.3ZM11.9072 14H12.0928V12H11.9072V14ZM15.5107 15.8715C14.6767 15.7023 13.1623 15.4286 12 15.4286V17.4286C12.9402 17.4286 14.2775 17.6621 15.1131 17.8315L15.5107 15.8715ZM12 15.4286C10.8377 15.4286 9.32327 15.7023 8.48935 15.8715L8.8869 17.8315C9.72252 17.6621 11.0598 17.4286 12 17.4286V15.4286ZM7.10973 16.1608C6.9618 17.1963 7.8936 18.033 8.8869 17.8315L8.48935 15.8715C8.81875 15.8046 9.14176 16.0788 9.08963 16.4437L7.10973 16.1608ZM14.9104 16.4437C14.8582 16.0788 15.1812 15.8046 15.5107 15.8715L15.1131 17.8315C16.1064 18.033 17.0382 17.1963 16.8903 16.1608L14.9104 16.4437ZM12.0928 14C13.5092 14 14.7101 15.0415 14.9104 16.4437L16.8903 16.1608C16.5492 13.7734 14.5045 12 12.0928 12V14ZM11.9072 12C9.49549 12 7.4508 13.7734 7.10973 16.1608L9.08963 16.4437C9.28994 15.0415 10.4908 14 11.9072 14V12Z" fill="#0000CC"/>
</svg>
