<svg width="24" height="24" viewBox="0 0 24 24" fill="none" xmlns="http://www.w3.org/2000/svg">
<path opacity="0.14" fill-rule="evenodd" clip-rule="evenodd" d="M12 21C16.9706 21 21 16.9706 21 12C21 7.02944 16.9706 3 12 3C7.02944 3 3 7.02944 3 12C3 16.9706 7.02944 21 12 21ZM17 14C17 16.2091 14.0083 18 12 18C9.99169 18 7 16.2091 7 14C7 14 9.84049 15 12 15C14.1595 15 17 14 17 14Z" fill="#0000CC"/>
<path d="M6.5 10C6.95606 8.78555 7.68217 8 8.5 8C9.31783 8 10.0439 8.78555 10.5 10M13.5 10C13.9561 8.78555 14.6822 8 15.5 8C16.3178 8 17.0439 8.78555 17.5 10M15.4161 3.67095C14.3627 3.23847 13.2092 3 12 3C7.02944 3 3 7.02944 3 12C3 16.9706 7.02944 21 12 21C16.9706 21 21 16.9706 21 12C21 11.1325 20.8773 10.2937 20.6482 9.5M17 14C17 16.2091 14.0083 18 12 18C9.99169 18 7 16.2091 7 14C7 14 9.84049 15 12 15C14.1595 15 17 14 17 14Z" stroke="#0000CC" stroke-width="2" stroke-linecap="round" stroke-linejoin="round"/>
<path d="M18 5.74223C18 5.58221 18.0305 5.42367 18.09 5.2751L19 3L19.91 5.2751C19.9695 5.42367 20 5.58221 20 5.74223V6C20 6.55228 19.5523 7 19 7C18.4477 7 18 6.55228 18 6V5.74223Z" stroke="#0000CC" stroke-width="2" stroke-linejoin="round"/>
</svg>
