<svg width="24" height="24" viewBox="0 0 24 24" fill="none" xmlns="http://www.w3.org/2000/svg">
<path opacity="0.14" d="M21 12C21 16.9706 16.9706 21 12 21C7.02944 21 3 16.9706 3 12C3 7.02944 7.02944 3 12 3C16.9706 3 21 7.02944 21 12Z" fill="#0000CC"/>
<path d="M10.8477 6.87189C11.1407 6.40372 10.9986 5.78669 10.5305 5.49372C10.0623 5.20075 9.44526 5.34278 9.15229 5.81096L10.8477 6.87189ZM6.57682 7.87878C6.0561 8.06283 5.78317 8.63415 5.96722 9.15487C6.15127 9.67559 6.72259 9.94851 7.24331 9.76446L6.57682 7.87878ZM14.8477 5.81096C14.5547 5.34278 13.9377 5.20075 13.4695 5.49372C13.0014 5.78669 12.8593 6.40372 13.1523 6.87189L14.8477 5.81096ZM16.7567 9.76446C17.2774 9.94851 17.8487 9.67559 18.0328 9.15487C18.2168 8.63415 17.9439 8.06283 17.4232 7.87878L16.7567 9.76446ZM14.5847 11.1887C14.1366 10.8658 13.5116 10.9673 13.1887 11.4153C12.8658 11.8634 12.9673 12.4884 13.4153 12.8113L14.5847 11.1887ZM17.5847 12.8113C18.0327 12.4884 18.1342 11.8634 17.8113 11.4153C17.4884 10.9673 16.8634 10.8658 16.4153 11.1887L17.5847 12.8113ZM7.58466 11.1887C7.1366 10.8658 6.51162 10.9673 6.18872 11.4153C5.86582 11.8634 5.96728 12.4884 6.41534 12.8113L7.58466 11.1887ZM10.5847 12.8113C11.0327 12.4884 11.1342 11.8634 10.8113 11.4153C10.4884 10.9673 9.8634 10.8658 9.41534 11.1887L10.5847 12.8113ZM10 16C9.44772 16 9 16.4477 9 17C9 17.5523 9.44772 18 10 18V16ZM14 18C14.5523 18 15 17.5523 15 17C15 16.4477 14.5523 16 14 16V18ZM20 12C20 16.4183 16.4183 20 12 20V22C17.5228 22 22 17.5228 22 12H20ZM12 20C7.58172 20 4 16.4183 4 12H2C2 17.5228 6.47715 22 12 22V20ZM4 12C4 7.58172 7.58172 4 12 4V2C6.47715 2 2 6.47715 2 12H4ZM12 4C16.4183 4 20 7.58172 20 12H22C22 6.47715 17.5228 2 12 2V4ZM9.15229 5.81096C8.55655 6.76298 7.64967 7.49958 6.57682 7.87878L7.24331 9.76446C8.74863 9.23241 10.0156 8.2017 10.8477 6.87189L9.15229 5.81096ZM13.1523 6.87189C13.9844 8.2017 15.2514 9.23241 16.7567 9.76446L17.4232 7.87878C16.3503 7.49958 15.4434 6.76298 14.8477 5.81096L13.1523 6.87189ZM13.4153 12.8113C14.01 13.2398 14.7238 13.5 15.5 13.5V11.5C15.1833 11.5 14.8726 11.3962 14.5847 11.1887L13.4153 12.8113ZM15.5 13.5C16.2762 13.5 16.99 13.2398 17.5847 12.8113L16.4153 11.1887C16.1274 11.3962 15.8167 11.5 15.5 11.5V13.5ZM6.41534 12.8113C7.00996 13.2398 7.7238 13.5 8.5 13.5V11.5C8.18334 11.5 7.87256 11.3962 7.58466 11.1887L6.41534 12.8113ZM8.5 13.5C9.2762 13.5 9.99004 13.2398 10.5847 12.8113L9.41534 11.1887C9.12744 11.3962 8.81666 11.5 8.5 11.5V13.5ZM10 18H14V16H10V18Z" fill="#0000CC"/>
</svg>
