<svg width="24" height="24" viewBox="0 0 24 24" fill="none" xmlns="http://www.w3.org/2000/svg">
<circle opacity="0.14" cx="12" cy="12" r="9" fill="#0000CC"/>
<path d="M6.41534 8.68872C5.96728 9.01162 5.86582 9.6366 6.18872 10.0847C6.51162 10.5327 7.1366 10.6342 7.58466 10.3113L6.41534 8.68872ZM9.41534 10.3113C9.8634 10.6342 10.4884 10.5327 10.8113 10.0847C11.1342 9.6366 11.0327 9.01162 10.5847 8.68872L9.41534 10.3113ZM13.4153 8.68872C12.9673 9.01162 12.8658 9.6366 13.1887 10.0847C13.5116 10.5327 14.1366 10.6342 14.5847 10.3113L13.4153 8.68872ZM16.4153 10.3113C16.8634 10.6342 17.4884 10.5327 17.8113 10.0847C18.1342 9.6366 18.0327 9.01162 17.5847 8.68872L16.4153 10.3113ZM11.5528 17.1056C11.0588 17.3526 10.8586 17.9532 11.1056 18.4472C11.3526 18.9412 11.9532 19.1414 12.4472 18.8944L11.5528 17.1056ZM13 17.5L13.4472 18.3944H13.4472L13 17.5ZM12.4472 13.1056C11.9532 12.8586 11.3526 13.0588 11.1056 13.5528C10.8586 14.0468 11.0588 14.6474 11.5528 14.8944L12.4472 13.1056ZM13 15.5L13.4472 16.3944L13 15.5ZM13 16.5L13.4472 15.6056L13 16.5ZM20 12C20 16.4183 16.4183 20 12 20V22C17.5228 22 22 17.5228 22 12H20ZM12 20C7.58172 20 4 16.4183 4 12H2C2 17.5228 6.47715 22 12 22V20ZM4 12C4 7.58172 7.58172 4 12 4V2C6.47715 2 2 6.47715 2 12H4ZM12 4C16.4183 4 20 7.58172 20 12H22C22 6.47715 17.5228 2 12 2V4ZM7.58466 10.3113C7.87256 10.1038 8.18334 10 8.5 10V8C7.7238 8 7.00996 8.2602 6.41534 8.68872L7.58466 10.3113ZM8.5 10C8.81666 10 9.12744 10.1038 9.41534 10.3113L10.5847 8.68872C9.99004 8.2602 9.2762 8 8.5 8V10ZM14.5847 10.3113C14.8726 10.1038 15.1833 10 15.5 10V8C14.7238 8 14.01 8.2602 13.4153 8.68872L14.5847 10.3113ZM15.5 10C15.8167 10 16.1274 10.1038 16.4153 10.3113L17.5847 8.68872C16.99 8.2602 16.2762 8 15.5 8V10ZM12.4472 18.8944L13.4472 18.3944L12.5528 16.6056L11.5528 17.1056L12.4472 18.8944ZM13.4472 13.6056L12.4472 13.1056L11.5528 14.8944L12.5528 15.3944L13.4472 13.6056ZM13.4472 16.3944C14.5963 15.8199 14.5963 14.1801 13.4472 13.6056L12.5528 15.3944C12.2278 15.2319 12.2278 14.7681 12.5528 14.6056L13.4472 16.3944ZM13.4472 15.6056C13.7722 15.7681 13.7722 16.2319 13.4472 16.3944L12.5528 14.6056C11.4037 15.1801 11.4037 16.8199 12.5528 17.3944L13.4472 15.6056ZM13.4472 18.3944C14.5963 17.8199 14.5963 16.1801 13.4472 15.6056L12.5528 17.3944C12.2278 17.2319 12.2278 16.7681 12.5528 16.6056L13.4472 18.3944Z" fill="#0000CC"/>
</svg>
