<svg width="24" height="24" viewBox="0 0 24 24" fill="none" xmlns="http://www.w3.org/2000/svg">
<path opacity="0.14" fill-rule="evenodd" clip-rule="evenodd" d="M12 21C16.9706 21 21 16.9706 21 12C21 7.02944 16.9706 3 12 3C7.02944 3 3 7.02944 3 12C3 16.9706 7.02944 21 12 21ZM9 13C8.44772 13 8 13.4477 8 14V17C8 17.5523 8.44772 18 9 18H15C15.5523 18 16 17.5523 16 17V14C16 13.4477 15.5523 13 15 13H9Z" fill="#0000CC"/>
<path d="M13.4153 8.68872C12.9673 9.01162 12.8658 9.6366 13.1887 10.0847C13.5116 10.5327 14.1366 10.6342 14.5847 10.3113L13.4153 8.68872ZM16.4153 10.3113C16.8634 10.6342 17.4884 10.5327 17.8113 10.0847C18.1342 9.6366 18.0327 9.01162 17.5847 8.68872L16.4153 10.3113ZM6.41534 8.68872C5.96728 9.01162 5.86582 9.6366 6.18872 10.0847C6.51162 10.5327 7.1366 10.6342 7.58466 10.3113L6.41534 8.68872ZM9.41534 10.3113C9.8634 10.6342 10.4884 10.5327 10.8113 10.0847C11.1342 9.6366 11.0327 9.01162 10.5847 8.68872L9.41534 10.3113ZM4.51555 16C3.96326 16 3.51555 16.4477 3.51555 17C3.51555 17.5523 3.96326 18 4.51555 18V16ZM19.4845 18C20.0367 18 20.4845 17.5523 20.4845 17C20.4845 16.4477 20.0367 16 19.4845 16V18ZM3.40138 10.0619C2.8833 9.87059 2.3082 10.1355 2.11686 10.6535C1.92552 11.1716 2.19039 11.7467 2.70847 11.9381L3.40138 10.0619ZM21.2884 11.9392C21.8071 11.7496 22.0739 11.1753 21.8843 10.6566C21.6946 10.1379 21.1204 9.87116 20.6017 10.0608L21.2884 11.9392ZM10.5 14.5C9.94772 14.5 9.5 14.9477 9.5 15.5C9.5 16.0523 9.94772 16.5 10.5 16.5V14.5ZM13.5 16.5C14.0523 16.5 14.5 16.0523 14.5 15.5C14.5 14.9477 14.0523 14.5 13.5 14.5V16.5ZM15.3259 13.0543L15.0001 13.9998L15.3259 13.0543ZM20 12C20 16.4183 16.4183 20 12 20V22C17.5228 22 22 17.5228 22 12H20ZM12 20C7.58172 20 4 16.4183 4 12H2C2 17.5228 6.47715 22 12 22V20ZM4 12C4 7.58172 7.58172 4 12 4V2C6.47715 2 2 6.47715 2 12H4ZM12 4C16.4183 4 20 7.58172 20 12H22C22 6.47715 17.5228 2 12 2V4ZM14.5847 10.3113C14.8726 10.1038 15.1833 10 15.5 10V8C14.7238 8 14.01 8.2602 13.4153 8.68872L14.5847 10.3113ZM15.5 10C15.8167 10 16.1274 10.1038 16.4153 10.3113L17.5847 8.68872C16.99 8.2602 16.2762 8 15.5 8V10ZM7.58466 10.3113C7.87256 10.1038 8.18334 10 8.5 10V8C7.7238 8 7.00996 8.2602 6.41534 8.68872L7.58466 10.3113ZM8.5 10C8.81666 10 9.12744 10.1038 9.41534 10.3113L10.5847 8.68872C9.99004 8.2602 9.2762 8 8.5 8V10ZM9 14H15V12H9V14ZM15 14V17H17V14H15ZM15 17H9V19H15V17ZM9 17V14H7V17H9ZM9 17H7C7 18.1046 7.89543 19 9 19V17ZM15 17V19C16.1046 19 17 18.1046 17 17H15ZM8 16H4.51555V18H8V16ZM19.4845 16H16V18H19.4845V16ZM10.5 16.5H13.5V14.5H10.5V16.5ZM9 12C8.75206 12 8.51245 12.0456 8.29066 12.1297L9.00007 13.9997L9 14V12ZM8.29066 12.1297C7.53781 12.4153 7 13.1436 7 14H9L9.00007 13.9997L8.29066 12.1297ZM8.99182 12.1266L3.40138 10.0619L2.70847 11.9381L8.29891 14.0028L8.99182 12.1266ZM15 14L15.0001 13.9998L15.6518 12.1089C15.4462 12.038 15.2265 12 15 12V14ZM15.0001 13.9998L15 14H17C17 13.1221 16.435 12.3788 15.6518 12.1089L15.0001 13.9998ZM15.6693 13.9935L21.2884 11.9392L20.6017 10.0608L14.9826 12.1151L15.6693 13.9935Z" fill="#0000CC"/>
</svg>
