<svg width="24" height="24" viewBox="0 0 24 24" fill="none" xmlns="http://www.w3.org/2000/svg">
<path opacity="0.14" d="M21 12C21 16.9706 16.9706 21 12 21C7.02944 21 3 16.9706 3 12C3 7.02944 7.02944 3 12 3C16.9706 3 21 7.02944 21 12Z" fill="#0000CC"/>
<path d="M8.0145 10.6425C7.54092 10.3584 6.92666 10.5119 6.64251 10.9855C6.35836 11.4591 6.51192 12.0733 6.9855 12.3575L8.0145 10.6425ZM10 13L10.5145 13.8575C10.8157 13.6768 11 13.3513 11 13C11 12.6487 10.8157 12.3232 10.5145 12.1425L10 13ZM6.9855 13.6425C6.51192 13.9267 6.35836 14.5409 6.64251 15.0145C6.92666 15.4881 7.54092 15.6416 8.0145 15.3575L6.9855 13.6425ZM17.0145 12.3575C17.4881 12.0733 17.6416 11.4591 17.3575 10.9855C17.0733 10.5119 16.4591 10.3584 15.9855 10.6425L17.0145 12.3575ZM14 13L13.4855 12.1425C13.1843 12.3232 13 12.6487 13 13C13 13.3513 13.1843 13.6768 13.4855 13.8575L14 13ZM15.9855 15.3575C16.4591 15.6416 17.0733 15.4881 17.3575 15.0145C17.6416 14.5409 17.4881 13.9267 17.0145 13.6425L15.9855 15.3575ZM8.33616 17.2521C7.92312 17.6188 7.8855 18.2508 8.25212 18.6638C8.61875 19.0769 9.2508 19.1145 9.66384 18.7479L8.33616 17.2521ZM14.3362 18.7479C14.7492 19.1145 15.3812 19.0769 15.7479 18.6638C16.1145 18.2508 16.0769 17.6188 15.6638 17.2521L14.3362 18.7479ZM14.8476 5.81093C14.5546 5.34275 13.9376 5.20072 13.4694 5.49369C13.0013 5.78666 12.8592 6.40368 13.1522 6.87186L14.8476 5.81093ZM16.7566 9.76443C17.2773 9.94848 17.8486 9.67556 18.0327 9.15484C18.2167 8.63412 17.9438 8.0628 17.4231 7.87875L16.7566 9.76443ZM10.8477 6.87186C11.1407 6.40368 10.9986 5.78666 10.5305 5.49369C10.0623 5.20072 9.44526 5.34275 9.15229 5.81093L10.8477 6.87186ZM6.57682 7.87875C6.0561 8.0628 5.78317 8.63412 5.96722 9.15484C6.15127 9.67556 6.72259 9.94848 7.24331 9.76443L6.57682 7.87875ZM20 12C20 16.4183 16.4183 20 12 20V22C17.5228 22 22 17.5228 22 12H20ZM12 20C7.58172 20 4 16.4183 4 12H2C2 17.5228 6.47715 22 12 22V20ZM4 12C4 7.58172 7.58172 4 12 4V2C6.47715 2 2 6.47715 2 12H4ZM12 4C16.4183 4 20 7.58172 20 12H22C22 6.47715 17.5228 2 12 2V4ZM6.9855 12.3575L9.4855 13.8575L10.5145 12.1425L8.0145 10.6425L6.9855 12.3575ZM9.4855 12.1425L6.9855 13.6425L8.0145 15.3575L10.5145 13.8575L9.4855 12.1425ZM15.9855 10.6425L13.4855 12.1425L14.5145 13.8575L17.0145 12.3575L15.9855 10.6425ZM13.4855 13.8575L15.9855 15.3575L17.0145 13.6425L14.5145 12.1425L13.4855 13.8575ZM12 16C10.5803 16 9.23854 16.4511 8.33616 17.2521L9.66384 18.7479C10.1296 18.3344 10.9662 18 12 18V16ZM15.6638 17.2521C14.7615 16.4511 13.4197 16 12 16V18C13.0338 18 13.8704 18.3344 14.3362 18.7479L15.6638 17.2521ZM13.1522 6.87186C13.9843 8.20167 15.2513 9.23238 16.7566 9.76443L17.4231 7.87875C16.3502 7.49955 15.4434 6.76295 14.8476 5.81093L13.1522 6.87186ZM9.15229 5.81093C8.55655 6.76295 7.64967 7.49955 6.57682 7.87875L7.24331 9.76443C8.74863 9.23238 10.0156 8.20167 10.8477 6.87186L9.15229 5.81093Z" fill="#0000CC"/>
</svg>
