<svg width="24" height="24" viewBox="0 0 24 24" fill="none" xmlns="http://www.w3.org/2000/svg">
<path opacity="0.3" fill-rule="evenodd" clip-rule="evenodd" d="M7.16146 8H16.8385C17.3657 7.99998 17.8205 7.99997 18.195 8.03057C18.5904 8.06287 18.9836 8.13419 19.362 8.32698C19.9265 8.6146 20.3854 9.07354 20.673 9.63803C20.8658 10.0164 20.9371 10.4096 20.9694 10.805C21 11.1795 21 11.6343 21 12.1614V14.6428C21 15.7266 21 16.6008 20.9422 17.3086C20.8826 18.0375 20.7568 18.6777 20.455 19.27C19.9757 20.2108 19.2108 20.9757 18.27 21.455C17.6777 21.7568 17.0375 21.8826 16.3086 21.9422C15.6007 22 14.7266 22 13.6428 22H10.3572C9.27342 22 8.39926 22 7.69138 21.9422C6.96253 21.8826 6.32234 21.7568 5.73005 21.455C4.78924 20.9757 4.02434 20.2108 3.54497 19.27C3.24318 18.6777 3.11737 18.0375 3.05782 17.3086C2.99998 16.6007 2.99999 15.7266 3 14.6428L3 12.1615C2.99998 11.6343 2.99997 11.1795 3.03057 10.805C3.06287 10.4096 3.13419 10.0164 3.32698 9.63803C3.6146 9.07354 4.07354 8.6146 4.63803 8.32698C5.01641 8.13419 5.40963 8.06287 5.80497 8.03057C6.17955 7.99997 6.63431 7.99998 7.16146 8Z" fill="#0000CC"/>
<path fill-rule="evenodd" clip-rule="evenodd" d="M8 6C8 3.79086 9.79086 2 12 2C14.2091 2 16 3.79086 16 6V10.9673C16 11.5196 15.5523 11.9673 15 11.9673C14.4477 11.9673 14 11.5196 14 10.9673V6C14 4.89543 13.1046 4 12 4C10.8954 4 10 4.89543 10 6V11C10 11.5523 9.55228 12 9 12C8.44772 12 8 11.5523 8 11V6Z" fill="#0000CC"/>
</svg>
