<svg width="24" height="24" viewBox="0 0 24 24" fill="none" xmlns="http://www.w3.org/2000/svg">
<path opacity="0.3" fill-rule="evenodd" clip-rule="evenodd" d="M10 2C7.79086 2 6 3.79086 6 6H5.8C4.11984 6 3.27976 6 2.63803 6.32698C2.07354 6.6146 1.6146 7.07354 1.32698 7.63803C1 8.27976 1 9.11984 1 10.8V14.2C1 15.8802 1 16.7202 1.32698 17.362C1.6146 17.9265 2.07354 18.3854 2.63803 18.673C3.16873 18.9434 3.83507 18.9902 5 18.9983V13.8C5 12.1198 5 11.2798 5.32698 10.638C5.6146 10.0735 6.07354 9.6146 6.63803 9.32698C7.27976 9 8.11984 9 9.8 9H18.9712C18.9353 8.41168 18.8545 7.99429 18.673 7.63803C18.3854 7.07354 17.9265 6.6146 17.362 6.32698C16.7202 6 15.8802 6 14.2 6H14C14 3.79086 12.2091 2 10 2ZM12 6C12 4.89543 11.1046 4 10 4C8.89543 4 8 4.89543 8 6H12Z" fill="#0000CC"/>
<path fill-rule="evenodd" clip-rule="evenodd" d="M7.27248 12.365C7 12.8998 7 13.5999 7 15V18C7 19.4001 7 20.1002 7.27248 20.635C7.51217 21.1054 7.89462 21.4878 8.36502 21.7275C8.8998 22 9.59987 22 11 22H19C20.4001 22 21.1002 22 21.635 21.7275C22.1054 21.4878 22.4878 21.1054 22.7275 20.635C23 20.1002 23 19.4001 23 18V15C23 13.5999 23 12.8998 22.7275 12.365C22.4878 11.8946 22.1054 11.5122 21.635 11.2725C21.1002 11 20.4001 11 19 11H11C9.59987 11 8.8998 11 8.36502 11.2725C7.89462 11.5122 7.51217 11.8946 7.27248 12.365ZM13 15C13 14.4477 12.5523 14 12 14C11.4477 14 11 14.4477 11 15C11 17.2091 12.7909 19 15 19C17.2091 19 19 17.2091 19 15C19 14.4477 18.5523 14 18 14C17.4477 14 17 14.4477 17 15C17 16.1046 16.1046 17 15 17C13.8954 17 13 16.1046 13 15Z" fill="#0000CC"/>
</svg>
