<svg width="24" height="24" viewBox="0 0 24 24" fill="none" xmlns="http://www.w3.org/2000/svg">
<path opacity="0.3" fill-rule="evenodd" clip-rule="evenodd" d="M3 9C2.44772 9 2 9.44772 2 10C2 10.5523 2.44772 11 3 11H3.1802L4.51159 17.657C4.59752 18.0867 4.67246 18.4615 4.75824 18.7695C4.84962 19.0977 4.97025 19.4172 5.17966 19.7172C5.4961 20.1705 5.93165 20.5275 6.43822 20.7489C6.77347 20.8955 7.11042 20.9511 7.4501 20.9763C7.769 21 8.15119 21 8.58948 21H15.4105C15.8488 21 16.231 21 16.5499 20.9763C16.8896 20.9511 17.2265 20.8955 17.5618 20.7489C18.0684 20.5275 18.5039 20.1705 18.8203 19.7172C19.0298 19.4172 19.1504 19.0977 19.2418 18.7695C19.3275 18.4615 19.4025 18.0868 19.4884 17.657L20.8198 11H21C21.5523 11 22 10.5523 22 10C22 9.44772 21.5523 9 21 9H3Z" fill="#0000CC"/>
<path d="M9.89465 4.44719C10.1416 3.95321 9.94141 3.35254 9.44743 3.10555C8.95345 2.85856 8.35278 3.05878 8.10579 3.55276L5.10579 9.55276C4.8588 10.0467 5.05903 10.6474 5.55301 10.8944C6.04698 11.1414 6.64766 10.9412 6.89465 10.4472L9.89465 4.44719Z" fill="#0000CC"/>
<path d="M15.8946 3.55276C15.6477 3.05878 15.047 2.85856 14.553 3.10555C14.059 3.35254 13.8588 3.95321 14.1058 4.44719L17.1058 10.4472C17.3528 10.9412 17.9535 11.1414 18.4474 10.8944C18.9414 10.6474 19.1416 10.0467 18.8946 9.55276L15.8946 3.55276Z" fill="#0000CC"/>
</svg>
