<svg width="24" height="24" viewBox="0 0 24 24" fill="none" xmlns="http://www.w3.org/2000/svg">
<path opacity="0.3" d="M7.16602 4L8.55063 13H19.0005C19.447 13 19.8394 12.704 19.9621 12.2747L21.9621 5.27472C22.0483 4.973 21.9878 4.64832 21.7989 4.3978C21.6099 4.14729 21.3143 4 21.0005 4H7.16602Z" fill="#0000CC"/>
<path fill-rule="evenodd" clip-rule="evenodd" d="M2 3C2 2.44772 2.44772 2 3 2H6C6.49357 2 6.91332 2.36011 6.98837 2.84794L8.85792 15H20C20.5523 15 21 15.4477 21 16C21 16.5523 20.5523 17 20 17H8C7.50643 17 7.08668 16.6399 7.01163 16.1521L5.14208 4H3C2.44772 4 2 3.55228 2 3ZM6 20C6 18.8954 6.89543 18 8 18C9.10457 18 10 18.8954 10 20C10 21.1046 9.10457 22 8 22C6.89543 22 6 21.1046 6 20ZM17 20C17 18.8954 17.8954 18 19 18C20.1046 18 21 18.8954 21 20C21 21.1046 20.1046 22 19 22C17.8954 22 17 21.1046 17 20Z" fill="#0000CC"/>
</svg>
