<svg width="24" height="24" viewBox="0 0 24 24" fill="none" xmlns="http://www.w3.org/2000/svg">
<path opacity="0.3" fill-rule="evenodd" clip-rule="evenodd" d="M2 3C2 2.44772 2.44772 2 3 2H6C6.49357 2 6.91332 2.36011 6.98837 2.84794L8.24253 11H18.2457L20.0385 4.72528C20.1902 4.19424 20.7437 3.88675 21.2747 4.03848C21.8058 4.1902 22.1132 4.74369 21.9615 5.27472L19.9615 12.2747C19.8389 12.704 19.4465 13 19 13H8.55023L8.85792 15H20C20.5523 15 21 15.4477 21 16C21 16.5523 20.5523 17 20 17H8C7.50643 17 7.08668 16.6399 7.01163 16.1521L6.41534 12.2762C6.3926 12.1969 6.37941 12.1136 6.37708 12.0275L5.14208 4H3C2.44772 4 2 3.55228 2 3Z" fill="#0000CC"/>
<path d="M10.2929 2.29289C10.6834 1.90237 11.3166 1.90237 11.7071 2.29289L13.5 4.08579L15.2929 2.29289C15.6834 1.90237 16.3166 1.90237 16.7071 2.29289C17.0976 2.68342 17.0976 3.31658 16.7071 3.70711L14.9142 5.5L16.7071 7.29289C17.0976 7.68342 17.0976 8.31658 16.7071 8.70711C16.3166 9.09763 15.6834 9.09763 15.2929 8.70711L13.5 6.91421L11.7071 8.70711C11.3166 9.09763 10.6834 9.09763 10.2929 8.70711C9.90237 8.31658 9.90237 7.68342 10.2929 7.29289L12.0858 5.5L10.2929 3.70711C9.90237 3.31658 9.90237 2.68342 10.2929 2.29289Z" fill="#0000CC"/>
<path d="M6 20C6 18.8954 6.89543 18 8 18C9.10457 18 10 18.8954 10 20C10 21.1046 9.10457 22 8 22C6.89543 22 6 21.1046 6 20Z" fill="#0000CC"/>
<path d="M17 20C17 18.8954 17.8954 18 19 18C20.1046 18 21 18.8954 21 20C21 21.1046 20.1046 22 19 22C17.8954 22 17 21.1046 17 20Z" fill="#0000CC"/>
</svg>
