<svg width="24" height="24" viewBox="0 0 24 24" fill="none" xmlns="http://www.w3.org/2000/svg">
<g opacity="0.3">
<path d="M7.9 2.00004L7.87133 1.99988C7.76659 1.99902 7.54983 1.99724 7.33808 2.05771C7.15924 2.10879 6.99145 2.19268 6.84329 2.30511C6.66786 2.43822 6.53923 2.6127 6.47707 2.69701L6.46 2.72004L2.56 7.92004L2.53463 7.95329C2.44307 8.07248 2.25291 8.32 2.17442 8.61819C2.14147 8.74334 2.125 8.87169 2.125 9.00003H7C7.00001 8.80491 7.05713 8.61157 7.16795 8.44533L11.168 2.44533C11.3524 2.16859 11.6624 2.00179 11.9947 2.00004H7.9Z" fill="#0000CC"/>
<path d="M14.7982 9.00003H9.20186L12 4.80281L14.7982 9.00003Z" fill="#0000CC"/>
<path d="M21.875 9.00003H17C17 8.80491 16.9429 8.61157 16.8321 8.44533L12.8321 2.44533C12.6476 2.16859 12.3376 2.00179 12.0053 2.00004H16.1L16.1287 1.99988C16.2334 1.99902 16.4502 1.99724 16.6619 2.05771C16.8408 2.10879 17.0085 2.19268 17.1567 2.30511C17.3321 2.43822 17.4608 2.61269 17.5229 2.697L17.54 2.72004L21.44 7.92004L21.4654 7.95329C21.5569 8.07248 21.7471 8.32 21.8256 8.61819C21.8585 8.74335 21.875 8.8717 21.875 9.00003Z" fill="#0000CC"/>
</g>
<path d="M2.125 9C2.125 9.12835 2.14147 9.2567 2.17442 9.38185C2.25291 9.68004 2.44307 9.92756 2.53463 10.0467L2.56 10.08L10.577 20.7693C10.6703 20.8938 10.7758 21.0346 10.8774 21.1476C10.923 21.1983 10.981 21.2588 11.0526 21.3201L11.0513 21.3162L7.05132 9.31623C7.01692 9.21302 6.99999 9.10625 7 9H2.125Z" fill="#0000CC"/>
<path d="M9.20186 9L9.10335 9.14776L12 17.8377L14.8967 9.14776L14.7982 9H9.20186Z" fill="#0000CC"/>
<path d="M17 9C17 9.10625 16.9831 9.21302 16.9487 9.31623L12.9487 21.3162L12.9474 21.3201C13.019 21.2588 13.077 21.1983 13.1226 21.1476C13.2242 21.0346 13.3297 20.8938 13.4231 20.7693L21.44 10.08L21.4654 10.0468C21.5569 9.92757 21.7471 9.68006 21.8256 9.38187C21.8585 9.25669 21.875 9.12832 21.875 9H17Z" fill="#0000CC"/>
</svg>
