<svg width="24" height="24" viewBox="0 0 24 24" fill="none" xmlns="http://www.w3.org/2000/svg">
<path opacity="0.3" d="M2 11.8C2 10.1198 2 9.27976 2.32698 8.63803C2.6146 8.07354 3.07354 7.6146 3.63803 7.32698C4.27976 7 5.11984 7 6.8 7H17.2C18.8802 7 19.7202 7 20.362 7.32698C20.9265 7.6146 21.3854 8.07354 21.673 8.63803C22 9.27976 22 10.1198 22 11.8V17.2C22 18.8802 22 19.7202 21.673 20.362C21.3854 20.9265 20.9265 21.3854 20.362 21.673C19.7202 22 18.8802 22 17.2 22H6.8C5.11984 22 4.27976 22 3.63803 21.673C3.07354 21.3854 2.6146 20.9265 2.32698 20.362C2 19.7202 2 18.8802 2 17.2V11.8Z" fill="#0000CC"/>
<path fill-rule="evenodd" clip-rule="evenodd" d="M7.5 4C7.10218 4 6.72064 4.15804 6.43934 4.43934C6.15804 4.72064 6 5.10218 6 5.5C6 5.89782 6.15804 6.27936 6.43934 6.56066C6.72064 6.84196 7.10218 7 7.5 7H10.654C10.5319 6.68061 10.3774 6.32942 10.1863 5.98192C9.55732 4.83834 8.6939 4 7.5 4ZM11 9H7.5C6.57174 9 5.6815 8.63125 5.02513 7.97487C4.36875 7.3185 4 6.42826 4 5.5C4 4.57174 4.36875 3.6815 5.02513 3.02513C5.6815 2.36875 6.57174 2 7.5 2C9.8061 2 11.1927 3.66166 11.9387 5.01808C11.9595 5.0559 11.9799 5.09368 12 5.13141C12.0201 5.09368 12.0405 5.0559 12.0613 5.01808C12.8073 3.66166 14.1939 2 16.5 2C17.4283 2 18.3185 2.36875 18.9749 3.02513C19.6313 3.6815 20 4.57174 20 5.5C20 6.42826 19.6313 7.3185 18.9749 7.97487C18.3185 8.63125 17.4283 9 16.5 9H13V13H22V15H13V22H11V15H2V13H11V9ZM13.346 7C13.4681 6.68061 13.6226 6.32942 13.8137 5.98192C14.4427 4.83834 15.3061 4 16.5 4C16.8978 4 17.2794 4.15804 17.5607 4.43934C17.842 4.72064 18 5.10218 18 5.5C18 5.89782 17.842 6.27936 17.5607 6.56066C17.2794 6.84196 16.8978 7 16.5 7H13.346Z" fill="#0000CC"/>
</svg>
