<svg width="24" height="24" viewBox="0 0 24 24" fill="none" xmlns="http://www.w3.org/2000/svg">
<g opacity="0.3">
<path d="M3.86178 6.01695C4.06993 5.99994 4.31573 5.99997 4.56811 6H19.4319C19.6843 5.99997 19.9301 5.99994 20.1382 6.01695C20.3668 6.03563 20.6366 6.07969 20.908 6.21799C21.2843 6.40974 21.5903 6.7157 21.782 7.09202C21.9203 7.36345 21.9644 7.63318 21.9831 7.86178C22.0001 8.06989 22 8.31573 22 8.56806V10.432C22 10.6844 22.0001 10.9301 21.9831 11.1382C21.9644 11.3668 21.9203 11.6366 21.782 11.908C21.5903 12.2843 21.2843 12.5903 20.908 12.782C20.6366 12.9203 20.3668 12.9644 20.1382 12.9831C19.9301 13.0001 19.6843 13 19.4319 13H4.56811C4.31572 13 4.06993 13.0001 3.86178 12.9831C3.63318 12.9644 3.36345 12.9203 3.09202 12.782C2.7157 12.5903 2.40974 12.2843 2.21799 11.908C2.07969 11.6366 2.03563 11.3668 2.01695 11.1382C1.99994 10.9301 1.99997 10.6843 2 10.4319L2 8.56809C1.99997 8.31572 1.99994 8.06993 2.01695 7.86178C2.03563 7.63318 2.07969 7.36345 2.21799 7.09202C2.40974 6.7157 2.7157 6.40974 3.09202 6.21799C3.36345 6.07969 3.63318 6.03563 3.86178 6.01695Z" fill="#0000CC"/>
<path d="M20 14H4V17.2C4 18.8802 4 19.7202 4.32698 20.362C4.6146 20.9265 5.07354 21.3854 5.63803 21.673C6.27976 22 7.11984 22 8.8 22H15.2C16.8802 22 17.7202 22 18.362 21.673C18.9265 21.3854 19.3854 20.9265 19.673 20.362C20 19.7202 20 18.8802 20 17.2V14Z" fill="#0000CC"/>
</g>
<path fill-rule="evenodd" clip-rule="evenodd" d="M11 22V8H8.46429C7.67223 8 6.91634 7.67947 6.36188 7.11492C5.80801 6.55098 5.5 5.78989 5.5 5C5.5 4.21011 5.80801 3.44902 6.36188 2.88508C6.91634 2.32053 7.67223 2 8.46429 2C10.259 2 11.3725 3.21845 12 4.27223C12.6275 3.21845 13.741 2 15.5357 2C16.3278 2 17.0837 2.32053 17.6381 2.88508C18.192 3.44902 18.5 4.21011 18.5 5C18.5 5.78989 18.192 6.55098 17.6381 7.11492C17.0837 7.67947 16.3278 8 15.5357 8H13V22H11ZM7.78877 4.28649C7.97106 4.1009 8.21442 4 8.46429 4C9.27397 4 9.89768 4.57581 10.3836 5.47527C10.4786 5.65116 10.5619 5.82865 10.6343 6H8.46429C8.21442 6 7.97106 5.8991 7.78877 5.71351C7.60589 5.5273 7.5 5.27097 7.5 5C7.5 4.72903 7.60589 4.4727 7.78877 4.28649ZM15.5357 6H13.3657C13.4381 5.82865 13.5214 5.65116 13.6164 5.47527C14.1023 4.57581 14.726 4 15.5357 4C15.7856 4 16.0289 4.1009 16.2112 4.28649C16.3941 4.4727 16.5 4.72903 16.5 5C16.5 5.27097 16.3941 5.5273 16.2112 5.71351C16.0289 5.8991 15.7856 6 15.5357 6Z" fill="#0000CC"/>
</svg>
