<svg width="24" height="24" viewBox="0 0 24 24" fill="none" xmlns="http://www.w3.org/2000/svg">
<path opacity="0.3" d="M2 6.8C2 5.11984 2 4.27976 2.32698 3.63803C2.6146 3.07354 3.07354 2.6146 3.63803 2.32698C4.27976 2 5.11984 2 6.8 2H11.2C12.8802 2 13.7202 2 14.362 2.32698C14.9265 2.6146 15.3854 3.07354 15.673 3.63803C16 4.27976 16 5.11984 16 6.8V11.1994C12.4383 13.0201 10 16.7253 10 21C10 21.3371 10.0152 21.6706 10.0448 22H6.8C5.11984 22 4.27976 22 3.63803 21.673C3.07354 21.3854 2.6146 20.9265 2.32698 20.362C2 19.7202 2 18.8802 2 17.2V6.8Z" fill="#0000CC"/>
<path d="M8 4C7.44772 4 7 4.44772 7 5C7 5.55228 7.44772 6 8 6H10C10.5523 6 11 5.55228 11 5C11 4.44772 10.5523 4 10 4H8Z" fill="#0000CC"/>
<path d="M14 21C14 17.134 17.134 14 21 14C21.5523 14 22 13.5523 22 13C22 12.4477 21.5523 12 21 12C16.0294 12 12 16.0294 12 21C12 21.5523 12.4477 22 13 22C13.5523 22 14 21.5523 14 21Z" fill="#0000CC"/>
<path d="M18 21C18 19.3431 19.3431 18 21 18C21.5523 18 22 17.5523 22 17C22 16.4477 21.5523 16 21 16C18.2386 16 16 18.2386 16 21C16 21.5523 16.4477 22 17 22C17.5523 22 18 21.5523 18 21Z" fill="#0000CC"/>
<path d="M20 21C20 20.4477 20.4477 20 21 20H21.01C21.5623 20 22.01 20.4477 22.01 21C22.01 21.5523 21.5623 22 21.01 22H21C20.4477 22 20 21.5523 20 21Z" fill="#0000CC"/>
</svg>
