<svg width="24" height="24" viewBox="0 0 24 24" fill="none" xmlns="http://www.w3.org/2000/svg">
<path d="M17 8V7C17 4.79086 15.2091 3 13 3H7C4.79086 3 3 4.79086 3 7V15C3 16.1046 3.89543 17 5 17V21H17V17L20.068 13.932C20.6648 13.3352 21 12.5259 21 11.682C21 9.92462 19.5754 8.5 17.818 8.5H15.25C14.0074 8.5 13 9.50736 13 10.75C13 11.9926 14.0074 13 15.25 13H15.2857M13 10H11C9.89543 10 9 9.10457 9 8M9.5 18L12.5 16M12.5 18L9.5 16" stroke="#0000CC" stroke-width="2" stroke-linecap="round" stroke-linejoin="round"/>
</svg>
