<svg width="24" height="24" viewBox="0 0 24 24" fill="none" xmlns="http://www.w3.org/2000/svg">
<path d="M17 19L5 7M17 19L19 17.0001C20.3721 15.7 21 14.0001 21 12.0001C21 10.0001 20.4231 7.42312 18.5 5.5C16.5769 3.5769 14.3717 3.03418 12 3.00005C10.1229 2.97304 8.29713 3.64819 6.94941 4.95261L5 7M17 19L15.5 20.4999C15.1313 20.8686 14.6545 20.9781 14.1716 20.9987C13.6315 21.0217 12.9123 20.9123 12.5 20.4999L10.914 18.9139C10.133 18.1329 8.86688 18.1328 8.08579 18.9136L6 20.9987L3 17.9999L5.08579 15.9142C5.86684 15.1331 5.86683 13.8668 5.08579 13.0857L3.5 11.4999C3.08765 11.0876 2.97989 10.3684 3.00294 9.82837C3.02354 9.34548 3.13298 8.86864 3.50168 8.49994L5 7" stroke="#0000CC" stroke-width="2" stroke-linecap="round" stroke-linejoin="round"/>
</svg>
