<svg width="24" height="24" viewBox="0 0 24 24" fill="none" xmlns="http://www.w3.org/2000/svg">
<path d="M18.364 18.364L19.0711 19.0711L18.364 18.364ZM5.63604 18.364L4.92893 19.0711H4.92893L5.63604 18.364ZM18.364 5.63604L19.0711 4.92893V4.92893L18.364 5.63604ZM9.88044 9.87873L9.17334 9.17163L9.17334 9.17163L9.88044 9.87873ZM3.01381 12.5L2.01534 12.5552L3.01381 12.5ZM12.5 3.01381L12.5552 2.01534L12.5 3.01381ZM14.1243 14.1214L14.8314 14.8285L14.1243 14.1214ZM9.17334 9.17163C7.49833 10.8466 5.26481 11.6232 3.06912 11.5015L2.9585 13.4985C5.6973 13.6502 8.49297 12.6804 10.5876 10.5858L9.17334 9.17163ZM11.5015 3.06912C11.6232 5.26511 10.8481 7.49683 9.17334 9.17163L10.5876 10.5858C12.6823 8.49106 13.6502 5.697 13.4985 2.9585L11.5015 3.06912ZM12.4985 20.9309C12.3769 18.7362 13.1557 16.5042 14.8314 14.8285L13.4172 13.4143C11.3233 15.5082 10.3498 18.3017 10.5015 21.0415L12.4985 20.9309ZM14.8314 14.8285C16.5068 13.1531 18.7357 12.3769 20.9309 12.4985L21.0415 10.5015C18.3022 10.3498 15.5114 11.3201 13.4172 13.4143L14.8314 14.8285ZM17.6569 17.6569C15.9817 19.332 13.7502 20.1091 11.5552 19.9877L11.4448 21.9847C14.1837 22.1361 16.977 21.1651 19.0711 19.0711L17.6569 17.6569ZM11.5552 19.9877C9.65752 19.8828 7.79261 19.1063 6.34315 17.6569L4.92893 19.0711C6.73975 20.8819 9.07466 21.8536 11.4448 21.9847L11.5552 19.9877ZM17.6569 6.34315C19.1063 7.79261 19.8828 9.65752 19.9877 11.5552L21.9847 11.4448C21.8536 9.07466 20.8819 6.73975 19.0711 4.92893L17.6569 6.34315ZM19.9877 11.5552C20.1091 13.7502 19.332 15.9817 17.6569 17.6569L19.0711 19.0711C21.1651 16.977 22.1361 14.1837 21.9847 11.4448L19.9877 11.5552ZM6.34315 6.34315C8.01826 4.66804 10.2498 3.8909 12.4448 4.01229L12.5552 2.01534C9.81628 1.86388 7.02297 2.83489 4.92893 4.92893L6.34315 6.34315ZM12.4448 4.01229C14.3425 4.11723 16.2074 4.89368 17.6569 6.34315L19.0711 4.92893C17.2602 3.11811 14.9253 2.14641 12.5552 2.01534L12.4448 4.01229ZM6.34315 17.6569C4.89368 16.2074 4.11723 14.3425 4.01229 12.4448L2.01534 12.5552C2.14641 14.9253 3.11811 17.2602 4.92893 19.0711L6.34315 17.6569ZM4.01229 12.4448C3.8909 10.2498 4.66804 8.01826 6.34315 6.34315L4.92893 4.92893C2.83489 7.02297 1.86388 9.81628 2.01534 12.5552L4.01229 12.4448Z" fill="#0000CC"/>
</svg>
