<svg width="24" height="24" viewBox="0 0 24 24" fill="none" xmlns="http://www.w3.org/2000/svg">
<path opacity="0.14" d="M21 4H3V20H21V4Z" fill="#0000CC"/>
<path d="M3 4V3C2.44772 3 2 3.44772 2 4H3ZM21 4H22C22 3.44772 21.5523 3 21 3V4ZM21 20V21C21.5523 21 22 20.5523 22 20H21ZM3 20H2C2 20.5523 2.44772 21 3 21V20ZM11 20C11 20.5523 11.4477 21 12 21C12.5523 21 13 20.5523 13 20H11ZM13 4C13 3.44772 12.5523 3 12 3C11.4477 3 11 3.44772 11 4H13ZM3 5H21V3H3V5ZM21 19H3V21H21V19ZM4 20V4H2V20H4ZM20 4V20H22V4H20ZM7 12C7 13.6569 5.65685 15 4 15V17C6.76142 17 9 14.7614 9 12H7ZM4 9C5.65685 9 7 10.3431 7 12H9C9 9.23858 6.76142 7 4 7V9ZM4 7H3V9H4V7ZM3 17H4V15H3V17ZM13 20V4H11V20H13ZM20 15C18.3431 15 17 13.6569 17 12H15C15 14.7614 17.2386 17 20 17V15ZM17 12C17 10.3431 18.3431 9 20 9V7C17.2386 7 15 9.23858 15 12H17ZM20 9H21V7H20V9ZM20 17H21V15H20V17Z" fill="#0000CC"/>
</svg>
