<svg width="24" height="24" viewBox="0 0 24 24" fill="none" xmlns="http://www.w3.org/2000/svg">
<path opacity="0.14" d="M17.5 8.5C17.5 11.5376 15.0376 14 12 14C8.96243 14 6.5 11.5376 6.5 8.5C6.5 5.46243 8.96243 3 12 3C15.0376 3 17.5 5.46243 17.5 8.5Z" fill="#0000CC"/>
<path d="M11 21C11 21.5523 11.4477 22 12 22C12.5523 22 13 21.5523 13 21H11ZM13 17C13 16.4477 12.5523 16 12 16C11.4477 16 11 16.4477 11 17H13ZM9 16C8.44772 16 8 16.4477 8 17C8 17.5523 8.44772 18 9 18V16ZM15 18C15.5523 18 16 17.5523 16 17C16 16.4477 15.5523 16 15 16V18ZM12 10C11.4477 10 11 10.4477 11 11C11 11.5523 11.4477 12 12 12V10ZM12.009 12C12.5613 12 13.009 11.5523 13.009 11C13.009 10.4477 12.5613 10 12.009 10V12ZM14 8C13.4477 8 13 8.44772 13 9C13 9.55228 13.4477 10 14 10V8ZM14.009 10C14.5613 10 15.009 9.55228 15.009 9C15.009 8.44772 14.5613 8 14.009 8V10ZM13 21V17H11V21H13ZM9 18H15V16H9V18ZM16.5 8.5C16.5 10.9853 14.4853 13 12 13V15C15.5899 15 18.5 12.0899 18.5 8.5H16.5ZM12 13C9.51472 13 7.5 10.9853 7.5 8.5H5.5C5.5 12.0899 8.41015 15 12 15V13ZM7.5 8.5C7.5 6.01472 9.51472 4 12 4V2C8.41015 2 5.5 4.91015 5.5 8.5H7.5ZM12 4C14.4853 4 16.5 6.01472 16.5 8.5H18.5C18.5 4.91015 15.5899 2 12 2V4ZM12 12H12.009V10H12V12ZM14 10H14.009V8H14V10Z" fill="#0000CC"/>
</svg>
