<svg width="24" height="24" viewBox="0 0 24 24" fill="none" xmlns="http://www.w3.org/2000/svg">
<path opacity="0.14" d="M5 21.0001H11.7003C12.4906 21.0001 13.2069 20.5346 13.5279 19.8123L15.1891 16.0746L5.48915 13.6279C4.22584 13.3092 3 14.2643 3 15.5672V19.0001C3 20.1046 3.89543 21.0001 5 21.0001Z" fill="#0000CC"/>
<path d="M15.1891 16.0745L5.48915 13.6279C4.22584 13.3092 3 14.2642 3 15.5671V19C3 20.1046 3.89543 21 5 21H11.7003C12.4906 21 13.2069 20.5345 13.5279 19.8123L15.1891 16.0745ZM15.1891 16.0745L21 3M3 17H6" stroke="#0000CC" stroke-width="2" stroke-linecap="round" stroke-linejoin="round"/>
</svg>
