<svg width="24" height="24" viewBox="0 0 24 24" fill="none" xmlns="http://www.w3.org/2000/svg">
<path opacity="0.14" d="M3 12V9C3 7.89543 3.89543 7 5 7H15C16.1046 7 17 7.89543 17 9V12C17 13.1046 16.1046 14 15 14H11.7041C11.3666 14 11.0496 13.8379 10.852 13.5643C10.4325 12.9835 9.56749 12.9835 9.14797 13.5643C8.95038 13.8379 8.63342 14 8.29594 14H5C3.89543 14 3 13.1046 3 12Z" fill="#0000CC"/>
<path d="M21 3V17.5C21 19.433 19.433 21 17.5 21H17C15.3431 21 14 19.6569 14 18M3 9V12C3 13.1046 3.89543 14 5 14H8.29594C8.63342 14 8.95038 13.8379 9.14797 13.5643C9.56749 12.9835 10.4325 12.9835 10.852 13.5643C11.0496 13.8379 11.3666 14 11.7041 14H15C16.1046 14 17 13.1046 17 12V9C17 7.89543 16.1046 7 15 7H5C3.89543 7 3 7.89543 3 9Z" stroke="#0000CC" stroke-width="2" stroke-linecap="round" stroke-linejoin="round"/>
</svg>
