<svg width="24" height="24" viewBox="0 0 24 24" fill="none" xmlns="http://www.w3.org/2000/svg">
<path opacity="0.14" d="M12 21C16.9706 21 21 16.9706 21 12C21 7.02944 16.9706 3 12 3C7.02945 3 3 7.02944 3 12C3 16.9706 7.02945 21 12 21Z" fill="#0000CC"/>
<path d="M15.5 20.2941L15.8699 18.5697L16.2441 17.0008L17.9983 16.8197L19.7491 16.58M15.5 20.2941C14.4241 20.7487 13.2414 21 12 21C11.0186 21 10.0743 20.8432 9.19 20.5528M15.5 20.2941C17.2825 19.541 18.7718 18.23 19.7491 16.58M19.7491 16.58C20.4778 15.3497 20.9219 13.931 20.9906 12.4144M20.9906 12.4144L19.5964 11.3085L18.2227 10.2296L18.85 8.58142L19.4234 6.91M20.9906 12.4144C20.9969 12.277 21 12.1389 21 12C21 10.1109 20.418 8.35769 19.4234 6.91M19.4234 6.91C18.3039 5.28038 16.6617 4.03785 14.7386 3.42425M4.60938 17.1401C3.59367 15.6829 3 13.911 3 12C3 11.9708 3.00014 11.9415 3.00042 11.9124M4.60938 17.1401L6.37255 17.1773L8.11923 17.1929L8.62873 18.8813L9.19 20.5528M4.60938 17.1401C5.71408 18.7251 7.31663 19.9379 9.19 20.5528M14.7386 3.42425C13.8751 3.14872 12.9549 3 12 3C10.9593 3 9.95985 3.17664 9.03 3.50158M14.7386 3.42425L13.3239 4.46982L11.9319 5.52498L10.4967 4.50005L9.03 3.50158M9.03 3.50158C7.45721 4.05119 6.08356 5.02507 5.0462 6.28604M5.0462 6.28604C3.78491 7.81924 3.02079 9.77686 3.00042 11.9124M5.0462 6.28604L5.53404 8.29929L6.00174 9.9997L4.50001 10.9243L3.00042 11.9124M12 9L13.4107 10.0584L14.8532 11.0729L14.2825 12.7416L13.7634 14.4271L12 14.4L10.2366 14.4271L9.71746 12.7416L9.14683 11.0729L10.5893 10.0584L12 9Z" stroke="#0000CC" stroke-width="2" stroke-linejoin="round"/>
</svg>
