<svg width="24" height="24" viewBox="0 0 24 24" fill="none" xmlns="http://www.w3.org/2000/svg">
<g opacity="0.14">
<path d="M4 12C4 15.3137 6.68629 18 10 18C11.8569 18 13.5168 17.1565 14.6174 15.8317L18 18L21 13L15.2474 8.54365L13 6.8027C12.1175 6.29218 11.0929 6 10 6C8.46329 6 7.06151 6.57771 6 7.52779C5.52742 7.95076 5.12228 8.44754 4.80269 9C4.29218 9.88252 4 10.9071 4 12Z" fill="#0000CC"/>
<path d="M3 7.5C3 8.32843 3.67157 9 4.5 9H4.80269C5.12228 8.44754 5.52742 7.95076 6 7.52779V7.5C6 6.67157 5.32843 6 4.5 6C3.67157 6 3 6.67157 3 7.5Z" fill="#0000CC"/>
</g>
<path d="M15.2474 8.54365L13 6.8027C12.1175 6.29218 11.0929 6 10 6C7.77915 6 5.84012 7.2066 4.80269 9M15.2474 8.54365L21 13L18 18L14.6174 15.8317C13.5168 17.1565 11.8569 18 10 18C6.68629 18 4 15.3137 4 12C4 10.9071 4.29218 9.88252 4.80269 9M15.2474 8.54365L14.5 10M6 7.5C6 6.67157 5.32843 6 4.5 6C3.67157 6 3 6.67157 3 7.5C3 8.32843 3.67157 9 4.5 9H4.80269M10.5 12C10.5 12.5523 10.0523 13 9.5 13C8.94772 13 8.5 12.5523 8.5 12C8.5 11.4477 8.94772 11 9.5 11C10.0523 11 10.5 11.4477 10.5 12Z" stroke="#0000CC" stroke-width="2" stroke-linecap="round" stroke-linejoin="round"/>
</svg>
