<svg width="24" height="24" viewBox="0 0 24 24" fill="none" xmlns="http://www.w3.org/2000/svg">
<path d="M12 2C9.95655 2 8.3 3.65655 8.3 5.7C8.3 7.39693 9.44236 8.82705 11 9.26328V19.9372C9.24698 19.7164 7.60576 18.9195 6.34315 17.6569C5.08052 16.3942 4.28353 14.753 4.06272 13H5C5.55228 13 6 12.5523 6 12C6 11.4477 5.55228 11 5 11H3C2.44772 11 2 11.4477 2 12C2 14.6522 3.05357 17.1957 4.92893 19.0711C6.80432 20.9464 9.34786 21.9999 12 21.9999C14.6521 21.9999 17.1957 20.9464 19.0711 19.0711C20.9464 17.1957 22 14.6522 22 12C22 11.4477 21.5523 11 21 11H19C18.4477 11 18 11.4477 18 12C18 12.5523 18.4477 13 19 13H19.9373C19.7165 14.753 18.9195 16.3942 17.6569 17.6569C16.3942 18.9195 14.753 19.7164 13 19.9372V9.26328C14.5576 8.82705 15.7 7.39693 15.7 5.7C15.7 3.65655 14.0435 2 12 2Z" fill="#0000CC"/>
</svg>
