<svg width="24" height="24" viewBox="0 0 24 24" fill="none" xmlns="http://www.w3.org/2000/svg">
<path fill-rule="evenodd" clip-rule="evenodd" d="M21.8322 2.44528C22.1385 2.90481 22.0143 3.52568 21.5548 3.83203L20.8351 4.31184C21.5788 5.71072 22.0001 7.30719 22.0001 8.99998C22.0001 14.1853 18.0534 18.4489 13.0001 18.9506V20H17.0001C17.5524 20 18.0001 20.4477 18.0001 21C18.0001 21.5523 17.5524 22 17.0001 22H7.00011C6.44782 22 6.00011 21.5523 6.00011 21C6.00011 20.4477 6.44782 20 7.00011 20H11.0001V18.9506C8.29641 18.682 5.90993 17.3364 4.27583 15.3514L3.55481 15.832C3.09528 16.1384 2.47441 16.0142 2.16806 15.5547C1.8617 15.0952 1.98588 14.4743 2.44541 14.1679L3.94541 13.1679C4.1183 13.0527 4.31403 12.9984 4.50725 12.9999C4.83233 12.9975 5.15231 13.1534 5.34666 13.4437C6.78348 15.5902 9.22736 17 12.0001 17C16.4184 17 20.0001 13.4183 20.0001 8.99998C20.0001 7.36285 19.5094 5.84336 18.6673 4.57685C18.551 4.40196 18.497 4.20381 18.5 4.00857C18.4975 3.68278 18.6541 3.36215 18.9454 3.16793L20.4454 2.16793C20.9049 1.86158 21.5258 1.98576 21.8322 2.44528ZM6.00011 8.99998C6.00011 5.68628 8.6864 2.99998 12.0001 2.99998C15.3138 2.99998 18.0001 5.68628 18.0001 8.99998C18.0001 12.3137 15.3138 15 12.0001 15C8.6864 15 6.00011 12.3137 6.00011 8.99998Z" fill="#0000CC"/>
</svg>
