<svg width="24" height="24" viewBox="0 0 24 24" fill="none" xmlns="http://www.w3.org/2000/svg">
<path d="M10.0463 3.08829C10.4951 2.51889 11.1475 2 11.9995 2C12.8514 2 13.5039 2.51889 13.9526 3.08829C14.4102 3.66896 14.7786 4.44724 15.0695 5.31981C15.5777 6.84448 15.9046 8.8263 15.9818 11H8.01713C8.09433 8.8263 8.42124 6.84448 8.92946 5.31981C9.22032 4.44724 9.5887 3.66896 10.0463 3.08829Z" fill="#0000CC"/>
<path d="M6.01595 11C6.09374 8.65226 6.44498 6.44858 7.03209 4.68724C7.22862 4.09765 7.471 3.4982 7.77348 2.93408C4.64965 4.39273 2.40439 7.41842 2.04883 11H6.01595Z" fill="#0000CC"/>
<path d="M2.04885 13H6.01596C6.09376 15.3476 6.445 17.5513 7.03209 19.3125C7.22862 19.9021 7.471 20.5016 7.77348 21.0657C4.64972 19.6071 2.40448 16.5815 2.04885 13Z" fill="#0000CC"/>
<path d="M8.01713 13H15.9818C15.9046 15.1737 15.5777 17.1555 15.0695 18.6802C14.7786 19.5528 14.4102 20.331 13.9526 20.9117C13.5039 21.4811 12.8514 22 11.9995 22C11.1475 22 10.4951 21.4811 10.0463 20.9117C9.5887 20.331 9.22032 19.5528 8.92946 18.6802C8.42124 17.1555 8.09433 15.1737 8.01713 13Z" fill="#0000CC"/>
<path d="M17.983 13C17.9052 15.3476 17.5539 17.5513 16.9668 19.3125C16.7703 19.9021 16.5279 20.5016 16.2254 21.0657C19.3492 19.6071 21.5944 16.5815 21.9501 13H17.983Z" fill="#0000CC"/>
<path d="M21.9501 11C21.5945 7.41842 19.3493 4.39273 16.2255 2.93408C16.5279 3.4982 16.7703 4.09765 16.9668 4.68724C17.5539 6.44858 17.9052 8.65226 17.983 11H21.9501Z" fill="#0000CC"/>
</svg>
