<svg width="24" height="24" viewBox="0 0 24 24" fill="none" xmlns="http://www.w3.org/2000/svg">
<path d="M12 2C9.60004 2 7.39754 2.84544 5.67409 4.25475L9.98565 8.54347C10.5772 8.19797 11.2655 8 12 8C12.7345 8 13.4228 8.19797 14.0143 8.54347L18.3259 4.25475C16.6025 2.84544 14.4 2 12 2Z" fill="#0000CC"/>
<path d="M2 12C2 9.59742 2.84729 7.39274 4.25936 5.66846L8.56423 9.95052C8.20592 10.5499 8 11.2509 8 12C8 12.7492 8.20596 13.4503 8.56436 14.0497L4.25939 18.3316C2.8473 16.6073 2 14.4026 2 12Z" fill="#0000CC"/>
<path d="M5.67412 19.7453C7.39757 21.1546 9.60006 22 12 22C14.3999 22 16.6024 21.1546 18.3259 19.7453L14.0141 15.4567C13.4226 15.8021 12.7344 16 12 16C11.2656 16 10.5774 15.8021 9.98587 15.4567L5.67412 19.7453Z" fill="#0000CC"/>
<path d="M22 12C22 14.4026 21.1527 16.6073 19.7406 18.3316L15.4356 14.0497C15.794 13.4503 16 12.7492 16 12C16 11.2509 15.7941 10.5499 15.4358 9.95051L19.7406 5.66845C21.1527 7.39274 22 9.59742 22 12Z" fill="#0000CC"/>
<path d="M12 14C13.1046 14 14 13.1046 14 12C14 10.8954 13.1046 10 12 10C10.8954 10 10 10.8954 10 12C10 13.1046 10.8954 14 12 14Z" fill="#0000CC"/>
</svg>
