<svg width="24" height="24" viewBox="0 0 24 24" fill="none" xmlns="http://www.w3.org/2000/svg">
<path d="M18 12C18 12.5456 17.9272 13.0741 17.7907 13.5765L19.3584 15.1442C19.6461 14.4719 19.8443 13.7522 19.9381 13H21C21.5523 13 22 12.5523 22 12C22 11.4477 21.5523 11 21 11H19.9381C19.4869 7.38128 16.6187 4.51314 13 4.06189V3C13 2.44772 12.5523 2 12 2C11.4477 2 11 2.44772 11 3V4.06189C10.2478 4.15569 9.52811 4.35389 8.85577 4.64156L10.4235 6.20926C10.9259 6.07282 11.4544 6 12 6C15.3137 6 18 8.68629 18 12Z" fill="#0000CC"/>
<path fill-rule="evenodd" clip-rule="evenodd" d="M5.68014 7.09436C4.81999 8.20088 4.24404 9.53929 4.06189 11H3C2.44772 11 2 11.4477 2 12C2 12.5523 2.44772 13 3 13H4.06189C4.51314 16.6187 7.38128 19.4869 11 19.9381V21C11 21.5523 11.4477 22 12 22C12.5523 22 13 21.5523 13 21V19.9381C14.4607 19.756 15.7991 19.18 16.9056 18.3199L20.2929 21.7071C20.6834 22.0976 21.3166 22.0976 21.7071 21.7071C22.0976 21.3166 22.0976 20.6834 21.7071 20.2929L3.70711 2.29289C3.31658 1.90237 2.68342 1.90237 2.29289 2.29289C1.90237 2.68342 1.90237 3.31658 2.29289 3.70711L5.68014 7.09436ZM7.10925 8.52347C6.41079 9.50428 6 10.7042 6 12C6 15.3137 8.68629 18 12 18C13.2958 18 14.4957 17.5892 15.4765 16.8907L14.032 15.4462C13.4365 15.7981 12.7418 16 12 16C9.79086 16 8 14.2091 8 12C8 11.2582 8.20193 10.5635 8.55382 9.96803L7.10925 8.52347Z" fill="#0000CC"/>
<path d="M12.2202 8.00596L15.994 11.7798C15.8837 9.74598 14.254 8.11629 12.2202 8.00596Z" fill="#0000CC"/>
</svg>
