<svg width="24" height="24" viewBox="0 0 24 24" fill="none" xmlns="http://www.w3.org/2000/svg">
<path fill-rule="evenodd" clip-rule="evenodd" d="M2 10.2C2 5.69801 5.55535 2 10 2C14.4446 2 18 5.69801 18 10.2C18 10.8217 17.9257 11.4224 17.7901 12.0043C15.361 12.1047 13.3792 13.938 13.0485 16.3006C12.3987 17.0109 12 17.9583 12 19V20C12 20.1244 12.0057 20.2474 12.0168 20.3689C11.8584 20.5308 11.6997 20.6926 11.5411 20.8543C11.2654 21.1355 10.99 21.4163 10.717 21.6971C10.5287 21.8907 10.2701 22 10 22C9.7299 22 9.47129 21.8907 9.28301 21.6971C9.01005 21.4163 8.7346 21.1355 8.45888 20.8543C6.99974 19.3666 5.53292 17.871 4.38702 16.3405C3.01406 14.5068 2 12.4965 2 10.2ZM10 13C11.6569 13 13 11.6569 13 10C13 8.34315 11.6569 7 10 7C8.34315 7 7 8.34315 7 10C7 11.6569 8.34315 13 10 13Z" fill="#0000CC"/>
<path fill-rule="evenodd" clip-rule="evenodd" d="M18 14C16.3431 14 15 15.3431 15 17V17.2676C14.4022 17.6134 14 18.2597 14 19V20C14 21.1046 14.8954 22 16 22H20C21.1046 22 22 21.1046 22 20V19C22 18.2597 21.5978 17.6134 21 17.2676V17C21 15.3431 19.6569 14 18 14ZM17 17C17 16.4477 17.4477 16 18 16C18.5523 16 19 16.4477 19 17H17Z" fill="#0000CC"/>
</svg>
