<svg width="24" height="24" viewBox="0 0 24 24" fill="none" xmlns="http://www.w3.org/2000/svg">
<path fill-rule="evenodd" clip-rule="evenodd" d="M15.1267 9.24811C15.3094 9.50109 15.5102 9.75202 15.7212 10H14.5C12.567 10 11 11.567 11 13.5C11 15.433 12.567 17 14.5 17H17.5C18.3284 17 19 17.6716 19 18.5C19 19.3284 18.3284 20 17.5 20H8.27878C8.48979 19.752 8.69062 19.5011 8.87326 19.2481C9.49541 18.3864 10 17.381 10 16.2C10 13.9422 8.26895 12 6 12C3.73105 12 2 13.9422 2 16.2C2 17.381 2.50459 18.3864 3.12674 19.2481C3.64156 19.9612 4.30084 20.658 4.9254 21.3181L4.92723 21.3201C5.04314 21.4426 5.1581 21.5641 5.27046 21.6839C5.45951 21.8856 5.72359 22 6 22H17.5C19.433 22 21 20.433 21 18.5C21 16.567 19.433 15 17.5 15H14.5C13.6716 15 13 14.3284 13 13.5C13 12.6716 13.6716 12 14.5 12H18C18.2764 12 18.5405 11.8856 18.7295 11.6839C18.8424 11.5636 18.9575 11.4419 19.0739 11.3188C19.6985 10.6587 20.3584 9.96121 20.8733 9.24811C21.4954 8.38642 22 7.38098 22 6.2C22 3.94218 20.269 2 18 2C15.731 2 14 3.94218 14 6.2C14 7.38098 14.5046 8.38642 15.1267 9.24811ZM20 6C20 7.10457 19.1046 8 18 8C16.8954 8 16 7.10457 16 6C16 4.89543 16.8954 4 18 4C19.1046 4 20 4.89543 20 6ZM6 18C7.10457 18 8 17.1046 8 16C8 14.8954 7.10457 14 6 14C4.89543 14 4 14.8954 4 16C4 17.1046 4.89543 18 6 18Z" fill="#0000CC"/>
</svg>
