<svg width="24" height="24" viewBox="0 0 24 24" fill="none" xmlns="http://www.w3.org/2000/svg">
<path fill-rule="evenodd" clip-rule="evenodd" d="M10.5 2C5.80558 2 2 5.80558 2 10.5C2 15.1944 5.80558 19 10.5 19C12.4869 19 14.3145 18.3183 15.7618 17.176L20.2929 21.7071C20.6834 22.0976 21.3166 22.0976 21.7071 21.7071C22.0976 21.3166 22.0976 20.6834 21.7071 20.2929L17.176 15.7618C18.3183 14.3145 19 12.4869 19 10.5C19 5.80558 15.1944 2 10.5 2ZM11.5 7.5C11.5 6.94772 11.0523 6.5 10.5 6.5C9.94772 6.5 9.5 6.94772 9.5 7.5V9.5H7.5C6.94772 9.5 6.5 9.94772 6.5 10.5C6.5 11.0523 6.94772 11.5 7.5 11.5H9.5V13.5C9.5 14.0523 9.94772 14.5 10.5 14.5C11.0523 14.5 11.5 14.0523 11.5 13.5V11.5H13.5C14.0523 11.5 14.5 11.0523 14.5 10.5C14.5 9.94772 14.0523 9.5 13.5 9.5H11.5V7.5Z" fill="#0000CC"/>
</svg>
