<svg width="24" height="24" viewBox="0 0 24 24" fill="none" xmlns="http://www.w3.org/2000/svg">
<path d="M13 12H10.5V9H13C13.8284 9 14.5 9.67157 14.5 10.5C14.5 11.3284 13.8284 12 13 12Z" fill="#0000CC"/>
<path fill-rule="evenodd" clip-rule="evenodd" d="M3.32698 4.63803C3 5.27976 3 6.11984 3 7.8V16.2C3 17.8802 3 18.7202 3.32698 19.362C3.6146 19.9265 4.07354 20.3854 4.63803 20.673C5.27976 21 6.11984 21 7.8 21H16.2C17.8802 21 18.7202 21 19.362 20.673C19.9265 20.3854 20.3854 19.9265 20.673 19.362C21 18.7202 21 17.8802 21 16.2V7.8C21 6.11984 21 5.27976 20.673 4.63803C20.3854 4.07354 19.9265 3.6146 19.362 3.32698C18.7202 3 17.8802 3 16.2 3H7.8C6.11984 3 5.27976 3 4.63803 3.32698C4.07354 3.6146 3.6146 4.07354 3.32698 4.63803ZM9.5 7C8.94772 7 8.5 7.44772 8.5 8V16C8.5 16.5523 8.94772 17 9.5 17C10.0523 17 10.5 16.5523 10.5 16V14H13C14.933 14 16.5 12.433 16.5 10.5C16.5 8.567 14.933 7 13 7H9.5Z" fill="#0000CC"/>
</svg>
