<svg width="24" height="24" viewBox="0 0 24 24" fill="none" xmlns="http://www.w3.org/2000/svg">
<path opacity="0.3" fill-rule="evenodd" clip-rule="evenodd" d="M7.16146 2H16.8385C17.3657 1.99998 17.8205 1.99997 18.195 2.03057C18.5904 2.06287 18.9836 2.13419 19.362 2.32698C19.9265 2.6146 20.3854 3.07355 20.673 3.63803C20.8658 4.01641 20.9371 4.40963 20.9694 4.80498C21 5.17954 21 5.6343 21 6.16144V17C21 17.5516 20.5534 17.9989 20.002 18L6 18C5.44772 18 5 18.4477 5 19C5 19.5523 5.44772 20 6 20H20C20.5523 20 21 20.4477 21 21C21 21.5523 20.5523 22 20 22H6C4.34315 22 3 20.6569 3 19V6.16142C2.99998 5.63431 2.99997 5.17953 3.03057 4.80498C3.06287 4.40963 3.13419 4.01641 3.32698 3.63803C3.6146 3.07355 4.07355 2.6146 4.63803 2.32698C5.01641 2.13419 5.40963 2.06287 5.80498 2.03057C6.17953 1.99997 6.63435 1.99998 7.16146 2ZM8 7C8 6.44772 8.44772 6 9 6H15C15.5523 6 16 6.44772 16 7C16 7.55229 15.5523 8 15 8H9C8.44772 8 8 7.55229 8 7ZM8 11C8 10.4477 8.44772 10 9 10H15C15.5523 10 16 10.4477 16 11C16 11.5523 15.5523 12 15 12H9C8.44772 12 8 11.5523 8 11Z" fill="#0000CC"/>
<path d="M9 6C8.44771 6 8 6.44772 8 7C8 7.55228 8.44771 8 9 8H15C15.5523 8 16 7.55228 16 7C16 6.44772 15.5523 6 15 6H9Z" fill="#0000CC"/>
<path d="M8 11C8 10.4477 8.44771 10 9 10H15C15.5523 10 16 10.4477 16 11C16 11.5523 15.5523 12 15 12H9C8.44771 12 8 11.5523 8 11Z" fill="#0000CC"/>
<path d="M5 19C5 18.4477 5.44772 18 6 18H19V20H6C5.44772 20 5 19.5523 5 19Z" fill="#0000CC"/>
</svg>
