<svg width="24" height="24" viewBox="0 0 24 24" fill="none" xmlns="http://www.w3.org/2000/svg">
<path opacity="0.3" d="M18 13H22V15.6C22 17.8402 22 18.9603 21.564 19.816C21.1805 20.5686 20.5686 21.1805 19.816 21.564C18.9603 22 17.8402 22 15.6 22H8.4C6.15979 22 5.03969 22 4.18404 21.564C3.43139 21.1805 2.81947 20.5686 2.43597 19.816C2 18.9603 2 17.8402 2 15.6V13H6V14C6 14.5523 6.44772 15 7 15C7.55228 15 8 14.5523 8 14V13H16V14C16 14.5523 16.4477 15 17 15C17.5523 15 18 14.5523 18 14V13Z" fill="#0000CC"/>
<path fill-rule="evenodd" clip-rule="evenodd" d="M12.8388 2H11.1617C10.6346 1.99998 10.1798 1.99997 9.80524 2.03057C9.4099 2.06287 9.01668 2.13419 8.6383 2.32698C8.07381 2.6146 7.61487 3.07354 7.32725 3.63803C7.13446 4.01641 7.06314 4.40963 7.03084 4.80497C7.00329 5.14211 7.00055 5.54422 7.00029 6.00559C5.65018 6.02389 4.83967 6.10205 4.18431 6.43598C3.43166 6.81947 2.81974 7.43139 2.43624 8.18404C2.10232 8.8394 2.02416 9.6499 2.00586 11H21.9947C21.9764 9.6499 21.8982 8.8394 21.5643 8.18404C21.1808 7.43139 20.5689 6.81947 19.8162 6.43598C19.1609 6.10205 18.3504 6.02389 17.0002 6.00559C17 5.54422 16.9972 5.14211 16.9697 4.80497C16.9374 4.40963 16.8661 4.01641 16.6733 3.63803C16.3857 3.07354 15.9267 2.6146 15.3622 2.32698C14.9839 2.13419 14.5906 2.06287 14.1953 2.03057C13.8207 1.99997 13.3659 1.99998 12.8388 2ZM15.0002 6C14.9998 5.5349 14.9967 5.21698 14.9763 4.96784C14.9541 4.69618 14.9165 4.59546 14.8913 4.54601C14.7954 4.35785 14.6424 4.20487 14.4543 4.109C14.4048 4.0838 14.3041 4.04613 14.0324 4.02393C13.7491 4.00078 13.3768 4 12.8003 4H11.2003C10.6237 4 10.2514 4.00078 9.96811 4.02393C9.69644 4.04613 9.59572 4.0838 9.54628 4.109C9.35812 4.20487 9.20514 4.35785 9.10926 4.54601C9.08407 4.59546 9.04639 4.69618 9.0242 4.96784C9.00384 5.21698 9.00078 5.5349 9.00034 6H15.0002Z" fill="#0000CC"/>
</svg>
