<svg width="24" height="24" viewBox="0 0 24 24" fill="none" xmlns="http://www.w3.org/2000/svg">
<path opacity="0.3" fill-rule="evenodd" clip-rule="evenodd" d="M9.96482 2.13639C10.4765 1.9993 11.0671 1.99962 11.8625 2.00005H12.1377C12.9331 1.99962 13.5237 1.9993 14.0354 2.13639C15.4157 2.50626 16.4939 3.58445 16.8638 4.96482C16.9466 5.2737 16.9792 5.61137 16.9921 6.00549C18.3469 6.02358 19.1593 6.1014 19.816 6.43597C20.5686 6.81947 21.1805 7.43139 21.564 8.18404C22 9.03968 22 10.1598 22 12.4V15.6C22 17.8402 22 18.9603 21.564 19.816C21.1805 20.5686 20.5686 21.1805 19.816 21.564C18.9603 22 17.8402 22 15.6 22H8.4C6.15979 22 5.03969 22 4.18404 21.564C3.43139 21.1805 2.81947 20.5686 2.43597 19.816C2 18.9603 2 17.8402 2 15.6V12.4C2 10.1598 2 9.03968 2.43597 8.18404C2.81947 7.43139 3.43139 6.81947 4.18404 6.43597C4.84071 6.10138 5.65315 6.02358 7.00813 6.00548C7.02095 5.61136 7.05363 5.2737 7.13639 4.96482C7.50626 3.58445 8.58445 2.50626 9.96482 2.13639ZM14.9319 5.48246C14.9638 5.60123 14.981 5.74249 14.9902 6H9.00996C9.01915 5.74249 9.03642 5.60123 9.06824 5.48246C9.25318 4.79227 9.79227 4.25318 10.4825 4.06824C10.7047 4.00869 11.0057 4.0001 12.0001 4.0001C12.9944 4.0001 13.2955 4.00869 13.5177 4.06824C14.2079 4.25318 14.747 4.79227 14.9319 5.48246ZM13 11C13 10.4477 12.5523 10 12 10C11.4477 10 11 10.4477 11 11V13H9C8.44772 13 8 13.4477 8 14C8 14.5523 8.44772 15 9 15H11V17C11 17.5523 11.4477 18 12 18C12.5523 18 13 17.5523 13 17V15H15C15.5523 15 16 14.5523 16 14C16 13.4477 15.5523 13 15 13H13V11Z" fill="#0000CC"/>
<path fill-rule="evenodd" clip-rule="evenodd" d="M13 11C13 10.4477 12.5523 10 12 10C11.4477 10 11 10.4477 11 11V13H9C8.44772 13 8 13.4477 8 14C8 14.5523 8.44772 15 9 15H11V17C11 17.5523 11.4477 18 12 18C12.5523 18 13 17.5523 13 17V15H15C15.5523 15 16 14.5523 16 14C16 13.4477 15.5523 13 15 13H13V11Z" fill="#0000CC"/>
</svg>
