<svg width="24" height="24" viewBox="0 0 24 24" fill="none" xmlns="http://www.w3.org/2000/svg">
<path opacity="0.3" d="M9 14.577C7.49871 14.1613 6.17268 13.4972 5.12117 12.8526C3.97438 12.1496 2.95495 11.3162 2.01972 10.3931C2 10.9456 2 11.6016 2 12.3999V15.5999C2 17.8401 2 18.9602 2.43597 19.8158C2.81947 20.5685 3.43139 21.1804 4.18404 21.5639C5.03968 21.9999 6.15979 21.9999 8.4 21.9999H15.6C17.8402 21.9999 18.9603 21.9999 19.816 21.5639C20.5686 21.1804 21.1805 20.5685 21.564 19.8158C22 18.9602 22 17.8401 22 15.5999V12.3999C22 11.6079 22 10.9559 21.9807 10.4061C21.0389 11.3223 20.0294 12.1474 18.8789 12.8526C17.8274 13.4973 16.5013 14.1614 15 14.5771V14.9999C15 15.5522 14.5523 15.9999 14 15.9999C13.4477 15.9999 13 15.5522 13 14.9999V14.9518C12.6718 14.9833 12.3382 15.0001 12.0001 15.0001C11.6619 15.0001 11.3282 14.9833 11 14.9518V14.9999C11 15.5522 10.5523 15.9999 10 15.9999C9.44772 15.9999 9 15.5522 9 14.9999V14.577Z" fill="#0000CC"/>
<path fill-rule="evenodd" clip-rule="evenodd" d="M11.1615 2H12.8386C13.3657 1.99998 13.8205 1.99997 14.195 2.03057C14.5904 2.06287 14.9836 2.13419 15.362 2.32698C15.9265 2.6146 16.3854 3.07355 16.673 3.63803C16.8658 4.01641 16.9372 4.40963 16.9695 4.80498C16.997 5.14211 16.9997 5.54422 17 6.00559C18.3501 6.02389 19.1606 6.10205 19.816 6.43598C20.5226 6.79602 21.1052 7.35741 21.4911 8.04756C20.9151 8.68503 20.3204 9.3067 19.6556 9.85215C19.2261 10.2046 18.6025 10.6764 17.8337 11.1477C17.014 11.6501 16.0518 12.1383 15 12.4872V12C15 11.4477 14.5523 11 14 11C13.4477 11 13 11.4477 13 12V12.9406C12.671 12.9794 12.3373 13.0002 12.0001 13.0002C11.6628 13.0002 11.329 12.9794 11 12.9406V12C11 11.4477 10.5523 11 10 11C9.44773 11 9.00002 11.4477 9.00002 12V12.4872C7.94829 12.1382 6.98608 11.6501 6.16647 11.1477C4.77079 10.2921 3.59102 9.21861 2.52246 8.02349C2.90845 7.34435 3.48567 6.79182 4.18406 6.43598C4.83942 6.10205 5.64993 6.02389 7.00004 6.00559C7.0003 5.54422 7.00304 5.14211 7.03059 4.80498C7.06289 4.40963 7.13421 4.01641 7.327 3.63803C7.61462 3.07355 8.07356 2.6146 8.63805 2.32698C9.01643 2.13419 9.40965 2.06287 9.80499 2.03057C10.1795 1.99997 10.6344 1.99998 11.1615 2ZM14.9761 4.96784C14.9964 5.21699 14.9995 5.5349 14.9999 6H9.00009C9.00053 5.5349 9.00359 5.21698 9.02395 4.96784C9.04614 4.69618 9.08382 4.59546 9.10901 4.54601C9.20489 4.35785 9.35787 4.20487 9.54603 4.109C9.59547 4.0838 9.69619 4.04613 9.96786 4.02393C10.2512 4.00078 10.6235 4 11.2 4H12.8C13.3766 4 13.7488 4.00078 14.0322 4.02393C14.3038 4.04613 14.4046 4.0838 14.454 4.109C14.6422 4.20487 14.7952 4.35785 14.891 4.54601C14.9162 4.59546 14.9539 4.69618 14.9761 4.96784Z" fill="#0000CC"/>
</svg>
