<svg width="24" height="24" viewBox="0 0 24 24" fill="none" xmlns="http://www.w3.org/2000/svg">
<path opacity="0.3" d="M21.9912 10.4878L17.8722 13.783C17.4502 14.121 17.1311 14.3765 16.7675 14.5622C16.4466 14.7262 16.1049 14.846 15.7519 14.9185C15.3519 15.0006 14.9432 15.0004 14.4025 15.0002H9.59758C9.05688 15.0004 8.64815 15.0006 8.24821 14.9185C7.89516 14.846 7.55352 14.7262 7.23257 14.5622C6.869 14.3765 6.54993 14.121 6.12786 13.7831L2.00882 10.4878C1.99999 10.8657 1.99999 11.2882 2 11.7588V16.2414C1.99999 17.0464 1.99998 17.7107 2.04419 18.2519C2.09012 18.814 2.18868 19.3307 2.43598 19.8161C2.81947 20.5687 3.43139 21.1806 4.18404 21.5641C4.66937 21.8114 5.18608 21.91 5.74818 21.9559C6.28936 22.0001 6.95372 22.0001 7.75868 22.0001H16.2413C17.0463 22.0001 17.7106 22.0001 18.2518 21.9559C18.8139 21.91 19.3306 21.8114 19.816 21.5641C20.5686 21.1806 21.1805 20.5687 21.564 19.8161C21.8113 19.3307 21.9099 18.814 21.9558 18.2519C22 17.7107 22 17.0464 22 16.2414V11.7588C22 11.2883 22 10.8658 21.9912 10.4878Z" fill="#0000CC"/>
<path fill-rule="evenodd" clip-rule="evenodd" d="M13.0001 2H11.0001C8.82029 2 6.99822 3.82099 7.00014 6.00163C6.52467 6.00489 6.10912 6.01471 5.74831 6.04419C5.18621 6.09012 4.66951 6.18868 4.18417 6.43597C3.43152 6.81947 2.8196 7.43139 2.43611 8.18404C2.4259 8.20406 2.41595 8.22414 2.40625 8.24428L7.31008 12.1673C7.82866 12.5822 7.98262 12.6993 8.14261 12.7811C8.30309 12.8631 8.4739 12.923 8.65043 12.9592C8.82641 12.9953 9.01981 13 9.68392 13H14.3164C14.9805 13 15.1739 12.9953 15.3499 12.9592C15.5264 12.923 15.6973 12.8631 15.8577 12.7811C16.0177 12.6993 16.1717 12.5822 16.6903 12.1673L21.594 8.24432C21.5843 8.22417 21.5744 8.20408 21.5642 8.18404C21.1807 7.43139 20.5687 6.81947 19.8161 6.43597C19.3308 6.18868 18.8141 6.09012 18.252 6.04419C17.8912 6.01471 17.4756 6.00327 17.0001 6C17.0001 3.79086 15.2093 2 13.0001 2ZM15.0001 6H9.00013C9.00013 4.89543 9.89556 4 11.0001 4H13.0001C14.1047 4 15.0001 4.89543 15.0001 6Z" fill="#0000CC"/>
</svg>
