<svg width="24" height="24" viewBox="0 0 24 24" fill="none" xmlns="http://www.w3.org/2000/svg">
<path opacity="0.3" d="M7 6.00146C6.52454 6.00473 6.10898 6.01455 5.74818 6.04403C5.18608 6.08996 4.66938 6.18852 4.18404 6.43581C3.43139 6.81931 2.81947 7.43123 2.43598 8.18388C2.18868 8.66921 2.09012 9.18592 2.0442 9.74801C1.99998 10.2892 1.99999 10.9536 2 11.7585V16.2411C1.99999 17.0461 1.99998 17.7105 2.0442 18.2517C2.09012 18.8138 2.18868 19.3305 2.43598 19.8158C2.81947 20.5684 3.43139 21.1804 4.18404 21.5639C4.66938 21.8112 5.18608 21.9097 5.74818 21.9556C6.28937 21.9999 6.95372 21.9999 7.75868 21.9998H16.2413C17.0462 21.9999 17.7106 21.9999 18.2518 21.9556C18.8139 21.9097 19.3306 21.8112 19.816 21.5639C20.5686 21.1804 21.1805 20.5684 21.564 19.8158C21.8113 19.3305 21.9099 18.8138 21.9558 18.2517C22 17.7105 22 17.0461 22 16.2412V11.7585C22 10.9536 22 10.2892 21.9558 9.74801C21.9099 9.18592 21.8113 8.66921 21.564 8.18388C21.1805 7.43123 20.5686 6.81931 19.816 6.43581C19.3306 6.18852 18.8139 6.08996 18.2518 6.04403C17.891 6.01455 17.4754 6.00473 16.9999 6.00146H7Z" fill="#0000CC"/>
<path d="M16.9694 4.80498C16.9968 5.14075 16.9997 5.54097 16.9999 6L14.9999 6C14.9995 5.5349 14.9964 5.21699 14.976 4.96784C14.9538 4.69618 14.9162 4.59546 14.891 4.54601C14.7951 4.35785 14.6421 4.20487 14.454 4.109C14.4045 4.08381 14.3038 4.04613 14.0321 4.02393C13.7488 4.00078 13.3765 4.00001 12.8 4.00001H11.2C10.6234 4.00001 10.2511 4.00078 9.96781 4.02393C9.69614 4.04613 9.59542 4.08381 9.54598 4.109C9.35782 4.20487 9.20484 4.35785 9.10896 4.54601C9.08377 4.59546 9.04609 4.69618 9.0239 4.96784C9.00354 5.21699 9.00049 5.5349 9.00004 6L7 6C7.00028 5.54097 7.00311 5.14075 7.03054 4.80498C7.06284 4.40963 7.13416 4.01641 7.32695 3.63803C7.61457 3.07355 8.07351 2.61461 8.638 2.32699C9.01638 2.13419 9.4096 2.06288 9.80494 2.03057C10.1795 1.99997 10.6343 1.99999 11.1614 2H12.8385C13.3656 1.99999 13.8205 1.99997 14.195 2.03057C14.5903 2.06288 14.9836 2.13419 15.3619 2.32699C15.9264 2.61461 16.3854 3.07355 16.673 3.63803C16.8658 4.01641 16.9371 4.40963 16.9694 4.80498Z" fill="#0000CC"/>
<path d="M7 8.5C7 9.88071 5.88071 11 4.5 11C4.32877 11 4.16155 10.9828 4 10.95V10C4 8.89543 4.89543 8 6 8H6.94999C6.98278 8.16156 7 8.32877 7 8.5Z" fill="#0000CC"/>
<path d="M6 20H6.94999C6.98278 19.8384 7 19.6712 7 19.5C7 18.1193 5.88071 17 4.5 17C4.32877 17 4.16155 17.0172 4 17.05V18C4 19.1046 4.89543 20 6 20Z" fill="#0000CC"/>
<path d="M20 18V17.05C19.8384 17.0172 19.6712 17 19.5 17C18.1193 17 17 18.1193 17 19.5C17 19.6712 17.0172 19.8384 17.05 20H18C19.1046 20 20 19.1046 20 18Z" fill="#0000CC"/>
<path d="M18 8H17.05C17.0172 8.16156 17 8.32877 17 8.5C17 9.88071 18.1193 11 19.5 11C19.6712 11 19.8384 10.9828 20 10.95V10C20 8.89543 19.1046 8 18 8Z" fill="#0000CC"/>
<path d="M15 14C15 15.6569 13.6569 17 12 17C10.3431 17 9 15.6569 9 14C9 12.3431 10.3431 11 12 11C13.6569 11 15 12.3431 15 14Z" fill="#0000CC"/>
</svg>
