<svg width="24" height="24" viewBox="0 0 24 24" fill="none" xmlns="http://www.w3.org/2000/svg">
<path opacity="0.3" d="M21.9904 10.4534C21.6446 10.7803 21.2907 11.0972 20.9242 11.3979C20.4396 11.7955 19.7413 12.3237 18.8789 12.8524C17.1693 13.9004 14.7342 14.9999 12 14.9999C9.26581 14.9999 6.83065 13.9004 5.12111 12.8524C4.19991 12.2877 3.04799 11.3144 2.01204 10.3652C1.99999 10.7737 1.99999 11.2366 2 11.7585V16.2412C1.99999 17.0461 1.99998 17.7105 2.04419 18.2517C2.09012 18.8138 2.18868 19.3305 2.43598 19.8158C2.81947 20.5685 3.43139 21.1804 4.18404 21.5639C4.66937 21.8112 5.18608 21.9097 5.74818 21.9557C6.28936 21.9999 6.95372 21.9999 7.75868 21.9999H16.2413C17.0463 21.9999 17.7106 21.9999 18.2518 21.9557C18.8139 21.9097 19.3306 21.8112 19.816 21.5639C20.5686 21.1804 21.1805 20.5685 21.564 19.8158C21.8113 19.3305 21.9099 18.8138 21.9558 18.2517C22 17.7105 22 17.0461 22 16.2412V11.7585C22 11.2738 22 10.84 21.9904 10.4534Z" fill="#0000CC"/>
<path fill-rule="evenodd" clip-rule="evenodd" d="M12.8381 2H11.161C10.6339 1.99998 10.1791 1.99997 9.80453 2.03057C9.40919 2.06287 9.01597 2.13419 8.63759 2.32698C8.0731 2.6146 7.61416 3.07354 7.32654 3.63803C7.13375 4.01641 7.06243 4.40963 7.03013 4.80497C7.00267 5.14115 6.99986 5.54191 6.99959 6.00163C6.52411 6.0049 6.10855 6.01472 5.74774 6.0442C5.18564 6.09012 4.66894 6.18869 4.1836 6.43598C3.45602 6.8067 2.85995 7.39089 2.47461 8.10931C3.07399 8.71881 3.68753 9.31326 4.34403 9.85193C4.77358 10.2044 5.39715 10.6762 6.16595 11.1474C7.71891 12.0995 9.78375 13 11.9996 13C14.2154 13 16.2802 12.0995 17.8332 11.1474C18.602 10.6762 19.2255 10.2044 19.6551 9.85193C20.3138 9.31145 20.9263 8.718 21.5246 8.10951C21.1393 7.39099 20.5432 6.80673 19.8155 6.43598C19.3302 6.18869 18.8135 6.09012 18.2514 6.0442C17.8906 6.01472 17.475 6.0049 16.9995 6.00163C16.9993 5.54191 16.9965 5.14115 16.969 4.80497C16.9367 4.40963 16.8654 4.01641 16.6726 3.63803C16.385 3.07354 15.926 2.6146 15.3615 2.32698C14.9832 2.13419 14.5899 2.06287 14.1946 2.03057C13.82 1.99997 13.3652 1.99998 12.8381 2ZM8.99963 6H14.9995C14.999 5.5349 14.996 5.21698 14.9756 4.96784C14.9534 4.69618 14.9158 4.59546 14.8906 4.54601C14.7947 4.35785 14.6417 4.20487 14.4536 4.109C14.4041 4.0838 14.3034 4.04613 14.0317 4.02393C13.7484 4.00078 13.3761 4 12.7996 4H11.1996C10.623 4 10.2507 4.00078 9.9674 4.02393C9.69573 4.04613 9.59502 4.0838 9.54557 4.109C9.35741 4.20487 9.20443 4.35785 9.10856 4.54601C9.08336 4.59546 9.04569 4.69618 9.02349 4.96784C9.00313 5.21698 9.00008 5.5349 8.99963 6Z" fill="#0000CC"/>
</svg>
