<svg width="24" height="24" viewBox="0 0 24 24" fill="none" xmlns="http://www.w3.org/2000/svg">
<path opacity="0.3" d="M8.8 2H13L20 9V17.2C20 18.8802 20 19.7202 19.673 20.362C19.3854 20.9265 18.9265 21.3854 18.362 21.673C17.7202 22 16.8802 22 15.2 22H8.8C7.11984 22 6.27976 22 5.63803 21.673C5.07354 21.3854 4.6146 20.9265 4.32698 20.362C4 19.7202 4 18.8802 4 17.2V6.8C4 5.11984 4 4.27976 4.32698 3.63803C4.6146 3.07354 5.07354 2.6146 5.63803 2.32698C6.27976 2 7.11984 2 8.8 2Z" fill="#0000CC"/>
<path d="M13 8C13 8.55228 13.4477 9 14 9H20L13 2V8Z" fill="#0000CC"/>
<path d="M13.9701 11.7575C13.8362 11.2217 13.2933 10.8959 12.7575 11.0299C12.2217 11.1638 11.8959 11.7067 12.0299 12.2425L13.5299 18.2425C13.6412 18.6877 14.0411 19 14.5 19C14.9589 19 15.3589 18.6877 15.4701 18.2425L16.9701 12.2425C17.1041 11.7067 16.7783 11.1638 16.2425 11.0299C15.7067 10.8959 15.1638 11.2217 15.0299 11.7575L14.5 13.8769L13.9701 11.7575Z" fill="#0000CC"/>
<path d="M10.5078 13C11.06 12.9957 11.5043 12.5445 11.5 11.9922C11.4957 11.4399 11.0445 10.9957 10.4922 11C9.90741 11.0046 9.35445 11.019 8.85195 11.2272C8.11687 11.5317 7.53284 12.1157 7.22836 12.8508C7.09336 13.1767 7.04386 13.5066 7.02135 13.8364C6.99998 14.1497 6.99999 14.5282 7 14.9668V15.0308C6.99999 15.4695 6.99998 15.8479 7.02135 16.1612C7.04386 16.491 7.09336 16.8209 7.22836 17.1469C7.53285 17.882 8.11687 18.466 8.85195 18.7705C9.35445 18.9786 9.90741 18.9931 10.4922 18.9976C11.0445 19.0019 11.4957 18.5577 11.5 18.0054C11.5043 17.4532 11.06 17.002 10.5078 16.9977C9.86876 16.9927 9.70487 16.959 9.61732 16.9227C9.37229 16.8212 9.17762 16.6265 9.07612 16.3815C9.05888 16.3399 9.03227 16.2531 9.01671 16.0251C9.00054 15.7881 9 15.4784 9 14.9988C9 14.5192 9.00054 14.2096 9.01671 13.9726C9.03227 13.7446 9.05888 13.6578 9.07612 13.6161C9.17762 13.3711 9.37229 13.1764 9.61732 13.0749C9.70487 13.0387 9.86876 13.0049 10.5078 13Z" fill="#0000CC"/>
</svg>
