<svg width="24" height="24" viewBox="0 0 24 24" fill="none" xmlns="http://www.w3.org/2000/svg">
<g opacity="0.3">
<path d="M6 7.41421V16C6 19.3137 8.68629 22 12 22C14.323 22 16.3376 20.6799 17.3347 18.7489L15.8094 17.2236C15.2924 18.8342 13.7824 20 12 20C9.79086 20 8 18.2091 8 16V9.41421L6 7.41421Z" fill="#0000CC"/>
<path d="M9.33333 10.7475V15.9845C9.33333 17.4573 10.5272 18.6512 12 18.6512C13.441 18.6512 14.6151 17.5081 14.665 16.0792L12.6667 14.0809V15.9845C12.6667 16.3527 12.3682 16.6512 12 16.6512C11.6318 16.6512 11.3333 16.3527 11.3333 15.9845V12.7475L9.33333 10.7475Z" fill="#0000CC"/>
<path d="M12.6667 6.33333V8.45265L14.6667 10.4526V6.33333C14.6667 3.9401 12.7266 2 10.3333 2C9.19116 2 8.15219 2.4419 7.37807 3.16405L8.79388 4.57986C9.20471 4.21888 9.74346 4 10.3333 4C11.622 4 12.6667 5.04467 12.6667 6.33333Z" fill="#0000CC"/>
<path d="M9.84254 5.62852L11.3333 7.11931V6.5C11.3333 5.94772 10.8856 5.5 10.3333 5.5C10.155 5.5 9.98753 5.54669 9.84254 5.62852Z" fill="#0000CC"/>
<path d="M18 13.786V5.93023C18 5.37795 17.5523 4.93023 17 4.93023C16.4477 4.93023 16 5.37795 16 5.93023V11.786L18 13.786Z" fill="#0000CC"/>
</g>
<path fill-rule="evenodd" clip-rule="evenodd" d="M2.29289 2.29289C2.68342 1.90237 3.31658 1.90237 3.70711 2.29289L21.7071 20.2929C22.0976 20.6834 22.0976 21.3166 21.7071 21.7071C21.3166 22.0976 20.6834 22.0976 20.2929 21.7071L2.29289 3.70711C1.90237 3.31658 1.90237 2.68342 2.29289 2.29289Z" fill="#0000CC"/>
</svg>
