<svg width="24" height="24" viewBox="0 0 24 24" fill="none" xmlns="http://www.w3.org/2000/svg">
<path fill-rule="evenodd" clip-rule="evenodd" d="M2.29289 2.29289C2.68342 1.90237 3.31658 1.90237 3.70711 2.29289L21.7071 20.2929C22.0976 20.6834 22.0976 21.3166 21.7071 21.7071C21.3166 22.0976 20.6834 22.0976 20.2929 21.7071L2.29289 3.70711C1.90237 3.31658 1.90237 2.68342 2.29289 2.29289Z" fill="#0000CC"/>
<g opacity="0.3">
<path d="M15.5357 16.9501L14.1215 15.5359L12.0003 17.6571C10.4382 19.2192 7.90554 19.2192 6.34345 17.6571C4.78135 16.095 4.78135 13.5623 6.34345 12.0002L8.46467 9.87901L7.05046 8.46479L4.92923 10.586C2.58609 12.9292 2.58609 16.7281 4.92923 19.0713C7.27238 21.4144 11.0714 21.4144 13.4145 19.0713L15.5357 16.9501Z" fill="#0000CC"/>
<path d="M9.40748 10.8218L7.29722 12.9321C6.25582 13.9735 6.25582 15.6619 7.29722 16.7033C8.33862 17.7447 10.0271 17.7447 11.0685 16.7033L13.1787 14.5931L11.7645 13.1788L9.65424 15.2891C9.39389 15.5494 8.97178 15.5494 8.71143 15.2891C8.45108 15.0287 8.45108 14.6066 8.71143 14.3463L10.8217 12.236L9.40748 10.8218Z" fill="#0000CC"/>
<path d="M16.4786 8.46469L14.5889 10.3545L16.0031 11.7687L17.8929 9.87891C19.5851 8.18664 19.5851 5.44292 17.8929 3.75065C16.2006 2.05838 13.4569 2.05838 11.7646 3.75065L9.87483 5.64042L11.289 7.05464L13.1788 5.16486C14.09 4.25364 15.5674 4.25364 16.4786 5.16486C17.3899 6.07609 17.3899 7.55347 16.4786 8.46469Z" fill="#0000CC"/>
<path d="M12.2318 7.99744L13.6461 9.41166L14.9329 8.12484C15.3234 7.73432 15.3234 7.10115 14.9329 6.71063C14.5424 6.32011 13.9092 6.32011 13.5187 6.71063L12.2318 7.99744Z" fill="#0000CC"/>
<path d="M16.9459 12.7115L18.3601 14.1257L20.5349 11.9509C20.9254 11.5604 20.9254 10.9272 20.5349 10.5367C20.1444 10.1462 19.5112 10.1462 19.1207 10.5367L16.9459 12.7115Z" fill="#0000CC"/>
</g>
</svg>
