<svg width="24" height="24" viewBox="0 0 24 24" fill="none" xmlns="http://www.w3.org/2000/svg">
<path opacity="0.3" fill-rule="evenodd" clip-rule="evenodd" d="M7 6.2C7 5.0799 7 4.51984 7.21799 4.09202C7.40973 3.71569 7.71569 3.40973 8.09202 3.21799C8.51984 3 9.0799 3 10.2 3H18.8C19.9201 3 20.4802 3 20.908 3.21799C21.2843 3.40973 21.5903 3.71569 21.782 4.09202C22 4.51984 22 5.0799 22 6.2V17.8C22 18.9201 22 19.4802 21.782 19.908C21.5903 20.2843 21.2843 20.5903 20.908 20.782C20.4802 21 19.9201 21 18.8 21H10.2C9.0799 21 8.51984 21 8.09202 20.782C7.71569 20.5903 7.40973 20.2843 7.21799 19.908C7 19.4802 7 18.9201 7 17.8V6.2Z" fill="#0000CC"/>
<path d="M2 5C2 3.89543 2.89543 3 4 3C5.10457 3 6 3.89543 6 5V19C6 20.1046 5.10457 21 4 21C2.89543 21 2 20.1046 2 19V5Z" fill="#0000CC"/>
<path d="M9 7.6C9 7.03995 9 6.75992 9.10899 6.54601C9.20487 6.35785 9.35785 6.20487 9.54601 6.10899C9.75992 6 10.0399 6 10.6 6H18.4C18.9601 6 19.2401 6 19.454 6.10899C19.6422 6.20487 19.7951 6.35785 19.891 6.54601C20 6.75992 20 7.03995 20 7.6V9.4C20 9.96005 20 10.2401 19.891 10.454C19.7951 10.6422 19.6422 10.7951 19.454 10.891C19.2401 11 18.9601 11 18.4 11H10.6C10.0399 11 9.75992 11 9.54601 10.891C9.35785 10.7951 9.20487 10.6422 9.10899 10.454C9 10.2401 9 9.96005 9 9.4V7.6Z" fill="#0000CC"/>
<path d="M14 15.5C14 16.8807 12.8807 18 11.5 18C10.1193 18 9 16.8807 9 15.5C9 14.1193 10.1193 13 11.5 13C12.8807 13 14 14.1193 14 15.5Z" fill="#0000CC"/>
<path d="M15 14C15 13.4477 15.4477 13 16 13H19C19.5523 13 20 13.4477 20 14C20 14.5523 19.5523 15 19 15H16C15.4477 15 15 14.5523 15 14Z" fill="#0000CC"/>
<path d="M15 17C15 16.4477 15.4477 16 16 16H19C19.5523 16 20 16.4477 20 17C20 17.5523 19.5523 18 19 18H16C15.4477 18 15 17.5523 15 17Z" fill="#0000CC"/>
</svg>
