<svg width="24" height="24" viewBox="0 0 24 24" fill="none" xmlns="http://www.w3.org/2000/svg">
<path opacity="0.3" fill-rule="evenodd" clip-rule="evenodd" d="M4 11.8385V4H20V11.8386C20 12.3657 20 12.8205 19.9694 13.195C19.9371 13.5904 19.8658 13.9836 19.673 14.362C19.3854 14.9265 18.9265 15.3854 18.362 15.673C17.9836 15.8658 17.5904 15.9371 17.195 15.9694C16.8205 16 16.3657 16 15.8385 16H8.16145C7.6343 16 7.17954 16 6.80497 15.9694C6.40963 15.9371 6.01641 15.8658 5.63803 15.673C5.07355 15.3854 4.6146 14.9265 4.32698 14.362C4.13419 13.9836 4.06287 13.5904 4.03057 13.195C3.99997 12.8205 3.99998 12.3657 4 11.8385Z" fill="#0000CC"/>
<path d="M3 4H21C21.5523 4 22 3.55228 22 3C22 2.44772 21.5523 2 21 2H3C2.44772 2 2 2.44772 2 3C2 3.55228 2.44772 4 3 4Z" fill="#0000CC"/>
<path d="M13.0002 16H11.0002V17.4338L6.48566 20.1425C6.01207 20.4267 5.85851 21.0409 6.14266 21.5145C6.42681 21.9881 7.04107 22.1416 7.51465 21.8575L11.0002 19.7662V21C11.0002 21.5523 11.4479 22 12.0002 22C12.5524 22 13.0002 21.5523 13.0002 21V19.7662L16.4857 21.8575C16.9592 22.1416 17.5735 21.9881 17.8576 21.5145C18.1418 21.0409 17.9882 20.4267 17.5146 20.1425L13.0002 17.4338V16Z" fill="#0000CC"/>
<path d="M12 6C12.5523 6 13 6.44772 13 7V11C13 11.5523 12.5523 12 12 12C11.4477 12 11 11.5523 11 11V7C11 6.44772 11.4477 6 12 6Z" fill="#0000CC"/>
<path d="M16 7C16.5523 7 17 7.44772 17 8V11C17 11.5523 16.5523 12 16 12C15.4477 12 15 11.5523 15 11V8C15 7.44772 15.4477 7 16 7Z" fill="#0000CC"/>
<path d="M8 8C8.55229 8 9 8.44772 9 9V11C9 11.5523 8.55229 12 8 12C7.44772 12 7 11.5523 7 11V9C7 8.44772 7.44772 8 8 8Z" fill="#0000CC"/>
</svg>
