<svg width="24" height="24" viewBox="0 0 24 24" fill="none" xmlns="http://www.w3.org/2000/svg">
<path opacity="0.3" d="M9.58767 2.19482C9.85957 2.13753 10.1404 2.13753 10.4123 2.19482C10.7267 2.26107 11.0066 2.42233 11.2292 2.55056L11.29 2.58547L13.2023 3.67825C13.3006 3.73443 13.5 3.84303 13.5 3.84303C13.5 3.84303 13.6994 3.73444 13.7977 3.67825L14.1466 3.47885C14.5082 3.27223 14.837 3.08428 15.1161 2.95708C15.4001 2.82763 15.7812 2.68791 16.2153 2.7349C16.7775 2.79577 17.2878 3.09187 17.6196 3.54988C17.8758 3.90347 17.9435 4.30366 17.972 4.61446C17.9979 4.89638 17.9999 5.24089 18 5.61973V22.0001H7.75868C6.95372 22.0001 6.28937 22.0001 5.74818 21.9559C5.18608 21.91 4.66938 21.8114 4.18404 21.5641C3.43139 21.1806 2.81947 20.5687 2.43598 19.8161C2.18869 19.3307 2.09012 18.814 2.0442 18.2519C1.99998 17.7107 1.99999 17.0464 2 16.2414L2 5.71506C1.99997 5.29864 1.99994 4.91988 2.02796 4.61446C2.05647 4.30366 2.12422 3.90347 2.3804 3.54988C2.71223 3.09187 3.22246 2.79577 3.78475 2.7349C4.21886 2.68791 4.59993 2.82763 4.88392 2.95708C5.16301 3.08428 5.49185 3.27223 5.85339 3.47886L6.20232 3.67825C6.35688 3.76657 6.49506 3.8406 6.49506 3.8406C6.49506 3.8406 6.75272 3.70394 6.79769 3.67825L8.71004 2.58547L8.77081 2.55056C8.99337 2.42233 9.27326 2.26107 9.58767 2.19482Z" fill="#0000CC"/>
<path d="M9 9.5C9 8.94771 9.44771 8.5 10 8.5C10.5523 8.5 11 8.94771 11 9.5H12C12.5523 9.5 13 9.94771 13 10.5C13 11.0523 12.5523 11.5 12 11.5H9.25C9.11193 11.5 9 11.6119 9 11.75C9 11.8881 9.11193 12 9.25 12H11C12.1046 12 13 12.8954 13 14V14.5C13 15.6046 12.1046 16.5 11 16.5C11 17.0523 10.5523 17.5 10 17.5C9.44771 17.5 9 17.0523 9 16.5H8C7.44772 16.5 7 16.0523 7 15.5C7 14.9477 7.44772 14.5 8 14.5H10.75C10.8881 14.5 11 14.3881 11 14.25C11 14.1119 10.8881 14 10.75 14H9C7.89543 14 7 13.1046 7 12V11.5C7 10.3954 7.89543 9.5 9 9.5Z" fill="#0000CC"/>
<path d="M19 22.0001H18L18 12.0001H21C21.5523 12.0001 22 12.4478 22 13.0001V19.0001C22 20.657 20.6569 22.0001 19 22.0001Z" fill="#0000CC"/>
</svg>
