<svg width="24" height="24" viewBox="0 0 24 24" fill="none" xmlns="http://www.w3.org/2000/svg">
<path opacity="0.3" d="M10.4123 2.19482C10.1404 2.13753 9.85957 2.13753 9.58767 2.19482C9.27326 2.26107 8.99337 2.42233 8.77081 2.55056L8.71004 2.58547L6.79769 3.67825C6.75272 3.70394 6.49506 3.8406 6.49506 3.8406C6.49506 3.8406 6.35688 3.76657 6.20232 3.67825L5.85339 3.47886C5.49185 3.27223 5.16301 3.08428 4.88392 2.95708C4.59993 2.82763 4.21886 2.68791 3.78475 2.7349C3.22246 2.79577 2.71223 3.09187 2.3804 3.54988C2.12422 3.90347 2.05647 4.30366 2.02796 4.61446C1.99994 4.91988 1.99997 5.29864 2 5.71506L2 16.2414C1.99999 17.0464 1.99998 17.7107 2.0442 18.2519C2.09012 18.814 2.18869 19.3307 2.43598 19.8161C2.81947 20.5687 3.43139 21.1806 4.18404 21.5641C4.66938 21.8114 5.18608 21.91 5.74818 21.9559C6.28937 22.0001 6.95372 22.0001 7.75868 22.0001H18V5.6197C17.9999 5.24087 17.9979 4.89637 17.972 4.61446C17.9435 4.30366 17.8758 3.90347 17.6196 3.54988C17.2878 3.09187 16.7775 2.79577 16.2153 2.7349C15.7812 2.68791 15.4001 2.82763 15.1161 2.95708C14.837 3.08428 14.5082 3.27223 14.1466 3.47885L13.7977 3.67825C13.6994 3.73444 13.5 3.84303 13.5 3.84303C13.5 3.84303 13.3006 3.73443 13.2023 3.67825L11.29 2.58547L11.2292 2.55056C11.0066 2.42233 10.7267 2.26107 10.4123 2.19482Z" fill="#0000CC"/>
<path d="M8 8C7.44771 8 7 8.44771 7 9C7 9.55229 7.44771 10 8 10H12C12.5523 10 13 9.55229 13 9C13 8.44771 12.5523 8 12 8H8Z" fill="#0000CC"/>
<path d="M6 12C5.44772 12 5 12.4477 5 13C5 13.5523 5.44772 14 6 14H14C14.5523 14 15 13.5523 15 13C15 12.4477 14.5523 12 14 12H6Z" fill="#0000CC"/>
<path d="M6 16C5.44772 16 5 16.4477 5 17C5 17.5523 5.44772 18 6 18H14C14.5523 18 15 17.5523 15 17C15 16.4477 14.5523 16 14 16H6Z" fill="#0000CC"/>
<path d="M21 12.0001H18L18 22.0001H19C20.6569 22.0001 22 20.657 22 19.0001V13.0001C22 12.4478 21.5523 12.0001 21 12.0001Z" fill="#0000CC"/>
</svg>
