<svg width="24" height="24" viewBox="0 0 24 24" fill="none" xmlns="http://www.w3.org/2000/svg">
<path fill-rule="evenodd" clip-rule="evenodd" d="M13 5C13 3.34315 11.6569 2 10 2C9.44772 2 9 2.44772 9 3C9 3.55228 9.44772 4 10 4C10.5523 4 11 4.44772 11 5V8.67452C11 8.70251 11 8.73028 10.9999 8.75782C10.9996 9.16472 10.9992 9.52346 11.0829 9.87191C11.1564 10.178 11.2776 10.4707 11.4421 10.7391C11.6293 11.0446 11.8832 11.298 12.1712 11.5855C12.1907 11.605 12.2104 11.6246 12.2302 11.6444L12.5858 12L12.2302 12.3556C12.2104 12.3754 12.1907 12.3951 12.1712 12.4145C11.8832 12.702 11.6293 12.9554 11.4421 13.2609C11.2776 13.5293 11.1564 13.822 11.0829 14.1281C10.9992 14.4765 10.9996 14.8353 10.9999 15.2422C11 15.2697 11 15.2975 11 15.3255V19C11 19.5523 10.5523 20 10 20C9.44772 20 9 20.4477 9 21C9 21.5523 9.44772 22 10 22C11.6569 22 13 20.6569 13 19V15.3255C13 14.7887 13.0064 14.6833 13.0276 14.595C13.0521 14.4929 13.0925 14.3954 13.1474 14.3059C13.1948 14.2285 13.2648 14.1494 13.6444 13.7698L14.7071 12.7071C14.8946 12.5196 15 12.2652 15 12C15 11.7348 14.8946 11.4804 14.7071 11.2929L13.6444 10.2302C13.2648 9.85059 13.1948 9.77151 13.1474 9.69407C13.0925 9.6046 13.0521 9.50705 13.0276 9.40502C13.0064 9.3167 13 9.2113 13 8.67452V5Z" fill="#0000CC"/>
</svg>
