<svg width="24" height="24" viewBox="0 0 24 24" fill="none" xmlns="http://www.w3.org/2000/svg">
<path fill-rule="evenodd" clip-rule="evenodd" d="M11 5C11 3.34315 12.3431 2 14 2C14.5523 2 15 2.44772 15 3C15 3.55228 14.5523 4 14 4C13.4477 4 13 4.44772 13 5V8.67452C13 8.70251 13 8.73028 13.0001 8.75782C13.0004 9.16472 13.0008 9.52346 12.9171 9.87191C12.8436 10.178 12.7224 10.4707 12.5579 10.7391C12.3707 11.0446 12.1168 11.298 11.8288 11.5855C11.8093 11.605 11.7896 11.6246 11.7698 11.6444L11.4142 12L11.7698 12.3556C11.7896 12.3754 11.8093 12.3951 11.8288 12.4145C12.1168 12.702 12.3707 12.9554 12.5579 13.2609C12.7224 13.5293 12.8436 13.822 12.9171 14.1281C13.0008 14.4765 13.0004 14.8353 13.0001 15.2422C13 15.2697 13 15.2975 13 15.3255V19C13 19.5523 13.4477 20 14 20C14.5523 20 15 20.4477 15 21C15 21.5523 14.5523 22 14 22C12.3431 22 11 20.6569 11 19V15.3255C11 14.7887 10.9936 14.6833 10.9724 14.595C10.9479 14.4929 10.9075 14.3954 10.8526 14.3059C10.8052 14.2285 10.7352 14.1494 10.3556 13.7698L9.29289 12.7071C9.10536 12.5196 9 12.2652 9 12C9 11.7348 9.10536 11.4804 9.29289 11.2929L10.3556 10.2302C10.7352 9.85059 10.8052 9.77151 10.8526 9.69407C10.9075 9.6046 10.9479 9.50705 10.9724 9.40502C10.9936 9.3167 11 9.2113 11 8.67452V5Z" fill="#0000CC"/>
</svg>
