<svg width="24" height="24" viewBox="0 0 24 24" fill="none" xmlns="http://www.w3.org/2000/svg">
<path fill-rule="evenodd" clip-rule="evenodd" d="M2 5.5C2 3.567 3.567 2 5.5 2C7.433 2 9 3.567 9 5.5C9 7.08551 7.94574 8.42479 6.5 8.85506V11.5351C7.08835 11.1948 7.77143 11 8.5 11H14.5C15.4944 11 15.7954 10.9914 16.0176 10.9319C16.7078 10.7469 17.2469 10.2078 17.4319 9.51764C17.4693 9.37803 17.4866 9.20736 17.4943 8.85335C16.0515 8.42124 15 7.08341 15 5.5C15 3.567 16.567 2 18.5 2C20.433 2 22 3.567 22 5.5C22 7.0871 20.9436 8.42748 19.4956 8.85636C19.486 9.31069 19.456 9.69088 19.3637 10.0353C18.9938 11.4156 17.9156 12.4938 16.5353 12.8637C16.0236 13.0008 15.433 13.0005 14.6376 13C14.5924 13 14.5465 13 14.5 13H8.5C7.39543 13 6.5 13.8954 6.5 15V15.1449C7.94574 15.5752 9 16.9145 9 18.5C9 20.433 7.433 22 5.5 22C3.567 22 2 20.433 2 18.5C2 16.9145 3.05426 15.5752 4.5 15.1449V8.85506C3.05426 8.42479 2 7.08551 2 5.5Z" fill="#0000CC"/>
</svg>
