<svg width="24" height="24" viewBox="0 0 24 24" fill="none" xmlns="http://www.w3.org/2000/svg">
<path fill-rule="evenodd" clip-rule="evenodd" d="M3 5.5C3 3.567 4.567 2 6.5 2C8.433 2 10 3.567 10 5.5C10 7.04382 9.00046 8.35418 7.61323 8.81924C7.96972 10.0779 9.12717 11 10.5 11H14.1449C14.5752 9.55426 15.9145 8.5 17.5 8.5C19.433 8.5 21 10.067 21 12C21 13.933 19.433 15.5 17.5 15.5C15.9145 15.5 14.5752 14.4457 14.1449 13H10.5C9.37439 13 8.33566 12.6281 7.5 12.0004V15C7.5 15.0482 7.49659 15.0956 7.49 15.142C8.94088 15.569 10 16.9108 10 18.5C10 20.433 8.433 22 6.5 22C4.567 22 3 20.433 3 18.5C3 16.9108 4.05912 15.569 5.51001 15.142C5.50341 15.0956 5.5 15.0482 5.5 15V8.85506C4.05426 8.42479 3 7.08551 3 5.5Z" fill="#0000CC"/>
</svg>
