<svg width="24" height="24" viewBox="0 0 24 24" fill="none" xmlns="http://www.w3.org/2000/svg">
<path fill-rule="evenodd" clip-rule="evenodd" d="M3 5.5C3 3.567 4.567 2 6.5 2C8.433 2 10 3.567 10 5.5C10 7.08551 8.94574 8.42479 7.5 8.85506V15.1449C8.94574 15.5752 10 16.9145 10 18.5C10 20.433 8.433 22 6.5 22C4.567 22 3 20.433 3 18.5C3 16.9145 4.05426 15.5752 5.5 15.1449V8.85506C4.05426 8.42479 3 7.08551 3 5.5ZM14.2929 2.29289C14.6834 1.90237 15.3166 1.90237 15.7071 2.29289L17.5 4.08579L19.2929 2.29289C19.6834 1.90237 20.3166 1.90237 20.7071 2.29289C21.0976 2.68342 21.0976 3.31658 20.7071 3.70711L18.9142 5.5L20.7071 7.29289C21.0976 7.68342 21.0976 8.31658 20.7071 8.70711C20.3166 9.09763 19.6834 9.09763 19.2929 8.70711L17.5 6.91421L15.7071 8.70711C15.3166 9.09763 14.6834 9.09763 14.2929 8.70711C13.9024 8.31658 13.9024 7.68342 14.2929 7.29289L16.0858 5.5L14.2929 3.70711C13.9024 3.31658 13.9024 2.68342 14.2929 2.29289ZM17.5 11C18.0523 11 18.5 11.4477 18.5 12V15.1449C19.9457 15.5752 21 16.9145 21 18.5C21 20.433 19.433 22 17.5 22C15.567 22 14 20.433 14 18.5C14 16.9145 15.0543 15.5752 16.5 15.1449V12C16.5 11.4477 16.9477 11 17.5 11Z" fill="#0000CC"/>
</svg>
