<svg width="24" height="24" viewBox="0 0 24 24" fill="none" xmlns="http://www.w3.org/2000/svg">
<path fill-rule="evenodd" clip-rule="evenodd" d="M9.37531 2.21917C9.80657 1.87416 10.4359 1.94408 10.7809 2.37534L12.7809 4.87534C13.073 5.24056 13.073 5.75951 12.7809 6.12473L10.7809 8.62473C10.4359 9.05599 9.80657 9.12592 9.37531 8.78091C8.94404 8.4359 8.87412 7.8066 9.21913 7.37534L9.91937 6.50004H9.2C8.62345 6.50004 8.25117 6.50081 7.96784 6.52396C7.69617 6.54616 7.59545 6.58384 7.54601 6.60903C7.35785 6.7049 7.20487 6.85788 7.10899 7.04605C7.0838 7.09549 7.04612 7.19621 7.02393 7.46787C7.00078 7.75121 7 8.12348 7 8.70004V15.145C8.44574 15.5753 9.5 16.9145 9.5 18.5C9.5 20.433 7.933 22 6 22C4.067 22 2.5 20.433 2.5 18.5C2.5 16.9145 3.55426 15.5753 5 15.145L5 8.66149C4.99998 8.13434 4.99997 7.67958 5.03057 7.30501C5.06287 6.90966 5.13419 6.51645 5.32698 6.13807C5.6146 5.57358 6.07354 5.11464 6.63803 4.82702C7.01641 4.63422 7.40963 4.56291 7.80497 4.53061C8.17954 4.5 8.63431 4.50002 9.16146 4.50004L9.91937 4.50004L9.21913 3.62473C8.87412 3.19347 8.94404 2.56418 9.37531 2.21917ZM14.5 5.50004C14.5 3.56704 16.067 2.00004 18 2.00004C19.933 2.00004 21.5 3.56704 21.5 5.50004C21.5 7.08555 20.4457 8.42482 19 8.8551V15.3386C19 15.8657 19 16.3205 18.9694 16.6951C18.9371 17.0904 18.8658 17.4836 18.673 17.862C18.3854 18.4265 17.9265 18.8854 17.362 19.1731C16.9836 19.3659 16.5904 19.4372 16.195 19.4695C15.8205 19.5001 15.3657 19.5001 14.8386 19.5H14.0806L14.7809 20.3753C15.1259 20.8066 15.056 21.4359 14.6247 21.7809C14.1934 22.1259 13.5641 22.056 13.2191 21.6247L11.2191 19.1247C10.927 18.7595 10.927 18.2406 11.2191 17.8753L13.2191 15.3753C13.5641 14.9441 14.1934 14.8742 14.6247 15.2192C15.056 15.5642 15.1259 16.1935 14.7809 16.6247L14.0806 17.5H14.8C15.3766 17.5 15.7488 17.4993 16.0322 17.4761C16.3038 17.4539 16.4045 17.4162 16.454 17.391C16.6422 17.2952 16.7951 17.1422 16.891 16.954C16.9162 16.9046 16.9539 16.8039 16.9761 16.5322C16.9992 16.2489 17 15.8766 17 15.3V8.8551C15.5543 8.42482 14.5 7.08555 14.5 5.50004Z" fill="#0000CC"/>
</svg>
