<svg width="24" height="24" viewBox="0 0 24 24" fill="none" xmlns="http://www.w3.org/2000/svg">
<path d="M17.8385 3H6.16146C5.63436 2.99999 5.17952 2.99997 4.80498 3.03057C4.40963 3.06287 4.01641 3.13419 3.63803 3.32698C3.07355 3.6146 2.6146 4.07355 2.32698 4.63803C2.13419 5.01641 2.06287 5.40963 2.03057 5.80498C1.99997 6.17952 1.99999 6.63429 2 7.16139V14.032C1.99999 14.4706 1.99998 14.8492 2.02135 15.1624C2.04386 15.4922 2.09336 15.8221 2.22837 16.1481C2.53285 16.8831 3.11687 17.4672 3.85195 17.7716C4.17788 17.9066 4.50779 17.9562 4.83762 17.9787C4.98903 17.989 5.15567 17.9943 5.33698 17.9971C5.50009 17.6536 5.67818 17.4152 5.76024 17.3055C5.94353 17.0604 6.17571 16.8008 6.33716 16.6204L9.23535 13.3756L9.25297 13.3558C9.32251 13.2777 9.47229 13.1093 9.62688 12.9624C9.81436 12.7842 10.2164 12.4296 10.8303 12.2063C11.5864 11.9312 12.4134 11.9312 13.1695 12.2063C13.7834 12.4296 14.1854 12.7842 14.3729 12.9624C14.5275 13.1093 14.6773 13.2777 14.7468 13.3558L14.7644 13.3756L17.6627 16.6204C17.8241 16.8009 18.0563 17.0604 18.2396 17.3055C18.3216 17.4152 18.4997 17.6536 18.6628 17.9971C18.8442 17.9943 19.0109 17.989 19.1624 17.9787C19.4922 17.9562 19.8221 17.9066 20.1481 17.7716C20.8831 17.4672 21.4672 16.8831 21.7716 16.1481C21.9066 15.8221 21.9561 15.4922 21.9787 15.1624C22 14.8491 22 14.4706 22 14.032V7.16144C22 6.6343 22 6.17954 21.9694 5.80498C21.9371 5.40963 21.8658 5.01641 21.673 4.63803C21.3854 4.07355 20.9265 3.6146 20.362 3.32698C19.9836 3.13419 19.5904 3.06287 19.195 3.03057C18.8205 2.99997 18.3657 2.99999 17.8385 3Z" fill="#0000CC"/>
<path d="M12.4858 14.0858C12.1714 13.9714 11.8285 13.9714 11.5141 14.0858C11.274 14.1731 11.1069 14.315 11.0048 14.412C10.9148 14.4976 10.8207 14.603 10.7425 14.6906L7.84361 17.9362C7.66512 18.136 7.49009 18.3319 7.36203 18.5032C7.24127 18.6647 7.03205 18.9664 7.00387 19.3674C6.97282 19.809 7.12866 20.2693 7.47218 20.5978C7.79608 20.9075 8.1977 20.9604 8.3906 20.9795C8.59848 21.0001 8.85385 21.0001 9.102 21H14.8979C15.146 21.0001 15.4015 21.0001 15.6093 20.9795C15.8022 20.9604 16.2039 20.9075 16.5278 20.5978C16.8713 20.2693 17.0271 19.809 16.9961 19.3674C16.9679 18.9664 16.7587 18.6647 16.6379 18.5032C16.5098 18.3319 16.3348 18.136 16.1563 17.9362L13.2574 14.6906C13.1792 14.603 13.0852 14.4976 12.9951 14.412C12.893 14.315 12.7259 14.1731 12.4858 14.0858Z" fill="#0000CC"/>
</svg>
