<svg width="24" height="24" viewBox="0 0 24 24" fill="none" xmlns="http://www.w3.org/2000/svg">
<path d="M8.50026 11.6L9.08359 13H7.91693L8.50026 11.6Z" fill="#0000CC"/>
<path fill-rule="evenodd" clip-rule="evenodd" d="M3.70711 2.29289C3.31658 1.90237 2.68342 1.90237 2.29289 2.29289C1.90237 2.68342 1.90237 3.31658 2.29289 3.70711L3.19189 4.6061C2.83093 4.87874 2.5344 5.23094 2.32698 5.63803C2 6.27976 2 7.11984 2 8.8V15.2C2 16.8802 2 17.7202 2.32698 18.362C2.6146 18.9265 3.07354 19.3854 3.63803 19.673C4.27976 20 5.11984 20 6.8 20H17.2C17.7373 20 18.1886 20 18.5751 19.9893L20.2929 21.7071C20.6834 22.0976 21.3166 22.0976 21.7071 21.7071C22.0976 21.3166 22.0976 20.6834 21.7071 20.2929L3.70711 2.29289ZM14.5858 16L12.5003 13.9145V14.5C12.5003 15.3284 13.1718 16 14.0003 16H14.5858ZM7.46659 8.88081L11.0106 12.4248L11.9233 14.6154C12.1358 15.1252 11.8947 15.7107 11.3849 15.9231C10.8751 16.1355 10.2896 15.8944 10.0772 15.3846L9.91693 15H7.08359L6.92334 15.3846C6.71092 15.8944 6.12545 16.1355 5.61565 15.9231C5.10584 15.7107 4.86477 15.1252 5.07718 14.6154L7.46659 8.88081Z" fill="#0000CC"/>
<path d="M19.0003 12C19.0003 12.7939 18.769 13.5339 18.3701 14.156L21.8942 17.6802C22 17.111 22 16.3534 22 15.2V8.8C22 7.11984 22 6.27976 21.673 5.63803C21.3854 5.07354 20.9265 4.6146 20.362 4.32698C19.7202 4 18.8802 4 17.2 4H8.21402L12.8061 8.5921C13.0801 8.23226 13.5131 8 14.0003 8H15.0003C17.2094 8 19.0003 9.79086 19.0003 12Z" fill="#0000CC"/>
<path d="M16.8849 12.6709L14.5003 10.2862V10H15.0003C16.1048 10 17.0003 10.8954 17.0003 12C17.0003 12.2353 16.9596 12.4612 16.8849 12.6709Z" fill="#0000CC"/>
</svg>
