<svg width="24" height="24" viewBox="0 0 24 24" fill="none" xmlns="http://www.w3.org/2000/svg">
<path d="M8.58588 3L3.58588 8H2V7.8C2 6.11984 2 5.27976 2.32698 4.63803C2.6146 4.07354 3.07354 3.6146 3.63803 3.32698C4.27976 3 5.11984 3 6.8 3H8.58588Z" fill="#0000CC"/>
<path d="M14.0859 3H11.4143L6.4143 8H9.08588L14.0859 3Z" fill="#0000CC"/>
<path d="M11.9143 8H14.586L19.5081 3.07777C18.9595 3 18.241 3 17.2 3H16.9143L11.9143 8Z" fill="#0000CC"/>
<path d="M21.3183 4.09598L17.4144 8H22V7.8C22 6.11984 22 5.27976 21.673 4.63803C21.5741 4.44398 21.455 4.26241 21.3183 4.09598Z" fill="#0000CC"/>
<path fill-rule="evenodd" clip-rule="evenodd" d="M22 10H2V16.2C2 17.8802 2 18.7202 2.32698 19.362C2.6146 19.9265 3.07354 20.3854 3.63803 20.673C4.27976 21 5.11984 21 6.8 21H17.2C18.8802 21 19.7202 21 20.362 20.673C20.9265 20.3854 21.3854 19.9265 21.673 19.362C22 18.7202 22 17.8802 22 16.2V10ZM10 13.529V16.7031C10 17.1656 10 17.3968 10.097 17.5289C10.1815 17.644 10.3113 17.7175 10.4536 17.7308C10.6167 17.746 10.815 17.627 11.2116 17.3891L13.8567 15.802C14.2338 15.5758 14.4223 15.4626 14.4863 15.3163C14.5421 15.1886 14.5421 15.0434 14.4863 14.9158C14.4223 14.7694 14.2338 14.6563 13.8567 14.43L11.2116 12.843C10.815 12.6051 10.6167 12.4861 10.4536 12.5013C10.3113 12.5146 10.1815 12.588 10.097 12.7032C10 12.8353 10 13.0665 10 13.529Z" fill="#0000CC"/>
</svg>
