<svg width="24" height="24" viewBox="0 0 24 24" fill="none" xmlns="http://www.w3.org/2000/svg">
<path fill-rule="evenodd" clip-rule="evenodd" d="M17.8385 4H6.16146C5.63433 3.99998 5.17954 3.99997 4.80497 4.03057C4.40963 4.06287 4.01641 4.13419 3.63803 4.32698C3.07354 4.6146 2.6146 5.07354 2.32698 5.63803C2.13419 6.01641 2.06287 6.40963 2.03057 6.80497C1.99997 7.17954 1.99998 7.63429 2 8.16142V15.8385C1.99998 16.3657 1.99997 16.8205 2.03057 17.195C2.06287 17.5904 2.13419 17.9836 2.32698 18.362C2.6146 18.9265 3.07354 19.3854 3.63803 19.673C4.01641 19.8658 4.40963 19.9371 4.80497 19.9694C5.17952 20 5.63425 20 6.16136 20H17.8385C18.3656 20 18.8205 20 19.195 19.9694C19.5904 19.9371 19.9836 19.8658 20.362 19.673C20.9265 19.3854 21.3854 18.9265 21.673 18.362C21.8658 17.9836 21.9371 17.5904 21.9694 17.195C22 16.8205 22 16.3657 22 15.8386V8.16144C22 7.6343 22 7.17954 21.9694 6.80497C21.9371 6.40963 21.8658 6.01641 21.673 5.63803C21.3854 5.07355 20.9265 4.6146 20.362 4.32698C19.9836 4.13419 19.5904 4.06287 19.195 4.03057C18.8205 3.99997 18.3657 3.99998 17.8385 4ZM7.5 12.2C7.5 11.1502 8.23489 10.5 8.90753 10.5C9.22917 10.5 9.54041 10.6322 9.79651 10.8857C10.189 11.2742 10.8222 11.271 11.2107 10.8785C11.5992 10.486 11.596 9.85282 11.2035 9.46429C10.6108 8.8776 9.80704 8.5 8.90753 8.5C6.92089 8.5 5.5 10.2674 5.5 12.2C5.5 14.1326 6.92089 15.9 8.90753 15.9C9.80704 15.9 10.6108 15.5224 11.2035 14.9357C11.596 14.5472 11.5992 13.914 11.2107 13.5215C10.8222 13.129 10.189 13.1258 9.79651 13.5143C9.54041 13.7678 9.22917 13.9 8.90753 13.9C8.23489 13.9 7.5 13.2498 7.5 12.2ZM14.5 12.2C14.5 11.1502 15.2349 10.5 15.9075 10.5C16.2292 10.5 16.5404 10.6322 16.7965 10.8857C17.189 11.2742 17.8222 11.271 18.2107 10.8785C18.5992 10.486 18.596 9.85282 18.2035 9.46429C17.6108 8.8776 16.807 8.5 15.9075 8.5C13.9209 8.5 12.5 10.2674 12.5 12.2C12.5 14.1326 13.9209 15.9 15.9075 15.9C16.807 15.9 17.6108 15.5224 18.2035 14.9357C18.596 14.5472 18.5992 13.914 18.2107 13.5215C17.8222 13.129 17.189 13.1258 16.7965 13.5143C16.5404 13.7678 16.2292 13.9 15.9075 13.9C15.2349 13.9 14.5 13.2498 14.5 12.2Z" fill="#0000CC"/>
</svg>
