<svg width="24" height="24" viewBox="0 0 24 24" fill="none" xmlns="http://www.w3.org/2000/svg">
<path d="M12 3C11.1716 3 10.5 3.67157 10.5 4.5C10.5 5.32843 11.1716 6 12 6C12.8284 6 13.5 5.32843 13.5 4.5C13.5 3.67157 12.8284 3 12 3Z" fill="#0000CC"/>
<path d="M6 5.5C5.17157 5.5 4.5 6.17157 4.5 7C4.5 7.82843 5.17157 8.5 6 8.5C6.82843 8.5 7.5 7.82843 7.5 7C7.5 6.17157 6.82843 5.5 6 5.5Z" fill="#0000CC"/>
<path d="M18 5.5C17.1716 5.5 16.5 6.17157 16.5 7C16.5 7.82843 17.1716 8.5 18 8.5C18.8284 8.5 19.5 7.82843 19.5 7C19.5 6.17157 18.8284 5.5 18 5.5Z" fill="#0000CC"/>
<path d="M3.5 11.5C2.67157 11.5 2 12.1716 2 13C2 13.8284 2.67157 14.5 3.5 14.5C4.32843 14.5 5 13.8284 5 13C5 12.1716 4.32843 11.5 3.5 11.5Z" fill="#0000CC"/>
<path d="M20.5 11.5C19.6716 11.5 19 12.1716 19 13C19 13.8284 19.6716 14.5 20.5 14.5C21.3284 14.5 22 13.8284 22 13C22 12.1716 21.3284 11.5 20.5 11.5Z" fill="#0000CC"/>
<path d="M6 17.5C5.17157 17.5 4.5 18.1716 4.5 19C4.5 19.8284 5.17157 20.5 6 20.5C6.82843 20.5 7.5 19.8284 7.5 19C7.5 18.1716 6.82843 17.5 6 17.5Z" fill="#0000CC"/>
<path d="M18 17.5C17.1716 17.5 16.5 18.1716 16.5 19C16.5 19.8284 17.1716 20.5 18 20.5C18.8284 20.5 19.5 19.8284 19.5 19C19.5 18.1716 18.8284 17.5 18 17.5Z" fill="#0000CC"/>
<path d="M17 13C17 10.2386 14.7614 8 12 8C9.23858 8 7 10.2386 7 13C7 15.7614 9.23858 18 12 18C13.0187 18 13.967 17.6947 14.7573 17.1715L11.2931 13.7071C10.9025 13.3166 10.9026 12.6834 11.2931 12.2929C11.6836 11.9024 12.3168 11.9024 12.7073 12.2929L16.1715 15.7573C16.6947 14.967 17 14.0186 17 13Z" fill="#0000CC"/>
</svg>
