<svg width="24" height="24" viewBox="0 0 24 24" fill="none" xmlns="http://www.w3.org/2000/svg">
<path fill-rule="evenodd" clip-rule="evenodd" d="M20.6 4.80006C21.0418 4.46869 21.1314 3.84189 20.8 3.40006C20.4686 2.95823 19.8418 2.86869 19.4 3.20006L16.3683 5.47384C15.0432 5.16789 13.5572 5.00006 12 5.00006C9.40829 5.00006 7.01386 5.46495 5.2299 6.25782C4.33918 6.65369 3.55645 7.15098 2.98287 7.75369C2.40438 8.36156 2 9.12239 2 10.0001V16.0001C2 16.8777 2.40438 17.6386 2.98287 18.2464C3.55645 18.8491 4.33918 19.3464 5.2299 19.7423C5.4754 19.8514 5.73246 19.9543 6 20.0506V15.5C6 14.9477 6.44772 14.5 7 14.5C7.55228 14.5 8 14.9477 8 15.5V20.6069C8.93682 20.8009 9.94672 20.9275 11 20.9768V16.5C11 15.9477 11.4477 15.5 12 15.5C12.5523 15.5 13 15.9477 13 16.5V20.9768C14.0533 20.9275 15.0632 20.8009 16 20.6069V15.5C16 14.9477 16.4477 14.5 17 14.5C17.5523 14.5 18 14.9477 18 15.5V20.0506C18.2675 19.9543 18.5246 19.8514 18.7701 19.7423C19.6608 19.3464 20.4435 18.8491 21.0171 18.2464C21.5956 17.6386 22 16.8777 22 16.0001V10.0001C22 9.12239 21.5956 8.36156 21.0171 7.75369C20.4435 7.15098 19.6608 6.65369 18.7701 6.25782L18.6984 6.22627L20.6 4.80006ZM12 7.00006C12.7543 7.00006 13.4811 7.04334 14.169 7.12334L11.4 9.20006C10.9582 9.53143 10.8686 10.1582 11.2 10.6001C11.5314 11.0419 12.1582 11.1314 12.6 10.8001L16.7927 7.65556C17.2142 7.78403 17.6042 7.92828 17.9578 8.08544C18.6958 8.41343 19.2311 8.77807 19.5683 9.13246C19.9007 9.4817 20 9.77316 20 10.0001C20 10.227 19.9007 10.5184 19.5683 10.8677C19.2311 11.222 18.6958 11.5867 17.9578 11.9147C16.4844 12.5695 14.3789 13.0001 12 13.0001C9.62114 13.0001 7.51558 12.5695 6.04218 11.9147C5.30422 11.5867 4.76892 11.222 4.43166 10.8677C4.0993 10.5184 4 10.227 4 10.0001C4 9.77316 4.0993 9.4817 4.43166 9.13246C4.76892 8.77807 5.30422 8.41343 6.04218 8.08544C7.51558 7.4306 9.62114 7.00006 12 7.00006Z" fill="#0000CC"/>
</svg>
