<svg width="24" height="24" viewBox="0 0 24 24" fill="none" xmlns="http://www.w3.org/2000/svg">
<path fill-rule="evenodd" clip-rule="evenodd" d="M3.70711 2.29289C3.31658 1.90237 2.68342 1.90237 2.29289 2.29289C1.90237 2.68342 1.90237 3.31658 2.29289 3.70711L2.68171 4.09592C2.545 4.26237 2.42587 4.44396 2.32698 4.63803C2.13419 5.01641 2.06287 5.40963 2.03057 5.80497C1.99997 6.17953 1.99998 6.63426 2 7.16138V16.8385C1.99998 17.3657 1.99997 17.8205 2.03057 18.195C2.06287 18.5904 2.13419 18.9836 2.32698 19.362C2.6146 19.9265 3.07355 20.3854 3.63803 20.673C4.01641 20.8658 4.40963 20.9371 4.80498 20.9694C5.17954 21 5.6343 21 6.16144 21H17.8386C18.3657 21 18.8205 21 19.195 20.9694C19.303 20.9606 19.4109 20.9489 19.5183 20.9325L20.2929 21.7071C20.6834 22.0976 21.3166 22.0976 21.7071 21.7071C22.0976 21.3166 22.0976 20.6834 21.7071 20.2929L21.3183 19.9041C21.3235 19.8978 21.3286 19.8914 21.3338 19.8851C21.305 19.8699 21.2768 19.8532 21.2493 19.835L3.70711 2.29289ZM16 17.4142L11.5858 13H8V19H16V17.4142ZM9.58579 11L8 9.41422V11H9.58579ZM4.1168 5.53101L5.58579 7H4.00008C4.00052 6.5349 4.00357 6.21698 4.02393 5.96784C4.04613 5.69618 4.0838 5.59546 4.109 5.54601C4.11156 5.54099 4.11416 5.53599 4.1168 5.53101ZM4 9V11H6V9H4ZM6 18.9999V17H4.00008C4.00052 17.4651 4.00357 17.783 4.02393 18.0322C4.04613 18.3038 4.0838 18.4045 4.109 18.454C4.20487 18.6422 4.35785 18.7951 4.54601 18.891C4.59546 18.9162 4.69618 18.9539 4.96784 18.9761C5.21699 18.9964 5.5349 18.9995 6 18.9999ZM4 15H6V13H4V15Z" fill="#0000CC"/>
<path fill-rule="evenodd" clip-rule="evenodd" d="M16 11H15.214L18 13.786V13H20V15H19.214L21.9915 17.7775C22 17.4969 22 17.1832 22 16.8386V7.16144C22 6.6343 22 6.17954 21.9694 5.80497C21.9371 5.40963 21.8658 5.01641 21.673 4.63803C21.3854 4.07355 20.9265 3.6146 20.362 3.32698C19.9836 3.13419 19.5904 3.06287 19.195 3.03057C18.8205 2.99997 18.3657 2.99998 17.8385 3H7.21402L9.21402 5H16V11ZM18 5.00007V7H19.9999C19.9995 6.5349 19.9964 6.21698 19.9761 5.96784C19.9539 5.69618 19.9162 5.59546 19.891 5.54601C19.7951 5.35785 19.6422 5.20487 19.454 5.109C19.4045 5.0838 19.3038 5.04613 19.0322 5.02393C18.783 5.00357 18.4651 5.00052 18 5.00007ZM20 9H18V11H20V9Z" fill="#0000CC"/>
</svg>
