<svg width="24" height="24" viewBox="0 0 24 24" fill="none" xmlns="http://www.w3.org/2000/svg">
<path d="M7 2C5.34315 2 4 3.34315 4 5V8H20V5C20 3.34315 18.6569 2 17 2H7Z" fill="#0000CC"/>
<path d="M12 17C12.5523 17 13 16.5523 13 16C13 15.4477 12.5523 15 12 15C11.4477 15 11 15.4477 11 16C11 16.5523 11.4477 17 12 17Z" fill="#0000CC"/>
<path fill-rule="evenodd" clip-rule="evenodd" d="M20 10H4V19C4 20.6569 5.34315 22 7 22H17C18.6569 22 20 20.6569 20 19V10ZM15 16C15 17.6569 13.6569 19 12 19C10.3431 19 9 17.6569 9 16C9 14.3431 10.3431 13 12 13C13.6569 13 15 14.3431 15 16Z" fill="#0000CC"/>
</svg>
