<svg width="24" height="24" viewBox="0 0 24 24" fill="none" xmlns="http://www.w3.org/2000/svg">
<path d="M3.70711 2.29289C3.31658 1.90237 2.68342 1.90237 2.29289 2.29289C1.90237 2.68342 1.90237 3.31658 2.29289 3.70711L11.5 12.9142V15.581C10.772 15.2066 9.90685 15.0006 9 15.0006C7.84911 15.0006 6.76542 15.3323 5.94389 15.9191C5.12427 16.5046 4.5 17.4035 4.5 18.5006C4.5 19.5978 5.12427 20.4967 5.94389 21.0821C6.76542 21.669 7.84911 22.0006 9 22.0006C10.1509 22.0006 11.2346 21.669 12.0561 21.0821C12.8757 20.4967 13.5 19.5978 13.5 18.5006V14.9142L20.2929 21.7071C20.6834 22.0976 21.3166 22.0976 21.7071 21.7071C22.0976 21.3166 22.0976 20.6834 21.7071 20.2929L3.70711 2.29289Z" fill="#0000CC"/>
<path d="M16.7994 9.62148C16.0634 9.86672 15.3275 10.112 14.5915 10.3574L11.5 7.26584V5.57725L11.4997 5.53693C11.498 5.39172 11.4947 5.09021 11.6041 4.81202C11.696 4.57832 11.8451 4.37145 12.0377 4.21035C12.2671 4.01858 12.5542 3.92644 12.6924 3.88207L12.7308 3.86962L17.1582 2.3938C17.3114 2.34268 17.4832 2.28538 17.6347 2.24958C17.8002 2.21045 18.0652 2.16416 18.3653 2.23952C18.7369 2.33282 19.0587 2.56475 19.2647 2.88774C19.4311 3.14863 19.4709 3.41467 19.4862 3.58408C19.5001 3.73911 19.5001 3.92015 19.5 4.08164L19.5 7.42404L19.5003 7.46437C19.5019 7.60957 19.5053 7.91109 19.3959 8.18928C19.304 8.42297 19.1549 8.62984 18.9623 8.79094C18.7329 8.98271 18.4458 9.07485 18.3076 9.11922L18.2692 9.13167L16.7994 9.62148Z" fill="#0000CC"/>
</svg>
