<svg width="24" height="24" viewBox="0 0 24 24" fill="none" xmlns="http://www.w3.org/2000/svg">
<path fill-rule="evenodd" clip-rule="evenodd" d="M8.86242 3.00005C8.06704 2.99962 7.47638 2.9993 6.96473 3.13639C5.58436 3.50626 4.50617 4.58445 4.1363 5.96482C4.04176 6.31763 4.01257 6.708 4.00369 7.17716C3.88057 7.21659 3.75855 7.26567 3.63803 7.32708C3.07354 7.6147 2.6146 8.07364 2.32698 8.63812C2.13419 9.0165 2.06287 9.40972 2.03057 9.80507C1.99997 10.1796 1.99998 10.6344 2 11.1615V16.8386C1.99998 17.3658 1.99997 17.8206 2.03057 18.1951C2.06287 18.5905 2.13419 18.9837 2.32698 19.3621C2.6146 19.9266 3.07354 20.3855 3.63803 20.6731C4.01641 20.8659 4.40963 20.9372 4.80497 20.9695C5.17954 21.0001 5.6343 21.0001 6.16144 21.0001H17.8386C18.3657 21.0001 18.8205 21.0001 19.195 20.9695C19.5904 20.9372 19.9836 20.8659 20.362 20.6731C20.9265 20.3855 21.3854 19.9266 21.673 19.3621C21.8658 18.9837 21.9371 18.5905 21.9694 18.1951C22 17.8206 22 17.3658 22 16.8387V11.1615C22 10.6344 22 10.1796 21.9694 9.80507C21.9371 9.40972 21.8658 9.0165 21.673 8.63812C21.3854 8.07364 20.9265 7.6147 20.362 7.32708C19.9836 7.13428 19.5904 7.06297 19.195 7.03067C18.8205 7.00006 18.3657 7.00008 17.8385 7.0001L6.00986 7.00012C6.01905 6.74253 6.03632 6.60125 6.06815 6.48246C6.25309 5.79227 6.79218 5.25318 7.48237 5.06824C7.70464 5.00869 8.00565 5.0001 9 5.0001H19C19.5523 5.0001 20 4.55238 20 4.0001C20 3.44781 19.5523 3.0001 19 3.0001L8.86242 3.00005ZM5 14C5 12.3431 6.34315 11 8 11C9.65686 11 11 12.3431 11 14C11 15.6569 9.65686 17 8 17C6.34315 17 5 15.6569 5 14ZM13 12C13 11.4477 13.4477 11 14 11H18C18.5523 11 19 11.4477 19 12C19 12.5523 18.5523 13 18 13H14C13.4477 13 13 12.5523 13 12ZM14 15C13.4477 15 13 15.4477 13 16C13 16.5523 13.4477 17 14 17H18C18.5523 17 19 16.5523 19 16C19 15.4477 18.5523 15 18 15H14Z" fill="#0000CC"/>
</svg>
