<svg width="24" height="24" viewBox="0 0 24 24" fill="none" xmlns="http://www.w3.org/2000/svg">
<path fill-rule="evenodd" clip-rule="evenodd" d="M4.5 2C5.05228 2 5.5 2.44772 5.5 3V4.14494C6.94574 4.57521 8 5.91449 8 7.5C8 9.08551 6.94574 10.4248 5.5 10.8551V21C5.5 21.5523 5.05228 22 4.5 22C3.94772 22 3.5 21.5523 3.5 21V10.8551C2.05426 10.4248 1 9.08551 1 7.5C1 5.91449 2.05426 4.57521 3.5 4.14494V3C3.5 2.44772 3.94772 2 4.5 2ZM19.5 2C20.0523 2 20.5 2.44772 20.5 3V6.14494C21.9457 6.57521 23 7.91449 23 9.5C23 11.0855 21.9457 12.4248 20.5 12.8551V21C20.5 21.5523 20.0523 22 19.5 22C18.9477 22 18.5 21.5523 18.5 21V12.8551C17.0543 12.4248 16 11.0855 16 9.5C16 7.91449 17.0543 6.57521 18.5 6.14494V3C18.5 2.44772 18.9477 2 19.5 2ZM12 2.00012C12.5523 2.00012 13 2.44784 13 3.00012V13.1448C14.4457 13.575 15.5 14.9143 15.5 16.4998C15.5 18.0853 14.4457 19.4246 13 19.8549V20.9996C13 21.5519 12.5523 21.9996 12 21.9996C11.4477 21.9996 11 21.5519 11 20.9996V19.8549C9.55426 19.4246 8.5 18.0853 8.5 16.4998C8.5 14.9143 9.55426 13.575 11 13.1448V3.00012C11 2.44784 11.4477 2.00012 12 2.00012Z" fill="#0000CC"/>
</svg>
