<svg width="24" height="24" viewBox="0 0 24 24" fill="none" xmlns="http://www.w3.org/2000/svg">
<path fill-rule="evenodd" clip-rule="evenodd" d="M3.32698 4.63803C3 5.27976 3 6.11984 3 7.8V16.2C3 17.8802 3 18.7202 3.32698 19.362C3.6146 19.9265 4.07354 20.3854 4.63803 20.673C5.27976 21 6.11984 21 7.8 21H16.2C17.8802 21 18.7202 21 19.362 20.673C19.9265 20.3854 20.3854 19.9265 20.673 19.362C21 18.7202 21 17.8802 21 16.2V7.8C21 6.11984 21 5.27976 20.673 4.63803C20.3854 4.07354 19.9265 3.6146 19.362 3.32698C18.7202 3 17.8802 3 16.2 3H7.8C6.11984 3 5.27976 3 4.63803 3.32698C4.07354 3.6146 3.6146 4.07354 3.32698 4.63803ZM6 8C6 7.44772 6.44772 7 7 7C9.65217 7 12.1957 8.05357 14.0711 9.92893C15.9464 11.8043 17 14.3478 17 17C17 17.5523 16.5523 18 16 18C15.4477 18 15 17.5523 15 17C15 14.8783 14.1571 12.8434 12.6569 11.3431C11.1566 9.84286 9.12173 9 7 9C6.44772 9 6 8.55228 6 8ZM6 12C6 11.4477 6.44772 11 7 11C8.5913 11 10.1174 11.6321 11.2426 12.7574C12.3679 13.8826 13 15.4087 13 17C13 17.5523 12.5523 18 12 18C11.4477 18 11 17.5523 11 17C11 15.9391 10.5786 14.9217 9.82843 14.1716C9.07828 13.4214 8.06087 13 7 13C6.44772 13 6 12.5523 6 12ZM7.5 15C6.67157 15 6 15.6716 6 16.5C6 17.3284 6.67157 18 7.5 18C8.32843 18 9 17.3284 9 16.5C9 15.6716 8.32843 15 7.5 15Z" fill="#0000CC"/>
</svg>
