<svg width="24" height="24" viewBox="0 0 24 24" fill="none" xmlns="http://www.w3.org/2000/svg">
<path fill-rule="evenodd" clip-rule="evenodd" d="M16.8385 2H7.16146C6.63433 1.99998 6.17954 1.99997 5.80497 2.03057C5.40963 2.06287 5.01641 2.13419 4.63803 2.32698C4.07354 2.6146 3.6146 3.07354 3.32698 3.63803C3.13419 4.01641 3.06287 4.40963 3.03057 4.80497C2.99997 5.17954 2.99998 5.63429 3 6.16142V19C3 20.6569 4.34315 22 6 22H20C20.5523 22 21 21.5523 21 21C21 20.4477 20.5523 20 20 20V18C20.5523 18 21 17.5523 21 17V6.16144C21 5.6343 21 5.17954 20.9694 4.80498C20.9371 4.40963 20.8658 4.01641 20.673 3.63803C20.3854 3.07354 19.9265 2.6146 19.362 2.32698C18.9836 2.13419 18.5904 2.06287 18.195 2.03057C17.8205 1.99997 17.3657 1.99998 16.8385 2ZM6 20C5.44772 20 5 19.5523 5 19C5 18.4477 5.44772 18 6 18H18V20H6ZM9 6C8.44772 6 8 6.44772 8 7C8 7.55229 8.44772 8 9 8H15C15.5523 8 16 7.55229 16 7C16 6.44772 15.5523 6 15 6H9ZM9 10C8.44772 10 8 10.4477 8 11C8 11.5523 8.44772 12 9 12H15C15.5523 12 16 11.5523 16 11C16 10.4477 15.5523 10 15 10H9Z" fill="#0000CC"/>
</svg>
