<svg width="24" height="24" viewBox="0 0 24 24" fill="none" xmlns="http://www.w3.org/2000/svg">
<path fill-rule="evenodd" clip-rule="evenodd" d="M9.96482 2.13639C10.4765 1.9993 11.0671 1.99962 11.8625 2.00005H12.1377C12.9331 1.99962 13.5237 1.9993 14.0354 2.13639C15.4157 2.50626 16.4939 3.58445 16.8638 4.96482C16.9466 5.2737 16.9792 5.61137 16.9921 6.00549C18.3469 6.02358 19.1593 6.1014 19.816 6.43597C20.5686 6.81947 21.1805 7.43139 21.564 8.18404C22 9.03968 22 10.1598 22 12.4V15.6C22 17.8402 22 18.9603 21.564 19.816C21.1805 20.5686 20.5686 21.1805 19.816 21.564C18.9603 22 17.8402 22 15.6 22H8.4C6.15979 22 5.03969 22 4.18404 21.564C3.43139 21.1805 2.81947 20.5686 2.43597 19.816C2 18.9603 2 17.8402 2 15.6V12.4C2 10.1598 2 9.03968 2.43597 8.18404C2.81947 7.43139 3.43139 6.81947 4.18404 6.43597C4.84071 6.10138 5.65315 6.02358 7.00813 6.00548C7.02095 5.61136 7.05363 5.2737 7.13639 4.96482C7.50626 3.58445 8.58445 2.50626 9.96482 2.13639ZM14.9319 5.48246C14.9638 5.60123 14.981 5.74249 14.9902 6H9.00996C9.01915 5.74249 9.03642 5.60123 9.06824 5.48246C9.25318 4.79227 9.79227 4.25318 10.4825 4.06824C10.7047 4.00869 11.0057 4.0001 12.0001 4.0001C12.9944 4.0001 13.2955 4.00869 13.5177 4.06824C14.2079 4.25318 14.747 4.79227 14.9319 5.48246ZM12 9.5C11.4477 9.5 11 9.94771 11 10.5C9.89543 10.5 9 11.3954 9 12.5V13C9 14.1046 9.89543 15 11 15H12.75C12.8881 15 13 15.1119 13 15.25C13 15.3881 12.8881 15.5 12.75 15.5H10C9.44772 15.5 9 15.9477 9 16.5C9 17.0523 9.44772 17.5 10 17.5H11C11 18.0523 11.4477 18.5 12 18.5C12.5523 18.5 13 18.0523 13 17.5C14.1046 17.5 15 16.6046 15 15.5V15C15 13.8954 14.1046 13 13 13H11.25C11.1119 13 11 12.8881 11 12.75C11 12.6119 11.1119 12.5 11.25 12.5H14C14.5523 12.5 15 12.0523 15 11.5C15 10.9477 14.5523 10.5 14 10.5H13C13 9.94771 12.5523 9.5 12 9.5Z" fill="#0000CC"/>
</svg>
