<svg width="24" height="24" viewBox="0 0 24 24" fill="none" xmlns="http://www.w3.org/2000/svg">
<path d="M12 15C12.5523 15 13 14.5523 13 14C13 13.4477 12.5523 13 12 13C11.4477 13 11 13.4477 11 14C11 14.5523 11.4477 15 12 15Z" fill="#0000CC"/>
<path fill-rule="evenodd" clip-rule="evenodd" d="M12.8385 2H11.1615C10.6344 1.99999 10.1795 1.99997 9.80497 2.03057C9.40963 2.06287 9.01641 2.13419 8.63803 2.32698C8.07354 2.6146 7.6146 3.07355 7.32698 3.63803C7.13419 4.01641 7.06287 4.40963 7.03057 4.80498C7.00303 5.14212 7.00029 5.54422 7.00003 6.00559C5.64991 6.02389 4.8394 6.10205 4.18404 6.43598C3.43139 6.81947 2.81947 7.43139 2.43597 8.18404C2 9.03969 2 10.1598 2 12.4V15.6C2 17.8402 2 18.9603 2.43597 19.816C2.81947 20.5686 3.43139 21.1805 4.18404 21.564C5.03969 22 6.15979 22 8.4 22H15.6C17.8402 22 18.9603 22 19.816 21.564C20.5686 21.1805 21.1805 20.5686 21.564 19.816C22 18.9603 22 17.8402 22 15.6V12.4C22 10.1598 22 9.03969 21.564 8.18404C21.1805 7.43139 20.5686 6.81947 19.816 6.43598C19.1606 6.10205 18.3501 6.02389 17 6.00559C16.9997 5.54422 16.997 5.14211 16.9694 4.80498C16.9371 4.40963 16.8658 4.01641 16.673 3.63803C16.3854 3.07355 15.9265 2.6146 15.362 2.32698C14.9836 2.13419 14.5904 2.06287 14.195 2.03057C13.8205 1.99997 13.3656 1.99999 12.8385 2ZM14.9999 6C14.9995 5.5349 14.9964 5.21699 14.9761 4.96784C14.9539 4.69618 14.9162 4.59546 14.891 4.54601C14.7951 4.35785 14.6422 4.20487 14.454 4.109C14.4045 4.0838 14.3038 4.04613 14.0322 4.02393C13.7488 4.00078 13.3766 4 12.8 4H11.2C10.6234 4 10.2512 4.00078 9.96784 4.02393C9.69617 4.04613 9.59546 4.0838 9.54601 4.109C9.35785 4.20487 9.20487 4.35785 9.109 4.54601C9.0838 4.59546 9.04612 4.69618 9.02393 4.96784C9.00357 5.21699 9.00052 5.5349 9.00007 6H14.9999ZM6.9999 8.4999C6.9999 9.88061 5.88061 10.9999 4.4999 10.9999C4.3287 10.9999 4.16152 10.9827 4 10.9499C4.0012 9.99397 4.01676 9.48666 4.21789 9.09192C4.40963 8.7156 4.71559 8.40963 5.09192 8.21789C5.48666 8.01676 5.99397 8.0012 6.94991 8C6.98269 8.16153 6.9999 8.3287 6.9999 8.4999ZM17.0499 8C17.0171 8.16153 16.9999 8.3287 16.9999 8.4999C16.9999 9.88061 18.1192 10.9999 19.4999 10.9999C19.6711 10.9999 19.8383 10.9827 19.9998 10.9499C19.9986 9.99398 19.983 9.48666 19.7819 9.09192C19.5902 8.7156 19.2842 8.40963 18.9079 8.21789C18.5131 8.01676 18.0058 8.0012 17.0499 8ZM19.9998 17.0499C19.8383 17.0171 19.6711 16.9999 19.4999 16.9999C18.1192 16.9999 16.9999 18.1192 16.9999 19.4999C16.9999 19.6711 17.0171 19.8383 17.0499 19.9998C18.0058 19.9986 18.5131 19.983 18.9079 19.7819C19.2842 19.5902 19.5902 19.2842 19.7819 18.9079C19.983 18.5131 19.9986 18.0058 19.9998 17.0499ZM6.94991 19.9998C6.98269 19.8383 6.9999 19.6711 6.9999 19.4999C6.9999 18.1192 5.88061 16.9999 4.4999 16.9999C4.3287 16.9999 4.16152 17.0171 4 17.0499C4.0012 18.0058 4.01676 18.5131 4.21789 18.9079C4.40963 19.2842 4.71559 19.5902 5.09192 19.7819C5.48666 19.983 5.99397 19.9986 6.94991 19.9998ZM12 11C13.6569 11 15 12.3431 15 14C15 15.6569 13.6569 17 12 17C10.3431 17 9 15.6569 9 14C9 12.3431 10.3431 11 12 11Z" fill="#0000CC"/>
</svg>
