<svg width="24" height="24" viewBox="0 0 24 24" fill="none" xmlns="http://www.w3.org/2000/svg">
<path fill-rule="evenodd" clip-rule="evenodd" d="M11.1615 2H12.8385C13.3657 1.99998 13.8205 1.99997 14.195 2.03057C14.5904 2.06287 14.9836 2.13419 15.362 2.32698C15.9265 2.6146 16.3854 3.07355 16.673 3.63803C16.8658 4.01641 16.9371 4.40963 16.9694 4.80498C16.997 5.14211 16.9997 5.54422 17 6.00559C18.3501 6.02389 19.1606 6.10205 19.816 6.43598C20.5226 6.79602 21.1052 7.35741 21.4911 8.04756C20.9151 8.68503 20.3203 9.3067 19.6556 9.85215C19.226 10.2046 18.6025 10.6764 17.8337 11.1477C17.014 11.6501 16.0518 12.1383 15 12.4872V12C15 11.4477 14.5523 11 14 11C13.4477 11 13 11.4477 13 12V12.9406C12.671 12.9794 12.3373 13.0002 12.0001 13.0002C11.6628 13.0002 11.329 12.9794 11 12.9406V12C11 11.4477 10.5523 11 10 11C9.44772 11 9 11.4477 9 12V12.4872C7.94827 12.1382 6.98607 11.6501 6.16645 11.1477C4.77077 10.2921 3.591 9.21861 2.52244 8.02349C2.90843 7.34435 3.48565 6.79182 4.18404 6.43598C4.8394 6.10205 5.64991 6.02389 7.00003 6.00559C7.00029 5.54422 7.00303 5.14211 7.03057 4.80498C7.06287 4.40963 7.13419 4.01641 7.32698 3.63803C7.6146 3.07355 8.07354 2.6146 8.63803 2.32698C9.01641 2.13419 9.40963 2.06287 9.80497 2.03057C10.1795 1.99997 10.6343 1.99998 11.1615 2ZM14.9761 4.96784C14.9964 5.21699 14.9995 5.5349 14.9999 6H9.00007C9.00052 5.5349 9.00357 5.21698 9.02393 4.96784C9.04612 4.69618 9.0838 4.59546 9.109 4.54601C9.20487 4.35785 9.35785 4.20487 9.54601 4.109C9.59546 4.0838 9.69617 4.04613 9.96784 4.02393C10.2512 4.00078 10.6234 4 11.2 4H12.8C13.3766 4 13.7488 4.00078 14.0322 4.02393C14.3038 4.04613 14.4045 4.0838 14.454 4.109C14.6422 4.20487 14.7951 4.35785 14.891 4.54601C14.9162 4.59546 14.9539 4.69618 14.9761 4.96784Z" fill="#0000CC"/>
<path d="M9 14.5772C7.49871 14.1615 6.17268 13.4974 5.12117 12.8528C3.97438 12.1498 2.95495 11.3163 2.01972 10.3932C2 10.9457 2 11.6018 2 12.4V15.6C2 17.8402 2 18.9603 2.43597 19.816C2.81947 20.5686 3.43139 21.1805 4.18404 21.564C5.03968 22 6.15979 22 8.4 22H15.6C17.8402 22 18.9603 22 19.816 21.564C20.5686 21.1805 21.1805 20.5686 21.564 19.816C22 18.9603 22 17.8402 22 15.6V12.4C22 11.608 22 10.956 21.9807 10.4062C21.0389 11.3224 20.0294 12.1475 18.8789 12.8528C17.8274 13.4974 16.5013 14.1615 15 14.5772V15C15 15.5523 14.5523 16 14 16C13.4477 16 13 15.5523 13 15V14.9519C12.6718 14.9834 12.3382 15.0002 12.0001 15.0002C11.6619 15.0002 11.3282 14.9834 11 14.9519V15C11 15.5523 10.5523 16 10 16C9.44772 16 9 15.5523 9 15V14.5772Z" fill="#0000CC"/>
</svg>
