<svg width="24" height="24" viewBox="0 0 24 24" fill="none" xmlns="http://www.w3.org/2000/svg">
<path fill-rule="evenodd" clip-rule="evenodd" d="M13 2H11C8.82016 2 6.99808 3.82099 7 6.00163C6.52454 6.00489 6.10898 6.01471 5.74818 6.04419C5.18608 6.09012 4.66937 6.18868 4.18404 6.43597C3.43139 6.81947 2.81947 7.43139 2.43598 8.18404C2.42577 8.20406 2.41582 8.22414 2.40612 8.24428L7.30995 12.1673C7.82853 12.5822 7.98249 12.6993 8.14248 12.7811C8.30295 12.8631 8.47377 12.923 8.6503 12.9592C8.82628 12.9953 9.01968 13 9.68379 13H14.3163C14.9804 13 15.1738 12.9953 15.3498 12.9592C15.5263 12.923 15.6971 12.8631 15.8576 12.7811C16.0176 12.6993 16.1715 12.5822 16.6901 12.1673L21.5939 8.24432C21.5842 8.22417 21.5742 8.20408 21.564 8.18404C21.1805 7.43139 20.5686 6.81947 19.816 6.43597C19.3306 6.18868 18.8139 6.09012 18.2518 6.04419C17.891 6.01471 17.4755 6.00327 17 6C17 3.79086 15.2091 2 13 2ZM15 6H9C9 4.89543 9.89543 4 11 4H13C14.1046 4 15 4.89543 15 6Z" fill="#0000CC"/>
<path d="M21.9912 10.4877L17.8722 13.7829C17.4502 14.1209 17.1311 14.3764 16.7675 14.5621C16.4466 14.7261 16.1049 14.8459 15.7519 14.9184C15.3519 15.0004 14.9432 15.0003 14.4025 15.0001H9.59758C9.05688 15.0003 8.64815 15.0004 8.24821 14.9184C7.89516 14.8459 7.55352 14.7261 7.23257 14.5621C6.869 14.3764 6.54993 14.1209 6.12786 13.783L2.00882 10.4877C1.99999 10.8656 1.99999 11.2881 2 11.7587V16.2413C1.99999 17.0463 1.99998 17.7106 2.04419 18.2518C2.09012 18.8139 2.18868 19.3306 2.43598 19.816C2.81947 20.5686 3.43139 21.1805 4.18404 21.564C4.66937 21.8113 5.18608 21.9099 5.74818 21.9558C6.28936 22 6.95372 22 7.75868 22H16.2413C17.0463 22 17.7106 22 18.2518 21.9558C18.8139 21.9099 19.3306 21.8113 19.816 21.564C20.5686 21.1805 21.1805 20.5686 21.564 19.816C21.8113 19.3306 21.9099 18.8139 21.9558 18.2518C22 17.7106 22 17.0463 22 16.2413V11.7587C22 11.2881 22 10.8657 21.9912 10.4877Z" fill="#0000CC"/>
</svg>
