<svg width="24" height="24" viewBox="0 0 24 24" fill="none" xmlns="http://www.w3.org/2000/svg">
<path fill-rule="evenodd" clip-rule="evenodd" d="M5 7.41809C6.73949 5.68015 9.23544 3.93931 11.172 4.83127L8.27732 7.72709C8.21239 7.79202 8.15646 7.84795 8.10813 7.90113C7.06773 9.04576 7.06818 10.7938 8.10915 11.9379L8.12042 11.9497C8.23778 12.0724 8.35583 12.1958 8.48149 12.31C9.6259 13.35 11.3733 13.3497 12.5174 12.3094C12.5706 12.261 12.6265 12.2051 12.6915 12.1401L12.9992 11.8323L15.7925 14.6251C15.8802 14.7128 15.8991 14.7321 15.9111 14.7453C16.0846 14.9361 16.1711 15.1758 16.1711 15.4179C16.1711 15.8841 16.4902 16.2757 16.9218 16.3865C16.8481 16.5196 16.758 16.6462 16.6515 16.7633C16.6195 16.7985 16.5796 16.8384 16.5 16.918C16.4204 16.9976 16.3805 17.0375 16.3453 17.0696C15.5824 17.7629 14.4176 17.7629 13.6547 17.0696C13.6195 17.0375 13.5796 16.9976 13.5 16.918L13 16.418C12.4548 16.9633 12.1821 17.2359 11.888 17.3816C11.3285 17.6589 10.6715 17.6589 10.112 17.3816C9.81787 17.2359 9.54525 16.9633 9 16.418C8.31085 17.3369 6.89563 17.2093 6.38197 16.182L6 15.418H5V18.418C5 18.9703 4.55228 19.418 4 19.418H2C1.44772 19.418 1 18.9703 1 18.418V7.41797C1 6.86568 1.44772 6.41797 2 6.41797H4C4.55228 6.41797 5 6.8658 5 7.41809ZM4 17.3999C4 17.9522 3.55228 18.3999 3 18.3999C2.44772 18.3999 2 17.9522 2 17.3999C2 16.8476 2.44772 16.3999 3 16.3999C3.55228 16.3999 4 16.8476 4 17.3999Z" fill="#0000CC"/>
<path fill-rule="evenodd" clip-rule="evenodd" d="M11.9995 5.41804C13.9995 3.41783 16.9995 5.41982 18.9995 7.41804C19 6.86625 19.4483 6.4182 20.0001 6.41797H22C22.5523 6.41797 23 6.86568 23 7.41797V18.418C23 18.9703 22.5523 19.418 22 19.418H20C19.4477 19.418 19 18.9703 19 18.418V15.418L17.1711 15.418C17.1711 14.9361 16.9978 14.4542 16.6511 14.0728C16.619 14.0375 16.5791 13.9976 16.4995 13.918L12.9992 10.4184L11.9988 11.4187C11.9194 11.4981 11.8798 11.5378 11.8446 11.5697C11.0819 12.2632 9.91697 12.2634 9.15403 11.5701C9.11891 11.5382 9.07914 11.4984 8.99978 11.4191C8.9205 11.3399 8.88074 11.3002 8.84881 11.2651C8.15482 10.5023 8.15453 9.33698 8.84813 8.57389C8.88006 8.53875 8.91974 8.49906 8.9991 8.41967L11.9995 5.41804ZM22 17.3999C22 17.9522 21.5523 18.3999 21 18.3999C20.4477 18.3999 20 17.9522 20 17.3999C20 16.8476 20.4477 16.3999 21 16.3999C21.5523 16.3999 22 16.8476 22 17.3999Z" fill="#0000CC"/>
</svg>
