<svg width="24" height="24" viewBox="0 0 24 24" fill="none" xmlns="http://www.w3.org/2000/svg">
<path d="M16.0038 3.99591C17.1084 2.89125 18.8954 2.89528 20.0001 3.99998C21.1046 5.10462 21.1086 6.89153 20.004 7.99614L14.3536 13.6465L10.3534 9.64628L13.2925 6.70719C13.0274 6.44378 12.8336 6.25648 12.6674 6.11544C12.4597 5.93904 12.3618 5.89446 12.309 5.87731C12.1082 5.81205 11.8918 5.81205 11.691 5.87731C11.6382 5.89446 11.5403 5.93904 11.3326 6.11544C11.1158 6.29942 10.852 6.56211 10.4444 6.96979L8.70711 8.70705C8.31658 9.09757 7.68342 9.09757 7.29289 8.70705C6.90237 8.31652 6.90237 7.68336 7.29289 7.29283L9.05742 5.52831C9.43015 5.15555 9.7517 4.83398 10.0382 4.59076C10.3406 4.33405 10.6691 4.10643 11.0729 3.9752C11.6755 3.77943 12.3245 3.77943 12.9271 3.9752C13.3309 4.10643 13.6594 4.33405 13.9618 4.59076C14.1861 4.78114 14.4318 5.01954 14.7068 5.29291L16.0038 3.99591Z" fill="#0000CC"/>
<path d="M9.64628 10.3534L5.49993 14.4997C3.71534 16.2842 2.64644 20.6462 2.99993 20.9997C3.35341 21.3532 7.66067 20.3395 9.50005 18.5001L13.6465 14.3536L9.64628 10.3534Z" fill="#0000CC"/>
</svg>
