<svg width="24" height="24" viewBox="0 0 24 24" fill="none" xmlns="http://www.w3.org/2000/svg">
<path d="M3.32698 4.63803C3 5.27976 3 6.11984 3 7.8V16.2C3 17.8802 3 18.7202 3.32698 19.362C3.6146 19.9265 4.07354 20.3854 4.63803 20.673C5.27976 21 6.11984 21 7.8 21H13.0118C13.4457 21 13.7513 21 14 20.9829V18.1615C14 17.6343 14 17.1795 14.0306 16.805C14.0629 16.4096 14.1342 16.0164 14.327 15.638C14.6146 15.0735 15.0735 14.6146 15.638 14.327C16.0164 14.1342 16.4096 14.0629 16.805 14.0306C17.1795 14 17.6343 14 18.1615 14L20.9829 14C21 13.7513 21 13.4457 21 13.0118V7.8C21 6.11984 21 5.27976 20.673 4.63803C20.3854 4.07354 19.9265 3.6146 19.362 3.32698C18.7202 3 17.8802 3 16.2 3H7.8C6.11984 3 5.27976 3 4.63803 3.32698C4.07354 3.6146 3.6146 4.07354 3.32698 4.63803Z" fill="#0000CC"/>
<path d="M19.9968 16H18.2C17.6234 16 17.2512 16.0008 16.9678 16.0239C16.6962 16.0461 16.5955 16.0838 16.546 16.109C16.3578 16.2049 16.2049 16.3578 16.109 16.546C16.0838 16.5955 16.0461 16.6962 16.0239 16.9678C16.0008 17.2512 16 17.6234 16 18.2V19.9968C16.1173 19.8827 16.2499 19.7501 16.4059 19.5941L19.5941 16.4059C19.7501 16.2499 19.8827 16.1173 19.9968 16Z" fill="#0000CC"/>
</svg>
