<svg width="24" height="24" viewBox="0 0 24 24" fill="none" xmlns="http://www.w3.org/2000/svg">
<path d="M12.6667 8.45265V6.33333C12.6667 5.04467 11.622 4 10.3333 4C9.74346 4 9.20471 4.21888 8.79388 4.57986L7.37807 3.16405C8.15219 2.4419 9.19116 2 10.3333 2C12.7266 2 14.6667 3.9401 14.6667 6.33333V10.4526L12.6667 8.45265Z" fill="#0000CC"/>
<path fill-rule="evenodd" clip-rule="evenodd" d="M6 7.41421L2.29289 3.70711C1.90237 3.31658 1.90237 2.68342 2.29289 2.29289C2.68342 1.90237 3.31658 1.90237 3.70711 2.29289L21.7071 20.2929C22.0976 20.6834 22.0976 21.3166 21.7071 21.7071C21.3166 22.0976 20.6834 22.0976 20.2929 21.7071L17.3347 18.7489C16.3376 20.6799 14.323 22 12 22C8.68629 22 6 19.3137 6 16V7.41421ZM8 9.41421V16C8 18.2091 9.79086 20 12 20C13.7824 20 15.2924 18.8342 15.8094 17.2236L14.665 16.0792C14.6151 17.5081 13.441 18.6512 12 18.6512C10.5272 18.6512 9.33333 17.4573 9.33333 15.9845V10.7475L8 9.41421ZM11.3333 12.7475V15.9845C11.3333 16.3527 11.6318 16.6512 12 16.6512C12.3682 16.6512 12.6667 16.3527 12.6667 15.9845V14.0809L11.3333 12.7475Z" fill="#0000CC"/>
<path d="M9.84254 5.62852L11.3333 7.11931V6.5C11.3333 5.94772 10.8856 5.5 10.3333 5.5C10.155 5.5 9.98753 5.54669 9.84254 5.62852Z" fill="#0000CC"/>
<path d="M18 5.93023V13.786L16 11.786V5.93023C16 5.37795 16.4477 4.93023 17 4.93023C17.5523 4.93023 18 5.37795 18 5.93023Z" fill="#0000CC"/>
</svg>
