<svg width="24" height="24" viewBox="0 0 24 24" fill="none" xmlns="http://www.w3.org/2000/svg">
<path fill-rule="evenodd" clip-rule="evenodd" d="M3 2C2.44772 2 2 2.44772 2 3C2 3.55228 2.44772 4 3 4H4V15H3C2.44772 15 2 15.4477 2 16C2 16.5523 2.44772 17 3 17H10.5V19.3819C10.1931 19.6566 10 20.0557 10 20.5C10 21.3284 10.6716 22 11.5 22C12.3284 22 13 21.3284 13 20.5C13 20.0557 12.8069 19.6566 12.5 19.3819V17H21C21.5523 17 22 16.5523 22 16C22 15.4477 21.5523 15 21 15H20V4H21C21.5523 4 22 3.55228 22 3C22 2.44772 21.5523 2 21 2H3ZM12 7C12 7.55228 12.4477 8 13 8H13.5858L11.9062 9.67962L8.6 7.2C8.29698 6.97274 7.89157 6.93618 7.55279 7.10557C7.214 7.27496 7 7.62123 7 8V11C7 11.5523 7.44772 12 8 12C8.55228 12 9 11.5523 9 11V10L11.4 11.8C11.7981 12.0986 12.3552 12.059 12.7071 11.7071L15 9.41421V10C15 10.5523 15.4477 11 16 11C16.5523 11 17 10.5523 17 10V7C17 6.44772 16.5523 6 16 6H13C12.4477 6 12 6.44772 12 7Z" fill="#0000CC"/>
</svg>
