<svg width="24" height="24" viewBox="0 0 24 24" fill="none" xmlns="http://www.w3.org/2000/svg">
<path fill-rule="evenodd" clip-rule="evenodd" d="M17.8385 2H6.16146C5.63433 1.99998 5.17954 1.99997 4.80497 2.03057C4.40963 2.06287 4.01641 2.13419 3.63803 2.32698C3.07354 2.6146 2.6146 3.07354 2.32698 3.63803C2.13419 4.01641 2.06287 4.40963 2.03057 4.80497C1.99997 5.17954 1.99998 5.63429 2 6.16142V14.8385C1.99998 15.3657 1.99997 15.8205 2.03057 16.195C2.06287 16.5904 2.13419 16.9836 2.32698 17.362C2.6146 17.9265 3.07354 18.3854 3.63803 18.673C4.01641 18.8658 4.40963 18.9371 4.80497 18.9694C5.17954 19 5.6343 19 6.16144 19H7.13149L6.16795 20.4453C5.8616 20.9048 5.98577 21.5257 6.4453 21.8321C6.90483 22.1384 7.5257 22.0142 7.83205 21.5547L9.53519 19H14.4648L16.168 21.5547C16.4743 22.0142 17.0952 22.1384 17.5547 21.8321C18.0142 21.5257 18.1384 20.9048 17.8321 20.4453L16.8685 19H17.8386C18.3657 19 18.8205 19 19.195 18.9694C19.5904 18.9371 19.9836 18.8658 20.362 18.673C20.9265 18.3854 21.3854 17.9265 21.673 17.362C21.8658 16.9836 21.9371 16.5904 21.9694 16.195C22 15.8205 22 15.3657 22 14.8386V6.16144C22 5.6343 22 5.17954 21.9694 4.80497C21.9371 4.40963 21.8658 4.01641 21.673 3.63803C21.3854 3.07355 20.9265 2.6146 20.362 2.32698C19.9836 2.13419 19.5904 2.06287 19.195 2.03057C18.8205 1.99997 18.3657 1.99998 17.8385 2ZM12 5C11.4477 5 11 5.44772 11 6V13H9V11C9 10.4477 8.55229 10 8 10C7.44772 10 7 10.4477 7 11V13C6.44772 13 6 13.4477 6 14C6 14.5523 6.44772 15 7 15H17C17.5523 15 18 14.5523 18 14C18 13.4477 17.5523 13 17 13V9C17 8.44772 16.5523 8 16 8C15.4477 8 15 8.44772 15 9V13H13V6C13 5.44772 12.5523 5 12 5Z" fill="#0000CC"/>
</svg>
