<svg width="24" height="24" viewBox="0 0 24 24" fill="none" xmlns="http://www.w3.org/2000/svg">
<path fill-rule="evenodd" clip-rule="evenodd" d="M10.4123 2.19482C10.1404 2.13753 9.85957 2.13753 9.58767 2.19482C9.27326 2.26107 8.99337 2.42233 8.77081 2.55056L8.71004 2.58547L6.79769 3.67825C6.75272 3.70394 6.49506 3.8406 6.49506 3.8406C6.49506 3.8406 6.35688 3.76657 6.20232 3.67825L5.85339 3.47886C5.49185 3.27223 5.16301 3.08428 4.88392 2.95708C4.59993 2.82763 4.21886 2.68791 3.78475 2.7349C3.22246 2.79577 2.71223 3.09187 2.3804 3.54988C2.12422 3.90347 2.05647 4.30366 2.02796 4.61446C1.99994 4.91988 1.99997 5.29864 2 5.71506L2 16.2414C1.99999 17.0464 1.99998 17.7107 2.0442 18.2519C2.09012 18.814 2.18869 19.3307 2.43598 19.8161C2.81947 20.5687 3.43139 21.1806 4.18404 21.5641C4.66938 21.8114 5.18608 21.91 5.74818 21.9559C6.28937 22.0001 6.95372 22.0001 7.75868 22.0001H18.5C18.667 22.0001 18.8321 22.0001 19 22.0001C20.6569 22.0001 22 20.657 22 19.0001V13.0001C22 12.4478 21.5523 12.0001 21 12.0001H18L18 5.71507C18 5.29869 18.0001 4.91985 17.972 4.61446C17.9435 4.30366 17.8758 3.90347 17.6196 3.54988C17.2878 3.09187 16.7775 2.79577 16.2153 2.7349C15.7812 2.68791 15.4001 2.82763 15.1161 2.95708C14.837 3.08428 14.5082 3.27222 14.1466 3.47885L13.7977 3.67825C13.6994 3.73444 13.5 3.84303 13.5 3.84303C13.5 3.84303 13.3006 3.73443 13.2023 3.67825L11.29 2.58547L11.2292 2.55056C11.0066 2.42233 10.7267 2.26107 10.4123 2.19482ZM18 19.0001V14.0001H20V19.0001C20 19.5524 19.5523 20.0001 19 20.0001C18.4477 20.0001 18 19.5524 18 19.0001ZM10 8.5C9.44771 8.5 9 8.94771 9 9.5C7.89543 9.5 7 10.3954 7 11.5V12C7 13.1046 7.89543 14 9 14H10.75C10.8881 14 11 14.1119 11 14.25C11 14.3881 10.8881 14.5 10.75 14.5H8C7.44772 14.5 7 14.9477 7 15.5C7 16.0523 7.44772 16.5 8 16.5H9C9 17.0523 9.44771 17.5 10 17.5C10.5523 17.5 11 17.0523 11 16.5C12.1046 16.5 13 15.6046 13 14.5V14C13 12.8954 12.1046 12 11 12H9.25C9.11193 12 9 11.8881 9 11.75C9 11.6119 9.11193 11.5 9.25 11.5H12C12.5523 11.5 13 11.0523 13 10.5C13 9.94771 12.5523 9.5 12 9.5H11C11 8.94771 10.5523 8.5 10 8.5Z" fill="#0000CC"/>
</svg>
