<svg width="24" height="24" viewBox="0 0 24 24" fill="none" xmlns="http://www.w3.org/2000/svg">
<path fill-rule="evenodd" clip-rule="evenodd" d="M4.21799 3.09202C4 3.51984 4 4.0799 4 5.2V8.76393C3.72519 9.00973 3.49637 9.30557 3.32698 9.63803C3 10.2798 3 11.1198 3 12.8V15.4C3 15.9601 3 16.2401 3.10899 16.454C3.20487 16.6422 3.35785 16.7951 3.54601 16.891C3.75992 17 4.03995 17 4.6 17H19.4C19.9601 17 20.2401 17 20.454 16.891C20.6422 16.7951 20.7951 16.6422 20.891 16.454C21 16.2401 21 15.9601 21 15.4V12.8C21 11.1198 21 10.2798 20.673 9.63803C20.5036 9.30557 20.2748 9.00973 20 8.76393V5.82548C20 5.3363 20 5.09171 19.9447 4.86154C19.8957 4.65746 19.8149 4.46237 19.7053 4.28343C19.5816 4.0816 19.4086 3.90865 19.0627 3.56274L18.4373 2.93726C18.0914 2.59135 17.9184 2.4184 17.7166 2.29472C17.5376 2.18506 17.3425 2.10425 17.1385 2.05526C16.9083 2 16.6637 2 16.1745 2H7.2C6.0799 2 5.51984 2 5.09202 2.21799C4.71569 2.40973 4.40973 2.71569 4.21799 3.09202ZM7.8 8C7.05259 8 6.47142 8 6 8.02878V4H17L18 5V8.02878C17.5286 8 16.9474 8 16.2 8H7.8ZM17 13C17.5523 13 18 12.5523 18 12C18 11.4477 17.5523 11 17 11C16.4477 11 16 11.4477 16 12C16 12.5523 16.4477 13 17 13Z" fill="#0000CC"/>
<path d="M11 18H13V21C13 21.5523 12.5523 22 12 22C11.4477 22 11 21.5523 11 21V18Z" fill="#0000CC"/>
<path d="M15 21V18H17V21C17 21.5523 16.5523 22 16 22C15.4477 22 15 21.5523 15 21Z" fill="#0000CC"/>
<path d="M7 18H9V21C9 21.5523 8.55228 22 8 22C7.44772 22 7 21.5523 7 21V18Z" fill="#0000CC"/>
</svg>
