<svg width="24" height="24" viewBox="0 0 24 24" fill="none" xmlns="http://www.w3.org/2000/svg">
<path fill-rule="evenodd" clip-rule="evenodd" d="M3.32698 4.63803C3 5.27976 3 6.11984 3 7.8V16.2C3 17.8802 3 18.7202 3.32698 19.362C3.6146 19.9265 4.07354 20.3854 4.63803 20.673C5.27976 21 6.11984 21 7.8 21H16.2C17.8802 21 18.7202 21 19.362 20.673C19.9265 20.3854 20.3854 19.9265 20.673 19.362C21 18.7202 21 17.8802 21 16.2V7.8C21 6.11984 21 5.27976 20.673 4.63803C20.3854 4.07354 19.9265 3.6146 19.362 3.32698C18.7202 3 17.8802 3 16.2 3H7.8C6.11984 3 5.27976 3 4.63803 3.32698C4.07354 3.6146 3.6146 4.07354 3.32698 4.63803ZM10.0493 12.4327C10.5331 13.1327 11.1459 13.7232 11.8671 14.1831L12.9906 13.0508C13.4769 12.5645 14.2063 12.4148 14.8448 12.6702L16.219 13.2199C17.0172 13.5392 17.4569 14.399 17.2484 15.2331L16.9213 16.5419C16.81 16.9871 16.41 17.2994 15.9511 17.2994C14.3552 17.2994 12.8803 16.9604 11.5965 16.3236C10.0384 15.5507 8.78387 14.3498 7.94902 12.8343C7.20081 11.4759 6.7998 9.88381 6.7998 8.1483C6.7998 7.68944 7.11209 7.28946 7.55724 7.17816L8.86611 6.8509C9.70017 6.64239 10.5601 7.08204 10.8794 7.88028L11.452 9.31175C11.6788 9.87882 11.5877 10.5237 11.2128 11.0058L10.0493 12.4327Z" fill="#0000CC"/>
</svg>
