<svg width="24" height="24" viewBox="0 0 24 24" fill="none" xmlns="http://www.w3.org/2000/svg">
<path fill-rule="evenodd" clip-rule="evenodd" d="M3.32698 4.63803C3 5.27976 3 6.11984 3 7.8V11.7639C3.53076 11.2889 4.23165 11 5 11C5.89324 11 6.69531 11.3904 7.24488 12.0099C8.7872 12.1345 10 13.4256 10 15C10 15.5945 9.82707 16.1486 9.52877 16.6148C9.82948 17.1765 10 17.8183 10 18.5V19C10 19.7286 9.80521 20.4117 9.46487 21H16.2C17.8802 21 18.7202 21 19.362 20.673C19.9265 20.3854 20.3854 19.9265 20.673 19.362C21 18.7202 21 17.8802 21 16.2V7.8C21 6.11984 21 5.27976 20.673 4.63803C20.3854 4.07354 19.9265 3.6146 19.362 3.32698C18.7202 3 17.8802 3 16.2 3H7.8C6.11984 3 5.27976 3 4.63803 3.32698C4.07354 3.6146 3.6146 4.07354 3.32698 4.63803ZM13.0001 7C13.0001 6.44772 13.4478 6 14.0001 6H17.0001C17.5524 6 18.0001 6.44772 18.0001 7V10C18.0001 10.5523 17.5524 11 17.0001 11C16.4478 11 16.0001 10.5523 16.0001 10V9.13504L11.6403 12.7682C11.3422 13.0166 10.9273 13.0702 10.576 12.9056C10.2246 12.741 10.0001 12.388 10.0001 12V10.8685L8.55481 11.8321C8.09528 12.1384 7.47441 12.0142 7.16806 11.5547C6.8617 11.0952 6.98588 10.4743 7.44541 10.1679L10.4454 8.16795C10.7523 7.96338 11.1468 7.94431 11.472 8.11833C11.7971 8.29234 12.0001 8.6312 12.0001 9V9.86496L14.2381 8H14.0001C13.4478 8 13.0001 7.55228 13.0001 7ZM10 16C10 15.4477 10.4477 15 11 15H17C17.5523 15 18 15.4477 18 16C18 16.5523 17.5523 17 17 17H11C10.4477 17 10 16.5523 10 16Z" fill="#0000CC"/>
<path d="M5 13C4.44771 13 4 13.4477 4 14C2.89543 14 2 14.8954 2 16V16.5C2 17.6046 2.89543 18.5 4 18.5H5.75C5.88807 18.5 6 18.6119 6 18.75C6 18.8881 5.88807 19 5.75 19H3C2.44772 19 2 19.4477 2 20C2 20.5523 2.44772 21 3 21H4C4 21.5523 4.44771 22 5 22C5.55229 22 6 21.5523 6 21C7.10457 21 8 20.1046 8 19V18.5C8 17.3954 7.10457 16.5 6 16.5H4.25C4.11193 16.5 4 16.3881 4 16.25C4 16.1119 4.11193 16 4.25 16H7C7.55228 16 8 15.5523 8 15C8 14.4477 7.55228 14 7 14H6C6 13.4477 5.55229 13 5 13Z" fill="#0000CC"/>
</svg>
