<svg width="24" height="24" viewBox="0 0 24 24" fill="none" xmlns="http://www.w3.org/2000/svg">
<path fill-rule="evenodd" clip-rule="evenodd" d="M12.1912 2.11058C11.7285 1.9995 11.2487 1.99973 10.6137 2.00003C9.97141 2.00034 9.32909 2.00024 8.68678 2.00015C8.37744 2.00011 8.0681 2.00006 7.75876 2.00006C6.95379 2.00005 6.28943 2.00004 5.74824 2.04426C5.18614 2.09018 4.66944 2.18875 4.1841 2.43604C3.43145 2.81953 2.81953 3.43145 2.43604 4.1841C2.18875 4.66944 2.09018 5.18614 2.04426 5.74824C2.00004 6.28943 2.00005 6.95379 2.00006 7.75876L2.00006 10.5118C2.00006 10.5462 2.00005 10.5802 2.00003 10.6137C1.99973 11.2487 1.9995 11.7285 2.11058 12.1912C2.20857 12.5993 2.37019 12.9895 2.5895 13.3474C2.83813 13.7531 3.17756 14.0922 3.62679 14.5411C4.69966 15.6129 5.77185 16.6854 6.84403 17.7579C7.37201 18.2861 7.89998 18.8142 8.42804 19.3423C8.99722 19.9115 9.46701 20.3813 9.88095 20.7327C10.3109 21.0977 10.746 21.3933 11.264 21.5616C12.0674 21.8227 12.9328 21.8227 13.7361 21.5616C14.2542 21.3933 14.6892 21.0977 15.1192 20.7327C15.5331 20.3812 16.0029 19.9114 16.5721 19.3422L19.3422 16.5721C19.9114 16.0029 20.3812 15.5331 20.7327 15.1192C21.0977 14.6892 21.3933 14.2542 21.5616 13.7361C21.8227 12.9328 21.8227 12.0674 21.5616 11.264C21.3933 10.746 21.0977 10.3109 20.7327 9.88095C20.3813 9.46701 19.9115 8.99725 19.3423 8.42807C18.8143 7.90005 18.2861 7.37209 17.758 6.84415C16.6855 5.77192 15.6129 4.69969 14.541 3.62678C14.0922 3.17756 13.7531 2.83813 13.3474 2.5895C12.9895 2.37019 12.5993 2.20857 12.1912 2.11058ZM7 8.5C7.82843 8.5 8.5 7.82843 8.5 7C8.5 6.17157 7.82843 5.5 7 5.5C6.17157 5.5 5.5 6.17157 5.5 7C5.5 7.82843 6.17157 8.5 7 8.5Z" fill="#0000CC"/>
</svg>
