<svg width="24" height="24" viewBox="0 0 24 24" fill="none" xmlns="http://www.w3.org/2000/svg">
<path d="M11.5118 4.00006C12.2932 4.00006 12.5209 4.00649 12.7243 4.05532C12.9284 4.10432 13.1235 4.18513 13.3024 4.29478C13.4808 4.40408 13.6463 4.56054 14.1988 5.11306L19.793 10.7072C20.1835 11.0977 20.8166 11.0977 21.2072 10.7072C21.5977 10.3166 21.5977 9.68348 21.2072 9.29296L15.541 3.62678C15.0922 3.17756 14.7531 2.83813 14.3474 2.5895C13.9895 2.37019 13.5993 2.20857 13.1912 2.11058C12.7285 1.9995 12.2487 1.99973 11.6137 2.00003L8.50006 2.00006C7.94778 2.00006 7.50006 2.44778 7.50006 3.00006C7.50006 3.55235 7.94778 4.00006 8.50006 4.00006H11.5118Z" fill="#0000CC"/>
<path fill-rule="evenodd" clip-rule="evenodd" d="M11.1912 5.11058C10.7285 4.9995 10.2487 4.99973 9.61372 5.00003L8.25876 5.00006C7.45379 5.00005 6.78943 5.00004 6.24824 5.04426C5.68614 5.09018 5.16944 5.18875 4.6841 5.43604C3.93145 5.81953 3.31953 6.43145 2.93604 7.1841C2.68875 7.66944 2.59018 8.18614 2.54426 8.74824C2.50004 9.28943 2.50005 9.95379 2.50006 10.7588L2.50003 12.1137C2.49973 12.7487 2.4995 13.2285 2.61058 13.6912C2.70857 14.0993 2.87019 14.4895 3.0895 14.8474C3.33813 15.2531 3.67756 15.5922 4.12679 16.041C4.86589 16.7795 5.60454 17.5183 6.34318 18.2572C6.70477 18.6189 7.06636 18.9806 7.428 19.3422C7.99721 19.9114 8.467 20.3812 8.88095 20.7327C9.31089 21.0977 9.74595 21.3933 10.264 21.5616C11.0674 21.8227 11.9328 21.8227 12.7361 21.5616C13.2542 21.3933 13.6892 21.0977 14.1192 20.7327C14.5331 20.3813 15.0029 19.9115 15.5721 19.3423L16.8422 18.0721C17.4114 17.5029 17.8812 17.0331 18.2327 16.6192C18.5977 16.1892 18.8933 15.7542 19.0616 15.2361C19.3227 14.4328 19.3227 13.5674 19.0616 12.764C18.8933 12.2459 18.5977 11.8109 18.2327 11.381C17.8812 10.967 17.4115 10.4972 16.8422 9.92802C16.481 9.56681 16.1198 9.20566 15.7585 8.84451C15.0192 8.10543 14.2799 7.36634 13.541 6.62679C13.0922 6.17756 12.7531 5.83813 12.3474 5.5895C11.9895 5.37019 11.5993 5.20857 11.1912 5.11058ZM7.5 11.5C8.32843 11.5 9 10.8284 9 10C9 9.17157 8.32843 8.5 7.5 8.5C6.67157 8.5 6 9.17157 6 10C6 10.8284 6.67157 11.5 7.5 11.5Z" fill="#0000CC"/>
</svg>
