<svg width="24" height="24" viewBox="0 0 24 24" fill="none" xmlns="http://www.w3.org/2000/svg">
<path d="M6 3.65298C5.50794 3.73364 5.0993 3.85683 4.73005 4.04497C3.78924 4.52433 3.02433 5.28924 2.54497 6.23005C2.0001 7.2994 2 8.6992 2 11.4984L6 11.4984V3.65298Z" fill="#0000CC"/>
<path d="M2 13.4984V17.3C2 18.4201 2 18.9802 2.21799 19.408C2.40973 19.7843 2.71569 20.0903 3.09202 20.282C3.51984 20.5 4.0799 20.5 5.2 20.5H6V13.4984L2 13.4984Z" fill="#0000CC"/>
<path d="M8 20.5H16V13.4984H15V14.4984C15 15.0507 14.5523 15.4984 14 15.4984H10C9.44771 15.4984 9 15.0507 9 14.4984V13.4984H8V20.5Z" fill="#0000CC"/>
<path d="M18 20.5H18.8C19.9201 20.5 20.4802 20.5 20.908 20.282C21.2843 20.0903 21.5903 19.7843 21.782 19.408C22 18.9802 22 18.4201 22 17.3V13.4984L18 13.4984V20.5Z" fill="#0000CC"/>
<path d="M22 11.4984C22 8.6992 21.9999 7.2994 21.455 6.23005C20.9757 5.28924 20.2108 4.52433 19.27 4.04497C18.9007 3.85683 18.4921 3.73364 18 3.65298V11.4984L22 11.4984Z" fill="#0000CC"/>
<path d="M16 3.51105C15.423 3.5 14.7635 3.5 14 3.5H10C9.23647 3.5 8.57703 3.5 8 3.51105V11.4984H9V10.4984C9 9.94611 9.44771 9.49839 10 9.49839H14C14.5523 9.49839 15 9.94611 15 10.4984V11.4984H16V3.51105Z" fill="#0000CC"/>
<path d="M13 13.4984H11V11.4984H13V13.4984Z" fill="#0000CC"/>
</svg>
