<svg width="24" height="24" viewBox="0 0 24 24" fill="none" xmlns="http://www.w3.org/2000/svg">
<path fill-rule="evenodd" clip-rule="evenodd" d="M11.2929 3.29289C11.6834 2.90237 12.3166 2.90237 12.7071 3.29289L15.7071 6.29289C16.0976 6.68342 16.0976 7.31658 15.7071 7.70711C15.3166 8.09763 14.6834 8.09763 14.2929 7.70711L13 6.41421V16C13 16.5523 12.5523 17 12 17C11.4477 17 11 16.5523 11 16V6.41421L9.70711 7.70711C9.31658 8.09763 8.68342 8.09763 8.29289 7.70711C7.90237 7.31658 7.90237 6.68342 8.29289 6.29289L11.2929 3.29289Z" fill="#0000CC"/>
<path opacity="0.3" d="M11 9H6.16146C5.63433 8.99998 5.17954 8.99997 4.80497 9.03057C4.40963 9.06287 4.01641 9.13419 3.63803 9.32698C3.07354 9.6146 2.6146 10.0735 2.32698 10.638C2.13419 11.0164 2.06287 11.4096 2.03057 11.805C1.99997 12.1795 1.99998 12.6343 2 13.1614V16.8385C1.99998 17.3657 1.99997 17.8205 2.03057 18.195C2.06287 18.5904 2.13419 18.9836 2.32698 19.362C2.6146 19.9265 3.07354 20.3854 3.63803 20.673C4.01641 20.8658 4.40963 20.9371 4.80497 20.9694C5.17954 21 5.6343 21 6.16145 21H17.8385C18.3657 21 18.8205 21 19.195 20.9694C19.5904 20.9371 19.9836 20.8658 20.362 20.673C20.9265 20.3854 21.3854 19.9265 21.673 19.362C21.8658 18.9836 21.9371 18.5904 21.9694 18.195C22 17.8205 22 17.3657 22 16.8386V13.1614C22 12.6343 22 12.1795 21.9694 11.805C21.9371 11.4096 21.8658 11.0164 21.673 10.638C21.3854 10.0735 20.9265 9.6146 20.362 9.32698C19.9836 9.13419 19.5904 9.06287 19.195 9.03057C18.8205 8.99997 18.3657 8.99998 17.8386 9H13V16C13 16.5523 12.5523 17 12 17C11.4477 17 11 16.5523 11 16V9Z" fill="#0000CC"/>
</svg>
