<svg width="24" height="24" viewBox="0 0 24 24" fill="none" xmlns="http://www.w3.org/2000/svg">
<g opacity="0.3">
<path d="M14.8618 3.01695C15.0699 2.99994 15.3157 2.99997 15.5681 3H17.4319C17.6843 2.99997 17.9301 2.99994 18.1382 3.01695C18.3668 3.03563 18.6366 3.07969 18.908 3.21799C19.2843 3.40974 19.5903 3.7157 19.782 4.09202C19.9203 4.36345 19.9644 4.63318 19.9831 4.86178C20.0001 5.06993 20 5.31572 20 5.56811V7.4319C20 7.68429 20.0001 7.93008 19.9831 8.13824C19.9644 8.36683 19.9203 8.63656 19.782 8.90799C19.5903 9.28431 19.2843 9.59027 18.908 9.78202C18.6366 9.92032 18.3668 9.96438 18.1382 9.98306C17.9301 10.0001 17.6843 10 17.4319 10H15.5681C15.3157 10 15.0699 10.0001 14.8618 9.98306C14.6332 9.96438 14.3634 9.92032 14.092 9.78202C13.7157 9.59027 13.4097 9.28431 13.218 8.90799C13.0797 8.63656 13.0356 8.36683 13.017 8.13824C12.9999 7.93008 13 7.68428 13 7.4319V5.56809C13 5.31572 12.9999 5.06993 13.017 4.86178C13.0356 4.63318 13.0797 4.36345 13.218 4.09202C13.4097 3.7157 13.7157 3.40974 14.092 3.21799C14.3634 3.07969 14.6332 3.03563 14.8618 3.01695Z" fill="#0000CC"/>
<path d="M14.8618 12.0169C15.0699 11.9999 15.3157 12 15.5681 12H19.4319C19.6843 12 19.9301 11.9999 20.1382 12.0169C20.3668 12.0356 20.6366 12.0797 20.908 12.218C21.2843 12.4097 21.5903 12.7157 21.782 13.092C21.9203 13.3634 21.9644 13.6332 21.9831 13.8618C22.0001 14.0699 22 14.3157 22 14.5681V18.4319C22 18.6843 22.0001 18.9301 21.9831 19.1382C21.9644 19.3668 21.9203 19.6366 21.782 19.908C21.5903 20.2843 21.2843 20.5903 20.908 20.782C20.6366 20.9203 20.3668 20.9644 20.1382 20.9831C19.9301 21.0001 19.6843 21 19.432 21H15.568C15.3157 21 15.0699 21.0001 14.8618 20.9831C14.6332 20.9644 14.3634 20.9203 14.092 20.782C13.7157 20.5903 13.4097 20.2843 13.218 19.908C13.0797 19.6366 13.0356 19.3668 13.017 19.1382C12.9999 18.9301 13 18.6843 13 18.4319V14.5681C13 14.3157 12.9999 14.0699 13.017 13.8618C13.0356 13.6332 13.0797 13.3634 13.218 13.092C13.4097 12.7157 13.7157 12.4097 14.092 12.218C14.3634 12.0797 14.6332 12.0356 14.8618 12.0169Z" fill="#0000CC"/>
</g>
<path d="M7.70711 3.29289C7.31658 2.90237 6.68342 2.90237 6.29289 3.29289L2.29289 7.29289C1.90237 7.68342 1.90237 8.31658 2.29289 8.70711C2.68342 9.09763 3.31658 9.09763 3.70711 8.70711L6 6.41421V20C6 20.5523 6.44772 21 7 21C7.55228 21 8 20.5523 8 20V6.41421L10.2929 8.70711C10.6834 9.09763 11.3166 9.09763 11.7071 8.70711C12.0976 8.31658 12.0976 7.68342 11.7071 7.29289L7.70711 3.29289Z" fill="#0000CC"/>
</svg>
