<svg width="24" height="24" viewBox="0 0 24 24" fill="none" xmlns="http://www.w3.org/2000/svg">
<path opacity="0.3" fill-rule="evenodd" clip-rule="evenodd" d="M19 12C19 11.4477 18.5523 11 18 11H6C5.44771 11 5 11.4477 5 12C5 12.5523 5.44771 13 6 13H18C18.5523 13 19 12.5523 19 12Z" fill="#0000CC"/>
<path fill-rule="evenodd" clip-rule="evenodd" d="M12.2929 6.29289C11.9024 6.68342 11.9024 7.31658 12.2929 7.70711L16.5858 12L12.2929 16.2929C11.9024 16.6834 11.9024 17.3166 12.2929 17.7071C12.6834 18.0976 13.3166 18.0976 13.7071 17.7071L18.7071 12.7071C19.0976 12.3166 19.0976 11.6834 18.7071 11.2929L13.7071 6.29289C13.3166 5.90237 12.6834 5.90237 12.2929 6.29289Z" fill="#0000CC"/>
</svg>
