<svg width="24" height="24" viewBox="0 0 24 24" fill="none" xmlns="http://www.w3.org/2000/svg">
<path opacity="0.3" d="M14 3V9H9C7.34315 9 6 10.3431 6 12C6 13.6569 7.34315 15 9 15H14V21C14 21.5523 13.5523 22 13 22H12C6.47715 22 2 17.5228 2 12C2 6.47715 6.47715 2 12 2H13C13.5523 2 14 2.44772 14 3Z" fill="#0000CC"/>
<path d="M21.7071 12.7071C22.0976 12.3166 22.0976 11.6834 21.7071 11.2929L17.7071 7.29289C17.3166 6.90237 16.6834 6.90237 16.2929 7.29289C15.9024 7.68342 15.9024 8.31658 16.2929 8.70711L18.5858 11H9C8.44771 11 8 11.4477 8 12C8 12.5523 8.44771 13 9 13H18.5858L16.2929 15.2929C15.9024 15.6834 15.9024 16.3166 16.2929 16.7071C16.6834 17.0976 17.3166 17.0976 17.7071 16.7071L21.7071 12.7071Z" fill="#0000CC"/>
</svg>
