<svg width="24" height="24" viewBox="0 0 24 24" fill="none" xmlns="http://www.w3.org/2000/svg">
<path opacity="0.3" fill-rule="evenodd" clip-rule="evenodd" d="M12 4C7.58172 4 4 7.58172 4 12C4 16.4183 7.58172 20 12 20C16.1256 20 19.566 16.8801 20.006 12.8875C20.0665 12.3385 20.5606 11.9425 21.1095 12.003C21.6585 12.0635 22.0545 12.5576 21.994 13.1066C21.4418 18.1167 17.1415 22 12 22C6.47715 22 2 17.5228 2 12C2 6.47715 6.47715 2 12 2C15.0895 2 17.795 3.37027 19.6044 5.55466C19.8087 5.14287 20.2783 4.9138 20.7425 5.02986C21.2783 5.16381 21.6041 5.70674 21.4701 6.24254L20.9701 8.24254C20.8589 8.6877 20.4589 9 20 9H18C17.4477 9 17 8.55228 17 8C17 7.44772 17.4477 7 18 7H18.2011C16.7572 5.15617 14.5453 4 12 4Z" fill="#0000CC"/>
<path d="M6.00007 10.5C6.00007 9.11929 7.11936 8 8.50007 8C9.88079 8 11.0001 9.11929 11.0001 10.5V11C11.0001 11.3348 10.8872 11.6246 10.7788 11.8344C10.6659 12.053 10.5196 12.2573 10.3709 12.4388C10.2153 12.6287 10.037 12.8178 9.85019 13H10.0001C10.5524 13 11.0001 13.4477 11.0001 14C11.0001 14.5523 10.5524 15 10.0001 15H7.00007C6.56164 15 6.17434 14.7144 6.04475 14.2956C5.91517 13.8767 6.07352 13.4223 6.43534 13.1747C6.65994 13.021 7.37374 12.5219 8.02263 11.9617C8.34963 11.6794 8.63175 11.4058 8.82377 11.1714C9.01098 10.9429 9.00007 10.7911 9.00007 10.5C9.00007 10.2239 8.77622 10 8.50007 10C8.22393 10 8.00007 10.2239 8.00007 10.5V11C8.00007 11.5523 7.55236 12 7.00007 12C6.44779 12 6.00007 11.5523 6.00007 11V10.5Z" fill="#0000CC"/>
<path d="M13.0001 8C13.5524 8 14.0001 8.44772 14.0001 9V11H15.0001V10C15.0001 9.44772 15.4478 9 16.0001 9C16.5524 9 17.0001 9.44772 17.0001 10V14C17.0001 14.5523 16.5524 15 16.0001 15C15.4478 15 15.0001 14.5523 15.0001 14V13H13.0001C12.4478 13 12.0001 12.5523 12.0001 12V9C12.0001 8.44772 12.4478 8 13.0001 8Z" fill="#0000CC"/>
</svg>
