<svg width="24" height="24" viewBox="0 0 24 24" fill="none" xmlns="http://www.w3.org/2000/svg">
<path opacity="0.3" d="M22 12C22 17.5228 17.5228 22 12 22C6.47715 22 2 17.5228 2 12C2 6.47715 6.47715 2 12 2C17.5228 2 22 6.47715 22 12Z" fill="#0000CC"/>
<path d="M4.25684 18.3287L11.5853 11H8.34266C7.79037 11 7.34266 10.5523 7.34266 10C7.34266 9.44772 7.79037 9 8.34266 9H13.9995C14.5518 9 14.9995 9.44772 14.9995 10V15.6569C14.9995 16.2091 14.5518 16.6569 13.9995 16.6569C13.4472 16.6569 12.9995 16.2091 12.9995 15.6569V12.4143L5.67104 19.7429C5.15394 19.3198 4.68 18.8458 4.25684 18.3287Z" fill="#0000CC"/>
</svg>
