<svg width="24" height="24" viewBox="0 0 24 24" fill="none" xmlns="http://www.w3.org/2000/svg">
<path opacity="0.3" d="M3 7.8C3 6.11984 3 5.27976 3.32698 4.63803C3.6146 4.07354 4.07354 3.6146 4.63803 3.32698C5.27976 3 6.11984 3 7.8 3H16.2C17.8802 3 18.7202 3 19.362 3.32698C19.9265 3.6146 20.3854 4.07354 20.673 4.63803C21 5.27976 21 6.11984 21 7.8V16.2C21 17.8802 21 18.7202 20.673 19.362C20.3854 19.9265 19.9265 20.3854 19.362 20.673C18.7202 21 17.8802 21 16.2 21H7.8C6.11984 21 5.27976 21 4.63803 20.673C4.07354 20.3854 3.6146 19.9265 3.32698 19.362C3 18.7202 3 17.8802 3 16.2V7.8Z" fill="#0000CC"/>
<path fill-rule="evenodd" clip-rule="evenodd" d="M11.7071 9.70711C12.0976 9.31658 12.0976 8.68342 11.7071 8.29289C11.3166 7.90237 10.6834 7.90237 10.2929 8.29289L7.29289 11.2929C6.90237 11.6834 6.90237 12.3166 7.29289 12.7071L10.2929 15.7071C10.6834 16.0976 11.3166 16.0976 11.7071 15.7071C12.0976 15.3166 12.0976 14.6834 11.7071 14.2929L10.4142 13H16C16.5523 13 17 12.5523 17 12C17 11.4477 16.5523 11 16 11H10.4142L11.7071 9.70711Z" fill="#0000CC"/>
</svg>
