<svg width="24" height="24" viewBox="0 0 24 24" fill="none" xmlns="http://www.w3.org/2000/svg">
<path opacity="0.3" fill-rule="evenodd" clip-rule="evenodd" d="M2 12C2 6.47715 6.47715 2 12 2C17.5228 2 22 6.47715 22 12C22 17.5228 17.5228 22 12 22C6.47715 22 2 17.5228 2 12Z" fill="#0000CC"/>
<path d="M9.70712 8.29291C9.31661 7.90238 8.68344 7.90236 8.29291 8.29288C7.90238 8.6834 7.90236 9.31656 8.29288 9.70709L12.5857 14.0001H10.4998C9.94753 14.0001 9.49981 14.4478 9.49981 15.0001C9.49981 15.5523 9.94753 16.0001 10.4998 16.0001H14.9998C15.5521 16.0001 15.9998 15.5523 15.9998 15.0001V10.5001C15.9998 9.94777 15.5521 9.50006 14.9998 9.50006C14.4475 9.50006 13.9998 9.94777 13.9998 10.5001V12.5858L9.70712 8.29291Z" fill="#0000CC"/>
</svg>
