<svg width="24" height="24" viewBox="0 0 24 24" fill="none" xmlns="http://www.w3.org/2000/svg">
<path opacity="0.3" d="M3 7.8C3 6.11984 3 5.27976 3.32698 4.63803C3.6146 4.07354 4.07354 3.6146 4.63803 3.32698C5.27976 3 6.11984 3 7.8 3H16.2C17.8802 3 18.7202 3 19.362 3.32698C19.9265 3.6146 20.3854 4.07354 20.673 4.63803C21 5.27976 21 6.11984 21 7.8V16.2C21 17.8802 21 18.7202 20.673 19.362C20.3854 19.9265 19.9265 20.3854 19.362 20.673C18.7202 21 17.8802 21 16.2 21H7.8C6.11984 21 5.27976 21 4.63803 20.673C4.07354 20.3854 3.6146 19.9265 3.32698 19.362C3 18.7202 3 17.8802 3 16.2V7.8Z" fill="#0000CC"/>
<path fill-rule="evenodd" clip-rule="evenodd" d="M9.70711 8.29289C9.31658 7.90237 8.68342 7.90237 8.29289 8.29289C7.90237 8.68342 7.90237 9.31658 8.29289 9.70711L12.5858 14H10.5C9.94772 14 9.5 14.4477 9.5 15C9.5 15.5523 9.94772 16 10.5 16H15C15.5523 16 16 15.5523 16 15V10.5C16 9.94772 15.5523 9.5 15 9.5C14.4477 9.5 14 9.94772 14 10.5V12.5858L9.70711 8.29289Z" fill="#0000CC"/>
</svg>
