<svg width="24" height="24" viewBox="0 0 24 24" fill="none" xmlns="http://www.w3.org/2000/svg">
<path opacity="0.3" fill-rule="evenodd" clip-rule="evenodd" d="M3 12C3 11.4477 3.44772 11 4 11H20C20.5523 11 21 11.4477 21 12C21 12.5523 20.5523 13 20 13H4C3.44772 13 3 12.5523 3 12Z" fill="#0000CC"/>
<path fill-rule="evenodd" clip-rule="evenodd" d="M8.70711 7.29289C9.09763 7.68342 9.09763 8.31658 8.70711 8.70711L5.41421 12L8.70711 15.2929C9.09763 15.6834 9.09763 16.3166 8.70711 16.7071C8.31658 17.0976 7.68342 17.0976 7.29289 16.7071L3.29289 12.7071C2.90237 12.3166 2.90237 11.6834 3.29289 11.2929L7.29289 7.29289C7.68342 6.90237 8.31658 6.90237 8.70711 7.29289Z" fill="#0000CC"/>
</svg>
