<svg width="24" height="24" viewBox="0 0 24 24" fill="none" xmlns="http://www.w3.org/2000/svg">
<path opacity="0.3" d="M22 12C22 17.5228 17.5228 22 12 22C6.47715 22 2 17.5228 2 12C2 6.47715 6.47715 2 12 2C17.5228 2 22 6.47715 22 12Z" fill="#0000CC"/>
<path d="M4.25684 5.6713C4.68 5.15419 5.15394 4.68024 5.67105 4.25708L12.9995 11.5857V8.3431C12.9995 7.79081 13.4472 7.3431 13.9995 7.3431C14.5518 7.3431 14.9995 7.79081 14.9995 8.3431V14C14.9995 14.5522 14.5518 15 13.9995 15H8.34265C7.79036 15 7.34265 14.5522 7.34265 14C7.34265 13.4477 7.79036 13 8.34265 13H11.5853L4.25684 5.6713Z" fill="#0000CC"/>
</svg>
