<svg width="24" height="24" viewBox="0 0 24 24" fill="none" xmlns="http://www.w3.org/2000/svg">
<path opacity="0.3" d="M17.8385 8H6.16146C5.63433 7.99998 5.17954 7.99997 4.80497 8.03057C4.40963 8.06287 4.01641 8.13419 3.63803 8.32698C3.07354 8.6146 2.6146 9.07354 2.32698 9.63803C2.13419 10.0164 2.06287 10.4096 2.03057 10.805C1.99997 11.1795 1.99998 11.6343 2 12.1614V16.8385C1.99998 17.3657 1.99997 17.8205 2.03057 18.195C2.06287 18.5904 2.13419 18.9836 2.32698 19.362C2.6146 19.9265 3.07355 20.3854 3.63803 20.673C4.01641 20.8658 4.40963 20.9371 4.80497 20.9694C5.17954 21 5.63431 21 6.16145 21H17.8385C18.3657 21 18.8205 21 19.195 20.9694C19.5904 20.9371 19.9836 20.8658 20.362 20.673C20.9265 20.3854 21.3854 19.9265 21.673 19.362C21.8658 18.9836 21.9371 18.5904 21.9694 18.195C22 17.8205 22 17.3657 22 16.8386V12.1614C22 11.6343 22 11.1795 21.9694 10.805C21.9371 10.4096 21.8658 10.0164 21.673 9.63803C21.3854 9.07355 20.9265 8.6146 20.362 8.32698C19.9836 8.13419 19.5904 8.06287 19.195 8.03057C18.8205 7.99997 18.3657 7.99998 17.8385 8Z" fill="#0000CC"/>
<path fill-rule="evenodd" clip-rule="evenodd" d="M12 3C12.5523 3 13 3.44772 13 4V13.5858L14.2929 12.2929C14.6834 11.9024 15.3166 11.9024 15.7071 12.2929C16.0976 12.6834 16.0976 13.3166 15.7071 13.7071L12.7071 16.7071C12.3166 17.0976 11.6834 17.0976 11.2929 16.7071L8.29289 13.7071C7.90237 13.3166 7.90237 12.6834 8.29289 12.2929C8.68342 11.9024 9.31658 11.9024 9.70711 12.2929L11 13.5858V4C11 3.44772 11.4477 3 12 3Z" fill="#0000CC"/>
</svg>
