<svg width="24" height="24" viewBox="0 0 24 24" fill="none" xmlns="http://www.w3.org/2000/svg">
<g opacity="0.3">
<path fill-rule="evenodd" clip-rule="evenodd" d="M21.0889 7.85537C21.6549 7.23358 22 6.40709 22 5.5C22 3.567 20.433 2 18.5 2C16.567 2 15 3.567 15 5.5C15 7.13042 16.1148 8.50046 17.6238 8.88942L17.2318 9.35982C16.8782 9.78409 16.9355 10.4147 17.3598 10.7682C17.7841 11.1218 18.4147 11.0645 18.7682 10.6402L21.0889 7.85537ZM18.5 7C19.3284 7 20 6.32843 20 5.5C20 4.67157 19.3284 4 18.5 4C17.6716 4 17 4.67157 17 5.5C17 6.32843 17.6716 7 18.5 7Z" fill="#0000CC"/>
<path d="M19.5 14C19.5 13.5955 19.2564 13.2309 18.8827 13.0761C18.509 12.9213 18.0789 13.0069 17.7929 13.2929L15.7929 15.2929C15.4024 15.6834 15.4024 16.3166 15.7929 16.7071C16.1834 17.0976 16.8166 17.0976 17.2071 16.7071L17.5 16.4142V20H16.5C15.9477 20 15.5 20.4477 15.5 21C15.5 21.5523 15.9477 22 16.5 22H20.5C21.0523 22 21.5 21.5523 21.5 21C21.5 20.4477 21.0523 20 20.5 20H19.5V14Z" fill="#0000CC"/>
</g>
<path fill-rule="evenodd" clip-rule="evenodd" d="M6.29289 2.29289C6.68342 1.90237 7.31658 1.90237 7.70711 2.29289L11.7071 6.29289C12.0976 6.68342 12.0976 7.31658 11.7071 7.70711C11.3166 8.09763 10.6834 8.09763 10.2929 7.70711L8 5.41421V21C8 21.5523 7.55228 22 7 22C6.44772 22 6 21.5523 6 21V5.41421L3.70711 7.70711C3.31658 8.09763 2.68342 8.09763 2.29289 7.70711C1.90237 7.31658 1.90237 6.68342 2.29289 6.29289L6.29289 2.29289Z" fill="#0000CC"/>
</svg>
