<svg width="24" height="24" viewBox="0 0 24 24" fill="none" xmlns="http://www.w3.org/2000/svg">
<path opacity="0.3" fill-rule="evenodd" clip-rule="evenodd" d="M8 3C8.55229 3 9 3.44772 9 4V10.4C9 12.0967 9.00078 13.309 9.07842 14.2594C9.15512 15.1981 9.30179 15.7927 9.54497 16.27C10.0243 17.2108 10.7892 17.9757 11.73 18.4551C12.2073 18.6982 12.802 18.8449 13.7406 18.9216C14.691 18.9992 15.9033 19 17.6 19H20C20.5523 19 21 19.4477 21 20C21 20.5523 20.5523 21 20 21H17.5556C15.913 21 14.6191 21 13.5778 20.915C12.5154 20.8282 11.6283 20.6479 10.8221 20.2371C9.50493 19.566 8.43407 18.4951 7.76296 17.178C7.35217 16.3718 7.17186 15.4846 7.08507 14.4222C6.99999 13.3809 6.99999 12.087 7 10.4444L7 4C7 3.44772 7.44772 3 8 3Z" fill="#0000CC"/>
<path fill-rule="evenodd" clip-rule="evenodd" d="M8 3C8.26522 3 8.51957 3.10536 8.70711 3.29289L12.7071 7.29289C13.0976 7.68342 13.0976 8.31658 12.7071 8.70711C12.3166 9.09763 11.6834 9.09763 11.2929 8.70711L8 5.41421L4.70711 8.70711C4.31658 9.09763 3.68342 9.09763 3.29289 8.70711C2.90237 8.31658 2.90237 7.68342 3.29289 7.29289L7.29289 3.29289C7.48043 3.10536 7.73478 3 8 3Z" fill="#0000CC"/>
</svg>
