<svg width="24" height="24" viewBox="0 0 24 24" fill="none" xmlns="http://www.w3.org/2000/svg">
<path opacity="0.3" fill-rule="evenodd" clip-rule="evenodd" d="M11.9998 4C9.67764 4 7.58772 4.98815 6.12494 6.56988C5.74996 6.97536 5.11728 7.00007 4.71181 6.62509C4.30633 6.25011 4.28161 5.61743 4.65659 5.21196C6.48205 3.23806 9.09712 2 11.9998 2C17.1478 2 21.386 5.88912 21.9389 10.8901C21.9995 11.4391 21.6037 11.9333 21.0548 11.9939C20.5059 12.0546 20.0117 11.6588 19.951 11.1099C19.5089 7.11098 16.117 4 11.9998 4ZM2.9449 12.0061C3.49384 11.9454 3.98804 12.3412 4.04872 12.8901C4.49078 16.889 7.88269 20 11.9998 20C14.3221 20 16.412 19.0119 17.8748 17.4301C18.2497 17.0246 18.8824 16.9999 19.2879 17.3749C19.6934 17.7499 19.7181 18.3826 19.3431 18.788C17.5176 20.7619 14.9026 22 11.9998 22C6.85189 22 2.61366 18.1109 2.06083 13.1099C2.00015 12.5609 2.39596 12.0667 2.9449 12.0061Z" fill="#0000CC"/>
<path fill-rule="evenodd" clip-rule="evenodd" d="M2.11732 2.07615C2.49099 1.92137 2.92111 2.00692 3.20711 2.29292L9.20711 8.29292C9.4931 8.57892 9.57866 9.00904 9.42388 9.38271C9.2691 9.75639 8.90446 10 8.5 10H2.5C1.94772 10 1.5 9.55231 1.5 9.00003V3.00003C1.5 2.59557 1.74364 2.23093 2.11732 2.07615ZM14.5761 14.6173C14.7309 14.2437 15.0955 14 15.5 14H21.5C22.0523 14 22.5 14.4477 22.5 15V21C22.5 21.4045 22.2564 21.7691 21.8827 21.9239C21.509 22.0787 21.0789 21.9931 20.7929 21.7071L14.7929 15.7071C14.5069 15.4211 14.4213 14.991 14.5761 14.6173Z" fill="#0000CC"/>
</svg>
