<svg width="24" height="24" viewBox="0 0 24 24" fill="none" xmlns="http://www.w3.org/2000/svg">
<path opacity="0.3" fill-rule="evenodd" clip-rule="evenodd" d="M2.06083 10.8901C2.61366 5.88912 6.85189 2 11.9998 2C14.9026 2 17.5176 3.23806 19.3431 5.21196C19.7181 5.61743 19.6934 6.25011 19.2879 6.62509C18.8824 7.00007 18.2497 6.97536 17.8748 6.56988C16.412 4.98815 14.3221 4 11.9998 4C7.88269 4 4.49078 7.11098 4.04872 11.1099C3.98804 11.6588 3.49384 12.0546 2.9449 11.9939C2.39596 11.9333 2.00015 11.4391 2.06083 10.8901ZM21.0548 12.0061C21.6037 12.0667 21.9995 12.5609 21.9389 13.1099C21.386 18.1109 17.1478 22 11.9998 22C9.09712 22 6.48205 20.7619 4.65659 18.788C4.28161 18.3826 4.30633 17.7499 4.71181 17.3749C5.11728 16.9999 5.74996 17.0246 6.12494 17.4301C7.58772 19.0119 9.67764 20 11.9998 20C16.117 20 19.5089 16.889 19.951 12.8901C20.0117 12.3412 20.5059 11.9454 21.0548 12.0061Z" fill="#0000CC"/>
<path fill-rule="evenodd" clip-rule="evenodd" d="M21.8827 2.07615C22.2564 2.23093 22.5 2.59557 22.5 3.00003V9.00003C22.5 9.55231 22.0523 10 21.5 10H15.5C15.0955 10 14.7309 9.75639 14.5761 9.38271C14.4213 9.00904 14.5069 8.57892 14.7929 8.29292L20.7929 2.29292C21.0789 2.00692 21.509 1.92137 21.8827 2.07615ZM2.5 14H8.5C8.90446 14 9.2691 14.2437 9.42388 14.6173C9.57866 14.991 9.4931 15.4211 9.20711 15.7071L3.20711 21.7071C2.92111 21.9931 2.49099 22.0787 2.11732 21.9239C1.74364 21.7691 1.5 21.4045 1.5 21V15C1.5 14.4477 1.94772 14 2.5 14Z" fill="#0000CC"/>
</svg>
