<svg width="24" height="24" viewBox="0 0 24 24" fill="none" xmlns="http://www.w3.org/2000/svg">
<path opacity="0.3" d="M5.69506 15.7276C5.65739 15.2489 5.85115 14.7811 6.21627 14.4693C6.54321 14.19 6.93647 14.1457 7.12736 14.1287C7.34133 14.1098 7.60709 14.1098 7.87746 14.1099H16.0892C16.3596 14.1098 16.6253 14.1098 16.8393 14.1287C17.0302 14.1457 17.4234 14.19 17.7504 14.4693C18.1155 14.7811 18.3093 15.2489 18.2716 15.7276C18.2379 16.1562 17.9912 16.4656 17.8681 16.6126C17.7303 16.7772 17.5424 16.9651 17.3512 17.1562L13.2398 21.2677C13.1556 21.3519 13.055 21.4525 12.9592 21.5339C12.8481 21.6282 12.6795 21.7538 12.4469 21.8293C12.1456 21.9272 11.8211 21.9272 11.5198 21.8293C11.2872 21.7538 11.1186 21.6282 11.0075 21.5339C10.9116 21.4525 10.8111 21.3519 10.7269 21.2676L6.61558 17.1563C6.42437 16.9652 6.23641 16.7773 6.09852 16.6126C5.9755 16.4656 5.7288 16.1562 5.69506 15.7276Z" fill="#0000CC"/>
<path d="M18.2716 8.28507C18.3093 8.76374 18.1155 9.23153 17.7504 9.54337C17.4235 9.8226 17.0302 9.86696 16.8393 9.88388C16.6253 9.90284 16.3596 9.9028 16.0892 9.90276H7.87746C7.60709 9.9028 7.34133 9.90284 7.12736 9.88388C6.93647 9.86696 6.54321 9.8226 6.21627 9.54337C5.85115 9.23153 5.65739 8.76375 5.69506 8.28507C5.7288 7.85644 5.9755 7.54699 6.09852 7.40005C6.23637 7.23539 6.42426 7.04755 6.61542 6.85645L10.7269 2.74496C10.8111 2.66071 10.9116 2.56008 11.0075 2.47871C11.1186 2.38441 11.2872 2.25887 11.5198 2.18328C11.8211 2.08539 12.1456 2.08539 12.4469 2.18328C12.6795 2.25887 12.8481 2.38441 12.9592 2.47871C13.055 2.56008 13.1556 2.66072 13.2398 2.74498L17.3511 6.85629C17.5423 7.04745 17.7302 7.23534 17.8681 7.40005C17.9912 7.54699 18.2379 7.85643 18.2716 8.28507Z" fill="#0000CC"/>
</svg>
