<svg width="24" height="24" viewBox="0 0 24 24" fill="none" xmlns="http://www.w3.org/2000/svg">
<path d="M8.20457 4.77311C7.22509 5.26285 7 5.7544 7 6C7 6.2456 7.22509 6.73715 8.20457 7.22689C8.2597 7.25446 8.31634 7.28149 8.37444 7.30797C8.1342 7.82186 8 8.39526 8 9C8 9.10871 8.00434 9.21641 8.01285 9.32294C7.76687 9.22929 7.5321 9.12673 7.31015 9.01575C6.11805 8.4197 5 7.41126 5 6C5 4.58874 6.11805 3.5803 7.31015 2.98425C8.56205 2.3583 10.2216 2 12 2C13.7784 2 15.4379 2.3583 16.6899 2.98425C17.8819 3.5803 19 4.58874 19 6C19 7.41126 17.8819 8.4197 16.6899 9.01575C16.4679 9.12673 16.2331 9.22929 15.9871 9.32294C15.9957 9.21642 16 9.10871 16 9C16 8.39526 15.8658 7.82187 15.6256 7.30797C15.6837 7.2815 15.7403 7.25446 15.7954 7.22689C16.7749 6.73715 17 6.2456 17 6C17 5.7544 16.7749 5.26285 15.7954 4.77311C14.8758 4.31327 13.5353 4 12 4C10.4647 4 9.12424 4.31327 8.20457 4.77311Z" fill="#0000CC"/>
<path d="M12 6C10.3431 6 9 7.34315 9 9C9 10.6569 10.3431 12 12 12C13.6569 12 15 10.6569 15 9C15 7.34315 13.6569 6 12 6Z" fill="#0000CC"/>
<path d="M8.16146 11.6007L9.81142 12.7837C9.59813 12.9345 9.41326 13.1015 9.25228 13.2702C8.65775 13.8933 8.12191 14.8599 7.56873 15.8577L5.25169 20.0287C4.91021 20.6433 4.91676 21.3917 5.26794 22H3C2.65342 22 2.33156 21.8205 2.14935 21.5257C1.96714 21.2309 1.95058 20.8627 2.10557 20.5527L3.2214 18.3211C3.36891 18.0261 3.41888 17.9246 3.45861 17.8274C3.7002 17.2358 3.74663 16.5826 3.59111 15.9629C3.56554 15.861 3.53042 15.7535 3.42611 15.4406L3.13025 14.553C2.41336 12.4023 4.35322 10.3075 6.55255 10.8573C7.13018 11.0017 7.67548 11.2535 8.15999 11.5996L8.16146 11.6007Z" fill="#0000CC"/>
<path d="M21.0001 22C21.3466 22 21.6685 21.8205 21.8507 21.5257C22.0329 21.2309 22.0495 20.8627 21.8945 20.5527L20.7787 18.3211C20.6312 18.0261 20.5812 17.9246 20.5415 17.8274C20.2999 17.2358 20.2534 16.5826 20.4089 15.9629C20.4345 15.861 20.4696 15.7535 20.5739 15.4406L20.8698 14.553C21.5867 12.4023 19.6468 10.3075 17.4475 10.8573C16.8699 11.0017 16.3246 11.2535 15.8401 11.5996L14.1886 12.7838C14.4019 12.9345 14.5867 13.1015 14.7477 13.2702C15.3423 13.8933 15.8781 14.8599 16.4313 15.8577L18.7483 20.0287C19.0898 20.6433 19.0832 21.3917 18.7321 22H21.0001Z" fill="#0000CC"/>
<path d="M13.2383 13.3857C13.5489 13.5265 13.8047 13.7305 14.0242 13.9605C14.5261 14.4866 15.0021 15.3438 15.5942 16.4103L17.8742 20.5143C18.0462 20.8241 18.0416 21.2017 17.8619 21.5071C17.6822 21.8125 17.3543 22 17 22H7C6.64568 22 6.31781 21.8125 6.13813 21.5071C5.95844 21.2017 5.95377 20.8241 6.12584 20.5143L8.40584 16.4103C8.99793 15.3438 9.47387 14.4866 9.97578 13.9605C10.1953 13.7305 10.4511 13.5265 10.7617 13.3857C11.5487 13.0291 12.4513 13.0291 13.2383 13.3857Z" fill="#0000CC"/>
</svg>
