<svg width="24" height="24" viewBox="0 0 24 24" fill="none" xmlns="http://www.w3.org/2000/svg">
<path d="M9.4295 8.06484L8.78319 9.41926L3.86232 10.1034C3.49072 10.1551 3.17931 10.4104 3.05578 10.7646C2.93226 11.1189 3.01741 11.5125 3.27631 11.784L6.92116 15.6063L5.92565 20.8122C5.85559 21.1785 5.99524 21.5534 6.2879 21.7846C6.58057 22.0159 6.9776 22.065 7.3178 21.9121L12 19.8076L16.6822 21.9121C17.0225 22.065 17.4195 22.0159 17.7121 21.7846C18.0048 21.5534 18.1445 21.1785 18.0744 20.8122L17.0789 15.6063L20.7237 11.784C20.9826 11.5125 21.0678 11.1189 20.9443 10.7646C20.8207 10.4104 20.5093 10.1551 20.1377 10.1034L15.2169 9.41926L14.5705 8.06482C13.8754 8.64849 12.9787 9 12 9C11.0213 9 10.1247 8.6485 9.4295 8.06484Z" fill="#0000CC"/>
<path fill-rule="evenodd" clip-rule="evenodd" d="M14.8855 5.82388C14.7435 6.32169 14.4763 6.76636 14.1206 7.12185C13.5777 7.66434 12.8281 8 12 8C11.1719 8 10.4222 7.66451 9.87939 7.12203C9.33666 6.57968 9.00002 5.82955 9.00002 5C9.00002 3.34315 10.3432 2 12 2C13.6569 2 15 3.34315 15 5C15 5.23307 14.9734 5.45985 14.9232 5.67751M11 5C11 4.44772 11.4477 4 12 4C12.5523 4 13 4.44772 13 5C13 5.39654 12.7693 5.74114 12.4303 5.90321C12.3011 5.96495 12.156 6 12 6C11.844 6 11.6989 5.96495 11.5698 5.90321C11.2308 5.74114 11 5.39654 11 5Z" fill="#0000CC"/>
</svg>
