<svg width="24" height="24" viewBox="0 0 24 24" fill="none" xmlns="http://www.w3.org/2000/svg">
<path fill-rule="evenodd" clip-rule="evenodd" d="M12 1C9.23858 1 7 3.23858 7 6C7 6.96562 7.27435 7.86802 7.74852 8.63247L3.21927 11.652C2.45754 12.1598 2 13.0147 2 13.9302C2 16.0244 4.24795 17.3307 6.05865 16.3289L5.25863 18.4623C4.43528 20.6579 6.05836 23 8.40325 23C9.77654 23 11.0115 22.1639 11.5215 20.8888L12 19.6926L12.4785 20.8888C12.9885 22.1639 14.2235 23 15.5968 23C17.9416 23 19.5647 20.6579 18.7414 18.4623L17.9045 16.2306C19.8448 16.9024 22 15.4769 22 13.2961C22 12.123 21.3372 11.0506 20.288 10.5259L16.3094 8.53668C16.7479 7.79309 17 6.92562 17 6C17 3.23858 14.7614 1 12 1ZM12 10C11.4477 10 11 10.4477 11 11C11 11.5523 11.4477 12 12 12H12.01C12.5623 12 13.01 11.5523 13.01 11C13.01 10.4477 12.5623 10 12.01 10H12ZM12 13C11.4477 13 11 13.4477 11 14C11 14.5523 11.4477 15 12 15H12.01C12.5623 15 13.01 14.5523 13.01 14C13.01 13.4477 12.5623 13 12.01 13H12Z" fill="#0000CC"/>
</svg>
