<svg width="24" height="24" viewBox="0 0 24 24" fill="none" xmlns="http://www.w3.org/2000/svg">
<path fill-rule="evenodd" clip-rule="evenodd" d="M2 9C2 5.13401 5.13401 2 9 2C12.866 2 16 5.13401 16 9C16 12.866 12.866 16 9 16C5.13401 16 2 12.866 2 9ZM9 5.5C8.44772 5.5 8 5.94772 8 6.5C8 7.05228 8.44772 7.5 9 7.5H9.01C9.56228 7.5 10.01 7.05228 10.01 6.5C10.01 5.94772 9.56228 5.5 9.01 5.5H9ZM6.5 8C5.94772 8 5.5 8.44772 5.5 9C5.5 9.55228 5.94772 10 6.5 10H6.51C7.06228 10 7.51 9.55228 7.51 9C7.51 8.44772 7.06228 8 6.51 8H6.5ZM10.5 9C10.5 8.44772 10.9477 8 11.5 8H11.51C12.0623 8 12.51 8.44772 12.51 9C12.51 9.55228 12.0623 10 11.51 10H11.5C10.9477 10 10.5 9.55228 10.5 9ZM9 10.5C8.44772 10.5 8 10.9477 8 11.5C8 12.0523 8.44772 12.5 9 12.5H9.01C9.56228 12.5 10.01 12.0523 10.01 11.5C10.01 10.9477 9.56228 10.5 9.01 10.5H9Z" fill="#0000CC"/>
<path fill-rule="evenodd" clip-rule="evenodd" d="M8.28125 16.9681C9.13153 19.876 11.8181 22 15.0008 22C18.8668 22 22.0008 18.866 22.0008 15C22.0008 11.8173 19.8767 9.13074 16.9689 8.28046C16.99 8.51748 17.0008 8.75748 17.0008 8.99999C17.0008 13.4183 13.4191 17 9.00079 17C8.75827 17 8.51827 16.9892 8.28125 16.9681ZM16 13.5C16 12.9477 16.4477 12.5 17 12.5H17.01C17.5623 12.5 18.01 12.9477 18.01 13.5C18.01 14.0523 17.5623 14.5 17.01 14.5H17C16.4477 14.5 16 14.0523 16 13.5ZM13.5 16C12.9477 16 12.5 16.4477 12.5 17C12.5 17.5523 12.9477 18 13.5 18H13.51C14.0623 18 14.51 17.5523 14.51 17C14.51 16.4477 14.0623 16 13.51 16H13.5ZM16 17C16 16.4477 16.4477 16 17 16H17.01C17.5623 16 18.01 16.4477 18.01 17C18.01 17.5523 17.5623 18 17.01 18H17C16.4477 18 16 17.5523 16 17Z" fill="#0000CC"/>
</svg>
