<svg width="24" height="24" viewBox="0 0 24 24" fill="none" xmlns="http://www.w3.org/2000/svg">
<path fill-rule="evenodd" clip-rule="evenodd" d="M12 2C6.47715 2 2 6.47715 2 12C2 17.5228 6.47715 22 12 22C17.5228 22 22 17.5228 22 12C22 11.4477 21.5523 11 21 11C18.5711 11 17 9.46016 17 8C17 7.44772 16.5523 7 16 7C14.5398 7 13 5.4289 13 3C13 2.44772 12.5523 2 12 2ZM7 9C6.44772 9 6 9.44772 6 10C6 10.5523 6.44772 11 7 11H7.01C7.56228 11 8.01 10.5523 8.01 10C8.01 9.44772 7.56228 9 7.01 9H7ZM12 10C11.4477 10 11 10.4477 11 11C11 11.5523 11.4477 12 12 12H12.01C12.5623 12 13.01 11.5523 13.01 11C13.01 10.4477 12.5623 10 12.01 10H12ZM8 16C8 15.4477 8.44772 15 9 15H9.01C9.56228 15 10.01 15.4477 10.01 16C10.01 16.5523 9.56228 17 9.01 17H9C8.44772 17 8 16.5523 8 16ZM15 15C14.4477 15 14 15.4477 14 16C14 16.5523 14.4477 17 15 17H15.01C15.5623 17 16.01 16.5523 16.01 16C16.01 15.4477 15.5623 15 15.01 15H15Z" fill="#0000CC"/>
</svg>
