<svg width="24" height="24" viewBox="0 0 24 24" fill="none" xmlns="http://www.w3.org/2000/svg">
<path fill-rule="evenodd" clip-rule="evenodd" d="M2.20049 5.40058C2.53218 4.95899 3.15905 4.8699 3.60064 5.20159C4.93521 6.20403 6.45427 6.97337 8.09825 7.44939C8.10863 7.4522 8.11898 7.45519 8.12932 7.45835C9.35836 7.81112 10.6569 8.00006 12.0001 8.00006C13.3431 8.00006 14.6416 7.81115 15.8706 7.45841C15.8811 7.4552 15.8916 7.45218 15.9021 7.44933C17.546 6.97331 19.065 6.20398 20.3995 5.20159C20.8411 4.8699 21.4679 4.95899 21.7996 5.40058C22.1313 5.84217 22.0422 6.46903 21.6006 6.80072C20.3759 7.72065 19.0146 8.46901 17.5527 9.00999L18.6411 11.2971C19.2761 11.2342 19.9098 11.3777 20.4495 11.6925C21.0949 12.069 21.4043 12.6716 21.5314 13.2303C21.6547 13.7721 21.6241 14.3306 21.5545 14.7862L21.1927 17.1531C21.1422 17.4836 20.9298 17.767 20.6268 17.9083C20.3237 18.0496 19.9701 18.0302 19.6845 17.8564L17.6387 16.6121C17.245 16.3726 16.7975 16.037 16.4617 15.5944C16.1154 15.1378 15.8526 14.5135 15.9791 13.7771C16.0842 13.1651 16.3791 12.5911 16.8303 12.1463L15.6138 9.59005C14.7663 9.78578 13.893 9.91418 13.0001 9.96929V12.1709C13.5997 12.383 14.1115 12.78 14.4663 13.2917C14.8922 13.9057 14.9179 14.5826 14.797 15.1426C14.6797 15.6857 14.416 16.179 14.1603 16.5625L12.8321 18.5548C12.6466 18.833 12.3344 19.0001 12.0001 19.0001C11.6657 19.0001 11.3535 18.833 11.168 18.5548L9.83981 16.5625C9.58415 16.179 9.3204 15.6857 9.20316 15.1426C9.08224 14.5826 9.10794 13.9057 9.53379 13.2917C9.88865 12.78 10.4004 12.383 11.0001 12.1709V9.96929C10.1081 9.91424 9.23576 9.78606 8.38904 9.59069L7.18441 12.1443C7.6368 12.5893 7.93247 13.1642 8.03772 13.7771C8.16419 14.5135 7.90142 15.1378 7.55513 15.5944C7.21935 16.037 6.77186 16.3726 6.37808 16.6121L4.33234 17.8564C4.04668 18.0302 3.69308 18.0496 3.39006 17.9083C3.08703 17.767 2.87467 17.4836 2.82415 17.1531L2.46238 14.7862C2.39274 14.3306 2.36216 13.7721 2.48542 13.2303C2.61253 12.6716 2.92189 12.069 3.56732 11.6925C4.10618 11.3782 4.73879 11.2347 5.37283 11.2968L6.45098 9.01132C4.98779 8.47023 3.62521 7.7214 2.39948 6.80072C1.95789 6.46903 1.8688 5.84217 2.20049 5.40058Z" fill="#0000CC"/>
</svg>
