<svg width="24" height="24" viewBox="0 0 24 24" fill="none" xmlns="http://www.w3.org/2000/svg">
<path d="M3.05469 13.9992C3.55176 18.4995 7.36701 22 11.9998 22C16.6327 22 20.4479 18.4995 20.945 13.9992C18.7477 16.4547 15.5542 18 11.9998 18C8.44545 18 5.25199 16.4547 3.05469 13.9992Z" fill="#0000CC"/>
<path d="M20.3449 9.62323C20.5061 10.0211 20.6396 10.4332 20.7432 10.8571C19.0354 13.9247 15.76 16 11.9998 16C8.23973 16 4.96432 13.9247 3.25654 10.857C3.36006 10.4332 3.4936 10.0211 3.65477 9.62322C5.81437 11.7136 8.75688 13 11.9998 13C15.2428 13 18.1853 11.7136 20.3449 9.62323Z" fill="#0000CC"/>
<path fill-rule="evenodd" clip-rule="evenodd" d="M4.65948 7.79117C5.7242 6.29346 7.23582 5.13561 8.99985 4.51212V4C8.99985 2.34315 10.343 1 11.9998 1C13.6567 1 14.9998 2.34315 14.9998 4V4.51212C16.7639 5.13561 18.2755 6.29346 19.3402 7.79117C17.5136 9.7646 14.901 11 11.9998 11C9.09872 11 6.48614 9.7646 4.65948 7.79117ZM10.9998 4C10.9998 3.44772 11.4476 3 11.9998 3C12.5521 3 12.9998 3.44772 12.9998 4V4.05493C12.6715 4.01863 12.3379 4 11.9998 4C11.6618 4 11.3282 4.01863 10.9998 4.05493V4Z" fill="#0000CC"/>
</svg>
