<svg width="24" height="24" viewBox="0 0 24 24" fill="none" xmlns="http://www.w3.org/2000/svg">
<path fill-rule="evenodd" clip-rule="evenodd" d="M14.5 4.5C14.5 4.67123 14.4828 4.83845 14.45 5H16C16.5523 5 17 5.44772 17 6V7.7547C18.328 8.8192 19.3102 10.3001 19.7478 12H4.25215C4.68982 10.3001 5.67205 8.8192 7 7.7547V6C7 5.44772 7.44772 5 8 5H9.55001C9.51722 4.83845 9.5 4.67123 9.5 4.5C9.5 3.11929 10.6193 2 12 2C13.3807 2 14.5 3.11929 14.5 4.5ZM11.5 4.5C11.5 4.22386 11.7239 4 12 4C12.2761 4 12.5 4.22386 12.5 4.5C12.5 4.77614 12.2761 5 12 5C11.7239 5 11.5 4.77614 11.5 4.5Z" fill="#0000CC"/>
<path d="M4 14C4 14.6906 4.08751 15.3608 4.25203 16H19.748C19.9125 15.3608 20 14.6906 20 14L4 14Z" fill="#0000CC"/>
<path d="M18.9297 18H5.07025C6.45349 20.3912 9.03887 22 12 22C14.9611 22 17.5465 20.3912 18.9297 18Z" fill="#0000CC"/>
</svg>
