<svg width="24" height="24" viewBox="0 0 24 24" fill="none" xmlns="http://www.w3.org/2000/svg">
<path fill-rule="evenodd" clip-rule="evenodd" d="M20.713 17.4659C20.933 17.3035 21.1477 17.1343 21.3568 16.9586C21.7796 16.6034 22.4104 16.6582 22.7657 17.081C23.1209 17.5039 23.0661 18.1347 22.6432 18.4899C20.0363 20.6801 16.671 22 13 22C9.32902 22 5.96373 20.6801 3.35676 18.4899C2.9339 18.1347 2.87908 17.5039 3.23433 17.081C3.58958 16.6582 4.22037 16.6034 4.64324 16.9586C4.8396 17.1236 5.04089 17.2828 5.24686 17.4361L6.15394 11.9937L6.10366 12.0206C5.6045 12.2858 5.06124 12.5179 4.48753 12.5059C3.36473 12.4825 2.34904 11.8339 1.85545 10.8251C1.60324 10.3097 1.58526 9.71919 1.61591 9.15477C1.64712 8.58011 1.74487 7.84704 1.86461 6.94907L1.96816 6.17242L1.10557 4.44724C0.983441 4.20298 0.966522 3.91939 1.05874 3.66234C1.15097 3.40529 1.3443 3.19713 1.59386 3.08622L1.64347 3.06417C2.09337 2.86419 2.36896 2.74169 2.58762 2.66142C6.72713 1.14175 11.1485 3.77911 11.8919 8.00003L15.0742 8.00001C15.5136 7.99988 15.8414 7.99977 16.1421 8.04551C16.9149 8.16305 17.6205 8.50103 18.1863 9.00003H19C21.2091 9.00003 23 10.7909 23 13C23 13.5523 22.5523 14 22 14C21.4477 14 21 13.5523 21 13C21 12.0399 20.3234 11.2377 19.4209 11.0444C19.4657 11.2286 19.5067 11.4339 19.5544 11.6729L20.713 17.4659ZM16.2264 19.5968L15.0128 16.866C14.3543 16.9544 13.6828 17 13.0007 17C12.3186 17 11.6462 16.9544 10.9872 16.866L9.77355 19.5967C10.8051 19.8601 11.886 20 13 20C14.114 20 15.1949 19.8601 16.2264 19.5968ZM12 10.0293V10H13.9996C13.9996 10.5523 13.5519 11.0001 12.9996 11.0001C12.4571 11.0001 12.0154 10.568 12 10.0293Z" fill="#0000CC"/>
</svg>
