<svg width="24" height="24" viewBox="0 0 24 24" fill="none" xmlns="http://www.w3.org/2000/svg">
<path d="M7.61101 4.97718C8.52408 3.21091 10.3694 2 12.4993 2C14.7698 2 16.7167 3.37555 17.5564 5.3347C17.7359 5.75336 17.6097 6.24039 17.2496 6.51929C16.8895 6.79819 16.3864 6.79849 16.0259 6.52C15.6035 6.19366 15.0754 6 14.4993 6C14.2702 6 14.0489 6.0306 13.8388 6.08792L17.307 15.0283C17.2769 15.0252 17.2479 15.0226 17.22 15.0203C16.9705 14.9999 16.6901 15 16.4541 15H4.5465C4.31053 15 4.03005 14.9999 3.78064 15.0203C3.75267 15.0226 3.72354 15.0252 3.69336 15.0283L7.53494 5.13794C7.54685 5.10727 7.56027 5.0772 7.57514 5.04786L7.61101 4.97718Z" fill="#0000CC"/>
<path fill-rule="evenodd" clip-rule="evenodd" d="M19.9091 6.80415C20.5978 6.83189 21.1676 7.40173 21.1954 8.09046C21.6628 8.59708 21.6628 9.40294 21.1954 9.90956C21.1676 10.5983 20.5978 11.1681 19.9091 11.1959C19.4025 11.6633 18.5966 11.6633 18.09 11.1959C17.4012 11.1681 16.8314 10.5983 16.8037 9.90956C16.3363 9.40294 16.3363 8.59708 16.8037 8.09046C16.8314 7.40173 17.4012 6.8319 18.09 6.80415C18.5966 6.33677 19.4025 6.33677 19.9091 6.80415ZM18.7824 8.78291C18.8573 8.7593 18.9299 8.7292 18.9995 8.69298C19.0691 8.7292 19.1418 8.7593 19.2166 8.7829C19.2402 8.85774 19.2703 8.9304 19.3066 9.00001C19.2703 9.06962 19.2402 9.14228 19.2166 9.21712C19.1418 9.24072 19.0691 9.27082 18.9995 9.30704C18.9299 9.27082 18.8573 9.24072 18.7824 9.21712C18.7588 9.14228 18.7287 9.06962 18.6925 9.00001C18.7287 8.9304 18.7588 8.85774 18.7824 8.78291Z" fill="#0000CC"/>
<path d="M4.56811 16H16.4319C16.6843 16 16.9301 15.9999 17.1382 16.017C17.3668 16.0356 17.6366 16.0797 17.908 16.218C18.2843 16.4097 18.5903 16.7157 18.782 17.092C18.9203 17.3634 18.9644 17.6332 18.9831 17.8618C19.0001 18.0699 19 18.3156 19 18.5679V19.4319C19 19.6842 19.0001 19.9301 18.9831 20.1382C18.9644 20.3668 18.9203 20.6366 18.782 20.908C18.5903 21.2843 18.2843 21.5903 17.908 21.782C17.6366 21.9203 17.3668 21.9644 17.1382 21.9831C16.9301 22.0001 16.6843 22 16.4319 22H4.56811C4.31573 22 4.06993 22.0001 3.86178 21.9831C3.63318 21.9644 3.36345 21.9203 3.09202 21.782C2.7157 21.5903 2.40974 21.2843 2.21799 20.908C2.07969 20.6366 2.03563 20.3668 2.01695 20.1382C1.99994 19.9301 1.99997 19.6843 2 19.4319V18.5681C1.99997 18.3157 1.99994 18.0699 2.01695 17.8618C2.03563 17.6332 2.07969 17.3634 2.21799 17.092C2.40974 16.7157 2.7157 16.4097 3.09202 16.218C3.36345 16.0797 3.63318 16.0356 3.86178 16.017C4.06993 15.9999 4.31572 16 4.56811 16Z" fill="#0000CC"/>
</svg>
