<svg width="24" height="24" viewBox="0 0 24 24" fill="none" xmlns="http://www.w3.org/2000/svg">
<path d="M4 9C4 5.13401 7.13401 2 11 2C13.8611 2 16.3213 3.71648 17.4069 6.17582C18.8015 5.72147 20.3911 6.18808 21.3118 7.41574C22.4528 8.93713 22.2033 11.118 20.703 12.3182L18 14.4806V15.126C17.6804 15.0438 17.3453 15 17 15H5C4.6547 15 4.31962 15.0438 4 15.126V9Z" fill="#0000CC"/>
<path d="M5 16C3.34315 16 2 17.3431 2 19C2 20.6569 3.34315 22 5 22H17C18.6569 22 20 20.6569 20 19C20 17.3431 18.6569 16 17 16H5Z" fill="#0000CC"/>
</svg>
