<svg width="24" height="24" viewBox="0 0 24 24" fill="none" xmlns="http://www.w3.org/2000/svg">
<path fill-rule="evenodd" clip-rule="evenodd" d="M7.77116 4.39891C8.84648 2.89346 10.5826 2 12.4327 2C14.9903 2 17.238 3.69539 17.9408 6.15455L20.4829 15.0505C20.3873 15.036 20.2989 15.0267 20.2197 15.0203C19.9703 14.9999 19.6898 15 19.4538 15H6.54622C6.31025 15 6.02977 14.9999 5.78035 15.0203C5.73279 15.0242 5.68189 15.029 5.62811 15.0355L7.54344 9.56307L6.81133 10.0677C6.85286 10.2466 6.875 10.4332 6.875 10.625C6.875 12.0057 5.75571 13.125 4.375 13.125C2.99429 13.125 1.875 12.0057 1.875 10.625C1.875 9.24429 2.99429 8.125 4.375 8.125C4.60682 8.125 4.83111 8.1574 5.04372 8.21733L7.77116 4.39891ZM4.375 10.125C4.09886 10.125 3.875 10.3489 3.875 10.625C3.875 10.9011 4.09886 11.125 4.375 11.125C4.65114 11.125 4.875 10.9011 4.875 10.625C4.875 10.4873 4.81257 10.3507 4.69847 10.2508C4.60438 10.1684 4.49083 10.125 4.375 10.125Z" fill="#0000CC"/>
<path d="M6.56811 16C6.31572 16 6.06993 15.9999 5.86178 16.017C5.63318 16.0356 5.36345 16.0797 5.09202 16.218C4.7157 16.4097 4.40974 16.7157 4.21799 17.092C4.07969 17.3634 4.03563 17.6332 4.01695 17.8618C3.99994 18.0699 3.99997 18.3157 4 18.5681V19.4319C3.99997 19.6843 3.99994 19.9301 4.01695 20.1382C4.03563 20.3668 4.07969 20.6366 4.21799 20.908C4.40974 21.2843 4.7157 21.5903 5.09202 21.782C5.36345 21.9203 5.63318 21.9644 5.86178 21.9831C6.06993 22.0001 6.31573 22 6.56811 22H19.4319C19.6843 22 19.9301 22.0001 20.1382 21.9831C20.3668 21.9644 20.6366 21.9203 20.908 21.782C21.2843 21.5903 21.5903 21.2843 21.782 20.908C21.9203 20.6366 21.9644 20.3668 21.9831 20.1382C22.0001 19.9301 22 19.6844 22 19.432V18.5681C22 18.3158 22.0001 18.0699 21.9831 17.8618C21.9644 17.6332 21.9203 17.3634 21.782 17.092C21.5903 16.7157 21.2843 16.4097 20.908 16.218C20.6366 16.0797 20.3668 16.0356 20.1382 16.017C19.9301 15.9999 19.6843 16 19.4319 16H6.56811Z" fill="#0000CC"/>
</svg>
