<svg width="24" height="24" viewBox="0 0 24 24" fill="none" xmlns="http://www.w3.org/2000/svg">
<path fill-rule="evenodd" clip-rule="evenodd" d="M17 7C17 7.91035 16.7561 8.76475 16.3307 9.50027C16.8511 9.91061 17.312 10.3934 17.6981 10.9335C18.2183 10.7927 18.664 10.4363 18.9119 9.94037L20.1057 7.55276C20.3527 7.05878 20.9534 6.85856 21.4474 7.10555C21.9414 7.35254 22.1416 7.95321 21.8946 8.44719L20.7008 10.8348C20.2595 11.7173 19.5118 12.3837 18.624 12.731C18.8677 13.4425 19 14.2058 19 15.0001C19 18.866 15.866 22.0001 12 22.0001C8.13401 22.0001 5 18.866 5 15.0001C5 14.1799 5.14143 13.3915 5.4014 12.6588C4.58938 12.2956 3.9093 11.6597 3.49686 10.8348L2.30306 8.44719C2.05607 7.95321 2.25629 7.35254 2.75027 7.10555C3.24425 6.85856 3.84492 7.05878 4.09191 7.55276L5.28572 9.94037C5.5077 10.3843 5.88823 10.7166 6.33872 10.8823C6.71707 10.3629 7.16512 9.89764 7.66926 9.50019C7.24389 8.76469 7 7.91032 7 7C7 4.23858 9.23858 2 12 2C14.7614 2 17 4.23858 17 7ZM12 13C11.4477 13 11 13.4477 11 14C11 14.5523 11.4477 15 12 15H12.01C12.5623 15 13.01 14.5523 13.01 14C13.01 13.4477 12.5623 13 12.01 13H12ZM12 16C11.4477 16 11 16.4477 11 17C11 17.5523 11.4477 18 12 18H12.01C12.5623 18 13.01 17.5523 13.01 17C13.01 16.4477 12.5623 16 12.01 16H12Z" fill="#0000CC"/>
</svg>
