<svg width="24" height="24" viewBox="0 0 24 24" fill="none" xmlns="http://www.w3.org/2000/svg">
<path opacity="0.3" d="M11.4142 12H9C9 12.2652 9.10536 12.5196 9.29289 12.7071L10.3556 13.7698C10.7352 14.1494 10.8052 14.2285 10.8526 14.3059C10.9075 14.3954 10.9479 14.4929 10.9724 14.595C10.9936 14.6833 11 14.7887 11 15.3255V19C11 20.6569 12.3431 22 14 22C14.5523 22 15 21.5523 15 21C15 20.4477 14.5523 20 14 20C13.4477 20 13 19.5523 13 19L13.0001 15.2422C13.0004 14.8353 13.0008 14.4765 12.9171 14.1281C12.8436 13.822 12.7224 13.5293 12.5579 13.2609C12.3707 12.9554 12.1168 12.702 11.8288 12.4145L11.4142 12Z" fill="#0000CC"/>
<path d="M14 2C12.3431 2 11 3.34315 11 5V8.67452C11 9.2113 10.9936 9.3167 10.9724 9.40502C10.9479 9.50705 10.9075 9.6046 10.8526 9.69407C10.8052 9.77151 10.7352 9.85059 10.3556 10.2302L9.29289 11.2929C9.10536 11.4804 9 11.7348 9 12H11.4142L11.8288 11.5855C12.1168 11.2981 12.3707 11.0446 12.5579 10.7391C12.7224 10.4707 12.8436 10.178 12.9171 9.87191C13.0008 9.52346 13.0004 9.16472 13.0001 8.75782L13 5C13 4.44772 13.4477 4 14 4C14.5523 4 15 3.55228 15 3C15 2.44772 14.5523 2 14 2Z" fill="#0000CC"/>
</svg>
