<svg width="24" height="24" viewBox="0 0 24 24" fill="none" xmlns="http://www.w3.org/2000/svg">
<g opacity="0.3">
<path d="M10.7809 2.37534C10.4359 1.94408 9.80657 1.87416 9.37531 2.21917C8.94405 2.56418 8.87412 3.19347 9.21913 3.62473L9.91938 4.50004L9.16146 4.50004C8.63431 4.50002 8.17955 4.5 7.80497 4.53061C7.40963 4.56291 7.01641 4.63422 6.63803 4.82702C6.07355 5.11464 5.6146 5.57358 5.32698 6.13807C5.13419 6.51644 5.06287 6.90966 5.03057 7.30501C4.99997 7.67957 4.99998 8.13432 5 8.66145L5 15.145C5.31686 15.0507 5.65252 15 6 15C6.34749 15 6.68315 15.0507 7 15.145V8.70004C7 8.12348 7.00078 7.75121 7.02393 7.46787C7.04613 7.19621 7.0838 7.09549 7.109 7.04605C7.20487 6.85788 7.35785 6.7049 7.54601 6.60903C7.59546 6.58384 7.69618 6.54616 7.96784 6.52396C8.25118 6.50081 8.62345 6.50004 9.2 6.50004H9.91938L9.21913 7.37534C8.87412 7.8066 8.94405 8.4359 9.37531 8.78091C9.80657 9.12592 10.4359 9.05599 10.7809 8.62473L12.7809 6.12473C13.073 5.75951 13.073 5.24056 12.7809 4.87534L10.7809 2.37534Z" fill="#0000CC"/>
<path d="M17 8.8551V15.3C17 15.8766 16.9992 16.2489 16.9761 16.5322C16.9539 16.8039 16.9162 16.9046 16.891 16.954C16.7951 17.1422 16.6422 17.2952 16.454 17.391C16.4045 17.4162 16.3038 17.4539 16.0322 17.4761C15.7488 17.4993 15.3766 17.5 14.8 17.5H14.0806L14.7809 16.6247C15.1259 16.1935 15.056 15.5642 14.6247 15.2192C14.1934 14.8742 13.5641 14.9441 13.2191 15.3753L11.2191 17.8753C10.927 18.2406 10.927 18.7595 11.2191 19.1247L13.2191 21.6247C13.5641 22.056 14.1934 22.1259 14.6247 21.7809C15.056 21.4359 15.1259 20.8066 14.7809 20.3753L14.0806 19.5H14.8386C15.3657 19.5001 15.8205 19.5001 16.195 19.4695C16.5904 19.4372 16.9836 19.3659 17.362 19.1731C17.9265 18.8854 18.3854 18.4265 18.673 17.862C18.8658 17.4836 18.9371 17.0904 18.9694 16.6951C19 16.3205 19 15.8657 19 15.3386V8.8551C18.6831 8.9494 18.3475 9.00003 18 9.00003C17.6525 9.00003 17.3169 8.9494 17 8.8551Z" fill="#0000CC"/>
</g>
<path d="M18 9C19.933 9 21.5 7.433 21.5 5.5C21.5 3.567 19.933 2 18 2C16.067 2 14.5 3.567 14.5 5.5C14.5 7.433 16.067 9 18 9Z" fill="#0000CC"/>
<path d="M6 22C7.933 22 9.5 20.433 9.5 18.5C9.5 16.567 7.933 15 6 15C4.067 15 2.5 16.567 2.5 18.5C2.5 20.433 4.067 22 6 22Z" fill="#0000CC"/>
</svg>
