<svg width="24" height="24" viewBox="0 0 24 24" fill="none" xmlns="http://www.w3.org/2000/svg">
<path opacity="0.3" d="M5.5 8.99992C5.84749 8.99992 6.18315 8.94928 6.50001 8.85498C6.50008 9.40036 6.50153 9.75787 6.52393 10.0321C6.54613 10.3037 6.5838 10.4045 6.609 10.4539C6.70487 10.6421 6.85785 10.7951 7.04601 10.8909C7.09546 10.9161 7.19618 10.9538 7.46784 10.976C7.75118 10.9991 8.12345 10.9999 8.7 10.9999H15.3C15.8766 10.9999 16.2488 10.9991 16.5322 10.976C16.8038 10.9538 16.9046 10.9161 16.954 10.8909C17.1422 10.7951 17.2951 10.6421 17.391 10.4539C17.4162 10.4045 17.4539 10.3037 17.4761 10.0321C17.4985 9.75787 17.4999 9.40036 17.5 8.85498C17.8169 8.94928 18.1525 8.99992 18.5 8.99992C18.8475 8.99992 19.1831 8.94928 19.5 8.85498C19.5 9.37512 19.4997 9.8243 19.4694 10.1949C19.4371 10.5903 19.3658 10.9835 19.173 11.3619C18.8854 11.9264 18.4265 12.3853 17.862 12.6729C17.4836 12.8657 17.0904 12.9371 16.695 12.9694C16.3205 13 15.8657 12.9999 15.3385 12.9999H13V15.1448C12.6831 15.0505 12.3475 14.9999 12 14.9999C11.6525 14.9999 11.3169 15.0505 11 15.1448V12.9999H8.66146C8.13431 12.9999 7.67955 13 7.30498 12.9694C6.90963 12.9371 6.51641 12.8657 6.13803 12.6729C5.57355 12.3853 5.1146 11.9264 4.82698 11.3619C4.63419 10.9835 4.56287 10.5903 4.53057 10.1949C4.50029 9.8243 4.49999 9.3751 4.5 8.85498C4.81686 8.94928 5.15251 8.99992 5.5 8.99992Z" fill="#0000CC"/>
<path d="M9 5.5C9 7.433 7.433 9 5.5 9C3.567 9 2 7.433 2 5.5C2 3.567 3.567 2 5.5 2C7.433 2 9 3.567 9 5.5Z" fill="#0000CC"/>
<path d="M22 5.5C22 7.433 20.433 9 18.5 9C16.567 9 15 7.433 15 5.5C15 3.567 16.567 2 18.5 2C20.433 2 22 3.567 22 5.5Z" fill="#0000CC"/>
<path d="M15.5 18.5C15.5 20.433 13.933 22 12 22C10.067 22 8.5 20.433 8.5 18.5C8.5 16.567 10.067 15 12 15C13.933 15 15.5 16.567 15.5 18.5Z" fill="#0000CC"/>
</svg>
