<svg width="24" height="24" viewBox="0 0 24 24" fill="none" xmlns="http://www.w3.org/2000/svg">
<g opacity="0.3">
<path d="M10 5.5C10 7.433 8.433 9 6.5 9C4.567 9 3 7.433 3 5.5C3 3.567 4.567 2 6.5 2C8.433 2 10 3.567 10 5.5Z" fill="#0000CC"/>
<path d="M10 18.5C10 20.433 8.433 22 6.5 22C4.567 22 3 20.433 3 18.5C3 16.567 4.567 15 6.5 15C8.433 15 10 16.567 10 18.5Z" fill="#0000CC"/>
<path d="M17.5 22C19.433 22 21 20.433 21 18.5C21 16.567 19.433 15 17.5 15C15.567 15 14 16.567 14 18.5C14 20.433 15.567 22 17.5 22Z" fill="#0000CC"/>
</g>
<path d="M7.5 8.85506C7.18315 8.94936 6.84749 9 6.5 9C6.15251 9 5.81685 8.94936 5.5 8.85506V15.1449C5.81685 15.0506 6.15251 15 6.5 15C6.84749 15 7.18315 15.0506 7.5 15.1449V8.85506Z" fill="#0000CC"/>
<path d="M18.5 15.1449C18.1831 15.0506 17.8475 15 17.5 15C17.1525 15 16.8169 15.0506 16.5 15.1449V12C16.5 11.4477 16.9477 11 17.5 11C18.0523 11 18.5 11.4477 18.5 12V15.1449Z" fill="#0000CC"/>
<path d="M15.7071 2.29289C15.3166 1.90237 14.6834 1.90237 14.2929 2.29289C13.9024 2.68342 13.9024 3.31658 14.2929 3.70711L16.0858 5.5L14.2929 7.29289C13.9024 7.68342 13.9024 8.31658 14.2929 8.70711C14.6834 9.09763 15.3166 9.09763 15.7071 8.70711L17.5 6.91421L19.2929 8.70711C19.6834 9.09763 20.3166 9.09763 20.7071 8.70711C21.0976 8.31658 21.0976 7.68342 20.7071 7.29289L18.9142 5.5L20.7071 3.70711C21.0976 3.31658 21.0976 2.68342 20.7071 2.29289C20.3166 1.90237 19.6834 1.90237 19.2929 2.29289L17.5 4.08579L15.7071 2.29289Z" fill="#0000CC"/>
</svg>
