<svg width="24" height="24" viewBox="0 0 24 24" fill="none" xmlns="http://www.w3.org/2000/svg">
<path opacity="0.3" fill-rule="evenodd" clip-rule="evenodd" d="M10 20V4H17.8385C18.3657 3.99998 18.8205 3.99997 19.195 4.03057C19.5904 4.06287 19.9836 4.13419 20.362 4.32698C20.9265 4.6146 21.3854 5.07355 21.673 5.63803C21.8658 6.01641 21.9371 6.40963 21.9694 6.80497C22 7.17954 22 7.6343 22 8.16144V15.8386C22 16.3657 22 16.8205 21.9694 17.195C21.9371 17.5904 21.8658 17.9836 21.673 18.362C21.3854 18.9265 20.9265 19.3854 20.362 19.673C19.9836 19.8658 19.5904 19.9371 19.195 19.9694C18.8205 20 18.3657 20 17.8386 20H10Z" fill="#0000CC"/>
<path fill-rule="evenodd" clip-rule="evenodd" d="M10 4V20H6.16144C5.6343 20 5.17954 20 4.80497 19.9694C4.40963 19.9371 4.01641 19.8658 3.63803 19.673C3.07354 19.3854 2.6146 18.9265 2.32698 18.362C2.13419 17.9836 2.06287 17.5904 2.03057 17.195C1.99997 16.8205 1.99998 16.3657 2 15.8385V8.16142C1.99998 7.63429 1.99997 7.17954 2.03057 6.80497C2.06287 6.40963 2.13419 6.01641 2.32698 5.63803C2.6146 5.07355 3.07355 4.6146 3.63803 4.32698C4.01641 4.13419 4.40963 4.06287 4.80497 4.03057C5.17954 3.99997 5.63432 3.99998 6.16145 4H10ZM4 7C4 6.44772 4.44772 6 5 6H7C7.55229 6 8 6.44772 8 7C8 7.55229 7.55229 8 7 8H5C4.44772 8 4 7.55229 4 7ZM5 9C4.44772 9 4 9.44772 4 10C4 10.5523 4.44772 11 5 11H7C7.55229 11 8 10.5523 8 10C8 9.44772 7.55229 9 7 9H5ZM4 13C4 12.4477 4.44772 12 5 12H7C7.55229 12 8 12.4477 8 13C8 13.5523 7.55229 14 7 14H5C4.44772 14 4 13.5523 4 13Z" fill="#0000CC"/>
</svg>
