<svg width="24" height="24" viewBox="0 0 24 24" fill="none" xmlns="http://www.w3.org/2000/svg">
<g opacity="0.3">
<path d="M12.2178 8.00391L17.996 13.7821C17.8839 10.6417 15.3582 8.11601 12.2178 8.00391Z" fill="#0000CC"/>
<path d="M8.06031 9.47455C6.79786 10.5745 6 12.1941 6 14C6 17.3137 8.68629 20 12 20C13.8059 20 15.4255 19.2022 16.5255 17.9397L8.06031 9.47455Z" fill="#0000CC"/>
</g>
<path d="M2.29289 2.29289C2.68342 1.90237 3.31658 1.90237 3.70711 2.29289L21.7071 20.2929C22.0976 20.6834 22.0976 21.3166 21.7071 21.7071C21.3166 22.0976 20.6834 22.0976 20.2929 21.7071L6.64358 8.05779C5.02032 9.52196 4 11.6418 4 14C4 14.5523 3.55228 15 3 15C2.44772 15 2 14.5523 2 14C2 11.0896 3.24335 8.46952 5.22786 6.64207L2.29289 3.70711C1.90237 3.31658 1.90237 2.68342 2.29289 2.29289Z" fill="#0000CC"/>
<path d="M10.3784 6.16443L8.75293 4.53896C9.77104 4.18962 10.8634 4 12 4C17.5228 4 22 8.47715 22 14C22 14.5523 21.5522 15 21 15C20.4477 15 20 14.5523 20 14C20 9.58172 16.4182 6 12 6C11.4444 6 10.9021 6.05663 10.3784 6.16443Z" fill="#0000CC"/>
</svg>
