<svg width="24" height="24" viewBox="0 0 24 24" fill="none" xmlns="http://www.w3.org/2000/svg">
<g opacity="0.3">
<path d="M12.2189 8.00595C14.253 8.11618 15.8828 9.74602 15.993 11.78L20.3606 16.1476C21.3125 15.035 22.0461 13.7302 22.4954 12.2997C22.5567 12.1046 22.5567 11.8955 22.4954 11.7004C21.094 7.23846 16.9261 4 11.9992 4C10.8542 4 9.75021 4.1749 8.7124 4.4994L12.2189 8.00595Z" fill="#0000CC"/>
<path d="M1.50298 11.7003C2.1551 9.62407 3.40625 7.81275 5.05416 6.46936L8.55284 9.96804C8.20095 10.5636 7.99902 11.2582 7.99902 12C7.99902 14.2091 9.78988 16 11.999 16C12.7408 16 13.4355 15.7981 14.031 15.4462L17.252 18.6672C15.6913 19.5171 13.9019 20 11.9992 20C7.07231 20 2.90438 16.7615 1.50298 12.2996C1.44171 12.1045 1.44171 11.8954 1.50298 11.7003Z" fill="#0000CC"/>
</g>
<path fill-rule="evenodd" clip-rule="evenodd" d="M2.29289 2.29289C2.68342 1.90237 3.31658 1.90237 3.70711 2.29289L21.7071 20.2929C22.0976 20.6834 22.0976 21.3166 21.7071 21.7071C21.3166 22.0976 20.6834 22.0976 20.2929 21.7071L14.032 15.4462C13.4365 15.7981 12.7418 16 12 16C9.79086 16 8 14.2092 8 12C8 11.2582 8.20193 10.5636 8.55382 9.96805L2.29289 3.70711C1.90237 3.31658 1.90237 2.68342 2.29289 2.29289Z" fill="#0000CC"/>
</svg>
