<svg width="24" height="24" viewBox="0 0 24 24" fill="none" xmlns="http://www.w3.org/2000/svg">
<path opacity="0.3" fill-rule="evenodd" clip-rule="evenodd" d="M1.50298 11.7003C2.9044 7.23842 7.07231 4 11.9992 4C16.9261 4 21.0941 7.23846 22.4955 11.7004C22.5567 11.8955 22.5567 12.1046 22.4955 12.2997C21.0941 16.7616 16.9261 20 11.9992 20C7.07231 20 2.90438 16.7615 1.50298 12.2996C1.44171 12.1045 1.44171 11.8954 1.50298 11.7003ZM7.99902 12C7.99902 9.79086 9.78988 8 11.999 8C14.2082 8 15.999 9.79086 15.999 12C15.999 14.2091 14.2082 16 11.999 16C9.78988 16 7.99902 14.2091 7.99902 12Z" fill="#0000CC"/>
<path fill-rule="evenodd" clip-rule="evenodd" d="M8 12C8 9.79086 9.79086 8 12 8C14.2091 8 16 9.79086 16 12C16 14.2091 14.2091 16 12 16C9.79086 16 8 14.2091 8 12Z" fill="#0000CC"/>
</svg>
