<svg width="24" height="24" viewBox="0 0 24 24" fill="none" xmlns="http://www.w3.org/2000/svg">
<g opacity="0.3">
<path d="M4.29094 4.41405C6.7449 2.32397 9.87633 2.77637 11.9995 4.59085C14.1175 2.77604 17.2061 2.35016 19.6866 4.4053C22.4064 6.65874 22.7335 10.505 20.6387 13.192C19.8478 14.2065 18.3093 15.725 16.8372 17.1101C15.3459 18.5132 13.8583 19.839 13.1247 20.4865L13.1103 20.4993C13.042 20.5597 12.9532 20.6381 12.8675 20.7024C12.7639 20.7802 12.6118 20.8793 12.4077 20.94C12.1385 21.0201 11.8494 21.0201 11.5803 20.94C11.3761 20.8793 11.224 20.7802 11.1204 20.7024C11.0347 20.6381 10.9459 20.5597 10.8777 20.4993L10.8632 20.4865C10.1297 19.839 8.642 18.5132 7.15069 17.1101C5.67858 15.725 4.14012 14.2065 3.34925 13.192C1.2456 10.4936 1.63366 6.67731 4.29094 4.41405Z" fill="#0000CC"/>
</g>
</svg>
