<svg width="24" height="24" viewBox="0 0 24 24" fill="none" xmlns="http://www.w3.org/2000/svg">
<path opacity="0.3" fill-rule="evenodd" clip-rule="evenodd" d="M8 4H6.8C5.11984 4 4.27976 4 3.63803 4.32698C3.07354 4.6146 2.6146 5.07354 2.32698 5.63803C2 6.27976 2 7.11984 2 8.8V16.2C2 17.8802 2 18.7202 2.32698 19.362C2.6146 19.9265 3.07354 20.3854 3.63803 20.673C4.27976 21 5.11984 21 6.8 21H17.2C18.8802 21 19.7202 21 20.362 20.673C20.9265 20.3854 21.3854 19.9265 21.673 19.362C22 18.7202 22 17.8802 22 16.2V8.8C22 7.11984 22 6.27976 21.673 5.63803C21.3854 5.07354 20.9265 4.6146 20.362 4.32698C19.7202 4 18.8802 4 17.2 4H16C16 5.10457 15.1046 6 14 6H10C8.89543 6 8 5.10457 8 4Z" fill="#0000CC"/>
<path d="M10 3C10 2.44772 10.4477 2 11 2H13C13.5523 2 14 2.44772 14 3C14 3.55228 13.5523 4 13 4H11C10.4477 4 10 3.55228 10 3Z" fill="#0000CC"/>
<path fill-rule="evenodd" clip-rule="evenodd" d="M12 9C10.8954 9 10 9.89543 10 11C10 12.1046 10.8954 13 12 13C13.1046 13 14 12.1046 14 11C14 9.89543 13.1046 9 12 9ZM12 14C10.183 14 8.4512 15.0624 8.02954 16.7588C7.95532 17.0574 8.0227 17.3735 8.21222 17.6159C8.40175 17.8583 8.69231 18 9.00001 18H15C15.3077 18 15.5983 17.8583 15.7878 17.6159C15.9773 17.3735 16.0447 17.0574 15.9705 16.7588C15.5488 15.0624 13.817 14 12 14Z" fill="#0000CC"/>
</svg>
