<svg width="24" height="24" viewBox="0 0 24 24" fill="none" xmlns="http://www.w3.org/2000/svg">
<g opacity="0.3">
<path d="M17 6.00559C16.5874 6 16.1244 6 15.6 6H8.4C7.87562 6 7.41261 6 7 6.00559V21.9944C7.41261 22 7.87562 22 8.4 22H15.6C16.1244 22 16.5874 22 17 21.9944V6.00559Z" fill="#0000CC"/>
<path d="M19 21.8407C19.3067 21.7771 19.5721 21.6883 19.816 21.564C20.5686 21.1805 21.1805 20.5686 21.564 19.816C22 18.9603 22 17.8402 22 15.6V12.4C22 10.1598 22 9.03969 21.564 8.18404C21.5161 8.08996 21.4646 7.99808 21.4097 7.90856C21.0254 7.28198 20.4745 6.77153 19.816 6.43597C19.5721 6.3117 19.3067 6.22285 19 6.15933V21.8407Z" fill="#0000CC"/>
<path d="M5 21.8407V6.15933C4.69332 6.22285 4.42793 6.3117 4.18404 6.43597C3.43139 6.81947 2.81947 7.43139 2.43597 8.18404C2 9.03969 2 10.1598 2 12.4V15.6C2 17.8402 2 18.9603 2.43597 19.816C2.81947 20.5686 3.43139 21.1805 4.18404 21.564C4.42793 21.6883 4.69332 21.7771 5 21.8407Z" fill="#0000CC"/>
</g>
<path d="M17 5V6H15V5C15 4.44772 14.5523 4 14 4H10C9.44772 4 9 4.44772 9 5V6H7V5C7 3.34315 8.34315 2 10 2H14C15.6569 2 17 3.34315 17 5Z" fill="#0000CC"/>
<path d="M5 6.15933C5.5174 6.05216 6.15235 6.01707 7 6.00558V21.9944C6.15235 21.9829 5.5174 21.9478 5 21.8407V6.15933Z" fill="#0000CC"/>
<path d="M19 21.8407C18.4826 21.9478 17.8477 21.9829 17 21.9944V6.00558C17.8477 6.01707 18.4826 6.05216 19 6.15933V21.8407Z" fill="#0000CC"/>
<path d="M12 11C12.5523 11 13 11.4477 13 12V13H14C14.5523 13 15 13.4477 15 14C15 14.5523 14.5523 15 14 15H13V16C13 16.5523 12.5523 17 12 17C11.4477 17 11 16.5523 11 16V15H10C9.44771 15 9 14.5523 9 14C9 13.4477 9.44771 13 10 13H11V12C11 11.4477 11.4477 11 12 11Z" fill="#0000CC"/>
</svg>
