<svg width="24" height="24" viewBox="0 0 24 24" fill="none" xmlns="http://www.w3.org/2000/svg">
<path opacity="0.3" d="M12 4C11.9944 4 11.9887 4.00005 11.9831 4.00015C11.5179 4.00803 11.1197 4.33561 11.0222 4.79047L8.86132 14.8746L7.96152 11.7253C7.83887 11.296 7.44648 11 7 11H3C2.44772 11 2 11.4477 2 12C2 12.5523 2.44772 13 3 13H6.2457L8.03848 19.2747C8.16457 19.716 8.57488 20.0149 9.0336 19.9994C9.49231 19.984 9.88163 19.6583 9.9778 19.2095L12 9.77261V4Z" fill="#0000CC"/>
<path d="M12 9.77261V4C12.4581 3.99992 12.8587 4.31165 12.9701 4.75747L15.2201 13.7572L16.0715 11.6286C16.2234 11.249 16.5911 11 17 11H21C21.5523 11 22 11.4477 22 12C22 12.5523 21.5523 13 21 13H17.677L15.9285 17.3714C15.7674 17.7741 15.365 18.0271 14.9323 17.9977C14.4995 17.9683 14.1351 17.6633 14.0299 17.2425L12.0749 9.42288L12 9.77261Z" fill="#0000CC"/>
</svg>
