<svg width="24" height="24" viewBox="0 0 24 24" fill="none" xmlns="http://www.w3.org/2000/svg">
<path opacity="0.3" d="M12 14C15.3137 14 18 11.3137 18 7.99999C18 7.30319 17.8812 6.63414 17.6628 6.01196C18.495 6.03704 19.1996 6.12194 19.816 6.43597C20.5686 6.81946 21.1805 7.43138 21.564 8.18403C21.8113 8.66937 21.9099 9.18607 21.9558 9.74817C22 10.2894 22 10.9537 22 11.7587V16.2413C22 17.0463 22 17.7106 21.9558 18.2518C21.9099 18.8139 21.8113 19.3306 21.564 19.816C21.1805 20.5686 20.5686 21.1805 19.816 21.564C19.3306 21.8113 18.8139 21.9099 18.2518 21.9558C17.7106 22 17.0463 22 16.2413 22H7.75873C6.95374 22 6.28938 22 5.74818 21.9558C5.18608 21.9099 4.66937 21.8113 4.18404 21.564C3.43139 21.1805 2.81947 20.5686 2.43598 19.816C2.18868 19.3306 2.09012 18.8139 2.04419 18.2518C1.99998 17.7106 1.99999 17.0463 2 16.2413V11.7587C1.99999 10.9537 1.99998 10.2894 2.04419 9.74817C2.09012 9.18607 2.18868 8.66937 2.43598 8.18403C2.81947 7.43139 3.43139 6.81946 4.18404 6.43597C4.80036 6.12194 5.50502 6.03704 6.3372 6.01196C6.11878 6.63414 6 7.30319 6 7.99999C6 11.3137 8.68629 14 12 14Z" fill="#0000CC"/>
<path d="M13.8946 6.44719C14.1416 5.95321 13.9414 5.35254 13.4474 5.10555C12.9535 4.85856 12.3528 5.05878 12.1058 5.55276L11.1058 7.55276C10.8588 8.04674 11.059 8.64741 11.553 8.8944C12.047 9.14139 12.6477 8.94117 12.8946 8.44719L13.8946 6.44719Z" fill="#0000CC"/>
<path fill-rule="evenodd" clip-rule="evenodd" d="M18 8C18 11.3137 15.3137 14 12 14C8.68629 14 6 11.3137 6 8C6 4.68629 8.68629 2 12 2C15.3137 2 18 4.68629 18 8ZM16 8C16 10.2091 14.2091 12 12 12C9.79086 12 8 10.2091 8 8C8 5.79086 9.79086 4 12 4C14.2091 4 16 5.79086 16 8Z" fill="#0000CC"/>
</svg>
