<svg width="24" height="24" viewBox="0 0 24 24" fill="none" xmlns="http://www.w3.org/2000/svg">
<path opacity="0.14" d="M3 16C3 11.0294 7.02944 7 12 7C13.7477 7 15.3791 7.49817 16.7598 8.36025C19.306 9.94996 21 12.7772 21 16V19H3V16Z" fill="#0000CC"/>
<path d="M21 19V20C21.5523 20 22 19.5523 22 19H21ZM3 19H2C2 19.5523 2.44772 20 3 20V19ZM16.7598 8.36025L16.2302 9.20849L16.7598 8.36025ZM19.8339 5.5547C20.1403 5.09517 20.0161 4.4743 19.5566 4.16795C19.0971 3.8616 18.4762 3.98577 18.1698 4.4453L19.8339 5.5547ZM15.9297 7.80555C15.6233 8.26508 15.7475 8.88595 16.207 9.1923C16.6665 9.49865 17.2874 9.37448 17.5938 8.91495L15.9297 7.80555ZM5.83205 4.4453C5.5257 3.98577 4.90483 3.8616 4.4453 4.16795C3.98577 4.4743 3.8616 5.09517 4.16795 5.5547L5.83205 4.4453ZM6.40812 8.91495C6.71447 9.37448 7.33534 9.49865 7.79487 9.1923C8.25439 8.88595 8.37857 8.26508 8.07222 7.80555L6.40812 8.91495ZM9 13C8.44772 13 8 13.4477 8 14C8 14.5523 8.44772 15 9 15V13ZM9.009 15C9.56128 15 10.009 14.5523 10.009 14C10.009 13.4477 9.56128 13 9.009 13V15ZM15 13C14.4477 13 14 13.4477 14 14C14 14.5523 14.4477 15 15 15V13ZM15.009 15C15.5613 15 16.009 14.5523 16.009 14C16.009 13.4477 15.5613 13 15.009 13V15ZM20 16V19H22V16H20ZM21 18H3V20H21V18ZM4 19V16H2V19H4ZM12 6C6.47715 6 2 10.4772 2 16H4C4 11.5817 7.58172 8 12 8V6ZM12 8C13.5551 8 15.0037 8.4427 16.2302 9.20849L17.2894 7.512C15.7545 6.55364 13.9404 6 12 6V8ZM16.2302 9.20849C18.4961 10.6232 20 13.1364 20 16H22C22 12.4179 20.1159 9.27673 17.2894 7.512L16.2302 9.20849ZM18.1698 4.4453L15.9297 7.80555L17.5938 8.91495L19.8339 5.5547L18.1698 4.4453ZM4.16795 5.5547L6.40812 8.91495L8.07222 7.80555L5.83205 4.4453L4.16795 5.5547ZM9 15H9.009V13H9V15ZM15 15H15.009V13H15V15Z" fill="#0000CC"/>
</svg>
