<svg width="24" height="24" viewBox="0 0 24 24" fill="none" xmlns="http://www.w3.org/2000/svg">
<path opacity="0.14" d="M14.8599 5.50926L14.4381 7.32532C13.6378 7.10419 12.8202 6.99499 12 7.00018C11.1797 6.99499 10.3621 7.10421 9.56174 7.32537L9.13886 5.50932C9.10127 5.34481 9.00904 5.20201 8.88055 5.10938C8.75207 5.01676 8.59676 4.98111 8.44558 5.00954L5.73268 5.50432C5.61549 5.52537 5.50644 5.58391 5.41896 5.67272C5.33149 5.76153 5.26941 5.87673 5.24038 6.00411L3.01752 15.6957C2.98356 15.8481 2.99929 16.0088 3.06195 16.1496C3.12461 16.2904 3.23016 16.4023 3.36002 16.4654L8.40342 18.9393C8.47995 18.9777 8.5628 18.9984 8.64684 18.9999C8.73087 19.0014 8.8143 18.9839 8.89194 18.9483C8.96958 18.9126 9.03977 18.8597 9.09818 18.7929C9.15658 18.726 9.20194 18.6465 9.23145 18.5595L10.1095 16.308C10.7336 16.4395 11.366 16.5038 12 16.4998C12.634 16.5038 13.2664 16.4395 13.8905 16.308L14.7673 18.5595C14.7968 18.6466 14.8422 18.726 14.9006 18.7929C14.959 18.8598 15.0292 18.9126 15.1068 18.9483C15.1845 18.9839 15.2679 19.0014 15.3519 18.9999C15.4359 18.9984 15.5188 18.9777 15.5953 18.9393L20.6387 16.4657C20.7686 16.4026 20.8741 16.2908 20.9368 16.15C20.9995 16.0092 21.0152 15.8485 20.9812 15.6961L18.7584 6.00399C18.7293 5.87662 18.6673 5.76144 18.5798 5.67264C18.4923 5.58384 18.3833 5.52531 18.2661 5.50426L15.5532 5.00954C15.402 4.98111 15.2467 5.01676 15.1182 5.10937C14.9897 5.20199 14.8975 5.34477 14.8599 5.50926Z" fill="#0000CC"/>
<path d="M13.4639 7.09941C13.339 7.63737 13.6738 8.17477 14.2118 8.29972C14.7497 8.42467 15.2871 8.08985 15.4121 7.55189L13.4639 7.09941ZM14.8599 5.50926L15.834 5.7355L15.8348 5.73203L14.8599 5.50926ZM15.1182 5.10937L15.7029 5.92059L15.1182 5.10937ZM15.5532 5.00954L15.3684 5.99233L15.3738 5.99331L15.5532 5.00954ZM18.2661 5.50426L18.0867 6.48804L18.0893 6.48851L18.2661 5.50426ZM18.7584 6.00399L17.7834 6.22619L17.7837 6.22753L18.7584 6.00399ZM20.9812 15.6961L21.9573 15.4786L21.9559 15.4726L20.9812 15.6961ZM20.6387 16.4657L20.2016 15.5663L20.1984 15.5679L20.6387 16.4657ZM15.5953 18.9393L15.155 18.0414L15.1465 18.0457L15.5953 18.9393ZM14.7673 18.5595L15.7144 18.2386C15.7096 18.2245 15.7046 18.2106 15.6992 18.1967L14.7673 18.5595ZM14.8225 15.9449C14.6221 15.4302 14.0425 15.1754 13.5278 15.3758C13.0132 15.5762 12.7584 16.1558 12.9588 16.6705L14.8225 15.9449ZM12 7.00018L11.9937 8.00024L12.0063 8.00016L12 7.00018ZM14.6731 8.44507C15.1951 8.62559 15.7646 8.34881 15.9451 7.82686C16.1256 7.30491 15.8488 6.73544 15.3269 6.55493L14.6731 8.44507ZM8.67314 6.55493C8.15119 6.73544 7.87441 7.30491 8.05493 7.82686C8.23545 8.34881 8.80491 8.62559 9.32686 8.44507L8.67314 6.55493ZM9.56174 7.32537L9.82809 8.28924L9.56174 7.32537ZM9.13886 5.50932L8.16397 5.73207L8.16491 5.73611L9.13886 5.50932ZM8.88055 5.10938L9.46534 4.29819L8.88055 5.10938ZM8.44558 5.00954L8.625 5.99333L8.6304 5.99231L8.44558 5.00954ZM5.73268 5.50432L5.90949 6.48857L5.9121 6.4881L5.73268 5.50432ZM5.24038 6.00411L6.21507 6.22766L6.21539 6.22628L5.24038 6.00411ZM3.01752 15.6957L2.04281 15.4721L2.04146 15.4782L3.01752 15.6957ZM3.36002 16.4654L3.80042 15.5676L3.79718 15.566L3.36002 16.4654ZM8.40342 18.9393L8.85231 18.0457L8.84382 18.0415L8.40342 18.9393ZM9.23145 18.5595L8.29979 18.1961C8.29432 18.2101 8.28917 18.2243 8.28433 18.2386L9.23145 18.5595ZM11.0412 16.6713C11.2418 16.1568 10.9874 15.577 10.4728 15.3763C9.95831 15.1756 9.37852 15.4301 9.17785 15.9446L11.0412 16.6713ZM15.3269 16.9451C15.8488 16.7646 16.1256 16.1951 15.9451 15.6731C15.7646 15.1512 15.1951 14.8744 14.6731 15.0549L15.3269 16.9451ZM12 16.4998L12.0063 15.4998L11.9937 15.4998L12 16.4998ZM9.32686 15.0549C8.80491 14.8744 8.23545 15.1512 8.05493 15.6731C7.87441 16.1951 8.15119 16.7646 8.67314 16.9451L9.32686 15.0549ZM9 11C8.44772 11 8 11.4477 8 12C8 12.5523 8.44772 13 9 13V11ZM9.009 13C9.56128 13 10.009 12.5523 10.009 12C10.009 11.4477 9.56128 11 9.009 11V13ZM15 11C14.4477 11 14 11.4477 14 12C14 12.5523 14.4477 13 15 13V11ZM15.009 13C15.5613 13 16.009 12.5523 16.009 12C16.009 11.4477 15.5613 11 15.009 11V13ZM15.4121 7.55189L15.834 5.7355L13.8858 5.28302L13.4639 7.09941L15.4121 7.55189ZM15.8348 5.73203C15.822 5.78776 15.7853 5.86123 15.7029 5.92059L14.5335 4.29815C14.1941 4.54274 13.9729 4.90178 13.885 5.28649L15.8348 5.73203ZM15.7029 5.92059C15.6167 5.98279 15.4952 6.01617 15.3684 5.99231L15.738 4.02676C15.3087 3.94605 14.8767 4.05073 14.5335 4.29815L15.7029 5.92059ZM15.3738 5.99331L18.0867 6.48804L18.4455 4.52049L15.7326 4.02576L15.3738 5.99331ZM18.0893 6.48851C17.9931 6.47124 17.9177 6.42553 17.8674 6.37443L19.2922 4.97085C19.0669 4.74216 18.7734 4.57938 18.4429 4.52001L18.0893 6.48851ZM17.8674 6.37443C17.8181 6.32437 17.7936 6.27087 17.7834 6.22619L19.7334 5.78178C19.6651 5.48237 19.5164 5.19851 19.2922 4.97085L17.8674 6.37443ZM17.7837 6.22753L20.0065 15.9196L21.9559 15.4726L19.7331 5.78044L17.7837 6.22753ZM20.0052 15.9136C19.9931 15.8596 19.9974 15.8013 20.0232 15.7434L21.8504 16.5566C22.0015 16.2171 22.0373 15.8373 21.9573 15.4786L20.0052 15.9136ZM20.0232 15.7434C20.0494 15.6845 20.1046 15.6134 20.2016 15.5663L21.0759 17.3651C21.4326 17.1917 21.6989 16.897 21.8504 16.5566L20.0232 15.7434ZM20.1984 15.5679L15.155 18.0415L16.0357 19.8371L21.0791 17.3635L20.1984 15.5679ZM15.1465 18.0457C15.2011 18.0183 15.2651 18.0013 15.3336 18.0001L15.3702 19.9997C15.6068 19.9954 15.8365 19.9372 16.0442 19.8329L15.1465 18.0457ZM15.3336 18.0001C15.4021 17.9988 15.4672 18.0134 15.5237 18.0393L14.6899 19.8572C14.9017 19.9543 15.1336 20.0041 15.3702 19.9997L15.3336 18.0001ZM15.5237 18.0393C15.5798 18.065 15.6229 18.0997 15.6538 18.1351L14.1474 19.4507C14.2951 19.6198 14.4786 19.7603 14.6899 19.8572L15.5237 18.0393ZM15.6538 18.1351C15.6845 18.1703 15.7035 18.2063 15.7144 18.2386L13.8202 18.8804C13.8902 19.0869 13.9999 19.2818 14.1474 19.4507L15.6538 18.1351ZM15.6992 18.1967L14.8225 15.9449L12.9588 16.6705L13.8354 18.9223L15.6992 18.1967ZM12.0063 8.00016C12.9038 7.99449 13.8005 8.14327 14.6731 8.44507L15.3269 6.55493C14.2445 6.18058 13.1227 5.99306 11.9937 6.0002L12.0063 8.00016ZM9.32686 8.44507C9.49318 8.38755 9.66032 8.33561 9.82809 8.28924L9.29538 6.36149C9.08662 6.41918 8.87914 6.48368 8.67314 6.55493L9.32686 8.44507ZM9.82809 8.28924C10.5409 8.09226 11.2668 7.99556 11.9937 8.00016L12.0063 6.0002C11.0926 5.99442 10.1832 6.11615 9.29538 6.36149L9.82809 8.28924ZM10.5357 7.09858L10.1128 5.28253L8.16491 5.73611L8.58779 7.55216L10.5357 7.09858ZM10.1137 5.28657C10.0258 4.90187 9.80466 4.54281 9.46534 4.29819L8.29577 5.92057C8.21342 5.8612 8.1767 5.78775 8.16398 5.73207L10.1137 5.28657ZM9.46534 4.29819C9.12208 4.05074 8.69002 3.94604 8.26076 4.02677L8.6304 5.99231C8.50349 6.01618 8.38206 5.98278 8.29577 5.92057L9.46534 4.29819ZM8.26615 4.02577L5.55325 4.52055L5.9121 6.4881L8.625 5.99331L8.26615 4.02577ZM5.55586 4.52008C5.22531 4.57946 4.93182 4.74226 4.70654 4.97097L6.13138 6.37447C6.08106 6.42556 6.00568 6.47129 5.90949 6.48857L5.55586 4.52008ZM4.70654 4.97097C4.48228 5.19864 4.3336 5.48252 4.26537 5.78193L6.21539 6.22628C6.20521 6.27093 6.18069 6.32441 6.13138 6.37447L4.70654 4.97097ZM4.26569 5.78055L2.04283 15.4722L3.99221 15.9193L6.21507 6.22766L4.26569 5.78055ZM2.04146 15.4782C1.9615 15.837 1.99726 16.2167 2.14833 16.5562L3.97557 15.7431C4.00133 15.801 4.00561 15.8592 3.99357 15.9132L2.04146 15.4782ZM2.14833 16.5562C2.29981 16.8966 2.56615 17.1914 2.92286 17.3648L3.79718 15.566C3.89417 15.6131 3.9494 15.6843 3.97557 15.7431L2.14833 16.5562ZM2.91962 17.3632L7.96303 19.8371L8.84382 18.0415L3.80041 15.5676L2.91962 17.3632ZM7.95456 19.8329C8.16221 19.9372 8.39191 19.9954 8.6285 19.9997L8.66518 18.0001C8.7337 18.0013 8.79769 18.0183 8.85229 18.0457L7.95456 19.8329ZM8.6285 19.9997C8.86512 20.0041 9.09711 19.9543 9.30889 19.8572L8.47499 18.0393C8.53149 18.0134 8.59662 17.9988 8.66518 18.0001L8.6285 19.9997ZM9.30889 19.8572C9.52023 19.7602 9.70371 19.6198 9.85141 19.4506L8.34494 18.1351C8.37584 18.0997 8.41893 18.065 8.47499 18.0393L9.30889 19.8572ZM9.85141 19.4506C9.99891 19.2817 10.1086 19.0868 10.1786 18.8804L8.28433 18.2386C8.29528 18.2062 8.31425 18.1703 8.34494 18.1351L9.85141 19.4506ZM10.1631 18.9228L11.0412 16.6713L9.17785 15.9446L8.29979 18.1961L10.1631 18.9228ZM14.6731 15.0549C13.8005 15.3567 12.9038 15.5055 12.0063 15.4998L11.9937 17.4998C13.1227 17.5069 14.2445 17.3194 15.3269 16.9451L14.6731 15.0549ZM11.9937 15.4998C11.0962 15.5055 10.1995 15.3567 9.32686 15.0549L8.67314 16.9451C9.75554 17.3194 10.8773 17.5069 12.0063 17.4998L11.9937 15.4998ZM9 13H9.009V11H9V13ZM15 13H15.009V11H15V13Z" fill="#0000CC"/>
</svg>
