<svg width="24" height="24" viewBox="0 0 24 24" fill="none" xmlns="http://www.w3.org/2000/svg">
<path opacity="0.14" d="M20.25 3H3.75C3.33579 3 3 3.33579 3 3.75V20.25C3 20.6642 3.33579 21 3.75 21H20.25C20.6642 21 21 20.6642 21 20.25V3.75C21 3.33579 20.6642 3 20.25 3Z" fill="#0000CC" stroke="#0000CC" stroke-width="2" stroke-linecap="round" stroke-linejoin="round"/>
<path d="M13 10C13 9.44772 12.5523 9 12 9C11.4477 9 11 9.44772 11 10H13ZM11.01 16.0025C11.0114 16.5548 11.4602 17.0014 12.0125 17C12.5648 16.9986 13.0114 16.5498 13.01 15.9975L11.01 16.0025ZM9 9.99833C8.99908 9.44605 8.55062 8.99908 7.99833 9C7.44605 9.00092 6.99908 9.44938 7 10.0017L9 9.99833ZM7.01 16.0017C7.01092 16.554 7.45938 17.0009 8.01167 17C8.56395 16.9991 9.01092 16.5506 9.01 15.9983L7.01 16.0017ZM7.99 6C7.43772 6 6.99 6.44772 6.99 7C6.99 7.55228 7.43772 8 7.99 8V6ZM8 8C8.55228 8 9 7.55228 9 7C9 6.44772 8.55228 6 8 6V8ZM12 12H11L11 12.0025L12 12ZM16 12H15L15 12.0025L16 12ZM15.01 16.0025C15.0114 16.5548 15.4602 17.0014 16.0125 17C16.5648 16.9986 17.0114 16.5498 17.01 15.9975L15.01 16.0025ZM3.75 4H20.25V2H3.75V4ZM20.25 4C20.1119 4 20 3.88807 20 3.75H22C22 2.7835 21.2165 2 20.25 2V4ZM20 3.75V20.25H22V3.75H20ZM20 20.25C20 20.1119 20.1119 20 20.25 20V22C21.2165 22 22 21.2165 22 20.25H20ZM20.25 20H3.75V22H20.25V20ZM3.75 20C3.88807 20 4 20.1119 4 20.25H2C2 21.2165 2.7835 22 3.75 22V20ZM4 20.25V3.75H2V20.25H4ZM4 3.75C4 3.88807 3.88807 4 3.75 4V2C2.7835 2 2 2.7835 2 3.75H4ZM7 10.0017L7.01 16.0017L9.01 15.9983L9 9.99833L7 10.0017ZM7.99 8H8V6H7.99V8ZM15 12.0025L15.01 16.0025L17.01 15.9975L17 11.9975L15 12.0025ZM14 11C14.5523 11 15 11.4477 15 12H17C17 10.3431 15.6569 9 14 9V11ZM13 12C13 11.4477 13.4477 11 14 11V9C12.3431 9 11 10.3431 11 12H13ZM11 10V12H13V10H11ZM11 12.0025L11.01 16.0025L13.01 15.9975L13 11.9975L11 12.0025Z" fill="#0000CC"/>
</svg>
