<svg width="24" height="24" viewBox="0 0 24 24" fill="none" xmlns="http://www.w3.org/2000/svg">
<path opacity="0.14" d="M9 21C12.3137 21 15 18.3138 15 15V10C17 11.5 19 12 21 12V8C18 8 15 5.5 15 3H11V15C11 16.1046 10.1046 17 9 17C7.89543 17 7 16.1046 7 15C7 14.2597 7.4022 13.6134 8 13.2676V9.08301C5.16229 9.55909 3 12.0271 3 15C3 18.3138 5.68629 21 9 21Z" fill="#0000CC"/>
<path d="M9 21C12.3137 21 15 18.3138 15 15V10C17 11.5 19 12 21 12V8C18 8 15 5.5 15 3H11V15C11 16.1046 10.1046 17 9 17C7.89543 17 7 16.1046 7 15C7 14.2597 7.4022 13.6134 8 13.2676V9.08301C5.16229 9.55909 3 12.0271 3 15C3 18.3138 5.68629 21 9 21Z" stroke="#0000CC" stroke-width="2" stroke-linecap="round" stroke-linejoin="round"/>
</svg>
