<svg width="24" height="24" viewBox="0 0 24 24" fill="none" xmlns="http://www.w3.org/2000/svg">
<path d="M3 3V2C2.44772 2 2 2.44772 2 3H3ZM21 3H22C22 2.44772 21.5523 2 21 2V3ZM21 21V22C21.5523 22 22 21.5523 22 21H21ZM3 21H2C2 21.5523 2.44772 22 3 22V21ZM12.0034 12.5L11.2963 11.7929C11.1104 11.9788 11.0052 12.2303 11.0034 12.4932L12.0034 12.5ZM9.09797 9.25074C8.96031 9.78559 9.28229 10.3308 9.81715 10.4684C10.352 10.6061 10.8972 10.2841 11.0348 9.74926L9.09797 9.25074ZM11 12.9932C10.9962 13.5454 11.4409 13.9962 11.9932 14C12.5454 14.0038 12.9962 13.5591 13 13.0068L11 12.9932ZM12 15C11.4477 15 11 15.4477 11 16C11 16.5523 11.4477 17 12 17V15ZM12.01 17C12.5623 17 13.01 16.5523 13.01 16C13.01 15.4477 12.5623 15 12.01 15V17ZM7 16C6.44772 16 6 16.4477 6 17C6 17.5523 6.44772 18 7 18V16ZM7.009 18C7.56128 18 8.009 17.5523 8.009 17C8.009 16.4477 7.56128 16 7.009 16V18ZM17 16C16.4477 16 16 16.4477 16 17C16 17.5523 16.4477 18 17 18V16ZM17.009 18C17.5613 18 18.009 17.5523 18.009 17C18.009 16.4477 17.5613 16 17.009 16V18ZM17 6C16.4477 6 16 6.44772 16 7C16 7.55228 16.4477 8 17 8V6ZM17.009 8C17.5613 8 18.009 7.55228 18.009 7C18.009 6.44772 17.5613 6 17.009 6V8ZM7 6C6.44772 6 6 6.44772 6 7C6 7.55228 6.44772 8 7 8V6ZM7.009 8C7.56128 8 8.009 7.55228 8.009 7C8.009 6.44772 7.56128 6 7.009 6V8ZM3 4H21V2H3V4ZM20 3V21H22V3H20ZM21 20H3V22H21V20ZM4 21V3H2V21H4ZM13.0034 10C13.0034 10.1732 12.9579 10.3053 12.6839 10.5697C12.5302 10.718 12.3493 10.8653 12.0983 11.074C11.86 11.2723 11.5805 11.5087 11.2963 11.7929L12.7105 13.2071C12.9264 12.9913 13.1469 12.8033 13.3773 12.6116C13.5951 12.4305 13.8516 12.2223 14.0729 12.0087C14.5489 11.5493 15.0034 10.9314 15.0034 10H13.0034ZM12.0034 9C12.5557 9 13.0034 9.44772 13.0034 10H15.0034C15.0034 8.34315 13.6603 7 12.0034 7V9ZM11.0348 9.74926C11.1459 9.31774 11.5388 9 12.0034 9V7C10.6041 7 9.43095 7.95704 9.09797 9.25074L11.0348 9.74926ZM11.0034 12.4932L11 12.9932L13 13.0068L13.0034 12.5068L11.0034 12.4932ZM12 17H12.01V15H12V17ZM7 18H7.009V16H7V18ZM17 18H17.009V16H17V18ZM17 8H17.009V6H17V8ZM7 8H7.009V6H7V8Z" fill="#0000CC"/>
</svg>
