<svg width="24" height="24" viewBox="0 0 24 24" fill="none" xmlns="http://www.w3.org/2000/svg">
<path d="M10 16C9.44772 16 9 16.4477 9 17C9 17.5523 9.44772 18 10 18V16ZM14 18C14.5523 18 15 17.5523 15 17C15 16.4477 14.5523 16 14 16V18ZM11 17C11 17.5523 11.4477 18 12 18C12.5523 18 13 17.5523 13 17H11ZM13 14C13 13.4477 12.5523 13 12 13C11.4477 13 11 13.4477 11 14H13ZM14.482 9.20039L13.4891 9.31899C13.5315 9.67394 13.7601 9.97926 14.0888 10.1198L14.482 9.20039ZM9.51758 9.20039L9.9108 10.1198C10.2395 9.97926 10.4681 9.67394 10.5105 9.31899L9.51758 9.20039ZM12 13.5002L12.6006 12.7006C12.2448 12.4334 11.7552 12.4334 11.3994 12.7006L12 13.5002ZM5 3V2C4.44772 2 4 2.44772 4 3H5ZM19 3H20C20 2.44772 19.5523 2 19 2V3ZM19 21V22C19.5523 22 20 21.5523 20 21H19ZM5 21H4C4 21.5523 4.44772 22 5 22V21ZM10 18H14V16H10V18ZM13 17V14H11V17H13ZM15.475 9.08178C15.2676 7.34552 13.7916 6 11.9998 6V8C12.7666 8 13.4004 8.57633 13.4891 9.31899L15.475 9.08178ZM11.9998 6C10.208 6 8.73203 7.34552 8.52464 9.08178L10.5105 9.31899C10.5992 8.57633 11.233 8 11.9998 8V6ZM13.5 13C13.1612 13 12.8512 12.8889 12.6006 12.7006L11.3994 14.2997C11.9845 14.7392 12.7132 15 13.5 15V13ZM15 11.4999C15 12.3284 14.3284 13 13.5 13V15C15.433 15 17 13.433 17 11.4999H15ZM14.0888 10.1198C14.6265 10.3498 15 10.8825 15 11.4999H17C17 10.0533 16.1225 8.81435 14.8753 8.28094L14.0888 10.1198ZM9.12435 8.28094C7.8769 8.81445 7 10.0536 7 11.4999H9C9 10.8822 9.37339 10.3497 9.9108 10.1198L9.12435 8.28094ZM7 11.4999C7 13.433 8.56698 15 10.5 15V13C9.67159 13 9 12.3284 9 11.4999H7ZM10.5 15C11.2868 15 12.0155 14.7392 12.6006 14.2997L11.3994 12.7006C11.1488 12.8889 10.8388 13 10.5 13V15ZM5 4H19V2H5V4ZM18 3V21H20V3H18ZM19 20H5V22H19V20ZM6 21V3H4V21H6Z" fill="#0000CC"/>
</svg>
