<svg width="24" height="24" viewBox="0 0 24 24" fill="none" xmlns="http://www.w3.org/2000/svg">
<path d="M8 21L7.13176 20.5039C6.9549 20.8134 6.95617 21.1936 7.13509 21.5019C7.31401 21.8102 7.64353 22 8 22V21ZM9.14286 19V18C8.784 18 8.45266 18.1923 8.27461 18.5039L9.14286 19ZM14.8571 19L15.7254 18.5039C15.5473 18.1923 15.216 18 14.8571 18V19ZM16 21V22C16.3565 22 16.686 21.8102 16.8649 21.5019C17.0438 21.1936 17.0451 20.8134 16.8682 20.5039L16 21ZM8.02986 15.7575C7.89591 16.2933 8.22167 16.8362 8.75746 16.9701C9.29326 17.1041 9.83619 16.7783 9.97014 16.2425L8.02986 15.7575ZM14.0299 16.2425C14.1638 16.7783 14.7067 17.1041 15.2425 16.9701C15.7783 16.8362 16.1041 16.2933 15.9701 15.7575L14.0299 16.2425ZM16 13C16.5523 13 17 12.5523 17 12C17 11.4477 16.5523 11 16 11V13ZM8 11C7.44772 11 7 11.4477 7 12C7 12.5523 7.44772 13 8 13V11ZM16 7L16.9285 7.37139C17.0648 7.03065 17.0035 6.64264 16.7688 6.3605C16.5341 6.07837 16.1637 5.94745 15.8039 6.01942L16 7ZM8 7L8.19612 6.01942C7.83626 5.94745 7.46589 6.07837 7.23121 6.3605C6.99652 6.64264 6.93523 7.03065 7.07152 7.37139L8 7ZM12 6L12.7071 5.29289C12.3166 4.90237 11.6834 4.90237 11.2929 5.29289L12 6ZM12 2C11.4477 2 11 2.44772 11 3C11 3.55228 11.4477 4 12 4V2ZM12.009 4C12.5613 4 13.009 3.55228 13.009 3C13.009 2.44772 12.5613 2 12.009 2V4ZM8.86824 21.4961L10.0111 19.4961L8.27461 18.5039L7.13176 20.5039L8.86824 21.4961ZM9.14286 20H14.8571V18H9.14286V20ZM13.9889 19.4961L15.1318 21.4961L16.8682 20.5039L15.7254 18.5039L13.9889 19.4961ZM8 22H16V20H8V22ZM9.97014 16.2425L10.9701 12.2425L9.02986 11.7575L8.02986 15.7575L9.97014 16.2425ZM15.9701 15.7575L14.9701 11.7575L13.0299 12.2425L14.0299 16.2425L15.9701 15.7575ZM14.9285 12.3714L16.9285 7.37139L15.0715 6.62861L13.0715 11.6286L14.9285 12.3714ZM10.9285 11.6286L8.92848 6.62861L7.07152 7.37139L9.07152 12.3714L10.9285 11.6286ZM7.80388 7.98058C8.32979 8.08576 9.15059 8.14088 10.0224 7.99963C10.8944 7.85835 11.9095 7.50468 12.7071 6.70711L11.2929 5.29289C10.8905 5.69532 10.3222 5.92498 9.70257 6.02537C9.08274 6.12579 8.50355 6.08091 8.19612 6.01942L7.80388 7.98058ZM15.8039 6.01942C15.4965 6.08091 14.9173 6.12579 14.2974 6.02537C13.6778 5.92498 13.1095 5.69532 12.7071 5.29289L11.2929 6.70711C12.0905 7.50468 13.1056 7.85835 13.9776 7.99963C14.8494 8.14088 15.6702 8.08576 16.1961 7.98058L15.8039 6.01942ZM12 4H12.009V2H12V4ZM16 11H14V13H16V11ZM14 11H10V13H14V11ZM10 11H8V13H10V11Z" fill="#0000CC"/>
</svg>
