<svg width="24" height="24" viewBox="0 0 24 24" fill="none" xmlns="http://www.w3.org/2000/svg">
<path d="M14.1213 17.9586C12.9497 19.3471 11.0503 19.3471 9.87868 17.9586C9.29289 17.2643 9 16.3544 9 15.4444C9 14.5345 9.29289 13.6245 9.87868 12.9303C9.87868 12.9303 10.125 13.6666 10.875 14.1111C10.875 13.2222 11.0625 11.8889 11.9947 11C12.75 11.8889 13.5342 12.2344 14.1213 12.9303C14.7071 13.6245 15 14.5345 15 15.4444C15 16.3544 14.7071 17.2643 14.1213 17.9586Z" stroke="#0000CC" stroke-width="2" stroke-linecap="round" stroke-linejoin="round"/>
<path d="M17.6569 18.6569C14.5327 21.781 9.46734 21.781 6.34315 18.6569C4.78105 17.0948 4 15.0474 4 13C4 10.9526 4.78105 8.90524 6.34315 7.34314C6.34315 7.34314 7.00004 8.99996 9.00005 9.99996C9.00005 7.99996 9.50004 4.99996 11.9859 3C14 5 16.0912 5.77745 17.6569 7.34314C19.219 8.90524 20 10.9526 20 13C20 15.0474 19.2189 17.0948 17.6569 18.6569Z" stroke="#0000CC" stroke-width="2" stroke-linecap="round" stroke-linejoin="round"/>
</svg>
