<svg width="24" height="24" viewBox="0 0 24 24" fill="none" xmlns="http://www.w3.org/2000/svg">
<path d="M8 21V19C5.79086 19 3 17.5 3 15V13.6C3 12.094 3.87623 11.1249 5 10.5759M19 21V19C20.1046 19 21 18.1045 21 17V12M8 14H10C11.1046 14 12.0016 13.1046 12.0016 12M12.0016 12C12.0016 10.8954 11.1046 10 10 10H9M12.0016 12H13.0016L13.0003 4.99983C13.0002 3.8953 12.1047 3 11.0002 3C9.89551 3 9 3.89551 9 5.00017V10M9 10V7C9 5.89543 8.10457 5 7 5C5.89543 5 5 5.89543 5 7V10.5759M9 10H7.6C6.76339 10 5.81638 10.1771 5 10.5759M15 13C13.8954 13 13 12.1046 13 11V7C13 5.89543 13.8954 5 15 5C16.1046 5 17 5.89543 17 7V11C17 12.1046 16.1046 13 15 13ZM19 15C17.8954 15 17 14.1046 17 13V10C17 8.89543 17.8954 8 19 8C20.1046 8 21 8.89543 21 10V13C21 14.1046 20.1046 15 19 15Z" stroke="#0000CC" stroke-width="2" stroke-linecap="round" stroke-linejoin="round"/>
</svg>
