<svg width="24" height="24" viewBox="0 0 24 24" fill="none" xmlns="http://www.w3.org/2000/svg">
<path d="M15.59 6C16.7016 4.3836 18.5051 3 21.0003 3C21.0003 6 21.0003 11.5 18.0003 13C20.0003 14.5 21.0003 16 21.0003 19C19.7885 19 18.8215 18.9184 18.0003 18.7223M8.41031 6C7.29867 4.3836 5.49524 3 3 3C3 6 3 11.5 6 13C4 14.5 3 16 3 19C4.21178 19 5.17883 18.9184 6 18.7223M10.0002 21V17M14.0002 21V17M13.0002 4C13.0002 4.55228 12.5524 5 12.0002 5C11.4479 5 11.0002 4.55228 11.0002 4C11.0002 3.44772 11.4479 3 12.0002 3C12.5524 3 13.0002 3.44772 13.0002 4ZM10.0002 9H14.0002L15.3789 14.5149C15.6945 15.7772 14.7397 17 13.4386 17H10.5617C9.26056 17 8.30585 15.7772 8.62142 14.5149L10.0002 9Z" stroke="#0000CC" stroke-width="2" stroke-linecap="round" stroke-linejoin="round"/>
</svg>
