<svg width="24" height="24" viewBox="0 0 24 24" fill="none" xmlns="http://www.w3.org/2000/svg">
<path d="M4.1027 10.0042C2.63243 11.3431 2.63243 13.514 4.1027 14.8529C5.37179 16.0087 14.0594 19.7492 16.413 20.7512C16.7713 20.9037 17.18 20.82 17.4553 20.5447C17.7734 20.2266 17.8296 19.7323 17.5671 19.3669C15.5459 16.5531 10.5162 10.9961 9.42698 10.0042C7.95672 8.66526 5.57296 8.66526 4.1027 10.0042Z" stroke="#0000CC" stroke-width="2" stroke-linejoin="round"/>
<path d="M21 6C21 7.65685 19.6569 9 18 9C16.3431 9 15 7.65685 15 6C15 4.34315 16.3431 3 18 3C19.6569 3 21 4.34315 21 6Z" stroke="#0000CC" stroke-width="2" stroke-linejoin="round"/>
</svg>
