<svg width="24" height="24" viewBox="0 0 24 24" fill="none" xmlns="http://www.w3.org/2000/svg">
<path fill-rule="evenodd" clip-rule="evenodd" d="M7 4C7.55228 4 8 4.44772 8 5V10.0122C8.06716 9.94052 8.13662 9.87116 8.20745 9.80351C8.53057 9.49487 8.95994 9.1514 9.46488 8.74747L13.8105 5.27096C14.1968 4.96191 14.5388 4.68824 14.829 4.49643C15.1123 4.30911 15.5133 4.08115 15.9978 4.08063C16.6069 4.07997 17.1831 4.3569 17.5631 4.83292C17.8654 5.2116 17.9379 5.66715 17.9686 6.00542C18.0001 6.35179 18 6.78985 18 7.28453V16.7155C18 17.2102 18.0001 17.6482 17.9686 17.9946C17.9379 18.3329 17.8654 18.7884 17.5631 19.1671C17.1831 19.6431 16.6069 19.92 15.9978 19.9194C15.5133 19.9189 15.1123 19.6909 14.829 19.5036C14.5388 19.3118 14.1968 19.0381 13.8105 18.729L9.4649 15.2525C8.95995 14.8486 8.53058 14.5051 8.20745 14.1965C8.13662 14.1288 8.06716 14.0595 8 13.9878V19C8 19.5523 7.55228 20 7 20C6.44772 20 6 19.5523 6 19V5C6 4.44772 6.44772 4 7 4Z" fill="#0000CC"/>
</svg>
