<svg width="24" height="24" viewBox="0 0 24 24" fill="none" xmlns="http://www.w3.org/2000/svg">
<path d="M3 4C2.44772 4 2 4.44772 2 5V19C2 19.5523 2.44772 20 3 20C3.55228 20 4 19.5523 4 19V14.8805L8.81069 18.7291C9.19692 19.0381 9.53901 19.3118 9.82911 19.5036C10.1124 19.6909 10.5135 19.9189 10.998 19.9194C11.6071 19.92 12.1833 19.6431 12.5632 19.1671C12.8655 18.7884 12.938 18.3329 12.9687 17.9946C13.0002 17.6482 13.0002 17.2102 13.0002 16.7155V7.28452C13.0002 6.78986 13.0002 6.35178 12.9687 6.00542C12.938 5.66715 12.8655 5.21161 12.5632 4.83293C12.1833 4.3569 11.6071 4.07997 10.998 4.08063C10.5135 4.08115 10.1124 4.30911 9.82911 4.49644C9.53899 4.68824 9.19693 4.96192 8.81067 5.27097L4 9.1195V5C4 4.44772 3.55228 4 3 4Z" fill="#0000CC"/>
<path d="M15 16.4809L17.8101 18.729C18.1964 19.0381 18.5385 19.3118 18.8286 19.5036C19.1119 19.6909 19.5129 19.9189 19.9975 19.9194C20.6065 19.92 21.1827 19.6431 21.5627 19.1671C21.865 18.7884 21.9375 18.3329 21.9682 17.9946C21.9997 17.6482 21.9996 17.2101 21.9996 16.7155V7.28452C21.9996 6.78984 21.9997 6.35179 21.9682 6.00542C21.9375 5.66716 21.865 5.21161 21.5627 4.83293C21.1827 4.3569 20.6065 4.07997 19.9975 4.08063C19.5129 4.08115 19.1119 4.30911 18.8286 4.49644C18.5385 4.68821 18.1965 4.96184 17.8103 5.27083L15 7.51907V16.4809Z" fill="#0000CC"/>
</svg>
