<svg width="24" height="24" viewBox="0 0 24 24" fill="none" xmlns="http://www.w3.org/2000/svg">
<path fill-rule="evenodd" clip-rule="evenodd" d="M12 22C17.5228 22 22 17.5228 22 12C22 6.47715 17.5228 2 12 2C6.47715 2 2 6.47715 2 12C2 17.5228 6.47715 22 12 22ZM11.7703 7.97824C11.5932 7.86014 11.4079 7.73656 11.2448 7.64814C11.0818 7.55985 10.7832 7.41461 10.4106 7.43686C9.97279 7.463 9.56835 7.67945 9.30375 8.02923C9.07854 8.32693 9.03374 8.65596 9.01684 8.8405C8.99991 9.02528 8.99996 9.24797 9 9.46081V14.539C8.99996 14.7519 8.99991 14.9746 9.01684 15.1594C9.03374 15.3439 9.07854 15.6729 9.30375 15.9706C9.56835 16.3204 9.97279 16.5369 10.4106 16.563C10.7832 16.5853 11.0818 16.44 11.2448 16.3517C11.4079 16.2633 11.5932 16.1397 11.7703 16.0216L15.5815 13.4808C15.7259 13.3846 15.8851 13.2785 16.0122 13.1761C16.1483 13.0663 16.3594 12.8755 16.4842 12.5745C16.6368 12.2067 16.6368 11.7932 16.4842 11.4253C16.3594 11.1244 16.1483 10.9336 16.0122 10.8238C15.8851 10.7214 15.726 10.6153 15.5815 10.5191L11.7703 7.97824Z" fill="#0000CC"/>
</svg>
