<svg width="24" height="24" viewBox="0 0 24 24" fill="none" xmlns="http://www.w3.org/2000/svg">
<path fill-rule="evenodd" clip-rule="evenodd" d="M16.5 4C15.9477 4 15.5 3.55228 15.5 3C15.5 2.44772 15.9477 2 16.5 2H21C21.5523 2 22 2.44772 22 3V7.5C22 8.05228 21.5523 8.5 21 8.5C20.4477 8.5 20 8.05228 20 7.5V5.41421L5.41421 20H7.5C8.05228 20 8.5 20.4477 8.5 21C8.5 21.5523 8.05228 22 7.5 22H3C2.73478 22 2.48043 21.8946 2.29289 21.7071C2.10536 21.5196 2 21.2652 2 21L2 16.5C2 15.9477 2.44772 15.5 3 15.5C3.55229 15.5 4 15.9477 4 16.5L4 18.5858L18.5858 4H16.5Z" fill="#0000CC"/>
</svg>
