<svg width="24" height="24" viewBox="0 0 24 24" fill="none" xmlns="http://www.w3.org/2000/svg">
<path fill-rule="evenodd" clip-rule="evenodd" d="M17 4C16.4477 4 16 4.44772 16 5V10.0122C15.9328 9.94052 15.8634 9.87116 15.7926 9.80351C15.4694 9.49487 15.0401 9.1514 14.5351 8.74747L10.1895 5.27096C9.80322 4.96191 9.46117 4.68824 9.17105 4.49643C8.88771 4.30911 8.48669 4.08115 8.00216 4.08063C7.39308 4.07997 6.81689 4.3569 6.43692 4.83292C6.13465 5.2116 6.06214 5.66715 6.03141 6.00542C5.99995 6.35179 5.99997 6.78985 6 7.28453V16.7155C5.99997 17.2102 5.99995 17.6482 6.03141 17.9946C6.06214 18.3329 6.13465 18.7884 6.43692 19.1671C6.81689 19.6431 7.39308 19.92 8.00216 19.9194C8.48669 19.9189 8.88771 19.6909 9.17105 19.5036C9.46117 19.3118 9.80322 19.0381 10.1895 18.729L14.5351 15.2525C15.0401 14.8486 15.4694 14.5051 15.7926 14.1965C15.8634 14.1288 15.9328 14.0595 16 13.9878V19C16 19.5523 16.4477 20 17 20C17.5523 20 18 19.5523 18 19V5C18 4.44772 17.5523 4 17 4Z" fill="#0000CC"/>
</svg>
