<svg width="24" height="24" viewBox="0 0 24 24" fill="none" xmlns="http://www.w3.org/2000/svg">
<path fill-rule="evenodd" clip-rule="evenodd" d="M12 3C12.5523 3 13 3.44772 13 4V8H17C17.5523 8 18 8.44772 18 9C18 9.55228 17.5523 10 17 10H13V14C13 14.5523 12.5523 15 12 15C11.4477 15 11 14.5523 11 14V10H7C6.44772 10 6 9.55228 6 9C6 8.44772 6.44772 8 7 8H11V4C11 3.44772 11.4477 3 12 3ZM6 20C6 19.4477 6.44772 19 7 19H17C17.5523 19 18 19.4477 18 20C18 20.5523 17.5523 21 17 21H7C6.44772 21 6 20.5523 6 20Z" fill="#0000CC"/>
</svg>
