<svg width="24" height="24" viewBox="0 0 24 24" fill="none" xmlns="http://www.w3.org/2000/svg">
<path fill-rule="evenodd" clip-rule="evenodd" d="M12.6137 3.37617C12.9217 3.7175 12.9638 4.14887 12.9803 4.34083C13.0001 4.5722 13 4.86429 13 5.17117V18.8288C13 19.1357 13.0001 19.4277 12.9803 19.6591C12.9638 19.8511 12.9217 20.2825 12.6137 20.6238C12.2792 20.9946 11.7821 21.1745 11.2877 21.1039C10.8326 21.0388 10.5241 20.7344 10.3885 20.5974C10.2252 20.4324 10.0382 20.208 9.84179 19.9722L7.19129 16.7916C6.80395 16.3268 6.72156 16.2404 6.63878 16.1822C6.54301 16.1148 6.43614 16.0647 6.32306 16.0343C6.2253 16.008 6.10625 16 5.50121 16L4.56812 16C4.31574 16 4.06994 16 3.86178 15.983C3.63318 15.9644 3.36345 15.9203 3.09202 15.782C2.7157 15.5902 2.40974 15.2843 2.21799 14.908C2.0797 14.6365 2.03563 14.3668 2.01695 14.1382C1.99994 13.93 1.99997 13.6843 2 13.4319L2.00001 10.6C2.00001 10.5893 2 10.5787 2 10.5681C1.99997 10.3157 1.99994 10.0699 2.01695 9.86175C2.03563 9.63315 2.07969 9.36342 2.21799 9.092C2.40974 8.71567 2.7157 8.40971 3.09202 8.21796C3.36345 8.07967 3.63318 8.0356 3.86178 8.01692C4.06993 7.99991 4.31572 7.99994 4.56811 7.99997C4.57873 7.99998 4.58936 7.99998 4.60001 7.99998H5.50121C6.10625 7.99998 6.2253 7.99194 6.32306 7.96564C6.43614 7.93521 6.54301 7.88516 6.63878 7.81776C6.72156 7.7595 6.80395 7.67319 7.19129 7.20838L9.84182 4.02774C10.0383 3.79197 10.2252 3.56756 10.3886 3.4025C10.5241 3.26556 10.8326 2.96116 11.2877 2.8961C11.7821 2.82542 12.2792 3.0054 12.6137 3.37617ZM17.2549 4.62474C17.6232 4.21322 18.2554 4.1782 18.6669 4.54652C20.7112 6.37616 22 9.03822 22 12C22 14.9617 20.7112 17.6238 18.6669 19.4534C18.2554 19.8218 17.6232 19.7867 17.2549 19.3752C16.8865 18.9637 16.9216 18.3315 17.3331 17.9632C18.9714 16.4969 20 14.3692 20 12C20 9.63074 18.9714 7.50308 17.3331 6.03679C16.9216 5.66847 16.8865 5.03627 17.2549 4.62474ZM15.3998 8.20041C15.8414 7.86872 16.4682 7.95781 16.7999 8.3994C17.5532 9.40229 18 10.6504 18 12C18 13.3496 17.5532 14.5977 16.7999 15.6006C16.4682 16.0421 15.8414 16.1312 15.3998 15.7995C14.9582 15.4679 14.8691 14.841 15.2008 14.3994C15.7029 13.731 16 12.9016 16 12C16 11.0983 15.7029 10.269 15.2008 9.60055C14.8691 9.15897 14.9582 8.5321 15.3998 8.20041Z" fill="#0000CC"/>
</svg>
