<svg width="24" height="24" viewBox="0 0 24 24" fill="none" xmlns="http://www.w3.org/2000/svg">
<path d="M17.1137 3.37605C17.4217 3.71738 17.4638 4.14875 17.4803 4.34071C17.5001 4.57208 17.5 4.86416 17.5 5.17105V18.8287C17.5 19.1355 17.5001 19.4276 17.4803 19.659C17.4638 19.851 17.4217 20.2823 17.1137 20.6237C16.7792 20.9944 16.2821 21.1744 15.7877 21.1037C15.3326 21.0387 15.0241 20.7343 14.8885 20.5973C14.7252 20.4323 14.5382 20.2079 14.3418 19.9721L14.3418 19.972L11.6913 16.7914C11.3039 16.3266 11.2216 16.2403 11.1388 16.1821C11.043 16.1147 10.9361 16.0646 10.8231 16.0342C10.7253 16.0079 10.6063 15.9999 10.0012 15.9999L9.06812 15.9999C8.81574 15.9999 8.56994 15.9999 8.36178 15.9829C8.13318 15.9642 7.86345 15.9202 7.59202 15.7819C7.2157 15.5901 6.90974 15.2842 6.71799 14.9078C6.5797 14.6364 6.53563 14.3667 6.51695 14.1381C6.49994 13.9299 6.49997 13.6841 6.5 13.4318L6.5 13.4318L6.50001 10.5999L6.5 10.568L6.5 10.5679C6.49997 10.3156 6.49994 10.0698 6.51695 9.86162C6.53563 9.63303 6.57969 9.3633 6.71799 9.09187C6.90974 8.71555 7.2157 8.40959 7.59202 8.21784C7.86345 8.07954 8.13318 8.03548 8.36178 8.0168C8.56993 7.99979 8.81572 7.99982 9.06811 7.99985L9.10001 7.99985H10.0012C10.6063 7.99985 10.7253 7.99182 10.8231 7.96552C10.9361 7.93509 11.043 7.88504 11.1388 7.81764C11.2216 7.75938 11.304 7.67307 11.6913 7.20826L14.3418 4.02762L14.3419 4.02758C14.5383 3.79182 14.7252 3.56743 14.8886 3.40238C15.0241 3.26544 15.3326 2.96104 15.7877 2.89598C16.2821 2.8253 16.7792 3.00528 17.1137 3.37605Z" fill="#0000CC"/>
</svg>
