<svg width="24" height="24" viewBox="0 0 24 24" fill="none" xmlns="http://www.w3.org/2000/svg">
<path d="M14.53 15.3104L13.7737 14.7797C13.1322 14.352 12.8114 14.1382 12.4647 14.0551C12.1584 13.9817 11.839 13.9817 11.5326 14.0551C11.1859 14.1382 10.8651 14.352 10.2236 14.7797L9.46751 15.3105M14.53 15.3104L20.5 19.5M14.53 15.3104L20.97 11M3.5 19.5L9.46751 15.3105M9.46751 15.3105L3.02734 11M6 13V6.00003H18V13M10.5 10L9.5 9.50003M13.5 10L14.5 9.50003M8.89078 4.64359L4.69079 8.21458C4.069 8.74324 3.75811 9.00757 3.53474 9.32969C3.33681 9.61511 3.18996 9.93274 3.10071 10.2684C3 10.6472 3 11.0553 3 11.8715V16.2C3 17.8802 3 18.7203 3.32698 19.362C3.6146 19.9265 4.07354 20.3854 4.63803 20.673C5.27976 21 6.11984 21 7.8 21H16.2C17.8802 21 18.7202 21 19.362 20.673C19.9265 20.3854 20.3854 19.9265 20.673 19.362C21 18.7203 21 17.8802 21 16.2V11.8715C21 11.0553 21 10.6472 20.8993 10.2684C20.81 9.93274 20.6632 9.61511 20.4653 9.32969C20.2419 9.00757 19.931 8.74324 19.3092 8.21458L15.1092 4.64359C14.0049 3.70469 13.4528 3.23524 12.8344 3.05618C12.2893 2.89835 11.7107 2.89835 11.1656 3.05618C10.5472 3.23524 9.99507 3.70469 8.89078 4.64359Z" stroke="#0000CC" stroke-width="2" stroke-linecap="round" stroke-linejoin="round"/>
</svg>
