<svg width="24" height="24" viewBox="0 0 24 24" fill="none" xmlns="http://www.w3.org/2000/svg">
<path opacity="0.14" d="M11 21L11 3H17.8C18.9201 3 19.4802 3 19.908 3.21799C20.2843 3.40973 20.5903 3.71569 20.782 4.09202C21 4.51984 21 5.0799 21 6.2V17.8C21 18.9201 21 19.4802 20.782 19.908C20.5903 20.2843 20.2843 20.5903 19.908 20.782C19.4802 21 18.9201 21 17.8 21H11Z" fill="#0000CC"/>
<path d="M11 16L15 12M15 12L11 8M15 12H3M11 3H17.7992C18.9193 3 19.4794 3 19.9072 3.21799C20.2835 3.40973 20.5895 3.71569 20.7812 4.09202C20.9992 4.51984 20.9992 5.0799 20.9992 6.2V17.8C20.9992 18.9201 20.9992 19.4802 20.7812 19.908C20.5895 20.2843 20.2835 20.5903 19.9072 20.782C19.4794 21 18.9193 21 17.7992 21H11" stroke="#0000CC" stroke-width="2" stroke-linecap="round" stroke-linejoin="round"/>
</svg>
