<svg width="24" height="24" viewBox="0 0 24 24" fill="none" xmlns="http://www.w3.org/2000/svg">
<path opacity="0.14" d="M4.65511 9.87604C3.74757 10.6021 3.2938 10.9651 3.12952 11.4036C2.98547 11.7882 2.98547 12.2118 3.12952 12.5964C3.2938 13.0349 3.74757 13.3979 4.65511 14.124L9.40064 17.9204C10.2328 18.5861 10.6489 18.919 10.9991 18.9194C11.3036 18.9197 11.5917 18.7812 11.7817 18.5432C12.0002 18.2696 12.0002 17.7367 12.0002 16.671V7.329C12.0002 6.2633 12.0002 5.73045 11.7817 5.45678C11.5917 5.21876 11.3036 5.0803 10.9991 5.08063C10.6489 5.08101 10.2328 5.41387 9.40064 6.07961L4.65511 9.87604Z" fill="#0000CC"/>
<path d="M3 5V19M12 7.329V16.671C12 17.7367 12 18.2695 11.7815 18.5432C11.5916 18.7812 11.3035 18.9197 10.9989 18.9194C10.6487 18.919 10.2327 18.5861 9.40049 17.9204L5.12347 14.4988C4.05578 13.6446 3.52194 13.2176 3.32866 12.7016C3.1592 12.2492 3.1592 11.7508 3.32866 11.2984C3.52194 10.7824 4.05578 10.3554 5.12348 9.50122L9.40049 6.07961C10.2327 5.41387 10.6487 5.081 10.9989 5.08063C11.3035 5.0803 11.5916 5.21876 11.7815 5.45677C12 5.73045 12 6.2633 12 7.329ZM21 7.329V16.671C21 17.7367 21 18.2695 20.7815 18.5432C20.5916 18.7812 20.3035 18.9197 19.9989 18.9194C19.6487 18.919 19.2327 18.5861 18.4005 17.9204L14.1235 14.4988C13.0558 13.6446 12.5219 13.2176 12.3287 12.7016C12.1592 12.2492 12.1592 11.7508 12.3287 11.2984C12.5219 10.7824 13.0558 10.3554 14.1235 9.50122L18.4005 6.07961C19.2327 5.41387 19.6487 5.081 19.9989 5.08063C20.3035 5.0803 20.5916 5.21876 20.7815 5.45677C21 5.73045 21 6.2633 21 7.329Z" stroke="#0000CC" stroke-width="2" stroke-linecap="round" stroke-linejoin="round"/>
</svg>
