<svg width="24" height="24" viewBox="0 0 24 24" fill="none" xmlns="http://www.w3.org/2000/svg">
<path opacity="0.14" d="M10.1231 9.50122C9.05539 10.3554 8.52155 10.7825 8.32827 11.2984C8.15881 11.7508 8.15881 12.2492 8.32827 12.7016C8.52155 13.2176 9.05539 13.6446 10.1231 14.4988L14.4001 17.9204C15.2323 18.5861 15.6484 18.919 15.9985 18.9194C16.3031 18.9197 16.5912 18.7812 16.7812 18.5432C16.9996 18.2696 16.9996 17.7367 16.9996 16.671V7.329C16.9996 6.2633 16.9996 5.73045 16.7812 5.45678C16.5912 5.21876 16.3031 5.0803 15.9985 5.08063C15.6484 5.08101 15.2323 5.41387 14.4001 6.07961L10.1231 9.50122Z" fill="#0000CC"/>
<path d="M7 5V19M17 7.329V16.671C17 17.7367 17 18.2695 16.7815 18.5432C16.5916 18.7812 16.3035 18.9197 15.9989 18.9194C15.6487 18.919 15.2327 18.5861 14.4005 17.9204L10.1235 14.4988C9.05578 13.6446 8.52194 13.2176 8.32866 12.7016C8.1592 12.2492 8.1592 11.7508 8.32866 11.2984C8.52194 10.7824 9.05578 10.3554 10.1235 9.50122L14.4005 6.07961C15.2327 5.41387 15.6487 5.081 15.9989 5.08063C16.3035 5.0803 16.5916 5.21876 16.7815 5.45677C17 5.73045 17 6.2633 17 7.329Z" stroke="#0000CC" stroke-width="2" stroke-linecap="round" stroke-linejoin="round"/>
</svg>
