<svg width="24" height="24" viewBox="0 0 24 24" fill="none" xmlns="http://www.w3.org/2000/svg">
<path opacity="0.14" d="M8.5 18.5V15.5H5.5L3 18L5 19L6 21L8.5 18.5Z" fill="#0000CC"/>
<path d="M20 7C20 7.55228 20.4477 8 21 8C21.5523 8 22 7.55228 22 7H20ZM21 3H22C22 2.44772 21.5523 2 21 2V3ZM17 2C16.4477 2 16 2.44772 16 3C16 3.55228 16.4477 4 17 4V2ZM13.7071 14.2929C13.3166 13.9024 12.6834 13.9024 12.2929 14.2929C11.9024 14.6834 11.9024 15.3166 12.2929 15.7071L13.7071 14.2929ZM18.2929 21.7071C18.6834 22.0976 19.3166 22.0976 19.7071 21.7071C20.0976 21.3166 20.0976 20.6834 19.7071 20.2929L18.2929 21.7071ZM3.70711 4.29289C3.31658 3.90237 2.68342 3.90237 2.29289 4.29289C1.90237 4.68342 1.90237 5.31658 2.29289 5.70711L3.70711 4.29289ZM8.29289 11.7071C8.68342 12.0976 9.31658 12.0976 9.70711 11.7071C10.0976 11.3166 10.0976 10.6834 9.70711 10.2929L8.29289 11.7071ZM3.38106 5.21456C2.94727 5.5564 2.87273 6.18516 3.21456 6.61894C3.5564 7.05273 4.18516 7.12727 4.61894 6.78544L3.38106 5.21456ZM14.4915 6.30972C14.967 6.59057 15.5802 6.43274 15.861 5.9572C16.1419 5.48165 15.9841 4.86847 15.5085 4.58763L14.4915 6.30972ZM19.4195 8.48771C19.1366 8.0134 18.5227 7.85826 18.0484 8.14119C17.5741 8.42412 17.419 9.03798 17.7019 9.51229L19.4195 8.48771ZM17.2233 19.3724C16.8767 19.8023 16.9442 20.4319 17.3742 20.7785C17.8041 21.1252 18.4337 21.0576 18.7803 20.6277L17.2233 19.3724ZM8.5 18.5L9.20711 19.2071C9.39464 19.0196 9.5 18.7652 9.5 18.5H8.5ZM6 21L5.10557 21.4472C5.24933 21.7347 5.52252 21.9356 5.83982 21.9871C6.15711 22.0386 6.47981 21.9344 6.70711 21.7071L6 21ZM5.5 15.5V14.5C5.23478 14.5 4.98043 14.6054 4.79289 14.7929L5.5 15.5ZM3 18L2.29289 17.2929C2.0656 17.5202 1.96142 17.8429 2.01291 18.1602C2.0644 18.4775 2.26528 18.7507 2.55279 18.8944L3 18ZM5 19L5.89443 18.5528C5.79766 18.3593 5.64074 18.2023 5.44721 18.1056L5 19ZM22 7V3H20V7H22ZM21 2H17V4H21V2ZM9.20711 16.2071L21.7071 3.70711L20.2929 2.29289L7.79289 14.7929L9.20711 16.2071ZM12.2929 15.7071L18.2929 21.7071L19.7071 20.2929L13.7071 14.2929L12.2929 15.7071ZM2.29289 5.70711L8.29289 11.7071L9.70711 10.2929L3.70711 4.29289L2.29289 5.70711ZM4.61894 6.78544C7.28743 4.68261 11.3091 4.43025 14.4915 6.30972L15.5085 4.58763C11.6571 2.31306 6.73529 2.57135 3.38106 5.21456L4.61894 6.78544ZM17.7019 9.51229C19.6079 12.7075 19.3685 16.7115 17.2233 19.3724L18.7803 20.6277C21.4889 17.268 21.7223 12.348 19.4195 8.48771L17.7019 9.51229ZM7.5 15.5V18.5H9.5V15.5H7.5ZM7.79289 17.7929L5.29289 20.2929L6.70711 21.7071L9.20711 19.2071L7.79289 17.7929ZM8.5 14.5H5.5V16.5H8.5V14.5ZM4.79289 14.7929L2.29289 17.2929L3.70711 18.7071L6.20711 16.2071L4.79289 14.7929ZM2.55279 18.8944L4.55279 19.8944L5.44721 18.1056L3.44721 17.1056L2.55279 18.8944ZM4.10557 19.4472L5.10557 21.4472L6.89443 20.5528L5.89443 18.5528L4.10557 19.4472Z" fill="#0000CC"/>
</svg>
