<svg width="24" height="24" viewBox="0 0 24 24" fill="none" xmlns="http://www.w3.org/2000/svg">
<path opacity="0.14" d="M3 11.8C3 11.0665 3 10.493 3.02721 10.0263C3.06233 9.4241 3.14276 8.99959 3.32698 8.63803C3.6146 8.07354 4.07354 7.6146 4.63803 7.32698C5.27976 7 6.11984 7 7.8 7H16.2C17.8802 7 18.7202 7 19.362 7.32698C19.9265 7.6146 20.3854 8.07354 20.673 8.63803C20.8572 8.99959 20.9377 9.4241 20.9728 10.0263C21 10.493 21 11.0665 21 11.8V16.2C21 17.8802 21 18.7202 20.673 19.362C20.3854 19.9265 19.9265 20.3854 19.362 20.673C18.7202 21 17.8802 21 16.2 21H7.8C6.11984 21 5.27976 21 4.63803 20.673C4.07354 20.3854 3.6146 19.9265 3.32698 19.362C3 18.7202 3 17.8802 3 16.2V11.8Z" fill="#0000CC"/>
<path d="M3 12H21M7 12V14M17 12V14M8 7H7.8C6.11984 7 5.27976 7 4.63803 7.32698C4.07354 7.6146 3.6146 8.07354 3.32698 8.63803C3 9.27976 3 10.1198 3 11.8V16.2C3 17.8802 3 18.7202 3.32698 19.362C3.6146 19.9265 4.07354 20.3854 4.63803 20.673C5.27976 21 6.11984 21 7.8 21H16.2C17.8802 21 18.7202 21 19.362 20.673C19.9265 20.3854 20.3854 19.9265 20.673 19.362C21 18.7202 21 17.8802 21 16.2V11.8C21 10.1198 21 9.27976 20.673 8.63803C20.3854 8.07354 19.9265 7.6146 19.362 7.32698C18.7202 7 17.8802 7 16.2 7H16M8 7V6C8 5.06812 8 4.60218 8.15224 4.23463C8.35523 3.74458 8.74458 3.35523 9.23463 3.15224C9.60218 3 10.0681 3 11 3H13C13.9319 3 14.3978 3 14.7654 3.15224C15.2554 3.35523 15.6448 3.74458 15.8478 4.23463C16 4.60218 16 5.06812 16 6V7M8 7H16" stroke="#0000CC" stroke-width="2" stroke-linecap="round" stroke-linejoin="round"/>
</svg>
