<svg width="24" height="24" viewBox="0 0 24 24" fill="none" xmlns="http://www.w3.org/2000/svg">
<path opacity="0.14" d="M3.10901 3.54601C3.00002 3.75992 3.00002 4.03995 3.00002 4.6C3.00002 10.0667 3 21 3 21H7.00002V18C7.00002 16.8954 7.89545 16 9.00002 16C10.1046 16 11 16.8954 11 18V21H15V4.6C15 4.03995 15 3.75992 14.891 3.54601C14.7952 3.35785 14.6422 3.20487 14.454 3.10899C14.2401 3 13.9601 3 13.4 3H4.60002C4.03997 3 3.75994 3 3.54603 3.10899C3.35787 3.20487 3.20489 3.35785 3.10901 3.54601Z" fill="#0000CC"/>
<path d="M6 7H7M6 10H7M11 10H12M11 13H12M6 13H7M11 7H12M7 21V18C7 16.8954 7.89543 16 9 16C10.1046 16 11 16.8954 11 18V21H7ZM7 21H3V4.6C3 4.03995 3 3.75992 3.10899 3.54601C3.20487 3.35785 3.35785 3.20487 3.54601 3.10899C3.75992 3 4.03995 3 4.6 3H13.4C13.9601 3 14.2401 3 14.454 3.10899C14.6422 3.20487 14.7951 3.35785 14.891 3.54601C15 3.75992 15 4.03995 15 4.6V9M19.7 13.5C19.7 14.3284 19.0284 15 18.2 15C17.3716 15 16.7 14.3284 16.7 13.5C16.7 12.6716 17.3716 12 18.2 12C19.0284 12 19.7 12.6716 19.7 13.5ZM21.5 21V20.5C21.5 19.1193 20.3807 18 19 18H17.5C16.1193 18 15 19.1193 15 20.5V21H21.5Z" stroke="#0000CC" stroke-width="2" stroke-linecap="round" stroke-linejoin="round"/>
</svg>
