<svg width="24" height="24" viewBox="0 0 24 24" fill="none" xmlns="http://www.w3.org/2000/svg">
<path opacity="0.14" d="M5.10901 3.54601C5.00002 3.75992 5.00002 4.03995 5.00002 4.6C5.00002 10.0667 5 21 5 21H9.00002V18C9.00002 16.8954 9.89545 16 11 16C12.1046 16 13 16.8954 13 18V21H17V4.6C17 4.03995 17 3.75992 16.891 3.54601C16.7952 3.35785 16.6422 3.20487 16.454 3.10899C16.2401 3 15.9601 3 15.4 3H6.60002C6.03997 3 5.75994 3 5.54603 3.10899C5.35787 3.20487 5.20489 3.35785 5.10901 3.54601Z" fill="#0000CC"/>
<path d="M15 21H13M13 21H9M13 21V18C13 16.8954 12.1046 16 11 16C9.89543 16 9 16.8954 9 18V21M9 21H5V4.6C5 4.03995 5 3.75992 5.10899 3.54601C5.20487 3.35785 5.35785 3.20487 5.54601 3.10899C5.75992 3 6.03995 3 6.6 3H15.4C15.9601 3 16.2401 3 16.454 3.10899C16.6422 3.20487 16.7951 3.35785 16.891 3.54601C17 3.75992 17 4.03995 17 4.6V11.5M8 7H9M8 10H9M13 10H14M13 13H14M8 13H9M13 7H14M19 15V18M19 21H19.01" stroke="#0000CC" stroke-width="2" stroke-linecap="round" stroke-linejoin="round"/>
</svg>
