<svg width="24" height="24" viewBox="0 0 24 24" fill="none" xmlns="http://www.w3.org/2000/svg">
<path opacity="0.14" d="M5 12.2C5 11.0799 5 10.5198 5.21799 10.092C5.40973 9.71569 5.71569 9.40973 6.09202 9.21799C6.51984 9 7.0799 9 8.2 9H15.8C16.9201 9 17.4802 9 17.908 9.21799C18.2843 9.40973 18.5903 9.71569 18.782 10.092C19 10.5198 19 11.0799 19 12.2V17.8C19 18.9201 19 19.4802 18.782 19.908C18.5903 20.2843 18.2843 20.5903 17.908 20.782C17.4802 21 16.9201 21 15.8 21H8.2C7.0799 21 6.51984 21 6.09202 20.782C5.71569 20.5903 5.40973 20.2843 5.21799 19.908C5 19.4802 5 18.9201 5 17.8V12.2Z" fill="#0000CC"/>
<path d="M5 9H19M15 18V15M9 18H9.01M12 18H12.01M12 15H12.01M9 15H9.01M15 12H15.01M12 12H12.01M9 12H9.01M8.2 21H15.8C16.9201 21 17.4802 21 17.908 20.782C18.2843 20.5903 18.5903 20.2843 18.782 19.908C19 19.4802 19 18.9201 19 17.8V6.2C19 5.0799 19 4.51984 18.782 4.09202C18.5903 3.71569 18.2843 3.40973 17.908 3.21799C17.4802 3 16.9201 3 15.8 3H8.2C7.0799 3 6.51984 3 6.09202 3.21799C5.71569 3.40973 5.40973 3.71569 5.21799 4.09202C5 4.51984 5 5.07989 5 6.2V17.8C5 18.9201 5 19.4802 5.21799 19.908C5.40973 20.2843 5.71569 20.5903 6.09202 20.782C6.51984 21 7.07989 21 8.2 21Z" stroke="#0000CC" stroke-width="2" stroke-linecap="round" stroke-linejoin="round"/>
</svg>
