<svg width="24" height="24" viewBox="0 0 24 24" fill="none" xmlns="http://www.w3.org/2000/svg">
<path opacity="0.14" d="M15.5355 11.6983C13.5829 13.4339 10.4171 13.4339 8.46447 11.6983C7.48816 10.8304 7 9.69299 7 8.55556C7 7.41812 7.48815 6.28069 8.46447 5.41285C8.46447 5.41285 8.87503 6.33331 10.125 6.88887C10.125 5.77775 10.4375 4.11109 11.9912 3C13.25 4.11111 14.557 4.54303 15.5355 5.41285C16.5118 6.28069 17 7.41812 17 8.55556C17 9.69299 16.5118 10.8304 15.5355 11.6983Z" fill="#0000CC"/>
<path d="M2.68377 20.0513C2.15983 20.226 1.87667 20.7923 2.05132 21.3162C2.22596 21.8402 2.79228 22.1233 3.31623 21.9487L2.68377 20.0513ZM21.3162 15.9487C21.8402 15.774 22.1233 15.2077 21.9487 14.6838C21.774 14.1598 21.2077 13.8767 20.6838 14.0513L21.3162 15.9487ZM3.31623 14.0513C2.79228 13.8767 2.22596 14.1598 2.05132 14.6838C1.87667 15.2077 2.15983 15.774 2.68377 15.9487L3.31623 14.0513ZM20.6838 21.9487C21.2077 22.1233 21.774 21.8402 21.9487 21.3162C22.1233 20.7923 21.8402 20.226 21.3162 20.0513L20.6838 21.9487ZM15.5355 11.6983L14.8712 10.9508V10.9508L15.5355 11.6983ZM8.46447 11.6983L9.12883 10.9508V10.9508L8.46447 11.6983ZM8.46447 5.41285L9.37774 5.0055C9.24785 4.71429 8.98687 4.50249 8.67517 4.4353C8.36347 4.36812 8.03842 4.45361 7.8001 4.66544L8.46447 5.41285ZM15.5355 5.41285L16.1999 4.66544L15.5355 5.41285ZM7 8.55556L6 8.55556L7 8.55556ZM17 8.55556L18 8.55556L17 8.55556ZM11.9912 3L12.6529 2.25028C12.3038 1.94213 11.7882 1.91573 11.4095 2.1866L11.9912 3ZM10.125 6.88887L9.71889 7.80268C10.0282 7.94016 10.3861 7.91182 10.6699 7.72736C10.9538 7.5429 11.125 7.22737 11.125 6.88887H10.125ZM3.31623 21.9487L21.3162 15.9487L20.6838 14.0513L2.68377 20.0513L3.31623 21.9487ZM2.68377 15.9487L20.6838 21.9487L21.3162 20.0513L3.31623 14.0513L2.68377 15.9487ZM14.8712 10.9508C13.2974 12.3497 10.7026 12.3497 9.12883 10.9508L7.8001 12.4457C10.1316 14.5181 13.8684 14.5181 16.1999 12.4457L14.8712 10.9508ZM9.12883 10.9508C8.35949 10.267 8 9.39875 8 8.55556L6 8.55556C6 9.98723 6.61682 11.3939 7.8001 12.4457L9.12883 10.9508ZM8 8.55556C8 7.71236 8.35949 6.84412 9.12883 6.16026L7.8001 4.66544C6.61682 5.71725 6 7.12388 6 8.55556L8 8.55556ZM14.8712 6.16026C15.6405 6.84412 16 7.71236 16 8.55556L18 8.55556C18 7.12388 17.3832 5.71725 16.1999 4.66544L14.8712 6.16026ZM16 8.55556C16 9.39875 15.6405 10.267 14.8712 10.9508L16.1999 12.4457C17.3832 11.3939 18 9.98723 18 8.55556L16 8.55556ZM11.3294 3.74972C12.0376 4.37478 12.7529 4.80201 13.3626 5.15954C13.9964 5.53117 14.4711 5.80466 14.8712 6.16026L16.1999 4.66544C15.6214 4.15122 14.9534 3.77384 14.3743 3.43428C13.7712 3.08062 13.2036 2.73633 12.6529 2.25028L11.3294 3.74972ZM8.46447 5.41285C7.5512 5.82021 7.55138 5.82062 7.55156 5.82103C7.55163 5.82117 7.55181 5.82159 7.55194 5.82187C7.5522 5.82244 7.55246 5.82303 7.55273 5.82363C7.55327 5.82483 7.55384 5.82608 7.55443 5.8274C7.55563 5.83003 7.55694 5.83289 7.55838 5.83599C7.56124 5.84217 7.56459 5.84927 7.56843 5.85724C7.57611 5.87318 7.58577 5.89264 7.59755 5.91526C7.62109 5.96047 7.65317 6.01855 7.69479 6.08669C7.77792 6.22276 7.90003 6.40043 8.0694 6.59641C8.40942 6.98984 8.9397 7.45637 9.71889 7.80268L10.5312 5.97506C10.0604 5.76581 9.76036 5.49433 9.58259 5.28865C9.49307 5.18506 9.43442 5.0979 9.4015 5.04402C9.38511 5.01719 9.37534 4.99901 9.37155 4.99172C9.36966 4.98809 9.36928 4.98722 9.37034 4.98941C9.37086 4.9905 9.37175 4.99237 9.37299 4.99504C9.3736 4.99637 9.37431 4.99791 9.3751 4.99965C9.3755 5.00052 9.37592 5.00144 9.37635 5.00242C9.37657 5.0029 9.3768 5.0034 9.37703 5.00392C9.37714 5.00417 9.37732 5.00457 9.37738 5.0047C9.37756 5.0051 9.37774 5.0055 8.46447 5.41285ZM11.125 6.88887C11.125 5.93401 11.3929 4.65727 12.5729 3.8134L11.4095 2.1866C9.48217 3.56491 9.12503 5.6215 9.12503 6.88887H11.125Z" fill="#0000CC"/>
</svg>
