<svg width="24" height="24" viewBox="0 0 24 24" fill="none" xmlns="http://www.w3.org/2000/svg">
<path opacity="0.14" d="M3 7.12067L13.199 3L15.5 8.69512V6H17H21V21H15.5V18.2391L8.6191 21L3 7.12067Z" fill="#0000CC"/>
<path d="M3 7.12067L2.62539 6.19349C2.37937 6.29289 2.18295 6.48599 2.07936 6.73027C1.97577 6.97455 1.97351 7.24999 2.07308 7.49594L3 7.12067ZM13.199 3L14.1262 2.62539C13.9193 2.11332 13.3365 1.86593 12.8244 2.07282L13.199 3ZM18.8181 16.9078L19.1905 17.8358C19.437 17.7369 19.6341 17.544 19.7382 17.2996C19.8422 17.0552 19.8448 16.7794 19.7453 16.5332L18.8181 16.9078ZM8.6191 21L7.69218 21.3753C7.89898 21.8861 8.48004 22.1333 8.99148 21.9281L8.6191 21ZM10.9159 12.0384L11.3243 11.1255C11.0761 11.0145 10.7934 11.0093 10.5413 11.1112C10.2892 11.213 10.0895 11.4131 9.98808 11.6654L10.9159 12.0384ZM8.27452 11.3261L9.21911 11.6543L8.27452 11.3261ZM9.59529 8.7697L9.86817 7.80765C9.42855 7.68295 8.96032 7.87213 8.7307 8.26722L9.59529 8.7697ZM10.4535 14.8941C9.94145 15.101 9.69405 15.6838 9.90094 16.1959C10.1078 16.708 10.6907 16.9554 11.2027 16.7485L10.4535 14.8941ZM13.9843 15.6247C14.4964 15.4178 14.7437 14.8349 14.5369 14.3229C14.33 13.8108 13.7471 13.5634 13.2351 13.7703L13.9843 15.6247ZM21 6H22C22 5.44772 21.5523 5 21 5V6ZM21 21V22C21.5523 22 22 21.5523 22 21H21ZM17 5C16.4477 5 16 5.44772 16 6C16 6.55228 16.4477 7 17 7V5ZM15.5 20C14.9477 20 14.5 20.4477 14.5 21C14.5 21.5523 14.9477 22 15.5 22V20ZM3.37461 8.04786L13.5736 3.92718L12.8244 2.07282L2.62539 6.19349L3.37461 8.04786ZM12.2718 3.37461L17.8909 17.2824L19.7453 16.5332L14.1262 2.62539L12.2718 3.37461ZM18.4457 15.9797L8.24672 20.0719L8.99148 21.9281L19.1905 17.8358L18.4457 15.9797ZM9.54602 20.6247L3.92692 6.74541L2.07308 7.49594L7.69218 21.3753L9.54602 20.6247ZM9.98808 11.6654C9.88281 11.9273 9.63606 12.0337 9.4302 11.9777L8.90528 13.9075C10.2171 14.2644 11.4113 13.4872 11.8438 12.4113L9.98808 11.6654ZM9.4302 11.9777C9.29342 11.9405 9.24057 11.8757 9.22138 11.8407C9.20305 11.8073 9.186 11.7496 9.21911 11.6543L7.32992 10.9978C6.88413 12.2807 7.61828 13.5575 8.90528 13.9075L9.4302 11.9777ZM11.8697 10.5834C11.9635 10.6309 11.9932 10.6874 12.0032 10.7234C12.0128 10.7582 12.0208 10.8349 11.9493 10.9513L13.6538 11.9976C14.3685 10.8334 13.9705 9.40489 12.7727 8.79883L11.8697 10.5834ZM11.9493 10.9513C11.8248 11.1541 11.5728 11.2367 11.3243 11.1255L10.5076 12.9512C11.5751 13.4287 12.9497 13.1448 13.6538 11.9976L11.9493 10.9513ZM9.21911 11.6543C9.30964 11.3938 9.59596 10.83 9.9054 10.2609C10.0515 9.99218 10.1906 9.74425 10.2932 9.56325C10.3445 9.47289 10.3865 9.39955 10.4155 9.34905C10.43 9.32381 10.4413 9.30429 10.4488 9.29123C10.4526 9.2847 10.4555 9.27979 10.4573 9.27658C10.4583 9.27498 10.4589 9.2738 10.4594 9.27306C10.4596 9.27269 10.4597 9.27243 10.4598 9.27229C10.4599 9.27221 10.4599 9.27216 10.4599 9.27215C10.4599 9.27214 10.4599 9.27214 10.4599 9.27214C10.4599 9.27215 10.4599 9.27217 9.59529 8.7697C8.7307 8.26722 8.73068 8.26725 8.73066 8.26729C8.73064 8.26732 8.73061 8.26737 8.73059 8.26741C8.73053 8.26751 8.73046 8.26763 8.73037 8.26778C8.7302 8.26808 8.72996 8.26849 8.72965 8.26902C8.72905 8.27006 8.72818 8.27155 8.72707 8.27347C8.72485 8.27731 8.72162 8.28287 8.71746 8.29007C8.70914 8.30446 8.69706 8.3254 8.68168 8.35213C8.65095 8.40559 8.607 8.48235 8.55359 8.57651C8.44693 8.76455 8.30177 9.02337 8.14835 9.30551C7.85872 9.83817 7.48466 10.5525 7.32992 10.9978L9.21911 11.6543ZM9.59529 8.7697C9.32241 9.73174 9.32238 9.73174 9.32237 9.73173C9.32237 9.73173 9.32237 9.73173 9.32238 9.73173C9.3224 9.73174 9.32245 9.73175 9.32253 9.73178C9.3227 9.73182 9.32298 9.73191 9.32339 9.73202C9.32422 9.73226 9.32552 9.73263 9.32731 9.73314C9.33087 9.73415 9.33633 9.73571 9.34358 9.73778C9.35809 9.74193 9.37975 9.74815 9.40772 9.75622C9.46369 9.77238 9.54484 9.79596 9.64448 9.82536C9.84406 9.88424 10.1163 9.966 10.4081 10.0578C11.026 10.2522 11.6236 10.4589 11.8697 10.5834L12.7727 8.79883C12.352 8.586 11.5867 8.33197 11.0083 8.15C10.702 8.05362 10.4178 7.96827 10.2104 7.9071C10.1066 7.87647 10.0217 7.85179 9.96242 7.83468C9.93279 7.82613 9.90956 7.81946 9.89357 7.81489C9.88558 7.81261 9.8794 7.81084 9.87513 7.80963C9.87299 7.80902 9.87134 7.80855 9.87017 7.80822C9.86959 7.80805 9.86913 7.80792 9.8688 7.80783C9.86863 7.80778 9.8685 7.80774 9.86839 7.80771C9.86834 7.8077 9.86828 7.80768 9.86826 7.80767C9.86821 7.80766 9.86817 7.80765 9.59529 8.7697ZM11.2027 16.7485L13.9843 15.6247L13.2351 13.7703L10.4535 14.8941L11.2027 16.7485ZM20 6V21H22V6H20ZM17 7H21V5H17V7ZM21 20H15.5V22H21V20Z" fill="#0000CC"/>
</svg>
