<svg width="24" height="24" viewBox="0 0 24 24" fill="none" xmlns="http://www.w3.org/2000/svg">
<path opacity="0.14" d="M3 7.12067L13.199 3L15.5 8.69512V6H17H21V21H15.5V18.2391L8.6191 21L3 7.12067Z" fill="#0000CC"/>
<path d="M3 7.12067L2.62539 6.19349C2.37937 6.29289 2.18295 6.48599 2.07936 6.73027C1.97577 6.97455 1.97351 7.24999 2.07308 7.49594L3 7.12067ZM13.199 3L14.1262 2.62539C13.9193 2.11332 13.3365 1.86593 12.8244 2.07282L13.199 3ZM18.8181 16.9078L19.1905 17.8358C19.437 17.7369 19.6341 17.544 19.7382 17.2996C19.8422 17.0552 19.8448 16.7794 19.7453 16.5332L18.8181 16.9078ZM8.6191 21L7.69218 21.3753C7.89898 21.8861 8.48004 22.1333 8.99148 21.9281L8.6191 21ZM21 6H22C22 5.44772 21.5523 5 21 5V6ZM21 21V22C21.5523 22 22 21.5523 22 21H21ZM17 5C16.4477 5 16 5.44772 16 6C16 6.55228 16.4477 7 17 7V5ZM15.5 20C14.9477 20 14.5 20.4477 14.5 21C14.5 21.5523 14.9477 22 15.5 22V20ZM3.37461 8.04786L13.5736 3.92718L12.8244 2.07282L2.62539 6.19349L3.37461 8.04786ZM12.2718 3.37461L17.8909 17.2824L19.7453 16.5332L14.1262 2.62539L12.2718 3.37461ZM18.4457 15.9797L8.24672 20.0719L8.99148 21.9281L19.1905 17.8358L18.4457 15.9797ZM9.54602 20.6247L3.92692 6.74541L2.07308 7.49594L7.69218 21.3753L9.54602 20.6247ZM20 6V21H22V6H20ZM17 7H21V5H17V7ZM21 20H15.5V22H21V20Z" fill="#0000CC"/>
</svg>
