<svg width="24" height="24" viewBox="0 0 24 24" fill="none" xmlns="http://www.w3.org/2000/svg">
<path opacity="0.14" d="M3 21L8.29024 9.75825C9.6093 6.95526 13.3095 6.30951 15.5 8.50002C17.6905 10.6905 17.0448 14.3907 14.2418 15.7098L3 21Z" fill="#0000CC"/>
<path d="M8.13281 10.0887L9.49811 11.5M8.49811 16.5L9.81502 17.792M15.5 8.5C13.3095 6.30949 9.6093 6.95524 8.29024 9.75823L3 21L14.2418 15.7098C17.0448 14.3907 17.6905 10.6905 15.5 8.5ZM15.5 8.5C14.2372 7.23716 14.147 5.21867 15.292 3.84814L16.0007 3L16.4339 3.43327C16.9735 3.9728 17.4051 4.61029 17.7058 5.31157L18.001 6L18.6888 6.29484C19.3903 6.59552 20.0279 7.02726 20.5676 7.56692L21.0007 8L20.1472 8.71084C18.7764 9.85246 16.7614 9.76138 15.5 8.5Z" stroke="#0000CC" stroke-width="2" stroke-linecap="round" stroke-linejoin="round"/>
</svg>
