<svg width="24" height="24" viewBox="0 0 24 24" fill="none" xmlns="http://www.w3.org/2000/svg">
<g opacity="0.14">
<path d="M9.14286 19L8 21H16L14.8571 19H9.14286Z" fill="#0000CC"/>
<path d="M9 16L9.9978 12C8.49965 11 7.96198 9.75695 7.99776 8.5C8.06062 6.29131 10.0002 4.5 11.998 3C13.9958 4.5 15.9316 6.29131 15.9944 8.5C16.0302 9.75695 15.4981 11 14 12L15 16H9Z" fill="#0000CC"/>
</g>
<path d="M9 16L9.9978 12C8.49965 11 7.96198 9.75695 7.99776 8.5C8.06062 6.29131 9.99861 4.5 11.9964 3M15 16L14 12M14 12C15.4981 11 16.0302 9.75695 15.9944 8.5C15.9316 6.29131 13.9958 4.5 11.998 3M14 12H16M14 12H8M11.998 3H10M11.998 3H14M13 7.00004L14.6311 5.3689M8 21L9.14286 19H14.8571L16 21H8Z" stroke="#0000CC" stroke-width="2" stroke-linecap="round" stroke-linejoin="round"/>
</svg>
