<svg width="24" height="24" viewBox="0 0 24 24" fill="none" xmlns="http://www.w3.org/2000/svg">
<g opacity="0.14">
<path d="M9.14286 19L8 21H16L14.8571 19H9.14286Z" fill="#0000CC"/>
<path d="M9.18853 11.9731C9.82123 11.3761 10.7887 10.597 11.384 10C10.7257 10.6577 9.85175 11.3154 9.18853 11.9731Z" fill="#0000CC"/>
<path d="M11.384 10C10.7887 10.597 9.82123 11.3761 9.18853 11.9731C8.84336 12.3154 8.55526 12.6577 8.38431 13C7.86085 14.0481 7.88281 15 8.38431 16L15 16C16.5 12.5 18 11.5 18 7.99997C18 4.99996 15 2.99998 13 3H6L8 5C6 6 6 6 6 9.51328C6 11.9224 8.3552 12.5472 9.18853 11.9731C9.85175 11.3154 10.7257 10.6577 11.384 10Z" fill="#0000CC"/>
</g>
<path d="M8 21L7.13176 20.5039C6.9549 20.8134 6.95617 21.1936 7.13509 21.5019C7.31401 21.8102 7.64353 22 8 22V21ZM9.14286 19V18C8.784 18 8.45266 18.1923 8.27461 18.5039L9.14286 19ZM14.8571 19L15.7254 18.5039C15.5473 18.1923 15.216 18 14.8571 18V19ZM16 21V22C16.3565 22 16.686 21.8102 16.8649 21.5019C17.0438 21.1936 17.0451 20.8134 16.8682 20.5039L16 21ZM11.384 10L12.0921 10.7061C12.4818 10.3153 12.4812 9.68264 12.0908 9.29256C11.7003 8.90248 11.0677 8.90248 10.6772 9.29256L11.384 10ZM8 5L8.44721 5.89443C8.73472 5.75067 8.9356 5.47748 8.98709 5.16018C9.03858 4.84289 8.9344 4.52019 8.70711 4.29289L8 5ZM6 3V2C5.59554 2 5.2309 2.24364 5.07612 2.61732C4.92134 2.99099 5.0069 3.42111 5.29289 3.70711L6 3ZM7.49042 16.4483C7.738 16.942 8.33891 17.1415 8.83259 16.8939C9.32628 16.6463 9.52578 16.0454 9.2782 15.5517L7.49042 16.4483ZM8.38431 13L9.27894 13.4468L8.38431 13ZM14.0809 15.6061C13.8633 16.1137 14.0985 16.7016 14.6061 16.9191C15.1137 17.1367 15.7016 16.9015 15.9191 16.3939L14.0809 15.6061ZM13 3V4H13L13 3ZM10 6C9.44772 6 9 6.44772 9 7C9 7.55228 9.44772 8 10 8V6ZM10.009 8C10.5613 8 11.009 7.55228 11.009 7C11.009 6.44772 10.5613 6 10.009 6V8ZM8.86824 21.4961L10.0111 19.4961L8.27461 18.5039L7.13176 20.5039L8.86824 21.4961ZM9.14286 20H14.8571V18H9.14286V20ZM13.9889 19.4961L15.1318 21.4961L16.8682 20.5039L15.7254 18.5039L13.9889 19.4961ZM8 22H16V20H8V22ZM9.87484 12.7004C10.1724 12.4196 10.5516 12.0934 10.9567 11.7409C11.3482 11.4003 11.7655 11.0337 12.0921 10.7061L10.6759 9.2939C10.4072 9.56338 10.0431 9.8848 9.64384 10.2322C9.25817 10.5678 8.83735 10.9296 8.50222 11.2458L9.87484 12.7004ZM8.62123 11.1496C8.64886 11.1306 8.58428 11.1799 8.38454 11.1708C8.20224 11.1624 7.98033 11.1062 7.76798 10.9881C7.37799 10.7711 7 10.339 7 9.51328H5C5 11.0967 5.79961 12.1816 6.79555 12.7357C7.27616 13.0031 7.79931 13.1461 8.29298 13.1687C8.76921 13.1905 9.31153 13.1027 9.75582 12.7966L8.62123 11.1496ZM7 9.51328C7 8.62203 7.00045 7.99956 7.02938 7.52774C7.05864 7.05039 7.11315 6.83462 7.16425 6.7193C7.19753 6.64421 7.24379 6.57282 7.41455 6.45411C7.62304 6.30917 7.92213 6.15697 8.44721 5.89443L7.55279 4.10557C7.07787 4.34303 6.62696 4.56583 6.27295 4.81193C5.88121 5.08426 5.55247 5.41995 5.33575 5.90902C5.13685 6.35786 5.06636 6.86334 5.03312 7.40534C4.99955 7.95288 5 8.6479 5 9.51328H7ZM8.70711 4.29289L6.70711 2.29289L5.29289 3.70711L7.29289 5.70711L8.70711 4.29289ZM9.2782 15.5517C8.91475 14.827 8.89937 14.2068 9.27894 13.4468L7.48968 12.5532C6.82234 13.8894 6.85088 15.173 7.49042 16.4483L9.2782 15.5517ZM9.27894 13.4468C9.37685 13.2508 9.5734 12.9998 9.89267 12.6832L8.48438 11.2631C8.11332 11.631 7.73367 12.0647 7.48968 12.5532L9.27894 13.4468ZM9.89267 12.6832C10.1935 12.3848 10.5483 12.0806 10.9389 11.7458C11.3166 11.4221 11.7297 11.0681 12.0908 10.7074L10.6772 9.29256C10.3799 9.58959 10.027 9.89331 9.63732 10.2273C9.26051 10.5503 8.84675 10.9037 8.48438 11.2631L9.89267 12.6832ZM15.9191 16.3939C16.2766 15.5599 16.635 14.8722 16.9782 14.2467C17.3125 13.6377 17.6645 13.0321 17.9569 12.4472C18.5768 11.2074 19 9.93004 19 7.99997H17C17 9.56988 16.6732 10.5425 16.1681 11.5528C15.898 12.0929 15.5938 12.6123 15.2249 13.2845C14.865 13.9402 14.4734 14.6901 14.0809 15.6061L15.9191 16.3939ZM19 7.99997C19 6.14524 18.07 4.63871 16.9085 3.6224C15.7659 2.62263 14.2902 1.99999 13 2L13 4C13.7098 3.99999 14.7341 4.37733 15.5915 5.12755C16.43 5.86123 17 6.85469 17 7.99997H19ZM6 4H13V2H6V4ZM10 8H10.009V6H10V8Z" fill="#0000CC"/>
</svg>
