<svg width="24" height="24" viewBox="0 0 24 24" fill="none" xmlns="http://www.w3.org/2000/svg">
<g opacity="0.14">
<path d="M9.14286 18L8 20H16L14.8571 18H9.14286Z" fill="#0000CC"/>
<path d="M15 7C15 8.65685 13.6569 10 12 10C10.3431 10 9 8.65685 9 7C9 5.34315 10.3431 4 12 4C13.6569 4 15 5.34315 15 7Z" fill="#0000CC"/>
<path d="M10 10L9 15H15L14 10H12H10Z" fill="#0000CC"/>
</g>
<path d="M8 20L7.13176 19.5039C6.9549 19.8134 6.95617 20.1936 7.13509 20.5019C7.31401 20.8102 7.64353 21 8 21V20ZM9.14286 18V17C8.784 17 8.45266 17.1923 8.27461 17.5039L9.14286 18ZM14.8571 18L15.7254 17.5039C15.5473 17.1923 15.216 17 14.8571 17V18ZM16 20V21C16.3565 21 16.686 20.8102 16.8649 20.5019C17.0438 20.1936 17.0451 19.8134 16.8682 19.5039L16 20ZM8.01942 14.8039C7.91111 15.3454 8.26232 15.8723 8.80388 15.9806C9.34544 16.0889 9.87227 15.7377 9.98058 15.1961L8.01942 14.8039ZM14.0194 15.1961C14.1277 15.7377 14.6546 16.0889 15.1961 15.9806C15.7377 15.8723 16.0889 15.3454 15.9806 14.8039L14.0194 15.1961ZM8 9C7.44772 9 7 9.44772 7 10C7 10.5523 7.44772 11 8 11V9ZM16 11C16.5523 11 17 10.5523 17 10C17 9.44772 16.5523 9 16 9V11ZM8.86824 20.4961L10.0111 18.4961L8.27461 17.5039L7.13176 19.5039L8.86824 20.4961ZM9.14286 19H14.8571V17H9.14286V19ZM13.9889 18.4961L15.1318 20.4961L16.8682 19.5039L15.7254 17.5039L13.9889 18.4961ZM8 21H16V19H8V21ZM9.98058 15.1961L10.9806 10.1961L9.01942 9.80388L8.01942 14.8039L9.98058 15.1961ZM15.9806 14.8039L14.9806 9.80388L13.0194 10.1961L14.0194 15.1961L15.9806 14.8039ZM14 7C14 8.10457 13.1046 9 12 9V11C14.2091 11 16 9.20914 16 7H14ZM12 9C10.8954 9 10 8.10457 10 7H8C8 9.20914 9.79086 11 12 11V9ZM10 7C10 5.89543 10.8954 5 12 5V3C9.79086 3 8 4.79086 8 7H10ZM12 5C13.1046 5 14 5.89543 14 7H16C16 4.79086 14.2091 3 12 3V5ZM8 11H10V9H8V11ZM10 11H14V9H10V11ZM14 11H16V9H14V11ZM14 9H12V11H14V9ZM12 9H10V11H12V9Z" fill="#0000CC"/>
</svg>
