<svg width="24" height="24" viewBox="0 0 24 24" fill="none" xmlns="http://www.w3.org/2000/svg">
<circle opacity="0.14" cx="12" cy="12" r="9" fill="#0000CC"/>
<path d="M21 12C21 16.9706 16.9706 21 12 21C7.02944 21 3 16.9706 3 12C3 7.02944 7.02944 3 12 3C16.9706 3 21 7.02944 21 12Z" stroke="#0000CC" stroke-width="2" stroke-linecap="round" stroke-linejoin="round"/>
<path d="M15.5 12C15.5 13.25 15.3194 14.0172 15 14.7778C14.3989 16.2092 13.2727 17 12 17C10.7273 17 9.61404 16.1178 9 14.7778C8.63593 13.9833 8.5 13.25 8.5 12C8.5 10.75 8.63593 10.0167 9 9.22222C9.61404 7.88224 10.7273 7 12 7C13.2727 7 14.386 7.88224 15 9.22222C15.3641 10.0167 15.5 10.75 15.5 12Z" stroke="#0000CC" stroke-width="2" stroke-linecap="round" stroke-linejoin="round"/>
</svg>
