<svg width="24" height="24" viewBox="0 0 24 24" fill="none" xmlns="http://www.w3.org/2000/svg">
<circle opacity="0.14" cx="12" cy="12" r="9" fill="#0000CC"/>
<path d="M9 6C8.44772 6 8 6.44772 8 7C8 7.55228 8.44772 8 9 8V6ZM15 7L15.7809 7.62469C16.021 7.32452 16.0678 6.91328 15.9013 6.56681C15.7348 6.22035 15.3844 6 15 6V7ZM11 12L10.2191 11.3753C9.979 11.6755 9.93218 12.0867 10.0987 12.4332C10.2652 12.7797 10.6156 13 11 13V12ZM10 15.0556C10 14.5033 9.55228 14.0556 9 14.0556C8.44772 14.0556 8 14.5033 8 15.0556H10ZM9 8H15V6H9V8ZM14.2191 6.3753L10.2191 11.3753L11.7809 12.6247L15.7809 7.62469L14.2191 6.3753ZM12.5 16H10.9444V18H12.5V16ZM11 13H12.5V11H11V13ZM10.9444 16C10.4228 16 10 15.5772 10 15.0556H8C8 16.6817 9.31827 18 10.9444 18V16ZM14 14.5C14 15.3284 13.3284 16 12.5 16V18C14.433 18 16 16.433 16 14.5H14ZM16 14.5C16 12.567 14.433 11 12.5 11V13C13.3284 13 14 13.6716 14 14.5H16ZM20 12C20 16.4183 16.4183 20 12 20V22C17.5228 22 22 17.5228 22 12H20ZM12 20C7.58172 20 4 16.4183 4 12H2C2 17.5228 6.47715 22 12 22V20ZM4 12C4 7.58172 7.58172 4 12 4V2C6.47715 2 2 6.47715 2 12H4ZM12 4C16.4183 4 20 7.58172 20 12H22C22 6.47715 17.5228 2 12 2V4Z" fill="#0000CC"/>
</svg>
