<svg width="24" height="24" viewBox="0 0 24 24" fill="none" xmlns="http://www.w3.org/2000/svg">
<circle opacity="0.14" cx="12" cy="12" r="9" fill="#0000CC"/>
<path d="M12.25 11.5H11.75M12.25 11.5C13.7688 11.5 15 12.7312 15 14.25C15 15.7688 13.7688 17 12.25 17H11.75C10.2312 17 9 15.7688 9 14.25C9 12.7312 10.2312 11.5 11.75 11.5M12.25 11.5C13.4926 11.5 14.5 10.4926 14.5 9.25C14.5 8.00736 13.4926 7 12.25 7H11.75C10.5074 7 9.5 8.00736 9.5 9.25C9.5 10.4926 10.5074 11.5 11.75 11.5M21 12C21 16.9706 16.9706 21 12 21C7.02944 21 3 16.9706 3 12C3 7.02944 7.02944 3 12 3C16.9706 3 21 7.02944 21 12Z" stroke="#0000CC" stroke-width="2" stroke-linecap="round"/>
</svg>
