<svg width="24" height="24" viewBox="0 0 24 24" fill="none" xmlns="http://www.w3.org/2000/svg">
<path opacity="0.14" fill-rule="evenodd" clip-rule="evenodd" d="M21 12C21 16.9706 16.9706 21 12 21C7.02944 21 3 16.9706 3 12C3 7.02944 7.02944 3 12 3C13.7484 3 15.3804 3.49856 16.7615 4.36127L16.7471 4.37966C16.3672 4.86573 16 5.4624 16 6.01752C16 7.6647 17.3431 9 19 9C19.4827 9 19.9387 8.88668 20.3427 8.68534L20.3654 8.67389C20.7749 9.70282 21 10.8251 21 12ZM8 12V13.8C8 14.9201 8 15.4802 8.21799 15.908C8.40973 16.2843 8.71569 16.5903 9.09202 16.782C9.51984 17 10.0799 17 11.2 17H13C13.9319 17 14.3978 17 14.7654 16.8478C15.2554 16.6448 15.6448 16.2554 15.8478 15.7654C16 15.3978 16 14.9319 16 14V12H8Z" fill="#0000CC"/>
<path d="M14 12H8V13.8C8 14.9201 8 15.4802 8.21799 15.908C8.40973 16.2843 8.71569 16.5903 9.09202 16.782C9.51984 17 10.0799 17 11.2 17H13C13.9319 17 14.3978 17 14.7654 16.8478C15.2554 16.6448 15.6448 16.2554 15.8478 15.7654C16 15.3978 16 14.9319 16 14V12H14ZM14 12V9M10 9V12M12 21V17M12 21C7.02944 21 3 16.9706 3 12C3 7.02944 7.02944 3 12 3C12.1678 3 12.3345 3.00459 12.5 3.01365M12 21C16.6326 21 20.4476 17.5 20.9451 13M22 6.01752C22 7.6647 20.6569 9 19 9C17.3431 9 16 7.6647 16 6.01752C16 5.26112 16.6817 4.42759 17.1484 3.90182C17.6981 3.28265 18.9912 2 18.9912 2C18.9912 2 20.3487 3.28265 20.8984 3.90182C21.3652 4.42759 22 5.26112 22 6.01752Z" stroke="#0000CC" stroke-width="2" stroke-linecap="round" stroke-linejoin="round"/>
</svg>
