<svg width="24" height="24" viewBox="0 0 24 24" fill="none" xmlns="http://www.w3.org/2000/svg">
<path d="M19.9381 11C19.979 11.3276 20 11.6613 20 12C20 16.4183 16.4183 20 12 20C7.58172 20 4 16.4183 4 12C4 7.58172 7.58172 4 12 4C13.159 4 14.2605 4.24648 15.2548 4.68988M15.2548 4.68988C15.4625 4.52976 15.6975 4.40251 15.9608 4.31688C16.7194 4.07017 17.8537 3.92055 18.8362 4.04435C19.5786 4.13791 20.0248 4.8609 19.8487 5.58819C19.6006 6.61279 19.0336 7.55759 18.0392 7.7511C17.3179 7.89149 16.1554 8.05939 15.1743 7.97921C14.4285 7.91825 13.9705 7.20522 14.1604 6.48143C14.3491 5.7627 14.7073 5.11204 15.2548 4.68988Z" stroke="#0000CC" stroke-width="2" stroke-linecap="round"/>
<path opacity="0.14" d="M14.1994 4.30612C13.5006 4.10675 12.7628 4 12 4C7.58172 4 4 7.58172 4 12C4 16.4183 7.58172 20 12 20C16.4183 20 20 16.4183 20 12C20 10.7003 19.69 9.47291 19.14 8.38784C18.874 8.54631 18.5721 8.66616 18.2302 8.73269C17.4843 8.87786 16.2134 9.06747 15.0929 8.97588C13.6681 8.85944 12.8608 7.4943 13.1932 6.2276C13.3706 5.55169 13.6928 4.85947 14.1994 4.30612Z" fill="#0000CC"/>
</svg>
