<svg width="24" height="24" viewBox="0 0 24 24" fill="none" xmlns="http://www.w3.org/2000/svg">
<path opacity="0.14" fill-rule="evenodd" clip-rule="evenodd" d="M8.4 19C5.41766 19 3 16.6044 3 13.6493C3 11.2001 4.8 8.9375 7.5 8.5C8.34694 6.48637 10.3514 5 12.6893 5C15.684 5 18.1317 7.32251 18.3 10.25C19.8893 10.9449 21 12.6503 21 14.4969C21 16.9839 18.9853 19 16.5 19L8.4 19ZM14.3827 15.4239C14.1989 15.5 13.9659 15.5 13.5 15.5H10.5C10.0341 15.5 9.80109 15.5 9.61732 15.4239C9.37229 15.3224 9.17761 15.1277 9.07612 14.8827C9 14.6989 9 14.4659 9 14C9 13.5341 9 13.3011 9.07612 13.1173C9.17761 12.8723 9.37229 12.6776 9.61732 12.5761C9.71927 12.5339 9.83637 12.5151 10 12.5067V11.5C10 10.3954 10.8954 9.5 12 9.5C13.1046 9.5 14 10.3954 14 11.5V12.5067C14.1636 12.5151 14.2807 12.5339 14.3827 12.5761C14.6277 12.6776 14.8224 12.8723 14.9239 13.1173C15 13.3011 15 13.5341 15 14C15 14.4659 15 14.6989 14.9239 14.8827C14.8224 15.1277 14.6277 15.3224 14.3827 15.4239Z" fill="#0000CC"/>
<path d="M14 12.5039V11.5C14 10.3954 13.1046 9.5 12 9.5C10.8954 9.5 10 10.3954 10 11.5V12.5039M10.5 15.5H13.5C13.9659 15.5 14.1989 15.5 14.3827 15.4239C14.6277 15.3224 14.8224 15.1277 14.9239 14.8827C15 14.6989 15 14.4659 15 14C15 13.5341 15 13.3011 14.9239 13.1173C14.8224 12.8723 14.6277 12.6776 14.3827 12.5761C14.1989 12.5 13.9659 12.5 13.5 12.5H10.5C10.0341 12.5 9.80109 12.5 9.61732 12.5761C9.37229 12.6776 9.17761 12.8723 9.07612 13.1173C9 13.3011 9 13.5341 9 14C9 14.4659 9 14.6989 9.07612 14.8827C9.17761 15.1277 9.37229 15.3224 9.61732 15.4239C9.80109 15.5 10.0341 15.5 10.5 15.5ZM8.4 19C5.41766 19 3 16.6044 3 13.6493C3 11.2001 4.8 8.9375 7.5 8.5C8.34694 6.48637 10.3514 5 12.6893 5C15.684 5 18.1317 7.32251 18.3 10.25C19.8893 10.9449 21 12.6503 21 14.4969C21 16.9839 18.9853 19 16.5 19L8.4 19Z" stroke="#0000CC" stroke-width="2" stroke-linecap="round" stroke-linejoin="round"/>
</svg>
