<svg width="24" height="24" viewBox="0 0 24 24" fill="none" xmlns="http://www.w3.org/2000/svg">
<path opacity="0.14" d="M20 4H4V20H20V15.3542C19.2039 16.0667 18.1525 16.5 17 16.5C14.5147 16.5 12.5 14.4853 12.5 12C12.5 9.51472 14.5147 7.5 17 7.5C18.1525 7.5 19.2039 7.93328 20 8.64584V4Z" fill="#0000CC"/>
<path d="M20 4H4V20H20V15.3542C19.2039 16.0667 18.1525 16.5 17 16.5C14.5147 16.5 12.5 14.4853 12.5 12C12.5 9.51472 14.5147 7.5 17 7.5C18.1525 7.5 19.2039 7.93328 20 8.64584V4Z" stroke="#0000CC" stroke-width="2" stroke-linejoin="round"/>
</svg>
