<svg width="24" height="24" viewBox="0 0 24 24" fill="none" xmlns="http://www.w3.org/2000/svg">
<g opacity="0.14">
<path d="M9 5.5C9 6.88071 7.88071 8 6.5 8C5.11929 8 4 6.88071 4 5.5C4 4.11929 5.11929 3 6.5 3C7.88071 3 9 4.11929 9 5.5Z" fill="#0000CC"/>
<path d="M9 18.5C9 19.8807 7.88071 21 6.5 21C5.11929 21 4 19.8807 4 18.5C4 17.1193 5.11929 16 6.5 16C7.88071 16 9 17.1193 9 18.5Z" fill="#0000CC"/>
<path d="M20 18.5C20 19.8807 18.8807 21 17.5 21C16.1193 21 15 19.8807 15 18.5C15 17.1193 16.1193 16 17.5 16C18.8807 16 20 17.1193 20 18.5Z" fill="#0000CC"/>
</g>
<path d="M6.5 8C7.88071 8 9 6.88071 9 5.5C9 4.11929 7.88071 3 6.5 3C5.11929 3 4 4.11929 4 5.5C4 6.88071 5.11929 8 6.5 8ZM6.5 8V16M6.5 16C5.11929 16 4 17.1193 4 18.5C4 19.8807 5.11929 21 6.5 21C7.88071 21 9 19.8807 9 18.5C9 17.1193 7.88071 16 6.5 16ZM17.5 16V12M17.5 16C18.8807 16 20 17.1193 20 18.5C20 19.8807 18.8807 21 17.5 21C16.1193 21 15 19.8807 15 18.5C15 17.1193 16.1193 16 17.5 16ZM20 3L15 8M15 3L20 8" stroke="#0000CC" stroke-width="2" stroke-linecap="round" stroke-linejoin="round"/>
</svg>
