<svg width="24" height="24" viewBox="0 0 24 24" fill="none" xmlns="http://www.w3.org/2000/svg">
<g opacity="0.14">
<path d="M8.009 5.5C8.009 6.88071 6.88971 8 5.509 8C4.12829 8 3.009 6.88071 3.009 5.5C3.009 4.11929 4.12829 3 5.509 3C6.88971 3 8.009 4.11929 8.009 5.5Z" fill="#0000CC"/>
<path d="M8.00879 18.5C8.00879 19.8807 6.8895 21 5.50879 21C4.12808 21 3.00879 19.8807 3.00879 18.5C3.00879 17.1193 4.12808 16 5.50879 16C6.8895 16 8.00879 17.1193 8.00879 18.5Z" fill="#0000CC"/>
<path d="M21.0005 18.4998C21.0005 19.8805 19.8812 20.9998 18.5005 20.9998C17.1198 20.9998 16.0005 19.8805 16.0005 18.4998C16.0005 17.1191 17.1198 15.9998 18.5005 15.9998C19.8812 15.9998 21.0005 17.1191 21.0005 18.4998Z" fill="#0000CC"/>
</g>
<path d="M5.5 8C6.88071 8 8 6.88071 8 5.5C8 4.11929 6.88071 3 5.5 3C4.11929 3 3 4.11929 3 5.5C3 6.88071 4.11929 8 5.5 8ZM5.5 8V16M5.5 16C4.11929 16 3 17.1193 3 18.5C3 19.8807 4.11929 21 5.5 21C6.88071 21 8 19.8807 8 18.5C8 17.1193 6.88071 16 5.5 16ZM18.5 16V8.7C18.5 7.5799 18.5 7.01984 18.282 6.59202C18.0903 6.21569 17.7843 5.90973 17.408 5.71799C16.9802 5.5 16.4201 5.5 15.3 5.5H12M18.5 16C19.8807 16 21 17.1193 21 18.5C21 19.8807 19.8807 21 18.5 21C17.1193 21 16 19.8807 16 18.5C16 17.1193 17.1193 16 18.5 16ZM12 5.5L14.5 8M12 5.5L14.5 3" stroke="#0000CC" stroke-width="2" stroke-linecap="round" stroke-linejoin="round"/>
</svg>
