<svg width="24" height="24" viewBox="0 0 24 24" fill="none" xmlns="http://www.w3.org/2000/svg">
<g opacity="0.14">
<path d="M8 5.5C8 6.88071 6.88071 8 5.5 8C4.11929 8 3 6.88071 3 5.5C3 4.11929 4.11929 3 5.5 3C6.88071 3 8 4.11929 8 5.5Z" fill="#0000CC"/>
<path d="M8 18.5C8 19.8807 6.88071 21 5.5 21C4.11929 21 3 19.8807 3 18.5C3 17.1193 4.11929 16 5.5 16C6.88071 16 8 17.1193 8 18.5Z" fill="#0000CC"/>
<path d="M21 12C21 13.3807 19.8807 14.5 18.5 14.5C17.1193 14.5 16 13.3807 16 12C16 10.6193 17.1193 9.5 18.5 9.5C19.8807 9.5 21 10.6193 21 12Z" fill="#0000CC"/>
</g>
<path d="M5.5 8C6.88071 8 8 6.88071 8 5.5C8 4.11929 6.88071 3 5.5 3C4.11929 3 3 4.11929 3 5.5C3 6.88071 4.11929 8 5.5 8ZM5.5 8V16M5.5 8C5.5 10.2091 7.29086 12 9.5 12H16M5.5 16C4.11929 16 3 17.1193 3 18.5C3 19.8807 4.11929 21 5.5 21C6.88071 21 8 19.8807 8 18.5C8 17.1193 6.88071 16 5.5 16ZM16 12C16 13.3807 17.1193 14.5 18.5 14.5C19.8807 14.5 21 13.3807 21 12C21 10.6193 19.8807 9.5 18.5 9.5C17.1193 9.5 16 10.6193 16 12Z" stroke="#0000CC" stroke-width="2" stroke-linecap="round" stroke-linejoin="round"/>
</svg>
