<svg width="24" height="24" viewBox="0 0 24 24" fill="none" xmlns="http://www.w3.org/2000/svg">
<g opacity="0.14">
<path d="M4 7C4 5.34315 5.34315 4 7 4C8.65685 4 10 5.34315 10 7V10H7C5.34315 10 4 8.65685 4 7Z" fill="#0000CC"/>
<path d="M4 17C4 18.6569 5.34315 20 7 20C8.65685 20 10 18.6569 10 17V14H7C5.34315 14 4 15.3431 4 17Z" fill="#0000CC"/>
<path d="M14 7C14 5.34315 15.3431 4 17 4C18.6569 4 20 5.34315 20 7C20 8.65685 18.6569 10 17 10H14V7Z" fill="#0000CC"/>
<path d="M14 17C14 18.6569 15.3431 20 17 20C18.6569 20 20 18.6569 20 17C20 15.3431 18.6569 14 17 14H14V17Z" fill="#0000CC"/>
</g>
<path d="M10 10V7C10 5.34315 8.65685 4 7 4C5.34315 4 4 5.34315 4 7C4 8.65685 5.34315 10 7 10H10ZM10 10V14M10 10H14M10 14V17C10 18.6569 8.65685 20 7 20C5.34315 20 4 18.6569 4 17C4 15.3431 5.34315 14 7 14H10ZM10 14H14M14 10H17C18.6569 10 20 8.65685 20 7C20 5.34315 18.6569 4 17 4C15.3431 4 14 5.34315 14 7V10ZM14 10V14M14 14H17C18.6569 14 20 15.3431 20 17C20 18.6569 18.6569 20 17 20C15.3431 20 14 18.6569 14 17V14Z" stroke="#0000CC" stroke-width="2" stroke-linecap="round" stroke-linejoin="round"/>
</svg>
