<svg width="24" height="24" viewBox="0 0 24 24" fill="none" xmlns="http://www.w3.org/2000/svg">
<path opacity="0.14" d="M12 21C16.9706 21 21 16.9706 21 12C18.2386 12 16 10.2091 16 8C13.7909 8 12 5.76142 12 3C7.02944 3 3 7.02944 3 12C3 16.9706 7.02944 21 12 21Z" fill="#0000CC"/>
<path d="M9 16H9.01M12 11H12.01M7 10H7.01M15 16H15.01M21 12C21 16.9706 16.9706 21 12 21C7.02944 21 3 16.9706 3 12C3 7.02944 7.02944 3 12 3C12 5.76142 13.7909 8 16 8C16 10.2091 18.2386 12 21 12Z" stroke="#0000CC" stroke-width="2" stroke-linecap="round" stroke-linejoin="round"/>
</svg>
