<svg width="24" height="24" viewBox="0 0 24 24" fill="none" xmlns="http://www.w3.org/2000/svg">
<path opacity="0.14" d="M17.7157 11.4112L9.84234 20.3828C9.48932 20.7711 9.00145 20.9853 8.5 20.9999C8.22372 21.008 7.94332 20.9554 7.67909 20.838L7.29668 20.6681C5.45946 19.8517 3.80786 18.0424 3.10216 16.1599C3.02152 15.9448 2.98779 15.7204 2.99781 15.4999C3.01753 15.0659 3.20679 14.6468 3.54143 14.3425L12.5874 6.28281C13.3774 5.56466 14.5922 5.59359 15.347 6.34854L17.65 8.65171C18.4049 9.4066 18.4338 10.6213 17.7157 11.4112Z" fill="#0000CC"/>
<path d="M10.3501 8.31572L11.8157 12.1498L15.8157 13.5M16.4985 7.5L20.9986 3M9.84234 20.3828L17.7157 11.4112C18.4338 10.6213 18.4049 9.40666 17.65 8.65176L15.347 6.34859C14.5922 5.59365 13.3774 5.56472 12.5874 6.28287L3.54143 14.3426C3.20679 14.6468 3.01753 15.0659 2.99781 15.5C2.98779 15.7205 3.02152 15.9448 3.10216 16.1599C3.80786 18.0424 5.45946 19.8518 7.29668 20.6682L7.67909 20.8381C7.94332 20.9555 8.22372 21.008 8.5 21C9.00145 20.9854 9.48932 20.7712 9.84234 20.3828Z" stroke="#0000CC" stroke-width="2" stroke-linecap="round" stroke-linejoin="round"/>
</svg>
