<svg width="24" height="24" viewBox="0 0 24 24" fill="none" xmlns="http://www.w3.org/2000/svg">
<path opacity="0.14" d="M16.5608 6.24543C16.2082 5.78847 16.032 5.55998 15.8107 5.39534C15.6146 5.2495 15.3935 5.14081 15.1583 5.07467C14.8928 5 14.6042 5 14.0271 5H6.2C5.07989 5 4.51984 5 4.09202 5.21799C3.71569 5.40973 3.40973 5.71569 3.21799 6.09202C3 6.51984 3 7.0799 3 8.2V15.8C3 16.9201 3 17.4802 3.21799 17.908C3.40973 18.2843 3.71569 18.5903 4.09202 18.782C4.51984 19 5.0799 19 6.2 19H14.0271C14.6042 19 14.8928 19 15.1583 18.9253C15.3935 18.8592 15.6146 18.7505 15.8107 18.6047C16.032 18.44 16.2082 18.2115 16.5608 17.7546L19.4922 13.9546C20.0318 13.2551 20.3016 12.9053 20.4054 12.5196C20.4969 12.1793 20.4969 11.8207 20.4054 11.4804C20.3016 11.0947 20.0318 10.7449 19.4922 10.0454L16.5608 6.24543Z" fill="#0000CC"/>
<path d="M7 9.5L12 14.5M12 9.5L7 14.5M19.4922 13.9546L16.5608 17.7546C16.2082 18.2115 16.032 18.44 15.8107 18.6047C15.6146 18.7505 15.3935 18.8592 15.1583 18.9253C14.8928 19 14.6042 19 14.0271 19H6.2C5.07989 19 4.51984 19 4.09202 18.782C3.71569 18.5903 3.40973 18.2843 3.21799 17.908C3 17.4802 3 16.9201 3 15.8V8.2C3 7.0799 3 6.51984 3.21799 6.09202C3.40973 5.71569 3.71569 5.40973 4.09202 5.21799C4.51984 5 5.07989 5 6.2 5H14.0271C14.6042 5 14.8928 5 15.1583 5.07467C15.3935 5.14081 15.6146 5.2495 15.8107 5.39534C16.032 5.55998 16.2082 5.78846 16.5608 6.24543L19.4922 10.0454C20.0318 10.7449 20.3016 11.0947 20.4054 11.4804C20.4969 11.8207 20.4969 12.1793 20.4054 12.5196C20.3016 12.9053 20.0318 13.2551 19.4922 13.9546Z" stroke="#0000CC" stroke-width="2" stroke-linecap="round" stroke-linejoin="round"/>
</svg>
