<svg width="24" height="24" viewBox="0 0 24 24" fill="none" xmlns="http://www.w3.org/2000/svg">
<circle opacity="0.14" cx="12" cy="13" r="5" fill="#0000CC"/>
<path d="M12 13L8.5 16.5M3.5 13H3.51M5.5 19.5H5.51M5.5 6.5H5.51M12 4.5H12.01M18.5 6.5H18.51M20.5 13H20.51M18.5 19.5H18.51M17 13C17 15.7614 14.7614 18 12 18C9.23858 18 7 15.7614 7 13C7 10.2386 9.23858 8 12 8C14.7614 8 17 10.2386 17 13ZM4 13C4 13.2761 3.77614 13.5 3.5 13.5C3.22386 13.5 3 13.2761 3 13C3 12.7239 3.22386 12.5 3.5 12.5C3.77614 12.5 4 12.7239 4 13ZM6 19.5C6 19.7761 5.77614 20 5.5 20C5.22386 20 5 19.7761 5 19.5C5 19.2239 5.22386 19 5.5 19C5.77614 19 6 19.2239 6 19.5ZM6 6.5C6 6.77614 5.77614 7 5.5 7C5.22386 7 5 6.77614 5 6.5C5 6.22386 5.22386 6 5.5 6C5.77614 6 6 6.22386 6 6.5ZM12.5 4.5C12.5 4.77614 12.2761 5 12 5C11.7239 5 11.5 4.77614 11.5 4.5C11.5 4.22386 11.7239 4 12 4C12.2761 4 12.5 4.22386 12.5 4.5ZM19 6.5C19 6.22386 18.7761 6 18.5 6C18.2239 6 18 6.22386 18 6.5C18 6.77614 18.2239 7 18.5 7C18.7761 7 19 6.77614 19 6.5ZM21 13C21 12.7239 20.7761 12.5 20.5 12.5C20.2239 12.5 20 12.7239 20 13C20 13.2761 20.2239 13.5 20.5 13.5C20.7761 13.5 21 13.2761 21 13ZM19 19.5C19 19.2239 18.7761 19 18.5 19C18.2239 19 18 19.2239 18 19.5C18 19.7761 18.2239 20 18.5 20C18.7761 20 19 19.7761 19 19.5Z" stroke="#0000CC" stroke-width="2" stroke-linecap="round" stroke-linejoin="round"/>
</svg>
