<svg width="24" height="24" viewBox="0 0 24 24" fill="none" xmlns="http://www.w3.org/2000/svg">
<path opacity="0.14" d="M3.70131 10.2593L9.22802 4.70528C9.6162 4.31518 10.2466 4.31205 10.6387 4.69827L16.0203 10H21V20H13V14.9843L10.7083 17.2875C10.3174 17.6804 9.6815 17.6804 9.29057 17.2875L3.70127 11.67C3.3131 11.2799 3.31312 10.6494 3.70131 10.2593Z" fill="#0000CC"/>
<path d="M21.9995 9.99998C21.9995 9.4477 21.5517 8.99998 20.9995 8.99998C20.4472 8.99998 19.9995 9.4477 19.9995 9.99998H21.9995ZM12.9995 19C12.4472 19 11.9995 19.4477 11.9995 20C11.9995 20.5523 12.4472 21 12.9995 21V19ZM10.7083 17.2875L11.4172 17.9928L10.7083 17.2875ZM9.29057 17.2875L8.58168 17.9928L9.29057 17.2875ZM16.2835 10.2593L16.9853 9.54696V9.54696L16.2835 10.2593ZM16.2906 11.677L15.5817 10.9717L16.2906 11.677ZM9.22802 4.70528L8.51917 3.99992L9.22802 4.70528ZM10.6387 4.69827L9.93686 5.41065L10.6387 4.69827ZM3.70131 10.2593L4.41016 10.9647L3.70131 10.2593ZM3.70127 11.67L4.41016 10.9647L3.70127 11.67ZM17.9995 16C17.4472 16 16.9995 16.4477 16.9995 17C16.9995 17.5523 17.4472 18 17.9995 18V16ZM18.0085 18C18.5607 18 19.0085 17.5523 19.0085 17C19.0085 16.4477 18.5607 16 18.0085 16V18ZM6.99945 9.99998C6.44717 9.99998 5.99945 10.4477 5.99945 11C5.99945 11.5523 6.44717 12 6.99945 12V9.99998ZM7.00845 12C7.56074 12 8.00845 11.5523 8.00845 11C8.00845 10.4477 7.56074 9.99998 7.00845 9.99998V12ZM12.9995 9.99998C12.4472 9.99998 11.9995 10.4477 11.9995 11C11.9995 11.5523 12.4472 12 12.9995 12V9.99998ZM13.0085 12C13.5607 12 14.0085 11.5523 14.0085 11C14.0085 10.4477 13.5607 9.99998 13.0085 9.99998V12ZM19.9995 9.99998V19H21.9995V9.99998H19.9995ZM19.9995 19H12.9995V21H19.9995V19ZM19.9995 19V21C21.104 21 21.9995 20.1046 21.9995 19H19.9995ZM4.41016 10.9647L9.93686 5.41064L8.51917 3.99992L2.99246 9.55394L4.41016 10.9647ZM9.93686 5.41065L15.5817 10.9717L16.9853 9.54696L11.3405 3.98589L9.93686 5.41065ZM15.5817 10.9717L9.99945 16.5822L11.4172 17.9928L16.9995 12.3824L15.5817 10.9717ZM9.99945 16.5822L4.41016 10.9647L2.99238 12.3753L8.58168 17.9928L9.99945 16.5822ZM9.99945 16.5822H9.99945L8.58168 17.9928C9.36354 18.7786 10.6354 18.7786 11.4172 17.9928L9.99945 16.5822ZM15.5817 10.9717L15.5817 10.9717L16.9995 12.3824C17.7813 11.5966 17.775 10.3249 16.9853 9.54696L15.5817 10.9717ZM9.93686 5.41064L9.93686 5.41065L11.3405 3.98589C10.5564 3.21346 9.29553 3.21972 8.51917 3.99992L9.93686 5.41064ZM2.99246 9.55394C2.21608 10.3342 2.21605 11.5951 2.99238 12.3753L4.41016 10.9647L4.41016 10.9647L2.99246 9.55394ZM17.9995 18H18.0085V16H17.9995V18ZM6.99945 12H7.00845V9.99998H6.99945V12ZM12.9995 12H13.0085V9.99998H12.9995V12Z" fill="#0000CC"/>
</svg>
