<svg width="24" height="24" viewBox="0 0 24 24" fill="none" xmlns="http://www.w3.org/2000/svg">
<path opacity="0.14" d="M9.58846 3L5.41154 5.41154L3 9.58846V14.4115L5.41154 18.5885L9.58846 21L14.4115 21L18.5885 18.5885L21 14.4115V9.58846L18.5885 5.41154L14.4115 3H9.58846Z" fill="#0000CC"/>
<path d="M18.5885 5.41154L14.4115 3H9.58846L5.41154 5.41154L3 9.58846M18.5885 5.41154L21 9.58846M18.5885 5.41154L12 7V12M21 9.58846V14.4115L18.5885 18.5885L14.4115 21L9.58846 21M21 9.58846L16 14.4116L12 12M9.58846 21L5.41154 18.5885L3 14.4115V9.58846M9.58846 21L8 14.4116M3 9.58846L8 14.4116M8 14.4116L12 12M11.9986 7.00002L5.41016 5.41156M14.4102 21L15.9986 14.4116" stroke="#0000CC" stroke-width="2" stroke-linecap="round" stroke-linejoin="round"/>
</svg>
