<svg width="24" height="24" viewBox="0 0 24 24" fill="none" xmlns="http://www.w3.org/2000/svg">
<g opacity="0.14">
<path d="M4 12L8 9L12 12L8 15L4 12Z" fill="#0000CC"/>
<path d="M12 12L16 9L20 12L16 15L12 12Z" fill="#0000CC"/>
<path d="M12 6L16 3L20 6L16 9L12 6Z" fill="#0000CC"/>
<path d="M4 6L8 3L12 6L8 9L4 6Z" fill="#0000CC"/>
<path d="M8 9L4 12L8 15L12 12M8 9L12 12M8 9L12 6M8 9L4 6L8 3L12 6M12 12L16 9M12 12L16 15L20 12L16 9M12 6L16 9M12 6L16 3L20 6L16 9" stroke="#0000CC" stroke-width="2" stroke-linecap="round" stroke-linejoin="round"/>
</g>
<path d="M8 9L4 12L8 15L12 12M8 9L12 12M8 9L12 6M8 9L4 6L8 3L12 6M12 12L16 9M12 12L16 15L20 12L16 9M8 18L12 21L16 18M12 6L16 9M12 6L16 3L20 6L16 9" stroke="#0000CC" stroke-width="2" stroke-linecap="round" stroke-linejoin="round"/>
</svg>
