<svg width="24" height="24" viewBox="0 0 24 24" fill="none" xmlns="http://www.w3.org/2000/svg">
<g opacity="0.14">
<path d="M20 8.0003L16.5 11.5003L12.5 7.5003L16 4.0003C17.1046 2.89573 18.8954 2.89573 20 4.0003C21.1046 5.10487 21.1046 6.89573 20 8.0003Z" fill="#0000CC"/>
<path d="M14 14.0003L10.4059 17.5944C9.88704 18.1133 9.6276 18.3727 9.32485 18.5582C9.05644 18.7227 8.7638 18.8439 8.4577 18.9174C8.11243 19.0003 7.74555 19.0003 7.01178 19.0003H6L3 21.0003L5 18.0003V16.9885C5 16.2548 5 15.8879 5.08289 15.5426C5.15638 15.2365 5.27759 14.9439 5.44208 14.6755C5.57187 14.4637 5.73783 14.2731 6.00349 14L14 14.0003Z" fill="#0000CC"/>
</g>
<path d="M6.00002 14.0003L14 14.0003L10.4059 17.5944C9.88703 18.1133 9.6276 18.3727 9.32485 18.5582C9.05644 18.7227 8.7638 18.8439 8.4577 18.9174C8.11243 19.0003 7.74555 19.0003 7.01178 19.0003H6L3 21.0003L5 18.0003V16.9885C5 16.2548 5 15.8879 5.08289 15.5426C5.15638 15.2365 5.27759 14.9439 5.44208 14.6754C5.6276 14.3727 5.88703 14.1133 6.40589 13.5944L10 10.0003M12.5 7.5003L16 4.0003C17.1046 2.89573 18.8954 2.89573 20 4.0003C21.1046 5.10487 21.1046 6.89573 20 8.0003L16.5 11.5003M11 6.0003L18 13.0003" stroke="#0000CC" stroke-width="2" stroke-linecap="round" stroke-linejoin="round"/>
</svg>
