<svg width="24" height="24" viewBox="0 0 24 24" fill="none" xmlns="http://www.w3.org/2000/svg">
<path opacity="0.14" d="M7 14C7 16.7614 9.23858 19 12 19C13.895 19 15.5438 17.9458 16.3919 16.3919L9.60814 9.60815C8.0542 10.4562 7 12.105 7 14Z" fill="#0000CC"/>
<path d="M9.60997 9.60714C8.05503 10.4549 7 12.1043 7 14C7 16.7614 9.23858 19 12 19C13.8966 19 15.5466 17.944 16.3941 16.3878M21 14C21 9.02944 16.9706 5 12 5C11.5582 5 11.1238 5.03184 10.699 5.09334M3 14C3 11.0069 4.46104 8.35513 6.70883 6.71886M3 3L21 21" stroke="#0000CC" stroke-width="2" stroke-linecap="round" stroke-linejoin="round"/>
</svg>
