<svg width="24" height="24" viewBox="0 0 24 24" fill="none" xmlns="http://www.w3.org/2000/svg">
<path opacity="0.14" fill-rule="evenodd" clip-rule="evenodd" d="M2.45898 12C3.73326 7.94288 7.52354 5 12.0012 5C16.4788 5 20.2691 7.94291 21.5434 12C20.2691 16.0571 16.4788 19 12.0012 19C7.52354 19 3.73324 16.0571 2.45898 12ZM12 15C13.6569 15 15 13.6569 15 12C15 10.3431 13.6569 9 12 9C10.3431 9 9 10.3431 9 12C9 13.6569 10.3431 15 12 15Z" fill="#0000CC"/>
<path d="M15.0007 12C15.0007 13.6569 13.6576 15 12.0007 15C10.3439 15 9.00073 13.6569 9.00073 12C9.00073 10.3431 10.3439 9 12.0007 9C13.6576 9 15.0007 10.3431 15.0007 12Z" stroke="#0000CC" stroke-width="2" stroke-linecap="round" stroke-linejoin="round"/>
<path d="M12.0012 5C7.52354 5 3.73326 7.94288 2.45898 12C3.73324 16.0571 7.52354 19 12.0012 19C16.4788 19 20.2691 16.0571 21.5434 12C20.2691 7.94291 16.4788 5 12.0012 5Z" stroke="#0000CC" stroke-width="2" stroke-linecap="round" stroke-linejoin="round"/>
</svg>
