<svg width="24" height="24" viewBox="0 0 24 24" fill="none" xmlns="http://www.w3.org/2000/svg">
<circle opacity="0.14" cx="12" cy="12" r="9" fill="#0000CC"/>
<path d="M11.5528 17.1056C11.0588 17.3526 10.8586 17.9532 11.1056 18.4472C11.3526 18.9412 11.9532 19.1414 12.4472 18.8944L11.5528 17.1056ZM13 17.5L13.4472 18.3944H13.4472L13 17.5ZM12.4472 13.1056C11.9532 12.8586 11.3526 13.0588 11.1056 13.5528C10.8586 14.0468 11.0588 14.6474 11.5528 14.8944L12.4472 13.1056ZM13 15.5L13.4472 16.3944L13 15.5ZM13 16.5L13.4472 15.6056L13 16.5ZM5.56383 9.64844C5.36967 10.1655 5.63141 10.742 6.14844 10.9362C6.66547 11.1303 7.24201 10.8686 7.43617 10.3516L5.56383 9.64844ZM9.56383 10.3516C9.75799 10.8686 10.3345 11.1303 10.8516 10.9362C11.3686 10.742 11.6303 10.1655 11.4362 9.64844L9.56383 10.3516ZM12.5638 9.64844C12.3697 10.1655 12.6314 10.742 13.1484 10.9362C13.6655 11.1303 14.242 10.8686 14.4362 10.3516L12.5638 9.64844ZM16.5638 10.3516C16.758 10.8686 17.3345 11.1303 17.8516 10.9362C18.3686 10.742 18.6303 10.1655 18.4362 9.64844L16.5638 10.3516ZM20 12C20 16.4183 16.4183 20 12 20V22C17.5228 22 22 17.5228 22 12H20ZM12 20C7.58172 20 4 16.4183 4 12H2C2 17.5228 6.47715 22 12 22V20ZM4 12C4 7.58172 7.58172 4 12 4V2C6.47715 2 2 6.47715 2 12H4ZM12 4C16.4183 4 20 7.58172 20 12H22C22 6.47715 17.5228 2 12 2V4ZM12.4472 18.8944L13.4472 18.3944L12.5528 16.6056L11.5528 17.1056L12.4472 18.8944ZM13.4472 13.6056L12.4472 13.1056L11.5528 14.8944L12.5528 15.3944L13.4472 13.6056ZM13.4472 16.3944C14.5963 15.8199 14.5963 14.1801 13.4472 13.6056L12.5528 15.3944C12.2278 15.2319 12.2278 14.7681 12.5528 14.6056L13.4472 16.3944ZM13.4472 15.6056C13.7722 15.7681 13.7722 16.2319 13.4472 16.3944L12.5528 14.6056C11.4037 15.1801 11.4037 16.8199 12.5528 17.3944L13.4472 15.6056ZM13.4472 18.3944C14.5963 17.8199 14.5963 16.1801 13.4472 15.6056L12.5528 17.3944C12.2278 17.2319 12.2278 16.7681 12.5528 16.6056L13.4472 18.3944ZM8.5 7C7.74773 7 7.1192 7.36535 6.64964 7.84514C6.18387 8.32107 5.82448 8.95438 5.56383 9.64844L7.43617 10.3516C7.63159 9.83117 7.86327 9.46448 8.07903 9.24402C8.291 9.02743 8.43443 9 8.5 9V7ZM11.4362 9.64844C11.1755 8.95438 10.8161 8.32107 10.3504 7.84514C9.8808 7.36535 9.25227 7 8.5 7V9C8.56557 9 8.709 9.02743 8.92097 9.24402C9.13673 9.46448 9.36841 9.83117 9.56383 10.3516L11.4362 9.64844ZM15.5 7C14.7477 7 14.1192 7.36535 13.6496 7.84514C13.1839 8.32107 12.8245 8.95438 12.5638 9.64844L14.4362 10.3516C14.6316 9.83117 14.8633 9.46448 15.079 9.24402C15.291 9.02743 15.4344 9 15.5 9V7ZM18.4362 9.64844C18.1755 8.95438 17.8161 8.32107 17.3504 7.84514C16.8808 7.36535 16.2523 7 15.5 7V9C15.5656 9 15.709 9.02743 15.921 9.24402C16.1367 9.46448 16.3684 9.83117 16.5638 10.3516L18.4362 9.64844Z" fill="#0000CC"/>
</svg>
