<svg width="24" height="24" viewBox="0 0 24 24" fill="none" xmlns="http://www.w3.org/2000/svg">
<circle opacity="0.14" cx="12" cy="12" r="9" fill="#0000CC"/>
<path d="M11.5528 17.1056C11.0588 17.3526 10.8586 17.9532 11.1056 18.4472C11.3526 18.9412 11.9532 19.1414 12.4472 18.8944L11.5528 17.1056ZM13 17.5L13.4472 18.3944H13.4472L13 17.5ZM12.4472 13.1056C11.9532 12.8586 11.3526 13.0588 11.1056 13.5528C10.8586 14.0468 11.0588 14.6474 11.5528 14.8944L12.4472 13.1056ZM13 15.5L13.4472 16.3944L13 15.5ZM13 16.5L13.4472 15.6056L13 16.5ZM9.30078 8.30005C8.7485 8.30005 8.30078 8.74776 8.30078 9.30005C8.30078 9.85233 8.7485 10.3 9.30078 10.3V8.30005ZM9.30978 10.3C9.86207 10.3 10.3098 9.85233 10.3098 9.30005C10.3098 8.74776 9.86207 8.30005 9.30978 8.30005V10.3ZM14.6914 8.30005C14.1391 8.30005 13.6914 8.74776 13.6914 9.30005C13.6914 9.85233 14.1391 10.3 14.6914 10.3V8.30005ZM14.7004 10.3C15.2527 10.3 15.7004 9.85233 15.7004 9.30005C15.7004 8.74776 15.2527 8.30005 14.7004 8.30005V10.3ZM20 12C20 16.4183 16.4183 20 12 20V22C17.5228 22 22 17.5228 22 12H20ZM12 20C7.58172 20 4 16.4183 4 12H2C2 17.5228 6.47715 22 12 22V20ZM4 12C4 7.58172 7.58172 4 12 4V2C6.47715 2 2 6.47715 2 12H4ZM12 4C16.4183 4 20 7.58172 20 12H22C22 6.47715 17.5228 2 12 2V4ZM12.4472 18.8944L13.4472 18.3944L12.5528 16.6056L11.5528 17.1056L12.4472 18.8944ZM13.4472 13.6056L12.4472 13.1056L11.5528 14.8944L12.5528 15.3944L13.4472 13.6056ZM13.4472 16.3944C14.5963 15.8199 14.5963 14.1801 13.4472 13.6056L12.5528 15.3944C12.2278 15.2319 12.2278 14.7681 12.5528 14.6056L13.4472 16.3944ZM13.4472 15.6056C13.7722 15.7681 13.7722 16.2319 13.4472 16.3944L12.5528 14.6056C11.4037 15.1801 11.4037 16.8199 12.5528 17.3944L13.4472 15.6056ZM13.4472 18.3944C14.5963 17.8199 14.5963 16.1801 13.4472 15.6056L12.5528 17.3944C12.2278 17.2319 12.2278 16.7681 12.5528 16.6056L13.4472 18.3944ZM8.75156 9.29998C8.75156 8.99622 8.99781 8.74998 9.30156 8.74998V10.75C10.1024 10.75 10.7516 10.1008 10.7516 9.29998H8.75156ZM9.30156 8.74998C9.60532 8.74998 9.85156 8.99622 9.85156 9.29998H7.85156C7.85156 10.1008 8.50075 10.75 9.30156 10.75V8.74998ZM9.85156 9.29998C9.85156 9.60373 9.60532 9.84998 9.30156 9.84998V7.84998C8.50075 7.84998 7.85156 8.49916 7.85156 9.29998H9.85156ZM9.30156 9.84998C8.99781 9.84998 8.75156 9.60373 8.75156 9.29998H10.7516C10.7516 8.49916 10.1024 7.84998 9.30156 7.84998V9.84998ZM9.30078 10.3H9.30978V8.30005H9.30078V10.3ZM14.15 9.29998C14.15 8.99622 14.3962 8.74998 14.7 8.74998V10.75C15.5008 10.75 16.15 10.1008 16.15 9.29998H14.15ZM14.7 8.74998C15.0038 8.74998 15.25 8.99622 15.25 9.29998H13.25C13.25 10.1008 13.8992 10.75 14.7 10.75V8.74998ZM15.25 9.29998C15.25 9.60373 15.0038 9.84998 14.7 9.84998V7.84998C13.8992 7.84998 13.25 8.49916 13.25 9.29998H15.25ZM14.7 9.84998C14.3962 9.84998 14.15 9.60373 14.15 9.29998H16.15C16.15 8.49916 15.5008 7.84998 14.7 7.84998V9.84998ZM14.6914 10.3H14.7004V8.30005H14.6914V10.3Z" fill="#0000CC"/>
</svg>
