<svg width="24" height="24" viewBox="0 0 24 24" fill="none" xmlns="http://www.w3.org/2000/svg">
<circle opacity="0.14" cx="12" cy="12" r="9" fill="#0000CC"/>
<path d="M10.4476 19.8497C9.90573 19.7432 9.38009 20.0962 9.2736 20.6381C9.16712 21.18 9.52011 21.7057 10.062 21.8122L10.4476 19.8497ZM13.8951 21.8205C14.4375 21.7164 14.7928 21.1923 14.6887 20.6499C14.5846 20.1075 14.0605 19.7522 13.5181 19.8563L13.8951 21.8205ZM10.0611 2.18784C9.51918 2.29433 9.16618 2.81996 9.27267 3.36189C9.37915 3.90381 9.90479 4.2568 10.4467 4.15032L10.0611 2.18784ZM13.5172 4.14366C14.0595 4.24777 14.5836 3.89248 14.6877 3.35009C14.7918 2.80771 14.4366 2.28363 13.8942 2.17952L13.5172 4.14366ZM2.16831 13.9182C2.2748 14.4601 2.80043 14.8131 3.34235 14.7066C3.88428 14.6001 4.23727 14.0745 4.13078 13.5326L2.16831 13.9182ZM4.12413 10.4621C4.22824 9.91974 3.87294 9.39566 3.33056 9.29155C2.78818 9.18745 2.26409 9.54274 2.15999 10.0851L4.12413 10.4621ZM19.8302 13.5335C19.7237 14.0754 20.0767 14.6011 20.6186 14.7076C21.1605 14.814 21.6861 14.461 21.7926 13.9191L19.8302 13.5335ZM21.801 10.0861C21.6968 9.54367 21.1728 9.18838 20.6304 9.29249C20.088 9.3966 19.7327 9.92068 19.8368 10.4631L21.801 10.0861ZM16.4472 18.6344C15.9887 18.9423 15.8666 19.5636 16.1745 20.0221C16.4824 20.4806 17.1037 20.6027 17.5622 20.2948L16.4472 18.6344ZM18.3582 18.3501L17.6511 17.643L18.3582 18.3501ZM20.2784 17.5903C20.5884 17.1331 20.469 16.5113 20.0119 16.2014C19.5547 15.8915 18.9329 16.0108 18.623 16.468L20.2784 17.5903ZM3.68503 6.41894C3.37713 6.87743 3.4992 7.49872 3.9577 7.80662C4.41619 8.11452 5.03747 7.99244 5.34538 7.53395L3.68503 6.41894ZM5.63032 5.62221L6.33743 6.32932L5.63032 5.62221ZM7.51181 5.35811C7.96894 5.0482 8.0883 4.42639 7.77839 3.96925C7.46848 3.51211 6.84667 3.39276 6.38953 3.70266L7.51181 5.35811ZM6.39859 20.2946C6.85708 20.6025 7.47837 20.4804 7.78627 20.0219C8.09417 19.5634 7.97209 18.9421 7.5136 18.6342L6.39859 20.2946ZM5.33776 16.4678C5.02785 16.0107 4.40604 15.8913 3.9489 16.2012C3.49176 16.5111 3.37241 17.133 3.68232 17.5901L5.33776 16.4678ZM18.6154 7.53377C18.9233 7.99227 19.5446 8.11435 20.0031 7.80645C20.4616 7.49855 20.5836 6.87726 20.2757 6.41877L18.6154 7.53377ZM17.5712 3.70249C17.1141 3.39258 16.4923 3.51194 16.1824 3.96908C15.8725 4.42622 15.9918 5.04803 16.449 5.35794L17.5712 3.70249ZM9.30078 8.30005C8.7485 8.30005 8.30078 8.74776 8.30078 9.30005C8.30078 9.85233 8.7485 10.3 9.30078 10.3V8.30005ZM9.30978 10.3C9.86207 10.3 10.3098 9.85233 10.3098 9.30005C10.3098 8.74776 9.86207 8.30005 9.30978 8.30005V10.3ZM14.6914 8.30005C14.1391 8.30005 13.6914 8.74776 13.6914 9.30005C13.6914 9.85233 14.1391 10.3 14.6914 10.3V8.30005ZM14.7004 10.3C15.2527 10.3 15.7004 9.85233 15.7004 9.30005C15.7004 8.74776 15.2527 8.30005 14.7004 8.30005V10.3ZM9 15C8.44772 15 8 15.4477 8 16C8 16.5523 8.44772 17 9 17V15ZM15 17C15.5523 17 16 16.5523 16 16C16 15.4477 15.5523 15 15 15V17ZM10.062 21.8122C10.6898 21.9355 11.3378 22 12 22V20C11.468 20 10.949 19.9482 10.4476 19.8497L10.062 21.8122ZM12 22C12.6471 22 13.2807 21.9384 13.8951 21.8205L13.5181 19.8563C13.0273 19.9505 12.5199 20 12 20V22ZM10.4467 4.15032C10.948 4.05181 11.4679 4 12 4V2C11.3379 2 10.6889 2.06447 10.0611 2.18784L10.4467 4.15032ZM12 4C12.5198 4 13.0263 4.04945 13.5172 4.14366L13.8942 2.17952C13.2799 2.06161 12.6472 2 12 2V4ZM4.13078 13.5326C4.03226 13.0312 3.98047 12.5122 3.98047 11.9802H1.98047C1.98047 12.6424 2.04496 13.2904 2.16831 13.9182L4.13078 13.5326ZM3.98047 11.9802C3.98047 11.4603 4.02993 10.9529 4.12413 10.4621L2.15999 10.0851C2.04206 10.6995 1.98047 11.3331 1.98047 11.9802H3.98047ZM21.7926 13.9191C21.916 13.2913 21.9805 12.6423 21.9805 11.9802H19.9805C19.9805 12.5123 19.9287 13.0322 19.8302 13.5335L21.7926 13.9191ZM21.9805 11.9802C21.9805 11.333 21.9189 10.7003 21.801 10.0861L19.8368 10.4631C19.931 10.9539 19.9805 11.4604 19.9805 11.9802H21.9805ZM17.5622 20.2948C18.0933 19.9381 18.5971 19.5255 19.0653 19.0572L17.6511 17.643C17.2749 18.0192 16.8714 18.3495 16.4472 18.6344L17.5622 20.2948ZM19.0653 19.0572C19.5229 18.5997 19.9274 18.1081 20.2784 17.5903L18.623 16.468C18.3426 16.8816 18.0188 17.2754 17.6511 17.643L19.0653 19.0572ZM5.34538 7.53395C5.63019 7.10982 5.96116 6.70558 6.33743 6.32932L4.92321 4.9151C4.45507 5.38325 4.04175 5.88775 3.68503 6.41894L5.34538 7.53395ZM6.33743 6.32932C6.70499 5.96175 7.09809 5.63858 7.51181 5.35811L6.38953 3.70266C5.8718 4.05365 5.38084 4.45747 4.92321 4.9151L6.33743 6.32932ZM7.5136 18.6342C7.08939 18.3494 6.68582 18.019 6.30963 17.6429L4.89542 19.0571C5.36363 19.5253 5.86749 19.9379 6.39859 20.2946L7.5136 18.6342ZM6.30963 17.6429C5.94199 17.2752 5.61817 16.8814 5.33776 16.4678L3.68232 17.5901C4.03336 18.1079 4.43786 18.5995 4.89542 19.0571L6.30963 17.6429ZM20.2757 6.41877C19.919 5.88758 19.5057 5.38307 19.0376 4.91493L17.6233 6.32915C17.9996 6.70541 18.3306 7.10965 18.6154 7.53377L20.2757 6.41877ZM19.0376 4.91493C18.5799 4.4573 18.089 4.05347 17.5712 3.70249L16.449 5.35794C16.8627 5.6384 17.2558 5.96158 17.6233 6.32915L19.0376 4.91493ZM8.75156 9.29998C8.75156 8.99622 8.99781 8.74998 9.30156 8.74998V10.75C10.1024 10.75 10.7516 10.1008 10.7516 9.29998H8.75156ZM9.30156 8.74998C9.60532 8.74998 9.85156 8.99622 9.85156 9.29998H7.85156C7.85156 10.1008 8.50075 10.75 9.30156 10.75V8.74998ZM9.85156 9.29998C9.85156 9.60373 9.60532 9.84998 9.30156 9.84998V7.84998C8.50075 7.84998 7.85156 8.49916 7.85156 9.29998H9.85156ZM9.30156 9.84998C8.99781 9.84998 8.75156 9.60373 8.75156 9.29998H10.7516C10.7516 8.49916 10.1024 7.84998 9.30156 7.84998V9.84998ZM9.30078 10.3H9.30978V8.30005H9.30078V10.3ZM14.15 9.29998C14.15 8.99622 14.3962 8.74998 14.7 8.74998V10.75C15.5008 10.75 16.15 10.1008 16.15 9.29998H14.15ZM14.7 8.74998C15.0038 8.74998 15.25 8.99622 15.25 9.29998H13.25C13.25 10.1008 13.8992 10.75 14.7 10.75V8.74998ZM15.25 9.29998C15.25 9.60373 15.0038 9.84998 14.7 9.84998V7.84998C13.8992 7.84998 13.25 8.49916 13.25 9.29998H15.25ZM14.7 9.84998C14.3962 9.84998 14.15 9.60373 14.15 9.29998H16.15C16.15 8.49916 15.5008 7.84998 14.7 7.84998V9.84998ZM14.6914 10.3H14.7004V8.30005H14.6914V10.3ZM9 17H15V15H9V17Z" fill="#0000CC"/>
</svg>
