<svg width="24" height="24" viewBox="0 0 24 24" fill="none" xmlns="http://www.w3.org/2000/svg">
<path opacity="0.14" fill-rule="evenodd" clip-rule="evenodd" d="M12 21C16.9706 21 21 16.9706 21 12C21 7.02944 16.9706 3 12 3C7.02944 3 3 7.02944 3 12C3 16.9706 7.02944 21 12 21ZM16 14C16 16.2091 14.2091 18 12 18C9.79086 18 8 16.2091 8 14H16Z" fill="#0000CC"/>
<path d="M16 14H17C17 13.4477 16.5523 13 16 13V14ZM8 14V13C7.44772 13 7 13.4477 7 14H8ZM16.6838 10.9487C17.2077 11.1233 17.774 10.8402 17.9487 10.3162C18.1233 9.79228 17.8402 9.22596 17.3162 9.05132L16.6838 10.9487ZM14 9L13.5528 8.10557C13.191 8.28645 12.9738 8.66744 13.0025 9.07089C13.0312 9.47433 13.3001 9.82078 13.6838 9.94868L14 9ZM17.4472 8.39443C17.9412 8.14744 18.1414 7.54676 17.8944 7.05279C17.6474 6.55881 17.0468 6.35858 16.5528 6.60557L17.4472 8.39443ZM6.68377 9.05132C6.15983 9.22596 5.87667 9.79228 6.05132 10.3162C6.22596 10.8402 6.79228 11.1233 7.31623 10.9487L6.68377 9.05132ZM10 9L10.3162 9.94868C10.6999 9.82078 10.9688 9.47433 10.9975 9.07089C11.0262 8.66744 10.809 8.28645 10.4472 8.10557L10 9ZM7.44721 6.60557C6.95324 6.35858 6.35256 6.55881 6.10557 7.05279C5.85858 7.54676 6.05881 8.14744 6.55279 8.39443L7.44721 6.60557ZM20 12C20 16.4183 16.4183 20 12 20V22C17.5228 22 22 17.5228 22 12H20ZM12 20C7.58172 20 4 16.4183 4 12H2C2 17.5228 6.47715 22 12 22V20ZM4 12C4 7.58172 7.58172 4 12 4V2C6.47715 2 2 6.47715 2 12H4ZM12 4C16.4183 4 20 7.58172 20 12H22C22 6.47715 17.5228 2 12 2V4ZM15 14C15 15.6569 13.6569 17 12 17V19C14.7614 19 17 16.7614 17 14H15ZM12 17C10.3431 17 9 15.6569 9 14H7C7 16.7614 9.23858 19 12 19V17ZM16 13H8V15H16V13ZM17.3162 9.05132L14.3162 8.05132L13.6838 9.94868L16.6838 10.9487L17.3162 9.05132ZM14.4472 9.89443L17.4472 8.39443L16.5528 6.60557L13.5528 8.10557L14.4472 9.89443ZM7.31623 10.9487L10.3162 9.94868L9.68377 8.05132L6.68377 9.05132L7.31623 10.9487ZM10.4472 8.10557L7.44721 6.60557L6.55279 8.39443L9.55279 9.89443L10.4472 8.10557Z" fill="#0000CC"/>
</svg>
