<svg width="24" height="24" viewBox="0 0 24 24" fill="none" xmlns="http://www.w3.org/2000/svg">
<circle opacity="0.14" cx="12" cy="12" r="9" fill="#0000CC"/>
<path d="M6.15229 7.46952C5.85933 7.9377 6.00136 8.55472 6.46953 8.84769C6.93771 9.14066 7.55474 8.99863 7.84771 8.53045L6.15229 7.46952ZM10.0528 7.89443C10.5468 8.14142 11.1474 7.94119 11.3944 7.4472C11.6414 6.95322 11.4412 6.35255 10.9472 6.10557L10.0528 7.89443ZM16.1523 8.53045C16.4453 8.99863 17.0623 9.14066 17.5305 8.84769C17.9986 8.55472 18.1407 7.9377 17.8477 7.46952L16.1523 8.53045ZM13.0528 6.10555C12.5588 6.35254 12.3586 6.95321 12.6056 7.44719C12.8526 7.94117 13.4532 8.1414 13.9472 7.89442L13.0528 6.10555ZM9.30078 10.3C8.7485 10.3 8.30078 10.7478 8.30078 11.3C8.30078 11.8523 8.7485 12.3 9.30078 12.3V10.3ZM9.30978 12.3C9.86207 12.3 10.3098 11.8523 10.3098 11.3C10.3098 10.7478 9.86207 10.3 9.30978 10.3V12.3ZM14.6914 10.3C14.1391 10.3 13.6914 10.7478 13.6914 11.3C13.6914 11.8523 14.1391 12.3 14.6914 12.3V10.3ZM14.7004 12.3C15.2527 12.3 15.7004 11.8523 15.7004 11.3C15.7004 10.7478 15.2527 10.3 14.7004 10.3V12.3ZM20 12C20 16.4183 16.4183 20 12 20V22C17.5228 22 22 17.5228 22 12H20ZM12 20C7.58172 20 4 16.4183 4 12H2C2 17.5228 6.47715 22 12 22V20ZM4 12C4 7.58172 7.58172 4 12 4V2C6.47715 2 2 6.47715 2 12H4ZM12 4C16.4183 4 20 7.58172 20 12H22C22 6.47715 17.5228 2 12 2V4ZM7.84771 8.53045C8.03282 8.23464 8.40511 7.97827 8.89173 7.85316C9.38807 7.72555 9.82452 7.7803 10.0528 7.89443L10.9472 6.10557C10.1755 5.71972 9.2189 5.704 8.39373 5.91615C7.55884 6.1308 6.68113 6.62442 6.15229 7.46952L7.84771 8.53045ZM17.8477 7.46952C17.3189 6.62442 16.4412 6.1308 15.6063 5.91615C14.7811 5.70399 13.8245 5.7197 13.0528 6.10555L13.9472 7.89442C14.1755 7.78028 14.6119 7.72554 15.1083 7.85315C15.5949 7.97826 15.9672 8.23464 16.1523 8.53045L17.8477 7.46952ZM12 17V19C13.1046 19 14 18.1046 14 17H12ZM12 17H10C10 18.1046 10.8954 19 12 19V17ZM12 17V15C10.8954 15 10 15.8954 10 17H12ZM12 17H14C14 15.8954 13.1046 15 12 15V17ZM8.85156 11.35C8.85156 11.0738 9.07542 10.85 9.35156 10.85V12.85C10.18 12.85 10.8516 12.1784 10.8516 11.35H8.85156ZM9.35156 10.85C9.62771 10.85 9.85156 11.0738 9.85156 11.35H7.85156C7.85156 12.1784 8.52313 12.85 9.35156 12.85V10.85ZM9.85156 11.35C9.85156 11.6261 9.62771 11.85 9.35156 11.85V9.84998C8.52313 9.84998 7.85156 10.5215 7.85156 11.35H9.85156ZM9.35156 11.85C9.07542 11.85 8.85156 11.6261 8.85156 11.35H10.8516C10.8516 10.5215 10.18 9.84998 9.35156 9.84998V11.85ZM9.30078 12.3H9.30978V10.3H9.30078V12.3ZM14.15 11.3C14.15 10.9962 14.3962 10.75 14.7 10.75V12.75C15.5008 12.75 16.15 12.1008 16.15 11.3H14.15ZM14.7 10.75C15.0038 10.75 15.25 10.9962 15.25 11.3H13.25C13.25 12.1008 13.8992 12.75 14.7 12.75V10.75ZM15.25 11.3C15.25 11.6037 15.0038 11.85 14.7 11.85V9.84998C13.8992 9.84998 13.25 10.4992 13.25 11.3H15.25ZM14.7 11.85C14.3962 11.85 14.15 11.6037 14.15 11.3H16.15C16.15 10.4992 15.5008 9.84998 14.7 9.84998V11.85ZM14.6914 12.3H14.7004V10.3H14.6914V12.3Z" fill="#0000CC"/>
</svg>
