<svg width="24" height="24" viewBox="0 0 24 24" fill="none" xmlns="http://www.w3.org/2000/svg">
<path opacity="0.14" fill-rule="evenodd" clip-rule="evenodd" d="M12 21C16.9706 21 21 16.9706 21 12C21 7.02944 16.9706 3 12 3C7.02944 3 3 7.02944 3 12C3 16.9706 7.02944 21 12 21ZM12 18C13.3807 18 14.5 16.8807 14.5 15.5C14.5 14.1193 13.3807 13 12 13C10.6193 13 9.5 14.1193 9.5 15.5C9.5 16.8807 10.6193 18 12 18Z" fill="#0000CC"/>
<path d="M9.30078 9.30005H9.30978M14.6914 9.30005H14.7004M14.5 15.5C14.5 16.8807 13.3807 18 12 18C10.6193 18 9.5 16.8807 9.5 15.5C9.5 14.1193 10.6193 13 12 13C13.3807 13 14.5 14.1193 14.5 15.5ZM21 12C21 16.9706 16.9706 21 12 21C7.02944 21 3 16.9706 3 12C3 7.02944 7.02944 3 12 3C16.9706 3 21 7.02944 21 12ZM9.85156 9.34998C9.85156 9.62612 9.6277 9.84998 9.35156 9.84998C9.07542 9.84998 8.85156 9.62612 8.85156 9.34998C8.85156 9.07383 9.07542 8.84998 9.35156 8.84998C9.6277 8.84998 9.85156 9.07383 9.85156 9.34998ZM15.15 9.29998C15.15 9.5485 14.9485 9.74998 14.7 9.74998C14.4515 9.74998 14.25 9.5485 14.25 9.29998C14.25 9.05145 14.4515 8.84998 14.7 8.84998C14.9485 8.84998 15.15 9.05145 15.15 9.29998Z" stroke="#0000CC" stroke-width="2" stroke-linecap="round" stroke-linejoin="round"/>
</svg>
