<svg width="24" height="24" viewBox="0 0 24 24" fill="none" xmlns="http://www.w3.org/2000/svg">
<path opacity="0.14" fill-rule="evenodd" clip-rule="evenodd" d="M21 12C21 16.9706 16.9706 21 12 21C7.02944 21 3 16.9706 3 12C3 7.02944 7.02944 3 12 3C16.9706 3 21 7.02944 21 12ZM13.5 10.5C13.5 9.11929 14.6193 8 16 8C17.3807 8 18.5 9.11929 18.5 10.5C18.5 11.8807 17.3807 13 16 13C14.6193 13 13.5 11.8807 13.5 10.5ZM8 8C6.61929 8 5.5 9.11929 5.5 10.5C5.5 11.8807 6.61929 13 8 13C9.38071 13 10.5 11.8807 10.5 10.5C10.5 9.11929 9.38071 8 8 8Z" fill="#0000CC"/>
<path d="M16 8C15.4477 8 15 8.44772 15 9C15 9.55228 15.4477 10 16 10V8ZM16.009 10C16.5613 10 17.009 9.55228 17.009 9C17.009 8.44772 16.5613 8 16.009 8V10ZM8 8C7.44772 8 7 8.44772 7 9C7 9.55228 7.44772 10 8 10V8ZM8.009 10C8.56129 10 9.009 9.55228 9.009 9C9.009 8.44772 8.56129 8 8.009 8V10ZM9 16C8.44772 16 8 16.4477 8 17C8 17.5523 8.44772 18 9 18V16ZM15 18C15.5523 18 16 17.5523 16 17C16 16.4477 15.5523 16 15 16V18ZM20 12C20 16.4183 16.4183 20 12 20V22C17.5228 22 22 17.5228 22 12H20ZM12 20C7.58172 20 4 16.4183 4 12H2C2 17.5228 6.47715 22 12 22V20ZM4 12C4 7.58172 7.58172 4 12 4V2C6.47715 2 2 6.47715 2 12H4ZM12 4C16.4183 4 20 7.58172 20 12H22C22 6.47715 17.5228 2 12 2V4ZM16 12C15.1716 12 14.5 11.3284 14.5 10.5H12.5C12.5 12.433 14.067 14 16 14V12ZM17.5 10.5C17.5 11.3284 16.8284 12 16 12V14C17.933 14 19.5 12.433 19.5 10.5H17.5ZM16 9C16.8284 9 17.5 9.67157 17.5 10.5H19.5C19.5 8.567 17.933 7 16 7V9ZM16 7C14.067 7 12.5 8.567 12.5 10.5H14.5C14.5 9.67157 15.1716 9 16 9V7ZM8 12C7.17157 12 6.5 11.3284 6.5 10.5H4.5C4.5 12.433 6.067 14 8 14V12ZM9.5 10.5C9.5 11.3284 8.82843 12 8 12V14C9.933 14 11.5 12.433 11.5 10.5H9.5ZM8 9C8.82843 9 9.5 9.67157 9.5 10.5H11.5C11.5 8.567 9.933 7 8 7V9ZM8 7C6.067 7 4.5 8.567 4.5 10.5H6.5C6.5 9.67157 7.17157 9 8 9V7ZM16 10H16.009V8H16V10ZM8 10H8.009V8H8V10ZM9 18H15V16H9V18Z" fill="#0000CC"/>
</svg>
