<svg width="24" height="24" viewBox="0 0 24 24" fill="none" xmlns="http://www.w3.org/2000/svg">
<path opacity="0.14" fill-rule="evenodd" clip-rule="evenodd" d="M12 21C16.9706 21 21 16.9706 21 12C21 7.02944 16.9706 3 12 3C7.02944 3 3 7.02944 3 12C3 16.9706 7.02944 21 12 21ZM11.9072 13C9.99314 13 8.37037 14.4074 8.09968 16.3022C8.05178 16.6375 8.35618 16.9188 8.68813 16.8515C9.5229 16.6822 10.9488 16.4286 12 16.4286C13.0512 16.4286 14.4771 16.6822 15.3119 16.8515C15.6438 16.9188 15.9482 16.6375 15.9003 16.3022C15.6296 14.4074 14.0069 13 12.0928 13H11.9072Z" fill="#0000CC"/>
<path d="M7.5 8L10 9.5L7.5 11M16.5 8L14 9.5L16.5 11M21 12C21 16.9706 16.9706 21 12 21C7.02944 21 3 16.9706 3 12C3 7.02944 7.02944 3 12 3C16.9706 3 21 7.02944 21 12ZM12 16.4286C13.0512 16.4286 14.4771 16.6822 15.3119 16.8515C15.6438 16.9188 15.9482 16.6375 15.9003 16.3022C15.6296 14.4074 14.0069 13 12.0928 13H11.9072C9.99314 13 8.37037 14.4074 8.09968 16.3022C8.05178 16.6375 8.35618 16.9188 8.68813 16.8515C9.5229 16.6822 10.9488 16.4286 12 16.4286Z" stroke="#0000CC" stroke-width="2" stroke-linecap="round" stroke-linejoin="round"/>
</svg>
