<svg width="24" height="24" viewBox="0 0 24 24" fill="none" xmlns="http://www.w3.org/2000/svg">
<circle opacity="0.14" cx="12" cy="12" r="9" fill="#0000CC"/>
<path d="M8.21653 2.7408C7.70535 2.94987 7.46044 3.53375 7.66952 4.04493C7.87859 4.55612 8.46247 4.80102 8.97365 4.59195L8.21653 2.7408ZM4.31256 9.77725C4.46569 9.24662 4.15965 8.69232 3.62902 8.5392C3.09838 8.38608 2.54409 8.69212 2.39097 9.22275L4.31256 9.77725ZM9.20041 16.3995C8.86874 16.8411 8.95785 17.4679 9.39946 17.7996C9.84106 18.1313 10.4679 18.0421 10.7996 17.6005L9.20041 16.3995ZM13.2004 17.6005C13.5321 18.0421 14.1589 18.1313 14.6005 17.7996C15.0421 17.4679 15.1313 16.8411 14.7996 16.3995L13.2004 17.6005ZM7 10C6.44772 10 6 10.4477 6 11C6 11.5523 6.44772 12 7 12V10ZM10 12C10.5523 12 11 11.5523 11 11C11 10.4477 10.5523 10 10 10V12ZM14 10C13.4477 10 13 10.4477 13 11C13 11.5523 13.4477 12 14 12V10ZM17 12C17.5523 12 18 11.5523 18 11C18 10.4477 17.5523 10 17 10V12ZM5 3L5.92848 2.62861C5.77661 2.24895 5.4089 2 5 2C4.5911 2 4.22339 2.24895 4.07152 2.62861L5 3ZM5.91004 5.2751L6.83852 4.90371H6.83852L5.91004 5.2751ZM4.08996 5.2751L3.16148 4.90371L4.08996 5.2751ZM20 12C20 16.4183 16.4183 20 12 20V22C17.5228 22 22 17.5228 22 12H20ZM12 20C7.58172 20 4 16.4183 4 12H2C2 17.5228 6.47715 22 12 22V20ZM12 4C16.4183 4 20 7.58172 20 12H22C22 6.47715 17.5228 2 12 2V4ZM8.97365 4.59195C9.9059 4.21066 10.9271 4 12 4V2C10.663 2 9.38496 2.26292 8.21653 2.7408L8.97365 4.59195ZM4 12C4 11.2273 4.10927 10.4818 4.31256 9.77725L2.39097 9.22275C2.13619 10.1057 2 11.0378 2 12H4ZM12 15C10.8543 15 9.8372 15.5516 9.20041 16.3995L10.7996 17.6005C11.0749 17.234 11.51 17 12 17V15ZM14.7996 16.3995C14.1628 15.5516 13.1457 15 12 15V17C12.49 17 12.9251 17.234 13.2004 17.6005L14.7996 16.3995ZM7 12H10V10H7V12ZM14 12H17V10H14V12ZM5 5.74223V6H7V5.74223H5ZM5 6V5.74223H3V6H5ZM5.01844 5.64649L5.92848 3.37139L4.07152 2.62861L3.16148 4.90371L5.01844 5.64649ZM4.07152 3.37139L4.98156 5.64649L6.83852 4.90371L5.92848 2.62861L4.07152 3.37139ZM5 6H3C3 7.10457 3.89543 8 5 8V6ZM5 6V8C6.10457 8 7 7.10457 7 6H5ZM7 5.74223C7 5.45499 6.94519 5.1704 6.83852 4.90371L4.98156 5.64649C4.99374 5.67694 5 5.70943 5 5.74223H7ZM5 5.74223C5 5.70943 5.00626 5.67694 5.01844 5.64649L3.16148 4.90371C3.05481 5.1704 3 5.45499 3 5.74223H5Z" fill="#0000CC"/>
</svg>
