<svg width="24" height="24" viewBox="0 0 24 24" fill="none" xmlns="http://www.w3.org/2000/svg">
<circle opacity="0.14" cx="12" cy="12" r="9" fill="#0000CC"/>
<path d="M9.30078 8.30005C8.7485 8.30005 8.30078 8.74776 8.30078 9.30005C8.30078 9.85233 8.7485 10.3 9.30078 10.3V8.30005ZM9.30978 10.3C9.86207 10.3 10.3098 9.85233 10.3098 9.30005C10.3098 8.74776 9.86207 8.30005 9.30978 8.30005V10.3ZM14.6914 8.30005C14.1391 8.30005 13.6914 8.74776 13.6914 9.30005C13.6914 9.85233 14.1391 10.3 14.6914 10.3V8.30005ZM14.7004 10.3C15.2527 10.3 15.7004 9.85233 15.7004 9.30005C15.7004 8.74776 15.2527 8.30005 14.7004 8.30005V10.3ZM7.75746 15.0299C7.22167 15.1638 6.89591 15.7067 7.02986 16.2425C7.16381 16.7783 7.70674 17.1041 8.24254 16.9701L7.75746 15.0299ZM16.2425 14.9701C16.7783 14.8362 17.1041 14.2933 16.9701 13.7575C16.8362 13.2217 16.2933 12.8959 15.7575 13.0299L16.2425 14.9701ZM20 12C20 16.4183 16.4183 20 12 20V22C17.5228 22 22 17.5228 22 12H20ZM12 20C7.58172 20 4 16.4183 4 12H2C2 17.5228 6.47715 22 12 22V20ZM4 12C4 7.58172 7.58172 4 12 4V2C6.47715 2 2 6.47715 2 12H4ZM12 4C16.4183 4 20 7.58172 20 12H22C22 6.47715 17.5228 2 12 2V4ZM8.85156 9.34998C8.85156 9.07383 9.07542 8.84998 9.35156 8.84998V10.85C10.18 10.85 10.8516 10.1784 10.8516 9.34998H8.85156ZM9.35156 8.84998C9.62771 8.84998 9.85156 9.07384 9.85156 9.34998H7.85156C7.85156 10.1784 8.52313 10.85 9.35156 10.85V8.84998ZM9.85156 9.34998C9.85156 9.62612 9.6277 9.84998 9.35156 9.84998V7.84998C8.52313 7.84998 7.85156 8.52155 7.85156 9.34998H9.85156ZM9.35156 9.84998C9.07542 9.84998 8.85156 9.62612 8.85156 9.34998H10.8516C10.8516 8.52155 10.18 7.84998 9.35156 7.84998V9.84998ZM9.30078 10.3H9.30978V8.30005H9.30078V10.3ZM14.15 9.29998C14.15 8.99622 14.3962 8.74998 14.7 8.74998V10.75C15.5008 10.75 16.15 10.1008 16.15 9.29998H14.15ZM14.7 8.74998C15.0038 8.74998 15.25 8.99622 15.25 9.29998H13.25C13.25 10.1008 13.8992 10.75 14.7 10.75V8.74998ZM15.25 9.29998C15.25 9.60373 15.0038 9.84998 14.7 9.84998V7.84998C13.8992 7.84998 13.25 8.49916 13.25 9.29998H15.25ZM14.7 9.84998C14.3962 9.84998 14.15 9.60373 14.15 9.29998H16.15C16.15 8.49916 15.5008 7.84998 14.7 7.84998V9.84998ZM14.6914 10.3H14.7004V8.30005H14.6914V10.3ZM8.24254 16.9701L16.2425 14.9701L15.7575 13.0299L7.75746 15.0299L8.24254 16.9701Z" fill="#0000CC"/>
</svg>
