<svg width="24" height="24" viewBox="0 0 24 24" fill="none" xmlns="http://www.w3.org/2000/svg">
<path opacity="0.14" fill-rule="evenodd" clip-rule="evenodd" d="M21 12C21 16.9706 16.9706 21 12 21C7.02944 21 3 16.9706 3 12C3 7.02944 7.02944 3 12 3C16.9706 3 21 7.02944 21 12ZM4.23912 8.70797C4.11279 7.80564 4.8135 7 5.72463 7H9.27537C10.1865 7 10.8872 7.80564 10.7609 8.70797L10.4809 10.708C10.3772 11.4488 9.74344 12 8.99537 12H6.00463C5.25656 12 4.62283 11.4488 4.51912 10.708L4.23912 8.70797ZM14.7246 7C13.8135 7 13.1128 7.80564 13.2391 8.70797L13.5191 10.708C13.6228 11.4488 14.2566 12 15.0046 12H17.9954C18.7434 12 19.3772 11.4488 19.4809 10.708L19.7609 8.70797C19.8872 7.80564 19.1865 7 18.2754 7H14.7246Z" fill="#0000CC"/>
<path d="M10.5 7C9.94772 7 9.5 7.44772 9.5 8C9.5 8.55228 9.94772 9 10.5 9V7ZM13.5 9C14.0523 9 14.5 8.55228 14.5 8C14.5 7.44772 14.0523 7 13.5 7V9ZM3 6C2.44772 6 2 6.44772 2 7C2 7.55228 2.44772 8 3 8V6ZM21 8C21.5523 8 22 7.55228 22 7C22 6.44772 21.5523 6 21 6V8ZM8.79957 14.3994C8.46788 13.9578 7.84101 13.8687 7.39942 14.2004C6.95783 14.5321 6.86874 15.159 7.20043 15.6006L8.79957 14.3994ZM16.8003 15.6006C17.132 15.159 17.0429 14.5321 16.6013 14.2004C16.1597 13.8687 15.5329 13.9578 15.2012 14.3994L16.8003 15.6006ZM7.5 8.5C6.94772 8.5 6.5 8.94772 6.5 9.5C6.5 10.0523 6.94772 10.5 7.5 10.5V8.5ZM7.509 10.5C8.06129 10.5 8.509 10.0523 8.509 9.5C8.509 8.94772 8.06129 8.5 7.509 8.5V10.5ZM16.5 8.5C15.9477 8.5 15.5 8.94772 15.5 9.5C15.5 10.0523 15.9477 10.5 16.5 10.5V8.5ZM16.509 10.5C17.0613 10.5 17.509 10.0523 17.509 9.5C17.509 8.94772 17.0613 8.5 16.509 8.5V10.5ZM6.5 8H9V6H6.5V8ZM9.5 8.5V10.5H11.5V8.5H9.5ZM9 11H6.5V13H9V11ZM6 10.5V8.5H4V10.5H6ZM6.5 11C6.22386 11 6 10.7761 6 10.5H4C4 11.8807 5.11929 13 6.5 13V11ZM9.5 10.5C9.5 10.7761 9.27614 11 9 11V13C10.3807 13 11.5 11.8807 11.5 10.5H9.5ZM9 8C9.27614 8 9.5 8.22386 9.5 8.5H11.5C11.5 7.11929 10.3807 6 9 6V8ZM6.5 6C5.11929 6 4 7.11929 4 8.5H6C6 8.22386 6.22386 8 6.5 8V6ZM15 8H17.5V6H15V8ZM18 8.5V10.5H20V8.5H18ZM17.5 11H15V13H17.5V11ZM14.5 10.5V8.5H12.5V10.5H14.5ZM15 11C14.7239 11 14.5 10.7761 14.5 10.5H12.5C12.5 11.8807 13.6193 13 15 13V11ZM18 10.5C18 10.7761 17.7761 11 17.5 11V13C18.8807 13 20 11.8807 20 10.5H18ZM17.5 8C17.7761 8 18 8.22386 18 8.5H20C20 7.11929 18.8807 6 17.5 6V8ZM15 6C13.6193 6 12.5 7.11929 12.5 8.5H14.5C14.5 8.22386 14.7239 8 15 8V6ZM20 12C20 16.4183 16.4183 20 12 20V22C17.5228 22 22 17.5228 22 12H20ZM12 20C7.58172 20 4 16.4183 4 12H2C2 17.5228 6.47715 22 12 22V20ZM4 12C4 7.58172 7.58172 4 12 4V2C6.47715 2 2 6.47715 2 12H4ZM12 4C16.4183 4 20 7.58172 20 12H22C22 6.47715 17.5228 2 12 2V4ZM10.5 9H13.5V7H10.5V9ZM3 8H6.5V6H3V8ZM17.5 8H21V6H17.5V8ZM12.0004 16C10.6924 16 9.53103 15.3732 8.79957 14.3994L7.20043 15.6006C8.29339 17.0557 10.0367 18 12.0004 18V16ZM15.2012 14.3994C14.4697 15.3732 13.3084 16 12.0004 16V18C13.964 18 15.7073 17.0557 16.8003 15.6006L15.2012 14.3994ZM7.5 10.5H7.509V8.5H7.5V10.5ZM16.5 10.5H16.509V8.5H16.5V10.5Z" fill="#0000CC"/>
</svg>
