<svg width="24" height="24" viewBox="0 0 24 24" fill="none" xmlns="http://www.w3.org/2000/svg">
<path opacity="0.14" fill-rule="evenodd" clip-rule="evenodd" d="M12 21C16.9706 21 21 16.9706 21 12C21 7.02944 16.9706 3 12 3C7.02944 3 3 7.02944 3 12C3 16.9706 7.02944 21 12 21ZM11.9072 13C9.99314 13 8.37037 14.4074 8.09968 16.3022C8.05178 16.6375 8.35618 16.9188 8.68813 16.8515C9.5229 16.6822 10.9488 16.4286 12 16.4286C13.0512 16.4286 14.4771 16.6822 15.3119 16.8515C15.6438 16.9188 15.9482 16.6375 15.9003 16.3022C15.6296 14.4074 14.0069 13 12.0928 13H11.9072Z" fill="#0000CC"/>
<path d="M8.09968 16.3022L9.08963 16.4437L8.09968 16.3022ZM8.68813 16.8515L8.8869 17.8315L8.68813 16.8515ZM15.9003 16.3022L14.9104 16.4437L15.9003 16.3022ZM15.3119 16.8515L15.5107 15.8715L15.3119 16.8515ZM10.1061 10.4191C10.6137 10.6367 11.2016 10.4015 11.4191 9.89392C11.6367 9.38629 11.4015 8.79841 10.8939 8.58085L10.1061 10.4191ZM7.39392 7.08085C6.88629 6.8633 6.29841 7.09845 6.08085 7.60608C5.8633 8.11371 6.09845 8.70159 6.60608 8.91915L7.39392 7.08085ZM17.3939 8.91915C17.9015 8.70159 18.1367 8.11371 17.9191 7.60608C17.7016 7.09845 17.1137 6.8633 16.6061 7.08085L17.3939 8.91915ZM13.1061 8.58085C12.5985 8.79841 12.3633 9.38629 12.5809 9.89392C12.7984 10.4015 13.3863 10.6367 13.8939 10.4191L13.1061 8.58085ZM9.30078 9.30005C8.7485 9.30005 8.30078 9.74776 8.30078 10.3C8.30078 10.8523 8.7485 11.3 9.30078 11.3V9.30005ZM9.30978 11.3C9.86207 11.3 10.3098 10.8523 10.3098 10.3C10.3098 9.74776 9.86207 9.30005 9.30978 9.30005V11.3ZM14.6914 9.30005C14.1391 9.30005 13.6914 9.74776 13.6914 10.3C13.6914 10.8523 14.1391 11.3 14.6914 11.3V9.30005ZM14.7004 11.3C15.2527 11.3 15.7004 10.8523 15.7004 10.3C15.7004 9.74776 15.2527 9.30005 14.7004 9.30005V11.3ZM20 12C20 16.4183 16.4183 20 12 20V22C17.5228 22 22 17.5228 22 12H20ZM12 20C7.58172 20 4 16.4183 4 12H2C2 17.5228 6.47715 22 12 22V20ZM4 12C4 7.58172 7.58172 4 12 4V2C6.47715 2 2 6.47715 2 12H4ZM12 4C16.4183 4 20 7.58172 20 12H22C22 6.47715 17.5228 2 12 2V4ZM11.9072 14H12.0928V12H11.9072V14ZM15.5107 15.8715C14.6767 15.7023 13.1623 15.4286 12 15.4286V17.4286C12.9402 17.4286 14.2775 17.6621 15.1131 17.8315L15.5107 15.8715ZM12 15.4286C10.8377 15.4286 9.32327 15.7023 8.48935 15.8715L8.8869 17.8315C9.72252 17.6621 11.0598 17.4286 12 17.4286V15.4286ZM7.10973 16.1608C6.9618 17.1963 7.8936 18.033 8.8869 17.8315L8.48935 15.8715C8.81875 15.8046 9.14176 16.0788 9.08963 16.4437L7.10973 16.1608ZM14.9104 16.4437C14.8582 16.0788 15.1812 15.8046 15.5107 15.8715L15.1131 17.8315C16.1064 18.033 17.0382 17.1963 16.8903 16.1608L14.9104 16.4437ZM12.0928 14C13.5092 14 14.7101 15.0415 14.9104 16.4437L16.8903 16.1608C16.5492 13.7734 14.5045 12 12.0928 12V14ZM11.9072 12C9.49549 12 7.4508 13.7734 7.10973 16.1608L9.08963 16.4437C9.28994 15.0415 10.4908 14 11.9072 14V12ZM10.8939 8.58085L7.39392 7.08085L6.60608 8.91915L10.1061 10.4191L10.8939 8.58085ZM16.6061 7.08085L13.1061 8.58085L13.8939 10.4191L17.3939 8.91915L16.6061 7.08085ZM8.85156 10.35C8.85156 10.0738 9.07542 9.84998 9.35156 9.84998V11.85C10.18 11.85 10.8516 11.1784 10.8516 10.35H8.85156ZM9.35156 9.84998C9.62771 9.84998 9.85156 10.0738 9.85156 10.35H7.85156C7.85156 11.1784 8.52313 11.85 9.35156 11.85V9.84998ZM9.85156 10.35C9.85156 10.6261 9.6277 10.85 9.35156 10.85V8.84998C8.52313 8.84998 7.85156 9.52155 7.85156 10.35H9.85156ZM9.35156 10.85C9.07542 10.85 8.85156 10.6261 8.85156 10.35H10.8516C10.8516 9.52155 10.18 8.84998 9.35156 8.84998V10.85ZM9.30078 11.3H9.30978V9.30005H9.30078V11.3ZM14.15 10.3C14.15 9.99622 14.3962 9.74998 14.7 9.74998V11.75C15.5008 11.75 16.15 11.1008 16.15 10.3H14.15ZM14.7 9.74998C15.0038 9.74998 15.25 9.99622 15.25 10.3H13.25C13.25 11.1008 13.8992 11.75 14.7 11.75V9.74998ZM15.25 10.3C15.25 10.6037 15.0038 10.85 14.7 10.85V8.84998C13.8992 8.84998 13.25 9.49916 13.25 10.3H15.25ZM14.7 10.85C14.3962 10.85 14.15 10.6037 14.15 10.3H16.15C16.15 9.49916 15.5008 8.84998 14.7 8.84998V10.85ZM14.6914 11.3H14.7004V9.30005H14.6914V11.3Z" fill="#0000CC"/>
</svg>
