<svg width="24" height="24" viewBox="0 0 24 24" fill="none" xmlns="http://www.w3.org/2000/svg">
<circle opacity="0.14" cx="12" cy="12" r="9" fill="#0000CC"/>
<path d="M10.1061 10.4191C10.6137 10.6367 11.2016 10.4015 11.4191 9.89392C11.6367 9.38629 11.4015 8.79841 10.8939 8.58085L10.1061 10.4191ZM7.39392 7.08085C6.88629 6.8633 6.29841 7.09845 6.08085 7.60608C5.8633 8.11371 6.09845 8.70159 6.60608 8.91915L7.39392 7.08085ZM17.3939 8.91915C17.9015 8.70159 18.1367 8.11371 17.9191 7.60608C17.7016 7.09845 17.1137 6.8633 16.6061 7.08085L17.3939 8.91915ZM13.1061 8.58085C12.5985 8.79841 12.3633 9.38629 12.5809 9.89392C12.7984 10.4015 13.3863 10.6367 13.8939 10.4191L13.1061 8.58085ZM8.30078 9.30005C7.7485 9.30005 7.30078 9.74776 7.30078 10.3C7.30078 10.8523 7.7485 11.3 8.30078 11.3V9.30005ZM8.30978 11.3C8.86207 11.3 9.30978 10.8523 9.30978 10.3C9.30978 9.74776 8.86207 9.30005 8.30978 9.30005V11.3ZM15.6914 9.30005C15.1391 9.30005 14.6914 9.74776 14.6914 10.3C14.6914 10.8523 15.1391 11.3 15.6914 11.3V9.30005ZM15.7004 11.3C16.2527 11.3 16.7004 10.8523 16.7004 10.3C16.7004 9.74776 16.2527 9.30005 15.7004 9.30005V11.3ZM8.33616 16.2521C7.92312 16.6188 7.8855 17.2508 8.25212 17.6638C8.61875 18.0769 9.2508 18.1145 9.66384 17.7479L8.33616 16.2521ZM14.3362 17.7479C14.7492 18.1145 15.3812 18.0769 15.7479 17.6638C16.1145 17.2508 16.0769 16.6188 15.6638 16.2521L14.3362 17.7479ZM20 12C20 16.4183 16.4183 20 12 20V22C17.5228 22 22 17.5228 22 12H20ZM12 20C7.58172 20 4 16.4183 4 12H2C2 17.5228 6.47715 22 12 22V20ZM4 12C4 7.58172 7.58172 4 12 4V2C6.47715 2 2 6.47715 2 12H4ZM12 4C16.4183 4 20 7.58172 20 12H22C22 6.47715 17.5228 2 12 2V4ZM10.8939 8.58085L7.39392 7.08085L6.60608 8.91915L10.1061 10.4191L10.8939 8.58085ZM16.6061 7.08085L13.1061 8.58085L13.8939 10.4191L17.3939 8.91915L16.6061 7.08085ZM7.85156 10.35C7.85156 10.0738 8.07542 9.84998 8.35156 9.84998V11.85C9.17999 11.85 9.85156 11.1784 9.85156 10.35H7.85156ZM8.35156 9.84998C8.62771 9.84998 8.85156 10.0738 8.85156 10.35H6.85156C6.85156 11.1784 7.52314 11.85 8.35156 11.85V9.84998ZM8.85156 10.35C8.85156 10.6261 8.62771 10.85 8.35156 10.85V8.84998C7.52314 8.84998 6.85156 9.52155 6.85156 10.35H8.85156ZM8.35156 10.85C8.07542 10.85 7.85156 10.6261 7.85156 10.35H9.85156C9.85156 9.52155 9.17999 8.84998 8.35156 8.84998V10.85ZM8.30078 11.3H8.30978V9.30005H8.30078V11.3ZM15.15 10.3C15.15 9.99622 15.3962 9.74998 15.7 9.74998V11.75C16.5008 11.75 17.15 11.1008 17.15 10.3H15.15ZM15.7 9.74998C16.0038 9.74998 16.25 9.99622 16.25 10.3H14.25C14.25 11.1008 14.8992 11.75 15.7 11.75V9.74998ZM16.25 10.3C16.25 10.6037 16.0038 10.85 15.7 10.85V8.84998C14.8992 8.84998 14.25 9.49916 14.25 10.3H16.25ZM15.7 10.85C15.3962 10.85 15.15 10.6037 15.15 10.3H17.15C17.15 9.49916 16.5008 8.84998 15.7 8.84998V10.85ZM15.6914 11.3H15.7004V9.30005H15.6914V11.3ZM12 15C10.5803 15 9.23854 15.4511 8.33616 16.2521L9.66384 17.7479C10.1296 17.3344 10.9662 17 12 17V15ZM15.6638 16.2521C14.7615 15.4511 13.4197 15 12 15V17C13.0338 17 13.8704 17.3344 14.3362 17.7479L15.6638 16.2521Z" fill="#0000CC"/>
</svg>
