<svg width="24" height="24" viewBox="0 0 24 24" fill="none" xmlns="http://www.w3.org/2000/svg">
<path opacity="0.14" d="M12 3C7.58172 3 4 6.58172 4 11C4 12.4063 4.36284 13.7278 5 14.876H19C19.6372 13.7278 20 12.4063 20 11C20 6.58172 16.4183 3 12 3Z" fill="#0000CC"/>
<path d="M8.0145 7.14251C7.54092 6.85836 6.92666 7.01192 6.64251 7.4855C6.35836 7.95908 6.51192 8.57334 6.9855 8.85749L8.0145 7.14251ZM10 9.5L10.5145 10.3575C10.8157 10.1768 11 9.85126 11 9.5C11 9.14874 10.8157 8.82323 10.5145 8.64251L10 9.5ZM6.9855 10.1425C6.51192 10.4267 6.35836 11.0409 6.64251 11.5145C6.92666 11.9881 7.54092 12.1416 8.0145 11.8575L6.9855 10.1425ZM17.0145 8.85749C17.4881 8.57334 17.6416 7.95908 17.3575 7.4855C17.0733 7.01192 16.4591 6.85836 15.9855 7.14251L17.0145 8.85749ZM14 9.5L13.4855 8.64251C13.1843 8.82323 13 9.14874 13 9.5C13 9.85126 13.1843 10.1768 13.4855 10.3575L14 9.5ZM15.9855 11.8575C16.4591 12.1416 17.0733 11.9881 17.3575 11.5145C17.6416 11.0409 17.4881 10.4267 17.0145 10.1425L15.9855 11.8575ZM7.25316 13.835C6.88589 14.2475 6.92253 14.8796 7.335 15.2468C7.74747 15.6141 8.37957 15.5775 8.74684 15.165L7.25316 13.835ZM15.2532 15.165C15.6204 15.5775 16.2525 15.6141 16.665 15.2468C17.0775 14.8796 17.1141 14.2475 16.7468 13.835L15.2532 15.165ZM17 21V22C17.4426 22 17.8325 21.7091 17.9586 21.2848C18.0846 20.8606 17.9168 20.4039 17.5461 20.1623L17 21ZM7 21L6.45392 20.1623C6.08316 20.4039 5.91536 20.8606 6.04142 21.2848C6.16749 21.7091 6.55742 22 7 22V21ZM10.2863 17.0666C10.3231 16.5156 9.90619 16.039 9.35513 16.0022C8.80407 15.9654 8.32751 16.3823 8.29071 16.9334L10.2863 17.0666ZM15.3585 16.8092C15.2532 16.2671 14.7282 15.913 14.1861 16.0184C13.644 16.1238 13.2899 16.6487 13.3953 17.1908L15.3585 16.8092ZM18.1256 14.3908C17.8576 14.8737 18.0319 15.4824 18.5148 15.7504C18.9977 16.0184 19.6064 15.8441 19.8744 15.3612L18.1256 14.3908ZM4.1256 15.3612C4.39357 15.8441 5.00229 16.0184 5.4852 15.7504C5.96812 15.4824 6.14237 14.8737 5.8744 14.3908L4.1256 15.3612ZM3.5 18.5C2.94772 18.5 2.5 18.9477 2.5 19.5C2.5 20.0523 2.94772 20.5 3.5 20.5V18.5ZM3.509 20.5C4.06129 20.5 4.509 20.0523 4.509 19.5C4.509 18.9477 4.06129 18.5 3.509 18.5V20.5ZM20.5 18.5C19.9477 18.5 19.5 18.9477 19.5 19.5C19.5 20.0523 19.9477 20.5 20.5 20.5V18.5ZM20.509 20.5C21.0613 20.5 21.509 20.0523 21.509 19.5C21.509 18.9477 21.0613 18.5 20.509 18.5V20.5ZM6.9855 8.85749L9.4855 10.3575L10.5145 8.64251L8.0145 7.14251L6.9855 8.85749ZM9.4855 8.64251L6.9855 10.1425L8.0145 11.8575L10.5145 10.3575L9.4855 8.64251ZM15.9855 7.14251L13.4855 8.64251L14.5145 10.3575L17.0145 8.85749L15.9855 7.14251ZM13.4855 10.3575L15.9855 11.8575L17.0145 10.1425L14.5145 8.64251L13.4855 10.3575ZM8.74684 15.165C9.30459 14.5386 10.4893 14 12 14V12C10.0922 12 8.29228 12.668 7.25316 13.835L8.74684 15.165ZM12 14C13.5107 14 14.6954 14.5386 15.2532 15.165L16.7468 13.835C15.7077 12.668 13.9078 12 12 12V14ZM17 20H7V22H17V20ZM7.54608 21.8377C9.72265 20.4189 10.2048 18.2862 10.2863 17.0666L8.29071 16.9334C8.23117 17.8247 7.89484 19.223 6.45392 20.1623L7.54608 21.8377ZM13.3953 17.1908C13.6274 18.385 14.3291 20.4527 16.4539 21.8377L17.5461 20.1623C16.0534 19.1893 15.5367 17.726 15.3585 16.8092L13.3953 17.1908ZM5 11C5 7.13401 8.13401 4 12 4V2C7.02944 2 3 6.02944 3 11H5ZM12 4C15.866 4 19 7.13401 19 11H21C21 6.02944 16.9706 2 12 2V4ZM19 11C19 12.2322 18.6825 13.3872 18.1256 14.3908L19.8744 15.3612C20.5918 14.0683 21 12.5803 21 11H19ZM5.8744 14.3908C5.3175 13.3872 5 12.2322 5 11H3C3 12.5803 3.40817 14.0683 4.1256 15.3612L5.8744 14.3908ZM3.5 20.5H3.509V18.5H3.5V20.5ZM20.5 20.5H20.509V18.5H20.5V20.5Z" fill="#0000CC"/>
</svg>
