<svg width="24" height="24" viewBox="0 0 24 24" fill="none" xmlns="http://www.w3.org/2000/svg">
<circle opacity="0.14" cx="12" cy="12" r="9" fill="#0000CC"/>
<path d="M14 9.5C14.4413 9.182 14.9536 9 15.5 9C16.0464 9 16.5587 9.182 17 9.5M7 9.5C7.44126 9.182 7.95357 9 8.5 9C9.04643 9 9.55874 9.182 10 9.5M8 15C8.91221 16.2144 10.3645 17 12.0004 17C13.6362 17 15.0885 16.2144 16.0007 15M21 12C21 16.9706 16.9706 21 12 21C7.02944 21 3 16.9706 3 12C3 7.02944 7.02944 3 12 3C16.9706 3 21 7.02944 21 12Z" stroke="#0000CC" stroke-width="2" stroke-linecap="round" stroke-linejoin="round"/>
</svg>
