<svg width="24" height="24" viewBox="0 0 24 24" fill="none" xmlns="http://www.w3.org/2000/svg">
<circle opacity="0.14" cx="12" cy="12" r="9" fill="#0000CC"/>
<path d="M14 10.5C14.4413 10.182 14.9536 10 15.5 10C16.0464 10 16.5587 10.182 17 10.5M8 15C8.91221 16.2144 10.3645 17 12.0004 17C13.6362 17 15.0885 16.2144 16.0007 15M9.30078 10.3H9.30978M21 12C21 16.9706 16.9706 21 12 21C7.02944 21 3 16.9706 3 12C3 7.02944 7.02944 3 12 3C16.9706 3 21 7.02944 21 12ZM9.85156 10.35C9.85156 10.6261 9.6277 10.85 9.35156 10.85C9.07542 10.85 8.85156 10.6261 8.85156 10.35C8.85156 10.0738 9.07542 9.84998 9.35156 9.84998C9.6277 9.84998 9.85156 10.0738 9.85156 10.35Z" stroke="#0000CC" stroke-width="2" stroke-linecap="round" stroke-linejoin="round"/>
</svg>
