<svg width="24" height="24" viewBox="0 0 24 24" fill="none" xmlns="http://www.w3.org/2000/svg">
<path opacity="0.14" d="M13 3H8.2C7.0799 3 6.51984 3 6.09202 3.21799C5.71569 3.40973 5.40973 3.71569 5.21799 4.09202C5 4.51984 5 5.0799 5 6.2V17.8C5 18.9201 5 19.4802 5.21799 19.908C5.40973 20.2843 5.71569 20.5903 6.09202 20.782C6.51984 21 7.0799 21 8.2 21H15.8C16.3532 21 16.7698 21 17.1013 20.9737C15.6329 20.7788 14.5 19.5217 14.5 18C14.5 16.3431 15.8431 15 17.5 15C18.0464 15 18.5587 15.1461 19 15.4013V9H14.6C14.0399 9 13.7599 9 13.546 8.89101C13.3578 8.79513 13.2049 8.64215 13.109 8.45399C13 8.24008 13 7.96005 13 7.4V3Z" fill="#0000CC"/>
<path d="M13 3V7.4C13 7.96005 13 8.24008 13.109 8.45399C13.2049 8.64215 13.3578 8.79513 13.546 8.89101C13.7599 9 14.0399 9 14.6 9H19M13 3H8.2C7.0799 3 6.51984 3 6.09202 3.21799C5.71569 3.40973 5.40973 3.71569 5.21799 4.09202C5 4.51984 5 5.0799 5 6.2V17.8C5 18.9201 5 19.4802 5.21799 19.908C5.40973 20.2843 5.71569 20.5903 6.09202 20.782C6.51984 21 7.0799 21 8.2 21H10.5M13 3L19 9M19 9V11M21 14.5V17.5H18M19.5 20.2361C18.9692 20.7111 18.2684 21 17.5 21C15.8431 21 14.5 19.6569 14.5 18C14.5 16.3431 15.8431 15 17.5 15C18.8062 15 19.9175 15.8348 20.3293 17" stroke="#0000CC" stroke-width="2" stroke-linecap="round" stroke-linejoin="round"/>
</svg>
