<svg width="24" height="24" viewBox="0 0 24 24" fill="none" xmlns="http://www.w3.org/2000/svg">
<g opacity="0.14">
<path d="M14.4 13H9.6C9.03995 13 8.75992 13 8.54601 12.891C8.35785 12.7951 8.20487 12.6422 8.10899 12.454C8 12.2401 8 11.9601 8 11.4V4.6C8 4.03995 8 3.75992 8.10899 3.54601C8.20487 3.35785 8.35785 3.20487 8.54601 3.10899C8.75992 3 9.03995 3 9.6 3H11.8193C11.8882 3 11.9476 3 12 3.0006V6.4C12 6.96005 12 7.24008 12.109 7.45399C12.2049 7.64215 12.3578 7.79513 12.546 7.89101C12.7599 8 13.0399 8 13.6 8H16V11.4C16 11.9601 16 12.2401 15.891 12.454C15.7951 12.6422 15.6422 12.7951 15.454 12.891C15.2401 13 14.9601 13 14.4 13Z" fill="#0000CC"/>
<path d="M12 21C13.1046 21 14 20.1046 14 19C14 17.8954 13.1046 17 12 17C10.8954 17 10 17.8954 10 19C10 20.1046 10.8954 21 12 21Z" fill="#0000CC"/>
</g>
<path d="M14 19C14 20.1046 13.1046 21 12 21C10.8954 21 10 20.1046 10 19M14 19C14 17.8954 13.1046 17 12 17M14 19H21M10 19C10 17.8954 10.8954 17 12 17M10 19H3M12 17V13M12 3.0006V6.4C12 6.96005 12 7.24008 12.109 7.45399C12.2049 7.64215 12.3578 7.79513 12.546 7.89101C12.7599 8 13.0399 8 13.6 8H16M12 3.0006C11.9476 3 11.8882 3 11.8193 3H9.6C9.03995 3 8.75992 3 8.54601 3.10899C8.35785 3.20487 8.20487 3.35785 8.10899 3.54601C8 3.75992 8 4.03995 8 4.6V11.4C8 11.9601 8 12.2401 8.10899 12.454C8.20487 12.6422 8.35785 12.7951 8.54601 12.891C8.75992 13 9.03995 13 9.6 13H14.4C14.9601 13 15.2401 13 15.454 12.891C15.6422 12.7951 15.7951 12.6422 15.891 12.454C16 12.2401 16 11.9601 16 11.4V8M12 3.0006C12.1386 3.00218 12.2281 3.00795 12.3136 3.02898C12.4179 3.05468 12.5175 3.09703 12.6084 3.15442C12.7109 3.21916 12.798 3.30959 12.9721 3.49045L15.5528 6.17172C15.718 6.34333 15.8005 6.42914 15.8596 6.52838C15.9119 6.61638 15.9504 6.71188 15.9737 6.81156C16 6.92398 16 7.04307 16 7.28127V8" stroke="#0000CC" stroke-width="2" stroke-linecap="round" stroke-linejoin="round"/>
</svg>
