<svg width="24" height="24" viewBox="0 0 24 24" fill="none" xmlns="http://www.w3.org/2000/svg">
<path opacity="0.14" d="M16.5327 4H6.2C5.0799 4 4.51984 4 4.09202 4.21799C3.71569 4.40973 3.40973 4.71569 3.21799 5.09202C3 5.51984 3 6.0799 3 7.2V17.7121C3 17.9795 3 18.1132 3.01277 18.2256C3.11789 19.1515 3.8485 19.8821 4.77438 19.9872C4.88683 20 5.02051 20 5.28788 20H14.1035C14.1909 20 14.2333 19.8902 14.1716 19.8284C13.3905 19.0474 13 18.0237 13 17C13 16.2696 13.1988 15.5391 13.5965 14.8968C13.8273 14.524 14.1788 14.273 14.4421 14.6236C14.7142 14.986 15.5052 14.9649 15.5829 14.5184C15.6946 13.8767 15.9383 13.1764 16.4258 12.5678C16.712 12.2106 17.2886 12.2942 17.6504 12.5745C18.2225 13.0178 19 12.5189 19 11.7951V6.46734C19 6.03309 19 5.81596 18.9664 5.63501C18.8154 4.82127 18.1787 4.18463 17.365 4.03359C17.184 4 16.9669 4 16.5327 4Z" fill="#0000CC"/>
<path d="M9.5 20H6.2C5.0799 20 4.51984 20 4.09202 19.782C3.71569 19.5903 3.40973 19.2843 3.21799 18.908C3 18.4802 3 17.9201 3 16.8V7.2C3 6.0799 3 5.51984 3.21799 5.09202C3.40973 4.71569 3.71569 4.40973 4.09202 4.21799C4.51984 4 5.0799 4 6.2 4H15.8C16.9201 4 17.4802 4 17.908 4.21799C18.2843 4.40973 18.5903 4.71569 18.782 5.09202C19 5.51984 19 6.0799 19 7.2V8H3M3 12H11V8M3 16H9M7 4V8M7 12V16M15 4V8M19.8284 19.8284C18.2663 21.3905 15.7337 21.3905 14.1716 19.8284C13.3905 19.0474 13 18.0237 13 17C13 15.9763 13.3905 14.9526 14.1716 14.1716C14.1716 14.1716 14.5 15 15.5 15.5C15.5 14.5 15.75 13 16.9929 12C18 13 19.0456 13.3887 19.8284 14.1716C20.6095 14.9526 21 15.9763 21 17C21 18.0237 20.6095 19.0474 19.8284 19.8284Z" stroke="#0000CC" stroke-width="2" stroke-linecap="round" stroke-linejoin="round"/>
</svg>
