<svg width="24" height="24" viewBox="0 0 24 24" fill="none" xmlns="http://www.w3.org/2000/svg">
<path opacity="0.14" fill-rule="evenodd" clip-rule="evenodd" d="M6.34315 18.6569C9.46734 21.781 14.5327 21.781 17.6569 18.6569C19.2189 17.0948 20 15.0474 20 13C20 10.9526 19.219 8.90524 17.6569 7.34314C16.9192 6.60547 16.0649 6.04278 15.1569 5.44476C14.1378 4.77349 13.0511 4.05771 11.9859 3C9.50004 4.99996 9.00005 7.99996 9.00005 9.99996C7.00004 8.99996 6.34315 7.34314 6.34315 7.34314C4.78105 8.90524 4 10.9526 4 13C4 15.0474 4.78105 17.0948 6.34315 18.6569ZM9.87868 17.9586C11.0503 19.3471 12.9497 19.3471 14.1213 17.9586C14.7071 17.2643 15 16.3544 15 15.4444C15 14.5345 14.7071 13.6245 14.1213 12.9303C13.8447 12.6024 13.5243 12.3523 13.1839 12.0866C12.8017 11.7882 12.3941 11.4701 11.9947 11C11.0625 11.8889 10.875 13.2222 10.875 14.1111C10.125 13.6666 9.87868 12.9303 9.87868 12.9303C9.29289 13.6245 9 14.5345 9 15.4444C9 16.3544 9.29289 17.2643 9.87868 17.9586Z" fill="#0000CC"/>
<path d="M6.34315 18.6569C9.46734 21.781 14.5327 21.781 17.6569 18.6569C19.2189 17.0948 20 15.0474 20 13C20 10.9526 19.219 8.90524 17.6569 7.34314C16.0912 5.77745 14 5 11.9859 3C9.50004 4.99996 9.00005 7.99996 9.00005 9.99996C7.00004 8.99996 6.34315 7.34314 6.34315 7.34314C4.78105 8.90524 4 10.9526 4 13C4 15.0474 4.78105 17.0948 6.34315 18.6569Z" stroke="#0000CC" stroke-width="2" stroke-linecap="round" stroke-linejoin="round"/>
</svg>
