<svg width="24" height="24" viewBox="0 0 24 24" fill="none" xmlns="http://www.w3.org/2000/svg">
<path opacity="0.14" d="M15 6.99856H8V3.00005C7.01165 3.00082 6.49359 3.01338 6.09202 3.21799C5.71569 3.40973 5.40973 3.71569 5.21799 4.09202C5 4.51984 5 5.07989 5 6.2V17.8C5 18.9201 5 19.4802 5.21799 19.908C5.40973 20.2843 5.71569 20.5903 6.09202 20.782C6.51984 21 7.0799 21 8.2 21H15.8C16.9201 21 17.4802 21 17.908 20.782C18.2843 20.5903 18.5903 20.2843 18.782 19.908C19 19.4802 19 18.9201 19 17.8V9.1225C19 8.70646 19 8.49845 18.9592 8.29948C18.9229 8.12295 18.863 7.95213 18.781 7.79166C18.6886 7.61078 18.5587 7.44834 18.2988 7.12348L15.9608 4.20098C15.608 3.75994 15.4315 3.53943 15.2126 3.3807C15.1445 3.33134 15.0735 3.28642 15 3.24615V6.99856Z" fill="#0000CC"/>
<path d="M8 3.00005C8.06462 3 8.13126 3 8.2 3H13.462C14.0268 3 14.3092 3 14.5699 3.07183C14.7198 3.11313 14.8641 3.17169 15 3.24615M8 3.00005C7.01165 3.00082 6.49359 3.01338 6.09202 3.21799C5.71569 3.40973 5.40973 3.71569 5.21799 4.09202C5 4.51984 5 5.07989 5 6.2V17.8C5 18.9201 5 19.4802 5.21799 19.908C5.40973 20.2843 5.71569 20.5903 6.09202 20.782C6.51984 21 7.0799 21 8.2 21H15.8C16.9201 21 17.4802 21 17.908 20.782C18.2843 20.5903 18.5903 20.2843 18.782 19.908C19 19.4802 19 18.9201 19 17.8V9.1225C19 8.70646 19 8.49845 18.9592 8.29948C18.9229 8.12295 18.863 7.95213 18.781 7.79166C18.6886 7.61078 18.5587 7.44834 18.2988 7.12348L15.9608 4.20098C15.608 3.75994 15.4315 3.53943 15.2126 3.3807C15.1445 3.33134 15.0735 3.28642 15 3.24615M8 3.00005V6.99856H15V3.24615M15 14.9986C15 16.6554 13.6569 17.9986 12 17.9986C10.3431 17.9986 9 16.6554 9 14.9986C9 13.3417 10.3431 11.9986 12 11.9986C13.6569 11.9986 15 13.3417 15 14.9986Z" stroke="#0000CC" stroke-width="2" stroke-linecap="round" stroke-linejoin="round"/>
</svg>
