<svg width="24" height="24" viewBox="0 0 24 24" fill="none" xmlns="http://www.w3.org/2000/svg">
<path opacity="0.14" d="M13.8765 9.50122C14.9442 10.3554 15.4781 10.7825 15.6713 11.2984C15.8408 11.7508 15.8408 12.2492 15.6713 12.7016C15.4781 13.2176 14.9442 13.6446 13.8765 14.4988L9.59951 17.9204C8.76734 18.5861 8.35125 18.919 8.00108 18.9194C7.69654 18.9197 7.40845 18.7812 7.21846 18.5432C7 18.2696 7 17.7367 7 16.671V7.329C7 6.2633 7 5.73045 7.21846 5.45678C7.40845 5.21876 7.69654 5.0803 8.00108 5.08063C8.35125 5.08101 8.76734 5.41387 9.59951 6.07961L13.8765 9.50122Z" fill="#0000CC"/>
<path d="M17 5V19M7 7.329V16.671C7 17.7367 7 18.2695 7.21846 18.5432C7.40845 18.7812 7.69654 18.9197 8.00108 18.9194C8.35125 18.919 8.76734 18.5861 9.59951 17.9204L13.8765 14.4988C14.9442 13.6446 15.4781 13.2176 15.6713 12.7016C15.8408 12.2492 15.8408 11.7508 15.6713 11.2984C15.4781 10.7824 14.9442 10.3554 13.8765 9.50122L9.59951 6.07961C8.76734 5.41387 8.35125 5.081 8.00108 5.08063C7.69654 5.0803 7.40845 5.21876 7.21846 5.45677C7 5.73045 7 6.2633 7 7.329Z" stroke="#0000CC" stroke-width="2" stroke-linecap="round" stroke-linejoin="round"/>
</svg>
