<svg width="24" height="24" viewBox="0 0 24 24" fill="none" xmlns="http://www.w3.org/2000/svg">
<path opacity="0.14" d="M2 15C2 18.3137 4.68629 21 8 21C9.53671 21 10.9385 20.4223 12 19.4722C13.0577 20.4058 14.4783 21 16 21C19.3137 21 22 18.3137 22 15C22 11.6863 19.3137 9 16 9H8C4.68629 9 2 11.6863 2 15Z" fill="#0000CC"/>
<path d="M6 15H10M8 13V17M18 16H18.01M15 14H15.01M16 3V6H12V9M8 21C4.68629 21 2 18.3137 2 15C2 11.6863 4.68629 9 8 9H16C19.3137 9 22 11.6863 22 15C22 18.3137 19.3137 21 16 21C14.4783 21 13.0577 20.4058 12 19.4722C10.9385 20.4223 9.53671 21 8 21Z" stroke="#0000CC" stroke-width="2" stroke-linecap="round" stroke-linejoin="round"/>
</svg>
