<svg width="24" height="24" viewBox="0 0 24 24" fill="none" xmlns="http://www.w3.org/2000/svg">
<path opacity="0.14" d="M13.5512 5H10.4491C7.8242 5 6.51176 5 5.48159 5.49743C4.57458 5.9354 3.82098 6.63709 3.31951 7.51059C2.74994 8.5027 2.65644 9.81181 2.46942 12.43L2.22339 15.8745C2.10275 17.5634 3.44037 19 5.13359 19C5.99949 19 6.82064 18.6154 7.37497 17.9502L7.75013 17.5C8.09329 17.0882 8.26487 16.8823 8.46024 16.7159C8.86981 16.3672 9.36563 16.1349 9.89577 16.0436C10.1487 16 10.4167 16 10.9527 16H13.0476C13.5836 16 13.8516 16 14.1045 16.0436C14.6346 16.1349 15.1305 16.3672 15.54 16.7159C15.7354 16.8823 15.907 17.0882 16.2501 17.5L16.6253 17.9502C17.1796 18.6154 18.0008 19 18.8667 19C20.5599 19 21.8975 17.5634 21.7769 15.8745L21.5309 12.43C21.3438 9.81181 21.2503 8.5027 20.6808 7.51059C20.1793 6.63709 19.4257 5.9354 18.5187 5.49743C17.4885 5 16.1761 5 13.5512 5Z" fill="#0000CC"/>
<path d="M6.00014 11H10.0001M8.00014 9V13M15.0001 12H15.0101M18.0001 10H18.0101M10.4491 5H13.5512C16.1761 5 17.4885 5 18.5187 5.49743C19.4257 5.9354 20.1793 6.63709 20.6808 7.51059C21.2503 8.5027 21.3438 9.81181 21.5309 12.43L21.7769 15.8745C21.8975 17.5634 20.5599 19 18.8667 19C18.0008 19 17.1796 18.6154 16.6253 17.9502L16.2501 17.5C15.907 17.0882 15.7354 16.8823 15.54 16.7159C15.1305 16.3672 14.6346 16.1349 14.1045 16.0436C13.8516 16 13.5836 16 13.0476 16H10.9527C10.4167 16 10.1487 16 9.89577 16.0436C9.36563 16.1349 8.86981 16.3672 8.46024 16.7159C8.26487 16.8823 8.09329 17.0882 7.75013 17.5L7.37497 17.9502C6.82064 18.6154 5.99949 19 5.13359 19C3.44037 19 2.10275 17.5634 2.22339 15.8745L2.46942 12.43C2.65644 9.81181 2.74994 8.5027 3.31951 7.51059C3.82098 6.63709 4.57458 5.9354 5.48159 5.49743C6.51176 5 7.8242 5 10.4491 5Z" stroke="#0000CC" stroke-width="2" stroke-linecap="round" stroke-linejoin="round"/>
</svg>
