<svg width="24" height="24" viewBox="0 0 24 24" fill="none" xmlns="http://www.w3.org/2000/svg">
<path opacity="0.14" d="M7.0441 3.05289L12 8.99997L16.9559 3.05286C16.9894 3.06957 17.0209 3.09001 17.0499 3.11387C17.1073 3.16101 17.1507 3.22613 17.2375 3.35638L20.6861 8.52919C20.7991 8.69873 20.8556 8.78354 20.8759 8.87474C20.8938 8.95529 20.8915 9.03902 20.8691 9.11846C20.8439 9.2084 20.7827 9.28991 20.6605 9.45293L12.64 20.1468C12.4229 20.4363 12.3144 20.581 12.1813 20.6328C12.0647 20.6781 11.9354 20.6781 11.8188 20.6328C11.6857 20.581 11.5772 20.4363 11.3601 20.1468L3.33966 9.45295C3.21738 9.28992 3.15625 9.2084 3.13096 9.11846C3.10863 9.03902 3.10631 8.95529 3.1242 8.87474C3.14445 8.78353 3.20097 8.69875 3.31401 8.52919L6.76256 3.35638C6.84939 3.22613 6.8928 3.16101 6.95016 3.11387C6.97916 3.09003 7.01068 3.06959 7.0441 3.05289Z" fill="#0000CC"/>
<path d="M3.11328 9H20.8882M16.9597 3.05469L12 9.0001L7.04883 3.05078M7 3H17L21 9L12 21L3 9L7 3Z" stroke="#0000CC" stroke-width="2" stroke-linejoin="round"/>
</svg>
