<svg width="24" height="24" viewBox="0 0 24 24" fill="none" xmlns="http://www.w3.org/2000/svg">
<g opacity="0.14">
<path d="M7.5 16.5C7.5 18.9853 9.51472 21 12 21V12C9.51472 12 7.5 14.0147 7.5 16.5Z" fill="#0000CC"/>
<path d="M16.5 7.5C16.5 5.01472 14.4853 3 12 3V12C14.4853 12 16.5 9.98528 16.5 7.5Z" fill="#0000CC"/>
</g>
<path d="M12 12C12 9.51472 9.98528 7.5 7.5 7.5C5.01472 7.5 3 9.51472 3 12H12ZM12 12C12 14.4853 14.0147 16.5 16.5 16.5C18.9853 16.5 21 14.4853 21 12H12ZM12 12C9.51472 12 7.5 14.0147 7.5 16.5C7.5 18.9853 9.51472 21 12 21V12ZM12 12C14.4853 12 16.5 9.98528 16.5 7.5C16.5 5.01472 14.4853 3 12 3V12Z" stroke="#0000CC" stroke-width="2" stroke-linejoin="round"/>
</svg>
