<svg width="24" height="24" viewBox="0 0 24 24" fill="none" xmlns="http://www.w3.org/2000/svg">
<g opacity="0.14">
<path d="M6.5 7H3.5V10H6.5V7Z" fill="#0000CC"/>
<path d="M13.5 7H10.5V10H13.5V7Z" fill="#0000CC"/>
<path d="M17.5 7H20.5V10H17.5V7Z" fill="#0000CC"/>
<path d="M6.5 18H3.5V21H6.5V18Z" fill="#0000CC"/>
<path d="M10.5 18H13.5V21H10.5V18Z" fill="#0000CC"/>
<path d="M20.5 18H17.5V21H20.5V18Z" fill="#0000CC"/>
</g>
<path d="M3 3H21M3 14H21M10.5 10H13.5V7H10.5V10ZM17.5 10H20.5V7H17.5V10ZM3.5 10H6.5V7H3.5V10ZM10.5 21H13.5V18H10.5V21ZM17.5 21H20.5V18H17.5V21ZM3.5 21H6.5V18H3.5V21Z" stroke="#0000CC" stroke-width="2" stroke-linecap="round" stroke-linejoin="round"/>
</svg>
