<svg width="24" height="24" viewBox="0 0 24 24" fill="none" xmlns="http://www.w3.org/2000/svg">
<path opacity="0.14" fill-rule="evenodd" clip-rule="evenodd" d="M17.1034 13.3964L20 21H4L7.74882 11.2531C8.21219 10.0483 8.44387 9.44594 8.78663 8.91834C9.09068 8.45031 9.45855 8.02699 9.8796 7.66063C10.3542 7.24764 10.9184 6.93421 12.0468 6.30735L18 3L16.7986 7.50524C16.5021 8.61704 16.3539 9.17303 16.3126 9.73528C16.276 10.2343 16.302 10.7358 16.3899 11.2284C16.4889 11.7834 16.6937 12.321 17.1034 13.3964ZM12 18C13.1046 18 14 17.1046 14 16C14 14.8954 13.1046 14 12 14C10.8954 14 10 14.8954 10 16C10 17.1046 10.8954 18 12 18Z" fill="#0000CC"/>
<path d="M21 20L20 21M20 21H4M20 21L17.1034 13.3964C16.6937 12.321 16.4889 11.7834 16.3899 11.2284C16.302 10.7358 16.276 10.2343 16.3126 9.73528C16.3539 9.17302 16.5021 8.61708 16.7986 7.50524L18 3L12.0468 6.30735C10.9184 6.93421 10.3542 7.24764 9.8796 7.66063C9.45855 8.02699 9.09068 8.45031 8.78663 8.91834C8.44387 9.44594 8.21219 10.0483 7.74882 11.2531L4 21M4 21L3 20M10 16C10 17.1046 10.8954 18 12 18C13.1046 18 14 17.1046 14 16C14 14.8954 13.1046 14 12 14C10.8954 14 10 14.8954 10 16ZM10 16H6M15 16H18" stroke="#0000CC" stroke-width="2" stroke-linecap="round" stroke-linejoin="round"/>
</svg>
