<svg width="24" height="24" viewBox="0 0 24 24" fill="none" xmlns="http://www.w3.org/2000/svg">
<path opacity="0.14" fill-rule="evenodd" clip-rule="evenodd" d="M12 6.00019C10.2006 3.90317 7.19377 3.2551 4.93923 5.17534C2.68468 7.09558 2.36727 10.3061 4.13778 12.5772C5.60984 14.4654 10.0648 18.4479 11.5249 19.7369C11.6882 19.8811 11.7699 19.9532 11.8652 19.9815C11.9483 20.0062 12.0393 20.0062 12.1225 19.9815C12.2178 19.9532 12.2994 19.8811 12.4628 19.7369C13.9229 18.4479 18.3778 14.4654 19.8499 12.5772C21.6204 10.3061 21.3417 7.07538 19.0484 5.17534C16.7551 3.2753 13.7994 3.90317 12 6.00019Z" fill="#0000CC"/>
<path fill-rule="evenodd" clip-rule="evenodd" d="M12 5.99995C10.2006 3.90293 7.19377 3.25485 4.93923 5.17509C2.68468 7.09533 2.36727 10.3059 4.13778 12.577C5.60984 14.4652 10.0648 18.4477 11.5249 19.7366C11.6882 19.8808 11.7699 19.9529 11.8652 19.9813C11.9483 20.006 12.0393 20.006 12.1225 19.9813C12.2178 19.9529 12.2994 19.8808 12.4628 19.7366C13.9229 18.4477 18.3778 14.4652 19.8499 12.577C21.6204 10.3059 21.3417 7.07513 19.0484 5.17509C16.7551 3.27505 13.7994 3.90293 12 5.99995Z" stroke="#0000CC" stroke-width="2" stroke-linecap="round" stroke-linejoin="round"/>
</svg>
