<svg width="24" height="24" viewBox="0 0 24 24" fill="none" xmlns="http://www.w3.org/2000/svg">
<path opacity="0.14" d="M12.8001 21.5381C12.5087 21.7064 12.3629 21.7905 12.208 21.8235C12.0709 21.8526 11.9293 21.8526 11.7922 21.8235C11.6373 21.7905 11.4915 21.7064 11.2001 21.5381L4.13984 17.4619C3.8484 17.2936 3.70268 17.2095 3.5967 17.0918C3.50293 16.9877 3.43209 16.865 3.38879 16.7317C3.33984 16.5811 3.33984 16.4128 3.33984 16.0763V7.92378C3.33984 7.58725 3.33984 7.41899 3.38879 7.26836C3.43209 7.13508 3.50293 7.01239 3.5967 6.90824C3.70268 6.79054 3.8484 6.70641 4.13984 6.53814L11.2001 2.4619C11.4915 2.29364 11.6373 2.20951 11.7922 2.17658C11.9293 2.14744 12.0709 2.14744 12.208 2.17658C12.3629 2.20951 12.5087 2.29364 12.8001 2.4619L19.8604 6.53814C20.1518 6.70641 20.2975 6.79054 20.4035 6.90824C20.4973 7.01239 20.5681 7.13508 20.6114 7.26836C20.6604 7.41899 20.6604 7.58725 20.6604 7.92378V16.0763C20.6604 16.4128 20.6604 16.5811 20.6114 16.7317C20.5681 16.865 20.4973 16.9877 20.4035 17.0918C20.2975 17.2095 20.1518 17.2936 19.8604 17.4619L12.8001 21.5381Z" fill="#0000CC"/>
<path d="M12.8001 21.5381C12.5087 21.7064 12.3629 21.7905 12.208 21.8235C12.0709 21.8526 11.9293 21.8526 11.7922 21.8235C11.6373 21.7905 11.4915 21.7064 11.2001 21.5381L4.13984 17.4619C3.8484 17.2936 3.70268 17.2095 3.5967 17.0918C3.50293 16.9877 3.43209 16.865 3.38879 16.7317C3.33984 16.5811 3.33984 16.4128 3.33984 16.0763V7.92378C3.33984 7.58725 3.33984 7.41899 3.38879 7.26836C3.43209 7.13508 3.50293 7.01239 3.5967 6.90824C3.70268 6.79054 3.8484 6.70641 4.13984 6.53814L11.2001 2.4619C11.4915 2.29364 11.6373 2.20951 11.7922 2.17658C11.9293 2.14744 12.0709 2.14744 12.208 2.17658C12.3629 2.20951 12.5087 2.29364 12.8001 2.4619L19.8604 6.53814C20.1518 6.70641 20.2975 6.79054 20.4035 6.90824C20.4973 7.01239 20.5681 7.13508 20.6114 7.26836C20.6604 7.41899 20.6604 7.58725 20.6604 7.92378V16.0763C20.6604 16.4128 20.6604 16.5811 20.6114 16.7317C20.5681 16.865 20.4973 16.9877 20.4035 17.0918C20.2975 17.2095 20.1518 17.2936 19.8604 17.4619L12.8001 21.5381Z" stroke="#0000CC" stroke-width="2" stroke-linejoin="round"/>
</svg>
