<svg width="24" height="24" viewBox="0 0 24 24" fill="none" xmlns="http://www.w3.org/2000/svg">
<path opacity="0.14" d="M2.46148 12.8C2.29321 12.5085 2.20908 12.3628 2.17615 12.2079C2.14701 12.0708 2.14701 11.9291 2.17615 11.7921C2.20908 11.6371 2.29321 11.4914 2.46148 11.2L6.53772 4.13972C6.70598 3.84828 6.79011 3.70256 6.90782 3.59658C7.01196 3.50281 7.13465 3.43197 7.26793 3.38867C7.41856 3.33972 7.58683 3.33972 7.92336 3.33972H16.0758C16.4124 3.33972 16.5806 3.33972 16.7313 3.38867C16.8645 3.43197 16.9872 3.50281 17.0914 3.59658C17.2091 3.70256 17.2932 3.84828 17.4615 4.13972L21.5377 11.2C21.706 11.4914 21.7901 11.6371 21.823 11.7921C21.8522 11.9291 21.8522 12.0708 21.823 12.2079C21.7901 12.3628 21.706 12.5085 21.5377 12.8L17.4615 19.8602C17.2932 20.1517 17.2091 20.2974 17.0914 20.4034C16.9872 20.4971 16.8645 20.568 16.7313 20.6113C16.5806 20.6602 16.4124 20.6602 16.0758 20.6602H7.92336C7.58683 20.6602 7.41856 20.6602 7.26793 20.6113C7.13465 20.568 7.01196 20.4971 6.90782 20.4034C6.79011 20.2974 6.70598 20.1517 6.53772 19.8602L2.46148 12.8Z" fill="#0000CC"/>
<path d="M2.46148 12.8C2.29321 12.5085 2.20908 12.3628 2.17615 12.2079C2.14701 12.0708 2.14701 11.9291 2.17615 11.7921C2.20908 11.6371 2.29321 11.4914 2.46148 11.2L6.53772 4.13972C6.70598 3.84828 6.79011 3.70256 6.90782 3.59658C7.01196 3.50281 7.13465 3.43197 7.26793 3.38867C7.41856 3.33972 7.58683 3.33972 7.92336 3.33972H16.0758C16.4124 3.33972 16.5806 3.33972 16.7313 3.38867C16.8645 3.43197 16.9872 3.50281 17.0914 3.59658C17.2091 3.70256 17.2932 3.84828 17.4615 4.13972L21.5377 11.2C21.706 11.4914 21.7901 11.6371 21.823 11.7921C21.8522 11.9291 21.8522 12.0708 21.823 12.2079C21.7901 12.3628 21.706 12.5085 21.5377 12.8L17.4615 19.8602C17.2932 20.1517 17.2091 20.2974 17.0914 20.4034C16.9872 20.4971 16.8645 20.568 16.7313 20.6113C16.5806 20.6602 16.4124 20.6602 16.0758 20.6602H7.92336C7.58683 20.6602 7.41856 20.6602 7.26793 20.6113C7.13465 20.568 7.01196 20.4971 6.90782 20.4034C6.79011 20.2974 6.70598 20.1517 6.53772 19.8602L2.46148 12.8Z" stroke="#0000CC" stroke-width="2" stroke-linejoin="round"/>
</svg>
