<svg width="24" height="24" viewBox="0 0 24 24" fill="none" xmlns="http://www.w3.org/2000/svg">
<path opacity="0.14" d="M18.5 3H14C9.02944 3 5 7.02944 5 12V17C5 18.5 4.2 20.2 3 21H8V15C8 12.7909 9.79086 11 12 11C14.2091 11 16 12.7909 16 15V21H21C19.8 20.2 19 18.5 19 17C19 14 19.5 7 15.5 6L18.5 3Z" fill="#0000CC"/>
<path d="M8 21V15C8 12.7909 9.79086 11 12 11C14.2091 11 16 12.7909 16 15V21M8 21H3C4.2 20.2 5 18.5 5 17V12C5 7.02944 9.02944 3 14 3H18.5L15.5 6C19.5 7 19 14 19 17C19 18.5 19.8 20.2 21 21H16M8 21H16" stroke="#0000CC" stroke-width="2" stroke-linecap="round" stroke-linejoin="round"/>
</svg>
