<svg width="24" height="24" viewBox="0 0 24 24" fill="none" xmlns="http://www.w3.org/2000/svg">
<path opacity="0.14" d="M5 3H19C19 5.51022 17.7877 7.86592 15.7451 9.32495L12 12L15.7451 14.675C17.7877 16.1341 19 18.4898 19 21H5C5 18.4898 6.21228 16.1341 8.25493 14.675L12 12L8.25493 9.32495C6.21228 7.86592 5 5.51022 5 3Z" fill="#0000CC"/>
<path d="M20 3H4M20 21H4M5 3C5 5.51022 6.21228 7.86592 8.25493 9.32495L15.7451 14.675C17.7877 16.1341 19 18.4898 19 21M19 3C19 5.51022 17.7877 7.86592 15.7451 9.32495L8.25493 14.675C6.21228 16.1341 5 18.4898 5 21" stroke="#0000CC" stroke-width="2" stroke-linecap="round" stroke-linejoin="round"/>
</svg>
