<svg width="24" height="24" viewBox="0 0 24 24" fill="none" xmlns="http://www.w3.org/2000/svg">
<g opacity="0.14">
<path d="M8.25493 9.32495C7.0623 8.47307 6.15273 7.31551 5.60226 6H18.3977C17.8473 7.31551 16.9377 8.47307 15.7451 9.32495L12 12L8.25493 9.32495Z" fill="#0000CC"/>
<path d="M18.3977 18H5.60226C5.20993 18.9376 5 19.9554 5 21H19C19 19.9554 18.7901 18.9376 18.3977 18Z" fill="#0000CC"/>
</g>
<path d="M15 18H9M14 6H10M20 3H19M19 3H5M19 3C19 5.51022 17.7877 7.86592 15.7451 9.32495L12 12M5 3H4M5 3C5 5.51022 6.21228 7.86592 8.25493 9.32495L12 12M20 21H19M19 21H5M19 21C19 18.4898 17.7877 16.1341 15.7451 14.675L12 12M5 21H4M5 21C5 18.4898 6.21228 16.1341 8.25493 14.675L12 12" stroke="#0000CC" stroke-width="2" stroke-linecap="round" stroke-linejoin="round"/>
</svg>
