<svg width="24" height="24" viewBox="0 0 24 24" fill="none" xmlns="http://www.w3.org/2000/svg">
<path opacity="0.14" fill-rule="evenodd" clip-rule="evenodd" d="M19 9.77794V16.1998C19 17.88 19 18.7201 18.673 19.3618C18.3854 19.9263 17.9265 20.3852 17.362 20.6729C17.211 20.7498 17.0492 20.8086 16.8679 20.8535C16.3497 18.6447 14.3669 17 12 17C9.63307 17 7.65026 18.6447 7.13205 20.8535C6.95084 20.8086 6.78895 20.7498 6.63803 20.6729C6.07354 20.3852 5.6146 19.9263 5.32698 19.3618C5 18.7201 5 17.88 5 16.1998V9.77728L8.43114 5.96433C9.66661 4.59139 10.2843 3.90491 11.0119 3.65141C11.651 3.42875 12.3466 3.4287 12.9856 3.65126C13.7133 3.90466 14.3311 4.59104 15.5668 5.96381L19 9.77794ZM14 12C14 13.1046 13.1046 14 12 14C10.8954 14 10 13.1046 10 12C10 10.8954 10.8954 10 12 10C13.1046 10 14 10.8954 14 12Z" fill="#0000CC"/>
<path d="M19 9.77818V16.2001C19 17.8802 19 18.7203 18.673 19.362C18.3854 19.9265 17.9265 20.3855 17.362 20.6731C17.2111 20.75 17.0492 20.8088 16.868 20.8538M5 9.77753V16.2001C5 17.8802 5 18.7203 5.32698 19.362C5.6146 19.9265 6.07354 20.3855 6.63803 20.6731C6.78894 20.75 6.95082 20.8088 7.13202 20.8538M21 12.0001L15.5668 5.96405C14.3311 4.59129 13.7133 3.9049 12.9856 3.65151C12.3466 3.42894 11.651 3.42899 11.0119 3.65165C10.2843 3.90516 9.66661 4.59163 8.43114 5.96458L3 12.0001M7.13202 20.8538C7.65017 18.6448 9.63301 17.0001 12 17.0001C14.367 17.0001 16.3498 18.6448 16.868 20.8538M7.13202 20.8538C7.72133 21.0001 8.51495 21.0001 9.8 21.0001H14.2C15.485 21.0001 16.2787 21.0001 16.868 20.8538M14 12.0001C14 13.1046 13.1046 14.0001 12 14.0001C10.8954 14.0001 10 13.1046 10 12.0001C10 10.8955 10.8954 10.0001 12 10.0001C13.1046 10.0001 14 10.8955 14 12.0001Z" stroke="#0000CC" stroke-width="2" stroke-linecap="round" stroke-linejoin="round"/>
</svg>
