<svg width="24" height="24" viewBox="0 0 24 24" fill="none" xmlns="http://www.w3.org/2000/svg">
<path opacity="0.14" d="M16.84 4H12.16C12.104 4 12.076 4 12.0546 4.0109C12.0358 4.02049 12.0205 4.03578 12.0109 4.0546C12 4.07599 12 4.10399 12 4.16V6.84C12 6.89601 12 6.92401 12.0109 6.9454C12.0205 6.96422 12.0358 6.97951 12.0546 6.9891C12.076 7 12.104 7 12.16 7H16.84C16.896 7 16.924 7 16.9454 6.9891C16.9642 6.97951 16.9795 6.96422 16.9891 6.9454C17 6.92401 17 6.89601 17 6.84V4.16C17 4.10399 17 4.07599 16.9891 4.0546C16.9795 4.03578 16.9642 4.02049 16.9454 4.0109C16.924 4 16.896 4 16.84 4Z" fill="#0000CC"/>
<path d="M3 21H21M3 11H21M3 18H21M6 18V14M10 18V14M14 18V14M18 18V14M12 7H16.84C16.896 7 16.924 7 16.9454 6.9891C16.9642 6.97951 16.9795 6.96422 16.9891 6.9454C17 6.92401 17 6.89601 17 6.84V4.16C17 4.10399 17 4.07599 16.9891 4.0546C16.9795 4.03578 16.9642 4.02049 16.9454 4.0109C16.924 4 16.896 4 16.84 4H12M12 11V3" stroke="#0000CC" stroke-width="2" stroke-linecap="round" stroke-linejoin="round"/>
</svg>
