<svg width="24" height="24" viewBox="0 0 24 24" fill="none" xmlns="http://www.w3.org/2000/svg">
<g opacity="0.14">
<path d="M8.87263 4.20378C8.80442 4.20789 8.73575 4.20997 8.66667 4.20997C7.64218 4.20997 6.70766 3.75244 5.99998 3C5.2923 3.75241 4.3578 4.20993 3.33333 4.20993C3.26426 4.20993 3.19559 4.20785 3.12738 4.20373C3.04423 4.58531 3 4.98548 3 5.39793C3 7.61207 4.27477 9.4725 6 10C7.72523 9.4725 9 7.61207 9 5.39793C9 4.9855 8.95577 4.58534 8.87263 4.20378Z" fill="#0000CC"/>
<path d="M22 16V16.8C22 17.9201 22 18.4802 21.7578 18.908C21.5447 19.2843 21.2048 19.5903 20.7866 19.782C20.3113 20 19.689 20 18.4444 20H5.55556C4.31099 20 3.68871 20 3.21335 19.782C2.79522 19.5903 2.45526 19.2843 2.24221 18.908C2 18.4802 2 17.9201 2 16.8V16H7.93029C8.20205 16 8.33794 16 8.46581 16.0276C8.57919 16.0521 8.68757 16.0925 8.78698 16.1474C8.89911 16.2092 8.9952 16.2957 9.18735 16.4686L9.25708 16.5314C9.44925 16.7043 9.54533 16.7908 9.65746 16.8526C9.75688 16.9075 9.86526 16.9479 9.97863 16.9724C10.1065 17 10.2424 17 10.5142 17H13.4858C13.7576 17 13.8935 17 14.0214 16.9724C14.1347 16.9479 14.2431 16.9075 14.3425 16.8526C14.4547 16.7908 14.5508 16.7043 14.7429 16.5314L14.8126 16.4686C15.0048 16.2957 15.1009 16.2092 15.213 16.1474C15.3124 16.0925 15.4208 16.0521 15.5342 16.0276C15.6621 16 15.7979 16 16.0697 16H22Z" fill="#0000CC"/>
</g>
<path d="M21 16V7.2C21 6.0799 21 5.51984 20.782 5.09202C20.5903 4.71569 20.2843 4.40973 19.908 4.21799C19.4802 4 18.9201 4 17.8 4H13M3 16V14M9 4.16667C9 4.16667 8.69411 4.16667 8.62504 4.16667C7.60055 4.16667 6.70766 3.75244 5.99998 3C5.2923 3.75241 4.3995 4.16667 3.37504 4.16667C3.30596 4.16667 3.00004 4.16667 3.00004 4.16667C3.00004 4.16667 3 4.94444 3 5.39793C3 7.61207 4.27477 9.4725 6 10C7.72523 9.4725 9 7.61207 9 5.39793C9 4.94444 9 4.16667 9 4.16667ZM22 16V16.8C22 17.9201 22 18.4802 21.782 18.908C21.5903 19.2843 21.2843 19.5903 20.908 19.782C20.4802 20 19.9201 20 18.8 20H5.2C4.0799 20 3.51984 20 3.09202 19.782C2.71569 19.5903 2.40973 19.2843 2.21799 18.908C2 18.4802 2 17.9201 2 16.8V16H8.33726C8.58185 16 8.70414 16 8.81923 16.0276C8.92127 16.0521 9.01881 16.0925 9.10828 16.1474C9.2092 16.2092 9.29568 16.2957 9.46863 16.4686L9.53137 16.5314C9.70432 16.7043 9.7908 16.7908 9.89172 16.8526C9.98119 16.9075 10.0787 16.9479 10.1808 16.9724C10.2959 17 10.4182 17 10.6627 17H13.3373C13.5818 17 13.7041 17 13.8192 16.9724C13.9213 16.9479 14.0188 16.9075 14.1083 16.8526C14.2092 16.7908 14.2957 16.7043 14.4686 16.5314L14.5314 16.4686C14.7043 16.2957 14.7908 16.2092 14.8917 16.1474C14.9812 16.0925 15.0787 16.0521 15.1808 16.0276C15.2959 16 15.4182 16 15.6627 16H22Z" stroke="#0000CC" stroke-width="2" stroke-linecap="round" stroke-linejoin="round"/>
</svg>
