<svg width="24" height="24" viewBox="0 0 24 24" fill="none" xmlns="http://www.w3.org/2000/svg">
<path opacity="0.14" d="M7 12C7 14.7614 9.23858 17 12 17C16.4183 17 20 13.4183 20 8.99998V3C18.1115 5.51806 15.1476 7.00001 12 7C9.23858 7 7 9.23858 7 12Z" fill="#0000CC"/>
<path d="M14 12H12C7.58172 12 4 15.5817 4 20V21M12 17C9.23858 17 7 14.7614 7 12C7 9.23858 9.23858 7 12 7C15.1476 7.00001 18.1115 5.51806 20 3V8.99998C20 13.4183 16.4183 17 12 17Z" stroke="#0000CC" stroke-width="2" stroke-linecap="round" stroke-linejoin="round"/>
</svg>
