<svg width="24" height="24" viewBox="0 0 24 24" fill="none" xmlns="http://www.w3.org/2000/svg">
<path opacity="0.14" d="M7 7C4.23858 7 2 9.23858 2 12C2 14.7614 4.23858 17 7 17H9C10.1256 17 11.1643 16.6281 12 16.0004C12.8357 16.6281 13.8744 17 15 17H17C19.7614 17 22 14.7614 22 12C22 9.23858 19.7614 7 17 7H15C13.8744 7 12.8357 7.37194 12 7.99963C11.1643 7.37194 10.1256 7 9 7H7Z" fill="#0000CC"/>
<path d="M14 12C14 14.7614 11.7614 17 9 17H7C4.23858 17 2 14.7614 2 12C2 9.23858 4.23858 7 7 7H7.5M10 12C10 9.23858 12.2386 7 15 7H17C19.7614 7 22 9.23858 22 12C22 14.7614 19.7614 17 17 17H16.5" stroke="#0000CC" stroke-width="2" stroke-linecap="round"/>
</svg>
