<svg width="24" height="24" viewBox="0 0 24 24" fill="none" xmlns="http://www.w3.org/2000/svg">
<path opacity="0.14" d="M21 11L18.1653 12.3333C17.6829 14.2075 16.2075 15.6829 14.3333 16.1653L13 19L11.6667 16.1653C9.79252 15.6829 8.31706 14.2075 7.83469 12.3333L5 11L7.83469 9.66667C8.31706 7.79252 9.79252 6.31706 11.6667 5.83469L13 3L14.3333 5.83469C16.2075 6.31706 17.6829 7.79252 18.1653 9.66667L21 11Z" fill="#0000CC" stroke="#0000CC" stroke-linejoin="round"/>
<path d="M3 21.0001L9.22937 14.7708M18.1653 12.3333L21 11L18.1653 9.66667C17.6829 7.79252 16.2075 6.31706 14.3333 5.83469L13 3L11.6667 5.83469C9.79252 6.31706 8.31706 7.79252 7.83469 9.66667L5 11L7.83469 12.3333C8.31706 14.2075 9.79252 15.6829 11.6667 16.1653L13 19L14.3333 16.1653C16.2075 15.6829 17.6829 14.2075 18.1653 12.3333ZM14 11C14 11.5523 13.5523 12 13 12C12.4477 12 12 11.5523 12 11C12 10.4477 12.4477 10 13 10C13.5523 10 14 10.4477 14 11Z" stroke="#0000CC" stroke-width="2" stroke-linecap="round" stroke-linejoin="round"/>
</svg>
