<svg width="24" height="24" viewBox="0 0 24 24" fill="none" xmlns="http://www.w3.org/2000/svg">
<path opacity="0.14" d="M11.0678 13.0825C10.3744 12.9163 9.7329 12.4886 8.44987 11.6333L3 8.00003C3.00077 7.01166 3.01333 6.49359 3.21794 6.09202C3.40968 5.71569 3.71564 5.40973 4.09197 5.21799C4.51979 5 5.07984 5 6.19995 5H17.7999C18.9201 5 19.4801 5 19.9079 5.21799C20.2843 5.40973 20.5902 5.71569 20.782 6.09202C20.9866 6.49359 20.9991 7.01167 20.9999 8.00005L15.55 11.6333C14.267 12.4886 13.6255 12.9163 12.9321 13.0825C12.3193 13.2293 11.6806 13.2293 11.0678 13.0825Z" fill="#0000CC"/>
<path d="M3 8L8.44992 11.6333C9.73295 12.4886 10.3745 12.9163 11.0678 13.0825C11.6806 13.2293 12.3194 13.2293 12.9322 13.0825C13.6255 12.9163 14.2671 12.4886 15.5501 11.6333L21 8M6.2 19H17.8C18.9201 19 19.4802 19 19.908 18.782C20.2843 18.5903 20.5903 18.2843 20.782 17.908C21 17.4802 21 16.9201 21 15.8V8.2C21 7.0799 21 6.51984 20.782 6.09202C20.5903 5.71569 20.2843 5.40973 19.908 5.21799C19.4802 5 18.9201 5 17.8 5H6.2C5.0799 5 4.51984 5 4.09202 5.21799C3.71569 5.40973 3.40973 5.71569 3.21799 6.09202C3 6.51984 3 7.07989 3 8.2V15.8C3 16.9201 3 17.4802 3.21799 17.908C3.40973 18.2843 3.71569 18.5903 4.09202 18.782C4.51984 19 5.07989 19 6.2 19Z" stroke="#0000CC" stroke-width="2" stroke-linecap="round" stroke-linejoin="round"/>
</svg>
