<svg width="24" height="24" viewBox="0 0 24 24" fill="none" xmlns="http://www.w3.org/2000/svg">
<path opacity="0.14" d="M16.0038 3.99591C17.1084 2.89125 18.8954 2.89528 20.0001 3.99998C21.1046 5.10462 21.1086 6.89153 20.004 7.99614C16.644 11.3562 10.1581 17.8421 9.50005 18.5001C7.66067 20.3395 3.35341 21.3532 2.99993 20.9997C2.64644 20.6462 3.71534 16.2842 5.49993 14.4997C6.15797 13.8417 12.6437 7.35598 16.0038 3.99591Z" fill="#0000CC"/>
<path d="M7.00002 6.99988L8.73728 5.26262C9.52931 4.47059 9.92533 4.07457 10.382 3.92619C10.7837 3.79568 11.2164 3.79568 11.6181 3.92619C12.0747 4.07457 12.4707 4.47059 13.2628 5.26262L14 6M10 9.99988L14 13.9999M9.50005 18.5001C10.1581 17.8421 16.644 11.3562 20.004 7.99614C21.1086 6.89153 21.1046 5.10462 20.0001 3.99998C18.8954 2.89528 17.1084 2.89125 16.0038 3.99591C12.6437 7.35598 6.15797 13.8417 5.49993 14.4997C3.71534 16.2842 2.64644 20.6462 2.99993 20.9997C3.35341 21.3532 7.66067 20.3395 9.50005 18.5001Z" stroke="#0000CC" stroke-width="2" stroke-linecap="round" stroke-linejoin="round"/>
</svg>
