<svg width="24" height="24" viewBox="0 0 24 24" fill="none" xmlns="http://www.w3.org/2000/svg">
<path opacity="0.14" d="M5.47852 15.3209C8.60271 18.4451 13.3514 18.7617 16.0851 16.028C18.8188 13.2943 18.5022 8.54558 15.378 5.42139L15.3468 5.45197L15.3271 5.57647C14.543 10.5483 10.6411 14.4408 5.67752 15.2199C5.60226 15.2317 5.53217 15.2668 5.47852 15.3209Z" fill="#0000CC"/>
<path d="M5.47897 15.3209C8.60316 18.4451 13.3519 18.7617 16.0856 16.028C18.8192 13.2943 18.5027 8.54558 15.3785 5.42139M5.47897 15.3209L3.35742 17.4422C7.65319 21.738 14.3014 22.0545 18.2067 18.1493C22.1119 14.244 21.7953 7.59582 17.4996 3.30005L15.3785 5.42139M5.47897 15.3209V15.3209C5.53159 15.2668 5.6009 15.2317 5.67544 15.22C10.5855 14.4498 14.4569 10.6329 15.2994 5.73826C15.3178 5.63094 15.3436 5.52455 15.3785 5.42139V5.42139" stroke="#0000CC" stroke-width="2" stroke-linecap="round" stroke-linejoin="round"/>
</svg>
