<svg width="24" height="24" viewBox="0 0 24 24" fill="none" xmlns="http://www.w3.org/2000/svg">
<path opacity="0.14" fill-rule="evenodd" clip-rule="evenodd" d="M21.0039 12C21.0039 16.9706 16.9745 21 12.0039 21H3.00463C3.00463 21 4.56382 17.2561 3.93982 16.0008C3.34076 14.7956 3.00391 13.4372 3.00391 12C3.00391 7.02944 7.03334 3 12.0039 3C16.9745 3 21.0039 7.02944 21.0039 12ZM11.5 14.5C13.1569 14.5 14.5 13.1569 14.5 11.5C14.5 9.84315 13.1569 8.5 11.5 8.5C9.84315 8.5 8.5 9.84315 8.5 11.5C8.5 13.1569 9.84315 14.5 11.5 14.5Z" fill="#0000CC"/>
<path d="M15.5 15.5L13.6213 13.6213M13.6213 13.6213C14.1642 13.0784 14.5 12.3284 14.5 11.5C14.5 9.84315 13.1569 8.5 11.5 8.5C9.84315 8.5 8.5 9.84315 8.5 11.5C8.5 13.1569 9.84315 14.5 11.5 14.5C12.3284 14.5 13.0784 14.1642 13.6213 13.6213ZM21 12C21 16.9706 16.9706 21 12 21C9.96359 21 3.00072 21 3.00072 21C3.00072 21 4.55992 17.2561 3.93591 16.0008C3.33685 14.7956 3 13.4372 3 12C3 7.02944 7.02943 3 12 3C16.9706 3 21 7.02944 21 12Z" stroke="#0000CC" stroke-width="2" stroke-linecap="round" stroke-linejoin="round"/>
</svg>
