<svg width="24" height="24" viewBox="0 0 24 24" fill="none" xmlns="http://www.w3.org/2000/svg">
<path opacity="0.14" fill-rule="evenodd" clip-rule="evenodd" d="M12.0039 21C16.9745 21 21.0039 16.9706 21.0039 12C21.0039 7.02944 16.9745 3 12.0039 3C7.03334 3 3.00391 7.02944 3.00391 12C3.00391 13.4372 3.34076 14.7956 3.93982 16.0008C4.56382 17.2561 3.00463 21 3.00463 21H12.0039ZM8.84868 8.95357C9.85353 8.1056 11.1909 8.3547 11.9929 9.28073C12.7949 8.3547 14.115 8.11452 15.1371 8.95357C16.1592 9.79261 16.2834 11.2193 15.4943 12.2222C15.0262 12.8171 13.8814 13.8827 13.0274 14.6513C12.673 14.9703 12.4958 15.1298 12.2818 15.1943C12.0988 15.2496 11.887 15.2496 11.704 15.1943C11.49 15.1298 11.3128 14.9703 10.9584 14.6513C10.1044 13.8827 8.95958 12.8171 8.49148 12.2222C7.70237 11.2193 7.84384 9.80153 8.84868 8.95357Z" fill="#0000CC"/>
<path fill-rule="evenodd" clip-rule="evenodd" d="M11.9933 9.28058C11.1914 8.35455 9.85397 8.10546 8.84913 8.95342C7.84428 9.80138 7.70281 11.2191 8.49192 12.222C8.96002 12.8169 10.1049 13.8826 10.9589 14.6512C11.3133 14.9701 11.4905 15.1296 11.7044 15.1942C11.8874 15.2494 12.0993 15.2494 12.2823 15.1942C12.4962 15.1296 12.6734 14.9701 13.0278 14.6512C13.8818 13.8826 15.0267 12.8169 15.4948 12.222C16.2839 11.2191 16.1597 9.79246 15.1376 8.95342C14.1154 8.11438 12.7953 8.35455 11.9933 9.28058Z" stroke="#0000CC" stroke-width="2" stroke-linecap="round" stroke-linejoin="round"/>
<path d="M21 12C21 16.9706 16.9706 21 12 21C9.96359 21 3.00072 21 3.00072 21C3.00072 21 4.55992 17.2561 3.93591 16.0008C3.33685 14.7956 3 13.4372 3 12C3 7.02944 7.02943 3 12 3C16.9706 3 21 7.02944 21 12Z" stroke="#0000CC" stroke-width="2" stroke-linecap="round" stroke-linejoin="round"/>
</svg>
