<svg width="24" height="24" viewBox="0 0 24 24" fill="none" xmlns="http://www.w3.org/2000/svg">
<path opacity="0.14" fill-rule="evenodd" clip-rule="evenodd" d="M12.0039 21C16.9745 21 21.0039 16.9706 21.0039 12C21.0039 7.02944 16.9745 3 12.0039 3C7.03334 3 3.00391 7.02944 3.00391 12C3.00391 13.4372 3.34076 14.7956 3.93982 16.0008C4.56382 17.2561 3.00463 21 3.00463 21H12.0039ZM8.40499 13.9752L8 16.0002L10.025 15.5952C10.2015 15.5598 10.2898 15.5422 10.3721 15.5099C10.4452 15.4812 10.5147 15.4441 10.579 15.3992C10.6516 15.3486 10.7152 15.2849 10.8425 15.1576L15 11.0002C15.5523 10.4479 15.5523 9.55244 15 9.00015C14.4477 8.44787 13.5523 8.44787 13 9.00015L8.84255 13.1576C8.71523 13.2849 8.65157 13.3486 8.60098 13.4211C8.55608 13.4855 8.51891 13.5549 8.49025 13.628C8.45796 13.7103 8.44031 13.7986 8.40499 13.9752Z" fill="#0000CC"/>
<path d="M8.40499 13.975C8.44031 13.7985 8.45796 13.7102 8.49025 13.6279C8.51891 13.5548 8.55608 13.4853 8.60098 13.421C8.65157 13.3484 8.71523 13.2848 8.84255 13.1574L13 9C13.5523 8.44772 14.4477 8.44772 15 9C15.5523 9.55228 15.5523 10.4477 15 11L10.8426 15.1574C10.7152 15.2848 10.6516 15.3484 10.579 15.399C10.5147 15.4439 10.4452 15.4811 10.3721 15.5097C10.2898 15.542 10.2015 15.5597 10.025 15.595L8 16L8.40499 13.975Z" stroke="#0000CC" stroke-width="2" stroke-linecap="round" stroke-linejoin="round"/>
</svg>
