<svg width="24" height="24" viewBox="0 0 24 24" fill="none" xmlns="http://www.w3.org/2000/svg">
<g opacity="0.14">
<path d="M16.6719 6C20.6785 6 23.349 18 18.0089 18C15.756 18 13.8829 14.3214 12 11C12.7355 9.67838 13.464 8.36278 13.8938 7.84615C14.7064 6.86949 15.7503 6 16.6719 6Z" fill="#0000CC"/>
<path d="M5.99089 18C7.47151 18 8.85483 16.3735 10.1053 14.3077C10.6943 13.3346 11.345 12.1769 12 11C10.5344 8.41457 9.08068 6 7.32699 6C3.3204 6 0.649919 18 5.99089 18Z" fill="#0000CC"/>
</g>
<path d="M12 11C12.7355 9.67838 13.464 8.36278 13.8938 7.84615C14.7064 6.86949 15.7503 6 16.6719 6C20.6785 6 23.349 18 18.0089 18C15.756 18 13.8829 14.3214 12 11ZM12 11C11.345 12.1769 10.6943 13.3346 10.1053 14.3077C8.85483 16.3735 7.47151 18 5.99089 18C0.649919 18 3.3204 6 7.32699 6C9.08068 6 10.5344 8.41457 12 11Z" stroke="#0000CC" stroke-width="2" stroke-linecap="round" stroke-linejoin="round"/>
</svg>
