<svg width="24" height="24" viewBox="0 0 24 24" fill="none" xmlns="http://www.w3.org/2000/svg">
<g opacity="0.14">
<path d="M3.21799 6.09202C3 6.51984 3 7.0799 3 8.2V15.8C3 16.9201 3 17.4802 3.21799 17.908C3.40973 18.2843 3.71569 18.5903 4.09202 18.782C4.51984 19 5.0799 19 6.2 19H14.2L14.405 17.9752C14.4403 17.7986 14.458 17.7103 14.4903 17.628C14.5189 17.5549 14.5561 17.4855 14.601 17.4211C14.6516 17.3486 14.7152 17.2849 14.8426 17.1576L19 13.0002C19.5523 12.4479 20.4477 12.4479 21 13.0002V8.2C21 7.0799 21 6.51984 20.782 6.09202C20.5903 5.71569 20.2843 5.40973 19.908 5.21799C19.4802 5 18.9201 5 17.8 5H6.2C5.0799 5 4.51984 5 4.09202 5.21799C3.71569 5.40973 3.40973 5.71569 3.21799 6.09202Z" fill="#0000CC"/>
<path d="M21 15.0002L17.0002 19H17.8C18.9201 19 19.4802 19 19.908 18.782C20.2843 18.5903 20.5903 18.2843 20.782 17.908C21 17.4802 21 16.9201 21 15.8V15.0002Z" fill="#0000CC"/>
</g>
<path d="M10 19H6.2C5.0799 19 4.51984 19 4.09202 18.782C3.71569 18.5903 3.40973 18.2843 3.21799 17.908C3 17.4802 3 16.9201 3 15.8V8.2C3 7.07989 3 6.51984 3.21799 6.09202C3.40973 5.71569 3.71569 5.40973 4.09202 5.21799C4.51984 5 5.0799 5 6.2 5H17.8C18.9201 5 19.4802 5 19.908 5.21799C20.2843 5.40973 20.5903 5.71569 20.782 6.09202C21 6.51984 21 7.0799 21 8.2V8.5M9 9.5V8.5M9 9.5H11.0001M9 9.5C7.88279 9.49998 7.00244 9.62616 7.0001 10.8325C6.99834 11.7328 7.00009 12 9.00009 12C11.0001 12 11.0001 12.2055 11.0001 13.1667C11.0001 13.889 11 14.5 9 14.5M9 15.5V14.5M9 14.5L7.0001 14.5M14 10H17M14 20L16.025 19.595C16.2015 19.5597 16.2898 19.542 16.3721 19.5097C16.4452 19.4811 16.5147 19.4439 16.579 19.399C16.6516 19.3484 16.7152 19.2848 16.8426 19.1574L21 15C21.5523 14.4477 21.5523 13.5523 21 13C20.4477 12.4477 19.5523 12.4477 19 13L14.8426 17.1574C14.7152 17.2848 14.6516 17.3484 14.601 17.421C14.5561 17.4853 14.5189 17.5548 14.4903 17.6279C14.458 17.7102 14.4403 17.7985 14.405 17.975L14 20Z" stroke="#0000CC" stroke-width="2" stroke-linecap="round" stroke-linejoin="round"/>
</svg>
