<svg width="24" height="24" viewBox="0 0 24 24" fill="none" xmlns="http://www.w3.org/2000/svg">
<path opacity="0.14" d="M3 6.53434C3 5.24753 3 4.60412 3.19146 4.26247C3.38442 3.91813 3.57834 3.74822 3.94506 3.60219C4.30891 3.4573 5.0221 3.55185 6.44847 3.74097C7.83836 3.92525 9.67377 4.07133 12 4.07133C14.3262 4.07133 16.1616 3.92525 17.5515 3.74097C18.9779 3.55185 19.6911 3.4573 20.0549 3.60219C20.4217 3.74822 20.6156 3.91813 20.8085 4.26247C21 4.60412 21 5.24753 21 6.53434V14.4655C21 15.7523 21 16.3957 20.8085 16.7373C20.6156 17.0817 20.4217 17.2516 20.0549 17.3976C19.6911 17.5425 18.9779 17.448 17.5515 17.2588C16.1616 17.0746 14.3262 16.9285 12 16.9285C9.67377 16.9285 7.83836 17.0746 6.44848 17.2588C5.0221 17.448 4.30891 17.5425 3.94506 17.3976C3.57834 17.2516 3.38442 17.0817 3.19146 16.7373C3 16.3957 3 15.7523 3 14.4655V6.53434Z" fill="#0000CC"/>
<path d="M7 21H17M9 17V21M15 17V21M12 4.07145C9.67377 4.07145 7.83836 3.92538 6.44847 3.74109C5.0221 3.55198 4.30891 3.45742 3.94506 3.60231C3.57834 3.74834 3.38442 3.91825 3.19146 4.26259C3 4.60424 3 5.24765 3 6.53447V14.4656C3 15.7524 3 16.3958 3.19146 16.7375C3.38442 17.0818 3.57834 17.2517 3.94506 17.3977C4.30891 17.5426 5.0221 17.4481 6.44848 17.259C7.83836 17.0747 9.67377 16.9286 12 16.9286C14.3262 16.9286 16.1616 17.0747 17.5515 17.259C18.9779 17.4481 19.6911 17.5426 20.0549 17.3977C20.4217 17.2517 20.6156 17.0818 20.8085 16.7375C21 16.3958 21 15.7524 21 14.4656V6.53447C21 5.24765 21 4.60424 20.8085 4.26259C20.6156 3.91825 20.4217 3.74834 20.0549 3.60231C19.6911 3.45742 18.9779 3.55198 17.5515 3.74109C16.1616 3.92538 14.3262 4.07145 12 4.07145Z" stroke="#0000CC" stroke-width="2" stroke-linecap="round" stroke-linejoin="round"/>
</svg>
