<svg width="24" height="24" viewBox="0 0 24 24" fill="none" xmlns="http://www.w3.org/2000/svg">
<path opacity="0.14" fill-rule="evenodd" clip-rule="evenodd" d="M3.21799 4.09202C3 4.51984 3 5.0799 3 6.2V13.8C3 14.9201 3 15.4802 3.21799 15.908C3.40973 16.2843 3.71569 16.5903 4.09202 16.782C4.51984 17 5.0799 17 6.2 17H17.8C18.9201 17 19.4802 17 19.908 16.782C20.2843 16.5903 20.5903 16.2843 20.782 15.908C21 15.4802 21 14.9201 21 13.8V6.2C21 5.0799 21 4.51984 20.782 4.09202C20.5903 3.71569 20.2843 3.40973 19.908 3.21799C19.4802 3 18.9201 3 17.8 3H6.2C5.0799 3 4.51984 3 4.09202 3.21799C3.71569 3.40973 3.40973 3.71569 3.21799 4.09202ZM7 9C8.10457 9 9 8.10457 9 7C9 5.89543 8.10457 5 7 5C5.89543 5 5 5.89543 5 7C5 8.10457 5.89543 9 7 9Z" fill="#0000CC"/>
<path d="M8 21H16M12 17V21M14.5 3H17.7997C18.9198 3 19.4798 3 19.9076 3.21799C20.284 3.40973 20.5899 3.71569 20.7817 4.09202C20.9997 4.51984 20.9997 5.07989 20.9997 6.2V13.8C20.9997 14.9201 20.9997 15.4802 20.7817 15.908C20.5899 16.2843 20.284 16.5903 19.9076 16.782C19.4798 17 18.9198 17 17.7997 17H6C5.06812 17 4.60218 17 4.23463 16.8478C3.74458 16.6448 3.35523 16.2554 3.15224 15.7654C3 15.3978 3 14.9319 3 14M7 2V2.41667M7 11.5835V12.0002M11.9997 7H11.583M2.41667 7H2M10.5349 3.46453L10.2402 3.75916M3.75947 10.2408L3.46484 10.5354M3.46514 3.46477L3.75977 3.7594M10.2415 10.241L10.5361 10.5356M9 7C9 8.10457 8.10457 9 7 9C5.89543 9 5 8.10457 5 7C5 5.89543 5.89543 5 7 5C8.10457 5 9 5.89543 9 7Z" stroke="#0000CC" stroke-width="2" stroke-linecap="round" stroke-linejoin="round"/>
</svg>
