<svg width="24" height="24" viewBox="0 0 24 24" fill="none" xmlns="http://www.w3.org/2000/svg">
<path opacity="0.14" d="M21 21V11H17V3H11V12.5385L16 21H21Z" fill="#0000CC"/>
<path d="M11 7V3H17V11H21M21 11V21M21 11V7M14 7H14.01M18 14H18.01M18 18H18.01M14 11H14.01M5.95455 16.0001L8.81126 11.1656C9.03797 10.782 9.15133 10.5901 9.29848 10.5253C9.42688 10.4688 9.57312 10.4688 9.70152 10.5253C9.84867 10.5901 9.96203 10.782 10.1887 11.1656L13.0455 16.0001M5.95455 16.0001L3 21.0001H16L13.0455 16.0001M5.95455 16.0001L8 18.0001L9.5 16.0001H13.0455" stroke="#0000CC" stroke-width="2" stroke-linecap="round" stroke-linejoin="round"/>
</svg>
