<svg width="24" height="24" viewBox="0 0 24 24" fill="none" xmlns="http://www.w3.org/2000/svg">
<g opacity="0.14">
<path d="M9 5L21 3V7L9 9V5Z" fill="#0000CC"/>
<path d="M18 19C19.6569 19 21 18.1046 21 17C21 15.8954 19.6569 15 18 15C16.3431 15 15 15.8954 15 17C15 18.1046 16.3431 19 18 19Z" fill="#0000CC"/>
<path d="M6 21C7.65685 21 9 20.1046 9 19C9 17.8954 7.65685 17 6 17C4.34315 17 3 17.8954 3 19C3 20.1046 4.34315 21 6 21Z" fill="#0000CC"/>
</g>
<path d="M9 19C9 20.1046 7.65685 21 6 21C4.34315 21 3 20.1046 3 19C3 17.8954 4.34315 17 6 17C7.65685 17 9 17.8954 9 19ZM9 19V5L21 3V17M21 17C21 18.1046 19.6569 19 18 19C16.3431 19 15 18.1046 15 17C15 15.8954 16.3431 15 18 15C19.6569 15 21 15.8954 21 17ZM9 9L21 7" stroke="#0000CC" stroke-width="2" stroke-linecap="round" stroke-linejoin="round"/>
</svg>
