<svg width="24" height="24" viewBox="0 0 24 24" fill="none" xmlns="http://www.w3.org/2000/svg">
<g opacity="0.14">
<path d="M17.447 3.35119L13.047 4.81786C12.8503 4.88343 12.752 4.91621 12.6792 4.97702C12.615 5.03072 12.5653 5.09968 12.5347 5.17757C12.5 5.26579 12.5 5.36946 12.5 5.57681V8.89026C12.5 9.265 12.5 9.45237 12.5784 9.57536C12.6471 9.68302 12.7544 9.76033 12.8782 9.79143C13.0197 9.82696 13.1975 9.76771 13.553 9.6492L17.953 8.18254C18.1497 8.11697 18.248 8.08419 18.3208 8.02338C18.385 7.96968 18.4347 7.90072 18.4653 7.82282C18.5 7.73461 18.5 7.63094 18.5 7.42359V4.11014C18.5 3.7354 18.5 3.54803 18.4216 3.42504C18.3529 3.31737 18.2456 3.24007 18.1218 3.20897C17.9803 3.17344 17.8025 3.23269 17.447 3.35119Z" fill="#0000CC"/>
<path d="M12.5 18.5002C12.5 19.8809 10.933 21.0002 9 21.0002C7.067 21.0002 5.5 19.8809 5.5 18.5002C5.5 17.1195 7.067 16.0002 9 16.0002C10.933 16.0002 12.5 17.1195 12.5 18.5002Z" fill="#0000CC"/>
</g>
<path d="M12.5 8.89075V18.5007M12.5 8.89075V5.57729C12.5 5.36995 12.5 5.26628 12.5347 5.17806C12.5653 5.10017 12.615 5.03121 12.6792 4.97751C12.752 4.9167 12.8503 4.88392 13.047 4.81835L17.447 3.35168C17.8025 3.23318 17.9803 3.17393 18.1218 3.20945C18.2456 3.24055 18.3529 3.31786 18.4216 3.42553C18.5 3.54852 18.5 3.73589 18.5 4.11063V7.42408C18.5 7.63142 18.5 7.7351 18.4653 7.82331C18.4347 7.90121 18.385 7.97017 18.3208 8.02386C18.248 8.08467 18.1497 8.11746 17.953 8.18303L13.553 9.64969C13.1975 9.7682 13.0197 9.82745 12.8782 9.79192C12.7544 9.76082 12.6471 9.68351 12.5784 9.57585C12.5 9.45285 12.5 9.26549 12.5 8.89075ZM12.5 18.5007C12.5 19.8814 10.933 21.0007 9 21.0007C7.067 21.0007 5.5 19.8814 5.5 18.5007C5.5 17.12 7.067 16.0007 9 16.0007C10.933 16.0007 12.5 17.12 12.5 18.5007Z" stroke="#0000CC" stroke-width="2" stroke-linecap="round" stroke-linejoin="round"/>
</svg>
