<svg width="24" height="24" viewBox="0 0 24 24" fill="none" xmlns="http://www.w3.org/2000/svg">
<path opacity="0.14" fill-rule="evenodd" clip-rule="evenodd" d="M12.1851 20.8648C12.3227 20.839 12.4539 20.7734 12.7162 20.6422L19.1156 17.4423C19.4366 17.2817 19.5972 17.2014 19.7144 17.0817C19.8181 16.9758 19.897 16.8482 19.9453 16.7081C20 16.5496 20 16.3701 20 16.0112V7.98882C20 7.62988 20 7.45041 19.9453 7.29196C19.9195 7.21688 19.8848 7.14538 19.8422 7.07889C19.8054 7.0213 19.7626 6.96747 19.7144 6.91832C19.5972 6.79857 19.4366 6.7183 19.1156 6.55777L12.7162 3.3578C12.4539 3.22661 12.3227 3.16102 12.1851 3.1352C12.0632 3.11233 11.9382 3.11232 11.8163 3.13518C11.6787 3.16099 11.5475 3.22658 11.2851 3.35775L4.88451 6.55779C4.56343 6.71832 4.40289 6.79858 4.2856 6.91833C4.23746 6.96748 4.19467 7.02131 4.1578 7.07891C4.11523 7.1454 4.08056 7.2169 4.05466 7.29199C4 7.45044 4 7.62993 4 7.9889V16.0111C4 16.3701 4 16.5496 4.05466 16.708C4.10299 16.8482 4.18188 16.9758 4.2856 17.0817C4.40289 17.2014 4.56343 17.2817 4.88451 17.4422L11.2851 20.6423C11.5475 20.7734 11.6787 20.839 11.8163 20.8648C11.877 20.8762 11.9385 20.8819 12 20.882C12.062 20.882 12.1239 20.8763 12.1851 20.8648ZM11.7305 4.25218C11.8709 4.18202 11.9419 4.14688 11.9947 4.12392L11.9989 4.1221L12.0031 4.12392C12.0559 4.14688 12.1269 4.18203 12.2672 4.2522L13.7624 4.99987L7.99823 7.88196L6.23438 7.00003L11.7305 4.25218ZM10.2343 8.99999L15.9984 6.11795L17.7622 6.99996L11.9983 9.88196L10.2343 8.99999Z" fill="#0000CC"/>
<path d="M19.9453 16.7081L19 16.382L19.9453 16.7081ZM19.1156 17.4423L19.5628 18.3367L19.1156 17.4423ZM19.7144 17.0817L19 16.382L19.7144 17.0817ZM19.1156 6.55777L18.6683 7.45218L19.1156 6.55777ZM19.7144 6.91832L19 7.61802L19.7144 6.91832ZM19.9453 7.29196L20.8907 6.9659L19.9453 7.29196ZM11.2851 3.35775L10.838 2.46331L11.2851 3.35775ZM11.8163 3.13518L12.0007 4.11804L11.8163 3.13518ZM12.7162 3.3578L13.1635 2.46339L12.7162 3.3578ZM12.1851 3.1352L12.3695 2.15235L12.1851 3.1352ZM4.05466 7.29199L5 7.61807L4.05466 7.29199ZM4.88451 6.55779L4.43733 5.66335L4.88451 6.55779ZM4.2856 6.91833L3.5712 6.21859L4.2856 6.91833ZM4.88451 17.4422L4.43733 18.3367L4.88451 17.4422ZM4.2856 17.0817L3.5712 17.7814L4.2856 17.0817ZM4.05466 16.708L3.10932 17.0341L4.05466 16.708ZM11.2851 20.6423L11.7323 19.7478L11.2851 20.6423ZM11.8163 20.8648L12.0007 19.882L11.8163 20.8648ZM12.7162 20.6422L12.269 19.7478L12.7162 20.6422ZM12.1851 20.8648L12.3695 21.8477L12.1851 20.8648ZM16.4472 5.89444C16.9412 5.64745 17.1414 5.04677 16.8944 4.55279C16.6474 4.05882 16.0468 3.85859 15.5528 4.10558L16.4472 5.89444ZM8.05279 14.1444C8.54676 14.3914 9.14744 14.1912 9.39443 13.6972C9.64142 13.2032 9.44119 12.6026 8.94721 12.3556L8.05279 14.1444ZM7.94721 11.8556C7.45324 11.6086 6.85256 11.8088 6.60557 12.3028C6.35858 12.7968 6.55881 13.3974 7.05279 13.6444L7.94721 11.8556ZM12 20.882L11.9994 21.882L12 20.882ZM11.7323 19.7478L5.33169 16.5478L4.43733 18.3367L10.838 21.5367L11.7323 19.7478ZM5 16.0111V7.9889H3V16.0111H5ZM5.33169 7.45224L11.7323 4.2522L10.838 2.46331L4.43733 5.66335L5.33169 7.45224ZM12.269 4.25222L18.6683 7.45218L19.5628 5.66335L13.1635 2.46339L12.269 4.25222ZM19 7.98882V16.0112H21V7.98882H19ZM18.6683 16.5478L12.269 19.7478L13.1635 21.5366L19.5628 18.3367L18.6683 16.5478ZM19 16.0112C19 16.2028 18.9996 16.3013 18.9951 16.3726C18.9914 16.4321 18.9873 16.4189 19 16.382L20.8907 17.0341C21.013 16.6794 21 16.2976 21 16.0112H19ZM19.5628 18.3367C19.819 18.2085 20.1663 18.0495 20.4289 17.7814L19 16.382C19.0273 16.3541 19.0409 16.3519 18.9894 16.3818C18.9276 16.4177 18.8397 16.4622 18.6683 16.5478L19.5628 18.3367ZM19 16.382L20.4289 17.7814C20.6363 17.5696 20.794 17.3144 20.8907 17.0341L19 16.382ZM18.6683 7.45218C18.8397 7.53786 18.9276 7.58232 18.9894 7.61818C19.0409 7.6481 19.0273 7.64588 19 7.61802L20.4289 6.21861C20.1663 5.95053 19.819 5.79147 19.5628 5.66335L18.6683 7.45218ZM21 7.98882C21 7.70237 21.013 7.32062 20.8907 6.9659L19 7.61802C18.9873 7.58115 18.9914 7.56795 18.9951 7.62745C18.9996 7.69874 19 7.79725 19 7.98882H21ZM11.7323 4.2522C11.8727 4.18204 11.9437 4.14689 11.9964 4.12393C12.0396 4.10517 12.0314 4.11227 12.0007 4.11804L11.6319 2.15233C11.3244 2.21001 11.0485 2.35806 10.838 2.46331L11.7323 4.2522ZM13.1635 2.46339C12.953 2.35812 12.677 2.21006 12.3695 2.15235L12.0007 4.11804C11.9699 4.11227 11.9617 4.10516 12.0049 4.12394C12.0576 4.1469 12.1287 4.18205 12.269 4.25222L13.1635 2.46339ZM12.0007 4.11804L12.3695 2.15235C12.1258 2.10661 11.8757 2.10661 11.6319 2.15233L12.0007 4.11804ZM5 7.9889C5 7.79731 5.00045 7.69879 5.00489 7.6275C5.0086 7.568 5.01272 7.5812 5 7.61807L3.10932 6.9659C2.98695 7.32065 3 7.70243 3 7.9889H5ZM4.43733 5.66335C4.18109 5.79146 3.83378 5.95051 3.5712 6.21859L5 7.61807C4.97271 7.64593 4.95906 7.64815 5.01062 7.61823C5.0724 7.58237 5.16032 7.53791 5.33169 7.45224L4.43733 5.66335ZM5.33169 16.5478C5.16032 16.4621 5.0724 16.4176 5.01062 16.3818C4.95907 16.3519 4.97271 16.3541 5 16.3819L3.5712 17.7814C3.83378 18.0495 4.18109 18.2086 4.43733 18.3367L5.33169 16.5478ZM3 16.0111C3 16.2976 2.98695 16.6794 3.10932 17.0341L5 16.3819C5.01272 16.4188 5.0086 16.432 5.00489 16.3725C5.00045 16.3012 5 16.2027 5 16.0111H3ZM5 16.3819L3.10932 17.0341C3.20599 17.3144 3.36375 17.5696 3.5712 17.7814L5 16.3819ZM10.838 21.5367C11.0485 21.642 11.3244 21.79 11.6319 21.8477L12.0007 19.882C12.0314 19.8877 12.0396 19.8948 11.9964 19.8761C11.9437 19.8531 11.8727 19.818 11.7323 19.7478L10.838 21.5367ZM12.269 19.7478C12.1287 19.818 12.0576 19.8531 12.0049 19.8761C11.9617 19.8949 11.9699 19.8877 12.0007 19.882L12.3695 21.8477C12.677 21.79 12.953 21.6419 13.1635 21.5366L12.269 19.7478ZM15.5528 4.10558L7.55279 8.10558L8.44721 9.89444L16.4472 5.89444L15.5528 4.10558ZM8.94721 12.3556L7.94721 11.8556L7.05279 13.6444L8.05279 14.1444L8.94721 12.3556ZM5 7.61807L5 7.61807L3.31559 6.53975C3.23046 6.67272 3.16112 6.81573 3.10932 6.9659L5 7.61807ZM5 7.61807L5 7.61807L3.5712 6.21859C3.47491 6.31689 3.38933 6.42456 3.31559 6.53975L5 7.61807ZM12.4472 10.1056L4.60501 6.18448L3.71058 7.97333L11.5528 11.8944L12.4472 10.1056ZM19 7.61802L19 7.61802L20.6845 6.53977C20.6107 6.42459 20.5251 6.31692 20.4289 6.21861L19 7.61802ZM19 7.61802L19 7.61802L20.8907 6.9659C20.8389 6.81573 20.7696 6.67274 20.6845 6.53977L19 7.61802ZM19.395 6.18447L11.5528 10.1056L12.4472 11.8944L20.2894 7.97332L19.395 6.18447ZM11.6319 21.8477C11.7534 21.8705 11.8764 21.8819 11.9994 21.882L12.0007 19.882H12.0007L11.6319 21.8477ZM11.9994 21.882C12.1233 21.8821 12.2472 21.8706 12.3695 21.8477L12.0007 19.882H12.0007L11.9994 21.882ZM11 11V20.882H13V11H11Z" fill="#0000CC"/>
</svg>
