<svg width="24" height="24" viewBox="0 0 24 24" fill="none" xmlns="http://www.w3.org/2000/svg">
<path opacity="0.14" d="M11.2851 20.6422L4.88451 17.4422C4.56345 17.2817 4.40289 17.2014 4.2856 17.0816C4.18188 16.9757 4.10299 16.8481 4.05466 16.708C4 16.5495 4 16.37 4 16.0111V7.98885C4 7.62988 4 7.4504 4.05466 7.29194C4.08056 7.21685 4.11523 7.14535 4.1578 7.07886L12 11V20.8819C11.9385 20.8819 11.877 20.8762 11.8163 20.8648C11.6787 20.839 11.5475 20.7734 11.2851 20.6422Z" fill="#0000CC"/>
<path d="M21.1213 19.0888L20.4015 18.3946L21.1213 19.0888ZM16.8787 19.0888L17.5985 18.3946L16.8787 19.0888ZM16.8787 14.689L17.8127 14.3319C17.6906 14.0124 17.4136 13.7774 17.0784 13.7091C16.7431 13.6408 16.3963 13.7486 16.1588 13.9949L16.8787 14.689ZM21.1213 14.689L20.4015 15.3831L21.1213 14.689ZM16 16.8889L15 16.8889L16 16.8889ZM22 16.8889L23 16.8889L22 16.8889ZM18.9947 13L19.7121 12.3033C19.3477 11.9281 18.7557 11.8971 18.3541 12.2322L18.9947 13ZM17.875 15.7222L17.4147 16.61C17.7247 16.7707 18.0961 16.7581 18.3945 16.5767C18.6929 16.3953 18.875 16.0714 18.875 15.7222H17.875ZM12 21L11.5528 21.8944C11.8628 22.0494 12.2309 22.0329 12.5258 21.8507C12.8206 21.6685 13 21.3466 13 21H12ZM16.4472 5.89444C16.9412 5.64745 17.1414 5.04677 16.8944 4.55279C16.6474 4.05882 16.0468 3.85859 15.5528 4.10558L16.4472 5.89444ZM4.88451 17.4422L5.33172 16.5478L5.33169 16.5478L4.88451 17.4422ZM4.88451 6.55779L5.33169 7.45224L5.33169 7.45223L4.88451 6.55779ZM11.2851 3.35775L11.7323 4.2522L11.7323 4.25219L11.2851 3.35775ZM12.7162 3.3578L12.269 4.25222V4.25222L12.7162 3.3578ZM19.1156 6.55777L19.5628 5.66335V5.66335L19.1156 6.55777ZM19 9.00001C19 9.55229 19.4477 10 20 10C20.5523 10 21 9.55229 21 9.00001H19ZM19.7144 6.91832L20.4289 6.21862L20.4289 6.21861L19.7144 6.91832ZM19.9453 7.29196L20.8907 6.9659V6.96589L19.9453 7.29196ZM11.8163 3.13518L12.0006 4.11804L12.0007 4.11804L11.8163 3.13518ZM12.1851 3.1352L12.0007 4.11804L12.0007 4.11804L12.1851 3.1352ZM4.05466 7.29199L5 7.61806H5L4.05466 7.29199ZM4.2856 6.91833L5 7.61807L5 7.61806L4.2856 6.91833ZM4.2856 17.0817L5 16.382L5 16.3819L4.2856 17.0817ZM4.05466 16.708L3.10932 17.0341L3.10932 17.0341L4.05466 16.708ZM8.05279 14.1444C8.54676 14.3914 9.14744 14.1912 9.39443 13.6972C9.64142 13.2032 9.44119 12.6026 8.94721 12.3556L8.05279 14.1444ZM7.94721 11.8556C7.45324 11.6086 6.85256 11.8088 6.60557 12.3028C6.35858 12.7968 6.55881 13.3974 7.05279 13.6444L7.94721 11.8556ZM19.8422 7.07889L20.6845 6.53977L19.8422 7.07889ZM20.4015 18.3946C19.6232 19.2018 18.3768 19.2018 17.5985 18.3946L16.1588 19.7829C17.7237 21.4057 20.2763 21.4057 21.8412 19.7829L20.4015 18.3946ZM17.5985 18.3946C17.2032 17.9846 17 17.442 17 16.8889L15 16.8889C15 17.9282 15.3826 18.978 16.1588 19.7829L17.5985 18.3946ZM17 16.8889C17 16.3358 17.2032 15.7932 17.5985 15.3831L16.1588 13.9949C15.3826 14.7998 15 15.8496 15 16.8889L17 16.8889ZM20.4015 15.3831C20.7968 15.7932 21 16.3358 21 16.8889L23 16.8889C23 15.8496 22.6174 14.7998 21.8412 13.9949L20.4015 15.3831ZM21 16.8889C21 17.442 20.7968 17.9846 20.4015 18.3946L21.8412 19.7829C22.6174 18.978 23 17.9282 23 16.8889L21 16.8889ZM18.2773 13.6967C18.7302 14.163 19.1874 14.4807 19.5564 14.7332C19.9457 14.9995 20.1935 15.1674 20.4015 15.3831L21.8412 13.9949C21.462 13.6017 21.0242 13.314 20.6857 13.0825C20.327 12.8371 20.0145 12.6148 19.7121 12.3033L18.2773 13.6967ZM16.8787 14.689C15.9446 15.0461 15.9448 15.0465 15.9449 15.0469C15.945 15.047 15.9451 15.0474 15.9452 15.0476C15.9454 15.0482 15.9456 15.0487 15.9458 15.0492C15.9462 15.0503 15.9467 15.0514 15.9471 15.0526C15.948 15.0549 15.949 15.0574 15.95 15.06C15.9522 15.0653 15.9546 15.0713 15.9573 15.0779C15.9627 15.0911 15.9695 15.1069 15.9775 15.1249C15.9936 15.161 16.0152 15.2066 16.043 15.2597C16.0983 15.3653 16.1794 15.503 16.2921 15.655C16.5171 15.9589 16.8765 16.3309 17.4147 16.61L18.3353 14.8345C18.1236 14.7247 17.9847 14.5801 17.8991 14.4645C17.8565 14.4069 17.8291 14.3592 17.8148 14.3319C17.8077 14.3184 17.8042 14.3106 17.8039 14.31C17.8038 14.3096 17.8045 14.3112 17.806 14.3148C17.8067 14.3165 17.8076 14.3188 17.8088 14.3217C17.8093 14.3231 17.8099 14.3247 17.8106 14.3264C17.8109 14.3272 17.8113 14.3281 17.8116 14.329C17.8118 14.3295 17.812 14.33 17.8122 14.3304C17.8123 14.3307 17.8124 14.331 17.8125 14.3312C17.8126 14.3315 17.8127 14.3319 16.8787 14.689ZM18.875 15.7222C18.875 15.0541 19.0433 14.2618 19.6353 13.7678L18.3541 12.2322C17.0817 13.2937 16.875 14.8348 16.875 15.7222H18.875ZM11 11V21H13V11H11ZM15.5528 4.10558L7.55279 8.10558L8.44721 9.89444L16.4472 5.89444L15.5528 4.10558ZM12.4472 20.1056L5.33172 16.5478L4.43729 18.3366L11.5528 21.8944L12.4472 20.1056ZM5 16.0111V7.9889H3V16.0111H5ZM5.33169 7.45223L11.7323 4.2522L10.838 2.46331L4.43733 5.66335L5.33169 7.45223ZM12.269 4.25222L18.6683 7.45218L19.5628 5.66335L13.1635 2.46339L12.269 4.25222ZM19 7.98882V9.00001H21V7.98882H19ZM18.6683 7.45218C18.8397 7.53786 18.9276 7.58232 18.9894 7.61818C19.0409 7.6481 19.0273 7.64588 19 7.61802L20.4289 6.21861C20.1663 5.95053 19.819 5.79147 19.5628 5.66335L18.6683 7.45218ZM21 7.98882C21 7.70237 21.013 7.32062 20.8907 6.9659L19 7.61802C18.9873 7.58115 18.9914 7.56795 18.9951 7.62745C18.9996 7.69874 19 7.79725 19 7.98882H21ZM11.7323 4.25219C11.8726 4.18204 11.9437 4.1469 11.9964 4.12394C12.0396 4.10516 12.0314 4.11227 12.0006 4.11804L11.6319 2.15232C11.3244 2.21001 11.0485 2.35807 10.8379 2.46331L11.7323 4.25219ZM13.1635 2.46339C12.953 2.35812 12.677 2.21006 12.3695 2.15235L12.0007 4.11804C11.9699 4.11227 11.9617 4.10516 12.0049 4.12394C12.0576 4.1469 12.1287 4.18205 12.269 4.25222L13.1635 2.46339ZM12.0007 4.11804V4.11804L12.3695 2.15235C12.1258 2.10661 11.8757 2.10661 11.6319 2.15232L12.0007 4.11804ZM5 7.9889C5 7.79731 5.00045 7.69879 5.00489 7.6275C5.0086 7.568 5.01272 7.5812 5 7.61806L3.10932 6.96591C2.98695 7.32065 3 7.70243 3 7.9889H5ZM4.43733 5.66335C4.1811 5.79145 3.83378 5.95051 3.5712 6.21859L5 7.61806C4.97271 7.64593 4.95906 7.64815 5.01063 7.61822C5.07241 7.58236 5.16033 7.53791 5.33169 7.45224L4.43733 5.66335ZM5.33169 16.5478C5.16032 16.4621 5.0724 16.4176 5.01062 16.3818C4.95906 16.3519 4.97271 16.3541 5 16.382L3.5712 17.7814C3.83378 18.0495 4.18109 18.2086 4.43733 18.3367L5.33169 16.5478ZM3 16.0111C3 16.2976 2.98695 16.6794 3.10932 17.0341L5 16.382C5.01272 16.4188 5.0086 16.432 5.00489 16.3725C5.00045 16.3012 5 16.2027 5 16.0111H3ZM5 16.3819L5 16.382L3.10932 17.0341C3.20599 17.3144 3.36375 17.5696 3.5712 17.7814L5 16.3819ZM8.94721 12.3556L7.94721 11.8556L7.05279 13.6444L8.05279 14.1444L8.94721 12.3556ZM5 7.61806L5 7.61807L3.31559 6.53975C3.23046 6.67272 3.16112 6.81573 3.10932 6.96591L5 7.61806ZM5 7.61807L5 7.61807L3.5712 6.21859C3.47491 6.31689 3.38933 6.42456 3.31559 6.53975L5 7.61807ZM12.4472 10.1056L4.60501 6.18448L3.71058 7.97333L11.5528 11.8944L12.4472 10.1056ZM19 7.61802L19 7.61802L20.6845 6.53977C20.6107 6.42459 20.5251 6.31692 20.4289 6.21862L19 7.61802ZM19 7.61802V7.61802L20.8907 6.96589C20.8389 6.81573 20.7696 6.67274 20.6845 6.53977L19 7.61802ZM19.395 6.18447L11.5528 10.1056L12.4472 11.8944L20.2894 7.97332L19.395 6.18447Z" fill="#0000CC"/>
</svg>
