<svg width="24" height="24" viewBox="0 0 24 24" fill="none" xmlns="http://www.w3.org/2000/svg">
<path opacity="0.14" d="M11.2851 20.6422L4.88451 17.4422C4.56345 17.2817 4.40289 17.2014 4.2856 17.0816C4.18188 16.9757 4.10299 16.8481 4.05466 16.708C4 16.5495 4 16.37 4 16.0111V7.98885C4 7.62988 4 7.4504 4.05466 7.29194C4.08056 7.21685 4.11523 7.14535 4.1578 7.07886L12 11V20.8819C11.9385 20.8819 11.877 20.8762 11.8163 20.8648C11.6787 20.839 11.5475 20.7734 11.2851 20.6422Z" fill="#0000CC"/>
<path d="M12 11L4.1578 7.0789M12 11L19.8422 7.07889M12 11V20.882M7 5.50013L4.88451 6.55778C4.56343 6.71831 4.40289 6.79857 4.2856 6.91832C4.23746 6.96747 4.19467 7.02131 4.1578 7.0789M17.0005 5.50013L19.1156 6.55776C19.4366 6.71829 19.5972 6.79856 19.7144 6.91831C19.7626 6.96746 19.8054 7.02129 19.8422 7.07889M12 7V2M12 7L14 5M12 7L10 5M8.5 13.25L7.5 12.75M4.1578 7.0789C4.11523 7.14539 4.08056 7.21689 4.05466 7.29198C4 7.45044 4 7.62992 4 7.98889V16.0111C4 16.3701 4 16.5496 4.05466 16.708C4.10299 16.8482 4.18188 16.9758 4.2856 17.0817C4.40289 17.2014 4.56343 17.2817 4.88451 17.4422L11.2851 20.6423C11.5475 20.7734 11.6787 20.839 11.8163 20.8648C11.877 20.8762 11.9385 20.8819 12 20.882M19.8422 7.07889C19.8848 7.14537 19.9195 7.21687 19.9453 7.29195C20 7.4504 20 7.62987 20 7.98882V16.0112C20 16.3701 20 16.5496 19.9453 16.7081C19.897 16.8482 19.8181 16.9758 19.7144 17.0817C19.5972 17.2014 19.4366 17.2817 19.1156 17.4422L12.7162 20.6422C12.4539 20.7734 12.3227 20.839 12.1851 20.8648C12.1239 20.8763 12.062 20.882 12 20.882" stroke="#0000CC" stroke-width="2" stroke-linecap="round" stroke-linejoin="round"/>
</svg>
