<svg width="24" height="24" viewBox="0 0 24 24" fill="none" xmlns="http://www.w3.org/2000/svg">
<path opacity="0.14" d="M11.2851 20.6422L4.88451 17.4422C4.56345 17.2817 4.40289 17.2014 4.2856 17.0816C4.18188 16.9757 4.10299 16.8481 4.05466 16.708C4 16.5495 4 16.37 4 16.0111V7.98885C4 7.62988 4 7.4504 4.05466 7.29194C4.08056 7.21685 4.11523 7.14535 4.1578 7.07886L12 11V20.8819C11.9385 20.8819 11.877 20.8762 11.8163 20.8648C11.6787 20.839 11.5475 20.7734 11.2851 20.6422Z" fill="#0000CC"/>
<path d="M17.2924 16.2929C16.9019 16.6834 16.9019 17.3166 17.2924 17.7071C17.6829 18.0976 18.3161 18.0976 18.7066 17.7071L17.2924 16.2929ZM15.0941 13.7507C14.9564 14.2856 15.2784 14.8308 15.8132 14.9684C16.3481 15.1061 16.8933 14.7841 17.0309 14.2493L15.0941 13.7507ZM18 19C17.4477 19 17 19.4477 17 20C17 20.5523 17.4477 21 18 21V19ZM18.01 21C18.5623 21 19.01 20.5523 19.01 20C19.01 19.4477 18.5623 19 18.01 19V21ZM11.285 20.6422L10.8379 21.5367H10.8379L11.285 20.6422ZM4.88451 17.4422L5.33169 16.5478H5.33169L4.88451 17.4422ZM4.88451 6.55779L5.33169 7.45224L5.33169 7.45223L4.88451 6.55779ZM11.2851 3.35775L11.7323 4.2522L11.7323 4.25219L11.2851 3.35775ZM12.7162 3.3578L12.269 4.25222V4.25222L12.7162 3.3578ZM19.1156 6.55777L19.5628 5.66335V5.66335L19.1156 6.55777ZM19 9.00001C19 9.55229 19.4477 10 20 10C20.5523 10 21 9.55229 21 9.00001H19ZM14.4473 20.8944C14.9413 20.6473 15.1414 20.0466 14.8944 19.5527C14.6473 19.0587 14.0466 18.8586 13.5527 19.1056L14.4473 20.8944ZM12.7163 20.6421L13.1636 21.5365L12.7163 20.6421ZM19.7144 6.91832L20.4289 6.21862L20.4289 6.21861L19.7144 6.91832ZM19.9453 7.29196L20.8907 6.9659V6.96589L19.9453 7.29196ZM11.8163 3.13518L12.0006 4.11804L12.0007 4.11804L11.8163 3.13518ZM12.1851 3.1352L12.0007 4.11804L12.0007 4.11804L12.1851 3.1352ZM4.05466 7.29199L5 7.61806H5L4.05466 7.29199ZM4.2856 6.91833L5 7.61807L5 7.61806L4.2856 6.91833ZM4.2856 17.0817L5 16.382L5 16.3819L4.2856 17.0817ZM4.05466 16.708L3.10932 17.0341L3.10932 17.0341L4.05466 16.708ZM11.8163 20.8648L11.6319 21.8477H11.6319L11.8163 20.8648ZM12.1851 20.8648L12.0006 19.8819L12.1851 20.8648ZM16.4472 5.89444C16.9412 5.64745 17.1414 5.04677 16.8944 4.55279C16.6474 4.05882 16.0468 3.85859 15.5528 4.10558L16.4472 5.89444ZM8.05279 14.1444C8.54676 14.3914 9.14744 14.1912 9.39443 13.6972C9.64142 13.2032 9.44119 12.6026 8.94721 12.3556L8.05279 14.1444ZM7.94721 11.8556C7.45324 11.6086 6.85256 11.8088 6.60557 12.3028C6.35858 12.7968 6.55881 13.3974 7.05279 13.6444L7.94721 11.8556ZM19.8422 7.07889L20.6845 6.53977L19.8422 7.07889ZM12 20.8819L11.9995 21.8819L12 20.8819ZM18.9995 14.5C18.9995 14.6732 18.954 14.8053 18.68 15.0697C18.5263 15.218 18.3453 15.3653 18.0944 15.574C17.8561 15.7723 17.5766 16.0087 17.2924 16.2929L18.7066 17.7071C18.9225 17.4913 19.143 17.3033 19.3734 17.1116C19.5912 16.9305 19.8477 16.7223 20.069 16.5088C20.545 16.0493 20.9995 15.4314 20.9995 14.5H18.9995ZM17.9995 13.5C18.5518 13.5 18.9995 13.9477 18.9995 14.5H20.9995C20.9995 12.8432 19.6563 11.5 17.9995 11.5V13.5ZM17.0309 14.2493C17.142 13.8177 17.5349 13.5 17.9995 13.5V11.5C16.6002 11.5 15.427 12.457 15.0941 13.7507L17.0309 14.2493ZM18 21H18.01V19H18V21ZM11.7322 19.7478L5.33169 16.5478L4.43733 18.3367L10.8379 21.5367L11.7322 19.7478ZM5 16.0111V7.9889H3V16.0111H5ZM5.33169 7.45223L11.7323 4.2522L10.838 2.46331L4.43733 5.66335L5.33169 7.45223ZM12.269 4.25222L18.6683 7.45218L19.5628 5.66335L13.1635 2.46339L12.269 4.25222ZM19 7.98882V9.00001H21V7.98882H19ZM13.5527 19.1056L12.2689 19.7477L13.1636 21.5365L14.4473 20.8944L13.5527 19.1056ZM18.6683 7.45218C18.8397 7.53786 18.9276 7.58232 18.9894 7.61818C19.0409 7.6481 19.0273 7.64588 19 7.61802L20.4289 6.21861C20.1663 5.95053 19.819 5.79147 19.5628 5.66335L18.6683 7.45218ZM21 7.98882C21 7.70237 21.013 7.32062 20.8907 6.9659L19 7.61802C18.9873 7.58115 18.9914 7.56795 18.9951 7.62745C18.9996 7.69874 19 7.79725 19 7.98882H21ZM11.7323 4.25219C11.8726 4.18204 11.9437 4.1469 11.9964 4.12394C12.0396 4.10516 12.0314 4.11227 12.0006 4.11804L11.6319 2.15232C11.3244 2.21001 11.0485 2.35807 10.8379 2.46331L11.7323 4.25219ZM13.1635 2.46339C12.953 2.35812 12.677 2.21006 12.3695 2.15235L12.0007 4.11804C11.9699 4.11227 11.9617 4.10516 12.0049 4.12394C12.0576 4.1469 12.1287 4.18205 12.269 4.25222L13.1635 2.46339ZM12.0007 4.11804V4.11804L12.3695 2.15235C12.1258 2.10661 11.8757 2.10661 11.6319 2.15232L12.0007 4.11804ZM5 7.9889C5 7.79731 5.00045 7.69879 5.00489 7.6275C5.0086 7.568 5.01272 7.5812 5 7.61806L3.10932 6.96591C2.98695 7.32065 3 7.70243 3 7.9889H5ZM4.43733 5.66335C4.1811 5.79145 3.83378 5.95051 3.5712 6.21859L5 7.61806C4.97271 7.64593 4.95906 7.64815 5.01063 7.61822C5.07241 7.58236 5.16033 7.53791 5.33169 7.45224L4.43733 5.66335ZM5.33169 16.5478C5.16032 16.4621 5.0724 16.4176 5.01062 16.3818C4.95906 16.3519 4.97271 16.3541 5 16.382L3.5712 17.7814C3.83378 18.0495 4.18109 18.2086 4.43733 18.3367L5.33169 16.5478ZM3 16.0111C3 16.2976 2.98695 16.6794 3.10932 17.0341L5 16.382C5.01272 16.4188 5.0086 16.432 5.00489 16.3725C5.00045 16.3012 5 16.2027 5 16.0111H3ZM5 16.3819L5 16.382L3.10932 17.0341C3.20599 17.3144 3.36375 17.5696 3.5712 17.7814L5 16.3819ZM10.8379 21.5367C11.0484 21.6419 11.3244 21.79 11.6319 21.8477L12.0006 19.8819C12.0314 19.8877 12.0395 19.8948 11.9964 19.8761C11.9436 19.8531 11.8726 19.8179 11.7322 19.7478L10.8379 21.5367ZM12.2689 19.7477C12.1286 19.8179 12.0576 19.8531 12.0048 19.876C11.9617 19.8948 11.9698 19.8877 12.0006 19.8819L12.3696 21.8476C12.6772 21.7899 12.9531 21.6418 13.1636 21.5365L12.2689 19.7477ZM15.5528 4.10558L7.55279 8.10558L8.44721 9.89444L16.4472 5.89444L15.5528 4.10558ZM8.94721 12.3556L7.94721 11.8556L7.05279 13.6444L8.05279 14.1444L8.94721 12.3556ZM5 7.61806L5 7.61807L3.31559 6.53975C3.23046 6.67272 3.16112 6.81573 3.10932 6.96591L5 7.61806ZM5 7.61807L5 7.61807L3.5712 6.21859C3.47491 6.31689 3.38933 6.42456 3.31559 6.53975L5 7.61807ZM12.4472 10.1056L4.60501 6.18448L3.71058 7.97333L11.5528 11.8944L12.4472 10.1056ZM19 7.61802L19 7.61802L20.6845 6.53977C20.6107 6.42459 20.5251 6.31692 20.4289 6.21862L19 7.61802ZM19 7.61802V7.61802L20.8907 6.96589C20.8389 6.81573 20.7696 6.67274 20.6845 6.53977L19 7.61802ZM19.395 6.18447L11.5528 10.1056L12.4472 11.8944L20.2894 7.97332L19.395 6.18447ZM11.6319 21.8477C11.7534 21.8705 11.8764 21.8819 11.9995 21.8819L12.0006 19.8819H12.0006L11.6319 21.8477ZM11.9995 21.8819C12.1234 21.882 12.2473 21.8706 12.3696 21.8476L12.0006 19.8819H12.0006L11.9995 21.8819ZM11 11V20.8819H13V11H11Z" fill="#0000CC"/>
</svg>
