<svg width="24" height="24" viewBox="0 0 24 24" fill="none" xmlns="http://www.w3.org/2000/svg">
<path opacity="0.14" d="M7.08984 20.9985C8.88477 20.9985 10.3398 19.5434 10.3398 17.7485C10.3398 15.9536 8.88477 14.4985 7.08984 14.4985C5.41089 14.4985 4.02929 15.7716 3.85777 17.4051C3.83395 17.632 3.87245 17.8596 3.93667 18.0785C4.26276 19.1899 3.74629 20.3753 2.7103 20.8933L2.5 20.9985H7.08984Z" fill="#0000CC"/>
<path d="M11.7935 10.792L20.4603 3.45534C20.7653 3.19713 21.2173 3.21587 21.5 3.49846C21.7826 3.78106 21.8013 4.23315 21.5431 4.5382L14.2065 13.2049M11.7935 10.792L9.58785 12.659C8.7162 13.3969 8.66122 14.7221 9.46875 15.5296C10.2763 16.3372 11.6015 16.2822 12.3393 15.4106L14.2065 13.2049M11.7935 10.792L14.2065 13.2049M10.3398 17.7485C10.3398 19.5434 8.88477 20.9985 7.08984 20.9985H2.5L2.7103 20.8933C3.74629 20.3753 4.26276 19.1899 3.93667 18.0785C3.87245 17.8596 3.83395 17.632 3.85777 17.4051C4.02929 15.7716 5.41089 14.4985 7.08984 14.4985C8.88477 14.4985 10.3398 15.9536 10.3398 17.7485Z" stroke="#0000CC" stroke-width="2" stroke-linecap="round" stroke-linejoin="round"/>
</svg>
