<svg width="24" height="24" viewBox="0 0 24 24" fill="none" xmlns="http://www.w3.org/2000/svg">
<g opacity="0.14">
<path d="M18.9999 17.0089C18.9999 18.1086 18.1045 19 16.9999 19C15.8953 19 14.9999 18.1086 14.9999 17.0089C14.9999 15.9093 15.8953 15.0179 16.9999 15.0179C18.1045 15.0179 18.9999 15.9093 18.9999 17.0089Z" fill="#0000CC"/>
<path d="M9 6.99105C9 8.09069 8.10457 8.98212 7 8.98212C5.89543 8.98212 5 8.09069 5 6.99105C5 5.89141 5.89543 4.99998 7 4.99998C8.10457 4.99998 9 5.89141 9 6.99105Z" fill="#0000CC"/>
</g>
<path d="M5 19L19 5M9 7C9 8.10457 8.10457 9 7 9C5.89543 9 5 8.10457 5 7C5 5.89543 5.89543 5 7 5C8.10457 5 9 5.89543 9 7ZM19 17C19 18.1046 18.1046 19 17 19C15.8954 19 15 18.1046 15 17C15 15.8954 15.8954 15 17 15C18.1046 15 19 15.8954 19 17Z" stroke="#0000CC" stroke-width="2" stroke-linecap="round" stroke-linejoin="round"/>
</svg>
