<svg width="24" height="24" viewBox="0 0 24 24" fill="none" xmlns="http://www.w3.org/2000/svg">
<g opacity="0.14">
<path d="M4.96733 3.50812L3 4.00002C3 7.27022 3.74856 10.2196 5.10583 12.7083C5.11069 12.7172 5.123 12.7184 5.1295 12.7106L8.15456 9.08666C8.46255 8.69067 8.61655 8.49267 8.69726 8.27061C8.76867 8.07411 8.79821 7.86486 8.784 7.65628C8.76793 7.42055 8.67477 7.18766 8.48846 6.72187L7.77776 4.94513C7.50204 4.25581 7.36417 3.91116 7.12635 3.68525C6.91678 3.48618 6.65417 3.3519 6.37009 3.29856C6.0477 3.23803 5.68758 3.32806 4.96733 3.50812Z" fill="#0000CC"/>
<path d="M20.4916 19.0324L20 21C16.9567 21 14.1913 20.3517 11.8164 19.1679C11.8056 19.1625 11.8033 19.148 11.8119 19.1395L14.8807 16.1191C15.2854 15.7144 15.4877 15.512 15.728 15.4002C15.9404 15.3013 16.1729 15.2536 16.4071 15.2608C16.672 15.2689 16.9377 15.3752 17.4691 15.5878L19.0546 16.222C19.7439 16.4977 20.0886 16.6356 20.3145 16.8734C20.5136 17.083 20.6478 17.3456 20.7012 17.6297C20.7617 17.952 20.6717 18.3122 20.4916 19.0324Z" fill="#0000CC"/>
</g>
<path d="M5.13758 12.7653L8.15505 9.08664C8.46304 8.69065 8.61704 8.49264 8.69774 8.27058C8.76915 8.07409 8.7987 7.86484 8.78448 7.65625C8.76842 7.42053 8.67526 7.18763 8.48895 6.72184L7.77825 4.9451C7.50253 4.25579 7.36466 3.91113 7.12684 3.68522C6.91727 3.48615 6.65465 3.35188 6.37058 3.29854C6.04819 3.238 5.68807 3.32804 4.96782 3.5081L3.00049 4C3.00049 14 10.0002 21 20.0005 21L20.4921 19.0324C20.6722 18.3121 20.7622 17.952 20.7017 17.6296C20.6483 17.3456 20.5141 17.0829 20.315 16.8734C20.0891 16.6355 19.7444 16.4977 19.0551 16.222L17.4696 15.5877C16.9382 15.3752 16.6725 15.2689 16.4076 15.2608C16.1734 15.2536 15.9409 15.3013 15.7285 15.4001C15.4882 15.512 15.2859 15.7143 14.8812 16.119L11.817 19.1679M18.0002 9L18.0002 3M15.0002 6H21.0002" stroke="#0000CC" stroke-width="2" stroke-linecap="round" stroke-linejoin="round"/>
</svg>
