<svg width="24" height="24" viewBox="0 0 24 24" fill="none" xmlns="http://www.w3.org/2000/svg">
<path opacity="0.14" d="M11 21H8V11L5.20871 10.4417C3.92444 10.1849 3 9.05725 3 7.74755C3 6.23012 4.23012 5 5.74755 5H10V4C10 3.44772 10.4477 3 11 3C11.5523 3 12 3.44772 12 4V10H17C18.884 10 20.4637 11.3024 20.888 13.056C20.9612 13.3587 21 13.6748 21 14V21H18V18H11V21Z" fill="#0000CC"/>
<path d="M8 21H7C7 21.5523 7.44772 22 8 22V21ZM11 21V22C11.5523 22 12 21.5523 12 21H11ZM11 18V17C10.4477 17 10 17.4477 10 18H11ZM12 10H11C11 10.5523 11.4477 11 12 11V10ZM10 5V6C10.5523 6 11 5.55228 11 5H10ZM5.20871 10.4417L5.40483 9.46116H5.40483L5.20871 10.4417ZM8 11H9C9 10.5233 8.66354 10.1129 8.19612 10.0194L8 11ZM20.888 13.056L21.8599 12.8209V12.8209L20.888 13.056ZM10 14L9.55279 14.8944C9.83431 15.0352 10.1657 15.0352 10.4472 14.8944L10 14ZM12 13L12.4472 12.1056C12.1657 11.9648 11.8343 11.9648 11.5528 12.1056L12 13ZM14 14L13.5528 14.8944C13.8343 15.0352 14.1657 15.0352 14.4472 14.8944L14 14ZM16 13L16.4472 12.1056C16.1657 11.9648 15.8343 11.9648 15.5528 12.1056L16 13ZM18 14L17.5528 14.8944C17.8272 15.0316 18.1494 15.0353 18.4268 14.9043L18 14ZM20 13.056V12.056C19.8524 12.056 19.7066 12.0887 19.5732 12.1517L20 13.056ZM8.44721 12.1056C7.95324 11.8586 7.35256 12.0588 7.10557 12.5528C6.85858 13.0468 7.05881 13.6474 7.55279 13.8944L8.44721 12.1056ZM10 18L9.55279 18.8944C9.83431 19.0352 10.1657 19.0352 10.4472 18.8944L10 18ZM12 17L12.4472 16.1056C12.1657 15.9648 11.8343 15.9648 11.5528 16.1056L12 17ZM14 18L13.5528 18.8944C13.8343 19.0352 14.1657 19.0352 14.4472 18.8944L14 18ZM16 17L16.4472 16.1056C16.1657 15.9648 15.8343 15.9648 15.5528 16.1056L16 17ZM20 17.056V16.056C19.8524 16.056 19.7066 16.0887 19.5732 16.1517L20 17.056ZM20.888 18.056C21.4403 18.056 21.888 17.6083 21.888 17.056C21.888 16.5037 21.4403 16.056 20.888 16.056V18.056ZM8.44721 16.1056C7.95324 15.8586 7.35256 16.0588 7.10557 16.5528C6.85858 17.0468 7.05881 17.6474 7.55279 17.8944L8.44721 16.1056ZM18 21H17C17 21.5523 17.4477 22 18 22V21ZM21 21V22C21.5523 22 22 21.5523 22 21H21ZM9 7C8.44772 7 8 7.44772 8 8C8 8.55228 8.44772 9 9 9V7ZM9.009 9C9.56128 9 10.009 8.55228 10.009 8C10.009 7.44772 9.56128 7 9.009 7V9ZM8 22H11V20H8V22ZM12 21V18H10V21H12ZM17 9H12V11H17V9ZM13 10V4H11V10H13ZM9 4V5H11V4H9ZM10 4H5.74755V6H10V4ZM5.01259 11.4223L7.80388 11.9806L8.19612 10.0194L5.40483 9.46116L5.01259 11.4223ZM2 7.74755C2 9.53393 3.2609 11.072 5.01259 11.4223L5.40483 9.46116C4.58798 9.29779 4 8.58057 4 7.74755H2ZM11 2C9.89543 2 9 2.89543 9 4H11V2ZM13 4C13 2.89543 12.1046 2 11 2V4V4H13ZM5.74755 4C3.67784 4 2 5.67783 2 7.74755H4C4 6.7824 4.7824 6 5.74755 6V4ZM22 14C22 13.595 21.9516 13.2 21.8599 12.8209L19.916 13.2912C19.9708 13.5174 20 13.7546 20 14H22ZM21.8599 12.8209C21.3296 10.6289 19.3563 9 17 9V11C18.4116 11 19.5978 11.976 19.916 13.2912L21.8599 12.8209ZM10.4472 14.8944L12.4472 13.8944L11.5528 12.1056L9.55279 13.1056L10.4472 14.8944ZM11.5528 13.8944L13.5528 14.8944L14.4472 13.1056L12.4472 12.1056L11.5528 13.8944ZM14.4472 14.8944L16.4472 13.8944L15.5528 12.1056L13.5528 13.1056L14.4472 14.8944ZM15.5528 13.8944L17.5528 14.8944L18.4472 13.1056L16.4472 12.1056L15.5528 13.8944ZM18.4268 14.9043L20.4268 13.9603L19.5732 12.1517L17.5732 13.0957L18.4268 14.9043ZM20 14.056H20.888V12.056H20V14.056ZM10.4472 18.8944L12.4472 17.8944L11.5528 16.1056L9.55279 17.1056L10.4472 18.8944ZM11.5528 17.8944L13.5528 18.8944L14.4472 17.1056L12.4472 16.1056L11.5528 17.8944ZM14.4472 18.8944L16.4472 17.8944L15.5528 16.1056L13.5528 17.1056L14.4472 18.8944ZM15.5528 17.8944L17.5528 18.8944L18.4472 17.1056L16.4472 16.1056L15.5528 17.8944ZM18.4268 18.9043L20.4268 17.9603L19.5732 16.1517L17.5732 17.0957L18.4268 18.9043ZM20 18.056H20.888V16.056H20V18.056ZM11 19H18V17H11V19ZM17 18V21H19V18H17ZM18 22H21V20H18V22ZM9 9H9.009V7H9V9ZM7 11V21H9V11H7ZM22 21V14H20V21H22ZM7.55279 13.8944L9.55279 14.8944L10.4472 13.1056L8.44721 12.1056L7.55279 13.8944ZM7.55279 17.8944L9.55279 18.8944L10.4472 17.1056L8.44721 16.1056L7.55279 17.8944Z" fill="#0000CC"/>
</svg>
