<svg width="24" height="24" viewBox="0 0 24 24" fill="none" xmlns="http://www.w3.org/2000/svg">
<g clip-path="url(#clip0_1_9285)">
<path opacity="0.14" d="M11.0241 4.03983C13.3829 2.5334 16.4655 2.76975 18.5803 4.603C20.8557 6.57549 21.4552 9.88481 19.9963 12.5191L19.435 13.5325L19.1536 14.1516C18.1953 16.2599 16.5056 17.9496 14.3973 18.908L14.2356 18.9815C13.931 19.1199 13.6367 19.2798 13.3547 19.4598L12.7859 19.8232C10.1715 21.4929 6.73017 21.0071 4.68025 18.6789C2.57979 16.2932 2.5895 12.7154 4.70289 10.3412L5.93917 8.95234C6.29522 8.55236 6.60609 8.11435 6.86614 7.64624L7.41909 6.65094C7.94879 5.69748 8.81665 4.97722 9.85139 4.63231C10.1918 4.51884 10.5169 4.36378 10.8193 4.17064L11.0241 4.03983Z" fill="#0000CC"/>
<path d="M19.435 13.5325L18.5602 13.0481C18.5474 13.0711 18.5355 13.0947 18.5246 13.1187L19.435 13.5325ZM19.1536 14.1517L20.0639 14.5655V14.5655L19.1536 14.1517ZM14.3973 18.908L14.8111 19.8184H14.8111L14.3973 18.908ZM7.41907 6.65096L6.54491 6.16532H6.54491L7.41907 6.65096ZM9.85137 4.63233L9.53514 3.68365L9.85137 4.63233ZM13.3547 19.4599L13.893 20.3026H13.893L13.3547 19.4599ZM14.2355 18.9815L13.8217 18.0711L13.8217 18.0711L14.2355 18.9815ZM5.93915 8.95237L5.19221 8.28748V8.28748L5.93915 8.95237ZM6.86612 7.64627L7.74028 8.13191L6.86612 7.64627ZM10.8193 4.17067L10.281 3.32788V3.32788L10.8193 4.17067ZM4.68022 18.6789L5.43077 18.0181L4.68022 18.6789ZM4.70287 10.3412L5.44981 11.0061V11.0061L4.70287 10.3412ZM12.7858 19.8232L12.2476 18.9804H12.2476L12.7858 19.8232ZM18.5803 4.60303L17.9252 5.35864L18.5803 4.60303ZM19.9962 12.5191L19.1214 12.0347L19.9962 12.5191ZM11.0241 4.03985L11.5624 4.88264V4.88264L11.0241 4.03985ZM17.7301 8.99485C17.3396 8.60431 16.7064 8.60429 16.3159 8.9948C15.9253 9.3853 15.9253 10.0185 16.3158 10.409L17.7301 8.99485ZM16.3222 10.4154C16.7127 10.8059 17.3459 10.8059 17.7364 10.4154C18.1269 10.0249 18.127 9.39175 17.7364 9.00121L16.3222 10.4154ZM12.0732 8.99485C11.6827 8.60431 11.0496 8.60429 10.659 8.9948C10.2685 9.3853 10.2684 10.0185 10.659 10.409L12.0732 8.99485ZM10.6653 10.4154C11.0558 10.8059 11.689 10.8059 12.0795 10.4154C12.4701 10.0249 12.4701 9.39175 12.0796 9.00121L10.6653 10.4154ZM8.53764 13.9445C8.1471 13.554 7.51394 13.5541 7.12343 13.9446C6.73292 14.3351 6.73294 14.9683 7.12348 15.3588L8.53764 13.9445ZM7.12984 15.3652C7.52038 15.7557 8.15355 15.7557 8.54406 15.3651C8.93457 14.9746 8.93454 14.3414 8.544 13.9509L7.12984 15.3652ZM12.7803 12.5304C12.3898 12.1398 11.7566 12.1398 11.3661 12.5304C10.9756 12.9209 10.9756 13.554 11.3661 13.9446L12.7803 12.5304ZM11.3725 13.9509C11.763 14.3415 12.3961 14.3415 12.7867 13.9509C13.1772 13.5604 13.1772 12.9272 12.7867 12.5367L11.3725 13.9509ZM11.3575 5.01345L11.5624 4.88264L10.4859 3.19707L10.281 3.32788L11.3575 5.01345ZM5.44981 11.0061L6.68609 9.61726L5.19221 8.28748L3.95593 9.67632L5.44981 11.0061ZM19.1214 12.0347L18.5602 13.0481L20.3098 14.017L20.871 13.0036L19.1214 12.0347ZM12.8164 18.6171L12.2476 18.9804L13.3241 20.666L13.893 20.3026L12.8164 18.6171ZM7.74028 8.13191L8.29322 7.13661L6.54491 6.16532L5.99196 7.16062L7.74028 8.13191ZM18.5246 13.1187L18.2432 13.7379L20.0639 14.5655L20.3454 13.9463L18.5246 13.1187ZM13.9835 17.9976L13.8217 18.0711L14.6493 19.8919L14.8111 19.8184L13.9835 17.9976ZM18.2432 13.7379C17.3849 15.626 15.8716 17.1393 13.9835 17.9976L14.8111 19.8184C17.1395 18.76 19.0056 16.8939 20.0639 14.5655L18.2432 13.7379ZM8.29322 7.13661C8.70142 6.40186 9.37021 5.84681 10.1676 5.58102L9.53514 3.68365C8.26304 4.10768 7.19611 4.99316 6.54491 6.16532L8.29322 7.13661ZM13.893 20.3026C14.1351 20.148 14.3878 20.0107 14.6494 19.8919L13.8217 18.0711C13.4742 18.2291 13.1382 18.4116 12.8164 18.6171L13.893 20.3026ZM6.68609 9.61726C7.091 9.16238 7.44453 8.66426 7.74028 8.13191L5.99196 7.16062C5.76759 7.56449 5.49939 7.94239 5.19221 8.28748L6.68609 9.61726ZM10.281 3.32788C10.048 3.47672 9.79746 3.59621 9.53514 3.68365L10.1676 5.58102C10.5861 5.44152 10.9858 5.25089 11.3575 5.01345L10.281 3.32788ZM5.43077 18.0181C3.66428 16.0118 3.67245 13.0028 5.44981 11.0061L3.95593 9.67632C1.5065 12.428 1.49524 16.5748 3.92968 19.3397L5.43077 18.0181ZM3.92968 19.3397C6.30555 22.0381 10.2941 22.6012 13.3241 20.666L12.2476 18.9804C10.0489 20.3847 7.15475 19.9761 5.43077 18.0181L3.92968 19.3397ZM17.9252 5.35864C19.8465 7.02413 20.3496 9.81709 19.1214 12.0347L20.871 13.0036C22.5608 9.95257 21.8648 6.12689 19.2353 3.84742L17.9252 5.35864ZM19.2353 3.84742C16.7886 1.7264 13.2207 1.45043 10.4859 3.19707L11.5624 4.88264C13.545 3.61641 16.1424 3.81316 17.9252 5.35864L19.2353 3.84742ZM16.3158 10.409L16.3222 10.4154L17.7364 9.00121L17.7301 8.99485L16.3158 10.409ZM10.659 10.409L10.6653 10.4154L12.0796 9.00121L12.0732 8.99485L10.659 10.409ZM7.12348 15.3588L7.12984 15.3652L8.544 13.9509L8.53764 13.9445L7.12348 15.3588ZM11.3661 13.9446L11.3725 13.9509L12.7867 12.5367L12.7803 12.5304L11.3661 13.9446Z" fill="#0000CC"/>
</g>
<defs>
<clipPath id="clip0_1_9285">
<rect width="24" height="24" fill="white"/>
</clipPath>
</defs>
</svg>
