<svg width="24" height="24" viewBox="0 0 24 24" fill="none" xmlns="http://www.w3.org/2000/svg">
<path opacity="0.14" d="M6 11.5C6 10.6716 6.67157 10 7.5 10C8.32843 10 9 10.6716 9 11.5V12H12V9H12.5C13.3284 9 14 8.32843 14 7.5C14 6.67157 13.3284 6 12.5 6H12V3H21V12H18V12.5C18 13.3284 17.3284 14 16.5 14C15.6716 14 15 13.3284 15 12.5V12H12V15H11.5C10.6716 15 10 15.6716 10 16.5C10 17.3284 10.6716 18 11.5 18H12V21H3V12H6V11.5Z" fill="#0000CC"/>
<path d="M12 3H3V12M12 3V6H12.5C13.3284 6 14 6.67157 14 7.5C14 8.32843 13.3284 9 12.5 9H12V12M12 3H21V12M3 12H6V11.5C6 10.6716 6.67157 10 7.5 10C8.32843 10 9 10.6716 9 11.5V12H12M3 12V21H12M12 12H15V12.5C15 13.3284 15.6716 14 16.5 14C17.3284 14 18 13.3284 18 12.5V12H21M12 12V15H11.5C10.6716 15 10 15.6716 10 16.5C10 17.3284 10.6716 18 11.5 18H12V21M12 21H21V12" stroke="#0000CC" stroke-width="2" stroke-linejoin="round"/>
</svg>
