<svg width="24" height="24" viewBox="0 0 24 24" fill="none" xmlns="http://www.w3.org/2000/svg">
<g opacity="0.14">
<path d="M19.0078 12.0295C16.6647 14.3727 12.7523 14.7603 10.7997 12.8077C8.8471 10.8551 9.16366 7.37269 11.5068 5.02954C13.8499 2.6864 17.7623 2.29875 19.7149 4.25137C21.6675 6.20399 21.351 9.6864 19.0078 12.0295Z" fill="#0000CC"/>
<path d="M8 18L6 16L3 19L5 21L8 18Z" fill="#0000CC"/>
<path d="M19.0078 12.0295C16.6647 14.3727 12.7523 14.7603 10.7997 12.8077C8.8471 10.8551 9.16366 7.37269 11.5068 5.02954C13.8499 2.6864 17.7623 2.29875 19.7149 4.25137C21.6675 6.20399 21.351 9.6864 19.0078 12.0295Z" stroke="#0000CC" stroke-width="2" stroke-linejoin="round"/>
<path d="M8 18L6 16L3 19L5 21L8 18Z" stroke="#0000CC" stroke-width="2" stroke-linejoin="round"/>
</g>
<path d="M11 13L7 17M19.0078 12.0295C16.6647 14.3727 12.7523 14.7603 10.7997 12.8077C8.8471 10.8551 9.16366 7.37269 11.5068 5.02954C13.8499 2.6864 17.7623 2.29875 19.7149 4.25137C21.6675 6.20399 21.351 9.6864 19.0078 12.0295ZM6 16L8 18L5 21L3 19L6 16Z" stroke="#0000CC" stroke-width="2" stroke-linejoin="round"/>
</svg>
