<svg width="24" height="24" viewBox="0 0 24 24" fill="none" xmlns="http://www.w3.org/2000/svg">
<g opacity="0.14">
<path d="M3 16H6V21H3V16Z" fill="#0000CC"/>
<path d="M10 13H14V21H10V13Z" fill="#0000CC"/>
<path d="M18 18H21V21H18V18Z" fill="#0000CC"/>
<path d="M12 3L12.7082 5.2918H15L13.1459 6.7082L13.8541 9L12 7.58359L10.1459 9L10.8541 6.7082L9 5.2918H11.2918L12 3Z" fill="#0000CC"/>
</g>
<path d="M3 16H6V21H3V16Z" stroke="#0000CC" stroke-width="2" stroke-linejoin="round"/>
<path d="M10 13H14V21H10V13Z" stroke="#0000CC" stroke-width="2" stroke-linejoin="round"/>
<path d="M18 18H21V21H18V18Z" stroke="#0000CC" stroke-width="2" stroke-linejoin="round"/>
<path d="M12 3L12.7082 5.2918H15L13.1459 6.7082L13.8541 9L12 7.58359L10.1459 9L10.8541 6.7082L9 5.2918H11.2918L12 3Z" stroke="#0000CC" stroke-width="2" stroke-linejoin="round"/>
</svg>
