<svg width="24" height="24" viewBox="0 0 24 24" fill="none" xmlns="http://www.w3.org/2000/svg">
<path opacity="0.14" d="M5 9.19982C5 8.07971 5 7.51966 5.21799 7.09184C5.40973 6.71551 5.71569 6.40955 6.09202 6.2178C6.51984 5.99982 7.0799 5.99982 8.2 5.99982H15.8C16.9201 5.99982 17.4802 5.99982 17.908 6.2178C18.2843 6.40955 18.5903 6.71551 18.782 7.09184C19 7.51966 19 8.07971 19 9.19982V17.7998C19 18.9199 19 19.48 18.782 19.9078C18.5903 20.2841 18.2843 20.5901 17.908 20.7818C17.4802 20.9998 16.9201 20.9998 15.8 20.9998H8.2C7.0799 20.9998 6.51984 20.9998 6.09202 20.7818C5.71569 20.5901 5.40973 20.2841 5.21799 19.9078C5 19.48 5 18.9199 5 17.7998V9.19982Z" fill="#0000CC"/>
<path d="M16 6.00002V4.28434C16 3.51581 16 3.13155 15.8387 2.88315C15.6976 2.66581 15.4776 2.51174 15.2252 2.45339C14.9366 2.38671 14.5755 2.51803 13.8532 2.78067L6.57982 5.42554C6.01064 5.63251 5.72605 5.736 5.51615 5.91839C5.33073 6.0795 5.18772 6.28368 5.09968 6.51298C5 6.77258 5 7.0754 5 7.68104V12M9 17H15M9 13.5H15M9 10H15M8.2 21H15.8C16.9201 21 17.4802 21 17.908 20.782C18.2843 20.5903 18.5903 20.2843 18.782 19.908C19 19.4802 19 18.9201 19 17.8V9.20002C19 8.07991 19 7.51986 18.782 7.09204C18.5903 6.71571 18.2843 6.40975 17.908 6.218C17.4802 6.00002 16.9201 6.00002 15.8 6.00002H8.2C7.0799 6.00002 6.51984 6.00002 6.09202 6.218C5.71569 6.40975 5.40973 6.71571 5.21799 7.09204C5 7.51986 5 8.07991 5 9.20002V17.8C5 18.9201 5 19.4802 5.21799 19.908C5.40973 20.2843 5.71569 20.5903 6.09202 20.782C6.51984 21 7.07989 21 8.2 21Z" stroke="#0000CC" stroke-width="2" stroke-linecap="round" stroke-linejoin="round"/>
</svg>
