<svg width="24" height="24" viewBox="0 0 24 24" fill="none" xmlns="http://www.w3.org/2000/svg">
<g opacity="0.14">
<path d="M12.0137 8C10.9091 8 10.0137 7.10457 10.0137 6C10.0137 4.89543 10.9091 4 12.0137 4C13.1182 4 14.0137 4.89543 14.0137 6C14.0137 7.10457 13.1182 8 12.0137 8Z" fill="#0000CC"/>
<path d="M3.21992 13.968C3.14555 14.1003 3.10836 14.1664 3.07768 14.2605C3.0565 14.3256 3.03336 14.4503 3.02983 14.5186C3.0247 14.6175 3.03125 14.6621 3.04432 14.7512C3.2508 16.1584 4.50191 17 6.01445 17C7.48638 17 8.71072 15.86 8.96568 14.7486C8.97914 14.6899 8.98587 14.6606 8.98633 14.5494C8.98661 14.4811 8.96391 14.3239 8.94429 14.2584C8.9124 14.1519 8.87792 14.0906 8.80898 13.9681L6.01445 9L3.21992 13.968Z" fill="#0000CC"/>
<path d="M15.2199 17.968C15.1455 18.1003 15.1084 18.1664 15.0777 18.2605C15.0565 18.3256 15.0334 18.4503 15.0298 18.5186C15.0247 18.6175 15.0313 18.6621 15.0443 18.7513C15.2508 20.1584 16.5019 21 18.0144 21C19.4864 21 20.7107 19.86 20.9657 18.7486C20.9791 18.6899 20.9859 18.6606 20.9863 18.5494C20.9866 18.4811 20.9639 18.3239 20.9443 18.2584C20.9124 18.1519 20.8779 18.0906 20.809 17.968L18.0144 13L15.2199 17.968Z" fill="#0000CC"/>
</g>
<path d="M4.00004 21H12V8.00003M12 8.00003C10.8955 8.00003 10 7.1046 10 6.00003C10 5.76008 10.0423 5.53 10.1198 5.31682M12 8.00003C13.1046 8.00003 14 7.1046 14 6.00003C14 4.89546 13.1046 4.00003 12 4.00003C11.1354 4.00003 10.3989 4.54868 10.1198 5.31682M13.876 6.684L19.5142 8.73612M4.47912 3.26379L10.1198 5.31682M18 21C16.4875 21 15.2364 20.1585 15.0299 18.7513C15.0168 18.6621 15.0103 18.6175 15.0154 18.5186C15.019 18.4504 15.0421 18.3256 15.0633 18.2606C15.094 18.1664 15.1311 18.1003 15.2055 17.9681L18 13L20.7946 17.9681C20.8635 18.0907 20.898 18.1519 20.9299 18.2584C20.9495 18.3239 20.9722 18.4811 20.9719 18.5495C20.9715 18.6606 20.9647 18.6899 20.9513 18.7486C20.6963 19.86 19.472 21 18 21ZM6.00004 17C4.4875 17 3.2364 16.1585 3.02993 14.7513C3.01684 14.6621 3.0103 14.6175 3.01542 14.5186C3.01895 14.4504 3.04209 14.3256 3.06327 14.2606C3.09395 14.1664 3.13114 14.1003 3.20552 13.9681L6.00004 9.00003L8.79456 13.9681C8.86351 14.0907 8.89799 14.1519 8.92988 14.2584C8.9495 14.3239 8.9722 14.4811 8.97192 14.5495C8.97146 14.6606 8.96473 14.6899 8.95127 14.7486C8.69631 15.86 7.47197 17 6.00004 17Z" stroke="#0000CC" stroke-width="2" stroke-linecap="round" stroke-linejoin="round"/>
</svg>
