<svg width="24" height="24" viewBox="0 0 24 24" fill="none" xmlns="http://www.w3.org/2000/svg">
<path opacity="0.14" d="M8.19939 19.7744C6.55603 20.3198 5.73435 20.5926 5.22888 20.394C4.78992 20.2216 4.4576 19.8528 4.33169 19.3983C4.18671 18.875 4.54325 18.0861 5.25633 16.5082L9.84259 6.36006C10.5394 4.8182 10.8878 4.04726 11.3705 3.80958C11.7898 3.60309 12.2814 3.60388 12.7001 3.81172C13.182 4.05094 13.5279 4.82299 14.2198 6.36709L18.7624 16.5053C19.4699 18.0843 19.8236 18.8737 19.6771 19.3965C19.5499 19.8505 19.2166 20.2182 18.7773 20.3893C18.2714 20.5864 17.4511 20.3118 15.8103 19.7625L12.7976 18.754C12.5162 18.6597 12.3754 18.6126 12.2314 18.5938C12.1036 18.5771 11.9742 18.5769 11.8464 18.5933C11.7023 18.6117 11.5614 18.6585 11.2797 18.752L8.19939 19.7744Z" fill="#0000CC"/>
<path d="M11.9999 18.5816V12.5M12.7972 18.754L15.8099 19.7625C17.4506 20.3118 18.2709 20.5864 18.7768 20.3893C19.2161 20.2182 19.5494 19.8505 19.6766 19.3965C19.8232 18.8737 19.4694 18.0843 18.7619 16.5053L14.2193 6.36709C13.5275 4.82299 13.1815 4.05094 12.6996 3.81172C12.281 3.60388 11.7893 3.60309 11.37 3.80958C10.8873 4.04726 10.5389 4.8182 9.8421 6.36006L5.25584 16.5082C4.54276 18.086 4.18622 18.875 4.3312 19.3983C4.45711 19.8528 4.78943 20.2216 5.2284 20.394C5.73386 20.5926 6.55554 20.3198 8.1989 19.7744L11.2792 18.752C11.561 18.6585 11.7018 18.6117 11.8459 18.5933C11.9737 18.5769 12.1031 18.5771 12.2309 18.5938C12.3749 18.6126 12.5157 18.6597 12.7972 18.754Z" stroke="#0000CC" stroke-width="2" stroke-linecap="round" stroke-linejoin="round"/>
</svg>
