<svg width="24" height="24" viewBox="0 0 24 24" fill="none" xmlns="http://www.w3.org/2000/svg">
<path opacity="0.14" d="M11.302 21.6149C11.5234 21.744 11.6341 21.8086 11.7903 21.8421C11.9116 21.8681 12.0884 21.8681 12.2097 21.8421C12.3659 21.8086 12.4766 21.744 12.698 21.6149C14.646 20.4784 20 16.9084 20 12V6.6C20 6.04207 20 5.7631 19.8926 5.55048C19.7974 5.36198 19.6487 5.21152 19.4613 5.11409C19.25 5.00419 18.9663 5.00084 18.3988 4.99413C15.4272 4.95899 13.7136 4.71361 12 3C10.2864 4.71361 8.57279 4.95899 5.6012 4.99413C5.03373 5.00084 4.74999 5.00419 4.53865 5.11409C4.35129 5.21152 4.20259 5.36198 4.10739 5.55048C4 5.7631 4 6.04207 4 6.6V12C4 16.9084 9.35396 20.4784 11.302 21.6149Z" fill="#0000CC"/>
<path d="M3 3L21 21M9.98271 4.38434C10.7008 4.08819 11.3504 3.64959 12 3C13.7136 4.71361 15.4272 4.95899 18.3988 4.99413C18.9663 5.00084 19.25 5.00419 19.4613 5.11409C19.6487 5.21152 19.7974 5.36198 19.8926 5.55048C20 5.7631 20 6.04207 20 6.6V12C20 12.722 19.8842 13.415 19.6804 14.0756M17.6219 17.6257C15.9353 19.587 13.7857 20.9803 12.698 21.6149C12.4766 21.744 12.3659 21.8086 12.2097 21.8421C12.0884 21.8681 11.9116 21.8681 11.7903 21.8421C11.6341 21.8086 11.5234 21.744 11.302 21.6149C9.35396 20.4784 4 16.9084 4 12V6.6C4 6.04206 4 5.76309 4.10739 5.55047C4.2026 5.36197 4.3513 5.2115 4.53866 5.11407C4.65727 5.0524 4.7986 5.02428 5 5.0103" stroke="#0000CC" stroke-width="2" stroke-linecap="round" stroke-linejoin="round"/>
</svg>
