<svg width="24" height="24" viewBox="0 0 24 24" fill="none" xmlns="http://www.w3.org/2000/svg">
<path opacity="0.14" d="M13.462 3H8.2C7.0799 3 6.51984 3 6.09202 3.21799C5.71569 3.40973 5.40973 3.71569 5.21799 4.09202C5 4.51984 5 5.0799 5 6.2V17.8C5 18.9201 5 19.4802 5.21799 19.908C5.40973 20.2843 5.71569 20.5903 6.09202 20.782C6.51984 21 7.0799 21 8.2 21H15.8C16.9201 21 17.4802 21 17.908 20.782C18.2843 20.5903 18.5903 20.2843 18.782 19.908C19 19.4802 19 18.9201 19 17.8V9.1225C19 8.70646 19 8.49845 18.9592 8.29948C18.9229 8.12295 18.863 7.95213 18.781 7.79166C18.6886 7.61078 18.5587 7.44834 18.2988 7.12348L15.9608 4.20098C15.608 3.75994 15.4315 3.53943 15.2126 3.3807C15.0186 3.24008 14.8009 3.13546 14.5699 3.07183C14.3092 3 14.0268 3 13.462 3Z" fill="#0000CC"/>
<path d="M8 6.5V8.5M11 6.5V8.5M14 6.5V8.5M8.2 3H13.462C14.0268 3 14.3092 3 14.5699 3.07183C14.8009 3.13546 15.0186 3.24008 15.2126 3.3807C15.4315 3.53943 15.608 3.75994 15.9608 4.20098L18.2988 7.12348C18.5587 7.44834 18.6886 7.61078 18.781 7.79166C18.863 7.95213 18.9229 8.12295 18.9592 8.29948C19 8.49845 19 8.70646 19 9.1225V17.8C19 18.9201 19 19.4802 18.782 19.908C18.5903 20.2843 18.2843 20.5903 17.908 20.782C17.4802 21 16.9201 21 15.8 21H8.2C7.0799 21 6.51984 21 6.09202 20.782C5.71569 20.5903 5.40973 20.2843 5.21799 19.908C5 19.4802 5 18.9201 5 17.8V6.2C5 5.0799 5 4.51984 5.21799 4.09202C5.40973 3.71569 5.71569 3.40973 6.09202 3.21799C6.51984 3 7.0799 3 8.2 3Z" stroke="#0000CC" stroke-width="2" stroke-linecap="round" stroke-linejoin="round"/>
</svg>
