<svg width="24" height="24" viewBox="0 0 24 24" fill="none" xmlns="http://www.w3.org/2000/svg">
<path opacity="0.14" fill-rule="evenodd" clip-rule="evenodd" d="M12 3C16.9706 3 21 7.02944 21 12V13C21 15.2091 19.2091 17 17 17V21H7V17C4.79086 17 3 15.2091 3 13V12C3 7.02944 7.02944 3 12 3ZM8 12.5C9.10457 12.5 10 11.6046 10 10.5C10 9.39543 9.10457 8.5 8 8.5C6.89543 8.5 6 9.39543 6 10.5C6 11.6046 6.89543 12.5 8 12.5ZM16 12.5C17.1046 12.5 18 11.6046 18 10.5C18 9.39543 17.1046 8.5 16 8.5C14.8954 8.5 14 9.39543 14 10.5C14 11.6046 14.8954 12.5 16 12.5Z" fill="#0000CC"/>
<path d="M10 18V21M14 20V21M21 12V13C21 15.2091 19.2091 17 17 17V21H7V17C4.79086 17 3 15.2091 3 13V12C3 7.02944 7.02944 3 12 3C16.9706 3 21 7.02944 21 12ZM10 10.5C10 11.6046 9.10457 12.5 8 12.5C6.89543 12.5 6 11.6046 6 10.5C6 9.39543 6.89543 8.5 8 8.5C9.10457 8.5 10 9.39543 10 10.5ZM18 10.5C18 11.6046 17.1046 12.5 16 12.5C14.8954 12.5 14 11.6046 14 10.5C14 9.39543 14.8954 8.5 16 8.5C17.1046 8.5 18 9.39543 18 10.5Z" stroke="#0000CC" stroke-width="2" stroke-linecap="round" stroke-linejoin="round"/>
</svg>
