<svg width="24" height="24" viewBox="0 0 24 24" fill="none" xmlns="http://www.w3.org/2000/svg">
<path opacity="0.14" d="M12 3C7.02944 3 3 7.02944 3 12C3 14.8273 4.30367 17.35 6.34267 19H8V21H16V19H17.6573C19.6963 17.35 21 14.8273 21 12C21 7.02944 16.9706 3 12 3Z" fill="#0000CC"/>
<path d="M12 18V21M8 18V21H16V18M13.5 14L12 12.5L10.5 14M8 19H6.34267C4.30367 17.35 3 14.8273 3 12C3 7.02944 7.02944 3 12 3C16.9706 3 21 7.02944 21 12C21 14.8273 19.6963 17.35 17.6573 19H16M10 9C10 9.55228 9.55228 10 9 10C8.44772 10 8 9.55228 8 9C8 8.44772 8.44772 8 9 8C9.55228 8 10 8.44772 10 9ZM16 9C16 9.55228 15.5523 10 15 10C14.4477 10 14 9.55228 14 9C14 8.44772 14.4477 8 15 8C15.5523 8 16 8.44772 16 9Z" stroke="#0000CC" stroke-width="2" stroke-linecap="round" stroke-linejoin="round"/>
</svg>
