<svg width="24" height="24" viewBox="0 0 24 24" fill="none" xmlns="http://www.w3.org/2000/svg">
<path d="M6.76467 7V17.8354M5.68131 7.54173L6.76485 8.62527L7.84821 7.54173M5.68131 17.2936L6.76485 16.21L7.84821 17.2936M2.07278 9.70887L11.4565 15.1266M2.00033 10.9181L3.48047 10.5215L3.08378 9.04134M10.4451 15.794L10.0485 14.3139L11.529 13.9173M11.4561 9.70887L2.07242 15.1266M10.4456 9.04136L10.049 10.5215L11.5291 10.9181M2 13.9172L3.48014 14.3138L3.08387 15.794M14.9998 11H19.4998C20.8805 11 21.9998 9.88071 21.9998 8.5C21.9998 7.11929 20.8805 6 19.4998 6H18.4998M14.9998 15H19.4998C20.8805 15 21.9998 16.1193 21.9998 17.5C21.9998 18.8807 20.8805 20 19.4998 20H18.4998" stroke="#0000CC" stroke-width="2" stroke-linecap="round" stroke-linejoin="round"/>
</svg>
