<svg width="24" height="24" viewBox="0 0 24 24" fill="none" xmlns="http://www.w3.org/2000/svg">
<g opacity="0.14">
<path d="M16.0686 14.9999H7.9313C7.32548 14.9999 7.02257 14.9999 6.88231 15.1197C6.76061 15.2237 6.69602 15.3796 6.70858 15.5392C6.72305 15.723 6.93724 15.9372 7.36561 16.3656L11.4342 20.4342C11.6323 20.6322 11.7313 20.7313 11.8454 20.7683C11.9458 20.801 12.054 20.801 12.1544 20.7683C12.2686 20.7313 12.3676 20.6322 12.5656 20.4342L16.6342 16.3656C17.0626 15.9372 17.2768 15.723 17.2913 15.5392C17.3038 15.3796 17.2392 15.2237 17.1175 15.1197C16.9773 14.9999 16.6744 14.9999 16.0686 14.9999Z" fill="#0000CC"/>
<path d="M7.9313 8.99992H16.0686C16.6744 8.99992 16.9773 8.99992 17.1175 8.88013C17.2393 8.77618 17.3038 8.62025 17.2913 8.4607C17.2768 8.2768 17.0626 8.06262 16.6342 7.63424L12.5656 3.56561C12.3676 3.3676 12.2686 3.2686 12.1544 3.2315C12.054 3.19887 11.9458 3.19887 11.8454 3.2315C11.7313 3.2686 11.6323 3.3676 11.4342 3.56561L7.36561 7.63424C6.93724 8.06261 6.72305 8.2768 6.70858 8.4607C6.69602 8.62025 6.76061 8.77618 6.88231 8.88013C7.02257 8.99992 7.32548 8.99992 7.9313 8.99992Z" fill="#0000CC"/>
</g>
<path d="M16.0686 14.9999H7.9313C7.32548 14.9999 7.02257 14.9999 6.88231 15.1197C6.76061 15.2237 6.69602 15.3796 6.70858 15.5392C6.72305 15.723 6.93724 15.9372 7.36561 16.3656L11.4342 20.4342C11.6323 20.6322 11.7313 20.7313 11.8454 20.7683C11.9458 20.801 12.054 20.801 12.1544 20.7683C12.2686 20.7313 12.3676 20.6322 12.5656 20.4342L16.6342 16.3656C17.0626 15.9372 17.2768 15.723 17.2913 15.5392C17.3038 15.3796 17.2392 15.2237 17.1175 15.1197C16.9773 14.9999 16.6744 14.9999 16.0686 14.9999Z" stroke="#0000CC" stroke-width="2" stroke-linecap="round" stroke-linejoin="round"/>
<path d="M7.9313 8.99992H16.0686C16.6744 8.99992 16.9773 8.99992 17.1175 8.88013C17.2393 8.77618 17.3038 8.62025 17.2913 8.4607C17.2768 8.2768 17.0626 8.06262 16.6342 7.63424L12.5656 3.56561C12.3676 3.3676 12.2686 3.2686 12.1544 3.2315C12.054 3.19887 11.9458 3.19887 11.8454 3.2315C11.7313 3.2686 11.6323 3.3676 11.4342 3.56561L7.36561 7.63424C6.93724 8.06261 6.72305 8.2768 6.70858 8.4607C6.69602 8.62025 6.76061 8.77618 6.88231 8.88013C7.02257 8.99992 7.32548 8.99992 7.9313 8.99992Z" stroke="#0000CC" stroke-width="2" stroke-linecap="round" stroke-linejoin="round"/>
</svg>
