<svg width="24" height="24" viewBox="0 0 24 24" fill="none" xmlns="http://www.w3.org/2000/svg">
<path opacity="0.14" d="M14 21H21V14C21 7.92487 16.0751 3 10 3H3V10C3 16.0751 7.92487 21 14 21Z" fill="#0000CC"/>
<path d="M21 21V22C21.5523 22 22 21.5523 22 21H21ZM3 3V2C2.44772 2 2 2.44772 2 3H3ZM6.22163 17.778L5.51451 18.4851L6.22163 17.778ZM17.7782 6.22182L18.4853 5.51471L17.7782 6.22182ZM16 16.101L16.7142 16.8009L16 16.101ZM21 20H14V22H21V20ZM20 14V21H22V14H20ZM4 10V3H2V10H4ZM3 4H10V2H3V4ZM14 20C11.2382 20 8.73951 18.8817 6.92876 17.0709L5.51451 18.4851C7.685 20.6557 10.6865 22 14 22V20ZM6.92876 17.0709C5.11812 15.2602 4 12.7616 4 10H2C2 13.3133 3.34415 16.3146 5.51451 18.4851L6.92876 17.0709ZM22 14C22 10.6866 20.6558 7.68519 18.4853 5.51471L17.0711 6.92893C18.8818 8.73967 20 11.2383 20 14H22ZM18.4853 5.51471C16.3148 3.34424 13.3134 2 10 2V4C12.7617 4 15.2603 5.11819 17.0711 6.92893L18.4853 5.51471ZM9 3C9 4.65713 8.32952 6.15576 7.24264 7.24264L8.65685 8.65685C10.1035 7.21023 11 5.20886 11 3H9ZM7.24264 7.24264C6.15576 8.32952 4.65713 9 3 9V11C5.20886 11 7.21023 10.1035 8.65685 8.65685L7.24264 7.24264ZM8.65685 7.24264L3.70711 2.29289L2.29289 3.70711L7.24264 8.65685L8.65685 7.24264ZM15 21C15 19.3648 15.6528 17.8841 16.7142 16.8009L15.2858 15.4011C13.8728 16.843 13 18.8206 13 21H15ZM16.7142 16.8009C17.8044 15.6884 19.3209 15 21 15V13C18.7617 13 16.7366 13.9205 15.2858 15.4011L16.7142 16.8009ZM21.7071 20.2929L12.707 11.2928L11.2928 12.707L20.2929 21.7071L21.7071 20.2929ZM12.707 11.2928L8.65685 7.24264L7.24264 8.65685L11.2928 12.707L12.707 11.2928ZM17.0711 5.5147L11.2928 11.2928L12.707 12.707L18.4853 6.92894L17.0711 5.5147ZM11.2928 11.2928L5.51454 17.0709L6.92873 18.4851L12.707 12.707L11.2928 11.2928Z" fill="#0000CC"/>
</svg>
