<svg width="24" height="24" viewBox="0 0 24 24" fill="none" xmlns="http://www.w3.org/2000/svg">
<rect opacity="0.14" x="4" y="4" width="16" height="16" rx="2" fill="#0000CC"/>
<path d="M4 7.2C4 6.07989 4 5.51984 4.21799 5.09202C4.40973 4.71569 4.71569 4.40973 5.09202 4.21799C5.51984 4 6.0799 4 7.2 4H16.8C17.9201 4 18.4802 4 18.908 4.21799C19.2843 4.40973 19.5903 4.71569 19.782 5.09202C20 5.51984 20 6.0799 20 7.2V16.8C20 17.9201 20 18.4802 19.782 18.908C19.5903 19.2843 19.2843 19.5903 18.908 19.782C18.4802 20 17.9201 20 16.8 20H7.2C6.07989 20 5.51984 20 5.09202 19.782C4.71569 19.5903 4.40973 19.2843 4.21799 18.908C4 18.4802 4 17.9201 4 16.8V7.2Z" stroke="#0000CC" stroke-width="2" stroke-linecap="round" stroke-linejoin="round"/>
<path d="M15 12C15 13 14.8452 13.6138 14.5714 14.2222C14.0562 15.3674 13.0909 16 12 16C10.9091 16 9.95489 15.2942 9.42857 14.2222C9.11651 13.5866 9 13 9 12C9 11 9.11651 10.4134 9.42857 9.77778C9.95489 8.70579 10.9091 8 12 8C13.0909 8 14.0451 8.70579 14.5714 9.77778C14.8835 10.4134 15 11 15 12Z" stroke="#0000CC" stroke-width="2" stroke-linecap="round" stroke-linejoin="round"/>
</svg>
