<svg width="24" height="24" viewBox="0 0 24 24" fill="none" xmlns="http://www.w3.org/2000/svg">
<path opacity="0.14" d="M7 10.2C7 9.0799 7 8.51984 7.21799 8.09202C7.40973 7.71569 7.71569 7.40973 8.09202 7.21799C8.51984 7 9.0799 7 10.2 7H13.8C14.9201 7 15.4802 7 15.908 7.21799C16.2843 7.40973 16.5903 7.71569 16.782 8.09202C17 8.51984 17 9.0799 17 10.2V13.8C17 14.9201 17 15.4802 16.782 15.908C16.5903 16.2843 16.2843 16.5903 15.908 16.782C15.4802 17 14.9201 17 13.8 17H10.2C9.0799 17 8.51984 17 8.09202 16.782C7.71569 16.5903 7.40973 16.2843 7.21799 15.908C7 15.4802 7 14.9201 7 13.8V10.2Z" fill="#0000CC"/>
<rect x="7" y="7" width="10" height="10" rx="2" stroke="#0000CC" stroke-width="2" stroke-linecap="round" stroke-linejoin="round"/>
</svg>
