<svg width="24" height="24" viewBox="0 0 24 24" fill="none" xmlns="http://www.w3.org/2000/svg">
<path opacity="0.14" fill-rule="evenodd" clip-rule="evenodd" d="M4 7.2C4 6.0799 4 5.51984 4.21799 5.09202C4.40973 4.71569 4.7157 4.40973 5.09202 4.21799C5.51984 4 6.0799 4 7.2 4H16.8C17.9201 4 18.4802 4 18.908 4.21799C19.2843 4.40973 19.5903 4.71569 19.782 5.09202C20 5.51984 20 6.0799 20 7.2V16.8C20 17.9201 20 18.4802 19.782 18.908C19.5903 19.2843 19.2843 19.5903 18.908 19.782C18.4802 20 17.9201 20 16.8 20H7.2C6.0799 20 5.51984 20 5.09202 19.782C4.7157 19.5903 4.40973 19.2843 4.21799 18.908C4 18.4802 4 17.9201 4 16.8V7.2ZM16.2 8.14864C16.2 9.72895 15.8354 11.153 15.1748 12.3521L13.5763 10.3922C13.4195 10.1905 13.3814 9.92072 13.4763 9.68349L14.0489 8.25202C14.1824 7.91808 14.5422 7.73415 14.8911 7.82138L16.2 8.14864ZM10.302 13.7583L11.9589 15.4281C10.8233 15.9914 9.50203 16.2998 8.04863 16.2998L7.72153 14.9909C7.6343 14.642 7.81823 14.2823 8.15217 14.1487L9.52635 13.5991C9.79348 13.4922 10.0986 13.5548 10.302 13.7583Z" fill="#0000CC"/>
<path d="M15.2757 12.3531C15.9362 11.154 16.3008 9.72993 16.3008 8.14962L14.9919 7.82236C14.643 7.73513 14.2833 7.91906 14.1497 8.253L13.5771 9.68446C13.4822 9.92169 13.5203 10.1915 13.6772 10.3931L15.2757 12.3531ZM15.2757 12.3531C14.5395 13.6894 13.4359 14.7464 12.0597 15.4291M12.0597 15.4291C10.9241 15.9924 9.60286 16.3007 8.14946 16.3007L7.82236 14.9919C7.73513 14.643 7.91906 14.2833 8.253 14.1497L9.62718 13.6C9.89431 13.4932 10.1994 13.5558 10.4029 13.7592L12.0597 15.4291ZM7.2 4H16.8C17.9201 4 18.4802 4 18.908 4.21799C19.2843 4.40973 19.5903 4.71569 19.782 5.09202C20 5.51984 20 6.0799 20 7.2V16.8C20 17.9201 20 18.4802 19.782 18.908C19.5903 19.2843 19.2843 19.5903 18.908 19.782C18.4802 20 17.9201 20 16.8 20H7.2C6.0799 20 5.51984 20 5.09202 19.782C4.71569 19.5903 4.40973 19.2843 4.21799 18.908C4 18.4802 4 17.9201 4 16.8V7.2C4 6.0799 4 5.51984 4.21799 5.09202C4.40973 4.71569 4.71569 4.40973 5.09202 4.21799C5.51984 4 6.0799 4 7.2 4Z" stroke="#0000CC" stroke-width="2" stroke-linecap="round" stroke-linejoin="round"/>
</svg>
