<svg width="24" height="24" viewBox="0 0 24 24" fill="none" xmlns="http://www.w3.org/2000/svg">
<path opacity="0.14" d="M11.2011 20.7768L15.2967 18.5015C16.9648 17.5748 17.9994 15.8165 17.9994 13.9082V7H9.99939L9.99939 13L7.59375 14.3747C5.36884 15.646 5.09587 18.7471 7.06447 20.3876C8.23058 21.3593 9.87422 21.514 11.2011 20.7768Z" fill="#0000CC"/>
<path d="M17.9994 7V13.9082C17.9994 15.8165 16.9648 17.5748 15.2967 18.5015L11.2011 20.7768C9.87422 21.514 8.23058 21.3593 7.06447 20.3876C5.09587 18.7471 5.36884 15.646 7.59375 14.3747L9.99939 13L9.99939 7M8.99939 3H18.9994V7H8.99939V3Z" stroke="#0000CC" stroke-width="2" stroke-linecap="round" stroke-linejoin="round"/>
</svg>
