<svg width="24" height="24" viewBox="0 0 24 24" fill="none" xmlns="http://www.w3.org/2000/svg">
<path opacity="0.14" d="M4.41064 11.5359L3.31047 18.137C3.20364 18.7779 3.15023 19.0984 3.243 19.3482C3.32441 19.5674 3.48005 19.7511 3.68286 19.8674C3.91398 20 4.23889 20 4.8887 20H12V12L17 20H19.1112C19.761 20 20.0859 20 20.3171 19.8674C20.5199 19.7511 20.6755 19.5674 20.7569 19.3482C20.8497 19.0984 20.7963 18.7779 20.6895 18.137L19.5893 11.5359C19.5562 11.3372 19.5396 11.2378 19.5047 11.1456C19.4738 11.0638 19.4323 10.9865 19.3813 10.9155C19.3237 10.8355 19.2501 10.7668 19.1028 10.6293L12 4L4.89716 10.6293C4.74985 10.7668 4.67618 10.8355 4.61866 10.9155C4.56762 10.9865 4.52611 11.0638 4.49519 11.1456C4.46033 11.2378 4.44377 11.3372 4.41064 11.5359Z" fill="#0000CC"/>
<path d="M12 4L5.29436 10.2586C4.99973 10.5336 4.85241 10.6711 4.73736 10.831C4.63528 10.973 4.55226 11.1277 4.49041 11.2912C4.42071 11.4755 4.38758 11.6743 4.32132 12.0719L3.31047 18.137C3.20364 18.7779 3.15023 19.0984 3.243 19.3482C3.32441 19.5674 3.48005 19.7511 3.68286 19.8674C3.91398 20 4.23889 20 4.8887 20H12M12 4L18.7056 10.2586C19.0002 10.5336 19.1475 10.6711 19.2626 10.831C19.3646 10.973 19.4477 11.1277 19.5095 11.2912C19.5792 11.4755 19.6124 11.6743 19.6786 12.0719L20.6895 18.137C20.7963 18.7779 20.8497 19.0984 20.7569 19.3482C20.6755 19.5674 20.5199 19.7511 20.3171 19.8674C20.0859 20 19.761 20 19.1112 20H17M12 4V12M17 20H12M17 20L12 12M12 20V12" stroke="#0000CC" stroke-width="2" stroke-linecap="round" stroke-linejoin="round"/>
</svg>
