<svg width="24" height="24" viewBox="0 0 24 24" fill="none" xmlns="http://www.w3.org/2000/svg">
<g opacity="0.14">
<path d="M19 20H5L6.94444 15H17.0556L19 20Z" fill="#0000CC"/>
<path d="M11.4736 4.13405C11.093 4.33217 10.8287 5.01189 10.3 6.37132L8.88889 9.99996H15.1111L13.7 6.37132L13.7 6.3713C13.1713 5.01188 12.907 4.33217 12.5264 4.13405C12.1965 3.96231 11.8035 3.96231 11.4736 4.13405Z" fill="#0000CC"/>
</g>
<path d="M3 20H21M5 20L6.94444 15M19 20L17.0556 15M15.1111 9.99996L13.7 6.37132C13.1713 5.01189 12.907 4.33217 12.5264 4.13405C12.1965 3.96231 11.8035 3.96231 11.4736 4.13405C11.093 4.33217 10.8287 5.01189 10.3 6.37132L8.88889 9.99996M15.1111 9.99996H8.88889M15.1111 9.99996L17.0556 15M8.88889 9.99996L6.94444 15M6.94444 15H17.0556" stroke="#0000CC" stroke-width="2" stroke-linecap="round" stroke-linejoin="round"/>
</svg>
