<svg width="24" height="24" viewBox="0 0 24 24" fill="none" xmlns="http://www.w3.org/2000/svg">
<path opacity="0.14" fill-rule="evenodd" clip-rule="evenodd" d="M3.43597 6.18404C3 7.03968 3 8.15979 3 10.4V15.8C3 16.9201 3 17.4802 3.21799 17.908C3.40973 18.2843 3.71569 18.5903 4.09202 18.782C4.51984 19 5.0799 19 6.2 19H17.8C18.9201 19 19.4802 19 19.908 18.782C20.2843 18.5903 20.5903 18.2843 20.782 17.908C21 17.4802 21 16.9201 21 15.8V10.4C21 8.15979 21 7.03968 20.564 6.18404C20.1805 5.43139 19.5686 4.81947 18.816 4.43597C17.9603 4 16.8402 4 14.6 4H9.4C7.15979 4 6.03968 4 5.18404 4.43597C4.43139 4.81947 3.81947 5.43139 3.43597 6.18404ZM14 10H10V14H14V10Z" fill="#0000CC"/>
<path d="M21 11.9984L14 11.9984M3 11.9984L10 11.9984M7 4V18.9984M17 4V18.9984M6.2 19H17.8C18.9201 19 19.4802 19 19.908 18.782C20.2843 18.5903 20.5903 18.2843 20.782 17.908C21 17.4802 21 16.9201 21 15.8V10.4C21 8.15979 21 7.03968 20.564 6.18404C20.1805 5.43139 19.5686 4.81947 18.816 4.43597C17.9603 4 16.8402 4 14.6 4H9.4C7.15979 4 6.03968 4 5.18404 4.43597C4.43139 4.81947 3.81947 5.43139 3.43597 6.18404C3 7.03968 3 8.15979 3 10.4V15.8C3 16.9201 3 17.4802 3.21799 17.908C3.40973 18.2843 3.71569 18.5903 4.09202 18.782C4.51984 19 5.07989 19 6.2 19ZM10 9.99839H14V13.9984H10V9.99839Z" stroke="#0000CC" stroke-width="2" stroke-linejoin="round"/>
</svg>
