<svg width="24" height="24" viewBox="0 0 24 24" fill="none" xmlns="http://www.w3.org/2000/svg">
<path opacity="0.14" d="M4.72182 17H19.2784C19.827 17 20.1013 17 20.239 16.8883C20.3587 16.7912 20.4269 16.6444 20.4239 16.4903C20.4205 16.3131 20.2436 16.1034 19.8898 15.6841L17.8648 13.2841C17.7767 13.1796 17.7326 13.1274 17.6788 13.0899C17.6534 13.0722 17.6646 13.01 17.6956 13.0085L17.8709 13C18.53 13 18.8595 13 19.0016 12.8736C19.1247 12.7642 19.186 12.6011 19.1655 12.4376C19.1417 12.2489 18.8937 12.0319 18.3977 11.5979L15.6549 9.19794L15.6549 9.19791C15.5712 9.12469 15.5293 9.08807 15.4819 9.06197C15.4399 9.03882 15.3947 9.02185 15.3478 9.01158C15.2949 9 15.2393 9 15.1281 9H16.8375C17.5055 9 17.8395 9 17.9819 8.87262C18.1052 8.76229 18.1659 8.59808 18.1441 8.43405C18.1189 8.24469 17.8653 8.02733 17.3581 7.59259L13.0414 3.89251L13.0414 3.89251C12.6718 3.57573 12.487 3.41735 12.2798 3.35698C12.0971 3.30378 11.9031 3.30378 11.7204 3.35698C11.5132 3.41735 11.3284 3.57574 10.9588 3.89251L6.64207 7.59259C6.13488 8.02733 5.88129 8.24469 5.85609 8.43405C5.83427 8.59808 5.89501 8.76229 6.01833 8.87262C6.1607 9 6.4947 9 7.1627 9H8.87211C8.76088 9 8.70527 9 8.6524 9.01158C8.60551 9.02185 8.56034 9.03882 8.51829 9.06197C8.47087 9.08807 8.42902 9.12469 8.34531 9.19793L8.34531 9.19794L5.60245 11.5979C5.10646 12.0319 4.85846 12.2489 4.83473 12.4376C4.81417 12.6011 4.87545 12.7642 4.99857 12.8736C5.14067 13 5.4702 13 6.12926 13L6.30462 13.0085C6.33556 13.01 6.34682 13.0722 6.32141 13.0899C6.26759 13.1274 6.22352 13.1796 6.13538 13.2841L4.11038 15.6841C3.75659 16.1034 3.5797 16.3131 3.57627 16.4903C3.57328 16.6444 3.64151 16.7912 3.76119 16.8883C3.89888 17 4.17319 17 4.72182 17Z" fill="#0000CC"/>
<path d="M15.0001 17V21H9.0001V17M19.2784 17H4.72182C4.17319 17 3.89888 17 3.76119 16.8883C3.64151 16.7912 3.57328 16.6444 3.57627 16.4903C3.5797 16.3131 3.75659 16.1034 4.11038 15.6841L6.13538 13.2841C6.22352 13.1796 6.26759 13.1274 6.32141 13.0899C6.36911 13.0566 6.42223 13.0319 6.47841 13.0169C6.5418 13 6.61014 13 6.74682 13H17.2534C17.3901 13 17.4584 13 17.5218 13.0169C17.578 13.0319 17.6311 13.0566 17.6788 13.0899C17.7326 13.1274 17.7767 13.1796 17.8648 13.2841L19.8898 15.6841C20.2436 16.1034 20.4205 16.3131 20.4239 16.4903C20.4269 16.6444 20.3587 16.7912 20.239 16.8883C20.1013 17 19.827 17 19.2784 17ZM5.60245 11.5979L8.34531 9.19794C8.42902 9.1247 8.47087 9.08807 8.51829 9.06197C8.56034 9.03882 8.60551 9.02185 8.6524 9.01158C8.70527 9 8.76088 9 8.87211 9H15.1281C15.2393 9 15.2949 9 15.3478 9.01158C15.3947 9.02185 15.4399 9.03882 15.4819 9.06197C15.5293 9.08807 15.5712 9.1247 15.6549 9.19794L18.3977 11.5979C18.8937 12.0319 19.1417 12.2489 19.1655 12.4376C19.186 12.6011 19.1247 12.7642 19.0016 12.8736C18.8595 13 18.53 13 17.8709 13H6.12926C5.4702 13 5.14067 13 4.99857 12.8736C4.87545 12.7642 4.81417 12.6011 4.83473 12.4376C4.85846 12.2489 5.10646 12.0319 5.60245 11.5979ZM13.0414 3.89251L17.3581 7.59259C17.8653 8.02733 18.1189 8.24469 18.1441 8.43405C18.1659 8.59808 18.1052 8.76229 17.9819 8.87262C17.8395 9 17.5055 9 16.8375 9H7.1627C6.4947 9 6.1607 9 6.01833 8.87262C5.89501 8.76229 5.83427 8.59808 5.85609 8.43405C5.88129 8.24469 6.13488 8.02733 6.64207 7.59259L10.9588 3.89251C11.3284 3.57574 11.5132 3.41735 11.7204 3.35698C11.9031 3.30378 12.0971 3.30378 12.2798 3.35698C12.487 3.41735 12.6718 3.57574 13.0414 3.89251Z" stroke="#0000CC" stroke-width="2" stroke-linejoin="round"/>
</svg>
