<svg width="24" height="24" viewBox="0 0 24 24" fill="none" xmlns="http://www.w3.org/2000/svg">
<path opacity="0.14" d="M9.19577 6.09781C10.11 4.43565 10.567 3.60458 11.171 3.32963C11.6975 3.08999 12.3019 3.08999 12.8283 3.32963C13.4323 3.60458 13.8894 4.43565 14.8035 6.09781L20.3915 16.2577C21.2501 17.8188 21.6794 18.5994 21.6029 19.2378C21.5362 19.7948 21.2385 20.2982 20.7826 20.6251C20.2601 20.9998 19.3692 20.9998 17.5876 20.9998H6.41173C4.63007 20.9998 3.73924 20.9998 3.21673 20.6251C2.7608 20.2982 2.46315 19.7948 2.3964 19.2378C2.31991 18.5994 2.74922 17.8188 3.60784 16.2577L9.19577 6.09781Z" fill="#0000CC"/>
<path d="M11.9997 16.9998H12.0097M11.9997 9.99983V13.9998M6.41173 20.9998H17.5876C19.3692 20.9998 20.2601 20.9998 20.7826 20.6251C21.2385 20.2982 21.5362 19.7948 21.6029 19.2378C21.6794 18.5994 21.2501 17.8188 20.3915 16.2577L14.8035 6.09781C13.8894 4.43565 13.4323 3.60458 12.8283 3.32963C12.3019 3.08999 11.6975 3.08999 11.171 3.32963C10.567 3.60458 10.11 4.43565 9.19577 6.09781L3.60784 16.2577C2.74922 17.8188 2.31991 18.5994 2.3964 19.2378C2.46315 19.7948 2.7608 20.2982 3.21673 20.6251C3.73924 20.9998 4.63007 20.9998 6.41173 20.9998Z" stroke="#0000CC" stroke-width="2" stroke-linecap="round" stroke-linejoin="round"/>
</svg>
