<svg width="24" height="24" viewBox="0 0 24 24" fill="none" xmlns="http://www.w3.org/2000/svg">
<path opacity="0.14" d="M8.23221 6.60632C8.62823 6.2103 8.82624 6.01229 9.05457 5.9381C9.25541 5.87285 9.47176 5.87285 9.6726 5.9381C9.90093 6.01229 10.0989 6.2103 10.495 6.60632L17.4246 13.536C17.8206 13.932 18.0186 14.13 18.0928 14.3583C18.1581 14.5592 18.1581 14.7755 18.0928 14.9764C18.0186 15.2047 17.8206 15.4027 17.4246 15.7987L14.879 18.3443C13.691 19.5323 13.0969 20.1264 12.412 20.3489C11.8094 20.5447 11.1604 20.5447 10.5579 20.3489C9.87287 20.1264 9.27884 19.5323 8.09079 18.3443L5.68663 15.9401C4.49858 14.7521 3.90455 14.1581 3.68199 13.4731C3.48621 12.8705 3.48621 12.2215 3.68199 11.619C3.90455 10.934 4.49858 10.34 5.68663 9.1519L8.23221 6.60632Z" fill="#0000CC"/>
<path d="M10.4246 6.53553L14.243 2.71716C14.639 2.32114 14.837 2.12313 15.0654 2.04894C15.2662 1.98369 15.4825 1.98369 15.6834 2.04894C15.9117 2.12313 16.1097 2.32114 16.5057 2.71716L21.3141 7.52548C21.7101 7.9215 21.9081 8.11951 21.9823 8.34784C22.0475 8.54868 22.0475 8.76503 21.9823 8.96587C21.9081 9.1942 21.7101 9.39221 21.3141 9.78823L17.4957 13.6066M15.7279 6.18198L15.0208 6.88909M17.8492 8.3033L17.1421 9.01041M4.41421 14.6673L2.71716 16.3643C2.32114 16.7603 2.12313 16.9583 2.04894 17.1867C1.98369 17.3875 1.98369 17.6039 2.04894 17.8047C2.12313 18.033 2.32114 18.231 2.71716 18.6271L5.40416 21.3141C5.80018 21.7101 5.99819 21.9081 6.22652 21.9823C6.42736 22.0475 6.64371 22.0475 6.84455 21.9823C7.07288 21.9081 7.27089 21.7101 7.6669 21.3141L9.36396 19.617M5.68701 15.9401L8.09117 18.3442C9.27922 19.5323 9.87325 20.1263 10.5582 20.3489C11.1608 20.5446 11.8098 20.5446 12.4123 20.3489C13.0973 20.1263 13.6913 19.5323 14.8794 18.3442L17.425 15.7986C17.821 15.4026 18.019 15.2046 18.0932 14.9763C18.1584 14.7754 18.1584 14.5591 18.0932 14.3582C18.019 14.1299 17.821 13.9319 17.425 13.5359L10.4953 6.60624C10.0993 6.21023 9.90131 6.01222 9.67298 5.93803C9.47213 5.87277 9.25579 5.87277 9.05494 5.93803C8.82662 6.01222 8.62861 6.21023 8.23259 6.60624L5.68701 9.15183C4.49896 10.3399 3.90493 10.9339 3.68236 11.6189C3.48659 12.2214 3.48659 12.8705 3.68236 13.473C3.90493 14.158 4.49896 14.752 5.68701 15.9401Z" stroke="#0000CC" stroke-width="2" stroke-linecap="round" stroke-linejoin="round"/>
</svg>
