<svg width="24" height="24" viewBox="0 0 24 24" fill="none" xmlns="http://www.w3.org/2000/svg">
<g opacity="0.14">
<path d="M15 7C15 9.20914 13.2091 11 11 11C8.79086 11 7 9.20914 7 7C7 4.79086 8.79086 3 11 3C13.2091 3 15 4.79086 15 7Z" fill="#0000CC"/>
<path d="M15.7404 15.8494C14.4935 14.7012 12.8287 14 11 14C7.13401 14 4 17.134 4 21L12.5898 21L18 21C18 19.997 17.789 19.0433 17.4091 18.1807L15.4324 20.1574C15.3051 20.2848 15.2414 20.3484 15.1689 20.399C15.1045 20.4439 15.0351 20.4811 14.962 20.5097C14.8797 20.542 14.7914 20.5597 14.6148 20.595L12.5898 21L12.9948 18.975C13.0301 18.7985 13.0478 18.7102 13.0801 18.6279C13.1088 18.5548 13.1459 18.4853 13.1908 18.421C13.2414 18.3484 13.3051 18.2848 13.4324 18.1574L15.7404 15.8494Z" fill="#0000CC"/>
</g>
<path d="M4 21C4 17.134 7.13401 14 11 14C11.3395 14 11.6734 14.0242 12 14.0709M15 7C15 9.20914 13.2091 11 11 11C8.79086 11 7 9.20914 7 7C7 4.79086 8.79086 3 11 3C13.2091 3 15 4.79086 15 7ZM12.5898 21L14.6148 20.595C14.7914 20.5597 14.8797 20.542 14.962 20.5097C15.0351 20.4811 15.1045 20.4439 15.1689 20.399C15.2414 20.3484 15.3051 20.2848 15.4324 20.1574L19.5898 16C20.1421 15.4477 20.1421 14.5523 19.5898 14C19.0376 13.4477 18.1421 13.4477 17.5898 14L13.4324 18.1574C13.3051 18.2848 13.2414 18.3484 13.1908 18.421C13.1459 18.4853 13.1088 18.5548 13.0801 18.6279C13.0478 18.7102 13.0302 18.7985 12.9948 18.975L12.5898 21Z" stroke="#0000CC" stroke-width="2" stroke-linecap="round" stroke-linejoin="round"/>
</svg>
