<svg width="24" height="24" viewBox="0 0 24 24" fill="none" xmlns="http://www.w3.org/2000/svg">
<g opacity="0.14">
<path d="M11 11C13.2091 11 15 9.20914 15 7C15 4.79086 13.2091 3 11 3C8.79086 3 7 4.79086 7 7C7 9.20914 8.79086 11 11 11Z" fill="#0000CC"/>
<path d="M11 15C10.1183 15 9.28093 14.8098 8.52682 14.4682C8.00442 14.2315 7.743 14.1131 7.59797 14.0722C7.4472 14.0297 7.35983 14.0142 7.20361 14.0026C7.05331 13.9914 6.94079 14 6.71575 14.0171C6.6237 14.0241 6.5425 14.034 6.46558 14.048C5.23442 14.2708 4.27087 15.2344 4.04798 16.4656C4 16.7306 4 17.0484 4 17.6841V19.4C4 19.96 4 20.2401 4.10899 20.454C4.20487 20.6421 4.35785 20.7951 4.54601 20.891C4.75992 21 5.03995 21 5.6 21H16.4C16.4287 21 16.4568 21 16.4841 21C14.8345 20.9914 13.5 19.6515 13.5 18C13.5 16.3431 14.8431 15 16.5 15C16.7903 15 17.0709 15.0412 17.3364 15.1182C16.8927 14.5674 16.2581 14.1779 15.5303 14.0472C15.4548 14.0337 15.3748 14.024 15.2842 14.0171C15.059 14 14.9464 13.9914 14.7961 14.0026C14.6399 14.0143 14.5527 14.0297 14.4019 14.0722C14.2569 14.1131 13.9957 14.2315 13.4732 14.4681C12.7191 14.8098 11.8817 15 11 15Z" fill="#0000CC"/>
<path d="M17.5 20.8293C17.1935 20.9376 16.8641 20.9976 16.521 20.9999C17.0016 20.9994 17.2561 20.9918 17.454 20.891C17.483 20.8762 17.5112 20.86 17.5385 20.8426C17.5256 20.8383 17.5128 20.8338 17.5 20.8293Z" fill="#0000CC"/>
</g>
<path d="M18.5 20.2361C17.9692 20.7111 17.2684 21 16.5 21C14.8431 21 13.5 19.6569 13.5 18C13.5 16.3431 14.8431 15 16.5 15C17.8062 15 18.9175 15.8348 19.3293 17M20 14.5V17.5H17M10 21H5.6C5.03995 21 4.75992 21 4.54601 20.891C4.35785 20.7951 4.20487 20.6422 4.10899 20.454C4 20.2401 4 19.9601 4 19.4V17.6841C4 17.0485 4 16.7306 4.04798 16.4656C4.27087 15.2344 5.23442 14.2709 6.46558 14.048C6.5425 14.0341 6.6237 14.0242 6.71575 14.0172C6.94079 14 7.05331 13.9914 7.20361 14.0026C7.35983 14.0143 7.4472 14.0297 7.59797 14.0722C7.74302 14.1131 8.00429 14.2315 8.52682 14.4682C8.98953 14.6778 9.48358 14.8304 10 14.917M15 7C15 9.20914 13.2091 11 11 11C8.79086 11 7 9.20914 7 7C7 4.79086 8.79086 3 11 3C13.2091 3 15 4.79086 15 7Z" stroke="#0000CC" stroke-width="2" stroke-linecap="round" stroke-linejoin="round"/>
</svg>
