<svg width="24" height="24" viewBox="0 0 24 24" fill="none" xmlns="http://www.w3.org/2000/svg">
<g opacity="0.14">
<path d="M15 7C15 9.20914 13.2091 11 11 11C8.79086 11 7 9.20914 7 7C7 4.79086 8.79086 3 11 3C13.2091 3 15 4.79086 15 7Z" fill="#0000CC"/>
<path d="M8.52682 14.4682C9.28093 14.8098 10.1183 15 11 15C11.8817 15 12.7191 14.8098 13.4732 14.4681C13.9957 14.2315 14.2569 14.1131 14.4019 14.0722C14.5527 14.0297 14.6399 14.0143 14.7961 14.0026C14.9464 13.9914 15.059 14 15.2842 14.0171C15.3748 14.024 15.4548 14.0337 15.5303 14.0472C16.4349 14.2097 17.1954 14.7719 17.6246 15.5465C17.2018 15.6375 16.8058 15.8687 16.4976 16.2119C15.7978 15.4328 14.6309 15.2232 13.7541 15.9367C12.8774 16.6501 12.7539 17.843 13.4425 18.6868C13.8312 19.1632 14.7548 19.9983 15.4854 20.6353C15.6708 20.797 15.8066 20.9154 15.9249 21H5.6C5.03995 21 4.75992 21 4.54601 20.891C4.35785 20.7951 4.20487 20.6421 4.10899 20.454C4 20.2401 4 19.96 4 19.4V17.6841C4 17.0484 4 16.7306 4.04798 16.4656C4.27087 15.2344 5.23442 14.2708 6.46558 14.048C6.5425 14.034 6.6237 14.0241 6.71575 14.0171C6.94079 14 7.05331 13.9914 7.20361 14.0026C7.35983 14.0142 7.4472 14.0297 7.59797 14.0722C7.743 14.1131 8.00441 14.2315 8.52682 14.4682Z" fill="#0000CC"/>
<path d="M17.0936 20.983C17.242 20.9685 17.3551 20.9414 17.454 20.891C17.6422 20.7951 17.7951 20.6421 17.891 20.454C17.9239 20.3893 17.9469 20.3187 17.963 20.2361C17.8081 20.3741 17.6551 20.5086 17.5098 20.6353C17.3365 20.7864 17.2065 20.8998 17.0936 20.983Z" fill="#0000CC"/>
</g>
<path d="M10.5 21H5.6C5.03995 21 4.75992 21 4.54601 20.891C4.35785 20.7951 4.20487 20.6422 4.10899 20.454C4 20.2401 4 19.9601 4 19.4V17.6841C4 17.0485 4 16.7306 4.04798 16.4656C4.27087 15.2344 5.23442 14.2709 6.46558 14.048C6.5425 14.0341 6.6237 14.0242 6.71575 14.0172C6.94079 14 7.05331 13.9914 7.20361 14.0026C7.35983 14.0143 7.4472 14.0297 7.59797 14.0722C7.74302 14.1131 8.00429 14.2315 8.52682 14.4682C8.83795 14.6091 9.16326 14.7243 9.5 14.811M15 7C15 9.20914 13.2091 11 11 11C8.79086 11 7 9.20914 7 7C7 4.79086 8.79086 3 11 3C13.2091 3 15 4.79086 15 7ZM16.4976 16.2119C15.7978 15.4328 14.6309 15.2232 13.7541 15.9367C12.8774 16.6501 12.7539 17.843 13.4425 18.6868C13.8312 19.1632 14.7548 19.9983 15.4854 20.6353C15.8319 20.9374 16.0051 21.0885 16.2147 21.1503C16.3934 21.203 16.6018 21.203 16.7805 21.1503C16.9901 21.0885 17.1633 20.9374 17.5098 20.6353C18.2404 19.9983 19.164 19.1632 19.5527 18.6868C20.2413 17.843 20.1329 16.6426 19.2411 15.9367C18.3492 15.2307 17.1974 15.4328 16.4976 16.2119Z" stroke="#0000CC" stroke-width="2" stroke-linecap="round" stroke-linejoin="round"/>
</svg>
