<svg width="24" height="24" viewBox="0 0 24 24" fill="none" xmlns="http://www.w3.org/2000/svg">
<path opacity="0.14" d="M5.5012 8.99984H4.6C4.03995 8.99984 3.75992 8.99984 3.54601 9.10883C3.35785 9.20471 3.20487 9.35769 3.10899 9.54585C3 9.75976 3 10.0398 3 10.5998V13.3998C3 13.9599 3 14.2399 3.10899 14.4538C3.20487 14.642 3.35785 14.795 3.54601 14.8908C3.75992 14.9998 4.03995 14.9998 4.6 14.9998H5.5012C6.05213 14.9998 6.32759 14.9998 6.58285 15.0685C6.80903 15.1294 7.02275 15.2295 7.21429 15.3643C7.43047 15.5164 7.60681 15.728 7.95951 16.1512L10.5854 19.3023C11.0211 19.8252 11.239 20.0866 11.4292 20.1138C11.594 20.1373 11.7597 20.0774 11.8712 19.9538C12 19.811 12 19.4708 12 18.7902V5.20948C12 4.52892 12 4.18864 11.8712 4.04592C11.7597 3.92233 11.594 3.86234 11.4292 3.8859C11.2389 3.9131 11.0211 4.17451 10.5854 4.69733L7.95951 7.84843C7.60681 8.27166 7.43047 8.48328 7.21429 8.63542C7.02275 8.77021 6.80903 8.87032 6.58285 8.93116C6.32759 8.99984 6.05213 8.99984 5.5012 8.99984Z" fill="#0000CC"/>
<path d="M16 9.49996L21 14.5M21 9.49996L16 14.5M4.6 8.99996H5.5012C6.05213 8.99996 6.32759 8.99996 6.58285 8.93129C6.80903 8.87044 7.02275 8.77033 7.21429 8.63554C7.43047 8.4834 7.60681 8.27179 7.95951 7.84855L10.5854 4.69745C11.0211 4.17463 11.2389 3.91323 11.4292 3.88602C11.594 3.86246 11.7597 3.92245 11.8712 4.04604C12 4.18876 12 4.52904 12 5.2096V18.7903C12 19.4709 12 19.8112 11.8712 19.9539C11.7597 20.0775 11.594 20.1375 11.4292 20.1139C11.239 20.0867 11.0211 19.8253 10.5854 19.3025L7.95951 16.1514C7.60681 15.7281 7.43047 15.5165 7.21429 15.3644C7.02275 15.2296 6.80903 15.1295 6.58285 15.0686C6.32759 15 6.05213 15 5.5012 15H4.6C4.03995 15 3.75992 15 3.54601 14.891C3.35785 14.7951 3.20487 14.6421 3.10899 14.454C3 14.24 3 13.96 3 13.4V10.6C3 10.0399 3 9.75988 3.10899 9.54597C3.20487 9.35781 3.35785 9.20483 3.54601 9.10896C3.75992 8.99996 4.03995 8.99996 4.6 8.99996Z" stroke="#0000CC" stroke-width="2" stroke-linecap="round" stroke-linejoin="round"/>
</svg>
