<svg width="24" height="24" viewBox="0 0 24 24" fill="none" xmlns="http://www.w3.org/2000/svg">
<path opacity="0.14" d="M7.5012 8.99984H6.6C6.03995 8.99984 5.75992 8.99984 5.54601 9.10883C5.35785 9.20471 5.20487 9.35769 5.10899 9.54585C5 9.75976 5 10.0398 5 10.5998V13.3998C5 13.9599 5 14.2399 5.10899 14.4538C5.20487 14.642 5.35785 14.795 5.54601 14.8908C5.75992 14.9998 6.03995 14.9998 6.6 14.9998H7.5012C8.05213 14.9998 8.32759 14.9998 8.58285 15.0685C8.80903 15.1294 9.02275 15.2295 9.21429 15.3643C9.43047 15.5164 9.60681 15.728 9.95951 16.1512L12.5854 19.3023C13.0211 19.8252 13.239 20.0866 13.4292 20.1138C13.594 20.1373 13.7597 20.0774 13.8712 19.9538C14 19.811 14 19.4708 14 18.7902V5.20948C14 4.52892 14 4.18864 13.8712 4.04592C13.7597 3.92233 13.594 3.86234 13.4292 3.8859C13.2389 3.9131 13.0211 4.17451 12.5854 4.69733L9.95951 7.84843C9.60681 8.27166 9.43047 8.48328 9.21429 8.63542C9.02275 8.77021 8.80903 8.87032 8.58285 8.93116C8.32759 8.99984 8.05213 8.99984 7.5012 8.99984Z" fill="#0000CC"/>
<path d="M18 9.00002C18.6277 9.83568 18.9996 10.8744 18.9996 12C18.9996 13.1256 18.6277 14.1644 18 15M6.6 9.00002H7.5012C8.05213 9.00002 8.32759 9.00002 8.58285 8.93135C8.80903 8.8705 9.02275 8.77039 9.21429 8.6356C9.43047 8.48347 9.60681 8.27185 9.95951 7.84861L12.5854 4.69752C13.0211 4.1747 13.2389 3.91329 13.4292 3.88608C13.594 3.86252 13.7597 3.92252 13.8712 4.04611C14 4.18883 14 4.5291 14 5.20966V18.7904C14 19.4709 14 19.8112 13.8712 19.9539C13.7597 20.0775 13.594 20.1375 13.4292 20.114C13.239 20.0868 13.0211 19.8253 12.5854 19.3025L9.95951 16.1514C9.60681 15.7282 9.43047 15.5166 9.21429 15.3644C9.02275 15.2297 8.80903 15.1295 8.58285 15.0687C8.32759 15 8.05213 15 7.5012 15H6.6C6.03995 15 5.75992 15 5.54601 14.891C5.35785 14.7952 5.20487 14.6422 5.10899 14.454C5 14.2401 5 13.9601 5 13.4V10.6C5 10.04 5 9.75995 5.10899 9.54603C5.20487 9.35787 5.35785 9.20489 5.54601 9.10902C5.75992 9.00002 6.03995 9.00002 6.6 9.00002Z" stroke="#0000CC" stroke-width="2" stroke-linecap="round" stroke-linejoin="round"/>
</svg>
