<svg width="24" height="24" viewBox="0 0 24 24" fill="none" xmlns="http://www.w3.org/2000/svg">
<path opacity="0.14" d="M20.0826 4.31165L19.5169 3.74597L19.5169 3.74596C19.1209 3.34995 18.9229 3.15194 18.6946 3.07775C18.4937 3.01249 18.2774 3.01249 18.0765 3.07775C17.8482 3.15194 17.6502 3.34995 17.2542 3.74596L17.2542 3.74597L15.1314 5.86879C14.7354 6.2648 14.5373 6.46281 14.4632 6.69114C14.3979 6.89198 14.3979 7.10833 14.4632 7.30918C14.5373 7.5375 14.7354 7.73551 15.1314 8.13153L15.1314 8.13153L15.6971 8.69721C16.0931 9.09323 16.2911 9.29124 16.5194 9.36543C16.7203 9.43069 16.9366 9.43069 17.1374 9.36543C17.3658 9.29124 17.5638 9.09323 17.9598 8.69721L20.0826 6.57439L20.0826 6.57439C20.4786 6.17837 20.6766 5.98037 20.7508 5.75204C20.8161 5.5512 20.8161 5.33485 20.7508 5.13401C20.6766 4.90568 20.4786 4.70767 20.0826 4.31166L20.0826 4.31165Z" fill="#0000CC"/>
<path d="M4.9996 7V11M9.9996 2V6M17.9996 16V20M2.9996 9H6.9996M7.9996 4H11.9996M15.9996 18H19.9996M13.9996 7L16.828 9.82843M19.5162 3.74612L20.0819 4.3118C20.4779 4.70782 20.6759 4.90583 20.7501 5.13416C20.8154 5.335 20.8154 5.55135 20.7501 5.75219C20.6759 5.98052 20.4779 6.17853 20.0819 6.57454L6.52508 20.1314C6.12906 20.5274 5.93105 20.7254 5.70272 20.7996C5.50188 20.8649 5.28553 20.8649 5.08469 20.7996C4.85636 20.7254 4.65835 20.5274 4.26234 20.1314L3.69665 19.5657C3.30063 19.1697 3.10262 18.9717 3.02844 18.7433C2.96318 18.5425 2.96318 18.3262 3.02844 18.1253C3.10262 17.897 3.30063 17.699 3.69665 17.303L17.2535 3.74612C17.6495 3.3501 17.8475 3.15209 18.0758 3.0779C18.2767 3.01265 18.493 3.01265 18.6939 3.0779C18.9222 3.15209 19.1202 3.3501 19.5162 3.74612Z" stroke="#0000CC" stroke-width="2" stroke-linecap="round" stroke-linejoin="round"/>
</svg>
