<svg width="24" height="24" viewBox="0 0 24 24" fill="none" xmlns="http://www.w3.org/2000/svg">
<path opacity="0.14" d="M3 10.4884V19.4002C3 19.9603 3 20.2403 3.10899 20.4542C3.20487 20.6424 3.35785 20.7953 3.54601 20.8912C3.75992 21.0002 4.03995 21.0002 4.6 21.0002H7V11.6002C7 11.0402 7 10.7601 7.10899 10.5462C7.20487 10.3581 7.35785 10.2051 7.54601 10.1092C7.75992 10.0002 8.03995 10.0002 8.6 10.0002H15.4C15.9601 10.0002 16.2401 10.0002 16.454 10.1092C16.6422 10.2051 16.7951 10.3581 16.891 10.5462C17 10.7601 17 11.0402 17 11.6002V21.0002H19.4C19.9601 21.0002 20.2401 21.0002 20.454 20.8912C20.6422 20.7953 20.7951 20.6424 20.891 20.4542C21 20.2403 21 19.9603 21 19.4002V10.4884C21 9.41461 21 8.87772 20.8368 8.40341C20.6925 7.98396 20.457 7.60172 20.1472 7.28424C19.797 6.92522 19.3174 6.68381 18.3583 6.20099L14.1583 4.0867C13.3671 3.68843 12.9716 3.48929 12.5564 3.41094C12.1887 3.34154 11.8113 3.34154 11.4436 3.41094C11.0284 3.48929 10.6329 3.68843 9.84171 4.0867L5.64171 6.20099C4.6826 6.68381 4.20304 6.92522 3.85275 7.28424C3.54298 7.60172 3.30746 7.98396 3.16317 8.40341C3 8.87772 3 9.41461 3 10.4884Z" fill="#0000CC"/>
<path d="M7 21.0002V11.6002C7 11.0402 7 10.7601 7.10899 10.5462C7.20487 10.3581 7.35785 10.2051 7.54601 10.1092C7.75992 10.0002 8.03995 10.0002 8.6 10.0002H15.4C15.9601 10.0002 16.2401 10.0002 16.454 10.1092C16.6422 10.2051 16.7951 10.3581 16.891 10.5462C17 10.7601 17 11.0402 17 11.6002V21.0002M10 14.0002H14M10 18.0002H14M3 10.4884V19.4002C3 19.9603 3 20.2403 3.10899 20.4542C3.20487 20.6424 3.35785 20.7953 3.54601 20.8912C3.75992 21.0002 4.03995 21.0002 4.6 21.0002H19.4C19.9601 21.0002 20.2401 21.0002 20.454 20.8912C20.6422 20.7953 20.7951 20.6424 20.891 20.4542C21 20.2403 21 19.9603 21 19.4002V10.4884C21 9.41461 21 8.87772 20.8368 8.40341C20.6925 7.98396 20.457 7.60172 20.1472 7.28424C19.797 6.92522 19.3174 6.68381 18.3583 6.20099L14.1583 4.0867C13.3671 3.68843 12.9716 3.48929 12.5564 3.41094C12.1887 3.34154 11.8113 3.34154 11.4436 3.41094C11.0284 3.48929 10.6329 3.68843 9.84171 4.0867L5.64171 6.20099C4.6826 6.68381 4.20304 6.92522 3.85275 7.28424C3.54298 7.60172 3.30746 7.98396 3.16317 8.40341C3 8.87772 3 9.41461 3 10.4884Z" stroke="#0000CC" stroke-width="2" stroke-linecap="round" stroke-linejoin="round"/>
</svg>
