<svg width="24" height="24" viewBox="0 0 24 24" fill="none" xmlns="http://www.w3.org/2000/svg">
<path opacity="0.14" fill-rule="evenodd" clip-rule="evenodd" d="M9 8C6.23858 8 4 10.2386 4 13C4 15.7614 6.23858 18 9 18H15C17.7614 18 20 15.7614 20 13C20 10.2386 17.7614 8 15 8H9ZM12 15C13.1046 15 14 14.1046 14 13C14 11.8954 13.1046 11 12 11C10.8954 11 10 11.8954 10 13C10 14.1046 10.8954 15 12 15Z" fill="#0000CC"/>
<path d="M7 21H17M9 18V21M9 18H15M9 18C6.23858 18 4 15.7614 4 13C4 10.2386 6.23858 8 9 8H15C17.7614 8 20 10.2386 20 13C20 15.7614 17.7614 18 15 18M15 18V21M12 3V5M16.5 4L16 5M7.5 4L8 5M14 13C14 14.1046 13.1046 15 12 15C10.8954 15 10 14.1046 10 13C10 11.8954 10.8954 11 12 11C13.1046 11 14 11.8954 14 13Z" stroke="#0000CC" stroke-width="2" stroke-linecap="round" stroke-linejoin="round"/>
</svg>
