<svg width="24" height="24" viewBox="0 0 24 24" fill="none" xmlns="http://www.w3.org/2000/svg">
<path d="M22 8.81947C19.3462 6.44427 15.8418 5 12 5C11.5463 5 11.0973 5.02014 10.6538 5.05959M8.42928 16.5C9.33674 15.5743 10.6013 15 12 15C13.3987 15 14.6633 15.5743 15.5707 16.5M12 19.5H12.01M16.8643 11.2607C17.6469 11.6973 18.3648 12.2359 19 12.8586M5 12.8586C6.38871 11.4972 8.17281 10.5377 10.1641 10.1682M2 8.81947C3.22544 7.72267 4.63227 6.82437 6.16995 6.17513M3 3L21 21" stroke="#0000CC" stroke-width="2" stroke-linecap="round"/>
</svg>
