<svg width="24" height="24" viewBox="0 0 24 24" fill="none" xmlns="http://www.w3.org/2000/svg">
<circle opacity="0.14" cx="12" cy="12" r="5" fill="#0000CC"/>
<path d="M19.5 7.02331C20.4478 8.44877 21 10.1599 21 12C21 13.4368 20.6633 14.795 20.0645 15.9999M4.5 7.02331C3.55223 8.44877 3 10.1599 3 12C3 13.8401 3.55223 15.5512 4.5 16.9767M12 10V11.5M12 14H12.01M17 12C17 14.7614 14.7614 17 12 17C9.23858 17 7 14.7614 7 12C7 9.23858 9.23858 7 12 7C14.7614 7 17 9.23858 17 12Z" stroke="#0000CC" stroke-width="2" stroke-linecap="round" stroke-linejoin="round"/>
</svg>
