<svg width="24" height="24" viewBox="0 0 24 24" fill="none" xmlns="http://www.w3.org/2000/svg">
<path opacity="0.14" d="M4 11L3.99677 11.0194C3.60626 11.0434 3.32887 11.0973 3.09202 11.218C2.71569 11.4097 2.40973 11.7157 2.21799 12.092C2 12.5198 2 13.0799 2 14.2V15.4C2 15.9601 2 16.2401 2.10899 16.454C2.20487 16.6422 2.35785 16.7951 2.54601 16.891C2.75992 17 3.03995 17 3.6 17C3.82091 17 3.99571 16.8193 4.0346 16.6018C4.20909 15.6263 5.02268 15 6 15C7.10457 15 8 15.8 8 17H16C16 15.8 16.8954 15 18 15C19.1046 15 20 15.8 20 17H20.8C20.9858 17 21.0787 17 21.1564 16.9877C21.5843 16.9199 21.9199 16.5843 21.9877 16.1564C22 16.0787 22 15.9858 22 15.8C22 15.0568 22 14.6852 21.9508 14.3743C21.7054 12.8254 20.5829 11.5789 19.1034 11.155L19 11H4Z" fill="#0000CC"/>
<path d="M8 17H16M8 17C8 18.1046 7.10457 19 6 19C4.89543 19 4 18.1046 4 17M8 17C8 15.8954 7.10457 15 6 15C4.89543 15 4 15.8954 4 17M16 17C16 18.1046 16.8954 19 18 19C19.1046 19 20 18.1046 20 17M16 17C16 15.8954 16.8954 15 18 15C19.1046 15 20 15.8954 20 17M10 5V11M4 17H3.6C3.03995 17 2.75992 17 2.54601 16.891C2.35785 16.7951 2.20487 16.6422 2.10899 16.454C2 16.2401 2 15.9601 2 15.4V14.2C2 13.0799 2 12.5198 2.21799 12.092C2.40973 11.7157 2.71569 11.4097 3.09202 11.218C3.32887 11.0973 3.60626 11.0434 3.99677 11.0194M20 17H20.8C20.9858 17 21.0787 17 21.1564 16.9877C21.5843 16.9199 21.9199 16.5843 21.9877 16.1564C22 16.0787 22 15.9858 22 15.8C22 15.0568 22 14.6852 21.9508 14.3743C21.7054 12.8254 20.5829 11.5789 19.1034 11.155M19.1034 11.155C18.9479 11.1105 18.7885 11.075 18.6257 11.0492C18.3148 11 17.9432 11 17.2 11H5.2C4.70002 11 4.31162 11 3.99677 11.0194M19.1034 11.155L16.425 7.13744C15.904 6.35597 15.6435 5.96523 15.2993 5.68236C14.9946 5.43194 14.6436 5.24406 14.2662 5.12945C13.8399 5 13.3703 5 12.4311 5H9.06621C7.6216 5 6.8993 5 6.31346 5.26281C5.79705 5.49447 5.35671 5.8675 5.0433 6.3388C4.68776 6.87345 4.56901 7.58593 4.33152 9.01088L3.99677 11.0194" stroke="#0000CC" stroke-width="2" stroke-linecap="round" stroke-linejoin="round"/>
</svg>
