<svg width="24" height="24" viewBox="0 0 24 24" fill="none" xmlns="http://www.w3.org/2000/svg">
<path opacity="0.14" d="M21 18.4999V12.5621C21 11.866 20.8183 11.182 20.473 10.5776L19.6452 9.12891L18.2781 10.2681C18.0984 10.4179 17.8719 10.4999 17.6379 10.4999H6.36205C6.12811 10.4999 5.90158 10.4179 5.72187 10.2681L4.35484 9.12891L3.52703 10.5776C3.18166 11.182 3 11.866 3 12.5621V18.4999C3 19.0522 3.44772 19.4999 4 19.4999H5C5.55228 19.4999 6 19.0522 6 18.4999V17.4999H18V18.4999C18 19.0522 18.4477 19.4999 19 19.4999H20C20.5523 19.4999 21 19.0522 21 18.4999Z" fill="#0000CC"/>
<path d="M3 8L5.72187 10.2682C5.90158 10.418 6.12811 10.5 6.36205 10.5H17.6379C17.8719 10.5 18.0984 10.418 18.2781 10.2682L21 8M6.5 14H6.51M17.5 14H17.51M8.16065 4.5H15.8394C16.5571 4.5 17.2198 4.88457 17.5758 5.50772L20.473 10.5777C20.8183 11.1821 21 11.8661 21 12.5623V18.5C21 19.0523 20.5523 19.5 20 19.5H19C18.4477 19.5 18 19.0523 18 18.5V17.5H6V18.5C6 19.0523 5.55228 19.5 5 19.5H4C3.44772 19.5 3 19.0523 3 18.5V12.5623C3 11.8661 3.18166 11.1821 3.52703 10.5777L6.42416 5.50772C6.78024 4.88457 7.44293 4.5 8.16065 4.5ZM7 14C7 14.2761 6.77614 14.5 6.5 14.5C6.22386 14.5 6 14.2761 6 14C6 13.7239 6.22386 13.5 6.5 13.5C6.77614 13.5 7 13.7239 7 14ZM18 14C18 14.2761 17.7761 14.5 17.5 14.5C17.2239 14.5 17 14.2761 17 14C17 13.7239 17.2239 13.5 17.5 13.5C17.7761 13.5 18 13.7239 18 14Z" stroke="#0000CC" stroke-width="2" stroke-linecap="round" stroke-linejoin="round"/>
</svg>
