<svg width="24" height="24" viewBox="0 0 24 24" fill="none" xmlns="http://www.w3.org/2000/svg">
<path opacity="0.14" d="M13.5407 15H10.4584C10.2877 15 10.2024 15 10.1195 14.986C10.046 14.9736 9.97414 14.9529 9.90521 14.9245C9.82756 14.8925 9.75518 14.8473 9.61042 14.7568L8.85668 14.2857C8.4978 14.0614 8.31837 13.9493 8.19315 13.7255C8.10143 13.5616 8.04832 13.2403 8.08241 13.0556C8.12895 12.8035 8.219 12.6932 8.39909 12.4725C9.13258 11.5738 10.2491 11 11.4995 11H12.4995C13.75 11 14.8665 11.5738 15.6 12.4725C15.7801 12.6932 15.8701 12.8035 15.9167 13.0556C15.9508 13.2403 15.8976 13.5616 15.8059 13.7255C15.6807 13.9493 15.5013 14.0614 15.1424 14.2857L14.3887 14.7568C14.2439 14.8473 14.1715 14.8925 14.0939 14.9245C14.0249 14.9529 13.9531 14.9736 13.8795 14.986C13.7967 15 13.7114 15 13.5407 15Z" fill="#0000CC"/>
<path d="M6 11V11.6132C6 11.9369 6 12.0988 6.04575 12.2448C6.08624 12.374 6.15256 12.4936 6.24069 12.5965C6.34025 12.7127 6.4775 12.7984 6.752 12.97L7.75339 13.5959M18 11V11.6132C18 11.9369 18 12.0988 17.9542 12.2448C17.9138 12.374 17.8474 12.4936 17.7593 12.5965C17.6597 12.7127 17.5225 12.7984 17.248 12.97L16.2466 13.5959M7.75339 13.5959C8.32199 12.0794 9.78495 11 11.5 11H12.5C14.2151 11 15.678 12.0794 16.2466 13.5959M7.75339 13.5959L8.85714 14.2857M16.2466 13.5959L15.1429 14.2857M8 18V16.2361C8 16.0808 8.03614 15.9277 8.10557 15.7889L8.85714 14.2857M16 18V16.2361C16 16.0808 15.9639 15.9277 15.8944 15.7889L15.1429 14.2857M15.1429 14.2857L14.3891 14.7568C14.2444 14.8473 14.172 14.8925 14.0943 14.9245C14.0254 14.9529 13.9535 14.9736 13.88 14.986C13.7972 15 13.7118 15 13.5411 15H10.4589C10.2882 15 10.2028 15 10.12 14.986C10.0465 14.9736 9.9746 14.9529 9.90567 14.9245C9.82802 14.8925 9.75564 14.8473 9.61088 14.7568L8.85714 14.2857M2 8H10M14 8H22M6 8V6M18 8V6" stroke="#0000CC" stroke-width="2" stroke-linecap="round" stroke-linejoin="round"/>
</svg>
