<svg width="24" height="24" viewBox="0 0 24 24" fill="none" xmlns="http://www.w3.org/2000/svg">
<path d="M8.05279 14.1444C8.54676 14.3914 9.14744 14.1912 9.39443 13.6972C9.64142 13.2032 9.44119 12.6026 8.94721 12.3556L8.05279 14.1444ZM7.94721 11.8556C7.45324 11.6086 6.85256 11.8088 6.60557 12.3028C6.35858 12.7968 6.55881 13.3974 7.05279 13.6444L7.94721 11.8556ZM11.2851 20.6423L10.838 21.5367H10.838L11.2851 20.6423ZM4.88451 17.4422L5.33169 16.5478H5.33169L4.88451 17.4422ZM19.1156 17.4422L19.5628 18.3367L19.1156 17.4422ZM12.7162 20.6422L12.269 19.7478L12.7162 20.6422ZM4.88451 6.55778L5.33169 7.45223L5.33169 7.45223L4.88451 6.55778ZM6.44736 6.89444C6.94134 6.64747 7.14159 6.0468 6.89462 5.55282C6.64764 5.05883 6.04698 4.85859 5.55299 5.10556L6.44736 6.89444ZM18.4474 5.10559C17.9534 4.85858 17.3528 5.05879 17.1058 5.55276C16.8588 6.04673 17.059 6.64741 17.5529 6.89441L18.4474 5.10559ZM19.1156 6.55776L18.6683 7.45217V7.45217L19.1156 6.55776ZM19.9453 16.7081L19 16.382L19.9453 16.7081ZM19.7144 17.0817L20.4289 17.7814V17.7814L19.7144 17.0817ZM19.9453 7.29195L20.8907 6.96589V6.96589L19.9453 7.29195ZM19.7144 6.91831L20.4289 6.21861L20.4289 6.21861L19.7144 6.91831ZM4.05466 7.29198L3.10932 6.9659L3.10932 6.9659L4.05466 7.29198ZM4.2856 6.91832L5 7.61806L5 7.61806L4.2856 6.91832ZM4.2856 17.0817L5 16.3819L5 16.3819L4.2856 17.0817ZM4.05466 16.708L3.10932 17.0341L3.10932 17.0341L4.05466 16.708ZM11.8163 20.8648L11.6319 21.8477L11.8163 20.8648ZM12.1851 20.8648L12.0007 19.882L12.1851 20.8648ZM13 2C13 1.44772 12.5523 1 12 1C11.4477 1 11 1.44772 11 2H13ZM11 4C11 4.55228 11.4477 5 12 5C12.5523 5 13 4.55228 13 4H11ZM16.2071 4.20711C16.5976 3.81658 16.5976 3.18342 16.2071 2.79289C15.8166 2.40237 15.1834 2.40237 14.7929 2.79289L16.2071 4.20711ZM13.7929 3.79289C13.4024 4.18342 13.4024 4.81658 13.7929 5.20711C14.1834 5.59763 14.8166 5.59763 15.2071 5.20711L13.7929 3.79289ZM8.79289 5.20711C9.18342 5.59763 9.81658 5.59763 10.2071 5.20711C10.5976 4.81658 10.5976 4.18342 10.2071 3.79289L8.79289 5.20711ZM9.20711 2.79289C8.81658 2.40237 8.18342 2.40237 7.79289 2.79289C7.40237 3.18342 7.40237 3.81658 7.79289 4.20711L9.20711 2.79289ZM4.1578 7.0789L3.31559 6.53974L4.1578 7.0789ZM19.8422 7.07889L20.6845 6.53976L19.8422 7.07889ZM8.94721 12.3556L7.94721 11.8556L7.05279 13.6444L8.05279 14.1444L8.94721 12.3556ZM11.7323 19.7478L5.33169 16.5478L4.43733 18.3367L10.838 21.5367L11.7323 19.7478ZM5 16.0111V7.98889H3V16.0111H5ZM19 7.98882V16.0112H21V7.98882H19ZM18.6683 16.5478L12.269 19.7478L13.1635 21.5366L19.5628 18.3367L18.6683 16.5478ZM5.33169 7.45223L6.44736 6.89444L5.55299 5.10556L4.43733 5.66334L5.33169 7.45223ZM17.5529 6.89441L18.6683 7.45217L19.5628 5.66335L18.4474 5.10559L17.5529 6.89441ZM19 16.0112C19 16.2028 18.9996 16.3013 18.9951 16.3726C18.9914 16.4321 18.9873 16.4189 19 16.382L20.8907 17.0341C21.013 16.6794 21 16.2976 21 16.0112H19ZM19.5628 18.3367C19.819 18.2085 20.1663 18.0495 20.4289 17.7814L19 16.382C19.0273 16.3541 19.0409 16.3519 18.9894 16.3818C18.9276 16.4177 18.8397 16.4621 18.6683 16.5478L19.5628 18.3367ZM19 16.382L20.4289 17.7814C20.6363 17.5696 20.794 17.3144 20.8907 17.0341L19 16.382ZM21 7.98882C21 7.70236 21.013 7.32062 20.8907 6.96589L19 7.61801C18.9873 7.58114 18.9914 7.56795 18.9951 7.62744C18.9996 7.69873 19 7.79724 19 7.98882H21ZM18.6683 7.45217C18.8397 7.53785 18.9276 7.58231 18.9894 7.61817C19.0409 7.6481 19.0273 7.64587 19 7.61801L20.4289 6.21861C20.1663 5.95053 19.819 5.79146 19.5628 5.66335L18.6683 7.45217ZM5 7.98889C5 7.7973 5.00045 7.69878 5.00489 7.62749C5.0086 7.56799 5.01272 7.58119 5 7.61806L3.10932 6.9659C2.98695 7.32064 3 7.70242 3 7.98889H5ZM4.43733 5.66334C4.1811 5.79144 3.83378 5.9505 3.5712 6.21859L5 7.61806C4.97271 7.64592 4.95906 7.64814 5.01063 7.61821C5.07241 7.58236 5.16033 7.5379 5.33169 7.45223L4.43733 5.66334ZM5.33169 16.5478C5.16032 16.4621 5.0724 16.4176 5.01062 16.3818C4.95906 16.3519 4.97271 16.3541 5 16.3819L3.5712 17.7814C3.83378 18.0495 4.18109 18.2086 4.43733 18.3367L5.33169 16.5478ZM3 16.0111C3 16.2976 2.98695 16.6794 3.10932 17.0341L5 16.3819C5.01272 16.4188 5.0086 16.432 5.00489 16.3725C5.00045 16.3012 5 16.2027 5 16.0111H3ZM5 16.3819L5 16.3819L3.10932 17.0341C3.20599 17.3144 3.36375 17.5696 3.5712 17.7814L5 16.3819ZM10.838 21.5367C11.0485 21.6419 11.3244 21.79 11.6319 21.8477L12.0007 19.882C12.0314 19.8877 12.0396 19.8948 11.9964 19.8761C11.9437 19.8531 11.8727 19.818 11.7323 19.7478L10.838 21.5367ZM12.269 19.7478C12.1287 19.818 12.0576 19.8531 12.0049 19.8761C11.9617 19.8948 11.9699 19.8877 12.0007 19.882L12.3695 21.8477C12.677 21.7899 12.953 21.6419 13.1635 21.5366L12.269 19.7478ZM11 2V4H13V2H11ZM14.7929 2.79289L13.7929 3.79289L15.2071 5.20711L16.2071 4.20711L14.7929 2.79289ZM10.2071 3.79289L9.20711 2.79289L7.79289 4.20711L8.79289 5.20711L10.2071 3.79289ZM5 7.61806L5 7.61806L3.31559 6.53974C3.23046 6.67272 3.16112 6.81572 3.10932 6.9659L5 7.61806ZM5 7.61806L5 7.61806L3.5712 6.21858C3.47491 6.31689 3.38933 6.42456 3.31559 6.53974L5 7.61806ZM12.4472 10.1056L4.60501 6.18447L3.71058 7.97333L11.5528 11.8944L12.4472 10.1056ZM20.8907 6.96589C20.8389 6.81572 20.7696 6.67273 20.6845 6.53976L19 7.61801V7.61801L20.8907 6.96589ZM20.6845 6.53976C20.6107 6.42458 20.5251 6.31691 20.4289 6.21861L19 7.61801L19 7.61801L20.6845 6.53976ZM19.395 6.18446L11.5528 10.1056L12.4472 11.8944L20.2894 7.97331L19.395 6.18446ZM11.6319 21.8477C11.7534 21.8705 11.8764 21.8819 11.9994 21.882L12.0007 19.882H12.0007L11.6319 21.8477ZM11.9994 21.882C12.1233 21.882 12.2472 21.8706 12.3695 21.8477L12.0007 19.882H12.0007L11.9994 21.882ZM11 11V20.882H13V11H11Z" fill="#0000CC"/>
</svg>
