<svg width="24" height="24" viewBox="0 0 24 24" fill="none" xmlns="http://www.w3.org/2000/svg">
<g opacity="0.14">
<path d="M11.5 13C10.6716 13 10 13.6716 10 14.5V19.5C10 20.3284 10.6716 21 11.5 21C12.3284 21 13 20.3284 13 19.5V14.5C13 13.6716 12.3284 13 11.5 13Z" fill="#0000CC"/>
<path d="M17 16.5C17 15.6716 17.6716 15 18.5 15C19.3284 15 20 15.6716 20 16.5V19.5C20 20.3284 19.3284 21 18.5 21C17.6716 21 17 20.3284 17 19.5V16.5Z" fill="#0000CC"/>
<path d="M3 17.5C3 16.6716 3.67157 16 4.5 16C5.32843 16 6 16.6716 6 17.5V19.5C6 20.3284 5.32843 21 4.5 21C3.67157 21 3 20.3284 3 19.5V17.5Z" fill="#0000CC"/>
</g>
<path d="M21 3L14 9L10 5L3 11M4.5 21C3.67157 21 3 20.3284 3 19.5V17.5C3 16.6716 3.67157 16 4.5 16C5.32843 16 6 16.6716 6 17.5V19.5C6 20.3284 5.32843 21 4.5 21ZM11.5 21C10.6716 21 10 20.3284 10 19.5V14.5C10 13.6716 10.6716 13 11.5 13C12.3284 13 13 13.6716 13 14.5V19.5C13 20.3284 12.3284 21 11.5 21ZM18.5 21C17.6716 21 17 20.3284 17 19.5V16.5C17 15.6716 17.6716 15 18.5 15C19.3284 15 20 15.6716 20 16.5V19.5C20 20.3284 19.3284 21 18.5 21Z" stroke="#0000CC" stroke-width="2" stroke-linecap="round" stroke-linejoin="round"/>
</svg>
