<svg width="24" height="24" viewBox="0 0 24 24" fill="none" xmlns="http://www.w3.org/2000/svg">
<g opacity="0.14">
<path d="M12 8C13.1046 8 14 7.10457 14 6C14 4.89543 13.1046 4 12 4C10.8954 4 10 4.89543 10 6C10 7.10457 10.8954 8 12 8Z" fill="#0000CC"/>
<path d="M20.7937 13.968C20.8681 14.1003 20.9053 14.1664 20.936 14.2605C20.9572 14.3256 20.9803 14.4503 20.9838 14.5186C20.989 14.6175 20.9824 14.6621 20.9693 14.7512C20.7629 16.1584 19.5118 17 17.9992 17C16.5273 17 15.303 15.86 15.048 14.7486C15.0345 14.6899 15.0278 14.6606 15.0273 14.5494C15.0271 14.4811 15.0498 14.3239 15.0694 14.2584C15.1013 14.1519 15.1357 14.0906 15.2047 13.9681L17.9992 9L20.7937 13.968Z" fill="#0000CC"/>
<path d="M8.79375 17.968C8.86812 18.1003 8.90531 18.1664 8.93599 18.2605C8.95717 18.3256 8.98031 18.4503 8.98385 18.5186C8.98897 18.6175 8.98242 18.6621 8.96934 18.7513C8.76287 20.1584 7.51177 21 5.99923 21C4.5273 21 3.30295 19.86 3.04799 18.7486C3.03453 18.6899 3.02781 18.6606 3.02735 18.5494C3.02706 18.4811 3.04977 18.3239 3.06939 18.2584C3.10128 18.1519 3.13575 18.0906 3.2047 17.968L5.99923 13L8.79375 17.968Z" fill="#0000CC"/>
</g>
<path d="M19.9992 21H11.9992V7.99997M11.9992 7.99997C13.1038 7.99997 13.9992 7.10454 13.9992 5.99997C13.9992 5.75967 13.9568 5.52926 13.8792 5.31582M11.9992 7.99997C10.8947 7.99997 9.99923 7.10454 9.99923 5.99997C9.99923 4.8954 10.8947 3.99997 11.9992 3.99997C12.8635 3.99997 13.5997 4.54817 13.8792 5.31582M10.1203 6.68393L4.48214 8.73605M19.5172 3.26373L13.8792 5.31582M5.99923 21C7.51177 21 8.76287 20.1584 8.96934 18.7513C8.98242 18.6621 8.98897 18.6175 8.98385 18.5186C8.98031 18.4503 8.95717 18.3255 8.93599 18.2605C8.90531 18.1663 8.86812 18.1002 8.79375 17.968L5.99923 13L3.2047 17.968C3.13575 18.0906 3.10128 18.1519 3.06939 18.2583C3.04977 18.3238 3.02706 18.481 3.02735 18.5494C3.02781 18.6605 3.03453 18.6899 3.04799 18.7485C3.30295 19.86 4.5273 21 5.99923 21ZM17.9992 17C19.5118 17 20.7629 16.1584 20.9693 14.7513C20.9824 14.6621 20.989 14.6175 20.9838 14.5186C20.9803 14.4503 20.9572 14.3255 20.936 14.2605C20.9053 14.1663 20.8681 14.1002 20.7937 13.968L17.9992 8.99997L15.2047 13.968C15.1358 14.0906 15.1013 14.1519 15.0694 14.2583C15.0498 14.3238 15.0271 14.481 15.0273 14.5494C15.0278 14.6605 15.0345 14.6899 15.048 14.7485C15.303 15.86 16.5273 17 17.9992 17Z" stroke="#0000CC" stroke-width="2" stroke-linecap="round" stroke-linejoin="round"/>
</svg>
