<svg width="24" height="24" viewBox="0 0 24 24" fill="none" xmlns="http://www.w3.org/2000/svg">
<path opacity="0.14" d="M3 8H17.8C18.9201 8 19.4802 8 19.908 8.21799C20.2843 8.40973 20.5903 8.71569 20.782 9.09202C21 9.51984 21 10.0799 21 11.2V16.8C21 17.9201 21 18.4802 20.782 18.908C20.5903 19.2843 20.2843 19.5903 19.908 19.782C19.4802 20 18.9201 20 17.8 20H6.2C5.0799 20 4.51984 20 4.09202 19.782C3.71569 19.5903 3.40973 19.2843 3.21799 18.908C3 18.4802 3 17.9201 3 16.8V8Z" fill="#0000CC"/>
<path d="M16.5008 14.1492H16.5098M19 4H6.2C5.0799 4 4.51984 4 4.09202 4.21799C3.71569 4.40973 3.40973 4.71569 3.21799 5.09202C3 5.51984 3 6.07989 3 7.2V16.8C3 17.9201 3 18.4802 3.21799 18.908C3.40973 19.2843 3.71569 19.5903 4.09202 19.782C4.51984 20 5.07989 20 6.2 20H17.8C18.9201 20 19.4802 20 19.908 19.782C20.2843 19.5903 20.5903 19.2843 20.782 18.908C21 18.4802 21 17.9201 21 16.8V11.2C21 10.0799 21 9.51984 20.782 9.09202C20.5903 8.71569 20.2843 8.40973 19.908 8.21799C19.4802 8 18.9201 8 17.8 8H7M16.9508 14.1492C16.9508 14.3977 16.7493 14.5992 16.5008 14.5992C16.2523 14.5992 16.0508 14.3977 16.0508 14.1492C16.0508 13.9007 16.2523 13.6992 16.5008 13.6992C16.7493 13.6992 16.9508 13.9007 16.9508 14.1492Z" stroke="#0000CC" stroke-width="2" stroke-linecap="round" stroke-linejoin="round"/>
</svg>
