<svg width="24" height="24" viewBox="0 0 24 24" fill="none" xmlns="http://www.w3.org/2000/svg">
<path d="M16 9.49996L21 14.5M21 9.49996L16 14.5M4.6 8.99996H5.5012C6.05213 8.99996 6.32759 8.99996 6.58285 8.93129C6.80903 8.87044 7.02275 8.77033 7.21429 8.63554C7.43047 8.4834 7.60681 8.27179 7.95951 7.84855L10.5854 4.69745C11.0211 4.17463 11.2389 3.91323 11.4292 3.88602C11.594 3.86246 11.7597 3.92245 11.8712 4.04604C12 4.18876 12 4.52904 12 5.2096V18.7903C12 19.4709 12 19.8112 11.8712 19.9539C11.7597 20.0775 11.594 20.1375 11.4292 20.1139C11.239 20.0867 11.0211 19.8253 10.5854 19.3025L7.95951 16.1514C7.60681 15.7281 7.43047 15.5165 7.21429 15.3644C7.02275 15.2296 6.80903 15.1295 6.58285 15.0686C6.32759 15 6.05213 15 5.5012 15H4.6C4.03995 15 3.75992 15 3.54601 14.891C3.35785 14.7951 3.20487 14.6421 3.10899 14.454C3 14.24 3 13.96 3 13.4V10.6C3 10.0399 3 9.75988 3.10899 9.54597C3.20487 9.35781 3.35785 9.20483 3.54601 9.10896C3.75992 8.99996 4.03995 8.99996 4.6 8.99996Z" stroke="#0000CC" stroke-width="2" stroke-linecap="round" stroke-linejoin="round"/>
</svg>
