<svg width="24" height="24" viewBox="0 0 24 24" fill="none" xmlns="http://www.w3.org/2000/svg">
<path opacity="0.14" d="M7.50043 16.5613L7.44727 16.5132L5.61719 18.3447C7.24914 19.9847 9.50955 21 12.0074 21C16.9834 21 21.0172 16.9706 21.0172 12C21.0172 9.49823 19.9953 7.23487 18.3457 5.6037L16.5171 7.43457L16.5727 7.49999C17.4657 8.60705 18 10.0158 18 11.5496C18 15.112 15.1152 18 11.5567 18C10.0193 18 8.60803 17.4609 7.50043 16.5613Z" fill="#0000CC"/>
<path d="M7.50043 16.5613L6.82971 17.303L6.84938 17.3208L6.86996 17.3375L7.50043 16.5613ZM16.5727 7.49999L17.3511 6.87216L17.3428 6.86183L17.3342 6.85173L16.5727 7.49999ZM5.61719 18.3447L4.90982 17.6378C4.52022 18.0277 4.51956 18.6593 4.90834 19.05L5.61719 18.3447ZM18.3457 5.6037L19.0488 4.89264C18.6575 4.50568 18.0271 4.50764 17.6382 4.89702L18.3457 5.6037ZM17.4653 12L17.4613 13H17.4653V12ZM16.0005 16L16.7437 15.3309C16.732 15.3179 16.7199 15.3052 16.7076 15.2929L16.0005 16ZM16.1066 16.1178L16.813 16.8256L16.1066 16.1178ZM12.0005 17.5H13.0005L13.0005 17.496L12.0005 17.5ZM12.0005 17.985L12.0683 18.9827H12.0683L12.0005 17.985ZM6.77655 17.2549L6.82971 17.303L8.17115 15.8196L8.11799 15.7715L6.77655 17.2549ZM15.7556 8.08282L15.8113 8.14824L17.3342 6.85173L17.2785 6.78632L15.7556 8.08282ZM20.0172 12C20.0172 16.4173 16.4321 20 12.0074 20V22C17.5346 22 22.0172 17.5239 22.0172 12H20.0172ZM12.0074 20C9.78617 20 7.77789 19.0983 6.32603 17.6393L4.90834 19.05C6.7204 20.871 9.23294 22 12.0074 22V20ZM17.6426 6.31476C19.1101 7.76591 20.0172 9.77633 20.0172 12H22.0172C22.0172 9.22014 20.8805 6.70383 19.0488 4.89264L17.6426 6.31476ZM17 11.5496C17 14.5608 14.5619 17 11.5567 17V19C15.6686 19 19 15.6633 19 11.5496H17ZM11.5567 17C10.2573 17 9.06692 16.5454 8.1309 15.7851L6.86996 17.3375C8.14913 18.3765 9.78121 19 11.5567 19V17ZM15.7944 8.12782C16.549 9.0633 17 10.2521 17 11.5496H19C19 9.77947 18.3825 8.15081 17.3511 6.87216L15.7944 8.12782ZM6.32456 19.0515L8.15464 17.2201L6.73989 15.8064L4.90982 17.6378L6.32456 19.0515ZM17.2246 8.14125L19.0533 6.31038L17.6382 4.89702L15.8095 6.72789L17.2246 8.14125ZM11.9745 12.978L17.4613 13L17.4693 11L11.9825 10.978L11.9745 12.978ZM17 11.5496C17 11.6823 16.9962 11.8092 16.9878 11.9313L18.9831 12.0687C18.9952 11.8932 19 11.7197 19 11.5496H17ZM17.4653 13H17.9855V11H17.4653V13ZM12.686 12.6848L17.2245 8.14129L15.8096 6.72785L11.271 11.2713L12.686 12.6848ZM11.2714 12.6851L15.2934 16.7071L16.7076 15.2929L12.6856 11.2709L11.2714 12.6851ZM15.2573 16.6691L15.3634 16.7869L16.8497 15.4487L16.7437 15.3309L15.2573 16.6691ZM16.9878 11.9313C16.8944 13.2866 16.3062 14.5058 15.4002 15.41L16.813 16.8256C18.0488 15.5923 18.8552 13.924 18.9831 12.0687L16.9878 11.9313ZM10.9785 11.982L11.0005 17.504L13.0005 17.496L12.9785 11.9741L10.9785 11.982ZM13.0005 17.985V17.5H11.0005V17.985H13.0005ZM15.4002 15.41C14.4968 16.3115 13.2821 16.8956 11.9327 16.9873L12.0683 18.9827C13.9174 18.857 15.5808 18.0553 16.813 16.8256L15.4002 15.41ZM11.9327 16.9873C11.809 16.9957 11.683 17 11.5567 17V19C11.7281 19 11.8993 18.9942 12.0683 18.9827L11.9327 16.9873ZM8.15468 17.22L12.6859 12.6848L11.2711 11.2712L6.73985 15.8064L8.15468 17.22Z" fill="#0000CC"/>
</svg>
