<svg width="24" height="24" viewBox="0 0 24 24" fill="none" xmlns="http://www.w3.org/2000/svg">
<g opacity="0.14">
<path d="M11.8676 20.4973C16.9118 20.4973 21.0009 16.5988 21.0009 11.7896C21.0009 8.9532 19.0772 6.16794 16.8753 4.57806C18.4299 6.74204 16.9381 10.759 13.4402 13.6941C9.84402 16.7116 5.48985 17.443 3.71484 15.3276C5.35465 17.6531 8.70746 20.4973 11.8676 20.4973Z" fill="#0000CC"/>
<path d="M13.6514 6.42219C14.4325 7.20323 13.4827 9.41931 11.5301 11.3719C9.57748 13.3246 7.3614 14.2743 6.58035 13.4933C5.7993 12.7122 6.74905 10.4961 8.70167 8.54351C10.6543 6.59088 12.8704 5.64114 13.6514 6.42219Z" fill="#0000CC"/>
</g>
<path d="M21.0004 11.7896H22.0004H21.0004ZM11.8671 20.4974V21.4974V20.4974ZM12.1802 21.003C12.4962 21.456 13.1195 21.567 13.5725 21.2511C14.0255 20.9351 14.1365 20.3117 13.8206 19.8588L12.1802 21.003ZM12.8206 18.4252C12.5046 17.9722 11.8812 17.8612 11.4283 18.1771C10.9753 18.4931 10.8642 19.1164 11.1802 19.5694L12.8206 18.4252ZM17.4489 18.8254C17.8435 19.2117 18.4767 19.205 18.863 18.8104C19.2494 18.4157 19.2427 17.7826 18.848 17.3962L17.4489 18.8254ZM17.2 15.7827C16.8053 15.3964 16.1722 15.4031 15.7858 15.7977C15.3995 16.1924 15.4062 16.8255 15.8008 17.2119L17.2 15.7827ZM20.2562 13.9126C20.6829 14.2633 21.313 14.2016 21.6636 13.7749C22.0143 13.3482 21.9526 12.718 21.5259 12.3674L20.2562 13.9126ZM20.1353 11.2247C19.7085 10.8741 19.0784 10.9357 18.7278 11.3624C18.3771 11.7891 18.4388 12.4193 18.8655 12.7699L20.1353 11.2247ZM20.0004 11.7896C20.0004 16.0021 16.4045 19.4974 11.8671 19.4974V21.4974C17.4181 21.4974 22.0004 17.1955 22.0004 11.7896H20.0004ZM16.1517 5.21099C18.1918 6.68411 20.0004 9.37929 20.0004 11.7896H22.0004C22.0004 8.52721 19.6861 5.29616 17.3225 3.58951L16.1517 5.21099ZM11.8671 19.4974C10.5721 19.4974 9.1441 18.9057 7.79225 17.964C6.45221 17.0306 5.2865 15.8216 4.5318 14.7513L2.89729 15.9039C3.78239 17.1591 5.11288 18.5351 6.64912 19.6051C8.17355 20.667 10.0019 21.4974 11.8671 21.4974V19.4974ZM15.971 5.04304C16.5377 5.71837 16.6964 6.86293 16.1601 8.37454C15.6327 9.86087 14.4826 11.5136 12.7968 12.9281L14.0824 14.4602C15.9928 12.8572 17.3789 10.9207 18.045 9.04328C18.7021 7.19115 18.7115 5.19751 17.5031 3.75746L15.971 5.04304ZM12.7968 12.9281C11.1111 14.3426 9.28378 15.1883 7.72852 15.4495C6.14683 15.7152 5.04727 15.3602 4.48059 14.6848L2.9485 15.9704C4.15683 17.4104 6.12174 17.7474 8.05981 17.4219C10.0243 17.092 12.172 16.0632 14.0824 14.4602L12.7968 12.9281ZM4.48059 14.6848C3.9139 14.0095 3.75517 12.8649 4.29142 11.3533C4.81871 9.86701 5.96882 8.21426 7.65454 6.79978L6.36897 5.26769C4.45855 6.87072 3.07255 8.80722 2.40652 10.6846C1.74945 12.5368 1.74018 14.5304 2.9485 15.9704L4.48059 14.6848ZM7.65454 6.79978C9.34027 5.38528 11.1677 4.53958 12.723 4.27834C14.3048 4.01267 15.4044 4.36771 15.971 5.04304L17.5031 3.75746C16.2948 2.31742 14.3298 1.98045 12.3917 2.30597C10.4271 2.63594 8.27938 3.66466 6.36897 5.26769L7.65454 6.79978ZM13.8206 19.8588L12.8206 18.4252L11.1802 19.5694L12.1802 21.003L13.8206 19.8588ZM18.848 17.3962L17.2 15.7827L15.8008 17.2119L17.4489 18.8254L18.848 17.3962ZM21.5259 12.3674L20.1353 11.2247L18.8655 12.7699L20.2562 13.9126L21.5259 12.3674ZM12.9446 7.12928C12.8828 7.06746 12.9296 7.04588 12.9247 7.22259C12.9197 7.40222 12.8594 7.68495 12.697 8.06379C12.3746 8.81597 11.7326 9.75543 10.8233 10.6648L12.2375 12.079C13.2807 11.0358 14.0899 9.8909 14.5353 8.85163C14.7568 8.33474 14.9095 7.79496 14.9239 7.27838C14.9384 6.75889 14.8111 6.16741 14.3588 5.71507L12.9446 7.12928ZM10.8233 10.6648C9.91387 11.5742 8.97441 12.2162 8.22222 12.5386C7.84339 12.7009 7.56065 12.7613 7.38103 12.7663C7.20432 12.7712 7.2259 12.7243 7.28772 12.7861L5.8735 14.2003C6.32585 14.6527 6.91733 14.78 7.43682 14.7655C7.9534 14.7511 8.49317 14.5984 9.01006 14.3769C10.0493 13.9315 11.1942 13.1223 12.2375 12.079L10.8233 10.6648ZM7.28772 12.7861C7.34953 12.848 7.30265 12.8695 7.30758 12.6928C7.3126 12.5132 7.37293 12.2305 7.53529 11.8516C7.85765 11.0994 8.49965 10.16 9.40904 9.2506L7.99482 7.83639C6.95158 8.87963 6.1424 10.0245 5.697 11.0638C5.47548 11.5807 5.32278 12.1204 5.30836 12.637C5.29387 13.1565 5.42116 13.748 5.8735 14.2003L7.28772 12.7861ZM9.40904 9.2506C10.3184 8.34122 11.2579 7.69922 12.0101 7.37685C12.3889 7.21449 12.6716 7.15416 12.8513 7.14915C13.028 7.14422 13.0064 7.1911 12.9446 7.12928L14.3588 5.71507C13.9064 5.26272 13.315 5.13543 12.7955 5.14993C12.2789 5.16434 11.7391 5.31704 11.2222 5.53856C10.183 5.98396 9.03806 6.79315 7.99482 7.83639L9.40904 9.2506Z" fill="#0000CC"/>
</svg>
