<svg width="24" height="24" viewBox="0 0 24 24" fill="none" xmlns="http://www.w3.org/2000/svg">
<path opacity="0.14" fill-rule="evenodd" clip-rule="evenodd" d="M7.02776 4.16085C4.61555 5.60063 3 8.23665 3 11.25C3 12.7688 4.23122 14 5.75 14H18.25C19.7688 14 21 12.7688 21 11.25C21 6.69365 17.3063 3 12.75 3H11.5C11.8139 3.41785 12 3.93716 12 4.5C12 5.88071 10.8807 7 9.5 7C8.11929 7 7 5.88071 7 4.5C7 4.42657 7.00317 4.35387 7.00937 4.28204L7.02776 4.16085ZM15.5 7C16.3284 7 17 7.67157 17 8.5C17 9.32843 16.3284 10 15.5 10C14.6716 10 14 9.32843 14 8.5C14 7.67157 14.6716 7 15.5 7Z" fill="#0000CC"/>
<path d="M11.25 3C6.69365 3 3 6.69365 3 11.25C3 12.7688 4.23122 14 5.75 14H18.25C19.7688 14 21 12.7688 21 11.25C21 6.69365 17.3063 3 12.75 3H11.25ZM11.25 3C9.707 3 8.26294 3.4236 7.02776 4.16085L7.00937 4.28204C7.00317 4.35387 7 4.42657 7 4.5C7 5.88071 8.11929 7 9.5 7C10.8807 7 12 5.88071 12 4.5C12 3.93716 11.8139 3.41785 11.5 3H11.25ZM9.15301 21H14.847C15.4555 21 15.923 20.461 15.8369 19.8586L15.1227 14.8586C15.0523 14.3659 14.6304 14 14.1327 14H9.8673C9.36964 14 8.94772 14.3659 8.87735 14.8586L8.16306 19.8586C8.077 20.461 8.54446 21 9.15301 21ZM17 8.5C17 7.67157 16.3284 7 15.5 7C14.6716 7 14 7.67157 14 8.5C14 9.32843 14.6716 10 15.5 10C16.3284 10 17 9.32843 17 8.5Z" stroke="#0000CC" stroke-width="2" stroke-linecap="round" stroke-linejoin="round"/>
</svg>
