<svg width="24" height="24" viewBox="0 0 24 24" fill="none" xmlns="http://www.w3.org/2000/svg">
<path opacity="0.14" fill-rule="evenodd" clip-rule="evenodd" d="M6.21477 18.8943C9.59937 21.7343 14.9332 20.9499 18.1282 17.1422C21.3232 13.3345 21.1695 7.94551 17.785 5.10549C14.4004 2.26548 9.06652 3.04992 5.87151 6.85759C2.67649 10.6653 2.83017 16.0543 6.21477 18.8943ZM13.286 10.4679C14.5552 11.5329 16.1597 11.7103 16.8697 10.8642C17.5797 10.018 17.1264 8.46875 15.8572 7.40374C14.5879 6.33874 12.9835 6.16132 12.2735 7.00747C11.5635 7.85362 12.0168 9.40292 13.286 10.4679Z" fill="#0000CC"/>
<path d="M16.8696 10.8641C16.1596 11.7103 14.5551 11.5329 13.2859 10.4678C12.0167 9.40284 11.5634 7.85354 12.2734 7.00739C12.9834 6.16124 14.5878 6.33866 15.8571 7.40367C17.1263 8.46867 17.5796 10.018 16.8696 10.8641Z" stroke="#0000CC" stroke-width="2" stroke-linejoin="round"/>
</svg>
