<svg width="24" height="24" viewBox="0 0 24 24" fill="none" xmlns="http://www.w3.org/2000/svg">
<path opacity="0.14" d="M3 12H21V12.7577C21 15.031 19.6542 17.0888 17.5714 18V19C17.5714 19.5523 17.1237 20 16.5714 20H7.42857C6.87629 20 6.42857 19.5523 6.42857 19V18C4.3458 17.0888 3 15.031 3 12.7577V12Z" fill="#0000CC"/>
<path d="M20.8287 9C20.9393 8.68722 20.9994 8.35064 20.9994 8C20.9994 6.34315 19.6563 5 17.9994 5C16.3426 5 14.9994 6.34315 14.9994 8C14.9994 8.35064 15.0596 8.68722 15.1701 9M3.07031 9C3.55554 5.60771 6.47295 3 9.99942 3C11.3191 3 12.5535 3.36518 13.607 4M12 9V6M9 9L8 8M3 12H21V12.7577C21 15.031 19.6542 17.0888 17.5714 18V19C17.5714 19.5523 17.1237 20 16.5714 20H7.42857C6.87629 20 6.42857 19.5523 6.42857 19V18C4.3458 17.0888 3 15.031 3 12.7577V12Z" stroke="#0000CC" stroke-width="2" stroke-linecap="round" stroke-linejoin="round"/>
</svg>
