<svg width="24" height="24" viewBox="0 0 24 24" fill="none" xmlns="http://www.w3.org/2000/svg">
<g opacity="0.14">
<path d="M13.9455 4.39669C15.4723 3.11557 17.5608 2.73295 19.4426 3.38963L19.7041 3.48089L19.7486 3.75425C20.0685 5.72148 19.329 7.71184 17.8023 8.99296C16.2755 10.2741 14.1869 10.6567 12.3052 10L12.0437 9.90877L11.9992 9.63541C11.6793 7.66818 12.4187 5.67782 13.9455 4.39669Z" fill="#0000CC"/>
<path d="M6.16997 11.7334C4.44392 10.7368 3.37006 8.9051 3.34353 6.91221L3.33984 6.63528L3.58152 6.5C5.32068 5.52653 7.44392 5.54066 9.16997 6.5372C10.896 7.53374 11.9699 9.36545 11.9964 11.3583L12.0001 11.6353L11.7584 11.7705C10.0193 12.744 7.89602 12.7299 6.16997 11.7334Z" fill="#0000CC"/>
<path d="M13.9455 4.39669C15.4723 3.11557 17.5608 2.73295 19.4426 3.38963L19.7041 3.48089L19.7486 3.75425C20.0685 5.72148 19.329 7.71184 17.8023 8.99296C16.2755 10.2741 14.1869 10.6567 12.3052 10L12.0437 9.90877L11.9992 9.63541C11.6793 7.66818 12.4187 5.67782 13.9455 4.39669Z" stroke="#0000CC" stroke-linecap="round" stroke-linejoin="round"/>
<path d="M6.16997 11.7334C4.44392 10.7368 3.37006 8.9051 3.34353 6.91221L3.33984 6.63528L3.58152 6.5C5.32068 5.52653 7.44392 5.54066 9.16997 6.5372C10.896 7.53374 11.9699 9.36545 11.9964 11.3583L12.0001 11.6353L11.7584 11.7705C10.0193 12.744 7.89602 12.7299 6.16997 11.7334Z" stroke="#0000CC" stroke-linecap="round" stroke-linejoin="round"/>
</g>
<path d="M11.9964 11.3583L12 21M11.9964 11.3583L12.0001 11.6353L11.7584 11.7705C10.0193 12.744 7.89602 12.7299 6.16997 11.7334C4.44392 10.7368 3.37006 8.9051 3.34353 6.91221L3.33984 6.63528L3.58152 6.5C5.32068 5.52653 7.44392 5.54066 9.16997 6.5372C10.896 7.53374 11.9699 9.36545 11.9964 11.3583ZM19.7041 3.48089L19.4426 3.38963C17.5608 2.73295 15.4723 3.11557 13.9455 4.39669C12.4187 5.67782 11.6793 7.66818 11.9992 9.63541L12.0437 9.90877L12.3052 10C14.1869 10.6567 16.2755 10.2741 17.8023 8.99296C19.329 7.71184 20.0685 5.72148 19.7486 3.75425L19.7041 3.48089Z" stroke="#0000CC" stroke-width="2" stroke-linecap="round" stroke-linejoin="round"/>
</svg>
