<svg width="24" height="24" viewBox="0 0 24 24" fill="none" xmlns="http://www.w3.org/2000/svg">
<g opacity="0.14">
<path d="M3 15C3 11.6863 5.68629 9 9 9L15 15C15 18.3137 12.3137 21 9 21H5C3.89543 21 3 20.1046 3 19V15Z" fill="#0000CC"/>
<path d="M14.2608 4.52586L14.2363 4.47685C14.0982 4.2009 13.7781 4.06868 13.4855 4.16678C12.1363 4.61916 11.4447 6.11256 11.9723 7.43414L11.9969 7.49577C11.9969 7.49577 13.6151 8.61585 14.4992 9.5C15.3818 10.3827 16.496 11.9959 16.496 11.9959L17.0269 12.2083C18.0957 12.636 19.304 12.0754 19.6676 10.9831L19.8102 10.5547C19.9169 10.234 19.7717 9.8835 19.4693 9.73232C18.5088 9.25207 17.4276 9.06706 16.362 9.20062L14.5796 9.42406L14.798 7.62741C14.9273 6.56324 14.7405 5.48455 14.2608 4.52586Z" fill="#0000CC"/>
</g>
<path d="M14.5 9.5C14.5 9.5 17 7.5 18 6C19 4.5 18.5 3 18.5 3M14.5 9.5L14.7984 7.62741C14.9278 6.56324 14.7409 5.48455 14.2613 4.52586L14.2367 4.47685C14.0987 4.2009 13.7785 4.06868 13.486 4.16678C12.1368 4.61916 11.4452 6.11256 11.9728 7.43414L11.9974 7.49577C11.9974 7.49577 13.616 8.61585 14.5 9.5ZM14.5 9.5L16.3625 9.20062C17.428 9.06705 18.5093 9.25206 19.4698 9.73231C19.7721 9.8835 19.9174 10.234 19.8106 10.5547L19.668 10.9831C19.3044 12.0754 18.0961 12.636 17.0273 12.2083L16.4965 11.9959C16.4965 11.9959 15.3826 10.3827 14.5 9.5ZM12 16L11.2929 16.7071M10 14L9.29289 14.7071M8.70703 17L7.99992 17.7071M8 12L7.29289 12.7071M6.70703 15L5.99992 15.7071M3 15C3 11.6863 5.68629 9 9 9L15 15C15 18.3137 12.3137 21 9 21H5C3.89543 21 3 20.1046 3 19V15Z" stroke="#0000CC" stroke-width="2" stroke-linecap="round" stroke-linejoin="round"/>
</svg>
