<svg width="24" height="24" viewBox="0 0 24 24" fill="none" xmlns="http://www.w3.org/2000/svg">
<g opacity="0.14">
<path d="M11.6468 13.7677L10.9397 13.0606C11.5973 12.403 11.9261 12.0742 12.2681 11.8768C13.1963 11.3409 14.3399 11.3409 15.2681 11.8768C15.6101 12.0742 15.9389 12.403 16.5965 13.0606C16.9871 13.4512 16.9938 14.0916 16.5901 14.4685C16.3504 14.6923 16.1648 14.8421 15.9752 14.9516C15.047 15.4875 13.9034 15.4875 12.9752 14.9516C12.6332 14.7541 12.3044 14.4253 11.6468 13.7677Z" fill="#0000CC"/>
<path d="M14.4752 10.9393L13.7681 10.2322C14.4257 9.57461 14.7545 9.24582 15.0965 9.04834C16.0247 8.51244 17.1683 8.51244 18.0965 9.04834C18.4386 9.24582 18.7674 9.57461 19.425 10.2322C19.8155 10.6227 19.8222 11.2632 19.4185 11.6401C19.1788 11.8639 18.9932 12.0137 18.8036 12.1232C17.8754 12.6591 16.7318 12.6591 15.8036 12.1232C15.4616 11.9257 15.1328 11.5969 14.4752 10.9393Z" fill="#0000CC"/>
<path d="M8.81836 16.5962L8.11125 15.8891C8.76884 15.2315 9.09764 14.9027 9.43968 14.7052C10.3679 14.1693 11.5115 14.1693 12.4397 14.7052C12.7817 14.9027 13.1105 15.2315 13.7681 15.8891C14.1586 16.2796 14.1653 16.92 13.7617 17.2969C13.5219 17.5207 13.3364 17.6706 13.1468 17.78C12.2186 18.3159 11.075 18.3159 10.1468 17.78C9.80474 17.5825 9.47595 17.2538 8.81836 16.5962Z" fill="#0000CC"/>
<path d="M10.9397 7.40377C10.5492 7.01325 9.9087 7.00653 9.53181 7.41023C9.308 7.64995 9.15818 7.83549 9.04871 8.02509C8.51281 8.9533 8.51281 10.0969 9.04871 11.0251C9.24619 11.3671 9.57498 11.6959 10.2326 12.3535L10.9397 13.0606C11.5973 12.403 11.9261 12.0742 12.1235 11.7322C12.6594 10.804 12.6594 9.6604 12.1235 8.7322C11.9261 8.39016 11.5973 8.06136 10.9397 7.40377Z" fill="#0000CC"/>
<path d="M13.7681 4.57535C13.3776 4.18482 12.7371 4.1781 12.3602 4.5818C12.1364 4.82153 11.9866 5.00706 11.8771 5.19667C11.3412 6.12487 11.3412 7.26846 11.8771 8.19667C12.0746 8.53871 12.4034 8.8675 13.061 9.52509L13.7681 10.2322C14.4257 9.57461 14.7545 9.24582 14.952 8.90377C15.4879 7.97557 15.4879 6.83198 14.952 5.90377C14.7545 5.56173 14.4257 5.23294 13.7681 4.57535Z" fill="#0000CC"/>
<path d="M20.8392 3.16113L18.2842 3.67212C17.6448 3.8 17.0576 4.11428 16.5965 4.57535C16.1355 5.03642 15.8212 5.62365 15.6933 6.26303L15.1823 8.81799L17.7373 8.307C18.3767 8.17912 18.9639 7.86484 19.425 7.40377C19.886 6.9427 20.2003 6.35547 20.3282 5.71609L20.8392 3.16113Z" fill="#0000CC"/>
<path d="M8.11125 10.2322C7.72073 9.84168 7.08027 9.83496 6.70338 10.2387C6.47957 10.4784 6.32975 10.6639 6.22028 10.8535C5.68438 11.7817 5.68438 12.9253 6.22028 13.8535C6.41776 14.1956 6.74656 14.5244 7.40415 15.1819L8.11125 15.8891C8.76884 15.2315 9.09764 14.9027 9.29512 14.5606C9.83101 13.6324 9.83101 12.4888 9.29512 11.5606C9.09764 11.2186 8.76884 10.8898 8.11125 10.2322Z" fill="#0000CC"/>
</g>
<path d="M10.939 13.0606L11.6461 13.7677C12.3037 14.4253 12.6325 14.7541 12.9745 14.9516C13.9027 15.4875 15.0463 15.4875 15.9745 14.9516C16.1642 14.8421 16.3497 14.6923 16.5894 14.4685C16.9931 14.0916 16.9864 13.4512 16.5959 13.0606C15.9383 12.403 15.6095 12.0742 15.2674 11.8768C14.3392 11.3409 13.1956 11.3409 12.2674 11.8768C11.9254 12.0742 11.5966 12.403 10.939 13.0606ZM10.939 13.0606L10.2319 12.3535C9.57431 11.6959 9.24552 11.3671 9.04804 11.0251C8.51214 10.0969 8.51214 8.9533 9.04804 8.02509C9.15751 7.83549 9.30733 7.64995 9.53114 7.41023C9.90803 7.00653 10.5485 7.01325 10.939 7.40377C11.5966 8.06136 11.9254 8.39016 12.1229 8.7322C12.6588 9.6604 12.6588 10.804 12.1229 11.7322C11.9254 12.0742 11.5966 12.403 10.939 13.0606ZM13.7674 10.2322L14.4745 10.9393C15.1321 11.5969 15.4609 11.9257 15.803 12.1232C16.7312 12.6591 17.8748 12.6591 18.803 12.1232C18.9926 12.0137 19.1781 11.8639 19.4178 11.6401C19.8215 11.2632 19.8148 10.6227 19.4243 10.2322C18.7667 9.57461 18.4379 9.24582 18.0959 9.04834C17.1677 8.51244 16.0241 8.51244 15.0959 9.04834C14.7538 9.24582 14.425 9.57461 13.7674 10.2322ZM13.7674 10.2322L13.0603 9.52509C12.4027 8.8675 12.0739 8.53871 11.8765 8.19667C11.3406 7.26846 11.3406 6.12487 11.8765 5.19667C11.9859 5.00706 12.1358 4.82153 12.3596 4.5818C12.7365 4.1781 13.3769 4.18482 13.7674 4.57535C14.425 5.23294 14.7538 5.56173 14.9513 5.90377C15.4872 6.83198 15.4872 7.97557 14.9513 8.90377C14.7538 9.24582 14.425 9.57461 13.7674 10.2322ZM8.11058 15.8891L8.81769 16.5962C9.47528 17.2538 9.80407 17.5825 10.1461 17.78C11.0743 18.3159 12.2179 18.3159 13.1461 17.78C13.3357 17.6706 13.5213 17.5207 13.761 17.2969C14.1647 16.92 14.158 16.2796 13.7674 15.8891C13.1098 15.2315 12.7811 14.9027 12.439 14.7052C11.5108 14.1693 10.3672 14.1693 9.43901 14.7052C9.09697 14.9027 8.76817 15.2315 8.11058 15.8891ZM8.11058 15.8891L7.40348 15.1819C6.74589 14.5244 6.41709 14.1956 6.21961 13.8535C5.68372 12.9253 5.68372 11.7817 6.21961 10.8535C6.32908 10.6639 6.4789 10.4784 6.70271 10.2387C7.0796 9.83496 7.72006 9.84168 8.11058 10.2322C8.76817 10.8898 9.09697 11.2186 9.29445 11.5606C9.83034 12.4888 9.83034 13.6324 9.29445 14.5606C9.09697 14.9027 8.76817 15.2315 8.11058 15.8891ZM15.1817 8.81799L17.7366 8.307C18.376 8.17912 18.9632 7.86484 19.4243 7.40377C19.8854 6.9427 20.1996 6.35547 20.3275 5.71609L20.8385 3.16113L18.2836 3.67212C17.6442 3.8 17.0569 4.11428 16.5959 4.57535C16.1348 5.03642 15.8205 5.62365 15.6926 6.26303L15.1817 8.81799ZM15.1817 8.81799L3.16016 20.8388" stroke="#0000CC" stroke-width="2" stroke-linecap="round" stroke-linejoin="round"/>
</svg>
