<svg width="24" height="24" viewBox="0 0 24 24" fill="none" xmlns="http://www.w3.org/2000/svg">
<path fill-rule="evenodd" clip-rule="evenodd" d="M12 6C8.68629 6 6 8.68629 6 12C6 15.3137 8.68629 18 12 18C15.3137 18 18 15.3137 18 12C18 8.68629 15.3137 6 12 6ZM12 9C12.5523 9 13 9.44772 13 10V11.5C13 12.0523 12.5523 12.5 12 12.5C11.4477 12.5 11 12.0523 11 11.5V10C11 9.44772 11.4477 9 12 9ZM13 14C13 14.5523 12.5523 15 12 15C11.4477 15 11 14.5523 11 14C11 13.4477 11.4477 13 12 13C12.5523 13 13 13.4477 13 14Z" fill="#0000CC"/>
<path d="M5.33273 7.57698C5.63852 7.11708 5.51358 6.49636 5.05367 6.19057C4.59377 5.88479 3.97305 6.00973 3.66727 6.46963C2.6138 8.05406 2 9.95687 2 12C2 14.0431 2.6138 15.9459 3.66727 17.5304C3.97305 17.9903 4.59377 18.1152 5.05367 17.8094C5.51358 17.5036 5.63852 16.8829 5.33273 16.423C4.49066 15.1565 4 13.6371 4 12C4 10.3629 4.49066 8.84347 5.33273 7.57698Z" fill="#0000CC"/>
<path d="M20.3327 6.46963C20.0269 6.00973 19.4062 5.88479 18.9463 6.19057C18.4864 6.49636 18.3615 7.11708 18.6673 7.57698C19.5093 8.84347 20 10.3629 20 12C20 13.279 19.7006 14.4851 19.169 15.5549C18.9232 16.0495 19.1249 16.6497 19.6195 16.8954C20.1141 17.1412 20.7143 16.9395 20.96 16.4449C21.626 15.1048 22 13.5947 22 12C22 9.95687 21.3862 8.05406 20.3327 6.46963Z" fill="#0000CC"/>
</svg>
