<svg width="24" height="24" viewBox="0 0 24 24" fill="none" xmlns="http://www.w3.org/2000/svg">
<path fill-rule="evenodd" clip-rule="evenodd" d="M4.00008 5.99768C3.99551 9.27758 4.00008 12.5583 4.00008 15.8385C4.00006 16.3657 4.00005 16.8205 4.03065 17.195C4.06295 17.5904 4.13427 17.9836 4.32706 18.362C4.61468 18.9265 5.07362 19.3854 5.63811 19.673C5.75742 19.7338 5.87821 19.7825 6.00008 19.8218V21C6.00008 21.5523 6.44779 22 7.00008 22C7.55236 22 8.00008 21.5523 8.00008 21V20H16.0001V21C16.0001 21.5523 16.4478 22 17.0001 22C17.5524 22 18.0001 21.5523 18.0001 21V19.8218C18.1219 19.7825 18.2427 19.7338 18.3621 19.673C18.9265 19.3854 19.3855 18.9265 19.6731 18.362C19.8659 17.9836 19.9372 17.5904 19.9695 17.195C20.0001 16.8205 20.0001 16.3658 20.0001 15.8386L19.9992 5.95379C19.9943 5.82368 19.9661 5.53757 19.8227 5.1688C19.6566 4.74168 19.3443 4.22799 18.7759 3.74074C17.6461 2.77236 15.6197 2 12.0001 2C8.38043 2 6.35407 2.77236 5.22429 3.74074C4.65584 4.22799 4.34355 4.74168 4.17745 5.1688C4.07476 5.43285 4.00603 5.71357 4.00008 5.99768ZM6.00008 7.6C6.00008 7.03995 6.00008 6.75992 6.10907 6.54601C6.20494 6.35785 6.35792 6.20487 6.54609 6.10899C6.76 6 7.04003 6 7.60008 6H16.4001C16.9601 6 17.2402 6 17.4541 6.10899C17.6422 6.20487 17.7952 6.35785 17.8911 6.54601C18.0001 6.75992 18.0001 7.03995 18.0001 7.6V10.4C18.0001 10.9601 18.0001 11.2401 17.8911 11.454C17.7952 11.6422 17.6422 11.7951 17.4541 11.891C17.2402 12 16.9601 12 16.4001 12H7.60008C7.04003 12 6.76 12 6.54609 11.891C6.35792 11.7951 6.20494 11.6422 6.10907 11.454C6.00008 11.2401 6.00008 10.9601 6.00008 10.4V7.6ZM7.00008 17C7.55236 17 8.00008 16.5523 8.00008 16C8.00008 15.4477 7.55236 15 7.00008 15C6.44779 15 6.00008 15.4477 6.00008 16C6.00008 16.5523 6.44779 17 7.00008 17ZM17.0001 17C17.5524 17 18.0001 16.5523 18.0001 16C18.0001 15.4477 17.5524 15 17.0001 15C16.4478 15 16.0001 15.4477 16.0001 16C16.0001 16.5523 16.4478 17 17.0001 17Z" fill="#0000CC"/>
</svg>
