<svg width="24" height="24" viewBox="0 0 24 24" fill="none" xmlns="http://www.w3.org/2000/svg">
<path fill-rule="evenodd" clip-rule="evenodd" d="M13.9756 6.0864C13.725 6.01029 13.4326 6.0001 12.4311 6.0001H11V10.0001H17.1315L15.5929 7.69224C15.0374 6.85897 14.8667 6.62133 14.6644 6.45501C14.4613 6.28806 14.2272 6.16281 13.9756 6.0864ZM19.7444 10.3139L17.257 6.58284C17.2323 6.54578 17.208 6.5092 17.1839 6.4731C16.7346 5.79831 16.3956 5.28905 15.9343 4.90992C15.528 4.57603 15.06 4.32551 14.5568 4.17271C13.9855 3.9992 13.3737 3.99957 12.563 4.00005C12.5196 4.00008 12.4757 4.0001 12.4311 4.0001L9.02892 4.0001C8.33832 4.00009 7.76471 4.00008 7.29239 4.0358C6.79906 4.07311 6.3442 4.15311 5.90416 4.35052C5.21561 4.6594 4.62849 5.15677 4.21061 5.78516C3.94355 6.18676 3.78986 6.62228 3.67196 7.10277C3.55908 7.56278 3.46478 8.1286 3.35126 8.8098L3.12952 10.1402C2.96365 10.1847 2.79949 10.2448 2.63803 10.3271C2.07355 10.6147 1.61461 11.0736 1.32699 11.6381C1.13419 12.0165 1.06288 12.4097 1.03057 12.8051C0.999971 13.1796 0.999986 13.6344 1 14.1616L1 15.432C0.999973 15.6844 0.999943 15.9302 1.01695 16.1383C1.03563 16.3669 1.07969 16.6367 1.21799 16.9081C1.40974 17.2844 1.7157 17.5904 2.09202 17.7821C2.36345 17.9204 2.63318 17.9645 2.86178 17.9832C2.95749 17.991 3.06117 17.9952 3.16978 17.9975C3.58087 19.164 4.6928 20.0001 6.00001 20.0001C7.30622 20.0001 8.41746 19.1653 8.8293 18.0001H15.1707C15.5825 19.1653 16.6938 20.0001 18 20.0001C19.3062 20.0001 20.4174 19.1653 20.8293 18.0001C20.833 18.0001 20.8368 18.0001 20.8406 18.0002C20.9815 18.0004 21.1535 18.0007 21.3129 17.9755C22.1687 17.8399 22.8398 17.1688 22.9754 16.313C23.0006 16.1536 23.0003 15.9816 23.0001 15.8407C23 15.8268 23 15.8133 23 15.8001C23 15.7688 23 15.7379 23 15.7075C23.0001 15.0536 23.0002 14.608 22.9384 14.2179C22.6523 12.4115 21.4116 10.9341 19.7444 10.3139ZM9 10.0001V6.00011C8.29889 6.00017 7.81945 6.00165 7.44321 6.03011C7.06778 6.0585 6.86857 6.1099 6.72277 6.17531C6.3785 6.32975 6.08494 6.57843 5.876 6.89263C5.78752 7.02569 5.70406 7.21374 5.61433 7.5794C5.52161 7.95727 5.43914 8.44808 5.31792 9.17539L5.18047 10.0001L9 10.0001ZM6.00001 16.0001C5.44772 16.0001 5.00001 16.4478 5.00001 17.0001C5.00001 17.5524 5.44772 18.0001 6.00001 18.0001C6.55229 18.0001 7.00001 17.5524 7.00001 17.0001C7.00001 16.4478 6.55229 16.0001 6.00001 16.0001ZM18 16.0001C17.4477 16.0001 17 16.4478 17 17.0001C17 17.5524 17.4477 18.0001 18 18.0001C18.5523 18.0001 19 17.5524 19 17.0001C19 16.4478 18.5523 16.0001 18 16.0001Z" fill="#0000CC"/>
</svg>
