<svg width="24" height="24" viewBox="0 0 24 24" fill="none" xmlns="http://www.w3.org/2000/svg">
<path fill-rule="evenodd" clip-rule="evenodd" d="M12 4C12 3.44772 12.4477 3 13 3H15C15.4589 3 15.8589 3.3123 15.9701 3.75746L16.2808 5H17.2498C17.2494 4.55164 17.5528 4.14352 18.0075 4.02986C18.5433 3.89591 19.0862 4.22167 19.2201 4.75746C19.3868 5.42413 19.5535 6.09079 19.7201 6.75746C19.8541 7.29326 19.5283 7.83619 18.9925 7.97014C18.4567 8.10409 17.9138 7.77833 17.7799 7.24254L17.7192 7H16.7808L17.7903 11.0383C18.0234 11.013 18.2602 11 18.5 11C20.0705 11 21.5133 11.5582 22.6368 12.4861C23.0626 12.8378 23.1227 13.4681 22.771 13.8939C22.4194 14.3198 21.7891 14.3799 21.3632 14.0282C20.5849 13.3854 19.5888 13 18.5 13C16.1532 13 14.225 14.7972 14.0184 17.0897C13.9719 17.6052 13.5399 18 13.0224 18H12.1615C11.7863 18 11.4479 18 11.1488 17.989C11.1003 17.9962 11.0506 18 11 18H9.96456C9.72194 19.6961 8.26324 21 6.5 21C4.73676 21 3.27806 19.6961 3.03545 18H2C1.44772 18 1 17.5523 1 17L1 14.7587C0.999988 13.9537 0.999977 13.2894 1.04419 12.7482C1.09012 12.1861 1.18868 11.6694 1.43597 11.184C1.81947 10.4314 2.43139 9.81947 3.18404 9.43597C3.66937 9.18868 4.18608 9.09012 4.74817 9.04419C5.28937 8.99998 5.95373 8.99999 6.7587 9H9C9.55229 9 10 9.44772 10 10V13.8C10 14.3765 10.0008 14.7488 10.0239 15.0322C10.0461 15.3038 10.0838 15.4045 10.109 15.454C10.2049 15.6421 10.3578 15.7951 10.546 15.891C10.5955 15.9162 10.6962 15.9539 10.9678 15.9761C11.2469 15.9989 11.6123 16 12.1741 16C12.6443 14.0101 14.0284 12.3739 15.8589 11.5589C15.3124 9.3726 14.7658 7.1863 14.2192 5H13C12.4477 5 12 4.55228 12 4ZM5.08535 18C5.29127 18.5826 5.84689 19 6.5 19C7.15311 19 7.70873 18.5826 7.91465 18H5.08535ZM4 7C4 6.44772 4.44772 6 5 6H9C9.55229 6 10 6.44772 10 7C10 7.55228 9.55229 8 9 8H5C4.44772 8 4 7.55228 4 7ZM18.5 16C17.6716 16 17 16.6716 17 17.5C17 18.3284 17.6716 19 18.5 19C19.3284 19 20 18.3284 20 17.5C20 16.6716 19.3284 16 18.5 16ZM15 17.5C15 15.567 16.567 14 18.5 14C20.433 14 22 15.567 22 17.5C22 19.433 20.433 21 18.5 21C16.567 21 15 19.433 15 17.5Z" fill="#0000CC"/>
</svg>
