<svg width="24" height="24" viewBox="0 0 24 24" fill="none" xmlns="http://www.w3.org/2000/svg">
<path fill-rule="evenodd" clip-rule="evenodd" d="M13 3C12.4477 3 12 3.44772 12 4C12 4.55228 12.4477 5 13 5H14.2415L14.4144 5.61753L8.90461 9.8155C7.88289 9.29406 6.72579 9 5.5 9H2C1.44772 9 1 9.44772 1 10C1 10.5523 1.44772 11 2 11H5.5C8.53757 11 11 13.4624 11 16.5C11 17.0523 11.4477 17.5 12 17.5C12.5523 17.5 13 17.0523 13 16.5C13 14.3324 14.2546 12.4559 16.0784 11.5601L16.3538 12.5438C14.9517 13.306 14 14.7919 14 16.5C14 18.9853 16.0147 21 18.5 21C20.9853 21 23 18.9853 23 16.5C23 14.0147 20.9853 12 18.5 12C18.4262 12 18.3529 12.0018 18.2799 12.0053L16.8785 7H18C18 7.55228 18.4477 8 19 8C19.5523 8 20 7.55228 20 7V5C20 4.44772 19.5523 4 19 4C18.4477 4 18 4.44772 18 5H16.3185L15.963 3.73037C15.8421 3.29854 15.4484 3 15 3H13ZM16 16.5C16 15.719 16.3582 15.0216 16.9192 14.5631L17.537 16.7696C17.6859 17.3015 18.2378 17.6119 18.7696 17.463C19.3015 17.3141 19.6119 16.7622 19.463 16.2304L18.8451 14.0236C20.0625 14.1917 21 15.2364 21 16.5C21 17.8807 19.8807 19 18.5 19C17.1193 19 16 17.8807 16 16.5ZM10.6221 11.0214L14.9947 7.68979L15.5325 9.6103C14.0439 10.2523 12.8044 11.3626 12.0001 12.7558C11.6278 12.1109 11.1623 11.5267 10.6221 11.0214Z" fill="#0000CC"/>
<path d="M5.5 15C4.67157 15 4 15.6716 4 16.5C4 17.3284 4.67157 18 5.5 18C6.32843 18 7 17.3284 7 16.5C7 15.6716 6.32843 15 5.5 15Z" fill="#0000CC"/>
<path fill-rule="evenodd" clip-rule="evenodd" d="M1 16.5C1 14.0147 3.01472 12 5.5 12C7.98528 12 10 14.0147 10 16.5C10 18.9853 7.98528 21 5.5 21C3.01472 21 1 18.9853 1 16.5ZM5.5 14C4.11929 14 3 15.1193 3 16.5C3 17.8807 4.11929 19 5.5 19C6.88071 19 8 17.8807 8 16.5C8 15.1193 6.88071 14 5.5 14Z" fill="#0000CC"/>
</svg>
