<svg width="24" height="24" viewBox="0 0 24 24" fill="none" xmlns="http://www.w3.org/2000/svg">
<path fill-rule="evenodd" clip-rule="evenodd" d="M8.16146 2H15.8385C16.3657 1.99998 16.8205 1.99997 17.195 2.03057C17.5904 2.06287 17.9836 2.13419 18.362 2.32698C18.9265 2.6146 19.3854 3.07354 19.673 3.63803C19.8658 4.01641 19.9371 4.40963 19.9694 4.80497C20 5.17952 20 5.63424 20 6.16134V14.8385C20 15.3656 20 15.8205 19.9694 16.195C19.9371 16.5904 19.8658 16.9836 19.673 17.362C19.3854 17.9265 18.9265 18.3854 18.362 18.673C18.0385 18.8379 17.7041 18.9139 17.3669 18.9527L18.7071 20.2929C19.0976 20.6834 19.0976 21.3166 18.7071 21.7071C18.3166 22.0976 17.6834 22.0976 17.2929 21.7071L14.5858 19H9.41422L6.70711 21.7071C6.31659 22.0976 5.68342 22.0976 5.2929 21.7071C4.90237 21.3166 4.90237 20.6834 5.2929 20.2929L6.63313 18.9527C6.29588 18.9139 5.96153 18.8379 5.63803 18.673C5.07354 18.3854 4.6146 17.9265 4.32698 17.362C4.13419 16.9836 4.06287 16.5904 4.03057 16.195C3.99997 15.8205 3.99998 15.3657 4 14.8386V6.16146C3.99998 5.63433 3.99997 5.17954 4.03057 4.80497C4.06287 4.40963 4.13419 4.01641 4.32698 3.63803C4.6146 3.07354 5.07354 2.6146 5.63803 2.32698C6.01641 2.13419 6.40963 2.06287 6.80497 2.03057C7.17954 1.99997 7.63433 1.99998 8.16146 2ZM11 10H6V6.2C6 5.62345 6.00078 5.25118 6.02393 4.96784C6.04613 4.69618 6.0838 4.59546 6.109 4.54601C6.20487 4.35785 6.35785 4.20487 6.54601 4.109C6.59546 4.0838 6.69618 4.04613 6.96784 4.02393C7.25118 4.00078 7.62345 4 8.2 4H11V10ZM13 10H18V6.2C18 5.62345 17.9992 5.25118 17.9761 4.96784C17.9539 4.69618 17.9162 4.59546 17.891 4.54601C17.7951 4.35785 17.6422 4.20487 17.454 4.109C17.4045 4.0838 17.3038 4.04613 17.0322 4.02393C16.7488 4.00078 16.3766 4 15.8 4H13V10ZM8 15C8 15.5523 7.55229 16 7 16C6.44772 16 6 15.5523 6 15C6 14.4477 6.44772 14 7 14C7.55229 14 8 14.4477 8 15ZM17 16C17.5523 16 18 15.5523 18 15C18 14.4477 17.5523 14 17 14C16.4477 14 16 14.4477 16 15C16 15.5523 16.4477 16 17 16Z" fill="#0000CC"/>
</svg>
