<svg width="24" height="24" viewBox="0 0 24 24" fill="none" xmlns="http://www.w3.org/2000/svg">
<path d="M3.89746 6.13797C2.70377 7.78504 2 9.81033 2 12C2 12.6849 2.06886 13.3538 2.20003 14H8.44634L3.89746 6.13797Z" fill="#0000CC"/>
<path d="M2.83208 16C3.95334 18.5663 6.12055 20.571 8.79487 21.4753L11.9707 16H2.83208Z" fill="#0000CC"/>
<path d="M10.8411 21.9336C11.2213 21.9774 11.608 22 12 22C14.5456 22 16.8691 21.0488 18.6344 19.4824L15.4504 13.9869L10.8411 21.9336Z" fill="#0000CC"/>
<path d="M20.0492 17.9349C21.2752 16.2749 22 14.2221 22 12C22 11.3151 21.9311 10.6462 21.8 9.99998H15.4518L20.0492 17.9349Z" fill="#0000CC"/>
<path d="M21.1679 7.99998C20.0354 5.40796 17.8359 3.38883 15.1245 2.49781L11.9279 7.99998H21.1679Z" fill="#0000CC"/>
<path d="M13.068 2.05636C12.7171 2.0191 12.3608 2 12 2C9.42414 2 7.07575 2.97391 5.30297 4.5736L8.44774 10.0088L13.068 2.05636Z" fill="#0000CC"/>
</svg>
