<svg width="24" height="24" viewBox="0 0 24 24" fill="none" xmlns="http://www.w3.org/2000/svg">
<path fill-rule="evenodd" clip-rule="evenodd" d="M7.85256 2.33954C7.87676 2.33963 7.90038 2.33971 7.92336 2.33971H16.0758C16.0988 2.33971 16.1224 2.33963 16.1466 2.33954C16.4059 2.33861 16.732 2.33744 17.0403 2.4376C17.3068 2.52421 17.5522 2.66588 17.7605 2.85342C18.0014 3.0703 18.1634 3.35328 18.2922 3.57831C18.3043 3.59932 18.316 3.61982 18.3275 3.63971L22.4037 10.7C22.4152 10.7199 22.4271 10.7403 22.4393 10.7612C22.5698 10.9853 22.7338 11.2671 22.8012 11.5841C22.8595 11.8583 22.8595 12.1416 22.8012 12.4158C22.7338 12.7328 22.5698 13.0146 22.4393 13.2387C22.4271 13.2597 22.4152 13.2801 22.4037 13.3L18.3275 20.3602C18.316 20.3801 18.3043 20.4006 18.2923 20.4216C18.1634 20.6466 18.0014 20.9296 17.7605 21.1465C17.5522 21.3341 17.3068 21.4757 17.0403 21.5623C16.732 21.6625 16.4059 21.6613 16.1466 21.6604C16.1224 21.6603 16.0988 21.6602 16.0758 21.6602H7.92336C7.90039 21.6602 7.87677 21.6603 7.85256 21.6604C7.59325 21.6613 7.26717 21.6625 6.95891 21.5623C6.69235 21.4757 6.44697 21.3341 6.23869 21.1465C5.99782 20.9296 5.83579 20.6467 5.70694 20.4216C5.69492 20.4006 5.68318 20.3801 5.67169 20.3602L1.59545 13.3C1.58396 13.2801 1.57208 13.2597 1.5599 13.2387C1.42944 13.0146 1.26539 12.7328 1.198 12.4158C1.13973 12.1416 1.13973 11.8583 1.198 11.5841C1.26539 11.2671 1.42944 10.9853 1.5599 10.7612C1.57208 10.7403 1.58397 10.7199 1.59545 10.7L5.67169 3.63971C5.68318 3.61982 5.69491 3.59932 5.70694 3.57831C5.83579 3.35328 5.99782 3.0703 6.23869 2.85342C6.44697 2.66588 6.69235 2.52421 6.95891 2.4376C7.26716 2.33744 7.59325 2.33861 7.85256 2.33954ZM7.57966 4.34442L7.57657 4.34908C7.53989 4.40471 7.49362 4.48404 7.40374 4.63971L3.3275 11.7C3.23763 11.8556 3.19206 11.9354 3.16222 11.995L3.15973 12L3.16222 12.005C3.19206 12.0646 3.23763 12.1443 3.3275 12.3L4.51641 14.3592L5.33703 13.5362C5.71036 13.1618 6.03236 12.8388 6.31929 12.5945C6.62207 12.3368 6.95109 12.1082 7.35587 11.9764C7.95958 11.78 8.61007 11.7801 9.21372 11.9768C9.61845 12.1087 9.94739 12.3374 10.2501 12.5952C10.5369 12.8396 10.8588 13.1627 11.232 13.5373L12.2411 14.55C12.49 14.3053 12.7149 14.091 12.9215 13.9169C13.2269 13.6597 13.5586 13.4319 13.9659 13.3024C14.573 13.1092 15.226 13.1144 15.83 13.3172C16.2351 13.4533 16.5631 13.6863 16.8643 13.9484C17.1499 14.1968 17.4699 14.5249 17.841 14.9053L17.868 14.933L18.6783 15.7526L20.6717 12.3C20.7616 12.1443 20.8071 12.0646 20.837 12.005L20.8395 12L20.837 11.995C20.8071 11.9354 20.7616 11.8556 20.6717 11.7L16.5955 4.63971C16.5056 4.48404 16.4593 4.40471 16.4226 4.34908L16.4195 4.34442L16.4139 4.34407C16.3474 4.34012 16.2556 4.33971 16.0758 4.33971H7.92336C7.74361 4.33971 7.65176 4.34012 7.58525 4.34407L7.57966 4.34442ZM12.9996 8.49997C12.9996 7.67154 13.6712 6.99997 14.4996 6.99997C15.328 6.99997 15.9996 7.67154 15.9996 8.49997C15.9996 9.3284 15.328 9.99997 14.4996 9.99997C13.6712 9.99997 12.9996 9.32839 12.9996 8.49997Z" fill="#0000CC"/>
</svg>
