<svg width="24" height="24" viewBox="0 0 24 24" fill="none" xmlns="http://www.w3.org/2000/svg">
<path d="M15.2929 2.29289C15.6834 1.90237 16.3166 1.90237 16.7071 2.29289L18.5 4.08579L20.2929 2.29289C20.6834 1.90237 21.3166 1.90237 21.7071 2.29289C22.0976 2.68342 22.0976 3.31658 21.7071 3.70711L19.9142 5.5L21.7071 7.29289C22.0976 7.68342 22.0976 8.31658 21.7071 8.70711C21.3166 9.09763 20.6834 9.09763 20.2929 8.70711L18.5 6.91421L16.7071 8.70711C16.3166 9.09763 15.6834 9.09763 15.2929 8.70711C14.9024 8.31658 14.9024 7.68342 15.2929 7.29289L17.0858 5.5L15.2929 3.70711C14.9024 3.31658 14.9024 2.68342 15.2929 2.29289Z" fill="#0000CC"/>
<path d="M13 3C13 3.71583 13.2546 4.43166 13.7638 5H6.6C6.03995 5 5.75992 5 5.54601 5.10899C5.35785 5.20487 5.20487 5.35785 5.10899 5.54601C5 5.75992 5 6.03995 5 6.6V15.9308C6.10291 14.8415 8.32383 12.645 8.32383 12.645C8.62474 12.3806 8.95274 12.1452 9.35866 12.0072C9.96365 11.8016 10.6185 11.7945 11.2278 11.987C11.6366 12.1162 11.9696 12.3444 12.2762 12.6022C12.5669 12.8467 12.8935 13.1706 13.2724 13.5464L14.2645 14.5302C14.5059 14.2937 14.7246 14.0861 14.9261 13.9167C15.2329 13.6587 15.5663 13.4302 15.9756 13.3011C16.5855 13.1087 17.2409 13.1162 17.8463 13.3226C18.2875 13.473 18.6612 13.7562 19 14.0694V10.2362C19.5683 10.7454 20.2842 11 21 11V16.2C21 17.8802 21 18.7202 20.673 19.362C20.3854 19.9265 19.9265 20.3854 19.362 20.673C18.7202 21 17.8802 21 16.2 21H7.8C6.11984 21 5.27976 21 4.63803 20.673C4.07354 20.3854 3.6146 19.9265 3.32698 19.362C3 18.7202 3 17.8802 3 16.2V7.8C3 6.11984 3 5.27976 3.32698 4.63803C3.6146 4.07354 4.07354 3.6146 4.63803 3.32698C5.27976 3 6.11984 3 7.8 3H13Z" fill="#0000CC"/>
</svg>
