<svg width="24" height="24" viewBox="0 0 24 24" fill="none" xmlns="http://www.w3.org/2000/svg">
<path d="M17.5 9C17.5 10.3809 16.3806 11.5 15 11.5C13.6194 11.5 12.5 10.3809 12.5 9C12.5 7.61914 13.6194 6.5 15 6.5C16.3806 6.5 17.5 7.61914 17.5 9Z" fill="#0000CC"/>
<path fill-rule="evenodd" clip-rule="evenodd" d="M3.32698 4.63803C3 5.27976 3 6.11984 3 7.8V16.2C3 17.8802 3 18.7202 3.32698 19.362C3.6146 19.9265 4.07354 20.3854 4.63803 20.673C5.27976 21 6.11984 21 7.8 21H16.2C17.8802 21 18.7202 21 19.362 20.673C19.9265 20.3854 20.3854 19.9265 20.673 19.362C21 18.7202 21 17.8802 21 16.2V7.8C21 6.11984 21 5.27976 20.673 4.63803C20.3854 4.07354 19.9265 3.6146 19.362 3.32698C18.7202 3 17.8802 3 16.2 3H7.8C6.11984 3 5.27976 3 4.63803 3.32698C4.07354 3.6146 3.6146 4.07354 3.32698 4.63803ZM5.10899 5.54601C5 5.75992 5 6.03995 5 6.6V15.9308C6.10291 14.8415 8.32383 12.645 8.32383 12.645C8.62474 12.3806 8.95274 12.1452 9.35866 12.0072C9.96365 11.8016 10.6185 11.7945 11.2278 11.987C11.6366 12.1162 11.9696 12.3444 12.2762 12.6022C12.5669 12.8467 12.8935 13.1706 13.2724 13.5464L14.2645 14.5302C14.5059 14.2937 14.7246 14.0861 14.9261 13.9167C15.2329 13.6587 15.5663 13.4302 15.9756 13.3011C16.5855 13.1087 17.2409 13.1162 17.8463 13.3226C18.2524 13.4611 18.5805 13.6971 18.8813 13.9622C18.9202 13.9965 18.9598 14.0322 19 14.0694V6.6C19 6.03995 19 5.75992 18.891 5.54601C18.7951 5.35785 18.6422 5.20487 18.454 5.10899C18.2401 5 17.9601 5 17.4 5H6.6C6.03995 5 5.75992 5 5.54601 5.10899C5.35785 5.20487 5.20487 5.35785 5.10899 5.54601Z" fill="#0000CC"/>
</svg>
