<svg width="24" height="24" viewBox="0 0 24 24" fill="none" xmlns="http://www.w3.org/2000/svg">
<path d="M19 3C19 2.44772 18.5523 2 18 2C17.4477 2 17 2.44772 17 3V5H15C14.4477 5 14 5.44772 14 6C14 6.55228 14.4477 7 15 7H17V9C17 9.55228 17.4477 10 18 10C18.5523 10 19 9.55228 19 9V7H21C21.5523 7 22 6.55228 22 6C22 5.44772 21.5523 5 21 5H19V3Z" fill="#0000CC"/>
<path d="M14.9773 3C13.6809 3.00961 12.5801 3.84148 12.1707 4.99992L6.6 5C6.03995 5 5.75992 5 5.54601 5.10899C5.35785 5.20487 5.20487 5.35785 5.10899 5.54601C5 5.75992 5 6.03995 5 6.6V15.9308C6.10291 14.8415 8.32383 12.645 8.32383 12.645C8.62474 12.3806 8.95274 12.1452 9.35866 12.0072C9.96365 11.8016 10.6185 11.7945 11.2278 11.987C11.6366 12.1162 11.9696 12.3444 12.2762 12.6022C12.5669 12.8467 12.8935 13.1706 13.2724 13.5464L14.2645 14.5302C14.5059 14.2937 14.7246 14.0861 14.9261 13.9167C15.2329 13.6587 15.5663 13.4302 15.9756 13.3011C16.5855 13.1087 17.2409 13.1162 17.8463 13.3226C18.2524 13.4611 18.5805 13.6971 18.8813 13.9622C18.9202 13.9965 18.9598 14.0322 19 14.0694V11.8292C20.1584 11.4197 20.9903 10.319 20.9999 9.02261L21 16.2C21 17.8802 21 18.7202 20.673 19.362C20.3854 19.9265 19.9265 20.3854 19.362 20.673C18.7202 21 17.8802 21 16.2 21H7.8C6.11984 21 5.27976 21 4.63803 20.673C4.07354 20.3854 3.6146 19.9265 3.32698 19.362C3 18.7202 3 17.8802 3 16.2V7.8C3 6.11984 3 5.27976 3.32698 4.63803C3.6146 4.07354 4.07354 3.6146 4.63803 3.32698C5.27976 3 6.11984 3 7.8 3H14.9773Z" fill="#0000CC"/>
</svg>
