<svg width="24" height="24" viewBox="0 0 24 24" fill="none" xmlns="http://www.w3.org/2000/svg">
<path fill-rule="evenodd" clip-rule="evenodd" d="M2.32698 4.63803C2 5.27976 2 6.11984 2 7.8V16.2C2 17.8802 2 18.7202 2.32698 19.362C2.6146 19.9265 3.07354 20.3854 3.63803 20.673C4.27976 21 5.11984 21 6.8 21H17.2C18.8802 21 19.7202 21 20.362 20.673C20.9265 20.3854 21.3854 19.9265 21.673 19.362C22 18.7202 22 17.8802 22 16.2V7.8C22 6.11984 22 5.27976 21.673 4.63803C21.3854 4.07354 20.9265 3.6146 20.362 3.32698C19.7202 3 18.8802 3 17.2 3H6.8C5.11984 3 4.27976 3 3.63803 3.32698C3.07354 3.6146 2.6146 4.07354 2.32698 4.63803ZM10 9C10 7.89543 10.8954 7 12 7C13.1046 7 14 7.89543 14 9C14 10.1046 13.1046 11 12 11C10.8954 11 10 10.1046 10 9ZM12 12C10.017 12 8.37281 13.442 8.05529 15.3345C8.00663 15.6246 8.08814 15.9214 8.27815 16.146C8.46815 16.3705 8.74737 16.5 9.04151 16.5H14.9586C15.2527 16.5 15.5319 16.3705 15.7219 16.146C15.9119 15.9214 15.9934 15.6246 15.9448 15.3345C15.6273 13.442 13.983 12 12 12Z" fill="#0000CC"/>
</svg>
