<svg width="24" height="24" viewBox="0 0 24 24" fill="none" xmlns="http://www.w3.org/2000/svg">
<path d="M3 7.8C3 6.11984 3 5.27976 3.32698 4.63803C3.6146 4.07354 4.07354 3.6146 4.63803 3.32698C5.27976 3 6.11984 3 7.8 3H15C13.6938 3 12.5825 3.83481 12.1707 5H6.6C6.03995 5 5.75992 5 5.54601 5.10899C5.35785 5.20487 5.20487 5.35785 5.10899 5.54601C5 5.75992 5 6.03995 5 6.6V15.9308C6.09831 14.846 8.32383 12.645 8.32383 12.645C8.62474 12.3806 8.95274 12.1452 9.35866 12.0072C9.96365 11.8016 10.6185 11.7945 11.2278 11.987C11.6366 12.1162 11.9696 12.3444 12.2762 12.6022C12.5669 12.8467 12.8935 13.1706 13.2724 13.5464L14.2645 14.5302C14.5059 14.2937 14.7246 14.0861 14.9261 13.9167C15.2329 13.6587 15.5663 13.4302 15.9756 13.3011C16.5855 13.1087 17.2409 13.1162 17.8463 13.3226C18.2524 13.4611 18.5805 13.6971 18.8813 13.9622C18.9202 13.9965 18.9598 14.0322 19 14.0694V9H21V16.2C21 17.8802 21 18.7202 20.673 19.362C20.3854 19.9265 19.9265 20.3854 19.362 20.673C18.7202 21 17.8802 21 16.2 21H7.8C6.11984 21 5.27976 21 4.63803 20.673C4.07354 20.3854 3.6146 19.9265 3.32698 19.362C3 18.7202 3 17.8802 3 16.2V7.8Z" fill="#0000CC"/>
<path d="M14.9991 5.00049C14.4469 5.00049 13.9991 5.4482 13.9991 6.00049C13.9991 6.55277 14.4469 7.00049 14.9991 7.00049H20.9991C21.5514 7.00049 21.9991 6.55277 21.9991 6.00049C21.9991 5.4482 21.5514 5.00049 20.9991 5.00049H14.9991Z" fill="#0000CC"/>
</svg>
