<svg width="24" height="24" viewBox="0 0 24 24" fill="none" xmlns="http://www.w3.org/2000/svg">
<path d="M15 11.5C16.3807 11.5 17.5 10.3807 17.5 9C17.5 7.61929 16.3807 6.5 15 6.5C13.6193 6.5 12.5 7.61929 12.5 9C12.5 10.3807 13.6193 11.5 15 11.5Z" fill="#0000CC"/>
<path fill-rule="evenodd" clip-rule="evenodd" d="M22 12C22 15.4384 20.2647 18.4714 17.6221 20.2712L17.6081 20.2808L17.5936 20.2905C15.9971 21.3698 14.0721 22 12 22C6.47715 22 2 17.5228 2 12C2 6.47715 6.47715 2 12 2C17.5228 2 22 6.47715 22 12ZM4 12C4 7.58172 7.58172 4 12 4C16.4183 4 20 7.58172 20 12C20 13.2733 19.7025 14.4771 19.1733 15.5458L18.9374 15.3404L18.9188 15.3235C18.5614 14.9979 18.2513 14.7156 17.976 14.5017C17.6841 14.2749 17.3705 14.0756 16.9912 13.9601C16.4217 13.7868 15.8135 13.7868 15.244 13.9601C14.8647 14.0756 14.5512 14.2749 14.2593 14.5017C14.0727 14.6467 13.8701 14.8231 13.6477 15.0231L12.7423 14.1984C12.3849 13.8729 12.0749 13.5906 11.7996 13.3767C11.5076 13.1499 11.1941 12.9506 10.8148 12.8351C10.2453 12.6618 9.63708 12.6618 9.06758 12.8351C8.68828 12.9506 8.37474 13.1499 8.08279 13.3767C7.80748 13.5906 7.4975 13.8729 7.14009 14.1984L7.11531 14.221L7.11319 14.2229L5.09803 16.0476C4.40019 14.8602 4 13.4769 4 12Z" fill="#0000CC"/>
</svg>
