<svg width="24" height="24" viewBox="0 0 24 24" fill="none" xmlns="http://www.w3.org/2000/svg">
<path d="M12 11C13.1046 11 14 10.1046 14 9C14 7.89543 13.1046 7 12 7C10.8954 7 10 7.89543 10 9C10 10.1046 10.8954 11 12 11Z" fill="#0000CC"/>
<path fill-rule="evenodd" clip-rule="evenodd" d="M16.8385 3H7.16146C6.63433 2.99998 6.17954 2.99997 5.80497 3.03057C5.40963 3.06287 5.01641 3.13419 4.63803 3.32698C4.07354 3.6146 3.6146 4.07354 3.32698 4.63803C3.13419 5.01641 3.06287 5.40963 3.03057 5.80497C2.99997 6.17954 2.99998 6.63429 3 7.16142V16.8385C2.99998 17.3657 2.99997 17.8205 3.03057 18.195C3.06287 18.5904 3.13419 18.9836 3.32698 19.362C3.6146 19.9265 4.07354 20.3854 4.63803 20.673C5.01641 20.8658 5.40963 20.9371 5.80497 20.9694C6.17954 21 6.6343 21 7.16144 21H16.8386C17.3657 21 17.8205 21 18.195 20.9694C18.5904 20.9371 18.9836 20.8658 19.362 20.673C19.9265 20.3854 20.3854 19.9265 20.673 19.362C20.8658 18.9836 20.9371 18.5904 20.9694 18.195C21 17.8205 21 17.3657 21 16.8386V7.16144C21 6.6343 21 6.17954 20.9694 5.80497C20.9371 5.40963 20.8658 5.01641 20.673 4.63803C20.3854 4.07354 19.9265 3.6146 19.362 3.32698C18.9836 3.13419 18.5904 3.06287 18.195 3.03057C17.8205 2.99997 17.3657 2.99998 16.8385 3ZM5.54601 5.109C5.59546 5.0838 5.69618 5.04613 5.96784 5.02393C6.25118 5.00078 6.62345 5 7.2 5H16.8C17.3766 5 17.7488 5.00078 18.0322 5.02393C18.3038 5.04613 18.4045 5.0838 18.454 5.109C18.6422 5.20487 18.7951 5.35785 18.891 5.54601C18.9162 5.59546 18.9539 5.69618 18.9761 5.96784C18.9992 6.25118 19 6.62345 19 7.2V15H16.5839C15.8124 13.2341 14.0503 12 12 12C9.94965 12 8.18757 13.2341 7.41602 15H5V7.2C5 6.62345 5.00078 6.25118 5.02393 5.96784C5.04613 5.69618 5.0838 5.59546 5.109 5.54601C5.20487 5.35785 5.35785 5.20487 5.54601 5.109Z" fill="#0000CC"/>
</svg>
