<svg width="24" height="24" viewBox="0 0 24 24" fill="none" xmlns="http://www.w3.org/2000/svg">
<path fill-rule="evenodd" clip-rule="evenodd" d="M15.0008 6C15.0008 4.34315 16.344 3 18.0008 3C19.6577 3 21.0008 4.34315 21.0008 6C21.0008 7.65685 19.6577 9 18.0008 9C16.344 9 15.0008 7.65685 15.0008 6ZM8.4148 8.95141C8.89836 8.74084 9.44552 8.72979 9.93718 8.92069C10.3084 9.06483 10.5666 9.32278 10.7541 9.54307C10.9399 9.76133 11.1415 10.0486 11.359 10.3568L13.4193 13.2755C13.5584 13.0901 13.6903 12.9223 13.8168 12.7737C14.1571 12.374 14.5468 12.0041 15.064 11.8058C15.8081 11.5204 16.6352 11.5429 17.3627 11.8682C17.8684 12.0943 18.2375 12.4849 18.5556 12.9024C18.8661 13.31 19.2065 13.8525 19.6122 14.4991L20.6032 16.0785C20.6768 16.1959 20.7771 16.3496 20.8489 16.5232C20.9061 16.6614 20.9476 16.8056 20.9726 16.9531C21.004 17.1383 21.0008 17.3218 21.0008 17.4604L21.0008 20C21.0008 20.5523 20.5531 21 20.0008 21C14.6672 21 9.3336 21 4 21C3.73474 21 3.48034 20.8946 3.2928 20.707C3.10525 20.5194 2.99993 20.265 3 19.9997L3.00068 17.472C3.00072 17.3299 2.99737 17.1418 3.0304 16.9522C3.0567 16.8012 3.10027 16.6538 3.16024 16.5127C3.23556 16.3356 3.34061 16.1795 3.4178 16.0602L7.07358 10.4104C7.27028 10.1064 7.453 9.8239 7.62361 9.60625C7.80209 9.37857 8.04966 9.11042 8.4148 8.95141Z" fill="#0000CC"/>
</svg>
