<svg width="24" height="24" viewBox="0 0 24 24" fill="none" xmlns="http://www.w3.org/2000/svg">
<path fill-rule="evenodd" clip-rule="evenodd" d="M9 2C7.89543 2 7 2.89543 7 4C7 5.03824 7.79112 5.8917 8.80342 5.99046L9.947 9.04C9.01435 9.76009 8.34313 10.8023 8.10002 12H5.73244C5.38663 11.4022 4.74028 11 4 11C2.89543 11 2 11.8954 2 13C2 14.1046 2.89543 15 4 15C4.74028 15 5.38663 14.5978 5.73244 14H8.10002C8.56329 16.2822 10.581 18 13 18C14.0191 18 14.967 17.6951 15.7574 17.1716L18.0677 19.482C18.0236 19.6472 18 19.8208 18 20C18 21.1046 18.8954 22 20 22C21.1046 22 22 21.1046 22 20C22 18.8954 21.1046 18 20 18C19.8208 18 19.6472 18.0236 19.482 18.0677L17.1716 15.7574C17.6951 14.967 18 14.0191 18 13C18 11.9809 17.6951 11.033 17.1716 10.2426L19.482 7.93226C19.6472 7.97644 19.8208 8 20 8C21.1046 8 22 7.10457 22 6C22 4.89543 21.1046 4 20 4C18.8954 4 18 4.89543 18 6C18 6.17916 18.0236 6.35282 18.0677 6.51804L15.7574 8.8284C14.967 8.30488 14.0191 8 13 8C12.5691 8 12.1508 8.05452 11.7519 8.15704L10.6285 5.16131C10.8624 4.83392 11 4.43303 11 4C11 2.89543 10.1046 2 9 2ZM13 15C14.1046 15 15 14.1046 15 13C15 11.8954 14.1046 11 13 11C11.8954 11 11 11.8954 11 13C11 14.1046 11.8954 15 13 15Z" fill="#0000CC"/>
</svg>
