<svg width="24" height="24" viewBox="0 0 24 24" fill="none" xmlns="http://www.w3.org/2000/svg">
<path fill-rule="evenodd" clip-rule="evenodd" d="M14 4C14 3.44772 13.5523 3 13 3C12.4477 3 12 3.44772 12 4L4.56811 4C4.31573 3.99997 4.06993 3.99994 3.86178 4.01695C3.63318 4.03562 3.36345 4.07969 3.09202 4.21799C2.7157 4.40973 2.40974 4.7157 2.21799 5.09202C2.07969 5.36344 2.03563 5.63318 2.01695 5.86177C1.99994 6.06992 1.99997 6.31571 2 6.56809L2 8.4319C1.99997 8.68428 1.99994 8.93008 2.01695 9.13823C2.03563 9.36682 2.07969 9.63656 2.21799 9.90798C2.40974 10.2843 2.7157 10.5903 3.09202 10.782C3.36345 10.9203 3.63318 10.9644 3.86178 10.9831C4.06992 11.0001 4.3157 11 4.56807 11L12 11C12 11.5523 12.4477 12 13 12C13.5523 12 14 11.5523 14 11L19.4319 11C19.6843 11 19.9301 11.0001 20.1382 10.9831C20.3668 10.9644 20.6366 10.9203 20.908 10.782C21.2843 10.5903 21.5903 10.2843 21.782 9.90798C21.9203 9.63656 21.9644 9.36682 21.9831 9.13823C22.0001 8.93011 22 8.68437 22 8.43203V6.56808C22 6.31575 22.0001 6.06989 21.9831 5.86177C21.9644 5.63318 21.9203 5.36344 21.782 5.09202C21.5903 4.7157 21.2843 4.40973 20.908 4.21799C20.6366 4.07969 20.3668 4.03562 20.1382 4.01695C19.9301 3.99994 19.6843 3.99997 19.4319 4L14 4ZM9 6H12V9H9V6ZM14 6H20V9H14V6Z" fill="#0000CC"/>
<path fill-rule="evenodd" clip-rule="evenodd" d="M17 13C17 12.4477 16.5523 12 16 12C15.4477 12 15 12.4477 15 13L4.56812 13C4.31574 13 4.06994 12.9999 3.86178 13.0169C3.63318 13.0356 3.36345 13.0797 3.09202 13.218C2.7157 13.4097 2.40974 13.7157 2.21799 14.092C2.07969 14.3634 2.03563 14.6332 2.01695 14.8618C1.99994 15.0699 1.99997 15.3157 2 15.5681L2 17.4319C1.99997 17.6843 1.99994 17.9301 2.01695 18.1382C2.03563 18.3668 2.07969 18.6366 2.21799 18.908C2.40974 19.2843 2.7157 19.5903 3.09202 19.782C3.36345 19.9203 3.63318 19.9644 3.86178 19.9831C4.0699 20.0001 4.31564 20 4.56797 20L15 20C15 20.5523 15.4477 21 16 21C16.5523 21 17 20.5523 17 20L19.4319 20C19.6843 20 19.9301 20.0001 20.1382 19.9831C20.3668 19.9644 20.6366 19.9203 20.908 19.782C21.2843 19.5903 21.5903 19.2843 21.782 18.908C21.9203 18.6366 21.9644 18.3668 21.9831 18.1382C22.0001 17.9301 22 17.6844 22 17.432V15.5681C22 15.3157 22.0001 15.0699 21.9831 14.8618C21.9644 14.6332 21.9203 14.3634 21.782 14.092C21.5903 13.7157 21.2843 13.4097 20.908 13.218C20.6366 13.0797 20.3668 13.0356 20.1382 13.0169C19.9301 12.9999 19.6843 13 19.4319 13L17 13ZM12 15H15V18H12V15ZM17 15H20V18H17V15Z" fill="#0000CC"/>
</svg>
