<svg width="24" height="24" viewBox="0 0 24 24" fill="none" xmlns="http://www.w3.org/2000/svg">
<path fill-rule="evenodd" clip-rule="evenodd" d="M4.56811 2C7.52271 2.00037 10.4773 2 13.4319 2C13.6843 1.99997 13.9301 1.99994 14.1382 2.01695C14.3668 2.03563 14.6366 2.07969 14.908 2.21799C15.2843 2.40974 15.5903 2.7157 15.782 3.09202C15.9203 3.36345 15.9644 3.63318 15.9831 3.86178C16.0001 4.06994 16 4.31574 16 4.56812V5.43189C16 5.68428 16.0001 5.93007 15.9831 6.13824C15.9644 6.36683 15.9203 6.63656 15.782 6.90799C15.5903 7.28431 15.2843 7.59027 14.908 7.78202C14.6366 7.92032 14.3668 7.96438 14.1382 7.98306C13.9301 8.00007 13.6843 8.00004 13.4319 8.00001C10.4773 8.00001 7.52271 7.99961 4.56811 8.00001C4.31573 8.00004 4.06993 8.00007 3.86178 7.98306C3.63318 7.96438 3.36345 7.92032 3.09202 7.78202C2.7157 7.59027 2.40974 7.28431 2.21799 6.90799C2.07969 6.63656 2.03563 6.36683 2.01695 6.13824C1.99994 5.93008 1.99997 5.68429 2 5.4319C2.00004 5.14453 2.00004 4.85605 2 4.56811C1.99997 4.31572 1.99994 4.06993 2.01695 3.86178C2.03563 3.63318 2.07969 3.36345 2.21799 3.09202C2.40974 2.7157 2.7157 2.40974 3.09202 2.21799C3.36345 2.07969 3.63318 2.03563 3.86178 2.01695C4.06993 1.99994 4.31572 1.99997 4.56811 2ZM4.56811 9C9.52271 9.00067 14.4773 9 19.4319 9C19.6843 8.99997 19.9301 8.99994 20.1382 9.01695C20.3668 9.03563 20.6366 9.07969 20.908 9.21799C21.2843 9.40974 21.5903 9.7157 21.782 10.092C21.9203 10.3634 21.9644 10.6332 21.9831 10.8618C22.0001 11.0699 22 11.3157 22 11.5681V12.4319C22 12.6843 22.0001 12.9301 21.9831 13.1382C21.9644 13.3668 21.9203 13.6366 21.782 13.908C21.5903 14.2843 21.2843 14.5903 20.908 14.782C20.6366 14.9203 20.3668 14.9644 20.1382 14.9831C19.9301 15.0001 19.6843 15 19.4319 15H4.56812C4.31574 15 4.06994 15.0001 3.86178 14.9831C3.63318 14.9644 3.36345 14.9203 3.09202 14.782C2.7157 14.5903 2.40974 14.2843 2.21799 13.908C2.07969 13.6366 2.03563 13.3668 2.01695 13.1382C1.99994 12.9301 1.99997 12.6843 2 12.4319V11.5681C1.99997 11.3157 1.99994 11.0699 2.01695 10.8618C2.03563 10.6332 2.07969 10.3634 2.21799 10.092C2.40974 9.7157 2.7157 9.40974 3.09202 9.21799C3.36345 9.07969 3.63318 9.03563 3.86178 9.01695C4.06993 8.99994 4.31572 8.99997 4.56811 9ZM4.56812 16H9.43189C9.68428 16 9.93007 15.9999 10.1382 16.0169C10.3668 16.0356 10.6366 16.0797 10.908 16.218C11.2843 16.4097 11.5903 16.7157 11.782 17.092C11.9203 17.3634 11.9644 17.6332 11.9831 17.8618C12.0001 18.0699 12 18.3157 12 18.5681V19.4319C12 19.6843 12.0001 19.9301 11.9831 20.1382C11.9644 20.3668 11.9203 20.6366 11.782 20.908C11.5903 21.2843 11.2843 21.5903 10.908 21.782C10.6366 21.9203 10.3668 21.9644 10.1382 21.9831C9.93008 22.0001 9.6843 22 9.43192 22H4.56809C4.31571 22 4.06993 22.0001 3.86178 21.9831C3.63318 21.9644 3.36345 21.9203 3.09202 21.782C2.7157 21.5903 2.40974 21.2843 2.21799 20.908C2.07969 20.6366 2.03563 20.3668 2.01695 20.1382C1.99994 19.9301 1.99997 19.6843 2 19.4319V18.5681C1.99997 18.3157 1.99994 18.0699 2.01695 17.8618C2.03563 17.6332 2.07969 17.3634 2.21799 17.092C2.40974 16.7157 2.7157 16.4097 3.09202 16.218C3.36345 16.0797 3.63318 16.0356 3.86178 16.0169C4.06994 15.9999 4.31574 16 4.56812 16Z" fill="#0000CC"/>
</svg>
