<svg width="24" height="24" viewBox="0 0 24 24" fill="none" xmlns="http://www.w3.org/2000/svg">
<path fill-rule="evenodd" clip-rule="evenodd" d="M3 2C3.55229 2 4 2.44772 4 3V16.2C4 17.0566 4.00078 17.6389 4.03755 18.089C4.07337 18.5274 4.1383 18.7516 4.21799 18.908C4.40973 19.2843 4.7157 19.5903 5.09202 19.782C5.24842 19.8617 5.47262 19.9266 5.91104 19.9624C6.36113 19.9992 6.94342 20 7.8 20H21C21.5523 20 22 20.4477 22 21C22 21.5523 21.5523 22 21 22H7.75868C6.95372 22 6.28936 22 5.74817 21.9558C5.18608 21.9099 4.66937 21.8113 4.18404 21.564C3.43139 21.1805 2.81947 20.5686 2.43598 19.816C2.18868 19.3306 2.09012 18.8139 2.04419 18.2518C1.99998 17.7106 1.99999 17.0463 2 16.2413L2 3C2 2.44772 2.44772 2 3 2ZM10.9967 6.57686C11.4156 6.43386 11.8701 6.43386 12.289 6.57686C12.5934 6.68076 12.8225 6.85745 13.0005 7.0195C13.1637 7.16811 13.3414 7.35956 13.5254 7.5577L15.1614 9.31955C15.2631 9.42915 15.321 9.49087 15.3571 9.52637C15.3933 9.49086 15.4511 9.42915 15.5529 9.31955C15.5658 9.30567 15.579 9.29139 15.5925 9.2768C15.7285 9.12951 15.8941 8.95027 16.0806 8.82199C16.7634 8.35215 17.6652 8.35215 18.348 8.82199C18.5344 8.95027 18.7 9.12952 18.8361 9.2768C18.8496 9.29139 18.8628 9.30567 18.8757 9.31955L20.3053 10.8591C20.316 10.8707 20.327 10.8825 20.3383 10.8946C20.4614 11.0265 20.6165 11.1926 20.7318 11.3922C20.8318 11.5654 20.9053 11.7525 20.9498 11.9474C21.0011 12.1721 21.0005 12.3994 21.0001 12.5799C21 12.5964 21 12.6126 21 12.6283L21 15.4319C21 15.6843 21.0001 15.9301 20.9831 16.1382C20.9644 16.3668 20.9203 16.6366 20.782 16.908C20.5903 17.2843 20.2843 17.5903 19.908 17.782C19.6366 17.9203 19.3668 17.9644 19.1382 17.9831C18.9301 18.0001 18.6843 18 18.4319 18H8.56812C8.31573 18 8.06993 18.0001 7.86177 17.9831C7.63318 17.9644 7.36344 17.9203 7.09202 17.782C6.7157 17.5903 6.40974 17.2843 6.21799 16.908C6.07969 16.6366 6.03562 16.3668 6.01695 16.1382C5.99994 15.9301 5.99997 15.6843 6 15.4319L6 12.6283C6 12.6126 5.99996 12.5964 5.99992 12.5799C5.99946 12.3994 5.99888 12.1721 6.0502 11.9474C6.09471 11.7525 6.1682 11.5654 6.26822 11.3922C6.38351 11.1926 6.53859 11.0265 6.66173 10.8946C6.67302 10.8825 6.68404 10.8706 6.69474 10.8591L9.76035 7.5577C9.9443 7.35956 10.122 7.16811 10.2853 7.0195C10.4632 6.85745 10.6924 6.68076 10.9967 6.57686Z" fill="#0000CC"/>
</svg>
