<svg width="24" height="24" viewBox="0 0 24 24" fill="none" xmlns="http://www.w3.org/2000/svg">
<path d="M2 6C2 5.07003 2 4.60504 2.10222 4.22354C2.37962 3.18827 3.18827 2.37962 4.22354 2.10222C4.60504 2 5.07003 2 6 2H18C18.93 2 19.395 2 19.7765 2.10222C20.8117 2.37962 21.6204 3.18827 21.8978 4.22354C22 4.60504 22 5.07003 22 6C22 6.92997 22 7.39496 21.8978 7.77646C21.6204 8.81173 20.8117 9.62038 19.7765 9.89778C19.395 10 18.93 10 18 10H13V14.5858L13.2929 14.2929C13.6834 13.9024 14.3166 13.9024 14.7071 14.2929C15.0976 14.6834 15.0976 15.3166 14.7071 15.7071L12.7071 17.7071C12.3166 18.0976 11.6834 18.0976 11.2929 17.7071L9.29289 15.7071C8.90237 15.3166 8.90237 14.6834 9.29289 14.2929C9.68342 13.9024 10.3166 13.9024 10.7071 14.2929L11 14.5858V10H6C5.07003 10 4.60504 10 4.22354 9.89778C3.18827 9.62038 2.37962 8.81173 2.10222 7.77646C2 7.39496 2 6.92997 2 6Z" fill="#0000CC"/>
<path d="M6 14H7.17083C6.79865 15.0553 7.0346 16.2772 7.87868 17.1213L9.87868 19.1213C11.0503 20.2929 12.9497 20.2929 14.1213 19.1213L16.1213 17.1213C16.9654 16.2772 17.2013 15.0553 16.8292 14H18C18.93 14 19.395 14 19.7765 14.1022C20.8117 14.3796 21.6204 15.1883 21.8978 16.2235C22 16.605 22 17.07 22 18C22 18.93 22 19.395 21.8978 19.7765C21.6204 20.8117 20.8117 21.6204 19.7765 21.8978C19.395 22 18.93 22 18 22H6C5.07003 22 4.60504 22 4.22354 21.8978C3.18827 21.6204 2.37962 20.8117 2.10222 19.7765C2 19.395 2 18.93 2 18C2 17.07 2 16.605 2.10222 16.2235C2.37962 15.1883 3.18827 14.3796 4.22354 14.1022C4.60504 14 5.07003 14 6 14Z" fill="#0000CC"/>
</svg>
