<svg width="24" height="24" viewBox="0 0 24 24" fill="none" xmlns="http://www.w3.org/2000/svg">
<path fill-rule="evenodd" clip-rule="evenodd" d="M11.1679 3.4453C11.3534 3.1671 11.6656 3 12 3H21C21.5523 3 22 3.44772 22 4C22 4.55228 21.5523 5 21 5H12.5352L8.83205 10.5547C8.64658 10.8329 8.33435 11 8 11H3C2.44772 11 2 10.5523 2 10C2 9.44772 2.44772 9 3 9H7.46482L11.1679 3.4453ZM9.86852 15H21C21.5523 15 22 14.5523 22 14C22 13.4477 21.5523 13 21 13C15 13 9 13 3 13C2.44772 13 2 13.4477 2 14C2 14.5523 2.44772 15 3 15H7.46482L11.1679 20.5547C11.3534 20.8329 11.6656 21 12 21H21C21.5523 21 22 20.5523 22 20C22 19.4477 21.5523 19 21 19H12.5352L9.86852 15Z" fill="#0000CC"/>
</svg>
