<svg width="24" height="24" viewBox="0 0 24 24" fill="none" xmlns="http://www.w3.org/2000/svg">
<path fill-rule="evenodd" clip-rule="evenodd" d="M4.63803 20.673C5.27976 21 6.11984 21 7.8 21H16.2C17.8802 21 18.7202 21 19.362 20.673C19.9265 20.3854 20.3854 19.9265 20.673 19.362C21 18.7202 21 17.8802 21 16.2V7.8C21 6.11984 21 5.27976 20.673 4.63803C20.3854 4.07354 19.9265 3.6146 19.362 3.32698C18.7202 3 17.8802 3 16.2 3H7.8C6.11984 3 5.27976 3 4.63803 3.32698C4.07354 3.6146 3.6146 4.07354 3.32698 4.63803C3 5.27976 3 6.11984 3 7.8L3 16.2C3 17.8802 3 18.7202 3.32698 19.362C3.6146 19.9265 4.07354 20.3854 4.63803 20.673ZM7 17C7 17.5523 7.44772 18 8 18C8.55228 18 9 17.5523 9 17V11C9 10.4477 8.55228 10 8 10C7.44772 10 7 10.4477 7 11L7 17ZM11 17C11 17.5523 11.4477 18 12 18C12.5523 18 13 17.5523 13 17V7C13 6.44771 12.5523 6 12 6C11.4477 6 11 6.44771 11 7V17ZM16 18C15.4477 18 15 17.5523 15 17V14C15 13.4477 15.4477 13 16 13C16.5523 13 17 13.4477 17 14V17C17 17.5523 16.5523 18 16 18Z" fill="#0000CC"/>
</svg>
