<svg width="24" height="24" viewBox="0 0 24 24" fill="none" xmlns="http://www.w3.org/2000/svg">
<path fill-rule="evenodd" clip-rule="evenodd" d="M3.32698 4.63803C3 5.27976 3 6.11984 3 7.8V16.2C3 17.8802 3 18.7202 3.32698 19.362C3.6146 19.9265 4.07354 20.3854 4.63803 20.673C5.27976 21 6.11984 21 7.8 21H16.2C17.8802 21 18.7202 21 19.362 20.673C19.9265 20.3854 20.3854 19.9265 20.673 19.362C21 18.7202 21 17.8802 21 16.2V7.8C21 6.11984 21 5.27976 20.673 4.63803C20.3854 4.07354 19.9265 3.6146 19.362 3.32698C18.7202 3 17.8802 3 16.2 3H7.8C6.11984 3 5.27976 3 4.63803 3.32698C4.07354 3.6146 3.6146 4.07354 3.32698 4.63803ZM7 7C6.44772 7 6 7.44772 6 8C6 8.55228 6.44772 9 7 9H13C13.5523 9 14 8.55228 14 8C14 7.44772 13.5523 7 13 7H7ZM7 11C6.44772 11 6 11.4477 6 12C6 12.5523 6.44772 13 7 13H17C17.5523 13 18 12.5523 18 12C18 11.4477 17.5523 11 17 11H7ZM6 16C6 15.4477 6.44772 15 7 15H10C10.5523 15 11 15.4477 11 16C11 16.5523 10.5523 17 10 17H7C6.44772 17 6 16.5523 6 16Z" fill="#0000CC"/>
</svg>
