<svg width="24" height="24" viewBox="0 0 24 24" fill="none" xmlns="http://www.w3.org/2000/svg">
<path d="M20.2941 15.5C20.7487 14.4241 21 13.2414 21 12C21 7.02944 16.9706 3 12 3C7.02944 3 3 7.02944 3 12C3 16.9706 7.02944 21 12 21C12.6874 21 13.3568 20.9229 14 20.777M12.0004 17C10.3645 17 8.91221 16.2144 8 15M9.30078 10.3H9.30978M14.6914 10.3H14.7004M9.85156 10.35C9.85156 10.6261 9.6277 10.85 9.35156 10.85C9.07542 10.85 8.85156 10.6261 8.85156 10.35C8.85156 10.0738 9.07542 9.84998 9.35156 9.84998C9.6277 9.84998 9.85156 10.0738 9.85156 10.35ZM15.15 10.3C15.15 10.5485 14.9485 10.75 14.7 10.75C14.4515 10.75 14.25 10.5485 14.25 10.3C14.25 10.0514 14.4515 9.84998 14.7 9.84998C14.9485 9.84998 15.15 10.0514 15.15 10.3ZM16.5 14.5L15.59 16.7751C15.5305 16.9237 15.5 17.0822 15.5 17.2422V17.5C15.5 18.0523 15.9477 18.5 16.5 18.5C17.0523 18.5 17.5 18.0523 17.5 17.5V17.2422C17.5 17.0822 17.4695 16.9237 17.41 16.7751L16.5 14.5Z" stroke="#0000CC" stroke-width="2" stroke-linecap="round" stroke-linejoin="round"/>
</svg>
