<svg width="24" height="24" viewBox="0 0 24 24" fill="none" xmlns="http://www.w3.org/2000/svg">
<path d="M7.62861 10.0715C7.11583 10.2766 6.86641 10.8586 7.07152 11.3714C7.27664 11.8842 7.85861 12.1336 8.37139 11.9285L7.62861 10.0715ZM10.8714 10.9285C11.3842 10.7234 11.6336 10.1414 11.4285 9.62861C11.2234 9.11583 10.6414 8.86641 10.1286 9.07152L10.8714 10.9285ZM7.44721 14.6056C6.95323 14.3586 6.35256 14.5588 6.10557 15.0528C5.85858 15.5468 6.05881 16.1474 6.55279 16.3944L7.44721 14.6056ZM8.19669 16.0983L8.6439 15.2039H8.6439L8.19669 16.0983ZM9.83389 16.1664L9.4625 15.238L9.83389 16.1664ZM10.5789 15.8684L10.9503 16.7969L10.5789 15.8684ZM12.3507 16.0104L11.8362 16.8679L11.8362 16.8679L12.3507 16.0104ZM12.7819 16.2691L13.2964 15.4117H13.2964L12.7819 16.2691ZM15.0913 16.0906L15.7315 16.8588V16.8588L15.0913 16.0906ZM17.6402 15.2682C18.0645 14.9147 18.1218 14.2841 17.7682 13.8598C17.4147 13.4355 16.7841 13.3782 16.3598 13.7318L17.6402 15.2682ZM7 7C6.44772 7 6 7.44772 6 8C6 8.55228 6.44772 9 7 9V7ZM10.8321 7.0547C11.1384 6.59517 11.0142 5.9743 10.5547 5.66795C10.0952 5.36159 9.4743 5.48577 9.16795 5.9453L10.8321 7.0547ZM20 12C20 16.4183 16.4183 20 12 20V22C17.5228 22 22 17.5228 22 12H20ZM12 20C7.58172 20 4 16.4183 4 12H2C2 17.5228 6.47715 22 12 22V20ZM4 12C4 7.58172 7.58172 4 12 4V2C6.47715 2 2 6.47715 2 12H4ZM12 4C16.4183 4 20 7.58172 20 12H22C22 6.47715 17.5228 2 12 2V4ZM16 9.5C16 9.85684 15.8903 10.1414 15.7607 10.3142C15.6313 10.4867 15.5289 10.5 15.5 10.5V12.5C16.2995 12.5 16.9471 12.0656 17.3607 11.5142C17.7739 10.9632 18 10.2477 18 9.5H16ZM15.5 10.5C15.4711 10.5 15.3687 10.4867 15.2393 10.3142C15.1097 10.1414 15 9.85684 15 9.5H13C13 10.2477 13.2261 10.9632 13.6393 11.5142C14.0529 12.0656 14.7005 12.5 15.5 12.5V10.5ZM15 9.5C15 9.14316 15.1097 8.8586 15.2393 8.68579C15.3687 8.51328 15.4711 8.5 15.5 8.5V6.5C14.7005 6.5 14.0529 6.93443 13.6393 7.48579C13.2261 8.03683 13 8.75227 13 9.5H15ZM15.5 8.5C15.5289 8.5 15.6313 8.51328 15.7607 8.68579C15.8903 8.8586 16 9.14316 16 9.5H18C18 8.75227 17.7739 8.03683 17.3607 7.48579C16.9471 6.93443 16.2995 6.5 15.5 6.5V8.5ZM8.37139 11.9285L10.8714 10.9285L10.1286 9.07152L7.62861 10.0715L8.37139 11.9285ZM6.55279 16.3944L7.74947 16.9928L8.6439 15.2039L7.44721 14.6056L6.55279 16.3944ZM10.2053 17.0949L10.9503 16.7969L10.2075 14.94L9.4625 15.238L10.2053 17.0949ZM11.8362 16.8679L12.2674 17.1266L13.2964 15.4117L12.8652 15.1529L11.8362 16.8679ZM15.7315 16.8588L17.6402 15.2682L16.3598 13.7318L14.4511 15.3224L15.7315 16.8588ZM12.2674 17.1266C13.3616 17.7831 14.7512 17.6757 15.7315 16.8588L14.4511 15.3224C14.1243 15.5947 13.6611 15.6305 13.2964 15.4117L12.2674 17.1266ZM7.74947 16.9928C8.51592 17.376 9.40966 17.4132 10.2053 17.0949L9.4625 15.238C9.1973 15.344 8.89938 15.3317 8.6439 15.2039L7.74947 16.9928ZM10.9503 16.7969C11.2405 16.6809 11.5682 16.7071 11.8362 16.8679L12.8652 15.1529C12.0612 14.6705 11.078 14.5918 10.2075 14.94L10.9503 16.7969ZM7.19722 7H7V9H7.19722V7ZM9.16795 5.9453C8.72867 6.60422 7.98914 7 7.19722 7V9C8.65785 9 10.0218 8.27001 10.8321 7.0547L9.16795 5.9453Z" fill="#0000CC"/>
</svg>
