<svg width="24" height="24" viewBox="0 0 24 24" fill="none" xmlns="http://www.w3.org/2000/svg">
<path d="M9 15C8.44772 15 8 15.4477 8 16C8 16.5523 8.44772 17 9 17V15ZM15 17C15.5523 17 16 16.5523 16 16C16 15.4477 15.5523 15 15 15V17ZM17.5563 3.68449C17.0973 3.37728 16.4762 3.50029 16.169 3.95924C15.8618 4.4182 15.9848 5.0393 16.4437 5.34651L17.5563 3.68449ZM18.6534 7.55621C18.9607 8.01517 19.5818 8.13818 20.0407 7.83096C20.4997 7.52375 20.6227 6.90265 20.3155 6.44369L18.6534 7.55621ZM19.8476 13.5629C19.7404 14.1047 20.0926 14.6308 20.6344 14.7381C21.1762 14.8453 21.7023 14.493 21.8095 13.9512L19.8476 13.5629ZM21.809 10.0462C21.7017 9.50446 21.1755 9.15232 20.6337 9.25968C20.092 9.36704 19.7398 9.89324 19.8472 10.435L21.809 10.0462ZM20.3155 17.5563C20.6227 17.0973 20.4997 16.4762 20.0407 16.169C19.5818 15.8618 18.9607 15.9848 18.6534 16.4437L20.3155 17.5563ZM16.4437 18.6534C15.9848 18.9607 15.8618 19.5818 16.169 20.0407C16.4762 20.4997 17.0973 20.6227 17.5563 20.3155L16.4437 18.6534ZM13.9513 21.8095C14.4931 21.7023 14.8454 21.1761 14.7382 20.6344C14.6309 20.0926 14.1048 19.7403 13.563 19.8475L13.9513 21.8095ZM10.4364 19.8474C9.89465 19.7401 9.3685 20.0924 9.26123 20.6341C9.15396 21.1759 9.50619 21.7021 10.048 21.8093L10.4364 19.8474ZM6.44382 20.3155C6.90277 20.6227 7.52387 20.4997 7.83108 20.0407C8.1383 19.5818 8.01529 18.9607 7.55634 18.6534L6.44382 20.3155ZM5.34663 16.4437C5.03942 15.9848 4.41832 15.8618 3.95937 16.169C3.50041 16.4762 3.3774 17.0973 3.68462 17.5563L5.34663 16.4437ZM2.19065 13.9522C2.29793 14.494 2.82408 14.8462 3.36584 14.739C3.90761 14.6317 4.25984 14.1055 4.15256 13.5638L2.19065 13.9522ZM4.1517 10.4406C4.25867 9.89881 3.90616 9.37286 3.36433 9.26589C2.8225 9.15891 2.29655 9.51143 2.18958 10.0533L4.1517 10.4406ZM3.68462 6.44369C3.3774 6.90265 3.50041 7.52375 3.95937 7.83096C4.41832 8.13818 5.03942 8.01517 5.34663 7.55621L3.68462 6.44369ZM7.55634 5.34651C8.01529 5.0393 8.1383 4.4182 7.83108 3.95924C7.52387 3.50029 6.90277 3.37728 6.44382 3.68449L7.55634 5.34651ZM10.0524 2.18963C9.51055 2.29662 9.15805 2.82258 9.26504 3.3644C9.37202 3.90623 9.89799 4.25873 10.4398 4.15174L10.0524 2.18963ZM13.5584 4.15162C14.1002 4.25857 14.6262 3.90602 14.7331 3.36419C14.8401 2.82236 14.4875 2.29642 13.9457 2.18948L13.5584 4.15162ZM9.30078 8.30017C8.7485 8.30017 8.30078 8.74789 8.30078 9.30017C8.30078 9.85246 8.7485 10.3002 9.30078 10.3002V8.30017ZM9.30978 10.3002C9.86207 10.3002 10.3098 9.85246 10.3098 9.30017C10.3098 8.74789 9.86207 8.30017 9.30978 8.30017V10.3002ZM14.6914 8.30017C14.1391 8.30017 13.6914 8.74789 13.6914 9.30017C13.6914 9.85246 14.1391 10.3002 14.6914 10.3002V8.30017ZM14.7004 10.3002C15.2527 10.3002 15.7004 9.85246 15.7004 9.30017C15.7004 8.74789 15.2527 8.30017 14.7004 8.30017V10.3002ZM9 17H15V15H9V17ZM16.4437 5.34651C17.3169 5.93102 18.0689 6.68301 18.6534 7.55621L20.3155 6.44369C19.5855 5.35316 18.6468 4.41448 17.5563 3.68449L16.4437 5.34651ZM20 12C20 12.5357 19.9475 13.0582 19.8476 13.5629L21.8095 13.9512C21.9346 13.3193 22 12.6668 22 12H20ZM19.8472 10.435C19.9473 10.9403 20 11.4635 20 12H22C22 11.3322 21.9344 10.6789 21.809 10.0462L19.8472 10.435ZM18.6534 16.4437C18.0689 17.3169 17.3169 18.0689 16.4437 18.6534L17.5563 20.3155C18.6468 19.5855 19.5855 18.6468 20.3155 17.5563L18.6534 16.4437ZM13.563 19.8475C13.0583 19.9474 12.5358 20 12.0001 20V22C12.6669 22 13.3194 21.9345 13.9513 21.8095L13.563 19.8475ZM12.0001 20C11.464 20 10.9413 19.9474 10.4364 19.8474L10.048 21.8093C10.6801 21.9345 11.3329 22 12.0001 22V20ZM7.55634 18.6534C6.68313 18.0689 5.93114 17.3169 5.34663 16.4437L3.68462 17.5563C4.4146 18.6468 5.35328 19.5855 6.44382 20.3155L7.55634 18.6534ZM4.15256 13.5638C4.05258 13.0588 4 12.5361 4 12H2C2 12.6672 2.06547 13.3201 2.19065 13.9522L4.15256 13.5638ZM4 12C4 11.4655 4.05228 10.9442 4.1517 10.4406L2.18958 10.0533C2.0651 10.6837 2 11.3348 2 12H4ZM5.34663 7.55621C5.93114 6.68301 6.68313 5.93102 7.55634 5.34651L6.44382 3.68449C5.35328 4.41448 4.4146 5.35316 3.68462 6.44369L5.34663 7.55621ZM10.4398 4.15174C10.9435 4.05229 11.4648 4 11.9994 4V2C11.3341 2 10.6829 2.06512 10.0524 2.18963L10.4398 4.15174ZM11.9994 4C12.5338 4 13.0549 4.05225 13.5584 4.15162L13.9457 2.18948C13.3154 2.06506 12.6645 2 11.9994 2V4ZM8.75156 9.3001C8.75156 8.99634 8.99781 8.7501 9.30156 8.7501V10.7501C10.1024 10.7501 10.7516 10.1009 10.7516 9.3001H8.75156ZM9.30156 8.7501C9.60532 8.7501 9.85156 8.99634 9.85156 9.3001H7.85156C7.85156 10.1009 8.50075 10.7501 9.30156 10.7501V8.7501ZM9.85156 9.3001C9.85156 9.60385 9.60532 9.8501 9.30156 9.8501V7.8501C8.50075 7.8501 7.85156 8.49928 7.85156 9.3001H9.85156ZM9.30156 9.8501C8.99781 9.8501 8.75156 9.60386 8.75156 9.3001H10.7516C10.7516 8.49928 10.1024 7.8501 9.30156 7.8501V9.8501ZM9.30078 10.3002H9.30978V8.30017H9.30078V10.3002ZM14.15 9.3001C14.15 8.99634 14.3962 8.7501 14.7 8.7501V10.7501C15.5008 10.7501 16.15 10.1009 16.15 9.3001H14.15ZM14.7 8.7501C15.0038 8.7501 15.25 8.99634 15.25 9.3001H13.25C13.25 10.1009 13.8992 10.7501 14.7 10.7501V8.7501ZM15.25 9.3001C15.25 9.60385 15.0038 9.8501 14.7 9.8501V7.8501C13.8992 7.8501 13.25 8.49928 13.25 9.3001H15.25ZM14.7 9.8501C14.3962 9.8501 14.15 9.60385 14.15 9.3001H16.15C16.15 8.49928 15.5008 7.8501 14.7 7.8501V9.8501ZM14.6914 10.3002H14.7004V8.30017H14.6914V10.3002Z" fill="#0000CC"/>
</svg>
