<svg width="24" height="24" viewBox="0 0 24 24" fill="none" xmlns="http://www.w3.org/2000/svg">
<path d="M9.30078 8.30005C8.7485 8.30005 8.30078 8.74776 8.30078 9.30005C8.30078 9.85233 8.7485 10.3 9.30078 10.3V8.30005ZM9.30978 10.3C9.86207 10.3 10.3098 9.85233 10.3098 9.30005C10.3098 8.74776 9.86207 8.30005 9.30978 8.30005V10.3ZM14.6914 8.30005C14.1391 8.30005 13.6914 8.74776 13.6914 9.30005C13.6914 9.85233 14.1391 10.3 14.6914 10.3V8.30005ZM14.7004 10.3C15.2527 10.3 15.7004 9.85233 15.7004 9.30005C15.7004 8.74776 15.2527 8.30005 14.7004 8.30005V10.3ZM9 15C8.44772 15 8 15.4477 8 16C8 16.5523 8.44772 17 9 17V15ZM15 17C15.5523 17 16 16.5523 16 16C16 15.4477 15.5523 15 15 15V17ZM8.75156 9.29998C8.75156 8.99622 8.99781 8.74998 9.30156 8.74998V10.75C10.1024 10.75 10.7516 10.1008 10.7516 9.29998H8.75156ZM9.30156 8.74998C9.60532 8.74998 9.85156 8.99622 9.85156 9.29998H7.85156C7.85156 10.1008 8.50075 10.75 9.30156 10.75V8.74998ZM9.85156 9.29998C9.85156 9.60373 9.60532 9.84998 9.30156 9.84998V7.84998C8.50075 7.84998 7.85156 8.49916 7.85156 9.29998H9.85156ZM9.30156 9.84998C8.99781 9.84998 8.75156 9.60373 8.75156 9.29998H10.7516C10.7516 8.49916 10.1024 7.84998 9.30156 7.84998V9.84998ZM9.30078 10.3H9.30978V8.30005H9.30078V10.3ZM14.15 9.29998C14.15 8.99622 14.3962 8.74998 14.7 8.74998V10.75C15.5008 10.75 16.15 10.1008 16.15 9.29998H14.15ZM14.7 8.74998C15.0038 8.74998 15.25 8.99622 15.25 9.29998H13.25C13.25 10.1008 13.8992 10.75 14.7 10.75V8.74998ZM15.25 9.29998C15.25 9.60373 15.0038 9.84998 14.7 9.84998V7.84998C13.8992 7.84998 13.25 8.49916 13.25 9.29998H15.25ZM14.7 9.84998C14.3962 9.84998 14.15 9.60373 14.15 9.29998H16.15C16.15 8.49916 15.5008 7.84998 14.7 7.84998V9.84998ZM14.6914 10.3H14.7004V8.30005H14.6914V10.3ZM20 12C20 16.4183 16.4183 20 12 20V22C17.5228 22 22 17.5228 22 12H20ZM12 20C7.58172 20 4 16.4183 4 12H2C2 17.5228 6.47715 22 12 22V20ZM4 12C4 7.58172 7.58172 4 12 4V2C6.47715 2 2 6.47715 2 12H4ZM12 4C16.4183 4 20 7.58172 20 12H22C22 6.47715 17.5228 2 12 2V4ZM9 17H15V15H9V17Z" fill="#0000CC"/>
</svg>
