<svg width="24" height="24" viewBox="0 0 24 24" fill="none" xmlns="http://www.w3.org/2000/svg">
<path d="M5.70041 9.39946C5.36874 9.84106 5.45785 10.4679 5.89946 10.7996C6.34106 11.1313 6.96792 11.0421 7.29959 10.6005L5.70041 9.39946ZM9.70041 10.6005C10.0321 11.0421 10.6589 11.1313 11.1005 10.7996C11.5421 10.4679 11.6313 9.84106 11.2996 9.39946L9.70041 10.6005ZM12.7004 9.39946C12.3687 9.84106 12.4579 10.4679 12.8995 10.7996C13.3411 11.1313 13.9679 11.0421 14.2996 10.6005L12.7004 9.39946ZM16.7004 10.6005C17.0321 11.0421 17.6589 11.1313 18.1005 10.7996C18.5421 10.4679 18.6313 9.84106 18.2996 9.39946L16.7004 10.6005ZM8 13C8 12.4477 7.55228 12 7 12C6.44772 12 6 12.4477 6 13H8ZM6 19C6 19.5523 6.44772 20 7 20C7.55228 20 8 19.5523 8 19H6ZM18 13C18 12.4477 17.5523 12 17 12C16.4477 12 16 12.4477 16 13H18ZM16 19C16 19.5523 16.4477 20 17 20C17.5523 20 18 19.5523 18 19H16ZM8.5 8C7.35432 8 6.3372 8.5516 5.70041 9.39946L7.29959 10.6005C7.57492 10.234 8.01001 10 8.5 10V8ZM11.2996 9.39946C10.6628 8.5516 9.64568 8 8.5 8V10C8.98999 10 9.42508 10.234 9.70041 10.6005L11.2996 9.39946ZM15.5 8C14.3543 8 13.3372 8.5516 12.7004 9.39946L14.2996 10.6005C14.5749 10.234 15.01 10 15.5 10V8ZM18.2996 9.39946C17.6628 8.5516 16.6457 8 15.5 8V10C15.99 10 16.4251 10.234 16.7004 10.6005L18.2996 9.39946ZM20 12C20 16.4183 16.4183 20 12 20V22C17.5228 22 22 17.5228 22 12H20ZM12 20C7.58172 20 4 16.4183 4 12H2C2 17.5228 6.47715 22 12 22V20ZM4 12C4 7.58172 7.58172 4 12 4V2C6.47715 2 2 6.47715 2 12H4ZM12 4C16.4183 4 20 7.58172 20 12H22C22 6.47715 17.5228 2 12 2V4ZM13 15V16H15V15H13ZM11 16V15H9V16H11ZM12 17C11.4477 17 11 16.5523 11 16H9C9 17.6569 10.3431 19 12 19V17ZM13 16C13 16.5523 12.5523 17 12 17V19C13.6569 19 15 17.6569 15 16H13ZM12 14C12.5523 14 13 14.4477 13 15H15C15 13.3431 13.6569 12 12 12V14ZM12 12C10.3431 12 9 13.3431 9 15H11C11 14.4477 11.4477 14 12 14V12ZM6 13V19H8V13H6ZM16 13V19H18V13H16Z" fill="#0000CC"/>
</svg>
