<svg width="24" height="24" viewBox="0 0 24 24" fill="none" xmlns="http://www.w3.org/2000/svg">
<path d="M6.5 10C6.95606 8.78555 7.68217 8 8.5 8C9.31783 8 10.0439 8.78555 10.5 10M13.5 10C13.9561 8.78555 14.6822 8 15.5 8C16.3178 8 17.0439 8.78555 17.5 10M21 12C21 16.9706 16.9706 21 12 21C7.02944 21 3 16.9706 3 12C3 7.02944 7.02944 3 12 3C16.9706 3 21 7.02944 21 12ZM16 14C16 16.2091 14.2091 18 12 18C9.79086 18 8 16.2091 8 14H16Z" stroke="#0000CC" stroke-width="2" stroke-linecap="round" stroke-linejoin="round"/>
</svg>
