<svg width="24" height="24" viewBox="0 0 24 24" fill="none" xmlns="http://www.w3.org/2000/svg">
<path d="M16.4437 18.6534C15.9848 18.9607 15.8618 19.5818 16.169 20.0407C16.4762 20.4997 17.0973 20.6227 17.5563 20.3155L16.4437 18.6534ZM6.44374 20.3155C6.90269 20.6227 7.5238 20.4997 7.83101 20.0407C8.13822 19.5818 8.01521 18.9607 7.55626 18.6534L6.44374 20.3155ZM17 14H18C18 13.6756 17.8426 13.3714 17.5779 13.1839C17.3131 12.9964 16.9739 12.949 16.6679 13.0567L17 14ZM7 14L7.33207 13.0567C7.02608 12.949 6.68685 12.9964 6.42211 13.1839C6.15736 13.3714 6 13.6756 6 14H7ZM8.44897 17.837C8.91125 18.1392 9.53097 18.0094 9.83317 17.5472C10.1354 17.0849 10.0056 16.4652 9.54332 16.163L8.44897 17.837ZM14.4567 16.163C13.9944 16.4652 13.8646 17.0849 14.1668 17.5472C14.469 18.0094 15.0888 18.1392 15.551 17.837L14.4567 16.163ZM9 15V14C8.44772 14 8 14.4477 8 15H9ZM15 15H16C16 14.4477 15.5523 14 15 14V15ZM11.9472 15.8944L11.0528 16.3416L11.0528 16.3416L11.9472 15.8944ZM12 16L11.1056 16.4472C11.275 16.786 11.6212 17 12 17C12.3788 17 12.725 16.786 12.8944 16.4472L12 16ZM12.0528 15.8944L12.9472 16.3416L12.9472 16.3416L12.0528 15.8944ZM8.0145 6.64251C7.54092 6.35836 6.92666 6.51192 6.64251 6.9855C6.35836 7.45908 6.51192 8.07334 6.9855 8.35749L8.0145 6.64251ZM10 9L10.5145 9.85749C10.8157 9.67677 11 9.35126 11 9C11 8.64874 10.8157 8.32323 10.5145 8.14251L10 9ZM6.9855 9.64251C6.51192 9.92666 6.35836 10.5409 6.64251 11.0145C6.92666 11.4881 7.54092 11.6416 8.0145 11.3575L6.9855 9.64251ZM17.0145 8.35749C17.4881 8.07334 17.6416 7.45908 17.3575 6.9855C17.0733 6.51192 16.4591 6.35836 15.9855 6.64251L17.0145 8.35749ZM14 9L13.4855 8.14251C13.1843 8.32323 13 8.64874 13 9C13 9.35126 13.1843 9.67677 13.4855 9.85749L14 9ZM15.9855 11.3575C16.4591 11.6416 17.0733 11.4881 17.3575 11.0145C17.6416 10.5409 17.4881 9.92666 17.0145 9.64251L15.9855 11.3575ZM4 12C4 7.58172 7.58172 4 12 4V2C6.47715 2 2 6.47715 2 12H4ZM12 4C16.4183 4 20 7.58172 20 12H22C22 6.47715 17.5228 2 12 2V4ZM20 12C20 14.7727 18.5902 17.2166 16.4437 18.6534L17.5563 20.3155C20.2337 18.5232 22 15.4681 22 12H20ZM7.55626 18.6534C5.40977 17.2166 4 14.7727 4 12H2C2 15.4681 3.76629 18.5232 6.44374 20.3155L7.55626 18.6534ZM17 14C16.6679 13.0567 16.668 13.0567 16.6681 13.0567C16.6681 13.0567 16.6682 13.0566 16.6682 13.0566C16.6683 13.0566 16.6683 13.0566 16.6683 13.0566C16.6682 13.0566 16.668 13.0567 16.6676 13.0568C16.6669 13.0571 16.6654 13.0576 16.6633 13.0584C16.6591 13.0598 16.6522 13.0622 16.6428 13.0654C16.624 13.0719 16.5952 13.0817 16.557 13.0945C16.4807 13.1199 16.3675 13.157 16.2242 13.2018C15.9372 13.2914 15.532 13.4113 15.0626 13.531C14.1062 13.775 12.9529 14 12 14V16C13.2066 16 14.5533 15.725 15.557 15.469C16.0677 15.3387 16.5076 15.2086 16.8207 15.1107C16.9774 15.0618 17.103 15.0207 17.1905 14.9915C17.2342 14.9769 17.2684 14.9652 17.2923 14.957C17.3043 14.9529 17.3136 14.9497 17.3203 14.9474C17.3236 14.9462 17.3263 14.9453 17.3282 14.9446C17.3292 14.9443 17.33 14.944 17.3307 14.9437C17.331 14.9436 17.3313 14.9435 17.3315 14.9435C17.3316 14.9434 17.3318 14.9434 17.3318 14.9433C17.332 14.9433 17.3321 14.9433 17 14ZM12 14C11.0471 14 9.89383 13.775 8.93735 13.531C8.46799 13.4113 8.06282 13.2914 7.77581 13.2018C7.63254 13.157 7.51933 13.1199 7.443 13.0945C7.40485 13.0817 7.37595 13.0719 7.35717 13.0654C7.34778 13.0622 7.34092 13.0598 7.3367 13.0584C7.33459 13.0576 7.33314 13.0571 7.33237 13.0568C7.33198 13.0567 7.33176 13.0566 7.33171 13.0566C7.33169 13.0566 7.3317 13.0566 7.33176 13.0566C7.33179 13.0566 7.33187 13.0567 7.33189 13.0567C7.33198 13.0567 7.33207 13.0567 7 14C6.66793 14.9433 6.66805 14.9433 6.66818 14.9433C6.66824 14.9434 6.66838 14.9434 6.66849 14.9435C6.66873 14.9435 6.66901 14.9436 6.66933 14.9437C6.66997 14.944 6.67078 14.9443 6.67177 14.9446C6.67374 14.9453 6.67639 14.9462 6.67973 14.9474C6.68639 14.9497 6.69574 14.9529 6.70768 14.957C6.73157 14.9652 6.76581 14.9769 6.80954 14.9915C6.89698 15.0207 7.02256 15.0618 7.17933 15.1107C7.49239 15.2086 7.93231 15.3387 8.44301 15.469C9.44665 15.725 10.7934 16 12 16V14ZM9.54332 16.163C8.53869 15.5062 8 14.6979 8 14H6C6 15.6914 7.21121 17.0279 8.44897 17.837L9.54332 16.163ZM16 14C16 14.6979 15.4613 15.5062 14.4567 16.163L15.551 17.837C16.7888 17.0279 18 15.6914 18 14H16ZM10 18V15H8V18H10ZM14 15V18H16V15H14ZM9 16H10.5V14H9V16ZM13.5 16H15V14H13.5V16ZM11.0528 16.3416L11.1056 16.4472L12.8944 15.5528L12.8416 15.4472L11.0528 16.3416ZM12.8944 16.4472L12.9472 16.3416L11.1584 15.4472L11.1056 15.5528L12.8944 16.4472ZM12.9472 16.3416C13.0519 16.1323 13.2659 16 13.5 16V14C12.5084 14 11.6018 14.5603 11.1584 15.4472L12.9472 16.3416ZM10.5 16C10.7341 16 10.9481 16.1323 11.0528 16.3416L12.8416 15.4472C12.3982 14.5603 11.4916 14 10.5 14V16ZM12 20C10.8954 20 10 19.1046 10 18H8C8 20.2091 9.79086 22 12 22V20ZM12 22C14.2091 22 16 20.2091 16 18H14C14 19.1046 13.1046 20 12 20V22ZM6.9855 8.35749L9.4855 9.85749L10.5145 8.14251L8.0145 6.64251L6.9855 8.35749ZM9.4855 8.14251L6.9855 9.64251L8.0145 11.3575L10.5145 9.85749L9.4855 8.14251ZM15.9855 6.64251L13.4855 8.14251L14.5145 9.85749L17.0145 8.35749L15.9855 6.64251ZM13.4855 9.85749L15.9855 11.3575L17.0145 9.64251L14.5145 8.14251L13.4855 9.85749Z" fill="#0000CC"/>
</svg>
