<svg width="24" height="24" viewBox="0 0 24 24" fill="none" xmlns="http://www.w3.org/2000/svg">
<path d="M6.91016 8.8216C7.6241 7.68068 8.711 6.79703 10.0001 6.3414M17.0898 8.8216C16.3759 7.68068 15.289 6.79703 13.9999 6.3414M14 12C14.4413 12.318 14.9536 12.5 15.5 12.5C16.0464 12.5 16.5587 12.318 17 12M7 12C7.44126 12.318 7.95357 12.5 8.5 12.5C9.04643 12.5 9.55874 12.318 10 12M9 17C9.68409 17.6072 10.7732 18 12 18C13.2268 18 14.3159 17.6072 15 17M21 12C21 16.9706 16.9706 21 12 21C7.02944 21 3 16.9706 3 12C3 7.02944 7.02944 3 12 3C16.9706 3 21 7.02944 21 12Z" stroke="#0000CC" stroke-width="2" stroke-linecap="round" stroke-linejoin="round"/>
</svg>
