<svg width="24" height="24" viewBox="0 0 24 24" fill="none" xmlns="http://www.w3.org/2000/svg">
<path d="M14 6C13.4477 6 13 6.44772 13 7C13 7.55228 13.4477 8 14 8V6ZM16.1679 9.0547C16.4743 9.51423 17.0952 9.63841 17.5547 9.33205C18.0142 9.0257 18.1384 8.40483 17.8321 7.9453L16.1679 9.0547ZM10 8C10.5523 8 11 7.55228 11 7C11 6.44772 10.5523 6 10 6V8ZM6.16795 7.9453C5.8616 8.40483 5.98577 9.0257 6.4453 9.33205C6.90483 9.63841 7.5257 9.51423 7.83205 9.0547L6.16795 7.9453ZM8.73321 16.8004L7.78453 16.4841L8.73321 16.8004ZM9.22242 17.3555L9.03651 16.373L9.22242 17.3555ZM15.2668 16.8004L16.2155 16.4841L15.2668 16.8004ZM14.7776 17.3555L14.5917 18.3381L14.7776 17.3555ZM9.30078 10.3C8.7485 10.3 8.30078 10.7478 8.30078 11.3C8.30078 11.8523 8.7485 12.3 9.30078 12.3V10.3ZM9.30978 12.3C9.86207 12.3 10.3098 11.8523 10.3098 11.3C10.3098 10.7478 9.86207 10.3 9.30978 10.3V12.3ZM14.6914 10.3C14.1391 10.3 13.6914 10.7478 13.6914 11.3C13.6914 11.8523 14.1391 12.3 14.6914 12.3V10.3ZM14.7004 12.3C15.2527 12.3 15.7004 11.8523 15.7004 11.3C15.7004 10.7478 15.2527 10.3 14.7004 10.3V12.3ZM20 12C20 16.4183 16.4183 20 12 20V22C17.5228 22 22 17.5228 22 12H20ZM12 20C7.58172 20 4 16.4183 4 12H2C2 17.5228 6.47715 22 12 22V20ZM4 12C4 7.58172 7.58172 4 12 4V2C6.47715 2 2 6.47715 2 12H4ZM12 4C16.4183 4 20 7.58172 20 12H22C22 6.47715 17.5228 2 12 2V4ZM14.1972 6H14V8H14.1972V6ZM17.8321 7.9453C17.0218 6.72999 15.6579 6 14.1972 6V8C14.9891 8 15.7287 8.39578 16.1679 9.0547L17.8321 7.9453ZM9.80278 8H10V6H9.80278V8ZM7.83205 9.0547C8.27133 8.39578 9.01086 8 9.80278 8V6C8.34215 6 6.97816 6.72999 6.16795 7.9453L7.83205 9.0547ZM11.9248 15.5H12.0752V13.5H11.9248V15.5ZM14.9635 16.373C14.1971 16.2279 12.8719 16 12 16V18C12.6542 18 13.7971 18.1877 14.5917 18.3381L14.9635 16.373ZM12 16C11.1281 16 9.80291 16.2279 9.03651 16.373L9.40833 18.3381C10.2029 18.1877 11.3458 18 12 18V16ZM7.78453 16.4841C7.43557 17.531 8.35274 18.5378 9.40833 18.3381L9.03651 16.373C9.45201 16.2943 9.82485 16.6877 9.6819 17.1166L7.78453 16.4841ZM14.3181 17.1166C14.1752 16.6877 14.548 16.2943 14.9635 16.373L14.5917 18.3381C15.6473 18.5378 16.5644 17.531 16.2155 16.4841L14.3181 17.1166ZM12.0752 15.5C13.0928 15.5 13.9963 16.1512 14.3181 17.1166L16.2155 16.4841C15.6214 14.702 13.9537 13.5 12.0752 13.5V15.5ZM11.9248 13.5C10.0463 13.5 8.37856 14.702 7.78453 16.4841L9.6819 17.1166C10.0037 16.1512 10.9072 15.5 11.9248 15.5V13.5ZM8.85156 11.35C8.85156 11.0738 9.07542 10.85 9.35156 10.85V12.85C10.18 12.85 10.8516 12.1784 10.8516 11.35H8.85156ZM9.35156 10.85C9.62771 10.85 9.85156 11.0738 9.85156 11.35H7.85156C7.85156 12.1784 8.52313 12.85 9.35156 12.85V10.85ZM9.85156 11.35C9.85156 11.6261 9.62771 11.85 9.35156 11.85V9.84998C8.52313 9.84998 7.85156 10.5215 7.85156 11.35H9.85156ZM9.35156 11.85C9.07542 11.85 8.85156 11.6261 8.85156 11.35H10.8516C10.8516 10.5215 10.18 9.84998 9.35156 9.84998V11.85ZM9.30078 12.3H9.30978V10.3H9.30078V12.3ZM14.15 11.3C14.15 10.9962 14.3962 10.75 14.7 10.75V12.75C15.5008 12.75 16.15 12.1008 16.15 11.3H14.15ZM14.7 10.75C15.0038 10.75 15.25 10.9962 15.25 11.3H13.25C13.25 12.1008 13.8992 12.75 14.7 12.75V10.75ZM15.25 11.3C15.25 11.6037 15.0038 11.85 14.7 11.85V9.84998C13.8992 9.84998 13.25 10.4992 13.25 11.3H15.25ZM14.7 11.85C14.3962 11.85 14.15 11.6037 14.15 11.3H16.15C16.15 10.4992 15.5008 9.84998 14.7 9.84998V11.85ZM14.6914 12.3H14.7004V10.3H14.6914V12.3Z" fill="#0000CC"/>
</svg>
