<svg width="24" height="24" viewBox="0 0 24 24" fill="none" xmlns="http://www.w3.org/2000/svg">
<path d="M4.51912 10.708L5.50946 10.5693L4.51912 10.708ZM10.4809 10.708L9.49054 10.5693L10.4809 10.708ZM10.7609 8.70797L11.7512 8.84662L10.7609 8.70797ZM4.23912 8.70797L3.24877 8.84662L4.23912 8.70797ZM13.5191 10.708L14.5095 10.5693L13.5191 10.708ZM19.4809 10.708L20.4712 10.8466V10.8466L19.4809 10.708ZM19.7609 8.70797L18.7705 8.56932V8.56932L19.7609 8.70797ZM13.2391 8.70797L12.2488 8.84662L13.2391 8.70797ZM10.7756 7.5C10.2234 7.5 9.77564 7.94772 9.77564 8.5C9.77564 9.05228 10.2234 9.5 10.7756 9.5V7.5ZM8.79957 14.3994C8.46788 13.9578 7.84101 13.8687 7.39942 14.2004C6.95783 14.5321 6.86874 15.159 7.20043 15.6006L8.79957 14.3994ZM16.8003 15.6006C17.132 15.159 17.0429 14.5321 16.6013 14.2004C16.1597 13.8687 15.5329 13.9578 15.2012 14.3994L16.8003 15.6006ZM13.2244 8.5L14.2244 8.49808L13.2244 8.5ZM5.72463 8H9.27537V6H5.72463V8ZM9.77054 8.56932L9.49054 10.5693L11.4712 10.8466L11.7512 8.84662L9.77054 8.56932ZM8.99537 11H6.00463V13H8.99537V11ZM5.50946 10.5693L5.22946 8.56932L3.24877 8.84662L3.52877 10.8466L5.50946 10.5693ZM6.00463 11C5.75527 11 5.54403 10.8163 5.50946 10.5693L3.52877 10.8466C3.70164 12.0814 4.75784 13 6.00463 13V11ZM9.49054 10.5693C9.45597 10.8163 9.24473 11 8.99537 11V13C10.2422 13 11.2984 12.0814 11.4712 10.8466L9.49054 10.5693ZM9.27537 8C9.57908 8 9.81265 8.26855 9.77054 8.56932L11.7512 8.84662C11.9618 7.34273 10.7939 6 9.27537 6V8ZM5.72463 6C4.20608 6 3.03823 7.34273 3.24877 8.84662L5.22946 8.56932C5.18735 8.26855 5.42092 8 5.72463 8V6ZM14.7246 8H18.2754V6H14.7246V8ZM18.7705 8.56932L18.4905 10.5693L20.4712 10.8466L20.7512 8.84662L18.7705 8.56932ZM17.9954 11H15.0046V13H17.9954V11ZM14.5095 10.5693L14.2295 8.56932L12.2488 8.84662L12.5288 10.8466L14.5095 10.5693ZM15.0046 11C14.7553 11 14.544 10.8163 14.5095 10.5693L12.5288 10.8466C12.7016 12.0814 13.7578 13 15.0046 13V11ZM18.4905 10.5693C18.456 10.8163 18.2447 11 17.9954 11V13C19.2422 13 20.2984 12.0814 20.4712 10.8466L18.4905 10.5693ZM18.2754 8C18.5791 8 18.8127 8.26855 18.7705 8.56932L20.7512 8.84662C20.9618 7.34273 19.7939 6 18.2754 6V8ZM20 12C20 16.4183 16.4183 20 12 20V22C17.5228 22 22 17.5228 22 12H20ZM12 20C7.58172 20 4 16.4183 4 12H2C2 17.5228 6.47715 22 12 22V20ZM4 12C4 7.58172 7.58172 4 12 4V2C6.47715 2 2 6.47715 2 12H4ZM12 4C16.4183 4 20 7.58172 20 12H22C22 6.47715 17.5228 2 12 2V4ZM12.0004 16C10.6924 16 9.53103 15.3732 8.79957 14.3994L7.20043 15.6006C8.29339 17.0557 10.0367 18 12.0004 18V16ZM15.2012 14.3994C14.4697 15.3732 13.3084 16 12.0004 16V18C13.964 18 15.7073 17.0557 16.8003 15.6006L15.2012 14.3994ZM14.7246 6C13.3227 6 12.2218 7.14289 12.2244 8.50192L14.2244 8.49808C14.2238 8.22804 14.4457 8 14.7246 8V6ZM12.2244 8.50192C12.2246 8.61612 12.2326 8.73124 12.2488 8.84662L14.2295 8.56932C14.226 8.54467 14.2244 8.52092 14.2244 8.49808L12.2244 8.50192ZM10.7756 9.5H13.2244V7.5H10.7756V9.5Z" fill="#0000CC"/>
</svg>
