<svg width="24" height="24" viewBox="0 0 24 24" fill="none" xmlns="http://www.w3.org/2000/svg">
<path d="M15.0078 17.1926L16.746 18.6511C17.8037 19.5386 19.3806 19.4006 20.2681 18.343C21.1556 17.2853 21.0176 15.7084 19.9599 14.8209L17.9004 13.0928C17.5782 14.8439 16.4957 16.3288 15.0078 17.1926ZM15.0078 17.1926C14.1235 17.706 13.0962 18 12 18C9.027 18 6.55904 15.8377 6.08296 13M21 12C21 7.02944 16.9706 3 12 3C7.02944 3 3 7.02944 3 12C3 16.9706 7.02944 21 12 21C13.039 21 14.0369 20.8239 14.9655 20.5M6.5 10C6.95606 8.78555 7.68217 8 8.5 8C9.31783 8 10.0439 8.78555 10.5 10M13.5 10C13.9561 8.78555 14.6822 8 15.5 8C16.3178 8 17.0439 8.78555 17.5 10" stroke="#0000CC" stroke-width="2" stroke-linecap="round" stroke-linejoin="round"/>
</svg>
