<svg width="24" height="24" viewBox="0 0 24 24" fill="none" xmlns="http://www.w3.org/2000/svg">
<path d="M13.9654 19.4998C14.4868 19.3178 14.7621 18.7476 14.5802 18.2262C14.3983 17.7047 13.8281 17.4294 13.3066 17.6114L13.9654 19.4998ZM17.6019 13.3334C17.4179 13.8541 17.6908 14.4255 18.2115 14.6095C18.7323 14.7936 19.3036 14.5206 19.4876 13.9999L17.6019 13.3334ZM16.383 17.607L15.7402 16.8409C15.3539 17.1651 15.2694 17.7262 15.5432 18.1498L16.383 17.607ZM17.9151 16.3214L18.5955 15.5886C18.2259 15.2454 17.6587 15.2312 17.2723 15.5554L17.9151 16.3214ZM17.7569 19.7328L18.5968 19.19L17.7569 19.7328ZM19.77 18.0436L19.0896 18.7764V18.7764L19.77 18.0436ZM9 14C9 13.4477 8.55228 13 8 13C7.44772 13 7 13.4477 7 14H9ZM7 15C7 15.5523 7.44772 16 8 16C8.55228 16 9 15.5523 9 15H7ZM12 14C12 13.4477 11.5523 13 11 13C10.4477 13 10 13.4477 10 14H12ZM10 15C10 15.5523 10.4477 16 11 16C11.5523 16 12 15.5523 12 15H10ZM15 14C15 13.4477 14.5523 13 14 13C13.4477 13 13 13.4477 13 14H15ZM13 15C13 15.5523 13.4477 16 14 16C14.5523 16 15 15.5523 15 15H13ZM8.30078 8.30005C7.7485 8.30005 7.30078 8.74776 7.30078 9.30005C7.30078 9.85233 7.7485 10.3 8.30078 10.3V8.30005ZM8.30978 10.3C8.86207 10.3 9.30978 9.85233 9.30978 9.30005C9.30978 8.74776 8.86207 8.30005 8.30978 8.30005V10.3ZM13.6914 8.30005C13.1391 8.30005 12.6914 8.74776 12.6914 9.30005C12.6914 9.85233 13.1391 10.3 13.6914 10.3V8.30005ZM13.7004 10.3C14.2527 10.3 14.7004 9.85233 14.7004 9.30005C14.7004 8.74776 14.2527 8.30005 13.7004 8.30005V10.3ZM11 18C7.13401 18 4 14.866 4 11H2C2 15.9706 6.02944 20 11 20V18ZM4 11C4 7.13401 7.13401 4 11 4V2C6.02944 2 2 6.02944 2 11H4ZM11 4C14.866 4 18 7.13401 18 11H20C20 6.02944 15.9706 2 11 2V4ZM13.3066 17.6114C12.5857 17.8629 11.8099 18 11 18V20C12.0372 20 13.0355 19.8241 13.9654 19.4998L13.3066 17.6114ZM18 11C18 11.8199 17.8594 12.6049 17.6019 13.3334L19.4876 13.9999C19.8197 13.0603 20 12.0501 20 11H18ZM17.0258 18.373L18.5579 17.0875L17.2723 15.5554L15.7402 16.8409L17.0258 18.373ZM19.0774 19.2623C18.9281 19.3877 18.7026 19.3537 18.5968 19.19L16.9171 20.2756C17.6759 21.4497 19.2921 21.693 20.363 20.7944L19.0774 19.2623ZM20.363 20.7944C21.4339 19.8958 21.4749 18.2619 20.4504 17.3107L19.0896 18.7764C19.2325 18.9091 19.2268 19.137 19.0774 19.2623L20.363 20.7944ZM7 14V15H9V14H7ZM10 14V15H12V14H10ZM13 14V15H15V14H13ZM7.85156 9.34998C7.85156 9.07383 8.07542 8.84998 8.35156 8.84998V10.85C9.17999 10.85 9.85156 10.1784 9.85156 9.34998H7.85156ZM8.35156 8.84998C8.62771 8.84998 8.85156 9.07384 8.85156 9.34998H6.85156C6.85156 10.1784 7.52313 10.85 8.35156 10.85V8.84998ZM8.85156 9.34998C8.85156 9.62612 8.6277 9.84998 8.35156 9.84998V7.84998C7.52313 7.84998 6.85156 8.52155 6.85156 9.34998H8.85156ZM8.35156 9.84998C8.07542 9.84998 7.85156 9.62612 7.85156 9.34998H9.85156C9.85156 8.52155 9.17999 7.84998 8.35156 7.84998V9.84998ZM8.30078 10.3H8.30978V8.30005H8.30078V10.3ZM13.15 9.29998C13.15 8.99622 13.3962 8.74998 13.7 8.74998V10.75C14.5008 10.75 15.15 10.1008 15.15 9.29998H13.15ZM13.7 8.74998C14.0038 8.74998 14.25 8.99622 14.25 9.29998H12.25C12.25 10.1008 12.8992 10.75 13.7 10.75V8.74998ZM14.25 9.29998C14.25 9.60373 14.0038 9.84998 13.7 9.84998V7.84998C12.8992 7.84998 12.25 8.49916 12.25 9.29998H14.25ZM13.7 9.84998C13.3962 9.84998 13.15 9.60373 13.15 9.29998H15.15C15.15 8.49916 14.5008 7.84998 13.7 7.84998V9.84998ZM13.6914 10.3H13.7004V8.30005H13.6914V10.3ZM18.5968 19.19L17.2229 17.0642L15.5432 18.1498L16.9171 20.2756L18.5968 19.19ZM17.2347 17.0542L19.0896 18.7764L20.4504 17.3107L18.5955 15.5886L17.2347 17.0542Z" fill="#0000CC"/>
</svg>
