<svg width="24" height="24" viewBox="0 0 24 24" fill="none" xmlns="http://www.w3.org/2000/svg">
<g opacity="0.3">
<path d="M12 15.9999C15.337 15.9999 18.1968 13.9568 19.3967 11.0532C20.9691 12.135 22 13.947 22 15.9999C22 19.3136 19.3137 21.9999 16 21.9999C12.6863 21.9999 10 19.3136 10 15.9999C10 15.9159 10.0017 15.8323 10.0051 15.7492C10.6428 15.9128 11.3113 15.9999 12 15.9999Z" fill="#0000CC"/>
<path d="M8.06601 14.9674C6.51685 14.0908 5.28905 12.7125 4.60334 11.0532C3.03095 12.135 2 13.947 2 15.9999C2 19.3136 4.68629 21.9999 8 21.9999C8.79613 21.9999 9.55604 21.8448 10.2512 21.5633C8.85761 20.1235 8 18.1619 8 15.9999C8 15.65 8.02246 15.3054 8.06601 14.9674Z" fill="#0000CC"/>
</g>
<path d="M12 14C15.3137 14 18 11.3137 18 8C18 4.68629 15.3137 2 12 2C8.68629 2 6 4.68629 6 8C6 11.3137 8.68629 14 12 14Z" fill="#0000CC"/>
</svg>
