<svg width="24" height="24" viewBox="0 0 24 24" fill="none" xmlns="http://www.w3.org/2000/svg">
<path opacity="0.3" fill-rule="evenodd" clip-rule="evenodd" d="M7.16146 3H16.8385C17.3657 2.99998 17.8205 2.99997 18.195 3.03057C18.5904 3.06287 18.9836 3.13419 19.362 3.32698C19.9265 3.6146 20.3854 4.07355 20.673 4.63803C20.8658 5.01641 20.9371 5.40963 20.9694 5.80498C21 6.17954 21 6.6343 21 7.16144V16.8386C21 17.3657 21 17.8205 20.9694 18.195C20.9371 18.5904 20.8658 18.9836 20.673 19.362C20.3854 19.9265 19.9265 20.3854 19.362 20.673C18.9836 20.8658 18.5904 20.9371 18.195 20.9694C17.8205 21 17.3657 21 16.8386 21H7.16144C6.6343 21 6.17954 21 5.80498 20.9694C5.40963 20.9371 5.01641 20.8658 4.63803 20.673C4.07355 20.3854 3.6146 19.9265 3.32698 19.362C3.13419 18.9836 3.06287 18.5904 3.03057 18.195C2.99997 17.8205 2.99998 17.3657 3 16.8386V7.16142C2.99998 6.63431 2.99997 6.17953 3.03057 5.80498C3.06287 5.40963 3.13419 5.01641 3.32698 4.63803C3.6146 4.07355 4.07355 3.6146 4.63803 3.32698C5.01641 3.13419 5.40963 3.06287 5.80498 3.03057C6.17953 2.99997 6.63434 2.99998 7.16146 3ZM5.96784 5.02393C5.69618 5.04613 5.59546 5.0838 5.54601 5.109C5.35785 5.20487 5.20487 5.35785 5.109 5.54601C5.0838 5.59546 5.04613 5.69618 5.02393 5.96784C5.00078 6.25118 5 6.62345 5 7.2V15H19V7.2C19 6.62345 18.9992 6.25118 18.9761 5.96784C18.9539 5.69618 18.9162 5.59546 18.891 5.54601C18.7951 5.35785 18.6422 5.20487 18.454 5.109C18.4046 5.0838 18.3038 5.04613 18.0322 5.02393C17.7488 5.00078 17.3766 5 16.8 5H7.2C6.62345 5 6.25118 5.00078 5.96784 5.02393Z" fill="#0000CC"/>
<path d="M14 9C14 10.1046 13.1046 11 12 11C10.8954 11 10 10.1046 10 9C10 7.89543 10.8954 7 12 7C13.1046 7 14 7.89543 14 9Z" fill="#0000CC"/>
<path d="M12 12C14.0503 12 15.8124 13.2341 16.5839 15H7.41602C8.18757 13.2341 9.94965 12 12 12Z" fill="#0000CC"/>
</svg>
