<svg width="24" height="24" viewBox="0 0 24 24" fill="none" xmlns="http://www.w3.org/2000/svg">
<circle opacity="0.3" cx="12" cy="12" r="10" fill="#0000CC"/>
<path d="M15.5002 11C16.881 11 18.0002 9.88071 18.0002 8.5C18.0002 7.11929 16.881 6 15.5002 6C14.1195 6 13.0002 7.11929 13.0002 8.5C13.0002 9.88071 14.1195 11 15.5002 11Z" fill="#0000CC"/>
<path d="M19.1721 15.5486L18.941 15.3436L18.8147 15.2282C18.5418 14.9787 18.2682 14.7285 17.9762 14.5017C17.6843 14.2749 17.3708 14.0756 16.9915 13.9601C16.422 13.7868 15.8138 13.7868 15.2443 13.9601C14.865 14.0756 14.5514 14.2749 14.2595 14.5017C14.0729 14.6467 13.8704 14.8231 13.6479 15.0231L12.7425 14.1984C12.3851 13.8729 12.0751 13.5906 11.7998 13.3767C11.5078 13.1499 11.1943 12.9506 10.815 12.8351C10.2455 12.6618 9.6373 12.6618 9.06779 12.8351C8.68849 12.9506 8.37496 13.1499 8.08301 13.3767C7.8077 13.5906 7.49772 13.8729 7.14031 14.1984L5.08594 16.0266C6.47292 18.4031 9.05009 20 12.0002 20C15.1441 20 17.8644 18.1865 19.1721 15.5486Z" fill="#0000CC"/>
</svg>
