<svg width="24" height="24" viewBox="0 0 24 24" fill="none" xmlns="http://www.w3.org/2000/svg">
<path opacity="0.3" fill-rule="evenodd" clip-rule="evenodd" d="M2.32698 4.63803C2 5.27976 2 6.11984 2 7.8V16.2C2 17.8802 2 18.7202 2.32698 19.362C2.6146 19.9265 3.07354 20.3854 3.63803 20.673C4.27976 21 5.11984 21 6.8 21H17.2C18.8802 21 19.7202 21 20.362 20.673C20.9265 20.3854 21.3854 19.9265 21.673 19.362C22 18.7202 22 17.8802 22 16.2V7.8C22 6.11984 22 5.27976 21.673 4.63803C21.3854 4.07354 20.9265 3.6146 20.362 3.32698C19.7202 3 18.8802 3 17.2 3H6.8C5.11984 3 4.27976 3 3.63803 3.32698C3.07354 3.6146 2.6146 4.07354 2.32698 4.63803Z" fill="#0000CC"/>
<path fill-rule="evenodd" clip-rule="evenodd" d="M9.99951 9C9.99951 7.89543 10.8949 7 11.9995 7C13.1041 7 13.9995 7.89543 13.9995 9C13.9995 10.1046 13.1041 11 11.9995 11C10.8949 11 9.99951 10.1046 9.99951 9ZM11.9995 12C10.0166 12 8.37232 13.442 8.05481 15.3345C8.00614 15.6246 8.08765 15.9214 8.27766 16.146C8.46766 16.3705 8.74688 16.5 9.04102 16.5H14.9581C15.2522 16.5 15.5314 16.3705 15.7214 16.146C15.9114 15.9214 15.9929 15.6246 15.9443 15.3345C15.6268 13.442 13.9825 12 11.9995 12Z" fill="#0000CC"/>
</svg>
