<svg width="24" height="24" viewBox="0 0 24 24" fill="none" xmlns="http://www.w3.org/2000/svg">
<path fill-rule="evenodd" clip-rule="evenodd" d="M8 3C8 2.44772 7.55229 2 7 2C6.44772 2 6 2.44772 6 3V4.00003C5.54097 4.00031 5.14075 4.00314 4.80498 4.03057C4.40963 4.06287 4.01641 4.13419 3.63803 4.32698C3.07355 4.6146 2.6146 5.07354 2.32698 5.63803C2.13419 6.01641 2.06287 6.40963 2.03057 6.80497C1.99997 7.17952 1.99999 7.63428 2 8.16138V17.8386C1.99999 18.3657 1.99997 18.8205 2.03057 19.195C2.06287 19.5904 2.13419 19.9836 2.32698 20.362C2.61461 20.9265 3.07355 21.3854 3.63803 21.673C4.01641 21.8658 4.40963 21.9371 4.80498 21.9694C5.17954 22 5.6343 22 6.16144 22H12.0468C11.9807 21.667 11.9823 21.3126 12.0662 20.9534L12.1054 20.7854C12.229 20.2543 12.3394 19.78 12.5288 19.3252C12.6955 18.9251 12.9059 18.5447 13.1563 18.1908C13.441 17.7884 13.7842 17.4432 14.1674 17.0579L18.1941 13.0032C19.2218 11.9683 20.7471 11.7341 22 12.3006V8.16143C22 7.63429 22 7.17954 21.9694 6.80497C21.9371 6.40963 21.8658 6.01641 21.673 5.63803C21.3854 5.07354 20.9265 4.6146 20.362 4.32698C19.9836 4.13419 19.5904 4.06287 19.195 4.03057C18.8593 4.00314 18.459 4.00031 18 4.00003V3C18 2.44772 17.5523 2 17 2C16.4477 2 16 2.44772 16 3V4H8V3ZM7 9C6.44772 9 6 9.44772 6 10C6 10.5523 6.44772 11 7 11H17C17.5523 11 18 10.5523 18 10C18 9.44772 17.5523 9 17 9H7ZM7 13C6.44772 13 6 13.4477 6 14C6 14.5523 6.44772 15 7 15H12C12.5523 15 13 14.5523 13 14C13 13.4477 12.5523 13 12 13H7Z" fill="#0000CC"/>
<path d="M21.5913 14.4125C21.0451 13.8625 20.1596 13.8625 19.6134 14.4125L15.6656 18.3878C15.2052 18.8514 14.975 19.0832 14.7891 19.346C14.6241 19.5793 14.4853 19.8303 14.3752 20.0944C14.2513 20.3919 14.1768 20.711 14.0278 21.3492L14.014 21.4081C13.9345 21.7488 14.2311 22.0584 14.5721 21.9906C15.2538 21.8549 15.5946 21.7871 15.9124 21.6622C16.1945 21.5513 16.4626 21.4072 16.7111 21.2329C16.9911 21.0366 17.2368 20.7892 17.7281 20.2945L21.5913 16.4043C22.1375 15.8542 22.1375 14.9625 21.5913 14.4125Z" fill="#0000CC"/>
</svg>
