<svg width="24" height="24" viewBox="0 0 24 24" fill="none" xmlns="http://www.w3.org/2000/svg">
<path d="M8.00001 3C8.00001 2.44772 7.55229 2 7.00001 2C6.44772 2 6.00001 2.44772 6.00001 3V4.00003C5.54097 4.00031 5.14075 4.00314 4.80498 4.03057C4.40963 4.06287 4.01641 4.13419 3.63803 4.32698C3.07355 4.6146 2.61461 5.07354 2.32699 5.63803C2.13419 6.01641 2.06288 6.40963 2.03057 6.80497C2.00314 7.14075 2.00031 7.54097 2.00003 8H22C21.9997 7.54097 21.9969 7.14075 21.9694 6.80497C21.9371 6.40963 21.8658 6.01641 21.673 5.63803C21.3854 5.07354 20.9265 4.6146 20.362 4.32698C19.9836 4.13419 19.5904 4.06287 19.195 4.03057C18.8593 4.00314 18.459 4.00031 18 4.00003V3C18 2.44772 17.5523 2 17 2C16.4477 2 16 2.44772 16 3V4H8.00001V3Z" fill="#0000CC"/>
<path fill-rule="evenodd" clip-rule="evenodd" d="M22 10H2V17.8386C1.99999 18.3657 1.99997 18.8205 2.03057 19.195C2.06288 19.5904 2.13419 19.9836 2.32699 20.362C2.61461 20.9265 3.07355 21.3854 3.63803 21.673C4.01641 21.8658 4.40963 21.9371 4.80498 21.9694C5.17954 22 5.6343 22 6.16144 22H17.8386C18.3657 22 18.8205 22 19.195 21.9694C19.5904 21.9371 19.9836 21.8658 20.362 21.673C20.9265 21.3854 21.3854 20.9265 21.673 20.362C21.8658 19.9836 21.9371 19.5904 21.9694 19.195C22 18.8205 22 18.3657 22 17.8386V10ZM6.0545 13.273C6 13.38 6 13.52 6 13.8V14.2C6 14.48 6 14.62 6.0545 14.727C6.10243 14.8211 6.17892 14.8976 6.27301 14.9455C6.37996 15 6.51997 15 6.8 15H17.2C17.48 15 17.62 15 17.727 14.9455C17.8211 14.8976 17.8976 14.8211 17.9455 14.727C18 14.62 18 14.48 18 14.2V13.8C18 13.52 18 13.38 17.9455 13.273C17.8976 13.1789 17.8211 13.1024 17.727 13.0545C17.62 13 17.48 13 17.2 13H6.8C6.51997 13 6.37996 13 6.27301 13.0545C6.17892 13.1024 6.10243 13.1789 6.0545 13.273Z" fill="#0000CC"/>
</svg>
