<svg width="24" height="24" viewBox="0 0 24 24" fill="none" xmlns="http://www.w3.org/2000/svg">
<path d="M12 3C12 2.44772 11.5523 2 11 2C10.4477 2 10 2.44774 10 3.00003C9.54097 3.00031 9.14075 3.00314 8.80497 3.03057C8.40963 3.06287 8.01641 3.13419 7.63803 3.32698C7.07354 3.6146 6.6146 4.07354 6.32698 4.63803C6.13419 5.01641 6.06287 5.40963 6.03057 5.80497C6.00314 6.14075 6.00031 6.54097 6.00003 7H22C21.9997 6.54097 21.9969 6.14075 21.9694 5.80497C21.9371 5.40963 21.8658 5.01641 21.673 4.63803C21.3854 4.07354 20.9265 3.6146 20.362 3.32698C19.9836 3.13419 19.5904 3.06287 19.195 3.03057C18.8593 3.00314 18.459 3.00028 18 3C18 2.44772 17.5523 2 17 2C16.4477 2 16 2.44772 16 3H12Z" fill="#0000CC"/>
<path d="M22 9H6V13.8385C5.99998 14.3657 5.99997 14.8205 6.03057 15.195C6.06287 15.5904 6.13419 15.9836 6.32698 16.362C6.6146 16.9265 7.07354 17.3854 7.63803 17.673C8.01641 17.8658 8.40963 17.9371 8.80497 17.9694C9.17955 18 9.63432 18 10.1615 18H17.8385C18.3657 18 18.8205 18 19.195 17.9694C19.5904 17.9371 19.9836 17.8658 20.362 17.673C20.9265 17.3854 21.3854 16.9265 21.673 16.362C21.8658 15.9836 21.9371 15.5904 21.9694 15.195C22 14.8205 22 14.3657 22 13.8386V9Z" fill="#0000CC"/>
<path d="M4 6C4 5.44772 3.55229 5 3 5C2.44772 5 2 5.44772 2 6V16.2413C1.99999 17.0463 1.99998 17.7106 2.04419 18.2518C2.09012 18.8139 2.18868 19.3306 2.43598 19.816C2.81947 20.5686 3.43139 21.1805 4.18404 21.564C4.66937 21.8113 5.18608 21.9099 5.74818 21.9558C6.28936 22 6.95372 22 7.75868 22H18C18.5523 22 19 21.5523 19 21C19 20.4477 18.5523 20 18 20H7.8C6.94342 20 6.36113 19.9992 5.91104 19.9624C5.47262 19.9266 5.24842 19.8617 5.09202 19.782C4.7157 19.5903 4.40973 19.2843 4.21799 18.908C4.1383 18.7516 4.07337 18.5274 4.03755 18.089C4.00078 17.6389 4 17.0566 4 16.2V6Z" fill="#0000CC"/>
</svg>
