<svg width="24" height="24" viewBox="0 0 24 24" fill="none" xmlns="http://www.w3.org/2000/svg">
<path d="M7 2C7.55229 2 8 2.44772 8 3V4H16V3C16 2.44772 16.4477 2 17 2C17.5523 2 18 2.44772 18 3V4.00003C18.459 4.00031 18.8593 4.00314 19.195 4.03057C19.5904 4.06287 19.9836 4.13419 20.362 4.32698C20.9265 4.6146 21.3854 5.07354 21.673 5.63803C21.8658 6.01641 21.9371 6.40963 21.9694 6.80497C22 7.17954 22 7.63429 22 8.16143V9H2V8.16142C1.99998 7.6343 1.99997 7.17952 2.03057 6.80497C2.06287 6.40963 2.13419 6.01641 2.32698 5.63803C2.6146 5.07354 3.07355 4.6146 3.63803 4.32698C4.01641 4.13419 4.40963 4.06287 4.80498 4.03057C5.14075 4.00314 5.54097 4.00031 6 4.00003V3C6 2.44772 6.44772 2 7 2Z" fill="#0000CC"/>
<path fill-rule="evenodd" clip-rule="evenodd" d="M2 11H22V17.8386C22 18.3657 22 18.8205 21.9694 19.195C21.9371 19.5904 21.8658 19.9836 21.673 20.362C21.3854 20.9265 20.9265 21.3854 20.362 21.673C19.9836 21.8658 19.5904 21.9371 19.195 21.9694C18.8205 22 18.3657 22 17.8386 22H6.16144C5.6343 22 5.17954 22 4.80498 21.9694C4.40963 21.9371 4.01641 21.8658 3.63803 21.673C3.07355 21.3854 2.6146 20.9265 2.32698 20.362C2.13419 19.9836 2.06287 19.5904 2.03057 19.195C1.99997 18.8205 1.99998 18.3657 2 17.8386V11ZM14.7071 17.7071L12.7071 19.7071C12.3166 20.0976 11.6834 20.0976 11.2929 19.7071L9.29289 17.7071C8.90237 17.3166 8.90237 16.6834 9.29289 16.2929C9.68342 15.9024 10.3166 15.9024 10.7071 16.2929L11 16.5858V13C11 12.4477 11.4477 12 12 12C12.5523 12 13 12.4477 13 13V16.5858L13.2929 16.2929C13.6834 15.9024 14.3166 15.9024 14.7071 16.2929C15.0976 16.6834 15.0976 17.3166 14.7071 17.7071Z" fill="#0000CC"/>
</svg>
