<svg width="24" height="24" viewBox="0 0 24 24" fill="none" xmlns="http://www.w3.org/2000/svg">
<path fill-rule="evenodd" clip-rule="evenodd" d="M7 2C7.55229 2 8 2.44772 8 3V4H16V3C16 2.44772 16.4477 2 17 2C17.5523 2 18 2.44772 18 3V4.00003C18.459 4.00031 18.8593 4.00314 19.195 4.03057C19.5904 4.06287 19.9836 4.13419 20.362 4.32698C20.9265 4.6146 21.3854 5.07354 21.673 5.63803C21.8658 6.01641 21.9371 6.40963 21.9694 6.80497C22 7.17954 22 7.63429 22 8.16143V17.8386C22 18.3657 22 18.8205 21.9694 19.195C21.9371 19.5904 21.8658 19.9836 21.673 20.362C21.3854 20.9265 20.9265 21.3854 20.362 21.673C19.9836 21.8658 19.5904 21.9371 19.195 21.9694C18.8205 22 18.3657 22 17.8386 22H6.16144C5.6343 22 5.17954 22 4.80498 21.9694C4.40963 21.9371 4.01641 21.8658 3.63803 21.673C3.07355 21.3854 2.6146 20.9265 2.32698 20.362C2.13419 19.9836 2.06287 19.5904 2.03057 19.195C1.99997 18.8205 1.99998 18.3657 2 17.8386V8.16142C1.99998 7.6343 1.99997 7.17952 2.03057 6.80497C2.06287 6.40963 2.13419 6.01641 2.32698 5.63803C2.6146 5.07354 3.07355 4.6146 3.63803 4.32698C4.01641 4.13419 4.40963 4.06287 4.80498 4.03057C5.14075 4.00314 5.54097 4.00031 6 4.00003V3C6 2.44772 6.44772 2 7 2ZM14.9779 10C14.9779 11.6567 13.6347 13 11.9779 13C10.3212 13 8.97792 11.6567 8.97792 10C8.97792 8.34326 10.3212 7 11.9779 7C13.6347 7 14.9779 8.34326 14.9779 10ZM17.4147 17.2154C16.4114 15.304 14.4073 14 12.0988 14C9.79026 14 7.78618 15.304 6.78282 17.2154C6.57228 17.6165 6.46701 17.817 6.50917 18.1325C6.54016 18.3644 6.73145 18.6808 6.92237 18.816C7.18209 19 7.47893 19 8.0726 19H16.1249C16.7186 19 17.0155 19 17.2752 18.816C17.4661 18.6808 17.6574 18.3644 17.6884 18.1325C17.7305 17.817 17.6253 17.6165 17.4147 17.2154Z" fill="#0000CC"/>
</svg>
