<svg width="24" height="24" viewBox="0 0 24 24" fill="none" xmlns="http://www.w3.org/2000/svg">
<g opacity="0.14">
<path d="M10.7757 3.50749C11.2276 3.32029 11.4536 3.22669 11.6874 3.18966C11.8947 3.15683 12.1058 3.15683 12.3131 3.18966C12.5469 3.22669 12.7729 3.32029 13.2248 3.5075L17.1396 5.12905C17.5916 5.31625 17.8175 5.40986 18.0091 5.54899C18.1788 5.67235 18.3282 5.82167 18.4515 5.99146C18.5907 6.18296 18.6843 6.40894 18.8715 6.86088L20.493 10.7757C20.6802 11.2276 20.7738 11.4536 20.8108 11.6874C20.8437 11.8947 20.8437 12.1058 20.8108 12.3131C20.7738 12.5469 20.6802 12.7729 20.493 13.2248L18.8715 17.1396C18.6843 17.5916 18.5907 17.8175 18.4515 18.0091C18.3282 18.1788 18.1788 18.3282 18.0091 18.4515C17.8175 18.5907 17.5916 18.6843 17.1396 18.8715L13.2248 20.493C12.7729 20.6802 12.5469 20.7738 12.3131 20.8108C12.1058 20.8437 11.8947 20.8437 11.6874 20.8108C11.4536 20.7738 11.2276 20.6802 10.7757 20.493L6.86088 18.8715C6.40894 18.6843 6.18296 18.5907 5.99146 18.4515C5.82167 18.3282 5.67235 18.1788 5.54899 18.0091C5.40986 17.8175 5.31625 17.5916 5.12905 17.1396L3.50749 13.2248C3.32029 12.7729 3.22669 12.5469 3.18966 12.3131C3.15683 12.1058 3.15683 11.8947 3.18966 11.6874C3.22669 11.4536 3.32029 11.2276 3.5075 10.7757L5.12905 6.86088C5.31625 6.40894 5.40986 6.18296 5.54899 5.99146C5.67235 5.82167 5.82167 5.67235 5.99146 5.54899C6.18296 5.40986 6.40894 5.31625 6.86088 5.12905L10.7757 3.50749Z" fill="#0000CC"/>
<path d="M10.7757 3.50749C11.2276 3.32029 11.4536 3.22669 11.6874 3.18966C11.8947 3.15683 12.1058 3.15683 12.3131 3.18966C12.5469 3.22669 12.7729 3.32029 13.2248 3.5075L17.1396 5.12905C17.5916 5.31625 17.8175 5.40986 18.0091 5.54899C18.1788 5.67235 18.3282 5.82167 18.4515 5.99146C18.5907 6.18296 18.6843 6.40894 18.8715 6.86088L20.493 10.7757C20.6802 11.2276 20.7738 11.4536 20.8108 11.6874C20.8437 11.8947 20.8437 12.1058 20.8108 12.3131C20.7738 12.5469 20.6802 12.7729 20.493 13.2248L18.8715 17.1396C18.6843 17.5916 18.5907 17.8175 18.4515 18.0091C18.3282 18.1788 18.1788 18.3282 18.0091 18.4515C17.8175 18.5907 17.5916 18.6843 17.1396 18.8715L13.2248 20.493C12.7729 20.6802 12.5469 20.7738 12.3131 20.8108C12.1058 20.8437 11.8947 20.8437 11.6874 20.8108C11.4536 20.7738 11.2276 20.6802 10.7757 20.493L6.86088 18.8715C6.40894 18.6843 6.18296 18.5907 5.99146 18.4515C5.82167 18.3282 5.67235 18.1788 5.54899 18.0091C5.40986 17.8175 5.31625 17.5916 5.12905 17.1396L3.50749 13.2248C3.32029 12.7729 3.22669 12.5469 3.18966 12.3131C3.15683 12.1058 3.15683 11.8947 3.18966 11.6874C3.22669 11.4536 3.32029 11.2276 3.5075 10.7757L5.12905 6.86088C5.31625 6.40894 5.40986 6.18296 5.54899 5.99146C5.67235 5.82167 5.82167 5.67235 5.99146 5.54899C6.18296 5.40986 6.40894 5.31625 6.86088 5.12905L10.7757 3.50749Z" fill="#0000CC"/>
</g>
<path d="M12 8.00024V13.0002M12 16.0002H12.01M5.12905 6.86088L3.5075 10.7757C3.32029 11.2276 3.22669 11.4536 3.18966 11.6874C3.15683 11.8947 3.15683 12.1058 3.18966 12.3131C3.22669 12.5469 3.32029 12.7729 3.50749 13.2248L5.12905 17.1396C5.31625 17.5916 5.40986 17.8175 5.54899 18.0091C5.67235 18.1788 5.82167 18.3282 5.99146 18.4515C6.18296 18.5907 6.40894 18.6843 6.86088 18.8715L10.7757 20.493C11.2276 20.6802 11.4536 20.7738 11.6874 20.8108C11.8947 20.8437 12.1058 20.8437 12.3131 20.8108C12.5469 20.7738 12.7729 20.6802 13.2248 20.493L17.1396 18.8715C17.5916 18.6843 17.8175 18.5907 18.0091 18.4515C18.1788 18.3282 18.3282 18.1788 18.4515 18.0091C18.5907 17.8175 18.6843 17.5916 18.8715 17.1396L20.493 13.2248C20.6802 12.7729 20.7738 12.5469 20.8108 12.3131C20.8437 12.1058 20.8437 11.8947 20.8108 11.6874C20.7738 11.4536 20.6802 11.2276 20.493 10.7757L18.8715 6.86088C18.6843 6.40894 18.5907 6.18296 18.4515 5.99146C18.3282 5.82167 18.1788 5.67235 18.0091 5.54899C17.8175 5.40986 17.5916 5.31625 17.1396 5.12905L13.2248 3.5075C12.7729 3.32029 12.5469 3.22669 12.3131 3.18966C12.1058 3.15683 11.8947 3.15683 11.6874 3.18966C11.4536 3.22669 11.2276 3.32029 10.7757 3.50749L6.86088 5.12905C6.40894 5.31625 6.18296 5.40986 5.99146 5.54899C5.82167 5.67235 5.67235 5.82167 5.54899 5.99146C5.40986 6.18296 5.31625 6.40894 5.12905 6.86088Z" stroke="#0000CC" stroke-width="2" stroke-linecap="round" stroke-linejoin="round"/>
</svg>
