<svg width="24" height="24" viewBox="0 0 24 24" fill="none" xmlns="http://www.w3.org/2000/svg">
<path d="M10 12C10 13.5 9.81941 14.4206 9.5 15.3333C8.89887 17.0511 7.77273 18 6.5 18C5.22727 18 4.11404 16.9413 3.5 15.3333C3.13593 14.3799 3 13.5 3 12C3 10.5 3.13593 9.62007 3.5 8.66667C4.11404 7.05869 5.22727 6 6.5 6C7.77273 6 8.88596 7.05869 9.5 8.66667C9.86407 9.62007 10 10.5 10 12Z" stroke="#0000CC" stroke-width="2" stroke-linecap="round" stroke-linejoin="round"/>
<path d="M21 12C21 13.5 20.8194 14.4206 20.5 15.3333C19.8989 17.0511 18.7727 18 17.5 18C16.2273 18 15.114 16.9413 14.5 15.3333C14.1359 14.3799 14 13.5 14 12C14 10.5 14.1359 9.62007 14.5 8.66667C15.114 7.05869 16.2273 6 17.5 6C18.7727 6 19.886 7.05869 20.5 8.66667C20.8641 9.62007 21 10.5 21 12Z" stroke="#0000CC" stroke-width="2" stroke-linecap="round" stroke-linejoin="round"/>
</svg>
