<svg width="24" height="24" viewBox="0 0 24 24" fill="none" xmlns="http://www.w3.org/2000/svg">
<path d="M12.0002 12V14C13.1048 14 14.0002 13.1046 14.0002 12H12.0002ZM12.0002 12H10.0002C10.0002 13.1046 10.8956 14 12.0002 14V12ZM12.0002 12V10C10.8956 10 10.0002 10.8954 10.0002 12H12.0002ZM12.0002 12H14.0002C14.0002 10.8954 13.1048 10 12.0002 10V12ZM12.0002 13H12.0102V11H12.0002V13ZM14.8286 14.8284C12.7579 16.8991 10.5345 18.3566 8.64907 19.0637C6.67076 19.8056 5.45764 19.5996 4.92913 19.0711L3.51492 20.4853C4.93902 21.9094 7.23488 21.73 9.35132 20.9363C11.5606 20.1079 14.0178 18.4677 16.2428 16.2427L14.8286 14.8284ZM4.92913 19.0711C4.40061 18.5426 4.19466 17.3295 4.93653 15.3511C5.64358 13.4657 7.10106 11.2423 9.17177 9.17159L7.75756 7.75737C5.5325 9.98243 3.89235 12.4396 3.06387 14.6489C2.2702 16.7653 2.09081 19.0612 3.51492 20.4853L4.92913 19.0711ZM9.17177 9.17159C11.2425 7.10088 13.4658 5.64339 15.3513 4.93634C17.3296 4.19447 18.5427 4.40043 19.0713 4.92895L20.4855 3.51473C19.0614 2.09063 16.7655 2.27002 14.6491 3.06368C12.4398 3.89217 9.98262 5.53231 7.75756 7.75737L9.17177 9.17159ZM19.0713 4.92895C19.5998 5.45746 19.8057 6.67057 19.0639 8.64889C18.3568 10.5344 16.8993 12.7577 14.8286 14.8284L16.2428 16.2427C18.4679 14.0176 20.108 11.5604 20.9365 9.35114C21.7302 7.2347 21.9096 4.93884 20.4855 3.51473L19.0713 4.92895ZM14.8286 9.17159C16.8993 11.2423 18.3568 13.4657 19.0639 15.3511C19.8057 17.3295 19.5998 18.5426 19.0713 19.0711L20.4855 20.4853C21.9096 19.0612 21.7302 16.7653 20.9365 14.6489C20.108 12.4396 18.4679 9.98243 16.2428 7.75737L14.8286 9.17159ZM19.0713 19.0711C18.5427 19.5996 17.3296 19.8056 15.3513 19.0637C13.4658 18.3566 11.2425 16.8991 9.17177 14.8284L7.75756 16.2427C9.98262 18.4677 12.4398 20.1079 14.6491 20.9363C16.7655 21.73 19.0614 21.9094 20.4855 20.4853L19.0713 19.0711ZM9.17177 14.8284C7.10106 12.7577 5.64358 10.5344 4.93653 8.64889C4.19466 6.67057 4.40061 5.45746 4.92913 4.92895L3.51491 3.51473C2.09081 4.93884 2.2702 7.2347 3.06387 9.35114C3.89235 11.5604 5.5325 14.0176 7.75756 16.2427L9.17177 14.8284ZM4.92913 4.92895C5.45764 4.40043 6.67076 4.19447 8.64907 4.93634C10.5345 5.64339 12.7579 7.10088 14.8286 9.17159L16.2428 7.75737C14.0178 5.53231 11.5606 3.89217 9.35132 3.06368C7.23488 2.27002 4.93902 2.09063 3.51491 3.51473L4.92913 4.92895Z" fill="#0000CC"/>
</svg>
