<svg width="24" height="24" viewBox="0 0 24 24" fill="none" xmlns="http://www.w3.org/2000/svg">
<path d="M4.65511 9.87604C3.74757 10.6021 3.2938 10.9651 3.12952 11.4036C2.98547 11.7882 2.98547 12.2118 3.12952 12.5964C3.2938 13.0349 3.74757 13.3979 4.65511 14.124L9.40064 17.9204C10.2328 18.5861 10.6489 18.919 10.9991 18.9194C11.3036 18.9197 11.5917 18.7812 11.7817 18.5432C12.0002 18.2696 12.0002 17.7367 12.0002 16.671V7.329C12.0002 6.2633 12.0002 5.73045 11.7817 5.45678C11.5917 5.21876 11.3036 5.0803 10.9991 5.08063C10.6489 5.08101 10.2328 5.41387 9.40064 6.07961L4.65511 9.87604Z" stroke="#0000CC" stroke-width="2" stroke-linejoin="round"/>
<path d="M14.1236 9.50122C13.0559 10.3554 12.5221 10.7825 12.3288 11.2984C12.1594 11.7508 12.1594 12.2492 12.3288 12.7016C12.5221 13.2176 13.0559 13.6446 14.1236 14.4988L18.4006 17.9204C19.2328 18.5861 19.6489 18.919 19.9991 18.9194C20.3036 18.9197 20.5917 18.7812 20.7817 18.5432C21.0002 18.2696 21.0002 17.7367 21.0002 16.671V7.329C21.0002 6.2633 21.0002 5.73045 20.7817 5.45678C20.5917 5.21876 20.3036 5.0803 19.9991 5.08063C19.6489 5.08101 19.2328 5.41387 18.4006 6.07961L14.1236 9.50122Z" stroke="#0000CC" stroke-width="2" stroke-linejoin="round"/>
</svg>
