<svg width="24" height="24" viewBox="0 0 24 24" fill="none" xmlns="http://www.w3.org/2000/svg">
<path d="M22.0008 12C22.0008 8.71487 20.4167 5.79972 17.9707 3.97675C17.9906 4.1484 18 4.32301 18 4.5C18 6.81627 16.25 8.72381 14 8.97254V5L13 7H11L10 5V8.97254C7.75002 8.72381 6 6.81627 6 4.5C6 4.32301 6.01022 4.1484 6.0301 3.97675C3.58409 5.79972 2 8.71487 2 12C2 13.178 2.20406 14.3084 2.57812 15.3579C3.00138 15.1296 3.48575 15 4.00038 15C5.58039 15 6.87512 16.2214 6.99182 17.7716C7.52359 17.292 8.22826 17 9.00075 17C10.6576 17 12.0008 18.3431 12.0008 20C12.0008 18.3431 13.3431 17 15 17C15.7725 17 16.4768 17.292 17.0086 17.7716C17.1253 16.2214 18.4212 15 20.0012 15C20.5158 15 20.9998 15.1296 21.4231 15.3579C21.7971 14.3084 22.0008 13.178 22.0008 12Z" stroke="#0000CC" stroke-width="2" stroke-linecap="round" stroke-linejoin="round"/>
</svg>
