<svg width="24" height="24" viewBox="0 0 24 24" fill="none" xmlns="http://www.w3.org/2000/svg">
<path d="M19 17V18H20V17H19ZM17.908 3.21799L17.454 4.10899L17.454 4.10899L17.908 3.21799ZM18.782 4.09202L17.891 4.54601V4.54601L18.782 4.09202ZM6.09202 3.21799L5.63803 2.32698L5.63803 2.32698L6.09202 3.21799ZM5.21799 4.09202L4.32698 3.63803L4.32698 3.63803L5.21799 4.09202ZM19 22C19.5523 22 20 21.5523 20 21C20 20.4477 19.5523 20 19 20V22ZM19 17C19 16.4477 18.5523 16 18 16C17.4477 16 17 16.4477 17 17H19ZM17 21C17 21.5523 17.4477 22 18 22C18.5523 22 19 21.5523 19 21H17ZM8.68377 13.0513C8.15983 13.226 7.87667 13.7923 8.05132 14.3162C8.22596 14.8402 8.79228 15.1233 9.31623 14.9487L8.68377 13.0513ZM15.3162 12.9487C15.8402 12.774 16.1233 12.2077 15.9487 11.6838C15.774 11.1598 15.2077 10.8767 14.6838 11.0513L15.3162 12.9487ZM14.6838 14.9487C15.2077 15.1233 15.774 14.8402 15.9487 14.3162C16.1233 13.7923 15.8402 13.226 15.3162 13.0513L14.6838 14.9487ZM9.31623 11.0513C8.79228 10.8767 8.22596 11.1598 8.05132 11.6838C7.87667 12.2077 8.15983 12.774 8.68377 12.9487L9.31623 11.0513ZM13.3948 8.58532L12.8804 7.72783H12.8804L13.3948 8.58532ZM14 8.22223L14.5145 9.07972L15 8.78842V8.22223H14ZM10.6052 8.58532L10.0907 9.44281L10.6052 8.58532ZM10 8.22223H9V8.78842L9.4855 9.07972L10 8.22223ZM8.2 4H15.8V2H8.2V4ZM18 6.2V17H20V6.2H18ZM6 19V6.2H4V19H6ZM15.8 4C16.3766 4 16.7488 4.00078 17.0322 4.02393C17.3038 4.04612 17.4045 4.0838 17.454 4.10899L18.362 2.32698C17.9836 2.13419 17.5904 2.06287 17.195 2.03057C16.8114 1.99922 16.3436 2 15.8 2V4ZM20 6.2C20 5.65645 20.0008 5.18864 19.9694 4.80497C19.9371 4.40963 19.8658 4.01641 19.673 3.63803L17.891 4.54601C17.9162 4.59545 17.9539 4.69617 17.9761 4.96784C17.9992 5.25117 18 5.62345 18 6.2H20ZM17.454 4.10899C17.6422 4.20487 17.7951 4.35785 17.891 4.54601L19.673 3.63803C19.3854 3.07354 18.9265 2.6146 18.362 2.32698L17.454 4.10899ZM8.2 2C7.65645 2 7.18864 1.99922 6.80497 2.03057C6.40963 2.06287 6.01641 2.13419 5.63803 2.32698L6.54601 4.10899C6.59545 4.0838 6.69617 4.04612 6.96784 4.02393C7.25117 4.00078 7.62345 4 8.2 4V2ZM6 6.2C6 5.62345 6.00078 5.25117 6.02393 4.96784C6.04612 4.69617 6.0838 4.59545 6.10899 4.54601L4.32698 3.63803C4.13419 4.01641 4.06287 4.40963 4.03057 4.80497C3.99922 5.18864 4 5.65645 4 6.2H6ZM5.63803 2.32698C5.07354 2.6146 4.6146 3.07354 4.32698 3.63803L6.10899 4.54601C6.20487 4.35785 6.35785 4.20487 6.54601 4.10899L5.63803 2.32698ZM7 18H19V16H7V18ZM19 20H7V22H19V20ZM7 20C6.44772 20 6 19.5523 6 19H4C4 20.6569 5.34315 22 7 22V20ZM7 16C5.34315 16 4 17.3431 4 19H6C6 18.4477 6.44772 18 7 18V16ZM17 17V21H19V17H17ZM9.31623 14.9487L15.3162 12.9487L14.6838 11.0513L8.68377 13.0513L9.31623 14.9487ZM15.3162 13.0513L9.31623 11.0513L8.68377 12.9487L14.6838 14.9487L15.3162 13.0513ZM11.6322 11H12.3678V9.00001H11.6322V11ZM13.9093 9.44281L14.5145 9.07972L13.4855 7.36474L12.8804 7.72783L13.9093 9.44281ZM11.1196 7.72783L10.5145 7.36474L9.4855 9.07972L10.0907 9.44281L11.1196 7.72783ZM12.1111 9.47894C12.1111 8.76162 11.7347 8.09689 11.1196 7.72783L10.0907 9.44281C10.1033 9.45043 10.1111 9.46414 10.1111 9.47894H12.1111ZM13.8889 9.47894C13.8889 9.46414 13.8967 9.45043 13.9093 9.44281L12.8804 7.72783C12.2653 8.09689 11.8889 8.76162 11.8889 9.47894H13.8889ZM12.3678 11C13.2079 11 13.8889 10.319 13.8889 9.47894H11.8889C11.8889 9.21443 12.1033 9.00001 12.3678 9.00001V11ZM11.6322 9.00001C11.8967 9.00001 12.1111 9.21443 12.1111 9.47894H10.1111C10.1111 10.319 10.7921 11 11.6322 11V9.00001ZM11 8C11 7.44772 11.4477 7 12 7V5C10.3431 5 9 6.34315 9 8H11ZM12 7C12.5523 7 13 7.44772 13 8H15C15 6.34315 13.6569 5 12 5V7ZM9 8V8.22223H11V8H9ZM13 8V8.22223H15V8H13Z" fill="#0000CC"/>
</svg>
