<svg width="24" height="24" viewBox="0 0 24 24" fill="none" xmlns="http://www.w3.org/2000/svg">
<path d="M4.9997 10H7.9997M15.9997 10H18.9997M15.4997 21H19.4997L19.9576 19.7789C20.6344 17.9741 20.7139 15.9997 20.1844 14.1463L19.3216 11.1266C19.108 10.3792 18.9997 9.60566 18.9997 8.82836C18.9997 8.27747 19.0541 7.72792 19.1622 7.18773L19.4016 5.99029C19.4664 5.66664 19.4664 5.33336 19.4016 5.00971L19.2939 4.47087C19.1228 3.61562 18.3719 3 17.4997 3C16.6275 3 15.8766 3.61562 15.7055 4.47087L15.5978 5.00971C15.533 5.33336 15.533 5.66664 15.5978 5.99029L15.8372 7.18773C15.9453 7.72792 15.9997 8.27747 15.9997 8.82836C15.9997 9.60566 15.8914 10.3792 15.6778 11.1266L14.815 14.1463C14.2855 15.9997 14.365 17.9741 15.0418 19.7789L15.4997 21ZM4.4997 21H8.4997L8.9576 19.7789C9.63441 17.9741 9.71389 15.9997 9.18436 14.1463L8.32157 11.1266C8.10803 10.3792 7.9997 9.60566 7.9997 8.82836C7.9997 8.27747 8.05411 7.72792 8.16215 7.18773L8.40164 5.99029C8.46637 5.66664 8.46637 5.33336 8.40164 5.00971L8.29387 4.47087C8.12282 3.61562 7.37188 3 6.4997 3C5.62751 3 4.87657 3.61562 4.70552 4.47087L4.59775 5.00971C4.53302 5.33336 4.53302 5.66664 4.59775 5.99029L4.83724 7.18773C4.94528 7.72792 4.9997 8.27747 4.9997 8.82836C4.9997 9.60566 4.89136 10.3792 4.67782 11.1266L3.81504 14.1463C3.2855 15.9997 3.36499 17.9741 4.04179 19.7789L4.4997 21Z" stroke="#0000CC" stroke-width="2" stroke-linecap="round" stroke-linejoin="round"/>
</svg>
