<svg width="24" height="24" viewBox="0 0 24 24" fill="none" xmlns="http://www.w3.org/2000/svg">
<path d="M14.1012 15.5245L17.9249 13.1447C18.0647 13.0573 18.1993 12.9646 18.3286 12.8671M14.1012 15.5245L9.85234 18.1689M14.1012 15.5245L10.2932 13.1969M9.85234 18.1689L6.19512 20.4451C5.24213 21.0382 3.99228 20.7888 3.33987 19.8754C2.61806 18.8648 2.91178 17.4533 3.97681 16.8146L15.7786 9.73619C16.4877 9.31087 16.7127 8.38929 16.2818 7.6856M9.85234 18.1689L6.05295 15.8465M18.3286 12.8671C20.5789 11.1689 21.1968 8.00197 19.6746 5.56586C18.0649 2.98985 14.6717 2.20648 12.0957 3.81615L10.8237 4.61103L12.9428 8.00324L14.2265 7.2011C14.9226 6.76611 15.8396 6.97781 16.2746 7.67394C16.277 7.67782 16.2794 7.68171 16.2818 7.6856M18.3286 12.8671L14.5334 10.5473M16.2818 7.6856L20.4154 8.63991M16.0002 7.34896V3.15622" stroke="#0000CC" stroke-width="2" stroke-linecap="round" stroke-linejoin="round"/>
</svg>
