<svg width="24" height="24" viewBox="0 0 24 24" fill="none" xmlns="http://www.w3.org/2000/svg">
<path d="M13.2748 8.96186C13.6935 8.84247 14 8.45708 14 8.00009C14 7.44781 13.5523 7.00009 13 7.00009C12.4477 7.00009 12 7.44781 12 8.00009C12 8.27623 12.1119 8.52623 12.2929 8.7072M13.2748 8.96186C13.1875 8.98676 13.0953 9.00009 13 9.00009C12.7239 9.00009 12.4739 8.88816 12.2929 8.7072M13.2748 8.96186L14.7252 14.0383M12.2929 8.7072L8.70711 12.293M14.7252 14.0383C14.8125 14.0134 14.9047 14.0001 15 14.0001C15.5523 14.0001 16 14.4478 16 15.0001C16 15.5524 15.5523 16.0001 15 16.0001C14.4477 16.0001 14 15.5524 14 15.0001C14 14.9048 14.0133 14.8126 14.0382 14.7253M14.7252 14.0383C14.3938 14.1328 14.1327 14.3939 14.0382 14.7253M14.0382 14.7253L8.96177 13.2749M8.96177 13.2749C8.98667 13.1876 9 13.0954 9 13.0001C9 12.7239 8.88807 12.4739 8.70711 12.293M8.96177 13.2749C8.84238 13.6936 8.45699 14.0001 8 14.0001C7.44772 14.0001 7 13.5524 7 13.0001C7 12.4478 7.44772 12.0001 8 12.0001C8.27614 12.0001 8.52614 12.112 8.70711 12.293M8.84769 20.6604H15.1526C15.8257 20.6604 16.1622 20.6604 16.4635 20.5625C16.7301 20.4759 16.9754 20.3342 17.1837 20.1466C17.4191 19.9347 17.5874 19.6432 17.9239 19.0604L21.0764 13.6001C21.4129 13.0172 21.5812 12.7258 21.6471 12.4159C21.7053 12.1418 21.7053 11.8584 21.6471 11.5843C21.5812 11.2744 21.4129 10.983 21.0764 10.4001L17.9239 4.93984C17.5874 4.35696 17.4191 4.06551 17.1837 3.85355C16.9754 3.66601 16.7301 3.52434 16.4635 3.43773C16.1622 3.33984 15.8257 3.33984 15.1526 3.33984H8.84769C8.17463 3.33984 7.8381 3.33984 7.53684 3.43773C7.27028 3.52434 7.0249 3.66601 6.81661 3.85355C6.5812 4.06551 6.41294 4.35696 6.07641 4.93984L2.92393 10.4001C2.5874 10.983 2.41914 11.2744 2.35328 11.5843C2.295 11.8584 2.295 12.1418 2.35328 12.4159C2.41914 12.7258 2.5874 13.0172 2.92393 13.6001L6.07641 19.0604C6.41294 19.6432 6.5812 19.9347 6.81661 20.1466C7.0249 20.3342 7.27028 20.4759 7.53684 20.5625C7.8381 20.6604 8.17463 20.6604 8.84769 20.6604Z" stroke="#0000CC" stroke-width="2" stroke-linecap="round" stroke-linejoin="round"/>
</svg>
