<svg width="24" height="24" viewBox="0 0 24 24" fill="none" xmlns="http://www.w3.org/2000/svg">
<path d="M16.7351 4.40025C18.937 5.99014 20.9985 8.95325 20.9985 11.7896C20.9985 16.5988 16.9093 20.4974 11.8651 20.4974C8.70498 20.4974 5.3524 17.6532 3.71259 15.3276M16.7351 4.40025C18.5101 6.51563 17.0338 10.6767 13.4377 13.6942C9.84154 16.7117 5.4876 17.443 3.71259 15.3276M16.7351 4.40025C14.9601 2.28488 10.6059 3.01622 7.0098 6.03373C3.41367 9.05125 1.93758 13.2122 3.71259 15.3276M12.9984 20.4309L11.9984 18.9973M18.1465 18.1108L16.4984 16.4973M20.8891 13.14L19.4984 11.9973M13.6497 6.42217C14.4308 7.20322 13.481 9.4193 11.5284 11.3719C9.57578 13.3245 7.35971 14.2743 6.57866 13.4932C5.79761 12.7122 6.74736 10.4961 8.69998 8.54349C10.6526 6.59087 12.8687 5.64112 13.6497 6.42217Z" stroke="#0000CC" stroke-width="2" stroke-linecap="round" stroke-linejoin="round"/>
</svg>
