<svg width="24" height="24" viewBox="0 0 24 24" fill="none" xmlns="http://www.w3.org/2000/svg">
<path d="M6.65625 19.2441C7.99157 17.0323 9.87573 15.2032 12.126 13.934C14.3764 12.6648 16.9164 11.9986 19.5 12C20.0053 12 20.5059 12.0253 21 12.0741M17.6244 4.97717C16.2193 6.70423 14.4467 8.09614 12.4356 9.05154C10.4246 10.0069 8.22581 10.5018 5.99937 10.5C5.05061 10.5002 4.10392 10.4111 3.17188 10.2337M8.05664 3.90845C10.3123 5.23162 12.1826 7.12183 13.4818 9.39137C14.7811 11.6609 15.464 14.2308 15.4629 16.8459C15.4637 18.0714 15.3148 19.2923 15.0195 20.4816M21 12C21 16.9706 16.9706 21 12 21C7.02944 21 3 16.9706 3 12C3 7.02944 7.02944 3 12 3C16.9706 3 21 7.02944 21 12Z" stroke="#0000CC" stroke-width="2" stroke-linecap="round" stroke-linejoin="round"/>
</svg>
