<svg width="24" height="24" viewBox="0 0 24 24" fill="none" xmlns="http://www.w3.org/2000/svg">
<path d="M10.748 8.66374C11.1145 8.25065 11.0768 7.6186 10.6637 7.25203C10.2506 6.88546 9.6186 6.92317 9.25203 7.33626L10.748 8.66374ZM6.68778 9.04999C6.1631 9.22242 5.87756 9.78754 6.04999 10.3122C6.22242 10.8369 6.78754 11.1224 7.31222 10.95L6.68778 9.04999ZM14.748 7.33626C14.3814 6.92317 13.7494 6.88546 13.3363 7.25203C12.9232 7.6186 12.8855 8.25065 13.252 8.66374L14.748 7.33626ZM16.6878 10.95C17.2125 11.1224 17.7776 10.8369 17.95 10.3122C18.1224 9.78754 17.8369 9.22242 17.3122 9.04999L16.6878 10.95ZM8.09968 16.3022L9.08963 16.4437L8.09968 16.3022ZM8.68813 16.8515L8.8869 17.8315L8.68813 16.8515ZM15.9003 16.3022L14.9104 16.4437L15.9003 16.3022ZM15.3119 16.8515L15.5107 15.8715L15.3119 16.8515ZM20 12C20 16.4183 16.4183 20 12 20V22C17.5228 22 22 17.5228 22 12H20ZM12 20C7.58172 20 4 16.4183 4 12H2C2 17.5228 6.47715 22 12 22V20ZM4 12C4 7.58172 7.58172 4 12 4V2C6.47715 2 2 6.47715 2 12H4ZM12 4C16.4183 4 20 7.58172 20 12H22C22 6.47715 17.5228 2 12 2V4ZM9.25203 7.33626C8.54146 8.13701 7.66068 8.73025 6.68778 9.04999L7.31222 10.95C8.64395 10.5123 9.81911 9.71047 10.748 8.66374L9.25203 7.33626ZM13.252 8.66374C14.1809 9.71047 15.356 10.5123 16.6878 10.95L17.3122 9.04999C16.3393 8.73025 15.4585 8.13701 14.748 7.33626L13.252 8.66374ZM11.9072 14H12.0928V12H11.9072V14ZM15.5107 15.8715C14.6767 15.7023 13.1623 15.4286 12 15.4286V17.4286C12.9402 17.4286 14.2775 17.6621 15.1131 17.8315L15.5107 15.8715ZM12 15.4286C10.8377 15.4286 9.32327 15.7023 8.48935 15.8715L8.8869 17.8315C9.72252 17.6621 11.0598 17.4286 12 17.4286V15.4286ZM7.10973 16.1608C6.9618 17.1963 7.8936 18.033 8.8869 17.8315L8.48935 15.8715C8.81875 15.8046 9.14176 16.0788 9.08963 16.4437L7.10973 16.1608ZM14.9104 16.4437C14.8582 16.0788 15.1812 15.8046 15.5107 15.8715L15.1131 17.8315C16.1064 18.033 17.0382 17.1963 16.8903 16.1608L14.9104 16.4437ZM12.0928 14C13.5092 14 14.7101 15.0415 14.9104 16.4437L16.8903 16.1608C16.5492 13.7734 14.5045 12 12.0928 12V14ZM11.9072 12C9.49549 12 7.4508 13.7734 7.10973 16.1608L9.08963 16.4437C9.28994 15.0415 10.4908 14 11.9072 14V12Z" fill="#0000CC"/>
</svg>
