<svg width="24" height="24" viewBox="0 0 24 24" fill="none" xmlns="http://www.w3.org/2000/svg">
<path d="M9 16C8.44772 16 8 16.4477 8 17C8 17.5523 8.44772 18 9 18V16ZM15 18C15.5523 18 16 17.5523 16 17C16 16.4477 15.5523 16 15 16V18ZM7 7C6.44772 7 6 7.44772 6 8C6 8.55228 6.44772 9 7 9V7ZM10 9C10.5523 9 11 8.55228 11 8C11 7.44772 10.5523 7 10 7V9ZM13.4 7.2C12.9582 7.53137 12.8686 8.15817 13.2 8.6C13.5314 9.04183 14.1582 9.13137 14.6 8.8L13.4 7.2ZM14.5578 7.58167L13.9578 6.78167L14.5578 7.58167ZM16.1679 8.5547C16.4743 9.01423 17.0952 9.1384 17.5547 8.83205C18.0142 8.5257 18.1384 7.90483 17.8321 7.4453L16.1679 8.5547ZM9.30078 10.3C8.7485 10.3 8.30078 10.7478 8.30078 11.3C8.30078 11.8523 8.7485 12.3 9.30078 12.3V10.3ZM9.30978 12.3C9.86207 12.3 10.3098 11.8523 10.3098 11.3C10.3098 10.7478 9.86207 10.3 9.30978 10.3V12.3ZM14.6914 10.3C14.1391 10.3 13.6914 10.7478 13.6914 11.3C13.6914 11.8523 14.1391 12.3 14.6914 12.3V10.3ZM14.7004 12.3C15.2527 12.3 15.7004 11.8523 15.7004 11.3C15.7004 10.7478 15.2527 10.3 14.7004 10.3V12.3ZM20 12C20 16.4183 16.4183 20 12 20V22C17.5228 22 22 17.5228 22 12H20ZM12 20C7.58172 20 4 16.4183 4 12H2C2 17.5228 6.47715 22 12 22V20ZM4 12C4 7.58172 7.58172 4 12 4V2C6.47715 2 2 6.47715 2 12H4ZM12 4C16.4183 4 20 7.58172 20 12H22C22 6.47715 17.5228 2 12 2V4ZM9 18H15V16H9V18ZM7 9H10V7H7V9ZM14.6 8.8L15.1578 8.38167L13.9578 6.78167L13.4 7.2L14.6 8.8ZM15.1578 8.38167C15.4817 8.13869 15.9433 8.21775 16.1679 8.5547L17.8321 7.4453C16.9705 6.15302 15.2003 5.84979 13.9578 6.78167L15.1578 8.38167ZM8.85156 11.35C8.85156 11.0738 9.07542 10.85 9.35156 10.85V12.85C10.18 12.85 10.8516 12.1784 10.8516 11.35H8.85156ZM9.35156 10.85C9.62771 10.85 9.85156 11.0738 9.85156 11.35H7.85156C7.85156 12.1784 8.52313 12.85 9.35156 12.85V10.85ZM9.85156 11.35C9.85156 11.6261 9.62771 11.85 9.35156 11.85V9.84998C8.52313 9.84998 7.85156 10.5215 7.85156 11.35H9.85156ZM9.35156 11.85C9.07542 11.85 8.85156 11.6261 8.85156 11.35H10.8516C10.8516 10.5215 10.18 9.84998 9.35156 9.84998V11.85ZM9.30078 12.3H9.30978V10.3H9.30078V12.3ZM14.15 11.3C14.15 10.9962 14.3962 10.75 14.7 10.75V12.75C15.5008 12.75 16.15 12.1008 16.15 11.3H14.15ZM14.7 10.75C15.0038 10.75 15.25 10.9962 15.25 11.3H13.25C13.25 12.1008 13.8992 12.75 14.7 12.75V10.75ZM15.25 11.3C15.25 11.6037 15.0038 11.85 14.7 11.85V9.84998C13.8992 9.84998 13.25 10.4992 13.25 11.3H15.25ZM14.7 11.85C14.3962 11.85 14.15 11.6037 14.15 11.3H16.15C16.15 10.4992 15.5008 9.84998 14.7 9.84998V11.85ZM14.6914 12.3H14.7004V10.3H14.6914V12.3Z" fill="#0000CC"/>
</svg>
