<svg width="24" height="24" viewBox="0 0 24 24" fill="none" xmlns="http://www.w3.org/2000/svg">
<path d="M21 12C21 16.9706 16.9706 21 12 21C7.02944 21 3 16.9706 3 12C3 7.02944 7.02944 3 12 3C16.9706 3 21 7.02944 21 12Z" stroke="#0000CC" stroke-width="2" stroke-linecap="round" stroke-linejoin="round"/>
<path d="M12 18C14.0083 18 17 16.2091 17 14C17 14 14.1595 15 12 15C9.84049 15 7 14 7 14C7 16.2091 9.99169 18 12 18Z" stroke="#0000CC" stroke-width="2" stroke-linecap="round" stroke-linejoin="round"/>
<path d="M7.82728 7.95846C8.01235 7.55723 8.10488 7.35661 8.22174 7.27834C8.39011 7.16556 8.60989 7.16556 8.77826 7.27834C8.89512 7.35661 8.98765 7.55723 9.17272 7.95846C9.22761 8.07745 9.25505 8.13695 9.29379 8.18505C9.34942 8.25413 9.42241 8.30716 9.50529 8.33872C9.56301 8.3607 9.62808 8.36841 9.75821 8.38384C10.197 8.43587 10.4164 8.46188 10.5269 8.54883C10.6862 8.67411 10.7541 8.88313 10.6989 9.07811C10.6606 9.21343 10.4984 9.36343 10.174 9.66343C10.0778 9.75241 10.0297 9.79689 9.99588 9.8486C9.94738 9.92285 9.9195 10.0087 9.9151 10.0972C9.91203 10.1589 9.9248 10.2232 9.95034 10.3517C10.0365 10.7851 10.0795 11.0018 10.031 11.1338C9.96105 11.324 9.78324 11.4532 9.58075 11.4609C9.4402 11.4663 9.24742 11.3584 8.86186 11.1426C8.7475 11.0785 8.69033 11.0465 8.63072 11.0304C8.54511 11.0072 8.45489 11.0072 8.36928 11.0304C8.30967 11.0465 8.2525 11.0785 8.13814 11.1426C7.75258 11.3584 7.5598 11.4663 7.41925 11.4609C7.21676 11.4532 7.03895 11.324 6.96902 11.1338C6.92049 11.0018 6.96355 10.7851 7.04966 10.3517C7.0752 10.2232 7.08797 10.1589 7.0849 10.0972C7.0805 10.0087 7.05262 9.92285 7.00412 9.8486C6.97034 9.79689 6.92223 9.75241 6.82602 9.66343C6.50162 9.36343 6.33942 9.21343 6.30109 9.07811C6.24586 8.88313 6.31378 8.67411 6.47306 8.54883C6.58361 8.46188 6.803 8.43587 7.24179 8.38384C7.37192 8.36841 7.43699 8.3607 7.49471 8.33872C7.57759 8.30716 7.65058 8.25413 7.70621 8.18505C7.74495 8.13695 7.77239 8.07745 7.82728 7.95846Z" stroke="#0000CC" stroke-width="2" stroke-linecap="round" stroke-linejoin="round"/>
<path d="M14.8273 7.95846C15.0123 7.55723 15.1049 7.35661 15.2217 7.27834C15.3901 7.16556 15.6099 7.16556 15.7783 7.27834C15.8951 7.35661 15.9877 7.55723 16.1727 7.95846C16.2276 8.07745 16.2551 8.13695 16.2938 8.18505C16.3494 8.25413 16.4224 8.30716 16.5053 8.33872C16.563 8.3607 16.6281 8.36841 16.7582 8.38384C17.197 8.43587 17.4164 8.46188 17.5269 8.54883C17.6862 8.67411 17.7541 8.88313 17.6989 9.07811C17.6606 9.21343 17.4984 9.36343 17.174 9.66343C17.0778 9.75241 17.0297 9.79689 16.9959 9.8486C16.9474 9.92285 16.9195 10.0087 16.9151 10.0972C16.912 10.1589 16.9248 10.2232 16.9503 10.3517C17.0365 10.7851 17.0795 11.0018 17.031 11.1338C16.9611 11.324 16.7832 11.4532 16.5807 11.4609C16.4402 11.4663 16.2474 11.3584 15.8619 11.1426C15.7475 11.0785 15.6903 11.0465 15.6307 11.0304C15.5451 11.0072 15.4549 11.0072 15.3693 11.0304C15.3097 11.0465 15.2525 11.0785 15.1381 11.1426C14.7526 11.3584 14.5598 11.4663 14.4193 11.4609C14.2168 11.4532 14.0389 11.324 13.969 11.1338C13.9205 11.0018 13.9635 10.7851 14.0497 10.3517C14.0752 10.2232 14.088 10.1589 14.0849 10.0972C14.0805 10.0087 14.0526 9.92285 14.0041 9.8486C13.9703 9.79689 13.9222 9.75241 13.826 9.66343C13.5016 9.36343 13.3394 9.21343 13.3011 9.07811C13.2459 8.88313 13.3138 8.67411 13.4731 8.54883C13.5836 8.46188 13.803 8.43587 14.2418 8.38384C14.3719 8.36841 14.437 8.3607 14.4947 8.33872C14.5776 8.30716 14.6506 8.25413 14.7062 8.18505C14.7449 8.13695 14.7724 8.07745 14.8273 7.95846Z" stroke="#0000CC" stroke-width="2" stroke-linecap="round" stroke-linejoin="round"/>
</svg>
