<svg width="24" height="24" viewBox="0 0 24 24" fill="none" xmlns="http://www.w3.org/2000/svg">
<path d="M17 14H18C18 13.6756 17.8426 13.3714 17.5779 13.1839C17.3131 12.9964 16.9739 12.949 16.6679 13.0567L17 14ZM7 14L7.33207 13.0567C7.02608 12.949 6.68685 12.9964 6.42211 13.1839C6.15736 13.3714 6 13.6756 6 14H7ZM16.6838 11.9487C17.2077 12.1233 17.774 11.8402 17.9487 11.3162C18.1233 10.7923 17.8402 10.226 17.3162 10.0513L16.6838 11.9487ZM14 10L13.5528 9.10557C13.191 9.28645 12.9738 9.66744 13.0025 10.0709C13.0312 10.4743 13.3001 10.8208 13.6838 10.9487L14 10ZM17.4472 9.39443C17.9412 9.14744 18.1414 8.54676 17.8944 8.05279C17.6474 7.55881 17.0468 7.35858 16.5528 7.60557L17.4472 9.39443ZM6.68377 10.0513C6.15983 10.226 5.87667 10.7923 6.05132 11.3162C6.22596 11.8402 6.79228 12.1233 7.31623 11.9487L6.68377 10.0513ZM10 10L10.3162 10.9487C10.6999 10.8208 10.9688 10.4743 10.9975 10.0709C11.0262 9.66744 10.809 9.28645 10.4472 9.10557L10 10ZM7.44721 7.60557C6.95324 7.35858 6.35256 7.55881 6.10557 8.05279C5.85858 8.54676 6.05881 9.14744 6.55279 9.39443L7.44721 7.60557ZM20 12C20 16.4183 16.4183 20 12 20V22C17.5228 22 22 17.5228 22 12H20ZM12 20C7.58172 20 4 16.4183 4 12H2C2 17.5228 6.47715 22 12 22V20ZM4 12C4 7.58172 7.58172 4 12 4V2C6.47715 2 2 6.47715 2 12H4ZM12 4C16.4183 4 20 7.58172 20 12H22C22 6.47715 17.5228 2 12 2V4ZM16 14C16 14.6425 15.5468 15.3807 14.6664 16.0187C13.8004 16.6462 12.7512 17 12 17V19C13.2571 19 14.708 18.4584 15.8399 17.6382C16.9573 16.8285 18 15.5666 18 14H16ZM12 17C11.2488 17 10.1996 16.6462 9.33364 16.0187C8.45316 15.3807 8 14.6425 8 14H6C6 15.5666 7.04268 16.8285 8.16012 17.6382C9.29205 18.4584 10.7429 19 12 19V17ZM17 14C16.6679 13.0567 16.668 13.0567 16.6681 13.0567C16.6681 13.0567 16.6682 13.0566 16.6682 13.0566C16.6683 13.0566 16.6683 13.0566 16.6683 13.0566C16.6682 13.0566 16.668 13.0567 16.6676 13.0568C16.6669 13.0571 16.6654 13.0576 16.6633 13.0584C16.6591 13.0598 16.6522 13.0622 16.6428 13.0654C16.624 13.0719 16.5952 13.0817 16.557 13.0945C16.4807 13.1199 16.3675 13.157 16.2242 13.2018C15.9372 13.2914 15.532 13.4113 15.0626 13.531C14.1062 13.775 12.9529 14 12 14V16C13.2066 16 14.5533 15.725 15.557 15.469C16.0677 15.3387 16.5076 15.2086 16.8207 15.1107C16.9774 15.0618 17.103 15.0207 17.1905 14.9915C17.2342 14.9769 17.2684 14.9652 17.2923 14.957C17.3043 14.9529 17.3136 14.9497 17.3203 14.9474C17.3236 14.9462 17.3263 14.9453 17.3282 14.9446C17.3292 14.9443 17.33 14.944 17.3307 14.9437C17.331 14.9436 17.3313 14.9435 17.3315 14.9435C17.3316 14.9434 17.3318 14.9434 17.3318 14.9433C17.332 14.9433 17.3321 14.9433 17 14ZM12 14C11.0471 14 9.89383 13.775 8.93735 13.531C8.46799 13.4113 8.06282 13.2914 7.77581 13.2018C7.63254 13.157 7.51933 13.1199 7.443 13.0945C7.40485 13.0817 7.37595 13.0719 7.35717 13.0654C7.34778 13.0622 7.34092 13.0598 7.3367 13.0584C7.33459 13.0576 7.33314 13.0571 7.33237 13.0568C7.33198 13.0567 7.33176 13.0566 7.33171 13.0566C7.33169 13.0566 7.3317 13.0566 7.33176 13.0566C7.33179 13.0566 7.33187 13.0567 7.33189 13.0567C7.33198 13.0567 7.33207 13.0567 7 14C6.66793 14.9433 6.66805 14.9433 6.66818 14.9433C6.66824 14.9434 6.66838 14.9434 6.66849 14.9435C6.66873 14.9435 6.66901 14.9436 6.66933 14.9437C6.66997 14.944 6.67078 14.9443 6.67177 14.9446C6.67374 14.9453 6.67639 14.9462 6.67973 14.9474C6.68639 14.9497 6.69574 14.9529 6.70768 14.957C6.73157 14.9652 6.76581 14.9769 6.80954 14.9915C6.89698 15.0207 7.02256 15.0618 7.17933 15.1107C7.49239 15.2086 7.93231 15.3387 8.44301 15.469C9.44665 15.725 10.7934 16 12 16V14ZM17.3162 10.0513L14.3162 9.05132L13.6838 10.9487L16.6838 11.9487L17.3162 10.0513ZM14.4472 10.8944L17.4472 9.39443L16.5528 7.60557L13.5528 9.10557L14.4472 10.8944ZM7.31623 11.9487L10.3162 10.9487L9.68377 9.05132L6.68377 10.0513L7.31623 11.9487ZM10.4472 9.10557L7.44721 7.60557L6.55279 9.39443L9.55279 10.8944L10.4472 9.10557Z" fill="#0000CC"/>
</svg>
