<svg width="24" height="24" viewBox="0 0 24 24" fill="none" xmlns="http://www.w3.org/2000/svg">
<path d="M9.30078 9.30005H9.30978M14.6914 9.30005H14.7004M21 12C21 16.9706 16.9706 21 12 21C7.02944 21 3 16.9706 3 12C3 7.02944 7.02944 3 12 3C16.9706 3 21 7.02944 21 12ZM16 14C16 16.2091 14.2091 18 12 18C9.79086 18 8 16.2091 8 14H16ZM9.75156 9.29998C9.75156 9.5485 9.55009 9.74998 9.30156 9.74998C9.05303 9.74998 8.85156 9.5485 8.85156 9.29998C8.85156 9.05145 9.05303 8.84998 9.30156 8.84998C9.55009 8.84998 9.75156 9.05145 9.75156 9.29998ZM15.15 9.29998C15.15 9.5485 14.9485 9.74998 14.7 9.74998C14.4515 9.74998 14.25 9.5485 14.25 9.29998C14.25 9.05145 14.4515 8.84998 14.7 8.84998C14.9485 8.84998 15.15 9.05145 15.15 9.29998Z" stroke="#0000CC" stroke-width="2" stroke-linecap="round" stroke-linejoin="round"/>
</svg>
