<svg width="24" height="24" viewBox="0 0 24 24" fill="none" xmlns="http://www.w3.org/2000/svg">
<path d="M17 14H18C18 13.6756 17.8426 13.3714 17.5779 13.1839C17.3131 12.9964 16.9739 12.949 16.6679 13.0567L17 14ZM7 14L7.33207 13.0567C7.02608 12.949 6.68685 12.9964 6.42211 13.1839C6.15736 13.3714 6 13.6756 6 14H7ZM20 12C20 16.4183 16.4183 20 12 20V22C17.5228 22 22 17.5228 22 12H20ZM12 20C7.58172 20 4 16.4183 4 12H2C2 17.5228 6.47715 22 12 22V20ZM4 12C4 7.58172 7.58172 4 12 4V2C6.47715 2 2 6.47715 2 12H4ZM12 4C16.4183 4 20 7.58172 20 12H22C22 6.47715 17.5228 2 12 2V4ZM16 14C16 14.6425 15.5468 15.3807 14.6664 16.0187C13.8004 16.6462 12.7512 17 12 17V19C13.2571 19 14.708 18.4584 15.8399 17.6382C16.9573 16.8285 18 15.5666 18 14H16ZM12 17C11.2488 17 10.1996 16.6462 9.33364 16.0187C8.45316 15.3807 8 14.6425 8 14H6C6 15.5666 7.04268 16.8285 8.16012 17.6382C9.29205 18.4584 10.7429 19 12 19V17ZM17 14C16.6679 13.0567 16.668 13.0567 16.6681 13.0567C16.6681 13.0567 16.6682 13.0566 16.6682 13.0566C16.6683 13.0566 16.6683 13.0566 16.6683 13.0566C16.6682 13.0566 16.668 13.0567 16.6676 13.0568C16.6669 13.0571 16.6654 13.0576 16.6633 13.0584C16.6591 13.0598 16.6522 13.0622 16.6428 13.0654C16.624 13.0719 16.5952 13.0817 16.557 13.0945C16.4807 13.1199 16.3675 13.157 16.2242 13.2018C15.9372 13.2914 15.532 13.4113 15.0626 13.531C14.1062 13.775 12.9529 14 12 14V16C13.2066 16 14.5533 15.725 15.557 15.469C16.0677 15.3387 16.5076 15.2086 16.8207 15.1107C16.9774 15.0618 17.103 15.0207 17.1905 14.9915C17.2342 14.9769 17.2684 14.9652 17.2923 14.957C17.3043 14.9529 17.3136 14.9497 17.3203 14.9474C17.3236 14.9462 17.3263 14.9453 17.3282 14.9446C17.3292 14.9443 17.33 14.944 17.3307 14.9437C17.331 14.9436 17.3313 14.9435 17.3315 14.9435C17.3316 14.9434 17.3318 14.9434 17.3318 14.9433C17.332 14.9433 17.3321 14.9433 17 14ZM12 14C11.0471 14 9.89383 13.775 8.93735 13.531C8.46799 13.4113 8.06282 13.2914 7.77581 13.2018C7.63254 13.157 7.51933 13.1199 7.443 13.0945C7.40485 13.0817 7.37595 13.0719 7.35717 13.0654C7.34778 13.0622 7.34092 13.0598 7.3367 13.0584C7.33459 13.0576 7.33314 13.0571 7.33237 13.0568C7.33198 13.0567 7.33176 13.0566 7.33171 13.0566C7.33169 13.0566 7.3317 13.0566 7.33176 13.0566C7.33179 13.0566 7.33187 13.0567 7.33189 13.0567C7.33198 13.0567 7.33207 13.0567 7 14C6.66793 14.9433 6.66805 14.9433 6.66818 14.9433C6.66824 14.9434 6.66838 14.9434 6.66849 14.9435C6.66873 14.9435 6.66901 14.9436 6.66933 14.9437C6.66997 14.944 6.67078 14.9443 6.67177 14.9446C6.67374 14.9453 6.67639 14.9462 6.67973 14.9474C6.68639 14.9497 6.69574 14.9529 6.70768 14.957C6.73157 14.9652 6.76581 14.9769 6.80954 14.9915C6.89698 15.0207 7.02256 15.0618 7.17933 15.1107C7.49239 15.2086 7.93231 15.3387 8.44301 15.469C9.44665 15.725 10.7934 16 12 16V14ZM9 8.5C9 8.83664 8.95304 9.09991 8.90487 9.24443C8.87904 9.32192 8.87032 9.31249 8.90921 9.26315C8.93921 9.22508 9.1313 9 9.5 9V11C10.0068 11 10.3304 10.691 10.48 10.5011C10.6386 10.2999 10.7376 10.0708 10.8022 9.87689C10.935 9.47852 11 8.99179 11 8.5H9ZM9.5 9C9.8687 9 10.0608 9.22508 10.0908 9.26315C10.1297 9.31249 10.121 9.32192 10.0951 9.24443C10.047 9.09991 10 8.83664 10 8.5H8C8 8.99179 8.06497 9.47852 8.19776 9.87689C8.26242 10.0708 8.36144 10.2999 8.51997 10.5011C8.66961 10.691 8.99323 11 9.5 11V9ZM10 8.5C10 8.16336 10.047 7.90009 10.0951 7.75557C10.121 7.67808 10.1297 7.68751 10.0908 7.73685C10.0608 7.77492 9.8687 8 9.5 8V6C8.99323 6 8.66961 6.30903 8.51997 6.4989C8.36144 6.70005 8.26242 6.92915 8.19776 7.12311C8.06497 7.52148 8 8.00821 8 8.5H10ZM9.5 8C9.1313 8 8.93921 7.77492 8.90921 7.73685C8.87032 7.68751 8.87904 7.67808 8.90487 7.75557C8.95304 7.90009 9 8.16336 9 8.5H11C11 8.00821 10.935 7.52148 10.8022 7.12311C10.7376 6.92915 10.6386 6.70005 10.48 6.4989C10.3304 6.30903 10.0068 6 9.5 6V8ZM14 8.5C14 8.83664 13.953 9.09991 13.9049 9.24443C13.879 9.32192 13.8703 9.31249 13.9092 9.26315C13.9392 9.22508 14.1313 9 14.5 9V11C15.0068 11 15.3304 10.691 15.48 10.5011C15.6386 10.2999 15.7376 10.0708 15.8022 9.87689C15.935 9.47852 16 8.99179 16 8.5H14ZM14.5 9C14.8687 9 15.0608 9.22508 15.0908 9.26315C15.1297 9.31249 15.121 9.32192 15.0951 9.24443C15.047 9.09991 15 8.83664 15 8.5H13C13 8.99179 13.065 9.47852 13.1978 9.87689C13.2624 10.0708 13.3614 10.2999 13.52 10.5011C13.6696 10.691 13.9932 11 14.5 11V9ZM15 8.5C15 8.16336 15.047 7.90009 15.0951 7.75557C15.121 7.67808 15.1297 7.68751 15.0908 7.73685C15.0608 7.77492 14.8687 8 14.5 8V6C13.9932 6 13.6696 6.30903 13.52 6.4989C13.3614 6.70005 13.2624 6.92915 13.1978 7.12311C13.065 7.52148 13 8.00821 13 8.5H15ZM14.5 8C14.1313 8 13.9392 7.77492 13.9092 7.73685C13.8703 7.68751 13.879 7.67808 13.9049 7.75557C13.953 7.90009 14 8.16336 14 8.5H16C16 8.00821 15.935 7.52148 15.8022 7.12311C15.7376 6.92915 15.6386 6.70005 15.48 6.4989C15.3304 6.30903 15.0068 6 14.5 6V8Z" fill="#0000CC"/>
</svg>
