<svg width="24" height="24" viewBox="0 0 24 24" fill="none" xmlns="http://www.w3.org/2000/svg">
<path d="M7 7.99999C7.71395 6.85907 9.5 6.50001 10.5 7M17 7.99999C16.2861 6.85907 14.5 6.5 13.5 6.99999M9.30078 11.3H9.30978M14.6914 11.3H14.7004M21 12C21 16.9706 16.9706 21 12 21C7.02944 21 3 16.9706 3 12C3 7.02944 7.02944 3 12 3C16.9706 3 21 7.02944 21 12ZM12 18C11.4477 18 11 17.5523 11 17V16C11 15.4477 11.4477 15 12 15C12.5523 15 13 15.4477 13 16V17C13 17.5523 12.5523 18 12 18ZM9.85156 11.35C9.85156 11.6261 9.6277 11.85 9.35156 11.85C9.07542 11.85 8.85156 11.6261 8.85156 11.35C8.85156 11.0738 9.07542 10.85 9.35156 10.85C9.6277 10.85 9.85156 11.0738 9.85156 11.35ZM15.15 11.3C15.15 11.5485 14.9485 11.75 14.7 11.75C14.4515 11.75 14.25 11.5485 14.25 11.3C14.25 11.0514 14.4515 10.85 14.7 10.85C14.9485 10.85 15.15 11.0514 15.15 11.3Z" stroke="#0000CC" stroke-width="2" stroke-linecap="round" stroke-linejoin="round"/>
</svg>
