<svg width="24" height="24" viewBox="0 0 24 24" fill="none" xmlns="http://www.w3.org/2000/svg">
<path d="M9.30078 9.30005H9.30978M14 9.5C14.4413 9.182 14.9536 9 15.5 9C16.0464 9 16.5587 9.182 17 9.5M21 12C21 16.9706 16.9706 21 12 21C7.02944 21 3 16.9706 3 12C3 7.02944 7.02944 3 12 3C16.9706 3 21 7.02944 21 12ZM17 14C17 16.2091 14.0083 18 12 18C9.99169 18 7 16.2091 7 14C7 14 9.84049 15 12 15C14.1595 15 17 14 17 14ZM9.75156 9.29998C9.75156 9.5485 9.55009 9.74998 9.30156 9.74998C9.05303 9.74998 8.85156 9.5485 8.85156 9.29998C8.85156 9.05145 9.05303 8.84998 9.30156 8.84998C9.55009 8.84998 9.75156 9.05145 9.75156 9.29998Z" stroke="#0000CC" stroke-width="2" stroke-linecap="round" stroke-linejoin="round"/>
</svg>
