<svg width="24" height="24" viewBox="0 0 24 24" fill="none" xmlns="http://www.w3.org/2000/svg">
<path d="M7.78292 15.803C7.39798 16.199 7.40698 16.8321 7.80301 17.2171C8.19904 17.602 8.83214 17.593 9.21708 17.197L7.78292 15.803ZM14.7829 17.197C15.1679 17.593 15.801 17.602 16.197 17.2171C16.593 16.8321 16.602 16.199 16.2171 15.803L14.7829 17.197ZM6 9C5.44772 9 5 9.44772 5 10C5 10.5523 5.44772 11 6 11V9ZM14 9C13.4477 9 13 9.44772 13 10C13 10.5523 13.4477 11 14 11V9ZM9.5 9.5C8.94772 9.5 8.5 9.94772 8.5 10.5C8.5 11.0523 8.94772 11.5 9.5 11.5V9.5ZM9.509 11.5C10.0613 11.5 10.509 11.0523 10.509 10.5C10.509 9.94772 10.0613 9.5 9.509 9.5V11.5ZM17.5 9.5C16.9477 9.5 16.5 9.94772 16.5 10.5C16.5 11.0523 16.9477 11.5 17.5 11.5V9.5ZM17.509 11.5C18.0613 11.5 18.509 11.0523 18.509 10.5C18.509 9.94772 18.0613 9.5 17.509 9.5V11.5ZM20 12C20 16.4183 16.4183 20 12 20V22C17.5228 22 22 17.5228 22 12H20ZM12 20C7.58172 20 4 16.4183 4 12H2C2 17.5228 6.47715 22 12 22V20ZM4 12C4 7.58172 7.58172 4 12 4V2C6.47715 2 2 6.47715 2 12H4ZM12 4C16.4183 4 20 7.58172 20 12H22C22 6.47715 17.5228 2 12 2V4ZM9.21708 17.197C9.94365 16.4495 10.9255 16 12 16V14C10.3491 14 8.8601 14.6948 7.78292 15.803L9.21708 17.197ZM12 16C13.0745 16 14.0563 16.4495 14.7829 17.197L16.2171 15.803C15.1399 14.6948 13.6509 14 12 14V16ZM6 11H9.5V9H6V11ZM14 11H17.5V9H14V11ZM9 10.5C9 10.2239 9.22386 10 9.5 10V12C10.3284 12 11 11.3284 11 10.5H9ZM9.5 10C9.77614 10 10 10.2239 10 10.5H8C8 11.3284 8.67157 12 9.5 12V10ZM10 10.5C10 10.7761 9.77614 11 9.5 11V9C8.67157 9 8 9.67157 8 10.5H10ZM9.5 11C9.22386 11 9 10.7761 9 10.5H11C11 9.67157 10.3284 9 9.5 9V11ZM9.5 11.5H9.509V9.5H9.5V11.5ZM17 10.5C17 10.2239 17.2239 10 17.5 10V12C18.3284 12 19 11.3284 19 10.5H17ZM17.5 10C17.7761 10 18 10.2239 18 10.5H16C16 11.3284 16.6716 12 17.5 12V10ZM18 10.5C18 10.7761 17.7761 11 17.5 11V9C16.6716 9 16 9.67157 16 10.5H18ZM17.5 11C17.2239 11 17 10.7761 17 10.5H19C19 9.67157 18.3284 9 17.5 9V11ZM17.5 11.5H17.509V9.5H17.5V11.5Z" fill="#0000CC"/>
</svg>
