<svg width="24" height="24" viewBox="0 0 24 24" fill="none" xmlns="http://www.w3.org/2000/svg">
<path d="M18.2226 17.0283C17.8752 17.4576 17.9416 18.0873 18.371 18.4347C18.8003 18.7821 19.43 18.7157 19.7774 18.2864L18.2226 17.0283ZM10.3345 21.8618C10.8792 21.9532 11.3948 21.5857 11.4862 21.041C11.5776 20.4963 11.2101 19.9807 10.6655 19.8893L10.3345 21.8618ZM6.15229 9.46949C5.85933 9.93766 6.00136 10.5547 6.46953 10.8477C6.93771 11.1406 7.55474 10.9986 7.84771 10.5304L6.15229 9.46949ZM10.0528 9.8944C10.5468 10.1414 11.1474 9.94115 11.3944 9.44717C11.6414 8.95319 11.4412 8.35252 10.9472 8.10554L10.0528 9.8944ZM7.89443 13.5528C7.64744 13.0588 7.04676 12.8586 6.55279 13.1056C6.05881 13.3526 5.85858 13.9532 6.10557 14.4472L7.89443 13.5528ZM17.8893 14.513C18.1419 14.0219 17.9485 13.419 17.4574 13.1664C16.9662 12.9138 16.3633 13.1072 16.1107 13.5983L17.8893 14.513ZM16.1523 10.5305C16.4453 10.9986 17.0623 11.1407 17.5305 10.8477C17.9986 10.5547 18.1407 9.9377 17.8477 9.46952L16.1523 10.5305ZM13.0528 8.10555C12.5588 8.35254 12.3586 8.95321 12.6056 9.44719C12.8526 9.94117 13.4532 10.1414 13.9472 9.89442L13.0528 8.10555ZM15.5 21C15.5 21.5523 15.9477 22 16.5 22C17.0523 22 17.5 21.5523 17.5 21H15.5ZM12.5 20C12.5 20.5523 12.9477 21 13.5 21C14.0523 21 14.5 20.5523 14.5 20H12.5ZM13.5 16.8197L13.2576 15.8495L13.5 16.8197ZM4 12C4 7.58172 7.58172 4 12 4V2C6.47715 2 2 6.47715 2 12H4ZM12 4C16.4183 4 20 7.58172 20 12H22C22 6.47715 17.5228 2 12 2V4ZM20 12C20 13.9061 19.3346 15.6541 18.2226 17.0283L19.7774 18.2864C21.167 16.5691 22 14.3805 22 12H20ZM10.6655 19.8893C6.8826 19.2547 4 15.963 4 12H2C2 16.956 5.60426 21.0682 10.3345 21.8618L10.6655 19.8893ZM7.84771 10.5304C8.03282 10.2346 8.40511 9.97824 8.89173 9.85313C9.38807 9.72552 9.82452 9.78027 10.0528 9.8944L10.9472 8.10554C10.1755 7.71969 9.2189 7.70397 8.39373 7.91612C7.55884 8.13077 6.68113 8.62438 6.15229 9.46949L7.84771 10.5304ZM12.0069 16C10.8824 16 10.075 15.7774 9.45927 15.3984C8.84478 15.0202 8.33435 14.4326 7.89443 13.5528L6.10557 14.4472C6.66565 15.5674 7.40082 16.4798 8.41086 17.1016C9.41967 17.7226 10.6157 18 12.0069 18V16ZM17.8477 9.46952C17.3189 8.62442 16.4412 8.1308 15.6063 7.91615C14.7811 7.70399 13.8245 7.7197 13.0528 8.10555L13.9472 9.89442C14.1755 9.78028 14.6119 9.72554 15.1083 9.85315C15.5949 9.97826 15.9672 10.2346 16.1523 10.5305L17.8477 9.46952ZM16.1107 13.5983C15.9887 13.8355 15.8514 14.0537 15.701 14.2534L17.299 15.4562C17.5185 15.1646 17.716 14.8499 17.8893 14.513L16.1107 13.5983ZM15.5 14.8548V21H17.5V14.8548H15.5ZM15.701 14.2534C15.088 15.068 14.2355 15.6052 13.2576 15.8495L13.7424 17.7899C15.1346 17.442 16.3921 16.661 17.299 15.4562L15.701 14.2534ZM13.2576 15.8495C12.8599 15.9489 12.4401 16 12.0069 16V18C12.5972 18 13.1801 17.9304 13.7424 17.7899L13.2576 15.8495ZM12.5 16.8197V20H14.5V16.8197H12.5Z" fill="#0000CC"/>
</svg>
