<svg width="24" height="24" viewBox="0 0 24 24" fill="none" xmlns="http://www.w3.org/2000/svg">
<path d="M6.5 10C6.95606 8.78555 7.68217 8 8.5 8C9.31783 8 10.0439 8.78555 10.5 10M13.5 10C13.9561 8.78555 14.6822 8 15.5 8C16.3178 8 17.0439 8.78555 17.5 10M8 15C8.91221 16.2144 10.3645 17 12.0004 17C13.6362 17 15.0885 16.2144 16.0007 15M21 12C21 16.9706 16.9706 21 12 21C7.02944 21 3 16.9706 3 12C3 7.02944 7.02944 3 12 3C16.9706 3 21 7.02944 21 12Z" stroke="#0000CC" stroke-width="2" stroke-linecap="round" stroke-linejoin="round"/>
</svg>
