<svg width="24" height="24" viewBox="0 0 24 24" fill="none" xmlns="http://www.w3.org/2000/svg">
<path d="M16 9C15.0878 7.78555 13.6355 7 11.9996 7C10.3638 7 8.91147 7.78555 7.99927 9M9.30078 14.3H9.30978M14.6914 14.3H14.7004M3 12C3 7.02944 7.02944 3 12 3C16.9706 3 21 7.02944 21 12C21 16.9706 16.9706 21 12 21C7.02944 21 3 16.9706 3 12ZM9.85156 14.35C9.85156 14.6261 9.6277 14.85 9.35156 14.85C9.07542 14.85 8.85156 14.6261 8.85156 14.35C8.85156 14.0738 9.07542 13.85 9.35156 13.85C9.6277 13.85 9.85156 14.0738 9.85156 14.35ZM15.15 14.3C15.15 14.5485 14.9485 14.75 14.7 14.75C14.4515 14.75 14.25 14.5485 14.25 14.3C14.25 14.0514 14.4515 13.85 14.7 13.85C14.9485 13.85 15.15 14.0514 15.15 14.3Z" stroke="#0000CC" stroke-width="2" stroke-linecap="round" stroke-linejoin="round"/>
</svg>
