<svg width="24" height="24" viewBox="0 0 24 24" fill="none" xmlns="http://www.w3.org/2000/svg">
<path d="M8 16C7.44772 16 7 16.4477 7 17C7 17.5523 7.44772 18 8 18V16ZM8 12C7.44772 12 7 12.4477 7 13C7 13.5523 7.44772 14 8 14V12ZM16 18C16.5523 18 17 17.5523 17 17C17 16.4477 16.5523 16 16 16V18ZM16 14C16.5523 14 17 13.5523 17 13C17 12.4477 16.5523 12 16 12V14ZM10.3477 6.87192C10.6407 6.40375 10.4986 5.78672 10.0305 5.49375C9.56229 5.20078 8.94526 5.34281 8.65229 5.81099L10.3477 6.87192ZM6.07682 7.87882C5.5561 8.06286 5.28317 8.63419 5.46722 9.1549C5.65127 9.67562 6.22259 9.94854 6.74331 9.7645L6.07682 7.87882ZM15.3477 5.81099C15.0547 5.34281 14.4377 5.20078 13.9695 5.49375C13.5014 5.78672 13.3593 6.40375 13.6523 6.87192L15.3477 5.81099ZM17.2567 9.7645C17.7774 9.94854 18.3487 9.67562 18.5328 9.1549C18.7168 8.63419 18.4439 8.06286 17.9232 7.87882L17.2567 9.7645ZM9.30078 9.30005C8.7485 9.30005 8.30078 9.74776 8.30078 10.3C8.30078 10.8523 8.7485 11.3 9.30078 11.3V9.30005ZM9.30978 11.3C9.86207 11.3 10.3098 10.8523 10.3098 10.3C10.3098 9.74776 9.86207 9.30005 9.30978 9.30005V11.3ZM14.6914 9.30005C14.1391 9.30005 13.6914 9.74776 13.6914 10.3C13.6914 10.8523 14.1391 11.3 14.6914 11.3V9.30005ZM14.7004 11.3C15.2527 11.3 15.7004 10.8523 15.7004 10.3C15.7004 9.74776 15.2527 9.30005 14.7004 9.30005V11.3ZM20 12C20 16.4183 16.4183 20 12 20V22C17.5228 22 22 17.5228 22 12H20ZM12 20C7.58172 20 4 16.4183 4 12H2C2 17.5228 6.47715 22 12 22V20ZM4 12C4 7.58172 7.58172 4 12 4V2C6.47715 2 2 6.47715 2 12H4ZM12 4C16.4183 4 20 7.58172 20 12H22C22 6.47715 17.5228 2 12 2V4ZM9 15C9 15.5523 8.55228 16 8 16V18C9.65685 18 11 16.6569 11 15H9ZM8 14C8.55228 14 9 14.4477 9 15H11C11 13.3431 9.65685 12 8 12V14ZM13 15C13 16.6569 14.3431 18 16 18V16C15.4477 16 15 15.5523 15 15H13ZM16 12C14.3431 12 13 13.3431 13 15H15C15 14.4477 15.4477 14 16 14V12ZM8.65229 5.81099C8.05655 6.76301 7.14967 7.49961 6.07682 7.87882L6.74331 9.7645C8.24863 9.23244 9.51555 8.20174 10.3477 6.87192L8.65229 5.81099ZM13.6523 6.87192C14.4844 8.20174 15.7514 9.23244 17.2567 9.7645L17.9232 7.87882C16.8503 7.49961 15.9434 6.76301 15.3477 5.81099L13.6523 6.87192ZM10 16H14V14H10V16ZM8.85156 10.35C8.85156 10.0738 9.07542 9.84998 9.35156 9.84998V11.85C10.18 11.85 10.8516 11.1784 10.8516 10.35H8.85156ZM9.35156 9.84998C9.62771 9.84998 9.85156 10.0738 9.85156 10.35H7.85156C7.85156 11.1784 8.52313 11.85 9.35156 11.85V9.84998ZM9.85156 10.35C9.85156 10.6261 9.6277 10.85 9.35156 10.85V8.84998C8.52313 8.84998 7.85156 9.52155 7.85156 10.35H9.85156ZM9.35156 10.85C9.07542 10.85 8.85156 10.6261 8.85156 10.35H10.8516C10.8516 9.52155 10.18 8.84998 9.35156 8.84998V10.85ZM9.30078 11.3H9.30978V9.30005H9.30078V11.3ZM14.15 10.3C14.15 9.99622 14.3962 9.74998 14.7 9.74998V11.75C15.5008 11.75 16.15 11.1008 16.15 10.3H14.15ZM14.7 9.74998C15.0038 9.74998 15.25 9.99622 15.25 10.3H13.25C13.25 11.1008 13.8992 11.75 14.7 11.75V9.74998ZM15.25 10.3C15.25 10.6037 15.0038 10.85 14.7 10.85V8.84998C13.8992 8.84998 13.25 9.49916 13.25 10.3H15.25ZM14.7 10.85C14.3962 10.85 14.15 10.6037 14.15 10.3H16.15C16.15 9.49916 15.5008 8.84998 14.7 8.84998V10.85ZM14.6914 11.3H14.7004V9.30005H14.6914V11.3Z" fill="#0000CC"/>
</svg>
