<svg width="24" height="24" viewBox="0 0 24 24" fill="none" xmlns="http://www.w3.org/2000/svg">
<path d="M21 12C21 16.9706 16.9706 21 12 21C7.02944 21 3 16.9706 3 12C3 7.02944 7.02944 3 12 3C16.9706 3 21 7.02944 21 12Z" stroke="#0000CC" stroke-width="2" stroke-linecap="round" stroke-linejoin="round"/>
<path d="M12 18C14.0083 18 17 16.2091 17 14C17 14 14.1595 15 12 15C9.84049 15 7 14 7 14C7 16.2091 9.99169 18 12 18Z" stroke="#0000CC" stroke-width="2" stroke-linecap="round" stroke-linejoin="round"/>
<path fill-rule="evenodd" clip-rule="evenodd" d="M7.94161 7.89939C7.24609 7.69439 6.44159 7.97142 6.13974 8.70111C5.83788 9.43081 6.16363 10.1714 6.87399 10.4181C7.46461 10.6233 9.03509 10.8685 9.54778 10.9453C9.60513 10.9539 9.63381 10.9582 9.66028 10.9511C9.68338 10.9449 9.70527 10.9323 9.72218 10.9154C9.74155 10.896 9.75216 10.869 9.7734 10.815C9.9632 10.3326 10.5361 8.84997 10.6537 8.23589C10.7952 7.49732 10.3235 6.83517 9.53389 6.7415C8.74423 6.64783 8.11183 7.19456 7.94161 7.89939Z" stroke="#0000CC" stroke-width="2" stroke-linecap="round" stroke-linejoin="round"/>
<path fill-rule="evenodd" clip-rule="evenodd" d="M16.0584 7.89939C16.7539 7.69439 17.5584 7.97142 17.8603 8.70111C18.1621 9.43081 17.8364 10.1714 17.126 10.4181C16.5354 10.6233 14.9649 10.8685 14.4522 10.9453C14.3949 10.9539 14.3662 10.9582 14.3397 10.9511C14.3166 10.9449 14.2947 10.9323 14.2778 10.9154C14.2585 10.896 14.2478 10.869 14.2266 10.815C14.0368 10.3326 13.4639 8.84997 13.3463 8.23589C13.2048 7.49732 13.6765 6.83517 14.4661 6.7415C15.2558 6.64783 15.8882 7.19456 16.0584 7.89939Z" stroke="#0000CC" stroke-width="2" stroke-linecap="round" stroke-linejoin="round"/>
</svg>
