<svg width="24" height="24" viewBox="0 0 24 24" fill="none" xmlns="http://www.w3.org/2000/svg">
<path d="M18.2864 19.7774C18.7157 19.43 18.7821 18.8003 18.4347 18.371C18.0873 17.9416 17.4576 17.8752 17.0283 18.2226L18.2864 19.7774ZM19.8018 10.2213C19.924 10.7599 20.4597 11.0974 20.9983 10.9752C21.5369 10.853 21.8744 10.3173 21.7522 9.77871L19.8018 10.2213ZM9.30078 8.30005C8.7485 8.30005 8.30078 8.74776 8.30078 9.30005C8.30078 9.85233 8.7485 10.3 9.30078 10.3V8.30005ZM9.30978 10.3C9.86207 10.3 10.3098 9.85233 10.3098 9.30005C10.3098 8.74776 9.86207 8.30005 9.30978 8.30005V10.3ZM14.6914 8.30005C14.1391 8.30005 13.6914 8.74776 13.6914 9.30005C13.6914 9.85233 14.1391 10.3 14.6914 10.3V8.30005ZM14.7004 10.3C15.2527 10.3 15.7004 9.85233 15.7004 9.30005C15.7004 8.74776 15.2527 8.30005 14.7004 8.30005V10.3ZM13 12C12.4477 12 12 12.4477 12 13C12 13.5523 12.4477 14 13 14V12ZM15.5 15C14.9477 15 14.5 15.4477 14.5 16C14.5 16.5523 14.9477 17 15.5 17V15ZM11.7575 16.9701C12.2933 17.1041 12.8362 16.7783 12.9701 16.2425C13.1041 15.7067 12.7783 15.1638 12.2425 15.0299L11.7575 16.9701ZM7.29289 16.2929C6.90237 16.6834 6.90237 17.3166 7.29289 17.7071C7.68342 18.0976 8.31658 18.0976 8.70711 17.7071L7.29289 16.2929ZM12 20C7.58172 20 4 16.4183 4 12H2C2 17.5228 6.47715 22 12 22V20ZM4 12C4 7.58172 7.58172 4 12 4V2C6.47715 2 2 6.47715 2 12H4ZM17.0283 18.2226C15.6541 19.3346 13.9061 20 12 20V22C14.3805 22 16.5691 21.167 18.2864 19.7774L17.0283 18.2226ZM12 4C15.806 4 18.9934 6.65879 19.8018 10.2213L21.7522 9.77871C20.7416 5.32525 16.7603 2 12 2V4ZM8.75156 9.29998C8.75156 8.99622 8.99781 8.74998 9.30156 8.74998V10.75C10.1024 10.75 10.7516 10.1008 10.7516 9.29998H8.75156ZM9.30156 8.74998C9.60532 8.74998 9.85156 8.99622 9.85156 9.29998H7.85156C7.85156 10.1008 8.50075 10.75 9.30156 10.75V8.74998ZM9.85156 9.29998C9.85156 9.60373 9.60532 9.84998 9.30156 9.84998V7.84998C8.50075 7.84998 7.85156 8.49916 7.85156 9.29998H9.85156ZM9.30156 9.84998C8.99781 9.84998 8.75156 9.60373 8.75156 9.29998H10.7516C10.7516 8.49916 10.1024 7.84998 9.30156 7.84998V9.84998ZM9.30078 10.3H9.30978V8.30005H9.30078V10.3ZM14.15 9.29998C14.15 8.99622 14.3962 8.74998 14.7 8.74998V10.75C15.5008 10.75 16.15 10.1008 16.15 9.29998H14.15ZM14.7 8.74998C15.0038 8.74998 15.25 8.99622 15.25 9.29998H13.25C13.25 10.1008 13.8992 10.75 14.7 10.75V8.74998ZM15.25 9.29998C15.25 9.60373 15.0038 9.84998 14.7 9.84998V7.84998C13.8992 7.84998 13.25 8.49916 13.25 9.29998H15.25ZM14.7 9.84998C14.3962 9.84998 14.15 9.60373 14.15 9.29998H16.15C16.15 8.49916 15.5008 7.84998 14.7 7.84998V9.84998ZM14.6914 10.3H14.7004V8.30005H14.6914V10.3ZM13 14H19.5V12H13V14ZM19.5 15H15.5V17H19.5V15ZM20 14.5C20 14.7761 19.7761 15 19.5 15V17C20.8807 17 22 15.8807 22 14.5H20ZM19.5 14C19.7761 14 20 14.2239 20 14.5H22C22 13.1193 20.8807 12 19.5 12V14ZM12.2425 15.0299C11.1306 14.7519 10.1877 14.7247 9.33765 14.9797C8.48828 15.2345 7.84905 15.7367 7.29289 16.2929L8.70711 17.7071C9.15095 17.2633 9.51172 17.0155 9.91235 16.8953C10.3123 16.7753 10.8694 16.7481 11.7575 16.9701L12.2425 15.0299Z" fill="#0000CC"/>
</svg>
