<svg width="24" height="24" viewBox="0 0 24 24" fill="none" xmlns="http://www.w3.org/2000/svg">
<path d="M9.30078 9.30005H9.30978M14 9.5C14.4413 9.182 14.9536 9 15.5 9C16.0464 9 16.5587 9.182 17 9.5M9.75156 9.29998C9.75156 9.5485 9.55009 9.74998 9.30156 9.74998C9.05303 9.74998 8.85156 9.5485 8.85156 9.29998C8.85156 9.05145 9.05303 8.84998 9.30156 8.84998C9.55009 8.84998 9.75156 9.05145 9.75156 9.29998ZM21 12C21 16.9706 16.9706 21 12 21C7.02944 21 3 16.9706 3 12C3 7.02944 7.02944 3 12 3C16.9706 3 21 7.02944 21 12ZM16 14C16 16.2091 14.2091 18 12 18C9.79086 18 8 16.2091 8 14H16Z" stroke="#0000CC" stroke-width="2" stroke-linecap="round" stroke-linejoin="round"/>
</svg>
