<svg width="24" height="24" viewBox="0 0 24 24" fill="none" xmlns="http://www.w3.org/2000/svg">
<path d="M18.763 13.7943L20.029 16.0221C19.8786 16.3162 19.7105 16.605 19.5244 16.8872C19.3383 17.1693 19.1391 17.4376 18.9281 17.6918L16.4377 17.4141C15.7715 17.9607 15.0027 18.3868 14.1645 18.6591L13.0002 20.9449C12.6719 20.9812 12.3382 20.9998 12.0002 20.9998C11.6622 20.9998 11.3285 20.9812 11.0002 20.9449L9.83293 18.6581C8.99428 18.3853 8.22514 17.9584 7.5589 17.4109L5.05407 17.6914C4.84303 17.4373 4.64381 17.169 4.45774 16.8868C4.27168 16.6046 4.10356 16.3158 3.95312 16.0217L5.22637 13.7813C5.07803 13.2141 5.00021 12.6137 5.00021 12C5.00021 11.3748 5.08219 10.7686 5.23599 10.1918L3.95351 7.93588C4.10394 7.64179 4.27206 7.35298 4.45812 7.07079C4.64419 6.78861 4.84341 6.52031 5.05445 6.26618L7.60942 6.55315C8.26776 6.02063 9.01625 5.60671 9.84 5.33972M9.83614 5.33984L11 3.05481C11.3283 3.01851 11.662 2.99988 12 2.99988C12.338 2.99988 12.6716 3.01851 13 3.05481L14.1638 5.33984C14.9882 5.60704 15.7389 6.01752 16.3976 6.55065L18.9275 6.26649C19.1385 6.52062 19.3377 6.78892 19.5238 7.0711C19.7098 7.35329 19.878 7.6421 20.0284 7.93619L18.7592 10.1696M18.7594 10.173C18.9164 10.7555 19.0002 11.368 19.0002 12C19.0002 12.6214 18.9193 13.2238 18.7673 13.7973M15.0002 12C15.0002 13.6569 13.6571 15 12.0002 15C10.3433 15 9.0002 13.6569 9.0002 12C9.0002 10.3432 10.3433 9.00003 12.0002 9.00003C13.6571 9.00003 15.0002 10.3432 15.0002 12Z" stroke="#0000CC" stroke-width="2" stroke-linecap="round" stroke-linejoin="round"/>
</svg>
