<svg width="24" height="24" viewBox="0 0 24 24" fill="none" xmlns="http://www.w3.org/2000/svg">
<path d="M11.5 20.9999V17.9996C11.5 16.3429 12.843 14.9999 14.4997 14.9999C16.1564 15 17.4994 16.343 17.4994 17.9996V20.9999M11.5 20.0001H8.64869C7.00176 20.0001 5.66667 18.665 5.66667 17.018V16.7027C5.66667 15.2299 4.47276 14.036 3 14.036M13.0402 5.25C12.6157 4.56008 12.0306 3.9923 11.3391 3.59907C10.6475 3.20583 9.87176 2.99981 9.08333 3C8.73262 3.62967 8.52227 4.33297 8.46775 5.05817C8.41322 5.78338 8.51591 6.51206 8.76826 7.19062C8.27421 7.94615 8.00687 8.83677 8 9.75C8 12.6495 10.3505 15 13.25 15H15.75C18.6495 15 21 12.6495 21 9.75C20.9931 8.83677 20.7258 7.94615 20.2317 7.19062C20.4841 6.51206 20.5868 5.78338 20.5323 5.05817C20.4777 4.33297 20.2674 3.62967 19.9167 3C19.1282 2.99981 18.3525 3.20583 17.6609 3.59907C16.9694 3.9923 16.3843 4.56008 15.9598 5.25H13.0402Z" stroke="#0000CC" stroke-width="2" stroke-linecap="round" stroke-linejoin="round"/>
</svg>
