<svg width="24" height="24" viewBox="0 0 24 24" fill="none" xmlns="http://www.w3.org/2000/svg">
<path d="M9 3C9 2.44772 8.55228 2 8 2C7.44772 2 7 2.44772 7 3H9ZM8.44721 3.10557C7.95324 2.85858 7.35256 3.05881 7.10557 3.55279C6.85858 4.04676 7.05881 4.64744 7.55279 4.89443L8.44721 3.10557ZM16 8L16.4472 8.89443C16.786 8.72504 17 8.37877 17 8C17 7.62123 16.786 7.27496 16.4472 7.10557L16 8ZM7.55279 11.1056C7.05881 11.3526 6.85858 11.9532 7.10557 12.4472C7.35256 12.9412 7.95324 13.1414 8.44721 12.8944L7.55279 11.1056ZM9 17V3H7V17H9ZM7.55279 4.89443L15.5528 8.89443L16.4472 7.10557L8.44721 3.10557L7.55279 4.89443ZM15.5528 7.10557L7.55279 11.1056L8.44721 12.8944L16.4472 8.89443L15.5528 7.10557ZM20 17C20 17.2269 19.9007 17.5184 19.5683 17.8676C19.2311 18.222 18.6958 18.5866 17.9578 18.9146C16.4844 19.5695 14.3789 20 12 20V22C14.5917 22 16.9861 21.5351 18.7701 20.7422C19.6608 20.3464 20.4435 19.8491 21.0171 19.2464C21.5956 18.6385 22 17.8777 22 17H20ZM12 20C9.62114 20 7.51558 19.5695 6.04218 18.9146C5.30422 18.5866 4.76892 18.222 4.43166 17.8676C4.0993 17.5184 4 17.2269 4 17H2C2 17.8777 2.40438 18.6385 2.98287 19.2464C3.55645 19.8491 4.33918 20.3464 5.2299 20.7422C7.01386 21.5351 9.40829 22 12 22V20ZM4 17C4 16.7731 4.0993 16.4816 4.43166 16.1324C4.76892 15.778 5.30422 15.4134 6.04218 15.0854C7.51558 14.4305 9.62114 14 12 14V12C9.40829 12 7.01386 12.4649 5.2299 13.2578C4.33918 13.6536 3.55645 14.1509 2.98287 14.7536C2.40438 15.3615 2 16.1223 2 17H4ZM12 14C14.3789 14 16.4844 14.4305 17.9578 15.0854C18.6958 15.4134 19.2311 15.778 19.5683 16.1324C19.9007 16.4816 20 16.7731 20 17H22C22 16.1223 21.5956 15.3615 21.0171 14.7536C20.4435 14.1509 19.6608 13.6536 18.7701 13.2578C16.9861 12.4649 14.5917 12 12 12V14ZM12 17C12 16.6709 12.1711 16.4629 12.2502 16.3856C12.2927 16.3441 12.3285 16.3193 12.3468 16.3076C12.3567 16.3012 12.3643 16.2968 12.3689 16.2943C12.3713 16.293 12.3731 16.2921 12.3742 16.2915C12.3754 16.2909 12.376 16.2906 12.3761 16.2906C12.3761 16.2906 12.3742 16.2915 12.3701 16.2932C12.3661 16.2948 12.3604 16.2971 12.3528 16.2999C12.3374 16.3056 12.3164 16.3126 12.2892 16.3207C12.2341 16.337 12.1619 16.3549 12.0717 16.373C11.7013 16.4471 11.1451 16.5 10.5 16.5V18.5C11.2357 18.5 11.9295 18.441 12.4639 18.3341C12.7229 18.2823 12.9972 18.2092 13.231 18.0987C13.3454 18.0446 13.5041 17.9567 13.6482 17.8159C13.7939 17.6735 14 17.3982 14 17H12ZM10.5 16.5C9.85494 16.5 9.29875 16.4471 8.92835 16.373C8.83812 16.3549 8.7659 16.337 8.71082 16.3207C8.6836 16.3126 8.66262 16.3056 8.64723 16.2999C8.63965 16.2971 8.63392 16.2948 8.62988 16.2932C8.62583 16.2915 8.62393 16.2906 8.62394 16.2906C8.62397 16.2906 8.62459 16.2909 8.62575 16.2915C8.62691 16.2921 8.6287 16.293 8.63107 16.2943C8.63568 16.2968 8.64329 16.3012 8.65325 16.3076C8.67148 16.3193 8.70733 16.3441 8.74976 16.3856C8.82886 16.4629 9 16.6709 9 17H7C7 17.3982 7.20612 17.6735 7.35182 17.8159C7.49586 17.9567 7.65465 18.0446 7.76899 18.0987C8.00275 18.2092 8.27714 18.2823 8.53612 18.3341C9.07054 18.441 9.76434 18.5 10.5 18.5V16.5ZM9 17C9 17.3291 8.82886 17.5371 8.74976 17.6144C8.70733 17.6559 8.67148 17.6807 8.65325 17.6924C8.64329 17.6988 8.63568 17.7032 8.63107 17.7057C8.6287 17.707 8.62691 17.7079 8.62575 17.7085C8.62459 17.7091 8.62397 17.7094 8.62394 17.7094C8.62393 17.7094 8.62583 17.7085 8.62988 17.7068C8.63392 17.7052 8.63965 17.7029 8.64723 17.7001C8.66262 17.6944 8.6836 17.6874 8.71082 17.6793C8.7659 17.663 8.83812 17.6451 8.92835 17.627C9.29875 17.5529 9.85494 17.5 10.5 17.5V15.5C9.76434 15.5 9.07054 15.559 8.53612 15.6659C8.27714 15.7177 8.00275 15.7908 7.76899 15.9013C7.65465 15.9554 7.49586 16.0433 7.35182 16.1841C7.20612 16.3265 7 16.6018 7 17H9ZM10.5 17.5C11.1451 17.5 11.7013 17.5529 12.0717 17.627C12.1619 17.6451 12.2341 17.663 12.2892 17.6793C12.3164 17.6874 12.3374 17.6944 12.3528 17.7001C12.3604 17.7029 12.3661 17.7052 12.3701 17.7068C12.3742 17.7085 12.3761 17.7094 12.3761 17.7094C12.376 17.7094 12.3754 17.7091 12.3742 17.7085C12.3731 17.7079 12.3713 17.707 12.3689 17.7057C12.3643 17.7032 12.3567 17.6988 12.3468 17.6924C12.3285 17.6807 12.2927 17.6559 12.2502 17.6144C12.1711 17.5371 12 17.3291 12 17H14C14 16.6018 13.7939 16.3265 13.6482 16.1841C13.5041 16.0433 13.3454 15.9554 13.231 15.9013C12.9972 15.7908 12.7229 15.7177 12.4639 15.6659C11.9295 15.559 11.2357 15.5 10.5 15.5V17.5Z" fill="#0000CC"/>
</svg>
