<svg width="24" height="24" viewBox="0 0 24 24" fill="none" xmlns="http://www.w3.org/2000/svg">
<path d="M13 11.0001H12C11.0681 11.0001 10.6022 11.0001 10.2346 11.1523C9.74458 11.3553 9.35523 11.7446 9.15224 12.2347C9 12.6022 9 13.0682 9 14.0001C9 14.9319 9 15.3979 9.15224 15.7654C9.35523 16.2555 9.74458 16.6448 10.2346 16.8478C10.6022 17.0001 11.0681 17.0001 12 17.0001H13M15 9.00006H15.01M3 14.6001V12.1302C3 10.9815 3 10.4071 3.14805 9.87819C3.2792 9.40966 3.49473 8.96898 3.78405 8.5778C4.11067 8.1362 4.56404 7.78358 5.47078 7.07834L8.07078 5.05612C9.47608 3.96311 10.1787 3.4166 10.9546 3.20653C11.6392 3.02116 12.3608 3.02116 13.0454 3.20653C13.8213 3.4166 14.5239 3.96311 15.9292 5.05612L18.5292 7.07834C19.436 7.78358 19.8893 8.1362 20.2159 8.5778C20.5053 8.96898 20.7208 9.40966 20.8519 9.87819C21 10.4071 21 10.9815 21 12.1302V14.6001C21 16.8403 21 17.9604 20.564 18.816C20.1805 19.5687 19.5686 20.1806 18.816 20.5641C17.9603 21.0001 16.8402 21.0001 14.6 21.0001H9.4C7.15979 21.0001 6.03969 21.0001 5.18404 20.5641C4.43139 20.1806 3.81947 19.5687 3.43597 18.816C3 17.9604 3 16.8403 3 14.6001Z" stroke="#0000CC" stroke-width="2" stroke-linecap="round" stroke-linejoin="round"/>
</svg>
