<svg width="24" height="24" viewBox="0 0 24 24" fill="none" xmlns="http://www.w3.org/2000/svg">
<path d="M15 11.1666C15 11.1666 14.6941 11.1666 14.625 11.1666C13.6006 11.1666 12.7077 10.7524 12 9.99994C11.2923 10.7523 10.3995 11.1666 9.37504 11.1666C9.30596 11.1666 9.00004 11.1666 9.00004 11.1666C9.00004 11.1666 9 11.9444 9 12.3979C9 14.612 10.2748 16.4724 12 16.9999C13.7252 16.4724 15 14.612 15 12.3979C15 11.9444 15 11.1666 15 11.1666Z" stroke="#0000CC" stroke-width="2" stroke-linecap="round" stroke-linejoin="round"/>
<path d="M3 12.1301V14.5999C3 16.8401 3 17.9603 3.43597 18.8159C3.81947 19.5685 4.43139 20.1805 5.18404 20.564C6.03969 20.9999 7.15979 20.9999 9.4 20.9999H14.6C16.8402 20.9999 17.9603 20.9999 18.816 20.564C19.5686 20.1805 20.1805 19.5685 20.564 18.8159C21 17.9603 21 16.8401 21 14.5999V12.1301C21 10.9814 21 10.407 20.8519 9.87807C20.7208 9.40953 20.5053 8.96886 20.2159 8.57768C19.8893 8.13608 19.436 7.78346 18.5292 7.07822L15.9292 5.056C14.5239 3.96299 13.8213 3.41648 13.0454 3.2064C12.3608 3.02104 11.6392 3.02104 10.9546 3.2064C10.1787 3.41648 9.47608 3.96298 8.07078 5.056L5.47078 7.07822C4.56404 7.78346 4.11067 8.13608 3.78405 8.57768C3.49473 8.96886 3.2792 9.40953 3.14805 9.87807C3 10.407 3 10.9814 3 12.1301Z" stroke="#0000CC" stroke-width="2" stroke-linecap="round" stroke-linejoin="round"/>
</svg>
