<svg width="24" height="24" viewBox="0 0 24 24" fill="none" xmlns="http://www.w3.org/2000/svg">
<path d="M11 20.9998H9.8C8.11984 20.9998 7.27976 20.9998 6.63803 20.6729C6.07354 20.3852 5.6146 19.9263 5.32698 19.3618C5 18.7201 5 17.88 5 16.1998V9.77728M5 9.77728L3 11.9998M5 9.77728L8.43114 5.96433C9.66661 4.59139 10.2843 3.90491 11.0119 3.65141C11.651 3.42875 12.3466 3.4287 12.9856 3.65126C13.7133 3.90466 14.3311 4.59104 15.5668 5.96381L21 11.9998M16 17.9998V16.9998C16 15.8953 16.8954 14.9998 18 14.9998C19.1046 14.9998 20 15.8953 20 16.9998V17.9998M16.5 20.9998H19.5C19.9659 20.9998 20.1989 20.9998 20.3827 20.9237C20.6277 20.8222 20.8224 20.6275 20.9239 20.3825C21 20.1987 21 19.9658 21 19.4998C21 19.0339 21 18.8009 20.9239 18.6171C20.8224 18.3721 20.6277 18.1774 20.3827 18.076C20.1989 17.9998 19.9659 17.9998 19.5 17.9998H16.5C16.0341 17.9998 15.8011 17.9998 15.6173 18.076C15.3723 18.1774 15.1776 18.3721 15.0761 18.6171C15 18.8009 15 19.0339 15 19.4998C15 19.9658 15 20.1987 15.0761 20.3825C15.1776 20.6275 15.3723 20.8222 15.6173 20.9237C15.8011 20.9998 16.0341 20.9998 16.5 20.9998Z" stroke="#0000CC" stroke-width="2" stroke-linecap="round" stroke-linejoin="round"/>
</svg>
