<svg width="24" height="24" viewBox="0 0 24 24" fill="none" xmlns="http://www.w3.org/2000/svg">
<path d="M3 20C2.44772 20 2 20.4477 2 21C2 21.5523 2.44772 22 3 22V20ZM22 17C22 16.4477 21.5523 16 21 16C20.4477 16 20 16.4477 20 17H22ZM6 21C6 21.5523 6.44772 22 7 22C7.55228 22 8 21.5523 8 21H6ZM14 21C14 21.5523 14.4477 22 15 22C15.5523 22 16 21.5523 16 21H14ZM17 15V16C17.5523 16 18 15.5523 18 15H17ZM15.4191 10.6612L15.2095 11.639L15.4191 10.6612ZM10 9.5H9C9 9.97154 9.3294 10.379 9.79047 10.4778L10 9.5ZM10.1644 5.98639C10.7092 5.8956 11.0772 5.38037 10.9864 4.8356C10.8956 4.29083 10.3804 3.92281 9.8356 4.01361L10.1644 5.98639ZM4 6L3.8356 5.01361C3.35341 5.09397 3 5.51116 3 6H4ZM8 7C7.44772 7 7 7.44772 7 8C7 8.55228 7.44772 9 8 9V7ZM10 9C10.5523 9 11 8.55228 11 8C11 7.44772 10.5523 7 10 7V9ZM11 3C11 2.44772 10.5523 2 10 2C9.44772 2 9 2.44772 9 3H11ZM3 22H17V20H3V22ZM17 22C19.7614 22 22 19.7614 22 17H20C20 18.6569 18.6569 20 17 20V22ZM8 21V18H6V21H8ZM16 21V18H14V21H16ZM5 16H17V14H5V16ZM18 15V12.6168H16V15H18ZM15.6286 9.68342L10.2095 8.5222L9.79047 10.4778L15.2095 11.639L15.6286 9.68342ZM9.8356 4.01361L3.8356 5.01361L4.1644 6.98639L10.1644 5.98639L9.8356 4.01361ZM18 12.6168C18 11.2022 17.0118 9.97983 15.6286 9.68342L15.2095 11.639C15.6706 11.7378 16 12.1453 16 12.6168H18ZM3 14C3 15.1046 3.89543 16 5 16V14H3ZM8 9H10V7H8V9ZM11 9.5V3H9V9.5H11ZM3 6V14H5V6H3Z" fill="#0000CC"/>
</svg>
