<svg width="24" height="24" viewBox="0 0 24 24" fill="none" xmlns="http://www.w3.org/2000/svg">
<path d="M14.2639 15.9375L12.5958 14.2833C11.7909 13.4851 11.3884 13.086 10.9266 12.9401C10.5204 12.8118 10.0838 12.8165 9.68048 12.9536C9.22188 13.1095 8.82814 13.5172 8.04068 14.3326L4.04409 18.2801M14.2639 15.9375L14.6053 15.5989C15.4112 14.7997 15.8141 14.4002 16.2765 14.2543C16.6831 14.126 17.12 14.1311 17.5236 14.2686C17.9824 14.4251 18.3761 14.8338 19.1634 15.6514L20 16.4934M14.2639 15.9375L18.275 19.9565M20.9992 5.99998H14.9992M11 3.99939L7.2 3.99999C6.07989 3.99999 5.51984 3.99999 5.09202 4.21797C4.71569 4.40972 4.40973 4.71568 4.21799 5.092C4 5.51983 4 6.07988 4 7.19998V16.8C4 17.4575 4 17.922 4.04409 18.2801M20 9.99939V16.4934M4.04409 18.2801C4.07512 18.532 4.12796 18.7313 4.21799 18.908C4.40973 19.2843 4.71569 19.5903 5.09202 19.782C5.51984 20 6.07989 20 7.2 20H16.8C17.9201 20 18.4802 20 18.908 19.782C19.2843 19.5903 19.5903 19.2843 19.782 18.908C20 18.4801 20 17.9201 20 16.8V16.4934" stroke="#0000CC" stroke-width="2" stroke-linecap="round" stroke-linejoin="round"/>
</svg>
