<svg width="24" height="24" viewBox="0 0 24 24" fill="none" xmlns="http://www.w3.org/2000/svg">
<path d="M16 7C15.4477 7 15 7.44772 15 8C15 8.55228 15.4477 9 16 9V7ZM16.01 9C16.5623 9 17.01 8.55228 17.01 8C17.01 7.44772 16.5623 7 16.01 7V9ZM7 5H17V3H7V5ZM19 7V17H21V7H19ZM17 19H7V21H17V19ZM5 17V7H3V17H5ZM7 19C5.89543 19 5 18.1046 5 17H3C3 19.2091 4.79086 21 7 21V19ZM19 17C19 18.1046 18.1046 19 17 19V21C19.2091 21 21 19.2091 21 17H19ZM17 5C18.1046 5 19 5.89543 19 7H21C21 4.79086 19.2091 3 17 3V5ZM7 3C4.79086 3 3 4.79086 3 7H5C5 5.89543 5.89543 5 7 5V3ZM13.5 12C13.5 12.8284 12.8284 13.5 12 13.5V15.5C13.933 15.5 15.5 13.933 15.5 12H13.5ZM12 13.5C11.1716 13.5 10.5 12.8284 10.5 12H8.5C8.5 13.933 10.067 15.5 12 15.5V13.5ZM10.5 12C10.5 11.1716 11.1716 10.5 12 10.5V8.5C10.067 8.5 8.5 10.067 8.5 12H10.5ZM12 10.5C12.8284 10.5 13.5 11.1716 13.5 12H15.5C15.5 10.067 13.933 8.5 12 8.5V10.5ZM16 9H16.01V7H16V9Z" fill="#0000CC"/>
</svg>
