<svg width="24" height="24" viewBox="0 0 24 24" fill="none" xmlns="http://www.w3.org/2000/svg">
<path d="M17.2499 17.25L15.9999 16M7.99985 16.25L9.24985 15M14.9999 9C15.3415 9.12583 15.6515 9.325 15.9082 9.58333M13.8729 6C13.4289 4.27477 11.8628 3 9.99892 3C7.78978 3 5.99892 4.79086 5.99892 7C5.99892 8.19104 6.51947 9.26049 7.34548 9.99326M10.9989 10.874C10.6793 10.9562 10.3442 11 9.99892 11C9.42802 11 8.88507 10.8804 8.39373 10.6649C8.00884 10.4961 7.65563 10.2684 7.34548 9.99326M7.34548 9.99326C7.25721 9.99776 7.16928 10 7.07987 10C6.47507 10 5.89496 9.896 5.35699 9.70514V11.5C5.35699 12.9736 4.44639 14.2344 3.15723 14.7506C3.90522 15.6245 4.35699 16.7595 4.35699 18C4.35699 19.0319 4.04443 19.9907 3.50884 20.787C4.51665 20.2834 5.65373 20 6.85699 20C7.95484 20 8.9976 20.2359 9.93735 20.6598C10.4347 19.7224 11.2216 18.9621 12.1789 18.4981C12.4428 18.3702 12.7197 18.2648 13.007 18.1844C13.0724 16.605 13.6256 15.1517 14.5207 13.9716M18.9999 10C18.9999 12.2091 17.209 14 14.9999 14C14.8377 14 14.6778 13.9904 14.5207 13.9716M18.9999 10C18.9999 7.79086 17.209 6 14.9999 6C12.7907 6 10.9999 7.79086 10.9999 10C10.9999 11.3126 11.6321 12.4775 12.6086 13.2068C13.155 13.6149 13.8092 13.8867 14.5207 13.9716M18.9999 10L18.9993 11.5C18.9993 12.9735 19.9099 14.2344 21.1991 14.7505C20.4511 15.6245 19.9993 16.7595 19.9993 18C19.9993 19.0318 20.3119 19.9907 20.8475 20.787C19.8396 20.2834 18.7026 20 17.4993 20C16.4015 20 15.3587 20.2359 14.4189 20.6597C13.9215 19.7223 13.1347 18.9621 12.1774 18.4981" stroke="#0000CC" stroke-width="2" stroke-linecap="round" stroke-linejoin="round"/>
</svg>
