<svg width="24" height="24" viewBox="0 0 24 24" fill="none" xmlns="http://www.w3.org/2000/svg">
<path d="M12 21L11.5528 21.8944C11.8628 22.0494 12.2309 22.0329 12.5258 21.8507C12.8206 21.6685 13 21.3466 13 21H12ZM16.4472 5.89444C16.9412 5.64745 17.1414 5.04677 16.8944 4.55279C16.6474 4.05882 16.0468 3.85859 15.5528 4.10558L16.4472 5.89444ZM4.88451 17.4422L5.33172 16.5478L5.33169 16.5478L4.88451 17.4422ZM4.88451 6.55779L5.33169 7.45224L5.33169 7.45223L4.88451 6.55779ZM11.2851 3.35775L11.7323 4.2522L11.7323 4.25219L11.2851 3.35775ZM12.7162 3.3578L12.269 4.25222V4.25222L12.7162 3.3578ZM19.1156 6.55777L19.5628 5.66335V5.66335L19.1156 6.55777ZM19 9.00001C19 9.55229 19.4477 10 20 10C20.5523 10 21 9.55229 21 9.00001H19ZM19.7144 6.91832L20.4289 6.21862L20.4289 6.21861L19.7144 6.91832ZM19.9453 7.29196L20.8907 6.9659V6.96589L19.9453 7.29196ZM11.8163 3.13518L12.0006 4.11804L12.0007 4.11804L11.8163 3.13518ZM12.1851 3.1352L12.0007 4.11804L12.0007 4.11804L12.1851 3.1352ZM4.05466 7.29199L5 7.61806H5L4.05466 7.29199ZM4.2856 6.91833L5 7.61807L5 7.61806L4.2856 6.91833ZM4.2856 17.0817L5 16.382L5 16.3819L4.2856 17.0817ZM4.05466 16.708L3.10932 17.0341L3.10932 17.0341L4.05466 16.708ZM18.9912 13L19.678 12.2731C19.2857 11.9025 18.6701 11.91 18.287 12.29L18.9912 13ZM17.1484 14.9018L17.8962 15.5657H17.8963L17.1484 14.9018ZM20.8984 14.9018L20.1506 15.5657L20.8984 14.9018ZM8.05279 14.1444C8.54676 14.3914 9.14744 14.1912 9.39443 13.6972C9.64142 13.2032 9.44119 12.6026 8.94721 12.3556L8.05279 14.1444ZM7.94721 11.8556C7.45324 11.6086 6.85256 11.8088 6.60557 12.3028C6.35858 12.7968 6.55881 13.3974 7.05279 13.6444L7.94721 11.8556ZM19.8422 7.07889L20.6845 6.53977L19.8422 7.07889ZM11 11V21H13V11H11ZM15.5528 4.10558L7.55279 8.10558L8.44721 9.89444L16.4472 5.89444L15.5528 4.10558ZM12.4472 20.1056L5.33172 16.5478L4.43729 18.3366L11.5528 21.8944L12.4472 20.1056ZM5 16.0111V7.9889H3V16.0111H5ZM5.33169 7.45223L11.7323 4.2522L10.838 2.46331L4.43733 5.66335L5.33169 7.45223ZM12.269 4.25222L18.6683 7.45218L19.5628 5.66335L13.1635 2.46339L12.269 4.25222ZM19 7.98882V9.00001H21V7.98882H19ZM18.6683 7.45218C18.8397 7.53786 18.9276 7.58232 18.9894 7.61818C19.0409 7.6481 19.0273 7.64588 19 7.61802L20.4289 6.21861C20.1663 5.95053 19.819 5.79147 19.5628 5.66335L18.6683 7.45218ZM21 7.98882C21 7.70237 21.013 7.32062 20.8907 6.9659L19 7.61802C18.9873 7.58115 18.9914 7.56795 18.9951 7.62745C18.9996 7.69874 19 7.79725 19 7.98882H21ZM11.7323 4.25219C11.8726 4.18204 11.9437 4.1469 11.9964 4.12394C12.0396 4.10516 12.0314 4.11227 12.0006 4.11804L11.6319 2.15232C11.3244 2.21001 11.0485 2.35807 10.8379 2.46331L11.7323 4.25219ZM13.1635 2.46339C12.953 2.35812 12.677 2.21006 12.3695 2.15235L12.0007 4.11804C11.9699 4.11227 11.9617 4.10516 12.0049 4.12394C12.0576 4.1469 12.1287 4.18205 12.269 4.25222L13.1635 2.46339ZM12.0007 4.11804V4.11804L12.3695 2.15235C12.1258 2.10661 11.8757 2.10661 11.6319 2.15232L12.0007 4.11804ZM5 7.9889C5 7.79731 5.00045 7.69879 5.00489 7.6275C5.0086 7.568 5.01272 7.5812 5 7.61806L3.10932 6.96591C2.98695 7.32065 3 7.70243 3 7.9889H5ZM4.43733 5.66335C4.1811 5.79145 3.83378 5.95051 3.5712 6.21859L5 7.61806C4.97271 7.64593 4.95906 7.64815 5.01063 7.61822C5.07241 7.58236 5.16033 7.53791 5.33169 7.45224L4.43733 5.66335ZM5.33169 16.5478C5.16032 16.4621 5.0724 16.4176 5.01062 16.3818C4.95906 16.3519 4.97271 16.3541 5 16.382L3.5712 17.7814C3.83378 18.0495 4.18109 18.2086 4.43733 18.3367L5.33169 16.5478ZM3 16.0111C3 16.2976 2.98695 16.6794 3.10932 17.0341L5 16.382C5.01272 16.4188 5.0086 16.432 5.00489 16.3725C5.00045 16.3012 5 16.2027 5 16.0111H3ZM5 16.3819L5 16.382L3.10932 17.0341C3.20599 17.3144 3.36375 17.5696 3.5712 17.7814L5 16.3819ZM21 17.0175C21 18.1069 20.1101 19 19 19V21C21.2036 21 23 19.2225 23 17.0175H21ZM19 19C17.8899 19 17 18.1069 17 17.0175H15C15 19.2225 16.7964 21 19 21V19ZM17 17.0175C17 16.9171 17.0553 16.7125 17.2489 16.4005C17.431 16.1069 17.6715 15.8189 17.8962 15.5657L16.4006 14.2379C16.1586 14.5106 15.8248 14.9022 15.5495 15.3459C15.2856 15.7712 15 16.3616 15 17.0175H17ZM17.8963 15.5657C18.1516 15.2782 18.5949 14.82 18.9885 14.4204C19.1823 14.2235 19.3594 14.0456 19.488 13.9169C19.5522 13.8526 19.6043 13.8007 19.6402 13.7649C19.6582 13.747 19.6721 13.7332 19.6815 13.7239C19.6862 13.7192 19.6897 13.7157 19.6921 13.7133C19.6932 13.7122 19.6941 13.7113 19.6947 13.7107C19.695 13.7105 19.6952 13.7103 19.6953 13.7101C19.6954 13.7101 19.6954 13.71 19.6954 13.71C19.6954 13.71 19.6955 13.71 19.6955 13.71C19.6955 13.71 19.6955 13.71 18.9912 13C18.287 12.29 18.287 12.2901 18.2869 12.2901C18.2869 12.2901 18.2869 12.2901 18.2869 12.2901C18.2868 12.2902 18.2867 12.2903 18.2867 12.2904C18.2865 12.2905 18.2862 12.2908 18.2859 12.2911C18.2852 12.2918 18.2842 12.2928 18.2829 12.2941C18.2803 12.2966 18.2766 12.3004 18.2716 12.3053C18.2618 12.315 18.2474 12.3294 18.2289 12.3478C18.192 12.3846 18.1387 12.4377 18.0732 12.5033C17.9421 12.6344 17.7616 12.8159 17.5634 13.0171C17.173 13.4135 16.695 13.9063 16.4006 14.2379L17.8963 15.5657ZM18.9912 13C18.3044 13.7269 18.3044 13.7269 18.3044 13.7269C18.3044 13.7269 18.3044 13.7269 18.3044 13.7269C18.3045 13.7269 18.3045 13.7269 18.3046 13.727C18.3047 13.7271 18.3049 13.7273 18.3052 13.7276C18.3058 13.7281 18.3067 13.729 18.3079 13.7301C18.3103 13.7324 18.314 13.7359 18.3189 13.7406C18.3286 13.7498 18.3431 13.7635 18.3619 13.7813C18.3994 13.817 18.4537 13.8687 18.5208 13.9328C18.6549 14.0611 18.8393 14.2384 19.0404 14.4346C19.4512 14.8352 19.9031 15.2869 20.1506 15.5657L21.6462 14.2379C21.3441 13.8976 20.8424 13.3984 20.4369 13.0029C20.2299 12.801 20.0406 12.6189 19.9031 12.4874C19.8342 12.4216 19.7783 12.3683 19.7393 12.3313C19.7199 12.3128 19.7047 12.2984 19.6943 12.2886C19.6891 12.2836 19.6851 12.2799 19.6824 12.2773C19.681 12.276 19.6799 12.275 19.6792 12.2743C19.6788 12.2739 19.6785 12.2737 19.6783 12.2735C19.6782 12.2734 19.6782 12.2733 19.6781 12.2733C19.6781 12.2732 19.678 12.2732 19.678 12.2732C19.678 12.2732 19.678 12.2731 18.9912 13ZM20.1506 15.5657C20.364 15.8061 20.5921 16.0911 20.7625 16.3805C20.9423 16.6859 21 16.8995 21 17.0175H23C23 16.3791 22.7403 15.7978 22.486 15.3658C22.2223 14.918 21.8996 14.5233 21.6462 14.2379L20.1506 15.5657ZM8.94721 12.3556L7.94721 11.8556L7.05279 13.6444L8.05279 14.1444L8.94721 12.3556ZM5 7.61806L5 7.61807L3.31559 6.53975C3.23046 6.67272 3.16112 6.81573 3.10932 6.96591L5 7.61806ZM5 7.61807L5 7.61807L3.5712 6.21859C3.47491 6.31689 3.38933 6.42456 3.31559 6.53975L5 7.61807ZM12.4472 10.1056L4.60501 6.18448L3.71058 7.97333L11.5528 11.8944L12.4472 10.1056ZM19 7.61802L19 7.61802L20.6845 6.53977C20.6107 6.42459 20.5251 6.31692 20.4289 6.21862L19 7.61802ZM19 7.61802V7.61802L20.8907 6.96589C20.8389 6.81573 20.7696 6.67274 20.6845 6.53977L19 7.61802ZM19.395 6.18447L11.5528 10.1056L12.4472 11.8944L20.2894 7.97332L19.395 6.18447Z" fill="#0000CC"/>
</svg>
