<svg width="24" height="24" viewBox="0 0 24 24" fill="none" xmlns="http://www.w3.org/2000/svg">
<path d="M21.9239 18.3827L21 18L21.9239 18.3827ZM21.9239 16.6173L21 17L21.9239 16.6173ZM20 16.0039C20 16.5562 20.4477 17.0039 21 17.0039C21.5523 17.0039 22 16.5562 22 16.0039H20ZM16 16.0039C16 16.5562 16.4477 17.0039 17 17.0039C17.5523 17.0039 18 16.5562 18 16.0039H16ZM12 21L11.5528 21.8944C11.8628 22.0494 12.2309 22.0329 12.5258 21.8507C12.8206 21.6685 13 21.3466 13 21H12ZM16.4472 5.89444C16.9412 5.64745 17.1414 5.04677 16.8944 4.55279C16.6474 4.05882 16.0468 3.85859 15.5528 4.10558L16.4472 5.89444ZM4.88451 17.4422L5.33172 16.5478L5.33169 16.5478L4.88451 17.4422ZM4.88451 6.55779L5.33169 7.45224L5.33169 7.45223L4.88451 6.55779ZM11.2851 3.35775L11.7323 4.2522L11.7323 4.25219L11.2851 3.35775ZM12.7162 3.3578L12.269 4.25222V4.25222L12.7162 3.3578ZM19.1156 6.55777L19.5628 5.66335V5.66335L19.1156 6.55777ZM19 9.00001C19 9.55229 19.4477 10 20 10C20.5523 10 21 9.55229 21 9.00001H19ZM19.7144 6.91832L20.4289 6.21862L20.4289 6.21861L19.7144 6.91832ZM19.9453 7.29196L20.8907 6.9659V6.96589L19.9453 7.29196ZM11.8163 3.13518L12.0006 4.11804L12.0007 4.11804L11.8163 3.13518ZM12.1851 3.1352L12.0007 4.11804L12.0007 4.11804L12.1851 3.1352ZM4.05466 7.29199L5 7.61806H5L4.05466 7.29199ZM4.2856 6.91833L5 7.61807L5 7.61806L4.2856 6.91833ZM4.2856 17.0817L5 16.382L5 16.3819L4.2856 17.0817ZM4.05466 16.708L3.10932 17.0341L3.10932 17.0341L4.05466 16.708ZM8.05279 14.1444C8.54676 14.3914 9.14744 14.1912 9.39443 13.6972C9.64142 13.2032 9.44119 12.6026 8.94721 12.3556L8.05279 14.1444ZM7.94721 11.8556C7.45324 11.6086 6.85256 11.8088 6.60557 12.3028C6.35858 12.7968 6.55881 13.3974 7.05279 13.6444L7.94721 11.8556ZM19.8422 7.07889L20.6845 6.53977L19.8422 7.07889ZM17.5 17H20.5V15H17.5V17ZM20.5 18H17.5V20H20.5V18ZM17.5 18C17.2533 18 17.1184 17.9995 17.0209 17.9928C16.9324 17.9868 16.9497 17.9792 17 18L16.2346 19.8478C16.4687 19.9447 16.6944 19.9752 16.8848 19.9882C17.0662 20.0005 17.2807 20 17.5 20V18ZM15 17.5C15 17.7193 14.9995 17.9338 15.0118 18.1152C15.0248 18.3056 15.0553 18.5313 15.1522 18.7654L17 18C17.0208 18.0503 17.0132 18.0676 17.0072 17.9791C17.0005 17.8816 17 17.7467 17 17.5H15ZM17 18L15.1522 18.7654C15.3552 19.2554 15.7446 19.6448 16.2346 19.8478L17 18ZM21 17.5C21 17.7467 20.9995 17.8816 20.9928 17.9791C20.9868 18.0676 20.9792 18.0503 21 18L22.8478 18.7654C22.9447 18.5313 22.9752 18.3056 22.9882 18.1152C23.0005 17.9338 23 17.7193 23 17.5H21ZM20.5 20C20.7193 20 20.9338 20.0005 21.1152 19.9882C21.3056 19.9752 21.5313 19.9447 21.7654 19.8478L21 18C21.0503 17.9792 21.0676 17.9868 20.9791 17.9928C20.8816 17.9995 20.7467 18 20.5 18V20ZM21 18L21.7654 19.8478C22.2554 19.6448 22.6448 19.2554 22.8478 18.7654L21 18ZM20.5 17C20.7467 17 20.8816 17.0005 20.9791 17.0072C21.0676 17.0132 21.0503 17.0208 21 17L21.7654 15.1522C21.5313 15.0553 21.3056 15.0248 21.1152 15.0118C20.9338 14.9995 20.7193 15 20.5 15V17ZM23 17.5C23 17.2807 23.0005 17.0662 22.9882 16.8848C22.9752 16.6944 22.9447 16.4687 22.8478 16.2346L21 17C20.9792 16.9497 20.9868 16.9324 20.9928 17.0209C20.9995 17.1184 21 17.2534 21 17.5H23ZM21 17V17L22.8478 16.2346C22.6448 15.7446 22.2554 15.3552 21.7654 15.1522L21 17ZM17.5 15C17.2807 15 17.0662 14.9995 16.8848 15.0118C16.6944 15.0248 16.4687 15.0553 16.2346 15.1522L17 17C16.9497 17.0208 16.9324 17.0132 17.0209 17.0072C17.1184 17.0005 17.2533 17 17.5 17V15ZM17 17.5C17 17.2534 17.0005 17.1184 17.0072 17.0209C17.0132 16.9324 17.0208 16.9497 17 17L15.1522 16.2346C15.0553 16.4687 15.0248 16.6944 15.0118 16.8848C14.9995 17.0662 15 17.2807 15 17.5H17ZM16.2346 15.1522C15.7446 15.3552 15.3552 15.7446 15.1522 16.2346L17 17V17L16.2346 15.1522ZM20 15V16.0039H22V15H20ZM18 16.0039V15H16V16.0039H18ZM19 14C19.5523 14 20 14.4477 20 15H22C22 13.3432 20.6569 12 19 12V14ZM19 12C17.3431 12 16 13.3432 16 15H18C18 14.4477 18.4477 14 19 14V12ZM11 11V21H13V11H11ZM15.5528 4.10558L7.55279 8.10558L8.44721 9.89444L16.4472 5.89444L15.5528 4.10558ZM12.4472 20.1056L5.33172 16.5478L4.43729 18.3366L11.5528 21.8944L12.4472 20.1056ZM5 16.0111V7.9889H3V16.0111H5ZM5.33169 7.45223L11.7323 4.2522L10.838 2.46331L4.43733 5.66335L5.33169 7.45223ZM12.269 4.25222L18.6683 7.45218L19.5628 5.66335L13.1635 2.46339L12.269 4.25222ZM19 7.98882V9.00001H21V7.98882H19ZM18.6683 7.45218C18.8397 7.53786 18.9276 7.58232 18.9894 7.61818C19.0409 7.6481 19.0273 7.64588 19 7.61802L20.4289 6.21861C20.1663 5.95053 19.819 5.79147 19.5628 5.66335L18.6683 7.45218ZM21 7.98882C21 7.70237 21.013 7.32062 20.8907 6.9659L19 7.61802C18.9873 7.58115 18.9914 7.56795 18.9951 7.62745C18.9996 7.69874 19 7.79725 19 7.98882H21ZM11.7323 4.25219C11.8726 4.18204 11.9437 4.1469 11.9964 4.12394C12.0396 4.10516 12.0314 4.11227 12.0006 4.11804L11.6319 2.15232C11.3244 2.21001 11.0485 2.35807 10.8379 2.46331L11.7323 4.25219ZM13.1635 2.46339C12.953 2.35812 12.677 2.21006 12.3695 2.15235L12.0007 4.11804C11.9699 4.11227 11.9617 4.10516 12.0049 4.12394C12.0576 4.1469 12.1287 4.18205 12.269 4.25222L13.1635 2.46339ZM12.0007 4.11804V4.11804L12.3695 2.15235C12.1258 2.10661 11.8757 2.10661 11.6319 2.15232L12.0007 4.11804ZM5 7.9889C5 7.79731 5.00045 7.69879 5.00489 7.6275C5.0086 7.568 5.01272 7.5812 5 7.61806L3.10932 6.96591C2.98695 7.32065 3 7.70243 3 7.9889H5ZM4.43733 5.66335C4.1811 5.79145 3.83378 5.95051 3.5712 6.21859L5 7.61806C4.97271 7.64593 4.95906 7.64815 5.01063 7.61822C5.07241 7.58236 5.16033 7.53791 5.33169 7.45224L4.43733 5.66335ZM5.33169 16.5478C5.16032 16.4621 5.0724 16.4176 5.01062 16.3818C4.95906 16.3519 4.97271 16.3541 5 16.382L3.5712 17.7814C3.83378 18.0495 4.18109 18.2086 4.43733 18.3367L5.33169 16.5478ZM3 16.0111C3 16.2976 2.98695 16.6794 3.10932 17.0341L5 16.382C5.01272 16.4188 5.0086 16.432 5.00489 16.3725C5.00045 16.3012 5 16.2027 5 16.0111H3ZM5 16.3819L5 16.382L3.10932 17.0341C3.20599 17.3144 3.36375 17.5696 3.5712 17.7814L5 16.3819ZM8.94721 12.3556L7.94721 11.8556L7.05279 13.6444L8.05279 14.1444L8.94721 12.3556ZM5 7.61806L5 7.61807L3.31559 6.53975C3.23046 6.67272 3.16112 6.81573 3.10932 6.96591L5 7.61806ZM5 7.61807L5 7.61807L3.5712 6.21859C3.47491 6.31689 3.38933 6.42456 3.31559 6.53975L5 7.61807ZM12.4472 10.1056L4.60501 6.18448L3.71058 7.97333L11.5528 11.8944L12.4472 10.1056ZM19 7.61802L19 7.61802L20.6845 6.53977C20.6107 6.42459 20.5251 6.31692 20.4289 6.21862L19 7.61802ZM19 7.61802V7.61802L20.8907 6.96589C20.8389 6.81573 20.7696 6.67274 20.6845 6.53977L19 7.61802ZM19.395 6.18447L11.5528 10.1056L12.4472 11.8944L20.2894 7.97332L19.395 6.18447Z" fill="#0000CC"/>
</svg>
