<svg width="24" height="24" viewBox="0 0 24 24" fill="none" xmlns="http://www.w3.org/2000/svg">
<path d="M5.57167 14.5L9.4662 18.4141M19 3.60975C17.4048 3.59505 16.6662 4.33233 16.424 5.07743C16.2107 5.73354 16.4055 7.07735 15.8963 8.0727C15.4095 9.02443 14.1207 9.5617 12.6575 9.60697M20.0004 7.6104L20.0104 7.61049M19.0004 15.96L19.0104 15.9601M7.00038 3.94926L7.01038 3.94936M19.0003 11.1094C17.5003 11.1094 16.5003 11.6094 15.5953 12.5447M10.2381 7.18796C11.0004 6.10991 11.5004 5.10991 11.0086 3.52734M3.53613 20.4645L7.07167 9.85791L14.1427 16.929L3.53613 20.4645Z" stroke="#0000CC" stroke-width="2" stroke-linecap="round" stroke-linejoin="round"/>
</svg>
