<svg width="24" height="24" viewBox="0 0 24 24" fill="none" xmlns="http://www.w3.org/2000/svg">
<path d="M18.3282 8.32861L15.8939 5.8943C14.7058 4.70625 14.1118 4.11222 13.4268 3.88966C12.8243 3.69388 12.1752 3.69388 11.5727 3.88966C10.8877 4.11222 10.2937 4.70625 9.10564 5.8943L7.49975 7.50019M3 20.9999L3.04745 20.6678C3.21536 19.4924 3.29932 18.9047 3.49029 18.3561C3.65975 17.8692 3.89124 17.4062 4.17906 16.9785C4.50341 16.4965 4.92319 16.0767 5.76274 15.2372L17.4107 3.58921C18.1918 2.80816 19.4581 2.80815 20.2392 3.5892C21.0202 4.37025 21.0202 5.63658 20.2392 6.41763L8.37744 18.2794C7.61579 19.041 7.23497 19.4218 6.8012 19.7247C6.41618 19.9935 6.00093 20.2162 5.56398 20.3882C5.07171 20.5819 4.54375 20.6885 3.48793 20.9015L3 20.9999Z" stroke="#0000CC" stroke-width="2" stroke-linecap="round" stroke-linejoin="round"/>
</svg>
