<svg width="24" height="24" viewBox="0 0 24 24" fill="none" xmlns="http://www.w3.org/2000/svg">
<path d="M5.14105 12.7716C3.76183 10.2697 3.00049 7.29799 3.00049 4L4.96782 3.5081C5.68807 3.32804 6.04819 3.238 6.37058 3.29854C6.65465 3.35188 6.91727 3.48615 7.12684 3.68522C7.36466 3.91113 7.50253 4.25579 7.77825 4.9451L8.48895 6.72184C8.67526 7.18763 8.76842 7.42053 8.78448 7.65625C8.7987 7.86484 8.76915 8.07409 8.69774 8.27058C8.61704 8.49264 8.46304 8.69065 8.15505 9.08664L5.14105 12.7716ZM5.14105 12.7716C7.94384 17.8558 13.2983 21 20.0005 21L20.4921 19.0324C20.6722 18.3121 20.7622 17.952 20.7017 17.6296C20.6483 17.3456 20.5141 17.0829 20.315 16.8734C20.0891 16.6355 19.7444 16.4977 19.0551 16.222L17.4696 15.5877C16.9382 15.3752 16.6725 15.2689 16.4076 15.2608C16.1734 15.2536 15.9409 15.3013 15.7285 15.4001C15.4882 15.512 15.2859 15.7143 14.8812 16.119L11.7917 19.1553M16.0002 6V5C16.0002 3.89543 16.8956 3 18.0002 3C19.1048 3 20.0002 3.89543 20.0002 5V6M16.5002 9H19.5002C19.9662 9 20.1991 9 20.3829 8.92388C20.6279 8.82239 20.8226 8.62771 20.9241 8.38268C21.0002 8.19891 21.0002 7.96594 21.0002 7.5C21.0002 7.03406 21.0002 6.80109 20.9241 6.61732C20.8226 6.37229 20.6279 6.17761 20.3829 6.07612C20.1991 6 19.9662 6 19.5002 6H16.5002C16.0343 6 15.8013 6 15.6175 6.07612C15.3725 6.17761 15.1778 6.37229 15.0763 6.61732C15.0002 6.80109 15.0002 7.03406 15.0002 7.5C15.0002 7.96594 15.0002 8.19891 15.0763 8.38268C15.1778 8.62771 15.3725 8.82239 15.6175 8.92388C15.8013 9 16.0343 9 16.5002 9Z" stroke="#0000CC" stroke-width="2" stroke-linecap="round" stroke-linejoin="round"/>
</svg>
