<svg width="24" height="24" viewBox="0 0 24 24" fill="none" xmlns="http://www.w3.org/2000/svg">
<path d="M19.433 13.5325L18.5582 13.0481C18.5455 13.0711 18.5336 13.0947 18.5227 13.1187L19.433 13.5325ZM19.1516 14.1517L20.062 14.5655V14.5655L19.1516 14.1517ZM14.3953 18.908L14.8091 19.8184H14.8091L14.3953 18.908ZM7.41711 6.65096L6.54296 6.16532H6.54296L7.41711 6.65096ZM9.84941 4.63233L9.53319 3.68365L9.84941 4.63233ZM13.3527 19.4599L13.891 20.3026H13.891L13.3527 19.4599ZM14.2336 18.9815L13.8198 18.0711L13.8198 18.0711L14.2336 18.9815ZM5.93719 8.95237L5.19025 8.28748V8.28748L5.93719 8.95237ZM6.86417 7.64627L7.73833 8.13191L6.86417 7.64627ZM10.8173 4.17067L10.2791 3.32788V3.32788L10.8173 4.17067ZM4.67827 18.6789L5.42881 18.0181L4.67827 18.6789ZM4.70091 10.3412L5.44785 11.0061V11.0061L4.70091 10.3412ZM12.7839 19.8232L12.2456 18.9804H12.2456L12.7839 19.8232ZM18.5783 4.60303L17.9233 5.35864L18.5783 4.60303ZM19.9943 12.5191L19.1195 12.0347L19.9943 12.5191ZM11.0222 4.03985L11.5604 4.88264V4.88264L11.0222 4.03985ZM17.7281 8.99481C17.3376 8.60429 16.7044 8.60429 16.3139 8.99481C15.9234 9.38534 15.9234 10.0185 16.3139 10.409L17.7281 8.99481ZM16.3203 10.4154C16.7108 10.8059 17.344 10.8059 17.7345 10.4154C18.125 10.0249 18.125 9.3917 17.7345 9.00118L16.3203 10.4154ZM12.0713 8.99481C11.6808 8.60429 11.0476 8.60429 10.6571 8.99481C10.2665 9.38534 10.2665 10.0185 10.6571 10.409L12.0713 8.99481ZM10.6634 10.4154C11.054 10.8059 11.6871 10.8059 12.0776 10.4154C12.4682 10.0249 12.4682 9.3917 12.0776 9.00118L10.6634 10.4154ZM8.53578 13.9446C8.14527 13.554 7.5121 13.554 7.12156 13.9445C6.73102 14.335 6.731 14.9682 7.12151 15.3587L8.53578 13.9446ZM7.12787 15.3651C7.51838 15.7557 8.15155 15.7557 8.54209 15.3652C8.93263 14.9747 8.93265 14.3415 8.54214 13.951L7.12787 15.3651ZM12.7784 12.5304C12.3879 12.1398 11.7548 12.1398 11.3642 12.5303C10.9737 12.9208 10.9736 13.554 11.3641 13.9445L12.7784 12.5304ZM11.3705 13.9509C11.761 14.3414 12.3941 14.3415 12.7847 13.951C13.1753 13.5605 13.1753 12.9273 12.7848 12.5368L11.3705 13.9509ZM11.3556 5.01345L11.5604 4.88264L10.4839 3.19707L10.2791 3.32788L11.3556 5.01345ZM5.44785 11.0061L6.68413 9.61726L5.19025 8.28748L3.95397 9.67632L5.44785 11.0061ZM19.1195 12.0347L18.5582 13.0481L20.3078 14.017L20.8691 13.0036L19.1195 12.0347ZM12.8145 18.6171L12.2456 18.9804L13.3222 20.666L13.891 20.3026L12.8145 18.6171ZM7.73833 8.13191L8.29127 7.13661L6.54296 6.16532L5.99001 7.16062L7.73833 8.13191ZM18.5227 13.1187L18.2413 13.7379L20.062 14.5655L20.3434 13.9463L18.5227 13.1187ZM13.9815 17.9976L13.8198 18.0711L14.6474 19.8919L14.8091 19.8184L13.9815 17.9976ZM18.2413 13.7379C17.383 15.626 15.8697 17.1393 13.9815 17.9976L14.8091 19.8184C17.1375 18.76 19.0036 16.8939 20.062 14.5655L18.2413 13.7379ZM8.29127 7.13661C8.69946 6.40186 9.36825 5.84681 10.1656 5.58102L9.53319 3.68365C8.26109 4.10768 7.19416 4.99316 6.54296 6.16532L8.29127 7.13661ZM13.891 20.3026C14.1331 20.148 14.3859 20.0107 14.6474 19.8919L13.8198 18.0711C13.4722 18.2291 13.1363 18.4116 12.8145 18.6171L13.891 20.3026ZM6.68413 9.61726C7.08904 9.16238 7.44258 8.66426 7.73833 8.13191L5.99001 7.16062C5.76564 7.56449 5.49744 7.94239 5.19025 8.28748L6.68413 9.61726ZM10.2791 3.32788C10.046 3.47672 9.79551 3.59621 9.53319 3.68365L10.1656 5.58102C10.5841 5.44152 10.9838 5.25089 11.3556 5.01345L10.2791 3.32788ZM5.42881 18.0181C3.66233 16.0118 3.6705 13.0028 5.44785 11.0061L3.95397 9.67632C1.50455 12.428 1.49329 16.5748 3.92773 19.3397L5.42881 18.0181ZM3.92773 19.3397C6.3036 22.0381 10.2921 22.6012 13.3222 20.666L12.2456 18.9804C10.047 20.3847 7.15279 19.9761 5.42881 18.0181L3.92773 19.3397ZM17.9233 5.35864C19.8446 7.02413 20.3476 9.81709 19.1195 12.0347L20.8691 13.0036C22.5588 9.95257 21.8629 6.12689 19.2333 3.84742L17.9233 5.35864ZM19.2333 3.84742C16.7866 1.7264 13.2188 1.45043 10.4839 3.19707L11.5604 4.88264C13.543 3.61641 16.1405 3.81316 17.9233 5.35864L19.2333 3.84742ZM16.3139 10.409L16.3203 10.4154L17.7345 9.00118L17.7281 8.99481L16.3139 10.409ZM10.6571 10.409L10.6634 10.4154L12.0776 9.00118L12.0713 8.99481L10.6571 10.409ZM7.12151 15.3587L7.12787 15.3651L8.54214 13.951L8.53578 13.9446L7.12151 15.3587ZM11.3641 13.9445L11.3705 13.9509L12.7848 12.5368L12.7784 12.5304L11.3641 13.9445Z" fill="#0000CC"/>
</svg>
