<svg width="24" height="24" viewBox="0 0 24 24" fill="none" xmlns="http://www.w3.org/2000/svg">
<path d="M11.5 3C10.0798 3 8.92857 3.57563 8.92857 4.28571C9.57143 5.57143 10 6.5 9 7.00002H3V10C3.5 11 4.42857 10.6429 5.71428 10C6.42437 10 7 11.1513 7 12.5714C7 13.9916 6.3494 15.4604 5.71428 15.1429C4.42857 14.5 3.5 14 3 15.1429V21H9C10 20.5 9.57143 19.5714 8.92857 18.2857C8.92857 17.5757 10.0798 17 11.5 17C12.9202 17 14.389 17.6506 14.0714 18.2857C13.4286 19.5714 13 20.5 14 21L17 21V15C17.5 14 18.4286 14.5 19.7143 15.1429C20.3494 15.4604 21 13.9916 21 12.5714C21 11.1513 20.4244 10 19.7143 10C18.4286 10.6429 17.5 11 17 10V7.00002H14C13 6.5 13.4286 5.57143 14.0714 4.28571C14.389 3.6506 12.9202 3 11.5 3Z" stroke="#0000CC" stroke-width="2" stroke-linejoin="round"/>
</svg>
