<svg width="24" height="24" viewBox="0 0 24 24" fill="none" xmlns="http://www.w3.org/2000/svg">
<path d="M21 9V15C21 17.7614 16.9706 20 12 20C7.02944 20 3 17.7614 3 15V9M21 9C21 6.23858 16.9706 4 12 4C7.02944 4 3 6.23858 3 9M21 9C21 10.1256 20.3319 11.1643 19.2021 12M3 9C3 10.1256 3.6695 11.1643 4.79934 12M4.79934 12C6.44131 13.2144 9.05553 14 12 14C14.9445 14 17.5601 13.2144 19.2021 12M4.79934 12C6.44131 10.7856 9.05697 10 12.0014 10C14.9459 10 17.5601 10.7856 19.2021 12" stroke="#0000CC" stroke-width="2" stroke-linecap="round"/>
</svg>
