<svg width="24" height="24" viewBox="0 0 24 24" fill="none" xmlns="http://www.w3.org/2000/svg">
<path d="M5.01361 18.8356C4.92281 19.3803 5.29083 19.8956 5.8356 19.9864C6.38037 20.0772 6.8956 19.7091 6.98639 19.1644L5.01361 18.8356ZM7.5 9.99998L8.48639 10.1644C8.55129 9.77501 8.38106 9.38389 8.05187 9.16605C7.72269 8.9482 7.29615 8.94439 6.96312 9.15631L7.5 9.99998ZM2.8616 7.03797L3.85283 7.17013L2.8616 7.03797ZM3 5.99998L3.99123 6.13214C4.01769 5.93368 3.98397 5.73184 3.89443 5.55276L3 5.99998ZM2 3.99998L1.59386 3.08617C1.3443 3.19708 1.15096 3.40523 1.05874 3.66229C0.966521 3.91934 0.983441 4.20293 1.10557 4.44719L2 3.99998ZM18.5883 11.9417L17.6078 12.1378L17.6078 12.1378L18.5883 11.9417ZM19.0194 19.1961C19.1277 19.7377 19.6546 20.0889 20.1961 19.9806C20.7377 19.8722 21.0889 19.3454 20.9806 18.8039L19.0194 19.1961ZM15.9917 9.03409L16.1421 8.04546L15.9917 9.03409ZM18.3604 10.976L17.4205 11.3173L17.4205 11.3173L18.3604 10.976ZM2.93225 3.60011L3.27687 4.53885L3.27687 4.53885L2.93225 3.60011ZM10.9868 8.83453L9.98899 8.90087V8.90087L10.9868 8.83453ZM2.75369 10.3856L1.85545 10.8251L1.85545 10.8251L2.75369 10.3856ZM4.50841 11.5061L4.48753 12.5059L4.48753 12.5059L4.50841 11.5061ZM11 7.99998C10.4477 7.99998 10 8.44769 10 8.99998C10 9.55226 10.4477 9.99998 11 9.99998V7.99998ZM18 8.99998C17.4477 8.99998 17 9.44769 17 9.99998C17 10.5523 17.4477 11 18 11V8.99998ZM21 13C21 13.5523 21.4477 14 22 14C22.5523 14 23 13.5523 23 13H21ZM22.6432 18.4899C23.0661 18.1346 23.1209 17.5038 22.7657 17.081C22.4104 16.6581 21.7796 16.6033 21.3568 16.9586L22.6432 18.4899ZM4.64324 16.9586C4.22037 16.6033 3.58958 16.6581 3.23433 17.081C2.87908 17.5038 2.9339 18.1346 3.35676 18.4899L4.64324 16.9586ZM16.5861 20.406C16.8104 20.9107 17.4014 21.138 17.9061 20.9137C18.4108 20.6894 18.6381 20.0985 18.4138 19.5938L16.5861 20.406ZM15.614 15.7563L16.5278 15.3502C16.3394 14.9263 15.8842 14.6876 15.4284 14.7737L15.614 15.7563ZM7.58619 19.5938C7.36188 20.0985 7.58918 20.6895 8.09386 20.9138C8.59855 21.1381 9.18951 20.9108 9.41381 20.4061L7.58619 19.5938ZM10.386 15.7563L10.5716 14.7737C10.1158 14.6876 9.66063 14.9263 9.47223 15.3502L10.386 15.7563ZM6.98639 19.1644L8.48639 10.1644L6.51361 9.83558L5.01361 18.8356L6.98639 19.1644ZM3.85283 7.17013L3.99123 6.13214L2.00877 5.86781L1.87037 6.9058L3.85283 7.17013ZM3.89443 5.55276L2.89443 3.55276L1.10557 4.44719L2.10557 6.44719L3.89443 5.55276ZM10 9.84883V9.99998H12V9.84883H10ZM16 9.99998V8.99998H14V9.99998H16ZM17.6078 12.1378L19.0194 19.1961L20.9806 18.8039L19.5689 11.7456L17.6078 12.1378ZM15 9.99998C15.5461 9.99998 15.7102 10.0028 15.8413 10.0227L16.1421 8.04546C15.8247 7.99718 15.4771 7.99998 15 7.99998V9.99998ZM19.5689 11.7456C19.4754 11.2777 19.4099 10.9364 19.3004 10.6346L17.4205 11.3173C17.4657 11.442 17.5007 11.6023 17.6078 12.1378L19.5689 11.7456ZM15.8413 10.0227C16.5649 10.1328 17.1706 10.6293 17.4205 11.3173L19.3004 10.6346C18.8007 9.25868 17.5893 8.26557 16.1421 8.04546L15.8413 10.0227ZM10 9.99998C10 11.6568 11.3431 13 13 13V11C12.4477 11 12 10.5523 12 9.99998H10ZM2.40614 4.91379C2.9203 4.68527 3.12942 4.59298 3.27687 4.53885L2.58762 2.66137C2.36103 2.74455 2.07332 2.87307 1.59386 3.08617L2.40614 4.91379ZM12 9.84883C12 9.32415 12.0006 9.00904 11.9846 8.7682L9.98899 8.90087C9.99941 9.0576 10 9.28617 10 9.84883H12ZM3.27687 4.53885C6.40926 3.3889 9.76764 5.57142 9.98899 8.90087L11.9846 8.7682C11.6747 4.10698 6.97296 1.05144 2.58762 2.66137L3.27687 4.53885ZM13 13C14.6569 13 16 11.6568 16 9.99998H14C14 10.5523 13.5523 11 13 11V13ZM1.87037 6.9058C1.74801 7.8235 1.64762 8.57086 1.61591 9.15472C1.58526 9.71914 1.60324 10.3096 1.85545 10.8251L3.65192 9.94604C3.63817 9.91793 3.58548 9.76931 3.61297 9.26317C3.6394 8.77646 3.72594 8.1218 3.85283 7.17013L1.87037 6.9058ZM6.96312 9.15631C6.15313 9.67176 5.59562 10.0257 5.16518 10.2544C4.71756 10.4922 4.56057 10.507 4.52928 10.5063L4.48753 12.5059C5.06124 12.5179 5.6045 12.2858 6.10366 12.0205C6.62001 11.7462 7.2558 11.3407 8.03688 10.8436L6.96312 9.15631ZM1.85545 10.8251C2.34904 11.8338 3.36473 12.4824 4.48753 12.5059L4.52928 10.5063C4.15501 10.4985 3.81645 10.2823 3.65192 9.94604L1.85545 10.8251ZM15 7.99998H11V9.99998H15V7.99998ZM18 11H19V8.99998H18V11ZM19 11C20.1046 11 21 11.8954 21 13H23C23 10.7908 21.2091 8.99998 19 8.99998V11ZM21.3568 16.9586C19.0967 18.8573 16.1831 20 13 20V22C16.671 22 20.0363 20.68 22.6432 18.4899L21.3568 16.9586ZM13 20C9.81692 20 6.90334 18.8573 4.64324 16.9586L3.35676 18.4899C5.96373 20.68 9.32902 22 13 22V20ZM18.4138 19.5938L16.5278 15.3502L14.7001 16.1625L16.5861 20.406L18.4138 19.5938ZM9.41381 20.4061L11.2999 16.1625L9.47223 15.3502L7.58619 19.5938L9.41381 20.4061ZM15.4284 14.7737C14.6424 14.9221 13.8314 14.9999 13.0007 14.9999V16.9999C13.9566 16.9999 14.8919 16.9104 15.7995 16.739L15.4284 14.7737ZM13.0007 14.9999C12.1699 14.9999 11.3575 14.9221 10.5716 14.7737L10.2005 16.739C11.1082 16.9104 12.0448 16.9999 13.0007 16.9999V14.9999Z" fill="#0000CC"/>
</svg>
