<svg width="24" height="24" viewBox="0 0 24 24" fill="none" xmlns="http://www.w3.org/2000/svg">
<path d="M16.2847 16.2847C14.3371 18.2322 12.0784 19.4358 10.039 19.8437C7.99139 20.2532 6.28791 19.849 5.21945 18.7805L3.80524 20.1948C5.49366 21.8832 7.96223 22.2987 10.4313 21.8049C12.9085 21.3094 15.5111 19.8867 17.6989 17.6989L16.2847 16.2847ZM5.21945 18.7805C4.15099 17.7121 3.74677 16.0086 4.15629 13.961C4.56417 11.9216 5.76781 9.66286 7.71533 7.71533L6.30112 6.30112C4.11333 8.48891 2.69058 11.0915 2.19513 13.5687C1.70132 16.0378 2.11681 18.5063 3.80524 20.1948L5.21945 18.7805ZM7.71533 7.71533C9.66286 5.76781 11.9216 4.56417 13.961 4.15629C16.0086 3.74677 17.7121 4.15099 18.7805 5.21945L20.1948 3.80524C18.5063 2.11681 16.0378 1.70132 13.5687 2.19513C11.0915 2.69058 8.48891 4.11333 6.30112 6.30112L7.71533 7.71533ZM18.7805 5.21945C19.849 6.28791 20.2532 7.99139 19.8437 10.039C19.4358 12.0784 18.2322 14.3371 16.2847 16.2847L17.6989 17.6989C19.8867 15.5111 21.3094 12.9085 21.8049 10.4313C22.2987 7.96223 21.8832 5.49366 20.1948 3.80524L18.7805 5.21945ZM13.7797 13.8341C11.775 15.8388 9.71486 17.3493 8.03086 18.1844C7.18405 18.6043 6.48397 18.8276 5.96481 18.8863C5.43285 18.9465 5.2604 18.8215 5.21945 18.7805L3.80524 20.1948C4.45855 20.8481 5.36501 20.9669 6.18963 20.8737C7.02705 20.7789 7.96124 20.4513 8.91943 19.9762C10.8454 19.021 13.0783 17.364 15.1939 15.2483L13.7797 13.8341ZM5.21945 18.7805C5.17848 18.7396 5.05346 18.5671 5.11362 18.0351C5.17234 17.5159 5.39556 16.8158 5.81547 15.9689C6.65052 14.2849 8.1609 12.2246 10.1656 10.22L8.75137 8.80575C6.63567 10.9215 4.97871 13.1544 4.02365 15.0805C3.54851 16.0387 3.22099 16.9729 3.12629 17.8104C3.03304 18.635 3.15193 19.5415 3.80524 20.1948L5.21945 18.7805ZM10.1656 10.22C12.1702 8.21533 14.2449 6.69043 15.9444 5.84131C16.7992 5.41428 17.5074 5.18429 18.0331 5.12136C18.574 5.05661 18.7442 5.18311 18.7805 5.21945L20.1948 3.80524C19.5368 3.1473 18.6213 3.03668 17.7954 3.13554C16.9543 3.23622 16.0145 3.57057 15.0506 4.05219C13.1127 5.02037 10.8671 6.69 8.75137 8.80575L10.1656 10.22ZM18.7805 5.21945C18.8169 5.25577 18.9434 5.4259 18.8786 5.96682C18.8156 6.49251 18.5856 7.20067 18.1586 8.05535C17.3094 9.75481 15.7844 11.8295 13.7797 13.8341L15.1939 15.2483C17.3097 13.1326 18.9794 10.8871 19.9476 8.94932C20.4293 7.9854 20.7637 7.0457 20.8644 6.20461C20.9633 5.37875 20.8527 4.46318 20.1948 3.80524L18.7805 5.21945Z" fill="#0000CC"/>
</svg>
