<svg width="24" height="24" viewBox="0 0 24 24" fill="none" xmlns="http://www.w3.org/2000/svg">
<path d="M3.63063 8.37099L8.32394 3.67769C9.24967 2.75196 10.7642 2.76555 11.7067 3.70805C12.6492 4.65055 12.6628 6.16505 11.737 7.09078L3.69136 15.1364C2.76563 16.0622 2.77923 17.5767 3.72172 18.5192C4.66422 19.4617 6.17872 19.4753 7.10445 18.5495L15.1501 10.5039C16.0758 9.57814 17.5903 9.59173 18.5328 10.5342C19.4753 11.4767 19.4897 12.9904 18.564 13.9162L15.5461 16.9341C13.7672 18.713 16.2311 21.5881 18.2159 20.8378C18.7683 20.629 21 19 21 19" stroke="#0000CC" stroke-width="2" stroke-linecap="round" stroke-linejoin="round"/>
</svg>
