<svg width="24" height="24" viewBox="0 0 24 24" fill="none" xmlns="http://www.w3.org/2000/svg">
<path d="M14 14V18.6C14 19.4401 14 19.8601 13.8365 20.181C13.6927 20.4632 13.4632 20.6927 13.181 20.8365C12.8601 21 12.4401 21 11.6 21H6.4C5.55992 21 5.13988 21 4.81901 20.8365C4.53677 20.6927 4.3073 20.4632 4.16349 20.181C4 19.8601 4 19.4401 4 18.6V10M20 10V21M4 17H14M5.53933 3.80618L2 10H22L18.4607 3.80618C18.2929 3.51256 18.209 3.36575 18.0911 3.25894C17.9868 3.16445 17.8638 3.09303 17.73 3.04936C17.5787 3 17.4097 3 17.0715 3H6.92852C6.59034 3 6.42125 3 6.27004 3.04936C6.13624 3.09303 6.01317 3.16445 5.90888 3.25894C5.791 3.36575 5.70711 3.51256 5.53933 3.80618Z" stroke="#0000CC" stroke-width="2" stroke-linecap="round" stroke-linejoin="round"/>
</svg>
