<svg width="24" height="24" viewBox="0 0 24 24" fill="none" xmlns="http://www.w3.org/2000/svg">
<path d="M12 12V10C12 8.89543 11.1046 8 10 8M12 12H6M12 12H14C15.1046 12 16 11.1046 16 10M12 12V6M12 12H10C8.89543 12 8 12.8954 8 14M12 12V18M12 12V14C12 15.1046 12.8954 16 14 16M12 12H18M6 12C4.89543 12 4 11.1046 4 10C4 8.89543 4.89543 8 6 8H10M6 12H8V14M6 12C4.89543 12 4 12.8954 4 14C4 15.1046 4.89543 16 6 16C7.10457 16 8 15.1046 8 14M10 8H12V6M10 8C8.89543 8 8 7.10457 8 6C8 4.89543 8.89543 4 10 4C11.1046 4 12 4.89543 12 6M12 6C12 4.89543 12.8954 4 14 4C15.1046 4 16 4.89543 16 6V10M16 10V12H18M16 10C16 8.89543 16.8954 8 18 8C19.1046 8 20 8.89543 20 10C20 11.1046 19.1046 12 18 12M18 12C19.1046 12 20 12.8954 20 14C20 15.1046 19.1046 16 18 16H14M14 16H12V18M14 16C15.1046 16 16 16.8954 16 18C16 19.1046 15.1046 20 14 20C12.8954 20 12 19.1046 12 18M12 18C12 19.1046 11.1046 20 10 20C8.89543 20 8 19.1046 8 18V14" stroke="#0000CC" stroke-width="2" stroke-linejoin="round"/>
</svg>
