<svg width="24" height="24" viewBox="0 0 24 24" fill="none" xmlns="http://www.w3.org/2000/svg">
<path d="M12.25 11.5H11.75M12.25 11.5C13.4926 11.5 14.5 12.5074 14.5 13.75C14.5 14.9926 13.4926 16 12.25 16H11.75C10.5074 16 9.5 14.9926 9.5 13.75C9.5 12.5074 10.5074 11.5 11.75 11.5M12.25 11.5C13.2165 11.5 14 10.7165 14 9.75C14 8.7835 13.2165 8 12.25 8H11.75C10.7835 8 10 8.7835 10 9.75C10 10.7165 10.7835 11.5 11.75 11.5M7.2 20H16.8C17.9201 20 18.4802 20 18.908 19.782C19.2843 19.5903 19.5903 19.2843 19.782 18.908C20 18.4802 20 17.9201 20 16.8V7.2C20 6.0799 20 5.51984 19.782 5.09202C19.5903 4.71569 19.2843 4.40973 18.908 4.21799C18.4802 4 17.9201 4 16.8 4H7.2C6.0799 4 5.51984 4 5.09202 4.21799C4.71569 4.40973 4.40973 4.71569 4.21799 5.09202C4 5.51984 4 6.07989 4 7.2V16.8C4 17.9201 4 18.4802 4.21799 18.908C4.40973 19.2843 4.71569 19.5903 5.09202 19.782C5.51984 20 6.07989 20 7.2 20Z" stroke="#0000CC" stroke-width="2" stroke-linejoin="round"/>
</svg>
