<svg width="24" height="24" viewBox="0 0 24 24" fill="none" xmlns="http://www.w3.org/2000/svg">
<path d="M20 10.9994V7.19936C20 6.07925 20 5.5192 19.782 5.09138C19.5903 4.71505 19.2843 4.40909 18.908 4.21735C18.4802 3.99936 17.9201 3.99936 16.8 3.99936H7.2C6.0799 3.99936 5.51984 3.99936 5.09202 4.21735C4.71569 4.40909 4.40973 4.71505 4.21799 5.09138C4 5.5192 4 6.07925 4 7.19936V16.7994C4 17.9195 4 18.4795 4.21799 18.9073C4.40973 19.2837 4.71569 19.5896 5.09202 19.7814C5.51984 19.9994 6.0799 19.9994 7.2 19.9994H11M9.12109 13H14.8823M8 16L10.2708 9.75535C10.8037 8.28986 11.0701 7.55712 11.46 7.34977C11.7976 7.17021 12.2024 7.17021 12.54 7.34977C12.9299 7.55712 13.1963 8.28987 13.7292 9.75535L14.9091 13M20 18.0039V17C20 15.8954 19.1046 15 18 15C16.8954 15 16 15.8954 16 17V18.0039M16.5 21H19.5C19.9659 21 20.1989 21 20.3827 20.9239C20.6277 20.8224 20.8224 20.6277 20.9239 20.3827C21 20.1989 21 19.9659 21 19.5C21 19.0341 21 18.8011 20.9239 18.6173C20.8224 18.3723 20.6277 18.1776 20.3827 18.0761C20.1989 18 19.9659 18 19.5 18H16.5C16.0341 18 15.8011 18 15.6173 18.0761C15.3723 18.1776 15.1776 18.3723 15.0761 18.6173C15 18.8011 15 19.0341 15 19.5C15 19.9659 15 20.1989 15.0761 20.3827C15.1776 20.6277 15.3723 20.8224 15.6173 20.9239C15.8011 21 16.0341 21 16.5 21Z" stroke="#0000CC" stroke-width="2" stroke-linecap="round" stroke-linejoin="round"/>
</svg>
