<svg width="24" height="24" viewBox="0 0 24 24" fill="none" xmlns="http://www.w3.org/2000/svg">
<path d="M11.244 4.17394C11.4755 3.50802 11.5912 3.17507 11.7624 3.08279C11.9105 3.00292 12.0889 3.00292 12.237 3.08279C12.4081 3.17507 12.5239 3.50802 12.7553 4.17394L14.2856 8.57633C14.3515 8.76586 14.3844 8.86062 14.4438 8.93119C14.4962 8.99353 14.5631 9.04212 14.6386 9.07272C14.7241 9.10737 14.8244 9.10941 15.025 9.1135L19.6848 9.20846C20.3896 9.22282 20.742 9.23001 20.8827 9.36426C21.0044 9.48045 21.0595 9.65008 21.0294 9.81563C20.9945 10.0069 20.7136 10.2199 20.1518 10.6458L16.4377 13.4616C16.2778 13.5828 16.1979 13.6434 16.1491 13.7217C16.106 13.7908 16.0805 13.8694 16.0747 13.9507C16.0682 14.0427 16.0972 14.1387 16.1553 14.3307L17.505 18.7918C17.7091 19.4666 17.8112 19.804 17.727 19.9793C17.6541 20.1309 17.5098 20.2358 17.343 20.2582C17.1503 20.2842 16.861 20.0828 16.2823 19.6801L12.4566 17.018C12.2919 16.9034 12.2096 16.8461 12.1201 16.8239C12.041 16.8043 11.9584 16.8043 11.8793 16.8239C11.7898 16.8461 11.7074 16.9034 11.5427 17.018L7.71707 19.6801C7.13839 20.0828 6.84905 20.2842 6.65635 20.2582C6.48958 20.2358 6.34528 20.1309 6.2724 19.9793C6.18818 19.804 6.29025 19.4666 6.4944 18.7918L7.84405 14.3307C7.90215 14.1387 7.93121 14.0427 7.92466 13.9507C7.91889 13.8694 7.89334 13.7908 7.85026 13.7217C7.80148 13.6434 7.72154 13.5828 7.56164 13.4616L3.8476 10.6458C3.28581 10.2199 3.00491 10.0069 2.97003 9.81563C2.93985 9.65008 2.99496 9.48045 3.11669 9.36426C3.25734 9.23001 3.60976 9.22282 4.31462 9.20846L8.97442 9.1135C9.17503 9.10941 9.27533 9.10737 9.36079 9.07272C9.43629 9.04212 9.50316 8.99353 9.55559 8.93119C9.61495 8.86062 9.64789 8.76586 9.71377 8.57633L11.244 4.17394Z" stroke="#0000CC" stroke-width="2" stroke-linecap="round" stroke-linejoin="round"/>
</svg>
