<svg width="24" height="24" viewBox="0 0 24 24" fill="none" xmlns="http://www.w3.org/2000/svg">
<path d="M11.2919 3.84269C11.5213 3.40743 11.636 3.1898 11.7892 3.11874C11.9226 3.05686 12.0765 3.05686 12.21 3.11874C12.3632 3.1898 12.4779 3.40743 12.7073 3.84269L14.1143 6.51214C14.2134 6.70007 14.2629 6.79403 14.3367 6.8566C14.4018 6.91184 14.48 6.94948 14.5637 6.96594C14.6586 6.98459 14.763 6.96473 14.9717 6.925L17.936 6.3607C18.4193 6.26868 18.661 6.22268 18.8121 6.29815C18.9437 6.36388 19.0396 6.48421 19.0744 6.62711C19.1144 6.79119 19.0158 7.01656 18.8185 7.46731L17.6087 10.2318C17.5235 10.4264 17.481 10.5237 17.478 10.6203C17.4754 10.7057 17.4947 10.7903 17.5341 10.866C17.5787 10.9519 17.6593 11.0211 17.8205 11.1595L20.1099 13.1252C20.4832 13.4458 20.6698 13.606 20.705 13.7712C20.7357 13.915 20.7014 14.0651 20.6114 14.1814C20.508 14.3149 20.2703 14.3783 19.7949 14.5052L16.8793 15.2829C16.674 15.3377 16.5714 15.365 16.494 15.423C16.4257 15.4742 16.3716 15.542 16.3369 15.6201C16.2976 15.7084 16.2937 15.8146 16.286 16.0269L16.1765 19.0424C16.1587 19.5341 16.1498 19.78 16.0426 19.9105C15.9492 20.0241 15.8106 20.0909 15.6635 20.093C15.4946 20.0955 15.2969 19.9492 14.9013 19.6566L12.4754 17.862C12.3046 17.7356 12.2192 17.6725 12.1256 17.6481C12.043 17.6266 11.9562 17.6266 11.8736 17.6481C11.78 17.6725 11.6946 17.7356 11.5238 17.862L9.09789 19.6566C8.70233 19.9492 8.50456 20.0955 8.3357 20.093C8.18864 20.0909 8.04997 20.0241 7.95661 19.9105C7.84941 19.78 7.84049 19.5341 7.82264 19.0424L7.71317 16.0269C7.70547 15.8146 7.70161 15.7084 7.66231 15.6201C7.62762 15.542 7.57353 15.4742 7.50518 15.423C7.42777 15.365 7.32514 15.3377 7.11989 15.2829L4.20427 14.5052C3.72887 14.3783 3.49117 14.3149 3.38781 14.1814C3.29778 14.0651 3.26354 13.915 3.29418 13.7712C3.32936 13.606 3.51601 13.4458 3.88931 13.1252L6.17874 11.1595C6.33991 11.0211 6.42049 10.9519 6.46509 10.866C6.50445 10.7903 6.52376 10.7057 6.52116 10.6203C6.51823 10.5237 6.47565 10.4264 6.39048 10.2318L5.18069 7.46731C4.98343 7.01656 4.8848 6.79119 4.92477 6.62711C4.95957 6.48421 5.05553 6.36388 5.18711 6.29815C5.33817 6.22268 5.57985 6.26868 6.06319 6.3607L9.02753 6.925C9.23621 6.96473 9.34055 6.98459 9.43545 6.96594C9.51924 6.94948 9.59741 6.91184 9.66252 6.8566C9.73627 6.79403 9.78579 6.70007 9.88484 6.51214L11.2919 3.84269Z" stroke="#0000CC" stroke-width="2" stroke-linecap="round" stroke-linejoin="round"/>
</svg>
