<svg width="24" height="24" viewBox="0 0 24 24" fill="none" xmlns="http://www.w3.org/2000/svg">
<path d="M8.30497 19.3711L11.9998 16.8L11.9998 4.4476V4.44758C11.9998 4.18085 11.9998 4.04746 11.9664 4.01764C11.9377 3.99205 11.8969 3.98516 11.8614 3.99992C11.8201 4.01712 11.7763 4.1431 11.6887 4.39506L9.949 9.39991C9.88312 9.58944 9.85018 9.6842 9.79082 9.75478C9.73839 9.81712 9.67152 9.8657 9.59602 9.89631C9.51056 9.93095 9.41026 9.933 9.20965 9.93708L5.26579 10.0175C4.56094 10.0318 4.20851 10.039 4.06786 10.1733C3.94613 10.2894 3.89102 10.4591 3.9212 10.6246C3.95608 10.8159 4.23698 11.0289 4.79877 11.4548L7.94218 13.8379C8.10207 13.9592 8.18202 14.0198 8.2308 14.098C8.27388 14.1672 8.29943 14.2458 8.3052 14.327C8.31174 14.419 8.28269 14.5151 8.22459 14.7071L7.0823 18.4828C6.87815 19.1576 6.77608 19.495 6.8603 19.6702C6.93318 19.8219 7.07748 19.9267 7.24425 19.9492C7.43695 19.9751 7.72629 19.7738 8.30497 19.3711Z" stroke="#0000CC" stroke-width="2" stroke-linecap="round" stroke-linejoin="round"/>
</svg>
