<svg width="24" height="24" viewBox="0 0 24 24" fill="none" xmlns="http://www.w3.org/2000/svg">
<path d="M7.92773 14.1825L12.5984 8.45532M10.5684 16.8215L16.2955 12.1509M8.04883 14.0493L3.38477 9.38525M21 12C21 16.9706 16.9706 21 12 21C7.02944 21 3 16.9706 3 12C3 7.02944 7.02944 3 12 3C16.9706 3 21 7.02944 21 12ZM17.25 10.125C17.25 11.5747 16.0747 12.75 14.625 12.75C13.1753 12.75 12 11.5747 12 10.125C12 8.67525 13.1753 7.5 14.625 7.5C16.0747 7.5 17.25 8.67525 17.25 10.125ZM11.25 15.375C11.25 16.4105 10.4105 17.25 9.375 17.25C8.33947 17.25 7.5 16.4105 7.5 15.375C7.5 14.3395 8.33947 13.5 9.375 13.5C10.4105 13.5 11.25 14.3395 11.25 15.375Z" stroke="#0000CC" stroke-width="2" stroke-linecap="round" stroke-linejoin="round"/>
</svg>
