<svg width="24" height="24" viewBox="0 0 24 24" fill="none" xmlns="http://www.w3.org/2000/svg">
<path d="M7 21.0001H4.6C4.03995 21.0001 3.75992 21.0001 3.54601 20.8911C3.35785 20.7952 3.20487 20.6423 3.10899 20.4541C3 20.2402 3 19.9602 3 19.4001V12.8897C3 12.7893 3 12.7392 3.00954 12.691C3.018 12.6483 3.03201 12.6069 3.0512 12.5678C3.07284 12.5238 3.10329 12.4839 3.16419 12.4041L4.36419 10.8327C4.58035 10.5496 4.68843 10.4081 4.82038 10.3573C4.93599 10.3128 5.06401 10.3128 5.17962 10.3573C5.31157 10.4081 5.41965 10.5496 5.63581 10.8327L6.83581 12.4041C6.89671 12.4839 6.92716 12.5238 6.9488 12.5678C6.96799 12.6069 6.982 12.6483 6.99046 12.691C7 12.7392 7 12.7893 7 12.8897M7 21.0001H17M7 21.0001V8.50845C7 8.25801 7 8.1328 7.02886 8.01529C7.05444 7.91112 7.09662 7.81174 7.15378 7.72097C7.21825 7.61858 7.30831 7.53158 7.48845 7.3576L10.8884 4.0737C11.2788 3.69666 11.474 3.50814 11.6976 3.4372C11.8944 3.37477 12.1056 3.37477 12.3024 3.4372C12.526 3.50814 12.7212 3.69666 13.1116 4.0737L16.5116 7.3576C16.6917 7.53158 16.7818 7.61858 16.8462 7.72097C16.9034 7.81174 16.9456 7.91112 16.9711 8.01529C17 8.1328 17 8.25801 17 8.50845V21.0001M17 21.0001H19.4C19.9601 21.0001 20.2401 21.0001 20.454 20.8911C20.6422 20.7952 20.7951 20.6423 20.891 20.4541C21 20.2402 21 19.9602 21 19.4001V12.8897C21 12.7893 21 12.7392 20.9905 12.691C20.982 12.6483 20.968 12.6069 20.9488 12.5678C20.9272 12.5238 20.8967 12.4839 20.8358 12.4041L19.6358 10.8327C19.4197 10.5496 19.3116 10.4081 19.1796 10.3573C19.064 10.3128 18.936 10.3128 18.8204 10.3573C18.6884 10.4081 18.5803 10.5496 18.3642 10.8327L17.1642 12.4041C17.1033 12.4839 17.0728 12.5238 17.0512 12.5678C17.032 12.6069 17.018 12.6483 17.0095 12.691C17 12.7392 17 12.7893 17 12.8897M14 21.0001V17.0001C14 15.8955 13.1046 15.0001 12 15.0001C10.8954 15.0001 10 15.8955 10 17.0001V21.0001H14Z" stroke="#0000CC" stroke-width="2" stroke-linecap="round" stroke-linejoin="round"/>
</svg>
