<svg width="24" height="24" viewBox="0 0 24 24" fill="none" xmlns="http://www.w3.org/2000/svg">
<path d="M16 7C16 9.20914 14.2091 11 12 11C9.79086 11 8 9.20914 8 7C8 4.79086 9.79086 3 12 3C14.2091 3 16 4.79086 16 7Z" stroke="#0000CC" stroke-width="2" stroke-linejoin="round"/>
<path d="M5 17.23C5 17.0164 5 16.9097 5.00544 16.8195C5.09675 15.3048 6.30476 14.0967 7.81948 14.0054C7.90966 14 8.01643 14 8.22998 14C8.25761 14 8.27142 14 8.27996 14.0001C8.43185 14.0027 8.54021 14.0273 8.67839 14.0904C8.68616 14.094 8.70456 14.1028 8.74137 14.1203C9.29791 14.3861 10.7215 15 12 15C13.2785 15 14.7021 14.3861 15.2586 14.1203C15.2954 14.1028 15.3138 14.094 15.3216 14.0904C15.4598 14.0273 15.5682 14.0027 15.72 14.0001C15.7286 14 15.7424 14 15.77 14C15.9836 14 16.0903 14 16.1805 14.0054C17.6952 14.0967 18.9033 15.3048 18.9946 16.8195C19 16.9097 19 17.0164 19 17.23V19.4C19 19.9601 19 20.2401 18.891 20.454C18.7951 20.6422 18.6422 20.7951 18.454 20.891C18.2401 21 17.9601 21 17.4 21H6.6C6.03995 21 5.75992 21 5.54601 20.891C5.35785 20.7951 5.20487 20.6422 5.10899 20.454C5 20.2401 5 19.9601 5 19.4V17.23Z" stroke="#0000CC" stroke-width="2" stroke-linejoin="round"/>
</svg>
