<svg width="24" height="24" viewBox="0 0 24 24" fill="none" xmlns="http://www.w3.org/2000/svg">
<path d="M12 3C16.6546 3 20.4839 6.53345 20.952 11.0643M12 3C10.0286 3 8.20522 3.63385 6.72258 4.70887M12 3L14.5 5.5L17.5 12.5M20.952 11.0643C20.9837 11.3719 21 11.684 21 12C21 13.4368 20.6633 14.795 20.0645 16M20.952 11.0643L17.5 12.5M6.72258 4.70887C4.467 6.34433 3 9.00085 3 12C3 13.6912 3.46647 15.2735 4.27778 16.6251M6.72258 4.70887L9.70008 6.99999M4.27778 16.6251L4.99957 13L9.70008 6.99999M4.27778 16.6251C5.25277 18.2495 6.72577 19.5408 8.48566 20.288M17.5 12.5L12 12M12 12L9.70008 6.99999M12 12L8.69922 16.5M8.69922 16.5L16.9992 17.5L20.0645 16M8.69922 16.5L8.5 20L8.48566 20.288M20.0645 16C18.5918 18.9634 15.5337 21 12 21C10.7531 21 9.56537 20.7464 8.48566 20.288" stroke="#0000CC" stroke-width="2" stroke-linecap="round" stroke-linejoin="round"/>
</svg>
