<svg width="24" height="24" viewBox="0 0 24 24" fill="none" xmlns="http://www.w3.org/2000/svg">
<path d="M10.9383 13.0607L11.6454 13.7678C12.303 14.4254 12.6318 14.7542 12.9739 14.9517C13.9021 15.4876 15.0457 15.4876 15.9739 14.9517C16.1635 14.8422 16.349 14.6924 16.5887 14.4686C16.9924 14.0917 16.9857 13.4512 16.5952 13.0607V13.0607C15.9376 12.4031 15.6088 12.0743 15.2668 11.8768C14.3386 11.3409 13.195 11.3409 12.2668 11.8768C11.9247 12.0743 11.5959 12.4031 10.9383 13.0607ZM10.9383 13.0607L10.2312 12.3536C9.57364 11.696 9.24484 11.3672 9.04736 11.0252C8.51146 10.097 8.51146 8.95336 9.04736 8.02516C9.15683 7.83555 9.30665 7.65002 9.53046 7.41029C9.90735 7.00659 10.5478 7.01331 10.9383 7.40383V7.40383C11.5959 8.06142 11.9247 8.39022 12.1222 8.73226C12.6581 9.66046 12.6581 10.8041 12.1222 11.7323C11.9247 12.0743 11.5959 12.4031 10.9383 13.0607ZM13.7668 10.2323L14.4739 10.9394C15.1315 11.597 15.4602 11.9258 15.8023 12.1232C16.7305 12.6591 17.8741 12.6591 18.8023 12.1232C18.9919 12.0138 19.1774 11.8639 19.4172 11.6401C19.8209 11.2632 19.8141 10.6228 19.4236 10.2323V10.2323C18.766 9.57467 18.4372 9.24588 18.0952 9.0484C17.167 8.5125 16.0234 8.5125 15.0952 9.0484C14.7531 9.24588 14.4243 9.57467 13.7668 10.2323ZM13.7668 10.2323L13.0597 9.52515C12.4021 8.86757 12.0733 8.53877 11.8758 8.19673C11.3399 7.26852 11.3399 6.12493 11.8758 5.19673C11.9853 5.00712 12.1351 4.82159 12.3589 4.58186C12.7358 4.17817 13.3762 4.18488 13.7668 4.57541V4.57541C14.4243 5.233 14.7531 5.56179 14.9506 5.90383C15.4865 6.83204 15.4865 7.97563 14.9506 8.90383C14.7531 9.24588 14.4243 9.57467 13.7668 10.2323ZM8.1099 15.8891L8.81701 16.5962C9.4746 17.2538 9.80339 17.5826 10.1454 17.7801C11.0736 18.316 12.2172 18.316 13.1454 17.7801C13.335 17.6706 13.5206 17.5208 13.7603 17.297C14.164 16.9201 14.1573 16.2796 13.7668 15.8891V15.8891C13.1092 15.2315 12.7804 14.9027 12.4383 14.7053C11.5101 14.1694 10.3665 14.1694 9.43833 14.7053C9.09629 14.9027 8.76749 15.2315 8.1099 15.8891ZM8.1099 15.8891L7.4028 15.182C6.74521 14.5244 6.41641 14.1956 6.21893 13.8536C5.68304 12.9254 5.68304 11.7818 6.21893 10.8536C6.3284 10.664 6.47822 10.4784 6.70203 10.2387C7.07893 9.83502 7.71938 9.84174 8.1099 10.2323V10.2323C8.76749 10.8899 9.09629 11.2186 9.29377 11.5607C9.82966 12.4889 9.82966 13.6325 9.29377 14.5607C9.09629 14.9027 8.76749 15.2315 8.1099 15.8891ZM15.181 8.81805L17.7359 8.30706C18.3753 8.17918 18.9625 7.8649 19.4236 7.40383C19.8847 6.94277 20.199 6.35554 20.3268 5.71615L20.8378 3.16119L18.2829 3.67218C17.6435 3.80006 17.0563 4.11434 16.5952 4.57541C16.1341 5.03648 15.8198 5.62371 15.692 6.26309L15.181 8.81805ZM15.181 8.81805L3.16016 20.8389" stroke="#0000CC" stroke-width="2" stroke-linecap="round" stroke-linejoin="round"/>
</svg>
