<svg width="24" height="24" viewBox="0 0 24 24" fill="none" xmlns="http://www.w3.org/2000/svg">
<path fill-rule="evenodd" clip-rule="evenodd" d="M10.7102 18.132C10.0966 17.7382 9.33559 17.1899 8.57172 16.4848C6.83965 14.886 5 12.3892 5 9C5 6.40306 6.17611 4.60959 7.73126 3.49877C9.24342 2.41865 11.0818 2 12.5 2C13.9182 2 15.7566 2.41865 17.2687 3.49877C18.8239 4.60959 20 6.40306 20 9C20 12.3892 18.1604 14.886 16.4283 16.4848C15.6644 17.1899 14.9034 17.7382 14.2898 18.132L15.8321 20.4453C16.0366 20.7522 16.0557 21.1467 15.8817 21.4719C15.7077 21.797 15.3688 22 15 22H10C9.6312 22 9.29234 21.797 9.11833 21.4719C8.94431 21.1467 8.96338 20.7522 9.16795 20.4453L10.7102 18.132ZM9.5 8.5C9.5 7.82695 9.67283 7.31118 9.9211 6.98865C10.1455 6.69707 10.4751 6.5 11 6.5C11.5523 6.5 12 6.05228 12 5.5C12 4.94772 11.5523 4.5 11 4.5C9.86808 4.5 8.9476 4.9745 8.33626 5.76871C7.74874 6.53196 7.5 7.5162 7.5 8.5C7.5 9.05228 7.94772 9.5 8.5 9.5C9.05228 9.5 9.5 9.05228 9.5 8.5Z" fill="#0000CC"/>
</svg>
