<svg width="24" height="24" viewBox="0 0 24 24" fill="none" xmlns="http://www.w3.org/2000/svg">
<path fill-rule="evenodd" clip-rule="evenodd" d="M5 2C3.34315 2 2 3.34315 2 5V19C2 20.6569 3.34315 22 5 22H10.1707C10.0602 21.6872 10 21.3506 10 21C10 16.7253 12.4383 13.0201 16 11.1994V5C16 3.34315 14.6569 2 13 2H5ZM8 4C7.44771 4 7 4.44772 7 5C7 5.55228 7.44771 6 8 6H10C10.5523 6 11 5.55228 11 5C11 4.44772 10.5523 4 10 4H8Z" fill="#0000CC"/>
<path d="M14 21C14 17.134 17.134 14 21 14C21.5523 14 22 13.5523 22 13C22 12.4477 21.5523 12 21 12C16.0294 12 12 16.0294 12 21C12 21.5523 12.4477 22 13 22C13.5523 22 14 21.5523 14 21Z" fill="#0000CC"/>
<path d="M18 21C18 19.3431 19.3431 18 21 18C21.5523 18 22 17.5523 22 17C22 16.4477 21.5523 16 21 16C18.2386 16 16 18.2386 16 21C16 21.5523 16.4477 22 17 22C17.5523 22 18 21.5523 18 21Z" fill="#0000CC"/>
<path d="M21 20C20.4477 20 20 20.4477 20 21C20 21.5523 20.4477 22 21 22H21.01C21.5623 22 22.01 21.5523 22.01 21C22.01 20.4477 21.5623 20 21.01 20H21Z" fill="#0000CC"/>
</svg>
