<svg width="24" height="24" viewBox="0 0 24 24" fill="none" xmlns="http://www.w3.org/2000/svg">
<path fill-rule="evenodd" clip-rule="evenodd" d="M10.01 3C10.01 3.76836 10.2989 4.46925 10.7739 5C10.2989 5.53076 10.01 6.23164 10.01 7C10.01 7.76566 10.2968 8.46433 10.7689 8.99442C10.2909 9.52584 10 10.2289 10 11C10 12.6569 11.3431 14 13 14H13.01C13.7784 14 14.4792 13.7111 15.01 13.2361C15.296 13.4921 15.6313 13.6939 16 13.8257V19C16 20.6569 14.6569 22 13 22H5C3.34315 22 2 20.6569 2 19V5C2 3.34315 3.34315 2 5 2H10.1807C10.0702 2.31278 10.01 2.64936 10.01 3ZM8 18C7.44771 18 7 18.4477 7 19C7 19.5523 7.44771 20 8 20H10C10.5523 20 11 19.5523 11 19C11 18.4477 10.5523 18 10 18H8Z" fill="#0000CC"/>
<path d="M20.0098 11C20.0098 7.13401 16.8758 4 13.0098 4C12.4575 4 12.0098 3.55229 12.0098 3C12.0098 2.44771 12.4575 2 13.0098 2C17.9803 2 22.0098 6.02944 22.0098 11C22.0098 11.5523 21.562 12 21.0098 12C20.4575 12 20.0098 11.5523 20.0098 11Z" fill="#0000CC"/>
<path d="M16.0098 11C16.0098 9.34315 14.6666 8 13.0098 8C12.4575 8 12.0098 7.55229 12.0098 7C12.0098 6.44771 12.4575 6 13.0098 6C15.7712 6 18.0098 8.23858 18.0098 11C18.0098 11.5523 17.5621 12 17.0098 12C16.4575 12 16.0098 11.5523 16.0098 11Z" fill="#0000CC"/>
<path d="M13.0098 10C13.562 10 14.0098 10.4477 14.0098 11C14.0098 11.5523 13.562 12 13.0098 12H12.9998C12.4475 12 11.9998 11.5523 11.9998 11C11.9998 10.4477 12.4475 10 12.9998 10H13.0098Z" fill="#0000CC"/>
</svg>
