<svg width="24" height="24" viewBox="0 0 24 24" fill="none" xmlns="http://www.w3.org/2000/svg">
<path opacity="0.3" d="M4 8.8C4 7.11984 4 6.27976 4.32698 5.63803C4.6146 5.07354 5.07354 4.6146 5.63803 4.32698C6.27976 4 7.11984 4 8.8 4H15.2C16.8802 4 17.7202 4 18.362 4.32698C18.9265 4.6146 19.3854 5.07354 19.673 5.63803C20 6.27976 20 7.11984 20 8.8V17.2C20 18.8802 20 19.7202 19.673 20.362C19.3854 20.9265 18.9265 21.3854 18.362 21.673C17.7202 22 16.8802 22 15.2 22H8.8C7.11984 22 6.27976 22 5.63803 21.673C5.07354 21.3854 4.6146 20.9265 4.32698 20.362C4 19.7202 4 18.8802 4 17.2V8.8Z" fill="#0000CC"/>
<path d="M7.05764 4.41473C7 4.70453 7 5.05302 7 5.75C7 5.98233 7 6.09849 7.01921 6.19509C7.09812 6.59178 7.40822 6.90188 7.80491 6.98079C7.90151 7 8.01767 7 8.25 7H15.75C15.9823 7 16.0985 7 16.1951 6.98079C16.5918 6.90188 16.9019 6.59178 16.9808 6.19509C17 6.09849 17 5.98233 17 5.75C17 5.05302 17 4.70453 16.9424 4.41473C16.7056 3.22466 15.7753 2.29436 14.5853 2.05764C14.2955 2 13.947 2 13.25 2H10.75C10.053 2 9.70453 2 9.41473 2.05764C8.22466 2.29436 7.29436 3.22466 7.05764 4.41473Z" fill="#0000CC"/>
<path d="M12 18C11.4477 18 11 17.5523 11 17V15H9C8.44772 15 8 14.5523 8 14C8 13.4477 8.44772 13 9 13H11V11C11 10.4477 11.4477 10 12 10C12.5523 10 13 10.4477 13 11V13H15C15.5523 13 16 13.4477 16 14C16 14.5523 15.5523 15 15 15H13V17C13 17.5523 12.5523 18 12 18Z" fill="#0000CC"/>
</svg>
