<svg width="24" height="24" viewBox="0 0 24 24" fill="none" xmlns="http://www.w3.org/2000/svg">
<path opacity="0.3" d="M3 9C3 7.89543 3.89543 7 5 7V18.5C5 18.7761 5.22386 19 5.5 19H17C17 20.1046 16.1046 21 15 21H5C3.89543 21 3 20.1046 3 19V9Z" fill="#0000CC"/>
<path d="M7.21799 4.09202C7 4.51984 7 5.0799 7 6.2V13.8C7 14.9201 7 15.4802 7.21799 15.908C7.40973 16.2843 7.71569 16.5903 8.09202 16.782C8.51984 17 9.0799 17 10.2 17H17.8C18.9201 17 19.4802 17 19.908 16.782C20.2843 16.5903 20.5903 16.2843 20.782 15.908C21 15.4802 21 14.9201 21 13.8V6.2C21 5.0799 21 4.51984 20.782 4.09202C20.5903 3.71569 20.2843 3.40973 19.908 3.21799C19.4802 3 18.9201 3 17.8 3H10.2C9.0799 3 8.51984 3 8.09202 3.21799C7.71569 3.40973 7.40973 3.71569 7.21799 4.09202Z" fill="#0000CC"/>
</svg>
