<svg width="24" height="24" viewBox="0 0 24 24" fill="none" xmlns="http://www.w3.org/2000/svg">
<path opacity="0.3" fill-rule="evenodd" clip-rule="evenodd" d="M8.8 2H14L20 8V17.2C20 18.8802 20 19.7202 19.673 20.362C19.3854 20.9265 18.9265 21.3854 18.362 21.673C17.7202 22 16.8802 22 15.2 22H8.8C7.11984 22 6.27976 22 5.63803 21.673C5.07354 21.3854 4.6146 20.9265 4.32698 20.362C4 19.7202 4 18.8802 4 17.2V6.8C4 5.11984 4 4.27976 4.32698 3.63803C4.6146 3.07354 5.07354 2.6146 5.63803 2.32698C6.27976 2 7.11984 2 8.8 2Z" fill="#0000CC"/>
<path d="M14 2V7.2C14 7.48003 14 7.62004 14.0545 7.727C14.1024 7.82108 14.1789 7.89757 14.273 7.9455C14.38 8 14.52 8 14.8 8H20L14 2Z" fill="#0000CC"/>
<path d="M12 10C11.4477 10 11 10.4477 11 11C9.89543 11 9 11.8954 9 13V13.5C9 14.6046 9.89543 15.5 11 15.5H12.75C12.8881 15.5 13 15.6119 13 15.75C13 15.8881 12.8881 16 12.75 16H10C9.44772 16 9 16.4477 9 17C9 17.5523 9.44772 18 10 18H11C11 18.5523 11.4477 19 12 19C12.5523 19 13 18.5523 13 18C14.1046 18 15 17.1046 15 16V15.5C15 14.3954 14.1046 13.5 13 13.5H11.25C11.1119 13.5 11 13.3881 11 13.25C11 13.1119 11.1119 13 11.25 13H14C14.5523 13 15 12.5523 15 12C15 11.4477 14.5523 11 14 11H13C13 10.4477 12.5523 10 12 10Z" fill="#0000CC"/>
</svg>
