<svg width="24" height="24" viewBox="0 0 24 24" fill="none" xmlns="http://www.w3.org/2000/svg">
<path opacity="0.3" fill-rule="evenodd" clip-rule="evenodd" d="M8.8 2H14L20 8V17.2C20 18.8802 20 19.7202 19.673 20.362C19.3854 20.9265 18.9265 21.3854 18.362 21.673C17.7202 22 16.8802 22 15.2 22H8.8C7.11984 22 6.27976 22 5.63803 21.673C5.07354 21.3854 4.6146 20.9265 4.32698 20.362C4 19.7202 4 18.8802 4 17.2V6.8C4 5.11984 4 4.27976 4.32698 3.63803C4.6146 3.07354 5.07354 2.6146 5.63803 2.32698C6.27976 2 7.11984 2 8.8 2Z" fill="#0000CC"/>
<path d="M14 2V7.2C14 7.48003 14 7.62004 14.0545 7.727C14.1024 7.82108 14.1789 7.89757 14.273 7.9455C14.38 8 14.52 8 14.8 8H20L14 2Z" fill="#0000CC"/>
<path d="M7.78027 6C7.78027 5.44772 8.22799 5 8.78027 5H9.78027C10.3326 5 10.7803 5.44772 10.7803 6C10.7803 6.55228 10.3326 7 9.78027 7H8.78027C8.22799 7 7.78027 6.55228 7.78027 6Z" fill="#0000CC"/>
<path d="M7.78027 9C7.78027 8.44771 8.22799 8 8.78027 8H9.78027C10.3326 8 10.7803 8.44771 10.7803 9C10.7803 9.55229 10.3326 10 9.78027 10H8.78027C8.22799 10 7.78027 9.55229 7.78027 9Z" fill="#0000CC"/>
<path fill-rule="evenodd" clip-rule="evenodd" d="M8.60034 11C8.12366 11 7.71324 11.3365 7.61976 11.8039L7.01976 14.8039C6.896 15.4227 7.36929 16 8.00034 16H10.5607C11.1918 16 11.6651 15.4227 11.5413 14.8039L10.9413 11.8039C10.8478 11.3365 10.4374 11 9.96073 11H8.60034ZM8.78052 14C8.50438 14 8.28052 14.2239 8.28052 14.5C8.28052 14.7761 8.50438 15 8.78052 15H9.78052C10.0567 15 10.2805 14.7761 10.2805 14.5C10.2805 14.2239 10.0567 14 9.78052 14H8.78052Z" fill="#0000CC"/>
</svg>
