<svg width="24" height="24" viewBox="0 0 24 24" fill="none" xmlns="http://www.w3.org/2000/svg">
<path opacity="0.3" fill-rule="evenodd" clip-rule="evenodd" d="M8.8 2H14L20 8V17.2C20 18.8802 20 19.7202 19.673 20.362C19.3854 20.9265 18.9265 21.3854 18.362 21.673C17.7202 22 16.8802 22 15.2 22H8.8C7.11984 22 6.27976 22 5.63803 21.673C5.07354 21.3854 4.6146 20.9265 4.32698 20.362C4 19.7202 4 18.8802 4 17.2V6.8C4 5.11984 4 4.27976 4.32698 3.63803C4.6146 3.07354 5.07354 2.6146 5.63803 2.32698C6.27976 2 7.11984 2 8.8 2Z" fill="#0000CC"/>
<path d="M14 7.2V2L20 8H14.8C14.52 8 14.38 8 14.273 7.9455C14.1789 7.89757 14.1024 7.82108 14.0545 7.727C14 7.62004 14 7.48003 14 7.2Z" fill="#0000CC"/>
<path d="M17.9973 15.8705C17.1975 14.9178 15.8639 14.6616 14.8619 15.5339C13.8599 16.4063 13.7188 17.8648 14.5057 18.8966C14.9736 19.5101 16.1197 20.6103 16.9719 21.4015C17.3237 21.728 17.4996 21.8913 17.7114 21.9575C17.8925 22.0142 18.102 22.0142 18.2832 21.9575C18.4949 21.8913 18.6708 21.728 19.0226 21.4015C19.8748 20.6103 21.0209 19.5101 21.4888 18.8966C22.2757 17.8648 22.1519 16.3971 21.1326 15.5339C20.1134 14.6707 18.797 14.9178 17.9973 15.8705Z" fill="#0000CC"/>
<path d="M8 8C7.44772 8 7 8.44772 7 9C7 9.55228 7.44772 10 8 10H9C9.55228 10 10 9.55228 10 9C10 8.44772 9.55228 8 9 8H8Z" fill="#0000CC"/>
<path d="M8 12C7.44772 12 7 12.4477 7 13C7 13.5523 7.44772 14 8 14H11C11.5523 14 12 13.5523 12 13C12 12.4477 11.5523 12 11 12H8Z" fill="#0000CC"/>
<path d="M7 17C7 16.4477 7.44772 16 8 16H9C9.55228 16 10 16.4477 10 17C10 17.5523 9.55228 18 9 18H8C7.44772 18 7 17.5523 7 17Z" fill="#0000CC"/>
</svg>
