<svg width="24" height="24" viewBox="0 0 24 24" fill="none" xmlns="http://www.w3.org/2000/svg">
<path opacity="0.3" d="M11 14V16.1707C10.1476 16.472 9.47199 17.1476 9.17071 18H3C2.44772 18 2 18.4477 2 19C2 19.5523 2.44772 20 3 20H9.17071C9.58254 21.1652 10.6938 22 12 22C13.3062 22 14.4175 21.1652 14.8293 20H21C21.5523 20 22 19.5523 22 19C22 18.4477 21.5523 18 21 18H14.8293C14.528 17.1476 13.8524 16.472 13 16.1707V14H11Z" fill="#0000CC"/>
<path fill-rule="evenodd" clip-rule="evenodd" d="M9 2C7.89543 2 7 2.89543 7 4V12C7 13.1046 7.89543 14 9 14H15C16.1046 14 17 13.1046 17 12V6.41421C17 6.149 16.8946 5.89464 16.7071 5.70711L13.2929 2.29289C13.1054 2.10536 12.851 2 12.5858 2H9ZM12 3.5V6.5C12 6.77614 12.2239 7 12.5 7H15.5L12 3.5Z" fill="#0000CC"/>
</svg>
