<svg width="24" height="24" viewBox="0 0 24 24" fill="none" xmlns="http://www.w3.org/2000/svg">
<path opacity="0.3" fill-rule="evenodd" clip-rule="evenodd" d="M8.8 2H14L20 8V17.2C20 18.8802 20 19.7202 19.673 20.362C19.3854 20.9265 18.9265 21.3854 18.362 21.673C17.7202 22 16.8802 22 15.2 22H8.8C7.11984 22 6.27976 22 5.63803 21.673C5.07354 21.3854 4.6146 20.9265 4.32698 20.362C4 19.7202 4 18.8802 4 17.2V6.8C4 5.11984 4 4.27976 4.32698 3.63803C4.6146 3.07354 5.07354 2.6146 5.63803 2.32698C6.27976 2 7.11984 2 8.8 2Z" fill="#0000CC"/>
<path d="M14 2V7.2C14 7.48003 14 7.62004 14.0545 7.727C14.1024 7.82108 14.1789 7.89757 14.273 7.9455C14.38 8 14.52 8 14.8 8H20L14 2Z" fill="#0000CC"/>
<path fill-rule="evenodd" clip-rule="evenodd" d="M18 22C20.2091 22 22 20.2091 22 18C22 15.7909 20.2091 14 18 14C15.7909 14 14 15.7909 14 18C14 20.2091 15.7909 22 18 22ZM18 20C19.1046 20 20 19.1046 20 18C20 17.8208 19.9764 17.6472 19.9323 17.482L17.482 19.9323C17.6472 19.9764 17.8208 20 18 20ZM18.5181 16.0677L16.0677 18.5181C16.0236 18.3528 16 18.1792 16 18C16 16.8954 16.8954 16 18 16C18.1792 16 18.3528 16.0236 18.5181 16.0677Z" fill="#0000CC"/>
</svg>
