<svg width="24" height="24" viewBox="0 0 24 24" fill="none" xmlns="http://www.w3.org/2000/svg">
<g opacity="0.3">
<path d="M14 2H8.8C7.11984 2 6.27976 2 5.63803 2.32698C5.07354 2.6146 4.6146 3.07354 4.32698 3.63803C4 4.27976 4 5.11984 4 6.8V11H20V8L14 2Z" fill="#0000CC"/>
<path d="M20 17H4V17.2C4 18.8802 4 19.7202 4.32698 20.362C4.6146 20.9265 5.07354 21.3854 5.63803 21.673C6.27976 22 7.11984 22 8.8 22H15.2C16.8802 22 17.7202 22 18.362 21.673C18.9265 21.3854 19.3854 20.9265 19.673 20.362C20 19.7202 20 18.8802 20 17.2V17Z" fill="#0000CC"/>
</g>
<path d="M14 2V7.2C14 7.48003 14 7.62004 14.0545 7.727C14.1024 7.82108 14.1789 7.89757 14.273 7.9455C14.38 8 14.52 8 14.8 8H20L14 2Z" fill="#0000CC"/>
<path d="M2 14C2 13.4477 2.44772 13 3 13H6C6.55228 13 7 13.4477 7 14C7 14.5523 6.55228 15 6 15H3C2.44772 15 2 14.5523 2 14Z" fill="#0000CC"/>
<path d="M17 14C17 13.4477 17.4477 13 18 13H21C21.5523 13 22 13.4477 22 14C22 14.5523 21.5523 15 21 15H18C17.4477 15 17 14.5523 17 14Z" fill="#0000CC"/>
<path d="M8 14C8 13.4477 8.44771 13 9 13H15C15.5523 13 16 13.4477 16 14C16 14.5523 15.5523 15 15 15H9C8.44771 15 8 14.5523 8 14Z" fill="#0000CC"/>
</svg>
