<svg width="24" height="24" viewBox="0 0 24 24" fill="none" xmlns="http://www.w3.org/2000/svg">
<path opacity="0.3" fill-rule="evenodd" clip-rule="evenodd" d="M8.8 2H14L20 8V17.2C20 18.8802 20 19.7202 19.673 20.362C19.3854 20.9265 18.9265 21.3854 18.362 21.673C17.7202 22 16.8802 22 15.2 22H8.8C7.11984 22 6.27976 22 5.63803 21.673C5.07354 21.3854 4.6146 20.9265 4.32698 20.362C4 19.7202 4 18.8802 4 17.2V6.8C4 5.11984 4 4.27976 4.32698 3.63803C4.6146 3.07354 5.07354 2.6146 5.63803 2.32698C6.27976 2 7.11984 2 8.8 2Z" fill="#0000CC"/>
<path d="M14 2V7.2C14 7.48003 14 7.62004 14.0545 7.727C14.1024 7.82108 14.1789 7.89757 14.273 7.9455C14.38 8 14.52 8 14.8 8H20L14 2Z" fill="#0000CC"/>
<path d="M14.8619 15.5339C15.8639 14.6616 17.1975 14.9178 17.9973 15.8705C18.797 14.9178 20.1134 14.6707 21.1326 15.5339C22.1519 16.3971 22.2757 17.8648 21.4888 18.8966C21.0209 19.5101 19.8748 20.6103 19.0226 21.4015C18.6708 21.728 18.4949 21.8913 18.2832 21.9575C18.102 22.0142 17.8925 22.0142 17.7114 21.9575C17.4996 21.8913 17.3237 21.728 16.9719 21.4015C16.1197 20.6103 14.9736 19.5101 14.5057 18.8966C13.7188 17.8648 13.8599 16.4063 14.8619 15.5339Z" fill="#0000CC"/>
</svg>
