<svg width="24" height="24" viewBox="0 0 24 24" fill="none" xmlns="http://www.w3.org/2000/svg">
<path opacity="0.3" fill-rule="evenodd" clip-rule="evenodd" d="M15.5 2H13.3C11.6198 2 10.7798 2 10.138 2.32698C9.57354 2.6146 9.1146 3.07354 8.82698 3.63803C8.5 4.27976 8.5 5.11984 8.5 6.8V12.2C8.5 13.8802 8.5 14.7202 8.82698 15.362C9.1146 15.9265 9.57354 16.3854 10.138 16.673C10.7798 17 11.6198 17 13.3 17H15.7C17.3802 17 18.2202 17 18.862 16.673C19.4265 16.3854 19.8854 15.9265 20.173 15.362C20.5 14.7202 20.5 13.8802 20.5 12.2V7L15.5 2Z" fill="#0000CC"/>
<path d="M15.5 2V6C15.5 6.55228 15.9477 7 16.5 7H20.5L15.5 2Z" fill="#0000CC"/>
<path d="M6.5 12.2722V7.02881C5.91168 7.06473 5.49429 7.14548 5.13803 7.32701C4.57354 7.61463 4.1146 8.07357 3.82698 8.63805C3.5 9.27979 3.5 10.1199 3.5 11.8V17.2C3.5 18.8802 3.5 19.7203 3.82698 20.362C4.1146 20.9265 4.57354 21.3854 5.13803 21.673C5.77976 22 6.61984 22 8.3 22H10.7C12.3802 22 13.2202 22 13.862 21.673C14.4265 21.3854 14.8854 20.9265 15.173 20.362C15.3545 20.0057 15.4353 19.5883 15.4712 19H13.2278C12.4496 19.0001 11.7494 19.0001 11.1667 18.9525C10.5428 18.9015 9.87986 18.7862 9.23005 18.4551C8.28924 17.9757 7.52434 17.2108 7.04497 16.27C6.71388 15.6202 6.5985 14.9572 6.54752 14.3333C6.49992 13.7507 6.49996 13.0504 6.5 12.2722Z" fill="#0000CC"/>
</svg>
