<svg width="24" height="24" viewBox="0 0 24 24" fill="none" xmlns="http://www.w3.org/2000/svg">
<path opacity="0.3" fill-rule="evenodd" clip-rule="evenodd" d="M8.8 2H14L20 8V17.2C20 18.8802 20 19.7202 19.673 20.362C19.3854 20.9265 18.9265 21.3854 18.362 21.673C17.7202 22 16.8802 22 15.2 22H8.8C7.11984 22 6.27976 22 5.63803 21.673C5.07354 21.3854 4.6146 20.9265 4.32698 20.362C4 19.7202 4 18.8802 4 17.2V6.8C4 5.11984 4 4.27976 4.32698 3.63803C4.6146 3.07354 5.07354 2.6146 5.63803 2.32698C6.27976 2 7.11984 2 8.8 2Z" fill="#0000CC"/>
<path d="M14 2V7.2C14 7.48003 14 7.62004 14.0545 7.727C14.1024 7.82108 14.1789 7.89757 14.273 7.9455C14.38 8 14.52 8 14.8 8H20L14 2Z" fill="#0000CC"/>
<path d="M7 9C7 8.44772 7.44772 8 8 8H9C9.55228 8 10 8.44772 10 9C10 9.55228 9.55228 10 9 10H8C7.44772 10 7 9.55228 7 9Z" fill="#0000CC"/>
<path d="M18.0287 15.7493C18.1397 15.3177 18.5326 15 18.9972 15C19.5495 15 19.9972 15.4477 19.9972 16C19.9972 16.1732 19.9517 16.3053 19.6778 16.5697C19.5434 16.6994 19.3882 16.8282 19.1837 16.998L19.0921 17.074C18.8538 17.2723 18.5743 17.5087 18.2901 17.7929C17.8996 18.1834 17.8996 18.8166 18.2901 19.2071C18.6807 19.5976 19.3138 19.5976 19.7044 19.2071C19.9202 18.9913 20.1407 18.8033 20.3711 18.6116L20.4569 18.5405C20.6542 18.3769 20.8739 18.1948 21.0667 18.0087C21.5427 17.5493 21.9972 16.9314 21.9972 16C21.9972 14.3431 20.6541 13 18.9972 13C17.598 13 16.4248 13.957 16.0918 15.2507C15.9541 15.7856 16.2761 16.3308 16.811 16.4684C17.3458 16.6061 17.891 16.2841 18.0287 15.7493Z" fill="#0000CC"/>
<path d="M18.9999 22C19.5522 22 19.9999 21.5523 19.9999 21C19.9999 20.4477 19.5522 20 18.9999 20C18.4477 20 17.9999 20.4477 17.9999 21C17.9999 21.5523 18.4477 22 18.9999 22Z" fill="#0000CC"/>
<path d="M8 12C7.44772 12 7 12.4477 7 13C7 13.5523 7.44772 14 8 14H12C12.5523 14 13 13.5523 13 13C13 12.4477 12.5523 12 12 12H8Z" fill="#0000CC"/>
<path d="M7 17C7 16.4477 7.44772 16 8 16H11C11.5523 16 12 16.4477 12 17C12 17.5523 11.5523 18 11 18H8C7.44772 18 7 17.5523 7 17Z" fill="#0000CC"/>
</svg>
