<svg width="24" height="24" viewBox="0 0 24 24" fill="none" xmlns="http://www.w3.org/2000/svg">
<path opacity="0.3" fill-rule="evenodd" clip-rule="evenodd" d="M15 2H12.8C11.1198 2 10.2798 2 9.63803 2.32698C9.07354 2.6146 8.6146 3.07354 8.32698 3.63803C8 4.27976 8 5.11984 8 6.8V13.2C8 14.8802 8 15.7202 8.32698 16.362C8.6146 16.9265 9.07354 17.3854 9.63803 17.673C10.2798 18 11.1198 18 12.8 18H15.2C16.8802 18 17.7202 18 18.362 17.673C18.9265 17.3854 19.3854 16.9265 19.673 16.362C20 15.7202 20 14.8802 20 13.2V7L15 2Z" fill="#0000CC"/>
<path d="M15 2V6.5C15 6.77614 15.2239 7 15.5 7H20L15 2Z" fill="#0000CC"/>
<path d="M5 6C5.55229 6 6 6.44772 6 7V14.6C6 15.7366 6.00078 16.5289 6.05118 17.1458C6.10062 17.7509 6.19279 18.0986 6.32698 18.362C6.6146 18.9265 7.07354 19.3854 7.63803 19.673C7.90138 19.8072 8.24907 19.8994 8.85424 19.9488C9.47108 19.9992 10.2634 20 11.4 20H15C15.5523 20 16 20.4477 16 21C16 21.5523 15.5523 22 15 22H11.3572C10.2734 22 9.39926 22 8.69138 21.9422C7.96253 21.8826 7.32234 21.7568 6.73005 21.455C5.78924 20.9757 5.02433 20.2108 4.54497 19.27C4.24318 18.6777 4.11737 18.0375 4.05782 17.3086C3.99998 16.6007 3.99999 15.7266 4 14.6428V7C4 6.44772 4.44772 6 5 6Z" fill="#0000CC"/>
</svg>
