<svg width="24" height="24" viewBox="0 0 24 24" fill="none" xmlns="http://www.w3.org/2000/svg">
<path opacity="0.3" fill-rule="evenodd" clip-rule="evenodd" d="M8.8 2H14L20 8V17.2C20 18.8802 20 19.7202 19.673 20.362C19.3854 20.9265 18.9265 21.3854 18.362 21.673C17.7202 22 16.8802 22 15.2 22H8.8C7.11984 22 6.27976 22 5.63803 21.673C5.07354 21.3854 4.6146 20.9265 4.32698 20.362C4 19.7202 4 18.8802 4 17.2V6.8C4 5.11984 4 4.27976 4.32698 3.63803C4.6146 3.07354 5.07354 2.6146 5.63803 2.32698C6.27976 2 7.11984 2 8.8 2Z" fill="#0000CC"/>
<path d="M14 7.2V2L20 8H14.8C14.52 8 14.38 8 14.273 7.9455C14.1789 7.89757 14.1024 7.82108 14.0545 7.727C14 7.62004 14 7.48003 14 7.2Z" fill="#0000CC"/>
<path d="M18.2929 14.2929C18.6834 13.9024 19.3166 13.9024 19.7071 14.2929L21.7071 16.2929C22.0976 16.6834 22.0976 17.3166 21.7071 17.7071L19.7071 19.7071C19.3166 20.0976 18.6834 20.0976 18.2929 19.7071C17.9024 19.3166 17.9024 18.6834 18.2929 18.2929L18.5858 18H15C14.4477 18 14 17.5523 14 17C14 16.4477 14.4477 16 15 16H18.5858L18.2929 15.7071C17.9024 15.3166 17.9024 14.6834 18.2929 14.2929Z" fill="#0000CC"/>
</svg>
