<svg width="24" height="24" viewBox="0 0 24 24" fill="none" xmlns="http://www.w3.org/2000/svg">
<path opacity="0.3" fill-rule="evenodd" clip-rule="evenodd" d="M8.8 2H14L20 8V17.2C20 18.8802 20 19.7202 19.673 20.362C19.3854 20.9265 18.9265 21.3854 18.362 21.673C17.7202 22 16.8802 22 15.2 22H8.8C7.11984 22 6.27976 22 5.63803 21.673C5.07354 21.3854 4.6146 20.9265 4.32698 20.362C4 19.7202 4 18.8802 4 17.2V6.8C4 5.11984 4 4.27976 4.32698 3.63803C4.6146 3.07354 5.07354 2.6146 5.63803 2.32698C6.27976 2 7.11984 2 8.8 2Z" fill="#0000CC"/>
<path d="M14 7.2V2L20 8H14.8C14.52 8 14.38 8 14.273 7.9455C14.1789 7.89757 14.1024 7.82108 14.0545 7.727C14 7.62004 14 7.48003 14 7.2Z" fill="#0000CC"/>
<path d="M8 8C7.44772 8 7 8.44772 7 9C7 9.55228 7.44772 10 8 10H9C9.55228 10 10 9.55228 10 9C10 8.44772 9.55228 8 9 8H8Z" fill="#0000CC"/>
<path d="M8 12C7.44772 12 7 12.4477 7 13C7 13.5523 7.44772 14 8 14H11C11.5523 14 12 13.5523 12 13C12 12.4477 11.5523 12 11 12H8Z" fill="#0000CC"/>
<path d="M7 17C7 16.4477 7.44772 16 8 16H9C9.55228 16 10 16.4477 10 17C10 17.5523 9.55228 18 9 18H8C7.44772 18 7 17.5523 7 17Z" fill="#0000CC"/>
<path d="M21 13.5C21.5523 13.5 22 13.9477 22 14.5V17.5C22 18.0523 21.5523 18.5 21 18.5H18C17.4477 18.5 17 18.0523 17 17.5C17 16.9477 17.4477 16.5 18 16.5H18.8231C18.4701 16.1886 18.0067 16 17.5 16C16.3954 16 15.5 16.8954 15.5 18C15.5 19.1046 16.3954 20 17.5 20C18.0129 20 18.4786 19.8083 18.8331 19.491C19.2446 19.1226 19.8768 19.1577 20.2451 19.5692C20.6135 19.9807 20.5784 20.6129 20.1669 20.9812C19.4599 21.614 18.5238 22 17.5 22C15.2909 22 13.5 20.2091 13.5 18C13.5 15.7909 15.2909 14 17.5 14C18.4465 14 19.3156 14.3286 20 14.8774V14.5C20 13.9477 20.4477 13.5 21 13.5Z" fill="#0000CC"/>
</svg>
