<svg width="24" height="24" viewBox="0 0 24 24" fill="none" xmlns="http://www.w3.org/2000/svg">
<path opacity="0.3" d="M22 9V11.2C22 12.8802 22 13.7202 21.673 14.362C21.3854 14.9265 20.9265 15.3854 20.362 15.673C19.7202 16 18.8802 16 17.2 16H10.8C9.11984 16 8.27976 16 7.63803 15.673C7.07354 15.3854 6.6146 14.9265 6.32698 14.362C6 13.7202 6 12.8802 6 11.2V8.8C6 7.11984 6 6.27976 6.32698 5.63803C6.6146 5.07354 7.07354 4.6146 7.63803 4.32698C8.27976 4 9.11984 4 10.8 4H17L22 9Z" fill="#0000CC"/>
<path d="M22 9H17.5C17.2239 9 17 8.77614 17 8.5V4L22 9Z" fill="#0000CC"/>
<path d="M17.2722 18C17.4587 18 17.6407 18 17.8176 17.9994C17.7784 18.1288 17.7309 18.2485 17.673 18.362C17.3854 18.9265 16.9265 19.3854 16.362 19.673C15.7202 20 14.8802 20 13.2 20H6.80001C5.11985 20 4.27977 20 3.63804 19.673C3.07355 19.3854 2.61461 18.9265 2.32699 18.362C2.00001 17.7202 2.00001 16.8802 2.00001 15.2V12.8C2.00001 11.1198 2.00001 10.2798 2.32699 9.63803C2.61461 9.07354 3.07355 8.6146 3.63804 8.32698C3.75151 8.26916 3.87119 8.22157 4.00063 8.18239C3.99998 8.35937 3.99999 8.54139 4 8.72786V11.2722C3.99996 12.0503 3.99992 12.7506 4.04752 13.3333C4.0985 13.9572 4.21388 14.6201 4.54497 15.2699C5.02434 16.2108 5.78924 16.9757 6.73005 17.455C7.37985 17.7861 8.04281 17.9015 8.66675 17.9525C9.24938 18.0001 9.94965 18 10.7278 18H17.2722Z" fill="#0000CC"/>
</svg>
