<svg width="24" height="24" viewBox="0 0 24 24" fill="none" xmlns="http://www.w3.org/2000/svg">
<path opacity="0.3" fill-rule="evenodd" clip-rule="evenodd" d="M8.8 2H14L20 8V17.2C20 18.8802 20 19.7202 19.673 20.362C19.3854 20.9265 18.9265 21.3854 18.362 21.673C17.7202 22 16.8802 22 15.2 22H8.8C7.11984 22 6.27976 22 5.63803 21.673C5.07354 21.3854 4.6146 20.9265 4.32698 20.362C4 19.7202 4 18.8802 4 17.2V6.8C4 5.11984 4 4.27976 4.32698 3.63803C4.6146 3.07354 5.07354 2.6146 5.63803 2.32698C6.27976 2 7.11984 2 8.8 2Z" fill="#0000CC"/>
<path d="M14 2V7.2C14 7.48003 14 7.62004 14.0545 7.727C14.1024 7.82108 14.1789 7.89757 14.273 7.9455C14.38 8 14.52 8 14.8 8H20L14 2Z" fill="#0000CC"/>
<path d="M17 15.5C17 15.2239 17.2239 15 17.5 15H21.5C21.7761 15 22 15.2239 22 15.5V21.5C22 21.6798 21.9034 21.8458 21.7471 21.9347C21.5908 22.0235 21.3988 22.0216 21.2442 21.9296L19.5 20.8913L17.7558 21.9296C17.6012 22.0216 17.4092 22.0235 17.2529 21.9347C17.0966 21.8458 17 21.6798 17 21.5V15.5Z" fill="#0000CC"/>
</svg>
