<svg width="24" height="24" viewBox="0 0 24 24" fill="none" xmlns="http://www.w3.org/2000/svg">
<path opacity="0.3" fill-rule="evenodd" clip-rule="evenodd" d="M8.8 2H14L20 8V17.2C20 18.8802 20 19.7202 19.673 20.362C19.3854 20.9265 18.9265 21.3854 18.362 21.673C17.7202 22 16.8802 22 15.2 22H8.8C7.11984 22 6.27976 22 5.63803 21.673C5.07354 21.3854 4.6146 20.9265 4.32698 20.362C4 19.7202 4 18.8802 4 17.2V6.8C4 5.11984 4 4.27976 4.32698 3.63803C4.6146 3.07354 5.07354 2.6146 5.63803 2.32698C6.27976 2 7.11984 2 8.8 2Z" fill="#0000CC"/>
<path d="M14 7.2V2L20 8H14.8C14.52 8 14.38 8 14.273 7.9455C14.1789 7.89757 14.1024 7.82108 14.0545 7.727C14 7.62004 14 7.48003 14 7.2Z" fill="#0000CC"/>
<path d="M7 9C7 8.44772 7.44772 8 8 8H9C9.55228 8 10 8.44772 10 9C10 9.55228 9.55228 10 9 10H8C7.44772 10 7 9.55228 7 9Z" fill="#0000CC"/>
<path d="M19 15C19 14.4477 19.4477 14 20 14C20.5523 14 21 14.4477 21 15V18C21 18.5523 20.5523 19 20 19C19.4477 19 19 18.5523 19 18V15Z" fill="#0000CC"/>
<path d="M21 21C21 21.5523 20.5523 22 20 22C19.4477 22 19 21.5523 19 21C19 20.4477 19.4477 20 20 20C20.5523 20 21 20.4477 21 21Z" fill="#0000CC"/>
<path d="M8 12C7.44772 12 7 12.4477 7 13C7 13.5523 7.44772 14 8 14H15C15.5523 14 16 13.5523 16 13C16 12.4477 15.5523 12 15 12H8Z" fill="#0000CC"/>
<path d="M7 17C7 16.4477 7.44772 16 8 16H15C15.5523 16 16 16.4477 16 17C16 17.5523 15.5523 18 15 18H8C7.44772 18 7 17.5523 7 17Z" fill="#0000CC"/>
</svg>
