<svg width="24" height="24" viewBox="0 0 24 24" fill="none" xmlns="http://www.w3.org/2000/svg">
<path opacity="0.3" fill-rule="evenodd" clip-rule="evenodd" d="M7.8 2H13L19 8V17.2C19 18.8802 19 19.7202 18.673 20.362C18.3854 20.9265 17.9265 21.3854 17.362 21.673C16.7202 22 15.8802 22 14.2 22H7.8C6.11984 22 5.27976 22 4.63803 21.673C4.07354 21.3854 3.6146 20.9265 3.32698 20.362C3 19.7202 3 18.8802 3 17.2V6.8C3 5.11984 3 4.27976 3.32698 3.63803C3.6146 3.07354 4.07354 2.6146 4.63803 2.32698C5.27976 2 6.11984 2 7.8 2Z" fill="#0000CC"/>
<path d="M13 2V7.2C13 7.48003 13 7.62004 13.0545 7.727C13.1024 7.82108 13.1789 7.89757 13.273 7.9455C13.38 8 13.52 8 13.8 8H19L13 2Z" fill="#0000CC"/>
<path d="M18 13C17.4477 13 17 13.4477 17 14C15.8954 14 15 14.8954 15 16V16.5C15 17.6046 15.8954 18.5 17 18.5H18.75C18.8881 18.5 19 18.6119 19 18.75C19 18.8881 18.8881 19 18.75 19H16C15.4477 19 15 19.4477 15 20C15 20.5523 15.4477 21 16 21H17C17 21.5523 17.4477 22 18 22C18.5523 22 19 21.5523 19 21C20.1046 21 21 20.1046 21 19V18.5C21 17.3954 20.1046 16.5 19 16.5H17.25C17.1119 16.5 17 16.3881 17 16.25C17 16.1119 17.1119 16 17.25 16H20C20.5523 16 21 15.5523 21 15C21 14.4477 20.5523 14 20 14H19C19 13.4477 18.5523 13 18 13Z" fill="#0000CC"/>
</svg>
