<svg width="24" height="24" viewBox="0 0 24 24" fill="none" xmlns="http://www.w3.org/2000/svg">
<path opacity="0.3" fill-rule="evenodd" clip-rule="evenodd" d="M8.8 2H14L20 8V17.2C20 18.8802 20 19.7202 19.673 20.362C19.3854 20.9265 18.9265 21.3854 18.362 21.673C17.7202 22 16.8802 22 15.2 22H8.8C7.11984 22 6.27976 22 5.63803 21.673C5.07354 21.3854 4.6146 20.9265 4.32698 20.362C4 19.7202 4 18.8802 4 17.2V6.8C4 5.11984 4 4.27976 4.32698 3.63803C4.6146 3.07354 5.07354 2.6146 5.63803 2.32698C6.27976 2 7.11984 2 8.8 2Z" fill="#0000CC"/>
<path d="M14 2V7.2C14 7.48003 14 7.62004 14.0545 7.727C14.1024 7.82108 14.1789 7.89757 14.273 7.9455C14.38 8 14.52 8 14.8 8H20L14 2Z" fill="#0000CC"/>
<path d="M10.9687 12.7493C11.0797 12.3177 11.4726 12 11.9372 12C12.4895 12 12.9372 12.4477 12.9372 13C12.9372 13.1732 12.8917 13.3053 12.6178 13.5697C12.4834 13.6994 12.3282 13.8282 12.1237 13.998L12.0321 14.074C11.7938 14.2723 11.5143 14.5087 11.2301 14.7929C10.8396 15.1834 10.8396 15.8166 11.2301 16.2071C11.6207 16.5976 12.2538 16.5976 12.6444 16.2071C12.8602 15.9913 13.0807 15.8033 13.3111 15.6116L13.3969 15.5405C13.5942 15.3769 13.8139 15.1948 14.0067 15.0087C14.4827 14.5493 14.9372 13.9314 14.9372 13C14.9372 11.3431 13.5941 10 11.9372 10C10.538 10 9.36478 10.957 9.0318 12.2507C8.89414 12.7856 9.21613 13.3308 9.75098 13.4684C10.2858 13.6061 10.831 13.2841 10.9687 12.7493Z" fill="#0000CC"/>
<path d="M11.9399 19C12.4922 19 12.9399 18.5523 12.9399 18C12.9399 17.4477 12.4922 17 11.9399 17C11.3877 17 10.9399 17.4477 10.9399 18C10.9399 18.5523 11.3877 19 11.9399 19Z" fill="#0000CC"/>
</svg>
