<svg width="24" height="24" viewBox="0 0 24 24" fill="none" xmlns="http://www.w3.org/2000/svg">
<path opacity="0.3" fill-rule="evenodd" clip-rule="evenodd" d="M8.8 2H14L20 8V17.2C20 18.8802 20 19.7202 19.673 20.362C19.3854 20.9265 18.9265 21.3854 18.362 21.673C17.7202 22 16.8802 22 15.2 22H8.8C7.11984 22 6.27976 22 5.63803 21.673C5.07354 21.3854 4.6146 20.9265 4.32698 20.362C4 19.7202 4 18.8802 4 17.2V6.8C4 5.11984 4 4.27976 4.32698 3.63803C4.6146 3.07354 5.07354 2.6146 5.63803 2.32698C6.27976 2 7.11984 2 8.8 2Z" fill="#0000CC"/>
<path d="M14 2V7.2C14 7.48003 14 7.62004 14.0545 7.727C14.1024 7.82108 14.1789 7.89757 14.273 7.9455C14.38 8 14.52 8 14.8 8H20L14 2Z" fill="#0000CC"/>
<path d="M9.5 12.5C9.5 12.2239 9.72386 12 10 12H14C14.2761 12 14.5 12.2239 14.5 12.5V18.5C14.5 18.6798 14.4034 18.8458 14.2471 18.9347C14.0908 19.0235 13.8988 19.0216 13.7442 18.9296L12 17.8913L10.2558 18.9296C10.1012 19.0216 9.90923 19.0235 9.7529 18.9347C9.59657 18.8458 9.5 18.6798 9.5 18.5V12.5Z" fill="#0000CC"/>
</svg>
