<svg width="24" height="24" viewBox="0 0 24 24" fill="none" xmlns="http://www.w3.org/2000/svg">
<path opacity="0.3" fill-rule="evenodd" clip-rule="evenodd" d="M9.75783 4.00005C10.1647 3.99967 10.5235 3.99934 10.8719 4.08299C11.178 4.15648 11.4707 4.2777 11.7391 4.44218C12.0446 4.62941 12.298 4.88332 12.5855 5.1713L12.7699 5.35574C13.1494 5.7353 13.2285 5.80528 13.3059 5.85274C13.3954 5.90757 13.4929 5.94798 13.595 5.97247C13.6833 5.99368 13.7887 6.0001 14.3255 6.0001L17.8385 6.0001C18.3657 6.00008 18.8205 6.00007 19.195 6.03067C19.5904 6.06297 19.9836 6.13429 20.362 6.32708C20.9265 6.6147 21.3854 7.07365 21.673 7.63813C21.8658 8.01651 21.9371 8.40973 21.9694 8.80507C22 9.17964 22 9.6344 22 10.1615V15.8387C22 16.3658 22 16.8206 21.9694 17.1951C21.9371 17.5905 21.8658 17.9837 21.673 18.3621C21.3854 18.9266 20.9265 19.3855 20.362 19.6731C19.9836 19.8659 19.5904 19.9372 19.195 19.9695C18.8205 20.0001 18.3657 20.0001 17.8386 20.0001H6.16144C5.63432 20.0001 5.17953 20.0001 4.80498 19.9695C4.40963 19.9372 4.01641 19.8659 3.63803 19.6731C3.07355 19.3855 2.6146 18.9266 2.32698 18.3621C2.13419 17.9837 2.06287 17.5905 2.03057 17.1951C1.99997 16.8206 1.99998 16.3658 2 15.8387V8.16152C1.99998 7.6344 1.99997 7.17963 2.03057 6.80507C2.06287 6.40973 2.13419 6.01651 2.32698 5.63813C2.6146 5.07364 3.07355 4.6147 3.63803 4.32708C4.01641 4.13429 4.40963 4.06297 4.80498 4.03067C5.17955 4.00007 5.63431 4.00008 6.16146 4.0001L9.75783 4.00005Z" fill="#0000CC"/>
<path d="M11.9675 10C11.5029 10 11.11 10.3177 10.999 10.7493C10.8613 11.2841 10.3161 11.6061 9.78126 11.4684C9.2464 11.3308 8.92442 10.7856 9.06208 10.2507C9.39505 8.95704 10.5683 8 11.9675 8C13.6244 8 14.9675 9.34315 14.9675 11C14.9675 11.9314 14.513 12.5493 14.037 13.0087C13.8441 13.1949 13.6245 13.3769 13.4271 13.5405L13.3414 13.6116C13.111 13.8033 12.8905 13.9913 12.6746 14.2071C12.2841 14.5976 11.6509 14.5976 11.2604 14.2071C10.8699 13.8166 10.8699 13.1834 11.2604 12.7929C11.5446 12.5087 11.8241 12.2723 12.0624 12.074L12.1539 11.998C12.3585 11.8282 12.5137 11.6994 12.6481 11.5697C12.922 11.3053 12.9675 11.1732 12.9675 11C12.9675 10.4477 12.5198 10 11.9675 10Z" fill="#0000CC"/>
<path d="M12.9702 16C12.9702 16.5523 12.5225 17 11.9702 17C11.4179 17 10.9702 16.5523 10.9702 16C10.9702 15.4477 11.4179 15 11.9702 15C12.5225 15 12.9702 15.4477 12.9702 16Z" fill="#0000CC"/>
</svg>
