<svg width="24" height="24" viewBox="0 0 24 24" fill="none" xmlns="http://www.w3.org/2000/svg">
<path opacity="0.14" d="M17.798 6.07055L18.9293 7.20192C19.7214 7.99395 20.1174 8.38997 20.2658 8.84662C20.3963 9.24831 20.3963 9.681 20.2658 10.0827C20.1174 10.5393 19.7214 10.9354 18.9293 11.7274L17.5599 13.0968C17.6243 13.0348 17.7102 13 17.7998 13C18.9199 13 19.48 13 19.9078 13.218C20.2841 13.4097 20.5901 13.7157 20.7818 14.092C20.9998 14.5198 20.9998 15.0799 20.9998 16.2V17.8C20.9998 18.9201 20.9998 19.4802 20.7818 19.908C20.5901 20.2843 20.2841 20.5903 19.9078 20.782C19.48 21 18.9199 21 17.7998 21H7.7998C8.91991 21 9.47996 21 9.90779 20.782C10.2841 20.5903 10.5901 20.2843 10.7818 19.908C10.7921 19.8879 10.8108 19.8474 10.812 19.8447C10.9997 19.4245 10.9997 18.8658 10.9997 17.8002V9.66881C10.9997 9.17963 10.9997 8.93504 11.055 8.70486C11.104 8.50079 11.1848 8.3057 11.2944 8.12676C11.4181 7.92492 11.5911 7.75197 11.937 7.40607L13.2725 6.07054C14.0645 5.27852 14.4605 4.88249 14.9172 4.73412C15.3189 4.6036 15.7516 4.6036 16.1533 4.73412C16.6099 4.88249 17.0059 5.27851 17.798 6.07055Z" fill="#0000CC"/>
<path d="M8 21H17.8C18.9201 21 19.4802 21 19.908 20.782C20.2843 20.5903 20.5903 20.2843 20.782 19.908C21 19.4802 21 18.9201 21 17.8V16.2C21 15.0799 21 14.5198 20.782 14.092C20.5903 13.7157 20.2843 13.4097 19.908 13.218C19.4802 13 18.9201 13 17.8 13H17.6568M11 8.34314L13.2728 6.07036C14.0648 5.27833 14.4608 4.88231 14.9175 4.73393C15.3192 4.60342 15.7519 4.60342 16.1536 4.73393C16.6102 4.88231 17.0062 5.27833 17.7983 6.07036L18.9296 7.20173C19.7217 7.99376 20.1177 8.38978 20.2661 8.84644C20.3966 9.24812 20.3966 9.68082 20.2661 10.0825C20.1177 10.5392 19.7217 10.9352 18.9296 11.7272L17.6568 13M11 8.34314V6.2C11 5.0799 11 4.51984 10.782 4.09202C10.5903 3.71569 10.2843 3.40973 9.90798 3.21799C9.48016 3 8.92011 3 7.8 3H6.2C5.0799 3 4.51984 3 4.09202 3.21799C3.71569 3.40973 3.40973 3.71569 3.21799 4.09202C3 4.51984 3 5.07989 3 6.2V17.8C3 18.9201 3 19.4802 3.21799 19.908C3.40973 20.2843 3.71569 20.5903 4.09202 20.782C4.51984 21 5.07989 21 6.2 21H7.8C8.92011 21 9.48016 21 9.90798 20.782C10.2843 20.5903 10.5903 20.2843 10.782 19.908C10.7926 19.8872 10.8027 19.866 10.8123 19.8445M11 8.34314V17.8C11 18.8656 11 19.4243 10.8123 19.8445M17.6568 13L10.8123 19.8445M7 17H7.01" stroke="#0000CC" stroke-width="2" stroke-linecap="round" stroke-linejoin="round"/>
</svg>
