<svg width="24" height="24" viewBox="0 0 24 24" fill="none" xmlns="http://www.w3.org/2000/svg">
<path d="M12.4313 6C13.4328 6 13.7252 6.01019 13.9758 6.0863C14.2274 6.1627 14.4614 6.28796 14.6646 6.45491C14.8669 6.62123 15.0376 6.85886 15.5931 7.69214L17.1317 10H11.0002V6H12.4313Z" fill="#0000CC"/>
<path d="M9.0002 6V10L5.18066 10L5.31812 9.17528C5.43933 8.44798 5.52181 7.95716 5.61453 7.5793C5.70426 7.21364 5.78771 7.02559 5.8762 6.89253C6.08514 6.57833 6.3787 6.32965 6.72297 6.17521C6.86877 6.1098 7.06798 6.0584 7.44341 6.03C7.81965 6.00155 8.29909 6.00007 9.0002 6Z" fill="#0000CC"/>
<path fill-rule="evenodd" clip-rule="evenodd" d="M6 14C4.34315 14 3 15.3431 3 17C3 18.6569 4.34315 20 6 20C7.65685 20 9 18.6569 9 17C9 15.3431 7.65685 14 6 14Z" fill="#0000CC"/>
<path fill-rule="evenodd" clip-rule="evenodd" d="M18 14C16.3431 14 15 15.3431 15 17C15 18.6569 16.3431 20 18 20C19.6569 20 21 18.6569 21 17C21 15.3431 19.6569 14 18 14Z" fill="#0000CC"/>
<path opacity="0.3" fill-rule="evenodd" clip-rule="evenodd" d="M19.7444 10.3139L17.1839 6.4731C16.7346 5.79831 16.3956 5.28905 15.9343 4.90992C15.528 4.57603 15.06 4.32551 14.5568 4.17271C13.9855 3.9992 13.3737 3.99957 12.563 4.00005L9.02892 4.0001C8.33833 4.00009 7.7647 4.00008 7.29239 4.0358C6.79906 4.07311 6.3442 4.15311 5.90416 4.35052C5.21561 4.6594 4.62849 5.15677 4.21061 5.78516C3.94355 6.18676 3.78986 6.62228 3.67196 7.10277C3.55908 7.56278 3.46478 8.1286 3.35126 8.8098L3.12952 10.1402C2.96365 10.1847 2.79949 10.2448 2.63803 10.3271C2.07355 10.6147 1.61461 11.0736 1.32699 11.6381C1.13419 12.0165 1.06288 12.4097 1.03057 12.8051C0.999971 13.1796 0.999986 13.6344 1 14.1616L1 15.432C0.999973 15.6844 0.999943 15.9302 1.01695 16.1383C1.03563 16.3669 1.07969 16.6367 1.21799 16.9081C1.40678 17.2786 1.70628 17.5809 2.07465 17.7732C2.02567 17.523 2 17.2646 2 17.0001C2 14.791 3.79086 13.0001 6 13.0001C8.20914 13.0001 10 14.791 10 17.0001C10 17.3454 9.95625 17.6805 9.87398 18.0001H14.126C14.0438 17.6805 14 17.3454 14 17.0001C14 14.791 15.7909 13.0001 18 13.0001C20.2091 13.0001 22 14.791 22 17.0001C22 17.2646 21.9743 17.5232 21.9253 17.7733C22.4759 17.4859 22.8744 16.9507 22.9754 16.313C23.0006 16.1536 23.0003 15.9816 23.0001 15.8407L23 15.8001L23 15.7075C23.0001 15.0536 23.0002 14.608 22.9384 14.2179C22.6523 12.4115 21.4116 10.9341 19.7444 10.3139ZM13.9756 6.0864C13.725 6.01029 13.4326 6.0001 12.4311 6.0001H11V10.0001H17.1315L15.5929 7.69224C15.0374 6.85897 14.8667 6.62133 14.6644 6.45501C14.4613 6.28806 14.2272 6.16281 13.9756 6.0864ZM9 10.0001V6.00011C8.29889 6.00017 7.81945 6.00165 7.44321 6.03011C7.06778 6.0585 6.86857 6.1099 6.72277 6.17531C6.3785 6.32975 6.08494 6.57843 5.876 6.89263C5.78752 7.02569 5.70406 7.21374 5.61433 7.5794C5.52161 7.95727 5.43914 8.44808 5.31792 9.17539L5.18047 10.0001L9 10.0001Z" fill="#0000CC"/>
</svg>
