<svg width="24" height="24" viewBox="0 0 24 24" fill="none" xmlns="http://www.w3.org/2000/svg">
<g opacity="0.3">
<path d="M2 7C1.44772 7 1 7.44772 1 8C1 8.55228 1.44772 9 2 9H10C10.5523 9 11 8.55228 11 8C11 7.44772 10.5523 7 10 7H2Z" fill="#0000CC"/>
<path d="M14 7C13.4477 7 13 7.44772 13 8C13 8.55228 13.4477 9 14 9H22C22.5523 9 23 8.55228 23 8C23 7.44772 22.5523 7 22 7H14Z" fill="#0000CC"/>
</g>
<path d="M7.00033 6C7.00033 5.44772 6.55262 5 6.00033 5C5.44805 5 5.00033 5.44772 5.00033 6V7H7.00033V6Z" fill="#0000CC"/>
<path d="M19.0003 7V6C19.0003 5.44772 18.5526 5 18.0003 5C17.448 5 17.0003 5.44772 17.0003 6V7H19.0003Z" fill="#0000CC"/>
<path d="M6.00033 10C6.55262 10 7.00033 10.4477 7.00033 11V11.6132C7.00485 11.9539 7.03982 11.9752 7.27927 12.121C7.30737 12.1381 7.33834 12.157 7.37235 12.1783C8.27256 10.8637 9.78478 10 11.5003 10H12.5003C14.2159 10 15.7281 10.8637 16.6283 12.1783L16.6605 12.1582C16.9276 11.9917 17.0003 11.9464 17.0003 11.6132V11C17.0003 10.4477 17.448 10 18.0003 10C18.5526 10 19.0003 10.4477 19.0003 11L19.0005 11.6812C19.0014 11.9309 19.0024 12.245 18.9088 12.5438C18.8278 12.8022 18.6952 13.0415 18.519 13.2472C18.3152 13.4849 18.0483 13.6505 17.8361 13.7821L16.4443 14.6518L16.7892 15.3416C16.928 15.6194 17.0003 15.9256 17.0003 16.2361V18C17.0003 18.5523 16.5526 19 16.0003 19C15.448 19 15.0003 18.5523 15.0003 18V16.2361L14.7399 15.7152C14.6596 15.7623 14.5707 15.8099 14.4758 15.849C14.3379 15.9059 14.1942 15.9471 14.0471 15.972C13.8779 16.0006 13.7101 16.0003 13.5769 16H10.4238C10.2906 16.0003 10.1228 16.0006 9.95353 15.972C9.8065 15.9471 9.66272 15.9059 9.52487 15.849C9.42999 15.8099 9.34105 15.7623 9.26075 15.7152L9.00033 16.2361V18C9.00033 18.5523 8.55262 19 8.00033 19C7.44805 19 7.00033 18.5523 7.00033 18V16.2361C7.00033 15.9256 7.07262 15.6194 7.21148 15.3416L7.5564 14.6518L6.16457 13.7821C5.95236 13.6505 5.68543 13.4849 5.4817 13.2472C5.30546 13.0415 5.17282 12.8022 5.09183 12.5438C4.99822 12.245 4.99931 11.9309 5.00017 11.6812L5.00033 11C5.00033 10.4477 5.44805 10 6.00033 10Z" fill="#0000CC"/>
</svg>
