<svg width="24" height="24" viewBox="0 0 24 24" fill="none" xmlns="http://www.w3.org/2000/svg">
<path d="M11 4C10.4477 4 10 4.44772 10 5C10 5.55228 10.4477 6 11 6H13V7H15V6H17C17.5523 6 18 5.55228 18 5C18 4.44772 17.5523 4 17 4H11Z" fill="#0000CC"/>
<path d="M5 13V11H4V9C4 8.44772 3.55228 8 3 8C2.44772 8 2 8.44772 2 9V15C2 15.5523 2.44772 16 3 16C3.55228 16 4 15.5523 4 15V13H5Z" fill="#0000CC"/>
<path d="M22 11C22 10.4477 21.5523 10 21 10C20.4477 10 20 10.4477 20 11V19C20 19.5523 20.4477 20 21 20C21.5523 20 22 19.5523 22 19V11Z" fill="#0000CC"/>
<path opacity="0.3" fill-rule="evenodd" clip-rule="evenodd" d="M16 7H6C5.44772 7 5 7.44772 5 8V16C5 16.5523 5.44772 17 6 17H7.46482L9.16795 19.5547C9.35342 19.8329 9.66565 20 10 20H18C18.5523 20 19 19.5523 19 19V10C19 9.73478 18.8946 9.48043 18.7071 9.29289L16.7071 7.29289C16.5196 7.10536 16.2652 7 16 7ZM10 11C10 11.5523 9.55228 12 9 12C8.44772 12 8 11.5523 8 11C8 10.4477 8.44772 10 9 10C9.55228 10 10 10.4477 10 11ZM12 12C12.5523 12 13 11.5523 13 11C13 10.4477 12.5523 10 12 10C11.4477 10 11 10.4477 11 11C11 11.5523 11.4477 12 12 12ZM16 11C16 11.5523 15.5523 12 15 12C14.4477 12 14 11.5523 14 11C14 10.4477 14.4477 10 15 10C15.5523 10 16 10.4477 16 11Z" fill="#0000CC"/>
</svg>
