<svg width="24" height="24" viewBox="0 0 24 24" fill="none" xmlns="http://www.w3.org/2000/svg">
<g opacity="0.3">
<path fill-rule="evenodd" clip-rule="evenodd" d="M15 17.5C15 15.567 16.567 14 18.5 14C20.433 14 22 15.567 22 17.5C22 19.433 20.433 21 18.5 21C16.567 21 15 19.433 15 17.5ZM18.5 16C17.6716 16 17 16.6716 17 17.5C17 18.3284 17.6716 19 18.5 19C19.3284 19 20 18.3284 20 17.5C20 16.6716 19.3284 16 18.5 16Z" fill="#0000CC"/>
<path d="M7.91436 18H9.96427C9.72165 19.6961 8.26295 21 6.49971 21C4.73648 21 3.27777 19.6961 3.03516 18H5.08506C5.29098 18.5826 5.8466 19 6.49971 19C7.15282 19 7.70844 18.5826 7.91436 18Z" fill="#0000CC"/>
<path d="M5 6C4.44772 6 4 6.44772 4 7C4 7.55228 4.44772 8 5 8H9C9.55228 8 10 7.55228 10 7C10 6.44772 9.55228 6 9 6H5Z" fill="#0000CC"/>
</g>
<path d="M13 3C12.4477 3 12 3.44772 12 4C12 4.55228 12.4477 5 13 5H14.2192L15.8589 11.5589C14.0284 12.3739 12.6443 14.0101 12.1741 16C11.6123 16 11.2469 15.9989 10.9678 15.9761C10.6962 15.9539 10.5955 15.9162 10.546 15.891C10.3578 15.7951 10.2049 15.6421 10.109 15.454C10.0838 15.4045 10.0461 15.3038 10.0239 15.0322C10.0008 14.7488 10 14.3765 10 13.8V10C10 9.44772 9.55229 9 9 9H6.7587C5.95374 8.99999 5.28937 8.99998 4.74818 9.04419C4.18608 9.09012 3.66937 9.18868 3.18404 9.43597C2.43139 9.81947 1.81947 10.4314 1.43598 11.184C1.18868 11.6694 1.09012 12.1861 1.04419 12.7482C0.999978 13.2894 0.999988 13.9537 1 14.7587V17C1 17.5523 1.44772 18 2 18H11C11.0506 18 11.1003 17.9962 11.1488 17.989C11.4479 18 11.7863 18 12.1615 18H13.0224C13.5399 18 13.9719 17.6052 14.0184 17.0897C14.225 14.7972 16.1532 13 18.5 13C19.5888 13 20.5849 13.3854 21.3632 14.0282C21.7891 14.3799 22.4194 14.3198 22.771 13.8939C23.1227 13.4681 23.0626 12.8378 22.6368 12.4861C21.5133 11.5582 20.0705 11 18.5 11C18.2602 11 18.0234 11.013 17.7903 11.0383L16.7808 7H17.7192L17.7799 7.24254C17.9138 7.77833 18.4567 8.10409 18.9925 7.97014C19.5283 7.83619 19.8541 7.29326 19.7201 6.75746L19.2201 4.75746C19.0862 4.22167 18.5433 3.89591 18.0075 4.02986C17.5528 4.14352 17.2494 4.55164 17.2498 5H16.2808L15.9701 3.75746C15.8589 3.3123 15.4589 3 15 3H13Z" fill="#0000CC"/>
</svg>
