<svg width="24" height="24" viewBox="0 0 24 24" fill="none" xmlns="http://www.w3.org/2000/svg">
<path opacity="0.3" fill-rule="evenodd" clip-rule="evenodd" d="M5 4C5 3.44772 5.44772 3 6 3H18C18.5523 3 19 3.44772 19 4C19 4.55228 18.5523 5 18 5H6C5.44772 5 5 4.55228 5 4ZM3 11C3 10.4477 3.44772 10 4 10H20C20.5523 10 21 10.4477 21 11C21 11.5523 20.5523 12 20 12H4C3.44772 12 3 11.5523 3 11ZM2 18C2 17.4477 2.44772 17 3 17L21 17C21.5523 17 22 17.4477 22 18C22 18.5523 21.5523 19 21 19L3 19C2.44772 19 2 18.5523 2 18Z" fill="#0000CC"/>
<path fill-rule="evenodd" clip-rule="evenodd" d="M14.7325 2.03625C15.2647 1.88843 15.8159 2.19999 15.9637 2.73212L20.9637 20.7321C21.1115 21.2643 20.7999 21.8155 20.2678 21.9633C19.7357 22.1111 19.1845 21.7995 19.0366 21.2674L14.0366 3.26741C13.8888 2.73527 14.2004 2.18406 14.7325 2.03625ZM9.26802 2.0363C9.80015 2.18412 10.1117 2.73533 9.96388 3.26746L4.96377 21.2674C4.81595 21.7996 4.26474 22.1111 3.7326 21.9633C3.20047 21.8155 2.88892 21.2643 3.03674 20.7321L8.03685 2.73216C8.18467 2.20003 8.73588 1.88848 9.26802 2.0363Z" fill="#0000CC"/>
</svg>
