<svg width="24" height="24" viewBox="0 0 24 24" fill="none" xmlns="http://www.w3.org/2000/svg">
<path d="M6 5.6C6 5.03995 6 4.75992 6.10899 4.54601C6.20487 4.35785 6.35785 4.20487 6.54601 4.10899C6.75992 4 7.03995 4 7.6 4H11V10H6V5.6Z" fill="#0000CC"/>
<path d="M13 4H16.4C16.9601 4 17.2401 4 17.454 4.10899C17.6422 4.20487 17.7951 4.35785 17.891 4.54601C18 4.75992 18 5.03995 18 5.6V10H13V4Z" fill="#0000CC"/>
<path d="M5.29289 20.2929L6.63312 18.9527C6.69034 18.9592 6.74763 18.9648 6.80497 18.9694C7.17954 19 7.6343 19 8.16144 19H9.41421L6.70711 21.7071C6.31658 22.0976 5.68342 22.0976 5.29289 21.7071C4.90237 21.3166 4.90237 20.6834 5.29289 20.2929Z" fill="#0000CC"/>
<path d="M17.2929 21.7071L14.5858 19H15.8386C16.3657 19 16.8205 19 17.195 18.9694C17.2524 18.9648 17.3097 18.9592 17.3669 18.9527L18.7071 20.2929C19.0976 20.6834 19.0976 21.3166 18.7071 21.7071C18.3166 22.0976 17.6834 22.0976 17.2929 21.7071Z" fill="#0000CC"/>
<path opacity="0.3" fill-rule="evenodd" clip-rule="evenodd" d="M15.8385 2H8.16146C7.63433 1.99998 7.17954 1.99997 6.80497 2.03057C6.40963 2.06287 6.01641 2.13419 5.63803 2.32698C5.07354 2.6146 4.6146 3.07354 4.32698 3.63803C4.13419 4.01641 4.06287 4.40963 4.03057 4.80497C3.99997 5.17954 3.99998 5.63429 4 6.16142V14.8385C3.99998 15.3657 3.99997 15.8205 4.03057 16.195C4.06287 16.5904 4.13419 16.9836 4.32698 17.362C4.6146 17.9265 5.07354 18.3854 5.63803 18.673C6.01641 18.8658 6.40963 18.9371 6.80497 18.9694C7.17954 19 7.6343 19 8.16144 19H15.8386C16.3657 19 16.8205 19 17.195 18.9694C17.5904 18.9371 17.9836 18.8658 18.362 18.673C18.9265 18.3854 19.3854 17.9265 19.673 17.362C19.8658 16.9836 19.9371 16.5904 19.9694 16.195C20 15.8205 20 15.3658 20 14.8387V6.16148C20 5.63439 20 5.17951 19.9694 4.80497C19.9371 4.40963 19.8658 4.01641 19.673 3.63803C19.3854 3.07354 18.9265 2.6146 18.362 2.32698C17.9836 2.13419 17.5904 2.06287 17.195 2.03057C16.8205 1.99997 16.3657 1.99998 15.8385 2ZM7 16C7.55229 16 8 15.5523 8 15C8 14.4477 7.55229 14 7 14C6.44772 14 6 14.4477 6 15C6 15.5523 6.44772 16 7 16ZM18 15C18 15.5523 17.5523 16 17 16C16.4477 16 16 15.5523 16 15C16 14.4477 16.4477 14 17 14C17.5523 14 18 14.4477 18 15ZM6 5.6C6 5.03995 6 4.75992 6.10899 4.54601C6.20487 4.35785 6.35785 4.20487 6.54601 4.10899C6.75992 4 7.03995 4 7.6 4H11V10H6V5.6ZM13 4H16.4C16.9601 4 17.2401 4 17.454 4.10899C17.6422 4.20487 17.7951 4.35785 17.891 4.54601C18 4.75992 18 5.03995 18 5.6V10H13V4Z" fill="#0000CC"/>
</svg>
