<svg width="24" height="24" viewBox="0 0 24 24" fill="none" xmlns="http://www.w3.org/2000/svg">
<path d="M6.10899 4.54601C6 4.75992 6 5.03995 6 5.6V10.4C6 10.9601 6 11.2401 6.10899 11.454C6.20487 11.6422 6.35785 11.7951 6.54601 11.891C6.75992 12 7.03995 12 7.6 12H16.4C16.9601 12 17.2401 12 17.454 11.891C17.6422 11.7951 17.7951 11.6422 17.891 11.454C18 11.2401 18 10.9601 18 10.4V5.6C18 5.03995 18 4.75992 17.891 4.54601C17.7951 4.35785 17.6422 4.20487 17.454 4.10899C17.2401 4 16.9601 4 16.4 4H7.6C7.03995 4 6.75992 4 6.54601 4.10899C6.35785 4.20487 6.20487 4.35785 6.10899 4.54601Z" fill="#0000CC"/>
<path d="M5.29289 20.2929L6.63312 18.9527C6.69034 18.9592 6.74763 18.9648 6.80498 18.9694C7.17954 19 7.6343 19 8.16144 19H9.41421L6.70711 21.7071C6.31658 22.0976 5.68342 22.0976 5.29289 21.7071C4.90237 21.3166 4.90237 20.6834 5.29289 20.2929Z" fill="#0000CC"/>
<path d="M17.2929 21.7071L14.5858 19H15.8386C16.3657 19 16.8205 19 17.195 18.9694C17.2524 18.9648 17.3097 18.9592 17.3669 18.9527L18.7071 20.2929C19.0976 20.6834 19.0976 21.3166 18.7071 21.7071C18.3166 22.0976 17.6834 22.0976 17.2929 21.7071Z" fill="#0000CC"/>
<path opacity="0.3" fill-rule="evenodd" clip-rule="evenodd" d="M8.16146 2H15.8385C16.3657 1.99998 16.8205 1.99997 17.195 2.03057C17.5904 2.06287 17.9836 2.13419 18.362 2.32698C18.9265 2.6146 19.3854 3.07355 19.673 3.63803C19.8658 4.01641 19.9371 4.40963 19.9694 4.80498C20 5.17952 20 5.63436 20 6.16146V14.8386C20 15.3657 20 15.8205 19.9694 16.195C19.9371 16.5904 19.8658 16.9836 19.673 17.362C19.3854 17.9265 18.9265 18.3854 18.362 18.673C17.9836 18.8658 17.5904 18.9371 17.195 18.9694C16.8205 19 16.3657 19 15.8386 19H8.16144C7.6343 19 7.17954 19 6.80498 18.9694C6.40963 18.9371 6.01641 18.8658 5.63803 18.673C5.07355 18.3854 4.6146 17.9265 4.32698 17.362C4.13419 16.9836 4.06287 16.5904 4.03057 16.195C3.99997 15.8205 3.99998 15.3657 4 14.8386V6.16142C3.99998 5.6343 3.99997 5.17953 4.03057 4.80498C4.06287 4.40963 4.13419 4.01641 4.32698 3.63803C4.6146 3.07355 5.07355 2.6146 5.63803 2.32698C6.01641 2.13419 6.40963 2.06287 6.80498 2.03057C7.17953 1.99997 7.63434 1.99998 8.16146 2ZM13.5 15.5C13.5 16.3284 12.8284 17 12 17C11.1716 17 10.5 16.3284 10.5 15.5C10.5 14.6716 11.1716 14 12 14C12.8284 14 13.5 14.6716 13.5 15.5ZM6.10899 4.54601C6 4.75992 6 5.03995 6 5.6V10.4C6 10.9601 6 11.2401 6.10899 11.454C6.20487 11.6422 6.35785 11.7951 6.54601 11.891C6.75992 12 7.03995 12 7.6 12H16.4C16.9601 12 17.2401 12 17.454 11.891C17.6422 11.7951 17.7951 11.6422 17.891 11.454C18 11.2401 18 10.9601 18 10.4V5.6C18 5.03995 18 4.75992 17.891 4.54601C17.7951 4.35785 17.6422 4.20487 17.454 4.10899C17.2401 4 16.9601 4 16.4 4H7.6C7.03995 4 6.75992 4 6.54601 4.10899C6.35785 4.20487 6.20487 4.35785 6.10899 4.54601Z" fill="#0000CC"/>
</svg>
