<svg width="24" height="24" viewBox="0 0 24 24" fill="none" xmlns="http://www.w3.org/2000/svg">
<path d="M14.5 11H18.5L17 9H14.5V11Z" fill="#0000CC"/>
<path fill-rule="evenodd" clip-rule="evenodd" d="M6.5 15C4.84315 15 3.5 16.3431 3.5 18C3.5 19.6569 4.84315 21 6.5 21C8.15685 21 9.5 19.6569 9.5 18C9.5 16.3431 8.15685 15 6.5 15Z" fill="#0000CC"/>
<path fill-rule="evenodd" clip-rule="evenodd" d="M16.5 15C14.8431 15 13.5 16.3431 13.5 18C13.5 19.6569 14.8431 21 16.5 21C18.1569 21 19.5 19.6569 19.5 18C19.5 16.3431 18.1569 15 16.5 15Z" fill="#0000CC"/>
<path opacity="0.3" fill-rule="evenodd" clip-rule="evenodd" d="M10.3385 3H5.66146C5.13434 2.99998 4.67953 2.99997 4.30498 3.03057C3.90963 3.06287 3.51641 3.13419 3.13803 3.32698C2.57355 3.6146 2.1146 4.07355 1.82698 4.63803C1.63419 5.01641 1.56287 5.40963 1.53057 5.80498C1.49997 6.17953 1.49998 6.63427 1.5 7.16138V16C1.5 16.892 1.88929 17.6931 2.50724 18.2426C2.50244 18.1623 2.5 18.0814 2.5 18C2.5 15.7909 4.29086 14 6.5 14C8.70914 14 10.5 15.7909 10.5 18C10.5 18.3453 10.4562 18.6804 10.374 19H12.626C12.5438 18.6804 12.5 18.3453 12.5 18C12.5 15.7909 14.2909 14 16.5 14C18.7091 14 20.5 15.7909 20.5 18C20.5 18.3453 20.4562 18.6804 20.374 19H21.5C22.0523 19 22.5 18.5523 22.5 18C22.5 17.4477 22.0523 17 21.5 17V12C21.5 11.7836 21.4298 11.5731 21.3 11.4L18.3 7.4C18.1111 7.1482 17.8148 7 17.5 7H14.5C14.4997 6.54097 14.4969 6.14075 14.4694 5.80498C14.4371 5.40963 14.3658 5.01641 14.173 4.63803C13.8854 4.07355 13.4265 3.6146 12.862 3.32698C12.4836 3.13419 12.0904 3.06287 11.695 3.03057C11.3205 2.99997 10.8657 2.99998 10.3385 3ZM14.5 9L14.5 11H18.5L17 9L14.5 9Z" fill="#0000CC"/>
</svg>
