<svg width="24" height="24" viewBox="0 0 24 24" fill="none" xmlns="http://www.w3.org/2000/svg">
<path d="M11.5 10.5003L14.5 13.5003M21.4999 6.50023L12.4688 15.5314C11.6403 16.3598 10.2972 16.3598 9.46875 15.5314C8.64032 14.703 8.64032 13.3598 9.46875 12.5314L18.4999 3.50023C19.3283 2.67182 20.6714 2.6718 21.4999 3.50017C22.3284 4.32859 22.3284 5.67178 21.4999 6.50023ZM10.3398 17.7503C10.3398 19.5452 8.88477 21.0003 7.08984 21.0003H2.5L2.7103 20.8951C3.74629 20.3771 4.26276 19.1917 3.93667 18.0803C3.87245 17.8614 3.83395 17.6338 3.85777 17.4069C4.02929 15.7734 5.41089 14.5003 7.08984 14.5003C8.88477 14.5003 10.3398 15.9554 10.3398 17.7503Z" stroke="#0000CC" stroke-width="2" stroke-linecap="round" stroke-linejoin="round"/>
</svg>
