<svg width="24" height="24" viewBox="0 0 24 24" fill="none" xmlns="http://www.w3.org/2000/svg">
<path d="M14.0002 6.99991L16.8286 9.82834M3.69763 19.5652L4.26331 20.1309C4.65933 20.5269 4.85734 20.7249 5.08567 20.7991C5.28651 20.8644 5.50286 20.8644 5.7037 20.7991C5.93203 20.7249 6.13004 20.5269 6.52606 20.1309L20.0828 6.57415C20.4788 6.17813 20.6768 5.98012 20.751 5.7518C20.8163 5.55095 20.8163 5.3346 20.751 5.13376C20.6768 4.90543 20.4788 4.70742 20.0828 4.31141L19.5171 3.74572C19.1211 3.3497 18.9231 3.1517 18.6948 3.07751C18.4939 3.01225 18.2776 3.01225 18.0767 3.07751C17.8484 3.1517 17.6504 3.34971 17.2544 3.74572L3.69763 17.3025C3.30161 17.6985 3.1036 17.8965 3.02941 18.1248C2.96415 18.3257 2.96415 18.542 3.02941 18.7429C3.1036 18.9712 3.30161 19.1692 3.69763 19.5652Z" stroke="#0000CC" stroke-width="2" stroke-linecap="round" stroke-linejoin="round"/>
</svg>
