<svg width="24" height="24" viewBox="0 0 24 24" fill="none" xmlns="http://www.w3.org/2000/svg">
<path opacity="0.14" d="M15.8 3H8.2C7.0799 3 6.51984 3 6.09202 3.21799C5.71569 3.40973 5.40973 3.71569 5.21799 4.09202C5 4.51984 5 5.0799 5 6.2V19C5 17.8954 5.89543 17 7 17H19V6.2C19 5.0799 19 4.51984 18.782 4.09202C18.5903 3.71569 18.2843 3.40973 17.908 3.21799C17.4802 3 16.9201 3 15.8 3Z" fill="#0000CC"/>
<path d="M5 19V6.2C5 5.0799 5 4.51984 5.21799 4.09202C5.40973 3.71569 5.71569 3.40973 6.09202 3.21799C6.51984 3 7.0799 3 8.2 3H15.8C16.9201 3 17.4802 3 17.908 3.21799C18.2843 3.40973 18.5903 3.71569 18.782 4.09202C19 4.51984 19 5.0799 19 6.2V17H7C5.89543 17 5 17.8954 5 19ZM5 19C5 20.1046 5.89543 21 7 21H19M18 17V21M10 6V10M14 10V14M8 8H12M12 12H16" stroke="#0000CC" stroke-width="2" stroke-linecap="round" stroke-linejoin="round"/>
</svg>
