<svg width="24" height="24" viewBox="0 0 24 24" fill="none" xmlns="http://www.w3.org/2000/svg">
<path opacity="0.14" d="M10.8 21H13.2C14.8802 21 15.7202 21 16.362 20.673C16.9265 20.3854 17.3854 19.9265 17.673 19.362C18 18.7202 18 17.8802 18 16.2V7H6V16.2C6 17.8802 6 18.7202 6.32698 19.362C6.6146 19.9265 7.07354 20.3854 7.63803 20.673C8.27976 21 9.11984 21 10.8 21Z" fill="#0000CC"/>
<path d="M18 8V16.2C18 17.8802 18 18.7202 17.673 19.362C17.3854 19.9265 16.9265 20.3854 16.362 20.673C15.7202 21 14.8802 21 13.2 21H10.8C9.11984 21 8.27976 21 7.63803 20.673C7.07354 20.3854 6.6146 19.9265 6.32698 19.362C6 18.7202 6 17.8802 6 16.2V8M18 9V3H6V9M6 7H18M9 17H15M9 13H10M14 13H15M21 8V12M18 10H21M3 8V12M6 10H3M9 6V8M12 6V8M15 6V8" stroke="#0000CC" stroke-width="2" stroke-linecap="round" stroke-linejoin="round"/>
</svg>
