<svg width="24" height="24" viewBox="0 0 24 24" fill="none" xmlns="http://www.w3.org/2000/svg">
<path opacity="0.14" d="M19.4713 3.46879C19.6372 3.32181 19.7202 3.24832 19.8106 3.21581C19.9298 3.17291 20.0609 3.17688 20.1773 3.22691C20.2655 3.26483 20.3439 3.3432 20.5006 3.49995C20.6574 3.6567 20.7357 3.73507 20.7737 3.82329C20.8237 3.93971 20.8277 4.07078 20.7848 4.19002C20.7523 4.28037 20.6788 4.36334 20.5318 4.52928L6.62772 20.2274C6.23557 20.6702 6.03949 20.8915 5.80549 20.9787C5.59983 21.0553 5.37469 21.0621 5.16477 20.9981C4.92593 20.9253 4.71682 20.7162 4.2986 20.2979L3.70263 19.702C3.28442 19.2838 3.07531 19.0746 3.00247 18.8358C2.93846 18.6259 2.94527 18.4007 3.02187 18.1951C3.10902 17.9611 3.3304 17.765 3.77315 17.3729L19.4713 3.46879Z" fill="#0000CC"/>
<path d="M7.01676 14.4999L7.00062 12H9.83933M15.6863 9.99995H18.0006V7.38705M3.70263 19.702L4.2986 20.2979C4.71682 20.7162 4.92593 20.9253 5.16477 20.9981C5.37469 21.0621 5.59983 21.0553 5.80549 20.9787C6.03949 20.8915 6.23557 20.6702 6.62772 20.2274L20.5318 4.52928C20.6788 4.36334 20.7523 4.28037 20.7848 4.19002C20.8277 4.07078 20.8237 3.93971 20.7737 3.82329C20.7357 3.73507 20.6574 3.6567 20.5006 3.49995C20.3439 3.3432 20.2655 3.26483 20.1773 3.22691C20.0609 3.17688 19.9298 3.17291 19.8106 3.21581C19.7202 3.24832 19.6372 3.32181 19.4713 3.46879L3.77315 17.3729C3.3304 17.765 3.10902 17.9611 3.02187 18.1951C2.94527 18.4007 2.93846 18.6259 3.00247 18.8358C3.07531 19.0746 3.28442 19.2838 3.70263 19.702Z" stroke="#0000CC" stroke-width="2" stroke-linecap="round" stroke-linejoin="round"/>
</svg>
