<svg width="24" height="24" viewBox="0 0 24 24" fill="none" xmlns="http://www.w3.org/2000/svg">
<circle opacity="0.3" cx="12" cy="12" r="10" fill="#0000CC"/>
<path fill-rule="evenodd" clip-rule="evenodd" d="M12 8C10.8954 8 10 8.89543 10 10C10 11.1046 10.8954 12 12 12C13.1046 12 14 11.1046 14 10C14 8.89543 13.1046 8 12 8ZM8 10C8 7.79086 9.79086 6 12 6C14.2091 6 16 7.79086 16 10C16 10.9941 15.6373 11.9035 15.0371 12.6032L11.8397 17.5433C11.5396 18.007 10.9205 18.1396 10.4569 17.8395C9.99323 17.5394 9.86063 16.9203 10.1607 16.4567L11.7555 13.9926C9.66021 13.8663 8 12.127 8 10Z" fill="#0000CC"/>
</svg>
