<svg width="24" height="24" viewBox="0 0 24 24" fill="none" xmlns="http://www.w3.org/2000/svg">
<circle opacity="0.3" cx="12" cy="12" r="10" fill="#0000CC"/>
<path fill-rule="evenodd" clip-rule="evenodd" d="M12 8C10.948 8 10 8.91955 10 10.1746C10 10.7269 9.55232 11.1746 9.00003 11.1746C8.44775 11.1746 8.00003 10.7269 8.00003 10.1746C8.00003 7.92309 9.73835 6 12 6C14.2617 6 16 7.92309 16 10.1746C16 11.4772 15.1467 12.452 14.5085 13.0686L11.4743 16H15C15.5523 16 16 16.4477 16 17C16 17.5523 15.5523 18 15 18H9.00003C8.59243 18 8.22562 17.7526 8.07289 17.3747C7.92016 16.9968 8.01207 16.564 8.30521 16.2808L13.1189 11.6302C13.7163 11.053 14 10.5901 14 10.1746C14 8.91955 13.0521 8 12 8Z" fill="#0000CC"/>
</svg>
