<svg width="24" height="24" viewBox="0 0 24 24" fill="none" xmlns="http://www.w3.org/2000/svg">
<circle opacity="0.3" cx="12" cy="12" r="10" fill="#0000CC"/>
<path fill-rule="evenodd" clip-rule="evenodd" d="M8 7C8 6.44772 8.44772 6 9 6H15C15.3844 6 15.7348 6.22035 15.9013 6.56681C16.0678 6.91328 16.021 7.32453 15.7809 7.6247L13.0467 11.0424C14.72 11.3049 16 12.753 16 14.5C16 16.433 14.433 18 12.5 18H10.9444C9.31827 18 8 16.6817 8 15.0556C8 14.5033 8.44772 14.0556 9 14.0556C9.55228 14.0556 10 14.5033 10 15.0556C10 15.5772 10.4228 16 10.9444 16H12.5C13.3284 16 14 15.3284 14 14.5C14 13.6716 13.3284 13 12.5 13H11C10.6156 13 10.2652 12.7797 10.0987 12.4332C9.93218 12.0867 9.979 11.6755 10.2191 11.3753L12.9194 8H9C8.44772 8 8 7.55228 8 7Z" fill="#0000CC"/>
</svg>
