<svg width="24" height="24" viewBox="0 0 24 24" fill="none" xmlns="http://www.w3.org/2000/svg">
<circle opacity="0.3" cx="12" cy="12" r="10" fill="#0000CC"/>
<path fill-rule="evenodd" clip-rule="evenodd" d="M11.8939 6.08087C12.4016 6.29842 12.6367 6.8863 12.4191 7.39393L10.0165 13H12.5V8.00001C12.5 7.44773 12.9477 7.00001 13.5 7.00001C14.0523 7.00001 14.5 7.44773 14.5 8.00001V13H15.5C16.0523 13 16.5 13.4477 16.5 14C16.5 14.5523 16.0523 15 15.5 15H14.5V17C14.5 17.5523 14.0523 18 13.5 18C12.9477 18 12.5 17.5523 12.5 17V15H8.5C8.16386 15 7.85021 14.8311 7.66516 14.5505C7.48012 14.2699 7.44845 13.9151 7.58086 13.6061L10.5809 6.60609C10.7984 6.09846 11.3863 5.86331 11.8939 6.08087Z" fill="#0000CC"/>
</svg>
