<svg width="24" height="24" viewBox="0 0 24 24" fill="none" xmlns="http://www.w3.org/2000/svg">
<circle opacity="0.3" cx="12" cy="12" r="10" fill="#0000CC"/>
<path fill-rule="evenodd" clip-rule="evenodd" d="M12 8C11.2314 8 10.4133 8.53851 9.9091 9.63881C9.62354 10.262 9.5 10.8411 9.5 12C9.5 13.1589 9.62354 13.738 9.9091 14.3612C10.4133 15.4615 11.2314 16 12 16C12.8018 16 13.6045 15.518 14.078 14.3906C14.3412 13.7638 14.5 13.1297 14.5 12C14.5 10.8411 14.3765 10.262 14.0909 9.63881C13.5867 8.53851 12.7686 8 12 8ZM8.0909 8.80563C8.81478 7.22596 10.2231 6 12 6C13.7769 6 15.1852 7.22596 15.9091 8.80563C16.3517 9.77147 16.5 10.6589 16.5 12C16.5 13.3703 16.2976 14.2706 15.922 15.165C15.1932 16.9004 13.7437 18 12 18C10.2231 18 8.81478 16.774 8.0909 15.1944C7.64832 14.2285 7.5 13.3411 7.5 12C7.5 10.6589 7.64832 9.77147 8.0909 8.80563Z" fill="#0000CC"/>
</svg>
