<svg width="24" height="24" viewBox="0 0 24 24" fill="none" xmlns="http://www.w3.org/2000/svg">
<circle opacity="0.3" cx="12" cy="12" r="10" fill="#0000CC"/>
<path fill-rule="evenodd" clip-rule="evenodd" d="M12.3827 6.07612C12.7564 6.2309 13 6.59554 13 7V16H15C15.5523 16 16 16.4477 16 17C16 17.5523 15.5523 18 15 18H9C8.44772 18 8 17.5523 8 17C8 16.4477 8.44772 16 9 16H11V9.41421L9.70711 10.7071C9.31658 11.0976 8.68342 11.0976 8.29289 10.7071C7.90237 10.3166 7.90237 9.68342 8.29289 9.29289L11.2929 6.29289C11.5789 6.00689 12.009 5.92134 12.3827 6.07612Z" fill="#0000CC"/>
</svg>
