<svg width="24" height="24" viewBox="0 0 24 24" fill="none" xmlns="http://www.w3.org/2000/svg">
<circle opacity="0.3" cx="12" cy="12" r="10" fill="#0000CC"/>
<path fill-rule="evenodd" clip-rule="evenodd" d="M13.5433 6.16049C14.007 6.46057 14.1396 7.0797 13.8395 7.54334L12.2447 10.0074C14.3399 10.1338 16 11.873 16 14C16 16.2091 14.2091 18 12 18C9.79086 18 8 16.2091 8 14C8 13.0054 8.36302 12.0956 8.96378 11.3958L12.1605 6.45665C12.4606 5.993 13.0797 5.86041 13.5433 6.16049ZM10.4997 12.6774C10.1887 13.03 10 13.4929 10 14C10 15.1046 10.8954 16 12 16C13.1046 16 14 15.1046 14 14C14 12.8954 13.1046 12 12 12C11.4121 12 10.8834 12.2537 10.5175 12.6575C10.5116 12.6642 10.5057 12.6709 10.4997 12.6774Z" fill="#0000CC"/>
</svg>
