<svg width="24" height="24" viewBox="0 0 24 24" fill="none" xmlns="http://www.w3.org/2000/svg">
<rect opacity="0.3" x="3" y="3" width="18" height="18" rx="3" fill="#0000CC"/>
<path fill-rule="evenodd" clip-rule="evenodd" d="M12 9C11.3752 9 10.7253 9.40562 10.3262 10.2185C10.1018 10.6756 10 11.0989 10 12C10 12.9011 10.1018 13.3244 10.3262 13.7815C10.7253 14.5944 11.3752 15 12 15C12.6596 15 13.2896 14.6339 13.6595 13.8119C13.8705 13.3428 14 12.8704 14 12C14 11.0989 13.8982 10.6756 13.6738 10.2185C13.2747 9.40562 12.6248 9 12 9ZM8.53093 9.33706C9.18446 8.00596 10.443 7 12 7C13.557 7 14.8155 8.00596 15.4691 9.33706C15.8688 10.1512 16 10.9011 16 12C16 13.1296 15.8199 13.8847 15.4834 14.6325C14.8227 16.1008 13.5222 17 12 17C10.443 17 9.18446 15.994 8.53093 14.6629C8.13123 13.8488 8 13.0989 8 12C8 10.9011 8.13123 10.1512 8.53093 9.33706Z" fill="#0000CC"/>
</svg>
