<svg width="24" height="24" viewBox="0 0 24 24" fill="none" xmlns="http://www.w3.org/2000/svg">
<rect opacity="0.3" x="3" y="3" width="18" height="18" rx="3" fill="#0000CC"/>
<path fill-rule="evenodd" clip-rule="evenodd" d="M9 9.75C9 8.23122 10.2312 7 11.75 7H12.25C13.7688 7 15 8.23122 15 9.75C15 10.358 14.8027 10.9198 14.4687 11.3751C15.1033 11.9683 15.5 12.8128 15.5 13.75C15.5 15.5449 14.0449 17 12.25 17H11.75C9.95508 17 8.5 15.5449 8.5 13.75C8.5 12.8128 8.89669 11.9683 9.53133 11.3751C9.19728 10.9198 9 10.358 9 9.75ZM11.75 10.5C11.3358 10.5 11 10.1642 11 9.75C11 9.33579 11.3358 9 11.75 9H12.25C12.6642 9 13 9.33579 13 9.75C13 10.1642 12.6642 10.5 12.25 10.5H11.75ZM12.25 12.5H11.75C11.0596 12.5 10.5 13.0596 10.5 13.75C10.5 14.4404 11.0596 15 11.75 15H12.25C12.9404 15 13.5 14.4404 13.5 13.75C13.5 13.0596 12.9404 12.5 12.25 12.5Z" fill="#0000CC"/>
</svg>
