<svg width="24" height="24" viewBox="0 0 24 24" fill="none" xmlns="http://www.w3.org/2000/svg">
<rect opacity="0.3" x="3" y="3" width="18" height="18" rx="3" fill="#0000CC"/>
<path fill-rule="evenodd" clip-rule="evenodd" d="M8 8C8 7.44772 8.44772 7 9 7H15C15.4045 7 15.7691 7.24364 15.9239 7.61732C16.0787 7.99099 15.9931 8.42111 15.7071 8.70711L13.3892 11.025C14.8622 11.2158 16 12.475 16 14C16 15.6569 14.6569 17 13 17H10.5556C9.14416 17 8 15.8558 8 14.4444C8 13.8922 8.44772 13.4444 9 13.4444C9.55228 13.4444 10 13.8922 10 14.4444C10 14.7513 10.2487 15 10.5556 15H13C13.5523 15 14 14.5523 14 14C14 13.4477 13.5523 13 13 13H11C10.5955 13 10.2309 12.7564 10.0761 12.3827C9.92134 12.009 10.0069 11.5789 10.2929 11.2929L12.5858 9H9C8.44772 9 8 8.55228 8 8Z" fill="#0000CC"/>
</svg>
