<svg width="24" height="24" viewBox="0 0 24 24" fill="none" xmlns="http://www.w3.org/2000/svg">
<rect opacity="0.3" x="3" y="3" width="18" height="18" rx="3" fill="#0000CC"/>
<path fill-rule="evenodd" clip-rule="evenodd" d="M9.55132 7.68377C9.68744 7.27543 10.0696 7 10.5 7H14.5C15.0523 7 15.5 7.44772 15.5 8C15.5 8.55228 15.0523 9 14.5 9H11.2208L10.8874 10H12C13.933 10 15.5 11.567 15.5 13.5C15.5 15.433 13.933 17 12 17H11.1667C9.69392 17 8.50001 15.8061 8.50001 14.3333C8.50001 13.781 8.94772 13.3333 9.50001 13.3333C10.0523 13.3333 10.5 13.781 10.5 14.3333C10.5 14.7015 10.7985 15 11.1667 15H12C12.8284 15 13.5 14.3284 13.5 13.5C13.5 12.6716 12.8284 12 12 12H9.50001C9.17856 12 8.87672 11.8455 8.68877 11.5847C8.50081 11.324 8.44967 10.9887 8.55132 10.6838L9.55132 7.68377Z" fill="#0000CC"/>
</svg>
