<svg width="24" height="24" viewBox="0 0 24 24" fill="none" xmlns="http://www.w3.org/2000/svg">
<rect opacity="0.3" x="3" y="3" width="18" height="18" rx="3" fill="#0000CC"/>
<path fill-rule="evenodd" clip-rule="evenodd" d="M12 9C11.1864 9 10.5 9.67443 10.5 10.5397C10.5 11.092 10.0523 11.5397 9.50004 11.5397C8.94775 11.5397 8.50004 11.092 8.50004 10.5397C8.50004 8.59967 10.0523 7 12 7C13.9478 7 15.5 8.59967 15.5 10.5397C15.5 11.686 14.7291 12.5141 14.2065 12.9988L12.0488 15H14.5C15.0523 15 15.5 15.4477 15.5 16C15.5 16.5523 15.0523 17 14.5 17H9.50004C9.08872 17 8.71936 16.7481 8.56913 16.3652C8.4189 15.9823 8.51844 15.5465 8.82002 15.2668L12.8464 11.5324C13.3334 11.0807 13.5 10.7703 13.5 10.5397C13.5 9.67443 12.8137 9 12 9Z" fill="#0000CC"/>
</svg>
