<svg width="24" height="24" viewBox="0 0 24 24" fill="none" xmlns="http://www.w3.org/2000/svg">
<circle opacity="0.14" cx="12" cy="12" r="9" fill="#0000CC"/>
<path d="M9 11L8.10557 10.5528C7.95058 10.8628 7.96714 11.2309 8.14935 11.5258C8.33156 11.8206 8.65342 12 9 12V11ZM10 15C10 14.4477 9.55228 14 9 14C8.44772 14 8 14.4477 8 15H10ZM11 7V6C10.6212 6 10.275 6.214 10.1056 6.55279L11 7ZM15 8C15.5523 8 16 7.55228 16 7C16 6.44772 15.5523 6 15 6V8ZM12 16H11V18H12V16ZM9 12H12V10H9V12ZM11 16C10.4477 16 10 15.5523 10 15H8C8 16.6568 9.34315 18 11 18V16ZM14 14C14 15.1046 13.1046 16 12 16V18C14.2091 18 16 16.2091 16 14H14ZM16 14C16 11.7909 14.2091 10 12 10V12C13.1046 12 14 12.8954 14 14H16ZM9.89443 11.4472L11.8944 7.44721L10.1056 6.55279L8.10557 10.5528L9.89443 11.4472ZM11 8H15V6H11V8ZM20 12C20 16.4183 16.4183 20 12 20V22C17.5228 22 22 17.5228 22 12H20ZM12 20C7.58172 20 4 16.4183 4 12H2C2 17.5228 6.47715 22 12 22V20ZM4 12C4 7.58172 7.58172 4 12 4V2C6.47715 2 2 6.47715 2 12H4ZM12 4C16.4183 4 20 7.58172 20 12H22C22 6.47715 17.5228 2 12 2V4Z" fill="#0000CC"/>
</svg>
