<svg width="24" height="24" viewBox="0 0 24 24" fill="none" xmlns="http://www.w3.org/2000/svg">
<circle opacity="0.14" cx="12" cy="12" r="9" fill="#0000CC"/>
<path d="M14.5 8C14.5 7.44772 14.0523 7 13.5 7C12.9477 7 12.5 7.44772 12.5 8H14.5ZM12.5 17C12.5 17.5523 12.9477 18 13.5 18C14.0523 18 14.5 17.5523 14.5 17H12.5ZM15.5 15C16.0523 15 16.5 14.5523 16.5 14C16.5 13.4477 16.0523 13 15.5 13V15ZM8.5 14L7.58085 13.6061C7.44844 13.915 7.48012 14.2699 7.66516 14.5505C7.8502 14.8311 8.16386 15 8.5 15V14ZM12.4191 7.39392C12.6367 6.88629 12.4015 6.29841 11.8939 6.08085C11.3863 5.8633 10.7984 6.09845 10.5809 6.60608L12.4191 7.39392ZM12.5 8V14H14.5V8H12.5ZM12.5 14V17H14.5V14H12.5ZM15.5 13H13.5V15H15.5V13ZM13.5 13H8.5V15H13.5V13ZM9.41915 14.3939L12.4191 7.39392L10.5809 6.60608L7.58085 13.6061L9.41915 14.3939ZM20 12C20 16.4183 16.4183 20 12 20V22C17.5228 22 22 17.5228 22 12H20ZM12 20C7.58172 20 4 16.4183 4 12H2C2 17.5228 6.47715 22 12 22V20ZM4 12C4 7.58172 7.58172 4 12 4V2C6.47715 2 2 6.47715 2 12H4ZM12 4C16.4183 4 20 7.58172 20 12H22C22 6.47715 17.5228 2 12 2V4Z" fill="#0000CC"/>
</svg>
