<svg width="24" height="24" viewBox="0 0 24 24" fill="none" xmlns="http://www.w3.org/2000/svg">
<path opacity="0.14" d="M12 21C15.5 17.4 19 14.1764 19 10.2C19 6.22355 15.866 3 12 3C8.13401 3 5 6.22355 5 10.2C5 14.1764 8.5 17.4 12 21Z" fill="#0000CC"/>
<path d="M9.19739 3.60027C10.0555 3.2142 11.0034 3 12 3C15.866 3 19 6.22355 19 10.2C19 11.1279 18.8094 12.0148 18.4727 12.875M16.3439 16.3431C15.0983 17.887 13.5491 19.4066 12 21C8.5 17.4 5 14.1764 5 10.2C5 8.71437 5.43745 7.33384 6.18709 6.18723M3 3L21 21" stroke="#0000CC" stroke-width="2" stroke-linecap="round" stroke-linejoin="round"/>
</svg>
