<svg width="24" height="24" viewBox="0 0 24 24" fill="none" xmlns="http://www.w3.org/2000/svg">
<path opacity="0.14" d="M12.3597 10.6184C12.2403 10.7447 12.1202 10.8718 12 11C11.8798 10.8718 11.7597 10.7447 11.6403 10.6184C10.4869 9.3985 9.40554 8.25468 9.09128 6.95436L9 7L3 4V17L9 20L15 17L21 20V7L15 4L14.4105 4.29473C14.7809 4.82701 15 5.48621 15 6.2C15 7.82573 13.7307 9.16831 12.3597 10.6184Z" fill="#0000CC"/>
<path d="M12 6H12.01M9 20L3 17V4L5 5M9 20L15 17M9 20V14M15 17L21 20V7L19 6M15 17V14M15 6.2C15 7.96731 13.5 9.4 12 11C10.5 9.4 9 7.96731 9 6.2C9 4.43269 10.3431 3 12 3C13.6569 3 15 4.43269 15 6.2Z" stroke="#0000CC" stroke-width="2" stroke-linecap="round" stroke-linejoin="round"/>
</svg>
