<svg width="24" height="24" viewBox="0 0 24 24" fill="none" xmlns="http://www.w3.org/2000/svg">
<path opacity="0.3" fill-rule="evenodd" clip-rule="evenodd" d="M12.3699 2.15235C12.1262 2.10661 11.8761 2.10661 11.6323 2.15233C11.3509 2.20512 11.0959 2.33361 10.8933 2.43571L10.8384 2.46331L4.43773 5.66335L4.36994 5.69703C4.12257 5.81953 3.81167 5.97349 3.5716 6.21859C3.47532 6.31689 3.38973 6.42456 3.316 6.53975C3.23087 6.67272 3.16152 6.81573 3.10972 6.9659C2.99784 7.29024 2.99916 7.63717 3.00021 7.91321L3.0004 7.9889V16.0111L3.00021 16.0868C2.99916 16.3628 2.99784 16.7098 3.10972 17.0341C3.20639 17.3144 3.36416 17.5696 3.5716 17.7814C3.81167 18.0265 4.12257 18.1805 4.36994 18.303L4.43773 18.3367L10.8384 21.5367L10.8933 21.5643C11.0959 21.6664 11.3509 21.7949 11.6323 21.8477C11.7538 21.8705 11.8768 21.8819 11.9998 21.882C12.1237 21.8821 12.2476 21.8706 12.3699 21.8477C12.6514 21.7948 12.9064 21.6663 13.109 21.5642L13.1639 21.5366L13.9177 21.1597C13.9046 21.147 13.8916 21.1343 13.8787 21.1213C13.1695 20.4121 12.8616 19.3953 13.0583 18.4117L13.4633 16.3867L13.4684 16.3604C13.4906 16.2438 13.5591 15.8853 13.6975 15.5324C13.8121 15.2401 13.9608 14.9624 14.1404 14.7049C14.3572 14.394 14.6175 14.1382 14.7022 14.055L14.7213 14.0362L17.8787 10.8787C18.7408 10.0167 19.8706 9.58573 21.0004 9.58582V7.98882L21.0006 7.91314C21.0016 7.63712 21.003 7.29022 20.8911 6.9659C20.8393 6.81573 20.77 6.67274 20.6849 6.53977C20.6111 6.42459 20.5256 6.31692 20.4293 6.21862C20.1892 5.97352 19.8784 5.81954 19.631 5.69703L19.5632 5.66335L13.1639 2.46339L13.109 2.43579C12.9064 2.33368 12.6514 2.20517 12.3699 2.15235ZM11.9966 4.12392C11.9439 4.14688 11.8728 4.18202 11.7325 4.25218L6.23633 7.00003L8.00019 7.88196L13.7644 4.99987L12.2692 4.2522C12.1288 4.18203 12.0578 4.14688 12.005 4.12392L12.0008 4.1221L11.9966 4.12392ZM16.0003 6.11795L10.2363 8.99999L12.0002 9.88196L17.7642 6.99996L16.0003 6.11795ZM7.94739 11.8556C7.45341 11.6086 6.85274 11.8088 6.60575 12.3028C6.35876 12.7968 6.55899 13.3974 7.05297 13.6444L8.05297 14.1444C8.54694 14.3914 9.14762 14.1912 9.39461 13.6972C9.6416 13.2032 9.44137 12.6026 8.94739 12.3556L7.94739 11.8556Z" fill="#0000CC"/>
<path d="M8 7.88197L13.7642 4.99988L16.0001 6.11796L10.2361 9L8 7.88197Z" fill="#0000CC"/>
<path d="M7.94743 11.8556C7.45345 11.6086 6.85278 11.8088 6.60579 12.3028C6.3588 12.7968 6.55903 13.3974 7.05301 13.6444L8.05301 14.1444C8.54698 14.3914 9.14766 14.1912 9.39465 13.6972C9.64164 13.2032 9.44141 12.6026 8.94743 12.3556L7.94743 11.8556Z" fill="#0000CC"/>
<path d="M22.7071 12.2929C21.7643 11.3501 20.2357 11.3501 19.2929 12.2929L16.1355 15.4504L16.109 15.4768C16.0095 15.5759 15.8842 15.7007 15.7808 15.849C15.691 15.9777 15.6166 16.1166 15.5593 16.2627C15.4933 16.431 15.459 16.6045 15.4317 16.7423L15.4244 16.7789L15.0194 18.8039C14.9539 19.1318 15.0565 19.4707 15.2929 19.7071C15.5293 19.9436 15.8683 20.0462 16.1961 19.9806L18.2211 19.5756L18.2578 19.5683C18.3955 19.5411 18.5691 19.5067 18.7373 19.4407C18.8834 19.3834 19.0223 19.3091 19.1511 19.2193C19.2993 19.1159 19.4242 18.9906 19.5233 18.8911L19.5497 18.8646L22.7071 15.7071C23.6499 14.7643 23.6499 13.2357 22.7071 12.2929Z" fill="#0000CC"/>
</svg>
