<svg width="24" height="24" viewBox="0 0 24 24" fill="none" xmlns="http://www.w3.org/2000/svg">
<path opacity="0.3" fill-rule="evenodd" clip-rule="evenodd" d="M4.43773 5.66335L5.87102 4.94676C6.00432 5.18872 6.17354 5.41618 6.37868 5.62132L7.2504 6.49304L6.23633 7.00003C11.5897 9.6767 9.91064 8.83718 12.0002 9.88196L17.7642 6.99995L16.7499 6.49275L17.6213 5.62132C17.8266 5.41604 17.9959 5.18842 18.1292 4.94629L19.5632 5.66335L19.631 5.69703C19.8784 5.81954 20.1892 5.97351 20.4293 6.21861C20.5256 6.31692 20.6111 6.42459 20.6849 6.53977C20.77 6.67274 20.8393 6.81573 20.8911 6.96589C21.003 7.29021 21.0016 7.63712 21.0006 7.91313L21.0004 7.98882V16.0112L21.0006 16.0869C21.0016 16.3629 21.003 16.7098 20.8911 17.0341C20.7944 17.3144 20.6367 17.5696 20.4293 17.7814C20.1892 18.0265 19.8784 18.1805 19.631 18.303L19.5632 18.3367L13.1639 21.5366L13.109 21.5642C12.9064 21.6663 12.6514 21.7948 12.3699 21.8477C12.2476 21.8706 12.1237 21.882 11.9998 21.882C11.8768 21.8819 11.7538 21.8705 11.6323 21.8477C11.3509 21.7949 11.0959 21.6664 10.8933 21.5643L10.8384 21.5367L4.43773 18.3367L4.36992 18.303C4.12256 18.1805 3.81167 18.0265 3.5716 17.7814C3.36416 17.5696 3.20639 17.3144 3.10972 17.0341C2.99784 16.7098 2.99916 16.3628 3.00021 16.0868L3.0004 16.0111V7.9889L3.00021 7.9132C2.99916 7.63717 2.99784 7.29024 3.10972 6.9659C3.16152 6.81572 3.23087 6.67272 3.316 6.53974C3.38973 6.42456 3.47532 6.31689 3.5716 6.21859C3.81167 5.97349 4.12257 5.81952 4.36994 5.69702L4.43773 5.66335ZM7.94739 11.8556C7.45341 11.6086 6.85274 11.8088 6.60575 12.3028C6.35876 12.7968 6.55899 13.3974 7.05297 13.6444L8.05297 14.1444C8.54694 14.3914 9.14762 14.1912 9.39461 13.6972C9.6416 13.2032 9.44137 12.6026 8.94739 12.3556L7.94739 11.8556Z" fill="#0000CC"/>
<path d="M13 2C13 1.44772 12.5523 1 12 1C11.4477 1 11 1.44772 11 2V4C11 4.55228 11.4477 5 12 5C12.5523 5 13 4.55228 13 4V2Z" fill="#0000CC"/>
<path d="M9.20711 2.79289C8.81658 2.40237 8.18342 2.40237 7.79289 2.79289C7.40237 3.18342 7.40237 3.81658 7.79289 4.20711L8.79289 5.20711C9.18342 5.59763 9.81658 5.59763 10.2071 5.20711C10.5976 4.81658 10.5976 4.18342 10.2071 3.79289L9.20711 2.79289Z" fill="#0000CC"/>
<path d="M16.2071 2.79289C16.5976 3.18342 16.5976 3.81658 16.2071 4.20711L15.2071 5.20711C14.8166 5.59763 14.1834 5.59763 13.7929 5.20711C13.4024 4.81658 13.4024 4.18342 13.7929 3.79289L14.7929 2.79289C15.1834 2.40237 15.8166 2.40237 16.2071 2.79289Z" fill="#0000CC"/>
<path d="M6.60189 12.3028C6.84887 11.8088 7.44955 11.6086 7.94353 11.8555L8.94353 12.3555C9.4375 12.6025 9.63773 13.2032 9.39074 13.6972C9.14375 14.1912 8.54308 14.3914 8.0491 14.1444L7.0491 13.6444C6.55512 13.3974 6.3549 12.7967 6.60189 12.3028Z" fill="#0000CC"/>
</svg>
