<svg width="24" height="24" viewBox="0 0 24 24" fill="none" xmlns="http://www.w3.org/2000/svg">
<path opacity="0.3" fill-rule="evenodd" clip-rule="evenodd" d="M12.3699 2.15235C12.1262 2.10661 11.8761 2.10661 11.6323 2.15233C11.3509 2.20512 11.0959 2.33361 10.8933 2.43571L10.8384 2.46331L4.43773 5.66335L4.36994 5.69703C4.12257 5.81953 3.81167 5.97349 3.5716 6.21859C3.47532 6.31689 3.38973 6.42456 3.316 6.53975C3.23087 6.67272 3.16152 6.81573 3.10972 6.9659C2.99784 7.29024 2.99916 7.63717 3.00021 7.91321L3.0004 7.9889V16.0111L3.00021 16.0868C2.99916 16.3628 2.99784 16.7098 3.10972 17.0341C3.20639 17.3144 3.36416 17.5696 3.5716 17.7814C3.81167 18.0265 4.12257 18.1805 4.36994 18.303L4.43773 18.3367L10.8384 21.5367L10.8933 21.5643C11.0959 21.6664 11.3509 21.7949 11.6323 21.8477C11.7538 21.8705 11.8768 21.8819 11.9998 21.882C12.1237 21.8821 12.2476 21.8706 12.3699 21.8477C12.6514 21.7948 12.9064 21.6663 13.109 21.5642L13.1639 21.5366L14.4621 20.8875C13.4788 19.7314 13 18.2968 13 16.8889C13 15.3634 13.5621 13.8065 14.7191 12.6066C15.0894 12.2226 15.5484 11.9508 16.0451 11.8072C16.3199 11.4189 16.6577 11.0428 17.0728 10.6965C18.2252 9.73496 19.9002 9.77828 21.0004 10.7689V7.98882L21.0006 7.91314C21.0016 7.63712 21.003 7.29022 20.8911 6.9659C20.8393 6.81573 20.77 6.67274 20.6849 6.53977C20.6111 6.42459 20.5256 6.31692 20.4293 6.21862C20.1892 5.97352 19.8784 5.81954 19.631 5.69703L19.5632 5.66335L13.1639 2.46339L13.109 2.43579C12.9064 2.33368 12.6514 2.20517 12.3699 2.15235ZM11.9966 4.12392C11.9439 4.14688 11.8728 4.18202 11.7325 4.25218L6.23633 7.00003L8.00019 7.88196L13.7644 4.99987L12.2692 4.2522C12.1288 4.18203 12.0578 4.14688 12.005 4.12392L12.0008 4.1221L11.9966 4.12392ZM16.0003 6.11795L10.2363 8.99999L12.0002 9.88196L17.7642 6.99996L16.0003 6.11795ZM7.94739 11.8556C7.45341 11.6086 6.85274 11.8088 6.60575 12.3028C6.35876 12.7968 6.55899 13.3974 7.05297 13.6444L8.05297 14.1444C8.54694 14.3914 9.14762 14.1912 9.39461 13.6972C9.6416 13.2032 9.44137 12.6026 8.94739 12.3556L7.94739 11.8556Z" fill="#0000CC"/>
<path d="M8 7.88197L13.7642 4.99988L16.0001 6.11796L10.2361 9L8 7.88197Z" fill="#0000CC"/>
<path d="M7.94743 11.8556C7.45345 11.6086 6.85278 11.8088 6.60579 12.3028C6.3588 12.7968 6.55903 13.3974 7.05301 13.6444L8.05301 14.1444C8.54698 14.3914 9.14766 14.1912 9.39465 13.6972C9.64164 13.2032 9.44141 12.6026 8.94743 12.3556L7.94743 11.8556Z" fill="#0000CC"/>
<path fill-rule="evenodd" clip-rule="evenodd" d="M19.7121 12.3033C19.3477 11.9281 18.7557 11.8971 18.3541 12.2322C17.8135 12.6832 17.4653 13.2207 17.2436 13.7579C17.1905 13.7371 17.1353 13.7207 17.0784 13.7091C16.7431 13.6408 16.3963 13.7486 16.1588 13.9949C15.3826 14.7998 15 15.8496 15 16.8889C15 17.9282 15.3826 18.978 16.1588 19.7829C17.7237 21.4057 20.2763 21.4057 21.8412 19.7829C22.6174 18.978 23 17.9282 23 16.8889C23 15.8496 22.6174 14.7998 21.8412 13.9949C21.4902 13.6309 21.0887 13.3573 20.7625 13.1349L20.6857 13.0825C20.327 12.8371 20.0145 12.6148 19.7121 12.3033ZM17 16.8889C17 16.7218 17.0185 16.5556 17.0553 16.3937C17.1651 16.4697 17.2847 16.5426 17.4147 16.61C17.7247 16.7707 18.0961 16.7581 18.3945 16.5767C18.6929 16.3953 18.875 16.0714 18.875 15.7222C18.875 15.3069 18.94 14.8437 19.1314 14.4339C19.2816 14.5445 19.4246 14.643 19.5564 14.7332L19.5803 14.7495C19.9559 15.0064 20.1977 15.1719 20.4015 15.3831C20.7968 15.7932 21 16.3358 21 16.8889C21 17.442 20.7968 17.9846 20.4015 18.3946C19.6232 19.2018 18.3768 19.2018 17.5985 18.3946C17.2032 17.9846 17 17.442 17 16.8889Z" fill="#0000CC"/>
</svg>
