<svg width="24" height="24" viewBox="0 0 24 24" fill="none" xmlns="http://www.w3.org/2000/svg">
<path opacity="0.3" fill-rule="evenodd" clip-rule="evenodd" d="M12.3699 2.15235C12.1262 2.10661 11.8761 2.10661 11.6323 2.15233C11.3509 2.20512 11.0959 2.33361 10.8933 2.43571L10.8384 2.46331L4.43773 5.66335L4.36994 5.69703C4.12257 5.81953 3.81167 5.97349 3.5716 6.21859C3.47532 6.31689 3.38973 6.42456 3.316 6.53975C3.23087 6.67272 3.16152 6.81573 3.10972 6.9659C2.99784 7.29024 2.99916 7.63717 3.00021 7.91321L3.0004 7.9889V16.0111L3.00021 16.0868C2.99916 16.3628 2.99784 16.7098 3.10972 17.0341C3.20639 17.3144 3.36416 17.5696 3.5716 17.7814C3.81167 18.0265 4.12257 18.1805 4.36994 18.303L4.43773 18.3367L10.8384 21.5367L10.8933 21.5643C11.0959 21.6664 11.3509 21.7949 11.6323 21.8477C11.7538 21.8705 11.8768 21.8819 11.9998 21.882C12.1237 21.8821 12.2476 21.8706 12.3699 21.8477C12.6514 21.7948 12.9064 21.6663 13.109 21.5642L13.1639 21.5366L15.0586 20.5892C15.0206 20.3987 15.0007 20.2017 15.0007 20C15.0007 19.4538 15.1467 18.9418 15.4017 18.5007C15.101 17.9808 14.9692 17.39 15.0064 16.8079C13.5894 16.2766 12.7722 14.7509 13.1579 13.2522C13.7128 11.0963 15.6663 9.5 18.0002 9.5C19.1259 9.5 20.1647 9.872 21.0004 10.4998V7.98882L21.0006 7.91314C21.0016 7.63712 21.003 7.29022 20.8911 6.9659C20.8393 6.81573 20.77 6.67274 20.6849 6.53977C20.6111 6.42459 20.5256 6.31692 20.4293 6.21862C20.1892 5.97352 19.8784 5.81954 19.631 5.69703L19.5632 5.66335L13.1639 2.46339L13.109 2.43579C12.9064 2.33368 12.6514 2.20517 12.3699 2.15235ZM11.9966 4.12392C11.9439 4.14688 11.8728 4.18202 11.7325 4.25218L6.23633 7.00003L8.00019 7.88196L13.7644 4.99987L12.2692 4.2522C12.1288 4.18203 12.0578 4.14688 12.005 4.12392L12.0008 4.1221L11.9966 4.12392ZM16.0003 6.11795L10.2363 8.99999L12.0002 9.88196L17.7642 6.99996L16.0003 6.11795ZM7.94739 11.8556C7.45341 11.6086 6.85274 11.8088 6.60575 12.3028C6.35876 12.7968 6.55899 13.3974 7.05297 13.6444L8.05297 14.1444C8.54694 14.3914 9.14762 14.1912 9.39461 13.6972C9.6416 13.2032 9.44137 12.6026 8.94739 12.3556L7.94739 11.8556Z" fill="#0000CC"/>
<path d="M8 7.88197L13.7642 4.99988L16.0001 6.11796L10.2361 9L8 7.88197Z" fill="#0000CC"/>
<path d="M7.94743 11.8556C7.45345 11.6086 6.85278 11.8088 6.60579 12.3028C6.3588 12.7968 6.55903 13.3974 7.05301 13.6444L8.05301 14.1444C8.54698 14.3914 9.14766 14.1912 9.39465 13.6972C9.64164 13.2032 9.44141 12.6026 8.94743 12.3556L7.94743 11.8556Z" fill="#0000CC"/>
<path d="M17.0312 14.2493C17.1422 13.8177 17.5351 13.5 17.9997 13.5C18.552 13.5 18.9997 13.9477 18.9997 14.5C18.9997 14.6732 18.9542 14.8053 18.6803 15.0697C18.5459 15.1994 18.3907 15.3282 18.1861 15.498L18.0946 15.574C17.8563 15.7723 17.5768 16.0087 17.2926 16.2929C16.9021 16.6834 16.9021 17.3166 17.2926 17.7071C17.6832 18.0976 18.3163 18.0976 18.7069 17.7071C18.9227 17.4913 19.1432 17.3033 19.3736 17.1116L19.4594 17.0405C19.6568 16.8769 19.8764 16.6949 20.0692 16.5087C20.5452 16.0493 20.9997 15.4314 20.9997 14.5C20.9997 12.8431 19.6566 11.5 17.9997 11.5C16.6005 11.5 15.4273 12.457 15.0943 13.7507C14.9566 14.2856 15.2786 14.8308 15.8135 14.9684C16.3483 15.1061 16.8935 14.7841 17.0312 14.2493Z" fill="#0000CC"/>
<path d="M18.0002 19C17.448 19 17.0002 19.4477 17.0002 20C17.0002 20.5523 17.448 21 18.0002 21H18.0102C18.5625 21 19.0102 20.5523 19.0102 20C19.0102 19.4477 18.5625 19 18.0102 19H18.0002Z" fill="#0000CC"/>
</svg>
