<svg width="24" height="24" viewBox="0 0 24 24" fill="none" xmlns="http://www.w3.org/2000/svg">
<path opacity="0.3" fill-rule="evenodd" clip-rule="evenodd" d="M12.3699 2.15247C12.1262 2.10674 11.8761 2.10673 11.6323 2.15245C11.3509 2.20525 11.0959 2.33373 10.8933 2.43583L10.8384 2.46343L4.43773 5.66347L4.36994 5.69715C4.12257 5.81965 3.81167 5.97361 3.5716 6.21872C3.47532 6.31702 3.38973 6.42469 3.316 6.53987C3.23087 6.67285 3.16152 6.81585 3.10972 6.96603C2.99784 7.29036 2.99916 7.6373 3.00021 7.91333L3.0004 7.98902V16.0112L3.00021 16.0869C2.99916 16.363 2.99784 16.7099 3.10972 17.0342C3.20639 17.3145 3.36416 17.5698 3.5716 17.7815C3.81167 18.0266 4.12257 18.1806 4.36994 18.3031L4.43773 18.3368L10.8384 21.5368L10.8933 21.5644C11.0959 21.6665 11.3509 21.795 11.6323 21.8478C11.7538 21.8706 11.8768 21.882 11.9998 21.8821C12.1237 21.8822 12.2476 21.8707 12.3699 21.8478C12.6514 21.795 12.9064 21.6665 13.109 21.5643L13.1639 21.5367L14.4265 20.9054C13.2418 19.8093 12.5 18.2413 12.5 16.5C12.5 13.1863 15.1863 10.5 18.5 10.5C19.0421 10.5 19.5671 10.5718 20.0662 10.7064C20.34 10.4753 20.6557 10.2923 21.0004 10.1706V7.98895L21.0006 7.91326C21.0016 7.63725 21.003 7.29034 20.8911 6.96602C20.8393 6.81585 20.77 6.67286 20.6849 6.5399C20.6111 6.42471 20.5256 6.31704 20.4293 6.21874C20.1892 5.97364 19.8784 5.81966 19.631 5.69716L19.5632 5.66348L13.1639 2.46351L13.109 2.43591C12.9064 2.3338 12.6514 2.20529 12.3699 2.15247ZM11.9966 4.12404C11.9439 4.147 11.8728 4.18215 11.7325 4.2523L6.23633 7.00015L8.00019 7.88208L13.7644 4.99999L12.2692 4.25232C12.1288 4.18215 12.0578 4.14701 12.005 4.12404L12.0008 4.12222L11.9966 4.12404ZM16.0003 6.11807L10.2363 9.00011L12.0002 9.88208L17.7642 7.00008L16.0003 6.11807ZM7.94739 11.8557C7.45341 11.6087 6.85274 11.8089 6.60575 12.3029C6.35876 12.7969 6.55899 13.3976 7.05297 13.6445L8.05297 14.1445C8.54694 14.3915 9.14762 14.1913 9.39461 13.6973C9.6416 13.2034 9.44137 12.6027 8.94739 12.3557L7.94739 11.8557Z" fill="#0000CC"/>
<path d="M8 7.88209L13.7642 5L16.0001 6.11808L10.2361 9.00012L8 7.88209Z" fill="#0000CC"/>
<path d="M7.94743 11.8557C7.45345 11.6087 6.85278 11.8089 6.60579 12.3029C6.3588 12.7969 6.55903 13.3976 7.05301 13.6446L8.05301 14.1446C8.54698 14.3915 9.14766 14.1913 9.39465 13.6973C9.64164 13.2034 9.44141 12.6027 8.94743 12.3557L7.94743 11.8557Z" fill="#0000CC"/>
<path d="M23 13C23 12.4477 22.5523 12 22 12C21.4477 12 21 12.4477 21 13V13.3774C20.3156 12.8286 19.4465 12.5 18.5 12.5C16.2909 12.5 14.5 14.2909 14.5 16.5C14.5 18.7091 16.2909 20.5 18.5 20.5C19.5238 20.5 20.4599 20.114 21.1669 19.4812C21.5784 19.1129 21.6135 18.4807 21.2451 18.0692C20.8768 17.6577 20.2446 17.6226 19.8331 17.991C19.4786 18.3083 19.0129 18.5 18.5 18.5C17.3954 18.5 16.5 17.6046 16.5 16.5C16.5 15.3954 17.3954 14.5 18.5 14.5C19.0067 14.5 19.4701 14.6886 19.8231 15H19C18.4477 15 18 15.4477 18 16C18 16.5523 18.4477 17 19 17H22C22.5523 17 23 16.5523 23 16V13Z" fill="#0000CC"/>
</svg>
