<svg width="24" height="24" viewBox="0 0 24 24" fill="none" xmlns="http://www.w3.org/2000/svg">
<path opacity="0.3" fill-rule="evenodd" clip-rule="evenodd" d="M11.6323 2.15245C11.8761 2.10673 12.1262 2.10674 12.3699 2.15247C12.6514 2.20529 12.9064 2.3338 13.109 2.43591L13.1639 2.46351L19.5632 5.66348L19.631 5.69716C19.8784 5.81966 20.1892 5.97364 20.4293 6.21874C20.5256 6.31704 20.6111 6.42471 20.6849 6.5399C20.77 6.67286 20.8393 6.81585 20.8911 6.96602C21.003 7.29034 21.0016 7.63725 21.0006 7.91326L21.0004 7.98895V12.963C20.9862 11.8767 20.3804 10.836 19.3416 10.3166C17.8597 9.57568 16.0577 10.1763 15.3167 11.6583L13.8167 14.6583C13.3517 15.5882 13.4014 16.6927 13.9481 17.5771C14.4057 18.3176 15.157 18.8155 15.9996 18.958C15.9947 19.3245 16.0574 19.6872 16.1816 20.0278L13.1639 21.5367L13.109 21.5643C12.9064 21.6665 12.6514 21.795 12.3699 21.8478C12.2476 21.8707 12.1237 21.8822 11.9998 21.8821C11.8768 21.882 11.7538 21.8706 11.6323 21.8478C11.3509 21.795 11.0959 21.6665 10.8933 21.5644L10.8384 21.5368L4.43773 18.3368L4.36994 18.3031C4.12257 18.1806 3.81167 18.0266 3.5716 17.7815C3.36416 17.5698 3.20639 17.3145 3.10972 17.0342C2.99784 16.7099 2.99916 16.363 3.00021 16.0869L3.0004 16.0112V7.98902L3.00021 7.91333C2.99916 7.6373 2.99784 7.29036 3.10972 6.96603C3.16152 6.81585 3.23087 6.67285 3.316 6.53987C3.38973 6.42469 3.47532 6.31702 3.5716 6.21872C3.81167 5.97361 4.12257 5.81965 4.36994 5.69715L4.43773 5.66347L10.8384 2.46343L10.8933 2.43583C11.0959 2.33373 11.3509 2.20525 11.6323 2.15245ZM11.7325 4.2523C11.8728 4.18215 11.9439 4.147 11.9966 4.12404L12.0008 4.12222L12.005 4.12404C12.0578 4.14701 12.1288 4.18215 12.2692 4.25232L13.7644 4.99999L8.00019 7.88208L6.23633 7.00015L11.7325 4.2523ZM10.2363 9.00011L16.0003 6.11807L17.7642 7.00008L12.0002 9.88208L10.2363 9.00011ZM6.60575 12.3029C6.85274 11.8089 7.45341 11.6087 7.94739 11.8557L8.94739 12.3557C9.44137 12.6027 9.6416 13.2034 9.39461 13.6973C9.14762 14.1913 8.54694 14.3915 8.05297 14.1445L7.05297 13.6445C6.55899 13.3976 6.35876 12.7969 6.60575 12.3029Z" fill="#0000CC"/>
<path d="M8 7.88209L13.7642 5L16.0001 6.11808L10.2361 9.00012L8 7.88209Z" fill="#0000CC"/>
<path d="M7.94743 11.8557C7.45345 11.6087 6.85278 11.8089 6.60579 12.3029C6.3588 12.7969 6.55903 13.3976 7.05301 13.6446L8.05301 14.1446C8.54698 14.3915 9.14766 14.1913 9.39465 13.6973C9.64164 13.2034 9.44141 12.6027 8.94743 12.3557L7.94743 11.8557Z" fill="#0000CC"/>
<path d="M18.4472 12.1055C18.9412 12.3525 19.1414 12.9532 18.8944 13.4472L18.118 15H20.5C20.8466 15 21.1684 15.1794 21.3507 15.4742C21.5329 15.7691 21.5494 16.1372 21.3944 16.4472L19.8944 19.4472C19.6474 19.9412 19.0468 20.1414 18.5528 19.8944C18.0588 19.6474 17.8586 19.0467 18.1056 18.5528L18.882 17H16.5C16.1534 17 15.8316 16.8205 15.6494 16.5257C15.4671 16.2309 15.4506 15.8628 15.6056 15.5528L17.1056 12.5528C17.3526 12.0588 17.9532 11.8586 18.4472 12.1055Z" fill="#0000CC"/>
</svg>
