<svg width="24" height="24" viewBox="0 0 24 24" fill="none" xmlns="http://www.w3.org/2000/svg">
<path opacity="0.3" fill-rule="evenodd" clip-rule="evenodd" d="M12.3699 2.15247C12.1262 2.10674 11.8761 2.10673 11.6323 2.15245C11.3509 2.20525 11.0959 2.33373 10.8933 2.43583L10.8384 2.46343L4.43773 5.66347L4.36994 5.69715C4.12257 5.81965 3.81167 5.97361 3.5716 6.21872C3.47532 6.31702 3.38973 6.42469 3.316 6.53987C3.23087 6.67285 3.16152 6.81585 3.10972 6.96603C2.99784 7.29036 2.99916 7.6373 3.00021 7.91333L3.0004 7.98902V16.0112L3.00021 16.0869C2.99916 16.363 2.99784 16.7099 3.10972 17.0342C3.20639 17.3145 3.36416 17.5698 3.5716 17.7815C3.81167 18.0266 4.12257 18.1806 4.36994 18.3031L4.43773 18.3368L10.8384 21.5368L10.8933 21.5644C11.0959 21.6665 11.3509 21.795 11.6323 21.8478C11.7538 21.8706 11.8768 21.882 11.9998 21.8821C12.1237 21.8822 12.2476 21.8707 12.3699 21.8478C12.6514 21.795 12.9064 21.6665 13.109 21.5643L13.1639 21.5367L14.6955 20.7709C13.0625 19.5901 12 17.6691 12 15.5C12 11.9101 14.9101 9 18.5 9C19.3861 9 20.2307 9.17729 21.0004 9.49833V7.98895L21.0006 7.91326C21.0016 7.63725 21.003 7.29034 20.8911 6.96602C20.8393 6.81585 20.77 6.67286 20.6849 6.5399C20.6111 6.42471 20.5256 6.31704 20.4293 6.21874C20.1892 5.97364 19.8784 5.81966 19.631 5.69716L19.5632 5.66348L13.1639 2.46351L13.109 2.43591C12.9064 2.3338 12.6514 2.20529 12.3699 2.15247ZM11.9966 4.12404C11.9439 4.147 11.8728 4.18215 11.7325 4.2523L6.23633 7.00015L8.00019 7.88208L13.7644 4.99999L12.2692 4.25232C12.1288 4.18215 12.0578 4.14701 12.005 4.12404L12.0008 4.12222L11.9966 4.12404ZM16.0003 6.11807L10.2363 9.00011L12.0002 9.88208L17.7642 7.00008L16.0003 6.11807ZM7.94739 11.8557C7.45341 11.6087 6.85274 11.8089 6.60575 12.3029C6.35876 12.7969 6.55899 13.3976 7.05297 13.6445L8.05297 14.1445C8.54694 14.3915 9.14762 14.1913 9.39461 13.6973C9.6416 13.2034 9.44137 12.6027 8.94739 12.3557L7.94739 11.8557Z" fill="#0000CC"/>
<path d="M8 7.88209L13.7642 5L16.0001 6.11808L10.2361 9.00012L8 7.88209Z" fill="#0000CC"/>
<path d="M7.94743 11.8557C7.45345 11.6087 6.85278 11.8089 6.60579 12.3029C6.3588 12.7969 6.55903 13.3976 7.05301 13.6446L8.05301 14.1446C8.54698 14.3915 9.14766 14.1913 9.39465 13.6973C9.64164 13.2034 9.44141 12.6027 8.94743 12.3557L7.94743 11.8557Z" fill="#0000CC"/>
<path d="M19.7071 15.7071C20.0976 15.3166 20.0976 14.6834 19.7071 14.2929C19.3166 13.9024 18.6834 13.9024 18.2929 14.2929L17.7929 14.7929C17.4024 15.1834 17.4024 15.8166 17.7929 16.2071C18.1834 16.5976 18.8166 16.5976 19.2071 16.2071L19.7071 15.7071Z" fill="#0000CC"/>
<path fill-rule="evenodd" clip-rule="evenodd" d="M18.5 11C16.0147 11 14 13.0147 14 15.5C14 17.9853 16.0147 20 18.5 20C20.9853 20 23 17.9853 23 15.5C23 13.0147 20.9853 11 18.5 11ZM16 15.5C16 14.1193 17.1193 13 18.5 13C19.8807 13 21 14.1193 21 15.5C21 16.8807 19.8807 18 18.5 18C17.1193 18 16 16.8807 16 15.5Z" fill="#0000CC"/>
</svg>
