<svg width="24" height="24" viewBox="0 0 24 24" fill="none" xmlns="http://www.w3.org/2000/svg">
<path opacity="0.3" fill-rule="evenodd" clip-rule="evenodd" d="M12.3699 2.15235C12.1262 2.10661 11.8761 2.10661 11.6323 2.15233C11.3509 2.20512 11.0959 2.33361 10.8933 2.43571L10.8384 2.46331L4.43773 5.66335L4.36994 5.69703C4.12257 5.81953 3.81167 5.97349 3.5716 6.21859C3.47532 6.31689 3.38973 6.42456 3.316 6.53975C3.23087 6.67272 3.16152 6.81573 3.10972 6.9659C2.99784 7.29024 2.99916 7.63717 3.00021 7.91321L3.0004 7.9889V16.0111L3.00021 16.0868C2.99916 16.3628 2.99784 16.7098 3.10972 17.0341C3.20639 17.3144 3.36416 17.5696 3.5716 17.7814C3.81167 18.0265 4.12257 18.1805 4.36994 18.303L4.43773 18.3367L10.8384 21.5367L10.8933 21.5643C11.0959 21.6664 11.3509 21.7949 11.6323 21.8477C11.7538 21.8705 11.8768 21.8819 11.9998 21.882C12.1237 21.8821 12.2476 21.8706 12.3699 21.8477C12.6514 21.7948 12.9064 21.6663 13.109 21.5642L13.1639 21.5366L15.2972 20.4699C14.8753 20.1791 14.5269 19.7797 14.2961 19.2996C13.7966 18.2602 13.937 17.0264 14.6574 16.1259L15.2238 15.4179C14.4816 14.8718 14 13.9921 14 13C14 11.3431 15.3432 10 17 10H21.0004V7.98882L21.0006 7.91314C21.0016 7.63712 21.003 7.29022 20.8911 6.9659C20.8393 6.81573 20.77 6.67274 20.6849 6.53977C20.6111 6.42459 20.5256 6.31692 20.4293 6.21862C20.1892 5.97352 19.8784 5.81954 19.631 5.69703L19.5632 5.66335L13.1639 2.46339L13.109 2.43579C12.9064 2.33368 12.6514 2.20517 12.3699 2.15235ZM11.9966 4.12392C11.9439 4.14688 11.8728 4.18202 11.7325 4.25218L6.23633 7.00003L8.00019 7.88196L13.7644 4.99987L12.2692 4.2522C12.1288 4.18203 12.0578 4.14688 12.005 4.12392L12.0008 4.1221L11.9966 4.12392ZM16.0003 6.11795L10.2363 8.99999L12.0002 9.88196L17.7642 6.99996L16.0003 6.11795ZM7.94739 11.8556C7.45341 11.6086 6.85274 11.8088 6.60575 12.3028C6.35876 12.7968 6.55899 13.3974 7.05297 13.6444L8.05297 14.1444C8.54694 14.3914 9.14762 14.1912 9.39461 13.6972C9.6416 13.2032 9.44137 12.6026 8.94739 12.3556L7.94739 11.8556Z" fill="#0000CC"/>
<path d="M8 7.88197L13.7642 4.99988L16.0001 6.11796L10.2361 9L8 7.88197Z" fill="#0000CC"/>
<path d="M7.94743 11.8556C7.45345 11.6086 6.85278 11.8088 6.60579 12.3028C6.3588 12.7968 6.55903 13.3974 7.05301 13.6444L8.05301 14.1444C8.54698 14.3914 9.14766 14.1912 9.39465 13.6972C9.64164 13.2032 9.44141 12.6026 8.94743 12.3556L7.94743 11.8556Z" fill="#0000CC"/>
<path d="M17 12C16.4477 12 16 12.4477 16 13C16 13.5523 16.4477 14 17 14H18.9194L16.2191 17.3753C15.979 17.6755 15.9322 18.0867 16.0987 18.4332C16.2652 18.7797 16.6156 19 17 19H21C21.5523 19 22 18.5523 22 18C22 17.4477 21.5523 17 21 17H19.0806L21.7809 13.6247C22.021 13.3245 22.0678 12.9133 21.9013 12.5668C21.7348 12.2203 21.3844 12 21 12H17Z" fill="#0000CC"/>
</svg>
