<svg width="24" height="24" viewBox="0 0 24 24" fill="none" xmlns="http://www.w3.org/2000/svg">
<path opacity="0.3" fill-rule="evenodd" clip-rule="evenodd" d="M7.02288 4.3709L4.43773 5.66336L4.36994 5.69704C4.12257 5.81954 3.81167 5.9735 3.5716 6.21861C3.47532 6.31691 3.38973 6.42458 3.316 6.53976C3.23087 6.67274 3.16152 6.81574 3.10972 6.96592C2.99784 7.29026 2.99916 7.63719 3.00021 7.91322L3.0004 7.98892V16.0111L3.00021 16.0868C2.99916 16.3629 2.99784 16.7098 3.10972 17.0341C3.20639 17.3144 3.36416 17.5696 3.5716 17.7814C3.81167 18.0265 4.12257 18.1805 4.36993 18.303L4.43773 18.3367L10.8384 21.5367L10.8933 21.5643C11.0959 21.6664 11.3509 21.7949 11.6323 21.8477C11.7538 21.8705 11.8768 21.8819 11.9998 21.882C12.1237 21.8821 12.2476 21.8706 12.3699 21.8477C12.6514 21.7949 12.9064 21.6663 13.109 21.5642L13.1639 21.5366L19.5632 18.3367L19.631 18.303C19.8784 18.1805 20.1892 18.0265 20.4293 17.7814C20.6367 17.5696 20.7944 17.3144 20.8911 17.0341C21.003 16.7098 21.0016 16.3629 21.0006 16.0869L21.0004 16.0112V7.98884L21.0006 7.91315C21.0016 7.63714 21.003 7.29023 20.8911 6.96591C20.8393 6.81575 20.77 6.67276 20.6849 6.53979C20.6111 6.42461 20.5256 6.31693 20.4293 6.21863C20.1892 5.97353 19.8784 5.81956 19.631 5.69705L19.5632 5.66337L16.9772 4.37024C16.8981 5.01038 16.6128 5.6299 16.1213 6.12134C16.1086 6.13409 16.0957 6.14671 16.0828 6.1592L17.7642 6.99997L14.5261 8.61905C13.9926 9.4497 13.0605 10 12 10C10.4687 10 9.20531 8.85267 9.02268 7.37072L8.00019 7.88197L6.23633 7.00005L7.91754 6.15951C7.9045 6.14693 7.89155 6.1342 7.87868 6.12134C7.38741 5.63007 7.10215 5.01081 7.02288 4.3709ZM6.60575 12.3028C6.85274 11.8088 7.45341 11.6086 7.94739 11.8556L8.94739 12.3556C9.44137 12.6026 9.6416 13.2032 9.39461 13.6972C9.14762 14.1912 8.54694 14.3914 8.05297 14.1444L7.05297 13.6444C6.55899 13.3974 6.35876 12.7968 6.60575 12.3028Z" fill="#0000CC"/>
<path d="M12.7071 1.29289C12.3166 0.902369 11.6834 0.902369 11.2929 1.29289L9.29289 3.29289C8.90237 3.68342 8.90237 4.31658 9.29289 4.70711C9.68342 5.09763 10.3166 5.09763 10.7071 4.70711L11 4.41421V7C11 7.55228 11.4477 8 12 8C12.5523 8 13 7.55228 13 7V4.41421L13.2929 4.70711C13.6834 5.09763 14.3166 5.09763 14.7071 4.70711C15.0976 4.31658 15.0976 3.68342 14.7071 3.29289L12.7071 1.29289Z" fill="#0000CC"/>
<path d="M6.60189 12.3028C6.84887 11.8088 7.44955 11.6086 7.94353 11.8556L8.94353 12.3556C9.4375 12.6026 9.63773 13.2032 9.39074 13.6972C9.14375 14.1912 8.54308 14.3914 8.0491 14.1444L7.0491 13.6444C6.55512 13.3974 6.3549 12.7968 6.60189 12.3028Z" fill="#0000CC"/>
</svg>
