<svg width="24" height="24" viewBox="0 0 24 24" fill="none" xmlns="http://www.w3.org/2000/svg">
<path opacity="0.3" fill-rule="evenodd" clip-rule="evenodd" d="M12.3699 2.15235C12.1262 2.10661 11.8761 2.10661 11.6323 2.15233C11.3509 2.20512 11.0959 2.33361 10.8933 2.43571L10.8384 2.46331L4.43773 5.66335L4.36994 5.69703C4.12257 5.81953 3.81167 5.97349 3.5716 6.21859C3.47532 6.31689 3.38973 6.42456 3.316 6.53975C3.23087 6.67272 3.16152 6.81573 3.10972 6.9659C2.99784 7.29024 2.99916 7.63717 3.00021 7.91321L3.0004 7.9889V16.0111L3.00021 16.0868C2.99916 16.3628 2.99784 16.7098 3.10972 17.0341C3.20639 17.3144 3.36416 17.5696 3.5716 17.7814C3.81167 18.0265 4.12257 18.1805 4.36994 18.303L4.43773 18.3367L10.8384 21.5367L10.8933 21.5643C11.0959 21.6664 11.3509 21.7949 11.6323 21.8477C11.7538 21.8705 11.8768 21.8819 11.9998 21.882C12.1237 21.8821 12.2476 21.8706 12.3699 21.8477C12.6514 21.7948 12.9064 21.6663 13.109 21.5642L13.1639 21.5366L14.3122 20.9624C13.8788 20.5691 13.5328 20.0818 13.3045 19.5307C13.0898 19.0124 13.0364 18.5436 13.0165 18.2514C12.9997 18.0056 12.9999 17.735 13 17.5439V17.4561C12.9999 17.265 12.9997 16.9944 13.0165 16.7486C13.0364 16.4564 13.0898 15.9876 13.3045 15.4693C13.4844 15.0351 13.7374 14.6404 14.0486 14.3001C14.389 11.8701 16.4761 10 19 10C19.7113 10 20.3878 10.1485 21.0004 10.4162V7.98882L21.0006 7.91314C21.0016 7.63712 21.003 7.29022 20.8911 6.9659C20.8393 6.81573 20.77 6.67274 20.6849 6.53977C20.6111 6.42459 20.5256 6.31692 20.4293 6.21862C20.1892 5.97352 19.8784 5.81954 19.631 5.69703L19.5632 5.66335L13.1639 2.46339L13.109 2.43579C12.9064 2.33368 12.6514 2.20517 12.3699 2.15235ZM11.9966 4.12392C11.9439 4.14688 11.8728 4.18202 11.7325 4.25218L6.23633 7.00003L8.00019 7.88196L13.7644 4.99987L12.2692 4.2522C12.1288 4.18203 12.0578 4.14688 12.005 4.12392L12.0008 4.1221L11.9966 4.12392ZM16.0003 6.11795L10.2363 8.99999L12.0002 9.88196L17.7642 6.99996L16.0003 6.11795ZM7.94739 11.8556C7.45341 11.6086 6.85274 11.8088 6.60575 12.3028C6.35876 12.7968 6.55899 13.3974 7.05297 13.6444L8.05297 14.1444C8.54694 14.3914 9.14762 14.1912 9.39461 13.6972C9.6416 13.2032 9.44137 12.6026 8.94739 12.3556L7.94739 11.8556Z" fill="#0000CC"/>
<path d="M8 7.88197L13.7642 4.99988L16.0001 6.11796L10.2361 9L8 7.88197Z" fill="#0000CC"/>
<path d="M7.94743 11.8556C7.45345 11.6086 6.85278 11.8088 6.60579 12.3028C6.3588 12.7968 6.55903 13.3974 7.05301 13.6444L8.05301 14.1444C8.54698 14.3914 9.14766 14.1912 9.39465 13.6972C9.64164 13.2032 9.44141 12.6026 8.94743 12.3556L7.94743 11.8556Z" fill="#0000CC"/>
<path fill-rule="evenodd" clip-rule="evenodd" d="M19 12C17.3431 12 16 13.3431 16 15V15.2679C15.6208 15.4869 15.3216 15.8257 15.1522 16.2346C15.0553 16.4687 15.0248 16.6944 15.0118 16.8848C15 17.0588 15 17.2635 15 17.4735V17.5265C15 17.7365 15 17.9412 15.0118 18.1152C15.0248 18.3056 15.0553 18.5313 15.1522 18.7654C15.3552 19.2554 15.7446 19.6448 16.2346 19.8478C16.4687 19.9447 16.6944 19.9752 16.8848 19.9882C17.0589 20 17.2635 20 17.4735 20H20.5265C20.7365 20 20.9411 20 21.1152 19.9882C21.3056 19.9752 21.5313 19.9447 21.7654 19.8478C22.2554 19.6448 22.6448 19.2554 22.8478 18.7654C22.9447 18.5313 22.9752 18.3056 22.9882 18.1152C23 17.9411 23 17.7365 23 17.5265V17.4735C23 17.2635 23 17.0589 22.9882 16.8848C22.9752 16.6944 22.9447 16.4687 22.8478 16.2346C22.6784 15.8257 22.3792 15.4869 22 15.2679V15C22 13.3431 20.6569 12 19 12ZM19 14C19.5523 14 20 14.4477 20 15H18C18 14.4477 18.4477 14 19 14ZM20.9791 17.0072L20.9919 17.0081L20.9928 17.0209C20.9995 17.1184 21 17.2533 21 17.5C21 17.7467 20.9995 17.8816 20.9928 17.9791L20.9919 17.9919L20.9791 17.9928C20.8816 17.9995 20.7467 18 20.5 18H17.5C17.2534 18 17.1184 17.9995 17.0209 17.9928L17.0081 17.9919L17.0072 17.9791C17.0005 17.8816 17 17.7467 17 17.5C17 17.2533 17.0005 17.1184 17.0072 17.0209L17.0081 17.0081L17.0209 17.0072C17.1184 17.0005 17.2534 17 17.5 17H20.5C20.7467 17 20.8816 17.0005 20.9791 17.0072Z" fill="#0000CC"/>
</svg>
