<svg width="24" height="24" viewBox="0 0 24 24" fill="none" xmlns="http://www.w3.org/2000/svg">
<path opacity="0.3" d="M21 12C21.5523 12 22 12.4477 22 13V16C22 16.5523 21.5523 17 21 17C19.8954 17 19 17.8954 19 19V20C19 21.1046 18.1046 22 17 22H16C14.8954 22 14 21.1046 14 20V19C14 17.8954 13.1046 17 12 17C10.8954 17 10 17.8954 10 19V20C10 21.1046 9.10457 22 8 22H7C5.89543 22 5 21.1046 5 20V19C5 17.8954 4.10457 17 3 17C2.44772 17 2 16.5523 2 16V13C2 12.4477 2.44772 12 3 12H21Z" fill="#0000CC"/>
<path d="M17.4601 2.15819C17.4033 2.19457 17.3499 2.23683 17.3011 2.28456C17.2285 2.35529 17.1686 2.43516 17.1218 2.52095C16.2603 4.02276 15.3325 4.86422 14.5013 5.34227C13.5615 5.88269 12.6723 6.00009 11.9998 6.00009C11.3273 6.00009 10.4381 5.88266 9.49831 5.3422C8.66933 4.86547 7.74439 4.02736 6.88496 2.5335C6.81809 2.40648 6.72268 2.29192 6.60021 2.20006C6.41991 2.06484 6.20882 1.99971 5.99957 2C5.91447 2.00003 5.82835 2.01096 5.74311 2.0336C5.51148 2.09511 5.31705 2.23492 5.1852 2.42003C4.48754 3.34695 3.79187 4.04174 3.27334 4.50265C3.00871 4.73788 2.73522 4.96542 2.44482 5.16847C1.98559 5.4749 1.86188 6.09535 2.16816 6.55476C2.47451 7.01429 3.09538 7.13847 3.55491 6.83211C3.66076 6.76139 3.76283 6.68513 3.86406 6.60799C4.04628 6.46916 4.3003 6.26571 4.60207 5.99747C4.72685 5.88656 4.86 5.76438 4.99978 5.63093V12H6.99978V5.94287C7.32856 6.25765 7.66306 6.52827 7.99978 6.75997V12H9.99978V7.71843C10.3492 7.82109 10.6846 7.88918 10.9998 7.93268V12H12.9998V7.9327C13.3149 7.8892 13.6504 7.82112 13.9998 7.71847V12H15.9998V6.76005C16.3365 6.52835 16.671 6.25773 16.9998 5.94295V12H18.9998V5.63047C19.1397 5.7641 19.273 5.88643 19.398 5.99747C19.6997 6.26571 19.9538 6.46916 20.136 6.60799C20.2372 6.68513 20.3393 6.76139 20.4451 6.83211C20.9047 7.13847 21.5255 7.01429 21.8319 6.55476C22.1382 6.09535 22.0145 5.4749 21.5552 5.16847C21.2648 4.96542 20.9913 4.73788 20.7267 4.50265C20.2045 4.03844 19.5025 3.33698 18.7998 2.40006C18.6039 2.13876 18.3046 2.00068 18.0013 2.00001C17.8147 1.99959 17.6265 2.05122 17.4601 2.15819Z" fill="#0000CC"/>
</svg>
