<svg width="24" height="24" viewBox="0 0 24 24" fill="none" xmlns="http://www.w3.org/2000/svg">
<path opacity="0.3" fill-rule="evenodd" clip-rule="evenodd" d="M4.56811 2C4.31573 1.99997 4.06993 1.99994 3.86178 2.01695C3.63318 2.03563 3.36345 2.07969 3.09202 2.21799C2.7157 2.40974 2.40974 2.7157 2.21799 3.09202C2.07969 3.36345 2.03563 3.63318 2.01695 3.86178C1.99994 4.06993 1.99997 4.31572 2 4.56809L2.00001 21C2.00001 21.5523 2.44772 22 3.00001 22H6.17072C6.06017 21.6872 6.00001 21.3506 6.00001 21L6.00001 18.1092C5.99994 17.6244 5.99987 17.0993 6.03722 16.6421C6.07968 16.1224 6.18477 15.437 6.54498 14.73C6.75108 14.3256 7.00997 13.9536 7.3129 13.6228L7.56885 12.8226C7.40736 12.9344 7.21134 13 7 13H6C5.44772 13 5 12.5523 5 12C5 11.4477 5.44772 11 6 11H7C7.4696 11 7.8636 11.3237 7.97105 11.7601C8.45333 10.7967 9.22833 10.0278 10.1639 9.54876C10.0603 9.39122 10 9.20265 10 9C10 8.44772 10.4477 8 11 8H12C12.5523 8 13 8.44772 13 9H16L16 4.56812C16 4.31574 16.0001 4.06994 15.9831 3.86178C15.9644 3.63318 15.9203 3.36345 15.782 3.09202C15.5903 2.7157 15.2843 2.40974 14.908 2.21799C14.6366 2.07969 14.3668 2.03563 14.1382 2.01695C13.9301 1.99994 13.6843 1.99997 13.4319 2L4.56811 2ZM5 6C5 5.44772 5.44772 5 6 5H7C7.55228 5 8 5.44772 8 6C8 6.55228 7.55228 7 7 7H6C5.44772 7 5 6.55228 5 6ZM10 6C10 5.44772 10.4477 5 11 5H12C12.5523 5 13 5.44772 13 6C13 6.55228 12.5523 7 12 7H11C10.4477 7 10 6.55228 10 6ZM5 9C5 8.44772 5.44772 8 6 8H7C7.55228 8 8 8.44772 8 9C8 9.55228 7.55228 10 7 10H6C5.44772 10 5 9.55228 5 9Z" fill="#0000CC"/>
<path d="M5 6C5 5.44772 5.44772 5 6 5H7C7.55228 5 8 5.44772 8 6C8 6.55228 7.55228 7 7 7H6C5.44772 7 5 6.55228 5 6Z" fill="#0000CC"/>
<path d="M10 6C10 5.44772 10.4477 5 11 5H12C12.5523 5 13 5.44772 13 6C13 6.55228 12.5523 7 12 7H11C10.4477 7 10 6.55228 10 6Z" fill="#0000CC"/>
<path d="M5 9C5 8.44772 5.44772 8 6 8H7C7.55228 8 8 8.44772 8 9C8 9.55228 7.55228 10 7 10H6C5.44772 10 5 9.55228 5 9Z" fill="#0000CC"/>
<path d="M5 12C5 11.4477 5.44772 11 6 11H7C7.4696 11 7.8636 11.3237 7.97105 11.7601C7.86562 11.9707 7.77418 12.1907 7.69811 12.4189L7.69425 12.4304L7.56885 12.8226C7.40736 12.9344 7.21134 13 7 13H6C5.44772 13 5 12.5523 5 12Z" fill="#0000CC"/>
<path d="M13 9C13 8.44772 12.5523 8 12 8H11C10.4477 8 10 8.44772 10 9C10 9.20265 10.0603 9.39122 10.1639 9.54876C10.8535 9.19564 11.6304 9 12.4415 9H13Z" fill="#0000CC"/>
<path fill-rule="evenodd" clip-rule="evenodd" d="M13.1614 10.9999H16.8386C17.5221 10.9988 18.122 10.9979 18.6565 11.2082C19.1239 11.392 19.5376 11.6902 19.8598 12.0755C20.2283 12.5161 20.4171 13.0855 20.6323 13.7342L20.9487 14.6838C20.954 14.6997 20.9589 14.7157 20.9634 14.7317C21.2545 14.9837 21.4962 15.2909 21.673 15.638C21.8658 16.0164 21.9371 16.4096 21.9694 16.805C22 17.1795 22 17.6343 22 18.1614V21C22 21.5523 21.5523 22 21 22C20.4477 22 20 21.5523 20 21H10C10 21.5523 9.55229 22 9 22C8.44772 22 8 21.5523 8 21V18.1615C7.99998 17.6343 7.99997 17.1795 8.03057 16.805C8.06287 16.4096 8.13419 16.0164 8.32698 15.638C8.50385 15.2909 8.7455 14.9837 9.03665 14.7317C9.04112 14.7157 9.04601 14.6997 9.05132 14.6838L9.3677 13.7342C9.58286 13.0855 9.77171 12.5161 10.1402 12.0755C10.4624 11.6902 10.8761 11.392 11.3435 11.2082C11.878 10.9979 12.4779 10.9988 13.1614 10.9999ZM11.3891 14.0045C11.6256 14 11.8835 14 12.1615 14H17.8385C18.1165 14 18.3744 14 18.6109 14.0045C18.4562 13.5616 18.3963 13.4431 18.3256 13.3585C18.2182 13.2301 18.0803 13.1307 17.9245 13.0694C17.7908 13.0168 17.6083 13 16.6936 13H13.3064C12.3917 13 12.2092 13.0168 12.0755 13.0694C11.9197 13.1307 11.7818 13.2301 11.6744 13.3585C11.6037 13.4431 11.5438 13.5616 11.3891 14.0045ZM13 17.5C13 18.0523 12.5523 18.5 12 18.5C11.4477 18.5 11 18.0523 11 17.5C11 16.9477 11.4477 16.5 12 16.5C12.5523 16.5 13 16.9477 13 17.5ZM18 18.5C18.5523 18.5 19 18.0523 19 17.5C19 16.9477 18.5523 16.5 18 16.5C17.4477 16.5 17 16.9477 17 17.5C17 18.0523 17.4477 18.5 18 18.5Z" fill="#0000CC"/>
</svg>
