<svg width="24" height="24" viewBox="0 0 24 24" fill="none" xmlns="http://www.w3.org/2000/svg">
<path opacity="0.3" fill-rule="evenodd" clip-rule="evenodd" d="M4.56811 2C4.31573 1.99997 4.06993 1.99994 3.86178 2.01695C3.63318 2.03563 3.36345 2.07969 3.09202 2.21799C2.7157 2.40974 2.40974 2.7157 2.21799 3.09202C2.07969 3.36345 2.03563 3.63318 2.01695 3.86178C1.99994 4.06993 1.99997 4.31572 2 4.56809L2.00001 21C2.00001 21.5523 2.44772 22 3.00001 22H13.5596L12.9191 21.3832C11.7256 20.2339 11.6898 18.3348 12.839 17.1413C13.681 16.267 14.9254 16.0139 16 16.393L16 4.56812C16 4.31574 16.0001 4.06994 15.9831 3.86178C15.9644 3.63318 15.9203 3.36345 15.782 3.09202C15.5903 2.7157 15.2843 2.40974 14.908 2.21799C14.6366 2.07969 14.3668 2.03563 14.1382 2.01695C13.9301 1.99994 13.6843 1.99997 13.4319 2L4.56811 2Z" fill="#0000CC"/>
<path d="M5 6C5 5.44772 5.44772 5 6 5H7C7.55228 5 8 5.44772 8 6C8 6.55228 7.55228 7 7 7H6C5.44772 7 5 6.55228 5 6Z" fill="#0000CC"/>
<path d="M10 6C10 5.44772 10.4477 5 11 5H12C12.5523 5 13 5.44772 13 6C13 6.55228 12.5523 7 12 7H11C10.4477 7 10 6.55228 10 6Z" fill="#0000CC"/>
<path d="M6 8C5.44772 8 5 8.44772 5 9C5 9.55228 5.44772 10 6 10H7C7.55228 10 8 9.55228 8 9C8 8.44772 7.55228 8 7 8H6Z" fill="#0000CC"/>
<path d="M10 9C10 8.44772 10.4477 8 11 8H12C12.5523 8 13 8.44772 13 9C13 9.55228 12.5523 10 12 10H11C10.4477 10 10 9.55228 10 9Z" fill="#0000CC"/>
<path d="M6 11C5.44772 11 5 11.4477 5 12C5 12.5523 5.44772 13 6 13H7C7.55228 13 8 12.5523 8 12C8 11.4477 7.55228 11 7 11H6Z" fill="#0000CC"/>
<path d="M10 12C10 11.4477 10.4477 11 11 11H12C12.5523 11 13 11.4477 13 12C13 12.5523 12.5523 13 12 13H11C10.4477 13 10 12.5523 10 12Z" fill="#0000CC"/>
<path d="M7 17C7 15.8954 7.89543 15 9 15C10.1046 15 11 15.8954 11 17V20H7V17Z" fill="#0000CC"/>
<path d="M21.6936 17.7203C22.0915 17.3372 22.1034 16.7042 21.7203 16.3064C21.3372 15.9085 20.7042 15.8966 20.3064 16.2797L16.8462 19.6117L15.6936 18.5019C15.2958 18.1188 14.6628 18.1308 14.2797 18.5286C13.8966 18.9264 13.9085 19.5595 14.3064 19.9425L16.1525 21.7203C16.5398 22.0932 17.1525 22.0932 17.5398 21.7203L21.6936 17.7203Z" fill="#0000CC"/>
</svg>
