<svg width="24" height="24" viewBox="0 0 24 24" fill="none" xmlns="http://www.w3.org/2000/svg">
<g opacity="0.3">
<path d="M3 2C2.44772 2 2 2.44772 2 3C2 3.55228 2.44772 4 3 4H21C21.5523 4 22 3.55228 22 3C22 2.44772 21.5523 2 21 2H3Z" fill="#0000CC"/>
<path d="M3 14V15.6C3 17.8402 3 18.9603 3.43597 19.816C3.81947 20.5686 4.43139 21.1805 5.18404 21.564C6.03969 22 7.15979 22 9.4 22H10V18C10 16.8954 10.8954 16 12 16C13.1046 16 14 16.8954 14 18V22H14.6C16.8402 22 17.9603 22 18.816 21.564C19.5686 21.1805 20.1805 20.5686 20.564 19.816C21 18.9603 21 17.8402 21 15.6V14H3Z" fill="#0000CC"/>
</g>
<path d="M3.70711 6.29292C3.42111 6.00692 2.99099 5.92137 2.61732 6.07615C2.24364 6.23093 2 6.59557 2 7.00003V11C2 11.5523 2.44772 12 3 12C3.55228 12 4 11.5523 4 11V9.41424L6.29289 11.7071C6.57889 11.9931 7.00901 12.0787 7.38268 11.9239C7.75636 11.7691 8 11.4045 8 11V7.00003C8 6.44774 7.55228 6.00003 7 6.00003C6.44772 6.00003 6 6.44774 6 7.00003V8.58582L3.70711 6.29292Z" fill="#0000CC"/>
<path d="M10.5 6.00003C9.94772 6.00003 9.5 6.44774 9.5 7.00003V11C9.5 11.5523 9.94772 12 10.5 12H14.5C15.0523 12 15.5 11.5523 15.5 11V10C15.5 9.44774 15.0523 9.00003 14.5 9.00003C13.9477 9.00003 13.5 9.44774 13.5 10H11.5V8.00003H14.5C15.0523 8.00003 15.5 7.55231 15.5 7.00003C15.5 6.44774 15.0523 6.00003 14.5 6.00003H10.5Z" fill="#0000CC"/>
<path fill-rule="evenodd" clip-rule="evenodd" d="M18 12C17.4477 12 17 11.5523 17 11V7.00003C17 6.44774 17.4477 6.00003 18 6.00003H21C21.5523 6.00003 22 6.44774 22 7.00003V11C22 11.5523 21.5523 12 21 12H18ZM20 8.00003H19V10H20V8.00003Z" fill="#0000CC"/>
</svg>
