<svg width="24" height="24" viewBox="0 0 24 24" fill="none" xmlns="http://www.w3.org/2000/svg">
<g opacity="0.3">
<path d="M4 13C3.44772 13 3 13.4477 3 14C3 14.5523 3.44772 15 4 15H10C10.5523 15 11 14.5523 11 14C11 13.4477 10.5523 13 10 13H4Z" fill="#0000CC"/>
<path d="M14 13C13.4477 13 13 13.4477 13 14C13 14.5523 13.4477 15 14 15H20C20.5523 15 21 14.5523 21 14C21 13.4477 20.5523 13 20 13H14Z" fill="#0000CC"/>
<path d="M4 16.5C3.44772 16.5 3 16.9477 3 17.5C3 18.0523 3.44772 18.5 4 18.5H10C10.5523 18.5 11 18.0523 11 17.5C11 16.9477 10.5523 16.5 10 16.5H4Z" fill="#0000CC"/>
<path d="M14 16.5C13.4477 16.5 13 16.9477 13 17.5C13 18.0523 13.4477 18.5 14 18.5H20C20.5523 18.5 21 18.0523 21 17.5C21 16.9477 20.5523 16.5 20 16.5H14Z" fill="#0000CC"/>
<path d="M4 20C3.44772 20 3 20.4477 3 21C3 21.5523 3.44772 22 4 22H10C10.5523 22 11 21.5523 11 21C11 20.4477 10.5523 20 10 20H4Z" fill="#0000CC"/>
<path d="M14 20C13.4477 20 13 20.4477 13 21C13 21.5523 13.4477 22 14 22H20C20.5523 22 21 21.5523 21 21C21 20.4477 20.5523 20 20 20H14Z" fill="#0000CC"/>
</g>
<path fill-rule="evenodd" clip-rule="evenodd" d="M12.614 2.21065C12.2529 1.92978 11.7472 1.92978 11.3861 2.21065L2.38612 9.21065C2.0489 9.47293 1.91554 9.92046 2.05419 10.3245C2.19283 10.7286 2.57286 11 3.00006 11H21.0001C21.4273 11 21.8073 10.7286 21.9459 10.3245C22.0846 9.92046 21.9512 9.47293 21.614 9.21065L21.0001 8.73314V5C21.0001 4.44772 20.5523 4 20.0001 4C19.4478 4 19.0001 4.44772 19.0001 5V7.17758L12.614 2.21065ZM12 8C12.5523 8 13 7.55228 13 7C13 6.44772 12.5523 6 12 6C11.4477 6 11 6.44772 11 7C11 7.55228 11.4477 8 12 8Z" fill="#0000CC"/>
</svg>
