<svg width="24" height="24" viewBox="0 0 24 24" fill="none" xmlns="http://www.w3.org/2000/svg">
<path opacity="0.3" fill-rule="evenodd" clip-rule="evenodd" d="M7.56811 2C7.31573 1.99997 7.06993 1.99994 6.86178 2.01695C6.63318 2.03563 6.36345 2.07969 6.09202 2.21799C5.7157 2.40974 5.40974 2.7157 5.21799 3.09202C5.07969 3.36345 5.03563 3.63318 5.01695 3.86178C4.99994 4.06993 4.99997 4.31572 5 4.56809L5.00001 21C5.00001 21.5523 5.44772 22 6.00001 22H18C18.5523 22 19 21.5523 19 21L19 4.56812C19 4.31574 19.0001 4.06994 18.9831 3.86178C18.9644 3.63318 18.9203 3.36345 18.782 3.09202C18.5903 2.7157 18.2843 2.40974 17.908 2.21799C17.6366 2.07969 17.3668 2.03563 17.1382 2.01695C16.9301 1.99994 16.6843 1.99997 16.4319 2L7.56811 2Z" fill="#0000CC"/>
<path fill-rule="evenodd" clip-rule="evenodd" d="M8 6C8 5.44772 8.44772 5 9 5H10C10.5523 5 11 5.44772 11 6C11 6.55228 10.5523 7 10 7H9C8.44772 7 8 6.55228 8 6ZM13 6C13 5.44772 13.4477 5 14 5H15C15.5523 5 16 5.44772 16 6C16 6.55228 15.5523 7 15 7H14C13.4477 7 13 6.55228 13 6ZM8 9C8 8.44772 8.44772 8 9 8H10C10.5523 8 11 8.44772 11 9C11 9.55228 10.5523 10 10 10H9C8.44772 10 8 9.55228 8 9ZM13 9C13 8.44772 13.4477 8 14 8H15C15.5523 8 16 8.44772 16 9C16 9.55228 15.5523 10 15 10H14C13.4477 10 13 9.55228 13 9ZM8 12C8 11.4477 8.44772 11 9 11H10C10.5523 11 11 11.4477 11 12C11 12.5523 10.5523 13 10 13H9C8.44772 13 8 12.5523 8 12ZM13 12C13 11.4477 13.4477 11 14 11H15C15.5523 11 16 11.4477 16 12C16 12.5523 15.5523 13 15 13H14C13.4477 13 13 12.5523 13 12ZM12 15C10.8954 15 10 15.8954 10 17V20H14V17C14 15.8954 13.1046 15 12 15Z" fill="#0000CC"/>
</svg>
