<svg width="24" height="24" viewBox="0 0 24 24" fill="none" xmlns="http://www.w3.org/2000/svg">
<path opacity="0.3" fill-rule="evenodd" clip-rule="evenodd" d="M4.38467 2C4.15032 1.99997 3.92208 1.99994 3.72879 2.01695C3.51653 2.03563 3.26606 2.07969 3.01402 2.21799C2.66458 2.40974 2.38047 2.7157 2.20242 3.09202C2.074 3.36345 2.03308 3.63318 2.01574 3.86178C1.99995 4.06993 1.99997 4.31572 2 4.56809L2 21C2 21.5523 2.41574 22 2.92858 22H14.0714C14.5843 22 15 21.5523 15 21L15 4.56812C15 4.31574 15.0001 4.06994 14.9843 3.86178C14.9669 3.63318 14.926 3.36345 14.7976 3.09202C14.6195 2.7157 14.3354 2.40974 13.986 2.21799C13.7339 2.07969 13.4835 2.03563 13.2712 2.01695C13.0779 1.99994 12.8497 1.99997 12.6153 2L4.38467 2Z" fill="#0000CC"/>
<path d="M17 2C17.5523 2 18 2.44772 18 3V4H21C21.5523 4 22 4.44772 22 5V10C22 10.5523 21.5523 11 21 11H18V21C18 21.5523 17.5523 22 17 22C16.4477 22 16 21.5523 16 21V3C16 2.44772 16.4477 2 17 2Z" fill="#0000CC"/>
<path d="M5.7147 5C5.20187 5 4.78613 5.44772 4.78613 6C4.78613 6.55228 5.20187 7 5.7147 7H6.64327C7.15611 7 7.57185 6.55228 7.57185 6C7.57185 5.44772 7.15611 5 6.64327 5H5.7147Z" fill="#0000CC"/>
<path d="M10.3576 5C9.84472 5 9.42899 5.44772 9.42899 6C9.42899 6.55228 9.84472 7 10.3576 7H11.2861C11.799 7 12.2147 6.55228 12.2147 6C12.2147 5.44772 11.799 5 11.2861 5H10.3576Z" fill="#0000CC"/>
<path d="M5.7147 8C5.20187 8 4.78613 8.44772 4.78613 9C4.78613 9.55228 5.20187 10 5.7147 10H6.64327C7.15611 10 7.57185 9.55228 7.57185 9C7.57185 8.44772 7.15611 8 6.64327 8H5.7147Z" fill="#0000CC"/>
<path d="M10.3576 8C9.84472 8 9.42899 8.44772 9.42899 9C9.42899 9.55228 9.84472 10 10.3576 10H11.2861C11.799 10 12.2147 9.55228 12.2147 9C12.2147 8.44772 11.799 8 11.2861 8H10.3576Z" fill="#0000CC"/>
<path d="M5.7147 11C5.20187 11 4.78613 11.4477 4.78613 12C4.78613 12.5523 5.20187 13 5.7147 13H6.64327C7.15611 13 7.57185 12.5523 7.57185 12C7.57185 11.4477 7.15611 11 6.64327 11H5.7147Z" fill="#0000CC"/>
<path d="M10.3576 11C9.84472 11 9.42899 11.4477 9.42899 12C9.42899 12.5523 9.84472 13 10.3576 13H11.2861C11.799 13 12.2147 12.5523 12.2147 12C12.2147 11.4477 11.799 11 11.2861 11H10.3576Z" fill="#0000CC"/>
<path d="M6.64327 17C6.64327 15.8954 7.47475 15 8.50042 15C9.52609 15 10.3576 15.8954 10.3576 17V20H6.64327V17Z" fill="#0000CC"/>
</svg>
