<svg width="24" height="24" viewBox="0 0 24 24" fill="none" xmlns="http://www.w3.org/2000/svg">
<path opacity="0.3" fill-rule="evenodd" clip-rule="evenodd" d="M4.56811 2C4.31573 1.99997 4.06993 1.99994 3.86178 2.01695C3.63318 2.03563 3.36345 2.07969 3.09202 2.21799C2.7157 2.40974 2.40974 2.7157 2.21799 3.09202C2.07969 3.36345 2.03563 3.63318 2.01695 3.86178C1.99994 4.06993 1.99997 4.31572 2 4.56809L2.00001 21C2.00001 21.5523 2.44772 22 3.00001 22H11.8742C11.6347 21.518 11.5 20.9747 11.5 20.4C11.5 18.5281 12.4525 16.8787 13.8992 15.9099C13.4566 15.2132 13.2002 14.3865 13.2002 13.5C13.2002 11.6163 14.3576 10.003 16 9.33226L16 4.56812C16 4.31574 16.0001 4.06994 15.9831 3.86178C15.9644 3.63318 15.9203 3.36345 15.782 3.09202C15.5903 2.7157 15.2843 2.40974 14.908 2.21799C14.6366 2.07969 14.3668 2.03563 14.1382 2.01695C13.9301 1.99994 13.6843 1.99997 13.4319 2L4.56811 2Z" fill="#0000CC"/>
<path d="M6 5C5.44772 5 5 5.44772 5 6C5 6.55228 5.44772 7 6 7H7C7.55228 7 8 6.55228 8 6C8 5.44772 7.55228 5 7 5H6Z" fill="#0000CC"/>
<path d="M11 5C10.4477 5 10 5.44772 10 6C10 6.55228 10.4477 7 11 7H12C12.5523 7 13 6.55228 13 6C13 5.44772 12.5523 5 12 5H11Z" fill="#0000CC"/>
<path d="M6 8C5.44772 8 5 8.44772 5 9C5 9.55228 5.44772 10 6 10H7C7.55228 10 8 9.55228 8 9C8 8.44772 7.55228 8 7 8H6Z" fill="#0000CC"/>
<path d="M11 8C10.4477 8 10 8.44772 10 9C10 9.55228 10.4477 10 11 10H12C12.5523 10 13 9.55228 13 9C13 8.44772 12.5523 8 12 8H11Z" fill="#0000CC"/>
<path d="M6 11C5.44772 11 5 11.4477 5 12C5 12.5523 5.44772 13 6 13H7C7.55228 13 8 12.5523 8 12C8 11.4477 7.55228 11 7 11H6Z" fill="#0000CC"/>
<path d="M11 11C10.4477 11 10 11.4477 10 12C10 12.5523 10.4477 13 11 13H12C12.5523 13 13 12.5523 13 12C13 11.4477 12.5523 11 12 11H11Z" fill="#0000CC"/>
<path d="M7 17C7 15.8954 7.89543 15 9 15C10.1046 15 11 15.8954 11 17V20H7V17Z" fill="#0000CC"/>
<path d="M17.7008 11C16.3201 11 15.2008 12.1193 15.2008 13.5C15.2008 14.8807 16.3201 16 17.7008 16C19.0816 16 20.2008 14.8807 20.2008 13.5C20.2008 12.1193 19.0816 11 17.7008 11Z" fill="#0000CC"/>
<path d="M16.6424 17C15.3511 17 14.2047 17.8263 13.7963 19.0513L13.594 19.6583C13.5429 19.8115 13.4856 19.9832 13.4498 20.1347C13.4106 20.3002 13.3644 20.5652 13.4397 20.8653C13.533 21.2369 13.7649 21.5586 14.0879 21.7647C14.3488 21.9311 14.6149 21.9709 14.7843 21.9862C14.9393 22.0001 15.1203 22.0001 15.2818 22H20.1198C20.2813 22.0001 20.4624 22.0001 20.6174 21.9862C20.7868 21.9709 21.0529 21.9311 21.3138 21.7647C21.6367 21.5587 21.8687 21.2369 21.962 20.8653C22.0373 20.5652 21.991 20.3002 21.9519 20.1346C21.9161 19.9832 21.8588 19.8114 21.8077 19.6583L21.6054 19.0513C21.197 17.8263 20.0506 17 18.7593 17H16.6424Z" fill="#0000CC"/>
</svg>
