<svg width="24" height="24" viewBox="0 0 24 24" fill="none" xmlns="http://www.w3.org/2000/svg">
<path opacity="0.3" fill-rule="evenodd" clip-rule="evenodd" d="M15.4338 4.099C15.1597 3.967 14.8403 3.967 14.5662 4.099L10.4123 6.099C10.1787 6.2115 9.99788 6.41036 9.90806 6.65363L8.0619 11.6536C8.02096 11.7645 8 11.8818 8 12V21C8 21.5523 8.44772 22 9 22H13V17C13 15.8954 13.8954 15 15 15C16.1046 15 17 15.8954 17 17V22H21C21.5523 22 22 21.5523 22 21V12C22 11.8818 21.979 11.7645 21.9381 11.6536L20.0919 6.65363C20.0021 6.41036 19.8213 6.2115 19.5877 6.099L15.4338 4.099Z" fill="#0000CC"/>
<path d="M2 6C2 3.79086 3.79086 2 6 2C7.58842 2 8.96059 2.92586 9.60628 4.26735L9.54471 4.297C8.84376 4.63449 8.30133 5.23107 8.03186 5.96088L7.64819 7H2V6Z" fill="#0000CC"/>
<path d="M6.90973 9H2V20.4C2 20.9601 2 21.2401 2.10899 21.454C2.20487 21.6422 2.35785 21.7951 2.54601 21.891C2.75992 22 3.03995 22 3.6 22H6.17071C6.06015 21.6872 6 21.3506 6 21V12C6 11.6454 6.06288 11.2936 6.18571 10.9609L6.90973 9Z" fill="#0000CC"/>
<path d="M14.5 8C13.9477 8 13.5 8.44772 13.5 9V10C13.5 10.5523 13.9477 11 14.5 11H15.5C16.0523 11 16.5 10.5523 16.5 10V9C16.5 8.44772 16.0523 8 15.5 8H14.5Z" fill="#0000CC"/>
</svg>
