<svg width="24" height="24" viewBox="0 0 24 24" fill="none" xmlns="http://www.w3.org/2000/svg">
<g opacity="0.3">
<path d="M16 21V15H8V21H16Z" fill="#0000CC"/>
<path d="M16 13H8V11H16V13Z" fill="#0000CC"/>
</g>
<path d="M12.4066 3.08619C12.148 2.97127 11.8529 2.97127 11.5943 3.08619L3.54448 6.66389L3.47174 6.69598C3.20723 6.81229 2.87496 6.9584 2.61682 7.20572C2.3939 7.4193 2.22345 7.68158 2.11881 7.97203C1.99765 8.30836 1.99909 8.67134 2.00023 8.96029L2.00044 9.0398L2.00044 18.4319C2.00041 18.6843 2.00038 18.9301 2.01739 19.1382C2.03606 19.3668 2.08013 19.6366 2.21843 19.908C2.41018 20.2843 2.71614 20.5903 3.09246 20.782C3.36388 20.9203 3.63362 20.9644 3.86221 20.9831C4.07033 21.0001 4.31607 21 4.56841 21H6V10C6 9.44772 6.44772 9 7 9H17C17.5523 9 18 9.44772 18 10V21H19.4324C19.6847 21 19.9305 21.0001 20.1387 20.9831C20.3673 20.9644 20.637 20.9203 20.9084 20.782C21.2847 20.5903 21.5907 20.2843 21.7825 19.908C21.9208 19.6366 21.9648 19.3668 21.9835 19.1382C22.0005 18.9301 22.0005 18.6844 22.0004 18.432L22.0004 9.0398L22.0007 8.96028C22.0018 8.67134 22.0032 8.30836 21.8821 7.97203C21.7774 7.68158 21.607 7.4193 21.3841 7.20572C21.1259 6.9584 20.7936 6.81229 20.5291 6.69598L20.4564 6.66389L12.4066 3.08619Z" fill="#0000CC"/>
</svg>
