<svg width="24" height="24" viewBox="0 0 24 24" fill="none" xmlns="http://www.w3.org/2000/svg">
<path opacity="0.3" fill-rule="evenodd" clip-rule="evenodd" d="M8 2H10V5C10 5.55228 10.4477 6 11 6C11.5523 6 12 5.55228 12 5V2H15C15.5523 2 16 2.44772 16 3V8C16 8.11888 15.9788 8.23651 15.9377 8.34745C14.5164 8.2233 13.0522 8.70509 11.9645 9.79284L7.87868 13.8786C6.70711 15.0502 6.70711 16.9497 7.87868 18.1213C8.20617 18.4488 8.59055 18.6847 9 18.8291V20.9999C9 21.3506 9.06016 21.6872 9.17073 22H5C4.44772 22 4 21.5523 4 21V12.3028L2.16795 9.5547C2.05844 9.39043 2 9.19742 2 9V3C2 2.44772 2.44772 2 3 2H6V5C6 5.55228 6.44772 6 7 6C7.55228 6 8 5.55228 8 5V2ZM7 8C6.44772 8 6 8.44772 6 9C6 9.55228 6.44772 10 7 10H11C11.5523 10 12 9.55228 12 9C12 8.44772 11.5523 8 11 8H7Z" fill="#0000CC"/>
<path d="M14.9183 10.438C15.2975 10.3227 15.7025 10.3227 16.0817 10.438C16.3529 10.5205 16.5648 10.6597 16.7346 10.7914C16.888 10.9104 17.056 11.0631 17.2268 11.2185L21.6727 15.2602C22.0813 15.6317 22.1115 16.2641 21.7399 16.6728C21.3684 17.0814 20.736 17.1115 20.3273 16.74L20 16.4425V19.432C20 19.6844 20.0001 19.9302 19.9831 20.1383C19.9644 20.3669 19.9203 20.6367 19.782 20.9081C19.5903 21.2844 19.2843 21.5904 18.908 21.7821C18.6366 21.9204 18.3668 21.9645 18.1382 21.9832C17.9301 22.0002 17.6843 22.0001 17.4319 22.0001H13.5681C13.3157 22.0001 13.0699 22.0002 12.8618 21.9832C12.6332 21.9645 12.3634 21.9204 12.092 21.7821C11.7157 21.5904 11.4097 21.2844 11.218 20.9081C11.0797 20.6367 11.0356 20.3669 11.017 20.1383C10.9999 19.9302 11 19.6844 11 19.432L11 16.4425L10.6727 16.74C10.264 17.1115 9.63157 17.0814 9.26007 16.6728C8.88856 16.2641 8.91868 15.6317 9.32733 15.2602L13.7732 11.2185C13.944 11.0631 14.112 10.9104 14.2654 10.7914C14.4352 10.6597 14.6471 10.5205 14.9183 10.438Z" fill="#0000CC"/>
</svg>
