<svg width="24" height="24" viewBox="0 0 24 24" fill="none" xmlns="http://www.w3.org/2000/svg">
<path opacity="0.3" fill-rule="evenodd" clip-rule="evenodd" d="M13.3068 2.24116C12.451 2.00946 11.5491 2.00946 10.6933 2.24116C9.72004 2.50468 8.86605 3.16957 7.62707 4.1342L4.75051 6.37158C3.94617 6.99674 3.38974 7.42921 2.98013 7.98303C2.61847 8.472 2.34906 9.02285 2.18513 9.60852C1.99945 10.2719 1.99969 10.9766 2.00003 11.9953L2.00006 14.6427C2.00005 15.7265 2.00004 16.6007 2.05788 17.3086C2.11743 18.0374 2.24324 18.6776 2.54503 19.2699C3.02439 20.2107 3.7893 20.9756 4.73011 21.455C5.3224 21.7568 5.96259 21.8826 6.69143 21.9421C7.39929 22 8.2734 21.9999 9.35712 21.9999H14.6429C15.7266 21.9999 16.6008 22 17.3087 21.9421C18.0375 21.8826 18.6777 21.7568 19.27 21.455C20.2108 20.9756 20.9757 20.2107 21.4551 19.2699C21.7569 18.6776 21.8827 18.0374 21.9422 17.3086C22.0001 16.6007 22.0001 15.7266 22.0001 14.6429L22.0001 11.9953C22.0004 10.9766 22.0007 10.2719 21.815 9.60852C21.6511 9.02285 21.3816 8.472 21.02 7.98303C20.6104 7.42922 20.054 6.99674 19.2496 6.37159L16.3731 4.13421C15.1341 3.16958 14.2801 2.50468 13.3068 2.24116Z" fill="#0000CC"/>
<path fill-rule="evenodd" clip-rule="evenodd" d="M7.37534 14.2192C7.80552 13.875 8.43274 13.9437 8.7783 14.3721C9.03675 14.6827 9.35382 14.9524 9.68127 15.1863C10.2824 15.6157 11.0812 16 12 16C12.9189 16 13.7177 15.6157 14.3188 15.1863C14.6462 14.9524 14.9633 14.6828 15.2218 14.3721C15.5673 13.9437 16.1945 13.875 16.6247 14.2192C17.0473 14.5572 17.1177 15.2058 16.7788 15.6273C16.6674 15.7653 16.545 15.8943 16.4196 16.0196C16.2018 16.2375 15.885 16.5254 15.4813 16.8138C14.6824 17.3844 13.4812 18 12 18C10.5189 18 9.31765 17.3844 8.5188 16.8138C8.11507 16.5254 7.79828 16.2375 7.58043 16.0196C7.4542 15.8934 7.33264 15.7626 7.21917 15.6247C6.87416 15.1935 6.94408 14.5642 7.37534 14.2192Z" fill="#0000CC"/>
</svg>
