<svg width="24" height="24" viewBox="0 0 24 24" fill="none" xmlns="http://www.w3.org/2000/svg">
<path opacity="0.3" d="M4 16.2414V12.3838L9.17449 6.63324C9.80383 5.93387 10.2344 5.45662 10.596 5.11753C10.95 4.78557 11.1665 4.65652 11.341 4.59573C11.767 4.44729 12.2307 4.44726 12.6568 4.59563C12.8312 4.6564 13.0477 4.78542 13.4018 5.11732C13.7634 5.45636 14.1941 5.93355 14.8235 6.63283L20 12.3839V16.2414C20 17.0464 20 17.7107 19.9558 18.2519C19.9099 18.814 19.8113 19.3307 19.564 19.816C19.1805 20.5687 18.5686 21.1806 17.816 21.5641C17.3306 21.8114 16.8139 21.91 16.2518 21.9559C15.7106 22.0001 15.0463 22.0001 14.2413 22.0001H14V17.6C14 17.0399 14 16.7599 13.891 16.546C13.7951 16.3578 13.6422 16.2049 13.454 16.109C13.2401 16 12.9601 16 12.4 16H11.6C11.0399 16 10.7599 16 10.546 16.109C10.3578 16.2049 10.2049 16.3578 10.109 16.546C10 16.7599 10 17.0399 10 17.6V22.0001H9.75868C8.95372 22.0001 8.28937 22.0001 7.74818 21.9559C7.18608 21.91 6.66938 21.8114 6.18404 21.5641C5.43139 21.1806 4.81947 20.5687 4.43598 19.816C4.18868 19.3307 4.09012 18.814 4.0442 18.2519C3.99998 17.7107 3.99999 17.0463 4 16.2414Z" fill="#0000CC"/>
<path d="M10.6829 2.70708C11.535 2.41021 12.4624 2.41014 13.3145 2.70689C13.8677 2.89952 14.3239 3.24039 14.7696 3.65822C15.2006 4.06229 15.6878 4.60354 16.2808 5.2623L18 7.17226V5C18 4.44772 18.4477 4 19 4C19.5523 4 20 4.44772 20 5V9.39415L21.7433 11.3308C22.1127 11.7413 22.0795 12.3736 21.669 12.7431C21.2585 13.1126 20.6263 13.0793 20.2568 12.6689L14.8235 6.63283C14.1941 5.93355 13.7634 5.45636 13.4018 5.11732C13.0477 4.78542 12.8313 4.6564 12.6568 4.59563C12.2307 4.44726 11.767 4.44729 11.341 4.59573C11.1665 4.65652 10.95 4.78557 10.596 5.11753C10.2344 5.45662 9.80384 5.93387 9.1745 6.63324L3.74335 12.6687C3.37392 13.0793 2.74164 13.1126 2.3311 12.7432C1.92056 12.3737 1.88724 11.7415 2.25667 11.3309L7.71707 5.26291C8.30993 4.60406 8.79701 4.06276 9.22797 3.65863C9.67361 3.24074 10.1298 2.8998 10.6829 2.70708Z" fill="#0000CC"/>
</svg>
