<svg width="24" height="24" viewBox="0 0 24 24" fill="none" xmlns="http://www.w3.org/2000/svg">
<path opacity="0.3" fill-rule="evenodd" clip-rule="evenodd" d="M13.3145 2.74253C12.4624 2.44578 11.535 2.44585 10.6829 2.74273C10.1298 2.93544 9.67361 3.27638 9.22797 3.69428C8.79701 4.09841 8.30993 4.6397 7.71707 5.29855L2.25667 11.3666C1.88724 11.7771 1.92056 12.4094 2.3311 12.7788C2.74164 13.1482 3.37392 13.1149 3.74335 12.7044L4.00001 12.4192L4.00001 15.7494C4.32311 15.6838 4.65753 15.6494 4.99999 15.6494C6.36272 15.6494 7.59812 16.1946 8.5 17.0787C9.40187 16.1946 10.6373 15.6494 12 15.6494C13.3627 15.6494 14.5981 16.1946 15.5 17.0787C16.4019 16.1946 17.6373 15.6494 19 15.6494C19.3425 15.6494 19.6769 15.6838 20 15.7494V12.4193L20.2568 12.7045C20.6263 13.115 21.2585 13.1482 21.669 12.7787C22.0795 12.4092 22.1127 11.7769 21.7433 11.3665L16.2808 5.29792C15.6878 4.63917 15.2006 4.09793 14.7696 3.69387C14.3239 3.27604 13.8677 2.93517 13.3145 2.74253Z" fill="#0000CC"/>
<path d="M10 10.6C10 10.0399 10 9.75992 10.109 9.54601C10.2049 9.35785 10.3578 9.20487 10.546 9.10899C10.7599 9 11.0399 9 11.6 9H12.4C12.9601 9 13.2401 9 13.454 9.10899C13.6422 9.20487 13.7951 9.35785 13.891 9.54601C14 9.75992 14 10.0399 14 10.6V11.4C14 11.9601 14 12.2401 13.891 12.454C13.7951 12.6422 13.6422 12.7951 13.454 12.891C13.2401 13 12.9601 13 12.4 13H11.6C11.0399 13 10.7599 13 10.546 12.891C10.3578 12.7951 10.2049 12.6422 10.109 12.454C10 12.2401 10 11.9601 10 11.4V10.6Z" fill="#0000CC"/>
<path d="M18.8285 19.8686C19.0652 19.715 19.2162 19.6637 19.3116 19.653C19.6567 19.6143 19.9756 19.9256 20.1554 20.1897C20.4486 20.6525 21.0606 20.7937 21.5272 20.5042C21.9966 20.2131 22.1411 19.5967 21.8499 19.1273C21.6672 18.8337 21.4242 18.5703 21.1614 18.3475C20.7387 17.9892 20.0221 17.5608 19.0887 17.6655C18.5537 17.7255 18.0979 17.9584 17.7394 18.1912C17.4142 18.4023 17.101 18.6604 16.8395 18.8757C16.5047 19.1516 16.2515 19.3563 16.0129 19.4966C15.7964 19.624 15.6706 19.6496 15.6001 19.6496C15.548 19.6496 15.4318 19.6288 15.2121 19.4912C14.9881 19.3509 14.7539 19.1537 14.4492 18.8937L14.4245 18.8726C14.1502 18.6385 13.8108 18.3489 13.4499 18.1228C13.0739 17.8872 12.5816 17.6592 12.0001 17.6592C11.4187 17.6592 10.9264 17.8872 10.5504 18.1228C10.1894 18.3489 9.85008 18.6385 9.57574 18.8726L9.55106 18.8937C9.24641 19.1537 9.01213 19.3509 8.78821 19.4912C8.56845 19.6288 8.4523 19.6496 8.40014 19.6496C8.32969 19.6496 8.20387 19.624 7.98737 19.4966C7.74879 19.3563 7.4956 19.1516 7.16074 18.8757C6.89932 18.6604 6.58604 18.4023 6.2609 18.1912C5.90233 17.9584 5.44656 17.7255 4.91162 17.6655C3.9782 17.5608 3.26156 17.9892 2.83882 18.3475C2.62205 18.5313 2.45656 18.7173 2.3449 18.8569C2.25146 18.9738 2.19961 19.048 2.15033 19.1273C1.85922 19.5967 2.0037 20.2131 2.47304 20.5042C2.93964 20.7937 3.55166 20.6525 3.84482 20.1897C3.92498 20.0719 4.02365 19.9651 4.13212 19.8731C4.33294 19.7029 4.5163 19.6337 4.68866 19.653C4.7841 19.6637 4.93512 19.715 5.17174 19.8686C5.39738 20.0151 5.6253 20.2025 5.90916 20.436L5.93541 20.4575C6.22692 20.6973 6.58552 20.9923 6.97325 21.2204C7.35356 21.4442 7.83696 21.6496 8.40014 21.6496C8.98159 21.6496 9.47386 21.4216 9.8499 21.1861C10.2109 20.96 10.5502 20.6704 10.8245 20.4362L10.8492 20.4152C11.1539 20.1552 11.3881 19.958 11.6121 19.8177C11.8318 19.68 11.948 19.6592 12.0001 19.6592C12.0523 19.6592 12.1684 19.68 12.3882 19.8177C12.6121 19.958 12.8464 20.1552 13.1511 20.4152L13.1757 20.4362C13.4501 20.6704 13.7894 20.96 14.1504 21.1861C14.5264 21.4216 15.0187 21.6496 15.6001 21.6496C16.1633 21.6496 16.6467 21.4442 17.027 21.2204C17.4148 20.9923 17.7734 20.6973 18.0649 20.4575L18.0911 20.436C18.375 20.2025 18.6029 20.0151 18.8285 19.8686Z" fill="#0000CC"/>
</svg>
