<svg width="24" height="24" viewBox="0 0 24 24" fill="none" xmlns="http://www.w3.org/2000/svg">
<path opacity="0.3" d="M4 12.3838V16.2414V16.2414C3.99999 17.0464 3.99998 17.7107 4.04419 18.2519C4.09012 18.814 4.18868 19.3307 4.43597 19.816C4.81947 20.5687 5.43139 21.1806 6.18404 21.5641C6.66937 21.8114 7.18608 21.91 7.74817 21.9559C8.28936 22.0001 8.95372 22.0001 9.75868 22.0001H14.2413C15.0463 22.0001 15.7106 22.0001 16.2518 21.9559C16.8139 21.91 17.3306 21.8114 17.816 21.5641C18.5686 21.1806 19.1805 20.5687 19.564 19.816C19.8113 19.3307 19.9099 18.814 19.9558 18.2519C20 17.7107 20 17.0464 20 16.2414V12.3839L14.8235 6.63283C14.1941 5.93355 13.7634 5.45636 13.4018 5.11732C13.0477 4.78542 12.8312 4.6564 12.6568 4.59563C12.2307 4.44726 11.767 4.44729 11.341 4.59573C11.1665 4.65652 10.95 4.78557 10.596 5.11753C10.2344 5.45662 9.80383 5.93387 9.17449 6.63324L4 12.3838Z" fill="#0000CC"/>
<path d="M10.6829 2.70708C11.535 2.41021 12.4624 2.41014 13.3145 2.70689C13.8677 2.89952 14.3239 3.24039 14.7696 3.65822C15.2006 4.06229 15.6878 4.60354 16.2808 5.2623L21.7433 11.3308C22.1127 11.7413 22.0795 12.3736 21.669 12.7431C21.2585 13.1126 20.6263 13.0793 20.2568 12.6689L14.8235 6.63283C14.1941 5.93355 13.7634 5.45636 13.4018 5.11732C13.0477 4.78542 12.8313 4.6564 12.6568 4.59563C12.2307 4.44726 11.767 4.44729 11.341 4.59573C11.1665 4.65652 10.95 4.78557 10.596 5.11753C10.2344 5.45662 9.80384 5.93387 9.1745 6.63324L3.74335 12.6687C3.37392 13.0793 2.74164 13.1126 2.3311 12.7432C1.92056 12.3737 1.88724 11.7415 2.25667 11.3309L7.71707 5.26291C8.30993 4.60406 8.79701 4.06276 9.22797 3.65863C9.67361 3.24074 10.1298 2.8998 10.6829 2.70708Z" fill="#0000CC"/>
<path d="M15 12C15 13.6569 13.6569 15 12 15C10.3431 15 9 13.6569 9 12C9 10.3431 10.3431 9 12 9C13.6569 9 15 10.3431 15 12Z" fill="#0000CC"/>
<path d="M17.4155 19.4131C17.2677 19.5611 17.0967 19.6859 16.9081 19.782C16.4803 20 15.9202 20 14.8001 20H9.2001C8.08 20 7.51995 20 7.09212 19.782C6.90357 19.6859 6.73267 19.5612 6.58496 19.4133C7.55104 17.3944 9.61281 16 12.0003 16C14.3876 16 16.4493 17.3943 17.4155 19.4131Z" fill="#0000CC"/>
</svg>
