<svg width="24" height="24" viewBox="0 0 24 24" fill="none" xmlns="http://www.w3.org/2000/svg">
<g opacity="0.3">
<path d="M3 20C2.44772 20 2 20.4477 2 21C2 21.5523 2.44772 22 3 22H21C21.5523 22 22 21.5523 22 21C22 20.4477 21.5523 20 21 20H3Z" fill="#0000CC"/>
<path d="M7 17V13H5V17H3C2.44772 17 2 17.4477 2 18C2 18.5523 2.44772 19 3 19H21C21.5523 19 22 18.5523 22 18C22 17.4477 21.5523 17 21 17H19V13H17V17H15V13H13V17H11V13H9V17H7Z" fill="#0000CC"/>
</g>
<path d="M13 3C13 2.44772 12.5523 2 12 2C11.4477 2 11 2.44772 11 3V3.07089C7.93431 3.5094 5.5094 5.93431 5.07089 9H3C2.44772 9 2 9.44772 2 10C2 10.5523 2.44772 11 3 11H21C21.5523 11 22 10.5523 22 10C22 9.44772 21.5523 9 21 9H18.9291C18.4906 5.93431 16.0657 3.5094 13 3.07089V3Z" fill="#0000CC"/>
</svg>
