<svg width="24" height="24" viewBox="0 0 24 24" fill="none" xmlns="http://www.w3.org/2000/svg">
<path opacity="0.3" d="M12.5547 2.16795C12.2188 1.94402 11.7812 1.94402 11.4453 2.16795L8.44527 4.16795C8.20346 4.32916 8.04374 4.58759 8.00769 4.87597L6.11719 20H17.8828L15.9922 4.87597C15.9562 4.58759 15.7965 4.32916 15.5547 4.16795L12.5547 2.16795Z" fill="#0000CC"/>
<path d="M10 14C10 13.4477 10.4477 13 11 13H13C13.5523 13 14 13.4477 14 14C14 14.5523 13.5523 15 13 15H11C10.4477 15 10 14.5523 10 14Z" fill="#0000CC"/>
<path d="M4 21C4 20.4477 4.44772 20 5 20H19C19.5523 20 20 20.4477 20 21C20 21.5523 19.5523 22 19 22H5C4.44772 22 4 21.5523 4 21Z" fill="#0000CC"/>
</svg>
