<svg width="24" height="24" viewBox="0 0 24 24" fill="none" xmlns="http://www.w3.org/2000/svg">
<g opacity="0.3">
<path d="M5 6V18.9999C5 19.5522 5.44772 19.9999 6 19.9999C6.55228 19.9999 7 19.5522 7 18.9999V7.21956L6.44874 6.62117C6.08318 6.23724 5.57011 6 5 6Z" fill="#0000CC"/>
<path d="M9 9.39055V18.9999C9 19.5522 9.44772 19.9999 10 19.9999C10.5523 19.9999 11 19.5522 11 18.9999V11.5615L9 9.39055Z" fill="#0000CC"/>
<path d="M13 13.7325V18.9999C13 19.5522 13.4477 19.9999 14 19.9999C14.5523 19.9999 15 19.5522 15 18.9999V15.4C14.4317 15.1095 13.9208 14.7233 13.4889 14.2631L13.4826 14.2563L13 13.7325Z" fill="#0000CC"/>
<path d="M17 15.9775V18.9999C17 19.5522 17.4477 19.9999 18 19.9999C18.5523 19.9999 19 19.5522 19 18.9999V15.793C18.5232 15.9278 18.0201 16 17.5001 16C17.3315 16 17.1647 15.9924 17 15.9775Z" fill="#0000CC"/>
<path d="M17 7.03539C17.1633 7.01206 17.3303 7 17.5001 7C18.0368 7 18.5454 7.12083 19 7.33678V10.9999C19 11.5522 18.5523 11.9999 18 11.9999C17.4477 11.9999 17 11.5522 17 10.9999V7.03539Z" fill="#0000CC"/>
</g>
<path fill-rule="evenodd" clip-rule="evenodd" d="M5 6C3.89543 6 3 6.89543 3 8V19C3 19.5523 2.55228 20 2 20C1.44772 20 1 19.5523 1 19V8C1 5.79086 2.79086 4 5 4C6.14284 4 7.17506 4.48058 7.90273 5.24787C7.90674 5.25208 7.91072 5.25633 7.91467 5.26062L14.9502 12.8976C15.5898 13.5775 16.4948 14 17.5001 14C19.4331 14 21.0001 12.433 21.0001 10.5C21.0001 8.567 19.4331 7 17.5001 7C16.401 7 15.4207 7.50544 14.7774 8.30039C14.4299 8.72972 13.8003 8.79612 13.3709 8.4487C12.9416 8.10129 12.8752 7.47161 13.2226 7.04229C14.2293 5.79824 15.7719 5 17.5001 5C20.5376 5 23.0001 7.46243 23.0001 10.5L23 19C23 19.5523 22.5523 20 22 20C21.4477 20 21 19.5523 21 19L21.0001 14.7429C20.0491 15.5282 18.8297 16 17.5001 16C15.9182 16 14.491 15.3309 13.4889 14.2631L13.4826 14.2563L6.44874 6.62117C6.08318 6.23724 5.57011 6 5 6Z" fill="#0000CC"/>
</svg>
