<svg width="24" height="24" viewBox="0 0 24 24" fill="none" xmlns="http://www.w3.org/2000/svg">
<path opacity="0.3" d="M12.3272 7.26006C12.7086 6.91331 13.2911 6.91331 13.6725 7.26006L19.1725 12.2601C19.3337 12.4066 19.4426 12.6017 19.4827 12.8157L20.8298 20H16.4998L12.9998 15V20H5.16992L6.51698 12.8157C6.55711 12.6017 6.66603 12.4066 6.82718 12.2601L12.3272 7.26006Z" fill="#0000CC"/>
<path d="M5 2C5.55228 2 6 2.44772 6 3V6.58579L6.29289 6.29289C6.68342 5.90237 7.31658 5.90237 7.70711 6.29289C8.09763 6.68342 8.09763 7.31658 7.70711 7.70711L5.70711 9.70711C5.31658 10.0976 4.68342 10.0976 4.29289 9.70711L2.29289 7.70711C1.90237 7.31658 1.90237 6.68342 2.29289 6.29289C2.68342 5.90237 3.31658 5.90237 3.70711 6.29289L4 6.58579V3C4 2.44772 4.44772 2 5 2Z" fill="#0000CC"/>
<path d="M3 20C2.44772 20 2 20.4477 2 21C2 21.5523 2.44772 22 3 22H21C21.5523 22 22 21.5523 22 21C22 20.4477 21.5523 20 21 20H16.5L13 15V20H3Z" fill="#0000CC"/>
</svg>
