<svg width="24" height="24" viewBox="0 0 24 24" fill="none" xmlns="http://www.w3.org/2000/svg">
<path opacity="0.3" fill-rule="evenodd" clip-rule="evenodd" d="M6.00005 5L6 21C6 21.5523 6.44772 22 7 22C7.55228 22 8 21.5523 8 21V20H16V21C16 21.5523 16.4477 22 17 22C17.5523 22 18 21.5523 18 21V5H6.00005Z" fill="#0000CC"/>
<path d="M16.9079 2.21799C16.4801 2 15.9201 2 14.7999 2H9.19995C8.07984 2 7.51979 2 7.09197 2.21799C6.71564 2.40973 6.40968 2.71569 6.21794 3.09202C6.01333 3.49359 6.00077 4.01165 6 5H17.9999C17.9992 4.01165 17.9866 3.49359 17.782 3.09202C17.5902 2.71569 17.2843 2.40973 16.9079 2.21799Z" fill="#0000CC"/>
<path d="M16 13C16 13.5523 15.5523 14 15 14C14.4477 14 14 13.5523 14 13C14 12.4477 14.4477 12 15 12C15.5523 12 16 12.4477 16 13Z" fill="#0000CC"/>
</svg>
