<svg width="24" height="24" viewBox="0 0 24 24" fill="none" xmlns="http://www.w3.org/2000/svg">
<g opacity="0.3">
<path d="M3.00005 7C3 7.06462 3 7.13126 3 7.2V19C3 19.5523 3.44772 20 4 20C4.55228 20 5 19.5523 5 19V18H9V19C9 19.5523 9.44772 20 10 20C10.5523 20 11 19.5523 11 19V7.2C11 7.13126 11 7.06462 10.9999 7H3.00005Z" fill="#0000CC"/>
<path d="M13.0001 7C13 7.06462 13 7.13126 13 7.2V19C13 19.5523 13.4477 20 14 20C14.5523 20 15 19.5523 15 19V18H19V19C19 19.5523 19.4477 20 20 20C20.5523 20 21 19.5523 21 19V7.2C21 7.13126 21 7.06462 21 7H13.0001Z" fill="#0000CC"/>
</g>
<path d="M3 7H10.9999C10.9991 6.01165 10.9866 5.49359 10.782 5.09202C10.5902 4.71569 10.2843 4.40973 9.90793 4.21799C9.48011 4 8.92005 4 7.79995 4H6.19995C5.07984 4 4.51979 4 4.09197 4.21799C3.71564 4.40973 3.40968 4.71569 3.21794 5.09202C3.01333 5.49359 3.00077 6.01165 3 7Z" fill="#0000CC"/>
<path d="M13 7H20.9999C20.9991 6.01165 20.9866 5.49359 20.782 5.09202C20.5902 4.71569 20.2843 4.40973 19.9079 4.21799C19.4801 4 18.9201 4 17.7999 4H16.2C15.0798 4 14.5198 4 14.092 4.21799C13.7156 4.40973 13.4097 4.71569 13.2179 5.09202C13.0133 5.49359 13.0008 6.01165 13 7Z" fill="#0000CC"/>
<path d="M9 14C9.55229 14 10 13.5523 10 13C10 12.4477 9.55229 12 9 12C8.44772 12 8 12.4477 8 13C8 13.5523 8.44772 14 9 14Z" fill="#0000CC"/>
<path d="M20 13C20 13.5523 19.5523 14 19 14C18.4477 14 18 13.5523 18 13C18 12.4477 18.4477 12 19 12C19.5523 12 20 12.4477 20 13Z" fill="#0000CC"/>
</svg>
