<svg width="24" height="24" viewBox="0 0 24 24" fill="none" xmlns="http://www.w3.org/2000/svg">
<path opacity="0.3" fill-rule="evenodd" clip-rule="evenodd" d="M8.66427 11.9722L6.25586 20.0002H9.31651L12.0119 17.7606L14.7851 20.0002H17.7438L15.3354 11.9722C15.2263 11.9906 15.1142 12.0002 14.9998 12.0002H8.99985C8.88549 12.0002 8.77338 11.9906 8.66427 11.9722ZM13.2558 12.0003H10.7439L10.221 13.7434L11.9939 15.1752L13.7664 13.7024L13.2558 12.0003ZM14.3909 15.7839L13.5809 16.4569L14.9163 17.5354L14.3909 15.7839ZM9.0601 17.6129L10.4249 16.4789L9.60014 15.8128L9.0601 17.6129Z" fill="#0000CC"/>
<path fill-rule="evenodd" clip-rule="evenodd" d="M11.553 2.10557C11.8345 1.96481 12.1659 1.96481 12.4474 2.10557L18.4474 5.10557C18.9414 5.35256 19.1416 5.95324 18.8946 6.44721C18.6477 6.94119 18.047 7.14142 17.553 6.89443L17 6.61792V10C17 11.1046 16.1046 12 15 12H9C7.89543 12 7 11.1046 7 10V6.61814L6.44743 6.89443C5.95345 7.14142 5.35278 6.94119 5.10579 6.44721C4.8588 5.95324 5.05903 5.35256 5.55301 5.10557L11.553 2.10557ZM10 7C9.44772 7 9 7.44772 9 8C9 8.55228 9.44772 9 10 9H14C14.5523 9 15 8.55228 15 8C15 7.44772 14.5523 7 14 7H10Z" fill="#0000CC"/>
<path d="M5 20C4.44772 20 4 20.4477 4 21C4 21.5523 4.44772 22 5 22H19C19.5523 22 20 21.5523 20 21C20 20.4477 19.5523 20 19 20H5Z" fill="#0000CC"/>
</svg>
