<svg width="24" height="23" viewBox="0 0 24 23" fill="none" xmlns="http://www.w3.org/2000/svg">
<path opacity="0.3" d="M4.65338 5.43677L9.85337 2.9451C10.6405 2.56795 11.034 2.37938 11.4468 2.30516C11.8124 2.23943 12.1876 2.23943 12.5532 2.30516C12.966 2.37938 13.3595 2.56795 14.1466 2.9451L19.3466 5.43677C20.3098 5.8983 20.7914 6.12906 21.1433 6.47333C21.4544 6.77778 21.691 7.14471 21.836 7.54757C22 8.00313 22 8.51913 22 9.55113V19.5498C22 20.0866 22 20.3549 21.891 20.5599C21.7951 20.7402 21.6422 20.8868 21.454 20.9787C21.2401 21.0832 20.9601 21.0832 20.4 21.0832H18L18 11.086C18 10.8441 18.0001 10.6085 17.9831 10.409C17.9644 10.19 17.9203 9.93148 17.782 9.67137C17.5903 9.31072 17.2843 9.01751 16.908 8.83375C16.6366 8.70122 16.3668 8.65899 16.1382 8.64109C15.9301 8.62479 15.6843 8.62482 15.4319 8.62485H8.56807C8.3157 8.62482 8.06992 8.62479 7.86178 8.64109C7.63318 8.65899 7.36345 8.70122 7.09202 8.83375C6.7157 9.01751 6.40974 9.31072 6.21799 9.67137C6.07969 9.93148 6.03563 10.19 6.01695 10.409C5.99994 10.6085 5.99997 10.8441 6 11.0859L6.00001 21.0832H3.6C3.03995 21.0832 2.75992 21.0832 2.54601 20.9787C2.35785 20.8868 2.20487 20.7402 2.10899 20.5599C2 20.3549 2 20.0866 2 19.5498V9.55113C2 8.51913 2 8.00313 2.16396 7.54757C2.30896 7.14471 2.5456 6.77778 2.85675 6.47333C3.2086 6.12906 3.6902 5.89829 4.65338 5.43677Z" fill="#0000CC"/>
<path fill-rule="evenodd" clip-rule="evenodd" d="M8 11.3082C8 11.0398 8 10.9056 8.0545 10.8031C8.10243 10.713 8.17892 10.6397 8.273 10.5937C8.37996 10.5415 8.51997 10.5415 8.8 10.5415H15.2C15.48 10.5415 15.62 10.5415 15.727 10.5937C15.8211 10.6397 15.8976 10.713 15.9455 10.8031C16 10.9056 16 11.0398 16 11.3082V20.3165C16 20.5849 16 20.719 15.9455 20.8215C15.8976 20.9117 15.8211 20.985 15.727 21.0309C15.62 21.0832 15.48 21.0832 15.2 21.0832H8.8C8.51997 21.0832 8.37996 21.0832 8.273 21.0309C8.17892 20.985 8.10243 20.9117 8.0545 20.8215C8 20.719 8 20.5849 8 20.3165V11.3082ZM11 12.4582C10.4477 12.4582 10 12.8872 10 13.4165C10 13.9458 10.4477 14.3748 11 14.3748H13C13.5523 14.3748 14 13.9458 14 13.4165C14 12.8872 13.5523 12.4582 13 12.4582H11ZM11 16.2915C10.4477 16.2915 10 16.7206 10 17.2498C10 17.7791 10.4477 18.2082 11 18.2082H13C13.5523 18.2082 14 17.7791 14 17.2498C14 16.7206 13.5523 16.2915 13 16.2915H11Z" fill="#0000CC"/>
</svg>
