<svg width="24" height="24" viewBox="0 0 24 24" fill="none" xmlns="http://www.w3.org/2000/svg">
<g opacity="0.3">
<path d="M6 6.00003C5.54097 6.00031 5.14075 6.00314 4.80497 6.03057C4.40963 6.06287 4.01641 6.13419 3.63803 6.32698C3.07354 6.6146 2.6146 7.07354 2.32698 7.63803C2.13419 8.01641 2.06287 8.40963 2.03057 8.80497C1.99997 9.17954 1.99998 9.63429 2 10.1614V13.8385C1.99998 14.3657 1.99997 14.8205 2.03057 15.195C2.06287 15.5904 2.13419 15.9836 2.32698 16.362C2.6146 16.9265 3.07354 17.3854 3.63803 17.673C4.01641 17.8658 4.40963 17.9371 4.80497 17.9694C5.14075 17.9969 5.54097 17.9997 6 18V6.00003Z" fill="#0000CC"/>
<path fill-rule="evenodd" clip-rule="evenodd" d="M8 18H16V6H8V18Z" fill="#0000CC"/>
<path d="M18 6.00003V18C18.459 17.9997 18.8593 17.9969 19.195 17.9694C19.5904 17.9371 19.9836 17.8658 20.362 17.673C20.9265 17.3854 21.3854 16.9265 21.673 16.362C21.8658 15.9836 21.9371 15.5904 21.9694 15.195C22 14.8205 22 14.3657 22 13.8386V10.1614C22 9.63429 22 9.17954 21.9694 8.80497C21.9371 8.40963 21.8658 8.01641 21.673 7.63803C21.3854 7.07354 20.9265 6.6146 20.362 6.32698C19.9836 6.13419 19.5904 6.06287 19.195 6.03057C18.8593 6.00314 18.459 6.00031 18 6.00003Z" fill="#0000CC"/>
</g>
<path d="M6 6H8V18H6V6Z" fill="#0000CC"/>
<path d="M16 6H18V18H16V6Z" fill="#0000CC"/>
<path d="M11 10C11 10.5523 10.5523 11 10 11C9.44771 11 9 10.5523 9 10C9 9.44771 9.44771 9 10 9C10.5523 9 11 9.44771 11 10Z" fill="#0000CC"/>
<path d="M15 10C15 10.5523 14.5523 11 14 11C13.4477 11 13 10.5523 13 10C13 9.44771 13.4477 9 14 9C14.5523 9 15 9.44771 15 10Z" fill="#0000CC"/>
<path d="M14 15C14.5523 15 15 14.5523 15 14C15 13.4477 14.5523 13 14 13C13.4477 13 13 13.4477 13 14C13 14.5523 13.4477 15 14 15Z" fill="#0000CC"/>
<path d="M11 14C11 14.5523 10.5523 15 10 15C9.44771 15 9 14.5523 9 14C9 13.4477 9.44771 13 10 13C10.5523 13 11 13.4477 11 14Z" fill="#0000CC"/>
</svg>
