<svg width="24" height="24" viewBox="0 0 24 24" fill="none" xmlns="http://www.w3.org/2000/svg">
<path opacity="0.3" d="M8 2V6C8 6.55229 8.44772 7 9 7C9.55228 7 10 6.55229 10 6V2H14V5C14 5.55228 14.4477 6 15 6C15.5523 6 16 5.55228 16 5V2H18.3685C19.8218 2 21 3.17816 21 4.63149V9H3V4.63149C3 3.17816 4.17816 2 5.63149 2H8Z" fill="#0000CC"/>
<path fill-rule="evenodd" clip-rule="evenodd" d="M3 9V10.6994C3 12.4298 3.99793 14.005 5.56249 14.7443L7.66718 15.7388C8.19768 15.9894 8.48648 16.5717 8.36499 17.1457L8.303 17.4387C7.80568 19.7885 9.5981 22 12 22C14.4019 22 16.1943 19.7885 15.697 17.4387L15.635 17.1457C15.5135 16.5717 15.8023 15.9894 16.3328 15.7388L18.4375 14.7443C20.0021 14.005 21 12.4298 21 10.6994V9H3Z" fill="#0000CC"/>
</svg>
