<svg width="24" height="24" viewBox="0 0 24 24" fill="none" xmlns="http://www.w3.org/2000/svg">
<path opacity="0.3" fill-rule="evenodd" clip-rule="evenodd" d="M12 22C17.5228 22 22 17.5228 22 12C22 6.47715 17.5228 2 12 2C6.47715 2 2 6.47715 2 12C2 17.5228 6.47715 22 12 22Z" fill="#0000CC"/>
<path fill-rule="evenodd" clip-rule="evenodd" d="M7.25 13.2002C7.94036 13.2002 8.5 12.6406 8.5 11.9502C8.5 11.2598 7.94036 10.7002 7.25 10.7002C6.55964 10.7002 6 11.2598 6 11.9502C6 12.6406 6.55964 13.2002 7.25 13.2002ZM12.0498 13.2002C12.7402 13.2002 13.2998 12.6406 13.2998 11.9502C13.2998 11.2598 12.7402 10.7002 12.0498 10.7002C11.3594 10.7002 10.7998 11.2598 10.7998 11.9502C10.7998 12.6406 11.3594 13.2002 12.0498 13.2002ZM18 11.9502C18 12.6406 17.4404 13.2002 16.75 13.2002C16.0596 13.2002 15.5 12.6406 15.5 11.9502C15.5 11.2598 16.0596 10.7002 16.75 10.7002C17.4404 10.7002 18 11.2598 18 11.9502Z" fill="#0000CC"/>
</svg>
