<svg width="24" height="24" viewBox="0 0 24 24" fill="none" xmlns="http://www.w3.org/2000/svg">
<g opacity="0.3">
<path fill-rule="evenodd" clip-rule="evenodd" d="M13 9H12V11H13V13H15V11H17C19.2091 11 21 9.20914 21 7C21 4.79086 19.2091 3 17 3C14.7909 3 13 4.79086 13 7V9ZM15 9H17C18.1046 9 19 8.10457 19 7C19 5.89543 18.1046 5 17 5C15.8954 5 15 5.89543 15 7V9Z" fill="#0000CC"/>
<path fill-rule="evenodd" clip-rule="evenodd" d="M11 15H12V13H11V12H9V13H7C4.79086 13 3 14.7909 3 17C3 19.2091 4.79086 21 7 21C9.20914 21 11 19.2091 11 17V15ZM9 15H7C5.89543 15 5 15.8954 5 17C5 18.1046 5.89543 19 7 19C8.10457 19 9 18.1046 9 17V15Z" fill="#0000CC"/>
</g>
<path fill-rule="evenodd" clip-rule="evenodd" d="M12 9H11V7C11 4.79086 9.20914 3 7 3C4.79086 3 3 4.79086 3 7C3 9.20914 4.79086 11 7 11H9V12H11V11H12V9ZM9 7V9H7C5.89543 9 5 8.10457 5 7C5 5.89543 5.89543 5 7 5C8.10457 5 9 5.89543 9 7Z" fill="#0000CC"/>
<path fill-rule="evenodd" clip-rule="evenodd" d="M13 12H15V13H17C19.2091 13 21 14.7909 21 17C21 19.2091 19.2091 21 17 21C14.7909 21 13 19.2091 13 17V15H12V13H13V12ZM15 17V15H17C18.1046 15 19 15.8954 19 17C19 18.1046 18.1046 19 17 19C15.8954 19 15 18.1046 15 17Z" fill="#0000CC"/>
</svg>
