<svg width="24" height="24" viewBox="0 0 24 24" fill="none" xmlns="http://www.w3.org/2000/svg">
<g opacity="0.3">
<path d="M6 2C6.55229 2 7 2.44772 7 3V14.8C7 15.1153 7.00023 15.3696 7.00423 15.5816L20.2929 2.29289C20.6834 1.90237 21.3166 1.90237 21.7071 2.29289C22.0976 2.68342 22.0976 3.31658 21.7071 3.70711L8.41845 16.9958C8.63044 16.9998 8.88467 17 9.2 17H16V19H9.16144C8.6343 19 8.17954 19 7.80497 18.9694C7.40963 18.9371 7.01641 18.8658 6.63803 18.673C6.07355 18.3854 5.6146 17.9265 5.32698 17.362C5.13419 16.9836 5.06287 16.5904 5.03057 16.195C4.99997 15.8205 4.99998 15.3657 5 14.8385V3C5 2.44772 5.44772 2 6 2Z" fill="#0000CC"/>
<path d="M21 19H19V17H21C21.5523 17 22 17.4477 22 18C22 18.5523 21.5523 19 21 19Z" fill="#0000CC"/>
</g>
<path d="M16.0322 7.02393C15.7488 7.00078 15.3766 7 14.8 7L8 7V5L14.8386 5C15.3657 4.99998 15.8205 4.99997 16.195 5.03057C16.5904 5.06287 16.9836 5.13419 17.362 5.32698C17.9265 5.6146 18.3854 6.07354 18.673 6.63803C18.8658 7.01641 18.9371 7.40963 18.9694 7.80497C19 8.17954 19 8.6343 19 9.16144V21C19 21.5523 18.5523 22 18 22C17.4477 22 17 21.5523 17 21V9.2C17 8.62345 16.9992 8.25117 16.9761 7.96784C16.9539 7.69617 16.9162 7.59546 16.891 7.54601C16.7951 7.35785 16.6422 7.20487 16.454 7.109C16.4045 7.0838 16.3038 7.04613 16.0322 7.02393Z" fill="#0000CC"/>
<path d="M3 5H5V7H3C2.44772 7 2 6.55229 2 6C2 5.44772 2.44772 5 3 5Z" fill="#0000CC"/>
</svg>
