<svg width="24" height="24" viewBox="0 0 24 24" fill="none" xmlns="http://www.w3.org/2000/svg">
<g opacity="0.3">
<path d="M21.9477 7.099L13.0003 10.2112V21.7052C13.1075 21.6701 13.217 21.6313 13.3313 21.5909L19.3324 19.4729C19.9665 19.2502 20.5231 19.0546 20.9529 18.6862C21.3288 18.3639 21.6191 17.9536 21.7979 17.4919C22.0023 16.964 22.0014 16.374 22.0004 15.702V8.29825C22.0011 7.86638 22.0016 7.4684 21.9477 7.099Z" fill="#0000CC"/>
<path d="M11.0003 21.7052V10.221L2.03573 7.2328C1.99906 7.5641 1.99958 7.91805 2.00014 8.29825V15.702C1.99915 16.374 1.99828 16.964 2.2027 17.4919C2.38148 17.9536 2.67176 18.3639 3.04763 18.6862C3.4774 19.0546 4.03405 19.2502 4.6681 19.4729L10.6693 21.5909C10.7835 21.6313 10.8931 21.6701 11.0003 21.7052Z" fill="#0000CC"/>
</g>
<path d="M12.4057 2.14868C12.1363 2.1119 11.8632 2.1119 11.5938 2.14868C11.2875 2.19052 10.9975 2.29311 10.6688 2.40943L4.66758 4.5274C4.03353 4.75013 3.47688 4.94568 3.04711 5.31414C3.0063 5.34913 2.96649 5.38516 2.92773 5.42218L11.9929 8.44389L20.9635 5.32369C20.9598 5.3205 20.9561 5.31732 20.9524 5.31414C20.5226 4.94568 19.966 4.75014 19.3319 4.5274L13.3307 2.40943C13.002 2.29311 12.712 2.19052 12.4057 2.14868Z" fill="#0000CC"/>
</svg>
