<svg width="24" height="24" viewBox="0 0 24 24" fill="none" xmlns="http://www.w3.org/2000/svg">
<path opacity="0.3" d="M8.21799 6.09202C8 6.51984 8 7.0799 8 8.2V15.8C8 16.9201 8 17.4802 8.21799 17.908C8.40973 18.2843 8.71569 18.5903 9.09202 18.782C9.51984 19 10.0799 19 11.2 19H12.8C13.9201 19 14.4802 19 14.908 18.782C15.2843 18.5903 15.5903 18.2843 15.782 17.908C16 17.4802 16 16.9201 16 15.8V8.2C16 7.0799 16 6.51984 15.782 6.09202C15.5903 5.71569 15.2843 5.40973 14.908 5.21799C14.4802 5 13.9201 5 12.8 5H11.2C10.0799 5 9.51984 5 9.09202 5.21799C8.71569 5.40973 8.40973 5.71569 8.21799 6.09202Z" fill="#0000CC"/>
<path d="M5 3C5 2.44772 4.55228 2 4 2C3.44772 2 3 2.44772 3 3V21C3 21.5523 3.44772 22 4 22C4.55228 22 5 21.5523 5 21V3Z" fill="#0000CC"/>
<path d="M21 3C21 2.44772 20.5523 2 20 2C19.4477 2 19 2.44772 19 3V21C19 21.5523 19.4477 22 20 22C20.5523 22 21 21.5523 21 21V3Z" fill="#0000CC"/>
</svg>
