<svg width="24" height="24" viewBox="0 0 24 24" fill="none" xmlns="http://www.w3.org/2000/svg">
<path opacity="0.3" d="M5.21799 9.09202C5 9.51984 5 10.0799 5 11.2V12.8C5 13.9201 5 14.4802 5.21799 14.908C5.40973 15.2843 5.71569 15.5903 6.09202 15.782C6.51984 16 7.0799 16 8.2 16H15.8C16.9201 16 17.4802 16 17.908 15.782C18.2843 15.5903 18.5903 15.2843 18.782 14.908C19 14.4802 19 13.9201 19 12.8V11.2C19 10.0799 19 9.51984 18.782 9.09202C18.5903 8.71569 18.2843 8.40973 17.908 8.21799C17.4802 8 16.9201 8 15.8 8H8.2C7.0799 8 6.51984 8 6.09202 8.21799C5.71569 8.40973 5.40973 8.71569 5.21799 9.09202Z" fill="#0000CC"/>
<path d="M3 3C2.44772 3 2 3.44772 2 4C2 4.55228 2.44772 5 3 5H21C21.5523 5 22 4.55228 22 4C22 3.44772 21.5523 3 21 3H3Z" fill="#0000CC"/>
<path d="M3 19C2.44772 19 2 19.4477 2 20C2 20.5523 2.44772 21 3 21H21C21.5523 21 22 20.5523 22 20C22 19.4477 21.5523 19 21 19H3Z" fill="#0000CC"/>
</svg>
