<svg width="24" height="24" viewBox="0 0 24 24" fill="none" xmlns="http://www.w3.org/2000/svg">
<path opacity="0.3" d="M11.0857 7.50024L5.62673 12.9593C5.17751 13.4081 4.83808 13.7472 4.58946 14.153C4.37014 14.5109 4.20852 14.901 4.11054 15.3092C3.99945 15.7719 3.99968 16.2517 3.99998 16.8867L4.00002 17.6975L2.16797 20.4456C1.90355 20.8422 1.95585 21.3704 2.29291 21.7074C2.62997 22.0445 3.15809 22.0968 3.55472 21.8324L6.30279 20.0003L7.11367 20.0003C7.74867 20.0006 8.22846 20.0009 8.69116 19.8898C9.0993 19.7918 9.48948 19.6302 9.84737 19.4109C10.2531 19.1622 10.5922 18.8228 11.041 18.3736L16.4999 12.9145L15.0857 11.5002L9.6988 16.8873C9.14628 17.4398 8.98073 17.5963 8.80237 17.7056C8.62343 17.8153 8.42834 17.8961 8.22427 17.9451C8.02086 17.9939 7.79316 18.0003 7.01179 18.0003H6.00002V16.9885C6.00002 16.2072 6.00644 15.9795 6.05528 15.7761C6.10427 15.572 6.18508 15.3769 6.29474 15.198C6.40404 15.0196 6.56051 14.854 7.11302 14.3015L12.4999 8.91446L11.0857 7.50024Z" fill="#0000CC"/>
<path fill-rule="evenodd" clip-rule="evenodd" d="M15.2929 3.2932C16.788 1.7981 19.212 1.7981 20.7071 3.29319C22.2022 4.78829 22.2022 7.21231 20.7071 8.70741L17.9142 11.5003L18.7071 12.2932C19.0976 12.6837 19.0976 13.3169 18.7071 13.7074C18.3166 14.0979 17.6834 14.0979 17.2929 13.7074L11.7931 8.20757L10.2929 6.70741C9.90237 6.31688 9.90237 5.68372 10.2929 5.29319C10.6834 4.90267 11.3166 4.90267 11.7071 5.29319L12.5 6.08609L15.2929 3.2932Z" fill="#0000CC"/>
</svg>
