<svg width="24" height="24" viewBox="0 0 24 24" fill="none" xmlns="http://www.w3.org/2000/svg">
<g opacity="0.3">
<path d="M6 11.1C6 10.5399 6 10.2599 6.10899 10.046C6.20487 9.85785 6.35785 9.70487 6.54601 9.60899C6.75992 9.5 7.03995 9.5 7.6 9.5H9.4C9.96005 9.5 10.2401 9.5 10.454 9.60899C10.6422 9.70487 10.7951 9.85785 10.891 10.046C11 10.2599 11 10.5399 11 11.1V12.9C11 13.4601 11 13.7401 10.891 13.954C10.7951 14.1422 10.6422 14.2951 10.454 14.391C10.2401 14.5 9.96005 14.5 9.4 14.5H7.6C7.03995 14.5 6.75992 14.5 6.54601 14.391C6.35785 14.2951 6.20487 14.1422 6.10899 13.954C6 13.7401 6 13.4601 6 12.9V11.1Z" fill="#0000CC"/>
<path d="M13.109 3.04601C13 3.25992 13 3.53995 13 4.1V5.9C13 6.46005 13 6.74008 13.109 6.95399C13.2049 7.14215 13.3578 7.29513 13.546 7.39101C13.7599 7.5 14.0399 7.5 14.6 7.5H16.4C16.9601 7.5 17.2401 7.5 17.454 7.39101C17.6422 7.29513 17.7951 7.14215 17.891 6.95399C18 6.74008 18 6.46005 18 5.9V4.1C18 3.53995 18 3.25992 17.891 3.04601C17.7951 2.85785 17.6422 2.70487 17.454 2.60899C17.2401 2.5 16.9601 2.5 16.4 2.5H14.6C14.0399 2.5 13.7599 2.5 13.546 2.60899C13.3578 2.70487 13.2049 2.85785 13.109 3.04601Z" fill="#0000CC"/>
<path d="M13 18.1C13 17.5399 13 17.2599 13.109 17.046C13.2049 16.8578 13.3578 16.7049 13.546 16.609C13.7599 16.5 14.0399 16.5 14.6 16.5H16.4C16.9601 16.5 17.2401 16.5 17.454 16.609C17.6422 16.7049 17.7951 16.8578 17.891 17.046C18 17.2599 18 17.5399 18 18.1V19.9C18 20.4601 18 20.7401 17.891 20.954C17.7951 21.1422 17.6422 21.2951 17.454 21.391C17.2401 21.5 16.9601 21.5 16.4 21.5H14.6C14.0399 21.5 13.7599 21.5 13.546 21.391C13.3578 21.2951 13.2049 21.1422 13.109 20.954C13 20.7401 13 20.4601 13 19.9V18.1Z" fill="#0000CC"/>
</g>
<path d="M6.10899 3.04601C6 3.25992 6 3.53995 6 4.1V5.9C6 6.46005 6 6.74008 6.10899 6.95399C6.20487 7.14215 6.35785 7.29513 6.54601 7.39101C6.75992 7.5 7.03995 7.5 7.6 7.5H9.4C9.96005 7.5 10.2401 7.5 10.454 7.39101C10.6422 7.29513 10.7951 7.14215 10.891 6.95399C11 6.74008 11 6.46005 11 5.9V4.1C11 3.53995 11 3.25992 10.891 3.04601C10.7951 2.85785 10.6422 2.70487 10.454 2.60899C10.2401 2.5 9.96005 2.5 9.4 2.5H7.6C7.03995 2.5 6.75992 2.5 6.54601 2.60899C6.35785 2.70487 6.20487 2.85785 6.10899 3.04601Z" fill="#0000CC"/>
<path d="M6.10899 17.046C6 17.2599 6 17.5399 6 18.1V19.9C6 20.4601 6 20.7401 6.10899 20.954C6.20487 21.1422 6.35785 21.2951 6.54601 21.391C6.75992 21.5 7.03995 21.5 7.6 21.5H9.4C9.96005 21.5 10.2401 21.5 10.454 21.391C10.6422 21.2951 10.7951 21.1422 10.891 20.954C11 20.7401 11 20.4601 11 19.9V18.1C11 17.5399 11 17.2599 10.891 17.046C10.7951 16.8578 10.6422 16.7049 10.454 16.609C10.2401 16.5 9.96005 16.5 9.4 16.5H7.6C7.03995 16.5 6.75992 16.5 6.54601 16.609C6.35785 16.7049 6.20487 16.8578 6.10899 17.046Z" fill="#0000CC"/>
<path d="M13.109 10.046C13 10.2599 13 10.5399 13 11.1V12.9C13 13.4601 13 13.7401 13.109 13.954C13.2049 14.1422 13.3578 14.2951 13.546 14.391C13.7599 14.5 14.0399 14.5 14.6 14.5H16.4C16.9601 14.5 17.2401 14.5 17.454 14.391C17.6422 14.2951 17.7951 14.1422 17.891 13.954C18 13.7401 18 13.4601 18 12.9V11.1C18 10.5399 18 10.2599 17.891 10.046C17.7951 9.85785 17.6422 9.70487 17.454 9.60899C17.2401 9.5 16.9601 9.5 16.4 9.5H14.6C14.0399 9.5 13.7599 9.5 13.546 9.60899C13.3578 9.70487 13.2049 9.85785 13.109 10.046Z" fill="#0000CC"/>
</svg>
