<svg width="24" height="24" viewBox="0 0 24 24" fill="none" xmlns="http://www.w3.org/2000/svg">
<g opacity="0.3">
<path d="M4 5.2C4 4.0799 4 3.51984 4.21799 3.09202C4.40973 2.71569 4.71569 2.40973 5.09202 2.21799C5.51984 2 6.0799 2 7.2 2H7.8C8.9201 2 9.48016 2 9.90798 2.21799C10.2843 2.40973 10.5903 2.71569 10.782 3.09202C11 3.51984 11 4.0799 11 5.2V14.8C11 15.9201 11 16.4802 10.782 16.908C10.5903 17.2843 10.2843 17.5903 9.90798 17.782C9.48016 18 8.9201 18 7.8 18H7.2C6.0799 18 5.51984 18 5.09202 17.782C4.71569 17.5903 4.40973 17.2843 4.21799 16.908C4 16.4802 4 15.9201 4 14.8V5.2Z" fill="#0000CC"/>
<path d="M13.218 9.09202C13 9.51984 13 10.0799 13 11.2V14.8C13 15.9201 13 16.4802 13.218 16.908C13.4097 17.2843 13.7157 17.5903 14.092 17.782C14.5198 18 15.0799 18 16.2 18H16.8C17.9201 18 18.4802 18 18.908 17.782C19.2843 17.5903 19.5903 17.2843 19.782 16.908C20 16.4802 20 15.9201 20 14.8V11.2C20 10.0799 20 9.51984 19.782 9.09202C19.5903 8.71569 19.2843 8.40973 18.908 8.21799C18.4802 8 17.9201 8 16.8 8H16.2C15.0799 8 14.5198 8 14.092 8.21799C13.7157 8.40973 13.4097 8.71569 13.218 9.09202Z" fill="#0000CC"/>
</g>
<path d="M2 21C2 20.4477 2.44772 20 3 20H21C21.5523 20 22 20.4477 22 21C22 21.5523 21.5523 22 21 22H3C2.44772 22 2 21.5523 2 21Z" fill="#0000CC"/>
</svg>
