<svg width="24" height="24" viewBox="0 0 24 24" fill="none" xmlns="http://www.w3.org/2000/svg">
<g opacity="0.3">
<path d="M6.56811 4C6.31573 3.99997 6.06993 3.99994 5.86178 4.01695C5.63318 4.03563 5.36345 4.07969 5.09202 4.21799C4.7157 4.40974 4.40974 4.7157 4.21799 5.09202C4.07969 5.36345 4.03563 5.63318 4.01695 5.86178C3.99994 6.06993 3.99997 6.31572 4 6.56809L4 17.4319C3.99997 17.6843 3.99994 17.9301 4.01695 18.1382C4.03563 18.3668 4.07969 18.6366 4.21799 18.908C4.40974 19.2843 4.7157 19.5903 5.09202 19.782C5.36345 19.9203 5.63318 19.9644 5.86178 19.9831C6.06994 20.0001 6.31574 20 6.56812 20H8.43189C8.68428 20 8.93007 20.0001 9.13824 19.9831C9.36683 19.9644 9.63656 19.9203 9.90799 19.782C10.2843 19.5903 10.5903 19.2843 10.782 18.908C10.9203 18.6366 10.9644 18.3668 10.9831 18.1382C11.0001 17.9301 11 17.6843 11 17.4319V6.56811C11 6.31572 11.0001 6.06993 10.9831 5.86178C10.9644 5.63318 10.9203 5.36345 10.782 5.09202C10.5903 4.7157 10.2843 4.40974 9.90799 4.21799C9.63656 4.07969 9.36683 4.03563 9.13824 4.01695C8.93008 3.99994 8.68429 3.99997 8.43192 4L6.56811 4Z" fill="#0000CC"/>
<path d="M17.4319 7H15.5681C15.3157 6.99997 15.0699 6.99994 14.8618 7.01695C14.6332 7.03563 14.3634 7.07969 14.092 7.21799C13.7157 7.40974 13.4097 7.7157 13.218 8.09202C13.0797 8.36345 13.0356 8.63318 13.0169 8.86177C12.9999 9.06992 13 9.3157 13 9.56807V14.4319C13 14.6843 12.9999 14.9301 13.0169 15.1382C13.0356 15.3668 13.0797 15.6366 13.218 15.908C13.4097 16.2843 13.7157 16.5903 14.092 16.782C14.3634 16.9203 14.6332 16.9644 14.8618 16.9831C15.0699 17.0001 15.3157 17 15.5681 17H17.4319C17.6843 17 17.9301 17.0001 18.1382 16.9831C18.3668 16.9644 18.6366 16.9203 18.908 16.782C19.2843 16.5903 19.5903 16.2843 19.782 15.908C19.9203 15.6366 19.9644 15.3668 19.9831 15.1382C20.0001 14.9301 20 14.6843 20 14.4319V9.56812C20 9.31574 20.0001 9.06994 19.9831 8.86177C19.9644 8.63318 19.9203 8.36345 19.782 8.09202C19.5903 7.7157 19.2843 7.40974 18.908 7.21799C18.6366 7.07969 18.3668 7.03563 18.1382 7.01695C17.9301 6.99994 17.6843 6.99997 17.4319 7Z" fill="#0000CC"/>
</g>
<path d="M11 13V11H13V13H11Z" fill="#0000CC"/>
<path d="M4 11V13H3C2.44772 13 2 12.5523 2 12C2 11.4477 2.44772 11 3 11H4Z" fill="#0000CC"/>
<path d="M20 13H21C21.5523 13 22 12.5523 22 12C22 11.4477 21.5523 11 21 11H20V13Z" fill="#0000CC"/>
</svg>
