<svg width="24" height="24" viewBox="0 0 24 24" fill="none" xmlns="http://www.w3.org/2000/svg">
<g opacity="0.3">
<path d="M21.8531 2.87146C21.3865 2.40498 20.6403 2.37403 20.1368 2.80028L12.326 9.41223L15.3123 12.3985L21.9243 4.58782C22.3506 4.08425 22.3196 3.33797 21.8531 2.87146Z" fill="#0000CC"/>
<path d="M9.26436 12.004L10.7943 10.7089L14.0156 13.9303L12.7205 15.4602C12.1891 16.088 11.415 16.3785 10.6601 16.3209C10.3085 15.2277 9.46886 14.3533 8.39772 13.9545C8.37498 13.235 8.66698 12.5097 9.26436 12.004Z" fill="#0000CC"/>
</g>
<path fill-rule="evenodd" clip-rule="evenodd" d="M2.48675 20.1676C3.30633 19.7578 3.71492 18.82 3.45694 17.9407C3.3826 17.6874 3.32741 17.3899 3.36055 17.0744C3.55852 15.189 5.15232 13.72 7.08989 13.72C9.16096 13.72 10.8399 15.3989 10.8399 17.47C10.8399 19.541 9.16096 21.22 7.08989 21.22H2.50005C2.26816 21.22 2.0667 21.0605 2.01342 20.8348C1.96015 20.6092 2.06904 20.3765 2.27644 20.2728L2.48675 20.1676Z" fill="#0000CC"/>
</svg>
