<svg width="24" height="24" viewBox="0 0 24 24" fill="none" xmlns="http://www.w3.org/2000/svg">
<path opacity="0.3" d="M19.0353 8.32899L15.4998 4.79346L5.40908 14.8839L5.40466 14.8886L5.36746 14.9258C4.56746 15.7257 4.1158 16.1773 3.76425 16.6997C3.45245 17.1631 3.20166 17.6646 3.01808 18.1921C2.8111 18.7867 2.72079 19.419 2.56083 20.539L2.50503 20.9296C2.48206 21.0904 2.53862 21.2523 2.65671 21.3638C2.77479 21.4754 2.93969 21.5226 3.0989 21.4904L3.63915 21.3814C4.64539 21.1784 5.21357 21.0638 5.74711 20.8538C6.22048 20.6675 6.67033 20.4262 7.08744 20.135C7.55758 19.8068 7.9674 19.3969 8.69324 18.671L19.0353 8.32899Z" fill="#0000CC"/>
<path d="M20.5927 3.23614C19.6164 2.25983 18.0335 2.25983 17.0572 3.23614L15.4998 4.79358L19.0353 8.32911L20.5927 6.77167C21.569 5.79536 21.569 4.21245 20.5927 3.23614Z" fill="#0000CC"/>
<path d="M12.932 19.5C12.4173 19.5 12 19.9477 12 20.5C12 21.0523 12.4173 21.5 12.932 21.5H20.388C20.9027 21.5 21.32 21.0523 21.32 20.5C21.32 19.9477 20.9027 19.5 20.388 19.5H12.932Z" fill="#0000CC"/>
</svg>
