<svg width="24" height="24" viewBox="0 0 24 24" fill="none" xmlns="http://www.w3.org/2000/svg">
<path opacity="0.3" d="M8.69323 18.6712C7.96741 19.397 7.55757 19.8069 7.08744 20.1351C6.67033 20.4263 6.22047 20.6676 5.74711 20.8539C5.21357 21.0639 4.64539 21.1785 3.63915 21.3815L3.0989 21.4905C2.93969 21.5227 2.77479 21.4754 2.65671 21.3639C2.53862 21.2524 2.48206 21.0905 2.50503 20.9297L2.56083 20.5391C2.72079 19.4191 2.8111 18.7868 3.01808 18.1922C3.20166 17.6647 3.45245 17.1632 3.76425 16.6998C4.1158 16.1774 4.56746 15.7258 5.36746 14.9259L14.4356 5.85767C13.6875 5.13018 13.4123 4.93675 13.1178 4.84105C12.7161 4.71054 12.2834 4.71054 11.8817 4.84105C11.7148 4.89529 11.5103 5.00792 11.175 5.2926C10.8307 5.58486 10.4184 5.99605 9.81275 6.60174L8.20686 8.20763C7.81634 8.59815 7.18317 8.59815 6.79265 8.20763C6.40212 7.81711 6.40212 7.18394 6.79265 6.79342L8.42775 5.15832C8.99692 4.58912 9.4667 4.11933 9.88065 3.76792C10.3106 3.40293 10.7456 3.10726 11.2637 2.93894C12.0671 2.67791 12.9324 2.67791 13.7358 2.93894C14.612 3.22363 15.3183 3.91092 16.2044 4.79166C17.2689 5.84984 18.3287 6.91283 19.3898 7.97449L8.69324 18.6711L8.69323 18.6712Z" fill="#0000CC"/>
<path d="M17.057 3.23614C18.0333 2.25983 19.6162 2.25983 20.5925 3.23614C21.5689 4.21245 21.5689 5.79536 20.5925 6.77167L19.3897 7.97456C18.2116 6.79582 17.0427 5.60715 15.8506 4.44256L17.057 3.23614Z" fill="#0000CC"/>
</svg>
