<svg width="24" height="24" viewBox="0 0 24 24" fill="none" xmlns="http://www.w3.org/2000/svg">
<path opacity="0.3" fill-rule="evenodd" clip-rule="evenodd" d="M6 4C4.89543 4 4 4.89543 4 6C4 7.10457 4.89543 8 6 8C7.10457 8 8 7.10457 8 6C8 4.89543 7.10457 4 6 4ZM2 6C2 3.79086 3.79086 2 6 2C8.20914 2 10 3.79086 10 6C10 6.72918 9.80489 7.41279 9.46402 8.00147L21.6779 19.2649C22.0839 19.6393 22.1095 20.2719 21.7351 20.6779C21.3607 21.0839 20.7281 21.1095 20.3221 20.7351L8.06142 9.42861C7.45941 9.79134 6.75407 10 6 10C3.79086 10 2 8.20914 2 6Z" fill="#0000CC"/>
<path fill-rule="evenodd" clip-rule="evenodd" d="M21.7351 3.32203C22.1095 3.72801 22.084 4.36066 21.678 4.73509L9.46462 15.9996C9.80511 16.588 10 17.2712 10 18C10 20.2091 8.20914 22 6 22C3.79086 22 2 20.2091 2 18C2 15.7909 3.79086 14 6 14C6.7545 14 7.46021 14.2089 8.06245 14.572L20.322 3.26492C20.728 2.89048 21.3607 2.91605 21.7351 3.32203ZM6 16C4.89543 16 4 16.8954 4 18C4 19.1046 4.89543 20 6 20C7.10457 20 8 19.1046 8 18C8 16.8954 7.10457 16 6 16Z" fill="#0000CC"/>
</svg>
