<svg width="24" height="24" viewBox="0 0 24 24" fill="none" xmlns="http://www.w3.org/2000/svg">
<path opacity="0.3" d="M4.43375 17.816C4.99796 18.3745 5.87523 18.3625 6.39684 17.8409L14.4425 9.79525C15.7707 8.46709 17.9184 8.50461 19.2395 9.82562C20.56 11.1462 20.5992 13.2932 19.2706 14.6218L16.2527 17.6397C16.0016 17.8907 15.9274 18.1399 15.9329 18.3752C15.9389 18.6347 16.0468 18.9393 16.2663 19.2292C16.7451 19.8614 17.4264 20.0655 17.8618 19.9009C18.0494 19.83 18.2322 19.7294 18.4959 19.5842L18.5285 19.5662C18.7842 19.4254 19.1217 19.2411 19.5038 19.1167L20.6729 18.7364C21.1981 18.5655 21.7623 18.8528 21.9332 19.378C22.104 19.9032 21.8168 20.4674 21.2916 20.6383L20.1226 21.0186C19.9428 21.0771 19.7575 21.1726 19.493 21.3183L19.4312 21.3524C19.199 21.4807 18.8963 21.648 18.569 21.7717C17.0196 22.3574 15.4765 21.4991 14.6719 20.4366C14.2497 19.8791 13.9511 19.1783 13.9334 18.4218C13.9152 17.6412 14.2001 16.8639 14.8385 16.2255L17.8564 13.2076C18.3792 12.6847 18.3897 11.8043 17.8252 11.2398C17.2612 10.6758 16.38 10.6862 15.8567 11.2095L7.81105 19.2551C6.4847 20.5815 4.34098 20.5459 3.01953 19.2302L4.43375 17.816Z" fill="#0000CC"/>
<path d="M12.4138 2.99945C11.0928 1.67844 8.94502 1.64091 7.61686 2.96908L2.92355 7.66239C2.53303 8.05291 2.53303 8.68608 2.92355 9.0766C3.31407 9.46713 3.94724 9.46713 4.33776 9.0766L9.03107 4.38329C9.55436 3.86 10.4356 3.84966 10.9996 4.41366C11.5636 4.97765 11.5532 5.85888 11.0299 6.38217L2.98428 14.4278C1.65611 15.756 1.69364 17.9038 3.01464 19.2248C3.01645 19.2266 3.01825 19.2284 3.02006 19.2302L4.43428 17.816C4.43247 17.8142 4.43066 17.8124 4.42886 17.8106C3.86486 17.2466 3.8752 16.3653 4.39849 15.8421L12.4442 7.79638C13.7723 6.46822 13.7348 4.32045 12.4138 2.99945Z" fill="#0000CC"/>
</svg>
