<svg width="24" height="24" viewBox="0 0 24 24" fill="none" xmlns="http://www.w3.org/2000/svg">
<path fill-rule="evenodd" clip-rule="evenodd" d="M9.46883 6.51051C8.99932 6.58469 8.34171 7.09595 7.91353 8.05587C7.68854 8.56025 7.09727 8.78675 6.59289 8.56177C6.08851 8.33678 5.86202 7.74551 6.087 7.24113C6.65882 5.9592 7.75122 4.75707 9.15672 4.53501C9.89511 4.41835 10.6462 4.59161 11.3156 5.07927C11.9644 5.55186 12.4962 6.28773 12.9163 7.24747C13.1288 7.73286 13.292 8.22053 13.4089 8.70741L15.6444 7.85624C15.9758 7.73006 16.3493 7.78881 16.6259 8.01066C16.9025 8.23252 17.041 8.58428 16.9898 8.93517L16.6568 11.2176H18.0003C18.5525 11.2176 19.0003 11.6653 19.0003 12.2176C19.0003 12.7699 18.5525 13.2176 18.0003 13.2176H15.5003C15.2098 13.2176 14.9338 13.0913 14.7438 12.8716C14.5539 12.652 14.4688 12.3606 14.5107 12.0732L14.7649 10.3312L13.6361 10.761C13.5736 14.6481 10.7534 17.9803 7.394 19.4192C7.08504 19.5516 6.73027 19.5199 6.44969 19.3348C6.16911 19.1498 6.00026 18.8361 6.00026 18.5C6.00026 17.0949 6.00215 15.6897 6.00013 14.2846C5.99918 13.6283 5.99835 13.052 6.19479 12.5334C6.36665 12.0797 6.64598 11.6745 7.00883 11.3524C7.42357 10.9843 7.96247 10.78 8.57606 10.5474C9.5577 10.1753 10.5383 9.80041 11.5194 9.42685C11.4299 8.97332 11.2871 8.51309 11.0842 8.04945C10.7543 7.29582 10.4112 6.89478 10.138 6.69583C9.88561 6.51195 9.66795 6.47905 9.46883 6.51051ZM11.5658 11.5493L9.41743 12.3673C8.59795 12.6793 8.44034 12.756 8.33645 12.8482C8.2155 12.9556 8.12239 13.0907 8.06511 13.2419C8.0159 13.3718 8.00026 13.5464 8.00026 14.4233V16.8269C9.86564 15.5895 11.2455 13.6614 11.5658 11.5493Z" fill="#0000CC"/>
<g opacity="0.3">
<path d="M2 16C2 15.4477 2.44772 15 3 15H4C4.55228 15 5 15.4477 5 16C5 16.5523 4.55228 17 4 17H3C2.44772 17 2 16.5523 2 16Z" fill="#0000CC"/>
<path d="M14 16C14 15.4477 14.4477 15 15 15H21C21.5523 15 22 15.4477 22 16C22 16.5523 21.5523 17 21 17H15C14.4477 17 14 16.5523 14 16Z" fill="#0000CC"/>
</g>
</svg>
