<svg width="24" height="24" viewBox="0 0 24 24" fill="none" xmlns="http://www.w3.org/2000/svg">
<path opacity="0.3" fill-rule="evenodd" clip-rule="evenodd" d="M3.32698 4.63803C3 5.27976 3 6.11984 3 7.8V16.2C3 17.8802 3 18.7202 3.32698 19.362C3.6146 19.9265 4.07354 20.3854 4.63803 20.673C5.27976 21 6.11984 21 7.8 21H16.2C17.8802 21 18.7202 21 19.362 20.673C19.9265 20.3854 20.3854 19.9265 20.673 19.362C21 18.7202 21 17.8802 21 16.2V7.8C21 6.11984 21 5.27976 20.673 4.63803C20.3854 4.07354 19.9265 3.6146 19.362 3.32698C18.7202 3 17.8802 3 16.2 3H7.8C6.11984 3 5.27976 3 4.63803 3.32698C4.07354 3.6146 3.6146 4.07354 3.32698 4.63803Z" fill="#0000CC"/>
<path fill-rule="evenodd" clip-rule="evenodd" d="M12 5.9502C12.6904 5.9502 13.25 6.50984 13.25 7.2002C13.25 7.89055 12.6904 8.4502 12 8.4502C11.3096 8.4502 10.75 7.89055 10.75 7.2002C10.75 6.50984 11.3096 5.9502 12 5.9502ZM12 10.6504C12.6904 10.6504 13.25 11.21 13.25 11.9004C13.25 12.5907 12.6904 13.1504 12 13.1504C11.3096 13.1504 10.75 12.5907 10.75 11.9004C10.75 11.21 11.3096 10.6504 12 10.6504ZM12 15.4502C12.6904 15.4502 13.25 16.0098 13.25 16.7002C13.25 17.3906 12.6904 17.9502 12 17.9502C11.3096 17.9502 10.75 17.3906 10.75 16.7002C10.75 16.0098 11.3096 15.4502 12 15.4502Z" fill="#0000CC"/>
</svg>
