<svg width="24" height="24" viewBox="0 0 24 24" fill="none" xmlns="http://www.w3.org/2000/svg">
<path opacity="0.3" fill-rule="evenodd" clip-rule="evenodd" d="M3.32698 4.63803C3 5.27976 3 6.11984 3 7.8V16.2C3 17.8802 3 18.7202 3.32698 19.362C3.6146 19.9265 4.07354 20.3854 4.63803 20.673C5.27976 21 6.11984 21 7.8 21H16.2C17.8802 21 18.7202 21 19.362 20.673C19.9265 20.3854 20.3854 19.9265 20.673 19.362C21 18.7202 21 17.8802 21 16.2V7.8C21 6.11984 21 5.27976 20.673 4.63803C20.3854 4.07354 19.9265 3.6146 19.362 3.32698C18.7202 3 17.8802 3 16.2 3H7.8C6.11984 3 5.27976 3 4.63803 3.32698C4.07354 3.6146 3.6146 4.07354 3.32698 4.63803Z" fill="#0000CC"/>
<path fill-rule="evenodd" clip-rule="evenodd" d="M8.5 11.9502C8.5 12.6406 7.94036 13.2002 7.25 13.2002C6.55964 13.2002 6 12.6406 6 11.9502C6 11.2598 6.55964 10.7002 7.25 10.7002C7.94036 10.7002 8.5 11.2598 8.5 11.9502ZM13.2998 11.9502C13.2998 12.6406 12.7402 13.2002 12.0498 13.2002C11.3594 13.2002 10.7998 12.6406 10.7998 11.9502C10.7998 11.2598 11.3594 10.7002 12.0498 10.7002C12.7402 10.7002 13.2998 11.2598 13.2998 11.9502ZM18 11.9502C18 12.6406 17.4404 13.2002 16.75 13.2002C16.0596 13.2002 15.5 12.6406 15.5 11.9502C15.5 11.2598 16.0596 10.7002 16.75 10.7002C17.4404 10.7002 18 11.2598 18 11.9502Z" fill="#0000CC"/>
</svg>
