<svg width="24" height="24" viewBox="0 0 24 24" fill="none" xmlns="http://www.w3.org/2000/svg">
<g opacity="0.3">
<path fill-rule="evenodd" clip-rule="evenodd" d="M15 10.786V10C15 9.44772 14.5523 9 14 9C13.7785 9 13.5737 9.07204 13.408 9.19398L7.80597 3.59195C7.90083 3.40492 8.00914 3.23195 8.14017 3.07527C8.46236 2.69 8.87612 2.39178 9.3435 2.20796C9.87802 1.99774 10.4779 1.99863 11.1614 1.99965H12.8386C13.5221 1.99863 14.122 1.99774 14.6565 2.20796C15.1239 2.39178 15.5376 2.69 15.8598 3.07527C16.2283 3.51587 16.4171 4.08525 16.6323 4.73396L16.7208 4.9998H20C20.5523 4.9998 21 5.44751 21 5.9998C21 6.55208 20.5523 6.9998 20 6.9998H18.9356L18.4529 14.2389L15 10.786ZM14.6094 4.9998H9.39062C9.54424 4.5606 9.60391 4.44258 9.6744 4.35829C9.7818 4.22986 9.91972 4.13046 10.0755 4.06918C10.2092 4.0166 10.3917 3.9998 11.3064 3.9998H12.6936C13.6083 3.9998 13.7908 4.0166 13.9245 4.06918C14.0803 4.13046 14.2182 4.22986 14.3256 4.35829C14.3961 4.44258 14.4558 4.5606 14.6094 4.9998Z" fill="#0000CC"/>
<path d="M3 5.9998C3 5.57104 3.26983 5.20531 3.64894 5.06315L9 10.4142V17C9 17.5523 9.44772 18 10 18C10.5523 18 11 17.5523 11 17V12.4142L13 14.4142V17C13 17.5523 13.4477 18 14 18C14.5523 18 15 17.5523 15 17V16.4142L18.0673 19.4815C18.0111 19.824 17.9197 20.1616 17.7356 20.4848C17.4355 21.0116 16.9828 21.4351 16.4372 21.6995C16.0732 21.8759 15.6995 21.9418 15.3233 21.9716C14.9682 21.9998 14.5389 21.9998 14.0433 21.9998H9.95666C9.46107 21.9998 9.03183 21.9998 8.67668 21.9716C8.30052 21.9418 7.9268 21.8759 7.56278 21.6995C7.0172 21.4351 6.56454 21.0116 6.26443 20.4848C6.0642 20.1333 5.9736 19.7648 5.91878 19.3915C5.86702 19.0389 5.83849 18.6107 5.80553 18.1161L5.06445 6.9998H4C3.44772 6.9998 3 6.55208 3 5.9998Z" fill="#0000CC"/>
</g>
<path fill-rule="evenodd" clip-rule="evenodd" d="M2.29289 2.29289C2.68342 1.90237 3.31658 1.90237 3.70711 2.29289L21.7071 20.2929C22.0976 20.6834 22.0976 21.3166 21.7071 21.7071C21.3166 22.0976 20.6834 22.0976 20.2929 21.7071L2.29289 3.70711C1.90237 3.31658 1.90237 2.68342 2.29289 2.29289Z" fill="#0000CC"/>
</svg>
