<svg width="24" height="24" viewBox="0 0 24 24" fill="none" xmlns="http://www.w3.org/2000/svg">
<path opacity="0.3" fill-rule="evenodd" clip-rule="evenodd" d="M5.06445 7L5.80553 18.1161C5.83848 18.6107 5.86702 19.0389 5.91878 19.3915C5.97359 19.7648 6.06419 20.1333 6.26442 20.4848C6.56453 21.0116 7.0172 21.4351 7.56278 21.6995C7.92679 21.8759 8.30051 21.9418 8.67668 21.9716C9.03185 21.9998 9.46107 21.9998 9.95671 21.9998H14.0432C14.5389 21.9998 14.9681 21.9998 15.3233 21.9716C15.6995 21.9418 16.0732 21.8759 16.4372 21.6995C16.9828 21.4351 17.4355 21.0116 17.7356 20.4848C17.9358 20.1333 18.0264 19.7648 18.0812 19.3915C18.133 19.0389 18.1615 18.6107 18.1945 18.1161L18.9355 7H5.06445Z" fill="#0000CC"/>
<path fill-rule="evenodd" clip-rule="evenodd" d="M9.3435 2.20796C9.87802 1.99774 10.4779 1.99863 11.1614 1.99965H12.8386C13.5221 1.99863 14.122 1.99774 14.6565 2.20796C15.1239 2.39178 15.5376 2.69 15.8598 3.07527C16.2283 3.51587 16.4171 4.08525 16.6323 4.73396L16.7208 4.9998H20C20.5523 4.9998 21 5.44751 21 5.9998C21 6.55208 20.5523 6.9998 20 6.9998H4C3.44772 6.9998 3 6.55208 3 5.9998C3 5.44751 3.44772 4.9998 4 4.9998H7.27924L7.3677 4.73397C7.58286 4.08525 7.77171 3.51588 8.14017 3.07527C8.46236 2.69 8.87612 2.39178 9.3435 2.20796ZM14.6094 4.9998H9.39062C9.54424 4.5606 9.60391 4.44258 9.6744 4.35829C9.7818 4.22986 9.91972 4.13046 10.0755 4.06918C10.2092 4.0166 10.3917 3.9998 11.3064 3.9998H12.6936C13.6083 3.9998 13.7908 4.0166 13.9245 4.06918C14.0803 4.13046 14.2182 4.22986 14.3256 4.35829C14.3961 4.44258 14.4558 4.5606 14.6094 4.9998Z" fill="#0000CC"/>
<path d="M10 9C10.5523 9 11 9.44772 11 10V17C11 17.5523 10.5523 18 10 18C9.44772 18 9 17.5523 9 17V10C9 9.44772 9.44772 9 10 9Z" fill="#0000CC"/>
<path d="M14 9C14.5523 9 15 9.44772 15 10V17C15 17.5523 14.5523 18 14 18C13.4477 18 13 17.5523 13 17V10C13 9.44772 13.4477 9 14 9Z" fill="#0000CC"/>
</svg>
