<svg width="24" height="24" viewBox="0 0 24 24" fill="none" xmlns="http://www.w3.org/2000/svg">
<path opacity="0.3" fill-rule="evenodd" clip-rule="evenodd" d="M3.06445 7L3.80553 18.1161C3.83848 18.6107 3.86702 19.0389 3.91878 19.3915C3.97359 19.7648 4.06419 20.1333 4.26442 20.4848C4.56453 21.0116 5.0172 21.4351 5.56278 21.6995C5.92679 21.8759 6.30051 21.9418 6.67668 21.9716C7.03185 21.9998 7.46107 21.9998 7.95671 21.9998H12.0432C12.5389 21.9998 12.9681 21.9998 13.3233 21.9716C13.6995 21.9418 14.0732 21.8759 14.4372 21.6995C14.9828 21.4351 15.4355 21.0116 15.7356 20.4848C15.9358 20.1333 16.0264 19.7648 16.0812 19.3915C16.133 19.0389 16.1615 18.6107 16.1945 18.1161L16.9355 7H3.06445ZM7.99999 9C8.55228 9 8.99999 9.44772 8.99999 10V17C8.99999 17.5523 8.55228 18 7.99999 18C7.44771 18 6.99999 17.5523 6.99999 17V10C6.99999 9.44772 7.44771 9 7.99999 9ZM12 9C12.5523 9 13 9.44772 13 10V17C13 17.5523 12.5523 18 12 18C11.4477 18 11 17.5523 11 17V10C11 9.44772 11.4477 9 12 9Z" fill="#0000CC"/>
<path fill-rule="evenodd" clip-rule="evenodd" d="M9.16137 1.99965C8.47789 1.99863 7.87802 1.99774 7.3435 2.20796C6.87612 2.39178 6.46236 2.69 6.14017 3.07527C5.77171 3.51588 5.58286 4.08525 5.3677 4.73397L5.27924 4.9998H2C1.44772 4.9998 1 5.44751 1 5.9998C1 6.55208 1.44772 6.9998 2 6.9998H18C18.5523 6.9998 19 6.55208 19 5.9998C19 5.44751 18.5523 4.9998 18 4.9998H14.7208L14.6323 4.73396C14.4171 4.08525 14.2283 3.51587 13.8598 3.07527C13.5376 2.69 13.1239 2.39178 12.6565 2.20796C12.122 1.99774 11.5221 1.99863 10.8386 1.99965H9.16137ZM7.39062 4.9998H12.6094C12.4558 4.5606 12.3961 4.44258 12.3256 4.35829C12.2182 4.22986 12.0803 4.13046 11.9245 4.06918C11.7908 4.0166 11.6083 3.9998 10.6936 3.9998H9.30643C8.39173 3.9998 8.20921 4.0166 8.07551 4.06918C7.91972 4.13046 7.7818 4.22986 7.6744 4.35829C7.60391 4.44258 7.54424 4.5606 7.39062 4.9998Z" fill="#0000CC"/>
<path d="M19 8C18.4477 8 18 8.44772 18 9C18 9.55228 18.4477 10 19 10H22C22.5523 10 23 9.55228 23 9C23 8.44772 22.5523 8 22 8H19Z" fill="#0000CC"/>
<path d="M19 13C18.4477 13 18 13.4477 18 14C18 14.5523 18.4477 15 19 15H22C22.5523 15 23 14.5523 23 14C23 13.4477 22.5523 13 22 13H19Z" fill="#0000CC"/>
<path d="M19 18C18.4477 18 18 18.4477 18 19C18 19.5523 18.4477 20 19 20H21C21.5523 20 22 19.5523 22 19C22 18.4477 21.5523 18 21 18H19Z" fill="#0000CC"/>
</svg>
