<svg width="24" height="24" viewBox="0 0 24 24" fill="none" xmlns="http://www.w3.org/2000/svg">
<path opacity="0.3" fill-rule="evenodd" clip-rule="evenodd" d="M5.06445 7L5.80553 18.1161C5.83848 18.6107 5.86702 19.0389 5.91878 19.3915C5.97359 19.7648 6.06419 20.1333 6.26442 20.4848C6.56453 21.0116 7.0172 21.4351 7.56278 21.6995C7.92679 21.8759 8.30051 21.9418 8.67668 21.9716C9.03185 21.9998 9.46107 21.9998 9.95671 21.9998H14.0432C14.5389 21.9998 14.9681 21.9998 15.3233 21.9716C15.6995 21.9418 16.0732 21.8759 16.4372 21.6995C16.9828 21.4351 17.4355 21.0116 17.7356 20.4848C17.9358 20.1333 18.0264 19.7648 18.0812 19.3915C18.133 19.0389 18.1615 18.6107 18.1945 18.1161L18.9355 7H5.06445Z" fill="#0000CC"/>
<path fill-rule="evenodd" clip-rule="evenodd" d="M11.1614 1.99965C10.4779 1.99863 9.87802 1.99774 9.3435 2.20796C8.87612 2.39178 8.46236 2.69 8.14017 3.07527C7.77171 3.51588 7.58286 4.08525 7.3677 4.73397L7.27924 4.9998H4C3.44772 4.9998 3 5.44751 3 5.9998C3 6.55208 3.44772 6.9998 4 6.9998H20C20.5523 6.9998 21 6.55208 21 5.9998C21 5.44751 20.5523 4.9998 20 4.9998H16.7208L16.6323 4.73396C16.4171 4.08525 16.2283 3.51587 15.8598 3.07527C15.5376 2.69 15.1239 2.39178 14.6565 2.20796C14.122 1.99774 13.5221 1.99863 12.8386 1.99965H11.1614ZM9.39062 4.9998H14.6094C14.4558 4.5606 14.3961 4.44258 14.3256 4.35829C14.2182 4.22986 14.0803 4.13046 13.9245 4.06918C13.7908 4.0166 13.6083 3.9998 12.6936 3.9998H11.3064C10.3917 3.9998 10.2092 4.0166 10.0755 4.06918C9.91972 4.13046 9.7818 4.22986 9.6744 4.35829C9.60391 4.44258 9.54424 4.5606 9.39062 4.9998Z" fill="#0000CC"/>
<path d="M11.2929 9.79289C11.6834 9.40237 12.3166 9.40237 12.7071 9.79289L14.7071 11.7929C15.0976 12.1834 15.0976 12.8166 14.7071 13.2071C14.3166 13.5976 13.6834 13.5976 13.2929 13.2071L13 12.9142V16.5C13 17.0523 12.5523 17.5 12 17.5C11.4477 17.5 11 17.0523 11 16.5V12.9142L10.7071 13.2071C10.3166 13.5976 9.68342 13.5976 9.29289 13.2071C8.90237 12.8166 8.90237 12.1834 9.29289 11.7929L11.2929 9.79289Z" fill="#0000CC"/>
</svg>
