<svg width="24" height="24" viewBox="0 0 24 24" fill="none" xmlns="http://www.w3.org/2000/svg">
<g opacity="0.3">
<path fill-rule="evenodd" clip-rule="evenodd" d="M15 10.786V10C15 9.44772 14.5523 9 14 9C13.7785 9 13.5737 9.07204 13.408 9.19398L7.80597 3.59195C7.90083 3.40492 8.00914 3.23195 8.14017 3.07527C8.46236 2.69 8.87612 2.39178 9.3435 2.20796C9.87802 1.99774 10.4779 1.99863 11.1614 1.99965H12.8386C13.5221 1.99863 14.122 1.99774 14.6565 2.20796C15.1239 2.39178 15.5376 2.69 15.8598 3.07527C16.2283 3.51587 16.4171 4.08525 16.6323 4.73396L16.7208 4.9998H20C20.5523 4.9998 21 5.44751 21 5.9998C21 6.55208 20.5523 6.9998 20 6.9998H19V14.786L15 10.786ZM14.6094 4.9998H9.39062C9.54424 4.5606 9.60391 4.44258 9.6744 4.35829C9.7818 4.22986 9.91972 4.13046 10.0755 4.06918C10.2092 4.0166 10.3917 3.9998 11.3064 3.9998H12.6936C13.6083 3.9998 13.7908 4.0166 13.9245 4.06918C14.0803 4.13046 14.2182 4.22986 14.3256 4.35829C14.3961 4.44258 14.4558 4.5606 14.6094 4.9998Z" fill="#0000CC"/>
<path d="M3 5.9998C3 5.57104 3.26983 5.20531 3.64894 5.06315L9 10.4142V17C9 17.5523 9.44772 18 10 18C10.5523 18 11 17.5523 11 17V12.4142L13 14.4142V17C13 17.5523 13.4477 18 14 18C14.5523 18 15 17.5523 15 17V16.4142L18.5078 19.9221C18.1221 20.626 17.5329 21.1985 16.816 21.5638C16.3306 21.8111 15.8139 21.9097 15.2518 21.9556C14.7106 21.9998 14.0463 21.9998 13.2413 21.9998H10.7587C9.95372 21.9998 9.28936 21.9998 8.74817 21.9556C8.18608 21.9097 7.66937 21.8111 7.18404 21.5638C6.43139 21.1803 5.81947 20.5684 5.43597 19.8158C5.18868 19.3304 5.09012 18.8137 5.04419 18.2516C4.99998 17.7104 4.99999 17.0461 5 16.2411L5 6.9998H4C3.44772 6.9998 3 6.55208 3 5.9998Z" fill="#0000CC"/>
</g>
<path fill-rule="evenodd" clip-rule="evenodd" d="M2.29289 2.29289C2.68342 1.90237 3.31658 1.90237 3.70711 2.29289L21.7071 20.2929C22.0976 20.6834 22.0976 21.3166 21.7071 21.7071C21.3166 22.0976 20.6834 22.0976 20.2929 21.7071L2.29289 3.70711C1.90237 3.31658 1.90237 2.68342 2.29289 2.29289Z" fill="#0000CC"/>
</svg>
