<svg width="24" height="24" viewBox="0 0 24 24" fill="none" xmlns="http://www.w3.org/2000/svg">
<path opacity="0.3" fill-rule="evenodd" clip-rule="evenodd" d="M5 7V16.2411C4.99999 17.0461 4.99998 17.7104 5.0442 18.2516C5.09012 18.8137 5.18868 19.3304 5.43598 19.8158C5.81947 20.5684 6.43139 21.1803 7.18404 21.5638C7.66937 21.8111 8.18608 21.9097 8.74818 21.9556C9.28937 21.9998 9.95372 21.9998 10.7587 21.9998H13.2413C14.0463 21.9998 14.7106 21.9998 15.2518 21.9556C15.8139 21.9097 16.3306 21.8111 16.816 21.5638C17.5686 21.1803 18.1805 20.5684 18.564 19.8158C18.8113 19.3304 18.9099 18.8137 18.9558 18.2516C19 17.7104 19 17.0461 19 16.2411V7H5Z" fill="#0000CC"/>
<path fill-rule="evenodd" clip-rule="evenodd" d="M9.3435 2.20796C9.87802 1.99774 10.4779 1.99863 11.1614 1.99965H12.8386C13.5221 1.99863 14.122 1.99774 14.6565 2.20796C15.1239 2.39178 15.5376 2.69 15.8598 3.07527C16.2283 3.51587 16.4171 4.08525 16.6323 4.73396L16.7208 4.9998H20C20.5523 4.9998 21 5.44751 21 5.9998C21 6.55208 20.5523 6.9998 20 6.9998H4C3.44772 6.9998 3 6.55208 3 5.9998C3 5.44751 3.44772 4.9998 4 4.9998H7.27924L7.3677 4.73397C7.58286 4.08525 7.77171 3.51588 8.14017 3.07527C8.46236 2.69 8.87612 2.39178 9.3435 2.20796ZM14.6094 4.99982H9.39062C9.54424 4.56062 9.60391 4.44261 9.67441 4.35831C9.7818 4.22988 9.91972 4.13048 10.0755 4.0692C10.2092 4.01662 10.3917 3.99982 11.3064 3.99982H12.6936C13.6083 3.99982 13.7908 4.01662 13.9245 4.0692C14.0803 4.13048 14.2182 4.22988 14.3256 4.35831C14.3961 4.44261 14.4558 4.56062 14.6094 4.99982Z" fill="#0000CC"/>
<path d="M10 9C10.5523 9 11 9.44772 11 10V17C11 17.5523 10.5523 18 10 18C9.44772 18 9 17.5523 9 17V10C9 9.44772 9.44772 9 10 9Z" fill="#0000CC"/>
<path d="M14 9C14.5523 9 15 9.44772 15 10V17C15 17.5523 14.5523 18 14 18C13.4477 18 13 17.5523 13 17V10C13 9.44772 13.4477 9 14 9Z" fill="#0000CC"/>
</svg>
