<svg width="24" height="24" viewBox="0 0 24 24" fill="none" xmlns="http://www.w3.org/2000/svg">
<path d="M16.8385 3H7.16146C6.63433 2.99998 6.17954 2.99997 5.80497 3.03057C5.40963 3.06287 5.01641 3.13419 4.63803 3.32698C4.07354 3.6146 3.6146 4.07354 3.32698 4.63803C3.13419 5.01641 3.06287 5.40963 3.03057 5.80497C2.99997 6.17954 2.99998 6.63429 3 7.16142V13.8385C2.99998 14.3657 2.99997 14.8205 3.03057 15.195C3.06287 15.5904 3.13419 15.9836 3.32698 16.362C3.6146 16.9265 4.07354 17.3854 4.63803 17.673C5.01641 17.8658 5.40963 17.9371 5.80497 17.9694C6.17954 18 6.47285 18 7 18C7.38866 18 7.79058 17.9635 8.17103 18.0523C8.36348 18.0972 8.56593 18.1785 8.73596 18.2792C8.93402 18.3966 9.09114 18.5471 9.40538 18.8482C10.0454 19.4614 10.6824 20.0966 11.2929 20.7071C11.6834 21.0976 12.3166 21.0976 12.7071 20.7071C13.0126 20.4016 13.8832 19.5591 14.572 18.8944C14.9133 18.565 15.0839 18.4003 15.2827 18.2819C15.4585 18.1771 15.6506 18.0995 15.8499 18.0528C16.0751 18 16.3132 18 16.7894 18C17.2592 18 17.7267 18.0077 18.195 17.9694C18.5904 17.9371 18.9836 17.8658 19.362 17.673C19.9265 17.3854 20.3854 16.9265 20.673 16.362C20.8658 15.9836 20.9371 15.5904 20.9694 15.195C21 14.8205 21 14.3657 21 13.8386V7.16144C21 6.6343 21 6.17954 20.9694 5.80497C20.9371 5.40963 20.8658 5.01641 20.673 4.63803C20.3854 4.07354 19.9265 3.6146 19.362 3.32698C18.9836 3.13419 18.5904 3.06287 18.195 3.03057C17.8205 2.99997 17.3657 2.99998 16.8385 3Z" fill="#0000CC"/>
</svg>
