<svg width="24" height="24" viewBox="0 0 24 24" fill="none" xmlns="http://www.w3.org/2000/svg">
<path fill-rule="evenodd" clip-rule="evenodd" d="M12 4C7.58172 4 4 7.58172 4 12C4 16.4183 7.58172 20 12 20C13.8025 20 15.4631 19.4051 16.8002 18.4005C17.2417 18.0688 17.8686 18.1578 18.2004 18.5993C18.5321 19.0409 18.4431 19.6677 18.0016 19.9995C16.33 21.2554 14.2505 22 12 22C6.47715 22 2 17.5228 2 12C2 6.47715 6.47715 2 12 2C17.5228 2 22 6.47715 22 12V13.5C22 15.433 20.433 17 18.5 17C17.2958 17 16.2336 16.3918 15.6038 15.4659C14.6942 16.4115 13.4158 17 12 17C9.23858 17 7 14.7614 7 12C7 9.23858 9.23858 7 12 7C13.1256 7 14.1643 7.37194 15 7.99963C15.0002 7.44752 15.4478 7 16 7C16.5523 7 17 7.44772 17 8V13.5C17 14.3284 17.6716 15 18.5 15C19.3284 15 20 14.3284 20 13.5V12C20 7.58172 16.4183 4 12 4ZM15 12C15 10.3431 13.6569 9 12 9C10.3431 9 9 10.3431 9 12C9 13.6569 10.3431 15 12 15C13.6569 15 15 13.6569 15 12Z" fill="#0000CC"/>
</svg>
