<svg width="24" height="24" viewBox="0 0 24 24" fill="none" xmlns="http://www.w3.org/2000/svg">
<path fill-rule="evenodd" clip-rule="evenodd" d="M8.16146 3H15.8385C16.3657 2.99998 16.8205 2.99997 17.195 3.03057C17.5904 3.06287 17.9836 3.13419 18.362 3.32698C18.9265 3.6146 19.3854 4.07354 19.673 4.63803C19.8658 5.01641 19.9371 5.40963 19.9694 5.80497C20 6.17954 20 6.6343 20 7.16144V11H21C21.5523 11 22 11.4477 22 12V16.8386C22 17.3657 22 17.8205 21.9694 18.195C21.9371 18.5904 21.8658 18.9836 21.673 19.362C21.3854 19.9265 20.9265 20.3854 20.362 20.673C19.9836 20.8658 19.5904 20.9371 19.195 20.9694C18.8205 21 18.3657 21 17.8386 21H6.16144C5.6343 21 5.17954 21 4.80497 20.9694C4.40963 20.9371 4.01641 20.8658 3.63803 20.673C3.07354 20.3854 2.6146 19.9265 2.32698 19.362C2.13419 18.9836 2.06287 18.5904 2.03057 18.195C1.99997 17.8205 1.99998 17.3657 2 16.8385L2 12C2 11.4477 2.44772 11 3 11H4L4 7.16146C3.99998 6.63431 3.99997 6.17955 4.03057 5.80497C4.06287 5.40963 4.13419 5.01641 4.32698 4.63803C4.6146 4.07354 5.07354 3.6146 5.63803 3.32698C6.01641 3.13419 6.40963 3.06287 6.80497 3.03057C7.17955 2.99997 7.63431 2.99998 8.16146 3ZM18 11H17.3255C17.2975 11 17.2697 11 17.2422 11C16.8353 10.9996 16.4765 10.9992 16.1281 11.0829C15.822 11.1564 15.5293 11.2776 15.2609 11.4421C14.9554 11.6293 14.702 11.8832 14.4145 12.1712C14.395 12.1907 14.3754 12.2104 14.3556 12.2302L14.2302 12.3556C13.8506 12.7352 13.7715 12.8052 13.6941 12.8526C13.6046 12.9075 13.5071 12.9479 13.405 12.9724C13.3167 12.9936 13.2113 13 12.6745 13H11.3255C10.7887 13 10.6833 12.9936 10.595 12.9724C10.4929 12.9479 10.3954 12.9075 10.3059 12.8526C10.2285 12.8052 10.1494 12.7352 9.76985 12.3556L9.64437 12.2302C9.62457 12.2104 9.60496 12.1907 9.5855 12.1712C9.29805 11.8832 9.04461 11.6293 8.73907 11.4421C8.47065 11.2776 8.17802 11.1564 7.87191 11.0829C7.52347 10.9992 7.16472 10.9996 6.75783 11C6.73028 11 6.70252 11 6.67452 11H6V7.2C6 6.62345 6.00078 6.25117 6.02393 5.96784C6.04612 5.69617 6.0838 5.59546 6.109 5.54601C6.20487 5.35785 6.35785 5.20487 6.54601 5.109C6.59546 5.0838 6.69617 5.04612 6.96784 5.02393C7.25117 5.00078 7.62345 5 8.2 5H15.8C16.3766 5 16.7488 5.00078 17.0322 5.02393C17.3038 5.04612 17.4045 5.0838 17.454 5.109C17.6422 5.20487 17.7951 5.35785 17.891 5.54601C17.9162 5.59546 17.9539 5.69617 17.9761 5.96784C17.9992 6.25118 18 6.62345 18 7.2V11Z" fill="#0000CC"/>
</svg>
