<svg width="24" height="24" viewBox="0 0 24 24" fill="none" xmlns="http://www.w3.org/2000/svg">
<path fill-rule="evenodd" clip-rule="evenodd" d="M9.54403 3.00007C9.59652 3.00011 9.6497 3.00015 9.70361 3.00015H14.2964C14.3503 3.00015 14.4035 3.00011 14.456 3.00007C15.4234 2.99939 16.1524 2.99888 16.8107 3.23501C17.3895 3.44262 17.9127 3.7809 18.3396 4.22355C18.8251 4.727 19.1237 5.392 19.5201 6.27448C19.5416 6.32236 19.5634 6.37087 19.5855 6.42003L21.9119 11.5898C21.97 11.7188 22 11.8587 22 12.0001V15.8387C22 16.3659 22 16.8206 21.9694 17.1952C21.9371 17.5905 21.8658 17.9837 21.673 18.3621C21.3854 18.9266 20.9265 19.3855 20.362 19.6732C19.9836 19.866 19.5904 19.9373 19.195 19.9696C18.8205 20.0002 18.3657 20.0002 17.8386 20.0001H6.16144C5.6343 20.0002 5.17954 20.0002 4.80497 19.9696C4.40963 19.9373 4.01641 19.866 3.63803 19.6732C3.07354 19.3855 2.6146 18.9266 2.32698 18.3621C2.13419 17.9837 2.06287 17.5905 2.03057 17.1952C1.99997 16.8206 1.99998 16.3658 2 15.8387L2 12.0001C2 11.8587 2.03002 11.7188 2.08808 11.5898L4.41447 6.42003C4.43659 6.37087 4.45838 6.32235 4.47989 6.27447C4.87626 5.392 5.17495 4.72699 5.66043 4.22355C6.08729 3.7809 6.61046 3.44262 7.1893 3.23501C7.84762 2.99888 8.57662 2.99939 9.54403 3.00007ZM9.70361 5.00015C8.50384 5.00015 8.1527 5.01422 7.86453 5.11758C7.57511 5.22138 7.31353 5.39052 7.1001 5.61185C6.88759 5.83222 6.73065 6.14666 6.23831 7.24076L4.54659 11.0001H6.67452C6.70252 11.0001 6.73028 11.0001 6.75782 11.0001C7.16471 10.9997 7.52347 10.9994 7.87191 11.083C8.17802 11.1565 8.47066 11.2777 8.73907 11.4422C9.04462 11.6295 9.29807 11.8834 9.58552 12.1714C9.60497 12.1909 9.62458 12.2105 9.64437 12.2303L9.76985 12.3558C10.1494 12.7353 10.2285 12.8053 10.3059 12.8528C10.3954 12.9076 10.493 12.948 10.595 12.9725C10.6833 12.9937 10.7887 13.0001 11.3255 13.0001H12.6745C13.2113 13.0001 13.3167 12.9937 13.405 12.9725C13.5071 12.948 13.6046 12.9076 13.6941 12.8528C13.7715 12.8053 13.8506 12.7353 14.2302 12.3558L14.3556 12.2303C14.3754 12.2105 14.395 12.1909 14.4145 12.1714C14.7019 11.8834 14.9554 11.6295 15.2609 11.4422C15.5293 11.2777 15.822 11.1565 16.1281 11.083C16.4765 10.9994 16.8353 10.9997 17.2422 11.0001C17.2697 11.0001 17.2975 11.0001 17.3255 11.0001H19.4534L17.7617 7.24076C17.2693 6.14666 17.1124 5.83222 16.8999 5.61185C16.6865 5.39052 16.4249 5.22138 16.1355 5.11758C15.8473 5.01422 15.4962 5.00015 14.2964 5.00015H9.70361Z" fill="#0000CC"/>
</svg>
