<svg width="24" height="24" viewBox="0 0 24 24" fill="none" xmlns="http://www.w3.org/2000/svg">
<path d="M12.2929 7.29289C12.6834 6.90237 13.3166 6.90237 13.7071 7.29289L15.7071 9.29289C16.0976 9.68342 16.0976 10.3166 15.7071 10.7071L13.7071 12.7071C13.3166 13.0976 12.6834 13.0976 12.2929 12.7071C11.9024 12.3166 11.9024 11.6834 12.2929 11.2929L12.5858 11H9C8.44772 11 8 10.5523 8 10C8 9.44772 8.44772 9 9 9H12.5858L12.2929 8.70711C11.9024 8.31658 11.9024 7.68342 12.2929 7.29289Z" fill="#0000CC"/>
<path fill-rule="evenodd" clip-rule="evenodd" d="M16.8385 3H7.16146C6.63433 2.99998 6.17954 2.99997 5.80497 3.03057C5.40963 3.06287 5.01641 3.13419 4.63803 3.32698C4.07354 3.6146 3.6146 4.07354 3.32698 4.63803C3.13419 5.01641 3.06287 5.40963 3.03057 5.80497C2.99997 6.17954 2.99998 6.63429 3 7.16142V16.8385C2.99998 17.3657 2.99997 17.8205 3.03057 18.195C3.06287 18.5904 3.13419 18.9836 3.32698 19.362C3.6146 19.9265 4.07354 20.3854 4.63803 20.673C5.01641 20.8658 5.40963 20.9371 5.80497 20.9694C6.17954 21 6.6343 21 7.16144 21H16.8386C17.3657 21 17.8205 21 18.195 20.9694C18.5904 20.9371 18.9836 20.8658 19.362 20.673C19.9265 20.3854 20.3854 19.9265 20.673 19.362C20.8658 18.9836 20.9371 18.5904 20.9694 18.195C21 17.8205 21 17.3657 21 16.8386V7.16144C21 6.6343 21 6.17954 20.9694 5.80497C20.9371 5.40963 20.8658 5.01641 20.673 4.63803C20.3854 4.07354 19.9265 3.6146 19.362 3.32698C18.9836 3.13419 18.5904 3.06287 18.195 3.03057C17.8205 2.99997 17.3657 2.99998 16.8385 3ZM19 13V7.2C19 6.62345 18.9992 6.25118 18.9761 5.96784C18.9539 5.69618 18.9162 5.59546 18.891 5.54601C18.7951 5.35785 18.6422 5.20487 18.454 5.109C18.4045 5.0838 18.3038 5.04613 18.0322 5.02393C17.7488 5.00078 17.3766 5 16.8 5H7.2C6.62345 5 6.25118 5.00078 5.96784 5.02393C5.69618 5.04613 5.59546 5.0838 5.54601 5.109C5.35785 5.20487 5.20487 5.35785 5.109 5.54601C5.0838 5.59546 5.04613 5.69618 5.02393 5.96784C5.00078 6.25118 5 6.62345 5 7.2V13L6.75783 13C7.16472 12.9996 7.52347 12.9992 7.87191 13.0829C8.17802 13.1564 8.47066 13.2776 8.73907 13.4421C9.04461 13.6293 9.29805 13.8832 9.5855 14.1712L9.76985 14.3556C10.1494 14.7352 10.2285 14.8052 10.3059 14.8526C10.3954 14.9075 10.4929 14.9479 10.595 14.9724C10.6833 14.9936 10.7887 15 11.3255 15H12.6745C13.2113 15 13.3167 14.9936 13.405 14.9724C13.5071 14.9479 13.6046 14.9075 13.6941 14.8526C13.7715 14.8052 13.8506 14.7352 14.2302 14.3556L14.4145 14.1712C14.702 13.8832 14.9554 13.6293 15.2609 13.4421C15.5294 13.2776 15.822 13.1564 16.1281 13.0829C16.4765 12.9992 16.8353 12.9996 17.2422 13L19 13Z" fill="#0000CC"/>
</svg>
