<svg width="24" height="24" viewBox="0 0 24 24" fill="none" xmlns="http://www.w3.org/2000/svg">
<path fill-rule="evenodd" clip-rule="evenodd" d="M6.16146 4H17.8385C18.3657 3.99998 18.8205 3.99997 19.195 4.03057C19.5904 4.06287 19.9836 4.13419 20.362 4.32698C20.9265 4.6146 21.3854 5.07355 21.673 5.63803C21.8658 6.01641 21.9371 6.40963 21.9694 6.80497C22 7.17954 22 7.6343 22 8.16144V15.8386C22 16.3657 22 16.8205 21.9694 17.195C21.9371 17.5904 21.8658 17.9836 21.673 18.362C21.3854 18.9265 20.9265 19.3854 20.362 19.673C19.9836 19.8658 19.5904 19.9371 19.195 19.9694C18.8205 20 18.3657 20 17.8385 20H6.16148C5.63432 20 5.17955 20 4.80497 19.9694C4.40963 19.9371 4.01641 19.8658 3.63803 19.673C3.07354 19.3854 2.6146 18.9265 2.32698 18.362C2.13419 17.9836 2.06287 17.5904 2.03057 17.195C1.99997 16.8205 1.99998 16.3657 2 15.8385V8.16146C1.99998 7.63431 1.99997 7.17955 2.03057 6.80497C2.06287 6.40963 2.13419 6.01641 2.32698 5.63803C2.6146 5.07354 3.07354 4.6146 3.63803 4.32698C4.01641 4.13419 4.40963 4.06287 4.80497 4.03057C5.17955 3.99997 5.63431 3.99998 6.16146 4ZM20 12V8.2C20 7.62345 19.9992 7.25117 19.9761 6.96784C19.9539 6.69617 19.9162 6.59546 19.891 6.54601C19.7951 6.35785 19.6422 6.20487 19.454 6.109C19.4045 6.0838 19.3038 6.04612 19.0322 6.02393C18.7488 6.00078 18.3766 6 17.8 6H6.2C5.62345 6 5.25118 6.00078 4.96784 6.02393C4.69617 6.04612 4.59546 6.0838 4.54601 6.109C4.35785 6.20487 4.20487 6.35785 4.109 6.54601C4.0838 6.59546 4.04612 6.69617 4.02393 6.96784C4.00078 7.25117 4 7.62345 4 8.2V12H6.83726C6.85383 12 6.87086 12 6.8883 11.9999C7.07821 11.9994 7.31735 11.9988 7.55268 12.0553C7.75675 12.1043 7.95184 12.1851 8.13079 12.2947C8.33714 12.4212 8.50578 12.5907 8.63971 12.7254C8.65201 12.7377 8.66402 12.7498 8.67574 12.7615L9.26985 13.3556C9.64941 13.7352 9.72849 13.8052 9.80593 13.8526C9.8954 13.9075 9.99295 13.9479 10.095 13.9724C10.1833 13.9936 10.2887 14 10.8255 14H13.1745C13.7113 14 13.8167 13.9936 13.905 13.9724C14.0071 13.9479 14.1046 13.9075 14.1941 13.8526C14.2715 13.8052 14.3506 13.7352 14.7302 13.3556L15.3243 12.7615C15.336 12.7498 15.348 12.7377 15.3603 12.7254C15.4942 12.5907 15.6629 12.4212 15.8692 12.2947C16.0482 12.1851 16.2433 12.1043 16.4473 12.0553C16.6827 11.9988 16.9218 11.9994 17.1117 11.9999C17.1291 12 17.1462 12 17.1627 12H20Z" fill="#0000CC"/>
</svg>
