<svg width="24" height="24" viewBox="0 0 24 24" fill="none" xmlns="http://www.w3.org/2000/svg">
<path d="M17.8385 4H6.16146C5.63435 3.99998 5.17953 3.99997 4.80498 4.03057C4.40963 4.06287 4.01641 4.13419 3.63803 4.32698C3.07355 4.6146 2.6146 5.07355 2.32698 5.63803C2.23124 5.82595 2.16545 6.01752 2.11953 6.2112L9.00473 10.8013C10.3531 11.7003 10.8226 11.9955 11.301 12.1101C11.7606 12.2202 12.2397 12.2202 12.6992 12.1101C13.1776 11.9955 13.6471 11.7003 14.9955 10.8013L21.8805 6.21132C21.8346 6.0176 21.7688 5.82599 21.673 5.63803C21.3854 5.07355 20.9265 4.6146 20.362 4.32698C19.9836 4.13419 19.5904 4.06287 19.195 4.03057C18.8205 3.99997 18.3657 3.99998 17.8385 4Z" fill="#0000CC"/>
<path d="M22 8.53536L15.9515 12.5678C14.8178 13.3243 14.035 13.8466 13.1653 14.055C12.3993 14.2386 11.6009 14.2386 10.8349 14.055C9.96521 13.8466 9.18245 13.3243 8.04872 12.5678L2 8.53522V15.8386C1.99999 16.3657 1.99997 16.8205 2.03057 17.195C2.06287 17.5904 2.13419 17.9836 2.32698 18.362C2.6146 18.9265 3.07355 19.3854 3.63803 19.673C4.01641 19.8658 4.40963 19.9371 4.80498 19.9694C5.17949 20 5.63424 20 6.16129 20L15.5415 20L15.5357 19.9643C14.0993 19.7411 13 18.4989 13 17C13 15.5011 14.0993 14.2589 15.5357 14.0357C15.7589 12.5993 17.0011 11.5 18.5 11.5C19.9989 11.5 21.2411 12.5993 21.4643 14.0357C21.6489 14.0644 21.8282 14.1099 22 14.1706V8.53536Z" fill="#0000CC"/>
<path d="M18.5 13.5C19.0523 13.5 19.5 13.9477 19.5 14.5V16H21C21.5523 16 22 16.4477 22 17C22 17.5523 21.5523 18 21 18H19.5V19.5C19.5 20.0523 19.0523 20.5 18.5 20.5C17.9477 20.5 17.5 20.0523 17.5 19.5V18H16C15.4477 18 15 17.5523 15 17C15 16.4477 15.4477 16 16 16H17.5V14.5C17.5 13.9477 17.9477 13.5 18.5 13.5Z" fill="#0000CC"/>
</svg>
