<svg width="24" height="24" viewBox="0 0 24 24" fill="none" xmlns="http://www.w3.org/2000/svg">
<path fill-rule="evenodd" clip-rule="evenodd" d="M6.16146 4H17.8385C18.3657 3.99998 18.8205 3.99997 19.195 4.03057C19.5904 4.06287 19.9836 4.13419 20.362 4.32698C20.9265 4.6146 21.3854 5.07355 21.673 5.63803C21.7688 5.82597 21.8346 6.01757 21.8805 6.21127L14.4571 11.1602C14.4499 11.1649 14.4427 11.1697 14.4356 11.1746L13.2204 11.9847C12.5135 12.4559 12.3647 12.5373 12.2331 12.5689C12.0799 12.6056 11.9202 12.6056 11.767 12.5689C11.6353 12.5373 11.4866 12.4559 10.7797 11.9847L9.56447 11.1746C9.55734 11.1697 9.55017 11.1649 9.54295 11.1602L2.11951 6.21125C2.16544 6.01755 2.23123 5.82596 2.32698 5.63803C2.6146 5.07355 3.07354 4.6146 3.63803 4.32698C4.01641 4.13419 4.40963 4.06287 4.80498 4.03057C5.17953 3.99997 5.63434 3.99998 6.16146 4ZM2 8.53527V15.8385C1.99998 16.3657 1.99997 16.8205 2.03057 17.195C2.06287 17.5904 2.13419 17.9836 2.32698 18.362C2.33578 18.3792 2.34474 18.3964 2.35385 18.4135L7.51937 12.2149L2 8.53527ZM3.83366 19.7618C4.15115 19.8891 4.47733 19.9427 4.80498 19.9694C5.17952 20 5.63424 20 6.16134 20H17.8385C18.3656 20 18.8205 20 19.195 19.9694C19.5227 19.9427 19.8489 19.8891 20.1664 19.7618L14.8071 13.3306L14.2182 13.7233C13.6891 14.0771 13.2243 14.388 12.6991 14.5138C12.2396 14.6239 11.7605 14.6239 11.3009 14.5138C10.7758 14.388 10.3109 14.0771 9.78185 13.7233L9.19299 13.3306L3.83366 19.7618ZM21.6462 18.4134C21.6553 18.3964 21.6642 18.3792 21.673 18.362C21.8658 17.9836 21.9371 17.5904 21.9694 17.195C22 16.8205 22 16.3657 22 15.8386V8.53531L16.4807 12.2149L21.6462 18.4134Z" fill="#0000CC"/>
</svg>
