<svg width="24" height="24" viewBox="0 0 24 24" fill="none" xmlns="http://www.w3.org/2000/svg">
<path d="M6.16146 4H17.8385C18.3657 3.99998 18.8205 3.99997 19.195 4.03057C19.5904 4.06287 19.9836 4.13419 20.362 4.32698C20.9265 4.6146 21.3854 5.07355 21.673 5.63803C21.7688 5.82599 21.8346 6.0176 21.8805 6.21132L14.9955 10.8013C13.6471 11.7003 13.1776 11.9955 12.6992 12.1101C12.2397 12.2202 11.7606 12.2202 11.301 12.1101C10.8226 11.9955 10.3531 11.7003 9.00473 10.8013L2.11953 6.2112C2.16545 6.01752 2.23124 5.82595 2.32698 5.63803C2.6146 5.07355 3.07355 4.6146 3.63803 4.32698C4.01641 4.13419 4.40963 4.06287 4.80498 4.03057C5.17953 3.99997 5.63435 3.99998 6.16146 4Z" fill="#0000CC"/>
<path d="M18.863 10.6267L22 8.53536L22 13.194L21.2823 12.9824L20.4747 11.804C20.0827 11.232 19.5107 10.8213 18.863 10.6267Z" fill="#0000CC"/>
<path d="M10.8349 14.055C11.2262 14.1488 11.626 14.1947 12.0256 14.1926C11.7194 14.5134 11.4837 14.9026 11.3427 15.3368C11.0369 16.2779 11.2148 17.3091 11.8182 18.0933L12.6893 19.2255L12.668 20H6.16129C5.63424 20 5.17949 20 4.80498 19.9694C4.40963 19.9371 4.01641 19.8658 3.63803 19.673C3.07355 19.3854 2.6146 18.9265 2.32698 18.362C2.13419 17.9836 2.06287 17.5904 2.03057 17.195C1.99997 16.8205 1.99999 16.3657 2 15.8386V8.53522L8.04872 12.5678C9.18245 13.3243 9.96521 13.8466 10.8349 14.055Z" fill="#0000CC"/>
<path d="M18 12.5C18.3299 12.5 18.6385 12.6626 18.8249 12.9347L20.0346 14.6997L22.087 15.3047C22.4034 15.398 22.6534 15.6412 22.7553 15.9549C22.8572 16.2686 22.7979 16.6123 22.5968 16.8737L21.292 18.5696L21.3508 20.7086C21.3599 21.0383 21.2058 21.3512 20.939 21.5451C20.6721 21.7389 20.3269 21.7888 20.0161 21.6783L18 20.9613L15.9839 21.6783C15.6732 21.7888 15.3279 21.7389 15.0611 21.5451C14.7943 21.3512 14.6402 21.0383 14.6493 20.7086L14.7081 18.5696L13.4033 16.8737C13.2021 16.6123 13.1428 16.2686 13.2448 15.9549C13.3467 15.6412 13.5967 15.398 13.9131 15.3047L15.9655 14.6997L17.1752 12.9347C17.3616 12.6626 17.6702 12.5 18 12.5Z" fill="#0000CC"/>
</svg>
