<svg width="24" height="24" viewBox="0 0 24 24" fill="none" xmlns="http://www.w3.org/2000/svg">
<path d="M17.8385 4H6.16146C5.63435 3.99998 5.17953 3.99997 4.80498 4.03057C4.40963 4.06287 4.01641 4.13419 3.63803 4.32698C3.07355 4.6146 2.6146 5.07355 2.32698 5.63803C2.23124 5.82595 2.16545 6.01752 2.11953 6.2112L9.00473 10.8013C10.3531 11.7003 10.8226 11.9955 11.301 12.1101C11.7606 12.2202 12.2397 12.2202 12.6992 12.1101C13.1776 11.9955 13.6471 11.7003 14.9955 10.8013L21.8805 6.21132C21.8346 6.0176 21.7688 5.82599 21.673 5.63803C21.3854 5.07355 20.9265 4.6146 20.362 4.32698C19.9836 4.13419 19.5904 4.06287 19.195 4.03057C18.8205 3.99997 18.3657 3.99998 17.8385 4Z" fill="#0000CC"/>
<path d="M22 8.53536L15.9515 12.5678C14.8178 13.3243 14.035 13.8466 13.1653 14.055C12.3993 14.2386 11.6009 14.2386 10.8349 14.055C9.96521 13.8466 9.18245 13.3243 8.04872 12.5678L2 8.53522V15.8386C1.99999 16.3657 1.99997 16.8205 2.03057 17.195C2.06287 17.5904 2.13419 17.9836 2.32698 18.362C2.6146 18.9265 3.07355 19.3854 3.63803 19.673C4.01641 19.8658 4.40963 19.9371 4.80498 19.9694C5.17949 20 5.63424 20 6.16129 20H12.7638C11.7084 18.8221 11.7467 17.0106 12.8787 15.8787C14.0095 14.7478 15.8186 14.7085 16.9966 15.7608L18.8787 13.8787C19.7228 13.0346 20.9447 12.7987 22 13.1708V8.53536Z" fill="#0000CC"/>
<path d="M21.7071 16.7071C22.0976 16.3166 22.0976 15.6834 21.7071 15.2929C21.3166 14.9024 20.6834 14.9024 20.2929 15.2929L17 18.5858L15.7071 17.2929C15.3166 16.9024 14.6834 16.9024 14.2929 17.2929C13.9024 17.6834 13.9024 18.3166 14.2929 18.7071L16.2929 20.7071C16.6834 21.0976 17.3166 21.0976 17.7071 20.7071L21.7071 16.7071Z" fill="#0000CC"/>
</svg>
