<svg width="24" height="24" viewBox="0 0 24 24" fill="none" xmlns="http://www.w3.org/2000/svg">
<path d="M11.5 12.5C12.6046 12.5 13.5 11.6046 13.5 10.5C13.5 9.39545 12.6046 8.5 11.5 8.5C10.3954 8.5 9.5 9.39545 9.5 10.5C9.5 11.6046 10.3954 12.5 11.5 12.5Z" fill="#0000CC"/>
<path fill-rule="evenodd" clip-rule="evenodd" d="M6.16146 3H17.8385C18.3656 2.99999 18.8205 2.99997 19.195 3.03057C19.5904 3.06288 19.9836 3.13419 20.362 3.32699C20.9265 3.61461 21.3854 4.07355 21.673 4.63803C21.8658 5.01641 21.9371 5.40963 21.9694 5.80498C22 6.17954 22 6.6343 22 7.16144V20C22 20.3466 21.8205 20.6684 21.5257 20.8507C21.2309 21.0329 20.8628 21.0494 20.5528 20.8944L17.2285 19.2323C16.9526 19.0943 16.8977 19.0693 16.8468 19.0522C16.7881 19.0325 16.7278 19.0182 16.6665 19.0097C16.6133 19.0022 16.553 19 16.2446 19H6.16124C5.63424 19 5.17946 19 4.80498 18.9694C4.40963 18.9371 4.01641 18.8658 3.63803 18.673C3.07355 18.3854 2.61461 17.9265 2.32699 17.362C2.13419 16.9836 2.06288 16.5904 2.03057 16.195C1.99997 15.8205 1.99999 15.3657 2 14.8386V7.16139C1.99999 6.6343 1.99997 6.17952 2.03057 5.80498C2.06288 5.40963 2.13419 5.01641 2.32699 4.63803C2.61461 4.07355 3.07355 3.61461 3.63803 3.32699C4.01641 3.13419 4.40963 3.06288 4.80498 3.03057C5.17952 2.99997 5.63437 2.99999 6.16146 3ZM11.5 14.5C12.2418 14.5 12.9365 14.2981 13.532 13.9462L14.7929 15.2071C15.1834 15.5976 15.8166 15.5976 16.2071 15.2071C16.5976 14.8166 16.5976 14.1834 16.2071 13.7929L14.9462 12.532C15.2981 11.9365 15.5 11.2418 15.5 10.5C15.5 8.29083 13.7092 6.5 11.5 6.5C9.29083 6.5 7.5 8.29083 7.5 10.5C7.5 12.7092 9.29083 14.5 11.5 14.5Z" fill="#0000CC"/>
</svg>
