<svg width="24" height="24" viewBox="0 0 24 24" fill="none" xmlns="http://www.w3.org/2000/svg">
<path fill-rule="evenodd" clip-rule="evenodd" d="M2.30007 20.05C2.35537 19.8997 2.42003 19.7356 2.48854 19.5616C2.87068 18.5914 3.37301 17.3161 3.04425 16.4457C2.37798 15.1053 2.00391 13.595 2.00391 12C2.00391 6.47715 6.48105 2 12.0039 2C17.5267 2 22.0039 6.47715 22.0039 12C22.0039 17.5228 17.5267 22 12.0039 22H3.00471C2.67039 22 2.3581 21.8329 2.17263 21.5548C1.98721 21.2767 1.95297 20.9244 2.08136 20.6158C2.15877 20.4291 2.23023 20.2397 2.30007 20.05ZM11.967 9.25C11.5024 9.25 11.1095 9.56774 10.9985 9.99926C10.8608 10.5341 10.3156 10.8561 9.78077 10.7184C9.24592 10.5808 8.92393 10.0356 9.06159 9.50074C9.39457 8.20704 10.5678 7.25 11.967 7.25C13.6239 7.25 14.967 8.59315 14.967 10.25C14.967 11.1814 14.5125 11.7993 14.0365 12.2587C13.8437 12.4449 13.6241 12.6269 13.4267 12.7905L13.3409 12.8616C13.1105 13.0533 12.89 13.2413 12.6741 13.4571C12.2836 13.8476 11.6505 13.8476 11.2599 13.4571C10.8694 13.0666 10.8694 12.4334 11.2599 12.0429C11.5441 11.7587 11.8236 11.5223 12.0619 11.324L12.1534 11.248C12.358 11.0782 12.5132 10.9494 12.6476 10.8197C12.9215 10.5553 12.967 10.4232 12.967 10.25C12.967 9.69772 12.5193 9.25 11.967 9.25ZM12.9697 15.75C12.9697 16.3023 12.522 16.75 11.9697 16.75C11.4174 16.75 10.9697 16.3023 10.9697 15.75C10.9697 15.1977 11.4174 14.75 11.9697 14.75C12.522 14.75 12.9697 15.1977 12.9697 15.75Z" fill="#0000CC"/>
</svg>
