<svg width="24" height="24" viewBox="0 0 24 24" fill="none" xmlns="http://www.w3.org/2000/svg">
<path fill-rule="evenodd" clip-rule="evenodd" d="M6.16147 3H17.8386C18.3657 2.99998 18.8205 2.99997 19.195 3.03057C19.5904 3.06287 19.9836 3.13419 20.362 3.32698C20.9265 3.6146 21.3854 4.07354 21.673 4.63803C21.8658 5.01641 21.9371 5.40963 21.9694 5.80497C22 6.17954 22 6.6343 22 7.16144V20C22 20.3466 21.8206 20.6684 21.5257 20.8507C21.2309 21.0329 20.8628 21.0494 20.5528 20.8944L17.2285 19.2323C16.9526 19.0943 16.8977 19.0693 16.8468 19.0522C16.7881 19.0325 16.7278 19.0182 16.6665 19.0097C16.6133 19.0022 16.553 19 16.2446 19H6.16149C5.63433 19 5.17956 19 4.80498 18.9694C4.40964 18.9371 4.01642 18.8658 3.63804 18.673C3.07355 18.3854 2.61461 17.9265 2.32699 17.362C2.1342 16.9836 2.06288 16.5904 2.03058 16.195C1.99998 15.8205 1.99999 15.3657 2.00001 14.8385L2.00001 13.2054C2 13.2021 2 13.1987 2.00001 13.1954L2.00001 7.16146C1.99999 6.63431 1.99998 6.17955 2.03058 5.80497C2.06288 5.40963 2.1342 5.01641 2.32699 4.63803C2.61461 4.07354 3.07355 3.6146 3.63804 3.32698C4.01642 3.13419 4.40964 3.06287 4.80498 3.03057C5.17956 2.99997 5.63432 2.99998 6.16147 3ZM10.4283 11.6957L7.24814 9.21189C6.86896 8.91574 6.33262 8.93159 5.97159 9.24963L4.00001 10.9864V7.2C4.00001 6.62345 4.00079 6.25117 4.02394 5.96784C4.04614 5.69617 4.08381 5.59546 4.10901 5.54601C4.20488 5.35785 4.35786 5.20487 4.54602 5.109C4.59547 5.0838 4.69619 5.04612 4.96785 5.02393C5.25119 5.00078 5.62346 5 6.20001 5H17.8C18.3766 5 18.7488 5.00078 19.0322 5.02393C19.3038 5.04612 19.4046 5.0838 19.454 5.109C19.6422 5.20487 19.7951 5.35785 19.891 5.54601C19.9162 5.59546 19.9539 5.69617 19.9761 5.96784C19.9992 6.25118 20 6.62345 20 7.2V10.2548L16.6688 7.25671C16.2877 6.91367 15.7088 6.91453 15.3287 7.25871L10.4283 11.6957Z" fill="#0000CC"/>
</svg>
