<svg width="24" height="24" viewBox="0 0 24 24" fill="none" xmlns="http://www.w3.org/2000/svg">
<path fill-rule="evenodd" clip-rule="evenodd" d="M6.16146 3H17.8385C18.3656 2.99999 18.8205 2.99997 19.195 3.03057C19.5904 3.06288 19.9836 3.13419 20.362 3.32699C20.9265 3.61461 21.3854 4.07355 21.673 4.63803C21.8658 5.01641 21.9371 5.40963 21.9694 5.80498C22 6.17954 22 6.6343 22 7.16144V20C22 20.3466 21.8205 20.6684 21.5257 20.8507C21.2309 21.0329 20.8628 21.0494 20.5528 20.8944L17.2285 19.2323C16.9526 19.0943 16.8977 19.0693 16.8468 19.0522C16.7881 19.0325 16.7278 19.0182 16.6665 19.0097C16.6133 19.0022 16.553 19 16.2446 19H6.16124C5.63424 19 5.17946 19 4.80498 18.9694C4.40963 18.9371 4.01641 18.8658 3.63803 18.673C3.07355 18.3854 2.61461 17.9265 2.32699 17.362C2.13419 16.9836 2.06288 16.5904 2.03057 16.195C1.99997 15.8205 1.99999 15.3657 2 14.8386V7.16139C1.99999 6.6343 1.99997 6.17952 2.03057 5.80498C2.06288 5.40963 2.13419 5.01641 2.32699 4.63803C2.61461 4.07355 3.07355 3.61461 3.63803 3.32699C4.01641 3.13419 4.40963 3.06288 4.80498 3.03057C5.17952 2.99997 5.63437 2.99999 6.16146 3ZM11.9372 8.25C11.4726 8.25 11.0797 8.56774 10.9687 8.99926C10.831 9.53411 10.2858 9.8561 9.75098 9.71844C9.21613 9.58078 8.89414 9.03559 9.03181 8.50074C9.36478 7.20704 10.538 6.25 11.9372 6.25C13.5941 6.25 14.9372 7.59315 14.9372 9.25C14.9372 10.1814 14.4827 10.7993 14.0067 11.2587C13.8139 11.4449 13.5943 11.6269 13.3969 11.7905L13.3111 11.8616C13.0807 12.0533 12.8602 12.2413 12.6444 12.4571C12.2538 12.8476 11.6207 12.8476 11.2301 12.4571C10.8396 12.0666 10.8396 11.4334 11.2301 11.0429C11.5143 10.7587 11.7938 10.5223 12.0321 10.324L12.1236 10.248C12.3282 10.0782 12.4834 9.94936 12.6178 9.81968C12.8917 9.55527 12.9372 9.42317 12.9372 9.25C12.9372 8.69772 12.4895 8.25 11.9372 8.25ZM12.9399 14.75C12.9399 15.3023 12.4922 15.75 11.9399 15.75C11.3877 15.75 10.9399 15.3023 10.9399 14.75C10.9399 14.1977 11.3877 13.75 11.9399 13.75C12.4922 13.75 12.9399 14.1977 12.9399 14.75Z" fill="#0000CC"/>
</svg>
