<svg width="24" height="24" viewBox="0 0 24 24" fill="none" xmlns="http://www.w3.org/2000/svg">
<path d="M12 9C12.5523 9 13 9.44772 13 10L11 10C11 9.44772 11.4477 9 12 9Z" fill="#0000CC"/>
<path fill-rule="evenodd" clip-rule="evenodd" d="M17.8386 3H6.16146C5.63438 2.99999 5.17951 2.99997 4.80498 3.03057C4.40963 3.06288 4.01641 3.13419 3.63803 3.32699C3.07355 3.61461 2.61461 4.07355 2.32699 4.63803C2.13419 5.01641 2.06288 5.40963 2.03057 5.80498C1.99997 6.17951 1.99999 6.63429 2 7.16136V14.8386C1.99999 15.3657 1.99997 15.8205 2.03057 16.195C2.06288 16.5904 2.13419 16.9836 2.32699 17.362C2.61461 17.9265 3.07355 18.3854 3.63803 18.673C4.01641 18.8658 4.40963 18.9371 4.80498 18.9694C5.17946 19 5.63423 19 6.16122 19H16.2446C16.553 19 16.6133 19.0022 16.6665 19.0097C16.7278 19.0182 16.7881 19.0325 16.8468 19.0522C16.8977 19.0693 16.9526 19.0943 17.2285 19.2323L20.5528 20.8944C20.8628 21.0494 21.2309 21.0329 21.5257 20.8507C21.8205 20.6684 22 20.3466 22 20V7.16144C22 6.6343 22 6.17954 21.9694 5.80498C21.9371 5.40963 21.8658 5.01641 21.673 4.63803C21.3854 4.07355 20.9265 3.61461 20.362 3.32699C19.9836 3.13419 19.5904 3.06288 19.195 3.03057C18.8205 2.99997 18.3656 2.99999 17.8386 3ZM12 7C10.3431 7 9 8.34315 9 10V10.2679C8.62082 10.4869 8.32164 10.8257 8.15225 11.2346C8.0553 11.4687 8.02483 11.6944 8.01184 11.8848C7.99996 12.0589 7.99998 12.2635 8 12.4735V12.5265C7.99998 12.7365 7.99996 12.9411 8.01184 13.1152C8.02483 13.3056 8.0553 13.5313 8.15225 13.7654C8.35523 14.2554 8.74458 14.6448 9.23464 14.8478C9.46868 14.9447 9.69441 14.9752 9.88478 14.9882C10.0589 15 10.2635 15 10.4735 15H13.5265C13.7365 15 13.9411 15 14.1152 14.9882C14.3056 14.9752 14.5313 14.9447 14.7654 14.8478C15.2554 14.6448 15.6448 14.2554 15.8478 13.7654C15.9447 13.5313 15.9752 13.3056 15.9882 13.1152C16 12.9411 16 12.7365 16 12.5265V12.4735C16 12.2635 16 12.0589 15.9882 11.8848C15.9752 11.6944 15.9447 11.4687 15.8478 11.2346C15.6784 10.8257 15.3792 10.4869 15 10.2679V10C15 8.34315 13.6569 7 12 7Z" fill="#0000CC"/>
</svg>
