<svg width="24" height="24" viewBox="0 0 24 24" fill="none" xmlns="http://www.w3.org/2000/svg">
<path fill-rule="evenodd" clip-rule="evenodd" d="M6.35581 12.8727C7.23822 11.7911 8.1441 10.7247 9.00317 9.6246C9.25127 9.3069 9.50072 8.98746 9.63712 8.61215C9.75613 8.28467 9.80537 7.93591 9.78168 7.58828C9.75453 7.18987 9.60328 6.81387 9.45284 6.43989C9.08645 5.52909 8.76894 4.58185 8.33516 3.70001C8.21012 3.4458 8.05382 3.187 7.81506 2.9602C7.46578 2.62842 7.02809 2.40462 6.55463 2.31572C6.23097 2.25495 5.92965 2.27978 5.65037 2.32724C5.39169 2.3712 5.08947 2.44678 4.75684 2.52996C4.09037 2.69661 3.4239 2.86324 2.75743 3.02988C2.31228 3.14118 2 3.54116 2 4.00001C2 7.1814 2.67625 10.4971 4.27669 13.2761C5.89497 16.2017 8.33249 18.5409 11.3381 20.0469C13.9693 21.4282 17.0498 22 20 22C20.4589 22 20.8589 21.6876 20.9702 21.2424C21.2095 20.2846 21.5069 19.3238 21.6725 18.3494C21.72 18.0701 21.7448 17.7688 21.684 17.4451C21.5951 16.9716 21.3713 16.534 21.0395 16.1847C20.8127 15.9459 20.5539 15.7896 20.2997 15.6646C19.4749 15.2589 18.5895 14.9609 17.7378 14.618C17.3125 14.4469 16.8857 14.275 16.4378 14.2612C16.0476 14.2493 15.66 14.3288 15.306 14.4936C14.8998 14.6826 14.5751 15.0087 14.2517 15.3336C13.382 16.2071 12.4986 17.0674 11.6219 17.934C9.43655 16.7096 7.65575 14.9961 6.35581 12.8727Z" fill="#0000CC"/>
</svg>
