<svg width="24" height="24" viewBox="0 0 24 24" fill="none" xmlns="http://www.w3.org/2000/svg">
<path d="M4.56201 1.99974C4.52956 1.99974 4.49612 1.99957 4.46181 1.9994C4.0926 1.99752 3.62284 1.99514 3.20164 2.19824C2.84993 2.36784 2.53191 2.66342 2.33708 3.0018C2.10433 3.40605 2.07407 3.84875 2.05068 4.19088L2.04456 4.27843C2.01502 4.68185 2 5.08913 2 5.49974C2 9.69624 3.56663 13.5268 6.14695 16.4386L2.29289 20.2926C1.90237 20.6832 1.90237 21.3163 2.29289 21.7069C2.68342 22.0974 3.31658 22.0974 3.70711 21.7069L21.7071 3.70686C22.0976 3.31634 22.0976 2.68317 21.7071 2.29265C21.3166 1.90212 20.6834 1.90212 20.2929 2.29265L9.48862 13.0969C8.98201 12.4899 8.53936 11.8282 8.17169 11.123L9.89392 10.0296L9.90701 10.0217C10.0877 9.91334 10.2669 9.80584 10.4138 9.70212C10.5775 9.58656 10.7582 9.43733 10.9101 9.22309C11.1241 8.92113 11.2501 8.56571 11.2742 8.19636C11.2912 7.93432 11.2449 7.70456 11.1906 7.51171C11.1419 7.33863 11.0705 7.14226 10.9984 6.94426L9.82278 3.71121L9.79377 3.63072C9.68933 3.33972 9.55826 2.97449 9.30926 2.68793C9.09445 2.44072 8.82222 2.25004 8.51647 2.13264C8.16208 1.99657 7.77404 1.9982 7.46487 1.9995L7.37932 1.99974H4.56201Z" fill="#0000CC"/>
<path d="M18.5 21.9997C15.0202 21.9997 11.792 20.9225 9.13065 19.0834L15.4277 12.7863C15.5502 12.7543 15.676 12.7339 15.8034 12.7256C16.0654 12.7085 16.2952 12.7549 16.488 12.8091C16.6611 12.8578 16.8575 12.9293 17.0555 13.0013L20.2885 14.177L20.369 14.206C20.66 14.3104 21.0253 14.4415 21.3118 14.6905C21.559 14.9053 21.7497 15.1775 21.8671 15.4833C22.0032 15.8377 22.0015 16.2257 22.0002 16.5349L22 16.6204V19.4377L22.0001 19.4739L22.0003 19.5379C22.0022 19.9071 22.0046 20.3769 21.8015 20.7981C21.6319 21.1498 21.3363 21.4678 20.9979 21.6627C20.5937 21.8954 20.151 21.9257 19.8089 21.9491L19.7213 21.9552C19.3179 21.9847 18.9106 21.9997 18.5 21.9997Z" fill="#0000CC"/>
</svg>
