<svg width="24" height="24" viewBox="0 0 24 24" fill="none" xmlns="http://www.w3.org/2000/svg">
<path d="M20.6589 3.75259C21.0745 3.38891 21.1167 2.75715 20.753 2.34151C20.3893 1.92587 19.7575 1.88375 19.3419 2.24744L15.5563 5.55981C14.7982 6.22319 14.2715 6.68314 13.831 7.0125C13.4006 7.33437 13.1124 7.48451 12.8512 7.56178C12.2959 7.72599 11.7049 7.72599 11.1496 7.56178C10.8883 7.48451 10.6002 7.33437 10.1697 7.0125C9.72931 6.68314 9.20262 6.22319 8.44447 5.55981L6.66185 4.00001H8.0004C8.55268 4.00001 9.0004 3.5523 9.0004 3.00001C9.0004 2.44773 8.55268 2.00001 8.0004 2.00001H4.0004C3.44811 2.00001 3.0004 2.44773 3.0004 3.00001V7.00001C3.0004 7.5523 3.44811 8.00001 4.0004 8.00001C4.55268 8.00001 5.0004 7.5523 5.0004 7.00001V5.20378L7.15721 7.091C7.87857 7.72219 8.46274 8.23336 8.972 8.61418C9.49824 9.00771 10.0035 9.30846 10.5825 9.47967C11.5079 9.75336 12.4929 9.75336 13.4183 9.47967C13.9973 9.30846 14.5025 9.00771 15.0288 8.61418C15.5381 8.23336 16.1222 7.7222 16.8436 7.091L20.6589 3.75259Z" fill="#0000CC"/>
<path fill-rule="evenodd" clip-rule="evenodd" d="M9.65753 16.6025L9.87613 17.5903L9.88007 17.6064C9.93027 17.811 9.98005 18.014 10.0098 18.1913C10.0429 18.3889 10.0641 18.6224 10.0188 18.881C9.95494 19.2456 9.79118 19.5853 9.54574 19.8623C9.3716 20.0589 9.17577 20.1877 9.00058 20.2849C8.84332 20.3721 8.65351 20.4596 8.46213 20.5478L6.47541 21.4639L6.39782 21.4999C6.11762 21.6306 5.76589 21.7945 5.38709 21.8193C5.06028 21.8408 4.73322 21.7816 4.43463 21.647C4.08853 21.4911 3.81657 21.2143 3.59987 20.9938L3.53983 20.9328L2.35503 19.7371C2.33244 19.7143 2.30905 19.6909 2.28504 19.6669C2.02378 19.406 1.68985 19.0724 1.53844 18.6221C1.41295 18.249 1.40396 17.8019 1.51432 17.424C1.64707 16.9695 1.94482 16.6468 2.1734 16.3991L2.22996 16.3377C2.37797 16.1758 2.5307 16.0167 2.68813 15.8607C7.86006 10.736 16.2071 10.7743 21.3318 15.9462C21.4878 16.1036 21.6391 16.2641 21.7856 16.4274L21.8416 16.4893C22.0679 16.7391 22.3627 17.0644 22.4913 17.5201C22.5982 17.899 22.5851 18.346 22.4562 18.718C22.3006 19.1669 21.9637 19.4974 21.7 19.756C21.6758 19.7797 21.6522 19.8029 21.6294 19.8255L20.4337 21.0103L20.3731 21.0707C20.1544 21.2892 19.8799 21.5635 19.5324 21.7163C19.2325 21.8481 18.905 21.9042 18.5784 21.8798C18.1998 21.8515 17.8496 21.6844 17.5706 21.5512L17.4933 21.5144L15.515 20.5801C15.3245 20.4902 15.1355 20.4009 14.9791 20.3123C14.8048 20.2135 14.6102 20.0829 14.4378 19.8848C14.1949 19.6055 14.0343 19.2643 13.9738 18.8992C13.9309 18.6401 13.9542 18.4069 13.9892 18.2096C14.0205 18.0325 14.0721 17.83 14.1242 17.6258L14.1266 17.6164L14.3419 16.6227C12.8175 16.1792 11.1846 16.1716 9.65753 16.6025Z" fill="#0000CC"/>
</svg>
