<svg width="24" height="24" viewBox="0 0 24 24" fill="none" xmlns="http://www.w3.org/2000/svg">
<path d="M4.46181 1.99964C4.49612 1.99981 4.52956 1.99998 4.56201 1.99998H7.37932L7.46487 1.99974C7.77404 1.99844 8.16208 1.99681 8.51647 2.13289C8.82222 2.25028 9.09445 2.44096 9.30926 2.68818C9.55826 2.97473 9.68933 3.33997 9.79377 3.63097L9.82278 3.71145L10.9984 6.9445C11.0705 7.1425 11.1419 7.33888 11.1906 7.51195C11.2449 7.7048 11.2912 7.93457 11.2742 8.19661C11.2501 8.56595 11.1241 8.92138 10.9101 9.22333C10.7582 9.43757 10.5775 9.5868 10.4138 9.70236C10.2669 9.80609 10.0877 9.91358 9.90701 10.022L9.89392 10.0298L8.17169 11.1232C9.21773 13.1295 10.8708 14.784 12.8766 15.8285L13.9702 14.1061L13.978 14.093C14.0864 13.9123 14.1939 13.7331 14.2976 13.5862C14.4132 13.4225 14.5624 13.2418 14.7766 13.0899C15.0786 12.8759 15.434 12.7498 15.8034 12.7258C16.0654 12.7088 16.2952 12.7551 16.488 12.8094C16.6611 12.8581 16.8575 12.9295 17.0555 13.0016L20.2885 14.1772L20.369 14.2062C20.66 14.3106 21.0253 14.4417 21.3118 14.6907C21.559 14.9055 21.7497 15.1778 21.8671 15.4835C22.0032 15.8379 22.0015 16.2259 22.0002 16.5351L22 16.6207V19.438L22.0001 19.4742L22.0003 19.5382C22.0022 19.9074 22.0046 20.3771 21.8015 20.7983C21.6319 21.15 21.3363 21.4681 20.9979 21.6629C20.5937 21.8957 20.151 21.9259 19.8089 21.9493L19.7213 21.9554C19.3179 21.985 18.9106 22 18.5 22C9.3873 22 2 14.6127 2 5.49998C2 5.08937 2.01502 4.68209 2.04456 4.27868L2.05068 4.19112C2.07407 3.849 2.10433 3.4063 2.33708 3.00205C2.53191 2.66367 2.84993 2.36808 3.20164 2.19849C3.62284 1.99538 4.0926 1.99777 4.46181 1.99964Z" fill="#0000CC"/>
<path fill-rule="evenodd" clip-rule="evenodd" d="M14 6C14 3.79086 15.7909 2 18 2C20.2091 2 22 3.79086 22 6C22 8.20914 20.2091 10 18 10C15.7909 10 14 8.20914 14 6ZM18 4C16.8954 4 16 4.89543 16 6C16 6.09524 16.0067 6.18892 16.0195 6.28061L17.3532 5.23705L18.7529 4.14654C18.5205 4.05205 18.2663 4 18 4ZM19.9812 5.72487L18.584 6.81344L17.2523 7.85553C17.4833 7.94871 17.7356 8 18 8C19.1046 8 20 7.10457 20 6C20 5.90666 19.9936 5.81481 19.9812 5.72487Z" fill="#0000CC"/>
</svg>
