<svg width="24" height="24" viewBox="0 0 24 24" fill="none" xmlns="http://www.w3.org/2000/svg">
<path d="M4.46181 1.9994C4.49612 1.99957 4.52956 1.99974 4.56201 1.99974H7.37932L7.46487 1.9995C7.77404 1.9982 8.16208 1.99657 8.51647 2.13264C8.82222 2.25004 9.09445 2.44072 9.30926 2.68793C9.55826 2.97449 9.68933 3.33972 9.79377 3.63072L9.82278 3.71121L10.9984 6.94426C11.0705 7.14226 11.1419 7.33863 11.1906 7.51171C11.2449 7.70456 11.2912 7.93432 11.2742 8.19636C11.2501 8.56571 11.1241 8.92113 10.9101 9.22309C10.7582 9.43733 10.5775 9.58656 10.4138 9.70212C10.2669 9.80584 10.0877 9.91334 9.90701 10.0217L9.89392 10.0296L8.17169 11.123C9.21773 13.1293 10.8708 14.7837 12.8766 15.8283L13.9702 14.1058L13.978 14.0927C14.0864 13.912 14.1939 13.7328 14.2976 13.5859C14.4132 13.4223 14.5624 13.2415 14.7766 13.0897C15.0786 12.8756 15.434 12.7496 15.8034 12.7256C16.0654 12.7085 16.2952 12.7549 16.488 12.8091C16.6611 12.8578 16.8575 12.9293 17.0555 13.0013L20.2885 14.177L20.369 14.206C20.66 14.3104 21.0253 14.4415 21.3118 14.6905C21.559 14.9053 21.7497 15.1775 21.8671 15.4833C22.0032 15.8377 22.0015 16.2257 22.0002 16.5349L22 16.6204V19.4377L22.0001 19.4739L22.0003 19.5379C22.0022 19.9071 22.0046 20.3769 21.8015 20.7981C21.6319 21.1498 21.3363 21.4678 20.9979 21.6627C20.5937 21.8954 20.151 21.9257 19.8089 21.9491L19.7213 21.9552C19.3179 21.9847 18.9106 21.9997 18.5 21.9997C9.3873 21.9997 2 14.6124 2 5.49974C2 5.08913 2.01502 4.68185 2.04456 4.27843L2.05068 4.19088C2.07407 3.84875 2.10433 3.40605 2.33708 3.0018C2.53191 2.66342 2.84993 2.36784 3.20164 2.19824C3.62284 1.99514 4.0926 1.99752 4.46181 1.9994Z" fill="#0000CC"/>
<path d="M18 1.99976C18.5523 1.99976 19 2.44747 19 2.99976V4.99976H21C21.5523 4.99976 22 5.44747 22 5.99976C22 6.55204 21.5523 6.99976 21 6.99976H19V8.99976C19 9.55204 18.5523 9.99976 18 9.99976C17.4477 9.99976 17 9.55204 17 8.99976V6.99976H15C14.4477 6.99976 14 6.55204 14 5.99976C14 5.44747 14.4477 4.99976 15 4.99976H17V2.99976C17 2.44747 17.4477 1.99976 18 1.99976Z" fill="#0000CC"/>
</svg>
