<svg width="24" height="24" viewBox="0 0 24 24" fill="none" xmlns="http://www.w3.org/2000/svg">
<path fill-rule="evenodd" clip-rule="evenodd" d="M15 5C15 3.34315 16.3431 2 18 2C19.6569 2 21 3.34315 21 5V5.26794C21.3792 5.48685 21.6784 5.82568 21.8478 6.23463C21.9447 6.46868 21.9752 6.6944 21.9882 6.88477C22 7.05886 22 7.26348 22 7.47352V7.52648C22 7.73652 22 7.94114 21.9882 8.11523C21.9752 8.3056 21.9447 8.53132 21.8478 8.76537C21.6448 9.25542 21.2554 9.64477 20.7654 9.84776C20.5313 9.9447 20.3056 9.97518 20.1152 9.98817C19.9411 10 19.7365 10 19.5265 10H16.4735C16.2635 10 16.0589 10 15.8848 9.98817C15.6944 9.97518 15.4687 9.9447 15.2346 9.84776C14.7446 9.64477 14.3552 9.25542 14.1522 8.76537C14.0553 8.53132 14.0248 8.3056 14.0118 8.11523C14 7.94115 14 7.73651 14 7.52647V7.4735C14 7.26346 14 7.05885 14.0118 6.88477C14.0248 6.6944 14.0553 6.46868 14.1522 6.23463C14.3216 5.82568 14.6208 5.48685 15 5.26794V5ZM19 5C19 4.44772 18.5523 4 18 4C17.4477 4 17 4.44772 17 5L19 5Z" fill="#0000CC"/>
<path d="M8.9291 9.71977L6.35372 12.8684C6.95451 13.8505 7.65986 14.7453 8.45749 15.5429C9.38354 16.469 10.4405 17.2707 11.6131 17.9287L14.1771 15.4089L14.2522 15.3336C14.5756 15.0087 14.9003 14.6826 15.3065 14.4936C15.6605 14.3288 16.0481 14.2493 16.4383 14.2612C16.8862 14.275 17.313 14.4469 17.7382 14.618L17.841 14.6593L19.4572 15.3058C19.7755 15.4331 20.0648 15.5488 20.3002 15.6646C20.5544 15.7896 20.8132 15.9459 21.04 16.1847C21.3718 16.534 21.5956 16.9716 21.6845 17.4451C21.7453 17.7688 21.7204 18.0701 21.673 18.3494C21.629 18.6081 21.5534 18.9103 21.4702 19.243L20.9707 21.2424C20.8594 21.6876 20.4594 22 20.0005 22C16.8071 22 13.8837 21.3173 11.3618 20.0585C11.3499 20.0528 11.3381 20.0469 11.3263 20.0407C9.72467 19.2366 8.2857 18.1996 7.04326 16.9571C5.95711 15.8709 5.02797 14.6346 4.27417 13.2706C4.26809 13.2601 4.26222 13.2494 4.25656 13.2387C2.79731 10.5848 2.00049 7.44999 2.00049 4.00001C2.00049 3.54116 2.31277 3.14118 2.75792 3.02988L4.75733 2.52996C5.08996 2.44678 5.39218 2.3712 5.65086 2.32724C5.93014 2.27978 6.23146 2.25495 6.55512 2.31572C7.02858 2.40462 7.46627 2.62842 7.81555 2.9602C8.05431 3.187 8.2106 3.4458 8.33565 3.70001C8.45146 3.93544 8.56713 4.22468 8.69445 4.54302L9.41742 6.35046L9.45333 6.43989C9.60377 6.81387 9.75502 7.18988 9.78217 7.58828C9.80586 7.93591 9.75662 8.28467 9.6376 8.61215C9.50121 8.98746 9.25176 9.3069 9.00366 9.6246L8.9444 9.70059C8.93938 9.70705 8.93428 9.71344 8.9291 9.71977Z" fill="#0000CC"/>
</svg>
