<svg width="24" height="24" viewBox="0 0 24 24" fill="none" xmlns="http://www.w3.org/2000/svg">
<path d="M13.0561 1.88968C13.1171 1.34077 13.6115 0.945223 14.1604 1.0062C16.4152 1.25669 18.5177 2.2664 20.1229 3.86954C21.7281 5.47269 22.7404 7.57399 22.9937 9.82842C23.0554 10.3773 22.6605 10.8722 22.1117 10.9338C21.5628 10.9955 21.0679 10.6006 21.0062 10.0518C20.8036 8.2482 19.9937 6.56717 18.7096 5.28465C17.4254 4.00213 15.7434 3.19436 13.9396 2.99397C13.3907 2.93299 12.9951 2.43858 13.0561 1.88968Z" fill="#0000CC"/>
<path d="M13.0685 5.80859C13.1743 5.26653 13.6994 4.91284 14.2415 5.01859C15.4136 5.24727 16.4908 5.8205 17.3352 6.66492C18.1796 7.50933 18.7528 8.58651 18.9815 9.75859C19.0872 10.3007 18.7336 10.8258 18.1915 10.9316C17.6494 11.0373 17.1243 10.6836 17.0185 10.1416C16.866 9.36019 16.4839 8.64207 15.9209 8.07913C15.358 7.51619 14.6399 7.13403 13.8585 6.98158C13.3164 6.87582 12.9627 6.35066 13.0685 5.80859Z" fill="#0000CC"/>
<path d="M4.46181 1.99964C4.49612 1.99981 4.52956 1.99998 4.56201 1.99998H7.37932L7.46487 1.99974C7.77404 1.99844 8.16208 1.99681 8.51647 2.13289C8.82222 2.25028 9.09445 2.44096 9.30926 2.68818C9.55826 2.97473 9.68933 3.33997 9.79377 3.63097L9.82278 3.71145L10.9984 6.9445C11.0705 7.1425 11.1419 7.33888 11.1906 7.51195C11.2449 7.7048 11.2912 7.93457 11.2742 8.19661C11.2501 8.56595 11.1241 8.92138 10.9101 9.22334C10.7582 9.43757 10.5775 9.5868 10.4138 9.70236C10.2669 9.80608 10.0877 9.91358 9.90703 10.022L9.89392 10.0298L8.17169 11.1232C9.21773 13.1295 10.8708 14.784 12.8766 15.8285L13.9702 14.1061L13.978 14.093C14.0864 13.9123 14.1939 13.7331 14.2976 13.5862C14.4132 13.4225 14.5624 13.2418 14.7766 13.0899C15.0786 12.8759 15.434 12.7498 15.8034 12.7258C16.0654 12.7088 16.2952 12.7551 16.488 12.8094C16.6611 12.8581 16.8575 12.9295 17.0555 13.0016L20.2885 14.1772L20.369 14.2062C20.66 14.3106 21.0253 14.4417 21.3118 14.6907C21.559 14.9055 21.7497 15.1778 21.8671 15.4835C22.0032 15.8379 22.0015 16.2259 22.0002 16.5351L22 16.6207V19.438L22.0001 19.4742L22.0003 19.5382C22.0022 19.9074 22.0046 20.3771 21.8015 20.7983C21.6319 21.15 21.3363 21.4681 20.9979 21.6629C20.5937 21.8957 20.151 21.9259 19.8089 21.9493L19.7213 21.9554C19.3179 21.985 18.9106 22 18.5 22C9.3873 22 2 14.6127 2 5.49998C2 5.08937 2.01502 4.68209 2.04456 4.27868L2.05068 4.19112C2.07407 3.849 2.10433 3.4063 2.33708 3.00205C2.53191 2.66367 2.84993 2.36808 3.20164 2.19849C3.62284 1.99538 4.0926 1.99777 4.46181 1.99964Z" fill="#0000CC"/>
</svg>
