<svg width="24" height="24" viewBox="0 0 24 24" fill="none" xmlns="http://www.w3.org/2000/svg">
<path d="M4 11C4 6.58172 7.58172 3 12 3C16.4183 3 20 6.58172 20 11C20 13.5496 18.8073 15.8207 16.9494 17.2856C16.9827 17.5189 17 17.7575 17 18V19.6622C19.989 17.9331 22 14.7014 22 11C22 5.47715 17.5228 1 12 1C6.47715 1 2 5.47715 2 11C2 14.7014 4.01099 17.9331 7 19.6622V18C7 17.7575 7.01727 17.5189 7.05065 17.2856C5.19272 15.8207 4 13.5496 4 11Z" fill="#0000CC"/>
<path d="M18 11C18 12.6787 17.3106 14.1963 16.1996 15.2853C15.8336 14.7203 15.3567 14.2339 14.7998 13.8568C15.5405 13.1308 16 12.1191 16 11C16 8.79086 14.2091 7 12 7C9.79086 7 8 8.79086 8 11C8 12.1191 8.45955 13.1308 9.20022 13.8568C8.64327 14.2339 8.16641 14.7203 7.80044 15.2853C6.68937 14.1963 6 12.6787 6 11C6 7.68629 8.68629 5 12 5C15.3137 5 18 7.68629 18 11Z" fill="#0000CC"/>
<path d="M10 11C10 9.89543 10.8954 9 12 9C13.1046 9 14 9.89543 14 11C14 12.1046 13.1046 13 12 13C10.8954 13 10 12.1046 10 11Z" fill="#0000CC"/>
<path d="M9 18C9 16.3431 10.3431 15 12 15C13.6569 15 15 16.3431 15 18V20C15 21.6569 13.6569 23 12 23C10.3431 23 9 21.6569 9 20V18Z" fill="#0000CC"/>
</svg>
