<svg width="24" height="24" viewBox="0 0 24 24" fill="none" xmlns="http://www.w3.org/2000/svg">
<path d="M18.0915 8.91949L7.85047 4.31107C7.10046 3.97354 6.47564 3.69236 5.97366 3.51847C5.48719 3.34996 4.90585 3.20103 4.32982 3.36131C3.57313 3.57186 2.95937 4.12579 2.67259 4.857C2.45428 5.41363 2.54301 6.00715 2.66092 6.50829C2.78259 7.02542 2.99844 7.6757 3.25754 8.45628L4.10183 11H11.5005C12.0528 11 12.5005 11.4477 12.5005 12C12.5005 12.5523 12.0528 13 11.5005 13H4.12381L3.27766 15.5276C3.01572 16.3099 2.79759 16.9615 2.67425 17.4796C2.55481 17.9813 2.4642 18.576 2.68187 19.1339C2.96767 19.8665 3.58148 20.4219 4.33889 20.6333C4.91575 20.7943 5.4984 20.6449 5.98576 20.476C6.48899 20.3017 7.11559 20.0197 7.86801 19.6811L18.0915 15.0805C18.8251 14.7504 19.4377 14.4747 19.8927 14.2187C20.3356 13.9694 20.8241 13.6377 21.086 13.108C21.4312 12.4097 21.4312 11.5903 21.086 10.892C20.8241 10.3623 20.3356 10.0306 19.8927 9.78134C19.4377 9.52525 18.8251 9.24958 18.0915 8.91949Z" fill="#0000CC"/>
</svg>
