<svg width="24" height="24" viewBox="0 0 24 24" fill="none" xmlns="http://www.w3.org/2000/svg">
<path d="M18.8341 2.7155C19.1612 2.63606 19.6094 2.5592 20.0612 2.71882C20.6311 2.92017 21.0793 3.36844 21.2807 3.93833C21.4403 4.3901 21.3634 4.83832 21.284 5.1654C21.2031 5.49864 21.0638 5.90647 20.907 6.36563L16.6788 18.7481C16.4974 19.2795 16.3399 19.7409 16.1852 20.0895C16.0392 20.4184 15.8072 20.8681 15.3608 21.1339C14.8125 21.4604 14.1413 21.5057 13.5541 21.2557C13.076 21.0522 12.7858 20.6377 12.5971 20.3314C11.8688 19.1495 10.6894 16.7198 10.0469 15.3673L16.207 9.2071C16.5975 8.81657 16.5975 8.1834 16.207 7.79289C15.8164 7.40237 15.1833 7.40237 14.7927 7.7929L8.62907 13.9567C7.31494 13.3384 4.97707 12.209 3.66813 11.4024C3.36183 11.2137 2.94733 10.9235 2.7438 10.4454C2.49384 9.85822 2.53908 9.18703 2.86557 8.63872C3.13142 8.19228 3.58111 7.96027 3.90997 7.81435C4.2586 7.65965 4.72003 7.50211 5.25136 7.32071L17.6339 3.09253C18.093 2.93572 18.5009 2.79643 18.8341 2.7155Z" fill="#0000CC"/>
</svg>
