<svg width="24" height="24" viewBox="0 0 24 24" fill="none" xmlns="http://www.w3.org/2000/svg">
<path d="M13.1446 2.91601C12.4468 2.56962 11.6274 2.5683 10.9285 2.91245C10.3984 3.1735 10.0659 3.66145 9.81595 4.1039C9.55913 4.55852 9.28248 5.17072 8.9512 5.90378L4.3247 16.141C3.98531 16.8919 3.70263 17.5174 3.52765 18.0198C3.35814 18.5066 3.20798 19.0885 3.36778 19.6653C3.57763 20.4228 4.1315 21.0375 4.8631 21.3248C5.4202 21.5436 6.01456 21.4547 6.51628 21.3366C7.03418 21.2147 7.68558 20.9985 8.46766 20.7389L11 19.8984V12.5C11 11.9477 11.4477 11.5 12 11.5C12.5523 11.5 13 11.9477 13 12.5V19.8763L15.5391 20.7263C16.3199 20.9877 16.9703 21.2055 17.4876 21.3286C17.9888 21.4479 18.5826 21.5383 19.1401 21.3211C19.8723 21.0359 20.4277 20.423 20.6398 19.6664C20.8013 19.0903 20.6531 18.5082 20.4852 18.0212C20.312 17.5184 20.0315 16.8925 19.6948 16.141L15.1122 5.91365C14.7833 5.17956 14.5086 4.56645 14.2533 4.11102C14.0047 3.66778 13.6738 3.17876 13.1446 2.91601Z" fill="#0000CC"/>
</svg>
