<svg width="24" height="24" viewBox="0 0 24 24" fill="none" xmlns="http://www.w3.org/2000/svg">
<path d="M5.36328 12.0522C4.01081 11.571 3.33457 11.3304 3.13309 10.9654C2.95849 10.6491 2.95032 10.2673 3.11124 9.94382C3.29694 9.57057 3.96228 9.30126 5.29295 8.76266L17.8356 3.68588C19.1461 3.15541 19.8014 2.89018 20.2154 3.02617C20.5747 3.1442 20.8565 3.42602 20.9746 3.78534C21.1106 4.19931 20.8453 4.85459 20.3149 6.16515L15.2381 18.7078C14.6995 20.0385 14.4302 20.7038 14.0569 20.8895C13.7335 21.0504 13.3516 21.0422 13.0353 20.8677C12.6704 20.6662 12.4297 19.9899 11.9485 18.6375L10.4751 14.4967C10.3815 14.2335 10.3347 14.102 10.2582 13.9921C10.1905 13.8948 10.106 13.8103 10.0086 13.7425C9.89876 13.6661 9.76719 13.6192 9.50407 13.5256L5.36328 12.0522Z" stroke="#0000CC" stroke-width="2" stroke-linecap="round" stroke-linejoin="round"/>
</svg>
