<svg width="24" height="24" viewBox="0 0 24 24" fill="none" xmlns="http://www.w3.org/2000/svg">
<path d="M10.9792 4.26967L4.59197 18.4636C4.10239 19.5515 3.85761 20.0955 3.9608 20.4145C4.05015 20.6907 4.2714 20.9042 4.55064 20.9836C4.87315 21.0753 5.40801 20.8111 6.47772 20.2829L11.2921 17.9054C11.552 17.7771 11.682 17.7129 11.8181 17.6876C11.9387 17.6652 12.0624 17.6652 12.183 17.6876C12.3192 17.7129 12.4491 17.7771 12.709 17.9054L17.5234 20.2829C18.5931 20.8111 19.128 21.0753 19.4505 20.9836C19.7298 20.9042 19.951 20.6907 20.0403 20.4145C20.1435 20.0955 19.8988 19.5515 19.4092 18.4636L13.0219 4.26967C12.6979 3.54961 12.5359 3.18958 12.3108 3.07831C12.1153 2.98163 11.8859 2.98163 11.6903 3.07831C11.4653 3.18958 11.3032 3.54961 10.9792 4.26967Z" stroke="#0000CC" stroke-width="2" stroke-linecap="round" stroke-linejoin="round"/>
</svg>
