<svg width="24" height="24" viewBox="0 0 24 24" fill="none" xmlns="http://www.w3.org/2000/svg">
<path opacity="0.14" d="M6 6H14.8C15.9201 6 16.4802 6 16.908 6.21799C17.2843 6.40973 17.5903 6.71569 17.782 7.09202C18 7.51984 18 8.0799 18 9.2V18H9.2C8.0799 18 7.51984 18 7.09202 17.782C6.71569 17.5903 6.40973 17.2843 6.21799 16.908C6 16.4802 6 15.9201 6 14.8V6Z" fill="#0000CC"/>
<path d="M6 3V14.8C6 15.9201 6 16.4802 6.21799 16.908C6.40973 17.2843 6.71569 17.5903 7.09202 17.782C7.51984 18 8.0799 18 9.2 18H15M21 18H18M18 21V9.2C18 8.0799 18 7.51984 17.782 7.09202C17.5903 6.71569 17.2843 6.40973 16.908 6.21799C16.4802 6 15.9201 6 14.8 6H9M3 6H6" stroke="#0000CC" stroke-width="2" stroke-linecap="round" stroke-linejoin="round"/>
</svg>
