<svg width="24" height="24" viewBox="0 0 24 24" fill="none" xmlns="http://www.w3.org/2000/svg">
<g opacity="0.14">
<path d="M10 3.5H7V6.5H10V3.5Z" fill="#0000CC"/>
<path d="M17 3.5H14V6.5H17V3.5Z" fill="#0000CC"/>
<path d="M7 10.5H10V13.5H7V10.5Z" fill="#0000CC"/>
<path d="M17 10.5H14V13.5H17V10.5Z" fill="#0000CC"/>
<path d="M7 17.5H10V20.5H7V17.5Z" fill="#0000CC"/>
<path d="M17 17.5H14V20.5H17V17.5Z" fill="#0000CC"/>
</g>
<path d="M7 6.5H10V3.5H7V6.5Z" stroke="#0000CC" stroke-width="2" stroke-linecap="round" stroke-linejoin="round"/>
<path d="M14 6.5H17V3.5H14V6.5Z" stroke="#0000CC" stroke-width="2" stroke-linecap="round" stroke-linejoin="round"/>
<path d="M7 13.5H10V10.5H7V13.5Z" stroke="#0000CC" stroke-width="2" stroke-linecap="round" stroke-linejoin="round"/>
<path d="M14 13.5H17V10.5H14V13.5Z" stroke="#0000CC" stroke-width="2" stroke-linecap="round" stroke-linejoin="round"/>
<path d="M7 20.5H10V17.5H7V20.5Z" stroke="#0000CC" stroke-width="2" stroke-linecap="round" stroke-linejoin="round"/>
<path d="M14 20.5H17V17.5H14V20.5Z" stroke="#0000CC" stroke-width="2" stroke-linecap="round" stroke-linejoin="round"/>
</svg>
