<svg width="24" height="24" viewBox="0 0 24 24" fill="none" xmlns="http://www.w3.org/2000/svg">
<path opacity="0.14" d="M17.0001 4.00005L10.7627 10.2374C9.92319 11.077 9.50341 11.4968 9.17906 11.9788C8.89124 12.4064 8.65975 12.8694 8.49029 13.3563C8.29932 13.905 8.21536 14.4927 8.04745 15.668L8 16.0002L8.48793 15.9017C9.54378 15.6887 10.0717 15.5822 10.564 15.3884C11.0009 15.2164 11.4162 14.9937 11.8012 14.7249C12.235 14.4221 12.6158 14.0412 13.3774 13.2796L19.9988 6.65823C20 6.82302 20 7.00283 20 7.2V16.8C20 17.9201 20 18.4802 19.782 18.908C19.5903 19.2843 19.2843 19.5903 18.908 19.782C18.4802 20 17.9201 20 16.8 20H7.2C6.0799 20 5.51984 20 5.09202 19.782C4.71569 19.5903 4.40973 19.2843 4.21799 18.908C4 18.4802 4 17.9201 4 16.8V7.2C4 6.0799 4 5.51984 4.21799 5.09202C4.40973 4.71569 4.71569 4.40973 5.09202 4.21799C5.51984 4 6.0799 4 7.2 4H16.8C16.8688 4 16.9355 4 17.0001 4.00005Z" fill="#0000CC"/>
<path d="M11 4.00019H7.2C6.0799 4.00019 5.51984 4.00019 5.09202 4.21817C4.71569 4.40992 4.40973 4.71588 4.21799 5.0922C4 5.52003 4 6.08008 4 7.20019V16.8002C4 17.9203 4 18.4803 4.21799 18.9082C4.40973 19.2845 4.71569 19.5905 5.09202 19.7822C5.51984 20.0002 6.0799 20.0002 7.2 20.0002H16.8C17.9201 20.0002 18.4802 20.0002 18.908 19.7822C19.2843 19.5905 19.5903 19.2845 19.782 18.9082C20 18.4803 20 17.9203 20 16.8002V12.5002M15.5 5.50019L18.3284 8.32861M10.7627 10.2374L17.411 3.5892C18.192 2.80816 19.4584 2.80816 20.2394 3.5892C21.0205 4.37025 21.0205 5.63658 20.2394 6.41763L13.3774 13.2796C12.6158 14.0412 12.235 14.4221 11.8012 14.7249C11.4162 14.9937 11.0009 15.2164 10.564 15.3884C10.0717 15.5822 9.54378 15.6887 8.48793 15.9017L8 16.0002L8.04745 15.668C8.21536 14.4927 8.29932 13.905 8.49029 13.3563C8.65975 12.8694 8.89125 12.4064 9.17906 11.9788C9.50341 11.4968 9.92319 11.077 10.7627 10.2374Z" stroke="#0000CC" stroke-width="2" stroke-linecap="round" stroke-linejoin="round"/>
</svg>
