<svg width="24" height="24" viewBox="0 0 24 24" fill="none" xmlns="http://www.w3.org/2000/svg">
<g opacity="0.14">
<path d="M20.2394 3.5892C21.0205 4.37025 21.0205 5.63658 20.2394 6.41763L18.3284 8.32861L15.5 5.50019L17.411 3.58921C18.192 2.80816 19.4584 2.80815 20.2394 3.5892Z" fill="#0000CC"/>
<path d="M4.26331 3.74597L3.69763 4.31165C3.30162 4.70766 3.1036 4.90568 3.02941 5.13401C2.96415 5.33485 2.96415 5.5512 3.02941 5.75204C3.1036 5.98037 3.30161 6.17838 3.69763 6.57439L9.06192 11.9387L11.8903 9.11025L6.52606 3.74597C6.13004 3.34995 5.93203 3.15194 5.7037 3.07775C5.50286 3.01249 5.28651 3.01249 5.08567 3.07775C4.85734 3.15194 4.65932 3.34996 4.26331 3.74597Z" fill="#0000CC"/>
<path d="M19.5171 20.1312L20.0828 19.5655C20.4788 19.1695 20.6768 18.9714 20.751 18.7431C20.8163 18.5423 20.8163 18.3259 20.751 18.1251C20.6768 17.8968 20.4788 17.6987 20.0828 17.3027L14.7188 11.9387L11.8903 14.7671L17.2544 20.1312C17.6504 20.5272 17.8484 20.7252 18.0767 20.7994C18.2776 20.8646 18.4939 20.8646 18.6948 20.7994C18.9231 20.7252 19.1211 20.5272 19.5171 20.1312Z" fill="#0000CC"/>
</g>
<path d="M11.8903 9.11025L6.52606 3.74597C6.13004 3.34995 5.93203 3.15194 5.7037 3.07775C5.50286 3.01249 5.28651 3.01249 5.08567 3.07775C4.85734 3.15194 4.65933 3.34995 4.26331 3.74597L3.69763 4.31165C3.30161 4.70767 3.1036 4.90568 3.02941 5.13401C2.96415 5.33485 2.96415 5.5512 3.02941 5.75204C3.1036 5.98037 3.30161 6.17838 3.69763 6.57439L9.06192 11.9387M14.7188 11.9387L20.0828 17.3027C20.4788 17.6987 20.6768 17.8968 20.751 18.1251C20.8163 18.3259 20.8163 18.5423 20.751 18.7431C20.6768 18.9714 20.4788 19.1695 20.0828 19.5655L19.5171 20.1312C19.1211 20.5272 18.9231 20.7252 18.6948 20.7994C18.4939 20.8646 18.2776 20.8646 18.0767 20.7994C17.8484 20.7252 17.6504 20.5272 17.2544 20.1312L11.8903 14.7671M8.00024 6.9998L8.88946 6.10938M17.0002 16L17.8945 15.1144M15.4998 5.50214L18.3282 8.33057M3 21.0019L3.04745 20.6697C3.21536 19.4944 3.29932 18.9067 3.49029 18.358C3.65975 17.8711 3.89124 17.4081 4.17906 16.9805C4.50341 16.4985 4.92319 16.0787 5.76274 15.2392L17.4107 3.59116C18.1918 2.81011 19.4581 2.81011 20.2392 3.59116C21.0202 4.37221 21.0202 5.63854 20.2392 6.41958L8.37744 18.2813C7.61579 19.043 7.23497 19.4238 6.8012 19.7266C6.41618 19.9954 6.00093 20.2181 5.56398 20.3901C5.07171 20.5839 4.54375 20.6904 3.48793 20.9034L3 21.0019Z" stroke="#0000CC" stroke-width="2" stroke-linecap="round" stroke-linejoin="round"/>
</svg>
