<svg width="24" height="24" viewBox="0 0 24 24" fill="none" xmlns="http://www.w3.org/2000/svg">
<g opacity="0.14">
<path d="M13 5.99985L14.8686 4.13122C15.2646 3.73522 15.4627 3.53719 15.691 3.46301C15.8918 3.39775 16.1082 3.39775 16.309 3.46301C16.5373 3.53719 16.7354 3.7352 17.1314 4.13122L19.8686 6.86848C20.2646 7.26449 20.4627 7.4625 20.5368 7.69083C20.6021 7.89168 20.6021 8.10802 20.5368 8.30887C20.4627 8.53719 20.2646 8.7352 19.8686 9.13122L18 10.9998L13 5.99985Z" fill="#0000CC"/>
<path d="M11 14.5C11 15.3284 10.3284 16 9.5 16C8.67157 16 8 15.3284 8 14.5C8 13.6716 8.67157 13 9.5 13C10.3284 13 11 13.6716 11 14.5Z" fill="#0000CC"/>
</g>
<path d="M13 5.99985L14.8686 4.13122C15.2646 3.73521 15.4627 3.53719 15.691 3.46301C15.8918 3.39775 16.1082 3.39775 16.309 3.46301C16.5373 3.53719 16.7354 3.7352 17.1314 4.13122L19.8686 6.86848C20.2646 7.26449 20.4627 7.4625 20.5368 7.69083C20.6021 7.89168 20.6021 8.10802 20.5368 8.30887C20.4627 8.53719 20.2646 8.7352 19.8686 9.13122L18 10.9998M13 5.99985L7.81459 7.48139C7.15424 7.67007 6.82406 7.7644 6.55756 7.94595C6.3218 8.10655 6.12313 8.31573 5.97487 8.55945C5.80729 8.83494 5.73007 9.16953 5.57564 9.83872L3 20.9998M13 5.99985L18 10.9998M3 20.9998L14.1611 18.4242C14.8303 18.2698 15.1649 18.1926 15.4404 18.025C15.6841 17.8767 15.8933 17.678 16.0539 17.4423C16.2354 17.1758 16.3298 16.8456 16.5185 16.1853L18 10.9998M3 20.9998L8.43934 15.5604M11 14.4998C11 15.3283 10.3284 15.9998 9.5 15.9998C8.67157 15.9998 8 15.3283 8 14.4998C8 13.6714 8.67157 12.9998 9.5 12.9998C10.3284 12.9998 11 13.6714 11 14.4998Z" stroke="#0000CC" stroke-width="2" stroke-linecap="round" stroke-linejoin="round"/>
</svg>
