<svg width="24" height="24" viewBox="0 0 24 24" fill="none" xmlns="http://www.w3.org/2000/svg">
<path opacity="0.14" d="M20.2394 6.41763C21.0205 5.63658 21.0205 4.37025 20.2394 3.5892C19.4584 2.80815 18.192 2.80816 17.411 3.58921L15.5 5.50019L18.3284 8.32861L20.2394 6.41763Z" fill="#0000CC"/>
<path d="M18.3282 8.32861L15.8939 5.8943C14.7058 4.70625 14.1118 4.11222 13.4268 3.88966C12.8243 3.69388 12.1752 3.69388 11.5727 3.88966C11.1765 4.0184 10.8107 4.27144 10.3427 4.69185M13.3254 7.67453L17.4107 3.58921C18.1918 2.80816 19.4581 2.80815 20.2392 3.5892C21.0202 4.37025 21.0202 5.63658 20.2392 6.41763L16.1538 10.503M3 2.99951L10.5002 10.4997M21 20.9995L13.3286 13.3282M10.5002 10.4997L5.76274 15.2372C4.92319 16.0767 4.50341 16.4965 4.17906 16.9785C3.89124 17.4062 3.65975 17.8692 3.49029 18.3561C3.29932 18.9047 3.21536 19.4924 3.04745 20.6678L3 20.9999L3.48793 20.9015C4.54375 20.6885 5.07171 20.5819 5.56398 20.3882C6.00093 20.2162 6.41618 19.9935 6.8012 19.7247C7.23497 19.4218 7.61579 19.041 8.37744 18.2794L13.3286 13.3282M10.5002 10.4997L13.3286 13.3282" stroke="#0000CC" stroke-width="2" stroke-linecap="round" stroke-linejoin="round"/>
</svg>
