<svg width="24" height="24" viewBox="0 0 24 24" fill="none" xmlns="http://www.w3.org/2000/svg">
<path opacity="0.14" d="M20.2394 6.41763C21.0205 5.63658 21.0205 4.37025 20.2394 3.5892C19.4584 2.80815 18.192 2.80816 17.411 3.58921L15.5 5.50019L18.3284 8.32861L20.2394 6.41763Z" fill="#0000CC"/>
<path d="M15.4998 5.50067L18.3282 8.3291M13.3254 7.67502L17.4107 3.58969C18.1918 2.80865 19.4581 2.80864 20.2392 3.58969C21.0202 4.37074 21.0202 5.63707 20.2392 6.41812L16.1538 10.5034M3 3L10.5002 10.5002M21 21L13.3286 13.3286M13.3286 13.3286L8.37744 18.2798C7.61579 19.0415 7.23497 19.4223 6.8012 19.7252C6.41618 19.994 6.00093 20.2167 5.56398 20.3887C5.07171 20.5824 4.54375 20.6889 3.48793 20.902L3 21.0004L3.04745 20.6683C3.21536 19.4929 3.29932 18.9052 3.49029 18.3565C3.65975 17.8697 3.89124 17.4067 4.17906 16.979C4.50341 16.497 4.92319 16.0772 5.76274 15.2377L10.5002 10.5002M13.3286 13.3286L10.5002 10.5002" stroke="#0000CC" stroke-width="2" stroke-linecap="round" stroke-linejoin="round"/>
</svg>
