<svg width="24" height="24" viewBox="0 0 24 24" fill="none" xmlns="http://www.w3.org/2000/svg">
<path opacity="0.14" fill-rule="evenodd" clip-rule="evenodd" d="M6 4C4.89543 4 4 4.89543 4 6V18C4 19.1046 4.89543 20 6 20H18C19.1046 20 20 19.1046 20 18V6C20 4.89543 19.1046 4 18 4H6ZM16.0299 8.02792C15.4615 7.45944 14.5398 7.45944 13.9713 8.02792L9.8625 12.1367C9.38334 12.6159 9.14376 12.8555 8.95026 13.1271C8.77848 13.3682 8.634 13.6276 8.51946 13.9006C8.39045 14.2081 8.31291 14.5379 8.15783 15.1976L7.9668 16.0102L8.72443 15.8605C9.43388 15.7203 9.78861 15.6501 10.1194 15.521C10.413 15.4064 10.692 15.2575 10.9507 15.0773C11.2421 14.8744 11.4978 14.6187 12.0091 14.1074L16.0299 10.0865C16.5984 9.51807 16.5984 8.59639 16.0299 8.02792Z" fill="#0000CC"/>
<path d="M13.9713 8.02792C14.5398 7.45944 15.4615 7.45944 16.0299 8.02792C16.5984 8.59639 16.5984 9.51807 16.0299 10.0865L12.0091 14.1074C11.4978 14.6187 11.2421 14.8744 10.9507 15.0773C10.692 15.2575 10.413 15.4064 10.1194 15.521C9.78861 15.6501 9.43388 15.7203 8.72443 15.8605L7.9668 16.0102L8.15783 15.1976C8.31291 14.5379 8.39045 14.2081 8.51946 13.9006C8.634 13.6276 8.77848 13.3682 8.95026 13.1271C9.14376 12.8555 9.38334 12.6159 9.8625 12.1367L13.9713 8.02792Z" stroke="#0000CC" stroke-width="2" stroke-linecap="round" stroke-linejoin="round"/>
</svg>
