<svg width="24" height="24" viewBox="0 0 24 24" fill="none" xmlns="http://www.w3.org/2000/svg">
<path opacity="0.14" d="M15.8957 20.8456C14.2236 20.3663 13 18.8261 13 17C13 14.7909 14.7909 13 17 13C17.18 13 17.3573 13.0119 17.531 13.0349L18 6H6L6.80086 18.0129C6.871 19.065 6.90607 19.5911 7.13332 19.99C7.33339 20.3412 7.63517 20.6235 7.99889 20.7998C8.41202 21 8.93927 21 9.99377 21H14.0062C14.9732 21 15.4968 21 15.8957 20.8456Z" fill="#0000CC"/>
<path d="M6 6L6.80086 18.0129C6.871 19.065 6.90607 19.5911 7.13332 19.99C7.33339 20.3412 7.63517 20.6235 7.99889 20.7998C8.41202 21 8.94135 21 10 21M18 6L17.8 9M4 6H20M16 6L15.7294 5.18807C15.4671 4.40125 15.3359 4.00784 15.0927 3.71698C14.8779 3.46013 14.6021 3.26132 14.2905 3.13878C13.9376 3 13.523 3 12.6936 3H11.3064C10.477 3 10.0624 3 9.70951 3.13878C9.39792 3.26132 9.12208 3.46013 8.90729 3.71698C8.66405 4.00784 8.53292 4.40125 8.27064 5.18807L8 6M17 15.5V17H18.5M21 17C21 19.2091 19.2091 21 17 21C14.7909 21 13 19.2091 13 17C13 14.7909 14.7909 13 17 13C19.2091 13 21 14.7909 21 17Z" stroke="#0000CC" stroke-width="2" stroke-linecap="round" stroke-linejoin="round"/>
</svg>
