<svg width="24" height="24" viewBox="0 0 24 24" fill="none" xmlns="http://www.w3.org/2000/svg">
<path opacity="0.14" d="M20.0826 4.31165L19.5169 3.74597L19.5169 3.74596C19.1209 3.34995 18.9229 3.15194 18.6946 3.07775C18.4937 3.01249 18.2774 3.01249 18.0765 3.07775C17.8482 3.15194 17.6502 3.34995 17.2542 3.74596L17.2542 3.74597L15.1314 5.86879C14.7354 6.2648 14.5373 6.46281 14.4632 6.69114C14.3979 6.89198 14.3979 7.10833 14.4632 7.30918C14.5373 7.5375 14.7354 7.73551 15.1314 8.13153L15.1314 8.13153L15.6971 8.69721C16.0931 9.09323 16.2911 9.29124 16.5194 9.36543C16.7203 9.43069 16.9366 9.43069 17.1374 9.36543C17.3658 9.29124 17.5638 9.09323 17.9598 8.69721L20.0826 6.57439L20.0826 6.57439C20.4786 6.17837 20.6766 5.98037 20.7508 5.75204C20.8161 5.5512 20.8161 5.33485 20.7508 5.13401C20.6766 4.90568 20.4786 4.70767 20.0826 4.31166L20.0826 4.31165Z" fill="#0000CC"/>
<path d="M14.0002 6.99991L16.8286 9.82834M3.69763 19.5652L4.26331 20.1309C4.65933 20.5269 4.85734 20.7249 5.08567 20.7991C5.28651 20.8644 5.50286 20.8644 5.7037 20.7991C5.93203 20.7249 6.13004 20.5269 6.52606 20.1309L20.0828 6.57415C20.4788 6.17813 20.6768 5.98012 20.751 5.7518C20.8163 5.55095 20.8163 5.3346 20.751 5.13376C20.6768 4.90543 20.4788 4.70742 20.0828 4.31141L19.5171 3.74572C19.1211 3.3497 18.9231 3.1517 18.6948 3.07751C18.4939 3.01225 18.2776 3.01225 18.0767 3.07751C17.8484 3.1517 17.6504 3.34971 17.2544 3.74572L3.69763 17.3025C3.30161 17.6985 3.1036 17.8965 3.02941 18.1248C2.96415 18.3257 2.96415 18.542 3.02941 18.7429C3.1036 18.9712 3.30161 19.1692 3.69763 19.5652Z" stroke="#0000CC" stroke-width="2" stroke-linecap="round" stroke-linejoin="round"/>
</svg>
