<svg width="24" height="24" viewBox="0 0 24 24" fill="none" xmlns="http://www.w3.org/2000/svg">
<path d="M8 5C7.01165 5.00077 6.49359 5.01333 6.09202 5.21794C5.71569 5.40968 5.40973 5.71564 5.21799 6.09197C5 6.51979 5 7.07984 5 8.19995V17.7999C5 18.9201 5 19.4801 5.21799 19.9079C5.40973 20.2843 5.71569 20.5902 6.09202 20.782C6.51984 21 7.0799 21 8.2 21H15.8C16.9201 21 17.4802 21 17.908 20.782C18.2843 20.5902 18.5903 20.2843 18.782 19.9079C19 19.4801 19 18.9201 19 17.7999V8.19995C19 7.07984 19 6.51979 18.782 6.09197C18.5903 5.71564 18.2843 5.40968 17.908 5.21794C17.5064 5.01333 16.9883 5.00077 16 5M9 14L11 16L15 12M8 7H16V4.70711C16 4.25435 15.8201 3.82014 15.5 3.5C15.1799 3.17986 14.7456 3 14.2929 3H9.70711C9.25435 3 8.82014 3.17986 8.5 3.5C8.17986 3.82014 8 4.25435 8 4.70711V7Z" stroke="#0000CC" stroke-width="2" stroke-linecap="round" stroke-linejoin="round"/>
</svg>
