<svg width="24" height="24" viewBox="0 0 24 24" fill="none" xmlns="http://www.w3.org/2000/svg">
<path opacity="0.3" fill-rule="evenodd" clip-rule="evenodd" d="M16.4413 7.03814C16.4 7.01767 16.3586 6.99747 16.3171 6.97755C15.009 6.35063 13.544 6 12 6C10.4566 6 8.99226 6.35034 7.68458 6.97676C7.64295 6.9967 7.60148 7.01692 7.56017 7.03742L8.07232 7.80565C8.37867 8.26518 8.2545 8.88605 7.79497 9.1924C7.33544 9.49876 6.71457 9.37458 6.40822 8.91505L5.86601 8.10174C5.84473 8.11829 5.82352 8.13492 5.80238 8.15164C3.48803 9.98145 2 12.8172 2 16V19C2 19.5523 2.44772 20 3 20H21C21.5523 20 22 19.5523 22 19V16C22 12.8179 20.5125 9.98255 18.199 8.1527C18.1778 8.13596 18.1566 8.1193 18.1353 8.10273L17.5938 8.91496C17.2874 9.37449 16.6665 9.49867 16.207 9.19231C15.7475 8.88596 15.6233 8.26509 15.9297 7.80556L16.4413 7.03814ZM9 13C8.44772 13 8 13.4477 8 14C8 14.5523 8.44772 15 9 15H9.009C9.56128 15 10.009 14.5523 10.009 14C10.009 13.4477 9.56128 13 9.009 13H9ZM15 13C14.4477 13 14 13.4477 14 14C14 14.5523 14.4477 15 15 15H15.009C15.5613 15 16.009 14.5523 16.009 14C16.009 13.4477 15.5613 13 15.009 13H15Z" fill="#0000CC"/>
<path fill-rule="evenodd" clip-rule="evenodd" d="M19.5566 4.16796C20.0161 4.47432 20.1403 5.09519 19.8339 5.55471L17.5938 8.91496C17.2874 9.37449 16.6665 9.49867 16.207 9.19231C15.7475 8.88596 15.6233 8.26509 15.9297 7.80556L18.1698 4.44531C18.4762 3.98579 19.0971 3.86161 19.5566 4.16796ZM8 14C8 13.4477 8.44772 13 9 13H9.009C9.56128 13 10.009 13.4477 10.009 14C10.009 14.5523 9.56128 15 9.009 15H9C8.44772 15 8 14.5523 8 14ZM14 14C14 13.4477 14.4477 13 15 13H15.009C15.5613 13 16.009 13.4477 16.009 14C16.009 14.5523 15.5613 15 15.009 15H15C14.4477 15 14 14.5523 14 14Z" fill="#0000CC"/>
<path fill-rule="evenodd" clip-rule="evenodd" d="M4.44541 4.16806C3.98588 4.47441 3.8617 5.09528 4.16806 5.55481L6.40822 8.91505C6.71457 9.37458 7.33544 9.49876 7.79497 9.1924C8.2545 8.88605 8.37867 8.26518 8.07232 7.80565L5.83216 4.44541C5.5258 3.98588 4.90494 3.8617 4.44541 4.16806Z" fill="#0000CC"/>
</svg>
