<svg width="24" height="24" viewBox="0 0 24 24" fill="none" xmlns="http://www.w3.org/2000/svg">
<path opacity="0.3" fill-rule="evenodd" clip-rule="evenodd" d="M13.4472 10.1284C13.9286 9.85765 14.5383 10.0284 14.8091 10.5097L17.3348 15H21C21.5523 15 22 15.4477 22 16C22 16.5523 21.5523 17 21 17H18.4598L19.8716 19.5097C20.1423 19.9911 19.9716 20.6008 19.4903 20.8716C19.0089 21.1423 18.3992 20.9716 18.1284 20.4903L13.0659 11.4903C12.7952 11.0089 12.9659 10.3992 13.4472 10.1284ZM6.25 16C6.25 15.4477 6.69772 15 7.25 15H13C13.5523 15 14 15.4477 14 16C14 16.5523 13.5523 17 13 17H7.25C6.69772 17 6.25 16.5523 6.25 16Z" fill="#0000CC"/>
<path fill-rule="evenodd" clip-rule="evenodd" d="M9.50974 3.12842C9.9911 2.85765 10.6008 3.02838 10.8716 3.50973L12 5.51582L13.1284 3.50973C13.3992 3.02838 14.0089 2.85765 14.4903 3.12842C14.9716 3.39918 15.1423 4.0089 14.8716 4.49026L8.12158 16.4903C7.94446 16.8051 7.61127 17 7.25 17H3C2.44772 17 2 16.5523 2 16C2 15.4477 2.44772 15 3 15H6.66515L10.8527 7.55555L9.12842 4.49026C8.85766 4.0089 9.02838 3.39918 9.50974 3.12842ZM6.05276 18.1284C6.53412 18.3992 6.70484 19.0089 6.43408 19.4903L5.87158 20.4903C5.60081 20.9716 4.9911 21.1423 4.50974 20.8716C4.02838 20.6008 3.85766 19.9911 4.12842 19.5097L4.69092 18.5097C4.96169 18.0284 5.5714 17.8577 6.05276 18.1284Z" fill="#0000CC"/>
</svg>
