<svg width="24" height="24" viewBox="0 0 24 24" fill="none" xmlns="http://www.w3.org/2000/svg">
<path opacity="0.3" fill-rule="evenodd" clip-rule="evenodd" d="M8.26581 4.02618C8.69395 3.94664 9.12464 4.05144 9.467 4.29824C9.80559 4.54233 10.0265 4.90035 10.1148 5.2841L10.3133 6.13634C10.8717 6.04268 11.4358 5.997 12.0017 6.00021C12.5673 5.997 13.1312 6.04264 13.6893 6.13621L13.8872 5.28449C13.9754 4.90055 14.1964 4.54236 14.5351 4.2982C14.8775 4.05142 15.3081 3.94665 15.7363 4.02618L18.4445 4.52006C18.7744 4.57968 19.0689 4.74258 19.2938 4.97089C19.5178 5.19822 19.6664 5.48157 19.7347 5.78049L21.959 15.4786C22.0389 15.8374 22.0032 16.2172 21.8521 16.5566C21.7009 16.8964 21.4352 17.1906 21.0796 17.3641L16.0406 19.8356C15.8343 19.9382 15.6065 19.9955 15.3719 19.9998C15.1353 20.0041 14.9033 19.9544 14.6916 19.8573C14.4802 19.7603 14.2968 19.6199 14.149 19.4507C14.0076 19.2888 13.901 19.103 13.8307 18.906L13.2549 17.4269C12.8391 17.4778 12.4208 17.5023 12.0017 17.4999C11.5824 17.5023 11.164 17.4778 10.7482 17.4269L10.1712 18.9063C10.101 19.1032 9.9944 19.2888 9.85308 19.4507C9.70537 19.6198 9.52189 19.7603 9.31055 19.8572C9.09877 19.9544 8.86679 20.0041 8.63017 19.9998C8.39555 19.9955 8.16772 19.9382 7.96144 19.8356L2.92266 17.3639C2.56688 17.1904 2.30121 16.8961 2.14999 16.5563C1.99892 16.2168 1.96356 15.831 2.04352 15.4722L4.26704 5.78198C4.33536 5.48291 4.48417 5.19846 4.70821 4.97102C4.93312 4.74269 5.22601 4.58004 5.55591 4.52042L8.26581 4.02618ZM14.0017 12.0001C14.0017 11.4478 14.4494 11.0001 15.0017 11.0001H15.0107C15.563 11.0001 16.0107 11.4478 16.0107 12.0001C16.0107 12.5523 15.563 13.0001 15.0107 13.0001H15.0017C14.4494 13.0001 14.0017 12.5523 14.0017 12.0001ZM9.00167 11.0001C8.44938 11.0001 8.00167 11.4478 8.00167 12.0001C8.00167 12.5523 8.44938 13.0001 9.00167 13.0001H9.01067C9.56295 13.0001 10.0107 12.5523 10.0107 12.0001C10.0107 11.4478 9.56295 11.0001 9.01067 11.0001H9.00167Z" fill="#0000CC"/>
<path fill-rule="evenodd" clip-rule="evenodd" d="M8 12C8 11.4477 8.44772 11 9 11H9.009C9.56128 11 10.009 11.4477 10.009 12C10.009 12.5523 9.56128 13 9.009 13H9C8.44772 13 8 12.5523 8 12ZM14 12C14 11.4477 14.4477 11 15 11H15.009C15.5613 11 16.009 11.4477 16.009 12C16.009 12.5523 15.5613 13 15.009 13H15C14.4477 13 14 12.5523 14 12Z" fill="#0000CC"/>
</svg>
