<svg width="24" height="24" viewBox="0 0 24 24" fill="none" xmlns="http://www.w3.org/2000/svg">
<path opacity="0.3" fill-rule="evenodd" clip-rule="evenodd" d="M12 2C6.47715 2 2 6.47715 2 12C2 17.1853 5.94668 21.4983 11 22V21V14.5H9C8.44772 14.5 8 14.0523 8 13.5C8 12.9477 8.44772 12.5 9 12.5H11V10.5C11 9.63805 11.3424 8.8114 11.9519 8.2019C12.5614 7.59241 13.388 7.25 14.25 7.25H15.75C16.3023 7.25 16.75 7.69772 16.75 8.25C16.75 8.80228 16.3023 9.25 15.75 9.25H14.25C13.9185 9.25 13.6005 9.3817 13.3661 9.61612C13.1317 9.85054 13 10.1685 13 10.5V12.5H15C15.5523 12.5 16 12.9477 16 13.5C16 14.0523 15.5523 14.5 15 14.5H13V21L13 22C18.0533 21.4983 22 17.1853 22 12C22 6.47715 17.5228 2 12 2Z" fill="#0000CC"/>
<path d="M11.9519 8.2019C12.5614 7.59241 13.388 7.25 14.25 7.25H15.75C16.3023 7.25 16.75 7.69772 16.75 8.25C16.75 8.80228 16.3023 9.25 15.75 9.25H14.25C13.9185 9.25 13.6005 9.3817 13.3661 9.61612C13.1317 9.85054 13 10.1685 13 10.5V12.5H15C15.5523 12.5 16 12.9477 16 13.5C16 14.0523 15.5523 14.5 15 14.5H13V21L13 21.9506C12.6711 21.9833 12.3375 22 12 22C11.6625 22 11.3289 21.9833 11 21.9506V21V14.5H9C8.44772 14.5 8 14.0523 8 13.5C8 12.9477 8.44772 12.5 9 12.5H11V10.5C11 9.63805 11.3424 8.8114 11.9519 8.2019Z" fill="#0000CC"/>
</svg>
