<svg width="24" height="24" viewBox="0 0 24 24" fill="none" xmlns="http://www.w3.org/2000/svg">
<path opacity="0.3" fill-rule="evenodd" clip-rule="evenodd" d="M9 2C6.79086 2 5 3.79086 5 6C5 7.19469 5.52376 8.26706 6.35418 9C5.52376 9.73295 5 10.8053 5 12C5 13.1947 5.52376 14.2671 6.35418 15C5.52376 15.7329 5 16.8053 5 18C5 20.2091 6.79086 22 9 22C11.2091 22 13 20.2091 13 18V15.4649C13.5883 15.8052 14.2714 16 15 16C17.2091 16 19 14.2091 19 12C19 10.8053 18.4762 9.73295 17.6458 9C18.4762 8.26706 19 7.19469 19 6C19 3.79086 17.2091 2 15 2H9ZM9 10H11V14H9C7.89543 14 7 13.1046 7 12C7 10.8954 7.89543 10 9 10ZM17 6C17 7.10457 16.1046 8 15 8H13V4H15C16.1046 4 17 4.89543 17 6Z" fill="#0000CC"/>
<path d="M9 10H11V14H9C7.89543 14 7 13.1046 7 12C7 10.8954 7.89543 10 9 10Z" fill="#0000CC"/>
<path d="M17 6C17 7.10457 16.1046 8 15 8H13V4H15C16.1046 4 17 4.89543 17 6Z" fill="#0000CC"/>
</svg>
