<svg width="24" height="24" viewBox="0 0 24 24" fill="none" xmlns="http://www.w3.org/2000/svg">
<g opacity="0.3">
<path d="M19.2542 8.62258L15.0642 9.42876C15.6482 10.124 16 11.0209 16 12C16 12.6927 15.8239 13.3443 15.5141 13.9124L13.4502 19.8689L12.721 21.9745C17.9073 21.6049 22 17.2804 22 12C22 10.6683 21.74 9.39731 21.2674 8.2353L19.2542 8.62258Z" fill="#0000CC"/>
<path d="M11.2987 19.9697L12.695 15.9398C12.4692 15.9794 12.237 16 12 16C11.8151 16 11.6332 15.9875 11.455 15.9632C10.2426 15.798 9.20294 15.0895 8.58946 14.0911L4.45898 9.3227L3 7.63805C3.30706 7.00559 3.67881 6.41036 4.10666 5.86096L5.44748 7.40921L8.23977 10.6327C8.77292 9.16681 10.1389 8.10077 11.7656 8.00676C11.8095 8.00421 11.8537 8.00238 11.898 8.00127L18.0884 6.81021L20.2789 6.38883C18.4854 3.74787 15.461 2.01026 12.0304 2.00005C12.0203 2.00002 12.0101 2 12 2C6.47715 2 2 6.47715 2 12C2 17.1345 5.86969 21.3652 10.8517 21.9348C10.7769 21.9262 10.7023 21.9168 10.6279 21.9066L11.2987 19.9697Z" fill="#0000CC"/>
<path d="M14 12C14 13 13 14 12 14C11.8435 14 11.687 13.9755 11.5344 13.9304C10.7115 13.687 10 12.8435 10 12C10 11.1049 10.8012 10.2098 11.6865 10.0318C11.7902 10.011 11.8951 10 12 10C13 10 14 11 14 12Z" fill="#0000CC"/>
</g>
<path fill-rule="evenodd" clip-rule="evenodd" d="M12.6953 15.9399L11.299 19.9697L10.6279 21.9066C11.0766 21.9682 11.5347 22 12.0003 22C12.2427 22 12.483 21.9914 12.721 21.9745L13.4506 19.8689L15.5144 13.9124C15.8242 13.3443 16.0003 12.6927 16.0003 12C16.0003 11.021 15.6486 10.1241 15.0645 9.42879L19.2545 8.6226L21.2674 8.2353C21.002 7.58261 20.6697 6.96427 20.2789 6.38883L18.0887 6.81023L11.8984 8.0013C10.2137 8.04344 8.78765 9.1272 8.24009 10.6328L5.4478 7.40923L4.10666 5.86096C3.67881 6.41036 3.30706 7.00559 3 7.63805L4.4593 9.32273L6.52454 11.7069L8.58978 14.0911C9.29342 15.2363 10.5577 16 12.0003 16C12.2374 16 12.4696 15.9794 12.6953 15.9399ZM12 14C13 14 14 13 14 12C14 11 13 10 12 10C11.8951 10 11.7902 10.011 11.6865 10.0318C10.8012 10.2098 10 11.1049 10 12C10 12.8435 10.7115 13.687 11.5344 13.9304C11.687 13.9755 11.8435 14 12 14Z" fill="#0000CC"/>
</svg>
