<svg width="24" height="24" viewBox="0 0 24 24" fill="none" xmlns="http://www.w3.org/2000/svg">
<path opacity="0.3" d="M7 3C4.79086 3 3 4.79086 3 7V17C3 19.2091 4.79086 21 7 21H17C19.2091 21 21 19.2091 21 17V7C21 4.79086 19.2091 3 17 3H7Z" fill="#0000CC"/>
<path d="M16 7C15.4477 7 15 7.44772 15 8C15 8.55228 15.4477 9 16 9H16.01C16.5623 9 17.01 8.55228 17.01 8C17.01 7.44772 16.5623 7 16.01 7H16Z" fill="#0000CC"/>
<path d="M12 8.5C10.067 8.5 8.5 10.067 8.5 12C8.5 13.933 10.067 15.5 12 15.5C13.933 15.5 15.5 13.933 15.5 12C15.5 10.067 13.933 8.5 12 8.5Z" fill="#0000CC"/>
</svg>
