<svg width="24" height="24" viewBox="0 0 24 24" fill="none" xmlns="http://www.w3.org/2000/svg">
<path opacity="0.3" d="M3.75 2C2.7835 2 2 2.7835 2 3.75V20.25C2 21.2165 2.7835 22 3.75 22H20.25C21.2165 22 22 21.2165 22 20.25V3.75C22 2.7835 21.2165 2 20.25 2H3.75Z" fill="#0000CC"/>
<path fill-rule="evenodd" clip-rule="evenodd" d="M7.99023 6C7.43795 6 6.99023 6.44772 6.99023 7C6.99023 7.55228 7.43795 8 7.99023 8H8.00023C8.55252 8 9.00023 7.55228 9.00023 7C9.00023 6.44772 8.55252 6 8.00023 6H7.99023ZM9.00023 9.99833C8.99931 9.44605 8.55085 8.99908 7.99857 9C7.44628 9.00092 6.99932 9.44938 7.00024 10.0017L7.01024 16.0017C7.01116 16.554 7.45962 17.0009 8.0119 17C8.56419 16.9991 9.01115 16.5506 9.01023 15.9983L9.00023 9.99833Z" fill="#0000CC"/>
<path d="M13.0002 12C13.0002 11.4477 13.4479 11 14.0002 11C14.2254 11 14.4332 11.0744 14.6003 11.2C14.843 11.3825 15 11.6729 15 12V16C15 16.5523 15.4477 17 16 17C16.5523 17 17 16.5523 17 16L17.0002 12L16.9957 11.9985L17.0002 11.9985C16.9994 10.3423 15.6566 9 14.0002 9C13.5371 9 13.0987 9.10548 12.7071 9.29289C12.5261 9.11193 12.2761 9 12 9C11.4477 9 11 9.44772 11 10L11.0002 12V16C11.0002 16.5523 11.4479 17 12.0002 17C12.5525 17 13.0002 16.5523 13.0002 16V12Z" fill="#0000CC"/>
</svg>
