<svg width="24" height="24" viewBox="0 0 24 24" fill="none" xmlns="http://www.w3.org/2000/svg">
<path opacity="0.3" d="M11.9844 8.98501C12.0572 8.85805 12.1288 8.73441 12.1988 8.61515C12.5337 8.0444 12.8374 7.55208 13.1249 7.20658C13.5671 6.67505 14.0933 6.14614 14.6625 5.74165C15.2151 5.34902 15.9116 5 16.6717 5C18.1928 5 19.3726 6.1168 20.1606 7.33049C20.9789 8.59097 21.5628 10.2261 21.8315 11.8353C22.0979 13.4307 22.0759 15.1315 21.5479 16.4878C21.2794 17.1773 20.8652 17.8143 20.2552 18.2795C19.6352 18.7523 18.875 19 18.0086 19C17.1595 19 16.4122 18.6509 15.7788 18.1694C15.1501 17.6913 14.5807 17.0436 14.0609 16.3394C13.5416 15.5867 12.4027 13.8733 12.0015 13.0407L11.9844 8.98501Z" fill="#0000CC"/>
<path d="M11.9846 8.98501C11.5235 8.22457 11.0439 7.50038 10.5424 6.89348C9.73881 5.921 8.67856 5 7.32697 5C5.80588 5 4.62601 6.1168 3.8381 7.33049C3.01981 8.59098 2.43588 10.2261 2.16724 11.8353C1.9009 13.4307 1.92297 15.1316 2.45115 16.4879C2.71968 17.1774 3.13404 17.8143 3.74414 18.2796C4.36413 18.7523 5.12443 19 5.99087 19C7.10849 19 8.06258 18.3894 8.82969 17.6472C9.60782 16.8944 10.3185 15.8866 10.9607 14.8255C11.2931 14.2764 11.6438 13.6713 12.0018 13.0407L11.9846 8.98501Z" fill="#0000CC"/>
</svg>
