<svg width="24" height="24" viewBox="0 0 24 24" fill="none" xmlns="http://www.w3.org/2000/svg">
<g opacity="0.3">
<path d="M4 2C3.44772 2 3 2.44772 3 3V9C3 9.55228 3.44772 10 4 10H12C12.5523 10 13 9.55228 13 9V3C13 2.44772 12.5523 2 12 2H4Z" fill="#0000CC"/>
<path d="M4 14C3.44772 14 3 14.4477 3 15V21C3 21.5523 3.44772 22 4 22H12C12.5523 22 13 21.5523 13 21V15C13 14.4477 12.5523 14 12 14H4Z" fill="#0000CC"/>
</g>
<path d="M12 8C11.4477 8 11 8.44772 11 9V15C11 15.5523 11.4477 16 12 16H20C20.5523 16 21 15.5523 21 15V9C21 8.44772 20.5523 8 20 8H12Z" fill="#0000CC"/>
</svg>
