<svg width="24" height="24" viewBox="0 0 24 24" fill="none" xmlns="http://www.w3.org/2000/svg">
<g opacity="0.3">
<path d="M10 3C8.34315 3 7 4.34315 7 6C7 7.65685 8.34315 9 10 9H12C12.5523 9 13 8.55228 13 8V6C13 4.34315 11.6569 3 10 3Z" fill="#0000CC"/>
<path d="M18 7C16.3431 7 15 8.34315 15 10V12C15 12.5523 15.4477 13 16 13H18C19.6569 13 21 11.6569 21 10C21 8.34315 19.6569 7 18 7Z" fill="#0000CC"/>
<path d="M6 11C4.34315 11 3 12.3431 3 14C3 15.6569 4.34315 17 6 17C7.65685 17 9 15.6569 9 14V12C9 11.4477 8.55228 11 8 11H6Z" fill="#0000CC"/>
<path d="M12 15C11.4477 15 11 15.4477 11 16V18C11 19.6569 12.3431 21 14 21C15.6569 21 17 19.6569 17 18C17 16.3431 15.6569 15 14 15H12Z" fill="#0000CC"/>
</g>
<path d="M14 3C12.3431 3 11 4.34315 11 6V7.17071C10.6872 7.06015 10.3506 7 10 7H6C4.34315 7 3 8.34315 3 10C3 11.6569 4.34315 13 6 13H7.17071C7.06015 13.3128 7 13.6494 7 14V18C7 19.6569 8.34315 21 10 21C11.6569 21 13 19.6569 13 18V16.8293C13.3128 16.9398 13.6494 17 14 17H18C19.6569 17 21 15.6569 21 14C21 12.3431 19.6569 11 18 11H16.8293C16.9398 10.6872 17 10.3506 17 10V6C17 4.34315 15.6569 3 14 3Z" fill="#0000CC"/>
</svg>
