<svg width="24" height="24" viewBox="0 0 24 24" fill="none" xmlns="http://www.w3.org/2000/svg">
<path opacity="0.3" d="M12 2C6.47715 2 2 6.47715 2 12C2 17.5228 6.47715 22 12 22C17.5228 22 22 17.5228 22 12C22 6.47715 17.5228 2 12 2Z" fill="#0000CC"/>
<path fill-rule="evenodd" clip-rule="evenodd" d="M14.6248 6.5C13.5152 6.5 12.522 6.99856 11.8571 7.7839C11.8455 7.79668 11.8342 7.80982 11.8232 7.82332L7.96631 12.5527L4.09172 8.67815L2.99984 7.63587C2.6857 8.28252 2.4392 8.9681 2.26953 9.68343L2.6775 10.0924L6.76106 14.1759C6.59336 14.5409 6.49984 14.947 6.49984 15.375C6.49984 16.9628 7.78702 18.25 9.37484 18.25C10.0625 18.25 10.6938 18.0086 11.1886 17.6058L11.2002 17.5965L16.9274 12.9258C16.9407 12.915 16.9537 12.9038 16.9663 12.8924C17.7515 12.2275 18.2498 11.2344 18.2498 10.125C18.2498 8.12297 16.6269 6.5 14.6248 6.5ZM14.6248 8.5C13.7274 8.5 12.9998 9.22754 12.9998 10.125C12.9998 11.0225 13.7274 11.75 14.6248 11.75C15.5223 11.75 16.2498 11.0225 16.2498 10.125C16.2498 9.22754 15.5223 8.5 14.6248 8.5ZM11.3166 11.6091L10.4278 12.6989C11.1687 12.9907 11.7591 13.5812 12.0509 14.322L13.1407 13.4332C12.3317 13.0697 11.6801 12.4182 11.3166 11.6091ZM9.37484 14.5C8.89159 14.5 8.49984 14.8918 8.49984 15.375C8.49984 15.8582 8.89159 16.25 9.37484 16.25C9.85809 16.25 10.2498 15.8582 10.2498 15.375C10.2498 14.8918 9.85809 14.5 9.37484 14.5Z" fill="#0000CC"/>
</svg>
