<svg width="24" height="24" viewBox="0 0 24 24" fill="none" xmlns="http://www.w3.org/2000/svg">
<path opacity="0.3" d="M9 2C8.44772 2 8 2.44772 8 3V4.1C8 5.14934 7.14934 6 6.1 6H6C5.44772 6 5 6.44772 5 7V11C5 11.5523 5.44772 12 6 12H8V15C8 18.866 11.134 22 15 22H18C18.5523 22 19 21.5523 19 21V17C19 16.4477 18.5523 16 18 16H15C14.4477 16 14 15.5523 14 15V12H18C18.5523 12 19 11.5523 19 11V7C19 6.44772 18.5523 6 18 6H14V3C14 2.44772 13.5523 2 13 2H9Z" fill="#0000CC"/>
<path d="M6 6C5.44772 6 5 6.44772 5 7V11C5 11.5523 5.44772 12 6 12H18C18.5523 12 19 11.5523 19 11V7C19 6.44772 18.5523 6 18 6H6Z" fill="#0000CC"/>
</svg>
