<svg width="24" height="24" viewBox="0 0 24 24" fill="none" xmlns="http://www.w3.org/2000/svg">
<path fill-rule="evenodd" clip-rule="evenodd" d="M10 5C10 3.89543 10.8954 3 12 3C13.1046 3 14 3.89543 14 5C14 5.60452 13.7318 6.1464 13.3079 6.51313L14.2626 8.74084C14.5514 9.41462 14.7427 9.85864 14.9153 10.1795C15.0847 10.4943 15.1813 10.5817 15.2271 10.6139C15.43 10.7569 15.6788 10.8192 15.9252 10.7889C15.9807 10.782 16.1071 10.7506 16.405 10.5528C16.7085 10.3514 17.0866 10.0501 17.6591 9.59213L18.3106 9.07092C18.1139 8.76131 18 8.39395 18 8C18 6.89543 18.8954 6 20 6C21.1046 6 22 6.89543 22 8C22 8.79246 21.5391 9.47727 20.8708 9.801L18.9839 20.1789C18.8974 20.6544 18.4833 21 18 21H6C5.51671 21 5.10258 20.6544 5.01613 20.1789L3.12924 9.801C2.46089 9.47727 2 8.79246 2 8C2 6.89543 2.89543 6 4 6C5.10457 6 6 6.89543 6 8C6 8.39395 5.8861 8.7613 5.68943 9.07092L6.34094 9.59213C6.91336 10.0501 7.29148 10.3514 7.595 10.5528C7.89288 10.7506 8.01929 10.782 8.0748 10.7889C8.32117 10.8192 8.57002 10.7569 8.77295 10.6139C8.81867 10.5817 8.91528 10.4943 9.08469 10.1795C9.25731 9.85865 9.44862 9.41462 9.73739 8.74084L10.6921 6.51313C10.2682 6.1464 10 5.60452 10 5Z" fill="#0000CC"/>
</svg>
