<svg width="24" height="24" viewBox="0 0 24 24" fill="none" xmlns="http://www.w3.org/2000/svg">
<path fill-rule="evenodd" clip-rule="evenodd" d="M3.52808 9.05742L9.05717 3.52832C9.42991 3.15556 9.75147 2.83398 10.038 2.59076C10.3404 2.33405 10.6688 2.10643 11.0727 1.9752C11.6752 1.77943 12.3243 1.77943 12.9268 1.9752C13.3307 2.10643 13.6592 2.33405 13.9616 2.59076C14.2481 2.83398 14.5696 3.15557 14.9424 3.52834L20.4714 9.0574C20.8442 9.43015 21.1658 9.75171 21.409 10.0382C21.6657 10.3406 21.8934 10.6691 22.0246 11.073C22.2204 11.6755 22.2204 12.3245 22.0246 12.9271C21.8934 13.3309 21.6657 13.6594 21.409 13.9618C21.1658 14.2483 20.8442 14.5699 20.4714 14.9426L14.9424 20.4717C14.5696 20.8445 14.2481 21.166 13.9616 21.4093C13.6592 21.666 13.3307 21.8936 12.9268 22.0248C12.3243 22.2206 11.6752 22.2206 11.0727 22.0248C10.6688 21.8936 10.3404 21.666 10.038 21.4093C9.75147 21.166 9.42991 20.8445 9.05717 20.4717L3.52808 14.9426C3.15531 14.5699 2.83374 14.2483 2.59051 13.9618C2.3338 13.6594 2.10618 13.3309 1.97496 12.9271C1.77918 12.3245 1.77918 11.6755 1.97496 11.073C2.10618 10.6691 2.3338 10.3406 2.59051 10.0382C2.83374 9.75171 3.15531 9.43016 3.52808 9.05742Z" fill="#0000CC"/>
</svg>
