<svg width="24" height="24" viewBox="0 0 24 24" fill="none" xmlns="http://www.w3.org/2000/svg">
<path fill-rule="evenodd" clip-rule="evenodd" d="M7.85256 2.3396C7.87676 2.33969 7.90038 2.33977 7.92336 2.33977H16.0758C16.0988 2.33977 16.1224 2.33969 16.1466 2.3396C16.4059 2.33867 16.732 2.3375 17.0403 2.43766C17.3068 2.52427 17.5522 2.66594 17.7605 2.85348C18.0014 3.07036 18.1634 3.35334 18.2922 3.57837C18.3043 3.59938 18.316 3.61988 18.3275 3.63977L22.4037 10.7C22.4152 10.7199 22.4271 10.7403 22.4393 10.7613C22.5698 10.9854 22.7338 11.2672 22.8012 11.5842C22.8595 11.8584 22.8595 12.1417 22.8012 12.4159C22.7338 12.7329 22.5698 13.0147 22.4393 13.2388C22.4271 13.2597 22.4152 13.2801 22.4037 13.3L18.3275 20.3603C18.316 20.3802 18.3043 20.4007 18.2923 20.4217C18.1634 20.6467 18.0014 20.9297 17.7605 21.1466C17.5522 21.3341 17.3068 21.4758 17.0403 21.5624C16.732 21.6626 16.4059 21.6614 16.1466 21.6605C16.1224 21.6604 16.0988 21.6603 16.0758 21.6603H7.92336C7.90039 21.6603 7.87677 21.6604 7.85256 21.6605C7.59325 21.6614 7.26717 21.6626 6.95891 21.5624C6.69235 21.4758 6.44697 21.3341 6.23869 21.1466C5.99782 20.9297 5.83579 20.6467 5.70694 20.4217C5.69492 20.4007 5.68318 20.3802 5.67169 20.3603L1.59545 13.3C1.58396 13.2801 1.57208 13.2597 1.5599 13.2388C1.42944 13.0147 1.26539 12.7329 1.198 12.4159C1.13973 12.1417 1.13973 11.8584 1.198 11.5842C1.26539 11.2672 1.42944 10.9854 1.5599 10.7613C1.57208 10.7403 1.58397 10.7199 1.59545 10.7L5.67169 3.63977C5.68318 3.61988 5.69491 3.59938 5.70694 3.57837C5.83579 3.35334 5.99782 3.07036 6.23869 2.85348C6.44697 2.66594 6.69235 2.52427 6.95891 2.43766C7.26716 2.3375 7.59325 2.33867 7.85256 2.3396Z" fill="#0000CC"/>
</svg>
