<svg width="24" height="24" viewBox="0 0 24 24" fill="none" xmlns="http://www.w3.org/2000/svg">
<path fill-rule="evenodd" clip-rule="evenodd" d="M11.5846 1.19843C11.8588 1.14016 12.1421 1.14016 12.4163 1.19843C12.7333 1.26582 13.0151 1.42987 13.2392 1.56033C13.2601 1.57251 13.2806 1.58439 13.3005 1.59588L20.3607 5.67212C20.3806 5.6836 20.4011 5.69534 20.4221 5.70737C20.6471 5.83622 20.9301 5.99825 21.147 6.23911C21.3345 6.4474 21.4762 6.69278 21.5628 6.95934C21.663 7.26759 21.6618 7.59368 21.6609 7.85299C21.6608 7.87719 21.6607 7.90081 21.6607 7.92378V16.0763C21.6607 16.0992 21.6608 16.1229 21.6609 16.1471C21.6618 16.4064 21.663 16.7325 21.5628 17.0407C21.4762 17.3073 21.3345 17.5527 21.147 17.7609C20.9301 18.0018 20.6471 18.1638 20.4221 18.2927C20.4011 18.3047 20.3806 18.3164 20.3607 18.3279L13.3005 22.4042C13.2806 22.4157 13.2601 22.4275 13.2392 22.4397C13.0151 22.5702 12.7333 22.7342 12.4163 22.8016C12.1421 22.8599 11.8588 22.8599 11.5846 22.8016C11.2676 22.7342 10.9858 22.5702 10.7617 22.4397C10.7408 22.4275 10.7204 22.4157 10.7005 22.4042L3.6402 18.3279C3.62031 18.3164 3.59981 18.3047 3.5788 18.2927C3.35377 18.1638 3.07079 18.0018 2.85391 17.7609C2.66637 17.5526 2.5247 17.3073 2.43809 17.0407C2.33793 16.7325 2.3391 16.4064 2.34003 16.1471C2.34012 16.1229 2.3402 16.0992 2.3402 16.0763V7.92378C2.3402 7.90081 2.34012 7.87719 2.34003 7.85298C2.3391 7.59368 2.33793 7.26759 2.43809 6.95934C2.5247 6.69278 2.66637 6.4474 2.85391 6.23911C3.07079 5.99825 3.35377 5.83622 3.5788 5.70737C3.5998 5.69534 3.62031 5.6836 3.6402 5.67212L10.7005 1.59588C10.7203 1.58439 10.7408 1.57251 10.7617 1.56033C10.9858 1.42987 11.2676 1.26582 11.5846 1.19843Z" fill="#0000CC"/>
</svg>
