<svg width="24" height="24" viewBox="0 0 24 24" fill="none" xmlns="http://www.w3.org/2000/svg">
<path fill-rule="evenodd" clip-rule="evenodd" d="M11.53 2.20173C11.8409 2.15248 12.1577 2.15248 12.4686 2.20173C12.8225 2.25779 13.1538 2.39538 13.5296 2.55144C13.555 2.56201 13.5807 2.57266 13.6065 2.58337L17.5213 4.20493C17.5472 4.21564 17.5729 4.22624 17.5983 4.23676C17.9744 4.39212 18.306 4.5291 18.5959 4.73973C18.8505 4.92477 19.0745 5.14874 19.2596 5.40343C19.4702 5.69334 19.6072 6.02491 19.7625 6.40098C19.773 6.42643 19.7836 6.45209 19.7944 6.47795L21.4159 10.3927C21.4266 10.4186 21.4373 10.4442 21.4478 10.4697C21.6039 10.8455 21.7415 11.1768 21.7976 11.5307C21.8468 11.8416 21.8468 12.1584 21.7976 12.4693C21.7415 12.8232 21.6039 13.1546 21.4478 13.5303C21.4373 13.5558 21.4266 13.5814 21.4159 13.6073L19.7944 17.5221C19.7836 17.5479 19.773 17.5736 19.7625 17.5991C19.6072 17.9751 19.4702 18.3067 19.2596 18.5966C19.0745 18.8513 18.8505 19.0753 18.5959 19.2603C18.306 19.4709 17.9744 19.6079 17.5983 19.7633C17.5729 19.7738 17.5472 19.7844 17.5213 19.7951L13.6065 21.4167C13.5807 21.4274 13.555 21.438 13.5296 21.4486C13.1538 21.6046 12.8225 21.7422 12.4686 21.7983C12.1577 21.8475 11.8409 21.8475 11.53 21.7983C11.176 21.7422 10.8447 21.6046 10.469 21.4486C10.4435 21.438 10.4179 21.4274 10.392 21.4166L6.47722 19.7951C6.45136 19.7844 6.4257 19.7738 6.40025 19.7633C6.02418 19.6079 5.69261 19.4709 5.40269 19.2603C5.14801 19.0752 4.92404 18.8513 4.739 18.5966C4.52837 18.3067 4.39139 17.9751 4.23603 17.5991C4.22551 17.5736 4.21491 17.5479 4.2042 17.5221L2.58264 13.6073C2.57192 13.5814 2.56128 13.5558 2.55071 13.5303C2.39465 13.1546 2.25706 12.8232 2.201 12.4693C2.15175 12.1584 2.15175 11.8416 2.201 11.5307C2.25706 11.1768 2.39465 10.8455 2.55071 10.4697C2.56128 10.4442 2.57192 10.4186 2.58264 10.3927L4.2042 6.47795C4.21491 6.45209 4.22551 6.42643 4.23603 6.40097C4.39139 6.0249 4.52837 5.69334 4.739 5.40343C4.92404 5.14874 5.14801 4.92477 5.40269 4.73973C5.6926 4.5291 6.02417 4.39212 6.40024 4.23676C6.42569 4.22624 6.45135 4.21564 6.47722 4.20493L10.392 2.58337C10.4179 2.57266 10.4435 2.56201 10.469 2.55144C10.8447 2.39538 11.176 2.25779 11.53 2.20173Z" fill="#0000CC"/>
</svg>
