<svg width="24" height="24" viewBox="0 0 24 24" fill="none" xmlns="http://www.w3.org/2000/svg">
<path fill-rule="evenodd" clip-rule="evenodd" d="M12 2C12.4522 2 12.8481 2.3034 12.9656 2.74001L14.3958 8.05182C14.5878 8.76495 14.637 8.90297 14.7026 9.004C14.7788 9.12122 14.8788 9.22116 14.996 9.29736C15.097 9.36305 15.235 9.41218 15.9482 9.60419L21.26 11.0344C21.6966 11.1519 22 11.5478 22 12C22 12.4522 21.6966 12.8481 21.26 12.9656L15.9482 14.3958C15.235 14.5878 15.097 14.637 14.996 14.7026C14.8788 14.7788 14.7788 14.8788 14.7026 14.996C14.637 15.097 14.5878 15.235 14.3958 15.9482L12.9656 21.26C12.8481 21.6966 12.4522 22 12 22C11.5478 22 11.1519 21.6966 11.0344 21.26L9.60419 15.9482C9.41218 15.235 9.36305 15.097 9.29736 14.996C9.22116 14.8788 9.12122 14.7788 9.004 14.7026C8.90297 14.637 8.76495 14.5878 8.05182 14.3958L2.74001 12.9656C2.3034 12.8481 2 12.4522 2 12C2 11.5478 2.3034 11.1519 2.74001 11.0344L8.05182 9.60419C8.76495 9.41218 8.90297 9.36305 9.004 9.29736C9.12122 9.22116 9.22116 9.12122 9.29736 9.004C9.36305 8.90297 9.41218 8.76495 9.60419 8.05182L11.0344 2.74001C11.1519 2.3034 11.5478 2 12 2Z" fill="#0000CC"/>
</svg>
