<svg width="24" height="24" viewBox="0 0 24 24" fill="none" xmlns="http://www.w3.org/2000/svg">
<path d="M12.8401 3.32225C12.3071 3.07552 11.6926 3.07552 11.1597 3.32225C10.7423 3.51548 10.4806 3.85936 10.3026 4.13202C10.1244 4.40512 9.9342 4.76446 9.72234 5.16469L3.34002 17.2202C3.1516 17.576 2.97934 17.9014 2.86406 18.1775C2.74591 18.4604 2.6222 18.8363 2.67777 19.26C2.75015 19.8119 3.04923 20.3086 3.5031 20.6308C3.85157 20.8782 4.24165 20.9447 4.54702 20.9727C4.84499 21 5.21312 21 5.61577 20.9999H18.384C18.7866 21 19.1548 21 19.4527 20.9727C19.7581 20.9447 20.1482 20.8782 20.4967 20.6308C20.9505 20.3086 21.2496 19.8119 21.322 19.26C21.3776 18.8363 21.2538 18.4604 21.1357 18.1775C21.0204 17.9014 20.8482 17.576 20.6597 17.2202L14.2774 5.16468C14.0656 4.76445 13.8754 4.40511 13.6971 4.13202C13.5192 3.85935 13.2575 3.51548 12.8401 3.32225Z" fill="#0000CC"/>
</svg>
