<svg width="24" height="24" viewBox="0 0 24 24" fill="none" xmlns="http://www.w3.org/2000/svg">
<path opacity="0.3" fill-rule="evenodd" clip-rule="evenodd" d="M15.8385 2H8.16146C7.63436 1.99999 7.17952 1.99997 6.80498 2.03057C6.40963 2.06287 6.01641 2.13419 5.63803 2.32698C5.07355 2.6146 4.6146 3.07355 4.32698 3.63803C4.13419 4.01641 4.06287 4.40963 4.03057 4.80498C3.99997 5.17953 3.99998 5.63429 4 6.1614V19C4 20.6569 5.34315 22 7 22H19C19.5523 22 20 21.5523 20 21C20 20.4477 19.5523 20 19 20H7C6.96549 20 6.93138 19.9983 6.89776 19.9948C6.3935 19.9436 6 19.5178 6 19C6 18.931 6.007 18.8636 6.02032 18.7985C6.11357 18.3428 6.51675 18 7 18L19.002 18C19.5534 17.9989 20 17.5516 20 17V6.16146C20 5.63437 20 5.17951 19.9694 4.80498C19.9371 4.40963 19.8658 4.01641 19.673 3.63803C19.3854 3.07355 18.9265 2.6146 18.362 2.32698C17.9836 2.13419 17.5904 2.06287 17.195 2.03057C16.8205 1.99997 16.3657 1.99999 15.8385 2Z" fill="#0000CC"/>
<path d="M9.99967 7.5C9.99967 6.39543 10.8951 5.5 11.9997 5.5C13.1042 5.5 13.9997 6.39543 13.9997 7.5C13.9997 8.60457 13.1042 9.5 11.9997 9.5C10.8951 9.5 9.99967 8.60457 9.99967 7.5Z" fill="#0000CC"/>
<path d="M11.9997 10.5C10.5975 10.5 9.36381 11.2215 8.64964 12.3136C8.46706 12.5927 8.37577 12.7323 8.39775 13.0658C8.41276 13.2934 8.61206 13.6619 8.79439 13.7991C9.06142 14 9.32182 14 9.8426 14H14.1569C14.6777 14 14.9381 14 15.2051 13.7991C15.3874 13.6619 15.5867 13.2934 15.6017 13.0658C15.6237 12.7323 15.5324 12.5927 15.3498 12.3136C14.6357 11.2215 13.402 10.5 11.9997 10.5Z" fill="#0000CC"/>
<path d="M7 18C6.44772 18 6 18.4477 6 19C6 19.5523 6.44771 20 7 20H18V18H7Z" fill="#0000CC"/>
</svg>
