<svg width="24" height="24" viewBox="0 0 24 24" fill="none" xmlns="http://www.w3.org/2000/svg">
<path opacity="0.3" fill-rule="evenodd" clip-rule="evenodd" d="M4.32698 3.63803C4 4.27976 4 5.11984 4 6.8V17.2C4 18.8802 4 19.7202 4.32698 20.362C4.6146 20.9265 5.07354 21.3854 5.63803 21.673C6.27976 22 7.11984 22 8.8 22H15.2C16.8802 22 17.7202 22 18.362 21.673C18.9265 21.3854 19.3854 20.9265 19.673 20.362C20 19.7202 20 18.8802 20 17.2V6.8C20 5.11984 20 4.27976 19.673 3.63803C19.3854 3.07354 18.9265 2.6146 18.362 2.32698C17.7202 2 16.8802 2 15.2 2H8.8C7.11984 2 6.27976 2 5.63803 2.32698C5.07354 2.6146 4.6146 3.07354 4.32698 3.63803Z" fill="#0000CC"/>
<path fill-rule="evenodd" clip-rule="evenodd" d="M15.0005 11C15.0005 12.6569 13.6573 14 12.0005 14C10.3436 14 9.00049 12.6569 9.00049 11C9.00049 9.34315 10.3436 8 12.0005 8C13.6573 8 15.0005 9.34315 15.0005 11ZM17.8273 19.5626C17.733 19.7011 17.605 19.8143 17.4545 19.891C17.2406 20 16.9606 20 16.4006 20H7.60055C7.0405 20 6.76048 20 6.54656 19.891C6.39608 19.8143 6.26809 19.7011 6.17383 19.5626C6.81787 16.9431 9.1823 15 12.0006 15C14.8188 15 17.1832 16.9431 17.8273 19.5626Z" fill="#0000CC"/>
</svg>
