<svg width="24" height="24" viewBox="0 0 24 24" fill="none" xmlns="http://www.w3.org/2000/svg">
<path opacity="0.3" d="M12 2C9.23858 2 7 4.23858 7 7C7 9.76142 9.23858 12 12 12C14.7614 12 17 9.76142 17 7C17 4.23858 14.7614 2 12 2Z" fill="#0000CC"/>
<path d="M12.0004 13C15.5854 13 18.6809 15.0961 20.128 18.1297C20.4453 18.7949 20.604 19.1275 20.48 19.8975C20.3961 20.4187 19.8675 21.2564 19.4332 21.5566C18.7917 22 18.1946 22 17.0004 22H7.00036C5.80615 22 5.20904 22 4.56748 21.5566C4.13318 21.2564 3.60465 20.4187 3.52072 19.8975C3.39673 19.1275 3.5554 18.7949 3.87272 18.1297C5.31986 15.0961 8.41532 13 12.0004 13Z" fill="#0000CC"/>
</svg>
