<svg width="24" height="24" viewBox="0 0 24 24" fill="none" xmlns="http://www.w3.org/2000/svg">
<g opacity="0.3">
<path d="M11 2C8.23858 2 6 4.23858 6 7C6 9.76142 8.23858 12 11 12C13.7614 12 16 9.76142 16 7C16 4.23858 13.7614 2 11 2Z" fill="#0000CC"/>
<path d="M11 13C6.58172 13 3 16.5817 3 21C3 21.5523 3.44772 22 4 22H13.668C12.785 21.1321 12.0303 20.3263 11.6891 19.7964C9.98725 16.8182 11.7925 14.7454 12.5535 13.9952C12.7283 13.8228 13.0412 13.5865 13.4592 13.3851C12.6844 13.1351 11.858 13 11 13Z" fill="#0000CC"/>
</g>
<path d="M16.9973 15.8705C16.1975 14.9178 14.8639 14.6616 13.8619 15.5339C12.8599 16.4063 12.7188 17.8648 13.5057 18.8966C13.9736 19.5101 15.1197 20.6103 15.9719 21.4015C16.3237 21.728 16.4996 21.8913 16.7114 21.9575C16.8925 22.0142 17.102 22.0142 17.2832 21.9575C17.4949 21.8913 17.6708 21.728 18.0226 21.4015C18.8748 20.6103 20.0209 19.5101 20.4888 18.8966C21.2757 17.8648 21.1519 16.3971 20.1326 15.5339C19.1134 14.6707 17.797 14.9178 16.9973 15.8705Z" fill="#0000CC"/>
</svg>
