<svg width="24" height="24" viewBox="0 0 24 24" fill="none" xmlns="http://www.w3.org/2000/svg">
<g opacity="0.3">
<path d="M11 2C8.23858 2 6 4.23858 6 7C6 9.76142 8.23858 12 11 12C13.7614 12 16 9.76142 16 7C16 4.23858 13.7614 2 11 2Z" fill="#0000CC"/>
<path d="M11 13C6.58172 13 3 16.5817 3 21C3 21.5523 3.44772 22 4 22H14.1707C14.0602 21.6872 14 21.3506 14 21C12.3431 21 11 19.6569 11 18C11 16.3431 12.3431 15 14 15C14 14.5369 14.1049 14.0983 14.2923 13.7067C13.2882 13.2527 12.1736 13 11 13Z" fill="#0000CC"/>
</g>
<path d="M16 15C16 14.4477 16.4477 14 17 14C17.5523 14 18 14.4477 18 15V17H20C20.5523 17 21 17.4477 21 18C21 18.5523 20.5523 19 20 19H18V21C18 21.5523 17.5523 22 17 22C16.4477 22 16 21.5523 16 21V19H14C13.4477 19 13 18.5523 13 18C13 17.4477 13.4477 17 14 17H16V15Z" fill="#0000CC"/>
</svg>
