<svg width="24" height="24" viewBox="0 0 24 24" fill="none" xmlns="http://www.w3.org/2000/svg">
<g opacity="0.3">
<path d="M11 2C8.23862 2 6.00005 4.23858 6.00005 7C6.00005 9.76142 8.23862 12 11 12C13.7615 12 16 9.76142 16 7C16 4.23858 13.7615 2 11 2Z" fill="#0000CC"/>
<path d="M7.68414 13L7.59006 13C7.04618 12.9998 6.64297 12.9996 6.28748 13.064C4.64594 13.3612 3.3612 14.6459 3.06402 16.2874C2.99967 16.6429 2.99982 17.0461 3.00002 17.59L3.00004 19.4319C3.00001 19.6843 2.99998 19.9301 3.01699 20.1382C3.03567 20.3668 3.07973 20.6366 3.21803 20.908C3.40978 21.2843 3.71574 21.5903 4.09206 21.782C4.36349 21.9203 4.63322 21.9644 4.86182 21.9831C5.06988 22.0001 5.31565 22 5.56791 22H10.0391C9.97218 21.6295 10.0064 21.3184 10.0303 21.1487C10.0602 20.9359 10.1156 20.7014 10.1541 20.538L10.2233 20.2436C10.3523 19.6931 10.4662 19.2074 10.6615 18.742C10.8333 18.3325 11.05 17.9433 11.3077 17.5817C11.6005 17.1706 11.9536 16.8181 12.3536 16.4185L15.7089 13.0633L15.7071 13.063C15.3543 12.9996 14.9543 12.9998 14.4147 13L14.3213 13C14.1243 13 13.9317 13.0582 13.7676 13.1673C12.9768 13.6931 12.0244 14 11 14C9.97666 14 9.02944 13.6936 8.23782 13.1673C8.07376 13.0582 7.88115 13 7.68414 13Z" fill="#0000CC"/>
</g>
<path d="M20.5 13.5001C19.8127 12.8128 18.6985 12.8128 18.0112 13.5001L13.8486 17.7519C13.3695 18.2311 13.1299 18.4707 12.9364 18.7423C12.7646 18.9834 12.6201 19.2428 12.5056 19.5158C12.3766 19.8233 12.2991 20.1531 12.144 20.8128L12.1101 20.957C12.0155 21.3594 11.9682 21.5606 12.0238 21.7046C12.0723 21.8305 12.1697 21.9314 12.2937 21.9844C12.4357 22.0451 12.6385 22.005 13.0439 21.9249L13.1408 21.9058C13.8501 21.7656 14.2049 21.6955 14.5357 21.5664C14.8293 21.4517 15.1083 21.3028 15.367 21.1227C15.6584 20.9197 15.9141 20.6641 16.4254 20.1527L20.5 15.9888C21.1873 15.3016 21.1873 14.1873 20.5 13.5001Z" fill="#0000CC"/>
</svg>
