<svg width="24" height="24" viewBox="0 0 24 24" fill="none" xmlns="http://www.w3.org/2000/svg">
<g opacity="0.3">
<path d="M11 2C8.23862 2 6.00005 4.23858 6.00005 7C6.00005 9.76142 8.23862 12 11 12C13.7615 12 16 9.76142 16 7C16 4.23858 13.7615 2 11 2Z" fill="#0000CC"/>
<path d="M7.68414 13L7.59006 13C7.04618 12.9998 6.64297 12.9996 6.28748 13.064C4.64594 13.3612 3.3612 14.6459 3.06402 16.2874C2.99967 16.6429 2.99982 17.0461 3.00002 17.59L3.00004 19.4319C3.00001 19.6843 2.99998 19.9301 3.01699 20.1382C3.03567 20.3668 3.07973 20.6366 3.21803 20.908C3.40978 21.2843 3.71574 21.5903 4.09206 21.782C4.36349 21.9203 4.63322 21.9644 4.86182 21.9831C5.06988 22.0001 5.31565 22 5.56791 22H12.0278C11.0777 20.9385 10.5 19.5367 10.5 18C10.5 16.3985 11.1274 14.9436 12.1498 13.8677C11.7808 13.9542 11.3958 14 11 14C9.97666 14 9.02944 13.6936 8.23782 13.1673C8.07376 13.0582 7.88115 13 7.68414 13Z" fill="#0000CC"/>
</g>
<path d="M20 13.5C20.5523 13.5 21 13.9477 21 14.5V17.5C21 18.0523 20.5523 18.5 20 18.5H17C16.4477 18.5 16 18.0523 16 17.5C16 16.9477 16.4477 16.5 17 16.5H17.8231C17.4701 16.1886 17.0067 16 16.5 16C15.3954 16 14.5 16.8954 14.5 18C14.5 19.1046 15.3954 20 16.5 20C17.0129 20 17.4786 19.8083 17.8331 19.491C18.2446 19.1226 18.8768 19.1577 19.2451 19.5692C19.6135 19.9807 19.5784 20.6129 19.1669 20.9812C18.4599 21.614 17.5238 22 16.5 22C14.2909 22 12.5 20.2091 12.5 18C12.5 15.7909 14.2909 14 16.5 14C17.4465 14 18.3156 14.3286 19 14.8774V14.5C19 13.9477 19.4477 13.5 20 13.5Z" fill="#0000CC"/>
</svg>
