<svg width="24" height="24" viewBox="0 0 24 24" fill="none" xmlns="http://www.w3.org/2000/svg">
<g opacity="0.3">
<path d="M11 2C8.23858 2 6 4.23858 6 7C6 9.76142 8.23858 12 11 12C13.7614 12 16 9.76142 16 7C16 4.23858 13.7614 2 11 2Z" fill="#0000CC"/>
<path d="M11 13C6.58172 13 3 16.5817 3 21C3 21.5523 3.44772 22 4 22H10.0391C9.97218 21.6295 10.0064 21.3184 10.0303 21.1487C10.0602 20.9359 10.1156 20.7014 10.1541 20.538L10.2233 20.2436C10.3523 19.6931 10.4662 19.2074 10.6615 18.742C10.8333 18.3325 11.05 17.9433 11.3077 17.5817C11.6005 17.1706 11.9536 16.8181 12.3536 16.4185L14.809 13.9632C13.6765 13.3489 12.379 13 11 13Z" fill="#0000CC"/>
</g>
<path d="M18.0112 13.5001C18.6985 12.8128 19.8127 12.8128 20.5 13.5001C21.1873 14.1873 21.1873 15.3016 20.5 15.9888L16.4254 20.1527C15.9141 20.6641 15.6584 20.9198 15.367 21.1227C15.1083 21.3028 14.8293 21.4517 14.5357 21.5664C14.2049 21.6955 13.8501 21.7656 13.1408 21.9058L13.0439 21.9249C12.6385 22.0051 12.4357 22.0451 12.2937 21.9844C12.1697 21.9314 12.0723 21.8305 12.0238 21.7046C11.9682 21.5606 12.0155 21.3594 12.1101 20.957L12.144 20.8128C12.2991 20.1531 12.3766 19.8233 12.5056 19.5158C12.6201 19.2428 12.7646 18.9834 12.9364 18.7423C13.1299 18.4707 13.3695 18.2311 13.8486 17.7519L18.0112 13.5001Z" fill="#0000CC"/>
</svg>
