<svg width="24" height="24" viewBox="0 0 24 24" fill="none" xmlns="http://www.w3.org/2000/svg">
<g opacity="0.3">
<path d="M11 2C8.23862 2 6.00005 4.23858 6.00005 7C6.00005 9.76142 8.23862 12 11 12C13.7615 12 16 9.76142 16 7C16 4.23858 13.7615 2 11 2Z" fill="#0000CC"/>
<path d="M7.68414 13L7.59006 13C7.04618 12.9998 6.64297 12.9996 6.28748 13.064C4.64594 13.3612 3.3612 14.6459 3.06402 16.2874C2.99967 16.6429 2.99982 17.0461 3.00002 17.59L3.00004 19.4319C3.00001 19.6843 2.99998 19.9301 3.01699 20.1382C3.03567 20.3668 3.07973 20.6366 3.21803 20.908C3.40978 21.2843 3.71574 21.5903 4.09206 21.782C4.36349 21.9203 4.63322 21.9644 4.86182 21.9831C5.06988 22.0001 5.31565 22 5.56791 22H13.3369C11.9235 21.0046 11 19.3602 11 17.5C11 16.0706 11.5453 14.7686 12.4391 13.7906C11.9836 13.9268 11.5004 14 11 14C9.97666 14 9.02944 13.6936 8.23782 13.1673C8.07376 13.0582 7.88115 13 7.68414 13Z" fill="#0000CC"/>
</g>
<path fill-rule="evenodd" clip-rule="evenodd" d="M13 17.5C13 15.567 14.567 14 16.5 14C18.433 14 20 15.567 20 17.5C20 18.1028 19.8476 18.6699 19.5793 19.1651L20.7071 20.2929C21.0976 20.6834 21.0976 21.3166 20.7071 21.7071C20.3166 22.0976 19.6834 22.0976 19.2929 21.7071L18.1651 20.5793C17.6699 20.8476 17.1028 21 16.5 21C14.567 21 13 19.433 13 17.5ZM16.5 16C15.6716 16 15 16.6716 15 17.5C15 18.3284 15.6716 19 16.5 19C17.3284 19 18 18.3284 18 17.5C18 16.6716 17.3284 16 16.5 16Z" fill="#0000CC"/>
</svg>
