<svg width="24" height="24" viewBox="0 0 24 24" fill="none" xmlns="http://www.w3.org/2000/svg">
<g opacity="0.3">
<path d="M11 2C8.23862 2 6.00005 4.23858 6.00005 7C6.00005 9.76142 8.23862 12 11 12C13.7615 12 16 9.76142 16 7C16 4.23858 13.7615 2 11 2Z" fill="#0000CC"/>
<path d="M7.68414 13L7.59006 13C7.04618 12.9998 6.64297 12.9996 6.28748 13.064C4.64594 13.3612 3.3612 14.6459 3.06402 16.2874C2.99967 16.6429 2.99982 17.0461 3.00002 17.59L3.00004 19.4319C3.00001 19.6843 2.99998 19.9301 3.01699 20.1382C3.03567 20.3668 3.07973 20.6366 3.21803 20.908C3.40978 21.2843 3.71574 21.5903 4.09206 21.782C4.36349 21.9203 4.63322 21.9644 4.86182 21.9831C5.06988 22.0001 5.31565 22 5.56791 22H16.4321C16.6843 22 16.9302 22.0001 17.1383 21.9831C17.3669 21.9644 17.6366 21.9203 17.908 21.782C18.2532 21.6061 18.5392 21.3342 18.7321 21H14C12.3431 21 11 19.6569 11 18C11 16.3431 12.3431 15 14 15H18.4644C17.8864 13.9993 16.8889 13.2752 15.7071 13.063C15.3543 12.9996 14.9543 12.9998 14.4147 13L14.3213 13C14.1243 13 13.9317 13.0582 13.7676 13.1673C12.9768 13.6931 12.0244 14 11 14C9.97666 14 9.02944 13.6936 8.23782 13.1673C8.07376 13.0582 7.88115 13 7.68414 13Z" fill="#0000CC"/>
</g>
<path d="M14 17C13.4477 17 13 17.4477 13 18C13 18.5523 13.4477 19 14 19L20 19C20.5523 19 21 18.5523 21 18C21 17.4477 20.5523 17 20 17L14 17Z" fill="#0000CC"/>
</svg>
