<svg width="24" height="24" viewBox="0 0 24 24" fill="none" xmlns="http://www.w3.org/2000/svg">
<g opacity="0.3">
<path d="M11.5218 2C8.76042 2 6.52185 4.23858 6.52185 7C6.52185 9.76142 8.76042 12 11.5218 12C14.2833 12 16.5218 9.76142 16.5218 7C16.5218 4.23858 14.2833 2 11.5218 2Z" fill="#0000CC"/>
<path d="M11.5218 13C12.2168 13 12.8934 13.0788 13.5432 13.2279C13.3782 13.5507 13.2473 13.8937 13.155 14.2522C12.7693 15.7509 13.5865 17.2766 15.0034 17.8079C14.9663 18.3898 15.098 18.9805 15.3985 19.5002C15.1433 19.9415 14.9973 20.4537 14.9973 21C14.9973 21.3506 15.0575 21.6872 15.168 22H6.52185C5.32763 22 4.73052 22 4.08897 21.5566C3.65466 21.2564 3.12614 20.4187 3.0422 19.8975C2.91822 19.1275 3.07688 18.7949 3.39421 18.1297C4.84134 15.0961 7.9368 13 11.5218 13Z" fill="#0000CC"/>
</g>
<path d="M17.9978 14.5C17.5332 14.5 17.1403 14.8177 17.0292 15.2493C16.8916 15.7841 16.3464 16.1061 15.8115 15.9684C15.2767 15.8308 14.9547 15.2856 15.0924 14.7507C15.4253 13.457 16.5985 12.5 17.9978 12.5C19.6546 12.5 20.9978 13.8431 20.9978 15.5C20.9978 16.4314 20.5433 17.0493 20.0672 17.5087C19.8744 17.6948 19.6549 17.8768 19.4575 18.0404L19.3717 18.1116C19.1412 18.3033 18.9208 18.4913 18.7049 18.7071C18.3144 19.0976 17.6812 19.0976 17.2907 18.7071C16.9002 18.3166 16.9002 17.6834 17.2907 17.2929C17.5748 17.0087 17.8544 16.7723 18.0927 16.574L18.1842 16.498C18.3888 16.3282 18.544 16.1994 18.6783 16.0697C18.9523 15.8053 18.9978 15.6732 18.9978 15.5C18.9978 14.9477 18.5501 14.5 17.9978 14.5Z" fill="#0000CC"/>
<path d="M19.0005 21C19.0005 21.5523 18.5528 22 18.0005 22C17.4482 22 17.0005 21.5523 17.0005 21C17.0005 20.4477 17.4482 20 18.0005 20C18.5528 20 19.0005 20.4477 19.0005 21Z" fill="#0000CC"/>
</svg>
