<svg width="24" height="24" viewBox="0 0 24 24" fill="none" xmlns="http://www.w3.org/2000/svg">
<g opacity="0.3">
<path d="M12 2C10.3431 2 9 3.34315 9 5V6C9 6.55228 9.44772 7 10 7H14C14.5523 7 15 6.55228 15 6V5C15 3.34315 13.6569 2 12 2Z" fill="#0000CC"/>
<path d="M12 20C12.3407 20 12.6748 19.9716 13 19.917V14C13 13.4477 12.5523 13 12 13C11.4477 13 11 13.4477 11 14V19.917C11.3252 19.9716 11.6593 20 12 20Z" fill="#0000CC"/>
</g>
<path d="M5.20711 6.79289C4.81658 6.40237 4.18342 6.40237 3.79289 6.79289C3.40237 7.18342 3.40237 7.81658 3.79289 8.20711L6.0564 10.4706C5.99869 10.844 5.99925 11.2572 5.99987 11.7133L6 13H4C3.44772 13 3 13.4477 3 14C3 14.5523 3.44772 15 4 15H6.08296C6.19429 15.6636 6.41456 16.2903 6.72475 16.861L3.79289 19.7929C3.40237 20.1834 3.40237 20.8166 3.79289 21.2071C4.18342 21.5976 4.81658 21.5976 5.20711 21.2071L7.96949 18.4447C8.80069 19.1989 9.84433 19.7232 11 19.917V14C11 13.4477 11.4477 13 12 13C12.5523 13 13 13.4477 13 14V19.917C14.1557 19.7232 15.1993 19.1989 16.0305 18.4447L18.7929 21.2071C19.1834 21.5976 19.8166 21.5976 20.2071 21.2071C20.5976 20.8166 20.5976 20.1834 20.2071 19.7929L17.2752 16.861C17.5854 16.2903 17.8057 15.6636 17.917 15H20C20.5523 15 21 14.5523 21 14C21 13.4477 20.5523 13 20 13H18L18.0001 11.7133C18.0007 11.2572 18.0013 10.844 17.9436 10.4706L20.2071 8.20711C20.5976 7.81658 20.5976 7.18342 20.2071 6.79289C19.8166 6.40237 19.1834 6.40237 18.7929 6.79289L16.9041 8.6817C16.6353 8.46093 16.3271 8.28601 15.9908 8.16835C15.5046 7.99822 14.9397 7.99899 14.2867 7.99987H9.71335C9.06032 7.99899 8.49537 7.99822 8.00916 8.16835C7.6729 8.28601 7.36469 8.46093 7.09591 8.6817L5.20711 6.79289Z" fill="#0000CC"/>
</svg>
