<svg width="24" height="24" viewBox="0 0 24 24" fill="none" xmlns="http://www.w3.org/2000/svg">
<path opacity="0.3" fill-rule="evenodd" clip-rule="evenodd" d="M11.5385 1.56169C11.9986 1.50107 12.4695 1.48845 12.9385 1.64293C13.6257 1.86927 14.208 2.33634 14.578 2.95809C14.8305 3.38242 14.9204 3.84484 14.961 4.3071C15 4.75132 15 5.29992 15 5.94497V20.9991C15 21.5513 14.5523 21.9991 14 21.9991L5.00001 21.9991C4.73479 21.9991 4.48044 21.8938 4.2929 21.7062C4.10536 21.5187 4 21.2643 4 20.9991L4 6.53267C3.99999 6.10322 3.99997 5.72836 4.02298 5.41516C4.0475 5.08129 4.10151 4.75015 4.24345 4.41965C4.45818 3.91964 4.80487 3.48745 5.2464 3.16936C5.53823 2.95911 5.84977 2.83455 6.17037 2.73818C6.47112 2.64778 6.83706 2.56648 7.25629 2.47333C7.26712 2.47092 7.27799 2.46851 7.28889 2.46609L9.9312 1.87891C10.5609 1.73896 11.0964 1.61993 11.5385 1.56169Z" fill="#0000CC"/>
<path d="M15.8002 5.99903H15V5.94488C15 5.29983 15 4.75123 14.961 4.30701C14.952 4.20422 14.9405 4.10141 14.9253 3.99902H15.8388C16.3659 3.99901 16.8207 3.999 17.1952 4.0296C17.5905 4.0619 17.9838 4.13321 18.3621 4.32601C18.9266 4.61363 19.3856 5.07257 19.6732 5.63706C19.866 6.01544 19.9373 6.40865 19.9696 6.804C20.0002 7.17857 20.0002 7.63333 20.0002 8.16048V19.9999H21C21.5523 19.9999 22 20.4477 22 20.9999C22 21.5522 21.5523 21.9999 21 21.9999H19C18.4477 21.9999 18 21.5522 18 20.9999L18.0002 20.981V8.19903C18.0002 7.62247 17.9994 7.2502 17.9762 6.96686C17.9541 6.6952 17.9164 6.59448 17.8912 6.54504C17.7953 6.35687 17.6423 6.20389 17.4542 6.10802C17.4047 6.08283 17.304 6.04515 17.0323 6.02295C16.749 5.99981 16.3767 5.99903 15.8002 5.99903Z" fill="#0000CC"/>
<path d="M3 19.9999H4V20.999C4 21.2642 4.10536 21.5186 4.2929 21.7061C4.48044 21.8937 4.73478 21.9999 5 21.9999H3C2.44772 21.9999 2 21.5522 2 20.9999C2 20.4477 2.44772 19.9999 3 19.9999Z" fill="#0000CC"/>
<path d="M5.04301 21.999L5 21.9999C5.01441 21.9999 5.02875 21.9996 5.04301 21.999Z" fill="#0000CC"/>
<path d="M12 12.9999C12.5523 12.9999 13 12.5522 13 11.9999C13 11.4477 12.5523 10.9999 12 10.9999C11.4477 10.9999 11 11.4477 11 11.9999C11 12.5522 11.4477 12.9999 12 12.9999Z" fill="#0000CC"/>
</svg>
