<svg width="24" height="24" viewBox="0 0 24 24" fill="none" xmlns="http://www.w3.org/2000/svg">
<path opacity="0.3" fill-rule="evenodd" clip-rule="evenodd" d="M8.8 2H14L20 8V17.2C20 18.8802 20 19.7202 19.673 20.362C19.3854 20.9265 18.9265 21.3854 18.362 21.673C17.7202 22 16.8802 22 15.2 22H8.8C7.11984 22 6.27976 22 5.63803 21.673C5.07354 21.3854 4.6146 20.9265 4.32698 20.362C4 19.7202 4 18.8802 4 17.2V6.8C4 5.11984 4 4.27976 4.32698 3.63803C4.6146 3.07354 5.07354 2.6146 5.63803 2.32698C6.27976 2 7.11984 2 8.8 2Z" fill="#0000CC"/>
<path d="M14 2V7.2C14 7.48003 14 7.62004 14.0545 7.727C14.1024 7.82108 14.1789 7.89757 14.273 7.9455C14.38 8 14.52 8 14.8 8H20L14 2Z" fill="#0000CC"/>
<path d="M7 6C7 5.44772 7.44772 5 8 5H10C10.5523 5 11 5.44772 11 6C11 6.55228 10.5523 7 10 7H8C7.44772 7 7 6.55228 7 6Z" fill="#0000CC"/>
<path d="M7 9C7 8.44771 7.44772 8 8 8H10C10.5523 8 11 8.44771 11 9C11 9.55228 10.5523 10 10 10H8C7.44772 10 7 9.55228 7 9Z" fill="#0000CC"/>
<path d="M9.79014 13.0223C10.1913 12.9362 10.6044 13.1039 10.8321 13.4453L12 15.1973L12.1679 14.9453C12.3534 14.6672 12.6656 14.5 13 14.5C13.3344 14.5 13.6466 14.6672 13.8321 14.9453L14.5352 16H16C16.5523 16 17 16.4478 17 17C17 17.5523 16.5523 18 16 18H14C13.6656 18 13.3534 17.8329 13.1679 17.5548L13 17.3028L12.8321 17.5548C12.6466 17.8329 12.3344 18 12 18C11.6656 18 11.3534 17.8329 11.1679 17.5548L10.5707 16.6588L10.4864 17.1644C10.406 17.6466 9.98884 18 9.5 18H8C7.44772 18 7 17.5523 7 17C7 16.4478 7.44772 16 8 16H8.65287L9.01361 13.8357C9.08107 13.4309 9.38894 13.1084 9.79014 13.0223Z" fill="#0000CC"/>
</svg>
