<svg width="24" height="24" viewBox="0 0 24 24" fill="none" xmlns="http://www.w3.org/2000/svg">
<path opacity="0.3" fill-rule="evenodd" clip-rule="evenodd" d="M8.8 2H14L20 8V17.2C20 18.8802 20 19.7202 19.673 20.362C19.3854 20.9265 18.9265 21.3854 18.362 21.673C17.7202 22 16.8802 22 15.2 22H8.8C7.11984 22 6.27976 22 5.63803 21.673C5.07354 21.3854 4.6146 20.9265 4.32698 20.362C4 19.7202 4 18.8802 4 17.2V6.8C4 5.11984 4 4.27976 4.32698 3.63803C4.6146 3.07354 5.07354 2.6146 5.63803 2.32698C6.27976 2 7.11984 2 8.8 2Z" fill="#0000CC"/>
<path d="M14 2V7.2C14 7.48003 14 7.62004 14.0545 7.727C14.1024 7.82108 14.1789 7.89757 14.273 7.9455C14.38 8 14.52 8 14.8 8H20L14 2Z" fill="#0000CC"/>
<path d="M18.5 13.9326C18.6379 13.9326 18.7697 13.9896 18.8642 14.0901C19.4905 14.756 20.2982 15.1426 21.1667 15.1426C21.1882 15.1426 21.2239 15.143 21.2615 15.1434L21.3375 15.1441C21.3697 15.1444 21.4 15.1445 21.4255 15.1443L21.4572 15.1439L21.4699 15.1435C21.6075 15.1352 21.7424 15.1841 21.8428 15.2786C21.9431 15.373 22 15.5048 22 15.6426V16.8305C22 19.2193 20.6219 21.3067 18.6462 21.9108C18.5509 21.9399 18.4491 21.9399 18.3538 21.9108C16.3781 21.3067 15 19.2193 15 16.8305L15.0002 15.6431C15.0002 15.5052 15.0571 15.373 15.1574 15.2785C15.2578 15.1841 15.3927 15.1352 15.5302 15.1435L15.5429 15.1439L15.5745 15.1443C15.6 15.1445 15.6303 15.1444 15.6624 15.1441L15.7379 15.1434C15.7757 15.1429 15.8117 15.1425 15.8333 15.1425C16.7018 15.1425 17.5095 14.756 18.1358 14.0901C18.2303 13.9896 18.3621 13.9326 18.5 13.9326Z" fill="#0000CC"/>
</svg>
