<svg width="24" height="24" viewBox="0 0 24 24" fill="none" xmlns="http://www.w3.org/2000/svg">
<path opacity="0.3" fill-rule="evenodd" clip-rule="evenodd" d="M8.8 2H14L20 8V17.2C20 18.8802 20 19.7202 19.673 20.362C19.3854 20.9265 18.9265 21.3854 18.362 21.673C17.7202 22 16.8802 22 15.2 22H8.8C7.11984 22 6.27976 22 5.63803 21.673C5.07354 21.3854 4.6146 20.9265 4.32698 20.362C4 19.7202 4 18.8802 4 17.2V6.8C4 5.11984 4 4.27976 4.32698 3.63803C4.6146 3.07354 5.07354 2.6146 5.63803 2.32698C6.27976 2 7.11984 2 8.8 2Z" fill="#0000CC"/>
<path d="M14 2V7.2C14 7.48003 14 7.62004 14.0545 7.727C14.1024 7.82108 14.1789 7.89757 14.273 7.9455C14.38 8 14.52 8 14.8 8H20L14 2Z" fill="#0000CC"/>
<path d="M12.3642 11.1574C12.2697 11.057 12.1379 11 12 11C11.8621 11 11.7303 11.057 11.6358 11.1574C11.0095 11.8233 10.2018 12.2099 9.33333 12.2099C9.31174 12.2099 9.27584 12.2103 9.23816 12.2107L9.16245 12.2115C9.13031 12.2118 9.10003 12.2119 9.07452 12.2117L9.04285 12.2113L9.03023 12.2109C8.89267 12.2026 8.75778 12.2514 8.65744 12.3459C8.55709 12.4404 8.50019 12.5726 8.50016 12.7104L8.5 13.8979C8.5 16.2867 9.87811 18.3741 11.8538 18.9781C11.9491 19.0073 12.0509 19.0073 12.1462 18.9781C14.1219 18.3741 15.5 16.2867 15.5 13.8979V12.71C15.5 12.5721 15.4431 12.4404 15.3428 12.3459C15.2424 12.2515 15.1075 12.2026 14.9699 12.2109L14.9572 12.2113L14.9255 12.2117C14.9 12.2119 14.8697 12.2118 14.8375 12.2115L14.7615 12.2108C14.7239 12.2104 14.6882 12.21 14.6667 12.21C13.7982 12.21 12.9905 11.8234 12.3642 11.1574Z" fill="#0000CC"/>
</svg>
