<svg width="24" height="24" viewBox="0 0 24 24" fill="none" xmlns="http://www.w3.org/2000/svg">
<g opacity="0.3">
<path d="M17.8385 4H6.16146C5.63433 3.99998 5.17954 3.99997 4.80497 4.03057C4.40963 4.06287 4.01641 4.13419 3.63803 4.32698C3.07354 4.6146 2.6146 5.07354 2.32698 5.63803C2.13419 6.01641 2.06287 6.40963 2.03057 6.80497C2.02544 6.86774 2.02117 6.93276 2.01762 7H21.9824C21.9788 6.93276 21.9746 6.86774 21.9694 6.80497C21.9371 6.40963 21.8658 6.01641 21.673 5.63803C21.3854 5.07355 20.9265 4.6146 20.362 4.32698C19.9836 4.13419 19.5904 4.06287 19.195 4.03057C18.8205 3.99997 18.3657 3.99998 17.8385 4Z" fill="#0000CC"/>
<path d="M22 9H2V15.8385C1.99998 16.3657 1.99997 16.8205 2.03057 17.195C2.06287 17.5904 2.13419 17.9836 2.32698 18.362C2.6146 18.9265 3.07354 19.3854 3.63803 19.673C4.01641 19.8658 4.40963 19.9371 4.80497 19.9694C5.17952 20 5.63425 20 6.16136 20H17.8385C18.3656 20 18.8205 20 19.195 19.9694C19.5904 19.9371 19.9836 19.8658 20.362 19.673C20.9265 19.3854 21.3854 18.9265 21.673 18.362C21.8658 17.9836 21.9371 17.5904 21.9694 17.195C22 16.8205 22 16.3657 22 15.8386V9Z" fill="#0000CC"/>
</g>
<path d="M2 8.16146V9H22V8.16144C22 7.72263 22 7.33399 21.9824 7H2.01762C1.99998 7.33397 1.99999 7.72269 2 8.16146Z" fill="#0000CC"/>
<path d="M10.8751 12C10.8751 13.1046 9.97966 14 8.87509 14C7.77052 14 6.87509 13.1046 6.87509 12C6.87509 10.8954 7.77052 10 8.87509 10C9.97966 10 10.8751 10.8954 10.8751 12Z" fill="#0000CC"/>
<path d="M12.1806 16.7469C12.3591 17.0082 12.4483 17.1389 12.4366 17.3647C12.4281 17.5291 12.3045 17.7632 12.1735 17.863C11.9936 18 11.7845 18 11.3662 18H6.38392C5.96564 18 5.7565 18 5.57662 17.863C5.44564 17.7632 5.32205 17.5291 5.31352 17.3647C5.30181 17.1389 5.39105 17.0082 5.56953 16.7469C6.28978 15.6922 7.50157 15 8.87505 15C10.2485 15 11.4603 15.6922 12.1806 16.7469Z" fill="#0000CC"/>
<path d="M15.001 11C14.4487 11 14.001 11.4477 14.001 12C14.001 12.5523 14.4487 13 15.001 13H18.001C18.5533 13 19.001 12.5523 19.001 12C19.001 11.4477 18.5533 11 18.001 11H15.001Z" fill="#0000CC"/>
<path d="M15.001 15C14.4487 15 14.001 15.4477 14.001 16C14.001 16.5523 14.4487 17 15.001 17H18.001C18.5533 17 19.001 16.5523 19.001 16C19.001 15.4477 18.5533 15 18.001 15H15.001Z" fill="#0000CC"/>
</svg>
