<svg width="24" height="24" viewBox="0 0 24 24" fill="none" xmlns="http://www.w3.org/2000/svg">
<path opacity="0.3" d="M8.47085 11.5292L2 18V20.4C2 20.9601 2 21.2401 2.10899 21.454C2.20487 21.6422 2.35785 21.7952 2.54601 21.891C2.75992 22 3.03995 22 3.6 22H6L12.4709 15.5292L8.47085 11.5292Z" fill="#0000CC"/>
<path fill-rule="evenodd" clip-rule="evenodd" d="M22 9C22 12.866 18.866 16 15 16C14.1082 16 13.2553 15.8332 12.4709 15.5291L8.47085 11.5291C8.16678 10.7447 8 9.89183 8 9C8 5.13401 11.134 2 15 2C18.866 2 22 5.13401 22 9ZM16.5 9C16.5 9.82843 15.8284 10.5 15 10.5C14.1716 10.5 13.5 9.82843 13.5 9C13.5 8.17157 14.1716 7.5 15 7.5C15.8284 7.5 16.5 8.17157 16.5 9Z" fill="#0000CC"/>
</svg>
