<svg width="24" height="24" viewBox="0 0 24 24" fill="none" xmlns="http://www.w3.org/2000/svg">
<path opacity="0.3" fill-rule="evenodd" clip-rule="evenodd" d="M6 8C6 4.68629 8.68629 2 12 2C15.3137 2 18 4.68629 18 8V13.5556C18 13.9694 18 14.1763 17.9397 14.342C17.8386 14.6198 17.6198 14.8386 17.342 14.9397C17.1763 15 16.9694 15 16.5556 15H7.44444C7.0306 15 6.82367 15 6.65798 14.9397C6.38021 14.8386 6.16141 14.6198 6.06031 14.342C6 14.1763 6 13.9694 6 13.5556V8ZM12 6C10.8954 6 10 6.89543 10 8C10 8.55228 9.55228 9 9 9C8.44772 9 8 8.55228 8 8C8 5.79086 9.79086 4 12 4C12.5523 4 13 4.44772 13 5C13 5.55228 12.5523 6 12 6Z" fill="#0000CC"/>
<path d="M3.15224 17.2346C3 17.6022 3 18.0681 3 19C3 19.9319 3 20.3978 3.15224 20.7654C3.35523 21.2554 3.74458 21.6448 4.23463 21.8478C4.60218 22 5.06812 22 6 22H18C18.9319 22 19.3978 22 19.7654 21.8478C20.2554 21.6448 20.6448 21.2554 20.8478 20.7654C21 20.3978 21 19.9319 21 19C21 18.0681 21 17.6022 20.8478 17.2346C20.6448 16.7446 20.2554 16.3552 19.7654 16.1522C19.3978 16 18.9319 16 18 16H6C5.06812 16 4.60218 16 4.23463 16.1522C3.74458 16.3552 3.35523 16.7446 3.15224 17.2346Z" fill="#0000CC"/>
<path d="M21.8946 2.55301C22.1416 3.04698 21.9414 3.64766 21.4474 3.89465L19.4474 4.89465C18.9535 5.14164 18.3528 4.94141 18.1058 4.44743C17.8588 3.95345 18.059 3.35278 18.553 3.10579L20.553 2.10579C21.047 1.8588 21.6477 2.05903 21.8946 2.55301Z" fill="#0000CC"/>
<path d="M19.0002 10.0002C19.0002 9.44793 19.4479 9.00022 20.0002 9.00022H21.0002C21.5525 9.00022 22.0002 9.44793 22.0002 10.0002C22.0002 10.5525 21.5525 11.0002 21.0002 11.0002H20.0002C19.4479 11.0002 19.0002 10.5525 19.0002 10.0002Z" fill="#0000CC"/>
<path d="M3.44743 2.10579C2.95345 1.8588 2.35278 2.05903 2.10579 2.55301C1.8588 3.04698 2.05903 3.64766 2.55301 3.89465L4.55301 4.89465C5.04698 5.14164 5.64766 4.94141 5.89465 4.44743C6.14164 3.95345 5.94141 3.35278 5.44743 3.10579L3.44743 2.10579Z" fill="#0000CC"/>
<path d="M3.00022 9.00022C2.44793 9.00022 2.00022 9.44793 2.00022 10.0002C2.00022 10.5525 2.44793 11.0002 3.00022 11.0002H4.00022C4.5525 11.0002 5.00022 10.5525 5.00022 10.0002C5.00022 9.44793 4.5525 9.00022 4.00022 9.00022H3.00022Z" fill="#0000CC"/>
</svg>
