<svg width="24" height="24" viewBox="0 0 24 24" fill="none" xmlns="http://www.w3.org/2000/svg">
<g opacity="0.3">
<path d="M3.64915 5.06336C3.27 5.20559 3.00012 5.57154 3.00009 6.00032L3 9.16611C3 15.2332 6.62798 20.4587 11.7172 21.9592C11.9018 22.0136 12.0982 22.0136 12.2828 21.9592C14.2271 21.3859 15.9581 20.269 17.355 18.7692L3.64915 5.06336Z" fill="#0000CC"/>
<path d="M19.6208 15.4067C20.5037 13.5389 21 11.4101 21 9.16611V6C21 5.44772 20.5514 5 19.9991 5H19.0001C16.5519 5 14.4249 4.05411 12.7158 2.30177C12.5276 2.10882 12.2695 2 11.9999 2C11.7304 2 11.4723 2.10881 11.2841 2.30176C10.4489 3.15802 9.51401 3.82174 8.49065 4.27663L19.6208 15.4067Z" fill="#0000CC"/>
</g>
<path fill-rule="evenodd" clip-rule="evenodd" d="M2.29289 2.29289C2.68342 1.90237 3.31658 1.90237 3.70711 2.29289L21.7071 20.2929C22.0976 20.6834 22.0976 21.3166 21.7071 21.7071C21.3166 22.0976 20.6834 22.0976 20.2929 21.7071L2.29289 3.70711C1.90237 3.31658 1.90237 2.68342 2.29289 2.29289Z" fill="#0000CC"/>
</svg>
