<svg width="24" height="24" viewBox="0 0 24 24" fill="none" xmlns="http://www.w3.org/2000/svg">
<path d="M12.6998 2.28571C12.311 1.90476 11.689 1.90476 11.3002 2.28571L9.79279 3.76259L7.74894 3.23725C7.22175 3.10175 6.68301 3.41279 6.53677 3.9371L5.9698 5.9698L3.9371 6.53677C3.41279 6.68301 3.10175 7.22175 3.23725 7.74894L3.76259 9.79279L2.28571 11.3002C1.90476 11.689 1.90476 12.311 2.28571 12.6998L3.76259 14.2072L3.23725 16.2511C3.10175 16.7782 3.41279 17.317 3.9371 17.4632L5.9698 18.0302L6.53677 20.0629C6.68301 20.5872 7.22175 20.8983 7.74894 20.7627L9.79279 20.2374L11.3002 21.7143C11.689 22.0952 12.311 22.0952 12.6998 21.7143L14.2072 20.2374L16.2511 20.7627C16.7782 20.8983 17.317 20.5872 17.4632 20.0629L18.0302 18.0302L20.0629 17.4632C20.5872 17.317 20.8983 16.7782 20.7627 16.2511L20.2374 14.2072L21.7143 12.6998C22.0952 12.311 22.0952 11.689 21.7143 11.3002L20.2374 9.79279L20.7627 7.74894C20.8983 7.22175 20.5872 6.68301 20.0629 6.53677L18.0302 5.9698L17.4632 3.9371C17.317 3.41279 16.7782 3.10175 16.2511 3.23725L14.2072 3.76259L12.6998 2.28571Z" fill="#0000CC"/>
</svg>
