<svg width="24" height="24" viewBox="0 0 24 24" fill="none" xmlns="http://www.w3.org/2000/svg">
<path d="M12 13C12.5523 13 13 12.5523 13 12C13 11.4477 12.5523 11 12 11C11.4477 11 11 11.4477 11 12C11 12.5523 11.4477 13 12 13Z" fill="#0000CC"/>
<path fill-rule="evenodd" clip-rule="evenodd" d="M13 3C13 2.44772 12.5523 2 12 2C11.4477 2 11 2.44772 11 3V4.06189C7.38128 4.51314 4.51314 7.38128 4.06189 11H3C2.44772 11 2 11.4477 2 12C2 12.5523 2.44772 13 3 13H4.06189C4.51314 16.6187 7.38128 19.4869 11 19.9381V21C11 21.5523 11.4477 22 12 22C12.5523 22 13 21.5523 13 21V19.9381C16.6187 19.4869 19.4869 16.6187 19.9381 13H21C21.5523 13 22 12.5523 22 12C22 11.4477 21.5523 11 21 11H19.9381C19.4869 7.38128 16.6187 4.51314 13 4.06189V3ZM6.08296 11C6.50448 8.4875 8.4875 6.50448 11 6.08296V7C11 7.55228 11.4477 8 12 8C12.5523 8 13 7.55228 13 7V6.08296C15.5125 6.50448 17.4955 8.4875 17.917 11H17C16.4477 11 16 11.4477 16 12C16 12.5523 16.4477 13 17 13H17.917C17.4955 15.5125 15.5125 17.4955 13 17.917V17C13 16.4477 12.5523 16 12 16C11.4477 16 11 16.4477 11 17V17.917C8.4875 17.4955 6.50448 15.5125 6.08296 13H7C7.55228 13 8 12.5523 8 12C8 11.4477 7.55228 11 7 11H6.08296Z" fill="#0000CC"/>
</svg>
