<svg width="24" height="24" viewBox="0 0 24 24" fill="none" xmlns="http://www.w3.org/2000/svg">
<path fill-rule="evenodd" clip-rule="evenodd" d="M11.91 2.00011L12.0003 2.00022L12.0907 2.00011C12.464 1.99944 12.8371 1.99878 13.1851 2.10029C13.6871 2.24678 14.1305 2.54701 14.453 2.95873C14.6765 3.24406 14.8144 3.5908 14.9524 3.93758L14.9859 4.02154C15.038 4.15172 15.1825 4.21874 15.3155 4.1744L15.8859 3.98427L15.9641 3.95812C16.2889 3.84923 16.6143 3.74018 16.9498 3.72063C17.4358 3.69232 17.9194 3.80649 18.3414 4.04914C18.6327 4.21666 18.875 4.45972 19.1169 4.70241L19.1751 4.76073L19.2373 4.82279C19.4949 5.07947 19.7525 5.33624 19.9248 5.64572C20.1742 6.09399 20.2798 6.60814 20.2271 7.11843C20.1906 7.47073 20.055 7.80826 19.9193 8.14564L19.8866 8.22719C19.8051 8.43103 19.8835 8.66392 20.0718 8.77688L20.3496 8.9436L20.4313 8.99244C20.7732 9.19668 21.117 9.40206 21.3778 9.69867C21.6054 9.95751 21.777 10.2606 21.8819 10.589C22.002 10.9653 22.0012 11.3684 22.0005 11.77L22.0003 11.8665L22.0005 11.9818C22.0016 12.4553 22.0026 12.9297 21.8426 13.3585C21.7033 13.732 21.4767 14.0668 21.1816 14.3349C20.8429 14.6427 20.405 14.8167 19.9687 14.9901L19.863 15.0322C19.7978 15.0583 19.7642 15.1307 19.7864 15.1974L20.0014 15.8424L20.0302 15.9286C20.1505 16.2872 20.2711 16.6468 20.2826 17.018C20.2961 17.4582 20.1932 17.894 19.9843 18.2816C19.808 18.6085 19.5393 18.8762 19.2714 19.1432L19.207 19.2074L19.1428 19.2718C18.8759 19.5397 18.6082 19.8084 18.2813 19.9846C17.8937 20.1936 17.4578 20.2965 17.0177 20.2829C16.6464 20.2715 16.2869 20.1509 15.9283 20.0306L15.842 20.0017L15.3153 19.8261C15.1824 19.7818 15.038 19.8488 14.9859 19.9789L14.9524 20.0629C14.8144 20.4096 14.6765 20.7564 14.453 21.0417C14.1305 21.4534 13.6871 21.7537 13.1851 21.9001C12.8371 22.0017 12.464 22.001 12.0907 22.0003L12.0003 22.0002L11.9099 22.0003C11.5367 22.001 11.1635 22.0017 10.8156 21.9001C10.3136 21.7537 9.87015 21.4534 9.54769 21.0417C9.32422 20.7564 9.18624 20.4096 9.04825 20.0629L9.01478 19.9789C8.96271 19.8487 8.8182 19.7817 8.68519 19.826L8.15821 20.0017L8.07201 20.0305C7.71339 20.1508 7.35383 20.2714 6.98259 20.2828C6.54248 20.2964 6.10659 20.1935 5.719 19.9845C5.39209 19.8083 5.12442 19.5396 4.85745 19.2717L4.79324 19.2073L4.72888 19.1431C4.46094 18.8762 4.19228 18.6085 4.01601 18.2816C3.80704 17.894 3.70414 17.4581 3.71772 17.018C3.72917 16.6467 3.84975 16.2872 3.97002 15.9286L3.99887 15.8423L4.21402 15.1969C4.23618 15.1304 4.20268 15.0582 4.13762 15.0322L4.03204 14.9901C3.5957 14.8167 3.15778 14.6427 2.81907 14.3349C2.52404 14.0668 2.29739 13.732 2.15805 13.3585C1.99805 12.9297 1.99911 12.4553 2.00017 11.9817L2.00034 11.8665L2.00022 11.77C1.99944 11.3684 1.99866 10.9653 2.11883 10.589C2.22369 10.2606 2.39531 9.95751 2.62292 9.69866C2.88372 9.40206 3.22752 9.19668 3.56942 8.99243L3.65106 8.9436L3.92849 8.7771C4.11678 8.6641 4.19524 8.43116 4.11369 8.22726L4.08095 8.1457C3.94532 7.80831 3.80963 7.4708 3.77323 7.1185C3.7205 6.60821 3.82603 6.09406 4.07551 5.6458C4.24775 5.33632 4.50542 5.07955 4.76299 4.82287L4.8252 4.7608L4.88341 4.70247C5.1253 4.45978 5.36754 4.21674 5.65888 4.04922C6.08087 3.80657 6.56451 3.6924 7.05047 3.72071C7.38597 3.74025 7.71133 3.84931 8.03623 3.9582L8.11436 3.98434L8.68504 4.1745C8.81811 4.21884 8.96269 4.15177 9.01478 4.02154L9.04825 3.93757C9.18625 3.5908 9.32423 3.24405 9.54769 2.95873C9.87015 2.54701 10.3136 2.24678 10.8156 2.10029C11.1635 1.99878 11.5367 1.99944 11.91 2.00011ZM12 8C9.79086 8 8 9.79086 8 12C8 14.2091 9.79086 16 12 16C14.2091 16 16 14.2091 16 12C16 9.79086 14.2091 8 12 8Z" fill="#0000CC"/>
</svg>
