<svg width="24" height="24" viewBox="0 0 24 24" fill="none" xmlns="http://www.w3.org/2000/svg">
<path opacity="0.3" fill-rule="evenodd" clip-rule="evenodd" d="M11.3002 2.28571C11.689 1.90476 12.311 1.90476 12.6998 2.28571L14.2072 3.76259L16.2511 3.23725C16.7782 3.10175 17.317 3.41279 17.4632 3.9371L18.0302 5.9698L20.0629 6.53677C20.5872 6.68301 20.8983 7.22175 20.7627 7.74894L20.2374 9.79279L21.7143 11.3002C22.0952 11.689 22.0952 12.311 21.7143 12.6998L20.2374 14.2072L20.7627 16.2511C20.8983 16.7782 20.5872 17.317 20.0629 17.4632L18.0302 18.0302L17.4632 20.0629C17.317 20.5872 16.7782 20.8983 16.2511 20.7627L14.2072 20.2374L12.6998 21.7143C12.311 22.0952 11.689 22.0952 11.3002 21.7143L9.79279 20.2374L7.74894 20.7627C7.22175 20.8983 6.68301 20.5872 6.53677 20.0629L5.9698 18.0302L3.9371 17.4632C3.41279 17.317 3.10175 16.7782 3.23725 16.2511L3.76259 14.2072L2.28571 12.6998C1.90476 12.311 1.90476 11.689 2.28571 11.3002L3.76259 9.79279L3.23725 7.74894C3.10175 7.22175 3.41279 6.68301 3.9371 6.53677L5.9698 5.9698L6.53677 3.9371C6.68301 3.41279 7.22175 3.10175 7.74894 3.23725L9.79279 3.76259L11.3002 2.28571Z" fill="#0000CC"/>
<path fill-rule="evenodd" clip-rule="evenodd" d="M15.7071 10.7071C16.0976 10.3166 16.0976 9.68342 15.7071 9.29289C15.3166 8.90237 14.6834 8.90237 14.2929 9.29289L11 12.5858L9.70711 11.2929C9.31658 10.9024 8.68342 10.9024 8.29289 11.2929C7.90237 11.6834 7.90237 12.3166 8.29289 12.7071L10.2929 14.7071C10.6834 15.0976 11.3166 15.0976 11.7071 14.7071L15.7071 10.7071Z" fill="#0000CC"/>
</svg>
