<svg width="24" height="24" viewBox="0 0 24 24" fill="none" xmlns="http://www.w3.org/2000/svg">
<path opacity="0.3" fill-rule="evenodd" clip-rule="evenodd" d="M22 12C22 17.5228 17.5228 22 12 22C6.47715 22 2 17.5228 2 12C2 6.47715 6.47715 2 12 2C17.5228 2 22 6.47715 22 12Z" fill="#0000CC"/>
<path fill-rule="evenodd" clip-rule="evenodd" d="M16.7071 7.29291C16.9509 7.53672 17.0519 7.88892 16.9744 8.22488L15.4744 14.7249C15.3884 15.0975 15.0975 15.3884 14.7249 15.4744L8.22488 16.9744C7.88892 17.0519 7.53672 16.9509 7.29291 16.7071C7.04911 16.4633 6.9481 16.1111 7.02563 15.7752L8.52563 9.27516C8.61161 8.90256 8.90256 8.61161 9.27516 8.52563L15.7752 7.02563C16.1111 6.9481 16.4633 7.04911 16.7071 7.29291ZM13.5 12C13.5 12.8284 12.8284 13.5 12 13.5C11.1716 13.5 10.5 12.8284 10.5 12C10.5 11.1716 11.1716 10.5 12 10.5C12.8284 10.5 13.5 11.1716 13.5 12Z" fill="#0000CC"/>
</svg>
