<svg width="24" height="24" viewBox="0 0 24 24" fill="none" xmlns="http://www.w3.org/2000/svg">
<path d="M3.23047 15.6022V19.6022M3.23047 17.6022H6.10979C6.51355 17.6022 6.71543 17.6022 6.88849 17.5358C7.04136 17.4771 7.17748 17.3817 7.28489 17.2581C7.40648 17.1182 7.47547 16.9285 7.61345 16.549L9.23047 12.1022M16.2305 14.1022L17.9671 14.9706C18.4144 15.1942 18.638 15.306 18.8584 15.3126C19.0525 15.3183 19.2441 15.2675 19.4098 15.1661C19.5979 15.0511 19.7366 14.8431 20.014 14.427L20.2251 14.1103C20.5726 13.5891 20.7463 13.3285 20.7669 13.0694C20.785 12.8419 20.7248 12.6151 20.5962 12.4266C20.4497 12.2119 20.1696 12.0718 19.6094 11.7917L19.2305 11.6022M4.09035 7.62815L5.96145 4.42055C6.23184 3.95703 6.36703 3.72526 6.56088 3.59669C6.73149 3.48353 6.93273 3.42546 7.13741 3.43034C7.36995 3.43587 7.60783 3.55999 8.0836 3.80821L15.9789 7.92748C16.7263 8.31743 17.1 8.51241 17.2454 8.78861C17.3725 9.02987 17.3955 9.31254 17.3092 9.57119C17.2104 9.8673 16.8732 10.1202 16.1988 10.626L13.0216 13.0089C12.7344 13.2243 12.5908 13.332 12.4312 13.3833C12.2901 13.4287 12.1407 13.4422 11.9938 13.4228C11.8276 13.4008 11.6671 13.3205 11.346 13.16L4.75685 9.86542C4.22599 9.59999 3.96056 9.46728 3.81581 9.26305C3.6886 9.08357 3.62413 8.86714 3.63238 8.6473C3.64176 8.39715 3.79129 8.14082 4.09035 7.62815Z" stroke="#0000CC" stroke-width="2" stroke-linecap="round" stroke-linejoin="round"/>
</svg>
