<svg width="24" height="24" viewBox="0 0 24 24" fill="none" xmlns="http://www.w3.org/2000/svg">
<path opacity="0.14" d="M4 7.96788C4 7.79754 4 7.71237 4.02499 7.63632C4.04711 7.56903 4.08326 7.50721 4.13106 7.45495C4.1851 7.39588 4.25933 7.35413 4.40779 7.27062L11.6078 3.22062C11.7509 3.14014 11.8224 3.09991 11.8982 3.08414C11.9654 3.07019 12.0346 3.07019 12.1018 3.08414C12.1776 3.09991 12.2491 3.14014 12.3922 3.22062L18.6865 6.76116C19.1127 7.00091 19.3258 7.12078 19.3927 7.27529C19.451 7.40987 19.4473 7.56327 19.3825 7.69486C19.3081 7.84593 19.0895 7.95527 18.6521 8.17396L12.4422 11.2789C12.2817 11.3592 12.2014 11.3993 12.1428 11.4592C12.0909 11.5121 12.0515 11.5759 12.0273 11.646C12 11.7252 12 11.8149 12 11.9944V19.6321C12 20.0818 12 20.3066 11.9055 20.4376C11.823 20.5519 11.6962 20.6261 11.5562 20.6419C11.3957 20.6601 11.1997 20.5498 10.8078 20.3294L4.40779 16.7294C4.25933 16.6459 4.1851 16.6041 4.13106 16.545C4.08326 16.4928 4.04711 16.431 4.02499 16.3637C4 16.2876 4 16.2025 4 16.0321V7.96788Z" fill="#0000CC"/>
<path d="M4 7.5L11.6078 3.22062C11.7509 3.14014 11.8224 3.09991 11.8982 3.08414C11.9654 3.07019 12.0346 3.07019 12.1018 3.08414C12.1776 3.09991 12.2491 3.14014 12.3922 3.22062L20 7.5M4 7.5V16.0321C4 16.2025 4 16.2876 4.02499 16.3637C4.04711 16.431 4.08326 16.4928 4.13106 16.545C4.1851 16.6041 4.25933 16.6459 4.40779 16.7294L12 21M4 7.5L12 11.5M12 21L19.5922 16.7294C19.7407 16.6459 19.8149 16.6041 19.8689 16.545C19.9167 16.4928 19.9529 16.431 19.975 16.3637C20 16.2876 20 16.2025 20 16.0321V7.5M12 21V11.5M20 7.5L12 11.5" stroke="#0000CC" stroke-width="2" stroke-linecap="round" stroke-linejoin="round"/>
</svg>
