<svg width="24" height="24" viewBox="0 0 24 24" fill="none" xmlns="http://www.w3.org/2000/svg">
<path opacity="0.14" d="M12 8L13.236 10.633L16 11.0578L14 13.1062L14.472 16L12 14.633L9.528 16L10 13.1062L8 11.0578L10.764 10.633L12 8Z" fill="#0000CC"/>
<path d="M12 3V5M12 19V21M3 12H5M19 12H21M5.63672 5.63672L7.05093 7.05093M16.9504 16.9504L18.3646 18.3646M5.63672 18.3646L7.05093 16.9504M16.9504 7.05093L18.3646 5.63672M12 8L13.236 10.633L16 11.0578L14 13.1062L14.472 16L12 14.633L9.528 16L10 13.1062L8 11.0578L10.764 10.633L12 8Z" stroke="#0000CC" stroke-width="2" stroke-linecap="round" stroke-linejoin="round"/>
</svg>
