<svg width="24" height="24" viewBox="0 0 24 24" fill="none" xmlns="http://www.w3.org/2000/svg">
<path opacity="0.14" d="M12 6.0001V20.0001L11.8775 19.9814C11.7822 19.9531 11.7006 19.881 11.5372 19.7368C10.0771 18.4478 5.62217 14.4653 4.15011 12.5771C2.3796 10.306 2.65826 7.07528 4.95156 5.17524C7.24485 3.2752 10.2006 3.90308 12 6.0001Z" fill="#0000CC"/>
<path d="M12 20V6.00001M12 6.00001C10.2006 3.90299 7.19377 3.25491 4.93923 5.17515C2.68468 7.09539 2.36727 10.3059 4.13778 12.577C5.60984 14.4653 10.0648 18.4477 11.5249 19.7367C11.6882 19.8809 11.7699 19.953 11.8652 19.9813C11.9483 20.0061 12.0393 20.0061 12.1225 19.9813C12.2178 19.953 12.2994 19.8809 12.4628 19.7367C13.9229 18.4477 18.3778 14.4653 19.8499 12.577C21.6204 10.3059 21.3417 7.0752 19.0484 5.17515C16.7551 3.27511 13.7994 3.90299 12 6.00001Z" stroke="#0000CC" stroke-width="2" stroke-linecap="round" stroke-linejoin="round"/>
</svg>
