<svg width="24" height="24" viewBox="0 0 24 24" fill="none" xmlns="http://www.w3.org/2000/svg">
<path opacity="0.14" d="M4.93923 5.17514C7.19377 3.2549 10.2006 3.90284 12 5.99986C13.7994 3.90284 16.7551 3.2751 19.0484 5.17514C21.3417 7.07519 21.6204 10.3059 19.8499 12.577C18.3778 14.4653 13.9229 18.4477 12.4628 19.7367C12.2994 19.8809 12.2178 19.953 12.1225 19.9813C12.0393 20.006 11.9483 20.006 11.8652 19.9813C11.7699 19.953 11.6882 19.8809 11.5249 19.7367C10.0648 18.4477 5.60984 14.4653 4.13778 12.577C2.36727 10.3059 2.68468 7.09538 4.93923 5.17514Z" fill="#0000CC"/>
<path d="M12 6.00001L14 8.00001L10 10L13 13M12 6.00001C10.2006 3.903 7.19377 3.25506 4.93923 5.1753C2.68468 7.09554 2.36727 10.3061 4.13778 12.5772C5.60984 14.4654 10.0648 18.4479 11.5249 19.7368C11.6882 19.881 11.7699 19.9531 11.8652 19.9815C11.9483 20.0062 12.0393 20.0062 12.1225 19.9815C12.2178 19.9531 12.2994 19.881 12.4628 19.7368C13.9229 18.4479 18.3778 14.4654 19.8499 12.5772C21.6204 10.3061 21.3417 7.07534 19.0484 5.1753C16.7551 3.27526 13.7994 3.903 12 6.00001Z" stroke="#0000CC" stroke-width="2" stroke-linecap="round" stroke-linejoin="round"/>
</svg>
