<svg width="24" height="24" viewBox="0 0 24 24" fill="none" xmlns="http://www.w3.org/2000/svg">
<path opacity="0.14" fill-rule="evenodd" clip-rule="evenodd" d="M12 21C16.9706 21 21 16.9706 21 12C21 7.02944 16.9706 3 12 3C7.02944 3 3 7.02944 3 12C3 16.9706 7.02944 21 12 21ZM15.5605 11.8084C15.5023 11.6681 15.3354 11.5569 15.0015 11.3343L11.2438 8.82912C10.8397 8.55976 10.6377 8.42509 10.4702 8.43509C10.3243 8.4438 10.1894 8.51595 10.1012 8.63255C10 8.76638 10 9.00917 10 9.49476V14.5051C10 14.9907 10 15.2335 10.1012 15.3673C10.1894 15.4839 10.3243 15.5561 10.4702 15.5648C10.6377 15.5748 10.8397 15.4401 11.2438 15.1708L15.0015 12.6656C15.3354 12.443 15.5023 12.3317 15.5605 12.1915C15.6113 12.0689 15.6113 11.931 15.5605 11.8084Z" fill="#0000CC"/>
<path d="M15.0015 11.3344C15.3354 11.5569 15.5023 11.6682 15.5605 11.8085C15.6113 11.9311 15.6113 12.0689 15.5605 12.1915C15.5023 12.3318 15.3354 12.4431 15.0015 12.6656L11.2438 15.1708C10.8397 15.4402 10.6377 15.5749 10.4702 15.5649C10.3243 15.5561 10.1894 15.484 10.1012 15.3674C10 15.2336 10 14.9908 10 14.5052V9.49481C10 9.00923 10 8.76644 10.1012 8.63261C10.1894 8.51601 10.3243 8.44386 10.4702 8.43515C10.6377 8.42515 10.8397 8.55982 11.2438 8.82917L15.0015 11.3344Z" stroke="#0000CC" stroke-width="2" stroke-linecap="round" stroke-linejoin="round"/>
</svg>
