<svg width="24" height="24" viewBox="0 0 24 24" fill="none" xmlns="http://www.w3.org/2000/svg">
<path opacity="0.14" d="M3 16.794V7.20611C3 6.20046 3 5.69763 3.19886 5.46479C3.37141 5.26276 3.63025 5.15555 3.89512 5.17639C4.20038 5.20042 4.55593 5.55597 5.26704 6.26707L10.061 11.061C10.3897 11.3897 10.554 11.554 10.6156 11.7436C10.6697 11.9103 10.6697 12.0898 10.6156 12.2565C10.554 12.446 10.3897 12.6104 10.061 12.9391L5.26704 17.733C4.55593 18.4441 4.20038 18.7997 3.89512 18.8237C3.63025 18.8445 3.37141 18.7373 3.19886 18.5353C3 18.3024 3 17.7996 3 16.794Z" fill="#0000CC"/>
<path d="M15 5V19M21 5V19M3 7.20608V16.7939C3 17.7996 3 18.3024 3.19886 18.5352C3.37141 18.7373 3.63025 18.8445 3.89512 18.8236C4.20038 18.7996 4.55593 18.4441 5.26704 17.733L10.061 12.939C10.3897 12.6103 10.554 12.446 10.6156 12.2565C10.6697 12.0898 10.6697 11.9102 10.6156 11.7435C10.554 11.554 10.3897 11.3897 10.061 11.061L5.26704 6.26704C4.55593 5.55593 4.20038 5.20038 3.89512 5.17636C3.63025 5.15551 3.37141 5.26273 3.19886 5.46476C3 5.69759 3 6.20042 3 7.20608Z" stroke="#0000CC" stroke-width="2" stroke-linecap="round" stroke-linejoin="round"/>
</svg>
