<svg width="24" height="24" viewBox="0 0 24 24" fill="none" xmlns="http://www.w3.org/2000/svg">
<path opacity="0.14" d="M5.5012 8.99984H4.6C4.03995 8.99984 3.75992 8.99984 3.54601 9.10883C3.35785 9.20471 3.20487 9.35769 3.10899 9.54585C3 9.75976 3 10.0398 3 10.5998V13.3998C3 13.9599 3 14.2399 3.10899 14.4538C3.20487 14.642 3.35785 14.795 3.54601 14.8908C3.75992 14.9998 4.03995 14.9998 4.6 14.9998H5.5012C6.05213 14.9998 6.32759 14.9998 6.58285 15.0685C6.80903 15.1294 7.02275 15.2295 7.21429 15.3643C7.43047 15.5164 7.60681 15.728 7.95951 16.1512L10.5854 19.3023C11.0211 19.8252 11.239 20.0866 11.4292 20.1138C11.594 20.1373 11.7597 20.0774 11.8712 19.9538C12 19.811 12 19.4708 12 18.7902V5.20948C12 4.52892 12 4.18864 11.8712 4.04592C11.7597 3.92233 11.594 3.86234 11.4292 3.8859C11.2389 3.9131 11.0211 4.17451 10.5854 4.69733L7.95951 7.84843C7.60681 8.27166 7.43047 8.48328 7.21429 8.63542C7.02275 8.77021 6.80903 8.87032 6.58285 8.93116C6.32759 8.99984 6.05213 8.99984 5.5012 8.99984Z" fill="#0000CC"/>
<path d="M16.0004 9.00002C16.6281 9.83568 17 10.8744 17 12C17 13.1256 16.6281 14.1644 16.0004 15M18 5.2917C19.8412 6.93967 21 9.33452 21 12C21 14.6655 19.8412 17.0604 18 18.7083M4.6 9.00002H5.5012C6.05213 9.00002 6.32759 9.00002 6.58285 8.93135C6.80903 8.8705 7.02275 8.77039 7.21429 8.6356C7.43047 8.48347 7.60681 8.27185 7.95951 7.84861L10.5854 4.69752C11.0211 4.1747 11.2389 3.91329 11.4292 3.88608C11.594 3.86252 11.7597 3.92252 11.8712 4.04611C12 4.18883 12 4.5291 12 5.20966V18.7904C12 19.4709 12 19.8112 11.8712 19.9539C11.7597 20.0775 11.594 20.1375 11.4292 20.114C11.239 20.0868 11.0211 19.8253 10.5854 19.3025L7.95951 16.1514C7.60681 15.7282 7.43047 15.5166 7.21429 15.3644C7.02275 15.2297 6.80903 15.1295 6.58285 15.0687C6.32759 15 6.05213 15 5.5012 15H4.6C4.03995 15 3.75992 15 3.54601 14.891C3.35785 14.7952 3.20487 14.6422 3.10899 14.454C3 14.2401 3 13.9601 3 13.4V10.6C3 10.04 3 9.75995 3.10899 9.54603C3.20487 9.35787 3.35785 9.20489 3.54601 9.10902C3.75992 9.00002 4.03995 9.00002 4.6 9.00002Z" stroke="#0000CC" stroke-width="2" stroke-linecap="round" stroke-linejoin="round"/>
</svg>
