<svg width="24" height="24" viewBox="0 0 24 24" fill="none" xmlns="http://www.w3.org/2000/svg">
<path opacity="0.3" fill-rule="evenodd" clip-rule="evenodd" d="M16.3202 19.3242C15.0741 20.1252 13.5913 20.5898 12 20.5898C10.4087 20.5898 8.92587 20.1252 7.67984 19.3242L5.70711 21.297C5.31658 21.6875 4.68342 21.6875 4.29289 21.297C3.90237 20.9064 3.90237 20.2733 4.29289 19.8827L6.13981 18.0358C4.81205 16.6077 4 14.6936 4 12.5898C4 8.17157 7.58172 4.58984 12 4.58984C16.4183 4.58984 20 8.17157 20 12.5898C20 14.6936 19.1879 16.6077 17.8602 18.0358L19.7071 19.8827C20.0976 20.2733 20.0976 20.9064 19.7071 21.297C19.3166 21.6875 18.6834 21.6875 18.2929 21.297L16.3202 19.3242Z" fill="#0000CC"/>
<path d="M3.71061 7.94569C4.67842 6.22194 6.16834 4.83072 7.96604 3.98636C7.45744 3.05315 6.46771 2.41992 5.33008 2.41992C3.67322 2.41992 2.33008 3.76307 2.33008 5.41992C2.33008 6.48028 2.8802 7.41215 3.71061 7.94569Z" fill="#0000CC"/>
<path d="M20.2973 7.9598C21.1401 7.42868 21.7 6.48969 21.7 5.41992C21.7 3.76307 20.3569 2.41992 18.7 2.41992C17.5578 2.41992 16.5647 3.05826 16.0579 3.99765C17.8498 4.84541 19.334 6.2372 20.2973 7.9598Z" fill="#0000CC"/>
<path d="M12 8.5C12.5523 8.5 13 8.94772 13 9.5V11.5H15C15.5523 11.5 16 11.9477 16 12.5C16 13.0523 15.5523 13.5 15 13.5H13V15.5C13 16.0523 12.5523 16.5 12 16.5C11.4477 16.5 11 16.0523 11 15.5V13.5H9C8.44772 13.5 8 13.0523 8 12.5C8 11.9477 8.44772 11.5 9 11.5H11V9.5C11 8.94772 11.4477 8.5 12 8.5Z" fill="#0000CC"/>
</svg>
