<svg width="24" height="24" viewBox="0 0 24 24" fill="none" xmlns="http://www.w3.org/2000/svg">
<path opacity="0.3" d="M7.07529 3.90915C8.3925 2.67975 10.1651 2 12.0003 2C13.8354 2 15.608 2.67975 16.9252 3.90915C18.2448 5.14072 19.0003 6.82644 19.0003 8.6C19.0003 11.1091 19.6292 12.8249 20.3261 13.9651L20.337 13.983L20.3372 13.9833C20.7135 14.599 21.0092 15.0828 21.208 15.4326C21.3076 15.6077 21.3967 15.7732 21.4622 15.9177C21.4948 15.9896 21.5311 16.077 21.5595 16.1711C21.5819 16.2457 21.6301 16.4193 21.6116 16.6307C21.6003 16.7605 21.5731 16.9968 21.4368 17.24C21.3004 17.4831 21.1129 17.6295 21.0081 17.7069C20.8543 17.8204 20.7009 17.8714 20.6189 17.8952C20.5251 17.9223 20.4344 17.9384 20.3596 17.949C20.2104 17.97 20.039 17.9806 19.8633 17.9871C19.5137 18 19.0272 18 18.4181 18H18.418H5.58248H5.58243C4.97335 18 4.48684 18 4.13717 17.9871C3.96148 17.9806 3.79008 17.97 3.64093 17.949C3.56609 17.9384 3.47545 17.9223 3.38165 17.8952C3.2996 17.8714 3.14619 17.8204 2.99245 17.7069C2.88764 17.6295 2.70012 17.4831 2.56375 17.24C2.42738 16.9968 2.40025 16.7605 2.3889 16.6307C2.37042 16.4193 2.41856 16.2457 2.44105 16.1711C2.46942 16.077 2.50569 15.9896 2.53828 15.9177C2.60378 15.7732 2.69295 15.6077 2.79247 15.4326C2.99134 15.0828 3.28703 14.599 3.66334 13.9833L3.67444 13.9651C4.37129 12.8249 5.00025 11.1091 5.00025 8.6C5.00025 6.82644 5.75575 5.14072 7.07529 3.90915Z" fill="#0000CC"/>
<path fill-rule="evenodd" clip-rule="evenodd" d="M8 21C8 20.4477 8.44772 20 9 20H15C15.5523 20 16 20.4477 16 21C16 21.5523 15.5523 22 15 22H9C8.44772 22 8 21.5523 8 21Z" fill="#0000CC"/>
</svg>
