<svg width="24" height="24" viewBox="0 0 24 24" fill="none" xmlns="http://www.w3.org/2000/svg">
<path opacity="0.3" fill-rule="evenodd" clip-rule="evenodd" d="M12 2C7.58172 2 4 5.58172 4 10C4 14.4183 7.58172 18 12 18C16.4183 18 20 14.4183 20 10C20 5.58172 16.4183 2 12 2Z" fill="#0000CC"/>
<path d="M13 7C13 6.44772 12.5523 6 12 6C11.4477 6 11 6.44772 11 7V10C11 10.2652 11.1054 10.5196 11.2929 10.7071L13.2929 12.7071C13.6834 13.0976 14.3166 13.0976 14.7071 12.7071C15.0976 12.3166 15.0976 11.6834 14.7071 11.2929L13 9.58579V7Z" fill="#0000CC"/>
<path d="M20 14.1274C18.5038 17.0218 15.4829 19.0002 12 19.0002C8.51707 19.0002 5.49623 17.0218 4 14.1274V15.6002C4 17.8404 4 18.9606 4.43597 19.8162C4.81947 20.5688 5.43139 21.1808 6.18404 21.5643C7.03969 22.0002 8.15979 22.0002 10.4 22.0002H13.6C15.8402 22.0002 16.9603 22.0002 17.816 21.5643C18.5686 21.1808 19.1805 20.5688 19.564 19.8162C20 18.9606 20 17.8404 20 15.6002V14.1274Z" fill="#0000CC"/>
</svg>
