<svg width="24" height="24" viewBox="0 0 24 24" fill="none" xmlns="http://www.w3.org/2000/svg">
<path opacity="0.3" fill-rule="evenodd" clip-rule="evenodd" d="M12 2C6.47715 2 2 6.47715 2 12C2 17.5228 6.47715 22 12 22C17.5228 22 22 17.5228 22 12C22 6.47715 17.5228 2 12 2Z" fill="#0000CC"/>
<path fill-rule="evenodd" clip-rule="evenodd" d="M13.0002 7C13.0002 6.44772 12.5524 6 12.0002 6C11.4479 6 11.0002 6.44772 11.0002 7V11.723L9.64266 13.9855C9.35851 14.4591 9.51207 15.0733 9.98566 15.3575C10.4592 15.6416 11.0735 15.4881 11.3576 15.0145L12.8576 12.5145C12.9509 12.3591 13.0002 12.1812 13.0002 12V7Z" fill="#0000CC"/>
</svg>
