<svg width="24" height="24" viewBox="0 0 24 24" fill="none" xmlns="http://www.w3.org/2000/svg">
<g opacity="0.3">
<path d="M3.08579 4.5L2.29289 5.29289C1.90237 5.68342 1.90237 6.31658 2.29289 6.70711C2.68342 7.09763 3.31658 7.09763 3.70711 6.70711L4.5 5.91421L3.08579 4.5Z" fill="#0000CC"/>
<path d="M5.43228 6.8465C3.92376 8.45591 3 10.6201 3 13C3 17.9706 7.02944 22 12 22C14.3799 22 16.5441 21.0762 18.1535 19.5677L5.43228 6.8465Z" fill="#0000CC"/>
<path d="M18.2929 3.29289C18.6834 2.90237 19.3166 2.90237 19.7071 3.29289L21.7071 5.29289C22.0976 5.68342 22.0976 6.31658 21.7071 6.70711C21.3166 7.09763 20.6834 7.09763 20.2929 6.70711L18.2929 4.70711C17.9024 4.31658 17.9024 3.68342 18.2929 3.29289Z" fill="#0000CC"/>
<path d="M21 13C21 14.1272 20.7928 15.206 20.4144 16.2003L8.79965 4.58563C9.79403 4.20722 10.8728 4 12 4C16.9706 4 21 8.02944 21 13Z" fill="#0000CC"/>
</g>
<path fill-rule="evenodd" clip-rule="evenodd" d="M2.29289 2.29289C2.68342 1.90237 3.31658 1.90237 3.70711 2.29289L21.7071 20.2929C22.0976 20.6834 22.0976 21.3166 21.7071 21.7071C21.3166 22.0976 20.6834 22.0976 20.2929 21.7071L2.29289 3.70711C1.90237 3.31658 1.90237 2.68342 2.29289 2.29289Z" fill="#0000CC"/>
</svg>
