<svg width="24" height="24" viewBox="0 0 24 24" fill="none" xmlns="http://www.w3.org/2000/svg">
<path opacity="0.3" fill-rule="evenodd" clip-rule="evenodd" d="M12 2C6.47715 2 2 6.47715 2 12C2 17.5228 6.47715 22 12 22C17.5228 22 22 17.5228 22 12C22 6.47715 17.5228 2 12 2Z" fill="#0000CC"/>
<path fill-rule="evenodd" clip-rule="evenodd" d="M12.5145 11.1425C12.2056 10.9571 11.8208 10.9523 11.5073 11.1298C11.1938 11.3073 11 11.6397 11 12V17C11 17.5523 11.4477 18 12 18C12.5523 18 13 17.5523 13 17V13.7662L13.9855 14.3575C14.4591 14.6416 15.0733 14.4881 15.3575 14.0145C15.6416 13.5409 15.4881 12.9267 15.0145 12.6425L12.5145 11.1425Z" fill="#0000CC"/>
</svg>
