<svg width="24" height="24" viewBox="0 0 24 24" fill="none" xmlns="http://www.w3.org/2000/svg">
<path opacity="0.3" fill-rule="evenodd" clip-rule="evenodd" d="M3 13C3 8.02944 7.02944 4 12 4C16.9706 4 21 8.02944 21 13C21 17.9706 16.9706 22 12 22C7.02944 22 3 17.9706 3 13Z" fill="#0000CC"/>
<path d="M4.29289 3.29289C4.68342 2.90237 5.31658 2.90237 5.70711 3.29289C6.09763 3.68342 6.09763 4.31658 5.70711 4.70711L3.70711 6.70711C3.31658 7.09763 2.68342 7.09763 2.29289 6.70711C1.90237 6.31658 1.90237 5.68342 2.29289 5.29289L4.29289 3.29289Z" fill="#0000CC"/>
<path d="M18.2929 3.29289C18.6834 2.90237 19.3166 2.90237 19.7071 3.29289L21.7071 5.29289C22.0976 5.68342 22.0976 6.31658 21.7071 6.70711C21.3166 7.09763 20.6834 7.09763 20.2929 6.70711L18.2929 4.70711C17.9024 4.31658 17.9024 3.68342 18.2929 3.29289Z" fill="#0000CC"/>
<path d="M12 8C12.5523 8 13 8.44772 13 9V12.0005L16.0001 12.0008C16.5524 12.0009 17.0001 12.4487 17 13.001C16.9999 13.5532 16.5521 14.0009 15.9999 14.0008L13 14.0005V17C13 17.5523 12.5523 18 12 18C11.4477 18 11 17.5523 11 17V14.0003L7.99986 14C7.44758 13.9999 6.99992 13.5521 7 12.9999C7.00008 12.4476 7.44785 11.9999 8.00014 12L11 12.0003V9C11 8.44772 11.4477 8 12 8Z" fill="#0000CC"/>
</svg>
