<svg width="24" height="24" viewBox="0 0 24 24" fill="none" xmlns="http://www.w3.org/2000/svg">
<path opacity="0.3" fill-rule="evenodd" clip-rule="evenodd" d="M12 2C6.47715 2 2 6.47715 2 12C2 17.5228 6.47715 22 12 22C17.5228 22 22 17.5228 22 12C22 6.47715 17.5228 2 12 2Z" fill="#0000CC"/>
<path fill-rule="evenodd" clip-rule="evenodd" d="M14.3575 10.0146C14.6416 9.54107 14.4881 8.92681 14.0145 8.64266C13.5409 8.35851 12.9267 8.51207 12.6425 8.98566L11.1425 11.4857C11.0493 11.6411 11 11.8189 11 12.0002V17.0002C11 17.5524 11.4477 18.0002 12 18.0002C12.5523 18.0002 13 17.5524 13 17.0002V12.2771L14.3575 10.0146Z" fill="#0000CC"/>
</svg>
