<svg width="24" height="24" viewBox="0 0 24 24" fill="none" xmlns="http://www.w3.org/2000/svg">
<path opacity="0.3" fill-rule="evenodd" clip-rule="evenodd" d="M12 2C6.47715 2 2 6.47715 2 12C2 17.5228 6.47715 22 12 22C17.5228 22 22 17.5228 22 12C22 6.47715 17.5228 2 12 2Z" fill="#0000CC"/>
<path fill-rule="evenodd" clip-rule="evenodd" d="M13.0002 7C13.0002 6.44772 12.5524 6 12.0002 6C11.4479 6 11.0002 6.44772 11.0002 7V8.63376C10.6959 8.45849 10.3081 8.44902 9.98566 8.64251C9.51207 8.92666 9.35851 9.54092 9.64266 10.0145L11.1427 12.5145C11.3739 12.8999 11.8339 13.0837 12.2671 12.9637C12.7003 12.8437 13.0002 12.4495 13.0002 12V7Z" fill="#0000CC"/>
</svg>
