<svg width="24" height="24" viewBox="0 0 24 24" fill="none" xmlns="http://www.w3.org/2000/svg">
<path fill-rule="evenodd" clip-rule="evenodd" d="M12 22C17.5228 22 22 17.5228 22 12C22 6.47715 17.5228 2 12 2C6.47715 2 2 6.47715 2 12C2 17.5228 6.47715 22 12 22ZM10 10.1746C10 8.91955 10.948 8 12 8C13.052 8 14 8.91955 14 10.1746C14 10.5901 13.7163 11.053 13.1188 11.6302L8.30518 16.2808C8.01204 16.564 7.92013 16.9968 8.07286 17.3747C8.22559 17.7526 8.5924 18 9 18H15C15.5523 18 16 17.5523 16 17C16 16.4477 15.5523 16 15 16H11.4743L14.5085 13.0686C15.1467 12.452 16 11.4772 16 10.1746C16 7.92309 14.2617 6 12 6C9.73831 6 8 7.92309 8 10.1746C8 10.7269 8.44772 11.1746 9 11.1746C9.55228 11.1746 10 10.7269 10 10.1746Z" fill="#0000CC"/>
</svg>
