<svg width="24" height="24" viewBox="0 0 24 24" fill="none" xmlns="http://www.w3.org/2000/svg">
<path fill-rule="evenodd" clip-rule="evenodd" d="M12 22C17.5228 22 22 17.5228 22 12C22 6.47715 17.5228 2 12 2C6.47715 2 2 6.47715 2 12C2 17.5228 6.47715 22 12 22ZM12.4191 7.39392C12.6367 6.88629 12.4015 6.29841 11.8939 6.08085C11.3863 5.8633 10.7984 6.09845 10.5809 6.60608L7.58085 13.6061C7.44844 13.915 7.48011 14.2699 7.66516 14.5505C7.8502 14.8311 8.16386 15 8.5 15H12.5V17C12.5 17.5523 12.9477 18 13.5 18C14.0523 18 14.5 17.5523 14.5 17V15H15.5C16.0523 15 16.5 14.5523 16.5 14C16.5 13.4477 16.0523 13 15.5 13H14.5V8C14.5 7.44772 14.0523 7 13.5 7C12.9477 7 12.5 7.44772 12.5 8V13H10.0165L12.4191 7.39392Z" fill="#0000CC"/>
</svg>
