<svg width="24" height="24" viewBox="0 0 24 24" fill="none" xmlns="http://www.w3.org/2000/svg">
<path fill-rule="evenodd" clip-rule="evenodd" d="M12 22C17.5228 22 22 17.5228 22 12C22 6.47715 17.5228 2 12 2C6.47715 2 2 6.47715 2 12C2 17.5228 6.47715 22 12 22ZM13 7C13 6.59554 12.7564 6.2309 12.3827 6.07612C12.009 5.92134 11.5789 6.0069 11.2929 6.29289L8.29289 9.29289C7.90237 9.68342 7.90237 10.3166 8.29289 10.7071C8.68342 11.0976 9.31658 11.0976 9.70711 10.7071L11 9.41421V16H9C8.44772 16 8 16.4477 8 17C8 17.5523 8.44772 18 9 18H15C15.5523 18 16 17.5523 16 17C16 16.4477 15.5523 16 15 16H13V7Z" fill="#0000CC"/>
</svg>
