<svg width="24" height="24" viewBox="0 0 24 24" fill="none" xmlns="http://www.w3.org/2000/svg">
<path d="M10 14C10 13.493 10.1887 13.03 10.4997 12.6775C10.5057 12.6709 10.5116 12.6642 10.5175 12.6575C10.8834 12.2537 11.4121 12 12 12C13.1046 12 14 12.8954 14 14C14 15.1046 13.1046 16 12 16C10.8954 16 10 15.1046 10 14Z" fill="#0000CC"/>
<path fill-rule="evenodd" clip-rule="evenodd" d="M12 22C17.5228 22 22 17.5228 22 12C22 6.47715 17.5228 2 12 2C6.47715 2 2 6.47715 2 12C2 17.5228 6.47715 22 12 22ZM13.8395 7.54335C14.1396 7.0797 14.007 6.46057 13.5433 6.16049C13.0797 5.86041 12.4606 5.99301 12.1605 6.45665L8.96378 11.3958C8.36302 12.0956 8 13.0054 8 14C8 16.2091 9.79086 18 12 18C14.2091 18 16 16.2091 16 14C16 11.873 14.3399 10.1338 12.2447 10.0074L13.8395 7.54335Z" fill="#0000CC"/>
</svg>
