<svg width="24" height="24" viewBox="0 0 24 24" fill="none" xmlns="http://www.w3.org/2000/svg">
<path d="M10.5 9.25C10.5 9.94036 11.0596 10.5 11.75 10.5H12.25C12.9404 10.5 13.5 9.94036 13.5 9.25C13.5 8.55964 12.9404 8 12.25 8H11.75C11.0596 8 10.5 8.55964 10.5 9.25Z" fill="#0000CC"/>
<path d="M10 14.25C10 13.2835 10.7835 12.5 11.75 12.5H12.25C13.2165 12.5 14 13.2835 14 14.25C14 15.2165 13.2165 16 12.25 16H11.75C10.7835 16 10 15.2165 10 14.25Z" fill="#0000CC"/>
<path fill-rule="evenodd" clip-rule="evenodd" d="M12 22C17.5228 22 22 17.5228 22 12C22 6.47715 17.5228 2 12 2C6.47715 2 2 6.47715 2 12C2 17.5228 6.47715 22 12 22ZM11.75 6C9.95507 6 8.5 7.45507 8.5 9.25C8.5 10.0744 8.80692 10.827 9.31271 11.4C8.50922 12.0878 8 13.1094 8 14.25C8 16.3211 9.67893 18 11.75 18H12.25C14.3211 18 16 16.3211 16 14.25C16 13.1094 15.4908 12.0878 14.6873 11.4C15.1931 10.827 15.5 10.0744 15.5 9.25C15.5 7.45507 14.0449 6 12.25 6H11.75Z" fill="#0000CC"/>
</svg>
