<svg width="24" height="24" viewBox="0 0 24 24" fill="none" xmlns="http://www.w3.org/2000/svg">
<path d="M10 10C10 8.89543 10.8954 8 12 8C13.1046 8 14 8.89543 14 10C14 11.1046 13.1046 12 12 12C10.8954 12 10 11.1046 10 10Z" fill="#0000CC"/>
<path fill-rule="evenodd" clip-rule="evenodd" d="M12 22C17.5228 22 22 17.5228 22 12C22 6.47715 17.5228 2 12 2C6.47715 2 2 6.47715 2 12C2 17.5228 6.47715 22 12 22ZM12 6C9.79086 6 8 7.79086 8 10C8 12.127 9.66021 13.8663 11.7555 13.9926L10.1607 16.4567C9.86063 16.9203 9.99323 17.5394 10.4569 17.8395C10.9205 18.1396 11.5396 18.007 11.8397 17.5433L15.0371 12.6032C15.6373 11.9035 16 10.9941 16 10C16 7.79086 14.2091 6 12 6Z" fill="#0000CC"/>
</svg>
