<svg width="24" height="24" viewBox="0 0 24 24" fill="none" xmlns="http://www.w3.org/2000/svg">
<path fill-rule="evenodd" clip-rule="evenodd" d="M6.5 7C5.83576 7 4.98427 7.58294 4.4342 9.02341C4.12799 9.82528 4 10.5739 4 12C4 13.4261 4.12799 14.1747 4.4342 14.9766C4.98427 16.4171 5.83576 17 6.5 17C7.19263 17 8.03614 16.4889 8.55613 15.003C8.83419 14.2085 9 13.401 9 12C9 10.5739 8.87201 9.82528 8.5658 9.02341C8.01573 7.58294 7.16424 7 6.5 7ZM2.5658 8.30992C3.24381 6.53443 4.61879 5 6.5 5C8.38121 5 9.75619 6.53443 10.4342 8.30992C10.8561 9.41485 11 10.4261 11 12C11 13.599 10.8046 14.6328 10.4439 15.6636C9.7616 17.6132 8.35283 19 6.5 19C4.61879 19 3.24381 17.4656 2.5658 15.6901C2.14386 14.5851 2 13.5739 2 12C2 10.4261 2.14386 9.41485 2.5658 8.30992Z" fill="#0000CC"/>
<path fill-rule="evenodd" clip-rule="evenodd" d="M17.5 7C16.8358 7 15.9843 7.58294 15.4342 9.02341C15.128 9.82528 15 10.5739 15 12C15 13.4261 15.128 14.1747 15.4342 14.9766C15.9843 16.4171 16.8358 17 17.5 17C18.1926 17 19.0361 16.4889 19.5561 15.003C19.8342 14.2085 20 13.401 20 12C20 10.5739 19.872 9.82528 19.5658 9.02341C19.0157 7.58294 18.1642 7 17.5 7ZM13.5658 8.30992C14.2438 6.53443 15.6188 5 17.5 5C19.3812 5 20.7562 6.53443 21.4342 8.30992C21.8561 9.41485 22 10.4261 22 12C22 13.599 21.8046 14.6328 21.4439 15.6636C20.7616 17.6132 19.3528 19 17.5 19C15.6188 19 14.2438 17.4656 13.5658 15.6901C13.1439 14.5851 13 13.5739 13 12C13 10.4261 13.1439 9.41485 13.5658 8.30992Z" fill="#0000CC"/>
</svg>
