<svg width="24" height="24" viewBox="0 0 24 24" fill="none" xmlns="http://www.w3.org/2000/svg">
<path fill-rule="evenodd" clip-rule="evenodd" d="M14.5693 2.17832C15.0231 2.49308 15.1358 3.11613 14.8211 3.56994L11.0021 9.07616C11.3274 9.02603 11.6607 9.00003 12 9.00003C15.5899 9.00003 18.5 11.9102 18.5 15.5C18.5 19.0899 15.5899 22 12 22C8.41015 22 5.5 19.0899 5.5 15.5C5.5 13.944 6.04675 12.5157 6.95862 11.3967L13.1776 2.43011C13.4924 1.9763 14.1154 1.86357 14.5693 2.17832ZM8.52334 12.6428C7.88393 13.4199 7.5 14.4151 7.5 15.5C7.5 17.9853 9.51472 20 12 20C14.4853 20 16.5 17.9853 16.5 15.5C16.5 13.0147 14.4853 11 12 11C10.6047 11 9.35766 11.6351 8.53225 12.632C8.5293 12.6356 8.52633 12.6392 8.52334 12.6428Z" fill="#0000CC"/>
</svg>
