<svg width="24" height="24" viewBox="0 0 24 24" fill="none" xmlns="http://www.w3.org/2000/svg">
<path fill-rule="evenodd" clip-rule="evenodd" d="M3.32698 4.63803C3 5.27976 3 6.11984 3 7.8V16.2C3 17.8802 3 18.7202 3.32698 19.362C3.6146 19.9265 4.07354 20.3854 4.63803 20.673C5.27976 21 6.11984 21 7.8 21H16.2C17.8802 21 18.7202 21 19.362 20.673C19.9265 20.3854 20.3854 19.9265 20.673 19.362C21 18.7202 21 17.8802 21 16.2V7.8C21 6.11984 21 5.27976 20.673 4.63803C20.3854 4.07354 19.9265 3.6146 19.362 3.32698C18.7202 3 17.8802 3 16.2 3H7.8C6.11984 3 5.27976 3 4.63803 3.32698C4.07354 3.6146 3.6146 4.07354 3.32698 4.63803ZM9.5 7C8.94772 7 8.5 7.44772 8.5 8C8.5 8.55228 8.94772 9 9.5 9H13.057L10.5637 15.6489C10.3698 16.166 10.6318 16.7424 11.1489 16.9363C11.666 17.1302 12.2424 16.8682 12.4363 16.3511L15.4363 8.35112C15.5515 8.04403 15.5087 7.69998 15.3219 7.43041C15.1351 7.16083 14.828 7 14.5 7H9.5Z" fill="#0000CC"/>
</svg>
