<svg width="24" height="24" viewBox="0 0 24 24" fill="none" xmlns="http://www.w3.org/2000/svg">
<path fill-rule="evenodd" clip-rule="evenodd" d="M3.32698 4.63803C3 5.27976 3 6.11984 3 7.8V16.2C3 17.8802 3 18.7202 3.32698 19.362C3.6146 19.9265 4.07354 20.3854 4.63803 20.673C5.27976 21 6.11984 21 7.8 21H16.2C17.8802 21 18.7202 21 19.362 20.673C19.9265 20.3854 20.3854 19.9265 20.673 19.362C21 18.7202 21 17.8802 21 16.2V7.8C21 6.11984 21 5.27976 20.673 4.63803C20.3854 4.07354 19.9265 3.6146 19.362 3.32698C18.7202 3 17.8802 3 16.2 3H7.8C6.11984 3 5.27976 3 4.63803 3.32698C4.07354 3.6146 3.6146 4.07354 3.32698 4.63803ZM10.5 7C10.0696 7 9.68744 7.27543 9.55132 7.68377L8.55132 10.6838C8.44967 10.9887 8.50081 11.324 8.68877 11.5847C8.87672 11.8455 9.17856 12 9.50001 12H12C12.8284 12 13.5 12.6716 13.5 13.5C13.5 14.3284 12.8284 15 12 15H11.1667C10.7985 15 10.5 14.7015 10.5 14.3333C10.5 13.781 10.0523 13.3333 9.50001 13.3333C8.94772 13.3333 8.50001 13.781 8.50001 14.3333C8.50001 15.8061 9.69392 17 11.1667 17H12C13.933 17 15.5 15.433 15.5 13.5C15.5 11.567 13.933 10 12 10H10.8874L11.2208 9H14.5C15.0523 9 15.5 8.55228 15.5 8C15.5 7.44772 15.0523 7 14.5 7H10.5Z" fill="#0000CC"/>
</svg>
