<svg width="24" height="24" viewBox="0 0 24 24" fill="none" xmlns="http://www.w3.org/2000/svg">
<path fill-rule="evenodd" clip-rule="evenodd" d="M3.32698 4.63803C3 5.27976 3 6.11984 3 7.8V16.2C3 17.8802 3 18.7202 3.32698 19.362C3.6146 19.9265 4.07354 20.3854 4.63803 20.673C5.27976 21 6.11984 21 7.8 21H16.2C17.8802 21 18.7202 21 19.362 20.673C19.9265 20.3854 20.3854 19.9265 20.673 19.362C21 18.7202 21 17.8802 21 16.2V7.8C21 6.11984 21 5.27976 20.673 4.63803C20.3854 4.07354 19.9265 3.6146 19.362 3.32698C18.7202 3 17.8802 3 16.2 3H7.8C6.11984 3 5.27976 3 4.63803 3.32698C4.07354 3.6146 3.6146 4.07354 3.32698 4.63803ZM10.5 10.5397C10.5 9.67443 11.1864 9 12 9C12.8137 9 13.5 9.67443 13.5 10.5397C13.5 10.7703 13.3334 11.0807 12.8464 11.5324L8.82002 15.2668C8.51844 15.5465 8.4189 15.9823 8.56913 16.3652C8.71936 16.7481 9.08872 17 9.50004 17H14.5C15.0523 17 15.5 16.5523 15.5 16C15.5 15.4477 15.0523 15 14.5 15H12.0488L14.2065 12.9988C14.7291 12.5141 15.5 11.686 15.5 10.5397C15.5 8.59968 13.9478 7 12 7C10.0523 7 8.50004 8.59968 8.50004 10.5397C8.50004 11.092 8.94775 11.5397 9.50004 11.5397C10.0523 11.5397 10.5 11.092 10.5 10.5397Z" fill="#0000CC"/>
</svg>
