<svg width="24" height="24" viewBox="0 0 24 24" fill="none" xmlns="http://www.w3.org/2000/svg">
<path fill-rule="evenodd" clip-rule="evenodd" d="M3.32698 4.63803C3 5.27976 3 6.11984 3 7.8V16.2C3 17.8802 3 18.7202 3.32698 19.362C3.6146 19.9265 4.07354 20.3854 4.63803 20.673C5.27976 21 6.11984 21 7.8 21H16.2C17.8802 21 18.7202 21 19.362 20.673C19.9265 20.3854 20.3854 19.9265 20.673 19.362C21 18.7202 21 17.8802 21 16.2V7.8C21 6.11984 21 5.27976 20.673 4.63803C20.3854 4.07354 19.9265 3.6146 19.362 3.32698C18.7202 3 17.8802 3 16.2 3H7.8C6.11984 3 5.27976 3 4.63803 3.32698C4.07354 3.6146 3.6146 4.07354 3.32698 4.63803ZM12.3944 8.44719C12.6414 7.95321 12.4412 7.35254 11.9472 7.10555C11.4532 6.85856 10.8526 7.05878 10.6056 7.55276L7.60557 13.5528C7.45058 13.8627 7.46714 14.2309 7.64935 14.5257C7.83156 14.8205 8.15342 15 8.5 15H12.5V16C12.5 16.5523 12.9477 17 13.5 17C14.0523 17 14.5 16.5523 14.5 16V15H15.5C16.0523 15 16.5 14.5523 16.5 14C16.5 13.4477 16.0523 13 15.5 13H14.5V8.99998C14.5 8.44769 14.0523 7.99998 13.5 7.99998C12.9477 7.99998 12.5 8.44769 12.5 8.99998V13H10.118L12.3944 8.44719Z" fill="#0000CC"/>
</svg>
