<svg width="24" height="24" viewBox="0 0 24 24" fill="none" xmlns="http://www.w3.org/2000/svg">
<path d="M18.1962 8.80413C18.9732 9.22817 19.5003 10.0526 19.5003 11.0001C19.5003 12.3808 18.381 13.5001 17.0003 13.5001C16.0528 13.5001 15.2284 12.973 14.8044 12.196M18.1962 8.80413L21.0003 6.00006L16.0003 6.00006L14.0003 4.00006C12.8957 2.89549 11.1049 2.89549 10.0003 4.00006C8.89573 5.10463 8.89573 6.89549 10.0003 8.00006L12.0003 10.0001L12.0003 15.0001L14.8044 12.196M18.1962 8.80413L14.8044 12.196M9 20.9998L7 11.9998L10.5 8.49976M3 20.9998L15 20.9998" stroke="#0000CC" stroke-width="2" stroke-linecap="round" stroke-linejoin="round"/>
</svg>
