<svg width="24" height="24" viewBox="0 0 24 24" fill="none" xmlns="http://www.w3.org/2000/svg">
<path opacity="0.3" fill-rule="evenodd" clip-rule="evenodd" d="M5 3C5 2.44772 5.44772 2 6 2H18C18.5523 2 19 2.44772 19 3V7C19 10.866 15.866 14 12 14C8.13401 14 5 10.866 5 7V3Z" fill="#0000CC"/>
<path d="M11 13.9291V20H8C7.44772 20 7 20.4477 7 21C7 21.5523 7.44772 22 8 22H16C16.5523 22 17 21.5523 17 21C17 20.4477 16.5523 20 16 20H13V13.9291C12.6734 13.9758 12.3395 14 12 14C11.6605 14 11.3266 13.9758 11 13.9291Z" fill="#0000CC"/>
</svg>
