<svg width="24" height="24" viewBox="0 0 24 24" fill="none" xmlns="http://www.w3.org/2000/svg">
<path opacity="0.14" d="M5 3H19V21H5V3Z" fill="#0000CC"/>
<path d="M5 3V2C4.44772 2 4 2.44772 4 3H5ZM19 3H20C20 2.44772 19.5523 2 19 2V3ZM19 21V22C19.5523 22 20 21.5523 20 21H19ZM5 21H4C4 21.5523 4.44772 22 5 22V21ZM11.9979 12.4067L12.7325 11.7282C12.5432 11.5232 12.2769 11.4067 11.9979 11.4067C11.719 11.4067 11.4527 11.5232 11.2634 11.7282L11.9979 12.4067ZM9.37926 10.3443L10.1452 10.9872L9.37926 10.3443ZM11.9979 8L12.6269 7.22257C12.2601 6.92581 11.7358 6.92581 11.369 7.22257L11.9979 8ZM13 12.5C13 11.9477 12.5523 11.5 12 11.5C11.4477 11.5 11 11.9477 11 12.5H13ZM11 16C11 16.5523 11.4477 17 12 17C12.5523 17 13 16.5523 13 16H11ZM10 15C9.44772 15 9 15.4477 9 16C9 16.5523 9.44772 17 10 17V15ZM14 17C14.5523 17 15 16.5523 15 16C15 15.4477 14.5523 15 14 15V17ZM5 4H19V2H5V4ZM18 3V21H20V3H18ZM19 20H5V22H19V20ZM6 21V3H4V21H6ZM11.2634 11.7282C10.9651 12.051 10.5498 12.0757 10.2669 11.8519L9.02596 13.4204C10.246 14.3856 11.8312 14.061 12.7325 13.0853L11.2634 11.7282ZM10.2669 11.8519C9.94016 11.5934 9.93134 11.2421 10.1452 10.9872L8.61329 9.70146C7.64684 10.853 7.84963 12.4897 9.02596 13.4204L10.2669 11.8519ZM13.8507 10.9872C14.0743 11.2537 14.0541 11.6016 13.7396 11.8436L14.9594 13.4286C16.1737 12.4941 16.3393 10.8413 15.3826 9.70146L13.8507 10.9872ZM13.7396 11.8436C13.4331 12.0795 13.0236 12.0433 12.7325 11.7282L11.2634 13.0853C12.1719 14.0687 13.737 14.3693 14.9594 13.4286L13.7396 11.8436ZM10.1452 10.9872C10.3775 10.7105 10.9646 10.179 11.5609 9.66756C11.8455 9.42347 12.1127 9.20038 12.3089 9.03814C12.4069 8.95712 12.487 8.89152 12.5422 8.84636C12.5699 8.82379 12.5913 8.80634 12.6057 8.79463C12.6129 8.78878 12.6183 8.78437 12.6219 8.78148C12.6237 8.78003 12.625 8.77896 12.6259 8.77828C12.6263 8.77795 12.6266 8.7777 12.6268 8.77756C12.6268 8.77749 12.6269 8.77744 12.6269 8.77742C12.6269 8.77741 12.6269 8.77741 12.6269 8.7774C12.6269 8.77741 12.6269 8.77743 11.9979 8C11.369 7.22257 11.3689 7.2226 11.3689 7.22263C11.3689 7.22265 11.3688 7.22269 11.3688 7.22273C11.3687 7.22281 11.3686 7.22291 11.3684 7.22304C11.3681 7.22329 11.3676 7.22365 11.3671 7.2241C11.366 7.225 11.3644 7.2263 11.3623 7.22798C11.3582 7.23134 11.3521 7.23623 11.3443 7.24257C11.3287 7.25525 11.306 7.27375 11.277 7.29742C11.2191 7.34476 11.136 7.41287 11.0346 7.4967C10.832 7.66415 10.5552 7.8953 10.2589 8.1494C9.69346 8.63434 8.9712 9.27502 8.61329 9.70146L10.1452 10.9872ZM11.9979 8C11.369 8.77743 11.369 8.77741 11.3689 8.7774C11.369 8.77741 11.3689 8.77741 11.369 8.77742C11.369 8.77744 11.369 8.77749 11.3691 8.77756C11.3693 8.7777 11.3696 8.77795 11.37 8.77828C11.3709 8.77896 11.3722 8.78003 11.374 8.78148C11.3775 8.78437 11.383 8.78878 11.3902 8.79463C11.4046 8.80634 11.426 8.82379 11.4537 8.84636C11.5089 8.89152 11.5889 8.95712 11.6869 9.03814C11.8832 9.20038 12.1504 9.42347 12.435 9.66756C13.0313 10.179 13.6184 10.7105 13.8507 10.9872L15.3826 9.70146C15.0247 9.27502 14.3024 8.63434 13.737 8.1494C13.4407 7.8953 13.1638 7.66415 12.9613 7.4967C12.8599 7.41287 12.7768 7.34476 12.7189 7.29742C12.6899 7.27375 12.6672 7.25525 12.6516 7.24257C12.6438 7.23623 12.6377 7.23134 12.6336 7.22798C12.6315 7.2263 12.6299 7.225 12.6288 7.2241C12.6282 7.22365 12.6278 7.22329 12.6275 7.22304C12.6273 7.22291 12.6272 7.22281 12.6271 7.22273C12.6271 7.22269 12.627 7.22265 12.627 7.22263C12.627 7.2226 12.6269 7.22257 11.9979 8ZM11 12.5V16H13V12.5H11ZM10 17H14V15H10V17Z" fill="#0000CC"/>
</svg>
