<svg width="24" height="24" viewBox="0 0 24 24" fill="none" xmlns="http://www.w3.org/2000/svg">
<g opacity="0.14">
<path d="M4 19L3 21H10L9 19H4Z" fill="#0000CC"/>
<path d="M15 19L14 21H21L20 19H15Z" fill="#0000CC"/>
<path d="M5 12L4 16H9L8 12H5Z" fill="#0000CC"/>
<path d="M3 8L5 12H8L10 8H6.5H3Z" fill="#0000CC"/>
<path d="M14 9H21V12L20 14V16H15V14L14 12V9Z" fill="#0000CC"/>
</g>
<path d="M4 16L5 12M5 12L3 8H6.5M5 12H3M5 12H8M9 16L8 12M8 12L10 8H6.5M8 12H10M6.5 8V5M6.5 3V5M5 5H6.5M8 5H6.5M20 16V14L21 12V9H14V12L15 14V16M3 21L4 19H9L10 21H3ZM14 21L15 19H20L21 21H14Z" stroke="#0000CC" stroke-width="2" stroke-linecap="round" stroke-linejoin="round"/>
</svg>
