<svg width="24" height="24" viewBox="0 0 24 24" fill="none" xmlns="http://www.w3.org/2000/svg">
<path opacity="0.14" fill-rule="evenodd" clip-rule="evenodd" d="M3 3H21V21H3V3ZM10 18H6V14H10V10H6V6H10V10H14V6H18V10H14V14H18V18H14V14H10V18Z" fill="#0000CC"/>
<path d="M6 18V6M6 18H18M6 18V14M6 18H10M6 6H18M6 6V10M6 6H10M18 6V18M18 6H14M18 6V10M18 18V14M18 18H14M6 10V14M6 10H10M18 10V14M18 10H14M6 14H10M18 14H14M10 18H14M10 18V14M10 6H14M10 6V10M14 18V14M14 6V10M14 14H10M14 14V10M10 14V10M10 10H14M3 3H21V21H3V3Z" stroke="#0000CC" stroke-width="2" stroke-linecap="round" stroke-linejoin="round"/>
</svg>
