<svg width="24" height="24" viewBox="0 0 24 24" fill="none" xmlns="http://www.w3.org/2000/svg">
<path opacity="0.14" fill-rule="evenodd" clip-rule="evenodd" d="M21 8H16H3V20H21V8ZM16 16C14.8954 16 14 15.1046 14 14C14 12.8954 14.8954 12 16 12C17.1046 12 18 12.8954 18 14C18 15.1046 17.1046 16 16 16ZM8 16C6.89543 16 6 15.1046 6 14C6 12.8954 6.89543 12 8 12C9.10457 12 10 12.8954 10 14C10 15.1046 9.10457 16 8 16Z" fill="#0000CC"/>
<path d="M16 8V4M18 4H14M10 5H6M21 8H3V20H21V8ZM14 14C14 15.1046 14.8954 16 16 16C17.1046 16 18 15.1046 18 14C18 12.8954 17.1046 12 16 12C14.8954 12 14 12.8954 14 14ZM6 14C6 15.1046 6.89543 16 8 16C9.10457 16 10 15.1046 10 14C10 12.8954 9.10457 12 8 12C6.89543 12 6 12.8954 6 14Z" stroke="#0000CC" stroke-width="2" stroke-linecap="round" stroke-linejoin="round"/>
</svg>
