<svg width="24" height="24" viewBox="0 0 24 24" fill="none" xmlns="http://www.w3.org/2000/svg">
<g opacity="0.14">
<path d="M12 3C7.58172 3 4 6.58172 4 11C4 11.611 4.0685 12.206 4.19824 12.7778C4.29376 13.1988 4.42249 13.6071 4.58152 14H19.4185C19.5775 13.6071 19.7062 13.1988 19.8018 12.7778C19.9315 12.206 20 11.611 20 11C20 6.58172 16.4183 3 12 3Z" fill="#0000CC"/>
<path d="M21 21H3L4 18H20L21 21Z" fill="#0000CC"/>
</g>
<path d="M9 9V7M8 8H10M15 11V7M13 9H17M4 11C4 6.58172 7.58172 3 12 3C16.4183 3 20 6.58172 20 11C20 11.611 19.9315 12.206 19.8018 12.7778C19.7062 13.1988 19.5775 13.6071 19.4185 14H4.58152C4.42249 13.6071 4.29376 13.1988 4.19824 12.7778C4.0685 12.206 4 11.611 4 11ZM3 21H21L20 18H4L3 21Z" stroke="#0000CC" stroke-width="2" stroke-linecap="round" stroke-linejoin="round"/>
</svg>
