<svg width="24" height="24" viewBox="0 0 24 24" fill="none" xmlns="http://www.w3.org/2000/svg">
<g opacity="0.14">
<path d="M7 8C7 8.55228 6.55228 9 6 9C5.44772 9 5 8.55228 5 8C5 7.44772 5.44772 7 6 7C6.55228 7 7 7.44772 7 8Z" fill="#0000CC"/>
<path d="M19 8C19 8.55228 18.5523 9 18 9C17.4477 9 17 8.55228 17 8C17 7.44772 17.4477 7 18 7C18.5523 7 19 7.44772 19 8Z" fill="#0000CC"/>
<path d="M9 11V18L12 21L15 18V11H9Z" fill="#0000CC"/>
</g>
<path d="M12 3V7M6 7H18M6 7C5.44772 7 5 7.44772 5 8C5 8.55228 5.44772 9 6 9C6.55228 9 7 8.55228 7 8C7 7.44772 6.55228 7 6 7ZM18 7C17.4477 7 17 7.44772 17 8C17 8.55228 17.4477 9 18 9C18.5523 9 19 8.55228 19 8C19 7.44772 18.5523 7 18 7ZM9 11V18L12 21L15 18V11" stroke="#0000CC" stroke-width="2" stroke-linecap="round" stroke-linejoin="round"/>
</svg>
