<svg width="24" height="24" viewBox="0 0 24 24" fill="none" xmlns="http://www.w3.org/2000/svg">
<path opacity="0.14" d="M3 11.8284V19C3 20.1046 3.89543 21 5 21H12.1716C12.702 21 13.2107 20.7893 13.5858 20.4142L17 17L21 13L16 8L11 3L7 7L3.58579 10.4142C3.21071 10.7893 3 11.298 3 11.8284Z" fill="#0000CC"/>
<path d="M21 3L16 8M16 8L21 13L17 17M16 8L11 3L7 7M17 17L7 7M17 17L13.5858 20.4142C13.2107 20.7893 12.702 21 12.1716 21H5C3.89543 21 3 20.1046 3 19V11.8284C3 11.298 3.21071 10.7893 3.58579 10.4142L7 7" stroke="#0000CC" stroke-width="2" stroke-linecap="round" stroke-linejoin="round"/>
</svg>
