<svg width="24" height="24" viewBox="0 0 24 24" fill="none" xmlns="http://www.w3.org/2000/svg">
<g opacity="0.14">
<path d="M7 17H5C4.44772 17 4 16.5523 4 16V14C4 13.4477 4.44772 13 5 13H7C7.55228 13 8 13.4477 8 14V16C8 16.5523 7.55228 17 7 17Z" fill="#0000CC"/>
<path d="M19 21H17C16.4477 21 16 20.5523 16 20V18C16 17.4477 16.4477 17 17 17H19C19.5523 17 20 17.4477 20 18V20C20 20.5523 19.5523 21 19 21Z" fill="#0000CC"/>
<path d="M19 17H17C16.4477 17 16 16.5523 16 16V14C16 13.4477 16.4477 13 17 13H19C19.5523 13 20 13.4477 20 14V16C20 16.5523 19.5523 17 19 17Z" fill="#0000CC"/>
<path d="M16.001 11C16.001 10.9184 15.9986 10.8373 15.9938 10.7569C15.9667 10.3051 16.1491 9.84536 16.5433 9.62294L18.4282 8.55935C18.9537 8.26283 19.6254 8.49609 19.7696 9.08201C19.9208 9.69648 20.001 10.3389 20.001 11V12C20.001 12.5523 19.5533 13 19.001 13H17.001C16.4487 13 16.001 12.5523 16.001 12V11Z" fill="#0000CC"/>
<path d="M16.3676 5.34081L14.9935 6.61438C14.4999 7.07185 14.5988 7.88595 15.037 8.39669C15.15 8.52836 15.2545 8.66746 15.3498 8.81316C15.7098 9.36342 16.4363 9.68271 17.009 9.35959L18.6533 8.43178C19.091 8.18483 19.2833 7.64767 19.0446 7.20546C18.6703 6.51206 18.1966 5.88021 17.6426 5.32899C17.2914 4.97951 16.731 5.004 16.3676 5.34081Z" fill="#0000CC"/>
<path d="M12 4.00001V6.00001C12 6.5523 12.4545 6.98717 12.9898 7.12341C13.1054 7.15285 13.2191 7.18734 13.3305 7.22661C13.7444 7.37254 14.2196 7.33162 14.5415 7.0333L16.1494 5.54297C16.5975 5.12773 16.5727 4.40645 16.046 4.09707C15.1306 3.55939 14.0988 3.19858 12.9976 3.0616C12.4495 2.99343 12 3.44773 12 4.00001Z" fill="#0000CC"/>
<path d="M7.95404 4.09707C8.86941 3.55939 9.9012 3.19858 11.0024 3.0616C11.5505 2.99343 12 3.44773 12 4.00001V6.00001C12 6.5523 11.5455 6.98717 11.0102 7.12341C10.8946 7.15285 10.7809 7.18734 10.6695 7.22661C10.2556 7.37254 9.78041 7.33162 9.45854 7.0333L7.85055 5.54297C7.40254 5.12773 7.42732 4.40645 7.95404 4.09707Z" fill="#0000CC"/>
<path d="M5.3472 8.43178L6.99152 9.35959C7.56417 9.68271 8.29074 9.36342 8.65069 8.81316C8.746 8.66746 8.85056 8.52836 8.96354 8.39669C9.40176 7.88595 9.50063 7.07185 9.00705 6.61438L7.63295 5.34081C7.26955 5.004 6.7091 4.97951 6.35787 5.32899C5.8039 5.88021 5.33023 6.51206 4.95594 7.20546C4.71724 7.64767 4.90955 8.18483 5.3472 8.43178Z" fill="#0000CC"/>
<path d="M8 11C8 10.9184 8.00245 10.8373 8.00727 10.7569C8.03435 10.3051 7.85192 9.84536 7.45774 9.62294L5.57281 8.55935C5.04729 8.26283 4.37557 8.49609 4.2314 9.08201C4.0802 9.69648 4 10.3389 4 11V12C4 12.5523 4.44772 13 5 13H7C7.55228 13 8 12.5523 8 12V11Z" fill="#0000CC"/>
<path d="M5 21H7C7.55228 21 8 20.5523 8 20V18C8 17.4477 7.55228 17 7 17H5C4.44772 17 4 17.4477 4 18V20C4 20.5523 4.44772 21 5 21Z" fill="#0000CC"/>
</g>
<path d="M5 17H7M5 17C4.44772 17 4 16.5523 4 16V14C4 13.4477 4.44772 13 5 13M5 17C4.44772 17 4 17.4477 4 18V20C4 20.5523 4.44772 21 5 21H7C7.55228 21 8 20.5523 8 20V18C8 17.4477 7.55228 17 7 17M7 17C7.55228 17 8 16.5523 8 16V14C8 13.4477 7.55228 13 7 13M7 13L5 13M7 13C7.55228 13 8 12.5523 8 12V11C8 10.9184 8.00245 10.8373 8.00727 10.7569C8.03435 10.3051 7.85192 9.84536 7.45774 9.62294L7 9.36465M5 13C4.44772 13 4 12.5523 4 12V11C4 10.3389 4.0802 9.69648 4.2314 9.08201C4.37557 8.49609 5.04729 8.26259 5.57281 8.55911M17 17H19M17 17C16.4477 17 16 17.4477 16 18V20C16 20.5523 16.4477 21 17 21H19C19.5523 21 20 20.5523 20 20V18C20 17.4477 19.5523 17 19 17M17 17C16.4477 17 16 16.5523 16 16V14C16 13.4477 16.4477 13 17 13M19 17C19.5523 17 20 16.5523 20 16V14C20 13.4477 19.5533 13 19.001 13M17 13L19.001 13M17 13C16.4477 13 16.001 12.5523 16.001 12V11C16.001 10.9184 15.9986 10.8373 15.9938 10.7569C15.9667 10.3051 16.1491 9.84536 16.5433 9.62294L17.009 9.36015M19.001 13C19.5533 13 20.001 12.5523 20.001 12V11C20.001 10.3389 19.9208 9.69648 19.7696 9.08201C19.6254 8.49609 19.0255 8.22181 18.5 8.51833M18.5 8.51833L17.009 9.36015M18.5 8.51833L18.6533 8.43178C19.091 8.18483 19.2833 7.64767 19.0446 7.20546C18.6703 6.51206 18.1966 5.88021 17.6426 5.32899C17.2914 4.97951 16.731 5.004 16.3676 5.34081L16.1494 5.54297M15 6.60831C14.5064 7.06578 14.5988 7.88595 15.037 8.39669C15.15 8.52836 15.2545 8.66746 15.3498 8.81316C15.7098 9.36342 16.4363 9.68328 17.009 9.36015M15 6.60831L14.5415 7.0333C14.2196 7.33162 13.7444 7.37254 13.3305 7.22661C13.2191 7.18734 13.1054 7.15285 12.9898 7.12341C12.4545 6.98717 12 6.5523 12 6.00001M15 6.60831L16.1494 5.54297M12 6.00001V4.00001M12 6.00001C12 6.5523 11.5455 6.98717 11.0102 7.12341C10.8946 7.15285 10.7809 7.18734 10.6695 7.22661C10.2556 7.37254 9.78041 7.33162 9.45854 7.0333L9.00688 6.61455M12 4.00001C12 3.44773 12.4495 2.99343 12.9976 3.0616C14.0988 3.19858 15.1306 3.55939 16.046 4.09707C16.5727 4.40645 16.5975 5.12773 16.1494 5.54297M12 4.00001C12 3.44773 11.5505 2.99343 11.0024 3.0616C9.9012 3.19858 8.86941 3.55939 7.95404 4.09707C7.42732 4.40645 7.40278 5.12748 7.8508 5.54272M7.8508 5.54272L7.63295 5.34081C7.26955 5.004 6.7091 4.97951 6.35787 5.32899C5.8039 5.88021 5.33023 6.51206 4.95594 7.20546C4.71724 7.64767 4.90955 8.18483 5.3472 8.43178L5.57281 8.55911M7.8508 5.54272L9.00688 6.61455M7 9.36465C7.57266 9.68778 8.29074 9.36342 8.65069 8.81316C8.746 8.66746 8.85056 8.52836 8.96354 8.39669C9.40176 7.88595 9.50046 7.07202 9.00688 6.61455M7 9.36465L5.57281 8.55911" stroke="#0000CC" stroke-width="2" stroke-linejoin="round"/>
</svg>
