<svg width="24" height="24" viewBox="0 0 24 24" fill="none" xmlns="http://www.w3.org/2000/svg">
<path opacity="0.14" d="M14.3082 21H3V15H5.04544L6.50795 13.57C6.88164 13.2046 7.38353 13 7.90618 13H11.1818C12.3114 13 13.2272 13.8954 13.2272 15C13.2272 16.1046 12.3114 17 11.1818 17H13.4049C13.9646 17 14.5206 16.9118 15.0516 16.7387L18.2327 15.7019C19.3944 15.3233 20.6399 15.9918 20.9369 17.1534C21.2033 18.1954 20.6043 19.2623 19.5622 19.6019L16.1876 20.7018C15.5816 20.8993 14.947 21 14.3082 21Z" fill="#0000CC"/>
<path d="M3 21H14.3082C14.947 21 15.5816 20.8993 16.1876 20.7018L19.5622 19.6019C20.6043 19.2623 21.2033 18.1954 20.9369 17.1534C20.6399 15.9918 19.3944 15.3233 18.2327 15.7019L15.0516 16.7387C14.5206 16.9118 13.9646 17 13.4049 17H11.1818M10.1591 17H11.1818M3 15H5.04544L6.50795 13.57C6.88164 13.2046 7.38353 13 7.90618 13H11.1818C12.3114 13 13.2272 13.8954 13.2272 15C13.2272 16.1046 12.3114 17 11.1818 17M9.13633 7H7.09089C5.96122 7 5.04544 6.10457 5.04544 5C5.04544 3.89543 5.96122 3 7.09089 3H16.8067C18.2188 3 19.3635 4.11929 19.3635 5.5C19.3635 6.88071 18.2188 8 16.8067 8H14.2499C13.1203 8 12.2045 8.89543 12.2045 10" stroke="#0000CC" stroke-width="2" stroke-linecap="round" stroke-linejoin="round"/>
</svg>
