<svg width="24" height="24" viewBox="0 0 24 24" fill="none" xmlns="http://www.w3.org/2000/svg">
<path opacity="0.14" d="M18 6.90994C17.5582 6.02068 14.3839 3.9528 12.6161 3.13625C12.2228 2.95458 11.7772 2.95458 11.3839 3.13625C9.61609 3.9528 6.44179 6.02068 6 6.90994C4 9.92924 6 12.9485 4 17.9807L10 21V13.955C10 13.3991 9.55228 12.9485 9 12.9485C8.44772 12.9485 8 12.4979 8 11.9421V11.4389C8 10.6051 8.67157 9.92924 9.5 9.92924H14.5C15.3284 9.92924 16 10.6051 16 11.4389V11.9421C16 12.4979 15.5523 12.9485 15 12.9485C14.4477 12.9485 14 13.3991 14 13.955V21L20 17.9807C18 12.9485 20 9.92924 18 6.90994Z" fill="#0000CC"/>
<path d="M18 6.90994C17.5582 6.02068 14.3839 3.9528 12.6161 3.13625C12.2228 2.95458 11.7772 2.95458 11.3839 3.13625C9.61609 3.9528 6.44179 6.02068 6 6.90994C4 9.92924 6 12.9485 4 17.9807L10 21V13.955C10 13.3991 9.55228 12.9485 9 12.9485C8.44772 12.9485 8 12.4979 8 11.9421V11.4389C8 10.6051 8.67157 9.92924 9.5 9.92924H14.5C15.3284 9.92924 16 10.6051 16 11.4389V11.9421C16 12.4979 15.5523 12.9485 15 12.9485C14.4477 12.9485 14 13.3991 14 13.955V21L20 17.9807C18 12.9485 20 9.92924 18 6.90994Z" stroke="#0000CC" stroke-width="2" stroke-linecap="round" stroke-linejoin="round"/>
</svg>
