<svg width="24" height="24" viewBox="0 0 24 24" fill="none" xmlns="http://www.w3.org/2000/svg">
<g opacity="0.14">
<path d="M6 13C4 14.5 3 16 3 19C4.21178 19 5.17883 18.9184 6 18.7223C5.66667 17.8149 5.2 15.4 6 13Z" fill="#0000CC"/>
<path d="M3 3C3 6 3 11.5 6 13C6.70329 10.8901 7.77354 7.5 8.41031 6C7.29867 4.3836 5.49524 3 3 3Z" fill="#0000CC"/>
<path d="M18.0003 13C21.0003 11.5 21.0003 6 21.0003 3C18.5051 3 16.7016 4.3836 15.59 6C16.2268 7.5 17.297 10.8901 18.0003 13Z" fill="#0000CC"/>
<path d="M21.0003 19C21.0003 16 20.0003 14.5 18.0003 13C18.8003 15.4 18.3336 17.8149 18.0003 18.7223C18.8215 18.9184 19.7885 19 21.0003 19Z" fill="#0000CC"/>
<path d="M13.0002 4C13.0002 4.55228 12.5524 5 12.0002 5C11.4479 5 11.0002 4.55228 11.0002 4C11.0002 3.44772 11.4479 3 12.0002 3C12.5524 3 13.0002 3.44772 13.0002 4Z" fill="#0000CC"/>
<path d="M13 9H11C9.89543 9 9 9.89543 9 11V13C9 14.1046 9.89543 15 11 15H13C14.1046 15 15 14.1046 15 13V11C15 9.89543 14.1046 9 13 9Z" fill="#0000CC"/>
</g>
<path d="M15.59 6C16.7016 4.3836 18.5051 3 21.0003 3C21.0003 6 21.0003 11.5 18.0003 13C20.0003 14.5 21.0003 16 21.0003 19C19.7885 19 18.8215 18.9184 18.0003 18.7223M8.41031 6C7.29867 4.3836 5.49524 3 3 3C3 6 3 11.5 6 13C4 14.5 3 16 3 19C4.21178 19 5.17883 18.9184 6 18.7223M10 21V15M14 21V15M13.0002 4C13.0002 4.55228 12.5524 5 12.0002 5C11.4479 5 11.0002 4.55228 11.0002 4C11.0002 3.44772 11.4479 3 12.0002 3C12.5524 3 13.0002 3.44772 13.0002 4ZM11 9H13C14.1046 9 15 9.89543 15 11V13C15 14.1046 14.1046 15 13 15H11C9.89543 15 9 14.1046 9 13V11C9 9.89543 9.89543 9 11 9Z" stroke="#0000CC" stroke-width="2" stroke-linecap="round" stroke-linejoin="round"/>
</svg>
