<svg width="24" height="24" viewBox="0 0 24 24" fill="none" xmlns="http://www.w3.org/2000/svg">
<g opacity="0.14">
<path d="M17.7033 7.00001C15.7033 4.99999 11.7033 4 7.7033 4C10.7033 6 12.7033 8 14.7033 10C16.7033 12 18.7033 14 20.7033 17C20.7033 13 19.7033 9.00002 17.7033 7.00001Z" fill="#0000CC"/>
<path d="M13.7033 14L4.2488 20.6181C3.9333 20.839 3.50478 20.8015 3.23246 20.5292C2.93532 20.232 2.92129 19.7548 3.20047 19.4407L10.7033 11L13.7033 14Z" fill="#0000CC"/>
</g>
<path d="M17.7033 7.00001C15.7033 4.99999 11.7033 4 7.7033 4C10.7033 6 12.7033 8 14.7033 10C16.7033 12 18.7033 14 20.7033 17C20.7033 13 19.7033 9.00002 17.7033 7.00001Z" fill="#D9D9D9"/>
<path d="M13.7033 14L4.2488 20.6181C3.9333 20.839 3.50478 20.8015 3.23246 20.5292C2.93532 20.232 2.92129 19.7548 3.20047 19.4407L10.7033 11M20.7033 7L17.7033 4M7.7033 4C11.7033 4 15.7033 4.99999 17.7033 7.00001C19.7033 9.00002 20.7033 13 20.7033 17C18.7033 14 16.7033 12 14.7033 10C12.7033 8 10.7033 6 7.7033 4Z" stroke="#0000CC" stroke-width="2" stroke-linecap="round" stroke-linejoin="round"/>
</svg>
