<svg width="24" height="24" viewBox="0 0 24 24" fill="none" xmlns="http://www.w3.org/2000/svg">
<path opacity="0.14" d="M3 9H5H8V18.5C8 19.8807 9.11929 21 10.5 21H18C19.6569 21 21 19.6569 21 18V16H18V13V6C18 4.34315 16.6569 3 15 3H5.5C4.11929 3 3 4.11929 3 5.5V9Z" fill="#0000CC"/>
<path d="M5 9H3V5.5C3 4.11929 4.11929 3 5.5 3C6.88071 3 8 4.11929 8 5.5V18.5C8 19.8807 9.11929 21 10.5 21C11.8807 21 13 19.8807 13 18.5V16H21V18C21 19.6569 19.6569 21 18 21H11M18 13V6C18 4.34315 16.6569 3 15 3H6M8 13H10M17 18V16M16 11H18M18 7H16" stroke="#0000CC" stroke-width="2" stroke-linecap="round" stroke-linejoin="round"/>
</svg>
