<svg width="24" height="24" viewBox="0 0 24 24" fill="none" xmlns="http://www.w3.org/2000/svg">
<g opacity="0.14">
<path d="M7 11.8571C7 11.0592 7 10.6602 7.11223 10.3394C7.31326 9.76495 7.76495 9.31326 8.33944 9.11223C8.66019 9 9.05917 9 9.85714 9H14.1429C14.9408 9 15.3398 9 15.6606 9.11223C16.2351 9.31326 16.6867 9.76495 16.8878 10.3394C17 10.6602 17 11.0592 17 11.8571V14C17 16.7614 14.7614 19 12 19C9.23858 19 7 16.7614 7 14V11.8571Z" fill="#0000CC"/>
<path d="M10 5C10 3.89543 10.8954 3 12 3C13.1046 3 14 3.89543 14 5V6H10V5Z" fill="#0000CC"/>
</g>
<path d="M12 19V17M12 19C9.23858 19 7 16.7614 7 14M12 19C13.8953 19 15.5443 17.9455 16.3922 16.3912M7 14V11C7 9.89543 7.89543 9 9 9M7 14H4M17 11.3984V11C17 9.89543 16.1046 9 15 9H14.5977M4.5 20.5L8 17M7 10L4.5 7.5M19.5977 14H20M3 3L21 21M10.0705 4.47165C10.3023 3.62346 11.0783 3 12 3C13.1046 3 14 3.89543 14 5V6H11.5979M17 10L19.5 7.5" stroke="#0000CC" stroke-width="2" stroke-linecap="round" stroke-linejoin="round"/>
</svg>
