<svg width="24" height="24" viewBox="0 0 24 24" fill="none" xmlns="http://www.w3.org/2000/svg">
<path opacity="0.14" d="M10.1058 2.86544L7.50582 3.44322L7.50582 3.44322C6.6117 3.64191 6.16464 3.74126 5.83093 3.98167C5.53658 4.19373 5.30545 4.48186 5.1623 4.8152C5 5.19312 5 5.65108 5 6.56702V17.8C5 18.9202 5 19.4802 5.21799 19.908C5.40974 20.2844 5.7157 20.5903 6.09203 20.7821C6.51985 21.0001 7.07991 21.0001 8.20002 21L14 21V5.98924C14 4.6252 14 3.94318 13.7187 3.47045C13.472 3.05596 13.0838 2.74457 12.6257 2.59368C12.1032 2.42159 11.4374 2.56954 10.1058 2.86544Z" fill="#0000CC"/>
<path d="M3 20.9991L14 20.999V5.98826C14 4.62423 14 3.94221 13.7187 3.46948C13.472 3.05498 13.0838 2.7436 12.6257 2.5927C12.1032 2.42061 11.4374 2.56856 10.1058 2.86446L7.50582 3.44224C6.6117 3.64094 6.16464 3.74028 5.83093 3.9807C5.53658 4.19276 5.30545 4.48088 5.1623 4.81422C5 5.19214 5 5.65011 5 6.56604V20.9991M13.994 4.99909H15.8C16.9201 4.99909 17.4802 4.99909 17.908 5.21708C18.2843 5.40882 18.5903 5.71479 18.782 6.09111C19 6.51893 19 7.07899 19 8.19909V20.9991H21M11 11.9991H11.01" stroke="#0000CC" stroke-width="2" stroke-linecap="round" stroke-linejoin="round"/>
</svg>
