<svg width="24" height="24" viewBox="0 0 24 24" fill="none" xmlns="http://www.w3.org/2000/svg">
<path opacity="0.14" d="M13 3H8.2C7.0799 3 6.51984 3 6.09202 3.21799C5.71569 3.40973 5.40973 3.71569 5.21799 4.09202C5 4.51984 5 5.0799 5 6.2V17.8C5 18.9201 5 19.4802 5.21799 19.908C5.40973 20.2843 5.71569 20.5903 6.09202 20.782C6.51984 21 7.0799 21 8.2 21H15.8C15.9592 21 16.1071 21 16.2449 20.9994C15.942 20.9969 15.764 20.9846 15.6173 20.9239C15.3723 20.8224 15.1776 20.6277 15.0761 20.3827C15 20.1989 15 19.9659 15 19.5C15 19.0341 15 18.8011 15.0761 18.6173C15.1776 18.3723 15.3723 18.1776 15.6173 18.0761C15.7193 18.0339 15.8364 18.0151 16 18.0067V17C16 15.8954 16.8954 15 18 15C18.3643 15 18.7058 15.0974 19 15.2676V9H14.6C14.0399 9 13.7599 9 13.546 8.89101C13.3578 8.79513 13.2049 8.64215 13.109 8.45399C13 8.24008 13 7.96005 13 7.4V3Z" fill="#0000CC"/>
<path d="M13 3H8.2C7.0799 3 6.51984 3 6.09202 3.21799C5.71569 3.40973 5.40973 3.71569 5.21799 4.09202C5 4.51984 5 5.0799 5 6.2V17.8C5 18.9201 5 19.4802 5.21799 19.908C5.40973 20.2843 5.71569 20.5903 6.09202 20.782C6.51984 21 7.0799 21 8.2 21H10M13 3L19 9M13 3V7.4C13 7.96005 13 8.24008 13.109 8.45399C13.2049 8.64215 13.3578 8.79513 13.546 8.89101C13.7599 9 14.0399 9 14.6 9H19M19 9V10M20 18.0039V17C20 15.8954 19.1046 15 18 15C16.8954 15 16 15.8954 16 17V18.0039M16.5 21H19.5C19.9659 21 20.1989 21 20.3827 20.9239C20.6277 20.8224 20.8224 20.6277 20.9239 20.3827C21 20.1989 21 19.9659 21 19.5C21 19.0341 21 18.8011 20.9239 18.6173C20.8224 18.3723 20.6277 18.1776 20.3827 18.0761C20.1989 18 19.9659 18 19.5 18H16.5C16.0341 18 15.8011 18 15.6173 18.0761C15.3723 18.1776 15.1776 18.3723 15.0761 18.6173C15 18.8011 15 19.0341 15 19.5C15 19.9659 15 20.1989 15.0761 20.3827C15.1776 20.6277 15.3723 20.8224 15.6173 20.9239C15.8011 21 16.0341 21 16.5 21Z" stroke="#0000CC" stroke-width="2" stroke-linecap="round" stroke-linejoin="round"/>
</svg>
