<svg width="24" height="24" viewBox="0 0 24 24" fill="none" xmlns="http://www.w3.org/2000/svg">
<path opacity="0.14" d="M13 3H8.2C7.0799 3 6.51984 3 6.09202 3.21799C5.71569 3.40973 5.40973 3.71569 5.21799 4.09202C5 4.51984 5 5.0799 5 6.2V17.8C5 18.9201 5 19.4802 5.21799 19.908C5.40973 20.2843 5.71569 20.5903 6.09202 20.782C6.51984 21 7.0799 21 8.2 21H15.8C16.7213 21 17.2637 21 17.6652 20.8787C16.1124 20.2259 15 18.4662 15 16.3979L15.0002 15.21C15.0489 15.2129 15.1628 15.2116 15.2491 15.2107C15.2836 15.2103 15.3136 15.2099 15.3333 15.2099C16.3578 15.2099 17.2923 14.7524 18 14C18.2968 14.3156 18.6335 14.5793 19 14.7791V9H14.6C14.0399 9 13.7599 9 13.546 8.89101C13.3578 8.79513 13.2049 8.64215 13.109 8.45399C13 8.24008 13 7.96005 13 7.4V3Z" fill="#0000CC"/>
<path d="M13 3H8.2C7.0799 3 6.51984 3 6.09202 3.21799C5.71569 3.40973 5.40973 3.71569 5.21799 4.09202C5 4.51984 5 5.0799 5 6.2V17.8C5 18.9201 5 19.4802 5.21799 19.908C5.40973 20.2843 5.71569 20.5903 6.09202 20.782C6.51984 21 7.0799 21 8.2 21H12M13 3L19 9M13 3V7.4C13 7.96005 13 8.24008 13.109 8.45399C13.2049 8.64215 13.3578 8.79513 13.546 8.89101C13.7599 9 14.0399 9 14.6 9H19M19 9V10M21 15.21C20.9318 15.2141 20.7357 15.21 20.6667 15.21C19.6422 15.21 18.7077 14.7524 18 14C17.2923 14.7524 16.3578 15.2099 15.3333 15.2099C15.2643 15.2099 15.0684 15.2141 15.0002 15.21C15.0002 15.21 15 15.9855 15 16.3979C15 18.6121 16.2748 20.4725 18 21C19.7252 20.4725 21 18.6121 21 16.3979C21 15.9855 21 15.21 21 15.21Z" stroke="#0000CC" stroke-width="2" stroke-linecap="round" stroke-linejoin="round"/>
</svg>
