<svg width="24" height="24" viewBox="0 0 24 24" fill="none" xmlns="http://www.w3.org/2000/svg">
<path opacity="0.14" d="M4 14.8C4 13.1198 4 12.2798 4.32698 11.638C4.6146 11.0735 5.07354 10.6146 5.63803 10.327C6.27976 10 7.11984 10 8.8 10H15.2C16.8802 10 17.7202 10 18.362 10.327C18.9265 10.6146 19.3854 11.0735 19.673 11.638C20 12.2798 20 13.1198 20 14.8V16.2C20 17.8802 20 18.7202 19.673 19.362C19.3854 19.9265 18.9265 20.3854 18.362 20.673C17.7202 21 16.8802 21 15.2 21H8.8C7.11984 21 6.27976 21 5.63803 20.673C5.07354 20.3854 4.6146 19.9265 4.32698 19.362C4 18.7202 4 17.8802 4 16.2V14.8Z" fill="#0000CC"/>
<path d="M3 3L21 21M9.35386 3.75681C10.1213 3.27719 11.0283 3 12 3C14.7614 3 17 5.23858 17 8V10.0288M7.08383 7.08338C7.02878 7.38053 7 7.6869 7 8V10.0288M19.5614 19.5618C19.273 20.0348 18.8583 20.4201 18.362 20.673C17.7202 21 16.8802 21 15.2 21H8.8C7.11984 21 6.27976 21 5.63803 20.673C5.07354 20.3854 4.6146 19.9265 4.32698 19.362C4 18.7202 4 17.8802 4 16.2V14.8C4 13.1198 4 12.2798 4.32698 11.638C4.6146 11.0735 5.07354 10.6146 5.63803 10.327C5.99429 10.1455 6.41168 10.0647 7 10.0288M19.9998 14.4023C19.9978 12.9831 19.9731 12.227 19.673 11.638C19.3854 11.0735 18.9265 10.6146 18.362 10.327C18.0057 10.1455 17.5883 10.0647 17 10.0288M15.5977 10.0002C16.1585 10.001 16.6157 10.0053 17 10.0288M10 10H8.8C8.05259 10 7.47142 10 7 10.0288" stroke="#0000CC" stroke-width="2" stroke-linecap="round" stroke-linejoin="round"/>
</svg>
