<svg width="24" height="24" viewBox="0 0 24 24" fill="none" xmlns="http://www.w3.org/2000/svg">
<path opacity="0.14" d="M11.3586 20.6828C11.5639 20.7898 11.6666 20.8433 11.809 20.8711C11.92 20.8926 12.08 20.8926 12.191 20.8711C12.3334 20.8433 12.4361 20.7898 12.6414 20.6828C14.54 19.6936 20 16.461 20 11.9999V8.21747C20 7.41796 20 7.0182 19.8692 6.67457C19.7537 6.37101 19.566 6.10015 19.3223 5.8854C19.0465 5.64231 18.6722 5.50195 17.9236 5.22122L12.5618 3.21054C12.3539 3.13258 12.25 3.0936 12.143 3.07815C12.0482 3.06444 11.9518 3.06444 11.857 3.07815C11.75 3.0936 11.6461 3.13258 11.4382 3.21054L6.0764 5.22122C5.3278 5.50195 4.9535 5.64231 4.67766 5.8854C4.43398 6.10015 4.24627 6.37101 4.13076 6.67457C4 7.0182 4 7.41796 4 8.21747V11.9999C4 16.461 9.45996 19.6936 11.3586 20.6828Z" fill="#0000CC"/>
<path d="M3 3L21 21M19.6249 14.0234C19.863 13.3824 20 12.7066 20 12V8.2176C20 7.41809 20 7.01833 19.8692 6.6747C19.7537 6.37114 19.566 6.10028 19.3223 5.88553C19.0465 5.64244 18.6722 5.50208 17.9236 5.22135L12.5618 3.21067C12.3539 3.13271 12.25 3.09373 12.143 3.07828C12.0482 3.06457 11.9518 3.06457 11.857 3.07828C11.75 3.09373 11.6461 3.13271 11.4382 3.21067L9.5265 3.92756M17.3447 17.3447C15.6775 18.9901 13.6576 20.1532 12.6449 20.6812C12.4374 20.7894 12.3336 20.8434 12.1911 20.8712C12.0802 20.8928 11.9201 20.8928 11.8091 20.8712C11.6667 20.8435 11.564 20.79 11.3586 20.683C9.45996 19.6937 4 16.4611 4 12V8.2176C4 7.41809 4 7.01833 4.13076 6.6747C4.24627 6.37114 4.43398 6.10028 4.67766 5.88553C4.8645 5.72087 5.09653 5.60334 5.45946 5.45739" stroke="#0000CC" stroke-width="2" stroke-linecap="round" stroke-linejoin="round"/>
</svg>
