<svg width="24" height="24" viewBox="0 0 24 24" fill="none" xmlns="http://www.w3.org/2000/svg">
<path opacity="0.14" d="M11.3586 20.6828C11.5639 20.7898 11.6666 20.8433 11.809 20.8711C11.92 20.8926 12.08 20.8926 12.191 20.8711C12.3334 20.8433 12.4361 20.7898 12.6414 20.6828C14.54 19.6936 20 16.461 20 11.9999V8.21747C20 7.41796 20 7.0182 19.8692 6.67457C19.7537 6.37101 19.566 6.10015 19.3223 5.8854C19.0465 5.64231 18.6722 5.50195 17.9236 5.22122L12.5618 3.21054C12.3539 3.13258 12.25 3.0936 12.143 3.07815C12.0482 3.06444 11.9518 3.06444 11.857 3.07815C11.75 3.0936 11.6461 3.13258 11.4382 3.21054L6.0764 5.22122C5.3278 5.50195 4.9535 5.64231 4.67766 5.8854C4.43398 6.10015 4.24627 6.37101 4.13076 6.67457C4 7.0182 4 7.41796 4 8.21747V11.9999C4 16.461 9.45996 19.6936 11.3586 20.6828Z" fill="#0000CC"/>
<path d="M9 12.0001H15M12 9.00011V15.0001M20 12.0001C20 16.4612 14.54 19.6939 12.6414 20.6831C12.4361 20.7901 12.3334 20.8436 12.191 20.8713C12.08 20.8929 11.92 20.8929 11.809 20.8713C11.6666 20.8436 11.5639 20.7901 11.3586 20.6831C9.45996 19.6939 4 16.4612 4 12.0001V8.21772C4 7.4182 4 7.01845 4.13076 6.67482C4.24627 6.37126 4.43398 6.10039 4.67766 5.88564C4.9535 5.64255 5.3278 5.50219 6.0764 5.22146L11.4382 3.21079C11.6461 3.13283 11.75 3.09385 11.857 3.07839C11.9518 3.06469 12.0482 3.06469 12.143 3.07839C12.25 3.09385 12.3539 3.13283 12.5618 3.21079L17.9236 5.22146C18.6722 5.50219 19.0465 5.64255 19.3223 5.88564C19.566 6.10039 19.7537 6.37126 19.8692 6.67482C20 7.01845 20 7.4182 20 8.21772V12.0001Z" stroke="#0000CC" stroke-width="2" stroke-linecap="round" stroke-linejoin="round"/>
</svg>
