<svg width="24" height="24" viewBox="0 0 24 24" fill="none" xmlns="http://www.w3.org/2000/svg">
<path opacity="0.14" d="M11.3586 20.6828C11.5639 20.7898 11.6666 20.8433 11.809 20.8711C11.92 20.8926 12.08 20.8926 12.191 20.8711C12.3334 20.8433 12.4361 20.7898 12.6414 20.6828C14.54 19.6936 20 16.461 20 11.9999V8.21747C20 7.41796 20 7.0182 19.8692 6.67457C19.7537 6.37101 19.566 6.10015 19.3223 5.8854C19.0465 5.64231 18.6722 5.50195 17.9236 5.22122L12.5618 3.21054C12.3539 3.13258 12.25 3.0936 12.143 3.07815C12.0482 3.06444 11.9518 3.06444 11.857 3.07815C11.75 3.0936 11.6461 3.13258 11.4382 3.21054L6.0764 5.22122C5.3278 5.50195 4.9535 5.64231 4.67766 5.8854C4.43398 6.10015 4.24627 6.37101 4.13076 6.67457C4 7.0182 4 7.41796 4 8.21747V11.9999C4 16.461 9.45996 19.6936 11.3586 20.6828Z" fill="#0000CC"/>
<path d="M11.3586 20.683C11.5639 20.79 11.6666 20.8435 11.809 20.8712C11.92 20.8928 12.08 20.8928 12.191 20.8712C12.3334 20.8435 12.4361 20.79 12.6414 20.683C14.54 19.6937 20 16.4611 20 12V8.21759C20 7.41808 20 7.01833 19.8692 6.6747C19.7537 6.37113 19.566 6.10027 19.3223 5.88552C19.0465 5.64243 18.6722 5.50207 17.9236 5.22134L12.5618 3.21067C12.3539 3.13271 12.25 3.09373 12.143 3.07827C12.0482 3.06457 11.9518 3.06457 11.857 3.07827C11.75 3.09373 11.6461 3.13271 11.4382 3.21067L6.0764 5.22134C5.3278 5.50207 4.9535 5.64243 4.67766 5.88552C4.43398 6.10027 4.24627 6.37113 4.13076 6.6747C4 7.01833 4 7.41808 4 8.21759V12C4 16.4611 9.45996 19.6937 11.3586 20.683Z" stroke="#0000CC" stroke-width="2" stroke-linecap="round" stroke-linejoin="round"/>
</svg>
