<svg width="24" height="24" viewBox="0 0 24 24" fill="none" xmlns="http://www.w3.org/2000/svg">
<path opacity="0.14" fill-rule="evenodd" clip-rule="evenodd" d="M11.809 20.8711C11.6666 20.8433 11.5639 20.7898 11.3586 20.6828C9.45996 19.6936 4 16.461 4 11.9999V8.21747C4 7.41796 4 7.0182 4.13076 6.67457C4.24627 6.37101 4.43398 6.10015 4.67766 5.8854C4.95349 5.64231 5.3278 5.50195 6.0764 5.22122L11.4382 3.21054C11.6461 3.13258 11.75 3.0936 11.857 3.07815C11.9518 3.06444 12.0482 3.06444 12.143 3.07815C12.25 3.0936 12.3539 3.13258 12.5618 3.21054L17.9236 5.22122C18.6722 5.50195 19.0465 5.64231 19.3223 5.8854C19.566 6.10015 19.7537 6.37101 19.8692 6.67457C20 7.0182 20 7.41796 20 8.21747V11.9999C20 16.461 14.54 19.6936 12.6414 20.6828C12.4361 20.7898 12.3334 20.8433 12.191 20.8711C12.08 20.8926 11.92 20.8926 11.809 20.8711ZM9.25414 9.93667C10.1309 9.22321 11.2978 9.4328 11.9976 10.2119C12.6974 9.4328 13.8492 9.23072 14.7411 9.93667C15.6329 10.6426 15.7413 11.843 15.0527 12.6868C14.664 13.1632 13.7404 13.9983 13.0098 14.6353C12.6633 14.9374 12.4901 15.0885 12.2805 15.1503C12.1018 15.203 11.8934 15.203 11.7147 15.1503C11.5051 15.0885 11.3319 14.9374 10.9854 14.6353C10.2548 13.9983 9.33119 13.1632 8.94247 12.6868C8.25394 11.843 8.37738 10.6501 9.25414 9.93667Z" fill="#0000CC"/>
<path fill-rule="evenodd" clip-rule="evenodd" d="M11.9976 10.2119C11.2978 9.43279 10.1309 9.22321 9.25414 9.93666C8.37738 10.6501 8.25394 11.843 8.94247 12.6868C9.33119 13.1632 10.2548 13.9983 10.9854 14.6353C11.3319 14.9374 11.5051 15.0884 11.7147 15.1503C11.8934 15.203 12.1018 15.203 12.2805 15.1503C12.4901 15.0884 12.6633 14.9374 13.0098 14.6353C13.7404 13.9983 14.664 13.1632 15.0527 12.6868C15.7413 11.843 15.6329 10.6426 14.7411 9.93666C13.8492 9.23071 12.6974 9.43279 11.9976 10.2119Z" stroke="#0000CC" stroke-width="2" stroke-linecap="round" stroke-linejoin="round"/>
</svg>
