<svg width="24" height="24" viewBox="0 0 24 24" fill="none" xmlns="http://www.w3.org/2000/svg">
<path d="M7.96604 3.98636C6.16834 4.83072 4.67842 6.22194 3.71061 7.94569C2.8802 7.41215 2.33008 6.48028 2.33008 5.41992C2.33008 3.76307 3.67322 2.41992 5.33008 2.41992C6.46771 2.41992 7.45744 3.05315 7.96604 3.98636Z" fill="#0000CC"/>
<path d="M21.7 5.41992C21.7 6.48969 21.1401 7.42868 20.2973 7.9598C19.334 6.2372 17.8498 4.84541 16.0579 3.99765C16.5647 3.05826 17.5578 2.41992 18.7 2.41992C20.3569 2.41992 21.7 3.76307 21.7 5.41992Z" fill="#0000CC"/>
<path fill-rule="evenodd" clip-rule="evenodd" d="M16.3202 19.3242C15.0741 20.1252 13.5913 20.5898 12 20.5898C10.4087 20.5898 8.92587 20.1252 7.67984 19.3242L5.70711 21.297C5.31658 21.6875 4.68342 21.6875 4.29289 21.297C3.90237 20.9064 3.90237 20.2733 4.29289 19.8827L6.13981 18.0358C4.81205 16.6077 4 14.6936 4 12.5898C4 8.17157 7.58172 4.58984 12 4.58984C16.4183 4.58984 20 8.17157 20 12.5898C20 14.6936 19.1879 16.6077 17.8602 18.0358L19.7071 19.8827C20.0976 20.2733 20.0976 20.9064 19.7071 21.297C19.3166 21.6875 18.6834 21.6875 18.2929 21.297L16.3202 19.3242ZM10 9C9.44772 9 9.00001 9.44772 9.00001 10C9.00001 10.5523 9.44772 11 10 11H11.9194L9.21914 14.3753C8.979 14.6755 8.93219 15.0867 9.09871 15.4332C9.26523 15.7797 9.6156 16 10 16H14C14.5523 16 15 15.5523 15 15C15 14.4477 14.5523 14 14 14H12.0806L14.7809 10.6247C15.021 10.3245 15.0678 9.91328 14.9013 9.56681C14.7348 9.22035 14.3844 9 14 9H10Z" fill="#0000CC"/>
</svg>
