<svg width="24" height="24" viewBox="0 0 24 24" fill="none" xmlns="http://www.w3.org/2000/svg">
<path d="M12.0008 2C12.5531 2 13.0008 2.44772 13.0008 3V4.07114C14.2992 4.257 15.5209 4.80282 16.4835 5.65848C17.6942 6.73462 18.4008 8.22119 18.4008 9.8C18.4008 11.6119 18.8087 12.9241 19.3058 13.858L19.3149 13.8752C19.6759 14.5534 19.9577 15.0827 20.1458 15.4615C20.2398 15.6508 20.3219 15.8255 20.3808 15.9739C20.4101 16.0475 20.442 16.1354 20.466 16.2281C20.4837 16.296 20.5284 16.4767 20.5004 16.6927C20.4863 16.8011 20.4548 17.0398 20.3108 17.2795C20.1669 17.5192 19.971 17.6592 19.8819 17.7226C19.7245 17.8345 19.5683 17.8822 19.4907 17.9033C19.3989 17.9281 19.3099 17.9428 19.236 17.9525C19.0882 17.9719 18.9164 17.9818 18.7373 17.9879C18.3804 18 17.8816 18 17.2533 18H6.74825C6.11994 18 5.62113 18 5.26423 17.9879C5.08518 17.9818 4.91332 17.9719 4.7656 17.9525C4.6917 17.9428 4.60263 17.9281 4.51087 17.9033C4.43329 17.8822 4.27704 17.8345 4.11966 17.7226C4.03056 17.6592 3.83469 17.5192 3.69075 17.2795C3.54681 17.0398 3.51522 16.8011 3.50118 16.6927C3.47319 16.4767 3.51789 16.296 3.53554 16.2281C3.55961 16.1354 3.59151 16.0475 3.62072 15.9739C3.67964 15.8255 3.7618 15.6508 3.85581 15.4615C4.04392 15.0827 4.32563 14.5534 4.6867 13.8751L4.69579 13.858C5.19288 12.9241 5.60078 11.6119 5.60078 9.8C5.60078 8.22119 6.30738 6.73462 7.51804 5.65848C8.48066 4.80282 9.70238 4.257 11.0008 4.07114V3C11.0008 2.44772 11.4485 2 12.0008 2Z" fill="#0000CC"/>
<path d="M12.0005 22C10.52 22 9.22726 21.1956 8.53564 20H15.4654C14.7738 21.1956 13.4811 22 12.0005 22Z" fill="#0000CC"/>
</svg>
