<svg width="24" height="24" viewBox="0 0 24 24" fill="none" xmlns="http://www.w3.org/2000/svg">
<path d="M5.70711 2.79289C5.31658 2.40237 4.68342 2.40237 4.29289 2.79289L2.29289 4.79289C1.90237 5.18342 1.90237 5.81658 2.29289 6.20711C2.68342 6.59763 3.31658 6.59763 3.70711 6.20711L5.70711 4.20711C6.09763 3.81658 6.09763 3.18342 5.70711 2.79289Z" fill="#0000CC"/>
<path d="M19.7071 2.79289C19.3166 2.40237 18.6834 2.40237 18.2929 2.79289C17.9024 3.18342 17.9024 3.81658 18.2929 4.20711L20.2929 6.20711C20.6834 6.59763 21.3166 6.59763 21.7071 6.20711C22.0976 5.81658 22.0976 5.18342 21.7071 4.79289L19.7071 2.79289Z" fill="#0000CC"/>
<path fill-rule="evenodd" clip-rule="evenodd" d="M12 3.5C7.02944 3.5 3 7.52944 3 12.5C3 17.4706 7.02944 21.5 12 21.5C16.9706 21.5 21 17.4706 21 12.5C21 7.52944 16.9706 3.5 12 3.5ZM9.70711 8.79289C9.31658 8.40237 8.68342 8.40237 8.29289 8.79289C7.90237 9.18342 7.90237 9.81658 8.29289 10.2071L10.5858 12.5L8.29289 14.7929C7.90237 15.1834 7.90237 15.8166 8.29289 16.2071C8.68342 16.5976 9.31658 16.5976 9.70711 16.2071L12 13.9142L14.2929 16.2071C14.6834 16.5976 15.3166 16.5976 15.7071 16.2071C16.0976 15.8166 16.0976 15.1834 15.7071 14.7929L13.4142 12.5L15.7071 10.2071C16.0976 9.81658 16.0976 9.18342 15.7071 8.79289C15.3166 8.40237 14.6834 8.40237 14.2929 8.79289L12 11.0858L9.70711 8.79289Z" fill="#0000CC"/>
</svg>
