<svg width="24" height="24" viewBox="0 0 24 24" fill="none" xmlns="http://www.w3.org/2000/svg">
<path fill-rule="evenodd" clip-rule="evenodd" d="M3 21C3 21.5523 3.44772 22 4 22H20C20.5523 22 21 21.5523 21 21C21 20.4477 20.5523 20 20 20H19.9429C19.662 17.55 18.3581 15.3126 16.3263 13.8613L13.7205 12L16.3263 10.1387C18.3581 8.68738 19.662 6.45003 19.9429 4H20C20.5523 4 21 3.55228 21 3C21 2.44772 20.5523 2 20 2H4C3.44772 2 3 2.44772 3 3C3 3.55228 3.44772 4 4 4H4.0571C4.33798 6.45003 5.64187 8.68738 7.6737 10.1387L10.2795 12L7.6737 13.8613C5.64187 15.3126 4.33798 17.55 4.0571 20H4C3.44772 20 3 20.4477 3 21ZM6.07415 20C6.34303 18.1982 7.33081 16.564 8.83617 15.4888L12 13.2289L15.1638 15.4888C16.6692 16.564 17.657 18.1982 17.9258 20H6.07415Z" fill="#0000CC"/>
</svg>
