<svg width="24" height="24" viewBox="0 0 24 24" fill="none" xmlns="http://www.w3.org/2000/svg">
<path opacity="0.3" d="M4 12C4 7.58172 7.58172 4 12 4C16.4183 4 20 7.58172 20 12V13.5C20 14.3284 19.3284 15 18.5 15C18.3247 15 18.1564 14.9699 18 14.9146V16.9646C18.1633 16.9879 18.3302 17 18.5 17C20.433 17 22 15.433 22 13.5V12C22 6.47715 17.5228 2 12 2C6.47715 2 2 6.47715 2 12C2 17.5228 6.47715 22 12 22C14.2505 22 16.33 21.2554 18.0016 19.9995C18.4431 19.6677 18.5321 19.0409 18.2004 18.5993C17.8686 18.1578 17.2417 18.0688 16.8002 18.4005C15.4631 19.4051 13.8025 20 12 20C7.58172 20 4 16.4183 4 12Z" fill="#0000CC"/>
<path fill-rule="evenodd" clip-rule="evenodd" d="M18 16.9646C17.0049 16.8222 16.1448 16.2613 15.6038 15.4659C14.6942 16.4115 13.4158 17 12 17C9.23858 17 7 14.7614 7 12C7 9.23858 9.23858 7 12 7C13.1256 7 14.1643 7.37194 15 7.99963C15.0002 7.44752 15.4478 7 16 7C16.5523 7 17 7.44772 17 8V13.5C17 14.1531 17.4174 14.7087 18 14.9146V16.9646ZM12 9C13.6569 9 15 10.3431 15 12C15 13.6569 13.6569 15 12 15C10.3431 15 9 13.6569 9 12C9 10.3431 10.3431 9 12 9Z" fill="#0000CC"/>
</svg>
