<svg width="24" height="24" viewBox="0 0 24 24" fill="none" xmlns="http://www.w3.org/2000/svg">
<path opacity="0.3" d="M22 12V8.16144C22 7.6343 22 7.17954 21.9694 6.80497C21.9371 6.40963 21.8658 6.01641 21.673 5.63803C21.3854 5.07355 20.9265 4.6146 20.362 4.32698C19.9836 4.13419 19.5904 4.06287 19.195 4.03057C18.8205 3.99997 18.3657 3.99998 17.8385 4H6.16146C5.63432 3.99998 5.17954 3.99997 4.80497 4.03057C4.40963 4.06287 4.01641 4.13419 3.63803 4.32698C3.07354 4.6146 2.6146 5.07354 2.32698 5.63803C2.13419 6.01641 2.06287 6.40963 2.03057 6.80497C1.99997 7.17955 1.99998 7.63431 2 8.16146V12C10.1497 12 6.94711 11.9998 6.8883 11.9999C7.07821 11.9994 7.31735 11.9988 7.55268 12.0553C7.75675 12.1043 7.95184 12.1851 8.13078 12.2947C8.33713 12.4212 8.50577 12.5907 8.6397 12.7254L8.67574 12.7615L9.26985 13.3556C9.64941 13.7352 9.72849 13.8052 9.80593 13.8526C9.8954 13.9075 9.99295 13.9479 10.095 13.9724C10.1833 13.9936 10.2887 14 10.8255 14H13.1745C13.7113 14 13.8167 13.9936 13.905 13.9724C14.0071 13.9479 14.1046 13.9075 14.1941 13.8526C14.2715 13.8052 14.3506 13.7352 14.7302 13.3556L15.3243 12.7615L15.3603 12.7254C15.4942 12.5907 15.6629 12.4212 15.8692 12.2947C16.0482 12.1851 16.2432 12.1043 16.4473 12.0553C16.6827 11.9988 16.9218 11.9994 17.1117 11.9999C17.0529 11.9998 13.8503 12 22 12Z" fill="#0000CC"/>
<path d="M2 12.0001V15.8387C1.99998 16.3659 1.99997 16.8207 2.03057 17.1952C2.06287 17.5906 2.13419 17.9838 2.32698 18.3622C2.6146 18.9266 3.07354 19.3856 3.63803 19.6732C4.01641 19.866 4.40963 19.9373 4.80497 19.9696C5.17954 20.0002 5.6343 20.0002 6.16145 20.0002H17.8385C18.3657 20.0002 18.8205 20.0002 19.195 19.9696C19.5904 19.9373 19.9836 19.866 20.362 19.6732C20.9265 19.3856 21.3854 18.9266 21.673 18.3622C21.8658 17.9838 21.9371 17.5906 21.9694 17.1952C22 16.8207 22 16.3659 22 15.8388V12.0306C19.6815 12.0162 17.2001 12.0007 17.1137 12.0001L17.1117 12.0001C16.9218 11.9996 16.6827 11.999 16.4473 12.0555C16.2433 12.1044 16.0482 12.1853 15.8692 12.2949C15.6629 12.4214 15.4942 12.5909 15.3603 12.7256L15.3243 12.7617L14.7302 13.3558C14.3506 13.7354 14.2715 13.8054 14.1941 13.8528C14.1046 13.9077 14.0071 13.9481 13.905 13.9726C13.8167 13.9938 13.7113 14.0002 13.1745 14.0002H10.8255C10.2887 14.0002 10.1833 13.9938 10.095 13.9726C9.99295 13.9481 9.8954 13.9077 9.80593 13.8528C9.72849 13.8054 9.64941 13.7354 9.26985 13.3558L8.67574 12.7617L8.63972 12.7256C8.50578 12.5909 8.33714 12.4214 8.13079 12.2949C7.95184 12.1853 7.75675 12.1044 7.55268 12.0555C7.31816 11.9991 7.07689 11.9998 6.83726 12.0002H4C3.4412 12.0002 2.78049 12.0001 2 12.0001Z" fill="#0000CC"/>
</svg>
