<svg width="24" height="24" viewBox="0 0 24 24" fill="none" xmlns="http://www.w3.org/2000/svg">
<path opacity="0.3" d="M21 13V7.16144C21 6.6343 21 6.17954 20.9694 5.80497C20.9371 5.40963 20.8658 5.01641 20.673 4.63803C20.3854 4.07354 19.9265 3.6146 19.362 3.32698C18.9836 3.13419 18.5904 3.06287 18.195 3.03057C17.8205 2.99997 17.3657 2.99998 16.8385 3H7.16146C6.63432 2.99998 6.17954 2.99997 5.80497 3.03057C5.40963 3.06287 5.01641 3.13419 4.63803 3.32698C4.07354 3.6146 3.6146 4.07354 3.32698 4.63803C3.13419 5.01641 3.06287 5.40963 3.03057 5.80497C2.99997 6.17954 2.99998 6.6343 3 7.16144V13C7.90771 13 6.82573 12.9999 6.75783 13C7.16472 12.9996 7.52346 12.9992 7.87191 13.0829C8.17802 13.1564 8.47065 13.2776 8.73907 13.4421C9.04461 13.6293 9.29805 13.8832 9.58549 14.1712L9.76985 14.3556C10.1494 14.7352 10.2285 14.8052 10.3059 14.8526C10.3954 14.9075 10.4929 14.9479 10.595 14.9724C10.6833 14.9936 10.7887 15 11.3255 15H12.6745C13.2113 15 13.3167 14.9936 13.405 14.9724C13.5071 14.9479 13.6046 14.9075 13.6941 14.8526C13.7715 14.8052 13.8506 14.7352 14.2302 14.3556L14.4145 14.1712C14.702 13.8832 14.9554 13.6293 15.2609 13.4421C15.5293 13.2776 15.822 13.1564 16.1281 13.0829C16.4765 12.9992 16.8353 12.9996 17.2422 13C17.1743 12.9999 16.0923 13 21 13Z" fill="#0000CC"/>
<path d="M3 13V16.8385C2.99998 17.3657 2.99997 17.8205 3.03057 18.195C3.06287 18.5904 3.13419 18.9836 3.32698 19.362C3.6146 19.9265 4.07354 20.3854 4.63803 20.673C5.01641 20.8658 5.40963 20.9371 5.80497 20.9694C6.17954 21 6.6343 21 7.16144 21H16.8386C17.3657 21 17.8205 21 18.195 20.9694C18.5904 20.9371 18.9836 20.8658 19.362 20.673C19.9265 20.3854 20.3854 19.9265 20.673 19.362C20.8658 18.9836 20.9371 18.5904 20.9694 18.195C21 17.8205 21 17.3657 21 16.8386V13H17.082C16.7399 13.001 16.4301 13.0104 16.1281 13.0829C15.822 13.1564 15.5294 13.2776 15.2609 13.4421C14.9554 13.6293 14.702 13.8832 14.4145 14.1712L14.2302 14.3556C13.8506 14.7352 13.7715 14.8052 13.6941 14.8526C13.6046 14.9075 13.5071 14.9479 13.405 14.9724C13.3167 14.9936 13.2113 15 12.6745 15H11.3255C10.7887 15 10.6833 14.9936 10.595 14.9724C10.4929 14.9479 10.3954 14.9075 10.3059 14.8526C10.2285 14.8052 10.1494 14.7352 9.76985 14.3556L9.5855 14.1712C9.29805 13.8832 9.04461 13.6293 8.73907 13.4421C8.47066 13.2776 8.17802 13.1564 7.87191 13.0829C7.56989 13.0104 7.26013 13.001 6.91799 13H3Z" fill="#0000CC"/>
</svg>
