<svg width="24" height="24" viewBox="0 0 24 24" fill="none" xmlns="http://www.w3.org/2000/svg">
<path opacity="0.3" d="M21 13V7.16144C21 6.6343 21 6.17954 20.9694 5.80497C20.9371 5.40963 20.8658 5.01641 20.673 4.63803C20.3854 4.07354 19.9265 3.6146 19.362 3.32698C18.9836 3.13419 18.5904 3.06287 18.195 3.03057C17.8205 2.99997 17.3657 2.99998 16.8385 3H7.16146C6.63432 2.99998 6.17954 2.99997 5.80497 3.03057C5.40963 3.06287 5.01641 3.13419 4.63803 3.32698C4.07354 3.6146 3.6146 4.07354 3.32698 4.63803C3.13419 5.01641 3.06287 5.40963 3.03057 5.80497C2.99997 6.17954 2.99998 6.6343 3 7.16144V13C7.90771 13 6.82573 12.9999 6.75783 13C7.16472 12.9996 7.52346 12.9992 7.87191 13.0829C8.17802 13.1564 8.47065 13.2776 8.73907 13.4421C9.04461 13.6293 9.29805 13.8832 9.58549 14.1712L9.76985 14.3556C10.1494 14.7352 10.2285 14.8052 10.3059 14.8526C10.3954 14.9075 10.4929 14.9479 10.595 14.9724C10.6833 14.9936 10.7887 15 11.3255 15H12.6745C13.2113 15 13.3167 14.9936 13.405 14.9724C13.5071 14.9479 13.6046 14.9075 13.6941 14.8526C13.7715 14.8052 13.8506 14.7352 14.2302 14.3556L14.4145 14.1712C14.702 13.8832 14.9554 13.6293 15.2609 13.4421C15.5293 13.2776 15.822 13.1564 16.1281 13.0829C16.4765 12.9992 16.8353 12.9996 17.2422 13C17.1743 12.9999 16.0923 13 21 13Z" fill="#0000CC"/>
<path d="M3 16.8385V13H6.91799C7.26013 13.001 7.56989 13.0104 7.87191 13.0829C8.17802 13.1564 8.47066 13.2776 8.73907 13.4421C9.04461 13.6293 9.29805 13.8832 9.5855 14.1712L9.76985 14.3556C10.1494 14.7352 10.2285 14.8052 10.3059 14.8526C10.3954 14.9075 10.493 14.9479 10.595 14.9724C10.6833 14.9936 10.7887 15 11.3255 15H12.6745C13.2113 15 13.3167 14.9936 13.405 14.9724C13.5071 14.9479 13.6046 14.9075 13.6941 14.8526C13.7715 14.8052 13.8506 14.7352 14.2302 14.3556L14.4145 14.1712C14.702 13.8832 14.9554 13.6293 15.2609 13.4421C15.5294 13.2776 15.822 13.1564 16.1281 13.0829C16.4301 13.0104 16.7399 13.001 17.082 13H21V16.8386C21 17.3657 21 17.8205 20.9694 18.195C20.9371 18.5904 20.8658 18.9836 20.673 19.362C20.3854 19.9265 19.9265 20.3854 19.362 20.673C18.9836 20.8658 18.5904 20.9371 18.195 20.9694C17.8205 21 17.3657 21 16.8386 21H7.16144C6.6343 21 6.17954 21 5.80498 20.9694C5.40963 20.9371 5.01641 20.8658 4.63803 20.673C4.07354 20.3854 3.6146 19.9265 3.32698 19.362C3.13419 18.9836 3.06287 18.5904 3.03057 18.195C2.99997 17.8205 2.99998 17.3657 3 16.8385Z" fill="#0000CC"/>
<path d="M13.7071 6.29289C13.3166 5.90237 12.6834 5.90237 12.2929 6.29289C11.9024 6.68342 11.9024 7.31658 12.2929 7.70711L12.5858 8H9C8.44772 8 8 8.44772 8 9C8 9.55228 8.44772 10 9 10H12.5858L12.2929 10.2929C11.9024 10.6834 11.9024 11.3166 12.2929 11.7071C12.6834 12.0976 13.3166 12.0976 13.7071 11.7071L15.7071 9.70711C16.0976 9.31658 16.0976 8.68342 15.7071 8.29289L13.7071 6.29289Z" fill="#0000CC"/>
</svg>
