<svg width="24" height="24" viewBox="0 0 24 24" fill="none" xmlns="http://www.w3.org/2000/svg">
<path opacity="0.3" d="M19.5202 6.27448L21.6467 11.0002H17.0812C16.7393 11.0011 16.4297 11.0106 16.1279 11.083C15.8218 11.1565 15.5291 11.2777 15.2607 11.4422C14.9552 11.6295 14.7017 11.8834 14.4143 12.1714L14.23 12.3558C13.8504 12.7353 13.7713 12.8053 13.6939 12.8528C13.6044 12.9076 13.5069 12.948 13.4048 12.9725C13.3165 12.9937 13.2111 13.0002 12.6743 13.0002H11.3253C10.7885 13.0002 10.6831 12.9937 10.5948 12.9725C10.4927 12.948 10.3952 12.9076 10.3057 12.8528C10.2283 12.8053 10.1492 12.7353 9.76965 12.3558L9.58532 12.1714C9.29786 11.8834 9.04441 11.6295 8.73887 11.4422C8.47046 11.2777 8.17782 11.1565 7.87171 11.083C7.56988 11.0106 7.26032 11.0011 6.91843 11.0002H2.35352L4.47999 6.27447C4.87636 5.392 5.17505 4.727 5.66053 4.22355C6.08739 3.7809 6.61057 3.44262 7.1894 3.23501C7.84773 2.99888 8.57673 2.99939 9.54414 3.00007H14.4561C15.4235 2.99939 16.1525 2.99888 16.8108 3.23501C17.3896 3.44262 17.9128 3.7809 18.3397 4.22355C18.8252 4.727 19.1238 5.392 19.5202 6.27448Z" fill="#0000CC"/>
<path d="M2.35341 11L2.08808 11.5896C2.03002 11.7186 2 11.8585 2 12V15.8385C1.99998 16.3657 1.99997 16.8205 2.03057 17.195C2.06287 17.5904 2.13419 17.9836 2.32698 18.362C2.6146 18.9265 3.07355 19.3854 3.63803 19.673C4.01641 19.8658 4.40963 19.9371 4.80497 19.9694C5.17954 20 5.6343 20 6.16144 20H17.8386C18.3657 20 18.8205 20 19.195 19.9694C19.5904 19.9371 19.9836 19.8658 20.362 19.673C20.9265 19.3854 21.3854 18.9265 21.673 18.362C21.8658 17.9836 21.9371 17.5904 21.9694 17.195C22 16.8205 22 16.3657 22 15.8386V12C22 11.8585 21.97 11.7186 21.9119 11.5896L21.6466 11H17.0788C16.7379 11.001 16.4292 11.0106 16.1281 11.0829C15.822 11.1564 15.5293 11.2776 15.2609 11.4421C14.9554 11.6293 14.7019 11.8832 14.4145 12.1712L14.2302 12.3556C13.8506 12.7352 13.7715 12.8052 13.6941 12.8526C13.6046 12.9075 13.5071 12.9479 13.405 12.9724C13.3167 12.9936 13.2113 13 12.6745 13H11.3255C10.7887 13 10.6833 12.9936 10.595 12.9724C10.493 12.9479 10.3954 12.9075 10.3059 12.8526C10.2285 12.8052 10.1494 12.7352 9.76985 12.3556L9.58552 12.1712C9.29807 11.8832 9.04462 11.6293 8.73907 11.4421C8.47066 11.2776 8.17802 11.1564 7.87191 11.0829C7.57085 11.0106 7.26209 11.001 6.92124 11H2.35341Z" fill="#0000CC"/>
</svg>
