<svg width="24" height="24" viewBox="0 0 24 24" fill="none" xmlns="http://www.w3.org/2000/svg">
<path opacity="0.3" d="M18.2518 5.0442C18.8139 5.09012 19.3306 5.18868 19.816 5.43598C20.5686 5.81947 21.1805 6.43139 21.564 7.18404C21.8113 7.66938 21.9099 8.18608 21.9558 8.74818C22 9.28937 22 9.95372 22 10.7587V18C22 18.5523 21.5523 19 21 19L11 19C11.5523 19 12 18.5523 12 18V10C12 7.23858 9.76142 5 7 5H16.2413C17.0463 4.99999 17.7106 4.99998 18.2518 5.0442Z" fill="#0000CC"/>
<path d="M13 3C13 2.44772 13.4477 2 14 2H17C17.5523 2 18 2.44772 18 3C18 3.55228 17.5523 4 17 4H15V12C15 12.5523 14.5523 13 14 13C13.4477 13 13 12.5523 13 12V3Z" fill="#0000CC"/>
<path fill-rule="evenodd" clip-rule="evenodd" d="M15 21C15 21.5523 14.5523 22 14 22H10C9.44772 22 9 21.5523 9 21V19H3C2.44772 19 2 18.5523 2 18V10C2 7.23858 4.23858 5 7 5C9.76142 5 12 7.23858 12 10V18C12 18.5523 11.5523 19 11 19V20H13V19H15V21ZM8 11C8 11.5523 7.55228 12 7 12C6.44772 12 6 11.5523 6 11C6 10.4477 6.44772 10 7 10C7.55228 10 8 10.4477 8 11Z" fill="#0000CC"/>
</svg>
