<svg width="24" height="24" viewBox="0 0 24 24" fill="none" xmlns="http://www.w3.org/2000/svg">
<g opacity="0.3">
<path d="M6.16146 4H17.8385C18.3657 3.99998 18.8205 3.99997 19.195 4.03057C19.5904 4.06287 19.9836 4.13419 20.362 4.32698C20.9265 4.6146 21.3854 5.07355 21.673 5.63803C21.7688 5.82599 21.8346 6.0176 21.8805 6.21132L14.9955 10.8013C13.6471 11.7003 13.1776 11.9955 12.6992 12.1101C12.2397 12.2202 11.7606 12.2202 11.301 12.1101C10.8226 11.9955 10.3531 11.7003 9.00473 10.8013L2.11952 6.2112C2.16545 6.01752 2.23124 5.82595 2.32698 5.63803C2.6146 5.07355 3.07355 4.6146 3.63803 4.32698C4.01641 4.13419 4.40963 4.06287 4.80498 4.03057C5.17953 3.99997 5.63434 3.99998 6.16146 4Z" fill="#0000CC"/>
<path d="M15.9515 12.5678L22 8.53536L22 15C22 13.3431 20.6569 12 19 12C17.3431 12 16 13.3431 16 15V16.1708C15.5905 16.3152 15.2062 16.5512 14.8787 16.8787C14.0346 17.7228 13.7987 18.9447 14.1708 20H6.16136C5.63428 20 5.17951 20 4.80498 19.9694C4.40963 19.9371 4.01641 19.8658 3.63803 19.673C3.07355 19.3854 2.6146 18.9265 2.32698 18.362C2.13419 17.9836 2.06287 17.5904 2.03057 17.195C1.99997 16.8205 1.99998 16.3657 2 15.8386V8.53522L8.04872 12.5678C9.18245 13.3243 9.9652 13.8466 10.8349 14.055C11.6009 14.2386 12.3993 14.2386 13.1653 14.055C14.035 13.8466 14.8178 13.3243 15.9515 12.5678Z" fill="#0000CC"/>
</g>
<path fill-rule="evenodd" clip-rule="evenodd" d="M19.0023 14C19.5546 14 20.0023 14.4477 20.0023 15V18.5835L20.2929 18.2929C20.6834 17.9024 21.3166 17.9024 21.7071 18.2929C22.0976 18.6834 22.0976 19.3166 21.7071 19.7071L19.7094 21.7048C19.3192 22.095 18.6867 22.0953 18.296 21.7056L16.2937 19.7076C15.9027 19.3176 15.902 18.6844 16.2921 18.2934C16.6822 17.9025 17.3154 17.9018 17.7063 18.2919L18.0023 18.5872V15C18.0023 14.4477 18.45 14 19.0023 14Z" fill="#0000CC"/>
</svg>
