<svg width="24" height="24" viewBox="0 0 24 24" fill="none" xmlns="http://www.w3.org/2000/svg">
<path opacity="0.3" d="M22 9.96216C21.6888 10.2061 21.3596 10.4362 21.0153 10.6513C18.6611 12.1227 15.4711 13 12 13C8.52886 13 5.33887 12.1227 2.98472 10.6513C2.64042 10.4362 2.31117 10.2061 2 9.96216V15.8386C1.99998 16.3657 1.99997 16.8205 2.03057 17.1951C2.06287 17.5904 2.13419 17.9836 2.32698 18.362C2.6146 18.9265 3.07354 19.3854 3.63803 19.6731C4.01641 19.8659 4.40963 19.9372 4.80497 19.9695C5.17952 20.0001 5.63425 20.0001 6.16136 20H17.8385C18.3656 20.0001 18.8205 20.0001 19.195 19.9695C19.5904 19.9372 19.9836 19.8659 20.362 19.6731C20.9265 19.3854 21.3854 18.9265 21.673 18.362C21.8658 17.9836 21.9371 17.5904 21.9694 17.1951C22 16.8205 22 16.3657 22 15.8386V9.96216Z" fill="#0000CC"/>
<path d="M21.9904 7.186C21.9859 7.05107 21.9792 6.92397 21.9695 6.80497C21.9372 6.40963 21.8659 6.01641 21.6731 5.63803C21.3855 5.07355 20.9265 4.6146 20.362 4.32698C19.9837 4.13419 19.5904 4.06287 19.1951 4.03057C18.8205 3.99997 18.3658 3.99998 17.8387 4H6.16153C5.6344 3.99998 5.17961 3.99997 4.80505 4.03057C4.4097 4.06287 4.01648 4.13419 3.6381 4.32698C3.07362 4.6146 2.61468 5.07354 2.32706 5.63803C2.13426 6.01641 2.06295 6.40963 2.03064 6.80497C2.02092 6.92397 2.01429 7.05107 2.00977 7.18601C2.50835 7.82144 3.18877 8.42029 4.04479 8.9553C6.03379 10.1984 8.8438 11 12.0001 11C15.1563 11 17.9664 10.1984 19.9554 8.9553C20.8114 8.42029 21.4918 7.82144 21.9904 7.186Z" fill="#0000CC"/>
</svg>
