<svg width="24" height="24" viewBox="0 0 24 24" fill="none" xmlns="http://www.w3.org/2000/svg">
<g opacity="0.3">
<path d="M6.16146 4H17.8385C18.3657 3.99998 18.8205 3.99997 19.195 4.03057C19.5904 4.06287 19.9836 4.13419 20.362 4.32698C20.9265 4.6146 21.3854 5.07355 21.673 5.63803C21.7688 5.82599 21.8346 6.0176 21.8805 6.21132L14.9955 10.8013C13.6471 11.7003 13.1776 11.9955 12.6992 12.1101C12.2397 12.2202 11.7606 12.2202 11.301 12.1101C10.8226 11.9955 10.3531 11.7003 9.00473 10.8013L2.11952 6.2112C2.16545 6.01752 2.23124 5.82595 2.32698 5.63803C2.6146 5.07355 3.07355 4.6146 3.63803 4.32698C4.01641 4.13419 4.40963 4.06287 4.80498 4.03057C5.17953 3.99997 5.63434 3.99998 6.16146 4Z" fill="#0000CC"/>
<path d="M15.9515 12.5678L22 8.53536V11.432C20.726 10.809 19.1445 11.0269 18.0856 12.0858L13.7533 16.4181C13.0947 17.0768 12.5984 17.8797 12.3039 18.7634L11.9187 19.9189C11.9097 19.9459 11.9011 19.973 11.8931 20H6.16136C5.63428 20 5.17951 20 4.80498 19.9694C4.40963 19.9371 4.01641 19.8658 3.63803 19.673C3.07355 19.3854 2.6146 18.9265 2.32698 18.362C2.13419 17.9836 2.06287 17.5904 2.03057 17.195C1.99997 16.8205 1.99998 16.3657 2 15.8386V8.53522L8.04872 12.5678C9.18245 13.3243 9.9652 13.8466 10.8349 14.055C11.6009 14.2386 12.3993 14.2386 13.1653 14.055C14.035 13.8466 14.8178 13.3243 15.9515 12.5678Z" fill="#0000CC"/>
</g>
<path d="M19.6124 13.4125C20.1586 12.8625 21.0442 12.8625 21.5904 13.4125C22.1365 13.9625 22.1365 14.8542 21.5904 15.4043L17.7271 19.2945C17.2358 19.7892 16.9901 20.0366 16.7102 20.2329C16.4617 20.4072 16.1936 20.5513 15.9115 20.6622C15.5936 20.7871 15.2528 20.8549 14.5712 20.9906C14.2302 21.0584 13.9335 20.7488 14.013 20.4081L14.0268 20.3492C14.1758 19.7111 14.2503 19.3919 14.3742 19.0944C14.4843 18.8303 14.6231 18.5793 14.7881 18.346C14.9741 18.0832 15.2042 17.8514 15.6646 17.3878L19.6124 13.4125Z" fill="#0000CC"/>
</svg>
