<svg width="24" height="24" viewBox="0 0 24 24" fill="none" xmlns="http://www.w3.org/2000/svg">
<g opacity="0.3">
<path d="M6.16146 4H17.8385C18.3657 3.99998 18.8205 3.99997 19.195 4.03057C19.5904 4.06287 19.9836 4.13419 20.362 4.32698C20.9265 4.6146 21.3854 5.07355 21.673 5.63803C21.7688 5.82599 21.8346 6.0176 21.8805 6.21132L14.9955 10.8013C13.6471 11.7003 13.1776 11.9955 12.6992 12.1101C12.2397 12.2202 11.7606 12.2202 11.301 12.1101C10.8226 11.9955 10.3531 11.7003 9.00473 10.8013L2.11952 6.2112C2.16545 6.01752 2.23124 5.82595 2.32698 5.63803C2.6146 5.07355 3.07355 4.6146 3.63803 4.32698C4.01641 4.13419 4.40963 4.06287 4.80498 4.03057C5.17953 3.99997 5.63434 3.99998 6.16146 4Z" fill="#0000CC"/>
<path d="M15.9515 12.5678L22 8.53536V14.1706C21.8282 14.1099 21.6489 14.0644 21.4643 14.0357C21.2411 12.5993 19.9989 11.5 18.5 11.5C17.0011 11.5 15.7589 12.5993 15.5357 14.0357C14.0993 14.2589 13 15.5011 13 17C13 18.4989 14.0993 19.7411 15.5357 19.9643L15.5415 20L6.16136 20C5.63428 20 5.17951 20 4.80498 19.9694C4.40963 19.9371 4.01641 19.8658 3.63803 19.673C3.07355 19.3854 2.6146 18.9265 2.32698 18.362C2.13419 17.9836 2.06287 17.5904 2.03057 17.195C1.99997 16.8205 1.99998 16.3657 2 15.8386V8.53522L8.04872 12.5678C9.18245 13.3243 9.9652 13.8466 10.8349 14.055C11.6009 14.2386 12.3993 14.2386 13.1653 14.055C14.035 13.8466 14.8178 13.3243 15.9515 12.5678Z" fill="#0000CC"/>
</g>
<path d="M19.5 14.5C19.5 13.9477 19.0523 13.5 18.5 13.5C17.9477 13.5 17.5 13.9477 17.5 14.5V16H16C15.4477 16 15 16.4477 15 17C15 17.5523 15.4477 18 16 18H17.5V19.5C17.5 20.0523 17.9477 20.5 18.5 20.5C19.0523 20.5 19.5 20.0523 19.5 19.5V18H21C21.5523 18 22 17.5523 22 17C22 16.4477 21.5523 16 21 16H19.5V14.5Z" fill="#0000CC"/>
</svg>
