<svg width="24" height="24" viewBox="0 0 24 24" fill="none" xmlns="http://www.w3.org/2000/svg">
<g opacity="0.3">
<path d="M6.16146 4H17.8385C18.3657 3.99998 18.8205 3.99997 19.195 4.03057C19.5904 4.06287 19.9836 4.13419 20.362 4.32698C20.9265 4.6146 21.3854 5.07355 21.673 5.63803C21.7688 5.82599 21.8346 6.0176 21.8805 6.21132L14.9955 10.8013C13.6471 11.7003 13.1776 11.9955 12.6992 12.1101C12.2397 12.2202 11.7606 12.2202 11.301 12.1101C10.8226 11.9955 10.3531 11.7003 9.00473 10.8013L2.11952 6.2112C2.16545 6.01752 2.23124 5.82595 2.32698 5.63803C2.6146 5.07355 3.07355 4.6146 3.63803 4.32698C4.01641 4.13419 4.40963 4.06287 4.80498 4.03057C5.17953 3.99997 5.63434 3.99998 6.16146 4Z" fill="#0000CC"/>
<path d="M16.8018 12.0009L22 8.53536V12.4154C20.8427 11.9033 19.6008 11.8904 18.4974 12.2504C17.9586 12.0739 17.3843 11.9848 16.8018 12.0009Z" fill="#0000CC"/>
<path d="M12.9232 14.1068C12.2321 14.2366 11.5205 14.2193 10.8349 14.055C9.9652 13.8466 9.18245 13.3243 8.04872 12.5678L2 8.53522V15.8385C1.99998 16.3657 1.99997 16.8205 2.03057 17.195C2.06287 17.5904 2.13419 17.9836 2.32698 18.362C2.6146 18.9265 3.07355 19.3854 3.63803 19.673C4.01641 19.8658 4.40963 19.9371 4.80498 19.9694C5.17951 20 5.63421 20 6.16129 20H13.0513C11.6536 18.2134 11.6865 15.8401 12.9232 14.1068Z" fill="#0000CC"/>
</g>
<path d="M21.8615 14.6526C20.7964 13.8095 19.4945 13.8402 18.4968 14.433C17.4972 13.8395 16.1835 13.7979 15.1228 14.6611C13.8293 15.7136 13.6197 17.5349 14.6675 18.8191C15.0734 19.3166 15.9038 20.0752 16.5665 20.6598C16.9112 20.9638 17.2333 21.2405 17.4691 21.4409C17.5871 21.5413 17.6837 21.6228 17.7511 21.6794L17.8293 21.745L17.8577 21.7686C18.2283 22.0771 18.767 22.0766 19.1377 21.7682L19.1655 21.745L19.2437 21.6794C19.3111 21.6228 19.4077 21.5413 19.5257 21.4409C19.7615 21.2405 20.0836 20.9638 20.4283 20.6598C21.091 20.0752 21.9214 19.3166 22.3273 18.8191C23.3657 17.5465 23.1946 15.7079 21.8615 14.6526Z" fill="#0000CC"/>
</svg>
