<svg width="24" height="24" viewBox="0 0 24 24" fill="none" xmlns="http://www.w3.org/2000/svg">
<path opacity="0.3" d="M14.2178 15.7232L22 10.5352V16.8386C22 17.3658 22 17.8205 21.9694 18.1951C21.9371 18.5904 21.8658 18.9837 21.673 19.362C21.3854 19.9265 20.9265 20.3855 20.362 20.6731C19.9836 20.8659 19.5904 20.9372 19.195 20.9695C18.8205 21.0001 18.3657 21.0001 17.8386 21.0001H6.16144C5.6343 21.0001 5.17954 21.0001 4.80498 20.9695C4.40963 20.9372 4.01641 20.8659 3.63803 20.6731C3.07355 20.3855 2.6146 19.9265 2.32698 19.362C2.13419 18.9837 2.06287 18.5904 2.03057 18.1951C1.99997 17.8205 1.99998 17.3658 2 16.8387V10.5353L9.78139 15.7232C10.3105 16.077 10.7753 16.3879 11.3005 16.5137C11.76 16.6238 12.2391 16.6238 12.6987 16.5137C13.2238 16.3879 13.6887 16.077 14.2178 15.7232Z" fill="#0000CC"/>
<path fill-rule="evenodd" clip-rule="evenodd" d="M11.3326 2.43697C11.7719 2.33677 12.228 2.33677 12.6672 2.43697C13.1688 2.55139 13.6169 2.83369 14.1267 3.15476L20.1279 6.92363C20.5813 7.20762 20.9805 7.45767 21.2808 7.80919C21.4261 7.97921 21.5515 8.1645 21.6551 8.36143L13.2198 13.9846C12.513 14.4559 12.3642 14.5373 12.2325 14.5688C12.0793 14.6055 11.9196 14.6055 11.7665 14.5688C11.6348 14.5373 11.486 14.4559 10.7792 13.9846L2.34473 8.36151C2.44831 8.16455 2.57374 7.97924 2.71903 7.80919C3.01937 7.45764 3.41854 7.20763 3.87199 6.92362L9.87319 3.15476C10.3829 2.83369 10.8311 2.55139 11.3326 2.43697ZM8.49992 9.5C8.49992 8.94772 8.94764 8.5 9.49992 8.5H14.4999C15.0522 8.5 15.4999 8.94772 15.4999 9.5C15.4999 10.0523 15.0522 10.5 14.4999 10.5H9.49992C8.94764 10.5 8.49992 10.0523 8.49992 9.5Z" fill="#0000CC"/>
</svg>
