<svg width="24" height="24" viewBox="0 0 24 24" fill="none" xmlns="http://www.w3.org/2000/svg">
<g opacity="0.3">
<path d="M6.16146 4H17.8385C18.3657 3.99998 18.8205 3.99997 19.195 4.03057C19.5904 4.06287 19.9836 4.13419 20.362 4.32698C20.9265 4.6146 21.3854 5.07355 21.673 5.63803C21.7688 5.82599 21.8346 6.0176 21.8805 6.21132L14.9955 10.8013C13.6471 11.7003 13.1776 11.9955 12.6992 12.1101C12.2397 12.2202 11.7606 12.2202 11.301 12.1101C10.8226 11.9955 10.3531 11.7003 9.00473 10.8013L2.11952 6.2112C2.16545 6.01752 2.23124 5.82595 2.32698 5.63803C2.6146 5.07355 3.07355 4.6146 3.63803 4.32698C4.01641 4.13419 4.40963 4.06287 4.80498 4.03057C5.17953 3.99997 5.63434 3.99998 6.16146 4Z" fill="#0000CC"/>
<path d="M15.9515 12.5678L22 8.53536V14.1707C21.6872 14.0602 21.3506 14 21 14H16C14.3431 14 13 15.3431 13 17C13 18.6569 14.3431 20 16 20L6.16136 20C5.63428 20 5.17951 20 4.80498 19.9694C4.40963 19.9371 4.01641 19.8658 3.63803 19.673C3.07355 19.3854 2.6146 18.9265 2.32698 18.362C2.13419 17.9836 2.06287 17.5904 2.03057 17.195C1.99997 16.8205 1.99998 16.3657 2 15.8386V8.53522L8.04872 12.5678C9.18245 13.3243 9.9652 13.8466 10.8349 14.055C11.6009 14.2386 12.3993 14.2386 13.1653 14.055C14.035 13.8466 14.8178 13.3243 15.9515 12.5678Z" fill="#0000CC"/>
</g>
<path d="M15 17C15 16.4477 15.4477 16 16 16H21C21.5523 16 22 16.4477 22 17C22 17.5523 21.5523 18 21 18H16C15.4477 18 15 17.5523 15 17Z" fill="#0000CC"/>
</svg>
