<svg width="24" height="24" viewBox="0 0 24 24" fill="none" xmlns="http://www.w3.org/2000/svg">
<path opacity="0.3" d="M22 8.31978L21.7506 8.62718L21.7488 8.62942L21.7451 8.63399L21.7333 8.64848C21.7234 8.66048 21.7097 8.67711 21.6921 8.69806C21.6571 8.73996 21.6067 8.7992 21.5419 8.87329C21.4123 9.02139 21.2244 9.22934 20.9842 9.47719C20.5048 9.97176 19.8114 10.6312 18.9523 11.2924C17.2584 12.5962 14.7996 14 12.0005 14C9.20148 14 6.74265 12.5962 5.04875 11.2924C4.18968 10.6312 3.49628 9.97176 3.01693 9.47719C2.7767 9.22934 2.58877 9.02139 2.45919 8.87329C2.39437 8.7992 2.34403 8.73996 2.30895 8.69806C2.29141 8.67711 2.27767 8.66048 2.26783 8.64848L2.256 8.63399L2.25292 8.63019L2 8.3186V15.8385C1.99998 16.3656 1.99997 16.8204 2.03057 17.195C2.06287 17.5903 2.13419 17.9835 2.32698 18.3619C2.6146 18.9264 3.07354 19.3853 3.63803 19.6729C4.01641 19.8657 4.40963 19.9371 4.80497 19.9694C5.17952 20 5.63425 19.9999 6.16136 19.9999H17.8385C18.3656 19.9999 18.8205 20 19.195 19.9694C19.5904 19.9371 19.9836 19.8657 20.362 19.6729C20.9265 19.3853 21.3854 18.9264 21.673 18.3619C21.8658 17.9835 21.9371 17.5903 21.9694 17.195C22 16.8204 22 16.3656 22 15.8385V8.31978Z" fill="#0000CC"/>
<path d="M17.8384 4H6.16134C5.6342 3.99998 5.17942 3.99997 4.80485 4.03057C4.40951 4.06287 4.01629 4.13419 3.63791 4.32698C3.09178 4.60525 2.64445 5.04387 2.35547 5.58329L3.80847 7.37332L3.81408 7.3802L3.84232 7.41423C3.86856 7.44558 3.90946 7.49376 3.96426 7.55639C4.07392 7.68173 4.23882 7.8644 4.45293 8.08531C4.88224 8.52824 5.50352 9.11879 6.2685 9.70758C7.82271 10.9038 9.84949 12 12.0004 12C14.1514 12 16.1781 10.9038 17.7323 9.70758C18.4973 9.11879 19.1186 8.52824 19.5479 8.08531C19.762 7.8644 19.9269 7.68173 20.0366 7.55639C20.0914 7.49376 20.1323 7.44558 20.1585 7.41423L20.1868 7.3802L20.1924 7.37332L20.1931 7.3724L20.1951 7.37L21.6444 5.58355C21.3555 5.04401 20.9081 4.60529 20.3619 4.32698C19.9835 4.13419 19.5903 4.06287 19.1949 4.03057C18.8203 3.99997 18.3656 3.99998 17.8384 4Z" fill="#0000CC"/>
</svg>
