<svg width="24" height="24" viewBox="0 0 24 24" fill="none" xmlns="http://www.w3.org/2000/svg">
<g opacity="0.3">
<path d="M6.16146 4H17.8385C18.3657 3.99998 18.8205 3.99997 19.195 4.03057C19.5904 4.06287 19.9836 4.13419 20.362 4.32698C20.9265 4.6146 21.3854 5.07355 21.673 5.63803C21.7688 5.82599 21.8346 6.0176 21.8805 6.21132L14.9955 10.8013C13.6471 11.7003 13.1776 11.9955 12.6992 12.1101C12.2397 12.2202 11.7606 12.2202 11.301 12.1101C10.8226 11.9955 10.3531 11.7003 9.00473 10.8013L2.11952 6.2112C2.16545 6.01752 2.23124 5.82595 2.32698 5.63803C2.6146 5.07355 3.07355 4.6146 3.63803 4.32698C4.01641 4.13419 4.40963 4.06287 4.80498 4.03057C5.17953 3.99997 5.63434 3.99998 6.16146 4Z" fill="#0000CC"/>
<path d="M15.9515 12.5678L22 8.53536V12.8027C21.1175 12.2922 20.0929 12 19 12C15.6863 12 13 14.6863 13 18C13 18.7013 13.1203 19.3744 13.3414 20H6.16136C5.63428 20 5.17951 20 4.80498 19.9694C4.40963 19.9371 4.01641 19.8658 3.63803 19.673C3.07355 19.3854 2.6146 18.9265 2.32698 18.362C2.13419 17.9836 2.06287 17.5904 2.03057 17.195C1.99997 16.8205 1.99998 16.3657 2 15.8386V8.53522L8.04872 12.5678C9.18245 13.3243 9.9652 13.8466 10.8349 14.055C11.6009 14.2386 12.3993 14.2386 13.1653 14.055C14.035 13.8466 14.8178 13.3243 15.9515 12.5678Z" fill="#0000CC"/>
</g>
<path fill-rule="evenodd" clip-rule="evenodd" d="M23 18C23 20.2091 21.2091 22 19 22C16.7909 22 15 20.2091 15 18C15 15.7909 16.7909 14 19 14C21.2091 14 23 15.7909 23 18ZM21 18C21 19.1046 20.1046 20 19 20C18.8208 20 18.6472 19.9764 18.482 19.9323L20.9323 17.482C20.9764 17.6472 21 17.8208 21 18ZM17.0677 18.5181L19.5181 16.0677C19.3528 16.0236 19.1792 16 19 16C17.8954 16 17 16.8954 17 18C17 18.1792 17.0236 18.3528 17.0677 18.5181Z" fill="#0000CC"/>
</svg>
