<svg width="24" height="24" viewBox="0 0 24 24" fill="none" xmlns="http://www.w3.org/2000/svg">
<path opacity="0.3" d="M12 6C12 9.31371 9.31371 12 6 12C4.46329 12 3.06151 11.4223 2 10.4722V14.8386C1.99999 15.3657 1.99997 15.8205 2.03057 16.195C2.06288 16.5904 2.13419 16.9836 2.32699 17.362C2.61461 17.9265 3.07355 18.3854 3.63803 18.673C4.01641 18.8658 4.40963 18.9371 4.80498 18.9694C5.17946 19 5.63422 19 6.16122 19H16.2446C16.553 19 16.6133 19.0022 16.6665 19.0097C16.7278 19.0182 16.7881 19.0325 16.8468 19.0522C16.8977 19.0693 16.9526 19.0943 17.2285 19.2323L20.5528 20.8944C20.8628 21.0494 21.2309 21.0329 21.5257 20.8507C21.8205 20.6684 22 20.3466 22 20V7.16144C22 6.6343 22 6.17954 21.9694 5.80498C21.9371 5.40963 21.8658 5.01641 21.673 4.63803C21.3854 4.07355 20.9265 3.61461 20.362 3.32699C19.9836 3.13419 19.5904 3.06288 19.195 3.03057C18.8205 2.99997 18.3657 2.99999 17.8386 3H11.1973C11.7078 3.88252 12 4.90714 12 6Z" fill="#0000CC"/>
<path d="M6 10C8.20914 10 10 8.20914 10 6C10 3.79086 8.20914 2 6 2C3.79086 2 2 3.79086 2 6C2 8.20914 3.79086 10 6 10Z" fill="#0000CC"/>
</svg>
