<svg width="24" height="24" viewBox="0 0 24 24" fill="none" xmlns="http://www.w3.org/2000/svg">
<path opacity="0.3" fill-rule="evenodd" clip-rule="evenodd" d="M17.8385 3H6.16146C5.63433 2.99998 5.17954 2.99997 4.80497 3.03057C4.40963 3.06287 4.01641 3.13419 3.63803 3.32698C3.07354 3.6146 2.6146 4.07354 2.32698 4.63803C2.13419 5.01641 2.06287 5.40963 2.03057 5.80497C1.99997 6.17954 1.99998 6.63429 2 7.16142V14.8385C1.99998 15.3657 1.99997 15.8205 2.03057 16.195C2.06287 16.5904 2.13419 16.9836 2.32698 17.362C2.6146 17.9265 3.07354 18.3854 3.63803 18.673C4.01641 18.8658 4.40963 18.9371 4.80497 18.9694C5.17952 19 5.63425 19 6.16136 19H16.2446C16.553 19 16.6133 19.0022 16.6665 19.0097C16.7278 19.0182 16.7881 19.0325 16.8468 19.0522C16.8977 19.0693 16.9526 19.0943 17.2285 19.2323L20.5528 20.8944C20.8628 21.0494 21.2309 21.0329 21.5257 20.8507C21.8205 20.6684 22 20.3466 22 20V7.16144C22 6.6343 22 6.17954 21.9694 5.80497C21.9371 5.40963 21.8658 5.01641 21.673 4.63803C21.3854 4.07355 20.9265 3.6146 20.362 3.32698C19.9836 3.13419 19.5904 3.06287 19.195 3.03057C18.8205 2.99997 18.3657 2.99998 17.8385 3ZM15.6936 9.72032C16.0915 9.33723 16.1034 8.70418 15.7203 8.30636C15.3372 7.90854 14.7042 7.89659 14.3064 8.27968L10.8462 11.6117L9.69364 10.5019C9.29582 10.1188 8.66277 10.1308 8.27968 10.5286C7.89659 10.9264 7.90854 11.5595 8.30636 11.9425L10.1525 13.7203C10.5398 14.0932 11.1525 14.0932 11.5398 13.7203L15.6936 9.72032Z" fill="#0000CC"/>
<path d="M15.7203 8.30636C16.1034 8.70418 16.0915 9.33723 15.6936 9.72032L11.5398 13.7203C11.1525 14.0932 10.5398 14.0932 10.1525 13.7203L8.30636 11.9425C7.90854 11.5595 7.89659 10.9264 8.27968 10.5286C8.66277 10.1308 9.29582 10.1188 9.69364 10.5019L10.8462 11.6117L14.3064 8.27968C14.7042 7.89659 15.3372 7.90854 15.7203 8.30636Z" fill="#0000CC"/>
</svg>
