<svg width="24" height="24" viewBox="0 0 24 24" fill="none" xmlns="http://www.w3.org/2000/svg">
<path opacity="0.3" fill-rule="evenodd" clip-rule="evenodd" d="M6.16146 3H17.8385C18.3656 2.99999 18.8205 2.99997 19.195 3.03057C19.5904 3.06288 19.9836 3.13419 20.362 3.32699C20.9265 3.61461 21.3854 4.07355 21.673 4.63803C21.8658 5.01641 21.9371 5.40963 21.9694 5.80498C22 6.17954 22 6.6343 22 7.16144V20C22 20.3466 21.8205 20.6684 21.5257 20.8507C21.2309 21.0329 20.8628 21.0494 20.5528 20.8944L17.2285 19.2323C16.9526 19.0943 16.8977 19.0693 16.8468 19.0522C16.7881 19.0325 16.7278 19.0182 16.6665 19.0097C16.6133 19.0022 16.553 19 16.2446 19H6.16124C5.63424 19 5.17946 19 4.80498 18.9694C4.40963 18.9371 4.01641 18.8658 3.63803 18.673C3.07355 18.3854 2.61461 17.9265 2.32699 17.362C2.13419 16.9836 2.06288 16.5904 2.03057 16.195C1.99997 15.8205 1.99999 15.3657 2 14.8386V7.16139C1.99999 6.6343 1.99997 6.17952 2.03057 5.80498C2.06288 5.40963 2.13419 5.01641 2.32699 4.63803C2.61461 4.07355 3.07355 3.61461 3.63803 3.32699C4.01641 3.13419 4.40963 3.06288 4.80498 3.03057C5.17952 2.99997 5.63437 2.99999 6.16146 3ZM7 10C7.55229 10 8 9.55229 8 9C8 8.44772 7.55229 8 7 8C6.44772 8 6 8.44772 6 9C6 9.55229 6.44772 10 7 10ZM7 14C7.55229 14 8 13.5523 8 13C8 12.4477 7.55229 12 7 12C6.44772 12 6 12.4477 6 13C6 13.5523 6.44772 14 7 14ZM10 8C9.44772 8 9 8.44772 9 9C9 9.55229 9.44772 10 10 10H17C17.5523 10 18 9.55229 18 9C18 8.44772 17.5523 8 17 8H10ZM10 12C9.44772 12 9 12.4477 9 13C9 13.5523 9.44772 14 10 14H17C17.5523 14 18 13.5523 18 13C18 12.4477 17.5523 12 17 12H10Z" fill="#0000CC"/>
<path fill-rule="evenodd" clip-rule="evenodd" d="M8 9C8 9.55229 7.55228 10 7 10C6.44772 10 6 9.55229 6 9C6 8.44771 6.44772 8 7 8C7.55228 8 8 8.44771 8 9ZM8 13C8 13.5523 7.55228 14 7 14C6.44772 14 6 13.5523 6 13C6 12.4477 6.44772 12 7 12C7.55228 12 8 12.4477 8 13ZM9 9C9 8.44771 9.44771 8 10 8H17C17.5523 8 18 8.44771 18 9C18 9.55229 17.5523 10 17 10H10C9.44771 10 9 9.55229 9 9ZM9 13C9 12.4477 9.44771 12 10 12H17C17.5523 12 18 12.4477 18 13C18 13.5523 17.5523 14 17 14H10C9.44771 14 9 13.5523 9 13Z" fill="#0000CC"/>
</svg>
