<svg width="24" height="24" viewBox="0 0 24 24" fill="none" xmlns="http://www.w3.org/2000/svg">
<path opacity="0.3" fill-rule="evenodd" clip-rule="evenodd" d="M2.48854 19.5616C2.42003 19.7356 2.35537 19.8997 2.30007 20.05C2.11727 20.5465 1.83618 21.0502 2.17263 21.5548C2.3581 21.8329 2.67039 22 3.00471 22H12.0039C17.5267 22 22.0039 17.5228 22.0039 12C22.0039 6.47715 17.5267 2 12.0039 2C6.48105 2 2.00391 6.47715 2.00391 12C2.00391 13.595 2.37798 15.1053 3.04425 16.4457C3.37301 17.3161 2.87068 18.5914 2.48854 19.5616Z" fill="#0000CC"/>
<path fill-rule="evenodd" clip-rule="evenodd" d="M15.5904 8.41251C15.0442 7.8625 14.1586 7.8625 13.6124 8.4125L9.66463 12.3878C9.20425 12.8514 8.97406 13.0832 8.78814 13.346C8.6231 13.5793 8.48428 13.8303 8.37423 14.0944C8.25028 14.3919 8.17578 14.711 8.02678 15.3492L8.01304 15.4081C7.93349 15.7488 8.23016 16.0584 8.57116 15.9906C9.25281 15.8549 9.59363 15.7871 9.91146 15.6622C10.1936 15.5513 10.4617 15.4072 10.7102 15.2329C10.9901 15.0366 11.2358 14.7892 11.7271 14.2944L15.5904 10.4043C16.1365 9.85425 16.1365 8.96251 15.5904 8.41251Z" fill="#0000CC"/>
</svg>
