<svg width="24" height="24" viewBox="0 0 24 24" fill="none" xmlns="http://www.w3.org/2000/svg">
<path opacity="0.3" fill-rule="evenodd" clip-rule="evenodd" d="M2.48854 19.5616C2.42003 19.7356 2.35537 19.8997 2.30007 20.05C2.11727 20.5465 1.83618 21.0502 2.17263 21.5548C2.3581 21.8329 2.67039 22 3.00471 22H12.0039C17.5267 22 22.0039 17.5228 22.0039 12C22.0039 6.47715 17.5267 2 12.0039 2C6.48105 2 2.00391 6.47715 2.00391 12C2.00391 13.595 2.37798 15.1053 3.04425 16.4457C3.37301 17.3161 2.87068 18.5914 2.48854 19.5616Z" fill="#0000CC"/>
<path fill-rule="evenodd" clip-rule="evenodd" d="M8 9.5C7.44772 9.5 7 9.94772 7 10.5C7 11.0523 7.44772 11.5 8 11.5H16C16.5523 11.5 17 11.0523 17 10.5C17 9.94772 16.5523 9.5 16 9.5H8ZM8 13.5C7.44772 13.5 7 13.9477 7 14.5C7 15.0523 7.44772 15.5 8 15.5H11C11.5523 15.5 12 15.0523 12 14.5C12 13.9477 11.5523 13.5 11 13.5H8Z" fill="#0000CC"/>
</svg>
