<svg width="24" height="24" viewBox="0 0 24 24" fill="none" xmlns="http://www.w3.org/2000/svg">
<path opacity="0.3" d="M2.37127 17.2224L2.3791 17.2158C2.38884 17.2075 2.40647 17.1921 2.43061 17.1701C2.47901 17.1258 2.55266 17.0552 2.64069 16.9603C2.8183 16.7689 3.04537 16.4883 3.24315 16.135C3.62354 15.4556 3.88854 14.5315 3.50961 13.3987C3.50036 13.3773 3.49178 13.3555 3.4839 13.3332C3.17022 12.4458 2.99998 11.4917 2.99998 10.5C2.99998 5.80558 6.80556 2 11.5 2C15.6451 2 19.0972 4.96703 19.8483 8.89316C18.3877 7.70929 16.5267 7 14.5 7C9.80558 7 6 10.8056 6 15.5C6 16.7477 6.26883 17.9326 6.75174 19H2.99998C2.57529 19 2.19693 18.7318 2.05635 18.331C1.9164 17.932 2.04294 17.4881 2.37127 17.2224Z" fill="#0000CC"/>
<path d="M21 15.5C21 16.4087 20.813 17.2759 20.4747 18.0634C20.7212 18.7847 21.021 19.3337 21.2648 19.708C21.404 19.9218 21.5245 20.078 21.6055 20.176C21.6587 20.2404 21.6951 20.2799 21.7078 20.2934L21.7088 20.2947L21.7117 20.2976C21.994 20.5836 22.0778 21.0111 21.9239 21.3827C21.7691 21.7564 21.4045 22 21 22L14.5 22C10.9101 22 8 19.0899 8 15.5C8 11.9101 10.9101 9 14.5 9C18.0899 9 21 11.9101 21 15.5Z" fill="#0000CC"/>
</svg>
