<svg width="24" height="24" viewBox="0 0 24 24" fill="none" xmlns="http://www.w3.org/2000/svg">
<path opacity="0.3" fill-rule="evenodd" clip-rule="evenodd" d="M2.48854 19.5616C2.42003 19.7356 2.35537 19.8997 2.30007 20.05C2.23023 20.2397 2.15877 20.4291 2.08136 20.6158C1.95297 20.9244 1.98721 21.2767 2.17263 21.5548C2.3581 21.8329 2.67039 22 3.00471 22H12.0039C17.5267 22 22.0039 17.5228 22.0039 12C22.0039 6.47715 17.5267 2 12.0039 2C6.48105 2 2.00391 6.47715 2.00391 12C2.00391 13.595 2.37798 15.1053 3.04425 16.4457C3.37301 17.3161 2.87068 18.5914 2.48854 19.5616Z" fill="#0000CC"/>
<path fill-rule="evenodd" clip-rule="evenodd" d="M9 11C9 9.34315 10.3431 8 12 8C13.6569 8 15 9.34315 15 11V11.2679C15.3792 11.4869 15.6784 11.8257 15.8478 12.2346C15.9447 12.4687 15.9752 12.6944 15.9882 12.8848C16 13.0589 16 13.2635 16 13.4735V13.5265C16 13.7365 16 13.9411 15.9882 14.1152C15.9752 14.3056 15.9447 14.5313 15.8478 14.7654C15.6448 15.2554 15.2554 15.6448 14.7654 15.8478C14.5313 15.9447 14.3056 15.9752 14.1152 15.9882C13.9411 16 13.7365 16 13.5265 16H10.4735C10.2635 16 10.0589 16 9.88478 15.9882C9.6944 15.9752 9.46868 15.9447 9.23464 15.8478C8.74458 15.6448 8.35523 15.2554 8.15224 14.7654C8.0553 14.5313 8.02483 14.3056 8.01184 14.1152C7.99996 13.9411 7.99998 13.7365 8 13.5265C8 13.5177 8 13.5088 8 13.5C8 13.4912 8 13.4823 8 13.4735C7.99998 13.2635 7.99996 13.0589 8.01184 12.8848C8.02483 12.6944 8.0553 12.4687 8.15224 12.2346C8.32164 11.8257 8.62082 11.4869 9 11.2679V11ZM13 11C13 10.4477 12.5523 10 12 10C11.4477 10 11 10.4477 11 11L13 11Z" fill="#0000CC"/>
</svg>
