<svg width="24" height="24" viewBox="0 0 24 24" fill="none" xmlns="http://www.w3.org/2000/svg">
<path opacity="0.3" fill-rule="evenodd" clip-rule="evenodd" d="M6.16146 3H17.8385C18.3656 2.99999 18.8205 2.99997 19.195 3.03057C19.5904 3.06288 19.9836 3.13419 20.362 3.32699C20.9265 3.61461 21.3854 4.07355 21.673 4.63803C21.8658 5.01641 21.9371 5.40963 21.9694 5.80498C22 6.17954 22 6.6343 22 7.16144V20C22 20.3466 21.8205 20.6684 21.5257 20.8507C21.2309 21.0329 20.8628 21.0494 20.5528 20.8944L17.2285 19.2323C16.9526 19.0943 16.8977 19.0693 16.8468 19.0522C16.7881 19.0325 16.7278 19.0182 16.6665 19.0097C16.6133 19.0022 16.553 19 16.2446 19H6.16124C5.63424 19 5.17946 19 4.80498 18.9694C4.40963 18.9371 4.01641 18.8658 3.63803 18.673C3.07355 18.3854 2.61461 17.9265 2.32699 17.362C2.13419 16.9836 2.06288 16.5904 2.03057 16.195C1.99997 15.8205 1.99999 15.3657 2 14.8386V7.16139C1.99999 6.6343 1.99997 6.17952 2.03057 5.80498C2.06288 5.40963 2.13419 5.01641 2.32699 4.63803C2.61461 4.07355 3.07355 3.61461 3.63803 3.32699C4.01641 3.13419 4.40963 3.06288 4.80498 3.03057C5.17952 2.99997 5.63437 2.99999 6.16146 3ZM11 9C11 8.44772 11.4477 8 12 8C12.5523 8 13 8.44772 13 9V10H14C14.5523 10 15 10.4477 15 11C15 11.5523 14.5523 12 14 12H13V13C13 13.5523 12.5523 14 12 14C11.4477 14 11 13.5523 11 13V12H10C9.44772 12 9 11.5523 9 11C9 10.4477 9.44772 10 10 10H11V9Z" fill="#0000CC"/>
<path fill-rule="evenodd" clip-rule="evenodd" d="M12 8C11.4477 8 11 8.44772 11 9V10H10C9.44772 10 9 10.4477 9 11C9 11.5523 9.44772 12 10 12H11V13C11 13.5523 11.4477 14 12 14C12.5523 14 13 13.5523 13 13V12H14C14.5523 12 15 11.5523 15 11C15 10.4477 14.5523 10 14 10H13V9C13 8.44772 12.5523 8 12 8Z" fill="#0000CC"/>
</svg>
