<svg width="24" height="24" viewBox="0 0 24 24" fill="none" xmlns="http://www.w3.org/2000/svg">
<path opacity="0.3" fill-rule="evenodd" clip-rule="evenodd" d="M2.48854 19.5616C2.42003 19.7356 2.35537 19.8997 2.30007 20.05C2.23023 20.2397 2.15877 20.4291 2.08136 20.6158C1.95297 20.9244 1.98721 21.2767 2.17263 21.5548C2.3581 21.8329 2.67039 22 3.00471 22H12.0039C17.5267 22 22.0039 17.5228 22.0039 12C22.0039 6.47715 17.5267 2 12.0039 2C6.48105 2 2.00391 6.47715 2.00391 12C2.00391 13.595 2.37798 15.1053 3.04425 16.4457C3.37301 17.3161 2.87068 18.5914 2.48854 19.5616Z" fill="#0000CC"/>
<path d="M10.9985 9.99926C11.1095 9.56774 11.5024 9.25 11.967 9.25C12.5193 9.25 12.967 9.69772 12.967 10.25C12.967 10.4232 12.9215 10.5553 12.6476 10.8197C12.5132 10.9494 12.358 11.0782 12.1534 11.248L12.0619 11.324C11.8236 11.5223 11.5441 11.7587 11.2599 12.0429C10.8694 12.4334 10.8694 13.0666 11.2599 13.4571C11.6505 13.8476 12.2836 13.8476 12.6741 13.4571C12.89 13.2413 13.1105 13.0533 13.3409 12.8616L13.4266 12.7905C13.624 12.6269 13.8436 12.4449 14.0365 12.2587C14.5125 11.7993 14.967 11.1814 14.967 10.25C14.967 8.59315 13.6239 7.25 11.967 7.25C10.5678 7.25 9.39457 8.20704 9.06159 9.50074C8.92393 10.0356 9.24592 10.5808 9.78077 10.7184C10.3156 10.8561 10.8608 10.5341 10.9985 9.99926Z" fill="#0000CC"/>
<path d="M11.9697 16.75C12.522 16.75 12.9697 16.3023 12.9697 15.75C12.9697 15.1977 12.522 14.75 11.9697 14.75C11.4174 14.75 10.9697 15.1977 10.9697 15.75C10.9697 16.3023 11.4174 16.75 11.9697 16.75Z" fill="#0000CC"/>
</svg>
