<svg width="24" height="24" viewBox="0 0 24 24" fill="none" xmlns="http://www.w3.org/2000/svg">
<path opacity="0.3" d="M15.548 13.601C17.906 14.25 20.1626 15.5605 22.142 17.5109C22.4688 17.833 22.5346 18.3361 22.3014 18.7313L21.7032 19.7454C21.529 20.0407 21.3707 20.309 21.2204 20.5242C21.0582 20.7564 20.8644 20.9885 20.594 21.1764C20.1984 21.4512 19.7317 21.6059 19.2503 21.6219C18.9211 21.6327 18.6271 21.5624 18.3583 21.4731C18.1093 21.3903 17.822 21.2697 17.5059 21.137L16.7751 20.8302L16.6862 20.793C16.3142 20.6376 15.9403 20.4815 15.6374 20.2212C15.3732 19.9941 15.1593 19.7142 15.0096 19.3996C14.838 19.039 14.7855 18.6371 14.7333 18.2374L14.7208 18.1419L14.7203 18.1385L14.3631 15.37C13.5689 15.2012 12.7689 15.1204 11.9724 15.1263C11.0077 15.1334 10.0398 15.2677 9.08521 15.5314L9.10342 17.8424L9.1044 17.9536C9.10879 18.4119 9.1132 18.8721 8.96277 19.2942C8.8317 19.6619 8.61633 19.9938 8.3339 20.2634C8.00976 20.5727 7.58775 20.7562 7.16739 20.9389L7.0659 20.9831L6.52839 21.2182L6.52831 21.2183C6.21422 21.3557 5.92885 21.4805 5.68113 21.5669C5.41365 21.6602 5.12067 21.7349 4.79141 21.7288C4.30975 21.72 3.8409 21.5722 3.44126 21.3033C3.16806 21.1194 2.97085 20.8902 2.80523 20.6604C2.65182 20.4475 2.48958 20.1816 2.31103 19.8888L1.69768 18.8837C1.45863 18.492 1.51689 17.9879 1.83898 17.661C3.61152 15.862 5.62071 14.5881 7.73497 13.8575C7.74755 13.8529 7.76024 13.8485 7.77305 13.8444C9.13633 13.3778 10.5429 13.1368 11.9576 13.1263C13.1534 13.1175 14.3458 13.2734 15.5135 13.5915C15.5251 13.5945 15.5366 13.5976 15.548 13.601Z" fill="#0000CC"/>
<path fill-rule="evenodd" clip-rule="evenodd" d="M11.9998 4C9.48197 4 7.20709 5.03263 5.5725 6.70004C5.18587 7.09443 4.55274 7.10072 4.15835 6.7141C3.76397 6.32748 3.75768 5.69434 4.1443 5.29996C6.13955 3.26464 8.92291 2 11.9998 2C15.0768 2 17.8601 3.26464 19.8554 5.29996C20.242 5.69434 20.2357 6.32748 19.8413 6.7141C19.4469 7.10072 18.8138 7.09443 18.4272 6.70004C16.7926 5.03263 14.5177 4 11.9998 4ZM11.9998 8C10.5191 8 9.18969 8.6424 8.27272 9.66691C7.9044 10.0784 7.2722 10.1135 6.86067 9.74513C6.44915 9.37681 6.41413 8.74461 6.78245 8.33309C8.06277 6.9026 9.92654 6 11.9998 6C14.0731 6 15.9368 6.9026 17.2171 8.33309C17.5855 8.74461 17.5505 9.37681 17.1389 9.74513C16.7274 10.1135 16.0952 10.0784 15.7269 9.66691C14.8099 8.6424 13.4805 8 11.9998 8Z" fill="#0000CC"/>
</svg>
