<svg width="24" height="24" viewBox="0 0 24 24" fill="none" xmlns="http://www.w3.org/2000/svg">
<path opacity="0.3" fill-rule="evenodd" clip-rule="evenodd" d="M6.35222 12.866L8.92868 9.72028C8.934 9.71379 8.93924 9.70722 8.9444 9.70059C8.96411 9.67525 8.98388 9.64993 9.00366 9.6246C9.25176 9.3069 9.50121 8.98746 9.6376 8.61215C9.75662 8.28467 9.80586 7.93591 9.78217 7.58828C9.75502 7.18987 9.60377 6.81387 9.45333 6.43989C9.44133 6.41007 9.42934 6.38027 9.41742 6.35046L8.69445 4.54303C8.56714 4.22469 8.45146 3.93544 8.33565 3.70001C8.2106 3.4458 8.05431 3.187 7.81555 2.9602C7.46627 2.62842 7.02858 2.40462 6.55512 2.31572C6.23146 2.25495 5.93014 2.27978 5.65086 2.32724C5.39218 2.3712 5.08996 2.44678 4.75733 2.52996C4.74668 2.53262 4.736 2.53529 4.72529 2.53797L2.75792 3.02988C2.31277 3.14118 2.00049 3.54116 2.00049 4.00001C2.00049 7.44861 2.79667 10.5823 4.2548 13.2355C4.26047 13.2462 4.26633 13.2569 4.27241 13.2675C5.02652 14.6327 5.95626 15.8701 7.04326 16.9571C8.28013 18.194 9.71177 19.2273 11.3048 20.0299C11.3165 20.0361 11.3283 20.042 11.3402 20.0476C13.8669 21.3134 16.7979 22 20.0005 22C20.4594 22 20.8594 21.6876 20.9707 21.2424L21.4702 19.243C21.5534 18.9103 21.629 18.6081 21.673 18.3494C21.7204 18.0701 21.7453 17.7688 21.6845 17.4451C21.5956 16.9716 21.3718 16.534 21.04 16.1847C20.8132 15.9459 20.5544 15.7896 20.3002 15.6646C20.0648 15.5488 19.7755 15.4331 19.4572 15.3058L17.841 14.6593C17.8067 14.6456 17.7725 14.6318 17.7382 14.618C17.313 14.4469 16.8862 14.275 16.4383 14.2612C16.0481 14.2493 15.6605 14.3288 15.3065 14.4936C14.9003 14.6826 14.5756 15.0087 14.2522 15.3336C14.2278 15.3581 14.2033 15.3827 14.1789 15.4072L11.5969 17.9196C10.4307 17.2633 9.37927 16.4647 8.45749 15.5429C7.6592 14.7446 6.95333 13.849 6.35222 12.866Z" fill="#0000CC"/>
<path d="M15.2929 2.29289C15.6834 1.90237 16.3166 1.90237 16.7071 2.29289L18.5 4.08579L20.2929 2.29289C20.6834 1.90237 21.3166 1.90237 21.7071 2.29289C22.0976 2.68342 22.0976 3.31658 21.7071 3.70711L19.9142 5.5L21.7071 7.29289C22.0976 7.68342 22.0976 8.31658 21.7071 8.70711C21.3166 9.09763 20.6834 9.09763 20.2929 8.70711L18.5 6.91421L16.7071 8.70711C16.3166 9.09763 15.6834 9.09763 15.2929 8.70711C14.9024 8.31658 14.9024 7.68342 15.2929 7.29289L17.0858 5.5L15.2929 3.70711C14.9024 3.31658 14.9024 2.68342 15.2929 2.29289Z" fill="#0000CC"/>
</svg>
