<svg width="24" height="24" viewBox="0 0 24 24" fill="none" xmlns="http://www.w3.org/2000/svg">
<path opacity="0.3" fill-rule="evenodd" clip-rule="evenodd" d="M6.36476 12.8865L8.93219 9.71597L8.9444 9.70059C8.96411 9.67525 8.98388 9.64993 9.00366 9.6246C9.25176 9.3069 9.50121 8.98746 9.6376 8.61215C9.75662 8.28467 9.80586 7.93591 9.78217 7.58828C9.75502 7.18987 9.60377 6.81387 9.45333 6.43989C9.44133 6.41007 9.42934 6.38027 9.41742 6.35046L8.69445 4.54303C8.56714 4.22469 8.45146 3.93544 8.33565 3.70001C8.2106 3.4458 8.05431 3.187 7.81555 2.9602C7.46627 2.62842 7.02858 2.40462 6.55512 2.31572C6.23146 2.25495 5.93014 2.27978 5.65086 2.32724C5.39218 2.3712 5.08996 2.44678 4.75733 2.52996C4.74668 2.53262 4.736 2.53529 4.72529 2.53797L2.75792 3.02988C2.31277 3.14118 2.00049 3.54116 2.00049 4.00001C2.00049 7.46019 2.80203 10.6033 4.26951 13.2622C4.27516 13.2729 4.28101 13.2835 4.28706 13.2939C5.03856 14.6487 5.96329 15.8771 7.04326 16.9571C8.28485 18.1987 9.7227 19.2352 11.323 20.0391C11.3348 20.0452 11.3466 20.0512 11.3586 20.0569C13.8812 21.3167 16.8057 22 20.0005 22C20.4594 22 20.8594 21.6876 20.9707 21.2424L21.4702 19.243C21.5534 18.9103 21.629 18.6081 21.673 18.3494C21.7204 18.0701 21.7453 17.7688 21.6845 17.4451C21.5956 16.9716 21.3718 16.534 21.04 16.1847C20.8132 15.9459 20.5544 15.7896 20.3002 15.6646C20.0648 15.5488 19.7755 15.4331 19.4572 15.3058L17.841 14.6593C17.8067 14.6456 17.7725 14.6318 17.7382 14.618C17.313 14.4469 16.8862 14.275 16.4383 14.2612C16.0481 14.2493 15.6605 14.3288 15.3065 14.4936C14.9003 14.6826 14.5756 15.0087 14.2522 15.3336C14.2273 15.3586 14.2023 15.3837 14.1774 15.4086L11.6106 17.9274C10.439 17.2696 9.38289 16.4683 8.45749 15.5429C7.66474 14.7502 6.96314 13.8615 6.36476 12.8865Z" fill="#0000CC"/>
<path d="M17 2C17.5523 2 18 2.44772 18 3L18 9C18 9.55228 17.5523 10 17 10C16.4477 10 16 9.55228 16 9V3C16 2.44772 16.4477 2 17 2Z" fill="#0000CC"/>
<path d="M21 2C21.5523 2 22 2.44772 22 3V9C22 9.55228 21.5523 10 21 10C20.4477 10 20 9.55228 20 9V3C20 2.44772 20.4477 2 21 2Z" fill="#0000CC"/>
</svg>
