<svg width="24" height="24" viewBox="0 0 24 24" fill="none" xmlns="http://www.w3.org/2000/svg">
<path opacity="0.3" fill-rule="evenodd" clip-rule="evenodd" d="M9.65753 16.6024L9.87613 17.5902L9.88007 17.6063C9.93027 17.8109 9.98005 18.0139 10.0098 18.1913C10.0429 18.3888 10.0641 18.6223 10.0188 18.8809C9.95494 19.2455 9.79118 19.5852 9.54574 19.8622C9.3716 20.0588 9.17577 20.1876 9.00058 20.2848C8.84332 20.372 8.65351 20.4595 8.46213 20.5477L6.47541 21.4638L6.39782 21.4998C6.11762 21.6305 5.76589 21.7944 5.38709 21.8193C5.06028 21.8407 4.73322 21.7815 4.43463 21.647C4.08853 21.491 3.81657 21.2142 3.59987 20.9937L3.53983 20.9327L2.35503 19.737C2.33244 19.7142 2.30905 19.6908 2.28504 19.6669C2.02378 19.4059 1.68985 19.0723 1.53844 18.622C1.41295 18.2489 1.40396 17.8018 1.51432 17.4239C1.64707 16.9694 1.94482 16.6467 2.1734 16.3991L2.22996 16.3376C2.37797 16.1757 2.5307 16.0166 2.68813 15.8606C7.86006 10.7359 16.2071 10.7742 21.3318 15.9461C21.4878 16.1035 21.6391 16.264 21.7856 16.4273L21.8416 16.4892C22.0679 16.739 22.3627 17.0643 22.4913 17.5201C22.5982 17.8989 22.5851 18.346 22.4562 18.718C22.3006 19.1668 21.9637 19.4973 21.7 19.7559C21.6758 19.7796 21.6522 19.8028 21.6294 19.8254L20.4337 21.0102L20.3731 21.0706C20.1544 21.2891 19.8799 21.5634 19.5324 21.7162C19.2325 21.848 18.905 21.9042 18.5784 21.8797C18.1998 21.8515 17.8496 21.6843 17.5706 21.5511L17.4933 21.5143L15.515 20.58C15.3245 20.4901 15.1355 20.4009 14.9791 20.3122C14.8048 20.2134 14.6102 20.0828 14.4378 19.8847C14.1949 19.6054 14.0343 19.2642 13.9738 18.8991C13.9309 18.64 13.9542 18.4068 13.9892 18.2095C14.0205 18.0324 14.0721 17.8299 14.1242 17.6257L14.1266 17.6163L14.3419 16.6226C12.8175 16.1791 11.1846 16.1715 9.65753 16.6024Z" fill="#0000CC"/>
<path d="M20.6585 3.75259C21.0741 3.38891 21.1163 2.75715 20.7526 2.34151C20.3889 1.92587 19.7571 1.88375 19.3415 2.24744L15.5559 5.55981C14.7978 6.22319 14.2711 6.68314 13.8306 7.0125C13.4002 7.33437 13.112 7.48451 12.8508 7.56178C12.2955 7.72599 11.7045 7.72599 11.1492 7.56178C10.888 7.48451 10.5998 7.33437 10.1694 7.0125C9.72892 6.68314 9.20222 6.22319 8.44407 5.55981L6.66145 4.00001H8C8.55228 4.00001 9 3.5523 9 3.00001C9 2.44773 8.55228 2.00001 8 2.00001H4C3.44772 2.00001 3 2.44773 3 3.00001V7.00001C3 7.5523 3.44772 8.00001 4 8.00001C4.55228 8.00001 5 7.5523 5 7.00001V5.20378L7.15682 7.091C7.87817 7.72219 8.46235 8.23336 8.9716 8.61418C9.49785 9.00771 10.0031 9.30846 10.5821 9.47967C11.5075 9.75336 12.4925 9.75336 13.4179 9.47967C13.9969 9.30846 14.5022 9.00771 15.0284 8.61418C15.5377 8.23336 16.1218 7.7222 16.8432 7.091L20.6585 3.75259Z" fill="#0000CC"/>
</svg>
