<svg width="24" height="24" viewBox="0 0 24 24" fill="none" xmlns="http://www.w3.org/2000/svg">
<g opacity="0.3">
<path d="M12 3C7.58172 3 4 6.58172 4 11C4 13.5496 5.19272 15.8207 7.05065 17.2856C7.01727 17.5189 7 17.7575 7 18V19.6622C4.01099 17.9331 2 14.7014 2 11C2 5.47715 6.47715 1 12 1C17.5228 1 22 5.47715 22 11C22 14.7014 19.989 17.9331 17 19.6622V18C17 17.7575 16.9827 17.5189 16.9494 17.2856C18.8073 15.8207 20 13.5496 20 11C20 6.58172 16.4183 3 12 3Z" fill="#0000CC"/>
<path d="M16.1996 15.2853C17.3106 14.1963 18 12.6787 18 11C18 7.68629 15.3137 5 12 5C8.68629 5 6 7.68629 6 11C6 12.6787 6.68937 14.1963 7.80044 15.2853C8.16641 14.7203 8.64327 14.2339 9.20022 13.8568C8.45955 13.1308 8 12.1191 8 11C8 8.79086 9.79086 7 12 7C14.2091 7 16 8.79086 16 11C16 12.1191 15.5405 13.1308 14.7998 13.8568C15.3567 14.2339 15.8336 14.7203 16.1996 15.2853Z" fill="#0000CC"/>
</g>
<path d="M12 9C10.8954 9 10 9.89543 10 11C10 12.1046 10.8954 13 12 13C13.1046 13 14 12.1046 14 11C14 9.89543 13.1046 9 12 9Z" fill="#0000CC"/>
<path d="M12 15C10.3431 15 9 16.3431 9 18V20C9 21.6569 10.3431 23 12 23C13.6569 23 15 21.6569 15 20V18C15 16.3431 13.6569 15 12 15Z" fill="#0000CC"/>
</svg>
