<svg width="24" height="24" viewBox="0 0 24 24" fill="none" xmlns="http://www.w3.org/2000/svg">
<path opacity="0.3" d="M12.0506 5.73681C12.5376 5.49329 12.9625 5.28081 13.3096 5.14439C13.6399 5.01457 14.1106 4.86192 14.6079 4.98032C15.222 5.12657 15.7311 5.55422 15.9811 6.13396C16.1835 6.60331 16.1143 7.09328 16.0434 7.44102C15.9689 7.80646 15.8329 8.26163 15.677 8.78332L15.0149 11H9.76416C9.21188 11 8.76416 11.4477 8.76416 12C8.76416 12.5523 9.21188 13 9.76416 13H15.0013L15.6647 15.2017C15.8222 15.7245 15.9596 16.1805 16.0352 16.5466C16.107 16.8946 16.1776 17.3855 15.9757 17.8559C15.7264 18.4366 15.2172 18.8654 14.6025 19.0122C14.1046 19.1312 13.6329 18.9781 13.3022 18.8481C12.9543 18.7113 12.5284 18.4983 12.0399 18.2541L4.13969 14.3039C3.71289 14.0906 3.33282 13.9006 3.04481 13.7222C2.76094 13.5463 2.39643 13.2839 2.1931 12.8552C1.93585 12.3127 1.93585 11.6835 2.1931 11.1411C2.39643 10.7124 2.76095 10.4499 3.04482 10.2741C3.33281 10.0957 3.71286 9.90566 4.13963 9.6923L12.0506 5.73681Z" fill="#0000CC"/>
<path d="M20.7642 6.99805C21.3164 6.99805 21.7642 7.44576 21.7642 7.99805C21.7642 8.55033 21.3164 8.99805 20.7642 8.99805H18.2642C17.7119 8.99805 17.2642 8.55033 17.2642 7.99805C17.2642 7.44576 17.7119 6.99805 18.2642 6.99805H20.7642Z" fill="#0000CC"/>
<path d="M19.7642 10.998C20.3164 10.998 20.7642 11.4458 20.7642 11.998C20.7642 12.5503 20.3164 12.998 19.7642 12.998H18.2642C17.7119 12.998 17.2642 12.5503 17.2642 11.998C17.2642 11.4458 17.7119 10.998 18.2642 10.998H19.7642Z" fill="#0000CC"/>
<path d="M19.2642 14.998C19.8164 14.998 20.2642 15.4458 20.2642 15.998C20.2642 16.5503 19.8164 16.998 19.2642 16.998H18.2642C17.7119 16.998 17.2642 16.5503 17.2642 15.998C17.2642 15.4458 17.7119 14.998 18.2642 14.998H19.2642Z" fill="#0000CC"/>
<path d="M14.7598 12.1993L15.0011 13H9.76393C9.21164 13 8.76393 12.5523 8.76393 12C8.76393 11.4477 9.21164 11 9.76393 11H15.0146L14.7594 11.8544C14.732 11.9462 14.7187 11.9914 14.71 12.0246L14.7094 12.0269L14.71 12.0293C14.7187 12.0624 14.7322 12.1076 14.7598 12.1993Z" fill="#0000CC"/>
</svg>
