<svg width="24" height="24" viewBox="0 0 24 24" fill="none" xmlns="http://www.w3.org/2000/svg">
<path opacity="0.3" d="M18.8341 2.71501C19.1612 2.63557 19.6094 2.55872 20.0612 2.71833C20.6311 2.91968 21.0793 3.36795 21.2807 3.93784C21.4403 4.38961 21.3634 4.83783 21.284 5.16491C21.2031 5.49815 21.0638 5.90598 20.907 6.36514L16.6788 18.7476C16.4974 19.279 16.3399 19.7404 16.1852 20.089C16.0392 20.4179 15.8072 20.8676 15.3608 21.1334C14.8125 21.4599 14.1413 21.5052 13.5541 21.2552C13.076 21.0517 12.7858 20.6372 12.5971 20.3309C12.397 20.0062 12.179 19.5701 11.9279 19.0679L10.0673 15.3468L16.7071 8.70705C17.0976 8.31652 17.0976 7.68336 16.7071 7.29283C16.3166 6.90231 15.6834 6.90231 15.2929 7.29283L8.65344 13.9323L4.93116 12.0711C4.42897 11.8201 3.99285 11.602 3.66813 11.402C3.36183 11.2132 2.94733 10.923 2.7438 10.4449C2.49384 9.85773 2.53908 9.18654 2.86557 8.63823C3.13142 8.19179 3.58111 7.95978 3.90997 7.81386C4.2586 7.65916 4.72003 7.50163 5.25136 7.32022L17.6339 3.09205C18.093 2.93523 18.5009 2.79594 18.8341 2.71501Z" fill="#0000CC"/>
<path d="M10.0672 15.3469L16.707 8.70711C17.0975 8.31658 17.0975 7.68342 16.707 7.29289C16.3165 6.90237 15.6833 6.90237 15.2928 7.29289L8.65332 13.9323L9.59424 14.4047L10.0672 15.3469Z" fill="#0000CC"/>
</svg>
