<svg width="24" height="24" viewBox="0 0 24 24" fill="none" xmlns="http://www.w3.org/2000/svg">
<path opacity="0.3" d="M10.9275 2.91343C11.6264 2.56928 12.4458 2.57059 13.1436 2.91699C13.6729 3.17974 14.0038 3.66875 14.2523 4.112C14.5076 4.56743 14.7823 5.18054 15.1112 5.91463L19.6938 16.142C20.0305 16.8935 20.311 17.5194 20.4843 18.0221C20.6521 18.5092 20.8003 19.0913 20.6388 19.6674C20.4268 20.424 19.8713 21.0369 19.1391 21.3221C18.5816 21.5393 17.9878 21.4489 17.4866 21.3296C16.9694 21.2065 16.3189 20.9887 15.5381 20.7273L12.9995 19.8775V12.501C12.9995 11.9487 12.5518 11.501 11.9995 11.501C11.4472 11.501 10.9995 11.9487 10.9995 12.501V19.8992L8.46669 20.7399C7.68461 20.9995 7.0332 21.2157 6.5153 21.3376C6.01358 21.4556 5.41922 21.5446 4.86212 21.3258C4.13052 21.0384 3.57665 20.4238 3.3668 19.6663C3.20701 19.0895 3.35717 18.5076 3.52667 18.0208C3.70165 17.5183 3.98433 16.8929 4.32373 16.1419L8.95023 5.90476C9.2815 5.17169 9.55815 4.5595 9.81498 4.10487C10.0649 3.66243 10.3974 3.17448 10.9275 2.91343Z" fill="#0000CC"/>
<path d="M12.9995 19.8775V12.501C12.9995 11.9487 12.5518 11.501 11.9995 11.501C11.4472 11.501 10.9995 11.9487 10.9995 12.501V19.8992L11.5935 19.7021C11.9113 19.5966 11.9464 19.5895 11.9722 19.5862C12.0149 19.5807 12.058 19.5807 12.1006 19.5863C12.1265 19.5897 12.1615 19.5969 12.479 19.7032L12.9995 19.8775Z" fill="#0000CC"/>
</svg>
