<svg width="24" height="24" viewBox="0 0 24 24" fill="none" xmlns="http://www.w3.org/2000/svg">
<path d="M4 3C3.44772 3 3 3.44772 3 4C3 4.55228 3.44772 5 4 5H20C20.5523 5 21 4.55228 21 4C21 3.44772 20.5523 3 20 3H4Z" fill="#0000CC"/>
<path d="M4 19C3.44772 19 3 19.4477 3 20C3 20.5523 3.44772 21 4 21H20C20.5523 21 21 20.5523 21 20C21 19.4477 20.5523 19 20 19H4Z" fill="#0000CC"/>
<path d="M3.32698 8.63803C3 9.27976 3 10.1198 3 11.8V12.2C3 13.8802 3 14.7202 3.32698 15.362C3.6146 15.9265 4.07354 16.3854 4.63803 16.673C5.27976 17 6.11984 17 7.8 17H16.2C17.8802 17 18.7202 17 19.362 16.673C19.9265 16.3854 20.3854 15.9265 20.673 15.362C21 14.7202 21 13.8802 21 12.2V11.8C21 10.1198 21 9.27976 20.673 8.63803C20.3854 8.07354 19.9265 7.6146 19.362 7.32698C18.7202 7 17.8802 7 16.2 7H7.8C6.11984 7 5.27976 7 4.63803 7.32698C4.07354 7.6146 3.6146 8.07354 3.32698 8.63803Z" fill="#0000CC"/>
</svg>
