<svg width="24" height="24" viewBox="0 0 24 24" fill="none" xmlns="http://www.w3.org/2000/svg">
<path fill-rule="evenodd" clip-rule="evenodd" d="M2 5C2 3.34315 3.34315 2 5 2C6.30622 2 7.41746 2.83481 7.82929 4H16.1707C16.5825 2.83481 17.6938 2 19 2C20.6569 2 22 3.34315 22 5C22 6.30622 21.1652 7.41746 20 7.82929V16.1707C21.1652 16.5825 22 17.6938 22 19C22 20.6569 20.6569 22 19 22C17.6938 22 16.5825 21.1652 16.1707 20H7.82929C7.41746 21.1652 6.30622 22 5 22C3.34315 22 2 20.6569 2 19C2 17.6938 2.83481 16.5825 4 16.1707V7.82929C2.83481 7.41746 2 6.30622 2 5ZM6 7.82929V16.1707C6.85241 16.472 7.52801 17.1476 7.82929 18H16.1707C16.472 17.1476 17.1476 16.472 18 16.1707V7.82929C17.1476 7.52801 16.472 6.85241 16.1707 6H7.82929C7.52801 6.85241 6.85241 7.52801 6 7.82929ZM8 9C8 8.44772 8.44772 8 9 8H15C15.5523 8 16 8.44772 16 9C16 9.55228 15.5523 10 15 10H13V15C13 15.5523 12.5523 16 12 16C11.4477 16 11 15.5523 11 15V10H9C8.44772 10 8 9.55228 8 9Z" fill="#0000CC"/>
</svg>
