<svg width="24" height="24" viewBox="0 0 24 24" fill="none" xmlns="http://www.w3.org/2000/svg">
<path fill-rule="evenodd" clip-rule="evenodd" d="M15.2929 3.29295C16.788 1.79786 19.212 1.79786 20.7071 3.29295C22.2022 4.78804 22.2022 7.21207 20.7071 8.70716L17.9143 11.5L18.7071 12.2929C19.0976 12.6834 19.0976 13.3166 18.7071 13.7071C18.3166 14.0976 17.6834 14.0976 17.2929 13.7071L10.2929 6.70711C9.90237 6.31658 9.90237 5.68342 10.2929 5.29289C10.6834 4.90237 11.3166 4.90237 11.7071 5.29289L12.5 6.08582L15.2929 3.29295Z" fill="#0000CC"/>
<path d="M15.1001 14.3142L11.041 18.3733C10.5922 18.8226 10.2531 19.162 9.84737 19.4106C9.48948 19.6299 9.0993 19.7915 8.69116 19.8895C8.22846 20.0006 7.74866 20.0004 7.11366 20.0001L6.30279 20.0001L3.55472 21.8321C3.15809 22.0965 2.62997 22.0442 2.29291 21.7072C1.95585 21.3701 1.90355 20.842 2.16797 20.4454L4.00002 17.6973L3.99998 16.8864C3.99968 16.2514 3.99945 15.7716 4.11054 15.3089C4.20852 14.9008 4.37014 14.5106 4.58946 14.1527C4.83808 13.747 5.17752 13.4079 5.62673 12.9591L9.68592 8.89994C13.7129 12.9269 11.0732 10.2872 15.1001 14.3142Z" fill="#0000CC"/>
</svg>
