<svg width="24" height="24" viewBox="0 0 24 24" fill="none" xmlns="http://www.w3.org/2000/svg">
<path d="M2 3C2 2.44772 2.44772 2 3 2H21C21.5523 2 22 2.44772 22 3C22 3.55228 21.5523 4 21 4H3C2.44772 4 2 3.55228 2 3Z" fill="#0000CC"/>
<path d="M2 14C2 13.4477 2.44772 13 3 13H21C21.5523 13 22 13.4477 22 14C22 14.5523 21.5523 15 21 15H3C2.44772 15 2 14.5523 2 14Z" fill="#0000CC"/>
<path d="M2.5 18.6C2.5 18.0399 2.5 17.7599 2.60899 17.546C2.70487 17.3578 2.85785 17.2049 3.04601 17.109C3.25992 17 3.53995 17 4.1 17H5.9C6.46005 17 6.74008 17 6.95399 17.109C7.14215 17.2049 7.29513 17.3578 7.39101 17.546C7.5 17.7599 7.5 18.0399 7.5 18.6V20.4C7.5 20.9601 7.5 21.2401 7.39101 21.454C7.29513 21.6422 7.14215 21.7951 6.95399 21.891C6.74008 22 6.46005 22 5.9 22H4.1C3.53995 22 3.25992 22 3.04601 21.891C2.85785 21.7951 2.70487 21.6422 2.60899 21.454C2.5 21.2401 2.5 20.9601 2.5 20.4V18.6Z" fill="#0000CC"/>
<path d="M9.5 18.6C9.5 18.0399 9.5 17.7599 9.60899 17.546C9.70487 17.3578 9.85785 17.2049 10.046 17.109C10.2599 17 10.5399 17 11.1 17H12.9C13.4601 17 13.7401 17 13.954 17.109C14.1422 17.2049 14.2951 17.3578 14.391 17.546C14.5 17.7599 14.5 18.0399 14.5 18.6V20.4C14.5 20.9601 14.5 21.2401 14.391 21.454C14.2951 21.6422 14.1422 21.7951 13.954 21.891C13.7401 22 13.4601 22 12.9 22H11.1C10.5399 22 10.2599 22 10.046 21.891C9.85785 21.7951 9.70487 21.6422 9.60899 21.454C9.5 21.2401 9.5 20.9601 9.5 20.4V18.6Z" fill="#0000CC"/>
<path d="M16.5 18.6C16.5 18.0399 16.5 17.7599 16.609 17.546C16.7049 17.3578 16.8578 17.2049 17.046 17.109C17.2599 17 17.5399 17 18.1 17H19.9C20.4601 17 20.7401 17 20.954 17.109C21.1422 17.2049 21.2951 17.3578 21.391 17.546C21.5 17.7599 21.5 18.0399 21.5 18.6V20.4C21.5 20.9601 21.5 21.2401 21.391 21.454C21.2951 21.6422 21.1422 21.7951 20.954 21.891C20.7401 22 20.4601 22 19.9 22H18.1C17.5399 22 17.2599 22 17.046 21.891C16.8578 21.7951 16.7049 21.6422 16.609 21.454C16.5 21.2401 16.5 20.9601 16.5 20.4V18.6Z" fill="#0000CC"/>
<path d="M2.5 7.6C2.5 7.03995 2.5 6.75992 2.60899 6.54601C2.70487 6.35785 2.85785 6.20487 3.04601 6.10899C3.25992 6 3.53995 6 4.1 6H5.9C6.46005 6 6.74008 6 6.95399 6.10899C7.14215 6.20487 7.29513 6.35785 7.39101 6.54601C7.5 6.75992 7.5 7.03995 7.5 7.6V9.4C7.5 9.96005 7.5 10.2401 7.39101 10.454C7.29513 10.6422 7.14215 10.7951 6.95399 10.891C6.74008 11 6.46005 11 5.9 11H4.1C3.53995 11 3.25992 11 3.04601 10.891C2.85785 10.7951 2.70487 10.6422 2.60899 10.454C2.5 10.2401 2.5 9.96005 2.5 9.4V7.6Z" fill="#0000CC"/>
<path d="M9.5 7.6C9.5 7.03995 9.5 6.75992 9.60899 6.54601C9.70487 6.35785 9.85785 6.20487 10.046 6.10899C10.2599 6 10.5399 6 11.1 6H12.9C13.4601 6 13.7401 6 13.954 6.10899C14.1422 6.20487 14.2951 6.35785 14.391 6.54601C14.5 6.75992 14.5 7.03995 14.5 7.6V9.4C14.5 9.96005 14.5 10.2401 14.391 10.454C14.2951 10.6422 14.1422 10.7951 13.954 10.891C13.7401 11 13.4601 11 12.9 11H11.1C10.5399 11 10.2599 11 10.046 10.891C9.85785 10.7951 9.70487 10.6422 9.60899 10.454C9.5 10.2401 9.5 9.96005 9.5 9.4V7.6Z" fill="#0000CC"/>
<path d="M16.5 7.6C16.5 7.03995 16.5 6.75992 16.609 6.54601C16.7049 6.35785 16.8578 6.20487 17.046 6.10899C17.2599 6 17.5399 6 18.1 6H19.9C20.4601 6 20.7401 6 20.954 6.10899C21.1422 6.20487 21.2951 6.35785 21.391 6.54601C21.5 6.75992 21.5 7.03995 21.5 7.6V9.4C21.5 9.96005 21.5 10.2401 21.391 10.454C21.2951 10.6422 21.1422 10.7951 20.954 10.891C20.7401 11 20.4601 11 19.9 11H18.1C17.5399 11 17.2599 11 17.046 10.891C16.8578 10.7951 16.7049 10.6422 16.609 10.454C16.5 10.2401 16.5 9.96005 16.5 9.4V7.6Z" fill="#0000CC"/>
</svg>
