<svg width="24" height="24" viewBox="0 0 24 24" fill="none" xmlns="http://www.w3.org/2000/svg">
<path d="M12 2C12.0569 2 12.1137 2.00028 12.1704 2.00083C12.1555 2.04297 12.1416 2.08555 12.1285 2.12854C11.177 2.41694 10.4254 3.16539 10.1327 4.11505C8.55753 4.31276 7.17597 4.75291 6.12168 5.33862C4.63388 6.16518 4 7.14736 4 8C4 8.85264 4.63388 9.83482 6.12168 10.6614C7.57561 11.4691 9.65195 12 12 12C14.3481 12 16.4244 11.4691 17.8783 10.6614C19.3661 9.83482 20 8.85264 20 8C20 7.57423 19.8419 7.11616 19.4984 6.66129C19.8153 6.18566 20 5.6144 20 5C20 4.75454 19.9705 4.51596 19.9149 4.28762C21.1434 5.23571 22 6.49658 22 8C22 9.90878 20.6192 11.4266 18.8496 12.4097C17.5 13.1595 15.803 13.6777 13.9353 13.891C14.7869 15.3833 15.0076 17.0414 14.5252 18.5118C13.8414 20.5955 11.8499 22 9 22H3C2.44772 22 2 21.5523 2 21C2 20.4477 2.44772 20 3 20H9C11.1501 20 12.2586 19.0045 12.6248 17.8882C12.9841 16.7933 12.7215 15.3131 11.5626 13.9945C9.10873 13.933 6.85312 13.3556 5.1504 12.4097C3.38084 11.4266 2 9.90878 2 8C2 6.09122 3.38084 4.5734 5.1504 3.59031C6.95383 2.5884 9.37749 2 12 2Z" fill="#0000CC"/>
<path d="M15 2C15.5523 2 16 2.44772 16 3V4H17C17.5523 4 18 4.44772 18 5C18 5.55228 17.5523 6 17 6H16V7C16 7.55228 15.5523 8 15 8C14.4477 8 14 7.55228 14 7V6H13C12.4477 6 12 5.55228 12 5C12 4.44772 12.4477 4 13 4H14V3C14 2.44772 14.4477 2 15 2Z" fill="#0000CC"/>
<path d="M19 16C19.5523 16 20 16.4477 20 17V18H21C21.5523 18 22 18.4477 22 19C22 19.5523 21.5523 20 21 20H20V21C20 21.5523 19.5523 22 19 22C18.4477 22 18 21.5523 18 21V20H17C16.4477 20 16 19.5523 16 19C16 18.4477 16.4477 18 17 18H18V17C18 16.4477 18.4477 16 19 16Z" fill="#0000CC"/>
</svg>
