<svg width="24" height="24" viewBox="0 0 24 24" fill="none" xmlns="http://www.w3.org/2000/svg">
<path d="M12 2C11.4477 2 11 2.44772 11 3V4H7.2C6.0799 4 5.51984 4 5.09202 4.21799C4.71569 4.40973 4.40973 4.71569 4.21799 5.09202C4 5.51984 4 6.0799 4 7.2V7.8C4 8.9201 4 9.48016 4.21799 9.90798C4.40973 10.2843 4.71569 10.5903 5.09202 10.782C5.51984 11 6.0799 11 7.2 11H11V13H10.2C9.0799 13 8.51984 13 8.09202 13.218C7.71569 13.4097 7.40973 13.7157 7.21799 14.092C7 14.5198 7 15.0799 7 16.2V16.8C7 17.9201 7 18.4802 7.21799 18.908C7.40973 19.2843 7.71569 19.5903 8.09202 19.782C8.51984 20 9.0799 20 10.2 20H11V21C11 21.5523 11.4477 22 12 22C12.5523 22 13 21.5523 13 21V20H13.8C14.9201 20 15.4802 20 15.908 19.782C16.2843 19.5903 16.5903 19.2843 16.782 18.908C17 18.4802 17 17.9201 17 16.8V16.2C17 15.0799 17 14.5198 16.782 14.092C16.5903 13.7157 16.2843 13.4097 15.908 13.218C15.4802 13 14.9201 13 13.8 13H13V11H16.8C17.9201 11 18.4802 11 18.908 10.782C19.2843 10.5903 19.5903 10.2843 19.782 9.90798C20 9.48016 20 8.9201 20 7.8V7.2C20 6.0799 20 5.51984 19.782 5.09202C19.5903 4.71569 19.2843 4.40973 18.908 4.21799C18.4802 4 17.9201 4 16.8 4H13V3C13 2.44772 12.5523 2 12 2Z" fill="#0000CC"/>
</svg>
