<svg width="24" height="24" viewBox="0 0 24 24" fill="none" xmlns="http://www.w3.org/2000/svg">
<path d="M7.32698 4.63803C7 5.27976 7 6.11984 7 7.8V12.2C7 13.8802 7 14.7202 7.32698 15.362C7.6146 15.9265 8.07354 16.3854 8.63803 16.673C9.27976 17 10.1198 17 11.8 17H12.2C13.8802 17 14.7202 17 15.362 16.673C15.9265 16.3854 16.3854 15.9265 16.673 15.362C17 14.7202 17 13.8802 17 12.2V7.8C17 6.11984 17 5.27976 16.673 4.63803C16.3854 4.07354 15.9265 3.6146 15.362 3.32698C14.7202 3 13.8802 3 12.2 3H11.8C10.1198 3 9.27976 3 8.63803 3.32698C8.07354 3.6146 7.6146 4.07354 7.32698 4.63803Z" fill="#0000CC"/>
<path d="M4 19C3.44772 19 3 19.4477 3 20C3 20.5523 3.44772 21 4 21H20C20.5523 21 21 20.5523 21 20C21 19.4477 20.5523 19 20 19H4Z" fill="#0000CC"/>
</svg>
