<svg width="24" height="24" viewBox="0 0 24 24" fill="none" xmlns="http://www.w3.org/2000/svg">
<path d="M4 7.2C4 6.0799 4 5.51984 4.21799 5.09202C4.40973 4.71569 4.71569 4.40973 5.09202 4.21799C5.51984 4 6.0799 4 7.2 4H7.8C8.9201 4 9.48016 4 9.90798 4.21799C10.2843 4.40973 10.5903 4.71569 10.782 5.09202C11 5.51984 11 6.0799 11 7.2V11H13V10.2C13 9.0799 13 8.51984 13.218 8.09202C13.4097 7.71569 13.7157 7.40973 14.092 7.21799C14.5198 7 15.0799 7 16.2 7H16.8C17.9201 7 18.4802 7 18.908 7.21799C19.2843 7.40973 19.5903 7.71569 19.782 8.09202C20 8.51984 20 9.0799 20 10.2V11H21C21.5523 11 22 11.4477 22 12C22 12.5523 21.5523 13 21 13H20V13.8C20 14.9201 20 15.4802 19.782 15.908C19.5903 16.2843 19.2843 16.5903 18.908 16.782C18.4802 17 17.9201 17 16.8 17H16.2C15.0799 17 14.5198 17 14.092 16.782C13.7157 16.5903 13.4097 16.2843 13.218 15.908C13 15.4802 13 14.9201 13 13.8V13H11V16.8C11 17.9201 11 18.4802 10.782 18.908C10.5903 19.2843 10.2843 19.5903 9.90798 19.782C9.48016 20 8.9201 20 7.8 20H7.2C6.0799 20 5.51984 20 5.09202 19.782C4.71569 19.5903 4.40973 19.2843 4.21799 18.908C4 18.4802 4 17.9201 4 16.8V13H3C2.44772 13 2 12.5523 2 12C2 11.4477 2.44772 11 3 11H4V7.2Z" fill="#0000CC"/>
</svg>
