<svg width="24" height="24" viewBox="0 0 24 24" fill="none" xmlns="http://www.w3.org/2000/svg">
<path d="M3 2C2.44772 2 2 2.44772 2 3V21C2 21.5523 2.44772 22 3 22C3.55228 22 4 21.5523 4 21V3C4 2.44772 3.55228 2 3 2Z" fill="#0000CC"/>
<path d="M6 7.2C6 6.0799 6 5.51984 6.21799 5.09202C6.40973 4.71569 6.71569 4.40973 7.09202 4.21799C7.51984 4 8.0799 4 9.2 4H18.8C19.9201 4 20.4802 4 20.908 4.21799C21.2843 4.40973 21.5903 4.71569 21.782 5.09202C22 5.51984 22 6.0799 22 7.2V7.8C22 8.9201 22 9.48016 21.782 9.90798C21.5903 10.2843 21.2843 10.5903 20.908 10.782C20.4802 11 19.9201 11 18.8 11H9.2C8.0799 11 7.51984 11 7.09202 10.782C6.71569 10.5903 6.40973 10.2843 6.21799 9.90798C6 9.48016 6 8.9201 6 7.8V7.2Z" fill="#0000CC"/>
<path d="M6 16.2C6 15.0799 6 14.5198 6.21799 14.092C6.40973 13.7157 6.71569 13.4097 7.09202 13.218C7.51984 13 8.0799 13 9.2 13H12.8C13.9201 13 14.4802 13 14.908 13.218C15.2843 13.4097 15.5903 13.7157 15.782 14.092C16 14.5198 16 15.0799 16 16.2V16.8C16 17.9201 16 18.4802 15.782 18.908C15.5903 19.2843 15.2843 19.5903 14.908 19.782C14.4802 20 13.9201 20 12.8 20H9.2C8.0799 20 7.51984 20 7.09202 19.782C6.71569 19.5903 6.40973 19.2843 6.21799 18.908C6 18.4802 6 17.9201 6 16.8V16.2Z" fill="#0000CC"/>
</svg>
