<svg width="24" height="24" viewBox="0 0 24 24" fill="none" xmlns="http://www.w3.org/2000/svg">
<path d="M7.32698 4.63803C7 5.27976 7 6.11984 7 7.8V11H4C3.44772 11 3 11.4477 3 12C3 12.5523 3.44772 13 4 13H7V16.2C7 17.8802 7 18.7202 7.32698 19.362C7.6146 19.9265 8.07354 20.3854 8.63803 20.673C9.27976 21 10.1198 21 11.8 21H12.2C13.8802 21 14.7202 21 15.362 20.673C15.9265 20.3854 16.3854 19.9265 16.673 19.362C17 18.7202 17 17.8802 17 16.2V13H20C20.5523 13 21 12.5523 21 12C21 11.4477 20.5523 11 20 11H17V7.8C17 6.11984 17 5.27976 16.673 4.63803C16.3854 4.07354 15.9265 3.6146 15.362 3.32698C14.7202 3 13.8802 3 12.2 3H11.8C10.1198 3 9.27976 3 8.63803 3.32698C8.07354 3.6146 7.6146 4.07354 7.32698 4.63803Z" fill="#0000CC"/>
</svg>
