<svg width="24" height="24" viewBox="0 0 24 24" fill="none" xmlns="http://www.w3.org/2000/svg">
<path d="M15.5608 13.1466L21.8535 6.85378C22.8773 5.83006 22.8772 4.17028 21.8535 3.1466C20.8298 2.12298 19.1701 2.12301 18.1464 3.14667L11.8537 9.43945L15.5608 13.1466Z" fill="#0000CC"/>
<path d="M14.1466 14.5608L10.4394 10.8537L9.11525 12.1779C8.55573 12.7374 8.30203 13.4869 8.35414 14.2187C7.95915 14.0773 7.53352 14.0003 7.08989 14.0003C5.15232 14.0003 3.55852 15.4693 3.36055 17.3547C3.32741 17.6703 3.3826 17.9677 3.45694 18.221C3.71492 19.1003 3.30633 20.0381 2.48675 20.4479L2.27644 20.5531C2.06904 20.6568 1.96015 20.8895 2.01342 21.1152C2.0667 21.3408 2.26816 21.5003 2.50005 21.5003H7.08989C9.16096 21.5003 10.8399 19.8214 10.8399 17.7503C10.8399 17.3622 10.781 16.988 10.6715 16.6359C11.4377 16.7229 12.2348 16.4725 12.8224 15.885L14.1466 14.5608Z" fill="#0000CC"/>
</svg>
