<svg width="24" height="24" viewBox="0 0 24 24" fill="none" xmlns="http://www.w3.org/2000/svg">
<path d="M20.1373 2.80028C20.6408 2.37403 21.387 2.40498 21.8535 2.87146C22.3201 3.33797 22.3511 4.08425 21.9248 4.58782L15.1527 12.5876L12.2305 9.49352L20.1373 2.80028Z" fill="#0000CC"/>
<path d="M10.7017 10.7876L9.26485 12.004C8.66604 12.5109 8.37407 13.2385 8.39837 13.9597C7.99099 13.808 7.55012 13.7251 7.08989 13.7251C5.15232 13.7251 3.55852 15.1941 3.36055 17.0795C3.32741 17.395 3.3826 17.6924 3.45694 17.9458C3.71492 18.8251 3.30633 19.7629 2.48674 20.1727L2.27644 20.2778C2.06903 20.3815 1.96015 20.6142 2.01342 20.8399C2.0667 21.0656 2.26816 21.2251 2.50005 21.2251H7.08989C9.16096 21.2251 10.8399 19.5461 10.8399 17.4751C10.8399 17.0723 10.7764 16.6844 10.6589 16.3208C11.4143 16.379 12.1892 16.0885 12.721 15.4602L13.8524 14.1237L10.7017 10.7876Z" fill="#0000CC"/>
</svg>
