<svg width="24" height="24" viewBox="0 0 24 24" fill="none" xmlns="http://www.w3.org/2000/svg">
<path d="M3.70711 2.29289C3.31658 1.90237 2.68342 1.90237 2.29289 2.29289C1.90237 2.68342 1.90237 3.31658 2.29289 3.70711L9.43943 10.8536L5.36769 14.9254C4.5677 15.7253 4.11604 16.177 3.76449 16.6994C3.45269 17.1627 3.2019 17.6643 3.01832 18.1917C2.81134 18.7864 2.72103 19.4187 2.56107 20.5386L2.50528 20.9292C2.48231 21.09 2.53887 21.2519 2.65695 21.3635C2.77504 21.475 2.93993 21.5222 3.09914 21.4901L3.63941 21.3811C4.64564 21.1781 5.21381 21.0634 5.74736 20.8534C6.22072 20.6671 6.67057 20.4259 7.08768 20.1346C7.55782 19.8064 7.96764 19.3966 8.69348 18.6707L12.975 14.3892L20.2929 21.7071C20.6834 22.0976 21.3166 22.0976 21.7071 21.7071C22.0976 21.3166 22.0976 20.6834 21.7071 20.2929L3.70711 2.29289Z" fill="#0000CC"/>
<path d="M19.3892 7.97497L20.593 6.77118C21.5693 5.79487 21.5693 4.21196 20.593 3.23565C19.6167 2.25934 18.0337 2.25934 17.0574 3.23565L15.8536 4.43943L19.3892 7.97497Z" fill="#0000CC"/>
<path d="M15.7992 11.5649L17.975 9.38918L14.4394 5.85365L12.2637 8.0294L15.7992 11.5649Z" fill="#0000CC"/>
</svg>
