<svg width="24" height="24" viewBox="0 0 24 24" fill="none" xmlns="http://www.w3.org/2000/svg">
<path d="M3.70711 2.29289C3.31658 1.90237 2.68342 1.90237 2.29289 2.29289C1.90237 2.68342 1.90237 3.31658 2.29289 3.70711L6.06166 7.47587L5.24455 8.29297C4.85403 8.6835 4.85403 9.31666 5.24455 9.70718C5.63508 10.0977 6.26824 10.0977 6.65877 9.70718L7.47587 8.89008L9.43706 10.8513L5.35282 14.9335C4.55282 15.7335 4.10115 16.1851 3.7496 16.7075C3.4378 17.1708 3.18701 17.6724 3.00343 18.1999C2.79645 18.7945 2.70614 19.4268 2.54618 20.5468L2.49038 20.9374C2.46695 21.1015 2.52632 21.2665 2.6489 21.378C2.77148 21.4895 2.94135 21.533 3.10246 21.4942L4.02255 21.2726C4.95476 21.048 5.48112 20.9212 5.97527 20.7117C6.41375 20.5257 6.83046 20.2921 7.21791 20.0151C7.65452 19.703 8.03733 19.3201 8.71528 18.6421L12.9726 14.3868L20.2929 21.7071C20.6834 22.0976 21.3166 22.0976 21.7071 21.7071C22.0976 21.3166 22.0976 20.6834 21.7071 20.2929L14.3872 12.973L14.388 12.9721L10.8524 9.43657L10.8516 9.4374L8.89182 7.47761L8.89266 7.47679L7.47833 6.06247L7.4775 6.06329L3.70711 2.29289Z" fill="#0000CC"/>
<path d="M20.5914 6.77167L19.2655 8.09692L15.73 4.56138L17.0559 3.23614C18.0322 2.25983 19.6151 2.25983 20.5914 3.23614C21.5677 4.21245 21.5677 5.79536 20.5914 6.77167Z" fill="#0000CC"/>
<path d="M12.9091 7.38093L12.267 8.0227L15.8025 11.5583L17.851 9.5108C17.3625 9.0223 16.8766 8.53113 16.3907 8.03998C15.9359 7.58022 15.481 7.12035 15.024 6.66275C14.4549 6.09289 13.9852 5.62253 13.5713 5.27069C13.1414 4.90523 12.7063 4.60914 12.1881 4.4405C11.3845 4.17897 10.5187 4.17868 9.71494 4.43967C9.46395 4.52116 9.23243 4.63255 9.01153 4.76724L10.5325 6.28824C10.8756 6.21497 11.2333 6.233 11.5692 6.34232C11.7361 6.39666 11.9406 6.50945 12.276 6.79453C12.4609 6.95173 12.6655 7.14329 12.9091 7.38093Z" fill="#0000CC"/>
</svg>
