<svg width="24" height="24" viewBox="0 0 24 24" fill="none" xmlns="http://www.w3.org/2000/svg">
<path d="M4 12C4 7.58172 7.58172 4 12 4C12.1495 4 12.298 4.00409 12.4453 4.01216C12.9968 4.04236 13.4683 3.61979 13.4985 3.06833C13.5287 2.51687 13.1061 2.04535 12.5547 2.01515C12.371 2.00509 12.186 2 12 2C6.47715 2 2 6.47715 2 12C2 17.5228 6.47715 22 12 22C12.5523 22 13 21.5523 13 21C13 20.4477 12.5523 20 12 20C7.58172 20 4 16.4183 4 12Z" fill="#0000CC"/>
<path d="M21.88 10.8011C21.7701 10.2598 21.2423 9.91012 20.701 10.02C20.1598 10.1299 19.8101 10.6577 19.92 11.1989C19.9723 11.4569 20 11.7247 20 12C20 14.2091 18.2091 16 16 16C15.4477 16 15 16.4477 15 17C15 17.5523 15.4477 18 16 18C19.3137 18 22 15.3137 22 12C22 11.5903 21.9588 11.1893 21.88 10.8011Z" fill="#0000CC"/>
<path d="M20.593 6.77094L19.8891 7.47485L16.3535 3.93931L17.0574 3.23541C18.0337 2.2591 19.6167 2.2591 20.593 3.23541C21.5693 4.21172 21.5693 5.79463 20.593 6.77094Z" fill="#0000CC"/>
<path d="M11.3675 8.92538L14.9393 5.35353L18.4748 8.88906L14.6932 12.6707C13.9674 13.3966 13.5576 13.8064 13.0874 14.1346C12.6703 14.4259 12.2205 14.6671 11.7471 14.8534C11.2136 15.0634 10.6454 15.1781 9.63912 15.3811L9.0989 15.4901C8.93969 15.5222 8.77479 15.475 8.65671 15.3635C8.53862 15.2519 8.48206 15.09 8.50503 14.9292L8.56083 14.5386C8.72079 13.4187 8.8111 12.7864 9.01808 12.1917C9.20166 11.6643 9.45245 11.1627 9.76425 10.6994C10.1158 10.177 10.5675 9.72533 11.3675 8.92538Z" fill="#0000CC"/>
</svg>
