<svg width="24" height="24" viewBox="0 0 24 24" fill="none" xmlns="http://www.w3.org/2000/svg">
<path d="M20.5913 6.77176L19.2655 8.09692L15.73 4.56138L17.0559 3.23614C18.0322 2.25983 19.6151 2.25983 20.5914 3.23614C21.5677 4.21245 21.5676 5.79545 20.5913 6.77176Z" fill="#0000CC"/>
<path d="M11.8884 8.40116L14.3154 5.97525L17.851 9.5108L15.4239 11.9367L17.5366 14.0494L16.2929 15.2931C15.9024 15.6837 15.9024 16.3168 16.2929 16.7073C16.6835 17.0979 17.3166 17.0978 17.7071 16.7073L18.9508 15.4636L20.45 16.9628C20.6364 17.1492 20.7972 17.3099 20.9188 17.4532C21.0471 17.6044 21.1609 17.7686 21.2266 17.9706C21.3244 18.2718 21.3244 18.5964 21.2266 18.8976C21.1609 19.0996 21.0471 19.2638 20.9188 19.415C20.7972 19.5583 20.6364 19.719 20.45 19.9054L19.8571 20.4983C19.6707 20.6847 19.5099 20.8455 19.3667 20.9671C19.2155 21.0955 19.0512 21.2093 18.8493 21.2749C18.548 21.3728 18.2235 21.3728 17.9222 21.2749C17.7203 21.2093 17.5561 21.0955 17.4049 20.9671C17.2616 20.8455 17.1008 20.6847 16.9145 20.4984L11.8875 15.4714L8.71528 18.6421C8.03733 19.3201 7.65452 19.703 7.21791 20.0151C6.83046 20.2921 6.41375 20.5257 5.97527 20.7117C5.26127 21.0145 4.47467 21.1877 3.75098 21.3471C3.52747 21.3963 3.30997 21.4442 3.10246 21.4942C2.94135 21.533 2.77148 21.4895 2.6489 21.378C2.52632 21.2665 2.46695 21.1015 2.49038 20.9374C2.51407 20.7716 2.53618 20.5992 2.55881 20.4228C2.65026 19.7097 2.75083 18.9256 3.00343 18.1999C3.18701 17.6724 3.4378 17.1708 3.7496 16.7075C4.10115 16.1851 4.55282 15.7335 5.35282 14.9335L8.35197 11.9358L3.33046 6.91434C3.14408 6.72796 2.98328 6.56718 2.86167 6.42392C2.73331 6.27273 2.6195 6.10849 2.55388 5.90655C2.456 5.60528 2.456 5.28076 2.55388 4.9795C2.6195 4.77756 2.73331 4.61332 2.86166 4.46213C2.98327 4.31888 3.14405 4.1581 3.33043 3.97174L3.90794 3.39424L3.90975 3.39239L3.9234 3.37877C4.10976 3.1924 4.27054 3.03161 4.41379 2.91C4.56498 2.78165 4.72922 2.66784 4.93116 2.60222C5.23242 2.50434 5.55694 2.50434 5.85821 2.60222C6.06015 2.66784 6.22439 2.78165 6.37558 2.91C6.51883 3.03161 6.67961 3.19241 6.86598 3.37878L8.5365 5.04931L7.29289 6.29295C6.90237 6.68347 6.90237 7.31664 7.2929 7.70716C7.68343 8.09768 8.31659 8.09768 8.70711 7.70715L9.95072 6.46352L11.8884 8.40116Z" fill="#0000CC"/>
</svg>
