<svg width="24" height="24" viewBox="0 0 24 24" fill="none" xmlns="http://www.w3.org/2000/svg">
<path d="M20.5981 9.81574L19.4139 10.9999L12.9997 4.58572L14.1839 3.40148C14.3623 3.22303 14.5361 3.04924 14.6953 2.91409C14.8701 2.76566 15.092 2.60608 15.3817 2.51195C15.7834 2.38143 16.2161 2.38143 16.6178 2.51195C16.9075 2.60608 17.1294 2.76565 17.3043 2.91409C17.4635 3.04926 17.6373 3.22308 17.8157 3.40157L20.5981 6.18391C20.7765 6.36236 20.9504 6.53614 21.0855 6.69536C21.234 6.87021 21.3935 7.0921 21.4877 7.38181C21.6182 7.7835 21.6182 8.2162 21.4877 8.61788C21.3935 8.9076 21.234 9.12949 21.0855 9.30434C20.9505 9.46346 20.7765 9.63741 20.5981 9.81574Z" fill="#0000CC"/>
<path d="M7.42553 6.55237L11.0908 5.50523L18.4944 12.9088L17.4473 16.5741C17.2918 17.1208 17.1551 17.6017 16.8801 18.0053C16.6392 18.3589 16.3255 18.6569 15.9599 18.8793C15.5427 19.1331 15.0553 19.2449 14.5014 19.372L3.50422 21.9097L8.58609 16.8278C8.8691 16.939 9.1773 17 9.49976 17C10.8805 17 11.9998 15.8807 11.9998 14.5C11.9998 13.1193 10.8805 12 9.49976 12C8.11905 12 6.99976 13.1193 6.99976 14.5C6.99976 14.8224 7.06079 15.1305 7.17192 15.4135L2.08984 20.4957L4.62762 9.49821C4.75471 8.94429 4.86652 8.45694 5.12031 8.03974C5.34269 7.67417 5.6407 7.36039 5.99435 7.11949C6.39793 6.84456 6.87888 6.70781 7.42553 6.55237Z" fill="#0000CC"/>
</svg>
