<svg width="24" height="24" viewBox="0 0 24 24" fill="none" xmlns="http://www.w3.org/2000/svg">
<path d="M18.4246 2.89089C19.3072 2.00838 20.738 2.00837 21.6205 2.89089C22.503 3.77341 22.503 5.20425 21.6205 6.08677L16.4365 11.2707C15.959 11.7484 15.674 12.0334 15.3458 12.2619C15.0549 12.4646 14.7409 12.6321 14.4106 12.7611C14.0381 12.9065 13.6427 12.9846 12.9801 13.1155L11.616 13.3851C11.4493 13.418 11.2772 13.364 11.1592 13.2417C11.0412 13.1194 10.9934 12.9456 11.0323 12.7801L11.3611 11.3815C11.5059 10.7653 11.5924 10.3976 11.7377 10.0513C11.8665 9.74418 12.0291 9.45232 12.2223 9.18108C12.4402 8.87525 12.7073 8.60814 13.155 8.16056L18.4246 2.89089Z" fill="#0000CC"/>
<path fill-rule="evenodd" clip-rule="evenodd" d="M12.0038 15.3471L13.4674 15.0579C14.0387 14.9454 14.5962 14.8356 15.138 14.6241C15.6151 14.4379 16.0685 14.1959 16.4888 13.9032C16.9661 13.5708 17.3676 13.1687 17.7791 12.7567L21.3722 9.16355C21.4865 9.31119 21.5874 9.46993 21.673 9.63803C22 10.2798 22 11.1198 22 12.8V17.2C22 18.8802 22 19.7202 21.673 20.362C21.3854 20.9265 20.9265 21.3854 20.362 21.673C19.7202 22 18.8802 22 17.2 22H6.8C5.11984 22 4.27976 22 3.63803 21.673C3.07354 21.3854 2.6146 20.9265 2.32698 20.362C2 19.7202 2 18.8802 2 17.2V12.8C2 11.1198 2 10.2798 2.32698 9.63803C2.6146 9.07354 3.07354 8.6146 3.63803 8.32698C4.27976 8 5.11984 8 6.8 8H10.6082L10.5935 8.02056C10.3143 8.41235 10.0796 8.83392 9.89344 9.27752C9.68215 9.78114 9.56053 10.2999 9.43592 10.8314L9.08543 12.3224C8.89098 13.1496 9.12997 14.0189 9.71997 14.6304C10.31 15.2419 11.1702 15.5119 12.0038 15.3471ZM7 15C7 15.5523 6.55228 16 6 16C5.44772 16 5 15.5523 5 15C5 14.4477 5.44772 14 6 14C6.55228 14 7 14.4477 7 15Z" fill="#0000CC"/>
</svg>
