<svg width="24" height="24" viewBox="0 0 24 24" fill="none" xmlns="http://www.w3.org/2000/svg">
<path fill-rule="evenodd" clip-rule="evenodd" d="M7.91328 8.05587C8.34146 7.09595 8.99908 6.58469 9.46859 6.51051C9.66771 6.47905 9.88537 6.51195 10.1378 6.69583C10.4109 6.89478 10.7541 7.29582 11.0839 8.04945C11.2869 8.51309 11.4297 8.97332 11.5192 9.42685C11.2023 9.54752 10.8854 9.66832 10.5685 9.78912C9.90446 10.0423 9.24037 10.2955 8.57582 10.5474C7.96223 10.78 7.42333 10.9843 7.00858 11.3524C6.64574 11.6745 6.36641 12.0797 6.19455 12.5334C5.99811 13.052 5.99894 13.6283 5.99989 14.2846C6.00125 15.232 6.00083 16.1795 6.00042 17.127C6.00022 17.5847 6.00002 18.0423 6.00002 18.5C6.00002 18.8361 6.16887 19.1498 6.44945 19.3348C6.73003 19.5199 7.0848 19.5516 7.39376 19.4192C10.7531 17.9803 13.5734 14.6481 13.6358 10.761L14.7647 10.3312L14.5105 12.0732C14.4686 12.3606 14.5536 12.652 14.7436 12.8716C14.9335 13.0913 15.2096 13.2176 15.5 13.2176H18C18.5523 13.2176 19 12.7699 19 12.2176C19 11.6653 18.5523 11.2176 18 11.2176H16.6565L16.9895 8.93517C17.0407 8.58428 16.9023 8.23252 16.6256 8.01066C16.349 7.78881 15.9756 7.73006 15.6442 7.85624L13.4087 8.70741C13.2918 8.22053 13.1286 7.73286 12.9161 7.24747C12.496 6.28773 11.9642 5.55186 11.3154 5.07927C10.646 4.59161 9.89486 4.41835 9.15647 4.53501C7.75098 4.75707 6.65857 5.9592 6.08675 7.24113C5.86177 7.74551 6.08827 8.33678 6.59265 8.56177C7.09703 8.78675 7.6883 8.56025 7.91328 8.05587ZM9.41718 12.3673L11.5656 11.5493C11.2452 13.6614 9.8654 15.5895 8.00002 16.8269V14.4233C8.00002 13.5464 8.01565 13.3718 8.06486 13.2419C8.12215 13.0907 8.21526 12.9556 8.33621 12.8482C8.4401 12.756 8.5977 12.6793 9.41718 12.3673Z" fill="#0000CC"/>
<path d="M3 15C2.44772 15 2 15.4477 2 16C2 16.5523 2.44772 17 3 17H4C4.55228 17 5 16.5523 5 16C5 15.4477 4.55228 15 4 15H3Z" fill="#0000CC"/>
<path d="M15 15C14.4477 15 14 15.4477 14 16C14 16.5523 14.4477 17 15 17H21C21.5523 17 22 16.5523 22 16C22 15.4477 21.5523 15 21 15H15Z" fill="#0000CC"/>
</svg>
