<svg width="24" height="24" viewBox="0 0 24 24" fill="none" xmlns="http://www.w3.org/2000/svg">
<path fill-rule="evenodd" clip-rule="evenodd" d="M7.16146 3L8 3C8.55229 3 9 3.44772 9 4C9 4.55229 8.55229 5 8 5H7.2C6.62345 5 6.25117 5.00078 5.96784 5.02393C5.69617 5.04612 5.59546 5.0838 5.54601 5.109C5.35785 5.20487 5.20487 5.35785 5.109 5.54601C5.0838 5.59546 5.04612 5.69617 5.02393 5.96784C5.00078 6.25117 5 6.62345 5 7.2V8C5 8.55229 4.55229 9 4 9C3.44772 9 3 8.55229 3 8L3 7.16146C2.99998 6.63431 2.99997 6.17955 3.03057 5.80497C3.06287 5.40963 3.13419 5.01641 3.32698 4.63803C3.6146 4.07354 4.07354 3.6146 4.63803 3.32698C5.01641 3.13419 5.40963 3.06287 5.80497 3.03057C6.17955 2.99997 6.63431 2.99998 7.16146 3ZM18.0322 5.02393C17.7488 5.00078 17.3766 5 16.8 5H16C15.4477 5 15 4.55229 15 4C15 3.44772 15.4477 3 16 3L16.8385 3C17.3657 2.99998 17.8205 2.99997 18.195 3.03057C18.5904 3.06287 18.9836 3.13419 19.362 3.32698C19.9265 3.6146 20.3854 4.07354 20.673 4.63803C20.8658 5.01641 20.9371 5.40963 20.9694 5.80497C21 6.17954 21 6.6343 21 7.16144V8C21 8.55229 20.5523 9 20 9C19.4477 9 19 8.55229 19 8V7.2C19 6.62345 18.9992 6.25118 18.9761 5.96784C18.9539 5.69617 18.9162 5.59546 18.891 5.54601C18.7951 5.35785 18.6422 5.20487 18.454 5.109C18.4045 5.0838 18.3038 5.04612 18.0322 5.02393ZM10 4C10 3.44772 10.4477 3 11 3H13C13.5523 3 14 3.44772 14 4C14 4.55229 13.5523 5 13 5H11C10.4477 5 10 4.55229 10 4ZM4 10C4.55229 10 5 10.4477 5 11V13C5 13.5523 4.55229 14 4 14C3.44772 14 3 13.5523 3 13V11C3 10.4477 3.44772 10 4 10ZM20 10C20.5523 10 21 10.4477 21 11V13C21 13.5523 20.5523 14 20 14C19.4477 14 19 13.5523 19 13V11C19 10.4477 19.4477 10 20 10ZM4 15C4.55229 15 5 15.4477 5 16V16.8C5 17.3766 5.00078 17.7488 5.02393 18.0322C5.04612 18.3038 5.0838 18.4045 5.109 18.454C5.20487 18.6422 5.35785 18.7951 5.54601 18.891C5.59546 18.9162 5.69617 18.9539 5.96784 18.9761C6.25117 18.9992 6.62345 19 7.2 19H8C8.55229 19 9 19.4477 9 20C9 20.5523 8.55229 21 8 21H7.16144C6.6343 21 6.17954 21 5.80497 20.9694C5.40963 20.9371 5.01641 20.8658 4.63803 20.673C4.07354 20.3854 3.6146 19.9265 3.32698 19.362C3.13419 18.9836 3.06287 18.5904 3.03057 18.195C2.99997 17.8205 2.99998 17.3657 3 16.8385L3 16C3 15.4477 3.44772 15 4 15ZM20 15C20.5523 15 21 15.4477 21 16V16.8386C21 17.3657 21 17.8205 20.9694 18.195C20.9371 18.5904 20.8658 18.9836 20.673 19.362C20.3854 19.9265 19.9265 20.3854 19.362 20.673C18.9836 20.8658 18.5904 20.9371 18.195 20.9694C17.8205 21 17.3657 21 16.8386 21H16C15.4477 21 15 20.5523 15 20C15 19.4477 15.4477 19 16 19H16.8C17.3766 19 17.7488 18.9992 18.0322 18.9761C18.3038 18.9539 18.4045 18.9162 18.454 18.891C18.6422 18.7951 18.7951 18.6422 18.891 18.454C18.9162 18.4045 18.9539 18.3038 18.9761 18.0322C18.9992 17.7488 19 17.3766 19 16.8V16C19 15.4477 19.4477 15 20 15ZM10 20C10 19.4477 10.4477 19 11 19H13C13.5523 19 14 19.4477 14 20C14 20.5523 13.5523 21 13 21H11C10.4477 21 10 20.5523 10 20Z" fill="#0000CC"/>
</svg>
