<svg width="24" height="24" viewBox="0 0 24 24" fill="none" xmlns="http://www.w3.org/2000/svg">
<path fill-rule="evenodd" clip-rule="evenodd" d="M11.1614 1.9999C11.2093 1.99997 11.2577 2.00004 11.3064 2.00004H12.6936C12.7423 2.00004 12.7907 1.99997 12.8386 1.9999C13.5221 1.99888 14.122 1.99798 14.6565 2.2082C15.1239 2.39202 15.5376 2.69024 15.8598 3.07551C16.2283 3.51612 16.4171 4.08549 16.6323 4.73421C16.6474 4.77971 16.6626 4.82561 16.678 4.87188L16.7208 5.00004H17.9903C17.9961 4.99999 18.0019 4.99999 18.0078 5.00004H20C20.5523 5.00004 21 5.44776 21 6.00004C21 6.55232 20.5523 7.00004 20 7.00004H18.9356L18.1945 18.1164C18.1615 18.6109 18.133 19.0392 18.0812 19.3917C18.0264 19.7651 17.9358 20.1336 17.7356 20.485C17.4355 21.0118 16.9828 21.4353 16.4372 21.6997C16.0732 21.8761 15.6995 21.942 15.3233 21.9719C14.9681 22.0001 14.5389 22.0001 14.0432 22H9.95676C9.46111 22.0001 9.03187 22.0001 8.67668 21.9719C8.30052 21.942 7.9268 21.8761 7.56278 21.6997C7.0172 21.4353 6.56454 21.0118 6.26443 20.485C6.0642 20.1336 5.9736 19.7651 5.91878 19.3917C5.86702 19.0392 5.83849 18.6109 5.80553 18.1163L5.06445 7.00004H4C3.44772 7.00004 3 6.55232 3 6.00004C3 5.44776 3.44772 5.00004 4 5.00004H5.99225C5.99809 4.99999 6.00392 4.99999 6.00974 5.00004H7.27924L7.32196 4.87188C7.33738 4.82562 7.3526 4.77972 7.3677 4.73422C7.58286 4.0855 7.77171 3.51612 8.14017 3.07551C8.46236 2.69024 8.87612 2.39202 9.3435 2.2082C9.87802 1.99798 10.4779 1.99888 11.1614 1.9999ZM14.6094 5.00004H9.39062C9.54424 4.56085 9.60391 4.44283 9.6744 4.35853C9.7818 4.23011 9.91972 4.1307 10.0755 4.06943C10.2092 4.01685 10.3917 4.00004 11.3064 4.00004H12.6936C13.6083 4.00004 13.7908 4.01685 13.9245 4.06943C14.0803 4.1307 14.2182 4.23011 14.3256 4.35853C14.3961 4.44283 14.4558 4.56085 14.6094 5.00004Z" fill="#0000CC"/>
</svg>
