<svg width="24" height="24" viewBox="0 0 24 24" fill="none" xmlns="http://www.w3.org/2000/svg">
<path fill-rule="evenodd" clip-rule="evenodd" d="M11.1614 1.9999C10.4779 1.99888 9.87802 1.99798 9.3435 2.2082C8.87612 2.39202 8.46236 2.69024 8.14017 3.07551C7.77171 3.51612 7.58286 4.0855 7.3677 4.73422L7.27924 5.00004H4C3.44772 5.00004 3 5.44776 3 6.00004C3 6.55232 3.44772 7.00004 4 7.00004H5.06445L5.80553 18.1163C5.83849 18.6109 5.86702 19.0392 5.91878 19.3917C5.9736 19.7651 6.0642 20.1336 6.26443 20.485C6.56454 21.0118 7.0172 21.4353 7.56278 21.6997C7.9268 21.8761 8.30052 21.942 8.67668 21.9719C9.03186 22.0001 9.46109 22.0001 9.95674 22H14.0432C14.5389 22.0001 14.9681 22.0001 15.3233 21.9719C15.6995 21.942 16.0732 21.8761 16.4372 21.6997C16.9828 21.4353 17.4355 21.0118 17.7356 20.485C17.9358 20.1336 18.0264 19.7651 18.0812 19.3917C18.133 19.0392 18.1615 18.6109 18.1945 18.1164L18.9356 7.00004H20C20.5523 7.00004 21 6.55232 21 6.00004C21 5.44776 20.5523 5.00004 20 5.00004H16.7208L16.6323 4.73421C16.4171 4.08549 16.2283 3.51612 15.8598 3.07551C15.5376 2.69024 15.1239 2.39202 14.6565 2.2082C14.122 1.99798 13.5221 1.99888 12.8386 1.9999H11.1614ZM9.39062 5.00004H14.6094C14.4558 4.56085 14.3961 4.44283 14.3256 4.35853C14.2182 4.23011 14.0803 4.1307 13.9245 4.06943C13.7908 4.01685 13.6083 4.00004 12.6936 4.00004H11.3064C10.3917 4.00004 10.2092 4.01685 10.0755 4.06943C9.91972 4.1307 9.7818 4.23011 9.6744 4.35853C9.60391 4.44283 9.54424 4.56085 9.39062 5.00004ZM15.7071 12.7069C16.0976 12.3163 16.0976 11.6832 15.7071 11.2926C15.3166 10.9021 14.6834 10.9021 14.2929 11.2926L11 14.5855L9.70711 13.2926C9.31658 12.9021 8.68342 12.9021 8.29289 13.2926C7.90237 13.6832 7.90237 14.3163 8.29289 14.7069L10.2929 16.7069C10.6834 17.0974 11.3166 17.0974 11.7071 16.7069L15.7071 12.7069Z" fill="#0000CC"/>
</svg>
