<svg width="24" height="24" viewBox="0 0 24 24" fill="none" xmlns="http://www.w3.org/2000/svg">
<path fill-rule="evenodd" clip-rule="evenodd" d="M9.3435 2.20796C9.87802 1.99774 10.4779 1.99863 11.1614 1.99965H12.8386C13.5221 1.99863 14.122 1.99774 14.6565 2.20796C15.1239 2.39178 15.5376 2.69 15.8598 3.07527C16.2283 3.51587 16.4171 4.08525 16.6323 4.73396L16.7208 4.9998H20C20.5523 4.9998 21 5.44751 21 5.9998C21 6.55208 20.5523 6.9998 20 6.9998H19V10.2899C18.3663 10.1013 17.695 10 17 10C13.134 10 10 13.134 10 17C10 18.9586 10.8044 20.7293 12.1008 21.9998H10.7587C9.95372 21.9998 9.28936 21.9998 8.74817 21.9556C8.18608 21.9097 7.66937 21.8111 7.18404 21.5638C6.43139 21.1803 5.81947 20.5684 5.43597 19.8158C5.18868 19.3304 5.09012 18.8137 5.04419 18.2516C4.99998 17.7104 4.99999 17.0461 5 16.2411L5 6.9998H4C3.44772 6.9998 3 6.55208 3 5.9998C3 5.44751 3.44772 4.9998 4 4.9998H7.27924L7.3677 4.73397C7.58286 4.08525 7.77171 3.51588 8.14017 3.07527C8.46236 2.69 8.87612 2.39178 9.3435 2.20796ZM14.6094 4.9998H9.39062C9.54424 4.5606 9.60391 4.44258 9.6744 4.35829C9.7818 4.22986 9.91972 4.13046 10.0755 4.06918C10.2092 4.0166 10.3917 3.9998 11.3064 3.9998H12.6936C13.6083 3.9998 13.7908 4.0166 13.9245 4.06918C14.0803 4.13046 14.2182 4.22986 14.3256 4.35829C14.3961 4.44258 14.4558 4.5606 14.6094 4.9998Z" fill="#0000CC"/>
<path fill-rule="evenodd" clip-rule="evenodd" d="M17 12C14.2386 12 12 14.2386 12 17C12 19.7614 14.2386 22 17 22C19.7614 22 22 19.7614 22 17C22 14.2386 19.7614 12 17 12ZM17 14C17.5523 14 18 14.4477 18 15V16H19C19.5523 16 20 16.4477 20 17C20 17.5523 19.5523 18 19 18H17C16.4477 18 16 17.5523 16 17V15C16 14.4477 16.4477 14 17 14Z" fill="#0000CC"/>
</svg>
