<svg width="24" height="24" viewBox="0 0 24 24" fill="none" xmlns="http://www.w3.org/2000/svg">
<path fill-rule="evenodd" clip-rule="evenodd" d="M11.1614 1.99965C10.4779 1.99863 9.87802 1.99774 9.3435 2.20796C8.87612 2.39178 8.46236 2.69 8.14017 3.07527C7.77171 3.51588 7.58286 4.08525 7.3677 4.73397L7.27924 4.9998H4C3.44772 4.9998 3 5.44751 3 5.9998C3 6.55208 3.44772 6.9998 4 6.9998H5L5 16.2411C4.99999 17.0461 4.99998 17.7104 5.04419 18.2516C5.09012 18.8137 5.18868 19.3304 5.43597 19.8158C5.81947 20.5684 6.43139 21.1803 7.18404 21.5638C7.66937 21.8111 8.18608 21.9097 8.74817 21.9556C9.28936 21.9998 9.95372 21.9998 10.7587 21.9998H13.2413C14.0463 21.9998 14.7106 21.9998 15.2518 21.9556C15.8139 21.9097 16.3306 21.8111 16.816 21.5638C17.5686 21.1803 18.1805 20.5684 18.564 19.8158C18.8113 19.3304 18.9099 18.8137 18.9558 18.2516C19 17.7104 19 17.0461 19 16.2411V6.9998H20C20.5523 6.9998 21 6.55208 21 5.9998C21 5.44751 20.5523 4.9998 20 4.9998H16.7208L16.6323 4.73396C16.4171 4.08525 16.2283 3.51587 15.8598 3.07527C15.5376 2.69 15.1239 2.39178 14.6565 2.20796C14.122 1.99774 13.5221 1.99863 12.8386 1.99965H11.1614ZM9.39062 4.9998H14.6094C14.4558 4.5606 14.3961 4.44258 14.3256 4.35829C14.2182 4.22986 14.0803 4.13046 13.9245 4.06918C13.7908 4.0166 13.6083 3.9998 12.6936 3.9998H11.3064C10.3917 3.9998 10.2092 4.0166 10.0755 4.06918C9.91972 4.13046 9.7818 4.22986 9.6744 4.35829C9.60391 4.44258 9.54424 4.5606 9.39062 4.9998ZM15.7071 12.7069C16.0976 12.3163 16.0976 11.6832 15.7071 11.2926C15.3166 10.9021 14.6834 10.9021 14.2929 11.2926L11 14.5855L9.70711 13.2926C9.31658 12.9021 8.68342 12.9021 8.29289 13.2926C7.90237 13.6832 7.90237 14.3163 8.29289 14.7069L10.2929 16.7069C10.6834 17.0974 11.3166 17.0974 11.7071 16.7069L15.7071 12.7069Z" fill="#0000CC"/>
</svg>
