<svg width="24" height="24" viewBox="0 0 24 24" fill="none" xmlns="http://www.w3.org/2000/svg">
<path d="M17.7677 2.12645C18.1694 1.99594 18.6021 1.99594 19.0038 2.12645C19.2935 2.22059 19.5154 2.38016 19.6902 2.52859C19.8495 2.66374 20.0232 2.83758 20.2017 3.01605L20.8125 3.6269C20.991 3.80533 21.1648 3.97909 21.2999 4.13829C21.4484 4.31313 21.608 4.53503 21.7021 4.82474C21.8326 5.22643 21.8326 5.65913 21.7021 6.06081C21.608 6.35053 21.4484 6.57242 21.2999 6.74727C21.1648 6.90647 20.991 7.08023 20.8125 7.25865L18.2427 9.82848L14.0001 5.58584L16.5698 3.01608C16.7483 2.83759 16.922 2.66376 17.0813 2.52859C17.2561 2.38016 17.478 2.22059 17.7677 2.12645Z" fill="#0000CC"/>
<path d="M12.5858 7.00005L2.96795 16.6179C2.78947 16.7964 2.61565 16.9702 2.48049 17.1294C2.33206 17.3042 2.17249 17.5261 2.07836 17.8158C1.94784 18.2175 1.94784 18.6502 2.07836 19.0519C2.17249 19.3416 2.33206 19.5635 2.48049 19.7383C2.61566 19.8976 2.78948 20.0713 2.96797 20.2498L3.57881 20.8606C3.75723 21.0391 3.93099 21.2129 4.09019 21.348C4.26504 21.4965 4.48693 21.656 4.77665 21.7502C5.17833 21.8807 5.61103 21.8807 6.01272 21.7502C6.30243 21.656 6.52433 21.4965 6.69917 21.348C6.85837 21.2129 7.03213 21.0391 7.21054 20.8606L16.8285 11.2427L12.5858 7.00005Z" fill="#0000CC"/>
</svg>
