<svg width="24" height="24" viewBox="0 0 24 24" fill="none" xmlns="http://www.w3.org/2000/svg">
<path fill-rule="evenodd" clip-rule="evenodd" d="M8.30005 5.7C8.30005 3.65655 9.9566 2 12 2C14.0435 2 15.7 3.65655 15.7 5.7C15.7 7.74345 14.0435 9.4 12 9.4C9.9566 9.4 8.30005 7.74345 8.30005 5.7Z" fill="#0000CC"/>
<path opacity="0.3" d="M11 9.26329V19.9371C9.24698 19.7163 7.60576 18.9194 6.34315 17.6568C5.08052 16.3942 4.28353 14.7529 4.06272 12.9999L5 12.9999C5.55228 12.9999 6 12.5522 6 11.9999C6 11.4477 5.55228 10.9999 5 10.9999L3 10.9999C2.44772 10.9999 2 11.4477 2 11.9999C2 14.6521 3.05357 17.1957 4.92893 19.071C6.80432 20.9464 9.34786 21.9999 12 21.9999C14.6521 21.9999 17.1957 20.9464 19.0711 19.071C20.9464 17.1957 22 14.6521 22 11.9999C22 11.4477 21.5523 10.9999 21 10.9999H19C18.4477 10.9999 18 11.4477 18 11.9999C18 12.5522 18.4477 12.9999 19 12.9999H19.9373C19.7165 14.7529 18.9195 16.3942 17.6569 17.6568C16.3942 18.9194 14.753 19.7163 13 19.9371V9.26318C12.6819 9.3523 12.3464 9.39996 11.9998 9.39996C11.6534 9.39996 11.318 9.35234 11 9.26329Z" fill="#0000CC"/>
</svg>
