<svg width="24" height="24" viewBox="0 0 24 24" fill="none" xmlns="http://www.w3.org/2000/svg">
<path opacity="0.3" fill-rule="evenodd" clip-rule="evenodd" d="M11.0727 1.97496C11.6752 1.77918 12.3243 1.77918 12.9268 1.97496C13.3307 2.10618 13.6592 2.3338 13.9616 2.59052C14.2481 2.83374 14.5696 3.15532 14.9424 3.52808L20.4715 9.05722C20.8443 9.42994 21.1658 9.75148 21.409 10.038C21.6657 10.3404 21.8934 10.6688 22.0246 11.0727C22.2204 11.6752 22.2204 12.3243 22.0246 12.9268C21.8934 13.3307 21.6657 13.6592 21.409 13.9616C21.1658 14.248 20.8442 14.5696 20.4715 14.9423L14.9423 20.4716C14.5696 20.8443 14.248 21.1658 13.9616 21.409C13.6592 21.6657 13.3307 21.8934 12.9268 22.0246C12.3243 22.2204 11.6752 22.2204 11.0727 22.0246C10.6688 21.8934 10.3404 21.6657 10.038 21.409C9.75148 21.1658 9.42993 20.8442 9.05721 20.4715L3.52804 14.9423C3.15529 14.5696 2.83373 14.2481 2.59051 13.9616C2.3338 13.6592 2.10618 13.3307 1.97496 12.9268C1.77918 12.3243 1.77918 11.6752 1.97496 11.0727C2.10618 10.6688 2.3338 10.3404 2.59051 10.038C2.83374 9.75147 3.15532 9.42991 3.52808 9.05717L9.05716 3.52809C9.42991 3.15532 9.75147 2.83374 10.038 2.59051C10.3404 2.3338 10.6688 2.10618 11.0727 1.97496Z" fill="#0000CC"/>
<path fill-rule="evenodd" clip-rule="evenodd" d="M13.7071 9.29289C13.3166 8.90237 12.6834 8.90237 12.2929 9.29289C11.9024 9.68342 11.9024 10.3166 12.2929 10.7071L12.5858 11H9C8.44772 11 8 11.4477 8 12V14C8 14.5523 8.44772 15 9 15C9.55228 15 10 14.5523 10 14V13H12.5858L12.2929 13.2929C11.9024 13.6834 11.9024 14.3166 12.2929 14.7071C12.6834 15.0976 13.3166 15.0976 13.7071 14.7071L15.7071 12.7071C16.0976 12.3166 16.0976 11.6834 15.7071 11.2929L13.7071 9.29289Z" fill="#0000CC"/>
</svg>
