<svg width="24" height="24" viewBox="0 0 24 24" fill="none" xmlns="http://www.w3.org/2000/svg">
<path opacity="0.3" fill-rule="evenodd" clip-rule="evenodd" d="M4 10.2C4 5.69801 7.55535 2 12 2C16.4446 2 20 5.69801 20 10.2C20 12.4965 18.9859 14.5068 17.613 16.3405C16.4671 17.871 15.0003 19.3666 13.5411 20.8543C13.2654 21.1355 12.99 21.4163 12.717 21.6971C12.5287 21.8907 12.2701 22 12 22C11.7299 22 11.4713 21.8907 11.283 21.6971C11.01 21.4163 10.7346 21.1355 10.4589 20.8543C8.99974 19.3666 7.53292 17.871 6.38702 16.3405C5.01406 14.5068 4 12.4965 4 10.2Z" fill="#0000CC"/>
<path fill-rule="evenodd" clip-rule="evenodd" d="M13 7C13 6.44772 12.5523 6 12 6C11.4477 6 11 6.44772 11 7V9.00027L9.00014 9C8.44785 8.99992 8.00008 9.44758 8 9.99986C7.99992 10.5521 8.44758 10.9999 8.99986 11L11 11.0003V13C11 13.5523 11.4477 14 12 14C12.5523 14 13 13.5523 13 13V11.0005L14.9999 11.0008C15.5521 11.0009 15.9999 10.5532 16 10.001C16.0001 9.44867 15.5524 9.0009 15.0001 9.00082L13 9.00055V7Z" fill="#0000CC"/>
</svg>
