<svg width="24" height="24" viewBox="0 0 24 24" fill="none" xmlns="http://www.w3.org/2000/svg">
<path opacity="0.3" d="M14.5 10H15.7212C16.105 10.451 16.5225 10.8923 16.9255 11.3182C17.0419 11.4413 17.1576 11.5636 17.2705 11.6839C17.4595 11.8856 17.7236 12 18 12H14.5C13.6716 12 13 12.6716 13 13.5C13 14.3284 13.6716 15 14.5 15H17.5C19.433 15 21 16.567 21 18.5C21 20.433 19.433 22 17.5 22H6C6.27641 22 6.54049 21.8856 6.72954 21.6839C6.84253 21.5634 6.9579 21.4415 7.07448 21.3183C7.47749 20.8923 7.89498 20.451 8.27878 20H17.5C18.3284 20 19 19.3284 19 18.5C19 17.6716 18.3284 17 17.5 17H14.5C12.567 17 11 15.433 11 13.5C11 11.567 12.567 10 14.5 10Z" fill="#0000CC"/>
<path fill-rule="evenodd" clip-rule="evenodd" d="M14 6.2C14 3.94218 15.731 2 18 2C20.269 2 22 3.94218 22 6.2C22 7.38098 21.4954 8.38642 20.8733 9.24811C20.3584 9.96121 19.6991 10.6581 19.0745 11.3182C18.9581 11.4413 18.8424 11.5636 18.7295 11.6839C18.5405 11.8856 18.2764 12 18 12C17.7236 12 17.4595 11.8856 17.2705 11.6839C17.1576 11.5636 17.0425 11.4419 16.9261 11.3188C16.3015 10.6587 15.6416 9.96121 15.1267 9.24811C14.5046 8.38642 14 7.38098 14 6.2ZM20 6C20 7.10457 19.1046 8 18 8C16.8954 8 16 7.10457 16 6C16 4.89543 16.8954 4 18 4C19.1046 4 20 4.89543 20 6Z" fill="#0000CC"/>
<path fill-rule="evenodd" clip-rule="evenodd" d="M2 16.2C2 13.9422 3.73105 12 6 12C8.26895 12 10 13.9422 10 16.2C10 17.381 9.49541 18.3864 8.87326 19.2481C8.35841 19.9612 7.69907 20.6581 7.07448 21.3183C6.9579 21.4415 6.84253 21.5634 6.72954 21.6839C6.54049 21.8856 6.27641 22 6 22C5.72359 22 5.45951 21.8856 5.27046 21.6839C5.15788 21.5639 5.04295 21.4424 4.92681 21.3196L4.92575 21.3185C4.30118 20.6583 3.64157 19.9612 3.12674 19.2481C2.50459 18.3864 2 17.381 2 16.2ZM6 18C7.10457 18 8 17.1046 8 16C8 14.8954 7.10457 14 6 14C4.89543 14 4 14.8954 4 16C4 17.1046 4.89543 18 6 18Z" fill="#0000CC"/>
</svg>
