<svg width="24" height="24" viewBox="0 0 24 24" fill="none" xmlns="http://www.w3.org/2000/svg">
<path opacity="0.3" fill-rule="evenodd" clip-rule="evenodd" d="M2 11C2 6.02944 6.02944 2 11 2C15.9706 2 20 6.02944 20 11C20 15.9706 15.9706 20 11 20C6.02944 20 2 15.9706 2 11Z" fill="#0000CC"/>
<path d="M11 5C10.4477 5 10 5.44772 10 6C10 6.55228 10.4477 7 11 7C13.2091 7 15 8.79086 15 11C15 11.5523 15.4477 12 16 12C16.5523 12 17 11.5523 17 11C17 7.68629 14.3137 5 11 5Z" fill="#0000CC"/>
<path d="M20.2926 21.7068L16.6196 18.0305C17.1416 17.6127 17.616 17.1381 18.0335 16.6159L21.7075 20.2932C22.0978 20.6839 22.0975 21.3171 21.7069 21.7074C21.3162 22.0978 20.683 22.0975 20.2926 21.7068Z" fill="#0000CC"/>
</svg>
