<svg width="24" height="24" viewBox="0 0 24 24" fill="none" xmlns="http://www.w3.org/2000/svg">
<path fill-rule="evenodd" clip-rule="evenodd" d="M8.30078 5.7C8.30078 3.65655 9.95733 2 12.0008 2C14.0442 2 15.7008 3.65655 15.7008 5.7C15.7008 7.74345 14.0442 9.4 12.0008 9.4C9.95733 9.4 8.30078 7.74345 8.30078 5.7Z" fill="#0000CC"/>
<path opacity="0.3" d="M11 9.26332V19.9372C9.24698 19.7164 7.60576 18.9194 6.34315 17.6568C5.08052 16.3942 4.28353 14.753 4.06272 13L5 13C5.55228 13 6 12.5523 6 12C6 11.4477 5.55228 11 5 11L3 11C2.44772 11 2 11.4477 2 12C2 14.6521 3.05357 17.1957 4.92893 19.071C6.80432 20.9464 9.34786 21.9999 12 21.9999C14.6521 21.9999 17.1957 20.9464 19.0711 19.071C20.9464 17.1957 22 14.6521 22 12C22 11.4477 21.5523 11 21 11H19C18.4477 11 18 11.4477 18 12C18 12.5523 18.4477 13 19 13H19.9373C19.7165 14.753 18.9195 16.3942 17.6569 17.6568C16.3942 18.9194 14.753 19.7164 13 19.9372V9.26321C12.6819 9.35233 12.3464 9.39999 11.9998 9.39999C11.6534 9.39999 11.318 9.35237 11 9.26332Z" fill="#0000CC"/>
</svg>
