<svg width="24" height="24" viewBox="0 0 24 24" fill="none" xmlns="http://www.w3.org/2000/svg">
<path d="M5.48242 16H18.5172L17.7395 14H6.2602L5.48242 16Z" fill="#0000CC"/>
<path d="M7.42687 11H16.5728L15.795 9H8.20465L7.42687 11Z" fill="#0000CC"/>
<g opacity="0.3">
<path d="M18.5174 16L19.6841 19H21C21.5523 19 22 19.4477 22 20C22 20.5522 21.5523 21 21 21H19.0234C19.0079 21.0003 18.9925 21.0003 18.9771 21H5.02289C5.00751 21.0003 4.99208 21.0003 4.97663 21H3C2.44772 21 2 20.5522 2 20C2 19.4477 2.44772 19 3 19H4.31593L5.4826 16H18.5174Z" fill="#0000CC"/>
<path d="M17.7396 14L16.573 11H7.42704L6.26038 14H17.7396Z" fill="#0000CC"/>
<path d="M8.20482 8.99995H15.7952L14.6149 5.96495C14.3652 5.32269 14.1538 4.77914 13.9546 4.37505C13.7687 3.99788 13.4887 3.50764 12.9881 3.24704C12.3688 2.92465 11.6312 2.92465 11.0119 3.24704C10.5113 3.50764 10.2313 3.99788 10.0454 4.37505C9.84621 4.77915 9.63484 5.3227 9.38509 5.96497L8.20482 8.99995Z" fill="#0000CC"/>
</g>
</svg>
