<svg width="24" height="24" viewBox="0 0 24 24" fill="none" xmlns="http://www.w3.org/2000/svg">
<path d="M12 22C17.5228 22 22 17.5228 22 12C22 9.59873 21.1536 7.39514 19.7429 5.67126L12.4142 12.9999H15.5C16.0523 12.9999 16.5 13.4477 16.5 13.9999C16.5 14.5522 16.0523 14.9999 15.5 14.9999H10C9.44771 14.9999 9 14.5522 9 13.9999V8.49995C9 7.94766 9.44771 7.49995 10 7.49995C10.5523 7.49995 11 7.94766 11 8.49995V11.5857L18.3287 4.25705C16.6049 2.84636 14.4013 2 12 2C6.47715 2 2 6.47715 2 12C2 17.5228 6.47715 22 12 22Z" fill="#0000CC"/>
</svg>
