<svg width="24" height="24" viewBox="0 0 24 24" fill="none" xmlns="http://www.w3.org/2000/svg">
<path fill-rule="evenodd" clip-rule="evenodd" d="M12 3C12.5523 3 13 3.44772 13 4V17.5858L15.2929 15.2929C15.6834 14.9024 16.3166 14.9024 16.7071 15.2929C17.0976 15.6834 17.0976 16.3166 16.7071 16.7071L12.7071 20.7071C12.5196 20.8946 12.2652 21 12 21C11.7348 21 11.4804 20.8946 11.2929 20.7071L7.29289 16.7071C6.90237 16.3166 6.90237 15.6834 7.29289 15.2929C7.68342 14.9024 8.31658 14.9024 8.70711 15.2929L11 17.5858V4C11 3.44772 11.4477 3 12 3Z" fill="#0000CC"/>
</svg>
