<svg width="24" height="24" viewBox="0 0 24 24" fill="none" xmlns="http://www.w3.org/2000/svg">
<path d="M3 10.9995C2.44772 10.9995 2 11.4472 2 11.9995C2 12.5518 2.44772 12.9995 3 12.9995H12.5858L10.2929 15.2924C9.90237 15.6829 9.90237 16.3161 10.2929 16.7066C10.6834 17.0971 11.3166 17.0971 11.7071 16.7066L15.7071 12.7066C16.0976 12.3161 16.0976 11.6829 15.7071 11.2924L11.7071 7.29241C11.3166 6.90188 10.6834 6.90188 10.2929 7.29241C9.90237 7.68293 9.90237 8.3161 10.2929 8.70662L12.5858 10.9995H3Z" fill="#0000CC"/>
<path d="M10 20.9995V18.8287C11.0553 19.2009 12.2772 18.9649 13.1213 18.1208L17.1213 14.1208C18.2929 12.9493 18.2929 11.0498 17.1213 9.87819L13.1213 5.87819C12.2772 5.03412 11.0553 4.79817 10 5.17035V2.99951C10 2.44723 10.4477 1.99951 11 1.99951H17.8378C18.3649 1.99949 18.8197 1.99948 19.1942 2.03008C19.5896 2.06238 19.9828 2.1337 20.3612 2.32649C20.9257 2.61411 21.3846 3.07305 21.6722 3.63754C21.865 4.01592 21.9363 4.40914 21.9686 4.80448C21.9993 5.17906 21.9992 5.63384 21.9992 6.16099V17.8381C21.9992 18.3652 21.9993 18.82 21.9686 19.1945C21.9363 19.5899 21.865 19.9831 21.6722 20.3615C21.3846 20.926 20.9257 21.3849 20.3612 21.6725C19.9828 21.8653 19.5896 21.9366 19.1942 21.9689C18.8197 21.9995 18.3649 21.9995 17.8378 21.9995H11C10.4477 21.9995 10 21.5518 10 20.9995Z" fill="#0000CC"/>
</svg>
