<svg width="24" height="24" viewBox="0 0 24 24" fill="none" xmlns="http://www.w3.org/2000/svg">
<path fill-rule="evenodd" clip-rule="evenodd" d="M12 4C7.58172 4 4 7.58172 4 12C4 16.4183 7.58172 20 12 20C16.1256 20 19.566 16.8801 20.006 12.8875C20.0665 12.3385 20.5606 11.9425 21.1095 12.003C21.6585 12.0635 22.0545 12.5576 21.994 13.1066C21.4418 18.1167 17.1415 22 12 22C6.47715 22 2 17.5228 2 12C2 6.47715 6.47715 2 12 2C15.0895 2 17.795 3.37027 19.6044 5.55466C19.8087 5.14287 20.2783 4.9138 20.7425 5.02986C21.2783 5.16381 21.6041 5.70674 21.4701 6.24254L20.9701 8.24254C20.8589 8.6877 20.4589 9 20 9H18C17.4477 9 17 8.55228 17 8C17 7.44772 17.4477 7 18 7H18.2011C16.7572 5.15617 14.5453 4 12 4ZM6 10.5C6 9.11929 7.11929 8 8.5 8C9.88071 8 11 9.11929 11 10.5V11C11 11.3348 10.8872 11.6246 10.7788 11.8344C10.6658 12.053 10.5195 12.2573 10.3708 12.4388C10.2152 12.6287 10.037 12.8178 9.85011 13H10C10.5523 13 11 13.4477 11 14C11 14.5523 10.5523 15 10 15H7C6.56157 15 6.17427 14.7144 6.04468 14.2956C5.91509 13.8767 6.07344 13.4223 6.43527 13.1747C6.65986 13.021 7.37367 12.5219 8.02256 11.9617C8.34956 11.6794 8.63167 11.4058 8.8237 11.1714C9.01091 10.9429 9 10.7911 9 10.5C9 10.2239 8.77614 10 8.5 10C8.22386 10 8 10.2239 8 10.5V11C8 11.5523 7.55228 12 7 12C6.44772 12 6 11.5523 6 11V10.5ZM13 8C13.5523 8 14 8.44772 14 9V11H15V10C15 9.44772 15.4477 9 16 9C16.5523 9 17 9.44772 17 10V14C17 14.5523 16.5523 15 16 15C15.4477 15 15 14.5523 15 14V13H13C12.4477 13 12 12.5523 12 12V9C12 8.44772 12.4477 8 13 8Z" fill="#0000CC"/>
</svg>
