<svg width="24" height="24" viewBox="0 0 24 24" fill="none" xmlns="http://www.w3.org/2000/svg">
<path d="M21.7071 12.7066C22.0976 12.3161 22.0976 11.6829 21.7071 11.2924L17.7071 7.29241C17.3166 6.90188 16.6834 6.90188 16.2929 7.29241C15.9024 7.68293 15.9024 8.3161 16.2929 8.70662L18.5858 10.9995H9C8.44771 10.9995 8 11.4472 8 11.9995C8 12.5518 8.44771 12.9995 9 12.9995H18.5858L16.2929 15.2924C15.9024 15.6829 15.9024 16.3161 16.2929 16.7066C16.6834 17.0971 17.3166 17.0971 17.7071 16.7066L21.7071 12.7066Z" fill="#0000CC"/>
<path d="M14 2.99952V8.99951H9C7.34315 8.99951 6 10.3427 6 11.9995C6 13.6564 7.34315 14.9995 9 14.9995H14V20.9995C14 21.5518 13.5523 21.9995 13 21.9995H6.16221C5.63507 21.9995 5.18032 21.9995 4.80575 21.9689C4.41041 21.9366 4.01719 21.8653 3.63881 21.6725C3.07433 21.3849 2.61538 20.926 2.32776 20.3615C2.13497 19.9831 2.06365 19.5899 2.03135 19.1945C2.00075 18.82 2.00076 18.3652 2.00078 17.838V6.16096C2.00076 5.63382 2.00075 5.17906 2.03135 4.80449C2.06365 4.40914 2.13497 4.01592 2.32776 3.63754C2.61538 3.07306 3.07432 2.61412 3.63881 2.3265C4.01719 2.1337 4.41041 2.06239 4.80575 2.03008C5.18031 1.99948 5.63508 1.9995 6.1622 1.99951L13 1.99951C13.5523 1.99951 14 2.44723 14 2.99952Z" fill="#0000CC"/>
</svg>
