<svg width="24" height="24" viewBox="0 0 24 24" fill="none" xmlns="http://www.w3.org/2000/svg">
<path d="M13 3C13 2.44772 12.5523 2 12 2C11.4477 2 11 2.44772 11 3V12.5858L8.70711 10.2929C8.31658 9.90237 7.68342 9.90237 7.29289 10.2929C6.90237 10.6834 6.90237 11.3166 7.29289 11.7071L11.2929 15.7071C11.6834 16.0976 12.3166 16.0976 12.7071 15.7071L16.7071 11.7071C17.0976 11.3166 17.0976 10.6834 16.7071 10.2929C16.3166 9.90237 15.6834 9.90237 15.2929 10.2929L13 12.5858V3Z" fill="#0000CC"/>
<path d="M3 10H5.17084C4.79865 11.0553 5.0346 12.2772 5.87868 13.1213L9.87868 17.1213C11.0503 18.2929 12.9497 18.2929 14.1213 17.1213L18.1213 13.1213C18.9654 12.2772 19.2013 11.0553 18.8292 10H21C21.5523 10 22 10.4477 22 11V17.8378C22 18.3649 22 18.8197 21.9694 19.1942C21.9371 19.5896 21.8658 19.9828 21.673 20.3612C21.3854 20.9257 20.9265 21.3846 20.362 21.6722C19.9836 21.865 19.5904 21.9363 19.195 21.9686C18.8205 21.9993 18.3657 21.9992 17.8385 21.9992H6.16145C5.63431 21.9992 5.17954 21.9993 4.80498 21.9686C4.40963 21.9363 4.01641 21.865 3.63803 21.6722C3.07355 21.3846 2.6146 20.9257 2.32698 20.3612C2.13419 19.9828 2.06287 19.5896 2.03057 19.1942C1.99997 18.8197 1.99998 18.3649 2 17.8378V11C2 10.4477 2.44772 10 3 10Z" fill="#0000CC"/>
</svg>
