<svg width="24" height="24" viewBox="0 0 24 24" fill="none" xmlns="http://www.w3.org/2000/svg">
<path fill-rule="evenodd" clip-rule="evenodd" d="M12 3C12.2652 3 12.5196 3.10536 12.7071 3.29289L16.7071 7.29289C17.0976 7.68342 17.0976 8.31658 16.7071 8.70711C16.3166 9.09763 15.6834 9.09763 15.2929 8.70711L13 6.41421V20C13 20.5523 12.5523 21 12 21C11.4477 21 11 20.5523 11 20V6.41421L8.70711 8.70711C8.31658 9.09763 7.68342 9.09763 7.29289 8.70711C6.90237 8.31658 6.90237 7.68342 7.29289 7.29289L11.2929 3.29289C11.4804 3.10536 11.7348 3 12 3Z" fill="#0000CC"/>
</svg>
