<svg width="24" height="24" viewBox="0 0 24 24" fill="none" xmlns="http://www.w3.org/2000/svg">
<path d="M12 22C17.5228 22 22 17.5228 22 12C22 6.47715 17.5228 2 12 2C6.47715 2 2 6.47715 2 12C2 14.4013 2.84638 16.6049 4.25708 18.3288L11.5863 11H8.34382C7.79154 11 7.34382 10.5523 7.34382 10C7.34382 9.44771 7.79154 9 8.34382 9H14.0007C14.553 9 15.0007 9.44771 15.0007 10V15.6569C15.0007 16.2091 14.553 16.6569 14.0007 16.6569C13.4484 16.6569 13.0007 16.2091 13.0007 15.6569V12.4141L5.6713 19.743C7.39517 21.1536 9.59875 22 12 22Z" fill="#0000CC"/>
</svg>
