<svg width="24" height="24" viewBox="0 0 24 24" fill="none" xmlns="http://www.w3.org/2000/svg">
<path d="M8 3C8 2.44772 7.55228 2 7 2C6.44772 2 6 2.44772 6 3V18.5858L3.70711 16.2929C3.31658 15.9024 2.68342 15.9024 2.29289 16.2929C1.90237 16.6834 1.90237 17.3166 2.29289 17.7071L6.29289 21.7071C6.68342 22.0976 7.31658 22.0976 7.70711 21.7071L11.7071 17.7071C12.0976 17.3166 12.0976 16.6834 11.7071 16.2929C11.3166 15.9024 10.6834 15.9024 10.2929 16.2929L8 18.5858V3Z" fill="#0000CC"/>
<path fill-rule="evenodd" clip-rule="evenodd" d="M22 5.5C22 6.40709 21.6549 7.23358 21.0889 7.85537L18.7682 10.6402C18.4147 11.0645 17.7841 11.1218 17.3598 10.7682C16.9355 10.4147 16.8782 9.78409 17.2318 9.35982L17.6238 8.88942C16.1148 8.50046 15 7.13042 15 5.5C15 3.567 16.567 2 18.5 2C20.433 2 22 3.567 22 5.5ZM20 5.5C20 6.32843 19.3284 7 18.5 7C17.6716 7 17 6.32843 17 5.5C17 4.67157 17.6716 4 18.5 4C19.3284 4 20 4.67157 20 5.5Z" fill="#0000CC"/>
<path d="M18.8827 13.0761C19.2564 13.2309 19.5 13.5955 19.5 14V20H20.5C21.0523 20 21.5 20.4477 21.5 21C21.5 21.5523 21.0523 22 20.5 22H16.5C15.9477 22 15.5 21.5523 15.5 21C15.5 20.4477 15.9477 20 16.5 20H17.5V16.4142L17.2071 16.7071C16.8166 17.0976 16.1834 17.0976 15.7929 16.7071C15.4024 16.3166 15.4024 15.6834 15.7929 15.2929L17.7929 13.2929C18.0789 13.0069 18.509 12.9213 18.8827 13.0761Z" fill="#0000CC"/>
</svg>
