<svg width="24" height="24" viewBox="0 0 24 24" fill="none" xmlns="http://www.w3.org/2000/svg">
<path d="M13 3C13 2.44772 12.5523 2 12 2C11.4477 2 11 2.44772 11 3V12.5858L8.70711 10.2929C8.31658 9.90237 7.68342 9.90237 7.29289 10.2929C6.90237 10.6834 6.90237 11.3166 7.29289 11.7071L11.2929 15.7071C11.6834 16.0976 12.3166 16.0976 12.7071 15.7071L16.7071 11.7071C17.0976 11.3166 17.0976 10.6834 16.7071 10.2929C16.3166 9.90237 15.6834 9.90237 15.2929 10.2929L13 12.5858V3Z" fill="#0000CC"/>
<path d="M3 10H5.17083C4.79865 11.0553 5.0346 12.2772 5.87868 13.1213L9.87868 17.1213C11.0503 18.2929 12.9497 18.2929 14.1213 17.1213L18.1213 13.1213C18.9654 12.2772 19.2013 11.0553 18.8292 10H21C21.5523 10 22 10.4477 22 11V12C22 17.5228 17.5228 22 12 22C6.47715 22 2 17.5228 2 12V11C2 10.4477 2.44772 10 3 10Z" fill="#0000CC"/>
</svg>
