<svg width="24" height="24" viewBox="0 0 24 24" fill="none" xmlns="http://www.w3.org/2000/svg">
<path fill-rule="evenodd" clip-rule="evenodd" d="M6.29289 2.29289C6.68342 1.90237 7.31658 1.90237 7.70711 2.29289L11.7071 6.29289C12.0976 6.68342 12.0976 7.31658 11.7071 7.70711C11.3166 8.09763 10.6834 8.09763 10.2929 7.70711L8 5.41421V21C8 21.5523 7.55228 22 7 22C6.44772 22 6 21.5523 6 21V5.41421L3.70711 7.70711C3.31658 8.09763 2.68342 8.09763 2.29289 7.70711C1.90237 7.31658 1.90237 6.68342 2.29289 6.29289L6.29289 2.29289ZM18 2C18.4 2 18.7616 2.2384 18.9191 2.60608L21.9191 9.60608C22.1367 10.1137 21.9015 10.7016 21.3939 10.9191C20.8863 11.1367 20.2984 10.9015 20.0809 10.3939L19.912 10H16.088L15.9191 10.3939C15.7016 10.9015 15.1137 11.1367 14.6061 10.9191C14.0985 10.7016 13.8633 10.1137 14.0809 9.60608L17.0809 2.60608C17.2384 2.2384 17.6 2 18 2ZM16.9451 8H19.0549L18 5.53859L16.9451 8ZM14.5 14C14.5 13.4477 14.9477 13 15.5 13H20.5C20.8746 13 21.2178 13.2093 21.3892 13.5424C21.5606 13.8755 21.5315 14.2764 21.3137 14.5812L17.4432 20H20.5C21.0523 20 21.5 20.4477 21.5 21C21.5 21.5523 21.0523 22 20.5 22H15.5C15.1254 22 14.7822 21.7907 14.6108 21.4576C14.4394 21.1245 14.4685 20.7236 14.6863 20.4188L18.5568 15H15.5C14.9477 15 14.5 14.5523 14.5 14Z" fill="#0000CC"/>
</svg>
