<svg width="24" height="24" viewBox="0 0 24 24" fill="none" xmlns="http://www.w3.org/2000/svg">
<path d="M12 3C12.5523 3 13 3.44772 13 4V8H11V4C11 3.44772 11.4477 3 12 3Z" fill="#0000CC"/>
<path d="M6.16146 8L11 8L11 13.5858L9.70711 12.2929C9.31658 11.9024 8.68342 11.9024 8.29289 12.2929C7.90237 12.6834 7.90237 13.3166 8.29289 13.7071L11.2929 16.7071C11.6834 17.0976 12.3166 17.0976 12.7071 16.7071L15.7071 13.7071C16.0976 13.3166 16.0976 12.6834 15.7071 12.2929C15.3166 11.9024 14.6834 11.9024 14.2929 12.2929L13 13.5858L13 8L17.8386 8C18.3657 7.99998 18.8205 7.99997 19.195 8.03057C19.5904 8.06287 19.9836 8.13419 20.362 8.32698C20.9265 8.6146 21.3854 9.07355 21.673 9.63803C21.8658 10.0164 21.9371 10.4096 21.9694 10.805C22 11.1795 22 11.6343 22 12.1614V16.8386C22 17.3657 22 17.8205 21.9694 18.195C21.9371 18.5904 21.8658 18.9836 21.673 19.362C21.3854 19.9265 20.9265 20.3854 20.362 20.673C19.9836 20.8658 19.5904 20.9371 19.195 20.9694C18.8205 21 18.3657 21 17.8385 21H6.16145C5.63431 21 5.17955 21 4.80498 20.9694C4.40963 20.9371 4.01641 20.8658 3.63803 20.673C3.07355 20.3854 2.61461 19.9265 2.32698 19.362C2.13419 18.9836 2.06287 18.5904 2.03057 18.195C1.99997 17.8205 1.99999 17.3657 2 16.8386V12.1614C1.99999 11.6343 1.99997 11.1795 2.03057 10.805C2.06287 10.4096 2.13419 10.0164 2.32698 9.63803C2.6146 9.07355 3.07355 8.6146 3.63803 8.32698C4.01641 8.13419 4.40963 8.06287 4.80498 8.03057C5.17953 7.99997 5.63434 7.99998 6.16146 8Z" fill="#0000CC"/>
</svg>
