<svg width="24" height="24" viewBox="0 0 24 24" fill="none" xmlns="http://www.w3.org/2000/svg">
<path d="M15.6405 6.23287C15.3287 5.86775 14.8609 5.67399 14.3822 5.71166C13.9536 5.7454 13.6442 5.9921 13.4972 6.11512C13.3325 6.25302 13.1446 6.44097 12.9535 6.63218L8.84215 10.7435C8.75789 10.8277 8.65725 10.9282 8.57587 11.0241C8.48158 11.1352 8.35603 11.3038 8.28045 11.5364C8.18256 11.8377 8.18256 12.1622 8.28045 12.4635C8.35603 12.6961 8.48158 12.8647 8.57587 12.9758C8.65725 13.0716 8.75787 13.1722 8.84213 13.2564L12.9535 17.3677C13.1446 17.5589 13.3325 17.7469 13.4972 17.8847C13.6442 18.0078 13.9536 18.2545 14.3822 18.2882C14.8609 18.3259 15.3287 18.1321 15.6405 17.767C15.9198 17.4401 15.9641 17.0468 15.981 16.8559C16 16.6419 16 16.3762 15.9999 16.1058V7.89407C16 7.62369 16 7.35793 15.981 7.14396C15.9641 6.95307 15.9198 6.55981 15.6405 6.23287Z" fill="#0000CC"/>
</svg>
