<svg width="24" height="24" viewBox="0 0 24 24" fill="none" xmlns="http://www.w3.org/2000/svg">
<path d="M12 3C12.5523 3 13 3.44772 13 4V12.5858L14.2929 11.2929C14.6834 10.9024 15.3166 10.9024 15.7071 11.2929C16.0976 11.6834 16.0976 12.3166 15.7071 12.7071L12.7071 15.7071C12.3166 16.0976 11.6834 16.0976 11.2929 15.7071L8.29289 12.7071C7.90237 12.3166 7.90237 11.6834 8.29289 11.2929C8.68342 10.9024 9.31658 10.9024 9.70711 11.2929L11 12.5858V4C11 3.44772 11.4477 3 12 3Z" fill="#0000CC"/>
<path fill-rule="evenodd" clip-rule="evenodd" d="M2.10222 15.2235C2 15.605 2 16.07 2 17C2 17.93 2 18.395 2.10222 18.7765C2.37962 19.8117 3.18827 20.6204 4.22354 20.8978C4.60504 21 5.07003 21 6 21H18C18.93 21 19.395 21 19.7765 20.8978C20.8117 20.6204 21.6204 19.8117 21.8978 18.7765C22 18.395 22 17.93 22 17C22 16.07 22 15.605 21.8978 15.2235C21.6204 14.1883 20.8117 13.3796 19.7765 13.1022C19.395 13 18.93 13 18 13L14.7153 16.2847C13.7648 17.2352 13.2896 17.7104 12.7416 17.8884C12.2596 18.045 11.7404 18.045 11.2584 17.8884C10.7104 17.7104 10.2352 17.2352 9.28471 16.2847L6 13C5.07003 13 4.60504 13 4.22354 13.1022C3.18827 13.3796 2.37962 14.1883 2.10222 15.2235ZM17 18C17.5523 18 18 17.5523 18 17C18 16.4477 17.5523 16 17 16C16.4477 16 16 16.4477 16 17C16 17.5523 16.4477 18 17 18Z" fill="#0000CC"/>
</svg>
