<svg width="24" height="24" viewBox="0 0 24 24" fill="none" xmlns="http://www.w3.org/2000/svg">
<path fill-rule="evenodd" clip-rule="evenodd" d="M2 12C2 6.47715 6.47715 2 12 2C14.5605 2 16.8984 2.96367 18.6669 4.54655L18.6701 4.5494L18.6701 4.54941L20 5.75001V3C20 2.44772 20.4477 2 21 2C21.5523 2 22 2.44772 22 3V8C22 8.55228 21.5523 9 21 9H16C15.4477 9 15 8.55228 15 8C15 7.44772 15.4477 7 16 7H18.4L17.3331 6.03682C17.3326 6.03636 17.3321 6.0359 17.3316 6.03544C15.9157 4.76889 14.0488 4 12 4C7.58172 4 4 7.58172 4 12C4 12.5523 3.55228 13 3 13C2.44772 13 2 12.5523 2 12ZM21 11C21.5523 11 22 11.4477 22 12C22 17.5228 17.5228 22 12 22C9.43946 22 7.10161 21.0363 5.33309 19.4535L5.3299 19.4506L4 18.25V21C4 21.5523 3.55228 22 3 22C2.44772 22 2 21.5523 2 21V16C2 15.4477 2.44772 15 3 15H8C8.55228 15 9 15.4477 9 16C9 16.5523 8.55228 17 8 17H5.60001L6.66691 17.9632C6.6674 17.9636 6.66789 17.9641 6.66839 17.9645C8.08422 19.2311 9.95112 20 12 20C16.4183 20 20 16.4183 20 12C20 11.4477 20.4477 11 21 11Z" fill="#0000CC"/>
</svg>
