<svg width="24" height="24" viewBox="0 0 24 24" fill="none" xmlns="http://www.w3.org/2000/svg">
<path fill-rule="evenodd" clip-rule="evenodd" d="M3 2C3.55228 2 4 2.44772 4 3V5.75001L5.33308 4.54654C7.1016 2.96367 9.43946 2 12 2C17.5228 2 22 6.47715 22 12C22 12.5523 21.5523 13 21 13C20.4477 13 20 12.5523 20 12C20 7.58172 16.4183 4 12 4C9.95117 4 8.0843 4.76888 6.66847 6.03542L5.60001 7H8C8.55228 7 9 7.44772 9 8C9 8.55228 8.55228 9 8 9H3C2.44772 9 2 8.55228 2 8V3C2 2.44772 2.44772 2 3 2ZM3 11C3.55228 11 4 11.4477 4 12C4 16.4183 7.58172 20 12 20C14.0489 20 15.9158 19.2311 17.3316 17.9645C17.3321 17.964 17.3326 17.9636 17.3331 17.9632L18.4 17H16C15.4477 17 15 16.5523 15 16C15 15.4477 15.4477 15 16 15H21C21.5523 15 22 15.4477 22 16V21C22 21.5523 21.5523 22 21 22C20.4477 22 20 21.5523 20 21V18.25L18.6701 19.4506L18.6669 19.4535C16.8984 21.0363 14.5605 22 12 22C6.47715 22 2 17.5228 2 12C2 11.4477 2.44772 11 3 11Z" fill="#0000CC"/>
</svg>
