<svg width="24" height="24" viewBox="0 0 24 24" fill="none" xmlns="http://www.w3.org/2000/svg">
<path fill-rule="evenodd" clip-rule="evenodd" d="M21.8827 2.07615C22.2564 2.23093 22.5 2.59557 22.5 3.00003V9.00003C22.5 9.55231 22.0523 10 21.5 10H15.5C15.0955 10 14.7309 9.75639 14.5761 9.38271C14.4213 9.00904 14.5069 8.57892 14.7929 8.29292L17.1814 5.90441C15.7849 4.71593 13.9766 4.00003 12 4.00003C7.88284 4.00003 4.49093 7.11101 4.04887 11.1099C3.98819 11.6588 3.49399 12.0547 2.94505 11.994C2.39611 11.9333 2.0003 11.4391 2.06098 10.8902C2.61382 5.88915 6.85205 2.00003 12 2.00003C14.5286 2.00003 16.839 2.93955 18.5992 4.48658L20.7929 2.29292C21.0789 2.00692 21.509 1.92137 21.8827 2.07615ZM21.0549 12.0061C21.6039 12.0668 21.9997 12.561 21.939 13.1099C21.3862 18.1109 17.148 22 12 22C9.47135 22 7.161 21.0605 5.40077 19.5135L3.20711 21.7071C2.92111 21.9931 2.49099 22.0787 2.11732 21.9239C1.74364 21.7691 1.5 21.4045 1.5 21V15C1.5 14.4477 1.94772 14 2.5 14H8.5C8.90446 14 9.2691 14.2437 9.42388 14.6173C9.57866 14.991 9.4931 15.4211 9.20711 15.7071L6.8186 18.0956C8.21512 19.2841 10.0234 20 12 20C16.1172 20 19.5091 16.889 19.9511 12.8902C20.0118 12.3412 20.506 11.9454 21.0549 12.0061Z" fill="#0000CC"/>
</svg>
