<svg width="24" height="24" viewBox="0 0 24 24" fill="none" xmlns="http://www.w3.org/2000/svg">
<path fill-rule="evenodd" clip-rule="evenodd" d="M5.7998 3C6.35209 3 6.7998 3.44772 6.7998 4V4.65369C8.26798 3.61271 10.0626 3 12 3C16.9706 3 21 7.02944 21 12C21 12.3801 20.9764 12.7552 20.9304 13.1237C20.8621 13.6718 20.3624 14.0607 19.8144 13.9923C19.2663 13.924 18.8775 13.4243 18.9458 12.8763C18.9815 12.5896 19 12.2972 19 12C19 8.13401 15.866 5 12 5C10.6802 5 9.44586 5.36484 8.39203 5.99999L8.79983 6C9.35211 6.00001 9.79982 6.44774 9.7998 7.00002C9.79979 7.55231 9.35207 8.00001 8.79978 8L5.79978 7.99993C5.24751 7.99992 4.7998 7.55221 4.7998 6.99993V4C4.7998 3.44772 5.24752 3 5.7998 3ZM4.18563 10.0077C4.73367 10.076 5.12255 10.5757 5.05421 11.1237C5.01846 11.4104 5 11.7028 5 12C5 15.866 8.13401 19 12 19C13.32 19 14.5542 18.6352 15.608 18H15C14.4477 18 14 17.5523 14 17C14 16.4477 14.4477 16 15 16H18C18.5523 16 19 16.4477 19 17V20C19 20.5523 18.5523 21 18 21C17.4477 21 17 20.5523 17 20V19.4842C15.5702 20.4412 13.85 21 12 21C7.02944 21 3 16.9706 3 12C3 11.6199 3.02362 11.2448 3.06958 10.8763C3.13792 10.3282 3.63759 9.93935 4.18563 10.0077Z" fill="#0000CC"/>
</svg>
