<svg width="24" height="24" viewBox="0 0 24 24" fill="none" xmlns="http://www.w3.org/2000/svg">
<path fill-rule="evenodd" clip-rule="evenodd" d="M10.2921 1.2937C10.6822 0.90273 11.3153 0.902009 11.7063 1.29209L13.7063 3.28754C13.8941 3.47486 13.9997 3.72909 14 3.99431C14.0003 4.25953 13.8952 4.514 13.7079 4.70175L11.7079 6.7063C11.3178 7.09727 10.6847 7.09799 10.2937 6.70791C9.90273 6.31783 9.90201 5.68467 10.2921 5.2937L10.4024 5.18313C7.30623 5.90592 5 8.68364 5 12C5 14.2101 6.02312 16.1806 7.62547 17.4651C8.05639 17.8106 8.12569 18.4399 7.78025 18.8708C7.43481 19.3018 6.80545 19.3711 6.37453 19.0256C4.31903 17.3779 3 14.8426 3 12C3 7.47701 6.33645 3.73329 10.6824 3.09576L10.2937 2.70791C9.90273 2.31783 9.90201 1.68467 10.2921 1.2937ZM16.2198 5.12916C16.5652 4.69824 17.1946 4.62894 17.6255 4.97438C19.681 6.62213 21 9.15737 21 12C21 16.5176 17.6715 20.2578 13.3331 20.9019L13.7224 21.3086C14.1043 21.7075 14.0905 22.3405 13.6915 22.7224C13.2925 23.1043 12.6595 23.0905 12.2776 22.6916L10.2776 20.6023C10.0941 20.4106 9.99432 20.1538 10.0002 19.8884C10.0062 19.6231 10.1173 19.371 10.3092 19.1877L12.3092 17.277C12.7086 16.8955 13.3416 16.9099 13.7231 17.3093C14.1046 17.7086 14.0901 18.3416 13.6908 18.7231L13.5911 18.8184C16.6905 18.098 19 15.3187 19 12C19 9.78986 17.9769 7.81937 16.3745 6.53488C15.9436 6.18944 15.8743 5.56008 16.2198 5.12916Z" fill="#0000CC"/>
</svg>
