<svg width="24" height="24" viewBox="0 0 24 24" fill="none" xmlns="http://www.w3.org/2000/svg">
<path fill-rule="evenodd" clip-rule="evenodd" d="M18.2002 3C17.6479 3 17.2002 3.44772 17.2002 4V4.65369C15.732 3.61271 13.9374 3 12 3C7.02944 3 3 7.02944 3 12C3 12.3801 3.02362 12.7552 3.06958 13.1237C3.13792 13.6718 3.63759 14.0607 4.18563 13.9923C4.73368 13.924 5.12255 13.4243 5.05421 12.8763C5.01846 12.5896 5 12.2972 5 12C5 8.13401 8.13401 5 12 5C13.3198 5 14.5541 5.36484 15.608 5.99999L15.2002 6C14.6479 6.00001 14.2002 6.44774 14.2002 7.00002C14.2002 7.55231 14.6479 8.00001 15.2002 8L18.2002 7.99993C18.7525 7.99992 19.2002 7.55221 19.2002 6.99993V4C19.2002 3.44772 18.7525 3 18.2002 3ZM19.8144 10.0077C19.2663 10.076 18.8775 10.5757 18.9458 11.1237C18.9815 11.4104 19 11.7028 19 12C19 15.866 15.866 19 12 19C10.68 19 9.4458 18.6352 8.39202 18H9C9.55229 18 10 17.5523 10 17C10 16.4477 9.55229 16 9 16H6C5.44771 16 5 16.4477 5 17V20C5 20.5523 5.44771 21 6 21C6.55229 21 7 20.5523 7 20V19.4842C8.42985 20.4412 10.15 21 12 21C16.9706 21 21 16.9706 21 12C21 11.6199 20.9764 11.2448 20.9304 10.8763C20.8621 10.3282 20.3624 9.93935 19.8144 10.0077Z" fill="#0000CC"/>
</svg>
