<svg width="24" height="24" viewBox="0 0 24 24" fill="none" xmlns="http://www.w3.org/2000/svg">
<path fill-rule="evenodd" clip-rule="evenodd" d="M12.5003 4.5C8.35814 4.5 5.00027 7.85786 5.00027 12C5.00027 12.6624 5.08593 13.304 5.24668 13.9149L5.87911 12.0604C6.05737 11.5377 6.62564 11.2584 7.14836 11.4367C7.67108 11.615 7.95032 12.1832 7.77206 12.706L6.41782 16.677C6.33221 16.928 6.15039 17.1348 5.91236 17.2517C5.67433 17.3687 5.39959 17.3863 5.14856 17.3007L1.1775 15.9465C0.654773 15.7682 0.375533 15.1999 0.553796 14.6772C0.73206 14.1545 1.30032 13.8753 1.82305 14.0535L3.35381 14.5756C3.12345 13.756 3.00027 12.892 3.00027 12C3.00027 6.75329 7.25357 2.5 12.5003 2.5C17.747 2.5 22.0003 6.75329 22.0003 12C22.0003 17.2467 17.747 21.5 12.5003 21.5C11.948 21.5 11.5003 21.0523 11.5003 20.5C11.5003 19.9477 11.948 19.5 12.5003 19.5C16.6424 19.5 20.0003 16.1421 20.0003 12C20.0003 7.85786 16.6424 4.5 12.5003 4.5Z" fill="#0000CC"/>
</svg>
