<svg width="24" height="24" viewBox="0 0 24 24" fill="none" xmlns="http://www.w3.org/2000/svg">
<path d="M18.2716 8.28531C18.3093 8.76399 18.1155 9.23177 17.7504 9.54361C17.4235 9.82285 17.0302 9.86721 16.8393 9.88412C16.6253 9.90308 16.3596 9.90304 16.0892 9.903H7.87746C7.60709 9.90304 7.34133 9.90308 7.12736 9.88412C6.93647 9.86721 6.54321 9.82285 6.21627 9.54361C5.85115 9.23177 5.65739 8.76399 5.69506 8.28532C5.7288 7.85668 5.9755 7.54724 6.09852 7.4003C6.23637 7.23564 6.42426 7.0478 6.61542 6.8567L10.7269 2.74521C10.8111 2.66095 10.9116 2.56032 11.0075 2.47895C11.1186 2.38466 11.2872 2.25911 11.5198 2.18352C11.8211 2.08564 12.1456 2.08564 12.4469 2.18352C12.6795 2.25911 12.8481 2.38466 12.9592 2.47895C13.055 2.56033 13.1556 2.66096 13.2398 2.74522L17.3511 6.85653C17.5423 7.04769 17.7302 7.23559 17.8681 7.40029C17.9912 7.54723 18.2379 7.85667 18.2716 8.28531Z" fill="#0000CC"/>
</svg>
