<svg width="24" height="24" viewBox="0 0 24 24" fill="none" xmlns="http://www.w3.org/2000/svg">
<path d="M12.7071 3.29289C12.3166 2.90237 11.6834 2.90237 11.2929 3.29289L8.29289 6.29289C7.90237 6.68342 7.90237 7.31658 8.29289 7.70711C8.68342 8.09763 9.31658 8.09763 9.70711 7.70711L11 6.41421V15C11 15.5523 11.4477 16 12 16C12.5523 16 13 15.5523 13 15V6.41421L14.2929 7.70711C14.6834 8.09763 15.3166 8.09763 15.7071 7.70711C16.0976 7.31658 16.0976 6.68342 15.7071 6.29289L12.7071 3.29289Z" fill="#0000CC"/>
<path fill-rule="evenodd" clip-rule="evenodd" d="M9 15V13H6C5.07003 13 4.60504 13 4.22354 13.1022C3.18827 13.3796 2.37962 14.1883 2.10222 15.2235C2 15.605 2 16.07 2 17C2 17.93 2 18.395 2.10222 18.7765C2.37962 19.8117 3.18827 20.6204 4.22354 20.8978C4.60504 21 5.07003 21 6 21H18C18.93 21 19.395 21 19.7765 20.8978C20.8117 20.6204 21.6204 19.8117 21.8978 18.7765C22 18.395 22 17.93 22 17C22 16.07 22 15.605 21.8978 15.2235C21.6204 14.1883 20.8117 13.3796 19.7765 13.1022C19.395 13 18.93 13 18 13H15V15C15 16.6569 13.6569 18 12 18C10.3431 18 9 16.6569 9 15ZM17 18C17.5523 18 18 17.5523 18 17C18 16.4477 17.5523 16 17 16C16.4477 16 16 16.4477 16 17C16 17.5523 16.4477 18 17 18Z" fill="#0000CC"/>
</svg>
