<svg width="24" height="24" viewBox="0 0 24 24" fill="none" xmlns="http://www.w3.org/2000/svg">
<path d="M14 7H11.214L9.00703 4.79301C9.11336 3.23271 10.4127 2 12 2C13.6569 2 15 3.34315 15 5V6C15 6.55228 14.5523 7 14 7Z" fill="#0000CC"/>
<path d="M7.19188 8.60609L2.29289 3.70711C1.90237 3.31658 1.90237 2.68342 2.29289 2.29289C2.68342 1.90237 3.31658 1.90237 3.70711 2.29289L21.7071 20.2929C22.0976 20.6834 22.0976 21.3166 21.7071 21.7071C21.3166 22.0976 20.6834 22.0976 20.2929 21.7071L19.9692 21.3834C19.5912 21.5843 19.1114 21.5256 18.7929 21.2071L16.0305 18.4447C15.1993 19.1989 14.1557 19.7232 13 19.917V14.4142L11.6491 13.0633C11.2699 13.2054 11 13.5712 11 14V19.917C9.84433 19.7232 8.80069 19.1989 7.96949 18.4447L5.20711 21.2071C4.81658 21.5976 4.18342 21.5976 3.79289 21.2071C3.40237 20.8166 3.40237 20.1834 3.79289 19.7929L6.72475 16.861C6.41456 16.2903 6.19429 15.6636 6.08296 15H4C3.44772 15 3 14.5523 3 14C3 13.4477 3.44772 13 4 13H6L5.99987 11.7133C5.99925 11.2572 5.99869 10.844 6.0564 10.4706L3.79289 8.20711C3.40237 7.81658 3.40237 7.18342 3.79289 6.79289C4.18342 6.40237 4.81658 6.40237 5.20711 6.79289L7.09591 8.6817C7.12737 8.65586 7.15936 8.63066 7.19188 8.60609Z" fill="#0000CC"/>
<path d="M19.214 15H20C20.5523 15 21 14.5523 21 14C21 13.4477 20.5523 13 20 13H18L18.0001 11.7133C18.0007 11.2572 18.0013 10.844 17.9436 10.4706L20.2071 8.20711C20.5976 7.81658 20.5976 7.18342 20.2071 6.79289C19.8166 6.40237 19.1834 6.40237 18.7929 6.79289L16.9041 8.6817C16.6353 8.46093 16.3271 8.28601 15.9908 8.16835C15.5046 7.99822 14.9397 7.99899 14.2867 7.99987H12.2139L19.214 15Z" fill="#0000CC"/>
</svg>
