<svg width="24" height="24" viewBox="0 0 24 24" fill="none" xmlns="http://www.w3.org/2000/svg">
<path fill-rule="evenodd" clip-rule="evenodd" d="M5 6.8C5 5.11984 5 4.27976 5.32698 3.63803C5.6146 3.07354 6.07354 2.6146 6.63803 2.32698C7.27976 2 8.11984 2 9.8 2H14.2C15.8802 2 16.7202 2 17.362 2.32698C17.9265 2.6146 18.3854 3.07354 18.673 3.63803C19 4.27976 19 5.11984 19 6.8V20H21C21.5523 20 22 20.4477 22 21C22 21.5523 21.5523 22 21 22H3C2.44772 22 2 21.5523 2 21C2 20.4477 2.44772 20 3 20H5V6.8ZM16 13C16.5523 13 17 12.5523 17 12C17 11.4477 16.5523 11 16 11C15.4477 11 15 11.4477 15 12C15 12.5523 15.4477 13 16 13Z" fill="#0000CC"/>
</svg>
