<svg width="24" height="24" viewBox="0 0 24 24" fill="none" xmlns="http://www.w3.org/2000/svg">
<path fill-rule="evenodd" clip-rule="evenodd" d="M5 22.0001L5.00499 22.0001L14 22C14.5523 22 15 21.5523 15 21V6.0001H15.8C16.3766 6.0001 16.7488 6.00088 17.0322 6.02403C17.3038 6.04622 17.4045 6.0839 17.454 6.10909C17.6422 6.20497 17.7951 6.35795 17.891 6.54611C17.9162 6.59555 17.9539 6.69627 17.9761 6.96794C17.9992 7.25127 18 7.62355 18 8.2001V21.0001C18 21.5524 18.4477 22.0001 19 22.0001H21C21.5523 22.0001 22 21.5524 22 21.0001C22 20.4478 21.5523 20.0001 21 20.0001H20V8.16153C20 7.63439 20 7.17964 19.9694 6.80507C19.9371 6.40973 19.8658 6.01651 19.673 5.63813C19.3854 5.07364 18.9265 4.6147 18.362 4.32708C17.9836 4.13429 17.5904 4.06297 17.195 4.03067C16.8205 4.00007 16.3657 4.00008 15.8386 4.0001L15 4.0001C14.975 4.0001 14.9503 4.00102 14.9257 4.00282C14.8729 3.64383 14.7749 3.28987 14.578 2.95906C14.208 2.33732 13.6257 1.87024 12.9385 1.6439C12.4695 1.48943 11.9986 1.50205 11.5385 1.56266C11.0964 1.62091 10.5609 1.73993 9.9312 1.87988L7.25629 2.47431C6.83707 2.56745 6.47112 2.64876 6.17037 2.73916C5.84977 2.83552 5.53823 2.96009 5.24639 3.17034C4.80487 3.48842 4.45818 3.92061 4.24345 4.42063C4.10151 4.75113 4.0475 5.08226 4.02297 5.41614C3.99997 5.72933 3.99998 6.1042 4 6.53365L4 20.0001L2.99999 20.0001C2.44771 20.0001 2 20.4478 2 21.0001C2 21.5524 2.44772 22.0001 3.00001 22.0001L4.99503 22.0001L5 22.0001ZM12 13C12.5523 13 13 12.5523 13 12C13 11.4477 12.5523 11 12 11C11.4477 11 11 11.4477 11 12C11 12.5523 11.4477 13 12 13Z" fill="#0000CC"/>
</svg>
