<svg width="24" height="24" viewBox="0 0 24 24" fill="none" xmlns="http://www.w3.org/2000/svg">
<path fill-rule="evenodd" clip-rule="evenodd" d="M15 2H8.8C7.11984 2 6.27976 2 5.63803 2.32698C5.07354 2.6146 4.6146 3.07354 4.32698 3.63803C4 4.27976 4 5.11984 4 6.8V17.2C4 18.8802 4 19.7202 4.32698 20.362C4.6146 20.9265 5.07354 21.3854 5.63803 21.673C6.27976 22 7.11984 22 8.8 22H14.9299L14.9249 21.9954C13.6893 20.6259 13 18.7448 13 16.8303L13.0002 15.6426C13.0003 14.956 13.2831 14.2962 13.7866 13.8223C14.273 13.3644 14.9217 13.1208 15.5875 13.1441C15.6183 13.1444 15.6558 13.1441 15.7166 13.1435L15.7224 13.1434C15.7544 13.1431 15.8001 13.1425 15.8333 13.1425C16.0786 13.1425 16.3786 13.0391 16.6789 12.7198C17.1514 12.2175 17.8104 11.9326 18.5 11.9326C19.0447 11.9326 19.5703 12.1104 20 12.4326V7L15 2ZM14 3.5V7.2C14 7.48003 14 7.62004 14.0545 7.727C14.1024 7.82108 14.1789 7.89757 14.273 7.9455C14.38 8 14.52 8 14.8 8H18.5L14 3.5ZM7 9C7 8.44772 7.44772 8 8 8H9C9.55228 8 10 8.44772 10 9C10 9.55228 9.55228 10 9 10H8C7.44772 10 7 9.55228 7 9ZM8 12C7.44772 12 7 12.4477 7 13C7 13.5523 7.44772 14 8 14H10C10.5523 14 11 13.5523 11 13C11 12.4477 10.5523 12 10 12H8ZM7 17C7 16.4477 7.44772 16 8 16H10C10.5523 16 11 16.4477 11 17C11 17.5523 10.5523 18 10 18H8C7.44772 18 7 17.5523 7 17Z" fill="#0000CC"/>
<path d="M18.5 13.9326C18.6379 13.9326 18.7697 13.9896 18.8642 14.0901C19.4905 14.756 20.2982 15.1426 21.1667 15.1426C21.1882 15.1426 21.2239 15.143 21.2615 15.1434L21.3375 15.1441C21.3697 15.1444 21.4 15.1445 21.4255 15.1443L21.4572 15.1439L21.4699 15.1435C21.6075 15.1352 21.7424 15.1841 21.8428 15.2786C21.9431 15.373 22 15.5048 22 15.6426V16.8305C22 19.2193 20.6219 21.3067 18.6462 21.9108C18.5509 21.9399 18.4491 21.9399 18.3538 21.9108C16.3781 21.3067 15 19.2193 15 16.8305L15.0002 15.6431C15.0002 15.5052 15.0571 15.373 15.1574 15.2785C15.2578 15.1841 15.3927 15.1352 15.5302 15.1435L15.5429 15.1439L15.5745 15.1443C15.6 15.1445 15.6303 15.1444 15.6624 15.1441L15.7379 15.1434C15.7757 15.1429 15.8116 15.1425 15.8333 15.1425C16.7018 15.1425 17.5095 14.756 18.1358 14.0901C18.2303 13.9896 18.3621 13.9326 18.5 13.9326Z" fill="#0000CC"/>
</svg>
