<svg width="24" height="24" viewBox="0 0 24 24" fill="none" xmlns="http://www.w3.org/2000/svg">
<path fill-rule="evenodd" clip-rule="evenodd" d="M13 2H8.8C7.11984 2 6.27976 2 5.63803 2.32698C5.07354 2.6146 4.6146 3.07354 4.32698 3.63803C4 4.27976 4 5.11984 4 6.8V17.2C4 18.8802 4 19.7202 4.32698 20.362C4.6146 20.9265 5.07354 21.3854 5.63803 21.673C6.27976 22 7.11984 22 8.8 22H15.2C16.8802 22 17.7202 22 18.362 21.673C18.9265 21.3854 19.3854 20.9265 19.673 20.362C20 19.7202 20 18.8802 20 17.2V9H16.2C15.0799 9 14.5198 9 14.092 8.78201C13.7157 8.59027 13.4097 8.28431 13.218 7.90798C13 7.48016 13 6.9201 13 5.8V2ZM12.3642 11.1574C12.2697 11.057 12.1379 11 12 11C11.8621 11 11.7303 11.057 11.6358 11.1574C11.0095 11.8233 10.2018 12.2099 9.33333 12.2099C9.31166 12.2099 9.27578 12.2103 9.23797 12.2107L9.16245 12.2115C9.13031 12.2118 9.10003 12.2119 9.07452 12.2117L9.04285 12.2113L9.03023 12.2109C8.89267 12.2026 8.75778 12.2514 8.65744 12.3459C8.55709 12.4404 8.50019 12.5726 8.50016 12.7104L8.5 13.8979C8.5 16.2867 9.87811 18.3741 11.8538 18.9781C11.9491 19.0073 12.0509 19.0073 12.1462 18.9781C14.1219 18.3741 15.5 16.2867 15.5 13.8979V12.71C15.5 12.5721 15.4431 12.4404 15.3428 12.3459C15.2424 12.2515 15.1075 12.2026 14.9699 12.2109L14.9572 12.2113L14.9255 12.2117C14.9 12.2119 14.8697 12.2118 14.8375 12.2115L14.7615 12.2108C14.7239 12.2104 14.6882 12.21 14.6667 12.21C13.7982 12.21 12.9905 11.8234 12.3642 11.1574Z" fill="#0000CC"/>
<path d="M19.4142 6.41426C19.5852 6.58528 19.7221 6.78408 19.8204 7.00005H15.5C15.2239 7.00005 15 6.77619 15 6.50005V2.17969C15.216 2.27797 15.4148 2.41482 15.5858 2.58583L19.4142 6.41426Z" fill="#0000CC"/>
</svg>
