<svg width="24" height="24" viewBox="0 0 24 24" fill="none" xmlns="http://www.w3.org/2000/svg">
<path d="M8.8 2H13V5.8C13 6.9201 13 7.48016 13.218 7.90798C13.4097 8.28431 13.7157 8.59027 14.092 8.78201C14.5198 9 15.0799 9 16.2 9H20V12.416C19.3875 12.1484 18.7111 12 18 12C15.4759 12 13.3887 13.8703 13.0485 16.3006C12.3987 17.0109 12 17.9583 12 19V20C12 20.7286 12.1948 21.4117 12.5351 22H8.8C7.11984 22 6.27976 22 5.63803 21.673C5.07354 21.3854 4.6146 20.9265 4.32698 20.362C4 19.7202 4 18.8802 4 17.2V6.8C4 5.11984 4 4.27976 4.32698 3.63803C4.6146 3.07354 5.07354 2.6146 5.63803 2.32698C6.27976 2 7.11984 2 8.8 2Z" fill="#0000CC"/>
<path d="M19.8204 7.00005C19.7221 6.78408 19.5852 6.58528 19.4142 6.41426L15.5858 2.58583C15.4148 2.41482 15.216 2.27797 15 2.17969V6.50005C15 6.77619 15.2239 7.00005 15.5 7.00005H19.8204Z" fill="#0000CC"/>
<path fill-rule="evenodd" clip-rule="evenodd" d="M15 17C15 15.3431 16.3431 14 18 14C19.6569 14 21 15.3431 21 17V17.2676C21.5978 17.6134 22 18.2597 22 19V20C22 21.1046 21.1046 22 20 22H16C14.8954 22 14 21.1046 14 20V19C14 18.2597 14.4022 17.6134 15 17.2676V17ZM18 16C17.4477 16 17 16.4477 17 17H19C19 16.4477 18.5523 16 18 16Z" fill="#0000CC"/>
</svg>
