<svg width="24" height="24" viewBox="0 0 24 24" fill="none" xmlns="http://www.w3.org/2000/svg">
<path fill-rule="evenodd" clip-rule="evenodd" d="M3.57675 5.81605C5.63143 3.48205 8.64046 2 12.0004 2C15.3602 2 18.3693 3.48205 20.424 5.81605C20.7889 6.23059 20.7487 6.86248 20.3341 7.22741C19.9196 7.59234 19.2877 7.55212 18.9228 7.13758C17.2294 5.21399 14.7583 4 12.0004 4C9.24236 4 6.77133 5.21399 5.07794 7.13758C4.713 7.55212 4.08112 7.59234 3.66658 7.22741C3.25204 6.86248 3.21182 6.23059 3.57675 5.81605ZM2.75781 13.9968C2.75781 8.88947 6.89642 4.74922 12.0017 4.74922C17.1071 4.74922 21.2457 8.88947 21.2457 13.9968C21.2457 16.0674 19.5674 17.746 17.4974 17.746C15.4273 17.746 13.7491 16.0674 13.7491 13.9968C13.7491 13.0304 12.9659 12.2476 12.0008 12.2476C11.0358 12.2476 10.2525 13.0304 10.2525 13.9968C10.2525 16.5925 11.6172 18.8701 13.6718 20.1514C14.1404 20.4437 14.2834 21.0605 13.9912 21.5291C13.6989 21.9977 13.0821 22.1407 12.6135 21.8485C9.99819 20.2175 8.25254 17.3119 8.25254 13.9968C8.25254 11.9263 9.93077 10.2476 12.0008 10.2476C14.0709 10.2476 15.7491 11.9263 15.7491 13.9968C15.7491 14.9632 16.5323 15.746 17.4974 15.746C18.4624 15.746 19.2457 14.9632 19.2457 13.9968C19.2457 9.99331 16.0018 6.74922 12.0017 6.74922C8.00172 6.74922 4.75781 9.99331 4.75781 13.9968C4.75781 14.9373 4.86303 15.8543 5.05719 16.7399C5.17546 17.2794 4.834 17.8126 4.29453 17.9308C3.75506 18.0491 3.22185 17.7076 3.10358 17.1682C2.87986 16.1477 2.75781 15.0871 2.75781 13.9968ZM11.9992 9.49844C9.51677 9.49844 7.50351 11.5117 7.50351 13.9968C7.50351 16.1293 8.17191 18.102 9.30922 19.725C9.62616 20.1773 9.51642 20.8009 9.06413 21.1179C8.61183 21.4348 7.98825 21.3251 7.67131 20.8728C6.30686 18.9255 5.50351 16.5545 5.50351 13.9968C5.50351 10.408 8.41133 7.49844 11.9992 7.49844C15.587 7.49844 18.4948 10.408 18.4948 13.9968C18.4948 14.5491 18.0471 14.9968 17.4948 14.9968C16.9425 14.9968 16.4948 14.5491 16.4948 13.9968C16.4948 11.5117 14.4816 9.49844 11.9992 9.49844ZM12.0011 12.9969C12.5534 12.9969 13.0011 13.4446 13.0011 13.9969C13.0011 16.482 15.0143 18.4953 17.4967 18.4953C17.5347 18.4953 17.5596 18.4936 17.6056 18.4904C17.6365 18.4883 17.677 18.4855 17.7372 18.4821C18.2887 18.4515 18.7605 18.8737 18.7912 19.4251C18.8218 19.9766 18.3996 20.4484 17.8482 20.4791C17.8386 20.4796 17.8244 20.4806 17.8066 20.4818C17.7349 20.4866 17.6059 20.4953 17.4967 20.4953C13.9089 20.4953 11.0011 17.5857 11.0011 13.9969C11.0011 13.4446 11.4488 12.9969 12.0011 12.9969Z" fill="#0000CC"/>
</svg>
