<svg width="24" height="24" viewBox="0 0 24 24" fill="none" xmlns="http://www.w3.org/2000/svg">
<path d="M14 3H8V7H14V3Z" fill="#0000CC"/>
<path d="M19.673 4.63803C19.9434 5.16873 19.9902 5.83507 19.9983 7H16V3.00169C17.1649 3.00979 17.8313 3.05658 18.362 3.32698C18.9265 3.6146 19.3854 4.07354 19.673 4.63803Z" fill="#0000CC"/>
<path d="M6 3.00169C4.83507 3.00979 4.16873 3.05658 3.63803 3.32698C3.07354 3.6146 2.6146 4.07354 2.32698 4.63803C2.05658 5.16873 2.00979 5.83507 2.00169 7H6V3.00169Z" fill="#0000CC"/>
<path d="M2 11V9H10V11H2Z" fill="#0000CC"/>
<path d="M2 15V13H6V15H2Z" fill="#0000CC"/>
<path d="M2.32698 19.362C2.05658 18.8313 2.00979 18.1649 2.00169 17L10.5 17C10.5 18.4107 10.9589 19.8275 11.8759 21H6.8C5.11984 21 4.27976 21 3.63803 20.673C3.07354 20.3854 2.6146 19.9265 2.32698 19.362Z" fill="#0000CC"/>
<path d="M10.8145 15C11.0434 14.2905 11.3973 13.612 11.8759 13H8V15H10.8145Z" fill="#0000CC"/>
<path d="M18.7545 10.226C19.0396 10.5091 19.3401 10.7268 19.7501 11H20V9H12V11H14.479C14.7584 10.6523 15.0755 10.334 15.4258 10.0522C16.4178 9.25409 17.8511 9.32896 18.7545 10.226Z" fill="#0000CC"/>
<path d="M17.3452 11.6452C17.1646 11.4658 16.8779 11.4508 16.6795 11.6104C16.2791 11.9326 15.9409 12.3269 15.6816 12.7704C15.3311 13.3707 15.1514 14.0079 15.0666 14.5817C14.984 14.4993 14.9147 14.4184 14.8573 14.3437C14.7722 14.2328 14.6933 14.1138 14.6359 13.9858C14.5677 13.8321 14.4401 13.7165 14.2728 13.6819C14.108 13.6478 13.9371 13.699 13.818 13.818C12.9394 14.6966 12.5 15.8491 12.5 17C12.5 18.1509 12.9394 19.3034 13.818 20.182C15.5754 21.9393 18.4246 21.9393 20.182 20.182C21.0606 19.3034 21.5 18.1509 21.5 17C21.5 15.8491 21.0606 14.6966 20.182 13.818C19.7757 13.4117 19.3081 13.104 18.8632 12.8112L18.7701 12.7499C18.2873 12.4314 17.8106 12.1073 17.3452 11.6452Z" fill="#0000CC"/>
</svg>
