<svg width="24" height="24" viewBox="0 0 24 24" fill="none" xmlns="http://www.w3.org/2000/svg">
<path fill-rule="evenodd" clip-rule="evenodd" d="M6 8C6 4.68629 8.68629 2 12 2C15.3137 2 18 4.68629 18 8V13.4C18 13.9601 18 14.2401 17.891 14.454C17.7951 14.6422 17.6422 14.7951 17.454 14.891C17.2401 15 16.9601 15 16.4 15H7.6C7.03995 15 6.75992 15 6.54601 14.891C6.35785 14.7951 6.20487 14.6422 6.10899 14.454C6 14.2401 6 13.9601 6 13.4V8ZM12 6C10.8954 6 10 6.89543 10 8C10 8.55228 9.55228 9 9 9C8.44772 9 8 8.55228 8 8C8 5.79086 9.79086 4 12 4C12.5523 4 13 4.44772 13 5C13 5.55228 12.5523 6 12 6Z" fill="#0000CC"/>
<path d="M3.15224 17.2346C3 17.6022 3 18.0681 3 19C3 19.9319 3 20.3978 3.15224 20.7654C3.35523 21.2554 3.74458 21.6448 4.23463 21.8478C4.60218 22 5.06812 22 6 22H18C18.9319 22 19.3978 22 19.7654 21.8478C20.2554 21.6448 20.6448 21.2554 20.8478 20.7654C21 20.3978 21 19.9319 21 19C21 18.0681 21 17.6022 20.8478 17.2346C20.6448 16.7446 20.2554 16.3552 19.7654 16.1522C19.3978 16 18.9319 16 18 16H6C5.06812 16 4.60218 16 4.23463 16.1522C3.74458 16.3552 3.35523 16.7446 3.15224 17.2346Z" fill="#0000CC"/>
</svg>
