<svg width="24" height="24" viewBox="0 0 24 24" fill="none" xmlns="http://www.w3.org/2000/svg">
<path d="M12.2863 2.08843C12.0966 2.06102 11.9039 2.06102 11.7142 2.08843C11.4956 2.12002 11.2922 2.19688 11.1306 2.2579L11.0873 2.27422L5.59491 4.33374C4.97712 4.56439 4.43457 4.76694 4.01675 5.13517C3.65124 5.45729 3.36968 5.86358 3.19641 6.31893C2.99834 6.83944 2.99918 7.41856 3.00013 8.078L3.00026 11.9999C3.00026 14.6468 4.61132 16.8183 6.28673 18.3757C7.98341 19.9529 9.91241 21.0568 10.8968 21.5697L10.9347 21.5895C11.1066 21.6797 11.3293 21.7964 11.6184 21.8527C11.8554 21.8988 12.1451 21.8988 12.3822 21.8527C12.6713 21.7964 12.8939 21.6797 13.0658 21.5895L13.1038 21.5697C14.0881 21.0568 16.0171 19.9529 17.7138 18.3757C19.3892 16.8184 21.0003 14.6468 21.0003 11.9999L21.0004 8.07799C21.0014 7.41855 21.0022 6.83944 20.8041 6.31893C20.6309 5.86358 20.3493 5.45729 19.9838 5.13517C19.566 4.76695 19.0234 4.56439 18.4056 4.33374L12.9132 2.27422L12.8699 2.2579C12.7084 2.19688 12.5049 2.12002 12.2863 2.08843Z" fill="#0000CC"/>
</svg>
