<svg width="24" height="24" viewBox="0 0 24 24" fill="none" xmlns="http://www.w3.org/2000/svg">
<path d="M17.355 18.7692L20.2929 21.7071C20.6834 22.0976 21.3166 22.0976 21.7071 21.7071C22.0976 21.3166 22.0976 20.6834 21.7071 20.2929L3.70711 2.29289C3.31658 1.90237 2.68342 1.90237 2.29289 2.29289C1.90237 2.68342 1.90237 3.31658 2.29289 3.70711L3.64915 5.06336C3.27 5.20559 3.00012 5.57154 3.00009 6.00032L3 9.16611C3 15.2332 6.62798 20.4587 11.7172 21.9592C11.9018 22.0136 12.0982 22.0136 12.2828 21.9592C14.2271 21.3859 15.9581 20.269 17.355 18.7692Z" fill="#0000CC"/>
<path d="M21 9.16611C21 11.4101 20.5037 13.5389 19.6208 15.4067L8.49065 4.27663C9.51401 3.82174 10.4489 3.15802 11.2841 2.30176C11.4723 2.10881 11.7304 2 11.9999 2C12.2695 2 12.5276 2.10882 12.7158 2.30177C14.4249 4.05411 16.5519 5 19.0001 5H19.9991C20.5514 5 21 5.44772 21 6V9.16611Z" fill="#0000CC"/>
</svg>
