<svg width="24" height="24" viewBox="0 0 24 24" fill="none" xmlns="http://www.w3.org/2000/svg">
<path fill-rule="evenodd" clip-rule="evenodd" d="M11.7142 2.08843C11.9039 2.06102 12.0966 2.06102 12.2863 2.08843C12.5049 2.12002 12.7084 2.19688 12.8699 2.2579L12.9132 2.27422L18.4056 4.33374C19.0234 4.56439 19.566 4.76695 19.9838 5.13517C20.3493 5.45729 20.6309 5.86358 20.8041 6.31893C21.0022 6.83944 21.0014 7.41855 21.0004 8.07799L21.0003 11.9999C21.0003 14.6468 19.3892 16.8184 17.7138 18.3757C16.0171 19.9529 14.0881 21.0568 13.1038 21.5697L13.0658 21.5895C12.8939 21.6797 12.6713 21.7964 12.3822 21.8527C12.1451 21.8988 11.8554 21.8988 11.6184 21.8527C11.3293 21.7964 11.1066 21.6797 10.9347 21.5895L10.8968 21.5697C9.91241 21.0568 7.98341 19.9529 6.28673 18.3757C4.61132 16.8183 3.00026 14.6468 3.00026 11.9999L3.00013 8.078C2.99918 7.41856 2.99834 6.83944 3.19641 6.31893C3.36968 5.86358 3.65124 5.45729 4.01675 5.13517C4.43457 4.76694 4.97712 4.56439 5.59491 4.33374L11.0873 2.27422L11.1306 2.2579C11.2922 2.19688 11.4956 2.12002 11.7142 2.08843ZM15.7071 10.7071C16.0976 10.3166 16.0976 9.68342 15.7071 9.29289C15.3166 8.90237 14.6834 8.90237 14.2929 9.29289L11 12.5858L9.70711 11.2929C9.31658 10.9024 8.68342 10.9024 8.29289 11.2929C7.90237 11.6834 7.90237 12.3166 8.29289 12.7071L10.2929 14.7071C10.6834 15.0976 11.3166 15.0976 11.7071 14.7071L15.7071 10.7071Z" fill="#0000CC"/>
</svg>
