<svg width="24" height="24" viewBox="0 0 24 24" fill="none" xmlns="http://www.w3.org/2000/svg">
<path d="M3.70711 2.29289C3.31658 1.90237 2.68342 1.90237 2.29289 2.29289C1.90237 2.68342 1.90237 3.31658 2.29289 3.70711L3.86469 5.2789C3.57268 5.57488 3.34482 5.92891 3.19641 6.31893C2.99834 6.83944 2.99918 7.41856 3.00013 8.078L3.00026 11.9999C3.00026 14.6468 4.61132 16.8183 6.28673 18.3757C7.98341 19.9529 9.91241 21.0568 10.8968 21.5697L10.9347 21.5895C11.1066 21.6797 11.3293 21.7964 11.6184 21.8527C11.8554 21.8988 12.1451 21.8988 12.3822 21.8527C12.6713 21.7964 12.8939 21.6797 13.0658 21.5895L13.1038 21.5697C14.0122 21.0963 15.7253 20.1196 17.3178 18.732L20.2929 21.7071C20.6834 22.0976 21.3166 22.0976 21.7071 21.7071C22.0976 21.3166 22.0976 20.6834 21.7071 20.2929L3.70711 2.29289Z" fill="#0000CC"/>
<path d="M21.0003 11.9999C21.0003 13.3692 20.5691 14.6113 19.9209 15.7069L7.74247 3.52845L11.0873 2.27422L11.1306 2.2579C11.2922 2.19688 11.4956 2.12002 11.7142 2.08843C11.9039 2.06102 12.0966 2.06102 12.2863 2.08843C12.5049 2.12002 12.7084 2.19688 12.8699 2.2579L12.9132 2.27422L18.4056 4.33374C19.0234 4.56439 19.566 4.76695 19.9838 5.13517C20.3493 5.45729 20.6309 5.86358 20.8041 6.31893C21.0022 6.83944 21.0014 7.41855 21.0004 8.07799L21.0003 11.9999Z" fill="#0000CC"/>
</svg>
