<svg width="24" height="24" viewBox="0 0 24 24" fill="none" xmlns="http://www.w3.org/2000/svg">
<path fill-rule="evenodd" clip-rule="evenodd" d="M11.7142 2.08843C11.9039 2.06102 12.0966 2.06102 12.2863 2.08843C12.5049 2.12002 12.7084 2.19688 12.8699 2.2579L12.9132 2.27422L18.4056 4.33374C19.0234 4.56439 19.566 4.76695 19.9838 5.13517C20.3493 5.45729 20.6309 5.86358 20.8041 6.31893C21.0022 6.83944 21.0014 7.41855 21.0004 8.07799L21.0003 11.9999C21.0003 14.6468 19.3892 16.8184 17.7138 18.3757C16.0171 19.9529 14.0881 21.0568 13.1038 21.5697L13.0658 21.5895C12.8939 21.6797 12.6713 21.7964 12.3822 21.8527C12.1451 21.8988 11.8554 21.8988 11.6184 21.8527C11.3293 21.7964 11.1066 21.6797 10.9347 21.5895L10.8968 21.5697C9.91241 21.0568 7.98341 19.9529 6.28673 18.3757C4.61132 16.8183 3.00026 14.6468 3.00026 11.9999L3.00013 8.078C2.99918 7.41856 2.99834 6.83944 3.19641 6.31893C3.36968 5.86358 3.65124 5.45729 4.01675 5.13517C4.43457 4.76694 4.97712 4.56439 5.59491 4.33374L11.0873 2.27422L11.1306 2.2579C11.2922 2.19688 11.4956 2.12002 11.7142 2.08843ZM12 7.5C10.3431 7.5 9 8.84315 9 10.5C9 11.8062 9.83481 12.9175 11 13.3293V15.5C11 16.0523 11.4477 16.5 12 16.5C12.5523 16.5 13 16.0523 13 15.5V13.3293C14.1652 12.9175 15 11.8062 15 10.5C15 8.84315 13.6569 7.5 12 7.5Z" fill="#0000CC"/>
</svg>
