<svg width="24" height="24" viewBox="0 0 24 24" fill="none" xmlns="http://www.w3.org/2000/svg">
<path d="M3.70711 2.29289C3.31658 1.90237 2.68342 1.90237 2.29289 2.29289C1.90237 2.68342 1.90237 3.31658 2.29289 3.70711L3.39432 4.80853C3.32675 4.89965 3.26666 4.99694 3.21478 5.09965C3.0783 5.36988 3.03503 5.63823 3.01668 5.86518C2.99994 6.0722 2.99997 6.31681 3 6.56835L3 12C3 14.8266 4.5373 17.1832 6.19906 18.9144C7.87196 20.6572 9.786 21.8882 10.7981 22.4786L10.8391 22.5026C11.0238 22.6111 11.2635 22.7519 11.5806 22.8199C11.8401 22.8755 12.1599 22.8755 12.4194 22.8199C12.7365 22.7519 12.9762 22.6111 13.1609 22.5026L13.2019 22.4786C14.1842 21.9056 16.0162 20.7291 17.6527 19.0669L20.2929 21.7071C20.6834 22.0976 21.3166 22.0976 21.7071 21.7071C22.0976 21.3166 22.0976 20.6834 21.7071 20.2929L3.70711 2.29289Z" fill="#0000CC"/>
<path d="M21 12C21 13.3976 20.6242 14.6803 20.0433 15.8293L8.06554 3.85153C8.40465 3.80445 8.71526 3.74287 9.00624 3.66255C9.84573 3.4308 10.5525 3.03325 11.2929 2.29289C11.6834 1.90237 12.3166 1.90237 12.7071 2.29289C13.4475 3.03325 14.1543 3.4308 14.9938 3.66255C15.8724 3.90509 16.9298 3.97669 18.4106 3.9942L18.4423 3.99457C18.6986 3.99757 18.9462 4.00047 19.1548 4.01958C19.3819 4.04038 19.6524 4.08631 19.9227 4.22687C20.296 4.42098 20.5955 4.72409 20.7852 5.09965C20.9217 5.36988 20.965 5.63823 20.9833 5.86518C21.0001 6.07216 21 6.31678 21 6.56826L21 12Z" fill="#0000CC"/>
</svg>
