<svg width="24" height="24" viewBox="0 0 24 24" fill="none" xmlns="http://www.w3.org/2000/svg">
<path d="M12.7071 2.29289C12.3166 1.90237 11.6834 1.90237 11.2929 2.29289C10.5525 3.03325 9.84573 3.4308 9.00624 3.66255C8.12766 3.90509 7.07019 3.97669 5.58938 3.9942L5.55773 3.99457C5.3014 3.99757 5.05378 4.00047 4.84516 4.01958C4.61808 4.04038 4.34761 4.08631 4.07731 4.22687C3.70401 4.42098 3.40446 4.72409 3.21478 5.09965C3.0783 5.36988 3.03502 5.63823 3.01668 5.86518C2.99994 6.0722 2.99997 6.31681 3 6.56835L3 12C3 14.8266 4.5373 17.1832 6.19906 18.9144C7.87196 20.6572 9.786 21.8882 10.7981 22.4786L10.8391 22.5026C11.0238 22.6111 11.2635 22.7519 11.5806 22.8199C11.8401 22.8755 12.1599 22.8755 12.4194 22.8199C12.7365 22.7519 12.9762 22.6111 13.1609 22.5026L13.2019 22.4786C14.214 21.8882 16.128 20.6572 17.8009 18.9144C19.4627 17.1832 21 14.8266 21 12L21 6.56837C21 6.31683 21.0001 6.0722 20.9833 5.86518C20.965 5.63823 20.9217 5.36988 20.7852 5.09965C20.5955 4.72409 20.296 4.42098 19.9227 4.22687C19.6524 4.08631 19.3819 4.04038 19.1548 4.01958C18.9462 4.00047 18.6986 3.99757 18.4423 3.99457L18.4106 3.9942C16.9298 3.97669 15.8724 3.90509 14.9938 3.66255C14.1543 3.4308 13.4475 3.03325 12.7071 2.29289Z" fill="#0000CC"/>
</svg>
