<svg width="24" height="24" viewBox="0 0 24 24" fill="none" xmlns="http://www.w3.org/2000/svg">
<path d="M11 2C8.23862 2 6.00005 4.23858 6.00005 7C6.00005 9.76142 8.23862 12 11 12C13.7615 12 16 9.76142 16 7C16 4.23858 13.7615 2 11 2Z" fill="#0000CC"/>
<path d="M7.68414 13L7.59006 13C7.04618 12.9998 6.64297 12.9996 6.28748 13.064C4.64594 13.3612 3.3612 14.6459 3.06402 16.2874C2.99967 16.6429 2.99982 17.0461 3.00002 17.59L3.00004 19.4319C3.00001 19.6843 2.99998 19.9301 3.01699 20.1382C3.03567 20.3668 3.07973 20.6366 3.21803 20.908C3.40978 21.2843 3.71574 21.5903 4.09206 21.782C4.36349 21.9203 4.63322 21.9644 4.86182 21.9831C5.06988 22.0001 5.31565 22 5.56791 22H11.5351C11.1948 21.4117 11 20.7286 11 20V19C11 17.9583 11.3987 17.0109 12.0485 16.3006C12.2275 15.0219 12.8901 13.8982 13.8456 13.1204C13.819 13.1348 13.793 13.1504 13.7676 13.1673C12.9768 13.6931 12.0244 14 11 14C9.97666 14 9.02944 13.6936 8.23782 13.1673C8.07376 13.0582 7.88115 13 7.68414 13Z" fill="#0000CC"/>
<path fill-rule="evenodd" clip-rule="evenodd" d="M17 14C15.3431 14 14 15.3431 14 17V17.2676C13.4022 17.6134 13 18.2597 13 19V20C13 21.1046 13.8954 22 15 22H19C20.1046 22 21 21.1046 21 20V19C21 18.2597 20.5978 17.6134 20 17.2676V17C20 15.3431 18.6569 14 17 14ZM16 17C16 16.4477 16.4477 16 17 16C17.5523 16 18 16.4477 18 17H16Z" fill="#0000CC"/>
</svg>
