<svg width="24" height="24" viewBox="0 0 24 24" fill="none" xmlns="http://www.w3.org/2000/svg">
<path d="M11 2C8.23858 2 6 4.23858 6 7C6 9.76142 8.23858 12 11 12C13.7614 12 16 9.76142 16 7C16 4.23858 13.7614 2 11 2Z" fill="#0000CC"/>
<path d="M11 13C6.58172 13 3 16.5817 3 21C3 21.5523 3.44772 22 4 22H11.5351C11.1948 21.4117 11 20.7286 11 20V19C11 17.9583 11.3987 17.0109 12.0485 16.3006C12.2066 15.1709 12.7422 14.1623 13.5237 13.4062C12.7303 13.1427 11.8818 13 11 13Z" fill="#0000CC"/>
<path fill-rule="evenodd" clip-rule="evenodd" d="M17 14C15.3431 14 14 15.3431 14 17V17.2676C13.4022 17.6134 13 18.2597 13 19V20C13 21.1046 13.8954 22 15 22H19C20.1046 22 21 21.1046 21 20V19C21 18.2597 20.5978 17.6134 20 17.2676V17C20 15.3431 18.6569 14 17 14ZM16 17C16 16.4477 16.4477 16 17 16C17.5523 16 18 16.4477 18 17H16Z" fill="#0000CC"/>
</svg>
