<svg width="24" height="24" viewBox="0 0 24 24" fill="none" xmlns="http://www.w3.org/2000/svg">
<path opacity="0.3" fill-rule="evenodd" clip-rule="evenodd" d="M2 12C2 6.47715 6.47715 2 12 2C17.5228 2 22 6.47715 22 12C22 17.5228 17.5228 22 12 22C6.47715 22 2 17.5228 2 12Z" fill="#0000CC"/>
<path fill-rule="evenodd" clip-rule="evenodd" d="M12.3238 9.44752C11.7232 9.68806 10.9442 10 10 10C9.34877 10 8.73371 9.84032 8.3088 9.69868C8.09035 9.62587 7.90789 9.55294 7.77798 9.49727C7.67325 9.45238 7.61356 9.42473 7.55317 9.39461C7.05919 9.14762 6.85861 8.54676 7.1056 8.05279C7.35259 7.55881 7.95326 7.35858 8.44724 7.60557C8.92478 7.83116 9.46977 8 10 8C10.5307 8 10.9855 7.82876 11.6286 7.57152L11.6762 7.55248C12.2769 7.31194 13.0558 7 14 7C14.6513 7 15.2663 7.15968 15.6913 7.30132C15.9097 7.37413 16.0922 7.44706 16.2221 7.50273L16.4469 7.60539C16.9409 7.85238 17.1414 8.45324 16.8945 8.94721C16.6477 9.44076 16.0478 9.64107 15.5541 9.39507L15.4342 9.34102C15.3454 9.30294 15.2153 9.25087 15.0588 9.19868C14.7337 9.09032 14.3488 9 14 9C13.4693 9 13.0145 9.17124 12.3714 9.42848L12.3238 9.44752ZM6 12C6 11.4477 6.44772 11 7 11H17C17.5523 11 18 11.4477 18 12C18 12.5523 17.5523 13 17 13H7C6.44772 13 6 12.5523 6 12ZM12.324 16.4475C11.7233 16.6881 10.9443 17 10.0001 17C9.34889 17 8.73383 16.8403 8.30892 16.6987C8.09047 16.6259 7.90801 16.5529 7.7781 16.4973C7.67337 16.4524 7.61368 16.4247 7.55329 16.3946C7.05931 16.1476 6.85873 15.5468 7.10572 15.0528C7.35271 14.5588 7.95338 14.3586 8.44736 14.6056C8.9249 14.8312 9.46989 15 10.0001 15C10.5308 15 10.9857 14.8288 11.6288 14.5715L11.6763 14.5525C12.277 14.3119 13.056 14 14.0001 14C14.6514 14 15.2665 14.1597 15.6914 14.3013C15.9098 14.3741 16.0923 14.4471 16.2222 14.5027L16.447 14.6054C16.941 14.8524 17.1416 15.4532 16.8946 15.9472C16.6478 16.4408 16.048 16.6411 15.5542 16.3951L15.4344 16.341C15.3455 16.3029 15.2155 16.2509 15.0589 16.1987C14.7338 16.0903 14.3489 16 14.0001 16C13.4695 16 13.0146 16.1712 12.3715 16.4285L12.324 16.4475Z" fill="#0000CC"/>
</svg>
