<svg width="24" height="24" viewBox="0 0 24 24" fill="none" xmlns="http://www.w3.org/2000/svg">
<path opacity="0.3" d="M14.151 7C14.8642 7 15.5559 7.10109 16.2111 7.29007C15.8858 6.82334 15.4686 6.41793 14.9802 6.11243C14.5614 3.76246 12.4766 2 9.9978 2C8.07836 2 6.42354 3.0914 5.56694 4.625C3.42714 5.20241 2 7.09634 2 9.17807C2 10.8706 2.88428 12.3494 4.20853 13.2078C5.0714 11.9672 6.35165 10.9987 7.90235 10.5161C9.17624 8.4468 11.4858 7 14.151 7Z" fill="#0000CC"/>
<path d="M10.1 22C7.28335 22 5 19.7755 5 17.0315C5 14.7572 6.7 12.6562 9.25 12.25C10.0499 10.3802 11.943 9 14.151 9C16.9794 9 19.2911 11.1566 19.45 13.875C20.951 14.5202 22 16.1039 22 17.8185C22 20.1279 20.0972 22 17.75 22L10.1 22Z" fill="#0000CC"/>
</svg>
