<svg width="24" height="24" viewBox="0 0 24 24" fill="none" xmlns="http://www.w3.org/2000/svg">
<path opacity="0.3" fill-rule="evenodd" clip-rule="evenodd" d="M7.32159 5.1171C8.32966 3.29155 10.3194 2 12.6127 2C15.5626 2 18.0685 4.06975 18.5317 6.85019C20.0163 7.71575 21 9.36366 21 11.1402C21 13.8575 18.7275 16 16 16L8.8 16C5.64015 16 3 13.5413 3 10.4137C3 7.95928 4.74492 5.75122 7.32159 5.1171Z" fill="#0000CC"/>
<path d="M6.55481 17.1679C7.01434 17.4743 7.13851 18.0952 6.83216 18.5547L4.83216 21.5547C4.5258 22.0142 3.90493 22.1384 3.44541 21.832C2.98588 21.5257 2.8617 20.9048 3.16806 20.4453L5.16806 17.4453C5.47441 16.9858 6.09528 16.8616 6.55481 17.1679Z" fill="#0000CC"/>
<path d="M15.0548 17.1679C15.5143 17.4743 15.6385 18.0952 15.3322 18.5547L13.3322 21.5547C13.0258 22.0142 12.4049 22.1384 11.9454 21.832C11.4859 21.5257 11.3617 20.9048 11.6681 20.4453L13.6681 17.4453C13.9744 16.9858 14.5953 16.8616 15.0548 17.1679Z" fill="#0000CC"/>
<path d="M9.50011 17C10.0524 17 10.5001 17.4477 10.5001 18C11.0524 18 11.5001 18.4477 11.5001 19C11.5001 19.5523 11.0524 20 10.5001 20C10.5001 20.5523 10.0524 21 9.50011 21C8.94782 21 8.50011 20.5523 8.50011 20C7.94782 20 7.50011 19.5523 7.50011 19C7.50011 18.4477 7.94782 18 8.50011 18C8.50011 17.4477 8.94782 17 9.50011 17Z" fill="#0000CC"/>
<path d="M18.0001 17C18.5524 17 19.0001 17.4477 19.0001 18C19.5524 18 20.0001 18.4477 20.0001 19C20.0001 19.5523 19.5524 20 19.0001 20C19.0001 20.5523 18.5524 21 18.0001 21C17.4478 21 17.0001 20.5523 17.0001 20C16.4478 20 16.0001 19.5523 16.0001 19C16.0001 18.4477 16.4478 18 17.0001 18C17.0001 17.4477 17.4478 17 18.0001 17Z" fill="#0000CC"/>
</svg>
