<svg width="24" height="24" viewBox="0 0 24 24" fill="none" xmlns="http://www.w3.org/2000/svg">
<path d="M14.1127 9C11.928 9 10.0425 10.2793 9.15671 12.054C6.67206 12.5631 5 14.6357 5 16.9137C5 19.744 7.39459 22 10.3 22L17.5 22C19.9683 22 22 20.0647 22 17.6402C22 15.9616 21.0192 14.4076 19.5722 13.6687C19.2569 11.0239 16.9157 9 14.1127 9Z" fill="#0000CC"/>
<g opacity="0.3">
<path d="M9 2.5C9 1.94772 8.55228 1.5 8 1.5C7.44772 1.5 7 1.94772 7 2.5V3.5C7 4.05228 7.44772 4.5 8 4.5C8.55228 4.5 9 4.05228 9 3.5V2.5Z" fill="#0000CC"/>
<path d="M4.81843 3.40373C4.42791 3.01321 3.79475 3.01321 3.40422 3.40373C3.0137 3.79426 3.0137 4.42742 3.40422 4.81795L4.11133 5.52505C4.50185 5.91558 5.13502 5.91558 5.52554 5.52505C5.91607 5.13453 5.91607 4.50136 5.52554 4.11084L4.81843 3.40373Z" fill="#0000CC"/>
<path d="M12.5958 4.81795C12.9863 4.42742 12.9863 3.79426 12.5958 3.40373C12.2053 3.01321 11.5721 3.01321 11.1816 3.40373L10.4745 4.11084C10.0839 4.50136 10.0839 5.13453 10.4745 5.52505C10.865 5.91558 11.4981 5.91558 11.8887 5.52505L12.5958 4.81795Z" fill="#0000CC"/>
<path d="M2.5 7C1.94772 7 1.5 7.44772 1.5 8C1.5 8.55228 1.94772 9 2.5 9H3.5C4.05228 9 4.5 8.55228 4.5 8C4.5 7.44772 4.05228 7 3.5 7H2.5Z" fill="#0000CC"/>
<path d="M5.52547 10.475C5.13494 10.0845 4.50178 10.0845 4.11125 10.475L3.40415 11.1821C3.01362 11.5727 3.01362 12.2058 3.40415 12.5963C3.79467 12.9869 4.42783 12.9869 4.81836 12.5963L5.52547 11.8892C5.91599 11.4987 5.91599 10.8655 5.52547 10.475Z" fill="#0000CC"/>
<path d="M7.84519 10.341C8.61329 9.1991 9.7017 8.26557 10.9879 7.67843C10.8506 6.14884 9.56531 4.95001 8 4.95001C6.34315 4.95001 5 6.29316 5 7.95001C5 9.21605 5.78424 10.2989 6.89343 10.7393C7.19767 10.5862 7.51546 10.4528 7.84519 10.341Z" fill="#0000CC"/>
</g>
</svg>
