<svg width="24" height="24" viewBox="0 0 24 24" fill="none" xmlns="http://www.w3.org/2000/svg">
<path opacity="0.3" d="M10.9263 3.10159C10.9823 2.5528 10.5832 2.06217 10.0343 2.00539C9.48499 1.94856 8.99358 2.34783 8.93675 2.89718L8.92993 2.97187C8.92632 3.015 8.92165 3.07596 8.9168 3.15338C8.9071 3.30816 8.89666 3.52911 8.89249 3.80532C8.88417 4.35707 8.90085 5.13315 8.99977 6.0454C9.19662 7.86085 9.72456 10.2656 11.074 12.5146C12.2246 14.4322 12.6966 16.5275 12.8748 18.1704C12.9634 18.9873 12.9779 19.68 12.9706 20.1647C12.967 20.4067 12.9579 20.5959 12.95 20.7217L12.9366 20.8985C12.8806 21.4473 13.2796 21.938 13.8285 21.9948C14.3779 22.0516 14.8693 21.6523 14.9261 21.103L14.9461 20.8468C14.9558 20.692 14.9662 20.471 14.9704 20.1948C14.9787 19.6431 14.962 18.867 14.8631 17.9548C14.6663 16.1393 14.1383 13.7345 12.7889 11.4856C11.6383 9.56792 11.1663 7.47269 10.9881 5.8298C10.8995 5.01286 10.885 4.32019 10.8923 3.83547C10.8959 3.59345 10.905 3.40424 10.9129 3.27843L10.9263 3.10159Z" fill="#0000CC"/>
<path d="M5.99388 5.88878C5.9324 5.33993 5.43763 4.94483 4.88878 5.0063C4.33993 5.06778 3.94483 5.56254 4.0063 6.1114C4.20869 7.91837 4.73992 10.2925 6.07322 12.5146C7.22383 14.4323 7.6959 16.5275 7.87404 18.1704C7.96262 18.9873 7.97719 19.68 7.96989 20.1647C7.96624 20.4067 7.95715 20.5959 7.94927 20.7217C7.94533 20.7846 7.94169 20.8316 7.93921 20.8613L7.93644 20.8927L7.93602 20.8972L7.93588 20.8985C7.87984 21.4474 8.27891 21.938 8.82781 21.9948C9.37716 22.0516 9.86857 21.6523 9.9254 21.103L9.92573 21.0998L9.92623 21.0948L9.92769 21.0795L9.93222 21.0283C9.93583 20.9852 9.9405 20.9242 9.94535 20.8468C9.95505 20.692 9.96549 20.4711 9.96966 20.1948C9.97798 19.6431 9.9613 18.867 9.86238 17.9548C9.66553 16.1393 9.1376 13.7345 7.7882 11.4856C6.65149 9.5911 6.17693 7.52315 5.99388 5.88878Z" fill="#0000CC"/>
<path d="M15.9939 5.88878C15.9324 5.33993 15.4376 4.94483 14.8888 5.0063C14.3399 5.06778 13.9448 5.56254 14.0063 6.1114C14.2087 7.91837 14.7399 10.2925 16.0732 12.5146C17.2238 14.4323 17.6959 16.5275 17.874 18.1704C17.9626 18.9873 17.9772 19.68 17.9699 20.1647C17.9662 20.4067 17.9571 20.5959 17.9493 20.7217C17.9453 20.7846 17.9417 20.8316 17.9392 20.8613L17.9364 20.8927L17.936 20.8972L17.9359 20.8985C17.8798 21.4474 18.2789 21.938 18.8278 21.9948C19.3772 22.0516 19.8686 21.6523 19.9254 21.103L19.9255 21.1016L19.9257 21.0998L19.9262 21.0948L19.9277 21.0795L19.9322 21.0283C19.9358 20.9852 19.9405 20.9242 19.9454 20.8468C19.9551 20.692 19.9655 20.4711 19.9697 20.1948C19.978 19.6431 19.9613 18.867 19.8624 17.9548C19.6655 16.1393 19.1376 13.7345 17.7882 11.4856C16.6515 9.5911 16.1769 7.52315 15.9939 5.88878Z" fill="#0000CC"/>
</svg>
