<svg width="24" height="24" viewBox="0 0 24 24" fill="none" xmlns="http://www.w3.org/2000/svg">
<g opacity="0.3">
<path d="M11.0005 3.58613L10.7073 3.29289C10.3168 2.90237 9.68362 2.90237 9.29309 3.29289C8.90257 3.68342 8.90257 4.31658 9.29309 4.70711L11.0005 6.41455V3.58613Z" fill="#0000CC"/>
<path d="M7.42903 8.19066L6.8775 6.13234C6.73456 5.59887 6.18622 5.28229 5.65276 5.42523C5.11929 5.56817 4.80271 6.11651 4.94565 6.64997L4.97954 6.77645L7.42903 8.19066Z" fill="#0000CC"/>
<path d="M3.98007 8.50881L6.42956 9.92302L4.3704 10.4748C3.83693 10.6177 3.28859 10.3011 3.14565 9.76767C3.00271 9.2342 3.31929 8.68587 3.85276 8.54292L3.98007 8.50881Z" fill="#0000CC"/>
<path d="M6.42955 14.0769L3.98006 15.4911L3.85309 15.4571C3.31963 15.3141 3.00304 14.7658 3.14598 14.2323C3.28893 13.6989 3.83726 13.3823 4.37073 13.5252L6.42955 14.0769Z" fill="#0000CC"/>
<path d="M4.97997 17.2232L7.42946 15.809L6.87784 17.8677C6.73489 18.4011 6.18656 18.7177 5.65309 18.5748C5.11963 18.4318 4.80304 17.8835 4.94598 17.35L4.97997 17.2232Z" fill="#0000CC"/>
<path d="M11.0005 17.5854V20.4139L10.7073 20.7071C10.3168 21.0976 9.68362 21.0976 9.29309 20.7071C8.90257 20.3166 8.90257 19.6834 9.29309 19.2929L11.0005 17.5854Z" fill="#0000CC"/>
<path d="M13.0005 20.4146V17.5861L14.7073 19.2929C15.0978 19.6834 15.0978 20.3166 14.7073 20.7071C14.3168 21.0976 13.6836 21.0976 13.2931 20.7071L13.0005 20.4146Z" fill="#0000CC"/>
<path d="M16.6235 15.8085L19.073 17.2227L19.1071 17.35C19.2501 17.8835 18.9335 18.4318 18.4 18.5748C17.8666 18.7177 17.3182 18.4011 17.1753 17.8677L16.6235 15.8085Z" fill="#0000CC"/>
<path d="M20.0735 15.491L17.6241 14.0768L19.6824 13.5252C20.2159 13.3823 20.7642 13.6989 20.9071 14.2323C21.0501 14.7658 20.7335 15.3141 20.2 15.4571L20.0735 15.491Z" fill="#0000CC"/>
<path d="M17.624 9.92314L20.0735 8.50893L20.2004 8.54292C20.7338 8.68586 21.0504 9.2342 20.9075 9.76767C20.7645 10.3011 20.2162 10.6177 19.6827 10.4748L17.624 9.92314Z" fill="#0000CC"/>
<path d="M19.0735 6.77691L16.624 8.19113L17.1756 6.13233C17.3186 5.59886 17.8669 5.28228 18.4004 5.42522C18.9338 5.56817 19.2504 6.1165 19.1075 6.64997L19.0735 6.77691Z" fill="#0000CC"/>
<path d="M13.0005 6.41387V3.58545L13.2931 3.29289C13.6836 2.90237 14.3168 2.90237 14.7073 3.29289C15.0978 3.68342 15.0978 4.31658 14.7073 4.70711L13.0005 6.41387Z" fill="#0000CC"/>
</g>
<path fill-rule="evenodd" clip-rule="evenodd" d="M12.0005 2C12.5528 2 13.0005 2.44772 13.0005 3V10.2831L19.321 6.63397C19.7993 6.35783 20.4109 6.52171 20.6871 7C20.9632 7.47829 20.7993 8.08988 20.321 8.36603L14.0269 11.9999L20.3212 15.634C20.7995 15.9101 20.9634 16.5217 20.6872 17C20.4111 17.4783 19.7995 17.6422 19.3212 17.366L13.0005 13.7168V21C13.0005 21.5523 12.5528 22 12.0005 22C11.4483 22 11.0005 21.5523 11.0005 21V13.7472L4.73259 17.366C4.2543 17.6422 3.64271 17.4783 3.36656 17C3.09042 16.5217 3.2543 15.9101 3.73259 15.634L10.0269 11.9999L3.73277 8.36603C3.25447 8.08988 3.0906 7.47829 3.36674 7C3.64288 6.52171 4.25447 6.35783 4.73277 6.63397L11.0005 10.2527V3C11.0005 2.44772 11.4483 2 12.0005 2Z" fill="#0000CC"/>
</svg>
