<svg width="24" height="24" viewBox="0 0 24 24" fill="none" xmlns="http://www.w3.org/2000/svg">
<g opacity="0.3">
<path d="M11 5.58203L8.71667 3.29367C8.32657 2.90272 7.69341 2.90202 7.30245 3.29212C6.9115 3.68221 6.9108 4.31538 7.3009 4.70633L11 8.41357V5.58203Z" fill="#0000CC"/>
<path d="M8.42235 11L4.70633 7.29212C4.31538 6.90202 3.68221 6.90272 3.29212 7.29367C2.90202 7.68462 2.90272 8.31779 3.29367 8.70788L5.59082 11H8.42235Z" fill="#0000CC"/>
<path d="M5.59082 13H8.42235L4.70633 16.7079C4.31538 17.098 3.68221 17.0973 3.29212 16.7063C2.90202 16.3154 2.90272 15.6822 3.29367 15.2921L5.59082 13Z" fill="#0000CC"/>
<path d="M11 15.5864V18.418L8.71667 20.7063C8.32657 21.0973 7.69341 21.098 7.30245 20.7079C6.9115 20.3178 6.9108 19.6846 7.3009 19.2937L11 15.5864Z" fill="#0000CC"/>
<path d="M13 18.4142V15.5858L16.7071 19.2929C17.0976 19.6834 17.0976 20.3166 16.7071 20.7071C16.3166 21.0976 15.6834 21.0976 15.2929 20.7071L13 18.4142Z" fill="#0000CC"/>
<path d="M15.5858 13H18.4142L20.7071 15.2929C21.0976 15.6834 21.0976 16.3166 20.7071 16.7071C20.3166 17.0976 19.6834 17.0976 19.2929 16.7071L15.5858 13Z" fill="#0000CC"/>
<path d="M18.4142 11H15.5858L19.2929 7.29289C19.6834 6.90237 20.3166 6.90237 20.7071 7.29289C21.0976 7.68342 21.0976 8.31658 20.7071 8.70711L18.4142 11Z" fill="#0000CC"/>
<path d="M13 8.41421V5.58579L15.2929 3.29289C15.6834 2.90237 16.3166 2.90237 16.7071 3.29289C17.0976 3.68342 17.0976 4.31658 16.7071 4.70711L13 8.41421Z" fill="#0000CC"/>
</g>
<path fill-rule="evenodd" clip-rule="evenodd" d="M12 2C12.5523 2 13 2.44772 13 3V11H21C21.5523 11 22 11.4477 22 12C22 12.5523 21.5523 13 21 13H13V21C13 21.5523 12.5523 22 12 22C11.4477 22 11 21.5523 11 21V13H3C2.44772 13 2 12.5523 2 12C2 11.4477 2.44772 11 3 11H11V3C11 2.44772 11.4477 2 12 2Z" fill="#0000CC"/>
</svg>
