<svg width="24" height="24" viewBox="0 0 24 24" fill="none" xmlns="http://www.w3.org/2000/svg">
<path d="M22 11C22 11.5523 21.5523 12 21 12C20.4477 12 20 11.5523 20 11C20 10.4477 20.4477 10 21 10C21.5523 10 22 10.4477 22 11Z" fill="#0000CC"/>
<path d="M19.5 13.5C19.5 14.0523 19.0523 14.5 18.5 14.5C17.9477 14.5 17.5 14.0523 17.5 13.5C17.5 12.9477 17.9477 12.5 18.5 12.5C19.0523 12.5 19.5 12.9477 19.5 13.5Z" fill="#0000CC"/>
<path d="M17 16C17 16.5523 16.5523 17 16 17C15.4477 17 15 16.5523 15 16C15 15.4477 15.4477 15 16 15C16.5523 15 17 15.4477 17 16Z" fill="#0000CC"/>
<path d="M12 21C12 21.5523 11.5523 22 11 22C10.4477 22 10 21.5523 10 21C10 20.4477 10.4477 20 11 20C11.5523 20 12 20.4477 12 21Z" fill="#0000CC"/>
<path d="M17 21C17 21.5523 16.5523 22 16 22C15.4477 22 15 21.5523 15 21C15 20.4477 15.4477 20 16 20C16.5523 20 17 20.4477 17 21Z" fill="#0000CC"/>
<path d="M21 22C21.5523 22 22 21.5523 22 21C22 20.4477 21.5523 20 21 20C20.4477 20 20 20.4477 20 21C20 21.5523 20.4477 22 21 22Z" fill="#0000CC"/>
<path d="M22 16C22 16.5523 21.5523 17 21 17C20.4477 17 20 16.5523 20 16C20 15.4477 20.4477 15 21 15C21.5523 15 22 15.4477 22 16Z" fill="#0000CC"/>
<path d="M19.5 18.5C19.5 19.0523 19.0523 19.5 18.5 19.5C17.9477 19.5 17.5 19.0523 17.5 18.5C17.5 17.9477 17.9477 17.5 18.5 17.5C19.0523 17.5 19.5 17.9477 19.5 18.5Z" fill="#0000CC"/>
<path d="M14.5 18.5C14.5 19.0523 14.0523 19.5 13.5 19.5C12.9477 19.5 12.5 19.0523 12.5 18.5C12.5 17.9477 12.9477 17.5 13.5 17.5C14.0523 17.5 14.5 17.9477 14.5 18.5Z" fill="#0000CC"/>
<g opacity="0.3">
<path d="M12.4314 2.51264C11.5845 1.8703 10.4136 1.8703 9.56679 2.51264C9.23665 2.76307 9.02379 3.12136 8.86362 3.42846C8.69729 3.74737 8.51289 4.16637 8.29386 4.66406L8.27975 4.69612C8.20395 4.86834 8.16313 4.9602 8.13001 5.02536L8.1258 5.03355L8.11677 5.03173C8.04518 5.017 7.94791 4.99164 7.766 4.94353L7.73219 4.93458C7.2065 4.79552 6.76392 4.67844 6.41087 4.60964C6.0709 4.54339 5.65806 4.48642 5.25643 4.5884C4.22624 4.84999 3.49619 5.76544 3.4704 6.82801C3.46035 7.24227 3.60776 7.63208 3.748 7.94878C3.89363 8.27767 4.10626 8.6831 4.35881 9.16467L4.37505 9.19564C4.46244 9.36228 4.50881 9.45147 4.5391 9.51799L4.54289 9.52638L4.53583 9.53231C4.47967 9.5791 4.3992 9.63934 4.24817 9.75156L4.22009 9.77242C3.7836 10.0967 3.41613 10.3697 3.14222 10.6029C2.87846 10.8274 2.57651 11.1146 2.40583 11.4922C1.96803 12.4607 2.22858 13.6023 3.04325 14.285C3.36087 14.5511 3.75754 14.6789 4.09258 14.7667C4.44052 14.8579 4.89005 14.9444 5.42401 15.0472L5.45838 15.0539C5.64315 15.0894 5.74179 15.1088 5.81269 15.1266L5.82161 15.1289L5.82185 15.1381C5.82342 15.2111 5.82034 15.3116 5.81391 15.4997L5.81271 15.5346C5.79411 16.0781 5.77846 16.5356 5.78994 16.8951C5.801 17.2413 5.83732 17.6565 6.02612 18.0253C6.31709 18.5938 6.8141 19.0042 7.39046 19.1953L11.6361 14.9497C11.4289 14.9828 11.2165 15 11 15C8.79086 15 7 13.2091 7 11C7 8.79086 8.79086 7 11 7C13.2091 7 15 8.79086 15 11C15 11.2165 14.9828 11.4289 14.9497 11.6361L17.8779 8.70789C18.0264 8.42096 18.1532 8.16785 18.2502 7.94878C18.3904 7.63208 18.5378 7.24227 18.5278 6.82801C18.502 5.76544 17.7719 4.84999 16.7417 4.5884C16.3401 4.48642 15.9273 4.54339 15.5873 4.60964C15.2342 4.67844 14.7917 4.79552 14.266 4.93458L14.2322 4.94353C14.0502 4.99164 13.953 5.017 13.8814 5.03173L13.8724 5.03355L13.8681 5.02536C13.835 4.9602 13.7942 4.86834 13.7184 4.69612L13.7043 4.66409C13.4853 4.16642 13.3009 3.74737 13.1345 3.42846C12.9744 3.12136 12.7615 2.76307 12.4314 2.51264Z" fill="#0000CC"/>
<path d="M9 11C9 9.89543 9.89543 9 11 9C12.1046 9 13 9.89543 13 11C13 12.1046 12.1046 13 11 13C9.89543 13 9 12.1046 9 11Z" fill="#0000CC"/>
</g>
</svg>
