<svg width="24" height="24" viewBox="0 0 24 24" fill="none" xmlns="http://www.w3.org/2000/svg">
<g opacity="0.3">
<path d="M4.29289 10.2929C4.68342 9.90237 5.31658 9.90237 5.70711 10.2929L6.70711 11.2929C7.09763 11.6834 7.09763 12.3166 6.70711 12.7071C6.31658 13.0976 5.68342 13.0976 5.29289 12.7071L4.29289 11.7071C3.90237 11.3166 3.90237 10.6834 4.29289 10.2929Z" fill="#0000CC"/>
<path d="M19.7071 10.2929C20.0976 10.6834 20.0976 11.3166 19.7071 11.7071L18.7071 12.7071C18.3166 13.0976 17.6834 13.0976 17.2929 12.7071C16.9024 12.3166 16.9024 11.6834 17.2929 11.2929L18.2929 10.2929C18.6834 9.90237 19.3166 9.90237 19.7071 10.2929Z" fill="#0000CC"/>
<path d="M3 17H6.08296C6.55904 14.1623 9.027 12 12 12C14.973 12 17.441 14.1623 17.917 17H21C21.5523 17 22 17.4477 22 18C22 18.5523 21.5523 19 21 19H3C2.44772 19 2 18.5523 2 18C2 17.4477 2.44772 17 3 17Z" fill="#0000CC"/>
</g>
<path fill-rule="evenodd" clip-rule="evenodd" d="M12 2C12.5523 2 13 2.44772 13 3V7.58579L14.2929 6.29289C14.6834 5.90237 15.3166 5.90237 15.7071 6.29289C16.0976 6.68342 16.0976 7.31658 15.7071 7.70711L12.7071 10.7071C12.3166 11.0976 11.6834 11.0976 11.2929 10.7071L8.29289 7.70711C7.90237 7.31658 7.90237 6.68342 8.29289 6.29289C8.68342 5.90237 9.31658 5.90237 9.70711 6.29289L11 7.58579V3C11 2.44772 11.4477 2 12 2ZM4 21C4 20.4477 4.44772 20 5 20H19C19.5523 20 20 20.4477 20 21C20 21.5523 19.5523 22 19 22H5C4.44772 22 4 21.5523 4 21Z" fill="#0000CC"/>
</svg>
