<svg width="24" height="24" viewBox="0 0 24 24" fill="none" xmlns="http://www.w3.org/2000/svg">
<path opacity="0.3" fill-rule="evenodd" clip-rule="evenodd" d="M7 2C4.79086 2 3 3.79086 3 6V13.9995C2.37256 14.835 2 15.8748 2 16.9998C2 19.7613 4.23858 21.9998 7 21.9998C9.76142 21.9998 12 19.7613 12 16.9998C12 15.8748 11.6274 14.835 11 13.9995V6C11 3.79086 9.20914 2 7 2ZM8.00706 14.0035C8.00902 13.4513 7.56289 13.002 7.01061 13C6.45832 12.9981 6.00903 13.4442 6.00708 13.9965L6.00259 15.2659C5.40336 15.6113 5 16.2585 5 16.9998C5 18.1044 5.89543 18.9998 7 18.9998C8.10457 18.9998 9 18.1044 9 16.9998C9 16.2606 8.59896 15.6151 8.00259 15.2689L8.00706 14.0035Z" fill="#0000CC"/>
<path d="M15.1301 2C15.6823 2 16.1301 2.44772 16.1301 3C16.386 3 16.6419 3.09763 16.8372 3.29289C17.2277 3.68342 17.2277 4.31658 16.8372 4.70711L16.1301 5.41421V8.28322L18.5411 6.89111L18.9464 5.37876C19.0893 4.84529 19.6376 4.52871 20.1711 4.67165C20.588 4.78335 20.8725 5.14267 20.9086 5.54899C21.3485 5.4052 21.8438 5.58322 22.0844 5.99998C22.3251 6.41672 22.2316 6.93466 21.8872 7.24374C22.2211 7.47818 22.3901 7.90422 22.2784 8.32119C22.1355 8.85466 21.5872 9.17127 21.0537 9.02835L19.5412 8.62314L17.1565 9.99998L19.5413 11.3768L21.0532 10.9717C21.5866 10.8287 22.135 11.1453 22.2779 11.6787C22.3896 12.0955 22.2208 12.5214 21.8872 12.7559C22.2319 13.065 22.3255 13.5831 22.0848 14C21.8441 14.4169 21.3486 14.5949 20.9087 14.4509C20.8725 14.8573 20.588 15.2167 20.1711 15.3284C19.6376 15.4713 19.0893 15.1546 18.9464 14.6212L18.5413 13.1088L16.1301 11.7167V14.5858L16.8372 15.2929C17.2277 15.6834 17.2277 16.3166 16.8372 16.7071C16.6419 16.9024 16.386 17 16.1301 17C16.1301 17.5523 15.6823 18 15.1301 18C14.5778 18 14.1301 17.5523 14.1301 17C13.8741 17 13.6182 16.9024 13.4229 16.7071C13.0324 16.3166 13.0324 15.6834 13.4229 15.2929L14.1301 14.5858V11.7473L14.0001 11.8223C13.5218 12.0984 12.9102 11.9345 12.6341 11.4562C12.358 10.9779 12.5219 10.3663 13.0002 10.0902L13.1565 9.99995L13.0002 9.90969C12.5219 9.63355 12.358 9.02196 12.6341 8.54366C12.9103 8.06537 13.5219 7.9015 14.0002 8.17764L14.1301 8.25263V5.41421L13.4229 4.70711C13.0324 4.31658 13.0324 3.68342 13.4229 3.29289C13.6182 3.09763 13.8741 3 14.1301 3C14.1301 2.44772 14.5778 2 15.1301 2Z" fill="#0000CC"/>
<path d="M7.01061 13C7.56289 13.002 8.00902 13.4513 8.00706 14.0035L8.00259 15.2689C8.59896 15.6151 9 16.2606 9 16.9998C9 18.1044 8.10457 18.9998 7 18.9998C5.89543 18.9998 5 18.1044 5 16.9998C5 16.2585 5.40336 15.6113 6.00259 15.2659L6.00708 13.9965C6.00903 13.4442 6.45832 12.9981 7.01061 13Z" fill="#0000CC"/>
</svg>
