<svg width="24" height="24" viewBox="0 0 24 24" fill="none" xmlns="http://www.w3.org/2000/svg">
<path opacity="0.3" fill-rule="evenodd" clip-rule="evenodd" d="M3 6.00018C3 3.79104 4.79086 2.00018 7 2.00018C9.20914 2.00018 11 3.79104 11 6.00018V13.9996C11.6274 14.8351 12 15.875 12 17C12 19.7614 9.76142 22 7 22C4.23858 22 2 19.7614 2 17C2 15.875 2.37256 14.8351 3 13.9996V6.00018Z" fill="#0000CC"/>
<path d="M19 3C19 2.44772 18.5523 2 18 2C17.4477 2 17 2.44772 17 3V18.5858L15.7071 17.2929C15.3166 16.9024 14.6834 16.9024 14.2929 17.2929C13.9024 17.6834 13.9024 18.3166 14.2929 18.7071L17.2929 21.7071C17.6834 22.0976 18.3166 22.0976 18.7071 21.7071L21.7071 18.7071C22.0976 18.3166 22.0976 17.6834 21.7071 17.2929C21.3166 16.9024 20.6834 16.9024 20.2929 17.2929L19 18.5858V3Z" fill="#0000CC"/>
<path d="M8 12C8 11.4477 7.55228 11 7 11C6.44772 11 6 11.4477 6 12V15.2676C5.4022 15.6134 5 16.2597 5 17C5 18.1046 5.89543 19 7 19C8.10457 19 9 18.1046 9 17C9 16.2597 8.5978 15.6134 8 15.2676V12Z" fill="#0000CC"/>
</svg>
