<svg width="24" height="24" viewBox="0 0 24 24" fill="none" xmlns="http://www.w3.org/2000/svg">
<path opacity="0.3" fill-rule="evenodd" clip-rule="evenodd" d="M12 2C9.79086 2 8 3.79086 8 6V13.9995C7.37256 14.835 7 15.8748 7 16.9998C7 19.7613 9.23858 21.9998 12 21.9998C14.7614 21.9998 17 19.7613 17 16.9998C17 15.8748 16.6274 14.835 16 13.9995V6C16 3.79086 14.2091 2 12 2ZM12 14.9998C10.8954 14.9998 10 15.8952 10 16.9998C10 18.1044 10.8954 18.9998 12 18.9998C13.1046 18.9998 14 18.1044 14 16.9998C14 15.8952 13.1046 14.9998 12 14.9998Z" fill="#0000CC"/>
<path fill-rule="evenodd" clip-rule="evenodd" d="M12 19C13.1046 19 14 18.1046 14 17C14 15.8954 13.1046 15 12 15C10.8954 15 10 15.8954 10 17C10 18.1046 10.8954 19 12 19Z" fill="#0000CC"/>
</svg>
