<svg width="24" height="24" viewBox="0 0 24 24" fill="none" xmlns="http://www.w3.org/2000/svg">
<path opacity="0.3" fill-rule="evenodd" clip-rule="evenodd" d="M8 2C5.79086 2 4 3.79086 4 6V13.9995C3.37256 14.835 3 15.8748 3 16.9998C3 19.7613 5.23858 21.9998 8 21.9998C10.7614 21.9998 13 19.7613 13 16.9998C13 15.8748 12.6274 14.835 12 13.9995V6C12 3.79086 10.2091 2 8 2Z" fill="#0000CC"/>
<path fill-rule="evenodd" clip-rule="evenodd" d="M15 5C15 3.34315 16.3431 2 18 2C19.6569 2 21 3.34315 21 5C21 6.65685 19.6569 8 18 8C16.3431 8 15 6.65685 15 5ZM18 4C17.4477 4 17 4.44772 17 5C17 5.55228 17.4477 6 18 6C18.5523 6 19 5.55228 19 5C19 4.44772 18.5523 4 18 4Z" fill="#0000CC"/>
<path d="M8 5C8.55228 5 9 5.44772 9 6V15.2674C9.5978 15.6132 10 16.2595 10 16.9998C10 18.1044 9.10457 18.9998 8 18.9998C6.89543 18.9998 6 18.1044 6 16.9998C6 16.2595 6.4022 15.6132 7 15.2674V6C7 5.44772 7.44772 5 8 5Z" fill="#0000CC"/>
</svg>
