<svg width="24" height="24" viewBox="0 0 24 24" fill="none" xmlns="http://www.w3.org/2000/svg">
<path opacity="0.3" d="M9.75 12C9.21485 12 8.70163 12.2126 8.32322 12.591L8.09099 12.8232C7.33751 13.5767 6.31558 14 5.25 14C4.18442 14 3.16249 13.5767 2.40901 12.8232L1.79289 12.2071C1.40237 11.8166 1.40237 11.1834 1.79289 10.7929C2.18342 10.4024 2.81658 10.4024 3.20711 10.7929L3.82322 11.409C4.20163 11.7874 4.71485 12 5.25 12C5.78514 12 6.29837 11.7874 6.67678 11.409L6.90901 11.1768C7.66249 10.4233 8.68442 10 9.75 10C10.8156 10 11.8375 10.4233 12.591 11.1768L12.8232 11.409C13.2016 11.7874 13.7149 12 14.25 12C14.7851 12 15.2984 11.7874 15.6768 11.409L15.909 11.1768C16.6625 10.4233 17.6844 10 18.75 10C19.8156 10 20.8375 10.4233 21.591 11.1768L22.2071 11.7929C22.5976 12.1834 22.5976 12.8166 22.2071 13.2071C21.8166 13.5976 21.1834 13.5976 20.7929 13.2071L20.1768 12.591C19.7984 12.2126 19.2851 12 18.75 12C18.2149 12 17.7016 12.2126 17.3232 12.591L17.091 12.8232C16.3375 13.5767 15.3156 14 14.25 14C13.1844 14 12.1625 13.5767 11.409 12.8232L11.1768 12.591C10.7984 12.2126 10.2851 12 9.75 12Z" fill="#0000CC"/>
<path fill-rule="evenodd" clip-rule="evenodd" d="M9.75 6C9.21485 6 8.70163 6.21259 8.32322 6.59099L8.09099 6.82322C7.33751 7.5767 6.31558 8 5.25 8C4.18442 8 3.16249 7.5767 2.40901 6.82322L1.79289 6.20711C1.40237 5.81658 1.40237 5.18342 1.79289 4.79289C2.18342 4.40237 2.81658 4.40237 3.20711 4.79289L3.82322 5.40901C4.20163 5.78741 4.71486 6 5.25 6C5.78514 6 6.29837 5.78741 6.67678 5.40901L6.90901 5.17678C7.66249 4.4233 8.68442 4 9.75 4C10.8156 4 11.8375 4.4233 12.591 5.17678L12.8232 5.40901C13.2016 5.78741 13.7149 6 14.25 6C14.7851 6 15.2984 5.78741 15.6768 5.40901L15.909 5.17678C16.6625 4.4233 17.6844 4 18.75 4C19.8156 4 20.8375 4.4233 21.591 5.17678L22.2071 5.79289C22.5976 6.18342 22.5976 6.81658 22.2071 7.20711C21.8166 7.59763 21.1834 7.59763 20.7929 7.20711L20.1768 6.59099C19.7984 6.21259 19.2851 6 18.75 6C18.2149 6 17.7016 6.21259 17.3232 6.59099L17.091 6.82322C16.3375 7.5767 15.3156 8 14.25 8C13.1844 8 12.1625 7.5767 11.409 6.82322L11.1768 6.59099C10.7984 6.21259 10.2851 6 9.75 6ZM9.75 18C9.21485 18 8.70163 18.2126 8.32322 18.591L8.09099 18.8232C7.33751 19.5767 6.31558 20 5.25 20C4.18442 20 3.16249 19.5767 2.40901 18.8232L1.79289 18.2071C1.40237 17.8166 1.40237 17.1834 1.79289 16.7929C2.18342 16.4024 2.81658 16.4024 3.20711 16.7929L3.82322 17.409C4.20163 17.7874 4.71486 18 5.25 18C5.78514 18 6.29837 17.7874 6.67678 17.409L6.90901 17.1768C7.66249 16.4233 8.68442 16 9.75 16C10.8156 16 11.8375 16.4233 12.591 17.1768L12.8232 17.409C13.2016 17.7874 13.7149 18 14.25 18C14.7851 18 15.2984 17.7874 15.6768 17.409L15.909 17.1768C16.6625 16.4233 17.6844 16 18.75 16C19.8156 16 20.8375 16.4233 21.591 17.1768L22.2071 17.7929C22.5976 18.1834 22.5976 18.8166 22.2071 19.2071C21.8166 19.5976 21.1834 19.5976 20.7929 19.2071L20.1768 18.591C19.7984 18.2126 19.2851 18 18.75 18C18.2149 18 17.7016 18.2126 17.3232 18.591L17.091 18.8232C16.3375 19.5767 15.3156 20 14.25 20C13.1844 20 12.1625 19.5767 11.409 18.8232L11.1768 18.591C10.7984 18.2126 10.2851 18 9.75 18Z" fill="#0000CC"/>
</svg>
