<svg width="24" height="24" viewBox="0 0 24 24" fill="none" xmlns="http://www.w3.org/2000/svg">
<path opacity="0.3" d="M12 2C6.47715 2 2 6.47715 2 12C2 17.5228 6.47715 22 12 22C17.5228 22 22 17.5228 22 12C22 6.47715 17.5228 2 12 2Z" fill="#0000CC"/>
<path fill-rule="evenodd" clip-rule="evenodd" d="M12.0004 8C10.6924 8 9.53108 8.62676 8.79962 9.60058C8.46793 10.0422 7.84107 10.1313 7.39948 9.79957C6.95789 9.46788 6.8688 8.84101 7.20049 8.39942C8.29344 6.94434 10.0368 6 12.0004 6C13.9641 6 15.7074 6.94434 16.8004 8.39942C17.132 8.84101 17.043 9.46788 16.6014 9.79957C16.1598 10.1313 15.5329 10.0422 15.2012 9.60058C14.4698 8.62676 13.3084 8 12.0004 8ZM7.85235 14.35C7.85235 13.5215 8.52392 12.85 9.35235 12.85C10.1808 12.85 10.8524 13.5215 10.8524 14.35C10.8524 15.1784 10.1808 15.85 9.35235 15.85C8.52392 15.85 7.85235 15.1784 7.85235 14.35ZM13.2508 14.3C13.2508 13.4992 13.9 12.85 14.7008 12.85C15.5016 12.85 16.1508 13.4992 16.1508 14.3C16.1508 15.1008 15.5016 15.75 14.7008 15.75C13.9 15.75 13.2508 15.1008 13.2508 14.3Z" fill="#0000CC"/>
</svg>
