<svg width="24" height="24" viewBox="0 0 24 24" fill="none" xmlns="http://www.w3.org/2000/svg">
<path opacity="0.3" d="M12 2C6.47715 2 2 6.47715 2 12C2 17.5228 6.47715 22 12 22C17.5228 22 22 17.5228 22 12C22 6.47715 17.5228 2 12 2Z" fill="#0000CC"/>
<path fill-rule="evenodd" clip-rule="evenodd" d="M16.1679 8.55473C15.9433 8.21778 15.4817 8.13872 15.1578 8.38169L14.6 8.80003C14.1582 9.1314 13.5314 9.04186 13.2 8.60003C12.8686 8.1582 12.9582 7.5314 13.4 7.20003L13.9578 6.78169C15.2003 5.84981 16.9705 6.15304 17.8321 7.44533C18.1384 7.90486 18.0142 8.52573 17.5547 8.83208C17.0952 9.13843 16.4743 9.01426 16.1679 8.55473ZM6 8.00003C6 7.44774 6.44772 7.00003 7 7.00003H10C10.5523 7.00003 11 7.44774 11 8.00003C11 8.55231 10.5523 9.00003 10 9.00003H7C6.44772 9.00003 6 8.55231 6 8.00003ZM7.85156 11.35C7.85156 10.5216 8.52313 9.85 9.35156 9.85C10.18 9.85 10.8516 10.5216 10.8516 11.35C10.8516 12.1784 10.18 12.85 9.35156 12.85C8.52313 12.85 7.85156 12.1784 7.85156 11.35ZM13.25 11.3C13.25 10.4992 13.8992 9.85 14.7 9.85C15.5008 9.85 16.15 10.4992 16.15 11.3C16.15 12.1008 15.5008 12.75 14.7 12.75C13.8992 12.75 13.25 12.1008 13.25 11.3ZM8 17C8 16.4477 8.44772 16 9 16H15C15.5523 16 16 16.4477 16 17C16 17.5523 15.5523 18 15 18H9C8.44772 18 8 17.5523 8 17Z" fill="#0000CC"/>
</svg>
