<svg width="24" height="24" viewBox="0 0 24 24" fill="none" xmlns="http://www.w3.org/2000/svg">
<path opacity="0.3" d="M12 2C6.47715 2 2 6.47715 2 12C2 17.5228 6.47715 22 12 22C17.5228 22 22 17.5228 22 12C22 6.47715 17.5228 2 12 2Z" fill="#0000CC"/>
<path fill-rule="evenodd" clip-rule="evenodd" d="M7.85113 9.29998C7.85113 8.49916 8.50031 7.84998 9.30113 7.84998C10.1019 7.84998 10.7511 8.49916 10.7511 9.29998C10.7511 10.1008 10.1019 10.75 9.30113 10.75C8.50031 10.75 7.85113 10.1008 7.85113 9.29998ZM13.2496 9.29998C13.2496 8.49916 13.8988 7.84998 14.6996 7.84998C15.5004 7.84998 16.1496 8.49916 16.1496 9.29998C16.1496 10.1008 15.5004 10.75 14.6996 10.75C13.8987 10.75 13.2496 10.1008 13.2496 9.29998ZM7.10929 16.1608C7.45036 13.7734 9.49506 12 11.9068 12H12.0924C14.5041 12 16.5488 13.7734 16.8898 16.1608C17.0378 17.1963 16.106 18.033 15.1127 17.8315C14.277 17.6621 12.9397 17.4286 11.9996 17.4286C11.0594 17.4286 9.72209 17.6621 8.88647 17.8315C7.89316 18.033 6.96137 17.1963 7.10929 16.1608Z" fill="#0000CC"/>
</svg>
