<svg width="24" height="24" viewBox="0 0 24 24" fill="none" xmlns="http://www.w3.org/2000/svg">
<path opacity="0.3" d="M12 2C6.47715 2 2 6.47715 2 12C2 17.5228 6.47715 22 12 22C17.5228 22 22 17.5228 22 12C22 6.47715 17.5228 2 12 2Z" fill="#0000CC"/>
<path fill-rule="evenodd" clip-rule="evenodd" d="M6.08111 7.60609C6.29867 7.09846 6.88655 6.86331 7.39418 7.08087L10.8942 8.58087C11.4018 8.79842 11.637 9.3863 11.4194 9.89393C11.2018 10.4016 10.614 10.6367 10.1063 10.4192L9.85129 10.3099C9.85164 10.3232 9.85182 10.3366 9.85182 10.35C9.85182 11.1784 9.18025 11.85 8.35182 11.85C7.52339 11.85 6.85182 11.1784 6.85182 10.35C6.85182 9.90818 7.04282 9.51099 7.34676 9.23648L6.60634 8.91916C6.09871 8.7016 5.86356 8.11372 6.08111 7.60609ZM17.9194 7.60609C18.137 8.11372 17.9018 8.7016 17.3942 8.91916L16.6757 9.22709C16.9672 9.49232 17.1503 9.87478 17.1503 10.3C17.1503 11.1008 16.5011 11.75 15.7003 11.75C14.8994 11.75 14.2503 11.1008 14.2503 10.3C14.2503 10.2888 14.2504 10.2776 14.2506 10.2664L13.8942 10.4192C13.3865 10.6367 12.7987 10.4016 12.5811 9.89393C12.3636 9.3863 12.5987 8.79842 13.1063 8.58087L16.6063 7.08087C17.114 6.86331 17.7018 7.09846 17.9194 7.60609ZM8.33642 16.2521C9.2388 15.4512 10.5806 15 12.0003 15C13.42 15 14.7617 15.4512 15.6641 16.2521C16.0771 16.6188 16.1148 17.2508 15.7481 17.6639C15.3815 18.0769 14.7495 18.1145 14.3364 17.7479C13.8706 17.3344 13.0341 17 12.0003 17C10.9664 17 10.1299 17.3344 9.6641 17.7479C9.25106 18.1145 8.61901 18.0769 8.25238 17.6639C7.88575 17.2508 7.92338 16.6188 8.33642 16.2521Z" fill="#0000CC"/>
</svg>
