<svg width="24" height="24" viewBox="0 0 24 24" fill="none" xmlns="http://www.w3.org/2000/svg">
<path opacity="0.3" d="M12 2C6.47715 2 2 6.47715 2 12C2 17.5228 6.47715 22 12 22C17.5228 22 22 17.5228 22 12C22 6.47715 17.5228 2 12 2Z" fill="#0000CC"/>
<path fill-rule="evenodd" clip-rule="evenodd" d="M3.24725 8.84662C3.03671 7.34273 4.20456 6 5.72311 6H9.27385C10.3105 6 11.1826 6.6249 11.5656 7.5H12.4314C12.8144 6.6249 13.6864 6 14.7231 6H18.2739C19.7924 6 20.9603 7.34273 20.7497 8.84662L20.4697 10.8466C20.2968 12.0814 19.2406 13 17.9939 13H15.0031C13.7563 13 12.7001 12.0814 12.5273 10.8466L12.3387 9.5H11.6582L11.4697 10.8466C11.2968 12.0814 10.2406 13 8.99385 13H6.00311C4.75632 13 3.70012 12.0814 3.52725 10.8466L3.24725 8.84662ZM7.3979 14.2004C7.83949 13.8687 8.46636 13.9578 8.79805 14.3994C9.52951 15.3732 10.6908 16 11.9988 16C13.3069 16 14.4682 15.3732 15.1996 14.3994C15.5313 13.9578 16.1582 13.8687 16.5998 14.2004C17.0414 14.5321 17.1305 15.159 16.7988 15.6006C15.7058 17.0557 13.9625 18 11.9988 18C10.0352 18 8.29187 17.0557 7.19891 15.6006C6.86722 15.159 6.95631 14.5321 7.3979 14.2004Z" fill="#0000CC"/>
</svg>
