<svg width="24" height="24" viewBox="0 0 24 24" fill="none" xmlns="http://www.w3.org/2000/svg">
<path opacity="0.3" d="M12 2C6.47715 2 2 6.47715 2 12C2 17.5228 6.47715 22 12 22C17.5228 22 22 17.5228 22 12C22 6.47715 17.5228 2 12 2Z" fill="#0000CC"/>
<path fill-rule="evenodd" clip-rule="evenodd" d="M5 10C5 9.44772 5.44772 9 6 9H9.5C10.3284 9 11 9.67157 11 10.5C11 11.3284 10.3284 12 9.5 12C8.84689 12 8.29127 11.5826 8.08535 11H6C5.44772 11 5 10.5523 5 10ZM13 10C13 9.44772 13.4477 9 14 9H17.5C18.3284 9 19 9.67157 19 10.5C19 11.3284 18.3284 12 17.5 12C16.8469 12 16.2913 11.5826 16.0854 11H14C13.4477 11 13 10.5523 13 10ZM16.4472 14.1056C16.9412 14.3526 17.1414 14.9532 16.8944 15.4472L16.4472 16.3416C15.939 17.358 14.9002 18 13.7639 18H8C7.44772 18 7 17.5523 7 17C7 16.4477 7.44772 16 8 16H13.7639C14.1427 16 14.489 15.786 14.6584 15.4472L15.1056 14.5528C15.3526 14.0588 15.9532 13.8586 16.4472 14.1056Z" fill="#0000CC"/>
</svg>
