<svg width="24" height="24" viewBox="0 0 24 24" fill="none" xmlns="http://www.w3.org/2000/svg">
<path opacity="0.3" d="M12 2C6.47715 2 2 6.47715 2 12C2 17.5228 6.47715 22 12 22C17.5228 22 22 17.5228 22 12C22 6.47715 17.5228 2 12 2Z" fill="#0000CC"/>
<path fill-rule="evenodd" clip-rule="evenodd" d="M8.50007 10C8.18341 10 7.87263 10.1038 7.58473 10.3113C7.13667 10.6342 6.51169 10.5327 6.18879 10.0847C5.8659 9.6366 5.96736 9.01162 6.41542 8.68872C7.01004 8.2602 7.72388 8 8.50007 8C9.27627 8 9.99011 8.2602 10.5847 8.68872C11.0328 9.01162 11.1343 9.6366 10.8114 10.0847C10.4885 10.5327 9.86347 10.6342 9.41542 10.3113C9.12752 10.1038 8.81674 10 8.50007 10ZM15.5001 10C15.1834 10 14.8726 10.1038 14.5847 10.3113C14.1367 10.6342 13.5117 10.5327 13.1888 10.0847C12.8659 9.6366 12.9674 9.01162 13.4154 8.68872C14.01 8.2602 14.7239 8 15.5001 8C16.2763 8 16.9901 8.2602 17.5847 8.68872C18.0328 9.01162 18.1343 9.6366 17.8114 10.0847C17.4885 10.5327 16.8635 10.6342 16.4154 10.3113C16.1275 10.1038 15.8167 10 15.5001 10ZM7.3995 14.2004C7.84108 13.8687 8.46795 13.9578 8.79964 14.3994C9.5311 15.3732 10.6924 16 12.0004 16C13.3084 16 14.4698 15.3732 15.2012 14.3994C15.5329 13.9578 16.1598 13.8687 16.6014 14.2004C17.043 14.5321 17.1321 15.159 16.8004 15.6006C15.7074 17.0557 13.9641 18 12.0004 18C10.0368 18 8.29346 17.0557 7.20051 15.6006C6.86882 15.159 6.95791 14.5321 7.3995 14.2004Z" fill="#0000CC"/>
</svg>
