<svg width="24" height="24" viewBox="0 0 24 24" fill="none" xmlns="http://www.w3.org/2000/svg">
<path opacity="0.3" d="M12 2C6.47715 2 2 6.47715 2 12C2 17.5228 6.47715 22 12 22C17.5228 22 22 17.5228 22 12C22 6.47715 17.5228 2 12 2Z" fill="#0000CC"/>
<path fill-rule="evenodd" clip-rule="evenodd" d="M7.8518 9.3501C7.8518 8.52167 8.52337 7.8501 9.3518 7.8501C10.1802 7.8501 10.8518 8.52167 10.8518 9.3501C10.8518 10.1785 10.1802 10.8501 9.3518 10.8501C8.52337 10.8501 7.8518 10.1785 7.8518 9.3501ZM13.2502 9.3001C13.2502 8.49928 13.8994 7.8501 14.7002 7.8501C15.501 7.8501 16.1502 8.49928 16.1502 9.3001C16.1502 10.1009 15.5011 10.7501 14.7002 10.7501C13.8994 10.7501 13.2502 10.1009 13.2502 9.3001ZM16.9704 13.7576C17.1043 14.2934 16.7786 14.8363 16.2428 14.9703L8.24277 16.9703C7.70698 17.1042 7.16404 16.7785 7.03009 16.2427C6.89615 15.7069 7.22191 15.1639 7.7577 15.03L15.7577 13.03C16.2935 12.896 16.8364 13.2218 16.9704 13.7576Z" fill="#0000CC"/>
</svg>
