<svg width="24" height="24" viewBox="0 0 24 24" fill="none" xmlns="http://www.w3.org/2000/svg">
<path opacity="0.3" d="M12 2C6.47715 2 2 6.47715 2 12C2 17.5228 6.47715 22 12 22C17.5228 22 22 17.5228 22 12C22 6.47715 17.5228 2 12 2Z" fill="#0000CC"/>
<path fill-rule="evenodd" clip-rule="evenodd" d="M10.6184 10.3297C10.9581 10.7651 10.8806 11.3935 10.4452 11.7333C9.20836 12.6983 7.66532 13.2335 6.0688 13.2186C5.51654 13.2135 5.07302 12.7616 5.07817 12.2094C5.08332 11.6571 5.53519 11.2136 6.08745 11.2187C7.2253 11.2293 8.32942 10.8473 9.21484 10.1565C9.65027 9.81672 10.2787 9.89429 10.6184 10.3297ZM13.3797 10.3297C13.7194 9.89429 14.3478 9.81672 14.7832 10.1565C15.6686 10.8473 16.7728 11.2293 17.9106 11.2187C18.4629 11.2136 18.9147 11.6571 18.9199 12.2094C18.925 12.7616 18.4815 13.2135 17.9293 13.2186C16.3327 13.2335 14.7897 12.6983 13.5529 11.7333C13.1175 11.3935 13.0399 10.7651 13.3797 10.3297ZM8.33519 16.2523C9.23758 15.4514 10.5793 15.0002 11.999 15.0002C13.4187 15.0002 14.7605 15.4514 15.6629 16.2523C16.0759 16.619 16.1135 17.251 15.7469 17.6641C15.3803 18.0771 14.7482 18.1147 14.3352 17.7481C13.8694 17.3346 13.0328 17.0002 11.999 17.0002C10.9652 17.0002 10.1287 17.3346 9.66287 17.7481C9.24983 18.1147 8.61778 18.0771 8.25116 17.6641C7.88453 17.251 7.92215 16.619 8.33519 16.2523Z" fill="#0000CC"/>
</svg>
