<svg width="24" height="24" viewBox="0 0 24 24" fill="none" xmlns="http://www.w3.org/2000/svg">
<path opacity="0.3" d="M12 2C6.47715 2 2 6.47715 2 12C2 17.5228 6.47715 22 12 22C17.5228 22 22 17.5228 22 12C22 6.47715 17.5228 2 12 2Z" fill="#0000CC"/>
<path fill-rule="evenodd" clip-rule="evenodd" d="M10.9431 6.00815C11.1271 6.52887 10.8542 7.10019 10.3335 7.28424C9.26061 7.66344 8.35374 8.40004 7.758 9.35206C7.46503 9.82024 6.848 9.96227 6.37982 9.6693C5.91165 9.37634 5.76962 8.75931 6.06258 8.29113C6.89473 6.96132 8.16166 5.93061 9.66698 5.39856C10.1877 5.21451 10.759 5.48744 10.9431 6.00815ZM13.0572 6.00815C13.2412 5.48744 13.8126 5.21451 14.3333 5.39856C15.8386 5.93061 17.1055 6.96132 17.9377 8.29113C18.2307 8.75931 18.0886 9.37634 17.6204 9.6693C17.1523 9.96227 16.5352 9.82024 16.2423 9.35206C15.6465 8.40004 14.7397 7.66344 13.6668 7.28424C13.1461 7.10019 12.8732 6.52887 13.0572 6.00815ZM6.18885 11.4153C6.51175 10.9673 7.13673 10.8658 7.58479 11.1887C7.87269 11.3962 8.18347 11.5 8.50013 11.5C8.8168 11.5 9.12758 11.3962 9.41548 11.1887C9.86353 10.8658 10.4885 10.9673 10.8114 11.4153C11.1343 11.8634 11.0328 12.4884 10.5848 12.8113C9.99017 13.2398 9.27633 13.5 8.50013 13.5C7.72393 13.5 7.0101 13.2398 6.41548 12.8113C5.96742 12.4884 5.86596 11.8634 6.18885 11.4153ZM13.1889 11.4153C13.5118 10.9673 14.1367 10.8658 14.5848 11.1887C14.8727 11.3962 15.1835 11.5 15.5001 11.5C15.8168 11.5 16.1276 11.3962 16.4155 11.1887C16.8635 10.8658 17.4885 10.9673 17.8114 11.4153C18.1343 11.8634 18.0328 12.4884 17.5848 12.8113C16.9902 13.2398 16.2763 13.5 15.5001 13.5C14.7239 13.5 14.0101 13.2398 13.4155 12.8113C12.9674 12.4884 12.866 11.8634 13.1889 11.4153ZM8.25226 16.3362C8.61889 15.9231 9.25093 15.8855 9.66397 16.2521C10.1298 16.6656 10.9663 17 12.0001 17C13.0339 17 13.8705 16.6656 14.3363 16.2521C14.7493 15.8855 15.3814 15.9231 15.748 16.3362C16.1146 16.7492 16.077 17.3812 15.664 17.7479C14.7616 18.5489 13.4198 19 12.0001 19C10.5804 19 9.23868 18.5489 8.33629 17.7479C7.92325 17.3812 7.88563 16.7492 8.25226 16.3362Z" fill="#0000CC"/>
</svg>
