<svg width="24" height="24" viewBox="0 0 24 24" fill="none" xmlns="http://www.w3.org/2000/svg">
<path opacity="0.3" d="M12 2C6.47715 2 2 6.47715 2 12C2 17.5228 6.47715 22 12 22C17.5228 22 22 17.5228 22 12C22 6.47715 17.5228 2 12 2Z" fill="#0000CC"/>
<path fill-rule="evenodd" clip-rule="evenodd" d="M9.80288 8C9.01096 8 8.27144 8.39578 7.83216 9.0547C7.5258 9.51423 6.90494 9.63841 6.44541 9.33205C5.98588 9.0257 5.8617 8.40483 6.16806 7.9453C6.97827 6.72999 8.34225 6 9.80288 6H10.0001C10.5524 6 11.0001 6.44772 11.0001 7C11.0001 7.55228 10.5524 8 10.0001 8H9.80288ZM13.0001 7C13.0001 6.44772 13.4478 6 14.0001 6H14.1973C15.658 6 17.0219 6.72999 17.8322 7.9453C18.1385 8.40483 18.0143 9.0257 17.5548 9.33205C17.0953 9.63841 16.4744 9.51423 16.1681 9.0547C15.7288 8.39578 14.9893 8 14.1973 8H14.0001C13.4478 8 13.0001 7.55228 13.0001 7ZM7.85167 11.35C7.85167 10.5215 8.52324 9.84998 9.35167 9.84998C10.1801 9.84998 10.8517 10.5215 10.8517 11.35C10.8517 12.1784 10.1801 12.85 9.35167 12.85C8.52324 12.85 7.85167 12.1784 7.85167 11.35ZM13.2501 11.3C13.2501 10.4992 13.8993 9.84998 14.7001 9.84998C15.5009 9.84998 16.1501 10.4992 16.1501 11.3C16.1501 12.1008 15.5009 12.75 14.7001 12.75C13.8993 12.75 13.2501 12.1008 13.2501 11.3ZM8.12356 16.4308C8.3634 14.4721 10.0267 13 12.0001 13C13.9735 13 15.6368 14.4721 15.8767 16.4308L15.9181 16.769C16.0407 17.7708 15.1187 18.5441 14.1786 18.3256C13.5449 18.1783 12.63 18 12.0001 18C11.3702 18 10.4553 18.1783 9.82163 18.3256C8.88153 18.5441 7.95948 17.7708 8.08215 16.769L8.12356 16.4308Z" fill="#0000CC"/>
</svg>
