<svg width="24" height="24" viewBox="0 0 24 24" fill="none" xmlns="http://www.w3.org/2000/svg">
<path opacity="0.3" d="M12 2C6.47715 2 2 6.47715 2 12C2 17.5228 6.47715 22 12 22C17.5228 22 22 17.5228 22 12C22 6.47715 17.5228 2 12 2Z" fill="#0000CC"/>
<path fill-rule="evenodd" clip-rule="evenodd" d="M6.10584 8.05276C6.35283 7.55878 6.95351 7.35856 7.44748 7.60555L10.4475 9.10555C10.8092 9.28643 11.0264 9.66742 10.9978 10.0709C10.9691 10.4743 10.7002 10.8208 10.3165 10.9487L7.3165 11.9487C6.79256 12.1233 6.22624 11.8401 6.05159 11.3162C5.87694 10.7923 6.1601 10.2259 6.68404 10.0513L7.39372 9.81473L6.55306 9.3944C6.05908 9.14741 5.85885 8.54674 6.10584 8.05276ZM17.8947 8.05276C18.1417 8.54674 17.9415 9.14741 17.4475 9.3944L16.6068 9.81473L17.3165 10.0513C17.8404 10.2259 18.1236 10.7923 17.949 11.3162C17.7743 11.8401 17.208 12.1233 16.684 11.9487L13.684 10.9487C13.3003 10.8208 13.0315 10.4743 13.0028 10.0709C12.9741 9.66742 13.1913 9.28643 13.5531 9.10555L16.5531 7.60555C17.047 7.35856 17.6477 7.55878 17.8947 8.05276ZM7.33235 13.0567L7.33697 13.0583L7.35744 13.0654C7.37622 13.0719 7.40512 13.0817 7.44327 13.0944C7.5196 13.1199 7.63281 13.157 7.77608 13.2017C8.06309 13.2914 8.46826 13.4113 8.93762 13.531C9.8941 13.775 11.0473 14 12.0003 14C12.9532 14 14.1064 13.775 15.0629 13.531C15.5323 13.4113 15.9375 13.2914 16.2245 13.2017C16.3677 13.157 16.4809 13.1199 16.5573 13.0944C16.5954 13.0817 16.6243 13.0719 16.6431 13.0654L16.6636 13.0583L16.6679 13.0568C16.9738 12.9492 17.3135 12.9964 17.5782 13.1839C17.8429 13.3713 18.0003 13.6756 18.0003 14C18.0003 15.5666 16.9576 16.8285 15.8401 17.6382C14.7082 18.4584 13.2574 19 12.0003 19C10.7432 19 9.29232 18.4584 8.1604 17.6382C7.04295 16.8285 6.00027 15.5666 6.00027 14C6.00027 13.6756 6.15763 13.3713 6.42238 13.1839C6.68703 12.9965 7.02644 12.9491 7.33235 13.0567Z" fill="#0000CC"/>
</svg>
