<svg width="24" height="24" viewBox="0 0 24 24" fill="none" xmlns="http://www.w3.org/2000/svg">
<path opacity="0.3" d="M12 2C6.47715 2 2 6.47715 2 12C2 17.5228 6.47715 22 12 22C17.5228 22 22 17.5228 22 12C22 6.47715 17.5228 2 12 2Z" fill="#0000CC"/>
<path fill-rule="evenodd" clip-rule="evenodd" d="M5 10C5 9.44772 5.44772 9 6 9H9.5C10.3284 9 11 9.67157 11 10.5C11 11.3284 10.3284 12 9.5 12C8.84689 12 8.29127 11.5826 8.08535 11H6C5.44772 11 5 10.5523 5 10ZM13 10C13 9.44772 13.4477 9 14 9H17.5C18.3284 9 19 9.67157 19 10.5C19 11.3284 18.3284 12 17.5 12C16.8469 12 16.2913 11.5826 16.0854 11H14C13.4477 11 13 10.5523 13 10ZM12 16C10.9255 16 9.94365 16.4495 9.21708 17.197C8.83214 17.593 8.19904 17.602 7.80301 17.2171C7.40698 16.8321 7.39798 16.199 7.78292 15.803C8.8601 14.6948 10.3491 14 12 14C13.6509 14 15.1399 14.6948 16.2171 15.803C16.602 16.199 16.593 16.8321 16.197 17.2171C15.801 17.602 15.1679 17.593 14.7829 17.197C14.0563 16.4495 13.0745 16 12 16Z" fill="#0000CC"/>
</svg>
