<svg width="24" height="24" viewBox="0 0 24 24" fill="none" xmlns="http://www.w3.org/2000/svg">
<path opacity="0.3" d="M12 2C6.47715 2 2 6.47715 2 12C2 17.5228 6.47715 22 12 22C17.5228 22 22 17.5228 22 12C22 6.47715 17.5228 2 12 2Z" fill="#0000CC"/>
<path fill-rule="evenodd" clip-rule="evenodd" d="M7.33207 13.0568L7.3367 13.0584L7.35717 13.0655C7.37595 13.0719 7.40485 13.0817 7.443 13.0945C7.51933 13.12 7.63254 13.157 7.77581 13.2018C8.06282 13.2915 8.46799 13.4113 8.93735 13.5311C9.89383 13.775 11.0471 14 12 14C12.9529 14 14.1062 13.775 15.0626 13.5311C15.532 13.4113 15.9372 13.2915 16.2242 13.2018C16.3675 13.157 16.4807 13.12 16.557 13.0945C16.5952 13.0817 16.624 13.0719 16.6428 13.0655L16.6633 13.0584L16.6676 13.0569C16.9736 12.9492 17.3132 12.9965 17.5779 13.1839C17.8426 13.3714 18 13.6756 18 14C18 15.4854 17.0659 16.6971 16 17.5182V18C16 20.2092 14.2091 22 12 22C9.79086 22 8 20.2092 8 18V17.5182C6.93412 16.6971 6 15.4854 6 14C6 13.6756 6.15736 13.3714 6.4221 13.1839C6.68676 12.9965 7.02617 12.9492 7.33207 13.0568Z" fill="#0000CC"/>
<path fill-rule="evenodd" clip-rule="evenodd" d="M6.64251 6.98553C6.92666 6.51195 7.54092 6.35839 8.0145 6.64254L10.5145 8.14254C10.8157 8.32326 11 8.64877 11 9.00003C11 9.35129 10.8157 9.6768 10.5145 9.85752L8.0145 11.3575C7.54092 11.6417 6.92666 11.4881 6.64251 11.0145C6.35836 10.5409 6.51192 9.92668 6.9855 9.64254L8.05635 9.00003L6.9855 8.35752C6.51192 8.07337 6.35836 7.45911 6.64251 6.98553ZM17.3575 6.98553C17.6416 7.45911 17.4881 8.07337 17.0145 8.35752L15.9437 9.00003L17.0145 9.64254C17.4881 9.92668 17.6416 10.5409 17.3575 11.0145C17.0733 11.4881 16.4591 11.6417 15.9855 11.3575L13.4855 9.85752C13.1843 9.6768 13 9.35129 13 9.00003C13 8.64877 13.1843 8.32326 13.4855 8.14254L15.9855 6.64254C16.4591 6.35839 17.0733 6.51195 17.3575 6.98553Z" fill="#0000CC"/>
</svg>
