<svg width="24" height="24" viewBox="0 0 24 24" fill="none" xmlns="http://www.w3.org/2000/svg">
<path opacity="0.3" d="M12 2C6.47715 2 2 6.47715 2 12C2 17.5228 6.47715 22 12 22C17.5228 22 22 17.5228 22 12C22 6.47715 17.5228 2 12 2Z" fill="#0000CC"/>
<path fill-rule="evenodd" clip-rule="evenodd" d="M7.85162 9.34998C7.85162 8.52155 8.52319 7.84998 9.35162 7.84998C10.18 7.84998 10.8516 8.52155 10.8516 9.34998C10.8516 10.1784 10.18 10.85 9.35162 10.85C8.52319 10.85 7.85162 10.1784 7.85162 9.34998ZM13.2501 9.29998C13.2501 8.49916 13.8992 7.84998 14.7001 7.84998C15.5009 7.84998 16.1501 8.49916 16.1501 9.29998C16.1501 10.1008 15.5009 10.75 14.7001 10.75C13.8992 10.75 13.2501 10.1008 13.2501 9.29998ZM7.20049 15.3994C8.29345 13.9443 10.0368 13 12.0004 13C13.9641 13 15.7074 13.9443 16.8004 15.3994C17.132 15.841 17.043 16.4679 16.6014 16.7996C16.1598 17.1313 15.5329 17.0422 15.2012 16.6006C14.4698 15.6268 13.3084 15 12.0004 15C10.6924 15 9.53108 15.6268 8.79962 16.6006C8.46793 17.0422 7.84107 17.1313 7.39948 16.7996C6.95789 16.4679 6.8688 15.841 7.20049 15.3994Z" fill="#0000CC"/>
</svg>
