<svg width="24" height="24" viewBox="0 0 24 24" fill="none" xmlns="http://www.w3.org/2000/svg">
<path opacity="0.3" d="M12 2C6.47715 2 2 6.47715 2 12C2 17.5228 6.47715 22 12 22C17.5228 22 22 17.5228 22 12C22 6.47715 17.5228 2 12 2Z" fill="#0000CC"/>
<path fill-rule="evenodd" clip-rule="evenodd" d="M2 7C2 6.44772 2.44772 6 3 6H9C9.81791 6 10.5441 6.39278 11.0002 7H12.9998C13.4559 6.39278 14.1821 6 15 6H21C21.5523 6 22 6.44772 22 7C22 7.55228 21.5523 8 21 8H19.95C19.9828 8.16155 20 8.32877 20 8.5V10.5C20 11.8807 18.8807 13 17.5 13H15C13.6193 13 12.5 11.8807 12.5 10.5V9H11.5V10.5C11.5 11.8807 10.3807 13 9 13H6.5C5.11929 13 4 11.8807 4 10.5V8.5C4 8.32877 4.01722 8.16155 4.05001 8H3C2.44772 8 2 7.55228 2 7ZM6.5 8C6.22386 8 6 8.22386 6 8.5V10.5C6 10.7761 6.22386 11 6.5 11H9C9.27614 11 9.5 10.7761 9.5 10.5V8.5C9.5 8.22386 9.27614 8 9 8H6.5ZM17.5 8H15C14.7239 8 14.5 8.22386 14.5 8.5V10.5C14.5 10.7761 14.7239 11 15 11H17.5C17.7761 11 18 10.7761 18 10.5V8.5C18 8.22386 17.7761 8 17.5 8ZM6.5 9.5C6.5 8.94772 6.94772 8.5 7.5 8.5H7.509C8.06129 8.5 8.509 8.94772 8.509 9.5C8.509 10.0523 8.06129 10.5 7.509 10.5H7.5C6.94772 10.5 6.5 10.0523 6.5 9.5ZM15.5 9.5C15.5 8.94772 15.9477 8.5 16.5 8.5H16.509C17.0613 8.5 17.509 8.94772 17.509 9.5C17.509 10.0523 17.0613 10.5 16.509 10.5H16.5C15.9477 10.5 15.5 10.0523 15.5 9.5ZM7.39942 14.2004C7.84101 13.8687 8.46788 13.9578 8.79957 14.3994C9.53103 15.3732 10.6924 16 12.0004 16C13.3084 16 14.4697 15.3732 15.2012 14.3994C15.5329 13.9578 16.1597 13.8687 16.6013 14.2004C17.0429 14.5321 17.132 15.159 16.8003 15.6006C15.7073 17.0557 13.964 18 12.0004 18C10.0367 18 8.29339 17.0557 7.20043 15.6006C6.86874 15.159 6.95783 14.5321 7.39942 14.2004Z" fill="#0000CC"/>
</svg>
