<svg width="24" height="24" viewBox="0 0 24 24" fill="none" xmlns="http://www.w3.org/2000/svg">
<path opacity="0.3" d="M12 2C6.47715 2 2 6.47715 2 12C2 17.5228 6.47715 22 12 22C17.5228 22 22 17.5228 22 12C22 6.47715 17.5228 2 12 2Z" fill="#0000CC"/>
<path fill-rule="evenodd" clip-rule="evenodd" d="M15.6064 5.91614C16.4413 6.1308 17.319 6.62442 17.8478 7.46952C18.1408 7.9377 17.9988 8.55472 17.5306 8.84769C17.0624 9.14066 16.4454 8.99863 16.1524 8.53045C15.9673 8.23464 15.595 7.97826 15.1084 7.85315C14.6121 7.72554 14.1756 7.78028 13.9473 7.89442C13.4534 8.1414 12.8527 7.94117 12.6057 7.44719C12.3587 6.95321 12.5589 6.35254 13.0529 6.10555C13.8247 5.7197 14.7812 5.70399 15.6064 5.91614ZM8.89186 7.85316C8.40524 7.97827 8.03295 8.23464 7.84784 8.53045C7.55487 8.99863 6.93784 9.14066 6.46967 8.84769C6.00149 8.55472 5.85946 7.9377 6.15243 7.46952C6.68126 6.62442 7.55897 6.1308 8.39386 5.91615C9.21904 5.704 10.1756 5.71972 10.9473 6.10557C11.4413 6.35255 11.6415 6.95322 11.3946 7.4472C11.1476 7.94119 10.5469 8.14142 10.0529 7.89443C9.82465 7.7803 9.38821 7.72555 8.89186 7.85316ZM7.8517 11.35C7.8517 10.5215 8.52327 9.84998 9.3517 9.84998C10.1801 9.84998 10.8517 10.5215 10.8517 11.35C10.8517 12.1784 10.1801 12.85 9.3517 12.85C8.52327 12.85 7.8517 12.1784 7.8517 11.35ZM13.2501 11.3C13.2501 10.4992 13.8993 9.84998 14.7001 9.84998C15.5009 9.84998 16.1501 10.4992 16.1501 11.3C16.1501 12.1008 15.5009 12.75 14.7001 12.75C13.8993 12.75 13.2501 12.1008 13.2501 11.3ZM10.0001 17C10.0001 15.8954 10.8956 15 12.0001 15C13.1047 15 14.0001 15.8954 14.0001 17C14.0001 18.1046 13.1047 19 12.0001 19C10.8956 19 10.0001 18.1046 10.0001 17Z" fill="#0000CC"/>
</svg>
