<svg width="24" height="24" viewBox="0 0 24 24" fill="none" xmlns="http://www.w3.org/2000/svg">
<path opacity="0.3" d="M12 2C6.47715 2 2 6.47715 2 12C2 17.5228 6.47715 22 12 22C17.5228 22 22 17.5228 22 12C22 6.47715 17.5228 2 12 2Z" fill="#0000CC"/>
<path fill-rule="evenodd" clip-rule="evenodd" d="M6.29289 7.29289C6.68342 6.90237 7.31658 6.90237 7.70711 7.29289L8.5 8.08579L9.29289 7.29289C9.68342 6.90237 10.3166 6.90237 10.7071 7.29289C11.0976 7.68342 11.0976 8.31658 10.7071 8.70711L9.91421 9.5L10.7071 10.2929C11.0976 10.6834 11.0976 11.3166 10.7071 11.7071C10.3166 12.0976 9.68342 12.0976 9.29289 11.7071L8.5 10.9142L7.70711 11.7071C7.31658 12.0976 6.68342 12.0976 6.29289 11.7071C5.90237 11.3166 5.90237 10.6834 6.29289 10.2929L7.08579 9.5L6.29289 8.70711C5.90237 8.31658 5.90237 7.68342 6.29289 7.29289ZM13.2929 7.29289C13.6834 6.90237 14.3166 6.90237 14.7071 7.29289L15.5 8.08579L16.2929 7.29289C16.6834 6.90237 17.3166 6.90237 17.7071 7.29289C18.0976 7.68342 18.0976 8.31658 17.7071 8.70711L16.9142 9.5L17.7071 10.2929C18.0976 10.6834 18.0976 11.3166 17.7071 11.7071C17.3166 12.0976 16.6834 12.0976 16.2929 11.7071L15.5 10.9142L14.7071 11.7071C14.3166 12.0976 13.6834 12.0976 13.2929 11.7071C12.9024 11.3166 12.9024 10.6834 13.2929 10.2929L14.0858 9.5L13.2929 8.70711C12.9024 8.31658 12.9024 7.68342 13.2929 7.29289ZM8 17C8 14.7909 9.79086 13 12 13C14.2091 13 16 14.7909 16 17V18C16 18.5523 15.5523 19 15 19H9C8.44772 19 8 18.5523 8 18V17Z" fill="#0000CC"/>
</svg>
