<svg width="24" height="24" viewBox="0 0 24 24" fill="none" xmlns="http://www.w3.org/2000/svg">
<path opacity="0.3" d="M12 2C6.47715 2 2 6.47715 2 12C2 17.5228 6.47715 22 12 22C17.5228 22 22 17.5228 22 12C22 6.47715 17.5228 2 12 2Z" fill="#0000CC"/>
<path fill-rule="evenodd" clip-rule="evenodd" d="M10.5549 5.66793C11.0144 5.97429 11.1386 6.59515 10.8323 7.05468C10.0221 8.27 8.65807 8.99999 7.19744 8.99999H7.00022C6.44793 8.99999 6.00022 8.55227 6.00022 7.99999C6.00022 7.4477 6.44793 6.99999 7.00022 6.99999H7.19744C7.98936 6.99999 8.72889 6.6042 9.16817 5.94528C9.47452 5.48576 10.0954 5.36158 10.5549 5.66793ZM13.6396 7.48577C14.0531 6.93442 14.7007 6.49999 15.5002 6.49999C16.2998 6.49999 16.9474 6.93442 17.3609 7.48577C17.7742 8.03682 18.0002 8.75225 18.0002 9.49999C18.0002 10.2477 17.7742 10.9632 17.3609 11.5142C16.9474 12.0656 16.2998 12.5 15.5002 12.5C14.7007 12.5 14.0531 12.0656 13.6396 11.5142C13.2263 10.9632 13.0002 10.2477 13.0002 9.49999C13.0002 8.75225 13.2263 8.03682 13.6396 7.48577ZM11.4287 9.6286C11.6338 10.1414 11.3844 10.7234 10.8716 10.9285L8.37161 11.9285C7.85883 12.1336 7.27686 11.8842 7.07174 11.3714C6.86663 10.8586 7.11604 10.2766 7.62883 10.0715L10.1288 9.07151C10.6416 8.8664 11.2236 9.11581 11.4287 9.6286ZM17.7684 13.8598C18.122 14.2841 18.0647 14.9146 17.6404 15.2682L15.7317 16.8588C14.7514 17.6757 13.3618 17.7831 12.2676 17.1266L11.8364 16.8679C11.5684 16.7071 11.2407 16.6808 10.9505 16.7969L10.2055 17.0949C9.40988 17.4132 8.51614 17.376 7.74969 16.9928L6.55301 16.3944C6.05903 16.1474 5.8588 15.5468 6.10579 15.0528C6.35278 14.5588 6.95345 14.3586 7.44743 14.6056L8.64412 15.2039C8.8996 15.3316 9.19752 15.344 9.46272 15.238L10.2077 14.9399C11.0782 14.5918 12.0614 14.6705 12.8654 15.1529L13.2966 15.4116C13.6613 15.6305 14.1246 15.5947 14.4513 15.3224L16.36 13.7318C16.7843 13.3782 17.4149 13.4355 17.7684 13.8598Z" fill="#0000CC"/>
</svg>
