<svg width="24" height="24" viewBox="0 0 24 24" fill="none" xmlns="http://www.w3.org/2000/svg">
<path opacity="0.3" d="M12 2C6.47715 2 2 6.47715 2 12C2 17.5228 6.47715 22 12 22C17.5228 22 22 17.5228 22 12C22 6.47715 17.5228 2 12 2Z" fill="#0000CC"/>
<path fill-rule="evenodd" clip-rule="evenodd" d="M6.64991 7.84514C7.11947 7.36535 7.748 7 8.50027 7C9.25254 7 9.88107 7.36535 10.3506 7.84514C10.8164 8.32107 11.1758 8.95438 11.4364 9.64844C11.6306 10.1655 11.3689 10.742 10.8518 10.9362C10.3348 11.1303 9.75827 10.8686 9.56411 10.3516C9.36868 9.83117 9.137 9.46448 8.92124 9.24402C8.70927 9.02743 8.56584 9 8.50027 9C8.4347 9 8.29127 9.02743 8.0793 9.24402C7.86354 9.46448 7.63186 9.83117 7.43644 10.3516C7.24228 10.8686 6.66574 11.1303 6.14871 10.9362C5.63168 10.742 5.36994 10.1655 5.56411 9.64844C5.82475 8.95438 6.18415 8.32107 6.64991 7.84514ZM13.6499 7.84514C14.1195 7.36535 14.748 7 15.5003 7C16.2525 7 16.8811 7.36535 17.3506 7.84514C17.8164 8.32107 18.1758 8.95438 18.4364 9.64844C18.6306 10.1655 18.3689 10.742 17.8518 10.9362C17.3348 11.1303 16.7583 10.8686 16.5641 10.3516C16.3687 9.83117 16.137 9.46448 15.9212 9.24402C15.7093 9.02743 15.5658 9 15.5003 9C15.4347 9 15.2913 9.02743 15.0793 9.24402C14.8635 9.46448 14.6319 9.83117 14.4364 10.3516C14.2423 10.8686 13.6657 11.1303 13.1487 10.9362C12.6317 10.742 12.3699 10.1655 12.5641 9.64844C12.8247 8.95438 13.1841 8.32107 13.6499 7.84514ZM7.00027 14C7.00027 13.4477 7.44799 13 8.00027 13H16.0003C16.5526 13 17.0003 13.4477 17.0003 14C17.0003 16.7614 14.7617 19 12.0003 19C9.23885 19 7.00027 16.7614 7.00027 14Z" fill="#0000CC"/>
</svg>
