<svg width="24" height="24" viewBox="0 0 24 24" fill="none" xmlns="http://www.w3.org/2000/svg">
<path opacity="0.3" d="M12 2C6.47715 2 2 6.47715 2 12C2 17.5228 6.47715 22 12 22C17.5228 22 22 17.5228 22 12C22 6.47715 17.5228 2 12 2Z" fill="#0000CC"/>
<path fill-rule="evenodd" clip-rule="evenodd" d="M6.08111 7.60609C6.29867 7.09846 6.88655 6.86331 7.39418 7.08087L10.8942 8.58087C11.4018 8.79842 11.637 9.3863 11.4194 9.89393C11.3072 10.1557 11.0966 10.3449 10.8493 10.4371C10.8042 11.225 10.151 11.85 9.35182 11.85C8.52339 11.85 7.85182 11.1784 7.85182 10.35C7.85182 10.0565 7.9361 9.78271 8.08178 9.55149L6.60634 8.91916C6.09871 8.7016 5.86356 8.11372 6.08111 7.60609ZM17.9194 7.60609C18.137 8.11372 17.9018 8.7016 17.3942 8.91916L15.9375 9.54345C16.0725 9.7637 16.1503 10.0228 16.1503 10.3C16.1503 11.1008 15.5011 11.75 14.7003 11.75C13.9572 11.75 13.3448 11.1911 13.2602 10.4708C12.9666 10.398 12.7094 10.1934 12.5811 9.89393C12.3636 9.3863 12.5987 8.79842 13.1063 8.58087L16.6063 7.08087C17.114 6.86331 17.7018 7.09846 17.9194 7.60609ZM7.10999 16.1608C7.45105 13.7734 9.49575 12 11.9074 12H12.0931C14.5048 12 16.5495 13.7734 16.8905 16.1608C17.0385 17.1963 16.1067 18.033 15.1134 17.8316C14.2777 17.6621 12.9404 17.4286 12.0003 17.4286C11.0601 17.4286 9.72278 17.6621 8.88716 17.8316C7.89386 18.033 6.96206 17.1963 7.10999 16.1608Z" fill="#0000CC"/>
</svg>
