<svg width="24" height="24" viewBox="0 0 24 24" fill="none" xmlns="http://www.w3.org/2000/svg">
<path opacity="0.3" d="M12 2C6.47715 2 2 6.47715 2 12C2 17.5228 6.47715 22 12 22C17.5228 22 22 17.5228 22 12C22 6.47715 17.5228 2 12 2Z" fill="#0000CC"/>
<path fill-rule="evenodd" clip-rule="evenodd" d="M7.85156 9.29998C7.85156 8.49916 8.50075 7.84998 9.30156 7.84998C10.1024 7.84998 10.7516 8.49916 10.7516 9.29998C10.7516 10.1008 10.1024 10.75 9.30156 10.75C8.50075 10.75 7.85156 10.1008 7.85156 9.29998ZM15.5 10C15.1833 10 14.8726 10.1038 14.5847 10.3113C14.1366 10.6342 13.5116 10.5327 13.1887 10.0847C12.8658 9.6366 12.9673 9.01162 13.4153 8.68872C14.01 8.2602 14.7238 8 15.5 8C16.2762 8 16.99 8.2602 17.5847 8.68872C18.0327 9.01162 18.1342 9.6366 17.8113 10.0847C17.4884 10.5327 16.8634 10.6342 16.4153 10.3113C16.1274 10.1038 15.8167 10 15.5 10ZM7 14C7 13.4477 7.44772 13 8 13H16C16.5523 13 17 13.4477 17 14C17 16.7614 14.7614 19 12 19C9.23858 19 7 16.7614 7 14Z" fill="#0000CC"/>
</svg>
