<svg width="24" height="24" viewBox="0 0 24 24" fill="none" xmlns="http://www.w3.org/2000/svg">
<path opacity="0.3" d="M12 2C6.47715 2 2 6.47715 2 12C2 17.5228 6.47715 22 12 22C17.5228 22 22 17.5228 22 12C22 6.47715 17.5228 2 12 2Z" fill="#0000CC"/>
<path fill-rule="evenodd" clip-rule="evenodd" d="M8.50027 10C8.18361 10 7.87283 10.1038 7.58493 10.3113C7.13687 10.6342 6.51189 10.5327 6.18899 10.0847C5.86609 9.6366 5.96756 9.01162 6.41561 8.68872C7.01024 8.2602 7.72407 8 8.50027 8C9.27647 8 9.99031 8.2602 10.5849 8.68872C11.033 9.01162 11.1344 9.6366 10.8116 10.0847C10.4887 10.5327 9.86367 10.6342 9.41561 10.3113C9.12772 10.1038 8.81693 10 8.50027 10ZM15.5003 10C15.1836 10 14.8728 10.1038 14.5849 10.3113C14.1369 10.6342 13.5119 10.5327 13.189 10.0847C12.8661 9.6366 12.9676 9.01162 13.4156 8.68872C14.0102 8.2602 14.7241 8 15.5003 8C16.2765 8 16.9903 8.2602 17.5849 8.68872C18.033 9.01162 18.1344 9.6366 17.8116 10.0847C17.4887 10.5327 16.8637 10.6342 16.4156 10.3113C16.1277 10.1038 15.8169 10 15.5003 10ZM21.9405 10.6596C22.1286 11.1789 21.86 11.7523 21.3407 11.9403L16.9452 13.5317C16.9812 13.6819 17.0003 13.8387 17.0003 14V16H19.0003C19.5526 16 20.0003 16.4477 20.0003 17C20.0003 17.5523 19.5526 18 19.0003 18H16.7327C16.3869 18.5978 15.7406 19 15.0003 19H9.00027C8.25999 19 7.61365 18.5978 7.26784 18H5.00027C4.44799 18 4.00027 17.5523 4.00027 17C4.00027 16.4477 4.44799 16 5.00027 16H7.00027V14C7.00027 13.844 7.01812 13.6922 7.05187 13.5466L2.65679 11.9392C2.13811 11.7495 1.87141 11.1752 2.06111 10.6565C2.25081 10.1378 2.82507 9.87114 3.34375 10.0608L8.70529 12.0217C8.80185 12.0074 8.90038 12 9.00027 12H15.0003C15.0866 12 15.1719 12.0055 15.2558 12.0163L20.6598 10.0597C21.1791 9.87172 21.7525 10.1403 21.9405 10.6596Z" fill="#0000CC"/>
</svg>
