<svg width="24" height="24" viewBox="0 0 24 24" fill="none" xmlns="http://www.w3.org/2000/svg">
<path opacity="0.3" d="M12 2C6.47715 2 2 6.47715 2 12C2 17.5228 6.47715 22 12 22C17.5228 22 22 17.5228 22 12C22 6.47715 17.5228 2 12 2Z" fill="#0000CC"/>
<path fill-rule="evenodd" clip-rule="evenodd" d="M7.85156 9.29998C7.85156 8.49916 8.50075 7.84998 9.30156 7.84998C10.1024 7.84998 10.7516 8.49916 10.7516 9.29998C10.7516 10.1008 10.1024 10.75 9.30156 10.75C8.50075 10.75 7.85156 10.1008 7.85156 9.29998ZM15.5 10C15.1833 10 14.8726 10.1038 14.5847 10.3113C14.1366 10.6342 13.5116 10.5327 13.1887 10.0847C12.8658 9.6366 12.9673 9.01162 13.4153 8.68872C14.01 8.2602 14.7238 8 15.5 8C16.2762 8 16.99 8.2602 17.5847 8.68872C18.0327 9.01162 18.1342 9.6366 17.8113 10.0847C17.4884 10.5327 16.8634 10.6342 16.4153 10.3113C16.1274 10.1038 15.8167 10 15.5 10ZM7.33189 13.0567C7.02598 12.9491 6.68676 12.9965 6.4221 13.1839C6.15736 13.3714 6 13.6756 6 14C6 15.5666 7.04268 16.8285 8.16012 17.6382C9.29205 18.4584 10.7429 19 12 19C13.2571 19 14.708 18.4584 15.8399 17.6382C16.9573 16.8285 18 15.5666 18 14C18 13.6756 17.8426 13.3714 17.5779 13.1839C17.3132 12.9965 16.9741 12.949 16.6681 13.0567L16.6633 13.0584L16.6428 13.0654C16.624 13.0719 16.5952 13.0817 16.557 13.0945C16.4807 13.1199 16.3675 13.157 16.2242 13.2018C15.9372 13.2914 15.532 13.4113 15.0626 13.531C14.1062 13.775 12.9529 14 12 14C11.0471 14 9.89383 13.775 8.93735 13.531C8.46799 13.4113 8.06282 13.2914 7.77581 13.2018C7.63254 13.157 7.51933 13.1199 7.443 13.0945C7.40485 13.0817 7.37595 13.0719 7.35717 13.0654L7.3367 13.0584L7.33189 13.0567Z" fill="#0000CC"/>
</svg>
