<svg width="24" height="24" viewBox="0 0 24 24" fill="none" xmlns="http://www.w3.org/2000/svg">
<path opacity="0.3" d="M12 2C6.47715 2 2 6.47715 2 12C2 17.5228 6.47715 22 12 22C17.5228 22 22 17.5228 22 12C22 6.47715 17.5228 2 12 2Z" fill="#0000CC"/>
<path fill-rule="evenodd" clip-rule="evenodd" d="M6.64991 7.84514C7.11947 7.36535 7.748 7 8.50027 7C9.25254 7 9.88107 7.36535 10.3506 7.84514C10.8164 8.32107 11.1758 8.95438 11.4364 9.64844C11.6306 10.1655 11.3689 10.742 10.8518 10.9362C10.3348 11.1303 9.75827 10.8686 9.56411 10.3516C9.36868 9.83117 9.137 9.46448 8.92124 9.24402C8.70927 9.02743 8.56584 9 8.50027 9C8.4347 9 8.29127 9.02743 8.0793 9.24402C7.86354 9.46448 7.63186 9.83117 7.43644 10.3516C7.24228 10.8686 6.66574 11.1303 6.14871 10.9362C5.63168 10.742 5.36994 10.1655 5.56411 9.64844C5.82475 8.95438 6.18415 8.32107 6.64991 7.84514ZM13.6499 7.84514C14.1195 7.36535 14.748 7 15.5003 7C16.2525 7 16.8811 7.36535 17.3506 7.84514C17.8164 8.32107 18.1758 8.95438 18.4364 9.64844C18.6306 10.1655 18.3689 10.742 17.8518 10.9362C17.3348 11.1303 16.7583 10.8686 16.5641 10.3516C16.3687 9.83117 16.137 9.46448 15.9212 9.24402C15.7093 9.02743 15.5658 9 15.5003 9C15.4347 9 15.2913 9.02743 15.0793 9.24402C14.8635 9.46448 14.6319 9.83117 14.4364 10.3516C14.2423 10.8686 13.6657 11.1303 13.1487 10.9362C12.6317 10.742 12.3699 10.1655 12.5641 9.64844C12.8247 8.95438 13.1841 8.32107 13.6499 7.84514ZM7.33235 13.0567L7.33697 13.0584L7.35744 13.0654C7.37622 13.0719 7.40512 13.0817 7.44327 13.0945C7.5196 13.1199 7.63281 13.157 7.77608 13.2018C8.06309 13.2914 8.46826 13.4113 8.93762 13.531C9.8941 13.775 11.0473 14 12.0003 14C12.9532 14 14.1064 13.775 15.0629 13.531C15.5323 13.4113 15.9375 13.2914 16.2245 13.2018C16.3677 13.157 16.4809 13.1199 16.5573 13.0945C16.5954 13.0817 16.6243 13.0719 16.6431 13.0654L16.6636 13.0584L16.6679 13.0568C16.9738 12.9492 17.3135 12.9965 17.5782 13.1839C17.8429 13.3714 18.0003 13.6756 18.0003 14C18.0003 15.5666 16.9576 16.8285 15.8401 17.6382C14.7082 18.4584 13.2574 19 12.0003 19C10.7432 19 9.29232 18.4584 8.16039 17.6382C7.04295 16.8285 6.00027 15.5666 6.00027 14C6.00027 13.6756 6.15763 13.3714 6.42238 13.1839C6.68703 12.9965 7.02644 12.9492 7.33235 13.0567Z" fill="#0000CC"/>
<path fill-rule="evenodd" clip-rule="evenodd" d="M19.0003 2C19.4092 2 19.7769 2.24895 19.9287 2.62861L20.8388 4.90371C20.9455 5.1704 21.0003 5.45499 21.0003 5.74223V6C21.0003 7.10457 20.1048 8 19.0003 8C17.8957 8 17.0003 7.10457 17.0003 6V5.74223C17.0003 5.45499 17.0551 5.1704 17.1618 4.90371L18.0718 2.62861C18.2237 2.24895 18.5914 2 19.0003 2Z" fill="#0000CC"/>
</svg>
