<svg width="24" height="24" viewBox="0 0 24 24" fill="none" xmlns="http://www.w3.org/2000/svg">
<path opacity="0.3" d="M12 2C6.47715 2 2 6.47715 2 12C2 17.5228 6.47715 22 12 22C17.5228 22 22 17.5228 22 12C22 6.47715 17.5228 2 12 2Z" fill="#0000CC"/>
<path fill-rule="evenodd" clip-rule="evenodd" d="M8.89195 9.85302C8.40532 9.97813 8.03303 10.2345 7.84793 10.5303C7.55496 10.9985 6.93793 11.1405 6.46975 10.8476C6.00158 10.5546 5.85954 9.93756 6.15251 9.46939C6.68135 8.62428 7.55906 8.13067 8.39395 7.91602C9.21912 7.70387 10.1757 7.71958 10.9474 8.10543C11.4414 8.35242 11.6416 8.95309 11.3947 9.44707C11.1477 9.94105 10.547 10.1413 10.053 9.8943C9.82474 9.78016 9.38829 9.72541 8.89195 9.85302ZM15.6065 7.91604C16.4414 8.1307 17.3191 8.62431 17.8479 9.46942C18.1409 9.93759 17.9989 10.5546 17.5307 10.8476C17.0625 11.1406 16.4455 10.9985 16.1525 10.5303C15.9674 10.2345 15.5951 9.97816 15.1085 9.85305C14.6121 9.72543 14.1757 9.78018 13.9474 9.89431C13.4534 10.1413 12.8528 9.94107 12.6058 9.44709C12.3588 8.9531 12.559 8.35243 13.053 8.10545C13.8247 7.7196 14.7813 7.70389 15.6065 7.91604ZM6.55301 13.1055C7.04698 12.8585 7.64766 13.0587 7.89465 13.5527C8.33457 14.4325 8.845 15.02 9.45949 15.3983C10.0752 15.7773 10.8826 15.9999 12.0071 15.9999C13.7612 15.9999 15.3024 15.1703 16.1109 13.5982C16.3635 13.1071 16.9665 12.9137 17.4576 13.1663C17.9487 13.4189 18.1421 14.0218 17.8895 14.5129C17.7703 14.7447 17.6402 14.9649 17.5002 15.1737V20.9999C17.5002 21.5522 17.0525 21.9999 16.5002 21.9999C15.9479 21.9999 15.5002 21.5522 15.5002 20.9999V17.0701C15.1812 17.2596 14.8466 17.4202 14.5002 17.5518V19.9999C14.5002 20.5522 14.0525 20.9999 13.5002 20.9999C12.9479 20.9999 12.5002 20.5522 12.5002 19.9999V17.9834C12.3367 17.9944 12.1722 17.9999 12.0071 17.9999C10.6159 17.9999 9.41989 17.7225 8.41108 17.1015C7.40104 16.4797 6.66587 15.5673 6.10579 14.4471C5.8588 13.9531 6.05903 13.3525 6.55301 13.1055Z" fill="#0000CC"/>
</svg>
