<svg width="24" height="24" viewBox="0 0 24 24" fill="none" xmlns="http://www.w3.org/2000/svg">
<path opacity="0.3" d="M12 2C6.47715 2 2 6.47715 2 12C2 17.5228 6.47715 22 12 22C17.5228 22 22 17.5228 22 12C22 6.47715 17.5228 2 12 2Z" fill="#0000CC"/>
<path fill-rule="evenodd" clip-rule="evenodd" d="M6 11C6 10.4477 6.44772 10 7 10H10C10.5523 10 11 10.4477 11 11C11 11.5523 10.5523 12 10 12H7C6.44772 12 6 11.5523 6 11ZM13 11C13 10.4477 13.4477 10 14 10H17C17.5523 10 18 10.4477 18 11C18 11.5523 17.5523 12 17 12H14C13.4477 12 13 11.5523 13 11ZM9.20041 16.3995C9.8372 15.5516 10.8543 15 12 15C13.1457 15 14.1628 15.5516 14.7996 16.3995C15.1313 16.8411 15.0421 17.4679 14.6005 17.7996C14.1589 18.1313 13.5321 18.0421 13.2004 17.6005C12.9251 17.234 12.49 17 12 17C11.51 17 11.0749 17.234 10.7996 17.6005C10.4679 18.0421 9.84106 18.1313 9.39946 17.7996C8.95785 17.4679 8.86874 16.8411 9.20041 16.3995Z" fill="#0000CC"/>
<path fill-rule="evenodd" clip-rule="evenodd" d="M5 2C5.4089 2 5.77661 2.24895 5.92848 2.62861L6.83852 4.90371C6.94519 5.1704 7 5.45499 7 5.74223V6C7 7.10457 6.10457 8 5 8C3.89543 8 3 7.10457 3 6V5.74223C3 5.45499 3.05481 5.1704 3.16148 4.90371L4.07152 2.62861C4.22339 2.24895 4.5911 2 5 2Z" fill="#0000CC"/>
</svg>
