<svg width="24" height="24" viewBox="0 0 24 24" fill="none" xmlns="http://www.w3.org/2000/svg">
<path opacity="0.3" d="M12 2C6.47715 2 2 6.47715 2 12C2 17.5228 6.47715 22 12 22C17.5228 22 22 17.5228 22 12C22 6.47715 17.5228 2 12 2Z" fill="#0000CC"/>
<path fill-rule="evenodd" clip-rule="evenodd" d="M15.6064 5.91602C16.4413 6.13068 17.319 6.6243 17.8478 7.4694C18.1408 7.93757 17.9988 8.5546 17.5306 8.84757C17.0624 9.14054 16.4454 8.9985 16.1524 8.53033C15.9673 8.23451 15.595 7.97814 15.1084 7.85303C14.6121 7.72541 14.1756 7.78016 13.9473 7.8943C13.4534 8.14128 12.8527 7.94105 12.6057 7.44707C12.3587 6.95309 12.5589 6.35241 13.0529 6.10543C13.8247 5.71958 14.7812 5.70387 15.6064 5.91602ZM8.89186 7.85303C8.40524 7.97815 8.03295 8.23452 7.84784 8.53033C7.55487 8.9985 6.93784 9.14054 6.46967 8.84757C6.00149 8.5546 5.85946 7.93757 6.15243 7.4694C6.68126 6.62429 7.55897 6.13068 8.39386 5.91603C9.21904 5.70388 10.1756 5.71959 10.9473 6.10545C11.4413 6.35243 11.6415 6.9531 11.3946 7.44708C11.1476 7.94106 10.5469 8.14129 10.0529 7.89431C9.82465 7.78017 9.38821 7.72543 8.89186 7.85303ZM7.8517 11.3499C7.8517 10.5214 8.52327 9.84985 9.3517 9.84985C10.1801 9.84985 10.8517 10.5214 10.8517 11.3499C10.8517 12.1783 10.1801 12.8499 9.3517 12.8499C8.52327 12.8499 7.8517 12.1783 7.8517 11.3499ZM13.2501 11.2999C13.2501 10.499 13.8993 9.84985 14.7001 9.84985C15.5009 9.84985 16.1501 10.499 16.1501 11.2999C16.1501 12.1007 15.5009 12.7499 14.7001 12.7499C13.8993 12.7499 13.2501 12.1007 13.2501 11.2999ZM10.0001 15.9999C10.0001 14.8953 10.8956 13.9999 12.0001 13.9999C13.1047 13.9999 14.0001 14.8953 14.0001 15.9999V16.9999C14.0001 18.1044 13.1047 18.9999 12.0001 18.9999C10.8956 18.9999 10.0001 18.1044 10.0001 16.9999V15.9999Z" fill="#0000CC"/>
</svg>
