<svg width="24" height="24" viewBox="0 0 24 24" fill="none" xmlns="http://www.w3.org/2000/svg">
<path opacity="0.3" d="M12 2C6.47715 2 2 6.47715 2 12C2 17.5228 6.47715 22 12 22C17.5228 22 22 17.5228 22 12C22 6.47715 17.5228 2 12 2Z" fill="#0000CC"/>
<path fill-rule="evenodd" clip-rule="evenodd" d="M7.32884 6.84086C7.80325 6.12357 8.63672 5.62818 9.65099 5.74849C11.009 5.90958 11.8873 7.10779 11.6352 8.42405C11.5595 8.81939 11.3591 9.41547 11.1815 9.91174C10.9948 10.4336 10.7998 10.9358 10.7033 11.1812L10.7016 11.1855C10.6942 11.2045 10.672 11.2613 10.6459 11.3151C10.6105 11.3881 10.545 11.5061 10.4287 11.6224C10.2876 11.7635 10.111 11.8655 9.91821 11.9171C9.75937 11.9596 9.62443 11.9574 9.54353 11.9516C9.48386 11.9473 9.42364 11.9381 9.4034 11.935L9.39888 11.9343C9.13803 11.8952 8.60565 11.8129 8.06038 11.7137C7.54182 11.6193 6.92539 11.4949 6.54515 11.3628C5.26446 10.9179 4.70446 9.55301 5.21499 8.31888C5.60874 7.36704 6.46718 6.89357 7.32884 6.84086ZM16.6698 6.84086C16.1954 6.12357 15.3619 5.62818 14.3476 5.74849C12.9896 5.90958 12.1113 7.10779 12.3634 8.42405C12.4392 8.81939 12.6396 9.41547 12.8171 9.91174C13.0038 10.4336 13.1988 10.9358 13.2953 11.1812L13.297 11.1855C13.3045 11.2046 13.3266 11.2613 13.3527 11.3151C13.3881 11.3881 13.4536 11.5061 13.5699 11.6224C13.711 11.7635 13.8876 11.8655 14.0804 11.9171C14.2392 11.9596 14.3742 11.9574 14.4551 11.9516C14.5147 11.9473 14.575 11.9381 14.5952 11.935L14.5997 11.9343C14.8606 11.8952 15.393 11.8129 15.9382 11.7137C16.4568 11.6193 17.0732 11.4949 17.4535 11.3628C18.7342 10.9179 19.2942 9.55301 18.7836 8.31888C18.3899 7.36704 17.5314 6.89357 16.6698 6.84086ZM7.3312 13.0567C7.02529 12.9491 6.68606 12.9965 6.42141 13.1839C6.15667 13.3714 5.99931 13.6756 5.99931 14C5.99931 15.5667 7.04199 16.8285 8.15943 17.6382C9.29135 18.4584 10.7422 19 11.9993 19C13.2564 19 14.7073 18.4584 15.8392 17.6382C16.9566 16.8285 17.9993 15.5667 17.9993 14C17.9993 13.6756 17.8419 13.3714 17.5772 13.1839C17.3125 12.9965 16.9734 12.9491 16.6674 13.0567L16.6626 13.0584L16.6421 13.0655C16.6234 13.0719 16.5945 13.0817 16.5563 13.0945C16.48 13.12 16.3668 13.157 16.2235 13.2018C15.9365 13.2915 15.5313 13.4113 15.062 13.5311C14.1055 13.775 12.9522 14 11.9993 14C11.0464 14 9.89314 13.775 8.93666 13.5311C8.4673 13.4113 8.06213 13.2915 7.77512 13.2018C7.63185 13.157 7.51864 13.12 7.44231 13.0945C7.40415 13.0817 7.37526 13.0719 7.35648 13.0655L7.33601 13.0584L7.3312 13.0567Z" fill="#0000CC"/>
</svg>
