<svg width="24" height="24" viewBox="0 0 24 24" fill="none" xmlns="http://www.w3.org/2000/svg">
<path opacity="0.3" d="M12 2C6.47715 2 2 6.47715 2 12C2 17.5228 6.47715 22 12 22C17.5228 22 22 17.5228 22 12C22 6.47715 17.5228 2 12 2Z" fill="#0000CC"/>
<path fill-rule="evenodd" clip-rule="evenodd" d="M7.85156 9.34998C7.85156 8.52155 8.52313 7.84998 9.35156 7.84998C10.18 7.84998 10.8516 8.52155 10.8516 9.34998C10.8516 10.1784 10.18 10.85 9.35156 10.85C8.52313 10.85 7.85156 10.1784 7.85156 9.34998ZM13.25 9.29998C13.25 8.49916 13.8992 7.84998 14.7 7.84998C15.5008 7.84998 16.15 8.49916 16.15 9.29998C16.15 10.1008 15.5008 10.75 14.7 10.75C13.8992 10.75 13.25 10.1008 13.25 9.29998ZM8.5 15.5C8.5 13.567 10.067 12 12 12C13.933 12 15.5 13.567 15.5 15.5C15.5 17.433 13.933 19 12 19C10.067 19 8.5 17.433 8.5 15.5Z" fill="#0000CC"/>
</svg>
