<svg width="24" height="24" viewBox="0 0 24 24" fill="none" xmlns="http://www.w3.org/2000/svg">
<path opacity="0.14" d="M4 7C2.89543 7 2 7.89543 2 9V16C2 17.1046 2.89543 18 4 18H8V13.5C8 12.6716 8.67157 12 9.5 12H18V9C18 7.89543 17.1046 7 16 7H4Z" fill="#0000CC"/>
<path d="M7 7V6C7 4.34315 8.34315 3 10 3C11.6569 3 13 4.34315 13 6V6.97545M18 15C18 16.6569 16.6569 18 15 18C13.3431 18 12 16.6569 12 15M4 18C2.89543 18 2 17.1046 2 16V9C2 7.89543 2.89543 7 4 7H16C16.7403 7 17.3866 7.4022 17.7324 8M10.4 21H19.6C20.4401 21 20.8601 21 21.181 20.8365C21.4632 20.6927 21.6927 20.4632 21.8365 20.181C22 19.8601 22 19.4401 22 18.6V14.4C22 13.5599 22 13.1399 21.8365 12.819C21.6927 12.5368 21.4632 12.3073 21.181 12.1635C20.8601 12 20.4401 12 19.6 12H10.4C9.55992 12 9.13988 12 8.81901 12.1635C8.53677 12.3073 8.3073 12.5368 8.16349 12.819C8 13.1399 8 13.5599 8 14.4V18.6C8 19.4401 8 19.8601 8.16349 20.181C8.3073 20.4632 8.53677 20.6927 8.81901 20.8365C9.13988 21 9.55992 21 10.4 21Z" stroke="#0000CC" stroke-width="2" stroke-linecap="round" stroke-linejoin="round"/>
</svg>
