<svg width="24" height="24" viewBox="0 0 24 24" fill="none" xmlns="http://www.w3.org/2000/svg">
<g opacity="0.14">
<path d="M20.8585 9.12728C20.8336 9.22181 20.7691 9.30787 20.64 9.48L12.64 20.1467C12.4229 20.4362 12.3143 20.5809 12.1812 20.6327C12.1597 20.641 12.1378 20.6478 12.1156 20.6531L16 9L12 3H16.1C16.2467 3 16.32 3 16.3873 3.01922C16.4469 3.03625 16.5028 3.06421 16.5522 3.10169C16.608 3.144 16.652 3.20267 16.74 3.32L20.64 8.52C20.7691 8.69213 20.8336 8.77819 20.8585 8.87272C20.8805 8.95615 20.8805 9.04385 20.8585 9.12728Z" fill="#0000CC"/>
<path d="M11.8844 20.6531C11.8622 20.6478 11.8403 20.641 11.8188 20.6327C11.6857 20.5809 11.5771 20.4362 11.36 20.1467L3.36 9.48C3.2309 9.30787 3.16635 9.2218 3.14147 9.12728C3.11951 9.04385 3.11951 8.95615 3.14147 8.87271C3.16635 8.77819 3.2309 8.69213 3.36 8.52L7.26 3.32C7.348 3.20267 7.392 3.144 7.44776 3.10169C7.49715 3.06421 7.55308 3.03625 7.61269 3.01922C7.68 3 7.75333 3 7.9 3H12L8 9L11.8844 20.6531Z" fill="#0000CC"/>
</g>
<path d="M3.125 9H20.875M16 9L12 20.6667L8 9L12 3L16 9ZM7.5 3H16.5L21 9L12 21L3 9L7.5 3Z" stroke="#0000CC" stroke-width="2" stroke-linejoin="round"/>
</svg>
