<svg width="24" height="24" viewBox="0 0 24 24" fill="none" xmlns="http://www.w3.org/2000/svg">
<path opacity="0.3" fill-rule="evenodd" clip-rule="evenodd" d="M10.448 3.00001C10.2444 2.99992 10.0665 2.99984 9.89468 3.01951C9.00699 3.12119 8.21082 3.61325 7.72289 4.36176C7.62847 4.5066 7.54897 4.66578 7.45799 4.84794L7.43891 4.88615C7.40958 4.9448 7.39446 4.97493 7.38297 4.99673L7.38157 4.99938L7.37858 4.99944C7.35394 4.99997 7.32023 5.00003 7.25465 5.00003L6.16146 5.00002C5.63431 5.00001 5.17954 4.99999 4.80497 5.0306C4.40963 5.0629 4.01641 5.13421 3.63803 5.32701C3.07354 5.61463 2.6146 6.07357 2.32698 6.63805C2.13419 7.01643 2.06287 7.40965 2.03057 7.805C1.99997 8.17956 1.99998 8.63431 2 9.16144V16.8386C1.99998 17.3657 1.99997 17.8205 2.03057 18.1951C2.06287 18.5904 2.13419 18.9836 2.32698 19.362C2.6146 19.9265 3.07355 20.3854 3.63803 20.673C4.01641 20.8658 4.40963 20.9372 4.80497 20.9695C5.17954 21.0001 5.6343 21 6.16144 21H17.8386C18.3657 21 18.8205 21.0001 19.195 20.9695C19.5904 20.9372 19.9836 20.8658 20.362 20.673C20.9265 20.3854 21.3854 19.9265 21.673 19.362C21.8658 18.9836 21.9371 18.5904 21.9694 18.1951C22 17.8205 22 17.3657 22 16.8386V9.16146C22 8.63432 22 8.17956 21.9694 7.805C21.9371 7.40965 21.8658 7.01643 21.673 6.63806C21.3854 6.07357 20.9265 5.61463 20.362 5.32701C19.9836 5.13421 19.5904 5.0629 19.195 5.0306C18.8205 4.99999 18.3657 5.00001 17.8386 5.00002L16.7454 5.00003C16.6798 5.00003 16.6461 4.99997 16.6214 4.99944L16.6184 4.99938L16.617 4.99673C16.6056 4.97494 16.5904 4.94481 16.5611 4.88615L16.542 4.84798C16.4511 4.66583 16.3715 4.5066 16.2771 4.36175C15.7892 3.61325 14.993 3.12119 14.1053 3.01951C13.9335 2.99984 13.7556 2.99992 13.552 3.00001H10.448Z" fill="#0000CC"/>
<path d="M8 13C8 10.7909 9.79086 9 12 9C14.2091 9 16 10.7909 16 13C16 15.2091 14.2091 17 12 17C9.79086 17 8 15.2091 8 13Z" fill="#0000CC"/>
</svg>
