<svg width="24" height="24" viewBox="0 0 24 24" fill="none" xmlns="http://www.w3.org/2000/svg">
<path opacity="0.3" d="M12.1281 3.08287C12.4765 2.99922 12.8353 2.99955 13.2422 2.99993L17.8385 2.99998C18.3657 2.99996 18.8205 2.99995 19.195 3.03055C19.5904 3.06285 19.9836 3.13417 20.362 3.32696C20.9265 3.61458 21.3854 4.07352 21.673 4.63801C21.8658 5.01639 21.9371 5.40961 21.9694 5.80495C22 6.17952 22 6.63427 22 7.16141V12H14.8293C14.4175 10.8348 13.3062 9.99997 12 9.99997C10.6938 9.99997 9.58254 10.8348 9.1707 12H2V10.1614C1.99998 9.63428 1.99997 9.1795 2.03057 8.80495C2.06287 8.40961 2.13419 8.01639 2.32698 7.63801C2.6146 7.07352 3.07355 6.61458 3.63803 6.32696C4.01641 6.13417 4.40963 6.06285 4.80498 6.03055C5.17955 5.99995 5.63431 5.99996 6.16146 5.99998L7.67452 5.99998C8.2113 5.99998 8.3167 5.99355 8.40502 5.97235C8.50706 5.94785 8.6046 5.90745 8.69408 5.85262C8.77114 5.80539 8.84982 5.73586 9.22463 5.36114L10.4145 4.17119C10.702 3.8832 10.9554 3.62929 11.2609 3.44206C11.5294 3.27757 11.822 3.15636 12.1281 3.08287Z" fill="#0000CC"/>
<path d="M3 3C2.44772 3 2 3.44772 2 4C2 4.55228 2.44772 5 3 5H8C8.55229 5 9 4.55228 9 4C9 3.44772 8.55229 3 8 3H3Z" fill="#0000CC"/>
<path d="M15 13C15 14.6569 13.6569 16 12 16C10.3431 16 9 14.6569 9 13C9 12.6494 9.06016 12.3128 9.17071 12H2V16.8385C1.99999 17.3656 1.99997 17.8205 2.03057 18.195C2.06288 18.5904 2.13419 18.9836 2.32699 19.362C2.61461 19.9265 3.07355 20.3854 3.63803 20.673C4.01641 20.8658 4.40963 20.9371 4.80498 20.9694C5.17955 21 5.63431 21 6.16145 21H17.8385C18.3657 21 18.8205 21 19.195 20.9694C19.5904 20.9371 19.9836 20.8658 20.362 20.673C20.9265 20.3854 21.3854 19.9265 21.673 19.362C21.8658 18.9836 21.9371 18.5904 21.9694 18.195C22 17.8205 22 17.3657 22 16.8386V12H14.8293C14.9398 12.3128 15 12.6494 15 13Z" fill="#0000CC"/>
</svg>
