<svg width="24" height="24" viewBox="0 0 24 24" fill="none" xmlns="http://www.w3.org/2000/svg">
<path opacity="0.3" d="M10 5H13.1999C14.8801 5 15.7202 5 16.3619 5.32698C16.9264 5.6146 17.3853 6.07354 17.673 6.63803C17.9999 7.27976 17.9999 8.11984 17.9999 9.8V14.2C17.9999 15.8802 17.9999 16.7202 17.673 17.362C17.3853 17.9265 16.9264 18.3854 16.3619 18.673C15.7202 19 14.8801 19 13.1999 19H10.9999V20H12.9999C13.5522 20 13.9999 20.4477 13.9999 21C13.9999 21.549 13.5575 21.9947 13.0098 22C13.0713 22 13.1347 22 13.1999 22H18.7999C19.9201 22 20.4801 22 20.9079 21.782C21.2843 21.5903 21.5902 21.2843 21.782 20.908C21.9999 20.4802 21.9999 19.9201 21.9999 18.8V5.2C21.9999 4.0799 21.9999 3.51984 21.782 3.09202C21.5902 2.71569 21.2843 2.40973 20.9079 2.21799C20.4801 2 19.9201 2 18.7999 2H13.1999C12.0798 2 11.5198 2 11.092 2.21799C10.7156 2.40973 10.4097 2.71569 10.2179 3.09202C10.0133 3.49359 10.0008 4.01165 10 5Z" fill="#0000CC"/>
<path fill-rule="evenodd" clip-rule="evenodd" d="M2 9.8C2 8.11984 2 7.27976 2.32698 6.63803C2.6146 6.07354 3.07354 5.6146 3.63803 5.32698C4.27976 5 5.11984 5 6.8 5H13.2C14.8802 5 15.7202 5 16.362 5.32698C16.9265 5.6146 17.3854 6.07354 17.673 6.63803C18 7.27976 18 8.11984 18 9.8V14.2C18 15.8802 18 16.7202 17.673 17.362C17.3854 17.9265 16.9265 18.3854 16.362 18.673C15.7202 19 14.8802 19 13.2 19H11V20H13C13.5523 20 14 20.4477 14 21C14 21.5523 13.5523 22 13 22H7C6.44772 22 6 21.5523 6 21C6 20.4477 6.44772 20 7 20H9V19H6.8C5.11984 19 4.27976 19 3.63803 18.673C3.07354 18.3854 2.6146 17.9265 2.32698 17.362C2 16.7202 2 15.8802 2 14.2V9.8ZM4 8.6C4 8.03995 4 7.75992 4.10899 7.54601C4.20487 7.35785 4.35785 7.20487 4.54601 7.10899C4.75992 7 5.03995 7 5.6 7H14.4C14.9601 7 15.2401 7 15.454 7.10899C15.6422 7.20487 15.7951 7.35785 15.891 7.54601C16 7.75992 16 8.03995 16 8.6V16H4V8.6Z" fill="#0000CC"/>
</svg>
