<svg width="24" height="24" viewBox="0 0 24 24" fill="none" xmlns="http://www.w3.org/2000/svg">
<path opacity="0.3" fill-rule="evenodd" clip-rule="evenodd" d="M12 22C17.5228 22 22 17.5228 22 12C22 6.47715 17.5228 2 12 2C6.47715 2 2 6.47715 2 12C2 17.5228 6.47715 22 12 22ZM12 13C12.5523 13 13 12.5523 13 12C13 11.4477 12.5523 11 12 11C11.4477 11 11 11.4477 11 12C11 12.5523 11.4477 13 12 13Z" fill="#0000CC"/>
<path d="M12 5C11.4477 5 11 5.44772 11 6C11 6.55228 11.4477 7 12 7C14.7614 7 17 9.23858 17 12C17 12.5523 17.4477 13 18 13C18.5523 13 19 12.5523 19 12C19 8.13401 15.866 5 12 5Z" fill="#0000CC"/>
<path d="M7 12C7 11.4477 6.55228 11 6 11C5.44772 11 5 11.4477 5 12C5 15.866 8.13401 19 12 19C12.5523 19 13 18.5523 13 18C13 17.4477 12.5523 17 12 17C9.23858 17 7 14.7614 7 12Z" fill="#0000CC"/>
<path fill-rule="evenodd" clip-rule="evenodd" d="M15 12C15 13.6569 13.6569 15 12 15C10.3431 15 9 13.6569 9 12C9 10.3431 10.3431 9 12 9C13.6569 9 15 10.3431 15 12ZM13 12C13 12.5523 12.5523 13 12 13C11.4477 13 11 12.5523 11 12C11 11.4477 11.4477 11 12 11C12.5523 11 13 11.4477 13 12Z" fill="#0000CC"/>
</svg>
