<svg width="24" height="24" viewBox="0 0 24 24" fill="none" xmlns="http://www.w3.org/2000/svg">
<path opacity="0.3" fill-rule="evenodd" clip-rule="evenodd" d="M10.4071 4H13.5933C14.8701 3.99999 15.8874 3.99999 16.712 4.0653C17.5578 4.1323 18.2815 4.27242 18.9536 4.59692C20.042 5.12248 20.9463 5.9645 21.5481 7.01271C21.9196 7.65992 22.1109 8.37184 22.238 9.21073C22.3619 10.0286 22.4344 11.0433 22.5254 12.3168L22.7744 15.8033C22.9364 18.071 21.1403 20 18.8667 20C17.7041 20 16.6015 19.4836 15.8571 18.5904L15.482 18.1402C15.1166 17.7017 15.0067 17.5752 14.8917 17.4773C14.6187 17.2448 14.2881 17.09 13.9347 17.0291C13.7859 17.0034 13.6184 17 13.0476 17H10.9528C10.382 17 10.2145 17.0034 10.0657 17.0291C9.71223 17.09 9.38168 17.2448 9.10863 17.4773C8.99363 17.5752 8.88381 17.7017 8.51841 18.1402L8.14325 18.5904C7.39892 19.4836 6.29632 20 5.13365 20C2.86008 20 1.06399 18.071 1.22598 15.8033L1.47501 12.3169C1.56597 11.0433 1.63844 10.0286 1.76234 9.21073C1.88943 8.37184 2.08076 7.65992 2.45231 7.01271C3.05408 5.9645 3.9584 5.12248 5.04682 4.59692C5.71885 4.27242 6.4426 4.1323 7.28841 4.0653C8.113 3.99999 9.13029 3.99999 10.4071 4Z" fill="#0000CC"/>
<path d="M8 8C8.55228 8 9 8.44772 9 9V10H10C10.5523 10 11 10.4477 11 11C11 11.5523 10.5523 12 10 12H9V13C9 13.5523 8.55228 14 8 14C7.44772 14 7 13.5523 7 13V12H6C5.44772 12 5 11.5523 5 11C5 10.4477 5.44772 10 6 10H7V9C7 8.44772 7.44772 8 8 8Z" fill="#0000CC"/>
<path d="M17 10C17 9.44772 17.4477 9 18 9H18.01C18.5623 9 19.01 9.44772 19.01 10C19.01 10.5523 18.5623 11 18.01 11H18C17.4477 11 17 10.5523 17 10Z" fill="#0000CC"/>
<path d="M14 12C14 11.4477 14.4477 11 15 11H15.01C15.5623 11 16.01 11.4477 16.01 12C16.01 12.5523 15.5623 13 15.01 13H15C14.4477 13 14 12.5523 14 12Z" fill="#0000CC"/>
</svg>
