<svg width="24" height="24" viewBox="0 0 24 24" fill="none" xmlns="http://www.w3.org/2000/svg">
<path opacity="0.3" fill-rule="evenodd" clip-rule="evenodd" d="M5.16146 5H18.8385C19.3657 4.99998 19.8205 4.99997 20.195 5.03057C20.5904 5.06287 20.9836 5.13419 21.362 5.32698C21.9265 5.6146 22.3854 6.07354 22.673 6.63803C22.8658 7.01641 22.9371 7.40963 22.9694 7.80497C23 8.17954 23 8.6343 23 9.16144V14.8386C23 15.3657 23 15.8205 22.9694 16.195C22.9371 16.5904 22.8658 16.9836 22.673 17.362C22.3854 17.9265 21.9265 18.3854 21.362 18.673C20.9836 18.8658 20.5904 18.9371 20.195 18.9694C19.8205 19 19.3657 19 18.8385 19H5.16148C4.63432 19 4.17955 19 3.80497 18.9694C3.40963 18.9371 3.01641 18.8658 2.63803 18.673C2.07354 18.3854 1.6146 17.9265 1.32698 17.362C1.13419 16.9836 1.06287 16.5904 1.03057 16.195C0.999967 15.8205 0.999983 15.3657 1 14.8385V9.16146C0.999983 8.63431 0.999967 8.17955 1.03057 7.80497C1.06287 7.40963 1.13419 7.01641 1.32698 6.63803C1.6146 6.07354 2.07354 5.6146 2.63803 5.32698C3.01641 5.13419 3.40963 5.06287 3.80497 5.03057C4.17955 4.99997 4.63431 4.99998 5.16146 5Z" fill="#0000CC"/>
<path d="M8 9C8.55228 9 9 9.44772 9 10V11H10C10.5523 11 11 11.4477 11 12C11 12.5523 10.5523 13 10 13H9V14C9 14.5523 8.55228 15 8 15C7.44772 15 7 14.5523 7 14V13H6C5.44772 13 5 12.5523 5 12C5 11.4477 5.44772 11 6 11H7V10C7 9.44772 7.44772 9 8 9Z" fill="#0000CC"/>
<path d="M17 11C17 10.4477 17.4477 10 18 10H18.01C18.5623 10 19.01 10.4477 19.01 11C19.01 11.5523 18.5623 12 18.01 12H18C17.4477 12 17 11.5523 17 11Z" fill="#0000CC"/>
<path d="M15 13C15 12.4477 15.4477 12 16 12H16.01C16.5623 12 17.01 12.4477 17.01 13C17.01 13.5523 16.5623 14 16.01 14H16C15.4477 14 15 13.5523 15 13Z" fill="#0000CC"/>
</svg>
