<svg width="24" height="24" viewBox="0 0 24 24" fill="none" xmlns="http://www.w3.org/2000/svg">
<path opacity="0.3" d="M4.14776 7.17524L2.5 10H21.5L19.8522 7.17521C19.1772 6.01817 18.8398 5.43965 18.3697 5.01904C17.9537 4.64688 17.4645 4.36588 16.9335 4.19412C16.3333 4 15.6635 4 14.324 4H9.67596C8.33643 4 7.66667 4 7.0665 4.19412C6.53544 4.36588 6.04621 4.64689 5.63026 5.01906C5.16017 5.43967 4.8227 6.01819 4.14776 7.17524Z" fill="#0000CC"/>
<path fill-rule="evenodd" clip-rule="evenodd" d="M22 12H2V13.6C2 15.8402 2 16.9603 2.43597 17.816C2.81947 18.5686 3.43139 19.1805 4.18404 19.564C5.03969 20 6.15979 20 8.4 20H15.6C17.8402 20 18.9603 20 19.816 19.564C20.5686 19.1805 21.1805 18.5686 21.564 17.816C22 16.9603 22 15.8402 22 13.6V12ZM16 14C15.4477 14 15 14.4477 15 15C15 15.5523 15.4477 16 16 16H18C18.5523 16 19 15.5523 19 15C19 14.4477 18.5523 14 18 14H16Z" fill="#0000CC"/>
</svg>
