<svg width="24" height="24" viewBox="0 0 24 24" fill="none" xmlns="http://www.w3.org/2000/svg">
<path fill-rule="evenodd" clip-rule="evenodd" d="M4.29558 12.826C5.79715 12.1258 7.58204 12.7754 8.28223 14.277L9.97279 17.9024C10.673 19.404 10.0233 21.1889 8.52177 21.8891C6.51968 22.8226 4.13984 21.9564 3.20626 19.9544L2.36089 18.1415C1.76102 16.8551 1.90524 15.4131 2.61235 14.3016C3.00793 13.6797 3.58033 13.1595 4.29558 12.826ZM15.6289 14.277C16.3291 12.7754 18.114 12.1258 19.6155 12.826C20.3778 13.1814 20.9775 13.7487 21.374 14.4247C22.0154 15.518 22.1281 16.9021 21.5502 18.1415L20.7048 19.9544C19.7713 21.9564 17.3914 22.8226 15.3893 21.8891C13.8878 21.1889 13.2381 19.404 13.9383 17.9024L15.6289 14.277Z" fill="#0000CC"/>
<path opacity="0.3" fill-rule="evenodd" clip-rule="evenodd" d="M4 12C4 9.81707 4.87431 7.83835 6.29185 6.3949L7.2037 7.60253C7.51326 8.01251 8.08311 8.12123 8.52187 7.85404C9.36784 7.33887 10.8307 6.99994 12.0018 6.99994C13.1392 6.99994 14.6476 7.35819 15.4897 7.8589C15.9283 8.1197 16.4929 8.00842 16.7998 7.60069L17.7076 6.39439C19.1255 7.83787 20 9.81681 20 12C20 12.337 19.9792 12.6689 19.9389 12.9945C20.5488 13.349 21.0358 13.8472 21.3745 14.4246C21.4543 14.5607 21.526 14.7012 21.5891 14.8455C21.8566 13.9426 22 12.9872 22 12C22 6.47715 17.5228 2 12 2C6.47715 2 2 6.47715 2 12C2 12.9444 2.13119 13.8596 2.37682 14.7277C2.44667 14.5812 2.52546 14.4388 2.61284 14.3014C2.96301 13.751 3.45175 13.2801 4.05548 12.9479C4.01885 12.6373 4 12.321 4 12ZM8.29846 5.73338L7.86024 5.15301C9.06796 4.42124 10.4848 4 12 4C13.5149 4 14.9315 4.42109 16.1391 5.1526L15.6984 5.73816C14.5505 5.26429 13.1271 4.99994 12.0018 4.99994C10.8606 4.99994 9.45158 5.24872 8.29846 5.73338Z" fill="#0000CC"/>
</svg>
