<svg width="24" height="24" viewBox="0 0 24 24" fill="none" xmlns="http://www.w3.org/2000/svg">
<path opacity="0.3" fill-rule="evenodd" clip-rule="evenodd" d="M17 3C17 2.44772 16.5523 2 16 2C15.4477 2 15 2.44772 15 3V4H8C7.44772 4 7 4.44772 7 5V8L5.16146 8C4.63431 7.99998 4.17955 7.99997 3.80497 8.03057C3.40963 8.06287 3.01641 8.13419 2.63803 8.32698C2.07355 8.6146 1.6146 9.07354 1.32698 9.63803C1.13419 10.0164 1.06287 10.4096 1.03057 10.805C0.999969 11.1795 0.999984 11.6343 1 12.1614V17.8385C0.999984 18.3657 0.999969 18.8205 1.03057 19.195C1.06287 19.5904 1.13419 19.9836 1.32698 20.362C1.6146 20.9265 2.07355 21.3854 2.63803 21.673C3.01641 21.8658 3.40963 21.9371 3.80497 21.9694C4.17954 22 4.6343 22 5.16144 22H18.8386C19.3657 22 19.8205 22 20.195 21.9694C20.5904 21.9371 20.9836 21.8658 21.362 21.673C21.9265 21.3854 22.3854 20.9265 22.673 20.362C22.8658 19.9836 22.9371 19.5904 22.9694 19.195C23 18.8205 23 18.3657 23 17.8386V12.1614C23 11.6343 23 11.1795 22.9694 10.805C22.9371 10.4096 22.8658 10.0164 22.673 9.63803C22.3854 9.07354 21.9265 8.6146 21.362 8.32698C20.9836 8.13419 20.5904 8.06287 20.195 8.03057C19.8205 7.99997 19.3657 7.99998 18.8385 8L9 8V6H16C16.5523 6 17 5.55228 17 5V3Z" fill="#0000CC"/>
<path fill-rule="evenodd" clip-rule="evenodd" d="M7 13C7 13.5523 6.55228 14 6 14C5.44772 14 5 13.5523 5 13C5 12.4477 5.44772 12 6 12C6.55228 12 7 12.4477 7 13ZM7 17C7 17.5523 6.55228 18 6 18C5.44772 18 5 17.5523 5 17C5 16.4477 5.44772 16 6 16C6.55228 16 7 16.4477 7 17ZM10 14C10.5523 14 11 13.5523 11 13C11 12.4477 10.5523 12 10 12C9.44771 12 9 12.4477 9 13C9 13.5523 9.44771 14 10 14ZM15 13C15 13.5523 14.5523 14 14 14C13.4477 14 13 13.5523 13 13C13 12.4477 13.4477 12 14 12C14.5523 12 15 12.4477 15 13ZM18 14C18.5523 14 19 13.5523 19 13C19 12.4477 18.5523 12 18 12C17.4477 12 17 12.4477 17 13C17 13.5523 17.4477 14 18 14ZM19 17C19 17.5523 18.5523 18 18 18C17.4477 18 17 17.5523 17 17C17 16.4477 17.4477 16 18 16C18.5523 16 19 16.4477 19 17ZM10 16C9.44772 16 9 16.4477 9 17C9 17.5523 9.44772 18 10 18H14C14.5523 18 15 17.5523 15 17C15 16.4477 14.5523 16 14 16H10Z" fill="#0000CC"/>
</svg>
