<svg width="24" height="24" viewBox="0 0 24 24" fill="none" xmlns="http://www.w3.org/2000/svg">
<g opacity="0.3">
<path d="M11 13H13V14.126C12.6804 14.0438 12.3453 14 12 14C11.6547 14 11.3196 14.0438 11 14.126V13Z" fill="#0000CC"/>
<path d="M8.12602 17H3C2.44772 17 2 17.4477 2 18C2 18.5523 2.44772 19 3 19H8.12602C8.04375 18.6804 8 18.3453 8 18C8 17.6547 8.04375 17.3196 8.12602 17Z" fill="#0000CC"/>
<path d="M15.874 19H21C21.5523 19 22 18.5523 22 18C22 17.4477 21.5523 17 21 17H15.874C15.9562 17.3196 16 17.6547 16 18C16 18.3453 15.9562 18.6804 15.874 19Z" fill="#0000CC"/>
</g>
<path fill-rule="evenodd" clip-rule="evenodd" d="M14.8385 2H9.16146C8.63432 1.99998 8.17954 1.99997 7.80497 2.03057C7.40963 2.06287 7.01641 2.13419 6.63803 2.32698C6.07354 2.6146 5.6146 3.07354 5.32698 3.63803C5.13419 4.01641 5.06287 4.40963 5.03057 4.80497C4.99997 5.17955 4.99998 5.63431 5 6.16146L5 11H4C3.44772 11 3 11.4477 3 12C3 12.5523 3.44772 13 4 13H20C20.5523 13 21 12.5523 21 12C21 11.4477 20.5523 11 20 11H19V6.16148C19 5.63432 19 5.17955 18.9694 4.80497C18.9371 4.40963 18.8658 4.01641 18.673 3.63803C18.3854 3.07355 17.9265 2.6146 17.362 2.32698C16.9836 2.13419 16.5904 2.06287 16.195 2.03057C15.8205 1.99997 15.3657 1.99998 14.8385 2ZM17 11H7V6.2C7 5.62345 7.00078 5.25118 7.02393 4.96784C7.04612 4.69618 7.0838 4.59546 7.10899 4.54601C7.20487 4.35785 7.35785 4.20487 7.54601 4.109C7.59545 4.0838 7.69617 4.04613 7.96784 4.02393C8.25117 4.00078 8.62345 4 9.2 4H14.8C15.3766 4 15.7488 4.00078 16.0322 4.02393C16.3038 4.04613 16.4045 4.0838 16.454 4.109C16.6422 4.20487 16.7951 4.35785 16.891 4.54601C16.9162 4.59546 16.9539 4.69618 16.9761 4.96784C16.9992 5.25118 17 5.62345 17 6.2V11Z" fill="#0000CC"/>
<path d="M12 14C9.79086 14 8 15.7909 8 18C8 20.2091 9.79086 22 12 22C14.2091 22 16 20.2091 16 18C16 15.7909 14.2091 14 12 14Z" fill="#0000CC"/>
</svg>
