<svg width="24" height="24" viewBox="0 0 24 24" fill="none" xmlns="http://www.w3.org/2000/svg">
<path opacity="0.3" fill-rule="evenodd" clip-rule="evenodd" d="M6.16146 3H17.8385C18.3657 2.99998 18.8205 2.99997 19.195 3.03057C19.5904 3.06287 19.9836 3.13419 20.362 3.32698C20.9265 3.6146 21.3854 4.07354 21.673 4.63803C21.8658 5.01641 21.9371 5.40963 21.9694 5.80497C22 6.17954 22 6.6343 22 7.16144V14H20V7.2C20 6.62345 19.9992 6.25118 19.9761 5.96784C19.9539 5.69617 19.9162 5.59546 19.891 5.54601C19.7951 5.35785 19.6422 5.20487 19.454 5.109C19.4045 5.0838 19.3038 5.04612 19.0322 5.02393C18.7488 5.00078 18.3766 5 17.8 5H6.2C5.62345 5 5.25117 5.00078 4.96784 5.02393C4.69617 5.04612 4.59545 5.0838 4.54601 5.109C4.35785 5.20487 4.20487 5.35785 4.10899 5.54601C4.0838 5.59546 4.04612 5.69617 4.02393 5.96784C4.00078 6.25117 4 6.62345 4 7.2V14H2V7.16146C1.99998 6.63431 1.99997 6.17955 2.03057 5.80497C2.06287 5.40963 2.13419 5.01641 2.32698 4.63803C2.6146 4.07354 3.07354 3.6146 3.63803 3.32698C4.01641 3.13419 4.40963 3.06287 4.80497 3.03057C5.17954 2.99997 5.63431 2.99998 6.16146 3Z" fill="#0000CC"/>
<path d="M3.26607 14.9999L3.33362 15H20.667L20.7345 14.9999L20.7345 14.9999C20.9693 14.9992 21.2571 14.9983 21.5179 15.0682C22.2081 15.2531 22.7472 15.7922 22.9321 16.4824C23.002 16.7432 23.0011 17.031 23.0004 17.2658V17.2658L23.0003 17.3334L23.0004 17.4452C23.0009 17.9529 23.0014 18.391 22.8981 18.7765C22.6207 19.8118 21.812 20.6204 20.7767 20.8978C20.3912 21.0011 19.9532 21.0007 19.4455 21.0001L19.3336 21H4.66695L4.55511 21.0001C4.04739 21.0007 3.60936 21.0011 3.22383 20.8978C2.18855 20.6204 1.37991 19.8118 1.10251 18.7765C0.999208 18.391 0.999672 17.9529 1.00021 17.4452L1.00029 17.3334L1.00015 17.2658C0.999434 17.031 0.998557 16.7432 1.06844 16.4824C1.25337 15.7922 1.79246 15.2531 2.48265 15.0682C2.74343 14.9983 3.03124 14.9992 3.26606 14.9999L3.26607 14.9999Z" fill="#0000CC"/>
</svg>
