<svg width="24" height="24" viewBox="0 0 24 24" fill="none" xmlns="http://www.w3.org/2000/svg">
<g opacity="0.3">
<path d="M16.9056 18.3199C15.7991 19.18 14.4607 19.756 13 19.9381V21H16C16.5523 21 17 21.4477 17 22C17 22.5523 16.5523 23 16 23H8C7.44772 23 7 22.5523 7 22C7 21.4477 7.44772 21 8 21H11V19.9381C7.05369 19.446 4 16.0796 4 12V10C4 9.44772 4.44772 9 5 9C5.55228 9 6 9.44772 6 10V12C6 15.3137 8.68629 18 12 18C13.2958 18 14.4957 17.5892 15.4765 16.8907L16.9056 18.3199Z" fill="#0000CC"/>
<path d="M17.7907 13.5767L19.3584 15.1444C19.7714 14.1792 20 13.1163 20 12V10C20 9.44772 19.5523 9 19 9C18.4477 9 18 9.44772 18 10V12C18 12.5456 17.9272 13.0743 17.7907 13.5767Z" fill="#0000CC"/>
</g>
<path d="M16 11.786L8.14457 3.93055C8.6123 2.24067 10.1613 1 12 1C14.2091 1 16 2.79086 16 5V11.786Z" fill="#0000CC"/>
<path d="M8 12V9.41421L2.29289 3.70711C1.90237 3.31658 1.90237 2.68342 2.29289 2.29289C2.68342 1.90237 3.31658 1.90237 3.70711 2.29289L21.7071 20.2929C22.0976 20.6834 22.0976 21.3166 21.7071 21.7071C21.3166 22.0976 20.6834 22.0976 20.2929 21.7071L14.032 15.4462C13.4365 15.7981 12.7418 16 12 16C9.79086 16 8 14.2091 8 12Z" fill="#0000CC"/>
</svg>
