<svg width="24" height="24" viewBox="0 0 24 24" fill="none" xmlns="http://www.w3.org/2000/svg">
<g opacity="0.3">
<path d="M15.4765 16.8907C14.4957 17.5892 13.2958 18 12 18C8.68629 18 6 15.3137 6 12V10C6 9.44772 5.55228 9 5 9C4.44772 9 4 9.44772 4 10V12C4 16.0796 7.05369 19.446 11 19.9381V21H8C7.44772 21 7 21.4477 7 22C7 22.5523 7.44772 23 8 23H16C16.5523 23 17 22.5523 17 22C17 21.4477 16.5523 21 16 21H13V19.9381C14.4607 19.756 15.7991 19.18 16.9056 18.3199L15.4765 16.8907Z" fill="#0000CC"/>
<path d="M17.7907 13.5767L19.3584 15.1444C19.7714 14.1792 20 13.1163 20 12V10C20 9.44772 19.5523 9 19 9C18.4477 9 18 9.44772 18 10V12C18 12.5456 17.9272 13.0743 17.7907 13.5767Z" fill="#0000CC"/>
</g>
<path d="M13.214 9H16V7H13C12.4477 7 12 6.55228 12 6C12 5.44772 12.4477 5 13 5H16C16 2.79086 14.2091 1 12 1C10.1613 1 8.6123 2.24067 8.14457 3.93055L13.214 9Z" fill="#0000CC"/>
<path d="M8 12V9.41421L2.29289 3.70711C1.90237 3.31658 1.90237 2.68342 2.29289 2.29289C2.68342 1.90237 3.31658 1.90237 3.70711 2.29289L21.7071 20.2929C22.0976 20.6834 22.0976 21.3166 21.7071 21.7071C21.3166 22.0976 20.6834 22.0976 20.2929 21.7071L14.032 15.4462C13.4365 15.7981 12.7418 16 12 16C9.79086 16 8 14.2091 8 12Z" fill="#0000CC"/>
<path d="M16 11.786L15.214 11H16V11.786Z" fill="#0000CC"/>
</svg>
