<svg width="24" height="24" viewBox="0 0 24 24" fill="none" xmlns="http://www.w3.org/2000/svg">
<path opacity="0.3" fill-rule="evenodd" clip-rule="evenodd" d="M5.32698 3.63803C5 4.27976 5 5.11984 5 6.8V17.2C5 18.8802 5 19.7202 5.32698 20.362C5.6146 20.9265 6.07354 21.3854 6.63803 21.673C7.27976 22 8.11984 22 9.8 22H14.2C15.8802 22 16.7202 22 17.362 21.673C17.9265 21.3854 18.3854 20.9265 18.673 20.362C19 19.7202 19 18.8802 19 17.2V6.8C19 5.11984 19 4.27976 18.673 3.63803C18.3854 3.07354 17.9265 2.6146 17.362 2.32698C16.7202 2 15.8802 2 14.2 2H9.8C8.11984 2 7.27976 2 6.63803 2.32698C6.07354 2.6146 5.6146 3.07354 5.32698 3.63803Z" fill="#0000CC"/>
<path fill-rule="evenodd" clip-rule="evenodd" d="M12.8321 9.55481C13.1384 9.09528 13.0142 8.47441 12.5547 8.16806C12.0952 7.8617 11.4743 7.98588 11.168 8.44541L9.16795 11.4454C8.96338 11.7523 8.94431 12.1468 9.11833 12.472C9.29235 12.7971 9.63121 13.0001 10 13.0001H12.1315L11.168 14.4454C10.8616 14.9049 10.9858 15.5258 11.4453 15.8322C11.9048 16.1385 12.5257 16.0143 12.8321 15.5548L14.8321 12.5548C15.0366 12.2479 15.0557 11.8534 14.8817 11.5282C14.7077 11.2031 14.3688 11.0001 14 11.0001H11.8685L12.8321 9.55481Z" fill="#0000CC"/>
</svg>
