<svg width="24" height="24" viewBox="0 0 24 24" fill="none" xmlns="http://www.w3.org/2000/svg">
<path opacity="0.3" fill-rule="evenodd" clip-rule="evenodd" d="M5.32698 3.63803C5 4.27976 5 5.11984 5 6.8V17.2C5 18.8802 5 19.7202 5.32698 20.362C5.6146 20.9265 6.07354 21.3854 6.63803 21.673C7.27976 22 8.11984 22 9.8 22H14.2C15.8802 22 16.7202 22 17.362 21.673C17.9265 21.3854 18.3854 20.9265 18.673 20.362C19 19.7202 19 18.8802 19 17.2V6.8C19 5.11984 19 4.27976 18.673 3.63803C18.3854 3.07354 17.9265 2.6146 17.362 2.32698C16.7202 2 15.8802 2 14.2 2H9.8C8.11984 2 7.27976 2 6.63803 2.32698C6.07354 2.6146 5.6146 3.07354 5.32698 3.63803Z" fill="#0000CC"/>
<path fill-rule="evenodd" clip-rule="evenodd" d="M10.7071 9.29289C10.3166 8.90237 9.68342 8.90237 9.29289 9.29289C8.90237 9.68342 8.90237 10.3166 9.29289 10.7071L10.5858 12L9.29289 13.2929C8.90237 13.6834 8.90237 14.3166 9.29289 14.7071C9.68342 15.0976 10.3166 15.0976 10.7071 14.7071L12 13.4142L13.2929 14.7071C13.6834 15.0976 14.3166 15.0976 14.7071 14.7071C15.0976 14.3166 15.0976 13.6834 14.7071 13.2929L13.4142 12L14.7071 10.7071C15.0976 10.3166 15.0976 9.68342 14.7071 9.29289C14.3166 8.90237 13.6834 8.90237 13.2929 9.29289L12 10.5858L10.7071 9.29289Z" fill="#0000CC"/>
</svg>
