<svg width="24" height="24" viewBox="0 0 24 24" fill="none" xmlns="http://www.w3.org/2000/svg">
<path opacity="0.3" fill-rule="evenodd" clip-rule="evenodd" d="M7.6359 2.35287L7.59635 2.34325C6.80745 2.15132 6.16064 1.99397 5.64608 1.90863C5.13763 1.82432 4.60254 1.77955 4.10143 1.93687C3.37265 2.16566 2.82582 2.59541 2.43125 3.24945C2.16473 3.69123 2.07847 4.1969 2.03909 4.69211C1.99998 5.18384 1.99999 5.80537 2 6.55416V14.4249C2 15.06 2 15.5994 2.02221 16.0409C2.05219 16.6371 2.12527 17.2402 2.43125 17.7474C2.82582 18.4014 3.37266 18.8312 4.10143 19.0599C4.60254 19.2173 5.13763 19.1725 5.64608 19.0882C6.16064 19.0028 6.80745 18.8455 7.59637 18.6536L7.6359 18.6439C9.13398 18.2795 10.7176 17.9984 12 17.9984C13.2824 17.9984 14.866 18.2795 16.3641 18.6439L16.4036 18.6536C17.1926 18.8455 17.8394 19.0028 18.3539 19.0882C18.8624 19.1725 19.3975 19.2173 19.8986 19.0599C20.6273 18.8312 21.1742 18.4014 21.5688 17.7474C21.8747 17.2402 21.9478 16.6371 21.9778 16.0409C22 15.5994 22 15.0601 22 14.425V6.5542C22 5.80539 22 5.18384 21.9609 4.69211C21.9215 4.1969 21.8353 3.69123 21.5688 3.24945C21.1742 2.59541 20.6273 2.16566 19.8986 1.93687C19.3975 1.77955 18.8624 1.82432 18.3539 1.90863C17.8394 1.99397 17.1926 2.15132 16.4036 2.34325L16.3641 2.35287C14.866 2.71731 13.2824 2.99841 12 2.99841C10.7176 2.99841 9.13397 2.71731 7.6359 2.35287ZM20 14.602C19.4288 14.4176 18.7108 14.1975 17.9158 13.9807C16.1343 13.495 13.8747 12.9998 12 12.9998C10.1253 12.9998 7.86568 13.495 6.08424 13.9807C5.28919 14.1975 4.57123 14.4176 4.00003 14.6021L4 6.59759C4 5.79611 4.00075 5.25489 4.03279 4.85211C4.06528 4.44365 4.12277 4.31878 4.14375 4.284C4.28632 4.04769 4.43716 3.92914 4.70048 3.84648C4.73037 3.83709 4.87204 3.80902 5.31887 3.88312C5.75101 3.95478 6.32497 4.09372 7.16314 4.29763C8.71078 4.67412 10.4777 4.99984 12 4.99984C13.5223 4.99984 15.2892 4.67412 16.8369 4.29763C17.675 4.09372 18.249 3.95478 18.6811 3.88312C19.128 3.80902 19.2696 3.83709 19.2995 3.84648C19.5628 3.92914 19.7137 4.04769 19.8563 4.284C19.8772 4.31878 19.9347 4.44365 19.9672 4.85211C19.9992 5.25489 20 5.79611 20 6.59759L20 14.602Z" fill="#0000CC"/>
<path d="M20 14.6021C19.4288 14.4176 18.7108 14.1975 17.9158 13.9807C16.1343 13.495 13.8747 12.9999 12 12.9999C10.1253 12.9999 7.86568 13.495 6.08424 13.9807C5.28919 14.1975 4.57123 14.4176 4.00003 14.6021L4 6.59762C4 5.79614 4.00075 5.25492 4.03279 4.85214C4.06528 4.44368 4.12277 4.31881 4.14375 4.28403C4.28632 4.04772 4.43716 3.92917 4.70048 3.84651C4.73037 3.83712 4.87204 3.80905 5.31887 3.88315C5.75101 3.95481 6.32497 4.09376 7.16314 4.29766C8.71078 4.67415 10.4777 4.99987 12 4.99987C13.5223 4.99987 15.2892 4.67415 16.8369 4.29766C17.675 4.09376 18.249 3.95481 18.6811 3.88315C19.128 3.80905 19.2696 3.83712 19.2995 3.84651C19.5628 3.92917 19.7137 4.04772 19.8563 4.28403C19.8772 4.31881 19.9347 4.44368 19.9672 4.85214C19.9992 5.25492 20 5.79614 20 6.59762L20 14.6021Z" fill="#0000CC"/>
<path d="M15.9999 18.5575C15.3328 18.4029 14.655 18.2677 14 18.169L14 18.1705L14 19.9995H10L10 18.169C9.34499 18.2677 8.66719 18.4029 8 18.5575V19.9995H7C6.44772 19.9995 6 20.4472 6 20.9995C6 21.5518 6.44772 21.9995 7 21.9995H17C17.5523 21.9995 18 21.5518 18 20.9995C18 20.4472 17.5523 19.9995 17 19.9995H16L16 18.5589L15.9999 18.5575Z" fill="#0000CC"/>
</svg>
