<svg width="24" height="24" viewBox="0 0 24 24" fill="none" xmlns="http://www.w3.org/2000/svg">
<path opacity="0.3" fill-rule="evenodd" clip-rule="evenodd" d="M2.32698 3.63803C2 4.27976 2 5.11984 2 6.8V13.2C2 14.8802 2 15.7202 2.32698 16.362C2.6146 16.9265 3.07354 17.3854 3.63803 17.673C4.27976 18 5.11984 18 6.8 18H17.2C18.8802 18 19.7202 18 20.362 17.673C20.9265 17.3854 21.3854 16.9265 21.673 16.362C22 15.7202 22 14.8802 22 13.2V6.8C22 5.11984 22 4.27976 21.673 3.63803C21.3854 3.07354 20.9265 2.6146 20.362 2.32698C19.7202 2 18.8802 2 17.2 2H6.8C5.11984 2 4.27976 2 3.63803 2.32698C3.07354 2.6146 2.6146 3.07354 2.32698 3.63803ZM4.10899 4.54601C4 4.75992 4 5.03995 4 5.6V14H20V5.6C20 5.03995 20 4.75992 19.891 4.54601C19.7951 4.35785 19.6422 4.20487 19.454 4.10899C19.2401 4 18.9601 4 18.4 4H5.6C5.03995 4 4.75992 4 4.54601 4.10899C4.35785 4.20487 4.20487 4.35785 4.10899 4.54601Z" fill="#0000CC"/>
<path d="M4.10899 4.54601C4 4.75992 4 5.03995 4 5.6V14H20V5.6C20 5.03995 20 4.75992 19.891 4.54601C19.7951 4.35785 19.6422 4.20487 19.454 4.10899C19.2401 4 18.9601 4 18.4 4H5.6C5.03995 4 4.75992 4 4.54601 4.10899C4.35785 4.20487 4.20487 4.35785 4.10899 4.54601Z" fill="#0000CC"/>
<path d="M8 19.3472V18H10V19.0787C10.6011 19.0294 11.2669 19 12.0002 19C12.7333 19 13.399 19.0294 14 19.0787V18H16V19.3472C16.3034 19.4058 16.5776 19.4683 16.8236 19.5313C17.385 19.6753 17.9737 19.8424 18.485 20.1254C18.9677 20.3936 19.1426 21.0029 18.8743 21.4856C18.6076 21.9658 18.0038 22.1405 17.5223 21.8784C17.1505 21.6859 16.7294 21.5719 16.3268 21.4687C15.4364 21.2404 14.02 21 12.0002 21C9.98034 21 8.56397 21.2404 7.67356 21.4687C6.89367 21.6686 6.51402 21.8599 6.4796 21.8776L6.47804 21.8784C5.99651 22.1405 5.3928 21.9658 5.12602 21.4856C4.85781 21.0029 5.03176 20.3941 5.51454 20.1258C6.02585 19.8424 6.61515 19.6754 7.17681 19.5313C7.42268 19.4683 7.69678 19.4059 8 19.3472Z" fill="#0000CC"/>
</svg>
