<svg width="24" height="24" viewBox="0 0 24 24" fill="none" xmlns="http://www.w3.org/2000/svg">
<path opacity="0.3" fill-rule="evenodd" clip-rule="evenodd" d="M19 7.75542C19 7.74397 19 7.73258 19 7.72124C19.0001 7.48823 19.0002 7.2773 18.953 7.01364C18.9173 6.81422 18.8285 6.52242 18.7471 6.3369C18.6399 6.09272 18.5501 5.95883 18.4454 5.80279L18.4415 5.79696C17.6407 4.60326 15.5095 2 12 2C8.49059 2 6.35932 4.60326 5.55858 5.79696L5.55466 5.8028C5.44999 5.95883 5.36016 6.09272 5.25299 6.3369C5.17156 6.52242 5.08275 6.81422 5.04703 7.01364C4.9998 7.27729 4.9999 7.48823 5.00001 7.72123C5.00002 7.73257 5.00002 7.74396 5.00002 7.75542V15C5.00002 18.866 8.13403 22 12 22C15.866 22 19 18.866 19 15V7.75542Z" fill="#0000CC"/>
<path d="M5 8H11V2.07238C11.3199 2.02542 11.6532 2 12 2C12.3468 2 12.6801 2.02542 13 2.07238V8H19V10H5V8Z" fill="#0000CC"/>
</svg>
