<svg width="24" height="24" viewBox="0 0 24 24" fill="none" xmlns="http://www.w3.org/2000/svg">
<path opacity="0.3" fill-rule="evenodd" clip-rule="evenodd" d="M5.55858 5.79696C6.35932 4.60326 8.49059 2 12 2C15.5095 2 17.6407 4.60326 18.4415 5.79696L18.4454 5.80279C18.5501 5.95883 18.6399 6.09272 18.7471 6.3369C18.8285 6.52242 18.9173 6.81422 18.953 7.01364C19.0002 7.2773 19.0001 7.48823 19 7.72124C19 7.73258 19 7.74397 19 7.75542V15C19 18.866 15.866 22 12 22C8.13403 22 5.00002 18.866 5.00002 15V7.75542C5.00002 7.74396 5.00002 7.73257 5.00001 7.72123C4.9999 7.48823 4.9998 7.27729 5.04703 7.01364C5.08275 6.81422 5.17156 6.52242 5.25299 6.3369C5.36016 6.09272 5.44999 5.95883 5.55466 5.8028L5.55858 5.79696Z" fill="#0000CC"/>
<path d="M13 2.07238V9C13 9.55229 12.5523 10 12 10C11.4477 10 11 9.55229 11 9V2.07238C11.3199 2.02542 11.6532 2 12 2C12.3468 2 12.6801 2.02542 13 2.07238Z" fill="#0000CC"/>
</svg>
