<svg width="24" height="24" viewBox="0 0 24 24" fill="none" xmlns="http://www.w3.org/2000/svg">
<g opacity="0.3">
<path d="M8.56811 2C8.31573 1.99997 8.06993 1.99994 7.86178 2.01695C7.63318 2.03563 7.36345 2.07969 7.09202 2.21799C6.7157 2.40974 6.40974 2.7157 6.21799 3.09202C6.07969 3.36345 6.03563 3.63318 6.01695 3.86178C5.99994 4.06993 5.99997 4.31572 6 4.56809L6 6.00003H18L18 4.56812C18 4.31574 18.0001 4.06994 17.9831 3.86178C17.9644 3.63318 17.9203 3.36345 17.782 3.09202C17.5903 2.7157 17.2843 2.40974 16.908 2.21799C16.6366 2.07969 16.3668 2.03563 16.1382 2.01695C15.9301 1.99994 15.6843 1.99997 15.4319 2L8.56811 2Z" fill="#0000CC"/>
<path d="M7.86178 14.017C8.06993 13.9999 8.31573 14 8.56811 14H15.4319C15.6843 14 15.9301 13.9999 16.1382 14.017C16.3668 14.0356 16.6366 14.0797 16.908 14.218C17.2843 14.4097 17.5903 14.7157 17.782 15.092C17.9203 15.3634 17.9644 15.6332 17.9831 15.8618C18.0001 16.0699 18 16.3157 18 16.5681V19.4319C18 19.6843 18.0001 19.9301 17.9831 20.1382C17.9644 20.3668 17.9203 20.6366 17.782 20.908C17.5903 21.2843 17.2843 21.5903 16.908 21.782C16.6366 21.9203 16.3668 21.9644 16.1382 21.9831C15.9301 22.0001 15.6843 22 15.4319 22H8.56807C8.3157 22 8.06992 22.0001 7.86178 21.9831C7.63318 21.9644 7.36345 21.9203 7.09202 21.782C6.7157 21.5903 6.40974 21.2843 6.21799 20.908C6.07969 20.6366 6.03563 20.3668 6.01695 20.1382C5.99994 19.9301 5.99997 19.6843 6 19.4319L6 16.5681C5.99997 16.3157 5.99994 16.0699 6.01695 15.8618C6.03563 15.6332 6.07969 15.3634 6.21799 15.092C6.40974 14.7157 6.7157 14.4097 7.09202 14.218C7.36345 14.0797 7.63318 14.0356 7.86178 14.017Z" fill="#0000CC"/>
</g>
<path fill-rule="evenodd" clip-rule="evenodd" d="M17.8385 6H6.16146C5.63435 5.99998 5.17953 5.99997 4.80498 6.03057C4.40963 6.06287 4.01641 6.13419 3.63803 6.32698C3.07355 6.6146 2.6146 7.07355 2.32698 7.63803C2.13419 8.01641 2.06287 8.40963 2.03057 8.80498C1.99997 9.17952 1.99999 9.63429 2 10.1614V14.8386C1.99999 15.3657 1.99997 15.8205 2.03057 16.195C2.06287 16.5904 2.13419 16.9836 2.32698 17.362C2.6146 17.9265 3.07355 18.3854 3.63803 18.673C4.01641 18.8658 4.40963 18.9371 4.80498 18.9694C5.14075 18.9969 5.54097 18.9997 6 19V16.5681C5.99997 16.3157 5.99994 16.0699 6.01695 15.8618C6.03563 15.6332 6.0797 15.3634 6.21799 15.092C6.40974 14.7157 6.7157 14.4097 7.09203 14.218C7.36345 14.0797 7.63318 14.0356 7.86178 14.017C8.06993 13.9999 8.31574 14 8.56811 14H15.4319C15.6843 14 15.9301 13.9999 16.1382 14.017C16.3668 14.0356 16.6366 14.0797 16.908 14.218C17.2843 14.4097 17.5903 14.7157 17.782 15.092C17.9203 15.3634 17.9644 15.6332 17.9831 15.8618C18.0001 16.0699 18 16.3157 18 16.5681V19C18.459 18.9997 18.8593 18.9969 19.195 18.9694C19.5904 18.9371 19.9836 18.8658 20.362 18.673C20.9265 18.3854 21.3854 17.9265 21.673 17.362C21.8658 16.9836 21.9371 16.5904 21.9694 16.195C22 15.8205 22 15.3657 22 14.8386V10.1614C22 9.6343 22 9.17954 21.9694 8.80498C21.9371 8.40963 21.8658 8.01641 21.673 7.63803C21.3854 7.07355 20.9265 6.6146 20.362 6.32698C19.9836 6.13419 19.5904 6.06287 19.195 6.03057C18.8205 5.99997 18.3657 5.99998 17.8385 6ZM6 11C6.55229 11 7 10.5523 7 10C7 9.44772 6.55229 9 6 9C5.44772 9 5 9.44772 5 10C5 10.5523 5.44772 11 6 11Z" fill="#0000CC"/>
</svg>
