<svg width="24" height="24" viewBox="0 0 24 24" fill="none" xmlns="http://www.w3.org/2000/svg">
<g opacity="0.3">
<path d="M17.5 3C17.5 2.44772 17.0523 2 16.5 2C15.9477 2 15.5 2.44772 15.5 3V5C15.5 5.55228 15.9477 6 16.5 6C17.0523 6 17.5 5.55228 17.5 5V3Z" fill="#0000CC"/>
<path d="M12.7071 4.29289C12.3166 3.90237 11.6834 3.90237 11.2929 4.29289C10.9024 4.68342 10.9024 5.31658 11.2929 5.70711L12.2929 6.70711C12.6834 7.09763 13.3166 7.09763 13.7071 6.70711C14.0976 6.31658 14.0976 5.68342 13.7071 5.29289L12.7071 4.29289Z" fill="#0000CC"/>
<path d="M21.7071 4.29289C21.3166 3.90237 20.6834 3.90237 20.2929 4.29289L19.2929 5.29289C18.9024 5.68342 18.9024 6.31658 19.2929 6.70711C19.6834 7.09763 20.3166 7.09763 20.7071 6.70711L21.7071 5.70711C22.0976 5.31658 22.0976 4.68342 21.7071 4.29289Z" fill="#0000CC"/>
<path d="M11 13.5C11 15.7186 12.3136 17.6304 14.2055 18.5H6V21C6 21.5523 5.55228 22 5 22C4.44772 22 4 21.5523 4 21V18.3293C2.83481 17.9175 2 16.8062 2 15.5V12.5C2 10.8431 3.34315 9.5 5 9.5H12.7251C11.6629 10.5028 11 11.924 11 13.5Z" fill="#0000CC"/>
<path d="M17 18.9776C17.7149 18.9132 18.3904 18.7119 19 18.4003V21C19 21.5523 18.5523 22 18 22C17.4477 22 17 21.5523 17 21V18.9776Z" fill="#0000CC"/>
</g>
<path fill-rule="evenodd" clip-rule="evenodd" d="M16.5 8C13.4624 8 11 10.4624 11 13.5C11 16.5376 13.4624 19 16.5 19C19.5376 19 22 16.5376 22 13.5C22 10.4624 19.5376 8 16.5 8ZM13 13.5C13 11.567 14.567 10 16.5 10C18.433 10 20 11.567 20 13.5C20 15.433 18.433 17 16.5 17C14.567 17 13 15.433 13 13.5Z" fill="#0000CC"/>
<path d="M7 14C7 14.5523 6.55228 15 6 15C5.44772 15 5 14.5523 5 14C5 13.4477 5.44772 13 6 13C6.55228 13 7 13.4477 7 14Z" fill="#0000CC"/>
<path d="M9 15C9.55229 15 10 14.5523 10 14C10 13.4477 9.55229 13 9 13C8.44771 13 8 13.4477 8 14C8 14.5523 8.44771 15 9 15Z" fill="#0000CC"/>
</svg>
