<svg width="24" height="24" viewBox="0 0 24 24" fill="none" xmlns="http://www.w3.org/2000/svg">
<path opacity="0.3" d="M7.62473 2.21917C7.19347 1.87416 6.56418 1.94408 6.21917 2.37534C5.87416 2.8066 5.94408 3.4359 6.37534 3.78091L9.14921 6H6.8C5.11984 6 4.27976 6 3.63803 6.32698C3.07354 6.6146 2.6146 7.07354 2.32698 7.63803C2 8.27976 2 9.11984 2 10.8V17.2C2 18.8802 2 19.7202 2.32698 20.362C2.6146 20.9265 3.07354 21.3854 3.63803 21.673C4.27976 22 5.11984 22 6.8 22H17.2C18.8802 22 19.7202 22 20.362 21.673C20.9265 21.3854 21.3854 20.9265 21.673 20.362C22 19.7202 22 18.8802 22 17.2V10.8C22 9.11984 22 8.27976 21.673 7.63803C21.3854 7.07354 20.9265 6.6146 20.362 6.32698C19.7202 6 18.8802 6 17.2 6H14.8509L17.6247 3.78091C18.056 3.4359 18.1259 2.8066 17.7809 2.37534C17.4359 1.94408 16.8066 1.87416 16.3753 2.21917L12 5.71941L7.62473 2.21917Z" fill="#0000CC"/>
<path d="M4.10899 8.54601C4 8.75992 4 9.03995 4 9.6V18.4C4 18.9601 4 19.2401 4.10899 19.454C4.20487 19.6422 4.35785 19.7951 4.54601 19.891C4.75992 20 5.03995 20 5.6 20H14.4C14.9601 20 15.2401 20 15.454 19.891C15.6422 19.7951 15.7951 19.6422 15.891 19.454C16 19.2401 16 18.9601 16 18.4V9.6C16 9.03995 16 8.75992 15.891 8.54601C15.7951 8.35785 15.6422 8.20487 15.454 8.10899C15.2401 8 14.9601 8 14.4 8H5.6C5.03995 8 4.75992 8 4.54601 8.10899C4.35785 8.20487 4.20487 8.35785 4.10899 8.54601Z" fill="#0000CC"/>
<path d="M19 12C19.5523 12 20 11.5523 20 11C20 10.4477 19.5523 10 19 10C18.4477 10 18 10.4477 18 11C18 11.5523 18.4477 12 19 12Z" fill="#0000CC"/>
<path d="M20 14C20 14.5523 19.5523 15 19 15C18.4477 15 18 14.5523 18 14C18 13.4477 18.4477 13 19 13C19.5523 13 20 13.4477 20 14Z" fill="#0000CC"/>
<path d="M19 18C19.5523 18 20 17.5523 20 17C20 16.4477 19.5523 16 19 16C18.4477 16 18 16.4477 18 17C18 17.5523 18.4477 18 19 18Z" fill="#0000CC"/>
</svg>
