<svg width="24" height="24" viewBox="0 0 24 24" fill="none" xmlns="http://www.w3.org/2000/svg">
<g opacity="0.3">
<path d="M14.7565 1.09789C15.1582 0.967371 15.5909 0.967371 15.9925 1.09789C16.2823 1.19202 16.5042 1.35159 16.679 1.50003C16.8382 1.63519 17.012 1.80901 17.1904 1.98749L22.0439 6.84093C22.2223 7.01936 22.3962 7.19316 22.5313 7.35237C22.6798 7.52721 22.8393 7.7491 22.9335 8.03882C23.064 8.44051 23.064 8.8732 22.9335 9.27489C22.8393 9.5646 22.6798 9.78649 22.5313 9.96134C22.3962 10.1206 22.2224 10.2943 22.0439 10.4728L19.3118 13.2049C19.153 13.3637 18.9979 13.5189 18.8534 13.6464C18.786 13.5397 18.7129 13.4459 18.6423 13.3627C18.5072 13.2035 18.3333 13.0297 18.1548 12.8513L11.1801 5.87654C11.0017 5.69805 10.8279 5.52423 10.6687 5.38906C10.5855 5.31846 10.4917 5.24534 10.385 5.17794C10.5125 5.03351 10.6676 4.8784 10.8265 4.71961L13.5586 1.98749C13.737 1.80901 13.9108 1.63519 14.07 1.50003C14.2449 1.35159 14.4668 1.19202 14.7565 1.09789Z" fill="#0000CC"/>
<path d="M3.10973 14.5815L3.11613 14.576C3.24676 14.7781 3.3966 14.9721 3.5604 15.165C3.91181 15.579 4.3816 16.0487 4.9508 16.6179L7.41339 19.0805C7.98255 19.6497 8.45235 20.1195 8.86628 20.4709C9.05919 20.6347 9.25312 20.7845 9.45512 20.9151L9.44972 20.9215C9.31456 21.0807 9.14074 21.2545 8.96227 21.4329L8.35145 22.0437C8.17301 22.2222 7.99924 22.396 7.84002 22.5312C7.66517 22.6796 7.44328 22.8392 7.15357 22.9333C6.75188 23.0638 6.31919 23.0638 5.9175 22.9333C5.62778 22.8392 5.40589 22.6796 5.23105 22.5312C5.07183 22.396 4.89804 22.2222 4.7196 22.0437L1.98749 19.3116C1.80903 19.1332 1.63517 18.9593 1.50002 18.8001C1.35159 18.6253 1.19202 18.4034 1.09789 18.1137C0.967371 17.712 0.967371 17.2793 1.09789 16.8776C1.19202 16.5879 1.35159 16.366 1.50003 16.1912C1.63519 16.032 1.80901 15.8582 1.98749 15.6797L2.59829 15.0689C2.77673 14.8905 2.95051 14.7166 3.10973 14.5815Z" fill="#0000CC"/>
</g>
<path d="M9.98162 4.98705C9.57993 4.85653 9.14724 4.85653 8.74555 4.98705C8.45583 5.08118 8.23394 5.24075 8.0591 5.38919C7.89988 5.52435 7.7261 5.69817 7.54766 5.87666L4.95032 8.474C4.38112 9.04318 3.91132 9.51296 3.55991 9.92691C3.19492 10.3568 2.89925 10.7919 2.73093 11.3099C2.4699 12.1133 2.4699 12.9787 2.73093 13.7821C2.89925 14.3001 3.19492 14.7352 3.55991 15.1651C3.91133 15.5791 4.38111 16.0488 4.95031 16.618L7.4129 19.0806C7.98207 19.6498 8.45186 20.1196 8.86579 20.471C9.29573 20.836 9.73079 21.1317 10.2488 21.3C11.0522 21.561 11.9176 21.561 12.721 21.3C13.239 21.1317 13.6741 20.836 14.104 20.471C14.518 20.1196 14.9877 19.6498 15.5569 19.0806L18.1543 16.4833C18.3327 16.3048 18.5066 16.131 18.6417 15.9718C18.7902 15.797 18.9497 15.5751 19.0439 15.2854C19.1744 14.8837 19.1744 14.451 19.0439 14.0493C18.9497 13.7596 18.7902 13.5377 18.6417 13.3628C18.5066 13.2036 18.3327 13.0298 18.1542 12.8514L11.1795 5.87666C11.0011 5.69818 10.8273 5.52435 10.6681 5.38919C10.4932 5.24075 10.2713 5.08118 9.98162 4.98705Z" fill="#0000CC"/>
<path d="M16.4345 6.88924C16.825 6.49871 16.825 5.86555 16.4345 5.47502C16.044 5.0845 15.4108 5.0845 15.0203 5.47502L14.3132 6.18213C13.9226 6.57265 13.9226 7.20582 14.3132 7.59634C14.7037 7.98687 15.3368 7.98687 15.7274 7.59634L16.4345 6.88924Z" fill="#0000CC"/>
<path d="M18.5558 9.01056C18.9463 8.62003 18.9463 7.98687 18.5558 7.59634C18.1653 7.20582 17.5321 7.20582 17.1416 7.59634L16.4345 8.30345C16.044 8.69397 16.044 9.32714 16.4345 9.71766C16.825 10.1082 17.4582 10.1082 17.8487 9.71766L18.5558 9.01056Z" fill="#0000CC"/>
</svg>
