<svg width="24" height="24" viewBox="0 0 24 24" fill="none" xmlns="http://www.w3.org/2000/svg">
<g opacity="0.3">
<path d="M8.99968 2C8.53062 2 8.1246 2.32602 8.02329 2.78401L7.08789 7.01255C7.08789 7.01252 7.0879 7.01258 7.08789 7.01255C8.35154 5.76792 10.086 5 11.9998 5C13.9174 5 15.655 5.77111 16.9192 7.02018L15.9758 2.78267C15.874 2.32533 15.4682 2 14.9997 2H8.99968Z" fill="#0000CC"/>
<path d="M7.09596 16.9953C8.35891 18.2352 10.09 19 11.9998 19C13.9113 19 15.6439 18.2338 16.9072 16.9917L15.9758 21.2153C15.8747 21.6736 15.4686 22 14.9993 22H8.99926C8.52963 22 8.12327 21.6732 8.02253 21.2145L7.09596 16.9953C7.09597 16.9952 7.09595 16.9953 7.09596 16.9953Z" fill="#0000CC"/>
</g>
<path fill-rule="evenodd" clip-rule="evenodd" d="M12 19C15.866 19 19 15.866 19 12C19 8.13401 15.866 5 12 5C8.13401 5 5 8.13401 5 12C5 15.866 8.13401 19 12 19ZM13 9.5C13 8.94771 12.5523 8.5 12 8.5C11.4477 8.5 11 8.94771 11 9.5V12C11 12.3148 11.1482 12.6111 11.4 12.8L13.4 14.3C13.8418 14.6314 14.4686 14.5418 14.8 14.1C15.1314 13.6582 15.0418 13.0314 14.6 12.7L13 11.5V9.5Z" fill="#0000CC"/>
</svg>
