<svg width="24" height="24" viewBox="0 0 24 24" fill="none" xmlns="http://www.w3.org/2000/svg">
<g opacity="0.3">
<path d="M6.05383 4.64798C4.77708 6.06554 4 7.94202 4 10C4 14.4183 7.58172 18 12 18C14.058 18 15.9345 17.2229 17.352 15.9462L14.5158 13.11C13.8286 13.6666 12.9532 14 12 14C9.79086 14 8 12.2091 8 10C8 9.04676 8.33344 8.1714 8.89005 7.4842L6.05383 4.64798Z" fill="#0000CC"/>
<path d="M15.7164 11.4821C15.8994 11.0238 16 10.5236 16 10C16 7.79086 14.2091 6 12 6C11.4764 6 10.9762 6.10062 10.5179 6.28358L7.57107 3.33679C8.83919 2.49221 10.3621 2 12 2C16.4183 2 20 5.58172 20 10C20 11.6379 19.5078 13.1608 18.6632 14.4289L15.7164 11.4821Z" fill="#0000CC"/>
</g>
<path d="M3.70711 2.29289C3.31658 1.90237 2.68342 1.90237 2.29289 2.29289C1.90237 2.68342 1.90237 3.31658 2.29289 3.70711L20.2929 21.7071C20.6834 22.0976 21.3166 22.0976 21.7071 21.7071C22.0976 21.3166 22.0976 20.6834 21.7071 20.2929L3.70711 2.29289Z" fill="#0000CC"/>
<path d="M13.9846 9.75022C13.8719 8.84532 13.1546 8.12809 12.2497 8.01538L13.9846 9.75022Z" fill="#0000CC"/>
<path d="M12 17.9999C12.3387 17.9999 12.6724 17.9789 13 17.9381V19.9999H17C17.5523 19.9999 18 20.4477 18 20.9999C18 21.5522 17.5523 21.9999 17 21.9999H7C6.44771 21.9999 6 21.5522 6 20.9999C6 20.4477 6.44772 19.9999 7 19.9999H11V17.9381C11.3276 17.9789 11.6613 17.9999 12 17.9999Z" fill="#0000CC"/>
</svg>
