<svg width="24" height="24" viewBox="0 0 24 24" fill="none" xmlns="http://www.w3.org/2000/svg">
<g opacity="0.3">
<path d="M6.53332 5.12747C5.57384 6.32549 5 7.84573 5 9.5C5 13.366 8.13401 16.5 12 16.5C13.6543 16.5 15.1745 15.9262 16.3725 14.9667L14.2282 12.8224C13.5914 13.2503 12.8249 13.5 12 13.5C9.79086 13.5 8 11.7091 8 9.5C8 8.67512 8.24969 7.90855 8.67761 7.27176L6.53332 5.12747Z" fill="#0000CC"/>
<path d="M15.56 11.3257C15.8413 10.7784 16 10.1577 16 9.5C16 7.29086 14.2091 5.5 12 5.5C11.3423 5.5 10.7216 5.65874 10.1743 5.94001L7.99351 3.75922C9.12857 2.96559 10.5099 2.5 12 2.5C15.866 2.5 19 5.63401 19 9.5C19 10.9901 18.5344 12.3714 17.7408 13.5065L15.56 11.3257Z" fill="#0000CC"/>
</g>
<path d="M3.70711 2.29289C3.31658 1.90237 2.68342 1.90237 2.29289 2.29289C1.90237 2.68342 1.90237 3.31658 2.29289 3.70711L16.0999 17.5141C14.8703 18.1444 13.4767 18.5 12 18.5C9.04682 18.5 6.42584 17.0777 4.78479 14.8806L2.96786 17.4243C2.69771 17.8025 2.45614 18.1406 2.28839 18.4275C2.12197 18.7122 1.92713 19.1073 1.94444 19.5741C1.96644 20.1675 2.25099 20.7204 2.72108 21.0832C3.09089 21.3687 3.52563 21.4398 3.85399 21.4698C4.18493 21.5 4.60053 21.5 5.06525 21.5H18.9345C19.3611 21.5 19.7461 21.5 20.0624 21.4766L20.2929 21.7071C20.6834 22.0976 21.3166 22.0976 21.7071 21.7071C22.0976 21.3166 22.0976 20.6834 21.7071 20.2929L3.70711 2.29289Z" fill="#0000CC"/>
<path d="M13.9845 9.75022L11.7498 7.5155C11.8318 7.50527 11.9153 7.5 12 7.5C13.1046 7.5 14 8.39543 14 9.5C14 9.58474 13.9947 9.66825 13.9845 9.75022Z" fill="#0000CC"/>
</svg>
