<svg width="24" height="24" viewBox="0 0 24 24" fill="none" xmlns="http://www.w3.org/2000/svg">
<path opacity="0.3" fill-rule="evenodd" clip-rule="evenodd" d="M9 7C5.68629 7 3 9.68629 3 13C3 16.3137 5.68629 19 9 19H15C18.3137 19 21 16.3137 21 13C21 9.68629 18.3137 7 15 7H9ZM12 17C14.2091 17 16 15.2091 16 13C16 10.7909 14.2091 9 12 9C9.79086 9 8 10.7909 8 13C8 15.2091 9.79086 17 12 17Z" fill="#0000CC"/>
<path d="M13.0002 3C13.0002 2.44772 12.5525 2 12.0002 2C11.4479 2 11.0002 2.44772 11.0002 3V5C11.0002 5.55228 11.4479 6 12.0002 6C12.5525 6 13.0002 5.55228 13.0002 5V3Z" fill="#0000CC"/>
<path d="M8.39465 3.55279C8.14766 3.05881 7.54698 2.85858 7.05301 3.10557C6.55903 3.35256 6.3588 3.95324 6.60579 4.44721L7.10579 5.44721C7.35278 5.94119 7.95345 6.14142 8.44743 5.89443C8.94141 5.64744 9.14164 5.04676 8.89465 4.55279L8.39465 3.55279Z" fill="#0000CC"/>
<path d="M17.3946 4.44721C17.6416 3.95324 17.4414 3.35256 16.9474 3.10557C16.4535 2.85858 15.8528 3.05881 15.6058 3.55279L15.1058 4.55279C14.8588 5.04676 15.059 5.64744 15.553 5.89443C16.047 6.14142 16.6477 5.94119 16.8946 5.44721L17.3946 4.44721Z" fill="#0000CC"/>
<path d="M14 19H15C15.3407 19 15.6748 18.9716 16 18.917V20H17C17.5523 20 18 20.4477 18 21C18 21.5522 17.5523 22 17 22H7C6.44772 22 6 21.5522 6 21C6 20.4477 6.44772 20 7 20H8V18.917C8.32521 18.9716 8.65929 19 9 19H10V20H14V19Z" fill="#0000CC"/>
<path d="M14 13C14 14.1046 13.1046 15 12 15C10.8954 15 10 14.1046 10 13C10 11.8954 10.8954 11 12 11C13.1046 11 14 11.8954 14 13Z" fill="#0000CC"/>
</svg>
