<svg width="24" height="24" viewBox="0 0 24 24" fill="none" xmlns="http://www.w3.org/2000/svg">
<path opacity="0.3" fill-rule="evenodd" clip-rule="evenodd" d="M2 8V17.8385C1.99998 18.3657 1.99997 18.8205 2.03057 19.195C2.06287 19.5904 2.13419 19.9836 2.32698 20.362C2.6146 20.9265 3.07355 21.3854 3.63803 21.673C4.01641 21.8658 4.40963 21.9371 4.80498 21.9694C5.17954 22 5.6343 22 6.16144 22H17.8386C18.3657 22 18.8205 22 19.195 21.9694C19.5904 21.9371 19.9836 21.8658 20.362 21.673C20.9265 21.3854 21.3854 20.9265 21.673 20.362C21.8658 19.9836 21.9371 19.5904 21.9694 19.195C22 18.8205 22 18.3657 22 17.8386V8H2Z" fill="#0000CC"/>
<path d="M7.99997 3C7.99997 2.44772 7.55226 2 6.99997 2C6.44769 2 5.99997 2.44772 5.99997 3V4.00003C5.54094 4.00031 5.14072 4.00314 4.80495 4.03057C4.4096 4.06287 4.01638 4.13419 3.638 4.32698C3.07352 4.6146 2.61457 5.07354 2.32695 5.63803C2.13416 6.01641 2.06284 6.40963 2.03054 6.80497C2.00311 7.14075 2.00028 7.54097 2 8H21.9999C21.9997 7.54097 21.9968 7.14075 21.9694 6.80497C21.9371 6.40963 21.8658 6.01641 21.673 5.63803C21.3854 5.07354 20.9264 4.6146 20.3619 4.32698C19.9836 4.13419 19.5903 4.06287 19.195 4.03057C18.8592 4.00314 18.459 4.00031 18 4.00003V3C18 2.44772 17.5523 2 17 2C16.4477 2 16 2.44772 16 3V4H7.99997V3Z" fill="#0000CC"/>
<path d="M5 12C4.44772 12 4 12.4477 4 13C4 13.5523 4.44772 14 5 14H7C7.55229 14 8 13.5523 8 13C8 12.4477 7.55229 12 7 12H5Z" fill="#0000CC"/>
<path d="M11 12C10.4477 12 10 12.4477 10 13C10 13.5523 10.4477 14 11 14H13C13.5523 14 14 13.5523 14 13C14 12.4477 13.5523 12 13 12H11Z" fill="#0000CC"/>
<path d="M17 12C16.4477 12 16 12.4477 16 13C16 13.5523 16.4477 14 17 14H19C19.5523 14 20 13.5523 20 13C20 12.4477 19.5523 12 19 12H17Z" fill="#0000CC"/>
<path d="M5 16C4.44772 16 4 16.4477 4 17C4 17.5523 4.44772 18 5 18H7C7.55229 18 8 17.5523 8 17C8 16.4477 7.55229 16 7 16H5Z" fill="#0000CC"/>
<path d="M11 16C10.4477 16 10 16.4477 10 17C10 17.5523 10.4477 18 11 18H13C13.5523 18 14 17.5523 14 17C14 16.4477 13.5523 16 13 16H11Z" fill="#0000CC"/>
<path d="M17 16C16.4477 16 16 16.4477 16 17C16 17.5523 16.4477 18 17 18H19C19.5523 18 20 17.5523 20 17C20 16.4477 19.5523 16 19 16H17Z" fill="#0000CC"/>
</svg>
