<svg width="24" height="24" viewBox="0 0 24 24" fill="none" xmlns="http://www.w3.org/2000/svg">
<path opacity="0.3" fill-rule="evenodd" clip-rule="evenodd" d="M8 3C8 2.44772 7.55229 2 7 2C6.44772 2 6 2.44772 6 3V4.00003C5.54097 4.00031 5.14075 4.00314 4.80497 4.03057C4.40963 4.06287 4.01641 4.13419 3.63803 4.32698C3.07354 4.6146 2.6146 5.07354 2.32698 5.63803C2.13419 6.01641 2.06287 6.40963 2.03057 6.80497C1.99997 7.17953 1.99998 7.63429 2 8.16142V17.8385C1.99998 18.3657 1.99997 18.8205 2.03057 19.195C2.06287 19.5904 2.13419 19.9836 2.32698 20.362C2.6146 20.9265 3.07355 21.3854 3.63803 21.673C4.01641 21.8658 4.40963 21.9371 4.80497 21.9694C5.17954 22 5.6343 22 6.16144 22H17.8386C18.3657 22 18.8205 22 19.195 21.9694C19.5904 21.9371 19.9836 21.8658 20.362 21.673C20.9265 21.3854 21.3854 20.9265 21.673 20.362C21.8658 19.9836 21.9371 19.5904 21.9694 19.195C22 18.8205 22 18.3657 22 17.8386V8.16143C22 7.63429 22 7.17954 21.9694 6.80497C21.9371 6.40963 21.8658 6.01641 21.673 5.63803C21.3854 5.07354 20.9265 4.6146 20.362 4.32698C19.9836 4.13419 19.5904 4.06287 19.195 4.03057C18.8593 4.00314 18.459 4.00031 18 4.00003V3C18 2.44772 17.5523 2 17 2C16.4477 2 16 2.44772 16 3V4H8V3Z" fill="#0000CC"/>
<path fill-rule="evenodd" clip-rule="evenodd" d="M9.70711 9.29289C9.31658 8.90237 8.68342 8.90237 8.29289 9.29289C7.90237 9.68342 7.90237 10.3166 8.29289 10.7071L10.5858 13L8.29289 15.2929C7.90237 15.6834 7.90237 16.3166 8.29289 16.7071C8.68342 17.0976 9.31658 17.0976 9.70711 16.7071L12 14.4142L14.2929 16.7071C14.6834 17.0976 15.3166 17.0976 15.7071 16.7071C16.0976 16.3166 16.0976 15.6834 15.7071 15.2929L13.4142 13L15.7071 10.7071C16.0976 10.3166 16.0976 9.68342 15.7071 9.29289C15.3166 8.90237 14.6834 8.90237 14.2929 9.29289L12 11.5858L9.70711 9.29289Z" fill="#0000CC"/>
</svg>
