<svg width="24" height="24" viewBox="0 0 24 24" fill="none" xmlns="http://www.w3.org/2000/svg">
<g opacity="0.3">
<path d="M6.00001 3C6.00001 2.44772 5.55229 2 5.00001 2C4.44772 2 4.00001 2.44772 4.00001 3V4.01762C3.93277 4.02117 3.86775 4.02544 3.80498 4.03057C3.40963 4.06287 3.01641 4.13419 2.63803 4.32698C2.07355 4.6146 1.61461 5.07354 1.32699 5.63803C1.13419 6.01641 1.06288 6.40963 1.03057 6.80497C1.00314 7.14075 1.00031 7.54097 1.00003 8H18C17.9997 7.54097 17.9969 7.14075 17.9694 6.80497C17.9371 6.40963 17.8658 6.01641 17.673 5.63803C17.3854 5.07354 16.9265 4.6146 16.362 4.32698C15.9836 4.13419 15.5904 4.06287 15.195 4.03057C15.1323 4.02544 15.0672 4.02117 15 4.01762V3C15 2.44772 14.5523 2 14 2C13.4477 2 13 2.44772 13 3V4H6.00001V3Z" fill="#0000CC"/>
<path d="M1 15.8385V10H11.7084C10.0475 11.4659 9 13.6106 9 16C9 17.4571 9.38958 18.8233 10.0703 20H5.16144C4.6343 20 4.17954 20 3.80498 19.9694C3.40963 19.9371 3.01641 19.8658 2.63803 19.673C2.07355 19.3854 1.61461 18.9265 1.32699 18.362C1.13419 17.9836 1.06288 17.5904 1.03057 17.195C0.999974 16.8205 0.999987 16.3656 1 15.8385Z" fill="#0000CC"/>
</g>
<path fill-rule="evenodd" clip-rule="evenodd" d="M17 10C13.6863 10 11 12.6863 11 16C11 19.3137 13.6863 22 17 22C20.3137 22 23 19.3137 23 16C23 12.6863 20.3137 10 17 10ZM17 12.5C17.5523 12.5 18 12.9477 18 13.5V16C18 16.5523 17.5523 17 17 17C16.4477 17 16 16.5523 16 16V13.5C16 12.9477 16.4477 12.5 17 12.5ZM18 18.5C18 19.0523 17.5523 19.5 17 19.5C16.4477 19.5 16 19.0523 16 18.5C16 17.9477 16.4477 17.5 17 17.5C17.5523 17.5 18 17.9477 18 18.5Z" fill="#0000CC"/>
</svg>
