<svg width="24" height="24" viewBox="0 0 24 24" fill="none" xmlns="http://www.w3.org/2000/svg">
<path opacity="0.3" fill-rule="evenodd" clip-rule="evenodd" d="M7 2C7.55229 2 8 2.44772 8 3V4H16V3C16 2.44772 16.4477 2 17 2C17.5523 2 18 2.44772 18 3V4.00003C18.459 4.00031 18.8593 4.00314 19.195 4.03057C19.5904 4.06287 19.9836 4.13419 20.362 4.32698C20.9265 4.6146 21.3854 5.07354 21.673 5.63803C21.8658 6.01641 21.9371 6.40963 21.9694 6.80497C22 7.17954 22 7.63429 22 8.16143V17.8386C22 18.3657 22 18.8205 21.9694 19.195C21.9371 19.5904 21.8658 19.9836 21.673 20.362C21.3854 20.9265 20.9265 21.3854 20.362 21.673C19.9836 21.8658 19.5904 21.9371 19.195 21.9694C18.8205 22 18.3657 22 17.8386 22H6.16144C5.6343 22 5.17954 22 4.80498 21.9694C4.40963 21.9371 4.01641 21.8658 3.63803 21.673C3.07355 21.3854 2.61461 20.9265 2.32699 20.362C2.13419 19.9836 2.06288 19.5904 2.03057 19.195C1.99997 18.8205 1.99999 18.3657 2 17.8386V8.16138C1.99999 7.6343 1.99997 7.17951 2.03057 6.80497C2.06288 6.40963 2.13419 6.01641 2.32699 5.63803C2.61461 5.07354 3.07355 4.6146 3.63803 4.32698C4.01641 4.13419 4.40963 4.06287 4.80498 4.03057C5.14075 4.00314 5.54097 4.00031 6 4.00003V3C6 2.44772 6.44772 2 7 2Z" fill="#0000CC"/>
<path fill-rule="evenodd" clip-rule="evenodd" d="M13 9C13 8.44772 12.5523 8 12 8C11.4477 8 11 8.44772 11 9V12.0004L8.00014 12C7.44785 11.9999 7.00008 12.4476 7 12.9999C6.99992 13.5521 7.44758 13.9999 7.99986 14L11 14.0004V17C11 17.5523 11.4477 18 12 18C12.5523 18 13 17.5523 13 17V14.0007L15.9999 14.0011C16.5521 14.0012 16.9999 13.5535 17 13.0012C17.0001 12.4489 16.5524 12.0012 16.0001 12.0011L13 12.0007V9Z" fill="#0000CC"/>
</svg>
