<svg width="24" height="24" viewBox="0 0 24 24" fill="none" xmlns="http://www.w3.org/2000/svg">
<path opacity="0.3" fill-rule="evenodd" clip-rule="evenodd" d="M8 3C8 2.44772 7.55229 2 7 2C6.44772 2 6 2.44772 6 3V4.00003C5.54097 4.00031 5.14075 4.00314 4.80498 4.03057C4.40963 4.06287 4.01641 4.13419 3.63803 4.32698C3.07355 4.6146 2.6146 5.07354 2.32698 5.63803C2.13419 6.01641 2.06287 6.40963 2.03057 6.80497C1.99997 7.17952 1.99999 7.63428 2 8.16138V17.8386C1.99999 18.3657 1.99997 18.8205 2.03057 19.195C2.06287 19.5904 2.13419 19.9836 2.32698 20.362C2.61461 20.9265 3.07355 21.3854 3.63803 21.673C4.01641 21.8658 4.40963 21.9371 4.80498 21.9694C5.17954 22 5.6343 22 6.16144 22H17.8386C18.3657 22 18.8205 22 19.195 21.9694C19.5904 21.9371 19.9836 21.8658 20.362 21.673C20.9265 21.3854 21.3854 20.9265 21.673 20.362C21.8658 19.9836 21.9371 19.5904 21.9694 19.195C22 18.8205 22 18.3657 22 17.8386V8.16143C22 7.63429 22 7.17954 21.9694 6.80497C21.9371 6.40963 21.8658 6.01641 21.673 5.63803C21.3854 5.07354 20.9265 4.6146 20.362 4.32698C19.9836 4.13419 19.5904 4.06287 19.195 4.03057C18.8593 4.00314 18.459 4.00031 18 4.00003V3C18 2.44772 17.5523 2 17 2C16.4477 2 16 2.44772 16 3V4H8V3Z" fill="#0000CC"/>
<path fill-rule="evenodd" clip-rule="evenodd" d="M15.5913 9.41251C15.0451 8.8625 14.1596 8.8625 13.6134 9.4125L9.66561 13.3878C9.20523 13.8514 8.97503 14.0832 8.78912 14.346C8.62407 14.5793 8.48525 14.8303 8.37521 15.0944C8.25125 15.3919 8.17676 15.711 8.02776 16.3492L8.01401 16.4081C7.93447 16.7488 8.23113 17.0584 8.57214 16.9906C9.25379 16.8549 9.59461 16.7871 9.91244 16.6622C10.1945 16.5513 10.4626 16.4072 10.7111 16.2329C10.9911 16.0366 11.2368 15.7892 11.7281 15.2944L15.5913 11.4043C16.1375 10.8542 16.1375 9.96251 15.5913 9.41251Z" fill="#0000CC"/>
</svg>
