<svg width="24" height="24" viewBox="0 0 24 24" fill="none" xmlns="http://www.w3.org/2000/svg">
<g opacity="0.3">
<path d="M2 7C2 6.44772 2.44772 6 3 6H11C11.5523 6 12 6.44772 12 7C12 7.55228 11.5523 8 11 8H3C2.44772 8 2 7.55228 2 7Z" fill="#0000CC"/>
<path d="M2 11C2 10.4477 2.44772 10 3 10H11C11.5523 10 12 10.4477 12 11C12 11.5523 11.5523 12 11 12H3C2.44772 12 2 11.5523 2 11Z" fill="#0000CC"/>
<path d="M3 14C2.44772 14 2 14.4477 2 15C2 15.5523 2.44772 16 3 16H21C21.5523 16 22 15.5523 22 15C22 14.4477 21.5523 14 21 14H3Z" fill="#0000CC"/>
<path d="M2 19C2 18.4477 2.44772 18 3 18H15C15.5523 18 16 18.4477 16 19C16 19.5523 15.5523 20 15 20H3C2.44772 20 2 19.5523 2 19Z" fill="#0000CC"/>
</g>
<path d="M14 7.2C14 6.0799 14 5.51984 14.218 5.09202C14.4097 4.71569 14.7157 4.40973 15.092 4.21799C15.5198 4 16.0799 4 17.2 4H18.8C19.9201 4 20.4802 4 20.908 4.21799C21.2843 4.40973 21.5903 4.71569 21.782 5.09202C22 5.51984 22 6.0799 22 7.2V8.8C22 9.9201 22 10.4802 21.782 10.908C21.5903 11.2843 21.2843 11.5903 20.908 11.782C20.4802 12 19.9201 12 18.8 12H17.2C16.0799 12 15.5198 12 15.092 11.782C14.7157 11.5903 14.4097 11.2843 14.218 10.908C14 10.4802 14 9.9201 14 8.8V7.2Z" fill="#0000CC"/>
</svg>
