<svg width="24" height="24" viewBox="0 0 24 24" fill="none" xmlns="http://www.w3.org/2000/svg">
<path fill-rule="evenodd" clip-rule="evenodd" d="M6.03642 2.26291C6.63406 1.92311 7.36646 1.92311 7.96409 2.26291C8.25349 2.42746 8.43894 2.66807 8.55937 2.86543C8.68215 3.06665 8.78062 3.29549 8.86564 3.5236C9.03075 3.96657 9.20324 4.57033 9.41089 5.29718L9.4233 5.34059L10.9618 10.7253C11.1135 11.2563 10.806 11.8098 10.275 11.9615C9.74394 12.1133 9.19046 11.8058 9.03873 11.2747L8.38881 9H5.6117L4.96178 11.2747C4.81006 11.8058 4.25657 12.1133 3.72554 11.9615C3.1945 11.8098 2.88701 11.2563 3.03873 10.7253L4.58963 5.29716C4.79728 4.57032 4.96977 3.96657 5.13487 3.5236C5.21989 3.29549 5.31837 3.06665 5.44114 2.86543C5.56157 2.66806 5.74703 2.42746 6.03642 2.26291ZM6.18313 7H7.81738L7.50025 5.89003C7.28182 5.12551 7.13228 4.60481 7.00026 4.24554C6.86823 4.60481 6.7187 5.12551 6.50027 5.89003L6.18313 7ZM15.0265 8.01672C14.7895 8.00055 14.4799 8 14.0003 8C13.448 8 13.0003 7.55229 13.0003 7C13.0003 6.44772 13.448 6 14.0003 6L14.0322 6C14.4709 5.99999 14.8494 5.99998 15.1626 6.02135C15.4925 6.04386 15.8224 6.09336 16.1483 6.22837C16.8834 6.53285 17.4674 7.11687 17.7719 7.85195C17.9069 8.17788 17.9564 8.50779 17.9789 8.83762C18.0003 9.15088 18.0003 9.52937 18.0003 9.96802V10C18.0003 10.5523 17.5525 11 17.0003 11C16.448 11 16.0003 10.5523 16.0003 10C16.0003 9.52038 15.9997 9.21074 15.9835 8.97376C15.968 8.74577 15.9414 8.65893 15.9241 8.61732C15.8226 8.37229 15.628 8.17762 15.3829 8.07613C15.3413 8.05889 15.2545 8.03227 15.0265 8.01672Z" fill="#0000CC"/>
<g opacity="0.3">
<path d="M17 12.5C17.5523 12.5 18 12.9477 18 13.5V14H20C20.5523 14 21 14.4477 21 15C21 15.5523 20.5523 16 20 16H19.9811C19.8788 17.3449 19.3673 18.5752 18.5709 19.5669C19.0387 19.7892 19.5507 19.9331 20.0897 19.9816C20.6398 20.0312 21.0455 20.5173 20.996 21.0673C20.9464 21.6174 20.4603 22.0231 19.9103 21.9736C18.8446 21.8775 17.8539 21.5248 16.9999 20.9781C16.1455 21.525 15.1547 21.8776 14.0898 21.9735C13.5397 22.0231 13.0536 21.6174 13.004 21.0673C12.9545 20.5173 13.3602 20.0312 13.9103 19.9816C14.4496 19.933 14.9616 19.7891 15.4292 19.5669C15.1532 19.2231 14.9115 18.8508 14.7092 18.4552C14.4578 17.9634 14.6527 17.361 15.1444 17.1096C15.6362 16.8582 16.2386 17.0531 16.49 17.5448C16.6329 17.8244 16.8042 18.087 16.9999 18.3288C17.5267 17.6777 17.8756 16.8768 17.9725 16H14C13.4477 16 13 15.5523 13 15C13 14.4477 13.4477 14 14 14H16V13.5C16 12.9477 16.4477 12.5 17 12.5Z" fill="#0000CC"/>
<path d="M7 14C7.55229 14 8 14.4477 8 15C8 15.4796 8.00054 15.7893 8.01671 16.0262C8.03227 16.2542 8.05888 16.3411 8.07612 16.3827C8.17762 16.6277 8.37229 16.8224 8.61732 16.9239C8.65893 16.9411 8.74576 16.9677 8.97376 16.9833C9.21074 16.9995 9.52038 17 10 17C10.5523 17 11 17.4477 11 18C11 18.5523 10.5523 19 10 19H9.96801H9.96791C9.5293 19 9.15085 19 8.83762 18.9787C8.50779 18.9561 8.17788 18.9066 7.85195 18.7716C7.11687 18.4672 6.53284 17.8831 6.22836 17.1481C6.09336 16.8221 6.04386 16.4922 6.02135 16.1624C5.99998 15.8491 5.99999 15.4707 6 15.032V15.032V15C6 14.4477 6.44772 14 7 14Z" fill="#0000CC"/>
</g>
</svg>
