<svg width="24" height="24" viewBox="0 0 24 24" fill="none" xmlns="http://www.w3.org/2000/svg">
<g opacity="0.3">
<path d="M10.9831 4.18429C11.0848 3.64146 10.7273 3.1189 10.1845 3.01712C9.64164 2.91534 9.11909 3.27288 9.01731 3.81571L6.01731 19.8157C5.91553 20.3585 6.27307 20.8811 6.81589 20.9829C7.35872 21.0846 7.88127 20.7271 7.98305 20.1843L10.9831 4.18429Z" fill="#0000CC"/>
<path d="M17.9831 4.18429C18.0848 3.64146 17.7273 3.1189 17.1845 3.01712C16.6416 2.91534 16.1191 3.27288 16.0173 3.81571L13.0173 19.8157C12.9155 20.3585 13.2731 20.8811 13.8159 20.9829C14.3587 21.0846 14.8813 20.7271 14.9831 20.1843L17.9831 4.18429Z" fill="#0000CC"/>
</g>
<path d="M5 7H15.4203L15.0453 9H5C4.44772 9 4 8.55228 4 8C4 7.44772 4.44772 7 5 7Z" fill="#0000CC"/>
<path d="M20 9H17.0801L17.4551 7H20C20.5523 7 21 7.44772 21 8C21 8.55228 20.5523 9 20 9Z" fill="#0000CC"/>
<path d="M4 15H6.92025L6.54525 17H4C3.44772 17 3 16.5523 3 16C3 15.4477 3.44772 15 4 15Z" fill="#0000CC"/>
<path d="M19 17H8.58011L8.95511 15H19C19.5523 15 20 15.4477 20 16C20 16.5523 19.5523 17 19 17Z" fill="#0000CC"/>
</svg>
