<svg width="24" height="24" viewBox="0 0 24 24" fill="none" xmlns="http://www.w3.org/2000/svg">
<path opacity="0.3" fill-rule="evenodd" clip-rule="evenodd" d="M12 3C12.5523 3 13 3.44772 13 4V5H20C20.5523 5 21 5.44772 21 6C21 6.55228 20.5523 7 20 7H18.0073C17.8469 8.366 17.3798 9.9233 16.6777 11.4688C15.9305 13.1137 14.8932 14.7985 13.6029 16.2864C14.9959 17.3248 16.8371 18.2958 19.2914 19.0434C19.8197 19.2043 20.1175 19.7631 19.9566 20.2914C19.7957 20.8197 19.2369 21.1175 18.7086 20.9566C15.9337 20.1113 13.8177 18.9808 12.1967 17.7299C10.2541 19.496 7.84468 20.806 5.06888 20.9976C4.51791 21.0357 4.04042 20.6199 4.00238 20.0689C3.96433 19.5179 4.38014 19.0404 4.93112 19.0024C7.07218 18.8545 9.02012 17.8653 10.6871 16.3972C8.45154 14.1343 7.592 11.7593 7.1396 10.2697C6.9791 9.74128 7.27739 9.18278 7.80584 9.02228C8.33429 8.86179 8.89279 9.16007 9.05329 9.68852C9.46022 11.0284 10.1943 13.0449 12.0932 14.9746C13.2431 13.6482 14.1801 12.1313 14.8568 10.6416C15.4591 9.31565 15.8369 8.05242 15.9903 7H4C3.44772 7 3 6.55228 3 6C3 5.44772 3.44772 5 4 5H11V4C11 3.44772 11.4477 3 12 3Z" fill="#0000CC"/>
</svg>
