<svg width="24" height="24" viewBox="0 0 24 24" fill="none" xmlns="http://www.w3.org/2000/svg">
<path opacity="0.3" fill-rule="evenodd" clip-rule="evenodd" d="M12.499 3.24951C12.6368 2.71469 12.315 2.16943 11.7802 2.03163C11.2453 1.89382 10.7001 2.21567 10.5623 2.75049L10.4892 3.03366C10.3379 3.61943 10.1863 4.20608 10.0455 4.80899C8.97799 4.9271 8.06302 5 7.53125 5C6.97897 5 6.53125 5.44771 6.53125 6C6.53125 6.55228 6.97897 7 7.53125 7C8.02521 7 8.76919 6.94875 9.6366 6.86274C9.51757 7.61159 9.42796 8.40349 9.38397 9.26128C9.34591 10.0036 9.34199 10.7916 9.38084 11.6418C6.6945 12.8144 5.02081 13.9971 4.06553 15.1332C3.35376 15.9797 3.0011 16.8498 3 17.6927C2.9989 18.537 3.35168 19.2356 3.82813 19.7222C4.45579 20.3633 5.28056 20.5119 5.81317 20.54C6.09497 20.5548 6.34252 20.5386 6.51972 20.5191C6.60927 20.5093 6.68341 20.4983 6.73799 20.4891C6.76535 20.4846 6.78797 20.4804 6.80537 20.4771L6.8172 20.4748C8.18913 20.2315 9.4227 19.716 10.5109 19.0336C10.5264 19.0996 10.5421 19.1658 10.558 19.2324C10.6863 19.7695 11.2258 20.101 11.763 19.9726C12.3002 19.8443 12.6316 19.3048 12.5033 18.7676C12.4157 18.4011 12.3339 18.0443 12.2577 17.697C12.643 17.3439 13.0018 16.9721 13.3337 16.5896C14.7012 15.0134 15.656 13.2048 16.1432 11.6304C16.8494 11.5968 17.4997 11.6768 18.0154 11.8581C18.676 12.0903 19.016 12.443 19.1361 12.8553C19.2661 13.3016 19.2233 14.0977 18.489 15.3759C17.7614 16.6424 16.4214 18.2595 14.2061 20.2574C13.796 20.6273 13.7633 21.2596 14.1332 21.6697C14.5031 22.0798 15.1354 22.1125 15.5456 21.7426C17.8418 19.6717 19.3497 17.8926 20.2232 16.3722C21.0901 14.8634 21.4017 13.4818 21.0563 12.296C20.7011 11.0763 19.7359 10.3429 18.6786 9.97125C18.0118 9.73688 17.2698 9.6286 16.5155 9.62315C16.5246 9.35277 16.5123 9.09234 16.4745 8.84737C16.3902 8.30156 15.8794 7.92741 15.3336 8.0117C14.7878 8.09599 14.4136 8.60679 14.4979 9.15261C14.5241 9.32195 14.5273 9.55296 14.4954 9.84112C14.2345 9.89878 13.9757 9.96761 13.7216 10.0473C12.8733 10.3133 12.0862 10.5813 11.3568 10.8504C11.348 10.327 11.3573 9.83341 11.3813 9.36371C11.4323 8.37111 11.5492 7.47741 11.7069 6.62227C13.1094 6.43872 14.5735 6.20893 15.7287 5.9811C16.2705 5.87423 16.6231 5.34835 16.5163 4.8065C16.4094 4.26465 15.8835 3.91203 15.3417 4.0189C14.4109 4.20248 13.2858 4.38473 12.1685 4.54142C12.2546 4.19675 12.344 3.85012 12.4351 3.49724L12.499 3.24951ZM9.5545 13.7577C7.43845 14.7457 6.232 15.6643 5.59632 16.4203C5.10699 17.0023 5.00034 17.4333 5 17.6953C4.99966 17.9558 5.1033 18.1659 5.25719 18.323C5.37128 18.4395 5.59143 18.5255 5.91831 18.5427C6.06626 18.5505 6.20209 18.542 6.30085 18.5311C6.34926 18.5258 6.38624 18.5202 6.40828 18.5165L6.41658 18.5151L6.42901 18.5128C6.43884 18.5108 6.44918 18.5088 6.45907 18.5071C7.80383 18.2702 9.00817 17.6987 10.055 16.9256C9.83104 15.7805 9.66724 14.7303 9.5545 13.7577ZM11.7947 15.3114C11.6531 14.461 11.5498 13.6747 11.4789 12.9423C12.1879 12.6681 12.9694 12.3906 13.8302 12.1118C13.3766 13.147 12.7035 14.264 11.8231 15.2788C11.8136 15.2897 11.8042 15.3006 11.7947 15.3114Z" fill="#0000CC"/>
</svg>
