<svg width="24" height="24" viewBox="0 0 24 24" fill="none" xmlns="http://www.w3.org/2000/svg">
<g opacity="0.3">
<path d="M8 5C7.44772 5 7 5.44772 7 6C7 6.55228 7.44772 7 8 7H21C21.5523 7 22 6.55228 22 6C22 5.44772 21.5523 5 21 5H8Z" fill="#0000CC"/>
<path d="M7 12C7 11.4477 7.44772 11 8 11H21C21.5523 11 22 11.4477 22 12C22 12.5523 21.5523 13 21 13H8C7.44772 13 7 12.5523 7 12Z" fill="#0000CC"/>
<path d="M8 17C7.44772 17 7 17.4477 7 18C7 18.5523 7.44772 19 8 19H21C21.5523 19 22 18.5523 22 18C22 17.4477 21.5523 17 21 17H8Z" fill="#0000CC"/>
</g>
<path d="M3.5 7.5C4.32843 7.5 5 6.82843 5 6C5 5.17157 4.32843 4.5 3.5 4.5C2.67157 4.5 2 5.17157 2 6C2 6.82843 2.67157 7.5 3.5 7.5Z" fill="#0000CC"/>
<path d="M3.5 13.5C4.32843 13.5 5 12.8284 5 12C5 11.1716 4.32843 10.5 3.5 10.5C2.67157 10.5 2 11.1716 2 12C2 12.8284 2.67157 13.5 3.5 13.5Z" fill="#0000CC"/>
<path d="M5 18C5 18.8284 4.32843 19.5 3.5 19.5C2.67157 19.5 2 18.8284 2 18C2 17.1716 2.67157 16.5 3.5 16.5C4.32843 16.5 5 17.1716 5 18Z" fill="#0000CC"/>
</svg>
