<svg width="24" height="24" viewBox="0 0 24 24" fill="none" xmlns="http://www.w3.org/2000/svg">
<g opacity="0.3">
<path d="M10 5.99993C10 5.44764 10.4478 4.99996 11.0001 5L21.0001 5.00072C21.5524 5.00076 22 5.44851 22 6.00079C22 6.55308 21.5522 7.00076 20.9999 7.00072L10.9999 7C10.4476 6.99996 9.99996 6.55221 10 5.99993Z" fill="#0000CC"/>
<path d="M10 11.9999C10 11.4476 10.4478 11 11.0001 11L21.0001 11.0007C21.5524 11.0008 22 11.4485 22 12.0008C22 12.5531 21.5522 13.0008 20.9999 13.0007L10.9999 13C10.4476 13 9.99996 12.5522 10 11.9999Z" fill="#0000CC"/>
<path d="M10 17.9999C10 17.4476 10.4478 17 11.0001 17L21.0001 17.0007C21.5524 17.0008 22 17.4485 22 18.0008C22 18.5531 21.5522 19.0008 20.9999 19.0007L10.9999 19C10.4476 19 9.99996 18.5522 10 17.9999Z" fill="#0000CC"/>
</g>
<path fill-rule="evenodd" clip-rule="evenodd" d="M8.70319 3.289C9.09587 3.67736 9.09936 4.31051 8.711 4.70319L5.24946 8.20319C5.06162 8.39312 4.80559 8.5 4.53846 8.5C4.27133 8.5 4.0153 8.39312 3.82746 8.20319L2.289 6.64763C1.90064 6.25496 1.90413 5.6218 2.29681 5.23344C2.68949 4.84508 3.32264 4.84858 3.711 5.24126L4.53846 6.07791L7.289 3.29681C7.67736 2.90413 8.31051 2.90064 8.70319 3.289ZM8.70319 9.289C9.09587 9.67736 9.09936 10.3105 8.711 10.7032L5.24946 14.2032C5.06162 14.3931 4.80559 14.5 4.53846 14.5C4.27133 14.5 4.0153 14.3931 3.82746 14.2032L2.289 12.6476C1.90064 12.255 1.90413 11.6218 2.29681 11.2334C2.68949 10.8451 3.32264 10.8486 3.711 11.2413L4.53846 12.0779L7.289 9.29681C7.67736 8.90413 8.31051 8.90064 8.70319 9.289ZM3 18C3 17.1716 3.67157 16.5 4.5 16.5C5.32843 16.5 6 17.1716 6 18C6 18.8284 5.32843 19.5 4.5 19.5C3.67157 19.5 3 18.8284 3 18Z" fill="#0000CC"/>
</svg>
