<svg width="24" height="24" viewBox="0 0 24 24" fill="none" xmlns="http://www.w3.org/2000/svg">
<path opacity="0.3" fill-rule="evenodd" clip-rule="evenodd" d="M6 8.04492C6 4.73121 8.68629 2.04492 12 2.04492C15.3137 2.04492 18 4.73121 18 8.04492V9.19526C18.2832 9.25736 18.5545 9.34766 18.816 9.4809C19.5686 9.86439 20.1805 10.4763 20.564 11.229C20.8113 11.7143 20.9099 12.231 20.9558 12.7931C21 13.3343 21 13.9986 21 14.8036V16.2862C21 17.0912 21 17.7556 20.9558 18.2967C20.9099 18.8588 20.8113 19.3755 20.564 19.8609C20.1805 20.6135 19.5686 21.2255 18.816 21.6089C18.3306 21.8562 17.8139 21.9548 17.2518 22.0007C16.7106 22.0449 16.0463 22.0449 15.2413 22.0449H8.75868C7.95372 22.0449 7.28936 22.0449 6.74817 22.0007C6.18608 21.9548 5.66937 21.8562 5.18404 21.6089C4.43139 21.2255 3.81947 20.6135 3.43597 19.8609C3.18868 19.3755 3.09012 18.8588 3.04419 18.2967C2.99998 17.7556 2.99999 17.0912 3 16.2862V14.8036C2.99999 13.9987 2.99998 13.3343 3.04419 12.7931C3.09012 12.231 3.18868 11.7143 3.43597 11.229C3.81947 10.4763 4.43139 9.86439 5.18404 9.4809C5.44553 9.34766 5.71682 9.25736 6 9.19526V8.04492ZM8 9.01601C8.24418 9.00646 8.51072 9 8.8 9H15.2C15.4893 9 15.7558 9.00646 16 9.01601V8.04492C16 5.83578 14.2091 4.04492 12 4.04492C9.79086 4.04492 8 5.83578 8 8.04492V9.01601Z" fill="#0000CC"/>
<path fill-rule="evenodd" clip-rule="evenodd" d="M12.8702 12.2364C13.1427 12.3913 13.3128 12.6152 13.4183 12.7881C13.5261 12.9648 13.6101 13.1614 13.68 13.3489C13.8148 13.7108 13.9547 14.2003 14.1191 14.7757L14.9618 17.7252C15.1135 18.2562 14.806 18.8097 14.275 18.9614C13.7439 19.1132 13.1905 18.8057 13.0387 18.2746L12.9602 17.9999H11.0403L10.9618 18.2746C10.8101 18.8057 10.2566 19.1132 9.72554 18.9614C9.1945 18.8097 8.88701 18.2562 9.03873 17.7252L9.86952 14.8174C9.87351 14.8035 9.87749 14.7895 9.88145 14.7757C10.0458 14.2003 10.1857 13.7108 10.3205 13.3489C10.3904 13.1614 10.4744 12.9648 10.5822 12.7881C10.6877 12.6152 10.8578 12.3913 11.1303 12.2364C11.6697 11.9297 12.3308 11.9297 12.8702 12.2364ZM11.6117 15.9999H12.3888L12.2079 15.3669C12.128 15.087 12.0601 14.85 12.0003 14.6486C11.9404 14.85 11.8725 15.087 11.7926 15.3669L11.6117 15.9999Z" fill="#0000CC"/>
</svg>
