<svg width="24" height="24" viewBox="0 0 24 24" fill="none" xmlns="http://www.w3.org/2000/svg">
<path opacity="0.3" fill-rule="evenodd" clip-rule="evenodd" d="M18 3C18 2.44772 17.5523 2 17 2H11C10.4287 2 9.86026 2.09632 9.32603 2.28599C8.79181 2.47566 8.29745 2.75675 7.87434 3.11942C7.45096 3.48232 7.1054 3.92154 6.86604 4.41684C6.62635 4.91284 6.5 5.45134 6.5 6C6.5 6.54866 6.62635 7.08716 6.86604 7.58316C7.1054 8.07846 7.45096 8.51768 7.87434 8.88058C8.29745 9.24325 8.79181 9.52434 9.32603 9.71401C9.54563 9.79197 9.77101 9.85417 10 9.90038V12C10 12.5523 10.4477 13 11 13C11.5523 13 12 12.5523 12 12V4H14V12C14 12.5523 14.4477 13 15 13C15.5523 13 16 12.5523 16 12V4H17C17.5523 4 18 3.55228 18 3ZM10 4.16903V7.83098C9.70055 7.72495 9.41753 7.56916 9.17592 7.36206C8.94929 7.16781 8.77923 6.9456 8.6668 6.71294C8.55471 6.48099 8.5 6.23927 8.5 6C8.5 5.76073 8.55471 5.51901 8.6668 5.28706C8.77923 5.0544 8.94929 4.83219 9.17592 4.63794C9.41752 4.43085 9.70055 4.27502 10 4.16903Z" fill="#0000CC"/>
<path d="M6.70711 14.2929C6.31658 13.9024 5.68342 13.9024 5.29289 14.2929L2.29289 17.2929C1.90237 17.6834 1.90237 18.3166 2.29289 18.7071L5.29289 21.7071C5.68342 22.0976 6.31658 22.0976 6.70711 21.7071C7.09763 21.3166 7.09763 20.6834 6.70711 20.2929L5.41422 19H21C21.5523 19 22 18.5523 22 18C22 17.4477 21.5523 17 21 17H5.41421L6.70711 15.7071C7.09763 15.3166 7.09763 14.6834 6.70711 14.2929Z" fill="#0000CC"/>
</svg>
