<svg width="24" height="24" viewBox="0 0 24 24" fill="none" xmlns="http://www.w3.org/2000/svg">
<path opacity="0.3" fill-rule="evenodd" clip-rule="evenodd" d="M3.32698 4.63803C3 5.27976 3 6.11984 3 7.8V16.2C3 17.8802 3 18.7202 3.32698 19.362C3.6146 19.9265 4.07354 20.3854 4.63803 20.673C5.27976 21 6.11984 21 7.8 21H16.2C17.8802 21 18.7202 21 19.362 20.673C19.9265 20.3854 20.3854 19.9265 20.673 19.362C21 18.7202 21 17.8802 21 16.2V7.8C21 6.11984 21 5.27976 20.673 4.63803C20.3854 4.07354 19.9265 3.6146 19.362 3.32698C18.7202 3 17.8802 3 16.2 3H7.8C6.11984 3 5.27976 3 4.63803 3.32698C4.07354 3.6146 3.6146 4.07354 3.32698 4.63803Z" fill="#0000CC"/>
<path fill-rule="evenodd" clip-rule="evenodd" d="M16.6783 8.2652C17.0841 8.6398 17.1094 9.27246 16.7348 9.67829L11.1963 15.6783C11.007 15.8834 10.7406 16 10.4615 16C10.1824 16 9.91605 15.8834 9.72674 15.6783L7.2652 13.0116C6.8906 12.6058 6.9159 11.9731 7.32172 11.5985C7.72755 11.2239 8.3602 11.2492 8.73481 11.6551L10.4615 13.5257L15.2652 8.32172C15.6398 7.9159 16.2725 7.8906 16.6783 8.2652Z" fill="#0000CC"/>
</svg>
