<svg width="24" height="24" viewBox="0 0 24 24" fill="none" xmlns="http://www.w3.org/2000/svg">
<g opacity="0.3">
<path d="M3.32698 4.63803C3 5.27976 3 6.11984 3 7.8V16.2C3 17.8802 3 18.7202 3.32698 19.362C3.6146 19.9265 4.07354 20.3854 4.63803 20.673C5.27976 21 6.11984 21 7.8 21H12.126C12.0438 20.6804 12 20.3453 12 20V19C12 17.9583 12.3987 17.0109 13.0485 16.3006C13.1682 15.4454 13.5044 14.6595 13.9996 14H9.79161L8.94007 16.3418C8.75133 16.8608 8.17756 17.1286 7.65853 16.9398C7.1395 16.7511 6.87174 16.1773 7.06048 15.6583L9.34742 9.36922C9.60009 8.67433 9.81201 8.09151 10.0121 7.66003C10.196 7.26354 10.4755 6.74095 10.9907 6.46693C11.6219 6.13122 12.3787 6.13122 13.0099 6.46693C13.5251 6.74095 13.8045 7.26354 13.9884 7.66004C14.1885 8.0915 14.4005 8.67435 14.6531 9.36924L15.7956 12.5109C16.4606 12.1838 17.2088 12 18 12C19.1256 12 20.1643 12.3719 21 12.9996V7.8C21 6.11984 21 5.27976 20.673 4.63803C20.3854 4.07354 19.9265 3.6146 19.362 3.32698C18.7202 3 17.8802 3 16.2 3H7.8C6.11984 3 5.27976 3 4.63803 3.32698C4.07354 3.6146 3.6146 4.07354 3.32698 4.63803Z" fill="#0000CC"/>
<path d="M11.979 8.21667C11.9523 8.25688 11.9005 8.34196 11.8265 8.50158C11.6669 8.84553 11.4839 9.34615 11.2108 10.0971L10.5189 12H13.4817L12.7897 10.0971C12.5166 9.34615 12.3336 8.84553 12.1741 8.50158C12.1 8.34196 12.0482 8.25688 12.0216 8.21667C12.0074 8.21464 11.9931 8.21464 11.979 8.21667Z" fill="#0000CC"/>
</g>
<path fill-rule="evenodd" clip-rule="evenodd" d="M15 17C15 15.3431 16.3431 14 18 14C19.6569 14 21 15.3431 21 17V17.2676C21.5978 17.6134 22 18.2597 22 19V20C22 21.1046 21.1046 22 20 22H16C14.8954 22 14 21.1046 14 20V19C14 18.2597 14.4022 17.6134 15 17.2676V17ZM18 16C17.4477 16 17 16.4477 17 17H19C19 16.4477 18.5523 16 18 16Z" fill="#0000CC"/>
</svg>
