<svg width="24" height="24" viewBox="0 0 24 24" fill="none" xmlns="http://www.w3.org/2000/svg">
<path opacity="0.3" fill-rule="evenodd" clip-rule="evenodd" d="M2 6C2 5.44772 2.44772 5 3 5H5C5.35886 5 5.6902 5.19229 5.86824 5.50386L9 10.9844L12.1318 5.50386C12.3098 5.19229 12.6411 5 13 5H15C15.5523 5 16 5.44772 16 6C16 6.55228 15.5523 7 15 7H13.5803L10.1518 13L13.5803 19H15C15.5523 19 16 19.4477 16 20C16 20.5523 15.5523 21 15 21H13C12.6411 21 12.3098 20.8077 12.1318 20.4961L9 15.0156L5.86824 20.4961C5.6902 20.8077 5.35886 21 5 21H3C2.44772 21 2 20.5523 2 20C2 19.4477 2.44772 19 3 19H4.41968L7.84825 13L4.41968 7H3C2.44772 7 2 6.55228 2 6Z" fill="#0000CC"/>
<path d="M19.526 2.14935C19.8208 2.33156 20.0002 2.65342 20.0002 3V8H21.0002C21.5525 8 22.0002 8.44772 22.0002 9C22.0002 9.55229 21.5525 10 21.0002 10H17.0002C16.4479 10 16.0002 9.55229 16.0002 9C16.0002 8.44772 16.4479 8 17.0002 8H18.0002V4.61803L17.4474 4.89443C16.9535 5.14142 16.3528 4.94119 16.1058 4.44721C15.8588 3.95324 16.059 3.35256 16.553 3.10557L18.553 2.10557C18.863 1.95058 19.2311 1.96714 19.526 2.14935Z" fill="#0000CC"/>
</svg>
