<svg width="24" height="24" viewBox="0 0 24 24" fill="none" xmlns="http://www.w3.org/2000/svg">
<path opacity="0.3" fill-rule="evenodd" clip-rule="evenodd" d="M4 7.1C4 6.53995 4 6.25992 4.10899 6.04601C4.20487 5.85785 4.35785 5.70487 4.54601 5.60899C4.75992 5.5 5.03995 5.5 5.6 5.5H8V8.5H4V7.1ZM4 10.5H8V13.5H4V10.5ZM4 15.5H8V18.5H5.6C5.03995 18.5 4.75992 18.5 4.54601 18.391C4.35785 18.2951 4.20487 18.1422 4.10899 17.954C4 17.7401 4 17.4601 4 16.9V15.5ZM10 5.5H14V8.5H10V5.5ZM10 10.5H14V13.5H10V10.5ZM10 15.5H14V18.5H10V15.5ZM16 8.5V5.5H18.4C18.9601 5.5 19.2401 5.5 19.454 5.60899C19.6422 5.70487 19.7951 5.85785 19.891 6.04601C20 6.25992 20 6.53995 20 7.1V8.5H16ZM16 10.5H20V13.5H16V10.5ZM16 15.5H20V16.9C20 17.4601 20 17.7401 19.891 17.954C19.7951 18.1422 19.6422 18.2951 19.454 18.391C19.2401 18.5 18.9601 18.5 18.4 18.5H16V15.5Z" fill="#0000CC"/>
<path fill-rule="evenodd" clip-rule="evenodd" d="M2.32698 5.13803C2 5.77976 2 6.61984 2 8.3V15.7C2 17.3802 2 18.2202 2.32698 18.862C2.6146 19.4265 3.07354 19.8854 3.63803 20.173C4.27976 20.5 5.11984 20.5 6.8 20.5H17.2C18.8802 20.5 19.7202 20.5 20.362 20.173C20.9265 19.8854 21.3854 19.4265 21.673 18.862C22 18.2202 22 17.3802 22 15.7V8.3C22 6.61984 22 5.77976 21.673 5.13803C21.3854 4.57354 20.9265 4.1146 20.362 3.82698C19.7202 3.5 18.8802 3.5 17.2 3.5H6.8C5.11984 3.5 4.27976 3.5 3.63803 3.82698C3.07354 4.1146 2.6146 4.57354 2.32698 5.13803ZM4 7.1C4 6.53995 4 6.25992 4.10899 6.04601C4.20487 5.85785 4.35785 5.70487 4.54601 5.60899C4.75992 5.5 5.03995 5.5 5.6 5.5H8V8.5H4V7.1ZM4 10.5H8V13.5H4V10.5ZM4 15.5H8V18.5H5.6C5.03995 18.5 4.75992 18.5 4.54601 18.391C4.35785 18.2951 4.20487 18.1422 4.10899 17.954C4 17.7401 4 17.4601 4 16.9V15.5ZM10 5.5H14V8.5H10V5.5ZM10 10.5H14V13.5H10V10.5ZM10 15.5H14V18.5H10V15.5ZM16 8.5V5.5H18.4C18.9601 5.5 19.2401 5.5 19.454 5.60899C19.6422 5.70487 19.7951 5.85785 19.891 6.04601C20 6.25992 20 6.53995 20 7.1V8.5H16ZM16 10.5H20V13.5H16V10.5ZM16 15.5H20V16.9C20 17.4601 20 17.7401 19.891 17.954C19.7951 18.1422 19.6422 18.2951 19.454 18.391C19.2401 18.5 18.9601 18.5 18.4 18.5H16V15.5Z" fill="#0000CC"/>
</svg>
