<svg width="24" height="24" viewBox="0 0 24 24" fill="none" xmlns="http://www.w3.org/2000/svg">
<path opacity="0.3" fill-rule="evenodd" clip-rule="evenodd" d="M5.96784 5.52393C5.69617 5.54612 5.59545 5.5838 5.54601 5.60899C5.35785 5.70487 5.20487 5.85785 5.10899 6.04601C5.0838 6.09545 5.04612 6.19617 5.02393 6.46784C5.00078 6.75117 5 7.12345 5 7.7V8.5H8V5.5H7.2C6.62345 5.5 6.25117 5.50078 5.96784 5.52393ZM10 5.5V8.5H19V7.7C19 7.12345 18.9992 6.75117 18.9761 6.46784C18.9539 6.19617 18.9162 6.09545 18.891 6.04601C18.7951 5.85785 18.6422 5.70487 18.454 5.60899C18.4045 5.5838 18.3038 5.54612 18.0322 5.52393C17.7488 5.50078 17.3766 5.5 16.8 5.5H10ZM19 10.5H10V13.5H19V10.5ZM19 15.5H10V18.5H16.8C17.3766 18.5 17.7488 18.4992 18.0322 18.4761C18.3038 18.4539 18.4045 18.4162 18.454 18.391C18.6422 18.2951 18.7951 18.1422 18.891 17.954C18.9162 17.9045 18.9539 17.8038 18.9761 17.5322C18.9992 17.2488 19 16.8766 19 16.3V15.5ZM8 18.5V15.5H5V16.3C5 16.8766 5.00078 17.2488 5.02393 17.5322C5.04612 17.8038 5.0838 17.9045 5.10899 17.954C5.20487 18.1422 5.35785 18.2951 5.54601 18.391C5.59545 18.4162 5.69617 18.4539 5.96784 18.4761C6.25117 18.4992 6.62345 18.5 7.2 18.5H8ZM5 13.5H8V10.5H5V13.5Z" fill="#0000CC"/>
<path fill-rule="evenodd" clip-rule="evenodd" d="M7.16146 3.5H16.8385C17.3657 3.49998 17.8205 3.49997 18.195 3.53057C18.5904 3.56287 18.9836 3.63419 19.362 3.82698C19.9265 4.1146 20.3854 4.57354 20.673 5.13803C20.8658 5.51641 20.9371 5.90963 20.9694 6.30497C21 6.67954 21 7.1343 21 7.66144V16.3386C21 16.8657 21 17.3205 20.9694 17.695C20.9371 18.0904 20.8658 18.4836 20.673 18.862C20.3854 19.4265 19.9265 19.8854 19.362 20.173C18.9836 20.3658 18.5904 20.4371 18.195 20.4694C17.8205 20.5 17.3657 20.5 16.8386 20.5H7.16144C6.6343 20.5 6.17954 20.5 5.80497 20.4694C5.40963 20.4371 5.01641 20.3658 4.63803 20.173C4.07354 19.8854 3.6146 19.4265 3.32698 18.862C3.13419 18.4836 3.06287 18.0904 3.03057 17.695C2.99997 17.3205 2.99998 16.8657 3 16.3385V7.66146C2.99998 7.13431 2.99997 6.67955 3.03057 6.30497C3.06287 5.90963 3.13419 5.51641 3.32698 5.13803C3.6146 4.57354 4.07354 4.1146 4.63803 3.82698C5.01641 3.63419 5.40963 3.56287 5.80497 3.53057C6.17955 3.49997 6.63431 3.49998 7.16146 3.5ZM5.96784 5.52393C5.69617 5.54612 5.59546 5.5838 5.54601 5.609C5.35785 5.70487 5.20487 5.85785 5.109 6.04601C5.0838 6.09546 5.04612 6.19617 5.02393 6.46784C5.00078 6.75117 5 7.12345 5 7.7V8.5H8V5.5H7.2C6.62345 5.5 6.25117 5.50078 5.96784 5.52393ZM10 5.5V8.5H19V7.7C19 7.12345 18.9992 6.75118 18.9761 6.46784C18.9539 6.19617 18.9162 6.09546 18.891 6.04601C18.7951 5.85785 18.6422 5.70487 18.454 5.609C18.4045 5.5838 18.3038 5.54612 18.0322 5.52393C17.7488 5.50078 17.3766 5.5 16.8 5.5H10ZM19 10.5H10V13.5H19V10.5ZM19 15.5H10V18.5H16.8C17.3766 18.5 17.7488 18.4992 18.0322 18.4761C18.3038 18.4539 18.4045 18.4162 18.454 18.391C18.6422 18.2951 18.7951 18.1422 18.891 17.954C18.9162 17.9045 18.9539 17.8038 18.9761 17.5322C18.9992 17.2488 19 16.8766 19 16.3V15.5ZM8 18.5V15.5H5V16.3C5 16.8766 5.00078 17.2488 5.02393 17.5322C5.04612 17.8038 5.0838 17.9045 5.109 17.954C5.20487 18.1422 5.35785 18.2951 5.54601 18.391C5.59546 18.4162 5.69617 18.4539 5.96784 18.4761C6.25117 18.4992 6.62345 18.5 7.2 18.5H8ZM5 13.5H8V10.5H5V13.5Z" fill="#0000CC"/>
</svg>
