<svg width="24" height="24" viewBox="0 0 24 24" fill="none" xmlns="http://www.w3.org/2000/svg">
<path opacity="0.3" fill-rule="evenodd" clip-rule="evenodd" d="M4 6C4 5.44772 4.44772 5 5 5H19C19.5523 5 20 5.44772 20 6V8H4V6ZM4 10H11V19H5C4.44772 19 4 18.5523 4 18V10ZM13 10H20V18C20 18.5523 19.5523 19 19 19H13V10Z" fill="#0000CC"/>
<path fill-rule="evenodd" clip-rule="evenodd" d="M2.32698 4.63803C2 5.27976 2 6.11984 2 7.8V16.2C2 17.8802 2 18.7202 2.32698 19.362C2.6146 19.9265 3.07354 20.3854 3.63803 20.673C4.27976 21 5.11984 21 6.8 21H17.2C18.8802 21 19.7202 21 20.362 20.673C20.9265 20.3854 21.3854 19.9265 21.673 19.362C22 18.7202 22 17.8802 22 16.2V7.8C22 6.11984 22 5.27976 21.673 4.63803C21.3854 4.07354 20.9265 3.6146 20.362 3.32698C19.7202 3 18.8802 3 17.2 3H6.8C5.11984 3 4.27976 3 3.63803 3.32698C3.07354 3.6146 2.6146 4.07354 2.32698 4.63803ZM4 6C4 5.44772 4.44772 5 5 5H19C19.5523 5 20 5.44772 20 6V8H4V6ZM4 10H11V19H5C4.44772 19 4 18.5523 4 18V10ZM13 10H20V18C20 18.5523 19.5523 19 19 19H13V10Z" fill="#0000CC"/>
</svg>
