<svg width="24" height="24" viewBox="0 0 24 24" fill="none" xmlns="http://www.w3.org/2000/svg">
<path d="M2 7.2C2 6.0799 2 5.51984 2.21799 5.09202C2.40973 4.71569 2.71569 4.40973 3.09202 4.21799C3.51984 4 4.0799 4 5.2 4H6.8C7.9201 4 8.48016 4 8.90798 4.21799C9.28431 4.40973 9.59027 4.71569 9.78201 5.09202C10 5.51984 10 6.0799 10 7.2V8.8C10 9.9201 10 10.4802 9.78201 10.908C9.59027 11.2843 9.28431 11.5903 8.90798 11.782C8.48016 12 7.9201 12 6.8 12H5.2C4.0799 12 3.51984 12 3.09202 11.782C2.71569 11.5903 2.40973 11.2843 2.21799 10.908C2 10.4802 2 9.9201 2 8.8V7.2Z" fill="#0000CC"/>
<path d="M12 7C12 6.44772 12.4477 6 13 6H21C21.5523 6 22 6.44772 22 7C22 7.55228 21.5523 8 21 8H13C12.4477 8 12 7.55228 12 7Z" fill="#0000CC"/>
<path d="M12 11C12 10.4477 12.4477 10 13 10H21C21.5523 10 22 10.4477 22 11C22 11.5523 21.5523 12 21 12H13C12.4477 12 12 11.5523 12 11Z" fill="#0000CC"/>
<path d="M3 14C2.44772 14 2 14.4477 2 15C2 15.5523 2.44772 16 3 16H21C21.5523 16 22 15.5523 22 15C22 14.4477 21.5523 14 21 14H3Z" fill="#0000CC"/>
<path d="M2 19C2 18.4477 2.44772 18 3 18H13C13.5523 18 14 18.4477 14 19C14 19.5523 13.5523 20 13 20H3C2.44772 20 2 19.5523 2 19Z" fill="#0000CC"/>
</svg>
