<svg width="24" height="24" viewBox="0 0 24 24" fill="none" xmlns="http://www.w3.org/2000/svg">
<path d="M4.56829 2C4.31592 1.99997 4.07012 1.99994 3.86196 2.01695C3.63337 2.03563 3.36363 2.07969 3.09221 2.21799C2.71589 2.40974 2.40992 2.7157 2.21818 3.09202C2.07988 3.36345 2.03581 3.63318 2.01714 3.86178C2.00013 4.06993 2.00016 4.31572 2.00019 4.56809L2.0001 6.3883C1.99959 6.57821 1.99895 6.81735 2.05545 7.05268C2.10444 7.25675 2.18525 7.45184 2.29491 7.63079C2.42136 7.83714 2.59091 8.00579 2.72556 8.13972L8.99778 14.4189C9.04458 16.6106 9.00019 18.8078 9.00019 21C9.00019 21.4045 9.24383 21.7691 9.61751 21.9239C9.99118 22.0787 10.4213 21.9931 10.7073 21.7071L14.7073 17.7071C14.8948 17.5196 15.0002 17.2652 15.0002 17C15.0002 16.1386 15.0028 14.4153 15.0028 14.4153L21.2748 8.13972C21.4095 8.0058 21.579 7.83714 21.7055 7.63079C21.8151 7.45184 21.8959 7.25675 21.9449 7.05268C22.0014 6.81735 22.0008 6.57821 22.0003 6.3883L22.0002 4.56809C22.0002 4.31575 22.0003 4.0699 21.9832 3.86178C21.9646 3.63318 21.9205 3.36345 21.7822 3.09202C21.5905 2.7157 21.2845 2.40974 20.9082 2.21799C20.6367 2.07969 20.367 2.03563 20.1384 2.01695C19.9303 1.99994 19.6845 1.99997 19.4321 2H4.56829Z" fill="#0000CC"/>
</svg>
