<svg width="24" height="24" viewBox="0 0 24 24" fill="none" xmlns="http://www.w3.org/2000/svg">
<path d="M3.70711 2.29289C3.31658 1.90237 2.68342 1.90237 2.29289 2.29289C1.98835 2.59744 1.9213 3.04954 2.09174 3.41906C2.04829 3.57564 2.02823 3.72597 2.01714 3.86178C2.00013 4.06993 2.00016 4.31572 2.00019 4.56809L2.0001 6.3883C1.99959 6.57821 1.99895 6.81735 2.05545 7.05268C2.10444 7.25675 2.18525 7.45184 2.29491 7.63079C2.42136 7.83714 2.59091 8.00579 2.72556 8.13972L8.99778 14.4189C9.02926 15.8931 9.01948 17.3699 9.0097 18.846C9.00495 19.5642 9.00019 20.2825 9.00019 21C9.00019 21.4045 9.24383 21.7691 9.61751 21.9239C9.99118 22.0787 10.4213 21.9931 10.7073 21.7071L14.7073 17.7071C14.8948 17.5196 15.0002 17.2652 15.0002 17C15.0002 16.8314 15.0003 16.6299 15.0004 16.4147L20.2929 21.7071C20.6834 22.0976 21.3166 22.0976 21.7071 21.7071C22.0976 21.3166 22.0976 20.6834 21.7071 20.2929L3.70711 2.29289Z" fill="#0000CC"/>
<path d="M21.2748 8.13972L16.8155 12.6015L6.21402 2H19.4321C19.6845 1.99997 19.9303 1.99994 20.1384 2.01695C20.367 2.03563 20.6367 2.07969 20.9082 2.21799C21.2845 2.40974 21.5905 2.7157 21.7822 3.09202C21.9205 3.36345 21.9646 3.63318 21.9832 3.86178C22.0003 4.06986 22.0002 4.3157 22.0002 4.56799L22.0003 6.3883C22.0008 6.57821 22.0014 6.81735 21.9449 7.05268C21.8959 7.25675 21.8151 7.45184 21.7055 7.63079C21.579 7.83714 21.4095 8.0058 21.2748 8.13972Z" fill="#0000CC"/>
</svg>
