<svg width="24" height="24" viewBox="0 0 24 24" fill="none" xmlns="http://www.w3.org/2000/svg">
<path fill-rule="evenodd" clip-rule="evenodd" d="M3 5C3.55228 5 4 5.44772 4 6V11H9V6C9 5.44772 9.44772 5 10 5C10.5523 5 11 5.44772 11 6V18C11 18.5523 10.5523 19 10 19C9.44772 19 9 18.5523 9 18V13H4V18C4 18.5523 3.55228 19 3 19C2.44772 19 2 18.5523 2 18V6C2 5.44772 2.44772 5 3 5ZM17 8.41421L15.7071 9.70711C15.3166 10.0976 14.6834 10.0976 14.2929 9.70711C13.9024 9.31658 13.9024 8.68342 14.2929 8.29289L15.9535 6.63224C16.1447 6.44103 16.3326 6.25308 16.4973 6.11519C16.6442 5.99217 16.9537 5.74547 17.3823 5.71173C17.861 5.67406 18.3288 5.86782 18.6406 6.23293C18.9198 6.55988 18.9642 6.95314 18.9811 7.14403C19.0001 7.358 19 7.62378 19 7.89417L19 17H21C21.5523 17 22 17.4477 22 18C22 18.5523 21.5523 19 21 19H15C14.4477 19 14 18.5523 14 18C14 17.4477 14.4477 17 15 17H17V8.41421Z" fill="#0000CC"/>
</svg>
