<svg width="24" height="24" viewBox="0 0 24 24" fill="none" xmlns="http://www.w3.org/2000/svg">
<path fill-rule="evenodd" clip-rule="evenodd" d="M8.98639 3.16437C9.07719 2.6196 8.70917 2.10437 8.1644 2.01358C7.61963 1.92278 7.1044 2.2908 7.01361 2.83557L6.15287 7.99997H4C3.44772 7.99997 3 8.44769 3 8.99997C3 9.55226 3.44772 9.99997 4 9.99997H5.81954L5.15287 14H3C2.44772 14 2 14.4477 2 15C2 15.5523 2.44772 16 3 16H4.81954L4.01361 20.8356C3.92281 21.3803 4.29083 21.8956 4.8356 21.9864C5.38037 22.0772 5.8956 21.7091 5.98639 21.1644L6.84713 16H10.8195L10.0136 20.8356C9.92281 21.3803 10.2908 21.8956 10.8356 21.9864C11.3804 22.0772 11.8956 21.7091 11.9864 21.1644L12.9833 15.183C12.9854 15.1714 12.9874 15.1598 12.9891 15.1482L13.8471 9.99997H16C16.5523 9.99997 17 9.55226 17 8.99997C17 8.44769 16.5523 7.99997 16 7.99997H14.1805L14.9864 3.16437C15.0772 2.6196 14.7092 2.10437 14.1644 2.01358C13.6196 1.92278 13.1044 2.2908 13.0136 2.83557L12.1529 7.99997H8.18046L8.98639 3.16437ZM7.18046 14L7.84713 9.99997H11.8195L11.1529 14H7.18046Z" fill="#0000CC"/>
<path fill-rule="evenodd" clip-rule="evenodd" d="M18 14C16.3431 14 15 15.3431 15 17V17.2679C14.6208 17.4869 14.3216 17.8257 14.1522 18.2346C14.0553 18.4687 14.0248 18.6944 14.0118 18.8848C14 19.0588 14 19.2635 14 19.4735V19.5265C14 19.7365 14 19.9412 14.0118 20.1152C14.0248 20.3056 14.0553 20.5313 14.1522 20.7654C14.3552 21.2554 14.7446 21.6448 15.2346 21.8478C15.4687 21.9447 15.6944 21.9752 15.8848 21.9882C16.0589 22 16.2635 22 16.4735 22H19.5265C19.7365 22 19.9411 22 20.1152 21.9882C20.3056 21.9752 20.5313 21.9447 20.7654 21.8478C21.2554 21.6448 21.6448 21.2554 21.8478 20.7654C21.9447 20.5313 21.9752 20.3056 21.9882 20.1152C22 19.9411 22 19.7365 22 19.5265V19.4735C22 19.2635 22 19.0589 21.9882 18.8848C21.9752 18.6944 21.9447 18.4687 21.8478 18.2346C21.6784 17.8257 21.3792 17.4869 21 17.2679V17C21 15.3431 19.6569 14 18 14ZM18 16C18.5523 16 19 16.4477 19 17L17 17C17 16.4477 17.4477 16 18 16Z" fill="#0000CC"/>
</svg>
