<svg width="24" height="24" viewBox="0 0 24 24" fill="none" xmlns="http://www.w3.org/2000/svg">
<path fill-rule="evenodd" clip-rule="evenodd" d="M12.499 3.24951C12.6368 2.71469 12.315 2.16943 11.7802 2.03163C11.2453 1.89382 10.7001 2.21567 10.5623 2.75049L10.4892 3.03367C10.3379 3.61944 10.1863 4.20608 10.0455 4.80899C8.97799 4.9271 8.06302 5 7.53125 5C6.97897 5 6.53125 5.44771 6.53125 6C6.53125 6.55228 6.97897 7 7.53125 7C8.02521 7 8.76919 6.94875 9.6366 6.86274C9.51757 7.61159 9.42796 8.40349 9.38397 9.26128C9.34591 10.0036 9.34199 10.7916 9.38084 11.6418C6.6945 12.8144 5.02081 13.9971 4.06553 15.1332C3.35376 15.9797 3.0011 16.8498 3 17.6927C2.9989 18.537 3.35168 19.2356 3.82813 19.7223C4.45579 20.3633 5.28056 20.512 5.81317 20.54C6.09497 20.5548 6.34252 20.5386 6.51972 20.5191C6.60927 20.5093 6.68341 20.4983 6.73799 20.4892C6.76535 20.4846 6.78797 20.4804 6.80537 20.4771L6.8172 20.4748C8.18913 20.2315 9.4227 19.716 10.5109 19.0336C10.5264 19.0996 10.5421 19.1658 10.558 19.2324C10.6863 19.7695 11.2258 20.101 11.763 19.9726C12.3002 19.8443 12.6316 19.3048 12.5033 18.7676C12.4157 18.4011 12.334 18.0443 12.2577 17.697C12.643 17.3439 13.0018 16.9721 13.3337 16.5896C14.7012 15.0134 15.656 13.2048 16.1432 11.6304C16.8494 11.5968 17.4997 11.6768 18.0154 11.8581C18.676 12.0903 19.016 12.443 19.1361 12.8553C19.2661 13.3016 19.2233 14.0977 18.489 15.3759C17.7614 16.6424 16.4214 18.2595 14.2061 20.2574C13.796 20.6273 13.7633 21.2596 14.1332 21.6697C14.5031 22.0799 15.1354 22.1125 15.5456 21.7426C17.8418 19.6717 19.3497 17.8926 20.2232 16.3722C21.0901 14.8634 21.4017 13.4818 21.0563 12.296C20.7011 11.0764 19.7359 10.3429 18.6786 9.97126C18.0118 9.73689 17.2698 9.62861 16.5155 9.62316C16.5246 9.35278 16.5123 9.09234 16.4745 8.84738C16.3902 8.30157 15.8794 7.92742 15.3336 8.01171C14.7878 8.096 14.4136 8.6068 14.4979 9.15262C14.5241 9.32196 14.5273 9.55297 14.4954 9.84113C14.2345 9.89879 13.9757 9.96762 13.7216 10.0473C12.8733 10.3133 12.0862 10.5813 11.3568 10.8504C11.348 10.3271 11.3573 9.83341 11.3813 9.36371C11.4323 8.37111 11.5492 7.47741 11.7069 6.62227C13.1094 6.43872 14.5735 6.20893 15.7287 5.9811C16.2705 5.87423 16.6231 5.34835 16.5163 4.8065C16.4094 4.26465 15.8835 3.91203 15.3417 4.0189C14.4109 4.20248 13.2858 4.38473 12.1685 4.54143C12.2545 4.19683 12.344 3.85027 12.4351 3.49748L12.499 3.24951ZM11.8231 15.2789L11.7947 15.3115C11.6531 14.461 11.5498 13.6747 11.4789 12.9423C12.1879 12.6681 12.9694 12.3906 13.8302 12.1118C13.3766 13.147 12.7035 14.2641 11.8231 15.2789ZM5.59632 16.4204C6.232 15.6643 7.43845 14.7457 9.5545 13.7578C9.66724 14.7304 9.83105 15.7805 10.055 16.9256C9.00817 17.6988 7.80383 18.2703 6.45907 18.5071C6.44918 18.5088 6.43884 18.5108 6.42901 18.5129C6.4263 18.5134 6.41924 18.5147 6.40828 18.5165C6.38624 18.5202 6.34926 18.5258 6.30085 18.5312C6.20209 18.542 6.06626 18.5506 5.91831 18.5428C5.59143 18.5256 5.37128 18.4396 5.25719 18.3231C5.1033 18.1659 4.99966 17.9558 5 17.6953C5.00034 17.4333 5.10699 17.0023 5.59632 16.4204Z" fill="#0000CC"/>
</svg>
