<svg width="24" height="24" viewBox="0 0 24 24" fill="none" xmlns="http://www.w3.org/2000/svg">
<path d="M2.07612 5.11732C2 5.30109 2 5.53406 2 6C2 6.46594 2 6.69891 2.07612 6.88268C2.17761 7.12771 2.37229 7.32239 2.61732 7.42388C2.80109 7.5 3.03406 7.5 3.5 7.5C3.96594 7.5 4.19891 7.5 4.38268 7.42388C4.62771 7.32239 4.82239 7.12771 4.92388 6.88268C5 6.69891 5 6.46594 5 6C5 5.53406 5 5.30109 4.92388 5.11732C4.82239 4.87229 4.62771 4.67761 4.38268 4.57612C4.19891 4.5 3.96594 4.5 3.5 4.5C3.03406 4.5 2.80109 4.5 2.61732 4.57612C2.37229 4.67761 2.17761 4.87229 2.07612 5.11732Z" fill="#0000CC"/>
<path d="M2 12C2 11.5341 2 11.3011 2.07612 11.1173C2.17761 10.8723 2.37229 10.6776 2.61732 10.5761C2.80109 10.5 3.03406 10.5 3.5 10.5C3.96594 10.5 4.19891 10.5 4.38268 10.5761C4.62771 10.6776 4.82239 10.8723 4.92388 11.1173C5 11.3011 5 11.5341 5 12C5 12.4659 5 12.6989 4.92388 12.8827C4.82239 13.1277 4.62771 13.3224 4.38268 13.4239C4.19891 13.5 3.96594 13.5 3.5 13.5C3.03406 13.5 2.80109 13.5 2.61732 13.4239C2.37229 13.3224 2.17761 13.1277 2.07612 12.8827C2 12.6989 2 12.4659 2 12Z" fill="#0000CC"/>
<path d="M2 18C2 17.5341 2 17.3011 2.07612 17.1173C2.17761 16.8723 2.37229 16.6776 2.61732 16.5761C2.80109 16.5 3.03406 16.5 3.5 16.5C3.96594 16.5 4.19891 16.5 4.38268 16.5761C4.62771 16.6776 4.82239 16.8723 4.92388 17.1173C5 17.3011 5 17.5341 5 18C5 18.4659 5 18.6989 4.92388 18.8827C4.82239 19.1277 4.62771 19.3224 4.38268 19.4239C4.19891 19.5 3.96594 19.5 3.5 19.5C3.03406 19.5 2.80109 19.5 2.61732 19.4239C2.37229 19.3224 2.17761 19.1277 2.07612 18.8827C2 18.6989 2 18.4659 2 18Z" fill="#0000CC"/>
<path d="M7 5.99994C7.00003 5.44766 7.44778 4.99997 8.00006 5L21.0001 5.00078C21.5523 5.00082 22 5.44856 22 6.00084C22 6.55313 21.5522 7.00082 20.9999 7.00078L7.99994 7C7.44766 6.99997 6.99997 6.55222 7 5.99994Z" fill="#0000CC"/>
<path d="M7 11.9999C7.00003 11.4477 7.44778 11 8.00006 11L21.0001 11.0008C21.5523 11.0008 22 11.4486 22 12.0008C22 12.5531 21.5522 13.0008 20.9999 13.0008L7.99994 13C7.44766 13 6.99997 12.5522 7 11.9999Z" fill="#0000CC"/>
<path d="M7 17.9999C7.00003 17.4477 7.44777 17 8.00006 17L21.0001 17.0007C21.5523 17.0007 22 17.4485 22 18.0008C22 18.5531 21.5522 19.0007 20.9999 19.0007L7.99994 19C7.44766 19 6.99997 18.5522 7 17.9999Z" fill="#0000CC"/>
</svg>
