<svg width="24" height="24" viewBox="0 0 24 24" fill="none" xmlns="http://www.w3.org/2000/svg">
<path fill-rule="evenodd" clip-rule="evenodd" d="M3 3C3 2.44772 3.44772 2 4 2H20C20.5523 2 21 2.44772 21 3V6C21 6.55228 20.5523 7 20 7C19.4477 7 19 6.55228 19 6V4H13V11H15C15.5523 11 16 11.4477 16 12C16 12.5523 15.5523 13 15 13H9C8.44772 13 8 12.5523 8 12C8 11.4477 8.44772 11 9 11H11V4H5V6C5 6.55228 4.55228 7 4 7C3.44772 7 3 6.55228 3 6V3ZM7.70711 14.2929C8.09763 14.6834 8.09763 15.3166 7.70711 15.7071L6.41421 17H17.5858L16.2929 15.7071C15.9024 15.3166 15.9024 14.6834 16.2929 14.2929C16.6834 13.9024 17.3166 13.9024 17.7071 14.2929L20.7071 17.2929C21.0976 17.6834 21.0976 18.3166 20.7071 18.7071L17.7071 21.7071C17.3166 22.0976 16.6834 22.0976 16.2929 21.7071C15.9024 21.3166 15.9024 20.6834 16.2929 20.2929L17.5858 19H6.41421L7.70711 20.2929C8.09763 20.6834 8.09763 21.3166 7.70711 21.7071C7.31658 22.0976 6.68342 22.0976 6.29289 21.7071L3.29289 18.7071C2.90237 18.3166 2.90237 17.6834 3.29289 17.2929L6.29289 14.2929C6.68342 13.9024 7.31658 13.9024 7.70711 14.2929Z" fill="#0000CC"/>
</svg>
