<svg width="24" height="24" viewBox="0 0 24 24" fill="none" xmlns="http://www.w3.org/2000/svg">
<path opacity="0.14" d="M11.2851 20.6422L4.88451 17.4422C4.56345 17.2817 4.40289 17.2014 4.2856 17.0816C4.18188 16.9757 4.10299 16.8481 4.05466 16.708C4 16.5495 4 16.37 4 16.0111V7.98885C4 7.62988 4 7.4504 4.05466 7.29194C4.08056 7.21685 4.11523 7.14535 4.1578 7.07886L12 11V20.8819C11.9385 20.8819 11.877 20.8762 11.8163 20.8648C11.6787 20.839 11.5475 20.7734 11.2851 20.6422Z" fill="#0000CC"/>
<path d="M16 14C15.4477 14 15 14.4477 15 15C15 15.5523 15.4477 16 16 16V14ZM21 16C21.5523 16 22 15.5523 22 15C22 14.4477 21.5523 14 21 14V16ZM16 17C15.4477 17 15 17.4477 15 18C15 18.5523 15.4477 19 16 19V17ZM21 19C21.5523 19 22 18.5523 22 18C22 17.4477 21.5523 17 21 17V19ZM11.2849 20.6422L10.8377 21.5366H10.8377L11.2849 20.6422ZM4.88451 17.4422L5.33169 16.5478H5.33169L4.88451 17.4422ZM4.88451 6.55779L5.33169 7.45224L5.33169 7.45223L4.88451 6.55779ZM11.2851 3.35775L11.7323 4.2522L11.7323 4.25219L11.2851 3.35775ZM12.7162 3.3578L12.269 4.25222V4.25222L12.7162 3.3578ZM19.1156 6.55777L19.5628 5.66335V5.66335L19.1156 6.55777ZM19 11C19 11.5523 19.4477 12 20 12C20.5523 12 21 11.5523 21 11H19ZM13.4475 21.3943C13.9414 21.1472 14.1414 20.5465 13.8943 20.0525C13.6472 19.5586 13.0464 19.3586 12.5525 19.6057L13.4475 21.3943ZM12.7164 20.6419L12.2689 19.7476L12.7164 20.6419ZM19.7144 6.91832L20.4289 6.21862L20.4289 6.21861L19.7144 6.91832ZM19.9453 7.29196L20.8907 6.9659V6.96589L19.9453 7.29196ZM11.8163 3.13518L12.0006 4.11804L12.0007 4.11804L11.8163 3.13518ZM12.1851 3.1352L12.0007 4.11804L12.0007 4.11804L12.1851 3.1352ZM4.05466 7.29199L5 7.61806H5L4.05466 7.29199ZM4.2856 6.91833L5 7.61807L5 7.61806L4.2856 6.91833ZM4.2856 17.0817L5 16.382L5 16.3819L4.2856 17.0817ZM4.05466 16.708L3.10932 17.0341L3.10932 17.0341L4.05466 16.708ZM11.8162 20.8648L12.0005 19.8819L11.8162 20.8648ZM12.1851 20.8647L12.3697 21.8475L12.1851 20.8647ZM16.4472 5.89444C16.9412 5.64745 17.1414 5.04677 16.8944 4.55279C16.6474 4.05882 16.0468 3.85859 15.5528 4.10558L16.4472 5.89444ZM8.05279 14.1444C8.54676 14.3914 9.14744 14.1912 9.39443 13.6972C9.64142 13.2032 9.44119 12.6026 8.94721 12.3556L8.05279 14.1444ZM7.94721 11.8556C7.45324 11.6086 6.85256 11.8088 6.60557 12.3028C6.35858 12.7968 6.55881 13.3974 7.05279 13.6444L7.94721 11.8556ZM19.8422 7.07889L20.6845 6.53977L19.8422 7.07889ZM16 16H21V14H16V16ZM16 19H21V17H16V19ZM11.7321 19.7477L5.33169 16.5478L4.43733 18.3367L10.8377 21.5366L11.7321 19.7477ZM5 16.0111V7.9889H3V16.0111H5ZM5.33169 7.45223L11.7323 4.2522L10.838 2.46331L4.43733 5.66335L5.33169 7.45223ZM12.269 4.25222L18.6683 7.45218L19.5628 5.66335L13.1635 2.46339L12.269 4.25222ZM19 7.98882V11H21V7.98882H19ZM12.5525 19.6057L12.2689 19.7476L13.1638 21.5362L13.4475 21.3943L12.5525 19.6057ZM18.6683 7.45218C18.8397 7.53786 18.9276 7.58232 18.9894 7.61818C19.0409 7.6481 19.0273 7.64588 19 7.61802L20.4289 6.21861C20.1663 5.95053 19.819 5.79147 19.5628 5.66335L18.6683 7.45218ZM21 7.98882C21 7.70237 21.013 7.32062 20.8907 6.9659L19 7.61802C18.9873 7.58115 18.9914 7.56795 18.9951 7.62745C18.9996 7.69874 19 7.79725 19 7.98882H21ZM11.7323 4.25219C11.8726 4.18204 11.9437 4.1469 11.9964 4.12394C12.0396 4.10516 12.0314 4.11227 12.0006 4.11804L11.6319 2.15232C11.3244 2.21001 11.0485 2.35807 10.8379 2.46331L11.7323 4.25219ZM13.1635 2.46339C12.953 2.35812 12.677 2.21006 12.3695 2.15235L12.0007 4.11804C11.9699 4.11227 11.9617 4.10516 12.0049 4.12394C12.0576 4.1469 12.1287 4.18205 12.269 4.25222L13.1635 2.46339ZM12.0007 4.11804V4.11804L12.3695 2.15235C12.1258 2.10661 11.8757 2.10661 11.6319 2.15232L12.0007 4.11804ZM5 7.9889C5 7.79731 5.00045 7.69879 5.00489 7.6275C5.0086 7.568 5.01272 7.5812 5 7.61806L3.10932 6.96591C2.98695 7.32065 3 7.70243 3 7.9889H5ZM4.43733 5.66335C4.1811 5.79145 3.83378 5.95051 3.5712 6.21859L5 7.61806C4.97271 7.64593 4.95906 7.64815 5.01063 7.61822C5.07241 7.58236 5.16033 7.53791 5.33169 7.45224L4.43733 5.66335ZM5.33169 16.5478C5.16032 16.4621 5.0724 16.4176 5.01062 16.3818C4.95906 16.3519 4.97271 16.3541 5 16.382L3.5712 17.7814C3.83378 18.0495 4.18109 18.2086 4.43733 18.3367L5.33169 16.5478ZM3 16.0111C3 16.2976 2.98695 16.6794 3.10932 17.0341L5 16.382C5.01272 16.4188 5.0086 16.432 5.00489 16.3725C5.00045 16.3012 5 16.2027 5 16.0111H3ZM5 16.3819L5 16.382L3.10932 17.0341C3.20599 17.3144 3.36375 17.5696 3.5712 17.7814L5 16.3819ZM10.8377 21.5366C11.0483 21.6419 11.3243 21.79 11.6319 21.8476L12.0005 19.8819C12.0313 19.8877 12.0395 19.8948 11.9963 19.876C11.9435 19.853 11.8725 19.8179 11.7321 19.7477L10.8377 21.5366ZM12.2689 19.7476C12.1285 19.8179 12.0575 19.853 12.0047 19.876C11.9616 19.8948 11.9697 19.8877 12.0005 19.8819L12.3697 21.8475C12.6773 21.7898 12.9533 21.6416 13.1638 21.5362L12.2689 19.7476ZM15.5528 4.10558L7.55279 8.10558L8.44721 9.89444L16.4472 5.89444L15.5528 4.10558ZM8.94721 12.3556L7.94721 11.8556L7.05279 13.6444L8.05279 14.1444L8.94721 12.3556ZM5 7.61806L5 7.61807L3.31559 6.53975C3.23046 6.67272 3.16112 6.81573 3.10932 6.96591L5 7.61806ZM5 7.61807L5 7.61807L3.5712 6.21859C3.47491 6.31689 3.38933 6.42456 3.31559 6.53975L5 7.61807ZM12.4472 10.1056L4.60501 6.18448L3.71058 7.97333L11.5528 11.8944L12.4472 10.1056ZM19 7.61802L19 7.61802L20.6845 6.53977C20.6107 6.42459 20.5251 6.31692 20.4289 6.21862L19 7.61802ZM19 7.61802V7.61802L20.8907 6.96589C20.8389 6.81573 20.7696 6.67274 20.6845 6.53977L19 7.61802ZM19.395 6.18447L11.5528 10.1056L12.4472 11.8944L20.2894 7.97332L19.395 6.18447ZM11.6319 21.8476C11.7534 21.8704 11.8765 21.8818 11.9995 21.8819L12.0005 19.8819H12.0005L11.6319 21.8476ZM11.9995 21.8819C12.1235 21.882 12.2474 21.8705 12.3697 21.8475L12.0005 19.8819H12.0005L11.9995 21.8819ZM11 11V20.8819H13V11H11Z" fill="#0000CC"/>
</svg>
