<svg width="24" height="24" viewBox="0 0 24 24" fill="none" xmlns="http://www.w3.org/2000/svg">
<path opacity="0.14" d="M11.2851 20.6422L4.88451 17.4422C4.56345 17.2817 4.40289 17.2014 4.2856 17.0816C4.18188 16.9757 4.10299 16.8481 4.05466 16.708C4 16.5495 4 16.37 4 16.0111V7.98885C4 7.62988 4 7.4504 4.05466 7.29194C4.08056 7.21685 4.11523 7.14535 4.1578 7.07886L12 11V20.8819C11.9385 20.8819 11.877 20.8762 11.8163 20.8648C11.6787 20.839 11.5475 20.7734 11.2851 20.6422Z" fill="#0000CC"/>
<path d="M18.4976 14.7118L17.7536 15.38C17.9433 15.5912 18.2138 15.7118 18.4976 15.7118C18.7814 15.7118 19.0519 15.5912 19.2416 15.38L18.4976 14.7118ZM15.4425 17.1867L16.2173 16.5545L15.4425 17.1867ZM18.4976 19.9999L17.858 20.7686C18.2286 21.077 18.7666 21.077 19.1373 20.7686L18.4976 19.9999ZM12 20.9999L11.5528 21.8943C11.8628 22.0493 12.2309 22.0327 12.5258 21.8505C12.8206 21.6683 13 21.3465 13 20.9999H12ZM8.05279 14.1443C8.54676 14.3913 9.14744 14.1911 9.39443 13.6971C9.64142 13.2031 9.44119 12.6024 8.94721 12.3555L8.05279 14.1443ZM7.94721 11.8555C7.45324 11.6085 6.85256 11.8087 6.60557 12.3027C6.35858 12.7967 6.55881 13.3973 7.05279 13.6443L7.94721 11.8555ZM16.4472 5.89431C16.9412 5.64732 17.1414 5.04665 16.8944 4.55267C16.6474 4.05869 16.0468 3.85847 15.5528 4.10546L16.4472 5.89431ZM4.88451 17.4421L5.33172 16.5477L5.33169 16.5477L4.88451 17.4421ZM4.88451 6.55767L5.33169 7.45211L5.33169 7.45211L4.88451 6.55767ZM11.2851 3.35763L11.7323 4.25207L11.7323 4.25207L11.2851 3.35763ZM12.7162 3.35768L12.269 4.25209V4.25209L12.7162 3.35768ZM19.1156 6.55764L19.5628 5.66323V5.66323L19.1156 6.55764ZM19 9.99989C19 10.5522 19.4477 10.9999 20 10.9999C20.5523 10.9999 21 10.5522 21 9.99989H19ZM19.7144 6.91819L20.4289 6.21849L20.4289 6.21849L19.7144 6.91819ZM19.9453 7.29183L20.8907 6.96577V6.96577L19.9453 7.29183ZM11.8163 3.13506L12.0006 4.11792L12.0007 4.11792L11.8163 3.13506ZM12.1851 3.13507L12.0007 4.11792L12.0007 4.11792L12.1851 3.13507ZM4.05466 7.29186L5 7.61794H5L4.05466 7.29186ZM4.2856 6.91821L5 7.61795L5 7.61794L4.2856 6.91821ZM4.2856 17.0816L5 16.3818L5 16.3818L4.2856 17.0816ZM4.05466 16.7079L3.10932 17.034L3.10932 17.034L4.05466 16.7079ZM19.8422 7.07877L20.6845 6.53965L19.8422 7.07877ZM19.2416 14.0436C18.2426 12.9313 16.4767 12.5593 15.123 13.6609L16.3853 15.2122C16.7851 14.8869 17.3531 14.9341 17.7536 15.38L19.2416 14.0436ZM15.123 13.6609C13.8295 14.7134 13.6199 16.5348 14.6677 17.8189L16.2173 16.5545C15.888 16.151 15.9252 15.5866 16.3853 15.2122L15.123 13.6609ZM22.3275 17.8189C23.3659 16.5463 23.1948 14.7077 21.8617 13.6525L20.6204 15.2206C21.071 15.5773 21.1166 16.1394 20.7779 16.5545L22.3275 17.8189ZM21.8617 13.6525C20.5034 12.5773 18.7599 12.9232 17.7536 14.0436L19.2416 15.38C19.6348 14.9422 20.195 14.8839 20.6204 15.2206L21.8617 13.6525ZM14.6677 17.8189C15.0736 18.3164 15.904 19.0751 16.5667 19.6596C16.9114 19.9637 17.2335 20.2403 17.4693 20.4408C17.5873 20.5411 17.6839 20.6226 17.7513 20.6793C17.785 20.7076 17.8114 20.7297 17.8295 20.7448C17.8385 20.7524 17.8455 20.7582 17.8503 20.7622C17.8527 20.7642 17.8545 20.7657 17.8558 20.7668C17.8565 20.7673 17.857 20.7677 17.8573 20.768C17.8575 20.7682 17.8576 20.7683 17.8577 20.7684C17.8578 20.7684 17.8578 20.7685 17.8579 20.7685C17.8579 20.7685 17.858 20.7686 18.4976 19.9999C19.1373 19.2312 19.1373 19.2312 19.1373 19.2312C19.1373 19.2312 19.1373 19.2312 19.1372 19.2312C19.1372 19.2312 19.1371 19.2311 19.137 19.231C19.1368 19.2309 19.1364 19.2305 19.1359 19.2301C19.1349 19.2293 19.1334 19.228 19.1313 19.2262C19.1271 19.2227 19.1207 19.2174 19.1122 19.2103C19.0953 19.1962 19.0702 19.1752 19.0378 19.148C18.9731 19.0936 18.8795 19.0146 18.7649 18.9172C18.5354 18.722 18.2228 18.4536 17.8898 18.1598C17.197 17.5487 16.4998 16.9008 16.2173 16.5545L14.6677 17.8189ZM18.4976 19.9999C19.1373 20.7686 19.1373 20.7685 19.1373 20.7685C19.1374 20.7685 19.1374 20.7684 19.1375 20.7684C19.1376 20.7683 19.1377 20.7682 19.1379 20.768C19.1382 20.7677 19.1387 20.7673 19.1394 20.7668C19.1407 20.7657 19.1425 20.7642 19.1449 20.7622C19.1497 20.7582 19.1567 20.7524 19.1657 20.7448C19.1838 20.7297 19.2102 20.7076 19.2439 20.6793C19.3113 20.6226 19.4079 20.5411 19.5259 20.4408C19.7617 20.2403 20.0838 19.9637 20.4285 19.6596C21.0912 19.0751 21.9216 18.3164 22.3275 17.8189L20.7779 16.5545C20.4954 16.9008 19.7982 17.5487 19.1054 18.1598C18.7724 18.4536 18.4598 18.722 18.2303 18.9172C18.1157 19.0146 18.0221 19.0936 17.9574 19.148C17.925 19.1752 17.8999 19.1962 17.883 19.2103C17.8745 19.2174 17.8681 19.2227 17.8639 19.2262C17.8618 19.228 17.8603 19.2293 17.8593 19.2301C17.8588 19.2305 17.8584 19.2309 17.8582 19.231C17.8581 19.2311 17.858 19.2312 17.858 19.2312C17.8579 19.2312 17.8579 19.2312 17.8579 19.2312C17.8579 19.2312 17.858 19.2312 18.4976 19.9999ZM11 10.9999V20.9999H13V10.9999H11ZM8.94721 12.3555L7.94721 11.8555L7.05279 13.6443L8.05279 14.1443L8.94721 12.3555ZM15.5528 4.10546L7.55279 8.10546L8.44721 9.89431L16.4472 5.89431L15.5528 4.10546ZM12.4472 20.1055L5.33172 16.5477L4.43729 18.3365L11.5528 21.8943L12.4472 20.1055ZM5 16.011V7.98878H3V16.011H5ZM5.33169 7.45211L11.7323 4.25207L10.838 2.46319L4.43733 5.66323L5.33169 7.45211ZM12.269 4.25209L18.6683 7.45205L19.5628 5.66323L13.1635 2.46327L12.269 4.25209ZM19 7.9887V9.99989H21V7.9887H19ZM18.6683 7.45205C18.8397 7.53774 18.9276 7.58219 18.9894 7.61805C19.0409 7.64798 19.0273 7.64576 19 7.6179L20.4289 6.21849C20.1663 5.95041 19.819 5.79134 19.5628 5.66323L18.6683 7.45205ZM21 7.9887C21 7.70225 21.013 7.3205 20.8907 6.96577L19 7.61789C18.9873 7.58103 18.9914 7.56783 18.9951 7.62733C18.9996 7.69861 19 7.79712 19 7.9887H21ZM11.7323 4.25207C11.8726 4.18192 11.9437 4.14678 11.9964 4.12382C12.0396 4.10504 12.0314 4.11215 12.0006 4.11792L11.6319 2.1522C11.3244 2.20989 11.0485 2.35795 10.8379 2.46319L11.7323 4.25207ZM13.1635 2.46327C12.953 2.358 12.677 2.20994 12.3695 2.15223L12.0007 4.11792C11.9699 4.11215 11.9617 4.10504 12.0049 4.12381C12.0576 4.14678 12.1287 4.18192 12.269 4.25209L13.1635 2.46327ZM12.0007 4.11792V4.11792L12.3695 2.15223C12.1258 2.10649 11.8757 2.10648 11.6319 2.1522L12.0007 4.11792ZM5 7.98878C5 7.79719 5.00045 7.69867 5.00489 7.62737C5.0086 7.56788 5.01272 7.58107 5 7.61794L3.10932 6.96578C2.98695 7.32053 3 7.70231 3 7.98878H5ZM4.43733 5.66323C4.1811 5.79133 3.83378 5.95039 3.5712 6.21847L5 7.61794C4.97271 7.64581 4.95906 7.64803 5.01063 7.6181C5.07241 7.58224 5.16033 7.53779 5.33169 7.45211L4.43733 5.66323ZM5.33169 16.5477C5.16032 16.462 5.0724 16.4175 5.01062 16.3817C4.95906 16.3517 4.97271 16.354 5 16.3818L3.5712 17.7813C3.83378 18.0494 4.18109 18.2084 4.43733 18.3365L5.33169 16.5477ZM3 16.011C3 16.2975 2.98695 16.6792 3.10932 17.034L5 16.3818C5.01272 16.4187 5.0086 16.4319 5.00489 16.3724C5.00045 16.3011 5 16.2026 5 16.011H3ZM5 16.3818L5 16.3818L3.10932 17.034C3.20599 17.3142 3.36375 17.5695 3.5712 17.7813L5 16.3818ZM5 7.61794L5 7.61794L3.31559 6.53962C3.23046 6.6726 3.16112 6.8156 3.10932 6.96578L5 7.61794ZM5 7.61794L5 7.61795L3.5712 6.21847C3.47491 6.31677 3.38933 6.42444 3.31559 6.53962L5 7.61794ZM12.4472 10.1055L4.60501 6.18436L3.71058 7.97321L11.5528 11.8943L12.4472 10.1055ZM19 7.61789L19 7.6179L20.6845 6.53965C20.6107 6.42447 20.5251 6.3168 20.4289 6.21849L19 7.61789ZM19 7.6179V7.6179L20.8907 6.96577C20.8389 6.81561 20.7696 6.67262 20.6845 6.53965L19 7.6179ZM19.395 6.18435L11.5528 10.1055L12.4472 11.8943L20.2894 7.9732L19.395 6.18435Z" fill="#0000CC"/>
</svg>
