<svg width="24" height="24" viewBox="0 0 24 24" fill="none" xmlns="http://www.w3.org/2000/svg">
<path opacity="0.14" d="M11.2851 20.6422L4.88451 17.4422C4.56345 17.2817 4.40289 17.2014 4.2856 17.0816C4.18188 16.9757 4.10299 16.8481 4.05466 16.708C4 16.5495 4 16.37 4 16.0111V7.98885C4 7.62988 4 7.4504 4.05466 7.29194C4.08056 7.21685 4.11523 7.14535 4.1578 7.07886L12 11V20.8819C11.9385 20.8819 11.877 20.8762 11.8163 20.8648C11.6787 20.839 11.5475 20.7734 11.2851 20.6422Z" fill="#0000CC"/>
<path d="M18.8944 13.4471C19.1414 12.9531 18.9412 12.3524 18.4472 12.1055C17.9532 11.8585 17.3526 12.0587 17.1056 12.5527L18.8944 13.4471ZM16.5 15.9999L15.6056 15.5527C15.4506 15.8627 15.4671 16.2308 15.6493 16.5256C15.8316 16.8204 16.1534 16.9999 16.5 16.9999V15.9999ZM20.5 15.9999L21.3944 16.4471C21.5494 16.1371 21.5329 15.769 21.3507 15.4742C21.1684 15.1793 20.8466 14.9999 20.5 14.9999V15.9999ZM18.1056 18.5527C17.8586 19.0467 18.0588 19.6473 18.5528 19.8943C19.0468 20.1413 19.6474 19.9411 19.8944 19.4471L18.1056 18.5527ZM8.05279 14.1443C8.54676 14.3913 9.14744 14.1911 9.39443 13.6971C9.64142 13.2031 9.44119 12.6024 8.94721 12.3555L8.05279 14.1443ZM7.94721 11.8555C7.45324 11.6085 6.85256 11.8087 6.60557 12.3027C6.35858 12.7967 6.55881 13.3973 7.05279 13.6443L7.94721 11.8555ZM16.4472 5.89431C16.9412 5.64732 17.1414 5.04665 16.8944 4.55267C16.6474 4.05869 16.0468 3.85847 15.5528 4.10546L16.4472 5.89431ZM11.2851 20.6421L10.838 21.5366H10.838L11.2851 20.6421ZM4.88451 17.4421L5.33169 16.5477H5.33169L4.88451 17.4421ZM4.88451 6.55767L5.33169 7.45211L5.33169 7.45211L4.88451 6.55767ZM11.2851 3.35763L11.7323 4.25207L11.7323 4.25207L11.2851 3.35763ZM12.7162 3.35768L12.269 4.25209V4.25209L12.7162 3.35768ZM19.1156 6.55764L19.5628 5.66323V5.66323L19.1156 6.55764ZM19 8.99989C19 9.55217 19.4477 9.99989 20 9.99989C20.5523 9.99989 21 9.55217 21 8.99989H19ZM12.7162 20.6421L12.269 19.7477L12.7162 20.6421ZM14.9472 20.6445C15.4412 20.3975 15.6414 19.7969 15.3944 19.3029C15.1474 18.8089 14.5467 18.6087 14.0528 18.8557L14.9472 20.6445ZM19.7144 6.91819L20.4289 6.21849L20.4289 6.21849L19.7144 6.91819ZM19.9453 7.29183L20.8907 6.96577V6.96577L19.9453 7.29183ZM11.8163 3.13506L12.0006 4.11792L12.0007 4.11792L11.8163 3.13506ZM12.1851 3.13507L12.0007 4.11792L12.0007 4.11792L12.1851 3.13507ZM4.05466 7.29186L5 7.61794H5L4.05466 7.29186ZM4.2856 6.91821L5 7.61795L5 7.61794L4.2856 6.91821ZM4.2856 17.0816L5 16.3818L5 16.3818L4.2856 17.0816ZM4.05466 16.7079L3.10932 17.034L3.10932 17.034L4.05466 16.7079ZM11.8163 20.8647L11.6319 21.8476L11.8163 20.8647ZM12.1851 20.8647L12.0007 19.8819L12.1851 20.8647ZM19.8422 7.07877L20.6845 6.53965L19.8422 7.07877ZM12 20.8819L11.9994 21.8819L12 20.8819ZM17.1056 12.5527L15.6056 15.5527L17.3944 16.4471L18.8944 13.4471L17.1056 12.5527ZM16.5 16.9999H20.5V14.9999H16.5V16.9999ZM19.6056 15.5527L18.1056 18.5527L19.8944 19.4471L21.3944 16.4471L19.6056 15.5527ZM8.94721 12.3555L7.94721 11.8555L7.05279 13.6443L8.05279 14.1443L8.94721 12.3555ZM15.5528 4.10546L7.55279 8.10546L8.44721 9.89431L16.4472 5.89431L15.5528 4.10546ZM11.7323 19.7477L5.33169 16.5477L4.43733 18.3365L10.838 21.5366L11.7323 19.7477ZM5 16.011V7.98878H3V16.011H5ZM5.33169 7.45211L11.7323 4.25207L10.838 2.46319L4.43733 5.66323L5.33169 7.45211ZM12.269 4.25209L18.6683 7.45205L19.5628 5.66323L13.1635 2.46327L12.269 4.25209ZM19 7.9887V8.99989H21V7.9887H19ZM13.1635 21.5365L14.9472 20.6445L14.0528 18.8557L12.269 19.7477L13.1635 21.5365ZM18.6683 7.45205C18.8397 7.53774 18.9276 7.58219 18.9894 7.61805C19.0409 7.64798 19.0273 7.64576 19 7.6179L20.4289 6.21849C20.1663 5.95041 19.819 5.79134 19.5628 5.66323L18.6683 7.45205ZM21 7.9887C21 7.70225 21.013 7.3205 20.8907 6.96577L19 7.61789C18.9873 7.58103 18.9914 7.56783 18.9951 7.62733C18.9996 7.69861 19 7.79712 19 7.9887H21ZM11.7323 4.25207C11.8726 4.18192 11.9437 4.14678 11.9964 4.12382C12.0396 4.10504 12.0314 4.11215 12.0006 4.11792L11.6319 2.1522C11.3244 2.20989 11.0485 2.35795 10.8379 2.46319L11.7323 4.25207ZM13.1635 2.46327C12.953 2.358 12.677 2.20994 12.3695 2.15223L12.0007 4.11792C11.9699 4.11215 11.9617 4.10504 12.0049 4.12381C12.0576 4.14678 12.1287 4.18192 12.269 4.25209L13.1635 2.46327ZM12.0007 4.11792V4.11792L12.3695 2.15223C12.1258 2.10649 11.8757 2.10648 11.6319 2.1522L12.0007 4.11792ZM5 7.98878C5 7.79719 5.00045 7.69867 5.00489 7.62737C5.0086 7.56788 5.01272 7.58107 5 7.61794L3.10932 6.96578C2.98695 7.32053 3 7.70231 3 7.98878H5ZM4.43733 5.66323C4.1811 5.79133 3.83378 5.95039 3.5712 6.21847L5 7.61794C4.97271 7.64581 4.95906 7.64803 5.01063 7.6181C5.07241 7.58224 5.16033 7.53779 5.33169 7.45211L4.43733 5.66323ZM5.33169 16.5477C5.16032 16.462 5.0724 16.4175 5.01062 16.3817C4.95906 16.3517 4.97271 16.354 5 16.3818L3.5712 17.7813C3.83378 18.0494 4.18109 18.2084 4.43733 18.3365L5.33169 16.5477ZM3 16.011C3 16.2975 2.98695 16.6792 3.10932 17.034L5 16.3818C5.01272 16.4187 5.0086 16.4319 5.00489 16.3724C5.00045 16.3011 5 16.2026 5 16.011H3ZM5 16.3818L5 16.3818L3.10932 17.034C3.20599 17.3142 3.36375 17.5695 3.5712 17.7813L5 16.3818ZM10.838 21.5366C11.0485 21.6418 11.3244 21.7899 11.6319 21.8476L12.0007 19.8819C12.0314 19.8876 12.0396 19.8947 11.9964 19.876C11.9437 19.853 11.8727 19.8179 11.7323 19.7477L10.838 21.5366ZM12.269 19.7477C12.1287 19.8178 12.0576 19.853 12.0049 19.876C11.9617 19.8947 11.9699 19.8876 12.0007 19.8819L12.3695 21.8475C12.677 21.7898 12.9529 21.6418 13.1635 21.5365L12.269 19.7477ZM5 7.61794L5 7.61794L3.31559 6.53962C3.23046 6.6726 3.16112 6.8156 3.10932 6.96578L5 7.61794ZM5 7.61794L5 7.61795L3.5712 6.21847C3.47491 6.31677 3.38933 6.42444 3.31559 6.53962L5 7.61794ZM12.4472 10.1055L4.60501 6.18436L3.71058 7.97321L11.5528 11.8943L12.4472 10.1055ZM19 7.61789L19 7.6179L20.6845 6.53965C20.6107 6.42447 20.5251 6.3168 20.4289 6.21849L19 7.61789ZM19 7.6179V7.6179L20.8907 6.96577C20.8389 6.81561 20.7696 6.67262 20.6845 6.53965L19 7.6179ZM19.395 6.18435L11.5528 10.1055L12.4472 11.8943L20.2894 7.9732L19.395 6.18435ZM11.6319 21.8476C11.7534 21.8703 11.8764 21.8818 11.9994 21.8819L12.0007 19.8819H12.0007L11.6319 21.8476ZM11.9994 21.8819C12.1233 21.8819 12.2472 21.8705 12.3695 21.8475L12.0007 19.8819H12.0007L11.9994 21.8819ZM11 10.9999V20.8819H13V10.9999H11Z" fill="#0000CC"/>
</svg>
