<svg width="24" height="24" viewBox="0 0 24 24" fill="none" xmlns="http://www.w3.org/2000/svg">
<path opacity="0.14" d="M11.2851 20.6422L4.88451 17.4422C4.56345 17.2817 4.40289 17.2014 4.2856 17.0816C4.18188 16.9757 4.10299 16.8481 4.05466 16.708C4 16.5495 4 16.37 4 16.0111V7.98885C4 7.62988 4 7.4504 4.05466 7.29194C4.08056 7.21685 4.11523 7.14535 4.1578 7.07886L12 11V20.8819C11.9385 20.8819 11.877 20.8762 11.8163 20.8648C11.6787 20.839 11.5475 20.7734 11.2851 20.6422Z" fill="#0000CC"/>
<path d="M16 19L15.0194 18.8039C14.9538 19.1318 15.0565 19.4707 15.2929 19.7071C15.5293 19.9435 15.8683 20.0462 16.1961 19.9806L16 19ZM18.579 18.399L19.1511 19.2193L18.579 18.399ZM18.025 18.595L18.2211 19.5756L18.025 18.595ZM18.3721 18.5098L18.7373 19.4407L18.3721 18.5098ZM16.8426 16.1575L16.1354 15.4503L16.8426 16.1575ZM16.601 16.421L15.7808 15.8489L16.601 16.421ZM16.405 16.975L15.4244 16.7789L16.405 16.975ZM16.4903 16.6279L15.5593 16.2627L16.4903 16.6279ZM20 13L20.7071 13.7071L20 13ZM12 21L11.5528 21.8944C11.8628 22.0494 12.2309 22.0329 12.5258 21.8507C12.8206 21.6685 13 21.3466 13 21H12ZM8.05279 14.1444C8.54676 14.3914 9.14744 14.1912 9.39443 13.6972C9.64142 13.2032 9.44119 12.6026 8.94721 12.3556L8.05279 14.1444ZM7.94721 11.8556C7.45324 11.6086 6.85256 11.8088 6.60557 12.3028C6.35858 12.7968 6.55881 13.3974 7.05279 13.6444L7.94721 11.8556ZM16.4472 5.89444C16.9412 5.64745 17.1414 5.04677 16.8944 4.55279C16.6474 4.05882 16.0468 3.85859 15.5528 4.10558L16.4472 5.89444ZM4.88451 17.4422L5.33172 16.5478L5.33169 16.5478L4.88451 17.4422ZM4.88451 6.55779L5.33169 7.45224L5.33169 7.45223L4.88451 6.55779ZM11.2851 3.35775L11.7323 4.2522L11.7323 4.25219L11.2851 3.35775ZM12.7162 3.3578L12.269 4.25222V4.25222L12.7162 3.3578ZM19.1156 6.55777L19.5628 5.66335V5.66335L19.1156 6.55777ZM19 9.00001C19 9.55229 19.4477 10 20 10C20.5523 10 21 9.55229 21 9.00001H19ZM19.7144 6.91832L20.4289 6.21862L20.4289 6.21861L19.7144 6.91832ZM19.9453 7.29196L20.8907 6.9659V6.96589L19.9453 7.29196ZM11.8163 3.13518L12.0006 4.11804L12.0007 4.11804L11.8163 3.13518ZM12.1851 3.1352L12.0007 4.11804L12.0007 4.11804L12.1851 3.1352ZM4.05466 7.29199L5 7.61806H5L4.05466 7.29199ZM4.2856 6.91833L5 7.61807L5 7.61806L4.2856 6.91833ZM4.2856 17.0817L5 16.382L5 16.3819L4.2856 17.0817ZM4.05466 16.708L3.10932 17.0341L3.10932 17.0341L4.05466 16.708ZM19.8422 7.07889L20.6845 6.53977L19.8422 7.07889ZM17.5497 16.8646L20.7071 13.7071L19.2929 12.2929L16.1354 15.4503L17.5497 16.8646ZM21.2929 14.2929L18.1354 17.4503L19.5497 18.8646L22.7071 15.7071L21.2929 14.2929ZM17.8288 17.6144L15.8039 18.0194L16.1961 19.9806L18.2211 19.5756L17.8288 17.6144ZM16.9806 19.1961L17.3856 17.1712L15.4244 16.7789L15.0194 18.8039L16.9806 19.1961ZM18.1354 17.4503C18.0672 17.5186 18.0334 17.5522 18.0081 17.5758C17.988 17.5946 17.9916 17.5895 18.007 17.5788L19.1511 19.2193C19.3128 19.1064 19.4467 18.9675 19.5497 18.8646L18.1354 17.4503ZM18.2211 19.5756C18.3639 19.547 18.5537 19.5127 18.7373 19.4407L18.007 17.5788C18.0244 17.572 18.0307 17.5717 18.0039 17.5781C17.9702 17.586 17.9236 17.5955 17.8288 17.6144L18.2211 19.5756ZM18.007 17.5788V17.5788L18.7373 19.4407C18.8834 19.3834 19.0223 19.3091 19.1511 19.2193L18.007 17.5788ZM16.1354 15.4503C16.0325 15.5533 15.8936 15.6872 15.7808 15.8489L17.4212 16.993C17.4105 17.0084 17.4054 17.0121 17.4242 16.9919C17.4478 16.9666 17.4814 16.9329 17.5497 16.8646L16.1354 15.4503ZM17.3856 17.1712C17.4045 17.0765 17.414 17.0298 17.4219 16.9961C17.4283 16.9693 17.4281 16.9756 17.4212 16.993L15.5593 16.2627C15.4873 16.4463 15.453 16.6361 15.4244 16.7789L17.3856 17.1712ZM15.7808 15.8489C15.691 15.9777 15.6166 16.1166 15.5593 16.2627L17.4212 16.993L15.7808 15.8489ZM21.2929 13.7071C21.4547 13.8689 21.4547 14.1311 21.2929 14.2929L22.7071 15.7071C23.6499 14.7643 23.6499 13.2357 22.7071 12.2929L21.2929 13.7071ZM22.7071 12.2929C21.7643 11.3501 20.2357 11.3501 19.2929 12.2929L20.7071 13.7071C20.8689 13.5454 21.1311 13.5454 21.2929 13.7071L22.7071 12.2929ZM11 11V21H13V11H11ZM8.94721 12.3556L7.94721 11.8556L7.05279 13.6444L8.05279 14.1444L8.94721 12.3556ZM15.5528 4.10558L7.55279 8.10558L8.44721 9.89444L16.4472 5.89444L15.5528 4.10558ZM12.4472 20.1056L5.33172 16.5478L4.43729 18.3366L11.5528 21.8944L12.4472 20.1056ZM5 16.0111V7.9889H3V16.0111H5ZM5.33169 7.45223L11.7323 4.2522L10.838 2.46331L4.43733 5.66335L5.33169 7.45223ZM12.269 4.25222L18.6683 7.45218L19.5628 5.66335L13.1635 2.46339L12.269 4.25222ZM19 7.98882V9.00001H21V7.98882H19ZM18.6683 7.45218C18.8397 7.53786 18.9276 7.58232 18.9894 7.61818C19.0409 7.6481 19.0273 7.64588 19 7.61802L20.4289 6.21861C20.1663 5.95053 19.819 5.79147 19.5628 5.66335L18.6683 7.45218ZM21 7.98882C21 7.70237 21.013 7.32062 20.8907 6.9659L19 7.61802C18.9873 7.58115 18.9914 7.56795 18.9951 7.62745C18.9996 7.69874 19 7.79725 19 7.98882H21ZM11.7323 4.25219C11.8726 4.18204 11.9437 4.1469 11.9964 4.12394C12.0396 4.10516 12.0314 4.11227 12.0006 4.11804L11.6319 2.15232C11.3244 2.21001 11.0485 2.35807 10.8379 2.46331L11.7323 4.25219ZM13.1635 2.46339C12.953 2.35812 12.677 2.21006 12.3695 2.15235L12.0007 4.11804C11.9699 4.11227 11.9617 4.10516 12.0049 4.12394C12.0576 4.1469 12.1287 4.18205 12.269 4.25222L13.1635 2.46339ZM12.0007 4.11804V4.11804L12.3695 2.15235C12.1258 2.10661 11.8757 2.10661 11.6319 2.15232L12.0007 4.11804ZM5 7.9889C5 7.79731 5.00045 7.69879 5.00489 7.6275C5.0086 7.568 5.01272 7.5812 5 7.61806L3.10932 6.96591C2.98695 7.32065 3 7.70243 3 7.9889H5ZM4.43733 5.66335C4.1811 5.79145 3.83378 5.95051 3.5712 6.21859L5 7.61806C4.97271 7.64593 4.95906 7.64815 5.01063 7.61822C5.07241 7.58236 5.16033 7.53791 5.33169 7.45224L4.43733 5.66335ZM5.33169 16.5478C5.16032 16.4621 5.0724 16.4176 5.01062 16.3818C4.95906 16.3519 4.97271 16.3541 5 16.382L3.5712 17.7814C3.83378 18.0495 4.18109 18.2086 4.43733 18.3367L5.33169 16.5478ZM3 16.0111C3 16.2976 2.98695 16.6794 3.10932 17.0341L5 16.382C5.01272 16.4188 5.0086 16.432 5.00489 16.3725C5.00045 16.3012 5 16.2027 5 16.0111H3ZM5 16.3819L5 16.382L3.10932 17.0341C3.20599 17.3144 3.36375 17.5696 3.5712 17.7814L5 16.3819ZM5 7.61806L5 7.61807L3.31559 6.53975C3.23046 6.67272 3.16112 6.81573 3.10932 6.96591L5 7.61806ZM5 7.61807L5 7.61807L3.5712 6.21859C3.47491 6.31689 3.38933 6.42456 3.31559 6.53975L5 7.61807ZM12.4472 10.1056L4.60501 6.18448L3.71058 7.97333L11.5528 11.8944L12.4472 10.1056ZM19 7.61802L19 7.61802L20.6845 6.53977C20.6107 6.42459 20.5251 6.31692 20.4289 6.21862L19 7.61802ZM19 7.61802V7.61802L20.8907 6.96589C20.8389 6.81573 20.7696 6.67274 20.6845 6.53977L19 7.61802ZM19.395 6.18447L11.5528 10.1056L12.4472 11.8944L20.2894 7.97332L19.395 6.18447Z" fill="#0000CC"/>
</svg>
