<svg width="24" height="24" viewBox="0 0 24 24" fill="none" xmlns="http://www.w3.org/2000/svg">
<path fill-rule="evenodd" clip-rule="evenodd" d="M3 4C3.55228 4 4 4.44772 4 5V15H10V10C10 9.44772 10.4477 9 11 9L17.8385 9C18.3657 8.99998 18.8205 8.99997 19.195 9.03057C19.5904 9.06287 19.9836 9.13419 20.362 9.32698C20.9265 9.6146 21.3854 10.0735 21.673 10.638C21.8658 11.0164 21.9371 11.4096 21.9694 11.805C22 12.1795 22 12.6343 22 13.1614V19C22 19.5523 21.5523 20 21 20C20.4477 20 20 19.5523 20 19V17H4V19C4 19.5523 3.55228 20 3 20C2.44772 20 2 19.5523 2 19V5C2 4.44772 2.44772 4 3 4ZM5 12C5 10.8954 5.89543 10 7 10C8.10457 10 9 10.8954 9 12C9 13.1046 8.10457 14 7 14C5.89543 14 5 13.1046 5 12Z" fill="#0000CC"/>
</svg>
