<svg width="24" height="24" viewBox="0 0 24 24" fill="none" xmlns="http://www.w3.org/2000/svg">
<path fill-rule="evenodd" clip-rule="evenodd" d="M3.32698 4.63803C3 5.27976 3 6.11984 3 7.8V16.2C3 17.8802 3 18.7202 3.32698 19.362C3.6146 19.9265 4.07354 20.3854 4.63803 20.673C5.27976 21 6.11984 21 7.8 21H12.7638C11.7084 19.8221 11.7467 18.0106 12.8787 16.8787C14.0095 15.7478 15.8186 15.7085 16.9966 16.7608L18.8787 14.8787C19.4645 14.2929 20.2322 14 21 14V7.8C21 6.11984 21 5.27976 20.673 4.63803C20.3854 4.07354 19.9265 3.6146 19.362 3.32698C18.7202 3 17.8802 3 16.2 3H7.8C6.11984 3 5.27976 3 4.63803 3.32698C4.07354 3.6146 3.6146 4.07354 3.32698 4.63803ZM9.99479 9C9.99479 7.89543 10.8902 7 11.9948 7C13.0994 7 13.9948 7.89543 13.9948 9C13.9948 10.1046 13.0994 11 11.9948 11C10.8902 11 9.99479 10.1046 9.99479 9ZM11.9949 12C10.5926 12 9.35893 12.7215 8.64476 13.8136C8.46218 14.0927 8.37089 14.2323 8.39287 14.5658C8.40788 14.7934 8.60718 15.1619 8.78951 15.2991C9.05654 15.5 9.31693 15.5 9.83771 15.5H14.152C14.6728 15.5 14.9332 15.5 15.2002 15.2991C15.3825 15.1619 15.5818 14.7934 15.5968 14.5658C15.6188 14.2323 15.5275 14.0927 15.345 13.8136C14.6308 12.7215 13.3971 12 11.9949 12Z" fill="#0000CC"/>
<path d="M21.7071 17.7071L17.7071 21.7071C17.3166 22.0976 16.6834 22.0976 16.2929 21.7071L14.2929 19.7071C13.9024 19.3166 13.9024 18.6834 14.2929 18.2929C14.6834 17.9024 15.3166 17.9024 15.7071 18.2929L17 19.5858L20.2929 16.2929C20.6834 15.9024 21.3166 15.9024 21.7071 16.2929C22.0976 16.6834 22.0976 17.3166 21.7071 17.7071Z" fill="#0000CC"/>
</svg>
