<svg width="24" height="24" viewBox="0 0 24 24" fill="none" xmlns="http://www.w3.org/2000/svg">
<path d="M11.5218 2C8.76042 2 6.52185 4.23858 6.52185 7C6.52185 9.76142 8.76042 12 11.5218 12C14.2833 12 16.5218 9.76142 16.5218 7C16.5218 4.23858 14.2833 2 11.5218 2Z" fill="#0000CC"/>
<path d="M11.5218 13C12.2168 13 12.8934 13.0788 13.5432 13.2279C13.3782 13.5507 13.2473 13.8937 13.155 14.2522C12.7693 15.7509 13.5865 17.2766 15.0034 17.8079C14.9663 18.3898 15.098 18.9805 15.3985 19.5002C15.1433 19.9415 14.9973 20.4537 14.9973 21C14.9973 21.3506 15.0575 21.6872 15.168 22H6.52185C5.32763 22 4.73052 22 4.08897 21.5566C3.65466 21.2564 3.12614 20.4187 3.0422 19.8975C2.91822 19.1275 3.07688 18.7949 3.39421 18.1297C4.84134 15.0961 7.9368 13 11.5218 13Z" fill="#0000CC"/>
<path d="M17.9973 14.5C17.5327 14.5 17.1398 14.8177 17.0287 15.2493C16.8911 15.7841 16.3459 16.1061 15.811 15.9684C15.2762 15.8308 14.9542 15.2856 15.0919 14.7507C15.4248 13.457 16.598 12.5 17.9973 12.5C19.6541 12.5 20.9973 13.8431 20.9973 15.5C20.9973 16.4314 20.5428 17.0493 20.0668 17.5087C19.874 17.6948 19.6544 17.8768 19.457 18.0404L19.3712 18.1116C19.1408 18.3033 18.9203 18.4913 18.7044 18.7071C18.3139 19.0976 17.6807 19.0976 17.2902 18.7071C16.8997 18.3166 16.8997 17.6834 17.2902 17.2929C17.5744 17.0087 17.8539 16.7723 18.0922 16.574L18.1837 16.498C18.3883 16.3282 18.5435 16.1994 18.6778 16.0697C18.9518 15.8053 18.9973 15.6732 18.9973 15.5C18.9973 14.9477 18.5496 14.5 17.9973 14.5Z" fill="#0000CC"/>
<path d="M19 21C19 21.5523 18.5523 22 18 22C17.4477 22 17 21.5523 17 21C17 20.4477 17.4477 20 18 20C18.5523 20 19 20.4477 19 21Z" fill="#0000CC"/>
</svg>
