<svg width="24" height="24" viewBox="0 0 24 24" fill="none" xmlns="http://www.w3.org/2000/svg">
<path d="M11 2C8.23862 2 6.00005 4.23858 6.00005 7C6.00005 9.76142 8.23862 12 11 12C13.7615 12 16 9.76142 16 7C16 4.23858 13.7615 2 11 2Z" fill="#0000CC"/>
<path d="M7.68414 13L7.59006 13C7.04618 12.9998 6.64297 12.9996 6.28748 13.064C4.64594 13.3612 3.3612 14.6459 3.06402 16.2874C2.99967 16.6429 2.99982 17.0461 3.00002 17.59L3.00004 19.4319C3.00001 19.6843 2.99998 19.9301 3.01699 20.1382C3.03567 20.3668 3.07973 20.6366 3.21803 20.908C3.40978 21.2843 3.71574 21.5903 4.09206 21.782C4.36349 21.9203 4.63322 21.9644 4.86182 21.9831C5.06988 22.0001 5.31565 22 5.56791 22H12.5L11.931 21.4581C10.7312 20.3155 10.6849 18.4165 11.8276 17.2168C12.8832 16.1083 14.5844 15.9844 15.7834 16.873L17.931 14.8276C18.0172 14.7455 18.107 14.6695 18.1999 14.5997C17.6058 13.808 16.7248 13.2457 15.7071 13.063C15.3543 12.9996 14.9543 12.9998 14.4147 13L14.3213 13C14.1243 13 13.9317 13.0582 13.7676 13.1673C12.9768 13.6931 12.0244 14 11 14C9.97666 14 9.02944 13.6936 8.23782 13.1673C8.07376 13.0582 7.88115 13 7.68414 13Z" fill="#0000CC"/>
<path d="M20.6897 17.7241C21.0896 17.3433 21.105 16.7103 20.7241 16.3103C20.3433 15.9104 19.7103 15.895 19.3103 16.2759L15.8 19.619L14.6897 18.5616C14.2897 18.1807 13.6567 18.1961 13.2759 18.5961C12.895 18.996 12.9104 19.629 13.3103 20.0099L15.1103 21.7241C15.4966 22.092 16.1035 22.092 16.4897 21.7241L20.6897 17.7241Z" fill="#0000CC"/>
</svg>
