<svg width="24" height="24" viewBox="0 0 24 24" fill="none" xmlns="http://www.w3.org/2000/svg">
<path d="M6.52185 7C6.52185 4.23858 8.76042 2 11.5218 2C14.2833 2 16.5218 4.23858 16.5218 7C16.5218 9.76142 14.2833 12 11.5218 12C8.76042 12 6.52185 9.76142 6.52185 7Z" fill="#0000CC"/>
<path d="M11.5218 13C12.2801 13 13.0164 13.0938 13.7198 13.2703C13.1705 13.4903 12.7629 13.7887 12.5535 13.9952C11.7925 14.7454 9.98725 16.8182 11.6891 19.7964C12.0303 20.3263 12.785 21.1321 13.668 22H6.52185C5.32763 22 4.73052 22 4.08897 21.5566C3.65466 21.2564 3.12614 20.4187 3.0422 19.8975C2.91822 19.1275 3.07688 18.7949 3.39421 18.1297C4.84134 15.0961 7.9368 13 11.5218 13Z" fill="#0000CC"/>
<path d="M16.9973 15.8705C16.1975 14.9178 14.8639 14.6616 13.8619 15.5339C12.8599 16.4063 12.7188 17.8648 13.5057 18.8966C13.9736 19.5101 15.1197 20.6103 15.9719 21.4015C16.3237 21.728 16.4996 21.8913 16.7114 21.9575C16.8925 22.0142 17.102 22.0142 17.2832 21.9575C17.4949 21.8913 17.6708 21.728 18.0226 21.4015C18.8748 20.6103 20.0209 19.5101 20.4888 18.8966C21.2757 17.8648 21.1519 16.3971 20.1326 15.5339C19.1134 14.6707 17.797 14.9178 16.9973 15.8705Z" fill="#0000CC"/>
</svg>
