<svg width="24" height="24" viewBox="0 0 24 24" fill="none" xmlns="http://www.w3.org/2000/svg">
<path d="M11 2C8.23858 2 6 4.23858 6 7C6 9.76142 8.23858 12 11 12C13.7614 12 16 9.76142 16 7C16 4.23858 13.7614 2 11 2Z" fill="#0000CC"/>
<path d="M11 13C6.58172 13 3 16.5817 3 21C3 21.5523 3.44772 22 4 22H15.1675C15.057 21.6872 14.9968 21.3506 14.9968 21C14.9968 20.4537 15.1429 19.9415 15.398 19.5002C15.0975 18.9805 14.9658 18.3898 15.0029 17.8079C13.586 17.2766 12.7688 15.7509 13.1545 14.2522C13.2318 13.952 13.3362 13.6627 13.4649 13.3869C12.6885 13.1357 11.8601 13 11 13Z" fill="#0000CC"/>
<path d="M17.9973 14.5C17.5327 14.5 17.1398 14.8177 17.0287 15.2493C16.8911 15.7841 16.3459 16.1061 15.811 15.9684C15.2762 15.8308 14.9542 15.2856 15.0919 14.7507C15.4248 13.457 16.598 12.5 17.9973 12.5C19.6541 12.5 20.9973 13.8431 20.9973 15.5C20.9973 16.4314 20.5428 17.0493 20.0668 17.5087C19.874 17.6948 19.6544 17.8768 19.457 18.0404L19.3712 18.1116C19.1408 18.3033 18.9203 18.4913 18.7044 18.7071C18.3139 19.0976 17.6807 19.0976 17.2902 18.7071C16.8997 18.3166 16.8997 17.6834 17.2902 17.2929C17.5744 17.0087 17.8539 16.7723 18.0922 16.574L18.1837 16.498C18.3883 16.3282 18.5435 16.1994 18.6778 16.0697C18.9518 15.8053 18.9973 15.6732 18.9973 15.5C18.9973 14.9477 18.5496 14.5 17.9973 14.5Z" fill="#0000CC"/>
<path d="M19 21C19 21.5523 18.5523 22 18 22C17.4477 22 17 21.5523 17 21C17 20.4477 17.4477 20 18 20C18.5523 20 19 20.4477 19 21Z" fill="#0000CC"/>
</svg>
